<?xml version="1.0" encoding="UTF-8"?><!DOCTYPE svg PUBLIC "-//W3C//DTD SVG 1.1//EN" "http://www.w3.org/Graphics/SVG/1.1/DTD/svg11.dtd"><svg xmlns="http://www.w3.org/2000/svg" xmlns:xlink="http://www.w3.org/1999/xlink"><defs>
<clipPath id="clip0_203_107">
<rect width="217" height="72" fill="white"/>
</clipPath>

<clipPath id="clip0_203_111">
<rect width="217" height="72" fill="white"/>
</clipPath>

<clipPath id="clip0_203_113">
<rect width="217" height="72" fill="white"/>
</clipPath>
</defs><symbol id="LogoBrandDerivWordmarkCoralIcon" viewBox="0 0 217 72">
<g id="logo / brand / deriv-wordmark / coral" clip-path="url(#clip0_203_107)">
<path id="logo" d="M43.4717 2.27116L39.7568 23.331H26.8612C14.8305 23.331 3.36323 33.0745 1.23785 45.1006L0.338242 50.2194C-1.77724 62.2456 6.24979 71.9892 18.2805 71.9892H29.036C37.8045 71.9892 46.1578 64.8938 47.7 56.1289L57.6053 0L43.4717 2.27116ZM34.3216 54.1425C33.8471 56.8501 31.4085 59.054 28.6999 59.054H22.1656C16.7582 59.054 13.1401 54.6661 14.089 49.2509L14.6526 46.0592C15.6114 40.6538 20.7717 36.2563 26.1791 36.2563H37.4767L34.3216 54.1425ZM142.785 71.9881L151.247 24.0018H164.632L156.17 71.9881H142.785ZM144.233 24.5552C143.562 28.3613 142.888 32.1675 142.217 35.9738C135.876 34.0039 129.334 34.6312 127.324 35.0319C125.153 47.3536 122.979 59.6783 120.806 72H107.412C109.231 61.6902 115.444 26.4806 115.444 26.4806C119.801 24.6774 130.499 21.0176 144.233 24.5552ZM89.9629 23.3228H79.5436C69.3911 23.3228 59.7136 31.5444 57.924 41.6931L55.8185 53.6204C54.0291 63.7689 60.8009 71.9908 70.9535 71.9908H93.1167L95.3905 59.0951H74.5612C71.1806 59.0951 68.9167 56.3577 69.5199 52.9682L69.5891 52.5631H103.17L105.088 41.6931C106.877 31.5444 100.106 23.3228 89.9531 23.3228H89.9629ZM91.6534 40.6654L91.5744 41.3571H71.6059L71.7146 40.7444C72.3173 37.3648 75.4019 34.3904 78.7922 34.3904H86.592C89.9434 34.3904 92.2074 37.3154 91.6534 40.6654ZM203.463 24.0018H216.857C212.294 36.1284 201.838 56.7568 191.708 71.9881H178.314C173.664 57.4915 170.661 37.293 170.089 24.0018H183.484C183.725 28.3374 185.667 44.4186 187.883 55.653C193.96 44.7236 200.66 30.384 203.452 24.0018H203.463Z" fill="#FF444F"/>
</g>

</symbol><symbol id="LogoBrandDerivWordmarkSlateIcon" viewBox="0 0 217 72">
<g id="logo / brand / deriv-wordmark / slate" clip-path="url(#clip0_203_111)">
<path id="logo" d="M43.4717 2.27116L39.7568 23.331H26.8612C14.8305 23.331 3.36323 33.0745 1.23785 45.1006L0.338242 50.2194C-1.77724 62.2456 6.24979 71.9892 18.2805 71.9892H29.036C37.8045 71.9892 46.1578 64.8938 47.7 56.1289L57.6053 0L43.4717 2.27116ZM34.3216 54.1425C33.8471 56.8501 31.4085 59.054 28.6999 59.054H22.1656C16.7582 59.054 13.1401 54.6661 14.089 49.2509L14.6526 46.0592C15.6114 40.6538 20.7717 36.2563 26.1791 36.2563H37.4767L34.3216 54.1425ZM142.785 71.9881L151.247 24.0018H164.632L156.17 71.9881H142.785ZM144.233 24.5552C143.562 28.3613 142.888 32.1675 142.217 35.9738C135.876 34.0039 129.334 34.6312 127.324 35.0319C125.153 47.3536 122.979 59.6783 120.806 72H107.412C109.231 61.6902 115.444 26.4806 115.444 26.4806C119.801 24.6774 130.499 21.0176 144.233 24.5552ZM89.9629 23.3228H79.5436C69.3911 23.3228 59.7136 31.5444 57.924 41.6931L55.8185 53.6204C54.0291 63.7689 60.8009 71.9908 70.9535 71.9908H93.1167L95.3905 59.0951H74.5612C71.1806 59.0951 68.9167 56.3577 69.5199 52.9682L69.5891 52.5631H103.17L105.088 41.6931C106.877 31.5444 100.106 23.3228 89.9531 23.3228H89.9629ZM91.6534 40.6654L91.5744 41.3571H71.6059L71.7146 40.7444C72.3173 37.3648 75.4019 34.3904 78.7922 34.3904H86.592C89.9434 34.3904 92.2074 37.3154 91.6534 40.6654ZM203.463 24.0018H216.857C212.294 36.1284 201.838 56.7568 191.708 71.9881H178.314C173.664 57.4915 170.661 37.293 170.089 24.0018H183.484C183.725 28.3374 185.667 44.4186 187.883 55.653C193.96 44.7236 200.66 30.384 203.452 24.0018H203.463Z" fill="#414652"/>
</g>

</symbol><symbol id="LogoBrandDerivWordmarkWhiteIcon" viewBox="0 0 217 72">
<g id="logo / brand / deriv-wordmark / white" clip-path="url(#clip0_203_113)">
<path id="logo" d="M43.4717 2.27116L39.7568 23.331H26.8612C14.8305 23.331 3.36323 33.0745 1.23785 45.1006L0.338242 50.2194C-1.77724 62.2456 6.24979 71.9892 18.2805 71.9892H29.036C37.8045 71.9892 46.1578 64.8938 47.7 56.1289L57.6053 0L43.4717 2.27116ZM34.3216 54.1425C33.8471 56.8501 31.4085 59.054 28.6999 59.054H22.1656C16.7582 59.054 13.1401 54.6661 14.089 49.2509L14.6526 46.0592C15.6114 40.6538 20.7717 36.2563 26.1791 36.2563H37.4767L34.3216 54.1425ZM142.785 71.9881L151.247 24.0018H164.632L156.17 71.9881H142.785ZM144.233 24.5552C143.562 28.3613 142.888 32.1675 142.217 35.9738C135.876 34.0039 129.334 34.6312 127.324 35.0319C125.153 47.3536 122.979 59.6783 120.806 72H107.412C109.231 61.6902 115.444 26.4806 115.444 26.4806C119.801 24.6774 130.499 21.0176 144.233 24.5552ZM89.9629 23.3228H79.5436C69.3911 23.3228 59.7136 31.5444 57.924 41.6931L55.8185 53.6204C54.0291 63.7689 60.8009 71.9908 70.9535 71.9908H93.1167L95.3905 59.0951H74.5612C71.1806 59.0951 68.9167 56.3577 69.5199 52.9682L69.5891 52.5631H103.17L105.088 41.6931C106.877 31.5444 100.106 23.3228 89.9531 23.3228H89.9629ZM91.6534 40.6654L91.5744 41.3571H71.6059L71.7146 40.7444C72.3173 37.3648 75.4019 34.3904 78.7922 34.3904H86.592C89.9434 34.3904 92.2074 37.3154 91.6534 40.6654ZM203.463 24.0018H216.857C212.294 36.1284 201.838 56.7568 191.708 71.9881H178.314C173.664 57.4915 170.661 37.293 170.089 24.0018H183.484C183.725 28.3374 185.667 44.4186 187.883 55.653C193.96 44.7236 200.66 30.384 203.452 24.0018H203.463Z" fill="white"/>
</g>

</symbol><symbol id="LogoBrandDerivLogoCoralIcon" viewBox="0 0 72 72">
<g id="logo / brand / deriv-logo / coral">
<g id="logo">
<path d="M0 28C0 12.536 12.536 0 28 0H44C59.464 0 72 12.536 72 28V44C72 59.464 59.464 72 44 72H28C12.536 72 0 59.464 0 44V28Z" fill="#FF444F"/>
<path d="M45.1673 14.9167L42.8457 28.0829H34.7867C27.2682 28.0829 20.1018 34.1743 18.7736 41.6928L18.2114 44.893C16.8893 52.4115 21.9058 58.5031 29.4243 58.5031H36.1459C41.6257 58.5031 46.846 54.0671 47.8098 48.5875L54 13.4968L45.1673 14.9167ZM39.449 47.3456C39.1525 49.0384 37.6286 50.4162 35.9358 50.4162H31.8522C28.4729 50.4162 26.2118 47.673 26.8048 44.2875L27.157 42.2921C27.7562 38.9127 30.9811 36.1636 34.3604 36.1636H41.4208L39.449 47.3456Z" fill="white"/>
</g>
</g>
</symbol><symbol id="LogoBrandDerivLogoSlateIcon" viewBox="0 0 72 72">
<g id="logo / brand / deriv-logo / slate">
<g id="logo">
<path d="M0 28C0 12.536 12.536 0 28 0H44C59.464 0 72 12.536 72 28V44C72 59.464 59.464 72 44 72H28C12.536 72 0 59.464 0 44V28Z" fill="#414652"/>
<path d="M45.1673 14.9167L42.8457 28.0829H34.7867C27.2682 28.0829 20.1018 34.1743 18.7736 41.6928L18.2114 44.893C16.8893 52.4115 21.9058 58.5031 29.4243 58.5031H36.1459C41.6257 58.5031 46.846 54.0671 47.8098 48.5875L54 13.4968L45.1673 14.9167ZM39.449 47.3456C39.1525 49.0384 37.6286 50.4162 35.9358 50.4162H31.8522C28.4729 50.4162 26.2118 47.673 26.8048 44.2875L27.157 42.2921C27.7562 38.9127 30.9811 36.1636 34.3604 36.1636H41.4208L39.449 47.3456Z" fill="white"/>
</g>
</g>
</symbol><symbol id="LogoBrandDerivLogoWhiteCoralIcon" viewBox="0 0 72 72">
<g id="logo / brand / deriv-logo / white-coral">
<g id="logo">
<path d="M0 28C0 12.536 12.536 0 28 0H44C59.464 0 72 12.536 72 28V44C72 59.464 59.464 72 44 72H28C12.536 72 0 59.464 0 44V28Z" fill="white"/>
<path d="M45.1673 14.9167L42.8457 28.0829H34.7867C27.2682 28.0829 20.1018 34.1743 18.7736 41.6928L18.2114 44.893C16.8893 52.4115 21.9058 58.5031 29.4243 58.5031H36.1459C41.6257 58.5031 46.846 54.0671 47.8098 48.5875L54 13.4968L45.1673 14.9167ZM39.449 47.3456C39.1525 49.0384 37.6286 50.4162 35.9358 50.4162H31.8522C28.4729 50.4162 26.2118 47.673 26.8048 44.2875L27.157 42.2921C27.7562 38.9127 30.9811 36.1636 34.3604 36.1636H41.4208L39.449 47.3456Z" fill="#FF444F"/>
</g>
</g>
</symbol><symbol id="LogoBrandDerivLogoWhiteSlateIcon" viewBox="0 0 72 72">
<g id="logo / brand / deriv-logo / white-slate">
<g id="logo">
<path d="M0 28C0 12.536 12.536 0 28 0H44C59.464 0 72 12.536 72 28V44C72 59.464 59.464 72 44 72H28C12.536 72 0 59.464 0 44V28Z" fill="white"/>
<path d="M45.1673 14.9167L42.8457 28.0829H34.7867C27.2682 28.0829 20.1018 34.1743 18.7736 41.6928L18.2114 44.893C16.8893 52.4115 21.9058 58.5031 29.4243 58.5031H36.1459C41.6257 58.5031 46.846 54.0671 47.8098 48.5875L54 13.4968L45.1673 14.9167ZM39.449 47.3456C39.1525 49.0384 37.6286 50.4162 35.9358 50.4162H31.8522C28.4729 50.4162 26.2118 47.673 26.8048 44.2875L27.157 42.2921C27.7562 38.9127 30.9811 36.1636 34.3604 36.1636H41.4208L39.449 47.3456Z" fill="#414652"/>
</g>
</g>
</symbol></svg>