<svg width="32" height="32" viewBox="0 0 32 32" fill="none" xmlns="http://www.w3.org/2000/svg">
<g id="currencies / currency-usdc" clip-path="url(#clip0_1859_904)">
<g id="logo">
<path d="M32 16C32 24.8366 24.8366 32 16 32C7.16344 32 0 24.8366 0 16C0 7.16344 7.16344 0 16 0C24.8366 0 32 7.16344 32 16Z" fill="#2775CA"/>
<path d="M6.66668 12.7333C4.73324 17.8667 7.39996 23.6667 12.6 25.5333C12.8 25.6667 13 25.9333 13 26.1333V27.0667C13 27.2 13 27.2667 12.9332 27.3333C12.8667 27.6 12.6 27.7333 12.3332 27.6C8.59996 26.4 5.73324 23.5333 4.53324 19.8C2.53324 13.4667 5.99996 6.73328 12.3332 4.73328C12.4 4.66672 12.5332 4.66672 12.6 4.66672C12.8667 4.73328 13 4.93328 13 5.2V6.13328C13 6.46672 12.8667 6.66672 12.6 6.8C9.86668 7.8 7.66668 9.93328 6.66668 12.7333Z" fill="white"/>
<path d="M19.0667 5C19.1332 4.73328 19.4 4.6 19.6667 4.73328C23.3332 5.93328 26.2667 8.8 27.4667 12.6C29.4667 18.9333 26 25.6667 19.6667 27.6667C19.6 27.7333 19.4667 27.7333 19.4 27.7333C19.1332 27.6667 19 27.4667 19 27.2V26.2667C19 25.9333 19.1332 25.7333 19.4 25.6C22.1332 24.6 24.3332 22.4667 25.3332 19.6667C27.2667 14.5333 24.6 8.73328 19.4 6.86672C19.2 6.73328 19 6.46672 19 6.2V5.26672C19 5.13328 19 5.06672 19.0667 5Z" fill="white"/>
<path d="M16.2 15.0667C19 15.4 20.4 16.2 20.4 18.5333C20.4 20.3333 19.0667 21.7333 17.0667 22.0667V23.6667C17 24 16.8 24.2 16.5332 24.2H15.5332C15.2 24.1333 15 23.9333 15 23.6667V22.0667C12.8 21.7333 11.7332 20.5333 11.4667 18.8667V18.8C11.4667 18.5333 11.6667 18.3333 11.9332 18.3333H13.0667C13.2667 18.3333 13.4667 18.4667 13.5332 18.7333C13.7332 19.7333 14.3332 20.4667 16.0667 20.4667C17.3332 20.4667 18.2667 19.7334 18.2667 18.6667C18.2667 17.6 17.6667 17.2 15.8 16.8667C13 16.5333 11.6667 15.6667 11.6667 13.4667C11.6667 11.8 12.9332 10.4667 14.9332 10.2V8.66672C15 8.33328 15.2 8.13328 15.4667 8.13328H16.4667C16.8 8.2 17 8.4 17 8.66672V10.2667C18.5332 10.4 19.7332 11.5333 20 13V13.0667C20 13.3333 19.8 13.5333 19.5332 13.5333H18.4667C18.2667 13.5333 18.0667 13.4 18 13.2C17.6667 12.2 17 11.8 15.8 11.8C14.4667 11.8 13.8 12.3998 13.8 13.3333C13.8 14.2667 14.2 14.8 16.2 15.0667Z" fill="white"/>
</g>
</g>
<defs>
<clipPath id="clip0_1859_904">
<rect width="32" height="32" fill="white"/>
</clipPath>
</defs>
</svg>
