<svg width="32" height="32" viewBox="0 0 32 32" fill="none" xmlns="http://www.w3.org/2000/svg">
<g id="currencies / currency-demo">
<g id="logo">
<path d="M32 16C32 24.8366 24.8366 32 16 32C7.16344 32 0 24.8366 0 16C0 7.16344 7.16344 0 16 0C24.8366 0 32 7.16344 32 16Z" fill="#85ACB0"/>
<path d="M17.535 6C22.6642 6 27 10.7434 27 16C27 21.2566 22.6642 26 17.535 26H9C8.44771 26 8 25.5523 8 25C8 24.4477 8.44771 24 9 24H11V20H9C8.48716 20 8.06449 19.614 8.00673 19.1166L8 19C8 18.4477 8.44771 18 9 18H11V14H9C8.48716 14 8.06449 13.614 8.00673 13.1166L8 13C8 12.4477 8.44771 12 9 12H11V8H9C8.48716 8 8.06449 7.61396 8.00673 7.11662L8 7C8 6.44772 8.44771 6 9 6H17.535ZM17.535 8H13V12H17C17.5128 12 17.9355 12.386 17.9933 12.8834L18 13C18 13.5523 17.5523 14 17 14H13V18H17C17.5128 18 17.9355 18.386 17.9933 18.8834L18 19C18 19.5523 17.5523 20 17 20H13V24H17.535C21.4409 24 24.8659 20.3353 24.9962 16.2413L25 16C25 11.8099 21.5175 8 17.535 8Z" fill="white"/>
</g>
</g>
</svg>
