<svg width="32" height="32" viewBox="0 0 32 32" fill="none" xmlns="http://www.w3.org/2000/svg">
<g id="currencies / currency-eurs" clip-path="url(#clip0_1859_886)">
<g id="logo">
<path d="M32 16C32 24.8366 24.8366 32 16 32C7.16344 32 0 24.8366 0 16C0 7.16345 7.16344 3.95171e-06 16 3.95171e-06C24.8366 3.95171e-06 32 7.16345 32 16Z" fill="white"/>
<path fill-rule="evenodd" clip-rule="evenodd" d="M0 16C0 24.8366 7.16344 32 16 32C18.1847 32.0029 20.3464 31.557 22.3512 30.69C21.5785 30.6106 20.8104 30.4913 20.0501 30.3324C18.3538 29.967 16.7993 29.4107 15.3867 28.6636C12.4439 27.1031 10.3739 24.8203 9.17675 21.8153H3.84003L5.46116 17.9805H8.22929C8.13233 17.229 8.08232 16.4721 8.07954 15.7143C8.07954 14.9841 8.10442 14.3284 8.1542 13.7472H3.84003L5.46116 9.9357H8.92744C10.0248 6.7155 12.0614 4.23372 15.0374 2.49035C16.5925 1.57593 18.281 0.909456 20.0418 0.514976C18.7219 0.172101 17.3638 -0.000953565 16 3.95171e-06C7.16344 3.95171e-06 0 7.16345 0 16ZM25.4399 3.08031C20.5226 3.71087 15.6298 5.7488 13.8099 9.93653H28.6291L26.9831 13.7481H12.8679C12.8009 14.3123 12.7676 15.0013 12.7679 15.815C12.7682 16.6287 12.8347 17.3505 12.9674 17.9805H25.0388L23.392 21.8153H14.489C16.51 25.1479 21.6646 27.3118 27.0602 27.5616C30.2206 24.5447 32.0058 20.3663 32 16C32 10.6937 29.4169 5.99117 25.4399 3.08031Z" fill="#2469E4"/>
</g>
</g>
<defs>
<clipPath id="clip0_1859_886">
<rect width="32" height="32" fill="white"/>
</clipPath>
</defs>
</svg>
