<svg width="32" height="32" viewBox="0 0 32 32" fill="none" xmlns="http://www.w3.org/2000/svg">
<g id="currencies / currency-trx">
<g id="logo">
<path d="M32 16C32 24.8366 24.8366 32 16 32C7.16344 32 0 24.8366 0 16C0 7.16344 7.16344 0 16 0C24.8366 0 32 7.16344 32 16Z" fill="#DC062B"/>
<path d="M20.4734 10.2235L8.39075 8L14.7494 24L23.6092 13.2057L20.4734 10.2235ZM20.279 11.2032L22.1272 12.9599L17.072 13.8753L20.279 11.2032ZM15.9743 13.6922L10.646 9.27325L19.3545 10.8756L15.9743 13.6922ZM15.5945 14.4737L14.726 21.6562L10.0415 9.86789L15.5945 14.4737ZM16.3987 14.855L21.9963 13.8412L15.5756 21.6638L16.3987 14.855Z" fill="white"/>
</g>
</g>
</svg>
