<svg width="32" height="32" viewBox="0 0 32 32" fill="none" xmlns="http://www.w3.org/2000/svg">
<g id="currencies / currency-iota">
<g id="logo">
<path d="M32 16C32 24.8366 24.8366 32 16 32C7.16344 32 0 24.8366 0 16C0 7.16344 7.16344 0 16 0C24.8366 0 32 7.16344 32 16Z" fill="#131F37"/>
<path d="M20.1495 10.0142C19.9986 10.1155 19.8211 10.1699 19.6393 10.1704C19.3951 10.1707 19.1608 10.074 18.9878 9.90158C18.8149 9.72914 18.7175 9.49508 18.7171 9.25085C18.7171 9.06909 18.7709 8.8914 18.8719 8.74024C18.9728 8.58907 19.1163 8.4712 19.2841 8.40152C19.452 8.33184 19.6368 8.31348 19.8151 8.34874C19.9934 8.38401 20.1573 8.47133 20.286 8.59967C20.4147 8.72801 20.5025 8.89162 20.5383 9.06982C20.574 9.24803 20.5562 9.43284 20.487 9.60092C20.4178 9.769 20.3004 9.9128 20.1495 10.0142Z" fill="white"/>
<path d="M21.187 23.0035C21.036 23.1048 20.8584 23.1592 20.6765 23.1596C20.4326 23.1597 20.1985 23.0631 20.0257 22.8909C19.8529 22.7187 19.7555 22.485 19.7548 22.2411C19.7546 22.0592 19.8083 21.8814 19.9091 21.7301C20.0099 21.5788 20.1534 21.4607 20.3213 21.3909C20.4891 21.3211 20.674 21.3026 20.8524 21.3378C21.0308 21.373 21.1947 21.4603 21.3235 21.5886C21.4523 21.717 21.5402 21.8806 21.576 22.0589C21.6118 22.2372 21.5939 22.422 21.5247 22.5902C21.4555 22.7583 21.3379 22.9021 21.187 23.0035Z" fill="white"/>
<path d="M19.9025 12.4692C20.0551 12.4688 20.2041 12.4232 20.3307 12.3381C20.4574 12.2531 20.556 12.1324 20.6141 11.9913C20.6721 11.8502 20.6871 11.6951 20.6571 11.5455C20.6271 11.396 20.5534 11.2586 20.4454 11.1509C20.3373 11.0432 20.1998 10.9699 20.0502 10.9403C19.9005 10.9106 19.7454 10.9261 19.6045 10.9845C19.4636 11.043 19.3432 11.1419 19.2585 11.2688C19.1737 11.3957 19.1285 11.5448 19.1285 11.6974C19.1286 11.7989 19.1487 11.8994 19.1876 11.9932C19.2266 12.0869 19.2836 12.1721 19.3555 12.2438C19.4274 12.3155 19.5127 12.3723 19.6065 12.411C19.7004 12.4497 19.801 12.4695 19.9025 12.4692Z" fill="white"/>
<path d="M22.3889 12.634C22.2621 12.719 22.1131 12.7645 21.9605 12.7648C21.7556 12.765 21.559 12.6837 21.414 12.539C21.269 12.3943 21.1873 12.1979 21.187 11.993C21.187 11.8404 21.2323 11.6912 21.317 11.5643C21.4018 11.4374 21.5222 11.3385 21.6631 11.28C21.8041 11.2216 21.9592 11.2062 22.1089 11.2359C22.2585 11.2655 22.3961 11.3389 22.5041 11.4466C22.6121 11.5544 22.6857 11.6918 22.7157 11.8414C22.7457 11.991 22.7306 12.1462 22.6724 12.2872C22.6142 12.4283 22.5156 12.549 22.3889 12.634Z" fill="white"/>
<path d="M19.6396 14.4241C19.7695 14.4238 19.8965 14.3851 20.0044 14.3128C20.1123 14.2405 20.1964 14.1377 20.246 14.0176C20.2956 13.8975 20.3084 13.7655 20.2829 13.638C20.2575 13.5106 20.1948 13.3936 20.1028 13.3018C20.0109 13.21 19.8938 13.1476 19.7664 13.1223C19.6389 13.097 19.5068 13.1101 19.3868 13.1599C19.2668 13.2096 19.1642 13.2939 19.0921 13.4019C19.0199 13.51 18.9814 13.637 18.9814 13.7669C18.9817 13.9413 19.0511 14.1084 19.1746 14.2316C19.298 14.3549 19.4652 14.4241 19.6396 14.4241Z" fill="white"/>
<path d="M22.0621 14.5911C21.9542 14.6636 21.8273 14.7024 21.6974 14.7027C21.611 14.7028 21.5254 14.686 21.4456 14.653C21.3658 14.6201 21.2932 14.5718 21.232 14.5108C21.1708 14.4498 21.1223 14.3774 21.0891 14.2977C21.0559 14.2179 21.0388 14.1324 21.0386 14.0461C21.0385 13.9161 21.0769 13.7891 21.149 13.681C21.2211 13.5729 21.3236 13.4886 21.4435 13.4387C21.5635 13.3888 21.6956 13.3757 21.8231 13.4008C21.9505 13.426 22.0677 13.4884 22.1597 13.5801C22.2517 13.6718 22.3145 13.7888 22.3401 13.9162C22.3656 14.0435 22.3529 14.1757 22.3034 14.2958C22.2539 14.4159 22.1699 14.5187 22.0621 14.5911Z" fill="white"/>
<path d="M23.3439 15.3433C23.4738 15.3431 23.6008 15.3044 23.7087 15.232C23.8166 15.1597 23.9007 15.057 23.9503 14.9369C23.9999 14.8168 24.0127 14.6847 23.9872 14.5573C23.9618 14.4299 23.8991 14.3129 23.8071 14.2211C23.7152 14.1293 23.5981 14.0668 23.4707 14.0415C23.3432 14.0163 23.2111 14.0293 23.0911 14.0791C22.9711 14.1289 22.8685 14.2131 22.7964 14.3212C22.7242 14.4292 22.6857 14.5562 22.6857 14.6861C22.686 14.8605 22.7554 15.0277 22.8789 15.1509C23.0023 15.2741 23.1695 15.3433 23.3439 15.3433Z" fill="white"/>
<path d="M21.4079 16.1818C21.3135 16.2451 21.2024 16.279 21.0887 16.2792C20.9361 16.2794 20.7897 16.2189 20.6817 16.1112C20.5737 16.0035 20.5129 15.8573 20.5126 15.7048C20.5125 15.5911 20.5461 15.4799 20.6092 15.3853C20.6722 15.2907 20.7619 15.2169 20.8669 15.1732C20.9719 15.1296 21.0875 15.1181 21.1991 15.1401C21.3106 15.1622 21.4131 15.2168 21.4936 15.2971C21.5741 15.3774 21.629 15.4797 21.6514 15.5912C21.6737 15.7027 21.6625 15.8183 21.6192 15.9234C21.5759 16.0285 21.5023 16.1184 21.4079 16.1818Z" fill="white"/>
<path d="M19.0309 15.9999C19.1446 15.9998 19.2557 15.966 19.3502 15.9028C19.4447 15.8395 19.5183 15.7497 19.5618 15.6446C19.6052 15.5395 19.6165 15.4239 19.5943 15.3124C19.572 15.2009 19.5172 15.0985 19.4368 15.0182C19.3563 14.9378 19.2539 14.8831 19.1424 14.8609C19.0308 14.8388 18.9152 14.8502 18.8102 14.8937C18.7052 14.9373 18.6154 15.011 18.5522 15.1055C18.4891 15.2001 18.4554 15.3112 18.4554 15.4249C18.4557 15.5774 18.5164 15.7236 18.6243 15.8314C18.7322 15.9392 18.8784 15.9998 19.0309 15.9999Z" fill="white"/>
<path d="M23.0706 16.8224C22.9762 16.8857 22.8651 16.9196 22.7514 16.9198C22.5988 16.92 22.4524 16.8595 22.3444 16.7518C22.2364 16.6441 22.1756 16.4979 22.1753 16.3454C22.1752 16.2317 22.2088 16.1205 22.2719 16.0259C22.3349 15.9313 22.4246 15.8575 22.5296 15.8138C22.6346 15.7702 22.7502 15.7587 22.8618 15.7807C22.9733 15.8028 23.0758 15.8574 23.1563 15.9377C23.2368 16.018 23.2917 16.1203 23.3141 16.2318C23.3364 16.3433 23.3252 16.4589 23.2819 16.564C23.2386 16.6691 23.165 16.759 23.0706 16.8224Z" fill="white"/>
<path d="M20.2657 17.4782C20.3631 17.478 20.4583 17.4489 20.5392 17.3946C20.6201 17.3403 20.6831 17.2633 20.7202 17.1732C20.7574 17.0831 20.767 16.984 20.7479 16.8885C20.7287 16.793 20.6817 16.7052 20.6127 16.6364C20.5438 16.5676 20.4559 16.5208 20.3604 16.5018C20.2648 16.4829 20.1657 16.4927 20.0757 16.5301C19.9857 16.5674 19.9088 16.6306 19.8547 16.7116C19.8006 16.7926 19.7717 16.8879 19.7717 16.9853C19.7718 17.0501 19.7846 17.1142 19.8095 17.1741C19.8344 17.2339 19.8708 17.2883 19.9166 17.334C19.9625 17.3798 20.0169 17.4161 20.0768 17.4408C20.1367 17.4656 20.2009 17.4782 20.2657 17.4782Z" fill="white"/>
<path d="M22.2006 18.0189C22.1197 18.0732 22.0245 18.1023 21.9271 18.1025C21.7962 18.1025 21.6708 18.0506 21.5782 17.9582C21.4856 17.8658 21.4334 17.7405 21.4331 17.6096C21.4331 17.5122 21.462 17.417 21.5161 17.3359C21.5702 17.2549 21.6471 17.1917 21.7371 17.1544C21.8271 17.1171 21.9262 17.1072 22.0218 17.1262C22.1173 17.1451 22.2052 17.1919 22.2741 17.2608C22.3431 17.3296 22.3901 17.4173 22.4093 17.5128C22.4284 17.6084 22.4188 17.7074 22.3816 17.7975C22.3445 17.8876 22.2815 17.9646 22.2006 18.0189Z" fill="white"/>
<path d="M18.2235 17.182C18.321 17.1819 18.4162 17.1529 18.4972 17.0986C18.5782 17.0444 18.6413 16.9674 18.6785 16.8773C18.7157 16.7873 18.7254 16.6882 18.7063 16.5926C18.6873 16.497 18.6403 16.4093 18.5713 16.3404C18.5024 16.2715 18.4145 16.2246 18.319 16.2057C18.2234 16.1867 18.1243 16.1965 18.0343 16.2338C17.9442 16.2711 17.8673 16.3343 17.8132 16.4153C17.759 16.4964 17.7301 16.5916 17.7301 16.6891C17.7303 16.8199 17.7823 16.9452 17.8748 17.0376C17.9674 17.1301 18.0928 17.182 18.2235 17.182Z" fill="white"/>
<path d="M19.5899 18.2128C19.5225 18.2581 19.4431 18.2824 19.3619 18.2826C19.3079 18.2827 19.2545 18.2722 19.2045 18.2517C19.1546 18.2312 19.1092 18.201 19.071 18.1629C19.0328 18.1248 19.0024 18.0795 18.9817 18.0297C18.9609 17.9798 18.9502 17.9264 18.9501 17.8724C18.95 17.7912 18.974 17.7118 19.019 17.6442C19.064 17.5766 19.1281 17.5239 19.2031 17.4927C19.278 17.4615 19.3606 17.4532 19.4403 17.4689C19.52 17.4846 19.5932 17.5236 19.6507 17.5809C19.7083 17.6382 19.7475 17.7113 19.7635 17.7909C19.7795 17.8705 19.7716 17.9531 19.7407 18.0282C19.7098 18.1033 19.6573 18.1675 19.5899 18.2128Z" fill="white"/>
<path d="M20.0675 19.4138C20.1389 19.4136 20.2086 19.3922 20.2678 19.3524C20.3271 19.3126 20.3732 19.2562 20.4004 19.1902C20.4275 19.1242 20.4345 19.0516 20.4205 18.9816C20.4064 18.9116 20.372 18.8474 20.3214 18.797C20.2709 18.7466 20.2065 18.7123 20.1365 18.6984C20.0665 18.6846 19.9939 18.6918 19.928 18.7192C19.8621 18.7465 19.8057 18.7928 19.7661 18.8522C19.7265 18.9116 19.7053 18.9813 19.7053 19.0527C19.7053 19.1002 19.7147 19.1473 19.7329 19.1911C19.7511 19.235 19.7778 19.2749 19.8115 19.3084C19.8451 19.342 19.885 19.3685 19.929 19.3866C19.9729 19.4047 20.02 19.414 20.0675 19.4138Z" fill="white"/>
<path d="M19.3581 19.5952C19.3096 19.6277 19.2525 19.6451 19.1941 19.6452C19.1157 19.6452 19.0405 19.6141 18.985 19.5587C18.9295 19.5033 18.8982 19.4281 18.8981 19.3497C18.8981 19.2913 18.9154 19.2342 18.9478 19.1856C18.9803 19.137 19.0264 19.0991 19.0804 19.0768C19.1343 19.0544 19.1937 19.0485 19.251 19.0598C19.3083 19.0712 19.361 19.0993 19.4023 19.1406C19.4437 19.1818 19.4719 19.2344 19.4833 19.2917C19.4948 19.349 19.489 19.4084 19.4667 19.4624C19.4444 19.5164 19.4067 19.5626 19.3581 19.5952Z" fill="white"/>
<path d="M18.4217 18.7914C18.4931 18.7912 18.5628 18.7699 18.6221 18.7301C18.6813 18.6903 18.7274 18.6338 18.7546 18.5678C18.7818 18.5018 18.7888 18.4292 18.7747 18.3592C18.7607 18.2892 18.7262 18.225 18.6756 18.1746C18.6251 18.1242 18.5607 18.0899 18.4907 18.0761C18.4207 18.0622 18.3481 18.0694 18.2822 18.0968C18.2163 18.1242 18.16 18.1705 18.1203 18.2298C18.0807 18.2892 18.0595 18.3589 18.0595 18.4303C18.0596 18.4778 18.069 18.5248 18.0873 18.5687C18.1055 18.6125 18.1322 18.6524 18.1658 18.6859C18.1995 18.7194 18.2394 18.746 18.2833 18.7641C18.3272 18.7822 18.3742 18.7915 18.4217 18.7914Z" fill="white"/>
<path d="M17.53 17.9336C17.4626 17.9788 17.3833 18.0031 17.3021 18.0033C17.2481 18.0034 17.1946 17.9928 17.1447 17.9722C17.0948 17.9516 17.0494 17.9214 17.0111 17.8832C16.9729 17.8451 16.9426 17.7998 16.9218 17.7499C16.9011 17.7001 16.8904 17.6466 16.8903 17.5926C16.8903 17.5114 16.9144 17.432 16.9595 17.3645C17.0045 17.297 17.0686 17.2444 17.1436 17.2132C17.2186 17.1821 17.3011 17.1739 17.3808 17.1897C17.4604 17.2054 17.5336 17.2445 17.5911 17.3018C17.6486 17.3591 17.6878 17.4322 17.7037 17.5118C17.7197 17.5914 17.7117 17.674 17.6808 17.749C17.6499 17.8241 17.5974 17.8883 17.53 17.9336Z" fill="white"/>
<path d="M17.2852 14.9162C17.3664 14.916 17.4457 14.8917 17.5131 14.8464C17.5805 14.8012 17.633 14.737 17.6639 14.6619C17.6948 14.5868 17.7028 14.5043 17.6868 14.4247C17.6708 14.3451 17.6316 14.272 17.5742 14.2147C17.5167 14.1573 17.4435 14.1183 17.3638 14.1026C17.2842 14.0868 17.2017 14.095 17.1267 14.1261C17.0517 14.1572 16.9876 14.2099 16.9425 14.2774C16.8975 14.3449 16.8734 14.4243 16.8734 14.5055C16.8735 14.5595 16.8842 14.6129 16.9049 14.6628C16.9256 14.7127 16.956 14.758 16.9942 14.7961C17.0325 14.8342 17.0778 14.8645 17.1278 14.8851C17.1777 14.9057 17.2312 14.9163 17.2852 14.9162Z" fill="white"/>
<path d="M17.6669 13.4098C17.6075 13.4497 17.5376 13.471 17.466 13.4711C17.4185 13.4711 17.3715 13.4619 17.3276 13.4438C17.2837 13.4256 17.2438 13.3991 17.2102 13.3655C17.1765 13.332 17.1498 13.2922 17.1316 13.2483C17.1133 13.2045 17.1039 13.1575 17.1039 13.11C17.1037 13.0384 17.1249 12.9685 17.1645 12.909C17.2042 12.8494 17.2606 12.803 17.3266 12.7755C17.3927 12.748 17.4654 12.7408 17.5355 12.7546C17.6057 12.7685 17.6702 12.8028 17.7208 12.8533C17.7715 12.9038 17.806 12.9682 17.8201 13.0384C17.8342 13.1085 17.8271 13.1812 17.7998 13.2473C17.7725 13.3135 17.7263 13.37 17.6669 13.4098Z" fill="white"/>
<path d="M17.8613 12.2887C17.9197 12.2885 17.9768 12.271 18.0252 12.2384C18.0737 12.2058 18.1114 12.1596 18.1336 12.1055C18.1558 12.0515 18.1615 11.9921 18.15 11.9349C18.1385 11.8776 18.1102 11.8251 18.0689 11.7839C18.0275 11.7426 17.9748 11.7146 17.9175 11.7033C17.8602 11.692 17.8009 11.6979 17.7469 11.7203C17.693 11.7427 17.6469 11.7806 17.6145 11.8291C17.5821 11.8777 17.5648 11.9348 17.5648 11.9932C17.5648 12.0321 17.5726 12.0706 17.5875 12.1064C17.6025 12.1423 17.6243 12.1749 17.6519 12.2024C17.6794 12.2298 17.7121 12.2516 17.748 12.2664C17.784 12.2812 17.8225 12.2888 17.8613 12.2887Z" fill="white"/>
<path d="M17.37 11.6716C17.3106 11.7114 17.2407 11.7328 17.1692 11.7329C17.1217 11.733 17.0746 11.7238 17.0306 11.7057C16.9867 11.6876 16.9468 11.661 16.9131 11.6275C16.8795 11.5939 16.8528 11.5541 16.8346 11.5102C16.8164 11.4663 16.807 11.4193 16.807 11.3717C16.8069 11.3002 16.828 11.2303 16.8676 11.1707C16.9073 11.1112 16.9637 11.0648 17.0297 11.0373C17.0958 11.0098 17.1685 11.0026 17.2387 11.0164C17.3088 11.0303 17.3733 11.0646 17.424 11.1151C17.4746 11.1656 17.5092 11.23 17.5232 11.3001C17.5373 11.3703 17.5302 11.443 17.503 11.5091C17.4757 11.5752 17.4294 11.6318 17.37 11.6716Z" fill="white"/>
<path d="M21.0064 18.9063C21.0876 18.9061 21.1669 18.8818 21.2344 18.8365C21.3018 18.7912 21.3542 18.727 21.3852 18.6519C21.4161 18.5768 21.424 18.4942 21.408 18.4146C21.392 18.335 21.3527 18.2619 21.2952 18.2046C21.2377 18.1473 21.1644 18.1083 21.0847 18.0926C21.0051 18.0769 20.9225 18.0852 20.8475 18.1164C20.7726 18.1476 20.7085 18.2003 20.6635 18.2679C20.6185 18.3355 20.5945 18.4149 20.5946 18.4961C20.5947 18.5501 20.6054 18.6035 20.6261 18.6534C20.6469 18.7032 20.6772 18.7485 20.7155 18.7865C20.7537 18.8246 20.7991 18.8548 20.849 18.8754C20.8989 18.8959 20.9524 18.9064 21.0064 18.9063Z" fill="white"/>
<path d="M16.4601 11.1829C16.3928 11.2282 16.3135 11.2526 16.2324 11.2529C16.1783 11.253 16.1248 11.2425 16.0748 11.2219C16.0248 11.2014 15.9794 11.1712 15.9411 11.133C15.9028 11.0949 15.8724 11.0495 15.8516 10.9996C15.8308 10.9497 15.8201 10.8962 15.82 10.8422C15.82 10.761 15.8441 10.6817 15.8892 10.6142C15.9342 10.5466 15.9983 10.494 16.0732 10.4629C16.1482 10.4317 16.2307 10.4235 16.3103 10.4392C16.3899 10.455 16.4631 10.4939 16.5206 10.5512C16.5781 10.6085 16.6174 10.6815 16.6334 10.7611C16.6494 10.8406 16.6415 10.9232 16.6107 10.9982C16.5798 11.0733 16.5274 11.1376 16.4601 11.1829Z" fill="white"/>
<path d="M16.5118 12.995C16.593 12.9948 16.6723 12.9705 16.7397 12.9253C16.8071 12.88 16.8596 12.8157 16.8905 12.7406C16.9214 12.6655 16.9294 12.5829 16.9134 12.5033C16.8974 12.4237 16.8581 12.3506 16.8006 12.2933C16.743 12.236 16.6698 12.197 16.5901 12.1813C16.5104 12.1656 16.4279 12.1739 16.3529 12.2051C16.2779 12.2363 16.2139 12.289 16.1689 12.3566C16.1238 12.4242 16.0999 12.5036 16.1 12.5848C16.1003 12.6938 16.1438 12.7982 16.221 12.8751C16.2982 12.952 16.4028 12.9952 16.5118 12.995Z" fill="white"/>
<path d="M16.3245 14.5698C16.2436 14.6241 16.1484 14.6532 16.051 14.6534C15.9862 14.6535 15.922 14.6408 15.8621 14.616C15.8022 14.5913 15.7478 14.555 15.7019 14.5093C15.6561 14.4635 15.6197 14.4091 15.5948 14.3493C15.5699 14.2895 15.5571 14.2253 15.557 14.1605C15.557 14.0631 15.5859 13.9679 15.64 13.8868C15.6941 13.8058 15.771 13.7426 15.861 13.7053C15.951 13.668 16.0501 13.6581 16.1457 13.6771C16.2412 13.696 16.3291 13.7428 16.398 13.8117C16.467 13.8805 16.514 13.9682 16.5332 14.0637C16.5523 14.1593 16.5427 14.2583 16.5056 14.3484C16.4684 14.4385 16.4054 14.5155 16.3245 14.5698Z" fill="white"/>
<path d="M14.552 14.653C14.6656 14.6523 14.7765 14.618 14.8707 14.5544C14.9649 14.4908 15.0381 14.4007 15.0811 14.2954C15.1241 14.1902 15.1349 14.0746 15.1122 13.9632C15.0895 13.8519 15.0344 13.7497 14.9537 13.6697C14.873 13.5897 14.7703 13.5353 14.6588 13.5136C14.5472 13.4918 14.4317 13.5036 14.3269 13.5475C14.222 13.5914 14.1325 13.6653 14.0697 13.76C14.0068 13.8547 13.9734 13.9659 13.9738 14.0796C13.974 14.1552 13.9891 14.2301 14.0183 14.2999C14.0475 14.3696 14.0902 14.433 14.1439 14.4863C14.1976 14.5395 14.2613 14.5817 14.3313 14.6103C14.4013 14.6389 14.4763 14.6534 14.552 14.653Z" fill="white"/>
<path d="M13.1717 14.9362C13.0638 15.0086 12.937 15.0474 12.807 15.0477C12.7206 15.0479 12.635 15.031 12.5552 14.998C12.4753 14.9651 12.4027 14.9167 12.3415 14.8557C12.2803 14.7946 12.2318 14.7221 12.1986 14.6423C12.1655 14.5625 12.1484 14.477 12.1483 14.3906C12.1483 14.2607 12.1868 14.1337 12.2589 14.0257C12.3311 13.9176 12.4336 13.8334 12.5536 13.7836C12.6736 13.7338 12.8056 13.7207 12.9331 13.7459C13.0605 13.7712 13.1776 13.8336 13.2696 13.9253C13.3615 14.0171 13.4242 14.134 13.4498 14.2614C13.4753 14.3888 13.4625 14.5208 13.413 14.641C13.3635 14.7611 13.2796 14.8638 13.1717 14.9362Z" fill="white"/>
<path d="M10.8971 15.9835C11.0496 15.9831 11.1987 15.9376 11.3254 15.8526C11.4522 15.7676 11.5508 15.6469 11.609 15.5059C11.6672 15.3648 11.6822 15.2097 11.6523 15.0601C11.6223 14.9104 11.5487 14.7731 11.4407 14.6653C11.3327 14.5575 11.1951 14.4841 11.0455 14.4545C10.8958 14.4248 10.7407 14.4402 10.5997 14.4987C10.4588 14.5572 10.3383 14.6561 10.2536 14.783C10.1689 14.9099 10.1236 15.059 10.1236 15.2116C10.1239 15.4165 10.2055 15.6129 10.3506 15.7576C10.4956 15.9024 10.6922 15.9836 10.8971 15.9835Z" fill="white"/>
<path d="M9.43204 17.4035C9.28109 17.5048 9.10351 17.5591 8.92172 17.5595C8.80082 17.5597 8.68107 17.536 8.56932 17.4898C8.45757 17.4437 8.356 17.376 8.27041 17.2906C8.18482 17.2052 8.11689 17.1038 8.07049 16.9922C8.02409 16.8805 8.00014 16.7608 8 16.6399C8 16.4581 8.05388 16.2804 8.15483 16.1292C8.25578 15.9781 8.39928 15.8602 8.56719 15.7905C8.7351 15.7209 8.91988 15.7025 9.09821 15.7379C9.27653 15.7732 9.44039 15.8605 9.56908 15.9889C9.69777 16.1173 9.78552 16.281 9.82125 16.4592C9.85697 16.6375 9.83907 16.8223 9.76979 16.9904C9.70052 17.1584 9.58298 17.3022 9.43204 17.4035Z" fill="white"/>
<path d="M10.1242 14.0623C10.2767 14.0619 10.4258 14.0162 10.5524 13.9312C10.6791 13.8461 10.7777 13.7254 10.8357 13.5844C10.8938 13.4433 10.9088 13.2882 10.8788 13.1386C10.8488 12.989 10.7751 12.8517 10.6671 12.7439C10.559 12.6362 10.4215 12.5629 10.2718 12.5333C10.1222 12.5037 9.9671 12.5191 9.82619 12.5776C9.68528 12.6361 9.56486 12.735 9.48015 12.8619C9.39543 12.9888 9.35021 13.1379 9.35021 13.2905C9.35035 13.392 9.37049 13.4924 9.40946 13.5862C9.44843 13.6799 9.50548 13.765 9.57735 13.8367C9.64922 13.9083 9.7345 13.9652 9.82833 14.0039C9.92215 14.0426 10.0227 14.0624 10.1242 14.0623Z" fill="white"/>
<path d="M12.3979 13.0153C12.29 13.0876 12.163 13.1264 12.0331 13.1266C11.8587 13.1266 11.6915 13.0574 11.568 12.9342C11.4446 12.811 11.3752 12.6438 11.3749 12.4694C11.3749 12.3395 11.4134 12.2125 11.4856 12.1044C11.5577 11.9964 11.6603 11.9122 11.7803 11.8624C11.9003 11.8126 12.0324 11.7995 12.1599 11.8248C12.2873 11.8501 12.4044 11.9126 12.4963 12.0044C12.5883 12.0962 12.651 12.2132 12.6764 12.3406C12.7019 12.468 12.689 12.6001 12.6395 12.7202C12.5899 12.8403 12.5058 12.943 12.3979 13.0153Z" fill="white"/>
<path d="M11.7535 11.3857C11.8833 11.3852 12.0102 11.3462 12.1179 11.2737C12.2256 11.2011 12.3094 11.0983 12.3587 10.9781C12.4081 10.858 12.4207 10.7259 12.395 10.5986C12.3693 10.4713 12.3064 10.3544 12.2143 10.2628C12.1223 10.1712 12.0051 10.1089 11.8777 10.0838C11.7503 10.0587 11.6182 10.072 11.4983 10.1219C11.3784 10.1718 11.276 10.2561 11.204 10.3642C11.1319 10.4722 11.0935 10.5992 11.0936 10.7291C11.0937 10.8156 11.1109 10.9012 11.1441 10.9811C11.1773 11.0609 11.226 11.1334 11.2872 11.1944C11.3485 11.2554 11.4213 11.3037 11.5013 11.3365C11.5813 11.3694 11.667 11.3861 11.7535 11.3857Z" fill="white"/>
<path d="M13.8174 10.8939C13.723 10.9573 13.612 10.9913 13.4983 10.9917C13.4227 10.9918 13.3479 10.977 13.278 10.9482C13.2081 10.9195 13.1446 10.8772 13.091 10.8238C13.0375 10.7705 12.995 10.7071 12.9659 10.6373C12.9369 10.5676 12.9218 10.4928 12.9217 10.4172C12.9216 10.3035 12.9552 10.1923 13.0182 10.0977C13.0813 10.0031 13.171 9.92936 13.2759 9.88571C13.3809 9.84206 13.4964 9.8305 13.608 9.8525C13.7195 9.8745 13.822 9.92906 13.9026 10.0093C13.9831 10.0895 14.038 10.1918 14.0604 10.3033C14.0829 10.4147 14.0717 10.5303 14.0285 10.6355C13.9852 10.7406 13.9118 10.8305 13.8174 10.8939Z" fill="white"/>
<path d="M14.9963 10.9921C15.0937 10.9919 15.1889 10.9628 15.2698 10.9085C15.3508 10.8542 15.4138 10.7772 15.4509 10.6871C15.488 10.597 15.4976 10.4979 15.4785 10.4024C15.4594 10.3069 15.4123 10.2191 15.3434 10.1503C15.2744 10.0815 15.1866 10.0347 15.091 10.0157C14.9954 9.9968 14.8964 10.0066 14.8064 10.044C14.7164 10.0813 14.6395 10.1445 14.5854 10.2255C14.5313 10.3065 14.5024 10.4018 14.5024 10.4992C14.5027 10.63 14.5548 10.7554 14.6474 10.8478C14.74 10.9402 14.8655 10.9921 14.9963 10.9921Z" fill="white"/>
<path d="M15.5498 12.648C15.4689 12.7023 15.3737 12.7314 15.2763 12.7316C15.1455 12.7317 15.02 12.68 14.9274 12.5876C14.8348 12.4953 14.7826 12.37 14.7823 12.2393C14.7822 12.1418 14.811 12.0465 14.865 11.9654C14.9191 11.8843 14.996 11.8211 15.086 11.7836C15.1759 11.7462 15.275 11.7363 15.3706 11.7552C15.4662 11.7741 15.5541 11.8209 15.6231 11.8897C15.6922 11.9585 15.7392 12.0462 15.7584 12.1417C15.7776 12.2373 15.768 12.3364 15.7309 12.4265C15.6938 12.5166 15.6308 12.5937 15.5498 12.648Z" fill="white"/>
<path d="M13.7796 12.7488C13.8932 12.7484 14.0042 12.7144 14.0986 12.6511C14.1929 12.5877 14.2664 12.4978 14.3097 12.3927C14.3529 12.2876 14.3641 12.172 14.3417 12.0606C14.3194 11.9492 14.2645 11.8468 14.184 11.7666C14.1035 11.6863 14.001 11.6317 13.8895 11.6097C13.778 11.5876 13.6625 11.5991 13.5575 11.6427C13.4526 11.6862 13.3629 11.7599 13.2997 11.8545C13.2366 11.949 13.2029 12.0601 13.2029 12.1737C13.203 12.2494 13.218 12.3242 13.247 12.3941C13.276 12.4639 13.3185 12.5273 13.3721 12.5807C13.4256 12.6341 13.4892 12.6765 13.5591 12.7053C13.629 12.7341 13.7039 12.7489 13.7796 12.7488Z" fill="white"/>
<path d="M12.3132 17.0663C12.2647 17.0989 12.2077 17.1164 12.1493 17.1167C12.0708 17.1167 11.9956 17.0856 11.94 17.0302C11.8844 16.9748 11.853 16.8996 11.8527 16.8212C11.8527 16.7628 11.87 16.7057 11.9025 16.6571C11.9349 16.6085 11.981 16.5706 12.0349 16.5482C12.0888 16.5258 12.1482 16.5199 12.2055 16.5312C12.2628 16.5426 12.3154 16.5706 12.3568 16.6118C12.3982 16.653 12.4264 16.7056 12.4379 16.7628C12.4495 16.8201 12.4438 16.8795 12.4216 16.9335C12.3994 16.9875 12.3616 17.0337 12.3132 17.0663Z" fill="white"/>
<path d="M13.3339 16.9686C13.4053 16.9683 13.4749 16.9468 13.5341 16.9069C13.5933 16.8671 13.6393 16.8106 13.6664 16.7446C13.6935 16.6785 13.7004 16.606 13.6863 16.536C13.6722 16.4661 13.6376 16.4019 13.5871 16.3516C13.5365 16.3012 13.4722 16.267 13.4022 16.2532C13.3322 16.2394 13.2596 16.2466 13.1937 16.274C13.1278 16.3014 13.0715 16.3477 13.0319 16.407C12.9923 16.4664 12.9712 16.5361 12.9712 16.6075C12.9713 16.655 12.9807 16.7021 12.999 16.746C13.0172 16.7898 13.044 16.8297 13.0777 16.8632C13.1114 16.8968 13.1513 16.9233 13.1953 16.9414C13.2393 16.9595 13.2864 16.9687 13.3339 16.9686Z" fill="white"/>
<path d="M14.863 16.4065C14.7956 16.4517 14.7162 16.4759 14.635 16.476C14.526 16.476 14.4215 16.4328 14.3444 16.3558C14.2673 16.2788 14.2239 16.1743 14.2237 16.0653C14.2237 15.9841 14.2478 15.9047 14.2929 15.8372C14.338 15.7696 14.4021 15.717 14.4772 15.6859C14.5522 15.6548 14.6347 15.6466 14.7144 15.6624C14.7941 15.6782 14.8672 15.7173 14.9247 15.7747C14.9822 15.8321 15.0213 15.9052 15.0372 15.9848C15.0531 16.0645 15.0451 16.1471 15.0141 16.2221C14.9831 16.2972 14.9305 16.3614 14.863 16.4065Z" fill="white"/>
<path d="M14.9476 17.79C15.0451 17.7899 15.1403 17.7609 15.2213 17.7067C15.3023 17.6525 15.3653 17.5755 15.4026 17.4854C15.4398 17.3953 15.4495 17.2962 15.4304 17.2007C15.4113 17.1051 15.3643 17.0173 15.2954 16.9485C15.2264 16.8796 15.1386 16.8327 15.043 16.8137C14.9474 16.7947 14.8484 16.8045 14.7583 16.8419C14.6683 16.8792 14.5914 16.9423 14.5372 17.0234C14.4831 17.1044 14.4542 17.1997 14.4542 17.2971C14.4545 17.4279 14.5066 17.5532 14.5991 17.6455C14.6915 17.7379 14.8169 17.7899 14.9476 17.79Z" fill="white"/>
<path d="M13.5949 18.0321C13.5274 18.0773 13.448 18.1015 13.3668 18.1016C13.2578 18.1016 13.1533 18.0584 13.0762 17.9814C12.9991 17.9043 12.9557 17.7999 12.9556 17.6909C12.9556 17.6097 12.9796 17.5303 13.0247 17.4628C13.0698 17.3952 13.134 17.3426 13.209 17.3115C13.284 17.2804 13.3666 17.2722 13.4462 17.288C13.5259 17.3038 13.5991 17.3429 13.6565 17.4003C13.714 17.4577 13.7531 17.5308 13.769 17.6104C13.785 17.6901 13.7769 17.7726 13.7459 17.8477C13.7149 17.9228 13.6623 17.9869 13.5949 18.0321Z" fill="white"/>
<path d="M11.9675 18.0851C12.0389 18.0849 12.1086 18.0635 12.1679 18.0237C12.2271 17.9839 12.2732 17.9274 12.3004 17.8614C12.3276 17.7954 12.3346 17.7229 12.3205 17.6529C12.3065 17.5829 12.272 17.5186 12.2214 17.4682C12.1709 17.4179 12.1065 17.3836 12.0365 17.3697C11.9665 17.3559 11.8939 17.3631 11.828 17.3904C11.7621 17.4178 11.7058 17.4641 11.6661 17.5235C11.6265 17.5828 11.6053 17.6526 11.6053 17.724C11.6054 17.7715 11.6148 17.8185 11.6331 17.8623C11.6513 17.9062 11.678 17.946 11.7116 17.9795C11.7453 18.0131 11.7852 18.0397 11.8291 18.0578C11.873 18.0759 11.92 18.0852 11.9675 18.0851Z" fill="white"/>
<path d="M12.2125 19.149C12.1451 19.1943 12.0658 19.2186 11.9846 19.2188C11.9306 19.2188 11.8771 19.2083 11.8272 19.1877C11.7772 19.1671 11.7319 19.1368 11.6936 19.0987C11.6554 19.0606 11.625 19.0153 11.6043 18.9654C11.5836 18.9155 11.5729 18.8621 11.5728 18.808C11.5728 18.7269 11.5969 18.6475 11.6419 18.58C11.687 18.5125 11.7511 18.4598 11.8261 18.4287C11.9011 18.3976 11.9836 18.3894 12.0633 18.4051C12.1429 18.4209 12.2161 18.4599 12.2736 18.5172C12.331 18.5746 12.3702 18.6477 12.3862 18.7273C12.4022 18.8069 12.3942 18.8894 12.3633 18.9645C12.3324 19.0396 12.2799 19.1038 12.2125 19.149Z" fill="white"/>
<path d="M13.663 19.4319C13.7605 19.4317 13.8556 19.4026 13.9366 19.3483C14.0175 19.294 14.0805 19.217 14.1176 19.1269C14.1548 19.0368 14.1644 18.9377 14.1452 18.8422C14.1261 18.7467 14.0791 18.659 14.0101 18.5901C13.9411 18.5213 13.8533 18.4745 13.7577 18.4555C13.6621 18.4366 13.5631 18.4464 13.4731 18.4838C13.3831 18.5211 13.3062 18.5843 13.2521 18.6653C13.198 18.7463 13.1691 18.8416 13.1691 18.939C13.1692 19.0038 13.182 19.068 13.2069 19.1278C13.2317 19.1876 13.2681 19.242 13.314 19.2877C13.3598 19.3335 13.4143 19.3698 13.4742 19.3945C13.5341 19.4193 13.5982 19.432 13.663 19.4319Z" fill="white"/>
<path d="M15.9415 19.1214C15.847 19.1847 15.7359 19.2185 15.6222 19.2186C15.4697 19.2184 15.3234 19.1578 15.2155 19.05C15.1077 18.9423 15.0469 18.7961 15.0466 18.6436C15.0466 18.5299 15.0803 18.4187 15.1435 18.3242C15.2067 18.2296 15.2964 18.1559 15.4015 18.1124C15.5065 18.0688 15.6221 18.0574 15.7336 18.0796C15.8451 18.1017 15.9476 18.1564 16.028 18.2368C16.1085 18.3172 16.1633 18.4196 16.1855 18.5311C16.2078 18.6426 16.1965 18.7582 16.153 18.8632C16.1096 18.9683 16.036 19.0582 15.9415 19.1214Z" fill="white"/>
<path d="M16.7757 20.6471C16.9056 20.6468 17.0325 20.608 17.1404 20.5356C17.2482 20.4632 17.3322 20.3604 17.3817 20.2402C17.4312 20.1201 17.4439 19.988 17.4184 19.8606C17.3928 19.7332 17.33 19.6163 17.238 19.5246C17.146 19.4328 17.0288 19.3705 16.9014 19.3453C16.7739 19.3201 16.6418 19.3333 16.5218 19.3832C16.4019 19.433 16.2994 19.5173 16.2273 19.6255C16.1552 19.7336 16.1168 19.8606 16.1169 19.9905C16.117 20.0769 16.1342 20.1624 16.1674 20.2421C16.2006 20.3219 16.2491 20.3943 16.3103 20.4553C16.3715 20.5162 16.444 20.5646 16.5239 20.5975C16.6037 20.6304 16.6893 20.6473 16.7757 20.6471Z" fill="white"/>
<path d="M14.6731 20.7472C14.5786 20.8103 14.4676 20.8441 14.354 20.8442C14.2783 20.8441 14.2034 20.8291 14.1335 20.8001C14.0636 20.771 14.0001 20.7285 13.9466 20.6749C13.8932 20.6213 13.8508 20.5577 13.8219 20.4877C13.7931 20.4177 13.7783 20.3427 13.7784 20.267C13.7789 20.1534 13.8129 20.0425 13.8764 19.9482C13.9398 19.8539 14.0297 19.7806 14.1348 19.7374C14.2398 19.6942 14.3554 19.683 14.4667 19.7054C14.5781 19.7278 14.6804 19.7827 14.7606 19.8631C14.8408 19.9436 14.8954 20.046 14.9175 20.1574C14.9396 20.2689 14.9281 20.3844 14.8846 20.4893C14.8411 20.5943 14.7675 20.684 14.6731 20.7472Z" fill="white"/>
<path d="M12.9879 21.9607C13.1016 21.9604 13.2127 21.9263 13.3071 21.8629C13.4015 21.7994 13.4749 21.7094 13.5182 21.6042C13.5614 21.499 13.5725 21.3834 13.55 21.2719C13.5275 21.1604 13.4724 21.0581 13.3918 20.9779C13.3111 20.8977 13.2085 20.8433 13.0969 20.8214C12.9853 20.7995 12.8697 20.8112 12.7648 20.855C12.6598 20.8989 12.5702 20.9728 12.5073 21.0675C12.4444 21.1623 12.411 21.2735 12.4113 21.3873C12.4119 21.5397 12.4729 21.6857 12.581 21.7932C12.6891 21.9007 12.8355 21.961 12.9879 21.9607Z" fill="white"/>
<path d="M14.489 23.2942C14.3811 23.3666 14.2541 23.4053 14.1242 23.4055C13.9498 23.4057 13.7826 23.3366 13.6592 23.2135C13.5357 23.0903 13.4662 22.9232 13.466 22.7489C13.4659 22.6189 13.5043 22.4919 13.5764 22.3838C13.6485 22.2757 13.751 22.1913 13.871 22.1415C13.991 22.0916 14.1231 22.0785 14.2506 22.1037C14.3781 22.1289 14.4952 22.1913 14.5872 22.2831C14.6792 22.3749 14.7419 22.4919 14.7675 22.6193C14.793 22.7467 14.7802 22.8789 14.7306 22.999C14.681 23.1191 14.597 23.2219 14.489 23.2942Z" fill="white"/>
<path d="M17.1539 23.6687C17.3065 23.6683 17.4555 23.6227 17.5821 23.5376C17.7088 23.4526 17.8074 23.3319 17.8654 23.1908C17.9235 23.0497 17.9385 22.8946 17.9085 22.745C17.8785 22.5954 17.8048 22.4581 17.6968 22.3504C17.5887 22.2426 17.4512 22.1693 17.3015 22.1397C17.1519 22.1101 16.9968 22.1255 16.8559 22.184C16.715 22.2425 16.5946 22.3414 16.5098 22.4683C16.4251 22.5952 16.3799 22.7443 16.3799 22.8969C16.38 22.9984 16.4001 23.0989 16.439 23.1927C16.478 23.2864 16.535 23.3716 16.6069 23.4433C16.6788 23.5149 16.7641 23.5718 16.8579 23.6104C16.9518 23.6491 17.0524 23.6689 17.1539 23.6687Z" fill="white"/>
<path d="M15.8553 22.1775C15.7474 22.2499 15.6205 22.2887 15.4906 22.289C15.4042 22.2892 15.3186 22.2723 15.2388 22.2394C15.1589 22.2064 15.0864 22.1581 15.0252 22.0971C14.964 22.0362 14.9154 21.9637 14.8823 21.884C14.8491 21.8043 14.8319 21.7188 14.8318 21.6324C14.8317 21.5025 14.8701 21.3754 14.9422 21.2673C15.0143 21.1592 15.1168 21.0749 15.2367 21.025C15.3567 20.9752 15.4888 20.962 15.6162 20.9872C15.7437 21.0123 15.8609 21.0747 15.9529 21.1664C16.0449 21.2582 16.1077 21.3751 16.1332 21.5025C16.1588 21.6299 16.1461 21.762 16.0966 21.8821C16.0471 22.0023 15.9631 22.105 15.8553 22.1775Z" fill="white"/>
<path d="M18.4215 22.0275C18.5741 22.0272 18.7232 21.9817 18.8499 21.8967C18.9766 21.8117 19.0753 21.691 19.1335 21.5499C19.1917 21.4089 19.2067 21.2537 19.1768 21.1041C19.1468 20.9545 19.0732 20.8171 18.9651 20.7093C18.8571 20.6016 18.7196 20.5282 18.5699 20.4986C18.4203 20.4689 18.2651 20.4843 18.1242 20.5427C17.9833 20.6012 17.8628 20.7001 17.7781 20.827C17.6933 20.9539 17.6481 21.1031 17.6481 21.2557C17.6482 21.3572 17.6682 21.4576 17.7072 21.5513C17.7461 21.6451 17.8031 21.7302 17.8749 21.8019C17.9467 21.8735 18.032 21.9304 18.1258 21.9691C18.2196 22.0078 18.3201 22.0277 18.4215 22.0275Z" fill="white"/>
<path d="M12.5711 20.4652C12.4903 20.5195 12.3951 20.5487 12.2977 20.549C12.2329 20.5492 12.1686 20.5365 12.1087 20.5118C12.0487 20.4871 11.9943 20.4509 11.9483 20.4051C11.9024 20.3593 11.866 20.3049 11.8411 20.2451C11.8162 20.1852 11.8033 20.121 11.8033 20.0562C11.8033 19.9588 11.8321 19.8635 11.8862 19.7825C11.9403 19.7015 12.0172 19.6383 12.1071 19.601C12.1971 19.5636 12.2961 19.5538 12.3917 19.5727C12.4872 19.5915 12.5751 19.6383 12.6441 19.7071C12.7131 19.7759 12.7601 19.8635 12.7793 19.959C12.7985 20.0545 12.789 20.1536 12.7519 20.2437C12.7149 20.3338 12.6519 20.4108 12.5711 20.4652Z" fill="white"/>
</g>
</g>
</svg>
