<svg width="32" height="32" viewBox="0 0 32 32" fill="none" xmlns="http://www.w3.org/2000/svg">
<g id="currencies / currency-uni" clip-path="url(#clip0_1859_866)">
<g id="logo">
<path d="M32 16C32 24.8366 24.8366 32 16 32C7.16344 32 0 24.8366 0 16C0 7.16344 7.16344 0 16 0C24.8366 0 32 7.16344 32 16Z" fill="#FF007A"/>
<path fill-rule="evenodd" clip-rule="evenodd" d="M7.51052 5.44376C9.91506 8.36429 13.6199 12.9051 13.8057 13.1527C13.9605 13.3591 13.8985 13.5552 13.6405 13.6997C13.4961 13.7823 13.1968 13.8648 13.0523 13.8648C12.8872 13.8648 12.6911 13.7823 12.557 13.6481C12.4641 13.5552 12.0616 12.967 11.1534 11.5531C10.462 10.4696 9.87378 9.57172 9.86346 9.5614C9.82218 9.54076 9.82218 9.54076 11.0812 11.7905C11.8758 13.2043 12.1338 13.71 12.1338 13.7719C12.1338 13.9061 12.0926 13.9783 11.9274 14.1641C11.6488 14.4737 11.525 14.8246 11.4321 15.5573C11.3289 16.3726 11.0502 16.9505 10.2556 17.9309C9.79122 18.5088 9.71898 18.612 9.60546 18.8493C9.46098 19.1383 9.4197 19.3034 9.39906 19.6749C9.37842 20.0671 9.4197 20.3148 9.53322 20.6863C9.63642 21.0165 9.74994 21.2332 10.0286 21.6563C10.2659 22.0279 10.4104 22.3065 10.4104 22.4097C10.4104 22.4923 10.4311 22.4923 10.8026 22.4097C11.6901 22.2033 12.4228 21.8524 12.8253 21.419C13.073 21.1507 13.1349 21.0062 13.1349 20.6347C13.1349 20.3973 13.1246 20.3457 13.0626 20.2012C12.9594 19.9742 12.7634 19.7884 12.3402 19.4995C11.783 19.1176 11.5456 18.808 11.4837 18.3953C11.4321 18.0444 11.494 17.807 11.8036 17.1569C12.1235 16.4861 12.2061 16.2074 12.2577 15.5263C12.2886 15.0929 12.3402 14.9174 12.4641 14.7833C12.5982 14.6388 12.7118 14.5872 13.0317 14.5459C13.558 14.4737 13.8985 14.3395 14.1669 14.0815C14.4042 13.8648 14.5074 13.6481 14.5177 13.3282L14.5281 13.0908L14.3939 12.9463C13.9089 12.3891 7.1906 5 7.15964 5C7.15334 5 7.21249 5.07317 7.30419 5.18656C7.3626 5.2588 7.43421 5.34737 7.51052 5.44376ZM10.6787 20.1187C10.7922 19.9226 10.7303 19.6749 10.5446 19.5511C10.3691 19.4376 10.1008 19.4892 10.1008 19.644C10.1008 19.6852 10.1215 19.7265 10.1834 19.7472C10.2763 19.7988 10.2866 19.8504 10.2143 19.9639C10.1421 20.0774 10.1421 20.1806 10.235 20.2528C10.3795 20.3664 10.5755 20.3044 10.6787 20.1187Z" fill="white"/>
<path d="M13.9715 9.55126C13.7547 9.5203 13.7444 9.50998 13.8476 9.49966C14.0437 9.4687 14.4978 9.50998 14.8177 9.58222C15.5607 9.75766 16.2315 10.2117 16.9436 11.0064L17.1293 11.2231L17.3977 11.1818C18.5432 10.996 19.7196 11.1405 20.7 11.5946C20.9684 11.7184 21.3915 11.9661 21.4431 12.028C21.4637 12.0487 21.4947 12.1828 21.5153 12.317C21.5876 12.802 21.5566 13.1632 21.4018 13.4419C21.3192 13.5967 21.3192 13.6379 21.3708 13.7721C21.4121 13.8753 21.536 13.9475 21.6495 13.9475C21.8972 13.9475 22.1551 13.5554 22.279 13.0084L22.3306 12.7917L22.4235 12.8949C22.9498 13.4831 23.3626 14.2984 23.4245 14.8763L23.4451 15.0311L23.3523 14.897C23.1975 14.6596 23.053 14.5048 22.8569 14.3707C22.506 14.1333 22.1345 14.0611 21.1541 14.0095C20.2666 13.9579 19.7609 13.8856 19.2656 13.7205C18.4193 13.4419 17.9859 13.0807 16.9849 11.7494C16.5411 11.1612 16.2625 10.8412 15.9838 10.5729C15.375 9.98469 14.7661 9.6751 13.9715 9.55126Z" fill="white"/>
<path d="M21.6594 10.8608C21.6801 10.4686 21.7317 10.2106 21.8452 9.97329C21.8865 9.88041 21.9277 9.79785 21.9381 9.79785C21.9484 9.79785 21.9277 9.87009 21.8968 9.95265C21.8142 10.1797 21.8039 10.4996 21.8555 10.8608C21.9277 11.3252 21.9587 11.3871 22.454 11.8928C22.6811 12.1302 22.9494 12.4294 23.0526 12.5533L23.228 12.7803L23.0526 12.6152C22.8359 12.4088 22.3405 12.0166 22.227 11.965C22.1548 11.9238 22.1444 11.9238 22.0928 11.9754C22.0516 12.0166 22.0413 12.0786 22.0413 12.3778C22.0309 12.8422 21.969 13.1312 21.8142 13.4305C21.7317 13.5853 21.7213 13.5543 21.7936 13.3789C21.8452 13.2447 21.8555 13.1828 21.8555 12.739C21.8555 11.8412 21.7523 11.6245 21.1228 11.2633C20.968 11.1704 20.6997 11.0362 20.5449 10.964C20.3797 10.8918 20.2559 10.8298 20.2662 10.8298C20.2869 10.8092 20.8957 10.9846 21.1331 11.0878C21.4943 11.2323 21.5562 11.2426 21.5975 11.2323C21.6285 11.2014 21.6491 11.1188 21.6594 10.8608Z" fill="white"/>
<path d="M13.7439 10.1796C13.682 10.871 13.9607 11.7998 14.3941 12.3984C14.7347 12.8628 15.261 13.224 15.6531 13.2653C15.9111 13.2859 15.9834 13.2033 15.8698 13.0382C15.7047 12.8112 15.5086 12.45 15.457 12.2952C15.4261 12.2023 15.3538 11.9134 15.3022 11.6657C15.1268 10.8194 14.9411 10.4789 14.5283 10.2312C14.3735 10.1383 14.0535 10.0145 13.8678 9.98353L13.7646 9.96289L13.7439 10.1796Z" fill="white"/>
<path d="M21.1329 16.8883C19.0896 16.0627 18.3672 15.3506 18.3672 14.1432C18.3672 13.9677 18.3775 13.8232 18.3775 13.8232C18.3844 13.8232 18.4188 13.8508 18.4684 13.8905C18.4933 13.9104 18.522 13.9333 18.5529 13.9574C18.9657 14.2876 19.4301 14.4321 20.7201 14.6179C21.4735 14.7314 21.9069 14.814 22.2991 14.9481C23.5478 15.3609 24.3218 16.2071 24.5075 17.3527C24.5591 17.6829 24.5282 18.3124 24.4456 18.6426C24.3734 18.9006 24.167 19.3754 24.1154 19.3857C24.1051 19.3857 24.0844 19.3341 24.0844 19.2515C24.0638 18.8181 23.8471 18.4053 23.4859 18.0854C23.0524 17.7139 22.4952 17.4352 21.1329 16.8883Z" fill="white"/>
<path d="M19.585 16.7954C19.6159 16.878 19.6675 17.0741 19.6882 17.2289C19.8533 18.1989 19.3476 18.9936 18.326 19.3135C18.2228 19.3548 17.81 19.4373 17.4075 19.4992C16.5922 19.6437 16.2207 19.7366 15.8595 19.912C15.6015 20.0359 15.2816 20.2216 15.3022 20.2423C15.3125 20.2526 15.3745 20.232 15.4364 20.2113C15.9008 20.0462 16.4168 19.9636 17.1908 19.9224C17.4499 19.9051 17.738 19.8806 17.8976 19.867L17.9751 19.8604C18.6665 19.7676 19.1515 19.5612 19.5231 19.1793C19.7295 18.9626 19.8533 18.7665 19.9565 18.4879C20.0184 18.3125 20.0287 18.2402 20.0287 17.9306C20.0287 17.6107 20.0287 17.5488 19.9565 17.3527C19.8636 17.0947 19.7604 16.9089 19.6263 16.7541L19.5334 16.6406L19.585 16.7954Z" fill="white"/>
<path d="M20.6273 18.8912C20.359 18.303 20.2971 17.7457 20.4416 17.2194C20.4622 17.1678 20.4829 17.1162 20.5035 17.1162C20.5241 17.1162 20.5861 17.1472 20.648 17.1884C20.7718 17.271 21.0298 17.4155 21.6903 17.7767C22.5262 18.2308 23.0009 18.5816 23.3312 18.9841C23.6201 19.335 23.7955 19.7375 23.8781 20.2328C23.9297 20.5115 23.8987 21.1823 23.8265 21.4609C23.5995 22.3381 23.0835 23.0398 22.3301 23.4423C22.2166 23.5042 22.1237 23.5455 22.1134 23.5455C22.1031 23.5455 22.1444 23.4423 22.2063 23.3185C22.454 22.7922 22.4849 22.2865 22.2992 21.7189C22.1856 21.368 21.9483 20.9449 21.4736 20.2328C20.906 19.4072 20.7718 19.1905 20.6273 18.8912Z" fill="white"/>
<path d="M15.5085 20.8098C14.6417 20.9543 13.7026 21.4084 12.9389 22.0482L12.7222 22.2546L12.9182 22.2856C13.9502 22.4404 14.2289 22.5848 14.9513 23.3279C15.3641 23.751 15.5085 23.8439 15.8491 23.9367C16.3548 24.0709 16.8501 23.8335 17.0256 23.3795C17.0978 23.1731 17.0875 22.8428 17.0049 22.6777C16.7985 22.2752 16.1897 22.1514 15.9007 22.4404C15.6633 22.6777 15.7356 23.0492 16.0349 23.1112C16.0627 23.1158 16.0781 23.1184 16.079 23.116C16.08 23.1131 16.0595 23.1028 16.0142 23.0802C15.8801 23.0183 15.8181 22.9357 15.8181 22.8016C15.8078 22.4816 16.169 22.3165 16.4993 22.461C16.7469 22.5745 16.8398 22.719 16.8398 22.9667C16.8398 23.3485 16.5096 23.6478 16.1277 23.5962C15.9213 23.5652 15.6737 23.4414 15.5395 23.2866C15.2093 22.9151 15.3331 22.3062 15.8078 22.0792C16.169 21.9037 16.6437 21.9553 17.0153 22.1927C17.4384 22.4713 17.6241 22.719 17.9853 23.5549C18.1092 23.8335 18.2536 24.1328 18.3259 24.236C18.6664 24.752 19.0896 25.01 19.5849 25.01C19.8636 25.01 20.0699 24.9687 20.3279 24.8346C20.5137 24.7417 20.7923 24.5559 20.7717 24.5353C20.7717 24.5272 20.7205 24.5447 20.6533 24.5676L20.5963 24.5869C20.0493 24.7933 19.492 24.783 19.1721 24.5456C18.9657 24.3908 18.8006 24.1019 18.718 23.7303L18.7079 23.6715C18.6883 23.5581 18.6482 23.3261 18.6148 23.1008C18.5013 22.3888 18.3878 22.0688 18.1401 21.6973C17.8821 21.3155 17.3868 21.0059 16.8398 20.8614C16.4993 20.7685 15.8801 20.7479 15.5085 20.8098Z" fill="white"/>
<path fill-rule="evenodd" clip-rule="evenodd" d="M14.3013 15.3001C14.3736 15.0318 14.6109 14.7635 14.8586 14.6912C15.0237 14.6396 15.3436 14.6706 15.4984 14.7532C15.7977 14.908 16.0144 15.2485 15.9628 15.4962C15.9112 15.7955 15.4262 16.0432 14.8586 16.0432C14.5696 16.0432 14.4664 16.0019 14.3529 15.8574C14.2807 15.7645 14.26 15.4652 14.3013 15.3001ZM15.4159 14.8564C15.5707 14.9492 15.6016 15.0834 15.5191 15.2072C15.4571 15.2898 15.2714 15.3724 15.1372 15.3724C14.9308 15.3724 14.7141 15.2279 14.7141 15.0937C14.7141 14.8254 15.1372 14.6809 15.4159 14.8564Z" fill="white"/>
</g>
</g>
<defs>
<clipPath id="clip0_1859_866">
<rect width="32" height="32" fill="white"/>
</clipPath>
</defs>
</svg>
