<svg width="32" height="32" viewBox="0 0 32 32" fill="none" xmlns="http://www.w3.org/2000/svg">
<g id="currencies / currency-usdk" clip-path="url(#clip0_1859_864)">
<g id="logo">
<path d="M32 16C32 24.8366 24.8366 32 16 32C7.16344 32 0 24.8366 0 16C0 7.16344 7.16344 0 16 0C24.8366 0 32 7.16344 32 16Z" fill="#0D74F6"/>
<path d="M13.1533 7.18385C11.9528 7.18294 10.7524 7.18202 9.55195 7.19024C9.51675 8.81136 9.52269 10.4334 9.52864 12.0557C9.53377 13.4563 9.53891 14.857 9.51755 16.2573C7.60459 16.6325 5.64651 16.5778 3.71899 16.3749C4.56716 16.8655 5.52873 17.1038 6.47517 17.3383C6.55658 17.3585 6.63789 17.3786 6.71899 17.3989C10.6803 18.2717 14.9587 17.5966 18.4595 15.5486C21.6688 13.6766 24.2726 10.7022 25.5398 7.19664C24.0003 7.17986 22.4601 7.18222 20.9201 7.18459C20.0955 7.18585 19.271 7.18711 18.4467 7.18544C18.6456 7.57074 18.8672 7.94366 19.0888 8.31649C19.333 8.72737 19.5771 9.13814 19.7907 9.56528C19.7534 9.74817 19.6377 9.89403 19.523 10.0387C19.477 10.0966 19.4312 10.1544 19.3907 10.2142C18.2348 11.6619 16.8691 12.9694 15.2748 13.9275C15.2598 13.0134 15.2658 12.0985 15.2718 11.1834C15.2805 9.84983 15.2893 8.51591 15.2329 7.18368C14.5397 7.18491 13.8465 7.18438 13.1533 7.18385Z" fill="white"/>
<path d="M19.8594 15.9566C19.1471 16.3994 18.4338 16.8428 17.6665 17.1867C15.1433 18.4 12.3286 18.9066 9.5395 18.871C9.5235 20.855 9.51374 22.8403 9.54446 24.8243C10.9124 24.8371 12.2804 24.8348 13.6484 24.8325C14.1822 24.8316 14.7159 24.8307 15.2496 24.8307C15.2835 23.8421 15.2777 22.8529 15.2719 21.8635C15.2678 21.1624 15.2637 20.4612 15.2737 19.76C15.7806 19.5586 16.2996 19.3892 16.8277 19.2528C17.3169 20.0995 17.7735 20.9649 18.2301 21.8303C18.7631 22.8405 19.2961 23.8507 19.8808 24.8307C20.4584 24.8302 21.0359 24.8314 21.6135 24.8326C22.9248 24.8352 24.236 24.8379 25.5473 24.8211C24.1319 22.2513 22.6648 19.7074 21.1986 17.165C20.91 16.6645 20.6214 16.1641 20.3333 15.6635C20.175 15.7605 20.0172 15.8585 19.8594 15.9566Z" fill="white"/>
</g>
</g>
<defs>
<clipPath id="clip0_1859_864">
<rect width="32" height="32" fill="white"/>
</clipPath>
</defs>
</svg>
