<svg width="32" height="32" viewBox="0 0 32 32" fill="none" xmlns="http://www.w3.org/2000/svg">
<g id="currencies / currency-tusd" clip-path="url(#clip0_1859_867)">
<g id="logo">
<path d="M32 16C32 24.8366 24.8366 32 16 32C7.16344 32 0 24.8366 0 16C0 7.16344 7.16344 0 16 0C24.8366 0 32 7.16344 32 16Z" fill="#002868"/>
<path d="M19.776 8.80384C19.8816 8.80384 19.968 8.89024 19.968 8.99584V10.6598C19.968 10.7654 19.8816 10.8518 19.776 10.8518H17.134L17.1347 16.0358C17.1347 16.1414 17.0483 16.2278 16.9427 16.2278H15.2787C15.1731 16.2278 15.0867 16.1414 15.0867 16.0358L15.086 10.8518H12.224C12.1184 10.8518 12.032 10.7654 12.032 10.6598V8.99584C12.032 8.89024 12.1184 8.80384 12.224 8.80384H19.776Z" fill="white"/>
<path d="M20.5357 20.8934H21.1104C21.6698 20.8934 22.1024 21.3312 22.1024 21.9366C22.1024 22.5421 21.6704 22.9798 21.1155 22.9792H20.5357C20.4851 22.9792 20.4442 22.9382 20.4442 22.8877V20.9901C20.4442 20.9389 20.4851 20.8934 20.5357 20.8934Z" fill="white"/>
<path fill-rule="evenodd" clip-rule="evenodd" d="M24.064 6.4C24.9088 6.4 25.6 7.0912 25.6 7.936V24.064C25.6 24.9088 24.9088 25.6 24.064 25.6H7.93602C7.09122 25.6 6.40002 24.9088 6.40002 24.064V7.936C6.40002 7.0912 7.09122 6.4 7.93602 6.4H24.064ZM24.064 6.656H7.93602C7.23202 6.656 6.65602 7.232 6.65602 7.936V18.048C6.65602 18.1888 6.77122 18.304 6.91202 18.304H25.088C25.2288 18.304 25.344 18.1888 25.344 18.048V7.936C25.344 7.232 24.768 6.656 24.064 6.656ZM13.3056 20.304C13.3056 20.2528 13.2595 20.2074 13.209 20.2074H12.5984C12.5479 20.2074 12.5069 20.2534 12.5069 20.304V22.0646C12.5069 23.1078 13.0919 23.7133 14.0231 23.7133C14.9594 23.7133 15.5495 23.1078 15.5495 22.0646V20.304C15.5495 20.2528 15.5034 20.2074 15.4528 20.2074H14.8423C14.7917 20.2074 14.7507 20.2534 14.7507 20.304V22.0896C14.7507 22.6035 14.4864 22.9696 14.0282 22.9696C13.5699 22.9696 13.3056 22.6035 13.3056 22.0896V20.304ZM18.9952 21.2205C18.8832 20.5894 18.3386 20.167 17.5552 20.167C16.6855 20.167 16.1306 20.6298 16.1306 21.2762C16.1306 21.9226 16.6189 22.1261 17.321 22.2176C17.9315 22.2944 18.2368 22.3501 18.2368 22.6605C18.2368 22.9197 17.9469 23.0419 17.616 23.0419C17.2397 23.0419 16.9799 22.8538 16.9037 22.6093C16.8832 22.5536 16.8423 22.5229 16.7712 22.5229H16.2112C16.1402 22.5229 16.1043 22.5485 16.1146 22.6195C16.2112 23.3568 16.832 23.7082 17.5546 23.7082C18.3885 23.7082 19.04 23.3165 19.04 22.5734C19.04 21.9123 18.5619 21.6576 17.7274 21.561C17.1783 21.495 16.9287 21.3984 16.9287 21.1642C16.9287 20.9504 17.1981 20.8384 17.5187 20.8384C17.8746 20.8384 18.1088 20.9958 18.2157 21.2454C18.2464 21.3062 18.272 21.337 18.3533 21.337L18.9139 21.3376C18.9901 21.3376 19.0106 21.2915 18.9952 21.2205ZM11.9527 20.304C11.9527 20.2528 11.9066 20.2074 11.856 20.2074H9.05282C9.00226 20.2074 8.95618 20.2534 8.95618 20.304V20.8026C8.95618 20.8531 9.00162 20.8941 9.05282 20.8941H9.96354C10.0141 20.8941 10.0551 20.9402 10.0551 20.9907V23.5706C10.0551 23.6211 10.096 23.6672 10.1466 23.6672H10.7623C10.8128 23.6672 10.8538 23.6211 10.8538 23.5706V20.9907C10.8538 20.9395 10.8999 20.8941 10.9504 20.8941H11.856C11.9066 20.8941 11.9527 20.8531 11.9527 20.8026V20.304ZM22.9421 21.9475C22.9421 20.9146 22.1434 20.2074 21.1155 20.2074H19.7319C19.6813 20.2074 19.6403 20.2534 19.6403 20.304V23.5706C19.6403 23.6211 19.6813 23.6672 19.7319 23.6672H21.1155C22.1536 23.6672 22.9421 22.9651 22.9421 21.9475Z" fill="white"/>
</g>
</g>
<defs>
<clipPath id="clip0_1859_867">
<rect width="32" height="32" fill="white"/>
</clipPath>
</defs>
</svg>
