<svg width="32" height="32" viewBox="0 0 32 32" fill="none" xmlns="http://www.w3.org/2000/svg">
<g id="currencies / currency-fil" clip-path="url(#clip0_1859_885)">
<g id="logo">
<path d="M32 16C32 24.8366 24.8366 32 16 32C7.16344 32 0 24.8366 0 16C0 7.16344 7.16344 0 16 0C24.8366 0 32 7.16344 32 16Z" fill="#0090FF"/>
<path fill-rule="evenodd" clip-rule="evenodd" d="M17.5854 14.4557L17.1897 16.5657L20.9483 17.0932L20.6845 18.0823L16.9919 17.5548C16.7282 18.412 16.5963 19.3352 16.2666 20.1264C15.9369 21.0496 15.6072 21.9727 15.2115 22.8299C14.684 23.9509 13.7609 24.7422 12.508 24.94C11.7827 25.0719 10.9914 25.0059 10.398 24.5444C10.2002 24.4125 10.0023 24.1487 10.0023 23.9509C10.0023 23.6872 10.1342 23.3575 10.332 23.2256C10.4639 23.1596 10.7936 23.2256 10.9914 23.2915C11.1893 23.4893 11.3871 23.7531 11.519 24.0168C11.9146 24.5444 12.4421 24.6103 12.9696 24.2147C13.5631 23.6872 13.8928 22.9618 14.0906 22.2365C14.4862 20.6539 14.8819 19.1373 15.2115 17.5548V17.291L11.7168 16.7635L11.8486 15.7744L15.4753 16.302L15.9369 14.2578L12.1783 13.6644L12.3102 12.6094L16.2006 13.1369C16.3325 12.7412 16.3985 12.4115 16.5303 12.0818C16.86 10.8949 17.1897 9.70804 17.981 8.65301C18.7723 7.59798 19.6954 6.93859 21.0801 7.00453C21.6736 7.00453 22.267 7.20234 22.6627 7.66392C22.7286 7.72986 22.8605 7.86174 22.8605 7.99362C22.8605 8.25737 22.8605 8.58707 22.6627 8.78489C22.3989 8.9827 22.0692 8.91677 21.8055 8.65301C21.6077 8.45519 21.4758 8.25737 21.278 8.05956C20.8823 7.53204 20.2889 7.4661 19.8273 7.92768C19.4976 8.25737 19.1679 8.71895 18.9701 9.18052C18.5085 10.5652 18.1788 12.0159 17.7172 13.4666L21.3439 13.9941L21.0801 14.9832L17.5854 14.4557Z" fill="white"/>
</g>
</g>
<defs>
<clipPath id="clip0_1859_885">
<rect width="32" height="32" fill="white"/>
</clipPath>
</defs>
</svg>
