<svg width="32" height="32" viewBox="0 0 32 32" fill="none" xmlns="http://www.w3.org/2000/svg">
<g id="currencies / currency-zec">
<g id="logo">
<path d="M32 16C32 24.8366 24.8366 32 16 32C7.16344 32 0 24.8366 0 16C0 7.16344 7.16344 0 16 0C24.8366 0 32 7.16344 32 16Z" fill="#F4B728"/>
<path d="M13.1549 19.7298V18.5067L16.5469 13.9094H13.1549V12.2881H15.3416V10.9512H16.6856V12.2881H18.8723V13.5112L15.4803 18.1121H18.8723V19.7298H16.6856V21.0703H15.3416V19.7298H13.1549Z" fill="#231F20"/>
<path fill-rule="evenodd" clip-rule="evenodd" d="M8 16C8 11.5883 11.5883 8 16 8C20.4117 8 24 11.5883 24 16C24 20.4117 20.4117 24 16 24C11.5883 24 8 20.4117 8 16ZM9.32032 16C9.32032 19.6841 12.3159 22.6797 16 22.6797C19.6841 22.6797 22.6797 19.6841 22.6797 16C22.6797 12.3159 19.6841 9.32032 16 9.32032C12.3159 9.32032 9.32032 12.3159 9.32032 16Z" fill="#231F20"/>
</g>
</g>
</svg>
