<svg width="32" height="32" viewBox="0 0 32 32" fill="none" xmlns="http://www.w3.org/2000/svg">
<g id="currencies / currency-eur">
<g id="logo">
<path d="M32 16C32 24.8366 24.8366 32 16 32C7.16344 32 0 24.8366 0 16C0 7.16344 7.16344 0 16 0C24.8366 0 32 7.16344 32 16Z" fill="#283991"/>
<path d="M16.3517 4.37945L15.9617 3.17924L15.5716 4.37945H14.3093L15.3308 5.12119L14.9407 6.32139L15.9617 5.57918L16.9828 6.32139L16.5928 5.12119L17.614 4.37945H16.3517Z" fill="#F8D12E"/>
<path d="M16.3517 27.0373L15.9617 25.8366L15.5716 27.0373H14.3093L15.3308 27.7791L14.9407 28.9792L15.9617 28.2375L16.9828 28.9792L16.5928 27.7791L17.614 27.0373H16.3517Z" fill="#F8D12E"/>
<path d="M22.1799 5.18735L22.5697 6.38782H23.832L22.8108 7.13003L23.2009 8.33023L22.1799 7.58802L21.1587 8.33023L21.5487 7.13003L20.5278 6.38782H21.7901L22.1799 5.18735Z" fill="#F8D12E"/>
<path d="M26.8124 10.5733L26.4226 9.37314L26.0323 10.5733H24.7702L25.7915 11.3153L25.4014 12.5156L26.4226 11.7738L27.4436 12.5156L27.0535 11.3153L28.0747 10.5733H26.8124Z" fill="#F8D12E"/>
<path d="M26.5236 19.9487L26.9134 21.1494H28.1756L27.1544 21.8911L27.5447 23.0911L26.5236 22.3496L25.5023 23.0911L25.8924 21.8911L24.8712 21.1494H26.1335L26.5236 19.9487Z" fill="#F8D12E"/>
<path d="M6.0442 10.5733L5.65439 9.37314L5.26459 10.5733H4.00227L5.02324 11.3153L4.63323 12.5156L5.65439 11.7738L6.67508 12.5156L6.28528 11.3153L7.30624 10.5733H6.0442Z" fill="#F8D12E"/>
<path d="M27.4058 14.4168L27.7956 15.617H29.0579L28.0368 16.3587L28.4268 17.5592L27.4058 16.8177L26.3847 17.5592L26.7749 16.3587L25.7535 15.617H27.0155L27.4058 14.4168Z" fill="#F8D12E"/>
<path d="M5.0798 15.617L4.68999 14.4168L4.29992 15.617H3.03767L4.05884 16.3587L3.66876 17.5592L4.68999 16.8177L5.71096 17.5592L5.32068 16.3587L6.34184 15.617H5.0798Z" fill="#F8D12E"/>
<path d="M5.51751 19.9487L5.90732 21.1494H7.16936L6.14846 21.8911L6.5382 23.0911L5.51751 22.3496L4.49634 23.0911L4.88635 21.8911L3.86519 21.1494H5.1275L5.51751 19.9487Z" fill="#F8D12E"/>
<path d="M22.7528 25.5132L22.363 24.313L21.973 25.5132H20.7106L21.7319 26.2554L21.3415 27.4556L22.363 26.7139L23.3839 27.4556L22.9937 26.2554L24.0151 25.5132H22.7528Z" fill="#F8D12E"/>
<path d="M9.9448 5.18735L10.3345 6.38782H11.5968L10.5757 7.13003L10.966 8.33023L9.9448 7.58802L8.92384 8.33023L9.31384 7.13003L8.29268 6.38782H9.55472L9.9448 5.18735Z" fill="#F8D12E"/>
<path d="M9.87423 25.437L9.48423 24.2363L9.09415 25.437H7.83211L8.85327 26.1785L8.46326 27.3787L9.48423 26.6374L10.5054 27.3787L10.1154 26.1785L11.1365 25.437H9.87423Z" fill="#F8D12E"/>
</g>
</g>
</svg>
