<svg width="32" height="32" viewBox="0 0 32 32" fill="none" xmlns="http://www.w3.org/2000/svg">
<g id="currencies / currency-usd">
<g id="logo">
<path d="M0.0307617 15C0.010376 15.3307 0 15.6642 0 16C0 16.6773 0.0421143 17.3448 0.123779 18H31.8762C31.9579 17.3448 32 16.6773 32 16C32 15.6642 31.9896 15.3307 31.9692 15H0.0307617Z" fill="white"/>
<path d="M16 9V12H31.496C31.2269 10.9548 30.855 9.95103 30.3915 9H16Z" fill="white"/>
<path d="M16 6H28.4907C27.5789 4.86247 26.5148 3.85217 25.3295 3H16V6Z" fill="white"/>
<path d="M0.796753 21C1.1427 22.0524 1.59485 23.0567 2.1405 24H29.8595C30.4052 23.0567 30.8573 22.0524 31.2032 21H0.796753Z" fill="white"/>
<path d="M4.38098 27C5.50476 28.1866 6.80835 29.2011 8.24805 30H23.752C25.1917 29.2011 26.4952 28.1866 27.619 27H4.38098Z" fill="white"/>
<path d="M16.0002 0L16 3H25.3295C22.7032 1.11192 19.4817 0 16.0002 0Z" fill="#F44336"/>
<path d="M16.0002 15H31.9692C31.9058 13.9706 31.745 12.9676 31.496 12H16L16.0002 15Z" fill="#F44336"/>
<path d="M16 9H30.3915C29.8688 7.92738 29.2297 6.92191 28.4907 6H16V9Z" fill="#F44336"/>
<path d="M31.8762 18C31.7473 19.0339 31.5198 20.0371 31.2032 21H0.796753C0.480225 20.0371 0.252686 19.0339 0.123779 18H31.8762Z" fill="#F44336"/>
<path d="M2.1405 24C2.76953 25.0874 3.52283 26.0938 4.38098 27H27.619C28.4772 26.0938 29.2305 25.0874 29.8595 24H2.1405Z" fill="#F44336"/>
<path d="M16.0002 32C18.8127 32 21.4554 31.2743 23.752 30H8.24805C10.5446 31.2743 13.1877 32 16.0002 32Z" fill="#F44336"/>
<path fill-rule="evenodd" clip-rule="evenodd" d="M16.0002 15H0.0307617C0.0635986 14.4676 0.122437 13.9422 0.206055 13.4252C0.202393 13.4482 0.198853 13.4708 0.19519 13.4938C0.2052 13.4916 0.214722 13.4875 0.223511 13.4814C0.251953 13.4614 0.263916 13.425 0.252686 13.392L0.225586 13.3075C0.265747 13.0705 0.311157 12.8353 0.361572 12.602C0.360474 12.6073 0.359253 12.6126 0.358154 12.618L0.552002 12.4752C0.578125 12.4542 0.588501 12.4191 0.577759 12.3872C0.567017 12.3554 0.537476 12.3337 0.503906 12.3328H0.422241C0.706543 11.1207 1.12854 9.96165 1.67102 8.87314C1.66516 8.88478 1.65942 8.89644 1.65369 8.9081L1.91833 8.71841L2.39832 9.06241C2.41162 9.07298 2.42749 9.07869 2.44348 9.07947C2.46045 9.08028 2.47766 9.07561 2.49231 9.06535C2.50439 9.0569 2.51343 9.04552 2.51904 9.0327C2.52673 9.01521 2.52795 8.99504 2.52148 8.97601L2.3407 8.41281L2.8208 8.0592C2.84692 8.03821 2.8573 8.00305 2.84656 7.97122C2.83582 7.93939 2.80627 7.91766 2.77271 7.91681H2.18896C3.32117 5.98657 4.84644 4.31476 6.65479 3.01134L6.93591 3.21281C6.94678 3.22145 6.95935 3.22684 6.97229 3.22894C6.9812 3.23041 6.99036 3.2303 6.99939 3.22861C7.00659 3.22726 7.01355 3.22491 7.02026 3.22154L7.02551 3.21852L7.02991 3.21576C7.05835 3.19577 7.07031 3.15938 7.05908 3.1264L6.95447 2.80049C9.52747 1.03383 12.6432 0 16.0002 0V15ZM13.5151 0.63681L13.3724 0.214722C13.2924 0.227951 13.2125 0.24176 13.1329 0.25618L13.0032 0.640015H12.4127C12.402 0.640289 12.3917 0.642685 12.3823 0.646851L12.3734 0.65152L12.3696 0.653961C12.3556 0.663559 12.3447 0.677582 12.339 0.694427C12.3282 0.726257 12.3385 0.761398 12.3647 0.78241L12.8447 1.136L12.6479 1.69601C12.6392 1.72853 12.6516 1.76309 12.6792 1.78244C12.6952 1.79367 12.7144 1.79837 12.7329 1.79657C12.7463 1.79527 12.7595 1.79056 12.7711 1.78241L13.2511 1.43842L13.7312 1.78241C13.7402 1.78964 13.7505 1.7946 13.7612 1.79726C13.7828 1.80258 13.8062 1.79869 13.8251 1.78535C13.8536 1.76537 13.8655 1.72897 13.8544 1.69601L13.6736 1.13281L14.1536 0.779205C14.1632 0.771469 14.1707 0.76181 14.1758 0.751099L14.1787 0.744202C14.1798 0.741272 14.1807 0.738281 14.1814 0.735245C14.1826 0.729935 14.1833 0.724503 14.1835 0.719009C14.1837 0.709747 14.1824 0.700348 14.1793 0.691223C14.1714 0.667679 14.1532 0.649673 14.1307 0.641541C14.1228 0.638672 14.1144 0.637039 14.1056 0.63681H13.5151ZM9.28748 1.78535C9.31604 1.76537 9.32788 1.72897 9.31677 1.69601L9.25037 1.48918C9.19434 1.51527 9.13855 1.5417 9.08289 1.56844L8.97083 1.62276L9.19348 1.78241C9.2207 1.80414 9.25903 1.80534 9.28748 1.78535ZM13.0032 12.336L13.1935 11.7728C13.1996 11.7419 13.2263 11.7193 13.2578 11.7185C13.2894 11.7177 13.3171 11.739 13.3247 11.7696L13.5151 12.3328H14.1056C14.1255 12.3333 14.1439 12.3412 14.1578 12.3541C14.1675 12.363 14.1749 12.3743 14.1793 12.3872C14.1901 12.4191 14.1798 12.4542 14.1536 12.4752L13.6736 12.8288L13.8544 13.392C13.8655 13.425 13.8536 13.4614 13.8251 13.4814C13.7966 13.5013 13.7583 13.5001 13.7312 13.4784L13.2511 13.1344L12.7711 13.4784C12.7668 13.4814 12.7623 13.484 12.7576 13.4861L12.7521 13.4883L12.7437 13.4908C12.7365 13.4925 12.7291 13.4932 12.7218 13.4929C12.7177 13.4927 12.7136 13.4922 12.7096 13.4915C12.6989 13.4893 12.6885 13.485 12.6792 13.4785C12.675 13.4756 12.6713 13.4724 12.6678 13.4689C12.6642 13.465 12.6608 13.4609 12.658 13.4565L12.6555 13.4525L12.6534 13.4487L12.6506 13.4424C12.6445 13.4267 12.6433 13.4091 12.6479 13.392L12.8447 12.832L12.3647 12.4784C12.348 12.465 12.3378 12.4459 12.3353 12.4255C12.334 12.4139 12.3351 12.4019 12.339 12.3904C12.3431 12.378 12.3502 12.367 12.3593 12.3583C12.3627 12.355 12.3665 12.3521 12.3704 12.3494L12.377 12.3455L12.3818 12.343L12.3864 12.3412L12.3949 12.3385C12.4006 12.337 12.4066 12.3362 12.4127 12.336H13.0032ZM8.78711 11.7696C8.77954 11.739 8.75183 11.7177 8.72021 11.7185C8.68872 11.7193 8.66199 11.7419 8.65588 11.7728L8.46558 12.336H7.87512C7.84155 12.3369 7.81213 12.3586 7.80139 12.3904C7.79065 12.4223 7.8009 12.4574 7.82715 12.4784L8.30713 12.832L8.11035 13.392C8.10449 13.4136 8.10803 13.4361 8.11914 13.4545L8.1239 13.4615L8.1283 13.4668C8.1322 13.4711 8.13672 13.475 8.1416 13.4785C8.16919 13.4978 8.20593 13.4978 8.23352 13.4784L8.7135 13.1344L9.19348 13.4784C9.20398 13.4868 9.21619 13.4922 9.22888 13.4944L9.23596 13.4953L9.24146 13.4956C9.24512 13.4956 9.24878 13.4954 9.25244 13.4949C9.26465 13.4934 9.27673 13.4888 9.28748 13.4814C9.31604 13.4614 9.32788 13.425 9.31677 13.392L9.13599 12.8288L9.61597 12.4752C9.61938 12.4725 9.62244 12.4696 9.62524 12.4665C9.62756 12.464 9.62964 12.4614 9.63159 12.4587L9.63599 12.4515C9.6377 12.4483 9.63928 12.445 9.64062 12.4416C9.64246 12.4367 9.6438 12.4316 9.64478 12.4265C9.64575 12.4208 9.64612 12.415 9.64587 12.4092L9.64514 12.4021L9.64392 12.3952L9.64172 12.3872C9.63098 12.3554 9.60156 12.3337 9.56799 12.3328H8.97754L8.78711 11.7696ZM4.26074 11.7696L4.45117 12.3328H5.0415C5.07507 12.3337 5.10461 12.3554 5.11536 12.3872C5.12048 12.4024 5.12085 12.4182 5.11694 12.433C5.11267 12.4493 5.10327 12.4642 5.0896 12.4752L4.6095 12.8288L4.79028 13.392C4.79163 13.3961 4.79272 13.4001 4.79346 13.4043L4.79419 13.4118L4.79443 13.4205C4.79407 13.4283 4.79248 13.4359 4.78992 13.4432C4.78467 13.4583 4.77478 13.4717 4.76111 13.4814C4.73254 13.5013 4.69434 13.5001 4.66711 13.4784L4.18713 13.1344L3.70715 13.4784C3.67957 13.4978 3.64282 13.4978 3.61523 13.4785C3.59753 13.466 3.58606 13.4473 3.5824 13.4269C3.58154 13.4221 3.58118 13.4172 3.58118 13.4122C3.58118 13.4081 3.58154 13.4039 3.58228 13.3996L3.58398 13.392L3.78076 12.832L3.30078 12.4784C3.28992 12.4697 3.28186 12.4587 3.27686 12.4464C3.27319 12.4377 3.27112 12.4283 3.27075 12.4188C3.27051 12.4094 3.27185 12.3998 3.27502 12.3904C3.28149 12.371 3.29504 12.3553 3.31226 12.3458C3.32324 12.3398 3.33569 12.3363 3.34875 12.336H3.9408L4.1311 11.7728C4.13269 11.6928 4.2384 11.6928 4.26074 11.7696ZM11.0559 10.2816C11.0559 10.2553 11.0419 10.231 11.0192 10.2179C11.0072 10.211 10.9939 10.2077 10.9806 10.208C10.9685 10.2083 10.9564 10.2116 10.9456 10.2179C10.936 10.2233 10.9281 10.2308 10.922 10.2394C10.9191 10.2435 10.9166 10.2479 10.9147 10.2524C10.9108 10.2615 10.9087 10.2714 10.9087 10.2816L10.7184 10.8448H10.1279C10.0944 10.8457 10.0649 10.8674 10.0542 10.8992C10.0435 10.9311 10.0537 10.9662 10.08 10.9872L10.5599 11.3408L10.3792 11.904C10.375 11.9194 10.3756 11.9353 10.3802 11.9497C10.3855 11.9659 10.3959 11.9803 10.4104 11.9904C10.438 12.0098 10.4747 12.0098 10.5023 11.9904L10.9823 11.6464L11.4624 11.9904C11.4895 12.0121 11.5278 12.0133 11.5563 11.9933C11.5848 11.9734 11.5967 11.937 11.5856 11.904L11.4048 11.3408L11.8848 10.9872C11.911 10.9662 11.9213 10.9311 11.9105 10.8992C11.9055 10.8845 11.8966 10.8719 11.8851 10.8626C11.8717 10.8518 11.8549 10.8453 11.8368 10.8448H11.2463L11.0559 10.2816ZM6.52954 10.2816L6.71997 10.8448H7.3103C7.34387 10.8457 7.37341 10.8674 7.38416 10.8992C7.3949 10.9311 7.38452 10.9662 7.3584 10.9872L6.8783 11.3408L7.05908 11.904C7.07031 11.937 7.05835 11.9734 7.02991 11.9933C7.01636 12.0028 7.00073 12.0075 6.98511 12.0076C6.97668 12.0076 6.96826 12.0063 6.96021 12.0036C6.95154 12.0007 6.94336 11.9963 6.93591 11.9904L6.45593 11.6464L5.97595 11.9904C5.94836 12.0098 5.91162 12.0098 5.88403 11.9904C5.85645 11.9711 5.84387 11.9365 5.85278 11.904L6.03357 11.3408L5.55359 10.9872C5.52734 10.9662 5.51709 10.9311 5.52771 10.8992C5.53845 10.8674 5.56799 10.8457 5.60156 10.8448H6.19189L6.38232 10.2816C6.40149 10.2048 6.5072 10.2048 6.52954 10.2816ZM2.18237 10.8448L1.99194 10.2816C1.96948 10.2048 1.86389 10.2048 1.8623 10.2816L1.672 10.8448H1.06396C1.05786 10.845 1.05188 10.8458 1.04602 10.8473C1.03821 10.8493 1.03088 10.8525 1.02405 10.8567C1.00842 10.8663 0.996216 10.8811 0.990112 10.8992C0.979492 10.9311 0.989746 10.9662 1.01599 10.9872L1.49597 11.3408L1.31519 11.904C1.30627 11.9365 1.31885 11.9711 1.34644 11.9904C1.35876 11.9991 1.37292 12.0039 1.38721 12.0048C1.40503 12.0059 1.4231 12.0011 1.43835 11.9904L1.91833 11.6464L2.39832 11.9904C2.42554 12.0121 2.46375 12.0133 2.49231 11.9933C2.52075 11.9734 2.53271 11.937 2.52148 11.904L2.3407 11.3408L2.8208 10.9872C2.84692 10.9662 2.8573 10.9311 2.84656 10.8992C2.83582 10.8674 2.80627 10.8457 2.77271 10.8448H2.18237ZM13.3247 8.84001L13.5151 9.40321H14.1056C14.1392 9.40407 14.1686 9.4258 14.1793 9.45763C14.1836 9.47046 14.1846 9.48384 14.1824 9.49661C14.1792 9.5155 14.1692 9.53307 14.1536 9.54561L13.6736 9.8992L13.8544 10.4624C13.86 10.4789 13.8597 10.4962 13.8545 10.512C13.8529 10.5169 13.8508 10.5217 13.8483 10.5262C13.8459 10.5303 13.8431 10.5343 13.8401 10.5381C13.8358 10.5432 13.8308 10.5478 13.8251 10.5518C13.7966 10.5717 13.7583 10.5705 13.7312 10.5488L13.2511 10.2048L12.7711 10.5488C12.7563 10.5592 12.739 10.564 12.7218 10.5633C12.7068 10.5627 12.692 10.5578 12.6792 10.5488C12.6516 10.5295 12.6392 10.4949 12.6479 10.4624L12.8287 9.8992L12.3488 9.54561C12.3225 9.5246 12.3123 9.48946 12.323 9.45763C12.3293 9.43883 12.3422 9.42355 12.3585 9.41402C12.3699 9.40741 12.3829 9.40356 12.3967 9.40321H12.9872L13.1775 8.84001C13.2063 8.77441 13.3119 8.77441 13.3247 8.84001ZM8.97754 9.40321L8.78711 8.84001C8.77429 8.77441 8.6687 8.77441 8.63989 8.84001L8.44958 9.40321H7.85913C7.82556 9.40407 7.79614 9.4258 7.7854 9.45763C7.77466 9.48946 7.78491 9.5246 7.81116 9.54561L8.29114 9.8992L8.11035 10.4624C8.10156 10.4949 8.11401 10.5295 8.1416 10.5488C8.16919 10.5682 8.20593 10.5682 8.23352 10.5488L8.7135 10.2048L9.19348 10.5488C9.2207 10.5705 9.25903 10.5717 9.28748 10.5518C9.30383 10.5403 9.3147 10.5235 9.31897 10.5049C9.3208 10.497 9.32141 10.4888 9.32068 10.4806C9.32007 10.4745 9.31885 10.4684 9.31677 10.4624L9.13599 9.8992L9.61597 9.54561C9.64221 9.5246 9.65247 9.48946 9.64172 9.45763C9.63562 9.43953 9.62354 9.42471 9.60803 9.41512C9.59619 9.40784 9.58252 9.40358 9.56799 9.40321H8.97754ZM4.26074 8.84001L4.45117 9.40321H5.0415C5.07507 9.40407 5.10461 9.4258 5.11536 9.45763C5.1261 9.48946 5.11572 9.5246 5.0896 9.54561L4.6095 9.8992L4.79028 10.4624C4.80151 10.4954 4.78955 10.5318 4.76111 10.5518C4.73254 10.5717 4.69434 10.5705 4.66711 10.5488L4.18713 10.2048L3.70715 10.5488C3.67957 10.5682 3.64282 10.5682 3.61523 10.5488C3.58765 10.5295 3.57507 10.4949 3.58398 10.4624L3.76477 9.8992L3.28479 9.54561C3.25854 9.5246 3.24829 9.48946 3.25891 9.45763C3.26965 9.4258 3.29919 9.40407 3.33276 9.40321H3.9408L4.1311 8.84001C4.13269 8.77441 4.2384 8.77441 4.26074 8.84001ZM11.0559 7.35361C11.0559 7.31296 11.0229 7.28001 10.9823 7.28001C10.968 7.28001 10.9546 7.28409 10.9432 7.29115L10.941 7.29262L10.9352 7.29701L10.9305 7.30121L10.9255 7.30669C10.922 7.31102 10.9189 7.31578 10.9164 7.32086C10.9144 7.32489 10.9127 7.32913 10.9115 7.33356C10.9104 7.33736 10.9095 7.34126 10.9091 7.34528L10.9087 7.35361L10.7184 7.91681H10.1279C10.0944 7.91766 10.0649 7.93939 10.0542 7.97122C10.0435 8.00305 10.0537 8.03821 10.08 8.0592L10.5599 8.41281L10.3792 8.97601C10.3746 8.99269 10.3757 9.00992 10.3816 9.02534C10.385 9.03455 10.3903 9.04312 10.397 9.05055L10.4032 9.05669C10.4054 9.05873 10.4078 9.06065 10.4104 9.06244C10.4258 9.07326 10.4441 9.07802 10.462 9.07674C10.4762 9.07573 10.4901 9.07095 10.5023 9.06241L10.9823 8.71841L11.4624 9.06241C11.4703 9.06879 11.4792 9.07339 11.4886 9.07622C11.4951 9.07816 11.5017 9.07925 11.5084 9.0795C11.525 9.08012 11.5419 9.07544 11.5563 9.06535C11.5746 9.05257 11.5859 9.03308 11.5889 9.01205C11.5906 9.00021 11.5896 8.98788 11.5856 8.97601L11.4048 8.41281L11.8848 8.0592C11.8978 8.0488 11.9069 8.03491 11.9114 8.01968C11.916 8.00418 11.9159 7.98727 11.9105 7.97122C11.9052 7.95515 11.8949 7.94167 11.8818 7.93213C11.869 7.92278 11.8534 7.91724 11.8368 7.91681H11.2463L11.0559 7.35361ZM6.52954 7.35361L6.71997 7.91681H7.3103C7.34387 7.91766 7.37341 7.93939 7.38416 7.97122C7.3949 8.00305 7.38452 8.03821 7.3584 8.0592L6.8783 8.41281L7.05908 8.97601C7.06067 8.98065 7.06177 8.98535 7.06238 8.99007C7.06323 8.99599 7.06348 9.00191 7.06299 9.00775C7.06238 9.01532 7.06067 9.02274 7.05786 9.02977C7.05554 9.03561 7.05249 9.0412 7.04883 9.04639C7.04382 9.05362 7.03748 9.06006 7.02991 9.06535C7.00134 9.08534 6.96313 9.08414 6.93591 9.06241L6.45593 8.71841L5.97595 9.06241C5.94836 9.08179 5.91162 9.0818 5.88403 9.06244C5.87646 9.05713 5.87 9.05066 5.86487 9.04341C5.85864 9.03473 5.85425 9.02492 5.85193 9.01459L5.85046 9.00638L5.84985 8.9969C5.84985 8.99339 5.8501 8.98987 5.85059 8.98634C5.85107 8.98289 5.85181 8.97945 5.85278 8.97601L6.03357 8.41281L5.55359 8.0592C5.52734 8.03821 5.51709 8.00305 5.52771 7.97122C5.53845 7.93939 5.56799 7.91766 5.60156 7.91681H6.19189L6.38232 7.35361C6.40149 7.27681 6.5072 7.27681 6.52954 7.35361ZM13.5151 6.4848L13.3247 5.92162C13.3171 5.89099 13.2894 5.86975 13.2578 5.87051C13.2484 5.87074 13.2395 5.87291 13.2314 5.87666C13.2123 5.88548 13.1978 5.90308 13.1935 5.9248L13.0032 6.48801H12.4127C12.3906 6.48857 12.3705 6.49814 12.3561 6.51366C12.3485 6.52177 12.3427 6.53151 12.339 6.54243C12.3348 6.55461 12.3339 6.56728 12.3356 6.57945C12.3384 6.59909 12.3485 6.61745 12.3647 6.6304L12.8447 6.98401L12.6479 7.54401C12.6392 7.57654 12.6516 7.6111 12.6792 7.63045C12.7068 7.6498 12.7435 7.64978 12.7711 7.6304L13.2511 7.28641L13.7312 7.6304C13.7583 7.65215 13.7966 7.65334 13.8251 7.63335C13.8536 7.61337 13.8655 7.57698 13.8544 7.54401L13.6736 6.9808L14.1536 6.62721C14.1798 6.6062 14.1901 6.57106 14.1793 6.53923C14.1686 6.5074 14.1392 6.48566 14.1056 6.4848H13.5151ZM8.7135 5.84801C8.73267 5.84801 8.75012 5.85532 8.76318 5.86729C8.77783 5.88075 8.78711 5.90012 8.78711 5.92162L8.97754 6.4848H9.56799C9.60156 6.48566 9.63098 6.5074 9.64172 6.53923C9.65247 6.57106 9.64221 6.6062 9.61597 6.62721L9.13599 6.9808L9.31677 7.54401C9.32202 7.55966 9.32214 7.57608 9.31775 7.59116C9.31531 7.59953 9.3114 7.60748 9.30627 7.61465L9.30212 7.61986L9.29822 7.62428C9.29492 7.62758 9.29138 7.63062 9.28748 7.63335C9.25903 7.65334 9.2207 7.65215 9.19348 7.6304L8.7135 7.28641L8.23352 7.6304C8.20593 7.64978 8.16919 7.6498 8.1416 7.63045C8.11401 7.6111 8.10156 7.57654 8.11035 7.54401L8.29114 6.9808L7.81116 6.62721C7.78491 6.6062 7.77466 6.57106 7.7854 6.53923C7.79614 6.5074 7.82556 6.48566 7.85913 6.4848H8.44958L8.63989 5.92162C8.63989 5.88097 8.67285 5.84801 8.7135 5.84801ZM4.45117 6.4848L4.26074 5.92162C4.2384 5.8448 4.13269 5.8448 4.1311 5.92162L3.9408 6.4848H3.33276C3.29919 6.48566 3.26965 6.5074 3.25891 6.53923C3.24829 6.57106 3.25854 6.6062 3.28479 6.62721L3.76477 6.9808L3.58398 7.54401C3.57507 7.57654 3.58765 7.6111 3.61523 7.63045C3.64282 7.6498 3.67957 7.64978 3.70715 7.6304L4.18713 7.28641L4.66711 7.6304C4.69434 7.65215 4.73254 7.65334 4.76111 7.63335C4.7804 7.61984 4.79199 7.59882 4.79419 7.57643C4.79517 7.56572 4.79395 7.55469 4.79028 7.54401L4.6095 6.9808L5.0896 6.62721C5.11572 6.6062 5.1261 6.57106 5.11536 6.53923C5.10461 6.5074 5.07507 6.48566 5.0415 6.4848H4.45117ZM6.52954 4.42241L6.71997 4.98561H7.3103C7.32947 4.9861 7.34729 4.99339 7.36108 5.00549C7.37146 5.01457 7.37952 5.02637 7.38416 5.04002C7.3949 5.07185 7.38452 5.10701 7.3584 5.12801L6.8783 5.48161L7.05908 6.04482C7.07031 6.07777 7.05835 6.11417 7.02991 6.13416C7.01074 6.14758 6.98718 6.15144 6.96558 6.14597C6.95496 6.14328 6.94482 6.13835 6.93591 6.13121L6.45593 5.7872L5.97595 6.13121C5.96045 6.14211 5.94202 6.14688 5.92395 6.14554C5.90991 6.14449 5.89612 6.13972 5.88403 6.13124C5.85645 6.11189 5.84387 6.07733 5.85278 6.04482L6.03357 5.48161L5.55359 5.12801C5.52734 5.10701 5.51709 5.07185 5.52771 5.04002C5.53845 5.00819 5.56799 4.98647 5.60156 4.98561H6.19189L6.38232 4.42241C6.40149 4.35681 6.5072 4.35681 6.52954 4.42241ZM11.2463 4.98561L11.0559 4.42241C11.0431 4.35681 10.9375 4.35681 10.9087 4.42241L10.7184 4.98561H10.1279C10.0944 4.98647 10.0649 5.00819 10.0542 5.04002C10.0435 5.07185 10.0537 5.10701 10.08 5.12801L10.5599 5.48161L10.3792 6.04482C10.3704 6.07733 10.3828 6.11189 10.4104 6.13124C10.438 6.1506 10.4747 6.15059 10.5023 6.13121L10.9823 5.7872L11.4624 6.13121C11.4895 6.15294 11.5278 6.15414 11.5563 6.13416C11.5848 6.11417 11.5967 6.07777 11.5856 6.04482L11.4048 5.48161L11.8848 5.12801C11.911 5.10701 11.9213 5.07185 11.9105 5.04002C11.8998 5.00819 11.8704 4.98647 11.8368 4.98561H11.2463ZM8.78711 2.992L8.97754 3.55521H9.56799C9.57385 3.55536 9.57959 3.55614 9.58508 3.55751C9.59314 3.55949 9.60071 3.56268 9.60767 3.56691C9.62329 3.57649 9.63562 3.59142 9.64172 3.60963C9.65247 3.64146 9.64221 3.67661 9.61597 3.69762L9.13599 4.05121L9.31677 4.61441C9.32788 4.64738 9.31604 4.68376 9.28748 4.70375C9.25903 4.72374 9.2207 4.72253 9.19348 4.70081L8.7135 4.35681L8.23352 4.70081C8.20593 4.72018 8.16919 4.7202 8.1416 4.70085C8.11951 4.68538 8.10706 4.66019 8.10754 4.63408C8.10767 4.63033 8.10803 4.62656 8.10864 4.62279L8.11035 4.61441L8.29114 4.05121L7.81116 3.69762C7.78491 3.67661 7.77466 3.64146 7.7854 3.60963C7.79614 3.5778 7.82556 3.55606 7.85913 3.55521H8.44958L8.63989 2.992C8.6687 2.92641 8.77429 2.92641 8.78711 2.992ZM13.5151 3.55521L13.3247 2.992C13.3119 2.92641 13.2063 2.92641 13.1775 2.992L12.9872 3.55521H12.3967C12.3832 3.55556 12.3704 3.55931 12.3591 3.56575C12.3424 3.57527 12.3293 3.59067 12.323 3.60963C12.3123 3.64146 12.3225 3.67661 12.3488 3.69762L12.8287 4.05121L12.6479 4.61441C12.6467 4.61885 12.6459 4.62332 12.6454 4.62779C12.645 4.63193 12.645 4.63605 12.6453 4.64012C12.6458 4.64699 12.647 4.65373 12.649 4.6602C12.6517 4.66855 12.6559 4.67645 12.6613 4.68353C12.6661 4.69009 12.6722 4.69595 12.6792 4.70085C12.7068 4.7202 12.7435 4.72018 12.7711 4.70081L13.2511 4.35681L13.7312 4.70081C13.7583 4.72253 13.7966 4.72374 13.8251 4.70375C13.8536 4.68376 13.8655 4.64738 13.8544 4.61441L13.6736 4.05121L14.1536 3.69762C14.1671 3.68674 14.1764 3.67207 14.1807 3.65604C14.1847 3.64111 14.1844 3.62498 14.1793 3.60963C14.1686 3.5778 14.1392 3.55606 14.1056 3.55521H13.5151ZM11.043 1.46243C11.0468 1.46802 11.0498 1.47411 11.052 1.48053C11.0531 1.48366 11.054 1.48686 11.0546 1.49013C11.0555 1.49464 11.0559 1.4993 11.0559 1.50401L11.2463 2.06721H11.8368C11.8438 2.0674 11.8506 2.06848 11.8571 2.07037C11.8634 2.07222 11.8694 2.07483 11.875 2.07811C11.8914 2.08765 11.9042 2.10289 11.9105 2.12163C11.9213 2.15346 11.911 2.1886 11.8848 2.20961L11.4048 2.5632L11.5856 3.1264C11.593 3.14865 11.5901 3.17245 11.5786 3.19173C11.5764 3.19543 11.5739 3.19897 11.571 3.2023C11.5668 3.20732 11.5619 3.21185 11.5563 3.21576C11.5278 3.23573 11.4895 3.23454 11.4624 3.21281L10.9823 2.8688L10.5023 3.21281C10.4901 3.22142 10.476 3.2262 10.4617 3.22716C10.4438 3.22836 10.4258 3.2236 10.4104 3.21284C10.3828 3.1935 10.3704 3.15894 10.3792 3.1264L10.5599 2.5632L10.08 2.20961C10.0537 2.1886 10.0435 2.15346 10.0542 2.12163C10.0649 2.0898 10.0944 2.06805 10.1279 2.06721H10.7184L10.9087 1.50401C10.9087 1.47771 10.9227 1.45341 10.9456 1.44028C10.96 1.43193 10.9766 1.42888 10.9926 1.43112C11.0018 1.43242 11.0109 1.43547 11.0192 1.44028C11.0249 1.4436 11.03 1.44763 11.0345 1.45222C11.0377 1.45537 11.0405 1.45879 11.043 1.46243Z" fill="#283991"/>
<path d="M4.78271 4.5907L4.70459 4.66806L4.6698 4.70285C4.69678 4.7226 4.73352 4.7231 4.76111 4.70375C4.77881 4.69133 4.79016 4.67261 4.79346 4.6523C4.79553 4.63989 4.79456 4.62691 4.79028 4.61441L4.78271 4.5907Z" fill="#283991"/>
<path d="M13.1329 0.25618C13.2125 0.24176 13.2924 0.227951 13.3724 0.214722L13.5151 0.63681H14.1056C14.1392 0.637663 14.1686 0.659393 14.1793 0.691223C14.1901 0.723053 14.1798 0.758199 14.1536 0.779205L13.6736 1.13281L13.8544 1.69601C13.8655 1.72897 13.8536 1.76537 13.8251 1.78535C13.7966 1.80534 13.7584 1.80414 13.7312 1.78241L13.2511 1.43842L12.7711 1.78241C12.7435 1.80178 12.7068 1.80179 12.6792 1.78244C12.6516 1.76309 12.6392 1.72853 12.6479 1.69601L12.8447 1.136L12.3647 0.78241C12.3385 0.761398 12.3282 0.726257 12.339 0.694427C12.3497 0.662597 12.3791 0.640867 12.4127 0.640015H13.0032L13.1329 0.25618Z" fill="white"/>
<path d="M8.97083 1.62276C9.06351 1.57735 9.15668 1.53283 9.25037 1.48918L9.31677 1.69601C9.32788 1.72897 9.31604 1.76537 9.28748 1.78535C9.25903 1.80534 9.2207 1.80414 9.19348 1.78241L8.97083 1.62276Z" fill="white"/>
<path d="M6.65479 3.01134C6.75384 2.93994 6.85373 2.86966 6.95447 2.80049L7.05908 3.1264C7.07031 3.15938 7.05835 3.19577 7.02991 3.21576C7.00141 3.23575 6.96311 3.23455 6.93591 3.21281L6.65479 3.01134Z" fill="white"/>
<path d="M4.6698 4.70285C4.70726 4.66528 4.74489 4.62789 4.78271 4.5907L4.79028 4.61441C4.80145 4.64738 4.78961 4.68376 4.76111 4.70375C4.73352 4.7231 4.69678 4.7226 4.6698 4.70285Z" fill="white"/>
<path d="M1.65369 8.9081C1.82076 8.57076 1.99931 8.24016 2.18896 7.91681H2.77271C2.80627 7.91766 2.83582 7.93939 2.84656 7.97122C2.8573 8.00305 2.84692 8.03821 2.8208 8.0592L2.3407 8.41281L2.52148 8.97601C2.53265 9.00898 2.52081 9.04537 2.49231 9.06535C2.46381 9.08534 2.42551 9.08414 2.39832 9.06241L1.91833 8.71841L1.65369 8.9081Z" fill="white"/>
<path d="M0.19519 13.4938C0.2052 13.4916 0.214722 13.4875 0.223511 13.4814C0.251953 13.4614 0.263916 13.425 0.252686 13.392L0.225586 13.3075C0.215086 13.3695 0.204976 13.4316 0.19519 13.4938Z" fill="white"/>
<path d="M0.358154 12.618C0.378677 12.5226 0.400027 12.4275 0.422241 12.3328H0.503906C0.537476 12.3337 0.567017 12.3554 0.577759 12.3872C0.588501 12.4191 0.578125 12.4542 0.552002 12.4752L0.358154 12.618Z" fill="white"/>
<path d="M13.3247 11.7696C13.3171 11.739 13.2894 11.7177 13.2578 11.7185C13.2263 11.7193 13.1996 11.7419 13.1935 11.7728L13.0032 12.336H12.4127C12.3791 12.3369 12.3497 12.3586 12.339 12.3904C12.3283 12.4223 12.3385 12.4574 12.3647 12.4784L12.8447 12.832L12.6479 13.392C12.6391 13.4245 12.6516 13.4591 12.6792 13.4785C12.7068 13.4978 12.7435 13.4978 12.7711 13.4784L13.2511 13.1344L13.7312 13.4784C13.7583 13.5001 13.7966 13.5013 13.8251 13.4814C13.8536 13.4614 13.8655 13.425 13.8544 13.392L13.6736 12.8288L14.1536 12.4752C14.1798 12.4542 14.1901 12.4191 14.1793 12.3872C14.1686 12.3554 14.1392 12.3337 14.1056 12.3328H13.5151L13.3247 11.7696Z" fill="white"/>
<path d="M8.78711 11.7696C8.77954 11.739 8.75183 11.7177 8.72021 11.7185C8.68872 11.7193 8.66199 11.7419 8.65588 11.7728L8.46558 12.336H7.87512C7.84155 12.3369 7.81213 12.3586 7.80139 12.3904C7.79065 12.4223 7.8009 12.4574 7.82715 12.4784L8.30713 12.832L8.11035 13.392C8.10153 13.4245 8.11401 13.4591 8.1416 13.4785C8.16919 13.4978 8.20593 13.4978 8.23352 13.4784L8.7135 13.1344L9.19348 13.4784C9.22067 13.5001 9.25898 13.5013 9.28748 13.4814C9.31604 13.4614 9.32788 13.425 9.31677 13.392L9.13599 12.8288L9.61597 12.4752C9.64218 12.4542 9.65245 12.4191 9.64172 12.3872C9.63098 12.3554 9.60156 12.3337 9.56799 12.3328H8.97754L8.78711 11.7696Z" fill="white"/>
<path d="M4.45117 12.3328L4.26074 11.7696C4.2384 11.6928 4.13269 11.6928 4.1311 11.7728L3.9408 12.336H3.34875C3.31518 12.3369 3.28575 12.3586 3.27502 12.3904C3.2643 12.4223 3.27457 12.4574 3.30078 12.4784L3.78076 12.832L3.58398 13.392C3.57516 13.4245 3.58764 13.4591 3.61523 13.4785C3.64282 13.4978 3.67957 13.4978 3.70715 13.4784L4.18713 13.1344L4.66711 13.4784C4.69434 13.5001 4.73254 13.5013 4.76111 13.4814C4.78961 13.4614 4.80145 13.425 4.79028 13.392L4.6095 12.8288L5.0896 12.4752C5.11581 12.4542 5.12609 12.4191 5.11536 12.3872C5.10461 12.3554 5.07507 12.3337 5.0415 12.3328H4.45117Z" fill="white"/>
<path d="M11.0559 10.2816C11.0559 10.2553 11.0419 10.231 11.0192 10.2179C10.9964 10.2047 10.9683 10.2047 10.9456 10.2179C10.9228 10.231 10.9087 10.2553 10.9087 10.2816L10.7184 10.8448H10.1279C10.0944 10.8457 10.0649 10.8674 10.0542 10.8992C10.0435 10.9311 10.0537 10.9662 10.08 10.9872L10.5599 11.3408L10.3792 11.904C10.3703 11.9365 10.3828 11.9711 10.4104 11.9904C10.438 12.0098 10.4747 12.0098 10.5023 11.9904L10.9823 11.6464L11.4624 11.9904C11.4895 12.0121 11.5278 12.0133 11.5563 11.9933C11.5848 11.9734 11.5967 11.937 11.5856 11.904L11.4048 11.3408L11.8848 10.9872C11.911 10.9662 11.9213 10.9311 11.9105 10.8992C11.8998 10.8674 11.8704 10.8457 11.8368 10.8448H11.2463L11.0559 10.2816Z" fill="white"/>
<path d="M6.71997 10.8448L6.52954 10.2816C6.5072 10.2048 6.40149 10.2048 6.38232 10.2816L6.19189 10.8448H5.60156C5.56799 10.8457 5.53845 10.8674 5.52771 10.8992C5.51709 10.9311 5.52734 10.9662 5.55359 10.9872L6.03357 11.3408L5.85278 11.904C5.84387 11.9365 5.85645 11.9711 5.88403 11.9904C5.91162 12.0098 5.94836 12.0098 5.97595 11.9904L6.45593 11.6464L6.93591 11.9904C6.96311 12.0121 7.00141 12.0133 7.02991 11.9933C7.05835 11.9734 7.07031 11.937 7.05908 11.904L6.8783 11.3408L7.3584 10.9872C7.38452 10.9662 7.3949 10.9311 7.38416 10.8992C7.37341 10.8674 7.34387 10.8457 7.3103 10.8448H6.71997Z" fill="white"/>
<path d="M2.18237 10.8448L1.99194 10.2816C1.96948 10.2048 1.86389 10.2048 1.8623 10.2816L1.672 10.8448H1.06396C1.03039 10.8457 1.00084 10.8674 0.990112 10.8992C0.979492 10.9311 0.989746 10.9662 1.01599 10.9872L1.49597 11.3408L1.31519 11.904C1.30627 11.9365 1.31885 11.9711 1.34644 11.9904C1.37403 12.0098 1.41078 12.0098 1.43835 11.9904L1.91833 11.6464L2.39832 11.9904C2.42554 12.0121 2.46375 12.0133 2.49231 11.9933C2.52075 11.9734 2.53271 11.937 2.52148 11.904L2.3407 11.3408L2.8208 10.9872C2.84692 10.9662 2.8573 10.9311 2.84656 10.8992C2.83582 10.8674 2.80627 10.8457 2.77271 10.8448H2.18237Z" fill="white"/>
<path d="M13.5151 9.40321L13.3247 8.84001C13.3119 8.77441 13.2063 8.77441 13.1775 8.84001L12.9872 9.40321H12.3967C12.3631 9.40407 12.3337 9.4258 12.323 9.45763C12.3123 9.48946 12.3225 9.5246 12.3488 9.54561L12.8287 9.8992L12.6479 10.4624C12.6392 10.4949 12.6516 10.5295 12.6792 10.5488C12.7068 10.5682 12.7435 10.5682 12.7711 10.5488L13.2511 10.2048L13.7312 10.5488C13.7583 10.5705 13.7966 10.5717 13.8251 10.5518C13.8536 10.5318 13.8655 10.4954 13.8544 10.4624L13.6736 9.8992L14.1536 9.54561C14.1798 9.5246 14.1901 9.48946 14.1793 9.45763C14.1686 9.4258 14.1392 9.40407 14.1056 9.40321H13.5151Z" fill="white"/>
<path d="M8.97754 9.40321L8.78711 8.84001C8.77429 8.77441 8.6687 8.77441 8.63989 8.84001L8.44958 9.40321H7.85913C7.82556 9.40407 7.79614 9.4258 7.7854 9.45763C7.77466 9.48946 7.78491 9.5246 7.81116 9.54561L8.29114 9.8992L8.11035 10.4624C8.10156 10.4949 8.11401 10.5295 8.1416 10.5488C8.16919 10.5682 8.20593 10.5682 8.23352 10.5488L8.7135 10.2048L9.19348 10.5488C9.2207 10.5705 9.25903 10.5717 9.28748 10.5518C9.31598 10.5318 9.32794 10.4954 9.31677 10.4624L9.13599 9.8992L9.61597 9.54561C9.64221 9.5246 9.65247 9.48946 9.64172 9.45763C9.63099 9.4258 9.60157 9.40407 9.56799 9.40321H8.97754Z" fill="white"/>
<path d="M4.45117 9.40321L4.26074 8.84001C4.2384 8.77441 4.13269 8.77441 4.1311 8.84001L3.9408 9.40321H3.33276C3.29919 9.40407 3.26965 9.4258 3.25891 9.45763C3.24829 9.48946 3.25854 9.5246 3.28479 9.54561L3.76477 9.8992L3.58398 10.4624C3.57507 10.4949 3.58765 10.5295 3.61523 10.5488C3.64282 10.5682 3.67957 10.5682 3.70715 10.5488L4.18713 10.2048L4.66711 10.5488C4.69434 10.5705 4.73254 10.5717 4.76111 10.5518C4.78955 10.5318 4.80151 10.4954 4.79028 10.4624L4.6095 9.8992L5.0896 9.54561C5.11572 9.5246 5.1261 9.48946 5.11536 9.45763C5.10461 9.4258 5.07507 9.40407 5.0415 9.40321H4.45117Z" fill="white"/>
<path d="M11.0559 7.35361C11.0559 7.31296 11.0229 7.28001 10.9823 7.28001C10.9417 7.28001 10.9087 7.31296 10.9087 7.35361L10.7184 7.91681H10.1279C10.0944 7.91766 10.0649 7.93939 10.0542 7.97122C10.0435 8.00305 10.0537 8.03821 10.08 8.0592L10.5599 8.41281L10.3792 8.97601C10.3703 9.00854 10.3828 9.04309 10.4104 9.06244C10.438 9.08179 10.4747 9.08178 10.5023 9.06241L10.9823 8.71841L11.4624 9.06241C11.4896 9.08414 11.5278 9.08534 11.5563 9.06535C11.5848 9.04537 11.5967 9.00898 11.5856 8.97601L11.4048 8.41281L11.8848 8.0592C11.911 8.0382 11.9213 8.00305 11.9105 7.97122C11.8998 7.93939 11.8704 7.91766 11.8368 7.91681H11.2463L11.0559 7.35361Z" fill="white"/>
<path d="M6.71997 7.91681L6.52954 7.35361C6.5072 7.27681 6.40149 7.27681 6.38232 7.35361L6.19189 7.91681H5.60156C5.56799 7.91766 5.53845 7.93939 5.52771 7.97122C5.51709 8.00305 5.52734 8.03821 5.55359 8.0592L6.03357 8.41281L5.85278 8.97601C5.84396 9.00854 5.85644 9.04309 5.88403 9.06244C5.91162 9.0818 5.94836 9.08179 5.97595 9.06241L6.45593 8.71841L6.93591 9.06241C6.96313 9.08414 7.00134 9.08534 7.02991 9.06535C7.05841 9.04537 7.07025 9.00898 7.05908 8.97601L6.8783 8.41281L7.3584 8.0592C7.38452 8.03821 7.3949 8.00305 7.38416 7.97122C7.37341 7.93939 7.34387 7.91766 7.3103 7.91681H6.71997Z" fill="white"/>
<path d="M13.3247 5.92162C13.3171 5.89099 13.2894 5.86975 13.2578 5.87051C13.2263 5.87128 13.1995 5.89386 13.1935 5.9248L13.0032 6.48801H12.4127C12.3791 6.48886 12.3497 6.5106 12.339 6.54243C12.3283 6.57427 12.3385 6.6094 12.3647 6.6304L12.8447 6.98401L12.6479 7.54401C12.6392 7.57654 12.6516 7.6111 12.6792 7.63045C12.7068 7.6498 12.7435 7.64978 12.7711 7.6304L13.2511 7.28641L13.7312 7.6304C13.7583 7.65215 13.7966 7.65334 13.8251 7.63335C13.8536 7.61337 13.8655 7.57698 13.8544 7.54401L13.6736 6.9808L14.1536 6.62721C14.1798 6.6062 14.1901 6.57106 14.1793 6.53923C14.1686 6.5074 14.1392 6.48566 14.1056 6.4848H13.5151L13.3247 5.92162Z" fill="white"/>
<path d="M8.78711 5.92162C8.78711 5.88097 8.75415 5.84801 8.7135 5.84801C8.67285 5.84801 8.63989 5.88097 8.63989 5.92162L8.44958 6.4848H7.85913C7.82556 6.48566 7.79614 6.5074 7.7854 6.53923C7.77466 6.57106 7.78491 6.6062 7.81116 6.62721L8.29114 6.9808L8.11035 7.54401C8.10156 7.57654 8.11401 7.6111 8.1416 7.63045C8.16919 7.6498 8.20593 7.64978 8.23352 7.6304L8.7135 7.28641L9.19348 7.6304C9.2207 7.65215 9.25903 7.65334 9.28748 7.63335C9.31598 7.61336 9.32794 7.57698 9.31677 7.54401L9.13599 6.9808L9.61597 6.62721C9.64221 6.6062 9.65247 6.57106 9.64172 6.53923C9.63098 6.5074 9.60156 6.48566 9.56799 6.4848H8.97754L8.78711 5.92162Z" fill="white"/>
<path d="M4.45117 6.4848L4.26074 5.92162C4.2384 5.8448 4.13269 5.8448 4.1311 5.92162L3.9408 6.4848H3.33276C3.29919 6.48566 3.26965 6.5074 3.25891 6.53923C3.24829 6.57106 3.25854 6.6062 3.28479 6.62721L3.76477 6.9808L3.58398 7.54401C3.57507 7.57654 3.58765 7.6111 3.61523 7.63045C3.64282 7.6498 3.67957 7.64978 3.70715 7.6304L4.18713 7.28641L4.66711 7.6304C4.69434 7.65215 4.73254 7.65334 4.76111 7.63335C4.78961 7.61336 4.80145 7.57698 4.79028 7.54401L4.6095 6.9808L5.0896 6.62721C5.11572 6.6062 5.1261 6.57106 5.11536 6.53923C5.10461 6.5074 5.07507 6.48566 5.0415 6.4848H4.45117Z" fill="white"/>
<path d="M6.71997 4.98561L6.52954 4.42241C6.5072 4.35681 6.40149 4.35681 6.38232 4.42241L6.19189 4.98561H5.60156C5.56799 4.98647 5.53845 5.00819 5.52771 5.04002C5.51709 5.07185 5.52734 5.10701 5.55359 5.12801L6.03357 5.48161L5.85278 6.04482C5.84387 6.07733 5.85645 6.11189 5.88403 6.13124C5.91162 6.15059 5.94838 6.15058 5.97595 6.13121L6.45593 5.7872L6.93591 6.13121C6.96311 6.15294 7.00141 6.15414 7.02991 6.13416C7.05835 6.11417 7.07031 6.07777 7.05908 6.04482L6.8783 5.48161L7.3584 5.12801C7.38452 5.10701 7.3949 5.07185 7.38416 5.04002C7.37343 5.00819 7.34388 4.98646 7.3103 4.98561H6.71997Z" fill="white"/>
<path d="M11.2463 4.98561L11.0559 4.42241C11.0431 4.35681 10.9375 4.35681 10.9087 4.42241L10.7184 4.98561H10.1279C10.0944 4.98647 10.0649 5.00819 10.0542 5.04002C10.0435 5.07185 10.0537 5.10701 10.08 5.12801L10.5599 5.48161L10.3792 6.04482C10.3704 6.07733 10.3828 6.11189 10.4104 6.13124C10.438 6.1506 10.4747 6.15059 10.5023 6.13121L10.9823 5.7872L11.4624 6.13121C11.4895 6.15294 11.5278 6.15414 11.5563 6.13416C11.5848 6.11417 11.5967 6.07777 11.5856 6.04482L11.4048 5.48161L11.8848 5.12801C11.911 5.10701 11.9213 5.07185 11.9105 5.04002C11.8998 5.00819 11.8704 4.98647 11.8368 4.98561H11.2463Z" fill="white"/>
<path d="M8.97754 3.55521L8.78711 2.992C8.77429 2.92641 8.6687 2.92641 8.63989 2.992L8.44958 3.55521H7.85913C7.82556 3.55606 7.79614 3.5778 7.7854 3.60963C7.77466 3.64146 7.78491 3.67661 7.81116 3.69762L8.29114 4.05121L8.11035 4.61441C8.10153 4.64693 8.11401 4.6815 8.1416 4.70085C8.16919 4.7202 8.20593 4.72018 8.23352 4.70081L8.7135 4.35681L9.19348 4.70081C9.2207 4.72253 9.25903 4.72374 9.28748 4.70375C9.31604 4.68376 9.32788 4.64738 9.31677 4.61441L9.13599 4.05121L9.61597 3.69762C9.64221 3.67661 9.65247 3.64146 9.64172 3.60963C9.63099 3.5778 9.60157 3.55606 9.56799 3.55521H8.97754Z" fill="white"/>
<path d="M13.5151 3.55521L13.3247 2.992C13.3119 2.92641 13.2063 2.92641 13.1775 2.992L12.9872 3.55521H12.3967C12.3631 3.55606 12.3337 3.5778 12.323 3.60963C12.3123 3.64146 12.3225 3.67661 12.3488 3.69762L12.8287 4.05121L12.6479 4.61441C12.6391 4.64693 12.6516 4.6815 12.6792 4.70085C12.7068 4.7202 12.7435 4.72018 12.7711 4.70081L13.2511 4.35681L13.7312 4.70081C13.7583 4.72253 13.7966 4.72374 13.8251 4.70375C13.8536 4.68376 13.8655 4.64738 13.8544 4.61441L13.6736 4.05121L14.1536 3.69762C14.1798 3.67661 14.1901 3.64146 14.1793 3.60963C14.1686 3.5778 14.1392 3.55606 14.1056 3.55521H13.5151Z" fill="white"/>
<path d="M11.0559 1.50401C11.0559 1.47772 11.0419 1.45342 11.0192 1.44028C10.9964 1.42713 10.9683 1.42713 10.9456 1.44028C10.9227 1.45341 10.9087 1.47771 10.9087 1.50401L10.7184 2.06721H10.1279C10.0944 2.06805 10.0649 2.0898 10.0542 2.12163C10.0435 2.15346 10.0537 2.1886 10.08 2.20961L10.5599 2.5632L10.3792 3.1264C10.3704 3.15894 10.3828 3.1935 10.4104 3.21284C10.438 3.23219 10.4747 3.23219 10.5023 3.21281L10.9823 2.8688L11.4624 3.21281C11.4895 3.23454 11.5278 3.23573 11.5563 3.21576C11.5848 3.19577 11.5967 3.15937 11.5856 3.1264L11.4048 2.5632L11.8848 2.20961C11.911 2.1886 11.9213 2.15346 11.9105 2.12163C11.8998 2.0898 11.8704 2.06807 11.8368 2.06721H11.2463L11.0559 1.50401Z" fill="white"/>
</g>
</g>
</svg>
