<svg width="32" height="32" viewBox="0 0 32 32" fill="none" xmlns="http://www.w3.org/2000/svg">
<g id="currencies / currency-omg">
<g id="logo">
<path d="M32 16C32 24.8366 24.8366 32 16 32C7.16344 32 0 24.8366 0 16C0 7.16344 7.16344 0 16 0C24.8366 0 32 7.16344 32 16Z" fill="#101010"/>
<path d="M10.5898 16.0023C10.5898 15.2461 11.0363 14.6797 11.7821 14.6797C12.5292 14.6797 12.9757 15.2397 12.9757 15.9997C12.9757 16.7597 12.5279 17.321 11.7821 17.321C11.0363 17.321 10.5898 16.7584 10.5898 16.0023Z" fill="white"/>
<path fill-rule="evenodd" clip-rule="evenodd" d="M10.3431 10.3431C11.8434 8.84285 13.8783 8 16 8C18.1217 8 20.1566 8.84285 21.6569 10.3431C23.1571 11.8434 24 13.8783 24 16C24 18.1217 23.1571 20.1566 21.6569 21.6569C20.1566 23.1571 18.1217 24 16 24C13.8783 24 11.8434 23.1571 10.3431 21.6569C8.84285 20.1566 8 18.1217 8 16C8 13.8783 8.84285 11.8434 10.3431 10.3431ZM9.87097 16C9.87097 17.1252 10.6116 18.0013 11.7819 18.0013C12.9535 18.0013 13.6942 17.1187 13.6942 16C13.6942 14.8813 12.9523 13.9961 11.7819 13.9961C10.6116 13.9961 9.87097 14.8748 9.87097 16ZM17.4374 17.9032H18.1045L18.1135 14.0916H17.2103L16.1535 17.0052L15.0968 14.0916H14.1935V17.9032H14.8387V15.2181L15.8206 17.9032H16.4581L17.4374 15.2181V17.9032ZM21.4503 16.52C21.3858 17.0787 20.9806 17.3368 20.4645 17.3368H20.4619C19.7213 17.3368 19.3084 16.7923 19.3084 16.0077C19.3084 15.2735 19.6723 14.6684 20.4465 14.6684C20.9523 14.6684 21.3613 14.9303 21.4052 15.36H22.129C22.031 14.489 21.3716 14.0039 20.4684 14.0039C19.1935 14.0039 18.6 14.9845 18.6 16.0297C18.6 17.1523 19.2865 18.0013 20.3535 18.0013C20.9794 18.0013 21.329 17.7123 21.4697 17.4684V17.9032H22.129V15.8606H20.3535V16.52H21.4503Z" fill="white"/>
</g>
</g>
</svg>
