<svg width="32" height="32" viewBox="0 0 32 32" fill="none" xmlns="http://www.w3.org/2000/svg">
<g id="currencies / currency-gbp">
<g id="logo">
<path d="M32 16C32 24.8366 24.8366 32 16 32C7.16344 32 0 24.8366 0 16C0 7.16344 7.16344 0 16 0C24.8366 0 32 7.16344 32 16Z" fill="white"/>
<path d="M20.1739 0.551193C22.2213 1.10307 24.106 2.05076 25.7411 3.30757L20.1739 8.87476V0.551193Z" fill="#283991"/>
<path d="M0.551208 11.8262C1.10302 9.77875 2.05071 7.89406 3.30752 6.25887L8.87483 11.8262H0.551208Z" fill="#283991"/>
<path d="M28.6925 6.25893C29.9492 7.89412 30.897 9.77881 31.4488 11.8262H23.1253L28.6925 6.25893Z" fill="#283991"/>
<path d="M0.551208 20.174C1.10308 22.2214 2.05077 24.1061 3.30752 25.7412L8.87465 20.174H0.551208Z" fill="#283991"/>
<path d="M6.25885 28.6924C7.89404 29.9493 9.77873 30.8969 11.8261 31.4488V23.1253L6.25885 28.6924Z" fill="#283991"/>
<path d="M6.25885 3.30751C7.89398 2.05076 9.77866 1.10307 11.826 0.551193V8.87469L6.25885 3.30751Z" fill="#283991"/>
<path d="M20.174 31.4488C22.2213 30.8969 24.106 29.9492 25.7411 28.6925L20.174 23.1253V31.4488Z" fill="#283991"/>
<path d="M28.6925 25.7412L23.1253 20.174H31.4488C30.897 22.2214 29.9492 24.1061 28.6925 25.7412Z" fill="#283991"/>
<path d="M31.8646 13.9131H18.0871L18.087 0.135438C17.4038 0.0465 16.7073 0 16 0C15.2926 0 14.5962 0.0465 13.9131 0.135438V13.9129L0.135438 13.913C0.0465 14.5962 0 15.2927 0 16C0 16.7074 0.0465 17.4038 0.135438 18.0869H13.9129L13.913 31.8646C14.5962 31.9535 15.2926 32 16 32C16.7073 32 17.4038 31.9536 18.0869 31.8646V18.0871L31.8646 18.087C31.9535 17.4038 32 16.7074 32 16C32 15.2927 31.9535 14.5962 31.8646 13.9131Z" fill="#F44336"/>
<path d="M20.174 20.1739L27.3137 27.3137C27.6421 26.9855 27.9553 26.6423 28.2542 26.2866L22.1416 20.1739H20.174Z" fill="#F44336"/>
<path d="M11.8261 20.174V22.1414L5.71347 28.2542C5.35772 27.9553 5.01453 27.6421 4.68628 27.3137L11.8261 20.174Z" fill="#F44336"/>
<path d="M11.8302 11.8261L4.6905 4.68625C4.36212 5.0145 4.04887 5.35769 3.75 5.71344L9.86269 11.8262L11.8302 11.8261Z" fill="#F44336"/>
<path d="M27.3138 4.68631L20.174 11.8262V9.85856L26.2866 3.74587C26.6423 4.04468 26.9855 4.35794 27.3138 4.68631Z" fill="#F44336"/>
</g>
</g>
</svg>
