<svg width="32" height="32" viewBox="0 0 32 32" fill="none" xmlns="http://www.w3.org/2000/svg">
<g id="currencies / currency-usdt">
<g id="logo">
<path d="M32 16C32 24.8366 24.8366 32 16 32C7.16344 32 0 24.8366 0 16C0 7.16344 7.16344 0 16 0C24.8366 0 32 7.16344 32 16Z" fill="#53AE94"/>
<path d="M17.9747 13.8682V11.488H23.4176V7.86144H8.59648V11.488H14.04V13.8662C9.616 14.0694 6.2896 14.9456 6.2896 15.9952C6.2896 17.0448 9.6176 17.921 14.04 18.1254V25.7494H17.976V18.1248C22.392 17.921 25.7117 17.0454 25.7117 15.9968C25.7117 14.9482 22.392 14.0726 17.976 13.8688L17.9747 13.8682ZM17.976 17.479V17.4771C17.865 17.4842 17.2944 17.5184 16.024 17.5184C15.0083 17.5184 14.2938 17.4896 14.0419 17.4765V17.4797C10.1334 17.3066 7.216 16.6259 7.216 15.8115C7.216 14.9971 10.1338 14.3174 14.0419 14.144V16.8016C14.2979 16.8192 15.0301 16.8624 16.0406 16.8624C17.2544 16.8624 17.8646 16.8118 17.9766 16.8016V14.144C21.8774 14.3178 24.7882 14.999 24.7882 15.8106C24.7882 16.6221 21.8755 17.3034 17.976 17.4771" fill="white"/>
</g>
</g>
</svg>
