<svg width="32" height="32" viewBox="0 0 32 32" fill="none" xmlns="http://www.w3.org/2000/svg">
<g id="currencies / currency-eos">
<g id="logo">
<path d="M32 16C32 24.8366 24.8366 32 16 32C7.16344 32 0 24.8366 0 16C0 7.16344 7.16344 0 16 0C24.8366 0 32 7.16344 32 16Z" fill="black"/>
<path d="M16 6L11.32 12.44L9.36 21.96L16 26L22.64 21.96L20.64 12.4L16 6ZM10.44 21.52L11.92 14.28L15.28 24.48L10.44 21.52ZM12.4 12.64L16 7.68L19.6 12.64L16 23.52L12.4 12.64ZM16.68 24.48L20.04 14.28L21.52 21.52L16.68 24.48Z" fill="white"/>
</g>
</g>
</svg>
