<svg width="32" height="32" viewBox="0 0 32 32" fill="none" xmlns="http://www.w3.org/2000/svg">
<g id="currencies / currency-none">
<g id="logo">
<path d="M32 16C32 24.8366 24.8366 32 16 32C7.16344 32 0 24.8366 0 16C0 7.16344 7.16344 0 16 0C24.8366 0 32 7.16344 32 16Z" fill="#4BB4B3"/>
<path d="M13.7647 19V14.8302C15.1416 14.7757 16.1743 14.5349 16.8627 14.108C17.5512 13.681 17.8954 12.9588 17.8954 11.9413V11.5597C17.8954 10.8693 17.6993 10.3424 17.3072 9.97904C16.915 9.61565 16.4052 9.43396 15.7778 9.43396C15.098 9.43396 14.5359 9.65199 14.0915 10.088C13.6471 10.5241 13.3464 11.0783 13.1895 11.7505L10 10.3606C10.1569 9.81551 10.3834 9.28407 10.6797 8.76625C10.976 8.24843 11.3638 7.78512 11.8431 7.37631C12.3224 6.9675 12.8976 6.63592 13.5686 6.38155C14.2397 6.12718 15.0196 6 15.9085 6C16.8148 6 17.6427 6.13627 18.3922 6.4088C19.1416 6.68134 19.7865 7.06289 20.3268 7.55346C20.8671 8.04403 21.281 8.63452 21.5686 9.32495C21.8562 10.0154 22 10.7785 22 11.6143C22 12.3774 21.878 13.0678 21.634 13.6855C21.39 14.3033 21.0588 14.8438 20.6405 15.3071C20.2222 15.7704 19.7342 16.1474 19.1765 16.4382C18.6187 16.7289 18.0349 16.9287 17.4248 17.0377V19H13.7647ZM15.5 26C14.6011 26 13.9597 25.7917 13.5758 25.375C13.1919 24.9583 13 24.447 13 23.8409V23.1591C13 22.553 13.1919 22.0417 13.5758 21.625C13.9597 21.2083 14.6011 21 15.5 21C16.3989 21 17.0403 21.2083 17.4242 21.625C17.8081 22.0417 18 22.553 18 23.1591V23.8409C18 24.447 17.8081 24.9583 17.4242 25.375C17.0403 25.7917 16.3989 26 15.5 26Z" fill="white"/>
</g>
</g>
</svg>
