<svg width="32" height="32" viewBox="0 0 32 32" fill="none" xmlns="http://www.w3.org/2000/svg">
<g id="currencies / currency-terra" clip-path="url(#clip0_1859_869)">
<g id="logo">
<path d="M32 16C32 24.8366 24.8366 32 16 32C7.16344 32 0 24.8366 0 16C0 7.16344 7.16344 0 16 0C24.8366 0 32 7.16344 32 16Z" fill="#172852"/>
<path d="M20.5063 12.2899C22.0407 12.7683 23.5719 13.2931 24.9687 14.1027L25.0631 14.1523C25.1927 15.1267 25.2871 16.1203 25.1143 17.0963C24.4119 16.7987 23.8423 16.2755 23.2471 15.8131C22.1015 14.8595 20.9319 13.7683 20.5063 12.2899Z" fill="#FF6F03"/>
<path d="M18.7709 7.069C16.8621 6.493 14.7533 6.4946 12.8797 7.1954C12.4397 7.421 11.8237 7.7458 11.8829 8.3282C12.0144 8.92992 12.5787 9.25841 13.0831 9.55205C13.1434 9.58713 13.2028 9.62171 13.2605 9.6562C14.8609 10.4939 16.5784 11.0461 18.2945 11.5979C19.0694 11.8471 19.8441 12.0961 20.6077 12.3714C22.1421 12.8498 23.6733 13.3746 25.0701 14.1842C25.0413 13.4386 24.7517 12.7394 24.4493 12.069C23.3533 9.7154 21.2557 7.8402 18.7709 7.069Z" fill="#FFD83D"/>
<path d="M9.86356 9.00864C8.65556 10.0214 7.76596 11.3878 7.22356 12.8598C6.23156 15.5974 6.64436 18.7926 8.28116 21.199C9.73236 23.3766 12.1372 24.919 14.742 25.2518C19.0572 25.9302 23.7148 23.1094 24.8908 18.8598C24.722 18.8921 24.5531 18.9255 24.3842 18.959C23.3566 19.1622 22.3241 19.3664 21.2716 19.3334C18.1852 19.3846 15.1516 18.0262 13.022 15.8134C11.246 13.9766 10.1708 11.535 9.86356 9.00864Z" fill="#FFD83D"/>
</g>
</g>
<defs>
<clipPath id="clip0_1859_869">
<rect width="32" height="32" fill="white"/>
</clipPath>
</defs>
</svg>
