<svg width="32" height="32" viewBox="0 0 32 32" fill="none" xmlns="http://www.w3.org/2000/svg">
<g id="currencies / currency-aud">
<g id="logo">
<path d="M32 16C32 24.8366 24.8366 32 16 32C7.16344 32 0 24.8366 0 16C0 7.16344 7.16344 0 16 0C24.8366 0 32 7.16344 32 16Z" fill="#283991"/>
<path d="M24.2998 8.5106L23.6883 9.27252L24.3258 10.0243L23.3372 9.84785L22.9812 10.7428L22.6543 9.84738L21.6853 9.99961L22.321 9.25558L21.7085 8.5106L22.6722 8.68174L23.0282 7.76758L23.3556 8.68174L24.2998 8.5106Z" fill="white"/>
<path d="M10.9437 24.916L12.0219 23.5719L10.3562 23.8736L9.7783 22.2601L9.15018 23.8736L7.44959 23.5719L8.53036 24.8864L7.4082 26.1995L9.11858 25.9309L9.69546 27.511L10.3238 25.9316L12.0683 26.2434L10.9437 24.916Z" fill="white"/>
<path d="M23.6883 26.1033L24.2998 25.3416L23.3556 25.5125L23.0282 24.5984L22.6722 25.5125L21.7085 25.3416L22.321 26.0861L21.6853 26.8306L22.6543 26.6782L22.9812 27.5732L23.3372 26.6786L24.3258 26.8554L23.6883 26.1033Z" fill="white"/>
<path d="M27.6439 13.6264L28.2549 12.8645L27.3112 13.0357L26.9837 12.1215L26.6278 13.0357L25.6636 12.8645L26.2761 13.6095L25.6404 14.3538L26.6094 14.2013L26.9362 15.0968L27.2922 14.2018L28.2809 14.3783L27.6439 13.6264Z" fill="white"/>
<path d="M20.8782 14.8004L20.2667 15.5621L20.9045 16.3141L19.9158 16.1377L19.5598 17.0319L19.2329 16.1371L18.2639 16.2894L18.8994 15.5449L18.2871 14.8004L19.2506 14.9716L19.6065 14.0574L19.934 14.9716L20.8782 14.8004Z" fill="white"/>
<path d="M0 15.4726L5.9978 11.4741V15.737H9.9978V11.4741L15.9978 15.4741V10.6666L14.6033 9.737H15.9978V5.737H14.6033L15.9978 4.80737V0L9.9978 3.99997V0.900024C8.54651 1.48752 7.20093 2.2818 5.9978 3.24628V3.99997L5.49609 3.6655C3.61084 5.30695 2.11389 7.38275 1.16089 9.737H1.39233L1.07764 9.94678C0.410522 11.6647 0.0314941 13.5264 0 15.4726Z" fill="white"/>
<path d="M0.1427 13.5747L5.89917 9.737H4.09644L0.387939 12.2093C0.287109 12.6576 0.205078 13.113 0.1427 13.5747Z" fill="#F44336"/>
<path d="M1.60632 8.737H6.9978V15.737H8.9978V8.737H15.9978V6.737H8.9978V1.34546C8.30127 1.68484 7.63318 2.07333 6.9978 2.50638V6.737H2.76721C2.33423 7.37234 1.94568 8.04053 1.60632 8.737Z" fill="#F44336"/>
<path d="M3.71509 5.48279L4.09644 5.737H5.89917L4.38672 4.72867C4.15515 4.97287 3.93103 5.22437 3.71509 5.48279Z" fill="#F44336"/>
<path d="M15.9978 1.80273V3.00461L11.8992 5.737H10.0964L15.9978 1.80273Z" fill="#F44336"/>
<path d="M11.8992 9.737L15.9978 12.4694V13.6713L10.0964 9.737H11.8992Z" fill="#F44336"/>
</g>
</g>
</svg>
