<svg width="32" height="32" viewBox="0 0 32 32" fill="none" xmlns="http://www.w3.org/2000/svg">
<g id="currencies / currency-ada" clip-path="url(#clip0_1859_903)">
<g id="logo">
<path d="M32 16C32 24.8366 24.8366 32 16 32C7.16344 32 0 24.8366 0 16C0 7.16344 7.16344 0 16 0C24.8366 0 32 7.16344 32 16Z" fill="#0033AD"/>
<path d="M15.9523 8.99647C16.0508 9.00208 16.1488 8.97836 16.2337 8.9283C16.3187 8.87824 16.387 8.8041 16.4298 8.71526C16.4727 8.62641 16.4882 8.52686 16.4745 8.42918C16.4607 8.3315 16.4183 8.24009 16.3526 8.16652C16.2869 8.09294 16.2009 8.04051 16.1054 8.01584C16.0099 7.99118 15.9092 7.99539 15.8161 8.02795C15.723 8.06051 15.6416 8.11995 15.5823 8.19876C15.523 8.27757 15.4884 8.3722 15.4828 8.47068C15.4754 8.60265 15.5207 8.73217 15.6088 8.83076C15.6968 8.92935 15.8204 8.98896 15.9523 8.99647Z" fill="white"/>
<path d="M20.2897 9.24302C20.2122 9.24372 20.1361 9.22139 20.0713 9.17887C19.9844 9.12193 19.9237 9.03282 19.9024 8.93113C19.8812 8.82944 19.9012 8.72349 19.958 8.63653C20.0005 8.57161 20.0612 8.52073 20.1326 8.49034C20.2039 8.45995 20.2827 8.4514 20.3589 8.46579C20.4351 8.48017 20.5053 8.51683 20.5607 8.57114C20.6161 8.62545 20.6541 8.69497 20.6699 8.77089C20.6858 8.84681 20.6788 8.92572 20.6498 8.99765C20.6207 9.06958 20.5711 9.13128 20.507 9.17496C20.4429 9.21864 20.3673 9.24232 20.2897 9.24302Z" fill="white"/>
<path d="M11.8539 9.22025C11.9228 9.18491 11.9796 9.13001 12.0172 9.06245C12.0549 8.9949 12.0718 8.91771 12.0657 8.8406C12.0596 8.76348 12.0308 8.6899 11.983 8.62911C11.9351 8.56832 11.8704 8.52304 11.7969 8.49896C11.7234 8.47489 11.6444 8.4731 11.5699 8.49382C11.4953 8.51454 11.4286 8.55684 11.3781 8.61541C11.3275 8.67397 11.2954 8.74617 11.2859 8.82293C11.2763 8.89968 11.2896 8.97756 11.3242 9.04675C11.3474 9.09307 11.3796 9.13432 11.4189 9.16814C11.4581 9.20196 11.5037 9.22768 11.5529 9.24381C11.6022 9.25994 11.6541 9.26616 11.7058 9.26211C11.7575 9.25807 11.8078 9.24384 11.8539 9.22025Z" fill="white"/>
<path d="M12.2362 17.1312C12.0221 16.8908 11.9122 16.5753 11.9307 16.2539L11.9274 16.2546C11.9409 16.0183 12.0234 15.7912 12.1646 15.6013C12.3057 15.4113 12.4994 15.2669 12.7218 15.1857C12.9441 15.1046 13.1853 15.0903 13.4156 15.1447C13.6459 15.1991 13.8553 15.3197 14.0179 15.4917C14.1805 15.6637 14.2891 15.8795 14.3304 16.1125C14.3717 16.3456 14.3439 16.5856 14.2504 16.803C14.1569 17.0204 14.0018 17.2057 13.8042 17.3359C13.6066 17.4662 13.3752 17.5357 13.1385 17.536H13.0723C12.751 17.5172 12.4502 17.3716 12.2362 17.1312Z" fill="white"/>
<path d="M7.19118 15.9996C7.25783 15.9603 7.33463 15.9416 7.41189 15.9459C7.46328 15.9487 7.51362 15.9616 7.56001 15.9839C7.60639 16.0062 7.64792 16.0375 7.68219 16.0759C7.71647 16.1143 7.74282 16.1591 7.75973 16.2077C7.77664 16.2563 7.78378 16.3078 7.78074 16.3591C7.7763 16.4364 7.74905 16.5106 7.70245 16.5724C7.65585 16.6341 7.59199 16.6807 7.51893 16.7062C7.44587 16.7317 7.36689 16.7349 7.29198 16.7156C7.21707 16.6962 7.14958 16.655 7.09805 16.5973C7.04653 16.5396 7.01327 16.4679 7.00248 16.3912C6.99169 16.3146 7.00386 16.2365 7.03745 16.1668C7.07103 16.0971 7.12453 16.0389 7.19118 15.9996Z" fill="white"/>
<path d="M13.3378 11.1219C13.2789 11.2261 13.1904 11.3105 13.0835 11.3644C13.0125 11.4002 12.9352 11.4217 12.8559 11.4276C12.7766 11.4335 12.6969 11.4237 12.6214 11.3988C12.5459 11.3739 12.476 11.3344 12.4158 11.2824C12.3555 11.2305 12.3061 11.1672 12.2704 11.0962C12.2165 10.9893 12.1956 10.8688 12.2102 10.75C12.2248 10.6313 12.2744 10.5195 12.3525 10.4288C12.4307 10.3382 12.5339 10.2727 12.6493 10.2407C12.7646 10.2088 12.8868 10.2117 13.0005 10.2492C13.1142 10.2867 13.2142 10.357 13.2879 10.4514C13.3616 10.5457 13.4056 10.6597 13.4145 10.7791C13.4234 10.8984 13.3967 11.0177 13.3378 11.1219Z" fill="white"/>
<path d="M8.94549 12.8391C9.02792 12.8933 9.12457 12.9218 9.22322 12.9211C9.32187 12.9204 9.41808 12.8904 9.49968 12.8349C9.58128 12.7795 9.6446 12.7011 9.68164 12.6097C9.71867 12.5182 9.72775 12.4179 9.70773 12.3213C9.6877 12.2247 9.63947 12.1362 9.56915 12.067C9.49882 11.9978 9.40955 11.951 9.31263 11.9326C9.21572 11.9142 9.11552 11.9249 9.0247 11.9634C8.93389 12.002 8.85654 12.0666 8.80245 12.1491C8.73001 12.2596 8.70439 12.3943 8.73121 12.5237C8.75803 12.6531 8.8351 12.7665 8.94549 12.8391Z" fill="white"/>
<path d="M9.34104 15.8084C9.44415 15.7477 9.56295 15.7188 9.68245 15.7256C9.84276 15.7348 9.99286 15.8073 10.0998 15.9271C10.2067 16.0469 10.2616 16.2043 10.2526 16.3646C10.2457 16.4841 10.2036 16.5988 10.1315 16.6944C10.0594 16.7899 9.96065 16.862 9.84764 16.9014C9.73464 16.9408 9.61249 16.9458 9.49663 16.9158C9.38077 16.8858 9.2764 16.8221 9.19672 16.7328C9.11704 16.6435 9.06563 16.5326 9.04898 16.4141C9.03233 16.2956 9.05119 16.1748 9.10317 16.067C9.15516 15.9592 9.23793 15.8692 9.34104 15.8084Z" fill="white"/>
<path d="M9.01164 19.7948C8.92364 19.8393 8.8508 19.9089 8.80232 19.9947C8.75385 20.0806 8.73193 20.1789 8.73932 20.2772C8.74671 20.3756 8.78309 20.4695 8.84385 20.5471C8.90461 20.6248 8.98704 20.6827 9.0807 20.7135C9.17436 20.7443 9.27506 20.7467 9.37006 20.7203C9.46506 20.6939 9.55011 20.6399 9.61444 20.5652C9.67877 20.4905 9.71951 20.3983 9.7315 20.3005C9.74348 20.2026 9.72619 20.1034 9.68179 20.0153C9.65229 19.9568 9.61155 19.9047 9.56189 19.862C9.51224 19.8192 9.45465 19.7867 9.39241 19.7662C9.33018 19.7457 9.26451 19.7377 9.19918 19.7426C9.13384 19.7475 9.07011 19.7653 9.01164 19.7948Z" fill="white"/>
<path d="M11.7617 14.5911C11.6208 14.5923 11.4827 14.5517 11.3648 14.4745C11.2865 14.4233 11.219 14.3571 11.1663 14.2797C11.1136 14.2024 11.0766 14.1154 11.0575 14.0237C11.0385 13.9321 11.0377 13.8376 11.0552 13.7456C11.0727 13.6537 11.1081 13.5661 11.1595 13.4878C11.2368 13.37 11.3473 13.2777 11.477 13.2226C11.6067 13.1676 11.7499 13.1522 11.8883 13.1785C12.0268 13.2048 12.1543 13.2716 12.2548 13.3703C12.3553 13.4691 12.4243 13.5954 12.453 13.7334C12.4817 13.8714 12.4688 14.0147 12.4161 14.1454C12.3633 14.2761 12.2729 14.3881 12.1565 14.4675C12.04 14.5468 11.9026 14.5898 11.7617 14.5911Z" fill="white"/>
<path d="M18.829 11.3165C18.9293 11.382 19.0468 11.4162 19.1666 11.4149C19.2864 11.4136 19.4032 11.3768 19.5021 11.3092C19.601 11.2415 19.6776 11.1461 19.7222 11.0349C19.7669 10.9237 19.7776 10.8018 19.753 10.6845C19.7284 10.5673 19.6695 10.46 19.5839 10.3761C19.4983 10.2923 19.3898 10.2357 19.2721 10.2136C19.1543 10.1914 19.0326 10.2047 18.9224 10.2516C18.8122 10.2986 18.7184 10.3772 18.6528 10.4775C18.6092 10.5441 18.5791 10.6187 18.5643 10.697C18.5496 10.7752 18.5504 10.8556 18.5667 10.9336C18.5831 11.0115 18.6147 11.0855 18.6597 11.1512C18.7047 11.2169 18.7622 11.2731 18.829 11.3165Z" fill="white"/>
<path d="M18.9244 15.0997C18.7655 15.0905 18.6063 15.1128 18.456 15.1652C18.3057 15.2175 18.1671 15.299 18.0483 15.4049C17.8083 15.6189 17.6631 15.9193 17.6447 16.2403C17.6263 16.5613 17.7361 16.8764 17.95 17.1164C18.1639 17.3564 18.4644 17.5016 18.7853 17.52H18.8555C19.0893 17.5199 19.3181 17.4521 19.5143 17.3249C19.7105 17.1977 19.8657 17.0165 19.9611 16.803C20.0566 16.5896 20.0883 16.3531 20.0524 16.1221C20.0165 15.891 19.9145 15.6753 19.7588 15.5009C19.6533 15.382 19.5252 15.2853 19.382 15.2164C19.2387 15.1475 19.0832 15.1078 18.9244 15.0997Z" fill="white"/>
<path d="M13.9283 14.879C13.7369 14.7612 13.5821 14.5922 13.4815 14.3913C13.389 14.2066 13.3452 14.0013 13.3543 13.7949C13.3634 13.5885 13.4251 13.3879 13.5335 13.212C13.6419 13.0362 13.7934 12.8909 13.9737 12.7901C14.1539 12.6892 14.357 12.6361 14.5636 12.6358C14.7878 12.6347 15.008 12.6961 15.1993 12.813C15.3906 12.93 15.5456 13.0979 15.6469 13.298C15.7405 13.4828 15.7852 13.6886 15.7766 13.8956C15.7681 14.1027 15.7066 14.3041 15.5981 14.4806C15.4896 14.6571 15.3376 14.8029 15.1568 14.904C14.9759 15.0051 14.7721 15.0581 14.5649 15.0581C14.3402 15.0588 14.1197 14.9968 13.9283 14.879Z" fill="white"/>
<path d="M22.9842 12.8383C23.0722 12.7939 23.145 12.7244 23.1936 12.6386C23.2421 12.5528 23.2641 12.4545 23.2568 12.3562C23.2495 12.2578 23.2132 12.1639 23.1525 12.0862C23.0918 12.0085 23.0094 11.9506 22.9158 11.9197C22.8222 11.8888 22.7215 11.8863 22.6265 11.9126C22.5314 11.9389 22.4464 11.9928 22.382 12.0674C22.3176 12.1421 22.2767 12.2342 22.2646 12.332C22.2525 12.4298 22.2697 12.5291 22.314 12.6172C22.3736 12.7353 22.4777 12.825 22.6033 12.8664C22.729 12.9079 22.8659 12.8978 22.9842 12.8383Z" fill="white"/>
<path d="M19.6117 13.5092C19.6811 13.3865 19.7853 13.2872 19.9112 13.2238C19.9947 13.1817 20.0858 13.1564 20.1791 13.1494C20.2725 13.1425 20.3663 13.154 20.4551 13.1833C20.544 13.2127 20.6262 13.2593 20.6971 13.3204C20.768 13.3816 20.8261 13.4561 20.8681 13.5397C20.9315 13.6656 20.9561 13.8074 20.9389 13.9473C20.9217 14.0872 20.8634 14.2188 20.7713 14.3255C20.6793 14.4322 20.5577 14.5093 20.4219 14.5469C20.2861 14.5845 20.1422 14.581 20.0083 14.5368C19.8745 14.4927 19.7568 14.4098 19.6701 14.2987C19.5833 14.1876 19.5315 14.0533 19.5211 13.9128C19.5107 13.7723 19.5422 13.6318 19.6117 13.5092Z" fill="white"/>
<path d="M16.349 12.0372C16.2277 12.1088 16.0878 12.1428 15.9471 12.1349C15.7584 12.1241 15.5816 12.0388 15.4557 11.8978C15.3298 11.7567 15.265 11.5714 15.2757 11.3826C15.2837 11.242 15.3333 11.1069 15.4182 10.9944C15.503 10.8819 15.6193 10.7971 15.7523 10.7507C15.8853 10.7043 16.0291 10.6984 16.1655 10.7337C16.3019 10.7689 16.4248 10.8439 16.5186 10.949C16.6124 11.0541 16.673 11.1846 16.6926 11.3242C16.7122 11.4637 16.6901 11.6059 16.6289 11.7328C16.5678 11.8597 16.4704 11.9656 16.349 12.0372Z" fill="white"/>
<path d="M12.0862 19.4083C12.212 19.3449 12.3162 19.2456 12.3856 19.1229C12.455 19.0002 12.4864 18.8597 12.476 18.7192C12.4655 18.5786 12.4136 18.4443 12.3268 18.3333C12.24 18.2222 12.1222 18.1394 11.9883 18.0953C11.8545 18.0512 11.7105 18.0478 11.5747 18.0856C11.4389 18.1233 11.3174 18.2004 11.2254 18.3072C11.1335 18.414 11.0752 18.5457 11.0581 18.6856C11.041 18.8255 11.0658 18.9673 11.1293 19.0931C11.2144 19.2618 11.363 19.3898 11.5425 19.4489C11.7219 19.508 11.9175 19.4934 12.0862 19.4083Z" fill="white"/>
<path d="M16.2131 13.9372C16.1912 13.6685 16.2596 13.4001 16.4073 13.1746C16.5178 13.0062 16.6684 12.868 16.8457 12.7724C17.0229 12.6768 17.2211 12.6268 17.4225 12.627C17.6921 12.6273 17.9539 12.7176 18.1665 12.8834C18.3791 13.0493 18.5302 13.2814 18.5961 13.5428C18.6619 13.8043 18.6387 14.0803 18.5301 14.327C18.4214 14.5738 18.2336 14.7773 17.9963 14.9053C17.759 15.0333 17.4858 15.0786 17.2199 15.0338C16.954 14.9891 16.7106 14.857 16.5283 14.6583C16.3459 14.4597 16.235 14.206 16.2131 13.9372Z" fill="white"/>
<path d="M18.5142 18.2423C18.4171 18.0498 18.2704 17.8867 18.0892 17.7698C17.9081 17.6529 17.699 17.5864 17.4835 17.5773C17.2681 17.5681 17.0541 17.6166 16.8637 17.7178C16.6733 17.8189 16.5133 17.9691 16.4002 18.1527C16.2872 18.3363 16.2252 18.5467 16.2206 18.7623C16.216 18.9779 16.2691 19.1908 16.3742 19.379C16.4794 19.5673 16.6329 19.724 16.8188 19.8332C17.0048 19.9423 17.2165 19.9998 17.4322 19.9998C17.6218 19.9985 17.8086 19.9532 17.9778 19.8674C18.264 19.7225 18.4811 19.4702 18.5816 19.1656C18.6821 18.8611 18.6579 18.5291 18.5142 18.2423Z" fill="white"/>
<path d="M20.2352 18.041C20.3761 18.0399 20.5142 18.0806 20.632 18.1579C20.7897 18.2618 20.8998 18.424 20.9381 18.609C20.9765 18.7939 20.94 18.9865 20.8366 19.1446C20.7593 19.2624 20.6487 19.3546 20.519 19.4096C20.3892 19.4646 20.2461 19.4799 20.1077 19.4535C19.9692 19.4271 19.8417 19.3603 19.7413 19.2615C19.6408 19.1626 19.5719 19.0362 19.5433 18.8982C19.5147 18.7602 19.5276 18.6169 19.5805 18.4862C19.6334 18.3556 19.7238 18.2436 19.8403 18.1643C19.9568 18.0851 20.0943 18.0422 20.2352 18.041Z" fill="white"/>
<path d="M22.9523 16.3366C22.9591 16.2171 22.9303 16.0983 22.8695 15.9952C22.8087 15.8921 22.7188 15.8093 22.611 15.7573C22.5031 15.7054 22.3824 15.6865 22.2638 15.7032C22.1453 15.7198 22.0344 15.7712 21.9451 15.8509C21.8558 15.9306 21.7921 16.0349 21.7621 16.1508C21.7321 16.2667 21.7371 16.3888 21.7766 16.5018C21.816 16.6148 21.888 16.7136 21.9835 16.7857C22.0791 16.8578 22.1938 16.8999 22.3133 16.9068C22.4736 16.9158 22.631 16.8608 22.7508 16.7539C22.8706 16.647 22.9431 16.4969 22.9523 16.3366Z" fill="white"/>
<path d="M24.4078 15.9594C24.4746 15.9201 24.5516 15.9015 24.629 15.9059C24.7328 15.9121 24.8298 15.9591 24.899 16.0367C24.9681 16.1142 25.0037 16.216 24.9979 16.3198C24.9934 16.3972 24.9661 16.4716 24.9194 16.5334C24.8727 16.5953 24.8087 16.642 24.7355 16.6675C24.6623 16.693 24.5831 16.6962 24.5081 16.6768C24.433 16.6573 24.3654 16.616 24.3138 16.5581C24.2622 16.5002 24.229 16.4284 24.2183 16.3516C24.2075 16.2748 24.2198 16.1965 24.2535 16.1267C24.2873 16.0569 24.341 15.9987 24.4078 15.9594Z" fill="white"/>
<path d="M23.0503 19.7934C22.9678 19.7394 22.8712 19.711 22.7726 19.7119C22.674 19.7128 22.5778 19.7429 22.4963 19.7985C22.4149 19.854 22.3516 19.9324 22.3147 20.0238C22.2778 20.1153 22.2688 20.2156 22.2889 20.3121C22.309 20.4087 22.3572 20.4971 22.4276 20.5662C22.4979 20.6353 22.5871 20.682 22.684 20.7004C22.7809 20.7188 22.881 20.7081 22.9718 20.6696C23.0626 20.6311 23.1399 20.5665 23.194 20.4841C23.2299 20.4293 23.2547 20.368 23.267 20.3036C23.2792 20.2393 23.2786 20.1731 23.2653 20.109C23.2519 20.0448 23.2261 19.984 23.1892 19.9298C23.1523 19.8757 23.1051 19.8293 23.0503 19.7934Z" fill="white"/>
<path d="M11.7073 23.3887C11.7848 23.388 11.8608 23.4104 11.9256 23.4529C11.9686 23.4812 12.0057 23.5176 12.0347 23.5602C12.0636 23.6028 12.0839 23.6507 12.0944 23.7011C12.1048 23.7515 12.1052 23.8035 12.0956 23.8541C12.0859 23.9047 12.0664 23.9529 12.0382 23.9959C11.9956 24.0607 11.9348 24.1115 11.8634 24.1417C11.792 24.1719 11.7132 24.1803 11.6371 24.1658C11.5609 24.1513 11.4908 24.1145 11.4355 24.0601C11.3803 24.0057 11.3424 23.9362 11.3266 23.8603C11.3109 23.7844 11.318 23.7055 11.3471 23.6336C11.3762 23.5618 11.4259 23.5001 11.49 23.4565C11.5541 23.4129 11.6297 23.3893 11.7073 23.3887Z" fill="white"/>
<path d="M20.142 23.4123C20.0727 23.4472 20.0154 23.5019 19.9772 23.5693C19.939 23.6368 19.9217 23.7141 19.9275 23.7915C19.9332 23.8688 19.9618 23.9427 20.0095 24.0038C20.0573 24.0649 20.1221 24.1104 20.1957 24.1347C20.2694 24.159 20.3485 24.1609 20.4233 24.1401C20.498 24.1194 20.5649 24.0769 20.6155 24.0182C20.6661 23.9594 20.6981 23.887 20.7075 23.81C20.717 23.7331 20.7034 23.655 20.6684 23.5858C20.6453 23.5398 20.6133 23.4988 20.5743 23.4651C20.5354 23.4315 20.4901 23.4059 20.4412 23.3898C20.3923 23.3737 20.3407 23.3674 20.2893 23.3712C20.238 23.3751 20.1879 23.389 20.142 23.4123Z" fill="white"/>
<path d="M15.7831 18.6934C15.805 18.9622 15.7366 19.2306 15.5888 19.4561C15.4789 19.6248 15.3285 19.7634 15.1513 19.859C14.9741 19.9547 14.7757 20.0044 14.5743 20.0037C14.3047 20.0035 14.0428 19.9134 13.8301 19.7476C13.6175 19.5818 13.4662 19.3498 13.4002 19.0884C13.3343 18.8269 13.3574 18.5509 13.4659 18.304C13.5745 18.0572 13.7623 17.8536 13.9996 17.7255C14.2369 17.5974 14.5101 17.5521 14.776 17.5968C15.042 17.6415 15.2854 17.7736 15.4678 17.9722C15.6502 18.1708 15.7611 18.4246 15.7831 18.6934Z" fill="white"/>
<path d="M13.1672 21.3165C13.067 21.251 12.9497 21.2167 12.83 21.2178C12.7104 21.219 12.5937 21.2556 12.4948 21.323C12.396 21.3904 12.3193 21.4857 12.2745 21.5967C12.2298 21.7076 12.2189 21.8294 12.2433 21.9466C12.2678 22.0637 12.3264 22.171 12.4118 22.2549C12.4972 22.3387 12.6055 22.3954 12.7231 22.4177C12.8407 22.44 12.9623 22.4269 13.0724 22.3801C13.1826 22.3334 13.2764 22.255 13.342 22.1549C13.4299 22.0205 13.4609 21.8567 13.4281 21.6995C13.3953 21.5423 13.3015 21.4046 13.1672 21.3165Z" fill="white"/>
<path d="M15.7116 23.7037C15.7965 23.6537 15.8944 23.63 15.9929 23.6356C16.0583 23.6393 16.1223 23.6559 16.1813 23.6843C16.2403 23.7128 16.2931 23.7526 16.3367 23.8015C16.3803 23.8504 16.4139 23.9074 16.4354 23.9693C16.457 24.0311 16.4662 24.0966 16.4624 24.162C16.4567 24.2605 16.422 24.355 16.3626 24.4337C16.3032 24.5125 16.2218 24.5718 16.1287 24.6043C16.0356 24.6367 15.935 24.6408 15.8395 24.6161C15.744 24.5914 15.6581 24.5389 15.5924 24.4653C15.5268 24.3917 15.4845 24.3003 15.4708 24.2026C15.4571 24.105 15.4726 24.0055 15.5155 23.9167C15.5584 23.8279 15.6266 23.7538 15.7116 23.7037Z" fill="white"/>
<path d="M15.9981 20.4984C15.8573 20.4898 15.7171 20.5232 15.5953 20.5944C15.4736 20.6656 15.3756 20.7713 15.314 20.8981C15.2523 21.025 15.2297 21.1673 15.249 21.307C15.2683 21.4467 15.3286 21.5776 15.4223 21.683C15.516 21.7884 15.6389 21.8637 15.7754 21.8992C15.9119 21.9347 16.0559 21.9289 16.1891 21.8825C16.3223 21.8362 16.4388 21.7513 16.5237 21.6387C16.6086 21.5261 16.6582 21.3908 16.6662 21.25C16.6771 21.0618 16.6128 20.8769 16.4876 20.736C16.3623 20.5951 16.1863 20.5096 15.9981 20.4984Z" fill="white"/>
<path d="M18.6584 21.5117C18.7171 21.4072 18.8055 21.3224 18.9124 21.2682C18.9833 21.2321 19.0605 21.2102 19.1397 21.204C19.219 21.1978 19.2987 21.2072 19.3743 21.2318C19.4499 21.2564 19.5199 21.2957 19.5803 21.3474C19.6407 21.3991 19.6903 21.4622 19.7263 21.5331C19.7808 21.6399 19.8024 21.7604 19.7884 21.8795C19.7743 21.9986 19.7252 22.1108 19.6474 22.202C19.5695 22.2932 19.4664 22.3592 19.351 22.3917C19.2356 22.4242 19.1131 22.4218 18.9991 22.3847C18.8851 22.3476 18.7846 22.2775 18.7105 22.1833C18.6363 22.089 18.5918 21.9749 18.5825 21.8554C18.5732 21.7359 18.5996 21.6163 18.6584 21.5117Z" fill="white"/>
</g>
</g>
<defs>
<clipPath id="clip0_1859_903">
<rect width="32" height="32" fill="white"/>
</clipPath>
</defs>
</svg>
