<svg width="32" height="32" viewBox="0 0 32 32" fill="none" xmlns="http://www.w3.org/2000/svg">
<g id="currencies / currency-busd" clip-path="url(#clip0_1859_884)">
<g id="logo">
<path d="M32 16C32 24.8366 24.8366 32 16 32C7.16344 32 0 24.8366 0 16C0 7.16344 7.16344 0 16 0C24.8366 0 32 7.16344 32 16Z" fill="#F0B90B"/>
<path d="M23.5224 13.5L26 16.0298L16 26L13.5224 23.5298L23.5224 13.5ZM19.7612 9.75L22.2388 12.2798L12.2388 22.25L9.76119 19.7798L19.7612 9.75ZM8.47761 13.5L10.9552 16.0298L8.47761 18.5L6 16.0298L8.47761 13.5ZM16 6L18.4776 8.52976L12.2388 14.75L9.76119 12.2798L16 6Z" fill="white"/>
</g>
</g>
<defs>
<clipPath id="clip0_1859_884">
<rect width="32" height="32" fill="white"/>
</clipPath>
</defs>
</svg>
