<svg width="32" height="32" viewBox="0 0 32 32" fill="none" xmlns="http://www.w3.org/2000/svg">
<g id="currencies / currency-btc">
<g id="logo">
<path d="M32 16C32 24.8366 24.8366 32 16 32C7.16344 32 0 24.8366 0 16C0 7.16344 7.16344 0 16 0C24.8366 0 32 7.16344 32 16Z" fill="#F7931A"/>
<path d="M23.1453 14.4263C23.4593 12.3303 21.8623 11.2032 19.6803 10.4513L20.3883 7.61125L18.6603 7.18125L17.9703 9.94625C17.5163 9.83225 17.0503 9.72625 16.5853 9.62025L17.2803 6.83725L15.5523 6.40625L14.8443 9.24525C14.4683 9.15925 14.0983 9.07525 13.7403 8.98525L13.7423 8.97625L11.3583 8.38125L10.8983 10.2273C10.8983 10.2273 12.1813 10.5213 12.1543 10.5393C12.8543 10.7143 12.9803 11.1772 12.9593 11.5452L12.1533 14.7802C12.2013 14.7922 12.2633 14.8102 12.3333 14.8372L12.1503 14.7922L11.0203 19.3242C10.9343 19.5362 10.7173 19.8552 10.2273 19.7342C10.2453 19.7592 8.9713 19.4212 8.9713 19.4212L8.1133 21.3993L10.3633 21.9603C10.7813 22.0653 11.1913 22.1752 11.5943 22.2782L10.8793 25.1502L12.6063 25.5802L13.3143 22.7402C13.7863 22.8673 14.2443 22.9853 14.6923 23.0972L13.9863 25.9252L15.7143 26.3552L16.4293 23.4893C19.3773 24.0473 21.5933 23.8223 22.5263 21.1562C23.2783 19.0103 22.4893 17.7712 20.9383 16.9643C22.0683 16.7043 22.9183 15.9613 23.1453 14.4263ZM19.1953 19.9643C18.6623 22.1112 15.0473 20.9503 13.8753 20.6593L14.8253 16.8542C15.9973 17.1472 19.7543 17.7262 19.1953 19.9643ZM19.7303 14.3953C19.2433 16.3482 16.2353 15.3553 15.2603 15.1123L16.1203 11.6622C17.0953 11.9052 20.2383 12.3583 19.7303 14.3953Z" fill="white"/>
</g>
</g>
</svg>
