<svg width="32" height="32" viewBox="0 0 32 32" fill="none" xmlns="http://www.w3.org/2000/svg">
<g id="currencies / currency-link" clip-path="url(#clip0_1859_901)">
<g id="logo">
<path d="M32 16C32 24.8366 24.8366 32 16 32C7.16344 32 0 24.8366 0 16C0 7.16344 7.16344 0 16 0C24.8366 0 32 7.16344 32 16Z" fill="#2A5ADA"/>
<path d="M16.0041 6L14.1692 7.05505L9.16921 9.94495L7.33435 11V21L9.16921 22.055L14.2151 24.945L16.0499 26L17.8848 24.945L22.8389 22.055L24.6738 21V11L22.8389 9.94495L17.8389 7.05505L16.0041 6ZM11.0041 18.8899V13.1101L16.0041 10.2202L21.0041 13.1101V18.8899L16.0041 21.7798L11.0041 18.8899Z" fill="white"/>
</g>
</g>
<defs>
<clipPath id="clip0_1859_901">
<rect width="32" height="32" fill="white"/>
</clipPath>
</defs>
</svg>
