<svg width="32" height="32" viewBox="0 0 32 32" fill="none" xmlns="http://www.w3.org/2000/svg">
<g id="currencies / currency-xlm">
<g id="logo">
<path d="M32 16C32 24.8366 24.8366 32 16 32C7.16344 32 0 24.8366 0 16C0 7.16344 7.16344 0 16 0C24.8366 0 32 7.16344 32 16Z" fill="black"/>
<path d="M24 9.85081V11.2331L8 19.3861V18.0031L8.58149 17.7066C8.79792 17.5963 8.97689 17.4245 9.0959 17.2128C9.21491 17.001 9.26863 16.7588 9.2503 16.5166C9.23721 16.3455 9.23067 16.1738 9.23067 16.0014C9.23054 14.7532 9.57552 13.5293 10.2275 12.4649C10.8795 11.4005 11.813 10.5371 12.925 9.9701C14.037 9.4031 15.2841 9.1546 16.5285 9.25206C17.7729 9.34951 18.9661 9.78913 19.9763 10.5223L18.7091 11.1681C17.8661 10.6973 16.9148 10.4549 15.9493 10.4649C14.9839 10.4749 14.0378 10.737 13.2047 11.2252C12.3717 11.7133 11.6807 12.4106 11.2001 13.248C10.7195 14.0854 10.466 15.0339 10.4647 15.9994C10.4648 16.2414 10.4806 16.4831 10.5121 16.723L24 9.85081Z" fill="white"/>
<path d="M24 12.6168V13.995L23.4178 14.2915C23.2016 14.402 23.0228 14.5739 22.9039 14.7856C22.7851 14.9973 22.7314 15.2395 22.7497 15.4816C22.7626 15.6535 22.7693 15.8275 22.7693 16.0015C22.7689 17.2495 22.4235 18.4731 21.7713 19.5371C21.119 20.6012 20.1853 21.4641 19.0733 22.0308C17.9613 22.5974 16.7143 22.8455 15.4701 22.7478C14.2259 22.6501 13.0329 22.2104 12.023 21.4772L13.2185 20.8679L13.2862 20.8321C14.1293 21.3048 15.0814 21.5488 16.048 21.5398C17.0146 21.5309 17.9621 21.2693 18.7963 20.7809C19.6305 20.2926 20.3225 19.5946 20.8036 18.7562C21.2847 17.9178 21.5381 16.9681 21.5387 16.0015C21.5386 15.7579 21.5228 15.5146 21.4913 15.2731L8 22.1473V20.7657L24 12.6168Z" fill="white"/>
</g>
</g>
</svg>
