<svg width="32" height="32" viewBox="0 0 32 32" fill="none" xmlns="http://www.w3.org/2000/svg">
<g id="currencies / currency-dot" clip-path="url(#clip0_1859_894)">
<g id="logo">
<path d="M32 16C32 24.8366 24.8366 32 16 32C7.16344 32 0 24.8366 0 16C0 7.16344 7.16344 0 16 0C24.8366 0 32 7.16344 32 16Z" fill="#E6007A"/>
<path d="M20.3274 6.51969C20.3274 7.90974 18.3899 9.0366 15.9998 9.0366C13.6098 9.0366 11.6723 7.90974 11.6723 6.51969C11.6723 5.12964 13.6098 4.00278 15.9998 4.00278C18.3899 4.00278 20.3274 5.12964 20.3274 6.51969Z" fill="white"/>
<path d="M20.3274 25.4845C20.3274 26.8746 18.3899 28.0014 15.9998 28.0014C13.6098 28.0014 11.6723 26.8746 11.6723 25.4845C11.6723 24.0945 13.6098 22.9676 15.9998 22.9676C18.3899 22.9676 20.3274 24.0945 20.3274 25.4845Z" fill="white"/>
<path d="M9.96928 12.5208C11.1643 10.451 11.1566 8.20926 9.95196 7.51377C8.74736 6.81827 6.80207 7.93236 5.60704 10.0022C4.41201 12.0719 4.41977 14.3137 5.62437 15.0092C6.82897 15.7046 8.77425 14.5906 9.96928 12.5208Z" fill="white"/>
<path d="M26.3753 16.9953C27.5791 17.6904 27.5862 19.9317 26.3911 22.0015C25.1961 24.0713 23.2515 25.1858 22.0477 24.4907C20.8439 23.7957 20.8368 21.5544 22.0318 19.4846C23.2269 17.4148 25.1715 16.3003 26.3753 16.9953Z" fill="white"/>
<path d="M9.95245 24.4908C11.157 23.7953 11.1648 21.5536 9.96977 19.4838C8.77474 17.414 6.82945 16.2999 5.62486 16.9954C4.42026 17.6909 4.4125 19.9326 5.60753 22.0024C6.80256 24.0722 8.74785 25.1863 9.95245 24.4908Z" fill="white"/>
<path d="M26.3921 10.0031C27.5871 12.0729 27.58 14.3142 26.3763 15.0092C25.1725 15.7043 23.2279 14.5898 22.0328 12.52C20.8378 10.4502 20.8449 8.20888 22.0487 7.51385C23.2525 6.81883 25.1971 7.9333 26.3921 10.0031Z" fill="white"/>
</g>
</g>
<defs>
<clipPath id="clip0_1859_894">
<rect width="32" height="32" fill="white"/>
</clipPath>
</defs>
</svg>
