<svg width="32" height="32" viewBox="0 0 32 32" fill="none" xmlns="http://www.w3.org/2000/svg">
<g id="currencies / currency-single-collateral-dai" clip-path="url(#clip0_1859_871)">
<g id="logo">
<path d="M32 16C32 24.8366 24.8366 32 16 32C7.16344 32 0 24.8366 0 16C0 7.16344 7.16344 0 16 0C24.8366 0 32 7.16344 32 16Z" fill="#F5AC37"/>
<path d="M31 16C31 24.2843 24.2843 31 16 31C7.71573 31 1 24.2843 1 16C1 7.71573 7.71573 1 16 1C24.2843 1 31 7.71573 31 16Z" fill="white"/>
<path d="M6 16H16V26L6 16Z" fill="#FFCC80"/>
<path d="M16 9V6L6 16L16 19V13L13 16H9L16 9Z" fill="#F7B14A"/>
<path d="M26 16H16V26L26 16Z" fill="#F7C57B"/>
<path d="M16 9V6L26 16L16 19V13L19 16H23L16 9Z" fill="#F7B14A"/>
</g>
</g>
<defs>
<clipPath id="clip0_1859_871">
<rect width="32" height="32" fill="white"/>
</clipPath>
</defs>
</svg>
