<svg width="32" height="32" viewBox="0 0 32 32" fill="none" xmlns="http://www.w3.org/2000/svg">
<g id="currencies / currency-dash" clip-path="url(#clip0_1859_892)">
<g id="logo">
<path d="M32 16C32 24.8366 24.8366 32 16 32C7.16344 32 0 24.8366 0 16C0 7.16344 7.16344 0 16 0C24.8366 0 32 7.16344 32 16Z" fill="#4165A5"/>
<path fill-rule="evenodd" clip-rule="evenodd" d="M22.8894 20.2213C23.54 19.0184 23.8653 17.6076 23.8653 15.9887C23.8653 14.3546 23.54 12.9362 22.8894 11.7333C22.2388 10.5305 21.2819 9.60757 20.0185 8.96454C18.7552 8.32151 17.2384 8 15.4682 8H10.3845V13.2604H8.13V15.064H10.3845V24H15.4682C17.2384 24 18.7552 23.6709 20.0185 23.0128C21.2819 22.3546 22.2388 21.4241 22.8894 20.2213ZM12.4497 15.064V22.139H15.3093C17.3973 22.139 18.9935 21.6019 20.0979 20.5277C21.2024 19.4534 21.7547 17.9404 21.7547 15.9887C21.7547 14.0369 21.2062 12.5201 20.1093 11.4383C19.0124 10.3565 17.4124 9.8156 15.3093 9.8156H12.4497V13.2604H16.5467V15.064H12.4497Z" fill="white"/>
</g>
</g>
<defs>
<clipPath id="clip0_1859_892">
<rect width="32" height="32" fill="white"/>
</clipPath>
</defs>
</svg>
