<svg width="32" height="32" viewBox="0 0 32 32" fill="none" xmlns="http://www.w3.org/2000/svg">
<g id="currencies / currency-idk" clip-path="url(#clip0_1859_882)">
<g id="logo">
<path d="M32 16C32 24.8366 24.8366 32 16 32C7.16344 32 0 24.8366 0 16C0 7.16344 7.16344 0 16 0C24.8366 0 32 7.16344 32 16Z" fill="white"/>
<path d="M12.2441 12.3319V3.64825C8.09198 4.91022 4.85623 8.16959 3.62386 12.3319H12.2441ZM15.3353 14.4777C16.0904 13.7226 18.1778 11.6351 23.9626 5.85033C21.6945 4.06776 18.8852 3.09128 15.9999 3.09128C15.7891 3.09128 15.5694 3.09784 15.3353 3.11094V14.4777ZM3.10654 15.4227C3.09616 15.628 3.0912 15.8169 3.0912 15.9998C3.0912 18.8853 4.06773 21.6945 5.85019 23.9628L12.2441 17.5688V15.4227H3.10654ZM8.03817 26.1505C10.3064 27.9324 13.1152 28.9087 15.9999 28.9087C23.1178 28.9087 28.9087 23.1178 28.9087 15.9998C28.9087 13.1151 27.9325 10.3063 26.1505 8.03848L8.03817 26.1505ZM16 32C12.2933 32 8.70395 30.7103 5.84577 28.3598L5.83835 28.3676L5.52339 28.0991C4.90286 27.5658 4.34504 26.9741 4.17578 26.7912L4.16246 26.7771C4.10672 26.7166 4.05832 26.6631 4.01719 26.6161L4.00661 26.6045C3.94909 26.5387 3.91124 26.4937 3.88755 26.4635L3.73383 26.267C1.32404 23.3906 0 19.7555 0 16C0 7.17766 7.17766 0 16 0C19.725 0 23.3314 1.30247 26.1967 3.6751L26.2058 3.66791L26.4775 3.9001C26.6286 4.02928 26.7685 4.15636 26.903 4.28134C27.5671 4.89795 28.0131 5.4196 28.0873 5.50778L28.1232 5.54499L28.1283 5.55516L28.2926 5.74185L28.2853 5.75583C30.6831 8.62867 32 12.2545 32 16C32 24.8226 24.8225 32 16 32Z" fill="#EE3549"/>
</g>
</g>
<defs>
<clipPath id="clip0_1859_882">
<rect width="32" height="32" fill="white"/>
</clipPath>
</defs>
</svg>
