<svg width="32" height="32" viewBox="0 0 32 32" fill="none" xmlns="http://www.w3.org/2000/svg">
<g id="currencies / currency-avax">
<g id="logo">
<path d="M32 16C32 24.8366 24.8366 32 16 32C7.16344 32 0 24.8366 0 16C0 7.16344 7.16344 0 16 0C24.8366 0 32 7.16344 32 16Z" fill="#E84142"/>
<path d="M8.30637 23.185H11.4074C12.1375 23.185 12.5026 23.185 12.8284 23.0948C13.1856 22.9886 13.5114 22.8003 13.7822 22.5411C14.1255 22.2141 14.3432 21.7578 14.5752 21.3518L18.5971 14.2422C18.9543 13.6181 19.1309 13.304 19.2095 12.9743C19.2958 12.6171 19.2958 12.2402 19.2095 11.883C19.1315 11.5558 18.9531 11.244 18.6012 10.6292L17.0191 7.86742C16.6933 7.29431 16.5284 7.00776 16.3204 6.90178C16.0966 6.78795 15.8297 6.78795 15.606 6.90178C15.3979 7.00776 15.2331 7.29431 14.9073 7.86742L7.25045 21.3636C6.92858 21.9288 6.76762 22.2116 6.77941 22.4431C6.79511 22.6943 6.92465 22.922 7.13663 23.0594C7.33288 23.185 7.65475 23.185 8.30637 23.185Z" fill="white"/>
<path d="M23.6819 23.185H19.2385C18.583 23.185 18.2532 23.185 18.0609 23.0594C17.8489 22.922 17.7194 22.6905 17.7037 22.4392C17.692 22.2095 17.8542 21.9294 18.1788 21.3691L20.4043 17.5482C20.7301 16.9869 20.895 16.7082 21.0991 16.6022C21.3228 16.4884 21.5859 16.4884 21.8096 16.6022C22.0122 16.7054 22.17 16.9723 22.4825 17.5007L24.7662 21.4072C25.0746 21.9396 25.2321 22.2114 25.2208 22.4354C25.2089 22.6865 25.0755 22.9182 24.8636 23.0556C24.6672 23.185 24.3374 23.185 23.6819 23.185Z" fill="white"/>
</g>
</g>
</svg>
