<svg width="32" height="32" viewBox="0 0 32 32" fill="none" xmlns="http://www.w3.org/2000/svg">
<g id="currencies / currency-pax" clip-path="url(#clip0_1859_872)">
<g id="logo">
<path d="M32 16C32 24.8366 24.8366 32 16 32C7.16344 32 0 24.8366 0 16C0 7.16344 7.16344 0 16 0C24.8366 0 32 7.16344 32 16Z" fill="#F2F3F4"/>
<path d="M9.78469 23.4003C11.0458 24.837 12.8298 25.7087 14.7382 25.8208C15.867 25.7609 16.932 25.2786 17.7216 24.4698C19.2792 23.1358 20.9145 21.8952 22.6189 20.7546L23.5759 20.3606C23.9699 20.1917 24.6454 19.7977 25.2646 19.0659C25.9401 18.1653 26.0526 17.2083 26.0526 16.8706C25.9778 15.8054 25.6287 14.7777 25.0394 13.8872C21.9139 19.4564 16.161 23.044 9.78469 23.4003Z" fill="#0293D6"/>
<path d="M11.9237 7.41381C12.7729 6.5168 13.9533 6.00801 15.1886 6.00655C15.9708 5.95417 16.7414 6.21778 17.3276 6.73832C18.9423 7.88221 20.8655 8.51021 22.8441 8.53962C23.3507 8.59591 24.3639 8.76478 25.0394 9.60913C25.546 10.2846 25.6023 11.0164 25.6023 11.3541C25.557 12.2239 25.3667 13.0801 25.0394 13.8872L11.9237 7.41381Z" fill="#EBE638"/>
<path d="M9.78469 23.4003C9.27808 23.344 8.60259 23.1751 7.81452 22.8374C7.02646 22.4996 6.06952 22.1056 5.45032 21.0361C5.05629 20.3606 5 19.6851 5 19.2348C5.01374 18.0405 5.30268 16.8655 5.84436 15.8011C6.38328 14.4854 6.743 13.1033 6.91388 11.6919L7.19533 10.5661C7.3642 10.0032 7.47678 9.44026 7.87081 8.87736L8.49001 8.20187C9.51271 7.55888 10.723 7.28111 11.9237 7.41381C8.66127 12.0808 7.86394 18.0398 9.78469 23.4003Z" fill="#BAD147"/>
<path d="M11.9237 7.41381C11.8674 7.41381 14.9634 7.58268 16.8773 8.25816L18.4534 8.93365C17.8342 8.87736 13.8939 8.70849 10.9105 11.6919C7.13904 15.5196 8.37743 20.7546 8.43372 21.0361C7.55972 19.9365 7.11913 18.5546 7.19533 17.1521C7.34514 13.3888 9.05908 9.85889 11.9237 7.41381Z" fill="#78B650"/>
<path d="M19.4666 21.3176C21.6437 17.3601 21.2448 12.4846 18.4534 8.93365C20.0839 9.20626 21.5837 9.9956 22.7315 11.1853C23.407 11.7482 24.2513 12.5925 25.0394 13.8872C23.9264 16.8436 21.9932 19.4213 19.4666 21.3176Z" fill="#2F8260"/>
<path d="M21.2679 11.4104C20.3673 9.89059 19.0726 9.2151 18.5097 8.93365C18.0594 8.82107 13.8376 8.14558 10.629 11.2416C8.03968 13.7183 7.87081 16.9269 7.87081 17.5461C7.88273 19.6675 8.59513 21.7255 9.89727 23.4003C11.5706 23.7225 13.2901 23.7225 14.9634 23.4003C15.8078 23.2314 17.7779 22.8937 19.4666 21.4301C19.6918 21.205 22.1686 18.8971 22.3375 15.2382C22.3375 14.619 22.3375 13.0429 21.2679 11.4104ZM19.2415 19.5725C18.1846 20.7222 16.6939 21.3757 15.1323 21.3738C14.7945 21.3738 12.5429 21.3176 10.9668 19.46C10.7416 19.1785 9.61582 17.8275 9.67211 15.8011C9.78469 13.0991 11.9237 11.523 12.3741 11.1853C12.7681 10.9038 13.725 10.2846 15.1323 10.2283C15.47 10.172 16.6521 10.1157 17.8342 10.7912C20.4236 12.1985 20.5362 15.5759 20.5362 15.8011C20.5362 16.4203 20.5362 18.109 19.2415 19.5725Z" fill="#085229"/>
</g>
</g>
<defs>
<clipPath id="clip0_1859_872">
<rect width="32" height="32" fill="white"/>
</clipPath>
</defs>
</svg>
