<svg width="24" height="36" viewBox="0 0 24 36" fill="none" xmlns="http://www.w3.org/2000/svg">
<g id="label-paired / xl / chevrons-down-xl / bold" clip-path="url(#clip0_1731_5933)">
<path id="icon" d="M11.2031 27.7969L2.20312 18.7969C1.76562 18.2656 1.76562 17.7344 2.20312 17.2031C2.73438 16.7656 3.26562 16.7656 3.79688 17.2031L12 25.4062L20.2031 17.2031C20.7344 16.7656 21.2656 16.7656 21.7969 17.2031C22.2344 17.7344 22.2344 18.2656 21.7969 18.7969L12.7969 27.7969C12.2656 28.2344 11.7344 28.2344 11.2031 27.7969ZM2.20312 9.79688C1.76562 9.26562 1.76562 8.73438 2.20312 8.20312C2.73438 7.76563 3.26562 7.76563 3.79688 8.20312L12 16.4062L20.2031 8.20312C20.7344 7.76563 21.2656 7.76563 21.7969 8.20312C22.2344 8.73438 22.2344 9.26562 21.7969 9.79688L12.7969 18.7969C12.2656 19.2344 11.7344 19.2344 11.2031 18.7969L2.20312 9.79688Z" fill="black" fill-opacity="0.72"/>
</g>
<defs>
<clipPath id="clip0_1731_5933">
<rect width="24" height="36" fill="white"/>
</clipPath>
</defs>
</svg>
