<svg width="10" height="24" viewBox="0 0 10 24" fill="none" xmlns="http://www.w3.org/2000/svg">
<g id="label-paired / md / three-md / regular" clip-path="url(#clip0_1731_3521)">
<path id="icon" d="M0 5.5C0.0208333 5.1875 0.1875 5.02083 0.5 5H9C9.22917 5 9.38542 5.10417 9.46875 5.3125C9.53125 5.52083 9.48958 5.70833 9.34375 5.875L3.78125 11H6C7.125 11.0208 8.07292 11.4062 8.84375 12.1562C9.59375 12.9271 9.97917 13.875 10 15C9.97917 16.125 9.59375 17.0729 8.84375 17.8438C8.07292 18.5938 7.125 18.9792 6 19H2.78125C2.21875 19 1.69792 18.8542 1.21875 18.5625C0.739583 18.2708 0.375 17.8646 0.125 17.3438L0.0625 17.2188C-0.0625 16.9271 0.0104167 16.7083 0.28125 16.5625C0.552083 16.4375 0.770833 16.5104 0.9375 16.7812L1 16.9062C1.39583 17.6146 1.98958 17.9792 2.78125 18H6C6.85417 17.9792 7.5625 17.6875 8.125 17.125C8.6875 16.5625 8.97917 15.8542 9 15C8.97917 14.1458 8.6875 13.4375 8.125 12.875C7.5625 12.3125 6.85417 12.0208 6 12H2.5C2.27083 12 2.11458 11.8958 2.03125 11.6875C1.96875 11.4792 2.01042 11.2917 2.15625 11.125L7.71875 6H0.5C0.1875 5.97917 0.0208333 5.8125 0 5.5Z" fill="black" fill-opacity="0.72"/>
</g>
<defs>
<clipPath id="clip0_1731_3521">
<rect width="10" height="24" fill="white"/>
</clipPath>
</defs>
</svg>
