<svg width="15" height="30" viewBox="0 0 15 30" fill="none" xmlns="http://www.w3.org/2000/svg">
<g id="label-paired / lg / arrow-up-lg / bold" clip-path="url(#clip0_1731_4304)">
<path id="icon" d="M8.16406 7.02344V7.0625L14.7266 13.9375C15.0911 14.3802 15.0911 14.8099 14.7266 15.2266C14.2578 15.5911 13.8151 15.5911 13.3984 15.2266L8.4375 10.0312V23.3125C8.38542 23.8854 8.07292 24.1979 7.5 24.25C6.92708 24.1979 6.61458 23.8854 6.5625 23.3125V10.0312L1.60156 15.1875C1.1849 15.5781 0.742188 15.5911 0.273438 15.2266C-0.0911458 14.8099 -0.0911458 14.3672 0.273438 13.8984L6.83594 7.02344C7.01823 6.84115 7.23958 6.75 7.5 6.75C7.76042 6.75 7.98177 6.84115 8.16406 7.02344Z" fill="black" fill-opacity="0.72"/>
</g>
<defs>
<clipPath id="clip0_1731_4304">
<rect width="15" height="30" fill="white"/>
</clipPath>
</defs>
</svg>
