<svg width="20" height="30" viewBox="0 0 20 30" fill="none" xmlns="http://www.w3.org/2000/svg">
<g id="label-paired / lg / chart-mixed-lg / bold" clip-path="url(#clip0_1731_4717)">
<path id="icon" d="M19.6875 8.39062L13.125 14.0156C12.7083 14.3281 12.2917 14.3281 11.875 14.0156L7.42188 10.1094L1.44531 14.0938C0.950521 14.3542 0.520833 14.263 0.15625 13.8203C-0.104167 13.3255 -0.0130208 12.8958 0.429688 12.5312L6.99219 8.15625C7.38281 7.92188 7.76042 7.94792 8.125 8.23438L12.5 12.0625L18.4375 6.98438C18.9062 6.64583 19.349 6.67188 19.7656 7.0625C20.1042 7.53125 20.0781 7.97396 19.6875 8.39062ZM7.8125 22.375V16.125C7.78646 15.9427 7.68229 15.8385 7.5 15.8125C7.31771 15.8385 7.21354 15.9427 7.1875 16.125V22.375C7.21354 22.5573 7.31771 22.6615 7.5 22.6875C7.68229 22.6615 7.78646 22.5573 7.8125 22.375ZM7.5 14.25C8.02083 14.276 8.46354 14.4583 8.82812 14.7969C9.16667 15.1615 9.34896 15.6042 9.375 16.125V22.375C9.34896 22.8958 9.16667 23.3385 8.82812 23.7031C8.46354 24.0417 8.02083 24.224 7.5 24.25C6.97917 24.224 6.53646 24.0417 6.17188 23.7031C5.83333 23.3385 5.65104 22.8958 5.625 22.375V16.125C5.65104 15.6042 5.83333 15.1615 6.17188 14.7969C6.53646 14.4583 6.97917 14.276 7.5 14.25ZM2.8125 22.375V19.875C2.78646 19.6927 2.68229 19.5885 2.5 19.5625C2.31771 19.5885 2.21354 19.6927 2.1875 19.875V22.375C2.21354 22.5573 2.31771 22.6615 2.5 22.6875C2.68229 22.6615 2.78646 22.5573 2.8125 22.375ZM2.5 18C3.02083 18.026 3.46354 18.2083 3.82812 18.5469C4.16667 18.9115 4.34896 19.3542 4.375 19.875V22.375C4.34896 22.8958 4.16667 23.3385 3.82812 23.7031C3.46354 24.0417 3.02083 24.224 2.5 24.25C1.97917 24.224 1.53646 24.0417 1.17188 23.7031C0.833333 23.3385 0.651042 22.8958 0.625 22.375V19.875C0.651042 19.3542 0.833333 18.9115 1.17188 18.5469C1.53646 18.2083 1.97917 18.026 2.5 18ZM12.8125 18.625C12.7865 18.4427 12.6823 18.3385 12.5 18.3125C12.3177 18.3385 12.2135 18.4427 12.1875 18.625V22.375C12.2135 22.5573 12.3177 22.6615 12.5 22.6875C12.6823 22.6615 12.7865 22.5573 12.8125 22.375V18.625ZM10.625 18.625C10.651 18.1042 10.8333 17.6615 11.1719 17.2969C11.5365 16.9583 11.9792 16.776 12.5 16.75C13.0208 16.776 13.4635 16.9583 13.8281 17.2969C14.1667 17.6615 14.349 18.1042 14.375 18.625V22.375C14.349 22.8958 14.1667 23.3385 13.8281 23.7031C13.4635 24.0417 13.0208 24.224 12.5 24.25C11.9792 24.224 11.5365 24.0417 11.1719 23.7031C10.8333 23.3385 10.651 22.8958 10.625 22.375V18.625ZM17.8125 22.375V16.125C17.7865 15.9427 17.6823 15.8385 17.5 15.8125C17.3177 15.8385 17.2135 15.9427 17.1875 16.125V22.375C17.2135 22.5573 17.3177 22.6615 17.5 22.6875C17.6823 22.6615 17.7865 22.5573 17.8125 22.375ZM17.5 14.25C18.0208 14.276 18.4635 14.4583 18.8281 14.7969C19.1667 15.1615 19.349 15.6042 19.375 16.125V22.375C19.349 22.8958 19.1667 23.3385 18.8281 23.7031C18.4635 24.0417 18.0208 24.224 17.5 24.25C16.9792 24.224 16.5365 24.0417 16.1719 23.7031C15.8333 23.3385 15.651 22.8958 15.625 22.375V16.125C15.651 15.6042 15.8333 15.1615 16.1719 14.7969C16.5365 14.4583 16.9792 14.276 17.5 14.25Z" fill="black" fill-opacity="0.72"/>
</g>
<defs>
<clipPath id="clip0_1731_4717">
<rect width="20" height="30" fill="white"/>
</clipPath>
</defs>
</svg>
