<svg width="12" height="18" viewBox="0 0 12 18" fill="none" xmlns="http://www.w3.org/2000/svg">
<g id="label-paired / caption / right-to-bracket-caption / bold" clip-path="url(#clip0_1731_681)">
<path id="icon" d="M4.5 12.0781L7.07812 9.5L4.5 6.92188V8.1875C4.46875 8.53125 4.28125 8.71875 3.9375 8.75H1.125V10.25H3.9375C4.28125 10.2812 4.46875 10.4688 4.5 10.8125V12.0781ZM8.25 9.5C8.25 9.78125 8.14844 10.0234 7.94531 10.2266L5.22656 12.9219C5.02344 13.1406 4.76562 13.25 4.45312 13.25C4.15625 13.25 3.90625 13.1406 3.70312 12.9219C3.5 12.7188 3.39062 12.4688 3.375 12.1719V11.375H1.125C0.8125 11.3594 0.546875 11.25 0.328125 11.0469C0.125 10.8281 0.015625 10.5625 0 10.25V8.75C0.015625 8.4375 0.125 8.17188 0.328125 7.95312C0.546875 7.75 0.8125 7.64062 1.125 7.625H3.375V6.82812C3.39062 6.53125 3.5 6.28125 3.70312 6.07812C3.90625 5.85938 4.15625 5.75 4.45312 5.75C4.75 5.75 5.00781 5.85938 5.22656 6.07812L7.94531 8.77344C8.14844 8.97656 8.25 9.21875 8.25 9.5ZM8.0625 13.625H9.9375C10.2031 13.625 10.4219 13.5312 10.5938 13.3438C10.7812 13.1719 10.875 12.9531 10.875 12.6875V6.3125C10.875 6.04688 10.7812 5.82812 10.5938 5.65625C10.4219 5.46875 10.2031 5.375 9.9375 5.375H8.0625C7.71875 5.34375 7.53125 5.15625 7.5 4.8125C7.53125 4.46875 7.71875 4.28125 8.0625 4.25H9.9375C10.5156 4.26562 11 4.46875 11.3906 4.85938C11.7812 5.25 11.9844 5.73438 12 6.3125V12.6875C11.9844 13.2656 11.7812 13.75 11.3906 14.1406C11 14.5312 10.5156 14.7344 9.9375 14.75H8.0625C7.71875 14.7188 7.53125 14.5312 7.5 14.1875C7.53125 13.8438 7.71875 13.6562 8.0625 13.625Z" fill="black" fill-opacity="0.72"/>
</g>
<defs>
<clipPath id="clip0_1731_681">
<rect width="12" height="18" fill="white"/>
</clipPath>
</defs>
</svg>
