<svg width="18" height="30" viewBox="0 0 18 30" fill="none" xmlns="http://www.w3.org/2000/svg">
<g id="label-paired / lg / compress-lg / bold" clip-path="url(#clip0_1731_5316)">
<path id="icon" d="M6.5 7.6875V12.0625C6.44792 12.6354 6.13542 12.9479 5.5625 13H1.1875C0.614583 12.9479 0.302083 12.6354 0.25 12.0625C0.302083 11.4896 0.614583 11.1771 1.1875 11.125H4.625V7.6875C4.67708 7.11458 4.98958 6.80208 5.5625 6.75C6.13542 6.80208 6.44792 7.11458 6.5 7.6875ZM1.1875 18H5.5625C6.13542 18.0521 6.44792 18.3646 6.5 18.9375V23.3125C6.44792 23.8854 6.13542 24.1979 5.5625 24.25C4.98958 24.1979 4.67708 23.8854 4.625 23.3125V19.875H1.1875C0.614583 19.8229 0.302083 19.5104 0.25 18.9375C0.302083 18.3646 0.614583 18.0521 1.1875 18ZM13.375 7.6875V11.125H16.8125C17.3854 11.1771 17.6979 11.4896 17.75 12.0625C17.6979 12.6354 17.3854 12.9479 16.8125 13H12.4375C11.8646 12.9479 11.5521 12.6354 11.5 12.0625V7.6875C11.5521 7.11458 11.8646 6.80208 12.4375 6.75C13.0104 6.80208 13.3229 7.11458 13.375 7.6875ZM12.4375 18H16.8125C17.3854 18.0521 17.6979 18.3646 17.75 18.9375C17.6979 19.5104 17.3854 19.8229 16.8125 19.875H13.375V23.3125C13.3229 23.8854 13.0104 24.1979 12.4375 24.25C11.8646 24.1979 11.5521 23.8854 11.5 23.3125V18.9375C11.5521 18.3646 11.8646 18.0521 12.4375 18Z" fill="black" fill-opacity="0.72"/>
</g>
<defs>
<clipPath id="clip0_1731_5316">
<rect width="18" height="30" fill="white"/>
</clipPath>
</defs>
</svg>
