<svg width="11" height="22" viewBox="0 0 11 22" fill="none" xmlns="http://www.w3.org/2000/svg">
<g id="label-paired / sm / percent-sm / bold" clip-path="url(#clip0_1731_2741)">
<path id="icon" d="M10.3398 6.83984L1.58984 15.5898C1.27995 15.8451 0.970052 15.8451 0.660156 15.5898C0.404948 15.2799 0.404948 14.9701 0.660156 14.6602L9.41016 5.91016C9.72005 5.65495 10.0299 5.65495 10.3398 5.91016C10.5951 6.22005 10.5951 6.52995 10.3398 6.83984ZM3.3125 7.25C3.29427 7.74219 3.07552 8.125 2.65625 8.39844C2.21875 8.61719 1.78125 8.61719 1.34375 8.39844C0.924479 8.125 0.705729 7.74219 0.6875 7.25C0.705729 6.75781 0.924479 6.375 1.34375 6.10156C1.78125 5.88281 2.21875 5.88281 2.65625 6.10156C3.07552 6.375 3.29427 6.75781 3.3125 7.25ZM10.3125 14.25C10.2943 14.7422 10.0755 15.125 9.65625 15.3984C9.21875 15.6172 8.78125 15.6172 8.34375 15.3984C7.92448 15.125 7.70573 14.7422 7.6875 14.25C7.70573 13.7578 7.92448 13.375 8.34375 13.1016C8.78125 12.8828 9.21875 12.8828 9.65625 13.1016C10.0755 13.375 10.2943 13.7578 10.3125 14.25Z" fill="black" fill-opacity="0.72"/>
</g>
<defs>
<clipPath id="clip0_1731_2741">
<rect width="11" height="22" fill="white"/>
</clipPath>
</defs>
</svg>
