<svg width="14" height="18" viewBox="0 0 14 18" fill="none" xmlns="http://www.w3.org/2000/svg">
<g id="label-paired / caption / eye-caption / regular" clip-path="url(#clip0_1731_624)">
<path id="icon" d="M2.99219 6.6875C2.49219 7.17188 2.07031 7.66406 1.72656 8.16406C1.39844 8.66406 1.15625 9.10938 1 9.5C1.15625 9.89062 1.39844 10.3359 1.72656 10.8359C2.07031 11.3359 2.49219 11.8281 2.99219 12.3125C3.50781 12.7969 4.09375 13.1953 4.75 13.5078C5.42188 13.8203 6.17188 13.9844 7 14C7.82812 13.9844 8.57812 13.8203 9.25 13.5078C9.90625 13.1953 10.4922 12.7969 11.0078 12.3125C11.5078 11.8281 11.9297 11.3359 12.2734 10.8359C12.6016 10.3359 12.8438 9.89062 13 9.5C12.8438 9.10938 12.6016 8.66406 12.2734 8.16406C11.9297 7.66406 11.5078 7.17188 11.0078 6.6875C10.4922 6.20312 9.90625 5.80469 9.25 5.49219C8.57812 5.17969 7.82812 5.01562 7 5C6.17188 5.01562 5.42188 5.17969 4.75 5.49219C4.09375 5.80469 3.50781 6.20312 2.99219 6.6875ZM7 4.25C7.95312 4.26562 8.80469 4.45312 9.55469 4.8125C10.3047 5.17188 10.9609 5.61719 11.5234 6.14844C12.0703 6.66406 12.5234 7.19531 12.8828 7.74219C13.2422 8.28906 13.5156 8.78125 13.7031 9.21875C13.7812 9.40625 13.7812 9.59375 13.7031 9.78125C13.5156 10.2188 13.2422 10.7109 12.8828 11.2578C12.5234 11.8047 12.0703 12.3359 11.5234 12.8516C10.9609 13.3828 10.3047 13.8281 9.55469 14.1875C8.80469 14.5469 7.95312 14.7344 7 14.75C6.04688 14.7344 5.19531 14.5469 4.44531 14.1875C3.69531 13.8281 3.03906 13.3828 2.47656 12.8516C1.92969 12.3359 1.47656 11.8047 1.11719 11.2578C0.757812 10.7109 0.492188 10.2188 0.320312 9.78125C0.242188 9.59375 0.242188 9.40625 0.320312 9.21875C0.492188 8.78125 0.757812 8.28906 1.11719 7.74219C1.47656 7.19531 1.92969 6.66406 2.47656 6.14844C3.03906 5.61719 3.69531 5.17188 4.44531 4.8125C5.19531 4.45312 6.04688 4.26562 7 4.25ZM4.75 9.5C4.75 9.90625 4.85156 10.2812 5.05469 10.625C5.25781 10.9688 5.53125 11.2422 5.875 11.4453C6.23438 11.6484 6.60938 11.75 7 11.75C7.39062 11.75 7.76562 11.6484 8.125 11.4453C8.46875 11.2422 8.74219 10.9688 8.94531 10.625C9.14844 10.2812 9.25 9.90625 9.25 9.5C9.25 9.09375 9.14844 8.71875 8.94531 8.375C8.74219 8.03125 8.46875 7.75781 8.125 7.55469C7.76562 7.35156 7.39062 7.25 7 7.25C6.60938 7.25 6.23438 7.35156 5.875 7.55469C5.53125 7.75781 5.25781 8.03125 5.05469 8.375C4.85156 8.71875 4.75 9.09375 4.75 9.5ZM10 9.5C10 10.0469 9.86719 10.5469 9.60156 11C9.33594 11.4531 8.96875 11.8203 8.5 12.1016C8.03125 12.3672 7.53125 12.5 7 12.5C6.46875 12.5 5.96875 12.3672 5.5 12.1016C5.03125 11.8203 4.66406 11.4531 4.39844 11C4.13281 10.5469 4 10.0469 4 9.5C4 8.95312 4.13281 8.45312 4.39844 8C4.66406 7.54688 5.03125 7.17969 5.5 6.89844C5.96875 6.63281 6.46875 6.5 7 6.5C7.53125 6.5 8.03125 6.63281 8.5 6.89844C8.96875 7.17969 9.33594 7.54688 9.60156 8C9.86719 8.45312 10 8.95312 10 9.5Z" fill="black" fill-opacity="0.72"/>
</g>
<defs>
<clipPath id="clip0_1731_624">
<rect width="14" height="18" fill="white"/>
</clipPath>
</defs>
</svg>
