<svg width="13" height="30" viewBox="0 0 13 30" fill="none" xmlns="http://www.w3.org/2000/svg">
<g id="label-paired / lg / nine-lg / regular" clip-path="url(#clip0_1731_4508)">
<path id="icon" d="M1.5 13C1.52604 14.4062 2.00781 15.5911 2.94531 16.5547C3.90885 17.4922 5.09375 17.974 6.5 18C7.90625 17.974 9.07812 17.5052 10.0156 16.5938C10.9271 15.6562 11.4219 14.4974 11.5 13.1172C11.5 13.0911 11.5 13.0781 11.5 13.0781C11.5 13.0521 11.5 13.026 11.5 13C11.474 11.5938 10.9922 10.4089 10.0547 9.44531C9.09115 8.50781 7.90625 8.02604 6.5 8C5.09375 8.02604 3.90885 8.50781 2.94531 9.44531C2.00781 10.4089 1.52604 11.5938 1.5 13ZM7.78906 19.1328C7.3724 19.2109 6.94271 19.25 6.5 19.25C4.72917 19.1979 3.25781 18.5859 2.08594 17.4141C0.914062 16.2422 0.302083 14.7708 0.25 13C0.302083 11.2292 0.914062 9.75781 2.08594 8.58594C3.25781 7.41406 4.72917 6.80208 6.5 6.75C8.27083 6.80208 9.74219 7.41406 10.9141 8.58594C12.0859 9.75781 12.6979 11.2292 12.75 13C12.75 13.0781 12.75 13.1562 12.75 13.2344C12.6719 14.7448 12.138 16.0859 11.1484 17.2578L5.09375 24.0547C4.80729 24.3151 4.50781 24.3281 4.19531 24.0938C3.9349 23.8073 3.92188 23.5078 4.15625 23.1953L7.78906 19.1328Z" fill="black" fill-opacity="0.72"/>
</g>
<defs>
<clipPath id="clip0_1731_4508">
<rect width="13" height="30" fill="white"/>
</clipPath>
</defs>
</svg>
