<svg width="18" height="30" viewBox="0 0 18 30" fill="none" xmlns="http://www.w3.org/2000/svg">
<g id="label-paired / lg / compress-lg / regular" clip-path="url(#clip0_1731_5314)">
<path id="icon" d="M6.5 7.375V12.375C6.47396 12.7656 6.26562 12.974 5.875 13H0.875C0.484375 12.974 0.276042 12.7656 0.25 12.375C0.276042 11.9844 0.484375 11.776 0.875 11.75H5.25V7.375C5.27604 6.98438 5.48438 6.77604 5.875 6.75C6.26562 6.77604 6.47396 6.98438 6.5 7.375ZM0.875 18H5.875C6.26562 18.026 6.47396 18.2344 6.5 18.625V23.625C6.47396 24.0156 6.26562 24.224 5.875 24.25C5.48438 24.224 5.27604 24.0156 5.25 23.625V19.25H0.875C0.484375 19.224 0.276042 19.0156 0.25 18.625C0.276042 18.2344 0.484375 18.026 0.875 18ZM12.75 7.375V11.75H17.125C17.5156 11.776 17.724 11.9844 17.75 12.375C17.724 12.7656 17.5156 12.974 17.125 13H12.125C11.7344 12.974 11.526 12.7656 11.5 12.375V7.375C11.526 6.98438 11.7344 6.77604 12.125 6.75C12.5156 6.77604 12.724 6.98438 12.75 7.375ZM12.125 18H17.125C17.5156 18.026 17.724 18.2344 17.75 18.625C17.724 19.0156 17.5156 19.224 17.125 19.25H12.75V23.625C12.724 24.0156 12.5156 24.224 12.125 24.25C11.7344 24.224 11.526 24.0156 11.5 23.625V18.625C11.526 18.2344 11.7344 18.026 12.125 18Z" fill="black" fill-opacity="0.72"/>
</g>
<defs>
<clipPath id="clip0_1731_5314">
<rect width="18" height="30" fill="white"/>
</clipPath>
</defs>
</svg>
