<svg width="16" height="24" viewBox="0 0 16 24" fill="none" xmlns="http://www.w3.org/2000/svg">
<g id="label-paired / md / chevrons-down-md / regular" clip-path="url(#clip0_1731_3415)">
<path id="icon" d="M1.65625 6.34375C1.44792 6.11458 1.44792 5.88542 1.65625 5.65625C1.88542 5.44792 2.11458 5.44792 2.34375 5.65625L8 11.2812L13.6562 5.65625C13.8854 5.44792 14.1146 5.44792 14.3438 5.65625C14.5521 5.88542 14.5521 6.11458 14.3438 6.34375L8.34375 12.3438C8.11458 12.5521 7.88542 12.5521 7.65625 12.3438L1.65625 6.34375ZM1.65625 12.3438C1.44792 12.1146 1.44792 11.8854 1.65625 11.6562C1.88542 11.4479 2.11458 11.4479 2.34375 11.6562L8 17.2812L13.6562 11.6562C13.8854 11.4479 14.1146 11.4479 14.3438 11.6562C14.5521 11.8854 14.5521 12.1146 14.3438 12.3438L8.34375 18.3438C8.11458 18.5521 7.88542 18.5521 7.65625 18.3438L1.65625 12.3438Z" fill="black" fill-opacity="0.72"/>
</g>
<defs>
<clipPath id="clip0_1731_3415">
<rect width="16" height="24" fill="white"/>
</clipPath>
</defs>
</svg>
