<svg width="13" height="22" viewBox="0 0 13 22" fill="none" xmlns="http://www.w3.org/2000/svg">
<g id="label-paired / sm / grid-sm / bold" clip-path="url(#clip0_1731_1904)">
<path id="icon" d="M2.78125 5.71875H1.46875V7.03125H2.78125V5.71875ZM1.46875 4.625H2.78125C3.09115 4.625 3.34635 4.73438 3.54688 4.95312C3.76562 5.15365 3.875 5.40885 3.875 5.71875V7.03125C3.875 7.34115 3.76562 7.59635 3.54688 7.79688C3.34635 8.01562 3.09115 8.125 2.78125 8.125H1.46875C1.15885 8.125 0.903646 8.01562 0.703125 7.79688C0.484375 7.59635 0.375 7.34115 0.375 7.03125V5.71875C0.375 5.40885 0.484375 5.15365 0.703125 4.95312C0.903646 4.73438 1.15885 4.625 1.46875 4.625ZM2.78125 10.0938H1.46875V11.4062H2.78125V10.0938ZM1.46875 9H2.78125C3.09115 9 3.34635 9.10938 3.54688 9.32812C3.76562 9.52865 3.875 9.78385 3.875 10.0938V11.4062C3.875 11.7161 3.76562 11.9714 3.54688 12.1719C3.34635 12.3906 3.09115 12.5 2.78125 12.5H1.46875C1.15885 12.5 0.903646 12.3906 0.703125 12.1719C0.484375 11.9714 0.375 11.7161 0.375 11.4062V10.0938C0.375 9.78385 0.484375 9.52865 0.703125 9.32812C0.903646 9.10938 1.15885 9 1.46875 9ZM1.46875 14.4688V15.7812H2.78125V14.4688H1.46875ZM0.375 14.4688C0.375 14.1589 0.484375 13.9036 0.703125 13.7031C0.903646 13.4844 1.15885 13.375 1.46875 13.375H2.78125C3.09115 13.375 3.34635 13.4844 3.54688 13.7031C3.76562 13.9036 3.875 14.1589 3.875 14.4688V15.7812C3.875 16.0911 3.76562 16.3464 3.54688 16.5469C3.34635 16.7656 3.09115 16.875 2.78125 16.875H1.46875C1.15885 16.875 0.903646 16.7656 0.703125 16.5469C0.484375 16.3464 0.375 16.0911 0.375 15.7812V14.4688ZM7.15625 5.71875H5.84375V7.03125H7.15625V5.71875ZM5.84375 4.625H7.15625C7.46615 4.625 7.72135 4.73438 7.92188 4.95312C8.14062 5.15365 8.25 5.40885 8.25 5.71875V7.03125C8.25 7.34115 8.14062 7.59635 7.92188 7.79688C7.72135 8.01562 7.46615 8.125 7.15625 8.125H5.84375C5.53385 8.125 5.27865 8.01562 5.07812 7.79688C4.85938 7.59635 4.75 7.34115 4.75 7.03125V5.71875C4.75 5.40885 4.85938 5.15365 5.07812 4.95312C5.27865 4.73438 5.53385 4.625 5.84375 4.625ZM5.84375 10.0938V11.4062H7.15625V10.0938H5.84375ZM4.75 10.0938C4.75 9.78385 4.85938 9.52865 5.07812 9.32812C5.27865 9.10938 5.53385 9 5.84375 9H7.15625C7.46615 9 7.72135 9.10938 7.92188 9.32812C8.14062 9.52865 8.25 9.78385 8.25 10.0938V11.4062C8.25 11.7161 8.14062 11.9714 7.92188 12.1719C7.72135 12.3906 7.46615 12.5 7.15625 12.5H5.84375C5.53385 12.5 5.27865 12.3906 5.07812 12.1719C4.85938 11.9714 4.75 11.7161 4.75 11.4062V10.0938ZM7.15625 14.4688H5.84375V15.7812H7.15625V14.4688ZM5.84375 13.375H7.15625C7.46615 13.375 7.72135 13.4844 7.92188 13.7031C8.14062 13.9036 8.25 14.1589 8.25 14.4688V15.7812C8.25 16.0911 8.14062 16.3464 7.92188 16.5469C7.72135 16.7656 7.46615 16.875 7.15625 16.875H5.84375C5.53385 16.875 5.27865 16.7656 5.07812 16.5469C4.85938 16.3464 4.75 16.0911 4.75 15.7812V14.4688C4.75 14.1589 4.85938 13.9036 5.07812 13.7031C5.27865 13.4844 5.53385 13.375 5.84375 13.375ZM10.2188 5.71875V7.03125H11.5312V5.71875H10.2188ZM9.125 5.71875C9.125 5.40885 9.23438 5.15365 9.45312 4.95312C9.65365 4.73438 9.90885 4.625 10.2188 4.625H11.5312C11.8411 4.625 12.0964 4.73438 12.2969 4.95312C12.5156 5.15365 12.625 5.40885 12.625 5.71875V7.03125C12.625 7.34115 12.5156 7.59635 12.2969 7.79688C12.0964 8.01562 11.8411 8.125 11.5312 8.125H10.2188C9.90885 8.125 9.65365 8.01562 9.45312 7.79688C9.23438 7.59635 9.125 7.34115 9.125 7.03125V5.71875ZM11.5312 10.0938H10.2188V11.4062H11.5312V10.0938ZM10.2188 9H11.5312C11.8411 9 12.0964 9.10938 12.2969 9.32812C12.5156 9.52865 12.625 9.78385 12.625 10.0938V11.4062C12.625 11.7161 12.5156 11.9714 12.2969 12.1719C12.0964 12.3906 11.8411 12.5 11.5312 12.5H10.2188C9.90885 12.5 9.65365 12.3906 9.45312 12.1719C9.23438 11.9714 9.125 11.7161 9.125 11.4062V10.0938C9.125 9.78385 9.23438 9.52865 9.45312 9.32812C9.65365 9.10938 9.90885 9 10.2188 9ZM10.2188 14.4688V15.7812H11.5312V14.4688H10.2188ZM9.125 14.4688C9.125 14.1589 9.23438 13.9036 9.45312 13.7031C9.65365 13.4844 9.90885 13.375 10.2188 13.375H11.5312C11.8411 13.375 12.0964 13.4844 12.2969 13.7031C12.5156 13.9036 12.625 14.1589 12.625 14.4688V15.7812C12.625 16.0911 12.5156 16.3464 12.2969 16.5469C12.0964 16.7656 11.8411 16.875 11.5312 16.875H10.2188C9.90885 16.875 9.65365 16.7656 9.45312 16.5469C9.23438 16.3464 9.125 16.0911 9.125 15.7812V14.4688Z" fill="black" fill-opacity="0.72"/>
</g>
<defs>
<clipPath id="clip0_1731_1904">
<rect width="13" height="22" fill="white"/>
</clipPath>
</defs>
</svg>
