<svg width="3" height="18" viewBox="0 0 3 18" fill="none" xmlns="http://www.w3.org/2000/svg">
<g id="label-paired / caption / ellipsis-vertical-caption / regular" clip-path="url(#clip0_1731_654)">
<path id="icon" d="M1.5 12.5C1.71875 12.5 1.89844 12.5703 2.03906 12.7109C2.17969 12.8516 2.25 13.0312 2.25 13.25C2.25 13.4688 2.17969 13.6484 2.03906 13.7891C1.89844 13.9297 1.71875 14 1.5 14C1.28125 14 1.10156 13.9297 0.960938 13.7891C0.820312 13.6484 0.75 13.4688 0.75 13.25C0.75 13.0312 0.820312 12.8516 0.960938 12.7109C1.10156 12.5703 1.28125 12.5 1.5 12.5ZM1.5 8.75C1.71875 8.75 1.89844 8.82031 2.03906 8.96094C2.17969 9.10156 2.25 9.28125 2.25 9.5C2.25 9.71875 2.17969 9.89844 2.03906 10.0391C1.89844 10.1797 1.71875 10.25 1.5 10.25C1.28125 10.25 1.10156 10.1797 0.960938 10.0391C0.820312 9.89844 0.75 9.71875 0.75 9.5C0.75 9.28125 0.820312 9.10156 0.960938 8.96094C1.10156 8.82031 1.28125 8.75 1.5 8.75ZM2.25 5.75C2.25 5.96875 2.17969 6.14844 2.03906 6.28906C1.89844 6.42969 1.71875 6.5 1.5 6.5C1.28125 6.5 1.10156 6.42969 0.960938 6.28906C0.820312 6.14844 0.75 5.96875 0.75 5.75C0.75 5.53125 0.820312 5.35156 0.960938 5.21094C1.10156 5.07031 1.28125 5 1.5 5C1.71875 5 1.89844 5.07031 2.03906 5.21094C2.17969 5.35156 2.25 5.53125 2.25 5.75Z" fill="black" fill-opacity="0.72"/>
</g>
<defs>
<clipPath id="clip0_1731_654">
<rect width="3" height="18" fill="white"/>
</clipPath>
</defs>
</svg>
