<svg width="15" height="36" viewBox="0 0 15 36" fill="none" xmlns="http://www.w3.org/2000/svg">
<g id="label-paired / xl / euro-sign-xl / bold" clip-path="url(#clip0_1731_6735)">
<path id="icon" d="M2.29688 17.25H1.125C0.4375 17.1875 0.0625 16.8125 0 16.125C0.0625 15.4375 0.4375 15.0625 1.125 15H2.67188C3.35938 12.7812 4.60938 10.9844 6.42188 9.60938C8.23438 8.23438 10.3438 7.53125 12.75 7.5H13.875C14.5625 7.5625 14.9375 7.9375 15 8.625C14.9375 9.3125 14.5625 9.6875 13.875 9.75H12.75C10.9688 9.78125 9.40625 10.2656 8.0625 11.2031C6.6875 12.1719 5.6875 13.4375 5.0625 15H12.375C13.0625 15.0625 13.4375 15.4375 13.5 16.125C13.4375 16.8125 13.0625 17.1875 12.375 17.25H4.54688C4.51562 17.5 4.5 17.75 4.5 18C4.5 18.25 4.51562 18.5 4.54688 18.75H12.375C13.0625 18.8125 13.4375 19.1875 13.5 19.875C13.4375 20.5625 13.0625 20.9375 12.375 21H5.0625C5.6875 22.5625 6.6875 23.8281 8.0625 24.7969C9.40625 25.7344 10.9688 26.2188 12.75 26.25H13.875C14.5625 26.3125 14.9375 26.6875 15 27.375C14.9375 28.0625 14.5625 28.4375 13.875 28.5H12.75C10.3438 28.4688 8.23438 27.7656 6.42188 26.3906C4.60938 25.0156 3.35938 23.2188 2.67188 21H1.125C0.4375 20.9375 0.0625 20.5625 0 19.875C0.0625 19.1875 0.4375 18.8125 1.125 18.75H2.29688C2.26562 18.5 2.25 18.25 2.25 18C2.25 17.75 2.26562 17.5 2.29688 17.25Z" fill="black" fill-opacity="0.72"/>
</g>
<defs>
<clipPath id="clip0_1731_6735">
<rect width="15" height="36" fill="white"/>
</clipPath>
</defs>
</svg>
