<svg width="15" height="18" viewBox="0 0 15 18" fill="none" xmlns="http://www.w3.org/2000/svg">
<g id="label-paired / caption / bell-slash-caption / regular" clip-path="url(#clip0_1731_1288)">
<path id="icon" d="M8.88281 12.5L9.82031 13.25H3.28125C2.98438 13.25 2.74219 13.1484 2.55469 12.9453C2.35156 12.7578 2.25 12.5156 2.25 12.2188C2.25 11.9375 2.35156 11.6875 2.55469 11.4688L2.625 11.4219C3.35938 10.6562 3.73438 9.74219 3.75 8.67969V8.44531L4.5 9.03125C4.39062 10.1562 3.9375 11.125 3.14062 11.9375L3.09375 12.0078C3.03125 12.0703 3 12.1406 3 12.2188C3.01562 12.3906 3.10938 12.4844 3.28125 12.5H8.88281ZM7.125 4.27344V3.875C7.14062 3.64062 7.26562 3.51563 7.5 3.5C7.73438 3.51563 7.85938 3.64062 7.875 3.875V4.27344C8.84375 4.38281 9.64062 4.78125 10.2656 5.46875C10.9062 6.15625 11.2344 7 11.25 8V8.67969C11.2656 9.74219 11.6406 10.6562 12.375 11.4219L12.4453 11.4688C12.4609 11.5 12.4766 11.5234 12.4922 11.5391L10.7344 10.1562C10.5781 9.67188 10.5 9.17969 10.5 8.67969V8C10.4844 7.15625 10.1953 6.44531 9.63281 5.86719C9.05469 5.30469 8.34375 5.01562 7.5 5C6.64062 5.01562 5.92969 5.3125 5.36719 5.89062L4.75781 5.42188C5.38281 4.76562 6.17188 4.38281 7.125 4.27344ZM6.79688 14.2578C6.92188 14.5703 7.15625 14.7344 7.5 14.75C7.84375 14.7344 8.07812 14.5703 8.20312 14.2578C8.29688 14.0391 8.46094 13.9609 8.69531 14.0234C8.89844 14.1172 8.96875 14.2734 8.90625 14.4922C8.79688 14.7891 8.61719 15.0312 8.36719 15.2188C8.11719 15.4062 7.82812 15.5 7.5 15.5C7.17188 15.5 6.88281 15.4062 6.63281 15.2188C6.38281 15.0312 6.20312 14.7891 6.09375 14.4922C6.03125 14.2734 6.10156 14.1172 6.30469 14.0234C6.53906 13.9609 6.70312 14.0391 6.79688 14.2578ZM0.609375 3.57031L14.8594 14.8438C15.0312 15 15.0547 15.1719 14.9297 15.3594C14.7578 15.5312 14.5781 15.5547 14.3906 15.4297L0.140625 4.17969C-0.03125 4.00781 -0.0546875 3.82812 0.0703125 3.64062C0.242188 3.48437 0.421875 3.46094 0.609375 3.57031Z" fill="black" fill-opacity="0.72"/>
</g>
<defs>
<clipPath id="clip0_1731_1288">
<rect width="15" height="18" fill="white"/>
</clipPath>
</defs>
</svg>
