<svg width="12" height="18" viewBox="0 0 12 18" fill="none" xmlns="http://www.w3.org/2000/svg">
<g id="label-paired / caption / google-caption" clip-path="url(#clip0_1731_13799)">
<path id="icon" d="M11.7188 9.64062C11.6875 11.3281 11.1719 12.6875 10.1719 13.7188C9.15625 14.75 7.79688 15.2812 6.09375 15.3125C5.01562 15.2969 4.03906 15.0312 3.16406 14.5156C2.28906 14 1.59375 13.3047 1.07812 12.4297C0.5625 11.5547 0.296875 10.5781 0.28125 9.5C0.296875 8.42188 0.5625 7.44531 1.07812 6.57031C1.59375 5.69531 2.28906 5 3.16406 4.48438C4.03906 3.96875 5.01562 3.70313 6.09375 3.6875C7.67188 3.71875 8.96875 4.22656 9.98438 5.21094L8.41406 6.73438C7.67969 6.07812 6.85938 5.78125 5.95312 5.84375C5.04688 5.89062 4.25 6.23438 3.5625 6.875C2.89062 7.53125 2.53125 8.40625 2.48438 9.5C2.51562 10.5469 2.86719 11.4141 3.53906 12.1016C4.22656 12.7891 5.07812 13.1484 6.09375 13.1797C6.85938 13.1641 7.47656 13.0078 7.94531 12.7109C8.41406 12.4141 8.76562 12.0781 9 11.7031C9.21875 11.3125 9.35156 10.9688 9.39844 10.6719H6.09375V8.65625H11.625C11.6875 8.9375 11.7188 9.26562 11.7188 9.64062Z" fill="black" fill-opacity="0.72"/>
</g>
<defs>
<clipPath id="clip0_1731_13799">
<rect width="12" height="18" fill="white"/>
</clipPath>
</defs>
</svg>
