<svg width="24" height="36" viewBox="0 0 24 36" fill="none" xmlns="http://www.w3.org/2000/svg">
<g id="label-paired / xl / life-ring-xl / regular" clip-path="url(#clip0_1731_5786)">
<path id="icon" d="M18.8906 25.9219L14.625 21.6562C13.875 22.1875 13 22.4688 12 22.5C11 22.4688 10.125 22.1875 9.375 21.6562L5.10938 25.9219C7.01562 27.5781 9.3125 28.4375 12 28.5C14.6875 28.4375 16.9844 27.5781 18.8906 25.9219ZM19.9219 24.8906C21.5781 22.9844 22.4375 20.6875 22.5 18C22.4375 15.3125 21.5781 13.0156 19.9219 11.1094L15.6562 15.375C16.1875 16.125 16.4688 17 16.5 18C16.4688 19 16.1875 19.875 15.6562 20.625L19.9219 24.8906ZM21 25.9219L21.5156 26.4844C21.8281 26.8281 21.8281 27.1719 21.5156 27.5156C21.1719 27.8281 20.8281 27.8281 20.4844 27.5156L19.9219 27C17.7656 28.9375 15.125 29.9375 12 30C8.875 29.9375 6.23438 28.9375 4.07812 27L3.51562 27.5156C3.17188 27.8281 2.82812 27.8281 2.48438 27.5156C2.17188 27.1719 2.17188 26.8281 2.48438 26.4844L3 25.9219C1.0625 23.7344 0.0625 21.0938 0 18C0.0625 14.9062 1.0625 12.2656 3 10.0781L2.48438 9.51562C2.17188 9.17188 2.17188 8.82812 2.48438 8.48438C2.82812 8.17188 3.17188 8.17188 3.51562 8.48438L4.07812 9C6.26562 7.0625 8.90625 6.0625 12 6C15.0938 6.0625 17.7344 7.0625 19.9219 9L20.4844 8.48438C20.8281 8.17188 21.1719 8.17188 21.5156 8.48438C21.8281 8.82812 21.8281 9.17188 21.5156 9.51562L21 10.0781C22.9375 12.2344 23.9375 14.875 24 18C23.9375 21.125 22.9375 23.7656 21 25.9219ZM18.8906 10.0781C16.9844 8.42188 14.6875 7.5625 12 7.5C9.3125 7.5625 7.01562 8.42188 5.10938 10.0781L9.375 14.3438C10.125 13.8125 11 13.5312 12 13.5C13 13.5312 13.875 13.8125 14.625 14.3438L18.8906 10.0781ZM8.34375 20.625C7.8125 19.875 7.53125 19 7.5 18C7.53125 17 7.8125 16.125 8.34375 15.375L4.07812 11.1094C2.42188 13.0156 1.5625 15.3125 1.5 18C1.5625 20.6875 2.42188 22.9844 4.07812 24.8906L8.34375 20.625ZM9 18C9.03125 19.125 9.53125 19.9844 10.5 20.5781C11.5 21.1406 12.5 21.1406 13.5 20.5781C14.4688 19.9844 14.9688 19.125 15 18C14.9688 16.875 14.4688 16.0156 13.5 15.4219C12.5 14.8594 11.5 14.8594 10.5 15.4219C9.53125 16.0156 9.03125 16.875 9 18Z" fill="black" fill-opacity="0.72"/>
</g>
<defs>
<clipPath id="clip0_1731_5786">
<rect width="24" height="36" fill="white"/>
</clipPath>
</defs>
</svg>
