<svg width="9" height="22" viewBox="0 0 9 22" fill="none" xmlns="http://www.w3.org/2000/svg">
<g id="label-paired / sm / eight-sm / regular" clip-path="url(#clip0_1731_2288)">
<path id="icon" d="M8.4375 7.90625C8.4375 8.47135 8.3099 8.99089 8.05469 9.46484C7.78125 9.9388 7.42578 10.3216 6.98828 10.6133C7.55339 10.8867 8.00911 11.2878 8.35547 11.8164C8.70182 12.3451 8.875 12.9375 8.875 13.5938C8.85677 14.5234 8.53776 15.2982 7.91797 15.918C7.29818 16.5378 6.52344 16.8568 5.59375 16.875H3.40625C2.47656 16.8568 1.70182 16.5378 1.08203 15.918C0.46224 15.2982 0.143229 14.5234 0.125 13.5938C0.125 12.9375 0.298177 12.3451 0.644531 11.8164C0.990885 11.2878 1.44661 10.8867 2.01172 10.6133C1.57422 10.3216 1.21875 9.9388 0.945312 9.46484C0.690104 8.99089 0.5625 8.47135 0.5625 7.90625C0.580729 6.97656 0.89974 6.20182 1.51953 5.58203C2.13932 4.96224 2.91406 4.64323 3.84375 4.625H5.15625C6.08594 4.64323 6.86068 4.96224 7.48047 5.58203C8.10026 6.20182 8.41927 6.97656 8.4375 7.90625ZM5.15625 11.1875H3.84375H3.40625C2.73177 11.2057 2.16667 11.4427 1.71094 11.8984C1.25521 12.3542 1.01823 12.9193 1 13.5938C1.01823 14.2682 1.25521 14.8333 1.71094 15.2891C2.16667 15.7448 2.73177 15.9818 3.40625 16H5.59375C6.26823 15.9818 6.83333 15.7448 7.28906 15.2891C7.74479 14.8333 7.98177 14.2682 8 13.5938C7.98177 12.9193 7.74479 12.3542 7.28906 11.8984C6.83333 11.4427 6.26823 11.2057 5.59375 11.1875H5.15625ZM5.15625 10.3125C5.83073 10.2943 6.39583 10.0573 6.85156 9.60156C7.30729 9.14583 7.54427 8.58073 7.5625 7.90625C7.54427 7.23177 7.30729 6.66667 6.85156 6.21094C6.39583 5.75521 5.83073 5.51823 5.15625 5.5H3.84375C3.16927 5.51823 2.60417 5.75521 2.14844 6.21094C1.69271 6.66667 1.45573 7.23177 1.4375 7.90625C1.45573 8.58073 1.69271 9.14583 2.14844 9.60156C2.60417 10.0573 3.16927 10.2943 3.84375 10.3125H5.15625Z" fill="black" fill-opacity="0.72"/>
</g>
<defs>
<clipPath id="clip0_1731_2288">
<rect width="9" height="22" fill="white"/>
</clipPath>
</defs>
</svg>
