<svg width="14" height="24" viewBox="0 0 14 24" fill="none" xmlns="http://www.w3.org/2000/svg">
<g id="label-paired / md / arrow-right-to-line-md / bold" clip-path="url(#clip0_1731_3432)">
<path id="icon" d="M14 6.75V17.25C13.9583 17.7083 13.7083 17.9583 13.25 18C12.7917 17.9583 12.5417 17.7083 12.5 17.25V6.75C12.5417 6.29167 12.7917 6.04167 13.25 6C13.7083 6.04167 13.9583 6.29167 14 6.75ZM9.75 12.5625L9.78125 12.5312L5.53125 16.5312C5.15625 16.8229 4.80208 16.8125 4.46875 16.5C4.17708 16.1458 4.1875 15.8021 4.5 15.4688L7.375 12.75H4.75H0.75C0.291667 12.7083 0.0416667 12.4583 0 12C0.0416667 11.5417 0.291667 11.2917 0.75 11.25H4.75H7.375L4.5 8.53125C4.1875 8.19792 4.17708 7.85417 4.46875 7.5C4.80208 7.1875 5.14583 7.17708 5.5 7.46875L9.75 11.4688C9.91667 11.6146 10 11.7917 10 12C10 12.2083 9.91667 12.3958 9.75 12.5625Z" fill="black" fill-opacity="0.72"/>
</g>
<defs>
<clipPath id="clip0_1731_3432">
<rect width="14" height="24" fill="white"/>
</clipPath>
</defs>
</svg>
