<svg width="12" height="18" viewBox="0 0 12 18" fill="none" xmlns="http://www.w3.org/2000/svg">
<g id="label-paired / caption / circle-three-caption / bold" clip-path="url(#clip0_1731_1057)">
<path id="icon" d="M6 4.625C5.10938 4.625 4.29688 4.84375 3.5625 5.28125C2.82812 5.70312 2.23438 6.29688 1.78125 7.0625C1.34375 7.82812 1.125 8.64062 1.125 9.5C1.125 10.3594 1.34375 11.1719 1.78125 11.9375C2.23438 12.7031 2.82812 13.2969 3.5625 13.7188C4.29688 14.1562 5.10938 14.375 6 14.375C6.89062 14.375 7.70312 14.1562 8.4375 13.7188C9.17188 13.2969 9.76562 12.7031 10.2188 11.9375C10.6562 11.1719 10.875 10.3594 10.875 9.5C10.875 8.64062 10.6562 7.82812 10.2188 7.0625C9.76562 6.29688 9.17188 5.70312 8.4375 5.28125C7.70312 4.84375 6.89062 4.625 6 4.625ZM6 15.5C4.90625 15.4844 3.90625 15.2188 3 14.7031C2.09375 14.1719 1.35938 13.4375 0.796875 12.5C0.265625 11.5469 0 10.5469 0 9.5C0 8.45312 0.265625 7.45312 0.796875 6.5C1.35938 5.5625 2.09375 4.82812 3 4.29688C3.90625 3.78125 4.90625 3.51563 6 3.5C7.09375 3.51563 8.09375 3.78125 9 4.29688C9.90625 4.82812 10.6406 5.5625 11.2031 6.5C11.7344 7.45312 12 8.45312 12 9.5C12 10.5469 11.7344 11.5469 11.2031 12.5C10.6406 13.4375 9.90625 14.1719 9 14.7031C8.09375 15.2188 7.09375 15.4844 6 15.5ZM4.3125 6.5H7.3125C7.5625 6.51562 7.73438 6.63281 7.82812 6.85156C7.90625 7.08594 7.85938 7.29688 7.6875 7.48438L6.49219 8.5625C7.00781 8.625 7.42188 8.84375 7.73438 9.21875C8.0625 9.57812 8.23438 10.0156 8.25 10.5312C8.23438 11.0938 8.03906 11.5547 7.66406 11.9141C7.30469 12.2891 6.84375 12.4844 6.28125 12.5H5.625C4.875 12.4844 4.29688 12.1641 3.89062 11.5391L3.84375 11.4453C3.6875 11.1328 3.74219 10.875 4.00781 10.6719C4.32031 10.5156 4.57812 10.5781 4.78125 10.8594L4.85156 10.9531C5.03906 11.2188 5.29688 11.3594 5.625 11.375H6.28125C6.51562 11.375 6.71875 11.2969 6.89062 11.1406C7.04688 10.9688 7.125 10.7656 7.125 10.5312C7.125 10.2812 7.03906 10.0781 6.86719 9.92188C6.71094 9.76562 6.51562 9.6875 6.28125 9.6875H5.0625C4.8125 9.67188 4.64062 9.55469 4.54688 9.33594C4.46875 9.10156 4.51562 8.89062 4.6875 8.70312L5.85938 7.625H4.3125C3.96875 7.59375 3.78125 7.40625 3.75 7.0625C3.78125 6.71875 3.96875 6.53125 4.3125 6.5Z" fill="black" fill-opacity="0.72"/>
</g>
<defs>
<clipPath id="clip0_1731_1057">
<rect width="12" height="18" fill="white"/>
</clipPath>
</defs>
</svg>
