<svg width="27" height="36" viewBox="0 0 27 36" fill="none" xmlns="http://www.w3.org/2000/svg">
<g id="label-paired / xl / house-blank-xl / bold" clip-path="url(#clip0_1731_6464)">
<path id="icon" d="M14.25 6.28125L26.625 16.7812C27.0938 17.25 27.125 17.7812 26.7188 18.375C26.25 18.8438 25.7344 18.875 25.1719 18.4688L24 17.5312V26.25C23.9688 27.3125 23.6094 28.2031 22.9219 28.9219C22.2031 29.6094 21.3125 29.9688 20.25 30H6.75C5.6875 29.9688 4.79688 29.6094 4.07812 28.9219C3.39062 28.2031 3.03125 27.3125 3 26.25V17.5312L1.82812 18.4688C1.26562 18.875 0.75 18.8438 0.28125 18.375C-0.125 17.7812 -0.09375 17.25 0.375 16.7812L12.75 6.28125C13.25 5.90625 13.75 5.90625 14.25 6.28125ZM21.75 15.6094L13.5 8.625L5.25 15.6094V26.25C5.25 26.6875 5.39062 27.0469 5.67188 27.3281C5.95312 27.6094 6.3125 27.75 6.75 27.75H20.25C20.6875 27.75 21.0469 27.6094 21.3281 27.3281C21.6094 27.0469 21.75 26.6875 21.75 26.25V15.6094Z" fill="black" fill-opacity="0.72"/>
</g>
<defs>
<clipPath id="clip0_1731_6464">
<rect width="27" height="36" fill="white"/>
</clipPath>
</defs>
</svg>
