<svg width="14" height="22" viewBox="0 0 14 22" fill="none" xmlns="http://www.w3.org/2000/svg">
<g id="label-paired / sm / gauge-max-sm / regular" clip-path="url(#clip0_1731_2002)">
<path id="icon" d="M7 16.875C8.11198 16.8568 9.13281 16.5833 10.0625 16.0547C10.9922 15.5078 11.7396 14.7604 12.3047 13.8125C12.8516 12.8464 13.125 11.8255 13.125 10.75C13.125 9.67448 12.8516 8.65365 12.3047 7.6875C11.7396 6.73958 10.9922 5.99219 10.0625 5.44531C9.13281 4.91667 8.11198 4.64323 7 4.625C5.88802 4.64323 4.86719 4.91667 3.9375 5.44531C3.00781 5.99219 2.26042 6.73958 1.69531 7.6875C1.14844 8.65365 0.875 9.67448 0.875 10.75C0.875 11.8255 1.14844 12.8464 1.69531 13.8125C2.26042 14.7604 3.00781 15.5078 3.9375 16.0547C4.86719 16.5833 5.88802 16.8568 7 16.875ZM7 3.75C8.27604 3.76823 9.44271 4.07812 10.5 4.67969C11.5573 5.29948 12.4141 6.15625 13.0703 7.25C13.6901 8.36198 14 9.52865 14 10.75C14 11.9714 13.6901 13.138 13.0703 14.25C12.4141 15.3438 11.5573 16.2005 10.5 16.8203C9.44271 17.4219 8.27604 17.7318 7 17.75C5.72396 17.7318 4.55729 17.4219 3.5 16.8203C2.44271 16.2005 1.58594 15.3438 0.929688 14.25C0.309896 13.138 0 11.9714 0 10.75C0 9.52865 0.309896 8.36198 0.929688 7.25C1.58594 6.15625 2.44271 5.29948 3.5 4.67969C4.55729 4.07812 5.72396 3.76823 7 3.75ZM7.65625 6.375C7.61979 6.77604 7.40104 6.99479 7 7.03125C6.59896 6.99479 6.38021 6.77604 6.34375 6.375C6.38021 5.97396 6.59896 5.75521 7 5.71875C7.40104 5.75521 7.61979 5.97396 7.65625 6.375ZM6.125 13.375C6.125 13.6302 6.20703 13.8398 6.37109 14.0039C6.53516 14.168 6.74479 14.25 7 14.25C7.25521 14.25 7.46484 14.168 7.62891 14.0039C7.79297 13.8398 7.875 13.6302 7.875 13.375C7.875 13.1198 7.79297 12.9102 7.62891 12.7461C7.46484 12.582 7.25521 12.5 7 12.5C6.74479 12.5 6.53516 12.582 6.37109 12.7461C6.20703 12.9102 6.125 13.1198 6.125 13.375ZM5.25 13.375C5.26823 12.8828 5.44141 12.4727 5.76953 12.1445C6.09766 11.8164 6.50781 11.6432 7 11.625C7.49219 11.6432 7.90234 11.8073 8.23047 12.1172L11.1562 10.3672C11.3932 10.2578 11.5938 10.3125 11.7578 10.5312C11.8672 10.7682 11.8125 10.9688 11.5938 11.1328L8.66797 12.8828C8.72266 13.0469 8.75 13.2109 8.75 13.375C8.73177 13.8672 8.55859 14.2773 8.23047 14.6055C7.90234 14.9336 7.49219 15.1068 7 15.125C6.50781 15.1068 6.09766 14.9336 5.76953 14.6055C5.44141 14.2773 5.26823 13.8672 5.25 13.375ZM10.7188 7.6875C10.6823 8.08854 10.4635 8.30729 10.0625 8.34375C9.66146 8.30729 9.44271 8.08854 9.40625 7.6875C9.44271 7.28646 9.66146 7.06771 10.0625 7.03125C10.4635 7.06771 10.6823 7.28646 10.7188 7.6875ZM2.625 10.0938C3.02604 10.1302 3.24479 10.349 3.28125 10.75C3.24479 11.151 3.02604 11.3698 2.625 11.4062C2.22396 11.3698 2.00521 11.151 1.96875 10.75C2.00521 10.349 2.22396 10.1302 2.625 10.0938ZM4.59375 7.6875C4.55729 8.08854 4.33854 8.30729 3.9375 8.34375C3.53646 8.30729 3.31771 8.08854 3.28125 7.6875C3.31771 7.28646 3.53646 7.06771 3.9375 7.03125C4.33854 7.06771 4.55729 7.28646 4.59375 7.6875Z" fill="black" fill-opacity="0.72"/>
</g>
<defs>
<clipPath id="clip0_1731_2002">
<rect width="14" height="22" fill="white"/>
</clipPath>
</defs>
</svg>
