<svg width="16" height="24" viewBox="0 0 16 24" fill="none" xmlns="http://www.w3.org/2000/svg">
<g id="label-paired / md / reddit-md" clip-path="url(#clip0_1731_13968)">
<path id="icon" d="M6.3125 13.5625C5.83333 13.5 5.57292 13.2396 5.53125 12.7812C5.57292 12.3021 5.83333 12.0417 6.3125 12C6.77083 12.0417 7.02083 12.3021 7.0625 12.7812C7.02083 13.2396 6.77083 13.5 6.3125 13.5625ZM15.75 12C15.7292 13.4375 15.375 14.7396 14.6875 15.9062C14 17.0729 13.0729 18 11.9062 18.6875C10.7396 19.375 9.4375 19.7292 8 19.75C6.5625 19.7292 5.26042 19.375 4.09375 18.6875C2.92708 18 2 17.0729 1.3125 15.9062C0.625 14.7396 0.270833 13.4375 0.25 12C0.270833 10.5625 0.625 9.26042 1.3125 8.09375C2 6.92708 2.92708 6 4.09375 5.3125C5.26042 4.625 6.5625 4.27083 8 4.25C9.4375 4.27083 10.7396 4.625 11.9062 5.3125C13.0729 6 14 6.92708 14.6875 8.09375C15.375 9.26042 15.7292 10.5625 15.75 12ZM11.625 10.7188C11.3125 10.7188 11.0625 10.8229 10.875 11.0312C10.1458 10.5312 9.25 10.25 8.1875 10.1875L8.71875 7.75L10.4688 8.125C10.5104 8.60417 10.7604 8.86458 11.2188 8.90625C11.6979 8.86458 11.9583 8.60417 12 8.125C11.9583 7.64583 11.6979 7.38542 11.2188 7.34375C10.9062 7.36458 10.6771 7.51042 10.5312 7.78125L8.625 7.34375C8.52083 7.34375 8.44792 7.39583 8.40625 7.5L7.8125 10.1875C6.75 10.25 5.85417 10.5312 5.125 11.0312C4.9375 10.8229 4.6875 10.7188 4.375 10.7188C3.83333 10.7604 3.5 11.0208 3.375 11.5C3.27083 11.9792 3.45833 12.375 3.9375 12.6875C3.89583 12.8333 3.875 12.9896 3.875 13.1562C3.91667 14.0104 4.32292 14.7083 5.09375 15.25C5.86458 15.8125 6.83333 16.1042 8 16.125C9.16667 16.1042 10.1458 15.8125 10.9375 15.25C11.7083 14.7083 12.1146 14.0104 12.1562 13.1562C12.1562 12.9896 12.1354 12.8229 12.0938 12.6562C12.5521 12.3646 12.7292 11.9792 12.625 11.5C12.5 11.0208 12.1667 10.7604 11.625 10.7188ZM9.46875 14.3438C9.13542 14.6354 8.64583 14.7812 8 14.7812C7.35417 14.7604 6.86458 14.6146 6.53125 14.3438C6.44792 14.2812 6.36458 14.2812 6.28125 14.3438C6.19792 14.4479 6.19792 14.5417 6.28125 14.625C6.69792 14.9792 7.27083 15.1562 8 15.1562C8.72917 15.1562 9.30208 14.9792 9.71875 14.625C9.80208 14.5417 9.80208 14.4479 9.71875 14.3438C9.63542 14.2812 9.55208 14.2812 9.46875 14.3438ZM9.71875 12C9.23958 12.0417 8.97917 12.3021 8.9375 12.7812C8.97917 13.2396 9.23958 13.5 9.71875 13.5625C10.1771 13.5 10.4271 13.2396 10.4688 12.7812C10.4271 12.3021 10.1771 12.0417 9.71875 12Z" fill="black" fill-opacity="0.72"/>
</g>
<defs>
<clipPath id="clip0_1731_13968">
<rect width="16" height="24" fill="white"/>
</clipPath>
</defs>
</svg>
