<svg width="15" height="36" viewBox="0 0 15 36" fill="none" xmlns="http://www.w3.org/2000/svg">
<g id="label-paired / xl / dollar-sign-xl / regular" clip-path="url(#clip0_1731_6723)">
<path id="icon" d="M8.25 6.75V9.04688C9.78125 9.20312 11.0938 9.42188 12.1875 9.70312C12.625 9.85938 12.8125 10.1719 12.75 10.6406C12.5938 11.0781 12.2812 11.25 11.8125 11.1562C11.0312 10.9688 10.125 10.7969 9.09375 10.6406C8.0625 10.4844 7.03125 10.4375 6 10.5C5 10.5938 4.17188 10.8438 3.51562 11.25C2.92188 11.625 2.51562 12.25 2.29688 13.125C2.20312 13.8125 2.25 14.3438 2.4375 14.7188C2.65625 15.0938 3 15.4531 3.46875 15.7969C4.5625 16.3906 5.96875 16.875 7.6875 17.25L7.78125 17.2969C8.59375 17.4844 9.39062 17.7031 10.1719 17.9531C10.9844 18.2344 11.7031 18.5625 12.3281 18.9375C13.0156 19.3438 13.5469 19.9062 13.9219 20.625C14.2656 21.3438 14.3438 22.1875 14.1562 23.1562C13.7812 24.75 12.8125 25.8438 11.25 26.4375C10.3438 26.75 9.34375 26.9219 8.25 26.9531V29.25C8.21875 29.7188 7.96875 29.9688 7.5 30C7.0625 29.9688 6.8125 29.7188 6.75 29.25V26.9062C6.46875 26.9062 6.17188 26.875 5.85938 26.8125C5.23438 26.7188 4.5 26.5625 3.65625 26.3438C2.84375 26.1562 2.03125 25.8906 1.21875 25.5469C0.8125 25.3281 0.671875 25 0.796875 24.5625C1.04688 24.1562 1.375 24.0156 1.78125 24.1406C2.53125 24.4531 3.28125 24.7188 4.03125 24.9375C4.8125 25.125 5.5 25.2656 6.09375 25.3594C7.9375 25.6094 9.46875 25.5 10.6875 25.0312C11.8438 24.5625 12.5156 23.8438 12.7031 22.875C12.7969 22.1875 12.75 21.6562 12.5625 21.2812C12.375 20.875 12.0312 20.5156 11.5312 20.2031C10.4375 19.6094 9.03125 19.1094 7.3125 18.7031H7.21875C6.4375 18.5156 5.64062 18.2812 4.82812 18C4.04688 17.75 3.32812 17.4219 2.67188 17.0156C1.98438 16.6094 1.46875 16.0625 1.125 15.375C0.75 14.625 0.65625 13.7812 0.84375 12.8438C1.125 11.5312 1.75 10.5781 2.71875 9.98438C3.65625 9.42188 4.70312 9.09375 5.85938 9C6.17188 9 6.46875 9 6.75 9V6.75C6.78125 6.28125 7.03125 6.03125 7.5 6C7.96875 6.03125 8.21875 6.28125 8.25 6.75Z" fill="black" fill-opacity="0.72"/>
</g>
<defs>
<clipPath id="clip0_1731_6723">
<rect width="15" height="36" fill="white"/>
</clipPath>
</defs>
</svg>
