<svg width="16" height="24" viewBox="0 0 16 24" fill="none" xmlns="http://www.w3.org/2000/svg">
<g id="label-paired / md / phone-md / bold" clip-path="url(#clip0_1731_3826)">
<path id="icon" d="M11.75 12.5938L15.25 14.0938C15.5208 14.2188 15.7292 14.4167 15.875 14.6875C16 14.9375 16.0312 15.2188 15.9688 15.5312L15.2188 19.0312C15.0521 19.6354 14.6458 19.9583 14 20C13.8125 20 13.625 20 13.4375 20C13.125 19.9792 12.8125 19.9583 12.5 19.9375C10.125 19.6458 8 18.8646 6.125 17.5938C4.25 16.3021 2.77083 14.6562 1.6875 12.6562C0.583333 10.6562 0.0208333 8.4375 0 6C0.0416667 5.35417 0.375 4.94792 1 4.78125L4.5 4.03125C4.79167 3.96875 5.0625 4.01042 5.3125 4.15625C5.58333 4.28125 5.78125 4.47917 5.90625 4.75L7.40625 8.25C7.61458 8.8125 7.48958 9.30208 7.03125 9.71875L5.78125 10.75C6.63542 12.2083 7.79167 13.3646 9.25 14.2188L10.2812 12.9688C10.6979 12.5104 11.1875 12.3854 11.75 12.5938ZM13.8125 18.5L14.4688 15.4062L11.3438 14.0625L10.4062 15.1875C10.1562 15.4583 9.86458 15.625 9.53125 15.6875C9.17708 15.7708 8.83333 15.7188 8.5 15.5312C6.8125 14.5312 5.46875 13.1875 4.46875 11.5C4.30208 11.1667 4.25 10.8333 4.3125 10.5C4.375 10.1458 4.54167 9.84375 4.8125 9.59375L5.9375 8.6875L4.59375 5.53125L1.5 6.21875C1.5625 8.48958 2.14583 10.5417 3.25 12.375C4.33333 14.2083 5.79167 15.6667 7.625 16.75C9.45833 17.8542 11.5208 18.4375 13.8125 18.5Z" fill="black" fill-opacity="0.72"/>
</g>
<defs>
<clipPath id="clip0_1731_3826">
<rect width="16" height="24" fill="white"/>
</clipPath>
</defs>
</svg>
