<svg width="8" height="18" viewBox="0 0 8 18" fill="none" xmlns="http://www.w3.org/2000/svg">
<g id="label-paired / caption / backward-step-caption / bold" clip-path="url(#clip0_1731_1559)">
<path id="icon" d="M2.125 5.5625V8.02344L6.27344 5.11719C6.38281 5.03906 6.51562 5 6.67188 5C6.875 5 7.03906 5.07031 7.16406 5.21094C7.30469 5.33594 7.375 5.5 7.375 5.70312V13.2969C7.375 13.5 7.30469 13.6641 7.16406 13.7891C7.03906 13.9297 6.875 14 6.67188 14C6.53125 14 6.39844 13.9609 6.27344 13.8828L2.125 10.9766V13.4375C2.09375 13.7812 1.90625 13.9688 1.5625 14C1.21875 13.9688 1.03125 13.7812 1 13.4375V10.1797V8.82031V5.5625C1.03125 5.21875 1.21875 5.03125 1.5625 5C1.90625 5.03125 2.09375 5.21875 2.125 5.5625ZM2.125 9.59375L6.25 12.5V6.52344L2.125 9.40625V9.59375Z" fill="black" fill-opacity="0.72"/>
</g>
<defs>
<clipPath id="clip0_1731_1559">
<rect width="8" height="18" fill="white"/>
</clipPath>
</defs>
</svg>
