<svg width="13" height="22" viewBox="0 0 13 22" fill="none" xmlns="http://www.w3.org/2000/svg">
<g id="label-paired / sm / whatsapp-sm" clip-path="url(#clip0_1731_13891)">
<path id="icon" d="M10.793 6.40234C11.3763 6.98568 11.8229 7.64193 12.1328 8.37109C12.4609 9.10026 12.625 9.875 12.625 10.6953C12.6068 11.8255 12.3242 12.8464 11.7773 13.7578C11.2305 14.6693 10.4922 15.3984 9.5625 15.9453C8.65104 16.474 7.63021 16.7474 6.5 16.7656C5.46094 16.7656 4.49479 16.5195 3.60156 16.0273L0.375 16.875L1.22266 13.7305C0.69401 12.8008 0.429688 11.7891 0.429688 10.6953C0.447917 9.5651 0.721354 8.54427 1.25 7.63281C1.79688 6.72135 2.52604 5.99219 3.4375 5.44531C4.34896 4.91667 5.36979 4.64323 6.5 4.625C8.15885 4.64323 9.58984 5.23568 10.793 6.40234ZM6.5 15.7539C7.92188 15.7174 9.11589 15.2253 10.082 14.2773C11.0482 13.3112 11.5586 12.1172 11.6133 10.6953C11.5768 9.3099 11.0573 8.125 10.0547 7.14062C9.07031 6.15625 7.88542 5.66406 6.5 5.66406C5.07812 5.68229 3.89323 6.17448 2.94531 7.14062C1.97917 8.08854 1.47786 9.27344 1.44141 10.6953C1.45964 11.6615 1.72396 12.5547 2.23438 13.375L2.34375 13.5664L1.82422 15.4258L3.73828 14.9336L3.92969 15.043C4.71354 15.4987 5.57031 15.7357 6.5 15.7539ZM9.26172 11.9805C9.27995 11.9805 9.30729 11.9896 9.34375 12.0078C9.45312 12.0443 9.52604 12.0898 9.5625 12.1445C9.61719 12.2357 9.58073 12.4818 9.45312 12.8828C9.38021 13.0651 9.23438 13.2201 9.01562 13.3477C8.79688 13.4753 8.60547 13.5573 8.44141 13.5938C8.22266 13.6302 7.97656 13.6302 7.70312 13.5938C7.44792 13.5391 7.08333 13.4115 6.60938 13.2109C5.89844 12.8646 5.32422 12.4453 4.88672 11.9531C4.43099 11.4609 4.15755 11.1328 4.06641 10.9688C4.04818 10.9505 4.03906 10.9323 4.03906 10.9141C4.02083 10.9141 4.01172 10.9141 4.01172 10.9141C3.95703 10.8411 3.84766 10.6589 3.68359 10.3672C3.51953 10.0573 3.42839 9.72005 3.41016 9.35547C3.42839 9.00911 3.49219 8.73568 3.60156 8.53516C3.71094 8.33464 3.8112 8.19792 3.90234 8.125C3.92057 8.10677 3.92969 8.08854 3.92969 8.07031C4.09375 7.94271 4.23047 7.88802 4.33984 7.90625C4.44922 7.90625 4.54948 7.90625 4.64062 7.90625C4.64062 7.90625 4.64974 7.90625 4.66797 7.90625C4.75911 7.85156 4.85938 7.93359 4.96875 8.15234C5.00521 8.24349 5.0599 8.36198 5.13281 8.50781C5.20573 8.6901 5.26953 8.85417 5.32422 9C5.37891 9.16406 5.41536 9.25521 5.43359 9.27344C5.48828 9.36458 5.4974 9.45573 5.46094 9.54688C5.3151 9.80208 5.19661 9.96615 5.10547 10.0391C4.97786 10.1484 4.95052 10.2578 5.02344 10.3672C5.29688 10.8594 5.59766 11.2331 5.92578 11.4883C6.25391 11.7435 6.63672 11.9714 7.07422 12.1719C7.22005 12.263 7.32943 12.2539 7.40234 12.1445C7.45703 12.0898 7.53906 11.9987 7.64844 11.8711C7.73958 11.7435 7.82161 11.6341 7.89453 11.543C7.98568 11.4154 8.09505 11.3971 8.22266 11.4883C8.3138 11.5247 8.48698 11.5977 8.74219 11.707C8.9974 11.8346 9.17057 11.9258 9.26172 11.9805Z" fill="black" fill-opacity="0.72"/>
</g>
<defs>
<clipPath id="clip0_1731_13891">
<rect width="13" height="22" fill="white"/>
</clipPath>
</defs>
</svg>
