<svg width="12" height="18" viewBox="0 0 12 18" fill="none" xmlns="http://www.w3.org/2000/svg">
<g id="label-paired / caption / circle-user-caption / bold" clip-path="url(#clip0_1731_1750)">
<path id="icon" d="M9.53906 12.875C10.3984 11.9688 10.8438 10.8438 10.875 9.5C10.8438 8.125 10.3672 6.97656 9.44531 6.05469C8.52344 5.13281 7.375 4.65625 6 4.625C4.625 4.65625 3.47656 5.13281 2.55469 6.05469C1.63281 6.97656 1.15625 8.125 1.125 9.5C1.15625 10.8438 1.60938 11.9688 2.48438 12.875C2.70312 12.3125 3.0625 11.8594 3.5625 11.5156C4.04688 11.1875 4.60938 11.0156 5.25 11H6.75C7.39062 11.0156 7.95312 11.1875 8.4375 11.5156C8.9375 11.8594 9.30469 12.3125 9.53906 12.875ZM8.57812 13.625H8.60156C8.49219 13.1875 8.27344 12.8281 7.94531 12.5469C7.61719 12.2812 7.21875 12.1406 6.75 12.125H5.25C4.78125 12.1406 4.38281 12.2812 4.05469 12.5469C3.72656 12.8281 3.51562 13.1875 3.42188 13.625C4.17188 14.1094 5.03125 14.3594 6 14.375C6.96875 14.3594 7.82812 14.1094 8.57812 13.625ZM6 15.5C4.90625 15.4844 3.90625 15.2188 3 14.7031C2.09375 14.1719 1.35938 13.4375 0.796875 12.5C0.265625 11.5469 0 10.5469 0 9.5C0 8.45312 0.265625 7.45312 0.796875 6.5C1.35938 5.5625 2.09375 4.82812 3 4.29688C3.90625 3.78125 4.90625 3.51563 6 3.5C7.09375 3.51563 8.09375 3.78125 9 4.29688C9.90625 4.82812 10.6406 5.5625 11.2031 6.5C11.7344 7.45312 12 8.45312 12 9.5C12 10.5469 11.7344 11.5469 11.2031 12.5C10.6406 13.4375 9.90625 14.1719 9 14.7031C8.09375 15.2188 7.09375 15.4844 6 15.5ZM6 9.125C6.35938 9.10938 6.63281 8.95312 6.82031 8.65625C6.97656 8.34375 6.97656 8.03125 6.82031 7.71875C6.63281 7.42188 6.35938 7.26562 6 7.25C5.64062 7.26562 5.36719 7.42188 5.17969 7.71875C5.02344 8.03125 5.02344 8.34375 5.17969 8.65625C5.36719 8.95312 5.64062 9.10938 6 9.125ZM3.9375 8.1875C3.96875 7.40625 4.3125 6.8125 4.96875 6.40625C5.65625 6.03125 6.34375 6.03125 7.03125 6.40625C7.6875 6.8125 8.03125 7.40625 8.0625 8.1875C8.03125 8.96875 7.6875 9.5625 7.03125 9.96875C6.34375 10.3438 5.65625 10.3438 4.96875 9.96875C4.3125 9.5625 3.96875 8.96875 3.9375 8.1875Z" fill="black" fill-opacity="0.72"/>
</g>
<defs>
<clipPath id="clip0_1731_1750">
<rect width="12" height="18" fill="white"/>
</clipPath>
</defs>
</svg>
