<svg width="18" height="22" viewBox="0 0 18 22" fill="none" xmlns="http://www.w3.org/2000/svg">
<g id="label-paired / sm / fiat-offramp-sm / regular" clip-path="url(#clip0_1731_2940)">
<path id="icon" d="M2 7.25C2 5.33594 3.55859 3.75 5.5 3.75C7.41406 3.75 9 5.33594 9 7.25C9 7.60547 8.94531 7.93359 8.83594 8.26172L11.4883 10.9141C11.8164 10.8047 12.1445 10.75 12.5 10.75C14.4141 10.75 16 12.3359 16 14.25C16 16.1914 14.4141 17.75 12.5 17.75H4.1875C2.95703 17.75 2 16.793 2 15.5625V7.25ZM2.875 9.57422V15.5625C2.875 16.3008 3.44922 16.875 4.1875 16.875H10.1758C9.4375 16.2461 9 15.3164 9 14.25C9 12.9922 9.65625 11.8984 10.6406 11.2969L8.45312 9.10938C7.85156 10.0938 6.75781 10.75 5.5 10.75C4.43359 10.75 3.50391 10.3125 2.875 9.57422ZM5.5 4.625C4.54297 4.625 3.66797 5.14453 3.20312 5.9375C2.73828 6.75781 2.73828 7.76953 3.20312 8.58984C3.66797 9.38281 4.54297 9.90234 5.47266 9.90234C6.42969 9.90234 7.27734 9.38281 7.76953 8.58984C8.23438 7.76953 8.23438 6.75781 7.76953 5.96484C7.30469 5.14453 6.42969 4.65234 5.5 4.625ZM9.98438 6.51172C10.1484 6.34766 10.4492 6.34766 10.6133 6.51172L12.5 8.39844V7.6875C12.5 7.46875 12.6914 7.25 12.9375 7.25C13.1562 7.25 13.375 7.46875 13.375 7.6875V9.4375C13.375 9.62891 13.2656 9.79297 13.1016 9.84766C12.9375 9.92969 12.7461 9.875 12.6094 9.76562L9.98438 7.14062C9.82031 6.97656 9.82031 6.67578 9.98438 6.51172ZM12.5 11.625C12.1445 11.625 11.8438 11.707 11.543 11.8164H11.5156C10.5586 12.1992 9.875 13.1562 9.875 14.25C9.875 15.6992 11.0508 16.875 12.5 16.875C13.9492 16.875 15.125 15.6992 15.125 14.25C15.125 12.8008 13.9492 11.625 12.5 11.625ZM5.03516 5.19922V5.80078H5.63672V5.19922H6.21094V5.80078C6.42969 5.80078 6.62109 5.88281 6.78516 6.01953C7.14062 6.34766 7.16797 6.89453 6.83984 7.25C7.00391 7.41406 7.08594 7.63281 7.08594 7.85156C7.08594 8.34375 6.67578 8.72656 6.21094 8.72656V9.30078H5.63672V8.72656H5.03516V9.30078H4.46094V8.72656H3.88672V8.125H4.46094V6.375H3.88672V5.80078H4.46094V5.19922H5.03516ZM6.21094 7.55078H5.03516V8.125H6.21094C6.375 8.125 6.51172 7.98828 6.51172 7.82422C6.51172 7.6875 6.375 7.55078 6.21094 7.55078ZM6.21094 6.375H5.03516V6.97656H6.21094C6.375 6.97656 6.51172 6.83984 6.51172 6.67578C6.51172 6.51172 6.375 6.375 6.21094 6.375ZM12.8555 12.0625V12.3906C13.3203 12.5273 13.6211 12.9648 13.6211 13.457V13.5664H12.9102V13.457C12.9102 13.2383 12.7188 13.0469 12.4727 13.0469C12.2539 13.0469 12.0625 13.2383 12.0625 13.457C12.0625 13.7031 12.2539 13.8945 12.4727 13.8945C13.1016 13.8945 13.6211 14.4141 13.6211 15.043C13.6211 15.5352 13.3203 15.9727 12.8555 16.1094V16.4375H12.1172V16.1094C11.6523 15.9727 11.3516 15.5352 11.3516 15.043V14.9336H12.0625V15.043C12.0625 15.2617 12.2539 15.4531 12.4727 15.4531C12.7188 15.4531 12.9102 15.2617 12.9102 15.043C12.9102 14.7969 12.7188 14.6055 12.4727 14.6055C11.8438 14.6055 11.3516 14.0859 11.3516 13.457C11.3516 12.9648 11.6523 12.5273 12.1172 12.3906V12.0625H12.8555Z" fill="black" fill-opacity="0.72"/>
</g>
<defs>
<clipPath id="clip0_1731_2940">
<rect width="18" height="22" fill="white"/>
</clipPath>
</defs>
</svg>
