<svg width="11" height="18" viewBox="0 0 11 18" fill="none" xmlns="http://www.w3.org/2000/svg">
<g id="label-paired / caption / arrow-left-caption / bold" clip-path="url(#clip0_1731_846)">
<path id="icon" d="M0.414062 9.89844C0.304688 9.78906 0.25 9.65625 0.25 9.5C0.25 9.34375 0.304688 9.21094 0.414062 9.10156L4.53906 5.16406C4.82031 4.94531 5.08594 4.94531 5.33594 5.16406C5.55469 5.44531 5.54688 5.71094 5.3125 5.96094L2.21875 8.9375H10.1875C10.5312 8.96875 10.7188 9.15625 10.75 9.5C10.7188 9.84375 10.5312 10.0312 10.1875 10.0625H2.21875L5.33594 13.0391C5.55469 13.2891 5.55469 13.5547 5.33594 13.8359C5.08594 14.0547 4.82812 14.0547 4.5625 13.8359L0.4375 9.89844H0.414062Z" fill="black" fill-opacity="0.72"/>
</g>
<defs>
<clipPath id="clip0_1731_846">
<rect width="11" height="18" fill="white"/>
</clipPath>
</defs>
</svg>
