<svg width="21" height="36" viewBox="0 0 21 36" fill="none" xmlns="http://www.w3.org/2000/svg">
<g id="label-paired / xl / linux-xl" clip-path="url(#clip0_1731_14132)">
<path id="icon" d="M10.3594 11.7656C10.3281 11.7656 10.2969 11.7656 10.2656 11.7656C10.2344 11.7656 10.2031 11.75 10.1719 11.7188C10.1719 11.6875 10.1875 11.6719 10.2188 11.6719C10.3125 11.6094 10.4062 11.6094 10.5 11.6719C10.5625 11.7031 10.6094 11.75 10.6406 11.8125C10.6094 11.8438 10.5625 11.8594 10.5 11.8594C10.4688 11.8594 10.4375 11.8438 10.4062 11.8125C10.375 11.8125 10.3594 11.7969 10.3594 11.7656ZM9.32812 11.8594C9.26562 11.8594 9.21875 11.8438 9.1875 11.8125C9.1875 11.75 9.23438 11.7031 9.32812 11.6719C9.42188 11.6094 9.51562 11.6094 9.60938 11.6719C9.64062 11.6719 9.64062 11.6875 9.60938 11.7188C9.60938 11.75 9.57812 11.7656 9.51562 11.7656C9.51562 11.7656 9.5 11.7656 9.46875 11.7656C9.4375 11.7969 9.42188 11.8125 9.42188 11.8125C9.39062 11.8438 9.35938 11.8594 9.32812 11.8594ZM19.6875 24.9375C20.1875 25.5 20.4219 25.9531 20.3906 26.2969C20.3594 26.6719 20.1562 26.9688 19.7812 27.1875C19.5625 27.3125 19.3281 27.4375 19.0781 27.5625C18.4219 27.8125 17.8594 28.1875 17.3906 28.6875C16.6719 29.5 15.9062 29.9375 15.0938 30C14.2812 30.0625 13.6562 29.7031 13.2188 28.9219C13.1562 28.8281 13.125 28.7188 13.125 28.5938C12.5625 28.5938 12.0625 28.5625 11.625 28.5C11.2188 28.4375 10.8438 28.4062 10.5 28.4062C9.96875 28.4375 9.51562 28.5 9.14062 28.5938C8.82812 28.6562 8.53125 28.7031 8.25 28.7344C8 29.2344 7.59375 29.5469 7.03125 29.6719C6.25 29.8281 5.375 29.6562 4.40625 29.1562C3.8125 28.9062 3.17188 28.75 2.48438 28.6875C2.17188 28.6562 1.89062 28.625 1.64062 28.5938C1.20312 28.5312 0.890625 28.3438 0.703125 28.0312C0.515625 27.6875 0.546875 27.1875 0.796875 26.5312C0.859375 26.2812 0.859375 25.9844 0.796875 25.6406C0.796875 25.6094 0.78125 25.5781 0.75 25.5469C0.71875 25.3594 0.703125 25.1719 0.703125 24.9844C0.703125 24.7969 0.75 24.6094 0.84375 24.4219C1.09375 24.0469 1.39062 23.8125 1.73438 23.7188C1.76562 23.7188 1.79688 23.7031 1.82812 23.6719C2.10938 23.6094 2.34375 23.5 2.53125 23.3438C2.625 23.25 2.71875 23.125 2.8125 22.9688C2.96875 22.75 3.125 22.5625 3.28125 22.4062C3.1875 21.5938 3.28125 20.7656 3.5625 19.9219C3.875 19.0156 4.29688 18.1562 4.82812 17.3438C5.35938 16.5625 5.84375 15.9062 6.28125 15.375C6.96875 14.375 7.32812 13.3594 7.35938 12.3281C7.35938 12.1094 7.34375 11.8125 7.3125 11.4375C7.25 10.75 7.25 9.98438 7.3125 9.14062C7.375 8.32812 7.67188 7.60937 8.20312 6.98438C8.73438 6.35938 9.67188 6.03125 11.0156 6C12.2031 6.03125 13.0469 6.375 13.5469 7.03125C14.0469 7.6875 14.3594 8.46875 14.4844 9.375C14.5781 10.2812 14.6094 11.125 14.5781 11.9062C14.5781 12 14.5781 12.0781 14.5781 12.1406C14.5781 12.8281 14.7188 13.4375 15 13.9688C15.3125 14.5 15.6719 15 16.0781 15.4688C16.1094 15.5 16.125 15.5156 16.125 15.5156C16.5 15.9531 16.8906 16.4688 17.2969 17.0625C17.7031 17.6562 18.0312 18.3125 18.2812 19.0312C18.7812 20.1875 18.8438 21.4219 18.4688 22.7344C18.5312 22.7656 18.5938 22.7969 18.6562 22.8281C18.7188 22.8594 18.7812 22.9062 18.8438 22.9688C19.125 23.25 19.2969 23.5938 19.3594 24C19.3594 24 19.3594 24.0156 19.3594 24.0469C19.4219 24.4219 19.5312 24.7188 19.6875 24.9375ZM10.5 10.0781C10.3438 10.4219 10.2969 10.7656 10.3594 11.1094C10.5469 11.1406 10.75 11.2188 10.9688 11.3438C10.9062 11.0312 10.9375 10.7656 11.0625 10.5469C11.1875 10.3281 11.3438 10.2344 11.5312 10.2656C11.7188 10.2656 11.8594 10.4062 11.9531 10.6875C12.0469 10.9375 12.0469 11.2188 11.9531 11.5312C11.9219 11.5938 11.875 11.6406 11.8125 11.6719C11.7812 11.7031 11.7656 11.7188 11.7656 11.7188C12.0781 11.8438 12.2656 11.9219 12.3281 11.9531C12.7344 11.4531 12.8125 10.8281 12.5625 10.0781C12.2812 9.57812 11.9375 9.32812 11.5312 9.32812C11.0938 9.32812 10.75 9.57812 10.5 10.0781ZM8.57812 9.5625C8.14062 9.625 7.875 9.9375 7.78125 10.5C7.6875 11.0938 7.82812 11.5938 8.20312 12C8.45312 11.8125 8.54688 11.7344 8.48438 11.7656C8.48438 11.7656 8.48438 11.75 8.48438 11.7188C8.29688 11.5312 8.20312 11.2812 8.20312 10.9688C8.23438 10.6562 8.34375 10.4688 8.53125 10.4062C8.6875 10.4062 8.8125 10.5156 8.90625 10.7344C9 10.9219 9.03125 11.125 9 11.3438C9.15625 11.25 9.3125 11.1719 9.46875 11.1094C9.5 10.6719 9.42188 10.2969 9.23438 9.98438C9.04688 9.70312 8.82812 9.5625 8.57812 9.5625ZM7.92188 12.4219V12.375C7.73438 12.5312 7.67188 12.7344 7.73438 12.9844C7.79688 13.2344 8.03125 13.4688 8.4375 13.6875C8.59375 13.7812 8.73438 13.8906 8.85938 14.0156C9.01562 14.1719 9.1875 14.2969 9.375 14.3906C9.5 14.4531 9.65625 14.4844 9.84375 14.4844C10.375 14.4844 10.7969 14.3438 11.1094 14.0625C11.2656 13.9375 11.4375 13.8438 11.625 13.7812C12.1875 13.5938 12.5312 13.3125 12.6562 12.9375C12.7812 12.5312 12.625 12.25 12.1875 12.0938C11.9688 12 11.7812 11.9375 11.625 11.9062C11.4375 11.8438 11.2656 11.7656 11.1094 11.6719C10.6406 11.3594 10.2344 11.2188 9.89062 11.25C9.29688 11.3438 8.89062 11.5469 8.67188 11.8594C8.64062 11.8594 8.625 11.875 8.625 11.9062C8.5625 11.9375 8.42188 12.0312 8.20312 12.1875C8.10938 12.25 8.01562 12.3281 7.92188 12.4219ZM8.10938 28.0781C8.10938 27.7656 8 27.4219 7.78125 27.0469C7.5625 26.7031 7.29688 26.3438 6.98438 25.9688C6.64062 25.5625 6.375 25.1875 6.1875 24.8438L5.25 23.1562C4.9375 22.7188 4.59375 22.4688 4.21875 22.4062C3.875 22.3438 3.60938 22.4531 3.42188 22.7344C3.29688 22.8594 3.1875 22.9844 3.09375 23.1094C2.96875 23.2656 2.84375 23.4219 2.71875 23.5781C2.5 23.7656 2.26562 23.8906 2.01562 23.9531C1.95312 23.9844 1.89062 24.0156 1.82812 24.0469C1.51562 24.1094 1.28125 24.2812 1.125 24.5625C1 24.8125 0.984375 25.125 1.07812 25.5C1.07812 25.5312 1.07812 25.5781 1.07812 25.6406C1.17188 25.9844 1.17188 26.3125 1.07812 26.625C0.890625 27.25 0.859375 27.6719 0.984375 27.8906C1.20312 28.2031 1.70312 28.375 2.48438 28.4062C3.17188 28.4062 3.85938 28.5781 4.54688 28.9219C5.32812 29.2969 6.09375 29.4531 6.84375 29.3906C7.5625 29.2969 7.98438 28.8594 8.10938 28.0781ZM8.01562 26.8594C8.92188 27.4219 9.85938 27.6406 10.8281 27.5156C11.7656 27.3906 12.625 27.0469 13.4062 26.4844C13.4062 26.4844 13.4062 26.4688 13.4062 26.4375C13.5625 25.9375 13.6562 25.5 13.6875 25.125C13.7188 24.4062 13.7969 23.7969 13.9219 23.2969C14.0469 22.6719 14.375 22.2344 14.9062 21.9844C14.9688 21.5156 15.1719 21.25 15.5156 21.1875C15.8281 21.125 16.2344 21.2031 16.7344 21.4219C17.5781 21.7969 17.9219 22.2031 17.7656 22.6406C17.7969 22.6406 17.8125 22.6406 17.8125 22.6406C17.8438 22.6406 17.9062 22.6406 18 22.6406C18.0938 22.2344 17.9688 21.9062 17.625 21.6562C17.3125 21.375 16.9531 21.1562 16.5469 21C16.6719 20.4375 16.6562 19.875 16.5 19.3125C16.3438 18.7188 16.1094 18.1875 15.7969 17.7188C15.4844 17.2188 15.1719 16.8281 14.8594 16.5469C14.7344 16.5469 14.7812 16.6562 15 16.875C15.3125 17.1562 15.6406 17.6719 15.9844 18.4219C16.3281 19.1719 16.3594 19.9844 16.0781 20.8594C15.8906 20.7969 15.7188 20.7656 15.5625 20.7656C15.4375 20.0781 15.2656 19.4688 15.0469 18.9375C14.8281 18.4062 14.6406 18.0156 14.4844 17.7656C14.1719 17.2344 13.8594 16.5312 13.5469 15.6562C13.2031 14.8125 12.9219 14.0156 12.7031 13.2656C12.4844 13.5781 12.1406 13.8125 11.6719 13.9688C11.5469 14.0312 11.3906 14.1094 11.2031 14.2031C11.1094 14.2656 11.0156 14.3281 10.9219 14.3906C10.2344 14.7969 9.57812 14.7812 8.95312 14.3438C8.85938 14.2812 8.78125 14.2188 8.71875 14.1562C8.59375 14.0312 8.46875 13.9375 8.34375 13.875C8.25 13.7812 8.15625 13.7031 8.0625 13.6406C8 14.3906 7.8125 15.1719 7.5 15.9844C7.1875 16.7969 6.875 17.5312 6.5625 18.1875C6.4375 18.4688 6.32812 18.7188 6.23438 18.9375C5.82812 19.875 5.60938 20.8438 5.57812 21.8438C5.10938 21.125 4.95312 20.4062 5.10938 19.6875C5.26562 18.9375 5.46875 18.3594 5.71875 17.9531C6.125 17.1719 6.25 16.8438 6.09375 16.9688C5.875 17.3125 5.64062 17.7344 5.39062 18.2344C5.14062 18.7031 4.95312 19.2188 4.82812 19.7812C4.70312 20.3438 4.70312 20.8906 4.82812 21.4219C4.98438 21.9531 5.375 22.4219 6 22.8281C6.03125 22.8281 6.25 22.9688 6.65625 23.25C7.0625 23.5312 7.4375 23.8906 7.78125 24.3281C8.125 24.7969 8.25 25.1875 8.15625 25.5C8 25.8125 7.73438 25.9531 7.35938 25.9219C7.60938 26.2031 7.82812 26.5156 8.01562 26.8594ZM20.1094 26.2969C20.1406 26.0781 19.9219 25.7031 19.4531 25.1719C19.2344 24.8594 19.1094 24.5156 19.0781 24.1406C19.0156 23.7344 18.875 23.4219 18.6562 23.2031C18.375 22.9844 18.0469 22.9062 17.6719 22.9688C17.6406 22.9688 17.6094 22.9688 17.5781 22.9688C17.3906 23.1875 17.125 23.375 16.7812 23.5312C16.4375 23.7188 16.1094 23.7812 15.7969 23.7188C15.2344 23.5 14.9375 23.0469 14.9062 22.3594C14.9062 22.3594 14.8906 22.3594 14.8594 22.3594C14.5469 22.5469 14.3281 22.875 14.2031 23.3438C14.1094 23.8438 14.0469 24.4531 14.0156 25.1719C13.9844 25.5781 13.8906 26.0156 13.7344 26.4844C13.6719 26.6719 13.6094 26.875 13.5469 27.0938C13.3594 27.6875 13.3438 28.25 13.5 28.7812C13.875 29.4375 14.4062 29.7344 15.0938 29.6719C15.7812 29.6094 16.4688 29.2188 17.1562 28.5C17.7188 27.9062 18.3281 27.4844 18.9844 27.2344C19.6406 26.9844 20.0156 26.6719 20.1094 26.2969ZM8.10938 12.9844C7.98438 12.7969 7.96875 12.6875 8.0625 12.6562C8.125 12.6875 8.17188 12.7344 8.20312 12.7969C8.20312 12.8281 8.21875 12.8594 8.25 12.8906C8.34375 12.9844 8.46875 13.0938 8.625 13.2188C8.90625 13.5 9.29688 13.6562 9.79688 13.6875C10.3281 13.625 10.7812 13.4688 11.1562 13.2188C11.3125 13.125 11.4844 13 11.6719 12.8438C11.7344 12.8125 11.7812 12.7812 11.8125 12.75C11.875 12.6875 11.9219 12.6406 11.9531 12.6094C11.9844 12.5469 12.0312 12.5156 12.0938 12.5156C12.2188 12.5469 12.1719 12.6406 11.9531 12.7969C11.7656 12.9844 11.5312 13.1562 11.25 13.3125C10.8125 13.5938 10.3281 13.75 9.79688 13.7812C9.23438 13.75 8.79688 13.5938 8.48438 13.3125C8.35938 13.1875 8.25 13.0781 8.15625 12.9844C8.125 12.9844 8.10938 12.9844 8.10938 12.9844Z" fill="black" fill-opacity="0.72"/>
</g>
<defs>
<clipPath id="clip0_1731_14132">
<rect width="21" height="36" fill="white"/>
</clipPath>
</defs>
</svg>
