<svg width="12" height="18" viewBox="0 0 12 18" fill="none" xmlns="http://www.w3.org/2000/svg">
<g id="label-paired / caption / image-caption / bold" clip-path="url(#clip0_1731_1771)">
<path id="icon" d="M10.5 5.375H1.5C1.26562 5.39062 1.14062 5.51562 1.125 5.75V13.25L1.24219 13.1094L3.11719 10.4844C3.22656 10.3281 3.375 10.25 3.5625 10.25C3.75 10.25 3.90625 10.3281 4.03125 10.4844L4.73438 11.4922L6.67969 8.96094C6.78906 8.82031 6.9375 8.75 7.125 8.75C7.3125 8.75 7.46094 8.82031 7.57031 8.96094L10.7578 13.0859L10.875 13.25V5.75C10.8594 5.51562 10.7344 5.39062 10.5 5.375ZM1.5 4.25H10.5C10.9219 4.26562 11.2734 4.41406 11.5547 4.69531C11.8359 4.97656 11.9844 5.32812 12 5.75V13.25C11.9844 13.6719 11.8359 14.0234 11.5547 14.3047C11.2734 14.5859 10.9219 14.7344 10.5 14.75H1.5C1.07812 14.7344 0.726562 14.5859 0.445312 14.3047C0.164062 14.0234 0.015625 13.6719 0 13.25V5.75C0.015625 5.32812 0.164062 4.97656 0.445312 4.69531C0.726562 4.41406 1.07812 4.26562 1.5 4.25ZM3.375 8.75C2.95312 8.73438 2.625 8.54688 2.39062 8.1875C2.20312 7.8125 2.20312 7.4375 2.39062 7.0625C2.625 6.70312 2.95312 6.51562 3.375 6.5C3.79688 6.51562 4.125 6.70312 4.35938 7.0625C4.54688 7.4375 4.54688 7.8125 4.35938 8.1875C4.125 8.54688 3.79688 8.73438 3.375 8.75Z" fill="black" fill-opacity="0.72"/>
</g>
<defs>
<clipPath id="clip0_1731_1771">
<rect width="12" height="18" fill="white"/>
</clipPath>
</defs>
</svg>
