<svg width="12" height="18" viewBox="0 0 12 18" fill="none" xmlns="http://www.w3.org/2000/svg">
<g id="label-paired / caption / wallet-caption / bold" clip-path="url(#clip0_1731_1664)">
<path id="icon" d="M2.0625 4.25H10.6875C11.0312 4.28125 11.2188 4.46875 11.25 4.8125C11.2188 5.15625 11.0312 5.34375 10.6875 5.375H2.0625C1.79688 5.375 1.57812 5.46875 1.40625 5.65625C1.21875 5.82812 1.125 6.04688 1.125 6.3125V12.6875C1.125 12.9531 1.21875 13.1719 1.40625 13.3438C1.57812 13.5312 1.79688 13.625 2.0625 13.625H9.9375C10.2031 13.625 10.4219 13.5312 10.5938 13.3438C10.7812 13.1719 10.875 12.9531 10.875 12.6875V8.5625C10.875 8.29688 10.7812 8.07812 10.5938 7.90625C10.4219 7.71875 10.2031 7.625 9.9375 7.625H2.8125C2.46875 7.59375 2.28125 7.40625 2.25 7.0625C2.28125 6.71875 2.46875 6.53125 2.8125 6.5H9.9375C10.5156 6.51562 11 6.71875 11.3906 7.10938C11.7812 7.5 11.9844 7.98438 12 8.5625V12.6875C11.9844 13.2656 11.7812 13.75 11.3906 14.1406C11 14.5312 10.5156 14.7344 9.9375 14.75H2.0625C1.48438 14.7344 1 14.5312 0.609375 14.1406C0.21875 13.75 0.015625 13.2656 0 12.6875V6.3125C0.015625 5.73438 0.21875 5.25 0.609375 4.85938C1 4.46875 1.48438 4.26562 2.0625 4.25ZM9 11.375C8.78125 11.375 8.60156 11.3047 8.46094 11.1641C8.32031 11.0234 8.25 10.8438 8.25 10.625C8.25 10.4062 8.32031 10.2266 8.46094 10.0859C8.60156 9.94531 8.78125 9.875 9 9.875C9.21875 9.875 9.39844 9.94531 9.53906 10.0859C9.67969 10.2266 9.75 10.4062 9.75 10.625C9.75 10.8438 9.67969 11.0234 9.53906 11.1641C9.39844 11.3047 9.21875 11.375 9 11.375Z" fill="black" fill-opacity="0.72"/>
</g>
<defs>
<clipPath id="clip0_1731_1664">
<rect width="12" height="18" fill="white"/>
</clipPath>
</defs>
</svg>
