<svg width="14" height="22" viewBox="0 0 14 22" fill="none" xmlns="http://www.w3.org/2000/svg">
<g id="label-paired / sm / circle-euro-sm / regular" clip-path="url(#clip0_1731_2965)">
<path id="icon" d="M13.125 10.75C13.1068 9.63802 12.8333 8.61719 12.3047 7.6875C11.7578 6.75781 11.0104 6.01042 10.0625 5.44531C9.09635 4.89844 8.07552 4.625 7 4.625C5.92448 4.625 4.90365 4.89844 3.9375 5.44531C2.98958 6.01042 2.24219 6.75781 1.69531 7.6875C1.16667 8.61719 0.893229 9.63802 0.875 10.75C0.893229 11.862 1.16667 12.8828 1.69531 13.8125C2.24219 14.7422 2.98958 15.4896 3.9375 16.0547C4.90365 16.6016 5.92448 16.875 7 16.875C8.07552 16.875 9.09635 16.6016 10.0625 16.0547C11.0104 15.4896 11.7578 14.7422 12.3047 13.8125C12.8333 12.8828 13.1068 11.862 13.125 10.75ZM0 10.75C0.0182292 9.47396 0.328125 8.30729 0.929688 7.25C1.54948 6.19271 2.40625 5.33594 3.5 4.67969C4.61198 4.0599 5.77865 3.75 7 3.75C8.22135 3.75 9.38802 4.0599 10.5 4.67969C11.5938 5.33594 12.4505 6.19271 13.0703 7.25C13.6719 8.30729 13.9818 9.47396 14 10.75C13.9818 12.026 13.6719 13.1927 13.0703 14.25C12.4505 15.3073 11.5938 16.1641 10.5 16.8203C9.38802 17.4401 8.22135 17.75 7 17.75C5.77865 17.75 4.61198 17.4401 3.5 16.8203C2.40625 16.1641 1.54948 15.3073 0.929688 14.25C0.328125 13.1927 0.0182292 12.026 0 10.75ZM3.5 11.1875H4.15625C4.13802 11.0417 4.12891 10.9049 4.12891 10.7773C4.12891 10.6133 4.13802 10.4583 4.15625 10.3125H3.5C3.22656 10.2943 3.08073 10.1484 3.0625 9.875C3.08073 9.60156 3.22656 9.45573 3.5 9.4375H4.42969C4.6849 8.90885 5.05859 8.48958 5.55078 8.17969C6.04297 7.85156 6.59896 7.6875 7.21875 7.6875H8.33984C8.61328 7.70573 8.75911 7.85156 8.77734 8.125C8.75911 8.39844 8.61328 8.54427 8.33984 8.5625H7.21875C6.47135 8.58073 5.88802 8.8724 5.46875 9.4375H7.875C8.14844 9.45573 8.29427 9.60156 8.3125 9.875C8.29427 10.1484 8.14844 10.2943 7.875 10.3125H5.05859C5.02214 10.4583 5.00391 10.6133 5.00391 10.7773C5.00391 10.9232 5.02214 11.0599 5.05859 11.1875H7.875C8.14844 11.2057 8.29427 11.3516 8.3125 11.625C8.29427 11.8984 8.14844 12.0443 7.875 12.0625H5.41406C5.85156 12.6458 6.45312 12.9557 7.21875 12.9922H8.33984C8.61328 13.0104 8.75911 13.1562 8.77734 13.4297C8.75911 13.6849 8.61328 13.8307 8.33984 13.8672H7.21875C6.58073 13.849 6.01562 13.6758 5.52344 13.3477C5.03125 13.0195 4.66667 12.5911 4.42969 12.0625H3.5C3.22656 12.0443 3.08073 11.8984 3.0625 11.625C3.08073 11.3516 3.22656 11.2057 3.5 11.1875Z" fill="black" fill-opacity="0.72"/>
</g>
<defs>
<clipPath id="clip0_1731_2965">
<rect width="14" height="22" fill="white"/>
</clipPath>
</defs>
</svg>
