<svg width="10" height="30" viewBox="0 0 10 30" fill="none" xmlns="http://www.w3.org/2000/svg">
<g id="label-paired / lg / one-lg / regular" clip-path="url(#clip0_1731_4468)">
<path id="icon" d="M5.625 7.375V23H9.375C9.76562 23.026 9.97396 23.2344 10 23.625C9.97396 24.0156 9.76562 24.224 9.375 24.25H5H0.625C0.234375 24.224 0.0260417 24.0156 0 23.625C0.0260417 23.2344 0.234375 23.026 0.625 23H4.375V8.54688L1.60156 10.3828C1.26302 10.5651 0.976562 10.513 0.742188 10.2266C0.559896 9.88802 0.611979 9.60156 0.898438 9.36719L4.64844 6.86719C4.85677 6.73698 5.07812 6.72396 5.3125 6.82812C5.52083 6.95833 5.625 7.14062 5.625 7.375Z" fill="black" fill-opacity="0.72"/>
</g>
<defs>
<clipPath id="clip0_1731_4468">
<rect width="10" height="30" fill="white"/>
</clipPath>
</defs>
</svg>
