<svg width="14" height="24" viewBox="0 0 14 24" fill="none" xmlns="http://www.w3.org/2000/svg">
<g id="label-paired / md / bell-md / bold" clip-path="url(#clip0_1731_3801)">
<path id="icon" d="M7 4C7.29167 4 7.53125 4.09375 7.71875 4.28125C7.90625 4.46875 8 4.70833 8 5V5.5625C9.16667 5.77083 10.1146 6.30208 10.8438 7.15625C11.5938 8.01042 11.9792 9.04167 12 10.25V11.2812C12.0208 12.7396 12.4792 14.0417 13.375 15.1875L13.8438 15.7812C14.0104 16.0312 14.0417 16.2917 13.9375 16.5625C13.7917 16.8333 13.5625 16.9792 13.25 17H0.75C0.4375 16.9792 0.208333 16.8333 0.0625 16.5625C-0.0625 16.2917 -0.03125 16.0312 0.15625 15.7812L0.625 15.1875C1.52083 14.0417 1.97917 12.7396 2 11.2812V10.25C2.02083 9.04167 2.40625 8.01042 3.15625 7.15625C3.88542 6.30208 4.83333 5.77083 6 5.5625V5C6 4.70833 6.09375 4.46875 6.28125 4.28125C6.46875 4.09375 6.70833 4 7 4ZM7 7H6.75C5.83333 7.02083 5.0625 7.33333 4.4375 7.9375C3.83333 8.5625 3.52083 9.33333 3.5 10.25V11.2812C3.47917 12.8229 3.0625 14.2292 2.25 15.5H11.75C10.9167 14.2292 10.5 12.8229 10.5 11.2812V10.25C10.4792 9.33333 10.1667 8.5625 9.5625 7.9375C8.9375 7.33333 8.16667 7.02083 7.25 7H7ZM9 18C9 18.5417 8.80208 19.0104 8.40625 19.4062C8.01042 19.8021 7.54167 20 7 20C6.45833 20 5.98958 19.8021 5.59375 19.4062C5.19792 19.0104 5 18.5417 5 18H7H9Z" fill="black" fill-opacity="0.72"/>
</g>
<defs>
<clipPath id="clip0_1731_3801">
<rect width="14" height="24" fill="white"/>
</clipPath>
</defs>
</svg>
