<svg width="24" height="36" viewBox="0 0 24 36" fill="none" xmlns="http://www.w3.org/2000/svg">
<g id="label-paired / xl / chevrons-up-xl / regular" clip-path="url(#clip0_1731_5921)">
<path id="icon" d="M12.5156 8.48438L21.5156 17.4844C21.8281 17.8281 21.8281 18.1719 21.5156 18.5156C21.1719 18.8281 20.8281 18.8281 20.4844 18.5156L12 10.0781L3.51562 18.5156C3.17188 18.8281 2.82812 18.8281 2.48438 18.5156C2.17188 18.1719 2.17188 17.8281 2.48438 17.4844L11.4844 8.48438C11.8281 8.17188 12.1719 8.17188 12.5156 8.48438ZM21.5156 26.4844C21.8281 26.8281 21.8281 27.1719 21.5156 27.5156C21.1719 27.8281 20.8281 27.8281 20.4844 27.5156L12 19.0781L3.51562 27.5156C3.17188 27.8281 2.82812 27.8281 2.48438 27.5156C2.17188 27.1719 2.17188 26.8281 2.48438 26.4844L11.4844 17.4844C11.8281 17.1719 12.1719 17.1719 12.5156 17.4844L21.5156 26.4844Z" fill="black" fill-opacity="0.72"/>
</g>
<defs>
<clipPath id="clip0_1731_5921">
<rect width="24" height="36" fill="white"/>
</clipPath>
</defs>
</svg>
