<svg width="8" height="18" viewBox="0 0 8 18" fill="none" xmlns="http://www.w3.org/2000/svg">
<g id="label-paired / caption / two-caption / bold" clip-path="url(#clip0_1731_1002)">
<path id="icon" d="M3.71875 5.375C3.0625 5.39062 2.50781 5.61719 2.05469 6.05469L1.21094 6.89844C0.945312 7.11719 0.679688 7.11719 0.414062 6.89844C0.195313 6.63281 0.195313 6.36719 0.414062 6.10156L1.25781 5.28125C1.92969 4.60938 2.75 4.26562 3.71875 4.25H3.88281C4.82031 4.28125 5.60156 4.60156 6.22656 5.21094C6.83594 5.83594 7.15625 6.61719 7.1875 7.55469C7.17188 8.50781 6.82031 9.3125 6.13281 9.96875L2.24219 13.625H7.1875C7.53125 13.6562 7.71875 13.8438 7.75 14.1875C7.71875 14.5312 7.53125 14.7188 7.1875 14.75H0.8125C0.5625 14.7344 0.390625 14.6172 0.296875 14.3984C0.21875 14.1641 0.265625 13.9609 0.4375 13.7891L5.38281 9.14844C5.82031 8.71094 6.04688 8.17969 6.0625 7.55469C6.04688 6.94531 5.83594 6.42969 5.42969 6.00781C5.00781 5.60156 4.49219 5.39062 3.88281 5.375H3.71875Z" fill="black" fill-opacity="0.72"/>
</g>
<defs>
<clipPath id="clip0_1731_1002">
<rect width="8" height="18" fill="white"/>
</clipPath>
</defs>
</svg>
