<svg width="24" height="30" viewBox="0 0 24 30" fill="none" xmlns="http://www.w3.org/2000/svg">
<g id="label-paired / lg / microsoft-store-lg" clip-path="url(#clip0_1731_14039)">
<path id="icon" d="M8.07422 10.5V8.27344C8.07422 6.90625 8.77734 6.47656 10.1055 6.16406C12.0977 5.69531 12.2148 6.98438 12.2148 7.80469V9.67969L12.7227 9.60156V7.84375C12.7227 6.28125 12.2148 5.14844 10.0273 5.65625C8.81641 5.89062 7.60547 6.20312 7.60547 8.23438V10.6172L8.07422 10.5ZM13.1914 7.41406C13.1523 7.21875 13.1133 7.0625 13.1133 6.90625C14.6367 6.71094 14.9102 7.14062 14.9102 8.85938V9.17188L14.4414 9.25V8.85938C14.4414 8.82031 14.4414 8.82031 14.4414 8.78125C14.4414 7.72656 14.4414 7.21875 13.1914 7.41406ZM10.2617 9.32812C10.2617 7.76562 10.8867 7.53125 11.668 7.25781C11.707 7.41406 11.7461 7.57031 11.7461 7.76562C11.043 8.07812 10.7695 8.27344 10.7695 9.32812V9.99219L10.2617 10.0703V9.32812ZM3.93359 11.9453L17.332 9.25L20.0273 10.2266V23.3516L17.332 24.3281L3.93359 21.6719V11.9453ZM6.82422 19.25L9.79297 19.6406V16.7891H6.82422V19.25ZM6.82422 16.3984H9.79297V13.7031L6.82422 14.1328V16.3984ZM10.1836 19.6797L13.9336 20.2266V16.7891H10.1836V19.6797ZM10.1836 16.3984H13.9336V13.1562L10.1836 13.7031V16.3984Z" fill="black" fill-opacity="0.72"/>
</g>
<defs>
<clipPath id="clip0_1731_14039">
<rect width="24" height="30" fill="white"/>
</clipPath>
</defs>
</svg>
