<svg width="25" height="30" viewBox="0 0 25 30" fill="none" xmlns="http://www.w3.org/2000/svg">
<g id="label-paired / lg / bell-on-lg / regular" clip-path="url(#clip0_1731_4831)">
<path id="icon" d="M23.6719 5.85156C23.8281 6.1901 23.737 6.46354 23.3984 6.67188L20.8984 7.92188C20.5339 8.07812 20.2604 7.98698 20.0781 7.64844C19.9219 7.28385 20.013 7.01042 20.3516 6.82812L22.8516 5.57812C23.1901 5.42188 23.4635 5.51302 23.6719 5.85156ZM11.875 6.125C11.901 5.73438 12.1094 5.52604 12.5 5.5C12.8906 5.52604 13.099 5.73438 13.125 6.125V6.78906C14.7396 6.97135 16.0677 7.63542 17.1094 8.78125C18.1771 9.92708 18.724 11.3333 18.75 13V14.1328C18.776 15.9036 19.401 17.4271 20.625 18.7031L20.7422 18.8203C21.0807 19.1589 21.25 19.5625 21.25 20.0312C21.25 20.526 21.0807 20.9297 20.7422 21.2422C20.4297 21.5807 20.026 21.75 19.5312 21.75H5.46875C4.97396 21.75 4.57031 21.5807 4.25781 21.2422C3.91927 20.9297 3.75 20.526 3.75 20.0312C3.75 19.5625 3.91927 19.1458 4.25781 18.7812L4.375 18.7031C5.59896 17.4271 6.22396 15.9036 6.25 14.1328V13C6.30208 11.3333 6.84896 9.92708 7.89062 8.78125C8.93229 7.63542 10.2604 6.97135 11.875 6.78906V6.125ZM12.5 8C11.0938 8.02604 9.90885 8.50781 8.94531 9.44531C8.00781 10.4089 7.52604 11.5938 7.5 13V14.1328C7.47396 16.2422 6.71875 18.0521 5.23438 19.5625L5.15625 19.6797C5.05208 19.7839 5 19.901 5 20.0312C5.02604 20.3177 5.18229 20.474 5.46875 20.5H19.5312C19.8177 20.474 19.974 20.3177 20 20.0312C20 19.901 19.9479 19.7839 19.8438 19.6797L19.7656 19.5625C18.2812 18.0521 17.526 16.2422 17.5 14.1328V13C17.474 11.5938 16.9792 10.4089 16.0156 9.44531C15.0781 8.50781 13.9062 8.02604 12.5 8ZM11.3281 23.4297C11.5365 23.9505 11.9271 24.224 12.5 24.25C13.0729 24.224 13.4635 23.9505 13.6719 23.4297C13.8281 23.0651 14.1016 22.9349 14.4922 23.0391C14.8307 23.1953 14.9479 23.4557 14.8438 23.8203C14.6615 24.3151 14.362 24.7188 13.9453 25.0312C13.5286 25.3438 13.0469 25.5 12.5 25.5C11.9531 25.5 11.4714 25.3438 11.0547 25.0312C10.638 24.7188 10.3385 24.3151 10.1562 23.8203C10.0521 23.4557 10.1693 23.1953 10.5078 23.0391C10.8984 22.9349 11.1719 23.0651 11.3281 23.4297ZM0 12.375C0.0260417 11.9844 0.234375 11.776 0.625 11.75H3.75C4.14062 11.776 4.34896 11.9844 4.375 12.375C4.34896 12.7656 4.14062 12.974 3.75 13H0.625C0.234375 12.974 0.0260417 12.7656 0 12.375ZM21.25 11.75H24.375C24.7656 11.776 24.974 11.9844 25 12.375C24.974 12.7656 24.7656 12.974 24.375 13H21.25C20.8594 12.974 20.651 12.7656 20.625 12.375C20.651 11.9844 20.8594 11.776 21.25 11.75ZM1.60156 6.67188C1.26302 6.46354 1.17188 6.1901 1.32812 5.85156C1.51042 5.51302 1.78385 5.42188 2.14844 5.57812L4.64844 6.82812C4.98698 7.01042 5.07812 7.28385 4.92188 7.64844C4.73958 7.98698 4.46615 8.07812 4.10156 7.92188L1.60156 6.67188Z" fill="black" fill-opacity="0.72"/>
</g>
<defs>
<clipPath id="clip0_1731_4831">
<rect width="25" height="30" fill="white"/>
</clipPath>
</defs>
</svg>
