<svg width="20" height="30" viewBox="0 0 20 30" fill="none" xmlns="http://www.w3.org/2000/svg">
<g id="label-paired / lg / circle-six-lg / bold" clip-path="url(#clip0_1731_4545)">
<path id="icon" d="M18.125 15.5C18.125 14.0156 17.7604 12.6615 17.0312 11.4375C16.3281 10.2135 15.3385 9.22396 14.0625 8.46875C12.7865 7.73958 11.4323 7.375 10 7.375C8.56771 7.375 7.21354 7.73958 5.9375 8.46875C4.66146 9.22396 3.67188 10.2135 2.96875 11.4375C2.23958 12.6615 1.875 14.0156 1.875 15.5C1.875 16.9844 2.23958 18.3385 2.96875 19.5625C3.67188 20.7865 4.66146 21.776 5.9375 22.5312C7.21354 23.2604 8.56771 23.625 10 23.625C11.4323 23.625 12.7865 23.2604 14.0625 22.5312C15.3385 21.776 16.3281 20.7865 17.0312 19.5625C17.7604 18.3385 18.125 16.9844 18.125 15.5ZM0 15.5C0.0260417 13.6771 0.46875 12.0104 1.32812 10.5C2.21354 8.98958 3.4375 7.76562 5 6.82812C6.58854 5.94271 8.25521 5.5 10 5.5C11.7448 5.5 13.4115 5.94271 15 6.82812C16.5625 7.76562 17.7865 8.98958 18.6719 10.5C19.5312 12.0104 19.974 13.6771 20 15.5C19.974 17.3229 19.5312 18.9896 18.6719 20.5C17.7865 22.0104 16.5625 23.2344 15 24.1719C13.4115 25.0573 11.7448 25.5 10 25.5C8.25521 25.5 6.58854 25.0573 5 24.1719C3.4375 23.2344 2.21354 22.0104 1.32812 20.5C0.46875 18.9896 0.0260417 17.3229 0 15.5ZM10 18.625C10.7031 18.599 11.25 18.2865 11.6406 17.6875C11.9531 17.0625 11.9531 16.4375 11.6406 15.8125C11.25 15.2135 10.7031 14.901 10 14.875C9.29688 14.901 8.75 15.2135 8.35938 15.8125C8.04688 16.4375 8.04688 17.0625 8.35938 17.6875C8.75 18.2865 9.29688 18.599 10 18.625ZM6.25 16.75C6.27604 15.4219 6.78385 14.3281 7.77344 13.4688L10.9375 10.7344C11.4062 10.3958 11.849 10.4219 12.2656 10.8125C12.6042 11.2812 12.5781 11.724 12.1875 12.1406L11.0156 13.1562C11.8229 13.3906 12.474 13.8333 12.9688 14.4844C13.4635 15.1094 13.724 15.8646 13.75 16.75C13.724 17.8177 13.3594 18.7031 12.6562 19.4062C11.9531 20.1094 11.0677 20.474 10 20.5C8.93229 20.474 8.04688 20.1094 7.34375 19.4062C6.64062 18.7031 6.27604 17.8177 6.25 16.75Z" fill="black" fill-opacity="0.72"/>
</g>
<defs>
<clipPath id="clip0_1731_4545">
<rect width="20" height="30" fill="white"/>
</clipPath>
</defs>
</svg>
