<svg width="20" height="30" viewBox="0 0 20 30" fill="none" xmlns="http://www.w3.org/2000/svg">
<g id="label-paired / lg / chevrons-right-lg / bold" clip-path="url(#clip0_1731_4369)">
<path id="icon" d="M18.1641 14.8359C18.5286 15.2786 18.5286 15.7214 18.1641 16.1641L10.6641 23.6641C10.2214 24.0286 9.77865 24.0286 9.33594 23.6641C8.97135 23.2214 8.97135 22.7786 9.33594 22.3359L16.1719 15.5L9.33594 8.66406C8.97135 8.22135 8.97135 7.77865 9.33594 7.33594C9.77865 6.97135 10.2214 6.97135 10.6641 7.33594L18.1641 14.8359ZM3.16406 7.33594L10.6641 14.8359C11.0286 15.2786 11.0286 15.7214 10.6641 16.1641L3.16406 23.6641C2.72135 24.0286 2.27865 24.0286 1.83594 23.6641C1.47135 23.2214 1.47135 22.7786 1.83594 22.3359L8.67188 15.5L1.83594 8.66406C1.47135 8.22135 1.47135 7.77865 1.83594 7.33594C2.27865 6.97135 2.72135 6.97135 3.16406 7.33594Z" fill="black" fill-opacity="0.72"/>
</g>
<defs>
<clipPath id="clip0_1731_4369">
<rect width="20" height="30" fill="white"/>
</clipPath>
</defs>
</svg>
