<svg width="24" height="36" viewBox="0 0 24 36" fill="none" xmlns="http://www.w3.org/2000/svg">
<g id="label-paired / xl / triangle-exclamation-xl / regular" clip-path="url(#clip0_1731_6653)">
<path id="icon" d="M1.64062 25.6875C1.54688 25.8438 1.5 26 1.5 26.1562C1.5625 26.6875 1.84375 26.9688 2.34375 27H21.6562C22.1562 26.9688 22.4375 26.6875 22.5 26.1562C22.5 26 22.4688 25.8438 22.4062 25.6875L12.9844 9.5625C12.7344 9.1875 12.4062 9 12 9C11.5938 9 11.2812 9.1875 11.0625 9.5625L1.64062 25.6875ZM0.328125 24.9375L9.75 8.8125C10.2812 7.96875 11.0312 7.53125 12 7.5C12.9688 7.53125 13.7188 7.96875 14.25 8.8125L23.6719 24.9375C23.8906 25.3125 24 25.7188 24 26.1562C23.9688 26.8125 23.7344 27.3594 23.2969 27.7969C22.8594 28.2344 22.3125 28.4688 21.6562 28.5H2.34375C1.6875 28.4688 1.14062 28.2344 0.703125 27.7969C0.265625 27.3594 0.03125 26.8125 0 26.1562C0 25.7188 0.109375 25.3125 0.328125 24.9375ZM12 13.5C12.4688 13.5312 12.7188 13.7812 12.75 14.25V20.25C12.7188 20.7188 12.4688 20.9688 12 21C11.5312 20.9688 11.2812 20.7188 11.25 20.25V14.25C11.2812 13.7812 11.5312 13.5312 12 13.5ZM10.875 24C10.9375 23.3125 11.3125 22.9375 12 22.875C12.6875 22.9375 13.0625 23.3125 13.125 24C13.0625 24.6875 12.6875 25.0625 12 25.125C11.3125 25.0625 10.9375 24.6875 10.875 24Z" fill="black" fill-opacity="0.72"/>
</g>
<defs>
<clipPath id="clip0_1731_6653">
<rect width="24" height="36" fill="white"/>
</clipPath>
</defs>
</svg>
