<svg width="16" height="24" viewBox="0 0 16 24" fill="none" xmlns="http://www.w3.org/2000/svg">
<g id="label-paired / md / shield-check-md / regular" clip-path="url(#clip0_1731_4111)">
<path id="icon" d="M7.625 5.15625L2.09375 7.5C1.71875 7.6875 1.52083 7.97917 1.5 8.375C1.5 9.375 1.66667 10.5417 2 11.875C2.35417 13.1875 2.96875 14.4688 3.84375 15.7188C4.73958 16.9688 5.98958 18 7.59375 18.8125C7.86458 18.9375 8.13542 18.9375 8.40625 18.8125C10.0104 18.0208 11.25 16.9896 12.125 15.7188C13.0208 14.4688 13.6458 13.1875 14 11.875C14.3333 10.5417 14.5 9.375 14.5 8.375C14.4792 7.97917 14.2812 7.6875 13.9062 7.5L8.40625 5.15625C8.13542 5.05208 7.875 5.05208 7.625 5.15625ZM8.78125 4.25L14.3125 6.59375C14.6667 6.73958 14.9479 6.96875 15.1562 7.28125C15.3854 7.59375 15.5 7.95833 15.5 8.375C15.5208 9.4375 15.3438 10.6875 14.9688 12.125C14.5938 13.5625 13.9167 14.9583 12.9375 16.3125C11.9792 17.6875 10.6042 18.8229 8.8125 19.7188C8.27083 19.9688 7.72917 19.9688 7.1875 19.7188C5.39583 18.8229 4.02083 17.6875 3.0625 16.3125C2.08333 14.9583 1.40625 13.5625 1.03125 12.125C0.65625 10.6875 0.479167 9.4375 0.5 8.375C0.5 7.95833 0.614583 7.59375 0.84375 7.28125C1.05208 6.96875 1.33333 6.73958 1.6875 6.59375L7.21875 4.25C7.73958 4.04167 8.26042 4.04167 8.78125 4.25ZM8 9.75C7.54167 9.79167 7.29167 10.0417 7.25 10.5C7.29167 10.9583 7.54167 11.2083 8 11.25C8.45833 11.2083 8.70833 10.9583 8.75 10.5C8.70833 10.0417 8.45833 9.79167 8 9.75ZM9.75 10.5C9.75 10.8958 9.63542 11.25 9.40625 11.5625C9.17708 11.8542 8.875 12.0625 8.5 12.1875V14.5C8.47917 14.8125 8.3125 14.9792 8 15C7.6875 14.9792 7.52083 14.8125 7.5 14.5V12.1875C7.125 12.0625 6.82292 11.8542 6.59375 11.5625C6.36458 11.25 6.25 10.8958 6.25 10.5C6.27083 10 6.4375 9.58333 6.75 9.25C7.08333 8.9375 7.5 8.77083 8 8.75C8.5 8.77083 8.91667 8.9375 9.25 9.25C9.5625 9.58333 9.72917 10 9.75 10.5Z" fill="black" fill-opacity="0.72"/>
</g>
<defs>
<clipPath id="clip0_1731_4111">
<rect width="16" height="24" fill="white"/>
</clipPath>
</defs>
</svg>
