<svg width="16" height="24" viewBox="0 0 16 24" fill="none" xmlns="http://www.w3.org/2000/svg">
<g id="label-paired / md / search-md / regular" clip-path="url(#clip0_1731_3135)">
<path id="icon" d="M12 10.5C12 9.5 11.75 8.58333 11.25 7.75C10.7708 6.91667 10.1042 6.25 9.25 5.75C8.375 5.25 7.45833 5 6.5 5C5.54167 5 4.625 5.25 3.75 5.75C2.89583 6.25 2.22917 6.91667 1.75 7.75C1.25 8.58333 1 9.5 1 10.5C1 11.5 1.25 12.4167 1.75 13.25C2.22917 14.0833 2.89583 14.75 3.75 15.25C4.625 15.75 5.54167 16 6.5 16C7.45833 16 8.375 15.75 9.25 15.25C10.1042 14.75 10.7708 14.0833 11.25 13.25C11.75 12.4167 12 11.5 12 10.5ZM10.7188 15.4375C9.55208 16.4375 8.14583 16.9583 6.5 17C4.66667 16.9583 3.13542 16.3229 1.90625 15.0938C0.677083 13.8646 0.0416667 12.3333 0 10.5C0.0416667 8.66667 0.677083 7.13542 1.90625 5.90625C3.13542 4.67708 4.66667 4.04167 6.5 4C8.33333 4.04167 9.86458 4.67708 11.0938 5.90625C12.3229 7.13542 12.9583 8.66667 13 10.5C12.9583 12.1458 12.4375 13.5521 11.4375 14.7188L15.8438 19.1562C16.0521 19.3854 16.0521 19.6146 15.8438 19.8438C15.6146 20.0521 15.3854 20.0521 15.1562 19.8438L10.7188 15.4375Z" fill="black" fill-opacity="0.72"/>
</g>
<defs>
<clipPath id="clip0_1731_3135">
<rect width="16" height="24" fill="white"/>
</clipPath>
</defs>
</svg>
