<svg width="18" height="22" viewBox="0 0 18 22" fill="none" xmlns="http://www.w3.org/2000/svg">
<g id="label-paired / sm / hands-holding-diamond-sm / regular" clip-path="url(#clip0_1731_2863)">
<path id="icon" d="M9.62891 3.99609L12.2539 6.62109C12.418 6.80339 12.5 7.01302 12.5 7.25C12.5 7.48698 12.418 7.69661 12.2539 7.87891L9.62891 10.5039C9.44661 10.668 9.23698 10.75 9 10.75C8.76302 10.75 8.55339 10.668 8.37109 10.5039L5.74609 7.87891C5.58203 7.69661 5.5 7.48698 5.5 7.25C5.5 7.01302 5.58203 6.80339 5.74609 6.62109L8.37109 3.99609C8.55339 3.83203 8.76302 3.75 9 3.75C9.23698 3.75 9.44661 3.83203 9.62891 3.99609ZM6.375 7.25L9 9.875L11.625 7.25L9 4.625L6.375 7.25ZM2 5.5C2.49219 5.51823 2.90234 5.69141 3.23047 6.01953C3.55859 6.34766 3.73177 6.75781 3.75 7.25V10.6406C3.75 10.7682 3.75911 10.8958 3.77734 11.0234C3.83203 10.9323 3.90495 10.8503 3.99609 10.7773C4.30599 10.4674 4.66146 10.3125 5.0625 10.3125C5.46354 10.3125 5.81901 10.4674 6.12891 10.7773L8.64453 13.2656C8.77214 13.4115 8.89062 13.5664 9 13.7305C9.10938 13.5664 9.22786 13.4115 9.35547 13.2656L11.8711 10.7773C12.181 10.4674 12.5365 10.3125 12.9375 10.3125C13.3385 10.3125 13.694 10.4674 14.0039 10.7773C14.0951 10.8503 14.168 10.9323 14.2227 11.0234C14.2409 10.8958 14.25 10.7682 14.25 10.6406V7.25C14.2682 6.75781 14.4414 6.34766 14.7695 6.01953C15.0977 5.69141 15.5078 5.51823 16 5.5C16.4922 5.51823 16.9023 5.69141 17.2305 6.01953C17.5586 6.34766 17.7318 6.75781 17.75 7.25V13.1562C17.7318 13.9948 17.431 14.7148 16.8477 15.3164L14.5508 17.6133C14.3503 17.7956 14.1497 17.7956 13.9492 17.6133C13.7669 17.4128 13.7669 17.2122 13.9492 17.0117L16.2461 14.7148C16.6654 14.2773 16.875 13.7578 16.875 13.1562V7.25C16.875 6.99479 16.793 6.78516 16.6289 6.62109C16.4648 6.45703 16.2552 6.375 16 6.375C15.7448 6.375 15.5352 6.45703 15.3711 6.62109C15.207 6.78516 15.125 6.99479 15.125 7.25V10.6406C15.1068 11.4062 14.8333 12.0716 14.3047 12.6367L14.0039 12.9102L12.8008 14.1133L12.3633 14.5508C12.1628 14.7331 11.9622 14.7331 11.7617 14.5508C11.5794 14.3503 11.5794 14.1497 11.7617 13.9492L12.1992 13.5117L13.4023 12.3086C13.6576 11.9987 13.6576 11.6888 13.4023 11.3789C13.0924 11.1419 12.7826 11.1419 12.4727 11.3789L9.98438 13.8945C9.61979 14.2591 9.4375 14.6966 9.4375 15.207V17.3125C9.41927 17.5859 9.27344 17.7318 9 17.75C8.72656 17.7318 8.58073 17.5859 8.5625 17.3125V15.207C8.5625 14.6966 8.38021 14.2591 8.01562 13.8945L5.52734 11.3789C5.21745 11.1237 4.90755 11.1237 4.59766 11.3789C4.36068 11.6888 4.36068 11.9987 4.59766 12.3086L5.80078 13.5117L6.23828 13.9492C6.42057 14.1497 6.42057 14.3503 6.23828 14.5508C6.03776 14.7331 5.83724 14.7331 5.63672 14.5508L5.19922 14.1133L3.99609 12.9102L3.69531 12.6367C3.16667 12.0716 2.89323 11.4062 2.875 10.6406V7.25C2.875 6.99479 2.79297 6.78516 2.62891 6.62109C2.46484 6.45703 2.25521 6.375 2 6.375C1.74479 6.375 1.53516 6.45703 1.37109 6.62109C1.20703 6.78516 1.125 6.99479 1.125 7.25V13.1562C1.125 13.7578 1.33464 14.2773 1.75391 14.7148L4.05078 17.0117C4.23307 17.2122 4.23307 17.4128 4.05078 17.6133C3.85026 17.7956 3.64974 17.7956 3.44922 17.6133L1.15234 15.3164C0.56901 14.7148 0.268229 13.9948 0.25 13.1562V7.25C0.268229 6.75781 0.441406 6.34766 0.769531 6.01953C1.09766 5.69141 1.50781 5.51823 2 5.5Z" fill="black" fill-opacity="0.72"/>
</g>
<defs>
<clipPath id="clip0_1731_2863">
<rect width="18" height="22" fill="white"/>
</clipPath>
</defs>
</svg>
