<svg width="12" height="18" viewBox="0 0 12 18" fill="none" xmlns="http://www.w3.org/2000/svg">
<g id="label-paired / caption / at-caption / regular" clip-path="url(#clip0_1731_1358)">
<path id="icon" d="M6 4.25C5.01562 4.26562 4.13281 4.50781 3.35156 4.97656C2.55469 5.42969 1.92969 6.05469 1.47656 6.85156C1.00781 7.63281 0.765625 8.51562 0.75 9.5C0.765625 10.4844 1.00781 11.3672 1.47656 12.1484C1.92969 12.9453 2.55469 13.5703 3.35156 14.0234C4.13281 14.4922 5.01562 14.7344 6 14.75C6.23438 14.7656 6.35938 14.8906 6.375 15.125C6.35938 15.3594 6.23438 15.4844 6 15.5C4.875 15.4844 3.86719 15.2109 2.97656 14.6797C2.07031 14.1484 1.35156 13.4297 0.820312 12.5234C0.289062 11.6328 0.015625 10.625 0 9.5C0.015625 8.375 0.289062 7.36719 0.820312 6.47656C1.35156 5.57031 2.07031 4.85156 2.97656 4.32031C3.86719 3.78906 4.875 3.51563 6 3.5C7.125 3.51563 8.13281 3.78906 9.02344 4.32031C9.92969 4.85156 10.6484 5.57031 11.1797 6.47656C11.7109 7.36719 11.9844 8.375 12 9.5V10.0625C11.9844 10.6406 11.7812 11.125 11.3906 11.5156C11 11.9062 10.5156 12.1094 9.9375 12.125C9.54688 12.125 9.1875 12.0234 8.85938 11.8203C8.54688 11.6328 8.30469 11.375 8.13281 11.0469C7.61719 11.7344 6.90625 12.0938 6 12.125C5.25 12.1094 4.63281 11.8516 4.14844 11.3516C3.64844 10.8672 3.39062 10.25 3.375 9.5C3.39062 8.75 3.64844 8.13281 4.14844 7.64844C4.63281 7.14844 5.25 6.89062 6 6.875C6.75 6.89062 7.375 7.15625 7.875 7.67188V7.625C7.89062 7.39062 8.01562 7.26562 8.25 7.25C8.48438 7.26562 8.60938 7.39062 8.625 7.625V9.5V10.0625C8.64062 10.4375 8.76562 10.75 9 11C9.25 11.2344 9.5625 11.3594 9.9375 11.375C10.3125 11.3594 10.625 11.2344 10.875 11C11.1094 10.75 11.2344 10.4375 11.25 10.0625V9.5C11.2344 8.51562 10.9922 7.63281 10.5234 6.85156C10.0703 6.05469 9.44531 5.42969 8.64844 4.97656C7.86719 4.50781 6.98438 4.26562 6 4.25ZM7.875 9.5C7.85938 8.79688 7.54688 8.25781 6.9375 7.88281C6.3125 7.53906 5.6875 7.53906 5.0625 7.88281C4.45312 8.25781 4.14062 8.79688 4.125 9.5C4.14062 10.2031 4.45312 10.7422 5.0625 11.1172C5.6875 11.4609 6.3125 11.4609 6.9375 11.1172C7.54688 10.7422 7.85938 10.2031 7.875 9.5Z" fill="black" fill-opacity="0.72"/>
</g>
<defs>
<clipPath id="clip0_1731_1358">
<rect width="12" height="18" fill="white"/>
</clipPath>
</defs>
</svg>
