<svg width="24" height="36" viewBox="0 0 24 36" fill="none" xmlns="http://www.w3.org/2000/svg">
<g id="label-paired / xl / scissors-xl / regular" clip-path="url(#clip0_1731_6483)">
<path id="icon" d="M23.8125 26.7188C23.5 27.0625 23.1562 27.0938 22.7812 26.8125L15.6562 20.7656C15.3125 20.4219 15.2812 20.0625 15.5625 19.6875C15.875 19.375 16.2188 19.3594 16.5938 19.6406L23.7188 25.6875C24.0625 26 24.0938 26.3438 23.8125 26.7188ZM13.4531 17.0156L22.7812 9.1875C23.1562 8.90625 23.5 8.9375 23.8125 9.28125C24.0938 9.65625 24.0625 10 23.7188 10.3125L9.79688 22.0781C10.2656 22.8594 10.5 23.75 10.5 24.75C10.4688 26.25 9.95312 27.4844 8.95312 28.4531C7.98438 29.4531 6.75 29.9688 5.25 30C3.75 29.9688 2.51562 29.4531 1.54688 28.4531C0.546875 27.4844 0.03125 26.25 0 24.75C0.03125 23.25 0.546875 22.0156 1.54688 21.0469C2.51562 20.0469 3.75 19.5312 5.25 19.5C6.65625 19.5312 7.84375 20 8.8125 20.9062L12.2812 18L8.8125 15.0938C7.84375 16 6.65625 16.4688 5.25 16.5C3.75 16.4688 2.51562 15.9531 1.54688 14.9531C0.546875 13.9844 0.03125 12.75 0 11.25C0.03125 9.75 0.546875 8.51562 1.54688 7.54688C2.51562 6.54688 3.75 6.03125 5.25 6C6.75 6.03125 7.98438 6.54688 8.95312 7.54688C9.95312 8.51562 10.4688 9.75 10.5 11.25C10.5 12.25 10.2656 13.1406 9.79688 13.9219L13.4531 17.0156ZM5.25 15C6.65625 14.9688 7.73438 14.3438 8.48438 13.125C9.17188 11.875 9.17188 10.625 8.48438 9.375C7.73438 8.15625 6.65625 7.53125 5.25 7.5C3.84375 7.53125 2.76562 8.15625 2.01562 9.375C1.32812 10.625 1.32812 11.875 2.01562 13.125C2.76562 14.3438 3.84375 14.9688 5.25 15ZM5.25 21C3.84375 21.0312 2.76562 21.6562 2.01562 22.875C1.32812 24.125 1.32812 25.375 2.01562 26.625C2.76562 27.8438 3.84375 28.4688 5.25 28.5C6.65625 28.4688 7.73438 27.8438 8.48438 26.625C9.17188 25.375 9.17188 24.125 8.48438 22.875C7.73438 21.6562 6.65625 21.0312 5.25 21Z" fill="black" fill-opacity="0.72"/>
</g>
<defs>
<clipPath id="clip0_1731_6483">
<rect width="24" height="36" fill="white"/>
</clipPath>
</defs>
</svg>
