<svg width="20" height="30" viewBox="0 0 20 30" fill="none" xmlns="http://www.w3.org/2000/svg">
<g id="label-paired / lg / chart-line-up-down-lg / regular" clip-path="url(#clip0_1731_4740)">
<path id="icon" d="M1.25 7.375V21.125C1.27604 21.6458 1.45833 22.0885 1.79688 22.4531C2.16146 22.7917 2.60417 22.974 3.125 23H19.375C19.7656 23.026 19.974 23.2344 20 23.625C19.974 24.0156 19.7656 24.224 19.375 24.25H3.125C2.23958 24.224 1.4974 23.9245 0.898438 23.3516C0.325521 22.7526 0.0260417 22.0104 0 21.125V7.375C0.0260417 6.98438 0.234375 6.77604 0.625 6.75C1.01562 6.77604 1.22396 6.98438 1.25 7.375ZM14.375 9.25C13.9844 9.22396 13.776 9.01562 13.75 8.625C13.776 8.23438 13.9844 8.02604 14.375 8H18.125C18.5156 8.02604 18.724 8.23438 18.75 8.625V12.375C18.724 12.7656 18.5156 12.974 18.125 13C17.7344 12.974 17.526 12.7656 17.5 12.375V10.1484L11.6797 15.9297C11.3932 16.1901 11.1068 16.1901 10.8203 15.9297L8.125 13.2734L4.80469 16.5547C4.51823 16.8151 4.23177 16.8151 3.94531 16.5547C3.6849 16.2682 3.6849 15.9818 3.94531 15.6953L7.69531 11.9453C7.79948 11.8151 7.94271 11.75 8.125 11.75C8.30729 11.75 8.45052 11.8151 8.55469 11.9453L11.25 14.6016L16.6016 9.25H14.375ZM14.375 20.5C13.9844 20.474 13.776 20.2656 13.75 19.875C13.776 19.4844 13.9844 19.276 14.375 19.25H16.6016L13.9453 16.5547L14.8047 15.6953L17.5 18.3516V16.125C17.526 15.7344 17.7344 15.526 18.125 15.5C18.5156 15.526 18.724 15.7344 18.75 16.125V19.875C18.724 20.2656 18.5156 20.474 18.125 20.5H14.375Z" fill="black" fill-opacity="0.72"/>
</g>
<defs>
<clipPath id="clip0_1731_4740">
<rect width="20" height="30" fill="white"/>
</clipPath>
</defs>
</svg>
