<svg width="11" height="22" viewBox="0 0 11 22" fill="none" xmlns="http://www.w3.org/2000/svg">
<g id="label-paired / sm / arrow-down-to-line-sm / regular" clip-path="url(#clip0_1731_2177)">
<path id="icon" d="M0.6875 16.875C0.414062 16.8568 0.268229 16.7109 0.25 16.4375C0.268229 16.1641 0.414062 16.0182 0.6875 16H10.3125C10.5859 16.0182 10.7318 16.1641 10.75 16.4375C10.7318 16.7109 10.5859 16.8568 10.3125 16.875H0.6875ZM5.80078 14.1133C5.60026 14.2956 5.39974 14.2956 5.19922 14.1133L1.69922 10.6133C1.51693 10.4128 1.51693 10.2122 1.69922 10.0117C1.89974 9.82943 2.10026 9.82943 2.30078 10.0117L5.0625 12.7461V9.875V5.0625C5.08073 4.78906 5.22656 4.64323 5.5 4.625C5.77344 4.64323 5.91927 4.78906 5.9375 5.0625V9.875V12.7461L8.69922 10.0117C8.89974 9.82943 9.10026 9.82943 9.30078 10.0117C9.48307 10.2122 9.48307 10.4128 9.30078 10.6133L5.80078 14.1133Z" fill="black" fill-opacity="0.72"/>
</g>
<defs>
<clipPath id="clip0_1731_2177">
<rect width="11" height="22" fill="white"/>
</clipPath>
</defs>
</svg>
