<svg width="20" height="30" viewBox="0 0 20 30" fill="none" xmlns="http://www.w3.org/2000/svg">
<g id="label-paired / lg / barcode-lg / bold" clip-path="url(#clip0_1731_5207)">
<path id="icon" d="M0.9375 6.75C1.51042 6.80208 1.82292 7.11458 1.875 7.6875V23.3125C1.82292 23.8854 1.51042 24.1979 0.9375 24.25C0.364583 24.1979 0.0520833 23.8854 0 23.3125V7.6875C0.0520833 7.11458 0.364583 6.80208 0.9375 6.75ZM4.375 6.75C4.76562 6.77604 4.97396 6.98438 5 7.375V23.625C4.97396 24.0156 4.76562 24.224 4.375 24.25C3.98438 24.224 3.77604 24.0156 3.75 23.625V7.375C3.77604 6.98438 3.98438 6.77604 4.375 6.75ZM7.1875 6.75C7.76042 6.80208 8.07292 7.11458 8.125 7.6875V23.3125C8.07292 23.8854 7.76042 24.1979 7.1875 24.25C6.61458 24.1979 6.30208 23.8854 6.25 23.3125V7.6875C6.30208 7.11458 6.61458 6.80208 7.1875 6.75ZM11.5625 6.75C12.1354 6.80208 12.4479 7.11458 12.5 7.6875V23.3125C12.4479 23.8854 12.1354 24.1979 11.5625 24.25C10.9896 24.1979 10.6771 23.8854 10.625 23.3125V7.6875C10.6771 7.11458 10.9896 6.80208 11.5625 6.75ZM18.125 7.6875C18.1771 7.11458 18.4896 6.80208 19.0625 6.75C19.6354 6.80208 19.9479 7.11458 20 7.6875V23.3125C19.9479 23.8854 19.6354 24.1979 19.0625 24.25C18.4896 24.1979 18.1771 23.8854 18.125 23.3125V7.6875ZM15.625 7.375C15.651 6.98438 15.8594 6.77604 16.25 6.75C16.6406 6.77604 16.849 6.98438 16.875 7.375V23.625C16.849 24.0156 16.6406 24.224 16.25 24.25C15.8594 24.224 15.651 24.0156 15.625 23.625V7.375Z" fill="black" fill-opacity="0.72"/>
</g>
<defs>
<clipPath id="clip0_1731_5207">
<rect width="20" height="30" fill="white"/>
</clipPath>
</defs>
</svg>
