<svg width="14" height="24" viewBox="0 0 14 24" fill="none" xmlns="http://www.w3.org/2000/svg">
<g id="label-paired / md / instagram-md" clip-path="url(#clip0_1731_13967)">
<path id="icon" d="M7 8.40625C8.02083 8.42708 8.86458 8.78125 9.53125 9.46875C10.2188 10.1354 10.5729 10.9792 10.5938 12C10.5729 13.0208 10.2188 13.8646 9.53125 14.5312C8.86458 15.2188 8.02083 15.5729 7 15.5938C5.97917 15.5729 5.13542 15.2188 4.46875 14.5312C3.78125 13.8646 3.42708 13.0208 3.40625 12C3.42708 10.9792 3.78125 10.1354 4.46875 9.46875C5.13542 8.78125 5.97917 8.42708 7 8.40625ZM7 14.3438C7.66667 14.3229 8.21875 14.0938 8.65625 13.6562C9.09375 13.2188 9.32292 12.6667 9.34375 12C9.32292 11.3333 9.09375 10.7812 8.65625 10.3438C8.21875 9.90625 7.66667 9.67708 7 9.65625C6.33333 9.67708 5.78125 9.90625 5.34375 10.3438C4.90625 10.7812 4.67708 11.3333 4.65625 12C4.67708 12.6667 4.90625 13.2188 5.34375 13.6562C5.78125 14.0938 6.33333 14.3229 7 14.3438ZM11.5938 8.25C11.5729 8.02083 11.4896 7.82292 11.3438 7.65625C11.1771 7.51042 10.9792 7.4375 10.75 7.4375C10.5 7.4375 10.3021 7.51042 10.1562 7.65625C9.98958 7.82292 9.90625 8.02083 9.90625 8.25C9.94792 8.77083 10.2292 9.05208 10.75 9.09375C11.25 9.05208 11.5312 8.77083 11.5938 8.25ZM13.9688 9.125V9.09375C13.9896 9.51042 14 10.1042 14 10.875C14 11.625 14 12.375 14 13.125C14 13.875 13.9896 14.4583 13.9688 14.875C13.9688 16.0208 13.5833 17 12.8125 17.8125C12 18.5833 11.0312 18.9583 9.90625 18.9375C9.48958 18.9583 8.89583 18.9792 8.125 19C7.375 19 6.625 19 5.875 19C5.10417 18.9792 4.52083 18.9583 4.125 18.9375C2.97917 18.9583 2 18.5833 1.1875 17.8125C0.416667 17 0.0416667 16.0208 0.0625 14.875C0.0208333 14.4583 0 13.875 0 13.125C0 12.375 0 11.625 0 10.875C0 10.1042 0.0208333 9.51042 0.0625 9.09375C0.0416667 7.96875 0.416667 7 1.1875 6.1875C2.02083 5.41667 3 5.03125 4.125 5.03125C4.52083 5.01042 5.10417 5 5.875 5C6.625 5 7.375 5 8.125 5C8.89583 5 9.48958 5.01042 9.90625 5.03125C11.0312 5.03125 12 5.41667 12.8125 6.1875C13.5833 7 13.9688 7.97917 13.9688 9.125ZM12.4688 16.125C12.6146 15.7083 12.6979 15.1458 12.7188 14.4375C12.7604 13.7292 12.7708 13.0833 12.75 12.5C12.75 12.3125 12.75 12.1458 12.75 12C12.75 11.8542 12.75 11.6875 12.75 11.5C12.7708 10.9167 12.7604 10.2708 12.7188 9.5625C12.6979 8.85417 12.6146 8.29167 12.4688 7.875C12.1979 7.25 11.75 6.80208 11.125 6.53125C10.7083 6.38542 10.1458 6.30208 9.4375 6.28125C8.72917 6.26042 8.08333 6.25 7.5 6.25C7.3125 6.25 7.14583 6.25 7 6.25C6.85417 6.25 6.6875 6.25 6.5 6.25C5.91667 6.22917 5.27083 6.23958 4.5625 6.28125C3.875 6.30208 3.3125 6.38542 2.875 6.53125C2.25 6.80208 1.80208 7.25 1.53125 7.875C1.38542 8.29167 1.30208 8.85417 1.28125 9.5625C1.26042 10.2708 1.25 10.9167 1.25 11.5C1.25 11.6875 1.25 11.8542 1.25 12C1.25 12.1458 1.25 12.3125 1.25 12.5C1.25 13.0833 1.26042 13.7292 1.28125 14.4375C1.30208 15.125 1.38542 15.6875 1.53125 16.125C1.80208 16.75 2.25 17.1979 2.875 17.4688C3.3125 17.6146 3.875 17.6979 4.5625 17.7188C5.27083 17.7396 5.91667 17.75 6.5 17.75C6.6875 17.75 6.85417 17.75 7 17.75C7.14583 17.75 7.3125 17.75 7.5 17.75C8.08333 17.75 8.72917 17.7396 9.4375 17.7188C10.1458 17.6979 10.7083 17.6146 11.125 17.4688C11.75 17.1979 12.1979 16.75 12.4688 16.125Z" fill="black" fill-opacity="0.72"/>
</g>
<defs>
<clipPath id="clip0_1731_13967">
<rect width="14" height="24" fill="white"/>
</clipPath>
</defs>
</svg>
