<svg width="15" height="18" viewBox="0 0 15 18" fill="none" xmlns="http://www.w3.org/2000/svg">
<g id="label-paired / caption / chart-trend-down-caption / bold" clip-path="url(#clip0_1885_532)">
<path id="icon" d="M14.4844 15.2656C14.2031 15.4062 13.875 15.2891 13.7344 15.0078L11.6484 10.8125H8.25C8.01562 10.8125 7.82812 10.6953 7.73438 10.5078L4.99219 5.02344L0.984375 7.01562C0.703125 7.15625 0.375 7.03906 0.234375 6.75781C0.09375 6.47656 0.210938 6.14844 0.492188 6.00781L4.99219 3.75781C5.27344 3.61719 5.60156 3.73438 5.74219 4.01562L8.57812 9.6875H11.9766C12.2109 9.6875 12.3984 9.82812 12.4922 10.0156L14.7422 14.5156C14.8828 14.7969 14.7656 15.125 14.4844 15.2656Z" fill="black" fill-opacity="0.72"/>
</g>
<defs>
<clipPath id="clip0_1885_532">
<rect width="15" height="18" fill="white"/>
</clipPath>
</defs>
</svg>
