<svg width="12" height="18" viewBox="0 0 12 18" fill="none" xmlns="http://www.w3.org/2000/svg">
<g id="label-paired / caption / shield-check-caption / regular" clip-path="url(#clip0_1731_1595)">
<path id="icon" d="M5.71875 4.36719L1.57031 6.125C1.28906 6.26562 1.14062 6.48438 1.125 6.78125C1.125 7.53125 1.25 8.40625 1.5 9.40625C1.76562 10.3906 2.22656 11.3516 2.88281 12.2891C3.55469 13.2266 4.49219 14 5.69531 14.6094C5.89844 14.7031 6.10156 14.7031 6.30469 14.6094C7.50781 14.0156 8.4375 13.2422 9.09375 12.2891C9.76562 11.3516 10.2344 10.3906 10.5 9.40625C10.75 8.40625 10.875 7.53125 10.875 6.78125C10.8594 6.48438 10.7109 6.26562 10.4297 6.125L6.30469 4.36719C6.10156 4.28906 5.90625 4.28906 5.71875 4.36719ZM6.58594 3.6875L10.7344 5.44531C11 5.55469 11.2109 5.72656 11.3672 5.96094C11.5391 6.19531 11.625 6.46875 11.625 6.78125C11.6406 7.57812 11.5078 8.51562 11.2266 9.59375C10.9453 10.6719 10.4375 11.7188 9.70312 12.7344C8.98438 13.7656 7.95312 14.6172 6.60938 15.2891C6.20312 15.4766 5.79688 15.4766 5.39062 15.2891C4.04688 14.6172 3.01562 13.7656 2.29688 12.7344C1.5625 11.7188 1.05469 10.6719 0.773438 9.59375C0.492188 8.51562 0.359375 7.57812 0.375 6.78125C0.375 6.46875 0.460938 6.19531 0.632812 5.96094C0.789062 5.72656 1 5.55469 1.26562 5.44531L5.41406 3.6875C5.80469 3.53125 6.19531 3.53125 6.58594 3.6875ZM6 7.8125C5.65625 7.84375 5.46875 8.03125 5.4375 8.375C5.46875 8.71875 5.65625 8.90625 6 8.9375C6.34375 8.90625 6.53125 8.71875 6.5625 8.375C6.53125 8.03125 6.34375 7.84375 6 7.8125ZM7.3125 8.375C7.3125 8.67188 7.22656 8.9375 7.05469 9.17188C6.88281 9.39062 6.65625 9.54688 6.375 9.64062V11.375C6.35938 11.6094 6.23438 11.7344 6 11.75C5.76562 11.7344 5.64062 11.6094 5.625 11.375V9.64062C5.34375 9.54688 5.11719 9.39062 4.94531 9.17188C4.77344 8.9375 4.6875 8.67188 4.6875 8.375C4.70312 8 4.82812 7.6875 5.0625 7.4375C5.3125 7.20312 5.625 7.07812 6 7.0625C6.375 7.07812 6.6875 7.20312 6.9375 7.4375C7.17188 7.6875 7.29688 8 7.3125 8.375Z" fill="black" fill-opacity="0.72"/>
</g>
<defs>
<clipPath id="clip0_1731_1595">
<rect width="12" height="18" fill="white"/>
</clipPath>
</defs>
</svg>
