<svg width="12" height="18" viewBox="0 0 12 18" fill="none" xmlns="http://www.w3.org/2000/svg">
<g id="label-paired / caption / circle-star-caption / bold" clip-path="url(#clip0_1731_823)">
<path id="icon" d="M6 4.625C5.10938 4.625 4.29688 4.84375 3.5625 5.28125C2.82812 5.70312 2.23438 6.29688 1.78125 7.0625C1.34375 7.82812 1.125 8.64062 1.125 9.5C1.125 10.3594 1.34375 11.1719 1.78125 11.9375C2.23438 12.7031 2.82812 13.2969 3.5625 13.7188C4.29688 14.1562 5.10938 14.375 6 14.375C6.89062 14.375 7.70312 14.1562 8.4375 13.7188C9.17188 13.2969 9.76562 12.7031 10.2188 11.9375C10.6562 11.1719 10.875 10.3594 10.875 9.5C10.875 8.64062 10.6562 7.82812 10.2188 7.0625C9.76562 6.29688 9.17188 5.70312 8.4375 5.28125C7.70312 4.84375 6.89062 4.625 6 4.625ZM6 15.5C4.90625 15.4844 3.90625 15.2188 3 14.7031C2.09375 14.1719 1.35938 13.4375 0.796875 12.5C0.265625 11.5469 0 10.5469 0 9.5C0 8.45312 0.265625 7.45312 0.796875 6.5C1.35938 5.5625 2.09375 4.82812 3 4.29688C3.90625 3.78125 4.90625 3.51563 6 3.5C7.09375 3.51563 8.09375 3.78125 9 4.29688C9.90625 4.82812 10.6406 5.5625 11.2031 6.5C11.7344 7.45312 12 8.45312 12 9.5C12 10.5469 11.7344 11.5469 11.2031 12.5C10.6406 13.4375 9.90625 14.1719 9 14.7031C8.09375 15.2188 7.09375 15.4844 6 15.5ZM6 6.33594C6.15625 6.33594 6.26562 6.40625 6.32812 6.54688L7.07812 8.02344L8.71875 8.25781C8.85938 8.28906 8.95312 8.375 9 8.51562C9.04688 8.67188 9.01562 8.80469 8.90625 8.91406L7.73438 10.0625L8.01562 11.7031C8.03125 11.8438 7.97656 11.9609 7.85156 12.0547C7.72656 12.1484 7.60156 12.1641 7.47656 12.1016L6 11.3281L4.54688 12.0781C4.40625 12.1562 4.27344 12.1484 4.14844 12.0547C4.02344 11.9609 3.96875 11.8438 3.98438 11.7031L4.26562 10.0625L3.09375 8.91406C2.98438 8.80469 2.95312 8.67188 3 8.51562C3.04688 8.375 3.14844 8.28906 3.30469 8.25781L4.92188 8.02344L5.67188 6.54688C5.73438 6.40625 5.84375 6.33594 6 6.33594Z" fill="black" fill-opacity="0.72"/>
</g>
<defs>
<clipPath id="clip0_1731_823">
<rect width="12" height="18" fill="white"/>
</clipPath>
</defs>
</svg>
