<svg width="15" height="18" viewBox="0 0 15 18" fill="none" xmlns="http://www.w3.org/2000/svg">
<g id="label-paired / caption / messages-question-caption / bold" clip-path="url(#clip0_1731_1340)">
<path id="icon" d="M1.6875 4.625C1.34375 4.65625 1.15625 4.84375 1.125 5.1875V9.3125C1.15625 9.65625 1.34375 9.84375 1.6875 9.875H2.8125C3.15625 9.90625 3.34375 10.0938 3.375 10.4375V10.8828L4.75781 9.96875C4.85156 9.90625 4.95312 9.875 5.0625 9.875H8.0625C8.40625 9.84375 8.59375 9.65625 8.625 9.3125V5.1875C8.59375 4.84375 8.40625 4.65625 8.0625 4.625H1.6875ZM0 5.1875C0.015625 4.70312 0.179688 4.30469 0.492188 3.99219C0.804688 3.67969 1.20312 3.51563 1.6875 3.5H8.0625C8.54688 3.51563 8.94531 3.67969 9.25781 3.99219C9.57031 4.30469 9.73438 4.70312 9.75 5.1875V9.3125C9.73438 9.79688 9.57031 10.1953 9.25781 10.5078C8.94531 10.8203 8.54688 10.9844 8.0625 11H5.22656L3.11719 12.4062C2.92969 12.5156 2.74219 12.5234 2.55469 12.4297C2.36719 12.3203 2.26562 12.1562 2.25 11.9375V11H1.6875C1.20312 10.9844 0.804688 10.8203 0.492188 10.5078C0.179688 10.1953 0.015625 9.79688 0 9.3125V5.1875ZM6 11.75H7.125V12.3125C7.15625 12.6562 7.34375 12.8438 7.6875 12.875H9.9375C10.0469 12.875 10.1484 12.9062 10.2422 12.9688L11.625 13.8828V13.4375C11.6562 13.0938 11.8438 12.9062 12.1875 12.875H13.3125C13.6562 12.8438 13.8438 12.6562 13.875 12.3125V8.1875C13.8438 7.84375 13.6562 7.65625 13.3125 7.625H10.5V6.5H13.3125C13.7969 6.51562 14.1953 6.67969 14.5078 6.99219C14.8203 7.30469 14.9844 7.70312 15 8.1875V12.3125C14.9844 12.7969 14.8203 13.1953 14.5078 13.5078C14.1953 13.8203 13.7969 13.9844 13.3125 14H12.75V14.9375C12.7344 15.1562 12.6328 15.3203 12.4453 15.4297C12.2578 15.5234 12.0703 15.5156 11.8828 15.4062L9.77344 14H7.6875C7.20312 13.9844 6.80469 13.8203 6.49219 13.5078C6.17969 13.1953 6.01562 12.7969 6 12.3125V11.75ZM3.46875 5.75C3.625 5.375 3.90625 5.17188 4.3125 5.14062H5.29688C5.57812 5.15625 5.82031 5.25781 6.02344 5.44531C6.21094 5.64844 6.30469 5.89062 6.30469 6.17188C6.30469 6.5625 6.13281 6.85938 5.78906 7.0625L5.25 7.36719V7.39062C5.23438 7.60938 5.10938 7.73438 4.875 7.76562C4.64062 7.73438 4.51562 7.60938 4.5 7.39062V7.15625C4.5 7.01562 4.5625 6.90625 4.6875 6.82812L5.41406 6.40625C5.50781 6.35938 5.55469 6.28125 5.55469 6.17188C5.53906 6 5.45312 5.90625 5.29688 5.89062H4.3125C4.25 5.90625 4.20312 5.94531 4.17188 6.00781V6.03125C4.0625 6.23438 3.89844 6.30469 3.67969 6.24219C3.47656 6.14844 3.40625 5.99219 3.46875 5.77344V5.75ZM4.33594 8.84375C4.33594 8.64062 4.42188 8.47656 4.59375 8.35156C4.78125 8.24219 4.96875 8.24219 5.15625 8.35156C5.32812 8.47656 5.41406 8.64062 5.41406 8.84375C5.41406 9.04688 5.32812 9.21094 5.15625 9.33594C4.96875 9.44531 4.78125 9.44531 4.59375 9.33594C4.42188 9.21094 4.33594 9.04688 4.33594 8.84375Z" fill="black" fill-opacity="0.72"/>
</g>
<defs>
<clipPath id="clip0_1731_1340">
<rect width="15" height="18" fill="white"/>
</clipPath>
</defs>
</svg>
