<svg width="23" height="30" viewBox="0 0 23 30" fill="none" xmlns="http://www.w3.org/2000/svg">
<g id="label-paired / lg / arrow-down-a-z-lg / bold" clip-path="url(#clip0_1731_4606)">
<path id="icon" d="M2.08594 20.2266C1.72135 19.7839 1.72135 19.3411 2.08594 18.8984C2.52865 18.5339 2.97135 18.5339 3.41406 18.8984L5.5625 21.0469V7.6875C5.61458 7.11458 5.92708 6.80208 6.5 6.75C7.07292 6.80208 7.38542 7.11458 7.4375 7.6875V21.0469L9.58594 18.8984C10.0286 18.5339 10.4714 18.5339 10.9141 18.8984C11.2786 19.3411 11.2786 19.7839 10.9141 20.2266L7.16406 23.9766C6.72135 24.3411 6.27865 24.3411 5.83594 23.9766L2.08594 20.2266ZM14 16.75H19C19.3906 16.776 19.6771 16.9583 19.8594 17.2969C19.9896 17.6615 19.9375 18 19.7031 18.3125L16.0703 22.375H19C19.5729 22.4271 19.8854 22.7396 19.9375 23.3125C19.8854 23.8854 19.5729 24.1979 19 24.25H14C13.6094 24.224 13.3229 24.0417 13.1406 23.7031C13.0104 23.3385 13.0625 23 13.2969 22.6875L16.9297 18.625H14C13.4271 18.5729 13.1146 18.2604 13.0625 17.6875C13.1146 17.1146 13.4271 16.8021 14 16.75ZM16.5 6.75C16.8906 6.77604 17.1641 6.94531 17.3203 7.25781L20.4453 13.5078C20.6536 14.0547 20.5234 14.4714 20.0547 14.7578C19.5078 14.9661 19.0911 14.8359 18.8047 14.3672L18.2578 13.3125C18.2057 13.3125 18.1406 13.3125 18.0625 13.3125H14.7422L14.1953 14.3672C13.9089 14.8359 13.4922 14.9792 12.9453 14.7969C12.4766 14.4844 12.3464 14.0547 12.5547 13.5078L15.6797 7.25781C15.862 6.91927 16.1354 6.75 16.5 6.75ZM15.6797 11.4375H17.3203L16.5 9.79688L15.6797 11.4375Z" fill="black" fill-opacity="0.72"/>
</g>
<defs>
<clipPath id="clip0_1731_4606">
<rect width="23" height="30" fill="white"/>
</clipPath>
</defs>
</svg>
