<svg width="8" height="24" viewBox="0 0 8 24" fill="none" xmlns="http://www.w3.org/2000/svg">
<g id="label-paired / md / grip-dots-vertical-md / bold" clip-path="url(#clip0_1731_3052)">
<path id="icon" d="M2 8C1.70833 8 1.46875 7.90625 1.28125 7.71875C1.09375 7.53125 1 7.29167 1 7C1 6.70833 1.09375 6.46875 1.28125 6.28125C1.46875 6.09375 1.70833 6 2 6C2.29167 6 2.53125 6.09375 2.71875 6.28125C2.90625 6.46875 3 6.70833 3 7C3 7.29167 2.90625 7.53125 2.71875 7.71875C2.53125 7.90625 2.29167 8 2 8ZM2 13C1.70833 13 1.46875 12.9062 1.28125 12.7188C1.09375 12.5312 1 12.2917 1 12C1 11.7083 1.09375 11.4688 1.28125 11.2812C1.46875 11.0938 1.70833 11 2 11C2.29167 11 2.53125 11.0938 2.71875 11.2812C2.90625 11.4688 3 11.7083 3 12C3 12.2917 2.90625 12.5312 2.71875 12.7188C2.53125 12.9062 2.29167 13 2 13ZM3 17C3 17.2917 2.90625 17.5312 2.71875 17.7188C2.53125 17.9062 2.29167 18 2 18C1.70833 18 1.46875 17.9062 1.28125 17.7188C1.09375 17.5312 1 17.2917 1 17C1 16.7083 1.09375 16.4688 1.28125 16.2812C1.46875 16.0938 1.70833 16 2 16C2.29167 16 2.53125 16.0938 2.71875 16.2812C2.90625 16.4688 3 16.7083 3 17ZM6 8C5.70833 8 5.46875 7.90625 5.28125 7.71875C5.09375 7.53125 5 7.29167 5 7C5 6.70833 5.09375 6.46875 5.28125 6.28125C5.46875 6.09375 5.70833 6 6 6C6.29167 6 6.53125 6.09375 6.71875 6.28125C6.90625 6.46875 7 6.70833 7 7C7 7.29167 6.90625 7.53125 6.71875 7.71875C6.53125 7.90625 6.29167 8 6 8ZM7 12C7 12.2917 6.90625 12.5312 6.71875 12.7188C6.53125 12.9062 6.29167 13 6 13C5.70833 13 5.46875 12.9062 5.28125 12.7188C5.09375 12.5312 5 12.2917 5 12C5 11.7083 5.09375 11.4688 5.28125 11.2812C5.46875 11.0938 5.70833 11 6 11C6.29167 11 6.53125 11.0938 6.71875 11.2812C6.90625 11.4688 7 11.7083 7 12ZM6 18C5.70833 18 5.46875 17.9062 5.28125 17.7188C5.09375 17.5312 5 17.2917 5 17C5 16.7083 5.09375 16.4688 5.28125 16.2812C5.46875 16.0938 5.70833 16 6 16C6.29167 16 6.53125 16.0938 6.71875 16.2812C6.90625 16.4688 7 16.7083 7 17C7 17.2917 6.90625 17.5312 6.71875 17.7188C6.53125 17.9062 6.29167 18 6 18Z" fill="black" fill-opacity="0.72"/>
</g>
<defs>
<clipPath id="clip0_1731_3052">
<rect width="8" height="24" fill="white"/>
</clipPath>
</defs>
</svg>
