<svg width="18" height="22" viewBox="0 0 18 22" fill="none" xmlns="http://www.w3.org/2000/svg">
<g id="label-paired / sm / messages-question-sm / bold" clip-path="url(#clip0_1731_2598)">
<path id="icon" d="M2.21875 5.0625C1.81771 5.09896 1.59896 5.31771 1.5625 5.71875V10.5312C1.59896 10.9323 1.81771 11.151 2.21875 11.1875H3.53125C3.93229 11.224 4.15104 11.4427 4.1875 11.8438V12.3633L5.80078 11.2969C5.91016 11.224 6.02865 11.1875 6.15625 11.1875H9.65625C10.0573 11.151 10.276 10.9323 10.3125 10.5312V5.71875C10.276 5.31771 10.0573 5.09896 9.65625 5.0625H2.21875ZM0.25 5.71875C0.268229 5.15365 0.459635 4.6888 0.824219 4.32422C1.1888 3.95964 1.65365 3.76823 2.21875 3.75H9.65625C10.2214 3.76823 10.6862 3.95964 11.0508 4.32422C11.4154 4.6888 11.6068 5.15365 11.625 5.71875V10.5312C11.6068 11.0964 11.4154 11.5612 11.0508 11.9258C10.6862 12.2904 10.2214 12.4818 9.65625 12.5H6.34766L3.88672 14.1406C3.66797 14.2682 3.44922 14.2773 3.23047 14.168C3.01172 14.0404 2.89323 13.849 2.875 13.5938V12.5H2.21875C1.65365 12.4818 1.1888 12.2904 0.824219 11.9258C0.459635 11.5612 0.268229 11.0964 0.25 10.5312V5.71875ZM7.25 13.375H8.5625V14.0312C8.59896 14.4323 8.81771 14.651 9.21875 14.6875H11.8438C11.9714 14.6875 12.0898 14.724 12.1992 14.7969L13.8125 15.8633V15.3438C13.849 14.9427 14.0677 14.724 14.4688 14.6875H15.7812C16.1823 14.651 16.401 14.4323 16.4375 14.0312V9.21875C16.401 8.81771 16.1823 8.59896 15.7812 8.5625H12.5V7.25H15.7812C16.3464 7.26823 16.8112 7.45964 17.1758 7.82422C17.5404 8.1888 17.7318 8.65365 17.75 9.21875V14.0312C17.7318 14.5964 17.5404 15.0612 17.1758 15.4258C16.8112 15.7904 16.3464 15.9818 15.7812 16H15.125V17.0938C15.1068 17.349 14.9883 17.5404 14.7695 17.668C14.5508 17.7773 14.332 17.7682 14.1133 17.6406L11.6523 16H9.21875C8.65365 15.9818 8.1888 15.7904 7.82422 15.4258C7.45964 15.0612 7.26823 14.5964 7.25 14.0312V13.375ZM4.29688 6.375C4.47917 5.9375 4.80729 5.70052 5.28125 5.66406H6.42969C6.75781 5.68229 7.04036 5.80078 7.27734 6.01953C7.49609 6.25651 7.60547 6.53906 7.60547 6.86719C7.60547 7.32292 7.40495 7.66927 7.00391 7.90625L6.375 8.26172V8.28906C6.35677 8.54427 6.21094 8.6901 5.9375 8.72656C5.66406 8.6901 5.51823 8.54427 5.5 8.28906V8.01562C5.5 7.85156 5.57292 7.72396 5.71875 7.63281L6.56641 7.14062C6.67578 7.08594 6.73047 6.99479 6.73047 6.86719C6.71224 6.66667 6.61198 6.55729 6.42969 6.53906H5.28125C5.20833 6.55729 5.15365 6.60286 5.11719 6.67578V6.70312C4.98958 6.9401 4.79818 7.02214 4.54297 6.94922C4.30599 6.83984 4.22396 6.65755 4.29688 6.40234V6.375ZM5.30859 9.98438C5.30859 9.7474 5.40885 9.55599 5.60938 9.41016C5.82812 9.28255 6.04688 9.28255 6.26562 9.41016C6.46615 9.55599 6.56641 9.7474 6.56641 9.98438C6.56641 10.2214 6.46615 10.4128 6.26562 10.5586C6.04688 10.6862 5.82812 10.6862 5.60938 10.5586C5.40885 10.4128 5.30859 10.2214 5.30859 9.98438Z" fill="black" fill-opacity="0.72"/>
</g>
<defs>
<clipPath id="clip0_1731_2598">
<rect width="18" height="22" fill="white"/>
</clipPath>
</defs>
</svg>
