<svg width="14" height="22" viewBox="0 0 14 22" fill="none" xmlns="http://www.w3.org/2000/svg">
<g id="label-paired / sm / circle-eight-sm / regular" clip-path="url(#clip0_1731_2338)">
<path id="icon" d="M13.125 10.75C13.1068 9.63802 12.8333 8.61719 12.3047 7.6875C11.7578 6.75781 11.0104 6.01042 10.0625 5.44531C9.09635 4.89844 8.07552 4.625 7 4.625C5.92448 4.625 4.90365 4.89844 3.9375 5.44531C2.98958 6.01042 2.24219 6.75781 1.69531 7.6875C1.16667 8.61719 0.893229 9.63802 0.875 10.75C0.893229 11.862 1.16667 12.8828 1.69531 13.8125C2.24219 14.7422 2.98958 15.4896 3.9375 16.0547C4.90365 16.6016 5.92448 16.875 7 16.875C8.07552 16.875 9.09635 16.6016 10.0625 16.0547C11.0104 15.4896 11.7578 14.7422 12.3047 13.8125C12.8333 12.8828 13.1068 11.862 13.125 10.75ZM0 10.75C0.0182292 9.47396 0.328125 8.30729 0.929688 7.25C1.54948 6.19271 2.40625 5.33594 3.5 4.67969C4.61198 4.0599 5.77865 3.75 7 3.75C8.22135 3.75 9.38802 4.0599 10.5 4.67969C11.5938 5.33594 12.4505 6.19271 13.0703 7.25C13.6719 8.30729 13.9818 9.47396 14 10.75C13.9818 12.026 13.6719 13.1927 13.0703 14.25C12.4505 15.3073 11.5938 16.1641 10.5 16.8203C9.38802 17.4401 8.22135 17.75 7 17.75C5.77865 17.75 4.61198 17.4401 3.5 16.8203C2.40625 16.1641 1.54948 15.3073 0.929688 14.25C0.328125 13.1927 0.0182292 12.026 0 10.75ZM7.32812 7.25C7.85677 7.26823 8.29427 7.45052 8.64062 7.79688C8.98698 8.14323 9.16927 8.58073 9.1875 9.10938C9.16927 9.67448 8.95964 10.1393 8.55859 10.5039C9.10547 10.9049 9.38802 11.4609 9.40625 12.1719C9.38802 12.7552 9.1875 13.2474 8.80469 13.6484C8.40365 14.0312 7.91146 14.2318 7.32812 14.25H6.67188C6.08854 14.2318 5.59635 14.0312 5.19531 13.6484C4.8125 13.2474 4.61198 12.7552 4.59375 12.1719C4.61198 11.4609 4.89453 10.9049 5.44141 10.5039C5.04036 10.1393 4.83073 9.67448 4.8125 9.10938C4.83073 8.58073 5.01302 8.14323 5.35938 7.79688C5.70573 7.45052 6.14323 7.26823 6.67188 7.25H7.32812ZM6.67188 10.0938H7.32812C7.60156 10.0938 7.82943 9.99349 8.01172 9.79297C8.21224 9.61068 8.3125 9.38281 8.3125 9.10938C8.3125 8.83594 8.21224 8.60807 8.01172 8.42578C7.82943 8.22526 7.60156 8.125 7.32812 8.125H6.67188C6.39844 8.125 6.17057 8.22526 5.98828 8.42578C5.78776 8.60807 5.6875 8.83594 5.6875 9.10938C5.6875 9.38281 5.78776 9.61068 5.98828 9.79297C6.17057 9.99349 6.39844 10.0938 6.67188 10.0938ZM7.32812 10.9688H6.67188C6.32552 10.9688 6.04297 11.0872 5.82422 11.3242C5.58724 11.543 5.46875 11.8255 5.46875 12.1719C5.46875 12.5182 5.58724 12.8008 5.82422 13.0195C6.04297 13.2565 6.32552 13.375 6.67188 13.375H7.32812C7.67448 13.375 7.95703 13.2565 8.17578 13.0195C8.41276 12.8008 8.53125 12.5182 8.53125 12.1719C8.53125 11.8255 8.41276 11.543 8.17578 11.3242C7.95703 11.0872 7.67448 10.9688 7.32812 10.9688Z" fill="black" fill-opacity="0.72"/>
</g>
<defs>
<clipPath id="clip0_1731_2338">
<rect width="14" height="22" fill="white"/>
</clipPath>
</defs>
</svg>
