<svg width="11" height="22" viewBox="0 0 11 22" fill="none" xmlns="http://www.w3.org/2000/svg">
<g id="label-paired / sm / computer-mouse-scrollwheel-sm / bold" clip-path="url(#clip0_1731_2659)">
<path id="icon" d="M9.4375 13.375V8.125C9.41927 7.25 9.11849 6.52995 8.53516 5.96484C7.97005 5.38151 7.25 5.08073 6.375 5.0625H4.625C3.75 5.08073 3.02995 5.38151 2.46484 5.96484C1.88151 6.52995 1.58073 7.25 1.5625 8.125V13.375C1.58073 14.25 1.88151 14.9701 2.46484 15.5352C3.02995 16.1185 3.75 16.4193 4.625 16.4375H6.375C7.25 16.4193 7.97005 16.1185 8.53516 15.5352C9.11849 14.9701 9.41927 14.25 9.4375 13.375ZM0.25 8.125C0.286458 6.88542 0.714844 5.85547 1.53516 5.03516C2.35547 4.21484 3.38542 3.78646 4.625 3.75H6.375C7.61458 3.78646 8.64453 4.21484 9.46484 5.03516C10.2852 5.85547 10.7135 6.88542 10.75 8.125V13.375C10.7135 14.6146 10.2852 15.6445 9.46484 16.4648C8.64453 17.2852 7.61458 17.7135 6.375 17.75H4.625C3.38542 17.7135 2.35547 17.2852 1.53516 16.4648C0.714844 15.6445 0.286458 14.6146 0.25 13.375V8.125ZM5.5 6.375C5.75521 6.375 5.96484 6.45703 6.12891 6.62109C6.29297 6.78516 6.375 6.99479 6.375 7.25V8.125C6.375 8.38021 6.29297 8.58984 6.12891 8.75391C5.96484 8.91797 5.75521 9 5.5 9C5.24479 9 5.03516 8.91797 4.87109 8.75391C4.70703 8.58984 4.625 8.38021 4.625 8.125V7.25C4.625 6.99479 4.70703 6.78516 4.87109 6.62109C5.03516 6.45703 5.24479 6.375 5.5 6.375Z" fill="black" fill-opacity="0.72"/>
</g>
<defs>
<clipPath id="clip0_1731_2659">
<rect width="11" height="22" fill="white"/>
</clipPath>
</defs>
</svg>
