<svg width="25" height="30" viewBox="0 0 25 30" fill="none" xmlns="http://www.w3.org/2000/svg">
<g id="label-paired / lg / messages-question-lg / regular" clip-path="url(#clip0_1731_4806)">
<path id="icon" d="M7.92969 16.75H13.75C14.1146 16.75 14.4141 16.6328 14.6484 16.3984C14.8828 16.1641 15 15.8646 15 15.5V8C15 7.63542 14.8828 7.33594 14.6484 7.10156C14.4141 6.86719 14.1146 6.75 13.75 6.75H2.5C2.13542 6.75 1.83594 6.86719 1.60156 7.10156C1.36719 7.33594 1.25 7.63542 1.25 8V15.5C1.25 15.8646 1.36719 16.1641 1.60156 16.3984C1.83594 16.6328 2.13542 16.75 2.5 16.75H3.75C4.11458 16.75 4.41406 16.8672 4.64844 17.1016C4.88281 17.3359 5 17.6354 5 18V18.625L7.1875 16.9844C7.39583 16.8281 7.64323 16.75 7.92969 16.75ZM13.75 18H7.92969L4.76562 20.3828C4.55729 20.513 4.33594 20.526 4.10156 20.4219C3.86719 20.3177 3.75 20.1354 3.75 19.875V19.25V18H2.5C1.79688 17.974 1.21094 17.7266 0.742188 17.2578C0.273438 16.7891 0.0260417 16.2031 0 15.5V8C0.0260417 7.29688 0.273438 6.71094 0.742188 6.24219C1.21094 5.77344 1.79688 5.52604 2.5 5.5H13.75C14.4531 5.52604 15.0391 5.77344 15.5078 6.24219C15.9766 6.71094 16.224 7.29688 16.25 8V15.5C16.224 16.2031 15.9766 16.7891 15.5078 17.2578C15.0391 17.7266 14.4531 17.974 13.75 18ZM12.5 23C11.7969 22.974 11.2109 22.7266 10.7422 22.2578C10.2734 21.7891 10.026 21.2031 10 20.5V19.25H11.25V20.5C11.25 20.8646 11.3672 21.1641 11.6016 21.3984C11.8359 21.6328 12.1354 21.75 12.5 21.75H17.0703C17.3568 21.75 17.6172 21.8281 17.8516 21.9844L20 23.625V23C20 22.6354 20.1172 22.3359 20.3516 22.1016C20.5859 21.8672 20.8854 21.75 21.25 21.75H22.5C22.8646 21.75 23.1641 21.6328 23.3984 21.3984C23.6328 21.1641 23.75 20.8646 23.75 20.5V13C23.75 12.6354 23.6328 12.3359 23.3984 12.1016C23.1641 11.8672 22.8646 11.75 22.5 11.75H17.5V10.5H22.5C23.2031 10.526 23.7891 10.7734 24.2578 11.2422C24.7266 11.7109 24.974 12.2969 25 13V20.5C24.974 21.2031 24.7266 21.7891 24.2578 22.2578C23.7891 22.7266 23.2031 22.974 22.5 23H21.25V24.25V24.875C21.25 25.1354 21.1328 25.3177 20.8984 25.4219C20.6641 25.526 20.4427 25.513 20.2344 25.3828L17.0703 23H12.5ZM7.1875 8.23438C6.51042 8.28646 6.04167 8.625 5.78125 9.25V9.28906C5.67708 9.65365 5.79427 9.91406 6.13281 10.0703C6.52344 10.1745 6.79688 10.0573 6.95312 9.71875V9.67969C7.00521 9.54948 7.08333 9.48438 7.1875 9.48438H8.82812C9.08854 9.51042 9.23177 9.66667 9.25781 9.95312C9.25781 10.1354 9.17969 10.2656 9.02344 10.3438L7.8125 11.0469C7.60417 11.1771 7.5 11.3594 7.5 11.5938V11.9844C7.52604 12.349 7.73438 12.5573 8.125 12.6094C8.51562 12.5573 8.72396 12.349 8.75 11.9844V11.9453L9.64844 11.4375C10.2214 11.099 10.5078 10.6042 10.5078 9.95312C10.5078 9.45833 10.3516 9.05469 10.0391 8.74219C9.70052 8.42969 9.29688 8.26042 8.82812 8.23438H7.1875ZM8.125 15.3047C8.46354 15.3047 8.73698 15.1615 8.94531 14.875C9.1276 14.5625 9.1276 14.25 8.94531 13.9375C8.73698 13.651 8.46354 13.5078 8.125 13.5078C7.78646 13.5078 7.51302 13.651 7.30469 13.9375C7.1224 14.25 7.1224 14.5625 7.30469 14.875C7.51302 15.1615 7.78646 15.3047 8.125 15.3047Z" fill="black" fill-opacity="0.72"/>
</g>
<defs>
<clipPath id="clip0_1731_4806">
<rect width="25" height="30" fill="white"/>
</clipPath>
</defs>
</svg>
