<svg width="12" height="18" viewBox="0 0 12 18" fill="none" xmlns="http://www.w3.org/2000/svg">
<g id="label-paired / caption / circle-arrow-right-caption / regular" clip-path="url(#clip0_1731_934)">
<path id="icon" d="M11.25 9.5C11.2344 8.54688 11 7.67188 10.5469 6.875C10.0781 6.07812 9.4375 5.4375 8.625 4.95312C7.79688 4.48438 6.92188 4.25 6 4.25C5.07812 4.25 4.20312 4.48438 3.375 4.95312C2.5625 5.4375 1.92188 6.07812 1.45312 6.875C1 7.67188 0.765625 8.54688 0.75 9.5C0.765625 10.4531 1 11.3281 1.45312 12.125C1.92188 12.9219 2.5625 13.5625 3.375 14.0469C4.20312 14.5156 5.07812 14.75 6 14.75C6.92188 14.75 7.79688 14.5156 8.625 14.0469C9.4375 13.5625 10.0781 12.9219 10.5469 12.125C11 11.3281 11.2344 10.4531 11.25 9.5ZM0 9.5C0.015625 8.40625 0.28125 7.40625 0.796875 6.5C1.32812 5.59375 2.0625 4.85938 3 4.29688C3.95312 3.76562 4.95312 3.5 6 3.5C7.04688 3.5 8.04688 3.76562 9 4.29688C9.9375 4.85938 10.6719 5.59375 11.2031 6.5C11.7188 7.40625 11.9844 8.40625 12 9.5C11.9844 10.5938 11.7188 11.5938 11.2031 12.5C10.6719 13.4062 9.9375 14.1406 9 14.7031C8.04688 15.2344 7.04688 15.5 6 15.5C4.95312 15.5 3.95312 15.2344 3 14.7031C2.0625 14.1406 1.32812 13.4062 0.796875 12.5C0.28125 11.5938 0.015625 10.5938 0 9.5ZM6.63281 12.0078C6.46094 12.1641 6.28906 12.1641 6.11719 12.0078C5.96094 11.8359 5.96094 11.6641 6.11719 11.4922L7.71094 9.875H3.375C3.14062 9.85938 3.01562 9.73438 3 9.5C3.01562 9.26562 3.14062 9.14062 3.375 9.125H7.71094L6.11719 7.50781C5.96094 7.33594 5.96094 7.16406 6.11719 6.99219C6.28906 6.83594 6.46094 6.83594 6.63281 6.99219L8.88281 9.24219C9.03906 9.41406 9.03906 9.58594 8.88281 9.75781L6.63281 12.0078Z" fill="black" fill-opacity="0.72"/>
</g>
<defs>
<clipPath id="clip0_1731_934">
<rect width="12" height="18" fill="white"/>
</clipPath>
</defs>
</svg>
