<svg width="18" height="30" viewBox="0 0 18 30" fill="none" xmlns="http://www.w3.org/2000/svg">
<g id="label-paired / lg / user-lg / regular" clip-path="url(#clip0_1731_5226)">
<path id="icon" d="M12.75 10.5C12.75 9.82292 12.5807 9.19792 12.2422 8.625C11.9036 8.05208 11.4479 7.59635 10.875 7.25781C10.276 6.91927 9.65104 6.75 9 6.75C8.34896 6.75 7.72396 6.91927 7.125 7.25781C6.55208 7.59635 6.09635 8.05208 5.75781 8.625C5.41927 9.19792 5.25 9.82292 5.25 10.5C5.25 11.1771 5.41927 11.8021 5.75781 12.375C6.09635 12.9479 6.55208 13.4036 7.125 13.7422C7.72396 14.0807 8.34896 14.25 9 14.25C9.65104 14.25 10.276 14.0807 10.875 13.7422C11.4479 13.4036 11.9036 12.9479 12.2422 12.375C12.5807 11.8021 12.75 11.1771 12.75 10.5ZM4 10.5C4 9.58854 4.22135 8.75521 4.66406 8C5.10677 7.24479 5.71875 6.63281 6.5 6.16406C7.28125 5.72135 8.11458 5.5 9 5.5C9.88542 5.5 10.7188 5.72135 11.5 6.16406C12.2812 6.63281 12.8932 7.24479 13.3359 8C13.7786 8.75521 14 9.58854 14 10.5C14 11.4115 13.7786 12.2448 13.3359 13C12.8932 13.7552 12.2812 14.3672 11.5 14.8359C10.7188 15.2786 9.88542 15.5 9 15.5C8.11458 15.5 7.28125 15.2786 6.5 14.8359C5.71875 14.3672 5.10677 13.7552 4.66406 13C4.22135 12.2448 4 11.4115 4 10.5ZM1.5 24.25H16.5C16.4479 22.6615 15.875 21.3333 14.7812 20.2656C13.7135 19.224 12.3854 18.6771 10.7969 18.625H7.20312C5.61458 18.6771 4.28646 19.224 3.21875 20.2656C2.125 21.3333 1.55208 22.6615 1.5 24.25ZM0.25 24.3281C0.302083 22.375 0.979167 20.7344 2.28125 19.4062C3.60938 18.1042 5.25 17.4271 7.20312 17.375H10.7969C12.75 17.4271 14.3906 18.1042 15.7188 19.4062C17.0208 20.7344 17.6979 22.375 17.75 24.3281C17.75 24.6667 17.6328 24.9401 17.3984 25.1484C17.1901 25.3828 16.9167 25.5 16.5781 25.5H1.42188C1.08333 25.5 0.809896 25.3828 0.601562 25.1484C0.367188 24.9401 0.25 24.6667 0.25 24.3281Z" fill="black" fill-opacity="0.72"/>
</g>
<defs>
<clipPath id="clip0_1731_5226">
<rect width="18" height="30" fill="white"/>
</clipPath>
</defs>
</svg>
