<svg width="23" height="30" viewBox="0 0 23 30" fill="none" xmlns="http://www.w3.org/2000/svg">
<g id="label-paired / lg / arrow-up-a-z-lg / regular" clip-path="url(#clip0_1731_4609)">
<path id="icon" d="M6.92969 6.94531L10.6797 10.6953C10.9401 10.9818 10.9401 11.2682 10.6797 11.5547C10.3932 11.8151 10.1068 11.8151 9.82031 11.5547L7.125 8.89844V23.625C7.09896 24.0156 6.89062 24.224 6.5 24.25C6.10938 24.224 5.90104 24.0156 5.875 23.625V8.89844L3.17969 11.5547C2.89323 11.8151 2.60677 11.8151 2.32031 11.5547C2.0599 11.2682 2.0599 10.9818 2.32031 10.6953L6.07031 6.94531C6.35677 6.6849 6.64323 6.6849 6.92969 6.94531ZM14 16.75H19C19.2604 16.75 19.4427 16.8672 19.5469 17.1016C19.651 17.3359 19.638 17.5573 19.5078 17.7656L15.2891 23H19C19.3906 23.026 19.599 23.2344 19.625 23.625C19.599 24.0156 19.3906 24.224 19 24.25H14C13.7396 24.25 13.5573 24.1328 13.4531 23.8984C13.349 23.6641 13.375 23.4427 13.5312 23.2344L17.7109 18H14C13.6094 17.974 13.401 17.7656 13.375 17.375C13.401 16.9844 13.6094 16.776 14 16.75ZM16.5 6.75C16.7604 6.75 16.9427 6.86719 17.0469 7.10156L19.5469 12.1016C19.5729 12.1016 19.5859 12.1016 19.5859 12.1016L20.1719 13.3516C20.3281 13.7161 20.237 13.9896 19.8984 14.1719C19.5599 14.3281 19.2865 14.237 19.0781 13.8984L18.6094 13H14.3906L13.9219 13.8984C13.7396 14.237 13.4661 14.3281 13.1016 14.1719C12.763 13.9896 12.6719 13.7161 12.8281 13.3516L13.4531 12.1016L15.9531 7.10156C16.0573 6.86719 16.2396 6.75 16.5 6.75ZM15.0156 11.75H17.9844L16.5 8.78125L15.0156 11.75Z" fill="black" fill-opacity="0.72"/>
</g>
<defs>
<clipPath id="clip0_1731_4609">
<rect width="23" height="30" fill="white"/>
</clipPath>
</defs>
</svg>
