<svg width="11" height="18" viewBox="0 0 11 18" fill="none" xmlns="http://www.w3.org/2000/svg">
<g id="label-paired / caption / ellipsis-caption / regular" clip-path="url(#clip0_1731_729)">
<path id="icon" d="M10 9.5C10 9.71875 9.92969 9.89844 9.78906 10.0391C9.64844 10.1797 9.46875 10.25 9.25 10.25C9.03125 10.25 8.85156 10.1797 8.71094 10.0391C8.57031 9.89844 8.5 9.71875 8.5 9.5C8.5 9.28125 8.57031 9.10156 8.71094 8.96094C8.85156 8.82031 9.03125 8.75 9.25 8.75C9.46875 8.75 9.64844 8.82031 9.78906 8.96094C9.92969 9.10156 10 9.28125 10 9.5ZM6.25 9.5C6.25 9.71875 6.17969 9.89844 6.03906 10.0391C5.89844 10.1797 5.71875 10.25 5.5 10.25C5.28125 10.25 5.10156 10.1797 4.96094 10.0391C4.82031 9.89844 4.75 9.71875 4.75 9.5C4.75 9.28125 4.82031 9.10156 4.96094 8.96094C5.10156 8.82031 5.28125 8.75 5.5 8.75C5.71875 8.75 5.89844 8.82031 6.03906 8.96094C6.17969 9.10156 6.25 9.28125 6.25 9.5ZM1.75 10.25C1.53125 10.25 1.35156 10.1797 1.21094 10.0391C1.07031 9.89844 1 9.71875 1 9.5C1 9.28125 1.07031 9.10156 1.21094 8.96094C1.35156 8.82031 1.53125 8.75 1.75 8.75C1.96875 8.75 2.14844 8.82031 2.28906 8.96094C2.42969 9.10156 2.5 9.28125 2.5 9.5C2.5 9.71875 2.42969 9.89844 2.28906 10.0391C2.14844 10.1797 1.96875 10.25 1.75 10.25Z" fill="black" fill-opacity="0.72"/>
</g>
<defs>
<clipPath id="clip0_1731_729">
<rect width="11" height="18" fill="white"/>
</clipPath>
</defs>
</svg>
