<svg width="15" height="18" viewBox="0 0 15 18" fill="none" xmlns="http://www.w3.org/2000/svg">
<g id="label-paired / caption / bell-slash-caption / bold" clip-path="url(#clip0_1731_1290)">
<path id="icon" d="M0.914062 3.61719L4.3125 6.28906C4.875 5.39844 5.6875 4.85938 6.75 4.67188V4.25C6.75 4.03125 6.82031 3.85156 6.96094 3.71094C7.10156 3.57031 7.28125 3.5 7.5 3.5C7.71875 3.5 7.89844 3.57031 8.03906 3.71094C8.17969 3.85156 8.25 4.03125 8.25 4.25V4.67188C9.125 4.82812 9.83594 5.22656 10.3828 5.86719C10.9453 6.50781 11.2344 7.28125 11.25 8.1875V8.96094C11.2656 10.0547 11.6094 11.0312 12.2812 11.8906L12.6328 12.3359C12.7578 12.5078 12.7891 12.6875 12.7266 12.875L14.7891 14.4922C15.0391 14.7266 15.0703 14.9922 14.8828 15.2891C14.6484 15.5391 14.3828 15.5703 14.0859 15.3828L0.210938 4.50781C-0.0390625 4.27344 -0.0703125 4.00781 0.117188 3.71094C0.351562 3.46094 0.617188 3.42969 0.914062 3.61719ZM5.20312 6.96875L10.5703 11.1875C10.2734 10.4844 10.125 9.74219 10.125 8.96094V8.1875C10.1094 7.5 9.875 6.92188 9.42188 6.45312C8.95312 6 8.375 5.76562 7.6875 5.75H7.5H7.3125C6.85938 5.75 6.44531 5.85938 6.07031 6.07812C5.69531 6.3125 5.40625 6.60938 5.20312 6.96875ZM9.51562 13.25H2.8125C2.57812 13.2344 2.40625 13.125 2.29688 12.9219C2.21875 12.7188 2.24219 12.5234 2.36719 12.3359L2.71875 11.8906C3.39062 11.0312 3.73438 10.0625 3.75 8.98438V8.70312L4.85156 9.57031C4.74219 10.4922 4.4375 11.3438 3.9375 12.125H8.08594L9.51562 13.25ZM9 14C9 14.4062 8.85156 14.7578 8.55469 15.0547C8.25781 15.3516 7.90625 15.5 7.5 15.5C7.09375 15.5 6.74219 15.3516 6.44531 15.0547C6.14844 14.7578 6 14.4062 6 14H7.5H9Z" fill="black" fill-opacity="0.72"/>
</g>
<defs>
<clipPath id="clip0_1731_1290">
<rect width="15" height="18" fill="white"/>
</clipPath>
</defs>
</svg>
