<svg width="14" height="24" viewBox="0 0 14 24" fill="none" xmlns="http://www.w3.org/2000/svg">
<g id="label-paired / md / linkedin-md" clip-path="url(#clip0_1731_13972)">
<path id="icon" d="M13 5C13.2917 5 13.5312 5.09375 13.7188 5.28125C13.9062 5.48958 14 5.72917 14 6V18C14 18.2708 13.9062 18.5104 13.7188 18.7188C13.5312 18.9062 13.2917 19 13 19H1C0.708333 19 0.46875 18.9062 0.28125 18.7188C0.09375 18.5104 0 18.2708 0 18V6C0 5.72917 0.09375 5.48958 0.28125 5.28125C0.46875 5.09375 0.708333 5 1 5H13ZM4.21875 17H4.25V10.3125H2.15625V17H4.21875ZM3.1875 9.40625C3.54167 9.40625 3.82292 9.29167 4.03125 9.0625C4.26042 8.83333 4.38542 8.55208 4.40625 8.21875C4.38542 7.86458 4.26042 7.57292 4.03125 7.34375C3.82292 7.11458 3.54167 7 3.1875 7C2.85417 7 2.57292 7.11458 2.34375 7.34375C2.11458 7.57292 2 7.86458 2 8.21875C2 8.55208 2.11458 8.83333 2.34375 9.0625C2.57292 9.29167 2.85417 9.40625 3.1875 9.40625ZM12 17V13.3438C12.0417 12.4271 11.8958 11.6667 11.5625 11.0625C11.2292 10.4792 10.5521 10.1771 9.53125 10.1562C9.01042 10.1562 8.58333 10.2708 8.25 10.5C7.91667 10.7083 7.6875 10.9479 7.5625 11.2188H7.53125V10.3125H5.53125V17H7.625V13.6875C7.60417 13.2292 7.66667 12.8333 7.8125 12.5C7.97917 12.1667 8.32292 11.9896 8.84375 11.9688C9.36458 12.0104 9.67708 12.2083 9.78125 12.5625C9.90625 12.9375 9.95833 13.3333 9.9375 13.75V17H12Z" fill="black" fill-opacity="0.72"/>
</g>
<defs>
<clipPath id="clip0_1731_13972">
<rect width="14" height="24" fill="white"/>
</clipPath>
</defs>
</svg>
