<svg width="18" height="30" viewBox="0 0 18 30" fill="none" xmlns="http://www.w3.org/2000/svg">
<g id="label-paired / lg / placeholder-lg / regular" clip-path="url(#clip0_1731_5258)">
<path id="icon" d="M3.6875 6.75H4.625C5.01562 6.77604 5.22396 6.98438 5.25 7.375C5.22396 7.76562 5.01562 7.97396 4.625 8H3.6875C3.0625 8.02604 2.54167 8.23438 2.125 8.625C1.73438 9.04167 1.52604 9.5625 1.5 10.1875V11.125C1.47396 11.5156 1.26562 11.724 0.875 11.75C0.484375 11.724 0.276042 11.5156 0.25 11.125V10.1875C0.276042 9.22396 0.614583 8.41667 1.26562 7.76562C1.91667 7.11458 2.72396 6.77604 3.6875 6.75ZM0.875 13C1.26562 13.026 1.47396 13.2344 1.5 13.625V17.375C1.47396 17.7656 1.26562 17.974 0.875 18C0.484375 17.974 0.276042 17.7656 0.25 17.375V13.625C0.276042 13.2344 0.484375 13.026 0.875 13ZM17.125 13C17.5156 13.026 17.724 13.2344 17.75 13.625V17.375C17.724 17.7656 17.5156 17.974 17.125 18C16.7344 17.974 16.526 17.7656 16.5 17.375V13.625C16.526 13.2344 16.7344 13.026 17.125 13ZM17.125 11.75C16.7344 11.724 16.526 11.5156 16.5 11.125V10.1875C16.474 9.5625 16.2656 9.04167 15.875 8.625C15.4583 8.23438 14.9375 8.02604 14.3125 8H13.375C12.9844 7.97396 12.776 7.76562 12.75 7.375C12.776 6.98438 12.9844 6.77604 13.375 6.75H14.3125C15.276 6.77604 16.0833 7.11458 16.7344 7.76562C17.3854 8.41667 17.724 9.22396 17.75 10.1875V11.125C17.724 11.5156 17.5156 11.724 17.125 11.75ZM17.75 19.875V20.8125C17.724 21.776 17.3854 22.5833 16.7344 23.2344C16.0833 23.8854 15.276 24.224 14.3125 24.25H13.375C12.9844 24.224 12.776 24.0156 12.75 23.625C12.776 23.2344 12.9844 23.026 13.375 23H14.3125C14.9375 22.974 15.4583 22.7656 15.875 22.375C16.2656 21.9583 16.474 21.4375 16.5 20.8125V19.875C16.526 19.4844 16.7344 19.276 17.125 19.25C17.5156 19.276 17.724 19.4844 17.75 19.875ZM1.5 19.875V20.8125C1.52604 21.4375 1.73438 21.9583 2.125 22.375C2.54167 22.7656 3.0625 22.974 3.6875 23H4.625C5.01562 23.026 5.22396 23.2344 5.25 23.625C5.22396 24.0156 5.01562 24.224 4.625 24.25H3.6875C2.72396 24.224 1.91667 23.8854 1.26562 23.2344C0.614583 22.5833 0.276042 21.776 0.25 20.8125V19.875C0.276042 19.4844 0.484375 19.276 0.875 19.25C1.26562 19.276 1.47396 19.4844 1.5 19.875ZM7.125 24.25C6.73438 24.224 6.52604 24.0156 6.5 23.625C6.52604 23.2344 6.73438 23.026 7.125 23H10.875C11.2656 23.026 11.474 23.2344 11.5 23.625C11.474 24.0156 11.2656 24.224 10.875 24.25H7.125ZM6.5 7.375C6.52604 6.98438 6.73438 6.77604 7.125 6.75H10.875C11.2656 6.77604 11.474 6.98438 11.5 7.375C11.474 7.76562 11.2656 7.97396 10.875 8H7.125C6.73438 7.97396 6.52604 7.76562 6.5 7.375Z" fill="black" fill-opacity="0.72"/>
</g>
<defs>
<clipPath id="clip0_1731_5258">
<rect width="18" height="30" fill="white"/>
</clipPath>
</defs>
</svg>
