<svg width="18" height="22" viewBox="0 0 18 22" fill="none" xmlns="http://www.w3.org/2000/svg">
<g id="label-paired / sm / deal-protection-sm / regular" clip-path="url(#clip0_1731_2017)">
<path id="icon" d="M2.76562 7.08594H5.36328C5.82812 7.08594 6.23828 7.16797 6.62109 7.33203C7.00391 7.46875 7.33203 7.71484 7.60547 8.01562C7.87891 8.31641 8.09766 8.69922 8.23438 9.16406C8.37109 9.62891 8.45312 10.1484 8.45312 10.75C8.45312 11.3789 8.37109 11.8984 8.23438 12.3633C8.09766 12.8281 7.87891 13.2109 7.60547 13.5117C7.33203 13.8125 7.00391 14.0312 6.62109 14.1953C6.23828 14.3594 5.82812 14.4414 5.36328 14.4414H2.76562V7.08594ZM5.36328 13.375C5.91016 13.375 6.34766 13.2109 6.67578 12.8555C7.00391 12.5273 7.19531 12.0078 7.19531 11.3516V10.1758C7.19531 9.51953 7.00391 9 6.67578 8.67188C6.34766 8.31641 5.91016 8.15234 5.36328 8.15234H3.94141V13.375H5.36328ZM9.92969 14.4141V7.08594H13.0742C13.7578 7.08594 14.2773 7.30469 14.6602 7.6875C15.0156 8.09766 15.207 8.64453 15.207 9.30078C15.207 9.98438 15.0156 10.5039 14.6602 10.9141C14.2773 11.3242 13.7578 11.5156 13.0742 11.5156H11.1055V14.4141H9.92969ZM11.1055 10.4766H13.0195C13.3203 10.4766 13.5391 10.3945 13.7031 10.2305C13.8672 10.0664 13.9492 9.84766 13.9492 9.54688V9.05469C13.9492 8.75391 13.8672 8.53516 13.7031 8.37109C13.5391 8.20703 13.3203 8.125 13.0195 8.125H11.1055V10.4766Z" fill="black" fill-opacity="0.72"/>
</g>
<defs>
<clipPath id="clip0_1731_2017">
<rect width="18" height="22" fill="white"/>
</clipPath>
</defs>
</svg>
