<svg width="24" height="36" viewBox="0 0 24 36" fill="none" xmlns="http://www.w3.org/2000/svg">
<g id="label-paired / xl / gauge-min-xl / bold" clip-path="url(#clip0_1731_5783)">
<path id="icon" d="M12 8.25C10.2188 8.25 8.59375 8.6875 7.125 9.5625C5.65625 10.4062 4.46875 11.5938 3.5625 13.125C2.6875 14.6562 2.25 16.2812 2.25 18C2.25 19.7188 2.6875 21.3438 3.5625 22.875C4.46875 24.4062 5.65625 25.5938 7.125 26.4375C8.59375 27.3125 10.2188 27.75 12 27.75C13.7812 27.75 15.4062 27.3125 16.875 26.4375C18.3438 25.5938 19.5312 24.4062 20.4375 22.875C21.3125 21.3438 21.75 19.7188 21.75 18C21.75 16.2812 21.3125 14.6562 20.4375 13.125C19.5312 11.5938 18.3438 10.4062 16.875 9.5625C15.4062 8.6875 13.7812 8.25 12 8.25ZM12 30C9.8125 29.9688 7.8125 29.4375 6 28.4062C4.1875 27.3438 2.71875 25.875 1.59375 24C0.53125 22.0938 0 20.0938 0 18C0 15.9062 0.53125 13.9062 1.59375 12C2.71875 10.125 4.1875 8.65625 6 7.59375C7.8125 6.5625 9.8125 6.03125 12 6C14.1875 6.03125 16.1875 6.5625 18 7.59375C19.8125 8.65625 21.2812 10.125 22.4062 12C23.4688 13.9062 24 15.9062 24 18C24 20.0938 23.4688 22.0938 22.4062 24C21.2812 25.875 19.8125 27.3438 18 28.4062C16.1875 29.4375 14.1875 29.9688 12 30ZM13.5 11.25C13.5 11.6875 13.3594 12.0469 13.0781 12.3281C12.7969 12.6094 12.4375 12.75 12 12.75C11.5625 12.75 11.2031 12.6094 10.9219 12.3281C10.6406 12.0469 10.5 11.6875 10.5 11.25C10.5 10.8125 10.6406 10.4531 10.9219 10.1719C11.2031 9.89062 11.5625 9.75 12 9.75C12.4375 9.75 12.7969 9.89062 13.0781 10.1719C13.3594 10.4531 13.5 10.8125 13.5 11.25ZM12 25.125C11.25 25.0938 10.625 24.8438 10.125 24.375C9.65625 23.875 9.40625 23.25 9.375 22.5C9.375 22.375 9.39062 22.2344 9.42188 22.0781L4.26562 18.5625C3.70312 18.125 3.59375 17.6094 3.9375 17.0156C4.375 16.4531 4.90625 16.3438 5.53125 16.6875L10.6875 20.25C11.0625 20 11.5 19.875 12 19.875C12.75 19.9062 13.375 20.1562 13.875 20.625C14.3438 21.125 14.5938 21.75 14.625 22.5C14.5938 23.25 14.3438 23.875 13.875 24.375C13.375 24.8438 12.75 25.0938 12 25.125ZM9 13.5C9 13.9375 8.85938 14.2969 8.57812 14.5781C8.29688 14.8594 7.9375 15 7.5 15C7.0625 15 6.70312 14.8594 6.42188 14.5781C6.14062 14.2969 6 13.9375 6 13.5C6 13.0625 6.14062 12.7031 6.42188 12.4219C6.70312 12.1406 7.0625 12 7.5 12C7.9375 12 8.29688 12.1406 8.57812 12.4219C8.85938 12.7031 9 13.0625 9 13.5ZM18.75 19.5C18.3125 19.5 17.9531 19.3594 17.6719 19.0781C17.3906 18.7969 17.25 18.4375 17.25 18C17.25 17.5625 17.3906 17.2031 17.6719 16.9219C17.9531 16.6406 18.3125 16.5 18.75 16.5C19.1875 16.5 19.5469 16.6406 19.8281 16.9219C20.1094 17.2031 20.25 17.5625 20.25 18C20.25 18.4375 20.1094 18.7969 19.8281 19.0781C19.5469 19.3594 19.1875 19.5 18.75 19.5ZM18 13.5C18 13.9375 17.8594 14.2969 17.5781 14.5781C17.2969 14.8594 16.9375 15 16.5 15C16.0625 15 15.7031 14.8594 15.4219 14.5781C15.1406 14.2969 15 13.9375 15 13.5C15 13.0625 15.1406 12.7031 15.4219 12.4219C15.7031 12.1406 16.0625 12 16.5 12C16.9375 12 17.2969 12.1406 17.5781 12.4219C17.8594 12.7031 18 13.0625 18 13.5Z" fill="black" fill-opacity="0.72"/>
</g>
<defs>
<clipPath id="clip0_1731_5783">
<rect width="24" height="36" fill="white"/>
</clipPath>
</defs>
</svg>
