<svg width="13" height="22" viewBox="0 0 13 22" fill="none" xmlns="http://www.w3.org/2000/svg">
<g id="label-paired / sm / tablet-screen-sm / regular" clip-path="url(#clip0_1731_2637)">
<path id="icon" d="M10.875 4.625H2.125C1.86979 4.625 1.66016 4.70703 1.49609 4.87109C1.33203 5.03516 1.25 5.24479 1.25 5.5V12.5H11.75V5.5C11.75 5.24479 11.668 5.03516 11.5039 4.87109C11.3398 4.70703 11.1302 4.625 10.875 4.625ZM11.75 13.375H1.25V16C1.25 16.2552 1.33203 16.4648 1.49609 16.6289C1.66016 16.793 1.86979 16.875 2.125 16.875H10.875C11.1302 16.875 11.3398 16.793 11.5039 16.6289C11.668 16.4648 11.75 16.2552 11.75 16V13.375ZM2.125 3.75H10.875C11.3672 3.76823 11.7773 3.94141 12.1055 4.26953C12.4336 4.59766 12.6068 5.00781 12.625 5.5V16C12.6068 16.4922 12.4336 16.9023 12.1055 17.2305C11.7773 17.5586 11.3672 17.7318 10.875 17.75H2.125C1.63281 17.7318 1.22266 17.5586 0.894531 17.2305C0.566406 16.9023 0.393229 16.4922 0.375 16V5.5C0.393229 5.00781 0.566406 4.59766 0.894531 4.26953C1.22266 3.94141 1.63281 3.76823 2.125 3.75ZM5.1875 15.125C5.20573 14.8516 5.35156 14.7057 5.625 14.6875H7.375C7.64844 14.7057 7.79427 14.8516 7.8125 15.125C7.79427 15.3984 7.64844 15.5443 7.375 15.5625H5.625C5.35156 15.5443 5.20573 15.3984 5.1875 15.125Z" fill="black" fill-opacity="0.72"/>
</g>
<defs>
<clipPath id="clip0_1731_2637">
<rect width="13" height="22" fill="white"/>
</clipPath>
</defs>
</svg>
