<svg width="24" height="36" viewBox="0 0 24 36" fill="none" xmlns="http://www.w3.org/2000/svg">
<g id="label-paired / xl / sun-bright-xl / regular" clip-path="url(#clip0_1731_5766)">
<path id="icon" d="M12 6C12.4688 6.03125 12.7188 6.28125 12.75 6.75V10.5C12.7188 10.9688 12.4688 11.2188 12 11.25C11.5312 11.2188 11.2812 10.9688 11.25 10.5V6.75C11.2812 6.28125 11.5312 6.03125 12 6ZM0 18C0.03125 17.5312 0.28125 17.2812 0.75 17.25H4.5C4.96875 17.2812 5.21875 17.5312 5.25 18C5.21875 18.4688 4.96875 18.7188 4.5 18.75H0.75C0.28125 18.7188 0.03125 18.4688 0 18ZM18.75 18C18.7812 17.5312 19.0312 17.2812 19.5 17.25H23.25C23.7188 17.2812 23.9688 17.5312 24 18C23.9688 18.4688 23.7188 18.7188 23.25 18.75H19.5C19.0312 18.7188 18.7812 18.4688 18.75 18ZM12 24.75C12.4688 24.7812 12.7188 25.0312 12.75 25.5V29.25C12.7188 29.7188 12.4688 29.9688 12 30C11.5312 29.9688 11.2812 29.7188 11.25 29.25V25.5C11.2812 25.0312 11.5312 24.7812 12 24.75ZM3.51562 9.51562C3.85938 9.23438 4.21875 9.23438 4.59375 9.51562L7.21875 12.1875C7.5 12.5312 7.5 12.875 7.21875 13.2188C6.875 13.5312 6.53125 13.5312 6.1875 13.2188L3.51562 10.5938C3.23438 10.2188 3.23438 9.85938 3.51562 9.51562ZM3.51562 26.4844C3.23438 26.1406 3.23438 25.7812 3.51562 25.4062L6.1875 22.7812C6.53125 22.5 6.875 22.5 7.21875 22.7812C7.53125 23.125 7.53125 23.4688 7.21875 23.8125L4.59375 26.4844C4.21875 26.7656 3.85938 26.7656 3.51562 26.4844ZM16.7812 13.2188C16.5 12.875 16.5 12.5312 16.7812 12.1875L19.4062 9.51562C19.7812 9.23438 20.1406 9.23438 20.4844 9.51562C20.7656 9.85938 20.7656 10.2188 20.4844 10.5938L17.8125 13.2188C17.4688 13.5 17.125 13.5 16.7812 13.2188ZM16.7812 22.7812C17.125 22.5 17.4688 22.5 17.8125 22.7812L20.4844 25.4062C20.7656 25.7812 20.7656 26.1406 20.4844 26.4844C20.1406 26.7656 19.7812 26.7656 19.4062 26.4844L16.7812 23.8125C16.5 23.4688 16.5 23.125 16.7812 22.7812ZM15.75 18C15.7188 16.5938 15.0938 15.5156 13.875 14.7656C12.625 14.0781 11.375 14.0781 10.125 14.7656C8.90625 15.5156 8.28125 16.5938 8.25 18C8.28125 19.4062 8.90625 20.4844 10.125 21.2344C11.375 21.9219 12.625 21.9219 13.875 21.2344C15.0938 20.4844 15.7188 19.4062 15.75 18ZM6.75 18C6.75 17.0625 6.98438 16.1875 7.45312 15.375C7.92188 14.5625 8.5625 13.9219 9.375 13.4531C10.1875 12.9844 11.0625 12.75 12 12.75C12.9375 12.75 13.8125 12.9844 14.625 13.4531C15.4375 13.9219 16.0781 14.5625 16.5469 15.375C17.0156 16.1875 17.25 17.0625 17.25 18C17.25 18.9375 17.0156 19.8125 16.5469 20.625C16.0781 21.4375 15.4375 22.0781 14.625 22.5469C13.8125 23.0156 12.9375 23.25 12 23.25C11.0625 23.25 10.1875 23.0156 9.375 22.5469C8.5625 22.0781 7.92188 21.4375 7.45312 20.625C6.98438 19.8125 6.75 18.9375 6.75 18Z" fill="black" fill-opacity="0.72"/>
</g>
<defs>
<clipPath id="clip0_1731_5766">
<rect width="24" height="36" fill="white"/>
</clipPath>
</defs>
</svg>
