<svg width="13" height="30" viewBox="0 0 13 30" fill="none" xmlns="http://www.w3.org/2000/svg">
<g id="label-paired / lg / three-lg / regular" clip-path="url(#clip0_1731_4478)">
<path id="icon" d="M0.25 7.375C0.276042 6.98438 0.484375 6.77604 0.875 6.75H11.5C11.7865 6.75 11.9818 6.88021 12.0859 7.14062C12.1641 7.40104 12.112 7.63542 11.9297 7.84375L4.97656 14.25H7.75C9.15625 14.276 10.3411 14.7578 11.3047 15.6953C12.2422 16.6589 12.724 17.8438 12.75 19.25C12.724 20.6562 12.2422 21.8411 11.3047 22.8047C10.3411 23.7422 9.15625 24.224 7.75 24.25H3.72656C3.02344 24.25 2.3724 24.0677 1.77344 23.7031C1.17448 23.3385 0.71875 22.8307 0.40625 22.1797L0.328125 22.0234C0.171875 21.6589 0.263021 21.3854 0.601562 21.2031C0.940104 21.0469 1.21354 21.138 1.42188 21.4766L1.5 21.6328C1.99479 22.5182 2.73698 22.974 3.72656 23H7.75C8.81771 22.974 9.70312 22.6094 10.4062 21.9062C11.1094 21.2031 11.474 20.3177 11.5 19.25C11.474 18.1823 11.1094 17.2969 10.4062 16.5938C9.70312 15.8906 8.81771 15.526 7.75 15.5H3.375C3.08854 15.5 2.89323 15.3698 2.78906 15.1094C2.71094 14.849 2.76302 14.6146 2.94531 14.4062L9.89844 8H0.875C0.484375 7.97396 0.276042 7.76562 0.25 7.375Z" fill="black" fill-opacity="0.72"/>
</g>
<defs>
<clipPath id="clip0_1731_4478">
<rect width="13" height="30" fill="white"/>
</clipPath>
</defs>
</svg>
