<svg width="25" height="30" viewBox="0 0 25 30" fill="none" xmlns="http://www.w3.org/2000/svg">
<g id="label-paired / lg / language-lg / bold" clip-path="url(#clip0_1731_4803)">
<path id="icon" d="M2.5 8H10.625H11.875H12.5H22.5C23.2031 8.02604 23.7891 8.27344 24.2578 8.74219C24.7266 9.21094 24.974 9.79688 25 10.5V20.5C24.974 21.2031 24.7266 21.7891 24.2578 22.2578C23.7891 22.7266 23.2031 22.974 22.5 23H12.5H11.875H10.625H2.5C1.79688 22.974 1.21094 22.7266 0.742188 22.2578C0.273438 21.7891 0.0260417 21.2031 0 20.5V10.5C0.0260417 9.79688 0.273438 9.21094 0.742188 8.74219C1.21094 8.27344 1.79688 8.02604 2.5 8ZM22.5 9.875H12.5V21.125H22.5C22.8906 21.099 23.099 20.8906 23.125 20.5V10.5C23.099 10.1094 22.8906 9.90104 22.5 9.875ZM6.95312 12.375C6.82292 12.0885 6.58854 11.9323 6.25 11.9062C5.91146 11.9323 5.67708 12.0885 5.54688 12.375L3.04688 18C2.89062 18.4427 3.02083 18.7812 3.4375 19.0156C3.88021 19.1719 4.21875 19.0417 4.45312 18.625L4.80469 17.8438H7.69531L8.04688 18.625C8.28125 19.0417 8.61979 19.1719 9.0625 19.0156C9.47917 18.7812 9.60938 18.4427 9.45312 18L6.95312 12.375ZM6.99219 16.2812H5.50781L6.25 14.6016L6.99219 16.2812ZM17.8125 11.9062C18.2812 11.9583 18.5417 12.2188 18.5938 12.6875V12.8438H20.3125H20.9375C21.4062 12.8958 21.6667 13.1562 21.7188 13.625C21.6667 14.0938 21.4062 14.3542 20.9375 14.4062H20.8594L20.7812 14.6016C20.4427 15.5391 19.9349 16.3854 19.2578 17.1406C19.2578 17.1406 19.2708 17.1536 19.2969 17.1797C19.3229 17.1797 19.3359 17.1927 19.3359 17.2188L20.0781 17.6484C20.4688 17.9349 20.5599 18.2865 20.3516 18.7031C20.0651 19.0938 19.7135 19.1849 19.2969 18.9766L18.5547 18.5469C18.3724 18.4427 18.2031 18.3255 18.0469 18.1953C17.6302 18.5078 17.1875 18.7682 16.7188 18.9766L16.5625 19.0156C16.1198 19.1719 15.7812 19.0417 15.5469 18.625C15.3906 18.1823 15.5208 17.8438 15.9375 17.6094L16.0938 17.5312C16.3281 17.4271 16.5625 17.2969 16.7969 17.1406L16.3281 16.6719C16.0156 16.3073 16.0156 15.9427 16.3281 15.5781C16.6927 15.2656 17.0573 15.2656 17.4219 15.5781L18.0078 16.1641C18.5026 15.6432 18.8932 15.0573 19.1797 14.4062H17.8125H15C14.5312 14.3542 14.2708 14.0938 14.2188 13.625C14.2708 13.1562 14.5312 12.8958 15 12.8438H17.0312V12.6875C17.0833 12.2188 17.3438 11.9583 17.8125 11.9062Z" fill="black" fill-opacity="0.72"/>
</g>
<defs>
<clipPath id="clip0_1731_4803">
<rect width="25" height="30" fill="white"/>
</clipPath>
</defs>
</svg>
