<svg width="9" height="36" viewBox="0 0 9 36" fill="none" xmlns="http://www.w3.org/2000/svg">
<g id="label-paired / xl / info-xl / bold" clip-path="url(#clip0_1731_6665)">
<path id="icon" d="M2.625 9.375C2.65625 8.65625 2.96875 8.10938 3.5625 7.73438C4.1875 7.42187 4.8125 7.42187 5.4375 7.73438C6.03125 8.10938 6.34375 8.65625 6.375 9.375C6.34375 10.0938 6.03125 10.6406 5.4375 11.0156C4.8125 11.3281 4.1875 11.3281 3.5625 11.0156C2.96875 10.6406 2.65625 10.0938 2.625 9.375ZM0.75 15.375C0.8125 14.6875 1.1875 14.3125 1.875 14.25H4.5C5.1875 14.3125 5.5625 14.6875 5.625 15.375V27.75H7.875C8.5625 27.8125 8.9375 28.1875 9 28.875C8.9375 29.5625 8.5625 29.9375 7.875 30H1.125C0.4375 29.9375 0.0625 29.5625 0 28.875C0.0625 28.1875 0.4375 27.8125 1.125 27.75H3.375V16.5H1.875C1.1875 16.4375 0.8125 16.0625 0.75 15.375Z" fill="black" fill-opacity="0.72"/>
</g>
<defs>
<clipPath id="clip0_1731_6665">
<rect width="9" height="36" fill="white"/>
</clipPath>
</defs>
</svg>
