<svg width="11" height="22" viewBox="0 0 11 22" fill="none" xmlns="http://www.w3.org/2000/svg">
<g id="label-paired / sm / file-chart-column-sm / bold" clip-path="url(#clip0_1731_2522)">
<path id="icon" d="M1.5625 16C1.58073 16.2734 1.72656 16.4193 2 16.4375H9C9.27344 16.4193 9.41927 16.2734 9.4375 16V8.125H7.25C6.99479 8.125 6.78516 8.04297 6.62109 7.87891C6.45703 7.71484 6.375 7.50521 6.375 7.25V5.0625H2C1.72656 5.08073 1.58073 5.22656 1.5625 5.5V16ZM2 3.75H6.53906C7.01302 3.75 7.42318 3.92318 7.76953 4.26953L10.2305 6.73047C10.5768 7.07682 10.75 7.49609 10.75 7.98828V16C10.7318 16.4922 10.5586 16.9023 10.2305 17.2305C9.90234 17.5586 9.49219 17.7318 9 17.75H2C1.50781 17.7318 1.09766 17.5586 0.769531 17.2305C0.441406 16.9023 0.268229 16.4922 0.25 16V5.5C0.268229 5.00781 0.441406 4.59766 0.769531 4.26953C1.09766 3.94141 1.50781 3.76823 2 3.75ZM6.15625 11.4062V14.9062C6.11979 15.3073 5.90104 15.526 5.5 15.5625C5.09896 15.526 4.88021 15.3073 4.84375 14.9062V11.4062C4.88021 11.0052 5.09896 10.7865 5.5 10.75C5.90104 10.7865 6.11979 11.0052 6.15625 11.4062ZM8.5625 12.2812V14.9062C8.52604 15.3073 8.30729 15.526 7.90625 15.5625C7.50521 15.526 7.28646 15.3073 7.25 14.9062V12.2812C7.28646 11.8802 7.50521 11.6615 7.90625 11.625C8.30729 11.6615 8.52604 11.8802 8.5625 12.2812ZM3.75 13.1562V14.9062C3.71354 15.3073 3.49479 15.526 3.09375 15.5625C2.69271 15.526 2.47396 15.3073 2.4375 14.9062V13.1562C2.47396 12.7552 2.69271 12.5365 3.09375 12.5C3.49479 12.5365 3.71354 12.7552 3.75 13.1562Z" fill="black" fill-opacity="0.72"/>
</g>
<defs>
<clipPath id="clip0_1731_2522">
<rect width="11" height="22" fill="white"/>
</clipPath>
</defs>
</svg>
