<svg width="23" height="30" viewBox="0 0 23 30" fill="none" xmlns="http://www.w3.org/2000/svg">
<g id="label-paired / lg / keyboard-lg / regular" clip-path="url(#clip0_1731_4877)">
<path id="icon" d="M2.75 9.25C2.38542 9.25 2.08594 9.36719 1.85156 9.60156C1.61719 9.83594 1.5 10.1354 1.5 10.5V20.5C1.5 20.8646 1.61719 21.1641 1.85156 21.3984C2.08594 21.6328 2.38542 21.75 2.75 21.75H20.25C20.6146 21.75 20.9141 21.6328 21.1484 21.3984C21.3828 21.1641 21.5 20.8646 21.5 20.5V10.5C21.5 10.1354 21.3828 9.83594 21.1484 9.60156C20.9141 9.36719 20.6146 9.25 20.25 9.25H2.75ZM0.25 10.5C0.276042 9.79688 0.523438 9.21094 0.992188 8.74219C1.46094 8.27344 2.04688 8.02604 2.75 8H20.25C20.9531 8.02604 21.5391 8.27344 22.0078 8.74219C22.4766 9.21094 22.724 9.79688 22.75 10.5V20.5C22.724 21.2031 22.4766 21.7891 22.0078 22.2578C21.5391 22.7266 20.9531 22.974 20.25 23H2.75C2.04688 22.974 1.46094 22.7266 0.992188 22.2578C0.523438 21.7891 0.276042 21.2031 0.25 20.5V10.5ZM3.6875 10.8125H4.3125C4.70312 10.8385 4.91146 11.0469 4.9375 11.4375V12.0625C4.91146 12.4531 4.70312 12.6615 4.3125 12.6875H3.6875C3.29688 12.6615 3.08854 12.4531 3.0625 12.0625V11.4375C3.08854 11.0469 3.29688 10.8385 3.6875 10.8125ZM3.0625 15.1875C3.08854 14.7969 3.29688 14.5885 3.6875 14.5625H4.3125C4.70312 14.5885 4.91146 14.7969 4.9375 15.1875V15.8125C4.91146 16.2031 4.70312 16.4115 4.3125 16.4375H3.6875C3.29688 16.4115 3.08854 16.2031 3.0625 15.8125V15.1875ZM3.6875 18.3125H4.3125C4.70312 18.3385 4.91146 18.5469 4.9375 18.9375V19.5625C4.91146 19.9531 4.70312 20.1615 4.3125 20.1875H3.6875C3.29688 20.1615 3.08854 19.9531 3.0625 19.5625V18.9375C3.08854 18.5469 3.29688 18.3385 3.6875 18.3125ZM6.8125 11.4375C6.83854 11.0469 7.04688 10.8385 7.4375 10.8125H8.0625C8.45312 10.8385 8.66146 11.0469 8.6875 11.4375V12.0625C8.66146 12.4531 8.45312 12.6615 8.0625 12.6875H7.4375C7.04688 12.6615 6.83854 12.4531 6.8125 12.0625V11.4375ZM7.4375 14.5625H8.0625C8.45312 14.5885 8.66146 14.7969 8.6875 15.1875V15.8125C8.66146 16.2031 8.45312 16.4115 8.0625 16.4375H7.4375C7.04688 16.4115 6.83854 16.2031 6.8125 15.8125V15.1875C6.83854 14.7969 7.04688 14.5885 7.4375 14.5625ZM10.5625 11.4375C10.5885 11.0469 10.7969 10.8385 11.1875 10.8125H11.8125C12.2031 10.8385 12.4115 11.0469 12.4375 11.4375V12.0625C12.4115 12.4531 12.2031 12.6615 11.8125 12.6875H11.1875C10.7969 12.6615 10.5885 12.4531 10.5625 12.0625V11.4375ZM11.1875 14.5625H11.8125C12.2031 14.5885 12.4115 14.7969 12.4375 15.1875V15.8125C12.4115 16.2031 12.2031 16.4115 11.8125 16.4375H11.1875C10.7969 16.4115 10.5885 16.2031 10.5625 15.8125V15.1875C10.5885 14.7969 10.7969 14.5885 11.1875 14.5625ZM14.3125 11.4375C14.3385 11.0469 14.5469 10.8385 14.9375 10.8125H15.5625C15.9531 10.8385 16.1615 11.0469 16.1875 11.4375V12.0625C16.1615 12.4531 15.9531 12.6615 15.5625 12.6875H14.9375C14.5469 12.6615 14.3385 12.4531 14.3125 12.0625V11.4375ZM14.9375 14.5625H15.5625C15.9531 14.5885 16.1615 14.7969 16.1875 15.1875V15.8125C16.1615 16.2031 15.9531 16.4115 15.5625 16.4375H14.9375C14.5469 16.4115 14.3385 16.2031 14.3125 15.8125V15.1875C14.3385 14.7969 14.5469 14.5885 14.9375 14.5625ZM18.0625 11.4375C18.0885 11.0469 18.2969 10.8385 18.6875 10.8125H19.3125C19.7031 10.8385 19.9115 11.0469 19.9375 11.4375V12.0625C19.9115 12.4531 19.7031 12.6615 19.3125 12.6875H18.6875C18.2969 12.6615 18.0885 12.4531 18.0625 12.0625V11.4375ZM18.6875 14.5625H19.3125C19.7031 14.5885 19.9115 14.7969 19.9375 15.1875V15.8125C19.9115 16.2031 19.7031 16.4115 19.3125 16.4375H18.6875C18.2969 16.4115 18.0885 16.2031 18.0625 15.8125V15.1875C18.0885 14.7969 18.2969 14.5885 18.6875 14.5625ZM18.0625 18.9375C18.0885 18.5469 18.2969 18.3385 18.6875 18.3125H19.3125C19.7031 18.3385 19.9115 18.5469 19.9375 18.9375V19.5625C19.9115 19.9531 19.7031 20.1615 19.3125 20.1875H18.6875C18.2969 20.1615 18.0885 19.9531 18.0625 19.5625V18.9375ZM7.125 18.625H15.875C16.2656 18.651 16.474 18.8594 16.5 19.25C16.474 19.6406 16.2656 19.849 15.875 19.875H7.125C6.73438 19.849 6.52604 19.6406 6.5 19.25C6.52604 18.8594 6.73438 18.651 7.125 18.625Z" fill="black" fill-opacity="0.72"/>
</g>
<defs>
<clipPath id="clip0_1731_4877">
<rect width="23" height="30" fill="white"/>
</clipPath>
</defs>
</svg>
