<svg width="15" height="36" viewBox="0 0 15 36" fill="none" xmlns="http://www.w3.org/2000/svg">
<g id="label-paired / xl / eight-xl / regular" clip-path="url(#clip0_1731_6061)">
<path id="icon" d="M14.25 13.125C14.25 14.0938 14.0312 14.9844 13.5938 15.7969C13.125 16.6094 12.5156 17.2656 11.7656 17.7656C12.7344 18.2344 13.5156 18.9219 14.1094 19.8281C14.7031 20.7344 15 21.75 15 22.875C14.9688 24.4688 14.4219 25.7969 13.3594 26.8594C12.2969 27.9219 10.9688 28.4688 9.375 28.5H5.625C4.03125 28.4688 2.70312 27.9219 1.64062 26.8594C0.578125 25.7969 0.03125 24.4688 0 22.875C0 21.75 0.296875 20.7344 0.890625 19.8281C1.48438 18.9219 2.26562 18.2344 3.23438 17.7656C2.48438 17.2656 1.875 16.6094 1.40625 15.7969C0.96875 14.9844 0.75 14.0938 0.75 13.125C0.78125 11.5312 1.32812 10.2031 2.39062 9.14062C3.45312 8.07812 4.78125 7.53125 6.375 7.5H8.625C10.2188 7.53125 11.5469 8.07812 12.6094 9.14062C13.6719 10.2031 14.2188 11.5312 14.25 13.125ZM8.625 18.75H6.375H5.625C4.46875 18.7812 3.5 19.1875 2.71875 19.9688C1.9375 20.75 1.53125 21.7188 1.5 22.875C1.53125 24.0312 1.9375 25 2.71875 25.7812C3.5 26.5625 4.46875 26.9688 5.625 27H9.375C10.5312 26.9688 11.5 26.5625 12.2812 25.7812C13.0625 25 13.4688 24.0312 13.5 22.875C13.4688 21.7188 13.0625 20.75 12.2812 19.9688C11.5 19.1875 10.5312 18.7812 9.375 18.75H8.625ZM8.625 17.25C9.78125 17.2188 10.75 16.8125 11.5312 16.0312C12.3125 15.25 12.7188 14.2812 12.75 13.125C12.7188 11.9688 12.3125 11 11.5312 10.2188C10.75 9.4375 9.78125 9.03125 8.625 9H6.375C5.21875 9.03125 4.25 9.4375 3.46875 10.2188C2.6875 11 2.28125 11.9688 2.25 13.125C2.28125 14.2812 2.6875 15.25 3.46875 16.0312C4.25 16.8125 5.21875 17.2188 6.375 17.25H8.625Z" fill="black" fill-opacity="0.72"/>
</g>
<defs>
<clipPath id="clip0_1731_6061">
<rect width="15" height="36" fill="white"/>
</clipPath>
</defs>
</svg>
