<svg width="24" height="36" viewBox="0 0 24 36" fill="none" xmlns="http://www.w3.org/2000/svg">
<g id="label-paired / xl / chevrons-right-xl / regular" clip-path="url(#clip0_1731_5926)">
<path id="icon" d="M3.51562 27.5156C3.17188 27.8281 2.82812 27.8281 2.48438 27.5156C2.17188 27.1719 2.17188 26.8281 2.48438 26.4844L10.9219 18L2.48438 9.51562C2.17188 9.17188 2.17188 8.82812 2.48438 8.48438C2.82812 8.17188 3.17188 8.17188 3.51562 8.48438L12.5156 17.4844C12.8281 17.8281 12.8281 18.1719 12.5156 18.5156L3.51562 27.5156ZM12.5156 27.5156C12.1719 27.8281 11.8281 27.8281 11.4844 27.5156C11.1719 27.1719 11.1719 26.8281 11.4844 26.4844L19.9219 18L11.4844 9.51562C11.1719 9.17188 11.1719 8.82812 11.4844 8.48438C11.8281 8.17188 12.1719 8.17188 12.5156 8.48438L21.5156 17.4844C21.8281 17.8281 21.8281 18.1719 21.5156 18.5156L12.5156 27.5156Z" fill="black" fill-opacity="0.72"/>
</g>
<defs>
<clipPath id="clip0_1731_5926">
<rect width="24" height="36" fill="white"/>
</clipPath>
</defs>
</svg>
