<svg width="14" height="22" viewBox="0 0 14 22" fill="none" xmlns="http://www.w3.org/2000/svg">
<g id="label-paired / sm / chevrons-down-sm / bold" clip-path="url(#clip0_1731_2159)">
<path id="icon" d="M6.53516 16.4648L1.28516 11.2148C1.02995 10.9049 1.02995 10.5951 1.28516 10.2852C1.59505 10.0299 1.90495 10.0299 2.21484 10.2852L7 15.0703L11.7852 10.2852C12.0951 10.0299 12.4049 10.0299 12.7148 10.2852C12.9701 10.5951 12.9701 10.9049 12.7148 11.2148L7.46484 16.4648C7.15495 16.7201 6.84505 16.7201 6.53516 16.4648ZM1.28516 5.96484C1.02995 5.65495 1.02995 5.34505 1.28516 5.03516C1.59505 4.77995 1.90495 4.77995 2.21484 5.03516L7 9.82031L11.7852 5.03516C12.0951 4.77995 12.4049 4.77995 12.7148 5.03516C12.9701 5.34505 12.9701 5.65495 12.7148 5.96484L7.46484 11.2148C7.15495 11.4701 6.84505 11.4701 6.53516 11.2148L1.28516 5.96484Z" fill="black" fill-opacity="0.72"/>
</g>
<defs>
<clipPath id="clip0_1731_2159">
<rect width="14" height="22" fill="white"/>
</clipPath>
</defs>
</svg>
