<svg width="11" height="18" viewBox="0 0 11 18" fill="none" xmlns="http://www.w3.org/2000/svg">
<g id="label-paired / caption / bars-filter-caption / regular" clip-path="url(#clip0_1731_1151)">
<path id="icon" d="M0.25 5.375C0.265625 5.14062 0.390625 5.01562 0.625 5H10.375C10.6094 5.01562 10.7344 5.14062 10.75 5.375C10.7344 5.60938 10.6094 5.73438 10.375 5.75H0.625C0.390625 5.73438 0.265625 5.60938 0.25 5.375ZM1.75 9.125C1.76562 8.89062 1.89062 8.76562 2.125 8.75H8.875C9.10938 8.76562 9.23438 8.89062 9.25 9.125C9.23438 9.35938 9.10938 9.48438 8.875 9.5H2.125C1.89062 9.48438 1.76562 9.35938 1.75 9.125ZM7 12.875C6.98438 13.1094 6.85938 13.2344 6.625 13.25H4.375C4.14062 13.2344 4.01562 13.1094 4 12.875C4.01562 12.6406 4.14062 12.5156 4.375 12.5H6.625C6.85938 12.5156 6.98438 12.6406 7 12.875Z" fill="black" fill-opacity="0.72"/>
</g>
<defs>
<clipPath id="clip0_1731_1151">
<rect width="11" height="18" fill="white"/>
</clipPath>
</defs>
</svg>
