<svg width="25" height="30" viewBox="0 0 25 30" fill="none" xmlns="http://www.w3.org/2000/svg">
<g id="label-paired / lg / bell-slash-lg / regular" clip-path="url(#clip0_1731_4756)">
<path id="icon" d="M14.8047 20.5L16.3672 21.75H5.46875C4.97396 21.75 4.57031 21.5807 4.25781 21.2422C3.91927 20.9297 3.75 20.526 3.75 20.0312C3.75 19.5625 3.91927 19.1458 4.25781 18.7812L4.375 18.7031C5.59896 17.4271 6.22396 15.9036 6.25 14.1328V13.7422L7.5 14.7188C7.31771 16.5938 6.5625 18.2083 5.23438 19.5625L5.15625 19.6797C5.05208 19.7839 5 19.901 5 20.0312C5.02604 20.3177 5.18229 20.474 5.46875 20.5H14.8047ZM11.875 6.78906V6.125C11.901 5.73438 12.1094 5.52604 12.5 5.5C12.8906 5.52604 13.099 5.73438 13.125 6.125V6.78906C14.7396 6.97135 16.0677 7.63542 17.1094 8.78125C18.1771 9.92708 18.724 11.3333 18.75 13V14.1328C18.776 15.9036 19.401 17.4271 20.625 18.7031L20.7422 18.7812C20.7682 18.8333 20.7943 18.8724 20.8203 18.8984L17.8906 16.5938C17.6302 15.7865 17.5 14.9661 17.5 14.1328V13C17.474 11.5938 16.9922 10.4089 16.0547 9.44531C15.0911 8.50781 13.9062 8.02604 12.5 8C11.0677 8.02604 9.88281 8.52083 8.94531 9.48438L7.92969 8.70312C8.97135 7.60938 10.2865 6.97135 11.875 6.78906ZM11.3281 23.4297C11.5365 23.9505 11.9271 24.224 12.5 24.25C13.0729 24.224 13.4635 23.9505 13.6719 23.4297C13.8281 23.0651 14.1016 22.9349 14.4922 23.0391C14.8307 23.1953 14.9479 23.4557 14.8438 23.8203C14.6615 24.3151 14.362 24.7188 13.9453 25.0312C13.5286 25.3438 13.0469 25.5 12.5 25.5C11.9531 25.5 11.4714 25.3438 11.0547 25.0312C10.638 24.7188 10.3385 24.3151 10.1562 23.8203C10.0521 23.4557 10.1693 23.1953 10.5078 23.0391C10.8984 22.9349 11.1719 23.0651 11.3281 23.4297ZM1.01562 5.61719L24.7656 24.4062C25.0521 24.6667 25.0911 24.9531 24.8828 25.2656C24.5964 25.5521 24.2969 25.5911 23.9844 25.3828L0.234375 6.63281C-0.0520833 6.34635 -0.0911458 6.04688 0.117188 5.73438C0.403646 5.47396 0.703125 5.4349 1.01562 5.61719Z" fill="black" fill-opacity="0.72"/>
</g>
<defs>
<clipPath id="clip0_1731_4756">
<rect width="25" height="30" fill="white"/>
</clipPath>
</defs>
</svg>
