<svg width="14" height="22" viewBox="0 0 14 22" fill="none" xmlns="http://www.w3.org/2000/svg">
<g id="label-paired / sm / circle-info-sm / bold" clip-path="url(#clip0_1731_2896)">
<path id="icon" d="M7 5.0625C5.96094 5.0625 5.01302 5.31771 4.15625 5.82812C3.29948 6.32031 2.60677 7.01302 2.07812 7.90625C1.56771 8.79948 1.3125 9.7474 1.3125 10.75C1.3125 11.7526 1.56771 12.7005 2.07812 13.5938C2.60677 14.487 3.29948 15.1797 4.15625 15.6719C5.01302 16.1823 5.96094 16.4375 7 16.4375C8.03906 16.4375 8.98698 16.1823 9.84375 15.6719C10.7005 15.1797 11.3932 14.487 11.9219 13.5938C12.4323 12.7005 12.6875 11.7526 12.6875 10.75C12.6875 9.7474 12.4323 8.79948 11.9219 7.90625C11.3932 7.01302 10.7005 6.32031 9.84375 5.82812C8.98698 5.31771 8.03906 5.0625 7 5.0625ZM7 17.75C5.72396 17.7318 4.55729 17.4219 3.5 16.8203C2.44271 16.2005 1.58594 15.3438 0.929688 14.25C0.309896 13.138 0 11.9714 0 10.75C0 9.52865 0.309896 8.36198 0.929688 7.25C1.58594 6.15625 2.44271 5.29948 3.5 4.67969C4.55729 4.07812 5.72396 3.76823 7 3.75C8.27604 3.76823 9.44271 4.07812 10.5 4.67969C11.5573 5.29948 12.4141 6.15625 13.0703 7.25C13.6901 8.36198 14 9.52865 14 10.75C14 11.9714 13.6901 13.138 13.0703 14.25C12.4141 15.3438 11.5573 16.2005 10.5 16.8203C9.44271 17.4219 8.27604 17.7318 7 17.75ZM5.90625 12.9375H6.5625V11.1875H5.90625C5.50521 11.151 5.28646 10.9323 5.25 10.5312C5.28646 10.1302 5.50521 9.91146 5.90625 9.875H7.21875C7.61979 9.91146 7.83854 10.1302 7.875 10.5312V12.9375H8.09375C8.49479 12.974 8.71354 13.1927 8.75 13.5938C8.71354 13.9948 8.49479 14.2135 8.09375 14.25H5.90625C5.50521 14.2135 5.28646 13.9948 5.25 13.5938C5.28646 13.1927 5.50521 12.974 5.90625 12.9375ZM7 9C6.74479 9 6.53516 8.91797 6.37109 8.75391C6.20703 8.58984 6.125 8.38021 6.125 8.125C6.125 7.86979 6.20703 7.66016 6.37109 7.49609C6.53516 7.33203 6.74479 7.25 7 7.25C7.25521 7.25 7.46484 7.33203 7.62891 7.49609C7.79297 7.66016 7.875 7.86979 7.875 8.125C7.875 8.38021 7.79297 8.58984 7.62891 8.75391C7.46484 8.91797 7.25521 9 7 9Z" fill="black" fill-opacity="0.72"/>
</g>
<defs>
<clipPath id="clip0_1731_2896">
<rect width="14" height="22" fill="white"/>
</clipPath>
</defs>
</svg>
