<svg width="14" height="18" viewBox="0 0 14 18" fill="none" xmlns="http://www.w3.org/2000/svg">
<g id="label-paired / caption / presentation-screen-caption / bold" clip-path="url(#clip0_1731_1330)">
<path id="icon" d="M0.8125 3.5H13.1875C13.5312 3.53125 13.7188 3.71875 13.75 4.0625C13.7188 4.40625 13.5312 4.59375 13.1875 4.625H0.8125C0.46875 4.59375 0.28125 4.40625 0.25 4.0625C0.28125 3.71875 0.46875 3.53125 0.8125 3.5ZM1 5.375H2.125V10.4375C2.14062 10.5469 2.20312 10.6094 2.3125 10.625H7H11.6875C11.7969 10.6094 11.8594 10.5469 11.875 10.4375V5.375H13V10.4375C12.9844 10.8125 12.8594 11.125 12.625 11.375C12.375 11.6094 12.0625 11.7344 11.6875 11.75H7.5625V12.8281L9.27344 14.5391C9.49219 14.8047 9.49219 15.0703 9.27344 15.3359C9.00781 15.5547 8.74219 15.5547 8.47656 15.3359L7 13.8594L5.52344 15.3359C5.25781 15.5547 4.99219 15.5547 4.72656 15.3359C4.50781 15.0703 4.50781 14.8047 4.72656 14.5391L6.4375 12.8281V11.75H2.3125C1.9375 11.7344 1.625 11.6094 1.375 11.375C1.14062 11.125 1.01562 10.8125 1 10.4375V5.375Z" fill="black" fill-opacity="0.72"/>
</g>
<defs>
<clipPath id="clip0_1731_1330">
<rect width="14" height="18" fill="white"/>
</clipPath>
</defs>
</svg>
