<svg width="13" height="30" viewBox="0 0 13 30" fill="none" xmlns="http://www.w3.org/2000/svg">
<g id="label-paired / lg / euro-sign-lg / bold" clip-path="url(#clip0_1731_5177)">
<path id="icon" d="M2.16406 14.875H1.1875C0.614583 14.8229 0.302083 14.5104 0.25 13.9375C0.302083 13.3646 0.614583 13.0521 1.1875 13H2.47656C3.04948 11.151 4.09115 9.65365 5.60156 8.50781C7.11198 7.36198 8.86979 6.77604 10.875 6.75H11.8125C12.3854 6.80208 12.6979 7.11458 12.75 7.6875C12.6979 8.26042 12.3854 8.57292 11.8125 8.625H10.875C9.39062 8.65104 8.08854 9.05469 6.96875 9.83594C5.82292 10.6432 4.98958 11.6979 4.46875 13H10.5625C11.1354 13.0521 11.4479 13.3646 11.5 13.9375C11.4479 14.5104 11.1354 14.8229 10.5625 14.875H4.03906C4.01302 15.0833 4 15.2917 4 15.5C4 15.7083 4.01302 15.9167 4.03906 16.125H10.5625C11.1354 16.1771 11.4479 16.4896 11.5 17.0625C11.4479 17.6354 11.1354 17.9479 10.5625 18H4.46875C4.98958 19.3021 5.82292 20.3568 6.96875 21.1641C8.08854 21.9453 9.39062 22.349 10.875 22.375H11.8125C12.3854 22.4271 12.6979 22.7396 12.75 23.3125C12.6979 23.8854 12.3854 24.1979 11.8125 24.25H10.875C8.86979 24.224 7.11198 23.638 5.60156 22.4922C4.09115 21.3464 3.04948 19.849 2.47656 18H1.1875C0.614583 17.9479 0.302083 17.6354 0.25 17.0625C0.302083 16.4896 0.614583 16.1771 1.1875 16.125H2.16406C2.13802 15.9167 2.125 15.7083 2.125 15.5C2.125 15.2917 2.13802 15.0833 2.16406 14.875Z" fill="black" fill-opacity="0.72"/>
</g>
<defs>
<clipPath id="clip0_1731_5177">
<rect width="13" height="30" fill="white"/>
</clipPath>
</defs>
</svg>
