<svg width="16" height="24" viewBox="0 0 16 24" fill="none" xmlns="http://www.w3.org/2000/svg">
<g id="label-paired / md / circle-user-md / bold" clip-path="url(#clip0_1731_4266)">
<path id="icon" d="M12.7188 16.5C13.8646 15.2917 14.4583 13.7917 14.5 12C14.4583 10.1667 13.8229 8.63542 12.5938 7.40625C11.3646 6.17708 9.83333 5.54167 8 5.5C6.16667 5.54167 4.63542 6.17708 3.40625 7.40625C2.17708 8.63542 1.54167 10.1667 1.5 12C1.54167 13.7917 2.14583 15.2917 3.3125 16.5C3.60417 15.75 4.08333 15.1458 4.75 14.6875C5.39583 14.25 6.14583 14.0208 7 14H9C9.85417 14.0208 10.6042 14.25 11.25 14.6875C11.9167 15.1458 12.4062 15.75 12.7188 16.5ZM11.4375 17.5H11.4688C11.3229 16.9167 11.0312 16.4375 10.5938 16.0625C10.1562 15.7083 9.625 15.5208 9 15.5H7C6.375 15.5208 5.84375 15.7083 5.40625 16.0625C4.96875 16.4375 4.6875 16.9167 4.5625 17.5C5.5625 18.1458 6.70833 18.4792 8 18.5C9.29167 18.4792 10.4375 18.1458 11.4375 17.5ZM8 20C6.54167 19.9792 5.20833 19.625 4 18.9375C2.79167 18.2292 1.8125 17.25 1.0625 16C0.354167 14.7292 0 13.3958 0 12C0 10.6042 0.354167 9.27083 1.0625 8C1.8125 6.75 2.79167 5.77083 4 5.0625C5.20833 4.375 6.54167 4.02083 8 4C9.45833 4.02083 10.7917 4.375 12 5.0625C13.2083 5.77083 14.1875 6.75 14.9375 8C15.6458 9.27083 16 10.6042 16 12C16 13.3958 15.6458 14.7292 14.9375 16C14.1875 17.25 13.2083 18.2292 12 18.9375C10.7917 19.625 9.45833 19.9792 8 20ZM8 11.5C8.47917 11.4792 8.84375 11.2708 9.09375 10.875C9.30208 10.4583 9.30208 10.0417 9.09375 9.625C8.84375 9.22917 8.47917 9.02083 8 9C7.52083 9.02083 7.15625 9.22917 6.90625 9.625C6.69792 10.0417 6.69792 10.4583 6.90625 10.875C7.15625 11.2708 7.52083 11.4792 8 11.5ZM5.25 10.25C5.29167 9.20833 5.75 8.41667 6.625 7.875C7.54167 7.375 8.45833 7.375 9.375 7.875C10.25 8.41667 10.7083 9.20833 10.75 10.25C10.7083 11.2917 10.25 12.0833 9.375 12.625C8.45833 13.125 7.54167 13.125 6.625 12.625C5.75 12.0833 5.29167 11.2917 5.25 10.25Z" fill="black" fill-opacity="0.72"/>
</g>
<defs>
<clipPath id="clip0_1731_4266">
<rect width="16" height="24" fill="white"/>
</clipPath>
</defs>
</svg>
