<svg width="9" height="18" viewBox="0 0 9 18" fill="none" xmlns="http://www.w3.org/2000/svg">
<g id="label-paired / caption / play-caption / regular" clip-path="url(#clip0_1731_1522)">
<path id="icon" d="M1.3125 5.04688C1.1875 4.98438 1.0625 4.98438 0.9375 5.04688C0.8125 5.125 0.75 5.23438 0.75 5.375V13.625C0.75 13.7656 0.8125 13.875 0.9375 13.9531C1.0625 14.0156 1.1875 14.0156 1.3125 13.9531L8.0625 9.82812C8.1875 9.75 8.25 9.64062 8.25 9.5C8.25 9.35938 8.1875 9.25 8.0625 9.17188L1.3125 5.04688ZM0.585938 4.39062C0.960938 4.1875 1.33594 4.19531 1.71094 4.41406L8.46094 8.53906C8.80469 8.75781 8.98438 9.07812 9 9.5C8.98438 9.92188 8.80469 10.2422 8.46094 10.4609L1.71094 14.5859C1.33594 14.8047 0.960938 14.8125 0.585938 14.6094C0.210938 14.3906 0.015625 14.0625 0 13.625V5.375C0.015625 4.9375 0.210938 4.60938 0.585938 4.39062Z" fill="black" fill-opacity="0.72"/>
</g>
<defs>
<clipPath id="clip0_1731_1522">
<rect width="9" height="18" fill="white"/>
</clipPath>
</defs>
</svg>
