<svg width="11" height="18" viewBox="0 0 11 18" fill="none" xmlns="http://www.w3.org/2000/svg">
<g id="label-paired / caption / tiktok-caption" clip-path="url(#clip0_1731_13782)">
<path id="icon" d="M10.75 8.42188C9.6875 8.42188 8.72656 8.11719 7.86719 7.50781V11.6797C7.86719 12.4922 7.64062 13.2188 7.1875 13.8594C6.75 14.5 6.15625 14.9688 5.40625 15.2656C4.64062 15.5312 3.88281 15.5703 3.13281 15.3828C2.38281 15.1953 1.73438 14.7969 1.1875 14.1875C0.671875 13.5781 0.367188 12.8828 0.273438 12.1016C0.195312 11.3359 0.34375 10.5938 0.71875 9.875C1.10938 9.17188 1.64844 8.64062 2.33594 8.28125C3.03906 7.9375 3.78906 7.8125 4.58594 7.90625V10.0156C4.21094 9.90625 3.85156 9.91406 3.50781 10.0391C3.16406 10.1484 2.875 10.3594 2.64062 10.6719C2.42188 10.9844 2.3125 11.3281 2.3125 11.7031C2.3125 12.0625 2.42188 12.4062 2.64062 12.7344C2.875 13.0312 3.17188 13.2344 3.53125 13.3438C3.875 13.4688 4.23438 13.4688 4.60938 13.3438C4.96875 13.2188 5.25781 13.0078 5.47656 12.7109C5.69531 12.4141 5.80469 12.0703 5.80469 11.6797V3.5H7.86719C7.86719 3.67187 7.88281 3.84375 7.91406 4.01562C8.08594 4.8125 8.50781 5.4375 9.17969 5.89062C9.66406 6.20312 10.1875 6.36719 10.75 6.38281V8.42188Z" fill="black" fill-opacity="0.72"/>
</g>
<defs>
<clipPath id="clip0_1731_13782">
<rect width="11" height="18" fill="white"/>
</clipPath>
</defs>
</svg>
