<svg width="13" height="30" viewBox="0 0 13 30" fill="none" xmlns="http://www.w3.org/2000/svg">
<g id="label-paired / lg / eight-lg / regular" clip-path="url(#clip0_1731_4503)">
<path id="icon" d="M12.125 11.4375C12.125 12.2448 11.9427 12.987 11.5781 13.6641C11.1875 14.3411 10.6797 14.888 10.0547 15.3047C10.862 15.6953 11.513 16.2682 12.0078 17.0234C12.5026 17.7786 12.75 18.625 12.75 19.5625C12.724 20.8906 12.2682 21.9974 11.3828 22.8828C10.4974 23.7682 9.39062 24.224 8.0625 24.25H4.9375C3.60938 24.224 2.5026 23.7682 1.61719 22.8828C0.731771 21.9974 0.276042 20.8906 0.25 19.5625C0.25 18.625 0.497396 17.7786 0.992188 17.0234C1.48698 16.2682 2.13802 15.6953 2.94531 15.3047C2.32031 14.888 1.8125 14.3411 1.42188 13.6641C1.05729 12.987 0.875 12.2448 0.875 11.4375C0.901042 10.1094 1.35677 9.0026 2.24219 8.11719C3.1276 7.23177 4.23438 6.77604 5.5625 6.75H7.4375C8.76562 6.77604 9.8724 7.23177 10.7578 8.11719C11.6432 9.0026 12.099 10.1094 12.125 11.4375ZM7.4375 16.125H5.5625H4.9375C3.97396 16.151 3.16667 16.4896 2.51562 17.1406C1.86458 17.7917 1.52604 18.599 1.5 19.5625C1.52604 20.526 1.86458 21.3333 2.51562 21.9844C3.16667 22.6354 3.97396 22.974 4.9375 23H8.0625C9.02604 22.974 9.83333 22.6354 10.4844 21.9844C11.1354 21.3333 11.474 20.526 11.5 19.5625C11.474 18.599 11.1354 17.7917 10.4844 17.1406C9.83333 16.4896 9.02604 16.151 8.0625 16.125H7.4375ZM7.4375 14.875C8.40104 14.849 9.20833 14.5104 9.85938 13.8594C10.5104 13.2083 10.849 12.401 10.875 11.4375C10.849 10.474 10.5104 9.66667 9.85938 9.01562C9.20833 8.36458 8.40104 8.02604 7.4375 8H5.5625C4.59896 8.02604 3.79167 8.36458 3.14062 9.01562C2.48958 9.66667 2.15104 10.474 2.125 11.4375C2.15104 12.401 2.48958 13.2083 3.14062 13.8594C3.79167 14.5104 4.59896 14.849 5.5625 14.875H7.4375Z" fill="black" fill-opacity="0.72"/>
</g>
<defs>
<clipPath id="clip0_1731_4503">
<rect width="13" height="30" fill="white"/>
</clipPath>
</defs>
</svg>
