<svg width="27" height="36" viewBox="0 0 27 36" fill="none" xmlns="http://www.w3.org/2000/svg">
<g id="label-paired / xl / presentation-screen-xl / regular" clip-path="url(#clip0_1731_6360)">
<path id="icon" d="M0.75 6H26.25C26.7188 6.03125 26.9688 6.28125 27 6.75C26.9688 7.21875 26.7188 7.46875 26.25 7.5H0.75C0.28125 7.46875 0.03125 7.21875 0 6.75C0.03125 6.28125 0.28125 6.03125 0.75 6ZM1.5 9H3V19.5C3 19.9375 3.14062 20.2969 3.42188 20.5781C3.70312 20.8594 4.0625 21 4.5 21H13.5H22.5C22.9375 21 23.2969 20.8594 23.5781 20.5781C23.8594 20.2969 24 19.9375 24 19.5V9H25.5V19.5C25.4688 20.3438 25.1719 21.0469 24.6094 21.6094C24.0469 22.1719 23.3438 22.4688 22.5 22.5H14.25V24.4219L18.5156 28.7344C18.8281 29.0781 18.8281 29.4219 18.5156 29.7656C18.1719 30.0781 17.8281 30.0781 17.4844 29.7656L13.5 25.8281L9.51562 29.7656C9.17188 30.0781 8.82812 30.0781 8.48438 29.7656C8.17188 29.4219 8.17188 29.0781 8.48438 28.7344L12.75 24.4219V22.5H4.5C3.65625 22.4688 2.95312 22.1719 2.39062 21.6094C1.82812 21.0469 1.53125 20.3438 1.5 19.5V9Z" fill="black" fill-opacity="0.72"/>
</g>
<defs>
<clipPath id="clip0_1731_6360">
<rect width="27" height="36" fill="white"/>
</clipPath>
</defs>
</svg>
