<svg width="11" height="18" viewBox="0 0 11 18" fill="none" xmlns="http://www.w3.org/2000/svg">
<g id="label-paired / caption / square-minus-caption / bold" clip-path="url(#clip0_1731_795)">
<path id="icon" d="M1.75 5.375C1.51562 5.39062 1.39062 5.51562 1.375 5.75V13.25C1.39062 13.4844 1.51562 13.6094 1.75 13.625H9.25C9.48438 13.6094 9.60938 13.4844 9.625 13.25V5.75C9.60938 5.51562 9.48438 5.39062 9.25 5.375H1.75ZM0.25 5.75C0.265625 5.32812 0.414062 4.97656 0.695312 4.69531C0.976562 4.41406 1.32812 4.26562 1.75 4.25H9.25C9.67188 4.26562 10.0234 4.41406 10.3047 4.69531C10.5859 4.97656 10.7344 5.32812 10.75 5.75V13.25C10.7344 13.6719 10.5859 14.0234 10.3047 14.3047C10.0234 14.5859 9.67188 14.7344 9.25 14.75H1.75C1.32812 14.7344 0.976562 14.5859 0.695312 14.3047C0.414062 14.0234 0.265625 13.6719 0.25 13.25V5.75ZM3.8125 8.9375H7.1875C7.53125 8.96875 7.71875 9.15625 7.75 9.5C7.71875 9.84375 7.53125 10.0312 7.1875 10.0625H3.8125C3.46875 10.0312 3.28125 9.84375 3.25 9.5C3.28125 9.15625 3.46875 8.96875 3.8125 8.9375Z" fill="black" fill-opacity="0.72"/>
</g>
<defs>
<clipPath id="clip0_1731_795">
<rect width="11" height="18" fill="white"/>
</clipPath>
</defs>
</svg>
