<svg width="20" height="24" viewBox="0 0 20 24" fill="none" xmlns="http://www.w3.org/2000/svg">
<g id="label-paired / md / laptop-md / bold" clip-path="url(#clip0_1731_3902)">
<path id="icon" d="M16 6.5H4C3.6875 6.52083 3.52083 6.6875 3.5 7V14H2V7C2.02083 6.4375 2.21875 5.96875 2.59375 5.59375C2.96875 5.21875 3.4375 5.02083 4 5H16C16.5625 5.02083 17.0312 5.21875 17.4062 5.59375C17.7812 5.96875 17.9792 6.4375 18 7V14H16.5V7C16.4792 6.6875 16.3125 6.52083 16 6.5ZM3 17.5H17C17.6875 17.4583 18.1562 17.125 18.4062 16.5H1.59375C1.84375 17.125 2.3125 17.4583 3 17.5ZM0 16C0 15.7083 0.09375 15.4688 0.28125 15.2812C0.46875 15.0938 0.708333 15 1 15H19C19.2917 15 19.5312 15.0938 19.7188 15.2812C19.9062 15.4688 20 15.7083 20 16C19.9792 16.8542 19.6875 17.5625 19.125 18.125C18.5625 18.6875 17.8542 18.9792 17 19H3C2.14583 18.9792 1.4375 18.6875 0.875 18.125C0.3125 17.5625 0.0208333 16.8542 0 16Z" fill="black" fill-opacity="0.72"/>
</g>
<defs>
<clipPath id="clip0_1731_3902">
<rect width="20" height="24" fill="white"/>
</clipPath>
</defs>
</svg>
