<svg width="21" height="36" viewBox="0 0 21 36" fill="none" xmlns="http://www.w3.org/2000/svg">
<g id="label-paired / xl / bars-filter-xl / regular" clip-path="url(#clip0_1731_6183)">
<path id="icon" d="M0 9.75C0.03125 9.28125 0.28125 9.03125 0.75 9H20.25C20.7188 9.03125 20.9688 9.28125 21 9.75C20.9688 10.2188 20.7188 10.4688 20.25 10.5H0.75C0.28125 10.4688 0.03125 10.2188 0 9.75ZM3 17.25C3.03125 16.7812 3.28125 16.5312 3.75 16.5H17.25C17.7188 16.5312 17.9688 16.7812 18 17.25C17.9688 17.7188 17.7188 17.9688 17.25 18H3.75C3.28125 17.9688 3.03125 17.7188 3 17.25ZM13.5 24.75C13.4688 25.2188 13.2188 25.4688 12.75 25.5H8.25C7.78125 25.4688 7.53125 25.2188 7.5 24.75C7.53125 24.2812 7.78125 24.0312 8.25 24H12.75C13.2188 24.0312 13.4688 24.2812 13.5 24.75Z" fill="black" fill-opacity="0.72"/>
</g>
<defs>
<clipPath id="clip0_1731_6183">
<rect width="21" height="36" fill="white"/>
</clipPath>
</defs>
</svg>
