<svg width="14" height="22" viewBox="0 0 14 22" fill="none" xmlns="http://www.w3.org/2000/svg">
<g id="label-paired / sm / circle-star-sm / regular" clip-path="url(#clip0_1731_2079)">
<path id="icon" d="M7 4.625C5.88802 4.64323 4.86719 4.91667 3.9375 5.44531C3.00781 5.99219 2.26042 6.73958 1.69531 7.6875C1.14844 8.65365 0.875 9.67448 0.875 10.75C0.875 11.8255 1.14844 12.8464 1.69531 13.8125C2.26042 14.7604 3.00781 15.5078 3.9375 16.0547C4.86719 16.5833 5.88802 16.8568 7 16.875C8.11198 16.8568 9.13281 16.5833 10.0625 16.0547C10.9922 15.5078 11.7396 14.7604 12.3047 13.8125C12.8516 12.8464 13.125 11.8255 13.125 10.75C13.125 9.67448 12.8516 8.65365 12.3047 7.6875C11.7396 6.73958 10.9922 5.99219 10.0625 5.44531C9.13281 4.91667 8.11198 4.64323 7 4.625ZM7 17.75C5.72396 17.7318 4.55729 17.4219 3.5 16.8203C2.44271 16.2005 1.58594 15.3438 0.929688 14.25C0.309896 13.138 0 11.9714 0 10.75C0 9.52865 0.309896 8.36198 0.929688 7.25C1.58594 6.15625 2.44271 5.29948 3.5 4.67969C4.55729 4.07812 5.72396 3.76823 7 3.75C8.27604 3.76823 9.44271 4.07812 10.5 4.67969C11.5573 5.29948 12.4141 6.15625 13.0703 7.25C13.6901 8.36198 14 9.52865 14 10.75C14 11.9714 13.6901 13.138 13.0703 14.25C12.4141 15.3438 11.5573 16.2005 10.5 16.8203C9.44271 17.4219 8.27604 17.7318 7 17.75ZM7.38281 6.83984L8.39453 8.83594L10.6094 9.16406C10.7734 9.20052 10.8919 9.30078 10.9648 9.46484C11.0013 9.62891 10.9648 9.78385 10.8555 9.92969L9.24219 11.4883L9.625 13.6758C9.64323 13.8581 9.57943 14.0039 9.43359 14.1133C9.28776 14.2044 9.14193 14.2135 8.99609 14.1406L7 13.1016L5.03125 14.1406C4.86719 14.2135 4.71224 14.2044 4.56641 14.1133C4.42057 14.0039 4.35677 13.8581 4.375 13.6758L4.75781 11.4883L3.17188 9.90234C3.04427 9.77474 3.00781 9.62891 3.0625 9.46484C3.11719 9.30078 3.22656 9.20052 3.39062 9.16406L5.60547 8.83594L6.61719 6.83984C6.6901 6.67578 6.81771 6.59375 7 6.59375C7.18229 6.59375 7.3099 6.67578 7.38281 6.83984ZM6.28906 9.4375C6.21615 9.5651 6.10677 9.64714 5.96094 9.68359L4.40234 9.90234L5.52344 11.0234C5.63281 11.1328 5.67839 11.2604 5.66016 11.4062L5.38672 12.9648L6.78125 12.2266C6.92708 12.1536 7.0638 12.1536 7.19141 12.2266L8.61328 12.9648L8.33984 11.4062C8.32161 11.2604 8.35807 11.1328 8.44922 11.0234L9.59766 9.90234L8.03906 9.68359C7.875 9.64714 7.76562 9.5651 7.71094 9.4375L7 8.01562L6.28906 9.4375Z" fill="black" fill-opacity="0.72"/>
</g>
<defs>
<clipPath id="clip0_1731_2079">
<rect width="14" height="22" fill="white"/>
</clipPath>
</defs>
</svg>
