<svg width="13" height="22" viewBox="0 0 13 22" fill="none" xmlns="http://www.w3.org/2000/svg">
<g id="label-paired / sm / bars-sm / regular" clip-path="url(#clip0_1731_1907)">
<path id="icon" d="M0.375 5.9375C0.393229 5.66406 0.539062 5.51823 0.8125 5.5H12.1875C12.4609 5.51823 12.6068 5.66406 12.625 5.9375C12.6068 6.21094 12.4609 6.35677 12.1875 6.375H0.8125C0.539062 6.35677 0.393229 6.21094 0.375 5.9375ZM0.375 10.3125C0.393229 10.0391 0.539062 9.89323 0.8125 9.875H12.1875C12.4609 9.89323 12.6068 10.0391 12.625 10.3125C12.6068 10.5859 12.4609 10.7318 12.1875 10.75H0.8125C0.539062 10.7318 0.393229 10.5859 0.375 10.3125ZM12.625 14.6875C12.6068 14.9609 12.4609 15.1068 12.1875 15.125H0.8125C0.539062 15.1068 0.393229 14.9609 0.375 14.6875C0.393229 14.4141 0.539062 14.2682 0.8125 14.25H12.1875C12.4609 14.2682 12.6068 14.4141 12.625 14.6875Z" fill="black" fill-opacity="0.72"/>
</g>
<defs>
<clipPath id="clip0_1731_1907">
<rect width="13" height="22" fill="white"/>
</clipPath>
</defs>
</svg>
