<svg width="20" height="30" viewBox="0 0 20 30" fill="none" xmlns="http://www.w3.org/2000/svg">
<g id="label-paired / lg / circle-dot-lg / fill" clip-path="url(#clip0_1731_5534)">
<path id="icon" d="M10 25.5C8.17708 25.474 6.51042 25.0312 5 24.1719C3.48958 23.2865 2.26562 22.0625 1.32812 20.5C0.442708 18.9115 0 17.2448 0 15.5C0 13.7552 0.442708 12.0885 1.32812 10.5C2.26562 8.9375 3.48958 7.71354 5 6.82812C6.51042 5.96875 8.17708 5.52604 10 5.5C11.8229 5.52604 13.4896 5.96875 15 6.82812C16.5104 7.71354 17.7344 8.9375 18.6719 10.5C19.5573 12.0885 20 13.7552 20 15.5C20 17.2448 19.5573 18.9115 18.6719 20.5C17.7344 22.0625 16.5104 23.2865 15 24.1719C13.4896 25.0312 11.8229 25.474 10 25.5ZM10 11.75C9.32292 11.75 8.69792 11.9193 8.125 12.2578C7.55208 12.5964 7.09635 13.0521 6.75781 13.625C6.41927 14.224 6.25 14.849 6.25 15.5C6.25 16.151 6.41927 16.776 6.75781 17.375C7.09635 17.9479 7.55208 18.4036 8.125 18.7422C8.69792 19.0807 9.32292 19.25 10 19.25C10.6771 19.25 11.3021 19.0807 11.875 18.7422C12.4479 18.4036 12.9036 17.9479 13.2422 17.375C13.5807 16.776 13.75 16.151 13.75 15.5C13.75 14.849 13.5807 14.224 13.2422 13.625C12.9036 13.0521 12.4479 12.5964 11.875 12.2578C11.3021 11.9193 10.6771 11.75 10 11.75Z" fill="black" fill-opacity="0.72"/>
</g>
<defs>
<clipPath id="clip0_1731_5534">
<rect width="20" height="30" fill="white"/>
</clipPath>
</defs>
</svg>
