<svg width="11" height="22" viewBox="0 0 11 22" fill="none" xmlns="http://www.w3.org/2000/svg">
<g id="label-paired / sm / file-chart-column-sm / regular" clip-path="url(#clip0_1731_2520)">
<path id="icon" d="M9 16.875C9.25521 16.875 9.46484 16.793 9.62891 16.6289C9.79297 16.4648 9.875 16.2552 9.875 16V9H6.8125C6.44792 8.98177 6.13802 8.85417 5.88281 8.61719C5.64583 8.36198 5.51823 8.05208 5.5 7.6875V4.625H2C1.74479 4.625 1.53516 4.70703 1.37109 4.87109C1.20703 5.03516 1.125 5.24479 1.125 5.5V16C1.125 16.2552 1.20703 16.4648 1.37109 16.6289C1.53516 16.793 1.74479 16.875 2 16.875H9ZM6.8125 8.125H9.875C9.83854 8.05208 9.79297 7.98828 9.73828 7.93359L6.56641 4.76172C6.51172 4.70703 6.44792 4.67057 6.375 4.65234V7.6875C6.39323 7.96094 6.53906 8.10677 6.8125 8.125ZM2 3.75H6.26562C6.63021 3.75 6.9401 3.8776 7.19531 4.13281L10.3672 7.30469C10.6224 7.5599 10.75 7.86979 10.75 8.23438V16C10.7318 16.4922 10.5586 16.9023 10.2305 17.2305C9.90234 17.5586 9.49219 17.7318 9 17.75H2C1.50781 17.7318 1.09766 17.5586 0.769531 17.2305C0.441406 16.9023 0.268229 16.4922 0.25 16V5.5C0.268229 5.00781 0.441406 4.59766 0.769531 4.26953C1.09766 3.94141 1.50781 3.76823 2 3.75ZM5.9375 10.3125V15.5625C5.91927 15.8359 5.77344 15.9818 5.5 16C5.22656 15.9818 5.08073 15.8359 5.0625 15.5625V10.3125C5.08073 10.0391 5.22656 9.89323 5.5 9.875C5.77344 9.89323 5.91927 10.0391 5.9375 10.3125ZM8.5625 12.0625V15.5625C8.54427 15.8359 8.39844 15.9818 8.125 16C7.85156 15.9818 7.70573 15.8359 7.6875 15.5625V12.0625C7.70573 11.7891 7.85156 11.6432 8.125 11.625C8.39844 11.6432 8.54427 11.7891 8.5625 12.0625ZM3.3125 13.8125V15.5625C3.29427 15.8359 3.14844 15.9818 2.875 16C2.60156 15.9818 2.45573 15.8359 2.4375 15.5625V13.8125C2.45573 13.5391 2.60156 13.3932 2.875 13.375C3.14844 13.3932 3.29427 13.5391 3.3125 13.8125Z" fill="black" fill-opacity="0.72"/>
</g>
<defs>
<clipPath id="clip0_1731_2520">
<rect width="11" height="22" fill="white"/>
</clipPath>
</defs>
</svg>
