<svg width="30" height="36" viewBox="0 0 30 36" fill="none" xmlns="http://www.w3.org/2000/svg">
<g id="label-paired / xl / deal-protection-xl / bold" clip-path="url(#clip0_1731_5793)">
<path id="icon" d="M3.84375 11.7188H8.57812C9.375 11.7188 10.125 11.8594 10.8281 12.1406C11.5312 12.375 12.0938 12.7969 12.5625 13.3125C13.0312 13.8281 13.4062 14.4844 13.6875 15.2812C13.9688 16.0781 14.0625 16.9688 14.0625 18C14.0625 19.0781 13.9688 19.9688 13.6875 20.7656C13.4062 21.5625 13.0312 22.2188 12.5625 22.7344C12.0938 23.25 11.5312 23.625 10.8281 23.9062C10.1719 24.1875 9.375 24.3281 8.57812 24.3281H3.84375V11.7188ZM8.57812 21.8906C9.375 21.8906 10.0312 21.6562 10.5 21.1875C10.9688 20.7188 11.2031 20.0156 11.2031 18.9844V17.0625C11.2031 16.0312 10.9688 15.3281 10.5 14.8594C10.0312 14.3906 9.375 14.1562 8.57812 14.1562H6.5625V21.8906H8.57812ZM16.3594 24.2812V11.7188H22.3125C22.9219 11.7188 23.4375 11.8594 23.9062 12.0469C24.375 12.2344 24.75 12.5156 25.0781 12.8438C25.4062 13.2188 25.6875 13.6406 25.875 14.1562C26.0156 14.625 26.1094 15.1875 26.1094 15.75C26.1094 16.3594 26.0625 16.9219 25.875 17.3906C25.6875 17.9062 25.4062 18.3281 25.0781 18.6562C24.75 18.9844 24.375 19.2656 23.9062 19.5C23.4375 19.6875 22.9219 19.7812 22.3125 19.7812H19.125V24.2812H16.3594ZM19.125 17.3906H21.9844C22.4062 17.3906 22.7344 17.2969 22.9688 17.0625C23.2031 16.875 23.2969 16.5469 23.2969 16.125V15.375C23.2969 14.9531 23.2031 14.625 22.9688 14.4375C22.7344 14.2031 22.4062 14.1094 21.9844 14.1094H19.125V17.3906Z" fill="black" fill-opacity="0.72"/>
</g>
<defs>
<clipPath id="clip0_1731_5793">
<rect width="30" height="36" fill="white"/>
</clipPath>
</defs>
</svg>
