<svg width="24" height="36" viewBox="0 0 24 36" fill="none" xmlns="http://www.w3.org/2000/svg">
<g id="label-paired / xl / circle-two-xl / bold" clip-path="url(#clip0_1731_6083)">
<path id="icon" d="M12 8.25C10.2188 8.25 8.59375 8.6875 7.125 9.5625C5.65625 10.4062 4.46875 11.5938 3.5625 13.125C2.6875 14.6562 2.25 16.2812 2.25 18C2.25 19.7188 2.6875 21.3438 3.5625 22.875C4.46875 24.4062 5.65625 25.5938 7.125 26.4375C8.59375 27.3125 10.2188 27.75 12 27.75C13.7812 27.75 15.4062 27.3125 16.875 26.4375C18.3438 25.5938 19.5312 24.4062 20.4375 22.875C21.3125 21.3438 21.75 19.7188 21.75 18C21.75 16.2812 21.3125 14.6562 20.4375 13.125C19.5312 11.5938 18.3438 10.4062 16.875 9.5625C15.4062 8.6875 13.7812 8.25 12 8.25ZM12 30C9.8125 29.9688 7.8125 29.4375 6 28.4062C4.1875 27.3438 2.71875 25.875 1.59375 24C0.53125 22.0938 0 20.0938 0 18C0 15.9062 0.53125 13.9062 1.59375 12C2.71875 10.125 4.1875 8.65625 6 7.59375C7.8125 6.5625 9.8125 6.03125 12 6C14.1875 6.03125 16.1875 6.5625 18 7.59375C19.8125 8.65625 21.2812 10.125 22.4062 12C23.4688 13.9062 24 15.9062 24 18C24 20.0938 23.4688 22.0938 22.4062 24C21.2812 25.875 19.8125 27.3438 18 28.4062C16.1875 29.4375 14.1875 29.9688 12 30ZM10.4531 14.6719L9.32812 15.5156C8.73438 15.8906 8.20312 15.8125 7.73438 15.2812C7.35938 14.7188 7.4375 14.2031 7.96875 13.7344L9.09375 12.8438C9.84375 12.2812 10.7031 12 11.6719 12H11.8125C12.9375 12.0625 13.875 12.4688 14.625 13.2188C15.3438 13.9688 15.7188 14.9062 15.75 16.0312C15.7188 17.1562 15.2969 18.125 14.4844 18.9375L11.4844 21.75H15.375C16.0625 21.8125 16.4375 22.1875 16.5 22.875C16.4375 23.5625 16.0625 23.9375 15.375 24H8.625C8.125 23.9688 7.78125 23.7344 7.59375 23.2969C7.4375 22.8281 7.53125 22.4219 7.875 22.0781L12.9375 17.2969C13.3125 16.9531 13.5 16.5312 13.5 16.0312C13.5 15.5312 13.3281 15.125 12.9844 14.8125C12.6719 14.4688 12.2656 14.2969 11.7656 14.2969L11.625 14.25C11.1875 14.25 10.7969 14.3906 10.4531 14.6719Z" fill="black" fill-opacity="0.72"/>
</g>
<defs>
<clipPath id="clip0_1731_6083">
<rect width="24" height="36" fill="white"/>
</clipPath>
</defs>
</svg>
