<svg width="14" height="22" viewBox="0 0 14 22" fill="none" xmlns="http://www.w3.org/2000/svg">
<g id="label-paired / sm / circle-envelope-sm / regular" clip-path="url(#clip0_1731_2561)">
<path id="icon" d="M13.125 10.75C13.1068 9.63802 12.8333 8.61719 12.3047 7.6875C11.7578 6.75781 11.0104 6.01042 10.0625 5.44531C9.09635 4.89844 8.07552 4.625 7 4.625C5.92448 4.625 4.90365 4.89844 3.9375 5.44531C2.98958 6.01042 2.24219 6.75781 1.69531 7.6875C1.16667 8.61719 0.893229 9.63802 0.875 10.75C0.893229 11.862 1.16667 12.8828 1.69531 13.8125C2.24219 14.7422 2.98958 15.4896 3.9375 16.0547C4.90365 16.6016 5.92448 16.875 7 16.875C8.07552 16.875 9.09635 16.6016 10.0625 16.0547C11.0104 15.4896 11.7578 14.7422 12.3047 13.8125C12.8333 12.8828 13.1068 11.862 13.125 10.75ZM0 10.75C0.0182292 9.47396 0.328125 8.30729 0.929688 7.25C1.54948 6.19271 2.40625 5.33594 3.5 4.67969C4.61198 4.0599 5.77865 3.75 7 3.75C8.22135 3.75 9.38802 4.0599 10.5 4.67969C11.5938 5.33594 12.4505 6.19271 13.0703 7.25C13.6719 8.30729 13.9818 9.47396 14 10.75C13.9818 12.026 13.6719 13.1927 13.0703 14.25C12.4505 15.3073 11.5938 16.1641 10.5 16.8203C9.38802 17.4401 8.22135 17.75 7 17.75C5.77865 17.75 4.61198 17.4401 3.5 16.8203C2.40625 16.1641 1.54948 15.3073 0.929688 14.25C0.328125 13.1927 0.0182292 12.026 0 10.75ZM4.375 8.125H9.625C9.88021 8.125 10.0898 8.20703 10.2539 8.37109C10.418 8.53516 10.5 8.74479 10.5 9V12.5C10.5 12.7552 10.418 12.9648 10.2539 13.1289C10.0898 13.293 9.88021 13.375 9.625 13.375H4.375C4.11979 13.375 3.91016 13.293 3.74609 13.1289C3.58203 12.9648 3.5 12.7552 3.5 12.5V9C3.5 8.74479 3.58203 8.53516 3.74609 8.37109C3.91016 8.20703 4.11979 8.125 4.375 8.125ZM9.625 9.46484V9H4.375V9.46484L6.80859 10.75C6.86328 10.7682 6.92708 10.7865 7 10.8047C7.07292 10.8047 7.14583 10.7865 7.21875 10.75L9.625 9.46484ZM9.625 10.4492L7.62891 11.5156C7.42839 11.6068 7.21875 11.6523 7 11.6523C6.78125 11.6523 6.57161 11.6068 6.37109 11.5156L4.375 10.4492V12.5H9.625V10.4492Z" fill="black" fill-opacity="0.72"/>
</g>
<defs>
<clipPath id="clip0_1731_2561">
<rect width="14" height="22" fill="white"/>
</clipPath>
</defs>
</svg>
