<svg width="20" height="30" viewBox="0 0 20 30" fill="none" xmlns="http://www.w3.org/2000/svg">
<g id="label-paired / lg / chart-area-lg / regular" clip-path="url(#clip0_1731_4725)">
<path id="icon" d="M1.25 7.375V21.125C1.27604 21.6458 1.45833 22.0885 1.79688 22.4531C2.16146 22.7917 2.60417 22.974 3.125 23H19.375C19.7656 23.026 19.974 23.2344 20 23.625C19.974 24.0156 19.7656 24.224 19.375 24.25H3.125C2.23958 24.224 1.4974 23.9245 0.898438 23.3516C0.325521 22.7526 0.0260417 22.0104 0 21.125V7.375C0.0260417 6.98438 0.234375 6.77604 0.625 6.75C1.01562 6.77604 1.22396 6.98438 1.25 7.375ZM11.6016 13.8984L8.75 11.0078L5.19531 14.6016C5.0651 14.7057 5 14.849 5 15.0312V19.25H17.5V15.5781C17.5 15.4219 17.4479 15.2786 17.3438 15.1484L14.9219 12.3359L13.3984 13.8984C13.138 14.1328 12.8385 14.25 12.5 14.25C12.1615 14.25 11.862 14.1328 11.6016 13.8984ZM11.6016 12.1016L12.5 13L13.3984 12.1016L14.0625 11.4375C14.3229 11.2031 14.6224 11.0859 14.9609 11.0859C15.3255 11.112 15.625 11.2552 15.8594 11.5156L18.2812 14.3672C18.5938 14.7057 18.75 15.1094 18.75 15.5781V19.25C18.75 19.6146 18.6328 19.9141 18.3984 20.1484C18.1641 20.3828 17.8646 20.5 17.5 20.5H5C4.63542 20.5 4.33594 20.3828 4.10156 20.1484C3.86719 19.9141 3.75 19.6146 3.75 19.25V15.0312C3.75 14.5104 3.93229 14.0677 4.29688 13.7031L7.85156 10.1484C8.11198 9.88802 8.41146 9.75781 8.75 9.75781C9.08854 9.75781 9.38802 9.88802 9.64844 10.1484L11.6016 12.1016Z" fill="black" fill-opacity="0.72"/>
</g>
<defs>
<clipPath id="clip0_1731_4725">
<rect width="20" height="30" fill="white"/>
</clipPath>
</defs>
</svg>
