<svg width="20" height="24" viewBox="0 0 20 24" fill="none" xmlns="http://www.w3.org/2000/svg">
<g id="label-paired / md / apple-pay-md" clip-path="url(#clip0_1731_13961)">
<path id="icon" d="M3.65625 8.96875V8.9375C3.90625 8.64583 4.02083 8.30208 4 7.90625C3.625 7.92708 3.30208 8.09375 3.03125 8.40625C2.78125 8.67708 2.65625 9.01042 2.65625 9.40625C3.07292 9.40625 3.40625 9.26042 3.65625 8.96875ZM4 9.5C4.125 9.5 4.30208 9.53125 4.53125 9.59375C4.78125 9.67708 5.01042 9.86458 5.21875 10.1562C5.19792 10.1562 5.1875 10.1562 5.1875 10.1562C5.10417 10.1979 4.97917 10.3229 4.8125 10.5312C4.625 10.7188 4.52083 11.0104 4.5 11.4062C4.52083 11.8646 4.64583 12.1979 4.875 12.4062C5.125 12.6146 5.29167 12.7292 5.375 12.75C5.375 12.7708 5.33333 12.875 5.25 13.0625C5.1875 13.2292 5.08333 13.4375 4.9375 13.6875C4.79167 13.8958 4.63542 14.0833 4.46875 14.25C4.32292 14.3958 4.13542 14.4792 3.90625 14.5C3.69792 14.5 3.53125 14.4583 3.40625 14.375C3.26042 14.2917 3.0625 14.2396 2.8125 14.2188C2.5625 14.2396 2.36458 14.2917 2.21875 14.375C2.09375 14.4375 1.9375 14.4792 1.75 14.5C1.52083 14.5 1.32292 14.4167 1.15625 14.25C0.989583 14.0833 0.833333 13.8854 0.6875 13.6562C0.395833 13.2188 0.1875 12.6875 0.0625 12.0625C-0.0625 11.4375 0.0104167 10.8646 0.28125 10.3438C0.59375 9.82292 1.05208 9.54167 1.65625 9.5C1.88542 9.52083 2.10417 9.58333 2.3125 9.6875C2.47917 9.75 2.61458 9.79167 2.71875 9.8125C2.82292 9.79167 2.95833 9.75 3.125 9.6875C3.375 9.5625 3.66667 9.5 4 9.5ZM7.125 8.34375H9.40625C10.0104 8.36458 10.5 8.55208 10.875 8.90625C11.2292 9.28125 11.4062 9.76042 11.4062 10.3438C11.4062 10.9479 11.2188 11.4375 10.8438 11.8125C10.4896 12.1667 10 12.3542 9.375 12.375H8.0625V14.4375H7.125V8.34375ZM8.0625 9.15625V11.5625H9.15625C10.0104 11.5417 10.4479 11.1458 10.4688 10.375C10.4479 9.58333 10.0104 9.17708 9.15625 9.15625H8.0625ZM13.1562 14.5C12.6979 14.5 12.3333 14.375 12.0625 14.125C11.7917 13.8958 11.6562 13.5833 11.6562 13.1875C11.6771 12.3958 12.2396 11.9583 13.3438 11.875L14.5312 11.8125V11.4688C14.5104 10.9688 14.2083 10.7188 13.625 10.7188C13.125 10.7396 12.8229 10.9479 12.7188 11.3438H11.875C11.8958 10.9271 12.0729 10.5938 12.4062 10.3438C12.7188 10.0938 13.1354 9.96875 13.6562 9.96875C14.1979 9.96875 14.625 10.1042 14.9375 10.375C15.2708 10.625 15.4375 10.9688 15.4375 11.4062V14.4375H14.5625V13.7188H14.5312C14.2396 14.2188 13.7812 14.4792 13.1562 14.5ZM13.4062 13.7812C13.7396 13.7812 14.0104 13.6875 14.2188 13.5C14.4271 13.3125 14.5312 13.0833 14.5312 12.8125V12.4688L13.4688 12.5312C12.8854 12.5729 12.5833 12.7812 12.5625 13.1562C12.6042 13.5521 12.8854 13.7604 13.4062 13.7812ZM16.5938 16.0938C16.4688 16.0938 16.3542 16.0938 16.25 16.0938V15.3438C16.3333 15.3646 16.4271 15.375 16.5312 15.375C16.9271 15.3958 17.1875 15.1875 17.3125 14.75L17.4062 14.4688L15.8125 10.0312H16.7812L17.9062 13.625H17.9375L19.0312 10.0312H20L18.3438 14.6875C18.1562 15.2083 17.9375 15.5729 17.6875 15.7812C17.4167 16.0104 17.0521 16.1146 16.5938 16.0938Z" fill="black" fill-opacity="0.72"/>
</g>
<defs>
<clipPath id="clip0_1731_13961">
<rect width="20" height="24" fill="white"/>
</clipPath>
</defs>
</svg>
