<svg width="2" height="18" viewBox="0 0 2 18" fill="none" xmlns="http://www.w3.org/2000/svg">
<g id="label-paired / caption / exclamation-caption / bold" clip-path="url(#clip0_1731_1618)">
<path id="icon" d="M1.5625 4.8125V11.5625C1.53125 11.9062 1.34375 12.0938 1 12.125C0.65625 12.0938 0.46875 11.9062 0.4375 11.5625V4.8125C0.46875 4.46875 0.65625 4.28125 1 4.25C1.34375 4.28125 1.53125 4.46875 1.5625 4.8125ZM1 14.75C0.78125 14.75 0.601562 14.6797 0.460938 14.5391C0.320312 14.3984 0.25 14.2188 0.25 14C0.25 13.7812 0.320312 13.6016 0.460938 13.4609C0.601562 13.3203 0.78125 13.25 1 13.25C1.21875 13.25 1.39844 13.3203 1.53906 13.4609C1.67969 13.6016 1.75 13.7812 1.75 14C1.75 14.2188 1.67969 14.3984 1.53906 14.5391C1.39844 14.6797 1.21875 14.75 1 14.75Z" fill="black" fill-opacity="0.72"/>
</g>
<defs>
<clipPath id="clip0_1731_1618">
<rect width="2" height="18" fill="white"/>
</clipPath>
</defs>
</svg>
