<svg width="14" height="22" viewBox="0 0 14 22" fill="none" xmlns="http://www.w3.org/2000/svg">
<g id="label-paired / sm / app-store-sm" clip-path="url(#clip0_1731_13876)">
<path id="icon" d="M7 7.05859L6.75391 6.62109C6.55339 6.34766 6.29818 6.28385 5.98828 6.42969C5.71484 6.63021 5.65104 6.88542 5.79688 7.19531L6.34375 8.17969L4.53906 11.3242H3.11719C2.77083 11.3607 2.57943 11.5521 2.54297 11.8984C2.57943 12.2266 2.77083 12.4089 3.11719 12.4453H8.17578C8.30339 12.1901 8.30339 11.944 8.17578 11.707C8.04818 11.4701 7.83854 11.3424 7.54688 11.3242H5.82422L8.20312 7.19531C8.34896 6.88542 8.28516 6.63021 8.01172 6.42969C7.70182 6.28385 7.44661 6.34766 7.24609 6.62109L7 7.05859ZM4.83984 13.0195C4.54818 12.6732 4.18359 12.5638 3.74609 12.6914L3.33594 13.4023C3.1901 13.7122 3.26302 13.9583 3.55469 14.1406C3.86458 14.2865 4.11979 14.2227 4.32031 13.9492L4.83984 13.0195ZM9.46094 11.3242C9.40625 11.2331 9.36068 11.151 9.32422 11.0781C8.66797 9.92969 8.16667 9.0638 7.82031 8.48047C7.63802 8.6263 7.5013 8.8724 7.41016 9.21875C7.33724 9.58333 7.41016 9.96615 7.62891 10.3672C7.84766 10.75 8.11198 11.2148 8.42188 11.7617C8.78646 12.3815 9.20573 13.1107 9.67969 13.9492C9.88021 14.2227 10.1354 14.2865 10.4453 14.1406C10.7188 13.9583 10.7917 13.7031 10.6641 13.375L10.1172 12.4453H10.9102C11.2565 12.4089 11.4479 12.2266 11.4844 11.8984C11.4479 11.5521 11.2565 11.3607 10.9102 11.3242H9.46094ZM7 3.96875C8.25781 3.98698 9.39714 4.29688 10.418 4.89844C11.4388 5.5 12.25 6.3112 12.8516 7.33203C13.4531 8.35286 13.763 9.49219 13.7812 10.75C13.763 12.0078 13.4531 13.1471 12.8516 14.168C12.25 15.1888 11.4388 16 10.418 16.6016C9.39714 17.2031 8.25781 17.513 7 17.5312C5.74219 17.513 4.60286 17.2031 3.58203 16.6016C2.5612 16 1.75 15.1888 1.14844 14.168C0.546875 13.1471 0.236979 12.0078 0.21875 10.75C0.236979 9.49219 0.546875 8.35286 1.14844 7.33203C1.75 6.3112 2.5612 5.5 3.58203 4.89844C4.60286 4.29688 5.74219 3.98698 7 3.96875ZM12.9062 10.75C12.8698 9.07292 12.2956 7.67839 11.1836 6.56641C10.0534 5.45443 8.65885 4.88021 7 4.84375C5.32292 4.88021 3.92839 5.45443 2.81641 6.56641C1.70443 7.69661 1.13021 9.09115 1.09375 10.75C1.13021 12.4271 1.70443 13.8216 2.81641 14.9336C3.94661 16.0456 5.34115 16.6198 7 16.6562C8.67708 16.6198 10.0716 16.0456 11.1836 14.9336C12.2956 13.8034 12.8698 12.4089 12.9062 10.75Z" fill="black" fill-opacity="0.72"/>
</g>
<defs>
<clipPath id="clip0_1731_13876">
<rect width="14" height="22" fill="white"/>
</clipPath>
</defs>
</svg>
