<svg width="10" height="30" viewBox="0 0 10 30" fill="none" xmlns="http://www.w3.org/2000/svg">
<g id="label-paired / lg / grip-dots-vertical-lg / regular" clip-path="url(#clip0_1731_5264)">
<path id="icon" d="M2.5 9.25C2.47396 8.85938 2.26562 8.65104 1.875 8.625C1.48438 8.65104 1.27604 8.85938 1.25 9.25C1.27604 9.64062 1.48438 9.84896 1.875 9.875C2.26562 9.84896 2.47396 9.64062 2.5 9.25ZM0 9.25C0.0260417 8.54688 0.338542 8 0.9375 7.60938C1.5625 7.29688 2.1875 7.29688 2.8125 7.60938C3.41146 8 3.72396 8.54688 3.75 9.25C3.72396 9.95312 3.41146 10.5 2.8125 10.8906C2.1875 11.2031 1.5625 11.2031 0.9375 10.8906C0.338542 10.5 0.0260417 9.95312 0 9.25ZM2.5 15.5C2.47396 15.1094 2.26562 14.901 1.875 14.875C1.48438 14.901 1.27604 15.1094 1.25 15.5C1.27604 15.8906 1.48438 16.099 1.875 16.125C2.26562 16.099 2.47396 15.8906 2.5 15.5ZM0 15.5C0.0260417 14.7969 0.338542 14.25 0.9375 13.8594C1.5625 13.5469 2.1875 13.5469 2.8125 13.8594C3.41146 14.25 3.72396 14.7969 3.75 15.5C3.72396 16.2031 3.41146 16.75 2.8125 17.1406C2.1875 17.4531 1.5625 17.4531 0.9375 17.1406C0.338542 16.75 0.0260417 16.2031 0 15.5ZM1.875 22.375C2.26562 22.349 2.47396 22.1406 2.5 21.75C2.47396 21.3594 2.26562 21.151 1.875 21.125C1.48438 21.151 1.27604 21.3594 1.25 21.75C1.27604 22.1406 1.48438 22.349 1.875 22.375ZM1.875 19.875C2.57812 19.901 3.125 20.2135 3.51562 20.8125C3.82812 21.4375 3.82812 22.0625 3.51562 22.6875C3.125 23.2865 2.57812 23.599 1.875 23.625C1.17188 23.599 0.625 23.2865 0.234375 22.6875C-0.078125 22.0625 -0.078125 21.4375 0.234375 20.8125C0.625 20.2135 1.17188 19.901 1.875 19.875ZM8.75 9.25C8.72396 8.85938 8.51562 8.65104 8.125 8.625C7.73438 8.65104 7.52604 8.85938 7.5 9.25C7.52604 9.64062 7.73438 9.84896 8.125 9.875C8.51562 9.84896 8.72396 9.64062 8.75 9.25ZM6.25 9.25C6.27604 8.54688 6.58854 8 7.1875 7.60938C7.8125 7.29688 8.4375 7.29688 9.0625 7.60938C9.66146 8 9.97396 8.54688 10 9.25C9.97396 9.95312 9.66146 10.5 9.0625 10.8906C8.4375 11.2031 7.8125 11.2031 7.1875 10.8906C6.58854 10.5 6.27604 9.95312 6.25 9.25ZM8.125 16.125C8.51562 16.099 8.72396 15.8906 8.75 15.5C8.72396 15.1094 8.51562 14.901 8.125 14.875C7.73438 14.901 7.52604 15.1094 7.5 15.5C7.52604 15.8906 7.73438 16.099 8.125 16.125ZM8.125 13.625C8.82812 13.651 9.375 13.9635 9.76562 14.5625C10.0781 15.1875 10.0781 15.8125 9.76562 16.4375C9.375 17.0365 8.82812 17.349 8.125 17.375C7.42188 17.349 6.875 17.0365 6.48438 16.4375C6.17188 15.8125 6.17188 15.1875 6.48438 14.5625C6.875 13.9635 7.42188 13.651 8.125 13.625ZM8.75 21.75C8.72396 21.3594 8.51562 21.151 8.125 21.125C7.73438 21.151 7.52604 21.3594 7.5 21.75C7.52604 22.1406 7.73438 22.349 8.125 22.375C8.51562 22.349 8.72396 22.1406 8.75 21.75ZM6.25 21.75C6.27604 21.0469 6.58854 20.5 7.1875 20.1094C7.8125 19.7969 8.4375 19.7969 9.0625 20.1094C9.66146 20.5 9.97396 21.0469 10 21.75C9.97396 22.4531 9.66146 23 9.0625 23.3906C8.4375 23.7031 7.8125 23.7031 7.1875 23.3906C6.58854 23 6.27604 22.4531 6.25 21.75Z" fill="black" fill-opacity="0.72"/>
</g>
<defs>
<clipPath id="clip0_1731_5264">
<rect width="10" height="30" fill="white"/>
</clipPath>
</defs>
</svg>
