<svg width="8" height="24" viewBox="0 0 8 24" fill="none" xmlns="http://www.w3.org/2000/svg">
<g id="label-paired / md / one-md / regular" clip-path="url(#clip0_1731_3511)">
<path id="icon" d="M4.5 5.5V18H7.5C7.8125 18.0208 7.97917 18.1875 8 18.5C7.97917 18.8125 7.8125 18.9792 7.5 19H4H0.5C0.1875 18.9792 0.0208333 18.8125 0 18.5C0.0208333 18.1875 0.1875 18.0208 0.5 18H3.5V6.4375L1.28125 7.90625C1.01042 8.05208 0.78125 8.01042 0.59375 7.78125C0.447917 7.51042 0.489583 7.28125 0.71875 7.09375L3.71875 5.09375C3.88542 4.98958 4.0625 4.97917 4.25 5.0625C4.41667 5.16667 4.5 5.3125 4.5 5.5Z" fill="black" fill-opacity="0.72"/>
</g>
<defs>
<clipPath id="clip0_1731_3511">
<rect width="8" height="24" fill="white"/>
</clipPath>
</defs>
</svg>
