<svg width="24" height="36" viewBox="0 0 24 36" fill="none" xmlns="http://www.w3.org/2000/svg">
<g id="label-paired / xl / clone-xl / regular" clip-path="url(#clip0_1731_6478)">
<path id="icon" d="M3 28.5H13.5C13.9375 28.5 14.2969 28.3594 14.5781 28.0781C14.8594 27.7969 15 27.4375 15 27V24H16.5V27C16.4688 27.8438 16.1719 28.5469 15.6094 29.1094C15.0469 29.6719 14.3438 29.9688 13.5 30H3C2.15625 29.9688 1.45312 29.6719 0.890625 29.1094C0.328125 28.5469 0.03125 27.8438 0 27V16.5C0.03125 15.6562 0.328125 14.9531 0.890625 14.3906C1.45312 13.8281 2.15625 13.5312 3 13.5H6V15H3C2.5625 15 2.20312 15.1406 1.92188 15.4219C1.64062 15.7031 1.5 16.0625 1.5 16.5V27C1.5 27.4375 1.64062 27.7969 1.92188 28.0781C2.20312 28.3594 2.5625 28.5 3 28.5ZM10.5 21H21C21.4375 21 21.7969 20.8594 22.0781 20.5781C22.3594 20.2969 22.5 19.9375 22.5 19.5V9C22.5 8.5625 22.3594 8.20312 22.0781 7.92188C21.7969 7.64062 21.4375 7.5 21 7.5H10.5C10.0625 7.5 9.70312 7.64062 9.42188 7.92188C9.14062 8.20312 9 8.5625 9 9V19.5C9 19.9375 9.14062 20.2969 9.42188 20.5781C9.70312 20.8594 10.0625 21 10.5 21ZM7.5 19.5V9C7.53125 8.15625 7.82812 7.45312 8.39062 6.89062C8.95312 6.32812 9.65625 6.03125 10.5 6H21C21.8438 6.03125 22.5469 6.32812 23.1094 6.89062C23.6719 7.45312 23.9688 8.15625 24 9V19.5C23.9688 20.3438 23.6719 21.0469 23.1094 21.6094C22.5469 22.1719 21.8438 22.4688 21 22.5H10.5C9.65625 22.4688 8.95312 22.1719 8.39062 21.6094C7.82812 21.0469 7.53125 20.3438 7.5 19.5Z" fill="black" fill-opacity="0.72"/>
</g>
<defs>
<clipPath id="clip0_1731_6478">
<rect width="24" height="36" fill="white"/>
</clipPath>
</defs>
</svg>
