<svg width="18" height="22" viewBox="0 0 18 22" fill="none" xmlns="http://www.w3.org/2000/svg">
<g id="label-paired / sm / take-profit-sm / bold" clip-path="url(#clip0_1731_2034)">
<path id="icon" d="M6.40234 8.50781V14.4141H4.78906V8.50781H2.82031V7.08594H8.37109V8.50781H6.40234ZM9.46484 14.4141V7.08594H12.9375C13.2656 7.08594 13.5938 7.16797 13.8672 7.27734C14.1406 7.38672 14.3594 7.55078 14.5508 7.74219C14.7422 7.96094 14.9062 8.20703 15.0156 8.50781C15.0977 8.78125 15.1523 9.10938 15.1523 9.4375C15.1523 9.79297 15.0977 10.1211 15.0156 10.3945C14.9062 10.6953 14.7422 10.9414 14.5508 11.1328C14.3594 11.3242 14.1406 11.4883 13.8672 11.625C13.5938 11.7344 13.293 11.7891 12.9375 11.7891H11.0781V14.4141H9.46484ZM11.0781 10.3945H12.7461C12.9922 10.3945 13.1836 10.3398 13.293 10.2031C13.457 10.0938 13.5117 9.90234 13.5117 9.65625V9.21875C13.5117 8.97266 13.457 8.78125 13.293 8.67188C13.1836 8.53516 12.9922 8.48047 12.7461 8.48047H11.0781V10.3945Z" fill="black" fill-opacity="0.72"/>
</g>
<defs>
<clipPath id="clip0_1731_2034">
<rect width="18" height="22" fill="white"/>
</clipPath>
</defs>
</svg>
