<svg width="3" height="36" viewBox="0 0 3 36" fill="none" xmlns="http://www.w3.org/2000/svg">
<g id="label-paired / xl / exclamation-xl / bold" clip-path="url(#clip0_1731_6650)">
<path id="icon" d="M2.625 8.625V22.125C2.5625 22.8125 2.1875 23.1875 1.5 23.25C0.8125 23.1875 0.4375 22.8125 0.375 22.125V8.625C0.4375 7.9375 0.8125 7.5625 1.5 7.5C2.1875 7.5625 2.5625 7.9375 2.625 8.625ZM1.5 28.5C1.0625 28.5 0.703125 28.3594 0.421875 28.0781C0.140625 27.7969 0 27.4375 0 27C0 26.5625 0.140625 26.2031 0.421875 25.9219C0.703125 25.6406 1.0625 25.5 1.5 25.5C1.9375 25.5 2.29688 25.6406 2.57812 25.9219C2.85938 26.2031 3 26.5625 3 27C3 27.4375 2.85938 27.7969 2.57812 28.0781C2.29688 28.3594 1.9375 28.5 1.5 28.5Z" fill="black" fill-opacity="0.72"/>
</g>
<defs>
<clipPath id="clip0_1731_6650">
<rect width="3" height="36" fill="white"/>
</clipPath>
</defs>
</svg>
