<svg width="24" height="36" viewBox="0 0 24 36" fill="none" xmlns="http://www.w3.org/2000/svg">
<g id="label-paired / xl / circle-envelope-xl / regular" clip-path="url(#clip0_1731_6335)">
<path id="icon" d="M22.5 18C22.4688 16.0938 22 14.3438 21.0938 12.75C20.1562 11.1562 18.875 9.875 17.25 8.90625C15.5938 7.96875 13.8438 7.5 12 7.5C10.1562 7.5 8.40625 7.96875 6.75 8.90625C5.125 9.875 3.84375 11.1562 2.90625 12.75C2 14.3438 1.53125 16.0938 1.5 18C1.53125 19.9062 2 21.6562 2.90625 23.25C3.84375 24.8438 5.125 26.125 6.75 27.0938C8.40625 28.0312 10.1562 28.5 12 28.5C13.8438 28.5 15.5938 28.0312 17.25 27.0938C18.875 26.125 20.1562 24.8438 21.0938 23.25C22 21.6562 22.4688 19.9062 22.5 18ZM0 18C0.03125 15.8125 0.5625 13.8125 1.59375 12C2.65625 10.1875 4.125 8.71875 6 7.59375C7.90625 6.53125 9.90625 6 12 6C14.0938 6 16.0938 6.53125 18 7.59375C19.875 8.71875 21.3438 10.1875 22.4062 12C23.4375 13.8125 23.9688 15.8125 24 18C23.9688 20.1875 23.4375 22.1875 22.4062 24C21.3438 25.8125 19.875 27.2812 18 28.4062C16.0938 29.4688 14.0938 30 12 30C9.90625 30 7.90625 29.4688 6 28.4062C4.125 27.2812 2.65625 25.8125 1.59375 24C0.5625 22.1875 0.03125 20.1875 0 18ZM7.5 13.5H16.5C16.9375 13.5 17.2969 13.6406 17.5781 13.9219C17.8594 14.2031 18 14.5625 18 15V21C18 21.4375 17.8594 21.7969 17.5781 22.0781C17.2969 22.3594 16.9375 22.5 16.5 22.5H7.5C7.0625 22.5 6.70312 22.3594 6.42188 22.0781C6.14062 21.7969 6 21.4375 6 21V15C6 14.5625 6.14062 14.2031 6.42188 13.9219C6.70312 13.6406 7.0625 13.5 7.5 13.5ZM16.5 15.7969V15H7.5V15.7969L11.6719 18C11.7656 18.0312 11.875 18.0625 12 18.0938C12.125 18.0938 12.25 18.0625 12.375 18L16.5 15.7969ZM16.5 17.4844L13.0781 19.3125C12.7344 19.4688 12.375 19.5469 12 19.5469C11.625 19.5469 11.2656 19.4688 10.9219 19.3125L7.5 17.4844V21H16.5V17.4844Z" fill="black" fill-opacity="0.72"/>
</g>
<defs>
<clipPath id="clip0_1731_6335">
<rect width="24" height="36" fill="white"/>
</clipPath>
</defs>
</svg>
