<svg width="18" height="22" viewBox="0 0 18 22" fill="none" xmlns="http://www.w3.org/2000/svg">
<g id="label-paired / sm / chart-trend-down-sm / regular" clip-path="url(#clip0_1885_545)">
<path id="icon" d="M17.0664 17.2852C16.8477 17.3945 16.5742 17.3125 16.4648 17.0938L13.9766 12.0625H9.875C9.68359 12.0625 9.54688 11.9805 9.46484 11.8438L6.15625 5.22656L1.31641 7.66016C1.09766 7.76953 0.824219 7.66016 0.714844 7.46875C0.605469 7.25 0.6875 6.97656 0.90625 6.86719L6.15625 4.24219C6.375 4.13281 6.64844 4.21484 6.75781 4.43359L10.1211 11.1875H14.25C14.4141 11.1875 14.5508 11.2969 14.6328 11.4336L17.2578 16.6836C17.3672 16.9023 17.2852 17.1758 17.0664 17.2852Z" fill="black" fill-opacity="0.72"/>
</g>
<defs>
<clipPath id="clip0_1885_545">
<rect width="18" height="22" fill="white"/>
</clipPath>
</defs>
</svg>
