<svg width="15" height="18" viewBox="0 0 15 18" fill="none" xmlns="http://www.w3.org/2000/svg">
<g id="label-paired / caption / users-caption / bold" clip-path="url(#clip0_1731_1760)">
<path id="icon" d="M3.375 7.25C2.67188 7.23438 2.13281 6.92188 1.75781 6.3125C1.41406 5.6875 1.41406 5.0625 1.75781 4.4375C2.13281 3.82812 2.67188 3.51563 3.375 3.5C4.07812 3.51563 4.61719 3.82812 4.99219 4.4375C5.33594 5.0625 5.33594 5.6875 4.99219 6.3125C4.61719 6.92188 4.07812 7.23438 3.375 7.25ZM12 7.25C11.2969 7.23438 10.7578 6.92188 10.3828 6.3125C10.0391 5.6875 10.0391 5.0625 10.3828 4.4375C10.7578 3.82812 11.2969 3.51563 12 3.5C12.7031 3.51563 13.2422 3.82812 13.6172 4.4375C13.9609 5.0625 13.9609 5.6875 13.6172 6.3125C13.2422 6.92188 12.7031 7.23438 12 7.25ZM0 10.5078C0.015625 9.78906 0.257812 9.19531 0.726562 8.72656C1.19531 8.25781 1.78906 8.01562 2.50781 8H3.49219C3.86719 8 4.21875 8.07812 4.54688 8.23438C4.51562 8.40625 4.5 8.57812 4.5 8.75C4.53125 9.67188 4.86719 10.4219 5.50781 11H0.492188C0.195312 10.9688 0.03125 10.8047 0 10.5078ZM9.49219 11C10.1328 10.4219 10.4688 9.67188 10.5 8.75C10.5 8.57812 10.4844 8.40625 10.4531 8.23438C10.7812 8.07812 11.1328 8 11.5078 8H12.4922C13.2109 8.01562 13.8047 8.25781 14.2734 8.72656C14.7422 9.19531 14.9844 9.78906 15 10.5078C14.9688 10.8047 14.8047 10.9688 14.5078 11H9.49219ZM7.5 7.625C7.07812 7.64062 6.75 7.82812 6.51562 8.1875C6.32812 8.5625 6.32812 8.9375 6.51562 9.3125C6.75 9.67188 7.07812 9.85938 7.5 9.875C7.92188 9.85938 8.25 9.67188 8.48438 9.3125C8.67188 8.9375 8.67188 8.5625 8.48438 8.1875C8.25 7.82812 7.92188 7.64062 7.5 7.625ZM7.5 11C7.09375 11 6.71875 10.8984 6.375 10.6953C6.03125 10.4922 5.75781 10.2188 5.55469 9.875C5.35156 9.51562 5.25 9.14062 5.25 8.75C5.25 8.35938 5.35156 7.98438 5.55469 7.625C5.75781 7.28125 6.03125 7.00781 6.375 6.80469C6.71875 6.60156 7.09375 6.5 7.5 6.5C7.90625 6.5 8.28125 6.60156 8.625 6.80469C8.96875 7.00781 9.24219 7.28125 9.44531 7.625C9.64844 7.98438 9.75 8.35938 9.75 8.75C9.75 9.14062 9.64844 9.51562 9.44531 9.875C9.24219 10.2188 8.96875 10.4922 8.625 10.6953C8.28125 10.8984 7.90625 11 7.5 11ZM6.11719 12.875C5.64844 12.8906 5.24219 13.0312 4.89844 13.2969C4.53906 13.5781 4.30469 13.9375 4.19531 14.375H10.8047C10.6953 13.9375 10.4609 13.5781 10.1016 13.2969C9.75781 13.0312 9.35156 12.8906 8.88281 12.875H6.11719ZM6.11719 11.75H8.88281C9.75781 11.7656 10.4922 12.0703 11.0859 12.6641C11.6797 13.2578 11.9844 13.9922 12 14.8672C11.9688 15.2578 11.7578 15.4688 11.3672 15.5H3.63281C3.24219 15.4688 3.03125 15.2578 3 14.8672C3.01562 13.9922 3.32031 13.2578 3.91406 12.6641C4.50781 12.0703 5.24219 11.7656 6.11719 11.75Z" fill="black" fill-opacity="0.72"/>
</g>
<defs>
<clipPath id="clip0_1731_1760">
<rect width="15" height="18" fill="white"/>
</clipPath>
</defs>
</svg>
