<svg width="24" height="36" viewBox="0 0 24 36" fill="none" xmlns="http://www.w3.org/2000/svg">
<g id="label-paired / xl / google-play-xl" clip-path="url(#clip0_1731_14131)">
<path id="icon" d="M15.2344 16.9688L18.0469 14.1562L4.92188 6.60938L15.2344 16.9688ZM2.20312 6L14.25 18L2.20312 30C1.54688 29.6562 1.20312 29.1094 1.17188 28.3594V7.64062C1.20312 6.89062 1.54688 6.34375 2.20312 6ZM22.125 16.5938C22.5938 16.9375 22.8281 17.4062 22.8281 18C22.8281 18.5938 22.6094 19.0625 22.1719 19.4062L19.3594 21.0469L16.3125 18L19.3594 15L22.125 16.5938ZM4.92188 29.3906L15.2344 19.0312L18.0469 21.8438L4.92188 29.3906Z" fill="black" fill-opacity="0.72"/>
</g>
<defs>
<clipPath id="clip0_1731_14131">
<rect width="24" height="36" fill="white"/>
</clipPath>
</defs>
</svg>
