<svg width="14" height="22" viewBox="0 0 14 22" fill="none" xmlns="http://www.w3.org/2000/svg">
<g id="label-paired / sm / circle-six-sm / regular" clip-path="url(#clip0_1731_2328)">
<path id="icon" d="M7 4.625C5.88802 4.64323 4.86719 4.91667 3.9375 5.44531C3.00781 5.99219 2.26042 6.73958 1.69531 7.6875C1.14844 8.65365 0.875 9.67448 0.875 10.75C0.875 11.8255 1.14844 12.8464 1.69531 13.8125C2.26042 14.7604 3.00781 15.5078 3.9375 16.0547C4.86719 16.5833 5.88802 16.8568 7 16.875C8.11198 16.8568 9.13281 16.5833 10.0625 16.0547C10.9922 15.5078 11.7396 14.7604 12.3047 13.8125C12.8516 12.8464 13.125 11.8255 13.125 10.75C13.125 9.67448 12.8516 8.65365 12.3047 7.6875C11.7396 6.73958 10.9922 5.99219 10.0625 5.44531C9.13281 4.91667 8.11198 4.64323 7 4.625ZM7 17.75C5.72396 17.7318 4.55729 17.4219 3.5 16.8203C2.44271 16.2005 1.58594 15.3438 0.929688 14.25C0.309896 13.138 0 11.9714 0 10.75C0 9.52865 0.309896 8.36198 0.929688 7.25C1.58594 6.15625 2.44271 5.29948 3.5 4.67969C4.55729 4.07812 5.72396 3.76823 7 3.75C8.27604 3.76823 9.44271 4.07812 10.5 4.67969C11.5573 5.29948 12.4141 6.15625 13.0703 7.25C13.6901 8.36198 14 9.52865 14 10.75C14 11.9714 13.6901 13.138 13.0703 14.25C12.4141 15.3438 11.5573 16.2005 10.5 16.8203C9.44271 17.4219 8.27604 17.7318 7 17.75ZM8.20312 7.38672C8.36719 7.60547 8.35807 7.8151 8.17578 8.01562L7.10938 9C7.82031 9.03646 8.41276 9.30078 8.88672 9.79297C9.36068 10.2852 9.60677 10.8958 9.625 11.625C9.60677 12.3724 9.35156 12.9922 8.85938 13.4844C8.36719 13.9766 7.7474 14.2318 7 14.25C6.2526 14.2318 5.63281 13.9766 5.14062 13.4844C4.64844 12.9922 4.39323 12.3724 4.375 11.625C4.39323 10.7682 4.70312 10.0482 5.30469 9.46484L7.57422 7.35938C7.79297 7.19531 8.0026 7.20443 8.20312 7.38672ZM7 9.875C6.34375 9.89323 5.84245 10.1849 5.49609 10.75C5.16797 11.3333 5.16797 11.9167 5.49609 12.5C5.84245 13.0651 6.34375 13.3568 7 13.375C7.65625 13.3568 8.15755 13.0651 8.50391 12.5C8.83203 11.9167 8.83203 11.3333 8.50391 10.75C8.15755 10.1849 7.65625 9.89323 7 9.875Z" fill="black" fill-opacity="0.72"/>
</g>
<defs>
<clipPath id="clip0_1731_2328">
<rect width="14" height="22" fill="white"/>
</clipPath>
</defs>
</svg>
