<svg width="13" height="22" viewBox="0 0 13 22" fill="none" xmlns="http://www.w3.org/2000/svg">
<g id="label-paired / sm / compress-sm / regular" clip-path="url(#clip0_1731_1842)">
<path id="icon" d="M4.75 5.0625V8.5625C4.73177 8.83594 4.58594 8.98177 4.3125 9H0.8125C0.539062 8.98177 0.393229 8.83594 0.375 8.5625C0.393229 8.28906 0.539062 8.14323 0.8125 8.125H3.875V5.0625C3.89323 4.78906 4.03906 4.64323 4.3125 4.625C4.58594 4.64323 4.73177 4.78906 4.75 5.0625ZM0.8125 12.5H4.3125C4.58594 12.5182 4.73177 12.6641 4.75 12.9375V16.4375C4.73177 16.7109 4.58594 16.8568 4.3125 16.875C4.03906 16.8568 3.89323 16.7109 3.875 16.4375V13.375H0.8125C0.539062 13.3568 0.393229 13.2109 0.375 12.9375C0.393229 12.6641 0.539062 12.5182 0.8125 12.5ZM9.125 5.0625V8.125H12.1875C12.4609 8.14323 12.6068 8.28906 12.625 8.5625C12.6068 8.83594 12.4609 8.98177 12.1875 9H8.6875C8.41406 8.98177 8.26823 8.83594 8.25 8.5625V5.0625C8.26823 4.78906 8.41406 4.64323 8.6875 4.625C8.96094 4.64323 9.10677 4.78906 9.125 5.0625ZM8.6875 12.5H12.1875C12.4609 12.5182 12.6068 12.6641 12.625 12.9375C12.6068 13.2109 12.4609 13.3568 12.1875 13.375H9.125V16.4375C9.10677 16.7109 8.96094 16.8568 8.6875 16.875C8.41406 16.8568 8.26823 16.7109 8.25 16.4375V12.9375C8.26823 12.6641 8.41406 12.5182 8.6875 12.5Z" fill="black" fill-opacity="0.72"/>
</g>
<defs>
<clipPath id="clip0_1731_1842">
<rect width="13" height="22" fill="white"/>
</clipPath>
</defs>
</svg>
