<svg width="30" height="36" viewBox="0 0 30 36" fill="none" xmlns="http://www.w3.org/2000/svg">
<g id="label-paired / xl / language-xl / bold" clip-path="url(#clip0_1731_6367)">
<path id="icon" d="M3 9H12.75H14.25H15H27C27.8438 9.03125 28.5469 9.32812 29.1094 9.89062C29.6719 10.4531 29.9688 11.1562 30 12V24C29.9688 24.8438 29.6719 25.5469 29.1094 26.1094C28.5469 26.6719 27.8438 26.9688 27 27H15H14.25H12.75H3C2.15625 26.9688 1.45312 26.6719 0.890625 26.1094C0.328125 25.5469 0.03125 24.8438 0 24V12C0.03125 11.1562 0.328125 10.4531 0.890625 9.89062C1.45312 9.32812 2.15625 9.03125 3 9ZM27 11.25H15V24.75H27C27.4688 24.7188 27.7188 24.4688 27.75 24V12C27.7188 11.5312 27.4688 11.2812 27 11.25ZM8.34375 14.25C8.1875 13.9062 7.90625 13.7188 7.5 13.6875C7.09375 13.7188 6.8125 13.9062 6.65625 14.25L3.65625 21C3.46875 21.5312 3.625 21.9375 4.125 22.2188C4.65625 22.4062 5.0625 22.25 5.34375 21.75L5.76562 20.8125H9.23438L9.65625 21.75C9.9375 22.25 10.3438 22.4062 10.875 22.2188C11.375 21.9375 11.5312 21.5312 11.3438 21L8.34375 14.25ZM8.39062 18.9375H6.60938L7.5 16.9219L8.39062 18.9375ZM21.375 13.6875C21.9375 13.75 22.25 14.0625 22.3125 14.625V14.8125H24.375H25.125C25.6875 14.875 26 15.1875 26.0625 15.75C26 16.3125 25.6875 16.625 25.125 16.6875H25.0312L24.9375 16.9219C24.5312 18.0469 23.9219 19.0625 23.1094 19.9688C23.1094 19.9688 23.125 19.9844 23.1562 20.0156C23.1875 20.0156 23.2031 20.0312 23.2031 20.0625L24.0938 20.5781C24.5625 20.9219 24.6719 21.3438 24.4219 21.8438C24.0781 22.3125 23.6562 22.4219 23.1562 22.1719L22.2656 21.6562C22.0469 21.5312 21.8438 21.3906 21.6562 21.2344C21.1562 21.6094 20.625 21.9219 20.0625 22.1719L19.875 22.2188C19.3438 22.4062 18.9375 22.25 18.6562 21.75C18.4688 21.2188 18.625 20.8125 19.125 20.5312L19.3125 20.4375C19.5938 20.3125 19.875 20.1562 20.1562 19.9688L19.5938 19.4062C19.2188 18.9688 19.2188 18.5312 19.5938 18.0938C20.0312 17.7188 20.4688 17.7188 20.9062 18.0938L21.6094 18.7969C22.2031 18.1719 22.6719 17.4688 23.0156 16.6875H21.375H18C17.4375 16.625 17.125 16.3125 17.0625 15.75C17.125 15.1875 17.4375 14.875 18 14.8125H20.4375V14.625C20.5 14.0625 20.8125 13.75 21.375 13.6875Z" fill="black" fill-opacity="0.72"/>
</g>
<defs>
<clipPath id="clip0_1731_6367">
<rect width="30" height="36" fill="white"/>
</clipPath>
</defs>
</svg>
