<svg width="25" height="30" viewBox="0 0 25 30" fill="none" xmlns="http://www.w3.org/2000/svg">
<g id="label-paired / lg / users-lg / regular" clip-path="url(#clip0_1731_5231)">
<path id="icon" d="M3.75 8.625C3.77604 9.32812 4.08854 9.875 4.6875 10.2656C5.3125 10.5781 5.9375 10.5781 6.5625 10.2656C7.16146 9.875 7.47396 9.32812 7.5 8.625C7.47396 7.92188 7.16146 7.375 6.5625 6.98438C5.9375 6.67188 5.3125 6.67188 4.6875 6.98438C4.08854 7.375 3.77604 7.92188 3.75 8.625ZM8.75 8.625C8.72396 9.79688 8.20312 10.6953 7.1875 11.3203C6.14583 11.8932 5.10417 11.8932 4.0625 11.3203C3.04688 10.6953 2.52604 9.79688 2.5 8.625C2.52604 7.45312 3.04688 6.55469 4.0625 5.92969C5.10417 5.35677 6.14583 5.35677 7.1875 5.92969C8.20312 6.55469 8.72396 7.45312 8.75 8.625ZM12.5 11.75C11.5625 11.776 10.8464 12.1927 10.3516 13C9.88281 13.8333 9.88281 14.6667 10.3516 15.5C10.8464 16.3073 11.5625 16.724 12.5 16.75C13.4375 16.724 14.1536 16.3073 14.6484 15.5C15.1172 14.6667 15.1172 13.8333 14.6484 13C14.1536 12.1927 13.4375 11.776 12.5 11.75ZM12.5 18C11.8229 18 11.1979 17.8307 10.625 17.4922C10.0521 17.1536 9.59635 16.6979 9.25781 16.125C8.91927 15.526 8.75 14.901 8.75 14.25C8.75 13.599 8.91927 12.974 9.25781 12.375C9.59635 11.8021 10.0521 11.3464 10.625 11.0078C11.1979 10.6693 11.8229 10.5 12.5 10.5C13.1771 10.5 13.8021 10.6693 14.375 11.0078C14.9479 11.3464 15.4036 11.8021 15.7422 12.375C16.0807 12.974 16.25 13.599 16.25 14.25C16.25 14.901 16.0807 15.526 15.7422 16.125C15.4036 16.6979 14.9479 17.1536 14.375 17.4922C13.8021 17.8307 13.1771 18 12.5 18ZM10.1953 20.5C9.1276 20.526 8.21615 20.8906 7.46094 21.5938C6.73177 22.2969 6.32812 23.1823 6.25 24.25H18.75C18.6719 23.1823 18.2682 22.2969 17.5391 21.5938C16.7839 20.8906 15.8724 20.526 14.8047 20.5H10.1953ZM10.1953 19.25H14.8047C16.263 19.276 17.487 19.7839 18.4766 20.7734C19.4661 21.763 19.974 22.987 20 24.4453C19.9479 25.0964 19.5964 25.4479 18.9453 25.5H6.05469C5.40365 25.4479 5.05208 25.0964 5 24.4453C5.02604 22.987 5.53385 21.763 6.52344 20.7734C7.51302 19.7839 8.73698 19.276 10.1953 19.25ZM20 6.75C19.2969 6.77604 18.75 7.08854 18.3594 7.6875C18.0469 8.3125 18.0469 8.9375 18.3594 9.5625C18.75 10.1615 19.2969 10.474 20 10.5C20.7031 10.474 21.25 10.1615 21.6406 9.5625C21.9531 8.9375 21.9531 8.3125 21.6406 7.6875C21.25 7.08854 20.7031 6.77604 20 6.75ZM20 11.75C18.8281 11.724 17.9297 11.2031 17.3047 10.1875C16.7318 9.14583 16.7318 8.10417 17.3047 7.0625C17.9297 6.04688 18.8281 5.52604 20 5.5C21.1719 5.52604 22.0703 6.04688 22.6953 7.0625C23.2682 8.10417 23.2682 9.14583 22.6953 10.1875C22.0703 11.2031 21.1719 11.724 20 11.75ZM20.625 14.25H17.5C17.5 13.8073 17.4479 13.3906 17.3438 13H20.625C21.875 13.026 22.9036 13.4557 23.7109 14.2891C24.5443 15.0964 24.974 16.125 25 17.375C24.974 17.7656 24.7656 17.974 24.375 18C23.9844 17.974 23.776 17.7656 23.75 17.375C23.724 16.4896 23.4245 15.7474 22.8516 15.1484C22.2526 14.5755 21.5104 14.276 20.625 14.25ZM7.5 14.25H4.375C3.48958 14.276 2.7474 14.5755 2.14844 15.1484C1.57552 15.7474 1.27604 16.4896 1.25 17.375C1.22396 17.7656 1.01562 17.974 0.625 18C0.234375 17.974 0.0260417 17.7656 0 17.375C0.0260417 16.125 0.455729 15.0964 1.28906 14.2891C2.09635 13.4557 3.125 13.026 4.375 13H7.65625C7.55208 13.3906 7.5 13.8073 7.5 14.25Z" fill="black" fill-opacity="0.72"/>
</g>
<defs>
<clipPath id="clip0_1731_5231">
<rect width="25" height="30" fill="white"/>
</clipPath>
</defs>
</svg>
