<svg width="16" height="24" viewBox="0 0 16 24" fill="none" xmlns="http://www.w3.org/2000/svg">
<g id="label-paired / md / circle-three-md / regular" clip-path="url(#clip0_1731_3571)">
<path id="icon" d="M8 5C6.72917 5.02083 5.5625 5.33333 4.5 5.9375C3.4375 6.5625 2.58333 7.41667 1.9375 8.5C1.3125 9.60417 1 10.7708 1 12C1 13.2292 1.3125 14.3958 1.9375 15.5C2.58333 16.5833 3.4375 17.4375 4.5 18.0625C5.5625 18.6667 6.72917 18.9792 8 19C9.27083 18.9792 10.4375 18.6667 11.5 18.0625C12.5625 17.4375 13.4167 16.5833 14.0625 15.5C14.6875 14.3958 15 13.2292 15 12C15 10.7708 14.6875 9.60417 14.0625 8.5C13.4167 7.41667 12.5625 6.5625 11.5 5.9375C10.4375 5.33333 9.27083 5.02083 8 5ZM8 20C6.54167 19.9792 5.20833 19.625 4 18.9375C2.79167 18.2292 1.8125 17.25 1.0625 16C0.354167 14.7292 0 13.3958 0 12C0 10.6042 0.354167 9.27083 1.0625 8C1.8125 6.75 2.79167 5.77083 4 5.0625C5.20833 4.375 6.54167 4.02083 8 4C9.45833 4.02083 10.7917 4.375 12 5.0625C13.2083 5.77083 14.1875 6.75 14.9375 8C15.6458 9.27083 16 10.6042 16 12C16 13.3958 15.6458 14.7292 14.9375 16C14.1875 17.25 13.2083 18.2292 12 18.9375C10.7917 19.625 9.45833 19.9792 8 20ZM5.5 8H10C10.2292 8.02083 10.3854 8.125 10.4688 8.3125C10.5312 8.54167 10.4792 8.72917 10.3125 8.875L7.84375 11H8.46875C9.19792 11 9.79167 11.2396 10.25 11.7188C10.7292 12.1979 10.9792 12.7917 11 13.5C10.9792 14.2083 10.7292 14.8021 10.25 15.2812C9.79167 15.7396 9.20833 15.9792 8.5 16H7.375C6.45833 15.9792 5.72917 15.6146 5.1875 14.9062L5.09375 14.8125C4.92708 14.5417 4.95833 14.3021 5.1875 14.0938C5.45833 13.9479 5.69792 13.9896 5.90625 14.2188L5.96875 14.3125C6.32292 14.7708 6.79167 15 7.375 15H8.5C8.91667 15 9.27083 14.8542 9.5625 14.5625C9.83333 14.2708 9.97917 13.9167 10 13.5C9.97917 13.0625 9.83333 12.7083 9.5625 12.4375C9.27083 12.1458 8.91667 12 8.5 12H6.5C6.27083 11.9792 6.11458 11.875 6.03125 11.6875C5.96875 11.4583 6.02083 11.2708 6.1875 11.125L8.65625 9H5.5C5.1875 8.97917 5.02083 8.8125 5 8.5C5.02083 8.1875 5.1875 8.02083 5.5 8Z" fill="black" fill-opacity="0.72"/>
</g>
<defs>
<clipPath id="clip0_1731_3571">
<rect width="16" height="24" fill="white"/>
</clipPath>
</defs>
</svg>
