<svg width="25" height="30" viewBox="0 0 25 30" fill="none" xmlns="http://www.w3.org/2000/svg">
<g id="label-paired / lg / laptop-mobile-lg / bold" clip-path="url(#clip0_1731_4864)">
<path id="icon" d="M5 7.375C4.60938 7.40104 4.40104 7.60938 4.375 8V18H13.75V20.5H1.875C1.35417 20.474 0.911458 20.2917 0.546875 19.9531C0.208333 19.5885 0.0260417 19.1458 0 18.625C0.0260417 18.2344 0.234375 18.026 0.625 18H2.5V8C2.52604 7.29688 2.77344 6.71094 3.24219 6.24219C3.71094 5.77344 4.29688 5.52604 5 5.5H17.5C18.2031 5.52604 18.7891 5.77344 19.2578 6.24219C19.7266 6.71094 19.974 7.29688 20 8V9.25H18.125V8C18.099 7.60938 17.8906 7.40104 17.5 7.375H5ZM15 12.375C15.026 11.8542 15.2083 11.4115 15.5469 11.0469C15.9115 10.7083 16.3542 10.526 16.875 10.5H23.125C23.6458 10.526 24.0885 10.7083 24.4531 11.0469C24.7917 11.4115 24.974 11.8542 25 12.375V23.625C24.974 24.1458 24.7917 24.5885 24.4531 24.9531C24.0885 25.2917 23.6458 25.474 23.125 25.5H16.875C16.3542 25.474 15.9115 25.2917 15.5469 24.9531C15.2083 24.5885 15.026 24.1458 15 23.625V12.375ZM16.875 12.375V23.625H23.125V12.375H16.875Z" fill="black" fill-opacity="0.72"/>
</g>
<defs>
<clipPath id="clip0_1731_4864">
<rect width="25" height="30" fill="white"/>
</clipPath>
</defs>
</svg>
