<svg width="15" height="36" viewBox="0 0 15 36" fill="none" xmlns="http://www.w3.org/2000/svg">
<g id="label-paired / xl / dollar-sign-xl / bold" clip-path="url(#clip0_1731_6725)">
<path id="icon" d="M8.625 7.125V9.42188C9.9375 9.57812 11.0625 9.78125 12 10.0312C12.6562 10.25 12.9219 10.7031 12.7969 11.3906C12.5781 12.0469 12.1406 12.3281 11.4844 12.2344C10.7344 12.0469 9.875 11.875 8.90625 11.7188C7.96875 11.5938 7.04688 11.5625 6.14062 11.625C5.23438 11.6875 4.51562 11.8906 3.98438 12.2344C3.51562 12.5156 3.20312 12.9844 3.04688 13.6406C2.95312 14.1719 2.98438 14.5625 3.14062 14.8125C3.26562 15.0625 3.53125 15.3281 3.9375 15.6094C4.875 16.1094 6.15625 16.5469 7.78125 16.9219H7.875C8.625 17.1094 9.375 17.3281 10.125 17.5781C10.9062 17.7969 11.6094 18.0938 12.2344 18.4688C12.9219 18.875 13.4688 19.4531 13.875 20.2031C14.25 20.9531 14.3438 21.8125 14.1562 22.7812C13.75 24.4375 12.75 25.5312 11.1562 26.0625C10.375 26.375 9.53125 26.5469 8.625 26.5781V28.875C8.5625 29.5625 8.1875 29.9375 7.5 30C6.8125 29.9375 6.4375 29.5625 6.375 28.875V26.5312C6.3125 26.5312 6.23438 26.5312 6.14062 26.5312C6.07812 26.5 6 26.4844 5.90625 26.4844C5.28125 26.3906 4.54688 26.2344 3.70312 26.0156C2.82812 25.7969 2.0625 25.5469 1.40625 25.2656C0.8125 24.9531 0.625 24.4688 0.84375 23.8125C1.1875 23.1875 1.6875 22.9844 2.34375 23.2031C2.875 23.4531 3.51562 23.6719 4.26562 23.8594C5.01562 24.0469 5.67188 24.1875 6.23438 24.2812C7.92188 24.5 9.28125 24.4062 10.3125 24C11.2812 23.5938 11.8281 23.0469 11.9531 22.3594C12.0469 21.8281 12.0156 21.4375 11.8594 21.1875C11.7344 20.9375 11.4688 20.6719 11.0625 20.3906C10.125 19.8906 8.84375 19.4531 7.21875 19.0781H7.125C6.375 18.8906 5.625 18.6719 4.875 18.4219C4.09375 18.2031 3.39062 17.9062 2.76562 17.5312C2.07812 17.125 1.53125 16.5469 1.125 15.7969C0.75 15.0469 0.65625 14.1875 0.84375 13.2188C1.125 11.9062 1.78125 10.9375 2.8125 10.3125C3.78125 9.75 4.82812 9.4375 5.95312 9.375C6.07812 9.375 6.21875 9.375 6.375 9.375V7.125C6.4375 6.4375 6.8125 6.0625 7.5 6C8.1875 6.0625 8.5625 6.4375 8.625 7.125Z" fill="black" fill-opacity="0.72"/>
</g>
<defs>
<clipPath id="clip0_1731_6725">
<rect width="15" height="36" fill="white"/>
</clipPath>
</defs>
</svg>
