<svg width="25" height="30" viewBox="0 0 25 30" fill="none" xmlns="http://www.w3.org/2000/svg">
<g id="label-paired / lg / deal-cancellation-lg / regular" clip-path="url(#clip0_1731_5494)">
<path id="icon" d="M3.51562 10.2656H7.22656C7.89062 10.2656 8.47656 10.3828 9.02344 10.6172C9.57031 10.8125 10.0391 11.1641 10.4297 11.5938C10.8203 12.0234 11.0938 12.5703 11.3281 13.2344C11.5234 13.8984 11.6406 14.6406 11.6406 15.5C11.6406 16.3984 11.5234 17.1406 11.3281 17.8047C11.0938 18.4688 10.8203 19.0156 10.4297 19.4453C10.0391 19.875 9.57031 20.1875 9.02344 20.4219C8.47656 20.6562 7.89062 20.7734 7.22656 20.7734H3.51562V10.2656ZM7.22656 19.25C8.00781 19.25 8.63281 19.0156 9.10156 18.5078C9.57031 18.0391 9.80469 17.2969 9.80469 16.3594V14.6797C9.80469 13.7422 9.57031 13 9.10156 12.5312C8.63281 12.0234 8.00781 11.7891 7.22656 11.7891H5.19531V19.25H7.22656ZM17.6562 20.9297C16.2891 20.9297 15.2344 20.4609 14.4531 19.5625C13.6719 18.625 13.2812 17.2969 13.2812 15.5C13.2812 14.6406 13.3594 13.8594 13.5938 13.1953C13.7891 12.5312 14.0625 11.9453 14.4531 11.5156C14.8438 11.0469 15.2734 10.6953 15.8203 10.4609C16.3672 10.2266 16.9922 10.1094 17.6562 10.1094C18.5938 10.1094 19.3359 10.3047 19.9609 10.6953C20.5859 11.0859 21.0547 11.7109 21.4062 12.4922L19.9609 13.2734C19.8047 12.7656 19.5312 12.375 19.1406 12.0625C18.75 11.7891 18.2812 11.6328 17.6562 11.6328C16.875 11.6328 16.2109 11.9062 15.7812 12.4531C15.3125 13 15.0781 13.7422 15.0781 14.7188V16.3203C15.0781 17.2969 15.3125 18.0391 15.7812 18.5859C16.2109 19.1328 16.875 19.4062 17.6562 19.4062C18.2812 19.4062 18.8281 19.25 19.2188 18.9375C19.6094 18.625 19.8828 18.1953 20.0781 17.6875L21.4453 18.5078C21.0938 19.25 20.625 19.875 20 20.3047C19.3359 20.7344 18.5938 20.9297 17.6562 20.9297Z" fill="black" fill-opacity="0.72"/>
</g>
<defs>
<clipPath id="clip0_1731_5494">
<rect width="25" height="30" fill="white"/>
</clipPath>
</defs>
</svg>
