<svg width="20" height="30" viewBox="0 0 20 30" fill="none" xmlns="http://www.w3.org/2000/svg">
<g id="label-paired / lg / clone-lg / regular" clip-path="url(#clip0_1731_4914)">
<path id="icon" d="M2.5 24.25H11.25C11.6146 24.25 11.9141 24.1328 12.1484 23.8984C12.3828 23.6641 12.5 23.3646 12.5 23V20.5H13.75V23C13.724 23.7031 13.4766 24.2891 13.0078 24.7578C12.5391 25.2266 11.9531 25.474 11.25 25.5H2.5C1.79688 25.474 1.21094 25.2266 0.742188 24.7578C0.273438 24.2891 0.0260417 23.7031 0 23V14.25C0.0260417 13.5469 0.273438 12.9609 0.742188 12.4922C1.21094 12.0234 1.79688 11.776 2.5 11.75H5V13H2.5C2.13542 13 1.83594 13.1172 1.60156 13.3516C1.36719 13.5859 1.25 13.8854 1.25 14.25V23C1.25 23.3646 1.36719 23.6641 1.60156 23.8984C1.83594 24.1328 2.13542 24.25 2.5 24.25ZM8.75 18H17.5C17.8646 18 18.1641 17.8828 18.3984 17.6484C18.6328 17.4141 18.75 17.1146 18.75 16.75V8C18.75 7.63542 18.6328 7.33594 18.3984 7.10156C18.1641 6.86719 17.8646 6.75 17.5 6.75H8.75C8.38542 6.75 8.08594 6.86719 7.85156 7.10156C7.61719 7.33594 7.5 7.63542 7.5 8V16.75C7.5 17.1146 7.61719 17.4141 7.85156 17.6484C8.08594 17.8828 8.38542 18 8.75 18ZM6.25 16.75V8C6.27604 7.29688 6.52344 6.71094 6.99219 6.24219C7.46094 5.77344 8.04688 5.52604 8.75 5.5H17.5C18.2031 5.52604 18.7891 5.77344 19.2578 6.24219C19.7266 6.71094 19.974 7.29688 20 8V16.75C19.974 17.4531 19.7266 18.0391 19.2578 18.5078C18.7891 18.9766 18.2031 19.224 17.5 19.25H8.75C8.04688 19.224 7.46094 18.9766 6.99219 18.5078C6.52344 18.0391 6.27604 17.4531 6.25 16.75Z" fill="black" fill-opacity="0.72"/>
</g>
<defs>
<clipPath id="clip0_1731_4914">
<rect width="20" height="30" fill="white"/>
</clipPath>
</defs>
</svg>
