<svg width="20" height="30" viewBox="0 0 20 30" fill="none" xmlns="http://www.w3.org/2000/svg">
<g id="label-paired / lg / gear-lg / regular" clip-path="url(#clip0_1731_5319)">
<path id="icon" d="M8.71094 6.98438L8.20312 8.82031C8.04688 9.3151 7.7474 9.66667 7.30469 9.875C7.01823 10.0052 6.74479 10.1615 6.48438 10.3438C6.09375 10.6042 5.65104 10.6953 5.15625 10.6172L3.24219 10.1484C3.1901 10.1224 3.13802 10.1224 3.08594 10.1484C2.8776 10.4089 2.68229 10.6953 2.5 11.0078L2.34375 11.2812C2.1875 11.5677 2.04427 11.8672 1.91406 12.1797C1.91406 12.2318 1.9401 12.2839 1.99219 12.3359L3.32031 13.7422C3.65885 14.1068 3.8151 14.5365 3.78906 15.0312C3.76302 15.1875 3.75 15.3438 3.75 15.5C3.75 15.6562 3.76302 15.8255 3.78906 16.0078C3.8151 16.4766 3.65885 16.8932 3.32031 17.2578L1.99219 18.6641C1.9401 18.6901 1.90104 18.7422 1.875 18.8203C2.00521 19.1328 2.16146 19.4323 2.34375 19.7188L2.5 19.9922C2.68229 20.3047 2.8776 20.5911 3.08594 20.8516C3.13802 20.8776 3.1901 20.8776 3.24219 20.8516L5.11719 20.3828C5.63802 20.3047 6.08073 20.3958 6.44531 20.6562C6.73177 20.8385 7.01823 20.9948 7.30469 21.125C7.72135 21.3333 8.02083 21.6849 8.20312 22.1797L8.71094 24.0156C8.73698 24.0677 8.77604 24.1198 8.82812 24.1719C9.21875 24.224 9.60938 24.25 10 24.25C10.3906 24.25 10.7812 24.224 11.1719 24.1719C11.224 24.1198 11.263 24.0677 11.2891 24.0156L11.7969 22.1797C11.9531 21.6849 12.2526 21.3333 12.6953 21.125C12.9818 20.9948 13.2682 20.8385 13.5547 20.6562C13.9453 20.3958 14.375 20.3047 14.8438 20.3828L16.7578 20.8516C16.8099 20.8776 16.862 20.8776 16.9141 20.8516C17.1224 20.5911 17.3177 20.3047 17.5 19.9922L17.6562 19.7188C17.8125 19.4323 17.9557 19.1328 18.0859 18.8203C18.0859 18.7422 18.0599 18.6901 18.0078 18.6641L16.6797 17.2578C16.3411 16.8932 16.1979 16.4766 16.25 16.0078C16.25 15.8255 16.25 15.6562 16.25 15.5C16.25 15.3438 16.25 15.1875 16.25 15.0312C16.1979 14.5365 16.3411 14.1068 16.6797 13.7422L18.0078 12.3359C18.0599 12.3099 18.099 12.2578 18.125 12.1797C17.9948 11.8672 17.8385 11.5677 17.6562 11.2812L17.5 11.0078C17.3177 10.6953 17.1224 10.4089 16.9141 10.1484C16.862 10.1224 16.8099 10.1224 16.7578 10.1484L14.8828 10.6172C14.362 10.6953 13.9193 10.6042 13.5547 10.3438C13.2682 10.1615 12.9818 10.0052 12.6953 9.875C12.2786 9.66667 11.9792 9.32812 11.7969 8.85938L11.2891 6.98438C11.263 6.93229 11.224 6.88021 11.1719 6.82812C10.7812 6.77604 10.3906 6.75 10 6.75C9.60938 6.75 9.21875 6.77604 8.82812 6.82812C8.77604 6.88021 8.73698 6.93229 8.71094 6.98438ZM10 5.5C10.5208 5.5 11.0156 5.53906 11.4844 5.61719C11.5625 5.61719 11.6276 5.64323 11.6797 5.69531C12.0703 5.8776 12.3307 6.1901 12.4609 6.63281L13.0078 8.50781C13.0339 8.58594 13.112 8.66406 13.2422 8.74219C13.5807 8.89844 13.9193 9.09375 14.2578 9.32812C14.362 9.38021 14.4661 9.40625 14.5703 9.40625L16.4453 8.9375C16.888 8.83333 17.2917 8.89844 17.6562 9.13281C17.7083 9.15885 17.7604 9.19792 17.8125 9.25C18.099 9.58854 18.3594 9.95312 18.5938 10.3438L18.75 10.6562C18.9583 11.0469 19.1406 11.4505 19.2969 11.8672C19.3229 11.9193 19.349 11.9844 19.375 12.0625C19.375 12.5052 19.2188 12.8958 18.9062 13.2344L17.5781 14.6016C17.5 14.6797 17.4609 14.7839 17.4609 14.9141C17.487 15.0964 17.5 15.2917 17.5 15.5C17.5 15.7083 17.487 15.9036 17.4609 16.0859C17.4609 16.2161 17.5 16.3203 17.5781 16.3984L18.9062 17.8047C19.2188 18.1172 19.375 18.4948 19.375 18.9375C19.349 19.0156 19.3229 19.0807 19.2969 19.1328C19.1406 19.5495 18.9583 19.9531 18.75 20.3438L18.5938 20.6562H18.5547C18.3464 21.0469 18.099 21.4115 17.8125 21.75C17.7604 21.8021 17.7083 21.8411 17.6562 21.8672C17.2917 22.1016 16.888 22.1797 16.4453 22.1016L14.5703 21.6328C14.4661 21.6068 14.362 21.6198 14.2578 21.6719C13.9193 21.9062 13.5807 22.1016 13.2422 22.2578C13.112 22.3359 13.0339 22.4141 13.0078 22.4922L12.4609 24.3672C12.3307 24.8099 12.0703 25.1354 11.6797 25.3438C11.6276 25.3698 11.5625 25.3828 11.4844 25.3828C11.0156 25.4609 10.5208 25.5 10 25.5C9.47917 25.5 8.98438 25.4609 8.51562 25.3828C8.4375 25.3828 8.3724 25.3698 8.32031 25.3438C7.92969 25.1354 7.66927 24.8099 7.53906 24.3672L6.99219 22.4922C6.96615 22.4141 6.88802 22.3359 6.75781 22.2578C6.41927 22.1016 6.08073 21.9062 5.74219 21.6719C5.63802 21.6198 5.53385 21.6068 5.42969 21.6328L3.55469 22.1016C3.11198 22.1797 2.70833 22.1146 2.34375 21.9062C2.29167 21.8542 2.23958 21.8021 2.1875 21.75C1.90104 21.4115 1.65365 21.0469 1.44531 20.6562H1.40625L1.25 20.3438C1.04167 19.9531 0.859375 19.5495 0.703125 19.1328C0.677083 19.0807 0.664062 19.0156 0.664062 18.9375C0.638021 18.5208 0.78125 18.1432 1.09375 17.8047L2.42188 16.3984C2.5 16.3203 2.53906 16.2161 2.53906 16.0859C2.51302 15.9036 2.5 15.7083 2.5 15.5C2.5 15.3958 2.5 15.3047 2.5 15.2266C2.5 15.1224 2.51302 15.0182 2.53906 14.9141C2.53906 14.7839 2.5 14.6797 2.42188 14.6016L1.09375 13.2344C0.78125 12.8958 0.625 12.5052 0.625 12.0625C0.651042 11.9844 0.677083 11.9193 0.703125 11.8672C0.859375 11.4505 1.04167 11.0469 1.25 10.6562L1.40625 10.3438H1.44531C1.65365 9.95312 1.90104 9.58854 2.1875 9.25C2.23958 9.19792 2.29167 9.15885 2.34375 9.13281C2.70833 8.89844 3.11198 8.83333 3.55469 8.9375L5.42969 9.40625C5.53385 9.40625 5.63802 9.38021 5.74219 9.32812C6.08073 9.09375 6.41927 8.89844 6.75781 8.74219C6.88802 8.66406 6.96615 8.58594 6.99219 8.50781L7.53906 6.63281C7.66927 6.1901 7.92969 5.8776 8.32031 5.69531C8.3724 5.64323 8.4375 5.61719 8.51562 5.61719C8.98438 5.53906 9.47917 5.5 10 5.5ZM7.8125 15.5C7.83854 16.3333 8.20312 16.9583 8.90625 17.375C9.63542 17.7917 10.3646 17.7917 11.0938 17.375C11.7969 16.9583 12.1615 16.3333 12.1875 15.5C12.1615 14.6667 11.7969 14.0417 11.0938 13.625C10.3646 13.2083 9.63542 13.2083 8.90625 13.625C8.20312 14.0417 7.83854 14.6667 7.8125 15.5ZM13.4375 15.5C13.3854 16.8021 12.8125 17.7917 11.7188 18.4688C10.5729 19.0938 9.42708 19.0938 8.28125 18.4688C7.1875 17.7917 6.61458 16.8021 6.5625 15.5C6.61458 14.1979 7.1875 13.2083 8.28125 12.5312C9.42708 11.9062 10.5729 11.9062 11.7188 12.5312C12.8125 13.2083 13.3854 14.1979 13.4375 15.5Z" fill="black" fill-opacity="0.72"/>
</g>
<defs>
<clipPath id="clip0_1731_5319">
<rect width="20" height="30" fill="white"/>
</clipPath>
</defs>
</svg>
