<svg width="21" height="36" viewBox="0 0 21 36" fill="none" xmlns="http://www.w3.org/2000/svg">
<g id="label-paired / xl / ellipsis-xl / bold" clip-path="url(#clip0_1731_5763)">
<path id="icon" d="M20.25 18C20.2188 18.8438 19.8438 19.5 19.125 19.9688C18.375 20.3438 17.625 20.3438 16.875 19.9688C16.1562 19.5 15.7812 18.8438 15.75 18C15.7812 17.1562 16.1562 16.5 16.875 16.0312C17.625 15.6562 18.375 15.6562 19.125 16.0312C19.8438 16.5 20.2188 17.1562 20.25 18ZM12.75 18C12.7188 18.8438 12.3438 19.5 11.625 19.9688C10.875 20.3438 10.125 20.3438 9.375 19.9688C8.65625 19.5 8.28125 18.8438 8.25 18C8.28125 17.1562 8.65625 16.5 9.375 16.0312C10.125 15.6562 10.875 15.6562 11.625 16.0312C12.3438 16.5 12.7188 17.1562 12.75 18ZM3 20.25C2.15625 20.2188 1.5 19.8438 1.03125 19.125C0.65625 18.375 0.65625 17.625 1.03125 16.875C1.5 16.1562 2.15625 15.7812 3 15.75C3.84375 15.7812 4.5 16.1562 4.96875 16.875C5.34375 17.625 5.34375 18.375 4.96875 19.125C4.5 19.8438 3.84375 20.2188 3 20.25Z" fill="black" fill-opacity="0.72"/>
</g>
<defs>
<clipPath id="clip0_1731_5763">
<rect width="21" height="36" fill="white"/>
</clipPath>
</defs>
</svg>
