<svg width="14" height="22" viewBox="0 0 14 22" fill="none" xmlns="http://www.w3.org/2000/svg">
<g id="label-paired / sm / camera-sm / bold" clip-path="url(#clip0_1731_3034)">
<path id="icon" d="M5.44141 4.625H8.55859C8.88672 4.625 9.1875 4.72526 9.46094 4.92578C9.71615 5.10807 9.89844 5.35417 10.0078 5.66406L10.2539 6.375H12.25C12.7422 6.39323 13.1523 6.56641 13.4805 6.89453C13.8086 7.22266 13.9818 7.63281 14 8.125V15.125C13.9818 15.6172 13.8086 16.0273 13.4805 16.3555C13.1523 16.6836 12.7422 16.8568 12.25 16.875H1.75C1.25781 16.8568 0.847656 16.6836 0.519531 16.3555C0.191406 16.0273 0.0182292 15.6172 0 15.125V8.125C0.0182292 7.63281 0.191406 7.22266 0.519531 6.89453C0.847656 6.56641 1.25781 6.39323 1.75 6.375H3.74609L3.99219 5.66406L4.62109 5.88281L3.99219 5.66406C4.10156 5.35417 4.28385 5.10807 4.53906 4.92578C4.8125 4.72526 5.11328 4.625 5.44141 4.625ZM5.25 6.10156L4.86719 7.25C4.73958 7.52344 4.52995 7.66927 4.23828 7.6875H1.75C1.47656 7.70573 1.33073 7.85156 1.3125 8.125V15.125C1.33073 15.3984 1.47656 15.5443 1.75 15.5625H12.25C12.5234 15.5443 12.6693 15.3984 12.6875 15.125V8.125C12.6693 7.85156 12.5234 7.70573 12.25 7.6875H9.76172C9.47005 7.66927 9.26953 7.52344 9.16016 7.25L8.77734 6.10156C8.72266 5.99219 8.64974 5.9375 8.55859 5.9375H5.44141C5.35026 5.9375 5.28646 5.99219 5.25 6.10156ZM7 14.6875C6.45312 14.6875 5.94271 14.5508 5.46875 14.2773C4.99479 14.0039 4.62109 13.6302 4.34766 13.1562C4.07422 12.6823 3.9375 12.1719 3.9375 11.625C3.9375 11.0781 4.07422 10.5677 4.34766 10.0938C4.62109 9.61979 4.99479 9.24609 5.46875 8.97266C5.94271 8.69922 6.45312 8.5625 7 8.5625C7.54688 8.5625 8.05729 8.69922 8.53125 8.97266C9.00521 9.24609 9.37891 9.61979 9.65234 10.0938C9.92578 10.5677 10.0625 11.0781 10.0625 11.625C10.0625 12.1719 9.92578 12.6823 9.65234 13.1562C9.37891 13.6302 9.00521 14.0039 8.53125 14.2773C8.05729 14.5508 7.54688 14.6875 7 14.6875ZM5.25 11.625C5.26823 12.2812 5.5599 12.7826 6.125 13.1289C6.70833 13.457 7.29167 13.457 7.875 13.1289C8.4401 12.7826 8.73177 12.2812 8.75 11.625C8.73177 10.9688 8.4401 10.4674 7.875 10.1211C7.29167 9.79297 6.70833 9.79297 6.125 10.1211C5.5599 10.4674 5.26823 10.9688 5.25 11.625Z" fill="black" fill-opacity="0.72"/>
</g>
<defs>
<clipPath id="clip0_1731_3034">
<rect width="14" height="22" fill="white"/>
</clipPath>
</defs>
</svg>
