<svg width="30" height="36" viewBox="0 0 30 36" fill="none" xmlns="http://www.w3.org/2000/svg">
<g id="label-paired / xl / stop-loss-xl / regular" clip-path="url(#clip0_1731_5801)">
<path id="icon" d="M10.2188 24.5156C9.14062 24.5156 8.25 24.3281 7.5 23.9531C6.75 23.5781 6.14062 23.0625 5.625 22.4062L7.03125 21.0938C7.45312 21.6094 7.96875 22.0312 8.48438 22.3125C9 22.5938 9.60938 22.7344 10.3125 22.7344C11.1094 22.7344 11.7188 22.5469 12.1406 22.1719C12.5625 21.7969 12.75 21.3281 12.75 20.7188C12.75 20.25 12.6094 19.8281 12.3281 19.5469C12.0469 19.2656 11.5312 19.0312 10.7812 18.8906L9.65625 18.7031C8.4375 18.4688 7.54688 18.0938 6.9375 17.4844C6.28125 16.9219 6 16.125 6 15.1406C6 14.5781 6.09375 14.0625 6.28125 13.6406C6.51562 13.1719 6.79688 12.7969 7.17188 12.5156C7.54688 12.1875 8.01562 11.9531 8.57812 11.7656C9.09375 11.625 9.70312 11.5312 10.4062 11.5312C11.3438 11.5312 12.1406 11.6719 12.8438 12.0469C13.5469 12.3281 14.1562 12.8438 14.625 13.4531L13.2188 14.7188C12.8906 14.2969 12.5156 13.9688 12.0469 13.6875C11.5781 13.4531 10.9688 13.3125 10.2656 13.3125C9.5625 13.3125 9 13.4531 8.625 13.7344C8.20312 14.0156 8.01562 14.4375 8.01562 15C8.01562 15.5625 8.20312 15.9375 8.48438 16.2188C8.8125 16.4531 9.32812 16.6406 10.0312 16.7812L11.1562 17.0156C12.375 17.25 13.3125 17.6719 13.875 18.2344C14.4844 18.7969 14.7656 19.5938 14.7656 20.625C14.7656 21.1875 14.6719 21.75 14.4844 22.2188C14.25 22.6875 13.9688 23.1094 13.5469 23.4375C13.1719 23.8125 12.7031 24.0469 12.1406 24.2344C11.5781 24.4219 10.9219 24.5156 10.2188 24.5156ZM17.2031 24.2812V11.7188H19.2188V22.5H24.3281V24.2812H17.2031Z" fill="black" fill-opacity="0.72"/>
</g>
<defs>
<clipPath id="clip0_1731_5801">
<rect width="30" height="36" fill="white"/>
</clipPath>
</defs>
</svg>
