<svg width="27" height="36" viewBox="0 0 27 36" fill="none" xmlns="http://www.w3.org/2000/svg">
<g id="label-paired / xl / arrow-up-arrow-down-xl / bold" clip-path="url(#clip0_1731_6160)">
<path id="icon" d="M24.7969 23.6719L20.2969 28.1719C19.7656 28.6094 19.2344 28.6094 18.7031 28.1719L14.2031 23.6719C13.7656 23.1406 13.7656 22.6094 14.2031 22.0781C14.7344 21.6406 15.2656 21.6406 15.7969 22.0781L18.375 24.6562V8.625C18.4375 7.9375 18.8125 7.5625 19.5 7.5C20.1875 7.5625 20.5625 7.9375 20.625 8.625V24.6562L23.2031 22.0781C23.7344 21.6406 24.2656 21.6406 24.7969 22.0781C25.2344 22.6094 25.2344 23.1406 24.7969 23.6719ZM8.29688 7.82812L12.7969 12.3281C13.2344 12.8594 13.2344 13.3906 12.7969 13.9219C12.2656 14.3594 11.7344 14.3594 11.2031 13.9219L8.625 11.3438V27.375C8.5625 28.0625 8.1875 28.4375 7.5 28.5C6.8125 28.4375 6.4375 28.0625 6.375 27.375V11.3438L3.79688 13.9219C3.26562 14.3594 2.73438 14.3594 2.20312 13.9219C1.76562 13.3906 1.76562 12.8594 2.20312 12.3281L6.70312 7.82812C7.23438 7.39063 7.76562 7.39063 8.29688 7.82812Z" fill="black" fill-opacity="0.72"/>
</g>
<defs>
<clipPath id="clip0_1731_6160">
<rect width="27" height="36" fill="white"/>
</clipPath>
</defs>
</svg>
