<svg width="11" height="22" viewBox="0 0 11 22" fill="none" xmlns="http://www.w3.org/2000/svg">
<g id="label-paired / sm / mobile-screen-button-sm / regular" clip-path="url(#clip0_1731_2627)">
<path id="icon" d="M8.125 4.625H2.875C2.61979 4.625 2.41016 4.70703 2.24609 4.87109C2.08203 5.03516 2 5.24479 2 5.5V12.5H9V5.5C9 5.24479 8.91797 5.03516 8.75391 4.87109C8.58984 4.70703 8.38021 4.625 8.125 4.625ZM9 13.375H2V16C2 16.2552 2.08203 16.4648 2.24609 16.6289C2.41016 16.793 2.61979 16.875 2.875 16.875H8.125C8.38021 16.875 8.58984 16.793 8.75391 16.6289C8.91797 16.4648 9 16.2552 9 16V13.375ZM2.875 3.75H8.125C8.61719 3.76823 9.02734 3.94141 9.35547 4.26953C9.68359 4.59766 9.85677 5.00781 9.875 5.5V16C9.85677 16.4922 9.68359 16.9023 9.35547 17.2305C9.02734 17.5586 8.61719 17.7318 8.125 17.75H2.875C2.38281 17.7318 1.97266 17.5586 1.64453 17.2305C1.31641 16.9023 1.14323 16.4922 1.125 16V5.5C1.14323 5.00781 1.31641 4.59766 1.64453 4.26953C1.97266 3.94141 2.38281 3.76823 2.875 3.75ZM4.1875 15.125C4.20573 14.8516 4.35156 14.7057 4.625 14.6875H6.375C6.64844 14.7057 6.79427 14.8516 6.8125 15.125C6.79427 15.3984 6.64844 15.5443 6.375 15.5625H4.625C4.35156 15.5443 4.20573 15.3984 4.1875 15.125Z" fill="black" fill-opacity="0.72"/>
</g>
<defs>
<clipPath id="clip0_1731_2627">
<rect width="11" height="22" fill="white"/>
</clipPath>
</defs>
</svg>
