<svg width="16" height="24" viewBox="0 0 16 24" fill="none" xmlns="http://www.w3.org/2000/svg">
<g id="label-paired / md / circle-dollar-md / bold" clip-path="url(#clip0_1731_4215)">
<path id="icon" d="M14.5 12C14.5 10.8125 14.2083 9.72917 13.625 8.75C13.0625 7.77083 12.2708 6.97917 11.25 6.375C10.2292 5.79167 9.14583 5.5 8 5.5C6.85417 5.5 5.77083 5.79167 4.75 6.375C3.72917 6.97917 2.9375 7.77083 2.375 8.75C1.79167 9.72917 1.5 10.8125 1.5 12C1.5 13.1875 1.79167 14.2708 2.375 15.25C2.9375 16.2292 3.72917 17.0208 4.75 17.625C5.77083 18.2083 6.85417 18.5 8 18.5C9.14583 18.5 10.2292 18.2083 11.25 17.625C12.2708 17.0208 13.0625 16.2292 13.625 15.25C14.2083 14.2708 14.5 13.1875 14.5 12ZM0 12C0.0208333 10.5417 0.375 9.20833 1.0625 8C1.77083 6.79167 2.75 5.8125 4 5.0625C5.27083 4.35417 6.60417 4 8 4C9.39583 4 10.7292 4.35417 12 5.0625C13.25 5.8125 14.2292 6.79167 14.9375 8C15.625 9.20833 15.9792 10.5417 16 12C15.9792 13.4583 15.625 14.7917 14.9375 16C14.2292 17.2083 13.25 18.1875 12 18.9375C10.7292 19.6458 9.39583 20 8 20C6.60417 20 5.27083 19.6458 4 18.9375C2.75 18.1875 1.77083 17.2083 1.0625 16C0.375 14.7917 0.0208333 13.4583 0 12ZM8.65625 8.1875V8.625C8.94792 8.66667 9.25 8.72917 9.5625 8.8125C9.625 8.83333 9.67708 8.85417 9.71875 8.875C10.1146 9.02083 10.2812 9.30208 10.2188 9.71875C10.0521 10.0938 9.77083 10.25 9.375 10.1875C9.35417 10.1667 9.33333 10.1562 9.3125 10.1562C9.27083 10.1562 9.23958 10.1458 9.21875 10.125C9.01042 10.0625 8.79167 10.0104 8.5625 9.96875C8.125 9.88542 7.69792 9.92708 7.28125 10.0938C7.09375 10.1771 6.96875 10.2917 6.90625 10.4375C6.82292 10.5833 6.875 10.7292 7.0625 10.875C7.375 11.0417 7.70833 11.1667 8.0625 11.25C8.08333 11.25 8.09375 11.25 8.09375 11.25C8.13542 11.2708 8.17708 11.2812 8.21875 11.2812C8.23958 11.3021 8.27083 11.3125 8.3125 11.3125C8.85417 11.4375 9.375 11.6458 9.875 11.9375C10.5 12.3958 10.75 13 10.625 13.75C10.4583 14.4583 10.0625 14.9271 9.4375 15.1562C9.1875 15.2604 8.92708 15.3229 8.65625 15.3438V15.8438C8.61458 16.2396 8.38542 16.4583 7.96875 16.5C7.57292 16.4583 7.35417 16.2396 7.3125 15.8438V15.2812C6.85417 15.1771 6.40625 15.0521 5.96875 14.9062C5.59375 14.7396 5.44792 14.4479 5.53125 14.0312C5.69792 13.6562 5.97917 13.5208 6.375 13.625C6.41667 13.625 6.45833 13.6354 6.5 13.6562C6.54167 13.6562 6.58333 13.6667 6.625 13.6875C6.97917 13.8125 7.33333 13.9167 7.6875 14C8.22917 14.0625 8.64583 14.0312 8.9375 13.9062C9.125 13.8229 9.25 13.6979 9.3125 13.5312C9.35417 13.3438 9.29167 13.1875 9.125 13.0625C8.79167 12.8542 8.42708 12.7188 8.03125 12.6562C7.96875 12.6354 7.90625 12.6146 7.84375 12.5938C7.82292 12.5729 7.8125 12.5625 7.8125 12.5625C7.29167 12.4583 6.79167 12.2708 6.3125 12C5.6875 11.5833 5.42708 11 5.53125 10.25C5.71875 9.5625 6.125 9.09375 6.75 8.84375C6.91667 8.78125 7.10417 8.72917 7.3125 8.6875V8.1875C7.35417 7.77083 7.57292 7.54167 7.96875 7.5C8.38542 7.54167 8.61458 7.77083 8.65625 8.1875Z" fill="black" fill-opacity="0.72"/>
</g>
<defs>
<clipPath id="clip0_1731_4215">
<rect width="16" height="24" fill="white"/>
</clipPath>
</defs>
</svg>
