<svg width="30" height="36" viewBox="0 0 30 36" fill="none" xmlns="http://www.w3.org/2000/svg">
<g id="label-paired / xl / wallet-circle-minus-xl / regular" clip-path="url(#clip0_1731_6703)">
<path id="icon" d="M0 11.25C0 9.1875 1.64062 7.5 3.75 7.5C9.75 7.5 15.75 7.5 21.75 7.5C22.125 7.5 22.5 7.875 22.5 8.25C22.5 8.67188 22.125 9 21.75 9C15.75 9 9.75 9 3.75 9C2.48438 9 1.5 10.0312 1.5 11.25C1.5 15.75 1.5 20.25 1.5 24.75C1.5 26.0156 2.48438 27 3.75 27C7.78125 27 11.8125 27 15.8906 27C16.1719 27.5625 16.5 28.0781 16.875 28.5C12.4688 28.5 8.10938 28.5 3.75 28.5C1.64062 28.5 0 26.8594 0 24.75C0 20.25 0 15.75 0 11.25ZM4.5 11.25C4.5 10.875 4.82812 10.5 5.25 10.5C10.2188 10.5 15.2344 10.5 20.25 10.5C22.3125 10.5 24 12.1875 24 14.25C24 14.5312 24 14.8125 24 15.0469C23.7188 15.0469 23.4844 15 23.25 15C22.9688 15 22.7344 15.0469 22.5 15.0469C22.5 14.8125 22.5 14.5312 22.5 14.25C22.5 13.0312 21.4688 12 20.25 12C15.2344 12 10.2188 12 5.25 12C4.82812 12 4.5 11.6719 4.5 11.25ZM16.5 23.25C16.5 19.5469 19.5 16.5 23.25 16.5C26.9531 16.5 30 19.5469 30 23.25C30 27 26.9531 30 23.25 30C19.5 30 16.5 27 16.5 23.25ZM18 23.25C18 26.1562 20.3438 28.5 23.25 28.5C26.1094 28.5 28.5 26.1562 28.5 23.25C28.5 20.3906 26.1094 18 23.25 18C20.3438 18 18 20.3906 18 23.25ZM19.5 23.25C19.5 22.875 19.8281 22.5 20.25 22.5C22.2188 22.5 24.2344 22.5 26.25 22.5C26.625 22.5 27 22.875 27 23.25C27 23.6719 26.625 24 26.25 24C24.2344 24 22.2188 24 20.25 24C19.8281 24 19.5 23.6719 19.5 23.25Z" fill="black" fill-opacity="0.72"/>
</g>
<defs>
<clipPath id="clip0_1731_6703">
<rect width="30" height="36" fill="white"/>
</clipPath>
</defs>
</svg>
