<svg width="12" height="18" viewBox="0 0 12 18" fill="none" xmlns="http://www.w3.org/2000/svg">
<g id="label-paired / caption / chevrons-right-caption / regular" clip-path="url(#clip0_1731_894)">
<path id="icon" d="M1.75781 14.2578C1.58594 14.4141 1.41406 14.4141 1.24219 14.2578C1.08594 14.0859 1.08594 13.9141 1.24219 13.7422L5.46094 9.5L1.24219 5.25781C1.08594 5.08594 1.08594 4.91406 1.24219 4.74219C1.41406 4.58594 1.58594 4.58594 1.75781 4.74219L6.25781 9.24219C6.41406 9.41406 6.41406 9.58594 6.25781 9.75781L1.75781 14.2578ZM6.25781 14.2578C6.08594 14.4141 5.91406 14.4141 5.74219 14.2578C5.58594 14.0859 5.58594 13.9141 5.74219 13.7422L9.96094 9.5L5.74219 5.25781C5.58594 5.08594 5.58594 4.91406 5.74219 4.74219C5.91406 4.58594 6.08594 4.58594 6.25781 4.74219L10.7578 9.24219C10.9141 9.41406 10.9141 9.58594 10.7578 9.75781L6.25781 14.2578Z" fill="black" fill-opacity="0.72"/>
</g>
<defs>
<clipPath id="clip0_1731_894">
<rect width="12" height="18" fill="white"/>
</clipPath>
</defs>
</svg>
