<svg width="11" height="18" viewBox="0 0 11 18" fill="none" xmlns="http://www.w3.org/2000/svg">
<g id="label-paired / caption / arrow-down-to-bracket-caption / bold" clip-path="url(#clip0_1731_636)">
<path id="icon" d="M8.89844 8.58594L5.89844 11.5859C5.63281 11.8047 5.36719 11.8047 5.10156 11.5859L2.10156 8.58594C1.88281 8.32031 1.88281 8.05469 2.10156 7.78906C2.36719 7.57031 2.63281 7.57031 2.89844 7.78906L4.9375 9.82812V4.0625C4.96875 3.71875 5.15625 3.53125 5.5 3.5C5.84375 3.53125 6.03125 3.71875 6.0625 4.0625V9.82812L8.10156 7.78906C8.36719 7.57031 8.63281 7.57031 8.89844 7.78906C9.11719 8.05469 9.11719 8.32031 8.89844 8.58594ZM1.375 11.5625V13.4375C1.375 13.7031 1.46875 13.9219 1.65625 14.0938C1.82812 14.2812 2.04688 14.375 2.3125 14.375H8.6875C8.95312 14.375 9.17188 14.2812 9.34375 14.0938C9.53125 13.9219 9.625 13.7031 9.625 13.4375V11.5625C9.65625 11.2188 9.84375 11.0312 10.1875 11C10.5312 11.0312 10.7188 11.2188 10.75 11.5625V13.4375C10.7344 14.0156 10.5312 14.5 10.1406 14.8906C9.75 15.2812 9.26562 15.4844 8.6875 15.5H2.3125C1.73438 15.4844 1.25 15.2812 0.859375 14.8906C0.46875 14.5 0.265625 14.0156 0.25 13.4375V11.5625C0.28125 11.2188 0.46875 11.0312 0.8125 11C1.15625 11.0312 1.34375 11.2188 1.375 11.5625Z" fill="black" fill-opacity="0.72"/>
</g>
<defs>
<clipPath id="clip0_1731_636">
<rect width="11" height="18" fill="white"/>
</clipPath>
</defs>
</svg>
