<svg width="12" height="18" viewBox="0 0 12 18" fill="none" xmlns="http://www.w3.org/2000/svg">
<g id="label-paired / caption / camera-caption / bold" clip-path="url(#clip0_1731_1776)">
<path id="icon" d="M4.66406 4.25H7.33594C7.61719 4.25 7.875 4.33594 8.10938 4.50781C8.32812 4.66406 8.48438 4.875 8.57812 5.14062L8.78906 5.75H10.5C10.9219 5.76562 11.2734 5.91406 11.5547 6.19531C11.8359 6.47656 11.9844 6.82812 12 7.25V13.25C11.9844 13.6719 11.8359 14.0234 11.5547 14.3047C11.2734 14.5859 10.9219 14.7344 10.5 14.75H1.5C1.07812 14.7344 0.726562 14.5859 0.445312 14.3047C0.164062 14.0234 0.015625 13.6719 0 13.25V7.25C0.015625 6.82812 0.164062 6.47656 0.445312 6.19531C0.726562 5.91406 1.07812 5.76562 1.5 5.75H3.21094L3.42188 5.14062L3.96094 5.32812L3.42188 5.14062C3.51562 4.875 3.67188 4.66406 3.89062 4.50781C4.125 4.33594 4.38281 4.25 4.66406 4.25ZM4.5 5.51562L4.17188 6.5C4.0625 6.73438 3.88281 6.85938 3.63281 6.875H1.5C1.26562 6.89062 1.14062 7.01562 1.125 7.25V13.25C1.14062 13.4844 1.26562 13.6094 1.5 13.625H10.5C10.7344 13.6094 10.8594 13.4844 10.875 13.25V7.25C10.8594 7.01562 10.7344 6.89062 10.5 6.875H8.36719C8.11719 6.85938 7.94531 6.73438 7.85156 6.5L7.52344 5.51562C7.47656 5.42188 7.41406 5.375 7.33594 5.375H4.66406C4.58594 5.375 4.53125 5.42188 4.5 5.51562ZM6 12.875C5.53125 12.875 5.09375 12.7578 4.6875 12.5234C4.28125 12.2891 3.96094 11.9688 3.72656 11.5625C3.49219 11.1562 3.375 10.7188 3.375 10.25C3.375 9.78125 3.49219 9.34375 3.72656 8.9375C3.96094 8.53125 4.28125 8.21094 4.6875 7.97656C5.09375 7.74219 5.53125 7.625 6 7.625C6.46875 7.625 6.90625 7.74219 7.3125 7.97656C7.71875 8.21094 8.03906 8.53125 8.27344 8.9375C8.50781 9.34375 8.625 9.78125 8.625 10.25C8.625 10.7188 8.50781 11.1562 8.27344 11.5625C8.03906 11.9688 7.71875 12.2891 7.3125 12.5234C6.90625 12.7578 6.46875 12.875 6 12.875ZM4.5 10.25C4.51562 10.8125 4.76562 11.2422 5.25 11.5391C5.75 11.8203 6.25 11.8203 6.75 11.5391C7.23438 11.2422 7.48438 10.8125 7.5 10.25C7.48438 9.6875 7.23438 9.25781 6.75 8.96094C6.25 8.67969 5.75 8.67969 5.25 8.96094C4.76562 9.25781 4.51562 9.6875 4.5 10.25Z" fill="black" fill-opacity="0.72"/>
</g>
<defs>
<clipPath id="clip0_1731_1776">
<rect width="12" height="18" fill="white"/>
</clipPath>
</defs>
</svg>
