<svg width="9" height="22" viewBox="0 0 9 22" fill="none" xmlns="http://www.w3.org/2000/svg">
<g id="label-paired / sm / zero-sm / bold" clip-path="url(#clip0_1731_2300)">
<path id="icon" d="M0.125 9C0.161458 7.76042 0.589844 6.73047 1.41016 5.91016C2.23047 5.08984 3.26042 4.66146 4.5 4.625C5.73958 4.66146 6.76953 5.08984 7.58984 5.91016C8.41016 6.73047 8.83854 7.76042 8.875 9V12.5C8.83854 13.7396 8.41016 14.7695 7.58984 15.5898C6.76953 16.4102 5.73958 16.8385 4.5 16.875C3.26042 16.8385 2.23047 16.4102 1.41016 15.5898C0.589844 14.7695 0.161458 13.7396 0.125 12.5V9ZM4.5 5.9375C3.625 5.95573 2.90495 6.25651 2.33984 6.83984C1.75651 7.40495 1.45573 8.125 1.4375 9V12.5C1.45573 13.375 1.75651 14.0951 2.33984 14.6602C2.90495 15.2435 3.625 15.5443 4.5 15.5625C5.375 15.5443 6.09505 15.2435 6.66016 14.6602C7.24349 14.0951 7.54427 13.375 7.5625 12.5V9C7.54427 8.125 7.24349 7.40495 6.66016 6.83984C6.09505 6.25651 5.375 5.95573 4.5 5.9375Z" fill="black" fill-opacity="0.72"/>
</g>
<defs>
<clipPath id="clip0_1731_2300">
<rect width="9" height="22" fill="white"/>
</clipPath>
</defs>
</svg>
