<svg width="24" height="36" viewBox="0 0 24 36" fill="none" xmlns="http://www.w3.org/2000/svg">
<g id="label-paired / xl / circle-dot-xl / regular" clip-path="url(#clip0_1731_5832)">
<path id="icon" d="M22.5 18C22.4688 16.0938 22 14.3438 21.0938 12.75C20.1562 11.1562 18.875 9.875 17.25 8.90625C15.5938 7.96875 13.8438 7.5 12 7.5C10.1562 7.5 8.40625 7.96875 6.75 8.90625C5.125 9.875 3.84375 11.1562 2.90625 12.75C2 14.3438 1.53125 16.0938 1.5 18C1.53125 19.9062 2 21.6562 2.90625 23.25C3.84375 24.8438 5.125 26.125 6.75 27.0938C8.40625 28.0312 10.1562 28.5 12 28.5C13.8438 28.5 15.5938 28.0312 17.25 27.0938C18.875 26.125 20.1562 24.8438 21.0938 23.25C22 21.6562 22.4688 19.9062 22.5 18ZM0 18C0.03125 15.8125 0.5625 13.8125 1.59375 12C2.65625 10.1875 4.125 8.71875 6 7.59375C7.90625 6.53125 9.90625 6 12 6C14.0938 6 16.0938 6.53125 18 7.59375C19.875 8.71875 21.3438 10.1875 22.4062 12C23.4375 13.8125 23.9688 15.8125 24 18C23.9688 20.1875 23.4375 22.1875 22.4062 24C21.3438 25.8125 19.875 27.2812 18 28.4062C16.0938 29.4688 14.0938 30 12 30C9.90625 30 7.90625 29.4688 6 28.4062C4.125 27.2812 2.65625 25.8125 1.59375 24C0.5625 22.1875 0.03125 20.1875 0 18ZM15 18C14.9688 16.875 14.4688 16.0156 13.5 15.4219C12.5 14.8594 11.5 14.8594 10.5 15.4219C9.53125 16.0156 9.03125 16.875 9 18C9.03125 19.125 9.53125 19.9844 10.5 20.5781C11.5 21.1406 12.5 21.1406 13.5 20.5781C14.4688 19.9844 14.9688 19.125 15 18ZM7.5 18C7.5 17.1875 7.70312 16.4375 8.10938 15.75C8.51562 15.0625 9.0625 14.5156 9.75 14.1094C10.4688 13.7031 11.2188 13.5 12 13.5C12.7812 13.5 13.5312 13.7031 14.25 14.1094C14.9375 14.5156 15.4844 15.0625 15.8906 15.75C16.2969 16.4375 16.5 17.1875 16.5 18C16.5 18.8125 16.2969 19.5625 15.8906 20.25C15.4844 20.9375 14.9375 21.4844 14.25 21.8906C13.5312 22.2969 12.7812 22.5 12 22.5C11.2188 22.5 10.4688 22.2969 9.75 21.8906C9.0625 21.4844 8.51562 20.9375 8.10938 20.25C7.70312 19.5625 7.5 18.8125 7.5 18Z" fill="black" fill-opacity="0.72"/>
</g>
<defs>
<clipPath id="clip0_1731_5832">
<rect width="24" height="36" fill="white"/>
</clipPath>
</defs>
</svg>
