<svg width="16" height="24" viewBox="0 0 16 24" fill="none" xmlns="http://www.w3.org/2000/svg">
<g id="label-paired / md / at-md / bold" clip-path="url(#clip0_1731_3876)">
<path id="icon" d="M8 5.5C6.16667 5.54167 4.63542 6.17708 3.40625 7.40625C2.17708 8.63542 1.54167 10.1667 1.5 12C1.54167 13.8333 2.17708 15.3646 3.40625 16.5938C4.63542 17.8229 6.16667 18.4583 8 18.5C8.45833 18.5417 8.70833 18.7917 8.75 19.25C8.70833 19.7083 8.45833 19.9583 8 20C6.5 19.9792 5.15625 19.6146 3.96875 18.9062C2.76042 18.1979 1.80208 17.2396 1.09375 16.0312C0.385417 14.8438 0.0208333 13.5 0 12C0.0208333 10.5 0.385417 9.15625 1.09375 7.96875C1.80208 6.76042 2.76042 5.80208 3.96875 5.09375C5.15625 4.38542 6.5 4.02083 8 4C9.5 4.02083 10.8438 4.38542 12.0312 5.09375C13.2396 5.80208 14.1979 6.76042 14.9062 7.96875C15.6146 9.15625 15.9792 10.5 16 12V12.875C15.9792 13.6875 15.6979 14.3646 15.1562 14.9062C14.6146 15.4479 13.9375 15.7292 13.125 15.75C12.1042 15.7083 11.3229 15.3021 10.7812 14.5312C10.0521 15.3021 9.125 15.7083 8 15.75C6.9375 15.7292 6.05208 15.3646 5.34375 14.6562C4.63542 13.9479 4.27083 13.0625 4.25 12C4.27083 10.9375 4.63542 10.0521 5.34375 9.34375C6.05208 8.63542 6.9375 8.27083 8 8.25C8.91667 8.27083 9.70833 8.55208 10.375 9.09375C10.5208 8.88542 10.7292 8.77083 11 8.75C11.4583 8.79167 11.7083 9.04167 11.75 9.5V12V12.875C11.75 13.2708 11.8854 13.5938 12.1562 13.8438C12.4062 14.1146 12.7292 14.25 13.125 14.25C13.5208 14.25 13.8438 14.1146 14.0938 13.8438C14.3646 13.5938 14.5 13.2708 14.5 12.875V12C14.4583 10.1667 13.8229 8.63542 12.5938 7.40625C11.3646 6.17708 9.83333 5.54167 8 5.5ZM10.25 12C10.2292 11.1458 9.85417 10.5 9.125 10.0625C8.375 9.64583 7.625 9.64583 6.875 10.0625C6.14583 10.5 5.77083 11.1458 5.75 12C5.77083 12.8542 6.14583 13.5 6.875 13.9375C7.625 14.3542 8.375 14.3542 9.125 13.9375C9.85417 13.5 10.2292 12.8542 10.25 12Z" fill="black" fill-opacity="0.72"/>
</g>
<defs>
<clipPath id="clip0_1731_3876">
<rect width="16" height="24" fill="white"/>
</clipPath>
</defs>
</svg>
