<svg width="15" height="18" viewBox="0 0 15 18" fill="none" xmlns="http://www.w3.org/2000/svg">
<g id="label-paired / caption / wifi-caption / bold" clip-path="url(#clip0_1731_1350)">
<path id="icon" d="M0.9375 7.85938C0.65625 8.0625 0.390625 8.04688 0.140625 7.8125C-0.0625 7.53125 -0.046875 7.26562 0.1875 7.01562C1.17188 6.14062 2.28125 5.46094 3.51562 4.97656C4.76562 4.49219 6.09375 4.25 7.5 4.25C8.90625 4.25 10.2344 4.49219 11.4844 4.97656C12.7188 5.46094 13.8281 6.14062 14.8125 7.01562C15.0469 7.26562 15.0625 7.53125 14.8594 7.8125C14.6094 8.04688 14.3438 8.0625 14.0625 7.85938C13.1875 7.07812 12.1875 6.46875 11.0625 6.03125C9.95312 5.59375 8.76562 5.375 7.5 5.375C6.23438 5.375 5.04688 5.59375 3.9375 6.03125C2.8125 6.46875 1.8125 7.07812 0.9375 7.85938ZM7.5 9.5C5.95312 9.53125 4.64062 10.0391 3.5625 11.0234C3.29688 11.2422 3.03125 11.2344 2.76562 11C2.5625 10.7188 2.57812 10.4531 2.8125 10.2031C3.4375 9.625 4.14844 9.17969 4.94531 8.86719C5.74219 8.53906 6.59375 8.375 7.5 8.375C8.40625 8.375 9.25781 8.53906 10.0547 8.86719C10.8516 9.17969 11.5625 9.625 12.1875 10.2031C12.4219 10.4531 12.4375 10.7188 12.2344 11C11.9688 11.2344 11.7031 11.2422 11.4375 11.0234C10.3594 10.0391 9.04688 9.53125 7.5 9.5ZM8.8125 13.4375C8.79688 13.9375 8.57812 14.3125 8.15625 14.5625C7.71875 14.8125 7.28125 14.8125 6.84375 14.5625C6.42188 14.3125 6.20312 13.9375 6.1875 13.4375C6.20312 12.9375 6.42188 12.5625 6.84375 12.3125C7.28125 12.0625 7.71875 12.0625 8.15625 12.3125C8.57812 12.5625 8.79688 12.9375 8.8125 13.4375Z" fill="black" fill-opacity="0.72"/>
</g>
<defs>
<clipPath id="clip0_1731_1350">
<rect width="15" height="18" fill="white"/>
</clipPath>
</defs>
</svg>
