<svg width="10" height="24" viewBox="0 0 10 24" fill="none" xmlns="http://www.w3.org/2000/svg">
<g id="label-paired / md / forward-step-md / fill" clip-path="url(#clip0_1731_4070)">
<path id="icon" d="M1.65625 17.7812C1.32292 18.0312 0.958333 18.0729 0.5625 17.9062C0.208333 17.7188 0.0208333 17.4167 0 17V7C0.0208333 6.58333 0.208333 6.28125 0.5625 6.09375C0.958333 5.92708 1.32292 5.96875 1.65625 6.21875L7.65625 11.2188L8 11.5312V7C8 6.70833 8.09375 6.46875 8.28125 6.28125C8.46875 6.09375 8.70833 6 9 6C9.29167 6 9.53125 6.09375 9.71875 6.28125C9.90625 6.46875 10 6.70833 10 7V17C10 17.2917 9.90625 17.5312 9.71875 17.7188C9.53125 17.9062 9.29167 18 9 18C8.70833 18 8.46875 17.9062 8.28125 17.7188C8.09375 17.5312 8 17.2917 8 17V12.4688L7.65625 12.7812L1.65625 17.7812Z" fill="black" fill-opacity="0.72"/>
</g>
<defs>
<clipPath id="clip0_1731_4070">
<rect width="10" height="24" fill="white"/>
</clipPath>
</defs>
</svg>
