<svg width="14" height="22" viewBox="0 0 14 22" fill="none" xmlns="http://www.w3.org/2000/svg">
<g id="label-paired / sm / location-crosshairs-sm / regular" clip-path="url(#clip0_1731_2673)">
<path id="icon" d="M7 3.75C7.27344 3.76823 7.41927 3.91406 7.4375 4.1875V5.52734C8.73177 5.65495 9.82552 6.15625 10.7188 7.03125C11.5938 7.92448 12.0951 9.01823 12.2227 10.3125H13.5625C13.8359 10.3307 13.9818 10.4766 14 10.75C13.9818 11.0234 13.8359 11.1693 13.5625 11.1875H12.2227C12.0951 12.4818 11.5938 13.5755 10.7188 14.4688C9.82552 15.3438 8.73177 15.8451 7.4375 15.9727V17.3125C7.41927 17.5859 7.27344 17.7318 7 17.75C6.72656 17.7318 6.58073 17.5859 6.5625 17.3125V15.9727C5.26823 15.8451 4.17448 15.3438 3.28125 14.4688C2.40625 13.5755 1.90495 12.4818 1.77734 11.1875H0.4375C0.164062 11.1693 0.0182292 11.0234 0 10.75C0.0182292 10.4766 0.164062 10.3307 0.4375 10.3125H1.77734C1.90495 9.01823 2.40625 7.92448 3.28125 7.03125C4.17448 6.15625 5.26823 5.65495 6.5625 5.52734V4.1875C6.58073 3.91406 6.72656 3.76823 7 3.75ZM2.625 10.75C2.625 11.5339 2.81641 12.263 3.19922 12.9375C3.60026 13.612 4.13802 14.1497 4.8125 14.5508C5.50521 14.9336 6.23438 15.125 7 15.125C7.76562 15.125 8.49479 14.9336 9.1875 14.5508C9.86198 14.1497 10.3997 13.612 10.8008 12.9375C11.1836 12.263 11.375 11.5339 11.375 10.75C11.375 9.96615 11.1836 9.23698 10.8008 8.5625C10.3997 7.88802 9.86198 7.35026 9.1875 6.94922C8.49479 6.56641 7.76562 6.375 7 6.375C6.23438 6.375 5.50521 6.56641 4.8125 6.94922C4.13802 7.35026 3.60026 7.88802 3.19922 8.5625C2.81641 9.23698 2.625 9.96615 2.625 10.75ZM8.75 10.75C8.73177 10.0938 8.4401 9.59245 7.875 9.24609C7.29167 8.91797 6.70833 8.91797 6.125 9.24609C5.5599 9.59245 5.26823 10.0938 5.25 10.75C5.26823 11.4062 5.5599 11.9076 6.125 12.2539C6.70833 12.582 7.29167 12.582 7.875 12.2539C8.4401 11.9076 8.73177 11.4062 8.75 10.75ZM4.375 10.75C4.375 10.276 4.49349 9.83854 4.73047 9.4375C4.96745 9.03646 5.28646 8.71745 5.6875 8.48047C6.10677 8.24349 6.54427 8.125 7 8.125C7.45573 8.125 7.89323 8.24349 8.3125 8.48047C8.71354 8.71745 9.03255 9.03646 9.26953 9.4375C9.50651 9.83854 9.625 10.276 9.625 10.75C9.625 11.224 9.50651 11.6615 9.26953 12.0625C9.03255 12.4635 8.71354 12.7826 8.3125 13.0195C7.89323 13.2565 7.45573 13.375 7 13.375C6.54427 13.375 6.10677 13.2565 5.6875 13.0195C5.28646 12.7826 4.96745 12.4635 4.73047 12.0625C4.49349 11.6615 4.375 11.224 4.375 10.75Z" fill="black" fill-opacity="0.72"/>
</g>
<defs>
<clipPath id="clip0_1731_2673">
<rect width="14" height="22" fill="white"/>
</clipPath>
</defs>
</svg>
