<svg width="14" height="22" viewBox="0 0 14 22" fill="none" xmlns="http://www.w3.org/2000/svg">
<g id="label-paired / sm / arrow-up-from-square-sm / bold" clip-path="url(#clip0_1731_1919)">
<path id="icon" d="M7.46484 3.94141L10.5273 7.00391C10.7826 7.3138 10.7826 7.6237 10.5273 7.93359C10.2174 8.1888 9.90755 8.1888 9.59766 7.93359L7.65625 5.99219V12.7188C7.61979 13.1198 7.40104 13.3385 7 13.375C6.59896 13.3385 6.38021 13.1198 6.34375 12.7188V5.99219L4.40234 7.93359C4.09245 8.1888 3.78255 8.1888 3.47266 7.93359C3.21745 7.6237 3.21745 7.3138 3.47266 7.00391L6.53516 3.94141C6.84505 3.6862 7.15495 3.6862 7.46484 3.94141ZM1.96875 4.625H2.1875C2.58854 4.66146 2.80729 4.88021 2.84375 5.28125C2.80729 5.68229 2.58854 5.90104 2.1875 5.9375H1.96875C1.56771 5.97396 1.34896 6.19271 1.3125 6.59375V15.7812C1.34896 16.1823 1.56771 16.401 1.96875 16.4375H12.0312C12.4323 16.401 12.651 16.1823 12.6875 15.7812V6.59375C12.651 6.19271 12.4323 5.97396 12.0312 5.9375H11.8125C11.4115 5.90104 11.1927 5.68229 11.1562 5.28125C11.1927 4.88021 11.4115 4.66146 11.8125 4.625H12.0312C12.5964 4.64323 13.0612 4.83464 13.4258 5.19922C13.7904 5.5638 13.9818 6.02865 14 6.59375V15.7812C13.9818 16.3464 13.7904 16.8112 13.4258 17.1758C13.0612 17.5404 12.5964 17.7318 12.0312 17.75H1.96875C1.40365 17.7318 0.938802 17.5404 0.574219 17.1758C0.209635 16.8112 0.0182292 16.3464 0 15.7812V6.59375C0.0182292 6.02865 0.209635 5.5638 0.574219 5.19922C0.938802 4.83464 1.40365 4.64323 1.96875 4.625Z" fill="black" fill-opacity="0.72"/>
</g>
<defs>
<clipPath id="clip0_1731_1919">
<rect width="14" height="22" fill="white"/>
</clipPath>
</defs>
</svg>
