<svg width="18" height="24" viewBox="0 0 18 24" fill="none" xmlns="http://www.w3.org/2000/svg">
<g id="label-paired / md / arrow-down-one-nine-md / regular" clip-path="url(#clip0_1731_3657)">
<path id="icon" d="M14 5.5V10H15C15.3125 10.0208 15.4792 10.1875 15.5 10.5C15.4792 10.8125 15.3125 10.9792 15 11H13.5H12C11.6875 10.9792 11.5208 10.8125 11.5 10.5C11.5208 10.1875 11.6875 10.0208 12 10H13V6.1875L12.1562 6.46875C11.8646 6.55208 11.6562 6.44792 11.5312 6.15625C11.4688 5.86458 11.5729 5.65625 11.8438 5.53125L13.3438 5.03125C13.5104 4.98958 13.6562 5.01042 13.7812 5.09375C13.9271 5.19792 14 5.33333 14 5.5ZM5.34375 18.8438C5.11458 19.0521 4.88542 19.0521 4.65625 18.8438L1.65625 15.8438C1.44792 15.6146 1.44792 15.3854 1.65625 15.1562C1.88542 14.9479 2.11458 14.9479 2.34375 15.1562L4.5 17.2812V5.5C4.52083 5.1875 4.6875 5.02083 5 5C5.3125 5.02083 5.47917 5.1875 5.5 5.5V17.2812L7.65625 15.1562C7.88542 14.9479 8.11458 14.9479 8.34375 15.1562C8.55208 15.3854 8.55208 15.6146 8.34375 15.8438L5.34375 18.8438ZM13.375 13C12.7708 13.0208 12.3021 13.2917 11.9688 13.8125C11.6771 14.3542 11.6771 14.8958 11.9688 15.4375C12.3021 15.9583 12.7708 16.2292 13.375 16.25C13.9792 16.2292 14.4479 15.9583 14.7812 15.4375C15.0729 14.8958 15.0729 14.3542 14.7812 13.8125C14.4479 13.2917 13.9792 13.0208 13.375 13ZM10.75 14.625C10.7708 13.875 11.0312 13.2604 11.5312 12.7812C12.0104 12.2812 12.625 12.0208 13.375 12C14.125 12.0208 14.7396 12.2812 15.2188 12.7812C15.7188 13.2604 15.9792 13.875 16 14.625C16 14.6667 16 14.7083 16 14.75C16 15.4375 15.7812 16.0417 15.3438 16.5625L13.375 18.8125C13.1458 19.0417 12.9167 19.0625 12.6875 18.875C12.4583 18.6458 12.4375 18.4167 12.625 18.1875L13.4062 17.25C13.3854 17.25 13.375 17.25 13.375 17.25C12.625 17.2292 12.0104 16.9688 11.5312 16.4688C11.0312 15.9896 10.7708 15.375 10.75 14.625Z" fill="black" fill-opacity="0.72"/>
</g>
<defs>
<clipPath id="clip0_1731_3657">
<rect width="18" height="24" fill="white"/>
</clipPath>
</defs>
</svg>
