<svg width="16" height="24" viewBox="0 0 16 24" fill="none" xmlns="http://www.w3.org/2000/svg">
<g id="label-paired / md / calendar-range-md / bold" clip-path="url(#clip0_1731_3117)">
<path id="icon" d="M5.75 4.75V6H10.25V4.75C10.2917 4.29167 10.5417 4.04167 11 4C11.4583 4.04167 11.7083 4.29167 11.75 4.75V6H13C13.5625 6.02083 14.0312 6.21875 14.4062 6.59375C14.7812 6.96875 14.9792 7.4375 15 8V8.5V10V18C14.9792 18.5625 14.7812 19.0312 14.4062 19.4062C14.0312 19.7812 13.5625 19.9792 13 20H3C2.4375 19.9792 1.96875 19.7812 1.59375 19.4062C1.21875 19.0312 1.02083 18.5625 1 18V10V8.5V8C1.02083 7.4375 1.21875 6.96875 1.59375 6.59375C1.96875 6.21875 2.4375 6.02083 3 6H4.25V4.75C4.29167 4.29167 4.54167 4.04167 5 4C5.45833 4.04167 5.70833 4.29167 5.75 4.75ZM2.5 10V18C2.52083 18.3125 2.6875 18.4792 3 18.5H13C13.3125 18.4792 13.4792 18.3125 13.5 18V10H2.5ZM4 13C4 12.7083 4.09375 12.4688 4.28125 12.2812C4.46875 12.0938 4.70833 12 5 12C5.29167 12 5.53125 12.0938 5.71875 12.2812C5.90625 12.4688 6 12.7083 6 13C6 13.2917 5.90625 13.5312 5.71875 13.7188C5.53125 13.9062 5.29167 14 5 14C4.70833 14 4.46875 13.9062 4.28125 13.7188C4.09375 13.5312 4 13.2917 4 13ZM11 15C11.2917 15 11.5312 15.0938 11.7188 15.2812C11.9062 15.4688 12 15.7083 12 16C12 16.2917 11.9062 16.5312 11.7188 16.7188C11.5312 16.9062 11.2917 17 11 17C10.7083 17 10.4688 16.9062 10.2812 16.7188C10.0938 16.5312 10 16.2917 10 16C10 15.7083 10.0938 15.4688 10.2812 15.2812C10.4688 15.0938 10.7083 15 11 15ZM7 13C7.04167 12.5417 7.29167 12.2917 7.75 12.25H11.25C11.7083 12.2917 11.9583 12.5417 12 13C11.9583 13.4583 11.7083 13.7083 11.25 13.75H7.75C7.29167 13.7083 7.04167 13.4583 7 13ZM8.25 15.25C8.70833 15.2917 8.95833 15.5417 9 16C8.95833 16.4583 8.70833 16.7083 8.25 16.75H4.75C4.29167 16.7083 4.04167 16.4583 4 16C4.04167 15.5417 4.29167 15.2917 4.75 15.25H8.25Z" fill="black" fill-opacity="0.72"/>
</g>
<defs>
<clipPath id="clip0_1731_3117">
<rect width="16" height="24" fill="white"/>
</clipPath>
</defs>
</svg>
