<svg width="20" height="30" viewBox="0 0 20 30" fill="none" xmlns="http://www.w3.org/2000/svg">
<g id="label-paired / lg / circle-euro-lg / bold" clip-path="url(#clip0_1731_5182)">
<path id="icon" d="M18.125 15.5C18.125 14.0156 17.7604 12.6615 17.0312 11.4375C16.3281 10.2135 15.3385 9.22396 14.0625 8.46875C12.7865 7.73958 11.4323 7.375 10 7.375C8.56771 7.375 7.21354 7.73958 5.9375 8.46875C4.66146 9.22396 3.67188 10.2135 2.96875 11.4375C2.23958 12.6615 1.875 14.0156 1.875 15.5C1.875 16.9844 2.23958 18.3385 2.96875 19.5625C3.67188 20.7865 4.66146 21.776 5.9375 22.5312C7.21354 23.2604 8.56771 23.625 10 23.625C11.4323 23.625 12.7865 23.2604 14.0625 22.5312C15.3385 21.776 16.3281 20.7865 17.0312 19.5625C17.7604 18.3385 18.125 16.9844 18.125 15.5ZM0 15.5C0.0260417 13.6771 0.46875 12.0104 1.32812 10.5C2.21354 8.98958 3.4375 7.76562 5 6.82812C6.58854 5.94271 8.25521 5.5 10 5.5C11.7448 5.5 13.4115 5.94271 15 6.82812C16.5625 7.76562 17.7865 8.98958 18.6719 10.5C19.5312 12.0104 19.974 13.6771 20 15.5C19.974 17.3229 19.5312 18.9896 18.6719 20.5C17.7865 22.0104 16.5625 23.2344 15 24.1719C13.4115 25.0573 11.7448 25.5 10 25.5C8.25521 25.5 6.58854 25.0573 5 24.1719C3.4375 23.2344 2.21354 22.0104 1.32812 20.5C0.46875 18.9896 0.0260417 17.3229 0 15.5ZM5 16.125H5.625C5.59896 15.9167 5.58594 15.7214 5.58594 15.5391C5.58594 15.3047 5.59896 15.0833 5.625 14.875H5C4.60938 14.849 4.40104 14.6406 4.375 14.25C4.40104 13.8594 4.60938 13.651 5 13.625H5.97656C6.36719 12.6875 6.96615 11.9323 7.77344 11.3594C8.60677 10.8125 9.55729 10.526 10.625 10.5H12.2266C12.7995 10.5521 13.112 10.8646 13.1641 11.4375C13.112 12.0104 12.7995 12.3229 12.2266 12.375H10.625C9.55729 12.401 8.72396 12.8177 8.125 13.625H11.25C11.6406 13.651 11.849 13.8594 11.875 14.25C11.849 14.6406 11.6406 14.849 11.25 14.875H7.53906C7.48698 15.0833 7.46094 15.3047 7.46094 15.5391C7.46094 15.7474 7.48698 15.9427 7.53906 16.125H11.25C11.6406 16.151 11.849 16.3594 11.875 16.75C11.849 17.1406 11.6406 17.349 11.25 17.375H8.04688C8.67188 18.2083 9.53125 18.651 10.625 18.7031H12.2266C12.7995 18.7552 13.112 19.0677 13.1641 19.6406C13.112 20.1875 12.7995 20.5 12.2266 20.5781H10.625C9.53125 20.5521 8.58073 20.2526 7.77344 19.6797C6.9401 19.0807 6.32812 18.3125 5.9375 17.375H5C4.60938 17.349 4.40104 17.1406 4.375 16.75C4.40104 16.3594 4.60938 16.151 5 16.125Z" fill="black" fill-opacity="0.72"/>
</g>
<defs>
<clipPath id="clip0_1731_5182">
<rect width="20" height="30" fill="white"/>
</clipPath>
</defs>
</svg>
