<svg width="10" height="24" viewBox="0 0 10 24" fill="none" xmlns="http://www.w3.org/2000/svg">
<g id="label-paired / md / three-md / bold" clip-path="url(#clip0_1731_3523)">
<path id="icon" d="M0 5.75C0.0416667 5.29167 0.291667 5.04167 0.75 5H8.75C9.08333 5.02083 9.3125 5.17708 9.4375 5.46875C9.5625 5.78125 9.51042 6.05208 9.28125 6.28125L4.625 10.75H5.875C7.04167 10.7708 8.01042 11.1771 8.78125 11.9688C9.57292 12.7396 9.97917 13.7083 10 14.875C9.97917 16.0417 9.57292 17.0104 8.78125 17.7812C8.01042 18.5729 7.04167 18.9792 5.875 19H3.03125C2.40625 19 1.84375 18.8333 1.34375 18.5C0.822917 18.1875 0.416667 17.7604 0.125 17.2188L0.09375 17.0938C-0.0729167 16.6562 0.03125 16.3229 0.40625 16.0938C0.84375 15.9271 1.17708 16.0312 1.40625 16.4062L1.46875 16.5312C1.82292 17.1562 2.34375 17.4792 3.03125 17.5H5.875C6.625 17.4792 7.23958 17.2188 7.71875 16.7188C8.21875 16.2396 8.47917 15.625 8.5 14.875C8.47917 14.125 8.21875 13.5104 7.71875 13.0312C7.23958 12.5312 6.625 12.2708 5.875 12.25H2.75C2.41667 12.2292 2.1875 12.0729 2.0625 11.7812C1.9375 11.4688 1.98958 11.1979 2.21875 10.9688L6.875 6.5H0.75C0.291667 6.45833 0.0416667 6.20833 0 5.75Z" fill="black" fill-opacity="0.72"/>
</g>
<defs>
<clipPath id="clip0_1731_3523">
<rect width="10" height="24" fill="white"/>
</clipPath>
</defs>
</svg>
