<svg width="15" height="18" viewBox="0 0 15 18" fill="none" xmlns="http://www.w3.org/2000/svg">
<g id="label-paired / caption / fiat-onramp-caption / regular" clip-path="url(#clip0_1731_1677)">
<path id="icon" d="M10.5 4.25C9.67969 4.27344 8.92969 4.69531 8.53125 5.39844C8.13281 6.07812 8.13281 6.94531 8.53125 7.64844C8.95312 8.32812 9.67969 8.77344 10.5 8.77344C11.2969 8.77344 12.0469 8.32812 12.4453 7.64844C12.8438 6.94531 12.8438 6.07812 12.4453 5.375C12.0469 4.69531 11.2969 4.25 10.5 4.25ZM12.75 8.49219C12.1875 9.125 11.3906 9.5 10.5 9.5C9.42188 9.5 8.46094 8.9375 7.94531 8.09375L6.07031 9.96875C6.91406 10.4844 7.5 11.4219 7.5 12.5C7.5 13.4141 7.10156 14.2109 6.46875 14.75H11.625C12.2344 14.75 12.75 14.2578 12.75 13.625V8.49219ZM4.5 14.75C5.74219 14.75 6.75 13.7422 6.75 12.5C6.75 11.5625 6.16406 10.7422 5.32031 10.4141H5.29688C5.0625 10.3203 4.78125 10.25 4.5 10.25C3.25781 10.25 2.25 11.2578 2.25 12.5C2.25 13.7422 3.25781 14.75 4.5 14.75ZM5.34375 9.64062L7.61719 7.36719C7.52344 7.08594 7.5 6.80469 7.5 6.5C7.5 4.85938 8.83594 3.5 10.5 3.5C12.1406 3.5 13.5 4.85938 13.5 6.5V13.625C13.5 14.6797 12.6562 15.5 11.625 15.5H4.5C2.83594 15.5 1.5 14.1641 1.5 12.5C1.5 10.8594 2.83594 9.5 4.5 9.5C4.78125 9.5 5.0625 9.54688 5.34375 9.64062ZM3.75 6.125C3.75 5.9375 3.91406 5.75 4.125 5.75H6.375C6.51562 5.75 6.65625 5.84375 6.70312 5.98438C6.77344 6.125 6.72656 6.28906 6.63281 6.40625L4.38281 8.65625C4.24219 8.79688 3.98438 8.79688 3.84375 8.65625C3.70312 8.51562 3.70312 8.25781 3.84375 8.11719L5.46094 6.5H4.125C3.91406 6.5 3.75 6.33594 3.75 6.125ZM4.80469 10.625V10.9062C5.20312 11.0234 5.46094 11.3984 5.46094 11.8203V11.9141H4.85156V11.8203C4.85156 11.6328 4.6875 11.4688 4.47656 11.4688C4.28906 11.4688 4.125 11.6328 4.125 11.8203C4.125 12.0312 4.28906 12.1953 4.47656 12.1953C5.01562 12.1953 5.46094 12.6406 5.46094 13.1797C5.46094 13.6016 5.20312 13.9766 4.80469 14.0938V14.375H4.17188V14.0938C3.77344 13.9766 3.51562 13.6016 3.51562 13.1797V13.0859H4.125V13.1797C4.125 13.3672 4.28906 13.5312 4.47656 13.5312C4.6875 13.5312 4.85156 13.3672 4.85156 13.1797C4.85156 12.9688 4.6875 12.8047 4.47656 12.8047C3.9375 12.8047 3.51562 12.3594 3.51562 11.8203C3.51562 11.3984 3.77344 11.0234 4.17188 10.9062V10.625H4.80469ZM10.125 4.74219V5.25781H10.6172V4.74219H11.1094V5.25781C11.2969 5.25781 11.4844 5.32812 11.6016 5.44531C11.9062 5.72656 11.9297 6.19531 11.6484 6.5C11.7891 6.64062 11.8594 6.82812 11.8594 7.01562C11.8594 7.4375 11.5078 7.76562 11.1094 7.76562V8.25781H10.6172V7.76562H10.125V8.25781H9.60938V7.76562H9.11719V7.25H9.60938V5.75H9.11719V5.25781H9.60938V4.74219H10.125ZM11.1094 6.75781H10.125V7.25H11.1094C11.25 7.25 11.3672 7.13281 11.3672 6.99219C11.3672 6.875 11.25 6.75781 11.1094 6.75781ZM11.1094 5.75H10.125V6.26562H11.1094C11.25 6.26562 11.3672 6.14844 11.3672 6.00781C11.3672 5.86719 11.25 5.75 11.1094 5.75Z" fill="black" fill-opacity="0.72"/>
</g>
<defs>
<clipPath id="clip0_1731_1677">
<rect width="15" height="18" fill="white"/>
</clipPath>
</defs>
</svg>
