<svg width="12" height="18" viewBox="0 0 12 18" fill="none" xmlns="http://www.w3.org/2000/svg">
<g id="label-paired / caption / gauge-min-caption / regular" clip-path="url(#clip0_1731_749)">
<path id="icon" d="M6 4.25C5.04688 4.26562 4.17188 4.5 3.375 4.95312C2.57812 5.42188 1.9375 6.0625 1.45312 6.875C0.984375 7.70312 0.75 8.57812 0.75 9.5C0.75 10.4219 0.984375 11.2969 1.45312 12.125C1.9375 12.9375 2.57812 13.5781 3.375 14.0469C4.17188 14.5 5.04688 14.7344 6 14.75C6.95312 14.7344 7.82812 14.5 8.625 14.0469C9.42188 13.5781 10.0625 12.9375 10.5469 12.125C11.0156 11.2969 11.25 10.4219 11.25 9.5C11.25 8.57812 11.0156 7.70312 10.5469 6.875C10.0625 6.0625 9.42188 5.42188 8.625 4.95312C7.82812 4.5 6.95312 4.26562 6 4.25ZM6 15.5C4.90625 15.4844 3.90625 15.2188 3 14.7031C2.09375 14.1719 1.35938 13.4375 0.796875 12.5C0.265625 11.5469 0 10.5469 0 9.5C0 8.45312 0.265625 7.45312 0.796875 6.5C1.35938 5.5625 2.09375 4.82812 3 4.29688C3.90625 3.78125 4.90625 3.51563 6 3.5C7.09375 3.51563 8.09375 3.78125 9 4.29688C9.90625 4.82812 10.6406 5.5625 11.2031 6.5C11.7344 7.45312 12 8.45312 12 9.5C12 10.5469 11.7344 11.5469 11.2031 12.5C10.6406 13.4375 9.90625 14.1719 9 14.7031C8.09375 15.2188 7.09375 15.4844 6 15.5ZM6.5625 5.75C6.53125 6.09375 6.34375 6.28125 6 6.3125C5.65625 6.28125 5.46875 6.09375 5.4375 5.75C5.46875 5.40625 5.65625 5.21875 6 5.1875C6.34375 5.21875 6.53125 5.40625 6.5625 5.75ZM5.25 11.75C5.25 11.9688 5.32031 12.1484 5.46094 12.2891C5.60156 12.4297 5.78125 12.5 6 12.5C6.21875 12.5 6.39844 12.4297 6.53906 12.2891C6.67969 12.1484 6.75 11.9688 6.75 11.75C6.75 11.5312 6.67969 11.3516 6.53906 11.2109C6.39844 11.0703 6.21875 11 6 11C5.78125 11 5.60156 11.0703 5.46094 11.2109C5.32031 11.3516 5.25 11.5312 5.25 11.75ZM7.5 11.75C7.48438 12.1719 7.33594 12.5234 7.05469 12.8047C6.77344 13.0859 6.42188 13.2344 6 13.25C5.57812 13.2344 5.22656 13.0859 4.94531 12.8047C4.66406 12.5234 4.51562 12.1719 4.5 11.75C4.5 11.6094 4.52344 11.4688 4.57031 11.3281L2.0625 9.82812C1.875 9.6875 1.82812 9.51562 1.92188 9.3125C2.0625 9.125 2.23438 9.07812 2.4375 9.17188L4.94531 10.6719C5.22656 10.4062 5.57812 10.2656 6 10.25C6.42188 10.2656 6.77344 10.4141 7.05469 10.6953C7.33594 10.9766 7.48438 11.3281 7.5 11.75ZM3.9375 6.875C3.90625 7.21875 3.71875 7.40625 3.375 7.4375C3.03125 7.40625 2.84375 7.21875 2.8125 6.875C2.84375 6.53125 3.03125 6.34375 3.375 6.3125C3.71875 6.34375 3.90625 6.53125 3.9375 6.875ZM9.75 10.0625C9.40625 10.0312 9.21875 9.84375 9.1875 9.5C9.21875 9.15625 9.40625 8.96875 9.75 8.9375C10.0938 8.96875 10.2812 9.15625 10.3125 9.5C10.2812 9.84375 10.0938 10.0312 9.75 10.0625ZM9.1875 6.875C9.15625 7.21875 8.96875 7.40625 8.625 7.4375C8.28125 7.40625 8.09375 7.21875 8.0625 6.875C8.09375 6.53125 8.28125 6.34375 8.625 6.3125C8.96875 6.34375 9.15625 6.53125 9.1875 6.875Z" fill="black" fill-opacity="0.72"/>
</g>
<defs>
<clipPath id="clip0_1731_749">
<rect width="12" height="18" fill="white"/>
</clipPath>
</defs>
</svg>
