<svg width="14" height="24" viewBox="0 0 14 24" fill="none" xmlns="http://www.w3.org/2000/svg">
<g id="label-paired / md / placeholder-md / bold" clip-path="url(#clip0_1731_3046)">
<path id="icon" d="M2.75 5H3.25C3.70833 5.04167 3.95833 5.29167 4 5.75C3.95833 6.20833 3.70833 6.45833 3.25 6.5H2.75C2.39583 6.5 2.10417 6.625 1.875 6.875C1.625 7.10417 1.5 7.39583 1.5 7.75V8.25C1.45833 8.70833 1.20833 8.95833 0.75 9C0.291667 8.95833 0.0416667 8.70833 0 8.25V7.75C0.0208333 6.97917 0.291667 6.33333 0.8125 5.8125C1.33333 5.29167 1.97917 5.02083 2.75 5ZM0.75 10C1.20833 10.0417 1.45833 10.2917 1.5 10.75V13.25C1.45833 13.7083 1.20833 13.9583 0.75 14C0.291667 13.9583 0.0416667 13.7083 0 13.25V10.75C0.0416667 10.2917 0.291667 10.0417 0.75 10ZM13.25 10C13.7083 10.0417 13.9583 10.2917 14 10.75V13.25C13.9583 13.7083 13.7083 13.9583 13.25 14C12.7917 13.9583 12.5417 13.7083 12.5 13.25V10.75C12.5417 10.2917 12.7917 10.0417 13.25 10ZM13.25 9C12.7917 8.95833 12.5417 8.70833 12.5 8.25V7.75C12.5 7.39583 12.375 7.10417 12.125 6.875C11.8958 6.625 11.6042 6.5 11.25 6.5H10.75C10.2917 6.45833 10.0417 6.20833 10 5.75C10.0417 5.29167 10.2917 5.04167 10.75 5H11.25C12.0208 5.02083 12.6667 5.29167 13.1875 5.8125C13.7083 6.33333 13.9792 6.97917 14 7.75V8.25C13.9583 8.70833 13.7083 8.95833 13.25 9ZM14 15.75V16.25C13.9792 17.0208 13.7083 17.6667 13.1875 18.1875C12.6667 18.7083 12.0208 18.9792 11.25 19H10.75C10.2917 18.9583 10.0417 18.7083 10 18.25C10.0417 17.7917 10.2917 17.5417 10.75 17.5H11.25C11.6042 17.5 11.8958 17.375 12.125 17.125C12.375 16.8958 12.5 16.6042 12.5 16.25V15.75C12.5417 15.2917 12.7917 15.0417 13.25 15C13.7083 15.0417 13.9583 15.2917 14 15.75ZM1.5 15.75V16.25C1.5 16.6042 1.625 16.8958 1.875 17.125C2.10417 17.375 2.39583 17.5 2.75 17.5H3.25C3.70833 17.5417 3.95833 17.7917 4 18.25C3.95833 18.7083 3.70833 18.9583 3.25 19H2.75C1.97917 18.9792 1.33333 18.7083 0.8125 18.1875C0.291667 17.6667 0.0208333 17.0208 0 16.25V15.75C0.0416667 15.2917 0.291667 15.0417 0.75 15C1.20833 15.0417 1.45833 15.2917 1.5 15.75ZM5.75 19C5.29167 18.9583 5.04167 18.7083 5 18.25C5.04167 17.7917 5.29167 17.5417 5.75 17.5H8.25C8.70833 17.5417 8.95833 17.7917 9 18.25C8.95833 18.7083 8.70833 18.9583 8.25 19H5.75ZM5 5.75C5.04167 5.29167 5.29167 5.04167 5.75 5H8.25C8.70833 5.04167 8.95833 5.29167 9 5.75C8.95833 6.20833 8.70833 6.45833 8.25 6.5H5.75C5.29167 6.45833 5.04167 6.20833 5 5.75Z" fill="black" fill-opacity="0.72"/>
</g>
<defs>
<clipPath id="clip0_1731_3046">
<rect width="14" height="24" fill="white"/>
</clipPath>
</defs>
</svg>
