<svg width="24" height="36" viewBox="0 0 24 36" fill="none" xmlns="http://www.w3.org/2000/svg">
<g id="label-paired / xl / arrow-up-from-square-xl / regular" clip-path="url(#clip0_1731_5691)">
<path id="icon" d="M12.5156 6.23438L17.3906 11.1094C17.7031 11.4531 17.7031 11.7969 17.3906 12.1406C17.0469 12.4531 16.7031 12.4531 16.3594 12.1406L12.75 8.57812V21C12.7188 21.4688 12.4688 21.7188 12 21.75C11.5312 21.7188 11.2812 21.4688 11.25 21V8.57812L7.64062 12.1406C7.29688 12.4531 6.95312 12.4531 6.60938 12.1406C6.29688 11.7969 6.29688 11.4531 6.60938 11.1094L11.4844 6.23438C11.8281 5.92187 12.1719 5.92187 12.5156 6.23438ZM3 7.5H4.5C4.96875 7.53125 5.21875 7.78125 5.25 8.25C5.21875 8.71875 4.96875 8.96875 4.5 9H3C2.5625 9 2.20312 9.14062 1.92188 9.42188C1.64062 9.70312 1.5 10.0625 1.5 10.5V27C1.5 27.4375 1.64062 27.7969 1.92188 28.0781C2.20312 28.3594 2.5625 28.5 3 28.5H21C21.4375 28.5 21.7969 28.3594 22.0781 28.0781C22.3594 27.7969 22.5 27.4375 22.5 27V10.5C22.5 10.0625 22.3594 9.70312 22.0781 9.42188C21.7969 9.14062 21.4375 9 21 9H19.5C19.0312 8.96875 18.7812 8.71875 18.75 8.25C18.7812 7.78125 19.0312 7.53125 19.5 7.5H21C21.8438 7.53125 22.5469 7.82812 23.1094 8.39062C23.6719 8.95312 23.9688 9.65625 24 10.5V27C23.9688 27.8438 23.6719 28.5469 23.1094 29.1094C22.5469 29.6719 21.8438 29.9688 21 30H3C2.15625 29.9688 1.45312 29.6719 0.890625 29.1094C0.328125 28.5469 0.03125 27.8438 0 27V10.5C0.03125 9.65625 0.328125 8.95312 0.890625 8.39062C1.45312 7.82812 2.15625 7.53125 3 7.5Z" fill="black" fill-opacity="0.72"/>
</g>
<defs>
<clipPath id="clip0_1731_5691">
<rect width="24" height="36" fill="white"/>
</clipPath>
</defs>
</svg>
