<svg width="9" height="18" viewBox="0 0 9 18" fill="none" xmlns="http://www.w3.org/2000/svg">
<g id="label-paired / caption / bookmark-caption / regular" clip-path="url(#clip0_1731_609)">
<path id="icon" d="M0 4.625C0.015625 4.3125 0.125 4.04688 0.328125 3.82812C0.546875 3.625 0.8125 3.51563 1.125 3.5H7.875C8.1875 3.51563 8.45312 3.625 8.67188 3.82812C8.875 4.04688 8.98438 4.3125 9 4.625V14.9844C8.96875 15.2969 8.79688 15.4688 8.48438 15.5C8.375 15.5 8.28125 15.4688 8.20312 15.4062L4.5 12.9453L0.796875 15.4062C0.71875 15.4688 0.625 15.5 0.515625 15.5C0.203125 15.4688 0.03125 15.2969 0 14.9844V4.625ZM1.125 4.25C0.890625 4.26562 0.765625 4.39062 0.75 4.625V14.5391L4.28906 12.1953C4.42969 12.1016 4.57031 12.1016 4.71094 12.1953L8.25 14.5391V4.625C8.23438 4.39062 8.10938 4.26562 7.875 4.25H1.125Z" fill="black" fill-opacity="0.72"/>
</g>
<defs>
<clipPath id="clip0_1731_609">
<rect width="9" height="18" fill="white"/>
</clipPath>
</defs>
</svg>
