<svg width="20" height="30" viewBox="0 0 20 30" fill="none" xmlns="http://www.w3.org/2000/svg">
<g id="label-paired / lg / scissors-lg / regular" clip-path="url(#clip0_1731_4919)">
<path id="icon" d="M19.8438 22.7656C19.5833 23.0521 19.2969 23.0781 18.9844 22.8438L13.0469 17.8047C12.7604 17.5182 12.7344 17.2188 12.9688 16.9062C13.2292 16.6458 13.5156 16.6328 13.8281 16.8672L19.7656 21.9062C20.0521 22.1667 20.0781 22.4531 19.8438 22.7656ZM11.2109 14.6797L18.9844 8.15625C19.2969 7.92188 19.5833 7.94792 19.8438 8.23438C20.0781 8.54688 20.0521 8.83333 19.7656 9.09375L8.16406 18.8984C8.55469 19.5495 8.75 20.2917 8.75 21.125C8.72396 22.375 8.29427 23.4036 7.46094 24.2109C6.65365 25.0443 5.625 25.474 4.375 25.5C3.125 25.474 2.09635 25.0443 1.28906 24.2109C0.455729 23.4036 0.0260417 22.375 0 21.125C0.0260417 19.875 0.455729 18.8464 1.28906 18.0391C2.09635 17.2057 3.125 16.776 4.375 16.75C5.54688 16.776 6.53646 17.1667 7.34375 17.9219L10.2344 15.5L7.34375 13.0781C6.53646 13.8333 5.54688 14.224 4.375 14.25C3.125 14.224 2.09635 13.7943 1.28906 12.9609C0.455729 12.1536 0.0260417 11.125 0 9.875C0.0260417 8.625 0.455729 7.59635 1.28906 6.78906C2.09635 5.95573 3.125 5.52604 4.375 5.5C5.625 5.52604 6.65365 5.95573 7.46094 6.78906C8.29427 7.59635 8.72396 8.625 8.75 9.875C8.75 10.7083 8.55469 11.4505 8.16406 12.1016L11.2109 14.6797ZM4.375 13C5.54688 12.974 6.44531 12.4531 7.07031 11.4375C7.64323 10.3958 7.64323 9.35417 7.07031 8.3125C6.44531 7.29688 5.54688 6.77604 4.375 6.75C3.20312 6.77604 2.30469 7.29688 1.67969 8.3125C1.10677 9.35417 1.10677 10.3958 1.67969 11.4375C2.30469 12.4531 3.20312 12.974 4.375 13ZM4.375 18C3.20312 18.026 2.30469 18.5469 1.67969 19.5625C1.10677 20.6042 1.10677 21.6458 1.67969 22.6875C2.30469 23.7031 3.20312 24.224 4.375 24.25C5.54688 24.224 6.44531 23.7031 7.07031 22.6875C7.64323 21.6458 7.64323 20.6042 7.07031 19.5625C6.44531 18.5469 5.54688 18.026 4.375 18Z" fill="black" fill-opacity="0.72"/>
</g>
<defs>
<clipPath id="clip0_1731_4919">
<rect width="20" height="30" fill="white"/>
</clipPath>
</defs>
</svg>
