<svg width="20" height="30" viewBox="0 0 20 30" fill="none" xmlns="http://www.w3.org/2000/svg">
<g id="label-paired / lg / pen-lg / bold" clip-path="url(#clip0_1731_4936)">
<path id="icon" d="M1.40625 19.6016C1.58854 19.0286 1.88802 18.5469 2.30469 18.1562L14.1797 6.24219C14.7005 5.77344 15.2865 5.53906 15.9375 5.53906C16.6146 5.53906 17.2005 5.77344 17.6953 6.24219L19.2578 7.80469C19.362 7.9349 19.4661 8.0651 19.5703 8.19531C19.8828 8.6901 20.013 9.22396 19.9609 9.79688C19.9089 10.3698 19.6745 10.8776 19.2578 11.3203L7.38281 23.1953C7.33073 23.2474 7.27865 23.2995 7.22656 23.3516C6.83594 23.6901 6.39323 23.9375 5.89844 24.0938L2.85156 24.9922L1.21094 25.4609C0.846354 25.5651 0.533854 25.487 0.273438 25.2266C0.0130208 24.9661 -0.0651042 24.6536 0.0390625 24.2891L0.507812 22.6484L1.40625 19.6016ZM3.20312 20.1094L2.96875 21.0469L2.30469 23.1953L4.45312 22.5703L5.39062 22.2969C5.625 22.2188 5.84635 22.0885 6.05469 21.9062L14.9609 12.9609L12.5391 10.5391L3.63281 19.4453C3.60677 19.4714 3.59375 19.4844 3.59375 19.4844C3.56771 19.5104 3.55469 19.5234 3.55469 19.5234C3.39844 19.7057 3.28125 19.901 3.20312 20.1094Z" fill="black" fill-opacity="0.72"/>
</g>
<defs>
<clipPath id="clip0_1731_4936">
<rect width="20" height="30" fill="white"/>
</clipPath>
</defs>
</svg>
