<svg width="14" height="22" viewBox="0 0 14 22" fill="none" xmlns="http://www.w3.org/2000/svg">
<g id="label-paired / sm / circle-five-sm / regular" clip-path="url(#clip0_1731_2323)">
<path id="icon" d="M7 4.625C5.88802 4.64323 4.86719 4.91667 3.9375 5.44531C3.00781 5.99219 2.26042 6.73958 1.69531 7.6875C1.14844 8.65365 0.875 9.67448 0.875 10.75C0.875 11.8255 1.14844 12.8464 1.69531 13.8125C2.26042 14.7604 3.00781 15.5078 3.9375 16.0547C4.86719 16.5833 5.88802 16.8568 7 16.875C8.11198 16.8568 9.13281 16.5833 10.0625 16.0547C10.9922 15.5078 11.7396 14.7604 12.3047 13.8125C12.8516 12.8464 13.125 11.8255 13.125 10.75C13.125 9.67448 12.8516 8.65365 12.3047 7.6875C11.7396 6.73958 10.9922 5.99219 10.0625 5.44531C9.13281 4.91667 8.11198 4.64323 7 4.625ZM7 17.75C5.72396 17.7318 4.55729 17.4219 3.5 16.8203C2.44271 16.2005 1.58594 15.3438 0.929688 14.25C0.309896 13.138 0 11.9714 0 10.75C0 9.52865 0.309896 8.36198 0.929688 7.25C1.58594 6.15625 2.44271 5.29948 3.5 4.67969C4.55729 4.07812 5.72396 3.76823 7 3.75C8.27604 3.76823 9.44271 4.07812 10.5 4.67969C11.5573 5.29948 12.4141 6.15625 13.0703 7.25C13.6901 8.36198 14 9.52865 14 10.75C14 11.9714 13.6901 13.138 13.0703 14.25C12.4141 15.3438 11.5573 16.2005 10.5 16.8203C9.44271 17.4219 8.27604 17.7318 7 17.75ZM5.6875 7.25H8.75C9.02344 7.26823 9.16927 7.41406 9.1875 7.6875C9.16927 7.96094 9.02344 8.10677 8.75 8.125H6.04297L5.57812 9.92969L7.76562 10.1484C8.3125 10.2214 8.75911 10.4401 9.10547 10.8047C9.43359 11.1875 9.60677 11.6523 9.625 12.1992C9.60677 12.7826 9.40625 13.2656 9.02344 13.6484C8.64062 14.0312 8.15755 14.2318 7.57422 14.25H6.37109C5.56901 14.2318 4.9401 13.9036 4.48438 13.2656L4.45703 13.1836C4.32943 12.9466 4.36589 12.7461 4.56641 12.582C4.80339 12.4544 5.00391 12.4909 5.16797 12.6914L5.22266 12.7734C5.49609 13.1562 5.87891 13.3568 6.37109 13.375H7.57422C7.90234 13.375 8.17578 13.2565 8.39453 13.0195C8.63151 12.8008 8.75 12.5273 8.75 12.1992C8.75 11.8893 8.64974 11.625 8.44922 11.4062C8.2487 11.1875 7.99349 11.0599 7.68359 11.0234L4.97656 10.75C4.84896 10.7318 4.7487 10.668 4.67578 10.5586C4.60286 10.4492 4.58464 10.3307 4.62109 10.2031L5.27734 7.57812C5.33203 7.3776 5.46875 7.26823 5.6875 7.25Z" fill="black" fill-opacity="0.72"/>
</g>
<defs>
<clipPath id="clip0_1731_2323">
<rect width="14" height="22" fill="white"/>
</clipPath>
</defs>
</svg>
