<svg width="30" height="36" viewBox="0 0 30 36" fill="none" xmlns="http://www.w3.org/2000/svg">
<g id="label-paired / xl / laptop-mobile-xl / regular" clip-path="url(#clip0_1731_6421)">
<path id="icon" d="M6 7.5C5.5625 7.5 5.20312 7.64062 4.92188 7.92188C4.64062 8.20312 4.5 8.5625 4.5 9V19.5H16.5V21H4.5H3H1.59375C1.90625 21.9375 2.57812 22.4375 3.60938 22.5H16.5V24H3.60938C2.57812 23.9688 1.73438 23.625 1.07812 22.9688C0.390625 22.2812 0.03125 21.4219 0 20.3906C0.0625 19.8594 0.359375 19.5625 0.890625 19.5H3V9C3.03125 8.15625 3.32812 7.45312 3.89062 6.89062C4.45312 6.32812 5.15625 6.03125 6 6H21C21.8438 6.03125 22.5469 6.32812 23.1094 6.89062C23.6719 7.45312 23.9688 8.15625 24 9V10.5H22.5V9C22.5 8.5625 22.3594 8.20312 22.0781 7.92188C21.7969 7.64062 21.4375 7.5 21 7.5H6ZM19.5 14.25V27.75C19.5312 28.2188 19.7812 28.4688 20.25 28.5H27.75C28.2188 28.4688 28.4688 28.2188 28.5 27.75V14.25C28.4688 13.7812 28.2188 13.5312 27.75 13.5H20.25C19.7812 13.5312 19.5312 13.7812 19.5 14.25ZM18 14.25C18.0312 13.625 18.25 13.0938 18.6562 12.6562C19.0938 12.25 19.625 12.0312 20.25 12H27.75C28.375 12.0312 28.9062 12.25 29.3438 12.6562C29.75 13.0938 29.9688 13.625 30 14.25V27.75C29.9688 28.375 29.75 28.9062 29.3438 29.3438C28.9062 29.75 28.375 29.9688 27.75 30H20.25C19.625 29.9688 19.0938 29.75 18.6562 29.3438C18.25 28.9062 18.0312 28.375 18 27.75V14.25Z" fill="black" fill-opacity="0.72"/>
</g>
<defs>
<clipPath id="clip0_1731_6421">
<rect width="30" height="36" fill="white"/>
</clipPath>
</defs>
</svg>
