<svg width="12" height="18" viewBox="0 0 12 18" fill="none" xmlns="http://www.w3.org/2000/svg">
<g id="label-paired / caption / circle-caret-down-caption / regular" clip-path="url(#clip0_1731_1656)">
<path id="icon" d="M6 14.75C6.95312 14.7344 7.82812 14.5 8.625 14.0469C9.42188 13.5781 10.0625 12.9375 10.5469 12.125C11.0156 11.2969 11.25 10.4219 11.25 9.5C11.25 8.57812 11.0156 7.70312 10.5469 6.875C10.0625 6.0625 9.42188 5.42188 8.625 4.95312C7.82812 4.5 6.95312 4.26562 6 4.25C5.04688 4.26562 4.17188 4.5 3.375 4.95312C2.57812 5.42188 1.9375 6.0625 1.45312 6.875C0.984375 7.70312 0.75 8.57812 0.75 9.5C0.75 10.4219 0.984375 11.2969 1.45312 12.125C1.9375 12.9375 2.57812 13.5781 3.375 14.0469C4.17188 14.5 5.04688 14.7344 6 14.75ZM6 3.5C7.09375 3.51563 8.09375 3.78125 9 4.29688C9.90625 4.82812 10.6406 5.5625 11.2031 6.5C11.7344 7.45312 12 8.45312 12 9.5C12 10.5469 11.7344 11.5469 11.2031 12.5C10.6406 13.4375 9.90625 14.1719 9 14.7031C8.09375 15.2188 7.09375 15.4844 6 15.5C4.90625 15.4844 3.90625 15.2188 3 14.7031C2.09375 14.1719 1.35938 13.4375 0.796875 12.5C0.265625 11.5469 0 10.5469 0 9.5C0 8.45312 0.265625 7.45312 0.796875 6.5C1.35938 5.5625 2.09375 4.82812 3 4.29688C3.90625 3.78125 4.90625 3.51563 6 3.5ZM6 11.75C5.76562 11.75 5.57031 11.6641 5.41406 11.4922L3.16406 9.07812C3.05469 8.95312 3 8.8125 3 8.65625C3 8.46875 3.0625 8.3125 3.1875 8.1875C3.3125 8.0625 3.46875 8 3.65625 8H8.36719C8.53906 8 8.6875 8.0625 8.8125 8.1875C8.9375 8.3125 9 8.46875 9 8.65625C9 8.8125 8.94531 8.95312 8.83594 9.07812L6.58594 11.4922C6.42969 11.6641 6.23438 11.75 6 11.75ZM6.04688 10.9766L8.10938 8.75H3.89062L5.95312 10.9766C5.96875 10.9922 5.98438 11 6 11C6.01562 11 6.03125 10.9922 6.04688 10.9766Z" fill="black" fill-opacity="0.72"/>
</g>
<defs>
<clipPath id="clip0_1731_1656">
<rect width="12" height="18" fill="white"/>
</clipPath>
</defs>
</svg>
