<svg width="24" height="36" viewBox="0 0 24 36" fill="none" xmlns="http://www.w3.org/2000/svg">
<g id="label-paired / xl / circle-arrow-up-xl / bold" clip-path="url(#clip0_1731_5963)">
<path id="icon" d="M12 8.25C10.2188 8.25 8.59375 8.6875 7.125 9.5625C5.65625 10.4062 4.46875 11.5938 3.5625 13.125C2.6875 14.6562 2.25 16.2812 2.25 18C2.25 19.7188 2.6875 21.3438 3.5625 22.875C4.46875 24.4062 5.65625 25.5938 7.125 26.4375C8.59375 27.3125 10.2188 27.75 12 27.75C13.7812 27.75 15.4062 27.3125 16.875 26.4375C18.3438 25.5938 19.5312 24.4062 20.4375 22.875C21.3125 21.3438 21.75 19.7188 21.75 18C21.75 16.2812 21.3125 14.6562 20.4375 13.125C19.5312 11.5938 18.3438 10.4062 16.875 9.5625C15.4062 8.6875 13.7812 8.25 12 8.25ZM12 30C9.8125 29.9688 7.8125 29.4375 6 28.4062C4.1875 27.3438 2.71875 25.875 1.59375 24C0.53125 22.0938 0 20.0938 0 18C0 15.9062 0.53125 13.9062 1.59375 12C2.71875 10.125 4.1875 8.65625 6 7.59375C7.8125 6.5625 9.8125 6.03125 12 6C14.1875 6.03125 16.1875 6.5625 18 7.59375C19.8125 8.65625 21.2812 10.125 22.4062 12C23.4688 13.9062 24 15.9062 24 18C24 20.0938 23.4688 22.0938 22.4062 24C21.2812 25.875 19.8125 27.3438 18 28.4062C16.1875 29.4375 14.1875 29.9688 12 30ZM16.9219 16.4531C17.3594 16.9844 17.3594 17.5156 16.9219 18.0469C16.3906 18.4844 15.8594 18.4844 15.3281 18.0469L13.125 15.8438V22.875C13.0625 23.5625 12.6875 23.9375 12 24C11.3125 23.9375 10.9375 23.5625 10.875 22.875V15.8438L8.67188 18.0469C8.14062 18.4844 7.60938 18.4844 7.07812 18.0469C6.64062 17.5156 6.64062 16.9844 7.07812 16.4531L11.2031 12.3281C11.7344 11.8906 12.2656 11.8906 12.7969 12.3281L16.9219 16.4531Z" fill="black" fill-opacity="0.72"/>
</g>
<defs>
<clipPath id="clip0_1731_5963">
<rect width="24" height="36" fill="white"/>
</clipPath>
</defs>
</svg>
