<svg width="14" height="22" viewBox="0 0 14 22" fill="none" xmlns="http://www.w3.org/2000/svg">
<g id="label-paired / sm / chevrons-down-sm / regular" clip-path="url(#clip0_1731_2157)">
<path id="icon" d="M1.44922 5.80078C1.26693 5.60026 1.26693 5.39974 1.44922 5.19922C1.64974 5.01693 1.85026 5.01693 2.05078 5.19922L7 10.1211L11.9492 5.19922C12.1497 5.01693 12.3503 5.01693 12.5508 5.19922C12.7331 5.39974 12.7331 5.60026 12.5508 5.80078L7.30078 11.0508C7.10026 11.2331 6.89974 11.2331 6.69922 11.0508L1.44922 5.80078ZM1.44922 11.0508C1.26693 10.8503 1.26693 10.6497 1.44922 10.4492C1.64974 10.2669 1.85026 10.2669 2.05078 10.4492L7 15.3711L11.9492 10.4492C12.1497 10.2669 12.3503 10.2669 12.5508 10.4492C12.7331 10.6497 12.7331 10.8503 12.5508 11.0508L7.30078 16.3008C7.10026 16.4831 6.89974 16.4831 6.69922 16.3008L1.44922 11.0508Z" fill="black" fill-opacity="0.72"/>
</g>
<defs>
<clipPath id="clip0_1731_2157">
<rect width="14" height="22" fill="white"/>
</clipPath>
</defs>
</svg>
