<svg width="20" height="30" viewBox="0 0 20 30" fill="none" xmlns="http://www.w3.org/2000/svg">
<g id="label-paired / lg / circle-five-lg / regular" clip-path="url(#clip0_1731_4538)">
<path id="icon" d="M10 6.75C8.41146 6.77604 6.95312 7.16667 5.625 7.92188C4.29688 8.70312 3.22917 9.77083 2.42188 11.125C1.64062 12.5052 1.25 13.9635 1.25 15.5C1.25 17.0365 1.64062 18.4948 2.42188 19.875C3.22917 21.2292 4.29688 22.2969 5.625 23.0781C6.95312 23.8333 8.41146 24.224 10 24.25C11.5885 24.224 13.0469 23.8333 14.375 23.0781C15.7031 22.2969 16.7708 21.2292 17.5781 19.875C18.3594 18.4948 18.75 17.0365 18.75 15.5C18.75 13.9635 18.3594 12.5052 17.5781 11.125C16.7708 9.77083 15.7031 8.70312 14.375 7.92188C13.0469 7.16667 11.5885 6.77604 10 6.75ZM10 25.5C8.17708 25.474 6.51042 25.0312 5 24.1719C3.48958 23.2865 2.26562 22.0625 1.32812 20.5C0.442708 18.9115 0 17.2448 0 15.5C0 13.7552 0.442708 12.0885 1.32812 10.5C2.26562 8.9375 3.48958 7.71354 5 6.82812C6.51042 5.96875 8.17708 5.52604 10 5.5C11.8229 5.52604 13.4896 5.96875 15 6.82812C16.5104 7.71354 17.7344 8.9375 18.6719 10.5C19.5573 12.0885 20 13.7552 20 15.5C20 17.2448 19.5573 18.9115 18.6719 20.5C17.7344 22.0625 16.5104 23.2865 15 24.1719C13.4896 25.0312 11.8229 25.474 10 25.5ZM8.125 10.5H12.5C12.8906 10.526 13.099 10.7344 13.125 11.125C13.099 11.5156 12.8906 11.724 12.5 11.75H8.63281L7.96875 14.3281L11.0938 14.6406C11.875 14.7448 12.513 15.0573 13.0078 15.5781C13.4766 16.125 13.724 16.7891 13.75 17.5703C13.724 18.4036 13.4375 19.0938 12.8906 19.6406C12.3438 20.1875 11.6536 20.474 10.8203 20.5H9.10156C7.95573 20.474 7.05729 20.0052 6.40625 19.0938L6.36719 18.9766C6.1849 18.638 6.23698 18.3516 6.52344 18.1172C6.86198 17.9349 7.14844 17.987 7.38281 18.2734L7.46094 18.3906C7.85156 18.9375 8.39844 19.224 9.10156 19.25H10.8203C11.2891 19.25 11.6797 19.0807 11.9922 18.7422C12.3307 18.4297 12.5 18.0391 12.5 17.5703C12.5 17.1276 12.3568 16.75 12.0703 16.4375C11.7839 16.125 11.4193 15.9427 10.9766 15.8906L7.10938 15.5C6.92708 15.474 6.78385 15.3828 6.67969 15.2266C6.57552 15.0703 6.54948 14.901 6.60156 14.7188L7.53906 10.9688C7.61719 10.6823 7.8125 10.526 8.125 10.5Z" fill="black" fill-opacity="0.72"/>
</g>
<defs>
<clipPath id="clip0_1731_4538">
<rect width="20" height="30" fill="white"/>
</clipPath>
</defs>
</svg>
