<svg width="8" height="18" viewBox="0 0 8 18" fill="none" xmlns="http://www.w3.org/2000/svg">
<g id="label-paired / caption / eight-caption / bold" clip-path="url(#clip0_1731_1032)">
<path id="icon" d="M7.375 7.15625C7.34375 8.0625 7.00781 8.79688 6.36719 9.35938C6.78906 9.625 7.125 9.96875 7.375 10.3906C7.625 10.8281 7.75 11.3125 7.75 11.8438C7.73438 12.6719 7.45312 13.3594 6.90625 13.9062C6.35938 14.4531 5.67188 14.7344 4.84375 14.75H3.15625C2.32812 14.7344 1.64062 14.4531 1.09375 13.9062C0.546875 13.3594 0.265625 12.6719 0.25 11.8438C0.25 11.3125 0.375 10.8281 0.625 10.3906C0.875 9.96875 1.21094 9.625 1.63281 9.35938C0.992188 8.79688 0.65625 8.0625 0.625 7.15625C0.640625 6.32812 0.921875 5.64062 1.46875 5.09375C2.01562 4.54688 2.70312 4.26562 3.53125 4.25H4.46875C5.29688 4.26562 5.98438 4.54688 6.53125 5.09375C7.07812 5.64062 7.35938 6.32812 7.375 7.15625ZM4.46875 10.0625H3.53125H3.15625C2.65625 10.0781 2.23438 10.25 1.89062 10.5781C1.5625 10.9219 1.39062 11.3438 1.375 11.8438C1.39062 12.3438 1.5625 12.7656 1.89062 13.1094C2.23438 13.4375 2.65625 13.6094 3.15625 13.625H4.84375C5.34375 13.6094 5.76562 13.4375 6.10938 13.1094C6.4375 12.7656 6.60938 12.3438 6.625 11.8438C6.60938 11.3438 6.4375 10.9219 6.10938 10.5781C5.76562 10.25 5.34375 10.0781 4.84375 10.0625H4.46875ZM4.46875 8.9375C4.96875 8.92188 5.39062 8.75 5.73438 8.42188C6.0625 8.07812 6.23438 7.65625 6.25 7.15625C6.23438 6.65625 6.0625 6.23438 5.73438 5.89062C5.39062 5.5625 4.96875 5.39062 4.46875 5.375H3.53125C3.03125 5.39062 2.60938 5.5625 2.26562 5.89062C1.9375 6.23438 1.76562 6.65625 1.75 7.15625C1.76562 7.65625 1.9375 8.07812 2.26562 8.42188C2.60938 8.75 3.03125 8.92188 3.53125 8.9375H4.46875Z" fill="black" fill-opacity="0.72"/>
</g>
<defs>
<clipPath id="clip0_1731_1032">
<rect width="8" height="18" fill="white"/>
</clipPath>
</defs>
</svg>
