<svg width="8" height="18" viewBox="0 0 8 18" fill="none" xmlns="http://www.w3.org/2000/svg">
<g id="label-paired / caption / three-caption / regular" clip-path="url(#clip0_1731_1005)">
<path id="icon" d="M0.25 4.625C0.265625 4.39062 0.390625 4.26562 0.625 4.25H7C7.17188 4.25 7.28906 4.32812 7.35156 4.48438C7.39844 4.64062 7.36719 4.78125 7.25781 4.90625L3.08594 8.75H4.75C5.59375 8.76562 6.30469 9.05469 6.88281 9.61719C7.44531 10.1953 7.73438 10.9062 7.75 11.75C7.73438 12.5938 7.44531 13.3047 6.88281 13.8828C6.30469 14.4453 5.59375 14.7344 4.75 14.75H2.33594C1.91406 14.75 1.52344 14.6406 1.16406 14.4219C0.804688 14.2031 0.53125 13.8984 0.34375 13.5078L0.296875 13.4141C0.203125 13.1953 0.257812 13.0312 0.460938 12.9219C0.664062 12.8281 0.828125 12.8828 0.953125 13.0859L1 13.1797C1.29688 13.7109 1.74219 13.9844 2.33594 14H4.75C5.39062 13.9844 5.92188 13.7656 6.34375 13.3438C6.76562 12.9219 6.98438 12.3906 7 11.75C6.98438 11.1094 6.76562 10.5781 6.34375 10.1562C5.92188 9.73438 5.39062 9.51562 4.75 9.5H2.125C1.95312 9.5 1.83594 9.42188 1.77344 9.26562C1.72656 9.10938 1.75781 8.96875 1.86719 8.84375L6.03906 5H0.625C0.390625 4.98438 0.265625 4.85938 0.25 4.625Z" fill="black" fill-opacity="0.72"/>
</g>
<defs>
<clipPath id="clip0_1731_1005">
<rect width="8" height="18" fill="white"/>
</clipPath>
</defs>
</svg>
