<svg width="20" height="30" viewBox="0 0 20 30" fill="none" xmlns="http://www.w3.org/2000/svg">
<g id="label-paired / lg / circle-envelope-lg / bold" clip-path="url(#clip0_1731_4773)">
<path id="icon" d="M10 7.375C8.51562 7.375 7.16146 7.73958 5.9375 8.46875C4.71354 9.17188 3.72396 10.1615 2.96875 11.4375C2.23958 12.7135 1.875 14.0677 1.875 15.5C1.875 16.9323 2.23958 18.2865 2.96875 19.5625C3.72396 20.8385 4.71354 21.8281 5.9375 22.5312C7.16146 23.2604 8.51562 23.625 10 23.625C11.4844 23.625 12.8385 23.2604 14.0625 22.5312C15.2865 21.8281 16.276 20.8385 17.0312 19.5625C17.7604 18.2865 18.125 16.9323 18.125 15.5C18.125 14.0677 17.7604 12.7135 17.0312 11.4375C16.276 10.1615 15.2865 9.17188 14.0625 8.46875C12.8385 7.73958 11.4844 7.375 10 7.375ZM10 25.5C8.17708 25.474 6.51042 25.0312 5 24.1719C3.48958 23.2865 2.26562 22.0625 1.32812 20.5C0.442708 18.9115 0 17.2448 0 15.5C0 13.7552 0.442708 12.0885 1.32812 10.5C2.26562 8.9375 3.48958 7.71354 5 6.82812C6.51042 5.96875 8.17708 5.52604 10 5.5C11.8229 5.52604 13.4896 5.96875 15 6.82812C16.5104 7.71354 17.7344 8.9375 18.6719 10.5C19.5573 12.0885 20 13.7552 20 15.5C20 17.2448 19.5573 18.9115 18.6719 20.5C17.7344 22.0625 16.5104 23.2865 15 24.1719C13.4896 25.0312 11.8229 25.474 10 25.5ZM9.72656 15.5L5 12.8828C5.02604 12.5703 5.15625 12.3099 5.39062 12.1016C5.625 11.8672 5.91146 11.75 6.25 11.75H13.75C14.0885 11.75 14.375 11.8542 14.6094 12.0625C14.8438 12.2969 14.974 12.5703 15 12.8828L10.2734 15.5C10.1953 15.5521 10.1042 15.5781 10 15.5781C9.89583 15.5521 9.80469 15.526 9.72656 15.5ZM10.8984 16.5938L15 14.3281V18C15 18.3646 14.8828 18.6641 14.6484 18.8984C14.4141 19.1328 14.1146 19.25 13.75 19.25H6.25C5.88542 19.25 5.58594 19.1328 5.35156 18.8984C5.11719 18.6641 5 18.3646 5 18V14.3281L9.10156 16.5938C9.38802 16.724 9.6875 16.7891 10 16.7891C10.3125 16.7891 10.612 16.724 10.8984 16.5938Z" fill="black" fill-opacity="0.72"/>
</g>
<defs>
<clipPath id="clip0_1731_4773">
<rect width="20" height="30" fill="white"/>
</clipPath>
</defs>
</svg>
