<svg width="16" height="24" viewBox="0 0 16 24" fill="none" xmlns="http://www.w3.org/2000/svg">
<g id="label-paired / md / circle-nine-md / regular" clip-path="url(#clip0_1731_3601)">
<path id="icon" d="M15 12C14.9792 10.7292 14.6667 9.5625 14.0625 8.5C13.4375 7.4375 12.5833 6.58333 11.5 5.9375C10.3958 5.3125 9.22917 5 8 5C6.77083 5 5.60417 5.3125 4.5 5.9375C3.41667 6.58333 2.5625 7.4375 1.9375 8.5C1.33333 9.5625 1.02083 10.7292 1 12C1.02083 13.2708 1.33333 14.4375 1.9375 15.5C2.5625 16.5625 3.41667 17.4167 4.5 18.0625C5.60417 18.6875 6.77083 19 8 19C9.22917 19 10.3958 18.6875 11.5 18.0625C12.5833 17.4167 13.4375 16.5625 14.0625 15.5C14.6667 14.4375 14.9792 13.2708 15 12ZM0 12C0.0208333 10.5417 0.375 9.20833 1.0625 8C1.77083 6.79167 2.75 5.8125 4 5.0625C5.27083 4.35417 6.60417 4 8 4C9.39583 4 10.7292 4.35417 12 5.0625C13.25 5.8125 14.2292 6.79167 14.9375 8C15.625 9.20833 15.9792 10.5417 16 12C15.9792 13.4583 15.625 14.7917 14.9375 16C14.2292 17.2083 13.25 18.1875 12 18.9375C10.7292 19.6458 9.39583 20 8 20C6.60417 20 5.27083 19.6458 4 18.9375C2.75 18.1875 1.77083 17.2083 1.0625 16C0.375 14.7917 0.0208333 13.4583 0 12ZM8 9C7.25 9.02083 6.67708 9.35417 6.28125 10C5.90625 10.6667 5.90625 11.3333 6.28125 12C6.67708 12.6458 7.25 12.9792 8 13C8.75 12.9792 9.32292 12.6458 9.71875 12C10.0938 11.3333 10.0938 10.6667 9.71875 10C9.32292 9.35417 8.75 9.02083 8 9ZM7.875 14C7.0625 13.9583 6.38542 13.6562 5.84375 13.0938C5.30208 12.5312 5.02083 11.8333 5 11C5.02083 10.1458 5.3125 9.4375 5.875 8.875C6.4375 8.3125 7.14583 8.02083 8 8C8.85417 8.02083 9.5625 8.3125 10.125 8.875C10.6875 9.4375 10.9792 10.1458 11 11C10.9792 11.9792 10.625 12.8021 9.9375 13.4688L7.34375 15.875C7.09375 16.0625 6.85417 16.0521 6.625 15.8438C6.4375 15.5938 6.44792 15.3542 6.65625 15.125L7.875 14Z" fill="black" fill-opacity="0.72"/>
</g>
<defs>
<clipPath id="clip0_1731_3601">
<rect width="16" height="24" fill="white"/>
</clipPath>
</defs>
</svg>
