<svg width="21" height="36" viewBox="0 0 21 36" fill="none" xmlns="http://www.w3.org/2000/svg">
<g id="label-paired / xl / stopwatch-xl / regular" clip-path="url(#clip0_1731_5731)">
<path id="icon" d="M6 6.75C6.03125 6.28125 6.28125 6.03125 6.75 6H14.25C14.7188 6.03125 14.9688 6.28125 15 6.75C14.9688 7.21875 14.7188 7.46875 14.25 7.5H11.25V10.5469C13.625 10.7656 15.625 11.6562 17.25 13.2188L18.9844 11.4844C19.3281 11.1719 19.6719 11.1719 20.0156 11.4844C20.3281 11.8281 20.3281 12.1719 20.0156 12.5156L18.2344 14.2969C19.5469 15.9844 20.2188 17.9688 20.25 20.25C20.1875 23 19.2344 25.2969 17.3906 27.1406C15.5469 28.9844 13.25 29.9375 10.5 30C7.75 29.9375 5.45312 28.9844 3.60938 27.1406C1.76563 25.2969 0.8125 23 0.75 20.25C0.8125 17.625 1.6875 15.4062 3.375 13.5938C5.0625 11.8125 7.1875 10.7969 9.75 10.5469V7.5H6.75C6.28125 7.46875 6.03125 7.21875 6 6.75ZM2.25 20.25C2.25 21.75 2.625 23.125 3.375 24.375C4.09375 25.625 5.09375 26.625 6.375 27.375C7.6875 28.125 9.0625 28.5 10.5 28.5C11.9375 28.5 13.3125 28.125 14.625 27.375C15.9062 26.625 16.9062 25.625 17.625 24.375C18.375 23.125 18.75 21.75 18.75 20.25C18.75 18.75 18.375 17.375 17.625 16.125C16.9062 14.875 15.9062 13.875 14.625 13.125C13.3125 12.375 11.9375 12 10.5 12C9.0625 12 7.6875 12.375 6.375 13.125C5.09375 13.875 4.09375 14.875 3.375 16.125C2.625 17.375 2.25 18.75 2.25 20.25ZM11.25 15.75V21C11.2188 21.4688 10.9688 21.7188 10.5 21.75C10.0312 21.7188 9.78125 21.4688 9.75 21V15.75C9.78125 15.2812 10.0312 15.0312 10.5 15C10.9688 15.0312 11.2188 15.2812 11.25 15.75Z" fill="black" fill-opacity="0.72"/>
</g>
<defs>
<clipPath id="clip0_1731_5731">
<rect width="21" height="36" fill="white"/>
</clipPath>
</defs>
</svg>
