<svg width="20" height="30" viewBox="0 0 20 30" fill="none" xmlns="http://www.w3.org/2000/svg">
<g id="label-paired / lg / file-certificate-lg / bold" clip-path="url(#clip0_1731_5059)">
<path id="icon" d="M17.5 23.625C17.8906 23.599 18.099 23.3906 18.125 23V11.75H15C14.6354 11.75 14.3359 11.6328 14.1016 11.3984C13.8672 11.1641 13.75 10.8646 13.75 10.5V7.375H7.5C7.10938 7.40104 6.90104 7.60938 6.875 8V10.6562C6.35417 10.4479 5.82031 10.4479 5.27344 10.6562C5.19531 10.6823 5.11719 10.7083 5.03906 10.7344C5.03906 10.7604 5.02604 10.7734 5 10.7734V8C5.02604 7.29688 5.27344 6.71094 5.74219 6.24219C6.21094 5.77344 6.79688 5.52604 7.5 5.5H13.9844C14.6615 5.5 15.2474 5.7474 15.7422 6.24219L19.2578 9.75781C19.7526 10.2526 20 10.8516 20 11.5547V23C19.974 23.7031 19.7266 24.2891 19.2578 24.7578C18.7891 25.2266 18.2031 25.474 17.5 25.5H8.63281C8.71094 25.2917 8.75 25.0833 8.75 24.875V23.625H17.5ZM4.25781 11.8281L4.88281 12.0625C4.96094 12.0885 5.03906 12.0885 5.11719 12.0625L5.74219 11.8281C6.1849 11.6719 6.54948 11.763 6.83594 12.1016L7.26562 12.6484C7.31771 12.7005 7.38281 12.7396 7.46094 12.7656L8.125 12.8438C8.56771 12.9219 8.82812 13.1823 8.90625 13.625L9.02344 14.2891C9.02344 14.3672 9.0625 14.4453 9.14062 14.5234L9.64844 14.9141C9.98698 15.2266 10.0911 15.5911 9.96094 16.0078L9.6875 16.6328C9.66146 16.7109 9.66146 16.7891 9.6875 16.8672L9.92188 17.4922C10.0781 17.9089 9.98698 18.2734 9.64844 18.5859L9.10156 18.9766C9.04948 19.0286 9.01042 19.1068 8.98438 19.2109L8.90625 19.875C8.82812 20.3177 8.56771 20.5781 8.125 20.6562L7.5 20.7344V24.875C7.5 25.1094 7.39583 25.2917 7.1875 25.4219C6.95312 25.526 6.73177 25.513 6.52344 25.3828L5 24.3672L3.47656 25.3828C3.26823 25.513 3.0599 25.526 2.85156 25.4219C2.61719 25.2917 2.5 25.1094 2.5 24.875V20.7344L1.875 20.6562C1.43229 20.5781 1.17188 20.3177 1.09375 19.875L1.01562 19.2109C0.989583 19.1068 0.950521 19.0286 0.898438 18.9766L0.351562 18.5859C0.0130208 18.2734 -0.078125 17.9089 0.078125 17.4922L0.3125 16.8672C0.338542 16.7891 0.338542 16.7109 0.3125 16.6328L0.078125 16.0078C-0.078125 15.5911 0.0130208 15.2266 0.351562 14.9141L0.898438 14.5234C0.950521 14.4714 0.989583 14.3932 1.01562 14.2891L1.09375 13.625C1.17188 13.1823 1.44531 12.9219 1.91406 12.8438L2.53906 12.7656C2.64323 12.7396 2.72135 12.7005 2.77344 12.6484L3.16406 12.1016C3.47656 11.763 3.84115 11.6719 4.25781 11.8281ZM2.5 16.75C2.52604 17.6875 2.94271 18.4036 3.75 18.8984C4.58333 19.3672 5.41667 19.3672 6.25 18.8984C7.05729 18.4036 7.47396 17.6875 7.5 16.75C7.47396 15.8125 7.05729 15.0964 6.25 14.6016C5.41667 14.1328 4.58333 14.1328 3.75 14.6016C2.94271 15.0964 2.52604 15.8125 2.5 16.75Z" fill="black" fill-opacity="0.72"/>
</g>
<defs>
<clipPath id="clip0_1731_5059">
<rect width="20" height="30" fill="white"/>
</clipPath>
</defs>
</svg>
