<svg width="12" height="18" viewBox="0 0 12 18" fill="none" xmlns="http://www.w3.org/2000/svg">
<g id="label-paired / caption / circle-five-caption / bold" clip-path="url(#clip0_1731_1067)">
<path id="icon" d="M6 4.625C5.10938 4.625 4.29688 4.84375 3.5625 5.28125C2.82812 5.70312 2.23438 6.29688 1.78125 7.0625C1.34375 7.82812 1.125 8.64062 1.125 9.5C1.125 10.3594 1.34375 11.1719 1.78125 11.9375C2.23438 12.7031 2.82812 13.2969 3.5625 13.7188C4.29688 14.1562 5.10938 14.375 6 14.375C6.89062 14.375 7.70312 14.1562 8.4375 13.7188C9.17188 13.2969 9.76562 12.7031 10.2188 11.9375C10.6562 11.1719 10.875 10.3594 10.875 9.5C10.875 8.64062 10.6562 7.82812 10.2188 7.0625C9.76562 6.29688 9.17188 5.70312 8.4375 5.28125C7.70312 4.84375 6.89062 4.625 6 4.625ZM6 15.5C4.90625 15.4844 3.90625 15.2188 3 14.7031C2.09375 14.1719 1.35938 13.4375 0.796875 12.5C0.265625 11.5469 0 10.5469 0 9.5C0 8.45312 0.265625 7.45312 0.796875 6.5C1.35938 5.5625 2.09375 4.82812 3 4.29688C3.90625 3.78125 4.90625 3.51563 6 3.5C7.09375 3.51563 8.09375 3.78125 9 4.29688C9.90625 4.82812 10.6406 5.5625 11.2031 6.5C11.7344 7.45312 12 8.45312 12 9.5C12 10.5469 11.7344 11.5469 11.2031 12.5C10.6406 13.4375 9.90625 14.1719 9 14.7031C8.09375 15.2188 7.09375 15.4844 6 15.5ZM4.875 6.5H7.3125C7.65625 6.53125 7.84375 6.71875 7.875 7.0625C7.84375 7.40625 7.65625 7.59375 7.3125 7.625H5.34375L5.15625 8.63281L6.60938 8.79688C7.07812 8.85938 7.46875 9.0625 7.78125 9.40625C8.07812 9.75 8.23438 10.1641 8.25 10.6484C8.23438 11.1797 8.05469 11.6172 7.71094 11.9609C7.35156 12.3047 6.91406 12.4844 6.39844 12.5H5.55469C4.86719 12.4844 4.32812 12.1953 3.9375 11.6328L3.84375 11.4922C3.6875 11.1953 3.74219 10.9375 4.00781 10.7188C4.30469 10.5625 4.5625 10.6172 4.78125 10.8828L4.875 11.0234C5.04688 11.2578 5.27344 11.375 5.55469 11.375H6.39844C6.60156 11.375 6.77344 11.3047 6.91406 11.1641C7.05469 11.0234 7.125 10.8516 7.125 10.6484C7.09375 10.2422 6.875 10 6.46875 9.92188L4.42969 9.6875C4.27344 9.67188 4.14844 9.59375 4.05469 9.45312C3.96094 9.32812 3.92188 9.1875 3.9375 9.03125L4.3125 6.96875C4.39062 6.67188 4.57812 6.51562 4.875 6.5Z" fill="black" fill-opacity="0.72"/>
</g>
<defs>
<clipPath id="clip0_1731_1067">
<rect width="12" height="18" fill="white"/>
</clipPath>
</defs>
</svg>
