<svg width="16" height="24" viewBox="0 0 16 24" fill="none" xmlns="http://www.w3.org/2000/svg">
<g id="label-paired / md / circle-trash-md / regular" clip-path="url(#clip0_1731_3090)">
<path id="icon" d="M15 12C14.9792 10.7292 14.6667 9.5625 14.0625 8.5C13.4375 7.4375 12.5833 6.58333 11.5 5.9375C10.3958 5.3125 9.22917 5 8 5C6.77083 5 5.60417 5.3125 4.5 5.9375C3.41667 6.58333 2.5625 7.4375 1.9375 8.5C1.33333 9.5625 1.02083 10.7292 1 12C1.02083 13.2708 1.33333 14.4375 1.9375 15.5C2.5625 16.5625 3.41667 17.4167 4.5 18.0625C5.60417 18.6875 6.77083 19 8 19C9.22917 19 10.3958 18.6875 11.5 18.0625C12.5833 17.4167 13.4375 16.5625 14.0625 15.5C14.6667 14.4375 14.9792 13.2708 15 12ZM0 12C0.0208333 10.5417 0.375 9.20833 1.0625 8C1.77083 6.79167 2.75 5.8125 4 5.0625C5.27083 4.35417 6.60417 4 8 4C9.39583 4 10.7292 4.35417 12 5.0625C13.25 5.8125 14.2292 6.79167 14.9375 8C15.625 9.20833 15.9792 10.5417 16 12C15.9792 13.4583 15.625 14.7917 14.9375 16C14.2292 17.2083 13.25 18.1875 12 18.9375C10.7292 19.6458 9.39583 20 8 20C6.60417 20 5.27083 19.6458 4 18.9375C2.75 18.1875 1.77083 17.2083 1.0625 16C0.375 14.7917 0.0208333 13.4583 0 12ZM5 8.5H6H6.28125L6.65625 8.15625C6.73958 8.05208 6.85417 8 7 8H9C9.14583 8 9.26042 8.05208 9.34375 8.15625L9.71875 8.5H10H11C11.3125 8.52083 11.4792 8.6875 11.5 9C11.4792 9.3125 11.3125 9.47917 11 9.5H10.9375L10.5625 15.0625C10.5417 15.3333 10.4375 15.5521 10.25 15.7188C10.0625 15.9062 9.83333 16 9.5625 16H6.4375C6.16667 16 5.9375 15.9062 5.75 15.7188C5.5625 15.5521 5.45833 15.3333 5.4375 15.0625L5.0625 9.5H5C4.6875 9.47917 4.52083 9.3125 4.5 9C4.52083 8.6875 4.6875 8.52083 5 8.5ZM9.9375 9.5H6.0625L6.4375 15H9.5625L9.9375 9.5Z" fill="black" fill-opacity="0.72"/>
</g>
<defs>
<clipPath id="clip0_1731_3090">
<rect width="16" height="24" fill="white"/>
</clipPath>
</defs>
</svg>
