<svg width="18" height="30" viewBox="0 0 18 30" fill="none" xmlns="http://www.w3.org/2000/svg">
<g id="label-paired / lg / image-polaroid-user-lg / bold" clip-path="url(#clip0_1731_5254)">
<path id="icon" d="M2.125 21.75C2.15104 22.1406 2.35938 22.349 2.75 22.375H15.25C15.6406 22.349 15.849 22.1406 15.875 21.75V19.875H2.125V21.75ZM13.2969 18H15.875V9.25C15.849 8.85938 15.6406 8.65104 15.25 8.625H2.75C2.35938 8.65104 2.15104 8.85938 2.125 9.25V18H4.70312C4.85938 17.4531 5.14583 17.0104 5.5625 16.6719C6.00521 16.3073 6.52604 16.125 7.125 16.125H10.875C11.474 16.125 11.9948 16.3073 12.4375 16.6719C12.8542 17.0104 13.1406 17.4531 13.2969 18ZM17.75 9.25V18V18.9375V19.875V21.75C17.724 22.4531 17.4766 23.0391 17.0078 23.5078C16.5391 23.9766 15.9531 24.224 15.25 24.25H2.75C2.04688 24.224 1.46094 23.9766 0.992188 23.5078C0.523438 23.0391 0.276042 22.4531 0.25 21.75V19.875V18.9375V18V9.25C0.276042 8.54688 0.523438 7.96094 0.992188 7.49219C1.46094 7.02344 2.04688 6.77604 2.75 6.75H15.25C15.9531 6.77604 16.5391 7.02344 17.0078 7.49219C17.4766 7.96094 17.724 8.54688 17.75 9.25ZM6.5 12.375C6.52604 11.4375 6.94271 10.7214 7.75 10.2266C8.58333 9.75781 9.41667 9.75781 10.25 10.2266C11.0573 10.7214 11.474 11.4375 11.5 12.375C11.474 13.3125 11.0573 14.0286 10.25 14.5234C9.41667 14.9922 8.58333 14.9922 7.75 14.5234C6.94271 14.0286 6.52604 13.3125 6.5 12.375Z" fill="black" fill-opacity="0.72"/>
</g>
<defs>
<clipPath id="clip0_1731_5254">
<rect width="18" height="30" fill="white"/>
</clipPath>
</defs>
</svg>
