<svg width="13" height="30" viewBox="0 0 13 30" fill="none" xmlns="http://www.w3.org/2000/svg">
<g id="label-paired / lg / forward-step-lg / bold" clip-path="url(#clip0_1731_5025)">
<path id="icon" d="M9.625 8.9375C9.67708 8.36458 9.98958 8.05208 10.5625 8C11.1354 8.05208 11.4479 8.36458 11.5 8.9375V14.3672V16.6328V22.0625C11.4479 22.6354 11.1354 22.9479 10.5625 23C9.98958 22.9479 9.67708 22.6354 9.625 22.0625V17.9609L2.71094 22.8047C2.5026 22.9349 2.28125 23 2.04688 23C1.70833 23 1.4349 22.8828 1.22656 22.6484C0.992188 22.4401 0.875 22.1667 0.875 21.8281V9.17188C0.875 8.83333 0.992188 8.5599 1.22656 8.35156C1.4349 8.11719 1.70833 8 2.04688 8C2.30729 8 2.52865 8.0651 2.71094 8.19531L9.625 13.0391V8.9375ZM9.625 15.6562V15.3438L2.75 10.5391V20.5L9.625 15.6562Z" fill="black" fill-opacity="0.72"/>
</g>
<defs>
<clipPath id="clip0_1731_5025">
<rect width="13" height="30" fill="white"/>
</clipPath>
</defs>
</svg>
