<svg width="8" height="18" viewBox="0 0 8 18" fill="none" xmlns="http://www.w3.org/2000/svg">
<g id="label-paired / caption / dollar-sign-caption / bold" clip-path="url(#clip0_1731_1694)">
<path id="icon" d="M4.5625 4.0625V5.21094C5.21875 5.28906 5.78125 5.39062 6.25 5.51562C6.57812 5.625 6.71094 5.85156 6.64844 6.19531C6.53906 6.52344 6.32031 6.66406 5.99219 6.61719C5.61719 6.52344 5.1875 6.4375 4.70312 6.35938C4.23438 6.29688 3.77344 6.28125 3.32031 6.3125C2.86719 6.34375 2.50781 6.44531 2.24219 6.61719C2.00781 6.75781 1.85156 6.99219 1.77344 7.32031C1.72656 7.58594 1.74219 7.78125 1.82031 7.90625C1.88281 8.03125 2.01562 8.16406 2.21875 8.30469C2.6875 8.55469 3.32812 8.77344 4.14062 8.96094H4.1875C4.5625 9.05469 4.9375 9.16406 5.3125 9.28906C5.70312 9.39844 6.05469 9.54688 6.36719 9.73438C6.71094 9.9375 6.98438 10.2266 7.1875 10.6016C7.375 10.9766 7.42188 11.4062 7.32812 11.8906C7.125 12.7188 6.625 13.2656 5.82812 13.5312C5.4375 13.6875 5.01562 13.7734 4.5625 13.7891V14.9375C4.53125 15.2812 4.34375 15.4688 4 15.5C3.65625 15.4688 3.46875 15.2812 3.4375 14.9375V13.7656C3.40625 13.7656 3.36719 13.7656 3.32031 13.7656C3.28906 13.75 3.25 13.7422 3.20312 13.7422C2.89062 13.6953 2.52344 13.6172 2.10156 13.5078C1.66406 13.3984 1.28125 13.2734 0.953125 13.1328C0.65625 12.9766 0.5625 12.7344 0.671875 12.4062C0.84375 12.0938 1.09375 11.9922 1.42188 12.1016C1.6875 12.2266 2.00781 12.3359 2.38281 12.4297C2.75781 12.5234 3.08594 12.5938 3.36719 12.6406C4.21094 12.75 4.89062 12.7031 5.40625 12.5C5.89062 12.2969 6.16406 12.0234 6.22656 11.6797C6.27344 11.4141 6.25781 11.2188 6.17969 11.0938C6.11719 10.9688 5.98438 10.8359 5.78125 10.6953C5.3125 10.4453 4.67188 10.2266 3.85938 10.0391H3.8125C3.4375 9.94531 3.0625 9.83594 2.6875 9.71094C2.29688 9.60156 1.94531 9.45312 1.63281 9.26562C1.28906 9.0625 1.01562 8.77344 0.8125 8.39844C0.625 8.02344 0.578125 7.59375 0.671875 7.10938C0.8125 6.45312 1.14062 5.96875 1.65625 5.65625C2.14062 5.375 2.66406 5.21875 3.22656 5.1875C3.28906 5.1875 3.35938 5.1875 3.4375 5.1875V4.0625C3.46875 3.71875 3.65625 3.53125 4 3.5C4.34375 3.53125 4.53125 3.71875 4.5625 4.0625Z" fill="black" fill-opacity="0.72"/>
</g>
<defs>
<clipPath id="clip0_1731_1694">
<rect width="8" height="18" fill="white"/>
</clipPath>
</defs>
</svg>
