<svg width="24" height="36" viewBox="0 0 24 36" fill="none" xmlns="http://www.w3.org/2000/svg">
<g id="label-paired / xl / envelope-xl / regular" clip-path="url(#clip0_1731_6330)">
<path id="icon" d="M3 10.5C2.5625 10.5 2.20312 10.6406 1.92188 10.9219C1.64062 11.2031 1.5 11.5625 1.5 12V13.875L10.6875 20.5781C11.5625 21.1719 12.4375 21.1719 13.3125 20.5781L22.5 13.875V12C22.5 11.5625 22.3594 11.2031 22.0781 10.9219C21.7969 10.6406 21.4375 10.5 21 10.5H3ZM1.5 15.75V24C1.5 24.4375 1.64062 24.7969 1.92188 25.0781C2.20312 25.3594 2.5625 25.5 3 25.5H21C21.4375 25.5 21.7969 25.3594 22.0781 25.0781C22.3594 24.7969 22.5 24.4375 22.5 24V15.75L14.2031 21.7969C13.5469 22.2969 12.8125 22.5469 12 22.5469C11.1875 22.5469 10.4531 22.2969 9.79688 21.7969L1.5 15.75ZM0 12C0.03125 11.1562 0.328125 10.4531 0.890625 9.89062C1.45312 9.32812 2.15625 9.03125 3 9H21C21.8438 9.03125 22.5469 9.32812 23.1094 9.89062C23.6719 10.4531 23.9688 11.1562 24 12V24C23.9688 24.8438 23.6719 25.5469 23.1094 26.1094C22.5469 26.6719 21.8438 26.9688 21 27H3C2.15625 26.9688 1.45312 26.6719 0.890625 26.1094C0.328125 25.5469 0.03125 24.8438 0 24V12Z" fill="black" fill-opacity="0.72"/>
</g>
<defs>
<clipPath id="clip0_1731_6330">
<rect width="24" height="36" fill="white"/>
</clipPath>
</defs>
</svg>
