<svg width="21" height="36" viewBox="0 0 21 36" fill="none" xmlns="http://www.w3.org/2000/svg">
<g id="label-paired / xl / app-store-ios-xl" clip-path="url(#clip0_1731_14130)">
<path id="icon" d="M18.75 7.5C19.375 7.53125 19.9062 7.75 20.3438 8.15625C20.75 8.59375 20.9688 9.125 21 9.75V26.25C20.9688 26.875 20.75 27.4062 20.3438 27.8438C19.9062 28.25 19.375 28.4688 18.75 28.5H2.25C1.625 28.4688 1.09375 28.25 0.65625 27.8438C0.25 27.4062 0.03125 26.875 0 26.25V9.75C0.03125 9.125 0.25 8.59375 0.65625 8.15625C1.09375 7.75 1.625 7.53125 2.25 7.5H18.75ZM5.95312 24.0469L6.84375 22.4531C6.375 21.8594 5.76562 21.6875 5.01562 21.9375L4.3125 23.1094C4.09375 23.6094 4.21875 24.0312 4.6875 24.375C5.1875 24.5938 5.60938 24.4844 5.95312 24.0469ZM12.4688 21.5156C12.6562 21.0781 12.6406 20.6562 12.4219 20.25C12.2344 19.875 11.8906 19.6719 11.3906 19.6406H8.48438L12.5156 12.6562C12.7656 12.125 12.6562 11.7031 12.1875 11.3906C11.6562 11.1406 11.2188 11.25 10.875 11.7188L10.4531 12.4219L10.0781 11.7188C9.73438 11.25 9.29688 11.1406 8.76562 11.3906C8.29688 11.7031 8.1875 12.125 8.4375 12.6562L9.375 14.2969L6.32812 19.6406H3.9375C3.375 19.6719 3.0625 19.9844 3 20.5781C3.0625 21.1406 3.375 21.4531 3.9375 21.5156H12.4688ZM17.0625 21.5156C17.625 21.4531 17.9375 21.1406 18 20.5781C17.9375 19.9844 17.625 19.6719 17.0625 19.6406H14.625C13.625 17.9219 12.8281 16.5469 12.2344 15.5156C12.1094 15.2656 11.9844 15.0469 11.8594 14.8594C11.5469 15.1094 11.3281 15.5156 11.2031 16.0781C11.0469 16.6719 11.1562 17.3125 11.5312 18C11.9688 18.75 12.5156 19.7031 13.1719 20.8594C13.7031 21.7969 14.3125 22.8594 15 24.0469C15.3438 24.4844 15.7656 24.5938 16.2656 24.375C16.7344 24.0312 16.8594 23.6094 16.6406 23.1094L15.7031 21.5156H17.0625Z" fill="black" fill-opacity="0.72"/>
</g>
<defs>
<clipPath id="clip0_1731_14130">
<rect width="21" height="36" fill="white"/>
</clipPath>
</defs>
</svg>
