<svg width="13" height="30" viewBox="0 0 13 30" fill="none" xmlns="http://www.w3.org/2000/svg">
<g id="label-paired / lg / five-lg / regular" clip-path="url(#clip0_1731_4488)">
<path id="icon" d="M2.16406 7.21875C2.24219 6.93229 2.4375 6.77604 2.75 6.75H10.875C11.2656 6.77604 11.474 6.98438 11.5 7.375C11.474 7.76562 11.2656 7.97396 10.875 8H3.25781L1.69531 14.25H7.75C9.15625 14.276 10.3411 14.7578 11.3047 15.6953C12.2422 16.6589 12.724 17.8438 12.75 19.25C12.724 20.6562 12.2422 21.8411 11.3047 22.8047C10.3411 23.7422 9.15625 24.224 7.75 24.25H3.57031C2.89323 24.25 2.28125 24.0807 1.73438 23.7422C1.1875 23.4036 0.770833 22.9349 0.484375 22.3359L0.328125 22.0234C0.171875 21.6849 0.263021 21.4115 0.601562 21.2031C0.966146 21.0469 1.23958 21.138 1.42188 21.4766L1.61719 21.7891C2.03385 22.5703 2.6849 22.974 3.57031 23H7.75C8.81771 22.974 9.70312 22.6094 10.4062 21.9062C11.1094 21.2031 11.474 20.3177 11.5 19.25C11.474 18.1823 11.1094 17.2969 10.4062 16.5938C9.70312 15.8906 8.81771 15.526 7.75 15.5H0.875C0.666667 15.5 0.497396 15.4219 0.367188 15.2656C0.263021 15.1094 0.223958 14.9271 0.25 14.7188L2.16406 7.21875Z" fill="black" fill-opacity="0.72"/>
</g>
<defs>
<clipPath id="clip0_1731_4488">
<rect width="13" height="30" fill="white"/>
</clipPath>
</defs>
</svg>
