<svg width="12" height="18" viewBox="0 0 12 18" fill="none" xmlns="http://www.w3.org/2000/svg">
<g id="label-paired / caption / shield-check-caption / bold" clip-path="url(#clip0_1731_1597)">
<path id="icon" d="M1.71094 6.47656C1.57031 6.55469 1.5 6.65625 1.5 6.78125C1.5 7.51562 1.625 8.35938 1.875 9.3125C2.125 10.25 2.5625 11.1719 3.1875 12.0781C3.82812 12.9688 4.71875 13.7031 5.85938 14.2812C5.95312 14.3125 6.04688 14.3125 6.14062 14.2812C7.28125 13.7031 8.17188 12.9688 8.8125 12.0781C9.4375 11.1719 9.875 10.25 10.125 9.3125C10.375 8.35938 10.5 7.51562 10.5 6.78125C10.5 6.65625 10.4297 6.55469 10.2891 6.47656L6 4.64844L1.71094 6.47656ZM10.7344 5.44531C11 5.55469 11.2109 5.72656 11.3672 5.96094C11.5391 6.19531 11.625 6.46875 11.625 6.78125C11.6406 7.57812 11.5078 8.51562 11.2266 9.59375C10.9453 10.6719 10.4375 11.7188 9.70312 12.7344C8.98438 13.7656 7.95312 14.6172 6.60938 15.2891C6.20312 15.4766 5.79688 15.4766 5.39062 15.2891C4.04688 14.6172 3.01562 13.7656 2.29688 12.7344C1.5625 11.7188 1.05469 10.6719 0.773438 9.59375C0.492188 8.51562 0.359375 7.57812 0.375 6.78125C0.375 6.46875 0.460938 6.19531 0.632812 5.96094C0.789062 5.72656 1 5.55469 1.26562 5.44531L5.69531 3.57031C5.78906 3.52344 5.89062 3.5 6 3.5C6.10938 3.5 6.21094 3.52344 6.30469 3.57031L10.7344 5.44531ZM7.3125 8.375C7.28125 8.92188 7.03125 9.32031 6.5625 9.57031V11.1875C6.53125 11.5312 6.34375 11.7188 6 11.75C5.65625 11.7188 5.46875 11.5312 5.4375 11.1875V9.57031C4.96875 9.32031 4.71875 8.92188 4.6875 8.375C4.70312 8 4.82812 7.6875 5.0625 7.4375C5.3125 7.20312 5.625 7.07812 6 7.0625C6.375 7.07812 6.6875 7.20312 6.9375 7.4375C7.17188 7.6875 7.29688 8 7.3125 8.375Z" fill="black" fill-opacity="0.72"/>
</g>
<defs>
<clipPath id="clip0_1731_1597">
<rect width="12" height="18" fill="white"/>
</clipPath>
</defs>
</svg>
