<svg width="11" height="18" viewBox="0 0 11 18" fill="none" xmlns="http://www.w3.org/2000/svg">
<g id="label-paired / caption / compress-caption / regular" clip-path="url(#clip0_1731_584)">
<path id="icon" d="M4 4.625V7.625C3.98438 7.85938 3.85938 7.98438 3.625 8H0.625C0.390625 7.98438 0.265625 7.85938 0.25 7.625C0.265625 7.39062 0.390625 7.26562 0.625 7.25H3.25V4.625C3.26562 4.39062 3.39062 4.26562 3.625 4.25C3.85938 4.26562 3.98438 4.39062 4 4.625ZM0.625 11H3.625C3.85938 11.0156 3.98438 11.1406 4 11.375V14.375C3.98438 14.6094 3.85938 14.7344 3.625 14.75C3.39062 14.7344 3.26562 14.6094 3.25 14.375V11.75H0.625C0.390625 11.7344 0.265625 11.6094 0.25 11.375C0.265625 11.1406 0.390625 11.0156 0.625 11ZM7.75 4.625V7.25H10.375C10.6094 7.26562 10.7344 7.39062 10.75 7.625C10.7344 7.85938 10.6094 7.98438 10.375 8H7.375C7.14062 7.98438 7.01562 7.85938 7 7.625V4.625C7.01562 4.39062 7.14062 4.26562 7.375 4.25C7.60938 4.26562 7.73438 4.39062 7.75 4.625ZM7.375 11H10.375C10.6094 11.0156 10.7344 11.1406 10.75 11.375C10.7344 11.6094 10.6094 11.7344 10.375 11.75H7.75V14.375C7.73438 14.6094 7.60938 14.7344 7.375 14.75C7.14062 14.7344 7.01562 14.6094 7 14.375V11.375C7.01562 11.1406 7.14062 11.0156 7.375 11Z" fill="black" fill-opacity="0.72"/>
</g>
<defs>
<clipPath id="clip0_1731_584">
<rect width="11" height="18" fill="white"/>
</clipPath>
</defs>
</svg>
