<svg width="11" height="18" viewBox="0 0 11 18" fill="none" xmlns="http://www.w3.org/2000/svg">
<g id="label-paired / caption / image-polaroid-user-caption / bold" clip-path="url(#clip0_1731_1781)">
<path id="icon" d="M1.375 13.25C1.39062 13.4844 1.51562 13.6094 1.75 13.625H9.25C9.48438 13.6094 9.60938 13.4844 9.625 13.25V12.125H1.375V13.25ZM8.07812 11H9.625V5.75C9.60938 5.51562 9.48438 5.39062 9.25 5.375H1.75C1.51562 5.39062 1.39062 5.51562 1.375 5.75V11H2.92188C3.01562 10.6719 3.1875 10.4062 3.4375 10.2031C3.70312 9.98438 4.01562 9.875 4.375 9.875H6.625C6.98438 9.875 7.29688 9.98438 7.5625 10.2031C7.8125 10.4062 7.98438 10.6719 8.07812 11ZM10.75 5.75V11V11.5625V12.125V13.25C10.7344 13.6719 10.5859 14.0234 10.3047 14.3047C10.0234 14.5859 9.67188 14.7344 9.25 14.75H1.75C1.32812 14.7344 0.976562 14.5859 0.695312 14.3047C0.414062 14.0234 0.265625 13.6719 0.25 13.25V12.125V11.5625V11V5.75C0.265625 5.32812 0.414062 4.97656 0.695312 4.69531C0.976562 4.41406 1.32812 4.26562 1.75 4.25H9.25C9.67188 4.26562 10.0234 4.41406 10.3047 4.69531C10.5859 4.97656 10.7344 5.32812 10.75 5.75ZM4 7.625C4.01562 7.0625 4.26562 6.63281 4.75 6.33594C5.25 6.05469 5.75 6.05469 6.25 6.33594C6.73438 6.63281 6.98438 7.0625 7 7.625C6.98438 8.1875 6.73438 8.61719 6.25 8.91406C5.75 9.19531 5.25 9.19531 4.75 8.91406C4.26562 8.61719 4.01562 8.1875 4 7.625Z" fill="black" fill-opacity="0.72"/>
</g>
<defs>
<clipPath id="clip0_1731_1781">
<rect width="11" height="18" fill="white"/>
</clipPath>
</defs>
</svg>
