<svg width="18" height="30" viewBox="0 0 18 30" fill="none" xmlns="http://www.w3.org/2000/svg">
<g id="label-paired / lg / arrow-right-lg / bold" clip-path="url(#clip0_1731_4309)">
<path id="icon" d="M17.4766 16.1641L10.6016 22.7266C10.1328 23.0911 9.6901 23.0911 9.27344 22.7266C8.90885 22.2578 8.90885 21.8151 9.27344 21.3984L14.4688 16.4375H1.1875C0.614583 16.3854 0.302083 16.0729 0.25 15.5C0.302083 14.9271 0.614583 14.6146 1.1875 14.5625H14.4688L9.3125 9.60156C8.92188 9.1849 8.90885 8.74219 9.27344 8.27344C9.6901 7.90885 10.1328 7.90885 10.6016 8.27344L17.4766 14.8359C17.6589 15.0182 17.75 15.2396 17.75 15.5C17.75 15.7604 17.6589 15.9818 17.4766 16.1641Z" fill="black" fill-opacity="0.72"/>
</g>
<defs>
<clipPath id="clip0_1731_4309">
<rect width="18" height="30" fill="white"/>
</clipPath>
</defs>
</svg>
