<svg width="20" height="30" viewBox="0 0 20 30" fill="none" xmlns="http://www.w3.org/2000/svg">
<g id="label-paired / lg / circle-bookmark-lg / regular" clip-path="url(#clip0_1731_5344)">
<path id="icon" d="M10 6.75C8.41146 6.77604 6.95312 7.16667 5.625 7.92188C4.29688 8.70312 3.22917 9.77083 2.42188 11.125C1.64062 12.5052 1.25 13.9635 1.25 15.5C1.25 17.0365 1.64062 18.4948 2.42188 19.875C3.22917 21.2292 4.29688 22.2969 5.625 23.0781C6.95312 23.8333 8.41146 24.224 10 24.25C11.5885 24.224 13.0469 23.8333 14.375 23.0781C15.7031 22.2969 16.7708 21.2292 17.5781 19.875C18.3594 18.4948 18.75 17.0365 18.75 15.5C18.75 13.9635 18.3594 12.5052 17.5781 11.125C16.7708 9.77083 15.7031 8.70312 14.375 7.92188C13.0469 7.16667 11.5885 6.77604 10 6.75ZM10 25.5C8.17708 25.474 6.51042 25.0312 5 24.1719C3.48958 23.2865 2.26562 22.0625 1.32812 20.5C0.442708 18.9115 0 17.2448 0 15.5C0 13.7552 0.442708 12.0885 1.32812 10.5C2.26562 8.9375 3.48958 7.71354 5 6.82812C6.51042 5.96875 8.17708 5.52604 10 5.5C11.8229 5.52604 13.4896 5.96875 15 6.82812C16.5104 7.71354 17.7344 8.9375 18.6719 10.5C19.5573 12.0885 20 13.7552 20 15.5C20 17.2448 19.5573 18.9115 18.6719 20.5C17.7344 22.0625 16.5104 23.2865 15 24.1719C13.4896 25.0312 11.8229 25.474 10 25.5ZM7.5 12.375V18.5859L9.60938 16.9062C9.86979 16.6979 10.1302 16.6979 10.3906 16.9062L12.5 18.5859V12.375C12.474 11.9844 12.2656 11.776 11.875 11.75H8.125C7.73438 11.776 7.52604 11.9844 7.5 12.375ZM8.125 10.5H11.875C12.3958 10.526 12.8385 10.7083 13.2031 11.0469C13.5417 11.4115 13.724 11.8542 13.75 12.375V19.875C13.75 20.1354 13.6328 20.3177 13.3984 20.4219C13.1641 20.526 12.9427 20.513 12.7344 20.3828L10 18.1953L7.26562 20.3828C7.05729 20.513 6.83594 20.526 6.60156 20.4219C6.36719 20.3177 6.25 20.1354 6.25 19.875V12.375C6.27604 11.8542 6.45833 11.4115 6.79688 11.0469C7.16146 10.7083 7.60417 10.526 8.125 10.5Z" fill="black" fill-opacity="0.72"/>
</g>
<defs>
<clipPath id="clip0_1731_5344">
<rect width="20" height="30" fill="white"/>
</clipPath>
</defs>
</svg>
