<svg width="13" height="30" viewBox="0 0 13 30" fill="none" xmlns="http://www.w3.org/2000/svg">
<g id="label-paired / lg / pause-lg / bold" clip-path="url(#clip0_1731_5004)">
<path id="icon" d="M2.125 9.875V21.125H4V9.875H2.125ZM0.25 9.875C0.276042 9.35417 0.458333 8.91146 0.796875 8.54688C1.16146 8.20833 1.60417 8.02604 2.125 8H4C4.52083 8.02604 4.96354 8.20833 5.32812 8.54688C5.66667 8.91146 5.84896 9.35417 5.875 9.875V21.125C5.84896 21.6458 5.66667 22.0885 5.32812 22.4531C4.96354 22.7917 4.52083 22.974 4 23H2.125C1.60417 22.974 1.16146 22.7917 0.796875 22.4531C0.458333 22.0885 0.276042 21.6458 0.25 21.125V9.875ZM9 9.875V21.125H10.875V9.875H9ZM7.125 9.875C7.15104 9.35417 7.33333 8.91146 7.67188 8.54688C8.03646 8.20833 8.47917 8.02604 9 8H10.875C11.3958 8.02604 11.8385 8.20833 12.2031 8.54688C12.5417 8.91146 12.724 9.35417 12.75 9.875V21.125C12.724 21.6458 12.5417 22.0885 12.2031 22.4531C11.8385 22.7917 11.3958 22.974 10.875 23H9C8.47917 22.974 8.03646 22.7917 7.67188 22.4531C7.33333 22.0885 7.15104 21.6458 7.125 21.125V9.875Z" fill="black" fill-opacity="0.72"/>
</g>
<defs>
<clipPath id="clip0_1731_5004">
<rect width="13" height="30" fill="white"/>
</clipPath>
</defs>
</svg>
