<svg width="23" height="30" viewBox="0 0 23 30" fill="none" xmlns="http://www.w3.org/2000/svg">
<g id="label-paired / lg / video-lg / regular" clip-path="url(#clip0_1731_5037)">
<path id="icon" d="M2.75 9.25C2.38542 9.25 2.08594 9.36719 1.85156 9.60156C1.61719 9.83594 1.5 10.1354 1.5 10.5V20.5C1.5 20.8646 1.61719 21.1641 1.85156 21.3984C2.08594 21.6328 2.38542 21.75 2.75 21.75H12.75C13.1146 21.75 13.4141 21.6328 13.6484 21.3984C13.8828 21.1641 14 20.8646 14 20.5V10.5C14 10.1354 13.8828 9.83594 13.6484 9.60156C13.4141 9.36719 13.1146 9.25 12.75 9.25H2.75ZM0.25 10.5C0.276042 9.79688 0.523438 9.21094 0.992188 8.74219C1.46094 8.27344 2.04688 8.02604 2.75 8H12.75C13.4531 8.02604 14.0391 8.27344 14.5078 8.74219C14.9766 9.21094 15.224 9.79688 15.25 10.5V12.3359V18.6641V20.5C15.224 21.2031 14.9766 21.7891 14.5078 22.2578C14.0391 22.7266 13.4531 22.974 12.75 23H2.75C2.04688 22.974 1.46094 22.7266 0.992188 22.2578C0.523438 21.7891 0.276042 21.2031 0.25 20.5V10.5ZM20.5234 21.5547L16.5 19.3281V17.9219L21.1484 20.4609C21.1745 20.487 21.2135 20.5 21.2656 20.5C21.3958 20.5 21.474 20.4219 21.5 20.2656V10.7344C21.474 10.6042 21.3958 10.526 21.2656 10.5C21.2135 10.5 21.1745 10.513 21.1484 10.5391L16.5 13.0781V11.6719L20.5234 9.44531C20.7578 9.3151 21.0052 9.25 21.2656 9.25C21.6823 9.25 22.0339 9.39323 22.3203 9.67969C22.6068 9.96615 22.75 10.3177 22.75 10.7344V20.2656C22.75 20.6823 22.6068 21.0339 22.3203 21.3203C22.0339 21.6068 21.6823 21.75 21.2656 21.75C21.0052 21.75 20.7578 21.6849 20.5234 21.5547Z" fill="black" fill-opacity="0.72"/>
</g>
<defs>
<clipPath id="clip0_1731_5037">
<rect width="23" height="30" fill="white"/>
</clipPath>
</defs>
</svg>
