<svg width="23" height="30" viewBox="0 0 23 30" fill="none" xmlns="http://www.w3.org/2000/svg">
<g id="label-paired / lg / android-lg" clip-path="url(#clip0_1731_14046)">
<path id="icon" d="M16.6953 17.2969C17.2422 17.2448 17.5547 16.9323 17.6328 16.3594C17.5547 15.7865 17.2422 15.474 16.6953 15.4219C16.1224 15.474 15.8099 15.7865 15.7578 16.3594C15.8099 16.9323 16.1224 17.2448 16.6953 17.2969ZM6.30469 17.2969C6.8776 17.2448 7.1901 16.9323 7.24219 16.3594C7.1901 15.7865 6.8776 15.474 6.30469 15.4219C5.75781 15.474 5.44531 15.7865 5.36719 16.3594C5.44531 16.9323 5.75781 17.2448 6.30469 17.2969ZM17.0078 11.6328C18.6484 12.5443 19.9635 13.7682 20.9531 15.3047C21.9688 16.8151 22.5677 18.5469 22.75 20.5H0.25C0.432292 18.5469 1.03125 16.8151 2.04688 15.3047C3.03646 13.7682 4.35156 12.5443 5.99219 11.6328L4.11719 8.39062C4.03906 8.26042 4.02604 8.13021 4.07812 8C4.15625 7.86979 4.27344 7.80469 4.42969 7.80469C4.58594 7.80469 4.70312 7.86979 4.78125 8L6.69531 11.3203C8.23177 10.6172 9.83333 10.2656 11.5 10.2656C13.1667 10.2656 14.7682 10.6172 16.3047 11.3203L18.2188 8C18.2969 7.86979 18.4141 7.80469 18.5703 7.80469C18.7266 7.80469 18.8438 7.86979 18.9219 8C18.974 8.13021 18.9609 8.26042 18.8828 8.39062L17.0078 11.6328Z" fill="black" fill-opacity="0.72"/>
</g>
<defs>
<clipPath id="clip0_1731_14046">
<rect width="23" height="30" fill="white"/>
</clipPath>
</defs>
</svg>
