<svg width="25" height="30" viewBox="0 0 25 30" fill="none" xmlns="http://www.w3.org/2000/svg">
<g id="label-paired / lg / chart-trend-down-lg / regular" clip-path="url(#clip0_1885_575)">
<path id="icon" d="M24.0234 24.8359C23.7109 24.9922 23.3203 24.875 23.1641 24.5625L19.6094 17.375H13.75C13.4766 17.375 13.2812 17.2578 13.1641 17.0625L8.4375 7.60938L1.52344 11.0859C1.21094 11.2422 0.820312 11.0859 0.664062 10.8125C0.507812 10.5 0.625 10.1094 0.9375 9.95312L8.4375 6.20312C8.75 6.04688 9.14062 6.16406 9.29688 6.47656L14.1016 16.125H20C20.2344 16.125 20.4297 16.2812 20.5469 16.4766L24.2969 23.9766C24.4531 24.2891 24.3359 24.6797 24.0234 24.8359Z" fill="black" fill-opacity="0.72"/>
</g>
<defs>
<clipPath id="clip0_1885_575">
<rect width="25" height="30" fill="white"/>
</clipPath>
</defs>
</svg>
