<svg width="23" height="30" viewBox="0 0 23 30" fill="none" xmlns="http://www.w3.org/2000/svg">
<g id="label-paired / lg / money-bill-lg / bold" clip-path="url(#clip0_1731_5202)">
<path id="icon" d="M4.625 9.875C4.59896 10.5781 4.35156 11.1641 3.88281 11.6328C3.41406 12.1016 2.82812 12.349 2.125 12.375V18.625C2.82812 18.651 3.41406 18.8984 3.88281 19.3672C4.35156 19.8359 4.59896 20.4219 4.625 21.125H18.375C18.401 20.4219 18.6484 19.8359 19.1172 19.3672C19.5859 18.8984 20.1719 18.651 20.875 18.625V12.375C20.1719 12.349 19.5859 12.1016 19.1172 11.6328C18.6484 11.1641 18.401 10.5781 18.375 9.875H4.625ZM0.25 10.5C0.276042 9.79688 0.523438 9.21094 0.992188 8.74219C1.46094 8.27344 2.04688 8.02604 2.75 8H20.25C20.9531 8.02604 21.5391 8.27344 22.0078 8.74219C22.4766 9.21094 22.724 9.79688 22.75 10.5V20.5C22.724 21.2031 22.4766 21.7891 22.0078 22.2578C21.5391 22.7266 20.9531 22.974 20.25 23H2.75C2.04688 22.974 1.46094 22.7266 0.992188 22.2578C0.523438 21.7891 0.276042 21.2031 0.25 20.5V10.5ZM11.5 11.75C12.1771 11.75 12.8021 11.9193 13.375 12.2578C13.9479 12.5964 14.4036 13.0521 14.7422 13.625C15.0807 14.224 15.25 14.849 15.25 15.5C15.25 16.151 15.0807 16.776 14.7422 17.375C14.4036 17.9479 13.9479 18.4036 13.375 18.7422C12.8021 19.0807 12.1771 19.25 11.5 19.25C10.8229 19.25 10.1979 19.0807 9.625 18.7422C9.05208 18.4036 8.59635 17.9479 8.25781 17.375C7.91927 16.776 7.75 16.151 7.75 15.5C7.75 14.849 7.91927 14.224 8.25781 13.625C8.59635 13.0521 9.05208 12.5964 9.625 12.2578C10.1979 11.9193 10.8229 11.75 11.5 11.75Z" fill="black" fill-opacity="0.72"/>
</g>
<defs>
<clipPath id="clip0_1731_5202">
<rect width="23" height="30" fill="white"/>
</clipPath>
</defs>
</svg>
