<svg width="25" height="30" viewBox="0 0 25 30" fill="none" xmlns="http://www.w3.org/2000/svg">
<g id="label-paired / lg / chart-trend-down-lg / bold" clip-path="url(#clip0_1885_577)">
<path id="icon" d="M24.1406 25.1094C23.6719 25.3438 23.125 25.1484 22.8906 24.6797L19.4141 17.6875H13.75C13.3594 17.6875 13.0469 17.4922 12.8906 17.1797L8.32031 8.03906L1.64062 11.3594C1.17188 11.5938 0.625 11.3984 0.390625 10.9297C0.15625 10.4609 0.351562 9.91406 0.820312 9.67969L8.32031 5.92969C8.78906 5.69531 9.33594 5.89062 9.57031 6.35938L14.2969 15.8125H19.9609C20.3516 15.8125 20.6641 16.0469 20.8203 16.3594L24.5703 23.8594C24.8047 24.3281 24.6094 24.875 24.1406 25.1094Z" fill="black" fill-opacity="0.72"/>
</g>
<defs>
<clipPath id="clip0_1885_577">
<rect width="25" height="30" fill="white"/>
</clipPath>
</defs>
</svg>
