<svg width="15" height="18" viewBox="0 0 15 18" fill="none" xmlns="http://www.w3.org/2000/svg">
<g id="label-paired / caption / wifi-caption / regular" clip-path="url(#clip0_1731_1348)">
<path id="icon" d="M0.632812 7.8125C0.460938 7.96875 0.289062 7.96875 0.117188 7.8125C-0.0390625 7.64062 -0.0390625 7.46875 0.117188 7.29688C1.07031 6.34375 2.17969 5.60156 3.44531 5.07031C4.69531 4.53906 6.04688 4.26562 7.5 4.25C8.95312 4.26562 10.3047 4.53906 11.5547 5.07031C12.8203 5.60156 13.9297 6.34375 14.8828 7.29688C15.0391 7.46875 15.0391 7.64062 14.8828 7.8125C14.7109 7.96875 14.5391 7.96875 14.3672 7.8125C13.4766 6.9375 12.4453 6.25 11.2734 5.75C10.1016 5.26562 8.84375 5.01562 7.5 5C6.15625 5.01562 4.89844 5.26562 3.72656 5.75C2.55469 6.25 1.52344 6.9375 0.632812 7.8125ZM7.5 8.75C6.67188 8.75 5.89844 8.90625 5.17969 9.21875C4.44531 9.53125 3.80469 9.96094 3.25781 10.5078C3.08594 10.6484 2.91406 10.6484 2.74219 10.5078C2.58594 10.3203 2.58594 10.1406 2.74219 9.96875C3.35156 9.35938 4.0625 8.88281 4.875 8.53906C5.6875 8.17969 6.5625 8 7.5 8C8.4375 8 9.3125 8.17969 10.125 8.53906C10.9375 8.88281 11.6484 9.35938 12.2578 9.96875C12.4141 10.1406 12.4141 10.3203 12.2578 10.5078C12.0859 10.6484 11.9141 10.6484 11.7422 10.5078C11.1953 9.96094 10.5547 9.53125 9.82031 9.21875C9.10156 8.90625 8.32812 8.75 7.5 8.75ZM7.5 12.5C7.28125 12.5 7.10156 12.5703 6.96094 12.7109C6.82031 12.8516 6.75 13.0312 6.75 13.25C6.75 13.4688 6.82031 13.6484 6.96094 13.7891C7.10156 13.9297 7.28125 14 7.5 14C7.71875 14 7.89844 13.9297 8.03906 13.7891C8.17969 13.6484 8.25 13.4688 8.25 13.25C8.25 13.0312 8.17969 12.8516 8.03906 12.7109C7.89844 12.5703 7.71875 12.5 7.5 12.5ZM7.5 14.75C6.9375 14.7344 6.50781 14.4844 6.21094 14C5.92969 13.5 5.92969 13 6.21094 12.5C6.50781 12.0156 6.9375 11.7656 7.5 11.75C8.0625 11.7656 8.49219 12.0156 8.78906 12.5C9.07031 13 9.07031 13.5 8.78906 14C8.49219 14.4844 8.0625 14.7344 7.5 14.75Z" fill="black" fill-opacity="0.72"/>
</g>
<defs>
<clipPath id="clip0_1731_1348">
<rect width="15" height="18" fill="white"/>
</clipPath>
</defs>
</svg>
