<svg width="21" height="36" viewBox="0 0 21 36" fill="none" xmlns="http://www.w3.org/2000/svg">
<g id="label-paired / xl / square-minus-xl / fill" clip-path="url(#clip0_1731_5829)">
<path id="icon" d="M3 7.5H18C18.8438 7.53125 19.5469 7.82812 20.1094 8.39062C20.6719 8.95312 20.9688 9.65625 21 10.5V25.5C20.9688 26.3438 20.6719 27.0469 20.1094 27.6094C19.5469 28.1719 18.8438 28.4688 18 28.5H3C2.15625 28.4688 1.45312 28.1719 0.890625 27.6094C0.328125 27.0469 0.03125 26.3438 0 25.5V10.5C0.03125 9.65625 0.328125 8.95312 0.890625 8.39062C1.45312 7.82812 2.15625 7.53125 3 7.5ZM7.125 16.875C6.4375 16.9375 6.0625 17.3125 6 18C6.0625 18.6875 6.4375 19.0625 7.125 19.125H13.875C14.5625 19.0625 14.9375 18.6875 15 18C14.9375 17.3125 14.5625 16.9375 13.875 16.875H7.125Z" fill="black" fill-opacity="0.72"/>
</g>
<defs>
<clipPath id="clip0_1731_5829">
<rect width="21" height="36" fill="white"/>
</clipPath>
</defs>
</svg>
