<svg width="18" height="30" viewBox="0 0 18 30" fill="none" xmlns="http://www.w3.org/2000/svg">
<g id="label-paired / lg / arrow-left-to-line-lg / regular" clip-path="url(#clip0_1731_4397)">
<path id="icon" d="M0.25 22.375V8.625C0.276042 8.23438 0.484375 8.02604 0.875 8C1.26562 8.02604 1.47396 8.23438 1.5 8.625V22.375C1.47396 22.7656 1.26562 22.974 0.875 23C0.484375 22.974 0.276042 22.7656 0.25 22.375ZM4.19531 15.0703L9.19531 10.0703C9.48177 9.8099 9.76823 9.8099 10.0547 10.0703C10.3151 10.3568 10.3151 10.6432 10.0547 10.9297L6.14844 14.875H10.25H17.125C17.5156 14.901 17.724 15.1094 17.75 15.5C17.724 15.8906 17.5156 16.099 17.125 16.125H10.25H6.14844L10.0547 20.0703C10.3151 20.3568 10.3151 20.6432 10.0547 20.9297C9.76823 21.1901 9.48177 21.1901 9.19531 20.9297L4.19531 15.9297C3.9349 15.6432 3.9349 15.3568 4.19531 15.0703Z" fill="black" fill-opacity="0.72"/>
</g>
<defs>
<clipPath id="clip0_1731_4397">
<rect width="18" height="30" fill="white"/>
</clipPath>
</defs>
</svg>
