<svg width="20" height="30" viewBox="0 0 20 30" fill="none" xmlns="http://www.w3.org/2000/svg">
<g id="label-paired / lg / at-lg / regular" clip-path="url(#clip0_1731_4826)">
<path id="icon" d="M10 6.75C8.35938 6.77604 6.88802 7.17969 5.58594 7.96094C4.25781 8.71615 3.21615 9.75781 2.46094 11.0859C1.67969 12.388 1.27604 13.8594 1.25 15.5C1.27604 17.1406 1.67969 18.612 2.46094 19.9141C3.21615 21.2422 4.25781 22.2839 5.58594 23.0391C6.88802 23.8203 8.35938 24.224 10 24.25C10.3906 24.276 10.599 24.4844 10.625 24.875C10.599 25.2656 10.3906 25.474 10 25.5C8.125 25.474 6.44531 25.0182 4.96094 24.1328C3.45052 23.2474 2.2526 22.0495 1.36719 20.5391C0.481771 19.0547 0.0260417 17.375 0 15.5C0.0260417 13.625 0.481771 11.9453 1.36719 10.4609C2.2526 8.95052 3.45052 7.7526 4.96094 6.86719C6.44531 5.98177 8.125 5.52604 10 5.5C11.875 5.52604 13.5547 5.98177 15.0391 6.86719C16.5495 7.7526 17.7474 8.95052 18.6328 10.4609C19.5182 11.9453 19.974 13.625 20 15.5V16.4375C19.974 17.401 19.6354 18.2083 18.9844 18.8594C18.3333 19.5104 17.526 19.849 16.5625 19.875C15.9115 19.875 15.3125 19.7057 14.7656 19.3672C14.2448 19.0547 13.8411 18.625 13.5547 18.0781C12.6953 19.224 11.5104 19.8229 10 19.875C8.75 19.849 7.72135 19.4193 6.91406 18.5859C6.08073 17.7786 5.65104 16.75 5.625 15.5C5.65104 14.25 6.08073 13.2214 6.91406 12.4141C7.72135 11.5807 8.75 11.151 10 11.125C11.25 11.151 12.2917 11.5938 13.125 12.4531V12.375C13.151 11.9844 13.3594 11.776 13.75 11.75C14.1406 11.776 14.349 11.9844 14.375 12.375V15.5V16.4375C14.401 17.0625 14.6094 17.5833 15 18C15.4167 18.3906 15.9375 18.599 16.5625 18.625C17.1875 18.599 17.7083 18.3906 18.125 18C18.5156 17.5833 18.724 17.0625 18.75 16.4375V15.5C18.724 13.8594 18.3203 12.388 17.5391 11.0859C16.7839 9.75781 15.7422 8.71615 14.4141 7.96094C13.112 7.17969 11.6406 6.77604 10 6.75ZM13.125 15.5C13.099 14.3281 12.5781 13.4297 11.5625 12.8047C10.5208 12.2318 9.47917 12.2318 8.4375 12.8047C7.42188 13.4297 6.90104 14.3281 6.875 15.5C6.90104 16.6719 7.42188 17.5703 8.4375 18.1953C9.47917 18.7682 10.5208 18.7682 11.5625 18.1953C12.5781 17.5703 13.099 16.6719 13.125 15.5Z" fill="black" fill-opacity="0.72"/>
</g>
<defs>
<clipPath id="clip0_1731_4826">
<rect width="20" height="30" fill="white"/>
</clipPath>
</defs>
</svg>
