<svg width="18" height="22" viewBox="0 0 18 22" fill="none" xmlns="http://www.w3.org/2000/svg">
<g id="label-paired / sm / horizontal-rule-dashed-sm / bold" clip-path="url(#clip0_1731_2761)">
<path id="icon" d="M0.25 10.75C0.25 10.3945 0.523438 10.0938 0.90625 10.0938H2.65625C3.01172 10.0938 3.3125 10.3945 3.3125 10.75C3.3125 11.1328 3.01172 11.4062 2.65625 11.4062H0.90625C0.523438 11.4062 0.25 11.1328 0.25 10.75ZM5.0625 10.75C5.0625 10.3945 5.33594 10.0938 5.71875 10.0938H7.46875C7.82422 10.0938 8.125 10.3945 8.125 10.75C8.125 11.1328 7.82422 11.4062 7.46875 11.4062H5.71875C5.33594 11.4062 5.0625 11.1328 5.0625 10.75ZM9.875 10.75C9.875 10.3945 10.1484 10.0938 10.5312 10.0938H12.2812C12.6367 10.0938 12.9375 10.3945 12.9375 10.75C12.9375 11.1328 12.6367 11.4062 12.2812 11.4062H10.5312C10.1484 11.4062 9.875 11.1328 9.875 10.75ZM14.6875 10.75C14.6875 10.3945 14.9609 10.0938 15.3438 10.0938H17.0938C17.4492 10.0938 17.75 10.3945 17.75 10.75C17.75 11.1328 17.4492 11.4062 17.0938 11.4062H15.3438C14.9609 11.4062 14.6875 11.1328 14.6875 10.75Z" fill="black" fill-opacity="0.72"/>
</g>
<defs>
<clipPath id="clip0_1731_2761">
<rect width="18" height="22" fill="white"/>
</clipPath>
</defs>
</svg>
