<svg width="30" height="36" viewBox="0 0 30 36" fill="none" xmlns="http://www.w3.org/2000/svg">
<g id="label-paired / xl / chart-trend-up-xl / regular" clip-path="url(#clip0_1885_585)">
<path id="icon" d="M28.8281 6.84375C29.2031 7.03125 29.3438 7.5 29.1562 7.875L24.6562 16.875C24.5156 17.1094 24.2812 17.25 24 17.25H16.9219L11.1562 28.875C10.9688 29.25 10.5 29.3906 10.125 29.2031L1.125 24.7031C0.75 24.5156 0.609375 24.0469 0.796875 23.6719C0.984375 23.2969 1.45312 23.1562 1.82812 23.3438L10.125 27.5156L15.7969 16.1719C15.9375 15.9375 16.1719 15.75 16.5 15.75H23.5312L27.7969 7.17188C27.9844 6.79688 28.4531 6.65625 28.8281 6.84375Z" fill="black" fill-opacity="0.72"/>
</g>
<defs>
<clipPath id="clip0_1885_585">
<rect width="30" height="36" fill="white"/>
</clipPath>
</defs>
</svg>
