<svg width="25" height="30" viewBox="0 0 25 30" fill="none" xmlns="http://www.w3.org/2000/svg">
<g id="label-paired / lg / wifi-lg / bold" clip-path="url(#clip0_1731_4818)">
<path id="icon" d="M1.5625 12.7656C1.09375 13.1042 0.651042 13.0781 0.234375 12.6875C-0.104167 12.2188 -0.078125 11.776 0.3125 11.3594C1.95312 9.90104 3.80208 8.76823 5.85938 7.96094C7.94271 7.15365 10.1562 6.75 12.5 6.75C14.8438 6.75 17.0573 7.15365 19.1406 7.96094C21.1979 8.76823 23.0469 9.90104 24.6875 11.3594C25.0781 11.776 25.1042 12.2188 24.7656 12.6875C24.349 13.0781 23.9062 13.1042 23.4375 12.7656C21.9792 11.4635 20.3125 10.4479 18.4375 9.71875C16.5885 8.98958 14.6094 8.625 12.5 8.625C10.3906 8.625 8.41146 8.98958 6.5625 9.71875C4.6875 10.4479 3.02083 11.4635 1.5625 12.7656ZM12.5 15.5C9.92188 15.5521 7.73438 16.3984 5.9375 18.0391C5.49479 18.4036 5.05208 18.3906 4.60938 18C4.27083 17.5312 4.29688 17.0885 4.6875 16.6719C5.72917 15.7083 6.91406 14.9661 8.24219 14.4453C9.57031 13.8984 10.9896 13.625 12.5 13.625C14.0104 13.625 15.4297 13.8984 16.7578 14.4453C18.0859 14.9661 19.2708 15.7083 20.3125 16.6719C20.7031 17.0885 20.7292 17.5312 20.3906 18C19.9479 18.3906 19.5052 18.4036 19.0625 18.0391C17.2656 16.3984 15.0781 15.5521 12.5 15.5ZM14.6875 22.0625C14.6615 22.8958 14.2969 23.5208 13.5938 23.9375C12.8646 24.3542 12.1354 24.3542 11.4062 23.9375C10.7031 23.5208 10.3385 22.8958 10.3125 22.0625C10.3385 21.2292 10.7031 20.6042 11.4062 20.1875C12.1354 19.7708 12.8646 19.7708 13.5938 20.1875C14.2969 20.6042 14.6615 21.2292 14.6875 22.0625Z" fill="black" fill-opacity="0.72"/>
</g>
<defs>
<clipPath id="clip0_1731_4818">
<rect width="25" height="30" fill="white"/>
</clipPath>
</defs>
</svg>
