<svg width="25" height="30" viewBox="0 0 25 30" fill="none" xmlns="http://www.w3.org/2000/svg">
<g id="label-paired / lg / stop-loss-lg / bold" clip-path="url(#clip0_1731_5501)">
<path id="icon" d="M8.35938 20.9297C7.42188 20.9297 6.64062 20.7734 6.01562 20.4609C5.35156 20.1484 4.84375 19.7188 4.375 19.25L5.85938 17.7266C6.60156 18.5078 7.46094 18.9375 8.51562 18.9375C9.0625 18.9375 9.49219 18.8203 9.72656 18.5859C10 18.3516 10.1562 18.0391 10.1562 17.6484C10.1562 17.375 10.0781 17.1406 9.92188 16.9453C9.76562 16.75 9.41406 16.5938 8.94531 16.5547L7.89062 16.3984C6.79688 16.2422 5.97656 15.9297 5.46875 15.3828C4.96094 14.875 4.6875 14.1719 4.6875 13.2734C4.6875 12.8047 4.76562 12.375 4.96094 11.9844C5.15625 11.5938 5.39062 11.2812 5.74219 11.0078C6.05469 10.6953 6.48438 10.5 6.95312 10.3438C7.46094 10.1875 8.00781 10.1094 8.63281 10.1094C9.41406 10.1094 10.1172 10.2266 10.7031 10.5C11.2891 10.7344 11.8359 11.0859 12.2656 11.5938L10.7422 13.1172C10.4688 12.8047 10.1953 12.5703 9.80469 12.4141C9.45312 12.2188 9.02344 12.1016 8.47656 12.1016C7.96875 12.1016 7.57812 12.2188 7.34375 12.375C7.10938 12.5703 6.95312 12.8047 6.95312 13.1562C6.95312 13.5078 7.07031 13.7422 7.26562 13.9375C7.46094 14.0938 7.77344 14.2109 8.20312 14.25L9.25781 14.4453C10.3125 14.6016 11.1328 14.9141 11.6406 15.4219C12.1875 15.9297 12.4219 16.6328 12.4219 17.5312C12.4219 18.0391 12.3438 18.5078 12.1484 18.8984C11.9922 19.3281 11.7188 19.6797 11.3672 19.9922C11.0156 20.3047 10.5859 20.5391 10.0781 20.6953C9.57031 20.8516 8.98438 20.9297 8.35938 20.9297ZM14.3359 20.7344V10.2656H16.6016V18.7422H20.5859V20.7344H14.3359Z" fill="black" fill-opacity="0.72"/>
</g>
<defs>
<clipPath id="clip0_1731_5501">
<rect width="25" height="30" fill="white"/>
</clipPath>
</defs>
</svg>
