<svg width="16" height="22" viewBox="0 0 16 22" fill="none" xmlns="http://www.w3.org/2000/svg">
<g id="label-paired / sm / star-sm / fill" clip-path="url(#clip0_1731_2076)">
<path id="icon" d="M8.79297 4.24219L10.543 7.85156L14.4805 8.45312C14.8268 8.50781 15.0638 8.69922 15.1914 9.02734C15.2826 9.3737 15.2096 9.67448 14.9727 9.92969L12.1289 12.7461L12.7852 16.7383C12.8398 17.0846 12.7214 17.3672 12.4297 17.5859C12.138 17.7865 11.8372 17.8047 11.5273 17.6406L8 15.7812L4.5 17.6406C4.17188 17.8047 3.86198 17.7865 3.57031 17.5859C3.29688 17.3672 3.17839 17.0846 3.21484 16.7383L3.89844 12.7461L1.05469 9.92969C0.799479 9.67448 0.726562 9.3737 0.835938 9.02734C0.945312 8.69922 1.17318 8.50781 1.51953 8.45312L5.45703 7.85156L7.20703 4.24219C7.38932 3.93229 7.65365 3.76823 8 3.75C8.36458 3.76823 8.62891 3.93229 8.79297 4.24219Z" fill="black" fill-opacity="0.72"/>
</g>
<defs>
<clipPath id="clip0_1731_2076">
<rect width="16" height="22" fill="white"/>
</clipPath>
</defs>
</svg>
