<svg width="20" height="24" viewBox="0 0 20 24" fill="none" xmlns="http://www.w3.org/2000/svg">
<g id="label-paired / md / signal-md / regular" clip-path="url(#clip0_1731_3869)">
<path id="icon" d="M18.5 4.5V19.5C18.4792 19.8125 18.3125 19.9792 18 20C17.6875 19.9792 17.5208 19.8125 17.5 19.5V4.5C17.5208 4.1875 17.6875 4.02083 18 4C18.3125 4.02083 18.4792 4.1875 18.5 4.5ZM14 7C14.3125 7.02083 14.4792 7.1875 14.5 7.5V19.5C14.4792 19.8125 14.3125 19.9792 14 20C13.6875 19.9792 13.5208 19.8125 13.5 19.5V7.5C13.5208 7.1875 13.6875 7.02083 14 7ZM10.5 10.5V19.5C10.4792 19.8125 10.3125 19.9792 10 20C9.6875 19.9792 9.52083 19.8125 9.5 19.5V10.5C9.52083 10.1875 9.6875 10.0208 10 10C10.3125 10.0208 10.4792 10.1875 10.5 10.5ZM6 13C6.3125 13.0208 6.47917 13.1875 6.5 13.5V19.5C6.47917 19.8125 6.3125 19.9792 6 20C5.6875 19.9792 5.52083 19.8125 5.5 19.5V13.5C5.52083 13.1875 5.6875 13.0208 6 13ZM2 16C2.3125 16.0208 2.47917 16.1875 2.5 16.5V19.5C2.47917 19.8125 2.3125 19.9792 2 20C1.6875 19.9792 1.52083 19.8125 1.5 19.5V16.5C1.52083 16.1875 1.6875 16.0208 2 16Z" fill="black" fill-opacity="0.72"/>
</g>
<defs>
<clipPath id="clip0_1731_3869">
<rect width="20" height="24" fill="white"/>
</clipPath>
</defs>
</svg>
