<svg width="30" height="36" viewBox="0 0 30 36" fill="none" xmlns="http://www.w3.org/2000/svg">
<g id="label-paired / xl / computer-xl / regular" clip-path="url(#clip0_1731_6426)">
<path id="icon" d="M18 9H3C2.5625 9 2.20312 9.14062 1.92188 9.42188C1.64062 9.70312 1.5 10.0625 1.5 10.5V21C1.5 21.4375 1.64062 21.7969 1.92188 22.0781C2.20312 22.3594 2.5625 22.5 3 22.5H8.10938H8.625H12.375H12.9375H18C18.4375 22.5 18.7969 22.3594 19.0781 22.0781C19.3594 21.7969 19.5 21.4375 19.5 21V10.5C19.5 10.0625 19.3594 9.70312 19.0781 9.42188C18.7969 9.14062 18.4375 9 18 9ZM3 24C2.15625 23.9688 1.45312 23.6719 0.890625 23.1094C0.328125 22.5469 0.03125 21.8438 0 21V10.5C0.03125 9.65625 0.328125 8.95312 0.890625 8.39062C1.45312 7.82812 2.15625 7.53125 3 7.5H18C18.8438 7.53125 19.5469 7.82812 20.1094 8.39062C20.6719 8.95312 20.9688 9.65625 21 10.5V21C20.9688 21.8438 20.6719 22.5469 20.1094 23.1094C19.5469 23.6719 18.8438 23.9688 18 24H13.4062L14.4375 27H17.25C17.7188 27.0312 17.9688 27.2812 18 27.75C17.9688 28.2188 17.7188 28.4688 17.25 28.5H14.9062H13.875H7.125H6.09375H3.75C3.28125 28.4688 3.03125 28.2188 3 27.75C3.03125 27.2812 3.28125 27.0312 3.75 27H6.60938L7.59375 24H3ZM8.15625 27H12.8438L11.8125 24H9.1875L8.15625 27ZM24.75 9C24.2812 9.03125 24.0312 9.28125 24 9.75V12H28.5V9.75C28.4688 9.28125 28.2188 9.03125 27.75 9H24.75ZM24 13.5V15H28.5V13.5H24ZM24 26.25C24.0312 26.7188 24.2812 26.9688 24.75 27H27.75C28.2188 26.9688 28.4688 26.7188 28.5 26.25V16.5H24V26.25ZM22.5 9.75C22.5312 9.125 22.75 8.59375 23.1562 8.15625C23.5938 7.75 24.125 7.53125 24.75 7.5H27.75C28.375 7.53125 28.9062 7.75 29.3438 8.15625C29.75 8.59375 29.9688 9.125 30 9.75V26.25C29.9688 26.875 29.75 27.4062 29.3438 27.8438C28.9062 28.25 28.375 28.4688 27.75 28.5H24.75C24.125 28.4688 23.5938 28.25 23.1562 27.8438C22.75 27.4062 22.5312 26.875 22.5 26.25V9.75ZM26.25 22.875C25.5625 22.8125 25.1875 22.4375 25.125 21.75C25.1875 21.0625 25.5625 20.6875 26.25 20.625C26.9375 20.6875 27.3125 21.0625 27.375 21.75C27.3125 22.4375 26.9375 22.8125 26.25 22.875Z" fill="black" fill-opacity="0.72"/>
</g>
<defs>
<clipPath id="clip0_1731_6426">
<rect width="30" height="36" fill="white"/>
</clipPath>
</defs>
</svg>
