<svg width="14" height="18" viewBox="0 0 14 18" fill="none" xmlns="http://www.w3.org/2000/svg">
<g id="label-paired / caption / arrow-up-one-nine-caption / regular" clip-path="url(#clip0_1731_1146)">
<path id="icon" d="M10.75 4.625V8H11.5C11.7344 8.01562 11.8594 8.14062 11.875 8.375C11.8594 8.60938 11.7344 8.73438 11.5 8.75H10.375H9.25C9.01562 8.73438 8.89062 8.60938 8.875 8.375C8.89062 8.14062 9.01562 8.01562 9.25 8H10V5.14062L9.36719 5.35156C9.14844 5.39844 8.99219 5.32031 8.89844 5.11719C8.85156 4.89844 8.92969 4.74219 9.13281 4.64844L10.2578 4.27344C10.3828 4.22656 10.4922 4.24219 10.5859 4.32031C10.6953 4.39844 10.75 4.5 10.75 4.625ZM4.25781 4.36719L6.50781 6.61719C6.66406 6.78906 6.66406 6.96094 6.50781 7.13281C6.33594 7.28906 6.16406 7.28906 5.99219 7.13281L4.375 5.53906V14.375C4.35938 14.6094 4.23438 14.7344 4 14.75C3.76562 14.7344 3.64062 14.6094 3.625 14.375V5.53906L2.00781 7.13281C1.83594 7.28906 1.66406 7.28906 1.49219 7.13281C1.33594 6.96094 1.33594 6.78906 1.49219 6.61719L3.74219 4.36719C3.91406 4.21094 4.08594 4.21094 4.25781 4.36719ZM10.2812 12.6875C10.7344 12.6719 11.0859 12.4688 11.3359 12.0781C11.5547 11.6719 11.5547 11.2656 11.3359 10.8594C11.0859 10.4688 10.7344 10.2656 10.2812 10.25C9.82812 10.2656 9.47656 10.4688 9.22656 10.8594C9.00781 11.2656 9.00781 11.6719 9.22656 12.0781C9.47656 12.4688 9.82812 12.6719 10.2812 12.6875ZM8.3125 11.4688C8.32812 10.9062 8.52344 10.4453 8.89844 10.0859C9.25781 9.71094 9.71875 9.51562 10.2812 9.5C10.8438 9.51562 11.3047 9.71094 11.6641 10.0859C12.0391 10.4453 12.2344 10.9062 12.25 11.4688C12.25 11.5 12.25 11.5312 12.25 11.5625C12.25 12.0781 12.0859 12.5312 11.7578 12.9219L10.2812 14.6328C10.125 14.7891 9.95312 14.7969 9.76562 14.6562C9.59375 14.5 9.57812 14.3281 9.71875 14.1406L10.3047 13.4375C10.2891 13.4375 10.2812 13.4375 10.2812 13.4375C9.71875 13.4219 9.25781 13.2266 8.89844 12.8516C8.52344 12.4922 8.32812 12.0312 8.3125 11.4688Z" fill="black" fill-opacity="0.72"/>
</g>
<defs>
<clipPath id="clip0_1731_1146">
<rect width="14" height="18" fill="white"/>
</clipPath>
</defs>
</svg>
