<svg width="20" height="30" viewBox="0 0 20 30" fill="none" xmlns="http://www.w3.org/2000/svg">
<g id="label-paired / lg / circle-sterling-lg / regular" clip-path="url(#clip0_1731_5190)">
<path id="icon" d="M18.75 15.5C18.724 13.9115 18.3333 12.4531 17.5781 11.125C16.7969 9.79688 15.7292 8.72917 14.375 7.92188C12.9948 7.14062 11.5365 6.75 10 6.75C8.46354 6.75 7.00521 7.14062 5.625 7.92188C4.27083 8.72917 3.20312 9.79688 2.42188 11.125C1.66667 12.4531 1.27604 13.9115 1.25 15.5C1.27604 17.0885 1.66667 18.5469 2.42188 19.875C3.20312 21.2031 4.27083 22.2708 5.625 23.0781C7.00521 23.8594 8.46354 24.25 10 24.25C11.5365 24.25 12.9948 23.8594 14.375 23.0781C15.7292 22.2708 16.7969 21.2031 17.5781 19.875C18.3333 18.5469 18.724 17.0885 18.75 15.5ZM0 15.5C0.0260417 13.6771 0.46875 12.0104 1.32812 10.5C2.21354 8.98958 3.4375 7.76562 5 6.82812C6.58854 5.94271 8.25521 5.5 10 5.5C11.7448 5.5 13.4115 5.94271 15 6.82812C16.5625 7.76562 17.7865 8.98958 18.6719 10.5C19.5312 12.0104 19.974 13.6771 20 15.5C19.974 17.3229 19.5312 18.9896 18.6719 20.5C17.7865 22.0104 16.5625 23.2344 15 24.1719C13.4115 25.0573 11.7448 25.5 10 25.5C8.25521 25.5 6.58854 25.0573 5 24.1719C3.4375 23.2344 2.21354 22.0104 1.32812 20.5C0.46875 18.9896 0.0260417 17.3229 0 15.5ZM10.1562 11.125C9.73958 11.125 9.40104 11.2682 9.14062 11.5547C8.88021 11.8151 8.73698 12.1536 8.71094 12.5703L8.75 14.25H10.625C11.0156 14.276 11.224 14.4844 11.25 14.875C11.224 15.2656 11.0156 15.474 10.625 15.5H8.75C8.69792 16.3854 8.46354 17.2188 8.04688 18H12.8125C13.2031 18.026 13.4115 18.2344 13.4375 18.625C13.4115 19.0156 13.2031 19.224 12.8125 19.25H6.875C6.64062 19.25 6.45833 19.1458 6.32812 18.9375C6.22396 18.7031 6.23698 18.4818 6.36719 18.2734L6.71875 17.7656C7.1875 17.0625 7.44792 16.3073 7.5 15.5H6.875C6.48438 15.474 6.27604 15.2656 6.25 14.875C6.27604 14.4844 6.48438 14.276 6.875 14.25H7.5L7.46094 12.5703C7.48698 11.8151 7.7474 11.1771 8.24219 10.6562C8.73698 10.1615 9.375 9.90104 10.1562 9.875C10.5729 9.875 10.9635 9.96615 11.3281 10.1484L12.1484 10.5781C12.487 10.7865 12.5781 11.0599 12.4219 11.3984C12.2396 11.737 11.9661 11.8281 11.6016 11.6719L10.7812 11.2812C10.5729 11.1771 10.3646 11.125 10.1562 11.125Z" fill="black" fill-opacity="0.72"/>
</g>
<defs>
<clipPath id="clip0_1731_5190">
<rect width="20" height="30" fill="white"/>
</clipPath>
</defs>
</svg>
