<svg width="11" height="22" viewBox="0 0 11 22" fill="none" xmlns="http://www.w3.org/2000/svg">
<g id="label-paired / sm / arrow-up-to-line-sm / regular" clip-path="url(#clip0_1731_2167)">
<path id="icon" d="M0.6875 4.625H10.3125C10.5859 4.64323 10.7318 4.78906 10.75 5.0625C10.7318 5.33594 10.5859 5.48177 10.3125 5.5H0.6875C0.414062 5.48177 0.268229 5.33594 0.25 5.0625C0.268229 4.78906 0.414062 4.64323 0.6875 4.625ZM5.80078 7.38672L9.30078 10.8867C9.48307 11.0872 9.48307 11.2878 9.30078 11.4883C9.10026 11.6706 8.89974 11.6706 8.69922 11.4883L5.9375 8.75391V11.625V16.4375C5.91927 16.7109 5.77344 16.8568 5.5 16.875C5.22656 16.8568 5.08073 16.7109 5.0625 16.4375V11.625V8.75391L2.30078 11.4883C2.10026 11.6706 1.89974 11.6706 1.69922 11.4883C1.51693 11.2878 1.51693 11.0872 1.69922 10.8867L5.19922 7.38672C5.39974 7.20443 5.60026 7.20443 5.80078 7.38672Z" fill="black" fill-opacity="0.72"/>
</g>
<defs>
<clipPath id="clip0_1731_2167">
<rect width="11" height="22" fill="white"/>
</clipPath>
</defs>
</svg>
