<svg width="12" height="18" viewBox="0 0 12 18" fill="none" xmlns="http://www.w3.org/2000/svg">
<g id="label-paired / caption / ubuntu-caption" clip-path="url(#clip0_1731_13790)">
<path id="icon" d="M6 3.6875C7.07812 3.70313 8.05469 3.96875 8.92969 4.48438C9.80469 5 10.5 5.69531 11.0156 6.57031C11.5312 7.44531 11.7969 8.42188 11.8125 9.5C11.7969 10.5781 11.5312 11.5547 11.0156 12.4297C10.5 13.3047 9.80469 14 8.92969 14.5156C8.05469 15.0312 7.07812 15.2969 6 15.3125C4.92188 15.2969 3.94531 15.0312 3.07031 14.5156C2.19531 14 1.5 13.3047 0.984375 12.4297C0.46875 11.5547 0.203125 10.5781 0.1875 9.5C0.203125 8.42188 0.46875 7.44531 0.984375 6.57031C1.5 5.69531 2.19531 5 3.07031 4.48438C3.94531 3.96875 4.92188 3.70313 6 3.6875ZM7.24219 5.86719C7.13281 6.05469 7.10938 6.24219 7.17188 6.42969C7.21875 6.61719 7.32812 6.77344 7.5 6.89844C7.6875 6.99219 7.88281 7.01562 8.08594 6.96875C8.27344 6.90625 8.42188 6.78906 8.53125 6.61719C8.625 6.42969 8.64844 6.24219 8.60156 6.05469C8.55469 5.85156 8.4375 5.69531 8.25 5.58594C8.0625 5.49219 7.875 5.46875 7.6875 5.51562C7.5 5.5625 7.35156 5.67969 7.24219 5.86719ZM2.22656 10.25C2.44531 10.25 2.625 10.1797 2.76562 10.0391C2.90625 9.89844 2.97656 9.71875 2.97656 9.5C2.97656 9.28125 2.90625 9.10156 2.76562 8.96094C2.625 8.82031 2.44531 8.75 2.22656 8.75C2.02344 8.75 1.85156 8.82031 1.71094 8.96094C1.57031 9.10156 1.5 9.28125 1.5 9.5C1.5 9.71875 1.57031 9.89844 1.71094 10.0391C1.85156 10.1797 2.02344 10.25 2.22656 10.25ZM2.90625 10.3203C3.125 11.1016 3.5625 11.7188 4.21875 12.1719L4.78125 11.2344C4.17188 10.7812 3.86719 10.2031 3.86719 9.5C3.86719 8.79688 4.17188 8.21875 4.78125 7.76562L4.21875 6.82812C3.5625 7.28125 3.125 7.89844 2.90625 8.67969C3.15625 8.91406 3.28125 9.1875 3.28125 9.5C3.28125 9.82812 3.15625 10.1016 2.90625 10.3203ZM8.25 13.4141C8.4375 13.3047 8.55469 13.1484 8.60156 12.9453C8.64844 12.7578 8.625 12.5703 8.53125 12.3828C8.42188 12.2109 8.27344 12.0938 8.08594 12.0312C7.88281 11.9844 7.6875 12.0078 7.5 12.1016C7.32812 12.2109 7.21875 12.3672 7.17188 12.5703C7.10938 12.7578 7.13281 12.9453 7.24219 13.1328C7.35156 13.3203 7.5 13.4375 7.6875 13.4844C7.875 13.5312 8.0625 13.5078 8.25 13.4141ZM8.27344 11.7734C8.82031 11.2266 9.13281 10.5391 9.21094 9.71094L8.13281 9.6875C8.02344 10.4375 7.67188 10.9922 7.07812 11.3516C6.46875 11.6953 5.8125 11.7266 5.10938 11.4453L4.57031 12.3828C5.13281 12.6328 5.625 12.7422 6.04688 12.7109C6.46875 12.6797 6.73438 12.6406 6.84375 12.5938C6.90625 12.25 7.07812 12 7.35938 11.8438C7.64062 11.6875 7.94531 11.6641 8.27344 11.7734ZM8.13281 9.3125L9.21094 9.28906C9.13281 8.46094 8.8125 7.77344 8.25 7.22656C7.9375 7.33594 7.64062 7.3125 7.35938 7.15625C7.07812 7 6.90625 6.75 6.84375 6.40625C6.84375 6.40625 6.83594 6.40625 6.82031 6.40625C6.72656 6.35938 6.46875 6.32031 6.04688 6.28906C5.625 6.25781 5.13281 6.36719 4.57031 6.61719L5.10938 7.57812C5.8125 7.28125 6.46875 7.30469 7.07812 7.64844C7.67188 8.00781 8.02344 8.5625 8.13281 9.3125Z" fill="black" fill-opacity="0.72"/>
</g>
<defs>
<clipPath id="clip0_1731_13790">
<rect width="12" height="18" fill="white"/>
</clipPath>
</defs>
</svg>
