<svg width="16" height="24" viewBox="0 0 16 24" fill="none" xmlns="http://www.w3.org/2000/svg">
<g id="label-paired / md / phone-md / regular" clip-path="url(#clip0_1731_3824)">
<path id="icon" d="M11.75 12.5938L15.25 14.0938C15.5208 14.2188 15.7292 14.4167 15.875 14.6875C16 14.9375 16.0312 15.2083 15.9688 15.5L15.2188 19C15.0521 19.625 14.6458 19.9583 14 20C13.8125 20 13.625 20 13.4375 20C13.2917 19.9792 13.1458 19.9688 13 19.9688C10.5625 19.7604 8.36458 19.0208 6.40625 17.75C4.44792 16.4792 2.89583 14.8229 1.75 12.7812C0.604167 10.7604 0.0208333 8.5 0 6C0.0416667 5.35417 0.375 4.94792 1 4.78125L4.5 4.03125C4.79167 3.96875 5.0625 4.01042 5.3125 4.15625C5.58333 4.28125 5.78125 4.47917 5.90625 4.75L7.40625 8.25C7.61458 8.8125 7.48958 9.30208 7.03125 9.71875L5.78125 10.75C6.63542 12.2083 7.79167 13.3646 9.25 14.2188L10.2812 12.9688C10.6979 12.5104 11.1875 12.3854 11.75 12.5938ZM14 19C14.125 19 14.2083 18.9375 14.25 18.8125L15 15.3125C15.0208 15.1667 14.9688 15.0729 14.8438 15.0312L11.3438 13.5312C11.2396 13.4896 11.1458 13.5104 11.0625 13.5938L10.0312 14.875C9.65625 15.25 9.22917 15.3229 8.75 15.0938C7.125 14.1562 5.84375 12.875 4.90625 11.25C4.67708 10.7708 4.75 10.3438 5.125 9.96875L6.40625 8.9375C6.48958 8.85417 6.51042 8.76042 6.46875 8.65625L4.96875 5.15625C4.90625 5.03125 4.8125 4.97917 4.6875 5L1.1875 5.75C1.0625 5.79167 1 5.875 1 6C1.02083 8.41667 1.61458 10.6042 2.78125 12.5625C3.92708 14.5208 5.47917 16.0729 7.4375 17.2188C9.39583 18.3854 11.5833 18.9792 14 19Z" fill="black" fill-opacity="0.72"/>
</g>
<defs>
<clipPath id="clip0_1731_3824">
<rect width="16" height="24" fill="white"/>
</clipPath>
</defs>
</svg>
