<svg width="15" height="18" viewBox="0 0 15 18" fill="none" xmlns="http://www.w3.org/2000/svg">
<g id="label-paired / caption / horizontal-rule-dashed-caption / regular" clip-path="url(#clip0_1731_1501)">
<path id="icon" d="M0 9.5C0 9.3125 0.164062 9.125 0.375 9.125H2.25C2.4375 9.125 2.625 9.3125 2.625 9.5C2.625 9.71094 2.4375 9.875 2.25 9.875H0.375C0.164062 9.875 0 9.71094 0 9.5ZM4.125 9.5C4.125 9.3125 4.28906 9.125 4.5 9.125H6.375C6.5625 9.125 6.75 9.3125 6.75 9.5C6.75 9.71094 6.5625 9.875 6.375 9.875H4.5C4.28906 9.875 4.125 9.71094 4.125 9.5ZM8.25 9.5C8.25 9.3125 8.41406 9.125 8.625 9.125H10.5C10.6875 9.125 10.875 9.3125 10.875 9.5C10.875 9.71094 10.6875 9.875 10.5 9.875H8.625C8.41406 9.875 8.25 9.71094 8.25 9.5ZM12.375 9.5C12.375 9.3125 12.5391 9.125 12.75 9.125H14.625C14.8125 9.125 15 9.3125 15 9.5C15 9.71094 14.8125 9.875 14.625 9.875H12.75C12.5391 9.875 12.375 9.71094 12.375 9.5Z" fill="black" fill-opacity="0.72"/>
</g>
<defs>
<clipPath id="clip0_1731_1501">
<rect width="15" height="18" fill="white"/>
</clipPath>
</defs>
</svg>
