<svg width="5" height="30" viewBox="0 0 5 30" fill="none" xmlns="http://www.w3.org/2000/svg">
<g id="label-paired / lg / ellipsis-vertical-lg / regular" clip-path="url(#clip0_1731_5384)">
<path id="icon" d="M2.5 20.5C2.86458 20.5 3.16406 20.6172 3.39844 20.8516C3.63281 21.0859 3.75 21.3854 3.75 21.75C3.75 22.1146 3.63281 22.4141 3.39844 22.6484C3.16406 22.8828 2.86458 23 2.5 23C2.13542 23 1.83594 22.8828 1.60156 22.6484C1.36719 22.4141 1.25 22.1146 1.25 21.75C1.25 21.3854 1.36719 21.0859 1.60156 20.8516C1.83594 20.6172 2.13542 20.5 2.5 20.5ZM2.5 14.25C2.86458 14.25 3.16406 14.3672 3.39844 14.6016C3.63281 14.8359 3.75 15.1354 3.75 15.5C3.75 15.8646 3.63281 16.1641 3.39844 16.3984C3.16406 16.6328 2.86458 16.75 2.5 16.75C2.13542 16.75 1.83594 16.6328 1.60156 16.3984C1.36719 16.1641 1.25 15.8646 1.25 15.5C1.25 15.1354 1.36719 14.8359 1.60156 14.6016C1.83594 14.3672 2.13542 14.25 2.5 14.25ZM3.75 9.25C3.75 9.61458 3.63281 9.91406 3.39844 10.1484C3.16406 10.3828 2.86458 10.5 2.5 10.5C2.13542 10.5 1.83594 10.3828 1.60156 10.1484C1.36719 9.91406 1.25 9.61458 1.25 9.25C1.25 8.88542 1.36719 8.58594 1.60156 8.35156C1.83594 8.11719 2.13542 8 2.5 8C2.86458 8 3.16406 8.11719 3.39844 8.35156C3.63281 8.58594 3.75 8.88542 3.75 9.25Z" fill="black" fill-opacity="0.72"/>
</g>
<defs>
<clipPath id="clip0_1731_5384">
<rect width="5" height="30" fill="white"/>
</clipPath>
</defs>
</svg>
