<svg width="14" height="22" viewBox="0 0 14 22" fill="none" xmlns="http://www.w3.org/2000/svg">
<g id="label-paired / sm / circle-nine-sm / bold" clip-path="url(#clip0_1731_2345)">
<path id="icon" d="M12.6875 10.75C12.6875 9.71094 12.4323 8.76302 11.9219 7.90625C11.4297 7.04948 10.737 6.35677 9.84375 5.82812C8.95052 5.31771 8.0026 5.0625 7 5.0625C5.9974 5.0625 5.04948 5.31771 4.15625 5.82812C3.26302 6.35677 2.57031 7.04948 2.07812 7.90625C1.56771 8.76302 1.3125 9.71094 1.3125 10.75C1.3125 11.7891 1.56771 12.737 2.07812 13.5938C2.57031 14.4505 3.26302 15.1432 4.15625 15.6719C5.04948 16.1823 5.9974 16.4375 7 16.4375C8.0026 16.4375 8.95052 16.1823 9.84375 15.6719C10.737 15.1432 11.4297 14.4505 11.9219 13.5938C12.4323 12.737 12.6875 11.7891 12.6875 10.75ZM0 10.75C0.0182292 9.47396 0.328125 8.30729 0.929688 7.25C1.54948 6.19271 2.40625 5.33594 3.5 4.67969C4.61198 4.0599 5.77865 3.75 7 3.75C8.22135 3.75 9.38802 4.0599 10.5 4.67969C11.5938 5.33594 12.4505 6.19271 13.0703 7.25C13.6719 8.30729 13.9818 9.47396 14 10.75C13.9818 12.026 13.6719 13.1927 13.0703 14.25C12.4505 15.3073 11.5938 16.1641 10.5 16.8203C9.38802 17.4401 8.22135 17.75 7 17.75C5.77865 17.75 4.61198 17.4401 3.5 16.8203C2.40625 16.1641 1.54948 15.3073 0.929688 14.25C0.328125 13.1927 0.0182292 12.026 0 10.75ZM7 8.5625C6.50781 8.58073 6.125 8.79948 5.85156 9.21875C5.63281 9.65625 5.63281 10.0938 5.85156 10.5312C6.125 10.9505 6.50781 11.1693 7 11.1875C7.49219 11.1693 7.875 10.9505 8.14844 10.5312C8.36719 10.0938 8.36719 9.65625 8.14844 9.21875C7.875 8.79948 7.49219 8.58073 7 8.5625ZM6.28906 12.3906C5.72396 12.2266 5.26823 11.9167 4.92188 11.4609C4.57552 11.0234 4.39323 10.4948 4.375 9.875C4.39323 9.1276 4.64844 8.50781 5.14062 8.01562C5.63281 7.52344 6.2526 7.26823 7 7.25C7.7474 7.26823 8.36719 7.52344 8.85938 8.01562C9.35156 8.50781 9.60677 9.1276 9.625 9.875C9.60677 10.8047 9.2513 11.5703 8.55859 12.1719L6.34375 14.0859C6.01562 14.3229 5.70573 14.3047 5.41406 14.0312C5.17708 13.7031 5.19531 13.3932 5.46875 13.1016L6.28906 12.3906Z" fill="black" fill-opacity="0.72"/>
</g>
<defs>
<clipPath id="clip0_1731_2345">
<rect width="14" height="22" fill="white"/>
</clipPath>
</defs>
</svg>
