<svg width="14" height="18" viewBox="0 0 14 18" fill="none" xmlns="http://www.w3.org/2000/svg">
<g id="label-paired / caption / link-simple-caption / bold" clip-path="url(#clip0_1731_1320)">
<path id="icon" d="M0.25 9.5C0.28125 8.4375 0.648438 7.55469 1.35156 6.85156C2.05469 6.14844 2.9375 5.78125 4 5.75H5.6875C6.03125 5.78125 6.21875 5.96875 6.25 6.3125C6.21875 6.65625 6.03125 6.84375 5.6875 6.875H4C3.25 6.89062 2.63281 7.14844 2.14844 7.64844C1.64844 8.13281 1.39062 8.75 1.375 9.5C1.39062 10.25 1.64844 10.8672 2.14844 11.3516C2.63281 11.8516 3.25 12.1094 4 12.125H5.6875C6.03125 12.1562 6.21875 12.3438 6.25 12.6875C6.21875 13.0312 6.03125 13.2188 5.6875 13.25H4C2.9375 13.2188 2.05469 12.8516 1.35156 12.1484C0.648438 11.4453 0.28125 10.5625 0.25 9.5ZM13.75 9.5C13.7188 10.5625 13.3516 11.4453 12.6484 12.1484C11.9453 12.8516 11.0625 13.2188 10 13.25H8.3125C7.96875 13.2188 7.78125 13.0312 7.75 12.6875C7.78125 12.3438 7.96875 12.1562 8.3125 12.125H10C10.75 12.1094 11.3672 11.8516 11.8516 11.3516C12.3516 10.8672 12.6094 10.25 12.625 9.5C12.6094 8.75 12.3516 8.13281 11.8516 7.64844C11.3672 7.14844 10.75 6.89062 10 6.875H8.3125C7.96875 6.84375 7.78125 6.65625 7.75 6.3125C7.78125 5.96875 7.96875 5.78125 8.3125 5.75H10C11.0625 5.78125 11.9453 6.14844 12.6484 6.85156C13.3516 7.55469 13.7188 8.4375 13.75 9.5ZM4.5625 8.9375H9.4375C9.78125 8.96875 9.96875 9.15625 10 9.5C9.96875 9.84375 9.78125 10.0312 9.4375 10.0625H4.5625C4.21875 10.0312 4.03125 9.84375 4 9.5C4.03125 9.15625 4.21875 8.96875 4.5625 8.9375Z" fill="black" fill-opacity="0.72"/>
</g>
<defs>
<clipPath id="clip0_1731_1320">
<rect width="14" height="18" fill="white"/>
</clipPath>
</defs>
</svg>
