<svg width="11" height="18" viewBox="0 0 11 18" fill="none" xmlns="http://www.w3.org/2000/svg">
<g id="label-paired / caption / user-caption / bold" clip-path="url(#clip0_1731_1755)">
<path id="icon" d="M7.375 6.5C7.35938 5.79688 7.04688 5.25781 6.4375 4.88281C5.8125 4.53906 5.1875 4.53906 4.5625 4.88281C3.95312 5.25781 3.64062 5.79688 3.625 6.5C3.64062 7.20312 3.95312 7.74219 4.5625 8.11719C5.1875 8.46094 5.8125 8.46094 6.4375 8.11719C7.04688 7.74219 7.35938 7.20312 7.375 6.5ZM2.5 6.5C2.5 5.95312 2.63281 5.45312 2.89844 5C3.16406 4.54688 3.53125 4.17969 4 3.89844C4.46875 3.63281 4.96875 3.5 5.5 3.5C6.03125 3.5 6.53125 3.63281 7 3.89844C7.46875 4.17969 7.83594 4.54688 8.10156 5C8.36719 5.45312 8.5 5.95312 8.5 6.5C8.5 7.04688 8.36719 7.54688 8.10156 8C7.83594 8.45312 7.46875 8.82031 7 9.10156C6.53125 9.36719 6.03125 9.5 5.5 9.5C4.96875 9.5 4.46875 9.36719 4 9.10156C3.53125 8.82031 3.16406 8.45312 2.89844 8C2.63281 7.54688 2.5 7.04688 2.5 6.5ZM1.39844 14.375H9.60156C9.47656 13.6094 9.14062 12.9844 8.59375 12.5C8.03125 12.0156 7.35938 11.7656 6.57812 11.75H4.42188C3.64062 11.7656 2.97656 12.0156 2.42969 12.5C1.86719 12.9844 1.52344 13.6094 1.39844 14.375ZM0.25 14.7969C0.28125 13.625 0.6875 12.6406 1.46875 11.8438C2.26562 11.0625 3.25 10.6562 4.42188 10.625H6.57812C7.75 10.6562 8.73438 11.0625 9.53125 11.8438C10.3125 12.6406 10.7188 13.625 10.75 14.7969C10.75 15 10.6797 15.1641 10.5391 15.2891C10.4141 15.4297 10.25 15.5 10.0469 15.5H0.953125C0.75 15.5 0.585938 15.4297 0.460938 15.2891C0.320312 15.1641 0.25 15 0.25 14.7969Z" fill="black" fill-opacity="0.72"/>
</g>
<defs>
<clipPath id="clip0_1731_1755">
<rect width="11" height="18" fill="white"/>
</clipPath>
</defs>
</svg>
