<svg width="24" height="36" viewBox="0 0 24 36" fill="none" xmlns="http://www.w3.org/2000/svg">
<g id="label-paired / xl / arrow-up-from-square-xl / bold" clip-path="url(#clip0_1731_5693)">
<path id="icon" d="M12.7969 6.32812L18.0469 11.5781C18.4844 12.1094 18.4844 12.6406 18.0469 13.1719C17.5156 13.6094 16.9844 13.6094 16.4531 13.1719L13.125 9.84375V21.375C13.0625 22.0625 12.6875 22.4375 12 22.5C11.3125 22.4375 10.9375 22.0625 10.875 21.375V9.84375L7.54688 13.1719C7.01562 13.6094 6.48438 13.6094 5.95312 13.1719C5.51562 12.6406 5.51562 12.1094 5.95312 11.5781L11.2031 6.32812C11.7344 5.89063 12.2656 5.89063 12.7969 6.32812ZM3.375 7.5H3.75C4.4375 7.5625 4.8125 7.9375 4.875 8.625C4.8125 9.3125 4.4375 9.6875 3.75 9.75H3.375C2.6875 9.8125 2.3125 10.1875 2.25 10.875V26.625C2.3125 27.3125 2.6875 27.6875 3.375 27.75H20.625C21.3125 27.6875 21.6875 27.3125 21.75 26.625V10.875C21.6875 10.1875 21.3125 9.8125 20.625 9.75H20.25C19.5625 9.6875 19.1875 9.3125 19.125 8.625C19.1875 7.9375 19.5625 7.5625 20.25 7.5H20.625C21.5938 7.53125 22.3906 7.85938 23.0156 8.48438C23.6406 9.10938 23.9688 9.90625 24 10.875V26.625C23.9688 27.5938 23.6406 28.3906 23.0156 29.0156C22.3906 29.6406 21.5938 29.9688 20.625 30H3.375C2.40625 29.9688 1.60938 29.6406 0.984375 29.0156C0.359375 28.3906 0.03125 27.5938 0 26.625V10.875C0.03125 9.90625 0.359375 9.10938 0.984375 8.48438C1.60938 7.85938 2.40625 7.53125 3.375 7.5Z" fill="black" fill-opacity="0.72"/>
</g>
<defs>
<clipPath id="clip0_1731_5693">
<rect width="24" height="36" fill="white"/>
</clipPath>
</defs>
</svg>
