<svg width="21" height="36" viewBox="0 0 21 36" fill="none" xmlns="http://www.w3.org/2000/svg">
<g id="label-paired / xl / compress-xl / regular" clip-path="url(#clip0_1731_5616)">
<path id="icon" d="M7.5 8.25V14.25C7.46875 14.7188 7.21875 14.9688 6.75 15H0.75C0.28125 14.9688 0.03125 14.7188 0 14.25C0.03125 13.7812 0.28125 13.5312 0.75 13.5H6V8.25C6.03125 7.78125 6.28125 7.53125 6.75 7.5C7.21875 7.53125 7.46875 7.78125 7.5 8.25ZM0.75 21H6.75C7.21875 21.0312 7.46875 21.2812 7.5 21.75V27.75C7.46875 28.2188 7.21875 28.4688 6.75 28.5C6.28125 28.4688 6.03125 28.2188 6 27.75V22.5H0.75C0.28125 22.4688 0.03125 22.2188 0 21.75C0.03125 21.2812 0.28125 21.0312 0.75 21ZM15 8.25V13.5H20.25C20.7188 13.5312 20.9688 13.7812 21 14.25C20.9688 14.7188 20.7188 14.9688 20.25 15H14.25C13.7812 14.9688 13.5312 14.7188 13.5 14.25V8.25C13.5312 7.78125 13.7812 7.53125 14.25 7.5C14.7188 7.53125 14.9688 7.78125 15 8.25ZM14.25 21H20.25C20.7188 21.0312 20.9688 21.2812 21 21.75C20.9688 22.2188 20.7188 22.4688 20.25 22.5H15V27.75C14.9688 28.2188 14.7188 28.4688 14.25 28.5C13.7812 28.4688 13.5312 28.2188 13.5 27.75V21.75C13.5312 21.2812 13.7812 21.0312 14.25 21Z" fill="black" fill-opacity="0.72"/>
</g>
<defs>
<clipPath id="clip0_1731_5616">
<rect width="21" height="36" fill="white"/>
</clipPath>
</defs>
</svg>
