<svg width="14" height="22" viewBox="0 0 14 22" fill="none" xmlns="http://www.w3.org/2000/svg">
<g id="label-paired / sm / scissors-sm / bold" clip-path="url(#clip0_1731_2711)">
<path id="icon" d="M13.8359 15.7539C13.5625 16.0456 13.2617 16.0729 12.9336 15.8359L8.53125 12.1719L9.57031 11.3242L13.7539 14.8516C14.0456 15.125 14.0729 15.4258 13.8359 15.7539ZM3.0625 5.0625C2.40625 5.08073 1.90495 5.3724 1.55859 5.9375C1.23047 6.52083 1.23047 7.10417 1.55859 7.6875C1.90495 8.2526 2.40625 8.54427 3.0625 8.5625C3.71875 8.54427 4.22005 8.2526 4.56641 7.6875C4.89453 7.10417 4.89453 6.52083 4.56641 5.9375C4.22005 5.3724 3.71875 5.08073 3.0625 5.0625ZM3.0625 3.75C3.9375 3.76823 4.65755 4.06901 5.22266 4.65234C5.80599 5.21745 6.10677 5.9375 6.125 6.8125C6.125 7.30469 6.01562 7.76042 5.79688 8.17969L7.875 9.90234L12.9336 5.66406C13.2617 5.42708 13.5625 5.45443 13.8359 5.74609C14.0729 6.07422 14.0456 6.375 13.7539 6.64844L5.79688 13.3203C6.01562 13.7396 6.125 14.1953 6.125 14.6875C6.10677 15.5625 5.80599 16.2826 5.22266 16.8477C4.65755 17.431 3.9375 17.7318 3.0625 17.75C2.1875 17.7318 1.46745 17.431 0.902344 16.8477C0.31901 16.2826 0.0182292 15.5625 0 14.6875C0.0182292 13.8125 0.31901 13.0924 0.902344 12.5273C1.46745 11.944 2.1875 11.6432 3.0625 11.625C3.8099 11.6432 4.44792 11.8711 4.97656 12.3086L6.83594 10.75L4.97656 9.19141C4.44792 9.62891 3.8099 9.85677 3.0625 9.875C2.1875 9.85677 1.46745 9.55599 0.902344 8.97266C0.31901 8.40755 0.0182292 7.6875 0 6.8125C0.0182292 5.9375 0.31901 5.21745 0.902344 4.65234C1.46745 4.06901 2.1875 3.76823 3.0625 3.75ZM4.8125 14.6875C4.79427 14.0312 4.5026 13.5299 3.9375 13.1836C3.35417 12.8555 2.77083 12.8555 2.1875 13.1836C1.6224 13.5299 1.33073 14.0312 1.3125 14.6875C1.33073 15.3438 1.6224 15.8451 2.1875 16.1914C2.77083 16.5195 3.35417 16.5195 3.9375 16.1914C4.5026 15.8451 4.79427 15.3438 4.8125 14.6875Z" fill="black" fill-opacity="0.72"/>
</g>
<defs>
<clipPath id="clip0_1731_2711">
<rect width="14" height="22" fill="white"/>
</clipPath>
</defs>
</svg>
