<svg width="24" height="36" viewBox="0 0 24 36" fill="none" xmlns="http://www.w3.org/2000/svg">
<g id="label-paired / xl / circle-calendar-xl / regular" clip-path="url(#clip0_1731_5636)">
<path id="icon" d="M22.5 18C22.4688 16.0938 22 14.3438 21.0938 12.75C20.1562 11.1562 18.875 9.875 17.25 8.90625C15.5938 7.96875 13.8438 7.5 12 7.5C10.1562 7.5 8.40625 7.96875 6.75 8.90625C5.125 9.875 3.84375 11.1562 2.90625 12.75C2 14.3438 1.53125 16.0938 1.5 18C1.53125 19.9062 2 21.6562 2.90625 23.25C3.84375 24.8438 5.125 26.125 6.75 27.0938C8.40625 28.0312 10.1562 28.5 12 28.5C13.8438 28.5 15.5938 28.0312 17.25 27.0938C18.875 26.125 20.1562 24.8438 21.0938 23.25C22 21.6562 22.4688 19.9062 22.5 18ZM0 18C0.03125 15.8125 0.5625 13.8125 1.59375 12C2.65625 10.1875 4.125 8.71875 6 7.59375C7.90625 6.53125 9.90625 6 12 6C14.0938 6 16.0938 6.53125 18 7.59375C19.875 8.71875 21.3438 10.1875 22.4062 12C23.4375 13.8125 23.9688 15.8125 24 18C23.9688 20.1875 23.4375 22.1875 22.4062 24C21.3438 25.8125 19.875 27.2812 18 28.4062C16.0938 29.4688 14.0938 30 12 30C9.90625 30 7.90625 29.4688 6 28.4062C4.125 27.2812 2.65625 25.8125 1.59375 24C0.5625 22.1875 0.03125 20.1875 0 18ZM9.75 10.5C10.2188 10.5312 10.4688 10.7812 10.5 11.25V12H13.5V11.25C13.5312 10.7812 13.7812 10.5312 14.25 10.5C14.7188 10.5312 14.9688 10.7812 15 11.25V12H15.75C16.375 12.0312 16.9062 12.25 17.3438 12.6562C17.75 13.0938 17.9688 13.625 18 14.25V15V16.5V21.75C17.9688 22.375 17.75 22.9062 17.3438 23.3438C16.9062 23.75 16.375 23.9688 15.75 24H8.25C7.625 23.9688 7.09375 23.75 6.65625 23.3438C6.25 22.9062 6.03125 22.375 6 21.75V16.5V15V14.25C6.03125 13.625 6.25 13.0938 6.65625 12.6562C7.09375 12.25 7.625 12.0312 8.25 12H9V11.25C9.03125 10.7812 9.28125 10.5312 9.75 10.5ZM7.5 14.25V15H16.5V14.25C16.4688 13.7812 16.2188 13.5312 15.75 13.5H14.25H9.75H8.25C7.78125 13.5312 7.53125 13.7812 7.5 14.25ZM16.5 16.5H7.5V21.75C7.53125 22.2188 7.78125 22.4688 8.25 22.5H15.75C16.2188 22.4688 16.4688 22.2188 16.5 21.75V16.5Z" fill="black" fill-opacity="0.72"/>
</g>
<defs>
<clipPath id="clip0_1731_5636">
<rect width="24" height="36" fill="white"/>
</clipPath>
</defs>
</svg>
