<svg width="14" height="22" viewBox="0 0 14 22" fill="none" xmlns="http://www.w3.org/2000/svg">
<g id="label-paired / sm / right-from-bracket-sm / bold" clip-path="url(#clip0_1731_1934)">
<path id="icon" d="M9.625 7.74219V9.21875C9.58854 9.61979 9.36979 9.83854 8.96875 9.875H5.6875V11.625H8.96875C9.36979 11.6615 9.58854 11.8802 9.625 12.2812V13.7578L12.6328 10.75L9.625 7.74219ZM14 10.75C14 11.0781 13.8815 11.3607 13.6445 11.5977L10.4727 14.7422C10.2357 14.9974 9.9349 15.125 9.57031 15.125C9.22396 15.125 8.93229 14.9974 8.69531 14.7422C8.45833 14.5052 8.33073 14.2135 8.3125 13.8672V12.9375H5.6875C5.32292 12.9193 5.01302 12.7917 4.75781 12.5547C4.52083 12.2995 4.39323 11.9896 4.375 11.625V9.875C4.39323 9.51042 4.52083 9.20052 4.75781 8.94531C5.01302 8.70833 5.32292 8.58073 5.6875 8.5625H8.3125V7.63281C8.33073 7.28646 8.45833 6.99479 8.69531 6.75781C8.93229 6.52083 9.22396 6.39323 9.57031 6.375C9.9349 6.375 10.2357 6.5026 10.4727 6.75781L13.6445 9.90234C13.8815 10.1393 14 10.4219 14 10.75ZM4.59375 5.9375H2.40625C2.09635 5.9375 1.84115 6.04688 1.64062 6.26562C1.42188 6.46615 1.3125 6.72135 1.3125 7.03125V14.4688C1.3125 14.7786 1.42188 15.0339 1.64062 15.2344C1.84115 15.4531 2.09635 15.5625 2.40625 15.5625H4.59375C4.99479 15.599 5.21354 15.8177 5.25 16.2188C5.21354 16.6198 4.99479 16.8385 4.59375 16.875H2.40625C1.73177 16.8568 1.16667 16.6198 0.710938 16.1641C0.255208 15.7083 0.0182292 15.1432 0 14.4688V7.03125C0.0182292 6.35677 0.255208 5.79167 0.710938 5.33594C1.16667 4.88021 1.73177 4.64323 2.40625 4.625H4.59375C4.99479 4.66146 5.21354 4.88021 5.25 5.28125C5.21354 5.68229 4.99479 5.90104 4.59375 5.9375Z" fill="black" fill-opacity="0.72"/>
</g>
<defs>
<clipPath id="clip0_1731_1934">
<rect width="14" height="22" fill="white"/>
</clipPath>
</defs>
</svg>
