<svg width="14" height="24" viewBox="0 0 14 24" fill="none" xmlns="http://www.w3.org/2000/svg">
<g id="label-paired / md / arrow-left-to-line-md / regular" clip-path="url(#clip0_1731_3440)">
<path id="icon" d="M0 17.5V6.5C0.0208333 6.1875 0.1875 6.02083 0.5 6C0.8125 6.02083 0.979167 6.1875 1 6.5V17.5C0.979167 17.8125 0.8125 17.9792 0.5 18C0.1875 17.9792 0.0208333 17.8125 0 17.5ZM3.15625 11.6562L7.15625 7.65625C7.38542 7.44792 7.61458 7.44792 7.84375 7.65625C8.05208 7.88542 8.05208 8.11458 7.84375 8.34375L4.71875 11.5H8H13.5C13.8125 11.5208 13.9792 11.6875 14 12C13.9792 12.3125 13.8125 12.4792 13.5 12.5H8H4.71875L7.84375 15.6562C8.05208 15.8854 8.05208 16.1146 7.84375 16.3438C7.61458 16.5521 7.38542 16.5521 7.15625 16.3438L3.15625 12.3438C2.94792 12.1146 2.94792 11.8854 3.15625 11.6562Z" fill="black" fill-opacity="0.72"/>
</g>
<defs>
<clipPath id="clip0_1731_3440">
<rect width="14" height="24" fill="white"/>
</clipPath>
</defs>
</svg>
