<svg width="14" height="22" viewBox="0 0 14 22" fill="none" xmlns="http://www.w3.org/2000/svg">
<g id="label-paired / sm / phone-sm / bold" clip-path="url(#clip0_1731_2568)">
<path id="icon" d="M10.2812 11.2695L13.3438 12.582C13.5807 12.6914 13.763 12.8646 13.8906 13.1016C14 13.3203 14.0273 13.5664 13.9727 13.8398L13.3164 16.9023C13.1706 17.431 12.8151 17.7135 12.25 17.75C12.0859 17.75 11.9219 17.75 11.7578 17.75C11.4844 17.7318 11.2109 17.7135 10.9375 17.6953C8.85938 17.4401 7 16.7565 5.35938 15.6445C3.71875 14.5143 2.42448 13.0742 1.47656 11.3242C0.510417 9.57422 0.0182292 7.63281 0 5.5C0.0364583 4.9349 0.328125 4.57943 0.875 4.43359L3.9375 3.77734C4.19271 3.72266 4.42969 3.75911 4.64844 3.88672C4.88542 3.99609 5.05859 4.16927 5.16797 4.40625L6.48047 7.46875C6.66276 7.96094 6.55339 8.38932 6.15234 8.75391L5.05859 9.65625C5.80599 10.9323 6.81771 11.944 8.09375 12.6914L8.99609 11.5977C9.36068 11.1966 9.78906 11.0872 10.2812 11.2695ZM12.0859 16.4375L12.6602 13.7305L9.92578 12.5547L9.10547 13.5391C8.88672 13.776 8.63151 13.9219 8.33984 13.9766C8.02995 14.0495 7.72917 14.0039 7.4375 13.8398C5.96094 12.9648 4.78516 11.7891 3.91016 10.3125C3.76432 10.0208 3.71875 9.72917 3.77344 9.4375C3.82812 9.1276 3.97396 8.86328 4.21094 8.64453L5.19531 7.85156L4.01953 5.08984L1.3125 5.69141C1.36719 7.67839 1.8776 9.47396 2.84375 11.0781C3.79167 12.6823 5.06771 13.9583 6.67188 14.9062C8.27604 15.8724 10.0807 16.3828 12.0859 16.4375Z" fill="black" fill-opacity="0.72"/>
</g>
<defs>
<clipPath id="clip0_1731_2568">
<rect width="14" height="22" fill="white"/>
</clipPath>
</defs>
</svg>
