<svg width="30" height="36" viewBox="0 0 30 36" fill="none" xmlns="http://www.w3.org/2000/svg">
<g id="label-paired / xl / deal-cancellation-xl / regular" clip-path="url(#clip0_1731_5796)">
<path id="icon" d="M4.21875 11.7188H8.67188C9.46875 11.7188 10.1719 11.8594 10.8281 12.1406C11.4844 12.375 12.0469 12.7969 12.5156 13.3125C12.9844 13.8281 13.3125 14.4844 13.5938 15.2812C13.8281 16.0781 13.9688 16.9688 13.9688 18C13.9688 19.0781 13.8281 19.9688 13.5938 20.7656C13.3125 21.5625 12.9844 22.2188 12.5156 22.7344C12.0469 23.25 11.4844 23.625 10.8281 23.9062C10.1719 24.1875 9.46875 24.3281 8.67188 24.3281H4.21875V11.7188ZM8.67188 22.5C9.60938 22.5 10.3594 22.2188 10.9219 21.6094C11.4844 21.0469 11.7656 20.1562 11.7656 19.0312V17.0156C11.7656 15.8906 11.4844 15 10.9219 14.4375C10.3594 13.8281 9.60938 13.5469 8.67188 13.5469H6.23438V22.5H8.67188ZM21.1875 24.5156C19.5469 24.5156 18.2812 23.9531 17.3438 22.875C16.4062 21.75 15.9375 20.1562 15.9375 18C15.9375 16.9688 16.0312 16.0312 16.3125 15.2344C16.5469 14.4375 16.875 13.7344 17.3438 13.2188C17.8125 12.6562 18.3281 12.2344 18.9844 11.9531C19.6406 11.6719 20.3906 11.5312 21.1875 11.5312C22.3125 11.5312 23.2031 11.7656 23.9531 12.2344C24.7031 12.7031 25.2656 13.4531 25.6875 14.3906L23.9531 15.3281C23.7656 14.7188 23.4375 14.25 22.9688 13.875C22.5 13.5469 21.9375 13.3594 21.1875 13.3594C20.25 13.3594 19.4531 13.6875 18.9375 14.3438C18.375 15 18.0938 15.8906 18.0938 17.0625V18.9844C18.0938 20.1562 18.375 21.0469 18.9375 21.7031C19.4531 22.3594 20.25 22.6875 21.1875 22.6875C21.9375 22.6875 22.5938 22.5 23.0625 22.125C23.5312 21.75 23.8594 21.2344 24.0938 20.625L25.7344 21.6094C25.3125 22.5 24.75 23.25 24 23.7656C23.2031 24.2812 22.3125 24.5156 21.1875 24.5156Z" fill="black" fill-opacity="0.72"/>
</g>
<defs>
<clipPath id="clip0_1731_5796">
<rect width="30" height="36" fill="white"/>
</clipPath>
</defs>
</svg>
