<svg width="24" height="36" viewBox="0 0 24 36" fill="none" xmlns="http://www.w3.org/2000/svg">
<g id="label-paired / xl / circle-envelope-xl / bold" clip-path="url(#clip0_1731_6337)">
<path id="icon" d="M12 8.25C10.2188 8.25 8.59375 8.6875 7.125 9.5625C5.65625 10.4062 4.46875 11.5938 3.5625 13.125C2.6875 14.6562 2.25 16.2812 2.25 18C2.25 19.7188 2.6875 21.3438 3.5625 22.875C4.46875 24.4062 5.65625 25.5938 7.125 26.4375C8.59375 27.3125 10.2188 27.75 12 27.75C13.7812 27.75 15.4062 27.3125 16.875 26.4375C18.3438 25.5938 19.5312 24.4062 20.4375 22.875C21.3125 21.3438 21.75 19.7188 21.75 18C21.75 16.2812 21.3125 14.6562 20.4375 13.125C19.5312 11.5938 18.3438 10.4062 16.875 9.5625C15.4062 8.6875 13.7812 8.25 12 8.25ZM12 30C9.8125 29.9688 7.8125 29.4375 6 28.4062C4.1875 27.3438 2.71875 25.875 1.59375 24C0.53125 22.0938 0 20.0938 0 18C0 15.9062 0.53125 13.9062 1.59375 12C2.71875 10.125 4.1875 8.65625 6 7.59375C7.8125 6.5625 9.8125 6.03125 12 6C14.1875 6.03125 16.1875 6.5625 18 7.59375C19.8125 8.65625 21.2812 10.125 22.4062 12C23.4688 13.9062 24 15.9062 24 18C24 20.0938 23.4688 22.0938 22.4062 24C21.2812 25.875 19.8125 27.3438 18 28.4062C16.1875 29.4375 14.1875 29.9688 12 30ZM11.6719 18L6 14.8594C6.03125 14.4844 6.1875 14.1719 6.46875 13.9219C6.75 13.6406 7.09375 13.5 7.5 13.5H16.5C16.9062 13.5 17.25 13.625 17.5312 13.875C17.8125 14.1562 17.9688 14.4844 18 14.8594L12.3281 18C12.2344 18.0625 12.125 18.0938 12 18.0938C11.875 18.0625 11.7656 18.0312 11.6719 18ZM13.0781 19.3125L18 16.5938V21C18 21.4375 17.8594 21.7969 17.5781 22.0781C17.2969 22.3594 16.9375 22.5 16.5 22.5H7.5C7.0625 22.5 6.70312 22.3594 6.42188 22.0781C6.14062 21.7969 6 21.4375 6 21V16.5938L10.9219 19.3125C11.2656 19.4688 11.625 19.5469 12 19.5469C12.375 19.5469 12.7344 19.4688 13.0781 19.3125Z" fill="black" fill-opacity="0.72"/>
</g>
<defs>
<clipPath id="clip0_1731_6337">
<rect width="24" height="36" fill="white"/>
</clipPath>
</defs>
</svg>
