<svg width="30" height="36" viewBox="0 0 30 36" fill="none" xmlns="http://www.w3.org/2000/svg">
<g id="label-paired / xl / fiat-offramp-xl / regular" clip-path="url(#clip0_1731_6713)">
<path id="icon" d="M3 12C3 8.71875 5.67188 6 9 6C12.2812 6 15 8.71875 15 12C15 12.6094 14.9062 13.1719 14.7188 13.7344L19.2656 18.2812C19.8281 18.0938 20.3906 18 21 18C24.2812 18 27 20.7188 27 24C27 27.3281 24.2812 30 21 30H6.75C4.64062 30 3 28.3594 3 26.25V12ZM4.5 15.9844V26.25C4.5 27.5156 5.48438 28.5 6.75 28.5H17.0156C15.75 27.4219 15 25.8281 15 24C15 21.8438 16.125 19.9688 17.8125 18.9375L14.0625 15.1875C13.0312 16.875 11.1562 18 9 18C7.17188 18 5.57812 17.25 4.5 15.9844ZM9 7.5C7.35938 7.5 5.85938 8.39062 5.0625 9.75C4.26562 11.1562 4.26562 12.8906 5.0625 14.2969C5.85938 15.6562 7.35938 16.5469 8.95312 16.5469C10.5938 16.5469 12.0469 15.6562 12.8906 14.2969C13.6875 12.8906 13.6875 11.1562 12.8906 9.79688C12.0938 8.39062 10.5938 7.54688 9 7.5ZM16.6875 10.7344C16.9688 10.4531 17.4844 10.4531 17.7656 10.7344L21 13.9688V12.75C21 12.375 21.3281 12 21.75 12C22.125 12 22.5 12.375 22.5 12.75V15.75C22.5 16.0781 22.3125 16.3594 22.0312 16.4531C21.75 16.5938 21.4219 16.5 21.1875 16.3125L16.6875 11.8125C16.4062 11.5312 16.4062 11.0156 16.6875 10.7344ZM21 19.5C20.3906 19.5 19.875 19.6406 19.3594 19.8281H19.3125C17.6719 20.4844 16.5 22.125 16.5 24C16.5 26.4844 18.5156 28.5 21 28.5C23.4844 28.5 25.5 26.4844 25.5 24C25.5 21.5156 23.4844 19.5 21 19.5ZM8.20312 8.48438V9.51562H9.23438V8.48438H10.2188V9.51562C10.5938 9.51562 10.9219 9.65625 11.2031 9.89062C11.8125 10.4531 11.8594 11.3906 11.2969 12C11.5781 12.2812 11.7188 12.6562 11.7188 13.0312C11.7188 13.875 11.0156 14.5312 10.2188 14.5312V15.5156H9.23438V14.5312H8.20312V15.5156H7.21875V14.5312H6.23438V13.5H7.21875V10.5H6.23438V9.51562H7.21875V8.48438H8.20312ZM10.2188 12.5156H8.20312V13.5H10.2188C10.5 13.5 10.7344 13.2656 10.7344 12.9844C10.7344 12.75 10.5 12.5156 10.2188 12.5156ZM10.2188 10.5H8.20312V11.5312H10.2188C10.5 11.5312 10.7344 11.2969 10.7344 11.0156C10.7344 10.7344 10.5 10.5 10.2188 10.5ZM21.6094 20.25V20.8125C22.4062 21.0469 22.9219 21.7969 22.9219 22.6406V22.8281H21.7031V22.6406C21.7031 22.2656 21.375 21.9375 20.9531 21.9375C20.5781 21.9375 20.25 22.2656 20.25 22.6406C20.25 23.0625 20.5781 23.3906 20.9531 23.3906C22.0312 23.3906 22.9219 24.2812 22.9219 25.3594C22.9219 26.2031 22.4062 26.9531 21.6094 27.1875V27.75H20.3438V27.1875C19.5469 26.9531 19.0312 26.2031 19.0312 25.3594V25.1719H20.25V25.3594C20.25 25.7344 20.5781 26.0625 20.9531 26.0625C21.375 26.0625 21.7031 25.7344 21.7031 25.3594C21.7031 24.9375 21.375 24.6094 20.9531 24.6094C19.875 24.6094 19.0312 23.7188 19.0312 22.6406C19.0312 21.7969 19.5469 21.0469 20.3438 20.8125V20.25H21.6094Z" fill="black" fill-opacity="0.72"/>
</g>
<defs>
<clipPath id="clip0_1731_6713">
<rect width="30" height="36" fill="white"/>
</clipPath>
</defs>
</svg>
