<svg width="18" height="30" viewBox="0 0 18 30" fill="none" xmlns="http://www.w3.org/2000/svg">
<g id="label-paired / lg / trash-lg / regular" clip-path="url(#clip0_1731_5299)">
<path id="icon" d="M7.20312 6.75C6.96875 6.75 6.78646 6.85417 6.65625 7.0625L6.07031 8H11.9297L11.3438 7.0625C11.2135 6.85417 11.0312 6.75 10.7969 6.75H7.20312ZM13.4141 8H15.25H16.5H17.125C17.5156 8.02604 17.724 8.23438 17.75 8.625C17.724 9.01562 17.5156 9.22396 17.125 9.25H16.4219L15.4062 23.1953C15.3542 23.8464 15.0938 24.3932 14.625 24.8359C14.1562 25.2526 13.5833 25.474 12.9062 25.5H5.09375C4.41667 25.474 3.84375 25.2526 3.375 24.8359C2.90625 24.3932 2.64583 23.8464 2.59375 23.1953L1.57812 9.25H0.875C0.484375 9.22396 0.276042 9.01562 0.25 8.625C0.276042 8.23438 0.484375 8.02604 0.875 8H1.5H2.75H4.58594L5.60156 6.39844C5.99219 5.82552 6.52604 5.52604 7.20312 5.5H10.7969C11.474 5.52604 12.0078 5.82552 12.3984 6.39844L13.4141 8ZM15.1719 9.25H2.82812L3.84375 23.0781C3.86979 23.4167 4 23.6901 4.23438 23.8984C4.46875 24.1328 4.75521 24.25 5.09375 24.25H12.9062C13.2448 24.25 13.5312 24.1328 13.7656 23.8984C14 23.6901 14.1302 23.4167 14.1562 23.0781L15.1719 9.25Z" fill="black" fill-opacity="0.72"/>
</g>
<defs>
<clipPath id="clip0_1731_5299">
<rect width="18" height="30" fill="white"/>
</clipPath>
</defs>
</svg>
