<svg width="14" height="22" viewBox="0 0 14 22" fill="none" xmlns="http://www.w3.org/2000/svg">
<g id="label-paired / sm / circle-five-sm / bold" clip-path="url(#clip0_1731_2325)">
<path id="icon" d="M7 5.0625C5.96094 5.0625 5.01302 5.31771 4.15625 5.82812C3.29948 6.32031 2.60677 7.01302 2.07812 7.90625C1.56771 8.79948 1.3125 9.7474 1.3125 10.75C1.3125 11.7526 1.56771 12.7005 2.07812 13.5938C2.60677 14.487 3.29948 15.1797 4.15625 15.6719C5.01302 16.1823 5.96094 16.4375 7 16.4375C8.03906 16.4375 8.98698 16.1823 9.84375 15.6719C10.7005 15.1797 11.3932 14.487 11.9219 13.5938C12.4323 12.7005 12.6875 11.7526 12.6875 10.75C12.6875 9.7474 12.4323 8.79948 11.9219 7.90625C11.3932 7.01302 10.7005 6.32031 9.84375 5.82812C8.98698 5.31771 8.03906 5.0625 7 5.0625ZM7 17.75C5.72396 17.7318 4.55729 17.4219 3.5 16.8203C2.44271 16.2005 1.58594 15.3438 0.929688 14.25C0.309896 13.138 0 11.9714 0 10.75C0 9.52865 0.309896 8.36198 0.929688 7.25C1.58594 6.15625 2.44271 5.29948 3.5 4.67969C4.55729 4.07812 5.72396 3.76823 7 3.75C8.27604 3.76823 9.44271 4.07812 10.5 4.67969C11.5573 5.29948 12.4141 6.15625 13.0703 7.25C13.6901 8.36198 14 9.52865 14 10.75C14 11.9714 13.6901 13.138 13.0703 14.25C12.4141 15.3438 11.5573 16.2005 10.5 16.8203C9.44271 17.4219 8.27604 17.7318 7 17.75ZM5.6875 7.25H8.53125C8.93229 7.28646 9.15104 7.50521 9.1875 7.90625C9.15104 8.30729 8.93229 8.52604 8.53125 8.5625H6.23438L6.01562 9.73828L7.71094 9.92969C8.25781 10.0026 8.71354 10.2396 9.07812 10.6406C9.42448 11.0417 9.60677 11.5247 9.625 12.0898C9.60677 12.7096 9.39714 13.2201 8.99609 13.6211C8.57682 14.0221 8.06641 14.2318 7.46484 14.25H6.48047C5.67839 14.2318 5.04948 13.8945 4.59375 13.2383L4.48438 13.0742C4.30208 12.7279 4.36589 12.4271 4.67578 12.1719C5.02214 11.9896 5.32292 12.0534 5.57812 12.3633L5.6875 12.5273C5.88802 12.8008 6.15234 12.9375 6.48047 12.9375H7.46484C7.70182 12.9375 7.90234 12.8555 8.06641 12.6914C8.23047 12.5273 8.3125 12.3268 8.3125 12.0898C8.27604 11.6159 8.02083 11.3333 7.54688 11.2422L5.16797 10.9688C4.98568 10.9505 4.83984 10.8594 4.73047 10.6953C4.62109 10.5495 4.57552 10.3854 4.59375 10.2031L5.03125 7.79688C5.1224 7.45052 5.34115 7.26823 5.6875 7.25Z" fill="black" fill-opacity="0.72"/>
</g>
<defs>
<clipPath id="clip0_1731_2325">
<rect width="14" height="22" fill="white"/>
</clipPath>
</defs>
</svg>
