<svg width="24" height="36" viewBox="0 0 24 36" fill="none" xmlns="http://www.w3.org/2000/svg">
<g id="label-paired / xl / file-certificate-xl / bold" clip-path="url(#clip0_1731_6619)">
<path id="icon" d="M21 27.75C21.4688 27.7188 21.7188 27.4688 21.75 27V13.5H18C17.5625 13.5 17.2031 13.3594 16.9219 13.0781C16.6406 12.7969 16.5 12.4375 16.5 12V8.25H9C8.53125 8.28125 8.28125 8.53125 8.25 9V12.1875C7.625 11.9375 6.98438 11.9375 6.32812 12.1875C6.23438 12.2188 6.14062 12.25 6.04688 12.2812C6.04688 12.3125 6.03125 12.3281 6 12.3281V9C6.03125 8.15625 6.32812 7.45312 6.89062 6.89062C7.45312 6.32812 8.15625 6.03125 9 6H16.7812C17.5938 6 18.2969 6.29687 18.8906 6.89062L23.1094 11.1094C23.7031 11.7031 24 12.4219 24 13.2656V27C23.9688 27.8438 23.6719 28.5469 23.1094 29.1094C22.5469 29.6719 21.8438 29.9688 21 30H10.3594C10.4531 29.75 10.5 29.5 10.5 29.25V27.75H21ZM5.10938 13.5938L5.85938 13.875C5.95312 13.9062 6.04688 13.9062 6.14062 13.875L6.89062 13.5938C7.42188 13.4062 7.85938 13.5156 8.20312 13.9219L8.71875 14.5781C8.78125 14.6406 8.85938 14.6875 8.95312 14.7188L9.75 14.8125C10.2812 14.9062 10.5938 15.2188 10.6875 15.75L10.8281 16.5469C10.8281 16.6406 10.875 16.7344 10.9688 16.8281L11.5781 17.2969C11.9844 17.6719 12.1094 18.1094 11.9531 18.6094L11.625 19.3594C11.5938 19.4531 11.5938 19.5469 11.625 19.6406L11.9062 20.3906C12.0938 20.8906 11.9844 21.3281 11.5781 21.7031L10.9219 22.1719C10.8594 22.2344 10.8125 22.3281 10.7812 22.4531L10.6875 23.25C10.5938 23.7812 10.2812 24.0938 9.75 24.1875L9 24.2812V29.25C9 29.5312 8.875 29.75 8.625 29.9062C8.34375 30.0312 8.07812 30.0156 7.82812 29.8594L6 28.6406L4.17188 29.8594C3.92188 30.0156 3.67188 30.0312 3.42188 29.9062C3.14062 29.75 3 29.5312 3 29.25V24.2812L2.25 24.1875C1.71875 24.0938 1.40625 23.7812 1.3125 23.25L1.21875 22.4531C1.1875 22.3281 1.14062 22.2344 1.07812 22.1719L0.421875 21.7031C0.015625 21.3281 -0.09375 20.8906 0.09375 20.3906L0.375 19.6406C0.40625 19.5469 0.40625 19.4531 0.375 19.3594L0.09375 18.6094C-0.09375 18.1094 0.015625 17.6719 0.421875 17.2969L1.07812 16.8281C1.14062 16.7656 1.1875 16.6719 1.21875 16.5469L1.3125 15.75C1.40625 15.2188 1.73438 14.9062 2.29688 14.8125L3.04688 14.7188C3.17188 14.6875 3.26562 14.6406 3.32812 14.5781L3.79688 13.9219C4.17188 13.5156 4.60938 13.4062 5.10938 13.5938ZM3 19.5C3.03125 20.625 3.53125 21.4844 4.5 22.0781C5.5 22.6406 6.5 22.6406 7.5 22.0781C8.46875 21.4844 8.96875 20.625 9 19.5C8.96875 18.375 8.46875 17.5156 7.5 16.9219C6.5 16.3594 5.5 16.3594 4.5 16.9219C3.53125 17.5156 3.03125 18.375 3 19.5Z" fill="black" fill-opacity="0.72"/>
</g>
<defs>
<clipPath id="clip0_1731_6619">
<rect width="24" height="36" fill="white"/>
</clipPath>
</defs>
</svg>
