<svg width="14" height="22" viewBox="0 0 14 22" fill="none" xmlns="http://www.w3.org/2000/svg">
<g id="label-paired / sm / pen-circle-sm / bold" clip-path="url(#clip0_1731_2731)">
<path id="icon" d="M12.6875 10.75C12.6875 9.71094 12.4323 8.76302 11.9219 7.90625C11.4297 7.04948 10.737 6.35677 9.84375 5.82812C8.95052 5.31771 8.0026 5.0625 7 5.0625C5.9974 5.0625 5.04948 5.31771 4.15625 5.82812C3.26302 6.35677 2.57031 7.04948 2.07812 7.90625C1.56771 8.76302 1.3125 9.71094 1.3125 10.75C1.3125 11.7891 1.56771 12.737 2.07812 13.5938C2.57031 14.4505 3.26302 15.1432 4.15625 15.6719C5.04948 16.1823 5.9974 16.4375 7 16.4375C8.0026 16.4375 8.95052 16.1823 9.84375 15.6719C10.737 15.1432 11.4297 14.4505 11.9219 13.5938C12.4323 12.737 12.6875 11.7891 12.6875 10.75ZM0 10.75C0.0182292 9.47396 0.328125 8.30729 0.929688 7.25C1.54948 6.19271 2.40625 5.33594 3.5 4.67969C4.61198 4.0599 5.77865 3.75 7 3.75C8.22135 3.75 9.38802 4.0599 10.5 4.67969C11.5938 5.33594 12.4505 6.19271 13.0703 7.25C13.6719 8.30729 13.9818 9.47396 14 10.75C13.9818 12.026 13.6719 13.1927 13.0703 14.25C12.4505 15.3073 11.5938 16.1641 10.5 16.8203C9.38802 17.4401 8.22135 17.75 7 17.75C5.77865 17.75 4.61198 17.4401 3.5 16.8203C2.40625 16.1641 1.54948 15.3073 0.929688 14.25C0.328125 13.1927 0.0182292 12.026 0 10.75ZM9.78906 7.57812L10.1719 7.96094C10.3906 8.17969 10.5 8.4349 10.5 8.72656C10.5 9.01823 10.3906 9.28255 10.1719 9.51953L9.59766 10.0938L7.65625 8.15234L8.23047 7.57812C8.46745 7.35938 8.72266 7.25 8.99609 7.25C9.28776 7.25 9.55208 7.35938 9.78906 7.57812ZM4.15625 11.6523L7.02734 8.78125L8.96875 10.7227L6.09766 13.5938C5.98828 13.7031 5.85156 13.776 5.6875 13.8125L4.04688 14.2227C3.88281 14.2591 3.74609 14.2227 3.63672 14.1133C3.52734 14.0039 3.49089 13.8672 3.52734 13.7031L3.9375 12.0625C3.97396 11.8984 4.04688 11.7617 4.15625 11.6523Z" fill="black" fill-opacity="0.72"/>
</g>
<defs>
<clipPath id="clip0_1731_2731">
<rect width="14" height="22" fill="white"/>
</clipPath>
</defs>
</svg>
