<svg width="24" height="36" viewBox="0 0 24 36" fill="none" xmlns="http://www.w3.org/2000/svg">
<g id="label-paired / xl / gear-xl / regular" clip-path="url(#clip0_1731_5621)">
<path id="icon" d="M10.4531 7.78125L9.84375 9.98438C9.65625 10.5781 9.29688 11 8.76562 11.25C8.42188 11.4062 8.09375 11.5938 7.78125 11.8125C7.3125 12.125 6.78125 12.2344 6.1875 12.1406L3.89062 11.5781C3.82812 11.5469 3.76562 11.5469 3.70312 11.5781C3.45312 11.8906 3.21875 12.2344 3 12.6094L2.8125 12.9375C2.625 13.2812 2.45312 13.6406 2.29688 14.0156C2.29688 14.0781 2.32812 14.1406 2.39062 14.2031L3.98438 15.8906C4.39062 16.3281 4.57812 16.8438 4.54688 17.4375C4.51562 17.625 4.5 17.8125 4.5 18C4.5 18.1875 4.51562 18.3906 4.54688 18.6094C4.57812 19.1719 4.39062 19.6719 3.98438 20.1094L2.39062 21.7969C2.32812 21.8281 2.28125 21.8906 2.25 21.9844C2.40625 22.3594 2.59375 22.7188 2.8125 23.0625L3 23.3906C3.21875 23.7656 3.45312 24.1094 3.70312 24.4219C3.76562 24.4531 3.82812 24.4531 3.89062 24.4219L6.14062 23.8594C6.76562 23.7656 7.29688 23.875 7.73438 24.1875C8.07812 24.4062 8.42188 24.5938 8.76562 24.75C9.26562 25 9.625 25.4219 9.84375 26.0156L10.4531 28.2188C10.4844 28.2812 10.5312 28.3438 10.5938 28.4062C11.0625 28.4688 11.5312 28.5 12 28.5C12.4688 28.5 12.9375 28.4688 13.4062 28.4062C13.4688 28.3438 13.5156 28.2812 13.5469 28.2188L14.1562 26.0156C14.3438 25.4219 14.7031 25 15.2344 24.75C15.5781 24.5938 15.9219 24.4062 16.2656 24.1875C16.7344 23.875 17.25 23.7656 17.8125 23.8594L20.1094 24.4219C20.1719 24.4531 20.2344 24.4531 20.2969 24.4219C20.5469 24.1094 20.7812 23.7656 21 23.3906L21.1875 23.0625C21.375 22.7188 21.5469 22.3594 21.7031 21.9844C21.7031 21.8906 21.6719 21.8281 21.6094 21.7969L20.0156 20.1094C19.6094 19.6719 19.4375 19.1719 19.5 18.6094C19.5 18.3906 19.5 18.1875 19.5 18C19.5 17.8125 19.5 17.625 19.5 17.4375C19.4375 16.8438 19.6094 16.3281 20.0156 15.8906L21.6094 14.2031C21.6719 14.1719 21.7188 14.1094 21.75 14.0156C21.5938 13.6406 21.4062 13.2812 21.1875 12.9375L21 12.6094C20.7812 12.2344 20.5469 11.8906 20.2969 11.5781C20.2344 11.5469 20.1719 11.5469 20.1094 11.5781L17.8594 12.1406C17.2344 12.2344 16.7031 12.125 16.2656 11.8125C15.9219 11.5938 15.5781 11.4062 15.2344 11.25C14.7344 11 14.375 10.5938 14.1562 10.0312L13.5469 7.78125C13.5156 7.71875 13.4688 7.65625 13.4062 7.59375C12.9375 7.53125 12.4688 7.5 12 7.5C11.5312 7.5 11.0625 7.53125 10.5938 7.59375C10.5312 7.65625 10.4844 7.71875 10.4531 7.78125ZM12 6C12.625 6 13.2188 6.04688 13.7812 6.14062C13.875 6.14062 13.9531 6.17188 14.0156 6.23438C14.4844 6.45313 14.7969 6.82813 14.9531 7.35938L15.6094 9.60938C15.6406 9.70312 15.7344 9.79688 15.8906 9.89062C16.2969 10.0781 16.7031 10.3125 17.1094 10.5938C17.2344 10.6562 17.3594 10.6875 17.4844 10.6875L19.7344 10.125C20.2656 10 20.75 10.0781 21.1875 10.3594C21.25 10.3906 21.3125 10.4375 21.375 10.5C21.7188 10.9062 22.0312 11.3438 22.3125 11.8125L22.5 12.1875C22.75 12.6562 22.9688 13.1406 23.1562 13.6406C23.1875 13.7031 23.2188 13.7812 23.25 13.875C23.25 14.4062 23.0625 14.875 22.6875 15.2812L21.0938 16.9219C21 17.0156 20.9531 17.1406 20.9531 17.2969C20.9844 17.5156 21 17.75 21 18C21 18.25 20.9844 18.4844 20.9531 18.7031C20.9531 18.8594 21 18.9844 21.0938 19.0781L22.6875 20.7656C23.0625 21.1406 23.25 21.5938 23.25 22.125C23.2188 22.2188 23.1875 22.2969 23.1562 22.3594C22.9688 22.8594 22.75 23.3438 22.5 23.8125L22.3125 24.1875H22.2656C22.0156 24.6562 21.7188 25.0938 21.375 25.5C21.3125 25.5625 21.25 25.6094 21.1875 25.6406C20.75 25.9219 20.2656 26.0156 19.7344 25.9219L17.4844 25.3594C17.3594 25.3281 17.2344 25.3438 17.1094 25.4062C16.7031 25.6875 16.2969 25.9219 15.8906 26.1094C15.7344 26.2031 15.6406 26.2969 15.6094 26.3906L14.9531 28.6406C14.7969 29.1719 14.4844 29.5625 14.0156 29.8125C13.9531 29.8438 13.875 29.8594 13.7812 29.8594C13.2188 29.9531 12.625 30 12 30C11.375 30 10.7812 29.9531 10.2188 29.8594C10.125 29.8594 10.0469 29.8438 9.98438 29.8125C9.51562 29.5625 9.20312 29.1719 9.04688 28.6406L8.39062 26.3906C8.35938 26.2969 8.26562 26.2031 8.10938 26.1094C7.70312 25.9219 7.29688 25.6875 6.89062 25.4062C6.76562 25.3438 6.64062 25.3281 6.51562 25.3594L4.26562 25.9219C3.73438 26.0156 3.25 25.9375 2.8125 25.6875C2.75 25.625 2.6875 25.5625 2.625 25.5C2.28125 25.0938 1.98438 24.6562 1.73438 24.1875H1.6875L1.5 23.8125C1.25 23.3438 1.03125 22.8594 0.84375 22.3594C0.8125 22.2969 0.796875 22.2188 0.796875 22.125C0.765625 21.625 0.9375 21.1719 1.3125 20.7656L2.90625 19.0781C3 18.9844 3.04688 18.8594 3.04688 18.7031C3.01562 18.4844 3 18.25 3 18C3 17.875 3 17.7656 3 17.6719C3 17.5469 3.01562 17.4219 3.04688 17.2969C3.04688 17.1406 3 17.0156 2.90625 16.9219L1.3125 15.2812C0.9375 14.875 0.75 14.4062 0.75 13.875C0.78125 13.7812 0.8125 13.7031 0.84375 13.6406C1.03125 13.1406 1.25 12.6562 1.5 12.1875L1.6875 11.8125H1.73438C1.98438 11.3438 2.28125 10.9062 2.625 10.5C2.6875 10.4375 2.75 10.3906 2.8125 10.3594C3.25 10.0781 3.73438 10 4.26562 10.125L6.51562 10.6875C6.64062 10.6875 6.76562 10.6562 6.89062 10.5938C7.29688 10.3125 7.70312 10.0781 8.10938 9.89062C8.26562 9.79688 8.35938 9.70312 8.39062 9.60938L9.04688 7.35938C9.20312 6.82813 9.51562 6.45313 9.98438 6.23438C10.0469 6.17188 10.125 6.14062 10.2188 6.14062C10.7812 6.04688 11.375 6 12 6ZM9.375 18C9.40625 19 9.84375 19.75 10.6875 20.25C11.5625 20.75 12.4375 20.75 13.3125 20.25C14.1562 19.75 14.5938 19 14.625 18C14.5938 17 14.1562 16.25 13.3125 15.75C12.4375 15.25 11.5625 15.25 10.6875 15.75C9.84375 16.25 9.40625 17 9.375 18ZM16.125 18C16.0625 19.5625 15.375 20.75 14.0625 21.5625C12.6875 22.3125 11.3125 22.3125 9.9375 21.5625C8.625 20.75 7.9375 19.5625 7.875 18C7.9375 16.4375 8.625 15.25 9.9375 14.4375C11.3125 13.6875 12.6875 13.6875 14.0625 14.4375C15.375 15.25 16.0625 16.4375 16.125 18Z" fill="black" fill-opacity="0.72"/>
</g>
<defs>
<clipPath id="clip0_1731_5621">
<rect width="24" height="36" fill="white"/>
</clipPath>
</defs>
</svg>
