<svg width="18" height="22" viewBox="0 0 18 22" fill="none" xmlns="http://www.w3.org/2000/svg">
<g id="label-paired / sm / light-chart-line-up-down-clock-sm / bold" clip-path="url(#clip0_1731_2532)">
<path id="icon" d="M0.25 5.28125C0.25 4.92578 0.523438 4.625 0.90625 4.625C1.26172 4.625 1.5625 4.92578 1.5625 5.28125C1.5625 8.50781 1.5625 11.707 1.5625 14.9062C1.5625 15.2891 1.83594 15.5625 2.21875 15.5625C4.57031 15.5625 6.94922 15.5625 9.32812 15.5625C9.49219 16.0547 9.76562 16.4922 10.0938 16.875C7.46875 16.875 4.84375 16.875 2.21875 16.875C1.125 16.875 0.25 16 0.25 14.9062C0.25 11.707 0.25 8.50781 0.25 5.28125ZM3.28516 10.3125L5.47266 8.125C5.71875 7.85156 6.12891 7.85156 6.40234 8.125C6.97656 8.69922 7.55078 9.27344 8.125 9.84766C9.10938 8.83594 10.1211 7.82422 11.1328 6.8125C10.9141 6.8125 10.7227 6.8125 10.5312 6.8125C10.1484 6.8125 9.875 6.53906 9.875 6.15625C9.875 5.80078 10.1484 5.5 10.5312 5.5C11.2422 5.5 11.9805 5.5 12.7188 5.5C12.8828 5.5 13.0469 5.58203 13.1836 5.69141C13.293 5.82812 13.375 5.99219 13.375 6.15625C13.375 6.89453 13.375 7.63281 13.375 8.34375C13.375 8.72656 13.0742 9 12.7188 9C12.3359 9 12.0625 8.72656 12.0625 8.34375C12.0625 8.15234 12.0625 7.96094 12.0625 7.74219C10.8867 8.91797 9.73828 10.0664 8.58984 11.2148C8.31641 11.4883 7.90625 11.4883 7.66016 11.2148C7.08594 10.6406 6.51172 10.0664 5.9375 9.49219C5.36328 10.0664 4.78906 10.6406 4.21484 11.2148C3.94141 11.4883 3.53125 11.4883 3.28516 11.2148C3.01172 10.9688 3.01172 10.5586 3.28516 10.3125ZM9.875 13.8125C9.875 11.6523 11.625 9.875 13.8125 9.875C15.9727 9.875 17.75 11.6523 17.75 13.8125C17.75 16 15.9727 17.75 13.8125 17.75C11.625 17.75 9.875 16 9.875 13.8125ZM13.375 12.0625V13.8125C13.375 14.0586 13.5664 14.25 13.8125 14.25C14.25 14.25 14.6875 14.25 15.125 14.25C15.3438 14.25 15.5625 14.0586 15.5625 13.8125C15.5625 13.5938 15.3438 13.375 15.125 13.375C14.8242 13.375 14.5234 13.375 14.25 13.375C14.25 12.9375 14.25 12.5 14.25 12.0625C14.25 11.8438 14.0312 11.625 13.8125 11.625C13.5664 11.625 13.375 11.8438 13.375 12.0625Z" fill="black" fill-opacity="0.72"/>
</g>
<defs>
<clipPath id="clip0_1731_2532">
<rect width="18" height="22" fill="white"/>
</clipPath>
</defs>
</svg>
