<svg width="18" height="22" viewBox="0 0 18 22" fill="none" xmlns="http://www.w3.org/2000/svg">
<g id="label-paired / sm / bell-on-sm / regular" clip-path="url(#clip0_1731_2551)">
<path id="icon" d="M16.8203 3.99609C16.9297 4.23307 16.8659 4.42448 16.6289 4.57031L14.8789 5.44531C14.6237 5.55469 14.4323 5.49089 14.3047 5.25391C14.1953 4.9987 14.2591 4.80729 14.4961 4.67969L16.2461 3.80469C16.4831 3.69531 16.6745 3.75911 16.8203 3.99609ZM8.5625 4.1875C8.58073 3.91406 8.72656 3.76823 9 3.75C9.27344 3.76823 9.41927 3.91406 9.4375 4.1875V4.65234C10.5677 4.77995 11.4974 5.24479 12.2266 6.04688C12.974 6.84896 13.3568 7.83333 13.375 9V9.79297C13.3932 11.0326 13.8307 12.099 14.6875 12.9922L14.7695 13.0742C15.0065 13.3112 15.125 13.5938 15.125 13.9219C15.125 14.2682 15.0065 14.5508 14.7695 14.7695C14.5508 15.0065 14.2682 15.125 13.9219 15.125H4.07812C3.73177 15.125 3.44922 15.0065 3.23047 14.7695C2.99349 14.5508 2.875 14.2682 2.875 13.9219C2.875 13.5938 2.99349 13.3021 3.23047 13.0469L3.3125 12.9922C4.16927 12.099 4.60677 11.0326 4.625 9.79297V9C4.66146 7.83333 5.04427 6.84896 5.77344 6.04688C6.5026 5.24479 7.43229 4.77995 8.5625 4.65234V4.1875ZM9 5.5C8.01562 5.51823 7.1862 5.85547 6.51172 6.51172C5.85547 7.1862 5.51823 8.01562 5.5 9V9.79297C5.48177 11.2695 4.95312 12.5365 3.91406 13.5938L3.85938 13.6758C3.78646 13.7487 3.75 13.8307 3.75 13.9219C3.76823 14.1224 3.8776 14.2318 4.07812 14.25H13.9219C14.1224 14.2318 14.2318 14.1224 14.25 13.9219C14.25 13.8307 14.2135 13.7487 14.1406 13.6758L14.0859 13.5938C13.0469 12.5365 12.5182 11.2695 12.5 9.79297V9C12.4818 8.01562 12.1354 7.1862 11.4609 6.51172C10.8047 5.85547 9.98438 5.51823 9 5.5ZM8.17969 16.3008C8.32552 16.6654 8.59896 16.8568 9 16.875C9.40104 16.8568 9.67448 16.6654 9.82031 16.3008C9.92969 16.0456 10.1211 15.9544 10.3945 16.0273C10.6315 16.1367 10.7135 16.319 10.6406 16.5742C10.513 16.9206 10.3034 17.2031 10.0117 17.4219C9.72005 17.6406 9.38281 17.75 9 17.75C8.61719 17.75 8.27995 17.6406 7.98828 17.4219C7.69661 17.2031 7.48698 16.9206 7.35938 16.5742C7.28646 16.319 7.36849 16.1367 7.60547 16.0273C7.87891 15.9544 8.07031 16.0456 8.17969 16.3008ZM0.25 8.5625C0.268229 8.28906 0.414062 8.14323 0.6875 8.125H2.875C3.14844 8.14323 3.29427 8.28906 3.3125 8.5625C3.29427 8.83594 3.14844 8.98177 2.875 9H0.6875C0.414062 8.98177 0.268229 8.83594 0.25 8.5625ZM15.125 8.125H17.3125C17.5859 8.14323 17.7318 8.28906 17.75 8.5625C17.7318 8.83594 17.5859 8.98177 17.3125 9H15.125C14.8516 8.98177 14.7057 8.83594 14.6875 8.5625C14.7057 8.28906 14.8516 8.14323 15.125 8.125ZM1.37109 4.57031C1.13411 4.42448 1.07031 4.23307 1.17969 3.99609C1.30729 3.75911 1.4987 3.69531 1.75391 3.80469L3.50391 4.67969C3.74089 4.80729 3.80469 4.9987 3.69531 5.25391C3.56771 5.49089 3.3763 5.55469 3.12109 5.44531L1.37109 4.57031Z" fill="black" fill-opacity="0.72"/>
</g>
<defs>
<clipPath id="clip0_1731_2551">
<rect width="18" height="22" fill="white"/>
</clipPath>
</defs>
</svg>
