<svg width="18" height="36" viewBox="0 0 18 36" fill="none" xmlns="http://www.w3.org/2000/svg">
<g id="label-paired / xl / file-circle-check-xl / bold" clip-path="url(#clip0_1731_6540)">
<path id="icon" d="M3 27.75H15C15.4688 27.7188 15.7188 27.4688 15.75 27V13.5H12C11.5625 13.5 11.2031 13.3594 10.9219 13.0781C10.6406 12.7969 10.5 12.4375 10.5 12V8.25H3C2.53125 8.28125 2.28125 8.53125 2.25 9V27C2.28125 27.4688 2.53125 27.7188 3 27.75ZM3 6H10.7812C11.5938 6 12.2969 6.29687 12.8906 6.89062L17.1094 11.1094C17.7031 11.7031 18 12.4219 18 13.2656V27C17.9688 27.8438 17.6719 28.5469 17.1094 29.1094C16.5469 29.6719 15.8438 29.9688 15 30H3C2.15625 29.9688 1.45312 29.6719 0.890625 29.1094C0.328125 28.5469 0.03125 27.8438 0 27V9C0.03125 8.15625 0.328125 7.45312 0.890625 6.89062C1.45312 6.32812 2.15625 6.03125 3 6ZM13.5469 18.5625L8.53125 23.5312C8.3125 23.75 8.04688 23.8594 7.73438 23.8594C7.42188 23.8594 7.15625 23.75 6.9375 23.5312L4.45312 21.0469C4.01562 20.5156 4.01562 19.9844 4.45312 19.4531C4.98438 19.0156 5.51562 19.0156 6.04688 19.4531L7.73438 21.1406L11.9531 16.9688C12.4844 16.5312 13.0156 16.5312 13.5469 16.9688C13.9844 17.5 13.9844 18.0312 13.5469 18.5625Z" fill="black" fill-opacity="0.72"/>
</g>
<defs>
<clipPath id="clip0_1731_6540">
<rect width="18" height="36" fill="white"/>
</clipPath>
</defs>
</svg>
