<svg width="16" height="22" viewBox="0 0 16 22" fill="none" xmlns="http://www.w3.org/2000/svg">
<g id="label-paired / sm / presentation-screen-sm / regular" clip-path="url(#clip0_1731_2586)">
<path id="icon" d="M0.5625 3.75H15.4375C15.7109 3.76823 15.8568 3.91406 15.875 4.1875C15.8568 4.46094 15.7109 4.60677 15.4375 4.625H0.5625C0.289062 4.60677 0.143229 4.46094 0.125 4.1875C0.143229 3.91406 0.289062 3.76823 0.5625 3.75ZM1 5.5H1.875V11.625C1.875 11.8802 1.95703 12.0898 2.12109 12.2539C2.28516 12.418 2.49479 12.5 2.75 12.5H8H13.25C13.5052 12.5 13.7148 12.418 13.8789 12.2539C14.043 12.0898 14.125 11.8802 14.125 11.625V5.5H15V11.625C14.9818 12.1172 14.8086 12.5273 14.4805 12.8555C14.1523 13.1836 13.7422 13.3568 13.25 13.375H8.4375V14.4961L10.9258 17.0117C11.1081 17.2122 11.1081 17.4128 10.9258 17.6133C10.7253 17.7956 10.5247 17.7956 10.3242 17.6133L8 15.3164L5.67578 17.6133C5.47526 17.7956 5.27474 17.7956 5.07422 17.6133C4.89193 17.4128 4.89193 17.2122 5.07422 17.0117L7.5625 14.4961V13.375H2.75C2.25781 13.3568 1.84766 13.1836 1.51953 12.8555C1.19141 12.5273 1.01823 12.1172 1 11.625V5.5Z" fill="black" fill-opacity="0.72"/>
</g>
<defs>
<clipPath id="clip0_1731_2586">
<rect width="16" height="22" fill="white"/>
</clipPath>
</defs>
</svg>
