<svg width="9" height="22" viewBox="0 0 9 22" fill="none" xmlns="http://www.w3.org/2000/svg">
<g id="label-paired / sm / nine-sm / bold" clip-path="url(#clip0_1731_2295)">
<path id="icon" d="M1.4375 9C1.45573 9.875 1.75651 10.5951 2.33984 11.1602C2.90495 11.7435 3.625 12.0443 4.5 12.0625C5.41146 12.0443 6.15885 11.7161 6.74219 11.0781L6.87891 10.9141C7.33464 10.349 7.5625 9.71094 7.5625 9C7.54427 8.125 7.24349 7.40495 6.66016 6.83984C6.09505 6.25651 5.375 5.95573 4.5 5.9375C3.625 5.95573 2.90495 6.25651 2.33984 6.83984C1.75651 7.40495 1.45573 8.125 1.4375 9ZM4.88281 13.3477C4.75521 13.3659 4.6276 13.375 4.5 13.375C3.26042 13.3385 2.23047 12.9102 1.41016 12.0898C0.589844 11.2695 0.161458 10.2396 0.125 9C0.161458 7.76042 0.589844 6.73047 1.41016 5.91016C2.23047 5.08984 3.26042 4.66146 4.5 4.625C5.73958 4.66146 6.76953 5.08984 7.58984 5.91016C8.41016 6.73047 8.83854 7.76042 8.875 9C8.85677 10.1667 8.47396 11.151 7.72656 11.9531L3.92578 16.6289C3.63411 16.9206 3.32422 16.957 2.99609 16.7383C2.70443 16.4466 2.66797 16.1367 2.88672 15.8086L4.88281 13.3477Z" fill="black" fill-opacity="0.72"/>
</g>
<defs>
<clipPath id="clip0_1731_2295">
<rect width="9" height="22" fill="white"/>
</clipPath>
</defs>
</svg>
