<svg width="18" height="36" viewBox="0 0 18 36" fill="none" xmlns="http://www.w3.org/2000/svg">
<g id="label-paired / xl / computer-mouse-scrollwheel-xl / regular" clip-path="url(#clip0_1731_6431)">
<path id="icon" d="M16.5 22.5V13.5C16.4688 11.8125 15.8906 10.3906 14.7656 9.23438C13.6094 8.10938 12.1875 7.53125 10.5 7.5H7.5C5.8125 7.53125 4.39062 8.10938 3.23438 9.23438C2.10938 10.3906 1.53125 11.8125 1.5 13.5V22.5C1.53125 24.1875 2.10938 25.6094 3.23438 26.7656C4.39062 27.8906 5.8125 28.4688 7.5 28.5H10.5C12.1875 28.4688 13.6094 27.8906 14.7656 26.7656C15.8906 25.6094 16.4688 24.1875 16.5 22.5ZM0 13.5C0.0625 11.375 0.796875 9.60938 2.20312 8.20312C3.60938 6.79688 5.375 6.0625 7.5 6H10.5C12.625 6.0625 14.3906 6.79688 15.7969 8.20312C17.2031 9.60938 17.9375 11.375 18 13.5V22.5C17.9375 24.625 17.2031 26.3906 15.7969 27.7969C14.3906 29.2031 12.625 29.9375 10.5 30H7.5C5.375 29.9375 3.60938 29.2031 2.20312 27.7969C0.796875 26.3906 0.0625 24.625 0 22.5V13.5ZM9.75 11.25V14.25C9.71875 14.7188 9.46875 14.9688 9 15C8.53125 14.9688 8.28125 14.7188 8.25 14.25V11.25C8.28125 10.7812 8.53125 10.5312 9 10.5C9.46875 10.5312 9.71875 10.7812 9.75 11.25Z" fill="black" fill-opacity="0.72"/>
</g>
<defs>
<clipPath id="clip0_1731_6431">
<rect width="18" height="36" fill="white"/>
</clipPath>
</defs>
</svg>
