<svg width="20" height="24" viewBox="0 0 20 24" fill="none" xmlns="http://www.w3.org/2000/svg">
<g id="label-paired / md / wallet-circle-minus-md / bold" clip-path="url(#clip0_1731_4190)">
<path id="icon" d="M0 7.75C0 6.25 1.21875 5 2.75 5C6.5625 5 10.4062 5 14.25 5C14.6562 5 15 5.34375 15 5.75C15 6.1875 14.6562 6.5 14.25 6.5C10.4062 6.5 6.5625 6.5 2.75 6.5C2.03125 6.5 1.5 7.0625 1.5 7.75C1.5 10.5938 1.5 13.4375 1.5 16.25C1.5 16.9688 2.03125 17.5 2.75 17.5C5.28125 17.5 7.8125 17.5 10.375 17.5C10.5625 18.0625 10.875 18.5625 11.25 19C8.40625 19 5.5625 19 2.75 19C1.21875 19 0 17.7812 0 16.25C0 13.4375 0 10.5938 0 7.75ZM3 8.75C3 8.34375 3.3125 8 3.75 8C6.90625 8 10.0625 8 13.25 8C14.5 8 15.5625 8.875 15.875 10.0312C15.75 10.0312 15.625 10 15.5 10C15.0938 10 14.6875 10.0625 14.3125 10.125C14.0938 9.78125 13.6875 9.5 13.25 9.5C10.0625 9.5 6.90625 9.5 3.75 9.5C3.3125 9.5 3 9.1875 3 8.75ZM11 15.5C11 13.0312 13 11 15.5 11C17.9688 11 20 13.0312 20 15.5C20 18 17.9688 20 15.5 20C13 20 11 18 11 15.5ZM13 15.5C13 15.7812 13.2188 16 13.5 16C14.8125 16 16.1562 16 17.5 16C17.75 16 18 15.7812 18 15.5C18 15.25 17.75 15 17.5 15C16.1562 15 14.8125 15 13.5 15C13.2188 15 13 15.25 13 15.5Z" fill="black" fill-opacity="0.72"/>
</g>
<defs>
<clipPath id="clip0_1731_4190">
<rect width="20" height="24" fill="white"/>
</clipPath>
</defs>
</svg>
