<svg width="10" height="24" viewBox="0 0 10 24" fill="none" xmlns="http://www.w3.org/2000/svg">
<g id="label-paired / md / zero-md / regular" clip-path="url(#clip0_1731_3556)">
<path id="icon" d="M0 10C0.0416667 8.58333 0.53125 7.40625 1.46875 6.46875C2.40625 5.53125 3.58333 5.04167 5 5C6.41667 5.04167 7.59375 5.53125 8.53125 6.46875C9.46875 7.40625 9.95833 8.58333 10 10V14C9.95833 15.4167 9.46875 16.5938 8.53125 17.5312C7.59375 18.4688 6.41667 18.9583 5 19C3.58333 18.9583 2.40625 18.4688 1.46875 17.5312C0.53125 16.5938 0.0416667 15.4167 0 14V10ZM5 6C3.875 6.02083 2.92708 6.40625 2.15625 7.15625C1.40625 7.92708 1.02083 8.875 1 10V14C1.02083 15.125 1.40625 16.0729 2.15625 16.8438C2.92708 17.5938 3.875 17.9792 5 18C6.125 17.9792 7.07292 17.5938 7.84375 16.8438C8.59375 16.0729 8.97917 15.125 9 14V10C8.97917 8.875 8.59375 7.92708 7.84375 7.15625C7.07292 6.40625 6.125 6.02083 5 6Z" fill="black" fill-opacity="0.72"/>
</g>
<defs>
<clipPath id="clip0_1731_3556">
<rect width="10" height="24" fill="white"/>
</clipPath>
</defs>
</svg>
