<svg width="20" height="30" viewBox="0 0 20 30" fill="none" xmlns="http://www.w3.org/2000/svg">
<g id="label-paired / lg / pen-circle-lg / regular" clip-path="url(#clip0_1731_4939)">
<path id="icon" d="M18.75 15.5C18.724 13.9115 18.3333 12.4531 17.5781 11.125C16.7969 9.79688 15.7292 8.72917 14.375 7.92188C12.9948 7.14062 11.5365 6.75 10 6.75C8.46354 6.75 7.00521 7.14062 5.625 7.92188C4.27083 8.72917 3.20312 9.79688 2.42188 11.125C1.66667 12.4531 1.27604 13.9115 1.25 15.5C1.27604 17.0885 1.66667 18.5469 2.42188 19.875C3.20312 21.2031 4.27083 22.2708 5.625 23.0781C7.00521 23.8594 8.46354 24.25 10 24.25C11.5365 24.25 12.9948 23.8594 14.375 23.0781C15.7292 22.2708 16.7969 21.2031 17.5781 19.875C18.3333 18.5469 18.724 17.0885 18.75 15.5ZM0 15.5C0.0260417 13.6771 0.46875 12.0104 1.32812 10.5C2.21354 8.98958 3.4375 7.76562 5 6.82812C6.58854 5.94271 8.25521 5.5 10 5.5C11.7448 5.5 13.4115 5.94271 15 6.82812C16.5625 7.76562 17.7865 8.98958 18.6719 10.5C19.5312 12.0104 19.974 13.6771 20 15.5C19.974 17.3229 19.5312 18.9896 18.6719 20.5C17.7865 22.0104 16.5625 23.2344 15 24.1719C13.4115 25.0573 11.7448 25.5 10 25.5C8.25521 25.5 6.58854 25.0573 5 24.1719C3.4375 23.2344 2.21354 22.0104 1.32812 20.5C0.46875 18.9896 0.0260417 17.3229 0 15.5ZM12.9688 11.8672C12.6562 11.6328 12.3568 11.6328 12.0703 11.8672L11.25 12.7266L12.8125 14.2891L13.6328 13.4297C13.8672 13.1432 13.8672 12.8568 13.6328 12.5703L12.9688 11.8672ZM7.14844 16.8281C7.04427 16.9062 6.97917 16.9974 6.95312 17.1016L6.48438 19.0156L8.39844 18.5469C8.5026 18.5208 8.59375 18.4688 8.67188 18.3906L11.9141 15.1484L10.3516 13.5859L7.10938 16.8281H7.14844ZM11.1719 11.0078C11.5625 10.6432 12.0052 10.4609 12.5 10.4609C12.9948 10.4609 13.4375 10.6432 13.8281 11.0078L14.5312 11.6719C14.8958 12.0625 15.0781 12.5052 15.0781 13C15.0781 13.4948 14.8958 13.9375 14.5312 14.3281L9.57031 19.25C9.33594 19.5104 9.04948 19.6797 8.71094 19.7578L5.78125 20.5C5.54688 20.5521 5.35156 20.487 5.19531 20.3047C5.03906 20.1484 4.98698 19.9531 5.03906 19.7188L5.74219 16.7891C5.84635 16.4766 6.01562 16.1901 6.25 15.9297L11.1719 11.0078Z" fill="black" fill-opacity="0.72"/>
</g>
<defs>
<clipPath id="clip0_1731_4939">
<rect width="20" height="30" fill="white"/>
</clipPath>
</defs>
</svg>
