<svg width="14" height="24" viewBox="0 0 14 24" fill="none" xmlns="http://www.w3.org/2000/svg">
<g id="label-paired / md / lock-md / regular" clip-path="url(#clip0_1731_4091)">
<path id="icon" d="M4 8V10H10V8C9.97917 7.14583 9.6875 6.4375 9.125 5.875C8.5625 5.3125 7.85417 5.02083 7 5C6.14583 5.02083 5.4375 5.3125 4.875 5.875C4.3125 6.4375 4.02083 7.14583 4 8ZM3 10V8C3.02083 6.875 3.40625 5.92708 4.15625 5.15625C4.92708 4.40625 5.875 4.02083 7 4C8.125 4.02083 9.07292 4.40625 9.84375 5.15625C10.5938 5.92708 10.9792 6.875 11 8V10H11.5C12.2083 10.0208 12.8021 10.2604 13.2812 10.7188C13.7396 11.1979 13.9792 11.7917 14 12.5V17.5C13.9792 18.2083 13.7396 18.8021 13.2812 19.2812C12.8021 19.7396 12.2083 19.9792 11.5 20H2.5C1.79167 19.9792 1.19792 19.7396 0.71875 19.2812C0.260417 18.8021 0.0208333 18.2083 0 17.5V12.5C0.0208333 11.7917 0.260417 11.1979 0.71875 10.7188C1.19792 10.2604 1.79167 10.0208 2.5 10H3ZM1 12.5V17.5C1.02083 17.9167 1.16667 18.2708 1.4375 18.5625C1.72917 18.8333 2.08333 18.9792 2.5 19H11.5C11.9167 18.9792 12.2708 18.8333 12.5625 18.5625C12.8333 18.2708 12.9792 17.9167 13 17.5V12.5C12.9792 12.0833 12.8333 11.7292 12.5625 11.4375C12.2708 11.1667 11.9167 11.0208 11.5 11H2.5C2.08333 11.0208 1.72917 11.1667 1.4375 11.4375C1.16667 11.7292 1.02083 12.0833 1 12.5Z" fill="black" fill-opacity="0.72"/>
</g>
<defs>
<clipPath id="clip0_1731_4091">
<rect width="14" height="24" fill="white"/>
</clipPath>
</defs>
</svg>
