<svg width="12" height="24" viewBox="0 0 12 24" fill="none" xmlns="http://www.w3.org/2000/svg">
<g id="label-paired / md / four-md / regular" clip-path="url(#clip0_1731_3526)">
<path id="icon" d="M5.4375 5.71875L1.3125 14H9V8.5C9.02083 8.1875 9.1875 8.02083 9.5 8C9.8125 8.02083 9.97917 8.1875 10 8.5V14H11.5C11.8125 14.0208 11.9792 14.1875 12 14.5C11.9792 14.8125 11.8125 14.9792 11.5 15H10V18.5C9.97917 18.8125 9.8125 18.9792 9.5 19C9.1875 18.9792 9.02083 18.8125 9 18.5V15H0.5C0.3125 15 0.166667 14.9271 0.0625 14.7812C-0.0208333 14.6146 -0.0208333 14.4479 0.0625 14.2812L4.5625 5.28125C4.70833 5.01042 4.92708 4.9375 5.21875 5.0625C5.48958 5.22917 5.5625 5.44792 5.4375 5.71875Z" fill="black" fill-opacity="0.72"/>
</g>
<defs>
<clipPath id="clip0_1731_3526">
<rect width="12" height="24" fill="white"/>
</clipPath>
</defs>
</svg>
