<svg width="15" height="36" viewBox="0 0 15 36" fill="none" xmlns="http://www.w3.org/2000/svg">
<g id="label-paired / xl / sort-xl / bold" clip-path="url(#clip0_1731_6130)">
<path id="icon" d="M3.32812 14.25H11.6719L7.5 10.0781L3.32812 14.25ZM8.57812 7.92188L14.5781 13.9219C15.0156 14.4219 15.125 14.9688 14.9062 15.5625C14.625 16.1562 14.1562 16.4688 13.5 16.5H1.5C0.84375 16.4688 0.375 16.1562 0.09375 15.5625C-0.125 14.9688 -0.015625 14.4219 0.421875 13.9219L6.42188 7.92188C6.73438 7.64062 7.09375 7.5 7.5 7.5C7.90625 7.5 8.26562 7.64062 8.57812 7.92188ZM3.32812 21.75L7.5 25.9219L11.6719 21.75H3.32812ZM8.57812 28.0781C8.26562 28.3594 7.90625 28.5 7.5 28.5C7.09375 28.5 6.73438 28.3594 6.42188 28.0781L0.421875 22.0781C-0.015625 21.5781 -0.125 21.0312 0.09375 20.4375C0.375 19.8438 0.84375 19.5312 1.5 19.5H13.5C14.1562 19.5312 14.625 19.8438 14.9062 20.4375C15.125 21.0312 15.0156 21.5781 14.5781 22.0781L8.57812 28.0781Z" fill="black" fill-opacity="0.72"/>
</g>
<defs>
<clipPath id="clip0_1731_6130">
<rect width="15" height="36" fill="white"/>
</clipPath>
</defs>
</svg>
