<svg width="15" height="18" viewBox="0 0 15 18" fill="none" xmlns="http://www.w3.org/2000/svg">
<g id="label-paired / caption / chart-trend-up-caption / regular" clip-path="url(#clip0_1885_525)">
<path id="icon" d="M14.4141 3.92188C14.6016 4.01562 14.6719 4.25 14.5781 4.4375L12.3281 8.9375C12.2578 9.05469 12.1406 9.125 12 9.125H8.46094L5.57812 14.9375C5.48438 15.125 5.25 15.1953 5.0625 15.1016L0.5625 12.8516C0.375 12.7578 0.304688 12.5234 0.398438 12.3359C0.492188 12.1484 0.726562 12.0781 0.914062 12.1719L5.0625 14.2578L7.89844 8.58594C7.96875 8.46875 8.08594 8.375 8.25 8.375H11.7656L13.8984 4.08594C13.9922 3.89844 14.2266 3.82812 14.4141 3.92188Z" fill="black" fill-opacity="0.72"/>
</g>
<defs>
<clipPath id="clip0_1885_525">
<rect width="15" height="18" fill="white"/>
</clipPath>
</defs>
</svg>
