<svg width="30" height="36" viewBox="0 0 30 36" fill="none" xmlns="http://www.w3.org/2000/svg">
<g id="label-paired / xl / bell-on-xl / regular" clip-path="url(#clip0_1731_6325)">
<path id="icon" d="M28.4062 6.42188C28.5938 6.82813 28.4844 7.15625 28.0781 7.40625L25.0781 8.90625C24.6406 9.09375 24.3125 8.98438 24.0938 8.57812C23.9062 8.14062 24.0156 7.8125 24.4219 7.59375L27.4219 6.09375C27.8281 5.90625 28.1562 6.01562 28.4062 6.42188ZM14.25 6.75C14.2812 6.28125 14.5312 6.03125 15 6C15.4688 6.03125 15.7188 6.28125 15.75 6.75V7.54688C17.6875 7.76563 19.2812 8.5625 20.5312 9.9375C21.8125 11.3125 22.4688 13 22.5 15V16.3594C22.5312 18.4844 23.2812 20.3125 24.75 21.8438L24.8906 21.9844C25.2969 22.3906 25.5 22.875 25.5 23.4375C25.5 24.0312 25.2969 24.5156 24.8906 24.8906C24.5156 25.2969 24.0312 25.5 23.4375 25.5H6.5625C5.96875 25.5 5.48438 25.2969 5.10938 24.8906C4.70312 24.5156 4.5 24.0312 4.5 23.4375C4.5 22.875 4.70312 22.375 5.10938 21.9375L5.25 21.8438C6.71875 20.3125 7.46875 18.4844 7.5 16.3594V15C7.5625 13 8.21875 11.3125 9.46875 9.9375C10.7188 8.5625 12.3125 7.76563 14.25 7.54688V6.75ZM15 9C13.3125 9.03125 11.8906 9.60938 10.7344 10.7344C9.60938 11.8906 9.03125 13.3125 9 15V16.3594C8.96875 18.8906 8.0625 21.0625 6.28125 22.875L6.1875 23.0156C6.0625 23.1406 6 23.2812 6 23.4375C6.03125 23.7812 6.21875 23.9688 6.5625 24H23.4375C23.7812 23.9688 23.9688 23.7812 24 23.4375C24 23.2812 23.9375 23.1406 23.8125 23.0156L23.7188 22.875C21.9375 21.0625 21.0312 18.8906 21 16.3594V15C20.9688 13.3125 20.375 11.8906 19.2188 10.7344C18.0938 9.60938 16.6875 9.03125 15 9ZM13.5938 27.5156C13.8438 28.1406 14.3125 28.4688 15 28.5C15.6875 28.4688 16.1562 28.1406 16.4062 27.5156C16.5938 27.0781 16.9219 26.9219 17.3906 27.0469C17.7969 27.2344 17.9375 27.5469 17.8125 27.9844C17.5938 28.5781 17.2344 29.0625 16.7344 29.4375C16.2344 29.8125 15.6562 30 15 30C14.3438 30 13.7656 29.8125 13.2656 29.4375C12.7656 29.0625 12.4062 28.5781 12.1875 27.9844C12.0625 27.5469 12.2031 27.2344 12.6094 27.0469C13.0781 26.9219 13.4062 27.0781 13.5938 27.5156ZM0 14.25C0.03125 13.7812 0.28125 13.5312 0.75 13.5H4.5C4.96875 13.5312 5.21875 13.7812 5.25 14.25C5.21875 14.7188 4.96875 14.9688 4.5 15H0.75C0.28125 14.9688 0.03125 14.7188 0 14.25ZM25.5 13.5H29.25C29.7188 13.5312 29.9688 13.7812 30 14.25C29.9688 14.7188 29.7188 14.9688 29.25 15H25.5C25.0312 14.9688 24.7812 14.7188 24.75 14.25C24.7812 13.7812 25.0312 13.5312 25.5 13.5ZM1.92188 7.40625C1.51562 7.15625 1.40625 6.82813 1.59375 6.42188C1.8125 6.01562 2.14062 5.90625 2.57812 6.09375L5.57812 7.59375C5.98438 7.8125 6.09375 8.14062 5.90625 8.57812C5.6875 8.98438 5.35938 9.09375 4.92188 8.90625L1.92188 7.40625Z" fill="black" fill-opacity="0.72"/>
</g>
<defs>
<clipPath id="clip0_1731_6325">
<rect width="30" height="36" fill="white"/>
</clipPath>
</defs>
</svg>
