<svg width="14" height="18" viewBox="0 0 14 18" fill="none" xmlns="http://www.w3.org/2000/svg">
<g id="label-paired / caption / arrow-up-arrow-down-caption / bold" clip-path="url(#clip0_1731_1128)">
<path id="icon" d="M12.6484 12.3359L10.3984 14.5859C10.1328 14.8047 9.86719 14.8047 9.60156 14.5859L7.35156 12.3359C7.13281 12.0703 7.13281 11.8047 7.35156 11.5391C7.61719 11.3203 7.88281 11.3203 8.14844 11.5391L9.4375 12.8281V4.8125C9.46875 4.46875 9.65625 4.28125 10 4.25C10.3438 4.28125 10.5312 4.46875 10.5625 4.8125V12.8281L11.8516 11.5391C12.1172 11.3203 12.3828 11.3203 12.6484 11.5391C12.8672 11.8047 12.8672 12.0703 12.6484 12.3359ZM4.39844 4.41406L6.64844 6.66406C6.86719 6.92969 6.86719 7.19531 6.64844 7.46094C6.38281 7.67969 6.11719 7.67969 5.85156 7.46094L4.5625 6.17188V14.1875C4.53125 14.5312 4.34375 14.7188 4 14.75C3.65625 14.7188 3.46875 14.5312 3.4375 14.1875V6.17188L2.14844 7.46094C1.88281 7.67969 1.61719 7.67969 1.35156 7.46094C1.13281 7.19531 1.13281 6.92969 1.35156 6.66406L3.60156 4.41406C3.86719 4.19531 4.13281 4.19531 4.39844 4.41406Z" fill="black" fill-opacity="0.72"/>
</g>
<defs>
<clipPath id="clip0_1731_1128">
<rect width="14" height="18" fill="white"/>
</clipPath>
</defs>
</svg>
