<svg width="21" height="36" viewBox="0 0 21 36" fill="none" xmlns="http://www.w3.org/2000/svg">
<g id="label-paired / xl / placeholder-xl / regular" clip-path="url(#clip0_1731_5560)">
<path id="icon" d="M4.125 7.5H5.25C5.71875 7.53125 5.96875 7.78125 6 8.25C5.96875 8.71875 5.71875 8.96875 5.25 9H4.125C3.375 9.03125 2.75 9.28125 2.25 9.75C1.78125 10.25 1.53125 10.875 1.5 11.625V12.75C1.46875 13.2188 1.21875 13.4688 0.75 13.5C0.28125 13.4688 0.03125 13.2188 0 12.75V11.625C0.03125 10.4688 0.4375 9.5 1.21875 8.71875C2 7.9375 2.96875 7.53125 4.125 7.5ZM0.75 15C1.21875 15.0312 1.46875 15.2812 1.5 15.75V20.25C1.46875 20.7188 1.21875 20.9688 0.75 21C0.28125 20.9688 0.03125 20.7188 0 20.25V15.75C0.03125 15.2812 0.28125 15.0312 0.75 15ZM20.25 15C20.7188 15.0312 20.9688 15.2812 21 15.75V20.25C20.9688 20.7188 20.7188 20.9688 20.25 21C19.7812 20.9688 19.5312 20.7188 19.5 20.25V15.75C19.5312 15.2812 19.7812 15.0312 20.25 15ZM20.25 13.5C19.7812 13.4688 19.5312 13.2188 19.5 12.75V11.625C19.4688 10.875 19.2188 10.25 18.75 9.75C18.25 9.28125 17.625 9.03125 16.875 9H15.75C15.2812 8.96875 15.0312 8.71875 15 8.25C15.0312 7.78125 15.2812 7.53125 15.75 7.5H16.875C18.0312 7.53125 19 7.9375 19.7812 8.71875C20.5625 9.5 20.9688 10.4688 21 11.625V12.75C20.9688 13.2188 20.7188 13.4688 20.25 13.5ZM21 23.25V24.375C20.9688 25.5312 20.5625 26.5 19.7812 27.2812C19 28.0625 18.0312 28.4688 16.875 28.5H15.75C15.2812 28.4688 15.0312 28.2188 15 27.75C15.0312 27.2812 15.2812 27.0312 15.75 27H16.875C17.625 26.9688 18.25 26.7188 18.75 26.25C19.2188 25.75 19.4688 25.125 19.5 24.375V23.25C19.5312 22.7812 19.7812 22.5312 20.25 22.5C20.7188 22.5312 20.9688 22.7812 21 23.25ZM1.5 23.25V24.375C1.53125 25.125 1.78125 25.75 2.25 26.25C2.75 26.7188 3.375 26.9688 4.125 27H5.25C5.71875 27.0312 5.96875 27.2812 6 27.75C5.96875 28.2188 5.71875 28.4688 5.25 28.5H4.125C2.96875 28.4688 2 28.0625 1.21875 27.2812C0.4375 26.5 0.03125 25.5312 0 24.375V23.25C0.03125 22.7812 0.28125 22.5312 0.75 22.5C1.21875 22.5312 1.46875 22.7812 1.5 23.25ZM8.25 28.5C7.78125 28.4688 7.53125 28.2188 7.5 27.75C7.53125 27.2812 7.78125 27.0312 8.25 27H12.75C13.2188 27.0312 13.4688 27.2812 13.5 27.75C13.4688 28.2188 13.2188 28.4688 12.75 28.5H8.25ZM7.5 8.25C7.53125 7.78125 7.78125 7.53125 8.25 7.5H12.75C13.2188 7.53125 13.4688 7.78125 13.5 8.25C13.4688 8.71875 13.2188 8.96875 12.75 9H8.25C7.78125 8.96875 7.53125 8.71875 7.5 8.25Z" fill="black" fill-opacity="0.72"/>
</g>
<defs>
<clipPath id="clip0_1731_5560">
<rect width="21" height="36" fill="white"/>
</clipPath>
</defs>
</svg>
