<svg width="24" height="36" viewBox="0 0 24 36" fill="none" xmlns="http://www.w3.org/2000/svg">
<g id="label-paired / xl / backward-xl / bold" clip-path="url(#clip0_1731_6577)">
<path id="icon" d="M13.5 10.4062V15.0469L21.7969 9.23438C22.0156 9.07812 22.2812 9 22.5938 9C23 9 23.3281 9.14062 23.5781 9.42188C23.8594 9.67188 24 10 24 10.4062V25.5938C24 26 23.8594 26.3281 23.5781 26.5781C23.3281 26.8594 23 27 22.5938 27C22.3125 27 22.0469 26.9219 21.7969 26.7656L13.5 20.9531V25.5938C13.5 26 13.3594 26.3281 13.0781 26.5781C12.8281 26.8594 12.5 27 12.0938 27C11.7812 27 11.5 26.9062 11.25 26.7188L0.46875 18.8906C0.15625 18.6719 0 18.375 0 18C0 17.625 0.15625 17.3281 0.46875 17.1094L11.25 9.28125C11.5 9.09375 11.7812 9 12.0938 9C12.5 9 12.8281 9.14062 13.0781 9.42188C13.3594 9.67188 13.5 10 13.5 10.4062ZM13.5 17.8125V18.1875L21.75 24V12.0469L13.5 17.8125ZM3.04688 18L11.25 23.9531V12.0469L3.04688 18Z" fill="black" fill-opacity="0.72"/>
</g>
<defs>
<clipPath id="clip0_1731_6577">
<rect width="24" height="36" fill="white"/>
</clipPath>
</defs>
</svg>
