<svg width="24" height="36" viewBox="0 0 24 36" fill="none" xmlns="http://www.w3.org/2000/svg">
<g id="label-paired / xl / right-from-bracket-xl / regular" clip-path="url(#clip0_1731_5706)">
<path id="icon" d="M22.4531 17.9062L16.2656 12.0938C16.2031 12.0312 16.1406 12 16.0781 12C15.8906 12.0312 15.7812 12.1406 15.75 12.3281V15C15.7188 15.4688 15.4688 15.7188 15 15.75H9.375C9.15625 15.7812 9.03125 15.9062 9 16.125V19.875C9.03125 20.0938 9.15625 20.2188 9.375 20.25H15C15.4688 20.2812 15.7188 20.5312 15.75 21V23.6719C15.7812 23.8594 15.8906 23.9688 16.0781 24C16.1406 24 16.2031 23.9688 16.2656 23.9062L22.4531 18.0938C22.4844 18.0625 22.5 18.0312 22.5 18C22.5 17.9688 22.4844 17.9375 22.4531 17.9062ZM24 18C24 18.4688 23.8281 18.8594 23.4844 19.1719L17.2969 25.0312C16.9531 25.3438 16.5469 25.5 16.0781 25.5C15.5469 25.5 15.1094 25.3281 14.7656 24.9844C14.4219 24.6406 14.25 24.2031 14.25 23.6719V21.75H9.375C8.84375 21.75 8.40625 21.5625 8.0625 21.1875C7.6875 20.8438 7.5 20.4062 7.5 19.875V16.125C7.5 15.5938 7.6875 15.1562 8.0625 14.8125C8.40625 14.4375 8.84375 14.25 9.375 14.25H14.25V12.3281C14.25 11.7969 14.4219 11.3594 14.7656 11.0156C15.1094 10.6719 15.5469 10.5 16.0781 10.5C16.5469 10.5 16.9531 10.6719 17.2969 11.0156L23.4844 16.8281C23.8281 17.1406 24 17.5312 24 18ZM8.25 9H3.75C3.125 9.03125 2.59375 9.25 2.15625 9.65625C1.75 10.0938 1.53125 10.625 1.5 11.25V24.75C1.53125 25.375 1.75 25.9062 2.15625 26.3438C2.59375 26.75 3.125 26.9688 3.75 27H8.25C8.71875 27.0312 8.96875 27.2812 9 27.75C8.96875 28.2188 8.71875 28.4688 8.25 28.5H3.75C2.6875 28.4688 1.79688 28.1094 1.07812 27.4219C0.390625 26.7031 0.03125 25.8125 0 24.75V11.25C0.03125 10.1875 0.390625 9.29688 1.07812 8.57812C1.79688 7.89062 2.6875 7.53125 3.75 7.5H8.25C8.71875 7.53125 8.96875 7.78125 9 8.25C8.96875 8.71875 8.71875 8.96875 8.25 9Z" fill="black" fill-opacity="0.72"/>
</g>
<defs>
<clipPath id="clip0_1731_5706">
<rect width="24" height="36" fill="white"/>
</clipPath>
</defs>
</svg>
