<svg width="20" height="24" viewBox="0 0 20 24" fill="none" xmlns="http://www.w3.org/2000/svg">
<g id="label-paired / md / signal-md / bold" clip-path="url(#clip0_1731_3871)">
<path id="icon" d="M18 4C18.4583 4.04167 18.7083 4.29167 18.75 4.75V19.25C18.7083 19.7083 18.4583 19.9583 18 20C17.5417 19.9583 17.2917 19.7083 17.25 19.25V4.75C17.2917 4.29167 17.5417 4.04167 18 4ZM14 7C14.4583 7.04167 14.7083 7.29167 14.75 7.75V19.25C14.7083 19.7083 14.4583 19.9583 14 20C13.5417 19.9583 13.2917 19.7083 13.25 19.25V7.75C13.2917 7.29167 13.5417 7.04167 14 7ZM10 10C10.4583 10.0417 10.7083 10.2917 10.75 10.75V19.25C10.7083 19.7083 10.4583 19.9583 10 20C9.54167 19.9583 9.29167 19.7083 9.25 19.25V10.75C9.29167 10.2917 9.54167 10.0417 10 10ZM6 13C6.45833 13.0417 6.70833 13.2917 6.75 13.75V19.25C6.70833 19.7083 6.45833 19.9583 6 20C5.54167 19.9583 5.29167 19.7083 5.25 19.25V13.75C5.29167 13.2917 5.54167 13.0417 6 13ZM2 16C2.45833 16.0417 2.70833 16.2917 2.75 16.75V19.25C2.70833 19.7083 2.45833 19.9583 2 20C1.54167 19.9583 1.29167 19.7083 1.25 19.25V16.75C1.29167 16.2917 1.54167 16.0417 2 16Z" fill="black" fill-opacity="0.72"/>
</g>
<defs>
<clipPath id="clip0_1731_3871">
<rect width="20" height="24" fill="white"/>
</clipPath>
</defs>
</svg>
