<svg width="24" height="36" viewBox="0 0 24 36" fill="none" xmlns="http://www.w3.org/2000/svg">
<g id="label-paired / xl / phone-xl / bold" clip-path="url(#clip0_1731_6342)">
<path id="icon" d="M17.625 18.8906L22.875 21.1406C23.2812 21.3281 23.5938 21.625 23.8125 22.0312C24 22.4062 24.0469 22.8281 23.9531 23.2969L22.8281 28.5469C22.5781 29.4531 21.9688 29.9375 21 30C20.7188 30 20.4375 30 20.1562 30C19.6875 29.9688 19.2188 29.9375 18.75 29.9062C15.1875 29.4688 12 28.2969 9.1875 26.3906C6.375 24.4531 4.15625 21.9844 2.53125 18.9844C0.875 15.9844 0.03125 12.6562 0 9C0.0625 8.03125 0.5625 7.42187 1.5 7.17188L6.75 6.04688C7.1875 5.95312 7.59375 6.01562 7.96875 6.23438C8.375 6.42188 8.67188 6.71875 8.85938 7.125L11.1094 12.375C11.4219 13.2188 11.2344 13.9531 10.5469 14.5781L8.67188 16.125C9.95312 18.3125 11.6875 20.0469 13.875 21.3281L15.4219 19.4531C16.0469 18.7656 16.7812 18.5781 17.625 18.8906ZM20.7188 27.75L21.7031 23.1094L17.0156 21.0938L15.6094 22.7812C15.2344 23.1875 14.7969 23.4375 14.2969 23.5312C13.7656 23.6562 13.25 23.5781 12.75 23.2969C10.2188 21.7969 8.20312 19.7812 6.70312 17.25C6.45312 16.75 6.375 16.25 6.46875 15.75C6.5625 15.2188 6.8125 14.7656 7.21875 14.3906L8.90625 13.0312L6.89062 8.29688L2.25 9.32812C2.34375 12.7344 3.21875 15.8125 4.875 18.5625C6.5 21.3125 8.6875 23.5 11.4375 25.125C14.1875 26.7812 17.2812 27.6562 20.7188 27.75Z" fill="black" fill-opacity="0.72"/>
</g>
<defs>
<clipPath id="clip0_1731_6342">
<rect width="24" height="36" fill="white"/>
</clipPath>
</defs>
</svg>
