<svg width="24" height="36" viewBox="0 0 24 36" fill="none" xmlns="http://www.w3.org/2000/svg">
<g id="label-paired / xl / chevrons-left-xl / bold" clip-path="url(#clip0_1731_5938)">
<path id="icon" d="M2.20312 17.2031L11.2031 8.20312C11.7344 7.76563 12.2656 7.76563 12.7969 8.20312C13.2344 8.73438 13.2344 9.26562 12.7969 9.79688L4.59375 18L12.7969 26.2031C13.2344 26.7344 13.2344 27.2656 12.7969 27.7969C12.2656 28.2344 11.7344 28.2344 11.2031 27.7969L2.20312 18.7969C1.76562 18.2656 1.76562 17.7344 2.20312 17.2031ZM20.2031 8.20312C20.7344 7.76563 21.2656 7.76563 21.7969 8.20312C22.2344 8.73438 22.2344 9.26562 21.7969 9.79688L13.5938 18L21.7969 26.2031C22.2344 26.7344 22.2344 27.2656 21.7969 27.7969C21.2656 28.2344 20.7344 28.2344 20.2031 27.7969L11.2031 18.7969C10.7656 18.2656 10.7656 17.7344 11.2031 17.2031L20.2031 8.20312Z" fill="black" fill-opacity="0.72"/>
</g>
<defs>
<clipPath id="clip0_1731_5938">
<rect width="24" height="36" fill="white"/>
</clipPath>
</defs>
</svg>
