<svg width="16" height="24" viewBox="0 0 16 24" fill="none" xmlns="http://www.w3.org/2000/svg">
<g id="label-paired / md / file-certificate-md / regular" clip-path="url(#clip0_1731_4101)">
<path id="icon" d="M15 18V10H11.5C11.0833 9.97917 10.7292 9.83333 10.4375 9.5625C10.1667 9.27083 10.0208 8.91667 10 8.5V5H6C5.70833 5 5.46875 5.09375 5.28125 5.28125C5.09375 5.46875 5 5.70833 5 6V8C4.72917 7.97917 4.46875 8.02083 4.21875 8.125C4.15625 8.14583 4.09375 8.16667 4.03125 8.1875C4.03125 8.20833 4.02083 8.21875 4 8.21875V6C4.02083 5.4375 4.21875 4.96875 4.59375 4.59375C4.96875 4.21875 5.4375 4.02083 6 4H10.875C11.2917 4 11.6458 4.14583 11.9375 4.4375L15.5625 8.0625C15.8542 8.35417 16 8.70833 16 9.125V18C15.9792 18.5625 15.7812 19.0312 15.4062 19.4062C15.0312 19.7812 14.5625 19.9792 14 20H6.90625C6.96875 19.8333 7 19.6667 7 19.5V19H14C14.2917 19 14.5312 18.9062 14.7188 18.7188C14.9062 18.5312 15 18.2917 15 18ZM15 9C14.9583 8.91667 14.9062 8.84375 14.8438 8.78125L11.2188 5.15625C11.1562 5.09375 11.0833 5.05208 11 5.03125V8.5C11.0208 8.8125 11.1875 8.97917 11.5 9H15ZM2.1875 15.2188C2.52083 15.2604 2.79167 15.4167 3 15.6875L3.21875 15.9375L3.53125 15.8125C3.84375 15.6875 4.15625 15.6875 4.46875 15.8125L4.78125 15.9375L5 15.6875C5.20833 15.4167 5.47917 15.2604 5.8125 15.2188L6.15625 15.1562L6.21875 14.8125L7.1875 14.9688L7.125 15.4688C7.0625 15.8438 6.84375 16.0625 6.46875 16.125L6 16.1875V19.5C6 19.6875 5.91667 19.8333 5.75 19.9375C5.5625 20.0208 5.38542 20.0104 5.21875 19.9062L4 19.0938L2.78125 19.9062C2.61458 20.0104 2.44792 20.0208 2.28125 19.9375C2.09375 19.8333 2 19.6875 2 19.5V16.1875L1.53125 16.125C1.15625 16.0625 0.9375 15.8438 0.875 15.4688L0.8125 14.9375C0.791667 14.875 0.760417 14.8229 0.71875 14.7812L0.28125 14.4688C0.0104167 14.2188 -0.0625 13.9271 0.0625 13.5938L0.25 13.0938C0.270833 13.0312 0.270833 12.9688 0.25 12.9062L0.0625 12.4062C-0.0625 12.0729 0.0104167 11.7812 0.28125 11.5312L0.71875 11.2188L1.3125 12L1.0625 12.2188L1.1875 12.5312C1.3125 12.8438 1.3125 13.1562 1.1875 13.4688L1.0625 13.7812L1.3125 14L0.71875 14.7812L1.3125 14C1.58333 14.2083 1.75 14.4792 1.8125 14.8125L1.84375 15.1562L2.1875 15.2188L2.125 15.6875L2.1875 15.2188ZM0.71875 11.2188C0.760417 11.1771 0.791667 11.125 0.8125 11.0625L0.875 10.5312C0.9375 10.1562 1.15625 9.9375 1.53125 9.875L2.0625 9.8125C2.125 9.79167 2.17708 9.76042 2.21875 9.71875L2.53125 9.28125C2.78125 9.01042 3.07292 8.9375 3.40625 9.0625L3.90625 9.25C3.96875 9.27083 4.03125 9.27083 4.09375 9.25L4.59375 9.0625C4.92708 8.9375 5.21875 9.01042 5.46875 9.28125L5.78125 9.71875C5.82292 9.76042 5.88542 9.79167 5.96875 9.8125L6.5 9.875C6.85417 9.9375 7.0625 10.1562 7.125 10.5312L7.1875 11.0625C7.20833 11.125 7.23958 11.1771 7.28125 11.2188L7.71875 11.5312C7.98958 11.7812 8.0625 12.0729 7.9375 12.4062L7.75 12.9062C7.72917 12.9688 7.72917 13.0312 7.75 13.0938L7.9375 13.5938C8.0625 13.9271 7.98958 14.2188 7.71875 14.4688L7.28125 14.7812C7.23958 14.8229 7.20833 14.875 7.1875 14.9375L6.21875 14.8125C6.26042 14.4792 6.41667 14.2083 6.6875 14L6.9375 13.7812L6.8125 13.4688C6.6875 13.1562 6.6875 12.8438 6.8125 12.5312L6.9375 12.2188L6.6875 12C6.41667 11.7917 6.26042 11.5208 6.21875 11.1875L6.15625 10.8438L5.8125 10.8125C5.47917 10.75 5.20833 10.5833 5 10.3125L4.78125 10.0625L4.46875 10.1875L4.125 9.3125L4.46875 10.1875C4.15625 10.3125 3.84375 10.3125 3.53125 10.1875L3.21875 10.0625L3 10.3125C2.79167 10.5833 2.52083 10.75 2.1875 10.8125L1.84375 10.8438L1.8125 11.1875L0.90625 11.0625L1.8125 11.1875C1.75 11.5208 1.58333 11.7917 1.3125 12L0.71875 11.2188ZM5 18.5625V17C4.85417 17.0208 4.71875 17 4.59375 16.9375L4.09375 16.75C4.03125 16.7083 3.96875 16.7083 3.90625 16.75L3.40625 16.9375C3.28125 17 3.14583 17.0208 3 17V18.5625L3.71875 18.0938C3.90625 17.9688 4.09375 17.9688 4.28125 18.0938L5 18.5625Z" fill="black" fill-opacity="0.72"/>
</g>
<defs>
<clipPath id="clip0_1731_4101">
<rect width="16" height="24" fill="white"/>
</clipPath>
</defs>
</svg>
