<svg width="13" height="22" viewBox="0 0 13 22" fill="none" xmlns="http://www.w3.org/2000/svg">
<g id="label-paired / sm / expand-sm / regular" clip-path="url(#clip0_1731_1837)">
<path id="icon" d="M4.3125 4.625C4.58594 4.64323 4.73177 4.78906 4.75 5.0625C4.73177 5.33594 4.58594 5.48177 4.3125 5.5H1.25V8.5625C1.23177 8.83594 1.08594 8.98177 0.8125 9C0.539062 8.98177 0.393229 8.83594 0.375 8.5625V5.0625C0.393229 4.78906 0.539062 4.64323 0.8125 4.625H4.3125ZM0.375 12.9375C0.393229 12.6641 0.539062 12.5182 0.8125 12.5C1.08594 12.5182 1.23177 12.6641 1.25 12.9375V16H4.3125C4.58594 16.0182 4.73177 16.1641 4.75 16.4375C4.73177 16.7109 4.58594 16.8568 4.3125 16.875H0.8125C0.539062 16.8568 0.393229 16.7109 0.375 16.4375V12.9375ZM12.1875 4.625C12.4609 4.64323 12.6068 4.78906 12.625 5.0625V8.5625C12.6068 8.83594 12.4609 8.98177 12.1875 9C11.9141 8.98177 11.7682 8.83594 11.75 8.5625V5.5H8.6875C8.41406 5.48177 8.26823 5.33594 8.25 5.0625C8.26823 4.78906 8.41406 4.64323 8.6875 4.625H12.1875ZM11.75 12.9375C11.7682 12.6641 11.9141 12.5182 12.1875 12.5C12.4609 12.5182 12.6068 12.6641 12.625 12.9375V16.4375C12.6068 16.7109 12.4609 16.8568 12.1875 16.875H8.6875C8.41406 16.8568 8.26823 16.7109 8.25 16.4375C8.26823 16.1641 8.41406 16.0182 8.6875 16H11.75V12.9375Z" fill="black" fill-opacity="0.72"/>
</g>
<defs>
<clipPath id="clip0_1731_1837">
<rect width="13" height="22" fill="white"/>
</clipPath>
</defs>
</svg>
