<svg width="24" height="36" viewBox="0 0 24 36" fill="none" xmlns="http://www.w3.org/2000/svg">
<g id="label-paired / xl / chart-mixed-xl / bold" clip-path="url(#clip0_1731_6275)">
<path id="icon" d="M23.625 9.46875L15.75 16.2188C15.25 16.5938 14.75 16.5938 14.25 16.2188L8.90625 11.5312L1.73438 16.3125C1.14062 16.625 0.625 16.5156 0.1875 15.9844C-0.125 15.3906 -0.015625 14.875 0.515625 14.4375L8.39062 9.1875C8.85938 8.90625 9.3125 8.9375 9.75 9.28125L15 13.875L22.125 7.78125C22.6875 7.375 23.2188 7.40625 23.7188 7.875C24.125 8.4375 24.0938 8.96875 23.625 9.46875ZM9.375 26.25V18.75C9.34375 18.5312 9.21875 18.4062 9 18.375C8.78125 18.4062 8.65625 18.5312 8.625 18.75V26.25C8.65625 26.4688 8.78125 26.5938 9 26.625C9.21875 26.5938 9.34375 26.4688 9.375 26.25ZM9 16.5C9.625 16.5312 10.1562 16.75 10.5938 17.1562C11 17.5938 11.2188 18.125 11.25 18.75V26.25C11.2188 26.875 11 27.4062 10.5938 27.8438C10.1562 28.25 9.625 28.4688 9 28.5C8.375 28.4688 7.84375 28.25 7.40625 27.8438C7 27.4062 6.78125 26.875 6.75 26.25V18.75C6.78125 18.125 7 17.5938 7.40625 17.1562C7.84375 16.75 8.375 16.5312 9 16.5ZM3.375 26.25V23.25C3.34375 23.0312 3.21875 22.9062 3 22.875C2.78125 22.9062 2.65625 23.0312 2.625 23.25V26.25C2.65625 26.4688 2.78125 26.5938 3 26.625C3.21875 26.5938 3.34375 26.4688 3.375 26.25ZM3 21C3.625 21.0312 4.15625 21.25 4.59375 21.6562C5 22.0938 5.21875 22.625 5.25 23.25V26.25C5.21875 26.875 5 27.4062 4.59375 27.8438C4.15625 28.25 3.625 28.4688 3 28.5C2.375 28.4688 1.84375 28.25 1.40625 27.8438C1 27.4062 0.78125 26.875 0.75 26.25V23.25C0.78125 22.625 1 22.0938 1.40625 21.6562C1.84375 21.25 2.375 21.0312 3 21ZM15.375 21.75C15.3438 21.5312 15.2188 21.4062 15 21.375C14.7812 21.4062 14.6562 21.5312 14.625 21.75V26.25C14.6562 26.4688 14.7812 26.5938 15 26.625C15.2188 26.5938 15.3438 26.4688 15.375 26.25V21.75ZM12.75 21.75C12.7812 21.125 13 20.5938 13.4062 20.1562C13.8438 19.75 14.375 19.5312 15 19.5C15.625 19.5312 16.1562 19.75 16.5938 20.1562C17 20.5938 17.2188 21.125 17.25 21.75V26.25C17.2188 26.875 17 27.4062 16.5938 27.8438C16.1562 28.25 15.625 28.4688 15 28.5C14.375 28.4688 13.8438 28.25 13.4062 27.8438C13 27.4062 12.7812 26.875 12.75 26.25V21.75ZM21.375 26.25V18.75C21.3438 18.5312 21.2188 18.4062 21 18.375C20.7812 18.4062 20.6562 18.5312 20.625 18.75V26.25C20.6562 26.4688 20.7812 26.5938 21 26.625C21.2188 26.5938 21.3438 26.4688 21.375 26.25ZM21 16.5C21.625 16.5312 22.1562 16.75 22.5938 17.1562C23 17.5938 23.2188 18.125 23.25 18.75V26.25C23.2188 26.875 23 27.4062 22.5938 27.8438C22.1562 28.25 21.625 28.4688 21 28.5C20.375 28.4688 19.8438 28.25 19.4062 27.8438C19 27.4062 18.7812 26.875 18.75 26.25V18.75C18.7812 18.125 19 17.5938 19.4062 17.1562C19.8438 16.75 20.375 16.5312 21 16.5Z" fill="black" fill-opacity="0.72"/>
</g>
<defs>
<clipPath id="clip0_1731_6275">
<rect width="24" height="36" fill="white"/>
</clipPath>
</defs>
</svg>
