<svg width="13" height="22" viewBox="0 0 13 22" fill="none" xmlns="http://www.w3.org/2000/svg">
<g id="label-paired / sm / floppy-disk-sm / regular" clip-path="url(#clip0_1731_2714)">
<path id="icon" d="M1.25 6.375V15.125C1.25 15.3802 1.33203 15.5898 1.49609 15.7539C1.66016 15.918 1.86979 16 2.125 16H10.875C11.1302 16 11.3398 15.918 11.5039 15.7539C11.668 15.5898 11.75 15.3802 11.75 15.125V8.42578C11.75 8.17057 11.668 7.96094 11.5039 7.79688L9.45312 5.74609C9.36198 5.65495 9.2526 5.59115 9.125 5.55469V8.125C9.125 8.38021 9.04297 8.58984 8.87891 8.75391C8.71484 8.91797 8.50521 9 8.25 9H3C2.74479 9 2.53516 8.91797 2.37109 8.75391C2.20703 8.58984 2.125 8.38021 2.125 8.125V5.5C1.86979 5.5 1.66016 5.58203 1.49609 5.74609C1.33203 5.91016 1.25 6.11979 1.25 6.375ZM3 5.5V8.125H8.25V5.5H3ZM0.375 6.375C0.393229 5.88281 0.566406 5.47266 0.894531 5.14453C1.22266 4.81641 1.63281 4.64323 2.125 4.625H8.82422C9.31641 4.625 9.73568 4.79818 10.082 5.14453L12.1055 7.16797C12.4518 7.51432 12.625 7.93359 12.625 8.42578V15.125C12.6068 15.6172 12.4336 16.0273 12.1055 16.3555C11.7773 16.6836 11.3672 16.8568 10.875 16.875H2.125C1.63281 16.8568 1.22266 16.6836 0.894531 16.3555C0.566406 16.0273 0.393229 15.6172 0.375 15.125V6.375ZM7.8125 12.5C7.79427 12.0078 7.57552 11.625 7.15625 11.3516C6.71875 11.1328 6.28125 11.1328 5.84375 11.3516C5.42448 11.625 5.20573 12.0078 5.1875 12.5C5.20573 12.9922 5.42448 13.375 5.84375 13.6484C6.28125 13.8672 6.71875 13.8672 7.15625 13.6484C7.57552 13.375 7.79427 12.9922 7.8125 12.5ZM6.5 10.3125C7.32031 10.3307 7.94922 10.6953 8.38672 11.4062C8.78776 12.1354 8.78776 12.8646 8.38672 13.5938C7.94922 14.3047 7.32031 14.6693 6.5 14.6875C5.67969 14.6693 5.05078 14.3047 4.61328 13.5938C4.21224 12.8646 4.21224 12.1354 4.61328 11.4062C5.05078 10.6953 5.67969 10.3307 6.5 10.3125Z" fill="black" fill-opacity="0.72"/>
</g>
<defs>
<clipPath id="clip0_1731_2714">
<rect width="13" height="22" fill="white"/>
</clipPath>
</defs>
</svg>
