<svg width="13" height="30" viewBox="0 0 13 30" fill="none" xmlns="http://www.w3.org/2000/svg">
<g id="label-paired / lg / backward-step-lg / fill" clip-path="url(#clip0_1731_5034)">
<path id="icon" d="M10.7188 22.7266L3.21875 16.4766L2.75 16.0859V21.75C2.75 22.1146 2.63281 22.4141 2.39844 22.6484C2.16406 22.8828 1.86458 23 1.5 23C1.13542 23 0.835938 22.8828 0.601562 22.6484C0.367188 22.4141 0.25 22.1146 0.25 21.75V9.25C0.25 8.88542 0.367188 8.58594 0.601562 8.35156C0.835938 8.11719 1.13542 8 1.5 8C1.86458 8 2.16406 8.11719 2.39844 8.35156C2.63281 8.58594 2.75 8.88542 2.75 9.25V14.9141L3.21875 14.5234L10.7188 8.27344C11.1094 7.96094 11.5521 7.90885 12.0469 8.11719C12.4896 8.35156 12.724 8.72917 12.75 9.25V21.75C12.724 22.2708 12.4896 22.6484 12.0469 22.8828C11.5521 23.0911 11.1094 23.0391 10.7188 22.7266Z" fill="black" fill-opacity="0.72"/>
</g>
<defs>
<clipPath id="clip0_1731_5034">
<rect width="13" height="30" fill="white"/>
</clipPath>
</defs>
</svg>
