<svg width="13" height="22" viewBox="0 0 13 22" fill="none" xmlns="http://www.w3.org/2000/svg">
<g id="label-paired / sm / placeholder-sm / regular" clip-path="url(#clip0_1731_1786)">
<path id="icon" d="M2.78125 4.625H3.4375C3.71094 4.64323 3.85677 4.78906 3.875 5.0625C3.85677 5.33594 3.71094 5.48177 3.4375 5.5H2.78125C2.34375 5.51823 1.97917 5.66406 1.6875 5.9375C1.41406 6.22917 1.26823 6.59375 1.25 7.03125V7.6875C1.23177 7.96094 1.08594 8.10677 0.8125 8.125C0.539062 8.10677 0.393229 7.96094 0.375 7.6875V7.03125C0.393229 6.35677 0.630208 5.79167 1.08594 5.33594C1.54167 4.88021 2.10677 4.64323 2.78125 4.625ZM0.8125 9C1.08594 9.01823 1.23177 9.16406 1.25 9.4375V12.0625C1.23177 12.3359 1.08594 12.4818 0.8125 12.5C0.539062 12.4818 0.393229 12.3359 0.375 12.0625V9.4375C0.393229 9.16406 0.539062 9.01823 0.8125 9ZM12.1875 9C12.4609 9.01823 12.6068 9.16406 12.625 9.4375V12.0625C12.6068 12.3359 12.4609 12.4818 12.1875 12.5C11.9141 12.4818 11.7682 12.3359 11.75 12.0625V9.4375C11.7682 9.16406 11.9141 9.01823 12.1875 9ZM12.1875 8.125C11.9141 8.10677 11.7682 7.96094 11.75 7.6875V7.03125C11.7318 6.59375 11.5859 6.22917 11.3125 5.9375C11.0208 5.66406 10.6562 5.51823 10.2188 5.5H9.5625C9.28906 5.48177 9.14323 5.33594 9.125 5.0625C9.14323 4.78906 9.28906 4.64323 9.5625 4.625H10.2188C10.8932 4.64323 11.4583 4.88021 11.9141 5.33594C12.3698 5.79167 12.6068 6.35677 12.625 7.03125V7.6875C12.6068 7.96094 12.4609 8.10677 12.1875 8.125ZM12.625 13.8125V14.4688C12.6068 15.1432 12.3698 15.7083 11.9141 16.1641C11.4583 16.6198 10.8932 16.8568 10.2188 16.875H9.5625C9.28906 16.8568 9.14323 16.7109 9.125 16.4375C9.14323 16.1641 9.28906 16.0182 9.5625 16H10.2188C10.6562 15.9818 11.0208 15.8359 11.3125 15.5625C11.5859 15.2708 11.7318 14.9062 11.75 14.4688V13.8125C11.7682 13.5391 11.9141 13.3932 12.1875 13.375C12.4609 13.3932 12.6068 13.5391 12.625 13.8125ZM1.25 13.8125V14.4688C1.26823 14.9062 1.41406 15.2708 1.6875 15.5625C1.97917 15.8359 2.34375 15.9818 2.78125 16H3.4375C3.71094 16.0182 3.85677 16.1641 3.875 16.4375C3.85677 16.7109 3.71094 16.8568 3.4375 16.875H2.78125C2.10677 16.8568 1.54167 16.6198 1.08594 16.1641C0.630208 15.7083 0.393229 15.1432 0.375 14.4688V13.8125C0.393229 13.5391 0.539062 13.3932 0.8125 13.375C1.08594 13.3932 1.23177 13.5391 1.25 13.8125ZM5.1875 16.875C4.91406 16.8568 4.76823 16.7109 4.75 16.4375C4.76823 16.1641 4.91406 16.0182 5.1875 16H7.8125C8.08594 16.0182 8.23177 16.1641 8.25 16.4375C8.23177 16.7109 8.08594 16.8568 7.8125 16.875H5.1875ZM4.75 5.0625C4.76823 4.78906 4.91406 4.64323 5.1875 4.625H7.8125C8.08594 4.64323 8.23177 4.78906 8.25 5.0625C8.23177 5.33594 8.08594 5.48177 7.8125 5.5H5.1875C4.91406 5.48177 4.76823 5.33594 4.75 5.0625Z" fill="black" fill-opacity="0.72"/>
</g>
<defs>
<clipPath id="clip0_1731_1786">
<rect width="13" height="22" fill="white"/>
</clipPath>
</defs>
</svg>
