<svg width="14" height="18" viewBox="0 0 14 18" fill="none" xmlns="http://www.w3.org/2000/svg">
<g id="label-paired / caption / eye-caption / bold" clip-path="url(#clip0_1731_626)">
<path id="icon" d="M7 5.375C6.23438 5.39062 5.53906 5.54688 4.91406 5.84375C4.28906 6.125 3.73438 6.5 3.25 6.96875C2.79688 7.39062 2.41406 7.82812 2.10156 8.28125C1.80469 8.73438 1.57031 9.14062 1.39844 9.5C1.57031 9.85938 1.80469 10.2656 2.10156 10.7188C2.41406 11.1719 2.79688 11.6094 3.25 12.0312C3.73438 12.5 4.28906 12.875 4.91406 13.1562C5.53906 13.4531 6.23438 13.6094 7 13.625C7.76562 13.6094 8.46094 13.4531 9.08594 13.1562C9.71094 12.875 10.2656 12.5 10.75 12.0312C11.2031 11.6094 11.5859 11.1719 11.8984 10.7188C12.1953 10.2656 12.4297 9.85938 12.6016 9.5C12.4297 9.14062 12.1953 8.73438 11.8984 8.28125C11.5859 7.82812 11.2031 7.39062 10.75 6.96875C10.2656 6.5 9.71094 6.125 9.08594 5.84375C8.46094 5.54688 7.76562 5.39062 7 5.375ZM2.47656 6.14844C3.03906 5.61719 3.69531 5.17188 4.44531 4.8125C5.19531 4.45312 6.04688 4.26562 7 4.25C7.95312 4.26562 8.80469 4.45312 9.55469 4.8125C10.3047 5.17188 10.9609 5.61719 11.5234 6.14844C12.0703 6.66406 12.5234 7.19531 12.8828 7.74219C13.2422 8.28906 13.5156 8.78125 13.7031 9.21875C13.7812 9.40625 13.7812 9.59375 13.7031 9.78125C13.5156 10.2188 13.2422 10.7109 12.8828 11.2578C12.5234 11.8047 12.0703 12.3359 11.5234 12.8516C10.9609 13.3828 10.3047 13.8281 9.55469 14.1875C8.80469 14.5469 7.95312 14.7344 7 14.75C6.04688 14.7344 5.19531 14.5469 4.44531 14.1875C3.69531 13.8281 3.03906 13.3828 2.47656 12.8516C1.92969 12.3359 1.47656 11.8047 1.11719 11.2578C0.757812 10.7109 0.492188 10.2188 0.320312 9.78125C0.242188 9.59375 0.242188 9.40625 0.320312 9.21875C0.492188 8.78125 0.757812 8.28906 1.11719 7.74219C1.47656 7.19531 1.92969 6.66406 2.47656 6.14844ZM7 11.375C7.53125 11.3594 7.97656 11.1797 8.33594 10.8359C8.67969 10.4766 8.85938 10.0312 8.875 9.5C8.85938 8.96875 8.67969 8.52344 8.33594 8.16406C7.97656 7.82031 7.53125 7.64062 7 7.625C6.98438 7.625 6.97656 7.625 6.97656 7.625C6.97656 7.625 6.96875 7.625 6.95312 7.625C6.98438 7.75 7 7.875 7 8C6.98438 8.42188 6.83594 8.77344 6.55469 9.05469C6.27344 9.33594 5.92188 9.48438 5.5 9.5C5.375 9.5 5.25 9.48438 5.125 9.45312C5.125 9.46875 5.125 9.47656 5.125 9.47656C5.125 9.47656 5.125 9.48438 5.125 9.5C5.14062 10.0312 5.32031 10.4766 5.66406 10.8359C6.02344 11.1797 6.46875 11.3594 7 11.375ZM7 6.5C7.54688 6.5 8.04688 6.63281 8.5 6.89844C8.95312 7.16406 9.32031 7.53125 9.60156 8C9.86719 8.46875 10 8.96875 10 9.5C10 10.0312 9.86719 10.5312 9.60156 11C9.32031 11.4688 8.95312 11.8359 8.5 12.1016C8.04688 12.3672 7.54688 12.5 7 12.5C6.45312 12.5 5.95312 12.3672 5.5 12.1016C5.04688 11.8359 4.67969 11.4688 4.39844 11C4.13281 10.5312 4 10.0312 4 9.5C4 8.96875 4.13281 8.46875 4.39844 8C4.67969 7.53125 5.04688 7.16406 5.5 6.89844C5.95312 6.63281 6.45312 6.5 7 6.5Z" fill="black" fill-opacity="0.72"/>
</g>
<defs>
<clipPath id="clip0_1731_626">
<rect width="14" height="18" fill="white"/>
</clipPath>
</defs>
</svg>
