<svg width="20" height="30" viewBox="0 0 20 30" fill="none" xmlns="http://www.w3.org/2000/svg">
<g id="label-paired / lg / circle-user-lg / regular" clip-path="url(#clip0_1731_5221)">
<path id="icon" d="M16.0938 21.7891C16.9271 20.9818 17.5781 20.0443 18.0469 18.9766C18.5156 17.9089 18.75 16.75 18.75 15.5C18.724 13.8594 18.3203 12.388 17.5391 11.0859C16.7839 9.75781 15.7422 8.71615 14.4141 7.96094C13.112 7.17969 11.6406 6.77604 10 6.75C8.35938 6.77604 6.88802 7.17969 5.58594 7.96094C4.25781 8.71615 3.21615 9.75781 2.46094 11.0859C1.67969 12.388 1.27604 13.8594 1.25 15.5C1.25 16.75 1.48438 17.9089 1.95312 18.9766C2.42188 20.0443 3.07292 20.9818 3.90625 21.7891C4.19271 20.6693 4.77865 19.7578 5.66406 19.0547C6.52344 18.3776 7.55208 18.026 8.75 18H11.25C12.4479 18.026 13.4766 18.3776 14.3359 19.0547C15.2214 19.7578 15.8073 20.6693 16.0938 21.7891ZM15 22.6875C14.8958 21.6979 14.4922 20.8906 13.7891 20.2656C13.112 19.6146 12.2656 19.276 11.25 19.25H8.75C7.73438 19.276 6.88802 19.6146 6.21094 20.2656C5.50781 20.8906 5.10417 21.6979 5 22.6875C6.45833 23.7031 8.125 24.224 10 24.25C11.875 24.224 13.5417 23.7031 15 22.6875ZM10 25.5C8.17708 25.474 6.51042 25.0312 5 24.1719C3.48958 23.2865 2.26562 22.0625 1.32812 20.5C0.442708 18.9115 0 17.2448 0 15.5C0 13.7552 0.442708 12.0885 1.32812 10.5C2.26562 8.9375 3.48958 7.71354 5 6.82812C6.51042 5.96875 8.17708 5.52604 10 5.5C11.8229 5.52604 13.4896 5.96875 15 6.82812C16.5104 7.71354 17.7344 8.9375 18.6719 10.5C19.5573 12.0885 20 13.7552 20 15.5C20 17.2448 19.5573 18.9115 18.6719 20.5C17.7344 22.0625 16.5104 23.2865 15 24.1719C13.4896 25.0312 11.8229 25.474 10 25.5ZM10 15.5C10.7031 15.474 11.25 15.1615 11.6406 14.5625C11.9531 13.9375 11.9531 13.3125 11.6406 12.6875C11.25 12.0885 10.7031 11.776 10 11.75C9.29688 11.776 8.75 12.0885 8.35938 12.6875C8.04688 13.3125 8.04688 13.9375 8.35938 14.5625C8.75 15.1615 9.29688 15.474 10 15.5ZM6.875 13.625C6.90104 12.4531 7.42188 11.5547 8.4375 10.9297C9.47917 10.3568 10.5208 10.3568 11.5625 10.9297C12.5781 11.5547 13.099 12.4531 13.125 13.625C13.099 14.7969 12.5781 15.6953 11.5625 16.3203C10.5208 16.8932 9.47917 16.8932 8.4375 16.3203C7.42188 15.6953 6.90104 14.7969 6.875 13.625Z" fill="black" fill-opacity="0.72"/>
</g>
<defs>
<clipPath id="clip0_1731_5221">
<rect width="20" height="30" fill="white"/>
</clipPath>
</defs>
</svg>
