<svg width="24" height="36" viewBox="0 0 24 36" fill="none" xmlns="http://www.w3.org/2000/svg">
<g id="label-paired / xl / phone-xl / regular" clip-path="url(#clip0_1731_6340)">
<path id="icon" d="M17.625 18.8906L22.875 21.1406C23.2812 21.3281 23.5938 21.625 23.8125 22.0312C24 22.4062 24.0469 22.8125 23.9531 23.25L22.8281 28.5C22.5781 29.4375 21.9688 29.9375 21 30C20.7188 30 20.4375 30 20.1562 30C19.9375 29.9688 19.7188 29.9531 19.5 29.9531C15.8438 29.6406 12.5469 28.5312 9.60938 26.625C6.67188 24.7188 4.34375 22.2344 2.625 19.1719C0.90625 16.1406 0.03125 12.75 0 9C0.0625 8.03125 0.5625 7.42187 1.5 7.17188L6.75 6.04688C7.1875 5.95312 7.59375 6.01562 7.96875 6.23438C8.375 6.42188 8.67188 6.71875 8.85938 7.125L11.1094 12.375C11.4219 13.2188 11.2344 13.9531 10.5469 14.5781L8.67188 16.125C9.95312 18.3125 11.6875 20.0469 13.875 21.3281L15.4219 19.4531C16.0469 18.7656 16.7812 18.5781 17.625 18.8906ZM21 28.5C21.1875 28.5 21.3125 28.4062 21.375 28.2188L22.5 22.9688C22.5312 22.75 22.4531 22.6094 22.2656 22.5469L17.0156 20.2969C16.8594 20.2344 16.7188 20.2656 16.5938 20.3906L15.0469 22.3125C14.4844 22.875 13.8438 22.9844 13.125 22.6406C10.6875 21.2344 8.76562 19.3125 7.35938 16.875C7.01562 16.1562 7.125 15.5156 7.6875 14.9531L9.60938 13.4062C9.73438 13.2812 9.76562 13.1406 9.70312 12.9844L7.45312 7.73438C7.35938 7.54688 7.21875 7.46875 7.03125 7.5L1.78125 8.625C1.59375 8.6875 1.5 8.8125 1.5 9C1.53125 12.625 2.42188 15.9062 4.17188 18.8438C5.89062 21.7812 8.21875 24.1094 11.1562 25.8281C14.0938 27.5781 17.375 28.4688 21 28.5Z" fill="black" fill-opacity="0.72"/>
</g>
<defs>
<clipPath id="clip0_1731_6340">
<rect width="24" height="36" fill="white"/>
</clipPath>
</defs>
</svg>
