<svg width="15" height="30" viewBox="0 0 15 30" fill="none" xmlns="http://www.w3.org/2000/svg">
<g id="label-paired / lg / arrow-down-to-line-lg / regular" clip-path="url(#clip0_1731_4392)">
<path id="icon" d="M0.625 24.25C0.234375 24.224 0.0260417 24.0156 0 23.625C0.0260417 23.2344 0.234375 23.026 0.625 23H14.375C14.7656 23.026 14.974 23.2344 15 23.625C14.974 24.0156 14.7656 24.224 14.375 24.25H0.625ZM7.92969 20.3047C7.64323 20.5651 7.35677 20.5651 7.07031 20.3047L2.07031 15.3047C1.8099 15.0182 1.8099 14.7318 2.07031 14.4453C2.35677 14.1849 2.64323 14.1849 2.92969 14.4453L6.875 18.3516V14.25V7.375C6.90104 6.98438 7.10938 6.77604 7.5 6.75C7.89062 6.77604 8.09896 6.98438 8.125 7.375V14.25V18.3516L12.0703 14.4453C12.3568 14.1849 12.6432 14.1849 12.9297 14.4453C13.1901 14.7318 13.1901 15.0182 12.9297 15.3047L7.92969 20.3047Z" fill="black" fill-opacity="0.72"/>
</g>
<defs>
<clipPath id="clip0_1731_4392">
<rect width="15" height="30" fill="white"/>
</clipPath>
</defs>
</svg>
