<svg width="9" height="22" viewBox="0 0 9 22" fill="none" xmlns="http://www.w3.org/2000/svg">
<g id="label-paired / sm / sort-sm / bold" clip-path="url(#clip0_1731_2356)">
<path id="icon" d="M2.06641 8.5625H6.93359L4.5 6.12891L2.06641 8.5625ZM5.12891 4.87109L8.62891 8.37109C8.88411 8.66276 8.94792 8.98177 8.82031 9.32812C8.65625 9.67448 8.38281 9.85677 8 9.875H1C0.617188 9.85677 0.34375 9.67448 0.179688 9.32812C0.0520833 8.98177 0.115885 8.66276 0.371094 8.37109L3.87109 4.87109C4.05339 4.70703 4.26302 4.625 4.5 4.625C4.73698 4.625 4.94661 4.70703 5.12891 4.87109ZM2.06641 12.9375L4.5 15.3711L6.93359 12.9375H2.06641ZM5.12891 16.6289C4.94661 16.793 4.73698 16.875 4.5 16.875C4.26302 16.875 4.05339 16.793 3.87109 16.6289L0.371094 13.1289C0.115885 12.8372 0.0520833 12.5182 0.179688 12.1719C0.34375 11.8255 0.617188 11.6432 1 11.625H8C8.38281 11.6432 8.65625 11.8255 8.82031 12.1719C8.94792 12.5182 8.88411 12.8372 8.62891 13.1289L5.12891 16.6289Z" fill="black" fill-opacity="0.72"/>
</g>
<defs>
<clipPath id="clip0_1731_2356">
<rect width="9" height="22" fill="white"/>
</clipPath>
</defs>
</svg>
