<svg width="18" height="22" viewBox="0 0 18 22" fill="none" xmlns="http://www.w3.org/2000/svg">
<g id="label-paired / sm / person-chalkboard-sm / regular" clip-path="url(#clip0_1731_2581)">
<path id="icon" d="M4.84375 5.28125C4.88021 5.68229 5.09896 5.90104 5.5 5.9375C5.90104 5.90104 6.11979 5.68229 6.15625 5.28125C6.11979 4.88021 5.90104 4.66146 5.5 4.625C5.09896 4.66146 4.88021 4.88021 4.84375 5.28125ZM7.03125 5.28125C7.01302 5.86458 6.75781 6.30208 6.26562 6.59375C5.75521 6.88542 5.24479 6.88542 4.73438 6.59375C4.24219 6.30208 3.98698 5.86458 3.96875 5.28125C3.98698 4.69792 4.24219 4.26042 4.73438 3.96875C5.24479 3.67708 5.75521 3.67708 6.26562 3.96875C6.75781 4.26042 7.01302 4.69792 7.03125 5.28125ZM5.14453 8.125C4.96224 8.125 4.78906 8.16146 4.625 8.23438V12.5H6.375V8.125H5.14453ZM4.625 17.3125C4.60677 17.5859 4.46094 17.7318 4.1875 17.75C3.91406 17.7318 3.76823 17.5859 3.75 17.3125V9.27344L2.38281 11.8438C2.23698 12.0625 2.04557 12.1172 1.80859 12.0078C1.57161 11.862 1.50781 11.6706 1.61719 11.4336L3.23047 8.39844C3.64974 7.66927 4.28776 7.28646 5.14453 7.25H6.89453H9V5.0625C9.01823 4.69792 9.14583 4.38802 9.38281 4.13281C9.63802 3.89583 9.94792 3.76823 10.3125 3.75H16.4375C16.8021 3.76823 17.112 3.89583 17.3672 4.13281C17.6042 4.38802 17.7318 4.69792 17.75 5.0625V11.1875C17.7318 11.5521 17.6042 11.862 17.3672 12.1172C17.112 12.3542 16.8021 12.4818 16.4375 12.5H10.3125C9.94792 12.4818 9.63802 12.3542 9.38281 12.1172C9.14583 11.862 9.01823 11.5521 9 11.1875V9H9.875V11.1875C9.89323 11.4609 10.0391 11.6068 10.3125 11.625H16.4375C16.7109 11.6068 16.8568 11.4609 16.875 11.1875V5.0625C16.8568 4.78906 16.7109 4.64323 16.4375 4.625H10.3125C10.0391 4.64323 9.89323 4.78906 9.875 5.0625V7.25H11.1875C11.4609 7.26823 11.6068 7.41406 11.625 7.6875C11.6068 7.96094 11.4609 8.10677 11.1875 8.125H7.25V17.3125C7.23177 17.5859 7.08594 17.7318 6.8125 17.75C6.53906 17.7318 6.39323 17.5859 6.375 17.3125V13.375H4.625V17.3125Z" fill="black" fill-opacity="0.72"/>
</g>
<defs>
<clipPath id="clip0_1731_2581">
<rect width="18" height="22" fill="white"/>
</clipPath>
</defs>
</svg>
