<svg width="13" height="30" viewBox="0 0 13 30" fill="none" xmlns="http://www.w3.org/2000/svg">
<g id="label-paired / lg / zero-lg / regular" clip-path="url(#clip0_1731_4513)">
<path id="icon" d="M0.25 13C0.302083 11.2292 0.914062 9.75781 2.08594 8.58594C3.25781 7.41406 4.72917 6.80208 6.5 6.75C8.27083 6.80208 9.74219 7.41406 10.9141 8.58594C12.0859 9.75781 12.6979 11.2292 12.75 13V18C12.6979 19.7708 12.0859 21.2422 10.9141 22.4141C9.74219 23.5859 8.27083 24.1979 6.5 24.25C4.72917 24.1979 3.25781 23.5859 2.08594 22.4141C0.914062 21.2422 0.302083 19.7708 0.25 18V13ZM6.5 8C5.09375 8.02604 3.90885 8.50781 2.94531 9.44531C2.00781 10.4089 1.52604 11.5938 1.5 13V18C1.52604 19.4062 2.00781 20.5911 2.94531 21.5547C3.90885 22.4922 5.09375 22.974 6.5 23C7.90625 22.974 9.09115 22.4922 10.0547 21.5547C10.9922 20.5911 11.474 19.4062 11.5 18V13C11.474 11.5938 10.9922 10.4089 10.0547 9.44531C9.09115 8.50781 7.90625 8.02604 6.5 8Z" fill="black" fill-opacity="0.72"/>
</g>
<defs>
<clipPath id="clip0_1731_4513">
<rect width="13" height="30" fill="white"/>
</clipPath>
</defs>
</svg>
