<svg width="9" height="18" viewBox="0 0 9 18" fill="none" xmlns="http://www.w3.org/2000/svg">
<g id="label-paired / caption / microphone-caption / regular" clip-path="url(#clip0_1731_1569)">
<path id="icon" d="M6 5.75C5.98438 5.32812 5.83594 4.97656 5.55469 4.69531C5.27344 4.41406 4.92188 4.26562 4.5 4.25C4.07812 4.26562 3.72656 4.41406 3.44531 4.69531C3.16406 4.97656 3.01562 5.32812 3 5.75V9.5C3.01562 9.92188 3.16406 10.2734 3.44531 10.5547C3.72656 10.8359 4.07812 10.9844 4.5 11C4.92188 10.9844 5.27344 10.8359 5.55469 10.5547C5.83594 10.2734 5.98438 9.92188 6 9.5V5.75ZM2.25 5.75C2.26562 5.10938 2.48438 4.57812 2.90625 4.15625C3.32812 3.73438 3.85938 3.51563 4.5 3.5C5.14062 3.51563 5.67188 3.73438 6.09375 4.15625C6.51562 4.57812 6.73438 5.10938 6.75 5.75V9.5C6.73438 10.1406 6.51562 10.6719 6.09375 11.0938C5.67188 11.5156 5.14062 11.7344 4.5 11.75C3.85938 11.7344 3.32812 11.5156 2.90625 11.0938C2.48438 10.6719 2.26562 10.1406 2.25 9.5V5.75ZM1.5 8.375V9.5C1.51562 10.3438 1.80469 11.0547 2.36719 11.6328C2.94531 12.1953 3.65625 12.4844 4.5 12.5C5.34375 12.4844 6.05469 12.1953 6.63281 11.6328C7.19531 11.0547 7.48438 10.3438 7.5 9.5V8.375C7.51562 8.14062 7.64062 8.01562 7.875 8C8.10938 8.01562 8.23438 8.14062 8.25 8.375V9.5C8.23438 10.5 7.90625 11.3438 7.26562 12.0312C6.64062 12.7188 5.84375 13.1172 4.875 13.2266V14.75H6.375C6.60938 14.7656 6.73438 14.8906 6.75 15.125C6.73438 15.3594 6.60938 15.4844 6.375 15.5H4.5H2.625C2.39062 15.4844 2.26562 15.3594 2.25 15.125C2.26562 14.8906 2.39062 14.7656 2.625 14.75H4.125V13.2266C3.15625 13.1172 2.35938 12.7188 1.73438 12.0312C1.09375 11.3438 0.765625 10.5 0.75 9.5V8.375C0.765625 8.14062 0.890625 8.01562 1.125 8C1.35938 8.01562 1.48438 8.14062 1.5 8.375Z" fill="black" fill-opacity="0.72"/>
</g>
<defs>
<clipPath id="clip0_1731_1569">
<rect width="9" height="18" fill="white"/>
</clipPath>
</defs>
</svg>
