<svg width="24" height="36" viewBox="0 0 24 36" fill="none" xmlns="http://www.w3.org/2000/svg">
<g id="label-paired / xl / circle-five-xl / bold" clip-path="url(#clip0_1731_6098)">
<path id="icon" d="M12 8.25C10.2188 8.25 8.59375 8.6875 7.125 9.5625C5.65625 10.4062 4.46875 11.5938 3.5625 13.125C2.6875 14.6562 2.25 16.2812 2.25 18C2.25 19.7188 2.6875 21.3438 3.5625 22.875C4.46875 24.4062 5.65625 25.5938 7.125 26.4375C8.59375 27.3125 10.2188 27.75 12 27.75C13.7812 27.75 15.4062 27.3125 16.875 26.4375C18.3438 25.5938 19.5312 24.4062 20.4375 22.875C21.3125 21.3438 21.75 19.7188 21.75 18C21.75 16.2812 21.3125 14.6562 20.4375 13.125C19.5312 11.5938 18.3438 10.4062 16.875 9.5625C15.4062 8.6875 13.7812 8.25 12 8.25ZM12 30C9.8125 29.9688 7.8125 29.4375 6 28.4062C4.1875 27.3438 2.71875 25.875 1.59375 24C0.53125 22.0938 0 20.0938 0 18C0 15.9062 0.53125 13.9062 1.59375 12C2.71875 10.125 4.1875 8.65625 6 7.59375C7.8125 6.5625 9.8125 6.03125 12 6C14.1875 6.03125 16.1875 6.5625 18 7.59375C19.8125 8.65625 21.2812 10.125 22.4062 12C23.4688 13.9062 24 15.9062 24 18C24 20.0938 23.4688 22.0938 22.4062 24C21.2812 25.875 19.8125 27.3438 18 28.4062C16.1875 29.4375 14.1875 29.9688 12 30ZM9.75 12H14.625C15.3125 12.0625 15.6875 12.4375 15.75 13.125C15.6875 13.8125 15.3125 14.1875 14.625 14.25H10.6875L10.3125 16.2656L13.2188 16.5938C14.1562 16.7188 14.9375 17.125 15.5625 17.8125C16.1562 18.5 16.4688 19.3281 16.5 20.2969C16.4688 21.3594 16.1094 22.2344 15.4219 22.9219C14.7031 23.6094 13.8281 23.9688 12.7969 24H11.1094C9.73438 23.9688 8.65625 23.3906 7.875 22.2656L7.6875 21.9844C7.375 21.3906 7.48438 20.875 8.01562 20.4375C8.60938 20.125 9.125 20.2344 9.5625 20.7656L9.75 21.0469C10.0938 21.5156 10.5469 21.75 11.1094 21.75H12.7969C13.2031 21.75 13.5469 21.6094 13.8281 21.3281C14.1094 21.0469 14.25 20.7031 14.25 20.2969C14.1875 19.4844 13.75 19 12.9375 18.8438L8.85938 18.375C8.54688 18.3438 8.29688 18.1875 8.10938 17.9062C7.92188 17.6562 7.84375 17.375 7.875 17.0625L8.625 12.9375C8.78125 12.3438 9.15625 12.0312 9.75 12Z" fill="black" fill-opacity="0.72"/>
</g>
<defs>
<clipPath id="clip0_1731_6098">
<rect width="24" height="36" fill="white"/>
</clipPath>
</defs>
</svg>
