<svg width="14" height="18" viewBox="0 0 14 18" fill="none" xmlns="http://www.w3.org/2000/svg">
<g id="label-paired / caption / star-caption / fill" clip-path="url(#clip0_1731_818)">
<path id="icon" d="M7.67969 3.92188L9.17969 7.01562L12.5547 7.53125C12.8516 7.57812 13.0547 7.74219 13.1641 8.02344C13.2422 8.32031 13.1797 8.57812 12.9766 8.79688L10.5391 11.2109L11.1016 14.6328C11.1484 14.9297 11.0469 15.1719 10.7969 15.3594C10.5469 15.5312 10.2891 15.5469 10.0234 15.4062L7 13.8125L4 15.4062C3.71875 15.5469 3.45312 15.5312 3.20312 15.3594C2.96875 15.1719 2.86719 14.9297 2.89844 14.6328L3.48438 11.2109L1.04688 8.79688C0.828125 8.57812 0.765625 8.32031 0.859375 8.02344C0.953125 7.74219 1.14844 7.57812 1.44531 7.53125L4.82031 7.01562L6.32031 3.92188C6.47656 3.65625 6.70312 3.51563 7 3.5C7.3125 3.51563 7.53906 3.65625 7.67969 3.92188Z" fill="black" fill-opacity="0.72"/>
</g>
<defs>
<clipPath id="clip0_1731_818">
<rect width="14" height="18" fill="white"/>
</clipPath>
</defs>
</svg>
