<svg width="27" height="36" viewBox="0 0 27 36" fill="none" xmlns="http://www.w3.org/2000/svg">
<g id="label-paired / xl / house-blank-xl / regular" clip-path="url(#clip0_1731_6462)">
<path id="icon" d="M12.9844 6.1875C13.3281 5.9375 13.6719 5.9375 14.0156 6.1875L26.7656 17.4375C27.0781 17.7812 27.0938 18.1406 26.8125 18.5156C26.4688 18.8281 26.1094 18.8438 25.7344 18.5625L24 17.0156V26.25C23.9688 27.3125 23.6094 28.2031 22.9219 28.9219C22.2031 29.6094 21.3125 29.9688 20.25 30H6.75C5.6875 29.9688 4.79688 29.6094 4.07812 28.9219C3.39062 28.2031 3.03125 27.3125 3 26.25V17.0156L1.26562 18.5625C0.890625 18.8438 0.53125 18.8281 0.1875 18.5156C-0.09375 18.1406 -0.078125 17.7812 0.234375 17.4375L12.9844 6.1875ZM4.5 15.7031V26.25C4.53125 26.875 4.75 27.4062 5.15625 27.8438C5.59375 28.25 6.125 28.4688 6.75 28.5H20.25C20.875 28.4688 21.4062 28.25 21.8438 27.8438C22.25 27.4062 22.4688 26.875 22.5 26.25V15.7031L13.5 7.73438L4.5 15.7031Z" fill="black" fill-opacity="0.72"/>
</g>
<defs>
<clipPath id="clip0_1731_6462">
<rect width="27" height="36" fill="white"/>
</clipPath>
</defs>
</svg>
