<svg width="13" height="22" viewBox="0 0 13 22" fill="none" xmlns="http://www.w3.org/2000/svg">
<g id="label-paired / sm / bars-sm / bold" clip-path="url(#clip0_1731_1909)">
<path id="icon" d="M0.375 6.15625C0.411458 5.75521 0.630208 5.53646 1.03125 5.5H11.9688C12.3698 5.53646 12.5885 5.75521 12.625 6.15625C12.5885 6.55729 12.3698 6.77604 11.9688 6.8125H1.03125C0.630208 6.77604 0.411458 6.55729 0.375 6.15625ZM0.375 10.5312C0.411458 10.1302 0.630208 9.91146 1.03125 9.875H11.9688C12.3698 9.91146 12.5885 10.1302 12.625 10.5312C12.5885 10.9323 12.3698 11.151 11.9688 11.1875H1.03125C0.630208 11.151 0.411458 10.9323 0.375 10.5312ZM12.625 14.9062C12.5885 15.3073 12.3698 15.526 11.9688 15.5625H1.03125C0.630208 15.526 0.411458 15.3073 0.375 14.9062C0.411458 14.5052 0.630208 14.2865 1.03125 14.25H11.9688C12.3698 14.2865 12.5885 14.5052 12.625 14.9062Z" fill="black" fill-opacity="0.72"/>
</g>
<defs>
<clipPath id="clip0_1731_1909">
<rect width="13" height="22" fill="white"/>
</clipPath>
</defs>
</svg>
