<svg width="16" height="24" viewBox="0 0 16 24" fill="none" xmlns="http://www.w3.org/2000/svg">
<g id="label-paired / md / right-from-bracket-md / bold" clip-path="url(#clip0_1731_3192)">
<path id="icon" d="M11 8.5625V10.25C10.9583 10.7083 10.7083 10.9583 10.25 11H6.5V13H10.25C10.7083 13.0417 10.9583 13.2917 11 13.75V15.4375L14.4375 12L11 8.5625ZM16 12C16 12.375 15.8646 12.6979 15.5938 12.9688L11.9688 16.5625C11.6979 16.8542 11.3542 17 10.9375 17C10.5417 17 10.2083 16.8542 9.9375 16.5625C9.66667 16.2917 9.52083 15.9583 9.5 15.5625V14.5H6.5C6.08333 14.4792 5.72917 14.3333 5.4375 14.0625C5.16667 13.7708 5.02083 13.4167 5 13V11C5.02083 10.5833 5.16667 10.2292 5.4375 9.9375C5.72917 9.66667 6.08333 9.52083 6.5 9.5H9.5V8.4375C9.52083 8.04167 9.66667 7.70833 9.9375 7.4375C10.2083 7.16667 10.5417 7.02083 10.9375 7C11.3542 7 11.6979 7.14583 11.9688 7.4375L15.5938 11.0312C15.8646 11.3021 16 11.625 16 12ZM5.25 6.5H2.75C2.39583 6.5 2.10417 6.625 1.875 6.875C1.625 7.10417 1.5 7.39583 1.5 7.75V16.25C1.5 16.6042 1.625 16.8958 1.875 17.125C2.10417 17.375 2.39583 17.5 2.75 17.5H5.25C5.70833 17.5417 5.95833 17.7917 6 18.25C5.95833 18.7083 5.70833 18.9583 5.25 19H2.75C1.97917 18.9792 1.33333 18.7083 0.8125 18.1875C0.291667 17.6667 0.0208333 17.0208 0 16.25V7.75C0.0208333 6.97917 0.291667 6.33333 0.8125 5.8125C1.33333 5.29167 1.97917 5.02083 2.75 5H5.25C5.70833 5.04167 5.95833 5.29167 6 5.75C5.95833 6.20833 5.70833 6.45833 5.25 6.5Z" fill="black" fill-opacity="0.72"/>
</g>
<defs>
<clipPath id="clip0_1731_3192">
<rect width="16" height="24" fill="white"/>
</clipPath>
</defs>
</svg>
