<svg width="16" height="24" viewBox="0 0 16 24" fill="none" xmlns="http://www.w3.org/2000/svg">
<g id="label-paired / md / gear-md / regular" clip-path="url(#clip0_1731_3105)">
<path id="icon" d="M6.96875 5.1875L6.5625 6.65625C6.4375 7.05208 6.19792 7.33333 5.84375 7.5C5.61458 7.60417 5.39583 7.72917 5.1875 7.875C4.875 8.08333 4.52083 8.15625 4.125 8.09375L2.59375 7.71875C2.55208 7.69792 2.51042 7.69792 2.46875 7.71875C2.30208 7.92708 2.14583 8.15625 2 8.40625L1.875 8.625C1.75 8.85417 1.63542 9.09375 1.53125 9.34375C1.53125 9.38542 1.55208 9.42708 1.59375 9.46875L2.65625 10.5938C2.92708 10.8854 3.05208 11.2292 3.03125 11.625C3.01042 11.75 3 11.875 3 12C3 12.125 3.01042 12.2604 3.03125 12.4062C3.05208 12.7812 2.92708 13.1146 2.65625 13.4062L1.59375 14.5312C1.55208 14.5521 1.52083 14.5938 1.5 14.6562C1.60417 14.9062 1.72917 15.1458 1.875 15.375L2 15.5938C2.14583 15.8438 2.30208 16.0729 2.46875 16.2812C2.51042 16.3021 2.55208 16.3021 2.59375 16.2812L4.09375 15.9062C4.51042 15.8438 4.86458 15.9167 5.15625 16.125C5.38542 16.2708 5.61458 16.3958 5.84375 16.5C6.17708 16.6667 6.41667 16.9479 6.5625 17.3438L6.96875 18.8125C6.98958 18.8542 7.02083 18.8958 7.0625 18.9375C7.375 18.9792 7.6875 19 8 19C8.3125 19 8.625 18.9792 8.9375 18.9375C8.97917 18.8958 9.01042 18.8542 9.03125 18.8125L9.4375 17.3438C9.5625 16.9479 9.80208 16.6667 10.1562 16.5C10.3854 16.3958 10.6146 16.2708 10.8438 16.125C11.1562 15.9167 11.5 15.8438 11.875 15.9062L13.4062 16.2812C13.4479 16.3021 13.4896 16.3021 13.5312 16.2812C13.6979 16.0729 13.8542 15.8438 14 15.5938L14.125 15.375C14.25 15.1458 14.3646 14.9062 14.4688 14.6562C14.4688 14.5938 14.4479 14.5521 14.4062 14.5312L13.3438 13.4062C13.0729 13.1146 12.9583 12.7812 13 12.4062C13 12.2604 13 12.125 13 12C13 11.875 13 11.75 13 11.625C12.9583 11.2292 13.0729 10.8854 13.3438 10.5938L14.4062 9.46875C14.4479 9.44792 14.4792 9.40625 14.5 9.34375C14.3958 9.09375 14.2708 8.85417 14.125 8.625L14 8.40625C13.8542 8.15625 13.6979 7.92708 13.5312 7.71875C13.4896 7.69792 13.4479 7.69792 13.4062 7.71875L11.9062 8.09375C11.4896 8.15625 11.1354 8.08333 10.8438 7.875C10.6146 7.72917 10.3854 7.60417 10.1562 7.5C9.82292 7.33333 9.58333 7.0625 9.4375 6.6875L9.03125 5.1875C9.01042 5.14583 8.97917 5.10417 8.9375 5.0625C8.625 5.02083 8.3125 5 8 5C7.6875 5 7.375 5.02083 7.0625 5.0625C7.02083 5.10417 6.98958 5.14583 6.96875 5.1875ZM8 4C8.41667 4 8.8125 4.03125 9.1875 4.09375C9.25 4.09375 9.30208 4.11458 9.34375 4.15625C9.65625 4.30208 9.86458 4.55208 9.96875 4.90625L10.4062 6.40625C10.4271 6.46875 10.4896 6.53125 10.5938 6.59375C10.8646 6.71875 11.1354 6.875 11.4062 7.0625C11.4896 7.10417 11.5729 7.125 11.6562 7.125L13.1562 6.75C13.5104 6.66667 13.8333 6.71875 14.125 6.90625C14.1667 6.92708 14.2083 6.95833 14.25 7C14.4792 7.27083 14.6875 7.5625 14.875 7.875L15 8.125C15.1667 8.4375 15.3125 8.76042 15.4375 9.09375C15.4583 9.13542 15.4792 9.1875 15.5 9.25C15.5 9.60417 15.375 9.91667 15.125 10.1875L14.0625 11.2812C14 11.3438 13.9688 11.4271 13.9688 11.5312C13.9896 11.6771 14 11.8333 14 12C14 12.1667 13.9896 12.3229 13.9688 12.4688C13.9688 12.5729 14 12.6562 14.0625 12.7188L15.125 13.8438C15.375 14.0938 15.5 14.3958 15.5 14.75C15.4792 14.8125 15.4583 14.8646 15.4375 14.9062C15.3125 15.2396 15.1667 15.5625 15 15.875L14.875 16.125H14.8438C14.6771 16.4375 14.4792 16.7292 14.25 17C14.2083 17.0417 14.1667 17.0729 14.125 17.0938C13.8333 17.2812 13.5104 17.3438 13.1562 17.2812L11.6562 16.9062C11.5729 16.8854 11.4896 16.8958 11.4062 16.9375C11.1354 17.125 10.8646 17.2812 10.5938 17.4062C10.4896 17.4688 10.4271 17.5312 10.4062 17.5938L9.96875 19.0938C9.86458 19.4479 9.65625 19.7083 9.34375 19.875C9.30208 19.8958 9.25 19.9062 9.1875 19.9062C8.8125 19.9688 8.41667 20 8 20C7.58333 20 7.1875 19.9688 6.8125 19.9062C6.75 19.9062 6.69792 19.8958 6.65625 19.875C6.34375 19.7083 6.13542 19.4479 6.03125 19.0938L5.59375 17.5938C5.57292 17.5312 5.51042 17.4688 5.40625 17.4062C5.13542 17.2812 4.86458 17.125 4.59375 16.9375C4.51042 16.8958 4.42708 16.8854 4.34375 16.9062L2.84375 17.2812C2.48958 17.3438 2.16667 17.2917 1.875 17.125C1.83333 17.0833 1.79167 17.0417 1.75 17C1.52083 16.7292 1.32292 16.4375 1.15625 16.125H1.125L1 15.875C0.833333 15.5625 0.6875 15.2396 0.5625 14.9062C0.541667 14.8646 0.53125 14.8125 0.53125 14.75C0.510417 14.4167 0.625 14.1146 0.875 13.8438L1.9375 12.7188C2 12.6562 2.03125 12.5729 2.03125 12.4688C2.01042 12.3229 2 12.1667 2 12C2 11.9167 2 11.8438 2 11.7812C2 11.6979 2.01042 11.6146 2.03125 11.5312C2.03125 11.4271 2 11.3438 1.9375 11.2812L0.875 10.1875C0.625 9.91667 0.5 9.60417 0.5 9.25C0.520833 9.1875 0.541667 9.13542 0.5625 9.09375C0.6875 8.76042 0.833333 8.4375 1 8.125L1.125 7.875H1.15625C1.32292 7.5625 1.52083 7.27083 1.75 7C1.79167 6.95833 1.83333 6.92708 1.875 6.90625C2.16667 6.71875 2.48958 6.66667 2.84375 6.75L4.34375 7.125C4.42708 7.125 4.51042 7.10417 4.59375 7.0625C4.86458 6.875 5.13542 6.71875 5.40625 6.59375C5.51042 6.53125 5.57292 6.46875 5.59375 6.40625L6.03125 4.90625C6.13542 4.55208 6.34375 4.30208 6.65625 4.15625C6.69792 4.11458 6.75 4.09375 6.8125 4.09375C7.1875 4.03125 7.58333 4 8 4ZM6.25 12C6.27083 12.6667 6.5625 13.1667 7.125 13.5C7.70833 13.8333 8.29167 13.8333 8.875 13.5C9.4375 13.1667 9.72917 12.6667 9.75 12C9.72917 11.3333 9.4375 10.8333 8.875 10.5C8.29167 10.1667 7.70833 10.1667 7.125 10.5C6.5625 10.8333 6.27083 11.3333 6.25 12ZM10.75 12C10.7083 13.0417 10.25 13.8333 9.375 14.375C8.45833 14.875 7.54167 14.875 6.625 14.375C5.75 13.8333 5.29167 13.0417 5.25 12C5.29167 10.9583 5.75 10.1667 6.625 9.625C7.54167 9.125 8.45833 9.125 9.375 9.625C10.25 10.1667 10.7083 10.9583 10.75 12Z" fill="black" fill-opacity="0.72"/>
</g>
<defs>
<clipPath id="clip0_1731_3105">
<rect width="16" height="24" fill="white"/>
</clipPath>
</defs>
</svg>
