<svg width="16" height="22" viewBox="0 0 16 22" fill="none" xmlns="http://www.w3.org/2000/svg">
<g id="label-paired / sm / rectangle-ad-sm / regular" clip-path="url(#clip0_1731_2601)">
<path id="icon" d="M1.875 5.5C1.61979 5.5 1.41016 5.58203 1.24609 5.74609C1.08203 5.91016 1 6.11979 1 6.375V15.125C1 15.3802 1.08203 15.5898 1.24609 15.7539C1.41016 15.918 1.61979 16 1.875 16H14.125C14.3802 16 14.5898 15.918 14.7539 15.7539C14.918 15.5898 15 15.3802 15 15.125V6.375C15 6.11979 14.918 5.91016 14.7539 5.74609C14.5898 5.58203 14.3802 5.5 14.125 5.5H1.875ZM0.125 6.375C0.143229 5.88281 0.316406 5.47266 0.644531 5.14453C0.972656 4.81641 1.38281 4.64323 1.875 4.625H14.125C14.6172 4.64323 15.0273 4.81641 15.3555 5.14453C15.6836 5.47266 15.8568 5.88281 15.875 6.375V15.125C15.8568 15.6172 15.6836 16.0273 15.3555 16.3555C15.0273 16.6836 14.6172 16.8568 14.125 16.875H1.875C1.38281 16.8568 0.972656 16.6836 0.644531 16.3555C0.316406 16.0273 0.143229 15.6172 0.125 15.125V6.375ZM6.00391 8.37109L7.97266 12.7461C8.04557 13.0013 7.97266 13.2018 7.75391 13.3477C7.4987 13.4206 7.29818 13.3477 7.15234 13.1289L6.87891 12.5H4.30859L4.03516 13.1289C3.88932 13.3477 3.6888 13.4206 3.43359 13.3477C3.19661 13.2018 3.1237 13.0013 3.21484 12.7461L5.18359 8.37109C5.27474 8.20703 5.41146 8.125 5.59375 8.125C5.77604 8.125 5.91276 8.20703 6.00391 8.37109ZM5.59375 9.62891L4.69141 11.625H6.49609L5.59375 9.62891ZM10.4062 10.3125C9.98698 10.3307 9.66797 10.513 9.44922 10.8594C9.26693 11.224 9.26693 11.5885 9.44922 11.9531C9.66797 12.2995 9.98698 12.4818 10.4062 12.5C10.8255 12.4818 11.1445 12.2995 11.3633 11.9531C11.5456 11.5885 11.5456 11.224 11.3633 10.8594C11.1445 10.513 10.8255 10.3307 10.4062 10.3125ZM11.5 9.76562V8.5625C11.5182 8.28906 11.6641 8.14323 11.9375 8.125C12.2109 8.14323 12.3568 8.28906 12.375 8.5625V11.4062V12.9375C12.3568 13.2109 12.2109 13.3568 11.9375 13.375C11.7188 13.3568 11.5729 13.2474 11.5 13.0469C11.1901 13.2656 10.8255 13.375 10.4062 13.375C9.84115 13.3568 9.3763 13.1654 9.01172 12.8008C8.64714 12.4362 8.45573 11.9714 8.4375 11.4062C8.45573 10.8411 8.64714 10.3763 9.01172 10.0117C9.3763 9.64714 9.84115 9.45573 10.4062 9.4375C10.8255 9.4375 11.1901 9.54688 11.5 9.76562Z" fill="black" fill-opacity="0.72"/>
</g>
<defs>
<clipPath id="clip0_1731_2601">
<rect width="16" height="22" fill="white"/>
</clipPath>
</defs>
</svg>
