<svg width="20" height="24" viewBox="0 0 20 24" fill="none" xmlns="http://www.w3.org/2000/svg">
<g id="label-paired / md / fiat-onramp-md / regular" clip-path="url(#clip0_1731_4193)">
<path id="icon" d="M14 5C12.9062 5.03125 11.9062 5.59375 11.375 6.53125C10.8438 7.4375 10.8438 8.59375 11.375 9.53125C11.9375 10.4375 12.9062 11.0312 14 11.0312C15.0625 11.0312 16.0625 10.4375 16.5938 9.53125C17.125 8.59375 17.125 7.4375 16.5938 6.5C16.0625 5.59375 15.0625 5 14 5ZM17 10.6562C16.25 11.5 15.1875 12 14 12C12.5625 12 11.2812 11.25 10.5938 10.125L8.09375 12.625C9.21875 13.3125 10 14.5625 10 16C10 17.2188 9.46875 18.2812 8.625 19H15.5C16.3125 19 17 18.3438 17 17.5V10.6562ZM6 19C7.65625 19 9 17.6562 9 16C9 14.75 8.21875 13.6562 7.09375 13.2188H7.0625C6.75 13.0938 6.375 13 6 13C4.34375 13 3 14.3438 3 16C3 17.6562 4.34375 19 6 19ZM7.125 12.1875L10.1562 9.15625C10.0312 8.78125 10 8.40625 10 8C10 5.8125 11.7812 4 14 4C16.1875 4 18 5.8125 18 8V17.5C18 18.9062 16.875 20 15.5 20H6C3.78125 20 2 18.2188 2 16C2 13.8125 3.78125 12 6 12C6.375 12 6.75 12.0625 7.125 12.1875ZM5 7.5C5 7.25 5.21875 7 5.5 7H8.5C8.6875 7 8.875 7.125 8.9375 7.3125C9.03125 7.5 8.96875 7.71875 8.84375 7.875L5.84375 10.875C5.65625 11.0625 5.3125 11.0625 5.125 10.875C4.9375 10.6875 4.9375 10.3438 5.125 10.1562L7.28125 8H5.5C5.21875 8 5 7.78125 5 7.5ZM6.40625 13.5V13.875C6.9375 14.0312 7.28125 14.5312 7.28125 15.0938V15.2188H6.46875V15.0938C6.46875 14.8438 6.25 14.625 5.96875 14.625C5.71875 14.625 5.5 14.8438 5.5 15.0938C5.5 15.375 5.71875 15.5938 5.96875 15.5938C6.6875 15.5938 7.28125 16.1875 7.28125 16.9062C7.28125 17.4688 6.9375 17.9688 6.40625 18.125V18.5H5.5625V18.125C5.03125 17.9688 4.6875 17.4688 4.6875 16.9062V16.7812H5.5V16.9062C5.5 17.1562 5.71875 17.375 5.96875 17.375C6.25 17.375 6.46875 17.1562 6.46875 16.9062C6.46875 16.625 6.25 16.4062 5.96875 16.4062C5.25 16.4062 4.6875 15.8125 4.6875 15.0938C4.6875 14.5312 5.03125 14.0312 5.5625 13.875V13.5H6.40625ZM13.5 5.65625V6.34375H14.1562V5.65625H14.8125V6.34375C15.0625 6.34375 15.3125 6.4375 15.4688 6.59375C15.875 6.96875 15.9062 7.59375 15.5312 8C15.7188 8.1875 15.8125 8.4375 15.8125 8.6875C15.8125 9.25 15.3438 9.6875 14.8125 9.6875V10.3438H14.1562V9.6875H13.5V10.3438H12.8125V9.6875H12.1562V9H12.8125V7H12.1562V6.34375H12.8125V5.65625H13.5ZM14.8125 8.34375H13.5V9H14.8125C15 9 15.1562 8.84375 15.1562 8.65625C15.1562 8.5 15 8.34375 14.8125 8.34375ZM14.8125 7H13.5V7.6875H14.8125C15 7.6875 15.1562 7.53125 15.1562 7.34375C15.1562 7.15625 15 7 14.8125 7Z" fill="black" fill-opacity="0.72"/>
</g>
<defs>
<clipPath id="clip0_1731_4193">
<rect width="20" height="24" fill="white"/>
</clipPath>
</defs>
</svg>
