<svg width="20" height="30" viewBox="0 0 20 30" fill="none" xmlns="http://www.w3.org/2000/svg">
<g id="label-paired / lg / circle-envelope-lg / regular" clip-path="url(#clip0_1731_4771)">
<path id="icon" d="M18.75 15.5C18.724 13.9115 18.3333 12.4531 17.5781 11.125C16.7969 9.79688 15.7292 8.72917 14.375 7.92188C12.9948 7.14062 11.5365 6.75 10 6.75C8.46354 6.75 7.00521 7.14062 5.625 7.92188C4.27083 8.72917 3.20312 9.79688 2.42188 11.125C1.66667 12.4531 1.27604 13.9115 1.25 15.5C1.27604 17.0885 1.66667 18.5469 2.42188 19.875C3.20312 21.2031 4.27083 22.2708 5.625 23.0781C7.00521 23.8594 8.46354 24.25 10 24.25C11.5365 24.25 12.9948 23.8594 14.375 23.0781C15.7292 22.2708 16.7969 21.2031 17.5781 19.875C18.3333 18.5469 18.724 17.0885 18.75 15.5ZM0 15.5C0.0260417 13.6771 0.46875 12.0104 1.32812 10.5C2.21354 8.98958 3.4375 7.76562 5 6.82812C6.58854 5.94271 8.25521 5.5 10 5.5C11.7448 5.5 13.4115 5.94271 15 6.82812C16.5625 7.76562 17.7865 8.98958 18.6719 10.5C19.5312 12.0104 19.974 13.6771 20 15.5C19.974 17.3229 19.5312 18.9896 18.6719 20.5C17.7865 22.0104 16.5625 23.2344 15 24.1719C13.4115 25.0573 11.7448 25.5 10 25.5C8.25521 25.5 6.58854 25.0573 5 24.1719C3.4375 23.2344 2.21354 22.0104 1.32812 20.5C0.46875 18.9896 0.0260417 17.3229 0 15.5ZM6.25 11.75H13.75C14.1146 11.75 14.4141 11.8672 14.6484 12.1016C14.8828 12.3359 15 12.6354 15 13V18C15 18.3646 14.8828 18.6641 14.6484 18.8984C14.4141 19.1328 14.1146 19.25 13.75 19.25H6.25C5.88542 19.25 5.58594 19.1328 5.35156 18.8984C5.11719 18.6641 5 18.3646 5 18V13C5 12.6354 5.11719 12.3359 5.35156 12.1016C5.58594 11.8672 5.88542 11.75 6.25 11.75ZM13.75 13.6641V13H6.25V13.6641L9.72656 15.5C9.80469 15.526 9.89583 15.5521 10 15.5781C10.1042 15.5781 10.2083 15.5521 10.3125 15.5L13.75 13.6641ZM13.75 15.0703L10.8984 16.5938C10.612 16.724 10.3125 16.7891 10 16.7891C9.6875 16.7891 9.38802 16.724 9.10156 16.5938L6.25 15.0703V18H13.75V15.0703Z" fill="black" fill-opacity="0.72"/>
</g>
<defs>
<clipPath id="clip0_1731_4771">
<rect width="20" height="30" fill="white"/>
</clipPath>
</defs>
</svg>
