<svg width="18" height="24" viewBox="0 0 18 24" fill="none" xmlns="http://www.w3.org/2000/svg">
<g id="label-paired / md / memo-circle-check-md / bold" clip-path="url(#clip0_1731_4029)">
<path id="icon" d="M2 5.5C1.6875 5.52083 1.52083 5.6875 1.5 6V18C1.52083 18.3125 1.6875 18.4792 2 18.5H8.875C9.27083 19.0833 9.75 19.5729 10.3125 19.9688C10.2083 19.9896 10.1042 20 10 20H2C1.4375 19.9792 0.96875 19.7812 0.59375 19.4062C0.21875 19.0312 0.0208333 18.5625 0 18V6C0.0208333 5.4375 0.21875 4.96875 0.59375 4.59375C0.96875 4.21875 1.4375 4.02083 2 4H10C10.5625 4.02083 11.0312 4.21875 11.4062 4.59375C11.7812 4.96875 11.9792 5.4375 12 6V10.2188C11.4583 10.3646 10.9583 10.5938 10.5 10.9062V6C10.4792 5.6875 10.3125 5.52083 10 5.5H2ZM3.75 8H8.25C8.70833 8.04167 8.95833 8.29167 9 8.75C8.95833 9.20833 8.70833 9.45833 8.25 9.5H3.75C3.29167 9.45833 3.04167 9.20833 3 8.75C3.04167 8.29167 3.29167 8.04167 3.75 8ZM3.75 11H8.25C8.70833 11.0417 8.95833 11.2917 9 11.75C8.95833 12.2083 8.70833 12.4583 8.25 12.5H3.75C3.29167 12.4583 3.04167 12.2083 3 11.75C3.04167 11.2917 3.29167 11.0417 3.75 11ZM3.75 14H5.25C5.70833 14.0417 5.95833 14.2917 6 14.75C5.95833 15.2083 5.70833 15.4583 5.25 15.5H3.75C3.29167 15.4583 3.04167 15.2083 3 14.75C3.04167 14.2917 3.29167 14.0417 3.75 14ZM18 15.5C18 16.3125 17.8021 17.0625 17.4062 17.75C17.0104 18.4375 16.4583 18.9896 15.75 19.4062C15.0417 19.8021 14.2917 20 13.5 20C12.7083 20 11.9583 19.8021 11.25 19.4062C10.5417 18.9896 9.98958 18.4375 9.59375 17.75C9.19792 17.0625 9 16.3125 9 15.5C9 14.6875 9.19792 13.9375 9.59375 13.25C9.98958 12.5625 10.5417 12.0104 11.25 11.5938C11.9583 11.1979 12.7083 11 13.5 11C14.2917 11 15.0417 11.1979 15.75 11.5938C16.4583 12.0104 17.0104 12.5625 17.4062 13.25C17.8021 13.9375 18 14.6875 18 15.5ZM15.5938 14.1562C15.3646 13.9479 15.1354 13.9479 14.9062 14.1562L13 16.0312L12.0938 15.1562C11.8646 14.9479 11.6354 14.9479 11.4062 15.1562C11.1979 15.3854 11.1979 15.6146 11.4062 15.8438L12.6562 17.0938C12.8854 17.3021 13.1146 17.3021 13.3438 17.0938L15.5938 14.8438C15.8021 14.6146 15.8021 14.3854 15.5938 14.1562Z" fill="black" fill-opacity="0.72"/>
</g>
<defs>
<clipPath id="clip0_1731_4029">
<rect width="18" height="24" fill="white"/>
</clipPath>
</defs>
</svg>
