<svg width="9" height="18" viewBox="0 0 9 18" fill="none" xmlns="http://www.w3.org/2000/svg">
<g id="label-paired / caption / apple-caption" clip-path="url(#clip0_1731_13803)">
<path id="icon" d="M7.47656 9.80469C7.44531 9.89844 7.5 10.1797 7.64062 10.6484C7.78125 11.1328 8.20312 11.5703 8.90625 11.9609C8.8125 12.2578 8.64844 12.625 8.41406 13.0625C8.17969 13.4844 7.89844 13.8672 7.57031 14.2109C7.24219 14.5391 6.89062 14.7188 6.51562 14.75C6.20312 14.7344 5.92188 14.6641 5.67188 14.5391C5.40625 14.4141 5.08594 14.3438 4.71094 14.3281C4.32031 14.3438 3.98438 14.4219 3.70312 14.5625C3.45312 14.6719 3.20312 14.7344 2.95312 14.75C2.5625 14.7344 2.19531 14.5469 1.85156 14.1875C1.50781 13.8281 1.21094 13.4219 0.960938 12.9688C0.710938 12.5 0.53125 12.1172 0.421875 11.8203C0.203125 11.1641 0.09375 10.5312 0.09375 9.92188C0.125 8.875 0.414062 8.09375 0.960938 7.57812C1.49219 7.0625 2.10156 6.79688 2.78906 6.78125C3.17969 6.8125 3.5625 6.90625 3.9375 7.0625C4.20312 7.17188 4.42188 7.23438 4.59375 7.25C4.71875 7.23438 4.90625 7.17969 5.15625 7.08594C5.35938 7.00781 5.59375 6.92969 5.85938 6.85156C6.125 6.77344 6.39062 6.74219 6.65625 6.75781C7.53125 6.83594 8.19531 7.1875 8.64844 7.8125C7.85156 8.28125 7.46094 8.94531 7.47656 9.80469ZM6.14062 5.96094C5.67188 6.50781 5.13281 6.77344 4.52344 6.75781C4.49219 6.10156 4.6875 5.53906 5.10938 5.07031C5.3125 4.85156 5.55469 4.66406 5.83594 4.50781C6.13281 4.35156 6.42188 4.26562 6.70312 4.25C6.73438 4.39062 6.72656 4.60938 6.67969 4.90625C6.61719 5.21875 6.4375 5.57031 6.14062 5.96094Z" fill="black" fill-opacity="0.72"/>
</g>
<defs>
<clipPath id="clip0_1731_13803">
<rect width="9" height="18" fill="white"/>
</clipPath>
</defs>
</svg>
