<svg width="11" height="18" viewBox="0 0 11 18" fill="none" xmlns="http://www.w3.org/2000/svg">
<g id="label-paired / caption / trash-caption / regular" clip-path="url(#clip0_1731_569)">
<path id="icon" d="M4.42188 4.25C4.28125 4.25 4.17188 4.3125 4.09375 4.4375L3.74219 5H7.25781L6.90625 4.4375C6.82812 4.3125 6.71875 4.25 6.57812 4.25H4.42188ZM8.14844 5H9.25H10H10.375C10.6094 5.01562 10.7344 5.14062 10.75 5.375C10.7344 5.60938 10.6094 5.73438 10.375 5.75H9.95312L9.34375 14.1172C9.3125 14.5078 9.15625 14.8359 8.875 15.1016C8.59375 15.3516 8.25 15.4844 7.84375 15.5H3.15625C2.75 15.4844 2.40625 15.3516 2.125 15.1016C1.84375 14.8359 1.6875 14.5078 1.65625 14.1172L1.04688 5.75H0.625C0.390625 5.73438 0.265625 5.60938 0.25 5.375C0.265625 5.14062 0.390625 5.01562 0.625 5H1H1.75H2.85156L3.46094 4.03906C3.69531 3.69531 4.01562 3.51563 4.42188 3.5H6.57812C6.98438 3.51563 7.30469 3.69531 7.53906 4.03906L8.14844 5ZM9.20312 5.75H1.79688L2.40625 14.0469C2.42188 14.25 2.5 14.4141 2.64062 14.5391C2.78125 14.6797 2.95312 14.75 3.15625 14.75H7.84375C8.04688 14.75 8.21875 14.6797 8.35938 14.5391C8.5 14.4141 8.57812 14.25 8.59375 14.0469L9.20312 5.75Z" fill="black" fill-opacity="0.72"/>
</g>
<defs>
<clipPath id="clip0_1731_569">
<rect width="11" height="18" fill="white"/>
</clipPath>
</defs>
</svg>
