<svg width="16" height="24" viewBox="0 0 16 24" fill="none" xmlns="http://www.w3.org/2000/svg">
<g id="label-paired / md / barcode-md / bold" clip-path="url(#clip0_1731_4250)">
<path id="icon" d="M0.75 5C1.20833 5.04167 1.45833 5.29167 1.5 5.75V18.25C1.45833 18.7083 1.20833 18.9583 0.75 19C0.291667 18.9583 0.0416667 18.7083 0 18.25V5.75C0.0416667 5.29167 0.291667 5.04167 0.75 5ZM3.5 5C3.8125 5.02083 3.97917 5.1875 4 5.5V18.5C3.97917 18.8125 3.8125 18.9792 3.5 19C3.1875 18.9792 3.02083 18.8125 3 18.5V5.5C3.02083 5.1875 3.1875 5.02083 3.5 5ZM5.75 5C6.20833 5.04167 6.45833 5.29167 6.5 5.75V18.25C6.45833 18.7083 6.20833 18.9583 5.75 19C5.29167 18.9583 5.04167 18.7083 5 18.25V5.75C5.04167 5.29167 5.29167 5.04167 5.75 5ZM9.25 5C9.70833 5.04167 9.95833 5.29167 10 5.75V18.25C9.95833 18.7083 9.70833 18.9583 9.25 19C8.79167 18.9583 8.54167 18.7083 8.5 18.25V5.75C8.54167 5.29167 8.79167 5.04167 9.25 5ZM14.5 5.75C14.5417 5.29167 14.7917 5.04167 15.25 5C15.7083 5.04167 15.9583 5.29167 16 5.75V18.25C15.9583 18.7083 15.7083 18.9583 15.25 19C14.7917 18.9583 14.5417 18.7083 14.5 18.25V5.75ZM12.5 5.5C12.5208 5.1875 12.6875 5.02083 13 5C13.3125 5.02083 13.4792 5.1875 13.5 5.5V18.5C13.4792 18.8125 13.3125 18.9792 13 19C12.6875 18.9792 12.5208 18.8125 12.5 18.5V5.5Z" fill="black" fill-opacity="0.72"/>
</g>
<defs>
<clipPath id="clip0_1731_4250">
<rect width="16" height="24" fill="white"/>
</clipPath>
</defs>
</svg>
