<svg width="30" height="36" viewBox="0 0 30 36" fill="none" xmlns="http://www.w3.org/2000/svg">
<g id="label-paired / xl / hands-holding-diamond-xl / regular" clip-path="url(#clip0_1731_6637)">
<path id="icon" d="M16.0781 6.42188L20.5781 10.9219C20.8594 11.2344 21 11.5938 21 12C21 12.4062 20.8594 12.7656 20.5781 13.0781L16.0781 17.5781C15.7656 17.8594 15.4062 18 15 18C14.5938 18 14.2344 17.8594 13.9219 17.5781L9.42188 13.0781C9.14062 12.7656 9 12.4062 9 12C9 11.5938 9.14062 11.2344 9.42188 10.9219L13.9219 6.42188C14.2344 6.14062 14.5938 6 15 6C15.4062 6 15.7656 6.14062 16.0781 6.42188ZM10.5 12L15 16.5L19.5 12L15 7.5L10.5 12ZM3 9C3.84375 9.03125 4.54688 9.32812 5.10938 9.89062C5.67188 10.4531 5.96875 11.1562 6 12V17.8125C6 18.0312 6.01562 18.25 6.04688 18.4688C6.14062 18.3125 6.26562 18.1719 6.42188 18.0469C6.95312 17.5156 7.5625 17.25 8.25 17.25C8.9375 17.25 9.54688 17.5156 10.0781 18.0469L14.3906 22.3125C14.6094 22.5625 14.8125 22.8281 15 23.1094C15.1875 22.8281 15.3906 22.5625 15.6094 22.3125L19.9219 18.0469C20.4531 17.5156 21.0625 17.25 21.75 17.25C22.4375 17.25 23.0469 17.5156 23.5781 18.0469C23.7344 18.1719 23.8594 18.3125 23.9531 18.4688C23.9844 18.25 24 18.0312 24 17.8125V12C24.0312 11.1562 24.3281 10.4531 24.8906 9.89062C25.4531 9.32812 26.1562 9.03125 27 9C27.8438 9.03125 28.5469 9.32812 29.1094 9.89062C29.6719 10.4531 29.9688 11.1562 30 12V22.125C29.9688 23.5625 29.4531 24.7969 28.4531 25.8281L24.5156 29.7656C24.1719 30.0781 23.8281 30.0781 23.4844 29.7656C23.1719 29.4219 23.1719 29.0781 23.4844 28.7344L27.4219 24.7969C28.1406 24.0469 28.5 23.1562 28.5 22.125V12C28.5 11.5625 28.3594 11.2031 28.0781 10.9219C27.7969 10.6406 27.4375 10.5 27 10.5C26.5625 10.5 26.2031 10.6406 25.9219 10.9219C25.6406 11.2031 25.5 11.5625 25.5 12V17.8125C25.4688 19.125 25 20.2656 24.0938 21.2344L23.5781 21.7031L21.5156 23.7656L20.7656 24.5156C20.4219 24.8281 20.0781 24.8281 19.7344 24.5156C19.4219 24.1719 19.4219 23.8281 19.7344 23.4844L20.4844 22.7344L22.5469 20.6719C22.9844 20.1406 22.9844 19.6094 22.5469 19.0781C22.0156 18.6719 21.4844 18.6719 20.9531 19.0781L16.6875 23.3906C16.0625 24.0156 15.75 24.7656 15.75 25.6406V29.25C15.7188 29.7188 15.4688 29.9688 15 30C14.5312 29.9688 14.2812 29.7188 14.25 29.25V25.6406C14.25 24.7656 13.9375 24.0156 13.3125 23.3906L9.04688 19.0781C8.51562 18.6406 7.98438 18.6406 7.45312 19.0781C7.04688 19.6094 7.04688 20.1406 7.45312 20.6719L9.51562 22.7344L10.2656 23.4844C10.5781 23.8281 10.5781 24.1719 10.2656 24.5156C9.92188 24.8281 9.57812 24.8281 9.23438 24.5156L8.48438 23.7656L6.42188 21.7031L5.90625 21.2344C5 20.2656 4.53125 19.125 4.5 17.8125V12C4.5 11.5625 4.35938 11.2031 4.07812 10.9219C3.79688 10.6406 3.4375 10.5 3 10.5C2.5625 10.5 2.20312 10.6406 1.92188 10.9219C1.64062 11.2031 1.5 11.5625 1.5 12V22.125C1.5 23.1562 1.85938 24.0469 2.57812 24.7969L6.51562 28.7344C6.82812 29.0781 6.82812 29.4219 6.51562 29.7656C6.17188 30.0781 5.82812 30.0781 5.48438 29.7656L1.54688 25.8281C0.546875 24.7969 0.03125 23.5625 0 22.125V12C0.03125 11.1562 0.328125 10.4531 0.890625 9.89062C1.45312 9.32812 2.15625 9.03125 3 9Z" fill="black" fill-opacity="0.72"/>
</g>
<defs>
<clipPath id="clip0_1731_6637">
<rect width="30" height="36" fill="white"/>
</clipPath>
</defs>
</svg>
