<svg width="14" height="22" viewBox="0 0 14 22" fill="none" xmlns="http://www.w3.org/2000/svg">
<g id="label-paired / sm / chart-line-sm / regular" clip-path="url(#clip0_1731_2505)">
<path id="icon" d="M0.875 5.0625V14.6875C0.893229 15.0521 1.02083 15.362 1.25781 15.6172C1.51302 15.8542 1.82292 15.9818 2.1875 16H13.5625C13.8359 16.0182 13.9818 16.1641 14 16.4375C13.9818 16.7109 13.8359 16.8568 13.5625 16.875H2.1875C1.56771 16.8568 1.04818 16.6471 0.628906 16.2461C0.227865 15.8268 0.0182292 15.3073 0 14.6875V5.0625C0.0182292 4.78906 0.164062 4.64323 0.4375 4.625C0.710938 4.64323 0.856771 4.78906 0.875 5.0625ZM12.9883 7.98828L9.05078 11.9258C8.85026 12.1081 8.64974 12.1081 8.44922 11.9258L6.125 9.62891L3.36328 12.3633C3.16276 12.5456 2.96224 12.5456 2.76172 12.3633C2.57943 12.1628 2.57943 11.9622 2.76172 11.7617L5.82422 8.69922C6.02474 8.51693 6.22526 8.51693 6.42578 8.69922L8.75 10.9961L12.3867 7.38672C12.5872 7.20443 12.7878 7.20443 12.9883 7.38672C13.1706 7.58724 13.1706 7.78776 12.9883 7.98828Z" fill="black" fill-opacity="0.72"/>
</g>
<defs>
<clipPath id="clip0_1731_2505">
<rect width="14" height="22" fill="white"/>
</clipPath>
</defs>
</svg>
