<svg width="18" height="36" viewBox="0 0 18 36" fill="none" xmlns="http://www.w3.org/2000/svg">
<g id="label-paired / xl / four-xl / regular" clip-path="url(#clip0_1731_6041)">
<path id="icon" d="M8.15625 8.57812L1.96875 21H13.5V12.75C13.5312 12.2812 13.7812 12.0312 14.25 12C14.7188 12.0312 14.9688 12.2812 15 12.75V21H17.25C17.7188 21.0312 17.9688 21.2812 18 21.75C17.9688 22.2188 17.7188 22.4688 17.25 22.5H15V27.75C14.9688 28.2188 14.7188 28.4688 14.25 28.5C13.7812 28.4688 13.5312 28.2188 13.5 27.75V22.5H0.75C0.46875 22.5 0.25 22.3906 0.09375 22.1719C-0.03125 21.9219 -0.03125 21.6719 0.09375 21.4219L6.84375 7.92188C7.0625 7.51562 7.39062 7.40625 7.82812 7.59375C8.23438 7.84375 8.34375 8.17188 8.15625 8.57812Z" fill="black" fill-opacity="0.72"/>
</g>
<defs>
<clipPath id="clip0_1731_6041">
<rect width="18" height="36" fill="white"/>
</clipPath>
</defs>
</svg>
