<svg width="18" height="36" viewBox="0 0 18 36" fill="none" xmlns="http://www.w3.org/2000/svg">
<g id="label-paired / xl / file-chart-column-xl / regular" clip-path="url(#clip0_1731_6293)">
<path id="icon" d="M15 28.5C15.4375 28.5 15.7969 28.3594 16.0781 28.0781C16.3594 27.7969 16.5 27.4375 16.5 27V15H11.25C10.625 14.9688 10.0938 14.75 9.65625 14.3438C9.25 13.9062 9.03125 13.375 9 12.75V7.5H3C2.5625 7.5 2.20312 7.64062 1.92188 7.92188C1.64062 8.20312 1.5 8.5625 1.5 9V27C1.5 27.4375 1.64062 27.7969 1.92188 28.0781C2.20312 28.3594 2.5625 28.5 3 28.5H15ZM11.25 13.5H16.5C16.4375 13.375 16.3594 13.2656 16.2656 13.1719L10.8281 7.73438C10.7344 7.64062 10.625 7.57813 10.5 7.54688V12.75C10.5312 13.2188 10.7812 13.4688 11.25 13.5ZM3 6H10.3125C10.9375 6 11.4688 6.21875 11.9062 6.65625L17.3438 12.0938C17.7812 12.5312 18 13.0625 18 13.6875V27C17.9688 27.8438 17.6719 28.5469 17.1094 29.1094C16.5469 29.6719 15.8438 29.9688 15 30H3C2.15625 29.9688 1.45312 29.6719 0.890625 29.1094C0.328125 28.5469 0.03125 27.8438 0 27V9C0.03125 8.15625 0.328125 7.45312 0.890625 6.89062C1.45312 6.32812 2.15625 6.03125 3 6ZM9.75 17.25V26.25C9.71875 26.7188 9.46875 26.9688 9 27C8.53125 26.9688 8.28125 26.7188 8.25 26.25V17.25C8.28125 16.7812 8.53125 16.5312 9 16.5C9.46875 16.5312 9.71875 16.7812 9.75 17.25ZM14.25 20.25V26.25C14.2188 26.7188 13.9688 26.9688 13.5 27C13.0312 26.9688 12.7812 26.7188 12.75 26.25V20.25C12.7812 19.7812 13.0312 19.5312 13.5 19.5C13.9688 19.5312 14.2188 19.7812 14.25 20.25ZM5.25 23.25V26.25C5.21875 26.7188 4.96875 26.9688 4.5 27C4.03125 26.9688 3.78125 26.7188 3.75 26.25V23.25C3.78125 22.7812 4.03125 22.5312 4.5 22.5C4.96875 22.5312 5.21875 22.7812 5.25 23.25Z" fill="black" fill-opacity="0.72"/>
</g>
<defs>
<clipPath id="clip0_1731_6293">
<rect width="18" height="36" fill="white"/>
</clipPath>
</defs>
</svg>
