<svg width="14" height="22" viewBox="0 0 14 22" fill="none" xmlns="http://www.w3.org/2000/svg">
<g id="label-paired / sm / circle-four-sm / bold" clip-path="url(#clip0_1731_2320)">
<path id="icon" d="M12.6875 10.75C12.6875 9.71094 12.4323 8.76302 11.9219 7.90625C11.4297 7.04948 10.737 6.35677 9.84375 5.82812C8.95052 5.31771 8.0026 5.0625 7 5.0625C5.9974 5.0625 5.04948 5.31771 4.15625 5.82812C3.26302 6.35677 2.57031 7.04948 2.07812 7.90625C1.56771 8.76302 1.3125 9.71094 1.3125 10.75C1.3125 11.7891 1.56771 12.737 2.07812 13.5938C2.57031 14.4505 3.26302 15.1432 4.15625 15.6719C5.04948 16.1823 5.9974 16.4375 7 16.4375C8.0026 16.4375 8.95052 16.1823 9.84375 15.6719C10.737 15.1432 11.4297 14.4505 11.9219 13.5938C12.4323 12.737 12.6875 11.7891 12.6875 10.75ZM0 10.75C0.0182292 9.47396 0.328125 8.30729 0.929688 7.25C1.54948 6.19271 2.40625 5.33594 3.5 4.67969C4.61198 4.0599 5.77865 3.75 7 3.75C8.22135 3.75 9.38802 4.0599 10.5 4.67969C11.5938 5.33594 12.4505 6.19271 13.0703 7.25C13.6719 8.30729 13.9818 9.47396 14 10.75C13.9818 12.026 13.6719 13.1927 13.0703 14.25C12.4505 15.3073 11.5938 16.1641 10.5 16.8203C9.38802 17.4401 8.22135 17.75 7 17.75C5.77865 17.75 4.61198 17.4401 3.5 16.8203C2.40625 16.1641 1.54948 15.3073 0.929688 14.25C0.328125 13.1927 0.0182292 12.026 0 10.75ZM6.125 7.27734C6.48958 7.44141 6.6263 7.72396 6.53516 8.125L5.49609 11.1875H7.4375V9.65625C7.47396 9.25521 7.69271 9.03646 8.09375 9C8.49479 9.03646 8.71354 9.25521 8.75 9.65625V11.1875H8.96875C9.36979 11.224 9.58854 11.4427 9.625 11.8438C9.58854 12.2448 9.36979 12.4635 8.96875 12.5H8.75V13.5938C8.71354 13.9948 8.49479 14.2135 8.09375 14.25C7.69271 14.2135 7.47396 13.9948 7.4375 13.5938V12.5H4.59375C4.375 12.5 4.20182 12.4089 4.07422 12.2266C3.94661 12.0443 3.91016 11.8438 3.96484 11.625L5.27734 7.6875C5.44141 7.32292 5.72396 7.1862 6.125 7.27734Z" fill="black" fill-opacity="0.72"/>
</g>
<defs>
<clipPath id="clip0_1731_2320">
<rect width="14" height="22" fill="white"/>
</clipPath>
</defs>
</svg>
