<svg width="14" height="22" viewBox="0 0 14 22" fill="none" xmlns="http://www.w3.org/2000/svg">
<g id="label-paired / sm / chart-area-sm / bold" clip-path="url(#clip0_1731_2512)">
<path id="icon" d="M1.3125 5.28125V14.9062C1.34896 15.3073 1.56771 15.526 1.96875 15.5625H13.3438C13.7448 15.599 13.9635 15.8177 14 16.2188C13.9635 16.6198 13.7448 16.8385 13.3438 16.875H1.96875C1.40365 16.8568 0.938802 16.6654 0.574219 16.3008C0.209635 15.9362 0.0182292 15.4714 0 14.9062V5.28125C0.0364583 4.88021 0.255208 4.66146 0.65625 4.625C1.05729 4.66146 1.27604 4.88021 1.3125 5.28125ZM7.82031 9.92969L6.125 8.23438L3.9375 10.4219V12.9375H11.8125V10.8047L10.418 9.19141L9.67969 9.92969C9.42448 10.1849 9.11458 10.3125 8.75 10.3125C8.38542 10.3125 8.07552 10.1849 7.82031 9.92969ZM8.75 9L9.67969 8.07031L9.84375 7.90625C10.026 7.74219 10.2357 7.66016 10.4727 7.66016C10.7279 7.67839 10.9375 7.77865 11.1016 7.96094L12.7969 9.95703C13.0156 10.194 13.125 10.4766 13.125 10.8047V13.375C13.125 13.6302 13.043 13.8398 12.8789 14.0039C12.7148 14.168 12.5052 14.25 12.25 14.25H3.5C3.24479 14.25 3.03516 14.168 2.87109 14.0039C2.70703 13.8398 2.625 13.6302 2.625 13.375V10.4219C2.625 10.0573 2.7526 9.7474 3.00781 9.49219L5.49609 7.00391C5.67839 6.82161 5.88802 6.73047 6.125 6.73047C6.36198 6.73047 6.57161 6.82161 6.75391 7.00391L7.82031 8.07031L8.75 9Z" fill="black" fill-opacity="0.72"/>
</g>
<defs>
<clipPath id="clip0_1731_2512">
<rect width="14" height="22" fill="white"/>
</clipPath>
</defs>
</svg>
