<svg width="24" height="36" viewBox="0 0 24 36" fill="none" xmlns="http://www.w3.org/2000/svg">
<g id="label-paired / xl / circle-dot-xl / fill" clip-path="url(#clip0_1731_5836)">
<path id="icon" d="M12 30C9.8125 29.9688 7.8125 29.4375 6 28.4062C4.1875 27.3438 2.71875 25.875 1.59375 24C0.53125 22.0938 0 20.0938 0 18C0 15.9062 0.53125 13.9062 1.59375 12C2.71875 10.125 4.1875 8.65625 6 7.59375C7.8125 6.5625 9.8125 6.03125 12 6C14.1875 6.03125 16.1875 6.5625 18 7.59375C19.8125 8.65625 21.2812 10.125 22.4062 12C23.4688 13.9062 24 15.9062 24 18C24 20.0938 23.4688 22.0938 22.4062 24C21.2812 25.875 19.8125 27.3438 18 28.4062C16.1875 29.4375 14.1875 29.9688 12 30ZM12 13.5C11.1875 13.5 10.4375 13.7031 9.75 14.1094C9.0625 14.5156 8.51562 15.0625 8.10938 15.75C7.70312 16.4688 7.5 17.2188 7.5 18C7.5 18.7812 7.70312 19.5312 8.10938 20.25C8.51562 20.9375 9.0625 21.4844 9.75 21.8906C10.4375 22.2969 11.1875 22.5 12 22.5C12.8125 22.5 13.5625 22.2969 14.25 21.8906C14.9375 21.4844 15.4844 20.9375 15.8906 20.25C16.2969 19.5312 16.5 18.7812 16.5 18C16.5 17.2188 16.2969 16.4688 15.8906 15.75C15.4844 15.0625 14.9375 14.5156 14.25 14.1094C13.5625 13.7031 12.8125 13.5 12 13.5Z" fill="black" fill-opacity="0.72"/>
</g>
<defs>
<clipPath id="clip0_1731_5836">
<rect width="24" height="36" fill="white"/>
</clipPath>
</defs>
</svg>
