<svg width="14" height="24" viewBox="0 0 14 24" fill="none" xmlns="http://www.w3.org/2000/svg">
<g id="label-paired / md / app-store-ios-md" clip-path="url(#clip0_1731_13962)">
<path id="icon" d="M12.5 5C12.9167 5.02083 13.2708 5.16667 13.5625 5.4375C13.8333 5.72917 13.9792 6.08333 14 6.5V17.5C13.9792 17.9167 13.8333 18.2708 13.5625 18.5625C13.2708 18.8333 12.9167 18.9792 12.5 19H1.5C1.08333 18.9792 0.729167 18.8333 0.4375 18.5625C0.166667 18.2708 0.0208333 17.9167 0 17.5V6.5C0.0208333 6.08333 0.166667 5.72917 0.4375 5.4375C0.729167 5.16667 1.08333 5.02083 1.5 5H12.5ZM3.96875 16.0312L4.5625 14.9688C4.25 14.5729 3.84375 14.4583 3.34375 14.625L2.875 15.4062C2.72917 15.7396 2.8125 16.0208 3.125 16.25C3.45833 16.3958 3.73958 16.3229 3.96875 16.0312ZM8.3125 14.3438C8.4375 14.0521 8.42708 13.7708 8.28125 13.5C8.15625 13.25 7.92708 13.1146 7.59375 13.0938H5.65625L8.34375 8.4375C8.51042 8.08333 8.4375 7.80208 8.125 7.59375C7.77083 7.42708 7.47917 7.5 7.25 7.8125L6.96875 8.28125L6.71875 7.8125C6.48958 7.5 6.19792 7.42708 5.84375 7.59375C5.53125 7.80208 5.45833 8.08333 5.625 8.4375L6.25 9.53125L4.21875 13.0938H2.625C2.25 13.1146 2.04167 13.3229 2 13.7188C2.04167 14.0938 2.25 14.3021 2.625 14.3438H8.3125ZM11.375 14.3438C11.75 14.3021 11.9583 14.0938 12 13.7188C11.9583 13.3229 11.75 13.1146 11.375 13.0938H9.75C9.08333 11.9479 8.55208 11.0312 8.15625 10.3438C8.07292 10.1771 7.98958 10.0312 7.90625 9.90625C7.69792 10.0729 7.55208 10.3438 7.46875 10.7188C7.36458 11.1146 7.4375 11.5417 7.6875 12C7.97917 12.5 8.34375 13.1354 8.78125 13.9062C9.13542 14.5312 9.54167 15.2396 10 16.0312C10.2292 16.3229 10.5104 16.3958 10.8438 16.25C11.1562 16.0208 11.2396 15.7396 11.0938 15.4062L10.4688 14.3438H11.375Z" fill="black" fill-opacity="0.72"/>
</g>
<defs>
<clipPath id="clip0_1731_13962">
<rect width="14" height="24" fill="white"/>
</clipPath>
</defs>
</svg>
