<svg width="20" height="24" viewBox="0 0 20 24" fill="none" xmlns="http://www.w3.org/2000/svg">
<g id="label-paired / md / take-profit-md / bold" clip-path="url(#clip0_1731_3292)">
<path id="icon" d="M7.03125 9.4375V16.1875H5.1875V9.4375H2.9375V7.8125H9.28125V9.4375H7.03125ZM10.5312 16.1875V7.8125H14.5C14.875 7.8125 15.25 7.90625 15.5625 8.03125C15.875 8.15625 16.125 8.34375 16.3438 8.5625C16.5625 8.8125 16.75 9.09375 16.875 9.4375C16.9688 9.75 17.0312 10.125 17.0312 10.5C17.0312 10.9062 16.9688 11.2812 16.875 11.5938C16.75 11.9375 16.5625 12.2188 16.3438 12.4375C16.125 12.6562 15.875 12.8438 15.5625 13C15.25 13.125 14.9062 13.1875 14.5 13.1875H12.375V16.1875H10.5312ZM12.375 11.5938H14.2812C14.5625 11.5938 14.7812 11.5312 14.9062 11.375C15.0938 11.25 15.1562 11.0312 15.1562 10.75V10.25C15.1562 9.96875 15.0938 9.75 14.9062 9.625C14.7812 9.46875 14.5625 9.40625 14.2812 9.40625H12.375V11.5938Z" fill="black" fill-opacity="0.72"/>
</g>
<defs>
<clipPath id="clip0_1731_3292">
<rect width="20" height="24" fill="white"/>
</clipPath>
</defs>
</svg>
