<svg width="18" height="36" viewBox="0 0 18 36" fill="none" xmlns="http://www.w3.org/2000/svg">
<g id="label-paired / xl / arrow-up-xl / bold" clip-path="url(#clip0_1731_5863)">
<path id="icon" d="M9.79688 7.82812V7.875L17.6719 16.125C18.1094 16.6562 18.1094 17.1719 17.6719 17.6719C17.1094 18.1094 16.5781 18.1094 16.0781 17.6719L10.125 11.4375V27.375C10.0625 28.0625 9.6875 28.4375 9 28.5C8.3125 28.4375 7.9375 28.0625 7.875 27.375V11.4375L1.92188 17.625C1.42188 18.0938 0.890625 18.1094 0.328125 17.6719C-0.109375 17.1719 -0.109375 16.6406 0.328125 16.0781L8.20312 7.82812C8.42188 7.60937 8.6875 7.5 9 7.5C9.3125 7.5 9.57812 7.60937 9.79688 7.82812Z" fill="black" fill-opacity="0.72"/>
</g>
<defs>
<clipPath id="clip0_1731_5863">
<rect width="18" height="36" fill="white"/>
</clipPath>
</defs>
</svg>
