<svg width="23" height="30" viewBox="0 0 23 30" fill="none" xmlns="http://www.w3.org/2000/svg">
<g id="label-paired / lg / memo-circle-check-lg / regular" clip-path="url(#clip0_1731_4979)">
<path id="icon" d="M12.75 6.75H2.75C2.38542 6.75 2.08594 6.86719 1.85156 7.10156C1.61719 7.33594 1.5 7.63542 1.5 8V23C1.5 23.3646 1.61719 23.6641 1.85156 23.8984C2.08594 24.1328 2.38542 24.25 2.75 24.25H11.8125C12.2031 24.7188 12.6458 25.1224 13.1406 25.4609C13.0104 25.487 12.8802 25.5 12.75 25.5H2.75C2.04688 25.474 1.46094 25.2266 0.992188 24.7578C0.523438 24.2891 0.276042 23.7031 0.25 23V8C0.276042 7.29688 0.523438 6.71094 0.992188 6.24219C1.46094 5.77344 2.04688 5.52604 2.75 5.5H12.75C13.4531 5.52604 14.0391 5.77344 14.5078 6.24219C14.9766 6.71094 15.224 7.29688 15.25 8V13.2734C14.8073 13.3776 14.3906 13.5339 14 13.7422V8C14 7.63542 13.8828 7.33594 13.6484 7.10156C13.4141 6.86719 13.1146 6.75 12.75 6.75ZM2.75 11.125C2.77604 10.7344 2.98438 10.526 3.375 10.5H12.125C12.5156 10.526 12.724 10.7344 12.75 11.125C12.724 11.5156 12.5156 11.724 12.125 11.75H3.375C2.98438 11.724 2.77604 11.5156 2.75 11.125ZM3.375 14.25H10.875C11.2656 14.276 11.474 14.4844 11.5 14.875C11.474 15.2656 11.2656 15.474 10.875 15.5H3.375C2.98438 15.474 2.77604 15.2656 2.75 14.875C2.77604 14.4844 2.98438 14.276 3.375 14.25ZM3.375 18H8.375C8.76562 18.026 8.97396 18.2344 9 18.625C8.97396 19.0156 8.76562 19.224 8.375 19.25H3.375C2.98438 19.224 2.77604 19.0156 2.75 18.625C2.77604 18.2344 2.98438 18.026 3.375 18ZM17.125 24.25C17.9062 24.25 18.6354 24.0547 19.3125 23.6641C19.9896 23.2734 20.5234 22.7396 20.9141 22.0625C21.3047 21.3854 21.5 20.6562 21.5 19.875C21.5 19.0938 21.3047 18.3646 20.9141 17.6875C20.5234 17.0104 19.9896 16.4766 19.3125 16.0859C18.6354 15.6953 17.9062 15.5 17.125 15.5C16.3438 15.5 15.6146 15.6953 14.9375 16.0859C14.2604 16.4766 13.7266 17.0104 13.3359 17.6875C12.9453 18.3646 12.75 19.0938 12.75 19.875C12.75 20.6562 12.9453 21.3854 13.3359 22.0625C13.7266 22.7396 14.2604 23.2734 14.9375 23.6641C15.6146 24.0547 16.3438 24.25 17.125 24.25ZM17.125 14.25C18.1406 14.25 19.0781 14.4974 19.9375 14.9922C20.7969 15.487 21.487 16.1771 22.0078 17.0625C22.5026 17.9479 22.75 18.8854 22.75 19.875C22.75 20.8646 22.5026 21.8021 22.0078 22.6875C21.487 23.5729 20.7969 24.263 19.9375 24.7578C19.0781 25.2526 18.1406 25.5 17.125 25.5C16.1094 25.5 15.1719 25.2526 14.3125 24.7578C13.4531 24.263 12.763 23.5729 12.2422 22.6875C11.7474 21.8021 11.5 20.8646 11.5 19.875C11.5 18.8854 11.7474 17.9479 12.2422 17.0625C12.763 16.1771 13.4531 15.487 14.3125 14.9922C15.1719 14.4974 16.1094 14.25 17.125 14.25ZM18.8828 18.1953C19.1693 17.9349 19.4557 17.9349 19.7422 18.1953C20.0026 18.4818 20.0026 18.7682 19.7422 19.0547L16.9297 21.8672C16.6432 22.1276 16.3568 22.1276 16.0703 21.8672L14.5078 20.3047C14.2474 20.0182 14.2474 19.7318 14.5078 19.4453C14.7943 19.1849 15.0807 19.1849 15.3672 19.4453L16.5 20.5391L18.8828 18.1953Z" fill="black" fill-opacity="0.72"/>
</g>
<defs>
<clipPath id="clip0_1731_4979">
<rect width="23" height="30" fill="white"/>
</clipPath>
</defs>
</svg>
