<svg width="21" height="36" viewBox="0 0 21 36" fill="none" xmlns="http://www.w3.org/2000/svg">
<g id="label-paired / xl / floppy-disk-xl / bold" clip-path="url(#clip0_1731_6490)">
<path id="icon" d="M2.25 10.5V25.5C2.28125 25.9688 2.53125 26.2188 3 26.25H18C18.4688 26.2188 18.7188 25.9688 18.75 25.5V14.0156C18.75 13.7969 18.6719 13.6094 18.5156 13.4531L20.1094 11.8594C20.7031 12.4531 21 13.1719 21 14.0156V25.5C20.9688 26.3438 20.6719 27.0469 20.1094 27.6094C19.5469 28.1719 18.8438 28.4688 18 28.5H3C2.15625 28.4688 1.45312 28.1719 0.890625 27.6094C0.328125 27.0469 0.03125 26.3438 0 25.5V10.5C0.03125 9.65625 0.328125 8.95312 0.890625 8.39062C1.45312 7.82812 2.15625 7.53125 3 7.5H14.5312C15.3438 7.5 16.0469 7.79687 16.6406 8.39062L20.1094 11.8594L18.5156 13.4531L15.0469 9.98438C15.0156 9.95312 15 9.9375 15 9.9375V14.625C14.9375 15.3125 14.5625 15.6875 13.875 15.75H4.875C4.1875 15.6875 3.8125 15.3125 3.75 14.625V9.75H3C2.53125 9.78125 2.28125 10.0312 2.25 10.5ZM6 9.75V13.5H12.75V9.75H6ZM7.5 21C7.53125 19.875 8.03125 19.0156 9 18.4219C10 17.8594 11 17.8594 12 18.4219C12.9688 19.0156 13.4688 19.875 13.5 21C13.4688 22.125 12.9688 22.9844 12 23.5781C11 24.1406 10 24.1406 9 23.5781C8.03125 22.9844 7.53125 22.125 7.5 21Z" fill="black" fill-opacity="0.72"/>
</g>
<defs>
<clipPath id="clip0_1731_6490">
<rect width="21" height="36" fill="white"/>
</clipPath>
</defs>
</svg>
