<svg width="15" height="30" viewBox="0 0 15 30" fill="none" xmlns="http://www.w3.org/2000/svg">
<g id="label-paired / lg / file-invoice-dollar-lg / regular" clip-path="url(#clip0_1731_4984)">
<path id="icon" d="M13.75 23V13H9.375C8.85417 12.974 8.41146 12.7917 8.04688 12.4531C7.70833 12.0885 7.52604 11.6458 7.5 11.125V6.75H2.5C2.13542 6.75 1.83594 6.86719 1.60156 7.10156C1.36719 7.33594 1.25 7.63542 1.25 8V23C1.25 23.3646 1.36719 23.6641 1.60156 23.8984C1.83594 24.1328 2.13542 24.25 2.5 24.25H12.5C12.8646 24.25 13.1641 24.1328 13.3984 23.8984C13.6328 23.6641 13.75 23.3646 13.75 23ZM13.75 11.75C13.6979 11.6458 13.6328 11.5547 13.5547 11.4766L9.02344 6.94531C8.94531 6.86719 8.85417 6.8151 8.75 6.78906V11.125C8.77604 11.5156 8.98438 11.724 9.375 11.75H13.75ZM0 8C0.0260417 7.29688 0.273438 6.71094 0.742188 6.24219C1.21094 5.77344 1.79688 5.52604 2.5 5.5H8.59375C9.11458 5.5 9.55729 5.68229 9.92188 6.04688L14.4531 10.5781C14.8177 10.9427 15 11.3854 15 11.9062V23C14.974 23.7031 14.7266 24.2891 14.2578 24.7578C13.7891 25.2266 13.2031 25.474 12.5 25.5H2.5C1.79688 25.474 1.21094 25.2266 0.742188 24.7578C0.273438 24.2891 0.0260417 23.7031 0 23V8ZM2.5 8.625C2.52604 8.23438 2.73438 8.02604 3.125 8H5.625C6.01562 8.02604 6.22396 8.23438 6.25 8.625C6.22396 9.01562 6.01562 9.22396 5.625 9.25H3.125C2.73438 9.22396 2.52604 9.01562 2.5 8.625ZM2.5 11.125C2.52604 10.7344 2.73438 10.526 3.125 10.5H5.625C6.01562 10.526 6.22396 10.7344 6.25 11.125C6.22396 11.5156 6.01562 11.724 5.625 11.75H3.125C2.73438 11.724 2.52604 11.5156 2.5 11.125ZM8.125 15.0312V15.5391C8.46354 15.5911 8.77604 15.6562 9.0625 15.7344C9.42708 15.8385 9.58333 16.0859 9.53125 16.4766C9.40104 16.8411 9.14062 16.9974 8.75 16.9453C8.30729 16.8411 7.89062 16.776 7.5 16.75C7.13542 16.75 6.8099 16.8151 6.52344 16.9453C6.3151 17.0755 6.22396 17.2057 6.25 17.3359C6.22396 17.388 6.3151 17.4792 6.52344 17.6094C6.78385 17.7396 7.16146 17.8568 7.65625 17.9609L7.69531 18C8.16406 18.1042 8.63281 18.2604 9.10156 18.4688C9.6224 18.7292 9.92188 19.1979 10 19.875C9.94792 20.6302 9.63542 21.138 9.0625 21.3984C8.77604 21.5547 8.46354 21.6589 8.125 21.7109V22.2578C8.09896 22.6224 7.89062 22.8307 7.5 22.8828C7.10938 22.8307 6.90104 22.6224 6.875 22.2578V21.6719C6.45833 21.5938 6.06771 21.5026 5.70312 21.3984C5.625 21.3724 5.5599 21.3464 5.50781 21.3203C5.48177 21.3203 5.46875 21.3203 5.46875 21.3203C5.10417 21.1641 4.96094 20.9036 5.03906 20.5391C5.16927 20.1745 5.42969 20.0312 5.82031 20.1094C5.89844 20.1354 5.98958 20.1615 6.09375 20.1875C6.61458 20.3698 7.09635 20.474 7.53906 20.5C7.90365 20.5 8.21615 20.4349 8.47656 20.3047C8.6849 20.2005 8.77604 20.0703 8.75 19.9141C8.77604 19.8099 8.6849 19.6927 8.47656 19.5625C8.21615 19.4323 7.83854 19.3021 7.34375 19.1719H7.26562C7.26562 19.1719 7.2526 19.1719 7.22656 19.1719C6.78385 19.0677 6.35417 18.9115 5.9375 18.7031C5.39062 18.4688 5.07812 18.013 5 17.3359C5.07812 16.5807 5.40365 16.0859 5.97656 15.8516C6.26302 15.6953 6.5625 15.5911 6.875 15.5391V15.0312C6.92708 14.6406 7.13542 14.4323 7.5 14.4062C7.89062 14.4323 8.09896 14.6406 8.125 15.0312Z" fill="black" fill-opacity="0.72"/>
</g>
<defs>
<clipPath id="clip0_1731_4984">
<rect width="15" height="30" fill="white"/>
</clipPath>
</defs>
</svg>
