<svg width="9" height="22" viewBox="0 0 9 22" fill="none" xmlns="http://www.w3.org/2000/svg">
<g id="label-paired / sm / two-sm / bold" clip-path="url(#clip0_1731_2260)">
<path id="icon" d="M4.17188 5.9375C3.40625 5.95573 2.75911 6.22005 2.23047 6.73047L1.24609 7.71484C0.936198 7.97005 0.626302 7.97005 0.316406 7.71484C0.0611979 7.40495 0.0611979 7.09505 0.316406 6.78516L1.30078 5.82812C2.08464 5.04427 3.04167 4.64323 4.17188 4.625H4.36328C5.45703 4.66146 6.36849 5.03516 7.09766 5.74609C7.80859 6.47526 8.18229 7.38672 8.21875 8.48047C8.20052 9.59245 7.79036 10.5312 6.98828 11.2969L2.44922 15.5625H8.21875C8.61979 15.599 8.83854 15.8177 8.875 16.2188C8.83854 16.6198 8.61979 16.8385 8.21875 16.875H0.78125C0.489583 16.8568 0.289062 16.7201 0.179688 16.4648C0.0885417 16.1914 0.143229 15.9544 0.34375 15.7539L6.11328 10.3398C6.6237 9.82943 6.88802 9.20964 6.90625 8.48047C6.88802 7.76953 6.64193 7.16797 6.16797 6.67578C5.67578 6.20182 5.07422 5.95573 4.36328 5.9375H4.17188Z" fill="black" fill-opacity="0.72"/>
</g>
<defs>
<clipPath id="clip0_1731_2260">
<rect width="9" height="22" fill="white"/>
</clipPath>
</defs>
</svg>
