<svg width="25" height="30" viewBox="0 0 25 30" fill="none" xmlns="http://www.w3.org/2000/svg">
<g id="label-paired / lg / bell-on-lg / bold" clip-path="url(#clip0_1731_4833)">
<path id="icon" d="M12.5 5.5C12.8646 5.5 13.1641 5.61719 13.3984 5.85156C13.6328 6.08594 13.75 6.38542 13.75 6.75V7.45312C15.2083 7.71354 16.3932 8.3776 17.3047 9.44531C18.2422 10.513 18.724 11.8021 18.75 13.3125V14.6016C18.776 16.4245 19.349 18.0521 20.4688 19.4844L21.0547 20.2266C21.263 20.5391 21.3021 20.8646 21.1719 21.2031C20.9896 21.5417 20.7031 21.724 20.3125 21.75H4.6875C4.29688 21.724 4.01042 21.5417 3.82812 21.2031C3.69792 20.8646 3.73698 20.5391 3.94531 20.2266L4.53125 19.4844C5.65104 18.0521 6.22396 16.4245 6.25 14.6016V13.3125C6.27604 11.8021 6.75781 10.513 7.69531 9.44531C8.60677 8.3776 9.79167 7.71354 11.25 7.45312V6.75C11.25 6.38542 11.3672 6.08594 11.6016 5.85156C11.8359 5.61719 12.1354 5.5 12.5 5.5ZM12.5 9.25H12.1875C11.0417 9.27604 10.0781 9.66667 9.29688 10.4219C8.54167 11.2031 8.15104 12.1667 8.125 13.3125V14.6016C8.125 16.5286 7.60417 18.2865 6.5625 19.875H18.4375C17.4219 18.2865 16.901 16.5286 16.875 14.6016V13.3125C16.849 12.1667 16.4583 11.2031 15.7031 10.4219C14.9219 9.66667 13.9583 9.27604 12.8125 9.25H12.5ZM15 23C15 23.6771 14.7526 24.263 14.2578 24.7578C13.763 25.2526 13.1771 25.5 12.5 25.5C11.8229 25.5 11.237 25.2526 10.7422 24.7578C10.2474 24.263 10 23.6771 10 23H12.5H15ZM0 13.3125C0.0520833 12.7396 0.364583 12.4271 0.9375 12.375H4.0625C4.63542 12.4271 4.94792 12.7396 5 13.3125C4.94792 13.8854 4.63542 14.1979 4.0625 14.25H0.9375C0.364583 14.1979 0.0520833 13.8854 0 13.3125ZM20.9375 12.375H24.0625C24.6354 12.4271 24.9479 12.7396 25 13.3125C24.9479 13.8854 24.6354 14.1979 24.0625 14.25H20.9375C20.3646 14.1979 20.0521 13.8854 20 13.3125C20.0521 12.7396 20.3646 12.4271 20.9375 12.375ZM23.3594 6.32031C23.5677 6.86719 23.4245 7.29688 22.9297 7.60938L20.4297 8.85938C19.8828 9.06771 19.4661 8.92448 19.1797 8.42969C18.9714 7.88281 19.1016 7.46615 19.5703 7.17969L22.0703 5.92969C22.6172 5.72135 23.0469 5.85156 23.3594 6.32031ZM2.07031 7.60938C1.60156 7.29688 1.47135 6.86719 1.67969 6.32031C1.96615 5.85156 2.38281 5.72135 2.92969 5.92969L5.42969 7.17969C5.89844 7.46615 6.04167 7.88281 5.85938 8.42969C5.54688 8.89844 5.11719 9.04167 4.57031 8.85938L2.07031 7.60938Z" fill="black" fill-opacity="0.72"/>
</g>
<defs>
<clipPath id="clip0_1731_4833">
<rect width="25" height="30" fill="white"/>
</clipPath>
</defs>
</svg>
