<svg width="9" height="22" viewBox="0 0 9 22" fill="none" xmlns="http://www.w3.org/2000/svg">
<g id="label-paired / sm / dollar-sign-sm / bold" clip-path="url(#clip0_1731_2952)">
<path id="icon" d="M5.15625 4.40625V5.74609C5.92188 5.83724 6.57812 5.95573 7.125 6.10156C7.50781 6.22917 7.66276 6.49349 7.58984 6.89453C7.46224 7.27734 7.20703 7.44141 6.82422 7.38672C6.38672 7.27734 5.88542 7.17708 5.32031 7.08594C4.77344 7.01302 4.23568 6.99479 3.70703 7.03125C3.17839 7.06771 2.75911 7.1862 2.44922 7.38672C2.17578 7.55078 1.99349 7.82422 1.90234 8.20703C1.84766 8.51693 1.86589 8.74479 1.95703 8.89062C2.02995 9.03646 2.1849 9.19141 2.42188 9.35547C2.96875 9.64714 3.71615 9.90234 4.66406 10.1211H4.71875C5.15625 10.2305 5.59375 10.3581 6.03125 10.5039C6.48698 10.6315 6.89714 10.8047 7.26172 11.0234C7.66276 11.2604 7.98177 11.5977 8.21875 12.0352C8.4375 12.4727 8.49219 12.974 8.38281 13.5391C8.14583 14.5052 7.5625 15.1432 6.63281 15.4531C6.17708 15.6354 5.6849 15.7357 5.15625 15.7539V17.0938C5.11979 17.4948 4.90104 17.7135 4.5 17.75C4.09896 17.7135 3.88021 17.4948 3.84375 17.0938V15.7266C3.80729 15.7266 3.76172 15.7266 3.70703 15.7266C3.67057 15.7083 3.625 15.6992 3.57031 15.6992C3.20573 15.6445 2.77734 15.5534 2.28516 15.4258C1.77474 15.2982 1.32812 15.1523 0.945312 14.9883C0.598958 14.806 0.489583 14.5234 0.617188 14.1406C0.817708 13.776 1.10938 13.6576 1.49219 13.7852C1.80208 13.931 2.17578 14.0586 2.61328 14.168C3.05078 14.2773 3.43359 14.3594 3.76172 14.4141C4.74609 14.5417 5.53906 14.487 6.14062 14.25C6.70573 14.013 7.02474 13.694 7.09766 13.293C7.15234 12.9831 7.13411 12.7552 7.04297 12.6094C6.97005 12.4635 6.8151 12.3086 6.57812 12.1445C6.03125 11.8529 5.28385 11.5977 4.33594 11.3789H4.28125C3.84375 11.2695 3.40625 11.1419 2.96875 10.9961C2.51302 10.8685 2.10286 10.6953 1.73828 10.4766C1.33724 10.2396 1.01823 9.90234 0.78125 9.46484C0.5625 9.02734 0.507812 8.52604 0.617188 7.96094C0.78125 7.19531 1.16406 6.63021 1.76562 6.26562C2.33073 5.9375 2.94141 5.75521 3.59766 5.71875C3.67057 5.71875 3.7526 5.71875 3.84375 5.71875V4.40625C3.88021 4.00521 4.09896 3.78646 4.5 3.75C4.90104 3.78646 5.11979 4.00521 5.15625 4.40625Z" fill="black" fill-opacity="0.72"/>
</g>
<defs>
<clipPath id="clip0_1731_2952">
<rect width="9" height="22" fill="white"/>
</clipPath>
</defs>
</svg>
