<svg width="18" height="22" viewBox="0 0 18 22" fill="none" xmlns="http://www.w3.org/2000/svg">
<g id="label-paired / sm / deriv-sm" clip-path="url(#clip0_1731_13883)">
<path id="icon" d="M11.8438 4.21484L14.5781 3.75L12.6641 14.6875C12.3633 16.3828 10.75 17.75 9.02734 17.75H6.94922C4.59766 17.75 3.03906 15.8633 3.44922 13.5391L3.64062 12.5273C4.05078 10.2031 6.26562 8.28906 8.61719 8.28906H11.1055L11.8438 4.21484ZM10.0664 14.3047L10.668 10.8047H8.48047C7.41406 10.8047 6.42969 11.6797 6.23828 12.7188L6.12891 13.3477C5.9375 14.3867 6.64844 15.2344 7.6875 15.2344H8.97266C9.49219 15.2344 9.95703 14.8242 10.0664 14.3047Z" fill="black" fill-opacity="0.72"/>
</g>
<defs>
<clipPath id="clip0_1731_13883">
<rect width="18" height="22" fill="white"/>
</clipPath>
</defs>
</svg>
