<svg width="21" height="36" viewBox="0 0 21 36" fill="none" xmlns="http://www.w3.org/2000/svg">
<g id="label-paired / xl / unlock-xl / regular" clip-path="url(#clip0_1731_6612)">
<path id="icon" d="M6 12V15H17.25C18.3125 15.0312 19.2031 15.3906 19.9219 16.0781C20.6094 16.7969 20.9688 17.6875 21 18.75V26.25C20.9688 27.3125 20.6094 28.2031 19.9219 28.9219C19.2031 29.6094 18.3125 29.9688 17.25 30H3.75C2.6875 29.9688 1.79688 29.6094 1.07812 28.9219C0.390625 28.2031 0.03125 27.3125 0 26.25V18.75C0.03125 17.6875 0.390625 16.7969 1.07812 16.0781C1.79688 15.3906 2.6875 15.0312 3.75 15H4.5V12C4.53125 10.3125 5.10938 8.89062 6.23438 7.73438C7.39062 6.60938 8.8125 6.03125 10.5 6C11.875 6.03125 13.0781 6.4375 14.1094 7.21875C15.1406 8 15.8594 9.03125 16.2656 10.3125C16.3594 10.75 16.1875 11.0469 15.75 11.2031C15.2812 11.2969 14.9688 11.1406 14.8125 10.7344C14.5312 9.76562 14 8.98438 13.2188 8.39062C12.4375 7.82812 11.5312 7.53125 10.5 7.5C9.21875 7.53125 8.15625 7.96875 7.3125 8.8125C6.46875 9.65625 6.03125 10.7188 6 12ZM1.5 18.75V26.25C1.53125 26.875 1.75 27.4062 2.15625 27.8438C2.59375 28.25 3.125 28.4688 3.75 28.5H17.25C17.875 28.4688 18.4062 28.25 18.8438 27.8438C19.25 27.4062 19.4688 26.875 19.5 26.25V18.75C19.4688 18.125 19.25 17.5938 18.8438 17.1562C18.4062 16.75 17.875 16.5312 17.25 16.5H3.75C3.125 16.5312 2.59375 16.75 2.15625 17.1562C1.75 17.5938 1.53125 18.125 1.5 18.75Z" fill="black" fill-opacity="0.72"/>
</g>
<defs>
<clipPath id="clip0_1731_6612">
<rect width="21" height="36" fill="white"/>
</clipPath>
</defs>
</svg>
