<svg width="24" height="36" viewBox="0 0 24 36" fill="none" xmlns="http://www.w3.org/2000/svg">
<g id="label-paired / xl / right-to-bracket-xl / regular" clip-path="url(#clip0_1731_5711)">
<path id="icon" d="M14.9531 18.0938C14.9844 18.0625 15 18.0312 15 18C15 17.9688 14.9844 17.9375 14.9531 17.9062L8.76562 12.0938C8.70312 12.0312 8.64062 12 8.57812 12C8.39062 12.0312 8.28125 12.1406 8.25 12.3281V15C8.21875 15.4688 7.96875 15.7188 7.5 15.75H1.875C1.65625 15.7812 1.53125 15.9062 1.5 16.125V19.875C1.53125 20.0938 1.65625 20.2188 1.875 20.25H7.5C7.96875 20.2812 8.21875 20.5312 8.25 21V23.6719C8.28125 23.8594 8.39062 23.9688 8.57812 24C8.64062 24 8.70312 23.9688 8.76562 23.9062L14.9531 18.0938ZM16.5 18C16.5 18.4688 16.3281 18.8594 15.9844 19.1719L9.79688 25.0312C9.45312 25.3438 9.04688 25.5 8.57812 25.5C8.04688 25.5 7.60938 25.3281 7.26562 24.9844C6.92188 24.6406 6.75 24.2031 6.75 23.6719V21.75H1.875C1.34375 21.75 0.90625 21.5625 0.5625 21.1875C0.1875 20.8438 0 20.4062 0 19.875V16.125C0 15.5938 0.1875 15.1562 0.5625 14.8125C0.90625 14.4375 1.34375 14.25 1.875 14.25H6.75V12.3281C6.75 11.7969 6.92188 11.3594 7.26562 11.0156C7.60938 10.6719 8.04688 10.5 8.57812 10.5C9.04688 10.5 9.45312 10.6719 9.79688 11.0156L15.9844 16.8281C16.3281 17.1406 16.5 17.5312 16.5 18ZM15.75 27H20.25C20.875 26.9688 21.4062 26.75 21.8438 26.3438C22.25 25.9062 22.4688 25.375 22.5 24.75V11.25C22.4688 10.625 22.25 10.0938 21.8438 9.65625C21.4062 9.25 20.875 9.03125 20.25 9H15.75C15.2812 8.96875 15.0312 8.71875 15 8.25C15.0312 7.78125 15.2812 7.53125 15.75 7.5H20.25C21.3125 7.53125 22.2031 7.89062 22.9219 8.57812C23.6094 9.29688 23.9688 10.1875 24 11.25V24.75C23.9688 25.8125 23.6094 26.7031 22.9219 27.4219C22.2031 28.1094 21.3125 28.4688 20.25 28.5H15.75C15.2812 28.4688 15.0312 28.2188 15 27.75C15.0312 27.2812 15.2812 27.0312 15.75 27Z" fill="black" fill-opacity="0.72"/>
</g>
<defs>
<clipPath id="clip0_1731_5711">
<rect width="24" height="36" fill="white"/>
</clipPath>
</defs>
</svg>
