<svg width="18" height="22" viewBox="0 0 18 22" fill="none" xmlns="http://www.w3.org/2000/svg">
<g id="label-paired / sm / location-crosshairs-slash-sm / regular" clip-path="url(#clip0_1731_2678)">
<path id="icon" d="M11.0781 14.6055H11.0508L11.7891 15.1797C11.0964 15.6354 10.3125 15.8997 9.4375 15.9727V17.3125C9.41927 17.5859 9.27344 17.7318 9 17.75C8.72656 17.7318 8.58073 17.5859 8.5625 17.3125V15.9727C7.26823 15.8451 6.17448 15.3438 5.28125 14.4688C4.40625 13.5755 3.90495 12.4818 3.77734 11.1875H2.4375C2.16406 11.1693 2.01823 11.0234 2 10.75C2.01823 10.4766 2.16406 10.3307 2.4375 10.3125H3.77734C3.8138 9.875 3.89583 9.45573 4.02344 9.05469L4.76172 9.62891C4.67057 9.99349 4.625 10.3672 4.625 10.75C4.66146 11.9896 5.08984 13.0195 5.91016 13.8398C6.73047 14.6602 7.76042 15.0885 9 15.125C9.7474 15.125 10.4401 14.9518 11.0781 14.6055ZM8.5625 5.52734V4.1875C8.58073 3.91406 8.72656 3.76823 9 3.75C9.27344 3.76823 9.41927 3.91406 9.4375 4.1875V5.52734C10.7318 5.65495 11.8255 6.15625 12.7188 7.03125C13.5938 7.92448 14.0951 9.01823 14.2227 10.3125H15.5625C15.8359 10.3307 15.9818 10.4766 16 10.75C15.9818 11.0234 15.8359 11.1693 15.5625 11.1875H14.2227C14.1862 11.625 14.1042 12.0443 13.9766 12.4453L13.2383 11.8711C13.3294 11.5065 13.375 11.1328 13.375 10.75C13.3385 9.51042 12.9102 8.48047 12.0898 7.66016C11.2695 6.83984 10.2396 6.41146 9 6.375C8.2526 6.375 7.56901 6.54818 6.94922 6.89453L6.21094 6.32031C6.90365 5.86458 7.6875 5.60026 8.5625 5.52734ZM9 13.375C8.28906 13.3568 7.6875 13.1198 7.19531 12.6641C6.70312 12.2083 6.42969 11.625 6.375 10.9141L7.90625 12.1172C7.92448 12.1172 7.93359 12.1263 7.93359 12.1445L9.46484 13.3477C9.30078 13.3659 9.14583 13.375 9 13.375ZM8.5625 8.15234C8.70833 8.13411 8.85417 8.125 9 8.125C9.71094 8.14323 10.3125 8.38021 10.8047 8.83594C11.2969 9.29167 11.5703 9.875 11.625 10.5859L10.0938 9.38281C10.0755 9.38281 10.0664 9.3737 10.0664 9.35547L8.5625 8.15234ZM0.960938 3.83203L17.5859 16.9844C17.7865 17.1667 17.8138 17.3672 17.668 17.5859C17.4674 17.7865 17.2578 17.8138 17.0391 17.668L0.414062 4.54297C0.213542 4.34245 0.186198 4.13281 0.332031 3.91406C0.532552 3.73177 0.742188 3.70443 0.960938 3.83203Z" fill="black" fill-opacity="0.72"/>
</g>
<defs>
<clipPath id="clip0_1731_2678">
<rect width="18" height="22" fill="white"/>
</clipPath>
</defs>
</svg>
