<svg width="12" height="18" viewBox="0 0 12 18" fill="none" xmlns="http://www.w3.org/2000/svg">
<g id="label-paired / caption / globe-caption / bold" clip-path="url(#clip0_1731_1315)">
<path id="icon" d="M6 14.375C6.09375 14.3906 6.24219 14.3203 6.44531 14.1641C6.64844 14.0234 6.875 13.7188 7.125 13.25C7.32812 12.8281 7.5 12.3281 7.64062 11.75H4.35938C4.5 12.3281 4.67188 12.8281 4.875 13.25C5.125 13.7188 5.35156 14.0234 5.55469 14.1641C5.75781 14.3203 5.90625 14.3906 6 14.375ZM4.19531 10.625H7.82812C7.85938 10.2656 7.875 9.89062 7.875 9.5C7.875 9.10938 7.85938 8.73438 7.82812 8.375H4.19531C4.14844 8.73438 4.125 9.10938 4.125 9.5C4.125 9.89062 4.14844 10.2656 4.19531 10.625ZM4.35938 7.25H7.64062C7.5 6.67188 7.32812 6.17188 7.125 5.75C6.875 5.28125 6.64844 4.97656 6.44531 4.83594C6.24219 4.67969 6.09375 4.60938 6 4.625C5.90625 4.60938 5.75781 4.67969 5.55469 4.83594C5.35156 4.97656 5.125 5.28125 4.875 5.75C4.67188 6.17188 4.5 6.67188 4.35938 7.25ZM8.95312 8.375C8.98438 8.73438 9 9.10938 9 9.5C9 9.89062 8.98438 10.2656 8.95312 10.625H10.7344C10.8281 10.2656 10.875 9.89062 10.875 9.5C10.875 9.10938 10.8281 8.73438 10.7344 8.375H8.95312ZM10.3359 7.25C9.80469 6.26562 9.03125 5.53906 8.01562 5.07031C8.34375 5.67969 8.60156 6.40625 8.78906 7.25H10.3359ZM3.21094 7.25C3.38281 6.40625 3.64062 5.67969 3.98438 5.07031C2.96875 5.53906 2.19531 6.26562 1.66406 7.25H3.21094ZM1.26562 8.375C1.17188 8.73438 1.125 9.10938 1.125 9.5C1.125 9.89062 1.17188 10.2656 1.26562 10.625H3.04688C3.01562 10.2656 3 9.89062 3 9.5C3 9.10938 3.01562 8.73438 3.04688 8.375H1.26562ZM8.01562 13.9297C9.03125 13.4609 9.80469 12.7344 10.3359 11.75H8.78906C8.61719 12.5938 8.35938 13.3203 8.01562 13.9297ZM3.98438 13.9297C3.65625 13.3203 3.39844 12.5938 3.21094 11.75H1.66406C2.19531 12.7344 2.96875 13.4609 3.98438 13.9297ZM6 15.5C4.90625 15.4844 3.90625 15.2188 3 14.7031C2.09375 14.1719 1.35938 13.4375 0.796875 12.5C0.265625 11.5469 0 10.5469 0 9.5C0 8.45312 0.265625 7.45312 0.796875 6.5C1.35938 5.5625 2.09375 4.82812 3 4.29688C3.90625 3.78125 4.90625 3.51563 6 3.5C7.09375 3.51563 8.09375 3.78125 9 4.29688C9.90625 4.82812 10.6406 5.5625 11.2031 6.5C11.7344 7.45312 12 8.45312 12 9.5C12 10.5469 11.7344 11.5469 11.2031 12.5C10.6406 13.4375 9.90625 14.1719 9 14.7031C8.09375 15.2188 7.09375 15.4844 6 15.5Z" fill="black" fill-opacity="0.72"/>
</g>
<defs>
<clipPath id="clip0_1731_1315">
<rect width="12" height="18" fill="white"/>
</clipPath>
</defs>
</svg>
