<svg width="8" height="18" viewBox="0 0 8 18" fill="none" xmlns="http://www.w3.org/2000/svg">
<g id="label-paired / caption / forward-step-caption / fill" clip-path="url(#clip0_1731_1554)">
<path id="icon" d="M1.49219 13.8359C1.24219 14.0234 0.96875 14.0547 0.671875 13.9297C0.40625 13.7891 0.265625 13.5625 0.25 13.25V5.75C0.265625 5.4375 0.40625 5.21094 0.671875 5.07031C0.96875 4.94531 1.24219 4.97656 1.49219 5.16406L5.99219 8.91406L6.25 9.14844V5.75C6.25 5.53125 6.32031 5.35156 6.46094 5.21094C6.60156 5.07031 6.78125 5 7 5C7.21875 5 7.39844 5.07031 7.53906 5.21094C7.67969 5.35156 7.75 5.53125 7.75 5.75V13.25C7.75 13.4688 7.67969 13.6484 7.53906 13.7891C7.39844 13.9297 7.21875 14 7 14C6.78125 14 6.60156 13.9297 6.46094 13.7891C6.32031 13.6484 6.25 13.4688 6.25 13.25V9.85156L5.99219 10.0859L1.49219 13.8359Z" fill="black" fill-opacity="0.72"/>
</g>
<defs>
<clipPath id="clip0_1731_1554">
<rect width="8" height="18" fill="white"/>
</clipPath>
</defs>
</svg>
