<svg width="15" height="36" viewBox="0 0 15 36" fill="none" xmlns="http://www.w3.org/2000/svg">
<g id="label-paired / xl / pause-xl / fill" clip-path="url(#clip0_1731_6565)">
<path id="icon" d="M2.25 9H3.75C4.375 9.03125 4.90625 9.25 5.34375 9.65625C5.75 10.0938 5.96875 10.625 6 11.25V24.75C5.96875 25.375 5.75 25.9062 5.34375 26.3438C4.90625 26.75 4.375 26.9688 3.75 27H2.25C1.625 26.9688 1.09375 26.75 0.65625 26.3438C0.25 25.9062 0.03125 25.375 0 24.75V11.25C0.03125 10.625 0.25 10.0938 0.65625 9.65625C1.09375 9.25 1.625 9.03125 2.25 9ZM11.25 9H12.75C13.375 9.03125 13.9062 9.25 14.3438 9.65625C14.75 10.0938 14.9688 10.625 15 11.25V24.75C14.9688 25.375 14.75 25.9062 14.3438 26.3438C13.9062 26.75 13.375 26.9688 12.75 27H11.25C10.625 26.9688 10.0938 26.75 9.65625 26.3438C9.25 25.9062 9.03125 25.375 9 24.75V11.25C9.03125 10.625 9.25 10.0938 9.65625 9.65625C10.0938 9.25 10.625 9.03125 11.25 9Z" fill="black" fill-opacity="0.72"/>
</g>
<defs>
<clipPath id="clip0_1731_6565">
<rect width="15" height="36" fill="white"/>
</clipPath>
</defs>
</svg>
