<svg width="18" height="30" viewBox="0 0 18 30" fill="none" xmlns="http://www.w3.org/2000/svg">
<g id="label-paired / lg / stopwatch-lg / bold" clip-path="url(#clip0_1731_5431)">
<path id="icon" d="M5.875 6.4375C5.92708 5.86458 6.23958 5.55208 6.8125 5.5H11.1875C11.7604 5.55208 12.0729 5.86458 12.125 6.4375C12.0729 7.01042 11.7604 7.32292 11.1875 7.375H9.9375V9.28906C11.6562 9.52344 13.1406 10.1875 14.3906 11.2812L15.5234 10.1484C15.9661 9.78385 16.4089 9.78385 16.8516 10.1484C17.2161 10.5911 17.2161 11.0339 16.8516 11.4766L15.6406 12.6875C16.6042 14.0417 17.099 15.6042 17.125 17.375C17.0729 19.6667 16.2786 21.5807 14.7422 23.1172C13.2057 24.6536 11.2917 25.4479 9 25.5C6.70833 25.4479 4.79427 24.6536 3.25781 23.1172C1.72135 21.5807 0.927083 19.6667 0.875 17.375C0.927083 15.2396 1.61719 13.4297 2.94531 11.9453C4.29948 10.4609 6.00521 9.57552 8.0625 9.28906V7.375H6.8125C6.23958 7.32292 5.92708 7.01042 5.875 6.4375ZM9 23.625C10.1198 23.625 11.1615 23.3516 12.125 22.8047C13.0885 22.2318 13.8568 21.4635 14.4297 20.5C14.9766 19.5104 15.25 18.4688 15.25 17.375C15.25 16.2812 14.9766 15.2396 14.4297 14.25C13.8568 13.2865 13.0885 12.5182 12.125 11.9453C11.1615 11.3984 10.1198 11.125 9 11.125C7.88021 11.125 6.83854 11.3984 5.875 11.9453C4.91146 12.5182 4.14323 13.2865 3.57031 14.25C3.02344 15.2396 2.75 16.2812 2.75 17.375C2.75 18.4688 3.02344 19.5104 3.57031 20.5C4.14323 21.4635 4.91146 22.2318 5.875 22.8047C6.83854 23.3516 7.88021 23.625 9 23.625ZM9.9375 13.9375V18C9.88542 18.5729 9.57292 18.8854 9 18.9375C8.42708 18.8854 8.11458 18.5729 8.0625 18V13.9375C8.11458 13.3646 8.42708 13.0521 9 13C9.57292 13.0521 9.88542 13.3646 9.9375 13.9375Z" fill="black" fill-opacity="0.72"/>
</g>
<defs>
<clipPath id="clip0_1731_5431">
<rect width="18" height="30" fill="white"/>
</clipPath>
</defs>
</svg>
