<svg width="15" height="18" viewBox="0 0 15 18" fill="none" xmlns="http://www.w3.org/2000/svg">
<g id="label-paired / caption / apple-pay-caption" clip-path="url(#clip0_1731_13808)">
<path id="icon" d="M2.74219 7.22656V7.20312C2.92969 6.98438 3.01562 6.72656 3 6.42969C2.71875 6.44531 2.47656 6.57031 2.27344 6.80469C2.08594 7.00781 1.99219 7.25781 1.99219 7.55469C2.30469 7.55469 2.55469 7.44531 2.74219 7.22656ZM3 7.625C3.09375 7.625 3.22656 7.64844 3.39844 7.69531C3.58594 7.75781 3.75781 7.89844 3.91406 8.11719C3.89844 8.11719 3.89062 8.11719 3.89062 8.11719C3.82812 8.14844 3.73438 8.24219 3.60938 8.39844C3.46875 8.53906 3.39062 8.75781 3.375 9.05469C3.39062 9.39844 3.48438 9.64844 3.65625 9.80469C3.84375 9.96094 3.96875 10.0469 4.03125 10.0625C4.03125 10.0781 4 10.1562 3.9375 10.2969C3.89062 10.4219 3.8125 10.5781 3.70312 10.7656C3.59375 10.9219 3.47656 11.0625 3.35156 11.1875C3.24219 11.2969 3.10156 11.3594 2.92969 11.375C2.77344 11.375 2.64844 11.3438 2.55469 11.2812C2.44531 11.2188 2.29688 11.1797 2.10938 11.1641C1.92188 11.1797 1.77344 11.2188 1.66406 11.2812C1.57031 11.3281 1.45312 11.3594 1.3125 11.375C1.14062 11.375 0.992188 11.3125 0.867188 11.1875C0.742188 11.0625 0.625 10.9141 0.515625 10.7422C0.296875 10.4141 0.140625 10.0156 0.046875 9.54688C-0.046875 9.07812 0.0078125 8.64844 0.210938 8.25781C0.445312 7.86719 0.789062 7.65625 1.24219 7.625C1.41406 7.64062 1.57812 7.6875 1.73438 7.76562C1.85938 7.8125 1.96094 7.84375 2.03906 7.85938C2.11719 7.84375 2.21875 7.8125 2.34375 7.76562C2.53125 7.67188 2.75 7.625 3 7.625ZM5.34375 6.75781H7.05469C7.50781 6.77344 7.875 6.91406 8.15625 7.17969C8.42188 7.46094 8.55469 7.82031 8.55469 8.25781C8.55469 8.71094 8.41406 9.07812 8.13281 9.35938C7.86719 9.625 7.5 9.76562 7.03125 9.78125H6.04688V11.3281H5.34375V6.75781ZM6.04688 7.36719V9.17188H6.86719C7.50781 9.15625 7.83594 8.85938 7.85156 8.28125C7.83594 7.6875 7.50781 7.38281 6.86719 7.36719H6.04688ZM9.86719 11.375C9.52344 11.375 9.25 11.2812 9.04688 11.0938C8.84375 10.9219 8.74219 10.6875 8.74219 10.3906C8.75781 9.79688 9.17969 9.46875 10.0078 9.40625L10.8984 9.35938V9.10156C10.8828 8.72656 10.6562 8.53906 10.2188 8.53906C9.84375 8.55469 9.61719 8.71094 9.53906 9.00781H8.90625C8.92188 8.69531 9.05469 8.44531 9.30469 8.25781C9.53906 8.07031 9.85156 7.97656 10.2422 7.97656C10.6484 7.97656 10.9688 8.07812 11.2031 8.28125C11.4531 8.46875 11.5781 8.72656 11.5781 9.05469V11.3281H10.9219V10.7891H10.8984C10.6797 11.1641 10.3359 11.3594 9.86719 11.375ZM10.0547 10.8359C10.3047 10.8359 10.5078 10.7656 10.6641 10.625C10.8203 10.4844 10.8984 10.3125 10.8984 10.1094V9.85156L10.1016 9.89844C9.66406 9.92969 9.4375 10.0859 9.42188 10.3672C9.45312 10.6641 9.66406 10.8203 10.0547 10.8359ZM12.4453 12.5703C12.3516 12.5703 12.2656 12.5703 12.1875 12.5703V12.0078C12.25 12.0234 12.3203 12.0312 12.3984 12.0312C12.6953 12.0469 12.8906 11.8906 12.9844 11.5625L13.0547 11.3516L11.8594 8.02344H12.5859L13.4297 10.7188H13.4531L14.2734 8.02344H15L13.7578 11.5156C13.6172 11.9062 13.4531 12.1797 13.2656 12.3359C13.0625 12.5078 12.7891 12.5859 12.4453 12.5703Z" fill="black" fill-opacity="0.72"/>
</g>
<defs>
<clipPath id="clip0_1731_13808">
<rect width="15" height="18" fill="white"/>
</clipPath>
</defs>
</svg>
