<svg width="20" height="30" viewBox="0 0 20 30" fill="none" xmlns="http://www.w3.org/2000/svg">
<g id="label-paired / lg / circle-euro-lg / regular" clip-path="url(#clip0_1731_5180)">
<path id="icon" d="M18.75 15.5C18.724 13.9115 18.3333 12.4531 17.5781 11.125C16.7969 9.79688 15.7292 8.72917 14.375 7.92188C12.9948 7.14062 11.5365 6.75 10 6.75C8.46354 6.75 7.00521 7.14062 5.625 7.92188C4.27083 8.72917 3.20312 9.79688 2.42188 11.125C1.66667 12.4531 1.27604 13.9115 1.25 15.5C1.27604 17.0885 1.66667 18.5469 2.42188 19.875C3.20312 21.2031 4.27083 22.2708 5.625 23.0781C7.00521 23.8594 8.46354 24.25 10 24.25C11.5365 24.25 12.9948 23.8594 14.375 23.0781C15.7292 22.2708 16.7969 21.2031 17.5781 19.875C18.3333 18.5469 18.724 17.0885 18.75 15.5ZM0 15.5C0.0260417 13.6771 0.46875 12.0104 1.32812 10.5C2.21354 8.98958 3.4375 7.76562 5 6.82812C6.58854 5.94271 8.25521 5.5 10 5.5C11.7448 5.5 13.4115 5.94271 15 6.82812C16.5625 7.76562 17.7865 8.98958 18.6719 10.5C19.5312 12.0104 19.974 13.6771 20 15.5C19.974 17.3229 19.5312 18.9896 18.6719 20.5C17.7865 22.0104 16.5625 23.2344 15 24.1719C13.4115 25.0573 11.7448 25.5 10 25.5C8.25521 25.5 6.58854 25.0573 5 24.1719C3.4375 23.2344 2.21354 22.0104 1.32812 20.5C0.46875 18.9896 0.0260417 17.3229 0 15.5ZM5 16.125H5.9375C5.91146 15.9167 5.89844 15.7214 5.89844 15.5391C5.89844 15.3047 5.91146 15.0833 5.9375 14.875H5C4.60938 14.849 4.40104 14.6406 4.375 14.25C4.40104 13.8594 4.60938 13.651 5 13.625H6.32812C6.69271 12.8698 7.22656 12.2708 7.92969 11.8281C8.63281 11.3594 9.42708 11.125 10.3125 11.125H11.9141C12.3047 11.151 12.513 11.3594 12.5391 11.75C12.513 12.1406 12.3047 12.349 11.9141 12.375H10.3125C9.24479 12.401 8.41146 12.8177 7.8125 13.625H11.25C11.6406 13.651 11.849 13.8594 11.875 14.25C11.849 14.6406 11.6406 14.849 11.25 14.875H7.22656C7.17448 15.0833 7.14844 15.3047 7.14844 15.5391C7.14844 15.7474 7.17448 15.9427 7.22656 16.125H11.25C11.6406 16.151 11.849 16.3594 11.875 16.75C11.849 17.1406 11.6406 17.349 11.25 17.375H7.73438C8.35938 18.2083 9.21875 18.651 10.3125 18.7031H11.9141C12.3047 18.7292 12.513 18.9375 12.5391 19.3281C12.513 19.6927 12.3047 19.901 11.9141 19.9531H10.3125C9.40104 19.9271 8.59375 19.6797 7.89062 19.2109C7.1875 18.7422 6.66667 18.1302 6.32812 17.375H5C4.60938 17.349 4.40104 17.1406 4.375 16.75C4.40104 16.3594 4.60938 16.151 5 16.125Z" fill="black" fill-opacity="0.72"/>
</g>
<defs>
<clipPath id="clip0_1731_5180">
<rect width="20" height="30" fill="white"/>
</clipPath>
</defs>
</svg>
