<svg width="12" height="18" viewBox="0 0 12 18" fill="none" xmlns="http://www.w3.org/2000/svg">
<g id="label-paired / caption / circle-dot-caption / bold" clip-path="url(#clip0_1731_802)">
<path id="icon" d="M10.875 9.5C10.875 8.60938 10.6562 7.79688 10.2188 7.0625C9.79688 6.32812 9.20312 5.73438 8.4375 5.28125C7.67188 4.84375 6.85938 4.625 6 4.625C5.14062 4.625 4.32812 4.84375 3.5625 5.28125C2.79688 5.73438 2.20312 6.32812 1.78125 7.0625C1.34375 7.79688 1.125 8.60938 1.125 9.5C1.125 10.3906 1.34375 11.2031 1.78125 11.9375C2.20312 12.6719 2.79688 13.2656 3.5625 13.7188C4.32812 14.1562 5.14062 14.375 6 14.375C6.85938 14.375 7.67188 14.1562 8.4375 13.7188C9.20312 13.2656 9.79688 12.6719 10.2188 11.9375C10.6562 11.2031 10.875 10.3906 10.875 9.5ZM0 9.5C0.015625 8.40625 0.28125 7.40625 0.796875 6.5C1.32812 5.59375 2.0625 4.85938 3 4.29688C3.95312 3.76562 4.95312 3.5 6 3.5C7.04688 3.5 8.04688 3.76562 9 4.29688C9.9375 4.85938 10.6719 5.59375 11.2031 6.5C11.7188 7.40625 11.9844 8.40625 12 9.5C11.9844 10.5938 11.7188 11.5938 11.2031 12.5C10.6719 13.4062 9.9375 14.1406 9 14.7031C8.04688 15.2344 7.04688 15.5 6 15.5C4.95312 15.5 3.95312 15.2344 3 14.7031C2.0625 14.1406 1.32812 13.4062 0.796875 12.5C0.28125 11.5938 0.015625 10.5938 0 9.5ZM6 7.25C6.40625 7.25 6.78125 7.35156 7.125 7.55469C7.46875 7.75781 7.74219 8.03125 7.94531 8.375C8.14844 8.73438 8.25 9.10938 8.25 9.5C8.25 9.89062 8.14844 10.2656 7.94531 10.625C7.74219 10.9688 7.46875 11.2422 7.125 11.4453C6.78125 11.6484 6.40625 11.75 6 11.75C5.59375 11.75 5.21875 11.6484 4.875 11.4453C4.53125 11.2422 4.25781 10.9688 4.05469 10.625C3.85156 10.2656 3.75 9.89062 3.75 9.5C3.75 9.10938 3.85156 8.73438 4.05469 8.375C4.25781 8.03125 4.53125 7.75781 4.875 7.55469C5.21875 7.35156 5.59375 7.25 6 7.25Z" fill="black" fill-opacity="0.72"/>
</g>
<defs>
<clipPath id="clip0_1731_802">
<rect width="12" height="18" fill="white"/>
</clipPath>
</defs>
</svg>
