<svg width="14" height="22" viewBox="0 0 14 22" fill="none" xmlns="http://www.w3.org/2000/svg">
<g id="label-paired / sm / camera-sm / regular" clip-path="url(#clip0_1731_3032)">
<path id="icon" d="M5.22266 4.625H8.77734C9.37891 4.66146 9.79818 4.96224 10.0352 5.52734L10.3086 6.375H12.25C12.7422 6.39323 13.1523 6.56641 13.4805 6.89453C13.8086 7.22266 13.9818 7.63281 14 8.125V15.125C13.9818 15.6172 13.8086 16.0273 13.4805 16.3555C13.1523 16.6836 12.7422 16.8568 12.25 16.875H1.75C1.25781 16.8568 0.847656 16.6836 0.519531 16.3555C0.191406 16.0273 0.0182292 15.6172 0 15.125V8.125C0.0182292 7.63281 0.191406 7.22266 0.519531 6.89453C0.847656 6.56641 1.25781 6.39323 1.75 6.375H3.69141L3.99219 5.52734C4.21094 4.96224 4.62109 4.66146 5.22266 4.625ZM4.8125 5.80078L4.42969 6.94922C4.35677 7.13151 4.22005 7.23177 4.01953 7.25H1.75C1.49479 7.25 1.28516 7.33203 1.12109 7.49609C0.957031 7.66016 0.875 7.86979 0.875 8.125V15.125C0.875 15.3802 0.957031 15.5898 1.12109 15.7539C1.28516 15.918 1.49479 16 1.75 16H12.25C12.5052 16 12.7148 15.918 12.8789 15.7539C13.043 15.5898 13.125 15.3802 13.125 15.125V8.125C13.125 7.86979 13.043 7.66016 12.8789 7.49609C12.7148 7.33203 12.5052 7.25 12.25 7.25H9.98047C9.77995 7.23177 9.64323 7.13151 9.57031 6.94922L9.1875 5.80078C9.11458 5.61849 8.97786 5.51823 8.77734 5.5H5.22266C5.02214 5.51823 4.88542 5.61849 4.8125 5.80078ZM7 14.6875C6.45312 14.6875 5.94271 14.5508 5.46875 14.2773C4.99479 14.0039 4.62109 13.6302 4.34766 13.1562C4.07422 12.6823 3.9375 12.1719 3.9375 11.625C3.9375 11.0781 4.07422 10.5677 4.34766 10.0938C4.62109 9.61979 4.99479 9.24609 5.46875 8.97266C5.94271 8.69922 6.45312 8.5625 7 8.5625C7.54688 8.5625 8.05729 8.69922 8.53125 8.97266C9.00521 9.24609 9.37891 9.61979 9.65234 10.0938C9.92578 10.5677 10.0625 11.0781 10.0625 11.625C10.0625 12.1719 9.92578 12.6823 9.65234 13.1562C9.37891 13.6302 9.00521 14.0039 8.53125 14.2773C8.05729 14.5508 7.54688 14.6875 7 14.6875ZM4.8125 11.625C4.83073 12.4453 5.19531 13.0742 5.90625 13.5117C6.63542 13.9128 7.36458 13.9128 8.09375 13.5117C8.80469 13.0742 9.16927 12.4453 9.1875 11.625C9.16927 10.8047 8.80469 10.1758 8.09375 9.73828C7.36458 9.33724 6.63542 9.33724 5.90625 9.73828C5.19531 10.1758 4.83073 10.8047 4.8125 11.625Z" fill="black" fill-opacity="0.72"/>
</g>
<defs>
<clipPath id="clip0_1731_3032">
<rect width="14" height="22" fill="white"/>
</clipPath>
</defs>
</svg>
