<svg width="27" height="36" viewBox="0 0 27 36" fill="none" xmlns="http://www.w3.org/2000/svg">
<g id="label-paired / xl / arrow-up-a-z-xl / bold" clip-path="url(#clip0_1731_6170)">
<path id="icon" d="M19.5 7.5C19.9688 7.5 20.3125 7.70312 20.5312 8.10938L24.2812 15.6094C24.5 16.2656 24.3281 16.7812 23.7656 17.1562C23.1094 17.375 22.6094 17.2031 22.2656 16.6406L21.6094 15.375C21.5469 15.375 21.4688 15.375 21.375 15.375H17.3906L16.7344 16.6406C16.3906 17.2344 15.8906 17.4062 15.2344 17.1562C14.6406 16.7812 14.4688 16.2656 14.7188 15.6094L18.4688 8.10938C18.7188 7.73438 19.0625 7.53125 19.5 7.5ZM18.5156 13.125H20.4844L19.5 11.1562L18.5156 13.125ZM6.70312 7.82812C7.23438 7.39063 7.76562 7.39063 8.29688 7.82812L12.7969 12.3281C13.2344 12.8594 13.2344 13.3906 12.7969 13.9219C12.2656 14.3594 11.7344 14.3594 11.2031 13.9219L8.625 11.3438V27.375C8.5625 28.0625 8.1875 28.4375 7.5 28.5C6.8125 28.4375 6.4375 28.0625 6.375 27.375V11.3438L3.79688 13.9219C3.26562 14.3594 2.73438 14.3594 2.20312 13.9219C1.76562 13.3906 1.76562 12.8594 2.20312 12.3281L6.70312 7.82812ZM16.5 19.5H22.5C22.9688 19.5312 23.3125 19.75 23.5312 20.1562C23.7188 20.5938 23.6562 21 23.3438 21.375L18.9844 26.25H22.5C23.1875 26.3125 23.5625 26.6875 23.625 27.375C23.5625 28.0625 23.1875 28.4375 22.5 28.5H16.5C16.0312 28.4688 15.6875 28.25 15.4688 27.8438C15.2812 27.4062 15.3438 27 15.6562 26.625L20.0156 21.75H16.5C15.8125 21.6875 15.4375 21.3125 15.375 20.625C15.4375 19.9375 15.8125 19.5625 16.5 19.5Z" fill="black" fill-opacity="0.72"/>
</g>
<defs>
<clipPath id="clip0_1731_6170">
<rect width="27" height="36" fill="white"/>
</clipPath>
</defs>
</svg>
