<svg width="24" height="36" viewBox="0 0 24 36" fill="none" xmlns="http://www.w3.org/2000/svg">
<g id="label-paired / xl / globe-xl / bold" clip-path="url(#clip0_1731_6347)">
<path id="icon" d="M12 27.75C12.1875 27.7812 12.4844 27.6406 12.8906 27.3281C13.2969 27.0469 13.75 26.4375 14.25 25.5C14.6562 24.6562 15 23.6562 15.2812 22.5H8.71875C9 23.6562 9.34375 24.6562 9.75 25.5C10.25 26.4375 10.7031 27.0469 11.1094 27.3281C11.5156 27.6406 11.8125 27.7812 12 27.75ZM8.39062 20.25H15.6562C15.7188 19.5312 15.75 18.7812 15.75 18C15.75 17.2188 15.7188 16.4688 15.6562 15.75H8.39062C8.29688 16.4688 8.25 17.2188 8.25 18C8.25 18.7812 8.29688 19.5312 8.39062 20.25ZM8.71875 13.5H15.2812C15 12.3438 14.6562 11.3438 14.25 10.5C13.75 9.5625 13.2969 8.95312 12.8906 8.67188C12.4844 8.35938 12.1875 8.21875 12 8.25C11.8125 8.21875 11.5156 8.35938 11.1094 8.67188C10.7031 8.95312 10.25 9.5625 9.75 10.5C9.34375 11.3438 9 12.3438 8.71875 13.5ZM17.9062 15.75C17.9688 16.4688 18 17.2188 18 18C18 18.7812 17.9688 19.5312 17.9062 20.25H21.4688C21.6562 19.5312 21.75 18.7812 21.75 18C21.75 17.2188 21.6562 16.4688 21.4688 15.75H17.9062ZM20.6719 13.5C19.6094 11.5312 18.0625 10.0781 16.0312 9.14062C16.6875 10.3594 17.2031 11.8125 17.5781 13.5H20.6719ZM6.42188 13.5C6.76562 11.8125 7.28125 10.3594 7.96875 9.14062C5.9375 10.0781 4.39062 11.5312 3.32812 13.5H6.42188ZM2.53125 15.75C2.34375 16.4688 2.25 17.2188 2.25 18C2.25 18.7812 2.34375 19.5312 2.53125 20.25H6.09375C6.03125 19.5312 6 18.7812 6 18C6 17.2188 6.03125 16.4688 6.09375 15.75H2.53125ZM16.0312 26.8594C18.0625 25.9219 19.6094 24.4688 20.6719 22.5H17.5781C17.2344 24.1875 16.7188 25.6406 16.0312 26.8594ZM7.96875 26.8594C7.3125 25.6406 6.79688 24.1875 6.42188 22.5H3.32812C4.39062 24.4688 5.9375 25.9219 7.96875 26.8594ZM12 30C9.8125 29.9688 7.8125 29.4375 6 28.4062C4.1875 27.3438 2.71875 25.875 1.59375 24C0.53125 22.0938 0 20.0938 0 18C0 15.9062 0.53125 13.9062 1.59375 12C2.71875 10.125 4.1875 8.65625 6 7.59375C7.8125 6.5625 9.8125 6.03125 12 6C14.1875 6.03125 16.1875 6.5625 18 7.59375C19.8125 8.65625 21.2812 10.125 22.4062 12C23.4688 13.9062 24 15.9062 24 18C24 20.0938 23.4688 22.0938 22.4062 24C21.2812 25.875 19.8125 27.3438 18 28.4062C16.1875 29.4375 14.1875 29.9688 12 30Z" fill="black" fill-opacity="0.72"/>
</g>
<defs>
<clipPath id="clip0_1731_6347">
<rect width="24" height="36" fill="white"/>
</clipPath>
</defs>
</svg>
