<svg width="19" height="24" viewBox="0 0 19 24" fill="none" xmlns="http://www.w3.org/2000/svg">
<g id="label-paired / md / microsoft-store-md" clip-path="url(#clip0_1731_13955)">
<path id="icon" d="M6.35938 8V6.21875C6.35938 5.125 6.92188 4.78125 7.98438 4.53125C9.57812 4.15625 9.67188 5.1875 9.67188 5.84375V7.34375L10.0781 7.28125V5.875C10.0781 4.625 9.67188 3.71875 7.92188 4.125C6.95312 4.3125 5.98438 4.5625 5.98438 6.1875V8.09375L6.35938 8ZM10.4531 5.53125C10.4219 5.375 10.3906 5.25 10.3906 5.125C11.6094 4.96875 11.8281 5.3125 11.8281 6.6875V6.9375L11.4531 7V6.6875C11.4531 6.65625 11.4531 6.65625 11.4531 6.625C11.4531 5.78125 11.4531 5.375 10.4531 5.53125ZM8.10938 7.0625C8.10938 5.8125 8.60938 5.625 9.23438 5.40625C9.26562 5.53125 9.29688 5.65625 9.29688 5.8125C8.73438 6.0625 8.51562 6.21875 8.51562 7.0625V7.59375L8.10938 7.65625V7.0625ZM3.04688 9.15625L13.7656 7L15.9219 7.78125V18.2812L13.7656 19.0625L3.04688 16.9375V9.15625ZM5.35938 15L7.73438 15.3125V13.0312H5.35938V15ZM5.35938 12.7188H7.73438V10.5625L5.35938 10.9062V12.7188ZM8.04688 15.3438L11.0469 15.7812V13.0312H8.04688V15.3438ZM8.04688 12.7188H11.0469V10.125L8.04688 10.5625V12.7188Z" fill="black" fill-opacity="0.72"/>
</g>
<defs>
<clipPath id="clip0_1731_13955">
<rect width="19" height="24" fill="white"/>
</clipPath>
</defs>
</svg>
