<svg width="27" height="36" viewBox="0 0 27 36" fill="none" xmlns="http://www.w3.org/2000/svg">
<g id="label-paired / xl / file-circle-info-xl / bold" clip-path="url(#clip0_1731_6525)">
<path id="icon" d="M3 27.75H13.3594C13.9219 28.625 14.625 29.3594 15.4688 29.9531C15.3125 29.9844 15.1562 30 15 30H3C2.15625 29.9688 1.45312 29.6719 0.890625 29.1094C0.328125 28.5469 0.03125 27.8438 0 27V9C0.03125 8.15625 0.328125 7.45312 0.890625 6.89062C1.45312 6.32812 2.15625 6.03125 3 6H10.7812C11.5938 6 12.2969 6.29687 12.8906 6.89062L17.1094 11.1094C17.7031 11.7031 18 12.4219 18 13.2656V15.3281C17.1875 15.5469 16.4375 15.875 15.75 16.3125V13.5H12C11.5625 13.5 11.2031 13.3594 10.9219 13.0781C10.6406 12.7969 10.5 12.4375 10.5 12V8.25H3C2.53125 8.28125 2.28125 8.53125 2.25 9V27C2.28125 27.4688 2.53125 27.7188 3 27.75ZM20.25 16.5C21.4688 16.5 22.5938 16.7969 23.625 17.3906C24.6562 17.9844 25.4844 18.8125 26.1094 19.875C26.7031 20.9375 27 22.0625 27 23.25C27 24.4375 26.7031 25.5625 26.1094 26.625C25.4844 27.6875 24.6562 28.5156 23.625 29.1094C22.5938 29.7031 21.4688 30 20.25 30C19.0312 30 17.9062 29.7031 16.875 29.1094C15.8438 28.5156 15.0156 27.6875 14.3906 26.625C13.7969 25.5625 13.5 24.4375 13.5 23.25C13.5 22.0625 13.7969 20.9375 14.3906 19.875C15.0156 18.8125 15.8438 17.9844 16.875 17.3906C17.9062 16.7969 19.0312 16.5 20.25 16.5ZM20.25 21C20.9375 20.9375 21.3125 20.5625 21.375 19.875C21.3125 19.1875 20.9375 18.8125 20.25 18.75C19.5625 18.8125 19.1875 19.1875 19.125 19.875C19.1875 20.5625 19.5625 20.9375 20.25 21ZM18.75 23.25C18.7812 23.7188 19.0312 23.9688 19.5 24V26.25C19.0312 26.2812 18.7812 26.5312 18.75 27C18.7812 27.4688 19.0312 27.7188 19.5 27.75H20.25H21C21.4688 27.7188 21.7188 27.4688 21.75 27C21.7188 26.5312 21.4688 26.2812 21 26.25V23.25C20.9688 22.7812 20.7188 22.5312 20.25 22.5H19.5C19.0312 22.5312 18.7812 22.7812 18.75 23.25Z" fill="black" fill-opacity="0.72"/>
</g>
<defs>
<clipPath id="clip0_1731_6525">
<rect width="27" height="36" fill="white"/>
</clipPath>
</defs>
</svg>
