<svg width="11" height="18" viewBox="0 0 11 18" fill="none" xmlns="http://www.w3.org/2000/svg">
<g id="label-paired / caption / arrow-right-caption / bold" clip-path="url(#clip0_1731_836)">
<path id="icon" d="M10.5859 9.89844L6.46094 13.8359C6.17969 14.0547 5.91406 14.0547 5.66406 13.8359C5.44531 13.5547 5.44531 13.2891 5.66406 13.0391L8.78125 10.0625H0.8125C0.46875 10.0312 0.28125 9.84375 0.25 9.5C0.28125 9.15625 0.46875 8.96875 0.8125 8.9375H8.78125L5.6875 5.96094C5.45312 5.71094 5.44531 5.44531 5.66406 5.16406C5.91406 4.94531 6.17969 4.94531 6.46094 5.16406L10.5859 9.10156C10.6953 9.21094 10.75 9.34375 10.75 9.5C10.75 9.65625 10.6953 9.78906 10.5859 9.89844Z" fill="black" fill-opacity="0.72"/>
</g>
<defs>
<clipPath id="clip0_1731_836">
<rect width="11" height="18" fill="white"/>
</clipPath>
</defs>
</svg>
