<svg width="13" height="22" viewBox="0 0 13 22" fill="none" xmlns="http://www.w3.org/2000/svg">
<g id="label-paired / sm / square-minus-sm / bold" clip-path="url(#clip0_1731_2053)">
<path id="icon" d="M2.125 5.9375C1.85156 5.95573 1.70573 6.10156 1.6875 6.375V15.125C1.70573 15.3984 1.85156 15.5443 2.125 15.5625H10.875C11.1484 15.5443 11.2943 15.3984 11.3125 15.125V6.375C11.2943 6.10156 11.1484 5.95573 10.875 5.9375H2.125ZM0.375 6.375C0.393229 5.88281 0.566406 5.47266 0.894531 5.14453C1.22266 4.81641 1.63281 4.64323 2.125 4.625H10.875C11.3672 4.64323 11.7773 4.81641 12.1055 5.14453C12.4336 5.47266 12.6068 5.88281 12.625 6.375V15.125C12.6068 15.6172 12.4336 16.0273 12.1055 16.3555C11.7773 16.6836 11.3672 16.8568 10.875 16.875H2.125C1.63281 16.8568 1.22266 16.6836 0.894531 16.3555C0.566406 16.0273 0.393229 15.6172 0.375 15.125V6.375ZM4.53125 10.0938H8.46875C8.86979 10.1302 9.08854 10.349 9.125 10.75C9.08854 11.151 8.86979 11.3698 8.46875 11.4062H4.53125C4.13021 11.3698 3.91146 11.151 3.875 10.75C3.91146 10.349 4.13021 10.1302 4.53125 10.0938Z" fill="black" fill-opacity="0.72"/>
</g>
<defs>
<clipPath id="clip0_1731_2053">
<rect width="13" height="22" fill="white"/>
</clipPath>
</defs>
</svg>
