<svg width="14" height="24" viewBox="0 0 14 24" fill="none" xmlns="http://www.w3.org/2000/svg">
<g id="label-paired / md / expand-md / regular" clip-path="url(#clip0_1731_3095)">
<path id="icon" d="M4.5 5C4.8125 5.02083 4.97917 5.1875 5 5.5C4.97917 5.8125 4.8125 5.97917 4.5 6H1V9.5C0.979167 9.8125 0.8125 9.97917 0.5 10C0.1875 9.97917 0.0208333 9.8125 0 9.5V5.5C0.0208333 5.1875 0.1875 5.02083 0.5 5H4.5ZM0 14.5C0.0208333 14.1875 0.1875 14.0208 0.5 14C0.8125 14.0208 0.979167 14.1875 1 14.5V18H4.5C4.8125 18.0208 4.97917 18.1875 5 18.5C4.97917 18.8125 4.8125 18.9792 4.5 19H0.5C0.1875 18.9792 0.0208333 18.8125 0 18.5V14.5ZM13.5 5C13.8125 5.02083 13.9792 5.1875 14 5.5V9.5C13.9792 9.8125 13.8125 9.97917 13.5 10C13.1875 9.97917 13.0208 9.8125 13 9.5V6H9.5C9.1875 5.97917 9.02083 5.8125 9 5.5C9.02083 5.1875 9.1875 5.02083 9.5 5H13.5ZM13 14.5C13.0208 14.1875 13.1875 14.0208 13.5 14C13.8125 14.0208 13.9792 14.1875 14 14.5V18.5C13.9792 18.8125 13.8125 18.9792 13.5 19H9.5C9.1875 18.9792 9.02083 18.8125 9 18.5C9.02083 18.1875 9.1875 18.0208 9.5 18H13V14.5Z" fill="black" fill-opacity="0.72"/>
</g>
<defs>
<clipPath id="clip0_1731_3095">
<rect width="14" height="24" fill="white"/>
</clipPath>
</defs>
</svg>
