<svg width="20" height="30" viewBox="0 0 20 30" fill="none" xmlns="http://www.w3.org/2000/svg">
<g id="label-paired / lg / barcode-lg / regular" clip-path="url(#clip0_1731_5205)">
<path id="icon" d="M0 7.375C0.0260417 6.98438 0.234375 6.77604 0.625 6.75C1.01562 6.77604 1.22396 6.98438 1.25 7.375V23.625C1.22396 24.0156 1.01562 24.224 0.625 24.25C0.234375 24.224 0.0260417 24.0156 0 23.625V7.375ZM2.5 7.375C2.52604 6.98438 2.73438 6.77604 3.125 6.75C3.51562 6.77604 3.72396 6.98438 3.75 7.375V23.625C3.72396 24.0156 3.51562 24.224 3.125 24.25C2.73438 24.224 2.52604 24.0156 2.5 23.625V7.375ZM5.625 6.75C6.01562 6.77604 6.22396 6.98438 6.25 7.375V23.625C6.22396 24.0156 6.01562 24.224 5.625 24.25C5.23438 24.224 5.02604 24.0156 5 23.625V7.375C5.02604 6.98438 5.23438 6.77604 5.625 6.75ZM8.75 7.375C8.77604 6.98438 8.98438 6.77604 9.375 6.75C9.76562 6.77604 9.97396 6.98438 10 7.375V23.625C9.97396 24.0156 9.76562 24.224 9.375 24.25C8.98438 24.224 8.77604 24.0156 8.75 23.625V7.375ZM11.875 6.75C12.2656 6.77604 12.474 6.98438 12.5 7.375V23.625C12.474 24.0156 12.2656 24.224 11.875 24.25C11.4844 24.224 11.276 24.0156 11.25 23.625V7.375C11.276 6.98438 11.4844 6.77604 11.875 6.75ZM15 7.375C15.026 6.98438 15.2344 6.77604 15.625 6.75C16.0156 6.77604 16.224 6.98438 16.25 7.375V23.625C16.224 24.0156 16.0156 24.224 15.625 24.25C15.2344 24.224 15.026 24.0156 15 23.625V7.375ZM19.375 6.75C19.7656 6.77604 19.974 6.98438 20 7.375V23.625C19.974 24.0156 19.7656 24.224 19.375 24.25C18.9844 24.224 18.776 24.0156 18.75 23.625V7.375C18.776 6.98438 18.9844 6.77604 19.375 6.75Z" fill="black" fill-opacity="0.72"/>
</g>
<defs>
<clipPath id="clip0_1731_5205">
<rect width="20" height="30" fill="white"/>
</clipPath>
</defs>
</svg>
