<svg width="25" height="30" viewBox="0 0 25 30" fill="none" xmlns="http://www.w3.org/2000/svg">
<g id="label-paired / lg / light-chart-line-up-down-clock-lg / regular" clip-path="url(#clip0_1731_4745)">
<path id="icon" d="M0 7.375C0 7.0625 0.273438 6.75 0.625 6.75C0.9375 6.75 1.25 7.0625 1.25 7.375C1.25 11.9844 1.25 16.5547 1.25 21.125C1.25 22.1797 2.07031 23 3.125 23C6.48438 23 9.84375 23 13.2422 23C13.4766 23.4688 13.75 23.8984 14.0625 24.25C10.3906 24.25 6.75781 24.25 3.125 24.25C1.36719 24.25 0 22.8828 0 21.125C0 16.5547 0 11.9844 0 7.375ZM3.90625 15.6953L7.65625 11.9453C7.77344 11.8281 7.92969 11.75 8.125 11.75C8.28125 11.75 8.4375 11.8281 8.55469 11.9453C9.45312 12.8438 10.3516 13.7422 11.25 14.6406C13.0078 12.8438 14.8047 11.0469 16.6016 9.25C15.8594 9.25 15.1172 9.25 14.375 9.25C14.0234 9.25 13.75 8.97656 13.75 8.625C13.75 8.3125 14.0234 8 14.375 8C15.625 8 16.875 8 18.125 8C18.4375 8 18.75 8.3125 18.75 8.625C18.75 9.875 18.75 11.125 18.75 12.375C18.75 12.7266 18.4375 13 18.125 13C17.7734 13 17.5 12.7266 17.5 12.375C17.5 11.6328 17.5 10.8906 17.5 10.1484C15.5469 12.1016 13.5938 14.0156 11.6797 15.9688C11.4453 16.2031 11.0156 16.2031 10.7812 15.9688C9.88281 15.0703 8.98438 14.1719 8.125 13.2734C6.99219 14.3672 5.89844 15.5 4.80469 16.5938C4.57031 16.8281 4.14062 16.8281 3.90625 16.5938C3.67188 16.3594 3.67188 15.9297 3.90625 15.6953ZM13.75 19.875C13.75 16.7891 16.25 14.25 19.375 14.25C22.4609 14.25 25 16.7891 25 19.875C25 23 22.4609 25.5 19.375 25.5C16.25 25.5 13.75 23 13.75 19.875ZM15 19.875C15 22.2969 16.9531 24.25 19.375 24.25C21.7578 24.25 23.75 22.2969 23.75 19.875C23.75 17.4922 21.7578 15.5 19.375 15.5C16.9531 15.5 15 17.4922 15 19.875ZM18.75 17.375C18.75 17.0625 19.0234 16.75 19.375 16.75C19.6875 16.75 20 17.0625 20 17.375C20 18 20 18.625 20 19.25C20.3906 19.25 20.8203 19.25 21.25 19.25C21.5625 19.25 21.875 19.5625 21.875 19.875C21.875 20.2266 21.5625 20.5 21.25 20.5C20.625 20.5 20 20.5 19.375 20.5C19.0234 20.5 18.75 20.2266 18.75 19.875V17.375Z" fill="black" fill-opacity="0.72"/>
</g>
<defs>
<clipPath id="clip0_1731_4745">
<rect width="25" height="30" fill="white"/>
</clipPath>
</defs>
</svg>
