<svg width="9" height="22" viewBox="0 0 9 22" fill="none" xmlns="http://www.w3.org/2000/svg">
<g id="label-paired / sm / euro-sign-sm / bold" clip-path="url(#clip0_1731_2962)">
<path id="icon" d="M1.46484 10.3125H0.78125C0.380208 10.276 0.161458 10.0573 0.125 9.65625C0.161458 9.25521 0.380208 9.03646 0.78125 9H1.68359C2.08464 7.70573 2.8138 6.65755 3.87109 5.85547C4.92839 5.05339 6.15885 4.64323 7.5625 4.625H8.21875C8.61979 4.66146 8.83854 4.88021 8.875 5.28125C8.83854 5.68229 8.61979 5.90104 8.21875 5.9375H7.5625C6.52344 5.95573 5.61198 6.23828 4.82812 6.78516C4.02604 7.35026 3.44271 8.08854 3.07812 9H7.34375C7.74479 9.03646 7.96354 9.25521 8 9.65625C7.96354 10.0573 7.74479 10.276 7.34375 10.3125H2.77734C2.75911 10.4583 2.75 10.6042 2.75 10.75C2.75 10.8958 2.75911 11.0417 2.77734 11.1875H7.34375C7.74479 11.224 7.96354 11.4427 8 11.8438C7.96354 12.2448 7.74479 12.4635 7.34375 12.5H3.07812C3.44271 13.4115 4.02604 14.1497 4.82812 14.7148C5.61198 15.2617 6.52344 15.5443 7.5625 15.5625H8.21875C8.61979 15.599 8.83854 15.8177 8.875 16.2188C8.83854 16.6198 8.61979 16.8385 8.21875 16.875H7.5625C6.15885 16.8568 4.92839 16.4466 3.87109 15.6445C2.8138 14.8424 2.08464 13.7943 1.68359 12.5H0.78125C0.380208 12.4635 0.161458 12.2448 0.125 11.8438C0.161458 11.4427 0.380208 11.224 0.78125 11.1875H1.46484C1.44661 11.0417 1.4375 10.8958 1.4375 10.75C1.4375 10.6042 1.44661 10.4583 1.46484 10.3125Z" fill="black" fill-opacity="0.72"/>
</g>
<defs>
<clipPath id="clip0_1731_2962">
<rect width="9" height="22" fill="white"/>
</clipPath>
</defs>
</svg>
