<svg width="9" height="22" viewBox="0 0 9 22" fill="none" xmlns="http://www.w3.org/2000/svg">
<g id="label-paired / sm / three-sm / bold" clip-path="url(#clip0_1731_2265)">
<path id="icon" d="M0.125 5.28125C0.161458 4.88021 0.380208 4.66146 0.78125 4.625H7.78125C8.07292 4.64323 8.27344 4.77995 8.38281 5.03516C8.49219 5.30859 8.44661 5.54557 8.24609 5.74609L4.17188 9.65625H5.26562C6.28646 9.67448 7.13411 10.0299 7.80859 10.7227C8.5013 11.3971 8.85677 12.2448 8.875 13.2656C8.85677 14.2865 8.5013 15.1341 7.80859 15.8086C7.13411 16.5013 6.28646 16.8568 5.26562 16.875H2.77734C2.23047 16.875 1.73828 16.7292 1.30078 16.4375C0.845052 16.1641 0.489583 15.7904 0.234375 15.3164L0.207031 15.207C0.0611979 14.8242 0.152344 14.5326 0.480469 14.332C0.863281 14.1862 1.15495 14.2773 1.35547 14.6055L1.41016 14.7148C1.72005 15.2617 2.17578 15.5443 2.77734 15.5625H5.26562C5.92188 15.5443 6.45964 15.3164 6.87891 14.8789C7.31641 14.4596 7.54427 13.9219 7.5625 13.2656C7.54427 12.6094 7.31641 12.0716 6.87891 11.6523C6.45964 11.2148 5.92188 10.987 5.26562 10.9688H2.53125C2.23958 10.9505 2.03906 10.8138 1.92969 10.5586C1.82031 10.2852 1.86589 10.0482 2.06641 9.84766L6.14062 5.9375H0.78125C0.380208 5.90104 0.161458 5.68229 0.125 5.28125Z" fill="black" fill-opacity="0.72"/>
</g>
<defs>
<clipPath id="clip0_1731_2265">
<rect width="9" height="22" fill="white"/>
</clipPath>
</defs>
</svg>
