<svg width="20" height="24" viewBox="0 0 20 24" fill="none" xmlns="http://www.w3.org/2000/svg">
<g id="label-paired / md / horizontal-rule-dashed-md / bold" clip-path="url(#clip0_1731_4019)">
<path id="icon" d="M0 12C0 11.5938 0.3125 11.25 0.75 11.25H2.75C3.15625 11.25 3.5 11.5938 3.5 12C3.5 12.4375 3.15625 12.75 2.75 12.75H0.75C0.3125 12.75 0 12.4375 0 12ZM5.5 12C5.5 11.5938 5.8125 11.25 6.25 11.25H8.25C8.65625 11.25 9 11.5938 9 12C9 12.4375 8.65625 12.75 8.25 12.75H6.25C5.8125 12.75 5.5 12.4375 5.5 12ZM11 12C11 11.5938 11.3125 11.25 11.75 11.25H13.75C14.1562 11.25 14.5 11.5938 14.5 12C14.5 12.4375 14.1562 12.75 13.75 12.75H11.75C11.3125 12.75 11 12.4375 11 12ZM16.5 12C16.5 11.5938 16.8125 11.25 17.25 11.25H19.25C19.6562 11.25 20 11.5938 20 12C20 12.4375 19.6562 12.75 19.25 12.75H17.25C16.8125 12.75 16.5 12.4375 16.5 12Z" fill="black" fill-opacity="0.72"/>
</g>
<defs>
<clipPath id="clip0_1731_4019">
<rect width="20" height="24" fill="white"/>
</clipPath>
</defs>
</svg>
