<svg width="20" height="30" viewBox="0 0 20 30" fill="none" xmlns="http://www.w3.org/2000/svg">
<g id="label-paired / lg / google-play-lg" clip-path="url(#clip0_1731_14049)">
<path id="icon" d="M12.6953 14.6406L15.0391 12.2969L4.10156 6.00781L12.6953 14.6406ZM1.83594 5.5L11.875 15.5L1.83594 25.5C1.28906 25.2135 1.0026 24.7578 0.976562 24.1328V6.86719C1.0026 6.24219 1.28906 5.78646 1.83594 5.5ZM18.4375 14.3281C18.8281 14.6146 19.0234 15.0052 19.0234 15.5C19.0234 15.9948 18.8411 16.3854 18.4766 16.6719L16.1328 18.0391L13.5938 15.5L16.1328 13L18.4375 14.3281ZM4.10156 24.9922L12.6953 16.3594L15.0391 18.7031L4.10156 24.9922Z" fill="black" fill-opacity="0.72"/>
</g>
<defs>
<clipPath id="clip0_1731_14049">
<rect width="20" height="30" fill="white"/>
</clipPath>
</defs>
</svg>
