<svg width="24" height="36" viewBox="0 0 24 36" fill="none" xmlns="http://www.w3.org/2000/svg">
<g id="label-paired / xl / reddit-xl" clip-path="url(#clip0_1731_14136)">
<path id="icon" d="M9.46875 20.3438C8.75 20.25 8.35938 19.8594 8.29688 19.1719C8.35938 18.4531 8.75 18.0625 9.46875 18C10.1562 18.0625 10.5312 18.4531 10.5938 19.1719C10.5312 19.8594 10.1562 20.25 9.46875 20.3438ZM23.625 18C23.5938 20.1562 23.0625 22.1094 22.0312 23.8594C21 25.6094 19.6094 27 17.8594 28.0312C16.1094 29.0625 14.1562 29.5938 12 29.625C9.84375 29.5938 7.89062 29.0625 6.14062 28.0312C4.39062 27 3 25.6094 1.96875 23.8594C0.9375 22.1094 0.40625 20.1562 0.375 18C0.40625 15.8438 0.9375 13.8906 1.96875 12.1406C3 10.3906 4.39062 9 6.14062 7.96875C7.89062 6.9375 9.84375 6.40625 12 6.375C14.1562 6.40625 16.1094 6.9375 17.8594 7.96875C19.6094 9 21 10.3906 22.0312 12.1406C23.0625 13.8906 23.5938 15.8438 23.625 18ZM17.4375 16.0781C16.9688 16.0781 16.5938 16.2344 16.3125 16.5469C15.2188 15.7969 13.875 15.375 12.2812 15.2812L13.0781 11.625L15.7031 12.1875C15.7656 12.9062 16.1406 13.2969 16.8281 13.3594C17.5469 13.2969 17.9375 12.9062 18 12.1875C17.9375 11.4688 17.5469 11.0781 16.8281 11.0156C16.3594 11.0469 16.0156 11.2656 15.7969 11.6719L12.9375 11.0156C12.7812 11.0156 12.6719 11.0938 12.6094 11.25L11.7188 15.2812C10.125 15.375 8.78125 15.7969 7.6875 16.5469C7.40625 16.2344 7.03125 16.0781 6.5625 16.0781C5.75 16.1406 5.25 16.5312 5.0625 17.25C4.90625 17.9688 5.1875 18.5625 5.90625 19.0312C5.84375 19.25 5.8125 19.4844 5.8125 19.7344C5.875 21.0156 6.48438 22.0625 7.64062 22.875C8.79688 23.7188 10.25 24.1562 12 24.1875C13.75 24.1562 15.2188 23.7188 16.4062 22.875C17.5625 22.0625 18.1719 21.0156 18.2344 19.7344C18.2344 19.4844 18.2031 19.2344 18.1406 18.9844C18.8281 18.5469 19.0938 17.9688 18.9375 17.25C18.75 16.5312 18.25 16.1406 17.4375 16.0781ZM14.2031 21.5156C13.7031 21.9531 12.9688 22.1719 12 22.1719C11.0312 22.1406 10.2969 21.9219 9.79688 21.5156C9.67188 21.4219 9.54688 21.4219 9.42188 21.5156C9.29688 21.6719 9.29688 21.8125 9.42188 21.9375C10.0469 22.4688 10.9062 22.7344 12 22.7344C13.0938 22.7344 13.9531 22.4688 14.5781 21.9375C14.7031 21.8125 14.7031 21.6719 14.5781 21.5156C14.4531 21.4219 14.3281 21.4219 14.2031 21.5156ZM14.5781 18C13.8594 18.0625 13.4688 18.4531 13.4062 19.1719C13.4688 19.8594 13.8594 20.25 14.5781 20.3438C15.2656 20.25 15.6406 19.8594 15.7031 19.1719C15.6406 18.4531 15.2656 18.0625 14.5781 18Z" fill="black" fill-opacity="0.72"/>
</g>
<defs>
<clipPath id="clip0_1731_14136">
<rect width="24" height="36" fill="white"/>
</clipPath>
</defs>
</svg>
