<svg width="21" height="36" viewBox="0 0 21 36" fill="none" xmlns="http://www.w3.org/2000/svg">
<g id="label-paired / xl / arrow-up-from-bracket-xl / bold" clip-path="url(#clip0_1731_5673)">
<path id="icon" d="M11.2969 6.32812L17.2969 12.3281C17.7344 12.8594 17.7344 13.3906 17.2969 13.9219C16.7656 14.3594 16.2344 14.3594 15.7031 13.9219L11.625 9.84375V21.375C11.5625 22.0625 11.1875 22.4375 10.5 22.5C9.8125 22.4375 9.4375 22.0625 9.375 21.375V9.84375L5.29688 13.9219C4.76562 14.3594 4.23438 14.3594 3.70312 13.9219C3.26562 13.3906 3.26562 12.8594 3.70312 12.3281L9.70312 6.32812C10.2344 5.89063 10.7656 5.89063 11.2969 6.32812ZM2.25 22.125V25.875C2.25 26.4062 2.4375 26.8438 2.8125 27.1875C3.15625 27.5625 3.59375 27.75 4.125 27.75H16.875C17.4062 27.75 17.8438 27.5625 18.1875 27.1875C18.5625 26.8438 18.75 26.4062 18.75 25.875V22.125C18.8125 21.4375 19.1875 21.0625 19.875 21C20.5625 21.0625 20.9375 21.4375 21 22.125V25.875C20.9688 27.0312 20.5625 28 19.7812 28.7812C19 29.5625 18.0312 29.9688 16.875 30H4.125C2.96875 29.9688 2 29.5625 1.21875 28.7812C0.4375 28 0.03125 27.0312 0 25.875V22.125C0.0625 21.4375 0.4375 21.0625 1.125 21C1.8125 21.0625 2.1875 21.4375 2.25 22.125Z" fill="black" fill-opacity="0.72"/>
</g>
<defs>
<clipPath id="clip0_1731_5673">
<rect width="21" height="36" fill="white"/>
</clipPath>
</defs>
</svg>
