<svg width="15" height="36" viewBox="0 0 15 36" fill="none" xmlns="http://www.w3.org/2000/svg">
<g id="label-paired / xl / backward-step-xl / bold" clip-path="url(#clip0_1731_6591)">
<path id="icon" d="M3.75 10.125V15.0469L12.0469 9.23438C12.2656 9.07812 12.5312 9 12.8438 9C13.25 9 13.5781 9.14062 13.8281 9.42188C14.1094 9.67188 14.25 10 14.25 10.4062V25.5938C14.25 26 14.1094 26.3281 13.8281 26.5781C13.5781 26.8594 13.25 27 12.8438 27C12.5625 27 12.2969 26.9219 12.0469 26.7656L3.75 20.9531V25.875C3.6875 26.5625 3.3125 26.9375 2.625 27C1.9375 26.9375 1.5625 26.5625 1.5 25.875V19.3594V16.6406V10.125C1.5625 9.4375 1.9375 9.0625 2.625 9C3.3125 9.0625 3.6875 9.4375 3.75 10.125ZM3.75 18.1875L12 24V12.0469L3.75 17.8125V18.1875Z" fill="black" fill-opacity="0.72"/>
</g>
<defs>
<clipPath id="clip0_1731_6591">
<rect width="15" height="36" fill="white"/>
</clipPath>
</defs>
</svg>
