<svg width="18" height="36" viewBox="0 0 18 36" fill="none" xmlns="http://www.w3.org/2000/svg">
<g id="label-paired / xl / apple-xl" clip-path="url(#clip0_1731_14134)">
<path id="icon" d="M14.9531 18.6094C14.8906 18.7969 15 19.3594 15.2812 20.2969C15.5625 21.2656 16.4062 22.1406 17.8125 22.9219C17.625 23.5156 17.2969 24.25 16.8281 25.125C16.3594 25.9688 15.7969 26.7344 15.1406 27.4219C14.4844 28.0781 13.7812 28.4375 13.0312 28.5C12.4062 28.4688 11.8438 28.3281 11.3438 28.0781C10.8125 27.8281 10.1719 27.6875 9.42188 27.6562C8.64062 27.6875 7.96875 27.8438 7.40625 28.125C6.90625 28.3438 6.40625 28.4688 5.90625 28.5C5.125 28.4688 4.39062 28.0938 3.70312 27.375C3.01562 26.6562 2.42188 25.8438 1.92188 24.9375C1.42188 24 1.0625 23.2344 0.84375 22.6406C0.40625 21.3281 0.1875 20.0625 0.1875 18.8438C0.25 16.75 0.828125 15.1875 1.92188 14.1562C2.98438 13.125 4.20312 12.5938 5.57812 12.5625C6.35938 12.625 7.125 12.8125 7.875 13.125C8.40625 13.3438 8.84375 13.4688 9.1875 13.5C9.4375 13.4688 9.8125 13.3594 10.3125 13.1719C10.7188 13.0156 11.1875 12.8594 11.7188 12.7031C12.25 12.5469 12.7812 12.4844 13.3125 12.5156C15.0625 12.6719 16.3906 13.375 17.2969 14.625C15.7031 15.5625 14.9219 16.8906 14.9531 18.6094ZM12.2812 10.9219C11.3438 12.0156 10.2656 12.5469 9.04688 12.5156C8.98438 11.2031 9.375 10.0781 10.2188 9.14062C10.625 8.70312 11.1094 8.32812 11.6719 8.01562C12.2656 7.70312 12.8438 7.53125 13.4062 7.5C13.4688 7.78125 13.4531 8.21875 13.3594 8.8125C13.2344 9.4375 12.875 10.1406 12.2812 10.9219Z" fill="black" fill-opacity="0.72"/>
</g>
<defs>
<clipPath id="clip0_1731_14134">
<rect width="18" height="36" fill="white"/>
</clipPath>
</defs>
</svg>
