<svg width="16" height="22" viewBox="0 0 16 22" fill="none" xmlns="http://www.w3.org/2000/svg">
<g id="label-paired / sm / eye-sm / bold" clip-path="url(#clip0_1731_1884)">
<path id="icon" d="M8 5.9375C7.10677 5.95573 6.29557 6.13802 5.56641 6.48438C4.83724 6.8125 4.1901 7.25 3.625 7.79688C3.09635 8.28906 2.64974 8.79948 2.28516 9.32812C1.9388 9.85677 1.66536 10.3307 1.46484 10.75C1.66536 11.1693 1.9388 11.6432 2.28516 12.1719C2.64974 12.7005 3.09635 13.2109 3.625 13.7031C4.1901 14.25 4.83724 14.6875 5.56641 15.0156C6.29557 15.362 7.10677 15.5443 8 15.5625C8.89323 15.5443 9.70443 15.362 10.4336 15.0156C11.1628 14.6875 11.8099 14.25 12.375 13.7031C12.9036 13.2109 13.3503 12.7005 13.7148 12.1719C14.0612 11.6432 14.3346 11.1693 14.5352 10.75C14.3346 10.3307 14.0612 9.85677 13.7148 9.32812C13.3503 8.79948 12.9036 8.28906 12.375 7.79688C11.8099 7.25 11.1628 6.8125 10.4336 6.48438C9.70443 6.13802 8.89323 5.95573 8 5.9375ZM2.72266 6.83984C3.37891 6.22005 4.14453 5.70052 5.01953 5.28125C5.89453 4.86198 6.88802 4.64323 8 4.625C9.11198 4.64323 10.1055 4.86198 10.9805 5.28125C11.8555 5.70052 12.6211 6.22005 13.2773 6.83984C13.9154 7.44141 14.444 8.0612 14.8633 8.69922C15.2826 9.33724 15.6016 9.91146 15.8203 10.4219C15.9115 10.6406 15.9115 10.8594 15.8203 11.0781C15.6016 11.5885 15.2826 12.1628 14.8633 12.8008C14.444 13.4388 13.9154 14.0586 13.2773 14.6602C12.6211 15.2799 11.8555 15.7995 10.9805 16.2188C10.1055 16.638 9.11198 16.8568 8 16.875C6.88802 16.8568 5.89453 16.638 5.01953 16.2188C4.14453 15.7995 3.37891 15.2799 2.72266 14.6602C2.08464 14.0586 1.55599 13.4388 1.13672 12.8008C0.717448 12.1628 0.407552 11.5885 0.207031 11.0781C0.115885 10.8594 0.115885 10.6406 0.207031 10.4219C0.407552 9.91146 0.717448 9.33724 1.13672 8.69922C1.55599 8.0612 2.08464 7.44141 2.72266 6.83984ZM8 12.9375C8.61979 12.9193 9.13932 12.7096 9.55859 12.3086C9.95964 11.8893 10.1693 11.3698 10.1875 10.75C10.1693 10.1302 9.95964 9.61068 9.55859 9.19141C9.13932 8.79036 8.61979 8.58073 8 8.5625C7.98177 8.5625 7.97266 8.5625 7.97266 8.5625C7.97266 8.5625 7.96354 8.5625 7.94531 8.5625C7.98177 8.70833 8 8.85417 8 9C7.98177 9.49219 7.80859 9.90234 7.48047 10.2305C7.15234 10.5586 6.74219 10.7318 6.25 10.75C6.10417 10.75 5.95833 10.7318 5.8125 10.6953C5.8125 10.7135 5.8125 10.7227 5.8125 10.7227C5.8125 10.7227 5.8125 10.7318 5.8125 10.75C5.83073 11.3698 6.04036 11.8893 6.44141 12.3086C6.86068 12.7096 7.38021 12.9193 8 12.9375ZM8 7.25C8.63802 7.25 9.22135 7.40495 9.75 7.71484C10.2786 8.02474 10.707 8.45312 11.0352 9C11.3451 9.54688 11.5 10.1302 11.5 10.75C11.5 11.3698 11.3451 11.9531 11.0352 12.5C10.707 13.0469 10.2786 13.4753 9.75 13.7852C9.22135 14.0951 8.63802 14.25 8 14.25C7.36198 14.25 6.77865 14.0951 6.25 13.7852C5.72135 13.4753 5.29297 13.0469 4.96484 12.5C4.65495 11.9531 4.5 11.3698 4.5 10.75C4.5 10.1302 4.65495 9.54688 4.96484 9C5.29297 8.45312 5.72135 8.02474 6.25 7.71484C6.77865 7.40495 7.36198 7.25 8 7.25Z" fill="black" fill-opacity="0.72"/>
</g>
<defs>
<clipPath id="clip0_1731_1884">
<rect width="16" height="22" fill="white"/>
</clipPath>
</defs>
</svg>
