<svg width="18" height="24" viewBox="0 0 18 24" fill="none" xmlns="http://www.w3.org/2000/svg">
<g id="label-paired / md / file-shield-md / bold" clip-path="url(#clip0_1731_4108)">
<path id="icon" d="M2 18.5H9.71875C10.0521 18.9583 10.4583 19.375 10.9375 19.75C10.6667 19.9167 10.3542 20 10 20H2C1.4375 19.9792 0.96875 19.7812 0.59375 19.4062C0.21875 19.0312 0.0208333 18.5625 0 18V6C0.0208333 5.4375 0.21875 4.96875 0.59375 4.59375C0.96875 4.21875 1.4375 4.02083 2 4H7.1875C7.72917 4 8.19792 4.19792 8.59375 4.59375L11.4062 7.40625C11.8021 7.80208 12 8.28125 12 8.84375V10.4688L10.5 11.0625V9H8C7.70833 9 7.46875 8.90625 7.28125 8.71875C7.09375 8.53125 7 8.29167 7 8V5.5H2C1.6875 5.52083 1.52083 5.6875 1.5 6V18C1.52083 18.3125 1.6875 18.4792 2 18.5ZM13.2188 11.0625C13.4062 10.9792 13.5938 10.9792 13.7812 11.0625L17.5312 12.5625C17.8229 12.6875 17.9792 12.9167 18 13.25C18.0208 13.9375 17.9062 14.7083 17.6562 15.5625C17.4271 16.4167 17.0104 17.2396 16.4062 18.0312C15.7812 18.8229 14.9062 19.4583 13.7812 19.9375C13.5938 20.0208 13.4062 20.0208 13.2188 19.9375C12.0938 19.4583 11.2188 18.8229 10.5938 18.0312C9.98958 17.2396 9.57292 16.4167 9.34375 15.5625C9.09375 14.7083 8.97917 13.9375 9 13.25C9.02083 12.9167 9.17708 12.6875 9.46875 12.5625L13.2188 11.0625ZM16.4688 13.75L13.5 12.5625V18.4375C14.5417 17.875 15.2917 17.1562 15.75 16.2812C16.1875 15.4271 16.4271 14.5833 16.4688 13.75Z" fill="black" fill-opacity="0.72"/>
</g>
<defs>
<clipPath id="clip0_1731_4108">
<rect width="18" height="24" fill="white"/>
</clipPath>
</defs>
</svg>
