<svg width="18" height="30" viewBox="0 0 18 30" fill="none" xmlns="http://www.w3.org/2000/svg">
<g id="label-paired / lg / user-lg / bold" clip-path="url(#clip0_1731_5228)">
<path id="icon" d="M12.125 10.5C12.099 9.32812 11.5781 8.42969 10.5625 7.80469C9.52083 7.23177 8.47917 7.23177 7.4375 7.80469C6.42188 8.42969 5.90104 9.32812 5.875 10.5C5.90104 11.6719 6.42188 12.5703 7.4375 13.1953C8.47917 13.7682 9.52083 13.7682 10.5625 13.1953C11.5781 12.5703 12.099 11.6719 12.125 10.5ZM4 10.5C4 9.58854 4.22135 8.75521 4.66406 8C5.10677 7.24479 5.71875 6.63281 6.5 6.16406C7.28125 5.72135 8.11458 5.5 9 5.5C9.88542 5.5 10.7188 5.72135 11.5 6.16406C12.2812 6.63281 12.8932 7.24479 13.3359 8C13.7786 8.75521 14 9.58854 14 10.5C14 11.4115 13.7786 12.2448 13.3359 13C12.8932 13.7552 12.2812 14.3672 11.5 14.8359C10.7188 15.2786 9.88542 15.5 9 15.5C8.11458 15.5 7.28125 15.2786 6.5 14.8359C5.71875 14.3672 5.10677 13.7552 4.66406 13C4.22135 12.2448 4 11.4115 4 10.5ZM2.16406 23.625H15.8359C15.6276 22.349 15.0677 21.3073 14.1562 20.5C13.2188 19.6927 12.099 19.276 10.7969 19.25H7.20312C5.90104 19.276 4.79427 19.6927 3.88281 20.5C2.94531 21.3073 2.3724 22.349 2.16406 23.625ZM0.25 24.3281C0.302083 22.375 0.979167 20.7344 2.28125 19.4062C3.60938 18.1042 5.25 17.4271 7.20312 17.375H10.7969C12.75 17.4271 14.3906 18.1042 15.7188 19.4062C17.0208 20.7344 17.6979 22.375 17.75 24.3281C17.75 24.6667 17.6328 24.9401 17.3984 25.1484C17.1901 25.3828 16.9167 25.5 16.5781 25.5H1.42188C1.08333 25.5 0.809896 25.3828 0.601562 25.1484C0.367188 24.9401 0.25 24.6667 0.25 24.3281Z" fill="black" fill-opacity="0.72"/>
</g>
<defs>
<clipPath id="clip0_1731_5228">
<rect width="18" height="30" fill="white"/>
</clipPath>
</defs>
</svg>
