<svg width="10" height="24" viewBox="0 0 10 24" fill="none" xmlns="http://www.w3.org/2000/svg">
<g id="label-paired / md / pause-md / regular" clip-path="url(#clip0_1731_4045)">
<path id="icon" d="M1.5 7C1.1875 7.02083 1.02083 7.1875 1 7.5V16.5C1.02083 16.8125 1.1875 16.9792 1.5 17H3C3.3125 16.9792 3.47917 16.8125 3.5 16.5V7.5C3.47917 7.1875 3.3125 7.02083 3 7H1.5ZM0 7.5C0.0208333 7.08333 0.166667 6.72917 0.4375 6.4375C0.729167 6.16667 1.08333 6.02083 1.5 6H3C3.41667 6.02083 3.77083 6.16667 4.0625 6.4375C4.33333 6.72917 4.47917 7.08333 4.5 7.5V16.5C4.47917 16.9167 4.33333 17.2708 4.0625 17.5625C3.77083 17.8333 3.41667 17.9792 3 18H1.5C1.08333 17.9792 0.729167 17.8333 0.4375 17.5625C0.166667 17.2708 0.0208333 16.9167 0 16.5V7.5ZM7 7C6.6875 7.02083 6.52083 7.1875 6.5 7.5V16.5C6.52083 16.8125 6.6875 16.9792 7 17H8.5C8.8125 16.9792 8.97917 16.8125 9 16.5V7.5C8.97917 7.1875 8.8125 7.02083 8.5 7H7ZM5.5 7.5C5.52083 7.08333 5.66667 6.72917 5.9375 6.4375C6.22917 6.16667 6.58333 6.02083 7 6H8.5C8.91667 6.02083 9.27083 6.16667 9.5625 6.4375C9.83333 6.72917 9.97917 7.08333 10 7.5V16.5C9.97917 16.9167 9.83333 17.2708 9.5625 17.5625C9.27083 17.8333 8.91667 17.9792 8.5 18H7C6.58333 17.9792 6.22917 17.8333 5.9375 17.5625C5.66667 17.2708 5.52083 16.9167 5.5 16.5V7.5Z" fill="black" fill-opacity="0.72"/>
</g>
<defs>
<clipPath id="clip0_1731_4045">
<rect width="10" height="24" fill="white"/>
</clipPath>
</defs>
</svg>
