<svg width="24" height="36" viewBox="0 0 24 36" fill="none" xmlns="http://www.w3.org/2000/svg">
<g id="label-paired / xl / at-xl / regular" clip-path="url(#clip0_1731_6390)">
<path id="icon" d="M12 7.5C10.0312 7.53125 8.26562 8.01562 6.70312 8.95312C5.10938 9.85938 3.85938 11.1094 2.95312 12.7031C2.01562 14.2656 1.53125 16.0312 1.5 18C1.53125 19.9688 2.01562 21.7344 2.95312 23.2969C3.85938 24.8906 5.10938 26.1406 6.70312 27.0469C8.26562 27.9844 10.0312 28.4688 12 28.5C12.4688 28.5312 12.7188 28.7812 12.75 29.25C12.7188 29.7188 12.4688 29.9688 12 30C9.75 29.9688 7.73438 29.4219 5.95312 28.3594C4.14062 27.2969 2.70312 25.8594 1.64062 24.0469C0.578125 22.2656 0.03125 20.25 0 18C0.03125 15.75 0.578125 13.7344 1.64062 11.9531C2.70312 10.1406 4.14062 8.70312 5.95312 7.64062C7.73438 6.57812 9.75 6.03125 12 6C14.25 6.03125 16.2656 6.57812 18.0469 7.64062C19.8594 8.70312 21.2969 10.1406 22.3594 11.9531C23.4219 13.7344 23.9688 15.75 24 18V19.125C23.9688 20.2812 23.5625 21.25 22.7812 22.0312C22 22.8125 21.0312 23.2188 19.875 23.25C19.0938 23.25 18.375 23.0469 17.7188 22.6406C17.0938 22.2656 16.6094 21.75 16.2656 21.0938C15.2344 22.4688 13.8125 23.1875 12 23.25C10.5 23.2188 9.26562 22.7031 8.29688 21.7031C7.29688 20.7344 6.78125 19.5 6.75 18C6.78125 16.5 7.29688 15.2656 8.29688 14.2969C9.26562 13.2969 10.5 12.7812 12 12.75C13.5 12.7812 14.75 13.3125 15.75 14.3438V14.25C15.7812 13.7812 16.0312 13.5312 16.5 13.5C16.9688 13.5312 17.2188 13.7812 17.25 14.25V18V19.125C17.2812 19.875 17.5312 20.5 18 21C18.5 21.4688 19.125 21.7188 19.875 21.75C20.625 21.7188 21.25 21.4688 21.75 21C22.2188 20.5 22.4688 19.875 22.5 19.125V18C22.4688 16.0312 21.9844 14.2656 21.0469 12.7031C20.1406 11.1094 18.8906 9.85938 17.2969 8.95312C15.7344 8.01562 13.9688 7.53125 12 7.5ZM15.75 18C15.7188 16.5938 15.0938 15.5156 13.875 14.7656C12.625 14.0781 11.375 14.0781 10.125 14.7656C8.90625 15.5156 8.28125 16.5938 8.25 18C8.28125 19.4062 8.90625 20.4844 10.125 21.2344C11.375 21.9219 12.625 21.9219 13.875 21.2344C15.0938 20.4844 15.7188 19.4062 15.75 18Z" fill="black" fill-opacity="0.72"/>
</g>
<defs>
<clipPath id="clip0_1731_6390">
<rect width="24" height="36" fill="white"/>
</clipPath>
</defs>
</svg>
