<svg width="13" height="22" viewBox="0 0 13 22" fill="none" xmlns="http://www.w3.org/2000/svg">
<g id="label-paired / sm / arrow-down-to-bracket-sm / regular" clip-path="url(#clip0_1731_1892)">
<path id="icon" d="M10.3008 9.73828L6.80078 13.2383C6.60026 13.4206 6.39974 13.4206 6.19922 13.2383L2.69922 9.73828C2.51693 9.53776 2.51693 9.33724 2.69922 9.13672C2.89974 8.95443 3.10026 8.95443 3.30078 9.13672L6.0625 11.8711V4.1875C6.08073 3.91406 6.22656 3.76823 6.5 3.75C6.77344 3.76823 6.91927 3.91406 6.9375 4.1875V11.8711L9.69922 9.13672C9.89974 8.95443 10.1003 8.95443 10.3008 9.13672C10.4831 9.33724 10.4831 9.53776 10.3008 9.73828ZM1.25 12.9375V15.5625C1.26823 15.9271 1.39583 16.237 1.63281 16.4922C1.88802 16.7292 2.19792 16.8568 2.5625 16.875H10.4375C10.8021 16.8568 11.112 16.7292 11.3672 16.4922C11.6042 16.237 11.7318 15.9271 11.75 15.5625V12.9375C11.7682 12.6641 11.9141 12.5182 12.1875 12.5C12.4609 12.5182 12.6068 12.6641 12.625 12.9375V15.5625C12.6068 16.1823 12.3971 16.7018 11.9961 17.1211C11.5768 17.5221 11.0573 17.7318 10.4375 17.75H2.5625C1.94271 17.7318 1.42318 17.5221 1.00391 17.1211C0.602865 16.7018 0.393229 16.1823 0.375 15.5625V12.9375C0.393229 12.6641 0.539062 12.5182 0.8125 12.5C1.08594 12.5182 1.23177 12.6641 1.25 12.9375Z" fill="black" fill-opacity="0.72"/>
</g>
<defs>
<clipPath id="clip0_1731_1892">
<rect width="13" height="22" fill="white"/>
</clipPath>
</defs>
</svg>
