<svg width="21" height="36" viewBox="0 0 21 36" fill="none" xmlns="http://www.w3.org/2000/svg">
<g id="label-paired / xl / trash-xl / bold" clip-path="url(#clip0_1731_5603)">
<path id="icon" d="M8.29688 8.25C8.17188 8.25 8.07812 8.3125 8.01562 8.4375L7.125 9.75H13.9219L13.0312 8.4375C12.9375 8.3125 12.8281 8.25 12.7031 8.25H8.29688ZM16.5938 9.75H17.25H19.5H19.875C20.5625 9.8125 20.9375 10.1875 21 10.875C20.9375 11.5625 20.5625 11.9375 19.875 12H19.3125L18.1875 27.2344C18.125 28.0156 17.8125 28.6719 17.25 29.2031C16.6875 29.7031 16.0156 29.9688 15.2344 30H5.76562C4.98438 29.9688 4.3125 29.7031 3.75 29.2031C3.1875 28.6719 2.875 28.0156 2.8125 27.2344L1.6875 12H1.125C0.4375 11.9375 0.0625 11.5625 0 10.875C0.0625 10.1875 0.4375 9.8125 1.125 9.75H1.5H3.75H4.40625L6.14062 7.17188C6.67188 6.42188 7.39062 6.03125 8.29688 6H12.7031C13.6094 6.03125 14.3438 6.42188 14.9062 7.17188L16.5938 9.75ZM17.0625 12H3.9375L5.01562 27.0469C5.10938 27.4844 5.35938 27.7188 5.76562 27.75H15.2344C15.6406 27.7188 15.8906 27.4844 15.9844 27.0469L17.0625 12Z" fill="black" fill-opacity="0.72"/>
</g>
<defs>
<clipPath id="clip0_1731_5603">
<rect width="21" height="36" fill="white"/>
</clipPath>
</defs>
</svg>
