<svg width="24" height="36" viewBox="0 0 24 36" fill="none" xmlns="http://www.w3.org/2000/svg">
<g id="label-paired / xl / pen-circle-xl / regular" clip-path="url(#clip0_1731_6503)">
<path id="icon" d="M22.5 18C22.4688 16.0938 22 14.3438 21.0938 12.75C20.1562 11.1562 18.875 9.875 17.25 8.90625C15.5938 7.96875 13.8438 7.5 12 7.5C10.1562 7.5 8.40625 7.96875 6.75 8.90625C5.125 9.875 3.84375 11.1562 2.90625 12.75C2 14.3438 1.53125 16.0938 1.5 18C1.53125 19.9062 2 21.6562 2.90625 23.25C3.84375 24.8438 5.125 26.125 6.75 27.0938C8.40625 28.0312 10.1562 28.5 12 28.5C13.8438 28.5 15.5938 28.0312 17.25 27.0938C18.875 26.125 20.1562 24.8438 21.0938 23.25C22 21.6562 22.4688 19.9062 22.5 18ZM0 18C0.03125 15.8125 0.5625 13.8125 1.59375 12C2.65625 10.1875 4.125 8.71875 6 7.59375C7.90625 6.53125 9.90625 6 12 6C14.0938 6 16.0938 6.53125 18 7.59375C19.875 8.71875 21.3438 10.1875 22.4062 12C23.4375 13.8125 23.9688 15.8125 24 18C23.9688 20.1875 23.4375 22.1875 22.4062 24C21.3438 25.8125 19.875 27.2812 18 28.4062C16.0938 29.4688 14.0938 30 12 30C9.90625 30 7.90625 29.4688 6 28.4062C4.125 27.2812 2.65625 25.8125 1.59375 24C0.5625 22.1875 0.03125 20.1875 0 18ZM15.5625 13.6406C15.1875 13.3594 14.8281 13.3594 14.4844 13.6406L13.5 14.6719L15.375 16.5469L16.3594 15.5156C16.6406 15.1719 16.6406 14.8281 16.3594 14.4844L15.5625 13.6406ZM8.57812 19.5938C8.45312 19.6875 8.375 19.7969 8.34375 19.9219L7.78125 22.2188L10.0781 21.6562C10.2031 21.625 10.3125 21.5625 10.4062 21.4688L14.2969 17.5781L12.4219 15.7031L8.53125 19.5938H8.57812ZM13.4062 12.6094C13.875 12.1719 14.4062 11.9531 15 11.9531C15.5938 11.9531 16.125 12.1719 16.5938 12.6094L17.4375 13.4062C17.875 13.875 18.0938 14.4062 18.0938 15C18.0938 15.5938 17.875 16.125 17.4375 16.5938L11.4844 22.5C11.2031 22.8125 10.8594 23.0156 10.4531 23.1094L6.9375 24C6.65625 24.0625 6.42188 23.9844 6.23438 23.7656C6.04688 23.5781 5.98438 23.3438 6.04688 23.0625L6.89062 19.5469C7.01562 19.1719 7.21875 18.8281 7.5 18.5156L13.4062 12.6094Z" fill="black" fill-opacity="0.72"/>
</g>
<defs>
<clipPath id="clip0_1731_6503">
<rect width="24" height="36" fill="white"/>
</clipPath>
</defs>
</svg>
