<svg width="12" height="24" viewBox="0 0 12 24" fill="none" xmlns="http://www.w3.org/2000/svg">
<g id="label-paired / md / arrow-up-to-line-md / regular" clip-path="url(#clip0_1731_3425)">
<path id="icon" d="M0.5 5H11.5C11.8125 5.02083 11.9792 5.1875 12 5.5C11.9792 5.8125 11.8125 5.97917 11.5 6H0.5C0.1875 5.97917 0.0208333 5.8125 0 5.5C0.0208333 5.1875 0.1875 5.02083 0.5 5ZM6.34375 8.15625L10.3438 12.1562C10.5521 12.3854 10.5521 12.6146 10.3438 12.8438C10.1146 13.0521 9.88542 13.0521 9.65625 12.8438L6.5 9.71875V13V18.5C6.47917 18.8125 6.3125 18.9792 6 19C5.6875 18.9792 5.52083 18.8125 5.5 18.5V13V9.71875L2.34375 12.8438C2.11458 13.0521 1.88542 13.0521 1.65625 12.8438C1.44792 12.6146 1.44792 12.3854 1.65625 12.1562L5.65625 8.15625C5.88542 7.94792 6.11458 7.94792 6.34375 8.15625Z" fill="black" fill-opacity="0.72"/>
</g>
<defs>
<clipPath id="clip0_1731_3425">
<rect width="12" height="24" fill="white"/>
</clipPath>
</defs>
</svg>
