<svg width="18" height="30" viewBox="0 0 18 30" fill="none" xmlns="http://www.w3.org/2000/svg">
<g id="label-paired / lg / expand-lg / bold" clip-path="url(#clip0_1731_5311)">
<path id="icon" d="M5.5625 6.75C6.13542 6.80208 6.44792 7.11458 6.5 7.6875C6.44792 8.26042 6.13542 8.57292 5.5625 8.625H2.125V12.0625C2.07292 12.6354 1.76042 12.9479 1.1875 13C0.614583 12.9479 0.302083 12.6354 0.25 12.0625V7.6875C0.302083 7.11458 0.614583 6.80208 1.1875 6.75H5.5625ZM0.25 18.9375C0.302083 18.3646 0.614583 18.0521 1.1875 18C1.76042 18.0521 2.07292 18.3646 2.125 18.9375V22.375H5.5625C6.13542 22.4271 6.44792 22.7396 6.5 23.3125C6.44792 23.8854 6.13542 24.1979 5.5625 24.25H1.1875C0.614583 24.1979 0.302083 23.8854 0.25 23.3125V18.9375ZM16.8125 6.75C17.3854 6.80208 17.6979 7.11458 17.75 7.6875V12.0625C17.6979 12.6354 17.3854 12.9479 16.8125 13C16.2396 12.9479 15.9271 12.6354 15.875 12.0625V8.625H12.4375C11.8646 8.57292 11.5521 8.26042 11.5 7.6875C11.5521 7.11458 11.8646 6.80208 12.4375 6.75H16.8125ZM15.875 18.9375C15.9271 18.3646 16.2396 18.0521 16.8125 18C17.3854 18.0521 17.6979 18.3646 17.75 18.9375V23.3125C17.6979 23.8854 17.3854 24.1979 16.8125 24.25H12.4375C11.8646 24.1979 11.5521 23.8854 11.5 23.3125C11.5521 22.7396 11.8646 22.4271 12.4375 22.375H15.875V18.9375Z" fill="black" fill-opacity="0.72"/>
</g>
<defs>
<clipPath id="clip0_1731_5311">
<rect width="18" height="30" fill="white"/>
</clipPath>
</defs>
</svg>
