<svg width="13" height="22" viewBox="0 0 13 22" fill="none" xmlns="http://www.w3.org/2000/svg">
<g id="label-paired / sm / tiktok-sm" clip-path="url(#clip0_1731_13866)">
<path id="icon" d="M12.625 9.49219C11.3854 9.49219 10.2643 9.13672 9.26172 8.42578V13.293C9.26172 14.2409 8.9974 15.0885 8.46875 15.8359C7.95833 16.5833 7.26562 17.1302 6.39062 17.4766C5.4974 17.7865 4.61328 17.832 3.73828 17.6133C2.86328 17.3945 2.10677 16.9297 1.46875 16.2188C0.867188 15.5078 0.511719 14.6966 0.402344 13.7852C0.311198 12.8919 0.484375 12.026 0.921875 11.1875C1.3776 10.3672 2.00651 9.7474 2.80859 9.32812C3.62891 8.92708 4.50391 8.78125 5.43359 8.89062V11.3516C4.99609 11.224 4.57682 11.2331 4.17578 11.3789C3.77474 11.5065 3.4375 11.7526 3.16406 12.1172C2.90885 12.4818 2.78125 12.8828 2.78125 13.3203C2.78125 13.7396 2.90885 14.1406 3.16406 14.5234C3.4375 14.8698 3.78385 15.1068 4.20312 15.2344C4.60417 15.3802 5.02344 15.3802 5.46094 15.2344C5.88021 15.0885 6.21745 14.8424 6.47266 14.4961C6.72786 14.1497 6.85547 13.7487 6.85547 13.293V3.75H9.26172C9.26172 3.95052 9.27995 4.15104 9.31641 4.35156C9.51693 5.28125 10.0091 6.01042 10.793 6.53906C11.3581 6.90365 11.9688 7.09505 12.625 7.11328V9.49219Z" fill="black" fill-opacity="0.72"/>
</g>
<defs>
<clipPath id="clip0_1731_13866">
<rect width="13" height="22" fill="white"/>
</clipPath>
</defs>
</svg>
