<svg width="15" height="36" viewBox="0 0 15 36" fill="none" xmlns="http://www.w3.org/2000/svg">
<g id="label-paired / xl / forward-step-xl / regular" clip-path="url(#clip0_1731_6582)">
<path id="icon" d="M12 9.75C12.0312 9.28125 12.2812 9.03125 12.75 9C13.2188 9.03125 13.4688 9.28125 13.5 9.75V17.3438V18.6562V26.25C13.4688 26.7188 13.2188 26.9688 12.75 27C12.2812 26.9688 12.0312 26.7188 12 26.25V19.875L3.60938 26.7188C3.39062 26.9062 3.125 27 2.8125 27C2.4375 27 2.125 26.875 1.875 26.625C1.625 26.375 1.5 26.0625 1.5 25.6875V10.3125C1.5 9.9375 1.625 9.625 1.875 9.375C2.125 9.125 2.4375 9 2.8125 9C3.125 9 3.39062 9.09375 3.60938 9.28125L12 16.125V9.75ZM3 10.7344V25.2656L11.9531 18L3 10.7344Z" fill="black" fill-opacity="0.72"/>
</g>
<defs>
<clipPath id="clip0_1731_6582">
<rect width="15" height="36" fill="white"/>
</clipPath>
</defs>
</svg>
