<svg width="21" height="36" viewBox="0 0 21 36" fill="none" xmlns="http://www.w3.org/2000/svg">
<g id="label-paired / xl / flag-checkered-xl / regular" clip-path="url(#clip0_1731_6457)">
<path id="icon" d="M1.5 6.75V8.76562L6.09375 7.5C8.09375 7 10.0156 7.1875 11.8594 8.0625C12.8281 8.5625 13.8594 8.79688 14.9531 8.76562C16.0469 8.73438 17.0781 8.45312 18.0469 7.92188L18.75 7.5C19.2812 7.21875 19.7812 7.21875 20.25 7.5C20.7188 7.75 20.9688 8.17188 21 8.76562V22.0312C20.9688 22.6562 20.6719 23.1094 20.1094 23.3906L18.6562 24C17.4688 24.5 16.25 24.7344 15 24.7031C13.75 24.6719 12.5469 24.3594 11.3906 23.7656C9.73438 22.9844 8.03125 22.8125 6.28125 23.25L1.5 24.5625V29.25C1.46875 29.7188 1.21875 29.9688 0.75 30C0.28125 29.9688 0.03125 29.7188 0 29.25V24.9844V24V9.75V9.1875V6.75C0.03125 6.28125 0.28125 6.03125 0.75 6C1.21875 6.03125 1.46875 6.28125 1.5 6.75ZM1.5 10.3125V13.2188L6 12.2812V9.09375L1.5 10.3125ZM1.5 14.7656V18.0938L6 17.1562V13.7812L1.5 14.7656ZM7.5 13.4531V16.7812C8.5625 16.5938 9.625 16.6562 10.6875 16.9688L13.5 17.7656V14.4844C13.4375 14.4531 13.3594 14.4219 13.2656 14.3906L10.2656 13.5469C9.39062 13.2969 8.53125 13.2656 7.6875 13.4531H7.5ZM15 14.7188V18.0938C15.7188 18.1562 16.4219 18.1094 17.1094 17.9531L19.5 17.3906V14.0625L17.4844 14.5312C16.6406 14.7188 15.8125 14.7812 15 14.7188ZM13.5 19.3594C13.4375 19.3281 13.3594 19.2969 13.2656 19.2656L10.2656 18.4219C9.39062 18.1719 8.53125 18.1406 7.6875 18.3281H7.5V21.5625C9.09375 21.4375 10.6094 21.7344 12.0469 22.4531C12.5156 22.6719 13 22.8438 13.5 22.9688V19.3594ZM15 23.2031C16.0625 23.2344 17.0938 23.0312 18.0938 22.5938L19.5 22.0312V18.9375L17.4844 19.4062C16.6406 19.5938 15.8125 19.6562 15 19.5938V23.2031ZM15 13.2188C15.7188 13.2812 16.4219 13.2344 17.1094 13.0781L19.5 12.5156V8.8125L18.75 9.1875C17.5625 9.875 16.3125 10.2344 15 10.2656V13.2188ZM13.5 10.1719C12.6875 10.0469 11.9062 9.79688 11.1562 9.42188C10 8.85938 8.78125 8.64062 7.5 8.76562V11.9531C8.5625 11.7344 9.625 11.7812 10.6875 12.0938L13.5 12.9375V10.1719ZM1.5 19.6406V23.0156L5.85938 21.8438C5.92188 21.8125 5.96875 21.7969 6 21.7969V18.6562L1.5 19.6406Z" fill="black" fill-opacity="0.72"/>
</g>
<defs>
<clipPath id="clip0_1731_6457">
<rect width="21" height="36" fill="white"/>
</clipPath>
</defs>
</svg>
