<svg width="6" height="18" viewBox="0 0 6 18" fill="none" xmlns="http://www.w3.org/2000/svg">
<g id="label-paired / caption / one-caption / regular" clip-path="url(#clip0_1731_995)">
<path id="icon" d="M3.375 4.625V14H5.625C5.85938 14.0156 5.98438 14.1406 6 14.375C5.98438 14.6094 5.85938 14.7344 5.625 14.75H3H0.375C0.140625 14.7344 0.015625 14.6094 0 14.375C0.015625 14.1406 0.140625 14.0156 0.375 14H2.625V5.32812L0.960938 6.42969C0.757812 6.53906 0.585938 6.50781 0.445312 6.33594C0.335938 6.13281 0.367188 5.96094 0.539062 5.82031L2.78906 4.32031C2.91406 4.24219 3.04688 4.23438 3.1875 4.29688C3.3125 4.375 3.375 4.48438 3.375 4.625Z" fill="black" fill-opacity="0.72"/>
</g>
<defs>
<clipPath id="clip0_1731_995">
<rect width="6" height="18" fill="white"/>
</clipPath>
</defs>
</svg>
