<svg width="18" height="22" viewBox="0 0 18 22" fill="none" xmlns="http://www.w3.org/2000/svg">
<g id="label-paired / sm / huawei-sm" clip-path="url(#clip0_1731_13868)">
<path id="icon" d="M2.90234 6.48438C2.90234 6.48438 5.71875 9.875 7.79688 14.3867V14.4141L7.76953 14.4688C7.74219 14.4961 7.71484 14.4688 7.71484 14.4688C6.94922 14.0859 3.72266 12.4453 2.38281 11.1602C2.38281 11.1602 1.5625 10.5039 1.48047 9.41016V9.13672C1.5625 7.76953 2.90234 6.48438 2.90234 6.48438ZM7.27734 15.5625V15.5898V15.5625C7.27734 15.5625 7.27734 15.5898 7.25 15.6445C6.73047 16 5.11719 17.1211 4.40625 17.3125C3.39453 17.5586 2.41016 16.7383 1.80859 15.6992L7.19531 15.5078C7.19531 15.5078 7.25 15.5078 7.27734 15.5625ZM7.33203 15.0156C7.33203 15.0156 7.35938 15.0156 7.35938 15.043V15.0977C7.35938 15.0977 7.33203 15.125 7.30469 15.125C6.45703 15.125 3.33984 15.125 3.25781 15.125C3.25781 15.125 2.73828 15.125 2.24609 14.9062C2.24609 14.9062 1.125 14.5234 0.523438 13.293C0.523438 13.293 0.25 12.7461 0.25 11.9531V11.9258C0.25 11.625 0.277344 11.2969 0.386719 10.9688C0.386719 10.9688 4.98047 13.4023 7.33203 15.0156ZM6.83984 4.35156V4.32422C6.83984 4.32422 7.46875 4.1875 7.71484 4.16016C7.71484 4.16016 9.30078 6.23828 8.53516 13.9492C8.53516 13.9766 8.50781 13.9766 8.50781 14.0039L8.48047 14.0312C8.48047 14.0312 8.45312 14.0312 8.39844 14.0039C7.90625 13.2656 5.58203 9.82031 5.08984 7.6875C5.08984 7.6875 4.98047 7.35938 4.98047 6.92188V6.64844C5.00781 6.10156 5.19922 5.58203 5.52734 5.17188C5.85547 4.76172 6.32031 4.46094 6.83984 4.35156ZM12.8828 5.99219C13.1562 6.67578 12.8828 7.6875 12.8828 7.6875C12.418 9.79297 10.0938 13.2383 9.57422 14.0039C9.57422 14.0039 9.54688 14.0312 9.49219 14.0312C9.49219 14.0312 9.46484 14.0039 9.4375 13.9492C8.67188 6.21094 10.2578 4.16016 10.2578 4.16016C10.6953 4.24219 11.1055 4.32422 11.1055 4.32422C12.5273 4.67969 12.8828 5.99219 12.8828 5.99219ZM10.7773 15.5352V15.5078H10.75L16.1641 15.6992C15.3438 17.0938 14.4688 17.3398 13.9766 17.3398H13.8672C13.6758 17.3398 13.5391 17.3125 13.5391 17.3125C12.8008 17.0938 11.2422 16 10.7227 15.6445C10.6953 15.6172 10.6953 15.5625 10.6953 15.5625C10.7227 15.5352 10.7773 15.5352 10.7773 15.5352ZM16.4648 9.38281C16.4375 10.4766 15.5898 11.1602 15.5898 11.1602C14.2773 12.4453 11.0508 14.0859 10.2852 14.4688H10.2305H10.2031C10.1758 14.4141 10.2031 14.3594 10.2031 14.3594C12.2539 9.90234 15.0703 6.48438 15.0703 6.48438C15.0703 6.48438 16.5742 7.87891 16.4648 9.38281ZM17.5859 10.9414V10.9688C17.9961 12.1992 17.4492 13.2383 17.4492 13.2383C16.875 14.5234 15.7266 14.9062 15.7266 14.9062C15.207 15.0977 14.7969 15.0977 14.7969 15.0977C14.7148 15.125 11.5156 15.125 10.668 15.125C10.6406 15.125 10.6133 15.0703 10.6133 15.0703C10.6133 15.043 10.6406 14.9883 10.6406 14.9883C12.9922 13.4023 17.5859 10.9414 17.5859 10.9414Z" fill="black" fill-opacity="0.72"/>
</g>
<defs>
<clipPath id="clip0_1731_13868">
<rect width="18" height="22" fill="white"/>
</clipPath>
</defs>
</svg>
