<svg width="14" height="22" viewBox="0 0 14 22" fill="none" xmlns="http://www.w3.org/2000/svg">
<g id="label-paired / sm / reddit-sm" clip-path="url(#clip0_1731_13885)">
<path id="icon" d="M5.52344 12.1172C5.10417 12.0625 4.8763 11.8346 4.83984 11.4336C4.8763 11.0143 5.10417 10.7865 5.52344 10.75C5.92448 10.7865 6.14323 11.0143 6.17969 11.4336C6.14323 11.8346 5.92448 12.0625 5.52344 12.1172ZM13.7812 10.75C13.763 12.0078 13.4531 13.1471 12.8516 14.168C12.25 15.1888 11.4388 16 10.418 16.6016C9.39714 17.2031 8.25781 17.513 7 17.5312C5.74219 17.513 4.60286 17.2031 3.58203 16.6016C2.5612 16 1.75 15.1888 1.14844 14.168C0.546875 13.1471 0.236979 12.0078 0.21875 10.75C0.236979 9.49219 0.546875 8.35286 1.14844 7.33203C1.75 6.3112 2.5612 5.5 3.58203 4.89844C4.60286 4.29688 5.74219 3.98698 7 3.96875C8.25781 3.98698 9.39714 4.29688 10.418 4.89844C11.4388 5.5 12.25 6.3112 12.8516 7.33203C13.4531 8.35286 13.763 9.49219 13.7812 10.75ZM10.1719 9.62891C9.89844 9.62891 9.67969 9.72005 9.51562 9.90234C8.8776 9.46484 8.09375 9.21875 7.16406 9.16406L7.62891 7.03125L9.16016 7.35938C9.19661 7.77865 9.41536 8.00651 9.81641 8.04297C10.2357 8.00651 10.4635 7.77865 10.5 7.35938C10.4635 6.9401 10.2357 6.71224 9.81641 6.67578C9.54297 6.69401 9.34245 6.82161 9.21484 7.05859L7.54688 6.67578C7.45573 6.67578 7.39193 6.72135 7.35547 6.8125L6.83594 9.16406C5.90625 9.21875 5.1224 9.46484 4.48438 9.90234C4.32031 9.72005 4.10156 9.62891 3.82812 9.62891C3.35417 9.66536 3.0625 9.89323 2.95312 10.3125C2.86198 10.7318 3.02604 11.0781 3.44531 11.3516C3.40885 11.4792 3.39062 11.6159 3.39062 11.7617C3.42708 12.5091 3.78255 13.1198 4.45703 13.5938C5.13151 14.0859 5.97917 14.3411 7 14.3594C8.02083 14.3411 8.8776 14.0859 9.57031 13.5938C10.2448 13.1198 10.6003 12.5091 10.6367 11.7617C10.6367 11.6159 10.6185 11.4701 10.582 11.3242C10.9831 11.069 11.138 10.7318 11.0469 10.3125C10.9375 9.89323 10.6458 9.66536 10.1719 9.62891ZM8.28516 12.8008C7.99349 13.056 7.5651 13.1836 7 13.1836C6.4349 13.1654 6.00651 13.0378 5.71484 12.8008C5.64193 12.7461 5.56901 12.7461 5.49609 12.8008C5.42318 12.8919 5.42318 12.974 5.49609 13.0469C5.86068 13.3568 6.36198 13.5117 7 13.5117C7.63802 13.5117 8.13932 13.3568 8.50391 13.0469C8.57682 12.974 8.57682 12.8919 8.50391 12.8008C8.43099 12.7461 8.35807 12.7461 8.28516 12.8008ZM8.50391 10.75C8.08464 10.7865 7.85677 11.0143 7.82031 11.4336C7.85677 11.8346 8.08464 12.0625 8.50391 12.1172C8.90495 12.0625 9.1237 11.8346 9.16016 11.4336C9.1237 11.0143 8.90495 10.7865 8.50391 10.75Z" fill="black" fill-opacity="0.72"/>
</g>
<defs>
<clipPath id="clip0_1731_13885">
<rect width="14" height="22" fill="white"/>
</clipPath>
</defs>
</svg>
