<svg width="12" height="18" viewBox="0 0 12 18" fill="none" xmlns="http://www.w3.org/2000/svg">
<g id="label-paired / caption / app-store-caption" clip-path="url(#clip0_1731_13791)">
<path id="icon" d="M6 6.33594L5.78906 5.96094C5.61719 5.72656 5.39844 5.67188 5.13281 5.79688C4.89844 5.96875 4.84375 6.1875 4.96875 6.45312L5.4375 7.29688L3.89062 9.99219H2.67188C2.375 10.0234 2.21094 10.1875 2.17969 10.4844C2.21094 10.7656 2.375 10.9219 2.67188 10.9531H7.00781C7.11719 10.7344 7.11719 10.5234 7.00781 10.3203C6.89844 10.1172 6.71875 10.0078 6.46875 9.99219H4.99219L7.03125 6.45312C7.15625 6.1875 7.10156 5.96875 6.86719 5.79688C6.60156 5.67188 6.38281 5.72656 6.21094 5.96094L6 6.33594ZM4.14844 11.4453C3.89844 11.1484 3.58594 11.0547 3.21094 11.1641L2.85938 11.7734C2.73438 12.0391 2.79688 12.25 3.04688 12.4062C3.3125 12.5312 3.53125 12.4766 3.70312 12.2422L4.14844 11.4453ZM8.10938 9.99219C8.0625 9.91406 8.02344 9.84375 7.99219 9.78125C7.42969 8.79688 7 8.05469 6.70312 7.55469C6.54688 7.67969 6.42969 7.89062 6.35156 8.1875C6.28906 8.5 6.35156 8.82812 6.53906 9.17188C6.72656 9.5 6.95312 9.89844 7.21875 10.3672C7.53125 10.8984 7.89062 11.5234 8.29688 12.2422C8.46875 12.4766 8.6875 12.5312 8.95312 12.4062C9.1875 12.25 9.25 12.0312 9.14062 11.75L8.67188 10.9531H9.35156C9.64844 10.9219 9.8125 10.7656 9.84375 10.4844C9.8125 10.1875 9.64844 10.0234 9.35156 9.99219H8.10938ZM6 3.6875C7.07812 3.70313 8.05469 3.96875 8.92969 4.48438C9.80469 5 10.5 5.69531 11.0156 6.57031C11.5312 7.44531 11.7969 8.42188 11.8125 9.5C11.7969 10.5781 11.5312 11.5547 11.0156 12.4297C10.5 13.3047 9.80469 14 8.92969 14.5156C8.05469 15.0312 7.07812 15.2969 6 15.3125C4.92188 15.2969 3.94531 15.0312 3.07031 14.5156C2.19531 14 1.5 13.3047 0.984375 12.4297C0.46875 11.5547 0.203125 10.5781 0.1875 9.5C0.203125 8.42188 0.46875 7.44531 0.984375 6.57031C1.5 5.69531 2.19531 5 3.07031 4.48438C3.94531 3.96875 4.92188 3.70313 6 3.6875ZM11.0625 9.5C11.0312 8.0625 10.5391 6.86719 9.58594 5.91406C8.61719 4.96094 7.42188 4.46875 6 4.4375C4.5625 4.46875 3.36719 4.96094 2.41406 5.91406C1.46094 6.88281 0.96875 8.07812 0.9375 9.5C0.96875 10.9375 1.46094 12.1328 2.41406 13.0859C3.38281 14.0391 4.57812 14.5312 6 14.5625C7.4375 14.5312 8.63281 14.0391 9.58594 13.0859C10.5391 12.1172 11.0312 10.9219 11.0625 9.5Z" fill="black" fill-opacity="0.72"/>
</g>
<defs>
<clipPath id="clip0_1731_13791">
<rect width="12" height="18" fill="white"/>
</clipPath>
</defs>
</svg>
