<svg width="16" height="24" viewBox="0 0 16 24" fill="none" xmlns="http://www.w3.org/2000/svg">
<g id="label-paired / md / circle-arrow-down-left-md / regular" clip-path="url(#clip0_1731_3475)">
<path id="icon" d="M8 5C6.72917 5.02083 5.5625 5.33333 4.5 5.9375C3.4375 6.5625 2.58333 7.41667 1.9375 8.5C1.3125 9.60417 1 10.7708 1 12C1 13.2292 1.3125 14.3958 1.9375 15.5C2.58333 16.5833 3.4375 17.4375 4.5 18.0625C5.5625 18.6667 6.72917 18.9792 8 19C9.27083 18.9792 10.4375 18.6667 11.5 18.0625C12.5625 17.4375 13.4167 16.5833 14.0625 15.5C14.6875 14.3958 15 13.2292 15 12C15 10.7708 14.6875 9.60417 14.0625 8.5C13.4167 7.41667 12.5625 6.5625 11.5 5.9375C10.4375 5.33333 9.27083 5.02083 8 5ZM8 20C6.54167 19.9792 5.20833 19.625 4 18.9375C2.79167 18.2292 1.8125 17.25 1.0625 16C0.354167 14.7292 0 13.3958 0 12C0 10.6042 0.354167 9.27083 1.0625 8C1.8125 6.75 2.79167 5.77083 4 5.0625C5.20833 4.375 6.54167 4.02083 8 4C9.45833 4.02083 10.7917 4.375 12 5.0625C13.2083 5.77083 14.1875 6.75 14.9375 8C15.6458 9.27083 16 10.6042 16 12C16 13.3958 15.6458 14.7292 14.9375 16C14.1875 17.25 13.2083 18.2292 12 18.9375C10.7917 19.625 9.45833 19.9792 8 20ZM9.75 15H5.5C5.1875 14.9792 5.02083 14.8125 5 14.5V10C5.02083 9.6875 5.1875 9.52083 5.5 9.5C5.8125 9.52083 5.97917 9.6875 6 10V13.2812L10.1562 9.15625C10.3854 8.94792 10.6146 8.94792 10.8438 9.15625C11.0521 9.38542 11.0521 9.61458 10.8438 9.84375L6.71875 14H9.75C10.0625 14.0208 10.2292 14.1875 10.25 14.5C10.2292 14.8125 10.0625 14.9792 9.75 15Z" fill="black" fill-opacity="0.72"/>
</g>
<defs>
<clipPath id="clip0_1731_3475">
<rect width="16" height="24" fill="white"/>
</clipPath>
</defs>
</svg>
