<svg width="10" height="24" viewBox="0 0 10 24" fill="none" xmlns="http://www.w3.org/2000/svg">
<g id="label-paired / md / sort-up-md / regular" clip-path="url(#clip0_1731_3617)">
<path id="icon" d="M4.8125 6.0625L1.0625 9.625C1.02083 9.66667 1 9.71875 1 9.78125C1.02083 9.90625 1.09375 9.97917 1.21875 10H8.78125C8.90625 9.97917 8.97917 9.90625 9 9.78125C9 9.71875 8.97917 9.66667 8.9375 9.625L5.1875 6.0625C5.125 6.02083 5.0625 6 5 6C4.9375 6 4.875 6.02083 4.8125 6.0625ZM4.125 5.34375C4.375 5.11458 4.66667 5 5 5C5.33333 5 5.625 5.11458 5.875 5.34375L9.625 8.875C9.875 9.125 10 9.42708 10 9.78125C10 10.1354 9.88542 10.4271 9.65625 10.6562C9.42708 10.8854 9.13542 11 8.78125 11H1.21875C0.864583 11 0.572917 10.8854 0.34375 10.6562C0.114583 10.4271 0 10.1354 0 9.78125C0 9.42708 0.125 9.125 0.375 8.875L4.125 5.34375Z" fill="black" fill-opacity="0.72"/>
</g>
<defs>
<clipPath id="clip0_1731_3617">
<rect width="10" height="24" fill="white"/>
</clipPath>
</defs>
</svg>
