<svg width="27" height="36" viewBox="0 0 27 36" fill="none" xmlns="http://www.w3.org/2000/svg">
<g id="label-paired / xl / memo-circle-check-xl / bold" clip-path="url(#clip0_1731_6545)">
<path id="icon" d="M3 8.25C2.53125 8.28125 2.28125 8.53125 2.25 9V27C2.28125 27.4688 2.53125 27.7188 3 27.75H13.3125C13.9062 28.625 14.625 29.3594 15.4688 29.9531C15.3125 29.9844 15.1562 30 15 30H3C2.15625 29.9688 1.45312 29.6719 0.890625 29.1094C0.328125 28.5469 0.03125 27.8438 0 27V9C0.03125 8.15625 0.328125 7.45312 0.890625 6.89062C1.45312 6.32812 2.15625 6.03125 3 6H15C15.8438 6.03125 16.5469 6.32812 17.1094 6.89062C17.6719 7.45312 17.9688 8.15625 18 9V15.3281C17.1875 15.5469 16.4375 15.8906 15.75 16.3594V9C15.7188 8.53125 15.4688 8.28125 15 8.25H3ZM5.625 12H12.375C13.0625 12.0625 13.4375 12.4375 13.5 13.125C13.4375 13.8125 13.0625 14.1875 12.375 14.25H5.625C4.9375 14.1875 4.5625 13.8125 4.5 13.125C4.5625 12.4375 4.9375 12.0625 5.625 12ZM5.625 16.5H12.375C13.0625 16.5625 13.4375 16.9375 13.5 17.625C13.4375 18.3125 13.0625 18.6875 12.375 18.75H5.625C4.9375 18.6875 4.5625 18.3125 4.5 17.625C4.5625 16.9375 4.9375 16.5625 5.625 16.5ZM5.625 21H7.875C8.5625 21.0625 8.9375 21.4375 9 22.125C8.9375 22.8125 8.5625 23.1875 7.875 23.25H5.625C4.9375 23.1875 4.5625 22.8125 4.5 22.125C4.5625 21.4375 4.9375 21.0625 5.625 21ZM27 23.25C27 24.4688 26.7031 25.5938 26.1094 26.625C25.5156 27.6562 24.6875 28.4844 23.625 29.1094C22.5625 29.7031 21.4375 30 20.25 30C19.0625 30 17.9375 29.7031 16.875 29.1094C15.8125 28.4844 14.9844 27.6562 14.3906 26.625C13.7969 25.5938 13.5 24.4688 13.5 23.25C13.5 22.0312 13.7969 20.9062 14.3906 19.875C14.9844 18.8438 15.8125 18.0156 16.875 17.3906C17.9375 16.7969 19.0625 16.5 20.25 16.5C21.4375 16.5 22.5625 16.7969 23.625 17.3906C24.6875 18.0156 25.5156 18.8438 26.1094 19.875C26.7031 20.9062 27 22.0312 27 23.25ZM23.3906 21.2344C23.0469 20.9219 22.7031 20.9219 22.3594 21.2344L19.5 24.0469L18.1406 22.7344C17.7969 22.4219 17.4531 22.4219 17.1094 22.7344C16.7969 23.0781 16.7969 23.4219 17.1094 23.7656L18.9844 25.6406C19.3281 25.9531 19.6719 25.9531 20.0156 25.6406L23.3906 22.2656C23.7031 21.9219 23.7031 21.5781 23.3906 21.2344Z" fill="black" fill-opacity="0.72"/>
</g>
<defs>
<clipPath id="clip0_1731_6545">
<rect width="27" height="36" fill="white"/>
</clipPath>
</defs>
</svg>
