<svg width="14" height="24" viewBox="0 0 14 24" fill="none" xmlns="http://www.w3.org/2000/svg">
<g id="label-paired / md / user-md / bold" clip-path="url(#clip0_1731_4271)">
<path id="icon" d="M9.5 8C9.47917 7.0625 9.0625 6.34375 8.25 5.84375C7.41667 5.38542 6.58333 5.38542 5.75 5.84375C4.9375 6.34375 4.52083 7.0625 4.5 8C4.52083 8.9375 4.9375 9.65625 5.75 10.1562C6.58333 10.6146 7.41667 10.6146 8.25 10.1562C9.0625 9.65625 9.47917 8.9375 9.5 8ZM3 8C3 7.27083 3.17708 6.60417 3.53125 6C3.88542 5.39583 4.375 4.90625 5 4.53125C5.625 4.17708 6.29167 4 7 4C7.70833 4 8.375 4.17708 9 4.53125C9.625 4.90625 10.1146 5.39583 10.4688 6C10.8229 6.60417 11 7.27083 11 8C11 8.72917 10.8229 9.39583 10.4688 10C10.1146 10.6042 9.625 11.0938 9 11.4688C8.375 11.8229 7.70833 12 7 12C6.29167 12 5.625 11.8229 5 11.4688C4.375 11.0938 3.88542 10.6042 3.53125 10C3.17708 9.39583 3 8.72917 3 8ZM1.53125 18.5H12.4688C12.3021 17.4792 11.8542 16.6458 11.125 16C10.375 15.3542 9.47917 15.0208 8.4375 15H5.5625C4.52083 15.0208 3.63542 15.3542 2.90625 16C2.15625 16.6458 1.69792 17.4792 1.53125 18.5ZM0 19.0625C0.0416667 17.5 0.583333 16.1875 1.625 15.125C2.6875 14.0833 4 13.5417 5.5625 13.5H8.4375C10 13.5417 11.3125 14.0833 12.375 15.125C13.4167 16.1875 13.9583 17.5 14 19.0625C14 19.3333 13.9062 19.5521 13.7188 19.7188C13.5521 19.9062 13.3333 20 13.0625 20H0.9375C0.666667 20 0.447917 19.9062 0.28125 19.7188C0.09375 19.5521 0 19.3333 0 19.0625Z" fill="black" fill-opacity="0.72"/>
</g>
<defs>
<clipPath id="clip0_1731_4271">
<rect width="14" height="24" fill="white"/>
</clipPath>
</defs>
</svg>
