<svg width="16" height="24" viewBox="0 0 16 24" fill="none" xmlns="http://www.w3.org/2000/svg">
<g id="label-paired / md / backward-md / fill" clip-path="url(#clip0_1731_4063)">
<path id="icon" d="M14.375 17.7812L9 13.3125V12V10.6875L14.375 6.21875C14.6875 5.96875 15.0417 5.92708 15.4375 6.09375C15.7917 6.28125 15.9792 6.58333 16 7V17C15.9792 17.4167 15.7917 17.7188 15.4375 17.9062C15.0417 18.0729 14.6875 18.0312 14.375 17.7812ZM8 15V17C7.97917 17.4167 7.79167 17.7188 7.4375 17.9062C7.04167 18.0729 6.6875 18.0312 6.375 17.7812L0.375 12.7812C0.125 12.5729 0 12.3125 0 12C0 11.6875 0.125 11.4271 0.375 11.2188L6.375 6.21875C6.6875 5.96875 7.04167 5.92708 7.4375 6.09375C7.79167 6.28125 7.97917 6.58333 8 7V8V12V15Z" fill="black" fill-opacity="0.72"/>
</g>
<defs>
<clipPath id="clip0_1731_4063">
<rect width="16" height="24" fill="white"/>
</clipPath>
</defs>
</svg>
