<svg width="24" height="36" viewBox="0 0 24 36" fill="none" xmlns="http://www.w3.org/2000/svg">
<g id="label-paired / xl / grid-2-xl / bold" clip-path="url(#clip0_1923_547)">
<path id="icon" d="M3.75 9.75V14.25H8.25V9.75H3.75ZM1.5 9.75C1.53125 9.125 1.75 8.59375 2.15625 8.15625C2.59375 7.75 3.125 7.53125 3.75 7.5H8.25C8.875 7.53125 9.40625 7.75 9.84375 8.15625C10.25 8.59375 10.4688 9.125 10.5 9.75V14.25C10.4688 14.875 10.25 15.4062 9.84375 15.8438C9.40625 16.25 8.875 16.4688 8.25 16.5H3.75C3.125 16.4688 2.59375 16.25 2.15625 15.8438C1.75 15.4062 1.53125 14.875 1.5 14.25V9.75ZM3.75 21.75V26.25H8.25V21.75H3.75ZM1.5 21.75C1.53125 21.125 1.75 20.5938 2.15625 20.1562C2.59375 19.75 3.125 19.5312 3.75 19.5H8.25C8.875 19.5312 9.40625 19.75 9.84375 20.1562C10.25 20.5938 10.4688 21.125 10.5 21.75V26.25C10.4688 26.875 10.25 27.4062 9.84375 27.8438C9.40625 28.25 8.875 28.4688 8.25 28.5H3.75C3.125 28.4688 2.59375 28.25 2.15625 27.8438C1.75 27.4062 1.53125 26.875 1.5 26.25V21.75ZM20.25 9.75H15.75V14.25H20.25V9.75ZM15.75 7.5H20.25C20.875 7.53125 21.4062 7.75 21.8438 8.15625C22.25 8.59375 22.4688 9.125 22.5 9.75V14.25C22.4688 14.875 22.25 15.4062 21.8438 15.8438C21.4062 16.25 20.875 16.4688 20.25 16.5H15.75C15.125 16.4688 14.5938 16.25 14.1562 15.8438C13.75 15.4062 13.5312 14.875 13.5 14.25V9.75C13.5312 9.125 13.75 8.59375 14.1562 8.15625C14.5938 7.75 15.125 7.53125 15.75 7.5ZM15.75 21.75V26.25H20.25V21.75H15.75ZM13.5 21.75C13.5312 21.125 13.75 20.5938 14.1562 20.1562C14.5938 19.75 15.125 19.5312 15.75 19.5H20.25C20.875 19.5312 21.4062 19.75 21.8438 20.1562C22.25 20.5938 22.4688 21.125 22.5 21.75V26.25C22.4688 26.875 22.25 27.4062 21.8438 27.8438C21.4062 28.25 20.875 28.4688 20.25 28.5H15.75C15.125 28.4688 14.5938 28.25 14.1562 27.8438C13.75 27.4062 13.5312 26.875 13.5 26.25V21.75Z" fill="black" fill-opacity="0.72"/>
</g>
<defs>
<clipPath id="clip0_1923_547">
<rect width="24" height="36" fill="white"/>
</clipPath>
</defs>
</svg>
