<svg width="25" height="30" viewBox="0 0 25 30" fill="none" xmlns="http://www.w3.org/2000/svg">
<g id="label-paired / lg / box-archive-circle-arrow-up-lg / regular" clip-path="url(#clip0_1731_5444)">
<path id="icon" d="M0 8C0 7.33594 0.546875 6.75 1.25 6.75C7.07031 6.75 12.8906 6.75 18.75 6.75C19.4141 6.75 20 7.33594 20 8C20 8.85938 20 9.67969 20 10.5C20 11.2031 19.4141 11.75 18.75 11.75C18.3203 11.75 17.8906 11.75 17.5 11.75C12.5 11.75 7.5 11.75 2.5 11.75C2.07031 11.75 1.64062 11.75 1.25 11.75C0.546875 11.75 0 11.2031 0 10.5C0 9.67969 0 8.85938 0 8ZM1.25 8C1.25 8.85938 1.25 9.67969 1.25 10.5C1.64062 10.5 2.07031 10.5 2.5 10.5C7.5 10.5 12.5 10.5 17.5 10.5C17.8906 10.5 18.3203 10.5 18.75 10.5C18.75 9.67969 18.75 8.85938 18.75 8H1.25ZM1.25 13H2.5C2.5 15.9297 2.5 18.8594 2.5 21.75C2.5 22.4531 3.04688 23 3.75 23C6.91406 23 10.0781 23 13.2422 23C13.4766 23.4688 13.75 23.8984 14.0625 24.25C10.625 24.25 7.1875 24.25 3.75 24.25C2.34375 24.25 1.25 23.1562 1.25 21.75C1.25 18.8594 1.25 15.9297 1.25 13ZM6.25 14.875C6.25 14.5625 6.52344 14.25 6.875 14.25C8.94531 14.25 11.0156 14.25 13.125 14.25C13.4375 14.25 13.75 14.5625 13.75 14.875C13.75 15.2266 13.4375 15.5 13.125 15.5C11.0156 15.5 8.94531 15.5 6.875 15.5C6.52344 15.5 6.25 15.2266 6.25 14.875ZM14.4922 17.0625C15.5078 15.3438 17.3438 14.25 19.375 14.25C21.3672 14.25 23.2422 15.3438 24.2188 17.0625C25.2344 18.8203 25.2344 20.9688 24.2188 22.6875C23.2422 24.4453 21.3672 25.5 19.375 25.5C17.3438 25.5 15.5078 24.4453 14.4922 22.6875C13.4766 20.9688 13.4766 18.8203 14.4922 17.0625ZM15.5859 17.6875C14.8047 19.0547 14.8047 20.7344 15.5859 22.0625C16.3672 23.4297 17.8125 24.25 19.375 24.25C20.9375 24.25 22.3828 23.4297 23.1641 22.0625C23.9453 20.7344 23.9453 19.0547 23.1641 17.6875C22.3828 16.3594 20.9375 15.5 19.375 15.5C17.8125 15.5 16.3672 16.3594 15.5859 17.6875ZM16.7188 19.1328L18.9062 16.9453C19.1406 16.7109 19.5703 16.7109 19.8047 16.9453C20.5469 17.6875 21.25 18.3906 21.9922 19.1328C22.2266 19.3672 22.2266 19.7969 21.9922 20.0312C21.7578 20.2656 21.3281 20.2656 21.0938 20.0312C20.7422 19.6406 20.3516 19.2891 20 18.8984C20 20.0703 20 21.2422 20 22.375C20 22.7266 19.6875 23 19.375 23C19.0234 23 18.75 22.7266 18.75 22.375C18.75 21.2422 18.75 20.0703 18.75 18.8984C18.3594 19.2891 17.9688 19.6406 17.6172 20.0312C17.3828 20.2656 16.9531 20.2656 16.7188 20.0312C16.4844 19.7969 16.4844 19.3672 16.7188 19.1328ZM17.5 13H18.75C18.75 13.0391 18.75 13.0391 18.75 13.0391C18.3203 13.0781 17.8906 13.1562 17.5 13.2734C17.5 13.1953 17.5 13.1172 17.5 13Z" fill="black" fill-opacity="0.72"/>
</g>
<defs>
<clipPath id="clip0_1731_5444">
<rect width="25" height="30" fill="white"/>
</clipPath>
</defs>
</svg>
