<svg width="15" height="30" viewBox="0 0 15 30" fill="none" xmlns="http://www.w3.org/2000/svg">
<g id="label-paired / lg / file-circle-check-lg / bold" clip-path="url(#clip0_1731_4976)">
<path id="icon" d="M2.5 23.625H12.5C12.8906 23.599 13.099 23.3906 13.125 23V11.75H10C9.63542 11.75 9.33594 11.6328 9.10156 11.3984C8.86719 11.1641 8.75 10.8646 8.75 10.5V7.375H2.5C2.10938 7.40104 1.90104 7.60938 1.875 8V23C1.90104 23.3906 2.10938 23.599 2.5 23.625ZM2.5 5.5H8.98438C9.66146 5.5 10.2474 5.7474 10.7422 6.24219L14.2578 9.75781C14.7526 10.2526 15 10.8516 15 11.5547V23C14.974 23.7031 14.7266 24.2891 14.2578 24.7578C13.7891 25.2266 13.2031 25.474 12.5 25.5H2.5C1.79688 25.474 1.21094 25.2266 0.742188 24.7578C0.273438 24.2891 0.0260417 23.7031 0 23V8C0.0260417 7.29688 0.273438 6.71094 0.742188 6.24219C1.21094 5.77344 1.79688 5.52604 2.5 5.5ZM11.2891 15.9688L7.10938 20.1094C6.92708 20.2917 6.70573 20.3828 6.44531 20.3828C6.1849 20.3828 5.96354 20.2917 5.78125 20.1094L3.71094 18.0391C3.34635 17.5964 3.34635 17.1536 3.71094 16.7109C4.15365 16.3464 4.59635 16.3464 5.03906 16.7109L6.44531 18.1172L9.96094 14.6406C10.4036 14.276 10.8464 14.276 11.2891 14.6406C11.6536 15.0833 11.6536 15.526 11.2891 15.9688Z" fill="black" fill-opacity="0.72"/>
</g>
<defs>
<clipPath id="clip0_1731_4976">
<rect width="15" height="30" fill="white"/>
</clipPath>
</defs>
</svg>
