<svg width="18" height="36" viewBox="0 0 18 36" fill="none" xmlns="http://www.w3.org/2000/svg">
<g id="label-paired / xl / arrow-down-to-line-xl / regular" clip-path="url(#clip0_1731_5951)">
<path id="icon" d="M0.75 28.5C0.28125 28.4688 0.03125 28.2188 0 27.75C0.03125 27.2812 0.28125 27.0312 0.75 27H17.25C17.7188 27.0312 17.9688 27.2812 18 27.75C17.9688 28.2188 17.7188 28.4688 17.25 28.5H0.75ZM9.51562 23.7656C9.17188 24.0781 8.82812 24.0781 8.48438 23.7656L2.48438 17.7656C2.17188 17.4219 2.17188 17.0781 2.48438 16.7344C2.82812 16.4219 3.17188 16.4219 3.51562 16.7344L8.25 21.4219V16.5V8.25C8.28125 7.78125 8.53125 7.53125 9 7.5C9.46875 7.53125 9.71875 7.78125 9.75 8.25V16.5V21.4219L14.4844 16.7344C14.8281 16.4219 15.1719 16.4219 15.5156 16.7344C15.8281 17.0781 15.8281 17.4219 15.5156 17.7656L9.51562 23.7656Z" fill="black" fill-opacity="0.72"/>
</g>
<defs>
<clipPath id="clip0_1731_5951">
<rect width="18" height="36" fill="white"/>
</clipPath>
</defs>
</svg>
