<svg width="15" height="18" viewBox="0 0 15 18" fill="none" xmlns="http://www.w3.org/2000/svg">
<g id="label-paired / caption / users-caption / regular" clip-path="url(#clip0_1731_1758)">
<path id="icon" d="M2.25 5.375C2.26562 5.79688 2.45312 6.125 2.8125 6.35938C3.1875 6.54688 3.5625 6.54688 3.9375 6.35938C4.29688 6.125 4.48438 5.79688 4.5 5.375C4.48438 4.95312 4.29688 4.625 3.9375 4.39062C3.5625 4.20312 3.1875 4.20312 2.8125 4.39062C2.45312 4.625 2.26562 4.95312 2.25 5.375ZM5.25 5.375C5.23438 6.07812 4.92188 6.61719 4.3125 6.99219C3.6875 7.33594 3.0625 7.33594 2.4375 6.99219C1.82812 6.61719 1.51562 6.07812 1.5 5.375C1.51562 4.67188 1.82812 4.13281 2.4375 3.75781C3.0625 3.41406 3.6875 3.41406 4.3125 3.75781C4.92188 4.13281 5.23438 4.67188 5.25 5.375ZM7.5 7.25C6.9375 7.26562 6.50781 7.51562 6.21094 8C5.92969 8.5 5.92969 9 6.21094 9.5C6.50781 9.98438 6.9375 10.2344 7.5 10.25C8.0625 10.2344 8.49219 9.98438 8.78906 9.5C9.07031 9 9.07031 8.5 8.78906 8C8.49219 7.51562 8.0625 7.26562 7.5 7.25ZM7.5 11C7.09375 11 6.71875 10.8984 6.375 10.6953C6.03125 10.4922 5.75781 10.2188 5.55469 9.875C5.35156 9.51562 5.25 9.14062 5.25 8.75C5.25 8.35938 5.35156 7.98438 5.55469 7.625C5.75781 7.28125 6.03125 7.00781 6.375 6.80469C6.71875 6.60156 7.09375 6.5 7.5 6.5C7.90625 6.5 8.28125 6.60156 8.625 6.80469C8.96875 7.00781 9.24219 7.28125 9.44531 7.625C9.64844 7.98438 9.75 8.35938 9.75 8.75C9.75 9.14062 9.64844 9.51562 9.44531 9.875C9.24219 10.2188 8.96875 10.4922 8.625 10.6953C8.28125 10.8984 7.90625 11 7.5 11ZM6.11719 12.5C5.47656 12.5156 4.92969 12.7344 4.47656 13.1562C4.03906 13.5781 3.79688 14.1094 3.75 14.75H11.25C11.2031 14.1094 10.9609 13.5781 10.5234 13.1562C10.0703 12.7344 9.52344 12.5156 8.88281 12.5H6.11719ZM6.11719 11.75H8.88281C9.75781 11.7656 10.4922 12.0703 11.0859 12.6641C11.6797 13.2578 11.9844 13.9922 12 14.8672C11.9688 15.2578 11.7578 15.4688 11.3672 15.5H3.63281C3.24219 15.4688 3.03125 15.2578 3 14.8672C3.01562 13.9922 3.32031 13.2578 3.91406 12.6641C4.50781 12.0703 5.24219 11.7656 6.11719 11.75ZM12 4.25C11.5781 4.26562 11.25 4.45312 11.0156 4.8125C10.8281 5.1875 10.8281 5.5625 11.0156 5.9375C11.25 6.29688 11.5781 6.48438 12 6.5C12.4219 6.48438 12.75 6.29688 12.9844 5.9375C13.1719 5.5625 13.1719 5.1875 12.9844 4.8125C12.75 4.45312 12.4219 4.26562 12 4.25ZM12 7.25C11.2969 7.23438 10.7578 6.92188 10.3828 6.3125C10.0391 5.6875 10.0391 5.0625 10.3828 4.4375C10.7578 3.82812 11.2969 3.51563 12 3.5C12.7031 3.51563 13.2422 3.82812 13.6172 4.4375C13.9609 5.0625 13.9609 5.6875 13.6172 6.3125C13.2422 6.92188 12.7031 7.23438 12 7.25ZM12.375 8.75H10.5C10.5 8.48438 10.4688 8.23438 10.4062 8H12.375C13.125 8.01562 13.7422 8.27344 14.2266 8.77344C14.7266 9.25781 14.9844 9.875 15 10.625C14.9844 10.8594 14.8594 10.9844 14.625 11C14.3906 10.9844 14.2656 10.8594 14.25 10.625C14.2344 10.0938 14.0547 9.64844 13.7109 9.28906C13.3516 8.94531 12.9062 8.76562 12.375 8.75ZM4.5 8.75H2.625C2.09375 8.76562 1.64844 8.94531 1.28906 9.28906C0.945312 9.64844 0.765625 10.0938 0.75 10.625C0.734375 10.8594 0.609375 10.9844 0.375 11C0.140625 10.9844 0.015625 10.8594 0 10.625C0.015625 9.875 0.273438 9.25781 0.773438 8.77344C1.25781 8.27344 1.875 8.01562 2.625 8H4.59375C4.53125 8.23438 4.5 8.48438 4.5 8.75Z" fill="black" fill-opacity="0.72"/>
</g>
<defs>
<clipPath id="clip0_1731_1758">
<rect width="15" height="18" fill="white"/>
</clipPath>
</defs>
</svg>
