<svg width="14" height="22" viewBox="0 0 14 22" fill="none" xmlns="http://www.w3.org/2000/svg">
<g id="label-paired / sm / shield-check-sm / bold" clip-path="url(#clip0_1731_2855)">
<path id="icon" d="M1.99609 7.22266C1.83203 7.3138 1.75 7.43229 1.75 7.57812C1.75 8.4349 1.89583 9.41927 2.1875 10.5312C2.47917 11.625 2.98958 12.7005 3.71875 13.7578C4.46615 14.7969 5.50521 15.6536 6.83594 16.3281C6.94531 16.3646 7.05469 16.3646 7.16406 16.3281C8.49479 15.6536 9.53385 14.7969 10.2812 13.7578C11.0104 12.7005 11.5208 11.625 11.8125 10.5312C12.1042 9.41927 12.25 8.4349 12.25 7.57812C12.25 7.43229 12.168 7.3138 12.0039 7.22266L7 5.08984L1.99609 7.22266ZM12.5234 6.01953C12.8333 6.14714 13.0794 6.34766 13.2617 6.62109C13.4622 6.89453 13.5625 7.21354 13.5625 7.57812C13.5807 8.50781 13.4258 9.60156 13.0977 10.8594C12.7695 12.1172 12.1771 13.3385 11.3203 14.5234C10.4818 15.7266 9.27865 16.7201 7.71094 17.5039C7.23698 17.7227 6.76302 17.7227 6.28906 17.5039C4.72135 16.7201 3.51823 15.7266 2.67969 14.5234C1.82292 13.3385 1.23047 12.1172 0.902344 10.8594C0.574219 9.60156 0.419271 8.50781 0.4375 7.57812C0.4375 7.21354 0.53776 6.89453 0.738281 6.62109C0.920573 6.34766 1.16667 6.14714 1.47656 6.01953L6.64453 3.83203C6.75391 3.77734 6.8724 3.75 7 3.75C7.1276 3.75 7.24609 3.77734 7.35547 3.83203L12.5234 6.01953ZM8.53125 9.4375C8.49479 10.0755 8.20312 10.5404 7.65625 10.832V12.7188C7.61979 13.1198 7.40104 13.3385 7 13.375C6.59896 13.3385 6.38021 13.1198 6.34375 12.7188V10.832C5.79688 10.5404 5.50521 10.0755 5.46875 9.4375C5.48698 9 5.63281 8.63542 5.90625 8.34375C6.19792 8.07031 6.5625 7.92448 7 7.90625C7.4375 7.92448 7.80208 8.07031 8.09375 8.34375C8.36719 8.63542 8.51302 9 8.53125 9.4375Z" fill="black" fill-opacity="0.72"/>
</g>
<defs>
<clipPath id="clip0_1731_2855">
<rect width="14" height="22" fill="white"/>
</clipPath>
</defs>
</svg>
