<svg width="10" height="24" viewBox="0 0 10 24" fill="none" xmlns="http://www.w3.org/2000/svg">
<g id="label-paired / md / forward-step-md / regular" clip-path="url(#clip0_1731_4066)">
<path id="icon" d="M8 6.5C8.02083 6.1875 8.1875 6.02083 8.5 6C8.8125 6.02083 8.97917 6.1875 9 6.5V11.5625V12.4375V17.5C8.97917 17.8125 8.8125 17.9792 8.5 18C8.1875 17.9792 8.02083 17.8125 8 17.5V13.25L2.40625 17.8125C2.26042 17.9375 2.08333 18 1.875 18C1.625 18 1.41667 17.9167 1.25 17.75C1.08333 17.5833 1 17.375 1 17.125V6.875C1 6.625 1.08333 6.41667 1.25 6.25C1.41667 6.08333 1.625 6 1.875 6C2.08333 6 2.26042 6.0625 2.40625 6.1875L8 10.75V6.5ZM2 7.15625V16.8438L7.96875 12L2 7.15625Z" fill="black" fill-opacity="0.72"/>
</g>
<defs>
<clipPath id="clip0_1731_4066">
<rect width="10" height="24" fill="white"/>
</clipPath>
</defs>
</svg>
