<svg width="24" height="36" viewBox="0 0 24 36" fill="none" xmlns="http://www.w3.org/2000/svg">
<g id="label-paired / xl / circle-star-xl / regular" clip-path="url(#clip0_1731_5853)">
<path id="icon" d="M12 7.5C10.0938 7.53125 8.34375 8 6.75 8.90625C5.15625 9.84375 3.875 11.125 2.90625 12.75C1.96875 14.4062 1.5 16.1562 1.5 18C1.5 19.8438 1.96875 21.5938 2.90625 23.25C3.875 24.875 5.15625 26.1562 6.75 27.0938C8.34375 28 10.0938 28.4688 12 28.5C13.9062 28.4688 15.6562 28 17.25 27.0938C18.8438 26.1562 20.125 24.875 21.0938 23.25C22.0312 21.5938 22.5 19.8438 22.5 18C22.5 16.1562 22.0312 14.4062 21.0938 12.75C20.125 11.125 18.8438 9.84375 17.25 8.90625C15.6562 8 13.9062 7.53125 12 7.5ZM12 30C9.8125 29.9688 7.8125 29.4375 6 28.4062C4.1875 27.3438 2.71875 25.875 1.59375 24C0.53125 22.0938 0 20.0938 0 18C0 15.9062 0.53125 13.9062 1.59375 12C2.71875 10.125 4.1875 8.65625 6 7.59375C7.8125 6.5625 9.8125 6.03125 12 6C14.1875 6.03125 16.1875 6.5625 18 7.59375C19.8125 8.65625 21.2812 10.125 22.4062 12C23.4688 13.9062 24 15.9062 24 18C24 20.0938 23.4688 22.0938 22.4062 24C21.2812 25.875 19.8125 27.3438 18 28.4062C16.1875 29.4375 14.1875 29.9688 12 30ZM12.6562 11.2969L14.3906 14.7188L18.1875 15.2812C18.4688 15.3438 18.6719 15.5156 18.7969 15.7969C18.8594 16.0781 18.7969 16.3438 18.6094 16.5938L15.8438 19.2656L16.5 23.0156C16.5312 23.3281 16.4219 23.5781 16.1719 23.7656C15.9219 23.9219 15.6719 23.9375 15.4219 23.8125L12 22.0312L8.625 23.8125C8.34375 23.9375 8.07812 23.9219 7.82812 23.7656C7.57812 23.5781 7.46875 23.3281 7.5 23.0156L8.15625 19.2656L5.4375 16.5469C5.21875 16.3281 5.15625 16.0781 5.25 15.7969C5.34375 15.5156 5.53125 15.3438 5.8125 15.2812L9.60938 14.7188L11.3438 11.2969C11.4688 11.0156 11.6875 10.875 12 10.875C12.3125 10.875 12.5312 11.0156 12.6562 11.2969ZM10.7812 15.75C10.6562 15.9688 10.4688 16.1094 10.2188 16.1719L7.54688 16.5469L9.46875 18.4688C9.65625 18.6562 9.73438 18.875 9.70312 19.125L9.23438 21.7969L11.625 20.5312C11.875 20.4062 12.1094 20.4062 12.3281 20.5312L14.7656 21.7969L14.2969 19.125C14.2656 18.875 14.3281 18.6562 14.4844 18.4688L16.4531 16.5469L13.7812 16.1719C13.5 16.1094 13.3125 15.9688 13.2188 15.75L12 13.3125L10.7812 15.75Z" fill="black" fill-opacity="0.72"/>
</g>
<defs>
<clipPath id="clip0_1731_5853">
<rect width="24" height="36" fill="white"/>
</clipPath>
</defs>
</svg>
