<svg width="10" height="24" viewBox="0 0 10 24" fill="none" xmlns="http://www.w3.org/2000/svg">
<g id="label-paired / md / nine-md / regular" clip-path="url(#clip0_1731_3551)">
<path id="icon" d="M1 10C1.02083 11.125 1.40625 12.0729 2.15625 12.8438C2.92708 13.5938 3.875 13.9792 5 14C6.125 13.9792 7.0625 13.6042 7.8125 12.875C8.54167 12.125 8.9375 11.1979 9 10.0938C9 10.0729 9 10.0625 9 10.0625C9 10.0417 9 10.0208 9 10C8.97917 8.875 8.59375 7.92708 7.84375 7.15625C7.07292 6.40625 6.125 6.02083 5 6C3.875 6.02083 2.92708 6.40625 2.15625 7.15625C1.40625 7.92708 1.02083 8.875 1 10ZM6.03125 14.9062C5.69792 14.9688 5.35417 15 5 15C3.58333 14.9583 2.40625 14.4688 1.46875 13.5312C0.53125 12.5938 0.0416667 11.4167 0 10C0.0416667 8.58333 0.53125 7.40625 1.46875 6.46875C2.40625 5.53125 3.58333 5.04167 5 5C6.41667 5.04167 7.59375 5.53125 8.53125 6.46875C9.46875 7.40625 9.95833 8.58333 10 10C10 10.0625 10 10.125 10 10.1875C9.9375 11.3958 9.51042 12.4688 8.71875 13.4062L3.875 18.8438C3.64583 19.0521 3.40625 19.0625 3.15625 18.875C2.94792 18.6458 2.9375 18.4062 3.125 18.1562L6.03125 14.9062Z" fill="black" fill-opacity="0.72"/>
</g>
<defs>
<clipPath id="clip0_1731_3551">
<rect width="10" height="24" fill="white"/>
</clipPath>
</defs>
</svg>
