<svg width="11" height="22" viewBox="0 0 11 22" fill="none" xmlns="http://www.w3.org/2000/svg">
<g id="label-paired / sm / microphone-sm / regular" clip-path="url(#clip0_1731_2827)">
<path id="icon" d="M7.25 6.375C7.23177 5.88281 7.05859 5.47266 6.73047 5.14453C6.40234 4.81641 5.99219 4.64323 5.5 4.625C5.00781 4.64323 4.59766 4.81641 4.26953 5.14453C3.94141 5.47266 3.76823 5.88281 3.75 6.375V10.75C3.76823 11.2422 3.94141 11.6523 4.26953 11.9805C4.59766 12.3086 5.00781 12.4818 5.5 12.5C5.99219 12.4818 6.40234 12.3086 6.73047 11.9805C7.05859 11.6523 7.23177 11.2422 7.25 10.75V6.375ZM2.875 6.375C2.89323 5.6276 3.14844 5.00781 3.64062 4.51562C4.13281 4.02344 4.7526 3.76823 5.5 3.75C6.2474 3.76823 6.86719 4.02344 7.35938 4.51562C7.85156 5.00781 8.10677 5.6276 8.125 6.375V10.75C8.10677 11.4974 7.85156 12.1172 7.35938 12.6094C6.86719 13.1016 6.2474 13.3568 5.5 13.375C4.7526 13.3568 4.13281 13.1016 3.64062 12.6094C3.14844 12.1172 2.89323 11.4974 2.875 10.75V6.375ZM2 9.4375V10.75C2.01823 11.7344 2.35547 12.5638 3.01172 13.2383C3.6862 13.8945 4.51562 14.2318 5.5 14.25C6.48438 14.2318 7.3138 13.8945 7.98828 13.2383C8.64453 12.5638 8.98177 11.7344 9 10.75V9.4375C9.01823 9.16406 9.16406 9.01823 9.4375 9C9.71094 9.01823 9.85677 9.16406 9.875 9.4375V10.75C9.85677 11.9167 9.47396 12.901 8.72656 13.7031C7.9974 14.5052 7.06771 14.9701 5.9375 15.0977V16.875H7.6875C7.96094 16.8932 8.10677 17.0391 8.125 17.3125C8.10677 17.5859 7.96094 17.7318 7.6875 17.75H5.5H3.3125C3.03906 17.7318 2.89323 17.5859 2.875 17.3125C2.89323 17.0391 3.03906 16.8932 3.3125 16.875H5.0625V15.0977C3.93229 14.9701 3.0026 14.5052 2.27344 13.7031C1.52604 12.901 1.14323 11.9167 1.125 10.75V9.4375C1.14323 9.16406 1.28906 9.01823 1.5625 9C1.83594 9.01823 1.98177 9.16406 2 9.4375Z" fill="black" fill-opacity="0.72"/>
</g>
<defs>
<clipPath id="clip0_1731_2827">
<rect width="11" height="22" fill="white"/>
</clipPath>
</defs>
</svg>
