<svg width="20" height="24" viewBox="0 0 20 24" fill="none" xmlns="http://www.w3.org/2000/svg">
<g id="label-paired / md / bell-slash-md / regular" clip-path="url(#clip0_1731_3804)">
<path id="icon" d="M11.8438 16L13.0938 17H4.375C3.97917 17 3.65625 16.8646 3.40625 16.5938C3.13542 16.3438 3 16.0208 3 15.625C3 15.25 3.13542 14.9167 3.40625 14.625L3.5 14.5625C4.47917 13.5417 4.97917 12.3229 5 10.9062V10.5938L6 11.375C5.85417 12.875 5.25 14.1667 4.1875 15.25L4.125 15.3438C4.04167 15.4271 4 15.5208 4 15.625C4.02083 15.8542 4.14583 15.9792 4.375 16H11.8438ZM9.5 5.03125V4.5C9.52083 4.1875 9.6875 4.02083 10 4C10.3125 4.02083 10.4792 4.1875 10.5 4.5V5.03125C11.7917 5.17708 12.8542 5.70833 13.6875 6.625C14.5417 7.54167 14.9792 8.66667 15 10V10.9062C15.0208 12.3229 15.5208 13.5417 16.5 14.5625L16.5938 14.625C16.6146 14.6667 16.6354 14.6979 16.6562 14.7188L14.3125 12.875C14.1042 12.2292 14 11.5729 14 10.9062V10C13.9792 8.875 13.5938 7.92708 12.8438 7.15625C12.0729 6.40625 11.125 6.02083 10 6C8.85417 6.02083 7.90625 6.41667 7.15625 7.1875L6.34375 6.5625C7.17708 5.6875 8.22917 5.17708 9.5 5.03125ZM9.0625 18.3438C9.22917 18.7604 9.54167 18.9792 10 19C10.4583 18.9792 10.7708 18.7604 10.9375 18.3438C11.0625 18.0521 11.2812 17.9479 11.5938 18.0312C11.8646 18.1562 11.9583 18.3646 11.875 18.6562C11.7292 19.0521 11.4896 19.375 11.1562 19.625C10.8229 19.875 10.4375 20 10 20C9.5625 20 9.17708 19.875 8.84375 19.625C8.51042 19.375 8.27083 19.0521 8.125 18.6562C8.04167 18.3646 8.13542 18.1562 8.40625 18.0312C8.71875 17.9479 8.9375 18.0521 9.0625 18.3438ZM0.8125 4.09375L19.8125 19.125C20.0417 19.3333 20.0729 19.5625 19.9062 19.8125C19.6771 20.0417 19.4375 20.0729 19.1875 19.9062L0.1875 4.90625C-0.0416667 4.67708 -0.0729167 4.4375 0.09375 4.1875C0.322917 3.97917 0.5625 3.94792 0.8125 4.09375Z" fill="black" fill-opacity="0.72"/>
</g>
<defs>
<clipPath id="clip0_1731_3804">
<rect width="20" height="24" fill="white"/>
</clipPath>
</defs>
</svg>
