<svg width="14" height="22" viewBox="0 0 14 22" fill="none" xmlns="http://www.w3.org/2000/svg">
<g id="label-paired / sm / at-sm / bold" clip-path="url(#clip0_1731_2618)">
<path id="icon" d="M7 5.0625C5.39583 5.09896 4.05599 5.65495 2.98047 6.73047C1.90495 7.80599 1.34896 9.14583 1.3125 10.75C1.34896 12.3542 1.90495 13.694 2.98047 14.7695C4.05599 15.8451 5.39583 16.401 7 16.4375C7.40104 16.474 7.61979 16.6927 7.65625 17.0938C7.61979 17.4948 7.40104 17.7135 7 17.75C5.6875 17.7318 4.51172 17.4128 3.47266 16.793C2.41536 16.1732 1.57682 15.3346 0.957031 14.2773C0.33724 13.2383 0.0182292 12.0625 0 10.75C0.0182292 9.4375 0.33724 8.26172 0.957031 7.22266C1.57682 6.16536 2.41536 5.32682 3.47266 4.70703C4.51172 4.08724 5.6875 3.76823 7 3.75C8.3125 3.76823 9.48828 4.08724 10.5273 4.70703C11.5846 5.32682 12.4232 6.16536 13.043 7.22266C13.6628 8.26172 13.9818 9.4375 14 10.75V11.5156C13.9818 12.2266 13.7357 12.819 13.2617 13.293C12.7878 13.7669 12.1953 14.013 11.4844 14.0312C10.5911 13.9948 9.90755 13.6393 9.43359 12.9648C8.79557 13.6393 7.98438 13.9948 7 14.0312C6.07031 14.013 5.29557 13.694 4.67578 13.0742C4.05599 12.4544 3.73698 11.6797 3.71875 10.75C3.73698 9.82031 4.05599 9.04557 4.67578 8.42578C5.29557 7.80599 6.07031 7.48698 7 7.46875C7.80208 7.48698 8.49479 7.73307 9.07812 8.20703C9.20573 8.02474 9.38802 7.92448 9.625 7.90625C10.026 7.94271 10.2448 8.16146 10.2812 8.5625V10.75V11.5156C10.2812 11.862 10.3997 12.1445 10.6367 12.3633C10.8555 12.6003 11.138 12.7188 11.4844 12.7188C11.8307 12.7188 12.1133 12.6003 12.332 12.3633C12.569 12.1445 12.6875 11.862 12.6875 11.5156V10.75C12.651 9.14583 12.0951 7.80599 11.0195 6.73047C9.94401 5.65495 8.60417 5.09896 7 5.0625ZM8.96875 10.75C8.95052 10.0026 8.6224 9.4375 7.98438 9.05469C7.32812 8.6901 6.67188 8.6901 6.01562 9.05469C5.3776 9.4375 5.04948 10.0026 5.03125 10.75C5.04948 11.4974 5.3776 12.0625 6.01562 12.4453C6.67188 12.8099 7.32812 12.8099 7.98438 12.4453C8.6224 12.0625 8.95052 11.4974 8.96875 10.75Z" fill="black" fill-opacity="0.72"/>
</g>
<defs>
<clipPath id="clip0_1731_2618">
<rect width="14" height="22" fill="white"/>
</clipPath>
</defs>
</svg>
