<svg width="13" height="22" viewBox="0 0 13 22" fill="none" xmlns="http://www.w3.org/2000/svg">
<g id="label-paired / sm / flag-checkered-sm / regular" clip-path="url(#clip0_1731_2683)">
<path id="icon" d="M1.25 4.1875V5.36328L3.92969 4.625C5.09635 4.33333 6.21745 4.44271 7.29297 4.95312C7.85807 5.24479 8.45964 5.38151 9.09766 5.36328C9.73568 5.34505 10.3372 5.18099 10.9023 4.87109L11.3125 4.625C11.6224 4.46094 11.9141 4.46094 12.1875 4.625C12.4609 4.77083 12.6068 5.01693 12.625 5.36328V13.1016C12.6068 13.4661 12.4336 13.7305 12.1055 13.8945L11.2578 14.25C10.5651 14.5417 9.85417 14.6784 9.125 14.6602C8.39583 14.6419 7.69401 14.4596 7.01953 14.1133C6.05339 13.6576 5.0599 13.5573 4.03906 13.8125L1.25 14.5781V17.3125C1.23177 17.5859 1.08594 17.7318 0.8125 17.75C0.539062 17.7318 0.393229 17.5859 0.375 17.3125V14.8242V14.25V5.9375V5.60938V4.1875C0.393229 3.91406 0.539062 3.76823 0.8125 3.75C1.08594 3.76823 1.23177 3.91406 1.25 4.1875ZM1.25 6.26562V7.96094L3.875 7.41406V5.55469L1.25 6.26562ZM1.25 8.86328V10.8047L3.875 10.2578V8.28906L1.25 8.86328ZM4.75 8.09766V10.0391C5.36979 9.92969 5.98958 9.96615 6.60938 10.1484L8.25 10.6133V8.69922C8.21354 8.68099 8.16797 8.66276 8.11328 8.64453L6.36328 8.15234C5.85286 8.00651 5.35156 7.98828 4.85938 8.09766H4.75ZM9.125 8.83594V10.8047C9.54427 10.8411 9.95443 10.8138 10.3555 10.7227L11.75 10.3945V8.45312L10.5742 8.72656C10.082 8.83594 9.59896 8.8724 9.125 8.83594ZM8.25 11.543C8.21354 11.5247 8.16797 11.5065 8.11328 11.4883L6.36328 10.9961C5.85286 10.8503 5.35156 10.832 4.85938 10.9414H4.75V12.8281C5.67969 12.7552 6.5638 12.9284 7.40234 13.3477C7.67578 13.4753 7.95833 13.5755 8.25 13.6484V11.543ZM9.125 13.7852C9.74479 13.8034 10.3464 13.6849 10.9297 13.4297L11.75 13.1016V11.2969L10.5742 11.5703C10.082 11.6797 9.59896 11.7161 9.125 11.6797V13.7852ZM9.125 7.96094C9.54427 7.9974 9.95443 7.97005 10.3555 7.87891L11.75 7.55078V5.39062L11.3125 5.60938C10.6198 6.01042 9.89062 6.22005 9.125 6.23828V7.96094ZM8.25 6.18359C7.77604 6.11068 7.32031 5.96484 6.88281 5.74609C6.20833 5.41797 5.4974 5.29036 4.75 5.36328V7.22266C5.36979 7.09505 5.98958 7.1224 6.60938 7.30469L8.25 7.79688V6.18359ZM1.25 11.707V13.6758L3.79297 12.9922C3.82943 12.974 3.85677 12.9648 3.875 12.9648V11.1328L1.25 11.707Z" fill="black" fill-opacity="0.72"/>
</g>
<defs>
<clipPath id="clip0_1731_2683">
<rect width="13" height="22" fill="white"/>
</clipPath>
</defs>
</svg>
