<svg width="25" height="30" viewBox="0 0 25 30" fill="none" xmlns="http://www.w3.org/2000/svg">
<g id="label-paired / lg / take-profit-lg / regular" clip-path="url(#clip0_1731_5504)">
<path id="icon" d="M8.75 11.7891V20.7344H7.03125V11.7891H3.90625V10.2656H11.8359V11.7891H8.75ZM13.5156 20.7344V10.2656H18.0078C18.9844 10.2656 19.7266 10.5781 20.2734 11.125C20.7812 11.7109 21.0547 12.4922 21.0547 13.4297C21.0547 14.4062 20.7812 15.1484 20.2734 15.7344C19.7266 16.3203 18.9844 16.5938 18.0078 16.5938H15.1953V20.7344H13.5156ZM15.1953 15.1094H17.8906C18.3203 15.1094 18.6719 14.9922 18.9062 14.7578C19.1406 14.5234 19.2578 14.2109 19.2578 13.7812V13.0781C19.2578 12.6484 19.1406 12.3359 18.9062 12.1016C18.6719 11.8672 18.3203 11.75 17.8906 11.75H15.1953V15.1094Z" fill="black" fill-opacity="0.72"/>
</g>
<defs>
<clipPath id="clip0_1731_5504">
<rect width="25" height="30" fill="white"/>
</clipPath>
</defs>
</svg>
