<svg width="11" height="18" viewBox="0 0 11 18" fill="none" xmlns="http://www.w3.org/2000/svg">
<g id="label-paired / caption / bars-caption / regular" clip-path="url(#clip0_1731_649)">
<path id="icon" d="M0.25 5.375C0.265625 5.14062 0.390625 5.01562 0.625 5H10.375C10.6094 5.01562 10.7344 5.14062 10.75 5.375C10.7344 5.60938 10.6094 5.73438 10.375 5.75H0.625C0.390625 5.73438 0.265625 5.60938 0.25 5.375ZM0.25 9.125C0.265625 8.89062 0.390625 8.76562 0.625 8.75H10.375C10.6094 8.76562 10.7344 8.89062 10.75 9.125C10.7344 9.35938 10.6094 9.48438 10.375 9.5H0.625C0.390625 9.48438 0.265625 9.35938 0.25 9.125ZM10.75 12.875C10.7344 13.1094 10.6094 13.2344 10.375 13.25H0.625C0.390625 13.2344 0.265625 13.1094 0.25 12.875C0.265625 12.6406 0.390625 12.5156 0.625 12.5H10.375C10.6094 12.5156 10.7344 12.6406 10.75 12.875Z" fill="black" fill-opacity="0.72"/>
</g>
<defs>
<clipPath id="clip0_1731_649">
<rect width="11" height="18" fill="white"/>
</clipPath>
</defs>
</svg>
