<svg width="20" height="24" viewBox="0 0 20 24" fill="none" xmlns="http://www.w3.org/2000/svg">
<g id="label-paired / md / huawei-app-gallery-md" clip-path="url(#clip0_1731_13954)">
<path id="icon" d="M9.1875 12.5625L8.90625 13.2812L8.875 13.3438H9.53125L9.5 13.2812L9.1875 12.5625ZM14.25 4C16.3125 4 18 5.6875 18 7.75V16.2812C18 18.3438 16.3125 20 14.25 20H5.71875C3.65625 20 2 18.3438 2 16.2812V7.75C2 5.6875 3.65625 4 5.71875 4H14.25ZM11.5312 12L11.0625 13.5L10.5938 12H10.1562L10.875 14.1875H11.25L11.7188 12.75L12.1875 14.1875H12.5312L13.2812 12H12.8438L12.375 13.5L11.9062 12H11.5312ZM9.03125 12L8.09375 14.1875H8.53125L8.71875 13.7812V13.75H9.6875L9.875 14.1875H10.3125L9.40625 12.0312V12H9.03125ZM15.6875 12V14.1875H16.125V12H15.6875ZM3.6875 12V14.1875H4.125V13.3125H5.0625V14.1875H5.5V12H5.0625V12.9062H4.125V12H3.6875ZM7.46875 12V12.0312V13.25C7.46875 13.625 7.28125 13.8125 7 13.8125C6.6875 13.8125 6.5 13.625 6.5 13.25V12.0312H6.09375V13.25C6.09375 13.875 6.40625 14.2188 6.96875 14.2188C7.5625 14.2188 7.875 13.875 7.875 13.25V12H7.46875ZM13.625 12V12.0312V14.1875H15.1875V13.7812H14.0312V13.25H14.8125V12.8438H14.0312V12.4062H15.1562V12H13.625ZM7.0625 6.5625C7.0625 8.09375 8.34375 9.3125 9.90625 9.3125C11.4688 9.3125 12.75 8.09375 12.75 6.5625H12.3438C12.3438 7.875 11.25 8.90625 9.90625 8.90625C8.5625 8.90625 7.46875 7.875 7.46875 6.5625H7.0625Z" fill="black" fill-opacity="0.72"/>
</g>
<defs>
<clipPath id="clip0_1731_13954">
<rect width="20" height="24" fill="white"/>
</clipPath>
</defs>
</svg>
