<svg width="18" height="36" viewBox="0 0 18 36" fill="none" xmlns="http://www.w3.org/2000/svg">
<g id="label-paired / xl / microphone-xl / regular" clip-path="url(#clip0_1731_6601)">
<path id="icon" d="M12 10.5C11.9688 9.65625 11.6719 8.95312 11.1094 8.39062C10.5469 7.82812 9.84375 7.53125 9 7.5C8.15625 7.53125 7.45312 7.82812 6.89062 8.39062C6.32812 8.95312 6.03125 9.65625 6 10.5V18C6.03125 18.8438 6.32812 19.5469 6.89062 20.1094C7.45312 20.6719 8.15625 20.9688 9 21C9.84375 20.9688 10.5469 20.6719 11.1094 20.1094C11.6719 19.5469 11.9688 18.8438 12 18V10.5ZM4.5 10.5C4.53125 9.21875 4.96875 8.15625 5.8125 7.3125C6.65625 6.46875 7.71875 6.03125 9 6C10.2812 6.03125 11.3438 6.46875 12.1875 7.3125C13.0312 8.15625 13.4688 9.21875 13.5 10.5V18C13.4688 19.2812 13.0312 20.3438 12.1875 21.1875C11.3438 22.0312 10.2812 22.4688 9 22.5C7.71875 22.4688 6.65625 22.0312 5.8125 21.1875C4.96875 20.3438 4.53125 19.2812 4.5 18V10.5ZM3 15.75V18C3.03125 19.6875 3.60938 21.1094 4.73438 22.2656C5.89062 23.3906 7.3125 23.9688 9 24C10.6875 23.9688 12.1094 23.3906 13.2656 22.2656C14.3906 21.1094 14.9688 19.6875 15 18V15.75C15.0312 15.2812 15.2812 15.0312 15.75 15C16.2188 15.0312 16.4688 15.2812 16.5 15.75V18C16.4688 20 15.8125 21.6875 14.5312 23.0625C13.2812 24.4375 11.6875 25.2344 9.75 25.4531V28.5H12.75C13.2188 28.5312 13.4688 28.7812 13.5 29.25C13.4688 29.7188 13.2188 29.9688 12.75 30H9H5.25C4.78125 29.9688 4.53125 29.7188 4.5 29.25C4.53125 28.7812 4.78125 28.5312 5.25 28.5H8.25V25.4531C6.3125 25.2344 4.71875 24.4375 3.46875 23.0625C2.1875 21.6875 1.53125 20 1.5 18V15.75C1.53125 15.2812 1.78125 15.0312 2.25 15C2.71875 15.0312 2.96875 15.2812 3 15.75Z" fill="black" fill-opacity="0.72"/>
</g>
<defs>
<clipPath id="clip0_1731_6601">
<rect width="18" height="36" fill="white"/>
</clipPath>
</defs>
</svg>
