<svg width="20" height="30" viewBox="0 0 20 30" fill="none" xmlns="http://www.w3.org/2000/svg">
<g id="label-paired / lg / gauge-min-lg / regular" clip-path="url(#clip0_1731_5479)">
<path id="icon" d="M10 6.75C8.41146 6.77604 6.95312 7.16667 5.625 7.92188C4.29688 8.70312 3.22917 9.77083 2.42188 11.125C1.64062 12.5052 1.25 13.9635 1.25 15.5C1.25 17.0365 1.64062 18.4948 2.42188 19.875C3.22917 21.2292 4.29688 22.2969 5.625 23.0781C6.95312 23.8333 8.41146 24.224 10 24.25C11.5885 24.224 13.0469 23.8333 14.375 23.0781C15.7031 22.2969 16.7708 21.2292 17.5781 19.875C18.3594 18.4948 18.75 17.0365 18.75 15.5C18.75 13.9635 18.3594 12.5052 17.5781 11.125C16.7708 9.77083 15.7031 8.70312 14.375 7.92188C13.0469 7.16667 11.5885 6.77604 10 6.75ZM10 25.5C8.17708 25.474 6.51042 25.0312 5 24.1719C3.48958 23.2865 2.26562 22.0625 1.32812 20.5C0.442708 18.9115 0 17.2448 0 15.5C0 13.7552 0.442708 12.0885 1.32812 10.5C2.26562 8.9375 3.48958 7.71354 5 6.82812C6.51042 5.96875 8.17708 5.52604 10 5.5C11.8229 5.52604 13.4896 5.96875 15 6.82812C16.5104 7.71354 17.7344 8.9375 18.6719 10.5C19.5573 12.0885 20 13.7552 20 15.5C20 17.2448 19.5573 18.9115 18.6719 20.5C17.7344 22.0625 16.5104 23.2865 15 24.1719C13.4896 25.0312 11.8229 25.474 10 25.5ZM10.9375 9.25C10.8854 9.82292 10.5729 10.1354 10 10.1875C9.42708 10.1354 9.11458 9.82292 9.0625 9.25C9.11458 8.67708 9.42708 8.36458 10 8.3125C10.5729 8.36458 10.8854 8.67708 10.9375 9.25ZM8.75 19.25C8.75 19.6146 8.86719 19.9141 9.10156 20.1484C9.33594 20.3828 9.63542 20.5 10 20.5C10.3646 20.5 10.6641 20.3828 10.8984 20.1484C11.1328 19.9141 11.25 19.6146 11.25 19.25C11.25 18.8854 11.1328 18.5859 10.8984 18.3516C10.6641 18.1172 10.3646 18 10 18C9.63542 18 9.33594 18.1172 9.10156 18.3516C8.86719 18.5859 8.75 18.8854 8.75 19.25ZM12.5 19.25C12.474 19.9531 12.2266 20.5391 11.7578 21.0078C11.2891 21.4766 10.7031 21.724 10 21.75C9.29688 21.724 8.71094 21.4766 8.24219 21.0078C7.77344 20.5391 7.52604 19.9531 7.5 19.25C7.5 19.0156 7.53906 18.7812 7.61719 18.5469L3.4375 16.0469C3.125 15.8125 3.04688 15.526 3.20312 15.1875C3.4375 14.875 3.72396 14.7969 4.0625 14.9531L8.24219 17.4531C8.71094 17.0104 9.29688 16.776 10 16.75C10.7031 16.776 11.2891 17.0234 11.7578 17.4922C12.2266 17.9609 12.474 18.5469 12.5 19.25ZM6.5625 11.125C6.51042 11.6979 6.19792 12.0104 5.625 12.0625C5.05208 12.0104 4.73958 11.6979 4.6875 11.125C4.73958 10.5521 5.05208 10.2396 5.625 10.1875C6.19792 10.2396 6.51042 10.5521 6.5625 11.125ZM16.25 16.4375C15.6771 16.3854 15.3646 16.0729 15.3125 15.5C15.3646 14.9271 15.6771 14.6146 16.25 14.5625C16.8229 14.6146 17.1354 14.9271 17.1875 15.5C17.1354 16.0729 16.8229 16.3854 16.25 16.4375ZM15.3125 11.125C15.2604 11.6979 14.9479 12.0104 14.375 12.0625C13.8021 12.0104 13.4896 11.6979 13.4375 11.125C13.4896 10.5521 13.8021 10.2396 14.375 10.1875C14.9479 10.2396 15.2604 10.5521 15.3125 11.125Z" fill="black" fill-opacity="0.72"/>
</g>
<defs>
<clipPath id="clip0_1731_5479">
<rect width="20" height="30" fill="white"/>
</clipPath>
</defs>
</svg>
