<svg width="23" height="30" viewBox="0 0 23 30" fill="none" xmlns="http://www.w3.org/2000/svg">
<g id="label-paired / lg / eye-lg / bold" clip-path="url(#clip0_1731_5356)">
<path id="icon" d="M11.5 8.625C10.224 8.65104 9.0651 8.91146 8.02344 9.40625C6.98177 9.875 6.05729 10.5 5.25 11.2812C4.49479 11.9844 3.85677 12.7135 3.33594 13.4688C2.84115 14.224 2.45052 14.901 2.16406 15.5C2.45052 16.099 2.84115 16.776 3.33594 17.5312C3.85677 18.2865 4.49479 19.0156 5.25 19.7188C6.05729 20.5 6.98177 21.125 8.02344 21.5938C9.0651 22.0885 10.224 22.349 11.5 22.375C12.776 22.349 13.9349 22.0885 14.9766 21.5938C16.0182 21.125 16.9427 20.5 17.75 19.7188C18.5052 19.0156 19.1432 18.2865 19.6641 17.5312C20.1589 16.776 20.5495 16.099 20.8359 15.5C20.5495 14.901 20.1589 14.224 19.6641 13.4688C19.1432 12.7135 18.5052 11.9844 17.75 11.2812C16.9427 10.5 16.0182 9.875 14.9766 9.40625C13.9349 8.91146 12.776 8.65104 11.5 8.625ZM3.96094 9.91406C4.89844 9.02865 5.99219 8.28646 7.24219 7.6875C8.49219 7.08854 9.91146 6.77604 11.5 6.75C13.0885 6.77604 14.5078 7.08854 15.7578 7.6875C17.0078 8.28646 18.1016 9.02865 19.0391 9.91406C19.9505 10.7734 20.7057 11.6589 21.3047 12.5703C21.9036 13.4818 22.3594 14.3021 22.6719 15.0312C22.8021 15.3438 22.8021 15.6562 22.6719 15.9688C22.3594 16.6979 21.9036 17.5182 21.3047 18.4297C20.7057 19.3411 19.9505 20.2266 19.0391 21.0859C18.1016 21.9714 17.0078 22.7135 15.7578 23.3125C14.5078 23.9115 13.0885 24.224 11.5 24.25C9.91146 24.224 8.49219 23.9115 7.24219 23.3125C5.99219 22.7135 4.89844 21.9714 3.96094 21.0859C3.04948 20.2266 2.29427 19.3411 1.69531 18.4297C1.09635 17.5182 0.653646 16.6979 0.367188 15.9688C0.236979 15.6562 0.236979 15.3438 0.367188 15.0312C0.653646 14.3021 1.09635 13.4818 1.69531 12.5703C2.29427 11.6589 3.04948 10.7734 3.96094 9.91406ZM11.5 18.625C12.3854 18.599 13.1276 18.2995 13.7266 17.7266C14.2995 17.1276 14.599 16.3854 14.625 15.5C14.599 14.6146 14.2995 13.8724 13.7266 13.2734C13.1276 12.7005 12.3854 12.401 11.5 12.375C11.474 12.375 11.4609 12.375 11.4609 12.375C11.4609 12.375 11.4479 12.375 11.4219 12.375C11.474 12.5833 11.5 12.7917 11.5 13C11.474 13.7031 11.2266 14.2891 10.7578 14.7578C10.2891 15.2266 9.70312 15.474 9 15.5C8.79167 15.5 8.58333 15.474 8.375 15.4219C8.375 15.4479 8.375 15.4609 8.375 15.4609C8.375 15.4609 8.375 15.474 8.375 15.5C8.40104 16.3854 8.70052 17.1276 9.27344 17.7266C9.8724 18.2995 10.6146 18.599 11.5 18.625ZM11.5 10.5C12.4115 10.5 13.2448 10.7214 14 11.1641C14.7552 11.6068 15.3672 12.2188 15.8359 13C16.2786 13.7812 16.5 14.6146 16.5 15.5C16.5 16.3854 16.2786 17.2188 15.8359 18C15.3672 18.7812 14.7552 19.3932 14 19.8359C13.2448 20.2786 12.4115 20.5 11.5 20.5C10.5885 20.5 9.75521 20.2786 9 19.8359C8.24479 19.3932 7.63281 18.7812 7.16406 18C6.72135 17.2188 6.5 16.3854 6.5 15.5C6.5 14.6146 6.72135 13.7812 7.16406 13C7.63281 12.2188 8.24479 11.6068 9 11.1641C9.75521 10.7214 10.5885 10.5 11.5 10.5Z" fill="black" fill-opacity="0.72"/>
</g>
<defs>
<clipPath id="clip0_1731_5356">
<rect width="23" height="30" fill="white"/>
</clipPath>
</defs>
</svg>
