<svg width="12" height="18" viewBox="0 0 12 18" fill="none" xmlns="http://www.w3.org/2000/svg">
<g id="label-paired / caption / arrow-up-from-square-caption / bold" clip-path="url(#clip0_1731_661)">
<path id="icon" d="M6.39844 3.66406L9.02344 6.28906C9.24219 6.55469 9.24219 6.82031 9.02344 7.08594C8.75781 7.30469 8.49219 7.30469 8.22656 7.08594L6.5625 5.42188V11.1875C6.53125 11.5312 6.34375 11.7188 6 11.75C5.65625 11.7188 5.46875 11.5312 5.4375 11.1875V5.42188L3.77344 7.08594C3.50781 7.30469 3.24219 7.30469 2.97656 7.08594C2.75781 6.82031 2.75781 6.55469 2.97656 6.28906L5.60156 3.66406C5.86719 3.44531 6.13281 3.44531 6.39844 3.66406ZM1.6875 4.25H1.875C2.21875 4.28125 2.40625 4.46875 2.4375 4.8125C2.40625 5.15625 2.21875 5.34375 1.875 5.375H1.6875C1.34375 5.40625 1.15625 5.59375 1.125 5.9375V13.8125C1.15625 14.1562 1.34375 14.3438 1.6875 14.375H10.3125C10.6562 14.3438 10.8438 14.1562 10.875 13.8125V5.9375C10.8438 5.59375 10.6562 5.40625 10.3125 5.375H10.125C9.78125 5.34375 9.59375 5.15625 9.5625 4.8125C9.59375 4.46875 9.78125 4.28125 10.125 4.25H10.3125C10.7969 4.26562 11.1953 4.42969 11.5078 4.74219C11.8203 5.05469 11.9844 5.45312 12 5.9375V13.8125C11.9844 14.2969 11.8203 14.6953 11.5078 15.0078C11.1953 15.3203 10.7969 15.4844 10.3125 15.5H1.6875C1.20312 15.4844 0.804688 15.3203 0.492188 15.0078C0.179688 14.6953 0.015625 14.2969 0 13.8125V5.9375C0.015625 5.45312 0.179688 5.05469 0.492188 4.74219C0.804688 4.42969 1.20312 4.26562 1.6875 4.25Z" fill="black" fill-opacity="0.72"/>
</g>
<defs>
<clipPath id="clip0_1731_661">
<rect width="12" height="18" fill="white"/>
</clipPath>
</defs>
</svg>
