<svg width="16" height="24" viewBox="0 0 16 24" fill="none" xmlns="http://www.w3.org/2000/svg">
<g id="label-paired / md / arrows-rotate-md / regular" clip-path="url(#clip0_1731_3185)">
<path id="icon" d="M2.15625 10.5938H2.1875C2.10417 10.8438 1.92708 10.9792 1.65625 11C1.30208 10.9583 1.14583 10.7708 1.1875 10.4375C1.5625 8.85417 2.375 7.5625 3.625 6.5625C4.85417 5.5625 6.3125 5.04167 8 5C9.29167 5.02083 10.4583 5.33333 11.5 5.9375C12.5417 6.54167 13.375 7.36458 14 8.40625V6.5C14.0208 6.1875 14.1875 6.02083 14.5 6C14.8125 6.02083 14.9792 6.1875 15 6.5V9.5C14.9792 9.8125 14.8125 9.97917 14.5 10H14.0312H11.5C11.1875 9.97917 11.0208 9.8125 11 9.5C11.0208 9.1875 11.1875 9.02083 11.5 9H13.1875C12.6667 8.08333 11.9479 7.35417 11.0312 6.8125C10.1354 6.29167 9.125 6.02083 8 6C6.5625 6.02083 5.3125 6.45833 4.25 7.3125C3.20833 8.14583 2.51042 9.23958 2.15625 10.5938ZM13.8438 13.4375V13.4062C13.9062 13.1562 14.0729 13.0208 14.3438 13C14.6979 13.0417 14.8542 13.2292 14.8125 13.5625C14.4375 15.1458 13.6354 16.4375 12.4062 17.4375C11.1562 18.4375 9.6875 18.9583 8 19C6.70833 18.9792 5.54167 18.6667 4.5 18.0625C3.45833 17.4583 2.625 16.6458 2 15.625V17.5C1.97917 17.8125 1.8125 17.9792 1.5 18C1.20833 17.9792 1.04167 17.8125 1 17.5V14.5C1.04167 14.1875 1.20833 14.0208 1.5 14H1.96875H4.5C4.8125 14.0208 4.97917 14.1875 5 14.5C4.97917 14.8125 4.8125 14.9792 4.5 15H2.8125C3.33333 15.9167 4.05208 16.6458 4.96875 17.1875C5.86458 17.7083 6.875 17.9792 8 18C9.4375 17.9792 10.6875 17.5417 11.75 16.6875C12.7917 15.8542 13.4896 14.7708 13.8438 13.4375Z" fill="black" fill-opacity="0.72"/>
</g>
<defs>
<clipPath id="clip0_1731_3185">
<rect width="16" height="24" fill="white"/>
</clipPath>
</defs>
</svg>
