<svg width="20" height="24" viewBox="0 0 20 24" fill="none" xmlns="http://www.w3.org/2000/svg">
<g id="label-paired / md / stop-loss-md / bold" clip-path="url(#clip0_1731_3287)">
<path id="icon" d="M6.6875 16.3438C5.9375 16.3438 5.3125 16.2188 4.8125 15.9688C4.28125 15.7188 3.875 15.375 3.5 15L4.6875 13.7812C5.28125 14.4062 5.96875 14.75 6.8125 14.75C7.25 14.75 7.59375 14.6562 7.78125 14.4688C8 14.2812 8.125 14.0312 8.125 13.7188C8.125 13.5 8.0625 13.3125 7.9375 13.1562C7.8125 13 7.53125 12.875 7.15625 12.8438L6.3125 12.7188C5.4375 12.5938 4.78125 12.3438 4.375 11.9062C3.96875 11.5 3.75 10.9375 3.75 10.2188C3.75 9.84375 3.8125 9.5 3.96875 9.1875C4.125 8.875 4.3125 8.625 4.59375 8.40625C4.84375 8.15625 5.1875 8 5.5625 7.875C5.96875 7.75 6.40625 7.6875 6.90625 7.6875C7.53125 7.6875 8.09375 7.78125 8.5625 8C9.03125 8.1875 9.46875 8.46875 9.8125 8.875L8.59375 10.0938C8.375 9.84375 8.15625 9.65625 7.84375 9.53125C7.5625 9.375 7.21875 9.28125 6.78125 9.28125C6.375 9.28125 6.0625 9.375 5.875 9.5C5.6875 9.65625 5.5625 9.84375 5.5625 10.125C5.5625 10.4062 5.65625 10.5938 5.8125 10.75C5.96875 10.875 6.21875 10.9688 6.5625 11L7.40625 11.1562C8.25 11.2812 8.90625 11.5312 9.3125 11.9375C9.75 12.3438 9.9375 12.9062 9.9375 13.625C9.9375 14.0312 9.875 14.4062 9.71875 14.7188C9.59375 15.0625 9.375 15.3438 9.09375 15.5938C8.8125 15.8438 8.46875 16.0312 8.0625 16.1562C7.65625 16.2812 7.1875 16.3438 6.6875 16.3438ZM11.4688 16.1875V7.8125H13.2812V14.5938H16.4688V16.1875H11.4688Z" fill="black" fill-opacity="0.72"/>
</g>
<defs>
<clipPath id="clip0_1731_3287">
<rect width="20" height="24" fill="white"/>
</clipPath>
</defs>
</svg>
