<svg width="20" height="24" viewBox="0 0 20 24" fill="none" xmlns="http://www.w3.org/2000/svg">
<g id="label-paired / md / language-md / bold" clip-path="url(#clip0_1731_3851)">
<path id="icon" d="M2 6H8.5H9.5H10H18C18.5625 6.02083 19.0312 6.21875 19.4062 6.59375C19.7812 6.96875 19.9792 7.4375 20 8V16C19.9792 16.5625 19.7812 17.0312 19.4062 17.4062C19.0312 17.7812 18.5625 17.9792 18 18H10H9.5H8.5H2C1.4375 17.9792 0.96875 17.7812 0.59375 17.4062C0.21875 17.0312 0.0208333 16.5625 0 16V8C0.0208333 7.4375 0.21875 6.96875 0.59375 6.59375C0.96875 6.21875 1.4375 6.02083 2 6ZM18 7.5H10V16.5H18C18.3125 16.4792 18.4792 16.3125 18.5 16V8C18.4792 7.6875 18.3125 7.52083 18 7.5ZM5.5625 9.5C5.45833 9.27083 5.27083 9.14583 5 9.125C4.72917 9.14583 4.54167 9.27083 4.4375 9.5L2.4375 14C2.3125 14.3542 2.41667 14.625 2.75 14.8125C3.10417 14.9375 3.375 14.8333 3.5625 14.5L3.84375 13.875H6.15625L6.4375 14.5C6.625 14.8333 6.89583 14.9375 7.25 14.8125C7.58333 14.625 7.6875 14.3542 7.5625 14L5.5625 9.5ZM5.59375 12.625H4.40625L5 11.2812L5.59375 12.625ZM14.25 9.125C14.625 9.16667 14.8333 9.375 14.875 9.75V9.875H16.25H16.75C17.125 9.91667 17.3333 10.125 17.375 10.5C17.3333 10.875 17.125 11.0833 16.75 11.125H16.6875L16.625 11.2812C16.3542 12.0312 15.9479 12.7083 15.4062 13.3125C15.4062 13.3125 15.4167 13.3229 15.4375 13.3438C15.4583 13.3438 15.4688 13.3542 15.4688 13.375L16.0625 13.7188C16.375 13.9479 16.4479 14.2292 16.2812 14.5625C16.0521 14.875 15.7708 14.9479 15.4375 14.7812L14.8438 14.4375C14.6979 14.3542 14.5625 14.2604 14.4375 14.1562C14.1042 14.4062 13.75 14.6146 13.375 14.7812L13.25 14.8125C12.8958 14.9375 12.625 14.8333 12.4375 14.5C12.3125 14.1458 12.4167 13.875 12.75 13.6875L12.875 13.625C13.0625 13.5417 13.25 13.4375 13.4375 13.3125L13.0625 12.9375C12.8125 12.6458 12.8125 12.3542 13.0625 12.0625C13.3542 11.8125 13.6458 11.8125 13.9375 12.0625L14.4062 12.5312C14.8021 12.1146 15.1146 11.6458 15.3438 11.125H14.25H12C11.625 11.0833 11.4167 10.875 11.375 10.5C11.4167 10.125 11.625 9.91667 12 9.875H13.625V9.75C13.6667 9.375 13.875 9.16667 14.25 9.125Z" fill="black" fill-opacity="0.72"/>
</g>
<defs>
<clipPath id="clip0_1731_3851">
<rect width="20" height="24" fill="white"/>
</clipPath>
</defs>
</svg>
