<svg width="18" height="30" viewBox="0 0 18 30" fill="none" xmlns="http://www.w3.org/2000/svg">
<g id="label-paired / lg / tiktok-lg" clip-path="url(#clip0_1731_14034)">
<path id="icon" d="M17.75 13.7031C15.9792 13.7031 14.3776 13.1953 12.9453 12.1797V19.1328C12.9453 20.487 12.5677 21.6979 11.8125 22.7656C11.0833 23.8333 10.0938 24.6146 8.84375 25.1094C7.56771 25.5521 6.30469 25.6172 5.05469 25.3047C3.80469 24.9922 2.72396 24.3281 1.8125 23.3125C0.953125 22.2969 0.445312 21.138 0.289062 19.8359C0.158854 18.5599 0.40625 17.3229 1.03125 16.125C1.68229 14.9531 2.58073 14.0677 3.72656 13.4688C4.89844 12.8958 6.14844 12.6875 7.47656 12.8438V16.3594C6.85156 16.1771 6.2526 16.1901 5.67969 16.3984C5.10677 16.5807 4.625 16.9323 4.23438 17.4531C3.86979 17.974 3.6875 18.5469 3.6875 19.1719C3.6875 19.7708 3.86979 20.3438 4.23438 20.8906C4.625 21.3854 5.11979 21.724 5.71875 21.9062C6.29167 22.1146 6.89062 22.1146 7.51562 21.9062C8.11458 21.6979 8.59635 21.3464 8.96094 20.8516C9.32552 20.3568 9.50781 19.7839 9.50781 19.1328V5.5H12.9453C12.9453 5.78646 12.9714 6.07292 13.0234 6.35938C13.3099 7.6875 14.013 8.72917 15.1328 9.48438C15.9401 10.0052 16.8125 10.2786 17.75 10.3047V13.7031Z" fill="black" fill-opacity="0.72"/>
</g>
<defs>
<clipPath id="clip0_1731_14034">
<rect width="18" height="30" fill="white"/>
</clipPath>
</defs>
</svg>
