<svg width="13" height="22" viewBox="0 0 13 22" fill="none" xmlns="http://www.w3.org/2000/svg">
<g id="label-paired / sm / unlock-sm / bold" clip-path="url(#clip0_1731_2840)">
<path id="icon" d="M4.3125 7.25V9H10.875C11.3672 9.01823 11.7773 9.19141 12.1055 9.51953C12.4336 9.84766 12.6068 10.2578 12.625 10.75V16C12.6068 16.4922 12.4336 16.9023 12.1055 17.2305C11.7773 17.5586 11.3672 17.7318 10.875 17.75H2.125C1.63281 17.7318 1.22266 17.5586 0.894531 17.2305C0.566406 16.9023 0.393229 16.4922 0.375 16V10.75C0.393229 10.2578 0.566406 9.84766 0.894531 9.51953C1.22266 9.19141 1.63281 9.01823 2.125 9H3V7.25C3.01823 6.26562 3.35547 5.4362 4.01172 4.76172C4.6862 4.10547 5.51562 3.76823 6.5 3.75C7.28385 3.76823 7.97656 3.99609 8.57812 4.43359C9.17969 4.87109 9.59896 5.45443 9.83594 6.18359C9.92708 6.56641 9.78125 6.83984 9.39844 7.00391C9.01562 7.09505 8.74219 6.94922 8.57812 6.56641C8.43229 6.12891 8.17708 5.77344 7.8125 5.5C7.42969 5.20833 6.99219 5.0625 6.5 5.0625C5.88021 5.08073 5.36068 5.29036 4.94141 5.69141C4.54036 6.11068 4.33073 6.63021 4.3125 7.25ZM1.6875 10.75V16C1.70573 16.2734 1.85156 16.4193 2.125 16.4375H10.875C11.1484 16.4193 11.2943 16.2734 11.3125 16V10.75C11.2943 10.4766 11.1484 10.3307 10.875 10.3125H2.125C1.85156 10.3307 1.70573 10.4766 1.6875 10.75Z" fill="black" fill-opacity="0.72"/>
</g>
<defs>
<clipPath id="clip0_1731_2840">
<rect width="13" height="22" fill="white"/>
</clipPath>
</defs>
</svg>
