<svg width="14" height="18" viewBox="0 0 14 18" fill="none" xmlns="http://www.w3.org/2000/svg">
<g id="label-paired / caption / keyboard-caption / regular" clip-path="url(#clip0_1731_1404)">
<path id="icon" d="M1.75 5.75C1.53125 5.75 1.35156 5.82031 1.21094 5.96094C1.07031 6.10156 1 6.28125 1 6.5V12.5C1 12.7188 1.07031 12.8984 1.21094 13.0391C1.35156 13.1797 1.53125 13.25 1.75 13.25H12.25C12.4688 13.25 12.6484 13.1797 12.7891 13.0391C12.9297 12.8984 13 12.7188 13 12.5V6.5C13 6.28125 12.9297 6.10156 12.7891 5.96094C12.6484 5.82031 12.4688 5.75 12.25 5.75H1.75ZM0.25 6.5C0.265625 6.07812 0.414062 5.72656 0.695312 5.44531C0.976562 5.16406 1.32812 5.01562 1.75 5H12.25C12.6719 5.01562 13.0234 5.16406 13.3047 5.44531C13.5859 5.72656 13.7344 6.07812 13.75 6.5V12.5C13.7344 12.9219 13.5859 13.2734 13.3047 13.5547C13.0234 13.8359 12.6719 13.9844 12.25 14H1.75C1.32812 13.9844 0.976562 13.8359 0.695312 13.5547C0.414062 13.2734 0.265625 12.9219 0.25 12.5V6.5ZM2.3125 6.6875H2.6875C2.92188 6.70312 3.04688 6.82812 3.0625 7.0625V7.4375C3.04688 7.67188 2.92188 7.79688 2.6875 7.8125H2.3125C2.07812 7.79688 1.95312 7.67188 1.9375 7.4375V7.0625C1.95312 6.82812 2.07812 6.70312 2.3125 6.6875ZM1.9375 9.3125C1.95312 9.07812 2.07812 8.95312 2.3125 8.9375H2.6875C2.92188 8.95312 3.04688 9.07812 3.0625 9.3125V9.6875C3.04688 9.92188 2.92188 10.0469 2.6875 10.0625H2.3125C2.07812 10.0469 1.95312 9.92188 1.9375 9.6875V9.3125ZM2.3125 11.1875H2.6875C2.92188 11.2031 3.04688 11.3281 3.0625 11.5625V11.9375C3.04688 12.1719 2.92188 12.2969 2.6875 12.3125H2.3125C2.07812 12.2969 1.95312 12.1719 1.9375 11.9375V11.5625C1.95312 11.3281 2.07812 11.2031 2.3125 11.1875ZM4.1875 7.0625C4.20312 6.82812 4.32812 6.70312 4.5625 6.6875H4.9375C5.17188 6.70312 5.29688 6.82812 5.3125 7.0625V7.4375C5.29688 7.67188 5.17188 7.79688 4.9375 7.8125H4.5625C4.32812 7.79688 4.20312 7.67188 4.1875 7.4375V7.0625ZM4.5625 8.9375H4.9375C5.17188 8.95312 5.29688 9.07812 5.3125 9.3125V9.6875C5.29688 9.92188 5.17188 10.0469 4.9375 10.0625H4.5625C4.32812 10.0469 4.20312 9.92188 4.1875 9.6875V9.3125C4.20312 9.07812 4.32812 8.95312 4.5625 8.9375ZM6.4375 7.0625C6.45312 6.82812 6.57812 6.70312 6.8125 6.6875H7.1875C7.42188 6.70312 7.54688 6.82812 7.5625 7.0625V7.4375C7.54688 7.67188 7.42188 7.79688 7.1875 7.8125H6.8125C6.57812 7.79688 6.45312 7.67188 6.4375 7.4375V7.0625ZM6.8125 8.9375H7.1875C7.42188 8.95312 7.54688 9.07812 7.5625 9.3125V9.6875C7.54688 9.92188 7.42188 10.0469 7.1875 10.0625H6.8125C6.57812 10.0469 6.45312 9.92188 6.4375 9.6875V9.3125C6.45312 9.07812 6.57812 8.95312 6.8125 8.9375ZM8.6875 7.0625C8.70312 6.82812 8.82812 6.70312 9.0625 6.6875H9.4375C9.67188 6.70312 9.79688 6.82812 9.8125 7.0625V7.4375C9.79688 7.67188 9.67188 7.79688 9.4375 7.8125H9.0625C8.82812 7.79688 8.70312 7.67188 8.6875 7.4375V7.0625ZM9.0625 8.9375H9.4375C9.67188 8.95312 9.79688 9.07812 9.8125 9.3125V9.6875C9.79688 9.92188 9.67188 10.0469 9.4375 10.0625H9.0625C8.82812 10.0469 8.70312 9.92188 8.6875 9.6875V9.3125C8.70312 9.07812 8.82812 8.95312 9.0625 8.9375ZM10.9375 7.0625C10.9531 6.82812 11.0781 6.70312 11.3125 6.6875H11.6875C11.9219 6.70312 12.0469 6.82812 12.0625 7.0625V7.4375C12.0469 7.67188 11.9219 7.79688 11.6875 7.8125H11.3125C11.0781 7.79688 10.9531 7.67188 10.9375 7.4375V7.0625ZM11.3125 8.9375H11.6875C11.9219 8.95312 12.0469 9.07812 12.0625 9.3125V9.6875C12.0469 9.92188 11.9219 10.0469 11.6875 10.0625H11.3125C11.0781 10.0469 10.9531 9.92188 10.9375 9.6875V9.3125C10.9531 9.07812 11.0781 8.95312 11.3125 8.9375ZM10.9375 11.5625C10.9531 11.3281 11.0781 11.2031 11.3125 11.1875H11.6875C11.9219 11.2031 12.0469 11.3281 12.0625 11.5625V11.9375C12.0469 12.1719 11.9219 12.2969 11.6875 12.3125H11.3125C11.0781 12.2969 10.9531 12.1719 10.9375 11.9375V11.5625ZM4.375 11.375H9.625C9.85938 11.3906 9.98438 11.5156 10 11.75C9.98438 11.9844 9.85938 12.1094 9.625 12.125H4.375C4.14062 12.1094 4.01562 11.9844 4 11.75C4.01562 11.5156 4.14062 11.3906 4.375 11.375Z" fill="black" fill-opacity="0.72"/>
</g>
<defs>
<clipPath id="clip0_1731_1404">
<rect width="14" height="18" fill="white"/>
</clipPath>
</defs>
</svg>
