<svg width="14" height="22" viewBox="0 0 14 22" fill="none" xmlns="http://www.w3.org/2000/svg">
<g id="label-paired / sm / circle-dollar-sm / regular" clip-path="url(#clip0_1731_2955)">
<path id="icon" d="M13.125 10.75C13.1068 9.63802 12.8333 8.61719 12.3047 7.6875C11.7578 6.75781 11.0104 6.01042 10.0625 5.44531C9.09635 4.89844 8.07552 4.625 7 4.625C5.92448 4.625 4.90365 4.89844 3.9375 5.44531C2.98958 6.01042 2.24219 6.75781 1.69531 7.6875C1.16667 8.61719 0.893229 9.63802 0.875 10.75C0.893229 11.862 1.16667 12.8828 1.69531 13.8125C2.24219 14.7422 2.98958 15.4896 3.9375 16.0547C4.90365 16.6016 5.92448 16.875 7 16.875C8.07552 16.875 9.09635 16.6016 10.0625 16.0547C11.0104 15.4896 11.7578 14.7422 12.3047 13.8125C12.8333 12.8828 13.1068 11.862 13.125 10.75ZM0 10.75C0.0182292 9.47396 0.328125 8.30729 0.929688 7.25C1.54948 6.19271 2.40625 5.33594 3.5 4.67969C4.61198 4.0599 5.77865 3.75 7 3.75C8.22135 3.75 9.38802 4.0599 10.5 4.67969C11.5938 5.33594 12.4505 6.19271 13.0703 7.25C13.6719 8.30729 13.9818 9.47396 14 10.75C13.9818 12.026 13.6719 13.1927 13.0703 14.25C12.4505 15.3073 11.5938 16.1641 10.5 16.8203C9.38802 17.4401 8.22135 17.75 7 17.75C5.77865 17.75 4.61198 17.4401 3.5 16.8203C2.40625 16.1641 1.54948 15.3073 0.929688 14.25C0.328125 13.1927 0.0182292 12.026 0 10.75ZM7.4375 7.03125V7.66016C7.80208 7.69661 8.16667 7.76953 8.53125 7.87891C8.54948 7.89714 8.56771 7.90625 8.58594 7.90625C8.60417 7.90625 8.6224 7.91536 8.64062 7.93359C8.89583 8.02474 8.99609 8.19792 8.94141 8.45312C8.85026 8.70833 8.67708 8.81771 8.42188 8.78125C8.34896 8.74479 8.28516 8.71745 8.23047 8.69922C8.01172 8.64453 7.80208 8.59896 7.60156 8.5625C7.05469 8.48958 6.59896 8.53516 6.23438 8.69922C5.90625 8.86328 5.73307 9.04557 5.71484 9.24609C5.66016 9.5013 5.7513 9.69271 5.98828 9.82031C6.27995 10.0026 6.6901 10.1576 7.21875 10.2852C7.21875 10.2852 7.22786 10.2852 7.24609 10.2852C7.77474 10.4128 8.26693 10.6133 8.72266 10.8867C9.2513 11.2695 9.47005 11.7799 9.37891 12.418C9.23307 13.0195 8.88672 13.4206 8.33984 13.6211C8.06641 13.7305 7.76562 13.7943 7.4375 13.8125V14.4688C7.40104 14.7422 7.25521 14.888 7 14.9062C6.72656 14.888 6.58073 14.7422 6.5625 14.4688V13.7578C6.28906 13.7031 5.98828 13.6302 5.66016 13.5391C5.47786 13.4844 5.29557 13.4206 5.11328 13.3477C4.85807 13.2383 4.76693 13.056 4.83984 12.8008C4.93099 12.5638 5.11328 12.4727 5.38672 12.5273C5.56901 12.582 5.7513 12.6367 5.93359 12.6914C6.26172 12.8008 6.51693 12.8737 6.69922 12.9102C7.24609 12.9831 7.68359 12.9466 8.01172 12.8008C8.30339 12.6732 8.46745 12.4909 8.50391 12.2539C8.55859 11.9805 8.46745 11.7617 8.23047 11.5977C7.88411 11.3971 7.51042 11.2513 7.10938 11.1602C7.07292 11.1419 7.03646 11.1328 7 11.1328C6.96354 11.1146 6.9362 11.1055 6.91797 11.1055C6.40755 10.9779 5.93359 10.7956 5.49609 10.5586C5.27734 10.4128 5.09505 10.2122 4.94922 9.95703C4.80339 9.70182 4.76693 9.41016 4.83984 9.08203C4.98568 8.4987 5.33203 8.09766 5.87891 7.87891C6.09766 7.80599 6.32552 7.74219 6.5625 7.6875V7.03125C6.58073 6.75781 6.72656 6.61198 7 6.59375C7.25521 6.61198 7.40104 6.75781 7.4375 7.03125Z" fill="black" fill-opacity="0.72"/>
</g>
<defs>
<clipPath id="clip0_1731_2955">
<rect width="14" height="22" fill="white"/>
</clipPath>
</defs>
</svg>
