<svg width="16" height="24" viewBox="0 0 16 24" fill="none" xmlns="http://www.w3.org/2000/svg">
<g id="label-paired / md / circle-star-md / fill" clip-path="url(#clip0_1731_3341)">
<path id="icon" d="M0 12C0.0208333 10.5417 0.375 9.20833 1.0625 8C1.77083 6.79167 2.75 5.8125 4 5.0625C5.27083 4.35417 6.60417 4 8 4C9.39583 4 10.7292 4.35417 12 5.0625C13.25 5.8125 14.2292 6.79167 14.9375 8C15.625 9.20833 15.9792 10.5417 16 12C15.9792 13.4583 15.625 14.7917 14.9375 16C14.2292 17.2083 13.25 18.1875 12 18.9375C10.7292 19.6458 9.39583 20 8 20C6.60417 20 5.27083 19.6458 4 18.9375C2.75 18.1875 1.77083 17.2083 1.0625 16C0.375 14.7917 0.0208333 13.4583 0 12ZM8 7.25C7.79167 7.25 7.64583 7.34375 7.5625 7.53125L6.4375 9.8125L3.90625 10.1875C3.69792 10.2292 3.5625 10.3438 3.5 10.5312C3.4375 10.7188 3.47917 10.8854 3.625 11.0312L5.4375 12.8438L5 15.3438C4.97917 15.5521 5.05208 15.7188 5.21875 15.8438C5.38542 15.9479 5.5625 15.9583 5.75 15.875L8 14.6875L10.2812 15.875C10.4479 15.9583 10.6146 15.9479 10.7812 15.8438C10.9479 15.7188 11.0208 15.5521 11 15.3438L10.5625 12.8438L12.4062 11.0625C12.5312 10.8958 12.5729 10.7188 12.5312 10.5312C12.4479 10.3438 12.3125 10.2292 12.125 10.1875L9.59375 9.8125L8.4375 7.53125C8.35417 7.34375 8.20833 7.25 8 7.25Z" fill="black" fill-opacity="0.72"/>
</g>
<defs>
<clipPath id="clip0_1731_3341">
<rect width="16" height="24" fill="white"/>
</clipPath>
</defs>
</svg>
