<svg width="18" height="22" viewBox="0 0 18 22" fill="none" xmlns="http://www.w3.org/2000/svg">
<g id="label-paired / sm / person-chalkboard-sm / bold" clip-path="url(#clip0_1731_2583)">
<path id="icon" d="M5.5 6.375C5.00781 6.35677 4.625 6.13802 4.35156 5.71875C4.13281 5.28125 4.13281 4.84375 4.35156 4.40625C4.625 3.98698 5.00781 3.76823 5.5 3.75C5.99219 3.76823 6.375 3.98698 6.64844 4.40625C6.86719 4.84375 6.86719 5.28125 6.64844 5.71875C6.375 6.13802 5.99219 6.35677 5.5 6.375ZM5.11719 8.5625C5.11719 8.5625 5.10807 8.5625 5.08984 8.5625C5.08984 8.5625 5.08073 8.5625 5.0625 8.5625V12.0625H5.9375V8.5625H5.11719ZM5.0625 17.0938C5.02604 17.4948 4.80729 17.7135 4.40625 17.75C4.00521 17.7135 3.78646 17.4948 3.75 17.0938V9.875L2.57422 11.9531C2.33724 12.2812 2.03646 12.3633 1.67188 12.1992C1.34375 11.9622 1.26172 11.6615 1.42578 11.2969L3.03906 8.48047C3.25781 8.09766 3.54948 7.79688 3.91406 7.57812C4.27865 7.35938 4.67969 7.25 5.11719 7.25H6.89453H9V5.0625C9.01823 4.69792 9.14583 4.38802 9.38281 4.13281C9.63802 3.89583 9.94792 3.76823 10.3125 3.75H16.4375C16.8021 3.76823 17.112 3.89583 17.3672 4.13281C17.6042 4.38802 17.7318 4.69792 17.75 5.0625V11.1875C17.7318 11.5521 17.6042 11.862 17.3672 12.1172C17.112 12.3542 16.8021 12.4818 16.4375 12.5H10.3125C9.94792 12.4818 9.63802 12.3542 9.38281 12.1172C9.14583 11.862 9.01823 11.5521 9 11.1875V9.875H10.3125V11.1875H16.4375V5.0625H10.3125V7.25H10.9688C11.3698 7.28646 11.5885 7.50521 11.625 7.90625C11.5885 8.30729 11.3698 8.52604 10.9688 8.5625H7.25V17.0938C7.21354 17.4948 6.99479 17.7135 6.59375 17.75C6.19271 17.7135 5.97396 17.4948 5.9375 17.0938V13.375H5.0625V17.0938Z" fill="black" fill-opacity="0.72"/>
</g>
<defs>
<clipPath id="clip0_1731_2583">
<rect width="18" height="22" fill="white"/>
</clipPath>
</defs>
</svg>
