<svg width="30" height="36" viewBox="0 0 30 36" fill="none" xmlns="http://www.w3.org/2000/svg">
<g id="label-paired / xl / chart-trend-up-xl / bold" clip-path="url(#clip0_1885_587)">
<path id="icon" d="M28.9688 6.51562C29.5312 6.79688 29.7656 7.45312 29.4844 8.01562L24.9844 17.0156C24.7969 17.3906 24.4219 17.625 23.9531 17.625H17.1562L11.4844 29.0156C11.2031 29.5781 10.5469 29.8125 9.98438 29.5312L0.984375 25.0312C0.421875 24.75 0.1875 24.0938 0.46875 23.5312C0.75 22.9688 1.40625 22.7344 1.96875 23.0156L9.98438 27L15.4688 16.0312C15.6562 15.6562 16.0312 15.375 16.5 15.375H23.2969L27.4688 7.03125C27.75 6.46875 28.4062 6.23438 28.9688 6.51562Z" fill="black" fill-opacity="0.72"/>
</g>
<defs>
<clipPath id="clip0_1885_587">
<rect width="30" height="36" fill="white"/>
</clipPath>
</defs>
</svg>
