<svg width="21" height="36" viewBox="0 0 21 36" fill="none" xmlns="http://www.w3.org/2000/svg">
<g id="label-paired / xl / arrow-left-xl / bold" clip-path="url(#clip0_1731_5878)">
<path id="icon" d="M0.328125 18.7969C0.109375 18.5781 0 18.3125 0 18C0 17.6875 0.109375 17.4219 0.328125 17.2031L8.57812 9.32812C9.14062 8.89062 9.67188 8.89062 10.1719 9.32812C10.6094 9.89062 10.5938 10.4219 10.125 10.9219L3.9375 16.875H19.875C20.5625 16.9375 20.9375 17.3125 21 18C20.9375 18.6875 20.5625 19.0625 19.875 19.125H3.9375L10.1719 25.0781C10.6094 25.5781 10.6094 26.1094 10.1719 26.6719C9.67188 27.1094 9.15625 27.1094 8.625 26.6719L0.375 18.7969H0.328125Z" fill="black" fill-opacity="0.72"/>
</g>
<defs>
<clipPath id="clip0_1731_5878">
<rect width="21" height="36" fill="white"/>
</clipPath>
</defs>
</svg>
