<svg width="23" height="30" viewBox="0 0 23 30" fill="none" xmlns="http://www.w3.org/2000/svg">
<g id="label-paired / lg / keyboard-lg / bold" clip-path="url(#clip0_1731_4879)">
<path id="icon" d="M2.75 9.875C2.35938 9.90104 2.15104 10.1094 2.125 10.5V20.5C2.15104 20.8906 2.35938 21.099 2.75 21.125H20.25C20.6406 21.099 20.849 20.8906 20.875 20.5V10.5C20.849 10.1094 20.6406 9.90104 20.25 9.875H2.75ZM0.25 10.5C0.276042 9.79688 0.523438 9.21094 0.992188 8.74219C1.46094 8.27344 2.04688 8.02604 2.75 8H20.25C20.9531 8.02604 21.5391 8.27344 22.0078 8.74219C22.4766 9.21094 22.724 9.79688 22.75 10.5V20.5C22.724 21.2031 22.4766 21.7891 22.0078 22.2578C21.5391 22.7266 20.9531 22.974 20.25 23H2.75C2.04688 22.974 1.46094 22.7266 0.992188 22.2578C0.523438 21.7891 0.276042 21.2031 0.25 20.5V10.5ZM7.125 18H15.875C16.2656 18.026 16.474 18.2344 16.5 18.625V19.25C16.474 19.6406 16.2656 19.849 15.875 19.875H7.125C6.73438 19.849 6.52604 19.6406 6.5 19.25V18.625C6.52604 18.2344 6.73438 18.026 7.125 18ZM4.3125 15.1875C4.33854 14.7969 4.54688 14.5885 4.9375 14.5625H5.5625C5.95312 14.5885 6.16146 14.7969 6.1875 15.1875V15.8125C6.16146 16.2031 5.95312 16.4115 5.5625 16.4375H4.9375C4.54688 16.4115 4.33854 16.2031 4.3125 15.8125V15.1875ZM4.9375 11.4375H5.5625C5.95312 11.4635 6.16146 11.6719 6.1875 12.0625V12.6875C6.16146 13.0781 5.95312 13.2865 5.5625 13.3125H4.9375C4.54688 13.2865 4.33854 13.0781 4.3125 12.6875V12.0625C4.33854 11.6719 4.54688 11.4635 4.9375 11.4375ZM7.4375 15.1875C7.46354 14.7969 7.67188 14.5885 8.0625 14.5625H8.6875C9.07812 14.5885 9.28646 14.7969 9.3125 15.1875V15.8125C9.28646 16.2031 9.07812 16.4115 8.6875 16.4375H8.0625C7.67188 16.4115 7.46354 16.2031 7.4375 15.8125V15.1875ZM8.0625 11.4375H8.6875C9.07812 11.4635 9.28646 11.6719 9.3125 12.0625V12.6875C9.28646 13.0781 9.07812 13.2865 8.6875 13.3125H8.0625C7.67188 13.2865 7.46354 13.0781 7.4375 12.6875V12.0625C7.46354 11.6719 7.67188 11.4635 8.0625 11.4375ZM10.5625 15.1875C10.5885 14.7969 10.7969 14.5885 11.1875 14.5625H11.8125C12.2031 14.5885 12.4115 14.7969 12.4375 15.1875V15.8125C12.4115 16.2031 12.2031 16.4115 11.8125 16.4375H11.1875C10.7969 16.4115 10.5885 16.2031 10.5625 15.8125V15.1875ZM11.1875 11.4375H11.8125C12.2031 11.4635 12.4115 11.6719 12.4375 12.0625V12.6875C12.4115 13.0781 12.2031 13.2865 11.8125 13.3125H11.1875C10.7969 13.2865 10.5885 13.0781 10.5625 12.6875V12.0625C10.5885 11.6719 10.7969 11.4635 11.1875 11.4375ZM13.6875 15.1875C13.7135 14.7969 13.9219 14.5885 14.3125 14.5625H14.9375C15.3281 14.5885 15.5365 14.7969 15.5625 15.1875V15.8125C15.5365 16.2031 15.3281 16.4115 14.9375 16.4375H14.3125C13.9219 16.4115 13.7135 16.2031 13.6875 15.8125V15.1875ZM14.3125 11.4375H14.9375C15.3281 11.4635 15.5365 11.6719 15.5625 12.0625V12.6875C15.5365 13.0781 15.3281 13.2865 14.9375 13.3125H14.3125C13.9219 13.2865 13.7135 13.0781 13.6875 12.6875V12.0625C13.7135 11.6719 13.9219 11.4635 14.3125 11.4375ZM16.8125 15.1875C16.8385 14.7969 17.0469 14.5885 17.4375 14.5625H18.0625C18.4531 14.5885 18.6615 14.7969 18.6875 15.1875V15.8125C18.6615 16.2031 18.4531 16.4115 18.0625 16.4375H17.4375C17.0469 16.4115 16.8385 16.2031 16.8125 15.8125V15.1875ZM17.4375 11.4375H18.0625C18.4531 11.4635 18.6615 11.6719 18.6875 12.0625V12.6875C18.6615 13.0781 18.4531 13.2865 18.0625 13.3125H17.4375C17.0469 13.2865 16.8385 13.0781 16.8125 12.6875V12.0625C16.8385 11.6719 17.0469 11.4635 17.4375 11.4375Z" fill="black" fill-opacity="0.72"/>
</g>
<defs>
<clipPath id="clip0_1731_4879">
<rect width="23" height="30" fill="white"/>
</clipPath>
</defs>
</svg>
