<svg width="14" height="22" viewBox="0 0 14 22" fill="none" xmlns="http://www.w3.org/2000/svg">
<g id="label-paired / sm / calendar-range-sm / bold" clip-path="url(#clip0_1731_1859)">
<path id="icon" d="M5.03125 4.40625V5.5H8.96875V4.40625C9.00521 4.00521 9.22396 3.78646 9.625 3.75C10.026 3.78646 10.2448 4.00521 10.2812 4.40625V5.5H11.375C11.8672 5.51823 12.2773 5.69141 12.6055 6.01953C12.9336 6.34766 13.1068 6.75781 13.125 7.25V7.6875V9V16C13.1068 16.4922 12.9336 16.9023 12.6055 17.2305C12.2773 17.5586 11.8672 17.7318 11.375 17.75H2.625C2.13281 17.7318 1.72266 17.5586 1.39453 17.2305C1.06641 16.9023 0.893229 16.4922 0.875 16V9V7.6875V7.25C0.893229 6.75781 1.06641 6.34766 1.39453 6.01953C1.72266 5.69141 2.13281 5.51823 2.625 5.5H3.71875V4.40625C3.75521 4.00521 3.97396 3.78646 4.375 3.75C4.77604 3.78646 4.99479 4.00521 5.03125 4.40625ZM2.1875 9V16C2.20573 16.2734 2.35156 16.4193 2.625 16.4375H11.375C11.6484 16.4193 11.7943 16.2734 11.8125 16V9H2.1875ZM3.5 11.625C3.5 11.3698 3.58203 11.1602 3.74609 10.9961C3.91016 10.832 4.11979 10.75 4.375 10.75C4.63021 10.75 4.83984 10.832 5.00391 10.9961C5.16797 11.1602 5.25 11.3698 5.25 11.625C5.25 11.8802 5.16797 12.0898 5.00391 12.2539C4.83984 12.418 4.63021 12.5 4.375 12.5C4.11979 12.5 3.91016 12.418 3.74609 12.2539C3.58203 12.0898 3.5 11.8802 3.5 11.625ZM9.625 13.375C9.88021 13.375 10.0898 13.457 10.2539 13.6211C10.418 13.7852 10.5 13.9948 10.5 14.25C10.5 14.5052 10.418 14.7148 10.2539 14.8789C10.0898 15.043 9.88021 15.125 9.625 15.125C9.36979 15.125 9.16016 15.043 8.99609 14.8789C8.83203 14.7148 8.75 14.5052 8.75 14.25C8.75 13.9948 8.83203 13.7852 8.99609 13.6211C9.16016 13.457 9.36979 13.375 9.625 13.375ZM6.125 11.625C6.16146 11.224 6.38021 11.0052 6.78125 10.9688H9.84375C10.2448 11.0052 10.4635 11.224 10.5 11.625C10.4635 12.026 10.2448 12.2448 9.84375 12.2812H6.78125C6.38021 12.2448 6.16146 12.026 6.125 11.625ZM7.21875 13.5938C7.61979 13.6302 7.83854 13.849 7.875 14.25C7.83854 14.651 7.61979 14.8698 7.21875 14.9062H4.15625C3.75521 14.8698 3.53646 14.651 3.5 14.25C3.53646 13.849 3.75521 13.6302 4.15625 13.5938H7.21875Z" fill="black" fill-opacity="0.72"/>
</g>
<defs>
<clipPath id="clip0_1731_1859">
<rect width="14" height="22" fill="white"/>
</clipPath>
</defs>
</svg>
