<svg width="20" height="30" viewBox="0 0 20 30" fill="none" xmlns="http://www.w3.org/2000/svg">
<g id="label-paired / lg / ubuntu-lg" clip-path="url(#clip0_1731_14041)">
<path id="icon" d="M10 5.8125C11.7969 5.83854 13.4245 6.28125 14.8828 7.14062C16.3411 8 17.5 9.15885 18.3594 10.6172C19.2188 12.0755 19.6615 13.7031 19.6875 15.5C19.6615 17.2969 19.2188 18.9245 18.3594 20.3828C17.5 21.8411 16.3411 23 14.8828 23.8594C13.4245 24.7188 11.7969 25.1615 10 25.1875C8.20312 25.1615 6.57552 24.7188 5.11719 23.8594C3.65885 23 2.5 21.8411 1.64062 20.3828C0.78125 18.9245 0.338542 17.2969 0.3125 15.5C0.338542 13.7031 0.78125 12.0755 1.64062 10.6172C2.5 9.15885 3.65885 8 5.11719 7.14062C6.57552 6.28125 8.20312 5.83854 10 5.8125ZM12.0703 9.44531C11.888 9.75781 11.849 10.0703 11.9531 10.3828C12.0312 10.6953 12.2135 10.9557 12.5 11.1641C12.8125 11.3203 13.138 11.3594 13.4766 11.2812C13.7891 11.1771 14.0365 10.9818 14.2188 10.6953C14.375 10.3828 14.4141 10.0703 14.3359 9.75781C14.2578 9.41927 14.0625 9.15885 13.75 8.97656C13.4375 8.82031 13.125 8.78125 12.8125 8.85938C12.5 8.9375 12.2526 9.13281 12.0703 9.44531ZM3.71094 16.75C4.07552 16.75 4.375 16.6328 4.60938 16.3984C4.84375 16.1641 4.96094 15.8646 4.96094 15.5C4.96094 15.1354 4.84375 14.8359 4.60938 14.6016C4.375 14.3672 4.07552 14.25 3.71094 14.25C3.3724 14.25 3.08594 14.3672 2.85156 14.6016C2.61719 14.8359 2.5 15.1354 2.5 15.5C2.5 15.8646 2.61719 16.1641 2.85156 16.3984C3.08594 16.6328 3.3724 16.75 3.71094 16.75ZM4.84375 16.8672C5.20833 18.1693 5.9375 19.1979 7.03125 19.9531L7.96875 18.3906C6.95312 17.6354 6.44531 16.6719 6.44531 15.5C6.44531 14.3281 6.95312 13.3646 7.96875 12.6094L7.03125 11.0469C5.9375 11.8021 5.20833 12.8307 4.84375 14.1328C5.26042 14.5234 5.46875 14.9792 5.46875 15.5C5.46875 16.0469 5.26042 16.5026 4.84375 16.8672ZM13.75 22.0234C14.0625 21.8411 14.2578 21.5807 14.3359 21.2422C14.4141 20.9297 14.375 20.6172 14.2188 20.3047C14.0365 20.0182 13.7891 19.8229 13.4766 19.7188C13.138 19.6406 12.8125 19.6797 12.5 19.8359C12.2135 20.0182 12.0312 20.2786 11.9531 20.6172C11.849 20.9297 11.888 21.2422 12.0703 21.5547C12.2526 21.8672 12.5 22.0625 12.8125 22.1406C13.125 22.2188 13.4375 22.1797 13.75 22.0234ZM13.7891 19.2891C14.7005 18.3776 15.2214 17.2318 15.3516 15.8516L13.5547 15.8125C13.3724 17.0625 12.7865 17.987 11.7969 18.5859C10.7812 19.1589 9.6875 19.2109 8.51562 18.7422L7.61719 20.3047C8.55469 20.7214 9.375 20.9036 10.0781 20.8516C10.7812 20.7995 11.224 20.7344 11.4062 20.6562C11.5104 20.0833 11.7969 19.6667 12.2656 19.4062C12.7344 19.1458 13.2422 19.1068 13.7891 19.2891ZM13.5547 15.1875L15.3516 15.1484C15.2214 13.7682 14.6875 12.6224 13.75 11.7109C13.2292 11.8932 12.7344 11.8542 12.2656 11.5938C11.7969 11.3333 11.5104 10.9167 11.4062 10.3438C11.4062 10.3438 11.3932 10.3438 11.3672 10.3438C11.2109 10.2656 10.7812 10.2005 10.0781 10.1484C9.375 10.0964 8.55469 10.2786 7.61719 10.6953L8.51562 12.2969C9.6875 11.8021 10.7812 11.8411 11.7969 12.4141C12.7865 13.013 13.3724 13.9375 13.5547 15.1875Z" fill="black" fill-opacity="0.72"/>
</g>
<defs>
<clipPath id="clip0_1731_14041">
<rect width="20" height="30" fill="white"/>
</clipPath>
</defs>
</svg>
