<svg width="12" height="24" viewBox="0 0 12 24" fill="none" xmlns="http://www.w3.org/2000/svg">
<g id="label-paired / md / bookmark-md / bold" clip-path="url(#clip0_1731_3127)">
<path id="icon" d="M0 5.5C0.0208333 5.08333 0.166667 4.72917 0.4375 4.4375C0.729167 4.16667 1.08333 4.02083 1.5 4V5.5V17.7812L5.5625 14.9062C5.85417 14.7188 6.14583 14.7188 6.4375 14.9062L10.5 17.7812V5.5H1.5V4H10.5C10.9167 4.02083 11.2708 4.16667 11.5625 4.4375C11.8333 4.72917 11.9792 5.08333 12 5.5V19.25C12 19.5417 11.8646 19.7604 11.5938 19.9062C11.3229 20.0312 11.0625 20.0208 10.8125 19.875L6 16.4375L1.1875 19.875C0.9375 20.0208 0.677083 20.0312 0.40625 19.9062C0.15625 19.7604 0.0208333 19.5417 0 19.25V5.5Z" fill="black" fill-opacity="0.72"/>
</g>
<defs>
<clipPath id="clip0_1731_3127">
<rect width="12" height="24" fill="white"/>
</clipPath>
</defs>
</svg>
