<svg width="25" height="30" viewBox="0 0 25 30" fill="none" xmlns="http://www.w3.org/2000/svg">
<g id="label-paired / lg / fiat-onramp-lg / bold" clip-path="url(#clip0_1731_5152)">
<path id="icon" d="M17.3047 7.375C16.1328 7.41406 15.0391 8.03906 14.4531 9.05469C13.8672 10.0703 13.8672 11.3203 14.4531 12.3359C15.0391 13.3516 16.1328 13.9766 17.3047 13.9766C18.4766 13.9766 19.5703 13.3516 20.1562 12.3359C20.7422 11.3203 20.7422 10.0703 20.1562 9.05469C19.5703 8.03906 18.4766 7.375 17.3047 7.375ZM20.625 14.6797C19.7266 15.4219 18.5547 15.8516 17.3047 15.8516C15.625 15.8516 14.1016 15.0312 13.1641 13.7422L10.7031 16.2031C11.9922 17.1406 12.8125 18.6641 12.8125 20.3438C12.8125 21.5938 12.3828 22.7656 11.6406 23.625H19.1406C19.9609 23.625 20.625 22.9609 20.625 22.1797V14.6797ZM7.65625 23.625C9.45312 23.625 10.9375 22.1797 10.9375 20.3438C10.9375 18.9766 10.0781 17.7656 8.86719 17.2969H8.82812C8.47656 17.1406 8.08594 17.0625 7.65625 17.0625C5.82031 17.0625 4.375 18.5469 4.375 20.3438C4.375 22.1797 5.82031 23.625 7.65625 23.625ZM8.90625 15.3438L12.3047 11.9453C12.1875 11.5547 12.1484 11.125 12.1484 10.6953C12.1484 7.84375 14.4531 5.5 17.3047 5.5C20.1562 5.5 22.5 7.84375 22.5 10.6953V22.1797C22.5 24.0156 20.9766 25.5 19.1406 25.5H7.65625C4.80469 25.5 2.5 23.1953 2.5 20.3438C2.5 17.4922 4.80469 15.1875 7.65625 15.1875C8.08594 15.1875 8.51562 15.2266 8.90625 15.3438ZM6.05469 10.0703C6.05469 9.5625 6.48438 9.13281 6.99219 9.13281H10.6641C11.0547 9.13281 11.4062 9.36719 11.5234 9.71875C11.6797 10.0703 11.6016 10.4609 11.3281 10.7344L7.69531 14.3672C7.34375 14.7188 6.75781 14.7188 6.36719 14.3672C6.01562 14.0156 6.01562 13.3906 6.36719 13.0391L8.39844 11.0078H6.99219C6.48438 11.0078 6.05469 10.6172 6.05469 10.0703ZM16.7578 8.07812V8.82031H17.5V8.07812H18.2422V8.82031C18.5156 8.82031 18.7891 8.89844 18.9844 9.09375C19.4531 9.52344 19.4922 10.2266 19.0625 10.6953C19.2578 10.8906 19.375 11.1641 19.375 11.4375C19.375 12.0625 18.8672 12.5703 18.2422 12.5703V13.3125H17.5V12.5703H16.7578V13.3125H16.0156V12.5703H15.2734V11.8281H16.0156V9.5625H15.2734V8.82031H16.0156V8.07812H16.7578ZM18.2422 11.0469H16.7578V11.8281H18.2422C18.4375 11.8281 18.6328 11.6328 18.6328 11.4375C18.6328 11.2422 18.4375 11.0469 18.2422 11.0469ZM18.2422 9.5625H16.7578V10.3047H18.2422C18.4375 10.3047 18.6328 10.1484 18.6328 9.95312C18.6328 9.71875 18.4375 9.5625 18.2422 9.5625ZM8.125 17.5312V17.9219C8.71094 18.1562 9.14062 18.7031 9.14062 19.3281V19.4453H8.20312V19.3281C8.20312 19.0156 7.96875 18.7812 7.65625 18.7812C7.34375 18.7812 7.10938 19.0156 7.10938 19.3281C7.10938 19.6406 7.34375 19.875 7.65625 19.875C8.47656 19.875 9.14062 20.5391 9.14062 21.3594C9.14062 21.9844 8.71094 22.5312 8.125 22.7656V23.1562H7.1875V22.7266C6.60156 22.5312 6.21094 21.9844 6.21094 21.3594V21.2031H7.10938V21.3594C7.10938 21.6328 7.34375 21.9062 7.65625 21.9062C7.96875 21.9062 8.20312 21.6328 8.20312 21.3594C8.20312 21.0469 7.96875 20.8125 7.65625 20.8125C6.83594 20.8125 6.21094 20.1484 6.21094 19.3281C6.21094 18.7031 6.60156 18.1172 7.1875 17.9219V17.5312H8.125Z" fill="black" fill-opacity="0.72"/>
</g>
<defs>
<clipPath id="clip0_1731_5152">
<rect width="25" height="30" fill="white"/>
</clipPath>
</defs>
</svg>
