<svg width="9" height="22" viewBox="0 0 9 22" fill="none" xmlns="http://www.w3.org/2000/svg">
<g id="label-paired / sm / two-sm / regular" clip-path="url(#clip0_1731_2258)">
<path id="icon" d="M4.17188 5.5C3.35156 5.51823 2.64974 5.8099 2.06641 6.375L1.30078 7.11328C1.10026 7.29557 0.89974 7.29557 0.699219 7.11328C0.516927 6.91276 0.516927 6.71224 0.699219 6.51172L1.4375 5.74609C2.20312 5.01693 3.11458 4.64323 4.17188 4.625C5.2474 4.64323 6.14974 5.01693 6.87891 5.74609C7.58984 6.45703 7.96354 7.35026 8 8.42578C7.98177 9.51953 7.58073 10.4401 6.79688 11.1875L1.68359 16H8.4375C8.71094 16.0182 8.85677 16.1641 8.875 16.4375C8.85677 16.7109 8.71094 16.8568 8.4375 16.875H0.5625C0.361979 16.875 0.22526 16.7839 0.152344 16.6016C0.0976562 16.4193 0.134115 16.2552 0.261719 16.1094L6.19531 10.5586C6.79688 9.97526 7.10677 9.26432 7.125 8.42578C7.10677 7.60547 6.8151 6.91276 6.25 6.34766C5.70312 5.80078 5.01042 5.51823 4.17188 5.5Z" fill="black" fill-opacity="0.72"/>
</g>
<defs>
<clipPath id="clip0_1731_2258">
<rect width="9" height="22" fill="white"/>
</clipPath>
</defs>
</svg>
