<svg width="20" height="30" viewBox="0 0 20 30" fill="none" xmlns="http://www.w3.org/2000/svg">
<g id="label-paired / lg / globe-lg / regular" clip-path="url(#clip0_1731_4781)">
<path id="icon" d="M10 24.25C10.3385 24.25 10.7161 24.0807 11.1328 23.7422C11.5495 23.4036 11.9792 22.8307 12.4219 22.0234C12.8125 21.2422 13.125 20.3177 13.3594 19.25H6.64062C6.875 20.3177 7.1875 21.2422 7.57812 22.0234C8.02083 22.8307 8.45052 23.4036 8.86719 23.7422C9.28385 24.0807 9.66146 24.25 10 24.25ZM6.40625 18H13.5938C13.6979 17.2188 13.75 16.3854 13.75 15.5C13.75 14.6146 13.6979 13.7812 13.5938 13H6.40625C6.30208 13.7812 6.25 14.6146 6.25 15.5C6.25 16.3854 6.30208 17.2188 6.40625 18ZM6.64062 11.75H13.3594C13.125 10.6823 12.8125 9.75781 12.4219 8.97656C11.9792 8.16927 11.5495 7.59635 11.1328 7.25781C10.7161 6.91927 10.3385 6.75 10 6.75C9.66146 6.75 9.28385 6.91927 8.86719 7.25781C8.45052 7.59635 8.02083 8.16927 7.57812 8.97656C7.1875 9.75781 6.875 10.6823 6.64062 11.75ZM14.8438 13C14.9479 13.8073 15 14.6406 15 15.5C15 16.3594 14.9479 17.1927 14.8438 18H18.3984C18.6328 17.1927 18.75 16.3594 18.75 15.5C18.75 14.6406 18.6328 13.8073 18.3984 13H14.8438ZM17.9297 11.75C17.4089 10.6823 16.7057 9.75781 15.8203 8.97656C14.9349 8.19531 13.9323 7.60938 12.8125 7.21875C13.6458 8.33854 14.2578 9.84896 14.6484 11.75H17.9297ZM5.35156 11.75C5.74219 9.84896 6.36719 8.33854 7.22656 7.21875C6.08073 7.60938 5.0651 8.19531 4.17969 8.97656C3.29427 9.75781 2.60417 10.6823 2.10938 11.75H5.35156ZM1.60156 13C1.36719 13.8073 1.25 14.6406 1.25 15.5C1.25 16.3594 1.36719 17.1927 1.60156 18H5.15625C5.05208 17.1927 5 16.3594 5 15.5C5 14.6406 5.05208 13.8073 5.15625 13H1.60156ZM12.8125 23.7812C13.9323 23.3906 14.9349 22.8047 15.8203 22.0234C16.7057 21.2422 17.3958 20.3177 17.8906 19.25H14.6484C14.2578 21.151 13.6458 22.6615 12.8125 23.7812ZM7.22656 23.7812C6.36719 22.6615 5.74219 21.151 5.35156 19.25H2.10938C2.60417 20.3177 3.29427 21.2422 4.17969 22.0234C5.0651 22.8047 6.08073 23.3906 7.22656 23.7812ZM10 25.5C8.17708 25.474 6.51042 25.0312 5 24.1719C3.48958 23.2865 2.26562 22.0625 1.32812 20.5C0.442708 18.9115 0 17.2448 0 15.5C0 13.7552 0.442708 12.0885 1.32812 10.5C2.26562 8.9375 3.48958 7.71354 5 6.82812C6.51042 5.96875 8.17708 5.52604 10 5.5C11.8229 5.52604 13.4896 5.96875 15 6.82812C16.5104 7.71354 17.7344 8.9375 18.6719 10.5C19.5573 12.0885 20 13.7552 20 15.5C20 17.2448 19.5573 18.9115 18.6719 20.5C17.7344 22.0625 16.5104 23.2865 15 24.1719C13.4896 25.0312 11.8229 25.474 10 25.5Z" fill="black" fill-opacity="0.72"/>
</g>
<defs>
<clipPath id="clip0_1731_4781">
<rect width="20" height="30" fill="white"/>
</clipPath>
</defs>
</svg>
