<svg width="24" height="36" viewBox="0 0 24 36" fill="none" xmlns="http://www.w3.org/2000/svg">
<g id="label-paired / xl / search-xl / regular" clip-path="url(#clip0_1731_5651)">
<path id="icon" d="M18 15.75C18 14.25 17.625 12.875 16.875 11.625C16.1562 10.375 15.1562 9.375 13.875 8.625C12.5625 7.875 11.1875 7.5 9.75 7.5C8.3125 7.5 6.9375 7.875 5.625 8.625C4.34375 9.375 3.34375 10.375 2.625 11.625C1.875 12.875 1.5 14.25 1.5 15.75C1.5 17.25 1.875 18.625 2.625 19.875C3.34375 21.125 4.34375 22.125 5.625 22.875C6.9375 23.625 8.3125 24 9.75 24C11.1875 24 12.5625 23.625 13.875 22.875C15.1562 22.125 16.1562 21.125 16.875 19.875C17.625 18.625 18 17.25 18 15.75ZM16.0781 23.1562C14.3281 24.6562 12.2188 25.4375 9.75 25.5C7 25.4375 4.70312 24.4844 2.85938 22.6406C1.01563 20.7969 0.0625 18.5 0 15.75C0.0625 13 1.01563 10.7031 2.85938 8.85938C4.70312 7.01563 7 6.0625 9.75 6C12.5 6.0625 14.7969 7.01563 16.6406 8.85938C18.4844 10.7031 19.4375 13 19.5 15.75C19.4375 18.2188 18.6562 20.3281 17.1562 22.0781L23.7656 28.7344C24.0781 29.0781 24.0781 29.4219 23.7656 29.7656C23.4219 30.0781 23.0781 30.0781 22.7344 29.7656L16.0781 23.1562Z" fill="black" fill-opacity="0.72"/>
</g>
<defs>
<clipPath id="clip0_1731_5651">
<rect width="24" height="36" fill="white"/>
</clipPath>
</defs>
</svg>
