<svg width="16" height="24" viewBox="0 0 16 24" fill="none" xmlns="http://www.w3.org/2000/svg">
<g id="label-paired / md / circle-caret-up-md / regular" clip-path="url(#clip0_1731_4162)">
<path id="icon" d="M8 5C6.72917 5.02083 5.5625 5.33333 4.5 5.9375C3.4375 6.5625 2.58333 7.41667 1.9375 8.5C1.3125 9.60417 1 10.7708 1 12C1 13.2292 1.3125 14.3958 1.9375 15.5C2.58333 16.5833 3.4375 17.4375 4.5 18.0625C5.5625 18.6667 6.72917 18.9792 8 19C9.27083 18.9792 10.4375 18.6667 11.5 18.0625C12.5625 17.4375 13.4167 16.5833 14.0625 15.5C14.6875 14.3958 15 13.2292 15 12C15 10.7708 14.6875 9.60417 14.0625 8.5C13.4167 7.41667 12.5625 6.5625 11.5 5.9375C10.4375 5.33333 9.27083 5.02083 8 5ZM8 20C6.54167 19.9792 5.20833 19.625 4 18.9375C2.79167 18.2292 1.8125 17.25 1.0625 16C0.354167 14.7292 0 13.3958 0 12C0 10.6042 0.354167 9.27083 1.0625 8C1.8125 6.75 2.79167 5.77083 4 5.0625C5.20833 4.375 6.54167 4.02083 8 4C9.45833 4.02083 10.7917 4.375 12 5.0625C13.2083 5.77083 14.1875 6.75 14.9375 8C15.6458 9.27083 16 10.6042 16 12C16 13.3958 15.6458 14.7292 14.9375 16C14.1875 17.25 13.2083 18.2292 12 18.9375C10.7917 19.625 9.45833 19.9792 8 20ZM8 9C8.3125 9 8.57292 9.11458 8.78125 9.34375L11.7812 12.5625C11.9271 12.7292 12 12.9271 12 13.1562C12 13.3854 11.9167 13.5833 11.75 13.75C11.5833 13.9167 11.3854 14 11.1562 14H4.875C4.625 14 4.41667 13.9167 4.25 13.75C4.08333 13.5833 4 13.3854 4 13.1562C4 12.9271 4.07292 12.7292 4.21875 12.5625L7.21875 9.34375C7.42708 9.11458 7.6875 9 8 9ZM7.9375 10.0312L5.1875 13H10.8125L8.0625 10.0312C8.04167 10.0104 8.02083 10 8 10C7.97917 10 7.95833 10.0104 7.9375 10.0312Z" fill="black" fill-opacity="0.72"/>
</g>
<defs>
<clipPath id="clip0_1731_4162">
<rect width="16" height="24" fill="white"/>
</clipPath>
</defs>
</svg>
