<svg width="12" height="18" viewBox="0 0 12 18" fill="none" xmlns="http://www.w3.org/2000/svg">
<g id="label-paired / caption / circle-dot-caption / fill" clip-path="url(#clip0_1731_804)">
<path id="icon" d="M6 15.5C4.90625 15.4844 3.90625 15.2188 3 14.7031C2.09375 14.1719 1.35938 13.4375 0.796875 12.5C0.265625 11.5469 0 10.5469 0 9.5C0 8.45312 0.265625 7.45312 0.796875 6.5C1.35938 5.5625 2.09375 4.82812 3 4.29688C3.90625 3.78125 4.90625 3.51563 6 3.5C7.09375 3.51563 8.09375 3.78125 9 4.29688C9.90625 4.82812 10.6406 5.5625 11.2031 6.5C11.7344 7.45312 12 8.45312 12 9.5C12 10.5469 11.7344 11.5469 11.2031 12.5C10.6406 13.4375 9.90625 14.1719 9 14.7031C8.09375 15.2188 7.09375 15.4844 6 15.5ZM6 7.25C5.59375 7.25 5.21875 7.35156 4.875 7.55469C4.53125 7.75781 4.25781 8.03125 4.05469 8.375C3.85156 8.73438 3.75 9.10938 3.75 9.5C3.75 9.89062 3.85156 10.2656 4.05469 10.625C4.25781 10.9688 4.53125 11.2422 4.875 11.4453C5.21875 11.6484 5.59375 11.75 6 11.75C6.40625 11.75 6.78125 11.6484 7.125 11.4453C7.46875 11.2422 7.74219 10.9688 7.94531 10.625C8.14844 10.2656 8.25 9.89062 8.25 9.5C8.25 9.10938 8.14844 8.73438 7.94531 8.375C7.74219 8.03125 7.46875 7.75781 7.125 7.55469C6.78125 7.35156 6.40625 7.25 6 7.25Z" fill="black" fill-opacity="0.72"/>
</g>
<defs>
<clipPath id="clip0_1731_804">
<rect width="12" height="18" fill="white"/>
</clipPath>
</defs>
</svg>
