<svg width="16" height="22" viewBox="0 0 16 22" fill="none" xmlns="http://www.w3.org/2000/svg">
<g id="label-paired / sm / video-sm / bold" clip-path="url(#clip0_1731_2824)">
<path id="icon" d="M1.875 6.8125C1.60156 6.83073 1.45573 6.97656 1.4375 7.25V14.25C1.45573 14.5234 1.60156 14.6693 1.875 14.6875H8.875C9.14844 14.6693 9.29427 14.5234 9.3125 14.25V7.25C9.29427 6.97656 9.14844 6.83073 8.875 6.8125H1.875ZM0.125 7.25C0.143229 6.75781 0.316406 6.34766 0.644531 6.01953C0.972656 5.69141 1.38281 5.51823 1.875 5.5H8.875C9.36719 5.51823 9.77734 5.69141 10.1055 6.01953C10.4336 6.34766 10.6068 6.75781 10.625 7.25V8.15234V13.3477V14.25C10.6068 14.7422 10.4336 15.1523 10.1055 15.4805C9.77734 15.8086 9.36719 15.9818 8.875 16H1.875C1.38281 15.9818 0.972656 15.8086 0.644531 15.4805C0.316406 15.1523 0.143229 14.7422 0.125 14.25V7.25ZM14.5625 13.6758V7.82422L11.5 9.19141V7.74219L14.3438 6.48438C14.4896 6.41146 14.6445 6.375 14.8086 6.375C15.1003 6.375 15.3464 6.48438 15.5469 6.70312C15.7656 6.90365 15.875 7.15885 15.875 7.46875V14.0586C15.875 14.3503 15.7656 14.5964 15.5469 14.7969C15.3464 15.0156 15.1003 15.125 14.8086 15.125C14.6445 15.125 14.4896 15.0977 14.3438 15.043L11.5 13.7578V12.3086L14.5625 13.6758Z" fill="black" fill-opacity="0.72"/>
</g>
<defs>
<clipPath id="clip0_1731_2824">
<rect width="16" height="22" fill="white"/>
</clipPath>
</defs>
</svg>
