<svg width="13" height="30" viewBox="0 0 13 30" fill="none" xmlns="http://www.w3.org/2000/svg">
<g id="label-paired / lg / forward-step-lg / fill" clip-path="url(#clip0_1731_5027)">
<path id="icon" d="M2.32031 22.7266C1.90365 23.0391 1.44792 23.0911 0.953125 22.8828C0.510417 22.6484 0.276042 22.2708 0.25 21.75V9.25C0.276042 8.72917 0.510417 8.35156 0.953125 8.11719C1.44792 7.90885 1.90365 7.96094 2.32031 8.27344L9.82031 14.5234L10.25 14.9141V9.25C10.25 8.88542 10.3672 8.58594 10.6016 8.35156C10.8359 8.11719 11.1354 8 11.5 8C11.8646 8 12.1641 8.11719 12.3984 8.35156C12.6328 8.58594 12.75 8.88542 12.75 9.25V21.75C12.75 22.1146 12.6328 22.4141 12.3984 22.6484C12.1641 22.8828 11.8646 23 11.5 23C11.1354 23 10.8359 22.8828 10.6016 22.6484C10.3672 22.4141 10.25 22.1146 10.25 21.75V16.0859L9.82031 16.4766L2.32031 22.7266Z" fill="black" fill-opacity="0.72"/>
</g>
<defs>
<clipPath id="clip0_1731_5027">
<rect width="13" height="30" fill="white"/>
</clipPath>
</defs>
</svg>
