<svg width="13" height="22" viewBox="0 0 13 22" fill="none" xmlns="http://www.w3.org/2000/svg">
<g id="label-paired / sm / image-polaroid-user-sm / bold" clip-path="url(#clip0_1731_3039)">
<path id="icon" d="M1.6875 15.125C1.70573 15.3984 1.85156 15.5443 2.125 15.5625H10.875C11.1484 15.5443 11.2943 15.3984 11.3125 15.125V13.8125H1.6875V15.125ZM9.50781 12.5H11.3125V6.375C11.2943 6.10156 11.1484 5.95573 10.875 5.9375H2.125C1.85156 5.95573 1.70573 6.10156 1.6875 6.375V12.5H3.49219C3.60156 12.1172 3.80208 11.8073 4.09375 11.5703C4.40365 11.3151 4.76823 11.1875 5.1875 11.1875H7.8125C8.23177 11.1875 8.59635 11.3151 8.90625 11.5703C9.19792 11.8073 9.39844 12.1172 9.50781 12.5ZM12.625 6.375V12.5V13.1562V13.8125V15.125C12.6068 15.6172 12.4336 16.0273 12.1055 16.3555C11.7773 16.6836 11.3672 16.8568 10.875 16.875H2.125C1.63281 16.8568 1.22266 16.6836 0.894531 16.3555C0.566406 16.0273 0.393229 15.6172 0.375 15.125V13.8125V13.1562V12.5V6.375C0.393229 5.88281 0.566406 5.47266 0.894531 5.14453C1.22266 4.81641 1.63281 4.64323 2.125 4.625H10.875C11.3672 4.64323 11.7773 4.81641 12.1055 5.14453C12.4336 5.47266 12.6068 5.88281 12.625 6.375ZM4.75 8.5625C4.76823 7.90625 5.0599 7.40495 5.625 7.05859C6.20833 6.73047 6.79167 6.73047 7.375 7.05859C7.9401 7.40495 8.23177 7.90625 8.25 8.5625C8.23177 9.21875 7.9401 9.72005 7.375 10.0664C6.79167 10.3945 6.20833 10.3945 5.625 10.0664C5.0599 9.72005 4.76823 9.21875 4.75 8.5625Z" fill="black" fill-opacity="0.72"/>
</g>
<defs>
<clipPath id="clip0_1731_3039">
<rect width="13" height="22" fill="white"/>
</clipPath>
</defs>
</svg>
