<svg width="20" height="30" viewBox="0 0 20 30" fill="none" xmlns="http://www.w3.org/2000/svg">
<g id="label-paired / lg / right-to-bracket-lg / bold" clip-path="url(#clip0_1731_5411)">
<path id="icon" d="M7.5 19.7969L11.7969 15.5L7.5 11.2031V13.3125C7.44792 13.8854 7.13542 14.1979 6.5625 14.25H1.875V16.75H6.5625C7.13542 16.8021 7.44792 17.1146 7.5 17.6875V19.7969ZM13.75 15.5C13.75 15.9688 13.5807 16.3724 13.2422 16.7109L8.71094 21.2031C8.3724 21.5677 7.94271 21.75 7.42188 21.75C6.92708 21.75 6.51042 21.5677 6.17188 21.2031C5.83333 20.8646 5.65104 20.4479 5.625 19.9531V18.625H1.875C1.35417 18.599 0.911458 18.4167 0.546875 18.0781C0.208333 17.7135 0.0260417 17.2708 0 16.75V14.25C0.0260417 13.7292 0.208333 13.2865 0.546875 12.9219C0.911458 12.5833 1.35417 12.401 1.875 12.375H5.625V11.0469C5.65104 10.5521 5.83333 10.1354 6.17188 9.79688C6.51042 9.43229 6.92708 9.25 7.42188 9.25C7.91667 9.25 8.34635 9.43229 8.71094 9.79688L13.2422 14.2891C13.5807 14.6276 13.75 15.0312 13.75 15.5ZM13.4375 22.375H16.5625C17.0052 22.375 17.3698 22.2188 17.6562 21.9062C17.9688 21.6198 18.125 21.2552 18.125 20.8125V10.1875C18.125 9.74479 17.9688 9.38021 17.6562 9.09375C17.3698 8.78125 17.0052 8.625 16.5625 8.625H13.4375C12.8646 8.57292 12.5521 8.26042 12.5 7.6875C12.5521 7.11458 12.8646 6.80208 13.4375 6.75H16.5625C17.526 6.77604 18.3333 7.11458 18.9844 7.76562C19.6354 8.41667 19.974 9.22396 20 10.1875V20.8125C19.974 21.776 19.6354 22.5833 18.9844 23.2344C18.3333 23.8854 17.526 24.224 16.5625 24.25H13.4375C12.8646 24.1979 12.5521 23.8854 12.5 23.3125C12.5521 22.7396 12.8646 22.4271 13.4375 22.375Z" fill="black" fill-opacity="0.72"/>
</g>
<defs>
<clipPath id="clip0_1731_5411">
<rect width="20" height="30" fill="white"/>
</clipPath>
</defs>
</svg>
