<svg width="12" height="18" viewBox="0 0 12 18" fill="none" xmlns="http://www.w3.org/2000/svg">
<g id="label-paired / caption / pen-caption / regular" clip-path="url(#clip0_1731_1466)">
<path id="icon" d="M9.28125 4.4375L7.99219 5.70312L9.79688 7.50781L11.0625 6.21875C11.2812 5.95312 11.2812 5.6875 11.0625 5.42188L10.0781 4.4375C9.8125 4.21875 9.54688 4.21875 9.28125 4.4375ZM7.45312 6.24219L1.94531 11.75C1.77344 11.9375 1.64844 12.1562 1.57031 12.4062L0.9375 14.5625L3.09375 13.9297C3.34375 13.8516 3.5625 13.7266 3.75 13.5547L9.25781 8.04688L7.45312 6.24219ZM10.5938 3.89844L11.6016 4.90625C11.8516 5.17188 11.9766 5.47656 11.9766 5.82031C11.9766 6.17969 11.8516 6.49219 11.6016 6.75781L4.26562 14.0703C4 14.3516 3.6875 14.5469 3.32812 14.6562L0.492188 15.4766C0.335938 15.5234 0.210938 15.4922 0.117188 15.3828C0.0078125 15.2891 -0.0234375 15.1719 0.0234375 15.0312L0.84375 12.1953C0.953125 11.8203 1.14062 11.5 1.40625 11.2344L8.74219 3.89844C9.00781 3.64844 9.32031 3.52344 9.67969 3.52344C10.0234 3.52344 10.3281 3.64844 10.5938 3.89844Z" fill="black" fill-opacity="0.72"/>
</g>
<defs>
<clipPath id="clip0_1731_1466">
<rect width="12" height="18" fill="white"/>
</clipPath>
</defs>
</svg>
