<svg width="30" height="36" viewBox="0 0 30 36" fill="none" xmlns="http://www.w3.org/2000/svg">
<g id="label-paired / xl / chart-trend-down-xl / regular" clip-path="url(#clip0_1885_590)">
<path id="icon" d="M28.8281 29.2031C28.4531 29.3906 27.9844 29.25 27.7969 28.875L23.5312 20.25H16.5C16.1719 20.25 15.9375 20.1094 15.7969 19.875L10.125 8.53125L1.82812 12.7031C1.45312 12.8906 0.984375 12.7031 0.796875 12.375C0.609375 12 0.75 11.5312 1.125 11.3438L10.125 6.84375C10.5 6.65625 10.9688 6.79688 11.1562 7.17188L16.9219 18.75H24C24.2812 18.75 24.5156 18.9375 24.6562 19.1719L29.1562 28.1719C29.3438 28.5469 29.2031 29.0156 28.8281 29.2031Z" fill="black" fill-opacity="0.72"/>
</g>
<defs>
<clipPath id="clip0_1885_590">
<rect width="30" height="36" fill="white"/>
</clipPath>
</defs>
</svg>
