<svg width="8" height="18" viewBox="0 0 8 18" fill="none" xmlns="http://www.w3.org/2000/svg">
<g id="label-paired / caption / caret-down-caption / regular" clip-path="url(#clip0_1731_1651)">
<path id="icon" d="M4.14062 11.7031L6.95312 9.03125C6.98438 9 7 8.96094 7 8.91406C6.98438 8.82031 6.92969 8.76562 6.83594 8.75H1.16406C1.07031 8.76562 1.01562 8.82031 1 8.91406C1 8.96094 1.01562 9 1.04688 9.03125L3.85938 11.7031C3.90625 11.7344 3.95312 11.75 4 11.75C4.04688 11.75 4.09375 11.7344 4.14062 11.7031ZM4.65625 12.2422C4.46875 12.4141 4.25 12.5 4 12.5C3.75 12.5 3.53125 12.4141 3.34375 12.2422L0.53125 9.59375C0.34375 9.40625 0.25 9.17969 0.25 8.91406C0.25 8.64844 0.335938 8.42969 0.507812 8.25781C0.679688 8.08594 0.898438 8 1.16406 8H6.83594C7.10156 8.01562 7.32031 8.10938 7.49219 8.28125C7.66406 8.45312 7.75 8.66406 7.75 8.91406C7.75 9.17969 7.65625 9.40625 7.46875 9.59375L4.65625 12.2422Z" fill="black" fill-opacity="0.72"/>
</g>
<defs>
<clipPath id="clip0_1731_1651">
<rect width="8" height="18" fill="white"/>
</clipPath>
</defs>
</svg>
