<svg width="2" height="22" viewBox="0 0 2 22" fill="none" xmlns="http://www.w3.org/2000/svg">
<g id="label-paired / sm / exclamation-sm / bold" clip-path="url(#clip0_1731_2876)">
<path id="icon" d="M1.65625 5.28125V13.1562C1.61979 13.5573 1.40104 13.776 1 13.8125C0.598958 13.776 0.380208 13.5573 0.34375 13.1562V5.28125C0.380208 4.88021 0.598958 4.66146 1 4.625C1.40104 4.66146 1.61979 4.88021 1.65625 5.28125ZM1 16.875C0.744792 16.875 0.535156 16.793 0.371094 16.6289C0.207031 16.4648 0.125 16.2552 0.125 16C0.125 15.7448 0.207031 15.5352 0.371094 15.3711C0.535156 15.207 0.744792 15.125 1 15.125C1.25521 15.125 1.46484 15.207 1.62891 15.3711C1.79297 15.5352 1.875 15.7448 1.875 16C1.875 16.2552 1.79297 16.4648 1.62891 16.6289C1.46484 16.793 1.25521 16.875 1 16.875Z" fill="black" fill-opacity="0.72"/>
</g>
<defs>
<clipPath id="clip0_1731_2876">
<rect width="2" height="22" fill="white"/>
</clipPath>
</defs>
</svg>
