<svg width="24" height="36" viewBox="0 0 24 36" fill="none" xmlns="http://www.w3.org/2000/svg">
<g id="label-paired / xl / right-to-bracket-xl / bold" clip-path="url(#clip0_1731_5713)">
<path id="icon" d="M9 23.1562L14.1562 18L9 12.8438V15.375C8.9375 16.0625 8.5625 16.4375 7.875 16.5H2.25V19.5H7.875C8.5625 19.5625 8.9375 19.9375 9 20.625V23.1562ZM16.5 18C16.5 18.5625 16.2969 19.0469 15.8906 19.4531L10.4531 24.8438C10.0469 25.2812 9.53125 25.5 8.90625 25.5C8.3125 25.5 7.8125 25.2812 7.40625 24.8438C7 24.4375 6.78125 23.9375 6.75 23.3438V21.75H2.25C1.625 21.7188 1.09375 21.5 0.65625 21.0938C0.25 20.6562 0.03125 20.125 0 19.5V16.5C0.03125 15.875 0.25 15.3438 0.65625 14.9062C1.09375 14.5 1.625 14.2812 2.25 14.25H6.75V12.6562C6.78125 12.0625 7 11.5625 7.40625 11.1562C7.8125 10.7188 8.3125 10.5 8.90625 10.5C9.5 10.5 10.0156 10.7188 10.4531 11.1562L15.8906 16.5469C16.2969 16.9531 16.5 17.4375 16.5 18ZM16.125 26.25H19.875C20.4062 26.25 20.8438 26.0625 21.1875 25.6875C21.5625 25.3438 21.75 24.9062 21.75 24.375V11.625C21.75 11.0938 21.5625 10.6562 21.1875 10.3125C20.8438 9.9375 20.4062 9.75 19.875 9.75H16.125C15.4375 9.6875 15.0625 9.3125 15 8.625C15.0625 7.9375 15.4375 7.5625 16.125 7.5H19.875C21.0312 7.53125 22 7.9375 22.7812 8.71875C23.5625 9.5 23.9688 10.4688 24 11.625V24.375C23.9688 25.5312 23.5625 26.5 22.7812 27.2812C22 28.0625 21.0312 28.4688 19.875 28.5H16.125C15.4375 28.4375 15.0625 28.0625 15 27.375C15.0625 26.6875 15.4375 26.3125 16.125 26.25Z" fill="black" fill-opacity="0.72"/>
</g>
<defs>
<clipPath id="clip0_1731_5713">
<rect width="24" height="36" fill="white"/>
</clipPath>
</defs>
</svg>
