<svg width="12" height="18" viewBox="0 0 12 18" fill="none" xmlns="http://www.w3.org/2000/svg">
<g id="label-paired / caption / at-caption / bold" clip-path="url(#clip0_1731_1360)">
<path id="icon" d="M6 4.625C4.625 4.65625 3.47656 5.13281 2.55469 6.05469C1.63281 6.97656 1.15625 8.125 1.125 9.5C1.15625 10.875 1.63281 12.0234 2.55469 12.9453C3.47656 13.8672 4.625 14.3438 6 14.375C6.34375 14.4062 6.53125 14.5938 6.5625 14.9375C6.53125 15.2812 6.34375 15.4688 6 15.5C4.875 15.4844 3.86719 15.2109 2.97656 14.6797C2.07031 14.1484 1.35156 13.4297 0.820312 12.5234C0.289062 11.6328 0.015625 10.625 0 9.5C0.015625 8.375 0.289062 7.36719 0.820312 6.47656C1.35156 5.57031 2.07031 4.85156 2.97656 4.32031C3.86719 3.78906 4.875 3.51563 6 3.5C7.125 3.51563 8.13281 3.78906 9.02344 4.32031C9.92969 4.85156 10.6484 5.57031 11.1797 6.47656C11.7109 7.36719 11.9844 8.375 12 9.5V10.1562C11.9844 10.7656 11.7734 11.2734 11.3672 11.6797C10.9609 12.0859 10.4531 12.2969 9.84375 12.3125C9.07812 12.2812 8.49219 11.9766 8.08594 11.3984C7.53906 11.9766 6.84375 12.2812 6 12.3125C5.20312 12.2969 4.53906 12.0234 4.00781 11.4922C3.47656 10.9609 3.20312 10.2969 3.1875 9.5C3.20312 8.70312 3.47656 8.03906 4.00781 7.50781C4.53906 6.97656 5.20312 6.70312 6 6.6875C6.6875 6.70312 7.28125 6.91406 7.78125 7.32031C7.89062 7.16406 8.04688 7.07812 8.25 7.0625C8.59375 7.09375 8.78125 7.28125 8.8125 7.625V9.5V10.1562C8.8125 10.4531 8.91406 10.6953 9.11719 10.8828C9.30469 11.0859 9.54688 11.1875 9.84375 11.1875C10.1406 11.1875 10.3828 11.0859 10.5703 10.8828C10.7734 10.6953 10.875 10.4531 10.875 10.1562V9.5C10.8438 8.125 10.3672 6.97656 9.44531 6.05469C8.52344 5.13281 7.375 4.65625 6 4.625ZM7.6875 9.5C7.67188 8.85938 7.39062 8.375 6.84375 8.04688C6.28125 7.73438 5.71875 7.73438 5.15625 8.04688C4.60938 8.375 4.32812 8.85938 4.3125 9.5C4.32812 10.1406 4.60938 10.625 5.15625 10.9531C5.71875 11.2656 6.28125 11.2656 6.84375 10.9531C7.39062 10.625 7.67188 10.1406 7.6875 9.5Z" fill="black" fill-opacity="0.72"/>
</g>
<defs>
<clipPath id="clip0_1731_1360">
<rect width="12" height="18" fill="white"/>
</clipPath>
</defs>
</svg>
