<svg width="14" height="22" viewBox="0 0 14 22" fill="none" xmlns="http://www.w3.org/2000/svg">
<g id="label-paired / sm / chart-line-up-down-sm / regular" clip-path="url(#clip0_1731_2525)">
<path id="icon" d="M0.875 5.0625V14.6875C0.893229 15.0521 1.02083 15.362 1.25781 15.6172C1.51302 15.8542 1.82292 15.9818 2.1875 16H13.5625C13.8359 16.0182 13.9818 16.1641 14 16.4375C13.9818 16.7109 13.8359 16.8568 13.5625 16.875H2.1875C1.56771 16.8568 1.04818 16.6471 0.628906 16.2461C0.227865 15.8268 0.0182292 15.3073 0 14.6875V5.0625C0.0182292 4.78906 0.164062 4.64323 0.4375 4.625C0.710938 4.64323 0.856771 4.78906 0.875 5.0625ZM10.0625 6.375C9.78906 6.35677 9.64323 6.21094 9.625 5.9375C9.64323 5.66406 9.78906 5.51823 10.0625 5.5H12.6875C12.9609 5.51823 13.1068 5.66406 13.125 5.9375V8.5625C13.1068 8.83594 12.9609 8.98177 12.6875 9C12.4141 8.98177 12.2682 8.83594 12.25 8.5625V7.00391L8.17578 11.0508C7.97526 11.2331 7.77474 11.2331 7.57422 11.0508L5.6875 9.19141L3.36328 11.4883C3.16276 11.6706 2.96224 11.6706 2.76172 11.4883C2.57943 11.2878 2.57943 11.0872 2.76172 10.8867L5.38672 8.26172C5.45964 8.17057 5.5599 8.125 5.6875 8.125C5.8151 8.125 5.91536 8.17057 5.98828 8.26172L7.875 10.1211L11.6211 6.375H10.0625ZM10.0625 14.25C9.78906 14.2318 9.64323 14.0859 9.625 13.8125C9.64323 13.5391 9.78906 13.3932 10.0625 13.375H11.6211L9.76172 11.4883L10.3633 10.8867L12.25 12.7461V11.1875C12.2682 10.9141 12.4141 10.7682 12.6875 10.75C12.9609 10.7682 13.1068 10.9141 13.125 11.1875V13.8125C13.1068 14.0859 12.9609 14.2318 12.6875 14.25H10.0625Z" fill="black" fill-opacity="0.72"/>
</g>
<defs>
<clipPath id="clip0_1731_2525">
<rect width="14" height="22" fill="white"/>
</clipPath>
</defs>
</svg>
