<svg width="9" height="18" viewBox="0 0 9 18" fill="none" xmlns="http://www.w3.org/2000/svg">
<g id="label-paired / caption / bookmark-caption / bold" clip-path="url(#clip0_1731_611)">
<path id="icon" d="M0 4.625C0.015625 4.3125 0.125 4.04688 0.328125 3.82812C0.546875 3.625 0.8125 3.51563 1.125 3.5V4.625V13.8359L4.17188 11.6797C4.39062 11.5391 4.60938 11.5391 4.82812 11.6797L7.875 13.8359V4.625H1.125V3.5H7.875C8.1875 3.51563 8.45312 3.625 8.67188 3.82812C8.875 4.04688 8.98438 4.3125 9 4.625V14.9375C9 15.1562 8.89844 15.3203 8.69531 15.4297C8.49219 15.5234 8.29688 15.5156 8.10938 15.4062L4.5 12.8281L0.890625 15.4062C0.703125 15.5156 0.507812 15.5234 0.304688 15.4297C0.117188 15.3203 0.015625 15.1562 0 14.9375V4.625Z" fill="black" fill-opacity="0.72"/>
</g>
<defs>
<clipPath id="clip0_1731_611">
<rect width="9" height="18" fill="white"/>
</clipPath>
</defs>
</svg>
