<svg width="20" height="30" viewBox="0 0 20 30" fill="none" xmlns="http://www.w3.org/2000/svg">
<g id="label-paired / lg / camera-lg / bold" clip-path="url(#clip0_1731_5249)">
<path id="icon" d="M7.77344 6.75H12.2266C12.6953 6.75 13.125 6.89323 13.5156 7.17969C13.8802 7.4401 14.1406 7.79167 14.2969 8.23438L14.6484 9.25H17.5C18.2031 9.27604 18.7891 9.52344 19.2578 9.99219C19.7266 10.4609 19.974 11.0469 20 11.75V21.75C19.974 22.4531 19.7266 23.0391 19.2578 23.5078C18.7891 23.9766 18.2031 24.224 17.5 24.25H2.5C1.79688 24.224 1.21094 23.9766 0.742188 23.5078C0.273438 23.0391 0.0260417 22.4531 0 21.75V11.75C0.0260417 11.0469 0.273438 10.4609 0.742188 9.99219C1.21094 9.52344 1.79688 9.27604 2.5 9.25H5.35156L5.70312 8.23438L6.60156 8.54688L5.70312 8.23438C5.85938 7.79167 6.11979 7.4401 6.48438 7.17969C6.875 6.89323 7.30469 6.75 7.77344 6.75ZM7.5 8.85938L6.95312 10.5C6.77083 10.8906 6.47135 11.099 6.05469 11.125H2.5C2.10938 11.151 1.90104 11.3594 1.875 11.75V21.75C1.90104 22.1406 2.10938 22.349 2.5 22.375H17.5C17.8906 22.349 18.099 22.1406 18.125 21.75V11.75C18.099 11.3594 17.8906 11.151 17.5 11.125H13.9453C13.5286 11.099 13.2422 10.8906 13.0859 10.5L12.5391 8.85938C12.4609 8.70312 12.3568 8.625 12.2266 8.625H7.77344C7.64323 8.625 7.55208 8.70312 7.5 8.85938ZM10 21.125C9.21875 21.125 8.48958 20.9297 7.8125 20.5391C7.13542 20.1484 6.60156 19.6146 6.21094 18.9375C5.82031 18.2604 5.625 17.5312 5.625 16.75C5.625 15.9688 5.82031 15.2396 6.21094 14.5625C6.60156 13.8854 7.13542 13.3516 7.8125 12.9609C8.48958 12.5703 9.21875 12.375 10 12.375C10.7812 12.375 11.5104 12.5703 12.1875 12.9609C12.8646 13.3516 13.3984 13.8854 13.7891 14.5625C14.1797 15.2396 14.375 15.9688 14.375 16.75C14.375 17.5312 14.1797 18.2604 13.7891 18.9375C13.3984 19.6146 12.8646 20.1484 12.1875 20.5391C11.5104 20.9297 10.7812 21.125 10 21.125ZM7.5 16.75C7.52604 17.6875 7.94271 18.4036 8.75 18.8984C9.58333 19.3672 10.4167 19.3672 11.25 18.8984C12.0573 18.4036 12.474 17.6875 12.5 16.75C12.474 15.8125 12.0573 15.0964 11.25 14.6016C10.4167 14.1328 9.58333 14.1328 8.75 14.6016C7.94271 15.0964 7.52604 15.8125 7.5 16.75Z" fill="black" fill-opacity="0.72"/>
</g>
<defs>
<clipPath id="clip0_1731_5249">
<rect width="20" height="30" fill="white"/>
</clipPath>
</defs>
</svg>
