<svg width="14" height="22" viewBox="0 0 14 22" fill="none" xmlns="http://www.w3.org/2000/svg">
<g id="label-paired / sm / google-play-sm" clip-path="url(#clip0_1731_13879)">
<path id="icon" d="M8.88672 10.1484L10.5273 8.50781L2.87109 4.10547L8.88672 10.1484ZM1.28516 3.75L8.3125 10.75L1.28516 17.75C0.902344 17.5495 0.701823 17.2305 0.683594 16.793V4.70703C0.701823 4.26953 0.902344 3.95052 1.28516 3.75ZM12.9062 9.92969C13.1797 10.1302 13.3164 10.4036 13.3164 10.75C13.3164 11.0964 13.1888 11.3698 12.9336 11.5703L11.293 12.5273L9.51562 10.75L11.293 9L12.9062 9.92969ZM2.87109 17.3945L8.88672 11.3516L10.5273 12.9922L2.87109 17.3945Z" fill="black" fill-opacity="0.72"/>
</g>
<defs>
<clipPath id="clip0_1731_13879">
<rect width="14" height="22" fill="white"/>
</clipPath>
</defs>
</svg>
