<svg width="23" height="30" viewBox="0 0 23 30" fill="none" xmlns="http://www.w3.org/2000/svg">
<g id="label-paired / lg / arrow-up-one-nine-lg / regular" clip-path="url(#clip0_1731_4619)">
<path id="icon" d="M17.75 7.375V13H19C19.3906 13.026 19.599 13.2344 19.625 13.625C19.599 14.0156 19.3906 14.224 19 14.25H17.125H15.25C14.8594 14.224 14.651 14.0156 14.625 13.625C14.651 13.2344 14.8594 13.026 15.25 13H16.5V8.23438L15.4453 8.58594C15.0807 8.66406 14.8203 8.53385 14.6641 8.19531C14.5859 7.83073 14.7161 7.57031 15.0547 7.41406L16.9297 6.78906C17.138 6.71094 17.3203 6.73698 17.4766 6.86719C17.6589 6.9974 17.75 7.16667 17.75 7.375ZM6.92969 6.94531L10.6797 10.6953C10.9401 10.9818 10.9401 11.2682 10.6797 11.5547C10.3932 11.8151 10.1068 11.8151 9.82031 11.5547L7.125 8.89844V23.625C7.09896 24.0156 6.89062 24.224 6.5 24.25C6.10938 24.224 5.90104 24.0156 5.875 23.625V8.89844L3.17969 11.5547C2.89323 11.8151 2.60677 11.8151 2.32031 11.5547C2.0599 11.2682 2.0599 10.9818 2.32031 10.6953L6.07031 6.94531C6.35677 6.6849 6.64323 6.6849 6.92969 6.94531ZM16.9688 20.8125C17.724 20.7865 18.3099 20.4479 18.7266 19.7969C19.0911 19.1198 19.0911 18.4427 18.7266 17.7656C18.3099 17.1146 17.724 16.776 16.9688 16.75C16.2135 16.776 15.6276 17.1146 15.2109 17.7656C14.8464 18.4427 14.8464 19.1198 15.2109 19.7969C15.6276 20.4479 16.2135 20.7865 16.9688 20.8125ZM13.6875 18.7812C13.7135 17.8438 14.0391 17.0755 14.6641 16.4766C15.263 15.8516 16.0312 15.526 16.9688 15.5C17.9062 15.526 18.6745 15.8516 19.2734 16.4766C19.8984 17.0755 20.224 17.8438 20.25 18.7812C20.25 18.8333 20.25 18.8854 20.25 18.9375C20.25 19.7969 19.9766 20.5521 19.4297 21.2031L16.9688 24.0547C16.7083 24.3151 16.4219 24.3281 16.1094 24.0938C15.8229 23.8333 15.7969 23.5469 16.0312 23.2344L17.0078 22.0625C16.9818 22.0625 16.9688 22.0625 16.9688 22.0625C16.0312 22.0365 15.263 21.7109 14.6641 21.0859C14.0391 20.487 13.7135 19.7188 13.6875 18.7812Z" fill="black" fill-opacity="0.72"/>
</g>
<defs>
<clipPath id="clip0_1731_4619">
<rect width="23" height="30" fill="white"/>
</clipPath>
</defs>
</svg>
