<svg width="24" height="36" viewBox="0 0 24 36" fill="none" xmlns="http://www.w3.org/2000/svg">
<g id="label-paired / xl / bullhorn-xl / bold" clip-path="url(#clip0_1731_6645)">
<path id="icon" d="M20.25 9.46875L19.7344 9.98438C18.3906 11.2969 16.8594 12.3281 15.1406 13.0781C13.4531 13.7969 11.6562 14.1875 9.75 14.25V20.25C11.6562 20.3125 13.4531 20.7031 15.1406 21.4219C16.8594 22.1719 18.3906 23.2031 19.7344 24.5156L20.25 25.0312V9.46875ZM7.5 12H9.42188C11.0781 12 12.6562 11.6875 14.1562 11.0625C15.6562 10.4375 16.9844 9.54688 18.1406 8.39062L19.9219 6.60938C20.4531 6.14062 21 6.03125 21.5625 6.28125C22.125 6.5 22.4375 6.95312 22.5 7.64062V14.4375C22.9375 14.6562 23.2969 15.0156 23.5781 15.5156C23.8594 16.0156 24 16.5938 24 17.25C24 17.9062 23.8594 18.4844 23.5781 18.9844C23.2969 19.4844 22.9375 19.8438 22.5 20.0625V26.8594C22.4375 27.5469 22.125 28 21.5625 28.2188C21 28.4688 20.4531 28.3594 19.9219 27.8906L18.1406 26.1094C17.0156 24.9844 15.7344 24.1094 14.2969 23.4844C12.8594 22.8906 11.3438 22.5625 9.75 22.5V27.375C9.71875 28.125 9.46875 28.75 9 29.25C8.5 29.7188 7.875 29.9688 7.125 30H5.625C4.875 29.9688 4.25 29.7188 3.75 29.25C3.28125 28.75 3.03125 28.125 3 27.375V22.5C2.15625 22.4688 1.45312 22.1719 0.890625 21.6094C0.328125 21.0469 0.03125 20.3438 0 19.5V15C0.03125 14.1562 0.328125 13.4531 0.890625 12.8906C1.45312 12.3281 2.15625 12.0312 3 12H7.5ZM5.25 22.5V27.375C5.28125 27.5938 5.40625 27.7188 5.625 27.75H7.125C7.34375 27.7188 7.46875 27.5938 7.5 27.375V22.5H5.25ZM3 14.25C2.53125 14.2812 2.28125 14.5312 2.25 15V19.5C2.28125 19.9688 2.53125 20.2188 3 20.25H5.25H7.5V14.25H3Z" fill="black" fill-opacity="0.72"/>
</g>
<defs>
<clipPath id="clip0_1731_6645">
<rect width="24" height="36" fill="white"/>
</clipPath>
</defs>
</svg>
