<svg width="16" height="24" viewBox="0 0 16 24" fill="none" xmlns="http://www.w3.org/2000/svg">
<g id="label-paired / md / circle-info-md / bold" clip-path="url(#clip0_1731_4154)">
<path id="icon" d="M8 5.5C6.8125 5.5 5.72917 5.79167 4.75 6.375C3.77083 6.9375 2.97917 7.72917 2.375 8.75C1.79167 9.77083 1.5 10.8542 1.5 12C1.5 13.1458 1.79167 14.2292 2.375 15.25C2.97917 16.2708 3.77083 17.0625 4.75 17.625C5.72917 18.2083 6.8125 18.5 8 18.5C9.1875 18.5 10.2708 18.2083 11.25 17.625C12.2292 17.0625 13.0208 16.2708 13.625 15.25C14.2083 14.2292 14.5 13.1458 14.5 12C14.5 10.8542 14.2083 9.77083 13.625 8.75C13.0208 7.72917 12.2292 6.9375 11.25 6.375C10.2708 5.79167 9.1875 5.5 8 5.5ZM8 20C6.54167 19.9792 5.20833 19.625 4 18.9375C2.79167 18.2292 1.8125 17.25 1.0625 16C0.354167 14.7292 0 13.3958 0 12C0 10.6042 0.354167 9.27083 1.0625 8C1.8125 6.75 2.79167 5.77083 4 5.0625C5.20833 4.375 6.54167 4.02083 8 4C9.45833 4.02083 10.7917 4.375 12 5.0625C13.2083 5.77083 14.1875 6.75 14.9375 8C15.6458 9.27083 16 10.6042 16 12C16 13.3958 15.6458 14.7292 14.9375 16C14.1875 17.25 13.2083 18.2292 12 18.9375C10.7917 19.625 9.45833 19.9792 8 20ZM6.75 14.5H7.5V12.5H6.75C6.29167 12.4583 6.04167 12.2083 6 11.75C6.04167 11.2917 6.29167 11.0417 6.75 11H8.25C8.70833 11.0417 8.95833 11.2917 9 11.75V14.5H9.25C9.70833 14.5417 9.95833 14.7917 10 15.25C9.95833 15.7083 9.70833 15.9583 9.25 16H6.75C6.29167 15.9583 6.04167 15.7083 6 15.25C6.04167 14.7917 6.29167 14.5417 6.75 14.5ZM8 10C7.70833 10 7.46875 9.90625 7.28125 9.71875C7.09375 9.53125 7 9.29167 7 9C7 8.70833 7.09375 8.46875 7.28125 8.28125C7.46875 8.09375 7.70833 8 8 8C8.29167 8 8.53125 8.09375 8.71875 8.28125C8.90625 8.46875 9 8.70833 9 9C9 9.29167 8.90625 9.53125 8.71875 9.71875C8.53125 9.90625 8.29167 10 8 10Z" fill="black" fill-opacity="0.72"/>
</g>
<defs>
<clipPath id="clip0_1731_4154">
<rect width="16" height="24" fill="white"/>
</clipPath>
</defs>
</svg>
