<svg width="13" height="30" viewBox="0 0 13 30" fill="none" xmlns="http://www.w3.org/2000/svg">
<g id="label-paired / lg / sterling-sign-lg / bold" clip-path="url(#clip0_1731_5187)">
<path id="icon" d="M4 11.7109V14.25H9.3125C9.88542 14.3021 10.1979 14.6146 10.25 15.1875C10.1979 15.7604 9.88542 16.0729 9.3125 16.125H4V18.5859C4 19.6016 3.7526 20.5521 3.25781 21.4375L2.75 22.375H11.8125C12.3854 22.4271 12.6979 22.7396 12.75 23.3125C12.6979 23.8854 12.3854 24.1979 11.8125 24.25H1.1875C0.848958 24.25 0.575521 24.0938 0.367188 23.7812C0.210938 23.4948 0.210938 23.1953 0.367188 22.8828L1.61719 20.5391C1.95573 19.9401 2.125 19.2891 2.125 18.5859V16.125H1.1875C0.614583 16.0729 0.302083 15.7604 0.25 15.1875C0.302083 14.6146 0.614583 14.3021 1.1875 14.25H2.125V11.7109C2.15104 10.3047 2.63281 9.13281 3.57031 8.19531C4.50781 7.25781 5.67969 6.77604 7.08594 6.75C7.63281 6.75 8.16667 6.84115 8.6875 7.02344L11.8125 8.03906C12.3333 8.27344 12.5286 8.67708 12.3984 9.25C12.1641 9.77083 11.7604 9.96615 11.1875 9.83594L8.0625 8.78125C7.75 8.67708 7.42448 8.625 7.08594 8.625C6.22656 8.65104 5.4974 8.95052 4.89844 9.52344C4.32552 10.1224 4.02604 10.8516 4 11.7109Z" fill="black" fill-opacity="0.72"/>
</g>
<defs>
<clipPath id="clip0_1731_5187">
<rect width="13" height="30" fill="white"/>
</clipPath>
</defs>
</svg>
