<svg width="21" height="36" viewBox="0 0 21 36" fill="none" xmlns="http://www.w3.org/2000/svg">
<g id="label-paired / xl / copy-xl / bold" clip-path="url(#clip0_1731_6470)">
<path id="icon" d="M18 21.75C18.4688 21.7188 18.7188 21.4688 18.75 21V11.4375L15.5625 8.25H9C8.53125 8.28125 8.28125 8.53125 8.25 9V21C8.28125 21.4688 8.53125 21.7188 9 21.75H18ZM9 24C8.15625 23.9688 7.45312 23.6719 6.89062 23.1094C6.32812 22.5469 6.03125 21.8438 6 21V9C6.03125 8.15625 6.32812 7.45312 6.89062 6.89062C7.45312 6.32812 8.15625 6.03125 9 6H15.5625C16.1875 6 16.7188 6.21875 17.1562 6.65625L20.3438 9.84375C20.7812 10.2812 21 10.8125 21 11.4375V21C20.9688 21.8438 20.6719 22.5469 20.1094 23.1094C19.5469 23.6719 18.8438 23.9688 18 24H9ZM3 12H4.5V14.25H3C2.53125 14.2812 2.28125 14.5312 2.25 15V27C2.28125 27.4688 2.53125 27.7188 3 27.75H12C12.4688 27.7188 12.7188 27.4688 12.75 27V25.5H15V27C14.9688 27.8438 14.6719 28.5469 14.1094 29.1094C13.5469 29.6719 12.8438 29.9688 12 30H3C2.15625 29.9688 1.45312 29.6719 0.890625 29.1094C0.328125 28.5469 0.03125 27.8438 0 27V15C0.03125 14.1562 0.328125 13.4531 0.890625 12.8906C1.45312 12.3281 2.15625 12.0312 3 12Z" fill="black" fill-opacity="0.72"/>
</g>
<defs>
<clipPath id="clip0_1731_6470">
<rect width="21" height="36" fill="white"/>
</clipPath>
</defs>
</svg>
