<svg width="14" height="22" viewBox="0 0 14 22" fill="none" xmlns="http://www.w3.org/2000/svg">
<g id="label-paired / sm / gauge-min-sm / bold" clip-path="url(#clip0_1731_2009)">
<path id="icon" d="M7 5.0625C5.96094 5.0625 5.01302 5.31771 4.15625 5.82812C3.29948 6.32031 2.60677 7.01302 2.07812 7.90625C1.56771 8.79948 1.3125 9.7474 1.3125 10.75C1.3125 11.7526 1.56771 12.7005 2.07812 13.5938C2.60677 14.487 3.29948 15.1797 4.15625 15.6719C5.01302 16.1823 5.96094 16.4375 7 16.4375C8.03906 16.4375 8.98698 16.1823 9.84375 15.6719C10.7005 15.1797 11.3932 14.487 11.9219 13.5938C12.4323 12.7005 12.6875 11.7526 12.6875 10.75C12.6875 9.7474 12.4323 8.79948 11.9219 7.90625C11.3932 7.01302 10.7005 6.32031 9.84375 5.82812C8.98698 5.31771 8.03906 5.0625 7 5.0625ZM7 17.75C5.72396 17.7318 4.55729 17.4219 3.5 16.8203C2.44271 16.2005 1.58594 15.3438 0.929688 14.25C0.309896 13.138 0 11.9714 0 10.75C0 9.52865 0.309896 8.36198 0.929688 7.25C1.58594 6.15625 2.44271 5.29948 3.5 4.67969C4.55729 4.07812 5.72396 3.76823 7 3.75C8.27604 3.76823 9.44271 4.07812 10.5 4.67969C11.5573 5.29948 12.4141 6.15625 13.0703 7.25C13.6901 8.36198 14 9.52865 14 10.75C14 11.9714 13.6901 13.138 13.0703 14.25C12.4141 15.3438 11.5573 16.2005 10.5 16.8203C9.44271 17.4219 8.27604 17.7318 7 17.75ZM7.875 6.8125C7.875 7.06771 7.79297 7.27734 7.62891 7.44141C7.46484 7.60547 7.25521 7.6875 7 7.6875C6.74479 7.6875 6.53516 7.60547 6.37109 7.44141C6.20703 7.27734 6.125 7.06771 6.125 6.8125C6.125 6.55729 6.20703 6.34766 6.37109 6.18359C6.53516 6.01953 6.74479 5.9375 7 5.9375C7.25521 5.9375 7.46484 6.01953 7.62891 6.18359C7.79297 6.34766 7.875 6.55729 7.875 6.8125ZM7 14.9062C6.5625 14.888 6.19792 14.7422 5.90625 14.4688C5.63281 14.1771 5.48698 13.8125 5.46875 13.375C5.46875 13.3021 5.47786 13.2201 5.49609 13.1289L2.48828 11.0781C2.16016 10.8229 2.09635 10.5221 2.29688 10.1758C2.55208 9.84766 2.86198 9.78385 3.22656 9.98438L6.23438 12.0625C6.45312 11.9167 6.70833 11.8438 7 11.8438C7.4375 11.862 7.80208 12.0078 8.09375 12.2812C8.36719 12.5729 8.51302 12.9375 8.53125 13.375C8.51302 13.8125 8.36719 14.1771 8.09375 14.4688C7.80208 14.7422 7.4375 14.888 7 14.9062ZM5.25 8.125C5.25 8.38021 5.16797 8.58984 5.00391 8.75391C4.83984 8.91797 4.63021 9 4.375 9C4.11979 9 3.91016 8.91797 3.74609 8.75391C3.58203 8.58984 3.5 8.38021 3.5 8.125C3.5 7.86979 3.58203 7.66016 3.74609 7.49609C3.91016 7.33203 4.11979 7.25 4.375 7.25C4.63021 7.25 4.83984 7.33203 5.00391 7.49609C5.16797 7.66016 5.25 7.86979 5.25 8.125ZM10.9375 11.625C10.6823 11.625 10.4727 11.543 10.3086 11.3789C10.1445 11.2148 10.0625 11.0052 10.0625 10.75C10.0625 10.4948 10.1445 10.2852 10.3086 10.1211C10.4727 9.95703 10.6823 9.875 10.9375 9.875C11.1927 9.875 11.4023 9.95703 11.5664 10.1211C11.7305 10.2852 11.8125 10.4948 11.8125 10.75C11.8125 11.0052 11.7305 11.2148 11.5664 11.3789C11.4023 11.543 11.1927 11.625 10.9375 11.625ZM10.5 8.125C10.5 8.38021 10.418 8.58984 10.2539 8.75391C10.0898 8.91797 9.88021 9 9.625 9C9.36979 9 9.16016 8.91797 8.99609 8.75391C8.83203 8.58984 8.75 8.38021 8.75 8.125C8.75 7.86979 8.83203 7.66016 8.99609 7.49609C9.16016 7.33203 9.36979 7.25 9.625 7.25C9.88021 7.25 10.0898 7.33203 10.2539 7.49609C10.418 7.66016 10.5 7.86979 10.5 8.125Z" fill="black" fill-opacity="0.72"/>
</g>
<defs>
<clipPath id="clip0_1731_2009">
<rect width="14" height="22" fill="white"/>
</clipPath>
</defs>
</svg>
