<svg width="16" height="24" viewBox="0 0 16 24" fill="none" xmlns="http://www.w3.org/2000/svg">
<g id="label-paired / md / circle-two-md / regular" clip-path="url(#clip0_1731_3566)">
<path id="icon" d="M8 5C6.72917 5.02083 5.5625 5.33333 4.5 5.9375C3.4375 6.5625 2.58333 7.41667 1.9375 8.5C1.3125 9.60417 1 10.7708 1 12C1 13.2292 1.3125 14.3958 1.9375 15.5C2.58333 16.5833 3.4375 17.4375 4.5 18.0625C5.5625 18.6667 6.72917 18.9792 8 19C9.27083 18.9792 10.4375 18.6667 11.5 18.0625C12.5625 17.4375 13.4167 16.5833 14.0625 15.5C14.6875 14.3958 15 13.2292 15 12C15 10.7708 14.6875 9.60417 14.0625 8.5C13.4167 7.41667 12.5625 6.5625 11.5 5.9375C10.4375 5.33333 9.27083 5.02083 8 5ZM8 20C6.54167 19.9792 5.20833 19.625 4 18.9375C2.79167 18.2292 1.8125 17.25 1.0625 16C0.354167 14.7292 0 13.3958 0 12C0 10.6042 0.354167 9.27083 1.0625 8C1.8125 6.75 2.79167 5.77083 4 5.0625C5.20833 4.375 6.54167 4.02083 8 4C9.45833 4.02083 10.7917 4.375 12 5.0625C13.2083 5.77083 14.1875 6.75 14.9375 8C15.6458 9.27083 16 10.6042 16 12C16 13.3958 15.6458 14.7292 14.9375 16C14.1875 17.25 13.2083 18.2292 12 18.9375C10.7917 19.625 9.45833 19.9792 8 20ZM6.78125 9.4375L6.34375 9.875C6.09375 10.0625 5.85417 10.0521 5.625 9.84375C5.4375 9.59375 5.44792 9.35417 5.65625 9.125L6.09375 8.71875C6.61458 8.23958 7.22917 8 7.9375 8C8.66667 8.04167 9.27083 8.30208 9.75 8.78125C10.2292 9.28125 10.4792 9.89583 10.5 10.625C10.5 11.3333 10.25 11.9479 9.75 12.4688L7.21875 15H10.5C10.8125 15.0208 10.9792 15.1875 11 15.5C10.9792 15.8125 10.8125 15.9792 10.5 16H6C5.79167 15.9792 5.63542 15.875 5.53125 15.6875C5.46875 15.4792 5.51042 15.3021 5.65625 15.1562L9.03125 11.7812C9.34375 11.4479 9.5 11.0625 9.5 10.625C9.47917 10.1667 9.32292 9.79167 9.03125 9.5C8.73958 9.1875 8.36458 9.02083 7.90625 9C7.46875 9 7.09375 9.14583 6.78125 9.4375Z" fill="black" fill-opacity="0.72"/>
</g>
<defs>
<clipPath id="clip0_1731_3566">
<rect width="16" height="24" fill="white"/>
</clipPath>
</defs>
</svg>
