<svg width="14" height="22" viewBox="0 0 14 22" fill="none" xmlns="http://www.w3.org/2000/svg">
<g id="label-paired / sm / circle-calendar-sm / regular" clip-path="url(#clip0_1731_1862)">
<path id="icon" d="M13.125 10.75C13.1068 9.63802 12.8333 8.61719 12.3047 7.6875C11.7578 6.75781 11.0104 6.01042 10.0625 5.44531C9.09635 4.89844 8.07552 4.625 7 4.625C5.92448 4.625 4.90365 4.89844 3.9375 5.44531C2.98958 6.01042 2.24219 6.75781 1.69531 7.6875C1.16667 8.61719 0.893229 9.63802 0.875 10.75C0.893229 11.862 1.16667 12.8828 1.69531 13.8125C2.24219 14.7422 2.98958 15.4896 3.9375 16.0547C4.90365 16.6016 5.92448 16.875 7 16.875C8.07552 16.875 9.09635 16.6016 10.0625 16.0547C11.0104 15.4896 11.7578 14.7422 12.3047 13.8125C12.8333 12.8828 13.1068 11.862 13.125 10.75ZM0 10.75C0.0182292 9.47396 0.328125 8.30729 0.929688 7.25C1.54948 6.19271 2.40625 5.33594 3.5 4.67969C4.61198 4.0599 5.77865 3.75 7 3.75C8.22135 3.75 9.38802 4.0599 10.5 4.67969C11.5938 5.33594 12.4505 6.19271 13.0703 7.25C13.6719 8.30729 13.9818 9.47396 14 10.75C13.9818 12.026 13.6719 13.1927 13.0703 14.25C12.4505 15.3073 11.5938 16.1641 10.5 16.8203C9.38802 17.4401 8.22135 17.75 7 17.75C5.77865 17.75 4.61198 17.4401 3.5 16.8203C2.40625 16.1641 1.54948 15.3073 0.929688 14.25C0.328125 13.1927 0.0182292 12.026 0 10.75ZM5.6875 6.375C5.96094 6.39323 6.10677 6.53906 6.125 6.8125V7.25H7.875V6.8125C7.89323 6.53906 8.03906 6.39323 8.3125 6.375C8.58594 6.39323 8.73177 6.53906 8.75 6.8125V7.25H9.1875C9.55208 7.26823 9.86198 7.39583 10.1172 7.63281C10.3542 7.88802 10.4818 8.19792 10.5 8.5625V9V9.875V12.9375C10.4818 13.3021 10.3542 13.612 10.1172 13.8672C9.86198 14.1042 9.55208 14.2318 9.1875 14.25H4.8125C4.44792 14.2318 4.13802 14.1042 3.88281 13.8672C3.64583 13.612 3.51823 13.3021 3.5 12.9375V9.875V9V8.5625C3.51823 8.19792 3.64583 7.88802 3.88281 7.63281C4.13802 7.39583 4.44792 7.26823 4.8125 7.25H5.25V6.8125C5.26823 6.53906 5.41406 6.39323 5.6875 6.375ZM4.375 8.5625V9H9.625V8.5625C9.60677 8.28906 9.46094 8.14323 9.1875 8.125H8.3125H5.6875H4.8125C4.53906 8.14323 4.39323 8.28906 4.375 8.5625ZM9.625 9.875H4.375V12.9375C4.39323 13.2109 4.53906 13.3568 4.8125 13.375H9.1875C9.46094 13.3568 9.60677 13.2109 9.625 12.9375V9.875Z" fill="black" fill-opacity="0.72"/>
</g>
<defs>
<clipPath id="clip0_1731_1862">
<rect width="14" height="22" fill="white"/>
</clipPath>
</defs>
</svg>
