<svg width="9" height="18" viewBox="0 0 9 18" fill="none" xmlns="http://www.w3.org/2000/svg">
<g id="label-paired / caption / arrow-up-to-line-caption / bold" clip-path="url(#clip0_1731_911)">
<path id="icon" d="M0.5625 4.25H8.4375C8.78125 4.28125 8.96875 4.46875 9 4.8125C8.96875 5.15625 8.78125 5.34375 8.4375 5.375H0.5625C0.21875 5.34375 0.03125 5.15625 0 4.8125C0.03125 4.46875 0.21875 4.28125 0.5625 4.25ZM4.92188 7.4375H4.89844L7.89844 10.625C8.11719 10.8906 8.10938 11.1484 7.875 11.3984C7.60938 11.6172 7.35156 11.6094 7.10156 11.375L5.0625 9.24219V11.1875V14.1875C5.03125 14.5312 4.84375 14.7188 4.5 14.75C4.15625 14.7188 3.96875 14.5312 3.9375 14.1875V11.1875V9.24219L1.89844 11.3984C1.64844 11.6172 1.39062 11.625 1.125 11.4219C0.890625 11.1562 0.882812 10.8906 1.10156 10.625L4.10156 7.4375C4.21094 7.3125 4.34375 7.25 4.5 7.25C4.65625 7.25 4.79688 7.3125 4.92188 7.4375Z" fill="black" fill-opacity="0.72"/>
</g>
<defs>
<clipPath id="clip0_1731_911">
<rect width="9" height="18" fill="white"/>
</clipPath>
</defs>
</svg>
