<svg width="18" height="30" viewBox="0 0 18 30" fill="none" xmlns="http://www.w3.org/2000/svg">
<g id="label-paired / lg / floppy-disk-lg / bold" clip-path="url(#clip0_1731_4926)">
<path id="icon" d="M2.125 9.25V21.75C2.15104 22.1406 2.35938 22.349 2.75 22.375H15.25C15.6406 22.349 15.849 22.1406 15.875 21.75V12.1797C15.875 11.9974 15.8099 11.8411 15.6797 11.7109L17.0078 10.3828C17.5026 10.8776 17.75 11.4766 17.75 12.1797V21.75C17.724 22.4531 17.4766 23.0391 17.0078 23.5078C16.5391 23.9766 15.9531 24.224 15.25 24.25H2.75C2.04688 24.224 1.46094 23.9766 0.992188 23.5078C0.523438 23.0391 0.276042 22.4531 0.25 21.75V9.25C0.276042 8.54688 0.523438 7.96094 0.992188 7.49219C1.46094 7.02344 2.04688 6.77604 2.75 6.75H12.3594C13.0365 6.75 13.6224 6.9974 14.1172 7.49219L17.0078 10.3828L15.6797 11.7109L12.7891 8.82031C12.763 8.79427 12.75 8.78125 12.75 8.78125V12.6875C12.6979 13.2604 12.3854 13.5729 11.8125 13.625H4.3125C3.73958 13.5729 3.42708 13.2604 3.375 12.6875V8.625H2.75C2.35938 8.65104 2.15104 8.85938 2.125 9.25ZM5.25 8.625V11.75H10.875V8.625H5.25ZM6.5 18C6.52604 17.0625 6.94271 16.3464 7.75 15.8516C8.58333 15.3828 9.41667 15.3828 10.25 15.8516C11.0573 16.3464 11.474 17.0625 11.5 18C11.474 18.9375 11.0573 19.6536 10.25 20.1484C9.41667 20.6172 8.58333 20.6172 7.75 20.1484C6.94271 19.6536 6.52604 18.9375 6.5 18Z" fill="black" fill-opacity="0.72"/>
</g>
<defs>
<clipPath id="clip0_1731_4926">
<rect width="18" height="30" fill="white"/>
</clipPath>
</defs>
</svg>
