<svg width="9" height="22" viewBox="0 0 9 22" fill="none" xmlns="http://www.w3.org/2000/svg">
<g id="label-paired / sm / six-sm / bold" clip-path="url(#clip0_1731_2280)">
<path id="icon" d="M7.5625 12.5C7.54427 11.625 7.24349 10.9049 6.66016 10.3398C6.09505 9.75651 5.375 9.45573 4.5 9.4375C3.58854 9.45573 2.84115 9.78385 2.25781 10.4219L2.12109 10.5859C1.66536 11.151 1.4375 11.7891 1.4375 12.5C1.45573 13.375 1.75651 14.0951 2.33984 14.6602C2.90495 15.2435 3.625 15.5443 4.5 15.5625C5.375 15.5443 6.09505 15.2435 6.66016 14.6602C7.24349 14.0951 7.54427 13.375 7.5625 12.5ZM4.11719 8.15234C4.24479 8.13411 4.3724 8.125 4.5 8.125C5.73958 8.16146 6.76953 8.58984 7.58984 9.41016C8.41016 10.2305 8.83854 11.2604 8.875 12.5C8.83854 13.7396 8.41016 14.7695 7.58984 15.5898C6.76953 16.4102 5.73958 16.8385 4.5 16.875C3.26042 16.8385 2.23047 16.4102 1.41016 15.5898C0.589844 14.7695 0.161458 13.7396 0.125 12.5C0.143229 11.3333 0.526042 10.349 1.27344 9.54688L5.07422 4.87109C5.36589 4.57943 5.67578 4.54297 6.00391 4.76172C6.29557 5.05339 6.33203 5.36328 6.11328 5.69141L4.11719 8.15234Z" fill="black" fill-opacity="0.72"/>
</g>
<defs>
<clipPath id="clip0_1731_2280">
<rect width="9" height="22" fill="white"/>
</clipPath>
</defs>
</svg>
