<svg width="20" height="30" viewBox="0 0 20 30" fill="none" xmlns="http://www.w3.org/2000/svg">
<g id="label-paired / lg / arrow-up-right-from-square-lg / bold" clip-path="url(#clip0_1731_5396)">
<path id="icon" d="M11.875 6.4375C11.9271 5.86458 12.2396 5.55208 12.8125 5.5H19.0625C19.6354 5.55208 19.9479 5.86458 20 6.4375V12.6875C19.9479 13.2604 19.6354 13.5729 19.0625 13.625C18.4896 13.5729 18.1771 13.2604 18.125 12.6875V8.70312L9.41406 17.4141C8.97135 17.7786 8.52865 17.7786 8.08594 17.4141C7.72135 16.9714 7.72135 16.5286 8.08594 16.0859L16.7969 7.375H12.8125C12.2396 7.32292 11.9271 7.01042 11.875 6.4375ZM2.8125 6.75H7.8125C8.38542 6.80208 8.69792 7.11458 8.75 7.6875C8.69792 8.26042 8.38542 8.57292 7.8125 8.625H2.8125C2.23958 8.67708 1.92708 8.98958 1.875 9.5625V22.6875C1.92708 23.2604 2.23958 23.5729 2.8125 23.625H15.9375C16.5104 23.5729 16.8229 23.2604 16.875 22.6875V17.6875C16.9271 17.1146 17.2396 16.8021 17.8125 16.75C18.3854 16.8021 18.6979 17.1146 18.75 17.6875V22.6875C18.724 23.4948 18.4505 24.1589 17.9297 24.6797C17.4089 25.2005 16.7448 25.474 15.9375 25.5H2.8125C2.00521 25.474 1.34115 25.2005 0.820312 24.6797C0.299479 24.1589 0.0260417 23.4948 0 22.6875V9.5625C0.0260417 8.75521 0.299479 8.09115 0.820312 7.57031C1.34115 7.04948 2.00521 6.77604 2.8125 6.75Z" fill="black" fill-opacity="0.72"/>
</g>
<defs>
<clipPath id="clip0_1731_5396">
<rect width="20" height="30" fill="white"/>
</clipPath>
</defs>
</svg>
