<svg width="20" height="30" viewBox="0 0 20 30" fill="none" xmlns="http://www.w3.org/2000/svg">
<g id="label-paired / lg / arrow-up-from-square-lg / bold" clip-path="url(#clip0_1731_5391)">
<path id="icon" d="M10.6641 5.77344L15.0391 10.1484C15.4036 10.5911 15.4036 11.0339 15.0391 11.4766C14.5964 11.8411 14.1536 11.8411 13.7109 11.4766L10.9375 8.70312V18.3125C10.8854 18.8854 10.5729 19.1979 10 19.25C9.42708 19.1979 9.11458 18.8854 9.0625 18.3125V8.70312L6.28906 11.4766C5.84635 11.8411 5.40365 11.8411 4.96094 11.4766C4.59635 11.0339 4.59635 10.5911 4.96094 10.1484L9.33594 5.77344C9.77865 5.40885 10.2214 5.40885 10.6641 5.77344ZM2.8125 6.75H3.125C3.69792 6.80208 4.01042 7.11458 4.0625 7.6875C4.01042 8.26042 3.69792 8.57292 3.125 8.625H2.8125C2.23958 8.67708 1.92708 8.98958 1.875 9.5625V22.6875C1.92708 23.2604 2.23958 23.5729 2.8125 23.625H17.1875C17.7604 23.5729 18.0729 23.2604 18.125 22.6875V9.5625C18.0729 8.98958 17.7604 8.67708 17.1875 8.625H16.875C16.3021 8.57292 15.9896 8.26042 15.9375 7.6875C15.9896 7.11458 16.3021 6.80208 16.875 6.75H17.1875C17.9948 6.77604 18.6589 7.04948 19.1797 7.57031C19.7005 8.09115 19.974 8.75521 20 9.5625V22.6875C19.974 23.4948 19.7005 24.1589 19.1797 24.6797C18.6589 25.2005 17.9948 25.474 17.1875 25.5H2.8125C2.00521 25.474 1.34115 25.2005 0.820312 24.6797C0.299479 24.1589 0.0260417 23.4948 0 22.6875V9.5625C0.0260417 8.75521 0.299479 8.09115 0.820312 7.57031C1.34115 7.04948 2.00521 6.77604 2.8125 6.75Z" fill="black" fill-opacity="0.72"/>
</g>
<defs>
<clipPath id="clip0_1731_5391">
<rect width="20" height="30" fill="white"/>
</clipPath>
</defs>
</svg>
