<svg width="10" height="24" viewBox="0 0 10 24" fill="none" xmlns="http://www.w3.org/2000/svg">
<g id="label-paired / md / dollar-sign-md / bold" clip-path="url(#clip0_1731_4210)">
<path id="icon" d="M5.75 4.75V6.28125C6.625 6.38542 7.375 6.52083 8 6.6875C8.4375 6.83333 8.61458 7.13542 8.53125 7.59375C8.38542 8.03125 8.09375 8.21875 7.65625 8.15625C7.15625 8.03125 6.58333 7.91667 5.9375 7.8125C5.3125 7.72917 4.69792 7.70833 4.09375 7.75C3.48958 7.79167 3.01042 7.92708 2.65625 8.15625C2.34375 8.34375 2.13542 8.65625 2.03125 9.09375C1.96875 9.44792 1.98958 9.70833 2.09375 9.875C2.17708 10.0417 2.35417 10.2188 2.625 10.4062C3.25 10.7396 4.10417 11.0312 5.1875 11.2812H5.25C5.75 11.4062 6.25 11.5521 6.75 11.7188C7.27083 11.8646 7.73958 12.0625 8.15625 12.3125C8.61458 12.5833 8.97917 12.9688 9.25 13.4688C9.5 13.9688 9.5625 14.5417 9.4375 15.1875C9.16667 16.2917 8.5 17.0208 7.4375 17.375C6.91667 17.5833 6.35417 17.6979 5.75 17.7188V19.25C5.70833 19.7083 5.45833 19.9583 5 20C4.54167 19.9583 4.29167 19.7083 4.25 19.25V17.6875C4.20833 17.6875 4.15625 17.6875 4.09375 17.6875C4.05208 17.6667 4 17.6562 3.9375 17.6562C3.52083 17.5938 3.03125 17.4896 2.46875 17.3438C1.88542 17.1979 1.375 17.0312 0.9375 16.8438C0.541667 16.6354 0.416667 16.3125 0.5625 15.875C0.791667 15.4583 1.125 15.3229 1.5625 15.4688C1.91667 15.6354 2.34375 15.7812 2.84375 15.9062C3.34375 16.0312 3.78125 16.125 4.15625 16.1875C5.28125 16.3333 6.1875 16.2708 6.875 16C7.52083 15.7292 7.88542 15.3646 7.96875 14.9062C8.03125 14.5521 8.01042 14.2917 7.90625 14.125C7.82292 13.9583 7.64583 13.7812 7.375 13.5938C6.75 13.2604 5.89583 12.9688 4.8125 12.7188H4.75C4.25 12.5938 3.75 12.4479 3.25 12.2812C2.72917 12.1354 2.26042 11.9375 1.84375 11.6875C1.38542 11.4167 1.02083 11.0312 0.75 10.5312C0.5 10.0312 0.4375 9.45833 0.5625 8.8125C0.75 7.9375 1.1875 7.29167 1.875 6.875C2.52083 6.5 3.21875 6.29167 3.96875 6.25C4.05208 6.25 4.14583 6.25 4.25 6.25V4.75C4.29167 4.29167 4.54167 4.04167 5 4C5.45833 4.04167 5.70833 4.29167 5.75 4.75Z" fill="black" fill-opacity="0.72"/>
</g>
<defs>
<clipPath id="clip0_1731_4210">
<rect width="10" height="24" fill="white"/>
</clipPath>
</defs>
</svg>
