<svg width="15" height="18" viewBox="0 0 15 18" fill="none" xmlns="http://www.w3.org/2000/svg">
<g id="label-paired / caption / laptop-caption / regular" clip-path="url(#clip0_1731_1384)">
<path id="icon" d="M12 5H3C2.78125 5 2.60156 5.07031 2.46094 5.21094C2.32031 5.35156 2.25 5.53125 2.25 5.75V11.75H1.5V5.75C1.51562 5.32812 1.66406 4.97656 1.94531 4.69531C2.22656 4.41406 2.57812 4.26562 3 4.25H12C12.4219 4.26562 12.7734 4.41406 13.0547 4.69531C13.3359 4.97656 13.4844 5.32812 13.5 5.75V11.75H12.75V5.75C12.75 5.53125 12.6797 5.35156 12.5391 5.21094C12.3984 5.07031 12.2188 5 12 5ZM1.80469 14H13.1953C13.7109 13.9688 14.0469 13.7188 14.2031 13.25H0.796875C0.953125 13.7188 1.28906 13.9688 1.80469 14ZM0 12.9453C0.03125 12.6797 0.179688 12.5312 0.445312 12.5H14.5547C14.8203 12.5312 14.9688 12.6797 15 12.9453C14.9844 13.4609 14.8125 13.8906 14.4844 14.2344C14.1406 14.5625 13.7109 14.7344 13.1953 14.75H1.80469C1.28906 14.7344 0.867188 14.5625 0.539062 14.2344C0.195312 13.8906 0.015625 13.4609 0 12.9453Z" fill="black" fill-opacity="0.72"/>
</g>
<defs>
<clipPath id="clip0_1731_1384">
<rect width="15" height="18" fill="white"/>
</clipPath>
</defs>
</svg>
