<svg width="24" height="36" viewBox="0 0 24 36" fill="none" xmlns="http://www.w3.org/2000/svg">
<g id="label-paired / xl / circle-euro-xl / regular" clip-path="url(#clip0_1731_6738)">
<path id="icon" d="M22.5 18C22.4688 16.0938 22 14.3438 21.0938 12.75C20.1562 11.1562 18.875 9.875 17.25 8.90625C15.5938 7.96875 13.8438 7.5 12 7.5C10.1562 7.5 8.40625 7.96875 6.75 8.90625C5.125 9.875 3.84375 11.1562 2.90625 12.75C2 14.3438 1.53125 16.0938 1.5 18C1.53125 19.9062 2 21.6562 2.90625 23.25C3.84375 24.8438 5.125 26.125 6.75 27.0938C8.40625 28.0312 10.1562 28.5 12 28.5C13.8438 28.5 15.5938 28.0312 17.25 27.0938C18.875 26.125 20.1562 24.8438 21.0938 23.25C22 21.6562 22.4688 19.9062 22.5 18ZM0 18C0.03125 15.8125 0.5625 13.8125 1.59375 12C2.65625 10.1875 4.125 8.71875 6 7.59375C7.90625 6.53125 9.90625 6 12 6C14.0938 6 16.0938 6.53125 18 7.59375C19.875 8.71875 21.3438 10.1875 22.4062 12C23.4375 13.8125 23.9688 15.8125 24 18C23.9688 20.1875 23.4375 22.1875 22.4062 24C21.3438 25.8125 19.875 27.2812 18 28.4062C16.0938 29.4688 14.0938 30 12 30C9.90625 30 7.90625 29.4688 6 28.4062C4.125 27.2812 2.65625 25.8125 1.59375 24C0.5625 22.1875 0.03125 20.1875 0 18ZM6 18.75H7.125C7.09375 18.5 7.07812 18.2656 7.07812 18.0469C7.07812 17.7656 7.09375 17.5 7.125 17.25H6C5.53125 17.2188 5.28125 16.9688 5.25 16.5C5.28125 16.0312 5.53125 15.7812 6 15.75H7.59375C8.03125 14.8438 8.67188 14.125 9.51562 13.5938C10.3594 13.0312 11.3125 12.75 12.375 12.75H14.2969C14.7656 12.7812 15.0156 13.0312 15.0469 13.5C15.0156 13.9688 14.7656 14.2188 14.2969 14.25H12.375C11.0938 14.2812 10.0938 14.7812 9.375 15.75H13.5C13.9688 15.7812 14.2188 16.0312 14.25 16.5C14.2188 16.9688 13.9688 17.2188 13.5 17.25H8.67188C8.60938 17.5 8.57812 17.7656 8.57812 18.0469C8.57812 18.2969 8.60938 18.5312 8.67188 18.75H13.5C13.9688 18.7812 14.2188 19.0312 14.25 19.5C14.2188 19.9688 13.9688 20.2188 13.5 20.25H9.28125C10.0312 21.25 11.0625 21.7812 12.375 21.8438H14.2969C14.7656 21.875 15.0156 22.125 15.0469 22.5938C15.0156 23.0312 14.7656 23.2812 14.2969 23.3438H12.375C11.2812 23.3125 10.3125 23.0156 9.46875 22.4531C8.625 21.8906 8 21.1562 7.59375 20.25H6C5.53125 20.2188 5.28125 19.9688 5.25 19.5C5.28125 19.0312 5.53125 18.7812 6 18.75Z" fill="black" fill-opacity="0.72"/>
</g>
<defs>
<clipPath id="clip0_1731_6738">
<rect width="24" height="36" fill="white"/>
</clipPath>
</defs>
</svg>
