<svg width="9" height="22" viewBox="0 0 9 22" fill="none" xmlns="http://www.w3.org/2000/svg">
<g id="label-paired / sm / backward-step-sm / regular" clip-path="url(#clip0_1731_2815)">
<path id="icon" d="M1.875 5.9375V9.65625L6.76953 5.66406C6.89714 5.55469 7.05208 5.5 7.23438 5.5C7.45312 5.5 7.63542 5.57292 7.78125 5.71875C7.92708 5.86458 8 6.04688 8 6.26562V15.2344C8 15.4531 7.92708 15.6354 7.78125 15.7812C7.63542 15.9271 7.45312 16 7.23438 16C7.05208 16 6.89714 15.9453 6.76953 15.8359L1.875 11.8438V15.5625C1.85677 15.8359 1.71094 15.9818 1.4375 16C1.16406 15.9818 1.01823 15.8359 1 15.5625V11.1328V10.3672V5.9375C1.01823 5.66406 1.16406 5.51823 1.4375 5.5C1.71094 5.51823 1.85677 5.66406 1.875 5.9375ZM7.125 6.51172L1.90234 10.75L7.125 14.9883V6.51172Z" fill="black" fill-opacity="0.72"/>
</g>
<defs>
<clipPath id="clip0_1731_2815">
<rect width="9" height="22" fill="white"/>
</clipPath>
</defs>
</svg>
