<svg width="12" height="18" viewBox="0 0 12 18" fill="none" xmlns="http://www.w3.org/2000/svg">
<g id="label-paired / caption / chart-line-caption / regular" clip-path="url(#clip0_1731_1247)">
<path id="icon" d="M0.75 4.625V12.875C0.765625 13.1875 0.875 13.4531 1.07812 13.6719C1.29688 13.875 1.5625 13.9844 1.875 14H11.625C11.8594 14.0156 11.9844 14.1406 12 14.375C11.9844 14.6094 11.8594 14.7344 11.625 14.75H1.875C1.34375 14.7344 0.898438 14.5547 0.539062 14.2109C0.195312 13.8516 0.015625 13.4062 0 12.875V4.625C0.015625 4.39062 0.140625 4.26562 0.375 4.25C0.609375 4.26562 0.734375 4.39062 0.75 4.625ZM11.1328 7.13281L7.75781 10.5078C7.58594 10.6641 7.41406 10.6641 7.24219 10.5078L5.25 8.53906L2.88281 10.8828C2.71094 11.0391 2.53906 11.0391 2.36719 10.8828C2.21094 10.7109 2.21094 10.5391 2.36719 10.3672L4.99219 7.74219C5.16406 7.58594 5.33594 7.58594 5.50781 7.74219L7.5 9.71094L10.6172 6.61719C10.7891 6.46094 10.9609 6.46094 11.1328 6.61719C11.2891 6.78906 11.2891 6.96094 11.1328 7.13281Z" fill="black" fill-opacity="0.72"/>
</g>
<defs>
<clipPath id="clip0_1731_1247">
<rect width="12" height="18" fill="white"/>
</clipPath>
</defs>
</svg>
