<svg width="15" height="30" viewBox="0 0 15 30" fill="none" xmlns="http://www.w3.org/2000/svg">
<g id="label-paired / lg / mobile-screen-button-lg / bold" clip-path="url(#clip0_1731_4844)">
<path id="icon" d="M2.5 23C2.52604 23.3906 2.73438 23.599 3.125 23.625H11.875C12.2656 23.599 12.474 23.3906 12.5 23V19.875H2.5V23ZM2.5 18H12.5V8C12.474 7.60938 12.2656 7.40104 11.875 7.375H3.125C2.73438 7.40104 2.52604 7.60938 2.5 8V18ZM0.625 8C0.651042 7.29688 0.898438 6.71094 1.36719 6.24219C1.83594 5.77344 2.42188 5.52604 3.125 5.5H11.875C12.5781 5.52604 13.1641 5.77344 13.6328 6.24219C14.1016 6.71094 14.349 7.29688 14.375 8V23C14.349 23.7031 14.1016 24.2891 13.6328 24.7578C13.1641 25.2266 12.5781 25.474 11.875 25.5H3.125C2.42188 25.474 1.83594 25.2266 1.36719 24.7578C0.898438 24.2891 0.651042 23.7031 0.625 23V8ZM6.25 21.125H8.75C9.14062 21.151 9.34896 21.3594 9.375 21.75C9.34896 22.1406 9.14062 22.349 8.75 22.375H6.25C5.85938 22.349 5.65104 22.1406 5.625 21.75C5.65104 21.3594 5.85938 21.151 6.25 21.125Z" fill="black" fill-opacity="0.72"/>
</g>
<defs>
<clipPath id="clip0_1731_4844">
<rect width="15" height="30" fill="white"/>
</clipPath>
</defs>
</svg>
