<svg width="16" height="24" viewBox="0 0 16 24" fill="none" xmlns="http://www.w3.org/2000/svg">
<g id="label-paired / md / circle-calendar-md / bold" clip-path="url(#clip0_1731_3122)">
<path id="icon" d="M14.5 12C14.5 10.8125 14.2083 9.72917 13.625 8.75C13.0625 7.77083 12.2708 6.97917 11.25 6.375C10.2292 5.79167 9.14583 5.5 8 5.5C6.85417 5.5 5.77083 5.79167 4.75 6.375C3.72917 6.97917 2.9375 7.77083 2.375 8.75C1.79167 9.72917 1.5 10.8125 1.5 12C1.5 13.1875 1.79167 14.2708 2.375 15.25C2.9375 16.2292 3.72917 17.0208 4.75 17.625C5.77083 18.2083 6.85417 18.5 8 18.5C9.14583 18.5 10.2292 18.2083 11.25 17.625C12.2708 17.0208 13.0625 16.2292 13.625 15.25C14.2083 14.2708 14.5 13.1875 14.5 12ZM0 12C0.0208333 10.5417 0.375 9.20833 1.0625 8C1.77083 6.79167 2.75 5.8125 4 5.0625C5.27083 4.35417 6.60417 4 8 4C9.39583 4 10.7292 4.35417 12 5.0625C13.25 5.8125 14.2292 6.79167 14.9375 8C15.625 9.20833 15.9792 10.5417 16 12C15.9792 13.4583 15.625 14.7917 14.9375 16C14.2292 17.2083 13.25 18.1875 12 18.9375C10.7292 19.6458 9.39583 20 8 20C6.60417 20 5.27083 19.6458 4 18.9375C2.75 18.1875 1.77083 17.2083 1.0625 16C0.375 14.7917 0.0208333 13.4583 0 12ZM6.5 7.5C6.8125 7.52083 6.97917 7.6875 7 8V8.5H9V8C9.02083 7.6875 9.1875 7.52083 9.5 7.5C9.8125 7.52083 9.97917 7.6875 10 8V8.5H10.5C10.9167 8.52083 11.2708 8.66667 11.5625 8.9375C11.8333 9.22917 11.9792 9.58333 12 10V11V14C11.9792 14.4167 11.8333 14.7708 11.5625 15.0625C11.2708 15.3333 10.9167 15.4792 10.5 15.5H5.5C5.08333 15.4792 4.72917 15.3333 4.4375 15.0625C4.16667 14.7708 4.02083 14.4167 4 14V11V10C4.02083 9.58333 4.16667 9.22917 4.4375 8.9375C4.72917 8.66667 5.08333 8.52083 5.5 8.5H6V8C6.02083 7.6875 6.1875 7.52083 6.5 7.5ZM5.5 14H10.5V11H5.5V14Z" fill="black" fill-opacity="0.72"/>
</g>
<defs>
<clipPath id="clip0_1731_3122">
<rect width="16" height="24" fill="white"/>
</clipPath>
</defs>
</svg>
