<svg width="20" height="24" viewBox="0 0 20 24" fill="none" xmlns="http://www.w3.org/2000/svg">
<g id="label-paired / md / ios-md" clip-path="url(#clip0_1731_13956)">
<path id="icon" d="M10.4062 12.25C10.4062 13.6875 9.6875 14.5938 8.46875 14.5938C7.28125 14.5938 6.5625 13.6875 6.5625 12.25C6.5625 10.8125 7.28125 9.90625 8.46875 9.90625C9.6875 9.90625 10.4062 10.8125 10.4062 12.25ZM18 8.40625V15.625C18 16.1875 17.9688 17.0938 17.6562 17.875C17.5 18.2812 17.1562 18.8438 16.6562 19.2188C16.3438 19.4375 16 19.6562 15.5312 19.8125C15 19.9688 14.375 20 13.5938 20H6.375C5.59375 20 4.96875 19.9688 4.4375 19.8125C3.96875 19.6562 3.625 19.4375 3.3125 19.2188C2.8125 18.8438 2.46875 18.2812 2.3125 17.875C2 17.0938 2 16.1875 2 15.625V8.40625C2 7.84375 2 6.9375 2.3125 6.15625C2.46875 5.75 2.8125 5.1875 3.3125 4.8125C3.625 4.5625 3.96875 4.34375 4.4375 4.21875C4.96875 4.0625 5.59375 4 6.375 4H13.5938C14.375 4 15 4.0625 15.5312 4.21875C16 4.375 16.3438 4.59375 16.6562 4.8125C17.1562 5.1875 17.5 5.75 17.6562 6.15625C17.9688 6.9375 18 7.84375 18 8.40625ZM5.15625 15.1562V11.6875H4.4375V15.1562H5.15625ZM5.1875 10.7188C5.1875 10.5 5 10.3125 4.78125 10.3125C4.5625 10.3125 4.375 10.5 4.375 10.7188C4.375 10.9375 4.5625 11.125 4.78125 11.125C5 11.125 5.1875 10.9375 5.1875 10.7188ZM11.1562 12.25C11.1562 10.4062 10.125 9.25 8.46875 9.25C6.84375 9.25 5.8125 10.4062 5.8125 12.25C5.8125 14.0938 6.84375 15.25 8.46875 15.25C10.125 15.25 11.1562 14.0938 11.1562 12.25ZM15.8125 13.5C15.8125 12.6875 15.3125 12.1875 14.125 11.9375L13.4688 11.7812C12.6875 11.625 12.375 11.3125 12.375 10.8438C12.375 10.25 12.9062 9.90625 13.6562 9.90625C14.4062 9.90625 14.9062 10.2812 14.9688 10.9375H15.6875C15.6562 9.9375 14.8125 9.25 13.6562 9.25C12.4688 9.25 11.625 9.9375 11.625 10.875C11.625 11.7188 12.125 12.25 13.2812 12.5L13.9375 12.625C14.7188 12.8125 15.0625 13.125 15.0625 13.625C15.0625 14.1875 14.4688 14.5938 13.6875 14.5938C12.875 14.5938 12.2812 14.2188 12.1875 13.5938H11.4688C11.5312 14.5938 12.4062 15.25 13.6562 15.25C14.9688 15.25 15.8125 14.5938 15.8125 13.5Z" fill="black" fill-opacity="0.72"/>
</g>
<defs>
<clipPath id="clip0_1731_13956">
<rect width="20" height="24" fill="white"/>
</clipPath>
</defs>
</svg>
