<svg width="23" height="30" viewBox="0 0 23 30" fill="none" xmlns="http://www.w3.org/2000/svg">
<g id="label-paired / lg / house-blank-lg / regular" clip-path="url(#clip0_1731_4903)">
<path id="icon" d="M11.0703 5.65625C11.3568 5.44792 11.6432 5.44792 11.9297 5.65625L22.5547 15.0312C22.8151 15.3177 22.8281 15.6172 22.5938 15.9297C22.3073 16.1901 22.0078 16.2031 21.6953 15.9688L20.25 14.6797V22.375C20.224 23.2604 19.9245 24.0026 19.3516 24.6016C18.7526 25.1745 18.0104 25.474 17.125 25.5H5.875C4.98958 25.474 4.2474 25.1745 3.64844 24.6016C3.07552 24.0026 2.77604 23.2604 2.75 22.375V14.6797L1.30469 15.9688C0.992188 16.2031 0.692708 16.1901 0.40625 15.9297C0.171875 15.6172 0.184896 15.3177 0.445312 15.0312L11.0703 5.65625ZM4 13.5859V22.375C4.02604 22.8958 4.20833 23.3385 4.54688 23.7031C4.91146 24.0417 5.35417 24.224 5.875 24.25H17.125C17.6458 24.224 18.0885 24.0417 18.4531 23.7031C18.7917 23.3385 18.974 22.8958 19 22.375V13.5859L11.5 6.94531L4 13.5859Z" fill="black" fill-opacity="0.72"/>
</g>
<defs>
<clipPath id="clip0_1731_4903">
<rect width="23" height="30" fill="white"/>
</clipPath>
</defs>
</svg>
