<svg width="15" height="18" viewBox="0 0 15 18" fill="none" xmlns="http://www.w3.org/2000/svg">
<g id="label-paired / caption / wallet-circle-minus-caption / regular" clip-path="url(#clip0_1731_1672)">
<path id="icon" d="M0 6.125C0 5.09375 0.820312 4.25 1.875 4.25C4.875 4.25 7.875 4.25 10.875 4.25C11.0625 4.25 11.25 4.4375 11.25 4.625C11.25 4.83594 11.0625 5 10.875 5C7.875 5 4.875 5 1.875 5C1.24219 5 0.75 5.51562 0.75 6.125C0.75 8.375 0.75 10.625 0.75 12.875C0.75 13.5078 1.24219 14 1.875 14C3.89062 14 5.90625 14 7.94531 14C8.08594 14.2812 8.25 14.5391 8.4375 14.75C6.23438 14.75 4.05469 14.75 1.875 14.75C0.820312 14.75 0 13.9297 0 12.875C0 10.625 0 8.375 0 6.125ZM2.25 6.125C2.25 5.9375 2.41406 5.75 2.625 5.75C5.10938 5.75 7.61719 5.75 10.125 5.75C11.1562 5.75 12 6.59375 12 7.625C12 7.76562 12 7.90625 12 8.02344C11.8594 8.02344 11.7422 8 11.625 8C11.4844 8 11.3672 8.02344 11.25 8.02344C11.25 7.90625 11.25 7.76562 11.25 7.625C11.25 7.01562 10.7344 6.5 10.125 6.5C7.61719 6.5 5.10938 6.5 2.625 6.5C2.41406 6.5 2.25 6.33594 2.25 6.125ZM8.25 12.125C8.25 10.2734 9.75 8.75 11.625 8.75C13.4766 8.75 15 10.2734 15 12.125C15 14 13.4766 15.5 11.625 15.5C9.75 15.5 8.25 14 8.25 12.125ZM9 12.125C9 13.5781 10.1719 14.75 11.625 14.75C13.0547 14.75 14.25 13.5781 14.25 12.125C14.25 10.6953 13.0547 9.5 11.625 9.5C10.1719 9.5 9 10.6953 9 12.125ZM9.75 12.125C9.75 11.9375 9.91406 11.75 10.125 11.75C11.1094 11.75 12.1172 11.75 13.125 11.75C13.3125 11.75 13.5 11.9375 13.5 12.125C13.5 12.3359 13.3125 12.5 13.125 12.5C12.1172 12.5 11.1094 12.5 10.125 12.5C9.91406 12.5 9.75 12.3359 9.75 12.125Z" fill="black" fill-opacity="0.72"/>
</g>
<defs>
<clipPath id="clip0_1731_1672">
<rect width="15" height="18" fill="white"/>
</clipPath>
</defs>
</svg>
