<svg width="14" height="18" viewBox="0 0 14 18" fill="none" xmlns="http://www.w3.org/2000/svg">
<g id="label-paired / caption / presentation-screen-caption / regular" clip-path="url(#clip0_1731_1328)">
<path id="icon" d="M0.625 3.5H13.375C13.6094 3.51563 13.7344 3.64062 13.75 3.875C13.7344 4.10938 13.6094 4.23438 13.375 4.25H0.625C0.390625 4.23438 0.265625 4.10938 0.25 3.875C0.265625 3.64062 0.390625 3.51563 0.625 3.5ZM1 5H1.75V10.25C1.75 10.4688 1.82031 10.6484 1.96094 10.7891C2.10156 10.9297 2.28125 11 2.5 11H7H11.5C11.7188 11 11.8984 10.9297 12.0391 10.7891C12.1797 10.6484 12.25 10.4688 12.25 10.25V5H13V10.25C12.9844 10.6719 12.8359 11.0234 12.5547 11.3047C12.2734 11.5859 11.9219 11.7344 11.5 11.75H7.375V12.7109L9.50781 14.8672C9.66406 15.0391 9.66406 15.2109 9.50781 15.3828C9.33594 15.5391 9.16406 15.5391 8.99219 15.3828L7 13.4141L5.00781 15.3828C4.83594 15.5391 4.66406 15.5391 4.49219 15.3828C4.33594 15.2109 4.33594 15.0391 4.49219 14.8672L6.625 12.7109V11.75H2.5C2.07812 11.7344 1.72656 11.5859 1.44531 11.3047C1.16406 11.0234 1.01562 10.6719 1 10.25V5Z" fill="black" fill-opacity="0.72"/>
</g>
<defs>
<clipPath id="clip0_1731_1328">
<rect width="14" height="18" fill="white"/>
</clipPath>
</defs>
</svg>
