<svg width="20" height="30" viewBox="0 0 20 30" fill="none" xmlns="http://www.w3.org/2000/svg">
<g id="label-paired / lg / life-ring-lg / regular" clip-path="url(#clip0_1731_5484)">
<path id="icon" d="M15.7422 22.1016L12.1875 18.5469C11.5625 18.9896 10.8333 19.224 10 19.25C9.16667 19.224 8.4375 18.9896 7.8125 18.5469L4.25781 22.1016C5.84635 23.4818 7.76042 24.1979 10 24.25C12.2396 24.1979 14.1536 23.4818 15.7422 22.1016ZM16.6016 21.2422C17.9818 19.6536 18.6979 17.7396 18.75 15.5C18.6979 13.2604 17.9818 11.3464 16.6016 9.75781L13.0469 13.3125C13.4896 13.9375 13.724 14.6667 13.75 15.5C13.724 16.3333 13.4896 17.0625 13.0469 17.6875L16.6016 21.2422ZM17.5 22.1016L17.9297 22.5703C18.1901 22.8568 18.1901 23.1432 17.9297 23.4297C17.6432 23.6901 17.3568 23.6901 17.0703 23.4297L16.6016 23C14.8047 24.6146 12.6042 25.4479 10 25.5C7.39583 25.4479 5.19531 24.6146 3.39844 23L2.92969 23.4297C2.64323 23.6901 2.35677 23.6901 2.07031 23.4297C1.8099 23.1432 1.8099 22.8568 2.07031 22.5703L2.5 22.1016C0.885417 20.2786 0.0520833 18.0781 0 15.5C0.0520833 12.9219 0.885417 10.7214 2.5 8.89844L2.07031 8.42969C1.8099 8.14323 1.8099 7.85677 2.07031 7.57031C2.35677 7.3099 2.64323 7.3099 2.92969 7.57031L3.39844 8C5.22135 6.38542 7.42188 5.55208 10 5.5C12.5781 5.55208 14.7786 6.38542 16.6016 8L17.0703 7.57031C17.3568 7.3099 17.6432 7.3099 17.9297 7.57031C18.1901 7.85677 18.1901 8.14323 17.9297 8.42969L17.5 8.89844C19.1146 10.6953 19.9479 12.8958 20 15.5C19.9479 18.1042 19.1146 20.3047 17.5 22.1016ZM15.7422 8.89844C14.1536 7.51823 12.2396 6.80208 10 6.75C7.76042 6.80208 5.84635 7.51823 4.25781 8.89844L7.8125 12.4531C8.4375 12.0104 9.16667 11.776 10 11.75C10.8333 11.776 11.5625 12.0104 12.1875 12.4531L15.7422 8.89844ZM6.95312 17.6875C6.51042 17.0625 6.27604 16.3333 6.25 15.5C6.27604 14.6667 6.51042 13.9375 6.95312 13.3125L3.39844 9.75781C2.01823 11.3464 1.30208 13.2604 1.25 15.5C1.30208 17.7396 2.01823 19.6536 3.39844 21.2422L6.95312 17.6875ZM7.5 15.5C7.52604 16.4375 7.94271 17.1536 8.75 17.6484C9.58333 18.1172 10.4167 18.1172 11.25 17.6484C12.0573 17.1536 12.474 16.4375 12.5 15.5C12.474 14.5625 12.0573 13.8464 11.25 13.3516C10.4167 12.8828 9.58333 12.8828 8.75 13.3516C7.94271 13.8464 7.52604 14.5625 7.5 15.5Z" fill="black" fill-opacity="0.72"/>
</g>
<defs>
<clipPath id="clip0_1731_5484">
<rect width="20" height="30" fill="white"/>
</clipPath>
</defs>
</svg>
