<svg width="10" height="24" viewBox="0 0 10 24" fill="none" xmlns="http://www.w3.org/2000/svg">
<g id="label-paired / md / euro-sign-md / bold" clip-path="url(#clip0_1731_4220)">
<path id="icon" d="M1.53125 11.5H0.75C0.291667 11.4583 0.0416667 11.2083 0 10.75C0.0416667 10.2917 0.291667 10.0417 0.75 10H1.78125C2.23958 8.52083 3.07292 7.32292 4.28125 6.40625C5.48958 5.48958 6.89583 5.02083 8.5 5H9.25C9.70833 5.04167 9.95833 5.29167 10 5.75C9.95833 6.20833 9.70833 6.45833 9.25 6.5H8.5C7.3125 6.52083 6.27083 6.84375 5.375 7.46875C4.45833 8.11458 3.79167 8.95833 3.375 10H8.25C8.70833 10.0417 8.95833 10.2917 9 10.75C8.95833 11.2083 8.70833 11.4583 8.25 11.5H3.03125C3.01042 11.6667 3 11.8333 3 12C3 12.1667 3.01042 12.3333 3.03125 12.5H8.25C8.70833 12.5417 8.95833 12.7917 9 13.25C8.95833 13.7083 8.70833 13.9583 8.25 14H3.375C3.79167 15.0417 4.45833 15.8854 5.375 16.5312C6.27083 17.1562 7.3125 17.4792 8.5 17.5H9.25C9.70833 17.5417 9.95833 17.7917 10 18.25C9.95833 18.7083 9.70833 18.9583 9.25 19H8.5C6.89583 18.9792 5.48958 18.5104 4.28125 17.5938C3.07292 16.6771 2.23958 15.4792 1.78125 14H0.75C0.291667 13.9583 0.0416667 13.7083 0 13.25C0.0416667 12.7917 0.291667 12.5417 0.75 12.5H1.53125C1.51042 12.3333 1.5 12.1667 1.5 12C1.5 11.8333 1.51042 11.6667 1.53125 11.5Z" fill="black" fill-opacity="0.72"/>
</g>
<defs>
<clipPath id="clip0_1731_4220">
<rect width="10" height="24" fill="white"/>
</clipPath>
</defs>
</svg>
