<svg width="12" height="24" viewBox="0 0 12 24" fill="none" xmlns="http://www.w3.org/2000/svg">
<g id="label-paired / md / xmark-md / bold" clip-path="url(#clip0_1731_3057)">
<path id="icon" d="M10.7812 8.28125L7.0625 12L10.7812 15.7188C11.0729 16.0729 11.0729 16.4271 10.7812 16.7812C10.4271 17.0729 10.0729 17.0729 9.71875 16.7812L6 13.0625L2.28125 16.7812C1.92708 17.0729 1.57292 17.0729 1.21875 16.7812C0.927083 16.4271 0.927083 16.0729 1.21875 15.7188L4.9375 12L1.21875 8.28125C0.927083 7.92708 0.927083 7.57292 1.21875 7.21875C1.57292 6.92708 1.92708 6.92708 2.28125 7.21875L6 10.9375L9.71875 7.21875C10.0729 6.92708 10.4271 6.92708 10.7812 7.21875C11.0729 7.57292 11.0729 7.92708 10.7812 8.28125Z" fill="black" fill-opacity="0.72"/>
</g>
<defs>
<clipPath id="clip0_1731_3057">
<rect width="12" height="24" fill="white"/>
</clipPath>
</defs>
</svg>
