<svg width="14" height="22" viewBox="0 0 14 22" fill="none" xmlns="http://www.w3.org/2000/svg">
<g id="label-paired / sm / circle-info-sm / regular" clip-path="url(#clip0_1731_2894)">
<path id="icon" d="M7 4.625C5.88802 4.64323 4.86719 4.91667 3.9375 5.44531C3.00781 5.99219 2.26042 6.73958 1.69531 7.6875C1.14844 8.65365 0.875 9.67448 0.875 10.75C0.875 11.8255 1.14844 12.8464 1.69531 13.8125C2.26042 14.7604 3.00781 15.5078 3.9375 16.0547C4.86719 16.5833 5.88802 16.8568 7 16.875C8.11198 16.8568 9.13281 16.5833 10.0625 16.0547C10.9922 15.5078 11.7396 14.7604 12.3047 13.8125C12.8516 12.8464 13.125 11.8255 13.125 10.75C13.125 9.67448 12.8516 8.65365 12.3047 7.6875C11.7396 6.73958 10.9922 5.99219 10.0625 5.44531C9.13281 4.91667 8.11198 4.64323 7 4.625ZM7 17.75C5.72396 17.7318 4.55729 17.4219 3.5 16.8203C2.44271 16.2005 1.58594 15.3438 0.929688 14.25C0.309896 13.138 0 11.9714 0 10.75C0 9.52865 0.309896 8.36198 0.929688 7.25C1.58594 6.15625 2.44271 5.29948 3.5 4.67969C4.55729 4.07812 5.72396 3.76823 7 3.75C8.27604 3.76823 9.44271 4.07812 10.5 4.67969C11.5573 5.29948 12.4141 6.15625 13.0703 7.25C13.6901 8.36198 14 9.52865 14 10.75C14 11.9714 13.6901 13.138 13.0703 14.25C12.4141 15.3438 11.5573 16.2005 10.5 16.8203C9.44271 17.4219 8.27604 17.7318 7 17.75ZM5.6875 13.375H6.5625V10.75H5.90625C5.63281 10.7318 5.48698 10.5859 5.46875 10.3125C5.48698 10.0391 5.63281 9.89323 5.90625 9.875H7C7.27344 9.89323 7.41927 10.0391 7.4375 10.3125V13.375H8.3125C8.58594 13.3932 8.73177 13.5391 8.75 13.8125C8.73177 14.0859 8.58594 14.2318 8.3125 14.25H5.6875C5.41406 14.2318 5.26823 14.0859 5.25 13.8125C5.26823 13.5391 5.41406 13.3932 5.6875 13.375ZM7 8.78125C6.59896 8.74479 6.38021 8.52604 6.34375 8.125C6.38021 7.72396 6.59896 7.50521 7 7.46875C7.40104 7.50521 7.61979 7.72396 7.65625 8.125C7.61979 8.52604 7.40104 8.74479 7 8.78125Z" fill="black" fill-opacity="0.72"/>
</g>
<defs>
<clipPath id="clip0_1731_2894">
<rect width="14" height="22" fill="white"/>
</clipPath>
</defs>
</svg>
