<svg width="15" height="18" viewBox="0 0 15 18" fill="none" xmlns="http://www.w3.org/2000/svg">
<g id="label-paired / caption / fiat-onramp-caption / bold" clip-path="url(#clip0_1731_1679)">
<path id="icon" d="M10.3828 4.625C9.67969 4.64844 9.02344 5.02344 8.67188 5.63281C8.32031 6.24219 8.32031 6.99219 8.67188 7.60156C9.02344 8.21094 9.67969 8.58594 10.3828 8.58594C11.0859 8.58594 11.7422 8.21094 12.0938 7.60156C12.4453 6.99219 12.4453 6.24219 12.0938 5.63281C11.7422 5.02344 11.0859 4.625 10.3828 4.625ZM12.375 9.00781C11.8359 9.45312 11.1328 9.71094 10.3828 9.71094C9.375 9.71094 8.46094 9.21875 7.89844 8.44531L6.42188 9.92188C7.19531 10.4844 7.6875 11.3984 7.6875 12.4062C7.6875 13.1562 7.42969 13.8594 6.98438 14.375H11.4844C11.9766 14.375 12.375 13.9766 12.375 13.5078V9.00781ZM4.59375 14.375C5.67188 14.375 6.5625 13.5078 6.5625 12.4062C6.5625 11.5859 6.04688 10.8594 5.32031 10.5781H5.29688C5.08594 10.4844 4.85156 10.4375 4.59375 10.4375C3.49219 10.4375 2.625 11.3281 2.625 12.4062C2.625 13.5078 3.49219 14.375 4.59375 14.375ZM5.34375 9.40625L7.38281 7.36719C7.3125 7.13281 7.28906 6.875 7.28906 6.61719C7.28906 4.90625 8.67188 3.5 10.3828 3.5C12.0938 3.5 13.5 4.90625 13.5 6.61719V13.5078C13.5 14.6094 12.5859 15.5 11.4844 15.5H4.59375C2.88281 15.5 1.5 14.1172 1.5 12.4062C1.5 10.6953 2.88281 9.3125 4.59375 9.3125C4.85156 9.3125 5.10938 9.33594 5.34375 9.40625ZM3.63281 6.24219C3.63281 5.9375 3.89062 5.67969 4.19531 5.67969H6.39844C6.63281 5.67969 6.84375 5.82031 6.91406 6.03125C7.00781 6.24219 6.96094 6.47656 6.79688 6.64062L4.61719 8.82031C4.40625 9.03125 4.05469 9.03125 3.82031 8.82031C3.60938 8.60938 3.60938 8.23438 3.82031 8.02344L5.03906 6.80469H4.19531C3.89062 6.80469 3.63281 6.57031 3.63281 6.24219ZM10.0547 5.04688V5.49219H10.5V5.04688H10.9453V5.49219C11.1094 5.49219 11.2734 5.53906 11.3906 5.65625C11.6719 5.91406 11.6953 6.33594 11.4375 6.61719C11.5547 6.73438 11.625 6.89844 11.625 7.0625C11.625 7.4375 11.3203 7.74219 10.9453 7.74219V8.1875H10.5V7.74219H10.0547V8.1875H9.60938V7.74219H9.16406V7.29688H9.60938V5.9375H9.16406V5.49219H9.60938V5.04688H10.0547ZM10.9453 6.82812H10.0547V7.29688H10.9453C11.0625 7.29688 11.1797 7.17969 11.1797 7.0625C11.1797 6.94531 11.0625 6.82812 10.9453 6.82812ZM10.9453 5.9375H10.0547V6.38281H10.9453C11.0625 6.38281 11.1797 6.28906 11.1797 6.17188C11.1797 6.03125 11.0625 5.9375 10.9453 5.9375ZM4.875 10.7188V10.9531C5.22656 11.0938 5.48438 11.4219 5.48438 11.7969V11.8672H4.92188V11.7969C4.92188 11.6094 4.78125 11.4688 4.59375 11.4688C4.40625 11.4688 4.26562 11.6094 4.26562 11.7969C4.26562 11.9844 4.40625 12.125 4.59375 12.125C5.08594 12.125 5.48438 12.5234 5.48438 13.0156C5.48438 13.3906 5.22656 13.7188 4.875 13.8594V14.0938H4.3125V13.8359C3.96094 13.7188 3.72656 13.3906 3.72656 13.0156V12.9219H4.26562V13.0156C4.26562 13.1797 4.40625 13.3438 4.59375 13.3438C4.78125 13.3438 4.92188 13.1797 4.92188 13.0156C4.92188 12.8281 4.78125 12.6875 4.59375 12.6875C4.10156 12.6875 3.72656 12.2891 3.72656 11.7969C3.72656 11.4219 3.96094 11.0703 4.3125 10.9531V10.7188H4.875Z" fill="black" fill-opacity="0.72"/>
</g>
<defs>
<clipPath id="clip0_1731_1679">
<rect width="15" height="18" fill="white"/>
</clipPath>
</defs>
</svg>
