<svg width="12" height="18" viewBox="0 0 12 18" fill="none" xmlns="http://www.w3.org/2000/svg">
<g id="label-paired / caption / window-maximize-caption / bold" clip-path="url(#clip0_1731_691)">
<path id="icon" d="M0 5.60938C0.03125 5.40625 0.09375 5.21875 0.1875 5.04688C0.3125 4.79688 0.5 4.60156 0.75 4.46094C0.9375 4.35156 1.14062 4.28125 1.35938 4.25C1.40625 4.25 1.45312 4.25 1.5 4.25H10.5C10.9219 4.26562 11.2734 4.41406 11.5547 4.69531C11.8359 4.97656 11.9844 5.32812 12 5.75V8.75V13.25C11.9844 13.6719 11.8359 14.0234 11.5547 14.3047C11.2734 14.5859 10.9219 14.7344 10.5 14.75H1.5C1.07812 14.7344 0.726562 14.5859 0.445312 14.3047C0.164062 14.0234 0.015625 13.6719 0 13.25V8.75V5.75C0 5.70312 0 5.65625 0 5.60938ZM1.125 8.75V13.25C1.14062 13.4844 1.26562 13.6094 1.5 13.625H10.5C10.7344 13.6094 10.8594 13.4844 10.875 13.25V8.75H1.125Z" fill="black" fill-opacity="0.72"/>
</g>
<defs>
<clipPath id="clip0_1731_691">
<rect width="12" height="18" fill="white"/>
</clipPath>
</defs>
</svg>
