<svg width="20" height="30" viewBox="0 0 20 30" fill="none" xmlns="http://www.w3.org/2000/svg">
<g id="label-paired / lg / circle-xmark-lg / bold" clip-path="url(#clip0_1731_5276)">
<path id="icon" d="M10 7.375C8.51562 7.375 7.16146 7.73958 5.9375 8.46875C4.71354 9.17188 3.72396 10.1615 2.96875 11.4375C2.23958 12.7135 1.875 14.0677 1.875 15.5C1.875 16.9323 2.23958 18.2865 2.96875 19.5625C3.72396 20.8385 4.71354 21.8281 5.9375 22.5312C7.16146 23.2604 8.51562 23.625 10 23.625C11.4844 23.625 12.8385 23.2604 14.0625 22.5312C15.2865 21.8281 16.276 20.8385 17.0312 19.5625C17.7604 18.2865 18.125 16.9323 18.125 15.5C18.125 14.0677 17.7604 12.7135 17.0312 11.4375C16.276 10.1615 15.2865 9.17188 14.0625 8.46875C12.8385 7.73958 11.4844 7.375 10 7.375ZM10 25.5C8.17708 25.474 6.51042 25.0312 5 24.1719C3.48958 23.2865 2.26562 22.0625 1.32812 20.5C0.442708 18.9115 0 17.2448 0 15.5C0 13.7552 0.442708 12.0885 1.32812 10.5C2.26562 8.9375 3.48958 7.71354 5 6.82812C6.51042 5.96875 8.17708 5.52604 10 5.5C11.8229 5.52604 13.4896 5.96875 15 6.82812C16.5104 7.71354 17.7344 8.9375 18.6719 10.5C19.5573 12.0885 20 13.7552 20 15.5C20 17.2448 19.5573 18.9115 18.6719 20.5C17.7344 22.0625 16.5104 23.2865 15 24.1719C13.4896 25.0312 11.8229 25.474 10 25.5ZM6.83594 12.3359C7.27865 11.9714 7.72135 11.9714 8.16406 12.3359L10 14.1719L11.8359 12.3359C12.2786 11.9714 12.7214 11.9714 13.1641 12.3359C13.5286 12.7786 13.5286 13.2214 13.1641 13.6641L11.3281 15.5L13.1641 17.3359C13.5286 17.7786 13.5286 18.2214 13.1641 18.6641C12.7214 19.0286 12.2786 19.0286 11.8359 18.6641L10 16.8281L8.16406 18.6641C7.72135 19.0286 7.27865 19.0286 6.83594 18.6641C6.47135 18.2214 6.47135 17.7786 6.83594 17.3359L8.67188 15.5L6.83594 13.6641C6.47135 13.2214 6.47135 12.7786 6.83594 12.3359Z" fill="black" fill-opacity="0.72"/>
</g>
<defs>
<clipPath id="clip0_1731_5276">
<rect width="20" height="30" fill="white"/>
</clipPath>
</defs>
</svg>
