<svg width="15" height="30" viewBox="0 0 15 30" fill="none" xmlns="http://www.w3.org/2000/svg">
<g id="label-paired / lg / file-invoice-dollar-lg / bold" clip-path="url(#clip0_1731_4986)">
<path id="icon" d="M13.125 23V11.75H10C9.63542 11.75 9.33594 11.6328 9.10156 11.3984C8.86719 11.1641 8.75 10.8646 8.75 10.5V7.375H2.5C2.10938 7.40104 1.90104 7.60938 1.875 8V23C1.90104 23.3906 2.10938 23.599 2.5 23.625H12.5C12.8906 23.599 13.099 23.3906 13.125 23ZM0 8C0.0260417 7.29688 0.273438 6.71094 0.742188 6.24219C1.21094 5.77344 1.79688 5.52604 2.5 5.5H8.98438C9.66146 5.5 10.2474 5.7474 10.7422 6.24219L14.2578 9.75781C14.7526 10.2526 15 10.8516 15 11.5547V23C14.974 23.7031 14.7266 24.2891 14.2578 24.7578C13.7891 25.2266 13.2031 25.474 12.5 25.5H2.5C1.79688 25.474 1.21094 25.2266 0.742188 24.7578C0.273438 24.2891 0.0260417 23.7031 0 23V8ZM7.5 13.9375C7.96875 13.9635 8.22917 14.224 8.28125 14.7188V15.1094C8.56771 15.1354 8.84115 15.1875 9.10156 15.2656C9.54427 15.4219 9.73958 15.7344 9.6875 16.2031C9.53125 16.6458 9.20573 16.8411 8.71094 16.7891C8.29427 16.6849 7.89062 16.6198 7.5 16.5938C7.16146 16.5938 6.86198 16.6589 6.60156 16.7891C6.44531 16.8932 6.38021 16.9714 6.40625 17.0234C6.40625 17.0495 6.45833 17.0885 6.5625 17.1406C6.82292 17.2708 7.1875 17.388 7.65625 17.4922C7.68229 17.5182 7.69531 17.5312 7.69531 17.5312H7.73438C8.20312 17.6354 8.6849 17.8047 9.17969 18.0391C9.41406 18.1693 9.63542 18.3646 9.84375 18.625C10.026 18.8594 10.1302 19.1719 10.1562 19.5625C10.1042 20.3698 9.76562 20.9297 9.14062 21.2422C8.88021 21.3984 8.59375 21.5026 8.28125 21.5547V21.9453C8.22917 22.4141 7.96875 22.6745 7.5 22.7266C7.03125 22.6745 6.77083 22.4141 6.71875 21.9453V21.5156C6.35417 21.4375 6.01562 21.3464 5.70312 21.2422C5.67708 21.2422 5.65104 21.2292 5.625 21.2031C5.57292 21.2031 5.53385 21.1901 5.50781 21.1641C5.45573 21.1641 5.41667 21.1641 5.39062 21.1641C4.94792 20.9818 4.77865 20.6562 4.88281 20.1875C5.0651 19.7448 5.39062 19.5625 5.85938 19.6406C5.91146 19.6667 5.97656 19.6927 6.05469 19.7188C6.08073 19.7188 6.10677 19.7188 6.13281 19.7188C6.6276 19.901 7.09635 20.0052 7.53906 20.0312C7.90365 20.0312 8.1901 19.9792 8.39844 19.875C8.55469 19.7708 8.61979 19.6797 8.59375 19.6016C8.61979 19.5755 8.55469 19.5104 8.39844 19.4062C8.13802 19.276 7.77344 19.1458 7.30469 19.0156H7.22656C6.75781 18.9115 6.30208 18.7422 5.85938 18.5078C5.59896 18.3776 5.36458 18.1953 5.15625 17.9609C4.97396 17.7266 4.86979 17.4141 4.84375 17.0234C4.84375 16.6068 4.94792 16.2682 5.15625 16.0078C5.36458 15.7214 5.61198 15.513 5.89844 15.3828C6.15885 15.2526 6.43229 15.1615 6.71875 15.1094V14.7188C6.77083 14.224 7.03125 13.9635 7.5 13.9375ZM3.75 9.25H6.875C7.26562 9.27604 7.47396 9.48438 7.5 9.875C7.47396 10.2656 7.26562 10.474 6.875 10.5H3.75C3.35938 10.474 3.15104 10.2656 3.125 9.875C3.15104 9.48438 3.35938 9.27604 3.75 9.25ZM3.75 11.75H6.875C7.26562 11.776 7.47396 11.9844 7.5 12.375C7.47396 12.7656 7.26562 12.974 6.875 13H3.75C3.35938 12.974 3.15104 12.7656 3.125 12.375C3.15104 11.9844 3.35938 11.776 3.75 11.75Z" fill="black" fill-opacity="0.72"/>
</g>
<defs>
<clipPath id="clip0_1731_4986">
<rect width="15" height="30" fill="white"/>
</clipPath>
</defs>
</svg>
