<svg width="14" height="24" viewBox="0 0 14 24" fill="none" xmlns="http://www.w3.org/2000/svg">
<g id="label-paired / md / linux-md" clip-path="url(#clip0_1731_13964)">
<path id="icon" d="M6.90625 7.84375C6.88542 7.84375 6.86458 7.84375 6.84375 7.84375C6.82292 7.84375 6.80208 7.83333 6.78125 7.8125C6.78125 7.79167 6.79167 7.78125 6.8125 7.78125C6.875 7.73958 6.9375 7.73958 7 7.78125C7.04167 7.80208 7.07292 7.83333 7.09375 7.875C7.07292 7.89583 7.04167 7.90625 7 7.90625C6.97917 7.90625 6.95833 7.89583 6.9375 7.875C6.91667 7.875 6.90625 7.86458 6.90625 7.84375ZM6.21875 7.90625C6.17708 7.90625 6.14583 7.89583 6.125 7.875C6.125 7.83333 6.15625 7.80208 6.21875 7.78125C6.28125 7.73958 6.34375 7.73958 6.40625 7.78125C6.42708 7.78125 6.42708 7.79167 6.40625 7.8125C6.40625 7.83333 6.38542 7.84375 6.34375 7.84375C6.34375 7.84375 6.33333 7.84375 6.3125 7.84375C6.29167 7.86458 6.28125 7.875 6.28125 7.875C6.26042 7.89583 6.23958 7.90625 6.21875 7.90625ZM13.125 16.625C13.4583 17 13.6146 17.3021 13.5938 17.5312C13.5729 17.7812 13.4375 17.9792 13.1875 18.125C13.0417 18.2083 12.8854 18.2917 12.7188 18.375C12.2812 18.5417 11.9062 18.7917 11.5938 19.125C11.1146 19.6667 10.6042 19.9583 10.0625 20C9.52083 20.0417 9.10417 19.8021 8.8125 19.2812C8.77083 19.2188 8.75 19.1458 8.75 19.0625C8.375 19.0625 8.04167 19.0417 7.75 19C7.47917 18.9583 7.22917 18.9375 7 18.9375C6.64583 18.9583 6.34375 19 6.09375 19.0625C5.88542 19.1042 5.6875 19.1354 5.5 19.1562C5.33333 19.4896 5.0625 19.6979 4.6875 19.7812C4.16667 19.8854 3.58333 19.7708 2.9375 19.4375C2.54167 19.2708 2.11458 19.1667 1.65625 19.125C1.44792 19.1042 1.26042 19.0833 1.09375 19.0625C0.802083 19.0208 0.59375 18.8958 0.46875 18.6875C0.34375 18.4583 0.364583 18.125 0.53125 17.6875C0.572917 17.5208 0.572917 17.3229 0.53125 17.0938C0.53125 17.0729 0.520833 17.0521 0.5 17.0312C0.479167 16.9062 0.46875 16.7812 0.46875 16.6562C0.46875 16.5312 0.5 16.4062 0.5625 16.2812C0.729167 16.0312 0.927083 15.875 1.15625 15.8125C1.17708 15.8125 1.19792 15.8021 1.21875 15.7812C1.40625 15.7396 1.5625 15.6667 1.6875 15.5625C1.75 15.5 1.8125 15.4167 1.875 15.3125C1.97917 15.1667 2.08333 15.0417 2.1875 14.9375C2.125 14.3958 2.1875 13.8438 2.375 13.2812C2.58333 12.6771 2.86458 12.1042 3.21875 11.5625C3.57292 11.0417 3.89583 10.6042 4.1875 10.25C4.64583 9.58333 4.88542 8.90625 4.90625 8.21875C4.90625 8.07292 4.89583 7.875 4.875 7.625C4.83333 7.16667 4.83333 6.65625 4.875 6.09375C4.91667 5.55208 5.11458 5.07292 5.46875 4.65625C5.82292 4.23958 6.44792 4.02083 7.34375 4C8.13542 4.02083 8.69792 4.25 9.03125 4.6875C9.36458 5.125 9.57292 5.64583 9.65625 6.25C9.71875 6.85417 9.73958 7.41667 9.71875 7.9375C9.71875 8 9.71875 8.05208 9.71875 8.09375C9.71875 8.55208 9.8125 8.95833 10 9.3125C10.2083 9.66667 10.4479 10 10.7188 10.3125C10.7396 10.3333 10.75 10.3438 10.75 10.3438C11 10.6354 11.2604 10.9792 11.5312 11.375C11.8021 11.7708 12.0208 12.2083 12.1875 12.6875C12.5208 13.4583 12.5625 14.2812 12.3125 15.1562C12.3542 15.1771 12.3958 15.1979 12.4375 15.2188C12.4792 15.2396 12.5208 15.2708 12.5625 15.3125C12.75 15.5 12.8646 15.7292 12.9062 16C12.9062 16 12.9062 16.0104 12.9062 16.0312C12.9479 16.2812 13.0208 16.4792 13.125 16.625ZM7 6.71875C6.89583 6.94792 6.86458 7.17708 6.90625 7.40625C7.03125 7.42708 7.16667 7.47917 7.3125 7.5625C7.27083 7.35417 7.29167 7.17708 7.375 7.03125C7.45833 6.88542 7.5625 6.82292 7.6875 6.84375C7.8125 6.84375 7.90625 6.9375 7.96875 7.125C8.03125 7.29167 8.03125 7.47917 7.96875 7.6875C7.94792 7.72917 7.91667 7.76042 7.875 7.78125C7.85417 7.80208 7.84375 7.8125 7.84375 7.8125C8.05208 7.89583 8.17708 7.94792 8.21875 7.96875C8.48958 7.63542 8.54167 7.21875 8.375 6.71875C8.1875 6.38542 7.95833 6.21875 7.6875 6.21875C7.39583 6.21875 7.16667 6.38542 7 6.71875ZM5.71875 6.375C5.42708 6.41667 5.25 6.625 5.1875 7C5.125 7.39583 5.21875 7.72917 5.46875 8C5.63542 7.875 5.69792 7.82292 5.65625 7.84375C5.65625 7.84375 5.65625 7.83333 5.65625 7.8125C5.53125 7.6875 5.46875 7.52083 5.46875 7.3125C5.48958 7.10417 5.5625 6.97917 5.6875 6.9375C5.79167 6.9375 5.875 7.01042 5.9375 7.15625C6 7.28125 6.02083 7.41667 6 7.5625C6.10417 7.5 6.20833 7.44792 6.3125 7.40625C6.33333 7.11458 6.28125 6.86458 6.15625 6.65625C6.03125 6.46875 5.88542 6.375 5.71875 6.375ZM5.28125 8.28125V8.25C5.15625 8.35417 5.11458 8.48958 5.15625 8.65625C5.19792 8.82292 5.35417 8.97917 5.625 9.125C5.72917 9.1875 5.82292 9.26042 5.90625 9.34375C6.01042 9.44792 6.125 9.53125 6.25 9.59375C6.33333 9.63542 6.4375 9.65625 6.5625 9.65625C6.91667 9.65625 7.19792 9.5625 7.40625 9.375C7.51042 9.29167 7.625 9.22917 7.75 9.1875C8.125 9.0625 8.35417 8.875 8.4375 8.625C8.52083 8.35417 8.41667 8.16667 8.125 8.0625C7.97917 8 7.85417 7.95833 7.75 7.9375C7.625 7.89583 7.51042 7.84375 7.40625 7.78125C7.09375 7.57292 6.82292 7.47917 6.59375 7.5C6.19792 7.5625 5.92708 7.69792 5.78125 7.90625C5.76042 7.90625 5.75 7.91667 5.75 7.9375C5.70833 7.95833 5.61458 8.02083 5.46875 8.125C5.40625 8.16667 5.34375 8.21875 5.28125 8.28125ZM5.40625 18.7188C5.40625 18.5104 5.33333 18.2812 5.1875 18.0312C5.04167 17.8021 4.86458 17.5625 4.65625 17.3125C4.42708 17.0417 4.25 16.7917 4.125 16.5625L3.5 15.4375C3.29167 15.1458 3.0625 14.9792 2.8125 14.9375C2.58333 14.8958 2.40625 14.9688 2.28125 15.1562C2.19792 15.2396 2.125 15.3229 2.0625 15.4062C1.97917 15.5104 1.89583 15.6146 1.8125 15.7188C1.66667 15.8438 1.51042 15.9271 1.34375 15.9688C1.30208 15.9896 1.26042 16.0104 1.21875 16.0312C1.01042 16.0729 0.854167 16.1875 0.75 16.375C0.666667 16.5417 0.65625 16.75 0.71875 17C0.71875 17.0208 0.71875 17.0521 0.71875 17.0938C0.78125 17.3229 0.78125 17.5417 0.71875 17.75C0.59375 18.1667 0.572917 18.4479 0.65625 18.5938C0.802083 18.8021 1.13542 18.9167 1.65625 18.9375C2.11458 18.9375 2.57292 19.0521 3.03125 19.2812C3.55208 19.5312 4.0625 19.6354 4.5625 19.5938C5.04167 19.5312 5.32292 19.2396 5.40625 18.7188ZM5.34375 17.9062C5.94792 18.2812 6.57292 18.4271 7.21875 18.3438C7.84375 18.2604 8.41667 18.0312 8.9375 17.6562C8.9375 17.6562 8.9375 17.6458 8.9375 17.625C9.04167 17.2917 9.10417 17 9.125 16.75C9.14583 16.2708 9.19792 15.8646 9.28125 15.5312C9.36458 15.1146 9.58333 14.8229 9.9375 14.6562C9.97917 14.3438 10.1146 14.1667 10.3438 14.125C10.5521 14.0833 10.8229 14.1354 11.1562 14.2812C11.7188 14.5312 11.9479 14.8021 11.8438 15.0938C11.8646 15.0938 11.875 15.0938 11.875 15.0938C11.8958 15.0938 11.9375 15.0938 12 15.0938C12.0625 14.8229 11.9792 14.6042 11.75 14.4375C11.5417 14.25 11.3021 14.1042 11.0312 14C11.1146 13.625 11.1042 13.25 11 12.875C10.8958 12.4792 10.7396 12.125 10.5312 11.8125C10.3229 11.4792 10.1146 11.2188 9.90625 11.0312C9.82292 11.0312 9.85417 11.1042 10 11.25C10.2083 11.4375 10.4271 11.7812 10.6562 12.2812C10.8854 12.7812 10.9062 13.3229 10.7188 13.9062C10.5938 13.8646 10.4792 13.8438 10.375 13.8438C10.2917 13.3854 10.1771 12.9792 10.0312 12.625C9.88542 12.2708 9.76042 12.0104 9.65625 11.8438C9.44792 11.4896 9.23958 11.0208 9.03125 10.4375C8.80208 9.875 8.61458 9.34375 8.46875 8.84375C8.32292 9.05208 8.09375 9.20833 7.78125 9.3125C7.69792 9.35417 7.59375 9.40625 7.46875 9.46875C7.40625 9.51042 7.34375 9.55208 7.28125 9.59375C6.82292 9.86458 6.38542 9.85417 5.96875 9.5625C5.90625 9.52083 5.85417 9.47917 5.8125 9.4375C5.72917 9.35417 5.64583 9.29167 5.5625 9.25C5.5 9.1875 5.4375 9.13542 5.375 9.09375C5.33333 9.59375 5.20833 10.1146 5 10.6562C4.79167 11.1979 4.58333 11.6875 4.375 12.125C4.29167 12.3125 4.21875 12.4792 4.15625 12.625C3.88542 13.25 3.73958 13.8958 3.71875 14.5625C3.40625 14.0833 3.30208 13.6042 3.40625 13.125C3.51042 12.625 3.64583 12.2396 3.8125 11.9688C4.08333 11.4479 4.16667 11.2292 4.0625 11.3125C3.91667 11.5417 3.76042 11.8229 3.59375 12.1562C3.42708 12.4688 3.30208 12.8125 3.21875 13.1875C3.13542 13.5625 3.13542 13.9271 3.21875 14.2812C3.32292 14.6354 3.58333 14.9479 4 15.2188C4.02083 15.2188 4.16667 15.3125 4.4375 15.5C4.70833 15.6875 4.95833 15.9271 5.1875 16.2188C5.41667 16.5312 5.5 16.7917 5.4375 17C5.33333 17.2083 5.15625 17.3021 4.90625 17.2812C5.07292 17.4688 5.21875 17.6771 5.34375 17.9062ZM13.4062 17.5312C13.4271 17.3854 13.2812 17.1354 12.9688 16.7812C12.8229 16.5729 12.7396 16.3438 12.7188 16.0938C12.6771 15.8229 12.5833 15.6146 12.4375 15.4688C12.25 15.3229 12.0312 15.2708 11.7812 15.3125C11.7604 15.3125 11.7396 15.3125 11.7188 15.3125C11.5938 15.4583 11.4167 15.5833 11.1875 15.6875C10.9583 15.8125 10.7396 15.8542 10.5312 15.8125C10.1562 15.6667 9.95833 15.3646 9.9375 14.9062C9.9375 14.9062 9.92708 14.9062 9.90625 14.9062C9.69792 15.0312 9.55208 15.25 9.46875 15.5625C9.40625 15.8958 9.36458 16.3021 9.34375 16.7812C9.32292 17.0521 9.26042 17.3438 9.15625 17.6562C9.11458 17.7812 9.07292 17.9167 9.03125 18.0625C8.90625 18.4583 8.89583 18.8333 9 19.1875C9.25 19.625 9.60417 19.8229 10.0625 19.7812C10.5208 19.7396 10.9792 19.4792 11.4375 19C11.8125 18.6042 12.2188 18.3229 12.6562 18.1562C13.0938 17.9896 13.3438 17.7812 13.4062 17.5312ZM5.40625 8.65625C5.32292 8.53125 5.3125 8.45833 5.375 8.4375C5.41667 8.45833 5.44792 8.48958 5.46875 8.53125C5.46875 8.55208 5.47917 8.57292 5.5 8.59375C5.5625 8.65625 5.64583 8.72917 5.75 8.8125C5.9375 9 6.19792 9.10417 6.53125 9.125C6.88542 9.08333 7.1875 8.97917 7.4375 8.8125C7.54167 8.75 7.65625 8.66667 7.78125 8.5625C7.82292 8.54167 7.85417 8.52083 7.875 8.5C7.91667 8.45833 7.94792 8.42708 7.96875 8.40625C7.98958 8.36458 8.02083 8.34375 8.0625 8.34375C8.14583 8.36458 8.11458 8.42708 7.96875 8.53125C7.84375 8.65625 7.6875 8.77083 7.5 8.875C7.20833 9.0625 6.88542 9.16667 6.53125 9.1875C6.15625 9.16667 5.86458 9.0625 5.65625 8.875C5.57292 8.79167 5.5 8.71875 5.4375 8.65625C5.41667 8.65625 5.40625 8.65625 5.40625 8.65625Z" fill="black" fill-opacity="0.72"/>
</g>
<defs>
<clipPath id="clip0_1731_13964">
<rect width="14" height="24" fill="white"/>
</clipPath>
</defs>
</svg>
