<svg width="12" height="24" viewBox="0 0 12 24" fill="none" xmlns="http://www.w3.org/2000/svg">
<g id="label-paired / md / xmark-md / regular" clip-path="url(#clip0_1731_3055)">
<path id="icon" d="M10.1562 16.8438L6 12.7188L1.875 16.8438C1.625 17.0312 1.38542 17.0312 1.15625 16.8438C0.96875 16.6146 0.96875 16.3854 1.15625 16.1562L5.28125 12L1.15625 7.875C0.96875 7.625 0.96875 7.38542 1.15625 7.15625C1.38542 6.96875 1.625 6.96875 1.875 7.15625L6 11.2812L10.1562 7.15625C10.3854 6.96875 10.6146 6.96875 10.8438 7.15625C11.0312 7.38542 11.0312 7.625 10.8438 7.875L6.71875 12L10.8438 16.1562C11.0312 16.3854 11.0312 16.6146 10.8438 16.8438C10.6146 17.0312 10.3854 17.0312 10.1562 16.8438Z" fill="black" fill-opacity="0.72"/>
</g>
<defs>
<clipPath id="clip0_1731_3055">
<rect width="12" height="24" fill="white"/>
</clipPath>
</defs>
</svg>
