<svg width="30" height="36" viewBox="0 0 30 36" fill="none" xmlns="http://www.w3.org/2000/svg">
<g id="label-paired / xl / ipados-xl" clip-path="url(#clip0_1731_14144)">
<path id="icon" d="M20.1094 13.0312C20.1094 12.375 19.7812 11.9531 19.2656 11.9531C18.75 11.9531 18.4219 12.3281 18.4219 13.0312C18.4219 13.7344 18.75 14.1562 19.2656 14.1562C19.7812 14.1562 20.1094 13.7344 20.1094 13.0312ZM13.2188 11.8125C13.2188 12.3281 12.8906 12.6094 12.3281 12.6094H11.4844V10.9688H12.3281C12.8906 10.9688 13.2188 11.25 13.2188 11.8125ZM11.2031 17.25C12.9844 17.25 14.0625 18.6094 14.0625 20.7656C14.0625 22.875 12.9844 24.2344 11.2031 24.2344C9.42188 24.2344 8.29688 22.875 8.29688 20.7656C8.29688 18.6094 9.42188 17.25 11.2031 17.25ZM15.6094 13.2188C15.1875 13.2656 15 13.4062 15 13.6875C15 14.0156 15.2344 14.1562 15.5625 14.1562C16.0312 14.1562 16.4062 13.875 16.4062 13.4531V13.1719L15.6094 13.2188ZM26.4844 9.23438C26.9531 10.4062 27 11.7656 27 12.6094V23.4375C27 24.2812 26.9531 25.6406 26.4844 26.8125C26.25 27.4219 25.7344 28.2656 24.9844 28.8281C24.5156 29.1562 24 29.4844 23.2969 29.7188C22.5 29.9531 21.5625 30 20.3906 30H9.5625C8.39062 30 7.45312 29.9531 6.65625 29.7188C5.95312 29.4844 5.4375 29.1562 4.96875 28.8281C4.21875 28.2656 3.70312 27.4219 3.46875 26.8125C3 25.6406 3 24.2812 3 23.4375V12.6094C3 11.7656 3 10.4062 3.46875 9.23438C3.70312 8.625 4.21875 7.78125 4.96875 7.21875C5.4375 6.84375 5.95312 6.5625 6.65625 6.32812C7.45312 6.09375 8.39062 6 9.5625 6H20.3906C21.5625 6 22.5 6.09375 23.2969 6.32812C24 6.51562 24.5156 6.84375 24.9844 7.21875C25.7344 7.78125 26.25 8.625 26.4844 9.23438ZM19.0781 11.3906C18.2812 11.3906 17.7656 12.0469 17.7656 13.0312C17.7656 14.0625 18.2812 14.6719 19.0781 14.6719C19.5469 14.6719 19.875 14.4844 20.1094 14.1094H20.1562V14.625H20.7188V10.2188H20.1094V11.9531H20.0625C19.875 11.625 19.5 11.3906 19.0781 11.3906ZM10.8281 10.4062V14.625H11.4844V13.1719H12.4688C13.2656 13.1719 13.875 12.6094 13.875 11.8125C13.875 10.9688 13.3125 10.4062 12.4688 10.4062H10.8281ZM9.51562 10.875C9.65625 10.9219 9.79688 10.8281 9.89062 10.6875C9.98438 10.5938 9.98438 10.4062 9.89062 10.2656C9.79688 10.125 9.65625 10.0781 9.51562 10.0781C9.375 10.0781 9.23438 10.125 9.14062 10.2656C9.04688 10.4062 9.04688 10.5938 9.14062 10.6875C9.23438 10.8281 9.375 10.9219 9.51562 10.875ZM9.84375 11.4375H9.1875V14.625H9.84375V11.4375ZM11.2031 25.2656C13.6406 25.2656 15.1875 23.5312 15.1875 20.7656C15.1875 18 13.6406 16.2188 11.2031 16.2188C8.71875 16.2188 7.17188 18 7.17188 20.7656C7.17188 23.5312 8.71875 25.2656 11.2031 25.2656ZM14.3438 13.7344C14.3438 14.2969 14.8125 14.6719 15.4219 14.6719C15.8438 14.6719 16.1719 14.4844 16.3594 14.1562H16.4062V14.625H17.0156V12.4688C17.0156 11.7656 16.5938 11.3906 15.75 11.3906C15.0469 11.3906 14.5312 11.7188 14.4844 12.2812H15.0938C15.1406 12.0469 15.375 11.9062 15.75 11.9062C16.1719 11.9062 16.4062 12.0938 16.4062 12.4688V12.75L15.5156 12.7969C14.7656 12.8438 14.3438 13.1719 14.3438 13.7344ZM19.2656 25.2656C21.1875 25.2656 22.4531 24.2344 22.4531 22.6406C22.4531 21.375 21.75 20.6719 19.9219 20.25L18.9844 20.0625C17.7656 19.7812 17.2969 19.3125 17.2969 18.6562C17.2969 17.7656 18.1406 17.2031 19.2188 17.2031C20.3906 17.2031 21.1406 17.8125 21.2344 18.75H22.3125C22.2656 17.2969 21 16.2188 19.2656 16.2188C17.4375 16.2188 16.1719 17.25 16.1719 18.7031C16.1719 19.9219 16.9688 20.7188 18.7031 21.0938L19.6406 21.3281C20.8594 21.5625 21.3281 22.0781 21.3281 22.7812C21.3281 23.625 20.4844 24.2812 19.3125 24.2812C18.0469 24.2812 17.2031 23.7188 17.0625 22.7812H15.9844C16.0781 24.2812 17.3438 25.2656 19.2656 25.2656Z" fill="black" fill-opacity="0.72"/>
</g>
<defs>
<clipPath id="clip0_1731_14144">
<rect width="30" height="36" fill="white"/>
</clipPath>
</defs>
</svg>
