<svg width="24" height="36" viewBox="0 0 24 36" fill="none" xmlns="http://www.w3.org/2000/svg">
<g id="label-paired / xl / envelope-xl / bold" clip-path="url(#clip0_1731_6332)">
<path id="icon" d="M3 11.25C2.53125 11.2812 2.28125 11.5312 2.25 12V13.0312L10.3594 19.6875C10.8594 20.0625 11.4062 20.25 12 20.25C12.625 20.25 13.1875 20.0625 13.6875 19.6875L21.75 13.0312V12C21.7188 11.5312 21.4688 11.2812 21 11.25H3ZM2.25 15.9375V24C2.28125 24.4688 2.53125 24.7188 3 24.75H21C21.4688 24.7188 21.7188 24.4688 21.75 24V15.9375L15.0938 21.4219C14.1562 22.1406 13.125 22.5 12 22.5C10.875 22.5 9.84375 22.1406 8.90625 21.4219L2.25 15.9375ZM0 12C0.03125 11.1562 0.328125 10.4531 0.890625 9.89062C1.45312 9.32812 2.15625 9.03125 3 9H21C21.8438 9.03125 22.5469 9.32812 23.1094 9.89062C23.6719 10.4531 23.9688 11.1562 24 12V24C23.9688 24.8438 23.6719 25.5469 23.1094 26.1094C22.5469 26.6719 21.8438 26.9688 21 27H3C2.15625 26.9688 1.45312 26.6719 0.890625 26.1094C0.328125 25.5469 0.03125 24.8438 0 24V12Z" fill="black" fill-opacity="0.72"/>
</g>
<defs>
<clipPath id="clip0_1731_6332">
<rect width="24" height="36" fill="white"/>
</clipPath>
</defs>
</svg>
