<svg width="18" height="30" viewBox="0 0 18 30" fill="none" xmlns="http://www.w3.org/2000/svg">
<g id="label-paired / lg / arrow-down-to-bracket-lg / bold" clip-path="url(#clip0_1731_5366)">
<path id="icon" d="M14.6641 13.9766L9.66406 18.9766C9.22135 19.3411 8.77865 19.3411 8.33594 18.9766L3.33594 13.9766C2.97135 13.5339 2.97135 13.0911 3.33594 12.6484C3.77865 12.2839 4.22135 12.2839 4.66406 12.6484L8.0625 16.0469V6.4375C8.11458 5.86458 8.42708 5.55208 9 5.5C9.57292 5.55208 9.88542 5.86458 9.9375 6.4375V16.0469L13.3359 12.6484C13.7786 12.2839 14.2214 12.2839 14.6641 12.6484C15.0286 13.0911 15.0286 13.5339 14.6641 13.9766ZM2.125 18.9375V22.0625C2.125 22.5052 2.28125 22.8698 2.59375 23.1562C2.88021 23.4688 3.24479 23.625 3.6875 23.625H14.3125C14.7552 23.625 15.1198 23.4688 15.4062 23.1562C15.7188 22.8698 15.875 22.5052 15.875 22.0625V18.9375C15.9271 18.3646 16.2396 18.0521 16.8125 18C17.3854 18.0521 17.6979 18.3646 17.75 18.9375V22.0625C17.724 23.026 17.3854 23.8333 16.7344 24.4844C16.0833 25.1354 15.276 25.474 14.3125 25.5H3.6875C2.72396 25.474 1.91667 25.1354 1.26562 24.4844C0.614583 23.8333 0.276042 23.026 0.25 22.0625V18.9375C0.302083 18.3646 0.614583 18.0521 1.1875 18C1.76042 18.0521 2.07292 18.3646 2.125 18.9375Z" fill="black" fill-opacity="0.72"/>
</g>
<defs>
<clipPath id="clip0_1731_5366">
<rect width="18" height="30" fill="white"/>
</clipPath>
</defs>
</svg>
