<svg width="27" height="36" viewBox="0 0 27 36" fill="none" xmlns="http://www.w3.org/2000/svg">
<g id="label-paired / xl / link-simple-xl / regular" clip-path="url(#clip0_1731_6350)">
<path id="icon" d="M0 18C0.0625 15.875 0.796875 14.1094 2.20312 12.7031C3.60938 11.2969 5.375 10.5625 7.5 10.5H11.25C11.7188 10.5312 11.9688 10.7812 12 11.25C11.9688 11.7188 11.7188 11.9688 11.25 12H7.5C5.8125 12.0312 4.39062 12.6094 3.23438 13.7344C2.10938 14.8906 1.53125 16.3125 1.5 18C1.53125 19.6875 2.10938 21.1094 3.23438 22.2656C4.39062 23.3906 5.8125 23.9688 7.5 24H11.25C11.7188 24.0312 11.9688 24.2812 12 24.75C11.9688 25.2188 11.7188 25.4688 11.25 25.5H7.5C5.375 25.4375 3.60938 24.7031 2.20312 23.2969C0.796875 21.8906 0.0625 20.125 0 18ZM27 18C26.9375 20.125 26.2031 21.8906 24.7969 23.2969C23.3906 24.7031 21.625 25.4375 19.5 25.5H15.75C15.2812 25.4688 15.0312 25.2188 15 24.75C15.0312 24.2812 15.2812 24.0312 15.75 24H19.5C21.1875 23.9688 22.6094 23.3906 23.7656 22.2656C24.8906 21.1094 25.4688 19.6875 25.5 18C25.4688 16.3125 24.8906 14.8906 23.7656 13.7344C22.6094 12.6094 21.1875 12.0312 19.5 12H15.75C15.2812 11.9688 15.0312 11.7188 15 11.25C15.0312 10.7812 15.2812 10.5312 15.75 10.5H19.5C21.625 10.5625 23.3906 11.2969 24.7969 12.7031C26.2031 14.1094 26.9375 15.875 27 18ZM7.125 17.25H19.875C20.3438 17.2812 20.5938 17.5312 20.625 18C20.5938 18.4688 20.3438 18.7188 19.875 18.75H7.125C6.65625 18.7188 6.40625 18.4688 6.375 18C6.40625 17.5312 6.65625 17.2812 7.125 17.25Z" fill="black" fill-opacity="0.72"/>
</g>
<defs>
<clipPath id="clip0_1731_6350">
<rect width="27" height="36" fill="white"/>
</clipPath>
</defs>
</svg>
