<svg width="24" height="36" viewBox="0 0 24 36" fill="none" xmlns="http://www.w3.org/2000/svg">
<g id="label-paired / xl / sun-bright-xl / bold" clip-path="url(#clip0_1731_5768)">
<path id="icon" d="M13.125 7.125V10.125C13.0625 10.8125 12.6875 11.1875 12 11.25C11.3125 11.1875 10.9375 10.8125 10.875 10.125V7.125C10.9375 6.4375 11.3125 6.0625 12 6C12.6875 6.0625 13.0625 6.4375 13.125 7.125ZM20.4844 11.1094L18.375 13.2188C17.8438 13.6562 17.3125 13.6562 16.7812 13.2188C16.3438 12.6875 16.3438 12.1562 16.7812 11.625L18.8906 9.51562C19.4219 9.07812 19.9531 9.07812 20.4844 9.51562C20.9219 10.0469 20.9219 10.5781 20.4844 11.1094ZM5.10938 9.51562L7.21875 11.625C7.65625 12.1562 7.65625 12.6875 7.21875 13.2188C6.6875 13.6562 6.15625 13.6562 5.625 13.2188L3.51562 11.1094C3.07812 10.5781 3.07812 10.0469 3.51562 9.51562C4.04688 9.07812 4.57812 9.07812 5.10938 9.51562ZM1.125 16.875H4.125C4.8125 16.9375 5.1875 17.3125 5.25 18C5.1875 18.6875 4.8125 19.0625 4.125 19.125H1.125C0.4375 19.0625 0.0625 18.6875 0 18C0.0625 17.3125 0.4375 16.9375 1.125 16.875ZM19.875 16.875H22.875C23.5625 16.9375 23.9375 17.3125 24 18C23.9375 18.6875 23.5625 19.0625 22.875 19.125H19.875C19.1875 19.0625 18.8125 18.6875 18.75 18C18.8125 17.3125 19.1875 16.9375 19.875 16.875ZM7.21875 24.375L5.10938 26.4844C4.57812 26.9219 4.04688 26.9219 3.51562 26.4844C3.07812 25.9531 3.07812 25.4219 3.51562 24.8906L5.625 22.7812C6.15625 22.3438 6.6875 22.3438 7.21875 22.7812C7.65625 23.3125 7.65625 23.8438 7.21875 24.375ZM18.375 22.7812L20.4844 24.8906C20.9219 25.4219 20.9219 25.9531 20.4844 26.4844C19.9531 26.9219 19.4219 26.9219 18.8906 26.4844L16.7812 24.375C16.3438 23.8438 16.3438 23.3125 16.7812 22.7812C17.3125 22.3438 17.8438 22.3438 18.375 22.7812ZM13.125 25.875V28.875C13.0625 29.5625 12.6875 29.9375 12 30C11.3125 29.9375 10.9375 29.5625 10.875 28.875V25.875C10.9375 25.1875 11.3125 24.8125 12 24.75C12.6875 24.8125 13.0625 25.1875 13.125 25.875ZM15 18C14.9688 16.875 14.4688 16.0156 13.5 15.4219C12.5 14.8594 11.5 14.8594 10.5 15.4219C9.53125 16.0156 9.03125 16.875 9 18C9.03125 19.125 9.53125 19.9844 10.5 20.5781C11.5 21.1406 12.5 21.1406 13.5 20.5781C14.4688 19.9844 14.9688 19.125 15 18ZM6.75 18C6.75 17.0625 6.98438 16.1875 7.45312 15.375C7.92188 14.5625 8.5625 13.9219 9.375 13.4531C10.1875 12.9844 11.0625 12.75 12 12.75C12.9375 12.75 13.8125 12.9844 14.625 13.4531C15.4375 13.9219 16.0781 14.5625 16.5469 15.375C17.0156 16.1875 17.25 17.0625 17.25 18C17.25 18.9375 17.0156 19.8125 16.5469 20.625C16.0781 21.4375 15.4375 22.0781 14.625 22.5469C13.8125 23.0156 12.9375 23.25 12 23.25C11.0625 23.25 10.1875 23.0156 9.375 22.5469C8.5625 22.0781 7.92188 21.4375 7.45312 20.625C6.98438 19.8125 6.75 18.9375 6.75 18Z" fill="black" fill-opacity="0.72"/>
</g>
<defs>
<clipPath id="clip0_1731_5768">
<rect width="24" height="36" fill="white"/>
</clipPath>
</defs>
</svg>
