<svg width="9" height="22" viewBox="0 0 9 22" fill="none" xmlns="http://www.w3.org/2000/svg">
<g id="label-paired / sm / caret-down-sm / regular" clip-path="url(#clip0_1731_2909)">
<path id="icon" d="M4.66406 13.3203L7.94531 10.2031C7.98177 10.1667 8 10.1211 8 10.0664C7.98177 9.95703 7.91797 9.89323 7.80859 9.875H1.19141C1.08203 9.89323 1.01823 9.95703 1 10.0664C1 10.1211 1.01823 10.1667 1.05469 10.2031L4.33594 13.3203C4.39062 13.3568 4.44531 13.375 4.5 13.375C4.55469 13.375 4.60938 13.3568 4.66406 13.3203ZM5.26562 13.9492C5.04688 14.1497 4.79167 14.25 4.5 14.25C4.20833 14.25 3.95312 14.1497 3.73438 13.9492L0.453125 10.8594C0.234375 10.6406 0.125 10.3763 0.125 10.0664C0.125 9.75651 0.22526 9.5013 0.425781 9.30078C0.626302 9.10026 0.88151 9 1.19141 9H7.80859C8.11849 9.01823 8.3737 9.1276 8.57422 9.32812C8.77474 9.52865 8.875 9.77474 8.875 10.0664C8.875 10.3763 8.76562 10.6406 8.54688 10.8594L5.26562 13.9492Z" fill="black" fill-opacity="0.72"/>
</g>
<defs>
<clipPath id="clip0_1731_2909">
<rect width="9" height="22" fill="white"/>
</clipPath>
</defs>
</svg>
