<svg width="20" height="30" viewBox="0 0 20 30" fill="none" xmlns="http://www.w3.org/2000/svg">
<g id="label-paired / lg / arrows-rotate-lg / regular" clip-path="url(#clip0_1731_5399)">
<path id="icon" d="M2.69531 13.7422H2.73438C2.63021 14.0547 2.40885 14.224 2.07031 14.25C1.6276 14.1979 1.43229 13.9635 1.48438 13.5469C1.95312 11.5677 2.96875 9.95312 4.53125 8.70312C6.06771 7.45312 7.89062 6.80208 10 6.75C11.6146 6.77604 13.0729 7.16667 14.375 7.92188C15.6771 8.67708 16.7188 9.70573 17.5 11.0078V8.625C17.526 8.23438 17.7344 8.02604 18.125 8C18.5156 8.02604 18.724 8.23438 18.75 8.625V12.375C18.724 12.7656 18.5156 12.974 18.125 13H17.5391H14.375C13.9844 12.974 13.776 12.7656 13.75 12.375C13.776 11.9844 13.9844 11.776 14.375 11.75H16.4844C15.8333 10.6042 14.9349 9.69271 13.7891 9.01562C12.6693 8.36458 11.4062 8.02604 10 8C8.20312 8.02604 6.64062 8.57292 5.3125 9.64062C4.01042 10.6823 3.13802 12.0495 2.69531 13.7422ZM17.3047 17.2969V17.2578C17.3828 16.9453 17.5911 16.776 17.9297 16.75C18.3724 16.8021 18.5677 17.0365 18.5156 17.4531C18.0469 19.4323 17.0443 21.0469 15.5078 22.2969C13.9453 23.5469 12.1094 24.1979 10 24.25C8.38542 24.224 6.92708 23.8333 5.625 23.0781C4.32292 22.3229 3.28125 21.3073 2.5 20.0312V22.375C2.47396 22.7656 2.26562 22.974 1.875 23C1.51042 22.974 1.30208 22.7656 1.25 22.375V18.625C1.30208 18.2344 1.51042 18.026 1.875 18H2.46094H5.625C6.01562 18.026 6.22396 18.2344 6.25 18.625C6.22396 19.0156 6.01562 19.224 5.625 19.25H3.51562C4.16667 20.3958 5.0651 21.3073 6.21094 21.9844C7.33073 22.6354 8.59375 22.974 10 23C11.7969 22.974 13.3594 22.4271 14.6875 21.3594C15.9896 20.3177 16.862 18.9635 17.3047 17.2969Z" fill="black" fill-opacity="0.72"/>
</g>
<defs>
<clipPath id="clip0_1731_5399">
<rect width="20" height="30" fill="white"/>
</clipPath>
</defs>
</svg>
