<svg width="10" height="24" viewBox="0 0 10 24" fill="none" xmlns="http://www.w3.org/2000/svg">
<g id="label-paired / md / pause-md / fill" clip-path="url(#clip0_1731_4049)">
<path id="icon" d="M1.5 6H2.5C2.91667 6.02083 3.27083 6.16667 3.5625 6.4375C3.83333 6.72917 3.97917 7.08333 4 7.5V16.5C3.97917 16.9167 3.83333 17.2708 3.5625 17.5625C3.27083 17.8333 2.91667 17.9792 2.5 18H1.5C1.08333 17.9792 0.729167 17.8333 0.4375 17.5625C0.166667 17.2708 0.0208333 16.9167 0 16.5V7.5C0.0208333 7.08333 0.166667 6.72917 0.4375 6.4375C0.729167 6.16667 1.08333 6.02083 1.5 6ZM7.5 6H8.5C8.91667 6.02083 9.27083 6.16667 9.5625 6.4375C9.83333 6.72917 9.97917 7.08333 10 7.5V16.5C9.97917 16.9167 9.83333 17.2708 9.5625 17.5625C9.27083 17.8333 8.91667 17.9792 8.5 18H7.5C7.08333 17.9792 6.72917 17.8333 6.4375 17.5625C6.16667 17.2708 6.02083 16.9167 6 16.5V7.5C6.02083 7.08333 6.16667 6.72917 6.4375 6.4375C6.72917 6.16667 7.08333 6.02083 7.5 6Z" fill="black" fill-opacity="0.72"/>
</g>
<defs>
<clipPath id="clip0_1731_4049">
<rect width="10" height="24" fill="white"/>
</clipPath>
</defs>
</svg>
