<svg width="16" height="22" viewBox="0 0 16 22" fill="none" xmlns="http://www.w3.org/2000/svg">
<g id="label-paired / sm / arrow-up-arrow-down-sm / regular" clip-path="url(#clip0_1731_2384)">
<path id="icon" d="M4.80078 4.76172L7.42578 7.38672C7.60807 7.58724 7.60807 7.78776 7.42578 7.98828C7.22526 8.17057 7.02474 8.17057 6.82422 7.98828L4.9375 6.12891V16.4375C4.91927 16.7109 4.77344 16.8568 4.5 16.875C4.22656 16.8568 4.08073 16.7109 4.0625 16.4375V6.12891L2.17578 7.98828C1.97526 8.17057 1.77474 8.17057 1.57422 7.98828C1.39193 7.78776 1.39193 7.58724 1.57422 7.38672L4.19922 4.76172C4.39974 4.57943 4.60026 4.57943 4.80078 4.76172ZM14.4258 14.1133L11.8008 16.7383C11.6003 16.9206 11.3997 16.9206 11.1992 16.7383L8.57422 14.1133C8.39193 13.9128 8.39193 13.7122 8.57422 13.5117C8.77474 13.3294 8.97526 13.3294 9.17578 13.5117L11.0625 15.3711V5.0625C11.0807 4.78906 11.2266 4.64323 11.5 4.625C11.7734 4.64323 11.9193 4.78906 11.9375 5.0625V15.3711L13.8242 13.5117C14.0247 13.3294 14.2253 13.3294 14.4258 13.5117C14.6081 13.7122 14.6081 13.9128 14.4258 14.1133Z" fill="black" fill-opacity="0.72"/>
</g>
<defs>
<clipPath id="clip0_1731_2384">
<rect width="16" height="22" fill="white"/>
</clipPath>
</defs>
</svg>
