<svg width="9" height="18" viewBox="0 0 9 18" fill="none" xmlns="http://www.w3.org/2000/svg">
<g id="label-paired / caption / microphone-caption / bold" clip-path="url(#clip0_1731_1571)">
<path id="icon" d="M5.625 5.75C5.60938 5.4375 5.5 5.17188 5.29688 4.95312C5.07812 4.75 4.8125 4.64062 4.5 4.625C4.1875 4.64062 3.92188 4.75 3.70312 4.95312C3.5 5.17188 3.39062 5.4375 3.375 5.75V9.5C3.39062 9.8125 3.5 10.0781 3.70312 10.2969C3.92188 10.5 4.1875 10.6094 4.5 10.625C4.8125 10.6094 5.07812 10.5 5.29688 10.2969C5.5 10.0781 5.60938 9.8125 5.625 9.5V5.75ZM2.25 5.75C2.26562 5.10938 2.48438 4.57812 2.90625 4.15625C3.32812 3.73438 3.85938 3.51563 4.5 3.5C5.14062 3.51563 5.67188 3.73438 6.09375 4.15625C6.51562 4.57812 6.73438 5.10938 6.75 5.75V9.5C6.73438 10.1406 6.51562 10.6719 6.09375 11.0938C5.67188 11.5156 5.14062 11.7344 4.5 11.75C3.85938 11.7344 3.32812 11.5156 2.90625 11.0938C2.48438 10.6719 2.26562 10.1406 2.25 9.5V5.75ZM1.5 8.5625V9.5C1.51562 10.3438 1.80469 11.0547 2.36719 11.6328C2.94531 12.1953 3.65625 12.4844 4.5 12.5C5.34375 12.4844 6.05469 12.1953 6.63281 11.6328C7.19531 11.0547 7.48438 10.3438 7.5 9.5V8.5625C7.53125 8.21875 7.71875 8.03125 8.0625 8C8.40625 8.03125 8.59375 8.21875 8.625 8.5625V9.5C8.60938 10.5625 8.26562 11.4688 7.59375 12.2188C6.9375 12.9688 6.09375 13.4219 5.0625 13.5781V14.375H6.1875C6.53125 14.4062 6.71875 14.5938 6.75 14.9375C6.71875 15.2812 6.53125 15.4688 6.1875 15.5H4.5H2.8125C2.46875 15.4688 2.28125 15.2812 2.25 14.9375C2.28125 14.5938 2.46875 14.4062 2.8125 14.375H3.9375V13.5781C2.90625 13.4219 2.0625 12.9688 1.40625 12.2188C0.734375 11.4688 0.390625 10.5625 0.375 9.5V8.5625C0.40625 8.21875 0.59375 8.03125 0.9375 8C1.28125 8.03125 1.46875 8.21875 1.5 8.5625Z" fill="black" fill-opacity="0.72"/>
</g>
<defs>
<clipPath id="clip0_1731_1571">
<rect width="9" height="18" fill="white"/>
</clipPath>
</defs>
</svg>
