<svg width="27" height="36" viewBox="0 0 27 36" fill="none" xmlns="http://www.w3.org/2000/svg">
<g id="label-paired / xl / arrow-up-a-z-xl / regular" clip-path="url(#clip0_1731_6168)">
<path id="icon" d="M8.01562 7.73438L12.5156 12.2344C12.8281 12.5781 12.8281 12.9219 12.5156 13.2656C12.1719 13.5781 11.8281 13.5781 11.4844 13.2656L8.25 10.0781V27.75C8.21875 28.2188 7.96875 28.4688 7.5 28.5C7.03125 28.4688 6.78125 28.2188 6.75 27.75V10.0781L3.51562 13.2656C3.17188 13.5781 2.82812 13.5781 2.48438 13.2656C2.17188 12.9219 2.17188 12.5781 2.48438 12.2344L6.98438 7.73438C7.32812 7.42187 7.67188 7.42187 8.01562 7.73438ZM16.5 19.5H22.5C22.8125 19.5 23.0312 19.6406 23.1562 19.9219C23.2812 20.2031 23.2656 20.4688 23.1094 20.7188L18.0469 27H22.5C22.9688 27.0312 23.2188 27.2812 23.25 27.75C23.2188 28.2188 22.9688 28.4688 22.5 28.5H16.5C16.1875 28.5 15.9688 28.3594 15.8438 28.0781C15.7188 27.7969 15.75 27.5312 15.9375 27.2812L20.9531 21H16.5C16.0312 20.9688 15.7812 20.7188 15.75 20.25C15.7812 19.7812 16.0312 19.5312 16.5 19.5ZM19.5 7.5C19.8125 7.5 20.0312 7.64062 20.1562 7.92188L23.1562 13.9219C23.1875 13.9219 23.2031 13.9219 23.2031 13.9219L23.9062 15.4219C24.0938 15.8594 23.9844 16.1875 23.5781 16.4062C23.1719 16.5938 22.8438 16.4844 22.5938 16.0781L22.0312 15H16.9688L16.4062 16.0781C16.1875 16.4844 15.8594 16.5938 15.4219 16.4062C15.0156 16.1875 14.9062 15.8594 15.0938 15.4219L15.8438 13.9219L18.8438 7.92188C18.9688 7.64062 19.1875 7.5 19.5 7.5ZM17.7188 13.5H21.2812L19.5 9.9375L17.7188 13.5Z" fill="black" fill-opacity="0.72"/>
</g>
<defs>
<clipPath id="clip0_1731_6168">
<rect width="27" height="36" fill="white"/>
</clipPath>
</defs>
</svg>
