<svg width="11" height="22" viewBox="0 0 11 22" fill="none" xmlns="http://www.w3.org/2000/svg">
<g id="label-paired / sm / arrow-down-to-line-sm / bold" clip-path="url(#clip0_1731_2179)">
<path id="icon" d="M10.0938 16.875H0.90625C0.505208 16.8385 0.286458 16.6198 0.25 16.2188C0.286458 15.8177 0.505208 15.599 0.90625 15.5625H10.0938C10.4948 15.599 10.7135 15.8177 10.75 16.2188C10.7135 16.6198 10.4948 16.8385 10.0938 16.875ZM5.03516 13.1562V13.1836L1.53516 9.46484C1.27995 9.13672 1.28906 8.82682 1.5625 8.53516C1.8724 8.27995 2.18229 8.28906 2.49219 8.5625L4.84375 11.0781V8.78125V5.28125C4.88021 4.88021 5.09896 4.66146 5.5 4.625C5.90104 4.66146 6.11979 4.88021 6.15625 5.28125V8.78125V11.0781L8.53516 8.5625C8.82682 8.28906 9.13672 8.27995 9.46484 8.53516C9.72005 8.82682 9.72917 9.1276 9.49219 9.4375L5.99219 13.1562C5.84635 13.3021 5.68229 13.375 5.5 13.375C5.31771 13.375 5.16276 13.3021 5.03516 13.1562Z" fill="black" fill-opacity="0.72"/>
</g>
<defs>
<clipPath id="clip0_1731_2179">
<rect width="11" height="22" fill="white"/>
</clipPath>
</defs>
</svg>
