<svg width="23" height="30" viewBox="0 0 23 30" fill="none" xmlns="http://www.w3.org/2000/svg">
<g id="label-paired / lg / memo-circle-check-lg / bold" clip-path="url(#clip0_1731_4981)">
<path id="icon" d="M2.75 7.375C2.35938 7.40104 2.15104 7.60938 2.125 8V23C2.15104 23.3906 2.35938 23.599 2.75 23.625H11.3438C11.8385 24.3542 12.4375 24.9661 13.1406 25.4609C13.0104 25.487 12.8802 25.5 12.75 25.5H2.75C2.04688 25.474 1.46094 25.2266 0.992188 24.7578C0.523438 24.2891 0.276042 23.7031 0.25 23V8C0.276042 7.29688 0.523438 6.71094 0.992188 6.24219C1.46094 5.77344 2.04688 5.52604 2.75 5.5H12.75C13.4531 5.52604 14.0391 5.77344 14.5078 6.24219C14.9766 6.71094 15.224 7.29688 15.25 8V13.2734C14.5729 13.4557 13.9479 13.7422 13.375 14.1328V8C13.349 7.60938 13.1406 7.40104 12.75 7.375H2.75ZM4.9375 10.5H10.5625C11.1354 10.5521 11.4479 10.8646 11.5 11.4375C11.4479 12.0104 11.1354 12.3229 10.5625 12.375H4.9375C4.36458 12.3229 4.05208 12.0104 4 11.4375C4.05208 10.8646 4.36458 10.5521 4.9375 10.5ZM4.9375 14.25H10.5625C11.1354 14.3021 11.4479 14.6146 11.5 15.1875C11.4479 15.7604 11.1354 16.0729 10.5625 16.125H4.9375C4.36458 16.0729 4.05208 15.7604 4 15.1875C4.05208 14.6146 4.36458 14.3021 4.9375 14.25ZM4.9375 18H6.8125C7.38542 18.0521 7.69792 18.3646 7.75 18.9375C7.69792 19.5104 7.38542 19.8229 6.8125 19.875H4.9375C4.36458 19.8229 4.05208 19.5104 4 18.9375C4.05208 18.3646 4.36458 18.0521 4.9375 18ZM22.75 19.875C22.75 20.8906 22.5026 21.8281 22.0078 22.6875C21.513 23.5469 20.8229 24.237 19.9375 24.7578C19.0521 25.2526 18.1146 25.5 17.125 25.5C16.1354 25.5 15.1979 25.2526 14.3125 24.7578C13.4271 24.237 12.737 23.5469 12.2422 22.6875C11.7474 21.8281 11.5 20.8906 11.5 19.875C11.5 18.8594 11.7474 17.9219 12.2422 17.0625C12.737 16.2031 13.4271 15.513 14.3125 14.9922C15.1979 14.4974 16.1354 14.25 17.125 14.25C18.1146 14.25 19.0521 14.4974 19.9375 14.9922C20.8229 15.513 21.513 16.2031 22.0078 17.0625C22.5026 17.9219 22.75 18.8594 22.75 19.875ZM19.7422 18.1953C19.4557 17.9349 19.1693 17.9349 18.8828 18.1953L16.5 20.5391L15.3672 19.4453C15.0807 19.1849 14.7943 19.1849 14.5078 19.4453C14.2474 19.7318 14.2474 20.0182 14.5078 20.3047L16.0703 21.8672C16.3568 22.1276 16.6432 22.1276 16.9297 21.8672L19.7422 19.0547C20.0026 18.7682 20.0026 18.4818 19.7422 18.1953Z" fill="black" fill-opacity="0.72"/>
</g>
<defs>
<clipPath id="clip0_1731_4981">
<rect width="23" height="30" fill="white"/>
</clipPath>
</defs>
</svg>
