<svg width="20" height="30" viewBox="0 0 20 30" fill="none" xmlns="http://www.w3.org/2000/svg">
<g id="label-paired / lg / circle-arrow-down-lg / bold" clip-path="url(#clip0_1731_4414)">
<path id="icon" d="M10 7.375C8.51562 7.375 7.16146 7.73958 5.9375 8.46875C4.71354 9.17188 3.72396 10.1615 2.96875 11.4375C2.23958 12.7135 1.875 14.0677 1.875 15.5C1.875 16.9323 2.23958 18.2865 2.96875 19.5625C3.72396 20.8385 4.71354 21.8281 5.9375 22.5312C7.16146 23.2604 8.51562 23.625 10 23.625C11.4844 23.625 12.8385 23.2604 14.0625 22.5312C15.2865 21.8281 16.276 20.8385 17.0312 19.5625C17.7604 18.2865 18.125 16.9323 18.125 15.5C18.125 14.0677 17.7604 12.7135 17.0312 11.4375C16.276 10.1615 15.2865 9.17188 14.0625 8.46875C12.8385 7.73958 11.4844 7.375 10 7.375ZM10 25.5C8.17708 25.474 6.51042 25.0312 5 24.1719C3.48958 23.2865 2.26562 22.0625 1.32812 20.5C0.442708 18.9115 0 17.2448 0 15.5C0 13.7552 0.442708 12.0885 1.32812 10.5C2.26562 8.9375 3.48958 7.71354 5 6.82812C6.51042 5.96875 8.17708 5.52604 10 5.5C11.8229 5.52604 13.4896 5.96875 15 6.82812C16.5104 7.71354 17.7344 8.9375 18.6719 10.5C19.5573 12.0885 20 13.7552 20 15.5C20 17.2448 19.5573 18.9115 18.6719 20.5C17.7344 22.0625 16.5104 23.2865 15 24.1719C13.4896 25.0312 11.8229 25.474 10 25.5ZM14.1016 16.7891L10.6641 20.2266C10.2214 20.5911 9.77865 20.5911 9.33594 20.2266L5.89844 16.7891C5.53385 16.3464 5.53385 15.9036 5.89844 15.4609C6.34115 15.0964 6.78385 15.0964 7.22656 15.4609L9.0625 17.2969V11.4375C9.11458 10.8646 9.42708 10.5521 10 10.5C10.5729 10.5521 10.8854 10.8646 10.9375 11.4375V17.2969L12.7734 15.4609C13.2161 15.0964 13.6589 15.0964 14.1016 15.4609C14.4661 15.9036 14.4661 16.3464 14.1016 16.7891Z" fill="black" fill-opacity="0.72"/>
</g>
<defs>
<clipPath id="clip0_1731_4414">
<rect width="20" height="30" fill="white"/>
</clipPath>
</defs>
</svg>
