<svg width="14" height="22" viewBox="0 0 14 22" fill="none" xmlns="http://www.w3.org/2000/svg">
<g id="label-paired / sm / triangle-exclamation-sm / bold" clip-path="url(#clip0_1731_2881)">
<path id="icon" d="M6.78125 6.04688L1.36719 14.9609C1.33073 15.0156 1.3125 15.0885 1.3125 15.1797C1.33073 15.4167 1.46745 15.5443 1.72266 15.5625H12.3047C12.5417 15.5443 12.6693 15.4167 12.6875 15.1797C12.6875 15.1068 12.6693 15.0339 12.6328 14.9609L7.21875 6.04688C7.16406 5.97396 7.09115 5.9375 7 5.9375C6.90885 5.9375 6.83594 5.97396 6.78125 6.04688ZM5.66016 5.36328C5.98828 4.88932 6.4349 4.64323 7 4.625C7.58333 4.64323 8.02995 4.88932 8.33984 5.36328L13.7539 14.2773C13.918 14.5508 14 14.8516 14 15.1797C13.9818 15.6536 13.8177 16.0547 13.5078 16.3828C13.1797 16.6927 12.7786 16.8568 12.3047 16.875H1.72266C1.23047 16.8568 0.820312 16.6927 0.492188 16.3828C0.182292 16.0547 0.0182292 15.6536 0 15.1797C0 14.8516 0.0820312 14.5508 0.246094 14.2773L5.66016 5.36328ZM7.875 13.8125C7.875 14.0677 7.79297 14.2773 7.62891 14.4414C7.46484 14.6055 7.25521 14.6875 7 14.6875C6.74479 14.6875 6.53516 14.6055 6.37109 14.4414C6.20703 14.2773 6.125 14.0677 6.125 13.8125C6.125 13.5573 6.20703 13.3477 6.37109 13.1836C6.53516 13.0195 6.74479 12.9375 7 12.9375C7.25521 12.9375 7.46484 13.0195 7.62891 13.1836C7.79297 13.3477 7.875 13.5573 7.875 13.8125ZM7.65625 8.78125V11.4062C7.61979 11.8073 7.40104 12.026 7 12.0625C6.59896 12.026 6.38021 11.8073 6.34375 11.4062V8.78125C6.38021 8.38021 6.59896 8.16146 7 8.125C7.40104 8.16146 7.61979 8.38021 7.65625 8.78125Z" fill="black" fill-opacity="0.72"/>
</g>
<defs>
<clipPath id="clip0_1731_2881">
<rect width="14" height="22" fill="white"/>
</clipPath>
</defs>
</svg>
