<svg width="20" height="30" viewBox="0 0 20 30" fill="none" xmlns="http://www.w3.org/2000/svg">
<g id="label-paired / lg / chevrons-down-lg / bold" clip-path="url(#clip0_1731_4374)">
<path id="icon" d="M9.33594 23.6641L1.83594 16.1641C1.47135 15.7214 1.47135 15.2786 1.83594 14.8359C2.27865 14.4714 2.72135 14.4714 3.16406 14.8359L10 21.6719L16.8359 14.8359C17.2786 14.4714 17.7214 14.4714 18.1641 14.8359C18.5286 15.2786 18.5286 15.7214 18.1641 16.1641L10.6641 23.6641C10.2214 24.0286 9.77865 24.0286 9.33594 23.6641ZM1.83594 8.66406C1.47135 8.22135 1.47135 7.77865 1.83594 7.33594C2.27865 6.97135 2.72135 6.97135 3.16406 7.33594L10 14.1719L16.8359 7.33594C17.2786 6.97135 17.7214 6.97135 18.1641 7.33594C18.5286 7.77865 18.5286 8.22135 18.1641 8.66406L10.6641 16.1641C10.2214 16.5286 9.77865 16.5286 9.33594 16.1641L1.83594 8.66406Z" fill="black" fill-opacity="0.72"/>
</g>
<defs>
<clipPath id="clip0_1731_4374">
<rect width="20" height="30" fill="white"/>
</clipPath>
</defs>
</svg>
