<svg width="16" height="24" viewBox="0 0 16 24" fill="none" xmlns="http://www.w3.org/2000/svg">
<g id="label-paired / md / chevrons-right-md / regular" clip-path="url(#clip0_1731_3410)">
<path id="icon" d="M2.34375 18.3438C2.11458 18.5521 1.88542 18.5521 1.65625 18.3438C1.44792 18.1146 1.44792 17.8854 1.65625 17.6562L7.28125 12L1.65625 6.34375C1.44792 6.11458 1.44792 5.88542 1.65625 5.65625C1.88542 5.44792 2.11458 5.44792 2.34375 5.65625L8.34375 11.6562C8.55208 11.8854 8.55208 12.1146 8.34375 12.3438L2.34375 18.3438ZM8.34375 18.3438C8.11458 18.5521 7.88542 18.5521 7.65625 18.3438C7.44792 18.1146 7.44792 17.8854 7.65625 17.6562L13.2812 12L7.65625 6.34375C7.44792 6.11458 7.44792 5.88542 7.65625 5.65625C7.88542 5.44792 8.11458 5.44792 8.34375 5.65625L14.3438 11.6562C14.5521 11.8854 14.5521 12.1146 14.3438 12.3438L8.34375 18.3438Z" fill="black" fill-opacity="0.72"/>
</g>
<defs>
<clipPath id="clip0_1731_3410">
<rect width="16" height="24" fill="white"/>
</clipPath>
</defs>
</svg>
