<svg width="14" height="22" viewBox="0 0 14 22" fill="none" xmlns="http://www.w3.org/2000/svg">
<g id="label-paired / sm / right-to-bracket-sm / bold" clip-path="url(#clip0_1731_1939)">
<path id="icon" d="M5.25 13.7578L8.25781 10.75L5.25 7.74219V9.21875C5.21354 9.61979 4.99479 9.83854 4.59375 9.875H1.3125V11.625H4.59375C4.99479 11.6615 5.21354 11.8802 5.25 12.2812V13.7578ZM9.625 10.75C9.625 11.0781 9.50651 11.3607 9.26953 11.5977L6.09766 14.7422C5.86068 14.9974 5.5599 15.125 5.19531 15.125C4.84896 15.125 4.55729 14.9974 4.32031 14.7422C4.08333 14.5052 3.95573 14.2135 3.9375 13.8672V12.9375H1.3125C0.947917 12.9193 0.638021 12.7917 0.382812 12.5547C0.145833 12.2995 0.0182292 11.9896 0 11.625V9.875C0.0182292 9.51042 0.145833 9.20052 0.382812 8.94531C0.638021 8.70833 0.947917 8.58073 1.3125 8.5625H3.9375V7.63281C3.95573 7.28646 4.08333 6.99479 4.32031 6.75781C4.55729 6.5026 4.84896 6.375 5.19531 6.375C5.54167 6.375 5.84245 6.5026 6.09766 6.75781L9.26953 9.90234C9.50651 10.1393 9.625 10.4219 9.625 10.75ZM9.40625 15.5625H11.5938C11.9036 15.5625 12.1589 15.4531 12.3594 15.2344C12.5781 15.0339 12.6875 14.7786 12.6875 14.4688V7.03125C12.6875 6.72135 12.5781 6.46615 12.3594 6.26562C12.1589 6.04688 11.9036 5.9375 11.5938 5.9375H9.40625C9.00521 5.90104 8.78646 5.68229 8.75 5.28125C8.78646 4.88021 9.00521 4.66146 9.40625 4.625H11.5938C12.2682 4.64323 12.8333 4.88021 13.2891 5.33594C13.7448 5.79167 13.9818 6.35677 14 7.03125V14.4688C13.9818 15.1432 13.7448 15.7083 13.2891 16.1641C12.8333 16.6198 12.2682 16.8568 11.5938 16.875H9.40625C9.00521 16.8385 8.78646 16.6198 8.75 16.2188C8.78646 15.8177 9.00521 15.599 9.40625 15.5625Z" fill="black" fill-opacity="0.72"/>
</g>
<defs>
<clipPath id="clip0_1731_1939">
<rect width="14" height="22" fill="white"/>
</clipPath>
</defs>
</svg>
