<svg width="25" height="30" viewBox="0 0 25 30" fill="none" xmlns="http://www.w3.org/2000/svg">
<g id="label-paired / lg / hands-holding-diamond-lg / regular" clip-path="url(#clip0_1731_5077)">
<path id="icon" d="M13.3984 5.85156L17.1484 9.60156C17.3828 9.86198 17.5 10.1615 17.5 10.5C17.5 10.8385 17.3828 11.138 17.1484 11.3984L13.3984 15.1484C13.138 15.3828 12.8385 15.5 12.5 15.5C12.1615 15.5 11.862 15.3828 11.6016 15.1484L7.85156 11.3984C7.61719 11.138 7.5 10.8385 7.5 10.5C7.5 10.1615 7.61719 9.86198 7.85156 9.60156L11.6016 5.85156C11.862 5.61719 12.1615 5.5 12.5 5.5C12.8385 5.5 13.138 5.61719 13.3984 5.85156ZM8.75 10.5L12.5 14.25L16.25 10.5L12.5 6.75L8.75 10.5ZM2.5 8C3.20312 8.02604 3.78906 8.27344 4.25781 8.74219C4.72656 9.21094 4.97396 9.79688 5 10.5V15.3438C5 15.526 5.01302 15.7083 5.03906 15.8906C5.11719 15.7604 5.22135 15.6432 5.35156 15.5391C5.79427 15.0964 6.30208 14.875 6.875 14.875C7.44792 14.875 7.95573 15.0964 8.39844 15.5391L11.9922 19.0938C12.1745 19.3021 12.3438 19.5234 12.5 19.7578C12.6562 19.5234 12.8255 19.3021 13.0078 19.0938L16.6016 15.5391C17.0443 15.0964 17.5521 14.875 18.125 14.875C18.6979 14.875 19.2057 15.0964 19.6484 15.5391C19.7786 15.6432 19.8828 15.7604 19.9609 15.8906C19.987 15.7083 20 15.526 20 15.3438V10.5C20.026 9.79688 20.2734 9.21094 20.7422 8.74219C21.2109 8.27344 21.7969 8.02604 22.5 8C23.2031 8.02604 23.7891 8.27344 24.2578 8.74219C24.7266 9.21094 24.974 9.79688 25 10.5V18.9375C24.974 20.1354 24.5443 21.1641 23.7109 22.0234L20.4297 25.3047C20.1432 25.5651 19.8568 25.5651 19.5703 25.3047C19.3099 25.0182 19.3099 24.7318 19.5703 24.4453L22.8516 21.1641C23.4505 20.5391 23.75 19.7969 23.75 18.9375V10.5C23.75 10.1354 23.6328 9.83594 23.3984 9.60156C23.1641 9.36719 22.8646 9.25 22.5 9.25C22.1354 9.25 21.8359 9.36719 21.6016 9.60156C21.3672 9.83594 21.25 10.1354 21.25 10.5V15.3438C21.224 16.4375 20.8333 17.388 20.0781 18.1953L19.6484 18.5859L17.9297 20.3047L17.3047 20.9297C17.0182 21.1901 16.7318 21.1901 16.4453 20.9297C16.1849 20.6432 16.1849 20.3568 16.4453 20.0703L17.0703 19.4453L18.7891 17.7266C19.1536 17.2839 19.1536 16.8411 18.7891 16.3984C18.3464 16.0599 17.9036 16.0599 17.4609 16.3984L13.9062 19.9922C13.3854 20.513 13.125 21.138 13.125 21.8672V24.875C13.099 25.2656 12.8906 25.474 12.5 25.5C12.1094 25.474 11.901 25.2656 11.875 24.875V21.8672C11.875 21.138 11.6146 20.513 11.0938 19.9922L7.53906 16.3984C7.09635 16.0339 6.65365 16.0339 6.21094 16.3984C5.8724 16.8411 5.8724 17.2839 6.21094 17.7266L7.92969 19.4453L8.55469 20.0703C8.8151 20.3568 8.8151 20.6432 8.55469 20.9297C8.26823 21.1901 7.98177 21.1901 7.69531 20.9297L7.07031 20.3047L5.35156 18.5859L4.92188 18.1953C4.16667 17.388 3.77604 16.4375 3.75 15.3438V10.5C3.75 10.1354 3.63281 9.83594 3.39844 9.60156C3.16406 9.36719 2.86458 9.25 2.5 9.25C2.13542 9.25 1.83594 9.36719 1.60156 9.60156C1.36719 9.83594 1.25 10.1354 1.25 10.5V18.9375C1.25 19.7969 1.54948 20.5391 2.14844 21.1641L5.42969 24.4453C5.6901 24.7318 5.6901 25.0182 5.42969 25.3047C5.14323 25.5651 4.85677 25.5651 4.57031 25.3047L1.28906 22.0234C0.455729 21.1641 0.0260417 20.1354 0 18.9375V10.5C0.0260417 9.79688 0.273438 9.21094 0.742188 8.74219C1.21094 8.27344 1.79688 8.02604 2.5 8Z" fill="black" fill-opacity="0.72"/>
</g>
<defs>
<clipPath id="clip0_1731_5077">
<rect width="25" height="30" fill="white"/>
</clipPath>
</defs>
</svg>
