<svg width="27" height="36" viewBox="0 0 27 36" fill="none" xmlns="http://www.w3.org/2000/svg">
<g id="label-paired / xl / floppy-disk-pen-xl / bold" clip-path="url(#clip0_1731_6495)">
<path id="icon" d="M2.25 10.5V25.5C2.28125 25.9688 2.53125 26.2188 3 26.25H12.7031L12.1406 28.5H3C2.15625 28.4688 1.45312 28.1719 0.890625 27.6094C0.328125 27.0469 0.03125 26.3438 0 25.5V10.5C0.03125 9.65625 0.328125 8.95312 0.890625 8.39062C1.45312 7.82812 2.15625 7.53125 3 7.5H14.5312C15.3438 7.5 16.0469 7.79687 16.6406 8.39062L20.1094 11.8594L18.5156 13.4531L15.0469 9.98438C15.0156 9.95312 15 9.9375 15 9.9375V14.625C14.9375 15.3125 14.5625 15.6875 13.875 15.75H4.875C4.1875 15.6875 3.8125 15.3125 3.75 14.625V9.75H3C2.53125 9.78125 2.28125 10.0312 2.25 10.5ZM20.1094 11.8594C20.7031 12.4531 21 13.1719 21 14.0156V17.0625L18.75 19.3125V14.0156C18.75 13.7969 18.6719 13.6094 18.5156 13.4531L20.1094 11.8594ZM6 9.75V13.5H12.75V9.75H6ZM7.5 21C7.53125 19.875 8.03125 19.0156 9 18.4219C10 17.8594 11 17.8594 12 18.4219C12.9688 19.0156 13.4688 19.875 13.5 21C13.4688 22.125 12.9688 22.9844 12 23.5781C11 24.1406 10 24.1406 9 23.5781C8.03125 22.9844 7.53125 22.125 7.5 21ZM25.7812 17.0625L26.4375 17.7188C26.8125 18.125 27 18.5625 27 19.0312C27 19.5312 26.8125 19.9844 26.4375 20.3906L25.0781 21.75L21.75 18.4219L23.1094 17.0625C23.5156 16.6875 23.9531 16.5 24.4219 16.5C24.9219 16.5 25.375 16.6875 25.7812 17.0625ZM14.625 25.5469L20.6719 19.5L24 22.8281L17.9531 28.875C17.7656 29.0625 17.5312 29.2031 17.25 29.2969L14.4375 30C14.1562 30.0312 13.9219 29.9531 13.7344 29.7656C13.5469 29.5781 13.4688 29.3438 13.5 29.0625L14.2031 26.25C14.2969 25.9688 14.4375 25.7344 14.625 25.5469Z" fill="black" fill-opacity="0.72"/>
</g>
<defs>
<clipPath id="clip0_1731_6495">
<rect width="27" height="36" fill="white"/>
</clipPath>
</defs>
</svg>
