<svg width="14" height="22" viewBox="0 0 14 22" fill="none" xmlns="http://www.w3.org/2000/svg">
<g id="label-paired / sm / chart-mixed-sm / regular" clip-path="url(#clip0_1731_2500)">
<path id="icon" d="M13.8906 4.76172C14.0547 4.98047 14.0456 5.1901 13.8633 5.39062L9.05078 9.76562C8.85026 9.91146 8.64974 9.90234 8.44922 9.73828L5.19531 6.51172L0.683594 9.79297C0.464844 9.92057 0.264323 9.88411 0.0820312 9.68359C-0.0455729 9.46484 -0.00911458 9.26432 0.191406 9.08203L5.00391 5.58203C5.20443 5.45443 5.38672 5.47266 5.55078 5.63672L8.77734 8.83594L13.2617 4.73438C13.4805 4.57031 13.6901 4.57943 13.8906 4.76172ZM2.1875 15.5625V13.8125C2.16927 13.5391 2.02344 13.3932 1.75 13.375C1.47656 13.3932 1.33073 13.5391 1.3125 13.8125V15.5625C1.33073 15.8359 1.47656 15.9818 1.75 16C2.02344 15.9818 2.16927 15.8359 2.1875 15.5625ZM1.75 12.5C2.11458 12.5182 2.42448 12.6458 2.67969 12.8828C2.91667 13.138 3.04427 13.4479 3.0625 13.8125V15.5625C3.04427 15.9271 2.91667 16.237 2.67969 16.4922C2.42448 16.7292 2.11458 16.8568 1.75 16.875C1.38542 16.8568 1.07552 16.7292 0.820312 16.4922C0.583333 16.237 0.455729 15.9271 0.4375 15.5625V13.8125C0.455729 13.4479 0.583333 13.138 0.820312 12.8828C1.07552 12.6458 1.38542 12.5182 1.75 12.5ZM5.6875 11.1875C5.66927 10.9141 5.52344 10.7682 5.25 10.75C4.97656 10.7682 4.83073 10.9141 4.8125 11.1875V15.5625C4.83073 15.8359 4.97656 15.9818 5.25 16C5.52344 15.9818 5.66927 15.8359 5.6875 15.5625V11.1875ZM3.9375 11.1875C3.95573 10.8229 4.08333 10.513 4.32031 10.2578C4.57552 10.0208 4.88542 9.89323 5.25 9.875C5.61458 9.89323 5.92448 10.0208 6.17969 10.2578C6.41667 10.513 6.54427 10.8229 6.5625 11.1875V15.5625C6.54427 15.9271 6.41667 16.237 6.17969 16.4922C5.92448 16.7292 5.61458 16.8568 5.25 16.875C4.88542 16.8568 4.57552 16.7292 4.32031 16.4922C4.08333 16.237 3.95573 15.9271 3.9375 15.5625V11.1875ZM9.1875 15.5625V12.9375C9.16927 12.6641 9.02344 12.5182 8.75 12.5C8.47656 12.5182 8.33073 12.6641 8.3125 12.9375V15.5625C8.33073 15.8359 8.47656 15.9818 8.75 16C9.02344 15.9818 9.16927 15.8359 9.1875 15.5625ZM8.75 11.625C9.11458 11.6432 9.42448 11.7708 9.67969 12.0078C9.91667 12.263 10.0443 12.5729 10.0625 12.9375V15.5625C10.0443 15.9271 9.91667 16.237 9.67969 16.4922C9.42448 16.7292 9.11458 16.8568 8.75 16.875C8.38542 16.8568 8.07552 16.7292 7.82031 16.4922C7.58333 16.237 7.45573 15.9271 7.4375 15.5625V12.9375C7.45573 12.5729 7.58333 12.263 7.82031 12.0078C8.07552 11.7708 8.38542 11.6432 8.75 11.625ZM12.6875 11.1875C12.6693 10.9141 12.5234 10.7682 12.25 10.75C11.9766 10.7682 11.8307 10.9141 11.8125 11.1875V15.5625C11.8307 15.8359 11.9766 15.9818 12.25 16C12.5234 15.9818 12.6693 15.8359 12.6875 15.5625V11.1875ZM10.9375 11.1875C10.9557 10.8229 11.0833 10.513 11.3203 10.2578C11.5755 10.0208 11.8854 9.89323 12.25 9.875C12.6146 9.89323 12.9245 10.0208 13.1797 10.2578C13.4167 10.513 13.5443 10.8229 13.5625 11.1875V15.5625C13.5443 15.9271 13.4167 16.237 13.1797 16.4922C12.9245 16.7292 12.6146 16.8568 12.25 16.875C11.8854 16.8568 11.5755 16.7292 11.3203 16.4922C11.0833 16.237 10.9557 15.9271 10.9375 15.5625V11.1875Z" fill="black" fill-opacity="0.72"/>
</g>
<defs>
<clipPath id="clip0_1731_2500">
<rect width="14" height="22" fill="white"/>
</clipPath>
</defs>
</svg>
