<svg width="30" height="36" viewBox="0 0 30 36" fill="none" xmlns="http://www.w3.org/2000/svg">
<g id="label-paired / xl / signal-xl / bold" clip-path="url(#clip0_1731_6387)">
<path id="icon" d="M27 6C27.6875 6.0625 28.0625 6.4375 28.125 7.125V28.875C28.0625 29.5625 27.6875 29.9375 27 30C26.3125 29.9375 25.9375 29.5625 25.875 28.875V7.125C25.9375 6.4375 26.3125 6.0625 27 6ZM21 10.5C21.6875 10.5625 22.0625 10.9375 22.125 11.625V28.875C22.0625 29.5625 21.6875 29.9375 21 30C20.3125 29.9375 19.9375 29.5625 19.875 28.875V11.625C19.9375 10.9375 20.3125 10.5625 21 10.5ZM15 15C15.6875 15.0625 16.0625 15.4375 16.125 16.125V28.875C16.0625 29.5625 15.6875 29.9375 15 30C14.3125 29.9375 13.9375 29.5625 13.875 28.875V16.125C13.9375 15.4375 14.3125 15.0625 15 15ZM9 19.5C9.6875 19.5625 10.0625 19.9375 10.125 20.625V28.875C10.0625 29.5625 9.6875 29.9375 9 30C8.3125 29.9375 7.9375 29.5625 7.875 28.875V20.625C7.9375 19.9375 8.3125 19.5625 9 19.5ZM3 24C3.6875 24.0625 4.0625 24.4375 4.125 25.125V28.875C4.0625 29.5625 3.6875 29.9375 3 30C2.3125 29.9375 1.9375 29.5625 1.875 28.875V25.125C1.9375 24.4375 2.3125 24.0625 3 24Z" fill="black" fill-opacity="0.72"/>
</g>
<defs>
<clipPath id="clip0_1731_6387">
<rect width="30" height="36" fill="white"/>
</clipPath>
</defs>
</svg>
