<svg width="8" height="18" viewBox="0 0 8 18" fill="none" xmlns="http://www.w3.org/2000/svg">
<g id="label-paired / caption / forward-step-caption / bold" clip-path="url(#clip0_1731_1552)">
<path id="icon" d="M5.875 5.5625C5.90625 5.21875 6.09375 5.03125 6.4375 5C6.78125 5.03125 6.96875 5.21875 7 5.5625V8.82031V10.1797V13.4375C6.96875 13.7812 6.78125 13.9688 6.4375 14C6.09375 13.9688 5.90625 13.7812 5.875 13.4375V10.9766L1.72656 13.8828C1.60156 13.9609 1.46875 14 1.32812 14C1.125 14 0.960938 13.9297 0.835938 13.7891C0.695312 13.6641 0.625 13.5 0.625 13.2969V5.70312C0.625 5.5 0.695312 5.33594 0.835938 5.21094C0.960938 5.07031 1.125 5 1.32812 5C1.48438 5 1.61719 5.03906 1.72656 5.11719L5.875 8.02344V5.5625ZM5.875 9.59375V9.40625L1.75 6.52344V12.5L5.875 9.59375Z" fill="black" fill-opacity="0.72"/>
</g>
<defs>
<clipPath id="clip0_1731_1552">
<rect width="8" height="18" fill="white"/>
</clipPath>
</defs>
</svg>
