<svg width="13" height="22" viewBox="0 0 13 22" fill="none" xmlns="http://www.w3.org/2000/svg">
<g id="label-paired / sm / arrow-right-arrow-left-sm / bold" clip-path="url(#clip0_1731_2249)">
<path id="icon" d="M3.19141 17.3398L0.566406 14.7148C0.311198 14.4049 0.311198 14.0951 0.566406 13.7852L3.19141 11.1602C3.5013 10.9049 3.8112 10.9049 4.12109 11.1602C4.3763 11.4701 4.3763 11.7799 4.12109 12.0898L2.61719 13.5938H11.9688C12.3698 13.6302 12.5885 13.849 12.625 14.25C12.5885 14.651 12.3698 14.8698 11.9688 14.9062H2.61719L4.12109 16.4102C4.3763 16.7201 4.3763 17.0299 4.12109 17.3398C3.8112 17.5951 3.5013 17.5951 3.19141 17.3398ZM12.4336 7.71484L9.80859 10.3398C9.4987 10.5951 9.1888 10.5951 8.87891 10.3398C8.6237 10.0299 8.6237 9.72005 8.87891 9.41016L10.3828 7.90625H1.03125C0.630208 7.86979 0.411458 7.65104 0.375 7.25C0.411458 6.84896 0.630208 6.63021 1.03125 6.59375H10.3828L8.87891 5.08984C8.6237 4.77995 8.6237 4.47005 8.87891 4.16016C9.1888 3.90495 9.4987 3.90495 9.80859 4.16016L12.4336 6.78516C12.6888 7.09505 12.6888 7.40495 12.4336 7.71484Z" fill="black" fill-opacity="0.72"/>
</g>
<defs>
<clipPath id="clip0_1731_2249">
<rect width="13" height="22" fill="white"/>
</clipPath>
</defs>
</svg>
