<svg width="14" height="22" viewBox="0 0 14 22" fill="none" xmlns="http://www.w3.org/2000/svg">
<g id="label-paired / sm / circle-three-sm / regular" clip-path="url(#clip0_1731_2313)">
<path id="icon" d="M7 4.625C5.88802 4.64323 4.86719 4.91667 3.9375 5.44531C3.00781 5.99219 2.26042 6.73958 1.69531 7.6875C1.14844 8.65365 0.875 9.67448 0.875 10.75C0.875 11.8255 1.14844 12.8464 1.69531 13.8125C2.26042 14.7604 3.00781 15.5078 3.9375 16.0547C4.86719 16.5833 5.88802 16.8568 7 16.875C8.11198 16.8568 9.13281 16.5833 10.0625 16.0547C10.9922 15.5078 11.7396 14.7604 12.3047 13.8125C12.8516 12.8464 13.125 11.8255 13.125 10.75C13.125 9.67448 12.8516 8.65365 12.3047 7.6875C11.7396 6.73958 10.9922 5.99219 10.0625 5.44531C9.13281 4.91667 8.11198 4.64323 7 4.625ZM7 17.75C5.72396 17.7318 4.55729 17.4219 3.5 16.8203C2.44271 16.2005 1.58594 15.3438 0.929688 14.25C0.309896 13.138 0 11.9714 0 10.75C0 9.52865 0.309896 8.36198 0.929688 7.25C1.58594 6.15625 2.44271 5.29948 3.5 4.67969C4.55729 4.07812 5.72396 3.76823 7 3.75C8.27604 3.76823 9.44271 4.07812 10.5 4.67969C11.5573 5.29948 12.4141 6.15625 13.0703 7.25C13.6901 8.36198 14 9.52865 14 10.75C14 11.9714 13.6901 13.138 13.0703 14.25C12.4141 15.3438 11.5573 16.2005 10.5 16.8203C9.44271 17.4219 8.27604 17.7318 7 17.75ZM4.8125 7.25H8.75C8.95052 7.26823 9.08724 7.35938 9.16016 7.52344C9.21484 7.72396 9.16927 7.88802 9.02344 8.01562L6.86328 9.875H7.41016C8.04818 9.875 8.56771 10.0846 8.96875 10.5039C9.38802 10.9232 9.60677 11.4427 9.625 12.0625C9.60677 12.6823 9.38802 13.2018 8.96875 13.6211C8.56771 14.0221 8.05729 14.2318 7.4375 14.25H6.45312C5.65104 14.2318 5.01302 13.9128 4.53906 13.293L4.45703 13.2109C4.3112 12.974 4.33854 12.7643 4.53906 12.582C4.77604 12.4544 4.98568 12.4909 5.16797 12.6914L5.22266 12.7734C5.53255 13.1745 5.94271 13.375 6.45312 13.375H7.4375C7.80208 13.375 8.11198 13.2474 8.36719 12.9922C8.60417 12.737 8.73177 12.4271 8.75 12.0625C8.73177 11.6797 8.60417 11.3698 8.36719 11.1328C8.11198 10.8776 7.80208 10.75 7.4375 10.75H5.6875C5.48698 10.7318 5.35026 10.6406 5.27734 10.4766C5.22266 10.276 5.26823 10.112 5.41406 9.98438L7.57422 8.125H4.8125C4.53906 8.10677 4.39323 7.96094 4.375 7.6875C4.39323 7.41406 4.53906 7.26823 4.8125 7.25Z" fill="black" fill-opacity="0.72"/>
</g>
<defs>
<clipPath id="clip0_1731_2313">
<rect width="14" height="22" fill="white"/>
</clipPath>
</defs>
</svg>
