<svg width="24" height="36" viewBox="0 0 24 36" fill="none" xmlns="http://www.w3.org/2000/svg">
<g id="label-paired / xl / clock-three-xl / bold" clip-path="url(#clip0_1731_5738)">
<path id="icon" d="M21.75 18C21.75 16.2188 21.3125 14.5938 20.4375 13.125C19.5938 11.6562 18.4062 10.4688 16.875 9.5625C15.3438 8.6875 13.7188 8.25 12 8.25C10.2812 8.25 8.65625 8.6875 7.125 9.5625C5.59375 10.4688 4.40625 11.6562 3.5625 13.125C2.6875 14.5938 2.25 16.2188 2.25 18C2.25 19.7812 2.6875 21.4062 3.5625 22.875C4.40625 24.3438 5.59375 25.5312 7.125 26.4375C8.65625 27.3125 10.2812 27.75 12 27.75C13.7188 27.75 15.3438 27.3125 16.875 26.4375C18.4062 25.5312 19.5938 24.3438 20.4375 22.875C21.3125 21.4062 21.75 19.7812 21.75 18ZM0 18C0.03125 15.8125 0.5625 13.8125 1.59375 12C2.65625 10.1875 4.125 8.71875 6 7.59375C7.90625 6.53125 9.90625 6 12 6C14.0938 6 16.0938 6.53125 18 7.59375C19.875 8.71875 21.3438 10.1875 22.4062 12C23.4375 13.8125 23.9688 15.8125 24 18C23.9688 20.1875 23.4375 22.1875 22.4062 24C21.3438 25.8125 19.875 27.2812 18 28.4062C16.0938 29.4688 14.0938 30 12 30C9.90625 30 7.90625 29.4688 6 28.4062C4.125 27.2812 2.65625 25.8125 1.59375 24C0.5625 22.1875 0.03125 20.1875 0 18ZM10.875 11.625C10.9375 10.9375 11.3125 10.5625 12 10.5C12.6875 10.5625 13.0625 10.9375 13.125 11.625V16.875H16.875C17.5625 16.9375 17.9375 17.3125 18 18C17.9375 18.6875 17.5625 19.0625 16.875 19.125H12C11.3125 19.0625 10.9375 18.6875 10.875 18V11.625Z" fill="black" fill-opacity="0.72"/>
</g>
<defs>
<clipPath id="clip0_1731_5738">
<rect width="24" height="36" fill="white"/>
</clipPath>
</defs>
</svg>
