<svg width="18" height="36" viewBox="0 0 18 36" fill="none" xmlns="http://www.w3.org/2000/svg">
<g id="label-paired / xl / moon-xl / regular" clip-path="url(#clip0_1731_5771)">
<path id="icon" d="M8.95312 9.14062C6.79688 9.54688 5.03125 10.5625 3.65625 12.1875C2.25 13.7812 1.53125 15.7188 1.5 18C1.5625 20.5625 2.4375 22.6875 4.125 24.375C5.8125 26.0625 7.9375 26.9375 10.5 27C12.0938 26.9688 13.5625 26.5781 14.9062 25.8281C12.3438 25.5781 10.2344 24.5469 8.57812 22.7344C6.92188 20.9531 6.0625 18.75 6 16.125C6 14.75 6.26562 13.4688 6.79688 12.2812C7.29688 11.0625 8.01562 10.0156 8.95312 9.14062ZM12.0469 8.10938C12.1094 8.48438 11.9844 8.76562 11.6719 8.95312C10.4219 9.67188 9.40625 10.6562 8.625 11.9062C7.875 13.1562 7.5 14.5625 7.5 16.125C7.5625 18.4688 8.35938 20.4062 9.89062 21.9375C11.4531 23.5 13.3906 24.3125 15.7031 24.375C16.2031 24.375 16.6719 24.3281 17.1094 24.2344C17.4844 24.2031 17.75 24.3438 17.9062 24.6562C18.0625 24.9688 18.0156 25.2656 17.7656 25.5469C15.8281 27.4531 13.4062 28.4375 10.5 28.5C8.53125 28.4688 6.76562 27.9844 5.20312 27.0469C3.60938 26.1406 2.35938 24.8906 1.45312 23.2969C0.515625 21.7344 0.03125 19.9688 0 18C0.03125 16.0312 0.5 14.2656 1.40625 12.7031C2.34375 11.1094 3.60938 9.85938 5.20312 8.95312C6.76562 8.01562 8.51562 7.53125 10.4531 7.5C10.7656 7.5 11.0625 7.51562 11.3438 7.54688C11.7188 7.57813 11.9531 7.76563 12.0469 8.10938Z" fill="black" fill-opacity="0.72"/>
</g>
<defs>
<clipPath id="clip0_1731_5771">
<rect width="18" height="36" fill="white"/>
</clipPath>
</defs>
</svg>
