<svg width="30" height="36" viewBox="0 0 30 36" fill="none" xmlns="http://www.w3.org/2000/svg">
<g id="label-paired / xl / chart-ohlc-xl / bold" clip-path="url(#clip0_1731_6310)">
<path id="icon" d="M15 6C15.6094 6 16.125 6.51562 16.125 7.125V9H18C18.6094 9 19.125 9.51562 19.125 10.125C19.125 10.7812 18.6094 11.25 18 11.25H16.125V25.875C16.125 26.5312 15.6094 27 15 27C14.3438 27 13.875 26.5312 13.875 25.875V24H12C11.3438 24 10.875 23.5312 10.875 22.875C10.875 22.2656 11.3438 21.75 12 21.75H13.875V7.125C13.875 6.51562 14.3438 6 15 6ZM24.75 9C25.3594 9 25.875 9.51562 25.875 10.125V18.75H27.75C28.3594 18.75 28.875 19.2656 28.875 19.875C28.875 20.5312 28.3594 21 27.75 21H25.875V22.875C25.875 23.5312 25.3594 24 24.75 24C24.0938 24 23.625 23.5312 23.625 22.875V14.25H21.75C21.0938 14.25 20.625 13.7812 20.625 13.125C20.625 12.5156 21.0938 12 21.75 12H23.625V10.125C23.625 9.51562 24.0938 9 24.75 9ZM5.25 15C5.85938 15 6.375 15.5156 6.375 16.125V24.75H8.25C8.85938 24.75 9.375 25.2656 9.375 25.875C9.375 26.5312 8.85938 27 8.25 27H6.375V28.875C6.375 29.5312 5.85938 30 5.25 30C4.59375 30 4.125 29.5312 4.125 28.875V20.25H2.25C1.59375 20.25 1.125 19.7812 1.125 19.125C1.125 18.5156 1.59375 18 2.25 18H4.125V16.125C4.125 15.5156 4.59375 15 5.25 15Z" fill="black" fill-opacity="0.72"/>
</g>
<defs>
<clipPath id="clip0_1731_6310">
<rect width="30" height="36" fill="white"/>
</clipPath>
</defs>
</svg>
