<svg width="20" height="24" viewBox="0 0 20 24" fill="none" xmlns="http://www.w3.org/2000/svg">
<g id="label-paired / md / light-chart-line-up-down-clock-md / regular" clip-path="url(#clip0_1731_3788)">
<path id="icon" d="M0 5.5C0 5.25 0.21875 5 0.5 5C0.75 5 1 5.25 1 5.5C1 9.1875 1 12.8438 1 16.5C1 17.3438 1.65625 18 2.5 18C5.1875 18 7.875 18 10.5938 18C10.7812 18.375 11 18.7188 11.25 19C8.3125 19 5.40625 19 2.5 19C1.09375 19 0 17.9062 0 16.5C0 12.8438 0 9.1875 0 5.5ZM3.125 12.1562L6.125 9.15625C6.21875 9.0625 6.34375 9 6.5 9C6.625 9 6.75 9.0625 6.84375 9.15625C7.5625 9.875 8.28125 10.5938 9 11.3125C10.4062 9.875 11.8438 8.4375 13.2812 7C12.6875 7 12.0938 7 11.5 7C11.2188 7 11 6.78125 11 6.5C11 6.25 11.2188 6 11.5 6C12.5 6 13.5 6 14.5 6C14.75 6 15 6.25 15 6.5C15 7.5 15 8.5 15 9.5C15 9.78125 14.75 10 14.5 10C14.2188 10 14 9.78125 14 9.5C14 8.90625 14 8.3125 14 7.71875C12.4375 9.28125 10.875 10.8125 9.34375 12.375C9.15625 12.5625 8.8125 12.5625 8.625 12.375C7.90625 11.6562 7.1875 10.9375 6.5 10.2188C5.59375 11.0938 4.71875 12 3.84375 12.875C3.65625 13.0625 3.3125 13.0625 3.125 12.875C2.9375 12.6875 2.9375 12.3438 3.125 12.1562ZM11 15.5C11 13.0312 13 11 15.5 11C17.9688 11 20 13.0312 20 15.5C20 18 17.9688 20 15.5 20C13 20 11 18 11 15.5ZM12 15.5C12 17.4375 13.5625 19 15.5 19C17.4062 19 19 17.4375 19 15.5C19 13.5938 17.4062 12 15.5 12C13.5625 12 12 13.5938 12 15.5ZM15 13.5C15 13.25 15.2188 13 15.5 13C15.75 13 16 13.25 16 13.5C16 14 16 14.5 16 15C16.3125 15 16.6562 15 17 15C17.25 15 17.5 15.25 17.5 15.5C17.5 15.7812 17.25 16 17 16C16.5 16 16 16 15.5 16C15.2188 16 15 15.7812 15 15.5V13.5Z" fill="black" fill-opacity="0.72"/>
</g>
<defs>
<clipPath id="clip0_1731_3788">
<rect width="20" height="24" fill="white"/>
</clipPath>
</defs>
</svg>
