<svg width="14" height="22" viewBox="0 0 14 22" fill="none" xmlns="http://www.w3.org/2000/svg">
<g id="label-paired / sm / arrows-rotate-sm / regular" clip-path="url(#clip0_1731_1927)">
<path id="icon" d="M1.88672 9.51953H1.91406C1.84115 9.73828 1.6862 9.85677 1.44922 9.875C1.13932 9.83854 1.0026 9.67448 1.03906 9.38281C1.36719 7.9974 2.07812 6.86719 3.17188 5.99219C4.2474 5.11719 5.52344 4.66146 7 4.625C8.13021 4.64323 9.15104 4.91667 10.0625 5.44531C10.974 5.97396 11.7031 6.69401 12.25 7.60547V5.9375C12.2682 5.66406 12.4141 5.51823 12.6875 5.5C12.9609 5.51823 13.1068 5.66406 13.125 5.9375V8.5625C13.1068 8.83594 12.9609 8.98177 12.6875 9H12.2773H10.0625C9.78906 8.98177 9.64323 8.83594 9.625 8.5625C9.64323 8.28906 9.78906 8.14323 10.0625 8.125H11.5391C11.0833 7.32292 10.4544 6.6849 9.65234 6.21094C8.86849 5.75521 7.98438 5.51823 7 5.5C5.74219 5.51823 4.64844 5.90104 3.71875 6.64844C2.80729 7.3776 2.19661 8.33464 1.88672 9.51953ZM12.1133 12.0078V11.9805C12.168 11.7617 12.3138 11.6432 12.5508 11.625C12.8607 11.6615 12.9974 11.8255 12.9609 12.1172C12.6328 13.5026 11.931 14.6328 10.8555 15.5078C9.76172 16.3828 8.47656 16.8385 7 16.875C5.86979 16.8568 4.84896 16.5833 3.9375 16.0547C3.02604 15.526 2.29688 14.8151 1.75 13.9219V15.5625C1.73177 15.8359 1.58594 15.9818 1.3125 16C1.05729 15.9818 0.911458 15.8359 0.875 15.5625V12.9375C0.911458 12.6641 1.05729 12.5182 1.3125 12.5H1.72266H3.9375C4.21094 12.5182 4.35677 12.6641 4.375 12.9375C4.35677 13.2109 4.21094 13.3568 3.9375 13.375H2.46094C2.91667 14.1771 3.54557 14.8151 4.34766 15.2891C5.13151 15.7448 6.01562 15.9818 7 16C8.25781 15.9818 9.35156 15.599 10.2812 14.8516C11.1927 14.1224 11.8034 13.1745 12.1133 12.0078Z" fill="black" fill-opacity="0.72"/>
</g>
<defs>
<clipPath id="clip0_1731_1927">
<rect width="14" height="22" fill="white"/>
</clipPath>
</defs>
</svg>
