<svg width="20" height="24" viewBox="0 0 20 24" fill="none" xmlns="http://www.w3.org/2000/svg">
<g id="label-paired / md / laptop-mobile-md / bold" clip-path="url(#clip0_1731_3907)">
<path id="icon" d="M4 5.5C3.6875 5.52083 3.52083 5.6875 3.5 6V14H11V16H1.5C1.08333 15.9792 0.729167 15.8333 0.4375 15.5625C0.166667 15.2708 0.0208333 14.9167 0 14.5C0.0208333 14.1875 0.1875 14.0208 0.5 14H2V6C2.02083 5.4375 2.21875 4.96875 2.59375 4.59375C2.96875 4.21875 3.4375 4.02083 4 4H14C14.5625 4.02083 15.0312 4.21875 15.4062 4.59375C15.7812 4.96875 15.9792 5.4375 16 6V7H14.5V6C14.4792 5.6875 14.3125 5.52083 14 5.5H4ZM12 9.5C12.0208 9.08333 12.1667 8.72917 12.4375 8.4375C12.7292 8.16667 13.0833 8.02083 13.5 8H18.5C18.9167 8.02083 19.2708 8.16667 19.5625 8.4375C19.8333 8.72917 19.9792 9.08333 20 9.5V18.5C19.9792 18.9167 19.8333 19.2708 19.5625 19.5625C19.2708 19.8333 18.9167 19.9792 18.5 20H13.5C13.0833 19.9792 12.7292 19.8333 12.4375 19.5625C12.1667 19.2708 12.0208 18.9167 12 18.5V9.5ZM13.5 9.5V18.5H18.5V9.5H13.5Z" fill="black" fill-opacity="0.72"/>
</g>
<defs>
<clipPath id="clip0_1731_3907">
<rect width="20" height="24" fill="white"/>
</clipPath>
</defs>
</svg>
