<svg width="14" height="22" viewBox="0 0 14 22" fill="none" xmlns="http://www.w3.org/2000/svg">
<g id="label-paired / sm / shield-check-sm / regular" clip-path="url(#clip0_1731_2853)">
<path id="icon" d="M6.67188 4.76172L1.83203 6.8125C1.50391 6.97656 1.33073 7.23177 1.3125 7.57812C1.3125 8.45312 1.45833 9.47396 1.75 10.6406C2.0599 11.7891 2.59766 12.9102 3.36328 14.0039C4.14714 15.0977 5.24089 16 6.64453 16.7109C6.88151 16.8203 7.11849 16.8203 7.35547 16.7109C8.75911 16.0182 9.84375 15.1159 10.6094 14.0039C11.3932 12.9102 11.9401 11.7891 12.25 10.6406C12.5417 9.47396 12.6875 8.45312 12.6875 7.57812C12.6693 7.23177 12.4961 6.97656 12.168 6.8125L7.35547 4.76172C7.11849 4.67057 6.89062 4.67057 6.67188 4.76172ZM7.68359 3.96875L12.5234 6.01953C12.8333 6.14714 13.0794 6.34766 13.2617 6.62109C13.4622 6.89453 13.5625 7.21354 13.5625 7.57812C13.5807 8.50781 13.4258 9.60156 13.0977 10.8594C12.7695 12.1172 12.1771 13.3385 11.3203 14.5234C10.4818 15.7266 9.27865 16.7201 7.71094 17.5039C7.23698 17.7227 6.76302 17.7227 6.28906 17.5039C4.72135 16.7201 3.51823 15.7266 2.67969 14.5234C1.82292 13.3385 1.23047 12.1172 0.902344 10.8594C0.574219 9.60156 0.419271 8.50781 0.4375 7.57812C0.4375 7.21354 0.53776 6.89453 0.738281 6.62109C0.920573 6.34766 1.16667 6.14714 1.47656 6.01953L6.31641 3.96875C6.77214 3.78646 7.22786 3.78646 7.68359 3.96875ZM7 8.78125C6.59896 8.81771 6.38021 9.03646 6.34375 9.4375C6.38021 9.83854 6.59896 10.0573 7 10.0938C7.40104 10.0573 7.61979 9.83854 7.65625 9.4375C7.61979 9.03646 7.40104 8.81771 7 8.78125ZM8.53125 9.4375C8.53125 9.78385 8.43099 10.0938 8.23047 10.3672C8.02995 10.6224 7.76562 10.8047 7.4375 10.9141V12.9375C7.41927 13.2109 7.27344 13.3568 7 13.375C6.72656 13.3568 6.58073 13.2109 6.5625 12.9375V10.9141C6.23438 10.8047 5.97005 10.6224 5.76953 10.3672C5.56901 10.0938 5.46875 9.78385 5.46875 9.4375C5.48698 9 5.63281 8.63542 5.90625 8.34375C6.19792 8.07031 6.5625 7.92448 7 7.90625C7.4375 7.92448 7.80208 8.07031 8.09375 8.34375C8.36719 8.63542 8.51302 9 8.53125 9.4375Z" fill="black" fill-opacity="0.72"/>
</g>
<defs>
<clipPath id="clip0_1731_2853">
<rect width="14" height="22" fill="white"/>
</clipPath>
</defs>
</svg>
