<svg width="12" height="18" viewBox="0 0 12 18" fill="none" xmlns="http://www.w3.org/2000/svg">
<g id="label-paired / caption / phone-caption / regular" clip-path="url(#clip0_1731_1308)">
<path id="icon" d="M8.8125 9.94531L11.4375 11.0703C11.6406 11.1641 11.7969 11.3125 11.9062 11.5156C12 11.7031 12.0234 11.9062 11.9766 12.125L11.4141 14.75C11.2891 15.2188 10.9844 15.4688 10.5 15.5C10.3594 15.5 10.2188 15.5 10.0781 15.5C9.96875 15.4844 9.85938 15.4766 9.75 15.4766C7.92188 15.3203 6.27344 14.7656 4.80469 13.8125C3.33594 12.8594 2.17188 11.6172 1.3125 10.0859C0.453125 8.57031 0.015625 6.875 0 5C0.03125 4.51562 0.28125 4.21094 0.75 4.08594L3.375 3.52344C3.59375 3.47656 3.79688 3.50781 3.98438 3.61719C4.1875 3.71094 4.33594 3.85937 4.42969 4.0625L5.55469 6.6875C5.71094 7.10938 5.61719 7.47656 5.27344 7.78906L4.33594 8.5625C4.97656 9.65625 5.84375 10.5234 6.9375 11.1641L7.71094 10.2266C8.02344 9.88281 8.39062 9.78906 8.8125 9.94531ZM10.5 14.75C10.5938 14.75 10.6562 14.7031 10.6875 14.6094L11.25 11.9844C11.2656 11.875 11.2266 11.8047 11.1328 11.7734L8.50781 10.6484C8.42969 10.6172 8.35938 10.6328 8.29688 10.6953L7.52344 11.6562C7.24219 11.9375 6.92188 11.9922 6.5625 11.8203C5.34375 11.1172 4.38281 10.1562 3.67969 8.9375C3.50781 8.57812 3.5625 8.25781 3.84375 7.97656L4.80469 7.20312C4.86719 7.14062 4.88281 7.07031 4.85156 6.99219L3.72656 4.36719C3.67969 4.27344 3.60938 4.23438 3.51562 4.25L0.890625 4.8125C0.796875 4.84375 0.75 4.90625 0.75 5C0.765625 6.8125 1.21094 8.45312 2.08594 9.92188C2.94531 11.3906 4.10938 12.5547 5.57812 13.4141C7.04688 14.2891 8.6875 14.7344 10.5 14.75Z" fill="black" fill-opacity="0.72"/>
</g>
<defs>
<clipPath id="clip0_1731_1308">
<rect width="12" height="18" fill="white"/>
</clipPath>
</defs>
</svg>
