<svg width="24" height="36" viewBox="0 0 24 36" fill="none" xmlns="http://www.w3.org/2000/svg">
<g id="label-paired / xl / chart-candlestick-xl / bold" clip-path="url(#clip0_1731_6290)">
<path id="icon" d="M2.25 8.625V25.125C2.3125 25.8125 2.6875 26.1875 3.375 26.25H22.875C23.5625 26.3125 23.9375 26.6875 24 27.375C23.9375 28.0625 23.5625 28.4375 22.875 28.5H3.375C2.40625 28.4688 1.60938 28.1406 0.984375 27.5156C0.359375 26.8906 0.03125 26.0938 0 25.125V8.625C0.0625 7.9375 0.4375 7.5625 1.125 7.5C1.8125 7.5625 2.1875 7.9375 2.25 8.625ZM15 8.25V10.5C15.4375 10.5 15.7969 10.6406 16.0781 10.9219C16.3594 11.2031 16.5 11.5625 16.5 12V16.5C16.5 16.9375 16.3594 17.2969 16.0781 17.5781C15.7969 17.8594 15.4375 18 15 18V20.25C14.9688 20.7188 14.7188 20.9688 14.25 21C13.7812 20.9688 13.5312 20.7188 13.5 20.25V18C13.0625 18 12.7031 17.8594 12.4219 17.5781C12.1406 17.2969 12 16.9375 12 16.5V12C12 11.5625 12.1406 11.2031 12.4219 10.9219C12.7031 10.6406 13.0625 10.5 13.5 10.5V8.25C13.5312 7.78125 13.7812 7.53125 14.25 7.5C14.7188 7.53125 14.9688 7.78125 15 8.25ZM18 16.5C18 16.0625 18.1406 15.7031 18.4219 15.4219C18.7031 15.1406 19.0625 15 19.5 15V12.75C19.5312 12.2812 19.7812 12.0312 20.25 12C20.7188 12.0312 20.9688 12.2812 21 12.75V15C21.4375 15 21.7969 15.1406 22.0781 15.4219C22.3594 15.7031 22.5 16.0625 22.5 16.5V19.5C22.5 19.9375 22.3594 20.2969 22.0781 20.5781C21.7969 20.8594 21.4375 21 21 21V23.25C20.9688 23.7188 20.7188 23.9688 20.25 24C19.7812 23.9688 19.5312 23.7188 19.5 23.25V21C19.0625 21 18.7031 20.8594 18.4219 20.5781C18.1406 20.2969 18 19.9375 18 19.5V16.5ZM7.5 12V9.75C7.53125 9.28125 7.78125 9.03125 8.25 9C8.71875 9.03125 8.96875 9.28125 9 9.75V12C9.4375 12 9.79688 12.1406 10.0781 12.4219C10.3594 12.7031 10.5 13.0625 10.5 13.5V19.5C10.5 19.9375 10.3594 20.2969 10.0781 20.5781C9.79688 20.8594 9.4375 21 9 21V23.25C8.96875 23.7188 8.71875 23.9688 8.25 24C7.78125 23.9688 7.53125 23.7188 7.5 23.25V21C7.0625 21 6.70312 20.8594 6.42188 20.5781C6.14062 20.2969 6 19.9375 6 19.5V13.5C6 13.0625 6.14062 12.7031 6.42188 12.4219C6.70312 12.1406 7.0625 12 7.5 12Z" fill="black" fill-opacity="0.72"/>
</g>
<defs>
<clipPath id="clip0_1731_6290">
<rect width="24" height="36" fill="white"/>
</clipPath>
</defs>
</svg>
