<svg width="14" height="22" viewBox="0 0 14 22" fill="none" xmlns="http://www.w3.org/2000/svg">
<g id="label-paired / sm / pen-sm / regular" clip-path="url(#clip0_1731_2724)">
<path id="icon" d="M10.8281 4.84375L9.32422 6.32031L11.4297 8.42578L12.9062 6.92188C13.1615 6.61198 13.1615 6.30208 12.9062 5.99219L11.7578 4.84375C11.4479 4.58854 11.138 4.58854 10.8281 4.84375ZM8.69531 6.94922L2.26953 13.375C2.06901 13.5938 1.92318 13.849 1.83203 14.1406L1.09375 16.6562L3.60938 15.918C3.90104 15.8268 4.15625 15.681 4.375 15.4805L10.8008 9.05469L8.69531 6.94922ZM12.3594 4.21484L13.5352 5.39062C13.8268 5.70052 13.9727 6.05599 13.9727 6.45703C13.9727 6.8763 13.8268 7.24089 13.5352 7.55078L4.97656 16.082C4.66667 16.4102 4.30208 16.638 3.88281 16.7656L0.574219 17.7227C0.391927 17.7773 0.246094 17.7409 0.136719 17.6133C0.00911458 17.5039 -0.0273438 17.3672 0.0273438 17.2031L0.984375 13.8945C1.11198 13.457 1.33073 13.0833 1.64062 12.7734L10.1992 4.21484C10.5091 3.92318 10.8737 3.77734 11.293 3.77734C11.694 3.77734 12.0495 3.92318 12.3594 4.21484Z" fill="black" fill-opacity="0.72"/>
</g>
<defs>
<clipPath id="clip0_1731_2724">
<rect width="14" height="22" fill="white"/>
</clipPath>
</defs>
</svg>
