<svg width="20" height="24" viewBox="0 0 20 24" fill="none" xmlns="http://www.w3.org/2000/svg">
<g id="label-paired / md / hands-holding-diamond-md / regular" clip-path="url(#clip0_1731_4121)">
<path id="icon" d="M10.7188 4.28125L13.7188 7.28125C13.9062 7.48958 14 7.72917 14 8C14 8.27083 13.9062 8.51042 13.7188 8.71875L10.7188 11.7188C10.5104 11.9062 10.2708 12 10 12C9.72917 12 9.48958 11.9062 9.28125 11.7188L6.28125 8.71875C6.09375 8.51042 6 8.27083 6 8C6 7.72917 6.09375 7.48958 6.28125 7.28125L9.28125 4.28125C9.48958 4.09375 9.72917 4 10 4C10.2708 4 10.5104 4.09375 10.7188 4.28125ZM7 8L10 11L13 8L10 5L7 8ZM2 6C2.5625 6.02083 3.03125 6.21875 3.40625 6.59375C3.78125 6.96875 3.97917 7.4375 4 8V11.875C4 12.0208 4.01042 12.1667 4.03125 12.3125C4.09375 12.2083 4.17708 12.1146 4.28125 12.0312C4.63542 11.6771 5.04167 11.5 5.5 11.5C5.95833 11.5 6.36458 11.6771 6.71875 12.0312L9.59375 14.875C9.73958 15.0417 9.875 15.2188 10 15.4062C10.125 15.2188 10.2604 15.0417 10.4062 14.875L13.2812 12.0312C13.6354 11.6771 14.0417 11.5 14.5 11.5C14.9583 11.5 15.3646 11.6771 15.7188 12.0312C15.8229 12.1146 15.9062 12.2083 15.9688 12.3125C15.9896 12.1667 16 12.0208 16 11.875V8C16.0208 7.4375 16.2188 6.96875 16.5938 6.59375C16.9688 6.21875 17.4375 6.02083 18 6C18.5625 6.02083 19.0312 6.21875 19.4062 6.59375C19.7812 6.96875 19.9792 7.4375 20 8V14.75C19.9792 15.7083 19.6354 16.5312 18.9688 17.2188L16.3438 19.8438C16.1146 20.0521 15.8854 20.0521 15.6562 19.8438C15.4479 19.6146 15.4479 19.3854 15.6562 19.1562L18.2812 16.5312C18.7604 16.0312 19 15.4375 19 14.75V8C19 7.70833 18.9062 7.46875 18.7188 7.28125C18.5312 7.09375 18.2917 7 18 7C17.7083 7 17.4688 7.09375 17.2812 7.28125C17.0938 7.46875 17 7.70833 17 8V11.875C16.9792 12.75 16.6667 13.5104 16.0625 14.1562L15.7188 14.4688L14.3438 15.8438L13.8438 16.3438C13.6146 16.5521 13.3854 16.5521 13.1562 16.3438C12.9479 16.1146 12.9479 15.8854 13.1562 15.6562L13.6562 15.1562L15.0312 13.7812C15.3229 13.4271 15.3229 13.0729 15.0312 12.7188C14.6771 12.4479 14.3229 12.4479 13.9688 12.7188L11.125 15.5938C10.7083 16.0104 10.5 16.5104 10.5 17.0938V19.5C10.4792 19.8125 10.3125 19.9792 10 20C9.6875 19.9792 9.52083 19.8125 9.5 19.5V17.0938C9.5 16.5104 9.29167 16.0104 8.875 15.5938L6.03125 12.7188C5.67708 12.4271 5.32292 12.4271 4.96875 12.7188C4.69792 13.0729 4.69792 13.4271 4.96875 13.7812L6.34375 15.1562L6.84375 15.6562C7.05208 15.8854 7.05208 16.1146 6.84375 16.3438C6.61458 16.5521 6.38542 16.5521 6.15625 16.3438L5.65625 15.8438L4.28125 14.4688L3.9375 14.1562C3.33333 13.5104 3.02083 12.75 3 11.875V8C3 7.70833 2.90625 7.46875 2.71875 7.28125C2.53125 7.09375 2.29167 7 2 7C1.70833 7 1.46875 7.09375 1.28125 7.28125C1.09375 7.46875 1 7.70833 1 8V14.75C1 15.4375 1.23958 16.0312 1.71875 16.5312L4.34375 19.1562C4.55208 19.3854 4.55208 19.6146 4.34375 19.8438C4.11458 20.0521 3.88542 20.0521 3.65625 19.8438L1.03125 17.2188C0.364583 16.5312 0.0208333 15.7083 0 14.75V8C0.0208333 7.4375 0.21875 6.96875 0.59375 6.59375C0.96875 6.21875 1.4375 6.02083 2 6Z" fill="black" fill-opacity="0.72"/>
</g>
<defs>
<clipPath id="clip0_1731_4121">
<rect width="20" height="24" fill="white"/>
</clipPath>
</defs>
</svg>
