<svg width="12" height="18" viewBox="0 0 12 18" fill="none" xmlns="http://www.w3.org/2000/svg">
<g id="label-paired / caption / circle-dollar-caption / bold" clip-path="url(#clip0_1731_1699)">
<path id="icon" d="M10.875 9.5C10.875 8.60938 10.6562 7.79688 10.2188 7.0625C9.79688 6.32812 9.20312 5.73438 8.4375 5.28125C7.67188 4.84375 6.85938 4.625 6 4.625C5.14062 4.625 4.32812 4.84375 3.5625 5.28125C2.79688 5.73438 2.20312 6.32812 1.78125 7.0625C1.34375 7.79688 1.125 8.60938 1.125 9.5C1.125 10.3906 1.34375 11.2031 1.78125 11.9375C2.20312 12.6719 2.79688 13.2656 3.5625 13.7188C4.32812 14.1562 5.14062 14.375 6 14.375C6.85938 14.375 7.67188 14.1562 8.4375 13.7188C9.20312 13.2656 9.79688 12.6719 10.2188 11.9375C10.6562 11.2031 10.875 10.3906 10.875 9.5ZM0 9.5C0.015625 8.40625 0.28125 7.40625 0.796875 6.5C1.32812 5.59375 2.0625 4.85938 3 4.29688C3.95312 3.76562 4.95312 3.5 6 3.5C7.04688 3.5 8.04688 3.76562 9 4.29688C9.9375 4.85938 10.6719 5.59375 11.2031 6.5C11.7188 7.40625 11.9844 8.40625 12 9.5C11.9844 10.5938 11.7188 11.5938 11.2031 12.5C10.6719 13.4062 9.9375 14.1406 9 14.7031C8.04688 15.2344 7.04688 15.5 6 15.5C4.95312 15.5 3.95312 15.2344 3 14.7031C2.0625 14.1406 1.32812 13.4062 0.796875 12.5C0.28125 11.5938 0.015625 10.5938 0 9.5ZM6.49219 6.64062V6.96875C6.71094 7 6.9375 7.04688 7.17188 7.10938C7.21875 7.125 7.25781 7.14062 7.28906 7.15625C7.58594 7.26562 7.71094 7.47656 7.66406 7.78906C7.53906 8.07031 7.32812 8.1875 7.03125 8.14062C7.01562 8.125 7 8.11719 6.98438 8.11719C6.95312 8.11719 6.92969 8.10938 6.91406 8.09375C6.75781 8.04688 6.59375 8.00781 6.42188 7.97656C6.09375 7.91406 5.77344 7.94531 5.46094 8.07031C5.32031 8.13281 5.22656 8.21875 5.17969 8.32812C5.11719 8.4375 5.15625 8.54688 5.29688 8.65625C5.53125 8.78125 5.78125 8.875 6.04688 8.9375C6.0625 8.9375 6.07031 8.9375 6.07031 8.9375C6.10156 8.95312 6.13281 8.96094 6.16406 8.96094C6.17969 8.97656 6.20312 8.98438 6.23438 8.98438C6.64062 9.07812 7.03125 9.23438 7.40625 9.45312C7.875 9.79688 8.0625 10.25 7.96875 10.8125C7.84375 11.3438 7.54688 11.6953 7.07812 11.8672C6.89062 11.9453 6.69531 11.9922 6.49219 12.0078V12.3828C6.46094 12.6797 6.28906 12.8438 5.97656 12.875C5.67969 12.8438 5.51562 12.6797 5.48438 12.3828V11.9609C5.14062 11.8828 4.80469 11.7891 4.47656 11.6797C4.19531 11.5547 4.08594 11.3359 4.14844 11.0234C4.27344 10.7422 4.48438 10.6406 4.78125 10.7188C4.8125 10.7188 4.84375 10.7266 4.875 10.7422C4.90625 10.7422 4.9375 10.75 4.96875 10.7656C5.23438 10.8594 5.5 10.9375 5.76562 11C6.17188 11.0469 6.48438 11.0234 6.70312 10.9297C6.84375 10.8672 6.9375 10.7734 6.98438 10.6484C7.01562 10.5078 6.96875 10.3906 6.84375 10.2969C6.59375 10.1406 6.32031 10.0391 6.02344 9.99219C5.97656 9.97656 5.92969 9.96094 5.88281 9.94531C5.86719 9.92969 5.85938 9.92188 5.85938 9.92188C5.46875 9.84375 5.09375 9.70312 4.73438 9.5C4.26562 9.1875 4.07031 8.75 4.14844 8.1875C4.28906 7.67188 4.59375 7.32031 5.0625 7.13281C5.1875 7.08594 5.32812 7.04688 5.48438 7.01562V6.64062C5.51562 6.32812 5.67969 6.15625 5.97656 6.125C6.28906 6.15625 6.46094 6.32812 6.49219 6.64062Z" fill="black" fill-opacity="0.72"/>
</g>
<defs>
<clipPath id="clip0_1731_1699">
<rect width="12" height="18" fill="white"/>
</clipPath>
</defs>
</svg>
