<svg width="14" height="22" viewBox="0 0 14 22" fill="none" xmlns="http://www.w3.org/2000/svg">
<g id="label-paired / sm / life-ring-sm / bold" clip-path="url(#clip0_1731_2014)">
<path id="icon" d="M10.5273 15.207L8.33984 13.0195C7.9388 13.2565 7.49219 13.375 7 13.375C6.50781 13.375 6.0612 13.2565 5.66016 13.0195L3.47266 15.207C4.45703 16.0091 5.63281 16.4193 7 16.4375C8.36719 16.4193 9.54297 16.0091 10.5273 15.207ZM12.3867 15.207L12.7148 15.5352C12.9701 15.8451 12.9701 16.1549 12.7148 16.4648C12.4049 16.7201 12.0951 16.7201 11.7852 16.4648L11.457 16.1367C10.2174 17.1758 8.73177 17.7135 7 17.75C5.26823 17.7135 3.78255 17.1758 2.54297 16.1367L2.21484 16.4648C1.90495 16.7201 1.59505 16.7201 1.28516 16.4648C1.02995 16.1549 1.02995 15.8451 1.28516 15.5352L1.61328 15.207C0.574219 13.9674 0.0364583 12.4818 0 10.75C0.0364583 9.01823 0.574219 7.53255 1.61328 6.29297L1.28516 5.96484C1.02995 5.65495 1.02995 5.34505 1.28516 5.03516C1.59505 4.77995 1.90495 4.77995 2.21484 5.03516L2.54297 5.36328C3.78255 4.32422 5.26823 3.78646 7 3.75C8.73177 3.78646 10.2174 4.32422 11.457 5.36328L11.7852 5.03516C12.0951 4.77995 12.4049 4.77995 12.7148 5.03516C12.9701 5.34505 12.9701 5.65495 12.7148 5.96484L12.3867 6.29297C13.4258 7.53255 13.9635 9.01823 14 10.75C13.9635 12.4818 13.4258 13.9674 12.3867 15.207ZM11.457 14.2773C12.2591 13.293 12.6693 12.1172 12.6875 10.75C12.6693 9.38281 12.2591 8.20703 11.457 7.22266L9.26953 9.41016C9.50651 9.8112 9.625 10.2578 9.625 10.75C9.625 11.2422 9.50651 11.6888 9.26953 12.0898L11.457 14.2773ZM10.5273 6.29297C9.54297 5.49089 8.36719 5.08073 7 5.0625C5.63281 5.08073 4.45703 5.49089 3.47266 6.29297L5.66016 8.48047C6.0612 8.24349 6.50781 8.125 7 8.125C7.49219 8.125 7.9388 8.24349 8.33984 8.48047L10.5273 6.29297ZM4.73047 12.0898C4.49349 11.6888 4.375 11.2422 4.375 10.75C4.375 10.2578 4.49349 9.8112 4.73047 9.41016L2.54297 7.22266C1.74089 8.20703 1.33073 9.38281 1.3125 10.75C1.33073 12.1172 1.74089 13.293 2.54297 14.2773L4.73047 12.0898ZM5.6875 10.75C5.70573 11.2422 5.92448 11.625 6.34375 11.8984C6.78125 12.1172 7.21875 12.1172 7.65625 11.8984C8.07552 11.625 8.29427 11.2422 8.3125 10.75C8.29427 10.2578 8.07552 9.875 7.65625 9.60156C7.21875 9.38281 6.78125 9.38281 6.34375 9.60156C5.92448 9.875 5.70573 10.2578 5.6875 10.75Z" fill="black" fill-opacity="0.72"/>
</g>
<defs>
<clipPath id="clip0_1731_2014">
<rect width="14" height="22" fill="white"/>
</clipPath>
</defs>
</svg>
