<svg width="18" height="24" viewBox="0 0 18 24" fill="none" xmlns="http://www.w3.org/2000/svg">
<g id="label-paired / md / arrow-up-a-z-md / bold" clip-path="url(#clip0_1731_3654)">
<path id="icon" d="M13 5C13.3125 5 13.5417 5.13542 13.6875 5.40625L16.1875 10.4062C16.3333 10.8438 16.2188 11.1875 15.8438 11.4375C15.4062 11.5833 15.0729 11.4688 14.8438 11.0938L14.4062 10.25C14.3646 10.25 14.3125 10.25 14.25 10.25H11.5938L11.1562 11.0938C10.9271 11.4896 10.5938 11.6042 10.1562 11.4375C9.76042 11.1875 9.64583 10.8438 9.8125 10.4062L12.3125 5.40625C12.4792 5.15625 12.7083 5.02083 13 5ZM12.3438 8.75H13.6562L13 7.4375L12.3438 8.75ZM4.46875 5.21875C4.82292 4.92708 5.17708 4.92708 5.53125 5.21875L8.53125 8.21875C8.82292 8.57292 8.82292 8.92708 8.53125 9.28125C8.17708 9.57292 7.82292 9.57292 7.46875 9.28125L5.75 7.5625V18.25C5.70833 18.7083 5.45833 18.9583 5 19C4.54167 18.9583 4.29167 18.7083 4.25 18.25V7.5625L2.53125 9.28125C2.17708 9.57292 1.82292 9.57292 1.46875 9.28125C1.17708 8.92708 1.17708 8.57292 1.46875 8.21875L4.46875 5.21875ZM11 13H15C15.3125 13.0208 15.5417 13.1667 15.6875 13.4375C15.8125 13.7292 15.7708 14 15.5625 14.25L12.6562 17.5H15C15.4583 17.5417 15.7083 17.7917 15.75 18.25C15.7083 18.7083 15.4583 18.9583 15 19H11C10.6875 18.9792 10.4583 18.8333 10.3125 18.5625C10.1875 18.2708 10.2292 18 10.4375 17.75L13.3438 14.5H11C10.5417 14.4583 10.2917 14.2083 10.25 13.75C10.2917 13.2917 10.5417 13.0417 11 13Z" fill="black" fill-opacity="0.72"/>
</g>
<defs>
<clipPath id="clip0_1731_3654">
<rect width="18" height="24" fill="white"/>
</clipPath>
</defs>
</svg>
