<svg width="16" height="22" viewBox="0 0 16 22" fill="none" xmlns="http://www.w3.org/2000/svg">
<g id="label-paired / sm / house-blank-sm / regular" clip-path="url(#clip0_1731_2688)">
<path id="icon" d="M7.69922 3.85938C7.89974 3.71354 8.10026 3.71354 8.30078 3.85938L15.7383 10.4219C15.9206 10.6224 15.9297 10.832 15.7656 11.0508C15.5651 11.2331 15.3555 11.2422 15.1367 11.0781L14.125 10.1758V15.5625C14.1068 16.1823 13.8971 16.7018 13.4961 17.1211C13.0768 17.5221 12.5573 17.7318 11.9375 17.75H4.0625C3.44271 17.7318 2.92318 17.5221 2.50391 17.1211C2.10286 16.7018 1.89323 16.1823 1.875 15.5625V10.1758L0.863281 11.0781C0.644531 11.2422 0.434896 11.2331 0.234375 11.0508C0.0703125 10.832 0.0794271 10.6224 0.261719 10.4219L7.69922 3.85938ZM2.75 9.41016V15.5625C2.76823 15.9271 2.89583 16.237 3.13281 16.4922C3.38802 16.7292 3.69792 16.8568 4.0625 16.875H11.9375C12.3021 16.8568 12.612 16.7292 12.8672 16.4922C13.1042 16.237 13.2318 15.9271 13.25 15.5625V9.41016L8 4.76172L2.75 9.41016Z" fill="black" fill-opacity="0.72"/>
</g>
<defs>
<clipPath id="clip0_1731_2688">
<rect width="16" height="22" fill="white"/>
</clipPath>
</defs>
</svg>
