<svg width="14" height="18" viewBox="0 0 14 18" fill="none" xmlns="http://www.w3.org/2000/svg">
<g id="label-paired / caption / keyboard-caption / bold" clip-path="url(#clip0_1731_1406)">
<path id="icon" d="M1.75 6.125C1.51562 6.14062 1.39062 6.26562 1.375 6.5V12.5C1.39062 12.7344 1.51562 12.8594 1.75 12.875H12.25C12.4844 12.8594 12.6094 12.7344 12.625 12.5V6.5C12.6094 6.26562 12.4844 6.14062 12.25 6.125H1.75ZM0.25 6.5C0.265625 6.07812 0.414062 5.72656 0.695312 5.44531C0.976562 5.16406 1.32812 5.01562 1.75 5H12.25C12.6719 5.01562 13.0234 5.16406 13.3047 5.44531C13.5859 5.72656 13.7344 6.07812 13.75 6.5V12.5C13.7344 12.9219 13.5859 13.2734 13.3047 13.5547C13.0234 13.8359 12.6719 13.9844 12.25 14H1.75C1.32812 13.9844 0.976562 13.8359 0.695312 13.5547C0.414062 13.2734 0.265625 12.9219 0.25 12.5V6.5ZM4.375 11H9.625C9.85938 11.0156 9.98438 11.1406 10 11.375V11.75C9.98438 11.9844 9.85938 12.1094 9.625 12.125H4.375C4.14062 12.1094 4.01562 11.9844 4 11.75V11.375C4.01562 11.1406 4.14062 11.0156 4.375 11ZM2.6875 9.3125C2.70312 9.07812 2.82812 8.95312 3.0625 8.9375H3.4375C3.67188 8.95312 3.79688 9.07812 3.8125 9.3125V9.6875C3.79688 9.92188 3.67188 10.0469 3.4375 10.0625H3.0625C2.82812 10.0469 2.70312 9.92188 2.6875 9.6875V9.3125ZM3.0625 7.0625H3.4375C3.67188 7.07812 3.79688 7.20312 3.8125 7.4375V7.8125C3.79688 8.04688 3.67188 8.17188 3.4375 8.1875H3.0625C2.82812 8.17188 2.70312 8.04688 2.6875 7.8125V7.4375C2.70312 7.20312 2.82812 7.07812 3.0625 7.0625ZM4.5625 9.3125C4.57812 9.07812 4.70312 8.95312 4.9375 8.9375H5.3125C5.54688 8.95312 5.67188 9.07812 5.6875 9.3125V9.6875C5.67188 9.92188 5.54688 10.0469 5.3125 10.0625H4.9375C4.70312 10.0469 4.57812 9.92188 4.5625 9.6875V9.3125ZM4.9375 7.0625H5.3125C5.54688 7.07812 5.67188 7.20312 5.6875 7.4375V7.8125C5.67188 8.04688 5.54688 8.17188 5.3125 8.1875H4.9375C4.70312 8.17188 4.57812 8.04688 4.5625 7.8125V7.4375C4.57812 7.20312 4.70312 7.07812 4.9375 7.0625ZM6.4375 9.3125C6.45312 9.07812 6.57812 8.95312 6.8125 8.9375H7.1875C7.42188 8.95312 7.54688 9.07812 7.5625 9.3125V9.6875C7.54688 9.92188 7.42188 10.0469 7.1875 10.0625H6.8125C6.57812 10.0469 6.45312 9.92188 6.4375 9.6875V9.3125ZM6.8125 7.0625H7.1875C7.42188 7.07812 7.54688 7.20312 7.5625 7.4375V7.8125C7.54688 8.04688 7.42188 8.17188 7.1875 8.1875H6.8125C6.57812 8.17188 6.45312 8.04688 6.4375 7.8125V7.4375C6.45312 7.20312 6.57812 7.07812 6.8125 7.0625ZM8.3125 9.3125C8.32812 9.07812 8.45312 8.95312 8.6875 8.9375H9.0625C9.29688 8.95312 9.42188 9.07812 9.4375 9.3125V9.6875C9.42188 9.92188 9.29688 10.0469 9.0625 10.0625H8.6875C8.45312 10.0469 8.32812 9.92188 8.3125 9.6875V9.3125ZM8.6875 7.0625H9.0625C9.29688 7.07812 9.42188 7.20312 9.4375 7.4375V7.8125C9.42188 8.04688 9.29688 8.17188 9.0625 8.1875H8.6875C8.45312 8.17188 8.32812 8.04688 8.3125 7.8125V7.4375C8.32812 7.20312 8.45312 7.07812 8.6875 7.0625ZM10.1875 9.3125C10.2031 9.07812 10.3281 8.95312 10.5625 8.9375H10.9375C11.1719 8.95312 11.2969 9.07812 11.3125 9.3125V9.6875C11.2969 9.92188 11.1719 10.0469 10.9375 10.0625H10.5625C10.3281 10.0469 10.2031 9.92188 10.1875 9.6875V9.3125ZM10.5625 7.0625H10.9375C11.1719 7.07812 11.2969 7.20312 11.3125 7.4375V7.8125C11.2969 8.04688 11.1719 8.17188 10.9375 8.1875H10.5625C10.3281 8.17188 10.2031 8.04688 10.1875 7.8125V7.4375C10.2031 7.20312 10.3281 7.07812 10.5625 7.0625Z" fill="black" fill-opacity="0.72"/>
</g>
<defs>
<clipPath id="clip0_1731_1406">
<rect width="14" height="18" fill="white"/>
</clipPath>
</defs>
</svg>
