<svg width="16" height="22" viewBox="0 0 16 22" fill="none" xmlns="http://www.w3.org/2000/svg">
<g id="label-paired / sm / link-simple-sm / bold" clip-path="url(#clip0_1731_2578)">
<path id="icon" d="M0.125 10.75C0.161458 9.51042 0.589844 8.48047 1.41016 7.66016C2.23047 6.83984 3.26042 6.41146 4.5 6.375H6.46875C6.86979 6.41146 7.08854 6.63021 7.125 7.03125C7.08854 7.43229 6.86979 7.65104 6.46875 7.6875H4.5C3.625 7.70573 2.90495 8.00651 2.33984 8.58984C1.75651 9.15495 1.45573 9.875 1.4375 10.75C1.45573 11.625 1.75651 12.3451 2.33984 12.9102C2.90495 13.4935 3.625 13.7943 4.5 13.8125H6.46875C6.86979 13.849 7.08854 14.0677 7.125 14.4688C7.08854 14.8698 6.86979 15.0885 6.46875 15.125H4.5C3.26042 15.0885 2.23047 14.6602 1.41016 13.8398C0.589844 13.0195 0.161458 11.9896 0.125 10.75ZM15.875 10.75C15.8385 11.9896 15.4102 13.0195 14.5898 13.8398C13.7695 14.6602 12.7396 15.0885 11.5 15.125H9.53125C9.13021 15.0885 8.91146 14.8698 8.875 14.4688C8.91146 14.0677 9.13021 13.849 9.53125 13.8125H11.5C12.375 13.7943 13.0951 13.4935 13.6602 12.9102C14.2435 12.3451 14.5443 11.625 14.5625 10.75C14.5443 9.875 14.2435 9.15495 13.6602 8.58984C13.0951 8.00651 12.375 7.70573 11.5 7.6875H9.53125C9.13021 7.65104 8.91146 7.43229 8.875 7.03125C8.91146 6.63021 9.13021 6.41146 9.53125 6.375H11.5C12.7396 6.41146 13.7695 6.83984 14.5898 7.66016C15.4102 8.48047 15.8385 9.51042 15.875 10.75ZM5.15625 10.0938H10.8438C11.2448 10.1302 11.4635 10.349 11.5 10.75C11.4635 11.151 11.2448 11.3698 10.8438 11.4062H5.15625C4.75521 11.3698 4.53646 11.151 4.5 10.75C4.53646 10.349 4.75521 10.1302 5.15625 10.0938Z" fill="black" fill-opacity="0.72"/>
</g>
<defs>
<clipPath id="clip0_1731_2578">
<rect width="16" height="22" fill="white"/>
</clipPath>
</defs>
</svg>
