<svg width="13" height="22" viewBox="0 0 13 22" fill="none" xmlns="http://www.w3.org/2000/svg">
<g id="label-paired / sm / bell-sm / bold" clip-path="url(#clip0_1731_2543)">
<path id="icon" d="M6.5 3.75C6.75521 3.75 6.96484 3.83203 7.12891 3.99609C7.29297 4.16016 7.375 4.36979 7.375 4.625V5.11719C8.39583 5.29948 9.22526 5.76432 9.86328 6.51172C10.5195 7.25911 10.8568 8.16146 10.875 9.21875V10.1211C10.8932 11.3971 11.2943 12.5365 12.0781 13.5391L12.4883 14.0586C12.6341 14.2773 12.6615 14.5052 12.5703 14.7422C12.4427 14.9792 12.2422 15.1068 11.9688 15.125H1.03125C0.757812 15.1068 0.557292 14.9792 0.429688 14.7422C0.320312 14.5052 0.347656 14.2773 0.511719 14.0586L0.921875 13.5391C1.70573 12.5365 2.10677 11.3971 2.125 10.1211V9.21875C2.14323 8.16146 2.48047 7.25911 3.13672 6.51172C3.77474 5.76432 4.60417 5.29948 5.625 5.11719V4.625C5.625 4.36979 5.70703 4.16016 5.87109 3.99609C6.03516 3.83203 6.24479 3.75 6.5 3.75ZM6.5 6.375H6.28125C5.47917 6.39323 4.80469 6.66667 4.25781 7.19531C3.72917 7.74219 3.45573 8.41667 3.4375 9.21875V10.1211C3.41927 11.4701 3.05469 12.7005 2.34375 13.8125H10.6562C9.92708 12.7005 9.5625 11.4701 9.5625 10.1211V9.21875C9.54427 8.41667 9.27083 7.74219 8.74219 7.19531C8.19531 6.66667 7.52083 6.39323 6.71875 6.375H6.5ZM8.25 16C8.25 16.474 8.07682 16.8841 7.73047 17.2305C7.38411 17.5768 6.97396 17.75 6.5 17.75C6.02604 17.75 5.61589 17.5768 5.26953 17.2305C4.92318 16.8841 4.75 16.474 4.75 16H6.5H8.25Z" fill="black" fill-opacity="0.72"/>
</g>
<defs>
<clipPath id="clip0_1731_2543">
<rect width="13" height="22" fill="white"/>
</clipPath>
</defs>
</svg>
