<svg width="24" height="36" viewBox="0 0 24 36" fill="none" xmlns="http://www.w3.org/2000/svg">
<g id="label-paired / xl / circle-three-xl / regular" clip-path="url(#clip0_1731_6086)">
<path id="icon" d="M12 7.5C10.0938 7.53125 8.34375 8 6.75 8.90625C5.15625 9.84375 3.875 11.125 2.90625 12.75C1.96875 14.4062 1.5 16.1562 1.5 18C1.5 19.8438 1.96875 21.5938 2.90625 23.25C3.875 24.875 5.15625 26.1562 6.75 27.0938C8.34375 28 10.0938 28.4688 12 28.5C13.9062 28.4688 15.6562 28 17.25 27.0938C18.8438 26.1562 20.125 24.875 21.0938 23.25C22.0312 21.5938 22.5 19.8438 22.5 18C22.5 16.1562 22.0312 14.4062 21.0938 12.75C20.125 11.125 18.8438 9.84375 17.25 8.90625C15.6562 8 13.9062 7.53125 12 7.5ZM12 30C9.8125 29.9688 7.8125 29.4375 6 28.4062C4.1875 27.3438 2.71875 25.875 1.59375 24C0.53125 22.0938 0 20.0938 0 18C0 15.9062 0.53125 13.9062 1.59375 12C2.71875 10.125 4.1875 8.65625 6 7.59375C7.8125 6.5625 9.8125 6.03125 12 6C14.1875 6.03125 16.1875 6.5625 18 7.59375C19.8125 8.65625 21.2812 10.125 22.4062 12C23.4688 13.9062 24 15.9062 24 18C24 20.0938 23.4688 22.0938 22.4062 24C21.2812 25.875 19.8125 27.3438 18 28.4062C16.1875 29.4375 14.1875 29.9688 12 30ZM8.25 12H15C15.3438 12.0312 15.5781 12.1875 15.7031 12.4688C15.7969 12.8125 15.7188 13.0938 15.4688 13.3125L11.7656 16.5H12.7031C13.7969 16.5 14.6875 16.8594 15.375 17.5781C16.0938 18.2969 16.4688 19.1875 16.5 20.25C16.4688 21.3125 16.0938 22.2031 15.375 22.9219C14.6875 23.6094 13.8125 23.9688 12.75 24H11.0625C9.6875 23.9688 8.59375 23.4219 7.78125 22.3594L7.64062 22.2188C7.39062 21.8125 7.4375 21.4531 7.78125 21.1406C8.1875 20.9219 8.54688 20.9844 8.85938 21.3281L8.95312 21.4688C9.48438 22.1562 10.1875 22.5 11.0625 22.5H12.75C13.375 22.5 13.9062 22.2812 14.3438 21.8438C14.75 21.4062 14.9688 20.875 15 20.25C14.9688 19.5938 14.75 19.0625 14.3438 18.6562C13.9062 18.2188 13.375 18 12.75 18H9.75C9.40625 17.9688 9.17188 17.8125 9.04688 17.5312C8.95312 17.1875 9.03125 16.9062 9.28125 16.6875L12.9844 13.5H8.25C7.78125 13.4688 7.53125 13.2188 7.5 12.75C7.53125 12.2812 7.78125 12.0312 8.25 12Z" fill="black" fill-opacity="0.72"/>
</g>
<defs>
<clipPath id="clip0_1731_6086">
<rect width="24" height="36" fill="white"/>
</clipPath>
</defs>
</svg>
