<svg width="21" height="36" viewBox="0 0 21 36" fill="none" xmlns="http://www.w3.org/2000/svg">
<g id="label-paired / xl / tablet-screen-xl / bold" clip-path="url(#clip0_1731_6413)">
<path id="icon" d="M2.25 27C2.28125 27.4688 2.53125 27.7188 3 27.75H18C18.4688 27.7188 18.7188 27.4688 18.75 27V23.25H2.25V27ZM2.25 21H18.75V9C18.7188 8.53125 18.4688 8.28125 18 8.25H3C2.53125 8.28125 2.28125 8.53125 2.25 9V21ZM0 9C0.03125 8.15625 0.328125 7.45312 0.890625 6.89062C1.45312 6.32812 2.15625 6.03125 3 6H18C18.8438 6.03125 19.5469 6.32812 20.1094 6.89062C20.6719 7.45312 20.9688 8.15625 21 9V27C20.9688 27.8438 20.6719 28.5469 20.1094 29.1094C19.5469 29.6719 18.8438 29.9688 18 30H3C2.15625 29.9688 1.45312 29.6719 0.890625 29.1094C0.328125 28.5469 0.03125 27.8438 0 27V9ZM9 24.75H12C12.4688 24.7812 12.7188 25.0312 12.75 25.5C12.7188 25.9688 12.4688 26.2188 12 26.25H9C8.53125 26.2188 8.28125 25.9688 8.25 25.5C8.28125 25.0312 8.53125 24.7812 9 24.75Z" fill="black" fill-opacity="0.72"/>
</g>
<defs>
<clipPath id="clip0_1731_6413">
<rect width="21" height="36" fill="white"/>
</clipPath>
</defs>
</svg>
