<svg width="9" height="18" viewBox="0 0 9 18" fill="none" xmlns="http://www.w3.org/2000/svg">
<g id="label-paired / caption / computer-mouse-scrollwheel-caption / bold" clip-path="url(#clip0_1731_1401)">
<path id="icon" d="M7.875 11.75V7.25C7.85938 6.5 7.60156 5.88281 7.10156 5.39844C6.61719 4.89844 6 4.64062 5.25 4.625H3.75C3 4.64062 2.38281 4.89844 1.89844 5.39844C1.39844 5.88281 1.14062 6.5 1.125 7.25V11.75C1.14062 12.5 1.39844 13.1172 1.89844 13.6016C2.38281 14.1016 3 14.3594 3.75 14.375H5.25C6 14.3594 6.61719 14.1016 7.10156 13.6016C7.60156 13.1172 7.85938 12.5 7.875 11.75ZM0 7.25C0.03125 6.1875 0.398438 5.30469 1.10156 4.60156C1.80469 3.89844 2.6875 3.53125 3.75 3.5H5.25C6.3125 3.53125 7.19531 3.89844 7.89844 4.60156C8.60156 5.30469 8.96875 6.1875 9 7.25V11.75C8.96875 12.8125 8.60156 13.6953 7.89844 14.3984C7.19531 15.1016 6.3125 15.4688 5.25 15.5H3.75C2.6875 15.4688 1.80469 15.1016 1.10156 14.3984C0.398438 13.6953 0.03125 12.8125 0 11.75V7.25ZM4.5 5.75C4.71875 5.75 4.89844 5.82031 5.03906 5.96094C5.17969 6.10156 5.25 6.28125 5.25 6.5V7.25C5.25 7.46875 5.17969 7.64844 5.03906 7.78906C4.89844 7.92969 4.71875 8 4.5 8C4.28125 8 4.10156 7.92969 3.96094 7.78906C3.82031 7.64844 3.75 7.46875 3.75 7.25V6.5C3.75 6.28125 3.82031 6.10156 3.96094 5.96094C4.10156 5.82031 4.28125 5.75 4.5 5.75Z" fill="black" fill-opacity="0.72"/>
</g>
<defs>
<clipPath id="clip0_1731_1401">
<rect width="9" height="18" fill="white"/>
</clipPath>
</defs>
</svg>
