<svg width="20" height="30" viewBox="0 0 20 30" fill="none" xmlns="http://www.w3.org/2000/svg">
<g id="label-paired / lg / envelope-lg / bold" clip-path="url(#clip0_1731_4768)">
<path id="icon" d="M2.5 9.875C2.10938 9.90104 1.90104 10.1094 1.875 10.5V11.3594L8.63281 16.9062C9.04948 17.2188 9.50521 17.375 10 17.375C10.5208 17.375 10.9896 17.2188 11.4062 16.9062L18.125 11.3594V10.5C18.099 10.1094 17.8906 9.90104 17.5 9.875H2.5ZM1.875 13.7812V20.5C1.90104 20.8906 2.10938 21.099 2.5 21.125H17.5C17.8906 21.099 18.099 20.8906 18.125 20.5V13.7812L12.5781 18.3516C11.7969 18.9505 10.9375 19.25 10 19.25C9.0625 19.25 8.20312 18.9505 7.42188 18.3516L1.875 13.7812ZM0 10.5C0.0260417 9.79688 0.273438 9.21094 0.742188 8.74219C1.21094 8.27344 1.79688 8.02604 2.5 8H17.5C18.2031 8.02604 18.7891 8.27344 19.2578 8.74219C19.7266 9.21094 19.974 9.79688 20 10.5V20.5C19.974 21.2031 19.7266 21.7891 19.2578 22.2578C18.7891 22.7266 18.2031 22.974 17.5 23H2.5C1.79688 22.974 1.21094 22.7266 0.742188 22.2578C0.273438 21.7891 0.0260417 21.2031 0 20.5V10.5Z" fill="black" fill-opacity="0.72"/>
</g>
<defs>
<clipPath id="clip0_1731_4768">
<rect width="20" height="30" fill="white"/>
</clipPath>
</defs>
</svg>
