<svg width="10" height="30" viewBox="0 0 10 30" fill="none" xmlns="http://www.w3.org/2000/svg">
<g id="label-paired / lg / one-lg / bold" clip-path="url(#clip0_1731_4470)">
<path id="icon" d="M5.9375 7.6875V22.375H9.0625C9.63542 22.4271 9.94792 22.7396 10 23.3125C9.94792 23.8854 9.63542 24.1979 9.0625 24.25H5H0.9375C0.364583 24.1979 0.0520833 23.8854 0 23.3125C0.0520833 22.7396 0.364583 22.4271 0.9375 22.375H4.0625V9.36719L1.40625 10.9688C0.911458 11.2292 0.481771 11.138 0.117188 10.6953C-0.117188 10.1745 -0.0130208 9.74479 0.429688 9.40625L4.49219 6.90625C4.80469 6.72396 5.13021 6.71094 5.46875 6.86719C5.78125 7.04948 5.9375 7.32292 5.9375 7.6875Z" fill="black" fill-opacity="0.72"/>
</g>
<defs>
<clipPath id="clip0_1731_4470">
<rect width="10" height="30" fill="white"/>
</clipPath>
</defs>
</svg>
