<svg width="20" height="30" viewBox="0 0 20 30" fill="none" xmlns="http://www.w3.org/2000/svg">
<g id="label-paired / lg / arrow-up-from-square-lg / regular" clip-path="url(#clip0_1731_5389)">
<path id="icon" d="M10.4297 5.69531L14.4922 9.75781C14.7526 10.0443 14.7526 10.3307 14.4922 10.6172C14.2057 10.8776 13.9193 10.8776 13.6328 10.6172L10.625 7.64844V18C10.599 18.3906 10.3906 18.599 10 18.625C9.60938 18.599 9.40104 18.3906 9.375 18V7.64844L6.36719 10.6172C6.08073 10.8776 5.79427 10.8776 5.50781 10.6172C5.2474 10.3307 5.2474 10.0443 5.50781 9.75781L9.57031 5.69531C9.85677 5.4349 10.1432 5.4349 10.4297 5.69531ZM2.5 6.75H3.75C4.14062 6.77604 4.34896 6.98438 4.375 7.375C4.34896 7.76562 4.14062 7.97396 3.75 8H2.5C2.13542 8 1.83594 8.11719 1.60156 8.35156C1.36719 8.58594 1.25 8.88542 1.25 9.25V23C1.25 23.3646 1.36719 23.6641 1.60156 23.8984C1.83594 24.1328 2.13542 24.25 2.5 24.25H17.5C17.8646 24.25 18.1641 24.1328 18.3984 23.8984C18.6328 23.6641 18.75 23.3646 18.75 23V9.25C18.75 8.88542 18.6328 8.58594 18.3984 8.35156C18.1641 8.11719 17.8646 8 17.5 8H16.25C15.8594 7.97396 15.651 7.76562 15.625 7.375C15.651 6.98438 15.8594 6.77604 16.25 6.75H17.5C18.2031 6.77604 18.7891 7.02344 19.2578 7.49219C19.7266 7.96094 19.974 8.54688 20 9.25V23C19.974 23.7031 19.7266 24.2891 19.2578 24.7578C18.7891 25.2266 18.2031 25.474 17.5 25.5H2.5C1.79688 25.474 1.21094 25.2266 0.742188 24.7578C0.273438 24.2891 0.0260417 23.7031 0 23V9.25C0.0260417 8.54688 0.273438 7.96094 0.742188 7.49219C1.21094 7.02344 1.79688 6.77604 2.5 6.75Z" fill="black" fill-opacity="0.72"/>
</g>
<defs>
<clipPath id="clip0_1731_5389">
<rect width="20" height="30" fill="white"/>
</clipPath>
</defs>
</svg>
