<svg width="12" height="18" viewBox="0 0 12 18" fill="none" xmlns="http://www.w3.org/2000/svg">
<g id="label-paired / caption / file-certificate-caption / bold" clip-path="url(#clip0_1731_1587)">
<path id="icon" d="M10.5 14.375C10.7344 14.3594 10.8594 14.2344 10.875 14V7.25H9C8.78125 7.25 8.60156 7.17969 8.46094 7.03906C8.32031 6.89844 8.25 6.71875 8.25 6.5V4.625H4.5C4.26562 4.64062 4.14062 4.76562 4.125 5V6.59375C3.8125 6.46875 3.49219 6.46875 3.16406 6.59375C3.11719 6.60938 3.07031 6.625 3.02344 6.64062C3.02344 6.65625 3.01562 6.66406 3 6.66406V5C3.01562 4.57812 3.16406 4.22656 3.44531 3.94531C3.72656 3.66406 4.07812 3.51563 4.5 3.5H8.39062C8.79688 3.5 9.14844 3.64844 9.44531 3.94531L11.5547 6.05469C11.8516 6.35156 12 6.71094 12 7.13281V14C11.9844 14.4219 11.8359 14.7734 11.5547 15.0547C11.2734 15.3359 10.9219 15.4844 10.5 15.5H5.17969C5.22656 15.375 5.25 15.25 5.25 15.125V14.375H10.5ZM2.55469 7.29688L2.92969 7.4375C2.97656 7.45312 3.02344 7.45312 3.07031 7.4375L3.44531 7.29688C3.71094 7.20312 3.92969 7.25781 4.10156 7.46094L4.35938 7.78906C4.39062 7.82031 4.42969 7.84375 4.47656 7.85938L4.875 7.90625C5.14062 7.95312 5.29688 8.10938 5.34375 8.375L5.41406 8.77344C5.41406 8.82031 5.4375 8.86719 5.48438 8.91406L5.78906 9.14844C5.99219 9.33594 6.05469 9.55469 5.97656 9.80469L5.8125 10.1797C5.79688 10.2266 5.79688 10.2734 5.8125 10.3203L5.95312 10.6953C6.04688 10.9453 5.99219 11.1641 5.78906 11.3516L5.46094 11.5859C5.42969 11.6172 5.40625 11.6641 5.39062 11.7266L5.34375 12.125C5.29688 12.3906 5.14062 12.5469 4.875 12.5938L4.5 12.6406V15.125C4.5 15.2656 4.4375 15.375 4.3125 15.4531C4.17188 15.5156 4.03906 15.5078 3.91406 15.4297L3 14.8203L2.08594 15.4297C1.96094 15.5078 1.83594 15.5156 1.71094 15.4531C1.57031 15.375 1.5 15.2656 1.5 15.125V12.6406L1.125 12.5938C0.859375 12.5469 0.703125 12.3906 0.65625 12.125L0.609375 11.7266C0.59375 11.6641 0.570312 11.6172 0.539062 11.5859L0.210938 11.3516C0.0078125 11.1641 -0.046875 10.9453 0.046875 10.6953L0.1875 10.3203C0.203125 10.2734 0.203125 10.2266 0.1875 10.1797L0.046875 9.80469C-0.046875 9.55469 0.0078125 9.33594 0.210938 9.14844L0.539062 8.91406C0.570312 8.88281 0.59375 8.83594 0.609375 8.77344L0.65625 8.375C0.703125 8.10938 0.867188 7.95312 1.14844 7.90625L1.52344 7.85938C1.58594 7.84375 1.63281 7.82031 1.66406 7.78906L1.89844 7.46094C2.08594 7.25781 2.30469 7.20312 2.55469 7.29688ZM1.5 10.25C1.51562 10.8125 1.76562 11.2422 2.25 11.5391C2.75 11.8203 3.25 11.8203 3.75 11.5391C4.23438 11.2422 4.48438 10.8125 4.5 10.25C4.48438 9.6875 4.23438 9.25781 3.75 8.96094C3.25 8.67969 2.75 8.67969 2.25 8.96094C1.76562 9.25781 1.51562 9.6875 1.5 10.25Z" fill="black" fill-opacity="0.72"/>
</g>
<defs>
<clipPath id="clip0_1731_1587">
<rect width="12" height="18" fill="white"/>
</clipPath>
</defs>
</svg>
