<svg width="24" height="36" viewBox="0 0 24 36" fill="none" xmlns="http://www.w3.org/2000/svg">
<g id="label-paired / xl / circle-six-xl / regular" clip-path="url(#clip0_1731_6101)">
<path id="icon" d="M12 7.5C10.0938 7.53125 8.34375 8 6.75 8.90625C5.15625 9.84375 3.875 11.125 2.90625 12.75C1.96875 14.4062 1.5 16.1562 1.5 18C1.5 19.8438 1.96875 21.5938 2.90625 23.25C3.875 24.875 5.15625 26.1562 6.75 27.0938C8.34375 28 10.0938 28.4688 12 28.5C13.9062 28.4688 15.6562 28 17.25 27.0938C18.8438 26.1562 20.125 24.875 21.0938 23.25C22.0312 21.5938 22.5 19.8438 22.5 18C22.5 16.1562 22.0312 14.4062 21.0938 12.75C20.125 11.125 18.8438 9.84375 17.25 8.90625C15.6562 8 13.9062 7.53125 12 7.5ZM12 30C9.8125 29.9688 7.8125 29.4375 6 28.4062C4.1875 27.3438 2.71875 25.875 1.59375 24C0.53125 22.0938 0 20.0938 0 18C0 15.9062 0.53125 13.9062 1.59375 12C2.71875 10.125 4.1875 8.65625 6 7.59375C7.8125 6.5625 9.8125 6.03125 12 6C14.1875 6.03125 16.1875 6.5625 18 7.59375C19.8125 8.65625 21.2812 10.125 22.4062 12C23.4688 13.9062 24 15.9062 24 18C24 20.0938 23.4688 22.0938 22.4062 24C21.2812 25.875 19.8125 27.3438 18 28.4062C16.1875 29.4375 14.1875 29.9688 12 30ZM14.0625 12.2344C14.3438 12.6094 14.3281 12.9688 14.0156 13.3125L12.1875 15C13.4062 15.0625 14.4219 15.5156 15.2344 16.3594C16.0469 17.2031 16.4688 18.25 16.5 19.5C16.4688 20.7812 16.0312 21.8438 15.1875 22.6875C14.3438 23.5312 13.2812 23.9688 12 24C10.7188 23.9688 9.65625 23.5312 8.8125 22.6875C7.96875 21.8438 7.53125 20.7812 7.5 19.5C7.53125 18.0312 8.0625 16.7969 9.09375 15.7969L12.9844 12.1875C13.3594 11.9062 13.7188 11.9219 14.0625 12.2344ZM12 16.5C10.875 16.5312 10.0156 17.0312 9.42188 18C8.85938 19 8.85938 20 9.42188 21C10.0156 21.9688 10.875 22.4688 12 22.5C13.125 22.4688 13.9844 21.9688 14.5781 21C15.1406 20 15.1406 19 14.5781 18C13.9844 17.0312 13.125 16.5312 12 16.5Z" fill="black" fill-opacity="0.72"/>
</g>
<defs>
<clipPath id="clip0_1731_6101">
<rect width="24" height="36" fill="white"/>
</clipPath>
</defs>
</svg>
