<svg width="14" height="24" viewBox="0 0 14 24" fill="none" xmlns="http://www.w3.org/2000/svg">
<g id="label-paired / md / grid-md / regular" clip-path="url(#clip0_1731_3160)">
<path id="icon" d="M2.75 6H1.25C1.10417 6.02083 1.02083 6.10417 1 6.25V7.75C1.02083 7.89583 1.10417 7.97917 1.25 8H2.75C2.89583 7.97917 2.97917 7.89583 3 7.75V6.25C2.97917 6.10417 2.89583 6.02083 2.75 6ZM1.25 5H2.75C3.10417 5 3.39583 5.125 3.625 5.375C3.875 5.60417 4 5.89583 4 6.25V7.75C4 8.10417 3.875 8.39583 3.625 8.625C3.39583 8.875 3.10417 9 2.75 9H1.25C0.895833 9 0.604167 8.875 0.375 8.625C0.125 8.39583 0 8.10417 0 7.75V6.25C0 5.89583 0.125 5.60417 0.375 5.375C0.604167 5.125 0.895833 5 1.25 5ZM2.75 11H1.25C1.10417 11.0208 1.02083 11.1042 1 11.25V12.75C1.02083 12.8958 1.10417 12.9792 1.25 13H2.75C2.89583 12.9792 2.97917 12.8958 3 12.75V11.25C2.97917 11.1042 2.89583 11.0208 2.75 11ZM1.25 10H2.75C3.10417 10 3.39583 10.125 3.625 10.375C3.875 10.6042 4 10.8958 4 11.25V12.75C4 13.1042 3.875 13.3958 3.625 13.625C3.39583 13.875 3.10417 14 2.75 14H1.25C0.895833 14 0.604167 13.875 0.375 13.625C0.125 13.3958 0 13.1042 0 12.75V11.25C0 10.8958 0.125 10.6042 0.375 10.375C0.604167 10.125 0.895833 10 1.25 10ZM1.25 16C1.10417 16.0208 1.02083 16.1042 1 16.25V17.75C1.02083 17.8958 1.10417 17.9792 1.25 18H2.75C2.89583 17.9792 2.97917 17.8958 3 17.75V16.25C2.97917 16.1042 2.89583 16.0208 2.75 16H1.25ZM0 16.25C0 15.8958 0.125 15.6042 0.375 15.375C0.604167 15.125 0.895833 15 1.25 15H2.75C3.10417 15 3.39583 15.125 3.625 15.375C3.875 15.6042 4 15.8958 4 16.25V17.75C4 18.1042 3.875 18.3958 3.625 18.625C3.39583 18.875 3.10417 19 2.75 19H1.25C0.895833 19 0.604167 18.875 0.375 18.625C0.125 18.3958 0 18.1042 0 17.75V16.25ZM7.75 6H6.25C6.10417 6.02083 6.02083 6.10417 6 6.25V7.75C6.02083 7.89583 6.10417 7.97917 6.25 8H7.75C7.89583 7.97917 7.97917 7.89583 8 7.75V6.25C7.97917 6.10417 7.89583 6.02083 7.75 6ZM6.25 5H7.75C8.10417 5 8.39583 5.125 8.625 5.375C8.875 5.60417 9 5.89583 9 6.25V7.75C9 8.10417 8.875 8.39583 8.625 8.625C8.39583 8.875 8.10417 9 7.75 9H6.25C5.89583 9 5.60417 8.875 5.375 8.625C5.125 8.39583 5 8.10417 5 7.75V6.25C5 5.89583 5.125 5.60417 5.375 5.375C5.60417 5.125 5.89583 5 6.25 5ZM6.25 11C6.10417 11.0208 6.02083 11.1042 6 11.25V12.75C6.02083 12.8958 6.10417 12.9792 6.25 13H7.75C7.89583 12.9792 7.97917 12.8958 8 12.75V11.25C7.97917 11.1042 7.89583 11.0208 7.75 11H6.25ZM5 11.25C5 10.8958 5.125 10.6042 5.375 10.375C5.60417 10.125 5.89583 10 6.25 10H7.75C8.10417 10 8.39583 10.125 8.625 10.375C8.875 10.6042 9 10.8958 9 11.25V12.75C9 13.1042 8.875 13.3958 8.625 13.625C8.39583 13.875 8.10417 14 7.75 14H6.25C5.89583 14 5.60417 13.875 5.375 13.625C5.125 13.3958 5 13.1042 5 12.75V11.25ZM7.75 16H6.25C6.10417 16.0208 6.02083 16.1042 6 16.25V17.75C6.02083 17.8958 6.10417 17.9792 6.25 18H7.75C7.89583 17.9792 7.97917 17.8958 8 17.75V16.25C7.97917 16.1042 7.89583 16.0208 7.75 16ZM6.25 15H7.75C8.10417 15 8.39583 15.125 8.625 15.375C8.875 15.6042 9 15.8958 9 16.25V17.75C9 18.1042 8.875 18.3958 8.625 18.625C8.39583 18.875 8.10417 19 7.75 19H6.25C5.89583 19 5.60417 18.875 5.375 18.625C5.125 18.3958 5 18.1042 5 17.75V16.25C5 15.8958 5.125 15.6042 5.375 15.375C5.60417 15.125 5.89583 15 6.25 15ZM11.25 6C11.1042 6.02083 11.0208 6.10417 11 6.25V7.75C11.0208 7.89583 11.1042 7.97917 11.25 8H12.75C12.8958 7.97917 12.9792 7.89583 13 7.75V6.25C12.9792 6.10417 12.8958 6.02083 12.75 6H11.25ZM10 6.25C10 5.89583 10.125 5.60417 10.375 5.375C10.6042 5.125 10.8958 5 11.25 5H12.75C13.1042 5 13.3958 5.125 13.625 5.375C13.875 5.60417 14 5.89583 14 6.25V7.75C14 8.10417 13.875 8.39583 13.625 8.625C13.3958 8.875 13.1042 9 12.75 9H11.25C10.8958 9 10.6042 8.875 10.375 8.625C10.125 8.39583 10 8.10417 10 7.75V6.25ZM12.75 11H11.25C11.1042 11.0208 11.0208 11.1042 11 11.25V12.75C11.0208 12.8958 11.1042 12.9792 11.25 13H12.75C12.8958 12.9792 12.9792 12.8958 13 12.75V11.25C12.9792 11.1042 12.8958 11.0208 12.75 11ZM11.25 10H12.75C13.1042 10 13.3958 10.125 13.625 10.375C13.875 10.6042 14 10.8958 14 11.25V12.75C14 13.1042 13.875 13.3958 13.625 13.625C13.3958 13.875 13.1042 14 12.75 14H11.25C10.8958 14 10.6042 13.875 10.375 13.625C10.125 13.3958 10 13.1042 10 12.75V11.25C10 10.8958 10.125 10.6042 10.375 10.375C10.6042 10.125 10.8958 10 11.25 10ZM11.25 16C11.1042 16.0208 11.0208 16.1042 11 16.25V17.75C11.0208 17.8958 11.1042 17.9792 11.25 18H12.75C12.8958 17.9792 12.9792 17.8958 13 17.75V16.25C12.9792 16.1042 12.8958 16.0208 12.75 16H11.25ZM10 16.25C10 15.8958 10.125 15.6042 10.375 15.375C10.6042 15.125 10.8958 15 11.25 15H12.75C13.1042 15 13.3958 15.125 13.625 15.375C13.875 15.6042 14 15.8958 14 16.25V17.75C14 18.1042 13.875 18.3958 13.625 18.625C13.3958 18.875 13.1042 19 12.75 19H11.25C10.8958 19 10.6042 18.875 10.375 18.625C10.125 18.3958 10 18.1042 10 17.75V16.25Z" fill="black" fill-opacity="0.72"/>
</g>
<defs>
<clipPath id="clip0_1731_3160">
<rect width="14" height="24" fill="white"/>
</clipPath>
</defs>
</svg>
