<svg width="16" height="24" viewBox="0 0 16 24" fill="none" xmlns="http://www.w3.org/2000/svg">
<g id="label-paired / md / envelope-md / regular" clip-path="url(#clip0_1731_3814)">
<path id="icon" d="M2 7C1.70833 7 1.46875 7.09375 1.28125 7.28125C1.09375 7.46875 1 7.70833 1 8V9.25L7.125 13.7188C7.70833 14.1146 8.29167 14.1146 8.875 13.7188L15 9.25V8C15 7.70833 14.9062 7.46875 14.7188 7.28125C14.5312 7.09375 14.2917 7 14 7H2ZM1 10.5V16C1 16.2917 1.09375 16.5312 1.28125 16.7188C1.46875 16.9062 1.70833 17 2 17H14C14.2917 17 14.5312 16.9062 14.7188 16.7188C14.9062 16.5312 15 16.2917 15 16V10.5L9.46875 14.5312C9.03125 14.8646 8.54167 15.0312 8 15.0312C7.45833 15.0312 6.96875 14.8646 6.53125 14.5312L1 10.5ZM0 8C0.0208333 7.4375 0.21875 6.96875 0.59375 6.59375C0.96875 6.21875 1.4375 6.02083 2 6H14C14.5625 6.02083 15.0312 6.21875 15.4062 6.59375C15.7812 6.96875 15.9792 7.4375 16 8V16C15.9792 16.5625 15.7812 17.0312 15.4062 17.4062C15.0312 17.7812 14.5625 17.9792 14 18H2C1.4375 17.9792 0.96875 17.7812 0.59375 17.4062C0.21875 17.0312 0.0208333 16.5625 0 16V8Z" fill="black" fill-opacity="0.72"/>
</g>
<defs>
<clipPath id="clip0_1731_3814">
<rect width="16" height="24" fill="white"/>
</clipPath>
</defs>
</svg>
