<svg width="30" height="36" viewBox="0 0 30 36" fill="none" xmlns="http://www.w3.org/2000/svg">
<g id="label-paired / xl / laptop-xl / bold" clip-path="url(#clip0_1731_6418)">
<path id="icon" d="M24 9.75H6C5.53125 9.78125 5.28125 10.0312 5.25 10.5V21H3V10.5C3.03125 9.65625 3.32812 8.95312 3.89062 8.39062C4.45312 7.82812 5.15625 7.53125 6 7.5H24C24.8438 7.53125 25.5469 7.82812 26.1094 8.39062C26.6719 8.95312 26.9688 9.65625 27 10.5V21H24.75V10.5C24.7188 10.0312 24.4688 9.78125 24 9.75ZM4.5 26.25H25.5C26.5312 26.1875 27.2344 25.6875 27.6094 24.75H2.39062C2.76562 25.6875 3.46875 26.1875 4.5 26.25ZM0 24C0 23.5625 0.140625 23.2031 0.421875 22.9219C0.703125 22.6406 1.0625 22.5 1.5 22.5H28.5C28.9375 22.5 29.2969 22.6406 29.5781 22.9219C29.8594 23.2031 30 23.5625 30 24C29.9688 25.2812 29.5312 26.3438 28.6875 27.1875C27.8438 28.0312 26.7812 28.4688 25.5 28.5H4.5C3.21875 28.4688 2.15625 28.0312 1.3125 27.1875C0.46875 26.3438 0.03125 25.2812 0 24Z" fill="black" fill-opacity="0.72"/>
</g>
<defs>
<clipPath id="clip0_1731_6418">
<rect width="30" height="36" fill="white"/>
</clipPath>
</defs>
</svg>
