<svg width="12" height="24" viewBox="0 0 12 24" fill="none" xmlns="http://www.w3.org/2000/svg">
<g id="label-paired / md / arrow-down-to-line-md / bold" clip-path="url(#clip0_1731_3437)">
<path id="icon" d="M11.25 19H0.75C0.291667 18.9583 0.0416667 18.7083 0 18.25C0.0416667 17.7917 0.291667 17.5417 0.75 17.5H11.25C11.7083 17.5417 11.9583 17.7917 12 18.25C11.9583 18.7083 11.7083 18.9583 11.25 19ZM5.46875 14.75V14.7812L1.46875 10.5312C1.17708 10.1562 1.1875 9.80208 1.5 9.46875C1.85417 9.17708 2.20833 9.1875 2.5625 9.5L5.25 12.375V9.75V5.75C5.29167 5.29167 5.54167 5.04167 6 5C6.45833 5.04167 6.70833 5.29167 6.75 5.75V9.75V12.375L9.46875 9.5C9.80208 9.1875 10.1562 9.17708 10.5312 9.46875C10.8229 9.80208 10.8333 10.1458 10.5625 10.5L6.5625 14.75C6.39583 14.9167 6.20833 15 6 15C5.79167 15 5.61458 14.9167 5.46875 14.75Z" fill="black" fill-opacity="0.72"/>
</g>
<defs>
<clipPath id="clip0_1731_3437">
<rect width="12" height="24" fill="white"/>
</clipPath>
</defs>
</svg>
