<svg width="14" height="22" viewBox="0 0 14 22" fill="none" xmlns="http://www.w3.org/2000/svg">
<g id="label-paired / sm / table-layout-sm / bold" clip-path="url(#clip0_1731_2746)">
<path id="icon" d="M12.25 5.9375H1.75C1.47656 5.95573 1.33073 6.10156 1.3125 6.375V8.125H12.6875V6.375C12.6693 6.10156 12.5234 5.95573 12.25 5.9375ZM1.3125 15.125C1.33073 15.3984 1.47656 15.5443 1.75 15.5625H3.9375V9.4375H1.3125V15.125ZM5.25 15.5625H12.25C12.5234 15.5443 12.6693 15.3984 12.6875 15.125V9.4375H5.25V15.5625ZM1.75 4.625H12.25C12.7422 4.64323 13.1523 4.81641 13.4805 5.14453C13.8086 5.47266 13.9818 5.88281 14 6.375V15.125C13.9818 15.6172 13.8086 16.0273 13.4805 16.3555C13.1523 16.6836 12.7422 16.8568 12.25 16.875H1.75C1.25781 16.8568 0.847656 16.6836 0.519531 16.3555C0.191406 16.0273 0.0182292 15.6172 0 15.125V6.375C0.0182292 5.88281 0.191406 5.47266 0.519531 5.14453C0.847656 4.81641 1.25781 4.64323 1.75 4.625Z" fill="black" fill-opacity="0.72"/>
</g>
<defs>
<clipPath id="clip0_1731_2746">
<rect width="14" height="22" fill="white"/>
</clipPath>
</defs>
</svg>
