<svg width="12" height="18" viewBox="0 0 12 18" fill="none" xmlns="http://www.w3.org/2000/svg">
<g id="label-paired / caption / location-crosshairs-caption / bold" clip-path="url(#clip0_1731_1417)">
<path id="icon" d="M6 3.5C6.34375 3.53125 6.53125 3.71875 6.5625 4.0625V5.04688C7.59375 5.1875 8.46875 5.60938 9.1875 6.3125C9.89062 7.03125 10.3203 7.90625 10.4766 8.9375H11.4375C11.7812 8.96875 11.9688 9.15625 12 9.5C11.9688 9.84375 11.7812 10.0312 11.4375 10.0625H10.4766C10.3203 11.0938 9.89062 11.9688 9.1875 12.6875C8.46875 13.3906 7.59375 13.8203 6.5625 13.9766V14.9375C6.53125 15.2812 6.34375 15.4688 6 15.5C5.65625 15.4688 5.46875 15.2812 5.4375 14.9375V13.9766C4.40625 13.8203 3.53125 13.3906 2.8125 12.6875C2.10938 11.9688 1.6875 11.0938 1.54688 10.0625H0.5625C0.21875 10.0312 0.03125 9.84375 0 9.5C0.03125 9.15625 0.21875 8.96875 0.5625 8.9375H1.54688C1.6875 7.90625 2.10938 7.03125 2.8125 6.3125C3.53125 5.60938 4.40625 5.1875 5.4375 5.04688V4.0625C5.46875 3.71875 5.65625 3.53125 6 3.5ZM2.625 9.5C2.625 10.1094 2.77344 10.6719 3.07031 11.1875C3.36719 11.7031 3.78125 12.1172 4.3125 12.4297C4.84375 12.7266 5.40625 12.875 6 12.875C6.59375 12.875 7.15625 12.7266 7.6875 12.4297C8.21875 12.1172 8.63281 11.7031 8.92969 11.1875C9.22656 10.6719 9.375 10.1094 9.375 9.5C9.375 8.89062 9.22656 8.32812 8.92969 7.8125C8.63281 7.29688 8.21875 6.88281 7.6875 6.57031C7.15625 6.27344 6.59375 6.125 6 6.125C5.40625 6.125 4.84375 6.27344 4.3125 6.57031C3.78125 6.88281 3.36719 7.29688 3.07031 7.8125C2.77344 8.32812 2.625 8.89062 2.625 9.5ZM7.125 9.5C7.10938 9.07812 6.92188 8.75 6.5625 8.51562C6.1875 8.32812 5.8125 8.32812 5.4375 8.51562C5.07812 8.75 4.89062 9.07812 4.875 9.5C4.89062 9.92188 5.07812 10.25 5.4375 10.4844C5.8125 10.6719 6.1875 10.6719 6.5625 10.4844C6.92188 10.25 7.10938 9.92188 7.125 9.5ZM3.75 9.5C3.75 9.09375 3.85156 8.71875 4.05469 8.375C4.25781 8.03125 4.53125 7.75781 4.875 7.55469C5.23438 7.35156 5.60938 7.25 6 7.25C6.39062 7.25 6.76562 7.35156 7.125 7.55469C7.46875 7.75781 7.74219 8.03125 7.94531 8.375C8.14844 8.71875 8.25 9.09375 8.25 9.5C8.25 9.90625 8.14844 10.2812 7.94531 10.625C7.74219 10.9688 7.46875 11.2422 7.125 11.4453C6.76562 11.6484 6.39062 11.75 6 11.75C5.60938 11.75 5.23438 11.6484 4.875 11.4453C4.53125 11.2422 4.25781 10.9688 4.05469 10.625C3.85156 10.2812 3.75 9.90625 3.75 9.5Z" fill="black" fill-opacity="0.72"/>
</g>
<defs>
<clipPath id="clip0_1731_1417">
<rect width="12" height="18" fill="white"/>
</clipPath>
</defs>
</svg>
