<svg width="20" height="24" viewBox="0 0 20 24" fill="none" xmlns="http://www.w3.org/2000/svg">
<g id="label-paired / md / wallet-circle-minus-md / regular" clip-path="url(#clip0_1731_4188)">
<path id="icon" d="M0 7.5C0 6.125 1.09375 5 2.5 5C6.5 5 10.5 5 14.5 5C14.75 5 15 5.25 15 5.5C15 5.78125 14.75 6 14.5 6C10.5 6 6.5 6 2.5 6C1.65625 6 1 6.6875 1 7.5C1 10.5 1 13.5 1 16.5C1 17.3438 1.65625 18 2.5 18C5.1875 18 7.875 18 10.5938 18C10.7812 18.375 11 18.7188 11.25 19C8.3125 19 5.40625 19 2.5 19C1.09375 19 0 17.9062 0 16.5C0 13.5 0 10.5 0 7.5ZM3 7.5C3 7.25 3.21875 7 3.5 7C6.8125 7 10.1562 7 13.5 7C14.875 7 16 8.125 16 9.5C16 9.6875 16 9.875 16 10.0312C15.8125 10.0312 15.6562 10 15.5 10C15.3125 10 15.1562 10.0312 15 10.0312C15 9.875 15 9.6875 15 9.5C15 8.6875 14.3125 8 13.5 8C10.1562 8 6.8125 8 3.5 8C3.21875 8 3 7.78125 3 7.5ZM11 15.5C11 13.0312 13 11 15.5 11C17.9688 11 20 13.0312 20 15.5C20 18 17.9688 20 15.5 20C13 20 11 18 11 15.5ZM12 15.5C12 17.4375 13.5625 19 15.5 19C17.4062 19 19 17.4375 19 15.5C19 13.5938 17.4062 12 15.5 12C13.5625 12 12 13.5938 12 15.5ZM13 15.5C13 15.25 13.2188 15 13.5 15C14.8125 15 16.1562 15 17.5 15C17.75 15 18 15.25 18 15.5C18 15.7812 17.75 16 17.5 16C16.1562 16 14.8125 16 13.5 16C13.2188 16 13 15.7812 13 15.5Z" fill="black" fill-opacity="0.72"/>
</g>
<defs>
<clipPath id="clip0_1731_4188">
<rect width="20" height="24" fill="white"/>
</clipPath>
</defs>
</svg>
