<svg width="9" height="18" viewBox="0 0 9 18" fill="none" xmlns="http://www.w3.org/2000/svg">
<g id="label-paired / caption / xmark-caption / regular" clip-path="url(#clip0_1731_539)">
<path id="icon" d="M7.61719 13.1328L4.5 10.0391L1.40625 13.1328C1.21875 13.2734 1.03906 13.2734 0.867188 13.1328C0.726562 12.9609 0.726562 12.7891 0.867188 12.6172L3.96094 9.5L0.867188 6.40625C0.726562 6.21875 0.726562 6.03906 0.867188 5.86719C1.03906 5.72656 1.21875 5.72656 1.40625 5.86719L4.5 8.96094L7.61719 5.86719C7.78906 5.72656 7.96094 5.72656 8.13281 5.86719C8.27344 6.03906 8.27344 6.21875 8.13281 6.40625L5.03906 9.5L8.13281 12.6172C8.27344 12.7891 8.27344 12.9609 8.13281 13.1328C7.96094 13.2734 7.78906 13.2734 7.61719 13.1328Z" fill="black" fill-opacity="0.72"/>
</g>
<defs>
<clipPath id="clip0_1731_539">
<rect width="9" height="18" fill="white"/>
</clipPath>
</defs>
</svg>
