<svg width="11" height="22" viewBox="0 0 11 22" fill="none" xmlns="http://www.w3.org/2000/svg">
<g id="label-paired / sm / arrow-up-to-line-sm / bold" clip-path="url(#clip0_1731_2169)">
<path id="icon" d="M0.90625 4.625H10.0938C10.4948 4.66146 10.7135 4.88021 10.75 5.28125C10.7135 5.68229 10.4948 5.90104 10.0938 5.9375H0.90625C0.505208 5.90104 0.286458 5.68229 0.25 5.28125C0.286458 4.88021 0.505208 4.66146 0.90625 4.625ZM5.99219 8.34375H5.96484L9.46484 12.0625C9.72005 12.3724 9.71094 12.6732 9.4375 12.9648C9.1276 13.2201 8.82682 13.2109 8.53516 12.9375L6.15625 10.4492V12.7188V16.2188C6.11979 16.6198 5.90104 16.8385 5.5 16.875C5.09896 16.8385 4.88021 16.6198 4.84375 16.2188V12.7188V10.4492L2.46484 12.9648C2.17318 13.2201 1.8724 13.2292 1.5625 12.9922C1.28906 12.6823 1.27995 12.3724 1.53516 12.0625L5.03516 8.34375C5.16276 8.19792 5.31771 8.125 5.5 8.125C5.68229 8.125 5.84635 8.19792 5.99219 8.34375Z" fill="black" fill-opacity="0.72"/>
</g>
<defs>
<clipPath id="clip0_1731_2169">
<rect width="11" height="22" fill="white"/>
</clipPath>
</defs>
</svg>
