<svg width="27" height="36" viewBox="0 0 27 36" fill="none" xmlns="http://www.w3.org/2000/svg">
<g id="label-paired / xl / rectangle-ad-xl / regular" clip-path="url(#clip0_1731_6375)">
<path id="icon" d="M3 9C2.5625 9 2.20312 9.14062 1.92188 9.42188C1.64062 9.70312 1.5 10.0625 1.5 10.5V25.5C1.5 25.9375 1.64062 26.2969 1.92188 26.5781C2.20312 26.8594 2.5625 27 3 27H24C24.4375 27 24.7969 26.8594 25.0781 26.5781C25.3594 26.2969 25.5 25.9375 25.5 25.5V10.5C25.5 10.0625 25.3594 9.70312 25.0781 9.42188C24.7969 9.14062 24.4375 9 24 9H3ZM0 10.5C0.03125 9.65625 0.328125 8.95312 0.890625 8.39062C1.45312 7.82812 2.15625 7.53125 3 7.5H24C24.8438 7.53125 25.5469 7.82812 26.1094 8.39062C26.6719 8.95312 26.9688 9.65625 27 10.5V25.5C26.9688 26.3438 26.6719 27.0469 26.1094 27.6094C25.5469 28.1719 24.8438 28.4688 24 28.5H3C2.15625 28.4688 1.45312 28.1719 0.890625 27.6094C0.328125 27.0469 0.03125 26.3438 0 25.5V10.5ZM10.0781 13.9219L13.4531 21.4219C13.5781 21.8594 13.4531 22.2031 13.0781 22.4531C12.6406 22.5781 12.2969 22.4531 12.0469 22.0781L11.5781 21H7.17188L6.70312 22.0781C6.45312 22.4531 6.10938 22.5781 5.67188 22.4531C5.26562 22.2031 5.14062 21.8594 5.29688 21.4219L8.67188 13.9219C8.82812 13.6406 9.0625 13.5 9.375 13.5C9.6875 13.5 9.92188 13.6406 10.0781 13.9219ZM9.375 16.0781L7.82812 19.5H10.9219L9.375 16.0781ZM17.625 17.25C16.9062 17.2812 16.3594 17.5938 15.9844 18.1875C15.6719 18.8125 15.6719 19.4375 15.9844 20.0625C16.3594 20.6562 16.9062 20.9688 17.625 21C18.3438 20.9688 18.8906 20.6562 19.2656 20.0625C19.5781 19.4375 19.5781 18.8125 19.2656 18.1875C18.8906 17.5938 18.3438 17.2812 17.625 17.25ZM19.5 16.3125V14.25C19.5312 13.7812 19.7812 13.5312 20.25 13.5C20.7188 13.5312 20.9688 13.7812 21 14.25V19.125V21.75C20.9688 22.2188 20.7188 22.4688 20.25 22.5C19.875 22.4688 19.625 22.2812 19.5 21.9375C18.9688 22.3125 18.3438 22.5 17.625 22.5C16.6562 22.4688 15.8594 22.1406 15.2344 21.5156C14.6094 20.8906 14.2812 20.0938 14.25 19.125C14.2812 18.1562 14.6094 17.3594 15.2344 16.7344C15.8594 16.1094 16.6562 15.7812 17.625 15.75C18.3438 15.75 18.9688 15.9375 19.5 16.3125Z" fill="black" fill-opacity="0.72"/>
</g>
<defs>
<clipPath id="clip0_1731_6375">
<rect width="27" height="36" fill="white"/>
</clipPath>
</defs>
</svg>
