<svg width="23" height="30" viewBox="0 0 23 30" fill="none" xmlns="http://www.w3.org/2000/svg">
<g id="label-paired / lg / star-lg / bold" clip-path="url(#clip0_1731_5546)">
<path id="icon" d="M11.5 5.5C11.8906 5.52604 12.1771 5.70833 12.3594 6.04688L15.0156 11.5547L20.9922 12.4141C21.3828 12.4922 21.6432 12.7135 21.7734 13.0781C21.8776 13.4427 21.7995 13.7552 21.5391 14.0156L17.2031 18.3125L18.2188 24.4062C18.2708 24.7708 18.1406 25.0833 17.8281 25.3438C17.5156 25.5521 17.1901 25.5651 16.8516 25.3828L11.5 22.5312L6.14844 25.3828C5.8099 25.5651 5.48438 25.5391 5.17188 25.3047C4.85938 25.0703 4.72917 24.7708 4.78125 24.4062L5.79688 18.3125L1.46094 14.0156C1.20052 13.7552 1.1224 13.4427 1.22656 13.0781C1.35677 12.7135 1.61719 12.4922 2.00781 12.4141L7.98438 11.5547L10.6406 6.04688C10.8229 5.70833 11.1094 5.52604 11.5 5.5ZM11.5 8.58594L9.42969 12.8047C9.29948 13.0911 9.0651 13.2734 8.72656 13.3516L4.11719 14.0156L7.47656 17.3359C7.6849 17.5703 7.77604 17.8438 7.75 18.1562L6.92969 22.8438L11.0703 20.6562C11.3568 20.5 11.6432 20.5 11.9297 20.6562L16.0312 22.8438L15.25 18.1562C15.1979 17.8438 15.2891 17.5703 15.5234 17.3359L18.8828 14.0156L14.2734 13.3516C13.9349 13.2734 13.7005 13.0911 13.5703 12.8047L11.5 8.58594Z" fill="black" fill-opacity="0.72"/>
</g>
<defs>
<clipPath id="clip0_1731_5546">
<rect width="23" height="30" fill="white"/>
</clipPath>
</defs>
</svg>
