<svg width="23" height="30" viewBox="0 0 23 30" fill="none" xmlns="http://www.w3.org/2000/svg">
<g id="label-paired / lg / arrow-up-arrow-down-lg / bold" clip-path="url(#clip0_1731_4601)">
<path id="icon" d="M20.9141 20.2266L17.1641 23.9766C16.7214 24.3411 16.2786 24.3411 15.8359 23.9766L12.0859 20.2266C11.7214 19.7839 11.7214 19.3411 12.0859 18.8984C12.5286 18.5339 12.9714 18.5339 13.4141 18.8984L15.5625 21.0469V7.6875C15.6146 7.11458 15.9271 6.80208 16.5 6.75C17.0729 6.80208 17.3854 7.11458 17.4375 7.6875V21.0469L19.5859 18.8984C20.0286 18.5339 20.4714 18.5339 20.9141 18.8984C21.2786 19.3411 21.2786 19.7839 20.9141 20.2266ZM7.16406 7.02344L10.9141 10.7734C11.2786 11.2161 11.2786 11.6589 10.9141 12.1016C10.4714 12.4661 10.0286 12.4661 9.58594 12.1016L7.4375 9.95312V23.3125C7.38542 23.8854 7.07292 24.1979 6.5 24.25C5.92708 24.1979 5.61458 23.8854 5.5625 23.3125V9.95312L3.41406 12.1016C2.97135 12.4661 2.52865 12.4661 2.08594 12.1016C1.72135 11.6589 1.72135 11.2161 2.08594 10.7734L5.83594 7.02344C6.27865 6.65885 6.72135 6.65885 7.16406 7.02344Z" fill="black" fill-opacity="0.72"/>
</g>
<defs>
<clipPath id="clip0_1731_4601">
<rect width="23" height="30" fill="white"/>
</clipPath>
</defs>
</svg>
