<svg width="20" height="30" viewBox="0 0 20 30" fill="none" xmlns="http://www.w3.org/2000/svg">
<g id="label-paired / lg / paste-lg / regular" clip-path="url(#clip0_1731_4909)">
<path id="icon" d="M6.25 6.75C5.75521 6.77604 5.45573 7.02344 5.35156 7.49219C5.2474 7.80469 5.03906 7.97396 4.72656 8H4.375C3.98438 8.02604 3.77604 8.23438 3.75 8.625V9.25H8.75V8.625C8.72396 8.23438 8.51562 8.02604 8.125 8H7.77344C7.46094 7.97396 7.26562 7.80469 7.1875 7.49219C7.05729 7.02344 6.74479 6.77604 6.25 6.75ZM2.5 8C2.13542 8 1.83594 8.11719 1.60156 8.35156C1.36719 8.58594 1.25 8.88542 1.25 9.25V20.5C1.25 20.8646 1.36719 21.1641 1.60156 21.3984C1.83594 21.6328 2.13542 21.75 2.5 21.75H7.5V23H2.5C1.79688 22.974 1.21094 22.7266 0.742188 22.2578C0.273438 21.7891 0.0260417 21.2031 0 20.5V9.25C0.0260417 8.54688 0.273438 7.96094 0.742188 7.49219C1.21094 7.02344 1.79688 6.77604 2.5 6.75H4.25781C4.67448 5.96875 5.33854 5.55208 6.25 5.5C7.16146 5.55208 7.82552 5.96875 8.24219 6.75H10C10.7031 6.77604 11.2891 7.02344 11.7578 7.49219C12.2266 7.96094 12.474 8.54688 12.5 9.25H11.25C11.25 8.88542 11.1328 8.58594 10.8984 8.35156C10.6641 8.11719 10.3646 8 10 8H9.88281C9.96094 8.20833 10 8.41667 10 8.625V9.25C10 9.61458 9.88281 9.91406 9.64844 10.1484C9.41406 10.3828 9.11458 10.5 8.75 10.5H3.75C3.38542 10.5 3.08594 10.3828 2.85156 10.1484C2.61719 9.91406 2.5 9.61458 2.5 9.25V8.625C2.5 8.41667 2.53906 8.20833 2.61719 8H2.5ZM11.25 24.25H17.5C17.8646 24.25 18.1641 24.1328 18.3984 23.8984C18.6328 23.6641 18.75 23.3646 18.75 23V15.5H16.5625C16.1198 15.5 15.7552 15.3438 15.4688 15.0312C15.1562 14.7448 15 14.3802 15 13.9375V11.75H11.25C10.8854 11.75 10.5859 11.8672 10.3516 12.1016C10.1172 12.3359 10 12.6354 10 13V23C10 23.3646 10.1172 23.6641 10.3516 23.8984C10.5859 24.1328 10.8854 24.25 11.25 24.25ZM16.25 11.9453V13.9375C16.276 14.1198 16.3802 14.224 16.5625 14.25H18.5547L16.25 11.9453ZM17.5 25.5H11.25C10.5469 25.474 9.96094 25.2266 9.49219 24.7578C9.02344 24.2891 8.77604 23.7031 8.75 23V13C8.77604 12.2969 9.02344 11.7109 9.49219 11.2422C9.96094 10.7734 10.5469 10.526 11.25 10.5H15.7812C16.3021 10.5 16.7448 10.6823 17.1094 11.0469L19.4531 13.3906C19.8177 13.7552 20 14.1979 20 14.7188V23C19.974 23.7031 19.7266 24.2891 19.2578 24.7578C18.7891 25.2266 18.2031 25.474 17.5 25.5Z" fill="black" fill-opacity="0.72"/>
</g>
<defs>
<clipPath id="clip0_1731_4909">
<rect width="20" height="30" fill="white"/>
</clipPath>
</defs>
</svg>
