<svg width="21" height="36" viewBox="0 0 21 36" fill="none" xmlns="http://www.w3.org/2000/svg">
<g id="label-paired / xl / image-polaroid-user-xl / regular" clip-path="url(#clip0_1731_6811)">
<path id="icon" d="M15.75 24H14.25H6.75H5.25H1.5V25.5C1.5 25.9375 1.64062 26.2969 1.92188 26.5781C2.20312 26.8594 2.5625 27 3 27H18C18.4375 27 18.7969 26.8594 19.0781 26.5781C19.3594 26.2969 19.5 25.9375 19.5 25.5V24H15.75ZM15.6562 22.5H19.5V10.5C19.5 10.0625 19.3594 9.70312 19.0781 9.42188C18.7969 9.14062 18.4375 9 18 9H3C2.5625 9 2.20312 9.14062 1.92188 9.42188C1.64062 9.70312 1.5 10.0625 1.5 10.5V22.5H5.34375C5.53125 21.625 5.95312 20.9062 6.60938 20.3438C7.26562 19.8125 8.0625 19.5312 9 19.5H10.5H12C12.9375 19.5312 13.7344 19.8125 14.3906 20.3438C15.0469 20.9062 15.4688 21.625 15.6562 22.5ZM6.89062 22.5H14.1094C13.7344 21.5625 13.0312 21.0625 12 21H9C7.96875 21.0625 7.26562 21.5625 6.89062 22.5ZM21 10.5V22.5V23.25V24V25.5C20.9688 26.3438 20.6719 27.0469 20.1094 27.6094C19.5469 28.1719 18.8438 28.4688 18 28.5H3C2.15625 28.4688 1.45312 28.1719 0.890625 27.6094C0.328125 27.0469 0.03125 26.3438 0 25.5V24V23.25V22.5V10.5C0.03125 9.65625 0.328125 8.95312 0.890625 8.39062C1.45312 7.82812 2.15625 7.53125 3 7.5H18C18.8438 7.53125 19.5469 7.82812 20.1094 8.39062C20.6719 8.95312 20.9688 9.65625 21 10.5ZM12 15C12 14.5625 11.8594 14.2031 11.5781 13.9219C11.2969 13.6406 10.9375 13.5 10.5 13.5C10.0625 13.5 9.70312 13.6406 9.42188 13.9219C9.14062 14.2031 9 14.5625 9 15C9 15.4375 9.14062 15.7969 9.42188 16.0781C9.70312 16.3594 10.0625 16.5 10.5 16.5C10.9375 16.5 11.2969 16.3594 11.5781 16.0781C11.8594 15.7969 12 15.4375 12 15ZM10.5 12C11.625 12.0312 12.4844 12.5312 13.0781 13.5C13.6406 14.5 13.6406 15.5 13.0781 16.5C12.4844 17.4688 11.625 17.9688 10.5 18C9.375 17.9688 8.51562 17.4688 7.92188 16.5C7.35938 15.5 7.35938 14.5 7.92188 13.5C8.51562 12.5312 9.375 12.0312 10.5 12Z" fill="black" fill-opacity="0.72"/>
</g>
<defs>
<clipPath id="clip0_1731_6811">
<rect width="21" height="36" fill="white"/>
</clipPath>
</defs>
</svg>
