<svg width="13" height="30" viewBox="0 0 13 30" fill="none" xmlns="http://www.w3.org/2000/svg">
<g id="label-paired / lg / caret-down-lg / regular" clip-path="url(#clip0_1731_5124)">
<path id="icon" d="M6.73438 19.1719L11.4219 14.7188C11.474 14.6667 11.5 14.6016 11.5 14.5234C11.474 14.3672 11.3828 14.276 11.2266 14.25H1.77344C1.61719 14.276 1.52604 14.3672 1.5 14.5234C1.5 14.6016 1.52604 14.6667 1.57812 14.7188L6.26562 19.1719C6.34375 19.224 6.42188 19.25 6.5 19.25C6.57812 19.25 6.65625 19.224 6.73438 19.1719ZM7.59375 20.0703C7.28125 20.3568 6.91667 20.5 6.5 20.5C6.08333 20.5 5.71875 20.3568 5.40625 20.0703L0.71875 15.6562C0.40625 15.3438 0.25 14.9661 0.25 14.5234C0.25 14.0807 0.393229 13.7161 0.679688 13.4297C0.966146 13.1432 1.33073 13 1.77344 13H11.2266C11.6693 13.026 12.0339 13.1823 12.3203 13.4688C12.6068 13.7552 12.75 14.1068 12.75 14.5234C12.75 14.9661 12.5938 15.3438 12.2812 15.6562L7.59375 20.0703Z" fill="black" fill-opacity="0.72"/>
</g>
<defs>
<clipPath id="clip0_1731_5124">
<rect width="13" height="30" fill="white"/>
</clipPath>
</defs>
</svg>
