<svg width="16" height="24" viewBox="0 0 16 24" fill="none" xmlns="http://www.w3.org/2000/svg">
<g id="label-paired / md / circle-user-md / regular" clip-path="url(#clip0_1731_4264)">
<path id="icon" d="M12.875 17.0312C13.5417 16.3854 14.0625 15.6354 14.4375 14.7812C14.8125 13.9271 15 13 15 12C14.9792 10.6875 14.6562 9.51042 14.0312 8.46875C13.4271 7.40625 12.5938 6.57292 11.5312 5.96875C10.4896 5.34375 9.3125 5.02083 8 5C6.6875 5.02083 5.51042 5.34375 4.46875 5.96875C3.40625 6.57292 2.57292 7.40625 1.96875 8.46875C1.34375 9.51042 1.02083 10.6875 1 12C1 13 1.1875 13.9271 1.5625 14.7812C1.9375 15.6354 2.45833 16.3854 3.125 17.0312C3.35417 16.1354 3.82292 15.4062 4.53125 14.8438C5.21875 14.3021 6.04167 14.0208 7 14H9C9.95833 14.0208 10.7812 14.3021 11.4688 14.8438C12.1771 15.4062 12.6458 16.1354 12.875 17.0312ZM12 17.75C11.9167 16.9583 11.5938 16.3125 11.0312 15.8125C10.4896 15.2917 9.8125 15.0208 9 15H7C6.1875 15.0208 5.51042 15.2917 4.96875 15.8125C4.40625 16.3125 4.08333 16.9583 4 17.75C5.16667 18.5625 6.5 18.9792 8 19C9.5 18.9792 10.8333 18.5625 12 17.75ZM8 20C6.54167 19.9792 5.20833 19.625 4 18.9375C2.79167 18.2292 1.8125 17.25 1.0625 16C0.354167 14.7292 0 13.3958 0 12C0 10.6042 0.354167 9.27083 1.0625 8C1.8125 6.75 2.79167 5.77083 4 5.0625C5.20833 4.375 6.54167 4.02083 8 4C9.45833 4.02083 10.7917 4.375 12 5.0625C13.2083 5.77083 14.1875 6.75 14.9375 8C15.6458 9.27083 16 10.6042 16 12C16 13.3958 15.6458 14.7292 14.9375 16C14.1875 17.25 13.2083 18.2292 12 18.9375C10.7917 19.625 9.45833 19.9792 8 20ZM8 12C8.5625 11.9792 9 11.7292 9.3125 11.25C9.5625 10.75 9.5625 10.25 9.3125 9.75C9 9.27083 8.5625 9.02083 8 9C7.4375 9.02083 7 9.27083 6.6875 9.75C6.4375 10.25 6.4375 10.75 6.6875 11.25C7 11.7292 7.4375 11.9792 8 12ZM5.5 10.5C5.52083 9.5625 5.9375 8.84375 6.75 8.34375C7.58333 7.88542 8.41667 7.88542 9.25 8.34375C10.0625 8.84375 10.4792 9.5625 10.5 10.5C10.4792 11.4375 10.0625 12.1562 9.25 12.6562C8.41667 13.1146 7.58333 13.1146 6.75 12.6562C5.9375 12.1562 5.52083 11.4375 5.5 10.5Z" fill="black" fill-opacity="0.72"/>
</g>
<defs>
<clipPath id="clip0_1731_4264">
<rect width="16" height="24" fill="white"/>
</clipPath>
</defs>
</svg>
