<svg width="18" height="30" viewBox="0 0 18 30" fill="none" xmlns="http://www.w3.org/2000/svg">
<g id="label-paired / lg / qrcode-lg / regular" clip-path="url(#clip0_1731_5215)">
<path id="icon" d="M5.875 8H2.125C1.73438 8.02604 1.52604 8.23438 1.5 8.625V12.375C1.52604 12.7656 1.73438 12.974 2.125 13H5.875C6.26562 12.974 6.47396 12.7656 6.5 12.375V8.625C6.47396 8.23438 6.26562 8.02604 5.875 8ZM2.125 6.75H5.875C6.39583 6.77604 6.83854 6.95833 7.20312 7.29688C7.54167 7.66146 7.72396 8.10417 7.75 8.625V12.375C7.72396 12.8958 7.54167 13.3385 7.20312 13.7031C6.83854 14.0417 6.39583 14.224 5.875 14.25H2.125C1.60417 14.224 1.16146 14.0417 0.796875 13.7031C0.458333 13.3385 0.276042 12.8958 0.25 12.375V8.625C0.276042 8.10417 0.458333 7.66146 0.796875 7.29688C1.16146 6.95833 1.60417 6.77604 2.125 6.75ZM5.875 18H2.125C1.73438 18.026 1.52604 18.2344 1.5 18.625V22.375C1.52604 22.7656 1.73438 22.974 2.125 23H5.875C6.26562 22.974 6.47396 22.7656 6.5 22.375V18.625C6.47396 18.2344 6.26562 18.026 5.875 18ZM2.125 16.75H5.875C6.39583 16.776 6.83854 16.9583 7.20312 17.2969C7.54167 17.6615 7.72396 18.1042 7.75 18.625V22.375C7.72396 22.8958 7.54167 23.3385 7.20312 23.7031C6.83854 24.0417 6.39583 24.224 5.875 24.25H2.125C1.60417 24.224 1.16146 24.0417 0.796875 23.7031C0.458333 23.3385 0.276042 22.8958 0.25 22.375V18.625C0.276042 18.1042 0.458333 17.6615 0.796875 17.2969C1.16146 16.9583 1.60417 16.776 2.125 16.75ZM12.125 8C11.7344 8.02604 11.526 8.23438 11.5 8.625V12.375C11.526 12.7656 11.7344 12.974 12.125 13H15.875C16.2656 12.974 16.474 12.7656 16.5 12.375V8.625C16.474 8.23438 16.2656 8.02604 15.875 8H12.125ZM10.25 8.625C10.276 8.10417 10.4583 7.66146 10.7969 7.29688C11.1615 6.95833 11.6042 6.77604 12.125 6.75H15.875C16.3958 6.77604 16.8385 6.95833 17.2031 7.29688C17.5417 7.66146 17.724 8.10417 17.75 8.625V12.375C17.724 12.8958 17.5417 13.3385 17.2031 13.7031C16.8385 14.0417 16.3958 14.224 15.875 14.25H12.125C11.6042 14.224 11.1615 14.0417 10.7969 13.7031C10.4583 13.3385 10.276 12.8958 10.25 12.375V8.625ZM10.25 17.375C10.276 16.9844 10.4844 16.776 10.875 16.75H13.375C13.7656 16.776 13.974 16.9844 14 17.375V20.0312H16.5V17.375C16.526 16.9844 16.7344 16.776 17.125 16.75C17.5156 16.776 17.724 16.9844 17.75 17.375V20.6562C17.724 21.0469 17.5156 21.2552 17.125 21.2812H13.375C12.9844 21.2552 12.776 21.0469 12.75 20.6562V18H11.5V23.9375C11.474 24.3281 11.2656 24.5365 10.875 24.5625C10.4844 24.5365 10.276 24.3281 10.25 23.9375V17.375ZM3.6875 9.5625H4.3125C4.70312 9.58854 4.91146 9.79688 4.9375 10.1875V10.8125C4.91146 11.2031 4.70312 11.4115 4.3125 11.4375H3.6875C3.29688 11.4115 3.08854 11.2031 3.0625 10.8125V10.1875C3.08854 9.79688 3.29688 9.58854 3.6875 9.5625ZM3.0625 20.1875C3.08854 19.7969 3.29688 19.5885 3.6875 19.5625H4.3125C4.70312 19.5885 4.91146 19.7969 4.9375 20.1875V20.8125C4.91146 21.2031 4.70312 21.4115 4.3125 21.4375H3.6875C3.29688 21.4115 3.08854 21.2031 3.0625 20.8125V20.1875ZM13.6875 9.5625H14.3125C14.7031 9.58854 14.9115 9.79688 14.9375 10.1875V10.8125C14.9115 11.2031 14.7031 11.4115 14.3125 11.4375H13.6875C13.2969 11.4115 13.0885 11.2031 13.0625 10.8125V10.1875C13.0885 9.79688 13.2969 9.58854 13.6875 9.5625ZM12.75 23C12.776 22.6094 12.9844 22.401 13.375 22.375H14C14.3906 22.401 14.599 22.6094 14.625 23V23.625C14.599 24.0156 14.3906 24.224 14 24.25H13.375C12.9844 24.224 12.776 24.0156 12.75 23.625V23ZM16.5 22.375H17.125C17.5156 22.401 17.724 22.6094 17.75 23V23.625C17.724 24.0156 17.5156 24.224 17.125 24.25H16.5C16.1094 24.224 15.901 24.0156 15.875 23.625V23C15.901 22.6094 16.1094 22.401 16.5 22.375Z" fill="black" fill-opacity="0.72"/>
</g>
<defs>
<clipPath id="clip0_1731_5215">
<rect width="18" height="30" fill="white"/>
</clipPath>
</defs>
</svg>
