<svg width="13" height="22" viewBox="0 0 13 22" fill="none" xmlns="http://www.w3.org/2000/svg">
<g id="label-paired / sm / calendar-sm / regular" clip-path="url(#clip0_1731_1852)">
<path id="icon" d="M3.4375 3.75C3.71094 3.76823 3.85677 3.91406 3.875 4.1875V5.5H9.125V4.1875C9.14323 3.91406 9.28906 3.76823 9.5625 3.75C9.83594 3.76823 9.98177 3.91406 10 4.1875V5.5H10.875C11.3672 5.51823 11.7773 5.69141 12.1055 6.01953C12.4336 6.34766 12.6068 6.75781 12.625 7.25V8.125V9V16C12.6068 16.4922 12.4336 16.9023 12.1055 17.2305C11.7773 17.5586 11.3672 17.7318 10.875 17.75H2.125C1.63281 17.7318 1.22266 17.5586 0.894531 17.2305C0.566406 16.9023 0.393229 16.4922 0.375 16V9V8.125V7.25C0.393229 6.75781 0.566406 6.34766 0.894531 6.01953C1.22266 5.69141 1.63281 5.51823 2.125 5.5H3V4.1875C3.01823 3.91406 3.16406 3.76823 3.4375 3.75ZM11.75 9H1.25V16C1.25 16.2552 1.33203 16.4648 1.49609 16.6289C1.66016 16.793 1.86979 16.875 2.125 16.875H10.875C11.1302 16.875 11.3398 16.793 11.5039 16.6289C11.668 16.4648 11.75 16.2552 11.75 16V9ZM10.875 6.375H2.125C1.86979 6.375 1.66016 6.45703 1.49609 6.62109C1.33203 6.78516 1.25 6.99479 1.25 7.25V8.125H11.75V7.25C11.75 6.99479 11.668 6.78516 11.5039 6.62109C11.3398 6.45703 11.1302 6.375 10.875 6.375Z" fill="black" fill-opacity="0.72"/>
</g>
<defs>
<clipPath id="clip0_1731_1852">
<rect width="13" height="22" fill="white"/>
</clipPath>
</defs>
</svg>
