<svg width="12" height="18" viewBox="0 0 12 18" fill="none" xmlns="http://www.w3.org/2000/svg">
<g id="label-paired / caption / facebook-caption" clip-path="url(#clip0_1731_13806)">
<path id="icon" d="M11.8125 9.5C11.7812 10.9844 11.3125 12.25 10.4062 13.2969C9.5 14.3438 8.33594 14.9922 6.91406 15.2422V11.1875H8.27344L8.53125 9.5H6.91406V8.39844C6.89844 8.16406 6.96094 7.96094 7.10156 7.78906C7.24219 7.60156 7.49219 7.50781 7.85156 7.50781H8.57812V6.07812C8.5625 6.0625 8.42969 6.03906 8.17969 6.00781C7.91406 5.97656 7.61719 5.96094 7.28906 5.96094C6.61719 5.96094 6.08594 6.15625 5.69531 6.54688C5.30469 6.9375 5.10156 7.49219 5.08594 8.21094V9.5H3.60938V11.1875H5.08594V15.2422C3.66406 14.9922 2.5 14.3438 1.59375 13.2969C0.6875 12.25 0.21875 10.9844 0.1875 9.5C0.203125 8.42188 0.46875 7.44531 0.984375 6.57031C1.5 5.69531 2.19531 5 3.07031 4.48438C3.94531 3.96875 4.92188 3.70313 6 3.6875C7.07812 3.70313 8.05469 3.96875 8.92969 4.48438C9.80469 5 10.5 5.69531 11.0156 6.57031C11.5312 7.44531 11.7969 8.42188 11.8125 9.5Z" fill="black" fill-opacity="0.72"/>
</g>
<defs>
<clipPath id="clip0_1731_13806">
<rect width="12" height="18" fill="white"/>
</clipPath>
</defs>
</svg>
