<svg width="25" height="30" viewBox="0 0 25 30" fill="none" xmlns="http://www.w3.org/2000/svg">
<g id="label-paired / lg / hands-holding-diamond-lg / bold" clip-path="url(#clip0_1731_5079)">
<path id="icon" d="M11.6016 5.85156C11.862 5.61719 12.1615 5.5 12.5 5.5C12.8385 5.5 13.138 5.61719 13.3984 5.85156L17.1484 9.60156C17.3828 9.86198 17.5 10.1615 17.5 10.5C17.5 10.8385 17.3828 11.138 17.1484 11.3984L13.3984 15.1484C13.138 15.3828 12.8385 15.5 12.5 15.5C12.1615 15.5 11.862 15.3828 11.6016 15.1484L7.85156 11.3984C7.61719 11.138 7.5 10.8385 7.5 10.5C7.5 10.1615 7.61719 9.86198 7.85156 9.60156L11.6016 5.85156ZM2.8125 8C3.61979 8.02604 4.28385 8.29948 4.80469 8.82031C5.32552 9.34115 5.59896 10.0052 5.625 10.8125V15.8516C6.11979 15.4349 6.70573 15.2135 7.38281 15.1875C8.13802 15.1875 8.77604 15.4479 9.29688 15.9688L11.7188 18.3906C12.0052 18.6771 12.2656 19.0026 12.5 19.3672C12.7344 19.0026 13.0078 18.6771 13.3203 18.3906L15.7031 15.9688C16.224 15.4479 16.862 15.1875 17.6172 15.1875C18.2943 15.2135 18.8802 15.4349 19.375 15.8516V10.8125C19.401 10.0052 19.6745 9.34115 20.1953 8.82031C20.7422 8.29948 21.4062 8.02604 22.1875 8C22.9948 8.02604 23.6589 8.29948 24.1797 8.82031C24.7005 9.34115 24.974 10.0052 25 10.8125V19.25C25 20.5521 24.5443 21.6589 23.6328 22.5703L20.9766 25.2266C20.5339 25.5911 20.0911 25.5911 19.6484 25.2266C19.2839 24.7839 19.2839 24.3411 19.6484 23.8984L22.3047 21.2422C22.8516 20.6953 23.125 20.0312 23.125 19.25V10.8125C23.0729 10.2396 22.7604 9.92708 22.1875 9.875C21.6146 9.92708 21.3021 10.2396 21.25 10.8125V16.5156C21.25 17.5573 20.8854 18.4427 20.1562 19.1719L19.5312 19.7969L18.4766 20.8516L17.8516 21.4766C17.4089 21.8411 16.9661 21.8411 16.5234 21.4766C16.1589 21.0339 16.1589 20.5911 16.5234 20.1484L17.1484 19.5234L18.2031 18.4688C18.3594 18.3125 18.4375 18.1172 18.4375 17.8828C18.3854 17.388 18.112 17.1146 17.6172 17.0625C17.3828 17.0625 17.1875 17.1406 17.0312 17.2969L14.6094 19.7188C13.8542 20.5 13.4635 21.4505 13.4375 22.5703V24.5625C13.3854 25.1354 13.0729 25.4479 12.5 25.5C11.9271 25.4479 11.6146 25.1354 11.5625 24.5625V22.5703C11.5365 21.4505 11.1458 20.5 10.3906 19.7188L7.96875 17.2969C7.8125 17.1406 7.61719 17.0625 7.38281 17.0625C6.88802 17.1146 6.61458 17.388 6.5625 17.8828C6.5625 18.1172 6.64062 18.3125 6.79688 18.4688L7.85156 19.5234L8.47656 20.1484C8.84115 20.5911 8.84115 21.0339 8.47656 21.4766C8.03385 21.8411 7.59115 21.8411 7.14844 21.4766L6.52344 20.8516L5.46875 19.7969L4.88281 19.1719C4.15365 18.4427 3.77604 17.5573 3.75 16.5156V10.8125C3.69792 10.2396 3.38542 9.92708 2.8125 9.875C2.23958 9.92708 1.92708 10.2396 1.875 10.8125V19.25C1.875 20.0312 2.14844 20.6953 2.69531 21.2422L5.35156 23.8984C5.71615 24.3411 5.71615 24.7839 5.35156 25.2266C4.90885 25.5911 4.46615 25.5911 4.02344 25.2266L1.36719 22.5703C0.481771 21.6589 0.0260417 20.5521 0 19.25V10.8125C0.0260417 10.0052 0.299479 9.34115 0.820312 8.82031C1.34115 8.29948 2.00521 8.02604 2.8125 8Z" fill="black" fill-opacity="0.72"/>
</g>
<defs>
<clipPath id="clip0_1731_5079">
<rect width="25" height="30" fill="white"/>
</clipPath>
</defs>
</svg>
