<svg width="12" height="18" viewBox="0 0 12 18" fill="none" xmlns="http://www.w3.org/2000/svg">
<g id="label-paired / caption / chart-line-up-down-caption / bold" clip-path="url(#clip0_1731_1269)">
<path id="icon" d="M0.5625 4.25C0.90625 4.28125 1.09375 4.46875 1.125 4.8125V13.0625C1.15625 13.4062 1.34375 13.5938 1.6875 13.625H11.4375C11.7812 13.6562 11.9688 13.8438 12 14.1875C11.9688 14.5312 11.7812 14.7188 11.4375 14.75H1.6875C1.20312 14.7344 0.804688 14.5703 0.492188 14.2578C0.179688 13.9453 0.015625 13.5469 0 13.0625V4.8125C0.03125 4.46875 0.21875 4.28125 0.5625 4.25ZM8.8125 6.125C8.46875 6.09375 8.28125 5.90625 8.25 5.5625C8.28125 5.21875 8.46875 5.03125 8.8125 5H10.6875C10.8438 5 10.9766 5.05469 11.0859 5.16406C11.1953 5.27344 11.25 5.40625 11.25 5.5625V7.4375C11.2188 7.78125 11.0312 7.96875 10.6875 8C10.3438 7.96875 10.1562 7.78125 10.125 7.4375V6.92188L7.14844 9.89844C6.88281 10.1172 6.61719 10.1172 6.35156 9.89844L4.875 8.42188L3.39844 9.89844C3.13281 10.1172 2.86719 10.1172 2.60156 9.89844C2.38281 9.63281 2.38281 9.36719 2.60156 9.10156L4.47656 7.22656C4.74219 7.00781 5.00781 7.00781 5.27344 7.22656L6.75 8.70312L9.32812 6.125H8.8125ZM8.8125 12.5C8.46875 12.4688 8.28125 12.2812 8.25 11.9375C8.28125 11.5938 8.46875 11.4062 8.8125 11.375H9.32812L8.22656 10.2734L9.02344 9.47656L10.125 10.5781V10.0625C10.1562 9.71875 10.3438 9.53125 10.6875 9.5C11.0312 9.53125 11.2188 9.71875 11.25 10.0625V11.9375C11.25 12.0938 11.1953 12.2266 11.0859 12.3359C10.9766 12.4453 10.8438 12.5 10.6875 12.5H8.8125Z" fill="black" fill-opacity="0.72"/>
</g>
<defs>
<clipPath id="clip0_1731_1269">
<rect width="12" height="18" fill="white"/>
</clipPath>
</defs>
</svg>
