<svg width="15" height="18" viewBox="0 0 15 18" fill="none" xmlns="http://www.w3.org/2000/svg">
<g id="label-paired / caption / hands-holding-diamond-caption / regular" clip-path="url(#clip0_1731_1605)">
<path id="icon" d="M8.03906 3.71094L10.2891 5.96094C10.4297 6.11719 10.5 6.29688 10.5 6.5C10.5 6.70312 10.4297 6.88281 10.2891 7.03906L8.03906 9.28906C7.88281 9.42969 7.70312 9.5 7.5 9.5C7.29688 9.5 7.11719 9.42969 6.96094 9.28906L4.71094 7.03906C4.57031 6.88281 4.5 6.70312 4.5 6.5C4.5 6.29688 4.57031 6.11719 4.71094 5.96094L6.96094 3.71094C7.11719 3.57031 7.29688 3.5 7.5 3.5C7.70312 3.5 7.88281 3.57031 8.03906 3.71094ZM5.25 6.5L7.5 8.75L9.75 6.5L7.5 4.25L5.25 6.5ZM1.5 5C1.92188 5.01562 2.27344 5.16406 2.55469 5.44531C2.83594 5.72656 2.98438 6.07812 3 6.5V9.40625C3 9.51562 3.00781 9.625 3.02344 9.73438C3.07031 9.65625 3.13281 9.58594 3.21094 9.52344C3.47656 9.25781 3.78125 9.125 4.125 9.125C4.46875 9.125 4.77344 9.25781 5.03906 9.52344L7.19531 11.6562C7.30469 11.7812 7.40625 11.9141 7.5 12.0547C7.59375 11.9141 7.69531 11.7812 7.80469 11.6562L9.96094 9.52344C10.2266 9.25781 10.5312 9.125 10.875 9.125C11.2188 9.125 11.5234 9.25781 11.7891 9.52344C11.8672 9.58594 11.9297 9.65625 11.9766 9.73438C11.9922 9.625 12 9.51562 12 9.40625V6.5C12.0156 6.07812 12.1641 5.72656 12.4453 5.44531C12.7266 5.16406 13.0781 5.01562 13.5 5C13.9219 5.01562 14.2734 5.16406 14.5547 5.44531C14.8359 5.72656 14.9844 6.07812 15 6.5V11.5625C14.9844 12.2812 14.7266 12.8984 14.2266 13.4141L12.2578 15.3828C12.0859 15.5391 11.9141 15.5391 11.7422 15.3828C11.5859 15.2109 11.5859 15.0391 11.7422 14.8672L13.7109 12.8984C14.0703 12.5234 14.25 12.0781 14.25 11.5625V6.5C14.25 6.28125 14.1797 6.10156 14.0391 5.96094C13.8984 5.82031 13.7188 5.75 13.5 5.75C13.2812 5.75 13.1016 5.82031 12.9609 5.96094C12.8203 6.10156 12.75 6.28125 12.75 6.5V9.40625C12.7344 10.0625 12.5 10.6328 12.0469 11.1172L11.7891 11.3516L10.7578 12.3828L10.3828 12.7578C10.2109 12.9141 10.0391 12.9141 9.86719 12.7578C9.71094 12.5859 9.71094 12.4141 9.86719 12.2422L10.2422 11.8672L11.2734 10.8359C11.4922 10.5703 11.4922 10.3047 11.2734 10.0391C11.0078 9.83594 10.7422 9.83594 10.4766 10.0391L8.34375 12.1953C8.03125 12.5078 7.875 12.8828 7.875 13.3203V15.125C7.85938 15.3594 7.73438 15.4844 7.5 15.5C7.26562 15.4844 7.14062 15.3594 7.125 15.125V13.3203C7.125 12.8828 6.96875 12.5078 6.65625 12.1953L4.52344 10.0391C4.25781 9.82031 3.99219 9.82031 3.72656 10.0391C3.52344 10.3047 3.52344 10.5703 3.72656 10.8359L4.75781 11.8672L5.13281 12.2422C5.28906 12.4141 5.28906 12.5859 5.13281 12.7578C4.96094 12.9141 4.78906 12.9141 4.61719 12.7578L4.24219 12.3828L3.21094 11.3516L2.95312 11.1172C2.5 10.6328 2.26562 10.0625 2.25 9.40625V6.5C2.25 6.28125 2.17969 6.10156 2.03906 5.96094C1.89844 5.82031 1.71875 5.75 1.5 5.75C1.28125 5.75 1.10156 5.82031 0.960938 5.96094C0.820312 6.10156 0.75 6.28125 0.75 6.5V11.5625C0.75 12.0781 0.929688 12.5234 1.28906 12.8984L3.25781 14.8672C3.41406 15.0391 3.41406 15.2109 3.25781 15.3828C3.08594 15.5391 2.91406 15.5391 2.74219 15.3828L0.773438 13.4141C0.273438 12.8984 0.015625 12.2812 0 11.5625V6.5C0.015625 6.07812 0.164062 5.72656 0.445312 5.44531C0.726562 5.16406 1.07812 5.01562 1.5 5Z" fill="black" fill-opacity="0.72"/>
</g>
<defs>
<clipPath id="clip0_1731_1605">
<rect width="15" height="18" fill="white"/>
</clipPath>
</defs>
</svg>
