<svg width="12" height="18" viewBox="0 0 12 18" fill="none" xmlns="http://www.w3.org/2000/svg">
<g id="label-paired / caption / forward-caption / fill" clip-path="url(#clip0_1731_1540)">
<path id="icon" d="M1.24219 13.8359C0.992188 14.0234 0.71875 14.0547 0.421875 13.9297C0.15625 13.7891 0.015625 13.5625 0 13.25V5.75C0.015625 5.4375 0.15625 5.21094 0.421875 5.07031C0.71875 4.94531 0.992188 4.97656 1.24219 5.16406L5.25 8.51562V9.5V10.4844L1.24219 13.8359ZM6 11.75V9.5V6.5V5.75C6.01562 5.4375 6.15625 5.21094 6.42188 5.07031C6.71875 4.94531 6.99219 4.97656 7.24219 5.16406L11.7422 8.91406C11.9141 9.07031 12 9.26562 12 9.5C12 9.73438 11.9141 9.92969 11.7422 10.0859L7.24219 13.8359C6.99219 14.0234 6.71875 14.0547 6.42188 13.9297C6.15625 13.7891 6.01562 13.5625 6 13.25V11.75Z" fill="black" fill-opacity="0.72"/>
</g>
<defs>
<clipPath id="clip0_1731_1540">
<rect width="12" height="18" fill="white"/>
</clipPath>
</defs>
</svg>
