<svg width="23" height="30" viewBox="0 0 23 30" fill="none" xmlns="http://www.w3.org/2000/svg">
<g id="label-paired / lg / floppy-disk-pen-lg / regular" clip-path="url(#clip0_1731_4929)">
<path id="icon" d="M1.5 9.25V21.75C1.5 22.1146 1.61719 22.4141 1.85156 22.6484C2.08594 22.8828 2.38542 23 2.75 23H10.6406L10.3281 24.25H2.75C2.04688 24.224 1.46094 23.9766 0.992188 23.5078C0.523438 23.0391 0.276042 22.4531 0.25 21.75V9.25C0.276042 8.54688 0.523438 7.96094 0.992188 7.49219C1.46094 7.02344 2.04688 6.77604 2.75 6.75H12.3594C13.0365 6.75 13.6224 6.9974 14.1172 7.49219L17.0078 10.3828C17.5026 10.8776 17.75 11.4766 17.75 12.1797V14.0938L16.5 15.3438V12.1797C16.5 11.8151 16.3828 11.5156 16.1484 11.2812L13.2188 8.35156C13.0885 8.22135 12.9323 8.13021 12.75 8.07812V11.75C12.75 12.1146 12.6328 12.4141 12.3984 12.6484C12.1641 12.8828 11.8646 13 11.5 13H4C3.63542 13 3.33594 12.8828 3.10156 12.6484C2.86719 12.4141 2.75 12.1146 2.75 11.75V8C2.38542 8 2.08594 8.11719 1.85156 8.35156C1.61719 8.58594 1.5 8.88542 1.5 9.25ZM4 8V11.75H11.5V8H4ZM7.125 18C7.15104 18.7031 7.46354 19.25 8.0625 19.6406C8.6875 19.9531 9.3125 19.9531 9.9375 19.6406C10.5365 19.25 10.849 18.7031 10.875 18C10.849 17.2969 10.5365 16.75 9.9375 16.3594C9.3125 16.0469 8.6875 16.0469 8.0625 16.3594C7.46354 16.75 7.15104 17.2969 7.125 18ZM9 21.125C7.82812 21.099 6.92969 20.5781 6.30469 19.5625C5.73177 18.5208 5.73177 17.4792 6.30469 16.4375C6.92969 15.4219 7.82812 14.901 9 14.875C10.1719 14.901 11.0703 15.4219 11.6953 16.4375C12.2682 17.4792 12.2682 18.5208 11.6953 19.5625C11.0703 20.5781 10.1719 21.099 9 21.125ZM20.5234 15.8125C20.2109 15.5781 19.9115 15.5781 19.625 15.8125L18.6484 16.7891L20.2109 18.3516L21.1875 17.375C21.4219 17.0885 21.4219 16.8021 21.1875 16.5156L20.5234 15.8125ZM13.6484 21.8281C13.5443 21.9062 13.4792 21.9974 13.4531 22.1016L12.9844 24.0156L14.8984 23.5469C15.0026 23.5208 15.0938 23.4688 15.1719 23.3906L19.3516 19.25L17.7891 17.6875L13.6484 21.8281ZM18.7656 14.9531C19.1302 14.5625 19.5599 14.3672 20.0547 14.3672C20.5755 14.3672 21.0182 14.5625 21.3828 14.9531L22.0859 15.6172C22.4505 16.0078 22.6328 16.4505 22.6328 16.9453C22.6328 17.4401 22.4505 17.8828 22.0859 18.2734L16.0703 24.2891C15.8359 24.5234 15.5495 24.6797 15.2109 24.7578L12.2812 25.5C12.0469 25.5521 11.8516 25.5 11.6953 25.3438C11.5391 25.1615 11.487 24.9531 11.5391 24.7188L12.2422 21.8281C12.3464 21.4896 12.5156 21.1901 12.75 20.9297L18.7656 14.9531Z" fill="black" fill-opacity="0.72"/>
</g>
<defs>
<clipPath id="clip0_1731_4929">
<rect width="23" height="30" fill="white"/>
</clipPath>
</defs>
</svg>
