<svg width="20" height="30" viewBox="0 0 20 30" fill="none" xmlns="http://www.w3.org/2000/svg">
<g id="label-paired / lg / backward-lg / fill" clip-path="url(#clip0_1731_5020)">
<path id="icon" d="M17.9688 22.7266L11.25 17.1406V15.5V13.8594L17.9688 8.27344C18.3594 7.96094 18.8021 7.90885 19.2969 8.11719C19.7396 8.35156 19.974 8.72917 20 9.25V21.75C19.974 22.2708 19.7396 22.6484 19.2969 22.8828C18.8021 23.0911 18.3594 23.0391 17.9688 22.7266ZM10 19.25V21.75C9.97396 22.2708 9.73958 22.6484 9.29688 22.8828C8.80208 23.0911 8.35938 23.0391 7.96875 22.7266L0.46875 16.4766C0.15625 16.2161 0 15.8906 0 15.5C0 15.1094 0.15625 14.7839 0.46875 14.5234L7.96875 8.27344C8.35938 7.96094 8.80208 7.90885 9.29688 8.11719C9.73958 8.35156 9.97396 8.72917 10 9.25V10.5V15.5V19.25Z" fill="black" fill-opacity="0.72"/>
</g>
<defs>
<clipPath id="clip0_1731_5020">
<rect width="20" height="30" fill="white"/>
</clipPath>
</defs>
</svg>
