<svg width="18" height="30" viewBox="0 0 18 30" fill="none" xmlns="http://www.w3.org/2000/svg">
<g id="label-paired / lg / qrcode-lg / bold" clip-path="url(#clip0_1731_5217)">
<path id="icon" d="M5.875 8.625H2.125V12.375H5.875V8.625ZM2.125 6.75H5.875C6.39583 6.77604 6.83854 6.95833 7.20312 7.29688C7.54167 7.66146 7.72396 8.10417 7.75 8.625V12.375C7.72396 12.8958 7.54167 13.3385 7.20312 13.7031C6.83854 14.0417 6.39583 14.224 5.875 14.25H2.125C1.60417 14.224 1.16146 14.0417 0.796875 13.7031C0.458333 13.3385 0.276042 12.8958 0.25 12.375V8.625C0.276042 8.10417 0.458333 7.66146 0.796875 7.29688C1.16146 6.95833 1.60417 6.77604 2.125 6.75ZM5.875 18.625H2.125V22.375H5.875V18.625ZM2.125 16.75H5.875C6.39583 16.776 6.83854 16.9583 7.20312 17.2969C7.54167 17.6615 7.72396 18.1042 7.75 18.625V22.375C7.72396 22.8958 7.54167 23.3385 7.20312 23.7031C6.83854 24.0417 6.39583 24.224 5.875 24.25H2.125C1.60417 24.224 1.16146 24.0417 0.796875 23.7031C0.458333 23.3385 0.276042 22.8958 0.25 22.375V18.625C0.276042 18.1042 0.458333 17.6615 0.796875 17.2969C1.16146 16.9583 1.60417 16.776 2.125 16.75ZM12.125 8.625V12.375H15.875V8.625H12.125ZM10.25 8.625C10.276 8.10417 10.4583 7.66146 10.7969 7.29688C11.1615 6.95833 11.6042 6.77604 12.125 6.75H15.875C16.3958 6.77604 16.8385 6.95833 17.2031 7.29688C17.5417 7.66146 17.724 8.10417 17.75 8.625V12.375C17.724 12.8958 17.5417 13.3385 17.2031 13.7031C16.8385 14.0417 16.3958 14.224 15.875 14.25H12.125C11.6042 14.224 11.1615 14.0417 10.7969 13.7031C10.4583 13.3385 10.276 12.8958 10.25 12.375V8.625ZM3.0625 10.1875C3.08854 9.79688 3.29688 9.58854 3.6875 9.5625H4.3125C4.70312 9.58854 4.91146 9.79688 4.9375 10.1875V10.8125C4.91146 11.2031 4.70312 11.4115 4.3125 11.4375H3.6875C3.29688 11.4115 3.08854 11.2031 3.0625 10.8125V10.1875ZM3.6875 19.5625H4.3125C4.70312 19.5885 4.91146 19.7969 4.9375 20.1875V20.8125C4.91146 21.2031 4.70312 21.4115 4.3125 21.4375H3.6875C3.29688 21.4115 3.08854 21.2031 3.0625 20.8125V20.1875C3.08854 19.7969 3.29688 19.5885 3.6875 19.5625ZM13.0625 10.1875C13.0885 9.79688 13.2969 9.58854 13.6875 9.5625H14.3125C14.7031 9.58854 14.9115 9.79688 14.9375 10.1875V10.8125C14.9115 11.2031 14.7031 11.4115 14.3125 11.4375H13.6875C13.2969 11.4115 13.0885 11.2031 13.0625 10.8125V10.1875ZM10.25 17.375C10.276 16.9844 10.4844 16.776 10.875 16.75H13.375C13.7656 16.776 13.974 16.9844 14 17.375C14.026 17.7656 14.2344 17.974 14.625 18H15.875C16.2656 17.974 16.474 17.7656 16.5 17.375C16.526 16.9844 16.7344 16.776 17.125 16.75C17.5156 16.776 17.724 16.9844 17.75 17.375V21.125C17.724 21.5156 17.5156 21.724 17.125 21.75H14.625C14.2344 21.724 14.026 21.5156 14 21.125C13.974 20.7344 13.7656 20.526 13.375 20.5C12.9844 20.526 12.776 20.7344 12.75 21.125V23.625C12.724 24.0156 12.5156 24.224 12.125 24.25H10.875C10.4844 24.224 10.276 24.0156 10.25 23.625V17.375ZM14.625 23C15.0156 23.026 15.224 23.2344 15.25 23.625C15.224 24.0156 15.0156 24.224 14.625 24.25C14.2344 24.224 14.026 24.0156 14 23.625C14.026 23.2344 14.2344 23.026 14.625 23ZM17.125 23C17.5156 23.026 17.724 23.2344 17.75 23.625C17.724 24.0156 17.5156 24.224 17.125 24.25C16.7344 24.224 16.526 24.0156 16.5 23.625C16.526 23.2344 16.7344 23.026 17.125 23Z" fill="black" fill-opacity="0.72"/>
</g>
<defs>
<clipPath id="clip0_1731_5217">
<rect width="18" height="30" fill="white"/>
</clipPath>
</defs>
</svg>
