<svg width="30" height="36" viewBox="0 0 30 36" fill="none" xmlns="http://www.w3.org/2000/svg">
<g id="label-paired / xl / location-crosshairs-slash-xl / bold" clip-path="url(#clip0_1731_6454)">
<path id="icon" d="M1.82812 6.23438L8.67188 11.625C10.0781 10.2188 11.8125 9.375 13.875 9.09375V7.125C13.9375 6.4375 14.3125 6.0625 15 6C15.6875 6.0625 16.0625 6.4375 16.125 7.125V9.09375C18.1875 9.375 19.9375 10.2188 21.375 11.625C22.7812 13.0625 23.6406 14.8125 23.9531 16.875H25.875C26.5625 16.9375 26.9375 17.3125 27 18C26.9375 18.6875 26.5625 19.0625 25.875 19.125H23.9531C23.7656 20.4062 23.3594 21.5781 22.7344 22.6406L29.5781 27.9844C30.0781 28.4531 30.1406 28.9844 29.7656 29.5781C29.2969 30.0781 28.7656 30.1406 28.1719 29.7656L0.421875 8.01562C-0.078125 7.54688 -0.140625 7.01563 0.234375 6.42188C0.703125 5.92187 1.23438 5.85938 1.82812 6.23438ZM10.4531 13.0312L12.2812 14.4375C13.0312 13.8438 13.9375 13.5312 15 13.5C16.2812 13.5312 17.3438 13.9688 18.1875 14.8125C19.0312 15.6562 19.4688 16.7188 19.5 18C19.5 18.6562 19.375 19.2656 19.125 19.8281L20.9531 21.2344C21.4844 20.2656 21.75 19.1875 21.75 18C21.6875 16.0938 21.0312 14.5 19.7812 13.2188C18.5 11.9688 16.9062 11.3125 15 11.25C13.2188 11.2812 11.7031 11.875 10.4531 13.0312ZM17.25 18.3281H17.2031C17.2344 18.2031 17.25 18.0938 17.25 18C17.2188 17.375 17 16.8438 16.5938 16.4062C16.1562 16 15.625 15.7812 15 15.75C14.6875 15.75 14.4062 15.7969 14.1562 15.8906L17.25 18.3281ZM19.4531 25.8281C18.4531 26.3906 17.3438 26.7656 16.125 26.9531V28.875C16.0625 29.5625 15.6875 29.9375 15 30C14.3125 29.9375 13.9375 29.5625 13.875 28.875V26.9531C11.8125 26.6406 10.0625 25.7812 8.625 24.375C7.21875 22.9688 6.375 21.2188 6.09375 19.125H4.125C3.4375 19.0625 3.0625 18.6875 3 18C3.0625 17.3125 3.4375 16.9375 4.125 16.875H6.09375C6.125 16.4062 6.21875 15.9531 6.375 15.5156L8.29688 17.0625C8.26562 17.375 8.25 17.6875 8.25 18C8.3125 19.9062 8.96875 21.5 10.2188 22.7812C11.5 24.0625 13.0938 24.7188 15 24.75C15.875 24.75 16.7031 24.5938 17.4844 24.2812L19.4531 25.8281Z" fill="black" fill-opacity="0.72"/>
</g>
<defs>
<clipPath id="clip0_1731_6454">
<rect width="30" height="36" fill="white"/>
</clipPath>
</defs>
</svg>
