<svg width="12" height="18" viewBox="0 0 12 18" fill="none" xmlns="http://www.w3.org/2000/svg">
<g id="label-paired / caption / circle-star-caption / fill" clip-path="url(#clip0_1731_825)">
<path id="icon" d="M0 9.5C0.015625 8.40625 0.28125 7.40625 0.796875 6.5C1.32812 5.59375 2.0625 4.85938 3 4.29688C3.95312 3.76562 4.95312 3.5 6 3.5C7.04688 3.5 8.04688 3.76562 9 4.29688C9.9375 4.85938 10.6719 5.59375 11.2031 6.5C11.7188 7.40625 11.9844 8.40625 12 9.5C11.9844 10.5938 11.7188 11.5938 11.2031 12.5C10.6719 13.4062 9.9375 14.1406 9 14.7031C8.04688 15.2344 7.04688 15.5 6 15.5C4.95312 15.5 3.95312 15.2344 3 14.7031C2.0625 14.1406 1.32812 13.4062 0.796875 12.5C0.28125 11.5938 0.015625 10.5938 0 9.5ZM6 5.9375C5.84375 5.9375 5.73438 6.00781 5.67188 6.14844L4.82812 7.85938L2.92969 8.14062C2.77344 8.17188 2.67188 8.25781 2.625 8.39844C2.57812 8.53906 2.60938 8.66406 2.71875 8.77344L4.07812 10.1328L3.75 12.0078C3.73438 12.1641 3.78906 12.2891 3.91406 12.3828C4.03906 12.4609 4.17188 12.4688 4.3125 12.4062L6 11.5156L7.71094 12.4062C7.83594 12.4688 7.96094 12.4609 8.08594 12.3828C8.21094 12.2891 8.26562 12.1641 8.25 12.0078L7.92188 10.1328L9.30469 8.79688C9.39844 8.67188 9.42969 8.53906 9.39844 8.39844C9.33594 8.25781 9.23438 8.17188 9.09375 8.14062L7.19531 7.85938L6.32812 6.14844C6.26562 6.00781 6.15625 5.9375 6 5.9375Z" fill="black" fill-opacity="0.72"/>
</g>
<defs>
<clipPath id="clip0_1731_825">
<rect width="12" height="18" fill="white"/>
</clipPath>
</defs>
</svg>
