<svg width="24" height="36" viewBox="0 0 24 36" fill="none" xmlns="http://www.w3.org/2000/svg">
<g id="label-paired / xl / chart-area-xl / regular" clip-path="url(#clip0_1731_6283)">
<path id="icon" d="M1.5 8.25V24.75C1.53125 25.375 1.75 25.9062 2.15625 26.3438C2.59375 26.75 3.125 26.9688 3.75 27H23.25C23.7188 27.0312 23.9688 27.2812 24 27.75C23.9688 28.2188 23.7188 28.4688 23.25 28.5H3.75C2.6875 28.4688 1.79688 28.1094 1.07812 27.4219C0.390625 26.7031 0.03125 25.8125 0 24.75V8.25C0.03125 7.78125 0.28125 7.53125 0.75 7.5C1.21875 7.53125 1.46875 7.78125 1.5 8.25ZM13.9219 16.0781L10.5 12.6094L6.23438 16.9219C6.07812 17.0469 6 17.2188 6 17.4375V22.5H21V18.0938C21 17.9062 20.9375 17.7344 20.8125 17.5781L17.9062 14.2031L16.0781 16.0781C15.7656 16.3594 15.4062 16.5 15 16.5C14.5938 16.5 14.2344 16.3594 13.9219 16.0781ZM13.9219 13.9219L15 15L16.0781 13.9219L16.875 13.125C17.1875 12.8438 17.5469 12.7031 17.9531 12.7031C18.3906 12.7344 18.75 12.9062 19.0312 13.2188L21.9375 16.6406C22.3125 17.0469 22.5 17.5312 22.5 18.0938V22.5C22.5 22.9375 22.3594 23.2969 22.0781 23.5781C21.7969 23.8594 21.4375 24 21 24H6C5.5625 24 5.20312 23.8594 4.92188 23.5781C4.64062 23.2969 4.5 22.9375 4.5 22.5V17.4375C4.5 16.8125 4.71875 16.2812 5.15625 15.8438L9.42188 11.5781C9.73438 11.2656 10.0938 11.1094 10.5 11.1094C10.9062 11.1094 11.2656 11.2656 11.5781 11.5781L13.9219 13.9219Z" fill="black" fill-opacity="0.72"/>
</g>
<defs>
<clipPath id="clip0_1731_6283">
<rect width="24" height="36" fill="white"/>
</clipPath>
</defs>
</svg>
