<svg width="13" height="22" viewBox="0 0 13 22" fill="none" xmlns="http://www.w3.org/2000/svg">
<g id="label-paired / sm / qrcode-sm / regular" clip-path="url(#clip0_1731_3000)">
<path id="icon" d="M4.3125 5.5H1.6875C1.41406 5.51823 1.26823 5.66406 1.25 5.9375V8.5625C1.26823 8.83594 1.41406 8.98177 1.6875 9H4.3125C4.58594 8.98177 4.73177 8.83594 4.75 8.5625V5.9375C4.73177 5.66406 4.58594 5.51823 4.3125 5.5ZM1.6875 4.625H4.3125C4.67708 4.64323 4.98698 4.77083 5.24219 5.00781C5.47917 5.26302 5.60677 5.57292 5.625 5.9375V8.5625C5.60677 8.92708 5.47917 9.23698 5.24219 9.49219C4.98698 9.72917 4.67708 9.85677 4.3125 9.875H1.6875C1.32292 9.85677 1.01302 9.72917 0.757812 9.49219C0.520833 9.23698 0.393229 8.92708 0.375 8.5625V5.9375C0.393229 5.57292 0.520833 5.26302 0.757812 5.00781C1.01302 4.77083 1.32292 4.64323 1.6875 4.625ZM4.3125 12.5H1.6875C1.41406 12.5182 1.26823 12.6641 1.25 12.9375V15.5625C1.26823 15.8359 1.41406 15.9818 1.6875 16H4.3125C4.58594 15.9818 4.73177 15.8359 4.75 15.5625V12.9375C4.73177 12.6641 4.58594 12.5182 4.3125 12.5ZM1.6875 11.625H4.3125C4.67708 11.6432 4.98698 11.7708 5.24219 12.0078C5.47917 12.263 5.60677 12.5729 5.625 12.9375V15.5625C5.60677 15.9271 5.47917 16.237 5.24219 16.4922C4.98698 16.7292 4.67708 16.8568 4.3125 16.875H1.6875C1.32292 16.8568 1.01302 16.7292 0.757812 16.4922C0.520833 16.237 0.393229 15.9271 0.375 15.5625V12.9375C0.393229 12.5729 0.520833 12.263 0.757812 12.0078C1.01302 11.7708 1.32292 11.6432 1.6875 11.625ZM8.6875 5.5C8.41406 5.51823 8.26823 5.66406 8.25 5.9375V8.5625C8.26823 8.83594 8.41406 8.98177 8.6875 9H11.3125C11.5859 8.98177 11.7318 8.83594 11.75 8.5625V5.9375C11.7318 5.66406 11.5859 5.51823 11.3125 5.5H8.6875ZM7.375 5.9375C7.39323 5.57292 7.52083 5.26302 7.75781 5.00781C8.01302 4.77083 8.32292 4.64323 8.6875 4.625H11.3125C11.6771 4.64323 11.987 4.77083 12.2422 5.00781C12.4792 5.26302 12.6068 5.57292 12.625 5.9375V8.5625C12.6068 8.92708 12.4792 9.23698 12.2422 9.49219C11.987 9.72917 11.6771 9.85677 11.3125 9.875H8.6875C8.32292 9.85677 8.01302 9.72917 7.75781 9.49219C7.52083 9.23698 7.39323 8.92708 7.375 8.5625V5.9375ZM7.375 12.0625C7.39323 11.7891 7.53906 11.6432 7.8125 11.625H9.5625C9.83594 11.6432 9.98177 11.7891 10 12.0625V13.9219H11.75V12.0625C11.7682 11.7891 11.9141 11.6432 12.1875 11.625C12.4609 11.6432 12.6068 11.7891 12.625 12.0625V14.3594C12.6068 14.6328 12.4609 14.7786 12.1875 14.7969H9.5625C9.28906 14.7786 9.14323 14.6328 9.125 14.3594V12.5H8.25V16.6562C8.23177 16.9297 8.08594 17.0755 7.8125 17.0938C7.53906 17.0755 7.39323 16.9297 7.375 16.6562V12.0625ZM2.78125 6.59375H3.21875C3.49219 6.61198 3.63802 6.75781 3.65625 7.03125V7.46875C3.63802 7.74219 3.49219 7.88802 3.21875 7.90625H2.78125C2.50781 7.88802 2.36198 7.74219 2.34375 7.46875V7.03125C2.36198 6.75781 2.50781 6.61198 2.78125 6.59375ZM2.34375 14.0312C2.36198 13.7578 2.50781 13.612 2.78125 13.5938H3.21875C3.49219 13.612 3.63802 13.7578 3.65625 14.0312V14.4688C3.63802 14.7422 3.49219 14.888 3.21875 14.9062H2.78125C2.50781 14.888 2.36198 14.7422 2.34375 14.4688V14.0312ZM9.78125 6.59375H10.2188C10.4922 6.61198 10.638 6.75781 10.6562 7.03125V7.46875C10.638 7.74219 10.4922 7.88802 10.2188 7.90625H9.78125C9.50781 7.88802 9.36198 7.74219 9.34375 7.46875V7.03125C9.36198 6.75781 9.50781 6.61198 9.78125 6.59375ZM9.125 16C9.14323 15.7266 9.28906 15.5807 9.5625 15.5625H10C10.2734 15.5807 10.4193 15.7266 10.4375 16V16.4375C10.4193 16.7109 10.2734 16.8568 10 16.875H9.5625C9.28906 16.8568 9.14323 16.7109 9.125 16.4375V16ZM11.75 15.5625H12.1875C12.4609 15.5807 12.6068 15.7266 12.625 16V16.4375C12.6068 16.7109 12.4609 16.8568 12.1875 16.875H11.75C11.4766 16.8568 11.3307 16.7109 11.3125 16.4375V16C11.3307 15.7266 11.4766 15.5807 11.75 15.5625Z" fill="black" fill-opacity="0.72"/>
</g>
<defs>
<clipPath id="clip0_1731_3000">
<rect width="13" height="22" fill="white"/>
</clipPath>
</defs>
</svg>
