<svg width="14" height="24" viewBox="0 0 14 24" fill="none" xmlns="http://www.w3.org/2000/svg">
<g id="label-paired / md / placeholder-md / regular" clip-path="url(#clip0_1731_3044)">
<path id="icon" d="M2.75 5H3.5C3.8125 5.02083 3.97917 5.1875 4 5.5C3.97917 5.8125 3.8125 5.97917 3.5 6H2.75C2.25 6.02083 1.83333 6.1875 1.5 6.5C1.1875 6.83333 1.02083 7.25 1 7.75V8.5C0.979167 8.8125 0.8125 8.97917 0.5 9C0.1875 8.97917 0.0208333 8.8125 0 8.5V7.75C0.0208333 6.97917 0.291667 6.33333 0.8125 5.8125C1.33333 5.29167 1.97917 5.02083 2.75 5ZM0.5 10C0.8125 10.0208 0.979167 10.1875 1 10.5V13.5C0.979167 13.8125 0.8125 13.9792 0.5 14C0.1875 13.9792 0.0208333 13.8125 0 13.5V10.5C0.0208333 10.1875 0.1875 10.0208 0.5 10ZM13.5 10C13.8125 10.0208 13.9792 10.1875 14 10.5V13.5C13.9792 13.8125 13.8125 13.9792 13.5 14C13.1875 13.9792 13.0208 13.8125 13 13.5V10.5C13.0208 10.1875 13.1875 10.0208 13.5 10ZM13.5 9C13.1875 8.97917 13.0208 8.8125 13 8.5V7.75C12.9792 7.25 12.8125 6.83333 12.5 6.5C12.1667 6.1875 11.75 6.02083 11.25 6H10.5C10.1875 5.97917 10.0208 5.8125 10 5.5C10.0208 5.1875 10.1875 5.02083 10.5 5H11.25C12.0208 5.02083 12.6667 5.29167 13.1875 5.8125C13.7083 6.33333 13.9792 6.97917 14 7.75V8.5C13.9792 8.8125 13.8125 8.97917 13.5 9ZM14 15.5V16.25C13.9792 17.0208 13.7083 17.6667 13.1875 18.1875C12.6667 18.7083 12.0208 18.9792 11.25 19H10.5C10.1875 18.9792 10.0208 18.8125 10 18.5C10.0208 18.1875 10.1875 18.0208 10.5 18H11.25C11.75 17.9792 12.1667 17.8125 12.5 17.5C12.8125 17.1667 12.9792 16.75 13 16.25V15.5C13.0208 15.1875 13.1875 15.0208 13.5 15C13.8125 15.0208 13.9792 15.1875 14 15.5ZM1 15.5V16.25C1.02083 16.75 1.1875 17.1667 1.5 17.5C1.83333 17.8125 2.25 17.9792 2.75 18H3.5C3.8125 18.0208 3.97917 18.1875 4 18.5C3.97917 18.8125 3.8125 18.9792 3.5 19H2.75C1.97917 18.9792 1.33333 18.7083 0.8125 18.1875C0.291667 17.6667 0.0208333 17.0208 0 16.25V15.5C0.0208333 15.1875 0.1875 15.0208 0.5 15C0.8125 15.0208 0.979167 15.1875 1 15.5ZM5.5 19C5.1875 18.9792 5.02083 18.8125 5 18.5C5.02083 18.1875 5.1875 18.0208 5.5 18H8.5C8.8125 18.0208 8.97917 18.1875 9 18.5C8.97917 18.8125 8.8125 18.9792 8.5 19H5.5ZM5 5.5C5.02083 5.1875 5.1875 5.02083 5.5 5H8.5C8.8125 5.02083 8.97917 5.1875 9 5.5C8.97917 5.8125 8.8125 5.97917 8.5 6H5.5C5.1875 5.97917 5.02083 5.8125 5 5.5Z" fill="black" fill-opacity="0.72"/>
</g>
<defs>
<clipPath id="clip0_1731_3044">
<rect width="14" height="24" fill="white"/>
</clipPath>
</defs>
</svg>
