<svg width="15" height="36" viewBox="0 0 15 36" fill="none" xmlns="http://www.w3.org/2000/svg">
<g id="label-paired / xl / eight-xl / bold" clip-path="url(#clip0_1731_6063)">
<path id="icon" d="M14.25 13.3125C14.1875 15.125 13.5156 16.5938 12.2344 17.7188C13.0781 18.25 13.75 18.9375 14.25 19.7812C14.75 20.6562 15 21.625 15 22.6875C14.9688 24.3438 14.4062 25.7188 13.3125 26.8125C12.2188 27.9062 10.8438 28.4688 9.1875 28.5H5.8125C4.15625 28.4688 2.78125 27.9062 1.6875 26.8125C0.59375 25.7188 0.03125 24.3438 0 22.6875C0 21.625 0.25 20.6562 0.75 19.7812C1.25 18.9375 1.92188 18.25 2.76562 17.7188C1.48438 16.5938 0.8125 15.125 0.75 13.3125C0.78125 11.6562 1.34375 10.2812 2.4375 9.1875C3.53125 8.09375 4.90625 7.53125 6.5625 7.5H8.4375C10.0938 7.53125 11.4688 8.09375 12.5625 9.1875C13.6562 10.2812 14.2188 11.6562 14.25 13.3125ZM8.4375 19.125H6.5625H5.8125C4.8125 19.1562 3.96875 19.5 3.28125 20.1562C2.625 20.8438 2.28125 21.6875 2.25 22.6875C2.28125 23.6875 2.625 24.5312 3.28125 25.2188C3.96875 25.875 4.8125 26.2188 5.8125 26.25H9.1875C10.1875 26.2188 11.0312 25.875 11.7188 25.2188C12.375 24.5312 12.7188 23.6875 12.75 22.6875C12.7188 21.6875 12.375 20.8438 11.7188 20.1562C11.0312 19.5 10.1875 19.1562 9.1875 19.125H8.4375ZM8.4375 16.875C9.4375 16.8438 10.2812 16.5 10.9688 15.8438C11.625 15.1562 11.9688 14.3125 12 13.3125C11.9688 12.3125 11.625 11.4688 10.9688 10.7812C10.2812 10.125 9.4375 9.78125 8.4375 9.75H6.5625C5.5625 9.78125 4.71875 10.125 4.03125 10.7812C3.375 11.4688 3.03125 12.3125 3 13.3125C3.03125 14.3125 3.375 15.1562 4.03125 15.8438C4.71875 16.5 5.5625 16.8438 6.5625 16.875H8.4375Z" fill="black" fill-opacity="0.72"/>
</g>
<defs>
<clipPath id="clip0_1731_6063">
<rect width="15" height="36" fill="white"/>
</clipPath>
</defs>
</svg>
