<svg width="20" height="30" viewBox="0 0 20 30" fill="none" xmlns="http://www.w3.org/2000/svg">
<g id="label-paired / lg / gauge-max-lg / bold" clip-path="url(#clip0_1731_5476)">
<path id="icon" d="M10 23.625C11.4844 23.625 12.8385 23.2604 14.0625 22.5312C15.2865 21.8281 16.276 20.8385 17.0312 19.5625C17.7604 18.2865 18.125 16.9323 18.125 15.5C18.125 14.0677 17.7604 12.7135 17.0312 11.4375C16.276 10.1615 15.2865 9.17188 14.0625 8.46875C12.8385 7.73958 11.4844 7.375 10 7.375C8.51562 7.375 7.16146 7.73958 5.9375 8.46875C4.71354 9.17188 3.72396 10.1615 2.96875 11.4375C2.23958 12.7135 1.875 14.0677 1.875 15.5C1.875 16.9323 2.23958 18.2865 2.96875 19.5625C3.72396 20.8385 4.71354 21.8281 5.9375 22.5312C7.16146 23.2604 8.51562 23.625 10 23.625ZM10 5.5C11.8229 5.52604 13.4896 5.96875 15 6.82812C16.5104 7.71354 17.7344 8.9375 18.6719 10.5C19.5573 12.0885 20 13.7552 20 15.5C20 17.2448 19.5573 18.9115 18.6719 20.5C17.7344 22.0625 16.5104 23.2865 15 24.1719C13.4896 25.0312 11.8229 25.474 10 25.5C8.17708 25.474 6.51042 25.0312 5 24.1719C3.48958 23.2865 2.26562 22.0625 1.32812 20.5C0.442708 18.9115 0 17.2448 0 15.5C0 13.7552 0.442708 12.0885 1.32812 10.5C2.26562 8.9375 3.48958 7.71354 5 6.82812C6.51042 5.96875 8.17708 5.52604 10 5.5ZM11.25 9.875C11.25 10.2396 11.1328 10.5391 10.8984 10.7734C10.6641 11.0078 10.3646 11.125 10 11.125C9.63542 11.125 9.33594 11.0078 9.10156 10.7734C8.86719 10.5391 8.75 10.2396 8.75 9.875C8.75 9.51042 8.86719 9.21094 9.10156 8.97656C9.33594 8.74219 9.63542 8.625 10 8.625C10.3646 8.625 10.6641 8.74219 10.8984 8.97656C11.1328 9.21094 11.25 9.51042 11.25 9.875ZM10 21.4375C9.375 21.4115 8.85417 21.2031 8.4375 20.8125C8.04688 20.3958 7.83854 19.875 7.8125 19.25C7.83854 18.625 8.04688 18.1042 8.4375 17.6875C8.85417 17.2969 9.375 17.0885 10 17.0625C10.4167 17.0625 10.7812 17.1667 11.0938 17.375L15.3906 14.4062C15.9115 14.1198 16.3542 14.2109 16.7188 14.6797C17.0052 15.1745 16.9271 15.6042 16.4844 15.9688L12.1484 18.8984C12.1745 19.0286 12.1875 19.1458 12.1875 19.25C12.1615 19.875 11.9531 20.3958 11.5625 20.8125C11.1458 21.2031 10.625 21.4115 10 21.4375ZM15 11.75C15 12.1146 14.8828 12.4141 14.6484 12.6484C14.4141 12.8828 14.1146 13 13.75 13C13.3854 13 13.0859 12.8828 12.8516 12.6484C12.6172 12.4141 12.5 12.1146 12.5 11.75C12.5 11.3854 12.6172 11.0859 12.8516 10.8516C13.0859 10.6172 13.3854 10.5 13.75 10.5C14.1146 10.5 14.4141 10.6172 14.6484 10.8516C14.8828 11.0859 15 11.3854 15 11.75ZM4.375 14.25C4.73958 14.25 5.03906 14.3672 5.27344 14.6016C5.50781 14.8359 5.625 15.1354 5.625 15.5C5.625 15.8646 5.50781 16.1641 5.27344 16.3984C5.03906 16.6328 4.73958 16.75 4.375 16.75C4.01042 16.75 3.71094 16.6328 3.47656 16.3984C3.24219 16.1641 3.125 15.8646 3.125 15.5C3.125 15.1354 3.24219 14.8359 3.47656 14.6016C3.71094 14.3672 4.01042 14.25 4.375 14.25ZM7.5 11.75C7.5 12.1146 7.38281 12.4141 7.14844 12.6484C6.91406 12.8828 6.61458 13 6.25 13C5.88542 13 5.58594 12.8828 5.35156 12.6484C5.11719 12.4141 5 12.1146 5 11.75C5 11.3854 5.11719 11.0859 5.35156 10.8516C5.58594 10.6172 5.88542 10.5 6.25 10.5C6.61458 10.5 6.91406 10.6172 7.14844 10.8516C7.38281 11.0859 7.5 11.3854 7.5 11.75Z" fill="black" fill-opacity="0.72"/>
</g>
<defs>
<clipPath id="clip0_1731_5476">
<rect width="20" height="30" fill="white"/>
</clipPath>
</defs>
</svg>
