<svg width="16" height="24" viewBox="0 0 16 24" fill="none" xmlns="http://www.w3.org/2000/svg">
<g id="label-paired / md / app-store-md" clip-path="url(#clip0_1731_13959)">
<path id="icon" d="M8 7.78125L7.71875 7.28125C7.48958 6.96875 7.19792 6.89583 6.84375 7.0625C6.53125 7.29167 6.45833 7.58333 6.625 7.9375L7.25 9.0625L5.1875 12.6562H3.5625C3.16667 12.6979 2.94792 12.9167 2.90625 13.3125C2.94792 13.6875 3.16667 13.8958 3.5625 13.9375H9.34375C9.48958 13.6458 9.48958 13.3646 9.34375 13.0938C9.19792 12.8229 8.95833 12.6771 8.625 12.6562H6.65625L9.375 7.9375C9.54167 7.58333 9.46875 7.29167 9.15625 7.0625C8.80208 6.89583 8.51042 6.96875 8.28125 7.28125L8 7.78125ZM5.53125 14.5938C5.19792 14.1979 4.78125 14.0729 4.28125 14.2188L3.8125 15.0312C3.64583 15.3854 3.72917 15.6667 4.0625 15.875C4.41667 16.0417 4.70833 15.9688 4.9375 15.6562L5.53125 14.5938ZM10.8125 12.6562C10.75 12.5521 10.6979 12.4583 10.6562 12.375C9.90625 11.0625 9.33333 10.0729 8.9375 9.40625C8.72917 9.57292 8.57292 9.85417 8.46875 10.25C8.38542 10.6667 8.46875 11.1042 8.71875 11.5625C8.96875 12 9.27083 12.5312 9.625 13.1562C10.0417 13.8646 10.5208 14.6979 11.0625 15.6562C11.2917 15.9688 11.5833 16.0417 11.9375 15.875C12.25 15.6667 12.3333 15.375 12.1875 15L11.5625 13.9375H12.4688C12.8646 13.8958 13.0833 13.6875 13.125 13.3125C13.0833 12.9167 12.8646 12.6979 12.4688 12.6562H10.8125ZM8 4.25C9.4375 4.27083 10.7396 4.625 11.9062 5.3125C13.0729 6 14 6.92708 14.6875 8.09375C15.375 9.26042 15.7292 10.5625 15.75 12C15.7292 13.4375 15.375 14.7396 14.6875 15.9062C14 17.0729 13.0729 18 11.9062 18.6875C10.7396 19.375 9.4375 19.7292 8 19.75C6.5625 19.7292 5.26042 19.375 4.09375 18.6875C2.92708 18 2 17.0729 1.3125 15.9062C0.625 14.7396 0.270833 13.4375 0.25 12C0.270833 10.5625 0.625 9.26042 1.3125 8.09375C2 6.92708 2.92708 6 4.09375 5.3125C5.26042 4.625 6.5625 4.27083 8 4.25ZM14.75 12C14.7083 10.0833 14.0521 8.48958 12.7812 7.21875C11.4896 5.94792 9.89583 5.29167 8 5.25C6.08333 5.29167 4.48958 5.94792 3.21875 7.21875C1.94792 8.51042 1.29167 10.1042 1.25 12C1.29167 13.9167 1.94792 15.5104 3.21875 16.7812C4.51042 18.0521 6.10417 18.7083 8 18.75C9.91667 18.7083 11.5104 18.0521 12.7812 16.7812C14.0521 15.4896 14.7083 13.8958 14.75 12Z" fill="black" fill-opacity="0.72"/>
</g>
<defs>
<clipPath id="clip0_1731_13959">
<rect width="16" height="24" fill="white"/>
</clipPath>
</defs>
</svg>
