<svg width="21" height="36" viewBox="0 0 21 36" fill="none" xmlns="http://www.w3.org/2000/svg">
<g id="label-paired / xl / ellipsis-xl / regular" clip-path="url(#clip0_1731_5761)">
<path id="icon" d="M19.5 18C19.5 18.4375 19.3594 18.7969 19.0781 19.0781C18.7969 19.3594 18.4375 19.5 18 19.5C17.5625 19.5 17.2031 19.3594 16.9219 19.0781C16.6406 18.7969 16.5 18.4375 16.5 18C16.5 17.5625 16.6406 17.2031 16.9219 16.9219C17.2031 16.6406 17.5625 16.5 18 16.5C18.4375 16.5 18.7969 16.6406 19.0781 16.9219C19.3594 17.2031 19.5 17.5625 19.5 18ZM12 18C12 18.4375 11.8594 18.7969 11.5781 19.0781C11.2969 19.3594 10.9375 19.5 10.5 19.5C10.0625 19.5 9.70312 19.3594 9.42188 19.0781C9.14062 18.7969 9 18.4375 9 18C9 17.5625 9.14062 17.2031 9.42188 16.9219C9.70312 16.6406 10.0625 16.5 10.5 16.5C10.9375 16.5 11.2969 16.6406 11.5781 16.9219C11.8594 17.2031 12 17.5625 12 18ZM3 19.5C2.5625 19.5 2.20312 19.3594 1.92188 19.0781C1.64062 18.7969 1.5 18.4375 1.5 18C1.5 17.5625 1.64062 17.2031 1.92188 16.9219C2.20312 16.6406 2.5625 16.5 3 16.5C3.4375 16.5 3.79688 16.6406 4.07812 16.9219C4.35938 17.2031 4.5 17.5625 4.5 18C4.5 18.4375 4.35938 18.7969 4.07812 19.0781C3.79688 19.3594 3.4375 19.5 3 19.5Z" fill="black" fill-opacity="0.72"/>
</g>
<defs>
<clipPath id="clip0_1731_5761">
<rect width="21" height="36" fill="white"/>
</clipPath>
</defs>
</svg>
