<svg width="12" height="18" viewBox="0 0 12 18" fill="none" xmlns="http://www.w3.org/2000/svg">
<g id="label-paired / caption / circle-six-caption / bold" clip-path="url(#clip0_1731_1072)">
<path id="icon" d="M10.875 9.5C10.875 8.60938 10.6562 7.79688 10.2188 7.0625C9.79688 6.32812 9.20312 5.73438 8.4375 5.28125C7.67188 4.84375 6.85938 4.625 6 4.625C5.14062 4.625 4.32812 4.84375 3.5625 5.28125C2.79688 5.73438 2.20312 6.32812 1.78125 7.0625C1.34375 7.79688 1.125 8.60938 1.125 9.5C1.125 10.3906 1.34375 11.2031 1.78125 11.9375C2.20312 12.6719 2.79688 13.2656 3.5625 13.7188C4.32812 14.1562 5.14062 14.375 6 14.375C6.85938 14.375 7.67188 14.1562 8.4375 13.7188C9.20312 13.2656 9.79688 12.6719 10.2188 11.9375C10.6562 11.2031 10.875 10.3906 10.875 9.5ZM0 9.5C0.015625 8.40625 0.28125 7.40625 0.796875 6.5C1.32812 5.59375 2.0625 4.85938 3 4.29688C3.95312 3.76562 4.95312 3.5 6 3.5C7.04688 3.5 8.04688 3.76562 9 4.29688C9.9375 4.85938 10.6719 5.59375 11.2031 6.5C11.7188 7.40625 11.9844 8.40625 12 9.5C11.9844 10.5938 11.7188 11.5938 11.2031 12.5C10.6719 13.4062 9.9375 14.1406 9 14.7031C8.04688 15.2344 7.04688 15.5 6 15.5C4.95312 15.5 3.95312 15.2344 3 14.7031C2.0625 14.1406 1.32812 13.4062 0.796875 12.5C0.28125 11.5938 0.015625 10.5938 0 9.5ZM6 11.375C6.42188 11.3594 6.75 11.1719 6.98438 10.8125C7.17188 10.4375 7.17188 10.0625 6.98438 9.6875C6.75 9.32812 6.42188 9.14062 6 9.125C5.57812 9.14062 5.25 9.32812 5.01562 9.6875C4.82812 10.0625 4.82812 10.4375 5.01562 10.8125C5.25 11.1719 5.57812 11.3594 6 11.375ZM3.75 10.25C3.76562 9.45312 4.07031 8.79688 4.66406 8.28125L6.5625 6.64062C6.84375 6.4375 7.10938 6.45312 7.35938 6.6875C7.5625 6.96875 7.54688 7.23438 7.3125 7.48438L6.60938 8.09375C7.09375 8.23438 7.48438 8.5 7.78125 8.89062C8.07812 9.26562 8.23438 9.71875 8.25 10.25C8.23438 10.8906 8.01562 11.4219 7.59375 11.8438C7.17188 12.2656 6.64062 12.4844 6 12.5C5.35938 12.4844 4.82812 12.2656 4.40625 11.8438C3.98438 11.4219 3.76562 10.8906 3.75 10.25Z" fill="black" fill-opacity="0.72"/>
</g>
<defs>
<clipPath id="clip0_1731_1072">
<rect width="12" height="18" fill="white"/>
</clipPath>
</defs>
</svg>
