<svg width="15" height="30" viewBox="0 0 15 30" fill="none" xmlns="http://www.w3.org/2000/svg">
<g id="label-paired / lg / microphone-lg / bold" clip-path="url(#clip0_1731_5044)">
<path id="icon" d="M9.375 9.25C9.34896 8.72917 9.16667 8.28646 8.82812 7.92188C8.46354 7.58333 8.02083 7.40104 7.5 7.375C6.97917 7.40104 6.53646 7.58333 6.17188 7.92188C5.83333 8.28646 5.65104 8.72917 5.625 9.25V15.5C5.65104 16.0208 5.83333 16.4635 6.17188 16.8281C6.53646 17.1667 6.97917 17.349 7.5 17.375C8.02083 17.349 8.46354 17.1667 8.82812 16.8281C9.16667 16.4635 9.34896 16.0208 9.375 15.5V9.25ZM3.75 9.25C3.77604 8.18229 4.14062 7.29688 4.84375 6.59375C5.54688 5.89062 6.43229 5.52604 7.5 5.5C8.56771 5.52604 9.45312 5.89062 10.1562 6.59375C10.8594 7.29688 11.224 8.18229 11.25 9.25V15.5C11.224 16.5677 10.8594 17.4531 10.1562 18.1562C9.45312 18.8594 8.56771 19.224 7.5 19.25C6.43229 19.224 5.54688 18.8594 4.84375 18.1562C4.14062 17.4531 3.77604 16.5677 3.75 15.5V9.25ZM2.5 13.9375V15.5C2.52604 16.9062 3.00781 18.0911 3.94531 19.0547C4.90885 19.9922 6.09375 20.474 7.5 20.5C8.90625 20.474 10.0911 19.9922 11.0547 19.0547C11.9922 18.0911 12.474 16.9062 12.5 15.5V13.9375C12.5521 13.3646 12.8646 13.0521 13.4375 13C14.0104 13.0521 14.3229 13.3646 14.375 13.9375V15.5C14.349 17.2708 13.776 18.7812 12.6562 20.0312C11.5625 21.2812 10.1562 22.0365 8.4375 22.2969V23.625H10.3125C10.8854 23.6771 11.1979 23.9896 11.25 24.5625C11.1979 25.1354 10.8854 25.4479 10.3125 25.5H7.5H4.6875C4.11458 25.4479 3.80208 25.1354 3.75 24.5625C3.80208 23.9896 4.11458 23.6771 4.6875 23.625H6.5625V22.2969C4.84375 22.0365 3.4375 21.2812 2.34375 20.0312C1.22396 18.7812 0.651042 17.2708 0.625 15.5V13.9375C0.677083 13.3646 0.989583 13.0521 1.5625 13C2.13542 13.0521 2.44792 13.3646 2.5 13.9375Z" fill="black" fill-opacity="0.72"/>
</g>
<defs>
<clipPath id="clip0_1731_5044">
<rect width="15" height="30" fill="white"/>
</clipPath>
</defs>
</svg>
