<svg width="27" height="36" viewBox="0 0 27 36" fill="none" xmlns="http://www.w3.org/2000/svg">
<g id="label-paired / xl / rectangle-ad-xl / bold" clip-path="url(#clip0_1731_6377)">
<path id="icon" d="M3 9.75C2.53125 9.78125 2.28125 10.0312 2.25 10.5V25.5C2.28125 25.9688 2.53125 26.2188 3 26.25H24C24.4688 26.2188 24.7188 25.9688 24.75 25.5V10.5C24.7188 10.0312 24.4688 9.78125 24 9.75H3ZM0 10.5C0.03125 9.65625 0.328125 8.95312 0.890625 8.39062C1.45312 7.82812 2.15625 7.53125 3 7.5H24C24.8438 7.53125 25.5469 7.82812 26.1094 8.39062C26.6719 8.95312 26.9688 9.65625 27 10.5V25.5C26.9688 26.3438 26.6719 27.0469 26.1094 27.6094C25.5469 28.1719 24.8438 28.4688 24 28.5H3C2.15625 28.4688 1.45312 28.1719 0.890625 27.6094C0.328125 27.0469 0.03125 26.3438 0 25.5V10.5ZM10.7812 14.1094L14.1562 20.8594C14.375 21.5156 14.2031 22.0312 13.6406 22.4062C12.9844 22.625 12.4844 22.4531 12.1406 21.8906L11.8594 21.375H7.64062L7.35938 21.8906C7.01562 22.4531 6.51562 22.6094 5.85938 22.3594C5.26562 22.0156 5.10938 21.5156 5.39062 20.8594L8.76562 14.1094C8.98438 13.7031 9.3125 13.5 9.75 13.5C10.2188 13.5 10.5625 13.7031 10.7812 14.1094ZM9.75 17.1562L8.76562 19.125H10.7344L9.75 17.1562ZM18.375 18C17.6875 18.0625 17.3125 18.4375 17.25 19.125C17.3125 19.8125 17.6875 20.1875 18.375 20.25C19.0625 20.1875 19.4375 19.8125 19.5 19.125C19.4375 18.4375 19.0625 18.0625 18.375 18ZM19.5 15.9375V14.625C19.5625 13.9375 19.9375 13.5625 20.625 13.5C21.3125 13.5625 21.6875 13.9375 21.75 14.625V19.125V21.375C21.6875 22.0625 21.3125 22.4375 20.625 22.5C20.3125 22.5 20.0469 22.3906 19.8281 22.1719C19.3906 22.3906 18.9062 22.5 18.375 22.5C17.4062 22.4688 16.6094 22.1406 15.9844 21.5156C15.3594 20.8906 15.0312 20.0938 15 19.125C15.0312 18.1562 15.3594 17.3594 15.9844 16.7344C16.6094 16.1094 17.4062 15.7812 18.375 15.75C18.7812 15.75 19.1562 15.8125 19.5 15.9375Z" fill="black" fill-opacity="0.72"/>
</g>
<defs>
<clipPath id="clip0_1731_6377">
<rect width="27" height="36" fill="white"/>
</clipPath>
</defs>
</svg>
