<svg width="15" height="18" viewBox="0 0 15 18" fill="none" xmlns="http://www.w3.org/2000/svg">
<g id="label-paired / caption / computer-caption / regular" clip-path="url(#clip0_1731_1394)">
<path id="icon" d="M9 5H1.5C1.28125 5 1.10156 5.07031 0.960938 5.21094C0.820312 5.35156 0.75 5.53125 0.75 5.75V11C0.75 11.2188 0.820312 11.3984 0.960938 11.5391C1.10156 11.6797 1.28125 11.75 1.5 11.75H4.05469H4.3125H6.1875H6.46875H9C9.21875 11.75 9.39844 11.6797 9.53906 11.5391C9.67969 11.3984 9.75 11.2188 9.75 11V5.75C9.75 5.53125 9.67969 5.35156 9.53906 5.21094C9.39844 5.07031 9.21875 5 9 5ZM1.5 12.5C1.07812 12.4844 0.726562 12.3359 0.445312 12.0547C0.164062 11.7734 0.015625 11.4219 0 11V5.75C0.015625 5.32812 0.164062 4.97656 0.445312 4.69531C0.726562 4.41406 1.07812 4.26562 1.5 4.25H9C9.42188 4.26562 9.77344 4.41406 10.0547 4.69531C10.3359 4.97656 10.4844 5.32812 10.5 5.75V11C10.4844 11.4219 10.3359 11.7734 10.0547 12.0547C9.77344 12.3359 9.42188 12.4844 9 12.5H6.70312L7.21875 14H8.625C8.85938 14.0156 8.98438 14.1406 9 14.375C8.98438 14.6094 8.85938 14.7344 8.625 14.75H7.45312H6.9375H3.5625H3.04688H1.875C1.64062 14.7344 1.51562 14.6094 1.5 14.375C1.51562 14.1406 1.64062 14.0156 1.875 14H3.30469L3.79688 12.5H1.5ZM4.07812 14H6.42188L5.90625 12.5H4.59375L4.07812 14ZM12.375 5C12.1406 5.01562 12.0156 5.14062 12 5.375V6.5H14.25V5.375C14.2344 5.14062 14.1094 5.01562 13.875 5H12.375ZM12 7.25V8H14.25V7.25H12ZM12 13.625C12.0156 13.8594 12.1406 13.9844 12.375 14H13.875C14.1094 13.9844 14.2344 13.8594 14.25 13.625V8.75H12V13.625ZM11.25 5.375C11.2656 5.0625 11.375 4.79688 11.5781 4.57812C11.7969 4.375 12.0625 4.26562 12.375 4.25H13.875C14.1875 4.26562 14.4531 4.375 14.6719 4.57812C14.875 4.79688 14.9844 5.0625 15 5.375V13.625C14.9844 13.9375 14.875 14.2031 14.6719 14.4219C14.4531 14.625 14.1875 14.7344 13.875 14.75H12.375C12.0625 14.7344 11.7969 14.625 11.5781 14.4219C11.375 14.2031 11.2656 13.9375 11.25 13.625V5.375ZM13.125 11.9375C12.7812 11.9062 12.5938 11.7188 12.5625 11.375C12.5938 11.0312 12.7812 10.8438 13.125 10.8125C13.4688 10.8438 13.6562 11.0312 13.6875 11.375C13.6562 11.7188 13.4688 11.9062 13.125 11.9375Z" fill="black" fill-opacity="0.72"/>
</g>
<defs>
<clipPath id="clip0_1731_1394">
<rect width="15" height="18" fill="white"/>
</clipPath>
</defs>
</svg>
