<svg width="20" height="24" viewBox="0 0 20 24" fill="none" xmlns="http://www.w3.org/2000/svg">
<g id="label-paired / md / deal-protection-md / bold" clip-path="url(#clip0_1731_3277)">
<path id="icon" d="M2.5625 7.8125H5.71875C6.25 7.8125 6.75 7.90625 7.21875 8.09375C7.6875 8.25 8.0625 8.53125 8.375 8.875C8.6875 9.21875 8.9375 9.65625 9.125 10.1875C9.3125 10.7188 9.375 11.3125 9.375 12C9.375 12.7188 9.3125 13.3125 9.125 13.8438C8.9375 14.375 8.6875 14.8125 8.375 15.1562C8.0625 15.5 7.6875 15.75 7.21875 15.9375C6.78125 16.125 6.25 16.2188 5.71875 16.2188H2.5625V7.8125ZM5.71875 14.5938C6.25 14.5938 6.6875 14.4375 7 14.125C7.3125 13.8125 7.46875 13.3438 7.46875 12.6562V11.375C7.46875 10.6875 7.3125 10.2188 7 9.90625C6.6875 9.59375 6.25 9.4375 5.71875 9.4375H4.375V14.5938H5.71875ZM10.9062 16.1875V7.8125H14.875C15.2812 7.8125 15.625 7.90625 15.9375 8.03125C16.25 8.15625 16.5 8.34375 16.7188 8.5625C16.9375 8.8125 17.125 9.09375 17.25 9.4375C17.3438 9.75 17.4062 10.125 17.4062 10.5C17.4062 10.9062 17.375 11.2812 17.25 11.5938C17.125 11.9375 16.9375 12.2188 16.7188 12.4375C16.5 12.6562 16.25 12.8438 15.9375 13C15.625 13.125 15.2812 13.1875 14.875 13.1875H12.75V16.1875H10.9062ZM12.75 11.5938H14.6562C14.9375 11.5938 15.1562 11.5312 15.3125 11.375C15.4688 11.25 15.5312 11.0312 15.5312 10.75V10.25C15.5312 9.96875 15.4688 9.75 15.3125 9.625C15.1562 9.46875 14.9375 9.40625 14.6562 9.40625H12.75V11.5938Z" fill="black" fill-opacity="0.72"/>
</g>
<defs>
<clipPath id="clip0_1731_3277">
<rect width="20" height="24" fill="white"/>
</clipPath>
</defs>
</svg>
