<svg width="11" height="18" viewBox="0 0 11 18" fill="none" xmlns="http://www.w3.org/2000/svg">
<g id="label-paired / caption / grid-caption / regular" clip-path="url(#clip0_1731_644)">
<path id="icon" d="M2.3125 5H1.1875C1.07812 5.01562 1.01562 5.07812 1 5.1875V6.3125C1.01562 6.42188 1.07812 6.48438 1.1875 6.5H2.3125C2.42188 6.48438 2.48438 6.42188 2.5 6.3125V5.1875C2.48438 5.07812 2.42188 5.01562 2.3125 5ZM1.1875 4.25H2.3125C2.57812 4.25 2.79688 4.34375 2.96875 4.53125C3.15625 4.70312 3.25 4.92188 3.25 5.1875V6.3125C3.25 6.57812 3.15625 6.79688 2.96875 6.96875C2.79688 7.15625 2.57812 7.25 2.3125 7.25H1.1875C0.921875 7.25 0.703125 7.15625 0.53125 6.96875C0.34375 6.79688 0.25 6.57812 0.25 6.3125V5.1875C0.25 4.92188 0.34375 4.70312 0.53125 4.53125C0.703125 4.34375 0.921875 4.25 1.1875 4.25ZM2.3125 8.75H1.1875C1.07812 8.76562 1.01562 8.82812 1 8.9375V10.0625C1.01562 10.1719 1.07812 10.2344 1.1875 10.25H2.3125C2.42188 10.2344 2.48438 10.1719 2.5 10.0625V8.9375C2.48438 8.82812 2.42188 8.76562 2.3125 8.75ZM1.1875 8H2.3125C2.57812 8 2.79688 8.09375 2.96875 8.28125C3.15625 8.45312 3.25 8.67188 3.25 8.9375V10.0625C3.25 10.3281 3.15625 10.5469 2.96875 10.7188C2.79688 10.9062 2.57812 11 2.3125 11H1.1875C0.921875 11 0.703125 10.9062 0.53125 10.7188C0.34375 10.5469 0.25 10.3281 0.25 10.0625V8.9375C0.25 8.67188 0.34375 8.45312 0.53125 8.28125C0.703125 8.09375 0.921875 8 1.1875 8ZM1.1875 12.5C1.07812 12.5156 1.01562 12.5781 1 12.6875V13.8125C1.01562 13.9219 1.07812 13.9844 1.1875 14H2.3125C2.42188 13.9844 2.48438 13.9219 2.5 13.8125V12.6875C2.48438 12.5781 2.42188 12.5156 2.3125 12.5H1.1875ZM0.25 12.6875C0.25 12.4219 0.34375 12.2031 0.53125 12.0312C0.703125 11.8438 0.921875 11.75 1.1875 11.75H2.3125C2.57812 11.75 2.79688 11.8438 2.96875 12.0312C3.15625 12.2031 3.25 12.4219 3.25 12.6875V13.8125C3.25 14.0781 3.15625 14.2969 2.96875 14.4688C2.79688 14.6562 2.57812 14.75 2.3125 14.75H1.1875C0.921875 14.75 0.703125 14.6562 0.53125 14.4688C0.34375 14.2969 0.25 14.0781 0.25 13.8125V12.6875ZM6.0625 5H4.9375C4.82812 5.01562 4.76562 5.07812 4.75 5.1875V6.3125C4.76562 6.42188 4.82812 6.48438 4.9375 6.5H6.0625C6.17188 6.48438 6.23438 6.42188 6.25 6.3125V5.1875C6.23438 5.07812 6.17188 5.01562 6.0625 5ZM4.9375 4.25H6.0625C6.32812 4.25 6.54688 4.34375 6.71875 4.53125C6.90625 4.70312 7 4.92188 7 5.1875V6.3125C7 6.57812 6.90625 6.79688 6.71875 6.96875C6.54688 7.15625 6.32812 7.25 6.0625 7.25H4.9375C4.67188 7.25 4.45312 7.15625 4.28125 6.96875C4.09375 6.79688 4 6.57812 4 6.3125V5.1875C4 4.92188 4.09375 4.70312 4.28125 4.53125C4.45312 4.34375 4.67188 4.25 4.9375 4.25ZM4.9375 8.75C4.82812 8.76562 4.76562 8.82812 4.75 8.9375V10.0625C4.76562 10.1719 4.82812 10.2344 4.9375 10.25H6.0625C6.17188 10.2344 6.23438 10.1719 6.25 10.0625V8.9375C6.23438 8.82812 6.17188 8.76562 6.0625 8.75H4.9375ZM4 8.9375C4 8.67188 4.09375 8.45312 4.28125 8.28125C4.45312 8.09375 4.67188 8 4.9375 8H6.0625C6.32812 8 6.54688 8.09375 6.71875 8.28125C6.90625 8.45312 7 8.67188 7 8.9375V10.0625C7 10.3281 6.90625 10.5469 6.71875 10.7188C6.54688 10.9062 6.32812 11 6.0625 11H4.9375C4.67188 11 4.45312 10.9062 4.28125 10.7188C4.09375 10.5469 4 10.3281 4 10.0625V8.9375ZM6.0625 12.5H4.9375C4.82812 12.5156 4.76562 12.5781 4.75 12.6875V13.8125C4.76562 13.9219 4.82812 13.9844 4.9375 14H6.0625C6.17188 13.9844 6.23438 13.9219 6.25 13.8125V12.6875C6.23438 12.5781 6.17188 12.5156 6.0625 12.5ZM4.9375 11.75H6.0625C6.32812 11.75 6.54688 11.8438 6.71875 12.0312C6.90625 12.2031 7 12.4219 7 12.6875V13.8125C7 14.0781 6.90625 14.2969 6.71875 14.4688C6.54688 14.6562 6.32812 14.75 6.0625 14.75H4.9375C4.67188 14.75 4.45312 14.6562 4.28125 14.4688C4.09375 14.2969 4 14.0781 4 13.8125V12.6875C4 12.4219 4.09375 12.2031 4.28125 12.0312C4.45312 11.8438 4.67188 11.75 4.9375 11.75ZM8.6875 5C8.57812 5.01562 8.51562 5.07812 8.5 5.1875V6.3125C8.51562 6.42188 8.57812 6.48438 8.6875 6.5H9.8125C9.92188 6.48438 9.98438 6.42188 10 6.3125V5.1875C9.98438 5.07812 9.92188 5.01562 9.8125 5H8.6875ZM7.75 5.1875C7.75 4.92188 7.84375 4.70312 8.03125 4.53125C8.20312 4.34375 8.42188 4.25 8.6875 4.25H9.8125C10.0781 4.25 10.2969 4.34375 10.4688 4.53125C10.6562 4.70312 10.75 4.92188 10.75 5.1875V6.3125C10.75 6.57812 10.6562 6.79688 10.4688 6.96875C10.2969 7.15625 10.0781 7.25 9.8125 7.25H8.6875C8.42188 7.25 8.20312 7.15625 8.03125 6.96875C7.84375 6.79688 7.75 6.57812 7.75 6.3125V5.1875ZM9.8125 8.75H8.6875C8.57812 8.76562 8.51562 8.82812 8.5 8.9375V10.0625C8.51562 10.1719 8.57812 10.2344 8.6875 10.25H9.8125C9.92188 10.2344 9.98438 10.1719 10 10.0625V8.9375C9.98438 8.82812 9.92188 8.76562 9.8125 8.75ZM8.6875 8H9.8125C10.0781 8 10.2969 8.09375 10.4688 8.28125C10.6562 8.45312 10.75 8.67188 10.75 8.9375V10.0625C10.75 10.3281 10.6562 10.5469 10.4688 10.7188C10.2969 10.9062 10.0781 11 9.8125 11H8.6875C8.42188 11 8.20312 10.9062 8.03125 10.7188C7.84375 10.5469 7.75 10.3281 7.75 10.0625V8.9375C7.75 8.67188 7.84375 8.45312 8.03125 8.28125C8.20312 8.09375 8.42188 8 8.6875 8ZM8.6875 12.5C8.57812 12.5156 8.51562 12.5781 8.5 12.6875V13.8125C8.51562 13.9219 8.57812 13.9844 8.6875 14H9.8125C9.92188 13.9844 9.98438 13.9219 10 13.8125V12.6875C9.98438 12.5781 9.92188 12.5156 9.8125 12.5H8.6875ZM7.75 12.6875C7.75 12.4219 7.84375 12.2031 8.03125 12.0312C8.20312 11.8438 8.42188 11.75 8.6875 11.75H9.8125C10.0781 11.75 10.2969 11.8438 10.4688 12.0312C10.6562 12.2031 10.75 12.4219 10.75 12.6875V13.8125C10.75 14.0781 10.6562 14.2969 10.4688 14.4688C10.2969 14.6562 10.0781 14.75 9.8125 14.75H8.6875C8.42188 14.75 8.20312 14.6562 8.03125 14.4688C7.84375 14.2969 7.75 14.0781 7.75 13.8125V12.6875Z" fill="black" fill-opacity="0.72"/>
</g>
<defs>
<clipPath id="clip0_1731_644">
<rect width="11" height="18" fill="white"/>
</clipPath>
</defs>
</svg>
