<svg width="16" height="24" viewBox="0 0 16 24" fill="none" xmlns="http://www.w3.org/2000/svg">
<g id="label-paired / md / circle-one-md / bold" clip-path="url(#clip0_1731_3563)">
<path id="icon" d="M14.5 12C14.5 10.8125 14.2083 9.72917 13.625 8.75C13.0625 7.77083 12.2708 6.97917 11.25 6.375C10.2292 5.79167 9.14583 5.5 8 5.5C6.85417 5.5 5.77083 5.79167 4.75 6.375C3.72917 6.97917 2.9375 7.77083 2.375 8.75C1.79167 9.72917 1.5 10.8125 1.5 12C1.5 13.1875 1.79167 14.2708 2.375 15.25C2.9375 16.2292 3.72917 17.0208 4.75 17.625C5.77083 18.2083 6.85417 18.5 8 18.5C9.14583 18.5 10.2292 18.2083 11.25 17.625C12.2708 17.0208 13.0625 16.2292 13.625 15.25C14.2083 14.2708 14.5 13.1875 14.5 12ZM0 12C0.0208333 10.5417 0.375 9.20833 1.0625 8C1.77083 6.79167 2.75 5.8125 4 5.0625C5.27083 4.35417 6.60417 4 8 4C9.39583 4 10.7292 4.35417 12 5.0625C13.25 5.8125 14.2292 6.79167 14.9375 8C15.625 9.20833 15.9792 10.5417 16 12C15.9792 13.4583 15.625 14.7917 14.9375 16C14.2292 17.2083 13.25 18.1875 12 18.9375C10.7292 19.6458 9.39583 20 8 20C6.60417 20 5.27083 19.6458 4 18.9375C2.75 18.1875 1.77083 17.2083 1.0625 16C0.375 14.7917 0.0208333 13.4583 0 12ZM8.375 8.09375C8.625 8.23958 8.75 8.45833 8.75 8.75V14.5H10C10.4583 14.5417 10.7083 14.7917 10.75 15.25C10.7083 15.7083 10.4583 15.9583 10 16H8H6C5.54167 15.9583 5.29167 15.7083 5.25 15.25C5.29167 14.7917 5.54167 14.5417 6 14.5H7.25V10.0312L6.625 10.4062C6.20833 10.5938 5.86458 10.5 5.59375 10.125C5.40625 9.70833 5.5 9.36458 5.875 9.09375L7.625 8.09375C7.875 7.96875 8.125 7.96875 8.375 8.09375Z" fill="black" fill-opacity="0.72"/>
</g>
<defs>
<clipPath id="clip0_1731_3563">
<rect width="16" height="24" fill="white"/>
</clipPath>
</defs>
</svg>
