<svg width="16" height="24" viewBox="0 0 16 24" fill="none" xmlns="http://www.w3.org/2000/svg">
<g id="label-paired / md / facebook-md" clip-path="url(#clip0_1731_13974)">
<path id="icon" d="M15.75 12C15.7083 13.9792 15.0833 15.6667 13.875 17.0625C12.6667 18.4583 11.1146 19.3229 9.21875 19.6562V14.25H11.0312L11.375 12H9.21875V10.5312C9.19792 10.2188 9.28125 9.94792 9.46875 9.71875C9.65625 9.46875 9.98958 9.34375 10.4688 9.34375H11.4375V7.4375C11.4167 7.41667 11.2396 7.38542 10.9062 7.34375C10.5521 7.30208 10.1562 7.28125 9.71875 7.28125C8.82292 7.28125 8.11458 7.54167 7.59375 8.0625C7.07292 8.58333 6.80208 9.32292 6.78125 10.2812V12H4.8125V14.25H6.78125V19.6562C4.88542 19.3229 3.33333 18.4583 2.125 17.0625C0.916667 15.6667 0.291667 13.9792 0.25 12C0.270833 10.5625 0.625 9.26042 1.3125 8.09375C2 6.92708 2.92708 6 4.09375 5.3125C5.26042 4.625 6.5625 4.27083 8 4.25C9.4375 4.27083 10.7396 4.625 11.9062 5.3125C13.0729 6 14 6.92708 14.6875 8.09375C15.375 9.26042 15.7292 10.5625 15.75 12Z" fill="black" fill-opacity="0.72"/>
</g>
<defs>
<clipPath id="clip0_1731_13974">
<rect width="16" height="24" fill="white"/>
</clipPath>
</defs>
</svg>
