<svg width="24" height="36" viewBox="0 0 24 36" fill="none" xmlns="http://www.w3.org/2000/svg">
<g id="label-paired / xl / table-layout-xl / bold" clip-path="url(#clip0_1731_6520)">
<path id="icon" d="M21 9.75H3C2.53125 9.78125 2.28125 10.0312 2.25 10.5V13.5H21.75V10.5C21.7188 10.0312 21.4688 9.78125 21 9.75ZM2.25 25.5C2.28125 25.9688 2.53125 26.2188 3 26.25H6.75V15.75H2.25V25.5ZM9 26.25H21C21.4688 26.2188 21.7188 25.9688 21.75 25.5V15.75H9V26.25ZM3 7.5H21C21.8438 7.53125 22.5469 7.82812 23.1094 8.39062C23.6719 8.95312 23.9688 9.65625 24 10.5V25.5C23.9688 26.3438 23.6719 27.0469 23.1094 27.6094C22.5469 28.1719 21.8438 28.4688 21 28.5H3C2.15625 28.4688 1.45312 28.1719 0.890625 27.6094C0.328125 27.0469 0.03125 26.3438 0 25.5V10.5C0.03125 9.65625 0.328125 8.95312 0.890625 8.39062C1.45312 7.82812 2.15625 7.53125 3 7.5Z" fill="black" fill-opacity="0.72"/>
</g>
<defs>
<clipPath id="clip0_1731_6520">
<rect width="24" height="36" fill="white"/>
</clipPath>
</defs>
</svg>
