<svg width="11" height="18" viewBox="0 0 11 18" fill="none" xmlns="http://www.w3.org/2000/svg">
<g id="label-paired / caption / qrcode-caption / bold" clip-path="url(#clip0_1731_1744)">
<path id="icon" d="M3.625 5.375H1.375V7.625H3.625V5.375ZM1.375 4.25H3.625C3.9375 4.26562 4.20312 4.375 4.42188 4.57812C4.625 4.79688 4.73438 5.0625 4.75 5.375V7.625C4.73438 7.9375 4.625 8.20312 4.42188 8.42188C4.20312 8.625 3.9375 8.73438 3.625 8.75H1.375C1.0625 8.73438 0.796875 8.625 0.578125 8.42188C0.375 8.20312 0.265625 7.9375 0.25 7.625V5.375C0.265625 5.0625 0.375 4.79688 0.578125 4.57812C0.796875 4.375 1.0625 4.26562 1.375 4.25ZM3.625 11.375H1.375V13.625H3.625V11.375ZM1.375 10.25H3.625C3.9375 10.2656 4.20312 10.375 4.42188 10.5781C4.625 10.7969 4.73438 11.0625 4.75 11.375V13.625C4.73438 13.9375 4.625 14.2031 4.42188 14.4219C4.20312 14.625 3.9375 14.7344 3.625 14.75H1.375C1.0625 14.7344 0.796875 14.625 0.578125 14.4219C0.375 14.2031 0.265625 13.9375 0.25 13.625V11.375C0.265625 11.0625 0.375 10.7969 0.578125 10.5781C0.796875 10.375 1.0625 10.2656 1.375 10.25ZM7.375 5.375V7.625H9.625V5.375H7.375ZM6.25 5.375C6.26562 5.0625 6.375 4.79688 6.57812 4.57812C6.79688 4.375 7.0625 4.26562 7.375 4.25H9.625C9.9375 4.26562 10.2031 4.375 10.4219 4.57812C10.625 4.79688 10.7344 5.0625 10.75 5.375V7.625C10.7344 7.9375 10.625 8.20312 10.4219 8.42188C10.2031 8.625 9.9375 8.73438 9.625 8.75H7.375C7.0625 8.73438 6.79688 8.625 6.57812 8.42188C6.375 8.20312 6.26562 7.9375 6.25 7.625V5.375ZM1.9375 6.3125C1.95312 6.07812 2.07812 5.95312 2.3125 5.9375H2.6875C2.92188 5.95312 3.04688 6.07812 3.0625 6.3125V6.6875C3.04688 6.92188 2.92188 7.04688 2.6875 7.0625H2.3125C2.07812 7.04688 1.95312 6.92188 1.9375 6.6875V6.3125ZM2.3125 11.9375H2.6875C2.92188 11.9531 3.04688 12.0781 3.0625 12.3125V12.6875C3.04688 12.9219 2.92188 13.0469 2.6875 13.0625H2.3125C2.07812 13.0469 1.95312 12.9219 1.9375 12.6875V12.3125C1.95312 12.0781 2.07812 11.9531 2.3125 11.9375ZM7.9375 6.3125C7.95312 6.07812 8.07812 5.95312 8.3125 5.9375H8.6875C8.92188 5.95312 9.04688 6.07812 9.0625 6.3125V6.6875C9.04688 6.92188 8.92188 7.04688 8.6875 7.0625H8.3125C8.07812 7.04688 7.95312 6.92188 7.9375 6.6875V6.3125ZM6.25 10.625C6.26562 10.3906 6.39062 10.2656 6.625 10.25H8.125C8.35938 10.2656 8.48438 10.3906 8.5 10.625C8.51562 10.8594 8.64062 10.9844 8.875 11H9.625C9.85938 10.9844 9.98438 10.8594 10 10.625C10.0156 10.3906 10.1406 10.2656 10.375 10.25C10.6094 10.2656 10.7344 10.3906 10.75 10.625V12.875C10.7344 13.1094 10.6094 13.2344 10.375 13.25H8.875C8.64062 13.2344 8.51562 13.1094 8.5 12.875C8.48438 12.6406 8.35938 12.5156 8.125 12.5C7.89062 12.5156 7.76562 12.6406 7.75 12.875V14.375C7.73438 14.6094 7.60938 14.7344 7.375 14.75H6.625C6.39062 14.7344 6.26562 14.6094 6.25 14.375V10.625ZM8.875 14C9.10938 14.0156 9.23438 14.1406 9.25 14.375C9.23438 14.6094 9.10938 14.7344 8.875 14.75C8.64062 14.7344 8.51562 14.6094 8.5 14.375C8.51562 14.1406 8.64062 14.0156 8.875 14ZM10.375 14C10.6094 14.0156 10.7344 14.1406 10.75 14.375C10.7344 14.6094 10.6094 14.7344 10.375 14.75C10.1406 14.7344 10.0156 14.6094 10 14.375C10.0156 14.1406 10.1406 14.0156 10.375 14Z" fill="black" fill-opacity="0.72"/>
</g>
<defs>
<clipPath id="clip0_1731_1744">
<rect width="11" height="18" fill="white"/>
</clipPath>
</defs>
</svg>
