<svg width="11" height="18" viewBox="0 0 11 18" fill="none" xmlns="http://www.w3.org/2000/svg">
<g id="label-paired / caption / bell-caption / regular" clip-path="url(#clip0_1731_1283)">
<path id="icon" d="M5.125 3.875C5.14062 3.64062 5.26562 3.51563 5.5 3.5C5.73438 3.51563 5.85938 3.64062 5.875 3.875V4.27344C6.84375 4.38281 7.64062 4.78125 8.26562 5.46875C8.90625 6.15625 9.23438 7 9.25 8V8.67969C9.26562 9.74219 9.64062 10.6562 10.375 11.4219L10.4453 11.4922C10.6484 11.6953 10.75 11.9375 10.75 12.2188C10.75 12.5156 10.6484 12.7578 10.4453 12.9453C10.2578 13.1484 10.0156 13.25 9.71875 13.25H1.28125C0.984375 13.25 0.742188 13.1484 0.554688 12.9453C0.351562 12.7578 0.25 12.5156 0.25 12.2188C0.25 11.9375 0.351562 11.6875 0.554688 11.4688L0.625 11.4219C1.35938 10.6562 1.73438 9.74219 1.75 8.67969V8C1.76562 7 2.09375 6.15625 2.73438 5.46875C3.35938 4.78125 4.15625 4.38281 5.125 4.27344V3.875ZM5.5 5C4.65625 5.01562 3.94531 5.30469 3.36719 5.86719C2.80469 6.44531 2.51562 7.15625 2.5 8V8.67969C2.48438 9.94531 2.03125 11.0312 1.14062 11.9375L1.09375 12.0078C1.03125 12.0703 1 12.1406 1 12.2188C1.01562 12.3906 1.10938 12.4844 1.28125 12.5H9.71875C9.89062 12.4844 9.98438 12.3906 10 12.2188C10 12.1406 9.96875 12.0703 9.90625 12.0078L9.85938 11.9375C8.96875 11.0312 8.51562 9.94531 8.5 8.67969V8C8.48438 7.15625 8.1875 6.44531 7.60938 5.86719C7.04688 5.30469 6.34375 5.01562 5.5 5ZM4.79688 14.2578C4.92188 14.5703 5.15625 14.7344 5.5 14.75C5.84375 14.7344 6.07812 14.5703 6.20312 14.2578C6.29688 14.0391 6.46094 13.9609 6.69531 14.0234C6.89844 14.1172 6.96875 14.2734 6.90625 14.4922C6.79688 14.7891 6.61719 15.0312 6.36719 15.2188C6.11719 15.4062 5.82812 15.5 5.5 15.5C5.17188 15.5 4.88281 15.4062 4.63281 15.2188C4.38281 15.0312 4.20312 14.7891 4.09375 14.4922C4.03125 14.2734 4.10156 14.1172 4.30469 14.0234C4.53906 13.9609 4.70312 14.0391 4.79688 14.2578Z" fill="black" fill-opacity="0.72"/>
</g>
<defs>
<clipPath id="clip0_1731_1283">
<rect width="11" height="18" fill="white"/>
</clipPath>
</defs>
</svg>
