<svg width="12" height="24" viewBox="0 0 12 24" fill="none" xmlns="http://www.w3.org/2000/svg">
<g id="label-paired / md / moon-md / bold" clip-path="url(#clip0_1731_3257)">
<path id="icon" d="M4.53125 7.09375C3.61458 7.55208 2.88542 8.20833 2.34375 9.0625C1.80208 9.9375 1.52083 10.9167 1.5 12C1.54167 13.5625 2.07292 14.8542 3.09375 15.875C4.13542 16.9167 5.42708 17.4583 6.96875 17.5C7.38542 17.5 7.79167 17.4583 8.1875 17.375C6.79167 16.875 5.66667 16.0312 4.8125 14.8438C3.95833 13.6771 3.52083 12.3125 3.5 10.75C3.5 9.39583 3.84375 8.17708 4.53125 7.09375ZM6.46875 5.03125C6.53125 5.03125 6.60417 5.02083 6.6875 5C6.79167 5 6.89583 5 7 5C7.08333 5 7.16667 5 7.25 5C7.35417 5 7.45833 5.01042 7.5625 5.03125C7.8125 5.07292 7.96875 5.19792 8.03125 5.40625C8.07292 5.65625 7.98958 5.84375 7.78125 5.96875C7.67708 6.01042 7.57292 6.07292 7.46875 6.15625C7.34375 6.23958 7.21875 6.33333 7.09375 6.4375C7.07292 6.4375 7.0625 6.4375 7.0625 6.4375C7.04167 6.45833 7.02083 6.47917 7 6.5C6.375 7.02083 5.88542 7.64583 5.53125 8.375C5.17708 9.10417 5 9.89583 5 10.75C5.04167 12.3125 5.57292 13.6042 6.59375 14.625C7.61458 15.6667 8.90625 16.2083 10.4688 16.25C10.5104 16.25 10.5521 16.25 10.5938 16.25C10.7604 16.25 10.9167 16.2396 11.0625 16.2188C11.1875 16.1979 11.3021 16.1875 11.4062 16.1875C11.6562 16.1458 11.8333 16.2292 11.9375 16.4375C12.0417 16.6458 12.0104 16.8438 11.8438 17.0312C11.7604 17.0938 11.6771 17.1667 11.5938 17.25C11.4688 17.375 11.3229 17.4896 11.1562 17.5938C11.1354 17.6146 11.1146 17.6354 11.0938 17.6562C11.0729 17.6771 11.0417 17.6979 11 17.7188C9.83333 18.5521 8.5 18.9792 7 19C5.6875 18.9792 4.51042 18.6562 3.46875 18.0312C2.40625 17.4271 1.57292 16.5938 0.96875 15.5312C0.34375 14.4896 0.0208333 13.3125 0 12C0.0416667 10.1042 0.666667 8.51042 1.875 7.21875C3.08333 5.92708 4.61458 5.19792 6.46875 5.03125Z" fill="black" fill-opacity="0.72"/>
</g>
<defs>
<clipPath id="clip0_1731_3257">
<rect width="12" height="24" fill="white"/>
</clipPath>
</defs>
</svg>
