<svg width="14" height="18" viewBox="0 0 14 18" fill="none" xmlns="http://www.w3.org/2000/svg">
<g id="label-paired / caption / pen-line-caption / regular" clip-path="url(#clip0_1731_1476)">
<path id="icon" d="M10.3281 4.4375C10.0625 4.21875 9.79688 4.21875 9.53125 4.4375L8.24219 5.70312L10.0469 7.50781L11.3125 6.21875C11.5312 5.95312 11.5312 5.6875 11.3125 5.42188L10.3281 4.4375ZM2.19531 11.75C2.02344 11.9375 1.89844 12.1562 1.82031 12.4062L1.1875 14.5625L3.34375 13.9297C3.59375 13.8516 3.8125 13.7266 4 13.5547L9.50781 8.04688L7.70312 6.24219L2.19531 11.75ZM8.99219 3.89844C9.25781 3.64844 9.57031 3.52344 9.92969 3.52344C10.2734 3.52344 10.5781 3.64844 10.8438 3.89844L11.8516 4.90625C12.1016 5.17188 12.2266 5.47656 12.2266 5.82031C12.2266 6.17969 12.1016 6.49219 11.8516 6.75781L4.51562 14.0938C4.25 14.3594 3.9375 14.5469 3.57812 14.6562L0.742188 15.4766C0.585938 15.5234 0.460938 15.4922 0.367188 15.3828C0.257812 15.2891 0.226562 15.1719 0.273438 15.0312L1.09375 12.1953C1.20312 11.8203 1.39844 11.5 1.67969 11.2344L8.99219 3.89844ZM5.875 14.75H13.375C13.6094 14.7656 13.7344 14.8906 13.75 15.125C13.7344 15.3594 13.6094 15.4844 13.375 15.5H5.875C5.64062 15.4844 5.51562 15.3594 5.5 15.125C5.51562 14.8906 5.64062 14.7656 5.875 14.75Z" fill="black" fill-opacity="0.72"/>
</g>
<defs>
<clipPath id="clip0_1731_1476">
<rect width="14" height="18" fill="white"/>
</clipPath>
</defs>
</svg>
