<svg width="12" height="18" viewBox="0 0 12 18" fill="none" xmlns="http://www.w3.org/2000/svg">
<g id="label-paired / caption / triangle-exclamation-caption / bold" clip-path="url(#clip0_1731_1623)">
<path id="icon" d="M5.8125 5.46875L1.17188 13.1094C1.14062 13.1562 1.125 13.2188 1.125 13.2969C1.14062 13.5 1.25781 13.6094 1.47656 13.625H10.5469C10.75 13.6094 10.8594 13.5 10.875 13.2969C10.875 13.2344 10.8594 13.1719 10.8281 13.1094L6.1875 5.46875C6.14062 5.40625 6.07812 5.375 6 5.375C5.92188 5.375 5.85938 5.40625 5.8125 5.46875ZM4.85156 4.88281C5.13281 4.47656 5.51562 4.26562 6 4.25C6.5 4.26562 6.88281 4.47656 7.14844 4.88281L11.7891 12.5234C11.9297 12.7578 12 13.0156 12 13.2969C11.9844 13.7031 11.8438 14.0469 11.5781 14.3281C11.2969 14.5938 10.9531 14.7344 10.5469 14.75H1.47656C1.05469 14.7344 0.703125 14.5938 0.421875 14.3281C0.15625 14.0469 0.015625 13.7031 0 13.2969C0 13.0156 0.0703125 12.7578 0.210938 12.5234L4.85156 4.88281ZM6.75 12.125C6.75 12.3438 6.67969 12.5234 6.53906 12.6641C6.39844 12.8047 6.21875 12.875 6 12.875C5.78125 12.875 5.60156 12.8047 5.46094 12.6641C5.32031 12.5234 5.25 12.3438 5.25 12.125C5.25 11.9062 5.32031 11.7266 5.46094 11.5859C5.60156 11.4453 5.78125 11.375 6 11.375C6.21875 11.375 6.39844 11.4453 6.53906 11.5859C6.67969 11.7266 6.75 11.9062 6.75 12.125ZM6.5625 7.8125V10.0625C6.53125 10.4062 6.34375 10.5938 6 10.625C5.65625 10.5938 5.46875 10.4062 5.4375 10.0625V7.8125C5.46875 7.46875 5.65625 7.28125 6 7.25C6.34375 7.28125 6.53125 7.46875 6.5625 7.8125Z" fill="black" fill-opacity="0.72"/>
</g>
<defs>
<clipPath id="clip0_1731_1623">
<rect width="12" height="18" fill="white"/>
</clipPath>
</defs>
</svg>
