<svg width="20" height="30" viewBox="0 0 20 30" fill="none" xmlns="http://www.w3.org/2000/svg">
<g id="label-paired / lg / circle-star-lg / fill" clip-path="url(#clip0_1731_5555)">
<path id="icon" d="M0 15.5C0.0260417 13.6771 0.46875 12.0104 1.32812 10.5C2.21354 8.98958 3.4375 7.76562 5 6.82812C6.58854 5.94271 8.25521 5.5 10 5.5C11.7448 5.5 13.4115 5.94271 15 6.82812C16.5625 7.76562 17.7865 8.98958 18.6719 10.5C19.5312 12.0104 19.974 13.6771 20 15.5C19.974 17.3229 19.5312 18.9896 18.6719 20.5C17.7865 22.0104 16.5625 23.2344 15 24.1719C13.4115 25.0573 11.7448 25.5 10 25.5C8.25521 25.5 6.58854 25.0573 5 24.1719C3.4375 23.2344 2.21354 22.0104 1.32812 20.5C0.46875 18.9896 0.0260417 17.3229 0 15.5ZM10 9.5625C9.73958 9.5625 9.55729 9.67969 9.45312 9.91406L8.04688 12.7656L4.88281 13.2344C4.6224 13.2865 4.45312 13.4297 4.375 13.6641C4.29688 13.8984 4.34896 14.1068 4.53125 14.2891L6.79688 16.5547L6.25 19.6797C6.22396 19.9401 6.3151 20.1484 6.52344 20.3047C6.73177 20.4349 6.95312 20.4479 7.1875 20.3438L10 18.8594L12.8516 20.3438C13.0599 20.4479 13.2682 20.4349 13.4766 20.3047C13.6849 20.1484 13.776 19.9401 13.75 19.6797L13.2031 16.5547L15.5078 14.3281C15.6641 14.1198 15.7161 13.8984 15.6641 13.6641C15.5599 13.4297 15.3906 13.2865 15.1562 13.2344L11.9922 12.7656L10.5469 9.91406C10.4427 9.67969 10.2604 9.5625 10 9.5625Z" fill="black" fill-opacity="0.72"/>
</g>
<defs>
<clipPath id="clip0_1731_5555">
<rect width="20" height="30" fill="white"/>
</clipPath>
</defs>
</svg>
