<svg width="24" height="36" viewBox="0 0 24 36" fill="none" xmlns="http://www.w3.org/2000/svg">
<g id="label-paired / xl / circle-plus-xl / bold" clip-path="url(#clip0_1731_5598)">
<path id="icon" d="M12 8.25C10.2188 8.25 8.59375 8.6875 7.125 9.5625C5.65625 10.4062 4.46875 11.5938 3.5625 13.125C2.6875 14.6562 2.25 16.2812 2.25 18C2.25 19.7188 2.6875 21.3438 3.5625 22.875C4.46875 24.4062 5.65625 25.5938 7.125 26.4375C8.59375 27.3125 10.2188 27.75 12 27.75C13.7812 27.75 15.4062 27.3125 16.875 26.4375C18.3438 25.5938 19.5312 24.4062 20.4375 22.875C21.3125 21.3438 21.75 19.7188 21.75 18C21.75 16.2812 21.3125 14.6562 20.4375 13.125C19.5312 11.5938 18.3438 10.4062 16.875 9.5625C15.4062 8.6875 13.7812 8.25 12 8.25ZM12 30C9.8125 29.9688 7.8125 29.4375 6 28.4062C4.1875 27.3438 2.71875 25.875 1.59375 24C0.53125 22.0938 0 20.0938 0 18C0 15.9062 0.53125 13.9062 1.59375 12C2.71875 10.125 4.1875 8.65625 6 7.59375C7.8125 6.5625 9.8125 6.03125 12 6C14.1875 6.03125 16.1875 6.5625 18 7.59375C19.8125 8.65625 21.2812 10.125 22.4062 12C23.4688 13.9062 24 15.9062 24 18C24 20.0938 23.4688 22.0938 22.4062 24C21.2812 25.875 19.8125 27.3438 18 28.4062C16.1875 29.4375 14.1875 29.9688 12 30ZM10.875 22.125V19.125H7.875C7.1875 19.0625 6.8125 18.6875 6.75 18C6.8125 17.3125 7.1875 16.9375 7.875 16.875H10.875V13.875C10.9375 13.1875 11.3125 12.8125 12 12.75C12.6875 12.8125 13.0625 13.1875 13.125 13.875V16.875H16.125C16.8125 16.9375 17.1875 17.3125 17.25 18C17.1875 18.6875 16.8125 19.0625 16.125 19.125H13.125V22.125C13.0625 22.8125 12.6875 23.1875 12 23.25C11.3125 23.1875 10.9375 22.8125 10.875 22.125Z" fill="black" fill-opacity="0.72"/>
</g>
<defs>
<clipPath id="clip0_1731_5598">
<rect width="24" height="36" fill="white"/>
</clipPath>
</defs>
</svg>
