<svg width="14" height="22" viewBox="0 0 14 22" fill="none" xmlns="http://www.w3.org/2000/svg">
<g id="label-paired / sm / clone-sm / regular" clip-path="url(#clip0_1731_2704)">
<path id="icon" d="M1.75 16.875H7.875C8.13021 16.875 8.33984 16.793 8.50391 16.6289C8.66797 16.4648 8.75 16.2552 8.75 16V14.25H9.625V16C9.60677 16.4922 9.43359 16.9023 9.10547 17.2305C8.77734 17.5586 8.36719 17.7318 7.875 17.75H1.75C1.25781 17.7318 0.847656 17.5586 0.519531 17.2305C0.191406 16.9023 0.0182292 16.4922 0 16V9.875C0.0182292 9.38281 0.191406 8.97266 0.519531 8.64453C0.847656 8.31641 1.25781 8.14323 1.75 8.125H3.5V9H1.75C1.49479 9 1.28516 9.08203 1.12109 9.24609C0.957031 9.41016 0.875 9.61979 0.875 9.875V16C0.875 16.2552 0.957031 16.4648 1.12109 16.6289C1.28516 16.793 1.49479 16.875 1.75 16.875ZM6.125 12.5H12.25C12.5052 12.5 12.7148 12.418 12.8789 12.2539C13.043 12.0898 13.125 11.8802 13.125 11.625V5.5C13.125 5.24479 13.043 5.03516 12.8789 4.87109C12.7148 4.70703 12.5052 4.625 12.25 4.625H6.125C5.86979 4.625 5.66016 4.70703 5.49609 4.87109C5.33203 5.03516 5.25 5.24479 5.25 5.5V11.625C5.25 11.8802 5.33203 12.0898 5.49609 12.2539C5.66016 12.418 5.86979 12.5 6.125 12.5ZM4.375 11.625V5.5C4.39323 5.00781 4.56641 4.59766 4.89453 4.26953C5.22266 3.94141 5.63281 3.76823 6.125 3.75H12.25C12.7422 3.76823 13.1523 3.94141 13.4805 4.26953C13.8086 4.59766 13.9818 5.00781 14 5.5V11.625C13.9818 12.1172 13.8086 12.5273 13.4805 12.8555C13.1523 13.1836 12.7422 13.3568 12.25 13.375H6.125C5.63281 13.3568 5.22266 13.1836 4.89453 12.8555C4.56641 12.5273 4.39323 12.1172 4.375 11.625Z" fill="black" fill-opacity="0.72"/>
</g>
<defs>
<clipPath id="clip0_1731_2704">
<rect width="14" height="22" fill="white"/>
</clipPath>
</defs>
</svg>
