<svg width="11" height="18" viewBox="0 0 11 18" fill="none" xmlns="http://www.w3.org/2000/svg">
<g id="label-paired / caption / linux-caption" clip-path="url(#clip0_1731_13795)">
<path id="icon" d="M5.42969 6.38281C5.41406 6.38281 5.39844 6.38281 5.38281 6.38281C5.36719 6.38281 5.35156 6.375 5.33594 6.35938C5.33594 6.34375 5.34375 6.33594 5.35938 6.33594C5.40625 6.30469 5.45312 6.30469 5.5 6.33594C5.53125 6.35156 5.55469 6.375 5.57031 6.40625C5.55469 6.42188 5.53125 6.42969 5.5 6.42969C5.48438 6.42969 5.46875 6.42188 5.45312 6.40625C5.4375 6.40625 5.42969 6.39844 5.42969 6.38281ZM4.91406 6.42969C4.88281 6.42969 4.85938 6.42188 4.84375 6.40625C4.84375 6.375 4.86719 6.35156 4.91406 6.33594C4.96094 6.30469 5.00781 6.30469 5.05469 6.33594C5.07031 6.33594 5.07031 6.34375 5.05469 6.35938C5.05469 6.375 5.03906 6.38281 5.00781 6.38281C5.00781 6.38281 5 6.38281 4.98438 6.38281C4.96875 6.39844 4.96094 6.40625 4.96094 6.40625C4.94531 6.42188 4.92969 6.42969 4.91406 6.42969ZM10.0938 12.9688C10.3438 13.25 10.4609 13.4766 10.4453 13.6484C10.4297 13.8359 10.3281 13.9844 10.1406 14.0938C10.0312 14.1562 9.91406 14.2188 9.78906 14.2812C9.46094 14.4062 9.17969 14.5938 8.94531 14.8438C8.58594 15.25 8.20312 15.4688 7.79688 15.5C7.39062 15.5312 7.07812 15.3516 6.85938 14.9609C6.82812 14.9141 6.8125 14.8594 6.8125 14.7969C6.53125 14.7969 6.28125 14.7812 6.0625 14.75C5.85938 14.7188 5.67188 14.7031 5.5 14.7031C5.23438 14.7188 5.00781 14.75 4.82031 14.7969C4.66406 14.8281 4.51562 14.8516 4.375 14.8672C4.25 15.1172 4.04688 15.2734 3.76562 15.3359C3.375 15.4141 2.9375 15.3281 2.45312 15.0781C2.15625 14.9531 1.83594 14.875 1.49219 14.8438C1.33594 14.8281 1.19531 14.8125 1.07031 14.7969C0.851562 14.7656 0.695312 14.6719 0.601562 14.5156C0.507812 14.3438 0.523438 14.0938 0.648438 13.7656C0.679688 13.6406 0.679688 13.4922 0.648438 13.3203C0.648438 13.3047 0.640625 13.2891 0.625 13.2734C0.609375 13.1797 0.601562 13.0859 0.601562 12.9922C0.601562 12.8984 0.625 12.8047 0.671875 12.7109C0.796875 12.5234 0.945312 12.4062 1.11719 12.3594C1.13281 12.3594 1.14844 12.3516 1.16406 12.3359C1.30469 12.3047 1.42188 12.25 1.51562 12.1719C1.5625 12.125 1.60938 12.0625 1.65625 11.9844C1.73438 11.875 1.8125 11.7812 1.89062 11.7031C1.84375 11.2969 1.89062 10.8828 2.03125 10.4609C2.1875 10.0078 2.39844 9.57812 2.66406 9.17188C2.92969 8.78125 3.17188 8.45312 3.39062 8.1875C3.73438 7.6875 3.91406 7.17969 3.92969 6.66406C3.92969 6.55469 3.92188 6.40625 3.90625 6.21875C3.875 5.875 3.875 5.49219 3.90625 5.07031C3.9375 4.66406 4.08594 4.30469 4.35156 3.99219C4.61719 3.67969 5.08594 3.51563 5.75781 3.5C6.35156 3.51563 6.77344 3.6875 7.02344 4.01562C7.27344 4.34375 7.42969 4.73438 7.49219 5.1875C7.53906 5.64062 7.55469 6.0625 7.53906 6.45312C7.53906 6.5 7.53906 6.53906 7.53906 6.57031C7.53906 6.91406 7.60938 7.21875 7.75 7.48438C7.90625 7.75 8.08594 8 8.28906 8.23438C8.30469 8.25 8.3125 8.25781 8.3125 8.25781C8.5 8.47656 8.69531 8.73438 8.89844 9.03125C9.10156 9.32812 9.26562 9.65625 9.39062 10.0156C9.64062 10.5938 9.67188 11.2109 9.48438 11.8672C9.51562 11.8828 9.54688 11.8984 9.57812 11.9141C9.60938 11.9297 9.64062 11.9531 9.67188 11.9844C9.8125 12.125 9.89844 12.2969 9.92969 12.5C9.92969 12.5 9.92969 12.5078 9.92969 12.5234C9.96094 12.7109 10.0156 12.8594 10.0938 12.9688ZM5.5 5.53906C5.42188 5.71094 5.39844 5.88281 5.42969 6.05469C5.52344 6.07031 5.625 6.10938 5.73438 6.17188C5.70312 6.01562 5.71875 5.88281 5.78125 5.77344C5.84375 5.66406 5.92188 5.61719 6.01562 5.63281C6.10938 5.63281 6.17969 5.70312 6.22656 5.84375C6.27344 5.96875 6.27344 6.10938 6.22656 6.26562C6.21094 6.29688 6.1875 6.32031 6.15625 6.33594C6.14062 6.35156 6.13281 6.35938 6.13281 6.35938C6.28906 6.42188 6.38281 6.46094 6.41406 6.47656C6.61719 6.22656 6.65625 5.91406 6.53125 5.53906C6.39062 5.28906 6.21875 5.16406 6.01562 5.16406C5.79688 5.16406 5.625 5.28906 5.5 5.53906ZM4.53906 5.28125C4.32031 5.3125 4.1875 5.46875 4.14062 5.75C4.09375 6.04688 4.16406 6.29688 4.35156 6.5C4.47656 6.40625 4.52344 6.36719 4.49219 6.38281C4.49219 6.38281 4.49219 6.375 4.49219 6.35938C4.39844 6.26562 4.35156 6.14062 4.35156 5.98438C4.36719 5.82812 4.42188 5.73438 4.51562 5.70312C4.59375 5.70312 4.65625 5.75781 4.70312 5.86719C4.75 5.96094 4.76562 6.0625 4.75 6.17188C4.82812 6.125 4.90625 6.08594 4.98438 6.05469C5 5.83594 4.96094 5.64844 4.86719 5.49219C4.77344 5.35156 4.66406 5.28125 4.53906 5.28125ZM4.21094 6.71094V6.6875C4.11719 6.76562 4.08594 6.86719 4.11719 6.99219C4.14844 7.11719 4.26562 7.23438 4.46875 7.34375C4.54688 7.39062 4.61719 7.44531 4.67969 7.50781C4.75781 7.58594 4.84375 7.64844 4.9375 7.69531C5 7.72656 5.07812 7.74219 5.17188 7.74219C5.4375 7.74219 5.64844 7.67188 5.80469 7.53125C5.88281 7.46875 5.96875 7.42188 6.0625 7.39062C6.34375 7.29688 6.51562 7.15625 6.57812 6.96875C6.64062 6.76562 6.5625 6.625 6.34375 6.54688C6.23438 6.5 6.14062 6.46875 6.0625 6.45312C5.96875 6.42188 5.88281 6.38281 5.80469 6.33594C5.57031 6.17969 5.36719 6.10938 5.19531 6.125C4.89844 6.17188 4.69531 6.27344 4.58594 6.42969C4.57031 6.42969 4.5625 6.4375 4.5625 6.45312C4.53125 6.46875 4.46094 6.51562 4.35156 6.59375C4.30469 6.625 4.25781 6.66406 4.21094 6.71094ZM4.30469 14.5391C4.30469 14.3828 4.25 14.2109 4.14062 14.0234C4.03125 13.8516 3.89844 13.6719 3.74219 13.4844C3.57031 13.2812 3.4375 13.0938 3.34375 12.9219L2.875 12.0781C2.71875 11.8594 2.54688 11.7344 2.35938 11.7031C2.1875 11.6719 2.05469 11.7266 1.96094 11.8672C1.89844 11.9297 1.84375 11.9922 1.79688 12.0547C1.73438 12.1328 1.67188 12.2109 1.60938 12.2891C1.5 12.3828 1.38281 12.4453 1.25781 12.4766C1.22656 12.4922 1.19531 12.5078 1.16406 12.5234C1.00781 12.5547 0.890625 12.6406 0.8125 12.7812C0.75 12.9062 0.742188 13.0625 0.789062 13.25C0.789062 13.2656 0.789062 13.2891 0.789062 13.3203C0.835938 13.4922 0.835938 13.6562 0.789062 13.8125C0.695312 14.125 0.679688 14.3359 0.742188 14.4453C0.851562 14.6016 1.10156 14.6875 1.49219 14.7031C1.83594 14.7031 2.17969 14.7891 2.52344 14.9609C2.91406 15.1484 3.29688 15.2266 3.67188 15.1953C4.03125 15.1484 4.24219 14.9297 4.30469 14.5391ZM4.25781 13.9297C4.71094 14.2109 5.17969 14.3203 5.66406 14.2578C6.13281 14.1953 6.5625 14.0234 6.95312 13.7422C6.95312 13.7422 6.95312 13.7344 6.95312 13.7188C7.03125 13.4688 7.07812 13.25 7.09375 13.0625C7.10938 12.7031 7.14844 12.3984 7.21094 12.1484C7.27344 11.8359 7.4375 11.6172 7.70312 11.4922C7.73438 11.2578 7.83594 11.125 8.00781 11.0938C8.16406 11.0625 8.36719 11.1016 8.61719 11.2109C9.03906 11.3984 9.21094 11.6016 9.13281 11.8203C9.14844 11.8203 9.15625 11.8203 9.15625 11.8203C9.17188 11.8203 9.20312 11.8203 9.25 11.8203C9.29688 11.6172 9.23438 11.4531 9.0625 11.3281C8.90625 11.1875 8.72656 11.0781 8.52344 11C8.58594 10.7188 8.57812 10.4375 8.5 10.1562C8.42188 9.85938 8.30469 9.59375 8.14844 9.35938C7.99219 9.10938 7.83594 8.91406 7.67969 8.77344C7.61719 8.77344 7.64062 8.82812 7.75 8.9375C7.90625 9.07812 8.07031 9.33594 8.24219 9.71094C8.41406 10.0859 8.42969 10.4922 8.28906 10.9297C8.19531 10.8984 8.10938 10.8828 8.03125 10.8828C7.96875 10.5391 7.88281 10.2344 7.77344 9.96875C7.66406 9.70312 7.57031 9.50781 7.49219 9.38281C7.33594 9.11719 7.17969 8.76562 7.02344 8.32812C6.85156 7.90625 6.71094 7.50781 6.60156 7.13281C6.49219 7.28906 6.32031 7.40625 6.08594 7.48438C6.02344 7.51562 5.94531 7.55469 5.85156 7.60156C5.80469 7.63281 5.75781 7.66406 5.71094 7.69531C5.36719 7.89844 5.03906 7.89062 4.72656 7.67188C4.67969 7.64062 4.64062 7.60938 4.60938 7.57812C4.54688 7.51562 4.48438 7.46875 4.42188 7.4375C4.375 7.39062 4.32812 7.35156 4.28125 7.32031C4.25 7.69531 4.15625 8.08594 4 8.49219C3.84375 8.89844 3.6875 9.26562 3.53125 9.59375C3.46875 9.73438 3.41406 9.85938 3.36719 9.96875C3.16406 10.4375 3.05469 10.9219 3.03906 11.4219C2.80469 11.0625 2.72656 10.7031 2.80469 10.3438C2.88281 9.96875 2.98438 9.67969 3.10938 9.47656C3.3125 9.08594 3.375 8.92188 3.29688 8.98438C3.1875 9.15625 3.07031 9.36719 2.94531 9.61719C2.82031 9.85156 2.72656 10.1094 2.66406 10.3906C2.60156 10.6719 2.60156 10.9453 2.66406 11.2109C2.74219 11.4766 2.9375 11.7109 3.25 11.9141C3.26562 11.9141 3.375 11.9844 3.57812 12.125C3.78125 12.2656 3.96875 12.4453 4.14062 12.6641C4.3125 12.8984 4.375 13.0938 4.32812 13.25C4.25 13.4062 4.11719 13.4766 3.92969 13.4609C4.05469 13.6016 4.16406 13.7578 4.25781 13.9297ZM10.3047 13.6484C10.3203 13.5391 10.2109 13.3516 9.97656 13.0859C9.86719 12.9297 9.80469 12.7578 9.78906 12.5703C9.75781 12.3672 9.6875 12.2109 9.57812 12.1016C9.4375 11.9922 9.27344 11.9531 9.08594 11.9844C9.07031 11.9844 9.05469 11.9844 9.03906 11.9844C8.94531 12.0938 8.8125 12.1875 8.64062 12.2656C8.46875 12.3594 8.30469 12.3906 8.14844 12.3594C7.86719 12.25 7.71875 12.0234 7.70312 11.6797C7.70312 11.6797 7.69531 11.6797 7.67969 11.6797C7.52344 11.7734 7.41406 11.9375 7.35156 12.1719C7.30469 12.4219 7.27344 12.7266 7.25781 13.0859C7.24219 13.2891 7.19531 13.5078 7.11719 13.7422C7.08594 13.8359 7.05469 13.9375 7.02344 14.0469C6.92969 14.3438 6.92188 14.625 7 14.8906C7.1875 15.2188 7.45312 15.3672 7.79688 15.3359C8.14062 15.3047 8.48438 15.1094 8.82812 14.75C9.10938 14.4531 9.41406 14.2422 9.74219 14.1172C10.0703 13.9922 10.2578 13.8359 10.3047 13.6484ZM4.30469 6.99219C4.24219 6.89844 4.23438 6.84375 4.28125 6.82812C4.3125 6.84375 4.33594 6.86719 4.35156 6.89844C4.35156 6.91406 4.35938 6.92969 4.375 6.94531C4.42188 6.99219 4.48438 7.04688 4.5625 7.10938C4.70312 7.25 4.89844 7.32812 5.14844 7.34375C5.41406 7.3125 5.64062 7.23438 5.82812 7.10938C5.90625 7.0625 5.99219 7 6.08594 6.92188C6.11719 6.90625 6.14062 6.89062 6.15625 6.875C6.1875 6.84375 6.21094 6.82031 6.22656 6.80469C6.24219 6.77344 6.26562 6.75781 6.29688 6.75781C6.35938 6.77344 6.33594 6.82031 6.22656 6.89844C6.13281 6.99219 6.01562 7.07812 5.875 7.15625C5.65625 7.29688 5.41406 7.375 5.14844 7.39062C4.86719 7.375 4.64844 7.29688 4.49219 7.15625C4.42969 7.09375 4.375 7.03906 4.32812 6.99219C4.3125 6.99219 4.30469 6.99219 4.30469 6.99219Z" fill="black" fill-opacity="0.72"/>
</g>
<defs>
<clipPath id="clip0_1731_13795">
<rect width="11" height="18" fill="white"/>
</clipPath>
</defs>
</svg>
