<svg width="20" height="30" viewBox="0 0 20 30" fill="none" xmlns="http://www.w3.org/2000/svg">
<g id="label-paired / lg / gauge-min-lg / bold" clip-path="url(#clip0_1731_5481)">
<path id="icon" d="M10 7.375C8.51562 7.375 7.16146 7.73958 5.9375 8.46875C4.71354 9.17188 3.72396 10.1615 2.96875 11.4375C2.23958 12.7135 1.875 14.0677 1.875 15.5C1.875 16.9323 2.23958 18.2865 2.96875 19.5625C3.72396 20.8385 4.71354 21.8281 5.9375 22.5312C7.16146 23.2604 8.51562 23.625 10 23.625C11.4844 23.625 12.8385 23.2604 14.0625 22.5312C15.2865 21.8281 16.276 20.8385 17.0312 19.5625C17.7604 18.2865 18.125 16.9323 18.125 15.5C18.125 14.0677 17.7604 12.7135 17.0312 11.4375C16.276 10.1615 15.2865 9.17188 14.0625 8.46875C12.8385 7.73958 11.4844 7.375 10 7.375ZM10 25.5C8.17708 25.474 6.51042 25.0312 5 24.1719C3.48958 23.2865 2.26562 22.0625 1.32812 20.5C0.442708 18.9115 0 17.2448 0 15.5C0 13.7552 0.442708 12.0885 1.32812 10.5C2.26562 8.9375 3.48958 7.71354 5 6.82812C6.51042 5.96875 8.17708 5.52604 10 5.5C11.8229 5.52604 13.4896 5.96875 15 6.82812C16.5104 7.71354 17.7344 8.9375 18.6719 10.5C19.5573 12.0885 20 13.7552 20 15.5C20 17.2448 19.5573 18.9115 18.6719 20.5C17.7344 22.0625 16.5104 23.2865 15 24.1719C13.4896 25.0312 11.8229 25.474 10 25.5ZM11.25 9.875C11.25 10.2396 11.1328 10.5391 10.8984 10.7734C10.6641 11.0078 10.3646 11.125 10 11.125C9.63542 11.125 9.33594 11.0078 9.10156 10.7734C8.86719 10.5391 8.75 10.2396 8.75 9.875C8.75 9.51042 8.86719 9.21094 9.10156 8.97656C9.33594 8.74219 9.63542 8.625 10 8.625C10.3646 8.625 10.6641 8.74219 10.8984 8.97656C11.1328 9.21094 11.25 9.51042 11.25 9.875ZM10 21.4375C9.375 21.4115 8.85417 21.2031 8.4375 20.8125C8.04688 20.3958 7.83854 19.875 7.8125 19.25C7.8125 19.1458 7.82552 19.0286 7.85156 18.8984L3.55469 15.9688C3.08594 15.6042 2.99479 15.1745 3.28125 14.6797C3.64583 14.2109 4.08854 14.1198 4.60938 14.4062L8.90625 17.375C9.21875 17.1667 9.58333 17.0625 10 17.0625C10.625 17.0885 11.1458 17.2969 11.5625 17.6875C11.9531 18.1042 12.1615 18.625 12.1875 19.25C12.1615 19.875 11.9531 20.3958 11.5625 20.8125C11.1458 21.2031 10.625 21.4115 10 21.4375ZM7.5 11.75C7.5 12.1146 7.38281 12.4141 7.14844 12.6484C6.91406 12.8828 6.61458 13 6.25 13C5.88542 13 5.58594 12.8828 5.35156 12.6484C5.11719 12.4141 5 12.1146 5 11.75C5 11.3854 5.11719 11.0859 5.35156 10.8516C5.58594 10.6172 5.88542 10.5 6.25 10.5C6.61458 10.5 6.91406 10.6172 7.14844 10.8516C7.38281 11.0859 7.5 11.3854 7.5 11.75ZM15.625 16.75C15.2604 16.75 14.9609 16.6328 14.7266 16.3984C14.4922 16.1641 14.375 15.8646 14.375 15.5C14.375 15.1354 14.4922 14.8359 14.7266 14.6016C14.9609 14.3672 15.2604 14.25 15.625 14.25C15.9896 14.25 16.2891 14.3672 16.5234 14.6016C16.7578 14.8359 16.875 15.1354 16.875 15.5C16.875 15.8646 16.7578 16.1641 16.5234 16.3984C16.2891 16.6328 15.9896 16.75 15.625 16.75ZM15 11.75C15 12.1146 14.8828 12.4141 14.6484 12.6484C14.4141 12.8828 14.1146 13 13.75 13C13.3854 13 13.0859 12.8828 12.8516 12.6484C12.6172 12.4141 12.5 12.1146 12.5 11.75C12.5 11.3854 12.6172 11.0859 12.8516 10.8516C13.0859 10.6172 13.3854 10.5 13.75 10.5C14.1146 10.5 14.4141 10.6172 14.6484 10.8516C14.8828 11.0859 15 11.3854 15 11.75Z" fill="black" fill-opacity="0.72"/>
</g>
<defs>
<clipPath id="clip0_1731_5481">
<rect width="20" height="30" fill="white"/>
</clipPath>
</defs>
</svg>
