<svg width="20" height="30" viewBox="0 0 20 30" fill="none" xmlns="http://www.w3.org/2000/svg">
<g id="label-paired / lg / chevrons-left-lg / bold" clip-path="url(#clip0_1731_4379)">
<path id="icon" d="M1.83594 14.8359L9.33594 7.33594C9.77865 6.97135 10.2214 6.97135 10.6641 7.33594C11.0286 7.77865 11.0286 8.22135 10.6641 8.66406L3.82812 15.5L10.6641 22.3359C11.0286 22.7786 11.0286 23.2214 10.6641 23.6641C10.2214 24.0286 9.77865 24.0286 9.33594 23.6641L1.83594 16.1641C1.47135 15.7214 1.47135 15.2786 1.83594 14.8359ZM16.8359 7.33594C17.2786 6.97135 17.7214 6.97135 18.1641 7.33594C18.5286 7.77865 18.5286 8.22135 18.1641 8.66406L11.3281 15.5L18.1641 22.3359C18.5286 22.7786 18.5286 23.2214 18.1641 23.6641C17.7214 24.0286 17.2786 24.0286 16.8359 23.6641L9.33594 16.1641C8.97135 15.7214 8.97135 15.2786 9.33594 14.8359L16.8359 7.33594Z" fill="black" fill-opacity="0.72"/>
</g>
<defs>
<clipPath id="clip0_1731_4379">
<rect width="20" height="30" fill="white"/>
</clipPath>
</defs>
</svg>
