<svg width="16" height="22" viewBox="0 0 16 22" fill="none" xmlns="http://www.w3.org/2000/svg">
<g id="label-paired / sm / arrow-up-one-nine-sm / bold" clip-path="url(#clip0_1731_2406)">
<path id="icon" d="M12.5938 5.28125V8.5625H13.25C13.651 8.59896 13.8698 8.81771 13.9062 9.21875C13.8698 9.61979 13.651 9.83854 13.25 9.875H11.9375H10.625C10.224 9.83854 10.0052 9.61979 9.96875 9.21875C10.0052 8.81771 10.224 8.59896 10.625 8.5625H11.2812V6.18359L10.8438 6.34766C10.4427 6.4388 10.1602 6.30208 9.99609 5.9375C9.90495 5.53646 10.0417 5.25391 10.4062 5.08984L11.7188 4.65234C11.9375 4.59766 12.138 4.63411 12.3203 4.76172C12.5026 4.88932 12.5938 5.0625 12.5938 5.28125ZM4.03516 4.81641C4.34505 4.5612 4.65495 4.5612 4.96484 4.81641L7.58984 7.44141C7.84505 7.7513 7.84505 8.0612 7.58984 8.37109C7.27995 8.6263 6.97005 8.6263 6.66016 8.37109L5.15625 6.86719V16.2188C5.11979 16.6198 4.90104 16.8385 4.5 16.875C4.09896 16.8385 3.88021 16.6198 3.84375 16.2188V6.86719L2.33984 8.37109C2.02995 8.6263 1.72005 8.6263 1.41016 8.37109C1.15495 8.0612 1.15495 7.7513 1.41016 7.44141L4.03516 4.81641ZM11.7188 12.0625C11.2995 12.0807 10.9805 12.263 10.7617 12.6094C10.5794 12.974 10.5794 13.3385 10.7617 13.7031C10.9805 14.0495 11.2995 14.2318 11.7188 14.25C12.138 14.2318 12.457 14.0495 12.6758 13.7031C12.8581 13.3385 12.8581 12.974 12.6758 12.6094C12.457 12.263 12.138 12.0807 11.7188 12.0625ZM11.2266 15.5078C10.6615 15.3802 10.2057 15.1068 9.85938 14.6875C9.51302 14.2682 9.33073 13.7578 9.3125 13.1562C9.33073 12.4818 9.56771 11.9167 10.0234 11.4609C10.4792 11.0052 11.0443 10.7682 11.7188 10.75C12.3932 10.7682 12.9583 11.0052 13.4141 11.4609C13.8698 11.9167 14.1068 12.4818 14.125 13.1562C14.125 13.7578 13.9336 14.2865 13.5508 14.7422L12.0195 16.6289C11.7279 16.9206 11.418 16.957 11.0898 16.7383C10.7982 16.4466 10.7617 16.1367 10.9805 15.8086L11.2266 15.5078Z" fill="black" fill-opacity="0.72"/>
</g>
<defs>
<clipPath id="clip0_1731_2406">
<rect width="16" height="22" fill="white"/>
</clipPath>
</defs>
</svg>
