<svg width="6" height="36" viewBox="0 0 6 36" fill="none" xmlns="http://www.w3.org/2000/svg">
<g id="label-paired / xl / ellipsis-vertical-xl / regular" clip-path="url(#clip0_1731_5686)">
<path id="icon" d="M3 24C3.4375 24 3.79688 24.1406 4.07812 24.4219C4.35938 24.7031 4.5 25.0625 4.5 25.5C4.5 25.9375 4.35938 26.2969 4.07812 26.5781C3.79688 26.8594 3.4375 27 3 27C2.5625 27 2.20312 26.8594 1.92188 26.5781C1.64062 26.2969 1.5 25.9375 1.5 25.5C1.5 25.0625 1.64062 24.7031 1.92188 24.4219C2.20312 24.1406 2.5625 24 3 24ZM3 16.5C3.4375 16.5 3.79688 16.6406 4.07812 16.9219C4.35938 17.2031 4.5 17.5625 4.5 18C4.5 18.4375 4.35938 18.7969 4.07812 19.0781C3.79688 19.3594 3.4375 19.5 3 19.5C2.5625 19.5 2.20312 19.3594 1.92188 19.0781C1.64062 18.7969 1.5 18.4375 1.5 18C1.5 17.5625 1.64062 17.2031 1.92188 16.9219C2.20312 16.6406 2.5625 16.5 3 16.5ZM4.5 10.5C4.5 10.9375 4.35938 11.2969 4.07812 11.5781C3.79688 11.8594 3.4375 12 3 12C2.5625 12 2.20312 11.8594 1.92188 11.5781C1.64062 11.2969 1.5 10.9375 1.5 10.5C1.5 10.0625 1.64062 9.70312 1.92188 9.42188C2.20312 9.14062 2.5625 9 3 9C3.4375 9 3.79688 9.14062 4.07812 9.42188C4.35938 9.70312 4.5 10.0625 4.5 10.5Z" fill="black" fill-opacity="0.72"/>
</g>
<defs>
<clipPath id="clip0_1731_5686">
<rect width="6" height="36" fill="white"/>
</clipPath>
</defs>
</svg>
