<svg width="23" height="30" viewBox="0 0 23 30" fill="none" xmlns="http://www.w3.org/2000/svg">
<g id="label-paired / lg / rectangle-ad-lg / regular" clip-path="url(#clip0_1731_4811)">
<path id="icon" d="M2.75 8C2.38542 8 2.08594 8.11719 1.85156 8.35156C1.61719 8.58594 1.5 8.88542 1.5 9.25V21.75C1.5 22.1146 1.61719 22.4141 1.85156 22.6484C2.08594 22.8828 2.38542 23 2.75 23H20.25C20.6146 23 20.9141 22.8828 21.1484 22.6484C21.3828 22.4141 21.5 22.1146 21.5 21.75V9.25C21.5 8.88542 21.3828 8.58594 21.1484 8.35156C20.9141 8.11719 20.6146 8 20.25 8H2.75ZM0.25 9.25C0.276042 8.54688 0.523438 7.96094 0.992188 7.49219C1.46094 7.02344 2.04688 6.77604 2.75 6.75H20.25C20.9531 6.77604 21.5391 7.02344 22.0078 7.49219C22.4766 7.96094 22.724 8.54688 22.75 9.25V21.75C22.724 22.4531 22.4766 23.0391 22.0078 23.5078C21.5391 23.9766 20.9531 24.224 20.25 24.25H2.75C2.04688 24.224 1.46094 23.9766 0.992188 23.5078C0.523438 23.0391 0.276042 22.4531 0.25 21.75V9.25ZM8.64844 12.1016L11.4609 18.3516C11.5651 18.7161 11.4609 19.0026 11.1484 19.2109C10.7839 19.3151 10.4974 19.2109 10.2891 18.8984L9.89844 18H6.22656L5.83594 18.8984C5.6276 19.2109 5.34115 19.3151 4.97656 19.2109C4.63802 19.0026 4.53385 18.7161 4.66406 18.3516L7.47656 12.1016C7.60677 11.8672 7.80208 11.75 8.0625 11.75C8.32292 11.75 8.51823 11.8672 8.64844 12.1016ZM8.0625 13.8984L6.77344 16.75H9.35156L8.0625 13.8984ZM14.9375 14.875C14.3385 14.901 13.8828 15.1615 13.5703 15.6562C13.3099 16.1771 13.3099 16.6979 13.5703 17.2188C13.8828 17.7135 14.3385 17.974 14.9375 18C15.5365 17.974 15.9922 17.7135 16.3047 17.2188C16.5651 16.6979 16.5651 16.1771 16.3047 15.6562C15.9922 15.1615 15.5365 14.901 14.9375 14.875ZM16.5 14.0938V12.375C16.526 11.9844 16.7344 11.776 17.125 11.75C17.5156 11.776 17.724 11.9844 17.75 12.375V16.4375V18.625C17.724 19.0156 17.5156 19.224 17.125 19.25C16.8125 19.224 16.6042 19.0677 16.5 18.7812C16.0573 19.0938 15.5365 19.25 14.9375 19.25C14.1302 19.224 13.4661 18.9505 12.9453 18.4297C12.4245 17.9089 12.151 17.2448 12.125 16.4375C12.151 15.6302 12.4245 14.9661 12.9453 14.4453C13.4661 13.9245 14.1302 13.651 14.9375 13.625C15.5365 13.625 16.0573 13.7812 16.5 14.0938Z" fill="black" fill-opacity="0.72"/>
</g>
<defs>
<clipPath id="clip0_1731_4811">
<rect width="23" height="30" fill="white"/>
</clipPath>
</defs>
</svg>
