<svg width="20" height="24" viewBox="0 0 20 24" fill="none" xmlns="http://www.w3.org/2000/svg">
<g id="label-paired / md / chart-trend-down-md / regular" clip-path="url(#clip0_1885_560)">
<path id="icon" d="M19.2188 19.4688C18.9688 19.5938 18.6562 19.5 18.5312 19.25L15.6875 13.5H11C10.7812 13.5 10.625 13.4062 10.5312 13.25L6.75 5.6875L1.21875 8.46875C0.96875 8.59375 0.65625 8.46875 0.53125 8.25C0.40625 8 0.5 7.6875 0.75 7.5625L6.75 4.5625C7 4.4375 7.3125 4.53125 7.4375 4.78125L11.2812 12.5H16C16.1875 12.5 16.3438 12.625 16.4375 12.7812L19.4375 18.7812C19.5625 19.0312 19.4688 19.3438 19.2188 19.4688Z" fill="black" fill-opacity="0.72"/>
</g>
<defs>
<clipPath id="clip0_1885_560">
<rect width="20" height="24" fill="white"/>
</clipPath>
</defs>
</svg>
