<svg width="14" height="24" viewBox="0 0 14 24" fill="none" xmlns="http://www.w3.org/2000/svg">
<g id="label-paired / md / lock-md / bold" clip-path="url(#clip0_1731_4093)">
<path id="icon" d="M4.5 8V10H9.5V8C9.47917 7.29167 9.23958 6.69792 8.78125 6.21875C8.30208 5.76042 7.70833 5.52083 7 5.5C6.29167 5.52083 5.69792 5.76042 5.21875 6.21875C4.76042 6.69792 4.52083 7.29167 4.5 8ZM3 10V8C3.02083 6.875 3.40625 5.92708 4.15625 5.15625C4.92708 4.40625 5.875 4.02083 7 4C8.125 4.02083 9.07292 4.40625 9.84375 5.15625C10.5938 5.92708 10.9792 6.875 11 8V10H12C12.5625 10.0208 13.0312 10.2188 13.4062 10.5938C13.7812 10.9688 13.9792 11.4375 14 12V18C13.9792 18.5625 13.7812 19.0312 13.4062 19.4062C13.0312 19.7812 12.5625 19.9792 12 20H2C1.4375 19.9792 0.96875 19.7812 0.59375 19.4062C0.21875 19.0312 0.0208333 18.5625 0 18V12C0.0208333 11.4375 0.21875 10.9688 0.59375 10.5938C0.96875 10.2188 1.4375 10.0208 2 10H3ZM1.5 12V18C1.52083 18.3125 1.6875 18.4792 2 18.5H12C12.3125 18.4792 12.4792 18.3125 12.5 18V12C12.4792 11.6875 12.3125 11.5208 12 11.5H2C1.6875 11.5208 1.52083 11.6875 1.5 12Z" fill="black" fill-opacity="0.72"/>
</g>
<defs>
<clipPath id="clip0_1731_4093">
<rect width="14" height="24" fill="white"/>
</clipPath>
</defs>
</svg>
