<svg width="24" height="36" viewBox="0 0 24 36" fill="none" xmlns="http://www.w3.org/2000/svg">
<g id="label-paired / xl / globe-xl / regular" clip-path="url(#clip0_1731_6345)">
<path id="icon" d="M12 28.5C12.4062 28.5 12.8594 28.2969 13.3594 27.8906C13.8594 27.4844 14.375 26.7969 14.9062 25.8281C15.375 24.8906 15.75 23.7812 16.0312 22.5H7.96875C8.25 23.7812 8.625 24.8906 9.09375 25.8281C9.625 26.7969 10.1406 27.4844 10.6406 27.8906C11.1406 28.2969 11.5938 28.5 12 28.5ZM7.6875 21H16.3125C16.4375 20.0625 16.5 19.0625 16.5 18C16.5 16.9375 16.4375 15.9375 16.3125 15H7.6875C7.5625 15.9375 7.5 16.9375 7.5 18C7.5 19.0625 7.5625 20.0625 7.6875 21ZM7.96875 13.5H16.0312C15.75 12.2188 15.375 11.1094 14.9062 10.1719C14.375 9.20312 13.8594 8.51562 13.3594 8.10938C12.8594 7.70312 12.4062 7.5 12 7.5C11.5938 7.5 11.1406 7.70312 10.6406 8.10938C10.1406 8.51562 9.625 9.20312 9.09375 10.1719C8.625 11.1094 8.25 12.2188 7.96875 13.5ZM17.8125 15C17.9375 15.9688 18 16.9688 18 18C18 19.0312 17.9375 20.0312 17.8125 21H22.0781C22.3594 20.0312 22.5 19.0312 22.5 18C22.5 16.9688 22.3594 15.9688 22.0781 15H17.8125ZM21.5156 13.5C20.8906 12.2188 20.0469 11.1094 18.9844 10.1719C17.9219 9.23438 16.7188 8.53125 15.375 8.0625C16.375 9.40625 17.1094 11.2188 17.5781 13.5H21.5156ZM6.42188 13.5C6.89062 11.2188 7.64062 9.40625 8.67188 8.0625C7.29688 8.53125 6.07812 9.23438 5.01562 10.1719C3.95312 11.1094 3.125 12.2188 2.53125 13.5H6.42188ZM1.92188 15C1.64062 15.9688 1.5 16.9688 1.5 18C1.5 19.0312 1.64062 20.0312 1.92188 21H6.1875C6.0625 20.0312 6 19.0312 6 18C6 16.9688 6.0625 15.9688 6.1875 15H1.92188ZM15.375 27.9375C16.7188 27.4688 17.9219 26.7656 18.9844 25.8281C20.0469 24.8906 20.875 23.7812 21.4688 22.5H17.5781C17.1094 24.7812 16.375 26.5938 15.375 27.9375ZM8.67188 27.9375C7.64062 26.5938 6.89062 24.7812 6.42188 22.5H2.53125C3.125 23.7812 3.95312 24.8906 5.01562 25.8281C6.07812 26.7656 7.29688 27.4688 8.67188 27.9375ZM12 30C9.8125 29.9688 7.8125 29.4375 6 28.4062C4.1875 27.3438 2.71875 25.875 1.59375 24C0.53125 22.0938 0 20.0938 0 18C0 15.9062 0.53125 13.9062 1.59375 12C2.71875 10.125 4.1875 8.65625 6 7.59375C7.8125 6.5625 9.8125 6.03125 12 6C14.1875 6.03125 16.1875 6.5625 18 7.59375C19.8125 8.65625 21.2812 10.125 22.4062 12C23.4688 13.9062 24 15.9062 24 18C24 20.0938 23.4688 22.0938 22.4062 24C21.2812 25.875 19.8125 27.3438 18 28.4062C16.1875 29.4375 14.1875 29.9688 12 30Z" fill="black" fill-opacity="0.72"/>
</g>
<defs>
<clipPath id="clip0_1731_6345">
<rect width="24" height="36" fill="white"/>
</clipPath>
</defs>
</svg>
