<svg width="12" height="18" viewBox="0 0 12 18" fill="none" xmlns="http://www.w3.org/2000/svg">
<g id="label-paired / caption / circle-seven-caption / bold" clip-path="url(#clip0_1731_1077)">
<path id="icon" d="M6 4.625C5.10938 4.625 4.29688 4.84375 3.5625 5.28125C2.82812 5.70312 2.23438 6.29688 1.78125 7.0625C1.34375 7.82812 1.125 8.64062 1.125 9.5C1.125 10.3594 1.34375 11.1719 1.78125 11.9375C2.23438 12.7031 2.82812 13.2969 3.5625 13.7188C4.29688 14.1562 5.10938 14.375 6 14.375C6.89062 14.375 7.70312 14.1562 8.4375 13.7188C9.17188 13.2969 9.76562 12.7031 10.2188 11.9375C10.6562 11.1719 10.875 10.3594 10.875 9.5C10.875 8.64062 10.6562 7.82812 10.2188 7.0625C9.76562 6.29688 9.17188 5.70312 8.4375 5.28125C7.70312 4.84375 6.89062 4.625 6 4.625ZM6 15.5C4.90625 15.4844 3.90625 15.2188 3 14.7031C2.09375 14.1719 1.35938 13.4375 0.796875 12.5C0.265625 11.5469 0 10.5469 0 9.5C0 8.45312 0.265625 7.45312 0.796875 6.5C1.35938 5.5625 2.09375 4.82812 3 4.29688C3.90625 3.78125 4.90625 3.51563 6 3.5C7.09375 3.51563 8.09375 3.78125 9 4.29688C9.90625 4.82812 10.6406 5.5625 11.2031 6.5C11.7344 7.45312 12 8.45312 12 9.5C12 10.5469 11.7344 11.5469 11.2031 12.5C10.6406 13.4375 9.90625 14.1719 9 14.7031C8.09375 15.2188 7.09375 15.4844 6 15.5ZM4.3125 6.5H7.6875C7.89062 6.5 8.05469 6.59375 8.17969 6.78125C8.27344 6.95312 8.27344 7.13281 8.17969 7.32031L5.55469 12.1953C5.36719 12.4922 5.11719 12.5703 4.80469 12.4297C4.50781 12.2422 4.42969 11.9922 4.57031 11.6797L6.75 7.625H4.3125C3.96875 7.59375 3.78125 7.40625 3.75 7.0625C3.78125 6.71875 3.96875 6.53125 4.3125 6.5Z" fill="black" fill-opacity="0.72"/>
</g>
<defs>
<clipPath id="clip0_1731_1077">
<rect width="12" height="18" fill="white"/>
</clipPath>
</defs>
</svg>
