<svg width="13" height="22" viewBox="0 0 13 22" fill="none" xmlns="http://www.w3.org/2000/svg">
<g id="label-paired / sm / arrow-right-to-line-sm / regular" clip-path="url(#clip0_1731_2172)">
<path id="icon" d="M12.625 5.9375V15.5625C12.6068 15.8359 12.4609 15.9818 12.1875 16C11.9141 15.9818 11.7682 15.8359 11.75 15.5625V5.9375C11.7682 5.66406 11.9141 5.51823 12.1875 5.5C12.4609 5.51823 12.6068 5.66406 12.625 5.9375ZM9.86328 11.0508L6.36328 14.5508C6.16276 14.7331 5.96224 14.7331 5.76172 14.5508C5.57943 14.3503 5.57943 14.1497 5.76172 13.9492L8.49609 11.1875H5.625H0.8125C0.539062 11.1693 0.393229 11.0234 0.375 10.75C0.393229 10.4766 0.539062 10.3307 0.8125 10.3125H5.625H8.49609L5.76172 7.55078C5.57943 7.35026 5.57943 7.14974 5.76172 6.94922C5.96224 6.76693 6.16276 6.76693 6.36328 6.94922L9.86328 10.4492C10.0456 10.6497 10.0456 10.8503 9.86328 11.0508Z" fill="black" fill-opacity="0.72"/>
</g>
<defs>
<clipPath id="clip0_1731_2172">
<rect width="13" height="22" fill="white"/>
</clipPath>
</defs>
</svg>
