<svg width="24" height="36" viewBox="0 0 24 36" fill="none" xmlns="http://www.w3.org/2000/svg">
<g id="label-paired / xl / chevrons-up-xl / bold" clip-path="url(#clip0_1731_5923)">
<path id="icon" d="M12.7969 8.20312L21.7969 17.2031C22.2344 17.7344 22.2344 18.2656 21.7969 18.7969C21.2656 19.2344 20.7344 19.2344 20.2031 18.7969L12 10.5938L3.79688 18.7969C3.26562 19.2344 2.73438 19.2344 2.20312 18.7969C1.76562 18.2656 1.76562 17.7344 2.20312 17.2031L11.2031 8.20312C11.7344 7.76563 12.2656 7.76563 12.7969 8.20312ZM21.7969 26.2031C22.2344 26.7344 22.2344 27.2656 21.7969 27.7969C21.2656 28.2344 20.7344 28.2344 20.2031 27.7969L12 19.5938L3.79688 27.7969C3.26562 28.2344 2.73438 28.2344 2.20312 27.7969C1.76562 27.2656 1.76562 26.7344 2.20312 26.2031L11.2031 17.2031C11.7344 16.7656 12.2656 16.7656 12.7969 17.2031L21.7969 26.2031Z" fill="black" fill-opacity="0.72"/>
</g>
<defs>
<clipPath id="clip0_1731_5923">
<rect width="24" height="36" fill="white"/>
</clipPath>
</defs>
</svg>
