<svg width="14" height="22" viewBox="0 0 14 22" fill="none" xmlns="http://www.w3.org/2000/svg">
<g id="label-paired / sm / image-sm / bold" clip-path="url(#clip0_1731_3029)">
<path id="icon" d="M12.25 5.9375H1.75C1.47656 5.95573 1.33073 6.10156 1.3125 6.375V15.125L1.44922 14.9609L3.63672 11.8984C3.76432 11.7161 3.9375 11.625 4.15625 11.625C4.375 11.625 4.55729 11.7161 4.70312 11.8984L5.52344 13.0742L7.79297 10.1211C7.92057 9.95703 8.09375 9.875 8.3125 9.875C8.53125 9.875 8.70443 9.95703 8.83203 10.1211L12.5508 14.9336L12.6875 15.125V6.375C12.6693 6.10156 12.5234 5.95573 12.25 5.9375ZM1.75 4.625H12.25C12.7422 4.64323 13.1523 4.81641 13.4805 5.14453C13.8086 5.47266 13.9818 5.88281 14 6.375V15.125C13.9818 15.6172 13.8086 16.0273 13.4805 16.3555C13.1523 16.6836 12.7422 16.8568 12.25 16.875H1.75C1.25781 16.8568 0.847656 16.6836 0.519531 16.3555C0.191406 16.0273 0.0182292 15.6172 0 15.125V6.375C0.0182292 5.88281 0.191406 5.47266 0.519531 5.14453C0.847656 4.81641 1.25781 4.64323 1.75 4.625ZM3.9375 9.875C3.44531 9.85677 3.0625 9.63802 2.78906 9.21875C2.57031 8.78125 2.57031 8.34375 2.78906 7.90625C3.0625 7.48698 3.44531 7.26823 3.9375 7.25C4.42969 7.26823 4.8125 7.48698 5.08594 7.90625C5.30469 8.34375 5.30469 8.78125 5.08594 9.21875C4.8125 9.63802 4.42969 9.85677 3.9375 9.875Z" fill="black" fill-opacity="0.72"/>
</g>
<defs>
<clipPath id="clip0_1731_3029">
<rect width="14" height="22" fill="white"/>
</clipPath>
</defs>
</svg>
