<svg width="14" height="22" viewBox="0 0 14 22" fill="none" xmlns="http://www.w3.org/2000/svg">
<g id="label-paired / sm / chevrons-right-sm / bold" clip-path="url(#clip0_1731_2154)">
<path id="icon" d="M12.7148 10.2852C12.9701 10.5951 12.9701 10.9049 12.7148 11.2148L7.46484 16.4648C7.15495 16.7201 6.84505 16.7201 6.53516 16.4648C6.27995 16.1549 6.27995 15.8451 6.53516 15.5352L11.3203 10.75L6.53516 5.96484C6.27995 5.65495 6.27995 5.34505 6.53516 5.03516C6.84505 4.77995 7.15495 4.77995 7.46484 5.03516L12.7148 10.2852ZM2.21484 5.03516L7.46484 10.2852C7.72005 10.5951 7.72005 10.9049 7.46484 11.2148L2.21484 16.4648C1.90495 16.7201 1.59505 16.7201 1.28516 16.4648C1.02995 16.1549 1.02995 15.8451 1.28516 15.5352L6.07031 10.75L1.28516 5.96484C1.02995 5.65495 1.02995 5.34505 1.28516 5.03516C1.59505 4.77995 1.90495 4.77995 2.21484 5.03516Z" fill="black" fill-opacity="0.72"/>
</g>
<defs>
<clipPath id="clip0_1731_2154">
<rect width="14" height="22" fill="white"/>
</clipPath>
</defs>
</svg>
