<svg width="16" height="24" viewBox="0 0 16 24" fill="none" xmlns="http://www.w3.org/2000/svg">
<g id="label-paired / md / bullhorn-md / bold" clip-path="url(#clip0_1731_4129)">
<path id="icon" d="M13.5 6.3125L13.1562 6.65625C12.2604 7.53125 11.2396 8.21875 10.0938 8.71875C8.96875 9.19792 7.77083 9.45833 6.5 9.5V13.5C7.77083 13.5417 8.96875 13.8021 10.0938 14.2812C11.2396 14.7812 12.2604 15.4688 13.1562 16.3438L13.5 16.6875V6.3125ZM5 8H6.28125C7.38542 8 8.4375 7.79167 9.4375 7.375C10.4375 6.95833 11.3229 6.36458 12.0938 5.59375L13.2812 4.40625C13.6354 4.09375 14 4.02083 14.375 4.1875C14.75 4.33333 14.9583 4.63542 15 5.09375V9.625C15.2917 9.77083 15.5312 10.0104 15.7188 10.3438C15.9062 10.6771 16 11.0625 16 11.5C16 11.9375 15.9062 12.3229 15.7188 12.6562C15.5312 12.9896 15.2917 13.2292 15 13.375V17.9062C14.9583 18.3646 14.75 18.6667 14.375 18.8125C14 18.9792 13.6354 18.9062 13.2812 18.5938L12.0938 17.4062C11.3438 16.6562 10.4896 16.0729 9.53125 15.6562C8.57292 15.2604 7.5625 15.0417 6.5 15V18.25C6.47917 18.75 6.3125 19.1667 6 19.5C5.66667 19.8125 5.25 19.9792 4.75 20H3.75C3.25 19.9792 2.83333 19.8125 2.5 19.5C2.1875 19.1667 2.02083 18.75 2 18.25V15C1.4375 14.9792 0.96875 14.7812 0.59375 14.4062C0.21875 14.0312 0.0208333 13.5625 0 13V10C0.0208333 9.4375 0.21875 8.96875 0.59375 8.59375C0.96875 8.21875 1.4375 8.02083 2 8H5ZM3.5 15V18.25C3.52083 18.3958 3.60417 18.4792 3.75 18.5H4.75C4.89583 18.4792 4.97917 18.3958 5 18.25V15H3.5ZM2 9.5C1.6875 9.52083 1.52083 9.6875 1.5 10V13C1.52083 13.3125 1.6875 13.4792 2 13.5H3.5H5V9.5H2Z" fill="black" fill-opacity="0.72"/>
</g>
<defs>
<clipPath id="clip0_1731_4129">
<rect width="16" height="24" fill="white"/>
</clipPath>
</defs>
</svg>
