<svg width="20" height="30" viewBox="0 0 20 30" fill="none" xmlns="http://www.w3.org/2000/svg">
<g id="label-paired / lg / wallet-lg / regular" clip-path="url(#clip0_1731_5135)">
<path id="icon" d="M3.125 6.75H18.125C18.5156 6.77604 18.724 6.98438 18.75 7.375C18.724 7.76562 18.5156 7.97396 18.125 8H3.125C2.60417 8.02604 2.16146 8.20833 1.79688 8.54688C1.45833 8.91146 1.27604 9.35417 1.25 9.875V21.125C1.27604 21.6458 1.45833 22.0885 1.79688 22.4531C2.16146 22.7917 2.60417 22.974 3.125 23H16.875C17.3958 22.974 17.8385 22.7917 18.2031 22.4531C18.5417 22.0885 18.724 21.6458 18.75 21.125V12.375C18.724 11.8542 18.5417 11.4115 18.2031 11.0469C17.8385 10.7083 17.3958 10.526 16.875 10.5H4.375C3.98438 10.474 3.77604 10.2656 3.75 9.875C3.77604 9.48438 3.98438 9.27604 4.375 9.25H16.875C17.7604 9.27604 18.5026 9.57552 19.1016 10.1484C19.6745 10.7474 19.974 11.4896 20 12.375V21.125C19.974 22.0104 19.6745 22.7526 19.1016 23.3516C18.5026 23.9245 17.7604 24.224 16.875 24.25H3.125C2.23958 24.224 1.4974 23.9245 0.898438 23.3516C0.325521 22.7526 0.0260417 22.0104 0 21.125V9.875C0.0260417 8.98958 0.325521 8.2474 0.898438 7.64844C1.4974 7.07552 2.23958 6.77604 3.125 6.75ZM15 17.6875C14.4271 17.6354 14.1146 17.3229 14.0625 16.75C14.1146 16.1771 14.4271 15.8646 15 15.8125C15.5729 15.8646 15.8854 16.1771 15.9375 16.75C15.8854 17.3229 15.5729 17.6354 15 17.6875Z" fill="black" fill-opacity="0.72"/>
</g>
<defs>
<clipPath id="clip0_1731_5135">
<rect width="20" height="30" fill="white"/>
</clipPath>
</defs>
</svg>
