<svg width="14" height="22" viewBox="0 0 14 22" fill="none" xmlns="http://www.w3.org/2000/svg">
<g id="label-paired / sm / barcode-sm / regular" clip-path="url(#clip0_1731_2990)">
<path id="icon" d="M0 5.0625C0.0182292 4.78906 0.164062 4.64323 0.4375 4.625C0.710938 4.64323 0.856771 4.78906 0.875 5.0625V16.4375C0.856771 16.7109 0.710938 16.8568 0.4375 16.875C0.164062 16.8568 0.0182292 16.7109 0 16.4375V5.0625ZM1.75 5.0625C1.76823 4.78906 1.91406 4.64323 2.1875 4.625C2.46094 4.64323 2.60677 4.78906 2.625 5.0625V16.4375C2.60677 16.7109 2.46094 16.8568 2.1875 16.875C1.91406 16.8568 1.76823 16.7109 1.75 16.4375V5.0625ZM3.9375 4.625C4.21094 4.64323 4.35677 4.78906 4.375 5.0625V16.4375C4.35677 16.7109 4.21094 16.8568 3.9375 16.875C3.66406 16.8568 3.51823 16.7109 3.5 16.4375V5.0625C3.51823 4.78906 3.66406 4.64323 3.9375 4.625ZM6.125 5.0625C6.14323 4.78906 6.28906 4.64323 6.5625 4.625C6.83594 4.64323 6.98177 4.78906 7 5.0625V16.4375C6.98177 16.7109 6.83594 16.8568 6.5625 16.875C6.28906 16.8568 6.14323 16.7109 6.125 16.4375V5.0625ZM8.3125 4.625C8.58594 4.64323 8.73177 4.78906 8.75 5.0625V16.4375C8.73177 16.7109 8.58594 16.8568 8.3125 16.875C8.03906 16.8568 7.89323 16.7109 7.875 16.4375V5.0625C7.89323 4.78906 8.03906 4.64323 8.3125 4.625ZM10.5 5.0625C10.5182 4.78906 10.6641 4.64323 10.9375 4.625C11.2109 4.64323 11.3568 4.78906 11.375 5.0625V16.4375C11.3568 16.7109 11.2109 16.8568 10.9375 16.875C10.6641 16.8568 10.5182 16.7109 10.5 16.4375V5.0625ZM13.5625 4.625C13.8359 4.64323 13.9818 4.78906 14 5.0625V16.4375C13.9818 16.7109 13.8359 16.8568 13.5625 16.875C13.2891 16.8568 13.1432 16.7109 13.125 16.4375V5.0625C13.1432 4.78906 13.2891 4.64323 13.5625 4.625Z" fill="black" fill-opacity="0.72"/>
</g>
<defs>
<clipPath id="clip0_1731_2990">
<rect width="14" height="22" fill="white"/>
</clipPath>
</defs>
</svg>
