<svg width="25" height="30" viewBox="0 0 25 30" fill="none" xmlns="http://www.w3.org/2000/svg">
<g id="label-paired / lg / light-chart-line-up-down-clock-lg / bold" clip-path="url(#clip0_1731_4747)">
<path id="icon" d="M0 7.6875C0 7.17969 0.390625 6.75 0.9375 6.75C1.44531 6.75 1.875 7.17969 1.875 7.6875C1.875 12.2969 1.875 16.8672 1.875 21.4375C1.875 21.9844 2.26562 22.375 2.8125 22.375C6.17188 22.375 9.57031 22.375 12.9688 22.375C13.2031 23.0781 13.5938 23.7031 14.0625 24.25C10.3125 24.25 6.5625 24.25 2.8125 24.25C1.25 24.25 0 23 0 21.4375C0 16.8672 0 12.2969 0 7.6875ZM4.33594 14.875L7.46094 11.75C7.8125 11.3594 8.39844 11.3594 8.78906 11.75C9.60938 12.5703 10.4297 13.3906 11.25 14.2109C12.6562 12.7656 14.1016 11.3203 15.5469 9.875C15.2344 9.875 14.9609 9.875 14.6875 9.875C14.1406 9.875 13.75 9.48438 13.75 8.9375C13.75 8.42969 14.1406 8 14.6875 8C15.7031 8 16.7578 8 17.8125 8C18.0469 8 18.2812 8.11719 18.4766 8.27344C18.6328 8.46875 18.75 8.70312 18.75 8.9375C18.75 9.99219 18.75 11.0469 18.75 12.0625C18.75 12.6094 18.3203 13 17.8125 13C17.2656 13 16.875 12.6094 16.875 12.0625C16.875 11.7891 16.875 11.5156 16.875 11.2031C15.1953 12.8828 13.5547 14.5234 11.9141 16.1641C11.5234 16.5547 10.9375 16.5547 10.5859 16.1641C9.76562 15.3438 8.94531 14.5234 8.125 13.7031C7.30469 14.5234 6.48438 15.3438 5.66406 16.1641C5.27344 16.5547 4.6875 16.5547 4.33594 16.1641C3.94531 15.8125 3.94531 15.2266 4.33594 14.875ZM13.75 19.875C13.75 16.7891 16.25 14.25 19.375 14.25C22.4609 14.25 25 16.7891 25 19.875C25 23 22.4609 25.5 19.375 25.5C16.25 25.5 13.75 23 13.75 19.875ZM18.75 17.375V19.875C18.75 20.2266 19.0234 20.5 19.375 20.5C20 20.5 20.625 20.5 21.25 20.5C21.5625 20.5 21.875 20.2266 21.875 19.875C21.875 19.5625 21.5625 19.25 21.25 19.25C20.8203 19.25 20.3906 19.25 20 19.25C20 18.625 20 18 20 17.375C20 17.0625 19.6875 16.75 19.375 16.75C19.0234 16.75 18.75 17.0625 18.75 17.375Z" fill="black" fill-opacity="0.72"/>
</g>
<defs>
<clipPath id="clip0_1731_4747">
<rect width="25" height="30" fill="white"/>
</clipPath>
</defs>
</svg>
