<svg width="14" height="22" viewBox="0 0 14 22" fill="none" xmlns="http://www.w3.org/2000/svg">
<g id="label-paired / sm / at-sm / regular" clip-path="url(#clip0_1731_2616)">
<path id="icon" d="M7 4.625C5.85156 4.64323 4.82161 4.92578 3.91016 5.47266C2.98047 6.0013 2.2513 6.73047 1.72266 7.66016C1.17578 8.57161 0.893229 9.60156 0.875 10.75C0.893229 11.8984 1.17578 12.9284 1.72266 13.8398C2.2513 14.7695 2.98047 15.4987 3.91016 16.0273C4.82161 16.5742 5.85156 16.8568 7 16.875C7.27344 16.8932 7.41927 17.0391 7.4375 17.3125C7.41927 17.5859 7.27344 17.7318 7 17.75C5.6875 17.7318 4.51172 17.4128 3.47266 16.793C2.41536 16.1732 1.57682 15.3346 0.957031 14.2773C0.33724 13.2383 0.0182292 12.0625 0 10.75C0.0182292 9.4375 0.33724 8.26172 0.957031 7.22266C1.57682 6.16536 2.41536 5.32682 3.47266 4.70703C4.51172 4.08724 5.6875 3.76823 7 3.75C8.3125 3.76823 9.48828 4.08724 10.5273 4.70703C11.5846 5.32682 12.4232 6.16536 13.043 7.22266C13.6628 8.26172 13.9818 9.4375 14 10.75V11.4062C13.9818 12.0807 13.7448 12.6458 13.2891 13.1016C12.8333 13.5573 12.2682 13.7943 11.5938 13.8125C11.138 13.8125 10.7188 13.694 10.3359 13.457C9.97135 13.2383 9.6888 12.9375 9.48828 12.5547C8.88672 13.3568 8.05729 13.776 7 13.8125C6.125 13.7943 5.40495 13.4935 4.83984 12.9102C4.25651 12.3451 3.95573 11.625 3.9375 10.75C3.95573 9.875 4.25651 9.15495 4.83984 8.58984C5.40495 8.00651 6.125 7.70573 7 7.6875C7.875 7.70573 8.60417 8.01562 9.1875 8.61719V8.5625C9.20573 8.28906 9.35156 8.14323 9.625 8.125C9.89844 8.14323 10.0443 8.28906 10.0625 8.5625V10.75V11.4062C10.0807 11.8438 10.2266 12.2083 10.5 12.5C10.7917 12.7734 11.1562 12.9193 11.5938 12.9375C12.0312 12.9193 12.3958 12.7734 12.6875 12.5C12.9609 12.2083 13.1068 11.8438 13.125 11.4062V10.75C13.1068 9.60156 12.8242 8.57161 12.2773 7.66016C11.7487 6.73047 11.0195 6.0013 10.0898 5.47266C9.17839 4.92578 8.14844 4.64323 7 4.625ZM9.1875 10.75C9.16927 9.92969 8.80469 9.30078 8.09375 8.86328C7.36458 8.46224 6.63542 8.46224 5.90625 8.86328C5.19531 9.30078 4.83073 9.92969 4.8125 10.75C4.83073 11.5703 5.19531 12.1992 5.90625 12.6367C6.63542 13.0378 7.36458 13.0378 8.09375 12.6367C8.80469 12.1992 9.16927 11.5703 9.1875 10.75Z" fill="black" fill-opacity="0.72"/>
</g>
<defs>
<clipPath id="clip0_1731_2616">
<rect width="14" height="22" fill="white"/>
</clipPath>
</defs>
</svg>
