<svg width="20" height="24" viewBox="0 0 20 24" fill="none" xmlns="http://www.w3.org/2000/svg">
<g id="label-paired / md / deal-protection-md / regular" clip-path="url(#clip0_1731_3275)">
<path id="icon" d="M2.875 7.8125H5.84375C6.375 7.8125 6.84375 7.90625 7.28125 8.09375C7.71875 8.25 8.09375 8.53125 8.40625 8.875C8.71875 9.21875 8.96875 9.65625 9.125 10.1875C9.28125 10.7188 9.375 11.3125 9.375 12C9.375 12.7188 9.28125 13.3125 9.125 13.8438C8.96875 14.375 8.71875 14.8125 8.40625 15.1562C8.09375 15.5 7.71875 15.75 7.28125 15.9375C6.84375 16.125 6.375 16.2188 5.84375 16.2188H2.875V7.8125ZM5.84375 15C6.46875 15 6.96875 14.8125 7.34375 14.4062C7.71875 14.0312 7.9375 13.4375 7.9375 12.6875V11.3438C7.9375 10.5938 7.71875 10 7.34375 9.625C6.96875 9.21875 6.46875 9.03125 5.84375 9.03125H4.21875V15H5.84375ZM11.0625 16.1875V7.8125H14.6562C15.4375 7.8125 16.0312 8.0625 16.4688 8.5C16.875 8.96875 17.0938 9.59375 17.0938 10.3438C17.0938 11.125 16.875 11.7188 16.4688 12.1875C16.0312 12.6562 15.4375 12.875 14.6562 12.875H12.4062V16.1875H11.0625ZM12.4062 11.6875H14.5938C14.9375 11.6875 15.1875 11.5938 15.375 11.4062C15.5625 11.2188 15.6562 10.9688 15.6562 10.625V10.0625C15.6562 9.71875 15.5625 9.46875 15.375 9.28125C15.1875 9.09375 14.9375 9 14.5938 9H12.4062V11.6875Z" fill="black" fill-opacity="0.72"/>
</g>
<defs>
<clipPath id="clip0_1731_3275">
<rect width="20" height="24" fill="white"/>
</clipPath>
</defs>
</svg>
