<svg width="14" height="22" viewBox="0 0 14 22" fill="none" xmlns="http://www.w3.org/2000/svg">
<g id="label-paired / sm / file-certificate-sm / bold" clip-path="url(#clip0_1731_2845)">
<path id="icon" d="M12.25 16.4375C12.5234 16.4193 12.6693 16.2734 12.6875 16V8.125H10.5C10.2448 8.125 10.0352 8.04297 9.87109 7.87891C9.70703 7.71484 9.625 7.50521 9.625 7.25V5.0625H5.25C4.97656 5.08073 4.83073 5.22656 4.8125 5.5V7.35938C4.44792 7.21354 4.07422 7.21354 3.69141 7.35938C3.63672 7.3776 3.58203 7.39583 3.52734 7.41406C3.52734 7.43229 3.51823 7.44141 3.5 7.44141V5.5C3.51823 5.00781 3.69141 4.59766 4.01953 4.26953C4.34766 3.94141 4.75781 3.76823 5.25 3.75H9.78906C10.263 3.75 10.6732 3.92318 11.0195 4.26953L13.4805 6.73047C13.8268 7.07682 14 7.49609 14 7.98828V16C13.9818 16.4922 13.8086 16.9023 13.4805 17.2305C13.1523 17.5586 12.7422 17.7318 12.25 17.75H6.04297C6.09766 17.6042 6.125 17.4583 6.125 17.3125V16.4375H12.25ZM2.98047 8.17969L3.41797 8.34375C3.47266 8.36198 3.52734 8.36198 3.58203 8.34375L4.01953 8.17969C4.32943 8.07031 4.58464 8.13411 4.78516 8.37109L5.08594 8.75391C5.1224 8.79036 5.16797 8.81771 5.22266 8.83594L5.6875 8.89062C5.9974 8.94531 6.17969 9.1276 6.23438 9.4375L6.31641 9.90234C6.31641 9.95703 6.34375 10.0117 6.39844 10.0664L6.75391 10.3398C6.99089 10.5586 7.0638 10.8138 6.97266 11.1055L6.78125 11.543C6.76302 11.5977 6.76302 11.6523 6.78125 11.707L6.94531 12.1445C7.05469 12.4362 6.99089 12.6914 6.75391 12.9102L6.37109 13.1836C6.33464 13.2201 6.30729 13.2747 6.28906 13.3477L6.23438 13.8125C6.17969 14.1224 5.9974 14.3047 5.6875 14.3594L5.25 14.4141V17.3125C5.25 17.4766 5.17708 17.6042 5.03125 17.6953C4.86719 17.7682 4.71224 17.7591 4.56641 17.668L3.5 16.957L2.43359 17.668C2.28776 17.7591 2.14193 17.7682 1.99609 17.6953C1.83203 17.6042 1.75 17.4766 1.75 17.3125V14.4141L1.3125 14.3594C1.0026 14.3047 0.820312 14.1224 0.765625 13.8125L0.710938 13.3477C0.692708 13.2747 0.665365 13.2201 0.628906 13.1836L0.246094 12.9102C0.00911458 12.6914 -0.0546875 12.4362 0.0546875 12.1445L0.21875 11.707C0.236979 11.6523 0.236979 11.5977 0.21875 11.543L0.0546875 11.1055C-0.0546875 10.8138 0.00911458 10.5586 0.246094 10.3398L0.628906 10.0664C0.665365 10.0299 0.692708 9.97526 0.710938 9.90234L0.765625 9.4375C0.820312 9.1276 1.01172 8.94531 1.33984 8.89062L1.77734 8.83594C1.85026 8.81771 1.90495 8.79036 1.94141 8.75391L2.21484 8.37109C2.43359 8.13411 2.6888 8.07031 2.98047 8.17969ZM1.75 11.625C1.76823 12.2812 2.0599 12.7826 2.625 13.1289C3.20833 13.457 3.79167 13.457 4.375 13.1289C4.9401 12.7826 5.23177 12.2812 5.25 11.625C5.23177 10.9688 4.9401 10.4674 4.375 10.1211C3.79167 9.79297 3.20833 9.79297 2.625 10.1211C2.0599 10.4674 1.76823 10.9688 1.75 11.625Z" fill="black" fill-opacity="0.72"/>
</g>
<defs>
<clipPath id="clip0_1731_2845">
<rect width="14" height="22" fill="white"/>
</clipPath>
</defs>
</svg>
