<svg width="25" height="30" viewBox="0 0 25 30" fill="none" xmlns="http://www.w3.org/2000/svg">
<g id="label-paired / lg / ipados-lg" clip-path="url(#clip0_1731_14047)">
<path id="icon" d="M16.7578 11.3594C16.7578 10.8125 16.4844 10.4609 16.0547 10.4609C15.625 10.4609 15.3516 10.7734 15.3516 11.3594C15.3516 11.9453 15.625 12.2969 16.0547 12.2969C16.4844 12.2969 16.7578 11.9453 16.7578 11.3594ZM11.0156 10.3438C11.0156 10.7734 10.7422 11.0078 10.2734 11.0078H9.57031V9.64062H10.2734C10.7422 9.64062 11.0156 9.875 11.0156 10.3438ZM9.33594 14.875C10.8203 14.875 11.7188 16.0078 11.7188 17.8047C11.7188 19.5625 10.8203 20.6953 9.33594 20.6953C7.85156 20.6953 6.91406 19.5625 6.91406 17.8047C6.91406 16.0078 7.85156 14.875 9.33594 14.875ZM13.0078 11.5156C12.6562 11.5547 12.5 11.6719 12.5 11.9062C12.5 12.1797 12.6953 12.2969 12.9688 12.2969C13.3594 12.2969 13.6719 12.0625 13.6719 11.7109V11.4766L13.0078 11.5156ZM22.0703 8.19531C22.4609 9.17188 22.5 10.3047 22.5 11.0078V20.0312C22.5 20.7344 22.4609 21.8672 22.0703 22.8438C21.875 23.3516 21.4453 24.0547 20.8203 24.5234C20.4297 24.7969 20 25.0703 19.4141 25.2656C18.75 25.4609 17.9688 25.5 16.9922 25.5H7.96875C6.99219 25.5 6.21094 25.4609 5.54688 25.2656C4.96094 25.0703 4.53125 24.7969 4.14062 24.5234C3.51562 24.0547 3.08594 23.3516 2.89062 22.8438C2.5 21.8672 2.5 20.7344 2.5 20.0312V11.0078C2.5 10.3047 2.5 9.17188 2.89062 8.19531C3.08594 7.6875 3.51562 6.98438 4.14062 6.51562C4.53125 6.20312 4.96094 5.96875 5.54688 5.77344C6.21094 5.57812 6.99219 5.5 7.96875 5.5H16.9922C17.9688 5.5 18.75 5.57812 19.4141 5.77344C20 5.92969 20.4297 6.20312 20.8203 6.51562C21.4453 6.98438 21.875 7.6875 22.0703 8.19531ZM15.8984 9.99219C15.2344 9.99219 14.8047 10.5391 14.8047 11.3594C14.8047 12.2188 15.2344 12.7266 15.8984 12.7266C16.2891 12.7266 16.5625 12.5703 16.7578 12.2578H16.7969V12.6875H17.2656V9.01562H16.7578V10.4609H16.7188C16.5625 10.1875 16.25 9.99219 15.8984 9.99219ZM9.02344 9.17188V12.6875H9.57031V11.4766H10.3906C11.0547 11.4766 11.5625 11.0078 11.5625 10.3438C11.5625 9.64062 11.0938 9.17188 10.3906 9.17188H9.02344ZM7.92969 9.5625C8.04688 9.60156 8.16406 9.52344 8.24219 9.40625C8.32031 9.32812 8.32031 9.17188 8.24219 9.05469C8.16406 8.9375 8.04688 8.89844 7.92969 8.89844C7.8125 8.89844 7.69531 8.9375 7.61719 9.05469C7.53906 9.17188 7.53906 9.32812 7.61719 9.40625C7.69531 9.52344 7.8125 9.60156 7.92969 9.5625ZM8.20312 10.0312H7.65625V12.6875H8.20312V10.0312ZM9.33594 21.5547C11.3672 21.5547 12.6562 20.1094 12.6562 17.8047C12.6562 15.5 11.3672 14.0156 9.33594 14.0156C7.26562 14.0156 5.97656 15.5 5.97656 17.8047C5.97656 20.1094 7.26562 21.5547 9.33594 21.5547ZM11.9531 11.9453C11.9531 12.4141 12.3438 12.7266 12.8516 12.7266C13.2031 12.7266 13.4766 12.5703 13.6328 12.2969H13.6719V12.6875H14.1797V10.8906C14.1797 10.3047 13.8281 9.99219 13.125 9.99219C12.5391 9.99219 12.1094 10.2656 12.0703 10.7344H12.5781C12.6172 10.5391 12.8125 10.4219 13.125 10.4219C13.4766 10.4219 13.6719 10.5781 13.6719 10.8906V11.125L12.9297 11.1641C12.3047 11.2031 11.9531 11.4766 11.9531 11.9453ZM16.0547 21.5547C17.6562 21.5547 18.7109 20.6953 18.7109 19.3672C18.7109 18.3125 18.125 17.7266 16.6016 17.375L15.8203 17.2188C14.8047 16.9844 14.4141 16.5938 14.4141 16.0469C14.4141 15.3047 15.1172 14.8359 16.0156 14.8359C16.9922 14.8359 17.6172 15.3438 17.6953 16.125H18.5938C18.5547 14.9141 17.5 14.0156 16.0547 14.0156C14.5312 14.0156 13.4766 14.875 13.4766 16.0859C13.4766 17.1016 14.1406 17.7656 15.5859 18.0781L16.3672 18.2734C17.3828 18.4688 17.7734 18.8984 17.7734 19.4844C17.7734 20.1875 17.0703 20.7344 16.0938 20.7344C15.0391 20.7344 14.3359 20.2656 14.2188 19.4844H13.3203C13.3984 20.7344 14.4531 21.5547 16.0547 21.5547Z" fill="black" fill-opacity="0.72"/>
</g>
<defs>
<clipPath id="clip0_1731_14047">
<rect width="25" height="30" fill="white"/>
</clipPath>
</defs>
</svg>
