<svg width="20" height="30" viewBox="0 0 20 30" fill="none" xmlns="http://www.w3.org/2000/svg">
<g id="label-paired / lg / circle-star-lg / regular" clip-path="url(#clip0_1731_5551)">
<path id="icon" d="M10 6.75C8.41146 6.77604 6.95312 7.16667 5.625 7.92188C4.29688 8.70312 3.22917 9.77083 2.42188 11.125C1.64062 12.5052 1.25 13.9635 1.25 15.5C1.25 17.0365 1.64062 18.4948 2.42188 19.875C3.22917 21.2292 4.29688 22.2969 5.625 23.0781C6.95312 23.8333 8.41146 24.224 10 24.25C11.5885 24.224 13.0469 23.8333 14.375 23.0781C15.7031 22.2969 16.7708 21.2292 17.5781 19.875C18.3594 18.4948 18.75 17.0365 18.75 15.5C18.75 13.9635 18.3594 12.5052 17.5781 11.125C16.7708 9.77083 15.7031 8.70312 14.375 7.92188C13.0469 7.16667 11.5885 6.77604 10 6.75ZM10 25.5C8.17708 25.474 6.51042 25.0312 5 24.1719C3.48958 23.2865 2.26562 22.0625 1.32812 20.5C0.442708 18.9115 0 17.2448 0 15.5C0 13.7552 0.442708 12.0885 1.32812 10.5C2.26562 8.9375 3.48958 7.71354 5 6.82812C6.51042 5.96875 8.17708 5.52604 10 5.5C11.8229 5.52604 13.4896 5.96875 15 6.82812C16.5104 7.71354 17.7344 8.9375 18.6719 10.5C19.5573 12.0885 20 13.7552 20 15.5C20 17.2448 19.5573 18.9115 18.6719 20.5C17.7344 22.0625 16.5104 23.2865 15 24.1719C13.4896 25.0312 11.8229 25.474 10 25.5ZM10.5469 9.91406L11.9922 12.7656L15.1562 13.2344C15.3906 13.2865 15.5599 13.4297 15.6641 13.6641C15.7161 13.8984 15.6641 14.1198 15.5078 14.3281L13.2031 16.5547L13.75 19.6797C13.776 19.9401 13.6849 20.1484 13.4766 20.3047C13.2682 20.4349 13.0599 20.4479 12.8516 20.3438L10 18.8594L7.1875 20.3438C6.95312 20.4479 6.73177 20.4349 6.52344 20.3047C6.3151 20.1484 6.22396 19.9401 6.25 19.6797L6.79688 16.5547L4.53125 14.2891C4.34896 14.1068 4.29688 13.8984 4.375 13.6641C4.45312 13.4297 4.60938 13.2865 4.84375 13.2344L8.00781 12.7656L9.45312 9.91406C9.55729 9.67969 9.73958 9.5625 10 9.5625C10.2604 9.5625 10.4427 9.67969 10.5469 9.91406ZM8.98438 13.625C8.88021 13.8073 8.72396 13.9245 8.51562 13.9766L6.28906 14.2891L7.89062 15.8906C8.04688 16.0469 8.11198 16.2292 8.08594 16.4375L7.69531 18.6641L9.6875 17.6094C9.89583 17.5052 10.0911 17.5052 10.2734 17.6094L12.3047 18.6641L11.9141 16.4375C11.888 16.2292 11.9401 16.0469 12.0703 15.8906L13.7109 14.2891L11.4844 13.9766C11.25 13.9245 11.0938 13.8073 11.0156 13.625L10 11.5938L8.98438 13.625Z" fill="black" fill-opacity="0.72"/>
</g>
<defs>
<clipPath id="clip0_1731_5551">
<rect width="20" height="30" fill="white"/>
</clipPath>
</defs>
</svg>
