<svg width="4" height="22" viewBox="0 0 4 22" fill="none" xmlns="http://www.w3.org/2000/svg">
<g id="label-paired / sm / ellipsis-vertical-sm / bold" clip-path="url(#clip0_1731_1914)">
<path id="icon" d="M2 13.8125C2.49219 13.8307 2.875 14.0495 3.14844 14.4688C3.36719 14.9062 3.36719 15.3438 3.14844 15.7812C2.875 16.2005 2.49219 16.4193 2 16.4375C1.50781 16.4193 1.125 16.2005 0.851562 15.7812C0.632812 15.3438 0.632812 14.9062 0.851562 14.4688C1.125 14.0495 1.50781 13.8307 2 13.8125ZM2 9.4375C2.49219 9.45573 2.875 9.67448 3.14844 10.0938C3.36719 10.5312 3.36719 10.9688 3.14844 11.4062C2.875 11.8255 2.49219 12.0443 2 12.0625C1.50781 12.0443 1.125 11.8255 0.851562 11.4062C0.632812 10.9688 0.632812 10.5312 0.851562 10.0938C1.125 9.67448 1.50781 9.45573 2 9.4375ZM3.3125 6.375C3.29427 6.86719 3.07552 7.25 2.65625 7.52344C2.21875 7.74219 1.78125 7.74219 1.34375 7.52344C0.924479 7.25 0.705729 6.86719 0.6875 6.375C0.705729 5.88281 0.924479 5.5 1.34375 5.22656C1.78125 5.00781 2.21875 5.00781 2.65625 5.22656C3.07552 5.5 3.29427 5.88281 3.3125 6.375Z" fill="black" fill-opacity="0.72"/>
</g>
<defs>
<clipPath id="clip0_1731_1914">
<rect width="4" height="22" fill="white"/>
</clipPath>
</defs>
</svg>
