<svg width="11" height="22" viewBox="0 0 11 22" fill="none" xmlns="http://www.w3.org/2000/svg">
<g id="label-paired / sm / four-sm / bold" clip-path="url(#clip0_1731_2270)">
<path id="icon" d="M5.41797 5.58203L2 12.0625H7.6875V7.90625C7.72396 7.50521 7.94271 7.28646 8.34375 7.25C8.74479 7.28646 8.96354 7.50521 9 7.90625V12.0625H10.0938C10.4948 12.099 10.7135 12.3177 10.75 12.7188C10.7135 13.1198 10.4948 13.3385 10.0938 13.375H9V16.2188C8.96354 16.6198 8.74479 16.8385 8.34375 16.875C7.94271 16.8385 7.72396 16.6198 7.6875 16.2188V13.375H0.90625C0.669271 13.375 0.477865 13.2656 0.332031 13.0469C0.222656 12.8464 0.222656 12.6367 0.332031 12.418L4.26953 4.98047C4.48828 4.63411 4.77995 4.54297 5.14453 4.70703C5.49089 4.92578 5.58203 5.21745 5.41797 5.58203Z" fill="black" fill-opacity="0.72"/>
</g>
<defs>
<clipPath id="clip0_1731_2270">
<rect width="11" height="22" fill="white"/>
</clipPath>
</defs>
</svg>
