<svg width="16" height="24" viewBox="0 0 16 24" fill="none" xmlns="http://www.w3.org/2000/svg">
<g id="label-paired / md / chart-mixed-md / regular" clip-path="url(#clip0_1731_3758)">
<path id="icon" d="M15.875 5.15625C16.0625 5.40625 16.0521 5.64583 15.8438 5.875L10.3438 10.875C10.1146 11.0417 9.88542 11.0312 9.65625 10.8438L5.9375 7.15625L0.78125 10.9062C0.53125 11.0521 0.302083 11.0104 0.09375 10.7812C-0.0520833 10.5312 -0.0104167 10.3021 0.21875 10.0938L5.71875 6.09375C5.94792 5.94792 6.15625 5.96875 6.34375 6.15625L10.0312 9.8125L15.1562 5.125C15.4062 4.9375 15.6458 4.94792 15.875 5.15625ZM2.5 17.5V15.5C2.47917 15.1875 2.3125 15.0208 2 15C1.6875 15.0208 1.52083 15.1875 1.5 15.5V17.5C1.52083 17.8125 1.6875 17.9792 2 18C2.3125 17.9792 2.47917 17.8125 2.5 17.5ZM2 14C2.41667 14.0208 2.77083 14.1667 3.0625 14.4375C3.33333 14.7292 3.47917 15.0833 3.5 15.5V17.5C3.47917 17.9167 3.33333 18.2708 3.0625 18.5625C2.77083 18.8333 2.41667 18.9792 2 19C1.58333 18.9792 1.22917 18.8333 0.9375 18.5625C0.666667 18.2708 0.520833 17.9167 0.5 17.5V15.5C0.520833 15.0833 0.666667 14.7292 0.9375 14.4375C1.22917 14.1667 1.58333 14.0208 2 14ZM6.5 12.5C6.47917 12.1875 6.3125 12.0208 6 12C5.6875 12.0208 5.52083 12.1875 5.5 12.5V17.5C5.52083 17.8125 5.6875 17.9792 6 18C6.3125 17.9792 6.47917 17.8125 6.5 17.5V12.5ZM4.5 12.5C4.52083 12.0833 4.66667 11.7292 4.9375 11.4375C5.22917 11.1667 5.58333 11.0208 6 11C6.41667 11.0208 6.77083 11.1667 7.0625 11.4375C7.33333 11.7292 7.47917 12.0833 7.5 12.5V17.5C7.47917 17.9167 7.33333 18.2708 7.0625 18.5625C6.77083 18.8333 6.41667 18.9792 6 19C5.58333 18.9792 5.22917 18.8333 4.9375 18.5625C4.66667 18.2708 4.52083 17.9167 4.5 17.5V12.5ZM10.5 17.5V14.5C10.4792 14.1875 10.3125 14.0208 10 14C9.6875 14.0208 9.52083 14.1875 9.5 14.5V17.5C9.52083 17.8125 9.6875 17.9792 10 18C10.3125 17.9792 10.4792 17.8125 10.5 17.5ZM10 13C10.4167 13.0208 10.7708 13.1667 11.0625 13.4375C11.3333 13.7292 11.4792 14.0833 11.5 14.5V17.5C11.4792 17.9167 11.3333 18.2708 11.0625 18.5625C10.7708 18.8333 10.4167 18.9792 10 19C9.58333 18.9792 9.22917 18.8333 8.9375 18.5625C8.66667 18.2708 8.52083 17.9167 8.5 17.5V14.5C8.52083 14.0833 8.66667 13.7292 8.9375 13.4375C9.22917 13.1667 9.58333 13.0208 10 13ZM14.5 12.5C14.4792 12.1875 14.3125 12.0208 14 12C13.6875 12.0208 13.5208 12.1875 13.5 12.5V17.5C13.5208 17.8125 13.6875 17.9792 14 18C14.3125 17.9792 14.4792 17.8125 14.5 17.5V12.5ZM12.5 12.5C12.5208 12.0833 12.6667 11.7292 12.9375 11.4375C13.2292 11.1667 13.5833 11.0208 14 11C14.4167 11.0208 14.7708 11.1667 15.0625 11.4375C15.3333 11.7292 15.4792 12.0833 15.5 12.5V17.5C15.4792 17.9167 15.3333 18.2708 15.0625 18.5625C14.7708 18.8333 14.4167 18.9792 14 19C13.5833 18.9792 13.2292 18.8333 12.9375 18.5625C12.6667 18.2708 12.5208 17.9167 12.5 17.5V12.5Z" fill="black" fill-opacity="0.72"/>
</g>
<defs>
<clipPath id="clip0_1731_3758">
<rect width="16" height="24" fill="white"/>
</clipPath>
</defs>
</svg>
