<svg width="12" height="18" viewBox="0 0 12 18" fill="none" xmlns="http://www.w3.org/2000/svg">
<g id="label-paired / caption / circle-four-caption / regular" clip-path="url(#clip0_1731_1060)">
<path id="icon" d="M11.25 9.5C11.2344 8.54688 11 7.67188 10.5469 6.875C10.0781 6.07812 9.4375 5.4375 8.625 4.95312C7.79688 4.48438 6.92188 4.25 6 4.25C5.07812 4.25 4.20312 4.48438 3.375 4.95312C2.5625 5.4375 1.92188 6.07812 1.45312 6.875C1 7.67188 0.765625 8.54688 0.75 9.5C0.765625 10.4531 1 11.3281 1.45312 12.125C1.92188 12.9219 2.5625 13.5625 3.375 14.0469C4.20312 14.5156 5.07812 14.75 6 14.75C6.92188 14.75 7.79688 14.5156 8.625 14.0469C9.4375 13.5625 10.0781 12.9219 10.5469 12.125C11 11.3281 11.2344 10.4531 11.25 9.5ZM0 9.5C0.015625 8.40625 0.28125 7.40625 0.796875 6.5C1.32812 5.59375 2.0625 4.85938 3 4.29688C3.95312 3.76562 4.95312 3.5 6 3.5C7.04688 3.5 8.04688 3.76562 9 4.29688C9.9375 4.85938 10.6719 5.59375 11.2031 6.5C11.7188 7.40625 11.9844 8.40625 12 9.5C11.9844 10.5938 11.7188 11.5938 11.2031 12.5C10.6719 13.4062 9.9375 14.1406 9 14.7031C8.04688 15.2344 7.04688 15.5 6 15.5C4.95312 15.5 3.95312 15.2344 3 14.7031C2.0625 14.1406 1.32812 13.4062 0.796875 12.5C0.28125 11.5938 0.015625 10.5938 0 9.5ZM5.39062 6.52344C5.59375 6.63281 5.66406 6.79688 5.60156 7.01562L4.3125 10.25H6.75V8.375C6.76562 8.14062 6.89062 8.01562 7.125 8C7.35938 8.01562 7.48438 8.14062 7.5 8.375V10.25H7.875C8.10938 10.2656 8.23438 10.3906 8.25 10.625C8.23438 10.8594 8.10938 10.9844 7.875 11H7.5V12.125C7.48438 12.3594 7.35938 12.4844 7.125 12.5C6.89062 12.4844 6.76562 12.3594 6.75 12.125V11H3.75C3.625 11 3.52344 10.9453 3.44531 10.8359C3.36719 10.7266 3.35156 10.6094 3.39844 10.4844L4.89844 6.73438C5.00781 6.53125 5.17188 6.46094 5.39062 6.52344Z" fill="black" fill-opacity="0.72"/>
</g>
<defs>
<clipPath id="clip0_1731_1060">
<rect width="12" height="18" fill="white"/>
</clipPath>
</defs>
</svg>
