<svg width="14" height="24" viewBox="0 0 14 24" fill="none" xmlns="http://www.w3.org/2000/svg">
<g id="label-paired / md / compress-md / regular" clip-path="url(#clip0_1731_3100)">
<path id="icon" d="M5 5.5V9.5C4.97917 9.8125 4.8125 9.97917 4.5 10H0.5C0.1875 9.97917 0.0208333 9.8125 0 9.5C0.0208333 9.1875 0.1875 9.02083 0.5 9H4V5.5C4.02083 5.1875 4.1875 5.02083 4.5 5C4.8125 5.02083 4.97917 5.1875 5 5.5ZM0.5 14H4.5C4.8125 14.0208 4.97917 14.1875 5 14.5V18.5C4.97917 18.8125 4.8125 18.9792 4.5 19C4.1875 18.9792 4.02083 18.8125 4 18.5V15H0.5C0.1875 14.9792 0.0208333 14.8125 0 14.5C0.0208333 14.1875 0.1875 14.0208 0.5 14ZM10 5.5V9H13.5C13.8125 9.02083 13.9792 9.1875 14 9.5C13.9792 9.8125 13.8125 9.97917 13.5 10H9.5C9.1875 9.97917 9.02083 9.8125 9 9.5V5.5C9.02083 5.1875 9.1875 5.02083 9.5 5C9.8125 5.02083 9.97917 5.1875 10 5.5ZM9.5 14H13.5C13.8125 14.0208 13.9792 14.1875 14 14.5C13.9792 14.8125 13.8125 14.9792 13.5 15H10V18.5C9.97917 18.8125 9.8125 18.9792 9.5 19C9.1875 18.9792 9.02083 18.8125 9 18.5V14.5C9.02083 14.1875 9.1875 14.0208 9.5 14Z" fill="black" fill-opacity="0.72"/>
</g>
<defs>
<clipPath id="clip0_1731_3100">
<rect width="14" height="24" fill="white"/>
</clipPath>
</defs>
</svg>
