<svg width="30" height="36" viewBox="0 0 30 36" fill="none" xmlns="http://www.w3.org/2000/svg">
<g id="label-paired / xl / stop-loss-xl / bold" clip-path="url(#clip0_1731_5803)">
<path id="icon" d="M10.0312 24.5156C8.90625 24.5156 7.96875 24.3281 7.21875 23.9531C6.42188 23.5781 5.8125 23.0625 5.25 22.5L7.03125 20.6719C7.92188 21.6094 8.95312 22.125 10.2188 22.125C10.875 22.125 11.3906 21.9844 11.6719 21.7031C12 21.4219 12.1875 21.0469 12.1875 20.5781C12.1875 20.25 12.0938 19.9688 11.9062 19.7344C11.7188 19.5 11.2969 19.3125 10.7344 19.2656L9.46875 19.0781C8.15625 18.8906 7.17188 18.5156 6.5625 17.8594C5.95312 17.25 5.625 16.4062 5.625 15.3281C5.625 14.7656 5.71875 14.25 5.95312 13.7812C6.1875 13.3125 6.46875 12.9375 6.89062 12.6094C7.26562 12.2344 7.78125 12 8.34375 11.8125C8.95312 11.625 9.60938 11.5312 10.3594 11.5312C11.2969 11.5312 12.1406 11.6719 12.8438 12C13.5469 12.2812 14.2031 12.7031 14.7188 13.3125L12.8906 15.1406C12.5625 14.7656 12.2344 14.4844 11.7656 14.2969C11.3438 14.0625 10.8281 13.9219 10.1719 13.9219C9.5625 13.9219 9.09375 14.0625 8.8125 14.25C8.53125 14.4844 8.34375 14.7656 8.34375 15.1875C8.34375 15.6094 8.48438 15.8906 8.71875 16.125C8.95312 16.3125 9.32812 16.4531 9.84375 16.5L11.1094 16.7344C12.375 16.9219 13.3594 17.2969 13.9688 17.9062C14.625 18.5156 14.9062 19.3594 14.9062 20.4375C14.9062 21.0469 14.8125 21.6094 14.5781 22.0781C14.3906 22.5938 14.0625 23.0156 13.6406 23.3906C13.2188 23.7656 12.7031 24.0469 12.0938 24.2344C11.4844 24.4219 10.7812 24.5156 10.0312 24.5156ZM17.2031 24.2812V11.7188H19.9219V21.8906H24.7031V24.2812H17.2031Z" fill="black" fill-opacity="0.72"/>
</g>
<defs>
<clipPath id="clip0_1731_5803">
<rect width="30" height="36" fill="white"/>
</clipPath>
</defs>
</svg>
