<svg width="14" height="24" viewBox="0 0 14 24" fill="none" xmlns="http://www.w3.org/2000/svg">
<g id="label-paired / md / square-check-md / fill" clip-path="url(#clip0_1731_3306)">
<path id="icon" d="M2 5H12C12.5625 5.02083 13.0312 5.21875 13.4062 5.59375C13.7812 5.96875 13.9792 6.4375 14 7V17C13.9792 17.5625 13.7812 18.0312 13.4062 18.4062C13.0312 18.7812 12.5625 18.9792 12 19H2C1.4375 18.9792 0.96875 18.7812 0.59375 18.4062C0.21875 18.0312 0.0208333 17.5625 0 17V7C0.0208333 6.4375 0.21875 5.96875 0.59375 5.59375C0.96875 5.21875 1.4375 5.02083 2 5ZM10.5312 10.5312C10.8229 10.1771 10.8229 9.82292 10.5312 9.46875C10.1771 9.17708 9.82292 9.17708 9.46875 9.46875L6 12.9375L4.53125 11.4688C4.17708 11.1771 3.82292 11.1771 3.46875 11.4688C3.17708 11.8229 3.17708 12.1771 3.46875 12.5312L5.46875 14.5312C5.82292 14.8229 6.17708 14.8229 6.53125 14.5312L10.5312 10.5312Z" fill="black" fill-opacity="0.72"/>
</g>
<defs>
<clipPath id="clip0_1731_3306">
<rect width="14" height="24" fill="white"/>
</clipPath>
</defs>
</svg>
