<svg width="20" height="30" viewBox="0 0 20 30" fill="none" xmlns="http://www.w3.org/2000/svg">
<g id="label-paired / lg / facebook-lg" clip-path="url(#clip0_1731_14057)">
<path id="icon" d="M19.6875 15.5C19.6354 17.974 18.8542 20.0833 17.3438 21.8281C15.8333 23.5729 13.8932 24.6536 11.5234 25.0703V18.3125H13.7891L14.2188 15.5H11.5234V13.6641C11.4974 13.2734 11.6016 12.9349 11.8359 12.6484C12.0703 12.3359 12.487 12.1797 13.0859 12.1797H14.2969V9.79688C14.2708 9.77083 14.0495 9.73177 13.6328 9.67969C13.1901 9.6276 12.6953 9.60156 12.1484 9.60156C11.0286 9.60156 10.1432 9.92708 9.49219 10.5781C8.84115 11.2292 8.5026 12.1536 8.47656 13.3516V15.5H6.01562V18.3125H8.47656V25.0703C6.10677 24.6536 4.16667 23.5729 2.65625 21.8281C1.14583 20.0833 0.364583 17.974 0.3125 15.5C0.338542 13.7031 0.78125 12.0755 1.64062 10.6172C2.5 9.15885 3.65885 8 5.11719 7.14062C6.57552 6.28125 8.20312 5.83854 10 5.8125C11.7969 5.83854 13.4245 6.28125 14.8828 7.14062C16.3411 8 17.5 9.15885 18.3594 10.6172C19.2188 12.0755 19.6615 13.7031 19.6875 15.5Z" fill="black" fill-opacity="0.72"/>
</g>
<defs>
<clipPath id="clip0_1731_14057">
<rect width="20" height="30" fill="white"/>
</clipPath>
</defs>
</svg>
