<svg width="18" height="30" viewBox="0 0 18 30" fill="none" xmlns="http://www.w3.org/2000/svg">
<g id="label-paired / lg / arrow-up-from-bracket-lg / regular" clip-path="url(#clip0_1731_5369)">
<path id="icon" d="M9.42969 5.69531L14.4297 10.6953C14.6901 10.9818 14.6901 11.2682 14.4297 11.5547C14.1432 11.8151 13.8568 11.8151 13.5703 11.5547L9.625 7.64844V18.625C9.59896 19.0156 9.39062 19.224 9 19.25C8.60938 19.224 8.40104 19.0156 8.375 18.625V7.64844L4.42969 11.5547C4.14323 11.8151 3.85677 11.8151 3.57031 11.5547C3.3099 11.2682 3.3099 10.9818 3.57031 10.6953L8.57031 5.69531C8.85677 5.4349 9.14323 5.4349 9.42969 5.69531ZM1.5 18.625V22.375C1.52604 22.8958 1.70833 23.3385 2.04688 23.7031C2.41146 24.0417 2.85417 24.224 3.375 24.25H14.625C15.1458 24.224 15.5885 24.0417 15.9531 23.7031C16.2917 23.3385 16.474 22.8958 16.5 22.375V18.625C16.526 18.2344 16.7344 18.026 17.125 18C17.5156 18.026 17.724 18.2344 17.75 18.625V22.375C17.724 23.2604 17.4245 24.0026 16.8516 24.6016C16.2526 25.1745 15.5104 25.474 14.625 25.5H3.375C2.48958 25.474 1.7474 25.1745 1.14844 24.6016C0.575521 24.0026 0.276042 23.2604 0.25 22.375V18.625C0.276042 18.2344 0.484375 18.026 0.875 18C1.26562 18.026 1.47396 18.2344 1.5 18.625Z" fill="black" fill-opacity="0.72"/>
</g>
<defs>
<clipPath id="clip0_1731_5369">
<rect width="18" height="30" fill="white"/>
</clipPath>
</defs>
</svg>
