<svg width="13" height="22" viewBox="0 0 13 22" fill="none" xmlns="http://www.w3.org/2000/svg">
<g id="label-paired / sm / trash-sm / regular" clip-path="url(#clip0_1731_1827)">
<path id="icon" d="M5.24219 4.625C5.07812 4.625 4.95052 4.69792 4.85938 4.84375L4.44922 5.5H8.55078L8.14062 4.84375C8.04948 4.69792 7.92188 4.625 7.75781 4.625H5.24219ZM9.58984 5.5H10.875H11.75H12.1875C12.4609 5.51823 12.6068 5.66406 12.625 5.9375C12.6068 6.21094 12.4609 6.35677 12.1875 6.375H11.6953L10.9844 16.1367C10.9479 16.5924 10.7656 16.9753 10.4375 17.2852C10.1094 17.5768 9.70833 17.7318 9.23438 17.75H3.76562C3.29167 17.7318 2.89062 17.5768 2.5625 17.2852C2.23438 16.9753 2.05208 16.5924 2.01562 16.1367L1.30469 6.375H0.8125C0.539062 6.35677 0.393229 6.21094 0.375 5.9375C0.393229 5.66406 0.539062 5.51823 0.8125 5.5H1.25H2.125H3.41016L4.12109 4.37891C4.39453 3.97786 4.76823 3.76823 5.24219 3.75H7.75781C8.23177 3.76823 8.60547 3.97786 8.87891 4.37891L9.58984 5.5ZM10.8203 6.375H2.17969L2.89062 16.0547C2.90885 16.2917 3 16.4831 3.16406 16.6289C3.32812 16.793 3.52865 16.875 3.76562 16.875H9.23438C9.47135 16.875 9.67188 16.793 9.83594 16.6289C10 16.4831 10.0911 16.2917 10.1094 16.0547L10.8203 6.375Z" fill="black" fill-opacity="0.72"/>
</g>
<defs>
<clipPath id="clip0_1731_1827">
<rect width="13" height="22" fill="white"/>
</clipPath>
</defs>
</svg>
