<svg width="15" height="18" viewBox="0 0 15 18" fill="none" xmlns="http://www.w3.org/2000/svg">
<g id="label-paired / caption / language-caption / regular" clip-path="url(#clip0_1731_1333)">
<path id="icon" d="M7.125 5.75H1.5C1.28125 5.75 1.10156 5.82031 0.960938 5.96094C0.820312 6.10156 0.75 6.28125 0.75 6.5V12.5C0.75 12.7188 0.820312 12.8984 0.960938 13.0391C1.10156 13.1797 1.28125 13.25 1.5 13.25H7.125V5.75ZM7.875 5.75V13.25H13.5C13.7188 13.25 13.8984 13.1797 14.0391 13.0391C14.1797 12.8984 14.25 12.7188 14.25 12.5V6.5C14.25 6.28125 14.1797 6.10156 14.0391 5.96094C13.8984 5.82031 13.7188 5.75 13.5 5.75H7.875ZM15 6.5V12.5C14.9844 12.9219 14.8359 13.2734 14.5547 13.5547C14.2734 13.8359 13.9219 13.9844 13.5 14H1.5C1.07812 13.9844 0.726562 13.8359 0.445312 13.5547C0.164062 13.2734 0.015625 12.9219 0 12.5V6.5C0.015625 6.07812 0.164062 5.72656 0.445312 5.44531C0.726562 5.16406 1.07812 5.01562 1.5 5H13.5C13.9219 5.01562 14.2734 5.16406 14.5547 5.44531C14.8359 5.72656 14.9844 6.07812 15 6.5ZM4.10156 7.48438L5.60156 11.2344C5.66406 11.4531 5.59375 11.6172 5.39062 11.7266C5.17188 11.7891 5.00781 11.7188 4.89844 11.5156L4.6875 11H2.8125L2.60156 11.5156C2.49219 11.7188 2.32812 11.7891 2.10938 11.7266C1.90625 11.6172 1.83594 11.4531 1.89844 11.2344L3.39844 7.48438C3.47656 7.32812 3.59375 7.25 3.75 7.25C3.90625 7.25 4.02344 7.32812 4.10156 7.48438ZM3.75 8.63281L3.09375 10.25H4.40625L3.75 8.63281ZM11.625 7.625V8H12.75H13.125C13.3594 8.01562 13.4844 8.14062 13.5 8.375C13.4844 8.60938 13.3594 8.73438 13.125 8.75H13.0078L12.9141 9.03125C12.6797 9.64062 12.3359 10.1797 11.8828 10.6484C11.9609 10.6953 12.0391 10.7422 12.1172 10.7891L12.5625 11.0469C12.75 11.1875 12.7969 11.3594 12.7031 11.5625C12.5625 11.75 12.3906 11.7969 12.1875 11.7031L11.7422 11.4219C11.5859 11.3438 11.4375 11.25 11.2969 11.1406C11.1094 11.2812 10.9062 11.4062 10.6875 11.5156L10.2891 11.7031C10.0703 11.7812 9.90625 11.7266 9.79688 11.5391C9.70312 11.3203 9.75781 11.1562 9.96094 11.0469L10.3594 10.8359C10.4844 10.7734 10.6094 10.7031 10.7344 10.625L10.2422 10.1328C10.1016 9.96094 10.1016 9.78906 10.2422 9.61719C10.4141 9.46094 10.5859 9.46094 10.7578 9.61719L11.2969 10.1328L11.3203 10.1562C11.7109 9.76562 12.0078 9.30469 12.2109 8.77344V8.75H11.25H9.375C9.14062 8.73438 9.01562 8.60938 9 8.375C9.01562 8.14062 9.14062 8.01562 9.375 8H10.875V7.625C10.8906 7.39062 11.0156 7.26562 11.25 7.25C11.4844 7.26562 11.6094 7.39062 11.625 7.625Z" fill="black" fill-opacity="0.72"/>
</g>
<defs>
<clipPath id="clip0_1731_1333">
<rect width="15" height="18" fill="white"/>
</clipPath>
</defs>
</svg>
