<svg width="13" height="22" viewBox="0 0 13 22" fill="none" xmlns="http://www.w3.org/2000/svg">
<g id="label-paired / sm / square-sm / bold" clip-path="url(#clip0_1731_2039)">
<path id="icon" d="M10.875 5.9375H2.125C1.85156 5.95573 1.70573 6.10156 1.6875 6.375V15.125C1.70573 15.3984 1.85156 15.5443 2.125 15.5625H10.875C11.1484 15.5443 11.2943 15.3984 11.3125 15.125V6.375C11.2943 6.10156 11.1484 5.95573 10.875 5.9375ZM2.125 4.625H10.875C11.3672 4.64323 11.7773 4.81641 12.1055 5.14453C12.4336 5.47266 12.6068 5.88281 12.625 6.375V15.125C12.6068 15.6172 12.4336 16.0273 12.1055 16.3555C11.7773 16.6836 11.3672 16.8568 10.875 16.875H2.125C1.63281 16.8568 1.22266 16.6836 0.894531 16.3555C0.566406 16.0273 0.393229 15.6172 0.375 15.125V6.375C0.393229 5.88281 0.566406 5.47266 0.894531 5.14453C1.22266 4.81641 1.63281 4.64323 2.125 4.625Z" fill="black" fill-opacity="0.72"/>
</g>
<defs>
<clipPath id="clip0_1731_2039">
<rect width="13" height="22" fill="white"/>
</clipPath>
</defs>
</svg>
