<svg width="21" height="36" viewBox="0 0 21 36" fill="none" xmlns="http://www.w3.org/2000/svg">
<g id="label-paired / xl / calendar-xl / bold" clip-path="url(#clip0_1731_5628)">
<path id="icon" d="M7.125 7.125V9H13.875V7.125C13.9375 6.4375 14.3125 6.0625 15 6C15.6875 6.0625 16.0625 6.4375 16.125 7.125V9H18C18.8438 9.03125 19.5469 9.32812 20.1094 9.89062C20.6719 10.4531 20.9688 11.1562 21 12V12.75V15V27C20.9688 27.8438 20.6719 28.5469 20.1094 29.1094C19.5469 29.6719 18.8438 29.9688 18 30H3C2.15625 29.9688 1.45312 29.6719 0.890625 29.1094C0.328125 28.5469 0.03125 27.8438 0 27V15V12.75V12C0.03125 11.1562 0.328125 10.4531 0.890625 9.89062C1.45312 9.32812 2.15625 9.03125 3 9H4.875V7.125C4.9375 6.4375 5.3125 6.0625 6 6C6.6875 6.0625 7.0625 6.4375 7.125 7.125ZM2.25 15V27C2.28125 27.4688 2.53125 27.7188 3 27.75H18C18.4688 27.7188 18.7188 27.4688 18.75 27V15H2.25Z" fill="black" fill-opacity="0.72"/>
</g>
<defs>
<clipPath id="clip0_1731_5628">
<rect width="21" height="36" fill="white"/>
</clipPath>
</defs>
</svg>
