<svg width="9" height="22" viewBox="0 0 9 22" fill="none" xmlns="http://www.w3.org/2000/svg">
<g id="label-paired / sm / sort-up-sm / regular" clip-path="url(#clip0_1731_2359)">
<path id="icon" d="M4.33594 5.55469L1.05469 8.67188C1.01823 8.70833 1 8.75391 1 8.80859C1.01823 8.91797 1.08203 8.98177 1.19141 9H7.80859C7.91797 8.98177 7.98177 8.91797 8 8.80859C8 8.75391 7.98177 8.70833 7.94531 8.67188L4.66406 5.55469C4.60938 5.51823 4.55469 5.5 4.5 5.5C4.44531 5.5 4.39062 5.51823 4.33594 5.55469ZM3.73438 4.92578C3.95312 4.72526 4.20833 4.625 4.5 4.625C4.79167 4.625 5.04688 4.72526 5.26562 4.92578L8.54688 8.01562C8.76562 8.23438 8.875 8.4987 8.875 8.80859C8.875 9.11849 8.77474 9.3737 8.57422 9.57422C8.3737 9.77474 8.11849 9.875 7.80859 9.875H1.19141C0.88151 9.875 0.626302 9.77474 0.425781 9.57422C0.22526 9.3737 0.125 9.11849 0.125 8.80859C0.125 8.4987 0.234375 8.23438 0.453125 8.01562L3.73438 4.92578Z" fill="black" fill-opacity="0.72"/>
</g>
<defs>
<clipPath id="clip0_1731_2359">
<rect width="9" height="22" fill="white"/>
</clipPath>
</defs>
</svg>
