<svg width="21" height="36" viewBox="0 0 21 36" fill="none" xmlns="http://www.w3.org/2000/svg">
<g id="label-paired / xl / grid-xl / regular" clip-path="url(#clip0_1731_5676)">
<path id="icon" d="M4.125 9H1.875C1.65625 9.03125 1.53125 9.15625 1.5 9.375V11.625C1.53125 11.8438 1.65625 11.9688 1.875 12H4.125C4.34375 11.9688 4.46875 11.8438 4.5 11.625V9.375C4.46875 9.15625 4.34375 9.03125 4.125 9ZM1.875 7.5H4.125C4.65625 7.5 5.09375 7.6875 5.4375 8.0625C5.8125 8.40625 6 8.84375 6 9.375V11.625C6 12.1562 5.8125 12.5938 5.4375 12.9375C5.09375 13.3125 4.65625 13.5 4.125 13.5H1.875C1.34375 13.5 0.90625 13.3125 0.5625 12.9375C0.1875 12.5938 0 12.1562 0 11.625V9.375C0 8.84375 0.1875 8.40625 0.5625 8.0625C0.90625 7.6875 1.34375 7.5 1.875 7.5ZM4.125 16.5H1.875C1.65625 16.5312 1.53125 16.6562 1.5 16.875V19.125C1.53125 19.3438 1.65625 19.4688 1.875 19.5H4.125C4.34375 19.4688 4.46875 19.3438 4.5 19.125V16.875C4.46875 16.6562 4.34375 16.5312 4.125 16.5ZM1.875 15H4.125C4.65625 15 5.09375 15.1875 5.4375 15.5625C5.8125 15.9062 6 16.3438 6 16.875V19.125C6 19.6562 5.8125 20.0938 5.4375 20.4375C5.09375 20.8125 4.65625 21 4.125 21H1.875C1.34375 21 0.90625 20.8125 0.5625 20.4375C0.1875 20.0938 0 19.6562 0 19.125V16.875C0 16.3438 0.1875 15.9062 0.5625 15.5625C0.90625 15.1875 1.34375 15 1.875 15ZM1.875 24C1.65625 24.0312 1.53125 24.1562 1.5 24.375V26.625C1.53125 26.8438 1.65625 26.9688 1.875 27H4.125C4.34375 26.9688 4.46875 26.8438 4.5 26.625V24.375C4.46875 24.1562 4.34375 24.0312 4.125 24H1.875ZM0 24.375C0 23.8438 0.1875 23.4062 0.5625 23.0625C0.90625 22.6875 1.34375 22.5 1.875 22.5H4.125C4.65625 22.5 5.09375 22.6875 5.4375 23.0625C5.8125 23.4062 6 23.8438 6 24.375V26.625C6 27.1562 5.8125 27.5938 5.4375 27.9375C5.09375 28.3125 4.65625 28.5 4.125 28.5H1.875C1.34375 28.5 0.90625 28.3125 0.5625 27.9375C0.1875 27.5938 0 27.1562 0 26.625V24.375ZM11.625 9H9.375C9.15625 9.03125 9.03125 9.15625 9 9.375V11.625C9.03125 11.8438 9.15625 11.9688 9.375 12H11.625C11.8438 11.9688 11.9688 11.8438 12 11.625V9.375C11.9688 9.15625 11.8438 9.03125 11.625 9ZM9.375 7.5H11.625C12.1562 7.5 12.5938 7.6875 12.9375 8.0625C13.3125 8.40625 13.5 8.84375 13.5 9.375V11.625C13.5 12.1562 13.3125 12.5938 12.9375 12.9375C12.5938 13.3125 12.1562 13.5 11.625 13.5H9.375C8.84375 13.5 8.40625 13.3125 8.0625 12.9375C7.6875 12.5938 7.5 12.1562 7.5 11.625V9.375C7.5 8.84375 7.6875 8.40625 8.0625 8.0625C8.40625 7.6875 8.84375 7.5 9.375 7.5ZM9.375 16.5C9.15625 16.5312 9.03125 16.6562 9 16.875V19.125C9.03125 19.3438 9.15625 19.4688 9.375 19.5H11.625C11.8438 19.4688 11.9688 19.3438 12 19.125V16.875C11.9688 16.6562 11.8438 16.5312 11.625 16.5H9.375ZM7.5 16.875C7.5 16.3438 7.6875 15.9062 8.0625 15.5625C8.40625 15.1875 8.84375 15 9.375 15H11.625C12.1562 15 12.5938 15.1875 12.9375 15.5625C13.3125 15.9062 13.5 16.3438 13.5 16.875V19.125C13.5 19.6562 13.3125 20.0938 12.9375 20.4375C12.5938 20.8125 12.1562 21 11.625 21H9.375C8.84375 21 8.40625 20.8125 8.0625 20.4375C7.6875 20.0938 7.5 19.6562 7.5 19.125V16.875ZM11.625 24H9.375C9.15625 24.0312 9.03125 24.1562 9 24.375V26.625C9.03125 26.8438 9.15625 26.9688 9.375 27H11.625C11.8438 26.9688 11.9688 26.8438 12 26.625V24.375C11.9688 24.1562 11.8438 24.0312 11.625 24ZM9.375 22.5H11.625C12.1562 22.5 12.5938 22.6875 12.9375 23.0625C13.3125 23.4062 13.5 23.8438 13.5 24.375V26.625C13.5 27.1562 13.3125 27.5938 12.9375 27.9375C12.5938 28.3125 12.1562 28.5 11.625 28.5H9.375C8.84375 28.5 8.40625 28.3125 8.0625 27.9375C7.6875 27.5938 7.5 27.1562 7.5 26.625V24.375C7.5 23.8438 7.6875 23.4062 8.0625 23.0625C8.40625 22.6875 8.84375 22.5 9.375 22.5ZM16.875 9C16.6562 9.03125 16.5312 9.15625 16.5 9.375V11.625C16.5312 11.8438 16.6562 11.9688 16.875 12H19.125C19.3438 11.9688 19.4688 11.8438 19.5 11.625V9.375C19.4688 9.15625 19.3438 9.03125 19.125 9H16.875ZM15 9.375C15 8.84375 15.1875 8.40625 15.5625 8.0625C15.9062 7.6875 16.3438 7.5 16.875 7.5H19.125C19.6562 7.5 20.0938 7.6875 20.4375 8.0625C20.8125 8.40625 21 8.84375 21 9.375V11.625C21 12.1562 20.8125 12.5938 20.4375 12.9375C20.0938 13.3125 19.6562 13.5 19.125 13.5H16.875C16.3438 13.5 15.9062 13.3125 15.5625 12.9375C15.1875 12.5938 15 12.1562 15 11.625V9.375ZM19.125 16.5H16.875C16.6562 16.5312 16.5312 16.6562 16.5 16.875V19.125C16.5312 19.3438 16.6562 19.4688 16.875 19.5H19.125C19.3438 19.4688 19.4688 19.3438 19.5 19.125V16.875C19.4688 16.6562 19.3438 16.5312 19.125 16.5ZM16.875 15H19.125C19.6562 15 20.0938 15.1875 20.4375 15.5625C20.8125 15.9062 21 16.3438 21 16.875V19.125C21 19.6562 20.8125 20.0938 20.4375 20.4375C20.0938 20.8125 19.6562 21 19.125 21H16.875C16.3438 21 15.9062 20.8125 15.5625 20.4375C15.1875 20.0938 15 19.6562 15 19.125V16.875C15 16.3438 15.1875 15.9062 15.5625 15.5625C15.9062 15.1875 16.3438 15 16.875 15ZM16.875 24C16.6562 24.0312 16.5312 24.1562 16.5 24.375V26.625C16.5312 26.8438 16.6562 26.9688 16.875 27H19.125C19.3438 26.9688 19.4688 26.8438 19.5 26.625V24.375C19.4688 24.1562 19.3438 24.0312 19.125 24H16.875ZM15 24.375C15 23.8438 15.1875 23.4062 15.5625 23.0625C15.9062 22.6875 16.3438 22.5 16.875 22.5H19.125C19.6562 22.5 20.0938 22.6875 20.4375 23.0625C20.8125 23.4062 21 23.8438 21 24.375V26.625C21 27.1562 20.8125 27.5938 20.4375 27.9375C20.0938 28.3125 19.6562 28.5 19.125 28.5H16.875C16.3438 28.5 15.9062 28.3125 15.5625 27.9375C15.1875 27.5938 15 27.1562 15 26.625V24.375Z" fill="black" fill-opacity="0.72"/>
</g>
<defs>
<clipPath id="clip0_1731_5676">
<rect width="21" height="36" fill="white"/>
</clipPath>
</defs>
</svg>
