<svg width="20" height="30" viewBox="0 0 20 30" fill="none" xmlns="http://www.w3.org/2000/svg">
<g id="label-paired / lg / location-crosshairs-lg / regular" clip-path="url(#clip0_1731_4888)">
<path id="icon" d="M10 5.5C10.3906 5.52604 10.599 5.73438 10.625 6.125V8.03906C12.474 8.22135 14.0365 8.9375 15.3125 10.1875C16.5625 11.4635 17.2786 13.026 17.4609 14.875H19.375C19.7656 14.901 19.974 15.1094 20 15.5C19.974 15.8906 19.7656 16.099 19.375 16.125H17.4609C17.2786 17.974 16.5625 19.5365 15.3125 20.8125C14.0365 22.0625 12.474 22.7786 10.625 22.9609V24.875C10.599 25.2656 10.3906 25.474 10 25.5C9.60938 25.474 9.40104 25.2656 9.375 24.875V22.9609C7.52604 22.7786 5.96354 22.0625 4.6875 20.8125C3.4375 19.5365 2.72135 17.974 2.53906 16.125H0.625C0.234375 16.099 0.0260417 15.8906 0 15.5C0.0260417 15.1094 0.234375 14.901 0.625 14.875H2.53906C2.72135 13.026 3.4375 11.4635 4.6875 10.1875C5.96354 8.9375 7.52604 8.22135 9.375 8.03906V6.125C9.40104 5.73438 9.60938 5.52604 10 5.5ZM3.75 15.5C3.75 16.6198 4.02344 17.6615 4.57031 18.625C5.14323 19.5885 5.91146 20.3568 6.875 20.9297C7.86458 21.4766 8.90625 21.75 10 21.75C11.0938 21.75 12.1354 21.4766 13.125 20.9297C14.0885 20.3568 14.8568 19.5885 15.4297 18.625C15.9766 17.6615 16.25 16.6198 16.25 15.5C16.25 14.3802 15.9766 13.3385 15.4297 12.375C14.8568 11.4115 14.0885 10.6432 13.125 10.0703C12.1354 9.52344 11.0938 9.25 10 9.25C8.90625 9.25 7.86458 9.52344 6.875 10.0703C5.91146 10.6432 5.14323 11.4115 4.57031 12.375C4.02344 13.3385 3.75 14.3802 3.75 15.5ZM12.5 15.5C12.474 14.5625 12.0573 13.8464 11.25 13.3516C10.4167 12.8828 9.58333 12.8828 8.75 13.3516C7.94271 13.8464 7.52604 14.5625 7.5 15.5C7.52604 16.4375 7.94271 17.1536 8.75 17.6484C9.58333 18.1172 10.4167 18.1172 11.25 17.6484C12.0573 17.1536 12.474 16.4375 12.5 15.5ZM6.25 15.5C6.25 14.8229 6.41927 14.1979 6.75781 13.625C7.09635 13.0521 7.55208 12.5964 8.125 12.2578C8.72396 11.9193 9.34896 11.75 10 11.75C10.651 11.75 11.276 11.9193 11.875 12.2578C12.4479 12.5964 12.9036 13.0521 13.2422 13.625C13.5807 14.1979 13.75 14.8229 13.75 15.5C13.75 16.1771 13.5807 16.8021 13.2422 17.375C12.9036 17.9479 12.4479 18.4036 11.875 18.7422C11.276 19.0807 10.651 19.25 10 19.25C9.34896 19.25 8.72396 19.0807 8.125 18.7422C7.55208 18.4036 7.09635 17.9479 6.75781 17.375C6.41927 16.8021 6.25 16.1771 6.25 15.5Z" fill="black" fill-opacity="0.72"/>
</g>
<defs>
<clipPath id="clip0_1731_4888">
<rect width="20" height="30" fill="white"/>
</clipPath>
</defs>
</svg>
