<svg width="15" height="36" viewBox="0 0 15 36" fill="none" xmlns="http://www.w3.org/2000/svg">
<g id="label-paired / xl / sort-down-xl / regular">
<path id="icon" d="M7.21875 26.9062C7.3125 26.9688 7.40625 27 7.5 27C7.59375 27 7.6875 26.9688 7.78125 26.9062L13.4062 21.5625C13.4688 21.5 13.5 21.4219 13.5 21.3281C13.4688 21.1406 13.3594 21.0312 13.1719 21H1.82812C1.64062 21.0312 1.53125 21.1406 1.5 21.3281C1.5 21.4219 1.53125 21.5 1.59375 21.5625L7.21875 26.9062ZM6.1875 27.9844L0.5625 22.6875C0.1875 22.3125 0 21.8594 0 21.3281C0 20.7969 0.171875 20.3594 0.515625 20.0156C0.859375 19.6719 1.29688 19.5 1.82812 19.5H13.1719C13.7031 19.5 14.1406 19.6719 14.4844 20.0156C14.8281 20.3594 15 20.7969 15 21.3281C15 21.8594 14.8125 22.3125 14.4375 22.6875L8.8125 27.9844C8.4375 28.3281 8 28.5 7.5 28.5C7 28.5 6.5625 28.3281 6.1875 27.9844Z" fill="black" fill-opacity="0.72"/>
</g>
</svg>
