<svg width="13" height="30" viewBox="0 0 13 30" fill="none" xmlns="http://www.w3.org/2000/svg">
<g id="label-paired / lg / eight-lg / bold" clip-path="url(#clip0_1731_4505)">
<path id="icon" d="M12.125 11.5938C12.0729 13.1042 11.513 14.3281 10.4453 15.2656C11.1484 15.7083 11.7083 16.2812 12.125 16.9844C12.5417 17.7135 12.75 18.5208 12.75 19.4062C12.724 20.7865 12.2552 21.9323 11.3438 22.8438C10.4323 23.7552 9.28646 24.224 7.90625 24.25H5.09375C3.71354 24.224 2.56771 23.7552 1.65625 22.8438C0.744792 21.9323 0.276042 20.7865 0.25 19.4062C0.25 18.5208 0.458333 17.7135 0.875 16.9844C1.29167 16.2812 1.85156 15.7083 2.55469 15.2656C1.48698 14.3281 0.927083 13.1042 0.875 11.5938C0.901042 10.2135 1.36979 9.06771 2.28125 8.15625C3.19271 7.24479 4.33854 6.77604 5.71875 6.75H7.28125C8.66146 6.77604 9.80729 7.24479 10.7188 8.15625C11.6302 9.06771 12.099 10.2135 12.125 11.5938ZM7.28125 16.4375H5.71875H5.09375C4.26042 16.4635 3.55729 16.75 2.98438 17.2969C2.4375 17.8698 2.15104 18.5729 2.125 19.4062C2.15104 20.2396 2.4375 20.9427 2.98438 21.5156C3.55729 22.0625 4.26042 22.349 5.09375 22.375H7.90625C8.73958 22.349 9.44271 22.0625 10.0156 21.5156C10.5625 20.9427 10.849 20.2396 10.875 19.4062C10.849 18.5729 10.5625 17.8698 10.0156 17.2969C9.44271 16.75 8.73958 16.4635 7.90625 16.4375H7.28125ZM7.28125 14.5625C8.11458 14.5365 8.81771 14.25 9.39062 13.7031C9.9375 13.1302 10.224 12.4271 10.25 11.5938C10.224 10.7604 9.9375 10.0573 9.39062 9.48438C8.81771 8.9375 8.11458 8.65104 7.28125 8.625H5.71875C4.88542 8.65104 4.18229 8.9375 3.60938 9.48438C3.0625 10.0573 2.77604 10.7604 2.75 11.5938C2.77604 12.4271 3.0625 13.1302 3.60938 13.7031C4.18229 14.25 4.88542 14.5365 5.71875 14.5625H7.28125Z" fill="black" fill-opacity="0.72"/>
</g>
<defs>
<clipPath id="clip0_1731_4505">
<rect width="13" height="30" fill="white"/>
</clipPath>
</defs>
</svg>
