<svg width="30" height="36" viewBox="0 0 30 36" fill="none" xmlns="http://www.w3.org/2000/svg">
<g id="label-paired / xl / signal-xl / regular" clip-path="url(#clip0_1731_6385)">
<path id="icon" d="M27.75 6.75V29.25C27.7188 29.7188 27.4688 29.9688 27 30C26.5312 29.9688 26.2812 29.7188 26.25 29.25V6.75C26.2812 6.28125 26.5312 6.03125 27 6C27.4688 6.03125 27.7188 6.28125 27.75 6.75ZM21 10.5C21.4688 10.5312 21.7188 10.7812 21.75 11.25V29.25C21.7188 29.7188 21.4688 29.9688 21 30C20.5312 29.9688 20.2812 29.7188 20.25 29.25V11.25C20.2812 10.7812 20.5312 10.5312 21 10.5ZM15.75 15.75V29.25C15.7188 29.7188 15.4688 29.9688 15 30C14.5312 29.9688 14.2812 29.7188 14.25 29.25V15.75C14.2812 15.2812 14.5312 15.0312 15 15C15.4688 15.0312 15.7188 15.2812 15.75 15.75ZM9 19.5C9.46875 19.5312 9.71875 19.7812 9.75 20.25V29.25C9.71875 29.7188 9.46875 29.9688 9 30C8.53125 29.9688 8.28125 29.7188 8.25 29.25V20.25C8.28125 19.7812 8.53125 19.5312 9 19.5ZM3 24C3.46875 24.0312 3.71875 24.2812 3.75 24.75V29.25C3.71875 29.7188 3.46875 29.9688 3 30C2.53125 29.9688 2.28125 29.7188 2.25 29.25V24.75C2.28125 24.2812 2.53125 24.0312 3 24Z" fill="black" fill-opacity="0.72"/>
</g>
<defs>
<clipPath id="clip0_1731_6385">
<rect width="30" height="36" fill="white"/>
</clipPath>
</defs>
</svg>
