<svg width="14" height="22" viewBox="0 0 14 22" fill="none" xmlns="http://www.w3.org/2000/svg">
<g id="label-paired / sm / backward-sm / regular" clip-path="url(#clip0_1731_2801)">
<path id="icon" d="M1.03906 10.75L7 15.0703V6.42969L1.03906 10.75ZM7.05469 5.5C7.29167 5.5 7.48307 5.58203 7.62891 5.74609C7.79297 5.89193 7.875 6.08333 7.875 6.32031V9.13672L12.6875 5.66406C12.8333 5.55469 12.9974 5.5 13.1797 5.5C13.4167 5.5 13.6081 5.58203 13.7539 5.74609C13.918 5.89193 14 6.08333 14 6.32031V15.1797C14 15.4167 13.918 15.6081 13.7539 15.7539C13.6081 15.918 13.4167 16 13.1797 16C12.9974 16 12.8333 15.9453 12.6875 15.8359L7.875 12.3633V15.1797C7.875 15.4167 7.79297 15.6081 7.62891 15.7539C7.48307 15.918 7.29167 16 7.05469 16C6.8724 16 6.70833 15.9453 6.5625 15.8359L0.273438 11.2695C0.0911458 11.1419 0 10.9688 0 10.75C0 10.5312 0.0911458 10.3581 0.273438 10.2305L6.5625 5.66406C6.70833 5.55469 6.8724 5.5 7.05469 5.5ZM7.875 11.2695L13.125 15.0703V6.42969L7.875 10.2305V11.2695Z" fill="black" fill-opacity="0.72"/>
</g>
<defs>
<clipPath id="clip0_1731_2801">
<rect width="14" height="22" fill="white"/>
</clipPath>
</defs>
</svg>
