<svg width="18" height="24" viewBox="0 0 18 24" fill="none" xmlns="http://www.w3.org/2000/svg">
<g id="label-paired / md / arrow-down-one-nine-md / bold" clip-path="url(#clip0_1731_3659)">
<path id="icon" d="M14.25 5.75V8V9.5H15C15.4583 9.54167 15.7083 9.79167 15.75 10.25C15.7083 10.7083 15.4583 10.9583 15 11H13.5H12C11.5417 10.9583 11.2917 10.7083 11.25 10.25C11.2917 9.79167 11.5417 9.54167 12 9.5H12.75V8V6.78125L12.25 6.96875C11.7917 7.07292 11.4688 6.91667 11.2812 6.5C11.1771 6.04167 11.3333 5.71875 11.75 5.53125L13.25 5.03125C13.5 4.96875 13.7292 5.01042 13.9375 5.15625C14.1458 5.30208 14.25 5.5 14.25 5.75ZM4.46875 18.7812L1.46875 15.7812C1.17708 15.4271 1.17708 15.0729 1.46875 14.7188C1.82292 14.4271 2.17708 14.4271 2.53125 14.7188L4.25 16.4375V5.75C4.29167 5.29167 4.54167 5.04167 5 5C5.45833 5.04167 5.70833 5.29167 5.75 5.75V16.4375L7.46875 14.7188C7.82292 14.4271 8.17708 14.4271 8.53125 14.7188C8.82292 15.0729 8.82292 15.4271 8.53125 15.7812L5.53125 18.7812C5.17708 19.0729 4.82292 19.0729 4.46875 18.7812ZM13.25 16C13.7292 15.9792 14.0938 15.7708 14.3438 15.375C14.5521 14.9583 14.5521 14.5417 14.3438 14.125C14.0938 13.7292 13.7292 13.5208 13.25 13.5C12.7708 13.5208 12.4062 13.7292 12.1562 14.125C11.9479 14.5417 11.9479 14.9583 12.1562 15.375C12.4062 15.7708 12.7708 15.9792 13.25 16ZM12.6875 17.4375C12.0417 17.2917 11.5208 16.9792 11.125 16.5C10.7292 16.0208 10.5208 15.4375 10.5 14.75C10.5208 13.9792 10.7917 13.3333 11.3125 12.8125C11.8333 12.2917 12.4792 12.0208 13.25 12C14.0208 12.0208 14.6667 12.2917 15.1875 12.8125C15.7083 13.3333 15.9792 13.9792 16 14.75C16 15.4375 15.7812 16.0417 15.3438 16.5625L13.5938 18.7188C13.2604 19.0521 12.9062 19.0938 12.5312 18.8438C12.1979 18.5104 12.1562 18.1562 12.4062 17.7812L12.6875 17.4375Z" fill="black" fill-opacity="0.72"/>
</g>
<defs>
<clipPath id="clip0_1731_3659">
<rect width="18" height="24" fill="white"/>
</clipPath>
</defs>
</svg>
