<svg width="13" height="30" viewBox="0 0 13 30" fill="none" xmlns="http://www.w3.org/2000/svg">
<g id="label-paired / lg / dollar-sign-lg / bold" clip-path="url(#clip0_1731_5167)">
<path id="icon" d="M7.4375 6.4375V8.35156C8.53125 8.48177 9.46875 8.65104 10.25 8.85938C10.7969 9.04167 11.0182 9.41927 10.9141 9.99219C10.7318 10.5391 10.3672 10.7734 9.82031 10.6953C9.19531 10.5391 8.47917 10.3958 7.67188 10.2656C6.89062 10.1615 6.1224 10.1354 5.36719 10.1875C4.61198 10.2396 4.01302 10.4089 3.57031 10.6953C3.17969 10.9297 2.91927 11.3203 2.78906 11.8672C2.71094 12.3099 2.73698 12.6354 2.86719 12.8438C2.97135 13.0521 3.19271 13.2734 3.53125 13.5078C4.3125 13.9245 5.38021 14.2891 6.73438 14.6016H6.8125C7.4375 14.7578 8.0625 14.9401 8.6875 15.1484C9.33854 15.3307 9.92448 15.5781 10.4453 15.8906C11.0182 16.2292 11.474 16.7109 11.8125 17.3359C12.125 17.9609 12.2031 18.6771 12.0469 19.4844C11.7083 20.8646 10.875 21.776 9.54688 22.2188C8.89583 22.4792 8.19271 22.6224 7.4375 22.6484V24.5625C7.38542 25.1354 7.07292 25.4479 6.5 25.5C5.92708 25.4479 5.61458 25.1354 5.5625 24.5625V22.6094C5.51042 22.6094 5.44531 22.6094 5.36719 22.6094C5.3151 22.5833 5.25 22.5703 5.17188 22.5703C4.65104 22.4922 4.03906 22.362 3.33594 22.1797C2.60677 21.9974 1.96875 21.7891 1.42188 21.5547C0.927083 21.2943 0.770833 20.8906 0.953125 20.3438C1.23958 19.8229 1.65625 19.6536 2.20312 19.8359C2.64583 20.0443 3.17969 20.2266 3.80469 20.3828C4.42969 20.5391 4.97656 20.6562 5.44531 20.7344C6.85156 20.9167 7.98438 20.8385 8.84375 20.5C9.65104 20.1615 10.1068 19.7057 10.2109 19.1328C10.2891 18.6901 10.263 18.3646 10.1328 18.1562C10.0286 17.9479 9.80729 17.7266 9.46875 17.4922C8.6875 17.0755 7.61979 16.7109 6.26562 16.3984H6.1875C5.5625 16.2422 4.9375 16.0599 4.3125 15.8516C3.66146 15.6693 3.07552 15.4219 2.55469 15.1094C1.98177 14.7708 1.52604 14.2891 1.1875 13.6641C0.875 13.0391 0.796875 12.3229 0.953125 11.5156C1.1875 10.4219 1.73438 9.61458 2.59375 9.09375C3.40104 8.625 4.27344 8.36458 5.21094 8.3125C5.3151 8.3125 5.43229 8.3125 5.5625 8.3125V6.4375C5.61458 5.86458 5.92708 5.55208 6.5 5.5C7.07292 5.55208 7.38542 5.86458 7.4375 6.4375Z" fill="black" fill-opacity="0.72"/>
</g>
<defs>
<clipPath id="clip0_1731_5167">
<rect width="13" height="30" fill="white"/>
</clipPath>
</defs>
</svg>
