<svg width="12" height="18" viewBox="0 0 12 18" fill="none" xmlns="http://www.w3.org/2000/svg">
<g id="label-paired / caption / circle-star-caption / regular" clip-path="url(#clip0_1731_821)">
<path id="icon" d="M6 4.25C5.04688 4.26562 4.17188 4.5 3.375 4.95312C2.57812 5.42188 1.9375 6.0625 1.45312 6.875C0.984375 7.70312 0.75 8.57812 0.75 9.5C0.75 10.4219 0.984375 11.2969 1.45312 12.125C1.9375 12.9375 2.57812 13.5781 3.375 14.0469C4.17188 14.5 5.04688 14.7344 6 14.75C6.95312 14.7344 7.82812 14.5 8.625 14.0469C9.42188 13.5781 10.0625 12.9375 10.5469 12.125C11.0156 11.2969 11.25 10.4219 11.25 9.5C11.25 8.57812 11.0156 7.70312 10.5469 6.875C10.0625 6.0625 9.42188 5.42188 8.625 4.95312C7.82812 4.5 6.95312 4.26562 6 4.25ZM6 15.5C4.90625 15.4844 3.90625 15.2188 3 14.7031C2.09375 14.1719 1.35938 13.4375 0.796875 12.5C0.265625 11.5469 0 10.5469 0 9.5C0 8.45312 0.265625 7.45312 0.796875 6.5C1.35938 5.5625 2.09375 4.82812 3 4.29688C3.90625 3.78125 4.90625 3.51563 6 3.5C7.09375 3.51563 8.09375 3.78125 9 4.29688C9.90625 4.82812 10.6406 5.5625 11.2031 6.5C11.7344 7.45312 12 8.45312 12 9.5C12 10.5469 11.7344 11.5469 11.2031 12.5C10.6406 13.4375 9.90625 14.1719 9 14.7031C8.09375 15.2188 7.09375 15.4844 6 15.5ZM6.32812 6.14844L7.19531 7.85938L9.09375 8.14062C9.23438 8.17188 9.33594 8.25781 9.39844 8.39844C9.42969 8.53906 9.39844 8.67188 9.30469 8.79688L7.92188 10.1328L8.25 12.0078C8.26562 12.1641 8.21094 12.2891 8.08594 12.3828C7.96094 12.4609 7.83594 12.4688 7.71094 12.4062L6 11.5156L4.3125 12.4062C4.17188 12.4688 4.03906 12.4609 3.91406 12.3828C3.78906 12.2891 3.73438 12.1641 3.75 12.0078L4.07812 10.1328L2.71875 8.77344C2.60938 8.66406 2.57812 8.53906 2.625 8.39844C2.67188 8.25781 2.76562 8.17188 2.90625 8.14062L4.80469 7.85938L5.67188 6.14844C5.73438 6.00781 5.84375 5.9375 6 5.9375C6.15625 5.9375 6.26562 6.00781 6.32812 6.14844ZM5.39062 8.375C5.32812 8.48438 5.23438 8.55469 5.10938 8.58594L3.77344 8.77344L4.73438 9.73438C4.82812 9.82812 4.86719 9.9375 4.85156 10.0625L4.61719 11.3984L5.8125 10.7656C5.9375 10.7031 6.05469 10.7031 6.16406 10.7656L7.38281 11.3984L7.14844 10.0625C7.13281 9.9375 7.16406 9.82812 7.24219 9.73438L8.22656 8.77344L6.89062 8.58594C6.75 8.55469 6.65625 8.48438 6.60938 8.375L6 7.15625L5.39062 8.375Z" fill="black" fill-opacity="0.72"/>
</g>
<defs>
<clipPath id="clip0_1731_821">
<rect width="12" height="18" fill="white"/>
</clipPath>
</defs>
</svg>
