<svg width="24" height="36" viewBox="0 0 24 36" fill="none" xmlns="http://www.w3.org/2000/svg">
<g id="label-paired / xl / gear-xl / bold" clip-path="url(#clip0_1731_5623)">
<path id="icon" d="M12 6C12.8125 6 13.5938 6.07813 14.3438 6.23438C14.5312 6.26563 14.7656 6.34375 15.0469 6.46875C15.2969 6.625 15.5156 6.85937 15.7031 7.17188C15.7969 7.32812 15.875 7.51562 15.9375 7.73438L16.3594 9.51562C16.4219 9.67188 16.5312 9.79688 16.6875 9.89062C16.8438 9.98438 17 10.0156 17.1562 9.98438L18.9375 9.46875C19.125 9.40625 19.3125 9.375 19.5 9.375C19.875 9.375 20.1875 9.45312 20.4375 9.60938C20.7188 9.76562 20.9219 9.92188 21.0469 10.0781C22.0781 11.2656 22.8438 12.625 23.3438 14.1562C23.4375 14.3438 23.4844 14.5781 23.4844 14.8594C23.5156 15.1719 23.4375 15.4844 23.25 15.7969C23.125 15.9531 23 16.1094 22.875 16.2656L21.5156 17.5312C21.4219 17.6562 21.375 17.8125 21.375 18C21.375 18.1875 21.4219 18.3438 21.5156 18.4688L22.875 19.7344C23 19.8906 23.125 20.0469 23.25 20.2031C23.4062 20.5469 23.4844 20.8594 23.4844 21.1406C23.4844 21.4531 23.4375 21.6875 23.3438 21.8438C22.8438 23.375 22.0781 24.7344 21.0469 25.9219C20.9219 26.0781 20.7188 26.2344 20.4375 26.3906C20.1875 26.5469 19.875 26.625 19.5 26.625C19.3125 26.625 19.125 26.5938 18.9375 26.5312L17.1562 26.0156C17 25.9844 16.8438 26.0156 16.6875 26.1094C16.5312 26.2031 16.4219 26.3281 16.3594 26.4844L15.9375 28.2656C15.875 28.4844 15.7969 28.6719 15.7031 28.8281C15.5156 29.1406 15.2969 29.375 15.0469 29.5312C14.7656 29.6562 14.5312 29.7344 14.3438 29.7656C13.5938 29.9219 12.8125 30 12 30C11.1875 30 10.4062 29.9219 9.65625 29.7656C9.46875 29.7344 9.23438 29.6562 8.95312 29.5312C8.70312 29.375 8.48438 29.1406 8.29688 28.8281C8.20312 28.6719 8.125 28.4844 8.0625 28.2656L7.64062 26.4844C7.57812 26.3281 7.46875 26.2031 7.3125 26.1094C7.15625 26.0156 7 25.9844 6.84375 26.0156L5.0625 26.5312C4.875 26.5938 4.6875 26.625 4.5 26.625C4.125 26.625 3.8125 26.5469 3.5625 26.3906C3.28125 26.2344 3.09375 26.0781 3 25.9219C1.9375 24.7344 1.15625 23.375 0.65625 21.8438C0.5625 21.6562 0.515625 21.4219 0.515625 21.1406C0.484375 20.8281 0.5625 20.5156 0.75 20.2031C0.875 20.0469 1 19.8906 1.125 19.7344L2.48438 18.4688C2.57812 18.3438 2.625 18.1875 2.625 18C2.625 17.8125 2.57812 17.6562 2.48438 17.5312L1.125 16.2656C1 16.1094 0.875 15.9531 0.75 15.7969C0.5625 15.4531 0.484375 15.1406 0.515625 14.8594C0.515625 14.5469 0.5625 14.3125 0.65625 14.1562C1.15625 12.6562 1.9375 11.2969 3 10.0781C3.09375 9.92188 3.28125 9.76562 3.5625 9.60938C3.8125 9.45312 4.125 9.375 4.5 9.375C4.6875 9.375 4.875 9.40625 5.0625 9.46875L6.84375 9.98438C7 10.0156 7.15625 9.98438 7.3125 9.89062C7.46875 9.79688 7.57812 9.67188 7.64062 9.51562L8.0625 7.73438C8.125 7.51562 8.20312 7.32812 8.29688 7.17188C8.48438 6.85937 8.70312 6.625 8.95312 6.46875C9.23438 6.34375 9.46875 6.26563 9.65625 6.23438C10.4062 6.07813 11.1875 6 12 6ZM10.2188 8.39062L9.84375 10.0781C9.625 10.8281 9.15625 11.4062 8.4375 11.8125C7.71875 12.2188 6.96875 12.3281 6.1875 12.1406L4.59375 11.6719C3.8125 12.5781 3.21875 13.6094 2.8125 14.7656L4.03125 15.9375C4.59375 16.5 4.875 17.1875 4.875 18C4.875 18.8125 4.59375 19.5156 4.03125 20.1094L2.8125 21.2344C3.21875 22.3906 3.8125 23.4219 4.59375 24.3281L6.23438 23.8594C6.98438 23.6406 7.71875 23.75 8.4375 24.1875C9.15625 24.5938 9.625 25.1719 9.84375 25.9219L10.2188 27.6094C11.4062 27.7969 12.5938 27.7969 13.7812 27.6094L14.2031 25.9219C14.4219 25.1719 14.875 24.5938 15.5625 24.1875C16.2812 23.7812 17.0312 23.6719 17.8125 23.8594L19.4062 24.3281C20.1875 23.4219 20.7812 22.3906 21.1875 21.2344L19.9688 20.0625C19.4062 19.5 19.125 18.8125 19.125 18C19.125 17.1875 19.4062 16.4844 19.9688 15.8906L21.1875 14.7656C20.7812 13.6094 20.1875 12.5781 19.4062 11.6719L17.8125 12.1406C17.0312 12.3594 16.2812 12.25 15.5625 11.8125C14.875 11.4062 14.4219 10.8125 14.2031 10.0312L13.7812 8.39062C12.5938 8.20312 11.4062 8.20312 10.2188 8.39062ZM9.75 18C9.78125 18.8438 10.1562 19.5 10.875 19.9688C11.625 20.3438 12.375 20.3438 13.125 19.9688C13.8438 19.5 14.2188 18.8438 14.25 18C14.2188 17.1562 13.8438 16.5 13.125 16.0312C12.375 15.6562 11.625 15.6562 10.875 16.0312C10.1562 16.5 9.78125 17.1562 9.75 18ZM12 22.5C11.1875 22.5 10.4375 22.2969 9.75 21.8906C9.0625 21.4844 8.51562 20.9375 8.10938 20.25C7.70312 19.5312 7.5 18.7812 7.5 18C7.5 17.2188 7.70312 16.4688 8.10938 15.75C8.51562 15.0625 9.0625 14.5156 9.75 14.1094C10.4375 13.7031 11.1875 13.5 12 13.5C12.8125 13.5 13.5625 13.7031 14.25 14.1094C14.9375 14.5156 15.4844 15.0625 15.8906 15.75C16.2969 16.4688 16.5 17.2188 16.5 18C16.5 18.7812 16.2969 19.5312 15.8906 20.25C15.4844 20.9375 14.9375 21.4844 14.25 21.8906C13.5625 22.2969 12.8125 22.5 12 22.5Z" fill="black" fill-opacity="0.72"/>
</g>
<defs>
<clipPath id="clip0_1731_5623">
<rect width="24" height="36" fill="white"/>
</clipPath>
</defs>
</svg>
