<svg width="15" height="18" viewBox="0 0 15 18" fill="none" xmlns="http://www.w3.org/2000/svg">
<g id="label-paired / caption / laptop-mobile-caption / regular" clip-path="url(#clip0_1731_1389)">
<path id="icon" d="M3 4.25C2.78125 4.25 2.60156 4.32031 2.46094 4.46094C2.32031 4.60156 2.25 4.78125 2.25 5V10.25H8.25V11H2.25H1.5H0.796875C0.953125 11.4688 1.28906 11.7188 1.80469 11.75H8.25V12.5H1.80469C1.28906 12.4844 0.867188 12.3125 0.539062 11.9844C0.195312 11.6406 0.015625 11.2109 0 10.6953C0.03125 10.4297 0.179688 10.2812 0.445312 10.25H1.5V5C1.51562 4.57812 1.66406 4.22656 1.94531 3.94531C2.22656 3.66406 2.57812 3.51563 3 3.5H10.5C10.9219 3.51563 11.2734 3.66406 11.5547 3.94531C11.8359 4.22656 11.9844 4.57812 12 5V5.75H11.25V5C11.25 4.78125 11.1797 4.60156 11.0391 4.46094C10.8984 4.32031 10.7188 4.25 10.5 4.25H3ZM9.75 7.625V14.375C9.76562 14.6094 9.89062 14.7344 10.125 14.75H13.875C14.1094 14.7344 14.2344 14.6094 14.25 14.375V7.625C14.2344 7.39062 14.1094 7.26562 13.875 7.25H10.125C9.89062 7.26562 9.76562 7.39062 9.75 7.625ZM9 7.625C9.01562 7.3125 9.125 7.04688 9.32812 6.82812C9.54688 6.625 9.8125 6.51562 10.125 6.5H13.875C14.1875 6.51562 14.4531 6.625 14.6719 6.82812C14.875 7.04688 14.9844 7.3125 15 7.625V14.375C14.9844 14.6875 14.875 14.9531 14.6719 15.1719C14.4531 15.375 14.1875 15.4844 13.875 15.5H10.125C9.8125 15.4844 9.54688 15.375 9.32812 15.1719C9.125 14.9531 9.01562 14.6875 9 14.375V7.625Z" fill="black" fill-opacity="0.72"/>
</g>
<defs>
<clipPath id="clip0_1731_1389">
<rect width="15" height="18" fill="white"/>
</clipPath>
</defs>
</svg>
