<svg width="21" height="36" viewBox="0 0 21 36" fill="none" xmlns="http://www.w3.org/2000/svg">
<g id="label-paired / xl / expand-xl / bold" clip-path="url(#clip0_1731_5613)">
<path id="icon" d="M6.375 7.5C7.0625 7.5625 7.4375 7.9375 7.5 8.625C7.4375 9.3125 7.0625 9.6875 6.375 9.75H2.25V13.875C2.1875 14.5625 1.8125 14.9375 1.125 15C0.4375 14.9375 0.0625 14.5625 0 13.875V8.625C0.0625 7.9375 0.4375 7.5625 1.125 7.5H6.375ZM0 22.125C0.0625 21.4375 0.4375 21.0625 1.125 21C1.8125 21.0625 2.1875 21.4375 2.25 22.125V26.25H6.375C7.0625 26.3125 7.4375 26.6875 7.5 27.375C7.4375 28.0625 7.0625 28.4375 6.375 28.5H1.125C0.4375 28.4375 0.0625 28.0625 0 27.375V22.125ZM19.875 7.5C20.5625 7.5625 20.9375 7.9375 21 8.625V13.875C20.9375 14.5625 20.5625 14.9375 19.875 15C19.1875 14.9375 18.8125 14.5625 18.75 13.875V9.75H14.625C13.9375 9.6875 13.5625 9.3125 13.5 8.625C13.5625 7.9375 13.9375 7.5625 14.625 7.5H19.875ZM18.75 22.125C18.8125 21.4375 19.1875 21.0625 19.875 21C20.5625 21.0625 20.9375 21.4375 21 22.125V27.375C20.9375 28.0625 20.5625 28.4375 19.875 28.5H14.625C13.9375 28.4375 13.5625 28.0625 13.5 27.375C13.5625 26.6875 13.9375 26.3125 14.625 26.25H18.75V22.125Z" fill="black" fill-opacity="0.72"/>
</g>
<defs>
<clipPath id="clip0_1731_5613">
<rect width="21" height="36" fill="white"/>
</clipPath>
</defs>
</svg>
