<svg width="14" height="22" viewBox="0 0 14 22" fill="none" xmlns="http://www.w3.org/2000/svg">
<g id="label-paired / sm / bullhorn-sm / bold" clip-path="url(#clip0_1731_2871)">
<path id="icon" d="M11.8125 5.77344L11.5117 6.07422C10.7279 6.83984 9.83464 7.44141 8.83203 7.87891C7.84766 8.29818 6.79948 8.52604 5.6875 8.5625V12.0625C6.79948 12.099 7.84766 12.3268 8.83203 12.7461C9.83464 13.1836 10.7279 13.7852 11.5117 14.5508L11.8125 14.8516V5.77344ZM4.375 7.25H5.49609C6.46224 7.25 7.38281 7.06771 8.25781 6.70312C9.13281 6.33854 9.90755 5.81901 10.582 5.14453L11.6211 4.10547C11.931 3.83203 12.25 3.76823 12.5781 3.91406C12.9062 4.04167 13.0885 4.30599 13.125 4.70703V8.67188C13.3802 8.79948 13.5898 9.00911 13.7539 9.30078C13.918 9.59245 14 9.92969 14 10.3125C14 10.6953 13.918 11.0326 13.7539 11.3242C13.5898 11.6159 13.3802 11.8255 13.125 11.9531V15.918C13.0885 16.319 12.9062 16.5833 12.5781 16.7109C12.25 16.8568 11.931 16.793 11.6211 16.5195L10.582 15.4805C9.92578 14.8242 9.17839 14.3138 8.33984 13.9492C7.5013 13.6029 6.61719 13.4115 5.6875 13.375V16.2188C5.66927 16.6562 5.52344 17.0208 5.25 17.3125C4.95833 17.5859 4.59375 17.7318 4.15625 17.75H3.28125C2.84375 17.7318 2.47917 17.5859 2.1875 17.3125C1.91406 17.0208 1.76823 16.6562 1.75 16.2188V13.375C1.25781 13.3568 0.847656 13.1836 0.519531 12.8555C0.191406 12.5273 0.0182292 12.1172 0 11.625V9C0.0182292 8.50781 0.191406 8.09766 0.519531 7.76953C0.847656 7.44141 1.25781 7.26823 1.75 7.25H4.375ZM3.0625 13.375V16.2188C3.08073 16.3464 3.15365 16.4193 3.28125 16.4375H4.15625C4.28385 16.4193 4.35677 16.3464 4.375 16.2188V13.375H3.0625ZM1.75 8.5625C1.47656 8.58073 1.33073 8.72656 1.3125 9V11.625C1.33073 11.8984 1.47656 12.0443 1.75 12.0625H3.0625H4.375V8.5625H1.75Z" fill="black" fill-opacity="0.72"/>
</g>
<defs>
<clipPath id="clip0_1731_2871">
<rect width="14" height="22" fill="white"/>
</clipPath>
</defs>
</svg>
