<svg width="25" height="30" viewBox="0 0 25 30" fill="none" xmlns="http://www.w3.org/2000/svg">
<g id="label-paired / lg / harmony-os-lg" clip-path="url(#clip0_1731_14037)">
<path id="icon" d="M6.5625 5.5H18.3984C20.6641 5.5 22.5 7.33594 22.5 9.60156V21.4375C22.5 23.7031 20.6641 25.5 18.3984 25.5H6.5625C4.29688 25.5 2.5 23.7031 2.5 21.4375V9.60156C2.5 7.33594 4.29688 5.5 6.5625 5.5ZM7.34375 10.1094V14.6016H8.24219V12.6875H10.1953V14.6016H11.0547V10.1094H10.1953V11.8672H8.24219V10.1094H7.34375ZM13.4375 10.1094V14.6016H14.2969V12.375L14.2188 11.6328H14.2969L15.4688 13.625H15.9766L17.1875 11.6328H17.2266L17.1875 12.375V14.6016H18.0469V10.1094H17.1875L15.7422 12.4531H15.7031L14.2969 10.1094H13.4375ZM15.1953 20.9688C15.3906 21.0078 15.5859 21.0469 15.7812 21.0469C15.9766 21.0469 16.1719 21.0078 16.3672 20.9688C16.5625 20.8906 16.7188 20.8125 16.875 20.6953C17.0312 20.5781 17.1484 20.4609 17.2656 20.3047C17.3438 20.1094 17.4219 19.9141 17.4219 19.6797C17.4219 19.4844 17.3828 19.3281 17.3047 19.1719C17.2656 19.0547 17.1875 18.8984 17.0703 18.7812C16.9531 18.6641 16.7969 18.5859 16.6406 18.5078C16.4844 18.4297 16.3281 18.3516 16.1328 18.2734L15.8594 18.1953C15.5859 18.1172 15.3906 18 15.2344 17.9219C15.1172 17.8438 15.0781 17.7266 15.0781 17.5703C15.0781 17.4531 15.1172 17.3359 15.2734 17.2578C15.3906 17.1406 15.5469 17.1016 15.7422 17.1016C15.9375 17.1016 16.0938 17.1797 16.2109 17.2578C16.3281 17.375 16.4062 17.4922 16.4453 17.6094L17.2656 17.2969C17.2266 17.1797 17.1484 17.1016 17.0703 16.9844C17.0312 16.8672 16.9141 16.75 16.7969 16.6719C16.6797 16.5547 16.5234 16.4766 16.3281 16.4375C16.1719 16.3594 15.9766 16.3594 15.7422 16.3594C15.5078 16.3594 15.2734 16.3594 15.1172 16.4375C14.9219 16.5156 14.7656 16.5938 14.6094 16.7109C14.4922 16.8281 14.375 16.9453 14.2969 17.1016C14.2188 17.2578 14.1797 17.4141 14.1797 17.6094C14.1797 17.7656 14.2188 17.9219 14.2969 18.0781C14.375 18.1953 14.4531 18.3125 14.5703 18.4297C14.6484 18.5078 14.7656 18.625 14.9219 18.6641C15.0391 18.7422 15.1562 18.8203 15.3125 18.8594L15.5859 18.9375C15.7812 19.0156 15.8984 19.0547 16.0156 19.1328C16.1328 19.1719 16.25 19.2109 16.3281 19.2891C16.3672 19.3281 16.4453 19.4062 16.4844 19.4844C16.4844 19.5234 16.5234 19.6016 16.5234 19.6797C16.5234 19.7969 16.4844 19.875 16.4453 19.9141C16.4062 19.9922 16.3672 20.0312 16.2891 20.1094C16.2109 20.1484 16.1719 20.1875 16.0547 20.1875C15.9766 20.2266 15.8984 20.2266 15.7812 20.2266C15.5469 20.2266 15.3516 20.1484 15.1953 19.9922C15.0391 19.875 14.9219 19.6797 14.8828 19.4453L14.0234 19.7578C14.1016 19.9531 14.1797 20.1484 14.2969 20.3047C14.4141 20.4609 14.5312 20.5781 14.6875 20.6953C14.8438 20.8125 15.0391 20.8906 15.1953 20.9688ZM9.21875 21.0469C9.53125 21.0469 9.84375 20.9688 10.1172 20.8516C10.3906 20.7344 10.625 20.5781 10.8594 20.3438C11.0547 20.1484 11.2109 19.875 11.3281 19.6016C11.4453 19.3281 11.4844 19.0156 11.4844 18.7031C11.4844 18.3516 11.4453 18.0391 11.3281 17.7656C11.2109 17.4922 11.0547 17.2188 10.8594 17.0234C10.625 16.8281 10.3906 16.6328 10.1172 16.5156C9.84375 16.3984 9.53125 16.3594 9.21875 16.3594C8.90625 16.3594 8.59375 16.3984 8.32031 16.5156C8.00781 16.6328 7.77344 16.8281 7.57812 17.0234C7.38281 17.2188 7.22656 17.4922 7.10938 17.7656C6.99219 18.0391 6.91406 18.3516 6.91406 18.7031C6.91406 19.0156 6.99219 19.3281 7.10938 19.6016C7.22656 19.875 7.38281 20.1484 7.57812 20.3438C7.77344 20.5781 8.00781 20.7344 8.32031 20.8516C8.59375 20.9688 8.90625 21.0469 9.21875 21.0469ZM9.21875 20.2266C9.02344 20.2266 8.82812 20.1875 8.63281 20.1094C8.47656 20.0312 8.32031 19.9531 8.16406 19.7969C8.04688 19.6797 7.92969 19.5234 7.85156 19.3281C7.77344 19.1328 7.73438 18.8984 7.73438 18.7031C7.73438 18.4688 7.77344 18.2344 7.85156 18.0391C7.92969 17.8828 8.04688 17.6875 8.16406 17.5703C8.32031 17.4531 8.47656 17.3359 8.63281 17.2578C8.82812 17.1797 9.02344 17.1406 9.21875 17.1406C9.41406 17.1406 9.60938 17.1797 9.76562 17.2578C9.96094 17.3359 10.1172 17.4531 10.2344 17.5703C10.3906 17.6875 10.4688 17.8828 10.5469 18.0391C10.625 18.2344 10.6641 18.4688 10.6641 18.7031C10.6641 18.8984 10.625 19.1328 10.5469 19.3281C10.4688 19.5234 10.3906 19.6797 10.2344 19.7969C10.1172 19.9531 9.96094 20.0312 9.76562 20.1094C9.60938 20.1875 9.41406 20.2266 9.21875 20.2266ZM7.53906 21.4375V21.4766V22.2188H10.8203V21.4375H7.53906Z" fill="black" fill-opacity="0.72"/>
</g>
<defs>
<clipPath id="clip0_1731_14037">
<rect width="25" height="30" fill="white"/>
</clipPath>
</defs>
</svg>
