<svg width="15" height="36" viewBox="0 0 15 36" fill="none" xmlns="http://www.w3.org/2000/svg">
<g id="label-paired / xl / nine-xl / regular" clip-path="url(#clip0_1731_6066)">
<path id="icon" d="M1.5 15C1.53125 16.6875 2.10938 18.1094 3.23438 19.2656C4.39062 20.3906 5.8125 20.9688 7.5 21C9.1875 20.9688 10.5938 20.4062 11.7188 19.3125C12.8125 18.1875 13.4062 16.7969 13.5 15.1406C13.5 15.1094 13.5 15.0938 13.5 15.0938C13.5 15.0625 13.5 15.0312 13.5 15C13.4688 13.3125 12.8906 11.8906 11.7656 10.7344C10.6094 9.60938 9.1875 9.03125 7.5 9C5.8125 9.03125 4.39062 9.60938 3.23438 10.7344C2.10938 11.8906 1.53125 13.3125 1.5 15ZM9.04688 22.3594C8.54688 22.4531 8.03125 22.5 7.5 22.5C5.375 22.4375 3.60938 21.7031 2.20312 20.2969C0.796875 18.8906 0.0625 17.125 0 15C0.0625 12.875 0.796875 11.1094 2.20312 9.70312C3.60938 8.29688 5.375 7.5625 7.5 7.5C9.625 7.5625 11.3906 8.29688 12.7969 9.70312C14.2031 11.1094 14.9375 12.875 15 15C15 15.0938 15 15.1875 15 15.2812C14.9062 17.0938 14.2656 18.7031 13.0781 20.1094L5.8125 28.2656C5.46875 28.5781 5.10938 28.5938 4.73438 28.3125C4.42188 27.9688 4.40625 27.6094 4.6875 27.2344L9.04688 22.3594Z" fill="black" fill-opacity="0.72"/>
</g>
<defs>
<clipPath id="clip0_1731_6066">
<rect width="15" height="36" fill="white"/>
</clipPath>
</defs>
</svg>
