<svg width="16" height="22" viewBox="0 0 16 22" fill="none" xmlns="http://www.w3.org/2000/svg">
<g id="label-paired / sm / money-bill-sm / bold" clip-path="url(#clip0_1731_2987)">
<path id="icon" d="M3.1875 6.8125C3.16927 7.30469 2.99609 7.71484 2.66797 8.04297C2.33984 8.37109 1.92969 8.54427 1.4375 8.5625V12.9375C1.92969 12.9557 2.33984 13.1289 2.66797 13.457C2.99609 13.7852 3.16927 14.1953 3.1875 14.6875H12.8125C12.8307 14.1953 13.0039 13.7852 13.332 13.457C13.6602 13.1289 14.0703 12.9557 14.5625 12.9375V8.5625C14.0703 8.54427 13.6602 8.37109 13.332 8.04297C13.0039 7.71484 12.8307 7.30469 12.8125 6.8125H3.1875ZM0.125 7.25C0.143229 6.75781 0.316406 6.34766 0.644531 6.01953C0.972656 5.69141 1.38281 5.51823 1.875 5.5H14.125C14.6172 5.51823 15.0273 5.69141 15.3555 6.01953C15.6836 6.34766 15.8568 6.75781 15.875 7.25V14.25C15.8568 14.7422 15.6836 15.1523 15.3555 15.4805C15.0273 15.8086 14.6172 15.9818 14.125 16H1.875C1.38281 15.9818 0.972656 15.8086 0.644531 15.4805C0.316406 15.1523 0.143229 14.7422 0.125 14.25V7.25ZM8 8.125C8.47396 8.125 8.91146 8.24349 9.3125 8.48047C9.71354 8.71745 10.0326 9.03646 10.2695 9.4375C10.5065 9.85677 10.625 10.2943 10.625 10.75C10.625 11.2057 10.5065 11.6432 10.2695 12.0625C10.0326 12.4635 9.71354 12.7826 9.3125 13.0195C8.91146 13.2565 8.47396 13.375 8 13.375C7.52604 13.375 7.08854 13.2565 6.6875 13.0195C6.28646 12.7826 5.96745 12.4635 5.73047 12.0625C5.49349 11.6432 5.375 11.2057 5.375 10.75C5.375 10.2943 5.49349 9.85677 5.73047 9.4375C5.96745 9.03646 6.28646 8.71745 6.6875 8.48047C7.08854 8.24349 7.52604 8.125 8 8.125Z" fill="black" fill-opacity="0.72"/>
</g>
<defs>
<clipPath id="clip0_1731_2987">
<rect width="16" height="22" fill="white"/>
</clipPath>
</defs>
</svg>
