<svg width="13" height="30" viewBox="0 0 13 30" fill="none" xmlns="http://www.w3.org/2000/svg">
<g id="label-paired / lg / dollar-sign-lg / regular" clip-path="url(#clip0_1731_5165)">
<path id="icon" d="M7.125 6.125V8.03906C8.40104 8.16927 9.49479 8.35156 10.4062 8.58594C10.7708 8.71615 10.9271 8.97656 10.875 9.36719C10.7448 9.73177 10.4844 9.875 10.0938 9.79688C9.44271 9.64062 8.6875 9.4974 7.82812 9.36719C6.96875 9.23698 6.10938 9.19792 5.25 9.25C4.41667 9.32812 3.72656 9.53646 3.17969 9.875C2.6849 10.1875 2.34635 10.7083 2.16406 11.4375C2.08594 12.0104 2.125 12.4531 2.28125 12.7656C2.46354 13.0781 2.75 13.3776 3.14062 13.6641C4.05208 14.1589 5.22396 14.5625 6.65625 14.875L6.73438 14.9141C7.41146 15.0703 8.07552 15.2526 8.72656 15.4609C9.40365 15.6953 10.0026 15.9688 10.5234 16.2812C11.0964 16.6198 11.5391 17.0885 11.8516 17.6875C12.138 18.2865 12.2031 18.9896 12.0469 19.7969C11.7344 21.125 10.9271 22.0365 9.625 22.5312C8.86979 22.7917 8.03646 22.9349 7.125 22.9609V24.875C7.09896 25.2656 6.89062 25.474 6.5 25.5C6.13542 25.474 5.92708 25.2656 5.875 24.875V22.9219C5.64062 22.9219 5.39323 22.8958 5.13281 22.8438C4.61198 22.7656 4 22.6354 3.29688 22.4531C2.61979 22.2969 1.94271 22.0755 1.26562 21.7891C0.927083 21.6068 0.809896 21.3333 0.914062 20.9688C1.1224 20.6302 1.39583 20.513 1.73438 20.6172C2.35938 20.8776 2.98438 21.099 3.60938 21.2812C4.26042 21.4375 4.83333 21.5547 5.32812 21.6328C6.86458 21.8411 8.14062 21.75 9.15625 21.3594C10.1198 20.9688 10.6797 20.3698 10.8359 19.5625C10.9141 18.9896 10.875 18.5469 10.7188 18.2344C10.5625 17.8958 10.276 17.5964 9.85938 17.3359C8.94792 16.8411 7.77604 16.4245 6.34375 16.0859H6.26562C5.61458 15.9297 4.95052 15.7344 4.27344 15.5C3.6224 15.2917 3.02344 15.0182 2.47656 14.6797C1.90365 14.3411 1.47396 13.8854 1.1875 13.3125C0.875 12.6875 0.796875 11.9844 0.953125 11.2031C1.1875 10.1094 1.70833 9.3151 2.51562 8.82031C3.29688 8.35156 4.16927 8.07812 5.13281 8C5.39323 8 5.64062 8 5.875 8V6.125C5.90104 5.73438 6.10938 5.52604 6.5 5.5C6.89062 5.52604 7.09896 5.73438 7.125 6.125Z" fill="black" fill-opacity="0.72"/>
</g>
<defs>
<clipPath id="clip0_1731_5165">
<rect width="13" height="30" fill="white"/>
</clipPath>
</defs>
</svg>
