<svg width="20" height="24" viewBox="0 0 20 24" fill="none" xmlns="http://www.w3.org/2000/svg">
<g id="label-paired / md / fiat-onramp-md / bold" clip-path="url(#clip0_1731_4195)">
<path id="icon" d="M13.8438 5.5C12.9062 5.53125 12.0312 6.03125 11.5625 6.84375C11.0938 7.65625 11.0938 8.65625 11.5625 9.46875C12.0312 10.2812 12.9062 10.7812 13.8438 10.7812C14.7812 10.7812 15.6562 10.2812 16.125 9.46875C16.5938 8.65625 16.5938 7.65625 16.125 6.84375C15.6562 6.03125 14.7812 5.5 13.8438 5.5ZM16.5 11.3438C15.7812 11.9375 14.8438 12.2812 13.8438 12.2812C12.5 12.2812 11.2812 11.625 10.5312 10.5938L8.5625 12.5625C9.59375 13.3125 10.25 14.5312 10.25 15.875C10.25 16.875 9.90625 17.8125 9.3125 18.5H15.3125C15.9688 18.5 16.5 17.9688 16.5 17.3438V11.3438ZM6.125 18.5C7.5625 18.5 8.75 17.3438 8.75 15.875C8.75 14.7812 8.0625 13.8125 7.09375 13.4375H7.0625C6.78125 13.3125 6.46875 13.25 6.125 13.25C4.65625 13.25 3.5 14.4375 3.5 15.875C3.5 17.3438 4.65625 18.5 6.125 18.5ZM7.125 11.875L9.84375 9.15625C9.75 8.84375 9.71875 8.5 9.71875 8.15625C9.71875 5.875 11.5625 4 13.8438 4C16.125 4 18 5.875 18 8.15625V17.3438C18 18.8125 16.7812 20 15.3125 20H6.125C3.84375 20 2 18.1562 2 15.875C2 13.5938 3.84375 11.75 6.125 11.75C6.46875 11.75 6.8125 11.7812 7.125 11.875ZM4.84375 7.65625C4.84375 7.25 5.1875 6.90625 5.59375 6.90625H8.53125C8.84375 6.90625 9.125 7.09375 9.21875 7.375C9.34375 7.65625 9.28125 7.96875 9.0625 8.1875L6.15625 11.0938C5.875 11.375 5.40625 11.375 5.09375 11.0938C4.8125 10.8125 4.8125 10.3125 5.09375 10.0312L6.71875 8.40625H5.59375C5.1875 8.40625 4.84375 8.09375 4.84375 7.65625ZM13.4062 6.0625V6.65625H14V6.0625H14.5938V6.65625C14.8125 6.65625 15.0312 6.71875 15.1875 6.875C15.5625 7.21875 15.5938 7.78125 15.25 8.15625C15.4062 8.3125 15.5 8.53125 15.5 8.75C15.5 9.25 15.0938 9.65625 14.5938 9.65625V10.25H14V9.65625H13.4062V10.25H12.8125V9.65625H12.2188V9.0625H12.8125V7.25H12.2188V6.65625H12.8125V6.0625H13.4062ZM14.5938 8.4375H13.4062V9.0625H14.5938C14.75 9.0625 14.9062 8.90625 14.9062 8.75C14.9062 8.59375 14.75 8.4375 14.5938 8.4375ZM14.5938 7.25H13.4062V7.84375H14.5938C14.75 7.84375 14.9062 7.71875 14.9062 7.5625C14.9062 7.375 14.75 7.25 14.5938 7.25ZM6.5 13.625V13.9375C6.96875 14.125 7.3125 14.5625 7.3125 15.0625V15.1562H6.5625V15.0625C6.5625 14.8125 6.375 14.625 6.125 14.625C5.875 14.625 5.6875 14.8125 5.6875 15.0625C5.6875 15.3125 5.875 15.5 6.125 15.5C6.78125 15.5 7.3125 16.0312 7.3125 16.6875C7.3125 17.1875 6.96875 17.625 6.5 17.8125V18.125H5.75V17.7812C5.28125 17.625 4.96875 17.1875 4.96875 16.6875V16.5625H5.6875V16.6875C5.6875 16.9062 5.875 17.125 6.125 17.125C6.375 17.125 6.5625 16.9062 6.5625 16.6875C6.5625 16.4375 6.375 16.25 6.125 16.25C5.46875 16.25 4.96875 15.7188 4.96875 15.0625C4.96875 14.5625 5.28125 14.0938 5.75 13.9375V13.625H6.5Z" fill="black" fill-opacity="0.72"/>
</g>
<defs>
<clipPath id="clip0_1731_4195">
<rect width="20" height="24" fill="white"/>
</clipPath>
</defs>
</svg>
