<svg width="12" height="24" viewBox="0 0 12 24" fill="none" xmlns="http://www.w3.org/2000/svg">
<g id="label-paired / md / mobile-notch-md / regular" clip-path="url(#clip0_1731_3880)">
<path id="icon" d="M8 5V5.5C8 5.79167 7.90625 6.03125 7.71875 6.21875C7.53125 6.40625 7.29167 6.5 7 6.5H5C4.70833 6.5 4.46875 6.40625 4.28125 6.21875C4.09375 6.03125 4 5.79167 4 5.5V5H3C2.70833 5 2.46875 5.09375 2.28125 5.28125C2.09375 5.46875 2 5.70833 2 6V18C2 18.2917 2.09375 18.5312 2.28125 18.7188C2.46875 18.9062 2.70833 19 3 19H9C9.29167 19 9.53125 18.9062 9.71875 18.7188C9.90625 18.5312 10 18.2917 10 18V6C10 5.70833 9.90625 5.46875 9.71875 5.28125C9.53125 5.09375 9.29167 5 9 5H8ZM7 5H5V5.5H7V5ZM1 6C1.02083 5.4375 1.21875 4.96875 1.59375 4.59375C1.96875 4.21875 2.4375 4.02083 3 4H9C9.5625 4.02083 10.0312 4.21875 10.4062 4.59375C10.7812 4.96875 10.9792 5.4375 11 6V18C10.9792 18.5625 10.7812 19.0312 10.4062 19.4062C10.0312 19.7812 9.5625 19.9792 9 20H3C2.4375 19.9792 1.96875 19.7812 1.59375 19.4062C1.21875 19.0312 1.02083 18.5625 1 18V6Z" fill="black" fill-opacity="0.72"/>
</g>
<defs>
<clipPath id="clip0_1731_3880">
<rect width="12" height="24" fill="white"/>
</clipPath>
</defs>
</svg>
