<svg width="27" height="36" viewBox="0 0 27 36" fill="none" xmlns="http://www.w3.org/2000/svg">
<g id="label-paired / xl / arrow-up-arrow-down-xl / regular" clip-path="url(#clip0_1731_6158)">
<path id="icon" d="M8.01562 7.73438L12.5156 12.2344C12.8281 12.5781 12.8281 12.9219 12.5156 13.2656C12.1719 13.5781 11.8281 13.5781 11.4844 13.2656L8.25 10.0781V27.75C8.21875 28.2188 7.96875 28.4688 7.5 28.5C7.03125 28.4688 6.78125 28.2188 6.75 27.75V10.0781L3.51562 13.2656C3.17188 13.5781 2.82812 13.5781 2.48438 13.2656C2.17188 12.9219 2.17188 12.5781 2.48438 12.2344L6.98438 7.73438C7.32812 7.42187 7.67188 7.42187 8.01562 7.73438ZM24.5156 23.7656L20.0156 28.2656C19.6719 28.5781 19.3281 28.5781 18.9844 28.2656L14.4844 23.7656C14.1719 23.4219 14.1719 23.0781 14.4844 22.7344C14.8281 22.4219 15.1719 22.4219 15.5156 22.7344L18.75 25.9219V8.25C18.7812 7.78125 19.0312 7.53125 19.5 7.5C19.9688 7.53125 20.2188 7.78125 20.25 8.25V25.9219L23.4844 22.7344C23.8281 22.4219 24.1719 22.4219 24.5156 22.7344C24.8281 23.0781 24.8281 23.4219 24.5156 23.7656Z" fill="black" fill-opacity="0.72"/>
</g>
<defs>
<clipPath id="clip0_1731_6158">
<rect width="27" height="36" fill="white"/>
</clipPath>
</defs>
</svg>
