<svg width="27" height="36" viewBox="0 0 27 36" fill="none" xmlns="http://www.w3.org/2000/svg">
<g id="label-paired / xl / video-xl / bold" clip-path="url(#clip0_1731_6598)">
<path id="icon" d="M3 11.25C2.53125 11.2812 2.28125 11.5312 2.25 12V24C2.28125 24.4688 2.53125 24.7188 3 24.75H15C15.4688 24.7188 15.7188 24.4688 15.75 24V12C15.7188 11.5312 15.4688 11.2812 15 11.25H3ZM0 12C0.03125 11.1562 0.328125 10.4531 0.890625 9.89062C1.45312 9.32812 2.15625 9.03125 3 9H15C15.8438 9.03125 16.5469 9.32812 17.1094 9.89062C17.6719 10.4531 17.9688 11.1562 18 12V13.5469V22.4531V24C17.9688 24.8438 17.6719 25.5469 17.1094 26.1094C16.5469 26.6719 15.8438 26.9688 15 27H3C2.15625 26.9688 1.45312 26.6719 0.890625 26.1094C0.328125 25.5469 0.03125 24.8438 0 24V12ZM24.75 23.0156V12.9844L19.5 15.3281V12.8438L24.375 10.6875C24.625 10.5625 24.8906 10.5 25.1719 10.5C25.6719 10.5 26.0938 10.6875 26.4375 11.0625C26.8125 11.4062 27 11.8438 27 12.375V23.6719C27 24.1719 26.8125 24.5938 26.4375 24.9375C26.0938 25.3125 25.6719 25.5 25.1719 25.5C24.8906 25.5 24.625 25.4531 24.375 25.3594L19.5 23.1562V20.6719L24.75 23.0156Z" fill="black" fill-opacity="0.72"/>
</g>
<defs>
<clipPath id="clip0_1731_6598">
<rect width="27" height="36" fill="white"/>
</clipPath>
</defs>
</svg>
