<svg width="21" height="36" viewBox="0 0 21 36" fill="none" xmlns="http://www.w3.org/2000/svg">
<g id="label-paired / xl / flag-checkered-xl / bold" clip-path="url(#clip0_1731_6459)">
<path id="icon" d="M1.125 6C1.8125 6.0625 2.1875 6.4375 2.25 7.125V8.4375L6.23438 7.45312C8.07812 7.01563 9.85938 7.20313 11.5781 8.01562C12.6719 8.57812 13.8125 8.85938 15 8.85938C16.1875 8.85938 17.3438 8.57812 18.4688 8.01562L18.8906 7.82812C19.4219 7.57813 19.8906 7.59375 20.2969 7.875C20.7344 8.125 20.9688 8.53125 21 9.09375V22.2188C20.9688 22.875 20.6406 23.3438 20.0156 23.625L18.4219 24.2344C16.1406 25.0469 13.9219 24.9219 11.7656 23.8594C9.92188 22.9844 8 22.7812 6 23.25L2.25 24.1875V28.875C2.1875 29.5625 1.8125 29.9375 1.125 30C0.4375 29.9375 0.0625 29.5625 0 28.875V24.75V22.4531V9V7.125C0.0625 6.4375 0.4375 6.0625 1.125 6ZM2.25 13.0781L6 12.2344V9.84375L2.25 10.7812V13.0781ZM2.25 15.375V17.5781L6 16.7344V14.5781L2.25 15.375ZM2.25 19.875V21.8906L5.48438 21.0469C5.64062 21.0156 5.8125 20.9844 6 20.9531V19.0781L2.25 19.875ZM8.25 20.7656C9.8125 20.7969 11.3125 21.1562 12.75 21.8438V19.5469L10.1719 18.75C9.54688 18.5625 8.90625 18.5156 8.25 18.6094V20.7656ZM15 22.5C15.875 22.5625 16.75 22.4375 17.625 22.125L18.75 21.7031V19.5L17.5312 19.7812C16.6875 19.9688 15.8438 20.0312 15 19.9688V22.5ZM18.75 17.2031V15L17.5312 15.2812C16.6875 15.4688 15.8438 15.5312 15 15.4688V17.7188C15.6875 17.7812 16.375 17.7344 17.0625 17.5781L18.75 17.2031ZM18.75 12.7031V10.3594C17.5312 10.8594 16.2812 11.1094 15 11.1094V13.2188C15.6875 13.2812 16.375 13.2344 17.0625 13.0781L18.75 12.7031ZM12.75 10.8281C12 10.6719 11.2656 10.4062 10.5469 10.0312C9.82812 9.6875 9.0625 9.5 8.25 9.46875V11.8125C9.125 11.7812 9.96875 11.875 10.7812 12.0938L12.75 12.7031V10.8281ZM12.75 15.0469L10.1719 14.25C9.54688 14.0625 8.90625 14.0156 8.25 14.1094V16.3594C9.125 16.2969 9.96875 16.375 10.7812 16.5938L12.75 17.2031V15.0469Z" fill="black" fill-opacity="0.72"/>
</g>
<defs>
<clipPath id="clip0_1731_6459">
<rect width="21" height="36" fill="white"/>
</clipPath>
</defs>
</svg>
