<svg width="18" height="24" viewBox="0 0 18 24" fill="none" xmlns="http://www.w3.org/2000/svg">
<g id="label-paired / md / rectangle-barcode-md / bold" clip-path="url(#clip0_1731_4255)">
<path id="icon" d="M2 6.5C1.6875 6.52083 1.52083 6.6875 1.5 7V17C1.52083 17.3125 1.6875 17.4792 2 17.5H16C16.3125 17.4792 16.4792 17.3125 16.5 17V7C16.4792 6.6875 16.3125 6.52083 16 6.5H2ZM0 7C0.0208333 6.4375 0.21875 5.96875 0.59375 5.59375C0.96875 5.21875 1.4375 5.02083 2 5H16C16.5625 5.02083 17.0312 5.21875 17.4062 5.59375C17.7812 5.96875 17.9792 6.4375 18 7V17C17.9792 17.5625 17.7812 18.0312 17.4062 18.4062C17.0312 18.7812 16.5625 18.9792 16 19H2C1.4375 18.9792 0.96875 18.7812 0.59375 18.4062C0.21875 18.0312 0.0208333 17.5625 0 17V7ZM3.75 8C4.20833 8.04167 4.45833 8.29167 4.5 8.75V15.25C4.45833 15.7083 4.20833 15.9583 3.75 16C3.29167 15.9583 3.04167 15.7083 3 15.25V8.75C3.04167 8.29167 3.29167 8.04167 3.75 8ZM6 8C6.3125 8.02083 6.47917 8.1875 6.5 8.5V15.5C6.47917 15.8125 6.3125 15.9792 6 16C5.6875 15.9792 5.52083 15.8125 5.5 15.5V8.5C5.52083 8.1875 5.6875 8.02083 6 8ZM7.5 8.75C7.54167 8.29167 7.79167 8.04167 8.25 8C8.70833 8.04167 8.95833 8.29167 9 8.75V15.25C8.95833 15.7083 8.70833 15.9583 8.25 16C7.79167 15.9583 7.54167 15.7083 7.5 15.25V8.75ZM11.75 8C12.2083 8.04167 12.4583 8.29167 12.5 8.75V15.25C12.4583 15.7083 12.2083 15.9583 11.75 16C11.2917 15.9583 11.0417 15.7083 11 15.25V8.75C11.0417 8.29167 11.2917 8.04167 11.75 8ZM14 8.5C14.0208 8.1875 14.1875 8.02083 14.5 8C14.8125 8.02083 14.9792 8.1875 15 8.5V15.5C14.9792 15.8125 14.8125 15.9792 14.5 16C14.1875 15.9792 14.0208 15.8125 14 15.5V8.5Z" fill="black" fill-opacity="0.72"/>
</g>
<defs>
<clipPath id="clip0_1731_4255">
<rect width="18" height="24" fill="white"/>
</clipPath>
</defs>
</svg>
