<svg width="24" height="36" viewBox="0 0 24 36" fill="none" xmlns="http://www.w3.org/2000/svg">
<g id="label-paired / xl / circle-dollar-xl / bold" clip-path="url(#clip0_1731_6730)">
<path id="icon" d="M21.75 18C21.75 16.2188 21.3125 14.5938 20.4375 13.125C19.5938 11.6562 18.4062 10.4688 16.875 9.5625C15.3438 8.6875 13.7188 8.25 12 8.25C10.2812 8.25 8.65625 8.6875 7.125 9.5625C5.59375 10.4688 4.40625 11.6562 3.5625 13.125C2.6875 14.5938 2.25 16.2188 2.25 18C2.25 19.7812 2.6875 21.4062 3.5625 22.875C4.40625 24.3438 5.59375 25.5312 7.125 26.4375C8.65625 27.3125 10.2812 27.75 12 27.75C13.7188 27.75 15.3438 27.3125 16.875 26.4375C18.4062 25.5312 19.5938 24.3438 20.4375 22.875C21.3125 21.4062 21.75 19.7812 21.75 18ZM0 18C0.03125 15.8125 0.5625 13.8125 1.59375 12C2.65625 10.1875 4.125 8.71875 6 7.59375C7.90625 6.53125 9.90625 6 12 6C14.0938 6 16.0938 6.53125 18 7.59375C19.875 8.71875 21.3438 10.1875 22.4062 12C23.4375 13.8125 23.9688 15.8125 24 18C23.9688 20.1875 23.4375 22.1875 22.4062 24C21.3438 25.8125 19.875 27.2812 18 28.4062C16.0938 29.4688 14.0938 30 12 30C9.90625 30 7.90625 29.4688 6 28.4062C4.125 27.2812 2.65625 25.8125 1.59375 24C0.5625 22.1875 0.03125 20.1875 0 18ZM12.9844 12.2812V12.9375C13.4219 13 13.875 13.0938 14.3438 13.2188C14.4375 13.25 14.5156 13.2812 14.5781 13.3125C15.1719 13.5312 15.4219 13.9531 15.3281 14.5781C15.0781 15.1406 14.6562 15.375 14.0625 15.2812C14.0312 15.25 14 15.2344 13.9688 15.2344C13.9062 15.2344 13.8594 15.2188 13.8281 15.1875C13.5156 15.0938 13.1875 15.0156 12.8438 14.9531C12.1875 14.8281 11.5469 14.8906 10.9219 15.1406C10.6406 15.2656 10.4531 15.4375 10.3594 15.6562C10.2344 15.875 10.3125 16.0938 10.5938 16.3125C11.0625 16.5625 11.5625 16.75 12.0938 16.875C12.125 16.875 12.1406 16.875 12.1406 16.875C12.2031 16.9062 12.2656 16.9219 12.3281 16.9219C12.3594 16.9531 12.4062 16.9688 12.4688 16.9688C13.2812 17.1562 14.0625 17.4688 14.8125 17.9062C15.75 18.5938 16.125 19.5 15.9375 20.625C15.6875 21.6875 15.0938 22.3906 14.1562 22.7344C13.7812 22.8906 13.3906 22.9844 12.9844 23.0156V23.7656C12.9219 24.3594 12.5781 24.6875 11.9531 24.75C11.3594 24.6875 11.0312 24.3594 10.9688 23.7656V22.9219C10.2812 22.7656 9.60938 22.5781 8.95312 22.3594C8.39062 22.1094 8.17188 21.6719 8.29688 21.0469C8.54688 20.4844 8.96875 20.2812 9.5625 20.4375C9.625 20.4375 9.6875 20.4531 9.75 20.4844C9.8125 20.4844 9.875 20.5 9.9375 20.5312C10.4688 20.7188 11 20.875 11.5312 21C12.3438 21.0938 12.9688 21.0469 13.4062 20.8594C13.6875 20.7344 13.875 20.5469 13.9688 20.2969C14.0312 20.0156 13.9375 19.7812 13.6875 19.5938C13.1875 19.2812 12.6406 19.0781 12.0469 18.9844C11.9531 18.9531 11.8594 18.9219 11.7656 18.8906C11.7344 18.8594 11.7188 18.8438 11.7188 18.8438C10.9375 18.6875 10.1875 18.4062 9.46875 18C8.53125 17.375 8.14062 16.5 8.29688 15.375C8.57812 14.3438 9.1875 13.6406 10.125 13.2656C10.375 13.1719 10.6562 13.0938 10.9688 13.0312V12.2812C11.0312 11.6562 11.3594 11.3125 11.9531 11.25C12.5781 11.3125 12.9219 11.6562 12.9844 12.2812Z" fill="black" fill-opacity="0.72"/>
</g>
<defs>
<clipPath id="clip0_1731_6730">
<rect width="24" height="36" fill="white"/>
</clipPath>
</defs>
</svg>
