<svg width="25" height="30" viewBox="0 0 25 30" fill="none" xmlns="http://www.w3.org/2000/svg">
<g id="label-paired / lg / eye-slash-lg / bold" clip-path="url(#clip0_1731_5361)">
<path id="icon" d="M1.52344 5.69531L5.89844 9.13281C6.75781 8.42969 7.73438 7.85677 8.82812 7.41406C9.94792 6.9974 11.1719 6.77604 12.5 6.75C14.0885 6.77604 15.5078 7.08854 16.7578 7.6875C18.0078 8.28646 19.1016 9.02865 20.0391 9.91406C20.9505 10.7734 21.7057 11.6589 22.3047 12.5703C22.9036 13.4818 23.3594 14.3021 23.6719 15.0312C23.776 15.3438 23.776 15.6562 23.6719 15.9688C23.3854 16.6198 22.9818 17.349 22.4609 18.1562C21.9401 18.9896 21.3021 19.8099 20.5469 20.6172L24.6484 23.8203C25.0651 24.2109 25.1172 24.6536 24.8047 25.1484C24.4141 25.5651 23.9714 25.6172 23.4766 25.3047L0.351562 7.17969C-0.0651042 6.78906 -0.117188 6.34635 0.195312 5.85156C0.585938 5.4349 1.02865 5.38281 1.52344 5.69531ZM7.42188 10.3047L9.21875 11.7109C10.1302 10.9297 11.224 10.526 12.5 10.5C13.9062 10.526 15.0911 11.0078 16.0547 11.9453C16.9922 12.9089 17.474 14.0938 17.5 15.5C17.5 16.3333 17.3177 17.1016 16.9531 17.8047L19.0625 19.4453C19.7135 18.7682 20.2734 18.0781 20.7422 17.375C21.2109 16.6719 21.5755 16.0469 21.8359 15.5C21.5495 14.901 21.1589 14.224 20.6641 13.4688C20.1432 12.7135 19.5052 11.9844 18.75 11.2812C17.9427 10.5 17.0182 9.875 15.9766 9.40625C14.9349 8.91146 13.776 8.65104 12.5 8.625C10.5208 8.67708 8.82812 9.23698 7.42188 10.3047ZM15.4297 16.5938C15.5599 16.2552 15.625 15.8906 15.625 15.5C15.599 14.6146 15.2995 13.8724 14.7266 13.2734C14.1276 12.7005 13.3854 12.401 12.5 12.375C12.474 12.375 12.4479 12.375 12.4219 12.375C12.474 12.5833 12.5 12.7917 12.5 13C12.5 13.3906 12.4089 13.7552 12.2266 14.0938L15.4297 16.5938ZM15.7812 21.7109L17.4219 23C16.0156 23.7812 14.375 24.1979 12.5 24.25C10.9115 24.224 9.49219 23.9115 8.24219 23.3125C6.99219 22.7135 5.91146 21.9714 5 21.0859C4.0625 20.2266 3.29427 19.3411 2.69531 18.4297C2.09635 17.5182 1.65365 16.6979 1.36719 15.9688C1.23698 15.6562 1.23698 15.3438 1.36719 15.0312C1.73177 14.0938 2.35677 13.026 3.24219 11.8281L4.72656 12.9609C4.02344 13.8984 3.5026 14.7448 3.16406 15.5C3.45052 16.099 3.84115 16.776 4.33594 17.5312C4.85677 18.2865 5.49479 19.0156 6.25 19.7188C7.05729 20.5 7.98177 21.125 9.02344 21.5938C10.0651 22.0885 11.224 22.349 12.5 22.375C13.6979 22.349 14.7917 22.1276 15.7812 21.7109ZM7.5 15.5C7.5 15.3958 7.5 15.2917 7.5 15.1875L9.6875 16.9062C10.1302 17.7656 10.8333 18.3125 11.7969 18.5469L13.9844 20.2656C13.5156 20.4219 13.0208 20.5 12.5 20.5C11.0938 20.474 9.90885 19.9922 8.94531 19.0547C8.00781 18.0911 7.52604 16.9062 7.5 15.5Z" fill="black" fill-opacity="0.72"/>
</g>
<defs>
<clipPath id="clip0_1731_5361">
<rect width="25" height="30" fill="white"/>
</clipPath>
</defs>
</svg>
