<svg width="25" height="30" viewBox="0 0 25 30" fill="none" xmlns="http://www.w3.org/2000/svg">
<g id="label-paired / lg / macos-lg" clip-path="url(#clip0_1731_14052)">
<path id="icon" d="M11.7578 17.6484C11.7578 19.3281 10.8984 20.3828 9.49219 20.3828C8.08594 20.3828 7.22656 19.3281 7.22656 17.6484C7.22656 15.9688 8.08594 14.9141 9.49219 14.9141C10.8984 14.9141 11.7578 15.9688 11.7578 17.6484ZM13.7109 11.7109L13.125 11.75C12.7734 11.7891 12.6172 11.9062 12.6172 12.1406C12.6172 12.375 12.8125 12.4922 13.0859 12.4922C13.4375 12.4922 13.7109 12.2578 13.7109 11.9453V11.7109ZM2.5 15.5C2.5 11.9453 4.375 8.66406 7.5 6.86719C10.5859 5.07031 14.375 5.07031 17.5 6.86719C20.5859 8.66406 22.5 11.9453 22.5 15.5C22.5 19.0938 20.5859 22.375 17.5 24.1719C14.375 25.9688 10.5859 25.9688 7.5 24.1719C4.375 22.375 2.5 19.0938 2.5 15.5ZM14.8047 11.5938C14.8047 12.4141 15.2344 12.9219 15.9766 12.9219C16.6016 12.9219 16.9922 12.5703 17.0312 12.0625H16.5625C16.4844 12.3359 16.2891 12.4922 15.9766 12.4922C15.5469 12.4922 15.3125 12.1406 15.3125 11.5938C15.3125 11.0469 15.5469 10.7344 15.9766 10.7344C16.2891 10.7344 16.5234 10.9297 16.5625 11.1641H17.0312C16.9922 10.6953 16.6016 10.3047 15.9766 10.3047C15.2344 10.3047 14.8047 10.8125 14.8047 11.5938ZM8.08594 10.3828V12.8438H8.55469V11.3203C8.55469 11.0078 8.78906 10.7344 9.10156 10.7344C9.375 10.7344 9.57031 10.9297 9.57031 11.2031V12.8438H10.0781V11.2812C10.0781 10.9688 10.2734 10.7344 10.5859 10.7344C10.8984 10.7344 11.0547 10.9297 11.0547 11.2422V12.8438H11.5625V11.125C11.5625 10.6172 11.2891 10.3047 10.7812 10.3047C10.4297 10.3047 10.1172 10.5 10 10.7734H9.96094C9.84375 10.5 9.60938 10.3047 9.25781 10.3047C8.94531 10.3047 8.67188 10.4609 8.59375 10.7734H8.55469V10.3438L8.08594 10.3828ZM12.6562 17.6484C12.6562 15.5 11.4453 14.1328 9.49219 14.1328C7.57812 14.1328 6.36719 15.5 6.36719 17.6484C6.36719 19.8359 7.57812 21.2031 9.49219 21.2031C11.4453 21.2031 12.6562 19.8359 12.6562 17.6484ZM12.9688 12.8828C13.2812 12.8828 13.5547 12.7656 13.7109 12.4922H13.75V12.8438H14.2188V11.1641C14.2188 10.6172 13.8672 10.3047 13.2422 10.3047C12.6953 10.3047 12.2656 10.5781 12.2266 11.0078H12.6953C12.7734 10.8125 12.9688 10.7344 13.2422 10.7344C13.5547 10.7344 13.75 10.8906 13.75 11.1641V11.3594L13.0469 11.3984C12.4609 11.4375 12.1484 11.7109 12.1484 12.1797C12.1094 12.6094 12.4609 12.8828 12.9688 12.8828ZM18.3594 19.1328C18.3594 18.1562 17.7734 17.6094 16.3672 17.2969L15.625 17.1016C14.6875 16.9062 14.2969 16.5547 14.2969 16.0078C14.2969 15.3047 14.9609 14.875 15.8203 14.875C16.7188 14.875 17.3047 15.3438 17.3828 16.0859H18.2422C18.2031 14.9531 17.1875 14.1328 15.8594 14.1328C14.4141 14.1328 13.4375 14.9141 13.4375 16.0469C13.4375 17.0234 14.0234 17.6484 15.3906 17.9219L16.1719 18.1172C17.1094 18.3125 17.5 18.7031 17.5 19.25C17.5 19.9531 16.7969 20.4219 15.8984 20.4219C14.8828 20.4219 14.2188 19.9922 14.1016 19.25H13.2812C13.3594 20.4219 14.3359 21.2031 15.8203 21.2031C17.3438 21.2031 18.3594 20.3828 18.3594 19.1328Z" fill="black" fill-opacity="0.72"/>
</g>
<defs>
<clipPath id="clip0_1731_14052">
<rect width="25" height="30" fill="white"/>
</clipPath>
</defs>
</svg>
