<svg width="24" height="36" viewBox="0 0 24 36" fill="none" xmlns="http://www.w3.org/2000/svg">
<g id="label-paired / xl / circle-two-xl / regular" clip-path="url(#clip0_1731_6081)">
<path id="icon" d="M12 7.5C10.0938 7.53125 8.34375 8 6.75 8.90625C5.15625 9.84375 3.875 11.125 2.90625 12.75C1.96875 14.4062 1.5 16.1562 1.5 18C1.5 19.8438 1.96875 21.5938 2.90625 23.25C3.875 24.875 5.15625 26.1562 6.75 27.0938C8.34375 28 10.0938 28.4688 12 28.5C13.9062 28.4688 15.6562 28 17.25 27.0938C18.8438 26.1562 20.125 24.875 21.0938 23.25C22.0312 21.5938 22.5 19.8438 22.5 18C22.5 16.1562 22.0312 14.4062 21.0938 12.75C20.125 11.125 18.8438 9.84375 17.25 8.90625C15.6562 8 13.9062 7.53125 12 7.5ZM12 30C9.8125 29.9688 7.8125 29.4375 6 28.4062C4.1875 27.3438 2.71875 25.875 1.59375 24C0.53125 22.0938 0 20.0938 0 18C0 15.9062 0.53125 13.9062 1.59375 12C2.71875 10.125 4.1875 8.65625 6 7.59375C7.8125 6.5625 9.8125 6.03125 12 6C14.1875 6.03125 16.1875 6.5625 18 7.59375C19.8125 8.65625 21.2812 10.125 22.4062 12C23.4688 13.9062 24 15.9062 24 18C24 20.0938 23.4688 22.0938 22.4062 24C21.2812 25.875 19.8125 27.3438 18 28.4062C16.1875 29.4375 14.1875 29.9688 12 30ZM10.1719 14.1562L9.51562 14.8125C9.14062 15.0938 8.78125 15.0781 8.4375 14.7656C8.15625 14.3906 8.17188 14.0312 8.48438 13.6875L9.14062 13.0781C9.92188 12.3594 10.8438 12 11.9062 12C13 12.0625 13.9062 12.4531 14.625 13.1719C15.3438 13.9219 15.7188 14.8438 15.75 15.9375C15.75 17 15.375 17.9219 14.625 18.7031L10.8281 22.5H15.75C16.2188 22.5312 16.4688 22.7812 16.5 23.25C16.4688 23.7188 16.2188 23.9688 15.75 24H9C8.6875 23.9688 8.45312 23.8125 8.29688 23.5312C8.20312 23.2188 8.26562 22.9531 8.48438 22.7344L13.5469 17.6719C14.0156 17.1719 14.25 16.5938 14.25 15.9375C14.2188 15.25 13.9844 14.6875 13.5469 14.25C13.1094 13.7812 12.5469 13.5312 11.8594 13.5C11.2031 13.5 10.6406 13.7188 10.1719 14.1562Z" fill="black" fill-opacity="0.72"/>
</g>
<defs>
<clipPath id="clip0_1731_6081">
<rect width="24" height="36" fill="white"/>
</clipPath>
</defs>
</svg>
