<svg width="24" height="36" viewBox="0 0 24 36" fill="none" xmlns="http://www.w3.org/2000/svg">
<g id="label-paired / xl / circle-eight-xl / bold" clip-path="url(#clip0_1731_6113)">
<path id="icon" d="M21.75 18C21.75 16.2188 21.3125 14.5938 20.4375 13.125C19.5938 11.6562 18.4062 10.4688 16.875 9.5625C15.3438 8.6875 13.7188 8.25 12 8.25C10.2812 8.25 8.65625 8.6875 7.125 9.5625C5.59375 10.4688 4.40625 11.6562 3.5625 13.125C2.6875 14.5938 2.25 16.2188 2.25 18C2.25 19.7812 2.6875 21.4062 3.5625 22.875C4.40625 24.3438 5.59375 25.5312 7.125 26.4375C8.65625 27.3125 10.2812 27.75 12 27.75C13.7188 27.75 15.3438 27.3125 16.875 26.4375C18.4062 25.5312 19.5938 24.3438 20.4375 22.875C21.3125 21.4062 21.75 19.7812 21.75 18ZM0 18C0.03125 15.8125 0.5625 13.8125 1.59375 12C2.65625 10.1875 4.125 8.71875 6 7.59375C7.90625 6.53125 9.90625 6 12 6C14.0938 6 16.0938 6.53125 18 7.59375C19.875 8.71875 21.3438 10.1875 22.4062 12C23.4375 13.8125 23.9688 15.8125 24 18C23.9688 20.1875 23.4375 22.1875 22.4062 24C21.3438 25.8125 19.875 27.2812 18 28.4062C16.0938 29.4688 14.0938 30 12 30C9.90625 30 7.90625 29.4688 6 28.4062C4.125 27.2812 2.65625 25.8125 1.59375 24C0.5625 22.1875 0.03125 20.1875 0 18ZM12.375 12C13.3438 12.0312 14.1406 12.3594 14.7656 12.9844C15.3906 13.6094 15.7188 14.4062 15.75 15.375C15.75 16.125 15.5469 16.7812 15.1406 17.3438C16.0156 18.0625 16.4688 19.0312 16.5 20.25C16.4688 21.3125 16.1094 22.2031 15.4219 22.9219C14.7031 23.6094 13.8125 23.9688 12.75 24H11.25C10.1875 23.9688 9.29688 23.6094 8.57812 22.9219C7.89062 22.2031 7.53125 21.3125 7.5 20.25C7.53125 19.0312 8 18.0625 8.90625 17.3438C8.46875 16.7812 8.25 16.125 8.25 15.375C8.28125 14.4062 8.60938 13.6094 9.23438 12.9844C9.85938 12.3594 10.6562 12.0312 11.625 12H12.375ZM11.625 16.5H12.375C13.0625 16.4375 13.4375 16.0625 13.5 15.375C13.4375 14.6875 13.0625 14.3125 12.375 14.25H11.625C10.9375 14.3125 10.5625 14.6875 10.5 15.375C10.5625 16.0625 10.9375 16.4375 11.625 16.5ZM12.375 18.75H11.625H11.25C10.8125 18.75 10.4531 18.8906 10.1719 19.1719C9.89062 19.4531 9.75 19.8125 9.75 20.25C9.75 20.6875 9.89062 21.0469 10.1719 21.3281C10.4531 21.6094 10.8125 21.75 11.25 21.75H12.75C13.1875 21.75 13.5469 21.6094 13.8281 21.3281C14.1094 21.0469 14.25 20.6875 14.25 20.25C14.25 19.8125 14.1094 19.4531 13.8281 19.1719C13.5469 18.8906 13.1875 18.75 12.75 18.75H12.375Z" fill="black" fill-opacity="0.72"/>
</g>
<defs>
<clipPath id="clip0_1731_6113">
<rect width="24" height="36" fill="white"/>
</clipPath>
</defs>
</svg>
