<svg width="11" height="22" viewBox="0 0 11 22" fill="none" xmlns="http://www.w3.org/2000/svg">
<g id="label-paired / sm / mobile-notch-sm / regular" clip-path="url(#clip0_1731_2622)">
<path id="icon" d="M7.25 4.625V5.0625C7.25 5.31771 7.16797 5.52734 7.00391 5.69141C6.83984 5.85547 6.63021 5.9375 6.375 5.9375H4.625C4.36979 5.9375 4.16016 5.85547 3.99609 5.69141C3.83203 5.52734 3.75 5.31771 3.75 5.0625V4.625H2.875C2.61979 4.625 2.41016 4.70703 2.24609 4.87109C2.08203 5.03516 2 5.24479 2 5.5V16C2 16.2552 2.08203 16.4648 2.24609 16.6289C2.41016 16.793 2.61979 16.875 2.875 16.875H8.125C8.38021 16.875 8.58984 16.793 8.75391 16.6289C8.91797 16.4648 9 16.2552 9 16V5.5C9 5.24479 8.91797 5.03516 8.75391 4.87109C8.58984 4.70703 8.38021 4.625 8.125 4.625H7.25ZM6.375 4.625H4.625V5.0625H6.375V4.625ZM1.125 5.5C1.14323 5.00781 1.31641 4.59766 1.64453 4.26953C1.97266 3.94141 2.38281 3.76823 2.875 3.75H8.125C8.61719 3.76823 9.02734 3.94141 9.35547 4.26953C9.68359 4.59766 9.85677 5.00781 9.875 5.5V16C9.85677 16.4922 9.68359 16.9023 9.35547 17.2305C9.02734 17.5586 8.61719 17.7318 8.125 17.75H2.875C2.38281 17.7318 1.97266 17.5586 1.64453 17.2305C1.31641 16.9023 1.14323 16.4922 1.125 16V5.5Z" fill="black" fill-opacity="0.72"/>
</g>
<defs>
<clipPath id="clip0_1731_2622">
<rect width="11" height="22" fill="white"/>
</clipPath>
</defs>
</svg>
