<svg width="15" height="36" viewBox="0 0 15 36" fill="none" xmlns="http://www.w3.org/2000/svg">
<g id="label-paired / xl / zero-xl / bold" clip-path="url(#clip0_1731_6073)">
<path id="icon" d="M0 15C0.0625 12.875 0.796875 11.1094 2.20312 9.70312C3.60938 8.29688 5.375 7.5625 7.5 7.5C9.625 7.5625 11.3906 8.29688 12.7969 9.70312C14.2031 11.1094 14.9375 12.875 15 15V21C14.9375 23.125 14.2031 24.8906 12.7969 26.2969C11.3906 27.7031 9.625 28.4375 7.5 28.5C5.375 28.4375 3.60938 27.7031 2.20312 26.2969C0.796875 24.8906 0.0625 23.125 0 21V15ZM7.5 9.75C6 9.78125 4.76562 10.2969 3.79688 11.2969C2.79688 12.2656 2.28125 13.5 2.25 15V21C2.28125 22.5 2.79688 23.7344 3.79688 24.7031C4.76562 25.7031 6 26.2188 7.5 26.25C9 26.2188 10.2344 25.7031 11.2031 24.7031C12.2031 23.7344 12.7188 22.5 12.75 21V15C12.7188 13.5 12.2031 12.2656 11.2031 11.2969C10.2344 10.2969 9 9.78125 7.5 9.75Z" fill="black" fill-opacity="0.72"/>
</g>
<defs>
<clipPath id="clip0_1731_6073">
<rect width="15" height="36" fill="white"/>
</clipPath>
</defs>
</svg>
