<svg width="16" height="24" viewBox="0 0 16 24" fill="none" xmlns="http://www.w3.org/2000/svg">
<g id="label-paired / md / scissors-md / bold" clip-path="url(#clip0_1731_3969)">
<path id="icon" d="M15.8125 17.7188C15.5 18.0521 15.1562 18.0833 14.7812 17.8125L9.75 13.625L10.9375 12.6562L15.7188 16.6875C16.0521 17 16.0833 17.3438 15.8125 17.7188ZM3.5 5.5C2.75 5.52083 2.17708 5.85417 1.78125 6.5C1.40625 7.16667 1.40625 7.83333 1.78125 8.5C2.17708 9.14583 2.75 9.47917 3.5 9.5C4.25 9.47917 4.82292 9.14583 5.21875 8.5C5.59375 7.83333 5.59375 7.16667 5.21875 6.5C4.82292 5.85417 4.25 5.52083 3.5 5.5ZM3.5 4C4.5 4.02083 5.32292 4.36458 5.96875 5.03125C6.63542 5.67708 6.97917 6.5 7 7.5C7 8.0625 6.875 8.58333 6.625 9.0625L9 11.0312L14.7812 6.1875C15.1562 5.91667 15.5 5.94792 15.8125 6.28125C16.0833 6.65625 16.0521 7 15.7188 7.3125L6.625 14.9375C6.875 15.4167 7 15.9375 7 16.5C6.97917 17.5 6.63542 18.3229 5.96875 18.9688C5.32292 19.6354 4.5 19.9792 3.5 20C2.5 19.9792 1.67708 19.6354 1.03125 18.9688C0.364583 18.3229 0.0208333 17.5 0 16.5C0.0208333 15.5 0.364583 14.6771 1.03125 14.0312C1.67708 13.3646 2.5 13.0208 3.5 13C4.35417 13.0208 5.08333 13.2812 5.6875 13.7812L7.8125 12L5.6875 10.2188C5.08333 10.7188 4.35417 10.9792 3.5 11C2.5 10.9792 1.67708 10.6354 1.03125 9.96875C0.364583 9.32292 0.0208333 8.5 0 7.5C0.0208333 6.5 0.364583 5.67708 1.03125 5.03125C1.67708 4.36458 2.5 4.02083 3.5 4ZM5.5 16.5C5.47917 15.75 5.14583 15.1771 4.5 14.7812C3.83333 14.4062 3.16667 14.4062 2.5 14.7812C1.85417 15.1771 1.52083 15.75 1.5 16.5C1.52083 17.25 1.85417 17.8229 2.5 18.2188C3.16667 18.5938 3.83333 18.5938 4.5 18.2188C5.14583 17.8229 5.47917 17.25 5.5 16.5Z" fill="black" fill-opacity="0.72"/>
</g>
<defs>
<clipPath id="clip0_1731_3969">
<rect width="16" height="24" fill="white"/>
</clipPath>
</defs>
</svg>
