<svg width="11" height="18" viewBox="0 0 11 18" fill="none" xmlns="http://www.w3.org/2000/svg">
<g id="label-paired / caption / ellipsis-caption / bold" clip-path="url(#clip0_1731_731)">
<path id="icon" d="M10.375 9.5C10.3594 9.92188 10.1719 10.25 9.8125 10.4844C9.4375 10.6719 9.0625 10.6719 8.6875 10.4844C8.32812 10.25 8.14062 9.92188 8.125 9.5C8.14062 9.07812 8.32812 8.75 8.6875 8.51562C9.0625 8.32812 9.4375 8.32812 9.8125 8.51562C10.1719 8.75 10.3594 9.07812 10.375 9.5ZM6.625 9.5C6.60938 9.92188 6.42188 10.25 6.0625 10.4844C5.6875 10.6719 5.3125 10.6719 4.9375 10.4844C4.57812 10.25 4.39062 9.92188 4.375 9.5C4.39062 9.07812 4.57812 8.75 4.9375 8.51562C5.3125 8.32812 5.6875 8.32812 6.0625 8.51562C6.42188 8.75 6.60938 9.07812 6.625 9.5ZM1.75 10.625C1.32812 10.6094 1 10.4219 0.765625 10.0625C0.578125 9.6875 0.578125 9.3125 0.765625 8.9375C1 8.57812 1.32812 8.39062 1.75 8.375C2.17188 8.39062 2.5 8.57812 2.73438 8.9375C2.92188 9.3125 2.92188 9.6875 2.73438 10.0625C2.5 10.4219 2.17188 10.6094 1.75 10.625Z" fill="black" fill-opacity="0.72"/>
</g>
<defs>
<clipPath id="clip0_1731_731">
<rect width="11" height="18" fill="white"/>
</clipPath>
</defs>
</svg>
