<svg width="23" height="30" viewBox="0 0 23 30" fill="none" xmlns="http://www.w3.org/2000/svg">
<g id="label-paired / lg / file-shield-lg / regular" clip-path="url(#clip0_1731_5062)">
<path id="icon" d="M12.75 24.25C12.8021 24.25 12.8542 24.25 12.9062 24.25C13.2188 24.5885 13.5573 24.9141 13.9219 25.2266C13.5833 25.4089 13.1927 25.5 12.75 25.5H2.75C2.04688 25.474 1.46094 25.2266 0.992188 24.7578C0.523438 24.2891 0.276042 23.7031 0.25 23V8C0.276042 7.29688 0.523438 6.71094 0.992188 6.24219C1.46094 5.77344 2.04688 5.52604 2.75 5.5H8.84375C9.36458 5.5 9.80729 5.68229 10.1719 6.04688L14.7031 10.5781C15.0677 10.9427 15.25 11.3854 15.25 11.9062V13.5859L14 14.0938V13H9.625C9.10417 12.974 8.66146 12.7917 8.29688 12.4531C7.95833 12.0885 7.77604 11.6458 7.75 11.125V6.75H2.75C2.38542 6.75 2.08594 6.86719 1.85156 7.10156C1.61719 7.33594 1.5 7.63542 1.5 8V23C1.5 23.3646 1.61719 23.6641 1.85156 23.8984C2.08594 24.1328 2.38542 24.25 2.75 24.25H12.75ZM14 11.75C13.9479 11.6458 13.8828 11.5547 13.8047 11.4766L9.27344 6.94531C9.19531 6.86719 9.10417 6.8151 9 6.78906V11.125C9.02604 11.5156 9.23438 11.724 9.625 11.75H14ZM12.75 17.2578C12.75 18.3516 13.0234 19.5234 13.5703 20.7734C14.1172 22.0234 15.0938 23.0651 16.5 23.8984V15.7734L12.75 17.2578ZM21.5 17.2578L17.75 15.7734V23.8984C19.1562 23.0651 20.1328 22.0234 20.6797 20.7734C21.2266 19.5234 21.5 18.3516 21.5 17.2578ZM17.4766 14.3281L22.1641 16.2031C22.5286 16.3594 22.724 16.6458 22.75 17.0625C22.776 17.9219 22.6328 18.8854 22.3203 19.9531C22.0339 21.0208 21.513 22.0495 20.7578 23.0391C19.9766 24.0286 18.8828 24.8229 17.4766 25.4219C17.2422 25.526 17.0078 25.526 16.7734 25.4219C15.3672 24.8229 14.2734 24.0286 13.4922 23.0391C12.737 22.0495 12.2161 21.0208 11.9297 19.9531C11.6172 18.8854 11.474 17.9219 11.5 17.0625C11.526 16.6458 11.7214 16.3594 12.0859 16.2031L16.7734 14.3281C17.0078 14.224 17.2422 14.224 17.4766 14.3281Z" fill="black" fill-opacity="0.72"/>
</g>
<defs>
<clipPath id="clip0_1731_5062">
<rect width="23" height="30" fill="white"/>
</clipPath>
</defs>
</svg>
