<svg width="24" height="36" viewBox="0 0 24 36" fill="none" xmlns="http://www.w3.org/2000/svg">
<g id="label-paired / xl / cash-register-xl / bold" clip-path="url(#clip0_1731_6755)">
<path id="icon" d="M3 6H13.5C13.9375 6 14.2969 6.14062 14.5781 6.42188C14.8594 6.70312 15 7.0625 15 7.5V10.5C15 10.9375 14.8594 11.2969 14.5781 11.5781C14.2969 11.8594 13.9375 12 13.5 12H9.75V13.5H19.875C20.6562 13.5 21.3125 13.75 21.8438 14.25C22.4062 14.7188 22.75 15.3281 22.875 16.0781L23.9531 23.8125C23.9844 23.9375 24 24.0781 24 24.2344V27C23.9688 27.8438 23.6719 28.5469 23.1094 29.1094C22.5469 29.6719 21.8438 29.9688 21 30H3C2.15625 29.9688 1.45312 29.6719 0.890625 29.1094C0.328125 28.5469 0.03125 27.8438 0 27V24.2344C0 24.1406 0 24.0625 0 24C0 23.9375 0.015625 23.875 0.046875 23.8125L1.125 16.0781C1.25 15.3281 1.59375 14.7188 2.15625 14.25C2.6875 13.75 3.34375 13.5 4.125 13.5H6.75V12H3C2.5625 12 2.20312 11.8594 1.92188 11.5781C1.64062 11.2969 1.5 10.9375 1.5 10.5V7.5C1.5 7.0625 1.64062 6.70312 1.92188 6.42188C2.20312 6.14062 2.5625 6 3 6ZM4.5 8.25C4.03125 8.28125 3.78125 8.53125 3.75 9C3.78125 9.46875 4.03125 9.71875 4.5 9.75H12C12.4688 9.71875 12.7188 9.46875 12.75 9C12.7188 8.53125 12.4688 8.28125 12 8.25H4.5ZM2.25 27C2.28125 27.4688 2.53125 27.7188 3 27.75H21C21.4688 27.7188 21.7188 27.4688 21.75 27V26.25H2.25V27ZM20.625 16.4062C20.5625 16 20.3281 15.7812 19.9219 15.75H4.125C3.6875 15.7812 3.4375 16 3.375 16.4062L2.29688 24H21.75L20.625 16.4062ZM5.25 16.875C5.9375 16.9375 6.3125 17.3125 6.375 18C6.3125 18.6875 5.9375 19.0625 5.25 19.125C4.5625 19.0625 4.1875 18.6875 4.125 18C4.1875 17.3125 4.5625 16.9375 5.25 16.875ZM8.625 18C8.6875 17.3125 9.0625 16.9375 9.75 16.875C10.4375 16.9375 10.8125 17.3125 10.875 18C10.8125 18.6875 10.4375 19.0625 9.75 19.125C9.0625 19.0625 8.6875 18.6875 8.625 18ZM7.5 20.625C8.1875 20.6875 8.5625 21.0625 8.625 21.75C8.5625 22.4375 8.1875 22.8125 7.5 22.875C6.8125 22.8125 6.4375 22.4375 6.375 21.75C6.4375 21.0625 6.8125 20.6875 7.5 20.625ZM13.125 18C13.1875 17.3125 13.5625 16.9375 14.25 16.875C14.9375 16.9375 15.3125 17.3125 15.375 18C15.3125 18.6875 14.9375 19.0625 14.25 19.125C13.5625 19.0625 13.1875 18.6875 13.125 18ZM12 20.625C12.6875 20.6875 13.0625 21.0625 13.125 21.75C13.0625 22.4375 12.6875 22.8125 12 22.875C11.3125 22.8125 10.9375 22.4375 10.875 21.75C10.9375 21.0625 11.3125 20.6875 12 20.625ZM17.625 18C17.6875 17.3125 18.0625 16.9375 18.75 16.875C19.4375 16.9375 19.8125 17.3125 19.875 18C19.8125 18.6875 19.4375 19.0625 18.75 19.125C18.0625 19.0625 17.6875 18.6875 17.625 18ZM16.5 20.625C17.1875 20.6875 17.5625 21.0625 17.625 21.75C17.5625 22.4375 17.1875 22.8125 16.5 22.875C15.8125 22.8125 15.4375 22.4375 15.375 21.75C15.4375 21.0625 15.8125 20.6875 16.5 20.625Z" fill="black" fill-opacity="0.72"/>
</g>
<defs>
<clipPath id="clip0_1731_6755">
<rect width="24" height="36" fill="white"/>
</clipPath>
</defs>
</svg>
