<svg width="24" height="36" viewBox="0 0 24 36" fill="none" xmlns="http://www.w3.org/2000/svg">
<g id="label-paired / xl / wallet-xl / bold" clip-path="url(#clip0_1731_6695)">
<path id="icon" d="M4.125 7.5H21.375C22.0625 7.5625 22.4375 7.9375 22.5 8.625C22.4375 9.3125 22.0625 9.6875 21.375 9.75H4.125C3.59375 9.75 3.15625 9.9375 2.8125 10.3125C2.4375 10.6562 2.25 11.0938 2.25 11.625V24.375C2.25 24.9062 2.4375 25.3438 2.8125 25.6875C3.15625 26.0625 3.59375 26.25 4.125 26.25H19.875C20.4062 26.25 20.8438 26.0625 21.1875 25.6875C21.5625 25.3438 21.75 24.9062 21.75 24.375V16.125C21.75 15.5938 21.5625 15.1562 21.1875 14.8125C20.8438 14.4375 20.4062 14.25 19.875 14.25H5.625C4.9375 14.1875 4.5625 13.8125 4.5 13.125C4.5625 12.4375 4.9375 12.0625 5.625 12H19.875C21.0312 12.0312 22 12.4375 22.7812 13.2188C23.5625 14 23.9688 14.9688 24 16.125V24.375C23.9688 25.5312 23.5625 26.5 22.7812 27.2812C22 28.0625 21.0312 28.4688 19.875 28.5H4.125C2.96875 28.4688 2 28.0625 1.21875 27.2812C0.4375 26.5 0.03125 25.5312 0 24.375V11.625C0.03125 10.4688 0.4375 9.5 1.21875 8.71875C2 7.9375 2.96875 7.53125 4.125 7.5ZM18 21.75C17.5625 21.75 17.2031 21.6094 16.9219 21.3281C16.6406 21.0469 16.5 20.6875 16.5 20.25C16.5 19.8125 16.6406 19.4531 16.9219 19.1719C17.2031 18.8906 17.5625 18.75 18 18.75C18.4375 18.75 18.7969 18.8906 19.0781 19.1719C19.3594 19.4531 19.5 19.8125 19.5 20.25C19.5 20.6875 19.3594 21.0469 19.0781 21.3281C18.7969 21.6094 18.4375 21.75 18 21.75Z" fill="black" fill-opacity="0.72"/>
</g>
<defs>
<clipPath id="clip0_1731_6695">
<rect width="24" height="36" fill="white"/>
</clipPath>
</defs>
</svg>
