<svg width="21" height="36" viewBox="0 0 21 36" fill="none" xmlns="http://www.w3.org/2000/svg">
<g id="label-paired / xl / arrow-right-xl / bold" clip-path="url(#clip0_1731_5868)">
<path id="icon" d="M20.6719 18.7969L12.4219 26.6719C11.8594 27.1094 11.3281 27.1094 10.8281 26.6719C10.3906 26.1094 10.3906 25.5781 10.8281 25.0781L17.0625 19.125H1.125C0.4375 19.0625 0.0625 18.6875 0 18C0.0625 17.3125 0.4375 16.9375 1.125 16.875H17.0625L10.875 10.9219C10.4062 10.4219 10.3906 9.89062 10.8281 9.32812C11.3281 8.89062 11.8594 8.89062 12.4219 9.32812L20.6719 17.2031C20.8906 17.4219 21 17.6875 21 18C21 18.3125 20.8906 18.5781 20.6719 18.7969Z" fill="black" fill-opacity="0.72"/>
</g>
<defs>
<clipPath id="clip0_1731_5868">
<rect width="21" height="36" fill="white"/>
</clipPath>
</defs>
</svg>
