<svg width="12" height="18" viewBox="0 0 12 18" fill="none" xmlns="http://www.w3.org/2000/svg">
<g id="label-paired / caption / sun-bright-caption / regular" clip-path="url(#clip0_1731_734)">
<path id="icon" d="M6 3.5C6.23438 3.51563 6.35938 3.64062 6.375 3.875V5.75C6.35938 5.98438 6.23438 6.10938 6 6.125C5.76562 6.10938 5.64062 5.98438 5.625 5.75V3.875C5.64062 3.64062 5.76562 3.51563 6 3.5ZM0 9.5C0.015625 9.26562 0.140625 9.14062 0.375 9.125H2.25C2.48438 9.14062 2.60938 9.26562 2.625 9.5C2.60938 9.73438 2.48438 9.85938 2.25 9.875H0.375C0.140625 9.85938 0.015625 9.73438 0 9.5ZM9.375 9.5C9.39062 9.26562 9.51562 9.14062 9.75 9.125H11.625C11.8594 9.14062 11.9844 9.26562 12 9.5C11.9844 9.73438 11.8594 9.85938 11.625 9.875H9.75C9.51562 9.85938 9.39062 9.73438 9.375 9.5ZM6 12.875C6.23438 12.8906 6.35938 13.0156 6.375 13.25V15.125C6.35938 15.3594 6.23438 15.4844 6 15.5C5.76562 15.4844 5.64062 15.3594 5.625 15.125V13.25C5.64062 13.0156 5.76562 12.8906 6 12.875ZM1.75781 5.25781C1.92969 5.11719 2.10938 5.11719 2.29688 5.25781L3.60938 6.59375C3.75 6.76562 3.75 6.9375 3.60938 7.10938C3.4375 7.26562 3.26562 7.26562 3.09375 7.10938L1.75781 5.79688C1.61719 5.60938 1.61719 5.42969 1.75781 5.25781ZM1.75781 13.7422C1.61719 13.5703 1.61719 13.3906 1.75781 13.2031L3.09375 11.8906C3.26562 11.75 3.4375 11.75 3.60938 11.8906C3.76562 12.0625 3.76562 12.2344 3.60938 12.4062L2.29688 13.7422C2.10938 13.8828 1.92969 13.8828 1.75781 13.7422ZM8.39062 7.10938C8.25 6.9375 8.25 6.76562 8.39062 6.59375L9.70312 5.25781C9.89062 5.11719 10.0703 5.11719 10.2422 5.25781C10.3828 5.42969 10.3828 5.60938 10.2422 5.79688L8.90625 7.10938C8.73438 7.25 8.5625 7.25 8.39062 7.10938ZM8.39062 11.8906C8.5625 11.75 8.73438 11.75 8.90625 11.8906L10.2422 13.2031C10.3828 13.3906 10.3828 13.5703 10.2422 13.7422C10.0703 13.8828 9.89062 13.8828 9.70312 13.7422L8.39062 12.4062C8.25 12.2344 8.25 12.0625 8.39062 11.8906ZM7.875 9.5C7.85938 8.79688 7.54688 8.25781 6.9375 7.88281C6.3125 7.53906 5.6875 7.53906 5.0625 7.88281C4.45312 8.25781 4.14062 8.79688 4.125 9.5C4.14062 10.2031 4.45312 10.7422 5.0625 11.1172C5.6875 11.4609 6.3125 11.4609 6.9375 11.1172C7.54688 10.7422 7.85938 10.2031 7.875 9.5ZM3.375 9.5C3.375 9.03125 3.49219 8.59375 3.72656 8.1875C3.96094 7.78125 4.28125 7.46094 4.6875 7.22656C5.09375 6.99219 5.53125 6.875 6 6.875C6.46875 6.875 6.90625 6.99219 7.3125 7.22656C7.71875 7.46094 8.03906 7.78125 8.27344 8.1875C8.50781 8.59375 8.625 9.03125 8.625 9.5C8.625 9.96875 8.50781 10.4062 8.27344 10.8125C8.03906 11.2188 7.71875 11.5391 7.3125 11.7734C6.90625 12.0078 6.46875 12.125 6 12.125C5.53125 12.125 5.09375 12.0078 4.6875 11.7734C4.28125 11.5391 3.96094 11.2188 3.72656 10.8125C3.49219 10.4062 3.375 9.96875 3.375 9.5Z" fill="black" fill-opacity="0.72"/>
</g>
<defs>
<clipPath id="clip0_1731_734">
<rect width="12" height="18" fill="white"/>
</clipPath>
</defs>
</svg>
