<svg width="14" height="22" viewBox="0 0 14 22" fill="none" xmlns="http://www.w3.org/2000/svg">
<g id="label-paired / sm / grid-2-sm / bold" clip-path="url(#clip0_1923_532)">
<path id="icon" d="M2.1875 5.9375V8.5625H4.8125V5.9375H2.1875ZM0.875 5.9375C0.893229 5.57292 1.02083 5.26302 1.25781 5.00781C1.51302 4.77083 1.82292 4.64323 2.1875 4.625H4.8125C5.17708 4.64323 5.48698 4.77083 5.74219 5.00781C5.97917 5.26302 6.10677 5.57292 6.125 5.9375V8.5625C6.10677 8.92708 5.97917 9.23698 5.74219 9.49219C5.48698 9.72917 5.17708 9.85677 4.8125 9.875H2.1875C1.82292 9.85677 1.51302 9.72917 1.25781 9.49219C1.02083 9.23698 0.893229 8.92708 0.875 8.5625V5.9375ZM2.1875 12.9375V15.5625H4.8125V12.9375H2.1875ZM0.875 12.9375C0.893229 12.5729 1.02083 12.263 1.25781 12.0078C1.51302 11.7708 1.82292 11.6432 2.1875 11.625H4.8125C5.17708 11.6432 5.48698 11.7708 5.74219 12.0078C5.97917 12.263 6.10677 12.5729 6.125 12.9375V15.5625C6.10677 15.9271 5.97917 16.237 5.74219 16.4922C5.48698 16.7292 5.17708 16.8568 4.8125 16.875H2.1875C1.82292 16.8568 1.51302 16.7292 1.25781 16.4922C1.02083 16.237 0.893229 15.9271 0.875 15.5625V12.9375ZM11.8125 5.9375H9.1875V8.5625H11.8125V5.9375ZM9.1875 4.625H11.8125C12.1771 4.64323 12.487 4.77083 12.7422 5.00781C12.9792 5.26302 13.1068 5.57292 13.125 5.9375V8.5625C13.1068 8.92708 12.9792 9.23698 12.7422 9.49219C12.487 9.72917 12.1771 9.85677 11.8125 9.875H9.1875C8.82292 9.85677 8.51302 9.72917 8.25781 9.49219C8.02083 9.23698 7.89323 8.92708 7.875 8.5625V5.9375C7.89323 5.57292 8.02083 5.26302 8.25781 5.00781C8.51302 4.77083 8.82292 4.64323 9.1875 4.625ZM9.1875 12.9375V15.5625H11.8125V12.9375H9.1875ZM7.875 12.9375C7.89323 12.5729 8.02083 12.263 8.25781 12.0078C8.51302 11.7708 8.82292 11.6432 9.1875 11.625H11.8125C12.1771 11.6432 12.487 11.7708 12.7422 12.0078C12.9792 12.263 13.1068 12.5729 13.125 12.9375V15.5625C13.1068 15.9271 12.9792 16.237 12.7422 16.4922C12.487 16.7292 12.1771 16.8568 11.8125 16.875H9.1875C8.82292 16.8568 8.51302 16.7292 8.25781 16.4922C8.02083 16.237 7.89323 15.9271 7.875 15.5625V12.9375Z" fill="black" fill-opacity="0.72"/>
</g>
<defs>
<clipPath id="clip0_1923_532">
<rect width="14" height="22" fill="white"/>
</clipPath>
</defs>
</svg>
