<svg width="12" height="18" viewBox="0 0 12 18" fill="none" xmlns="http://www.w3.org/2000/svg">
<g id="label-paired / caption / circle-three-caption / regular" clip-path="url(#clip0_1731_1055)">
<path id="icon" d="M6 4.25C5.04688 4.26562 4.17188 4.5 3.375 4.95312C2.57812 5.42188 1.9375 6.0625 1.45312 6.875C0.984375 7.70312 0.75 8.57812 0.75 9.5C0.75 10.4219 0.984375 11.2969 1.45312 12.125C1.9375 12.9375 2.57812 13.5781 3.375 14.0469C4.17188 14.5 5.04688 14.7344 6 14.75C6.95312 14.7344 7.82812 14.5 8.625 14.0469C9.42188 13.5781 10.0625 12.9375 10.5469 12.125C11.0156 11.2969 11.25 10.4219 11.25 9.5C11.25 8.57812 11.0156 7.70312 10.5469 6.875C10.0625 6.0625 9.42188 5.42188 8.625 4.95312C7.82812 4.5 6.95312 4.26562 6 4.25ZM6 15.5C4.90625 15.4844 3.90625 15.2188 3 14.7031C2.09375 14.1719 1.35938 13.4375 0.796875 12.5C0.265625 11.5469 0 10.5469 0 9.5C0 8.45312 0.265625 7.45312 0.796875 6.5C1.35938 5.5625 2.09375 4.82812 3 4.29688C3.90625 3.78125 4.90625 3.51563 6 3.5C7.09375 3.51563 8.09375 3.78125 9 4.29688C9.90625 4.82812 10.6406 5.5625 11.2031 6.5C11.7344 7.45312 12 8.45312 12 9.5C12 10.5469 11.7344 11.5469 11.2031 12.5C10.6406 13.4375 9.90625 14.1719 9 14.7031C8.09375 15.2188 7.09375 15.4844 6 15.5ZM4.125 6.5H7.5C7.67188 6.51562 7.78906 6.59375 7.85156 6.73438C7.89844 6.90625 7.85938 7.04688 7.73438 7.15625L5.88281 8.75H6.35156C6.89844 8.75 7.34375 8.92969 7.6875 9.28906C8.04688 9.64844 8.23438 10.0938 8.25 10.625C8.23438 11.1562 8.04688 11.6016 7.6875 11.9609C7.34375 12.3047 6.90625 12.4844 6.375 12.5H5.53125C4.84375 12.4844 4.29688 12.2109 3.89062 11.6797L3.82031 11.6094C3.69531 11.4062 3.71875 11.2266 3.89062 11.0703C4.09375 10.9609 4.27344 10.9922 4.42969 11.1641L4.47656 11.2344C4.74219 11.5781 5.09375 11.75 5.53125 11.75H6.375C6.6875 11.75 6.95312 11.6406 7.17188 11.4219C7.375 11.2031 7.48438 10.9375 7.5 10.625C7.48438 10.2969 7.375 10.0312 7.17188 9.82812C6.95312 9.60938 6.6875 9.5 6.375 9.5H4.875C4.70312 9.48438 4.58594 9.40625 4.52344 9.26562C4.47656 9.09375 4.51562 8.95312 4.64062 8.84375L6.49219 7.25H4.125C3.89062 7.23438 3.76562 7.10938 3.75 6.875C3.76562 6.64062 3.89062 6.51562 4.125 6.5Z" fill="black" fill-opacity="0.72"/>
</g>
<defs>
<clipPath id="clip0_1731_1055">
<rect width="12" height="18" fill="white"/>
</clipPath>
</defs>
</svg>
