<svg width="14" height="24" viewBox="0 0 14 24" fill="none" xmlns="http://www.w3.org/2000/svg">
<g id="label-paired / md / arrow-up-from-bracket-md / bold" clip-path="url(#clip0_1731_3157)">
<path id="icon" d="M7.53125 4.21875L11.5312 8.21875C11.8229 8.57292 11.8229 8.92708 11.5312 9.28125C11.1771 9.57292 10.8229 9.57292 10.4688 9.28125L7.75 6.5625V14.25C7.70833 14.7083 7.45833 14.9583 7 15C6.54167 14.9583 6.29167 14.7083 6.25 14.25V6.5625L3.53125 9.28125C3.17708 9.57292 2.82292 9.57292 2.46875 9.28125C2.17708 8.92708 2.17708 8.57292 2.46875 8.21875L6.46875 4.21875C6.82292 3.92708 7.17708 3.92708 7.53125 4.21875ZM1.5 14.75V17.25C1.5 17.6042 1.625 17.8958 1.875 18.125C2.10417 18.375 2.39583 18.5 2.75 18.5H11.25C11.6042 18.5 11.8958 18.375 12.125 18.125C12.375 17.8958 12.5 17.6042 12.5 17.25V14.75C12.5417 14.2917 12.7917 14.0417 13.25 14C13.7083 14.0417 13.9583 14.2917 14 14.75V17.25C13.9792 18.0208 13.7083 18.6667 13.1875 19.1875C12.6667 19.7083 12.0208 19.9792 11.25 20H2.75C1.97917 19.9792 1.33333 19.7083 0.8125 19.1875C0.291667 18.6667 0.0208333 18.0208 0 17.25V14.75C0.0416667 14.2917 0.291667 14.0417 0.75 14C1.20833 14.0417 1.45833 14.2917 1.5 14.75Z" fill="black" fill-opacity="0.72"/>
</g>
<defs>
<clipPath id="clip0_1731_3157">
<rect width="14" height="24" fill="white"/>
</clipPath>
</defs>
</svg>
