<svg width="21" height="36" viewBox="0 0 21 36" fill="none" xmlns="http://www.w3.org/2000/svg">
<g id="label-paired / xl / arrow-right-to-line-xl / bold" clip-path="url(#clip0_1731_5948)">
<path id="icon" d="M21 10.125V25.875C20.9375 26.5625 20.5625 26.9375 19.875 27C19.1875 26.9375 18.8125 26.5625 18.75 25.875V10.125C18.8125 9.4375 19.1875 9.0625 19.875 9C20.5625 9.0625 20.9375 9.4375 21 10.125ZM14.625 18.8438L14.6719 18.7969L8.29688 24.7969C7.73438 25.2344 7.20312 25.2188 6.70312 24.75C6.26562 24.2188 6.28125 23.7031 6.75 23.2031L11.0625 19.125H7.125H1.125C0.4375 19.0625 0.0625 18.6875 0 18C0.0625 17.3125 0.4375 16.9375 1.125 16.875H7.125H11.0625L6.75 12.7969C6.28125 12.2969 6.26562 11.7812 6.70312 11.25C7.20312 10.7812 7.71875 10.7656 8.25 11.2031L14.625 17.2031C14.875 17.4219 15 17.6875 15 18C15 18.3125 14.875 18.5938 14.625 18.8438Z" fill="black" fill-opacity="0.72"/>
</g>
<defs>
<clipPath id="clip0_1731_5948">
<rect width="21" height="36" fill="white"/>
</clipPath>
</defs>
</svg>
