<svg width="13" height="22" viewBox="0 0 13 22" fill="none" xmlns="http://www.w3.org/2000/svg">
<g id="label-paired / sm / bars-filter-sm / bold" clip-path="url(#clip0_1731_2411)">
<path id="icon" d="M0.375 6.15625C0.411458 5.75521 0.630208 5.53646 1.03125 5.5H11.9688C12.3698 5.53646 12.5885 5.75521 12.625 6.15625C12.5885 6.55729 12.3698 6.77604 11.9688 6.8125H1.03125C0.630208 6.77604 0.411458 6.55729 0.375 6.15625ZM2.125 10.5312C2.16146 10.1302 2.38021 9.91146 2.78125 9.875H10.2188C10.6198 9.91146 10.8385 10.1302 10.875 10.5312C10.8385 10.9323 10.6198 11.151 10.2188 11.1875H2.78125C2.38021 11.151 2.16146 10.9323 2.125 10.5312ZM8.25 14.9062C8.21354 15.3073 7.99479 15.526 7.59375 15.5625H5.40625C5.00521 15.526 4.78646 15.3073 4.75 14.9062C4.78646 14.5052 5.00521 14.2865 5.40625 14.25H7.59375C7.99479 14.2865 8.21354 14.5052 8.25 14.9062Z" fill="black" fill-opacity="0.72"/>
</g>
<defs>
<clipPath id="clip0_1731_2411">
<rect width="13" height="22" fill="white"/>
</clipPath>
</defs>
</svg>
