<svg width="20" height="30" viewBox="0 0 20 30" fill="none" xmlns="http://www.w3.org/2000/svg">
<g id="label-paired / lg / envelope-lg / regular" clip-path="url(#clip0_1731_4766)">
<path id="icon" d="M2.5 9.25C2.13542 9.25 1.83594 9.36719 1.60156 9.60156C1.36719 9.83594 1.25 10.1354 1.25 10.5V12.0625L8.90625 17.6484C9.63542 18.1432 10.3646 18.1432 11.0938 17.6484L18.75 12.0625V10.5C18.75 10.1354 18.6328 9.83594 18.3984 9.60156C18.1641 9.36719 17.8646 9.25 17.5 9.25H2.5ZM1.25 13.625V20.5C1.25 20.8646 1.36719 21.1641 1.60156 21.3984C1.83594 21.6328 2.13542 21.75 2.5 21.75H17.5C17.8646 21.75 18.1641 21.6328 18.3984 21.3984C18.6328 21.1641 18.75 20.8646 18.75 20.5V13.625L11.8359 18.6641C11.2891 19.0807 10.6771 19.2891 10 19.2891C9.32292 19.2891 8.71094 19.0807 8.16406 18.6641L1.25 13.625ZM0 10.5C0.0260417 9.79688 0.273438 9.21094 0.742188 8.74219C1.21094 8.27344 1.79688 8.02604 2.5 8H17.5C18.2031 8.02604 18.7891 8.27344 19.2578 8.74219C19.7266 9.21094 19.974 9.79688 20 10.5V20.5C19.974 21.2031 19.7266 21.7891 19.2578 22.2578C18.7891 22.7266 18.2031 22.974 17.5 23H2.5C1.79688 22.974 1.21094 22.7266 0.742188 22.2578C0.273438 21.7891 0.0260417 21.2031 0 20.5V10.5Z" fill="black" fill-opacity="0.72"/>
</g>
<defs>
<clipPath id="clip0_1731_4766">
<rect width="20" height="30" fill="white"/>
</clipPath>
</defs>
</svg>
