<svg width="30" height="36" viewBox="0 0 30 36" fill="none" xmlns="http://www.w3.org/2000/svg">
<g id="label-paired / xl / huawei-app-gallery-xl" clip-path="url(#clip0_1731_14122)">
<path id="icon" d="M13.7812 18.8438L13.3594 19.9219L13.3125 20.0156H14.2969L14.25 19.9219L13.7812 18.8438ZM21.375 6C24.4688 6 27 8.53125 27 11.625V24.4219C27 27.5156 24.4688 30 21.375 30H8.57812C5.48438 30 3 27.5156 3 24.4219V11.625C3 8.53125 5.48438 6 8.57812 6H21.375ZM17.2969 18L16.5938 20.25L15.8906 18H15.2344L16.3125 21.2812H16.875L17.5781 19.125L18.2812 21.2812H18.7969L19.9219 18H19.2656L18.5625 20.25L17.8594 18H17.2969ZM13.5469 18L12.1406 21.2812H12.7969L13.0781 20.6719V20.625H14.5312L14.8125 21.2812H15.4688L14.1094 18.0469V18H13.5469ZM23.5312 18V21.2812H24.1875V18H23.5312ZM5.53125 18V21.2812H6.1875V19.9688H7.59375V21.2812H8.25V18H7.59375V19.3594H6.1875V18H5.53125ZM11.2031 18V18.0469V19.875C11.2031 20.4375 10.9219 20.7188 10.5 20.7188C10.0312 20.7188 9.75 20.4375 9.75 19.875V18.0469H9.14062V19.875C9.14062 20.8125 9.60938 21.3281 10.4531 21.3281C11.3438 21.3281 11.8125 20.8125 11.8125 19.875V18H11.2031ZM20.4375 18V18.0469V21.2812H22.7812V20.6719H21.0469V19.875H22.2188V19.2656H21.0469V18.6094H22.7344V18H20.4375ZM10.5938 9.84375C10.5938 12.1406 12.5156 13.9688 14.8594 13.9688C17.2031 13.9688 19.125 12.1406 19.125 9.84375H18.5156C18.5156 11.8125 16.875 13.3594 14.8594 13.3594C12.8438 13.3594 11.2031 11.8125 11.2031 9.84375H10.5938Z" fill="black" fill-opacity="0.72"/>
</g>
<defs>
<clipPath id="clip0_1731_14122">
<rect width="30" height="36" fill="white"/>
</clipPath>
</defs>
</svg>
