<svg width="16" height="24" viewBox="0 0 16 24" fill="none" xmlns="http://www.w3.org/2000/svg">
<g id="label-paired / md / chart-line-md / regular" clip-path="url(#clip0_1731_3763)">
<path id="icon" d="M1 5.5V16.5C1.02083 16.9167 1.16667 17.2708 1.4375 17.5625C1.72917 17.8333 2.08333 17.9792 2.5 18H15.5C15.8125 18.0208 15.9792 18.1875 16 18.5C15.9792 18.8125 15.8125 18.9792 15.5 19H2.5C1.79167 18.9792 1.19792 18.7396 0.71875 18.2812C0.260417 17.8021 0.0208333 17.2083 0 16.5V5.5C0.0208333 5.1875 0.1875 5.02083 0.5 5C0.8125 5.02083 0.979167 5.1875 1 5.5ZM14.8438 8.84375L10.3438 13.3438C10.1146 13.5521 9.88542 13.5521 9.65625 13.3438L7 10.7188L3.84375 13.8438C3.61458 14.0521 3.38542 14.0521 3.15625 13.8438C2.94792 13.6146 2.94792 13.3854 3.15625 13.1562L6.65625 9.65625C6.88542 9.44792 7.11458 9.44792 7.34375 9.65625L10 12.2812L14.1562 8.15625C14.3854 7.94792 14.6146 7.94792 14.8438 8.15625C15.0521 8.38542 15.0521 8.61458 14.8438 8.84375Z" fill="black" fill-opacity="0.72"/>
</g>
<defs>
<clipPath id="clip0_1731_3763">
<rect width="16" height="24" fill="white"/>
</clipPath>
</defs>
</svg>
