<svg width="14" height="22" viewBox="0 0 14 22" fill="none" xmlns="http://www.w3.org/2000/svg">
<g id="label-paired / sm / circle-arrow-down-right-sm / bold" clip-path="url(#clip0_1731_2214)">
<path id="icon" d="M7 16.4375C8.03906 16.4375 8.98698 16.1823 9.84375 15.6719C10.7005 15.1797 11.3932 14.487 11.9219 13.5938C12.4323 12.7005 12.6875 11.7526 12.6875 10.75C12.6875 9.7474 12.4323 8.79948 11.9219 7.90625C11.3932 7.01302 10.7005 6.32031 9.84375 5.82812C8.98698 5.31771 8.03906 5.0625 7 5.0625C5.96094 5.0625 5.01302 5.31771 4.15625 5.82812C3.29948 6.32031 2.60677 7.01302 2.07812 7.90625C1.56771 8.79948 1.3125 9.7474 1.3125 10.75C1.3125 11.7526 1.56771 12.7005 2.07812 13.5938C2.60677 14.487 3.29948 15.1797 4.15625 15.6719C5.01302 16.1823 5.96094 16.4375 7 16.4375ZM7 3.75C8.27604 3.76823 9.44271 4.07812 10.5 4.67969C11.5573 5.29948 12.4141 6.15625 13.0703 7.25C13.6901 8.36198 14 9.52865 14 10.75C14 11.9714 13.6901 13.138 13.0703 14.25C12.4141 15.3438 11.5573 16.2005 10.5 16.8203C9.44271 17.4219 8.27604 17.7318 7 17.75C5.72396 17.7318 4.55729 17.4219 3.5 16.8203C2.44271 16.2005 1.58594 15.3438 0.929688 14.25C0.309896 13.138 0 11.9714 0 10.75C0 9.52865 0.309896 8.36198 0.929688 7.25C1.58594 6.15625 2.44271 5.29948 3.5 4.67969C4.55729 4.07812 5.72396 3.76823 7 3.75ZM5.25 13.8125C4.84896 13.776 4.63021 13.5573 4.59375 13.1562C4.63021 12.7552 4.84896 12.5365 5.25 12.5H7.82031L4.12891 8.80859C3.8737 8.4987 3.8737 8.1888 4.12891 7.87891C4.4388 7.6237 4.7487 7.6237 5.05859 7.87891L8.75 11.5703V8.78125C8.78646 8.38021 9.00521 8.16146 9.40625 8.125C9.80729 8.16146 10.026 8.38021 10.0625 8.78125V13.1562C10.026 13.5573 9.80729 13.776 9.40625 13.8125H5.25Z" fill="black" fill-opacity="0.72"/>
</g>
<defs>
<clipPath id="clip0_1731_2214">
<rect width="14" height="22" fill="white"/>
</clipPath>
</defs>
</svg>
