<svg width="11" height="22" viewBox="0 0 11 22" fill="none" xmlns="http://www.w3.org/2000/svg">
<g id="label-paired / sm / microphone-sm / bold" clip-path="url(#clip0_1731_2829)">
<path id="icon" d="M6.8125 6.375C6.79427 6.01042 6.66667 5.70052 6.42969 5.44531C6.17448 5.20833 5.86458 5.08073 5.5 5.0625C5.13542 5.08073 4.82552 5.20833 4.57031 5.44531C4.33333 5.70052 4.20573 6.01042 4.1875 6.375V10.75C4.20573 11.1146 4.33333 11.4245 4.57031 11.6797C4.82552 11.9167 5.13542 12.0443 5.5 12.0625C5.86458 12.0443 6.17448 11.9167 6.42969 11.6797C6.66667 11.4245 6.79427 11.1146 6.8125 10.75V6.375ZM2.875 6.375C2.89323 5.6276 3.14844 5.00781 3.64062 4.51562C4.13281 4.02344 4.7526 3.76823 5.5 3.75C6.2474 3.76823 6.86719 4.02344 7.35938 4.51562C7.85156 5.00781 8.10677 5.6276 8.125 6.375V10.75C8.10677 11.4974 7.85156 12.1172 7.35938 12.6094C6.86719 13.1016 6.2474 13.3568 5.5 13.375C4.7526 13.3568 4.13281 13.1016 3.64062 12.6094C3.14844 12.1172 2.89323 11.4974 2.875 10.75V6.375ZM2 9.65625V10.75C2.01823 11.7344 2.35547 12.5638 3.01172 13.2383C3.6862 13.8945 4.51562 14.2318 5.5 14.25C6.48438 14.2318 7.3138 13.8945 7.98828 13.2383C8.64453 12.5638 8.98177 11.7344 9 10.75V9.65625C9.03646 9.25521 9.25521 9.03646 9.65625 9C10.0573 9.03646 10.276 9.25521 10.3125 9.65625V10.75C10.2943 11.9896 9.89323 13.0469 9.10938 13.9219C8.34375 14.7969 7.35938 15.3255 6.15625 15.5078V16.4375H7.46875C7.86979 16.474 8.08854 16.6927 8.125 17.0938C8.08854 17.4948 7.86979 17.7135 7.46875 17.75H5.5H3.53125C3.13021 17.7135 2.91146 17.4948 2.875 17.0938C2.91146 16.6927 3.13021 16.474 3.53125 16.4375H4.84375V15.5078C3.64062 15.3255 2.65625 14.7969 1.89062 13.9219C1.10677 13.0469 0.705729 11.9896 0.6875 10.75V9.65625C0.723958 9.25521 0.942708 9.03646 1.34375 9C1.74479 9.03646 1.96354 9.25521 2 9.65625Z" fill="black" fill-opacity="0.72"/>
</g>
<defs>
<clipPath id="clip0_1731_2829">
<rect width="11" height="22" fill="white"/>
</clipPath>
</defs>
</svg>
