<svg width="18" height="22" viewBox="0 0 18 22" fill="none" xmlns="http://www.w3.org/2000/svg">
<g id="label-paired / sm / hands-holding-diamond-sm / bold" clip-path="url(#clip0_1731_2865)">
<path id="icon" d="M8.37109 3.99609C8.55339 3.83203 8.76302 3.75 9 3.75C9.23698 3.75 9.44661 3.83203 9.62891 3.99609L12.2539 6.62109C12.418 6.80339 12.5 7.01302 12.5 7.25C12.5 7.48698 12.418 7.69661 12.2539 7.87891L9.62891 10.5039C9.44661 10.668 9.23698 10.75 9 10.75C8.76302 10.75 8.55339 10.668 8.37109 10.5039L5.74609 7.87891C5.58203 7.69661 5.5 7.48698 5.5 7.25C5.5 7.01302 5.58203 6.80339 5.74609 6.62109L8.37109 3.99609ZM2.21875 5.5C2.78385 5.51823 3.2487 5.70964 3.61328 6.07422C3.97786 6.4388 4.16927 6.90365 4.1875 7.46875V10.9961C4.53385 10.7044 4.94401 10.5495 5.41797 10.5312C5.94661 10.5312 6.39323 10.7135 6.75781 11.0781L8.45312 12.7734C8.65365 12.974 8.83594 13.2018 9 13.457C9.16406 13.2018 9.35547 12.974 9.57422 12.7734L11.2422 11.0781C11.6068 10.7135 12.0534 10.5312 12.582 10.5312C13.056 10.5495 13.4661 10.7044 13.8125 10.9961V7.46875C13.8307 6.90365 14.0221 6.4388 14.3867 6.07422C14.7695 5.70964 15.2344 5.51823 15.7812 5.5C16.3464 5.51823 16.8112 5.70964 17.1758 6.07422C17.5404 6.4388 17.7318 6.90365 17.75 7.46875V13.375C17.75 14.2865 17.431 15.0612 16.793 15.6992L14.9336 17.5586C14.6237 17.8138 14.3138 17.8138 14.0039 17.5586C13.7487 17.2487 13.7487 16.9388 14.0039 16.6289L15.8633 14.7695C16.2461 14.3867 16.4375 13.9219 16.4375 13.375V7.46875C16.401 7.06771 16.1823 6.84896 15.7812 6.8125C15.3802 6.84896 15.1615 7.06771 15.125 7.46875V11.4609C15.125 12.1901 14.8698 12.8099 14.3594 13.3203L13.9219 13.7578L13.1836 14.4961L12.7461 14.9336C12.4362 15.1888 12.1263 15.1888 11.8164 14.9336C11.5612 14.6237 11.5612 14.3138 11.8164 14.0039L12.2539 13.5664L12.9922 12.8281C13.1016 12.7188 13.1562 12.582 13.1562 12.418C13.1198 12.0716 12.9284 11.8802 12.582 11.8438C12.418 11.8438 12.2812 11.8984 12.1719 12.0078L10.4766 13.7031C9.94792 14.25 9.67448 14.9154 9.65625 15.6992V17.0938C9.61979 17.4948 9.40104 17.7135 9 17.75C8.59896 17.7135 8.38021 17.4948 8.34375 17.0938V15.6992C8.32552 14.9154 8.05208 14.25 7.52344 13.7031L5.82812 12.0078C5.71875 11.8984 5.58203 11.8438 5.41797 11.8438C5.07161 11.8802 4.88021 12.0716 4.84375 12.418C4.84375 12.582 4.89844 12.7188 5.00781 12.8281L5.74609 13.5664L6.18359 14.0039C6.4388 14.3138 6.4388 14.6237 6.18359 14.9336C5.8737 15.1888 5.5638 15.1888 5.25391 14.9336L4.81641 14.4961L4.07812 13.7578L3.66797 13.3203C3.15755 12.8099 2.89323 12.1901 2.875 11.4609V7.46875C2.83854 7.06771 2.61979 6.84896 2.21875 6.8125C1.81771 6.84896 1.59896 7.06771 1.5625 7.46875V13.375C1.5625 13.9219 1.75391 14.3867 2.13672 14.7695L3.99609 16.6289C4.2513 16.9388 4.2513 17.2487 3.99609 17.5586C3.6862 17.8138 3.3763 17.8138 3.06641 17.5586L1.20703 15.6992C0.58724 15.0612 0.268229 14.2865 0.25 13.375V7.46875C0.268229 6.90365 0.459635 6.4388 0.824219 6.07422C1.1888 5.70964 1.65365 5.51823 2.21875 5.5Z" fill="black" fill-opacity="0.72"/>
</g>
<defs>
<clipPath id="clip0_1731_2865">
<rect width="18" height="22" fill="white"/>
</clipPath>
</defs>
</svg>
