<svg width="9" height="22" viewBox="0 0 9 22" fill="none" xmlns="http://www.w3.org/2000/svg">
<g id="label-paired / sm / five-sm / regular" clip-path="url(#clip0_1731_2273)">
<path id="icon" d="M1.46484 4.95312C1.51953 4.7526 1.65625 4.64323 1.875 4.625H7.5625C7.83594 4.64323 7.98177 4.78906 8 5.0625C7.98177 5.33594 7.83594 5.48177 7.5625 5.5H2.23047L1.13672 9.875H5.375C6.35938 9.89323 7.1888 10.2305 7.86328 10.8867C8.51953 11.5612 8.85677 12.3906 8.875 13.375C8.85677 14.3594 8.51953 15.1888 7.86328 15.8633C7.1888 16.5195 6.35938 16.8568 5.375 16.875H2.44922C1.97526 16.875 1.54688 16.7565 1.16406 16.5195C0.78125 16.2826 0.489583 15.9544 0.289062 15.5352L0.179688 15.3164C0.0703125 15.0794 0.134115 14.888 0.371094 14.7422C0.626302 14.6328 0.817708 14.6966 0.945312 14.9336L1.08203 15.1523C1.3737 15.6992 1.82943 15.9818 2.44922 16H5.375C6.1224 15.9818 6.74219 15.7266 7.23438 15.2344C7.72656 14.7422 7.98177 14.1224 8 13.375C7.98177 12.6276 7.72656 12.0078 7.23438 11.5156C6.74219 11.0234 6.1224 10.7682 5.375 10.75H0.5625C0.416667 10.75 0.298177 10.6953 0.207031 10.5859C0.134115 10.4766 0.106771 10.349 0.125 10.2031L1.46484 4.95312Z" fill="black" fill-opacity="0.72"/>
</g>
<defs>
<clipPath id="clip0_1731_2273">
<rect width="9" height="22" fill="white"/>
</clipPath>
</defs>
</svg>
