<svg width="24" height="36" viewBox="0 0 24 36" fill="none" xmlns="http://www.w3.org/2000/svg">
<g id="label-paired / xl / calendar-range-xl / regular" clip-path="url(#clip0_1731_5631)">
<path id="icon" d="M6.75 6C7.21875 6.03125 7.46875 6.28125 7.5 6.75V9H16.5V6.75C16.5312 6.28125 16.7812 6.03125 17.25 6C17.7188 6.03125 17.9688 6.28125 18 6.75V9H19.5C20.3438 9.03125 21.0469 9.32812 21.6094 9.89062C22.1719 10.4531 22.4688 11.1562 22.5 12V13.5V15V27C22.4688 27.8438 22.1719 28.5469 21.6094 29.1094C21.0469 29.6719 20.3438 29.9688 19.5 30H4.5C3.65625 29.9688 2.95312 29.6719 2.39062 29.1094C1.82812 28.5469 1.53125 27.8438 1.5 27V15V13.5V12C1.53125 11.1562 1.82812 10.4531 2.39062 9.89062C2.95312 9.32812 3.65625 9.03125 4.5 9H6V6.75C6.03125 6.28125 6.28125 6.03125 6.75 6ZM21 15H3V27C3 27.4375 3.14062 27.7969 3.42188 28.0781C3.70312 28.3594 4.0625 28.5 4.5 28.5H19.5C19.9375 28.5 20.2969 28.3594 20.5781 28.0781C20.8594 27.7969 21 27.4375 21 27V15ZM19.5 10.5H4.5C4.0625 10.5 3.70312 10.6406 3.42188 10.9219C3.14062 11.2031 3 11.5625 3 12V13.5H21V12C21 11.5625 20.8594 11.2031 20.5781 10.9219C20.2969 10.6406 19.9375 10.5 19.5 10.5ZM19.5 18.75C19.4688 19.2188 19.2188 19.4688 18.75 19.5H11.25C10.7812 19.4688 10.5312 19.2188 10.5 18.75C10.5312 18.2812 10.7812 18.0312 11.25 18H18.75C19.2188 18.0312 19.4688 18.2812 19.5 18.75ZM12.75 25.5H5.25C4.78125 25.4688 4.53125 25.2188 4.5 24.75C4.53125 24.2812 4.78125 24.0312 5.25 24H12.75C13.2188 24.0312 13.4688 24.2812 13.5 24.75C13.4688 25.2188 13.2188 25.4688 12.75 25.5ZM6 18.75C6.03125 19.2188 6.28125 19.4688 6.75 19.5C7.21875 19.4688 7.46875 19.2188 7.5 18.75C7.46875 18.2812 7.21875 18.0312 6.75 18C6.28125 18.0312 6.03125 18.2812 6 18.75ZM6.75 21C5.90625 20.9688 5.25 20.5938 4.78125 19.875C4.40625 19.125 4.40625 18.375 4.78125 17.625C5.25 16.9062 5.90625 16.5312 6.75 16.5C7.59375 16.5312 8.25 16.9062 8.71875 17.625C9.09375 18.375 9.09375 19.125 8.71875 19.875C8.25 20.5938 7.59375 20.9688 6.75 21ZM17.25 25.5C17.7188 25.4688 17.9688 25.2188 18 24.75C17.9688 24.2812 17.7188 24.0312 17.25 24C16.7812 24.0312 16.5312 24.2812 16.5 24.75C16.5312 25.2188 16.7812 25.4688 17.25 25.5ZM19.5 24.75C19.4688 25.5938 19.0938 26.25 18.375 26.7188C17.625 27.0938 16.875 27.0938 16.125 26.7188C15.4062 26.25 15.0312 25.5938 15 24.75C15.0312 23.9062 15.4062 23.25 16.125 22.7812C16.875 22.4062 17.625 22.4062 18.375 22.7812C19.0938 23.25 19.4688 23.9062 19.5 24.75Z" fill="black" fill-opacity="0.72"/>
</g>
<defs>
<clipPath id="clip0_1731_5631">
<rect width="24" height="36" fill="white"/>
</clipPath>
</defs>
</svg>
