<svg width="15" height="36" viewBox="0 0 15 36" fill="none" xmlns="http://www.w3.org/2000/svg">
<g id="label-paired / xl / six-xl / regular" clip-path="url(#clip0_1731_6051)">
<path id="icon" d="M13.5 21C13.4688 19.3125 12.8906 17.8906 11.7656 16.7344C10.6094 15.6094 9.1875 15.0312 7.5 15C5.8125 15.0312 4.42188 15.6094 3.32812 16.7344C2.20312 17.8281 1.59375 19.2031 1.5 20.8594C1.5 20.8906 1.5 20.9062 1.5 20.9062C1.5 20.9375 1.5 20.9688 1.5 21C1.53125 22.6875 2.10938 24.1094 3.23438 25.2656C4.39062 26.3906 5.8125 26.9688 7.5 27C9.1875 26.9688 10.6094 26.3906 11.7656 25.2656C12.8906 24.1094 13.4688 22.6875 13.5 21ZM5.95312 13.6875C6.45312 13.5625 6.96875 13.5 7.5 13.5C9.625 13.5625 11.3906 14.2969 12.7969 15.7031C14.2031 17.1094 14.9375 18.875 15 21C14.9375 23.125 14.2031 24.8906 12.7969 26.2969C11.3906 27.7031 9.625 28.4375 7.5 28.5C5.375 28.4375 3.60938 27.7031 2.20312 26.2969C0.796875 24.8906 0.0625 23.125 0 21C0 20.9062 0 20.8125 0 20.7188C0.09375 18.9062 0.734375 17.3125 1.92188 15.9375L9.1875 7.73438C9.53125 7.42187 9.89062 7.40625 10.2656 7.6875C10.5781 8.03125 10.5938 8.39062 10.3125 8.76562L5.95312 13.6875Z" fill="black" fill-opacity="0.72"/>
</g>
<defs>
<clipPath id="clip0_1731_6051">
<rect width="15" height="36" fill="white"/>
</clipPath>
</defs>
</svg>
