<svg width="14" height="18" viewBox="0 0 14 18" fill="none" xmlns="http://www.w3.org/2000/svg">
<g id="label-paired / caption / star-caption / regular" clip-path="url(#clip0_1731_814)">
<path id="icon" d="M5.57031 7.46094C5.44531 7.69531 5.25 7.83594 4.98438 7.88281L1.77344 8.35156L4.11719 10.6719C4.28906 10.8438 4.35938 11.0625 4.32812 11.3281L3.76562 14.5859L6.64844 13.0625C6.88281 12.9375 7.11719 12.9375 7.35156 13.0625L10.2344 14.5859L9.67188 11.3281C9.64062 11.0625 9.71094 10.8438 9.88281 10.6719L12.2266 8.35156L8.99219 7.88281C8.74219 7.83594 8.55469 7.69531 8.42969 7.46094L7 4.48438L5.57031 7.46094ZM10.2109 15.4297L7 13.7188L3.78906 15.4297C3.58594 15.5391 3.39062 15.5234 3.20312 15.3828C3.01562 15.2422 2.9375 15.0625 2.96875 14.8438L3.57812 11.1875L0.976562 8.60938C0.820312 8.45312 0.773438 8.26562 0.835938 8.04688C0.914062 7.82812 1.07031 7.70312 1.30469 7.67188L4.89062 7.13281L6.48438 3.82812C6.59375 3.625 6.76562 3.51563 7 3.5C7.23438 3.51563 7.40625 3.625 7.51562 3.82812L9.10938 7.13281L12.6953 7.64844C12.9297 7.69531 13.0859 7.82812 13.1641 8.04688C13.2266 8.26562 13.1797 8.45312 13.0234 8.60938L10.4219 11.1875L11.0312 14.8438C11.0625 15.0625 10.9844 15.2422 10.7969 15.3828C10.6094 15.5234 10.4141 15.5391 10.2109 15.4297Z" fill="black" fill-opacity="0.72"/>
</g>
<defs>
<clipPath id="clip0_1731_814">
<rect width="14" height="18" fill="white"/>
</clipPath>
</defs>
</svg>
