<svg width="9" height="18" viewBox="0 0 9 18" fill="none" xmlns="http://www.w3.org/2000/svg">
<g id="label-paired / caption / mobile-screen-button-caption / regular" clip-path="url(#clip0_1731_1369)">
<path id="icon" d="M6.75 4.25H2.25C2.03125 4.25 1.85156 4.32031 1.71094 4.46094C1.57031 4.60156 1.5 4.78125 1.5 5V11H7.5V5C7.5 4.78125 7.42969 4.60156 7.28906 4.46094C7.14844 4.32031 6.96875 4.25 6.75 4.25ZM7.5 11.75H1.5V14C1.5 14.2188 1.57031 14.3984 1.71094 14.5391C1.85156 14.6797 2.03125 14.75 2.25 14.75H6.75C6.96875 14.75 7.14844 14.6797 7.28906 14.5391C7.42969 14.3984 7.5 14.2188 7.5 14V11.75ZM2.25 3.5H6.75C7.17188 3.51563 7.52344 3.66406 7.80469 3.94531C8.08594 4.22656 8.23438 4.57812 8.25 5V14C8.23438 14.4219 8.08594 14.7734 7.80469 15.0547C7.52344 15.3359 7.17188 15.4844 6.75 15.5H2.25C1.82812 15.4844 1.47656 15.3359 1.19531 15.0547C0.914062 14.7734 0.765625 14.4219 0.75 14V5C0.765625 4.57812 0.914062 4.22656 1.19531 3.94531C1.47656 3.66406 1.82812 3.51563 2.25 3.5ZM3.375 13.25C3.39062 13.0156 3.51562 12.8906 3.75 12.875H5.25C5.48438 12.8906 5.60938 13.0156 5.625 13.25C5.60938 13.4844 5.48438 13.6094 5.25 13.625H3.75C3.51562 13.6094 3.39062 13.4844 3.375 13.25Z" fill="black" fill-opacity="0.72"/>
</g>
<defs>
<clipPath id="clip0_1731_1369">
<rect width="9" height="18" fill="white"/>
</clipPath>
</defs>
</svg>
