<svg width="12" height="36" viewBox="0 0 12 36" fill="none" xmlns="http://www.w3.org/2000/svg">
<g id="label-paired / xl / grip-dots-vertical-xl / regular" clip-path="url(#clip0_1731_5566)">
<path id="icon" d="M3 10.5C2.96875 10.0312 2.71875 9.78125 2.25 9.75C1.78125 9.78125 1.53125 10.0312 1.5 10.5C1.53125 10.9688 1.78125 11.2188 2.25 11.25C2.71875 11.2188 2.96875 10.9688 3 10.5ZM0 10.5C0.03125 9.65625 0.40625 9 1.125 8.53125C1.875 8.15625 2.625 8.15625 3.375 8.53125C4.09375 9 4.46875 9.65625 4.5 10.5C4.46875 11.3438 4.09375 12 3.375 12.4688C2.625 12.8438 1.875 12.8438 1.125 12.4688C0.40625 12 0.03125 11.3438 0 10.5ZM3 18C2.96875 17.5312 2.71875 17.2812 2.25 17.25C1.78125 17.2812 1.53125 17.5312 1.5 18C1.53125 18.4688 1.78125 18.7188 2.25 18.75C2.71875 18.7188 2.96875 18.4688 3 18ZM0 18C0.03125 17.1562 0.40625 16.5 1.125 16.0312C1.875 15.6562 2.625 15.6562 3.375 16.0312C4.09375 16.5 4.46875 17.1562 4.5 18C4.46875 18.8438 4.09375 19.5 3.375 19.9688C2.625 20.3438 1.875 20.3438 1.125 19.9688C0.40625 19.5 0.03125 18.8438 0 18ZM2.25 26.25C2.71875 26.2188 2.96875 25.9688 3 25.5C2.96875 25.0312 2.71875 24.7812 2.25 24.75C1.78125 24.7812 1.53125 25.0312 1.5 25.5C1.53125 25.9688 1.78125 26.2188 2.25 26.25ZM2.25 23.25C3.09375 23.2812 3.75 23.6562 4.21875 24.375C4.59375 25.125 4.59375 25.875 4.21875 26.625C3.75 27.3438 3.09375 27.7188 2.25 27.75C1.40625 27.7188 0.75 27.3438 0.28125 26.625C-0.09375 25.875 -0.09375 25.125 0.28125 24.375C0.75 23.6562 1.40625 23.2812 2.25 23.25ZM10.5 10.5C10.4688 10.0312 10.2188 9.78125 9.75 9.75C9.28125 9.78125 9.03125 10.0312 9 10.5C9.03125 10.9688 9.28125 11.2188 9.75 11.25C10.2188 11.2188 10.4688 10.9688 10.5 10.5ZM7.5 10.5C7.53125 9.65625 7.90625 9 8.625 8.53125C9.375 8.15625 10.125 8.15625 10.875 8.53125C11.5938 9 11.9688 9.65625 12 10.5C11.9688 11.3438 11.5938 12 10.875 12.4688C10.125 12.8438 9.375 12.8438 8.625 12.4688C7.90625 12 7.53125 11.3438 7.5 10.5ZM9.75 18.75C10.2188 18.7188 10.4688 18.4688 10.5 18C10.4688 17.5312 10.2188 17.2812 9.75 17.25C9.28125 17.2812 9.03125 17.5312 9 18C9.03125 18.4688 9.28125 18.7188 9.75 18.75ZM9.75 15.75C10.5938 15.7812 11.25 16.1562 11.7188 16.875C12.0938 17.625 12.0938 18.375 11.7188 19.125C11.25 19.8438 10.5938 20.2188 9.75 20.25C8.90625 20.2188 8.25 19.8438 7.78125 19.125C7.40625 18.375 7.40625 17.625 7.78125 16.875C8.25 16.1562 8.90625 15.7812 9.75 15.75ZM10.5 25.5C10.4688 25.0312 10.2188 24.7812 9.75 24.75C9.28125 24.7812 9.03125 25.0312 9 25.5C9.03125 25.9688 9.28125 26.2188 9.75 26.25C10.2188 26.2188 10.4688 25.9688 10.5 25.5ZM7.5 25.5C7.53125 24.6562 7.90625 24 8.625 23.5312C9.375 23.1562 10.125 23.1562 10.875 23.5312C11.5938 24 11.9688 24.6562 12 25.5C11.9688 26.3438 11.5938 27 10.875 27.4688C10.125 27.8438 9.375 27.8438 8.625 27.4688C7.90625 27 7.53125 26.3438 7.5 25.5Z" fill="black" fill-opacity="0.72"/>
</g>
<defs>
<clipPath id="clip0_1731_5566">
<rect width="12" height="36" fill="white"/>
</clipPath>
</defs>
</svg>
