<svg width="12" height="18" viewBox="0 0 12 18" fill="none" xmlns="http://www.w3.org/2000/svg">
<g id="label-paired / caption / search-caption / bold" clip-path="url(#clip0_1731_621)">
<path id="icon" d="M8.625 8.375C8.625 7.70312 8.46094 7.07812 8.13281 6.5C7.78906 5.92188 7.32812 5.46094 6.75 5.11719C6.15625 4.78906 5.53125 4.625 4.875 4.625C4.21875 4.625 3.59375 4.78906 3 5.11719C2.42188 5.46094 1.96094 5.92188 1.61719 6.5C1.28906 7.07812 1.125 7.70312 1.125 8.375C1.125 9.04688 1.28906 9.67188 1.61719 10.25C1.96094 10.8281 2.42188 11.2891 3 11.6328C3.59375 11.9609 4.21875 12.125 4.875 12.125C5.53125 12.125 6.15625 11.9609 6.75 11.6328C7.32812 11.2891 7.78906 10.8281 8.13281 10.25C8.46094 9.67188 8.625 9.04688 8.625 8.375ZM7.89844 12.1953C7.05469 12.8828 6.04688 13.2344 4.875 13.25C3.5 13.2188 2.35156 12.7422 1.42969 11.8203C0.507813 10.8984 0.03125 9.75 0 8.375C0.03125 7 0.507813 5.85156 1.42969 4.92969C2.35156 4.00781 3.5 3.53125 4.875 3.5C6.25 3.53125 7.39844 4.00781 8.32031 4.92969C9.24219 5.85156 9.71875 7 9.75 8.375C9.73438 9.54688 9.38281 10.5547 8.69531 11.3984L11.8359 14.5391C12.0547 14.8047 12.0547 15.0703 11.8359 15.3359C11.5703 15.5547 11.3047 15.5547 11.0391 15.3359L7.89844 12.1953Z" fill="black" fill-opacity="0.72"/>
</g>
<defs>
<clipPath id="clip0_1731_621">
<rect width="12" height="18" fill="white"/>
</clipPath>
</defs>
</svg>
