<svg width="16" height="24" viewBox="0 0 16 24" fill="none" xmlns="http://www.w3.org/2000/svg">
<g id="label-paired / md / chart-area-md / bold" clip-path="url(#clip0_1731_3770)">
<path id="icon" d="M1.5 5.75V16.75C1.54167 17.2083 1.79167 17.4583 2.25 17.5H15.25C15.7083 17.5417 15.9583 17.7917 16 18.25C15.9583 18.7083 15.7083 18.9583 15.25 19H2.25C1.60417 18.9792 1.07292 18.7604 0.65625 18.3438C0.239583 17.9271 0.0208333 17.3958 0 16.75V5.75C0.0416667 5.29167 0.291667 5.04167 0.75 5C1.20833 5.04167 1.45833 5.29167 1.5 5.75ZM8.9375 11.0625L7 9.125L4.5 11.625V14.5H13.5V12.0625L11.9062 10.2188L11.0625 11.0625C10.7708 11.3542 10.4167 11.5 10 11.5C9.58333 11.5 9.22917 11.3542 8.9375 11.0625ZM10 10L11.0625 8.9375L11.25 8.75C11.4583 8.5625 11.6979 8.46875 11.9688 8.46875C12.2604 8.48958 12.5 8.60417 12.6875 8.8125L14.625 11.0938C14.875 11.3646 15 11.6875 15 12.0625V15C15 15.2917 14.9062 15.5312 14.7188 15.7188C14.5312 15.9062 14.2917 16 14 16H4C3.70833 16 3.46875 15.9062 3.28125 15.7188C3.09375 15.5312 3 15.2917 3 15V11.625C3 11.2083 3.14583 10.8542 3.4375 10.5625L6.28125 7.71875C6.48958 7.51042 6.72917 7.40625 7 7.40625C7.27083 7.40625 7.51042 7.51042 7.71875 7.71875L8.9375 8.9375L10 10Z" fill="black" fill-opacity="0.72"/>
</g>
<defs>
<clipPath id="clip0_1731_3770">
<rect width="16" height="24" fill="white"/>
</clipPath>
</defs>
</svg>
