<svg width="30" height="36" viewBox="0 0 30 36" fill="none" xmlns="http://www.w3.org/2000/svg">
<g id="label-paired / xl / horizontal-rule-dashed-xl / regular" clip-path="url(#clip0_1731_6533)">
<path id="icon" d="M0 18C0 17.625 0.328125 17.25 0.75 17.25H4.5C4.875 17.25 5.25 17.625 5.25 18C5.25 18.4219 4.875 18.75 4.5 18.75H0.75C0.328125 18.75 0 18.4219 0 18ZM8.25 18C8.25 17.625 8.57812 17.25 9 17.25H12.75C13.125 17.25 13.5 17.625 13.5 18C13.5 18.4219 13.125 18.75 12.75 18.75H9C8.57812 18.75 8.25 18.4219 8.25 18ZM16.5 18C16.5 17.625 16.8281 17.25 17.25 17.25H21C21.375 17.25 21.75 17.625 21.75 18C21.75 18.4219 21.375 18.75 21 18.75H17.25C16.8281 18.75 16.5 18.4219 16.5 18ZM24.75 18C24.75 17.625 25.0781 17.25 25.5 17.25H29.25C29.625 17.25 30 17.625 30 18C30 18.4219 29.625 18.75 29.25 18.75H25.5C25.0781 18.75 24.75 18.4219 24.75 18Z" fill="black" fill-opacity="0.72"/>
</g>
<defs>
<clipPath id="clip0_1731_6533">
<rect width="30" height="36" fill="white"/>
</clipPath>
</defs>
</svg>
