<svg width="20" height="30" viewBox="0 0 20 30" fill="none" xmlns="http://www.w3.org/2000/svg">
<g id="label-paired / lg / app-store-lg" clip-path="url(#clip0_1731_14059)">
<path id="icon" d="M10 10.2266L9.64844 9.60156C9.36198 9.21094 8.9974 9.11979 8.55469 9.32812C8.16406 9.61458 8.07292 9.97917 8.28125 10.4219L9.0625 11.8281L6.48438 16.3203H4.45312C3.95833 16.3724 3.6849 16.6458 3.63281 17.1406C3.6849 17.6094 3.95833 17.8698 4.45312 17.9219H11.6797C11.862 17.5573 11.862 17.2057 11.6797 16.8672C11.4974 16.5286 11.1979 16.3464 10.7812 16.3203H8.32031L11.7188 10.4219C11.9271 9.97917 11.8359 9.61458 11.4453 9.32812C11.0026 9.11979 10.638 9.21094 10.3516 9.60156L10 10.2266ZM6.91406 18.7422C6.4974 18.2474 5.97656 18.0911 5.35156 18.2734L4.76562 19.2891C4.55729 19.7318 4.66146 20.0833 5.07812 20.3438C5.52083 20.5521 5.88542 20.4609 6.17188 20.0703L6.91406 18.7422ZM13.5156 16.3203C13.4375 16.1901 13.3724 16.0729 13.3203 15.9688C12.3828 14.3281 11.6667 13.0911 11.1719 12.2578C10.9115 12.4661 10.7161 12.8177 10.5859 13.3125C10.4818 13.8333 10.5859 14.3802 10.8984 14.9531C11.2109 15.5 11.5885 16.1641 12.0312 16.9453C12.5521 17.8307 13.151 18.8724 13.8281 20.0703C14.1146 20.4609 14.4792 20.5521 14.9219 20.3438C15.3125 20.0833 15.4167 19.7188 15.2344 19.25L14.4531 17.9219H15.5859C16.0807 17.8698 16.3542 17.6094 16.4062 17.1406C16.3542 16.6458 16.0807 16.3724 15.5859 16.3203H13.5156ZM10 5.8125C11.7969 5.83854 13.4245 6.28125 14.8828 7.14062C16.3411 8 17.5 9.15885 18.3594 10.6172C19.2188 12.0755 19.6615 13.7031 19.6875 15.5C19.6615 17.2969 19.2188 18.9245 18.3594 20.3828C17.5 21.8411 16.3411 23 14.8828 23.8594C13.4245 24.7188 11.7969 25.1615 10 25.1875C8.20312 25.1615 6.57552 24.7188 5.11719 23.8594C3.65885 23 2.5 21.8411 1.64062 20.3828C0.78125 18.9245 0.338542 17.2969 0.3125 15.5C0.338542 13.7031 0.78125 12.0755 1.64062 10.6172C2.5 9.15885 3.65885 8 5.11719 7.14062C6.57552 6.28125 8.20312 5.83854 10 5.8125ZM18.4375 15.5C18.3854 13.1042 17.5651 11.112 15.9766 9.52344C14.362 7.9349 12.3698 7.11458 10 7.0625C7.60417 7.11458 5.61198 7.9349 4.02344 9.52344C2.4349 11.138 1.61458 13.1302 1.5625 15.5C1.61458 17.8958 2.4349 19.888 4.02344 21.4766C5.63802 23.0651 7.63021 23.8854 10 23.9375C12.3958 23.8854 14.388 23.0651 15.9766 21.4766C17.5651 19.862 18.3854 17.8698 18.4375 15.5Z" fill="black" fill-opacity="0.72"/>
</g>
<defs>
<clipPath id="clip0_1731_14059">
<rect width="20" height="30" fill="white"/>
</clipPath>
</defs>
</svg>
