<svg width="16" height="24" viewBox="0 0 16 24" fill="none" xmlns="http://www.w3.org/2000/svg">
<g id="label-paired / md / triangle-exclamation-md / regular" clip-path="url(#clip0_1731_4137)">
<path id="icon" d="M1.09375 17.125C1.03125 17.2292 1 17.3333 1 17.4375C1.04167 17.7917 1.22917 17.9792 1.5625 18H14.4375C14.7708 17.9792 14.9583 17.7917 15 17.4375C15 17.3333 14.9792 17.2292 14.9375 17.125L8.65625 6.375C8.48958 6.125 8.27083 6 8 6C7.72917 6 7.52083 6.125 7.375 6.375L1.09375 17.125ZM0.21875 16.625L6.5 5.875C6.85417 5.3125 7.35417 5.02083 8 5C8.64583 5.02083 9.14583 5.3125 9.5 5.875L15.7812 16.625C15.9271 16.875 16 17.1458 16 17.4375C15.9792 17.875 15.8229 18.2396 15.5312 18.5312C15.2396 18.8229 14.875 18.9792 14.4375 19H1.5625C1.125 18.9792 0.760417 18.8229 0.46875 18.5312C0.177083 18.2396 0.0208333 17.875 0 17.4375C0 17.1458 0.0729167 16.875 0.21875 16.625ZM8 9C8.3125 9.02083 8.47917 9.1875 8.5 9.5V13.5C8.47917 13.8125 8.3125 13.9792 8 14C7.6875 13.9792 7.52083 13.8125 7.5 13.5V9.5C7.52083 9.1875 7.6875 9.02083 8 9ZM7.25 16C7.29167 15.5417 7.54167 15.2917 8 15.25C8.45833 15.2917 8.70833 15.5417 8.75 16C8.70833 16.4583 8.45833 16.7083 8 16.75C7.54167 16.7083 7.29167 16.4583 7.25 16Z" fill="black" fill-opacity="0.72"/>
</g>
<defs>
<clipPath id="clip0_1731_4137">
<rect width="16" height="24" fill="white"/>
</clipPath>
</defs>
</svg>
