<svg width="24" height="36" viewBox="0 0 24 36" fill="none" xmlns="http://www.w3.org/2000/svg">
<g id="label-paired / xl / paste-xl / bold" clip-path="url(#clip0_1731_6475)">
<path id="icon" d="M3.75 10.5H3C2.53125 10.5312 2.28125 10.7812 2.25 11.25V24C2.28125 24.4688 2.53125 24.7188 3 24.75H7.5V27H3C2.15625 26.9688 1.45312 26.6719 0.890625 26.1094C0.328125 25.5469 0.03125 24.8438 0 24V11.25C0.03125 10.4062 0.328125 9.70312 0.890625 9.14062C1.45312 8.57812 2.15625 8.28125 3 8.25H4.92188C5.01562 7.59375 5.29688 7.0625 5.76562 6.65625C6.23438 6.21875 6.8125 6 7.5 6C8.1875 6 8.76562 6.21875 9.23438 6.65625C9.70312 7.0625 9.98438 7.59375 10.0781 8.25H12C12.7188 8.25 13.3438 8.46875 13.875 8.90625C14.375 9.3125 14.7188 9.84375 14.9062 10.5H12C11.1562 10.5 10.3906 10.7031 9.70312 11.1094C9.04688 11.5156 8.51562 12.0625 8.10938 12.75H5.25C4.8125 12.75 4.45312 12.6094 4.17188 12.3281C3.89062 12.0469 3.75 11.6875 3.75 11.25V10.5ZM6.75 8.625C6.78125 9.09375 7.03125 9.34375 7.5 9.375C7.96875 9.34375 8.21875 9.09375 8.25 8.625C8.21875 8.15625 7.96875 7.90625 7.5 7.875C7.03125 7.90625 6.78125 8.15625 6.75 8.625ZM12 27.75H21C21.4688 27.7188 21.7188 27.4688 21.75 27V18H19.5C19.0625 18 18.7031 17.8594 18.4219 17.5781C18.1406 17.2969 18 16.9375 18 16.5V14.25H12C11.5312 14.2812 11.2812 14.5312 11.25 15V27C11.2812 27.4688 11.5312 27.7188 12 27.75ZM21 30H12C11.1562 29.9688 10.4531 29.6719 9.89062 29.1094C9.32812 28.5469 9.03125 27.8438 9 27V15C9.03125 14.1562 9.32812 13.4531 9.89062 12.8906C10.4531 12.3281 11.1562 12.0312 12 12H19.3125C19.9375 12 20.4688 12.2188 20.9062 12.6562L23.3438 15.0938C23.7812 15.5312 24 16.0625 24 16.6875V27C23.9688 27.8438 23.6719 28.5469 23.1094 29.1094C22.5469 29.6719 21.8438 29.9688 21 30Z" fill="black" fill-opacity="0.72"/>
</g>
<defs>
<clipPath id="clip0_1731_6475">
<rect width="24" height="36" fill="white"/>
</clipPath>
</defs>
</svg>
