<svg width="14" height="24" viewBox="0 0 14 24" fill="none" xmlns="http://www.w3.org/2000/svg">
<g id="label-paired / md / whatsapp-md" clip-path="url(#clip0_1731_13969)">
<path id="icon" d="M11.9062 7.03125C12.5729 7.69792 13.0833 8.44792 13.4375 9.28125C13.8125 10.1146 14 11 14 11.9375C13.9792 13.2292 13.6562 14.3958 13.0312 15.4375C12.4062 16.4792 11.5625 17.3125 10.5 17.9375C9.45833 18.5417 8.29167 18.8542 7 18.875C5.8125 18.875 4.70833 18.5938 3.6875 18.0312L0 19L0.96875 15.4062C0.364583 14.3438 0.0625 13.1875 0.0625 11.9375C0.0833333 10.6458 0.395833 9.47917 1 8.4375C1.625 7.39583 2.45833 6.5625 3.5 5.9375C4.54167 5.33333 5.70833 5.02083 7 5C8.89583 5.02083 10.5312 5.69792 11.9062 7.03125ZM7 17.7188C8.625 17.6771 9.98958 17.1146 11.0938 16.0312C12.1979 14.9271 12.7812 13.5625 12.8438 11.9375C12.8021 10.3542 12.2083 9 11.0625 7.875C9.9375 6.75 8.58333 6.1875 7 6.1875C5.375 6.20833 4.02083 6.77083 2.9375 7.875C1.83333 8.95833 1.26042 10.3125 1.21875 11.9375C1.23958 13.0417 1.54167 14.0625 2.125 15L2.25 15.2188L1.65625 17.3438L3.84375 16.7812L4.0625 16.9062C4.95833 17.4271 5.9375 17.6979 7 17.7188ZM10.1562 13.4062C10.1771 13.4062 10.2083 13.4167 10.25 13.4375C10.375 13.4792 10.4583 13.5312 10.5 13.5938C10.5625 13.6979 10.5208 13.9792 10.375 14.4375C10.2917 14.6458 10.125 14.8229 9.875 14.9688C9.625 15.1146 9.40625 15.2083 9.21875 15.25C8.96875 15.2917 8.6875 15.2917 8.375 15.25C8.08333 15.1875 7.66667 15.0417 7.125 14.8125C6.3125 14.4167 5.65625 13.9375 5.15625 13.375C4.63542 12.8125 4.32292 12.4375 4.21875 12.25C4.19792 12.2292 4.1875 12.2083 4.1875 12.1875C4.16667 12.1875 4.15625 12.1875 4.15625 12.1875C4.09375 12.1042 3.96875 11.8958 3.78125 11.5625C3.59375 11.2083 3.48958 10.8229 3.46875 10.4062C3.48958 10.0104 3.5625 9.69792 3.6875 9.46875C3.8125 9.23958 3.92708 9.08333 4.03125 9C4.05208 8.97917 4.0625 8.95833 4.0625 8.9375C4.25 8.79167 4.40625 8.72917 4.53125 8.75C4.65625 8.75 4.77083 8.75 4.875 8.75C4.875 8.75 4.88542 8.75 4.90625 8.75C5.01042 8.6875 5.125 8.78125 5.25 9.03125C5.29167 9.13542 5.35417 9.27083 5.4375 9.4375C5.52083 9.64583 5.59375 9.83333 5.65625 10C5.71875 10.1875 5.76042 10.2917 5.78125 10.3125C5.84375 10.4167 5.85417 10.5208 5.8125 10.625C5.64583 10.9167 5.51042 11.1042 5.40625 11.1875C5.26042 11.3125 5.22917 11.4375 5.3125 11.5625C5.625 12.125 5.96875 12.5521 6.34375 12.8438C6.71875 13.1354 7.15625 13.3958 7.65625 13.625C7.82292 13.7292 7.94792 13.7188 8.03125 13.5938C8.09375 13.5312 8.1875 13.4271 8.3125 13.2812C8.41667 13.1354 8.51042 13.0104 8.59375 12.9062C8.69792 12.7604 8.82292 12.7396 8.96875 12.8438C9.07292 12.8854 9.27083 12.9688 9.5625 13.0938C9.85417 13.2396 10.0521 13.3438 10.1562 13.4062Z" fill="black" fill-opacity="0.72"/>
</g>
<defs>
<clipPath id="clip0_1731_13969">
<rect width="14" height="24" fill="white"/>
</clipPath>
</defs>
</svg>
