<svg width="16" height="24" viewBox="0 0 16 24" fill="none" xmlns="http://www.w3.org/2000/svg">
<g id="label-paired / md / camera-md / bold" clip-path="url(#clip0_1731_4292)">
<path id="icon" d="M6.21875 5H9.78125C10.1562 5 10.5 5.11458 10.8125 5.34375C11.1042 5.55208 11.3125 5.83333 11.4375 6.1875L11.7188 7H14C14.5625 7.02083 15.0312 7.21875 15.4062 7.59375C15.7812 7.96875 15.9792 8.4375 16 9V17C15.9792 17.5625 15.7812 18.0312 15.4062 18.4062C15.0312 18.7812 14.5625 18.9792 14 19H2C1.4375 18.9792 0.96875 18.7812 0.59375 18.4062C0.21875 18.0312 0.0208333 17.5625 0 17V9C0.0208333 8.4375 0.21875 7.96875 0.59375 7.59375C0.96875 7.21875 1.4375 7.02083 2 7H4.28125L4.5625 6.1875L5.28125 6.4375L4.5625 6.1875C4.6875 5.83333 4.89583 5.55208 5.1875 5.34375C5.5 5.11458 5.84375 5 6.21875 5ZM6 6.6875L5.5625 8C5.41667 8.3125 5.17708 8.47917 4.84375 8.5H2C1.6875 8.52083 1.52083 8.6875 1.5 9V17C1.52083 17.3125 1.6875 17.4792 2 17.5H14C14.3125 17.4792 14.4792 17.3125 14.5 17V9C14.4792 8.6875 14.3125 8.52083 14 8.5H11.1562C10.8229 8.47917 10.5938 8.3125 10.4688 8L10.0312 6.6875C9.96875 6.5625 9.88542 6.5 9.78125 6.5H6.21875C6.11458 6.5 6.04167 6.5625 6 6.6875ZM8 16.5C7.375 16.5 6.79167 16.3438 6.25 16.0312C5.70833 15.7188 5.28125 15.2917 4.96875 14.75C4.65625 14.2083 4.5 13.625 4.5 13C4.5 12.375 4.65625 11.7917 4.96875 11.25C5.28125 10.7083 5.70833 10.2812 6.25 9.96875C6.79167 9.65625 7.375 9.5 8 9.5C8.625 9.5 9.20833 9.65625 9.75 9.96875C10.2917 10.2812 10.7188 10.7083 11.0312 11.25C11.3438 11.7917 11.5 12.375 11.5 13C11.5 13.625 11.3438 14.2083 11.0312 14.75C10.7188 15.2917 10.2917 15.7188 9.75 16.0312C9.20833 16.3438 8.625 16.5 8 16.5ZM6 13C6.02083 13.75 6.35417 14.3229 7 14.7188C7.66667 15.0938 8.33333 15.0938 9 14.7188C9.64583 14.3229 9.97917 13.75 10 13C9.97917 12.25 9.64583 11.6771 9 11.2812C8.33333 10.9062 7.66667 10.9062 7 11.2812C6.35417 11.6771 6.02083 12.25 6 13Z" fill="black" fill-opacity="0.72"/>
</g>
<defs>
<clipPath id="clip0_1731_4292">
<rect width="16" height="24" fill="white"/>
</clipPath>
</defs>
</svg>
