<svg width="20" height="30" viewBox="0 0 20 30" fill="none" xmlns="http://www.w3.org/2000/svg">
<g id="label-paired / lg / circle-calendar-lg / bold" clip-path="url(#clip0_1731_5336)">
<path id="icon" d="M18.125 15.5C18.125 14.0156 17.7604 12.6615 17.0312 11.4375C16.3281 10.2135 15.3385 9.22396 14.0625 8.46875C12.7865 7.73958 11.4323 7.375 10 7.375C8.56771 7.375 7.21354 7.73958 5.9375 8.46875C4.66146 9.22396 3.67188 10.2135 2.96875 11.4375C2.23958 12.6615 1.875 14.0156 1.875 15.5C1.875 16.9844 2.23958 18.3385 2.96875 19.5625C3.67188 20.7865 4.66146 21.776 5.9375 22.5312C7.21354 23.2604 8.56771 23.625 10 23.625C11.4323 23.625 12.7865 23.2604 14.0625 22.5312C15.3385 21.776 16.3281 20.7865 17.0312 19.5625C17.7604 18.3385 18.125 16.9844 18.125 15.5ZM0 15.5C0.0260417 13.6771 0.46875 12.0104 1.32812 10.5C2.21354 8.98958 3.4375 7.76562 5 6.82812C6.58854 5.94271 8.25521 5.5 10 5.5C11.7448 5.5 13.4115 5.94271 15 6.82812C16.5625 7.76562 17.7865 8.98958 18.6719 10.5C19.5312 12.0104 19.974 13.6771 20 15.5C19.974 17.3229 19.5312 18.9896 18.6719 20.5C17.7865 22.0104 16.5625 23.2344 15 24.1719C13.4115 25.0573 11.7448 25.5 10 25.5C8.25521 25.5 6.58854 25.0573 5 24.1719C3.4375 23.2344 2.21354 22.0104 1.32812 20.5C0.46875 18.9896 0.0260417 17.3229 0 15.5ZM8.125 9.875C8.51562 9.90104 8.72396 10.1094 8.75 10.5V11.125H11.25V10.5C11.276 10.1094 11.4844 9.90104 11.875 9.875C12.2656 9.90104 12.474 10.1094 12.5 10.5V11.125H13.125C13.6458 11.151 14.0885 11.3333 14.4531 11.6719C14.7917 12.0365 14.974 12.4792 15 13V14.25V18C14.974 18.5208 14.7917 18.9635 14.4531 19.3281C14.0885 19.6667 13.6458 19.849 13.125 19.875H6.875C6.35417 19.849 5.91146 19.6667 5.54688 19.3281C5.20833 18.9635 5.02604 18.5208 5 18V14.25V13C5.02604 12.4792 5.20833 12.0365 5.54688 11.6719C5.91146 11.3333 6.35417 11.151 6.875 11.125H7.5V10.5C7.52604 10.1094 7.73438 9.90104 8.125 9.875ZM6.875 18H13.125V14.25H6.875V18Z" fill="black" fill-opacity="0.72"/>
</g>
<defs>
<clipPath id="clip0_1731_5336">
<rect width="20" height="30" fill="white"/>
</clipPath>
</defs>
</svg>
