<svg width="13" height="22" viewBox="0 0 13 22" fill="none" xmlns="http://www.w3.org/2000/svg">
<g id="label-paired / sm / square-sm / regular" clip-path="url(#clip0_1731_2037)">
<path id="icon" d="M10.875 5.5H2.125C1.86979 5.5 1.66016 5.58203 1.49609 5.74609C1.33203 5.91016 1.25 6.11979 1.25 6.375V15.125C1.25 15.3802 1.33203 15.5898 1.49609 15.7539C1.66016 15.918 1.86979 16 2.125 16H10.875C11.1302 16 11.3398 15.918 11.5039 15.7539C11.668 15.5898 11.75 15.3802 11.75 15.125V6.375C11.75 6.11979 11.668 5.91016 11.5039 5.74609C11.3398 5.58203 11.1302 5.5 10.875 5.5ZM2.125 4.625H10.875C11.3672 4.64323 11.7773 4.81641 12.1055 5.14453C12.4336 5.47266 12.6068 5.88281 12.625 6.375V15.125C12.6068 15.6172 12.4336 16.0273 12.1055 16.3555C11.7773 16.6836 11.3672 16.8568 10.875 16.875H2.125C1.63281 16.8568 1.22266 16.6836 0.894531 16.3555C0.566406 16.0273 0.393229 15.6172 0.375 15.125V6.375C0.393229 5.88281 0.566406 5.47266 0.894531 5.14453C1.22266 4.81641 1.63281 4.64323 2.125 4.625Z" fill="black" fill-opacity="0.72"/>
</g>
<defs>
<clipPath id="clip0_1731_2037">
<rect width="13" height="22" fill="white"/>
</clipPath>
</defs>
</svg>
