<svg width="13" height="22" viewBox="0 0 13 22" fill="none" xmlns="http://www.w3.org/2000/svg">
<g id="label-paired / sm / square-check-sm / fill" clip-path="url(#clip0_1731_2048)">
<path id="icon" d="M2.125 4.625H10.875C11.3672 4.64323 11.7773 4.81641 12.1055 5.14453C12.4336 5.47266 12.6068 5.88281 12.625 6.375V15.125C12.6068 15.6172 12.4336 16.0273 12.1055 16.3555C11.7773 16.6836 11.3672 16.8568 10.875 16.875H2.125C1.63281 16.8568 1.22266 16.6836 0.894531 16.3555C0.566406 16.0273 0.393229 15.6172 0.375 15.125V6.375C0.393229 5.88281 0.566406 5.47266 0.894531 5.14453C1.22266 4.81641 1.63281 4.64323 2.125 4.625ZM9.58984 9.46484C9.84505 9.15495 9.84505 8.84505 9.58984 8.53516C9.27995 8.27995 8.97005 8.27995 8.66016 8.53516L5.625 11.5703L4.33984 10.2852C4.02995 10.0299 3.72005 10.0299 3.41016 10.2852C3.15495 10.5951 3.15495 10.9049 3.41016 11.2148L5.16016 12.9648C5.47005 13.2201 5.77995 13.2201 6.08984 12.9648L9.58984 9.46484Z" fill="black" fill-opacity="0.72"/>
</g>
<defs>
<clipPath id="clip0_1731_2048">
<rect width="13" height="22" fill="white"/>
</clipPath>
</defs>
</svg>
