<svg width="18" height="36" viewBox="0 0 18 36" fill="none" xmlns="http://www.w3.org/2000/svg">
<g id="label-paired / xl / xmark-xl / bold" clip-path="url(#clip0_1731_5573)">
<path id="icon" d="M16.1719 12.4219L10.5938 18L16.1719 23.5781C16.6094 24.1094 16.6094 24.6406 16.1719 25.1719C15.6406 25.6094 15.1094 25.6094 14.5781 25.1719L9 19.5938L3.42188 25.1719C2.89062 25.6094 2.35938 25.6094 1.82812 25.1719C1.39062 24.6406 1.39062 24.1094 1.82812 23.5781L7.40625 18L1.82812 12.4219C1.39062 11.8906 1.39062 11.3594 1.82812 10.8281C2.35938 10.3906 2.89062 10.3906 3.42188 10.8281L9 16.4062L14.5781 10.8281C15.1094 10.3906 15.6406 10.3906 16.1719 10.8281C16.6094 11.3594 16.6094 11.8906 16.1719 12.4219Z" fill="black" fill-opacity="0.72"/>
</g>
<defs>
<clipPath id="clip0_1731_5573">
<rect width="18" height="36" fill="white"/>
</clipPath>
</defs>
</svg>
