<svg width="10" height="24" viewBox="0 0 10 24" fill="none" xmlns="http://www.w3.org/2000/svg">
<g id="label-paired / md / two-md / regular" clip-path="url(#clip0_1731_3516)">
<path id="icon" d="M4.625 6C3.6875 6.02083 2.88542 6.35417 2.21875 7L1.34375 7.84375C1.11458 8.05208 0.885417 8.05208 0.65625 7.84375C0.447917 7.61458 0.447917 7.38542 0.65625 7.15625L1.5 6.28125C2.375 5.44792 3.41667 5.02083 4.625 5C5.85417 5.02083 6.88542 5.44792 7.71875 6.28125C8.53125 7.09375 8.95833 8.11458 9 9.34375C8.97917 10.5938 8.52083 11.6458 7.625 12.5L1.78125 18H9.5C9.8125 18.0208 9.97917 18.1875 10 18.5C9.97917 18.8125 9.8125 18.9792 9.5 19H0.5C0.270833 19 0.114583 18.8958 0.03125 18.6875C-0.03125 18.4792 0.0104167 18.2917 0.15625 18.125L6.9375 11.7812C7.625 11.1146 7.97917 10.3021 8 9.34375C7.97917 8.40625 7.64583 7.61458 7 6.96875C6.375 6.34375 5.58333 6.02083 4.625 6Z" fill="black" fill-opacity="0.72"/>
</g>
<defs>
<clipPath id="clip0_1731_3516">
<rect width="10" height="24" fill="white"/>
</clipPath>
</defs>
</svg>
