<svg width="20" height="24" viewBox="0 0 20 24" fill="none" xmlns="http://www.w3.org/2000/svg">
<g id="label-paired / md / take-profit-md / regular" clip-path="url(#clip0_1731_3290)">
<path id="icon" d="M7 9.03125V16.1875H5.625V9.03125H3.125V7.8125H9.46875V9.03125H7ZM10.8125 16.1875V7.8125H14.4062C15.1875 7.8125 15.7812 8.0625 16.2188 8.5C16.625 8.96875 16.8438 9.59375 16.8438 10.3438C16.8438 11.125 16.625 11.7188 16.2188 12.1875C15.7812 12.6562 15.1875 12.875 14.4062 12.875H12.1562V16.1875H10.8125ZM12.1562 11.6875H14.3125C14.6562 11.6875 14.9375 11.5938 15.125 11.4062C15.3125 11.2188 15.4062 10.9688 15.4062 10.625V10.0625C15.4062 9.71875 15.3125 9.46875 15.125 9.28125C14.9375 9.09375 14.6562 9 14.3125 9H12.1562V11.6875Z" fill="black" fill-opacity="0.72"/>
</g>
<defs>
<clipPath id="clip0_1731_3290">
<rect width="20" height="24" fill="white"/>
</clipPath>
</defs>
</svg>
