<svg width="20" height="24" viewBox="0 0 20 24" fill="none" xmlns="http://www.w3.org/2000/svg">
<g id="label-paired / md / horizontal-rule-dashed-md / regular" clip-path="url(#clip0_1731_4017)">
<path id="icon" d="M0 12C0 11.75 0.21875 11.5 0.5 11.5H3C3.25 11.5 3.5 11.75 3.5 12C3.5 12.2812 3.25 12.5 3 12.5H0.5C0.21875 12.5 0 12.2812 0 12ZM5.5 12C5.5 11.75 5.71875 11.5 6 11.5H8.5C8.75 11.5 9 11.75 9 12C9 12.2812 8.75 12.5 8.5 12.5H6C5.71875 12.5 5.5 12.2812 5.5 12ZM11 12C11 11.75 11.2188 11.5 11.5 11.5H14C14.25 11.5 14.5 11.75 14.5 12C14.5 12.2812 14.25 12.5 14 12.5H11.5C11.2188 12.5 11 12.2812 11 12ZM16.5 12C16.5 11.75 16.7188 11.5 17 11.5H19.5C19.75 11.5 20 11.75 20 12C20 12.2812 19.75 12.5 19.5 12.5H17C16.7188 12.5 16.5 12.2812 16.5 12Z" fill="black" fill-opacity="0.72"/>
</g>
<defs>
<clipPath id="clip0_1731_4017">
<rect width="20" height="24" fill="white"/>
</clipPath>
</defs>
</svg>
