<svg width="18" height="30" viewBox="0 0 18 30" fill="none" xmlns="http://www.w3.org/2000/svg">
<g id="label-paired / lg / square-check-lg / bold" clip-path="url(#clip0_1731_5518)">
<path id="icon" d="M2.75 8.625C2.35938 8.65104 2.15104 8.85938 2.125 9.25V21.75C2.15104 22.1406 2.35938 22.349 2.75 22.375H15.25C15.6406 22.349 15.849 22.1406 15.875 21.75V9.25C15.849 8.85938 15.6406 8.65104 15.25 8.625H2.75ZM0.25 9.25C0.276042 8.54688 0.523438 7.96094 0.992188 7.49219C1.46094 7.02344 2.04688 6.77604 2.75 6.75H15.25C15.9531 6.77604 16.5391 7.02344 17.0078 7.49219C17.4766 7.96094 17.724 8.54688 17.75 9.25V21.75C17.724 22.4531 17.4766 23.0391 17.0078 23.5078C16.5391 23.9766 15.9531 24.224 15.25 24.25H2.75C2.04688 24.224 1.46094 23.9766 0.992188 23.5078C0.523438 23.0391 0.276042 22.4531 0.25 21.75V9.25ZM13.4141 13.6641L8.41406 18.6641C7.97135 19.0286 7.52865 19.0286 7.08594 18.6641L4.58594 16.1641C4.22135 15.7214 4.22135 15.2786 4.58594 14.8359C5.02865 14.4714 5.47135 14.4714 5.91406 14.8359L7.75 16.6719L12.0859 12.3359C12.5286 11.9714 12.9714 11.9714 13.4141 12.3359C13.7786 12.7786 13.7786 13.2214 13.4141 13.6641Z" fill="black" fill-opacity="0.72"/>
</g>
<defs>
<clipPath id="clip0_1731_5518">
<rect width="18" height="30" fill="white"/>
</clipPath>
</defs>
</svg>
