<svg width="14" height="24" viewBox="0 0 14 24" fill="none" xmlns="http://www.w3.org/2000/svg">
<g id="label-paired / md / arrow-left-to-line-md / bold" clip-path="url(#clip0_1731_3442)">
<path id="icon" d="M0 17.25V6.75C0.0416667 6.29167 0.291667 6.04167 0.75 6C1.20833 6.04167 1.45833 6.29167 1.5 6.75V17.25C1.45833 17.7083 1.20833 17.9583 0.75 18C0.291667 17.9583 0.0416667 17.7083 0 17.25ZM4.25 11.4688L8.5 7.46875C8.85417 7.17708 9.19792 7.1875 9.53125 7.5C9.82292 7.85417 9.8125 8.20833 9.5 8.5625L6.65625 11.25H9.25H13.25C13.7083 11.2917 13.9583 11.5417 14 12C13.9583 12.4583 13.7083 12.7083 13.25 12.75H9.25H6.65625L9.53125 15.4688C9.82292 15.8021 9.83333 16.1562 9.5625 16.5312C9.20833 16.8229 8.85417 16.8333 8.5 16.5625L4.25 12.5625C4.08333 12.3958 4 12.2083 4 12C4 11.7917 4.08333 11.6146 4.25 11.4688Z" fill="black" fill-opacity="0.72"/>
</g>
<defs>
<clipPath id="clip0_1731_3442">
<rect width="14" height="24" fill="white"/>
</clipPath>
</defs>
</svg>
