<svg width="14" height="18" viewBox="0 0 14 18" fill="none" xmlns="http://www.w3.org/2000/svg">
<g id="label-paired / caption / arrow-up-a-z-caption / bold" clip-path="url(#clip0_1731_1138)">
<path id="icon" d="M10 4.25C10.2344 4.25 10.4062 4.35156 10.5156 4.55469L12.3906 8.30469C12.5 8.63281 12.4141 8.89062 12.1328 9.07812C11.8047 9.1875 11.5547 9.10156 11.3828 8.82031L11.0547 8.1875C11.0234 8.1875 10.9844 8.1875 10.9375 8.1875H8.94531L8.61719 8.82031C8.44531 9.11719 8.19531 9.20312 7.86719 9.07812C7.57031 8.89062 7.48438 8.63281 7.60938 8.30469L9.48438 4.55469C9.60938 4.36719 9.78125 4.26562 10 4.25ZM9.50781 7.0625H10.4922L10 6.07812L9.50781 7.0625ZM3.60156 4.41406C3.86719 4.19531 4.13281 4.19531 4.39844 4.41406L6.64844 6.66406C6.86719 6.92969 6.86719 7.19531 6.64844 7.46094C6.38281 7.67969 6.11719 7.67969 5.85156 7.46094L4.5625 6.17188V14.1875C4.53125 14.5312 4.34375 14.7188 4 14.75C3.65625 14.7188 3.46875 14.5312 3.4375 14.1875V6.17188L2.14844 7.46094C1.88281 7.67969 1.61719 7.67969 1.35156 7.46094C1.13281 7.19531 1.13281 6.92969 1.35156 6.66406L3.60156 4.41406ZM8.5 10.25H11.5C11.7344 10.2656 11.9062 10.375 12.0156 10.5781C12.1094 10.7969 12.0781 11 11.9219 11.1875L9.74219 13.625H11.5C11.8438 13.6562 12.0312 13.8438 12.0625 14.1875C12.0312 14.5312 11.8438 14.7188 11.5 14.75H8.5C8.26562 14.7344 8.09375 14.625 7.98438 14.4219C7.89062 14.2031 7.92188 14 8.07812 13.8125L10.2578 11.375H8.5C8.15625 11.3438 7.96875 11.1562 7.9375 10.8125C7.96875 10.4688 8.15625 10.2812 8.5 10.25Z" fill="black" fill-opacity="0.72"/>
</g>
<defs>
<clipPath id="clip0_1731_1138">
<rect width="14" height="18" fill="white"/>
</clipPath>
</defs>
</svg>
