<svg width="12" height="18" viewBox="0 0 12 18" fill="none" xmlns="http://www.w3.org/2000/svg">
<g id="label-paired / caption / circle-sort-down-caption / regular" clip-path="url(#clip0_1731_1121)">
<path id="icon" d="M0.75 9.5C0.765625 10.4531 1 11.3281 1.45312 12.125C1.92188 12.9219 2.5625 13.5625 3.375 14.0469C4.20312 14.5156 5.07812 14.75 6 14.75C6.92188 14.75 7.79688 14.5156 8.625 14.0469C9.4375 13.5625 10.0781 12.9219 10.5469 12.125C11 11.3281 11.2344 10.4531 11.25 9.5C11.2344 8.54688 11 7.67188 10.5469 6.875C10.0781 6.07812 9.4375 5.4375 8.625 4.95312C7.79688 4.48438 6.92188 4.25 6 4.25C5.07812 4.25 4.20312 4.48438 3.375 4.95312C2.5625 5.4375 1.92188 6.07812 1.45312 6.875C1 7.67188 0.765625 8.54688 0.75 9.5ZM12 9.5C11.9844 10.5938 11.7188 11.5938 11.2031 12.5C10.6719 13.4062 9.9375 14.1406 9 14.7031C8.04688 15.2344 7.04688 15.5 6 15.5C4.95312 15.5 3.95312 15.2344 3 14.7031C2.0625 14.1406 1.32812 13.4062 0.796875 12.5C0.28125 11.5938 0.015625 10.5938 0 9.5C0.015625 8.40625 0.28125 7.40625 0.796875 6.5C1.32812 5.59375 2.0625 4.85938 3 4.29688C3.95312 3.76562 4.95312 3.5 6 3.5C7.04688 3.5 8.04688 3.76562 9 4.29688C9.9375 4.85938 10.6719 5.59375 11.2031 6.5C11.7188 7.40625 11.9844 8.40625 12 9.5ZM5.74219 13.1328L3.49219 10.8828C3.38281 10.7734 3.35156 10.6406 3.39844 10.4844C3.47656 10.3281 3.59375 10.25 3.75 10.25H8.25C8.40625 10.2656 8.52344 10.3438 8.60156 10.4844C8.64844 10.6406 8.61719 10.7734 8.50781 10.8828L6.25781 13.1328C6.08594 13.2891 5.91406 13.2891 5.74219 13.1328ZM4.66406 11L6 12.3359L7.33594 11H4.66406ZM3.49219 8.11719L5.74219 5.86719C5.91406 5.71094 6.08594 5.71094 6.25781 5.86719L8.50781 8.11719C8.66406 8.28906 8.66406 8.46094 8.50781 8.63281C8.33594 8.78906 8.16406 8.78906 7.99219 8.63281L6 6.66406L4.00781 8.63281C3.83594 8.78906 3.66406 8.78906 3.49219 8.63281C3.33594 8.46094 3.33594 8.28906 3.49219 8.11719Z" fill="black" fill-opacity="0.72"/>
</g>
<defs>
<clipPath id="clip0_1731_1121">
<rect width="12" height="18" fill="white"/>
</clipPath>
</defs>
</svg>
