<svg width="18" height="22" viewBox="0 0 18 22" fill="none" xmlns="http://www.w3.org/2000/svg">
<g id="label-paired / sm / language-sm / bold" clip-path="url(#clip0_1731_2593)">
<path id="icon" d="M2 5.5H7.6875H8.5625H9H16C16.4922 5.51823 16.9023 5.69141 17.2305 6.01953C17.5586 6.34766 17.7318 6.75781 17.75 7.25V14.25C17.7318 14.7422 17.5586 15.1523 17.2305 15.4805C16.9023 15.8086 16.4922 15.9818 16 16H9H8.5625H7.6875H2C1.50781 15.9818 1.09766 15.8086 0.769531 15.4805C0.441406 15.1523 0.268229 14.7422 0.25 14.25V7.25C0.268229 6.75781 0.441406 6.34766 0.769531 6.01953C1.09766 5.69141 1.50781 5.51823 2 5.5ZM16 6.8125H9V14.6875H16C16.2734 14.6693 16.4193 14.5234 16.4375 14.25V7.25C16.4193 6.97656 16.2734 6.83073 16 6.8125ZM5.11719 8.5625C5.02604 8.36198 4.86198 8.2526 4.625 8.23438C4.38802 8.2526 4.22396 8.36198 4.13281 8.5625L2.38281 12.5C2.27344 12.8099 2.36458 13.0469 2.65625 13.2109C2.96615 13.3203 3.20312 13.2292 3.36719 12.9375L3.61328 12.3906H5.63672L5.88281 12.9375C6.04688 13.2292 6.28385 13.3203 6.59375 13.2109C6.88542 13.0469 6.97656 12.8099 6.86719 12.5L5.11719 8.5625ZM5.14453 11.2969H4.10547L4.625 10.1211L5.14453 11.2969ZM12.7188 8.23438C13.0469 8.27083 13.2292 8.45312 13.2656 8.78125V8.89062H14.4688H14.9062C15.2344 8.92708 15.4167 9.10938 15.4531 9.4375C15.4167 9.76562 15.2344 9.94792 14.9062 9.98438H14.8516L14.7969 10.1211C14.5599 10.7773 14.2044 11.3698 13.7305 11.8984C13.7305 11.8984 13.7396 11.9076 13.7578 11.9258C13.776 11.9258 13.7852 11.9349 13.7852 11.9531L14.3047 12.2539C14.5781 12.4544 14.6419 12.7005 14.4961 12.9922C14.2956 13.2656 14.0495 13.3294 13.7578 13.1836L13.2383 12.8828C13.1107 12.8099 12.9922 12.7279 12.8828 12.6367C12.5911 12.8555 12.2812 13.0378 11.9531 13.1836L11.8438 13.2109C11.5339 13.3203 11.2969 13.2292 11.1328 12.9375C11.0234 12.6276 11.1146 12.3906 11.4062 12.2266L11.5156 12.1719C11.6797 12.099 11.8438 12.0078 12.0078 11.8984L11.6797 11.5703C11.4609 11.3151 11.4609 11.0599 11.6797 10.8047C11.9349 10.5859 12.1901 10.5859 12.4453 10.8047L12.8555 11.2148C13.2018 10.8503 13.4753 10.4401 13.6758 9.98438H12.7188H10.75C10.4219 9.94792 10.2396 9.76562 10.2031 9.4375C10.2396 9.10938 10.4219 8.92708 10.75 8.89062H12.1719V8.78125C12.2083 8.45312 12.3906 8.27083 12.7188 8.23438Z" fill="black" fill-opacity="0.72"/>
</g>
<defs>
<clipPath id="clip0_1731_2593">
<rect width="18" height="22" fill="white"/>
</clipPath>
</defs>
</svg>
