<svg width="21" height="36" viewBox="0 0 21 36" fill="none" xmlns="http://www.w3.org/2000/svg">
<g id="label-paired / xl / floppy-disk-xl / regular" clip-path="url(#clip0_1731_6488)">
<path id="icon" d="M1.5 10.5V25.5C1.5 25.9375 1.64062 26.2969 1.92188 26.5781C2.20312 26.8594 2.5625 27 3 27H18C18.4375 27 18.7969 26.8594 19.0781 26.5781C19.3594 26.2969 19.5 25.9375 19.5 25.5V14.0156C19.5 13.5781 19.3594 13.2188 19.0781 12.9375L15.5625 9.42188C15.4062 9.26562 15.2188 9.15625 15 9.09375V13.5C15 13.9375 14.8594 14.2969 14.5781 14.5781C14.2969 14.8594 13.9375 15 13.5 15H4.5C4.0625 15 3.70312 14.8594 3.42188 14.5781C3.14062 14.2969 3 13.9375 3 13.5V9C2.5625 9 2.20312 9.14062 1.92188 9.42188C1.64062 9.70312 1.5 10.0625 1.5 10.5ZM4.5 9V13.5H13.5V9H4.5ZM0 10.5C0.03125 9.65625 0.328125 8.95312 0.890625 8.39062C1.45312 7.82812 2.15625 7.53125 3 7.5H14.4844C15.3281 7.5 16.0469 7.79687 16.6406 8.39062L20.1094 11.8594C20.7031 12.4531 21 13.1719 21 14.0156V25.5C20.9688 26.3438 20.6719 27.0469 20.1094 27.6094C19.5469 28.1719 18.8438 28.4688 18 28.5H3C2.15625 28.4688 1.45312 28.1719 0.890625 27.6094C0.328125 27.0469 0.03125 26.3438 0 25.5V10.5ZM12.75 21C12.7188 20.1562 12.3438 19.5 11.625 19.0312C10.875 18.6562 10.125 18.6562 9.375 19.0312C8.65625 19.5 8.28125 20.1562 8.25 21C8.28125 21.8438 8.65625 22.5 9.375 22.9688C10.125 23.3438 10.875 23.3438 11.625 22.9688C12.3438 22.5 12.7188 21.8438 12.75 21ZM10.5 17.25C11.9062 17.2812 12.9844 17.9062 13.7344 19.125C14.4219 20.375 14.4219 21.625 13.7344 22.875C12.9844 24.0938 11.9062 24.7188 10.5 24.75C9.09375 24.7188 8.01562 24.0938 7.26562 22.875C6.57812 21.625 6.57812 20.375 7.26562 19.125C8.01562 17.9062 9.09375 17.2812 10.5 17.25Z" fill="black" fill-opacity="0.72"/>
</g>
<defs>
<clipPath id="clip0_1731_6488">
<rect width="21" height="36" fill="white"/>
</clipPath>
</defs>
</svg>
