<svg width="11" height="18" viewBox="0 0 11 18" fill="none" xmlns="http://www.w3.org/2000/svg">
<g id="label-paired / caption / calendar-caption / bold" clip-path="url(#clip0_1731_596)">
<path id="icon" d="M3.8125 4.0625V5H7.1875V4.0625C7.21875 3.71875 7.40625 3.53125 7.75 3.5C8.09375 3.53125 8.28125 3.71875 8.3125 4.0625V5H9.25C9.67188 5.01562 10.0234 5.16406 10.3047 5.44531C10.5859 5.72656 10.7344 6.07812 10.75 6.5V6.875V8V14C10.7344 14.4219 10.5859 14.7734 10.3047 15.0547C10.0234 15.3359 9.67188 15.4844 9.25 15.5H1.75C1.32812 15.4844 0.976562 15.3359 0.695312 15.0547C0.414062 14.7734 0.265625 14.4219 0.25 14V8V6.875V6.5C0.265625 6.07812 0.414062 5.72656 0.695312 5.44531C0.976562 5.16406 1.32812 5.01562 1.75 5H2.6875V4.0625C2.71875 3.71875 2.90625 3.53125 3.25 3.5C3.59375 3.53125 3.78125 3.71875 3.8125 4.0625ZM1.375 8V14C1.39062 14.2344 1.51562 14.3594 1.75 14.375H9.25C9.48438 14.3594 9.60938 14.2344 9.625 14V8H1.375Z" fill="black" fill-opacity="0.72"/>
</g>
<defs>
<clipPath id="clip0_1731_596">
<rect width="11" height="18" fill="white"/>
</clipPath>
</defs>
</svg>
