<svg width="21" height="36" viewBox="0 0 21 36" fill="none" xmlns="http://www.w3.org/2000/svg">
<g id="label-paired / xl / unlock-xl / bold" clip-path="url(#clip0_1731_6614)">
<path id="icon" d="M6.75 12V15H18C18.8438 15.0312 19.5469 15.3281 20.1094 15.8906C20.6719 16.4531 20.9688 17.1562 21 18V27C20.9688 27.8438 20.6719 28.5469 20.1094 29.1094C19.5469 29.6719 18.8438 29.9688 18 30H3C2.15625 29.9688 1.45312 29.6719 0.890625 29.1094C0.328125 28.5469 0.03125 27.8438 0 27V18C0.03125 17.1562 0.328125 16.4531 0.890625 15.8906C1.45312 15.3281 2.15625 15.0312 3 15H4.5V12C4.53125 10.3125 5.10938 8.89062 6.23438 7.73438C7.39062 6.60938 8.8125 6.03125 10.5 6C11.8438 6.03125 13.0312 6.42188 14.0625 7.17188C15.0938 7.92188 15.8125 8.92188 16.2188 10.1719C16.375 10.8281 16.125 11.2969 15.4688 11.5781C14.8125 11.7344 14.3438 11.4844 14.0625 10.8281C13.8125 10.0781 13.375 9.46875 12.75 9C12.0938 8.5 11.3438 8.25 10.5 8.25C9.4375 8.28125 8.54688 8.64062 7.82812 9.32812C7.14062 10.0469 6.78125 10.9375 6.75 12ZM2.25 18V27C2.28125 27.4688 2.53125 27.7188 3 27.75H18C18.4688 27.7188 18.7188 27.4688 18.75 27V18C18.7188 17.5312 18.4688 17.2812 18 17.25H3C2.53125 17.2812 2.28125 17.5312 2.25 18Z" fill="black" fill-opacity="0.72"/>
</g>
<defs>
<clipPath id="clip0_1731_6614">
<rect width="21" height="36" fill="white"/>
</clipPath>
</defs>
</svg>
