<svg width="18" height="30" viewBox="0 0 18 30" fill="none" xmlns="http://www.w3.org/2000/svg">
<g id="label-paired / lg / calendar-lg / regular" clip-path="url(#clip0_1731_5324)">
<path id="icon" d="M4.625 5.5C5.01562 5.52604 5.22396 5.73438 5.25 6.125V8H12.75V6.125C12.776 5.73438 12.9844 5.52604 13.375 5.5C13.7656 5.52604 13.974 5.73438 14 6.125V8H15.25C15.9531 8.02604 16.5391 8.27344 17.0078 8.74219C17.4766 9.21094 17.724 9.79688 17.75 10.5V11.75V13V23C17.724 23.7031 17.4766 24.2891 17.0078 24.7578C16.5391 25.2266 15.9531 25.474 15.25 25.5H2.75C2.04688 25.474 1.46094 25.2266 0.992188 24.7578C0.523438 24.2891 0.276042 23.7031 0.25 23V13V11.75V10.5C0.276042 9.79688 0.523438 9.21094 0.992188 8.74219C1.46094 8.27344 2.04688 8.02604 2.75 8H4V6.125C4.02604 5.73438 4.23438 5.52604 4.625 5.5ZM16.5 13H1.5V23C1.5 23.3646 1.61719 23.6641 1.85156 23.8984C2.08594 24.1328 2.38542 24.25 2.75 24.25H15.25C15.6146 24.25 15.9141 24.1328 16.1484 23.8984C16.3828 23.6641 16.5 23.3646 16.5 23V13ZM15.25 9.25H2.75C2.38542 9.25 2.08594 9.36719 1.85156 9.60156C1.61719 9.83594 1.5 10.1354 1.5 10.5V11.75H16.5V10.5C16.5 10.1354 16.3828 9.83594 16.1484 9.60156C15.9141 9.36719 15.6146 9.25 15.25 9.25Z" fill="black" fill-opacity="0.72"/>
</g>
<defs>
<clipPath id="clip0_1731_5324">
<rect width="18" height="30" fill="white"/>
</clipPath>
</defs>
</svg>
