<svg width="18" height="36" viewBox="0 0 18 36" fill="none" xmlns="http://www.w3.org/2000/svg">
<g id="label-paired / xl / arrow-down-xl / bold" clip-path="url(#clip0_1731_5873)">
<path id="icon" d="M8.20312 28.1719L0.328125 19.9219C-0.109375 19.3594 -0.09375 18.8281 0.375 18.3281C0.90625 17.8906 1.42188 17.8906 1.92188 18.3281L7.875 24.5625V8.625C7.9375 7.9375 8.3125 7.5625 9 7.5C9.6875 7.5625 10.0625 7.9375 10.125 8.625V24.5625L16.0781 18.375C16.5781 17.9062 17.1094 17.8906 17.6719 18.3281C18.1094 18.8281 18.1094 19.3594 17.6719 19.9219L9.79688 28.1719C9.57812 28.3906 9.3125 28.5 9 28.5C8.6875 28.5 8.42188 28.3906 8.20312 28.1719Z" fill="black" fill-opacity="0.72"/>
</g>
<defs>
<clipPath id="clip0_1731_5873">
<rect width="18" height="36" fill="white"/>
</clipPath>
</defs>
</svg>
