<svg width="20" height="30" viewBox="0 0 20 30" fill="none" xmlns="http://www.w3.org/2000/svg">
<g id="label-paired / lg / cash-register-lg / bold" clip-path="url(#clip0_1731_5197)">
<path id="icon" d="M2.5 5.5H11.25C11.6146 5.5 11.9141 5.61719 12.1484 5.85156C12.3828 6.08594 12.5 6.38542 12.5 6.75V9.25C12.5 9.61458 12.3828 9.91406 12.1484 10.1484C11.9141 10.3828 11.6146 10.5 11.25 10.5H8.125V11.75H16.5625C17.2135 11.75 17.7604 11.9583 18.2031 12.375C18.6719 12.7656 18.9583 13.2734 19.0625 13.8984L19.9609 20.3438C19.987 20.4479 20 20.5651 20 20.6953V23C19.974 23.7031 19.7266 24.2891 19.2578 24.7578C18.7891 25.2266 18.2031 25.474 17.5 25.5H2.5C1.79688 25.474 1.21094 25.2266 0.742188 24.7578C0.273438 24.2891 0.0260417 23.7031 0 23V20.6953C0 20.6172 0 20.5521 0 20.5C0 20.4479 0.0130208 20.3958 0.0390625 20.3438L0.9375 13.8984C1.04167 13.2734 1.32812 12.7656 1.79688 12.375C2.23958 11.9583 2.78646 11.75 3.4375 11.75H5.625V10.5H2.5C2.13542 10.5 1.83594 10.3828 1.60156 10.1484C1.36719 9.91406 1.25 9.61458 1.25 9.25V6.75C1.25 6.38542 1.36719 6.08594 1.60156 5.85156C1.83594 5.61719 2.13542 5.5 2.5 5.5ZM3.75 7.375C3.35938 7.40104 3.15104 7.60938 3.125 8C3.15104 8.39062 3.35938 8.59896 3.75 8.625H10C10.3906 8.59896 10.599 8.39062 10.625 8C10.599 7.60938 10.3906 7.40104 10 7.375H3.75ZM1.875 23C1.90104 23.3906 2.10938 23.599 2.5 23.625H17.5C17.8906 23.599 18.099 23.3906 18.125 23V22.375H1.875V23ZM17.1875 14.1719C17.1354 13.8333 16.9401 13.651 16.6016 13.625H3.4375C3.07292 13.651 2.86458 13.8333 2.8125 14.1719L1.91406 20.5H18.125L17.1875 14.1719ZM4.375 14.5625C4.94792 14.6146 5.26042 14.9271 5.3125 15.5C5.26042 16.0729 4.94792 16.3854 4.375 16.4375C3.80208 16.3854 3.48958 16.0729 3.4375 15.5C3.48958 14.9271 3.80208 14.6146 4.375 14.5625ZM7.1875 15.5C7.23958 14.9271 7.55208 14.6146 8.125 14.5625C8.69792 14.6146 9.01042 14.9271 9.0625 15.5C9.01042 16.0729 8.69792 16.3854 8.125 16.4375C7.55208 16.3854 7.23958 16.0729 7.1875 15.5ZM6.25 17.6875C6.82292 17.7396 7.13542 18.0521 7.1875 18.625C7.13542 19.1979 6.82292 19.5104 6.25 19.5625C5.67708 19.5104 5.36458 19.1979 5.3125 18.625C5.36458 18.0521 5.67708 17.7396 6.25 17.6875ZM10.9375 15.5C10.9896 14.9271 11.3021 14.6146 11.875 14.5625C12.4479 14.6146 12.7604 14.9271 12.8125 15.5C12.7604 16.0729 12.4479 16.3854 11.875 16.4375C11.3021 16.3854 10.9896 16.0729 10.9375 15.5ZM10 17.6875C10.5729 17.7396 10.8854 18.0521 10.9375 18.625C10.8854 19.1979 10.5729 19.5104 10 19.5625C9.42708 19.5104 9.11458 19.1979 9.0625 18.625C9.11458 18.0521 9.42708 17.7396 10 17.6875ZM14.6875 15.5C14.7396 14.9271 15.0521 14.6146 15.625 14.5625C16.1979 14.6146 16.5104 14.9271 16.5625 15.5C16.5104 16.0729 16.1979 16.3854 15.625 16.4375C15.0521 16.3854 14.7396 16.0729 14.6875 15.5ZM13.75 17.6875C14.3229 17.7396 14.6354 18.0521 14.6875 18.625C14.6354 19.1979 14.3229 19.5104 13.75 19.5625C13.1771 19.5104 12.8646 19.1979 12.8125 18.625C12.8646 18.0521 13.1771 17.7396 13.75 17.6875Z" fill="black" fill-opacity="0.72"/>
</g>
<defs>
<clipPath id="clip0_1731_5197">
<rect width="20" height="30" fill="white"/>
</clipPath>
</defs>
</svg>
