<svg width="12" height="18" viewBox="0 0 12 18" fill="none" xmlns="http://www.w3.org/2000/svg">
<g id="label-paired / caption / globe-caption / regular" clip-path="url(#clip0_1731_1313)">
<path id="icon" d="M6 14.75C6.20312 14.75 6.42969 14.6484 6.67969 14.4453C6.92969 14.2422 7.1875 13.8984 7.45312 13.4141C7.6875 12.9453 7.875 12.3906 8.01562 11.75H3.98438C4.125 12.3906 4.3125 12.9453 4.54688 13.4141C4.8125 13.8984 5.07031 14.2422 5.32031 14.4453C5.57031 14.6484 5.79688 14.75 6 14.75ZM3.84375 11H8.15625C8.21875 10.5312 8.25 10.0312 8.25 9.5C8.25 8.96875 8.21875 8.46875 8.15625 8H3.84375C3.78125 8.46875 3.75 8.96875 3.75 9.5C3.75 10.0312 3.78125 10.5312 3.84375 11ZM3.98438 7.25H8.01562C7.875 6.60938 7.6875 6.05469 7.45312 5.58594C7.1875 5.10156 6.92969 4.75781 6.67969 4.55469C6.42969 4.35156 6.20312 4.25 6 4.25C5.79688 4.25 5.57031 4.35156 5.32031 4.55469C5.07031 4.75781 4.8125 5.10156 4.54688 5.58594C4.3125 6.05469 4.125 6.60938 3.98438 7.25ZM8.90625 8C8.96875 8.48438 9 8.98438 9 9.5C9 10.0156 8.96875 10.5156 8.90625 11H11.0391C11.1797 10.5156 11.25 10.0156 11.25 9.5C11.25 8.98438 11.1797 8.48438 11.0391 8H8.90625ZM10.7578 7.25C10.4453 6.60938 10.0234 6.05469 9.49219 5.58594C8.96094 5.11719 8.35938 4.76562 7.6875 4.53125C8.1875 5.20312 8.55469 6.10938 8.78906 7.25H10.7578ZM3.21094 7.25C3.44531 6.10938 3.82031 5.20312 4.33594 4.53125C3.64844 4.76562 3.03906 5.11719 2.50781 5.58594C1.97656 6.05469 1.5625 6.60938 1.26562 7.25H3.21094ZM0.960938 8C0.820312 8.48438 0.75 8.98438 0.75 9.5C0.75 10.0156 0.820312 10.5156 0.960938 11H3.09375C3.03125 10.5156 3 10.0156 3 9.5C3 8.98438 3.03125 8.48438 3.09375 8H0.960938ZM7.6875 14.4688C8.35938 14.2344 8.96094 13.8828 9.49219 13.4141C10.0234 12.9453 10.4375 12.3906 10.7344 11.75H8.78906C8.55469 12.8906 8.1875 13.7969 7.6875 14.4688ZM4.33594 14.4688C3.82031 13.7969 3.44531 12.8906 3.21094 11.75H1.26562C1.5625 12.3906 1.97656 12.9453 2.50781 13.4141C3.03906 13.8828 3.64844 14.2344 4.33594 14.4688ZM6 15.5C4.90625 15.4844 3.90625 15.2188 3 14.7031C2.09375 14.1719 1.35938 13.4375 0.796875 12.5C0.265625 11.5469 0 10.5469 0 9.5C0 8.45312 0.265625 7.45312 0.796875 6.5C1.35938 5.5625 2.09375 4.82812 3 4.29688C3.90625 3.78125 4.90625 3.51563 6 3.5C7.09375 3.51563 8.09375 3.78125 9 4.29688C9.90625 4.82812 10.6406 5.5625 11.2031 6.5C11.7344 7.45312 12 8.45312 12 9.5C12 10.5469 11.7344 11.5469 11.2031 12.5C10.6406 13.4375 9.90625 14.1719 9 14.7031C8.09375 15.2188 7.09375 15.4844 6 15.5Z" fill="black" fill-opacity="0.72"/>
</g>
<defs>
<clipPath id="clip0_1731_1313">
<rect width="12" height="18" fill="white"/>
</clipPath>
</defs>
</svg>
