<svg width="14" height="22" viewBox="0 0 14 22" fill="none" xmlns="http://www.w3.org/2000/svg">
<g id="label-paired / sm / gear-sm / bold" clip-path="url(#clip0_1731_1849)">
<path id="icon" d="M7 3.75C7.47396 3.75 7.92969 3.79557 8.36719 3.88672C8.47656 3.90495 8.61328 3.95052 8.77734 4.02344C8.92318 4.11458 9.05078 4.2513 9.16016 4.43359C9.21484 4.52474 9.26042 4.63411 9.29688 4.76172L9.54297 5.80078C9.57943 5.89193 9.64323 5.96484 9.73438 6.01953C9.82552 6.07422 9.91667 6.09245 10.0078 6.07422L11.0469 5.77344C11.1562 5.73698 11.2656 5.71875 11.375 5.71875C11.5938 5.71875 11.776 5.76432 11.9219 5.85547C12.0859 5.94661 12.2044 6.03776 12.2773 6.12891C12.8789 6.82161 13.3255 7.61458 13.6172 8.50781C13.6719 8.61719 13.6992 8.75391 13.6992 8.91797C13.7174 9.10026 13.6719 9.28255 13.5625 9.46484C13.4896 9.55599 13.4167 9.64714 13.3438 9.73828L12.5508 10.4766C12.4961 10.5495 12.4688 10.6406 12.4688 10.75C12.4688 10.8594 12.4961 10.9505 12.5508 11.0234L13.3438 11.7617C13.4167 11.8529 13.4896 11.944 13.5625 12.0352C13.6536 12.2357 13.6992 12.418 13.6992 12.582C13.6992 12.7643 13.6719 12.901 13.6172 12.9922C13.3255 13.8854 12.8789 14.6784 12.2773 15.3711C12.2044 15.4622 12.0859 15.5534 11.9219 15.6445C11.776 15.7357 11.5938 15.7812 11.375 15.7812C11.2656 15.7812 11.1562 15.763 11.0469 15.7266L10.0078 15.4258C9.91667 15.4076 9.82552 15.4258 9.73438 15.4805C9.64323 15.5352 9.57943 15.6081 9.54297 15.6992L9.29688 16.7383C9.26042 16.8659 9.21484 16.9753 9.16016 17.0664C9.05078 17.2487 8.92318 17.3854 8.77734 17.4766C8.61328 17.5495 8.47656 17.5951 8.36719 17.6133C7.92969 17.7044 7.47396 17.75 7 17.75C6.52604 17.75 6.07031 17.7044 5.63281 17.6133C5.52344 17.5951 5.38672 17.5495 5.22266 17.4766C5.07682 17.3854 4.94922 17.2487 4.83984 17.0664C4.78516 16.9753 4.73958 16.8659 4.70312 16.7383L4.45703 15.6992C4.42057 15.6081 4.35677 15.5352 4.26562 15.4805C4.17448 15.4258 4.08333 15.4076 3.99219 15.4258L2.95312 15.7266C2.84375 15.763 2.73438 15.7812 2.625 15.7812C2.40625 15.7812 2.22396 15.7357 2.07812 15.6445C1.91406 15.5534 1.80469 15.4622 1.75 15.3711C1.13021 14.6784 0.674479 13.8854 0.382812 12.9922C0.328125 12.8828 0.300781 12.7461 0.300781 12.582C0.282552 12.3997 0.328125 12.2174 0.4375 12.0352C0.510417 11.944 0.583333 11.8529 0.65625 11.7617L1.44922 11.0234C1.50391 10.9505 1.53125 10.8594 1.53125 10.75C1.53125 10.6406 1.50391 10.5495 1.44922 10.4766L0.65625 9.73828C0.583333 9.64714 0.510417 9.55599 0.4375 9.46484C0.328125 9.26432 0.282552 9.08203 0.300781 8.91797C0.300781 8.73568 0.328125 8.59896 0.382812 8.50781C0.674479 7.63281 1.13021 6.83984 1.75 6.12891C1.80469 6.03776 1.91406 5.94661 2.07812 5.85547C2.22396 5.76432 2.40625 5.71875 2.625 5.71875C2.73438 5.71875 2.84375 5.73698 2.95312 5.77344L3.99219 6.07422C4.08333 6.09245 4.17448 6.07422 4.26562 6.01953C4.35677 5.96484 4.42057 5.89193 4.45703 5.80078L4.70312 4.76172C4.73958 4.63411 4.78516 4.52474 4.83984 4.43359C4.94922 4.2513 5.07682 4.11458 5.22266 4.02344C5.38672 3.95052 5.52344 3.90495 5.63281 3.88672C6.07031 3.79557 6.52604 3.75 7 3.75ZM5.96094 5.14453L5.74219 6.12891C5.61458 6.56641 5.34115 6.90365 4.92188 7.14062C4.5026 7.3776 4.0651 7.44141 3.60938 7.33203L2.67969 7.05859C2.22396 7.58724 1.8776 8.1888 1.64062 8.86328L2.35156 9.54688C2.67969 9.875 2.84375 10.276 2.84375 10.75C2.84375 11.224 2.67969 11.6341 2.35156 11.9805L1.64062 12.6367C1.8776 13.3112 2.22396 13.9128 2.67969 14.4414L3.63672 14.168C4.07422 14.0404 4.5026 14.1042 4.92188 14.3594C5.34115 14.5964 5.61458 14.9336 5.74219 15.3711L5.96094 16.3555C6.65365 16.4648 7.34635 16.4648 8.03906 16.3555L8.28516 15.3711C8.41276 14.9336 8.67708 14.5964 9.07812 14.3594C9.4974 14.1224 9.9349 14.0586 10.3906 14.168L11.3203 14.4414C11.776 13.9128 12.1224 13.3112 12.3594 12.6367L11.6484 11.9531C11.3203 11.625 11.1562 11.224 11.1562 10.75C11.1562 10.276 11.3203 9.86589 11.6484 9.51953L12.3594 8.86328C12.1224 8.1888 11.776 7.58724 11.3203 7.05859L10.3906 7.33203C9.9349 7.45964 9.4974 7.39583 9.07812 7.14062C8.67708 6.90365 8.41276 6.55729 8.28516 6.10156L8.03906 5.14453C7.34635 5.03516 6.65365 5.03516 5.96094 5.14453ZM5.6875 10.75C5.70573 11.2422 5.92448 11.625 6.34375 11.8984C6.78125 12.1172 7.21875 12.1172 7.65625 11.8984C8.07552 11.625 8.29427 11.2422 8.3125 10.75C8.29427 10.2578 8.07552 9.875 7.65625 9.60156C7.21875 9.38281 6.78125 9.38281 6.34375 9.60156C5.92448 9.875 5.70573 10.2578 5.6875 10.75ZM7 13.375C6.52604 13.375 6.08854 13.2565 5.6875 13.0195C5.28646 12.7826 4.96745 12.4635 4.73047 12.0625C4.49349 11.6432 4.375 11.2057 4.375 10.75C4.375 10.2943 4.49349 9.85677 4.73047 9.4375C4.96745 9.03646 5.28646 8.71745 5.6875 8.48047C6.08854 8.24349 6.52604 8.125 7 8.125C7.47396 8.125 7.91146 8.24349 8.3125 8.48047C8.71354 8.71745 9.03255 9.03646 9.26953 9.4375C9.50651 9.85677 9.625 10.2943 9.625 10.75C9.625 11.2057 9.50651 11.6432 9.26953 12.0625C9.03255 12.4635 8.71354 12.7826 8.3125 13.0195C7.91146 13.2565 7.47396 13.375 7 13.375Z" fill="black" fill-opacity="0.72"/>
</g>
<defs>
<clipPath id="clip0_1731_1849">
<rect width="14" height="22" fill="white"/>
</clipPath>
</defs>
</svg>
