<svg width="12" height="18" viewBox="0 0 12 18" fill="none" xmlns="http://www.w3.org/2000/svg">
<g id="label-paired / caption / scissors-caption / bold" clip-path="url(#clip0_1731_1453)">
<path id="icon" d="M11.8594 13.7891C11.625 14.0391 11.3672 14.0625 11.0859 13.8594L7.3125 10.7188L8.20312 9.99219L11.7891 13.0156C12.0391 13.25 12.0625 13.5078 11.8594 13.7891ZM2.625 4.625C2.0625 4.64062 1.63281 4.89062 1.33594 5.375C1.05469 5.875 1.05469 6.375 1.33594 6.875C1.63281 7.35938 2.0625 7.60938 2.625 7.625C3.1875 7.60938 3.61719 7.35938 3.91406 6.875C4.19531 6.375 4.19531 5.875 3.91406 5.375C3.61719 4.89062 3.1875 4.64062 2.625 4.625ZM2.625 3.5C3.375 3.51563 3.99219 3.77344 4.47656 4.27344C4.97656 4.75781 5.23438 5.375 5.25 6.125C5.25 6.54688 5.15625 6.9375 4.96875 7.29688L6.75 8.77344L11.0859 5.14062C11.3672 4.9375 11.625 4.96094 11.8594 5.21094C12.0625 5.49219 12.0391 5.75 11.7891 5.98438L4.96875 11.7031C5.15625 12.0625 5.25 12.4531 5.25 12.875C5.23438 13.625 4.97656 14.2422 4.47656 14.7266C3.99219 15.2266 3.375 15.4844 2.625 15.5C1.875 15.4844 1.25781 15.2266 0.773438 14.7266C0.273438 14.2422 0.015625 13.625 0 12.875C0.015625 12.125 0.273438 11.5078 0.773438 11.0234C1.25781 10.5234 1.875 10.2656 2.625 10.25C3.26562 10.2656 3.8125 10.4609 4.26562 10.8359L5.85938 9.5L4.26562 8.16406C3.8125 8.53906 3.26562 8.73438 2.625 8.75C1.875 8.73438 1.25781 8.47656 0.773438 7.97656C0.273438 7.49219 0.015625 6.875 0 6.125C0.015625 5.375 0.273438 4.75781 0.773438 4.27344C1.25781 3.77344 1.875 3.51563 2.625 3.5ZM4.125 12.875C4.10938 12.3125 3.85938 11.8828 3.375 11.5859C2.875 11.3047 2.375 11.3047 1.875 11.5859C1.39062 11.8828 1.14062 12.3125 1.125 12.875C1.14062 13.4375 1.39062 13.8672 1.875 14.1641C2.375 14.4453 2.875 14.4453 3.375 14.1641C3.85938 13.8672 4.10938 13.4375 4.125 12.875Z" fill="black" fill-opacity="0.72"/>
</g>
<defs>
<clipPath id="clip0_1731_1453">
<rect width="12" height="18" fill="white"/>
</clipPath>
</defs>
</svg>
