<svg width="16" height="24" viewBox="0 0 16 24" fill="none" xmlns="http://www.w3.org/2000/svg">
<g id="label-paired / md / barcode-md / regular" clip-path="url(#clip0_1731_4248)">
<path id="icon" d="M0 5.5C0.0208333 5.1875 0.1875 5.02083 0.5 5C0.8125 5.02083 0.979167 5.1875 1 5.5V18.5C0.979167 18.8125 0.8125 18.9792 0.5 19C0.1875 18.9792 0.0208333 18.8125 0 18.5V5.5ZM2 5.5C2.02083 5.1875 2.1875 5.02083 2.5 5C2.8125 5.02083 2.97917 5.1875 3 5.5V18.5C2.97917 18.8125 2.8125 18.9792 2.5 19C2.1875 18.9792 2.02083 18.8125 2 18.5V5.5ZM4.5 5C4.8125 5.02083 4.97917 5.1875 5 5.5V18.5C4.97917 18.8125 4.8125 18.9792 4.5 19C4.1875 18.9792 4.02083 18.8125 4 18.5V5.5C4.02083 5.1875 4.1875 5.02083 4.5 5ZM7 5.5C7.02083 5.1875 7.1875 5.02083 7.5 5C7.8125 5.02083 7.97917 5.1875 8 5.5V18.5C7.97917 18.8125 7.8125 18.9792 7.5 19C7.1875 18.9792 7.02083 18.8125 7 18.5V5.5ZM9.5 5C9.8125 5.02083 9.97917 5.1875 10 5.5V18.5C9.97917 18.8125 9.8125 18.9792 9.5 19C9.1875 18.9792 9.02083 18.8125 9 18.5V5.5C9.02083 5.1875 9.1875 5.02083 9.5 5ZM12 5.5C12.0208 5.1875 12.1875 5.02083 12.5 5C12.8125 5.02083 12.9792 5.1875 13 5.5V18.5C12.9792 18.8125 12.8125 18.9792 12.5 19C12.1875 18.9792 12.0208 18.8125 12 18.5V5.5ZM15.5 5C15.8125 5.02083 15.9792 5.1875 16 5.5V18.5C15.9792 18.8125 15.8125 18.9792 15.5 19C15.1875 18.9792 15.0208 18.8125 15 18.5V5.5C15.0208 5.1875 15.1875 5.02083 15.5 5Z" fill="black" fill-opacity="0.72"/>
</g>
<defs>
<clipPath id="clip0_1731_4248">
<rect width="16" height="24" fill="white"/>
</clipPath>
</defs>
</svg>
