<svg width="13" height="30" viewBox="0 0 13 30" fill="none" xmlns="http://www.w3.org/2000/svg">
<g id="label-paired / lg / pause-lg / fill" clip-path="url(#clip0_1731_5006)">
<path id="icon" d="M2.125 8H3.375C3.89583 8.02604 4.33854 8.20833 4.70312 8.54688C5.04167 8.91146 5.22396 9.35417 5.25 9.875V21.125C5.22396 21.6458 5.04167 22.0885 4.70312 22.4531C4.33854 22.7917 3.89583 22.974 3.375 23H2.125C1.60417 22.974 1.16146 22.7917 0.796875 22.4531C0.458333 22.0885 0.276042 21.6458 0.25 21.125V9.875C0.276042 9.35417 0.458333 8.91146 0.796875 8.54688C1.16146 8.20833 1.60417 8.02604 2.125 8ZM9.625 8H10.875C11.3958 8.02604 11.8385 8.20833 12.2031 8.54688C12.5417 8.91146 12.724 9.35417 12.75 9.875V21.125C12.724 21.6458 12.5417 22.0885 12.2031 22.4531C11.8385 22.7917 11.3958 22.974 10.875 23H9.625C9.10417 22.974 8.66146 22.7917 8.29688 22.4531C7.95833 22.0885 7.77604 21.6458 7.75 21.125V9.875C7.77604 9.35417 7.95833 8.91146 8.29688 8.54688C8.66146 8.20833 9.10417 8.02604 9.625 8Z" fill="black" fill-opacity="0.72"/>
</g>
<defs>
<clipPath id="clip0_1731_5006">
<rect width="13" height="30" fill="white"/>
</clipPath>
</defs>
</svg>
