<svg width="23" height="30" viewBox="0 0 23 30" fill="none" xmlns="http://www.w3.org/2000/svg">
<g id="label-paired / lg / eye-lg / regular" clip-path="url(#clip0_1731_5354)">
<path id="icon" d="M4.82031 10.8125C3.98698 11.6198 3.28385 12.4401 2.71094 13.2734C2.16406 14.1068 1.76042 14.849 1.5 15.5C1.76042 16.151 2.16406 16.8932 2.71094 17.7266C3.28385 18.5599 3.98698 19.3802 4.82031 20.1875C5.67969 20.9948 6.65625 21.6589 7.75 22.1797C8.86979 22.7005 10.1198 22.974 11.5 23C12.8802 22.974 14.1302 22.7005 15.25 22.1797C16.3438 21.6589 17.3203 20.9948 18.1797 20.1875C19.013 19.3802 19.7161 18.5599 20.2891 17.7266C20.8359 16.8932 21.2396 16.151 21.5 15.5C21.2396 14.849 20.8359 14.1068 20.2891 13.2734C19.7161 12.4401 19.013 11.6198 18.1797 10.8125C17.3203 10.0052 16.3438 9.34115 15.25 8.82031C14.1302 8.29948 12.8802 8.02604 11.5 8C10.1198 8.02604 8.86979 8.29948 7.75 8.82031C6.65625 9.34115 5.67969 10.0052 4.82031 10.8125ZM11.5 6.75C13.0885 6.77604 14.5078 7.08854 15.7578 7.6875C17.0078 8.28646 18.1016 9.02865 19.0391 9.91406C19.9505 10.7734 20.7057 11.6589 21.3047 12.5703C21.9036 13.4818 22.3594 14.3021 22.6719 15.0312C22.8021 15.3438 22.8021 15.6562 22.6719 15.9688C22.3594 16.6979 21.9036 17.5182 21.3047 18.4297C20.7057 19.3411 19.9505 20.2266 19.0391 21.0859C18.1016 21.9714 17.0078 22.7135 15.7578 23.3125C14.5078 23.9115 13.0885 24.224 11.5 24.25C9.91146 24.224 8.49219 23.9115 7.24219 23.3125C5.99219 22.7135 4.89844 21.9714 3.96094 21.0859C3.04948 20.2266 2.29427 19.3411 1.69531 18.4297C1.09635 17.5182 0.653646 16.6979 0.367188 15.9688C0.236979 15.6562 0.236979 15.3438 0.367188 15.0312C0.653646 14.3021 1.09635 13.4818 1.69531 12.5703C2.29427 11.6589 3.04948 10.7734 3.96094 9.91406C4.89844 9.02865 5.99219 8.28646 7.24219 7.6875C8.49219 7.08854 9.91146 6.77604 11.5 6.75ZM7.75 15.5C7.75 16.1771 7.91927 16.8021 8.25781 17.375C8.59635 17.9479 9.05208 18.4036 9.625 18.7422C10.224 19.0807 10.849 19.25 11.5 19.25C12.151 19.25 12.776 19.0807 13.375 18.7422C13.9479 18.4036 14.4036 17.9479 14.7422 17.375C15.0807 16.8021 15.25 16.1771 15.25 15.5C15.25 14.8229 15.0807 14.1979 14.7422 13.625C14.4036 13.0521 13.9479 12.5964 13.375 12.2578C12.776 11.9193 12.151 11.75 11.5 11.75C10.849 11.75 10.224 11.9193 9.625 12.2578C9.05208 12.5964 8.59635 13.0521 8.25781 13.625C7.91927 14.1979 7.75 14.8229 7.75 15.5ZM16.5 15.5C16.5 16.4115 16.2786 17.2448 15.8359 18C15.3932 18.7552 14.7812 19.3672 14 19.8359C13.2188 20.2786 12.3854 20.5 11.5 20.5C10.6146 20.5 9.78125 20.2786 9 19.8359C8.21875 19.3672 7.60677 18.7552 7.16406 18C6.72135 17.2448 6.5 16.4115 6.5 15.5C6.5 14.5885 6.72135 13.7552 7.16406 13C7.60677 12.2448 8.21875 11.6328 9 11.1641C9.78125 10.7214 10.6146 10.5 11.5 10.5C12.3854 10.5 13.2188 10.7214 14 11.1641C14.7812 11.6328 15.3932 12.2448 15.8359 13C16.2786 13.7552 16.5 14.5885 16.5 15.5Z" fill="black" fill-opacity="0.72"/>
</g>
<defs>
<clipPath id="clip0_1731_5354">
<rect width="23" height="30" fill="white"/>
</clipPath>
</defs>
</svg>
