<svg width="16" height="24" viewBox="0 0 16 24" fill="none" xmlns="http://www.w3.org/2000/svg">
<g id="label-paired / md / pen-md / regular" clip-path="url(#clip0_1731_3982)">
<path id="icon" d="M12.375 5.25L10.6562 6.9375L13.0625 9.34375L14.75 7.625C15.0417 7.27083 15.0417 6.91667 14.75 6.5625L13.4375 5.25C13.0833 4.95833 12.7292 4.95833 12.375 5.25ZM9.9375 7.65625L2.59375 15C2.36458 15.25 2.19792 15.5417 2.09375 15.875L1.25 18.75L4.125 17.9062C4.45833 17.8021 4.75 17.6354 5 17.4062L12.3438 10.0625L9.9375 7.65625ZM14.125 4.53125L15.4688 5.875C15.8021 6.22917 15.9688 6.63542 15.9688 7.09375C15.9688 7.57292 15.8021 7.98958 15.4688 8.34375L5.6875 18.0938C5.33333 18.4688 4.91667 18.7292 4.4375 18.875L0.65625 19.9688C0.447917 20.0312 0.28125 19.9896 0.15625 19.8438C0.0104167 19.7188 -0.03125 19.5625 0.03125 19.375L1.125 15.5938C1.27083 15.0938 1.52083 14.6667 1.875 14.3125L11.6562 4.53125C12.0104 4.19792 12.4271 4.03125 12.9062 4.03125C13.3646 4.03125 13.7708 4.19792 14.125 4.53125Z" fill="black" fill-opacity="0.72"/>
</g>
<defs>
<clipPath id="clip0_1731_3982">
<rect width="16" height="24" fill="white"/>
</clipPath>
</defs>
</svg>
