<svg width="11" height="18" viewBox="0 0 11 18" fill="none" xmlns="http://www.w3.org/2000/svg">
<g id="label-paired / caption / instagram-caption" clip-path="url(#clip0_1731_13797)">
<path id="icon" d="M5.5 6.80469C6.26562 6.82031 6.89844 7.08594 7.39844 7.60156C7.91406 8.10156 8.17969 8.73438 8.19531 9.5C8.17969 10.2656 7.91406 10.8984 7.39844 11.3984C6.89844 11.9141 6.26562 12.1797 5.5 12.1953C4.73438 12.1797 4.10156 11.9141 3.60156 11.3984C3.08594 10.8984 2.82031 10.2656 2.80469 9.5C2.82031 8.73438 3.08594 8.10156 3.60156 7.60156C4.10156 7.08594 4.73438 6.82031 5.5 6.80469ZM5.5 11.2578C6 11.2422 6.41406 11.0703 6.74219 10.7422C7.07031 10.4141 7.24219 10 7.25781 9.5C7.24219 9 7.07031 8.58594 6.74219 8.25781C6.41406 7.92969 6 7.75781 5.5 7.74219C5 7.75781 4.58594 7.92969 4.25781 8.25781C3.92969 8.58594 3.75781 9 3.74219 9.5C3.75781 10 3.92969 10.4141 4.25781 10.7422C4.58594 11.0703 5 11.2422 5.5 11.2578ZM8.94531 6.6875C8.92969 6.51562 8.86719 6.36719 8.75781 6.24219C8.63281 6.13281 8.48438 6.07812 8.3125 6.07812C8.125 6.07812 7.97656 6.13281 7.86719 6.24219C7.74219 6.36719 7.67969 6.51562 7.67969 6.6875C7.71094 7.07812 7.92188 7.28906 8.3125 7.32031C8.6875 7.28906 8.89844 7.07812 8.94531 6.6875ZM10.7266 7.34375V7.32031C10.7422 7.63281 10.75 8.07812 10.75 8.65625C10.75 9.21875 10.75 9.78125 10.75 10.3438C10.75 10.9062 10.7422 11.3438 10.7266 11.6562C10.7266 12.5156 10.4375 13.25 9.85938 13.8594C9.25 14.4375 8.52344 14.7188 7.67969 14.7031C7.36719 14.7188 6.92188 14.7344 6.34375 14.75C5.78125 14.75 5.21875 14.75 4.65625 14.75C4.07812 14.7344 3.64062 14.7188 3.34375 14.7031C2.48438 14.7188 1.75 14.4375 1.14062 13.8594C0.5625 13.25 0.28125 12.5156 0.296875 11.6562C0.265625 11.3438 0.25 10.9062 0.25 10.3438C0.25 9.78125 0.25 9.21875 0.25 8.65625C0.25 8.07812 0.265625 7.63281 0.296875 7.32031C0.28125 6.47656 0.5625 5.75 1.14062 5.14062C1.76562 4.5625 2.5 4.27344 3.34375 4.27344C3.64062 4.25781 4.07812 4.25 4.65625 4.25C5.21875 4.25 5.78125 4.25 6.34375 4.25C6.92188 4.25 7.36719 4.25781 7.67969 4.27344C8.52344 4.27344 9.25 4.5625 9.85938 5.14062C10.4375 5.75 10.7266 6.48438 10.7266 7.34375ZM9.60156 12.5938C9.71094 12.2812 9.77344 11.8594 9.78906 11.3281C9.82031 10.7969 9.82812 10.3125 9.8125 9.875C9.8125 9.73438 9.8125 9.60938 9.8125 9.5C9.8125 9.39062 9.8125 9.26562 9.8125 9.125C9.82812 8.6875 9.82031 8.20312 9.78906 7.67188C9.77344 7.14062 9.71094 6.71875 9.60156 6.40625C9.39844 5.9375 9.0625 5.60156 8.59375 5.39844C8.28125 5.28906 7.85938 5.22656 7.32812 5.21094C6.79688 5.19531 6.3125 5.1875 5.875 5.1875C5.73438 5.1875 5.60938 5.1875 5.5 5.1875C5.39062 5.1875 5.26562 5.1875 5.125 5.1875C4.6875 5.17188 4.20312 5.17969 3.67188 5.21094C3.15625 5.22656 2.73438 5.28906 2.40625 5.39844C1.9375 5.60156 1.60156 5.9375 1.39844 6.40625C1.28906 6.71875 1.22656 7.14062 1.21094 7.67188C1.19531 8.20312 1.1875 8.6875 1.1875 9.125C1.1875 9.26562 1.1875 9.39062 1.1875 9.5C1.1875 9.60938 1.1875 9.73438 1.1875 9.875C1.1875 10.3125 1.19531 10.7969 1.21094 11.3281C1.22656 11.8438 1.28906 12.2656 1.39844 12.5938C1.60156 13.0625 1.9375 13.3984 2.40625 13.6016C2.73438 13.7109 3.15625 13.7734 3.67188 13.7891C4.20312 13.8047 4.6875 13.8125 5.125 13.8125C5.26562 13.8125 5.39062 13.8125 5.5 13.8125C5.60938 13.8125 5.73438 13.8125 5.875 13.8125C6.3125 13.8125 6.79688 13.8047 7.32812 13.7891C7.85938 13.7734 8.28125 13.7109 8.59375 13.6016C9.0625 13.3984 9.39844 13.0625 9.60156 12.5938Z" fill="black" fill-opacity="0.72"/>
</g>
<defs>
<clipPath id="clip0_1731_13797">
<rect width="11" height="18" fill="white"/>
</clipPath>
</defs>
</svg>
