<svg width="15" height="18" viewBox="0 0 15 18" fill="none" xmlns="http://www.w3.org/2000/svg">
<g id="label-paired / caption / light-user-tie-circle-dollar-caption / bold" clip-path="url(#clip0_1731_1765)">
<path id="icon" d="M0 14.7969C0 12.9219 1.33594 11.375 3.11719 11.0703C3.28125 11.0469 3.42188 11.1172 3.49219 11.2578C3.84375 11.9375 4.17188 12.6406 4.52344 13.3203C4.64062 12.8516 4.75781 12.3828 4.89844 11.9375C4.73438 11.6797 4.59375 11.4453 4.45312 11.2109C4.3125 10.9531 4.47656 10.625 4.78125 10.625C4.92188 10.625 5.08594 10.625 5.25 10.625C5.39062 10.625 5.55469 10.625 5.69531 10.625C6 10.625 6.16406 10.9531 6.02344 11.2109C5.88281 11.4453 5.74219 11.6797 5.57812 11.9375C5.71875 12.3828 5.83594 12.8516 5.95312 13.3203C6.30469 12.6406 6.63281 11.9375 6.98438 11.2578C7.05469 11.1172 7.19531 11.0469 7.35938 11.0703C7.45312 11.0703 7.52344 11.0938 7.61719 11.1172C7.52344 11.4453 7.5 11.7969 7.5 12.125C7.5 12.3359 7.5 12.5234 7.52344 12.7109C7.24219 13.2734 6.96094 13.8359 6.67969 14.375C7.17188 14.375 7.66406 14.375 8.15625 14.375C8.4375 14.8203 8.8125 15.2188 9.23438 15.5C6.39844 15.5 3.5625 15.5 0.703125 15.5C0.304688 15.5 0 15.1953 0 14.7969ZM1.14844 14.375C2.03906 14.375 2.90625 14.375 3.79688 14.375C3.44531 13.6953 3.11719 13.0156 2.76562 12.3359C1.92188 12.6875 1.28906 13.4609 1.14844 14.375ZM2.25 6.5C2.25 5.44531 2.8125 4.4375 3.75 3.92188C4.66406 3.38281 5.8125 3.38281 6.75 3.92188C7.66406 4.4375 8.25 5.44531 8.25 6.5C8.25 7.57812 7.66406 8.5625 6.75 9.10156C5.8125 9.64062 4.66406 9.64062 3.75 9.10156C2.8125 8.5625 2.25 7.57812 2.25 6.5ZM3.60938 5.5625C3.28125 6.14844 3.28125 6.875 3.60938 7.4375C3.96094 8.02344 4.57031 8.375 5.25 8.375C5.90625 8.375 6.53906 8.02344 6.86719 7.4375C7.19531 6.875 7.19531 6.14844 6.86719 5.5625C6.53906 5 5.90625 4.625 5.25 4.625C4.57031 4.625 3.96094 5 3.60938 5.5625ZM8.25 12.125C8.25 10.2734 9.75 8.75 11.625 8.75C13.4766 8.75 15 10.2734 15 12.125C15 14 13.4766 15.5 11.625 15.5C9.75 15.5 8.25 14 8.25 12.125ZM10.3125 11.4922C10.3359 11.8672 10.5703 12.1016 10.8047 12.2188C11.0156 12.3359 11.2734 12.4062 11.4844 12.4531C11.4844 12.4766 11.5078 12.4766 11.5312 12.4766C11.7656 12.5469 11.9531 12.5938 12.0703 12.6641C12.1641 12.7344 12.1875 12.7578 12.1875 12.8047C12.1875 12.8516 12.1641 12.8984 12.1641 12.8984C12.1406 12.9219 12.1172 12.9453 12.0703 12.9922C11.9531 13.0391 11.7891 13.0625 11.625 13.0625C11.4141 13.0625 11.2031 12.9922 10.9219 12.8984C10.875 12.8984 10.8281 12.875 10.7812 12.875C10.5938 12.8047 10.3828 12.9219 10.3125 13.1094C10.2656 13.3203 10.3594 13.5312 10.5703 13.5781C10.5938 13.6016 10.6406 13.6016 10.6875 13.625C10.8516 13.6719 11.0391 13.7422 11.25 13.7656C11.25 13.8594 11.25 13.9531 11.25 14.0469C11.25 14.2578 11.4141 14.4219 11.625 14.4219C11.8125 14.4219 12 14.2578 12 14.0469C12 13.9531 12 13.8828 12 13.7891C12.1406 13.7656 12.2812 13.7188 12.4219 13.6484C12.7031 13.4844 12.9375 13.2031 12.9375 12.7812C12.9141 12.4062 12.6797 12.1719 12.4453 12.0312C12.2344 11.8906 11.9531 11.8203 11.7422 11.75C11.7188 11.75 11.7188 11.75 11.7188 11.75C11.4844 11.6797 11.2969 11.6328 11.1562 11.5625C11.0625 11.4922 11.0625 11.4688 11.0625 11.4453C11.0625 11.3984 11.0625 11.375 11.0625 11.375C11.0859 11.3516 11.1094 11.3281 11.1797 11.2812C11.2969 11.2344 11.4609 11.1875 11.6016 11.1875C11.8125 11.1875 12 11.2344 12.2344 11.2812C12.4219 11.3516 12.6328 11.2109 12.6797 11.0234C12.7266 10.8125 12.6094 10.6016 12.3984 10.5547C12.2812 10.5312 12.1406 10.5078 12 10.4844C12 10.4141 12 10.3203 12 10.25C12 10.0391 11.8125 9.875 11.625 9.875C11.4141 9.875 11.25 10.0391 11.25 10.25C11.25 10.3203 11.25 10.4141 11.25 10.4844C11.0859 10.5078 10.9453 10.5547 10.8281 10.625C10.5469 10.7656 10.2891 11.0469 10.3125 11.4922Z" fill="black" fill-opacity="0.72"/>
</g>
<defs>
<clipPath id="clip0_1731_1765">
<rect width="15" height="18" fill="white"/>
</clipPath>
</defs>
</svg>
