<svg width="18" height="36" viewBox="0 0 18 36" fill="none" xmlns="http://www.w3.org/2000/svg">
<g id="label-paired / xl / mobile-notch-xl / bold" clip-path="url(#clip0_1731_6398)">
<path id="icon" d="M12 8.25V9C11.9688 9.46875 11.7188 9.71875 11.25 9.75H6.75C6.28125 9.71875 6.03125 9.46875 6 9V8.25H4.5C4.0625 8.25 3.70312 8.39062 3.42188 8.67188C3.14062 8.95312 3 9.3125 3 9.75V26.25C3 26.6875 3.14062 27.0469 3.42188 27.3281C3.70312 27.6094 4.0625 27.75 4.5 27.75H13.5C13.9375 27.75 14.2969 27.6094 14.5781 27.3281C14.8594 27.0469 15 26.6875 15 26.25V9.75C15 9.3125 14.8594 8.95312 14.5781 8.67188C14.2969 8.39062 13.9375 8.25 13.5 8.25H12ZM0.75 9.75C0.78125 8.6875 1.14062 7.79687 1.82812 7.07812C2.54688 6.39062 3.4375 6.03125 4.5 6H13.5C14.5625 6.03125 15.4531 6.39062 16.1719 7.07812C16.8594 7.79687 17.2188 8.6875 17.25 9.75V26.25C17.2188 27.3125 16.8594 28.2031 16.1719 28.9219C15.4531 29.6094 14.5625 29.9688 13.5 30H4.5C3.4375 29.9688 2.54688 29.6094 1.82812 28.9219C1.14062 28.2031 0.78125 27.3125 0.75 26.25V9.75Z" fill="black" fill-opacity="0.72"/>
</g>
<defs>
<clipPath id="clip0_1731_6398">
<rect width="18" height="36" fill="white"/>
</clipPath>
</defs>
</svg>
