<svg width="9" height="18" viewBox="0 0 9 18" fill="none" xmlns="http://www.w3.org/2000/svg">
<g id="label-paired / caption / percent-caption / regular" clip-path="url(#clip0_1731_1481)">
<path id="icon" d="M1.5 5.75C1.28125 5.75 1.10156 5.82031 0.960938 5.96094C0.820312 6.10156 0.75 6.28125 0.75 6.5C0.75 6.71875 0.820312 6.89844 0.960938 7.03906C1.10156 7.17969 1.28125 7.25 1.5 7.25C1.71875 7.25 1.89844 7.17969 2.03906 7.03906C2.17969 6.89844 2.25 6.71875 2.25 6.5C2.25 6.28125 2.17969 6.10156 2.03906 5.96094C1.89844 5.82031 1.71875 5.75 1.5 5.75ZM1.5 8C0.9375 7.98438 0.507812 7.73438 0.210938 7.25C-0.0703125 6.75 -0.0703125 6.25 0.210938 5.75C0.507812 5.26562 0.9375 5.01562 1.5 5C2.0625 5.01562 2.49219 5.26562 2.78906 5.75C3.07031 6.25 3.07031 6.75 2.78906 7.25C2.49219 7.73438 2.0625 7.98438 1.5 8ZM7.5 11.75C7.28125 11.75 7.10156 11.8203 6.96094 11.9609C6.82031 12.1016 6.75 12.2812 6.75 12.5C6.75 12.7188 6.82031 12.8984 6.96094 13.0391C7.10156 13.1797 7.28125 13.25 7.5 13.25C7.71875 13.25 7.89844 13.1797 8.03906 13.0391C8.17969 12.8984 8.25 12.7188 8.25 12.5C8.25 12.2812 8.17969 12.1016 8.03906 11.9609C7.89844 11.8203 7.71875 11.75 7.5 11.75ZM7.5 14C6.9375 13.9844 6.50781 13.7344 6.21094 13.25C5.92969 12.75 5.92969 12.25 6.21094 11.75C6.50781 11.2656 6.9375 11.0156 7.5 11C8.0625 11.0156 8.49219 11.2656 8.78906 11.75C9.07031 12.25 9.07031 12.75 8.78906 13.25C8.49219 13.7344 8.0625 13.9844 7.5 14ZM8.88281 5.63281L0.632812 13.8828C0.460938 14.0391 0.289062 14.0391 0.117188 13.8828C-0.0390625 13.7109 -0.0390625 13.5391 0.117188 13.3672L8.36719 5.11719C8.53906 4.96094 8.71094 4.96094 8.88281 5.11719C9.03906 5.28906 9.03906 5.46094 8.88281 5.63281Z" fill="black" fill-opacity="0.72"/>
</g>
<defs>
<clipPath id="clip0_1731_1481">
<rect width="9" height="18" fill="white"/>
</clipPath>
</defs>
</svg>
