<svg width="30" height="36" viewBox="0 0 30 36" fill="none" xmlns="http://www.w3.org/2000/svg">
<g id="label-paired / xl / deal-cancellation-xl / bold" clip-path="url(#clip0_1731_5798)">
<path id="icon" d="M3.79688 11.7188H8.53125C9.375 11.7188 10.125 11.8594 10.7812 12.1406C11.4844 12.375 12.0469 12.7969 12.5625 13.3125C13.0312 13.8281 13.4062 14.4844 13.6406 15.2812C13.9219 16.0781 14.0625 16.9688 14.0625 18C14.0625 19.0781 13.9219 19.9688 13.6406 20.7656C13.4062 21.5625 13.0312 22.2188 12.5625 22.7344C12.0469 23.25 11.4844 23.625 10.7812 23.9062C10.125 24.1875 9.375 24.3281 8.53125 24.3281H3.79688V11.7188ZM8.53125 21.8906C9.32812 21.8906 9.98438 21.6562 10.4531 21.1875C10.9219 20.7188 11.1562 20.0156 11.1562 18.9844V17.0625C11.1562 16.0312 10.9219 15.3281 10.4531 14.8594C9.98438 14.3906 9.32812 14.1562 8.53125 14.1562H6.51562V21.8906H8.53125ZM21.4219 24.5156C20.5781 24.5156 19.7812 24.375 19.125 24.1406C18.4219 23.8594 17.8594 23.4375 17.3906 22.9219C16.875 22.3594 16.5 21.7031 16.2656 20.9062C15.9844 20.1094 15.8438 19.1719 15.8438 18.0938C15.8438 17.0625 15.9844 16.125 16.2656 15.3281C16.5 14.4844 16.875 13.7812 17.3906 13.2188C17.8594 12.6562 18.4219 12.2344 19.125 11.9531C19.7812 11.6719 20.5781 11.5312 21.4219 11.5312C22.5938 11.5312 23.5312 11.7656 24.2812 12.2344C25.0781 12.7031 25.6875 13.4531 26.1094 14.4844L23.7656 15.7031C23.5781 15.1875 23.3438 14.7656 22.9688 14.4375C22.6406 14.1094 22.125 13.9688 21.4219 13.9688C20.625 13.9688 19.9688 14.2031 19.5 14.7656C18.9844 15.2812 18.75 16.0312 18.75 17.0156V19.0312C18.75 20.0156 18.9844 20.7656 19.5 21.3281C19.9688 21.8438 20.625 22.0781 21.4219 22.0781C22.0781 22.0781 22.6406 21.8906 23.0156 21.5625C23.4375 21.1875 23.7188 20.7188 23.9062 20.2031L26.1562 21.5156C25.6875 22.4531 25.0781 23.2031 24.2812 23.7656C23.5312 24.2812 22.5938 24.5156 21.4219 24.5156Z" fill="black" fill-opacity="0.72"/>
</g>
<defs>
<clipPath id="clip0_1731_5798">
<rect width="30" height="36" fill="white"/>
</clipPath>
</defs>
</svg>
