<svg width="23" height="30" viewBox="0 0 23 30" fill="none" xmlns="http://www.w3.org/2000/svg">
<g id="label-paired / lg / file-circle-info-lg / bold" clip-path="url(#clip0_1731_4961)">
<path id="icon" d="M2.75 23.625H11.3828C11.8516 24.3542 12.4375 24.9661 13.1406 25.4609C13.0104 25.487 12.8802 25.5 12.75 25.5H2.75C2.04688 25.474 1.46094 25.2266 0.992188 24.7578C0.523438 24.2891 0.276042 23.7031 0.25 23V8C0.276042 7.29688 0.523438 6.71094 0.992188 6.24219C1.46094 5.77344 2.04688 5.52604 2.75 5.5H9.23438C9.91146 5.5 10.4974 5.7474 10.9922 6.24219L14.5078 9.75781C15.0026 10.2526 15.25 10.8516 15.25 11.5547V13.2734C14.5729 13.4557 13.9479 13.7292 13.375 14.0938V11.75H10.25C9.88542 11.75 9.58594 11.6328 9.35156 11.3984C9.11719 11.1641 9 10.8646 9 10.5V7.375H2.75C2.35938 7.40104 2.15104 7.60938 2.125 8V23C2.15104 23.3906 2.35938 23.599 2.75 23.625ZM17.125 14.25C18.1406 14.25 19.0781 14.4974 19.9375 14.9922C20.7969 15.487 21.487 16.1771 22.0078 17.0625C22.5026 17.9479 22.75 18.8854 22.75 19.875C22.75 20.8646 22.5026 21.8021 22.0078 22.6875C21.487 23.5729 20.7969 24.263 19.9375 24.7578C19.0781 25.2526 18.1406 25.5 17.125 25.5C16.1094 25.5 15.1719 25.2526 14.3125 24.7578C13.4531 24.263 12.763 23.5729 12.2422 22.6875C11.7474 21.8021 11.5 20.8646 11.5 19.875C11.5 18.8854 11.7474 17.9479 12.2422 17.0625C12.763 16.1771 13.4531 15.487 14.3125 14.9922C15.1719 14.4974 16.1094 14.25 17.125 14.25ZM17.125 18C17.6979 17.9479 18.0104 17.6354 18.0625 17.0625C18.0104 16.4896 17.6979 16.1771 17.125 16.125C16.5521 16.1771 16.2396 16.4896 16.1875 17.0625C16.2396 17.6354 16.5521 17.9479 17.125 18ZM15.875 19.875C15.901 20.2656 16.1094 20.474 16.5 20.5V22.375C16.1094 22.401 15.901 22.6094 15.875 23C15.901 23.3906 16.1094 23.599 16.5 23.625H17.125H17.75C18.1406 23.599 18.349 23.3906 18.375 23C18.349 22.6094 18.1406 22.401 17.75 22.375V19.875C17.724 19.4844 17.5156 19.276 17.125 19.25H16.5C16.1094 19.276 15.901 19.4844 15.875 19.875Z" fill="black" fill-opacity="0.72"/>
</g>
<defs>
<clipPath id="clip0_1731_4961">
<rect width="23" height="30" fill="white"/>
</clipPath>
</defs>
</svg>
