<svg width="14" height="22" viewBox="0 0 14 22" fill="none" xmlns="http://www.w3.org/2000/svg">
<g id="label-paired / sm / google-sm" clip-path="url(#clip0_1731_13888)">
<path id="icon" d="M13.6719 10.9141C13.6354 12.8828 13.0339 14.4688 11.8672 15.6719C10.6823 16.875 9.09635 17.4948 7.10938 17.5312C5.85156 17.513 4.71224 17.2031 3.69141 16.6016C2.67057 16 1.85938 15.1888 1.25781 14.168C0.65625 13.1471 0.346354 12.0078 0.328125 10.75C0.346354 9.49219 0.65625 8.35286 1.25781 7.33203C1.85938 6.3112 2.67057 5.5 3.69141 4.89844C4.71224 4.29688 5.85156 3.98698 7.10938 3.96875C8.95052 4.00521 10.4635 4.59766 11.6484 5.74609L9.81641 7.52344C8.95964 6.75781 8.0026 6.41146 6.94531 6.48438C5.88802 6.53906 4.95833 6.9401 4.15625 7.6875C3.3724 8.45312 2.95312 9.47396 2.89844 10.75C2.9349 11.9714 3.34505 12.9831 4.12891 13.7852C4.93099 14.5872 5.92448 15.0065 7.10938 15.043C8.0026 15.0247 8.72266 14.8424 9.26953 14.4961C9.81641 14.1497 10.2266 13.7578 10.5 13.3203C10.7552 12.8646 10.9102 12.4635 10.9648 12.1172H7.10938V9.76562H13.5625C13.6354 10.0938 13.6719 10.4766 13.6719 10.9141Z" fill="black" fill-opacity="0.72"/>
</g>
<defs>
<clipPath id="clip0_1731_13888">
<rect width="14" height="22" fill="white"/>
</clipPath>
</defs>
</svg>
