<svg width="15" height="30" viewBox="0 0 15 30" fill="none" xmlns="http://www.w3.org/2000/svg">
<g id="label-paired / lg / file-chart-column-lg / bold" clip-path="url(#clip0_1731_4737)">
<path id="icon" d="M1.875 23C1.90104 23.3906 2.10938 23.599 2.5 23.625H12.5C12.8906 23.599 13.099 23.3906 13.125 23V11.75H10C9.63542 11.75 9.33594 11.6328 9.10156 11.3984C8.86719 11.1641 8.75 10.8646 8.75 10.5V7.375H2.5C2.10938 7.40104 1.90104 7.60938 1.875 8V23ZM2.5 5.5H8.98438C9.66146 5.5 10.2474 5.7474 10.7422 6.24219L14.2578 9.75781C14.7526 10.2526 15 10.8516 15 11.5547V23C14.974 23.7031 14.7266 24.2891 14.2578 24.7578C13.7891 25.2266 13.2031 25.474 12.5 25.5H2.5C1.79688 25.474 1.21094 25.2266 0.742188 24.7578C0.273438 24.2891 0.0260417 23.7031 0 23V8C0.0260417 7.29688 0.273438 6.71094 0.742188 6.24219C1.21094 5.77344 1.79688 5.52604 2.5 5.5ZM8.4375 16.4375V21.4375C8.38542 22.0104 8.07292 22.3229 7.5 22.375C6.92708 22.3229 6.61458 22.0104 6.5625 21.4375V16.4375C6.61458 15.8646 6.92708 15.5521 7.5 15.5C8.07292 15.5521 8.38542 15.8646 8.4375 16.4375ZM11.875 17.6875V21.4375C11.8229 22.0104 11.5104 22.3229 10.9375 22.375C10.3646 22.3229 10.0521 22.0104 10 21.4375V17.6875C10.0521 17.1146 10.3646 16.8021 10.9375 16.75C11.5104 16.8021 11.8229 17.1146 11.875 17.6875ZM5 18.9375V21.4375C4.94792 22.0104 4.63542 22.3229 4.0625 22.375C3.48958 22.3229 3.17708 22.0104 3.125 21.4375V18.9375C3.17708 18.3646 3.48958 18.0521 4.0625 18C4.63542 18.0521 4.94792 18.3646 5 18.9375Z" fill="black" fill-opacity="0.72"/>
</g>
<defs>
<clipPath id="clip0_1731_4737">
<rect width="15" height="30" fill="white"/>
</clipPath>
</defs>
</svg>
