<svg width="30" height="36" viewBox="0 0 30 36" fill="none" xmlns="http://www.w3.org/2000/svg">
<g id="label-paired / xl / horizontal-rule-dashed-xl / bold" clip-path="url(#clip0_1731_6535)">
<path id="icon" d="M0 18C0 17.3906 0.46875 16.875 1.125 16.875H4.125C4.73438 16.875 5.25 17.3906 5.25 18C5.25 18.6562 4.73438 19.125 4.125 19.125H1.125C0.46875 19.125 0 18.6562 0 18ZM8.25 18C8.25 17.3906 8.71875 16.875 9.375 16.875H12.375C12.9844 16.875 13.5 17.3906 13.5 18C13.5 18.6562 12.9844 19.125 12.375 19.125H9.375C8.71875 19.125 8.25 18.6562 8.25 18ZM16.5 18C16.5 17.3906 16.9688 16.875 17.625 16.875H20.625C21.2344 16.875 21.75 17.3906 21.75 18C21.75 18.6562 21.2344 19.125 20.625 19.125H17.625C16.9688 19.125 16.5 18.6562 16.5 18ZM24.75 18C24.75 17.3906 25.2188 16.875 25.875 16.875H28.875C29.4844 16.875 30 17.3906 30 18C30 18.6562 29.4844 19.125 28.875 19.125H25.875C25.2188 19.125 24.75 18.6562 24.75 18Z" fill="black" fill-opacity="0.72"/>
</g>
<defs>
<clipPath id="clip0_1731_6535">
<rect width="30" height="36" fill="white"/>
</clipPath>
</defs>
</svg>
