<svg width="4" height="22" viewBox="0 0 4 22" fill="none" xmlns="http://www.w3.org/2000/svg">
<g id="label-paired / sm / ellipsis-vertical-sm / regular" clip-path="url(#clip0_1731_1912)">
<path id="icon" d="M2 14.25C2.25521 14.25 2.46484 14.332 2.62891 14.4961C2.79297 14.6602 2.875 14.8698 2.875 15.125C2.875 15.3802 2.79297 15.5898 2.62891 15.7539C2.46484 15.918 2.25521 16 2 16C1.74479 16 1.53516 15.918 1.37109 15.7539C1.20703 15.5898 1.125 15.3802 1.125 15.125C1.125 14.8698 1.20703 14.6602 1.37109 14.4961C1.53516 14.332 1.74479 14.25 2 14.25ZM2 9.875C2.25521 9.875 2.46484 9.95703 2.62891 10.1211C2.79297 10.2852 2.875 10.4948 2.875 10.75C2.875 11.0052 2.79297 11.2148 2.62891 11.3789C2.46484 11.543 2.25521 11.625 2 11.625C1.74479 11.625 1.53516 11.543 1.37109 11.3789C1.20703 11.2148 1.125 11.0052 1.125 10.75C1.125 10.4948 1.20703 10.2852 1.37109 10.1211C1.53516 9.95703 1.74479 9.875 2 9.875ZM2.875 6.375C2.875 6.63021 2.79297 6.83984 2.62891 7.00391C2.46484 7.16797 2.25521 7.25 2 7.25C1.74479 7.25 1.53516 7.16797 1.37109 7.00391C1.20703 6.83984 1.125 6.63021 1.125 6.375C1.125 6.11979 1.20703 5.91016 1.37109 5.74609C1.53516 5.58203 1.74479 5.5 2 5.5C2.25521 5.5 2.46484 5.58203 2.62891 5.74609C2.79297 5.91016 2.875 6.11979 2.875 6.375Z" fill="black" fill-opacity="0.72"/>
</g>
<defs>
<clipPath id="clip0_1731_1912">
<rect width="4" height="22" fill="white"/>
</clipPath>
</defs>
</svg>
