<svg width="12" height="18" viewBox="0 0 12 18" fill="none" xmlns="http://www.w3.org/2000/svg">
<g id="label-paired / caption / pen-circle-caption / bold" clip-path="url(#clip0_1731_1473)">
<path id="icon" d="M10.875 9.5C10.875 8.60938 10.6562 7.79688 10.2188 7.0625C9.79688 6.32812 9.20312 5.73438 8.4375 5.28125C7.67188 4.84375 6.85938 4.625 6 4.625C5.14062 4.625 4.32812 4.84375 3.5625 5.28125C2.79688 5.73438 2.20312 6.32812 1.78125 7.0625C1.34375 7.79688 1.125 8.60938 1.125 9.5C1.125 10.3906 1.34375 11.2031 1.78125 11.9375C2.20312 12.6719 2.79688 13.2656 3.5625 13.7188C4.32812 14.1562 5.14062 14.375 6 14.375C6.85938 14.375 7.67188 14.1562 8.4375 13.7188C9.20312 13.2656 9.79688 12.6719 10.2188 11.9375C10.6562 11.2031 10.875 10.3906 10.875 9.5ZM0 9.5C0.015625 8.40625 0.28125 7.40625 0.796875 6.5C1.32812 5.59375 2.0625 4.85938 3 4.29688C3.95312 3.76562 4.95312 3.5 6 3.5C7.04688 3.5 8.04688 3.76562 9 4.29688C9.9375 4.85938 10.6719 5.59375 11.2031 6.5C11.7188 7.40625 11.9844 8.40625 12 9.5C11.9844 10.5938 11.7188 11.5938 11.2031 12.5C10.6719 13.4062 9.9375 14.1406 9 14.7031C8.04688 15.2344 7.04688 15.5 6 15.5C4.95312 15.5 3.95312 15.2344 3 14.7031C2.0625 14.1406 1.32812 13.4062 0.796875 12.5C0.28125 11.5938 0.015625 10.5938 0 9.5ZM8.39062 6.78125L8.71875 7.10938C8.90625 7.29688 9 7.51562 9 7.76562C9 8.01562 8.90625 8.24219 8.71875 8.44531L8.22656 8.9375L6.5625 7.27344L7.05469 6.78125C7.25781 6.59375 7.47656 6.5 7.71094 6.5C7.96094 6.5 8.1875 6.59375 8.39062 6.78125ZM3.5625 10.2734L6.02344 7.8125L7.6875 9.47656L5.22656 11.9375C5.13281 12.0312 5.01562 12.0938 4.875 12.125L3.46875 12.4766C3.32812 12.5078 3.21094 12.4766 3.11719 12.3828C3.02344 12.2891 2.99219 12.1719 3.02344 12.0312L3.375 10.625C3.40625 10.4844 3.46875 10.3672 3.5625 10.2734Z" fill="black" fill-opacity="0.72"/>
</g>
<defs>
<clipPath id="clip0_1731_1473">
<rect width="12" height="18" fill="white"/>
</clipPath>
</defs>
</svg>
