<svg width="11" height="22" viewBox="0 0 11 22" fill="none" xmlns="http://www.w3.org/2000/svg">
<g id="label-paired / sm / moon-sm / regular" clip-path="url(#clip0_1731_1997)">
<path id="icon" d="M5.47266 5.58203C4.21484 5.81901 3.1849 6.41146 2.38281 7.35938C1.5625 8.28906 1.14323 9.41927 1.125 10.75C1.16146 12.2448 1.67188 13.4844 2.65625 14.4688C3.64062 15.4531 4.88021 15.9635 6.375 16C7.30469 15.9818 8.16146 15.7539 8.94531 15.3164C7.45052 15.1706 6.22005 14.569 5.25391 13.5117C4.28776 12.4727 3.78646 11.1875 3.75 9.65625C3.75 8.85417 3.90495 8.10677 4.21484 7.41406C4.50651 6.70312 4.92578 6.09245 5.47266 5.58203ZM7.27734 4.98047C7.3138 5.19922 7.24089 5.36328 7.05859 5.47266C6.32943 5.89193 5.73698 6.46615 5.28125 7.19531C4.84375 7.92448 4.625 8.74479 4.625 9.65625C4.66146 11.0234 5.1263 12.1536 6.01953 13.0469C6.93099 13.9583 8.0612 14.4323 9.41016 14.4688C9.70182 14.4688 9.97526 14.4414 10.2305 14.3867C10.4492 14.3685 10.6042 14.4505 10.6953 14.6328C10.7865 14.8151 10.7591 14.9883 10.6133 15.1523C9.48307 16.2643 8.07031 16.8385 6.375 16.875C5.22656 16.8568 4.19661 16.5742 3.28516 16.0273C2.35547 15.4987 1.6263 14.7695 1.09766 13.8398C0.550781 12.9284 0.268229 11.8984 0.25 10.75C0.268229 9.60156 0.541667 8.57161 1.07031 7.66016C1.61719 6.73047 2.35547 6.0013 3.28516 5.47266C4.19661 4.92578 5.21745 4.64323 6.34766 4.625C6.52995 4.625 6.70312 4.63411 6.86719 4.65234C7.08594 4.67057 7.22266 4.77995 7.27734 4.98047Z" fill="black" fill-opacity="0.72"/>
</g>
<defs>
<clipPath id="clip0_1731_1997">
<rect width="11" height="22" fill="white"/>
</clipPath>
</defs>
</svg>
