<svg width="14" height="22" viewBox="0 0 14 22" fill="none" xmlns="http://www.w3.org/2000/svg">
<g id="label-paired / sm / circle-sterling-sm / bold" clip-path="url(#clip0_1731_2977)">
<path id="icon" d="M12.6875 10.75C12.6875 9.71094 12.4323 8.76302 11.9219 7.90625C11.4297 7.04948 10.737 6.35677 9.84375 5.82812C8.95052 5.31771 8.0026 5.0625 7 5.0625C5.9974 5.0625 5.04948 5.31771 4.15625 5.82812C3.26302 6.35677 2.57031 7.04948 2.07812 7.90625C1.56771 8.76302 1.3125 9.71094 1.3125 10.75C1.3125 11.7891 1.56771 12.737 2.07812 13.5938C2.57031 14.4505 3.26302 15.1432 4.15625 15.6719C5.04948 16.1823 5.9974 16.4375 7 16.4375C8.0026 16.4375 8.95052 16.1823 9.84375 15.6719C10.737 15.1432 11.4297 14.4505 11.9219 13.5938C12.4323 12.737 12.6875 11.7891 12.6875 10.75ZM0 10.75C0.0182292 9.47396 0.328125 8.30729 0.929688 7.25C1.54948 6.19271 2.40625 5.33594 3.5 4.67969C4.61198 4.0599 5.77865 3.75 7 3.75C8.22135 3.75 9.38802 4.0599 10.5 4.67969C11.5938 5.33594 12.4505 6.19271 13.0703 7.25C13.6719 8.30729 13.9818 9.47396 14 10.75C13.9818 12.026 13.6719 13.1927 13.0703 14.25C12.4505 15.3073 11.5938 16.1641 10.5 16.8203C9.38802 17.4401 8.22135 17.75 7 17.75C5.77865 17.75 4.61198 17.4401 3.5 16.8203C2.40625 16.1641 1.54948 15.3073 0.929688 14.25C0.328125 13.1927 0.0182292 12.026 0 10.75ZM7.16406 8.125C6.92708 8.125 6.72656 8.20703 6.5625 8.37109C6.39844 8.53516 6.31641 8.73568 6.31641 8.97266V9.875H7.4375C7.71094 9.89323 7.85677 10.0391 7.875 10.3125C7.85677 10.5859 7.71094 10.7318 7.4375 10.75H6.34375V11.0234C6.34375 11.5339 6.2526 12.026 6.07031 12.5H8.96875C9.36979 12.5365 9.58854 12.7552 9.625 13.1562C9.58854 13.5573 9.36979 13.776 8.96875 13.8125H5.03125C4.79427 13.8125 4.61198 13.7122 4.48438 13.5117C4.35677 13.293 4.34766 13.0742 4.45703 12.8555L4.70312 12.3359C4.92188 11.9349 5.03125 11.4974 5.03125 11.0234V10.75H4.8125C4.53906 10.7318 4.39323 10.5859 4.375 10.3125C4.39323 10.0391 4.53906 9.89323 4.8125 9.875H5.03125L5.00391 8.97266C5.02214 8.35286 5.23177 7.84245 5.63281 7.44141C6.03385 7.04036 6.54427 6.83073 7.16406 6.8125C7.4375 6.8125 7.70182 6.86719 7.95703 6.97656L8.77734 7.30469C9.14193 7.48698 9.26042 7.76953 9.13281 8.15234C8.95052 8.4987 8.66797 8.61719 8.28516 8.50781L7.46484 8.17969C7.35547 8.14323 7.25521 8.125 7.16406 8.125Z" fill="black" fill-opacity="0.72"/>
</g>
<defs>
<clipPath id="clip0_1731_2977">
<rect width="14" height="22" fill="white"/>
</clipPath>
</defs>
</svg>
