<svg width="16" height="24" viewBox="0 0 16 24" fill="none" xmlns="http://www.w3.org/2000/svg">
<g id="label-paired / md / circle-dollar-md / regular" clip-path="url(#clip0_1731_4213)">
<path id="icon" d="M15 12C14.9792 10.7292 14.6667 9.5625 14.0625 8.5C13.4375 7.4375 12.5833 6.58333 11.5 5.9375C10.3958 5.3125 9.22917 5 8 5C6.77083 5 5.60417 5.3125 4.5 5.9375C3.41667 6.58333 2.5625 7.4375 1.9375 8.5C1.33333 9.5625 1.02083 10.7292 1 12C1.02083 13.2708 1.33333 14.4375 1.9375 15.5C2.5625 16.5625 3.41667 17.4167 4.5 18.0625C5.60417 18.6875 6.77083 19 8 19C9.22917 19 10.3958 18.6875 11.5 18.0625C12.5833 17.4167 13.4375 16.5625 14.0625 15.5C14.6667 14.4375 14.9792 13.2708 15 12ZM0 12C0.0208333 10.5417 0.375 9.20833 1.0625 8C1.77083 6.79167 2.75 5.8125 4 5.0625C5.27083 4.35417 6.60417 4 8 4C9.39583 4 10.7292 4.35417 12 5.0625C13.25 5.8125 14.2292 6.79167 14.9375 8C15.625 9.20833 15.9792 10.5417 16 12C15.9792 13.4583 15.625 14.7917 14.9375 16C14.2292 17.2083 13.25 18.1875 12 18.9375C10.7292 19.6458 9.39583 20 8 20C6.60417 20 5.27083 19.6458 4 18.9375C2.75 18.1875 1.77083 17.2083 1.0625 16C0.375 14.7917 0.0208333 13.4583 0 12ZM8.5 7.75V8.46875C8.91667 8.51042 9.33333 8.59375 9.75 8.71875C9.77083 8.73958 9.79167 8.75 9.8125 8.75C9.83333 8.75 9.85417 8.76042 9.875 8.78125C10.1667 8.88542 10.2812 9.08333 10.2188 9.375C10.1146 9.66667 9.91667 9.79167 9.625 9.75C9.54167 9.70833 9.46875 9.67708 9.40625 9.65625C9.15625 9.59375 8.91667 9.54167 8.6875 9.5C8.0625 9.41667 7.54167 9.46875 7.125 9.65625C6.75 9.84375 6.55208 10.0521 6.53125 10.2812C6.46875 10.5729 6.57292 10.7917 6.84375 10.9375C7.17708 11.1458 7.64583 11.3229 8.25 11.4688C8.25 11.4688 8.26042 11.4688 8.28125 11.4688C8.88542 11.6146 9.44792 11.8438 9.96875 12.1562C10.5729 12.5938 10.8229 13.1771 10.7188 13.9062C10.5521 14.5938 10.1562 15.0521 9.53125 15.2812C9.21875 15.4062 8.875 15.4792 8.5 15.5V16.25C8.45833 16.5625 8.29167 16.7292 8 16.75C7.6875 16.7292 7.52083 16.5625 7.5 16.25V15.4375C7.1875 15.375 6.84375 15.2917 6.46875 15.1875C6.26042 15.125 6.05208 15.0521 5.84375 14.9688C5.55208 14.8438 5.44792 14.6354 5.53125 14.3438C5.63542 14.0729 5.84375 13.9688 6.15625 14.0312C6.36458 14.0938 6.57292 14.1562 6.78125 14.2188C7.15625 14.3438 7.44792 14.4271 7.65625 14.4688C8.28125 14.5521 8.78125 14.5104 9.15625 14.3438C9.48958 14.1979 9.67708 13.9896 9.71875 13.7188C9.78125 13.4062 9.67708 13.1562 9.40625 12.9688C9.01042 12.7396 8.58333 12.5729 8.125 12.4688C8.08333 12.4479 8.04167 12.4375 8 12.4375C7.95833 12.4167 7.92708 12.4062 7.90625 12.4062C7.32292 12.2604 6.78125 12.0521 6.28125 11.7812C6.03125 11.6146 5.82292 11.3854 5.65625 11.0938C5.48958 10.8021 5.44792 10.4688 5.53125 10.0938C5.69792 9.42708 6.09375 8.96875 6.71875 8.71875C6.96875 8.63542 7.22917 8.5625 7.5 8.5V7.75C7.52083 7.4375 7.6875 7.27083 8 7.25C8.29167 7.27083 8.45833 7.4375 8.5 7.75Z" fill="black" fill-opacity="0.72"/>
</g>
<defs>
<clipPath id="clip0_1731_4213">
<rect width="16" height="24" fill="white"/>
</clipPath>
</defs>
</svg>
