<svg width="15" height="18" viewBox="0 0 15 18" fill="none" xmlns="http://www.w3.org/2000/svg">
<g id="label-paired / caption / light-chart-line-up-down-clock-caption / regular" clip-path="url(#clip0_1731_1272)">
<path id="icon" d="M0 4.625C0 4.4375 0.164062 4.25 0.375 4.25C0.5625 4.25 0.75 4.4375 0.75 4.625C0.75 7.39062 0.75 10.1328 0.75 12.875C0.75 13.5078 1.24219 14 1.875 14C3.89062 14 5.90625 14 7.94531 14C8.08594 14.2812 8.25 14.5391 8.4375 14.75C6.23438 14.75 4.05469 14.75 1.875 14.75C0.820312 14.75 0 13.9297 0 12.875C0 10.1328 0 7.39062 0 4.625ZM2.34375 9.61719L4.59375 7.36719C4.66406 7.29688 4.75781 7.25 4.875 7.25C4.96875 7.25 5.0625 7.29688 5.13281 7.36719C5.67188 7.90625 6.21094 8.44531 6.75 8.98438C7.80469 7.90625 8.88281 6.82812 9.96094 5.75C9.51562 5.75 9.07031 5.75 8.625 5.75C8.41406 5.75 8.25 5.58594 8.25 5.375C8.25 5.1875 8.41406 5 8.625 5C9.375 5 10.125 5 10.875 5C11.0625 5 11.25 5.1875 11.25 5.375C11.25 6.125 11.25 6.875 11.25 7.625C11.25 7.83594 11.0625 8 10.875 8C10.6641 8 10.5 7.83594 10.5 7.625C10.5 7.17969 10.5 6.73438 10.5 6.28906C9.32812 7.46094 8.15625 8.60938 7.00781 9.78125C6.86719 9.92188 6.60938 9.92188 6.46875 9.78125C5.92969 9.24219 5.39062 8.70312 4.875 8.16406C4.19531 8.82031 3.53906 9.5 2.88281 10.1562C2.74219 10.2969 2.48438 10.2969 2.34375 10.1562C2.20312 10.0156 2.20312 9.75781 2.34375 9.61719ZM8.25 12.125C8.25 10.2734 9.75 8.75 11.625 8.75C13.4766 8.75 15 10.2734 15 12.125C15 14 13.4766 15.5 11.625 15.5C9.75 15.5 8.25 14 8.25 12.125ZM9 12.125C9 13.5781 10.1719 14.75 11.625 14.75C13.0547 14.75 14.25 13.5781 14.25 12.125C14.25 10.6953 13.0547 9.5 11.625 9.5C10.1719 9.5 9 10.6953 9 12.125ZM11.25 10.625C11.25 10.4375 11.4141 10.25 11.625 10.25C11.8125 10.25 12 10.4375 12 10.625C12 11 12 11.375 12 11.75C12.2344 11.75 12.4922 11.75 12.75 11.75C12.9375 11.75 13.125 11.9375 13.125 12.125C13.125 12.3359 12.9375 12.5 12.75 12.5C12.375 12.5 12 12.5 11.625 12.5C11.4141 12.5 11.25 12.3359 11.25 12.125V10.625Z" fill="black" fill-opacity="0.72"/>
</g>
<defs>
<clipPath id="clip0_1731_1272">
<rect width="15" height="18" fill="white"/>
</clipPath>
</defs>
</svg>
