<svg width="20" height="24" viewBox="0 0 20 24" fill="none" xmlns="http://www.w3.org/2000/svg">
<g id="label-paired / md / location-crosshairs-slash-md / bold" clip-path="url(#clip0_1731_3938)">
<path id="icon" d="M1.21875 4.15625L5.78125 7.75C6.71875 6.8125 7.875 6.25 9.25 6.0625V4.75C9.29167 4.29167 9.54167 4.04167 10 4C10.4583 4.04167 10.7083 4.29167 10.75 4.75V6.0625C12.125 6.25 13.2917 6.8125 14.25 7.75C15.1875 8.70833 15.7604 9.875 15.9688 11.25H17.25C17.7083 11.2917 17.9583 11.5417 18 12C17.9583 12.4583 17.7083 12.7083 17.25 12.75H15.9688C15.8438 13.6042 15.5729 14.3854 15.1562 15.0938L19.7188 18.6562C20.0521 18.9688 20.0938 19.3229 19.8438 19.7188C19.5312 20.0521 19.1771 20.0938 18.7812 19.8438L0.28125 5.34375C-0.0520833 5.03125 -0.09375 4.67708 0.15625 4.28125C0.46875 3.94792 0.822917 3.90625 1.21875 4.15625ZM6.96875 8.6875L8.1875 9.625C8.6875 9.22917 9.29167 9.02083 10 9C10.8542 9.02083 11.5625 9.3125 12.125 9.875C12.6875 10.4375 12.9792 11.1458 13 12C13 12.4375 12.9167 12.8438 12.75 13.2188L13.9688 14.1562C14.3229 13.5104 14.5 12.7917 14.5 12C14.4583 10.7292 14.0208 9.66667 13.1875 8.8125C12.3333 7.97917 11.2708 7.54167 10 7.5C8.8125 7.52083 7.80208 7.91667 6.96875 8.6875ZM11.5 12.2188H11.4688C11.4896 12.1354 11.5 12.0625 11.5 12C11.4792 11.5833 11.3333 11.2292 11.0625 10.9375C10.7708 10.6667 10.4167 10.5208 10 10.5C9.79167 10.5 9.60417 10.5312 9.4375 10.5938L11.5 12.2188ZM12.9688 17.2188C12.3021 17.5938 11.5625 17.8438 10.75 17.9688V19.25C10.7083 19.7083 10.4583 19.9583 10 20C9.54167 19.9583 9.29167 19.7083 9.25 19.25V17.9688C7.875 17.7604 6.70833 17.1875 5.75 16.25C4.8125 15.3125 4.25 14.1458 4.0625 12.75H2.75C2.29167 12.7083 2.04167 12.4583 2 12C2.04167 11.5417 2.29167 11.2917 2.75 11.25H4.0625C4.08333 10.9375 4.14583 10.6354 4.25 10.3438L5.53125 11.375C5.51042 11.5833 5.5 11.7917 5.5 12C5.54167 13.2708 5.97917 14.3333 6.8125 15.1875C7.66667 16.0417 8.72917 16.4792 10 16.5C10.5833 16.5 11.1354 16.3958 11.6562 16.1875L12.9688 17.2188Z" fill="black" fill-opacity="0.72"/>
</g>
<defs>
<clipPath id="clip0_1731_3938">
<rect width="20" height="24" fill="white"/>
</clipPath>
</defs>
</svg>
