<svg width="20" height="24" viewBox="0 0 20 24" fill="none" xmlns="http://www.w3.org/2000/svg">
<g id="label-paired / md / computer-md / bold" clip-path="url(#clip0_1731_3912)">
<path id="icon" d="M12 6.5H2C1.6875 6.52083 1.52083 6.6875 1.5 7V14C1.52083 14.3125 1.6875 14.4792 2 14.5H5.21875H5.75H8.25H8.78125H12C12.3125 14.4792 12.4792 14.3125 12.5 14V7C12.4792 6.6875 12.3125 6.52083 12 6.5ZM2 16C1.4375 15.9792 0.96875 15.7812 0.59375 15.4062C0.21875 15.0312 0.0208333 14.5625 0 14V7C0.0208333 6.4375 0.21875 5.96875 0.59375 5.59375C0.96875 5.21875 1.4375 5.02083 2 5H12C12.5625 5.02083 13.0312 5.21875 13.4062 5.59375C13.7812 5.96875 13.9792 6.4375 14 7V14C13.9792 14.5625 13.7812 15.0312 13.4062 15.4062C13.0312 15.7812 12.5625 15.9792 12 16H9.28125L9.78125 17.5H11.25C11.7083 17.5417 11.9583 17.7917 12 18.25C11.9583 18.7083 11.7083 18.9583 11.25 19H10.2812H9.25H4.75H3.71875H2.75C2.29167 18.9583 2.04167 18.7083 2 18.25C2.04167 17.7917 2.29167 17.5417 2.75 17.5H4.21875L4.71875 16H2ZM5.78125 17.5H8.21875L7.71875 16H6.28125L5.78125 17.5ZM16.5 6.5V7.5H18.5V6.5H16.5ZM16.5 9V10H18.5V9H16.5ZM18.5 11.5H16.5V17.5H18.5V11.5ZM15 6.5C15.0208 6.08333 15.1667 5.72917 15.4375 5.4375C15.7292 5.16667 16.0833 5.02083 16.5 5H18.5C18.9167 5.02083 19.2708 5.16667 19.5625 5.4375C19.8333 5.72917 19.9792 6.08333 20 6.5V17.5C19.9792 17.9167 19.8333 18.2708 19.5625 18.5625C19.2708 18.8333 18.9167 18.9792 18.5 19H16.5C16.0833 18.9792 15.7292 18.8333 15.4375 18.5625C15.1667 18.2708 15.0208 17.9167 15 17.5V6.5ZM17.5 15.25C17.0417 15.2083 16.7917 14.9583 16.75 14.5C16.7917 14.0417 17.0417 13.7917 17.5 13.75C17.9583 13.7917 18.2083 14.0417 18.25 14.5C18.2083 14.9583 17.9583 15.2083 17.5 15.25Z" fill="black" fill-opacity="0.72"/>
</g>
<defs>
<clipPath id="clip0_1731_3912">
<rect width="20" height="24" fill="white"/>
</clipPath>
</defs>
</svg>
