<svg width="12" height="18" viewBox="0 0 12 18" fill="none" xmlns="http://www.w3.org/2000/svg">
<g id="label-paired / caption / grid-2-caption / regular" clip-path="url(#clip0_1923_525)">
<path id="icon" d="M1.875 5C1.64062 5.01562 1.51562 5.14062 1.5 5.375V7.625C1.51562 7.85938 1.64062 7.98438 1.875 8H4.125C4.35938 7.98438 4.48438 7.85938 4.5 7.625V5.375C4.48438 5.14062 4.35938 5.01562 4.125 5H1.875ZM0.75 5.375C0.765625 5.0625 0.875 4.79688 1.07812 4.57812C1.29688 4.375 1.5625 4.26562 1.875 4.25H4.125C4.4375 4.26562 4.70312 4.375 4.92188 4.57812C5.125 4.79688 5.23438 5.0625 5.25 5.375V7.625C5.23438 7.9375 5.125 8.20312 4.92188 8.42188C4.70312 8.625 4.4375 8.73438 4.125 8.75H1.875C1.5625 8.73438 1.29688 8.625 1.07812 8.42188C0.875 8.20312 0.765625 7.9375 0.75 7.625V5.375ZM1.875 11C1.64062 11.0156 1.51562 11.1406 1.5 11.375V13.625C1.51562 13.8594 1.64062 13.9844 1.875 14H4.125C4.35938 13.9844 4.48438 13.8594 4.5 13.625V11.375C4.48438 11.1406 4.35938 11.0156 4.125 11H1.875ZM0.75 11.375C0.765625 11.0625 0.875 10.7969 1.07812 10.5781C1.29688 10.375 1.5625 10.2656 1.875 10.25H4.125C4.4375 10.2656 4.70312 10.375 4.92188 10.5781C5.125 10.7969 5.23438 11.0625 5.25 11.375V13.625C5.23438 13.9375 5.125 14.2031 4.92188 14.4219C4.70312 14.625 4.4375 14.7344 4.125 14.75H1.875C1.5625 14.7344 1.29688 14.625 1.07812 14.4219C0.875 14.2031 0.765625 13.9375 0.75 13.625V11.375ZM10.125 5H7.875C7.64062 5.01562 7.51562 5.14062 7.5 5.375V7.625C7.51562 7.85938 7.64062 7.98438 7.875 8H10.125C10.3594 7.98438 10.4844 7.85938 10.5 7.625V5.375C10.4844 5.14062 10.3594 5.01562 10.125 5ZM7.875 4.25H10.125C10.4375 4.26562 10.7031 4.375 10.9219 4.57812C11.125 4.79688 11.2344 5.0625 11.25 5.375V7.625C11.2344 7.9375 11.125 8.20312 10.9219 8.42188C10.7031 8.625 10.4375 8.73438 10.125 8.75H7.875C7.5625 8.73438 7.29688 8.625 7.07812 8.42188C6.875 8.20312 6.76562 7.9375 6.75 7.625V5.375C6.76562 5.0625 6.875 4.79688 7.07812 4.57812C7.29688 4.375 7.5625 4.26562 7.875 4.25ZM7.875 11C7.64062 11.0156 7.51562 11.1406 7.5 11.375V13.625C7.51562 13.8594 7.64062 13.9844 7.875 14H10.125C10.3594 13.9844 10.4844 13.8594 10.5 13.625V11.375C10.4844 11.1406 10.3594 11.0156 10.125 11H7.875ZM6.75 11.375C6.76562 11.0625 6.875 10.7969 7.07812 10.5781C7.29688 10.375 7.5625 10.2656 7.875 10.25H10.125C10.4375 10.2656 10.7031 10.375 10.9219 10.5781C11.125 10.7969 11.2344 11.0625 11.25 11.375V13.625C11.2344 13.9375 11.125 14.2031 10.9219 14.4219C10.7031 14.625 10.4375 14.7344 10.125 14.75H7.875C7.5625 14.7344 7.29688 14.625 7.07812 14.4219C6.875 14.2031 6.76562 13.9375 6.75 13.625V11.375Z" fill="black" fill-opacity="0.72"/>
</g>
<defs>
<clipPath id="clip0_1923_525">
<rect width="12" height="18" fill="white"/>
</clipPath>
</defs>
</svg>
