<svg width="16" height="24" viewBox="0 0 16 24" fill="none" xmlns="http://www.w3.org/2000/svg">
<g id="label-paired / md / arrows-rotate-md / bold" clip-path="url(#clip0_1731_3187)">
<path id="icon" d="M15.5 10.25C15.4583 10.7083 15.2083 10.9583 14.75 11H11.25H10.25C9.79167 10.9583 9.54167 10.7083 9.5 10.25C9.54167 9.79167 9.79167 9.54167 10.25 9.5H11.25H12.9375L11.3125 7.875C10.3958 6.97917 9.29167 6.52083 8 6.5C6.85417 6.52083 5.83333 6.83333 4.9375 7.4375C4.04167 8.04167 3.375 8.84375 2.9375 9.84375C2.72917 10.2604 2.40625 10.3958 1.96875 10.25C1.55208 10.0208 1.41667 9.6875 1.5625 9.25C2.10417 7.97917 2.94792 6.95833 4.09375 6.1875C5.23958 5.41667 6.54167 5.02083 8 5C9.6875 5.02083 11.1458 5.625 12.375 6.8125L14 8.4375V6.75V5.75C14.0417 5.29167 14.2917 5.04167 14.75 5C15.2083 5.04167 15.4583 5.29167 15.5 5.75V10.25ZM1.25 13H4.75C5.20833 13.0417 5.45833 13.2917 5.5 13.75C5.45833 14.2083 5.20833 14.4583 4.75 14.5H3.0625L4.6875 16.125C5.60417 17.0208 6.70833 17.4792 8 17.5C9.14583 17.4792 10.1667 17.1667 11.0625 16.5625C11.9583 15.9583 12.625 15.1562 13.0625 14.1562C13.2708 13.7604 13.5938 13.6354 14.0312 13.7812C14.4479 13.9896 14.5833 14.3125 14.4375 14.75C13.875 16.0208 13.0312 17.0417 11.9062 17.8125C10.7604 18.5833 9.45833 18.9792 8 19C6.3125 18.9792 4.85417 18.375 3.625 17.1875L2 15.5625V17.25C1.95833 17.7083 1.70833 17.9583 1.25 18C0.791667 17.9583 0.541667 17.7083 0.5 17.25V13.75C0.541667 13.2917 0.791667 13.0417 1.25 13Z" fill="black" fill-opacity="0.72"/>
</g>
<defs>
<clipPath id="clip0_1731_3187">
<rect width="16" height="24" fill="white"/>
</clipPath>
</defs>
</svg>
