<svg width="14" height="18" viewBox="0 0 14 18" fill="none" xmlns="http://www.w3.org/2000/svg">
<g id="label-paired / caption / arrow-up-arrow-down-caption / regular" clip-path="url(#clip0_1731_1126)">
<path id="icon" d="M4.25781 4.36719L6.50781 6.61719C6.66406 6.78906 6.66406 6.96094 6.50781 7.13281C6.33594 7.28906 6.16406 7.28906 5.99219 7.13281L4.375 5.53906V14.375C4.35938 14.6094 4.23438 14.7344 4 14.75C3.76562 14.7344 3.64062 14.6094 3.625 14.375V5.53906L2.00781 7.13281C1.83594 7.28906 1.66406 7.28906 1.49219 7.13281C1.33594 6.96094 1.33594 6.78906 1.49219 6.61719L3.74219 4.36719C3.91406 4.21094 4.08594 4.21094 4.25781 4.36719ZM12.5078 12.3828L10.2578 14.6328C10.0859 14.7891 9.91406 14.7891 9.74219 14.6328L7.49219 12.3828C7.33594 12.2109 7.33594 12.0391 7.49219 11.8672C7.66406 11.7109 7.83594 11.7109 8.00781 11.8672L9.625 13.4609V4.625C9.64062 4.39062 9.76562 4.26562 10 4.25C10.2344 4.26562 10.3594 4.39062 10.375 4.625V13.4609L11.9922 11.8672C12.1641 11.7109 12.3359 11.7109 12.5078 11.8672C12.6641 12.0391 12.6641 12.2109 12.5078 12.3828Z" fill="black" fill-opacity="0.72"/>
</g>
<defs>
<clipPath id="clip0_1731_1126">
<rect width="14" height="18" fill="white"/>
</clipPath>
</defs>
</svg>
