<svg width="12" height="18" viewBox="0 0 12 18" fill="none" xmlns="http://www.w3.org/2000/svg">
<g id="label-paired / caption / circle-five-caption / regular" clip-path="url(#clip0_1731_1065)">
<path id="icon" d="M6 4.25C5.04688 4.26562 4.17188 4.5 3.375 4.95312C2.57812 5.42188 1.9375 6.0625 1.45312 6.875C0.984375 7.70312 0.75 8.57812 0.75 9.5C0.75 10.4219 0.984375 11.2969 1.45312 12.125C1.9375 12.9375 2.57812 13.5781 3.375 14.0469C4.17188 14.5 5.04688 14.7344 6 14.75C6.95312 14.7344 7.82812 14.5 8.625 14.0469C9.42188 13.5781 10.0625 12.9375 10.5469 12.125C11.0156 11.2969 11.25 10.4219 11.25 9.5C11.25 8.57812 11.0156 7.70312 10.5469 6.875C10.0625 6.0625 9.42188 5.42188 8.625 4.95312C7.82812 4.5 6.95312 4.26562 6 4.25ZM6 15.5C4.90625 15.4844 3.90625 15.2188 3 14.7031C2.09375 14.1719 1.35938 13.4375 0.796875 12.5C0.265625 11.5469 0 10.5469 0 9.5C0 8.45312 0.265625 7.45312 0.796875 6.5C1.35938 5.5625 2.09375 4.82812 3 4.29688C3.90625 3.78125 4.90625 3.51563 6 3.5C7.09375 3.51563 8.09375 3.78125 9 4.29688C9.90625 4.82812 10.6406 5.5625 11.2031 6.5C11.7344 7.45312 12 8.45312 12 9.5C12 10.5469 11.7344 11.5469 11.2031 12.5C10.6406 13.4375 9.90625 14.1719 9 14.7031C8.09375 15.2188 7.09375 15.4844 6 15.5ZM4.875 6.5H7.5C7.73438 6.51562 7.85938 6.64062 7.875 6.875C7.85938 7.10938 7.73438 7.23438 7.5 7.25H5.17969L4.78125 8.79688L6.65625 8.98438C7.125 9.04688 7.50781 9.23438 7.80469 9.54688C8.08594 9.875 8.23438 10.2734 8.25 10.7422C8.23438 11.2422 8.0625 11.6562 7.73438 11.9844C7.40625 12.3125 6.99219 12.4844 6.49219 12.5H5.46094C4.77344 12.4844 4.23438 12.2031 3.84375 11.6562L3.82031 11.5859C3.71094 11.3828 3.74219 11.2109 3.91406 11.0703C4.11719 10.9609 4.28906 10.9922 4.42969 11.1641L4.47656 11.2344C4.71094 11.5625 5.03906 11.7344 5.46094 11.75H6.49219C6.77344 11.75 7.00781 11.6484 7.19531 11.4453C7.39844 11.2578 7.5 11.0234 7.5 10.7422C7.5 10.4766 7.41406 10.25 7.24219 10.0625C7.07031 9.875 6.85156 9.76562 6.58594 9.73438L4.26562 9.5C4.15625 9.48438 4.07031 9.42969 4.00781 9.33594C3.94531 9.24219 3.92969 9.14062 3.96094 9.03125L4.52344 6.78125C4.57031 6.60938 4.6875 6.51562 4.875 6.5Z" fill="black" fill-opacity="0.72"/>
</g>
<defs>
<clipPath id="clip0_1731_1065">
<rect width="12" height="18" fill="white"/>
</clipPath>
</defs>
</svg>
