<svg width="24" height="36" viewBox="0 0 24 36" fill="none" xmlns="http://www.w3.org/2000/svg">
<g id="label-paired / xl / circle-four-xl / bold" clip-path="url(#clip0_1731_6093)">
<path id="icon" d="M21.75 18C21.75 16.2188 21.3125 14.5938 20.4375 13.125C19.5938 11.6562 18.4062 10.4688 16.875 9.5625C15.3438 8.6875 13.7188 8.25 12 8.25C10.2812 8.25 8.65625 8.6875 7.125 9.5625C5.59375 10.4688 4.40625 11.6562 3.5625 13.125C2.6875 14.5938 2.25 16.2188 2.25 18C2.25 19.7812 2.6875 21.4062 3.5625 22.875C4.40625 24.3438 5.59375 25.5312 7.125 26.4375C8.65625 27.3125 10.2812 27.75 12 27.75C13.7188 27.75 15.3438 27.3125 16.875 26.4375C18.4062 25.5312 19.5938 24.3438 20.4375 22.875C21.3125 21.4062 21.75 19.7812 21.75 18ZM0 18C0.03125 15.8125 0.5625 13.8125 1.59375 12C2.65625 10.1875 4.125 8.71875 6 7.59375C7.90625 6.53125 9.90625 6 12 6C14.0938 6 16.0938 6.53125 18 7.59375C19.875 8.71875 21.3438 10.1875 22.4062 12C23.4375 13.8125 23.9688 15.8125 24 18C23.9688 20.1875 23.4375 22.1875 22.4062 24C21.3438 25.8125 19.875 27.2812 18 28.4062C16.0938 29.4688 14.0938 30 12 30C9.90625 30 7.90625 29.4688 6 28.4062C4.125 27.2812 2.65625 25.8125 1.59375 24C0.5625 22.1875 0.03125 20.1875 0 18ZM10.5 12.0469C11.125 12.3281 11.3594 12.8125 11.2031 13.5L9.42188 18.75H12.75V16.125C12.8125 15.4375 13.1875 15.0625 13.875 15C14.5625 15.0625 14.9375 15.4375 15 16.125V18.75H15.375C16.0625 18.8125 16.4375 19.1875 16.5 19.875C16.4375 20.5625 16.0625 20.9375 15.375 21H15V22.875C14.9375 23.5625 14.5625 23.9375 13.875 24C13.1875 23.9375 12.8125 23.5625 12.75 22.875V21H7.875C7.5 21 7.20312 20.8438 6.98438 20.5312C6.76562 20.2188 6.70312 19.875 6.79688 19.5L9.04688 12.75C9.32812 12.125 9.8125 11.8906 10.5 12.0469Z" fill="black" fill-opacity="0.72"/>
</g>
<defs>
<clipPath id="clip0_1731_6093">
<rect width="24" height="36" fill="white"/>
</clipPath>
</defs>
</svg>
