<svg width="20" height="24" viewBox="0 0 20 24" fill="none" xmlns="http://www.w3.org/2000/svg">
<g id="label-paired / md / fiat-offramp-md / bold" clip-path="url(#clip0_1731_4200)">
<path id="icon" d="M6.125 10.7812C7.0625 10.7812 7.9375 10.2812 8.40625 9.46875C8.875 8.65625 8.875 7.65625 8.40625 6.84375C7.9375 6.03125 7.0625 5.53125 6.125 5.5C5.1875 5.5 4.3125 6.03125 3.84375 6.84375C3.375 7.65625 3.375 8.65625 3.84375 9.46875C4.3125 10.2812 5.1875 10.7812 6.125 10.7812ZM3.5 11.3438V17.3438C3.5 17.9688 4.03125 18.5 4.65625 18.5H10.6562C10.0625 17.8125 9.71875 16.875 9.71875 15.875C9.71875 14.5312 10.375 13.3125 11.4062 12.5625L9.4375 10.5938C8.6875 11.625 7.5 12.2812 6.125 12.2812C5.125 12.2812 4.1875 11.9375 3.5 11.3438ZM13.8438 18.5C15.3125 18.5 16.4688 17.3438 16.4688 15.875C16.4688 14.4375 15.3125 13.25 13.8438 13.25C13.5 13.25 13.1875 13.3125 12.9062 13.4375H12.875C11.9062 13.8125 11.2188 14.7812 11.2188 15.875C11.2188 17.3438 12.4062 18.5 13.8438 18.5ZM12.8438 11.875C13.1562 11.7812 13.5 11.75 13.8438 11.75C16.125 11.75 18 13.5938 18 15.875C18 18.1562 16.125 20 13.8438 20H4.65625C3.1875 20 2 18.8125 2 17.3438V8.15625C2 5.875 3.84375 4 6.125 4C8.40625 4 10.25 5.875 10.25 8.15625C10.25 8.5 10.2188 8.84375 10.125 9.15625L12.8438 11.875ZM14.3438 6.90625C14.75 6.90625 15.0938 7.25 15.0938 7.65625V10.5625C15.0938 10.875 14.9062 11.125 14.625 11.25C14.3438 11.375 14.0312 11.3125 13.8125 11.0938L10.9062 8.1875C10.625 7.90625 10.625 7.4375 10.9062 7.125C11.1875 6.84375 11.6875 6.84375 11.9688 7.125L13.5938 8.75V7.65625C13.5938 7.25 13.9062 6.90625 14.3438 6.90625ZM14.2188 13.625H13.5V13.9375C13 14.0938 12.6875 14.5625 12.6875 15.0625C12.6875 15.7188 13.2188 16.25 13.8438 16.25C14.0938 16.25 14.2812 16.4375 14.2812 16.6875C14.2812 16.9062 14.0938 17.125 13.8438 17.125C13.625 17.125 13.4062 16.9062 13.4062 16.6875V16.5625H12.6875V16.6875C12.6875 17.1875 13 17.625 13.5 17.7812V18.125H14.2188V17.8125C14.6875 17.625 15.0312 17.1875 15.0312 16.6875C15.0312 16.0312 14.5 15.5 13.8438 15.5C13.625 15.5 13.4062 15.3125 13.4062 15.0625C13.4062 14.8125 13.625 14.625 13.8438 14.625C14.0938 14.625 14.2812 14.8125 14.2812 15.0625V15.1562H15.0312V15.0625C15.0312 14.5625 14.6875 14.125 14.2188 13.9375V13.625ZM5.65625 6.03125H5.0625V6.65625H4.46875V7.25H5.0625V9.0625H4.46875V9.65625H5.0625V10.25H5.65625V9.65625H6.28125V10.25H6.875V9.65625C7.34375 9.65625 7.75 9.25 7.75 8.75C7.75 8.53125 7.6875 8.3125 7.53125 8.15625C7.875 7.78125 7.84375 7.21875 7.46875 6.875C7.3125 6.71875 7.09375 6.65625 6.875 6.65625V6.03125H6.28125V6.65625H5.65625V6.03125ZM6.875 8.4375C7.03125 8.4375 7.15625 8.59375 7.15625 8.75C7.15625 8.90625 7.03125 9.0625 6.875 9.0625H5.65625V8.4375H6.875ZM6.875 7.25C7.03125 7.25 7.15625 7.375 7.15625 7.5625C7.15625 7.71875 7.03125 7.84375 6.875 7.84375H5.65625V7.25H6.875Z" fill="black" fill-opacity="0.72"/>
</g>
<defs>
<clipPath id="clip0_1731_4200">
<rect width="20" height="24" fill="white"/>
</clipPath>
</defs>
</svg>
