<svg width="20" height="30" viewBox="0 0 20 30" fill="none" xmlns="http://www.w3.org/2000/svg">
<g id="label-paired / lg / circle-eight-lg / bold" clip-path="url(#clip0_1731_4555)">
<path id="icon" d="M18.125 15.5C18.125 14.0156 17.7604 12.6615 17.0312 11.4375C16.3281 10.2135 15.3385 9.22396 14.0625 8.46875C12.7865 7.73958 11.4323 7.375 10 7.375C8.56771 7.375 7.21354 7.73958 5.9375 8.46875C4.66146 9.22396 3.67188 10.2135 2.96875 11.4375C2.23958 12.6615 1.875 14.0156 1.875 15.5C1.875 16.9844 2.23958 18.3385 2.96875 19.5625C3.67188 20.7865 4.66146 21.776 5.9375 22.5312C7.21354 23.2604 8.56771 23.625 10 23.625C11.4323 23.625 12.7865 23.2604 14.0625 22.5312C15.3385 21.776 16.3281 20.7865 17.0312 19.5625C17.7604 18.3385 18.125 16.9844 18.125 15.5ZM0 15.5C0.0260417 13.6771 0.46875 12.0104 1.32812 10.5C2.21354 8.98958 3.4375 7.76562 5 6.82812C6.58854 5.94271 8.25521 5.5 10 5.5C11.7448 5.5 13.4115 5.94271 15 6.82812C16.5625 7.76562 17.7865 8.98958 18.6719 10.5C19.5312 12.0104 19.974 13.6771 20 15.5C19.974 17.3229 19.5312 18.9896 18.6719 20.5C17.7865 22.0104 16.5625 23.2344 15 24.1719C13.4115 25.0573 11.7448 25.5 10 25.5C8.25521 25.5 6.58854 25.0573 5 24.1719C3.4375 23.2344 2.21354 22.0104 1.32812 20.5C0.46875 18.9896 0.0260417 17.3229 0 15.5ZM10.3125 10.5C11.1198 10.526 11.7839 10.7995 12.3047 11.3203C12.8255 11.8411 13.099 12.5052 13.125 13.3125C13.125 13.9375 12.9557 14.4844 12.6172 14.9531C13.3464 15.5521 13.724 16.3594 13.75 17.375C13.724 18.2604 13.4245 19.0026 12.8516 19.6016C12.2526 20.1745 11.5104 20.474 10.625 20.5H9.375C8.48958 20.474 7.7474 20.1745 7.14844 19.6016C6.57552 19.0026 6.27604 18.2604 6.25 17.375C6.27604 16.3594 6.66667 15.5521 7.42188 14.9531C7.05729 14.4844 6.875 13.9375 6.875 13.3125C6.90104 12.5052 7.17448 11.8411 7.69531 11.3203C8.21615 10.7995 8.88021 10.526 9.6875 10.5H10.3125ZM9.6875 14.25H10.3125C10.8854 14.1979 11.1979 13.8854 11.25 13.3125C11.1979 12.7396 10.8854 12.4271 10.3125 12.375H9.6875C9.11458 12.4271 8.80208 12.7396 8.75 13.3125C8.80208 13.8854 9.11458 14.1979 9.6875 14.25ZM10.3125 16.125H9.6875H9.375C9.01042 16.125 8.71094 16.2422 8.47656 16.4766C8.24219 16.7109 8.125 17.0104 8.125 17.375C8.125 17.7396 8.24219 18.0391 8.47656 18.2734C8.71094 18.5078 9.01042 18.625 9.375 18.625H10.625C10.9896 18.625 11.2891 18.5078 11.5234 18.2734C11.7578 18.0391 11.875 17.7396 11.875 17.375C11.875 17.0104 11.7578 16.7109 11.5234 16.4766C11.2891 16.2422 10.9896 16.125 10.625 16.125H10.3125Z" fill="black" fill-opacity="0.72"/>
</g>
<defs>
<clipPath id="clip0_1731_4555">
<rect width="20" height="30" fill="white"/>
</clipPath>
</defs>
</svg>
