<svg width="30" height="36" viewBox="0 0 30 36" fill="none" xmlns="http://www.w3.org/2000/svg">
<g id="label-paired / xl / deriv-p2p-xl / bold" clip-path="url(#clip0_1731_6720)">
<path id="icon" d="M9 14.625C8.71875 14.625 8.39062 14.6719 8.01562 14.6719C7.6875 14.7188 7.3125 14.7656 6.98438 14.8125V21.4688H8.48438V19.2188H9C9.98438 19.2188 10.7812 19.0312 11.2969 18.6562C11.8594 18.3281 12.1406 17.7188 12.1406 16.9219C12.1406 16.125 11.8594 15.5156 11.3438 15.1875C10.7812 14.8125 10.0312 14.625 9 14.625ZM9.09375 15.9375C9.32812 15.9375 9.51562 15.9375 9.70312 15.9844C9.89062 16.0312 10.0312 16.0781 10.1719 16.125C10.3125 16.2188 10.4062 16.3125 10.4531 16.4531C10.5469 16.5469 10.5469 16.7344 10.5469 16.9219C10.5469 17.2969 10.4531 17.5781 10.1719 17.7188C9.89062 17.8594 9.51562 17.9062 9 17.9062H8.48438V15.9844C8.57812 15.9844 8.67188 15.9375 8.76562 15.9375C8.90625 15.9375 9 15.9375 9.09375 15.9375ZM16.8281 16.5C16.8281 16.2188 16.7812 15.9375 16.6875 15.7031C16.5938 15.4688 16.4531 15.2812 16.2656 15.0938C16.0781 14.9531 15.8438 14.8125 15.5625 14.7188C15.2812 14.625 14.9531 14.5781 14.5312 14.5781C14.1094 14.5781 13.6875 14.6719 13.3125 14.8594C12.9375 15 12.6094 15.2344 12.3281 15.5156L13.0312 16.5C13.0781 16.4531 13.1719 16.4062 13.2656 16.3594C13.3594 16.2656 13.4531 16.1719 13.5938 16.125C13.6875 16.0312 13.8281 15.9844 14.0156 15.9375C14.1562 15.8438 14.2969 15.8438 14.4844 15.8438C14.7188 15.8438 14.9531 15.8906 15.0938 15.9844C15.2812 16.125 15.3281 16.3125 15.3281 16.5938C15.3281 16.7344 15.3281 16.875 15.2344 17.0156C15.1875 17.1094 15.0938 17.25 15 17.3906C14.9062 17.4844 14.7656 17.625 14.625 17.7656C14.4844 17.9062 14.3438 18.0469 14.2031 18.1875C14.0156 18.375 13.7812 18.5625 13.5938 18.75C13.4062 18.9375 13.2188 19.1719 13.0312 19.4062C12.8906 19.6406 12.75 19.875 12.6562 20.1094C12.5625 20.3906 12.5156 20.6719 12.5156 21C12.5156 21.0469 12.5156 21.0938 12.5156 21.2344C12.5156 21.3281 12.5156 21.4219 12.5156 21.4688H17.0156V20.25H14.1094C14.1562 20.2031 14.2031 20.1094 14.25 20.0156C14.3438 19.9219 14.4375 19.8281 14.5312 19.6875C14.6719 19.5938 14.7656 19.4531 14.8594 19.3594C15 19.2188 15.0938 19.125 15.1875 19.0312C15.375 18.8438 15.5625 18.6562 15.75 18.4688C15.9844 18.2812 16.125 18.0938 16.3125 17.8594C16.4531 17.6719 16.5938 17.4375 16.6875 17.2031C16.7812 16.9688 16.8281 16.7344 16.8281 16.5ZM19.8281 14.625H19.875C19.5938 14.625 19.2656 14.6719 18.8906 14.6719C18.5156 14.7188 18.1406 14.7656 17.8125 14.8125V21.4688H19.3594V19.2188H19.8281C20.8125 19.2188 21.6094 19.0312 22.1719 18.6562C22.6875 18.3281 22.9688 17.7188 22.9688 16.9219C22.9688 16.125 22.6875 15.5156 22.1719 15.1875C21.6094 14.8125 20.8594 14.625 19.8281 14.625ZM19.9688 15.9375C20.1562 15.9375 20.3906 15.9375 20.5312 15.9844C20.7188 16.0312 20.9062 16.0781 21 16.125C21.1406 16.2188 21.2344 16.3125 21.2812 16.4531C21.375 16.5469 21.4219 16.7344 21.4219 16.9219C21.4219 17.2969 21.2812 17.5781 21 17.7188C20.7656 17.8594 20.3438 17.9062 19.8281 17.9062H19.3594V15.9844C19.4062 15.9844 19.5 15.9375 19.5938 15.9375C19.7344 15.9375 19.8281 15.9375 19.9688 15.9375ZM22.5 8.25H7.5C6.23438 8.25 5.25 9.28125 5.25 10.5V25.5C5.25 26.7656 6.23438 27.75 7.5 27.75H22.5C23.7188 27.75 24.75 26.7656 24.75 25.5V10.5C24.75 9.28125 23.7188 8.25 22.5 8.25ZM7.5 6H22.5C24.9844 6 27 8.01562 27 10.5V25.5C27 27.9844 24.9844 30 22.5 30H7.5C5.01562 30 3 27.9844 3 25.5V10.5C3 8.01562 5.01562 6 7.5 6Z" fill="black" fill-opacity="0.72"/>
</g>
<defs>
<clipPath id="clip0_1731_6720">
<rect width="30" height="36" fill="white"/>
</clipPath>
</defs>
</svg>
