<svg width="20" height="30" viewBox="0 0 20 30" fill="none" xmlns="http://www.w3.org/2000/svg">
<g id="label-paired / lg / arrows-rotate-lg / bold" clip-path="url(#clip0_1731_5401)">
<path id="icon" d="M19.375 13.3125C19.3229 13.8854 19.0104 14.1979 18.4375 14.25H14.0625H12.8125C12.2396 14.1979 11.9271 13.8854 11.875 13.3125C11.9271 12.7396 12.2396 12.4271 12.8125 12.375H14.0625H16.1719L14.1406 10.3438C12.9948 9.22396 11.6146 8.65104 10 8.625C8.56771 8.65104 7.29167 9.04167 6.17188 9.79688C5.05208 10.5521 4.21875 11.5547 3.67188 12.8047C3.41146 13.3255 3.00781 13.4948 2.46094 13.3125C1.9401 13.026 1.77083 12.6094 1.95312 12.0625C2.63021 10.474 3.6849 9.19792 5.11719 8.23438C6.54948 7.27083 8.17708 6.77604 10 6.75C12.1094 6.77604 13.9323 7.53125 15.4688 9.01562L17.5 11.0469V8.9375V7.6875C17.5521 7.11458 17.8646 6.80208 18.4375 6.75C19.0104 6.80208 19.3229 7.11458 19.375 7.6875V13.3125ZM1.5625 16.75H5.9375C6.51042 16.8021 6.82292 17.1146 6.875 17.6875C6.82292 18.2604 6.51042 18.5729 5.9375 18.625H3.82812L5.85938 20.6562C7.00521 21.776 8.38542 22.349 10 22.375C11.4323 22.349 12.7083 21.9583 13.8281 21.2031C14.9479 20.4479 15.7812 19.4453 16.3281 18.1953C16.5885 17.7005 16.9922 17.5443 17.5391 17.7266C18.0599 17.987 18.2292 18.3906 18.0469 18.9375C17.3438 20.526 16.2891 21.8021 14.8828 22.7656C13.4505 23.7292 11.8229 24.224 10 24.25C7.89062 24.224 6.06771 23.4688 4.53125 21.9844L2.5 19.9531V22.0625C2.44792 22.6354 2.13542 22.9479 1.5625 23C0.989583 22.9479 0.677083 22.6354 0.625 22.0625V17.6875C0.677083 17.1146 0.989583 16.8021 1.5625 16.75Z" fill="black" fill-opacity="0.72"/>
</g>
<defs>
<clipPath id="clip0_1731_5401">
<rect width="20" height="30" fill="white"/>
</clipPath>
</defs>
</svg>
