<svg width="30" height="36" viewBox="0 0 30 36" fill="none" xmlns="http://www.w3.org/2000/svg">
<g id="label-paired / xl / users-xl / bold" clip-path="url(#clip0_1731_6792)">
<path id="icon" d="M6.75 13.5C5.34375 13.4688 4.26562 12.8438 3.51562 11.625C2.82812 10.375 2.82812 9.125 3.51562 7.875C4.26562 6.65625 5.34375 6.03125 6.75 6C8.15625 6.03125 9.23438 6.65625 9.98438 7.875C10.6719 9.125 10.6719 10.375 9.98438 11.625C9.23438 12.8438 8.15625 13.4688 6.75 13.5ZM24 13.5C22.5938 13.4688 21.5156 12.8438 20.7656 11.625C20.0781 10.375 20.0781 9.125 20.7656 7.875C21.5156 6.65625 22.5938 6.03125 24 6C25.4062 6.03125 26.4844 6.65625 27.2344 7.875C27.9219 9.125 27.9219 10.375 27.2344 11.625C26.4844 12.8438 25.4062 13.4688 24 13.5ZM0 20.0156C0.03125 18.5781 0.515625 17.3906 1.45312 16.4531C2.39062 15.5156 3.57812 15.0312 5.01562 15H6.98438C7.73438 15 8.4375 15.1562 9.09375 15.4688C9.03125 15.8125 9 16.1562 9 16.5C9.0625 18.3438 9.73438 19.8438 11.0156 21H0.984375C0.390625 20.9375 0.0625 20.6094 0 20.0156ZM18.9844 21C20.2656 19.8438 20.9375 18.3438 21 16.5C21 16.1562 20.9688 15.8125 20.9062 15.4688C21.5625 15.1562 22.2656 15 23.0156 15H24.9844C26.4219 15.0312 27.6094 15.5156 28.5469 16.4531C29.4844 17.3906 29.9688 18.5781 30 20.0156C29.9375 20.6094 29.6094 20.9375 29.0156 21H18.9844ZM15 14.25C14.1562 14.2812 13.5 14.6562 13.0312 15.375C12.6562 16.125 12.6562 16.875 13.0312 17.625C13.5 18.3438 14.1562 18.7188 15 18.75C15.8438 18.7188 16.5 18.3438 16.9688 17.625C17.3438 16.875 17.3438 16.125 16.9688 15.375C16.5 14.6562 15.8438 14.2812 15 14.25ZM15 21C14.1875 21 13.4375 20.7969 12.75 20.3906C12.0625 19.9844 11.5156 19.4375 11.1094 18.75C10.7031 18.0312 10.5 17.2812 10.5 16.5C10.5 15.7188 10.7031 14.9688 11.1094 14.25C11.5156 13.5625 12.0625 13.0156 12.75 12.6094C13.4375 12.2031 14.1875 12 15 12C15.8125 12 16.5625 12.2031 17.25 12.6094C17.9375 13.0156 18.4844 13.5625 18.8906 14.25C19.2969 14.9688 19.5 15.7188 19.5 16.5C19.5 17.2812 19.2969 18.0312 18.8906 18.75C18.4844 19.4375 17.9375 19.9844 17.25 20.3906C16.5625 20.7969 15.8125 21 15 21ZM12.2344 24.75C11.2969 24.7812 10.4844 25.0625 9.79688 25.5938C9.07812 26.1562 8.60938 26.875 8.39062 27.75H21.6094C21.3906 26.875 20.9219 26.1562 20.2031 25.5938C19.5156 25.0625 18.7031 24.7812 17.7656 24.75H12.2344ZM12.2344 22.5H17.7656C19.5156 22.5312 20.9844 23.1406 22.1719 24.3281C23.3594 25.5156 23.9688 26.9844 24 28.7344C23.9375 29.5156 23.5156 29.9375 22.7344 30H7.26562C6.48438 29.9375 6.0625 29.5156 6 28.7344C6.03125 26.9844 6.64062 25.5156 7.82812 24.3281C9.01562 23.1406 10.4844 22.5312 12.2344 22.5Z" fill="black" fill-opacity="0.72"/>
</g>
<defs>
<clipPath id="clip0_1731_6792">
<rect width="30" height="36" fill="white"/>
</clipPath>
</defs>
</svg>
