<svg width="20" height="30" viewBox="0 0 20 30" fill="none" xmlns="http://www.w3.org/2000/svg">
<g id="label-paired / lg / paste-lg / bold" clip-path="url(#clip0_1731_4911)">
<path id="icon" d="M3.125 9.25H2.5C2.10938 9.27604 1.90104 9.48438 1.875 9.875V20.5C1.90104 20.8906 2.10938 21.099 2.5 21.125H6.25V23H2.5C1.79688 22.974 1.21094 22.7266 0.742188 22.2578C0.273438 21.7891 0.0260417 21.2031 0 20.5V9.875C0.0260417 9.17188 0.273438 8.58594 0.742188 8.11719C1.21094 7.64844 1.79688 7.40104 2.5 7.375H4.10156C4.17969 6.82812 4.41406 6.38542 4.80469 6.04688C5.19531 5.68229 5.67708 5.5 6.25 5.5C6.82292 5.5 7.30469 5.68229 7.69531 6.04688C8.08594 6.38542 8.32031 6.82812 8.39844 7.375H10C10.599 7.375 11.1198 7.55729 11.5625 7.92188C11.9792 8.26042 12.2656 8.70312 12.4219 9.25H10C9.29688 9.25 8.65885 9.41927 8.08594 9.75781C7.53906 10.0964 7.09635 10.5521 6.75781 11.125H4.375C4.01042 11.125 3.71094 11.0078 3.47656 10.7734C3.24219 10.5391 3.125 10.2396 3.125 9.875V9.25ZM5.625 7.6875C5.65104 8.07812 5.85938 8.28646 6.25 8.3125C6.64062 8.28646 6.84896 8.07812 6.875 7.6875C6.84896 7.29688 6.64062 7.08854 6.25 7.0625C5.85938 7.08854 5.65104 7.29688 5.625 7.6875ZM10 23.625H17.5C17.8906 23.599 18.099 23.3906 18.125 23V15.5H16.25C15.8854 15.5 15.5859 15.3828 15.3516 15.1484C15.1172 14.9141 15 14.6146 15 14.25V12.375H10C9.60938 12.401 9.40104 12.6094 9.375 13V23C9.40104 23.3906 9.60938 23.599 10 23.625ZM17.5 25.5H10C9.29688 25.474 8.71094 25.2266 8.24219 24.7578C7.77344 24.2891 7.52604 23.7031 7.5 23V13C7.52604 12.2969 7.77344 11.7109 8.24219 11.2422C8.71094 10.7734 9.29688 10.526 10 10.5H16.0938C16.6146 10.5 17.0573 10.6823 17.4219 11.0469L19.4531 13.0781C19.8177 13.4427 20 13.8854 20 14.4062V23C19.974 23.7031 19.7266 24.2891 19.2578 24.7578C18.7891 25.2266 18.2031 25.474 17.5 25.5Z" fill="black" fill-opacity="0.72"/>
</g>
<defs>
<clipPath id="clip0_1731_4911">
<rect width="20" height="30" fill="white"/>
</clipPath>
</defs>
</svg>
