<svg width="16" height="24" viewBox="0 0 16 24" fill="none" xmlns="http://www.w3.org/2000/svg">
<g id="label-paired / md / at-md / regular" clip-path="url(#clip0_1731_3874)">
<path id="icon" d="M8 5C6.6875 5.02083 5.51042 5.34375 4.46875 5.96875C3.40625 6.57292 2.57292 7.40625 1.96875 8.46875C1.34375 9.51042 1.02083 10.6875 1 12C1.02083 13.3125 1.34375 14.4896 1.96875 15.5312C2.57292 16.5938 3.40625 17.4271 4.46875 18.0312C5.51042 18.6562 6.6875 18.9792 8 19C8.3125 19.0208 8.47917 19.1875 8.5 19.5C8.47917 19.8125 8.3125 19.9792 8 20C6.5 19.9792 5.15625 19.6146 3.96875 18.9062C2.76042 18.1979 1.80208 17.2396 1.09375 16.0312C0.385417 14.8438 0.0208333 13.5 0 12C0.0208333 10.5 0.385417 9.15625 1.09375 7.96875C1.80208 6.76042 2.76042 5.80208 3.96875 5.09375C5.15625 4.38542 6.5 4.02083 8 4C9.5 4.02083 10.8438 4.38542 12.0312 5.09375C13.2396 5.80208 14.1979 6.76042 14.9062 7.96875C15.6146 9.15625 15.9792 10.5 16 12V12.75C15.9792 13.5208 15.7083 14.1667 15.1875 14.6875C14.6667 15.2083 14.0208 15.4792 13.25 15.5C12.7292 15.5 12.25 15.3646 11.8125 15.0938C11.3958 14.8438 11.0729 14.5 10.8438 14.0625C10.1562 14.9792 9.20833 15.4583 8 15.5C7 15.4792 6.17708 15.1354 5.53125 14.4688C4.86458 13.8229 4.52083 13 4.5 12C4.52083 11 4.86458 10.1771 5.53125 9.53125C6.17708 8.86458 7 8.52083 8 8.5C9 8.52083 9.83333 8.875 10.5 9.5625V9.5C10.5208 9.1875 10.6875 9.02083 11 9C11.3125 9.02083 11.4792 9.1875 11.5 9.5V12V12.75C11.5208 13.25 11.6875 13.6667 12 14C12.3333 14.3125 12.75 14.4792 13.25 14.5C13.75 14.4792 14.1667 14.3125 14.5 14C14.8125 13.6667 14.9792 13.25 15 12.75V12C14.9792 10.6875 14.6562 9.51042 14.0312 8.46875C13.4271 7.40625 12.5938 6.57292 11.5312 5.96875C10.4896 5.34375 9.3125 5.02083 8 5ZM10.5 12C10.4792 11.0625 10.0625 10.3438 9.25 9.84375C8.41667 9.38542 7.58333 9.38542 6.75 9.84375C5.9375 10.3438 5.52083 11.0625 5.5 12C5.52083 12.9375 5.9375 13.6562 6.75 14.1562C7.58333 14.6146 8.41667 14.6146 9.25 14.1562C10.0625 13.6562 10.4792 12.9375 10.5 12Z" fill="black" fill-opacity="0.72"/>
</g>
<defs>
<clipPath id="clip0_1731_3874">
<rect width="16" height="24" fill="white"/>
</clipPath>
</defs>
</svg>
