<svg width="9" height="18" viewBox="0 0 9 18" fill="none" xmlns="http://www.w3.org/2000/svg">
<g id="label-paired / caption / arrow-down-to-line-caption / regular" clip-path="url(#clip0_1731_919)">
<path id="icon" d="M0.375 14.75C0.140625 14.7344 0.015625 14.6094 0 14.375C0.015625 14.1406 0.140625 14.0156 0.375 14H8.625C8.85938 14.0156 8.98438 14.1406 9 14.375C8.98438 14.6094 8.85938 14.7344 8.625 14.75H0.375ZM4.75781 12.3828C4.58594 12.5391 4.41406 12.5391 4.24219 12.3828L1.24219 9.38281C1.08594 9.21094 1.08594 9.03906 1.24219 8.86719C1.41406 8.71094 1.58594 8.71094 1.75781 8.86719L4.125 11.2109V8.75V4.625C4.14062 4.39062 4.26562 4.26562 4.5 4.25C4.73438 4.26562 4.85938 4.39062 4.875 4.625V8.75V11.2109L7.24219 8.86719C7.41406 8.71094 7.58594 8.71094 7.75781 8.86719C7.91406 9.03906 7.91406 9.21094 7.75781 9.38281L4.75781 12.3828Z" fill="black" fill-opacity="0.72"/>
</g>
<defs>
<clipPath id="clip0_1731_919">
<rect width="9" height="18" fill="white"/>
</clipPath>
</defs>
</svg>
