<svg width="9" height="22" viewBox="0 0 9 22" fill="none" xmlns="http://www.w3.org/2000/svg">
<g id="label-paired / sm / forward-step-sm / fill" clip-path="url(#clip0_1731_2812)">
<path id="icon" d="M1.57422 15.8086C1.28255 16.0273 0.963542 16.0638 0.617188 15.918C0.307292 15.7539 0.143229 15.4896 0.125 15.125V6.375C0.143229 6.01042 0.307292 5.74609 0.617188 5.58203C0.963542 5.4362 1.28255 5.47266 1.57422 5.69141L6.82422 10.0664L7.125 10.3398V6.375C7.125 6.11979 7.20703 5.91016 7.37109 5.74609C7.53516 5.58203 7.74479 5.5 8 5.5C8.25521 5.5 8.46484 5.58203 8.62891 5.74609C8.79297 5.91016 8.875 6.11979 8.875 6.375V15.125C8.875 15.3802 8.79297 15.5898 8.62891 15.7539C8.46484 15.918 8.25521 16 8 16C7.74479 16 7.53516 15.918 7.37109 15.7539C7.20703 15.5898 7.125 15.3802 7.125 15.125V11.1602L6.82422 11.4336L1.57422 15.8086Z" fill="black" fill-opacity="0.72"/>
</g>
<defs>
<clipPath id="clip0_1731_2812">
<rect width="9" height="22" fill="white"/>
</clipPath>
</defs>
</svg>
