<svg width="7" height="22" viewBox="0 0 7 22" fill="none" xmlns="http://www.w3.org/2000/svg">
<g id="label-paired / sm / one-sm / regular" clip-path="url(#clip0_1731_2253)">
<path id="icon" d="M3.9375 5.0625V16H6.5625C6.83594 16.0182 6.98177 16.1641 7 16.4375C6.98177 16.7109 6.83594 16.8568 6.5625 16.875H3.5H0.4375C0.164062 16.8568 0.0182292 16.7109 0 16.4375C0.0182292 16.1641 0.164062 16.0182 0.4375 16H3.0625V5.88281L1.12109 7.16797C0.884115 7.29557 0.683594 7.25911 0.519531 7.05859C0.391927 6.82161 0.428385 6.62109 0.628906 6.45703L3.25391 4.70703C3.39974 4.61589 3.55469 4.60677 3.71875 4.67969C3.86458 4.77083 3.9375 4.89844 3.9375 5.0625Z" fill="black" fill-opacity="0.72"/>
</g>
<defs>
<clipPath id="clip0_1731_2253">
<rect width="7" height="22" fill="white"/>
</clipPath>
</defs>
</svg>
