<svg width="14" height="18" viewBox="0 0 14 18" fill="none" xmlns="http://www.w3.org/2000/svg">
<g id="label-paired / caption / house-blank-caption / bold" clip-path="url(#clip0_1731_1432)">
<path id="icon" d="M7.375 3.64062L13.5625 8.89062C13.7969 9.125 13.8125 9.39062 13.6094 9.6875C13.375 9.92188 13.1172 9.9375 12.8359 9.73438L12.25 9.26562V13.625C12.2344 14.1562 12.0547 14.6016 11.7109 14.9609C11.3516 15.3047 10.9062 15.4844 10.375 15.5H3.625C3.09375 15.4844 2.64844 15.3047 2.28906 14.9609C1.94531 14.6016 1.76562 14.1562 1.75 13.625V9.26562L1.16406 9.73438C0.882812 9.9375 0.625 9.92188 0.390625 9.6875C0.1875 9.39062 0.203125 9.125 0.4375 8.89062L6.625 3.64062C6.875 3.45312 7.125 3.45312 7.375 3.64062ZM11.125 8.30469L7 4.8125L2.875 8.30469V13.625C2.875 13.8438 2.94531 14.0234 3.08594 14.1641C3.22656 14.3047 3.40625 14.375 3.625 14.375H10.375C10.5938 14.375 10.7734 14.3047 10.9141 14.1641C11.0547 14.0234 11.125 13.8438 11.125 13.625V8.30469Z" fill="black" fill-opacity="0.72"/>
</g>
<defs>
<clipPath id="clip0_1731_1432">
<rect width="14" height="18" fill="white"/>
</clipPath>
</defs>
</svg>
