<svg width="20" height="30" viewBox="0 0 20 30" fill="none" xmlns="http://www.w3.org/2000/svg">
<g id="label-paired / lg / window-maximize-lg / bold" clip-path="url(#clip0_1731_5421)">
<path id="icon" d="M0 9.01562C0.0520833 8.67708 0.15625 8.36458 0.3125 8.07812C0.520833 7.66146 0.833333 7.33594 1.25 7.10156C1.5625 6.91927 1.90104 6.80208 2.26562 6.75C2.34375 6.75 2.42188 6.75 2.5 6.75H17.5C18.2031 6.77604 18.7891 7.02344 19.2578 7.49219C19.7266 7.96094 19.974 8.54688 20 9.25V14.25V21.75C19.974 22.4531 19.7266 23.0391 19.2578 23.5078C18.7891 23.9766 18.2031 24.224 17.5 24.25H2.5C1.79688 24.224 1.21094 23.9766 0.742188 23.5078C0.273438 23.0391 0.0260417 22.4531 0 21.75V14.25V9.25C0 9.17188 0 9.09375 0 9.01562ZM1.875 14.25V21.75C1.90104 22.1406 2.10938 22.349 2.5 22.375H17.5C17.8906 22.349 18.099 22.1406 18.125 21.75V14.25H1.875Z" fill="black" fill-opacity="0.72"/>
</g>
<defs>
<clipPath id="clip0_1731_5421">
<rect width="20" height="30" fill="white"/>
</clipPath>
</defs>
</svg>
