<svg width="11" height="22" viewBox="0 0 11 22" fill="none" xmlns="http://www.w3.org/2000/svg">
<g id="label-paired / sm / file-invoice-dollar-sm / bold" clip-path="url(#clip0_1731_2776)">
<path id="icon" d="M9.4375 16V8.125H7.25C6.99479 8.125 6.78516 8.04297 6.62109 7.87891C6.45703 7.71484 6.375 7.50521 6.375 7.25V5.0625H2C1.72656 5.08073 1.58073 5.22656 1.5625 5.5V16C1.58073 16.2734 1.72656 16.4193 2 16.4375H9C9.27344 16.4193 9.41927 16.2734 9.4375 16ZM0.25 5.5C0.268229 5.00781 0.441406 4.59766 0.769531 4.26953C1.09766 3.94141 1.50781 3.76823 2 3.75H6.53906C7.01302 3.75 7.42318 3.92318 7.76953 4.26953L10.2305 6.73047C10.5768 7.07682 10.75 7.49609 10.75 7.98828V16C10.7318 16.4922 10.5586 16.9023 10.2305 17.2305C9.90234 17.5586 9.49219 17.7318 9 17.75H2C1.50781 17.7318 1.09766 17.5586 0.769531 17.2305C0.441406 16.9023 0.268229 16.4922 0.25 16V5.5ZM5.5 9.65625C5.82812 9.67448 6.01042 9.85677 6.04688 10.2031V10.4766C6.2474 10.4948 6.4388 10.5312 6.62109 10.5859C6.93099 10.6953 7.06771 10.9141 7.03125 11.2422C6.92188 11.5521 6.69401 11.6888 6.34766 11.6523C6.05599 11.5794 5.77344 11.5339 5.5 11.5156C5.26302 11.5156 5.05339 11.5612 4.87109 11.6523C4.76172 11.7253 4.71615 11.7799 4.73438 11.8164C4.73438 11.8346 4.77083 11.862 4.84375 11.8984C5.02604 11.9896 5.28125 12.0716 5.60938 12.1445C5.6276 12.1628 5.63672 12.1719 5.63672 12.1719H5.66406C5.99219 12.2448 6.32943 12.3633 6.67578 12.5273C6.83984 12.6185 6.99479 12.7552 7.14062 12.9375C7.26823 13.1016 7.34115 13.3203 7.35938 13.5938C7.32292 14.1589 7.08594 14.5508 6.64844 14.7695C6.46615 14.8789 6.26562 14.9518 6.04688 14.9883V15.2617C6.01042 15.5898 5.82812 15.7721 5.5 15.8086C5.17188 15.7721 4.98958 15.5898 4.95312 15.2617V14.9609C4.69792 14.9062 4.46094 14.8424 4.24219 14.7695C4.22396 14.7695 4.20573 14.7604 4.1875 14.7422C4.15104 14.7422 4.1237 14.7331 4.10547 14.7148C4.06901 14.7148 4.04167 14.7148 4.02344 14.7148C3.71354 14.5872 3.59505 14.3594 3.66797 14.0312C3.79557 13.7214 4.02344 13.5938 4.35156 13.6484C4.38802 13.6667 4.43359 13.6849 4.48828 13.7031C4.50651 13.7031 4.52474 13.7031 4.54297 13.7031C4.88932 13.8307 5.21745 13.9036 5.52734 13.9219C5.78255 13.9219 5.98307 13.8854 6.12891 13.8125C6.23828 13.7396 6.28385 13.6758 6.26562 13.6211C6.28385 13.6029 6.23828 13.5573 6.12891 13.4844C5.94661 13.3932 5.69141 13.3021 5.36328 13.2109H5.30859C4.98047 13.138 4.66146 13.0195 4.35156 12.8555C4.16927 12.7643 4.00521 12.6367 3.85938 12.4727C3.73177 12.3086 3.65885 12.0898 3.64062 11.8164C3.64062 11.5247 3.71354 11.2878 3.85938 11.1055C4.00521 10.9049 4.17839 10.7591 4.37891 10.668C4.5612 10.5768 4.7526 10.513 4.95312 10.4766V10.2031C4.98958 9.85677 5.17188 9.67448 5.5 9.65625ZM2.875 6.375H5.0625C5.33594 6.39323 5.48177 6.53906 5.5 6.8125C5.48177 7.08594 5.33594 7.23177 5.0625 7.25H2.875C2.60156 7.23177 2.45573 7.08594 2.4375 6.8125C2.45573 6.53906 2.60156 6.39323 2.875 6.375ZM2.875 8.125H5.0625C5.33594 8.14323 5.48177 8.28906 5.5 8.5625C5.48177 8.83594 5.33594 8.98177 5.0625 9H2.875C2.60156 8.98177 2.45573 8.83594 2.4375 8.5625C2.45573 8.28906 2.60156 8.14323 2.875 8.125Z" fill="black" fill-opacity="0.72"/>
</g>
<defs>
<clipPath id="clip0_1731_2776">
<rect width="11" height="22" fill="white"/>
</clipPath>
</defs>
</svg>
