<svg width="12" height="24" viewBox="0 0 12 24" fill="none" xmlns="http://www.w3.org/2000/svg">
<g id="label-paired / md / four-md / bold" clip-path="url(#clip0_1731_3528)">
<path id="icon" d="M5.90625 6.09375L2 13.5H8.5V8.75C8.54167 8.29167 8.79167 8.04167 9.25 8C9.70833 8.04167 9.95833 8.29167 10 8.75V13.5H11.25C11.7083 13.5417 11.9583 13.7917 12 14.25C11.9583 14.7083 11.7083 14.9583 11.25 15H10V18.25C9.95833 18.7083 9.70833 18.9583 9.25 19C8.79167 18.9583 8.54167 18.7083 8.5 18.25V15H0.75C0.479167 15 0.260417 14.875 0.09375 14.625C-0.03125 14.3958 -0.03125 14.1562 0.09375 13.9062L4.59375 5.40625C4.84375 5.01042 5.17708 4.90625 5.59375 5.09375C5.98958 5.34375 6.09375 5.67708 5.90625 6.09375Z" fill="black" fill-opacity="0.72"/>
</g>
<defs>
<clipPath id="clip0_1731_3528">
<rect width="12" height="24" fill="white"/>
</clipPath>
</defs>
</svg>
