<svg width="16" height="24" viewBox="0 0 16 24" fill="none" xmlns="http://www.w3.org/2000/svg">
<g id="label-paired / md / right-to-bracket-md / regular" clip-path="url(#clip0_1731_3195)">
<path id="icon" d="M9.96875 12.0625C9.98958 12.0417 10 12.0208 10 12C10 11.9792 9.98958 11.9583 9.96875 11.9375L5.84375 8.0625C5.80208 8.02083 5.76042 8 5.71875 8C5.59375 8.02083 5.52083 8.09375 5.5 8.21875V10C5.47917 10.3125 5.3125 10.4792 5 10.5H1.25C1.10417 10.5208 1.02083 10.6042 1 10.75V13.25C1.02083 13.3958 1.10417 13.4792 1.25 13.5H5C5.3125 13.5208 5.47917 13.6875 5.5 14V15.7812C5.52083 15.9062 5.59375 15.9792 5.71875 16C5.76042 16 5.80208 15.9792 5.84375 15.9375L9.96875 12.0625ZM11 12C11 12.3125 10.8854 12.5729 10.6562 12.7812L6.53125 16.6875C6.30208 16.8958 6.03125 17 5.71875 17C5.36458 17 5.07292 16.8854 4.84375 16.6562C4.61458 16.4271 4.5 16.1354 4.5 15.7812V14.5H1.25C0.895833 14.5 0.604167 14.375 0.375 14.125C0.125 13.8958 0 13.6042 0 13.25V10.75C0 10.3958 0.125 10.1042 0.375 9.875C0.604167 9.625 0.895833 9.5 1.25 9.5H4.5V8.21875C4.5 7.86458 4.61458 7.57292 4.84375 7.34375C5.07292 7.11458 5.36458 7 5.71875 7C6.03125 7 6.30208 7.11458 6.53125 7.34375L10.6562 11.2188C10.8854 11.4271 11 11.6875 11 12ZM10.5 18H13.5C13.9167 17.9792 14.2708 17.8333 14.5625 17.5625C14.8333 17.2708 14.9792 16.9167 15 16.5V7.5C14.9792 7.08333 14.8333 6.72917 14.5625 6.4375C14.2708 6.16667 13.9167 6.02083 13.5 6H10.5C10.1875 5.97917 10.0208 5.8125 10 5.5C10.0208 5.1875 10.1875 5.02083 10.5 5H13.5C14.2083 5.02083 14.8021 5.26042 15.2812 5.71875C15.7396 6.19792 15.9792 6.79167 16 7.5V16.5C15.9792 17.2083 15.7396 17.8021 15.2812 18.2812C14.8021 18.7396 14.2083 18.9792 13.5 19H10.5C10.1875 18.9792 10.0208 18.8125 10 18.5C10.0208 18.1875 10.1875 18.0208 10.5 18Z" fill="black" fill-opacity="0.72"/>
</g>
<defs>
<clipPath id="clip0_1731_3195">
<rect width="16" height="24" fill="white"/>
</clipPath>
</defs>
</svg>
