<svg width="25" height="30" viewBox="0 0 25 30" fill="none" xmlns="http://www.w3.org/2000/svg">
<g id="label-paired / lg / bell-slash-lg / bold" clip-path="url(#clip0_1731_4758)">
<path id="icon" d="M1.52344 5.69531L7.1875 10.1484C8.125 8.66406 9.47917 7.76562 11.25 7.45312V6.75C11.25 6.38542 11.3672 6.08594 11.6016 5.85156C11.8359 5.61719 12.1354 5.5 12.5 5.5C12.8646 5.5 13.1641 5.61719 13.3984 5.85156C13.6328 6.08594 13.75 6.38542 13.75 6.75V7.45312C15.2083 7.71354 16.3932 8.3776 17.3047 9.44531C18.2422 10.513 18.724 11.8021 18.75 13.3125V14.6016C18.776 16.4245 19.349 18.0521 20.4688 19.4844L21.0547 20.2266C21.263 20.513 21.3151 20.8125 21.2109 21.125L24.6484 23.8203C25.0651 24.2109 25.1172 24.6536 24.8047 25.1484C24.4141 25.5651 23.9714 25.6172 23.4766 25.3047L0.351562 7.17969C-0.0651042 6.78906 -0.117188 6.34635 0.195312 5.85156C0.585938 5.4349 1.02865 5.38281 1.52344 5.69531ZM8.67188 11.2812L17.6172 18.3125C17.1224 17.1406 16.875 15.9036 16.875 14.6016V13.3125C16.849 12.1667 16.4583 11.2031 15.7031 10.4219C14.9219 9.66667 13.9583 9.27604 12.8125 9.25H12.5H12.1875C11.4323 9.25 10.7422 9.43229 10.1172 9.79688C9.49219 10.1875 9.01042 10.6823 8.67188 11.2812ZM15.8594 21.75H4.6875C4.29688 21.724 4.01042 21.5417 3.82812 21.2031C3.69792 20.8646 3.73698 20.5391 3.94531 20.2266L4.53125 19.4844C5.65104 18.0521 6.22396 16.4375 6.25 14.6406V14.1719L8.08594 15.6172C7.90365 17.1536 7.39583 18.5729 6.5625 19.875H13.4766L15.8594 21.75ZM15 23C15 23.6771 14.7526 24.263 14.2578 24.7578C13.763 25.2526 13.1771 25.5 12.5 25.5C11.8229 25.5 11.237 25.2526 10.7422 24.7578C10.2474 24.263 10 23.6771 10 23H12.5H15Z" fill="black" fill-opacity="0.72"/>
</g>
<defs>
<clipPath id="clip0_1731_4758">
<rect width="25" height="30" fill="white"/>
</clipPath>
</defs>
</svg>
