<svg width="12" height="24" viewBox="0 0 12 24" fill="none" xmlns="http://www.w3.org/2000/svg">
<g id="label-paired / md / mobile-screen-button-md / regular" clip-path="url(#clip0_1731_3885)">
<path id="icon" d="M9 5H3C2.70833 5 2.46875 5.09375 2.28125 5.28125C2.09375 5.46875 2 5.70833 2 6V14H10V6C10 5.70833 9.90625 5.46875 9.71875 5.28125C9.53125 5.09375 9.29167 5 9 5ZM10 15H2V18C2 18.2917 2.09375 18.5312 2.28125 18.7188C2.46875 18.9062 2.70833 19 3 19H9C9.29167 19 9.53125 18.9062 9.71875 18.7188C9.90625 18.5312 10 18.2917 10 18V15ZM3 4H9C9.5625 4.02083 10.0312 4.21875 10.4062 4.59375C10.7812 4.96875 10.9792 5.4375 11 6V18C10.9792 18.5625 10.7812 19.0312 10.4062 19.4062C10.0312 19.7812 9.5625 19.9792 9 20H3C2.4375 19.9792 1.96875 19.7812 1.59375 19.4062C1.21875 19.0312 1.02083 18.5625 1 18V6C1.02083 5.4375 1.21875 4.96875 1.59375 4.59375C1.96875 4.21875 2.4375 4.02083 3 4ZM4.5 17C4.52083 16.6875 4.6875 16.5208 5 16.5H7C7.3125 16.5208 7.47917 16.6875 7.5 17C7.47917 17.3125 7.3125 17.4792 7 17.5H5C4.6875 17.4792 4.52083 17.3125 4.5 17Z" fill="black" fill-opacity="0.72"/>
</g>
<defs>
<clipPath id="clip0_1731_3885">
<rect width="12" height="24" fill="white"/>
</clipPath>
</defs>
</svg>
