<svg width="14" height="18" viewBox="0 0 14 18" fill="none" xmlns="http://www.w3.org/2000/svg">
<g id="label-paired / caption / arrow-down-a-z-caption / regular" clip-path="url(#clip0_1731_1131)">
<path id="icon" d="M6.50781 12.3828L4.25781 14.6328C4.08594 14.7891 3.91406 14.7891 3.74219 14.6328L1.49219 12.3828C1.33594 12.2109 1.33594 12.0391 1.49219 11.8672C1.66406 11.7109 1.83594 11.7109 2.00781 11.8672L3.625 13.4609V4.625C3.64062 4.39062 3.76562 4.26562 4 4.25C4.23438 4.26562 4.35938 4.39062 4.375 4.625V13.4609L5.99219 11.8672C6.16406 11.7109 6.33594 11.7109 6.50781 11.8672C6.66406 12.0391 6.66406 12.2109 6.50781 12.3828ZM10.3281 4.46094L11.8281 7.4375C11.8281 7.45312 11.8281 7.46094 11.8281 7.46094L12.2031 8.21094C12.2969 8.41406 12.2422 8.57812 12.0391 8.70312C11.8203 8.79688 11.6562 8.74219 11.5469 8.53906L11.2656 8H8.73438L8.45312 8.53906C8.32812 8.74219 8.16406 8.79688 7.96094 8.70312C7.75781 8.59375 7.70312 8.42969 7.79688 8.21094L8.14844 7.46094C8.16406 7.46094 8.17188 7.46094 8.17188 7.46094L9.67188 4.46094C9.73438 4.32031 9.84375 4.25 10 4.25C10.1562 4.25 10.2656 4.32031 10.3281 4.46094ZM10 5.46875L9.10938 7.25H10.8906L10 5.46875ZM8.5 10.25H11.5C11.6562 10.25 11.7656 10.3203 11.8281 10.4609C11.8906 10.6016 11.8828 10.7344 11.8047 10.8594L9.27344 14H11.5C11.7344 14.0156 11.8594 14.1406 11.875 14.375C11.8594 14.6094 11.7344 14.7344 11.5 14.75H8.5C8.34375 14.75 8.23438 14.6797 8.17188 14.5391C8.10938 14.3984 8.125 14.2656 8.21875 14.1406L10.7266 11H8.5C8.26562 10.9844 8.14062 10.8594 8.125 10.625C8.14062 10.3906 8.26562 10.2656 8.5 10.25Z" fill="black" fill-opacity="0.72"/>
</g>
<defs>
<clipPath id="clip0_1731_1131">
<rect width="14" height="18" fill="white"/>
</clipPath>
</defs>
</svg>
