<svg width="20" height="30" viewBox="0 0 20 30" fill="none" xmlns="http://www.w3.org/2000/svg">
<g id="label-paired / lg / circle-four-lg / regular" clip-path="url(#clip0_1731_4533)">
<path id="icon" d="M18.75 15.5C18.724 13.9115 18.3333 12.4531 17.5781 11.125C16.7969 9.79688 15.7292 8.72917 14.375 7.92188C12.9948 7.14062 11.5365 6.75 10 6.75C8.46354 6.75 7.00521 7.14062 5.625 7.92188C4.27083 8.72917 3.20312 9.79688 2.42188 11.125C1.66667 12.4531 1.27604 13.9115 1.25 15.5C1.27604 17.0885 1.66667 18.5469 2.42188 19.875C3.20312 21.2031 4.27083 22.2708 5.625 23.0781C7.00521 23.8594 8.46354 24.25 10 24.25C11.5365 24.25 12.9948 23.8594 14.375 23.0781C15.7292 22.2708 16.7969 21.2031 17.5781 19.875C18.3333 18.5469 18.724 17.0885 18.75 15.5ZM0 15.5C0.0260417 13.6771 0.46875 12.0104 1.32812 10.5C2.21354 8.98958 3.4375 7.76562 5 6.82812C6.58854 5.94271 8.25521 5.5 10 5.5C11.7448 5.5 13.4115 5.94271 15 6.82812C16.5625 7.76562 17.7865 8.98958 18.6719 10.5C19.5312 12.0104 19.974 13.6771 20 15.5C19.974 17.3229 19.5312 18.9896 18.6719 20.5C17.7865 22.0104 16.5625 23.2344 15 24.1719C13.4115 25.0573 11.7448 25.5 10 25.5C8.25521 25.5 6.58854 25.0573 5 24.1719C3.4375 23.2344 2.21354 22.0104 1.32812 20.5C0.46875 18.9896 0.0260417 17.3229 0 15.5ZM8.98438 10.5391C9.32292 10.7214 9.4401 10.9948 9.33594 11.3594L7.1875 16.75H11.25V13.625C11.276 13.2344 11.4844 13.026 11.875 13C12.2656 13.026 12.474 13.2344 12.5 13.625V16.75H13.125C13.5156 16.776 13.724 16.9844 13.75 17.375C13.724 17.7656 13.5156 17.974 13.125 18H12.5V19.875C12.474 20.2656 12.2656 20.474 11.875 20.5C11.4844 20.474 11.276 20.2656 11.25 19.875V18H6.25C6.04167 18 5.8724 17.9089 5.74219 17.7266C5.61198 17.5443 5.58594 17.349 5.66406 17.1406L8.16406 10.8906C8.34635 10.5521 8.61979 10.4349 8.98438 10.5391Z" fill="black" fill-opacity="0.72"/>
</g>
<defs>
<clipPath id="clip0_1731_4533">
<rect width="20" height="30" fill="white"/>
</clipPath>
</defs>
</svg>
