<svg width="12" height="18" viewBox="0 0 12 18" fill="none" xmlns="http://www.w3.org/2000/svg">
<g id="label-paired / caption / calendar-range-caption / bold" clip-path="url(#clip0_1731_601)">
<path id="icon" d="M4.3125 4.0625V5H7.6875V4.0625C7.71875 3.71875 7.90625 3.53125 8.25 3.5C8.59375 3.53125 8.78125 3.71875 8.8125 4.0625V5H9.75C10.1719 5.01562 10.5234 5.16406 10.8047 5.44531C11.0859 5.72656 11.2344 6.07812 11.25 6.5V6.875V8V14C11.2344 14.4219 11.0859 14.7734 10.8047 15.0547C10.5234 15.3359 10.1719 15.4844 9.75 15.5H2.25C1.82812 15.4844 1.47656 15.3359 1.19531 15.0547C0.914062 14.7734 0.765625 14.4219 0.75 14V8V6.875V6.5C0.765625 6.07812 0.914062 5.72656 1.19531 5.44531C1.47656 5.16406 1.82812 5.01562 2.25 5H3.1875V4.0625C3.21875 3.71875 3.40625 3.53125 3.75 3.5C4.09375 3.53125 4.28125 3.71875 4.3125 4.0625ZM1.875 8V14C1.89062 14.2344 2.01562 14.3594 2.25 14.375H9.75C9.98438 14.3594 10.1094 14.2344 10.125 14V8H1.875ZM3 10.25C3 10.0312 3.07031 9.85156 3.21094 9.71094C3.35156 9.57031 3.53125 9.5 3.75 9.5C3.96875 9.5 4.14844 9.57031 4.28906 9.71094C4.42969 9.85156 4.5 10.0312 4.5 10.25C4.5 10.4688 4.42969 10.6484 4.28906 10.7891C4.14844 10.9297 3.96875 11 3.75 11C3.53125 11 3.35156 10.9297 3.21094 10.7891C3.07031 10.6484 3 10.4688 3 10.25ZM8.25 11.75C8.46875 11.75 8.64844 11.8203 8.78906 11.9609C8.92969 12.1016 9 12.2812 9 12.5C9 12.7188 8.92969 12.8984 8.78906 13.0391C8.64844 13.1797 8.46875 13.25 8.25 13.25C8.03125 13.25 7.85156 13.1797 7.71094 13.0391C7.57031 12.8984 7.5 12.7188 7.5 12.5C7.5 12.2812 7.57031 12.1016 7.71094 11.9609C7.85156 11.8203 8.03125 11.75 8.25 11.75ZM5.25 10.25C5.28125 9.90625 5.46875 9.71875 5.8125 9.6875H8.4375C8.78125 9.71875 8.96875 9.90625 9 10.25C8.96875 10.5938 8.78125 10.7812 8.4375 10.8125H5.8125C5.46875 10.7812 5.28125 10.5938 5.25 10.25ZM6.1875 11.9375C6.53125 11.9688 6.71875 12.1562 6.75 12.5C6.71875 12.8438 6.53125 13.0312 6.1875 13.0625H3.5625C3.21875 13.0312 3.03125 12.8438 3 12.5C3.03125 12.1562 3.21875 11.9688 3.5625 11.9375H6.1875Z" fill="black" fill-opacity="0.72"/>
</g>
<defs>
<clipPath id="clip0_1731_601">
<rect width="12" height="18" fill="white"/>
</clipPath>
</defs>
</svg>
