<svg width="15" height="30" viewBox="0 0 15 30" fill="none" xmlns="http://www.w3.org/2000/svg">
<g id="label-paired / lg / play-lg / regular" clip-path="url(#clip0_1731_4995)">
<path id="icon" d="M2.1875 8.07812C1.97917 7.97396 1.77083 7.97396 1.5625 8.07812C1.35417 8.20833 1.25 8.39062 1.25 8.625V22.375C1.25 22.6094 1.35417 22.7917 1.5625 22.9219C1.77083 23.026 1.97917 23.026 2.1875 22.9219L13.4375 16.0469C13.6458 15.9167 13.75 15.7344 13.75 15.5C13.75 15.2656 13.6458 15.0833 13.4375 14.9531L2.1875 8.07812ZM0.976562 6.98438C1.60156 6.64583 2.22656 6.65885 2.85156 7.02344L14.1016 13.8984C14.6745 14.263 14.974 14.7969 15 15.5C14.974 16.2031 14.6745 16.737 14.1016 17.1016L2.85156 23.9766C2.22656 24.3411 1.60156 24.3542 0.976562 24.0156C0.351562 23.651 0.0260417 23.1042 0 22.375V8.625C0.0260417 7.89583 0.351562 7.34896 0.976562 6.98438Z" fill="black" fill-opacity="0.72"/>
</g>
<defs>
<clipPath id="clip0_1731_4995">
<rect width="15" height="30" fill="white"/>
</clipPath>
</defs>
</svg>
