<svg width="27" height="36" viewBox="0 0 27 36" fill="none" xmlns="http://www.w3.org/2000/svg">
<g id="label-paired / xl / keyboard-xl / regular" clip-path="url(#clip0_1731_6436)">
<path id="icon" d="M3 10.5C2.5625 10.5 2.20312 10.6406 1.92188 10.9219C1.64062 11.2031 1.5 11.5625 1.5 12V24C1.5 24.4375 1.64062 24.7969 1.92188 25.0781C2.20312 25.3594 2.5625 25.5 3 25.5H24C24.4375 25.5 24.7969 25.3594 25.0781 25.0781C25.3594 24.7969 25.5 24.4375 25.5 24V12C25.5 11.5625 25.3594 11.2031 25.0781 10.9219C24.7969 10.6406 24.4375 10.5 24 10.5H3ZM0 12C0.03125 11.1562 0.328125 10.4531 0.890625 9.89062C1.45312 9.32812 2.15625 9.03125 3 9H24C24.8438 9.03125 25.5469 9.32812 26.1094 9.89062C26.6719 10.4531 26.9688 11.1562 27 12V24C26.9688 24.8438 26.6719 25.5469 26.1094 26.1094C25.5469 26.6719 24.8438 26.9688 24 27H3C2.15625 26.9688 1.45312 26.6719 0.890625 26.1094C0.328125 25.5469 0.03125 24.8438 0 24V12ZM4.125 12.375H4.875C5.34375 12.4062 5.59375 12.6562 5.625 13.125V13.875C5.59375 14.3438 5.34375 14.5938 4.875 14.625H4.125C3.65625 14.5938 3.40625 14.3438 3.375 13.875V13.125C3.40625 12.6562 3.65625 12.4062 4.125 12.375ZM3.375 17.625C3.40625 17.1562 3.65625 16.9062 4.125 16.875H4.875C5.34375 16.9062 5.59375 17.1562 5.625 17.625V18.375C5.59375 18.8438 5.34375 19.0938 4.875 19.125H4.125C3.65625 19.0938 3.40625 18.8438 3.375 18.375V17.625ZM4.125 21.375H4.875C5.34375 21.4062 5.59375 21.6562 5.625 22.125V22.875C5.59375 23.3438 5.34375 23.5938 4.875 23.625H4.125C3.65625 23.5938 3.40625 23.3438 3.375 22.875V22.125C3.40625 21.6562 3.65625 21.4062 4.125 21.375ZM7.875 13.125C7.90625 12.6562 8.15625 12.4062 8.625 12.375H9.375C9.84375 12.4062 10.0938 12.6562 10.125 13.125V13.875C10.0938 14.3438 9.84375 14.5938 9.375 14.625H8.625C8.15625 14.5938 7.90625 14.3438 7.875 13.875V13.125ZM8.625 16.875H9.375C9.84375 16.9062 10.0938 17.1562 10.125 17.625V18.375C10.0938 18.8438 9.84375 19.0938 9.375 19.125H8.625C8.15625 19.0938 7.90625 18.8438 7.875 18.375V17.625C7.90625 17.1562 8.15625 16.9062 8.625 16.875ZM12.375 13.125C12.4062 12.6562 12.6562 12.4062 13.125 12.375H13.875C14.3438 12.4062 14.5938 12.6562 14.625 13.125V13.875C14.5938 14.3438 14.3438 14.5938 13.875 14.625H13.125C12.6562 14.5938 12.4062 14.3438 12.375 13.875V13.125ZM13.125 16.875H13.875C14.3438 16.9062 14.5938 17.1562 14.625 17.625V18.375C14.5938 18.8438 14.3438 19.0938 13.875 19.125H13.125C12.6562 19.0938 12.4062 18.8438 12.375 18.375V17.625C12.4062 17.1562 12.6562 16.9062 13.125 16.875ZM16.875 13.125C16.9062 12.6562 17.1562 12.4062 17.625 12.375H18.375C18.8438 12.4062 19.0938 12.6562 19.125 13.125V13.875C19.0938 14.3438 18.8438 14.5938 18.375 14.625H17.625C17.1562 14.5938 16.9062 14.3438 16.875 13.875V13.125ZM17.625 16.875H18.375C18.8438 16.9062 19.0938 17.1562 19.125 17.625V18.375C19.0938 18.8438 18.8438 19.0938 18.375 19.125H17.625C17.1562 19.0938 16.9062 18.8438 16.875 18.375V17.625C16.9062 17.1562 17.1562 16.9062 17.625 16.875ZM21.375 13.125C21.4062 12.6562 21.6562 12.4062 22.125 12.375H22.875C23.3438 12.4062 23.5938 12.6562 23.625 13.125V13.875C23.5938 14.3438 23.3438 14.5938 22.875 14.625H22.125C21.6562 14.5938 21.4062 14.3438 21.375 13.875V13.125ZM22.125 16.875H22.875C23.3438 16.9062 23.5938 17.1562 23.625 17.625V18.375C23.5938 18.8438 23.3438 19.0938 22.875 19.125H22.125C21.6562 19.0938 21.4062 18.8438 21.375 18.375V17.625C21.4062 17.1562 21.6562 16.9062 22.125 16.875ZM21.375 22.125C21.4062 21.6562 21.6562 21.4062 22.125 21.375H22.875C23.3438 21.4062 23.5938 21.6562 23.625 22.125V22.875C23.5938 23.3438 23.3438 23.5938 22.875 23.625H22.125C21.6562 23.5938 21.4062 23.3438 21.375 22.875V22.125ZM8.25 21.75H18.75C19.2188 21.7812 19.4688 22.0312 19.5 22.5C19.4688 22.9688 19.2188 23.2188 18.75 23.25H8.25C7.78125 23.2188 7.53125 22.9688 7.5 22.5C7.53125 22.0312 7.78125 21.7812 8.25 21.75Z" fill="black" fill-opacity="0.72"/>
</g>
<defs>
<clipPath id="clip0_1731_6436">
<rect width="27" height="36" fill="white"/>
</clipPath>
</defs>
</svg>
