<svg width="14" height="22" viewBox="0 0 14 22" fill="none" xmlns="http://www.w3.org/2000/svg">
<g id="label-paired / sm / arrow-up-from-square-sm / regular" clip-path="url(#clip0_1731_1917)">
<path id="icon" d="M7.30078 3.88672L10.1445 6.73047C10.3268 6.93099 10.3268 7.13151 10.1445 7.33203C9.94401 7.51432 9.74349 7.51432 9.54297 7.33203L7.4375 5.25391V12.5C7.41927 12.7734 7.27344 12.9193 7 12.9375C6.72656 12.9193 6.58073 12.7734 6.5625 12.5V5.25391L4.45703 7.33203C4.25651 7.51432 4.05599 7.51432 3.85547 7.33203C3.67318 7.13151 3.67318 6.93099 3.85547 6.73047L6.69922 3.88672C6.89974 3.70443 7.10026 3.70443 7.30078 3.88672ZM1.75 4.625H2.625C2.89844 4.64323 3.04427 4.78906 3.0625 5.0625C3.04427 5.33594 2.89844 5.48177 2.625 5.5H1.75C1.49479 5.5 1.28516 5.58203 1.12109 5.74609C0.957031 5.91016 0.875 6.11979 0.875 6.375V16C0.875 16.2552 0.957031 16.4648 1.12109 16.6289C1.28516 16.793 1.49479 16.875 1.75 16.875H12.25C12.5052 16.875 12.7148 16.793 12.8789 16.6289C13.043 16.4648 13.125 16.2552 13.125 16V6.375C13.125 6.11979 13.043 5.91016 12.8789 5.74609C12.7148 5.58203 12.5052 5.5 12.25 5.5H11.375C11.1016 5.48177 10.9557 5.33594 10.9375 5.0625C10.9557 4.78906 11.1016 4.64323 11.375 4.625H12.25C12.7422 4.64323 13.1523 4.81641 13.4805 5.14453C13.8086 5.47266 13.9818 5.88281 14 6.375V16C13.9818 16.4922 13.8086 16.9023 13.4805 17.2305C13.1523 17.5586 12.7422 17.7318 12.25 17.75H1.75C1.25781 17.7318 0.847656 17.5586 0.519531 17.2305C0.191406 16.9023 0.0182292 16.4922 0 16V6.375C0.0182292 5.88281 0.191406 5.47266 0.519531 5.14453C0.847656 4.81641 1.25781 4.64323 1.75 4.625Z" fill="black" fill-opacity="0.72"/>
</g>
<defs>
<clipPath id="clip0_1731_1917">
<rect width="14" height="22" fill="white"/>
</clipPath>
</defs>
</svg>
