<svg width="14" height="18" viewBox="0 0 14 18" fill="none" xmlns="http://www.w3.org/2000/svg">
<g id="label-paired / caption / star-caption / bold" clip-path="url(#clip0_1731_816)">
<path id="icon" d="M7 3.5C7.23438 3.51563 7.40625 3.625 7.51562 3.82812L9.10938 7.13281L12.6953 7.64844C12.9297 7.69531 13.0859 7.82812 13.1641 8.04688C13.2266 8.26562 13.1797 8.45312 13.0234 8.60938L10.4219 11.1875L11.0312 14.8438C11.0625 15.0625 10.9844 15.25 10.7969 15.4062C10.6094 15.5312 10.4141 15.5391 10.2109 15.4297L7 13.7188L3.78906 15.4297C3.58594 15.5391 3.39062 15.5234 3.20312 15.3828C3.01562 15.2422 2.9375 15.0625 2.96875 14.8438L3.57812 11.1875L0.976562 8.60938C0.820312 8.45312 0.773438 8.26562 0.835938 8.04688C0.914062 7.82812 1.07031 7.69531 1.30469 7.64844L4.89062 7.13281L6.48438 3.82812C6.59375 3.625 6.76562 3.51563 7 3.5ZM7 5.35156L5.75781 7.88281C5.67969 8.05469 5.53906 8.16406 5.33594 8.21094L2.57031 8.60938L4.58594 10.6016C4.71094 10.7422 4.76562 10.9062 4.75 11.0938L4.25781 13.9062L6.74219 12.5938C6.91406 12.5 7.08594 12.5 7.25781 12.5938L9.71875 13.9062L9.25 11.0938C9.21875 10.9062 9.27344 10.7422 9.41406 10.6016L11.4297 8.60938L8.66406 8.21094C8.46094 8.16406 8.32031 8.05469 8.24219 7.88281L7 5.35156Z" fill="black" fill-opacity="0.72"/>
</g>
<defs>
<clipPath id="clip0_1731_816">
<rect width="14" height="18" fill="white"/>
</clipPath>
</defs>
</svg>
