<svg width="18" height="22" viewBox="0 0 18 22" fill="none" xmlns="http://www.w3.org/2000/svg">
<g id="label-paired / sm / box-archive-circle-arrow-down-sm / bold" clip-path="url(#clip0_1731_1969)">
<path id="icon" d="M0.25 5.5C0.25 5.03516 0.632812 4.625 1.125 4.625C5.19922 4.625 9.27344 4.625 13.375 4.625C13.8398 4.625 14.25 5.03516 14.25 5.5C14.25 6.23828 14.25 6.97656 14.25 7.6875C14.25 8.17969 13.8398 8.5625 13.375 8.5625C9.27344 8.5625 5.19922 8.5625 1.125 8.5625C0.632812 8.5625 0.25 8.17969 0.25 7.6875C0.25 6.97656 0.25 6.23828 0.25 5.5ZM1.125 9.4375H2.4375C2.4375 11.3516 2.4375 13.2383 2.4375 15.125C2.4375 15.3711 2.62891 15.5625 2.875 15.5625C5.00781 15.5625 7.16797 15.5625 9.32812 15.5625C9.49219 16.0547 9.76562 16.4922 10.0938 16.875C7.6875 16.875 5.28125 16.875 2.875 16.875C1.89062 16.875 1.125 16.1094 1.125 15.125C1.125 13.2383 1.125 11.3516 1.125 9.4375ZM1.5625 5.9375C1.5625 6.375 1.5625 6.8125 1.5625 7.25C5.33594 7.25 9.13672 7.25 12.9375 7.25C12.9375 6.8125 12.9375 6.375 12.9375 5.9375H1.5625ZM4.625 10.5312C4.625 10.1758 4.89844 9.875 5.28125 9.875C6.59375 9.875 7.90625 9.875 9.21875 9.875C9.57422 9.875 9.875 10.1758 9.875 10.5312C9.875 10.9141 9.57422 11.1875 9.21875 11.1875C7.90625 11.1875 6.59375 11.1875 5.28125 11.1875C4.89844 11.1875 4.625 10.9141 4.625 10.5312ZM9.875 13.8125C9.875 12.418 10.6133 11.1055 11.8438 10.4219C13.0469 9.71094 14.5508 9.71094 15.7812 10.4219C16.9844 11.1055 17.75 12.418 17.75 13.8125C17.75 15.2344 16.9844 16.5195 15.7812 17.2305C14.5508 17.9414 13.0469 17.9414 11.8438 17.2305C10.6133 16.5195 9.875 15.2344 9.875 13.8125ZM11.9531 13.7305C11.7891 13.8945 11.7891 14.1953 11.9531 14.3594C12.4727 14.8516 12.9922 15.3711 13.4844 15.8906C13.6484 16.0547 13.9492 16.0547 14.1133 15.8906C14.6328 15.3711 15.125 14.8516 15.6445 14.3594C15.8086 14.1953 15.8086 13.8945 15.6445 13.7305C15.4805 13.5664 15.1797 13.5664 15.0156 13.7305C14.7695 14.0039 14.4961 14.25 14.25 14.5234C14.25 13.7031 14.25 12.8828 14.25 12.0625C14.25 11.8438 14.0312 11.625 13.8125 11.625C13.5664 11.625 13.375 11.8438 13.375 12.0625C13.375 12.8828 13.375 13.7031 13.375 14.5234C13.1016 14.25 12.8281 14.0039 12.582 13.7305C12.418 13.5664 12.1172 13.5664 11.9531 13.7305Z" fill="black" fill-opacity="0.72"/>
</g>
<defs>
<clipPath id="clip0_1731_1969">
<rect width="18" height="22" fill="white"/>
</clipPath>
</defs>
</svg>
