<svg width="13" height="30" viewBox="0 0 13 30" fill="none" xmlns="http://www.w3.org/2000/svg">
<g id="label-paired / lg / forward-step-lg / regular" clip-path="url(#clip0_1731_5023)">
<path id="icon" d="M10.25 8.625C10.276 8.23438 10.4844 8.02604 10.875 8C11.2656 8.02604 11.474 8.23438 11.5 8.625V14.9531V16.0469V22.375C11.474 22.7656 11.2656 22.974 10.875 23C10.4844 22.974 10.276 22.7656 10.25 22.375V17.0625L3.25781 22.7656C3.07552 22.9219 2.85417 23 2.59375 23C2.28125 23 2.02083 22.8958 1.8125 22.6875C1.60417 22.4792 1.5 22.2188 1.5 21.9062V9.09375C1.5 8.78125 1.60417 8.52083 1.8125 8.3125C2.02083 8.10417 2.28125 8 2.59375 8C2.85417 8 3.07552 8.07812 3.25781 8.23438L10.25 13.9375V8.625ZM2.75 9.44531V21.5547L10.2109 15.5L2.75 9.44531Z" fill="black" fill-opacity="0.72"/>
</g>
<defs>
<clipPath id="clip0_1731_5023">
<rect width="13" height="30" fill="white"/>
</clipPath>
</defs>
</svg>
