<svg width="14" height="22" viewBox="0 0 14 22" fill="none" xmlns="http://www.w3.org/2000/svg">
<g id="label-paired / sm / circle-user-sm / bold" clip-path="url(#clip0_1731_3008)">
<path id="icon" d="M11.1289 14.6875C12.1315 13.6302 12.651 12.3177 12.6875 10.75C12.651 9.14583 12.0951 7.80599 11.0195 6.73047C9.94401 5.65495 8.60417 5.09896 7 5.0625C5.39583 5.09896 4.05599 5.65495 2.98047 6.73047C1.90495 7.80599 1.34896 9.14583 1.3125 10.75C1.34896 12.3177 1.8776 13.6302 2.89844 14.6875C3.15365 14.0312 3.57292 13.5026 4.15625 13.1016C4.72135 12.7188 5.3776 12.5182 6.125 12.5H7.875C8.6224 12.5182 9.27865 12.7188 9.84375 13.1016C10.4271 13.5026 10.8555 14.0312 11.1289 14.6875ZM10.0078 15.5625H10.0352C9.90755 15.0521 9.65234 14.6328 9.26953 14.3047C8.88672 13.9948 8.42188 13.8307 7.875 13.8125H6.125C5.57812 13.8307 5.11328 13.9948 4.73047 14.3047C4.34766 14.6328 4.10156 15.0521 3.99219 15.5625C4.86719 16.1276 5.86979 16.4193 7 16.4375C8.13021 16.4193 9.13281 16.1276 10.0078 15.5625ZM7 17.75C5.72396 17.7318 4.55729 17.4219 3.5 16.8203C2.44271 16.2005 1.58594 15.3438 0.929688 14.25C0.309896 13.138 0 11.9714 0 10.75C0 9.52865 0.309896 8.36198 0.929688 7.25C1.58594 6.15625 2.44271 5.29948 3.5 4.67969C4.55729 4.07812 5.72396 3.76823 7 3.75C8.27604 3.76823 9.44271 4.07812 10.5 4.67969C11.5573 5.29948 12.4141 6.15625 13.0703 7.25C13.6901 8.36198 14 9.52865 14 10.75C14 11.9714 13.6901 13.138 13.0703 14.25C12.4141 15.3438 11.5573 16.2005 10.5 16.8203C9.44271 17.4219 8.27604 17.7318 7 17.75ZM7 10.3125C7.41927 10.2943 7.73828 10.112 7.95703 9.76562C8.13932 9.40104 8.13932 9.03646 7.95703 8.67188C7.73828 8.32552 7.41927 8.14323 7 8.125C6.58073 8.14323 6.26172 8.32552 6.04297 8.67188C5.86068 9.03646 5.86068 9.40104 6.04297 9.76562C6.26172 10.112 6.58073 10.2943 7 10.3125ZM4.59375 9.21875C4.63021 8.30729 5.03125 7.61458 5.79688 7.14062C6.59896 6.70312 7.40104 6.70312 8.20312 7.14062C8.96875 7.61458 9.36979 8.30729 9.40625 9.21875C9.36979 10.1302 8.96875 10.8229 8.20312 11.2969C7.40104 11.7344 6.59896 11.7344 5.79688 11.2969C5.03125 10.8229 4.63021 10.1302 4.59375 9.21875Z" fill="black" fill-opacity="0.72"/>
</g>
<defs>
<clipPath id="clip0_1731_3008">
<rect width="14" height="22" fill="white"/>
</clipPath>
</defs>
</svg>
