<svg width="14" height="22" viewBox="0 0 14 22" fill="none" xmlns="http://www.w3.org/2000/svg">
<g id="label-paired / sm / circle-two-sm / bold" clip-path="url(#clip0_1731_2310)">
<path id="icon" d="M7 5.0625C5.96094 5.0625 5.01302 5.31771 4.15625 5.82812C3.29948 6.32031 2.60677 7.01302 2.07812 7.90625C1.56771 8.79948 1.3125 9.7474 1.3125 10.75C1.3125 11.7526 1.56771 12.7005 2.07812 13.5938C2.60677 14.487 3.29948 15.1797 4.15625 15.6719C5.01302 16.1823 5.96094 16.4375 7 16.4375C8.03906 16.4375 8.98698 16.1823 9.84375 15.6719C10.7005 15.1797 11.3932 14.487 11.9219 13.5938C12.4323 12.7005 12.6875 11.7526 12.6875 10.75C12.6875 9.7474 12.4323 8.79948 11.9219 7.90625C11.3932 7.01302 10.7005 6.32031 9.84375 5.82812C8.98698 5.31771 8.03906 5.0625 7 5.0625ZM7 17.75C5.72396 17.7318 4.55729 17.4219 3.5 16.8203C2.44271 16.2005 1.58594 15.3438 0.929688 14.25C0.309896 13.138 0 11.9714 0 10.75C0 9.52865 0.309896 8.36198 0.929688 7.25C1.58594 6.15625 2.44271 5.29948 3.5 4.67969C4.55729 4.07812 5.72396 3.76823 7 3.75C8.27604 3.76823 9.44271 4.07812 10.5 4.67969C11.5573 5.29948 12.4141 6.15625 13.0703 7.25C13.6901 8.36198 14 9.52865 14 10.75C14 11.9714 13.6901 13.138 13.0703 14.25C12.4141 15.3438 11.5573 16.2005 10.5 16.8203C9.44271 17.4219 8.27604 17.7318 7 17.75ZM6.09766 8.80859L5.44141 9.30078C5.09505 9.51953 4.78516 9.47396 4.51172 9.16406C4.29297 8.83594 4.33854 8.53516 4.64844 8.26172L5.30469 7.74219C5.74219 7.41406 6.24349 7.25 6.80859 7.25H6.89062C7.54688 7.28646 8.09375 7.52344 8.53125 7.96094C8.95052 8.39844 9.16927 8.94531 9.1875 9.60156C9.16927 10.2578 8.92318 10.8229 8.44922 11.2969L6.69922 12.9375H8.96875C9.36979 12.974 9.58854 13.1927 9.625 13.5938C9.58854 13.9948 9.36979 14.2135 8.96875 14.25H5.03125C4.73958 14.2318 4.53906 14.0951 4.42969 13.8398C4.33854 13.5664 4.39323 13.3294 4.59375 13.1289L7.54688 10.3398C7.76562 10.1393 7.875 9.89323 7.875 9.60156C7.875 9.3099 7.77474 9.07292 7.57422 8.89062C7.39193 8.6901 7.15495 8.58984 6.86328 8.58984L6.78125 8.5625C6.52604 8.5625 6.29818 8.64453 6.09766 8.80859Z" fill="black" fill-opacity="0.72"/>
</g>
<defs>
<clipPath id="clip0_1731_2310">
<rect width="14" height="22" fill="white"/>
</clipPath>
</defs>
</svg>
