<svg width="14" height="22" viewBox="0 0 14 22" fill="none" xmlns="http://www.w3.org/2000/svg">
<g id="label-paired / sm / pen-circle-sm / regular" clip-path="url(#clip0_1731_2729)">
<path id="icon" d="M13.125 10.75C13.1068 9.63802 12.8333 8.61719 12.3047 7.6875C11.7578 6.75781 11.0104 6.01042 10.0625 5.44531C9.09635 4.89844 8.07552 4.625 7 4.625C5.92448 4.625 4.90365 4.89844 3.9375 5.44531C2.98958 6.01042 2.24219 6.75781 1.69531 7.6875C1.16667 8.61719 0.893229 9.63802 0.875 10.75C0.893229 11.862 1.16667 12.8828 1.69531 13.8125C2.24219 14.7422 2.98958 15.4896 3.9375 16.0547C4.90365 16.6016 5.92448 16.875 7 16.875C8.07552 16.875 9.09635 16.6016 10.0625 16.0547C11.0104 15.4896 11.7578 14.7422 12.3047 13.8125C12.8333 12.8828 13.1068 11.862 13.125 10.75ZM0 10.75C0.0182292 9.47396 0.328125 8.30729 0.929688 7.25C1.54948 6.19271 2.40625 5.33594 3.5 4.67969C4.61198 4.0599 5.77865 3.75 7 3.75C8.22135 3.75 9.38802 4.0599 10.5 4.67969C11.5938 5.33594 12.4505 6.19271 13.0703 7.25C13.6719 8.30729 13.9818 9.47396 14 10.75C13.9818 12.026 13.6719 13.1927 13.0703 14.25C12.4505 15.3073 11.5938 16.1641 10.5 16.8203C9.38802 17.4401 8.22135 17.75 7 17.75C5.77865 17.75 4.61198 17.4401 3.5 16.8203C2.40625 16.1641 1.54948 15.3073 0.929688 14.25C0.328125 13.1927 0.0182292 12.026 0 10.75ZM9.07812 8.20703C8.85938 8.04297 8.64974 8.04297 8.44922 8.20703L7.875 8.80859L8.96875 9.90234L9.54297 9.30078C9.70703 9.10026 9.70703 8.89974 9.54297 8.69922L9.07812 8.20703ZM5.00391 11.6797C4.93099 11.7344 4.88542 11.7982 4.86719 11.8711L4.53906 13.2109L5.87891 12.8828C5.95182 12.8646 6.01562 12.8281 6.07031 12.7734L8.33984 10.5039L7.24609 9.41016L4.97656 11.6797H5.00391ZM7.82031 7.60547C8.09375 7.35026 8.40365 7.22266 8.75 7.22266C9.09635 7.22266 9.40625 7.35026 9.67969 7.60547L10.1719 8.07031C10.4271 8.34375 10.5547 8.65365 10.5547 9C10.5547 9.34635 10.4271 9.65625 10.1719 9.92969L6.69922 13.375C6.53516 13.5573 6.33464 13.6758 6.09766 13.7305L4.04688 14.25C3.88281 14.2865 3.74609 14.2409 3.63672 14.1133C3.52734 14.0039 3.49089 13.8672 3.52734 13.7031L4.01953 11.6523C4.09245 11.4336 4.21094 11.2331 4.375 11.0508L7.82031 7.60547Z" fill="black" fill-opacity="0.72"/>
</g>
<defs>
<clipPath id="clip0_1731_2729">
<rect width="14" height="22" fill="white"/>
</clipPath>
</defs>
</svg>
