<svg width="20" height="30" viewBox="0 0 20 30" fill="none" xmlns="http://www.w3.org/2000/svg">
<g id="label-paired / lg / chart-area-lg / bold" clip-path="url(#clip0_1731_4727)">
<path id="icon" d="M1.875 7.6875V21.4375C1.92708 22.0104 2.23958 22.3229 2.8125 22.375H19.0625C19.6354 22.4271 19.9479 22.7396 20 23.3125C19.9479 23.8854 19.6354 24.1979 19.0625 24.25H2.8125C2.00521 24.224 1.34115 23.9505 0.820312 23.4297C0.299479 22.9089 0.0260417 22.2448 0 21.4375V7.6875C0.0520833 7.11458 0.364583 6.80208 0.9375 6.75C1.51042 6.80208 1.82292 7.11458 1.875 7.6875ZM11.1719 14.3281L8.75 11.9062L5.625 15.0312V18.625H16.875V15.5781L14.8828 13.2734L13.8281 14.3281C13.4635 14.6927 13.0208 14.875 12.5 14.875C11.9792 14.875 11.5365 14.6927 11.1719 14.3281ZM12.5 13L13.8281 11.6719L14.0625 11.4375C14.3229 11.2031 14.6224 11.0859 14.9609 11.0859C15.3255 11.112 15.625 11.2552 15.8594 11.5156L18.2812 14.3672C18.5938 14.7057 18.75 15.1094 18.75 15.5781V19.25C18.75 19.6146 18.6328 19.9141 18.3984 20.1484C18.1641 20.3828 17.8646 20.5 17.5 20.5H5C4.63542 20.5 4.33594 20.3828 4.10156 20.1484C3.86719 19.9141 3.75 19.6146 3.75 19.25V15.0312C3.75 14.5104 3.93229 14.0677 4.29688 13.7031L7.85156 10.1484C8.11198 9.88802 8.41146 9.75781 8.75 9.75781C9.08854 9.75781 9.38802 9.88802 9.64844 10.1484L11.1719 11.6719L12.5 13Z" fill="black" fill-opacity="0.72"/>
</g>
<defs>
<clipPath id="clip0_1731_4727">
<rect width="20" height="30" fill="white"/>
</clipPath>
</defs>
</svg>
