<svg width="12" height="18" viewBox="0 0 12 18" fill="none" xmlns="http://www.w3.org/2000/svg">
<g id="label-paired / caption / circle-calendar-caption / regular" clip-path="url(#clip0_1731_604)">
<path id="icon" d="M11.25 9.5C11.2344 8.54688 11 7.67188 10.5469 6.875C10.0781 6.07812 9.4375 5.4375 8.625 4.95312C7.79688 4.48438 6.92188 4.25 6 4.25C5.07812 4.25 4.20312 4.48438 3.375 4.95312C2.5625 5.4375 1.92188 6.07812 1.45312 6.875C1 7.67188 0.765625 8.54688 0.75 9.5C0.765625 10.4531 1 11.3281 1.45312 12.125C1.92188 12.9219 2.5625 13.5625 3.375 14.0469C4.20312 14.5156 5.07812 14.75 6 14.75C6.92188 14.75 7.79688 14.5156 8.625 14.0469C9.4375 13.5625 10.0781 12.9219 10.5469 12.125C11 11.3281 11.2344 10.4531 11.25 9.5ZM0 9.5C0.015625 8.40625 0.28125 7.40625 0.796875 6.5C1.32812 5.59375 2.0625 4.85938 3 4.29688C3.95312 3.76562 4.95312 3.5 6 3.5C7.04688 3.5 8.04688 3.76562 9 4.29688C9.9375 4.85938 10.6719 5.59375 11.2031 6.5C11.7188 7.40625 11.9844 8.40625 12 9.5C11.9844 10.5938 11.7188 11.5938 11.2031 12.5C10.6719 13.4062 9.9375 14.1406 9 14.7031C8.04688 15.2344 7.04688 15.5 6 15.5C4.95312 15.5 3.95312 15.2344 3 14.7031C2.0625 14.1406 1.32812 13.4062 0.796875 12.5C0.28125 11.5938 0.015625 10.5938 0 9.5ZM4.875 5.75C5.10938 5.76562 5.23438 5.89062 5.25 6.125V6.5H6.75V6.125C6.76562 5.89062 6.89062 5.76562 7.125 5.75C7.35938 5.76562 7.48438 5.89062 7.5 6.125V6.5H7.875C8.1875 6.51562 8.45312 6.625 8.67188 6.82812C8.875 7.04688 8.98438 7.3125 9 7.625V8V8.75V11.375C8.98438 11.6875 8.875 11.9531 8.67188 12.1719C8.45312 12.375 8.1875 12.4844 7.875 12.5H4.125C3.8125 12.4844 3.54688 12.375 3.32812 12.1719C3.125 11.9531 3.01562 11.6875 3 11.375V8.75V8V7.625C3.01562 7.3125 3.125 7.04688 3.32812 6.82812C3.54688 6.625 3.8125 6.51562 4.125 6.5H4.5V6.125C4.51562 5.89062 4.64062 5.76562 4.875 5.75ZM3.75 7.625V8H8.25V7.625C8.23438 7.39062 8.10938 7.26562 7.875 7.25H7.125H4.875H4.125C3.89062 7.26562 3.76562 7.39062 3.75 7.625ZM8.25 8.75H3.75V11.375C3.76562 11.6094 3.89062 11.7344 4.125 11.75H7.875C8.10938 11.7344 8.23438 11.6094 8.25 11.375V8.75Z" fill="black" fill-opacity="0.72"/>
</g>
<defs>
<clipPath id="clip0_1731_604">
<rect width="12" height="18" fill="white"/>
</clipPath>
</defs>
</svg>
