<svg width="14" height="18" viewBox="0 0 14 18" fill="none" xmlns="http://www.w3.org/2000/svg">
<g id="label-paired / caption / file-shield-caption / regular" clip-path="url(#clip0_1731_1590)">
<path id="icon" d="M7.75 14.75C7.78125 14.75 7.8125 14.75 7.84375 14.75C8.03125 14.9531 8.23438 15.1484 8.45312 15.3359C8.25 15.4453 8.01562 15.5 7.75 15.5H1.75C1.32812 15.4844 0.976562 15.3359 0.695312 15.0547C0.414062 14.7734 0.265625 14.4219 0.25 14V5C0.265625 4.57812 0.414062 4.22656 0.695312 3.94531C0.976562 3.66406 1.32812 3.51563 1.75 3.5H5.40625C5.71875 3.5 5.98438 3.60938 6.20312 3.82812L8.92188 6.54688C9.14062 6.76562 9.25 7.03125 9.25 7.34375V8.35156L8.5 8.65625V8H5.875C5.5625 7.98438 5.29688 7.875 5.07812 7.67188C4.875 7.45312 4.76562 7.1875 4.75 6.875V4.25H1.75C1.53125 4.25 1.35156 4.32031 1.21094 4.46094C1.07031 4.60156 1 4.78125 1 5V14C1 14.2188 1.07031 14.3984 1.21094 14.5391C1.35156 14.6797 1.53125 14.75 1.75 14.75H7.75ZM8.5 7.25C8.46875 7.1875 8.42969 7.13281 8.38281 7.08594L5.66406 4.36719C5.61719 4.32031 5.5625 4.28906 5.5 4.27344V6.875C5.51562 7.10938 5.64062 7.23438 5.875 7.25H8.5ZM7.75 10.5547C7.75 11.2109 7.91406 11.9141 8.24219 12.6641C8.57031 13.4141 9.15625 14.0391 10 14.5391V9.66406L7.75 10.5547ZM13 10.5547L10.75 9.66406V14.5391C11.5938 14.0391 12.1797 13.4141 12.5078 12.6641C12.8359 11.9141 13 11.2109 13 10.5547ZM10.5859 8.79688L13.3984 9.92188C13.6172 10.0156 13.7344 10.1875 13.75 10.4375C13.7656 10.9531 13.6797 11.5312 13.4922 12.1719C13.3203 12.8125 13.0078 13.4297 12.5547 14.0234C12.0859 14.6172 11.4297 15.0938 10.5859 15.4531C10.4453 15.5156 10.3047 15.5156 10.1641 15.4531C9.32031 15.0938 8.66406 14.6172 8.19531 14.0234C7.74219 13.4297 7.42969 12.8125 7.25781 12.1719C7.07031 11.5312 6.98438 10.9531 7 10.4375C7.01562 10.1875 7.13281 10.0156 7.35156 9.92188L10.1641 8.79688C10.3047 8.73438 10.4453 8.73438 10.5859 8.79688Z" fill="black" fill-opacity="0.72"/>
</g>
<defs>
<clipPath id="clip0_1731_1590">
<rect width="14" height="18" fill="white"/>
</clipPath>
</defs>
</svg>
