<svg width="16" height="24" viewBox="0 0 16 24" fill="none" xmlns="http://www.w3.org/2000/svg">
<g id="label-paired / md / table-layout-md / bold" clip-path="url(#clip0_1731_4004)">
<path id="icon" d="M14 6.5H2C1.6875 6.52083 1.52083 6.6875 1.5 7V9H14.5V7C14.4792 6.6875 14.3125 6.52083 14 6.5ZM1.5 17C1.52083 17.3125 1.6875 17.4792 2 17.5H4.5V10.5H1.5V17ZM6 17.5H14C14.3125 17.4792 14.4792 17.3125 14.5 17V10.5H6V17.5ZM2 5H14C14.5625 5.02083 15.0312 5.21875 15.4062 5.59375C15.7812 5.96875 15.9792 6.4375 16 7V17C15.9792 17.5625 15.7812 18.0312 15.4062 18.4062C15.0312 18.7812 14.5625 18.9792 14 19H2C1.4375 18.9792 0.96875 18.7812 0.59375 18.4062C0.21875 18.0312 0.0208333 17.5625 0 17V7C0.0208333 6.4375 0.21875 5.96875 0.59375 5.59375C0.96875 5.21875 1.4375 5.02083 2 5Z" fill="black" fill-opacity="0.72"/>
</g>
<defs>
<clipPath id="clip0_1731_4004">
<rect width="16" height="24" fill="white"/>
</clipPath>
</defs>
</svg>
