<svg width="11" height="18" viewBox="0 0 11 18" fill="none" xmlns="http://www.w3.org/2000/svg">
<g id="label-paired / caption / trash-caption / bold" clip-path="url(#clip0_1731_571)">
<path id="icon" d="M4.39844 4.625C4.33594 4.625 4.28906 4.65625 4.25781 4.71875L3.8125 5.375H7.21094L6.76562 4.71875C6.71875 4.65625 6.66406 4.625 6.60156 4.625H4.39844ZM8.54688 5.375H8.875H10H10.1875C10.5312 5.40625 10.7188 5.59375 10.75 5.9375C10.7188 6.28125 10.5312 6.46875 10.1875 6.5H9.90625L9.34375 14.1172C9.3125 14.5078 9.15625 14.8359 8.875 15.1016C8.59375 15.3516 8.25781 15.4844 7.86719 15.5H3.13281C2.74219 15.4844 2.40625 15.3516 2.125 15.1016C1.84375 14.8359 1.6875 14.5078 1.65625 14.1172L1.09375 6.5H0.8125C0.46875 6.46875 0.28125 6.28125 0.25 5.9375C0.28125 5.59375 0.46875 5.40625 0.8125 5.375H1H2.125H2.45312L3.32031 4.08594C3.58594 3.71094 3.94531 3.51563 4.39844 3.5H6.60156C7.05469 3.51563 7.42188 3.71094 7.70312 4.08594L8.54688 5.375ZM8.78125 6.5H2.21875L2.75781 14.0234C2.80469 14.2422 2.92969 14.3594 3.13281 14.375H7.86719C8.07031 14.3594 8.19531 14.2422 8.24219 14.0234L8.78125 6.5Z" fill="black" fill-opacity="0.72"/>
</g>
<defs>
<clipPath id="clip0_1731_571">
<rect width="11" height="18" fill="white"/>
</clipPath>
</defs>
</svg>
