<svg width="25" height="30" viewBox="0 0 25 30" fill="none" xmlns="http://www.w3.org/2000/svg">
<g id="label-paired / lg / eye-slash-lg / regular" clip-path="url(#clip0_1731_5359)">
<path id="icon" d="M1.01562 5.61719L24.7656 24.4062C25.0521 24.6667 25.0911 24.9531 24.8828 25.2656C24.5964 25.5521 24.2969 25.5911 23.9844 25.3828L0.234375 6.63281C-0.0520833 6.34635 -0.0911458 6.04688 0.117188 5.73438C0.403646 5.47396 0.703125 5.4349 1.01562 5.61719ZM23.6719 15.9688C23.2552 16.9844 22.5521 18.1432 21.5625 19.4453L20.5859 18.7031C21.4974 17.4792 22.1354 16.4115 22.5 15.5C22.2396 14.849 21.8359 14.1068 21.2891 13.2734C20.7161 12.4401 20.013 11.6198 19.1797 10.8125C18.3203 10.0052 17.3438 9.34115 16.25 8.82031C15.1302 8.29948 13.8802 8.02604 12.5 8C10.9375 8.02604 9.54427 8.36458 8.32031 9.01562L7.26562 8.19531C8.75 7.28385 10.4948 6.80208 12.5 6.75C14.0885 6.77604 15.5078 7.08854 16.7578 7.6875C18.0078 8.28646 19.1016 9.02865 20.0391 9.91406C20.9505 10.7734 21.7057 11.6589 22.3047 12.5703C22.9036 13.4818 23.3594 14.3021 23.6719 15.0312C23.776 15.3438 23.776 15.6562 23.6719 15.9688ZM3.4375 11.5547L4.45312 12.3359C3.51562 13.5339 2.86458 14.5885 2.5 15.5C2.76042 16.151 3.16406 16.8932 3.71094 17.7266C4.28385 18.5599 4.98698 19.3802 5.82031 20.1875C6.67969 20.9948 7.65625 21.6589 8.75 22.1797C9.86979 22.7005 11.1198 22.974 12.5 23C14.0625 22.974 15.4557 22.6354 16.6797 21.9844L17.7344 22.8047C16.25 23.7161 14.5052 24.1979 12.5 24.25C10.9115 24.224 9.49219 23.9115 8.24219 23.3125C6.99219 22.7135 5.91146 21.9714 5 21.0859C4.0625 20.2266 3.29427 19.3411 2.69531 18.4297C2.09635 17.5182 1.65365 16.6979 1.36719 15.9688C1.23698 15.6562 1.23698 15.3438 1.36719 15.0312C1.75781 14.0156 2.44792 12.8568 3.4375 11.5547ZM12.5 20.5C11.0938 20.474 9.90885 19.9792 8.94531 19.0156C8.00781 18.0781 7.52604 16.9062 7.5 15.5C7.5 15.2396 7.51302 14.9922 7.53906 14.7578L8.75 15.7344C8.82812 16.724 9.21875 17.5573 9.92188 18.2344C10.625 18.8854 11.4844 19.224 12.5 19.25C12.7083 19.25 12.9297 19.237 13.1641 19.2109L14.3359 20.1484C13.763 20.3828 13.151 20.5 12.5 20.5ZM17.5 15.5C17.5 15.7604 17.487 16.0078 17.4609 16.2422L16.25 15.2656C16.1719 14.276 15.7812 13.4427 15.0781 12.7656C14.375 12.1146 13.5156 11.776 12.5 11.75C12.2917 11.75 12.0833 11.776 11.875 11.8281L10.6641 10.8516C11.237 10.6172 11.849 10.5 12.5 10.5C13.9062 10.526 15.0911 11.0078 16.0547 11.9453C16.9922 12.9089 17.474 14.0938 17.5 15.5Z" fill="black" fill-opacity="0.72"/>
</g>
<defs>
<clipPath id="clip0_1731_5359">
<rect width="25" height="30" fill="white"/>
</clipPath>
</defs>
</svg>
