<svg width="18" height="22" viewBox="0 0 18 22" fill="none" xmlns="http://www.w3.org/2000/svg">
<g id="label-paired / sm / language-sm / regular" clip-path="url(#clip0_1731_2591)">
<path id="icon" d="M8.5625 6.375H2C1.74479 6.375 1.53516 6.45703 1.37109 6.62109C1.20703 6.78516 1.125 6.99479 1.125 7.25V14.25C1.125 14.5052 1.20703 14.7148 1.37109 14.8789C1.53516 15.043 1.74479 15.125 2 15.125H8.5625V6.375ZM9.4375 6.375V15.125H16C16.2552 15.125 16.4648 15.043 16.6289 14.8789C16.793 14.7148 16.875 14.5052 16.875 14.25V7.25C16.875 6.99479 16.793 6.78516 16.6289 6.62109C16.4648 6.45703 16.2552 6.375 16 6.375H9.4375ZM17.75 7.25V14.25C17.7318 14.7422 17.5586 15.1523 17.2305 15.4805C16.9023 15.8086 16.4922 15.9818 16 16H2C1.50781 15.9818 1.09766 15.8086 0.769531 15.4805C0.441406 15.1523 0.268229 14.7422 0.25 14.25V7.25C0.268229 6.75781 0.441406 6.34766 0.769531 6.01953C1.09766 5.69141 1.50781 5.51823 2 5.5H16C16.4922 5.51823 16.9023 5.69141 17.2305 6.01953C17.5586 6.34766 17.7318 6.75781 17.75 7.25ZM5.03516 8.39844L6.78516 12.7734C6.85807 13.0286 6.77604 13.2201 6.53906 13.3477C6.28385 13.4206 6.09245 13.3385 5.96484 13.1016L5.71875 12.5H3.53125L3.28516 13.1016C3.15755 13.3385 2.96615 13.4206 2.71094 13.3477C2.47396 13.2201 2.39193 13.0286 2.46484 12.7734L4.21484 8.39844C4.30599 8.21615 4.44271 8.125 4.625 8.125C4.80729 8.125 4.94401 8.21615 5.03516 8.39844ZM4.625 9.73828L3.85938 11.625H5.39062L4.625 9.73828ZM13.8125 8.5625V9H15.125H15.5625C15.8359 9.01823 15.9818 9.16406 16 9.4375C15.9818 9.71094 15.8359 9.85677 15.5625 9.875H15.4258L15.3164 10.2031C15.043 10.9141 14.6419 11.543 14.1133 12.0898C14.2044 12.1445 14.2956 12.1992 14.3867 12.2539L14.9062 12.5547C15.125 12.7188 15.1797 12.9193 15.0703 13.1562C14.9062 13.375 14.7057 13.4297 14.4688 13.3203L13.9492 12.9922C13.7669 12.901 13.5938 12.7917 13.4297 12.6641C13.2109 12.8281 12.974 12.974 12.7188 13.1016L12.2539 13.3203C11.9987 13.4115 11.8073 13.3477 11.6797 13.1289C11.5703 12.8737 11.6341 12.6823 11.8711 12.5547L12.3359 12.3086C12.4818 12.2357 12.6276 12.1536 12.7734 12.0625L12.1992 11.4883C12.0352 11.2878 12.0352 11.0872 12.1992 10.8867C12.3997 10.7044 12.6003 10.7044 12.8008 10.8867L13.4297 11.4883L13.457 11.5156C13.9128 11.0599 14.2591 10.5221 14.4961 9.90234V9.875H13.375H11.1875C10.9141 9.85677 10.7682 9.71094 10.75 9.4375C10.7682 9.16406 10.9141 9.01823 11.1875 9H12.9375V8.5625C12.9557 8.28906 13.1016 8.14323 13.375 8.125C13.6484 8.14323 13.7943 8.28906 13.8125 8.5625Z" fill="black" fill-opacity="0.72"/>
</g>
<defs>
<clipPath id="clip0_1731_2591">
<rect width="18" height="22" fill="white"/>
</clipPath>
</defs>
</svg>
