<svg width="20" height="24" viewBox="0 0 20 24" fill="none" xmlns="http://www.w3.org/2000/svg">
<g id="label-paired / md / location-crosshairs-slash-md / regular" clip-path="url(#clip0_1731_3936)">
<path id="icon" d="M12.375 16.4062H12.3438L13.1875 17.0625C12.3958 17.5833 11.5 17.8854 10.5 17.9688V19.5C10.4792 19.8125 10.3125 19.9792 10 20C9.6875 19.9792 9.52083 19.8125 9.5 19.5V17.9688C8.02083 17.8229 6.77083 17.25 5.75 16.25C4.75 15.2292 4.17708 13.9792 4.03125 12.5H2.5C2.1875 12.4792 2.02083 12.3125 2 12C2.02083 11.6875 2.1875 11.5208 2.5 11.5H4.03125C4.07292 11 4.16667 10.5208 4.3125 10.0625L5.15625 10.7188C5.05208 11.1354 5 11.5625 5 12C5.04167 13.4167 5.53125 14.5938 6.46875 15.5312C7.40625 16.4688 8.58333 16.9583 10 17C10.8542 17 11.6458 16.8021 12.375 16.4062ZM9.5 6.03125V4.5C9.52083 4.1875 9.6875 4.02083 10 4C10.3125 4.02083 10.4792 4.1875 10.5 4.5V6.03125C11.9792 6.17708 13.2292 6.75 14.25 7.75C15.25 8.77083 15.8229 10.0208 15.9688 11.5H17.5C17.8125 11.5208 17.9792 11.6875 18 12C17.9792 12.3125 17.8125 12.4792 17.5 12.5H15.9688C15.9271 13 15.8333 13.4792 15.6875 13.9375L14.8438 13.2812C14.9479 12.8646 15 12.4375 15 12C14.9583 10.5833 14.4688 9.40625 13.5312 8.46875C12.5938 7.53125 11.4167 7.04167 10 7C9.14583 7 8.36458 7.19792 7.65625 7.59375L6.8125 6.9375C7.60417 6.41667 8.5 6.11458 9.5 6.03125ZM10 15C9.1875 14.9792 8.5 14.7083 7.9375 14.1875C7.375 13.6667 7.0625 13 7 12.1875L8.75 13.5625C8.77083 13.5625 8.78125 13.5729 8.78125 13.5938L10.5312 14.9688C10.3438 14.9896 10.1667 15 10 15ZM9.5 9.03125C9.66667 9.01042 9.83333 9 10 9C10.8125 9.02083 11.5 9.29167 12.0625 9.8125C12.625 10.3333 12.9375 11 13 11.8125L11.25 10.4375C11.2292 10.4375 11.2188 10.4271 11.2188 10.4062L9.5 9.03125ZM0.8125 4.09375L19.8125 19.125C20.0417 19.3333 20.0729 19.5625 19.9062 19.8125C19.6771 20.0417 19.4375 20.0729 19.1875 19.9062L0.1875 4.90625C-0.0416667 4.67708 -0.0729167 4.4375 0.09375 4.1875C0.322917 3.97917 0.5625 3.94792 0.8125 4.09375Z" fill="black" fill-opacity="0.72"/>
</g>
<defs>
<clipPath id="clip0_1731_3936">
<rect width="20" height="24" fill="white"/>
</clipPath>
</defs>
</svg>
