<svg width="13" height="30" viewBox="0 0 13 30" fill="none" xmlns="http://www.w3.org/2000/svg">
<g id="label-paired / lg / two-lg / bold" clip-path="url(#clip0_1731_4475)">
<path id="icon" d="M6.03125 8.625C4.9375 8.65104 4.01302 9.02865 3.25781 9.75781L1.85156 11.1641C1.40885 11.5286 0.966146 11.5286 0.523438 11.1641C0.158854 10.7214 0.158854 10.2786 0.523438 9.83594L1.92969 8.46875C3.04948 7.34896 4.41667 6.77604 6.03125 6.75H6.30469C7.86719 6.80208 9.16927 7.33594 10.2109 8.35156C11.2266 9.39323 11.7604 10.6953 11.8125 12.2578C11.7865 13.8464 11.2005 15.1875 10.0547 16.2812L3.57031 22.375H11.8125C12.3854 22.4271 12.6979 22.7396 12.75 23.3125C12.6979 23.8854 12.3854 24.1979 11.8125 24.25H1.1875C0.770833 24.224 0.484375 24.0286 0.328125 23.6641C0.197917 23.2734 0.276042 22.9349 0.5625 22.6484L8.80469 14.9141C9.53385 14.1849 9.91146 13.2995 9.9375 12.2578C9.91146 11.2422 9.5599 10.3828 8.88281 9.67969C8.17969 9.0026 7.32031 8.65104 6.30469 8.625H6.03125Z" fill="black" fill-opacity="0.72"/>
</g>
<defs>
<clipPath id="clip0_1731_4475">
<rect width="13" height="30" fill="white"/>
</clipPath>
</defs>
</svg>
