<svg width="14" height="22" viewBox="0 0 14 22" fill="none" xmlns="http://www.w3.org/2000/svg">
<g id="label-paired / sm / chart-candlestick-sm / regular" clip-path="url(#clip0_1731_2515)">
<path id="icon" d="M0.875 5.0625V14.6875C0.893229 15.0521 1.02083 15.362 1.25781 15.6172C1.51302 15.8542 1.82292 15.9818 2.1875 16H13.5625C13.8359 16.0182 13.9818 16.1641 14 16.4375C13.9818 16.7109 13.8359 16.8568 13.5625 16.875H2.1875C1.56771 16.8568 1.04818 16.6471 0.628906 16.2461C0.227865 15.8268 0.0182292 15.3073 0 14.6875V5.0625C0.0182292 4.78906 0.164062 4.64323 0.4375 4.625C0.710938 4.64323 0.856771 4.78906 0.875 5.0625ZM8.75 5.0625V6.375C8.75 6.39323 8.75 6.40234 8.75 6.40234C9.00521 6.45703 9.21484 6.58464 9.37891 6.78516C9.54297 6.96745 9.625 7.19531 9.625 7.46875V9.65625C9.58854 10.2214 9.29688 10.5768 8.75 10.7227C8.75 10.7227 8.75 10.7318 8.75 10.75V12.0625C8.73177 12.3359 8.58594 12.4818 8.3125 12.5C8.03906 12.4818 7.89323 12.3359 7.875 12.0625V10.75C7.875 10.7318 7.875 10.7227 7.875 10.7227C7.61979 10.668 7.41016 10.5404 7.24609 10.3398C7.08203 10.1576 7 9.92969 7 9.65625V7.46875C7.03646 6.90365 7.32812 6.54818 7.875 6.40234C7.875 6.40234 7.875 6.39323 7.875 6.375V5.0625C7.89323 4.78906 8.03906 4.64323 8.3125 4.625C8.58594 4.64323 8.73177 4.78906 8.75 5.0625ZM4.8125 5.5C5.08594 5.51823 5.23177 5.66406 5.25 5.9375V7.25C5.25 7.26823 5.25 7.27734 5.25 7.27734C5.50521 7.33203 5.71484 7.45964 5.87891 7.66016C6.04297 7.84245 6.125 8.07031 6.125 8.34375V11.4062C6.08854 11.9714 5.79688 12.3268 5.25 12.4727C5.25 12.4727 5.25 12.4818 5.25 12.5V13.8125C5.23177 14.0859 5.08594 14.2318 4.8125 14.25C4.53906 14.2318 4.39323 14.0859 4.375 13.8125V12.5C4.375 12.4818 4.375 12.4727 4.375 12.4727C4.11979 12.418 3.91016 12.2904 3.74609 12.0898C3.58203 11.9076 3.5 11.6797 3.5 11.4062V8.34375C3.53646 7.77865 3.82812 7.42318 4.375 7.27734C4.375 7.27734 4.375 7.26823 4.375 7.25V5.9375C4.39323 5.66406 4.53906 5.51823 4.8125 5.5ZM8.75 7.46875C8.73177 7.34115 8.65885 7.26823 8.53125 7.25H8.09375C7.96615 7.26823 7.89323 7.34115 7.875 7.46875V9.65625C7.89323 9.78385 7.96615 9.85677 8.09375 9.875H8.53125C8.65885 9.85677 8.73177 9.78385 8.75 9.65625V7.46875ZM11.5938 9.875C11.4661 9.89323 11.3932 9.96615 11.375 10.0938V11.4062C11.3932 11.5339 11.4661 11.6068 11.5938 11.625H12.0312C12.1589 11.6068 12.2318 11.5339 12.25 11.4062V10.0938C12.2318 9.96615 12.1589 9.89323 12.0312 9.875H11.5938ZM11.375 9V7.6875C11.3932 7.41406 11.5391 7.26823 11.8125 7.25C12.0859 7.26823 12.2318 7.41406 12.25 7.6875V9C12.25 9.01823 12.25 9.02734 12.25 9.02734C12.5052 9.08203 12.7148 9.20964 12.8789 9.41016C13.043 9.59245 13.125 9.82031 13.125 10.0938V11.4062C13.0885 11.9714 12.7969 12.3268 12.25 12.4727C12.25 12.4727 12.25 12.4818 12.25 12.5V13.8125C12.2318 14.0859 12.0859 14.2318 11.8125 14.25C11.5391 14.2318 11.3932 14.0859 11.375 13.8125V12.5C11.375 12.4818 11.375 12.4727 11.375 12.4727C11.1198 12.418 10.9102 12.2904 10.7461 12.0898C10.582 11.9076 10.5 11.6797 10.5 11.4062V10.0938C10.5365 9.52865 10.8281 9.17318 11.375 9.02734C11.375 9.02734 11.375 9.01823 11.375 9ZM5.03125 8.125H4.59375C4.46615 8.14323 4.39323 8.21615 4.375 8.34375V11.4062C4.39323 11.5339 4.46615 11.6068 4.59375 11.625H5.03125C5.15885 11.6068 5.23177 11.5339 5.25 11.4062V8.34375C5.23177 8.21615 5.15885 8.14323 5.03125 8.125Z" fill="black" fill-opacity="0.72"/>
</g>
<defs>
<clipPath id="clip0_1731_2515">
<rect width="14" height="22" fill="white"/>
</clipPath>
</defs>
</svg>
