<svg width="24" height="36" viewBox="0 0 24 36" fill="none" xmlns="http://www.w3.org/2000/svg">
<g id="label-paired / xl / circle-dollar-xl / regular" clip-path="url(#clip0_1731_6728)">
<path id="icon" d="M22.5 18C22.4688 16.0938 22 14.3438 21.0938 12.75C20.1562 11.1562 18.875 9.875 17.25 8.90625C15.5938 7.96875 13.8438 7.5 12 7.5C10.1562 7.5 8.40625 7.96875 6.75 8.90625C5.125 9.875 3.84375 11.1562 2.90625 12.75C2 14.3438 1.53125 16.0938 1.5 18C1.53125 19.9062 2 21.6562 2.90625 23.25C3.84375 24.8438 5.125 26.125 6.75 27.0938C8.40625 28.0312 10.1562 28.5 12 28.5C13.8438 28.5 15.5938 28.0312 17.25 27.0938C18.875 26.125 20.1562 24.8438 21.0938 23.25C22 21.6562 22.4688 19.9062 22.5 18ZM0 18C0.03125 15.8125 0.5625 13.8125 1.59375 12C2.65625 10.1875 4.125 8.71875 6 7.59375C7.90625 6.53125 9.90625 6 12 6C14.0938 6 16.0938 6.53125 18 7.59375C19.875 8.71875 21.3438 10.1875 22.4062 12C23.4375 13.8125 23.9688 15.8125 24 18C23.9688 20.1875 23.4375 22.1875 22.4062 24C21.3438 25.8125 19.875 27.2812 18 28.4062C16.0938 29.4688 14.0938 30 12 30C9.90625 30 7.90625 29.4688 6 28.4062C4.125 27.2812 2.65625 25.8125 1.59375 24C0.5625 22.1875 0.03125 20.1875 0 18ZM12.75 11.625V12.7031C13.375 12.7656 14 12.8906 14.625 13.0781C14.6562 13.1094 14.6875 13.125 14.7188 13.125C14.75 13.125 14.7812 13.1406 14.8125 13.1719C15.25 13.3281 15.4219 13.625 15.3281 14.0625C15.1719 14.5 14.875 14.6875 14.4375 14.625C14.3125 14.5625 14.2031 14.5156 14.1094 14.4844C13.7344 14.3906 13.375 14.3125 13.0312 14.25C12.0938 14.125 11.3125 14.2031 10.6875 14.4844C10.125 14.7656 9.82812 15.0781 9.79688 15.4219C9.70312 15.8594 9.85938 16.1875 10.2656 16.4062C10.7656 16.7188 11.4688 16.9844 12.375 17.2031C12.375 17.2031 12.3906 17.2031 12.4219 17.2031C13.3281 17.4219 14.1719 17.7656 14.9531 18.2344C15.8594 18.8906 16.2344 19.7656 16.0781 20.8594C15.8281 21.8906 15.2344 22.5781 14.2969 22.9219C13.8281 23.1094 13.3125 23.2188 12.75 23.25V24.375C12.6875 24.8438 12.4375 25.0938 12 25.125C11.5312 25.0938 11.2812 24.8438 11.25 24.375V23.1562C10.7812 23.0625 10.2656 22.9375 9.70312 22.7812C9.39062 22.6875 9.07812 22.5781 8.76562 22.4531C8.32812 22.2656 8.17188 21.9531 8.29688 21.5156C8.45312 21.1094 8.76562 20.9531 9.23438 21.0469C9.54688 21.1406 9.85938 21.2344 10.1719 21.3281C10.7344 21.5156 11.1719 21.6406 11.4844 21.7031C12.4219 21.8281 13.1719 21.7656 13.7344 21.5156C14.2344 21.2969 14.5156 20.9844 14.5781 20.5781C14.6719 20.1094 14.5156 19.7344 14.1094 19.4531C13.5156 19.1094 12.875 18.8594 12.1875 18.7031C12.125 18.6719 12.0625 18.6562 12 18.6562C11.9375 18.625 11.8906 18.6094 11.8594 18.6094C10.9844 18.3906 10.1719 18.0781 9.42188 17.6719C9.04688 17.4219 8.73438 17.0781 8.48438 16.6406C8.23438 16.2031 8.17188 15.7031 8.29688 15.1406C8.54688 14.1406 9.14062 13.4531 10.0781 13.0781C10.4531 12.9531 10.8438 12.8438 11.25 12.75V11.625C11.2812 11.1562 11.5312 10.9062 12 10.875C12.4375 10.9062 12.6875 11.1562 12.75 11.625Z" fill="black" fill-opacity="0.72"/>
</g>
<defs>
<clipPath id="clip0_1731_6728">
<rect width="24" height="36" fill="white"/>
</clipPath>
</defs>
</svg>
