<svg width="14" height="22" viewBox="0 0 14 22" fill="none" xmlns="http://www.w3.org/2000/svg">
<g id="label-paired / sm / envelope-sm / bold" clip-path="url(#clip0_1731_2558)">
<path id="icon" d="M1.75 6.8125C1.47656 6.83073 1.33073 6.97656 1.3125 7.25V7.85156L6.04297 11.7344C6.33464 11.9531 6.65365 12.0625 7 12.0625C7.36458 12.0625 7.69271 11.9531 7.98438 11.7344L12.6875 7.85156V7.25C12.6693 6.97656 12.5234 6.83073 12.25 6.8125H1.75ZM1.3125 9.54688V14.25C1.33073 14.5234 1.47656 14.6693 1.75 14.6875H12.25C12.5234 14.6693 12.6693 14.5234 12.6875 14.25V9.54688L8.80469 12.7461C8.25781 13.1654 7.65625 13.375 7 13.375C6.34375 13.375 5.74219 13.1654 5.19531 12.7461L1.3125 9.54688ZM0 7.25C0.0182292 6.75781 0.191406 6.34766 0.519531 6.01953C0.847656 5.69141 1.25781 5.51823 1.75 5.5H12.25C12.7422 5.51823 13.1523 5.69141 13.4805 6.01953C13.8086 6.34766 13.9818 6.75781 14 7.25V14.25C13.9818 14.7422 13.8086 15.1523 13.4805 15.4805C13.1523 15.8086 12.7422 15.9818 12.25 16H1.75C1.25781 15.9818 0.847656 15.8086 0.519531 15.4805C0.191406 15.1523 0.0182292 14.7422 0 14.25V7.25Z" fill="black" fill-opacity="0.72"/>
</g>
<defs>
<clipPath id="clip0_1731_2558">
<rect width="14" height="22" fill="white"/>
</clipPath>
</defs>
</svg>
