<svg width="14" height="18" viewBox="0 0 14 18" fill="none" xmlns="http://www.w3.org/2000/svg">
<g id="label-paired / caption / floppy-disk-pen-caption / bold" clip-path="url(#clip0_1731_1463)">
<path id="icon" d="M1.375 5.75V13.25C1.39062 13.4844 1.51562 13.6094 1.75 13.625H6.60156L6.32031 14.75H1.75C1.32812 14.7344 0.976562 14.5859 0.695312 14.3047C0.414062 14.0234 0.265625 13.6719 0.25 13.25V5.75C0.265625 5.32812 0.414062 4.97656 0.695312 4.69531C0.976562 4.41406 1.32812 4.26562 1.75 4.25H7.51562C7.92188 4.25 8.27344 4.39844 8.57031 4.69531L10.3047 6.42969L9.50781 7.22656L7.77344 5.49219C7.75781 5.47656 7.75 5.46875 7.75 5.46875V7.8125C7.71875 8.15625 7.53125 8.34375 7.1875 8.375H2.6875C2.34375 8.34375 2.15625 8.15625 2.125 7.8125V5.375H1.75C1.51562 5.39062 1.39062 5.51562 1.375 5.75ZM10.3047 6.42969C10.6016 6.72656 10.75 7.08594 10.75 7.50781V9.03125L9.625 10.1562V7.50781C9.625 7.39844 9.58594 7.30469 9.50781 7.22656L10.3047 6.42969ZM3.25 5.375V7.25H6.625V5.375H3.25ZM4 11C4.01562 10.4375 4.26562 10.0078 4.75 9.71094C5.25 9.42969 5.75 9.42969 6.25 9.71094C6.73438 10.0078 6.98438 10.4375 7 11C6.98438 11.5625 6.73438 11.9922 6.25 12.2891C5.75 12.5703 5.25 12.5703 4.75 12.2891C4.26562 11.9922 4.01562 11.5625 4 11ZM13.1406 9.03125L13.4688 9.35938C13.6562 9.5625 13.75 9.78125 13.75 10.0156C13.75 10.2656 13.6562 10.4922 13.4688 10.6953L12.7891 11.375L11.125 9.71094L11.8047 9.03125C12.0078 8.84375 12.2266 8.75 12.4609 8.75C12.7109 8.75 12.9375 8.84375 13.1406 9.03125ZM7.5625 13.2734L10.5859 10.25L12.25 11.9141L9.22656 14.9375C9.13281 15.0312 9.01562 15.1016 8.875 15.1484L7.46875 15.5C7.32812 15.5156 7.21094 15.4766 7.11719 15.3828C7.02344 15.2891 6.98438 15.1719 7 15.0312L7.35156 13.625C7.39844 13.4844 7.46875 13.3672 7.5625 13.2734Z" fill="black" fill-opacity="0.72"/>
</g>
<defs>
<clipPath id="clip0_1731_1463">
<rect width="14" height="18" fill="white"/>
</clipPath>
</defs>
</svg>
