<svg width="14" height="22" viewBox="0 0 14 22" fill="none" xmlns="http://www.w3.org/2000/svg">
<g id="label-paired / sm / image-sm / regular" clip-path="url(#clip0_1731_3027)">
<path id="icon" d="M1.75 5.5C1.49479 5.5 1.28516 5.58203 1.12109 5.74609C0.957031 5.91016 0.875 6.11979 0.875 6.375V12.7461L2.73438 10.9141C2.95312 10.6953 3.20833 10.5859 3.5 10.5859C3.79167 10.5859 4.04688 10.6953 4.26562 10.9141L6.125 12.7461L9.73438 9.16406C9.95312 8.94531 10.2083 8.83594 10.5 8.83594C10.7917 8.83594 11.0469 8.94531 11.2656 9.16406L13.125 10.9961V6.375C13.125 6.11979 13.043 5.91016 12.8789 5.74609C12.7148 5.58203 12.5052 5.5 12.25 5.5H1.75ZM0.875 14.0039V15.125C0.875 15.3802 0.957031 15.5898 1.12109 15.7539C1.28516 15.918 1.49479 16 1.75 16H2.87109L5.49609 13.375L3.66406 11.5156C3.55469 11.4427 3.44531 11.4427 3.33594 11.5156L0.875 14.0039ZM10.6641 9.76562C10.5547 9.69271 10.4453 9.69271 10.3359 9.76562L4.12891 16H12.25C12.5052 16 12.7148 15.918 12.8789 15.7539C13.043 15.5898 13.125 15.3802 13.125 15.125V12.2539L10.6641 9.76562ZM0 6.375C0.0182292 5.88281 0.191406 5.47266 0.519531 5.14453C0.847656 4.81641 1.25781 4.64323 1.75 4.625H12.25C12.7422 4.64323 13.1523 4.81641 13.4805 5.14453C13.8086 5.47266 13.9818 5.88281 14 6.375V15.125C13.9818 15.6172 13.8086 16.0273 13.4805 16.3555C13.1523 16.6836 12.7422 16.8568 12.25 16.875H1.75C1.25781 16.8568 0.847656 16.6836 0.519531 16.3555C0.191406 16.0273 0.0182292 15.6172 0 15.125V6.375ZM4.375 7.6875C4.35677 7.41406 4.21094 7.26823 3.9375 7.25C3.66406 7.26823 3.51823 7.41406 3.5 7.6875C3.51823 7.96094 3.66406 8.10677 3.9375 8.125C4.21094 8.10677 4.35677 7.96094 4.375 7.6875ZM2.625 7.6875C2.64323 7.19531 2.86198 6.8125 3.28125 6.53906C3.71875 6.32031 4.15625 6.32031 4.59375 6.53906C5.01302 6.8125 5.23177 7.19531 5.25 7.6875C5.23177 8.17969 5.01302 8.5625 4.59375 8.83594C4.15625 9.05469 3.71875 9.05469 3.28125 8.83594C2.86198 8.5625 2.64323 8.17969 2.625 7.6875Z" fill="black" fill-opacity="0.72"/>
</g>
<defs>
<clipPath id="clip0_1731_3027">
<rect width="14" height="22" fill="white"/>
</clipPath>
</defs>
</svg>
