<svg width="18" height="36" viewBox="0 0 18 36" fill="none" xmlns="http://www.w3.org/2000/svg">
<g id="label-paired / xl / moon-xl / bold" clip-path="url(#clip0_1731_5773)">
<path id="icon" d="M6.79688 10.6406C5.42188 11.3281 4.32812 12.3125 3.51562 13.5938C2.70312 14.9062 2.28125 16.375 2.25 18C2.3125 20.3438 3.10938 22.2812 4.64062 23.8125C6.20312 25.375 8.14062 26.1875 10.4531 26.25C11.0781 26.25 11.6875 26.1875 12.2812 26.0625C10.1875 25.3125 8.5 24.0469 7.21875 22.2656C5.9375 20.5156 5.28125 18.4688 5.25 16.125C5.25 14.0938 5.76562 12.2656 6.79688 10.6406ZM9.70312 7.54688C9.79688 7.54688 9.90625 7.53125 10.0312 7.5C10.1875 7.5 10.3438 7.5 10.5 7.5C10.625 7.5 10.75 7.5 10.875 7.5C11.0312 7.5 11.1875 7.51562 11.3438 7.54688C11.7188 7.60937 11.9531 7.79687 12.0469 8.10938C12.1094 8.48438 11.9844 8.76562 11.6719 8.95312C11.5156 9.01562 11.3594 9.10938 11.2031 9.23438C11.0156 9.35938 10.8281 9.5 10.6406 9.65625C10.6094 9.65625 10.5938 9.65625 10.5938 9.65625C10.5625 9.6875 10.5312 9.71875 10.5 9.75C9.5625 10.5312 8.82812 11.4688 8.29688 12.5625C7.76562 13.6562 7.5 14.8438 7.5 16.125C7.5625 18.4688 8.35938 20.4062 9.89062 21.9375C11.4219 23.5 13.3594 24.3125 15.7031 24.375C15.7656 24.375 15.8281 24.375 15.8906 24.375C16.1406 24.375 16.375 24.3594 16.5938 24.3281C16.7812 24.2969 16.9531 24.2812 17.1094 24.2812C17.4844 24.2188 17.75 24.3438 17.9062 24.6562C18.0625 24.9688 18.0156 25.2656 17.7656 25.5469C17.6406 25.6406 17.5156 25.75 17.3906 25.875C17.2031 26.0625 16.9844 26.2344 16.7344 26.3906C16.7031 26.4219 16.6719 26.4531 16.6406 26.4844C16.6094 26.5156 16.5625 26.5469 16.5 26.5781C14.75 27.8281 12.75 28.4688 10.5 28.5C8.53125 28.4688 6.76562 27.9844 5.20312 27.0469C3.60938 26.1406 2.35938 24.8906 1.45312 23.2969C0.515625 21.7344 0.03125 19.9688 0 18C0.0625 15.1562 1 12.7656 2.8125 10.8281C4.625 8.89062 6.92188 7.79687 9.70312 7.54688Z" fill="black" fill-opacity="0.72"/>
</g>
<defs>
<clipPath id="clip0_1731_5773">
<rect width="18" height="36" fill="white"/>
</clipPath>
</defs>
</svg>
