<svg width="23" height="30" viewBox="0 0 23 30" fill="none" xmlns="http://www.w3.org/2000/svg">
<g id="label-paired / lg / arrow-down-one-nine-lg / regular" clip-path="url(#clip0_1731_4614)">
<path id="icon" d="M17.75 7.375V13H19C19.3906 13.026 19.599 13.2344 19.625 13.625C19.599 14.0156 19.3906 14.224 19 14.25H17.125H15.25C14.8594 14.224 14.651 14.0156 14.625 13.625C14.651 13.2344 14.8594 13.026 15.25 13H16.5V8.23438L15.4453 8.58594C15.0807 8.6901 14.8203 8.5599 14.6641 8.19531C14.5859 7.83073 14.7161 7.57031 15.0547 7.41406L16.9297 6.78906C17.138 6.73698 17.3203 6.76302 17.4766 6.86719C17.6589 6.9974 17.75 7.16667 17.75 7.375ZM6.92969 24.0547C6.64323 24.3151 6.35677 24.3151 6.07031 24.0547L2.32031 20.3047C2.0599 20.0182 2.0599 19.7318 2.32031 19.4453C2.60677 19.1849 2.89323 19.1849 3.17969 19.4453L5.875 22.1016V7.375C5.90104 6.98438 6.10938 6.77604 6.5 6.75C6.89062 6.77604 7.09896 6.98438 7.125 7.375V22.1016L9.82031 19.4453C10.1068 19.1849 10.3932 19.1849 10.6797 19.4453C10.9401 19.7318 10.9401 20.0182 10.6797 20.3047L6.92969 24.0547ZM16.9688 16.75C16.2135 16.776 15.6276 17.1146 15.2109 17.7656C14.8464 18.4427 14.8464 19.1198 15.2109 19.7969C15.6276 20.4479 16.2135 20.7865 16.9688 20.8125C17.724 20.7865 18.3099 20.4479 18.7266 19.7969C19.0911 19.1198 19.0911 18.4427 18.7266 17.7656C18.3099 17.1146 17.724 16.776 16.9688 16.75ZM13.6875 18.7812C13.7135 17.8438 14.0391 17.0755 14.6641 16.4766C15.263 15.8516 16.0312 15.526 16.9688 15.5C17.9062 15.526 18.6745 15.8516 19.2734 16.4766C19.8984 17.0755 20.224 17.8438 20.25 18.7812C20.25 18.8333 20.25 18.8854 20.25 18.9375C20.25 19.7969 19.9766 20.5521 19.4297 21.2031L16.9688 24.0156C16.6823 24.3021 16.3958 24.3281 16.1094 24.0938C15.8229 23.8073 15.7969 23.5208 16.0312 23.2344L17.0078 22.0625C16.9818 22.0625 16.9688 22.0625 16.9688 22.0625C16.0312 22.0365 15.263 21.7109 14.6641 21.0859C14.0391 20.487 13.7135 19.7188 13.6875 18.7812Z" fill="black" fill-opacity="0.72"/>
</g>
<defs>
<clipPath id="clip0_1731_4614">
<rect width="23" height="30" fill="white"/>
</clipPath>
</defs>
</svg>
