<svg width="14" height="22" viewBox="0 0 14 22" fill="none" xmlns="http://www.w3.org/2000/svg">
<g id="label-paired / sm / circle-zero-sm / bold" clip-path="url(#clip0_1731_2350)">
<path id="icon" d="M7 5.0625C5.96094 5.0625 5.01302 5.31771 4.15625 5.82812C3.29948 6.32031 2.60677 7.01302 2.07812 7.90625C1.56771 8.79948 1.3125 9.7474 1.3125 10.75C1.3125 11.7526 1.56771 12.7005 2.07812 13.5938C2.60677 14.487 3.29948 15.1797 4.15625 15.6719C5.01302 16.1823 5.96094 16.4375 7 16.4375C8.03906 16.4375 8.98698 16.1823 9.84375 15.6719C10.7005 15.1797 11.3932 14.487 11.9219 13.5938C12.4323 12.7005 12.6875 11.7526 12.6875 10.75C12.6875 9.7474 12.4323 8.79948 11.9219 7.90625C11.3932 7.01302 10.7005 6.32031 9.84375 5.82812C8.98698 5.31771 8.03906 5.0625 7 5.0625ZM7 17.75C5.72396 17.7318 4.55729 17.4219 3.5 16.8203C2.44271 16.2005 1.58594 15.3438 0.929688 14.25C0.309896 13.138 0 11.9714 0 10.75C0 9.52865 0.309896 8.36198 0.929688 7.25C1.58594 6.15625 2.44271 5.29948 3.5 4.67969C4.55729 4.07812 5.72396 3.76823 7 3.75C8.27604 3.76823 9.44271 4.07812 10.5 4.67969C11.5573 5.29948 12.4141 6.15625 13.0703 7.25C13.6901 8.36198 14 9.52865 14 10.75C14 11.9714 13.6901 13.138 13.0703 14.25C12.4141 15.3438 11.5573 16.2005 10.5 16.8203C9.44271 17.4219 8.27604 17.7318 7 17.75ZM7 7.25C7.7474 7.26823 8.36719 7.52344 8.85938 8.01562C9.35156 8.50781 9.60677 9.1276 9.625 9.875V11.625C9.60677 12.3724 9.35156 12.9922 8.85938 13.4844C8.36719 13.9766 7.7474 14.2318 7 14.25C6.2526 14.2318 5.63281 13.9766 5.14062 13.4844C4.64844 12.9922 4.39323 12.3724 4.375 11.625V9.875C4.39323 9.1276 4.64844 8.50781 5.14062 8.01562C5.63281 7.52344 6.2526 7.26823 7 7.25ZM5.6875 9.875V11.625C5.70573 11.9896 5.83333 12.2995 6.07031 12.5547C6.32552 12.7917 6.63542 12.9193 7 12.9375C7.36458 12.9193 7.67448 12.7917 7.92969 12.5547C8.16667 12.2995 8.29427 11.9896 8.3125 11.625V9.875C8.29427 9.51042 8.16667 9.20052 7.92969 8.94531C7.67448 8.70833 7.36458 8.58073 7 8.5625C6.63542 8.58073 6.32552 8.70833 6.07031 8.94531C5.83333 9.20052 5.70573 9.51042 5.6875 9.875Z" fill="black" fill-opacity="0.72"/>
</g>
<defs>
<clipPath id="clip0_1731_2350">
<rect width="14" height="22" fill="white"/>
</clipPath>
</defs>
</svg>
