<svg width="18" height="30" viewBox="0 0 18 30" fill="none" xmlns="http://www.w3.org/2000/svg">
<g id="label-paired / lg / square-check-lg / fill" clip-path="url(#clip0_1731_5520)">
<path id="icon" d="M2.75 6.75H15.25C15.9531 6.77604 16.5391 7.02344 17.0078 7.49219C17.4766 7.96094 17.724 8.54688 17.75 9.25V21.75C17.724 22.4531 17.4766 23.0391 17.0078 23.5078C16.5391 23.9766 15.9531 24.224 15.25 24.25H2.75C2.04688 24.224 1.46094 23.9766 0.992188 23.5078C0.523438 23.0391 0.276042 22.4531 0.25 21.75V9.25C0.276042 8.54688 0.523438 7.96094 0.992188 7.49219C1.46094 7.02344 2.04688 6.77604 2.75 6.75ZM13.4141 13.6641C13.7786 13.2214 13.7786 12.7786 13.4141 12.3359C12.9714 11.9714 12.5286 11.9714 12.0859 12.3359L7.75 16.6719L5.91406 14.8359C5.47135 14.4714 5.02865 14.4714 4.58594 14.8359C4.22135 15.2786 4.22135 15.7214 4.58594 16.1641L7.08594 18.6641C7.52865 19.0286 7.97135 19.0286 8.41406 18.6641L13.4141 13.6641Z" fill="black" fill-opacity="0.72"/>
</g>
<defs>
<clipPath id="clip0_1731_5520">
<rect width="18" height="30" fill="white"/>
</clipPath>
</defs>
</svg>
