<svg width="12" height="18" viewBox="0 0 12 18" fill="none" xmlns="http://www.w3.org/2000/svg">
<g id="label-paired / caption / chart-mixed-caption / regular" clip-path="url(#clip0_1731_1242)">
<path id="icon" d="M11.9062 4.36719C12.0469 4.55469 12.0391 4.73438 11.8828 4.90625L7.75781 8.65625C7.58594 8.78125 7.41406 8.77344 7.24219 8.63281L4.45312 5.86719L0.585938 8.67969C0.398438 8.78906 0.226562 8.75781 0.0703125 8.58594C-0.0390625 8.39844 -0.0078125 8.22656 0.164062 8.07031L4.28906 5.07031C4.46094 4.96094 4.61719 4.97656 4.75781 5.11719L7.52344 7.85938L11.3672 4.34375C11.5547 4.20312 11.7344 4.21094 11.9062 4.36719ZM1.875 13.625V12.125C1.85938 11.8906 1.73438 11.7656 1.5 11.75C1.26562 11.7656 1.14062 11.8906 1.125 12.125V13.625C1.14062 13.8594 1.26562 13.9844 1.5 14C1.73438 13.9844 1.85938 13.8594 1.875 13.625ZM1.5 11C1.8125 11.0156 2.07812 11.125 2.29688 11.3281C2.5 11.5469 2.60938 11.8125 2.625 12.125V13.625C2.60938 13.9375 2.5 14.2031 2.29688 14.4219C2.07812 14.625 1.8125 14.7344 1.5 14.75C1.1875 14.7344 0.921875 14.625 0.703125 14.4219C0.5 14.2031 0.390625 13.9375 0.375 13.625V12.125C0.390625 11.8125 0.5 11.5469 0.703125 11.3281C0.921875 11.125 1.1875 11.0156 1.5 11ZM4.875 9.875C4.85938 9.64062 4.73438 9.51562 4.5 9.5C4.26562 9.51562 4.14062 9.64062 4.125 9.875V13.625C4.14062 13.8594 4.26562 13.9844 4.5 14C4.73438 13.9844 4.85938 13.8594 4.875 13.625V9.875ZM3.375 9.875C3.39062 9.5625 3.5 9.29688 3.70312 9.07812C3.92188 8.875 4.1875 8.76562 4.5 8.75C4.8125 8.76562 5.07812 8.875 5.29688 9.07812C5.5 9.29688 5.60938 9.5625 5.625 9.875V13.625C5.60938 13.9375 5.5 14.2031 5.29688 14.4219C5.07812 14.625 4.8125 14.7344 4.5 14.75C4.1875 14.7344 3.92188 14.625 3.70312 14.4219C3.5 14.2031 3.39062 13.9375 3.375 13.625V9.875ZM7.875 13.625V11.375C7.85938 11.1406 7.73438 11.0156 7.5 11C7.26562 11.0156 7.14062 11.1406 7.125 11.375V13.625C7.14062 13.8594 7.26562 13.9844 7.5 14C7.73438 13.9844 7.85938 13.8594 7.875 13.625ZM7.5 10.25C7.8125 10.2656 8.07812 10.375 8.29688 10.5781C8.5 10.7969 8.60938 11.0625 8.625 11.375V13.625C8.60938 13.9375 8.5 14.2031 8.29688 14.4219C8.07812 14.625 7.8125 14.7344 7.5 14.75C7.1875 14.7344 6.92188 14.625 6.70312 14.4219C6.5 14.2031 6.39062 13.9375 6.375 13.625V11.375C6.39062 11.0625 6.5 10.7969 6.70312 10.5781C6.92188 10.375 7.1875 10.2656 7.5 10.25ZM10.875 9.875C10.8594 9.64062 10.7344 9.51562 10.5 9.5C10.2656 9.51562 10.1406 9.64062 10.125 9.875V13.625C10.1406 13.8594 10.2656 13.9844 10.5 14C10.7344 13.9844 10.8594 13.8594 10.875 13.625V9.875ZM9.375 9.875C9.39062 9.5625 9.5 9.29688 9.70312 9.07812C9.92188 8.875 10.1875 8.76562 10.5 8.75C10.8125 8.76562 11.0781 8.875 11.2969 9.07812C11.5 9.29688 11.6094 9.5625 11.625 9.875V13.625C11.6094 13.9375 11.5 14.2031 11.2969 14.4219C11.0781 14.625 10.8125 14.7344 10.5 14.75C10.1875 14.7344 9.92188 14.625 9.70312 14.4219C9.5 14.2031 9.39062 13.9375 9.375 13.625V9.875Z" fill="black" fill-opacity="0.72"/>
</g>
<defs>
<clipPath id="clip0_1731_1242">
<rect width="12" height="18" fill="white"/>
</clipPath>
</defs>
</svg>
