<svg width="9" height="22" viewBox="0 0 9 22" fill="none" xmlns="http://www.w3.org/2000/svg">
<g id="label-paired / sm / zero-sm / regular" clip-path="url(#clip0_1731_2298)">
<path id="icon" d="M0.125 9C0.161458 7.76042 0.589844 6.73047 1.41016 5.91016C2.23047 5.08984 3.26042 4.66146 4.5 4.625C5.73958 4.66146 6.76953 5.08984 7.58984 5.91016C8.41016 6.73047 8.83854 7.76042 8.875 9V12.5C8.83854 13.7396 8.41016 14.7695 7.58984 15.5898C6.76953 16.4102 5.73958 16.8385 4.5 16.875C3.26042 16.8385 2.23047 16.4102 1.41016 15.5898C0.589844 14.7695 0.161458 13.7396 0.125 12.5V9ZM4.5 5.5C3.51562 5.51823 2.6862 5.85547 2.01172 6.51172C1.35547 7.1862 1.01823 8.01562 1 9V12.5C1.01823 13.4844 1.35547 14.3138 2.01172 14.9883C2.6862 15.6445 3.51562 15.9818 4.5 16C5.48438 15.9818 6.3138 15.6445 6.98828 14.9883C7.64453 14.3138 7.98177 13.4844 8 12.5V9C7.98177 8.01562 7.64453 7.1862 6.98828 6.51172C6.3138 5.85547 5.48438 5.51823 4.5 5.5Z" fill="black" fill-opacity="0.72"/>
</g>
<defs>
<clipPath id="clip0_1731_2298">
<rect width="9" height="22" fill="white"/>
</clipPath>
</defs>
</svg>
