<svg width="16" height="24" viewBox="0 0 16 24" fill="none" xmlns="http://www.w3.org/2000/svg">
<g id="label-paired / md / paste-md / regular" clip-path="url(#clip0_1731_3957)">
<path id="icon" d="M4.28125 5.59375C4.19792 5.84375 4.03125 5.97917 3.78125 6H3.5C3.1875 6.02083 3.02083 6.1875 3 6.5V7H7V6.5C6.97917 6.1875 6.8125 6.02083 6.5 6H6.21875C5.96875 5.97917 5.8125 5.84375 5.75 5.59375C5.64583 5.21875 5.39583 5.02083 5 5C4.60417 5.02083 4.36458 5.21875 4.28125 5.59375ZM5 4C5.72917 4.04167 6.26042 4.375 6.59375 5H8C8.5625 5.02083 9.03125 5.21875 9.40625 5.59375C9.78125 5.96875 9.97917 6.4375 10 7H9C9 6.70833 8.90625 6.46875 8.71875 6.28125C8.53125 6.09375 8.29167 6 8 6H7.90625C7.96875 6.16667 8 6.33333 8 6.5V7C8 7 8 7.01042 8 7.03125C8 7.03125 8 7.04167 8 7.0625C7.375 7.1875 6.875 7.5 6.5 8H3C2.70833 8 2.46875 7.90625 2.28125 7.71875C2.09375 7.53125 2 7.29167 2 7V6.5C2 6.33333 2.03125 6.16667 2.09375 6H2C1.70833 6 1.46875 6.09375 1.28125 6.28125C1.09375 6.46875 1 6.70833 1 7V16C1 16.2917 1.09375 16.5312 1.28125 16.7188C1.46875 16.9062 1.70833 17 2 17H6V18H2C1.4375 17.9792 0.96875 17.7812 0.59375 17.4062C0.21875 17.0312 0.0208333 16.5625 0 16V7C0.0208333 6.4375 0.21875 5.96875 0.59375 5.59375C0.96875 5.21875 1.4375 5.02083 2 5H3.40625C3.73958 4.375 4.27083 4.04167 5 4ZM14 19C14.2917 19 14.5312 18.9062 14.7188 18.7188C14.9062 18.5312 15 18.2917 15 18V11.625C15 11.4792 14.9479 11.3646 14.8438 11.2812L12.7188 9.15625C12.6354 9.05208 12.5208 9 12.375 9H9C8.70833 9 8.46875 9.09375 8.28125 9.28125C8.09375 9.46875 8 9.70833 8 10V18C8 18.2917 8.09375 18.5312 8.28125 18.7188C8.46875 18.9062 8.70833 19 9 19H14ZM15.5625 10.5625C15.8542 10.8542 16 11.2083 16 11.625V18C15.9792 18.5625 15.7812 19.0312 15.4062 19.4062C15.0312 19.7812 14.5625 19.9792 14 20H9C8.4375 19.9792 7.96875 19.7812 7.59375 19.4062C7.21875 19.0312 7.02083 18.5625 7 18V10C7.02083 9.4375 7.21875 8.96875 7.59375 8.59375C7.96875 8.21875 8.4375 8.02083 9 8H12.375C12.7917 8 13.1458 8.14583 13.4375 8.4375L15.5625 10.5625Z" fill="black" fill-opacity="0.72"/>
</g>
<defs>
<clipPath id="clip0_1731_3957">
<rect width="16" height="24" fill="white"/>
</clipPath>
</defs>
</svg>
