<svg width="14" height="18" viewBox="0 0 14 18" fill="none" xmlns="http://www.w3.org/2000/svg">
<g id="label-paired / caption / video-caption / regular" clip-path="url(#clip0_1731_1564)">
<path id="icon" d="M1.75 5.75C1.53125 5.75 1.35156 5.82031 1.21094 5.96094C1.07031 6.10156 1 6.28125 1 6.5V12.5C1 12.7188 1.07031 12.8984 1.21094 13.0391C1.35156 13.1797 1.53125 13.25 1.75 13.25H7.75C7.96875 13.25 8.14844 13.1797 8.28906 13.0391C8.42969 12.8984 8.5 12.7188 8.5 12.5V6.5C8.5 6.28125 8.42969 6.10156 8.28906 5.96094C8.14844 5.82031 7.96875 5.75 7.75 5.75H1.75ZM0.25 6.5C0.265625 6.07812 0.414062 5.72656 0.695312 5.44531C0.976562 5.16406 1.32812 5.01562 1.75 5H7.75C8.17188 5.01562 8.52344 5.16406 8.80469 5.44531C9.08594 5.72656 9.23438 6.07812 9.25 6.5V7.60156V11.3984V12.5C9.23438 12.9219 9.08594 13.2734 8.80469 13.5547C8.52344 13.8359 8.17188 13.9844 7.75 14H1.75C1.32812 13.9844 0.976562 13.8359 0.695312 13.5547C0.414062 13.2734 0.265625 12.9219 0.25 12.5V6.5ZM12.4141 13.1328L10 11.7969V10.9531L12.7891 12.4766C12.8047 12.4922 12.8281 12.5 12.8594 12.5C12.9375 12.5 12.9844 12.4531 13 12.3594V6.64062C12.9844 6.5625 12.9375 6.51562 12.8594 6.5C12.8281 6.5 12.8047 6.50781 12.7891 6.52344L10 8.04688V7.20312L12.4141 5.86719C12.5547 5.78906 12.7031 5.75 12.8594 5.75C13.1094 5.75 13.3203 5.83594 13.4922 6.00781C13.6641 6.17969 13.75 6.39062 13.75 6.64062V12.3594C13.75 12.6094 13.6641 12.8203 13.4922 12.9922C13.3203 13.1641 13.1094 13.25 12.8594 13.25C12.7031 13.25 12.5547 13.2109 12.4141 13.1328Z" fill="black" fill-opacity="0.72"/>
</g>
<defs>
<clipPath id="clip0_1731_1564">
<rect width="14" height="18" fill="white"/>
</clipPath>
</defs>
</svg>
