<svg width="14" height="22" viewBox="0 0 14 22" fill="none" xmlns="http://www.w3.org/2000/svg">
<g id="label-paired / sm / sun-bright-sm / bold" clip-path="url(#clip0_1731_1994)">
<path id="icon" d="M7.65625 4.40625V6.15625C7.61979 6.55729 7.40104 6.77604 7 6.8125C6.59896 6.77604 6.38021 6.55729 6.34375 6.15625V4.40625C6.38021 4.00521 6.59896 3.78646 7 3.75C7.40104 3.78646 7.61979 4.00521 7.65625 4.40625ZM11.9492 6.73047L10.7188 7.96094C10.4089 8.21615 10.099 8.21615 9.78906 7.96094C9.53385 7.65104 9.53385 7.34115 9.78906 7.03125L11.0195 5.80078C11.3294 5.54557 11.6393 5.54557 11.9492 5.80078C12.2044 6.11068 12.2044 6.42057 11.9492 6.73047ZM2.98047 5.80078L4.21094 7.03125C4.46615 7.34115 4.46615 7.65104 4.21094 7.96094C3.90104 8.21615 3.59115 8.21615 3.28125 7.96094L2.05078 6.73047C1.79557 6.42057 1.79557 6.11068 2.05078 5.80078C2.36068 5.54557 2.67057 5.54557 2.98047 5.80078ZM0.65625 10.0938H2.40625C2.80729 10.1302 3.02604 10.349 3.0625 10.75C3.02604 11.151 2.80729 11.3698 2.40625 11.4062H0.65625C0.255208 11.3698 0.0364583 11.151 0 10.75C0.0364583 10.349 0.255208 10.1302 0.65625 10.0938ZM11.5938 10.0938H13.3438C13.7448 10.1302 13.9635 10.349 14 10.75C13.9635 11.151 13.7448 11.3698 13.3438 11.4062H11.5938C11.1927 11.3698 10.974 11.151 10.9375 10.75C10.974 10.349 11.1927 10.1302 11.5938 10.0938ZM4.21094 14.4688L2.98047 15.6992C2.67057 15.9544 2.36068 15.9544 2.05078 15.6992C1.79557 15.3893 1.79557 15.0794 2.05078 14.7695L3.28125 13.5391C3.59115 13.2839 3.90104 13.2839 4.21094 13.5391C4.46615 13.849 4.46615 14.1589 4.21094 14.4688ZM10.7188 13.5391L11.9492 14.7695C12.2044 15.0794 12.2044 15.3893 11.9492 15.6992C11.6393 15.9544 11.3294 15.9544 11.0195 15.6992L9.78906 14.4688C9.53385 14.1589 9.53385 13.849 9.78906 13.5391C10.099 13.2839 10.4089 13.2839 10.7188 13.5391ZM7.65625 15.3438V17.0938C7.61979 17.4948 7.40104 17.7135 7 17.75C6.59896 17.7135 6.38021 17.4948 6.34375 17.0938V15.3438C6.38021 14.9427 6.59896 14.724 7 14.6875C7.40104 14.724 7.61979 14.9427 7.65625 15.3438ZM8.75 10.75C8.73177 10.0938 8.4401 9.59245 7.875 9.24609C7.29167 8.91797 6.70833 8.91797 6.125 9.24609C5.5599 9.59245 5.26823 10.0938 5.25 10.75C5.26823 11.4062 5.5599 11.9076 6.125 12.2539C6.70833 12.582 7.29167 12.582 7.875 12.2539C8.4401 11.9076 8.73177 11.4062 8.75 10.75ZM3.9375 10.75C3.9375 10.2031 4.07422 9.69271 4.34766 9.21875C4.62109 8.74479 4.99479 8.37109 5.46875 8.09766C5.94271 7.82422 6.45312 7.6875 7 7.6875C7.54688 7.6875 8.05729 7.82422 8.53125 8.09766C9.00521 8.37109 9.37891 8.74479 9.65234 9.21875C9.92578 9.69271 10.0625 10.2031 10.0625 10.75C10.0625 11.2969 9.92578 11.8073 9.65234 12.2812C9.37891 12.7552 9.00521 13.1289 8.53125 13.4023C8.05729 13.6758 7.54688 13.8125 7 13.8125C6.45312 13.8125 5.94271 13.6758 5.46875 13.4023C4.99479 13.1289 4.62109 12.7552 4.34766 12.2812C4.07422 11.8073 3.9375 11.2969 3.9375 10.75Z" fill="black" fill-opacity="0.72"/>
</g>
<defs>
<clipPath id="clip0_1731_1994">
<rect width="14" height="22" fill="white"/>
</clipPath>
</defs>
</svg>
