<svg width="24" height="36" viewBox="0 0 24 36" fill="none" xmlns="http://www.w3.org/2000/svg">
<g id="label-paired / xl / circle-zero-xl / bold" clip-path="url(#clip0_1731_6123)">
<path id="icon" d="M12 8.25C10.2188 8.25 8.59375 8.6875 7.125 9.5625C5.65625 10.4062 4.46875 11.5938 3.5625 13.125C2.6875 14.6562 2.25 16.2812 2.25 18C2.25 19.7188 2.6875 21.3438 3.5625 22.875C4.46875 24.4062 5.65625 25.5938 7.125 26.4375C8.59375 27.3125 10.2188 27.75 12 27.75C13.7812 27.75 15.4062 27.3125 16.875 26.4375C18.3438 25.5938 19.5312 24.4062 20.4375 22.875C21.3125 21.3438 21.75 19.7188 21.75 18C21.75 16.2812 21.3125 14.6562 20.4375 13.125C19.5312 11.5938 18.3438 10.4062 16.875 9.5625C15.4062 8.6875 13.7812 8.25 12 8.25ZM12 30C9.8125 29.9688 7.8125 29.4375 6 28.4062C4.1875 27.3438 2.71875 25.875 1.59375 24C0.53125 22.0938 0 20.0938 0 18C0 15.9062 0.53125 13.9062 1.59375 12C2.71875 10.125 4.1875 8.65625 6 7.59375C7.8125 6.5625 9.8125 6.03125 12 6C14.1875 6.03125 16.1875 6.5625 18 7.59375C19.8125 8.65625 21.2812 10.125 22.4062 12C23.4688 13.9062 24 15.9062 24 18C24 20.0938 23.4688 22.0938 22.4062 24C21.2812 25.875 19.8125 27.3438 18 28.4062C16.1875 29.4375 14.1875 29.9688 12 30ZM12 12C13.2812 12.0312 14.3438 12.4688 15.1875 13.3125C16.0312 14.1562 16.4688 15.2188 16.5 16.5V19.5C16.4688 20.7812 16.0312 21.8438 15.1875 22.6875C14.3438 23.5312 13.2812 23.9688 12 24C10.7188 23.9688 9.65625 23.5312 8.8125 22.6875C7.96875 21.8438 7.53125 20.7812 7.5 19.5V16.5C7.53125 15.2188 7.96875 14.1562 8.8125 13.3125C9.65625 12.4688 10.7188 12.0312 12 12ZM9.75 16.5V19.5C9.78125 20.125 10 20.6562 10.4062 21.0938C10.8438 21.5 11.375 21.7188 12 21.75C12.625 21.7188 13.1562 21.5 13.5938 21.0938C14 20.6562 14.2188 20.125 14.25 19.5V16.5C14.2188 15.875 14 15.3438 13.5938 14.9062C13.1562 14.5 12.625 14.2812 12 14.25C11.375 14.2812 10.8438 14.5 10.4062 14.9062C10 15.3438 9.78125 15.875 9.75 16.5Z" fill="black" fill-opacity="0.72"/>
</g>
<defs>
<clipPath id="clip0_1731_6123">
<rect width="24" height="36" fill="white"/>
</clipPath>
</defs>
</svg>
