<svg width="27" height="36" viewBox="0 0 27 36" fill="none" xmlns="http://www.w3.org/2000/svg">
<g id="label-paired / xl / arrow-down-one-nine-xl / bold" clip-path="url(#clip0_1731_6175)">
<path id="icon" d="M21.375 8.625V12V14.25H22.5C23.1875 14.3125 23.5625 14.6875 23.625 15.375C23.5625 16.0625 23.1875 16.4375 22.5 16.5H20.25H18C17.3125 16.4375 16.9375 16.0625 16.875 15.375C16.9375 14.6875 17.3125 14.3125 18 14.25H19.125V12V10.1719L18.375 10.4531C17.6875 10.6094 17.2031 10.375 16.9219 9.75C16.7656 9.0625 17 8.57812 17.625 8.29688L19.875 7.54688C20.25 7.45312 20.5938 7.51562 20.9062 7.73438C21.2188 7.95313 21.375 8.25 21.375 8.625ZM6.70312 28.1719L2.20312 23.6719C1.76562 23.1406 1.76562 22.6094 2.20312 22.0781C2.73438 21.6406 3.26562 21.6406 3.79688 22.0781L6.375 24.6562V8.625C6.4375 7.9375 6.8125 7.5625 7.5 7.5C8.1875 7.5625 8.5625 7.9375 8.625 8.625V24.6562L11.2031 22.0781C11.7344 21.6406 12.2656 21.6406 12.7969 22.0781C13.2344 22.6094 13.2344 23.1406 12.7969 23.6719L8.29688 28.1719C7.76562 28.6094 7.23438 28.6094 6.70312 28.1719ZM19.875 24C20.5938 23.9688 21.1406 23.6562 21.5156 23.0625C21.8281 22.4375 21.8281 21.8125 21.5156 21.1875C21.1406 20.5938 20.5938 20.2812 19.875 20.25C19.1562 20.2812 18.6094 20.5938 18.2344 21.1875C17.9219 21.8125 17.9219 22.4375 18.2344 23.0625C18.6094 23.6562 19.1562 23.9688 19.875 24ZM19.0312 26.1562C18.0625 25.9375 17.2812 25.4688 16.6875 24.75C16.0938 24.0312 15.7812 23.1562 15.75 22.125C15.7812 20.9688 16.1875 20 16.9688 19.2188C17.75 18.4375 18.7188 18.0312 19.875 18C21.0312 18.0312 22 18.4375 22.7812 19.2188C23.5625 20 23.9688 20.9688 24 22.125C24 23.1562 23.6719 24.0625 23.0156 24.8438L20.3906 28.0781C19.8906 28.5781 19.3594 28.6406 18.7969 28.2656C18.2969 27.7656 18.2344 27.2344 18.6094 26.6719L19.0312 26.1562Z" fill="black" fill-opacity="0.72"/>
</g>
<defs>
<clipPath id="clip0_1731_6175">
<rect width="27" height="36" fill="white"/>
</clipPath>
</defs>
</svg>
