<svg width="18" height="30" viewBox="0 0 18 30" fill="none" xmlns="http://www.w3.org/2000/svg">
<g id="label-paired / lg / floppy-disk-lg / regular" clip-path="url(#clip0_1731_4924)">
<path id="icon" d="M1.5 9.25V21.75C1.5 22.1146 1.61719 22.4141 1.85156 22.6484C2.08594 22.8828 2.38542 23 2.75 23H15.25C15.6146 23 15.9141 22.8828 16.1484 22.6484C16.3828 22.4141 16.5 22.1146 16.5 21.75V12.1797C16.5 11.8151 16.3828 11.5156 16.1484 11.2812L13.2188 8.35156C13.0885 8.22135 12.9323 8.13021 12.75 8.07812V11.75C12.75 12.1146 12.6328 12.4141 12.3984 12.6484C12.1641 12.8828 11.8646 13 11.5 13H4C3.63542 13 3.33594 12.8828 3.10156 12.6484C2.86719 12.4141 2.75 12.1146 2.75 11.75V8C2.38542 8 2.08594 8.11719 1.85156 8.35156C1.61719 8.58594 1.5 8.88542 1.5 9.25ZM4 8V11.75H11.5V8H4ZM0.25 9.25C0.276042 8.54688 0.523438 7.96094 0.992188 7.49219C1.46094 7.02344 2.04688 6.77604 2.75 6.75H12.3203C13.0234 6.75 13.6224 6.9974 14.1172 7.49219L17.0078 10.3828C17.5026 10.8776 17.75 11.4766 17.75 12.1797V21.75C17.724 22.4531 17.4766 23.0391 17.0078 23.5078C16.5391 23.9766 15.9531 24.224 15.25 24.25H2.75C2.04688 24.224 1.46094 23.9766 0.992188 23.5078C0.523438 23.0391 0.276042 22.4531 0.25 21.75V9.25ZM10.875 18C10.849 17.2969 10.5365 16.75 9.9375 16.3594C9.3125 16.0469 8.6875 16.0469 8.0625 16.3594C7.46354 16.75 7.15104 17.2969 7.125 18C7.15104 18.7031 7.46354 19.25 8.0625 19.6406C8.6875 19.9531 9.3125 19.9531 9.9375 19.6406C10.5365 19.25 10.849 18.7031 10.875 18ZM9 14.875C10.1719 14.901 11.0703 15.4219 11.6953 16.4375C12.2682 17.4792 12.2682 18.5208 11.6953 19.5625C11.0703 20.5781 10.1719 21.099 9 21.125C7.82812 21.099 6.92969 20.5781 6.30469 19.5625C5.73177 18.5208 5.73177 17.4792 6.30469 16.4375C6.92969 15.4219 7.82812 14.901 9 14.875Z" fill="black" fill-opacity="0.72"/>
</g>
<defs>
<clipPath id="clip0_1731_4924">
<rect width="18" height="30" fill="white"/>
</clipPath>
</defs>
</svg>
