<svg width="15" height="30" viewBox="0 0 15 30" fill="none" xmlns="http://www.w3.org/2000/svg">
<g id="label-paired / lg / xmark-lg / regular" clip-path="url(#clip0_1731_5269)">
<path id="icon" d="M12.6953 21.5547L7.5 16.3984L2.34375 21.5547C2.03125 21.7891 1.73177 21.7891 1.44531 21.5547C1.21094 21.2682 1.21094 20.9818 1.44531 20.6953L6.60156 15.5L1.44531 10.3438C1.21094 10.0312 1.21094 9.73177 1.44531 9.44531C1.73177 9.21094 2.03125 9.21094 2.34375 9.44531L7.5 14.6016L12.6953 9.44531C12.9818 9.21094 13.2682 9.21094 13.5547 9.44531C13.7891 9.73177 13.7891 10.0312 13.5547 10.3438L8.39844 15.5L13.5547 20.6953C13.7891 20.9818 13.7891 21.2682 13.5547 21.5547C13.2682 21.7891 12.9818 21.7891 12.6953 21.5547Z" fill="black" fill-opacity="0.72"/>
</g>
<defs>
<clipPath id="clip0_1731_5269">
<rect width="15" height="30" fill="white"/>
</clipPath>
</defs>
</svg>
