<svg width="11" height="18" viewBox="0 0 11 18" fill="none" xmlns="http://www.w3.org/2000/svg">
<g id="label-paired / caption / arrow-down-to-bracket-caption / regular" clip-path="url(#clip0_1731_634)">
<path id="icon" d="M8.75781 8.63281L5.75781 11.6328C5.58594 11.7891 5.41406 11.7891 5.24219 11.6328L2.24219 8.63281C2.08594 8.46094 2.08594 8.28906 2.24219 8.11719C2.41406 7.96094 2.58594 7.96094 2.75781 8.11719L5.125 10.4609V3.875C5.14062 3.64062 5.26562 3.51563 5.5 3.5C5.73438 3.51563 5.85938 3.64062 5.875 3.875V10.4609L8.24219 8.11719C8.41406 7.96094 8.58594 7.96094 8.75781 8.11719C8.91406 8.28906 8.91406 8.46094 8.75781 8.63281ZM1 11.375V13.625C1.01562 13.9375 1.125 14.2031 1.32812 14.4219C1.54688 14.625 1.8125 14.7344 2.125 14.75H8.875C9.1875 14.7344 9.45312 14.625 9.67188 14.4219C9.875 14.2031 9.98438 13.9375 10 13.625V11.375C10.0156 11.1406 10.1406 11.0156 10.375 11C10.6094 11.0156 10.7344 11.1406 10.75 11.375V13.625C10.7344 14.1562 10.5547 14.6016 10.2109 14.9609C9.85156 15.3047 9.40625 15.4844 8.875 15.5H2.125C1.59375 15.4844 1.14844 15.3047 0.789062 14.9609C0.445312 14.6016 0.265625 14.1562 0.25 13.625V11.375C0.265625 11.1406 0.390625 11.0156 0.625 11C0.859375 11.0156 0.984375 11.1406 1 11.375Z" fill="black" fill-opacity="0.72"/>
</g>
<defs>
<clipPath id="clip0_1731_634">
<rect width="11" height="18" fill="white"/>
</clipPath>
</defs>
</svg>
