<svg width="14" height="18" viewBox="0 0 14 18" fill="none" xmlns="http://www.w3.org/2000/svg">
<g id="label-paired / caption / rectangle-barcode-caption / bold" clip-path="url(#clip0_1731_1739)">
<path id="icon" d="M1.75 5.375C1.51562 5.39062 1.39062 5.51562 1.375 5.75V13.25C1.39062 13.4844 1.51562 13.6094 1.75 13.625H12.25C12.4844 13.6094 12.6094 13.4844 12.625 13.25V5.75C12.6094 5.51562 12.4844 5.39062 12.25 5.375H1.75ZM0.25 5.75C0.265625 5.32812 0.414062 4.97656 0.695312 4.69531C0.976562 4.41406 1.32812 4.26562 1.75 4.25H12.25C12.6719 4.26562 13.0234 4.41406 13.3047 4.69531C13.5859 4.97656 13.7344 5.32812 13.75 5.75V13.25C13.7344 13.6719 13.5859 14.0234 13.3047 14.3047C13.0234 14.5859 12.6719 14.7344 12.25 14.75H1.75C1.32812 14.7344 0.976562 14.5859 0.695312 14.3047C0.414062 14.0234 0.265625 13.6719 0.25 13.25V5.75ZM3.0625 6.5C3.40625 6.53125 3.59375 6.71875 3.625 7.0625V11.9375C3.59375 12.2812 3.40625 12.4688 3.0625 12.5C2.71875 12.4688 2.53125 12.2812 2.5 11.9375V7.0625C2.53125 6.71875 2.71875 6.53125 3.0625 6.5ZM4.75 6.5C4.98438 6.51562 5.10938 6.64062 5.125 6.875V12.125C5.10938 12.3594 4.98438 12.4844 4.75 12.5C4.51562 12.4844 4.39062 12.3594 4.375 12.125V6.875C4.39062 6.64062 4.51562 6.51562 4.75 6.5ZM5.875 7.0625C5.90625 6.71875 6.09375 6.53125 6.4375 6.5C6.78125 6.53125 6.96875 6.71875 7 7.0625V11.9375C6.96875 12.2812 6.78125 12.4688 6.4375 12.5C6.09375 12.4688 5.90625 12.2812 5.875 11.9375V7.0625ZM9.0625 6.5C9.40625 6.53125 9.59375 6.71875 9.625 7.0625V11.9375C9.59375 12.2812 9.40625 12.4688 9.0625 12.5C8.71875 12.4688 8.53125 12.2812 8.5 11.9375V7.0625C8.53125 6.71875 8.71875 6.53125 9.0625 6.5ZM10.75 6.875C10.7656 6.64062 10.8906 6.51562 11.125 6.5C11.3594 6.51562 11.4844 6.64062 11.5 6.875V12.125C11.4844 12.3594 11.3594 12.4844 11.125 12.5C10.8906 12.4844 10.7656 12.3594 10.75 12.125V6.875Z" fill="black" fill-opacity="0.72"/>
</g>
<defs>
<clipPath id="clip0_1731_1739">
<rect width="14" height="18" fill="white"/>
</clipPath>
</defs>
</svg>
