<svg width="14" height="22" viewBox="0 0 14 22" fill="none" xmlns="http://www.w3.org/2000/svg">
<g id="label-paired / sm / paste-sm / bold" clip-path="url(#clip0_1731_2701)">
<path id="icon" d="M2.1875 6.375H1.75C1.47656 6.39323 1.33073 6.53906 1.3125 6.8125V14.25C1.33073 14.5234 1.47656 14.6693 1.75 14.6875H4.375V16H1.75C1.25781 15.9818 0.847656 15.8086 0.519531 15.4805C0.191406 15.1523 0.0182292 14.7422 0 14.25V6.8125C0.0182292 6.32031 0.191406 5.91016 0.519531 5.58203C0.847656 5.25391 1.25781 5.08073 1.75 5.0625H2.87109C2.92578 4.67969 3.08984 4.36979 3.36328 4.13281C3.63672 3.8776 3.97396 3.75 4.375 3.75C4.77604 3.75 5.11328 3.8776 5.38672 4.13281C5.66016 4.36979 5.82422 4.67969 5.87891 5.0625H7C7.41927 5.0625 7.78385 5.1901 8.09375 5.44531C8.38542 5.68229 8.58594 5.99219 8.69531 6.375H7C6.50781 6.375 6.0612 6.49349 5.66016 6.73047C5.27734 6.96745 4.96745 7.28646 4.73047 7.6875H3.0625C2.80729 7.6875 2.59766 7.60547 2.43359 7.44141C2.26953 7.27734 2.1875 7.06771 2.1875 6.8125V6.375ZM3.9375 5.28125C3.95573 5.55469 4.10156 5.70052 4.375 5.71875C4.64844 5.70052 4.79427 5.55469 4.8125 5.28125C4.79427 5.00781 4.64844 4.86198 4.375 4.84375C4.10156 4.86198 3.95573 5.00781 3.9375 5.28125ZM7 16.4375H12.25C12.5234 16.4193 12.6693 16.2734 12.6875 16V10.75H11.375C11.1198 10.75 10.9102 10.668 10.7461 10.5039C10.582 10.3398 10.5 10.1302 10.5 9.875V8.5625H7C6.72656 8.58073 6.58073 8.72656 6.5625 9V16C6.58073 16.2734 6.72656 16.4193 7 16.4375ZM12.25 17.75H7C6.50781 17.7318 6.09766 17.5586 5.76953 17.2305C5.44141 16.9023 5.26823 16.4922 5.25 16V9C5.26823 8.50781 5.44141 8.09766 5.76953 7.76953C6.09766 7.44141 6.50781 7.26823 7 7.25H11.2656C11.6302 7.25 11.9401 7.3776 12.1953 7.63281L13.6172 9.05469C13.8724 9.3099 14 9.61979 14 9.98438V16C13.9818 16.4922 13.8086 16.9023 13.4805 17.2305C13.1523 17.5586 12.7422 17.7318 12.25 17.75Z" fill="black" fill-opacity="0.72"/>
</g>
<defs>
<clipPath id="clip0_1731_2701">
<rect width="14" height="22" fill="white"/>
</clipPath>
</defs>
</svg>
