<svg width="11" height="22" viewBox="0 0 11 22" fill="none" xmlns="http://www.w3.org/2000/svg">
<g id="label-paired / sm / moon-sm / bold" clip-path="url(#clip0_1731_1999)">
<path id="icon" d="M4.21484 6.45703C3.41276 6.85807 2.77474 7.43229 2.30078 8.17969C1.82682 8.94531 1.58073 9.80208 1.5625 10.75C1.59896 12.1172 2.0638 13.2474 2.95703 14.1406C3.86849 15.0521 4.9987 15.526 6.34766 15.5625C6.71224 15.5625 7.06771 15.526 7.41406 15.4531C6.19271 15.0156 5.20833 14.2773 4.46094 13.2383C3.71354 12.2174 3.33073 11.0234 3.3125 9.65625C3.3125 8.47135 3.61328 7.40495 4.21484 6.45703ZM5.91016 4.65234C5.96484 4.65234 6.02865 4.64323 6.10156 4.625C6.19271 4.625 6.28385 4.625 6.375 4.625C6.44792 4.625 6.52083 4.625 6.59375 4.625C6.6849 4.625 6.77604 4.63411 6.86719 4.65234C7.08594 4.6888 7.22266 4.79818 7.27734 4.98047C7.3138 5.19922 7.24089 5.36328 7.05859 5.47266C6.96745 5.50911 6.8763 5.5638 6.78516 5.63672C6.67578 5.70964 6.56641 5.79167 6.45703 5.88281C6.4388 5.88281 6.42969 5.88281 6.42969 5.88281C6.41146 5.90104 6.39323 5.91927 6.375 5.9375C5.82812 6.39323 5.39974 6.9401 5.08984 7.57812C4.77995 8.21615 4.625 8.90885 4.625 9.65625C4.66146 11.0234 5.1263 12.1536 6.01953 13.0469C6.91276 13.9583 8.04297 14.4323 9.41016 14.4688C9.44661 14.4688 9.48307 14.4688 9.51953 14.4688C9.66536 14.4688 9.80208 14.4596 9.92969 14.4414C10.0391 14.4232 10.1393 14.4141 10.2305 14.4141C10.4492 14.3776 10.6042 14.4505 10.6953 14.6328C10.7865 14.8151 10.7591 14.9883 10.6133 15.1523C10.5404 15.207 10.4674 15.2708 10.3945 15.3438C10.2852 15.4531 10.1576 15.5534 10.0117 15.6445C9.99349 15.6628 9.97526 15.681 9.95703 15.6992C9.9388 15.7174 9.91146 15.7357 9.875 15.7539C8.85417 16.4831 7.6875 16.8568 6.375 16.875C5.22656 16.8568 4.19661 16.5742 3.28516 16.0273C2.35547 15.4987 1.6263 14.7695 1.09766 13.8398C0.550781 12.9284 0.268229 11.8984 0.25 10.75C0.286458 9.09115 0.833333 7.69661 1.89062 6.56641C2.94792 5.4362 4.28776 4.79818 5.91016 4.65234Z" fill="black" fill-opacity="0.72"/>
</g>
<defs>
<clipPath id="clip0_1731_1999">
<rect width="11" height="22" fill="white"/>
</clipPath>
</defs>
</svg>
