<svg width="12" height="36" viewBox="0 0 12 36" fill="none" xmlns="http://www.w3.org/2000/svg">
<g id="label-paired / xl / one-xl / bold" clip-path="url(#clip0_1731_6028)">
<path id="icon" d="M7.125 8.625V26.25H10.875C11.5625 26.3125 11.9375 26.6875 12 27.375C11.9375 28.0625 11.5625 28.4375 10.875 28.5H6H1.125C0.4375 28.4375 0.0625 28.0625 0 27.375C0.0625 26.6875 0.4375 26.3125 1.125 26.25H4.875V10.6406L1.6875 12.5625C1.09375 12.875 0.578125 12.7656 0.140625 12.2344C-0.140625 11.6094 -0.015625 11.0938 0.515625 10.6875L5.39062 7.6875C5.76562 7.46875 6.15625 7.45312 6.5625 7.64062C6.9375 7.85938 7.125 8.1875 7.125 8.625Z" fill="black" fill-opacity="0.72"/>
</g>
<defs>
<clipPath id="clip0_1731_6028">
<rect width="12" height="36" fill="white"/>
</clipPath>
</defs>
</svg>
