<svg width="20" height="30" viewBox="0 0 20 30" fill="none" xmlns="http://www.w3.org/2000/svg">
<g id="label-paired / lg / chart-candlestick-lg / regular" clip-path="url(#clip0_1731_4730)">
<path id="icon" d="M1.25 7.375V21.125C1.27604 21.6458 1.45833 22.0885 1.79688 22.4531C2.16146 22.7917 2.60417 22.974 3.125 23H19.375C19.7656 23.026 19.974 23.2344 20 23.625C19.974 24.0156 19.7656 24.224 19.375 24.25H3.125C2.23958 24.224 1.4974 23.9245 0.898438 23.3516C0.325521 22.7526 0.0260417 22.0104 0 21.125V7.375C0.0260417 6.98438 0.234375 6.77604 0.625 6.75C1.01562 6.77604 1.22396 6.98438 1.25 7.375ZM12.5 7.375V9.25C12.5 9.27604 12.5 9.28906 12.5 9.28906C12.8646 9.36719 13.1641 9.54948 13.3984 9.83594C13.6328 10.0964 13.75 10.4219 13.75 10.8125V13.9375C13.6979 14.7448 13.2812 15.2526 12.5 15.4609C12.5 15.4609 12.5 15.474 12.5 15.5V17.375C12.474 17.7656 12.2656 17.974 11.875 18C11.4844 17.974 11.276 17.7656 11.25 17.375V15.5C11.25 15.474 11.25 15.4609 11.25 15.4609C10.8854 15.3828 10.5859 15.2005 10.3516 14.9141C10.1172 14.6536 10 14.3281 10 13.9375V10.8125C10.0521 10.0052 10.4688 9.4974 11.25 9.28906C11.25 9.28906 11.25 9.27604 11.25 9.25V7.375C11.276 6.98438 11.4844 6.77604 11.875 6.75C12.2656 6.77604 12.474 6.98438 12.5 7.375ZM6.875 8C7.26562 8.02604 7.47396 8.23438 7.5 8.625V10.5C7.5 10.526 7.5 10.5391 7.5 10.5391C7.86458 10.6172 8.16406 10.7995 8.39844 11.0859C8.63281 11.3464 8.75 11.6719 8.75 12.0625V16.4375C8.69792 17.2448 8.28125 17.7526 7.5 17.9609C7.5 17.9609 7.5 17.974 7.5 18V19.875C7.47396 20.2656 7.26562 20.474 6.875 20.5C6.48438 20.474 6.27604 20.2656 6.25 19.875V18C6.25 17.974 6.25 17.9609 6.25 17.9609C5.88542 17.8828 5.58594 17.7005 5.35156 17.4141C5.11719 17.1536 5 16.8281 5 16.4375V12.0625C5.05208 11.2552 5.46875 10.7474 6.25 10.5391C6.25 10.5391 6.25 10.526 6.25 10.5V8.625C6.27604 8.23438 6.48438 8.02604 6.875 8ZM12.5 10.8125C12.474 10.6302 12.3698 10.526 12.1875 10.5H11.5625C11.3802 10.526 11.276 10.6302 11.25 10.8125V13.9375C11.276 14.1198 11.3802 14.224 11.5625 14.25H12.1875C12.3698 14.224 12.474 14.1198 12.5 13.9375V10.8125ZM16.5625 14.25C16.3802 14.276 16.276 14.3802 16.25 14.5625V16.4375C16.276 16.6198 16.3802 16.724 16.5625 16.75H17.1875C17.3698 16.724 17.474 16.6198 17.5 16.4375V14.5625C17.474 14.3802 17.3698 14.276 17.1875 14.25H16.5625ZM16.25 13V11.125C16.276 10.7344 16.4844 10.526 16.875 10.5C17.2656 10.526 17.474 10.7344 17.5 11.125V13C17.5 13.026 17.5 13.0391 17.5 13.0391C17.8646 13.1172 18.1641 13.2995 18.3984 13.5859C18.6328 13.8464 18.75 14.1719 18.75 14.5625V16.4375C18.6979 17.2448 18.2812 17.7526 17.5 17.9609C17.5 17.9609 17.5 17.974 17.5 18V19.875C17.474 20.2656 17.2656 20.474 16.875 20.5C16.4844 20.474 16.276 20.2656 16.25 19.875V18C16.25 17.974 16.25 17.9609 16.25 17.9609C15.8854 17.8828 15.5859 17.7005 15.3516 17.4141C15.1172 17.1536 15 16.8281 15 16.4375V14.5625C15.0521 13.7552 15.4688 13.2474 16.25 13.0391C16.25 13.0391 16.25 13.026 16.25 13ZM7.1875 11.75H6.5625C6.38021 11.776 6.27604 11.8802 6.25 12.0625V16.4375C6.27604 16.6198 6.38021 16.724 6.5625 16.75H7.1875C7.36979 16.724 7.47396 16.6198 7.5 16.4375V12.0625C7.47396 11.8802 7.36979 11.776 7.1875 11.75Z" fill="black" fill-opacity="0.72"/>
</g>
<defs>
<clipPath id="clip0_1731_4730">
<rect width="20" height="30" fill="white"/>
</clipPath>
</defs>
</svg>
