<svg width="24" height="36" viewBox="0 0 24 36" fill="none" xmlns="http://www.w3.org/2000/svg">
<g id="label-paired / xl / circle-three-xl / bold" clip-path="url(#clip0_1731_6088)">
<path id="icon" d="M12 8.25C10.2188 8.25 8.59375 8.6875 7.125 9.5625C5.65625 10.4062 4.46875 11.5938 3.5625 13.125C2.6875 14.6562 2.25 16.2812 2.25 18C2.25 19.7188 2.6875 21.3438 3.5625 22.875C4.46875 24.4062 5.65625 25.5938 7.125 26.4375C8.59375 27.3125 10.2188 27.75 12 27.75C13.7812 27.75 15.4062 27.3125 16.875 26.4375C18.3438 25.5938 19.5312 24.4062 20.4375 22.875C21.3125 21.3438 21.75 19.7188 21.75 18C21.75 16.2812 21.3125 14.6562 20.4375 13.125C19.5312 11.5938 18.3438 10.4062 16.875 9.5625C15.4062 8.6875 13.7812 8.25 12 8.25ZM12 30C9.8125 29.9688 7.8125 29.4375 6 28.4062C4.1875 27.3438 2.71875 25.875 1.59375 24C0.53125 22.0938 0 20.0938 0 18C0 15.9062 0.53125 13.9062 1.59375 12C2.71875 10.125 4.1875 8.65625 6 7.59375C7.8125 6.5625 9.8125 6.03125 12 6C14.1875 6.03125 16.1875 6.5625 18 7.59375C19.8125 8.65625 21.2812 10.125 22.4062 12C23.4688 13.9062 24 15.9062 24 18C24 20.0938 23.4688 22.0938 22.4062 24C21.2812 25.875 19.8125 27.3438 18 28.4062C16.1875 29.4375 14.1875 29.9688 12 30ZM8.625 12H14.625C15.125 12.0312 15.4688 12.2656 15.6562 12.7031C15.8125 13.1719 15.7188 13.5938 15.375 13.9688L12.9844 16.125C14.0156 16.25 14.8438 16.6875 15.4688 17.4375C16.125 18.1562 16.4688 19.0312 16.5 20.0625C16.4688 21.1875 16.0781 22.1094 15.3281 22.8281C14.6094 23.5781 13.6875 23.9688 12.5625 24H11.25C9.75 23.9688 8.59375 23.3281 7.78125 22.0781L7.6875 21.8906C7.375 21.2656 7.48438 20.75 8.01562 20.3438C8.64062 20.0312 9.15625 20.1562 9.5625 20.7188L9.70312 20.9062C10.0781 21.4375 10.5938 21.7188 11.25 21.75H12.5625C13.0312 21.75 13.4375 21.5938 13.7812 21.2812C14.0938 20.9375 14.25 20.5312 14.25 20.0625C14.25 19.5625 14.0781 19.1562 13.7344 18.8438C13.4219 18.5312 13.0312 18.375 12.5625 18.375H10.125C9.625 18.3438 9.28125 18.1094 9.09375 17.6719C8.9375 17.2031 9.03125 16.7812 9.375 16.4062L11.7188 14.25H8.625C7.9375 14.1875 7.5625 13.8125 7.5 13.125C7.5625 12.4375 7.9375 12.0625 8.625 12Z" fill="black" fill-opacity="0.72"/>
</g>
<defs>
<clipPath id="clip0_1731_6088">
<rect width="24" height="36" fill="white"/>
</clipPath>
</defs>
</svg>
