<svg width="15" height="36" viewBox="0 0 15 36" fill="none" xmlns="http://www.w3.org/2000/svg">
<g id="label-paired / xl / five-xl / regular" clip-path="url(#clip0_1731_6046)">
<path id="icon" d="M2.29688 8.0625C2.39062 7.71875 2.625 7.53125 3 7.5H12.75C13.2188 7.53125 13.4688 7.78125 13.5 8.25C13.4688 8.71875 13.2188 8.96875 12.75 9H3.60938L1.73438 16.5H9C10.6875 16.5312 12.1094 17.1094 13.2656 18.2344C14.3906 19.3906 14.9688 20.8125 15 22.5C14.9688 24.1875 14.3906 25.6094 13.2656 26.7656C12.1094 27.8906 10.6875 28.4688 9 28.5H3.98438C3.17188 28.5 2.4375 28.2969 1.78125 27.8906C1.125 27.4844 0.625 26.9219 0.28125 26.2031L0.09375 25.8281C-0.09375 25.4219 0.015625 25.0938 0.421875 24.8438C0.859375 24.6562 1.1875 24.7656 1.40625 25.1719L1.64062 25.5469C2.14062 26.4844 2.92188 26.9688 3.98438 27H9C10.2812 26.9688 11.3438 26.5312 12.1875 25.6875C13.0312 24.8438 13.4688 23.7812 13.5 22.5C13.4688 21.2188 13.0312 20.1562 12.1875 19.3125C11.3438 18.4688 10.2812 18.0312 9 18H0.75C0.5 18 0.296875 17.9062 0.140625 17.7188C0.015625 17.5312 -0.03125 17.3125 0 17.0625L2.29688 8.0625Z" fill="black" fill-opacity="0.72"/>
</g>
<defs>
<clipPath id="clip0_1731_6046">
<rect width="15" height="36" fill="white"/>
</clipPath>
</defs>
</svg>
