<svg width="20" height="24" viewBox="0 0 20 24" fill="none" xmlns="http://www.w3.org/2000/svg">
<g id="label-paired / md / stop-loss-md / regular" clip-path="url(#clip0_1731_3285)">
<path id="icon" d="M6.8125 16.3438C6.09375 16.3438 5.5 16.2188 5 15.9688C4.5 15.7188 4.09375 15.375 3.75 14.9375L4.6875 14.0625C4.96875 14.4062 5.3125 14.6875 5.65625 14.875C6 15.0625 6.40625 15.1562 6.875 15.1562C7.40625 15.1562 7.8125 15.0312 8.09375 14.7812C8.375 14.5312 8.5 14.2188 8.5 13.8125C8.5 13.5 8.40625 13.2188 8.21875 13.0312C8.03125 12.8438 7.6875 12.6875 7.1875 12.5938L6.4375 12.4688C5.625 12.3125 5.03125 12.0625 4.625 11.6562C4.1875 11.2812 4 10.75 4 10.0938C4 9.71875 4.0625 9.375 4.1875 9.09375C4.34375 8.78125 4.53125 8.53125 4.78125 8.34375C5.03125 8.125 5.34375 7.96875 5.71875 7.84375C6.0625 7.75 6.46875 7.6875 6.9375 7.6875C7.5625 7.6875 8.09375 7.78125 8.5625 8.03125C9.03125 8.21875 9.4375 8.5625 9.75 8.96875L8.8125 9.8125C8.59375 9.53125 8.34375 9.3125 8.03125 9.125C7.71875 8.96875 7.3125 8.875 6.84375 8.875C6.375 8.875 6 8.96875 5.75 9.15625C5.46875 9.34375 5.34375 9.625 5.34375 10C5.34375 10.375 5.46875 10.625 5.65625 10.8125C5.875 10.9688 6.21875 11.0938 6.6875 11.1875L7.4375 11.3438C8.25 11.5 8.875 11.7812 9.25 12.1562C9.65625 12.5312 9.84375 13.0625 9.84375 13.75C9.84375 14.125 9.78125 14.5 9.65625 14.8125C9.5 15.125 9.3125 15.4062 9.03125 15.625C8.78125 15.875 8.46875 16.0312 8.09375 16.1562C7.71875 16.2812 7.28125 16.3438 6.8125 16.3438ZM11.4688 16.1875V7.8125H12.8125V15H16.2188V16.1875H11.4688Z" fill="black" fill-opacity="0.72"/>
</g>
<defs>
<clipPath id="clip0_1731_3285">
<rect width="20" height="24" fill="white"/>
</clipPath>
</defs>
</svg>
