<svg width="11" height="22" viewBox="0 0 11 22" fill="none" xmlns="http://www.w3.org/2000/svg">
<g id="label-paired / sm / arrow-down-sm / bold" clip-path="url(#clip0_1731_2099)">
<path id="icon" d="M5.03516 16.6836L0.441406 11.8711C0.186198 11.543 0.195312 11.2331 0.46875 10.9414C0.778646 10.6862 1.07943 10.6862 1.37109 10.9414L4.84375 14.5781V5.28125C4.88021 4.88021 5.09896 4.66146 5.5 4.625C5.90104 4.66146 6.11979 4.88021 6.15625 5.28125V14.5781L9.62891 10.9688C9.92057 10.6953 10.2305 10.6862 10.5586 10.9414C10.8138 11.2331 10.8138 11.543 10.5586 11.8711L5.96484 16.6836C5.83724 16.8112 5.68229 16.875 5.5 16.875C5.31771 16.875 5.16276 16.8112 5.03516 16.6836Z" fill="black" fill-opacity="0.72"/>
</g>
<defs>
<clipPath id="clip0_1731_2099">
<rect width="11" height="22" fill="white"/>
</clipPath>
</defs>
</svg>
