<svg width="24" height="36" viewBox="0 0 24 36" fill="none" xmlns="http://www.w3.org/2000/svg">
<g id="label-paired / xl / chart-candlestick-xl / regular" clip-path="url(#clip0_1731_6288)">
<path id="icon" d="M1.5 8.25V24.75C1.53125 25.375 1.75 25.9062 2.15625 26.3438C2.59375 26.75 3.125 26.9688 3.75 27H23.25C23.7188 27.0312 23.9688 27.2812 24 27.75C23.9688 28.2188 23.7188 28.4688 23.25 28.5H3.75C2.6875 28.4688 1.79688 28.1094 1.07812 27.4219C0.390625 26.7031 0.03125 25.8125 0 24.75V8.25C0.03125 7.78125 0.28125 7.53125 0.75 7.5C1.21875 7.53125 1.46875 7.78125 1.5 8.25ZM15 8.25V10.5C15 10.5312 15 10.5469 15 10.5469C15.4375 10.6406 15.7969 10.8594 16.0781 11.2031C16.3594 11.5156 16.5 11.9062 16.5 12.375V16.125C16.4375 17.0938 15.9375 17.7031 15 17.9531C15 17.9531 15 17.9688 15 18V20.25C14.9688 20.7188 14.7188 20.9688 14.25 21C13.7812 20.9688 13.5312 20.7188 13.5 20.25V18C13.5 17.9688 13.5 17.9531 13.5 17.9531C13.0625 17.8594 12.7031 17.6406 12.4219 17.2969C12.1406 16.9844 12 16.5938 12 16.125V12.375C12.0625 11.4062 12.5625 10.7969 13.5 10.5469C13.5 10.5469 13.5 10.5312 13.5 10.5V8.25C13.5312 7.78125 13.7812 7.53125 14.25 7.5C14.7188 7.53125 14.9688 7.78125 15 8.25ZM8.25 9C8.71875 9.03125 8.96875 9.28125 9 9.75V12C9 12.0312 9 12.0469 9 12.0469C9.4375 12.1406 9.79688 12.3594 10.0781 12.7031C10.3594 13.0156 10.5 13.4062 10.5 13.875V19.125C10.4375 20.0938 9.9375 20.7031 9 20.9531C9 20.9531 9 20.9688 9 21V23.25C8.96875 23.7188 8.71875 23.9688 8.25 24C7.78125 23.9688 7.53125 23.7188 7.5 23.25V21C7.5 20.9688 7.5 20.9531 7.5 20.9531C7.0625 20.8594 6.70312 20.6406 6.42188 20.2969C6.14062 19.9844 6 19.5938 6 19.125V13.875C6.0625 12.9062 6.5625 12.2969 7.5 12.0469C7.5 12.0469 7.5 12.0312 7.5 12V9.75C7.53125 9.28125 7.78125 9.03125 8.25 9ZM15 12.375C14.9688 12.1562 14.8438 12.0312 14.625 12H13.875C13.6562 12.0312 13.5312 12.1562 13.5 12.375V16.125C13.5312 16.3438 13.6562 16.4688 13.875 16.5H14.625C14.8438 16.4688 14.9688 16.3438 15 16.125V12.375ZM19.875 16.5C19.6562 16.5312 19.5312 16.6562 19.5 16.875V19.125C19.5312 19.3438 19.6562 19.4688 19.875 19.5H20.625C20.8438 19.4688 20.9688 19.3438 21 19.125V16.875C20.9688 16.6562 20.8438 16.5312 20.625 16.5H19.875ZM19.5 15V12.75C19.5312 12.2812 19.7812 12.0312 20.25 12C20.7188 12.0312 20.9688 12.2812 21 12.75V15C21 15.0312 21 15.0469 21 15.0469C21.4375 15.1406 21.7969 15.3594 22.0781 15.7031C22.3594 16.0156 22.5 16.4062 22.5 16.875V19.125C22.4375 20.0938 21.9375 20.7031 21 20.9531C21 20.9531 21 20.9688 21 21V23.25C20.9688 23.7188 20.7188 23.9688 20.25 24C19.7812 23.9688 19.5312 23.7188 19.5 23.25V21C19.5 20.9688 19.5 20.9531 19.5 20.9531C19.0625 20.8594 18.7031 20.6406 18.4219 20.2969C18.1406 19.9844 18 19.5938 18 19.125V16.875C18.0625 15.9062 18.5625 15.2969 19.5 15.0469C19.5 15.0469 19.5 15.0312 19.5 15ZM8.625 13.5H7.875C7.65625 13.5312 7.53125 13.6562 7.5 13.875V19.125C7.53125 19.3438 7.65625 19.4688 7.875 19.5H8.625C8.84375 19.4688 8.96875 19.3438 9 19.125V13.875C8.96875 13.6562 8.84375 13.5312 8.625 13.5Z" fill="black" fill-opacity="0.72"/>
</g>
<defs>
<clipPath id="clip0_1731_6288">
<rect width="24" height="36" fill="white"/>
</clipPath>
</defs>
</svg>
