<svg width="15" height="30" viewBox="0 0 15 30" fill="none" xmlns="http://www.w3.org/2000/svg">
<g id="label-paired / lg / file-chart-column-lg / regular" clip-path="url(#clip0_1731_4735)">
<path id="icon" d="M12.5 24.25C12.8646 24.25 13.1641 24.1328 13.3984 23.8984C13.6328 23.6641 13.75 23.3646 13.75 23V13H9.375C8.85417 12.974 8.41146 12.7917 8.04688 12.4531C7.70833 12.0885 7.52604 11.6458 7.5 11.125V6.75H2.5C2.13542 6.75 1.83594 6.86719 1.60156 7.10156C1.36719 7.33594 1.25 7.63542 1.25 8V23C1.25 23.3646 1.36719 23.6641 1.60156 23.8984C1.83594 24.1328 2.13542 24.25 2.5 24.25H12.5ZM9.375 11.75H13.75C13.6979 11.6458 13.6328 11.5547 13.5547 11.4766L9.02344 6.94531C8.94531 6.86719 8.85417 6.8151 8.75 6.78906V11.125C8.77604 11.5156 8.98438 11.724 9.375 11.75ZM2.5 5.5H8.59375C9.11458 5.5 9.55729 5.68229 9.92188 6.04688L14.4531 10.5781C14.8177 10.9427 15 11.3854 15 11.9062V23C14.974 23.7031 14.7266 24.2891 14.2578 24.7578C13.7891 25.2266 13.2031 25.474 12.5 25.5H2.5C1.79688 25.474 1.21094 25.2266 0.742188 24.7578C0.273438 24.2891 0.0260417 23.7031 0 23V8C0.0260417 7.29688 0.273438 6.71094 0.742188 6.24219C1.21094 5.77344 1.79688 5.52604 2.5 5.5ZM8.125 14.875V22.375C8.09896 22.7656 7.89062 22.974 7.5 23C7.10938 22.974 6.90104 22.7656 6.875 22.375V14.875C6.90104 14.4844 7.10938 14.276 7.5 14.25C7.89062 14.276 8.09896 14.4844 8.125 14.875ZM11.875 17.375V22.375C11.849 22.7656 11.6406 22.974 11.25 23C10.8594 22.974 10.651 22.7656 10.625 22.375V17.375C10.651 16.9844 10.8594 16.776 11.25 16.75C11.6406 16.776 11.849 16.9844 11.875 17.375ZM4.375 19.875V22.375C4.34896 22.7656 4.14062 22.974 3.75 23C3.35938 22.974 3.15104 22.7656 3.125 22.375V19.875C3.15104 19.4844 3.35938 19.276 3.75 19.25C4.14062 19.276 4.34896 19.4844 4.375 19.875Z" fill="black" fill-opacity="0.72"/>
</g>
<defs>
<clipPath id="clip0_1731_4735">
<rect width="15" height="30" fill="white"/>
</clipPath>
</defs>
</svg>
