<svg width="30" height="36" viewBox="0 0 30 36" fill="none" xmlns="http://www.w3.org/2000/svg">
<g id="label-paired / xl / wifi-xl / regular" clip-path="url(#clip0_1731_6380)">
<path id="icon" d="M1.26562 14.625C0.921875 14.9375 0.578125 14.9375 0.234375 14.625C-0.078125 14.2812 -0.078125 13.9375 0.234375 13.5938C2.14062 11.6875 4.35938 10.2031 6.89062 9.14062C9.39062 8.07812 12.0938 7.53125 15 7.5C17.9062 7.53125 20.6094 8.07812 23.1094 9.14062C25.6406 10.2031 27.8594 11.6875 29.7656 13.5938C30.0781 13.9375 30.0781 14.2812 29.7656 14.625C29.4219 14.9375 29.0781 14.9375 28.7344 14.625C26.9531 12.875 24.8906 11.5 22.5469 10.5C20.2031 9.53125 17.6875 9.03125 15 9C12.3125 9.03125 9.79688 9.53125 7.45312 10.5C5.10938 11.5 3.04688 12.875 1.26562 14.625ZM15 16.5C13.3438 16.5 11.7969 16.8125 10.3594 17.4375C8.89062 18.0625 7.60938 18.9219 6.51562 20.0156C6.17188 20.2969 5.82812 20.2969 5.48438 20.0156C5.17188 19.6406 5.17188 19.2812 5.48438 18.9375C6.70312 17.7188 8.125 16.7656 9.75 16.0781C11.375 15.3594 13.125 15 15 15C16.875 15 18.625 15.3594 20.25 16.0781C21.875 16.7656 23.2969 17.7188 24.5156 18.9375C24.8281 19.2812 24.8281 19.6406 24.5156 20.0156C24.1719 20.2969 23.8281 20.2969 23.4844 20.0156C22.3906 18.9219 21.1094 18.0625 19.6406 17.4375C18.2031 16.8125 16.6562 16.5 15 16.5ZM15 24C14.5625 24 14.2031 24.1406 13.9219 24.4219C13.6406 24.7031 13.5 25.0625 13.5 25.5C13.5 25.9375 13.6406 26.2969 13.9219 26.5781C14.2031 26.8594 14.5625 27 15 27C15.4375 27 15.7969 26.8594 16.0781 26.5781C16.3594 26.2969 16.5 25.9375 16.5 25.5C16.5 25.0625 16.3594 24.7031 16.0781 24.4219C15.7969 24.1406 15.4375 24 15 24ZM15 28.5C13.875 28.4688 13.0156 27.9688 12.4219 27C11.8594 26 11.8594 25 12.4219 24C13.0156 23.0312 13.875 22.5312 15 22.5C16.125 22.5312 16.9844 23.0312 17.5781 24C18.1406 25 18.1406 26 17.5781 27C16.9844 27.9688 16.125 28.4688 15 28.5Z" fill="black" fill-opacity="0.72"/>
</g>
<defs>
<clipPath id="clip0_1731_6380">
<rect width="30" height="36" fill="white"/>
</clipPath>
</defs>
</svg>
