<svg width="9" height="18" viewBox="0 0 9 18" fill="none" xmlns="http://www.w3.org/2000/svg">
<g id="label-paired / caption / file-circle-check-caption / bold" clip-path="url(#clip0_1731_1508)">
<path id="icon" d="M1.5 14.375H7.5C7.73438 14.3594 7.85938 14.2344 7.875 14V7.25H6C5.78125 7.25 5.60156 7.17969 5.46094 7.03906C5.32031 6.89844 5.25 6.71875 5.25 6.5V4.625H1.5C1.26562 4.64062 1.14062 4.76562 1.125 5V14C1.14062 14.2344 1.26562 14.3594 1.5 14.375ZM1.5 3.5H5.39062C5.79688 3.5 6.14844 3.64844 6.44531 3.94531L8.55469 6.05469C8.85156 6.35156 9 6.71094 9 7.13281V14C8.98438 14.4219 8.83594 14.7734 8.55469 15.0547C8.27344 15.3359 7.92188 15.4844 7.5 15.5H1.5C1.07812 15.4844 0.726562 15.3359 0.445312 15.0547C0.164062 14.7734 0.015625 14.4219 0 14V5C0.015625 4.57812 0.164062 4.22656 0.445312 3.94531C0.726562 3.66406 1.07812 3.51563 1.5 3.5ZM6.77344 9.78125L4.26562 12.2656C4.15625 12.375 4.02344 12.4297 3.86719 12.4297C3.71094 12.4297 3.57812 12.375 3.46875 12.2656L2.22656 11.0234C2.00781 10.7578 2.00781 10.4922 2.22656 10.2266C2.49219 10.0078 2.75781 10.0078 3.02344 10.2266L3.86719 11.0703L5.97656 8.98438C6.24219 8.76562 6.50781 8.76562 6.77344 8.98438C6.99219 9.25 6.99219 9.51562 6.77344 9.78125Z" fill="black" fill-opacity="0.72"/>
</g>
<defs>
<clipPath id="clip0_1731_1508">
<rect width="9" height="18" fill="white"/>
</clipPath>
</defs>
</svg>
