<svg width="24" height="36" viewBox="0 0 24 36" fill="none" xmlns="http://www.w3.org/2000/svg">
<g id="label-paired / xl / image-xl / bold" clip-path="url(#clip0_1731_6803)">
<path id="icon" d="M21 9.75H3C2.53125 9.78125 2.28125 10.0312 2.25 10.5V25.5L2.48438 25.2188L6.23438 19.9688C6.45312 19.6562 6.75 19.5 7.125 19.5C7.5 19.5 7.8125 19.6562 8.0625 19.9688L9.46875 21.9844L13.3594 16.9219C13.5781 16.6406 13.875 16.5 14.25 16.5C14.625 16.5 14.9219 16.6406 15.1406 16.9219L21.5156 25.1719L21.75 25.5V10.5C21.7188 10.0312 21.4688 9.78125 21 9.75ZM3 7.5H21C21.8438 7.53125 22.5469 7.82812 23.1094 8.39062C23.6719 8.95312 23.9688 9.65625 24 10.5V25.5C23.9688 26.3438 23.6719 27.0469 23.1094 27.6094C22.5469 28.1719 21.8438 28.4688 21 28.5H3C2.15625 28.4688 1.45312 28.1719 0.890625 27.6094C0.328125 27.0469 0.03125 26.3438 0 25.5V10.5C0.03125 9.65625 0.328125 8.95312 0.890625 8.39062C1.45312 7.82812 2.15625 7.53125 3 7.5ZM6.75 16.5C5.90625 16.4688 5.25 16.0938 4.78125 15.375C4.40625 14.625 4.40625 13.875 4.78125 13.125C5.25 12.4062 5.90625 12.0312 6.75 12C7.59375 12.0312 8.25 12.4062 8.71875 13.125C9.09375 13.875 9.09375 14.625 8.71875 15.375C8.25 16.0938 7.59375 16.4688 6.75 16.5Z" fill="black" fill-opacity="0.72"/>
</g>
<defs>
<clipPath id="clip0_1731_6803">
<rect width="24" height="36" fill="white"/>
</clipPath>
</defs>
</svg>
