<svg width="24" height="36" viewBox="0 0 24 36" fill="none" xmlns="http://www.w3.org/2000/svg">
<g id="label-paired / xl / app-store-xl" clip-path="url(#clip0_1731_14127)">
<path id="icon" d="M12 11.6719L11.5781 10.9219C11.2344 10.4531 10.7969 10.3438 10.2656 10.5938C9.79688 10.9375 9.6875 11.375 9.9375 11.9062L10.875 13.5938L7.78125 18.9844H5.34375C4.75 19.0469 4.42188 19.375 4.35938 19.9688C4.42188 20.5312 4.75 20.8438 5.34375 20.9062H14.0156C14.2344 20.4688 14.2344 20.0469 14.0156 19.6406C13.7969 19.2344 13.4375 19.0156 12.9375 18.9844H9.98438L14.0625 11.9062C14.3125 11.375 14.2031 10.9375 13.7344 10.5938C13.2031 10.3438 12.7656 10.4531 12.4219 10.9219L12 11.6719ZM8.29688 21.8906C7.79688 21.2969 7.17188 21.1094 6.42188 21.3281L5.71875 22.5469C5.46875 23.0781 5.59375 23.5 6.09375 23.8125C6.625 24.0625 7.0625 23.9531 7.40625 23.4844L8.29688 21.8906ZM16.2188 18.9844C16.125 18.8281 16.0469 18.6875 15.9844 18.5625C14.8594 16.5938 14 15.1094 13.4062 14.1094C13.0938 14.3594 12.8594 14.7812 12.7031 15.375C12.5781 16 12.7031 16.6562 13.0781 17.3438C13.4531 18 13.9062 18.7969 14.4375 19.7344C15.0625 20.7969 15.7812 22.0469 16.5938 23.4844C16.9375 23.9531 17.375 24.0625 17.9062 23.8125C18.375 23.5 18.5 23.0625 18.2812 22.5L17.3438 20.9062H18.7031C19.2969 20.8438 19.625 20.5312 19.6875 19.9688C19.625 19.375 19.2969 19.0469 18.7031 18.9844H16.2188ZM12 6.375C14.1562 6.40625 16.1094 6.9375 17.8594 7.96875C19.6094 9 21 10.3906 22.0312 12.1406C23.0625 13.8906 23.5938 15.8438 23.625 18C23.5938 20.1562 23.0625 22.1094 22.0312 23.8594C21 25.6094 19.6094 27 17.8594 28.0312C16.1094 29.0625 14.1562 29.5938 12 29.625C9.84375 29.5938 7.89062 29.0625 6.14062 28.0312C4.39062 27 3 25.6094 1.96875 23.8594C0.9375 22.1094 0.40625 20.1562 0.375 18C0.40625 15.8438 0.9375 13.8906 1.96875 12.1406C3 10.3906 4.39062 9 6.14062 7.96875C7.89062 6.9375 9.84375 6.40625 12 6.375ZM22.125 18C22.0625 15.125 21.0781 12.7344 19.1719 10.8281C17.2344 8.92188 14.8438 7.9375 12 7.875C9.125 7.9375 6.73438 8.92188 4.82812 10.8281C2.92188 12.7656 1.9375 15.1562 1.875 18C1.9375 20.875 2.92188 23.2656 4.82812 25.1719C6.76562 27.0781 9.15625 28.0625 12 28.125C14.875 28.0625 17.2656 27.0781 19.1719 25.1719C21.0781 23.2344 22.0625 20.8438 22.125 18Z" fill="black" fill-opacity="0.72"/>
</g>
<defs>
<clipPath id="clip0_1731_14127">
<rect width="24" height="36" fill="white"/>
</clipPath>
</defs>
</svg>
