<svg width="14" height="22" viewBox="0 0 14 22" fill="none" xmlns="http://www.w3.org/2000/svg">
<g id="label-paired / sm / cash-register-sm / regular" clip-path="url(#clip0_1731_2980)">
<path id="icon" d="M7.4375 4.625H2.1875C1.91406 4.64323 1.76823 4.78906 1.75 5.0625V5.9375C1.76823 6.21094 1.91406 6.35677 2.1875 6.375H7.4375C7.71094 6.35677 7.85677 6.21094 7.875 5.9375V5.0625C7.85677 4.78906 7.71094 4.64323 7.4375 4.625ZM2.1875 3.75H7.4375C7.80208 3.76823 8.11198 3.89583 8.36719 4.13281C8.60417 4.38802 8.73177 4.69792 8.75 5.0625V5.9375C8.73177 6.30208 8.60417 6.61198 8.36719 6.86719C8.11198 7.10417 7.80208 7.23177 7.4375 7.25H5.25V8.125H11.5938C12.0495 8.125 12.4323 8.27083 12.7422 8.5625C13.0703 8.83594 13.2708 9.19141 13.3438 9.62891L13.9727 14.1406C13.9909 14.2135 14 14.2956 14 14.3867V16C13.9818 16.4922 13.8086 16.9023 13.4805 17.2305C13.1523 17.5586 12.7422 17.7318 12.25 17.75H1.75C1.25781 17.7318 0.847656 17.5586 0.519531 17.2305C0.191406 16.9023 0.0182292 16.4922 0 16V14.3867C0 14.332 0 14.2865 0 14.25C0 14.2135 0.00911458 14.1771 0.0273438 14.1406L0.65625 9.62891C0.729167 9.19141 0.929688 8.83594 1.25781 8.5625C1.56771 8.27083 1.95052 8.125 2.40625 8.125H4.375V7.25H2.1875C1.82292 7.23177 1.51302 7.10417 1.25781 6.86719C1.02083 6.61198 0.893229 6.30208 0.875 5.9375V5.0625C0.893229 4.69792 1.02083 4.38802 1.25781 4.13281C1.51302 3.89583 1.82292 3.76823 2.1875 3.75ZM0.875 16C0.875 16.2552 0.957031 16.4648 1.12109 16.6289C1.28516 16.793 1.49479 16.875 1.75 16.875H12.25C12.5052 16.875 12.7148 16.793 12.8789 16.6289C13.043 16.4648 13.125 16.2552 13.125 16V15.125H0.875V16ZM12.4688 9.76562C12.3776 9.29167 12.0951 9.03646 11.6211 9H2.40625C1.91406 9.03646 1.6224 9.29167 1.53125 9.76562L0.875 14.25H13.125L12.4688 9.76562ZM3.0625 10.0938C3.46354 10.1302 3.68229 10.349 3.71875 10.75C3.68229 11.151 3.46354 11.3698 3.0625 11.4062C2.66146 11.3698 2.44271 11.151 2.40625 10.75C2.44271 10.349 2.66146 10.1302 3.0625 10.0938ZM5.03125 10.75C5.06771 10.349 5.28646 10.1302 5.6875 10.0938C6.08854 10.1302 6.30729 10.349 6.34375 10.75C6.30729 11.151 6.08854 11.3698 5.6875 11.4062C5.28646 11.3698 5.06771 11.151 5.03125 10.75ZM4.375 12.2812C4.77604 12.3177 4.99479 12.5365 5.03125 12.9375C4.99479 13.3385 4.77604 13.5573 4.375 13.5938C3.97396 13.5573 3.75521 13.3385 3.71875 12.9375C3.75521 12.5365 3.97396 12.3177 4.375 12.2812ZM7.65625 10.75C7.69271 10.349 7.91146 10.1302 8.3125 10.0938C8.71354 10.1302 8.93229 10.349 8.96875 10.75C8.93229 11.151 8.71354 11.3698 8.3125 11.4062C7.91146 11.3698 7.69271 11.151 7.65625 10.75ZM7 12.2812C7.40104 12.3177 7.61979 12.5365 7.65625 12.9375C7.61979 13.3385 7.40104 13.5573 7 13.5938C6.59896 13.5573 6.38021 13.3385 6.34375 12.9375C6.38021 12.5365 6.59896 12.3177 7 12.2812ZM10.2812 10.75C10.3177 10.349 10.5365 10.1302 10.9375 10.0938C11.3385 10.1302 11.5573 10.349 11.5938 10.75C11.5573 11.151 11.3385 11.3698 10.9375 11.4062C10.5365 11.3698 10.3177 11.151 10.2812 10.75ZM9.625 12.2812C10.026 12.3177 10.2448 12.5365 10.2812 12.9375C10.2448 13.3385 10.026 13.5573 9.625 13.5938C9.22396 13.5573 9.00521 13.3385 8.96875 12.9375C9.00521 12.5365 9.22396 12.3177 9.625 12.2812Z" fill="black" fill-opacity="0.72"/>
</g>
<defs>
<clipPath id="clip0_1731_2980">
<rect width="14" height="22" fill="white"/>
</clipPath>
</defs>
</svg>
