<svg width="18" height="30" viewBox="0 0 18 30" fill="none" xmlns="http://www.w3.org/2000/svg">
<g id="label-paired / lg / flag-checkered-lg / regular" clip-path="url(#clip0_1731_4898)">
<path id="icon" d="M1.5 6.125V7.80469L5.32812 6.75C6.99479 6.33333 8.59635 6.48958 10.1328 7.21875C10.9401 7.63542 11.7995 7.83073 12.7109 7.80469C13.6224 7.77865 14.4818 7.54427 15.2891 7.10156L15.875 6.75C16.3177 6.51562 16.7344 6.51562 17.125 6.75C17.5156 6.95833 17.724 7.3099 17.75 7.80469V18.8594C17.724 19.3802 17.4766 19.7578 17.0078 19.9922L15.7969 20.5C14.8073 20.9167 13.7917 21.112 12.75 21.0859C11.7083 21.0599 10.7057 20.7995 9.74219 20.3047C8.36198 19.6536 6.94271 19.5104 5.48438 19.875L1.5 20.9688V24.875C1.47396 25.2656 1.26562 25.474 0.875 25.5C0.484375 25.474 0.276042 25.2656 0.25 24.875V21.3203V20.5V8.625V8.15625V6.125C0.276042 5.73438 0.484375 5.52604 0.875 5.5C1.26562 5.52604 1.47396 5.73438 1.5 6.125ZM1.5 9.09375V11.5156L5.25 10.7344V8.07812L1.5 9.09375ZM1.5 12.8047V15.5781L5.25 14.7969V11.9844L1.5 12.8047ZM6.5 11.7109V14.4844C7.38542 14.3281 8.27083 14.3802 9.15625 14.6406L11.5 15.3047V12.5703C11.4479 12.5443 11.3828 12.5182 11.3047 12.4922L8.80469 11.7891C8.07552 11.5807 7.35938 11.5547 6.65625 11.7109H6.5ZM12.75 12.7656V15.5781C13.349 15.6302 13.9349 15.5911 14.5078 15.4609L16.5 14.9922V12.2188L14.8203 12.6094C14.1172 12.7656 13.4271 12.8177 12.75 12.7656ZM11.5 16.6328C11.4479 16.6068 11.3828 16.5807 11.3047 16.5547L8.80469 15.8516C8.07552 15.6432 7.35938 15.6172 6.65625 15.7734H6.5V18.4688C7.82812 18.3646 9.09115 18.612 10.2891 19.2109C10.6797 19.3932 11.0833 19.5365 11.5 19.6406V16.6328ZM12.75 19.8359C13.6354 19.862 14.4948 19.6927 15.3281 19.3281L16.5 18.8594V16.2812L14.8203 16.6719C14.1172 16.8281 13.4271 16.8802 12.75 16.8281V19.8359ZM12.75 11.5156C13.349 11.5677 13.9349 11.5286 14.5078 11.3984L16.5 10.9297V7.84375L15.875 8.15625C14.8854 8.72917 13.8438 9.02865 12.75 9.05469V11.5156ZM11.5 8.97656C10.8229 8.8724 10.1719 8.66406 9.54688 8.35156C8.58333 7.88281 7.56771 7.70052 6.5 7.80469V10.4609C7.38542 10.2786 8.27083 10.3177 9.15625 10.5781L11.5 11.2812V8.97656ZM1.5 16.8672V19.6797L5.13281 18.7031C5.1849 18.6771 5.22396 18.6641 5.25 18.6641V16.0469L1.5 16.8672Z" fill="black" fill-opacity="0.72"/>
</g>
<defs>
<clipPath id="clip0_1731_4898">
<rect width="18" height="30" fill="white"/>
</clipPath>
</defs>
</svg>
