<svg width="12" height="18" viewBox="0 0 12 18" fill="none" xmlns="http://www.w3.org/2000/svg">
<g id="label-paired / caption / phone-caption / bold" clip-path="url(#clip0_1731_1310)">
<path id="icon" d="M8.8125 9.94531L11.4375 11.0703C11.6406 11.1641 11.7969 11.3125 11.9062 11.5156C12 11.7031 12.0234 11.9141 11.9766 12.1484L11.4141 14.7734C11.2891 15.2266 10.9844 15.4688 10.5 15.5C10.3594 15.5 10.2188 15.5 10.0781 15.5C9.84375 15.4844 9.60938 15.4688 9.375 15.4531C7.59375 15.2344 6 14.6484 4.59375 13.6953C3.1875 12.7266 2.07812 11.4922 1.26562 9.99219C0.4375 8.49219 0.015625 6.82812 0 5C0.03125 4.51562 0.28125 4.21094 0.75 4.08594L3.375 3.52344C3.59375 3.47656 3.79688 3.50781 3.98438 3.61719C4.1875 3.71094 4.33594 3.85937 4.42969 4.0625L5.55469 6.6875C5.71094 7.10938 5.61719 7.47656 5.27344 7.78906L4.33594 8.5625C4.97656 9.65625 5.84375 10.5234 6.9375 11.1641L7.71094 10.2266C8.02344 9.88281 8.39062 9.78906 8.8125 9.94531ZM10.3594 14.375L10.8516 12.0547L8.50781 11.0469L7.80469 11.8906C7.61719 12.0938 7.39844 12.2188 7.14844 12.2656C6.88281 12.3281 6.625 12.2891 6.375 12.1484C5.10938 11.3984 4.10156 10.3906 3.35156 9.125C3.22656 8.875 3.1875 8.625 3.23438 8.375C3.28125 8.10938 3.40625 7.88281 3.60938 7.69531L4.45312 7.01562L3.44531 4.64844L1.125 5.16406C1.17188 6.86719 1.60938 8.40625 2.4375 9.78125C3.25 11.1562 4.34375 12.25 5.71875 13.0625C7.09375 13.8906 8.64062 14.3281 10.3594 14.375Z" fill="black" fill-opacity="0.72"/>
</g>
<defs>
<clipPath id="clip0_1731_1310">
<rect width="12" height="18" fill="white"/>
</clipPath>
</defs>
</svg>
