<svg width="16" height="24" viewBox="0 0 16 24" fill="none" xmlns="http://www.w3.org/2000/svg">
<g id="label-paired / md / circle-nine-md / bold" clip-path="url(#clip0_1731_3603)">
<path id="icon" d="M14.5 12C14.5 10.8125 14.2083 9.72917 13.625 8.75C13.0625 7.77083 12.2708 6.97917 11.25 6.375C10.2292 5.79167 9.14583 5.5 8 5.5C6.85417 5.5 5.77083 5.79167 4.75 6.375C3.72917 6.97917 2.9375 7.77083 2.375 8.75C1.79167 9.72917 1.5 10.8125 1.5 12C1.5 13.1875 1.79167 14.2708 2.375 15.25C2.9375 16.2292 3.72917 17.0208 4.75 17.625C5.77083 18.2083 6.85417 18.5 8 18.5C9.14583 18.5 10.2292 18.2083 11.25 17.625C12.2708 17.0208 13.0625 16.2292 13.625 15.25C14.2083 14.2708 14.5 13.1875 14.5 12ZM0 12C0.0208333 10.5417 0.375 9.20833 1.0625 8C1.77083 6.79167 2.75 5.8125 4 5.0625C5.27083 4.35417 6.60417 4 8 4C9.39583 4 10.7292 4.35417 12 5.0625C13.25 5.8125 14.2292 6.79167 14.9375 8C15.625 9.20833 15.9792 10.5417 16 12C15.9792 13.4583 15.625 14.7917 14.9375 16C14.2292 17.2083 13.25 18.1875 12 18.9375C10.7292 19.6458 9.39583 20 8 20C6.60417 20 5.27083 19.6458 4 18.9375C2.75 18.1875 1.77083 17.2083 1.0625 16C0.375 14.7917 0.0208333 13.4583 0 12ZM8 9.5C7.4375 9.52083 7 9.77083 6.6875 10.25C6.4375 10.75 6.4375 11.25 6.6875 11.75C7 12.2292 7.4375 12.4792 8 12.5C8.5625 12.4792 9 12.2292 9.3125 11.75C9.5625 11.25 9.5625 10.75 9.3125 10.25C9 9.77083 8.5625 9.52083 8 9.5ZM7.1875 13.875C6.54167 13.6875 6.02083 13.3333 5.625 12.8125C5.22917 12.3125 5.02083 11.7083 5 11C5.02083 10.1458 5.3125 9.4375 5.875 8.875C6.4375 8.3125 7.14583 8.02083 8 8C8.85417 8.02083 9.5625 8.3125 10.125 8.875C10.6875 9.4375 10.9792 10.1458 11 11C10.9792 12.0625 10.5729 12.9375 9.78125 13.625L7.25 15.8125C6.875 16.0833 6.52083 16.0625 6.1875 15.75C5.91667 15.375 5.9375 15.0208 6.25 14.6875L7.1875 13.875Z" fill="black" fill-opacity="0.72"/>
</g>
<defs>
<clipPath id="clip0_1731_3603">
<rect width="16" height="24" fill="white"/>
</clipPath>
</defs>
</svg>
