<svg width="14" height="22" viewBox="0 0 14 22" fill="none" xmlns="http://www.w3.org/2000/svg">
<g id="label-paired / sm / circle-star-sm / fill" clip-path="url(#clip0_1731_2083)">
<path id="icon" d="M0 10.75C0.0182292 9.47396 0.328125 8.30729 0.929688 7.25C1.54948 6.19271 2.40625 5.33594 3.5 4.67969C4.61198 4.0599 5.77865 3.75 7 3.75C8.22135 3.75 9.38802 4.0599 10.5 4.67969C11.5938 5.33594 12.4505 6.19271 13.0703 7.25C13.6719 8.30729 13.9818 9.47396 14 10.75C13.9818 12.026 13.6719 13.1927 13.0703 14.25C12.4505 15.3073 11.5938 16.1641 10.5 16.8203C9.38802 17.4401 8.22135 17.75 7 17.75C5.77865 17.75 4.61198 17.4401 3.5 16.8203C2.40625 16.1641 1.54948 15.3073 0.929688 14.25C0.328125 13.1927 0.0182292 12.026 0 10.75ZM7 6.59375C6.81771 6.59375 6.6901 6.67578 6.61719 6.83984L5.63281 8.83594L3.41797 9.16406C3.23568 9.20052 3.11719 9.30078 3.0625 9.46484C3.00781 9.62891 3.04427 9.77474 3.17188 9.90234L4.75781 11.4883L4.375 13.6758C4.35677 13.8581 4.42057 14.0039 4.56641 14.1133C4.71224 14.2044 4.86719 14.2135 5.03125 14.1406L7 13.1016L8.99609 14.1406C9.14193 14.2135 9.28776 14.2044 9.43359 14.1133C9.57943 14.0039 9.64323 13.8581 9.625 13.6758L9.24219 11.4883L10.8555 9.92969C10.9648 9.78385 11.0013 9.62891 10.9648 9.46484C10.8919 9.30078 10.7734 9.20052 10.6094 9.16406L8.39453 8.83594L7.38281 6.83984C7.3099 6.67578 7.18229 6.59375 7 6.59375Z" fill="black" fill-opacity="0.72"/>
</g>
<defs>
<clipPath id="clip0_1731_2083">
<rect width="14" height="22" fill="white"/>
</clipPath>
</defs>
</svg>
