<svg width="24" height="36" viewBox="0 0 24 36" fill="none" xmlns="http://www.w3.org/2000/svg">
<g id="label-paired / xl / chevrons-right-xl / bold" clip-path="url(#clip0_1731_5928)">
<path id="icon" d="M21.7969 17.2031C22.2344 17.7344 22.2344 18.2656 21.7969 18.7969L12.7969 27.7969C12.2656 28.2344 11.7344 28.2344 11.2031 27.7969C10.7656 27.2656 10.7656 26.7344 11.2031 26.2031L19.4062 18L11.2031 9.79688C10.7656 9.26562 10.7656 8.73438 11.2031 8.20312C11.7344 7.76563 12.2656 7.76563 12.7969 8.20312L21.7969 17.2031ZM3.79688 8.20312L12.7969 17.2031C13.2344 17.7344 13.2344 18.2656 12.7969 18.7969L3.79688 27.7969C3.26562 28.2344 2.73438 28.2344 2.20312 27.7969C1.76562 27.2656 1.76562 26.7344 2.20312 26.2031L10.4062 18L2.20312 9.79688C1.76562 9.26562 1.76562 8.73438 2.20312 8.20312C2.73438 7.76563 3.26562 7.76563 3.79688 8.20312Z" fill="black" fill-opacity="0.72"/>
</g>
<defs>
<clipPath id="clip0_1731_5928">
<rect width="24" height="36" fill="white"/>
</clipPath>
</defs>
</svg>
