<svg width="14" height="22" viewBox="0 0 14 22" fill="none" xmlns="http://www.w3.org/2000/svg">
<g id="label-paired / sm / backward-sm / fill" clip-path="url(#clip0_1731_2805)">
<path id="icon" d="M12.5781 15.8086L7.875 11.8984V10.75V9.60156L12.5781 5.69141C12.8516 5.47266 13.1615 5.4362 13.5078 5.58203C13.8177 5.74609 13.9818 6.01042 14 6.375V15.125C13.9818 15.4896 13.8177 15.7539 13.5078 15.918C13.1615 16.0638 12.8516 16.0273 12.5781 15.8086ZM7 13.375V15.125C6.98177 15.4896 6.81771 15.7539 6.50781 15.918C6.16146 16.0638 5.85156 16.0273 5.57812 15.8086L0.328125 11.4336C0.109375 11.2513 0 11.0234 0 10.75C0 10.4766 0.109375 10.2487 0.328125 10.0664L5.57812 5.69141C5.85156 5.47266 6.16146 5.4362 6.50781 5.58203C6.81771 5.74609 6.98177 6.01042 7 6.375V7.25V10.75V13.375Z" fill="black" fill-opacity="0.72"/>
</g>
<defs>
<clipPath id="clip0_1731_2805">
<rect width="14" height="22" fill="white"/>
</clipPath>
</defs>
</svg>
