<svg width="14" height="22" viewBox="0 0 14 22" fill="none" xmlns="http://www.w3.org/2000/svg">
<g id="label-paired / sm / chevrons-left-sm / regular" clip-path="url(#clip0_1731_2162)">
<path id="icon" d="M1.44922 10.4492L6.69922 5.19922C6.89974 5.01693 7.10026 5.01693 7.30078 5.19922C7.48307 5.39974 7.48307 5.60026 7.30078 5.80078L2.37891 10.75L7.30078 15.6992C7.48307 15.8997 7.48307 16.1003 7.30078 16.3008C7.10026 16.4831 6.89974 16.4831 6.69922 16.3008L1.44922 11.0508C1.26693 10.8503 1.26693 10.6497 1.44922 10.4492ZM11.9492 5.19922C12.1497 5.01693 12.3503 5.01693 12.5508 5.19922C12.7331 5.39974 12.7331 5.60026 12.5508 5.80078L7.62891 10.75L12.5508 15.6992C12.7331 15.8997 12.7331 16.1003 12.5508 16.3008C12.3503 16.4831 12.1497 16.4831 11.9492 16.3008L6.69922 11.0508C6.51693 10.8503 6.51693 10.6497 6.69922 10.4492L11.9492 5.19922Z" fill="black" fill-opacity="0.72"/>
</g>
<defs>
<clipPath id="clip0_1731_2162">
<rect width="14" height="22" fill="white"/>
</clipPath>
</defs>
</svg>
