<svg width="13" height="22" viewBox="0 0 13 22" fill="none" xmlns="http://www.w3.org/2000/svg">
<g id="label-paired / sm / arrow-right-arrow-left-sm / regular" clip-path="url(#clip0_1731_2247)">
<path id="icon" d="M12.4883 7.55078L9.86328 10.1758C9.66276 10.3581 9.46224 10.3581 9.26172 10.1758C9.07943 9.97526 9.07943 9.77474 9.26172 9.57422L11.1211 7.6875H0.8125C0.539062 7.66927 0.393229 7.52344 0.375 7.25C0.393229 6.97656 0.539062 6.83073 0.8125 6.8125H11.1211L9.26172 4.92578C9.07943 4.72526 9.07943 4.52474 9.26172 4.32422C9.46224 4.14193 9.66276 4.14193 9.86328 4.32422L12.4883 6.94922C12.6706 7.14974 12.6706 7.35026 12.4883 7.55078ZM3.13672 17.1758L0.511719 14.5508C0.329427 14.3503 0.329427 14.1497 0.511719 13.9492L3.13672 11.3242C3.33724 11.1419 3.53776 11.1419 3.73828 11.3242C3.92057 11.5247 3.92057 11.7253 3.73828 11.9258L1.87891 13.8125H12.1875C12.4609 13.8307 12.6068 13.9766 12.625 14.25C12.6068 14.5234 12.4609 14.6693 12.1875 14.6875H1.87891L3.73828 16.5742C3.92057 16.7747 3.92057 16.9753 3.73828 17.1758C3.53776 17.3581 3.33724 17.3581 3.13672 17.1758Z" fill="black" fill-opacity="0.72"/>
</g>
<defs>
<clipPath id="clip0_1731_2247">
<rect width="13" height="22" fill="white"/>
</clipPath>
</defs>
</svg>
