<svg width="4" height="24" viewBox="0 0 4 24" fill="none" xmlns="http://www.w3.org/2000/svg">
<g id="label-paired / md / ellipsis-vertical-md / bold" clip-path="url(#clip0_1731_3172)">
<path id="icon" d="M2 15.5C2.5625 15.5208 3 15.7708 3.3125 16.25C3.5625 16.75 3.5625 17.25 3.3125 17.75C3 18.2292 2.5625 18.4792 2 18.5C1.4375 18.4792 1 18.2292 0.6875 17.75C0.4375 17.25 0.4375 16.75 0.6875 16.25C1 15.7708 1.4375 15.5208 2 15.5ZM2 10.5C2.5625 10.5208 3 10.7708 3.3125 11.25C3.5625 11.75 3.5625 12.25 3.3125 12.75C3 13.2292 2.5625 13.4792 2 13.5C1.4375 13.4792 1 13.2292 0.6875 12.75C0.4375 12.25 0.4375 11.75 0.6875 11.25C1 10.7708 1.4375 10.5208 2 10.5ZM3.5 7C3.47917 7.5625 3.22917 8 2.75 8.3125C2.25 8.5625 1.75 8.5625 1.25 8.3125C0.770833 8 0.520833 7.5625 0.5 7C0.520833 6.4375 0.770833 6 1.25 5.6875C1.75 5.4375 2.25 5.4375 2.75 5.6875C3.22917 6 3.47917 6.4375 3.5 7Z" fill="black" fill-opacity="0.72"/>
</g>
<defs>
<clipPath id="clip0_1731_3172">
<rect width="4" height="24" fill="white"/>
</clipPath>
</defs>
</svg>
