<svg width="27" height="36" viewBox="0 0 27 36" fill="none" xmlns="http://www.w3.org/2000/svg">
<g id="label-paired / xl / arrow-down-a-z-xl / bold" clip-path="url(#clip0_1731_6165)">
<path id="icon" d="M2.20312 23.6719C1.76562 23.1406 1.76562 22.6094 2.20312 22.0781C2.73438 21.6406 3.26562 21.6406 3.79688 22.0781L6.375 24.6562V8.625C6.4375 7.9375 6.8125 7.5625 7.5 7.5C8.1875 7.5625 8.5625 7.9375 8.625 8.625V24.6562L11.2031 22.0781C11.7344 21.6406 12.2656 21.6406 12.7969 22.0781C13.2344 22.6094 13.2344 23.1406 12.7969 23.6719L8.29688 28.1719C7.76562 28.6094 7.23438 28.6094 6.70312 28.1719L2.20312 23.6719ZM16.5 19.5H22.5C22.9688 19.5312 23.3125 19.75 23.5312 20.1562C23.6875 20.5938 23.625 21 23.3438 21.375L18.9844 26.25H22.5C23.1875 26.3125 23.5625 26.6875 23.625 27.375C23.5625 28.0625 23.1875 28.4375 22.5 28.5H16.5C16.0312 28.4688 15.6875 28.25 15.4688 27.8438C15.3125 27.4062 15.375 27 15.6562 26.625L20.0156 21.75H16.5C15.8125 21.6875 15.4375 21.3125 15.375 20.625C15.4375 19.9375 15.8125 19.5625 16.5 19.5ZM19.5 7.5C19.9688 7.53125 20.2969 7.73438 20.4844 8.10938L24.2344 15.6094C24.4844 16.2656 24.3281 16.7656 23.7656 17.1094C23.1094 17.3594 22.6094 17.2031 22.2656 16.6406L21.6094 15.375C21.5469 15.375 21.4688 15.375 21.375 15.375H17.3906L16.7344 16.6406C16.3906 17.2031 15.8906 17.375 15.2344 17.1562C14.6719 16.7812 14.5156 16.2656 14.7656 15.6094L18.5156 8.10938C18.7344 7.70312 19.0625 7.5 19.5 7.5ZM18.5156 13.125H20.4844L19.5 11.1562L18.5156 13.125Z" fill="black" fill-opacity="0.72"/>
</g>
<defs>
<clipPath id="clip0_1731_6165">
<rect width="27" height="36" fill="white"/>
</clipPath>
</defs>
</svg>
