<svg width="18" height="22" viewBox="0 0 18 22" fill="none" xmlns="http://www.w3.org/2000/svg">
<g id="label-paired / sm / deal-protection-sm / bold" clip-path="url(#clip0_1731_2019)">
<path id="icon" d="M2.49219 7.08594H5.25391C5.71875 7.08594 6.15625 7.16797 6.56641 7.33203C6.97656 7.46875 7.30469 7.71484 7.57812 8.01562C7.85156 8.31641 8.07031 8.69922 8.23438 9.16406C8.39844 9.62891 8.45312 10.1484 8.45312 10.75C8.45312 11.3789 8.39844 11.8984 8.23438 12.3633C8.07031 12.8281 7.85156 13.2109 7.57812 13.5117C7.30469 13.8125 6.97656 14.0312 6.56641 14.1953C6.18359 14.3594 5.71875 14.4414 5.25391 14.4414H2.49219V7.08594ZM5.25391 13.0195C5.71875 13.0195 6.10156 12.8828 6.375 12.6094C6.64844 12.3359 6.78516 11.9258 6.78516 11.3242V10.2031C6.78516 9.60156 6.64844 9.19141 6.375 8.91797C6.10156 8.64453 5.71875 8.50781 5.25391 8.50781H4.07812V13.0195H5.25391ZM9.79297 14.4141V7.08594H13.2656C13.6211 7.08594 13.9219 7.16797 14.1953 7.27734C14.4688 7.38672 14.6875 7.55078 14.8789 7.74219C15.0703 7.96094 15.2344 8.20703 15.3438 8.50781C15.4258 8.78125 15.4805 9.10938 15.4805 9.4375C15.4805 9.79297 15.4531 10.1211 15.3438 10.3945C15.2344 10.6953 15.0703 10.9414 14.8789 11.1328C14.6875 11.3242 14.4688 11.4883 14.1953 11.625C13.9219 11.7344 13.6211 11.7891 13.2656 11.7891H11.4062V14.4141H9.79297ZM11.4062 10.3945H13.0742C13.3203 10.3945 13.5117 10.3398 13.6484 10.2031C13.7852 10.0938 13.8398 9.90234 13.8398 9.65625V9.21875C13.8398 8.97266 13.7852 8.78125 13.6484 8.67188C13.5117 8.53516 13.3203 8.48047 13.0742 8.48047H11.4062V10.3945Z" fill="black" fill-opacity="0.72"/>
</g>
<defs>
<clipPath id="clip0_1731_2019">
<rect width="18" height="22" fill="white"/>
</clipPath>
</defs>
</svg>
