<svg width="15" height="18" viewBox="0 0 15 18" fill="none" xmlns="http://www.w3.org/2000/svg">
<g id="label-paired / caption / macos-caption" clip-path="url(#clip0_1731_13789)">
<path id="icon" d="M7.05469 10.7891C7.05469 11.7969 6.53906 12.4297 5.69531 12.4297C4.85156 12.4297 4.33594 11.7969 4.33594 10.7891C4.33594 9.78125 4.85156 9.14844 5.69531 9.14844C6.53906 9.14844 7.05469 9.78125 7.05469 10.7891ZM8.22656 7.22656L7.875 7.25C7.66406 7.27344 7.57031 7.34375 7.57031 7.48438C7.57031 7.625 7.6875 7.69531 7.85156 7.69531C8.0625 7.69531 8.22656 7.55469 8.22656 7.36719V7.22656ZM1.5 9.5C1.5 7.36719 2.625 5.39844 4.5 4.32031C6.35156 3.24219 8.625 3.24219 10.5 4.32031C12.3516 5.39844 13.5 7.36719 13.5 9.5C13.5 11.6562 12.3516 13.625 10.5 14.7031C8.625 15.7812 6.35156 15.7812 4.5 14.7031C2.625 13.625 1.5 11.6562 1.5 9.5ZM8.88281 7.15625C8.88281 7.64844 9.14062 7.95312 9.58594 7.95312C9.96094 7.95312 10.1953 7.74219 10.2188 7.4375H9.9375C9.89062 7.60156 9.77344 7.69531 9.58594 7.69531C9.32812 7.69531 9.1875 7.48438 9.1875 7.15625C9.1875 6.82812 9.32812 6.64062 9.58594 6.64062C9.77344 6.64062 9.91406 6.75781 9.9375 6.89844H10.2188C10.1953 6.61719 9.96094 6.38281 9.58594 6.38281C9.14062 6.38281 8.88281 6.6875 8.88281 7.15625ZM4.85156 6.42969V7.90625H5.13281V6.99219C5.13281 6.80469 5.27344 6.64062 5.46094 6.64062C5.625 6.64062 5.74219 6.75781 5.74219 6.92188V7.90625H6.04688V6.96875C6.04688 6.78125 6.16406 6.64062 6.35156 6.64062C6.53906 6.64062 6.63281 6.75781 6.63281 6.94531V7.90625H6.9375V6.875C6.9375 6.57031 6.77344 6.38281 6.46875 6.38281C6.25781 6.38281 6.07031 6.5 6 6.66406H5.97656C5.90625 6.5 5.76562 6.38281 5.55469 6.38281C5.36719 6.38281 5.20312 6.47656 5.15625 6.66406H5.13281V6.40625L4.85156 6.42969ZM7.59375 10.7891C7.59375 9.5 6.86719 8.67969 5.69531 8.67969C4.54688 8.67969 3.82031 9.5 3.82031 10.7891C3.82031 12.1016 4.54688 12.9219 5.69531 12.9219C6.86719 12.9219 7.59375 12.1016 7.59375 10.7891ZM7.78125 7.92969C7.96875 7.92969 8.13281 7.85938 8.22656 7.69531H8.25V7.90625H8.53125V6.89844C8.53125 6.57031 8.32031 6.38281 7.94531 6.38281C7.61719 6.38281 7.35938 6.54688 7.33594 6.80469H7.61719C7.66406 6.6875 7.78125 6.64062 7.94531 6.64062C8.13281 6.64062 8.25 6.73438 8.25 6.89844V7.01562L7.82812 7.03906C7.47656 7.0625 7.28906 7.22656 7.28906 7.50781C7.26562 7.76562 7.47656 7.92969 7.78125 7.92969ZM11.0156 11.6797C11.0156 11.0938 10.6641 10.7656 9.82031 10.5781L9.375 10.4609C8.8125 10.3438 8.57812 10.1328 8.57812 9.80469C8.57812 9.38281 8.97656 9.125 9.49219 9.125C10.0312 9.125 10.3828 9.40625 10.4297 9.85156H10.9453C10.9219 9.17188 10.3125 8.67969 9.51562 8.67969C8.64844 8.67969 8.0625 9.14844 8.0625 9.82812C8.0625 10.4141 8.41406 10.7891 9.23438 10.9531L9.70312 11.0703C10.2656 11.1875 10.5 11.4219 10.5 11.75C10.5 12.1719 10.0781 12.4531 9.53906 12.4531C8.92969 12.4531 8.53125 12.1953 8.46094 11.75H7.96875C8.01562 12.4531 8.60156 12.9219 9.49219 12.9219C10.4062 12.9219 11.0156 12.4297 11.0156 11.6797Z" fill="black" fill-opacity="0.72"/>
</g>
<defs>
<clipPath id="clip0_1731_13789">
<rect width="15" height="18" fill="white"/>
</clipPath>
</defs>
</svg>
