<svg width="14" height="22" viewBox="0 0 14 22" fill="none" xmlns="http://www.w3.org/2000/svg">
<g id="label-paired / sm / circle-euro-sm / bold" clip-path="url(#clip0_1731_2967)">
<path id="icon" d="M12.6875 10.75C12.6875 9.71094 12.4323 8.76302 11.9219 7.90625C11.4297 7.04948 10.737 6.35677 9.84375 5.82812C8.95052 5.31771 8.0026 5.0625 7 5.0625C5.9974 5.0625 5.04948 5.31771 4.15625 5.82812C3.26302 6.35677 2.57031 7.04948 2.07812 7.90625C1.56771 8.76302 1.3125 9.71094 1.3125 10.75C1.3125 11.7891 1.56771 12.737 2.07812 13.5938C2.57031 14.4505 3.26302 15.1432 4.15625 15.6719C5.04948 16.1823 5.9974 16.4375 7 16.4375C8.0026 16.4375 8.95052 16.1823 9.84375 15.6719C10.737 15.1432 11.4297 14.4505 11.9219 13.5938C12.4323 12.737 12.6875 11.7891 12.6875 10.75ZM0 10.75C0.0182292 9.47396 0.328125 8.30729 0.929688 7.25C1.54948 6.19271 2.40625 5.33594 3.5 4.67969C4.61198 4.0599 5.77865 3.75 7 3.75C8.22135 3.75 9.38802 4.0599 10.5 4.67969C11.5938 5.33594 12.4505 6.19271 13.0703 7.25C13.6719 8.30729 13.9818 9.47396 14 10.75C13.9818 12.026 13.6719 13.1927 13.0703 14.25C12.4505 15.3073 11.5938 16.1641 10.5 16.8203C9.38802 17.4401 8.22135 17.75 7 17.75C5.77865 17.75 4.61198 17.4401 3.5 16.8203C2.40625 16.1641 1.54948 15.3073 0.929688 14.25C0.328125 13.1927 0.0182292 12.026 0 10.75ZM3.5 11.1875H3.9375C3.91927 11.0417 3.91016 10.9049 3.91016 10.7773C3.91016 10.6133 3.91927 10.4583 3.9375 10.3125H3.5C3.22656 10.2943 3.08073 10.1484 3.0625 9.875C3.08073 9.60156 3.22656 9.45573 3.5 9.4375H4.18359C4.45703 8.78125 4.8763 8.2526 5.44141 7.85156C6.02474 7.46875 6.6901 7.26823 7.4375 7.25H8.55859C8.95964 7.28646 9.17839 7.50521 9.21484 7.90625C9.17839 8.30729 8.95964 8.52604 8.55859 8.5625H7.4375C6.6901 8.58073 6.10677 8.8724 5.6875 9.4375H7.875C8.14844 9.45573 8.29427 9.60156 8.3125 9.875C8.29427 10.1484 8.14844 10.2943 7.875 10.3125H5.27734C5.24089 10.4583 5.22266 10.6133 5.22266 10.7773C5.22266 10.9232 5.24089 11.0599 5.27734 11.1875H7.875C8.14844 11.2057 8.29427 11.3516 8.3125 11.625C8.29427 11.8984 8.14844 12.0443 7.875 12.0625H5.63281C6.07031 12.6458 6.67188 12.9557 7.4375 12.9922H8.55859C8.95964 13.0286 9.17839 13.2474 9.21484 13.6484C9.17839 14.0312 8.95964 14.25 8.55859 14.3047H7.4375C6.67188 14.2865 6.00651 14.0768 5.44141 13.6758C4.85807 13.2565 4.42969 12.7188 4.15625 12.0625H3.5C3.22656 12.0443 3.08073 11.8984 3.0625 11.625C3.08073 11.3516 3.22656 11.2057 3.5 11.1875Z" fill="black" fill-opacity="0.72"/>
</g>
<defs>
<clipPath id="clip0_1731_2967">
<rect width="14" height="22" fill="white"/>
</clipPath>
</defs>
</svg>
