<svg width="12" height="18" viewBox="0 0 12 18" fill="none" xmlns="http://www.w3.org/2000/svg">
<g id="label-paired / caption / paste-caption / bold" clip-path="url(#clip0_1731_1443)">
<path id="icon" d="M1.875 5.75H1.5C1.26562 5.76562 1.14062 5.89062 1.125 6.125V12.5C1.14062 12.7344 1.26562 12.8594 1.5 12.875H3.75V14H1.5C1.07812 13.9844 0.726562 13.8359 0.445312 13.5547C0.164062 13.2734 0.015625 12.9219 0 12.5V6.125C0.015625 5.70312 0.164062 5.35156 0.445312 5.07031C0.726562 4.78906 1.07812 4.64062 1.5 4.625H2.46094C2.50781 4.29688 2.64844 4.03125 2.88281 3.82812C3.11719 3.60938 3.40625 3.5 3.75 3.5C4.09375 3.5 4.38281 3.60938 4.61719 3.82812C4.85156 4.03125 4.99219 4.29688 5.03906 4.625H6C6.35938 4.625 6.67188 4.73438 6.9375 4.95312C7.1875 5.15625 7.35938 5.42188 7.45312 5.75H6C5.57812 5.75 5.19531 5.85156 4.85156 6.05469C4.52344 6.25781 4.25781 6.53125 4.05469 6.875H2.625C2.40625 6.875 2.22656 6.80469 2.08594 6.66406C1.94531 6.52344 1.875 6.34375 1.875 6.125V5.75ZM3.375 4.8125C3.39062 5.04688 3.51562 5.17188 3.75 5.1875C3.98438 5.17188 4.10938 5.04688 4.125 4.8125C4.10938 4.57812 3.98438 4.45312 3.75 4.4375C3.51562 4.45312 3.39062 4.57812 3.375 4.8125ZM6 14.375H10.5C10.7344 14.3594 10.8594 14.2344 10.875 14V9.5H9.75C9.53125 9.5 9.35156 9.42969 9.21094 9.28906C9.07031 9.14844 9 8.96875 9 8.75V7.625H6C5.76562 7.64062 5.64062 7.76562 5.625 8V14C5.64062 14.2344 5.76562 14.3594 6 14.375ZM10.5 15.5H6C5.57812 15.4844 5.22656 15.3359 4.94531 15.0547C4.66406 14.7734 4.51562 14.4219 4.5 14V8C4.51562 7.57812 4.66406 7.22656 4.94531 6.94531C5.22656 6.66406 5.57812 6.51562 6 6.5H9.65625C9.96875 6.5 10.2344 6.60938 10.4531 6.82812L11.6719 8.04688C11.8906 8.26562 12 8.53125 12 8.84375V14C11.9844 14.4219 11.8359 14.7734 11.5547 15.0547C11.2734 15.3359 10.9219 15.4844 10.5 15.5Z" fill="black" fill-opacity="0.72"/>
</g>
<defs>
<clipPath id="clip0_1731_1443">
<rect width="12" height="18" fill="white"/>
</clipPath>
</defs>
</svg>
