<svg width="12" height="18" viewBox="0 0 12 18" fill="none" xmlns="http://www.w3.org/2000/svg">
<g id="label-paired / caption / paste-caption / regular" clip-path="url(#clip0_1731_1441)">
<path id="icon" d="M3.75 4.25C3.45312 4.26562 3.27344 4.41406 3.21094 4.69531C3.14844 4.88281 3.02344 4.98438 2.83594 5H2.625C2.39062 5.01562 2.26562 5.14062 2.25 5.375V5.75H5.25V5.375C5.23438 5.14062 5.10938 5.01562 4.875 5H4.66406C4.47656 4.98438 4.35938 4.88281 4.3125 4.69531C4.23438 4.41406 4.04688 4.26562 3.75 4.25ZM1.5 5C1.28125 5 1.10156 5.07031 0.960938 5.21094C0.820312 5.35156 0.75 5.53125 0.75 5.75V12.5C0.75 12.7188 0.820312 12.8984 0.960938 13.0391C1.10156 13.1797 1.28125 13.25 1.5 13.25H4.5V14H1.5C1.07812 13.9844 0.726562 13.8359 0.445312 13.5547C0.164062 13.2734 0.015625 12.9219 0 12.5V5.75C0.015625 5.32812 0.164062 4.97656 0.445312 4.69531C0.726562 4.41406 1.07812 4.26562 1.5 4.25H2.55469C2.80469 3.78125 3.20312 3.53125 3.75 3.5C4.29688 3.53125 4.69531 3.78125 4.94531 4.25H6C6.42188 4.26562 6.77344 4.41406 7.05469 4.69531C7.33594 4.97656 7.48438 5.32812 7.5 5.75H6.75C6.75 5.53125 6.67969 5.35156 6.53906 5.21094C6.39844 5.07031 6.21875 5 6 5H5.92969C5.97656 5.125 6 5.25 6 5.375V5.75C6 5.96875 5.92969 6.14844 5.78906 6.28906C5.64844 6.42969 5.46875 6.5 5.25 6.5H2.25C2.03125 6.5 1.85156 6.42969 1.71094 6.28906C1.57031 6.14844 1.5 5.96875 1.5 5.75V5.375C1.5 5.25 1.52344 5.125 1.57031 5H1.5ZM6.75 14.75H10.5C10.7188 14.75 10.8984 14.6797 11.0391 14.5391C11.1797 14.3984 11.25 14.2188 11.25 14V9.5H9.9375C9.67188 9.5 9.45312 9.40625 9.28125 9.21875C9.09375 9.04688 9 8.82812 9 8.5625V7.25H6.75C6.53125 7.25 6.35156 7.32031 6.21094 7.46094C6.07031 7.60156 6 7.78125 6 8V14C6 14.2188 6.07031 14.3984 6.21094 14.5391C6.35156 14.6797 6.53125 14.75 6.75 14.75ZM9.75 7.36719V8.5625C9.76562 8.67188 9.82812 8.73438 9.9375 8.75H11.1328L9.75 7.36719ZM10.5 15.5H6.75C6.32812 15.4844 5.97656 15.3359 5.69531 15.0547C5.41406 14.7734 5.26562 14.4219 5.25 14V8C5.26562 7.57812 5.41406 7.22656 5.69531 6.94531C5.97656 6.66406 6.32812 6.51562 6.75 6.5H9.46875C9.78125 6.5 10.0469 6.60938 10.2656 6.82812L11.6719 8.23438C11.8906 8.45312 12 8.71875 12 9.03125V14C11.9844 14.4219 11.8359 14.7734 11.5547 15.0547C11.2734 15.3359 10.9219 15.4844 10.5 15.5Z" fill="black" fill-opacity="0.72"/>
</g>
<defs>
<clipPath id="clip0_1731_1441">
<rect width="12" height="18" fill="white"/>
</clipPath>
</defs>
</svg>
