<svg width="12" height="18" viewBox="0 0 12 18" fill="none" xmlns="http://www.w3.org/2000/svg">
<g id="label-paired / caption / location-crosshairs-caption / regular" clip-path="url(#clip0_1731_1415)">
<path id="icon" d="M6 3.5C6.23438 3.51563 6.35938 3.64062 6.375 3.875V5.02344C7.48438 5.13281 8.42188 5.5625 9.1875 6.3125C9.9375 7.07812 10.3672 8.01562 10.4766 9.125H11.625C11.8594 9.14062 11.9844 9.26562 12 9.5C11.9844 9.73438 11.8594 9.85938 11.625 9.875H10.4766C10.3672 10.9844 9.9375 11.9219 9.1875 12.6875C8.42188 13.4375 7.48438 13.8672 6.375 13.9766V15.125C6.35938 15.3594 6.23438 15.4844 6 15.5C5.76562 15.4844 5.64062 15.3594 5.625 15.125V13.9766C4.51562 13.8672 3.57812 13.4375 2.8125 12.6875C2.0625 11.9219 1.63281 10.9844 1.52344 9.875H0.375C0.140625 9.85938 0.015625 9.73438 0 9.5C0.015625 9.26562 0.140625 9.14062 0.375 9.125H1.52344C1.63281 8.01562 2.0625 7.07812 2.8125 6.3125C3.57812 5.5625 4.51562 5.13281 5.625 5.02344V3.875C5.64062 3.64062 5.76562 3.51563 6 3.5ZM2.25 9.5C2.25 10.1719 2.41406 10.7969 2.74219 11.375C3.08594 11.9531 3.54688 12.4141 4.125 12.7578C4.71875 13.0859 5.34375 13.25 6 13.25C6.65625 13.25 7.28125 13.0859 7.875 12.7578C8.45312 12.4141 8.91406 11.9531 9.25781 11.375C9.58594 10.7969 9.75 10.1719 9.75 9.5C9.75 8.82812 9.58594 8.20312 9.25781 7.625C8.91406 7.04688 8.45312 6.58594 7.875 6.24219C7.28125 5.91406 6.65625 5.75 6 5.75C5.34375 5.75 4.71875 5.91406 4.125 6.24219C3.54688 6.58594 3.08594 7.04688 2.74219 7.625C2.41406 8.20312 2.25 8.82812 2.25 9.5ZM7.5 9.5C7.48438 8.9375 7.23438 8.50781 6.75 8.21094C6.25 7.92969 5.75 7.92969 5.25 8.21094C4.76562 8.50781 4.51562 8.9375 4.5 9.5C4.51562 10.0625 4.76562 10.4922 5.25 10.7891C5.75 11.0703 6.25 11.0703 6.75 10.7891C7.23438 10.4922 7.48438 10.0625 7.5 9.5ZM3.75 9.5C3.75 9.09375 3.85156 8.71875 4.05469 8.375C4.25781 8.03125 4.53125 7.75781 4.875 7.55469C5.23438 7.35156 5.60938 7.25 6 7.25C6.39062 7.25 6.76562 7.35156 7.125 7.55469C7.46875 7.75781 7.74219 8.03125 7.94531 8.375C8.14844 8.71875 8.25 9.09375 8.25 9.5C8.25 9.90625 8.14844 10.2812 7.94531 10.625C7.74219 10.9688 7.46875 11.2422 7.125 11.4453C6.76562 11.6484 6.39062 11.75 6 11.75C5.60938 11.75 5.23438 11.6484 4.875 11.4453C4.53125 11.2422 4.25781 10.9688 4.05469 10.625C3.85156 10.2812 3.75 9.90625 3.75 9.5Z" fill="black" fill-opacity="0.72"/>
</g>
<defs>
<clipPath id="clip0_1731_1415">
<rect width="12" height="18" fill="white"/>
</clipPath>
</defs>
</svg>
