<svg width="24" height="36" viewBox="0 0 24 36" fill="none" xmlns="http://www.w3.org/2000/svg">
<g id="label-paired / xl / shield-check-xl / regular" clip-path="url(#clip0_1731_6627)">
<path id="icon" d="M11.4375 7.73438L3.14062 11.25C2.57812 11.5312 2.28125 11.9688 2.25 12.5625C2.25 14.0625 2.5 15.8125 3 17.8125C3.53125 19.7812 4.45312 21.7031 5.76562 23.5781C7.10938 25.4531 8.98438 27 11.3906 28.2188C11.7969 28.4062 12.2031 28.4062 12.6094 28.2188C15.0156 27.0312 16.875 25.4844 18.1875 23.5781C19.5312 21.7031 20.4688 19.7812 21 17.8125C21.5 15.8125 21.75 14.0625 21.75 12.5625C21.7188 11.9688 21.4219 11.5312 20.8594 11.25L12.6094 7.73438C12.2031 7.57813 11.8125 7.57813 11.4375 7.73438ZM13.1719 6.375L21.4688 9.89062C22 10.1094 22.4219 10.4531 22.7344 10.9219C23.0781 11.3906 23.25 11.9375 23.25 12.5625C23.2812 14.1562 23.0156 16.0312 22.4531 18.1875C21.8906 20.3438 20.875 22.4375 19.4062 24.4688C17.9688 26.5312 15.9062 28.2344 13.2188 29.5781C12.4062 29.9531 11.5938 29.9531 10.7812 29.5781C8.09375 28.2344 6.03125 26.5312 4.59375 24.4688C3.125 22.4375 2.10938 20.3438 1.54688 18.1875C0.984375 16.0312 0.71875 14.1562 0.75 12.5625C0.75 11.9375 0.921875 11.3906 1.26562 10.9219C1.57812 10.4531 2 10.1094 2.53125 9.89062L10.8281 6.375C11.6094 6.0625 12.3906 6.0625 13.1719 6.375ZM12 14.625C11.3125 14.6875 10.9375 15.0625 10.875 15.75C10.9375 16.4375 11.3125 16.8125 12 16.875C12.6875 16.8125 13.0625 16.4375 13.125 15.75C13.0625 15.0625 12.6875 14.6875 12 14.625ZM14.625 15.75C14.625 16.3438 14.4531 16.875 14.1094 17.3438C13.7656 17.7812 13.3125 18.0938 12.75 18.2812V21.75C12.7188 22.2188 12.4688 22.4688 12 22.5C11.5312 22.4688 11.2812 22.2188 11.25 21.75V18.2812C10.6875 18.0938 10.2344 17.7812 9.89062 17.3438C9.54688 16.875 9.375 16.3438 9.375 15.75C9.40625 15 9.65625 14.375 10.125 13.875C10.625 13.4062 11.25 13.1562 12 13.125C12.75 13.1562 13.375 13.4062 13.875 13.875C14.3438 14.375 14.5938 15 14.625 15.75Z" fill="black" fill-opacity="0.72"/>
</g>
<defs>
<clipPath id="clip0_1731_6627">
<rect width="24" height="36" fill="white"/>
</clipPath>
</defs>
</svg>
