<svg width="18" height="22" viewBox="0 0 18 22" fill="none" xmlns="http://www.w3.org/2000/svg">
<g id="label-paired / sm / light-chart-line-up-down-clock-sm / regular" clip-path="url(#clip0_1731_2530)">
<path id="icon" d="M0.25 5.0625C0.25 4.84375 0.441406 4.625 0.6875 4.625C0.90625 4.625 1.125 4.84375 1.125 5.0625C1.125 8.28906 1.125 11.4883 1.125 14.6875C1.125 15.4258 1.69922 16 2.4375 16C4.78906 16 7.14062 16 9.51953 16C9.68359 16.3281 9.875 16.6289 10.0938 16.875C7.52344 16.875 4.98047 16.875 2.4375 16.875C1.20703 16.875 0.25 15.918 0.25 14.6875C0.25 11.4883 0.25 8.28906 0.25 5.0625ZM2.98438 10.8867L5.60938 8.26172C5.69141 8.17969 5.80078 8.125 5.9375 8.125C6.04688 8.125 6.15625 8.17969 6.23828 8.26172C6.86719 8.89062 7.49609 9.51953 8.125 10.1484C9.35547 8.89062 10.6133 7.63281 11.8711 6.375C11.3516 6.375 10.832 6.375 10.3125 6.375C10.0664 6.375 9.875 6.18359 9.875 5.9375C9.875 5.71875 10.0664 5.5 10.3125 5.5C11.1875 5.5 12.0625 5.5 12.9375 5.5C13.1562 5.5 13.375 5.71875 13.375 5.9375C13.375 6.8125 13.375 7.6875 13.375 8.5625C13.375 8.80859 13.1562 9 12.9375 9C12.6914 9 12.5 8.80859 12.5 8.5625C12.5 8.04297 12.5 7.52344 12.5 7.00391C11.1328 8.37109 9.76562 9.71094 8.42578 11.0781C8.26172 11.2422 7.96094 11.2422 7.79688 11.0781C7.16797 10.4492 6.53906 9.82031 5.9375 9.19141C5.14453 9.95703 4.37891 10.75 3.61328 11.5156C3.44922 11.6797 3.14844 11.6797 2.98438 11.5156C2.82031 11.3516 2.82031 11.0508 2.98438 10.8867ZM9.875 13.8125C9.875 11.6523 11.625 9.875 13.8125 9.875C15.9727 9.875 17.75 11.6523 17.75 13.8125C17.75 16 15.9727 17.75 13.8125 17.75C11.625 17.75 9.875 16 9.875 13.8125ZM10.75 13.8125C10.75 15.5078 12.1172 16.875 13.8125 16.875C15.4805 16.875 16.875 15.5078 16.875 13.8125C16.875 12.1445 15.4805 10.75 13.8125 10.75C12.1172 10.75 10.75 12.1445 10.75 13.8125ZM13.375 12.0625C13.375 11.8438 13.5664 11.625 13.8125 11.625C14.0312 11.625 14.25 11.8438 14.25 12.0625C14.25 12.5 14.25 12.9375 14.25 13.375C14.5234 13.375 14.8242 13.375 15.125 13.375C15.3438 13.375 15.5625 13.5938 15.5625 13.8125C15.5625 14.0586 15.3438 14.25 15.125 14.25C14.6875 14.25 14.25 14.25 13.8125 14.25C13.5664 14.25 13.375 14.0586 13.375 13.8125V12.0625Z" fill="black" fill-opacity="0.72"/>
</g>
<defs>
<clipPath id="clip0_1731_2530">
<rect width="18" height="22" fill="white"/>
</clipPath>
</defs>
</svg>
