<svg width="20" height="30" viewBox="0 0 20 30" fill="none" xmlns="http://www.w3.org/2000/svg">
<g id="label-paired / lg / circle-two-lg / regular" clip-path="url(#clip0_1731_4523)">
<path id="icon" d="M10 6.75C8.41146 6.77604 6.95312 7.16667 5.625 7.92188C4.29688 8.70312 3.22917 9.77083 2.42188 11.125C1.64062 12.5052 1.25 13.9635 1.25 15.5C1.25 17.0365 1.64062 18.4948 2.42188 19.875C3.22917 21.2292 4.29688 22.2969 5.625 23.0781C6.95312 23.8333 8.41146 24.224 10 24.25C11.5885 24.224 13.0469 23.8333 14.375 23.0781C15.7031 22.2969 16.7708 21.2292 17.5781 19.875C18.3594 18.4948 18.75 17.0365 18.75 15.5C18.75 13.9635 18.3594 12.5052 17.5781 11.125C16.7708 9.77083 15.7031 8.70312 14.375 7.92188C13.0469 7.16667 11.5885 6.77604 10 6.75ZM10 25.5C8.17708 25.474 6.51042 25.0312 5 24.1719C3.48958 23.2865 2.26562 22.0625 1.32812 20.5C0.442708 18.9115 0 17.2448 0 15.5C0 13.7552 0.442708 12.0885 1.32812 10.5C2.26562 8.9375 3.48958 7.71354 5 6.82812C6.51042 5.96875 8.17708 5.52604 10 5.5C11.8229 5.52604 13.4896 5.96875 15 6.82812C16.5104 7.71354 17.7344 8.9375 18.6719 10.5C19.5573 12.0885 20 13.7552 20 15.5C20 17.2448 19.5573 18.9115 18.6719 20.5C17.7344 22.0625 16.5104 23.2865 15 24.1719C13.4896 25.0312 11.8229 25.474 10 25.5ZM8.47656 12.2969L7.92969 12.8438C7.61719 13.0781 7.31771 13.0651 7.03125 12.8047C6.79688 12.4922 6.8099 12.1927 7.07031 11.9062L7.61719 11.3984C8.26823 10.7995 9.03646 10.5 9.92188 10.5C10.8333 10.5521 11.5885 10.8776 12.1875 11.4766C12.7865 12.1016 13.099 12.8698 13.125 13.7812C13.125 14.6667 12.8125 15.4349 12.1875 16.0859L9.02344 19.25H13.125C13.5156 19.276 13.724 19.4844 13.75 19.875C13.724 20.2656 13.5156 20.474 13.125 20.5H7.5C7.23958 20.474 7.04427 20.3438 6.91406 20.1094C6.83594 19.849 6.88802 19.6276 7.07031 19.4453L11.2891 15.2266C11.6797 14.8099 11.875 14.3281 11.875 13.7812C11.849 13.2083 11.6536 12.7396 11.2891 12.375C10.9245 11.9844 10.4557 11.776 9.88281 11.75C9.33594 11.75 8.86719 11.9323 8.47656 12.2969Z" fill="black" fill-opacity="0.72"/>
</g>
<defs>
<clipPath id="clip0_1731_4523">
<rect width="20" height="30" fill="white"/>
</clipPath>
</defs>
</svg>
