<svg width="20" height="30" viewBox="0 0 20 30" fill="none" xmlns="http://www.w3.org/2000/svg">
<g id="label-paired / lg / search-lg / regular" clip-path="url(#clip0_1731_5349)">
<path id="icon" d="M15 13.625C15 12.375 14.6875 11.2292 14.0625 10.1875C13.4635 9.14583 12.6302 8.3125 11.5625 7.6875C10.4688 7.0625 9.32292 6.75 8.125 6.75C6.92708 6.75 5.78125 7.0625 4.6875 7.6875C3.61979 8.3125 2.78646 9.14583 2.1875 10.1875C1.5625 11.2292 1.25 12.375 1.25 13.625C1.25 14.875 1.5625 16.0208 2.1875 17.0625C2.78646 18.1042 3.61979 18.9375 4.6875 19.5625C5.78125 20.1875 6.92708 20.5 8.125 20.5C9.32292 20.5 10.4688 20.1875 11.5625 19.5625C12.6302 18.9375 13.4635 18.1042 14.0625 17.0625C14.6875 16.0208 15 14.875 15 13.625ZM13.3984 19.7969C11.9401 21.0469 10.1823 21.6979 8.125 21.75C5.83333 21.6979 3.91927 20.9036 2.38281 19.3672C0.846354 17.8307 0.0520833 15.9167 0 13.625C0.0520833 11.3333 0.846354 9.41927 2.38281 7.88281C3.91927 6.34635 5.83333 5.55208 8.125 5.5C10.4167 5.55208 12.3307 6.34635 13.8672 7.88281C15.4036 9.41927 16.1979 11.3333 16.25 13.625C16.1979 15.6823 15.5469 17.4401 14.2969 18.8984L19.8047 24.4453C20.0651 24.7318 20.0651 25.0182 19.8047 25.3047C19.5182 25.5651 19.2318 25.5651 18.9453 25.3047L13.3984 19.7969Z" fill="black" fill-opacity="0.72"/>
</g>
<defs>
<clipPath id="clip0_1731_5349">
<rect width="20" height="30" fill="white"/>
</clipPath>
</defs>
</svg>
