<svg width="18" height="36" viewBox="0 0 18 36" fill="none" xmlns="http://www.w3.org/2000/svg">
<g id="label-paired / xl / microphone-xl / bold" clip-path="url(#clip0_1731_6603)">
<path id="icon" d="M11.25 10.5C11.2188 9.875 11 9.34375 10.5938 8.90625C10.1562 8.5 9.625 8.28125 9 8.25C8.375 8.28125 7.84375 8.5 7.40625 8.90625C7 9.34375 6.78125 9.875 6.75 10.5V18C6.78125 18.625 7 19.1562 7.40625 19.5938C7.84375 20 8.375 20.2188 9 20.25C9.625 20.2188 10.1562 20 10.5938 19.5938C11 19.1562 11.2188 18.625 11.25 18V10.5ZM4.5 10.5C4.53125 9.21875 4.96875 8.15625 5.8125 7.3125C6.65625 6.46875 7.71875 6.03125 9 6C10.2812 6.03125 11.3438 6.46875 12.1875 7.3125C13.0312 8.15625 13.4688 9.21875 13.5 10.5V18C13.4688 19.2812 13.0312 20.3438 12.1875 21.1875C11.3438 22.0312 10.2812 22.4688 9 22.5C7.71875 22.4688 6.65625 22.0312 5.8125 21.1875C4.96875 20.3438 4.53125 19.2812 4.5 18V10.5ZM3 16.125V18C3.03125 19.6875 3.60938 21.1094 4.73438 22.2656C5.89062 23.3906 7.3125 23.9688 9 24C10.6875 23.9688 12.1094 23.3906 13.2656 22.2656C14.3906 21.1094 14.9688 19.6875 15 18V16.125C15.0625 15.4375 15.4375 15.0625 16.125 15C16.8125 15.0625 17.1875 15.4375 17.25 16.125V18C17.2188 20.125 16.5312 21.9375 15.1875 23.4375C13.875 24.9375 12.1875 25.8438 10.125 26.1562V27.75H12.375C13.0625 27.8125 13.4375 28.1875 13.5 28.875C13.4375 29.5625 13.0625 29.9375 12.375 30H9H5.625C4.9375 29.9375 4.5625 29.5625 4.5 28.875C4.5625 28.1875 4.9375 27.8125 5.625 27.75H7.875V26.1562C5.8125 25.8438 4.125 24.9375 2.8125 23.4375C1.46875 21.9375 0.78125 20.125 0.75 18V16.125C0.8125 15.4375 1.1875 15.0625 1.875 15C2.5625 15.0625 2.9375 15.4375 3 16.125Z" fill="black" fill-opacity="0.72"/>
</g>
<defs>
<clipPath id="clip0_1731_6603">
<rect width="18" height="36" fill="white"/>
</clipPath>
</defs>
</svg>
