<svg width="16" height="22" viewBox="0 0 16 22" fill="none" xmlns="http://www.w3.org/2000/svg">
<g id="label-paired / sm / arrow-down-a-z-sm / bold" clip-path="url(#clip0_1731_2391)">
<path id="icon" d="M1.41016 14.0586C1.15495 13.7487 1.15495 13.4388 1.41016 13.1289C1.72005 12.8737 2.02995 12.8737 2.33984 13.1289L3.84375 14.6328V5.28125C3.88021 4.88021 4.09896 4.66146 4.5 4.625C4.90104 4.66146 5.11979 4.88021 5.15625 5.28125V14.6328L6.66016 13.1289C6.97005 12.8737 7.27995 12.8737 7.58984 13.1289C7.84505 13.4388 7.84505 13.7487 7.58984 14.0586L4.96484 16.6836C4.65495 16.9388 4.34505 16.9388 4.03516 16.6836L1.41016 14.0586ZM9.75 11.625H13.25C13.5234 11.6432 13.724 11.7708 13.8516 12.0078C13.9427 12.263 13.9062 12.5 13.7422 12.7188L11.1992 15.5625H13.25C13.651 15.599 13.8698 15.8177 13.9062 16.2188C13.8698 16.6198 13.651 16.8385 13.25 16.875H9.75C9.47656 16.8568 9.27604 16.7292 9.14844 16.4922C9.05729 16.237 9.09375 16 9.25781 15.7812L11.8008 12.9375H9.75C9.34896 12.901 9.13021 12.6823 9.09375 12.2812C9.13021 11.8802 9.34896 11.6615 9.75 11.625ZM11.5 4.625C11.7734 4.64323 11.9648 4.76172 12.0742 4.98047L14.2617 9.35547C14.4076 9.73828 14.3164 10.0299 13.9883 10.2305C13.6055 10.3763 13.3138 10.2852 13.1133 9.95703L12.7305 9.21875C12.694 9.21875 12.6484 9.21875 12.5938 9.21875H10.2695L9.88672 9.95703C9.6862 10.2852 9.39453 10.3854 9.01172 10.2578C8.68359 10.0391 8.59245 9.73828 8.73828 9.35547L10.9258 4.98047C11.0534 4.74349 11.2448 4.625 11.5 4.625ZM10.9258 7.90625H12.0742L11.5 6.75781L10.9258 7.90625Z" fill="black" fill-opacity="0.72"/>
</g>
<defs>
<clipPath id="clip0_1731_2391">
<rect width="16" height="22" fill="white"/>
</clipPath>
</defs>
</svg>
