<svg width="12" height="18" viewBox="0 0 12 18" fill="none" xmlns="http://www.w3.org/2000/svg">
<g id="label-paired / caption / chart-line-up-down-caption / regular" clip-path="url(#clip0_1731_1267)">
<path id="icon" d="M0.75 4.625V12.875C0.765625 13.1875 0.875 13.4531 1.07812 13.6719C1.29688 13.875 1.5625 13.9844 1.875 14H11.625C11.8594 14.0156 11.9844 14.1406 12 14.375C11.9844 14.6094 11.8594 14.7344 11.625 14.75H1.875C1.34375 14.7344 0.898438 14.5547 0.539062 14.2109C0.195312 13.8516 0.015625 13.4062 0 12.875V4.625C0.015625 4.39062 0.140625 4.26562 0.375 4.25C0.609375 4.26562 0.734375 4.39062 0.75 4.625ZM8.625 5.75C8.39062 5.73438 8.26562 5.60938 8.25 5.375C8.26562 5.14062 8.39062 5.01562 8.625 5H10.875C11.1094 5.01562 11.2344 5.14062 11.25 5.375V7.625C11.2344 7.85938 11.1094 7.98438 10.875 8C10.6406 7.98438 10.5156 7.85938 10.5 7.625V6.28906L7.00781 9.75781C6.83594 9.91406 6.66406 9.91406 6.49219 9.75781L4.875 8.16406L2.88281 10.1328C2.71094 10.2891 2.53906 10.2891 2.36719 10.1328C2.21094 9.96094 2.21094 9.78906 2.36719 9.61719L4.61719 7.36719C4.67969 7.28906 4.76562 7.25 4.875 7.25C4.98438 7.25 5.07031 7.28906 5.13281 7.36719L6.75 8.96094L9.96094 5.75H8.625ZM8.625 12.5C8.39062 12.4844 8.26562 12.3594 8.25 12.125C8.26562 11.8906 8.39062 11.7656 8.625 11.75H9.96094L8.36719 10.1328L8.88281 9.61719L10.5 11.2109V9.875C10.5156 9.64062 10.6406 9.51562 10.875 9.5C11.1094 9.51562 11.2344 9.64062 11.25 9.875V12.125C11.2344 12.3594 11.1094 12.4844 10.875 12.5H8.625Z" fill="black" fill-opacity="0.72"/>
</g>
<defs>
<clipPath id="clip0_1731_1267">
<rect width="12" height="18" fill="white"/>
</clipPath>
</defs>
</svg>
