<svg width="12" height="18" viewBox="0 0 12 18" fill="none" xmlns="http://www.w3.org/2000/svg">
<g id="label-paired / caption / search-caption / regular" clip-path="url(#clip0_1731_619)">
<path id="icon" d="M9 8.375C9 7.625 8.8125 6.9375 8.4375 6.3125C8.07812 5.6875 7.57812 5.1875 6.9375 4.8125C6.28125 4.4375 5.59375 4.25 4.875 4.25C4.15625 4.25 3.46875 4.4375 2.8125 4.8125C2.17188 5.1875 1.67188 5.6875 1.3125 6.3125C0.9375 6.9375 0.75 7.625 0.75 8.375C0.75 9.125 0.9375 9.8125 1.3125 10.4375C1.67188 11.0625 2.17188 11.5625 2.8125 11.9375C3.46875 12.3125 4.15625 12.5 4.875 12.5C5.59375 12.5 6.28125 12.3125 6.9375 11.9375C7.57812 11.5625 8.07812 11.0625 8.4375 10.4375C8.8125 9.8125 9 9.125 9 8.375ZM8.03906 12.0781C7.16406 12.8281 6.10938 13.2188 4.875 13.25C3.5 13.2188 2.35156 12.7422 1.42969 11.8203C0.507813 10.8984 0.03125 9.75 0 8.375C0.03125 7 0.507813 5.85156 1.42969 4.92969C2.35156 4.00781 3.5 3.53125 4.875 3.5C6.25 3.53125 7.39844 4.00781 8.32031 4.92969C9.24219 5.85156 9.71875 7 9.75 8.375C9.71875 9.60938 9.32812 10.6641 8.57812 11.5391L11.8828 14.8672C12.0391 15.0391 12.0391 15.2109 11.8828 15.3828C11.7109 15.5391 11.5391 15.5391 11.3672 15.3828L8.03906 12.0781Z" fill="black" fill-opacity="0.72"/>
</g>
<defs>
<clipPath id="clip0_1731_619">
<rect width="12" height="18" fill="white"/>
</clipPath>
</defs>
</svg>
