<svg width="20" height="24" viewBox="0 0 20 24" fill="none" xmlns="http://www.w3.org/2000/svg">
<g id="label-paired / md / computer-md / regular" clip-path="url(#clip0_1731_3910)">
<path id="icon" d="M12 6H2C1.70833 6 1.46875 6.09375 1.28125 6.28125C1.09375 6.46875 1 6.70833 1 7V14C1 14.2917 1.09375 14.5312 1.28125 14.7188C1.46875 14.9062 1.70833 15 2 15H5.40625H5.75H8.25H8.625H12C12.2917 15 12.5312 14.9062 12.7188 14.7188C12.9062 14.5312 13 14.2917 13 14V7C13 6.70833 12.9062 6.46875 12.7188 6.28125C12.5312 6.09375 12.2917 6 12 6ZM2 16C1.4375 15.9792 0.96875 15.7812 0.59375 15.4062C0.21875 15.0312 0.0208333 14.5625 0 14V7C0.0208333 6.4375 0.21875 5.96875 0.59375 5.59375C0.96875 5.21875 1.4375 5.02083 2 5H12C12.5625 5.02083 13.0312 5.21875 13.4062 5.59375C13.7812 5.96875 13.9792 6.4375 14 7V14C13.9792 14.5625 13.7812 15.0312 13.4062 15.4062C13.0312 15.7812 12.5625 15.9792 12 16H8.9375L9.625 18H11.5C11.8125 18.0208 11.9792 18.1875 12 18.5C11.9792 18.8125 11.8125 18.9792 11.5 19H9.9375H9.25H4.75H4.0625H2.5C2.1875 18.9792 2.02083 18.8125 2 18.5C2.02083 18.1875 2.1875 18.0208 2.5 18H4.40625L5.0625 16H2ZM5.4375 18H8.5625L7.875 16H6.125L5.4375 18ZM16.5 6C16.1875 6.02083 16.0208 6.1875 16 6.5V8H19V6.5C18.9792 6.1875 18.8125 6.02083 18.5 6H16.5ZM16 9V10H19V9H16ZM16 17.5C16.0208 17.8125 16.1875 17.9792 16.5 18H18.5C18.8125 17.9792 18.9792 17.8125 19 17.5V11H16V17.5ZM15 6.5C15.0208 6.08333 15.1667 5.72917 15.4375 5.4375C15.7292 5.16667 16.0833 5.02083 16.5 5H18.5C18.9167 5.02083 19.2708 5.16667 19.5625 5.4375C19.8333 5.72917 19.9792 6.08333 20 6.5V17.5C19.9792 17.9167 19.8333 18.2708 19.5625 18.5625C19.2708 18.8333 18.9167 18.9792 18.5 19H16.5C16.0833 18.9792 15.7292 18.8333 15.4375 18.5625C15.1667 18.2708 15.0208 17.9167 15 17.5V6.5ZM17.5 15.25C17.0417 15.2083 16.7917 14.9583 16.75 14.5C16.7917 14.0417 17.0417 13.7917 17.5 13.75C17.9583 13.7917 18.2083 14.0417 18.25 14.5C18.2083 14.9583 17.9583 15.2083 17.5 15.25Z" fill="black" fill-opacity="0.72"/>
</g>
<defs>
<clipPath id="clip0_1731_3910">
<rect width="20" height="24" fill="white"/>
</clipPath>
</defs>
</svg>
