<svg width="30" height="36" viewBox="0 0 30 36" fill="none" xmlns="http://www.w3.org/2000/svg">
<g id="label-paired / xl / take-profit-xl / regular" clip-path="url(#clip0_1731_5806)">
<path id="icon" d="M10.5 13.5469V24.2812H8.4375V13.5469H4.6875V11.7188H14.2031V13.5469H10.5ZM16.2188 24.2812V11.7188H21.6094C22.7812 11.7188 23.6719 12.0938 24.3281 12.75C24.9375 13.4531 25.2656 14.3906 25.2656 15.5156C25.2656 16.6875 24.9375 17.5781 24.3281 18.2812C23.6719 18.9844 22.7812 19.3125 21.6094 19.3125H18.2344V24.2812H16.2188ZM18.2344 17.5312H21.4688C21.9844 17.5312 22.4062 17.3906 22.6875 17.1094C22.9688 16.8281 23.1094 16.4531 23.1094 15.9375V15.0938C23.1094 14.5781 22.9688 14.2031 22.6875 13.9219C22.4062 13.6406 21.9844 13.5 21.4688 13.5H18.2344V17.5312Z" fill="black" fill-opacity="0.72"/>
</g>
<defs>
<clipPath id="clip0_1731_5806">
<rect width="30" height="36" fill="white"/>
</clipPath>
</defs>
</svg>
