<svg width="14" height="22" viewBox="0 0 14 22" fill="none" xmlns="http://www.w3.org/2000/svg">
<g id="label-paired / sm / circle-eight-sm / bold" clip-path="url(#clip0_1731_2340)">
<path id="icon" d="M12.6875 10.75C12.6875 9.71094 12.4323 8.76302 11.9219 7.90625C11.4297 7.04948 10.737 6.35677 9.84375 5.82812C8.95052 5.31771 8.0026 5.0625 7 5.0625C5.9974 5.0625 5.04948 5.31771 4.15625 5.82812C3.26302 6.35677 2.57031 7.04948 2.07812 7.90625C1.56771 8.76302 1.3125 9.71094 1.3125 10.75C1.3125 11.7891 1.56771 12.737 2.07812 13.5938C2.57031 14.4505 3.26302 15.1432 4.15625 15.6719C5.04948 16.1823 5.9974 16.4375 7 16.4375C8.0026 16.4375 8.95052 16.1823 9.84375 15.6719C10.737 15.1432 11.4297 14.4505 11.9219 13.5938C12.4323 12.737 12.6875 11.7891 12.6875 10.75ZM0 10.75C0.0182292 9.47396 0.328125 8.30729 0.929688 7.25C1.54948 6.19271 2.40625 5.33594 3.5 4.67969C4.61198 4.0599 5.77865 3.75 7 3.75C8.22135 3.75 9.38802 4.0599 10.5 4.67969C11.5938 5.33594 12.4505 6.19271 13.0703 7.25C13.6719 8.30729 13.9818 9.47396 14 10.75C13.9818 12.026 13.6719 13.1927 13.0703 14.25C12.4505 15.3073 11.5938 16.1641 10.5 16.8203C9.38802 17.4401 8.22135 17.75 7 17.75C5.77865 17.75 4.61198 17.4401 3.5 16.8203C2.40625 16.1641 1.54948 15.3073 0.929688 14.25C0.328125 13.1927 0.0182292 12.026 0 10.75ZM7.21875 7.25C7.78385 7.26823 8.2487 7.45964 8.61328 7.82422C8.97786 8.1888 9.16927 8.65365 9.1875 9.21875C9.1875 9.65625 9.06901 10.0391 8.83203 10.3672C9.34245 10.7865 9.60677 11.3516 9.625 12.0625C9.60677 12.6823 9.39714 13.2018 8.99609 13.6211C8.57682 14.0221 8.05729 14.2318 7.4375 14.25H6.5625C5.94271 14.2318 5.42318 14.0221 5.00391 13.6211C4.60286 13.2018 4.39323 12.6823 4.375 12.0625C4.39323 11.3516 4.66667 10.7865 5.19531 10.3672C4.9401 10.0391 4.8125 9.65625 4.8125 9.21875C4.83073 8.65365 5.02214 8.1888 5.38672 7.82422C5.7513 7.45964 6.21615 7.26823 6.78125 7.25H7.21875ZM6.78125 9.875H7.21875C7.61979 9.83854 7.83854 9.61979 7.875 9.21875C7.83854 8.81771 7.61979 8.59896 7.21875 8.5625H6.78125C6.38021 8.59896 6.16146 8.81771 6.125 9.21875C6.16146 9.61979 6.38021 9.83854 6.78125 9.875ZM7.21875 11.1875H6.78125H6.5625C6.30729 11.1875 6.09766 11.2695 5.93359 11.4336C5.76953 11.5977 5.6875 11.8073 5.6875 12.0625C5.6875 12.3177 5.76953 12.5273 5.93359 12.6914C6.09766 12.8555 6.30729 12.9375 6.5625 12.9375H7.4375C7.69271 12.9375 7.90234 12.8555 8.06641 12.6914C8.23047 12.5273 8.3125 12.3177 8.3125 12.0625C8.3125 11.8073 8.23047 11.5977 8.06641 11.4336C7.90234 11.2695 7.69271 11.1875 7.4375 11.1875H7.21875Z" fill="black" fill-opacity="0.72"/>
</g>
<defs>
<clipPath id="clip0_1731_2340">
<rect width="14" height="22" fill="white"/>
</clipPath>
</defs>
</svg>
