<svg width="10" height="24" viewBox="0 0 10 24" fill="none" xmlns="http://www.w3.org/2000/svg">
<g id="label-paired / md / eight-md / bold" clip-path="url(#clip0_1731_3548)">
<path id="icon" d="M9.5 8.875C9.45833 10.0833 9.01042 11.0625 8.15625 11.8125C8.71875 12.1667 9.16667 12.625 9.5 13.1875C9.83333 13.7708 10 14.4167 10 15.125C9.97917 16.2292 9.60417 17.1458 8.875 17.875C8.14583 18.6042 7.22917 18.9792 6.125 19H3.875C2.77083 18.9792 1.85417 18.6042 1.125 17.875C0.395833 17.1458 0.0208333 16.2292 0 15.125C0 14.4167 0.166667 13.7708 0.5 13.1875C0.833333 12.625 1.28125 12.1667 1.84375 11.8125C0.989583 11.0625 0.541667 10.0833 0.5 8.875C0.520833 7.77083 0.895833 6.85417 1.625 6.125C2.35417 5.39583 3.27083 5.02083 4.375 5H5.625C6.72917 5.02083 7.64583 5.39583 8.375 6.125C9.10417 6.85417 9.47917 7.77083 9.5 8.875ZM5.625 12.75H4.375H3.875C3.20833 12.7708 2.64583 13 2.1875 13.4375C1.75 13.8958 1.52083 14.4583 1.5 15.125C1.52083 15.7917 1.75 16.3542 2.1875 16.8125C2.64583 17.25 3.20833 17.4792 3.875 17.5H6.125C6.79167 17.4792 7.35417 17.25 7.8125 16.8125C8.25 16.3542 8.47917 15.7917 8.5 15.125C8.47917 14.4583 8.25 13.8958 7.8125 13.4375C7.35417 13 6.79167 12.7708 6.125 12.75H5.625ZM5.625 11.25C6.29167 11.2292 6.85417 11 7.3125 10.5625C7.75 10.1042 7.97917 9.54167 8 8.875C7.97917 8.20833 7.75 7.64583 7.3125 7.1875C6.85417 6.75 6.29167 6.52083 5.625 6.5H4.375C3.70833 6.52083 3.14583 6.75 2.6875 7.1875C2.25 7.64583 2.02083 8.20833 2 8.875C2.02083 9.54167 2.25 10.1042 2.6875 10.5625C3.14583 11 3.70833 11.2292 4.375 11.25H5.625Z" fill="black" fill-opacity="0.72"/>
</g>
<defs>
<clipPath id="clip0_1731_3548">
<rect width="10" height="24" fill="white"/>
</clipPath>
</defs>
</svg>
