<svg width="11" height="18" viewBox="0 0 11 18" fill="none" xmlns="http://www.w3.org/2000/svg">
<g id="label-paired / caption / stopwatch-caption / regular" clip-path="url(#clip0_1731_699)">
<path id="icon" d="M3.25 3.875C3.26562 3.64062 3.39062 3.51563 3.625 3.5H7.375C7.60938 3.51563 7.73438 3.64062 7.75 3.875C7.73438 4.10938 7.60938 4.23438 7.375 4.25H5.875V5.77344C7.0625 5.88281 8.0625 6.32812 8.875 7.10938L9.74219 6.24219C9.91406 6.08594 10.0859 6.08594 10.2578 6.24219C10.4141 6.41406 10.4141 6.58594 10.2578 6.75781L9.36719 7.64844C10.0234 8.49219 10.3594 9.48438 10.375 10.625C10.3438 12 9.86719 13.1484 8.94531 14.0703C8.02344 14.9922 6.875 15.4688 5.5 15.5C4.125 15.4688 2.97656 14.9922 2.05469 14.0703C1.13281 13.1484 0.65625 12 0.625 10.625C0.65625 9.3125 1.09375 8.20312 1.9375 7.29688C2.78125 6.40625 3.84375 5.89844 5.125 5.77344V4.25H3.625C3.39062 4.23438 3.26562 4.10938 3.25 3.875ZM1.375 10.625C1.375 11.375 1.5625 12.0625 1.9375 12.6875C2.29688 13.3125 2.79688 13.8125 3.4375 14.1875C4.09375 14.5625 4.78125 14.75 5.5 14.75C6.21875 14.75 6.90625 14.5625 7.5625 14.1875C8.20312 13.8125 8.70312 13.3125 9.0625 12.6875C9.4375 12.0625 9.625 11.375 9.625 10.625C9.625 9.875 9.4375 9.1875 9.0625 8.5625C8.70312 7.9375 8.20312 7.4375 7.5625 7.0625C6.90625 6.6875 6.21875 6.5 5.5 6.5C4.78125 6.5 4.09375 6.6875 3.4375 7.0625C2.79688 7.4375 2.29688 7.9375 1.9375 8.5625C1.5625 9.1875 1.375 9.875 1.375 10.625ZM5.875 8.375V11C5.85938 11.2344 5.73438 11.3594 5.5 11.375C5.26562 11.3594 5.14062 11.2344 5.125 11V8.375C5.14062 8.14062 5.26562 8.01562 5.5 8C5.73438 8.01562 5.85938 8.14062 5.875 8.375Z" fill="black" fill-opacity="0.72"/>
</g>
<defs>
<clipPath id="clip0_1731_699">
<rect width="11" height="18" fill="white"/>
</clipPath>
</defs>
</svg>
