<svg width="11" height="18" viewBox="0 0 11 18" fill="none" xmlns="http://www.w3.org/2000/svg">
<g id="label-paired / caption / unlock-caption / regular" clip-path="url(#clip0_1731_1580)">
<path id="icon" d="M3.25 6.5V8H8.875C9.40625 8.01562 9.85156 8.19531 10.2109 8.53906C10.5547 8.89844 10.7344 9.34375 10.75 9.875V13.625C10.7344 14.1562 10.5547 14.6016 10.2109 14.9609C9.85156 15.3047 9.40625 15.4844 8.875 15.5H2.125C1.59375 15.4844 1.14844 15.3047 0.789062 14.9609C0.445312 14.6016 0.265625 14.1562 0.25 13.625V9.875C0.265625 9.34375 0.445312 8.89844 0.789062 8.53906C1.14844 8.19531 1.59375 8.01562 2.125 8H2.5V6.5C2.51562 5.65625 2.80469 4.94531 3.36719 4.36719C3.94531 3.80469 4.65625 3.51563 5.5 3.5C6.1875 3.51563 6.78906 3.71875 7.30469 4.10938C7.82031 4.5 8.17969 5.01562 8.38281 5.65625C8.42969 5.875 8.34375 6.02344 8.125 6.10156C7.89062 6.14844 7.73438 6.07031 7.65625 5.86719C7.51562 5.38281 7.25 4.99219 6.85938 4.69531C6.46875 4.41406 6.01562 4.26562 5.5 4.25C4.85938 4.26562 4.32812 4.48438 3.90625 4.90625C3.48438 5.32812 3.26562 5.85938 3.25 6.5ZM1 9.875V13.625C1.01562 13.9375 1.125 14.2031 1.32812 14.4219C1.54688 14.625 1.8125 14.7344 2.125 14.75H8.875C9.1875 14.7344 9.45312 14.625 9.67188 14.4219C9.875 14.2031 9.98438 13.9375 10 13.625V9.875C9.98438 9.5625 9.875 9.29688 9.67188 9.07812C9.45312 8.875 9.1875 8.76562 8.875 8.75H2.125C1.8125 8.76562 1.54688 8.875 1.32812 9.07812C1.125 9.29688 1.01562 9.5625 1 9.875Z" fill="black" fill-opacity="0.72"/>
</g>
<defs>
<clipPath id="clip0_1731_1580">
<rect width="11" height="18" fill="white"/>
</clipPath>
</defs>
</svg>
