<svg width="11" height="18" viewBox="0 0 11 18" fill="none" xmlns="http://www.w3.org/2000/svg">
<g id="label-paired / caption / placeholder-caption / regular" clip-path="url(#clip0_1731_528)">
<path id="icon" d="M2.3125 4.25H2.875C3.10938 4.26562 3.23438 4.39062 3.25 4.625C3.23438 4.85938 3.10938 4.98438 2.875 5H2.3125C1.9375 5.01562 1.625 5.14062 1.375 5.375C1.14062 5.625 1.01562 5.9375 1 6.3125V6.875C0.984375 7.10938 0.859375 7.23438 0.625 7.25C0.390625 7.23438 0.265625 7.10938 0.25 6.875V6.3125C0.265625 5.73438 0.46875 5.25 0.859375 4.85938C1.25 4.46875 1.73438 4.26562 2.3125 4.25ZM0.625 8C0.859375 8.01562 0.984375 8.14062 1 8.375V10.625C0.984375 10.8594 0.859375 10.9844 0.625 11C0.390625 10.9844 0.265625 10.8594 0.25 10.625V8.375C0.265625 8.14062 0.390625 8.01562 0.625 8ZM10.375 8C10.6094 8.01562 10.7344 8.14062 10.75 8.375V10.625C10.7344 10.8594 10.6094 10.9844 10.375 11C10.1406 10.9844 10.0156 10.8594 10 10.625V8.375C10.0156 8.14062 10.1406 8.01562 10.375 8ZM10.375 7.25C10.1406 7.23438 10.0156 7.10938 10 6.875V6.3125C9.98438 5.9375 9.85938 5.625 9.625 5.375C9.375 5.14062 9.0625 5.01562 8.6875 5H8.125C7.89062 4.98438 7.76562 4.85938 7.75 4.625C7.76562 4.39062 7.89062 4.26562 8.125 4.25H8.6875C9.26562 4.26562 9.75 4.46875 10.1406 4.85938C10.5312 5.25 10.7344 5.73438 10.75 6.3125V6.875C10.7344 7.10938 10.6094 7.23438 10.375 7.25ZM10.75 12.125V12.6875C10.7344 13.2656 10.5312 13.75 10.1406 14.1406C9.75 14.5312 9.26562 14.7344 8.6875 14.75H8.125C7.89062 14.7344 7.76562 14.6094 7.75 14.375C7.76562 14.1406 7.89062 14.0156 8.125 14H8.6875C9.0625 13.9844 9.375 13.8594 9.625 13.625C9.85938 13.375 9.98438 13.0625 10 12.6875V12.125C10.0156 11.8906 10.1406 11.7656 10.375 11.75C10.6094 11.7656 10.7344 11.8906 10.75 12.125ZM1 12.125V12.6875C1.01562 13.0625 1.14062 13.375 1.375 13.625C1.625 13.8594 1.9375 13.9844 2.3125 14H2.875C3.10938 14.0156 3.23438 14.1406 3.25 14.375C3.23438 14.6094 3.10938 14.7344 2.875 14.75H2.3125C1.73438 14.7344 1.25 14.5312 0.859375 14.1406C0.46875 13.75 0.265625 13.2656 0.25 12.6875V12.125C0.265625 11.8906 0.390625 11.7656 0.625 11.75C0.859375 11.7656 0.984375 11.8906 1 12.125ZM4.375 14.75C4.14062 14.7344 4.01562 14.6094 4 14.375C4.01562 14.1406 4.14062 14.0156 4.375 14H6.625C6.85938 14.0156 6.98438 14.1406 7 14.375C6.98438 14.6094 6.85938 14.7344 6.625 14.75H4.375ZM4 4.625C4.01562 4.39062 4.14062 4.26562 4.375 4.25H6.625C6.85938 4.26562 6.98438 4.39062 7 4.625C6.98438 4.85938 6.85938 4.98438 6.625 5H4.375C4.14062 4.98438 4.01562 4.85938 4 4.625Z" fill="black" fill-opacity="0.72"/>
</g>
<defs>
<clipPath id="clip0_1731_528">
<rect width="11" height="18" fill="white"/>
</clipPath>
</defs>
</svg>
