<svg width="16" height="24" viewBox="0 0 16 24" fill="none" xmlns="http://www.w3.org/2000/svg">
<g id="label-paired / md / backward-md / bold" clip-path="url(#clip0_1731_4061)">
<path id="icon" d="M9 6.9375V10.0312L14.5312 6.15625C14.6771 6.05208 14.8542 6 15.0625 6C15.3333 6 15.5521 6.09375 15.7188 6.28125C15.9062 6.44792 16 6.66667 16 6.9375V17.0625C16 17.3333 15.9062 17.5521 15.7188 17.7188C15.5521 17.9062 15.3333 18 15.0625 18C14.875 18 14.6979 17.9479 14.5312 17.8438L9 13.9688V17.0625C9 17.3333 8.90625 17.5521 8.71875 17.7188C8.55208 17.9062 8.33333 18 8.0625 18C7.85417 18 7.66667 17.9375 7.5 17.8125L0.3125 12.5938C0.104167 12.4479 0 12.25 0 12C0 11.75 0.104167 11.5521 0.3125 11.4062L7.5 6.1875C7.66667 6.0625 7.85417 6 8.0625 6C8.33333 6 8.55208 6.09375 8.71875 6.28125C8.90625 6.44792 9 6.66667 9 6.9375ZM9 11.875V12.125L14.5 16V8.03125L9 11.875ZM2.03125 12L7.5 15.9688V8.03125L2.03125 12Z" fill="black" fill-opacity="0.72"/>
</g>
<defs>
<clipPath id="clip0_1731_4061">
<rect width="16" height="24" fill="white"/>
</clipPath>
</defs>
</svg>
