<svg width="18" height="30" viewBox="0 0 18 30" fill="none" xmlns="http://www.w3.org/2000/svg">
<g id="label-paired / lg / arrow-right-arrow-left-lg / regular" clip-path="url(#clip0_1731_4462)">
<path id="icon" d="M17.5547 10.9297L13.8047 14.6797C13.5182 14.9401 13.2318 14.9401 12.9453 14.6797C12.6849 14.3932 12.6849 14.1068 12.9453 13.8203L15.6016 11.125H0.875C0.484375 11.099 0.276042 10.8906 0.25 10.5C0.276042 10.1094 0.484375 9.90104 0.875 9.875H15.6016L12.9453 7.17969C12.6849 6.89323 12.6849 6.60677 12.9453 6.32031C13.2318 6.0599 13.5182 6.0599 13.8047 6.32031L17.5547 10.0703C17.8151 10.3568 17.8151 10.6432 17.5547 10.9297ZM4.19531 24.6797L0.445312 20.9297C0.184896 20.6432 0.184896 20.3568 0.445312 20.0703L4.19531 16.3203C4.48177 16.0599 4.76823 16.0599 5.05469 16.3203C5.3151 16.6068 5.3151 16.8932 5.05469 17.1797L2.39844 19.875H17.125C17.5156 19.901 17.724 20.1094 17.75 20.5C17.724 20.8906 17.5156 21.099 17.125 21.125H2.39844L5.05469 23.8203C5.3151 24.1068 5.3151 24.3932 5.05469 24.6797C4.76823 24.9401 4.48177 24.9401 4.19531 24.6797Z" fill="black" fill-opacity="0.72"/>
</g>
<defs>
<clipPath id="clip0_1731_4462">
<rect width="18" height="30" fill="white"/>
</clipPath>
</defs>
</svg>
