<svg width="15" height="36" viewBox="0 0 15 36" fill="none" xmlns="http://www.w3.org/2000/svg">
<g id="label-paired / xl / pause-xl / bold" clip-path="url(#clip0_1731_6563)">
<path id="icon" d="M2.25 11.25V24.75H4.5V11.25H2.25ZM0 11.25C0.03125 10.625 0.25 10.0938 0.65625 9.65625C1.09375 9.25 1.625 9.03125 2.25 9H4.5C5.125 9.03125 5.65625 9.25 6.09375 9.65625C6.5 10.0938 6.71875 10.625 6.75 11.25V24.75C6.71875 25.375 6.5 25.9062 6.09375 26.3438C5.65625 26.75 5.125 26.9688 4.5 27H2.25C1.625 26.9688 1.09375 26.75 0.65625 26.3438C0.25 25.9062 0.03125 25.375 0 24.75V11.25ZM10.5 11.25V24.75H12.75V11.25H10.5ZM8.25 11.25C8.28125 10.625 8.5 10.0938 8.90625 9.65625C9.34375 9.25 9.875 9.03125 10.5 9H12.75C13.375 9.03125 13.9062 9.25 14.3438 9.65625C14.75 10.0938 14.9688 10.625 15 11.25V24.75C14.9688 25.375 14.75 25.9062 14.3438 26.3438C13.9062 26.75 13.375 26.9688 12.75 27H10.5C9.875 26.9688 9.34375 26.75 8.90625 26.3438C8.5 25.9062 8.28125 25.375 8.25 24.75V11.25Z" fill="black" fill-opacity="0.72"/>
</g>
<defs>
<clipPath id="clip0_1731_6563">
<rect width="15" height="36" fill="white"/>
</clipPath>
</defs>
</svg>
