<svg width="18" height="22" viewBox="0 0 18 22" fill="none" xmlns="http://www.w3.org/2000/svg">
<g id="label-paired / sm / chart-trend-down-sm / bold" clip-path="url(#clip0_1885_547)">
<path id="icon" d="M17.1484 17.4766C16.8203 17.6406 16.4375 17.5039 16.2734 17.1758L13.8398 12.2812H9.875C9.60156 12.2812 9.38281 12.1445 9.27344 11.9258L6.07422 5.52734L1.39844 7.85156C1.07031 8.01562 0.6875 7.87891 0.523438 7.55078C0.359375 7.22266 0.496094 6.83984 0.824219 6.67578L6.07422 4.05078C6.40234 3.88672 6.78516 4.02344 6.94922 4.35156L10.2578 10.9688H14.2227C14.4961 10.9688 14.7148 11.1328 14.8242 11.3516L17.4492 16.6016C17.6133 16.9297 17.4766 17.3125 17.1484 17.4766Z" fill="black" fill-opacity="0.72"/>
</g>
<defs>
<clipPath id="clip0_1885_547">
<rect width="18" height="22" fill="white"/>
</clipPath>
</defs>
</svg>
