<svg width="24" height="36" viewBox="0 0 24 36" fill="none" xmlns="http://www.w3.org/2000/svg">
<g id="label-paired / xl / circle-eight-xl / regular" clip-path="url(#clip0_1731_6111)">
<path id="icon" d="M22.5 18C22.4688 16.0938 22 14.3438 21.0938 12.75C20.1562 11.1562 18.875 9.875 17.25 8.90625C15.5938 7.96875 13.8438 7.5 12 7.5C10.1562 7.5 8.40625 7.96875 6.75 8.90625C5.125 9.875 3.84375 11.1562 2.90625 12.75C2 14.3438 1.53125 16.0938 1.5 18C1.53125 19.9062 2 21.6562 2.90625 23.25C3.84375 24.8438 5.125 26.125 6.75 27.0938C8.40625 28.0312 10.1562 28.5 12 28.5C13.8438 28.5 15.5938 28.0312 17.25 27.0938C18.875 26.125 20.1562 24.8438 21.0938 23.25C22 21.6562 22.4688 19.9062 22.5 18ZM0 18C0.03125 15.8125 0.5625 13.8125 1.59375 12C2.65625 10.1875 4.125 8.71875 6 7.59375C7.90625 6.53125 9.90625 6 12 6C14.0938 6 16.0938 6.53125 18 7.59375C19.875 8.71875 21.3438 10.1875 22.4062 12C23.4375 13.8125 23.9688 15.8125 24 18C23.9688 20.1875 23.4375 22.1875 22.4062 24C21.3438 25.8125 19.875 27.2812 18 28.4062C16.0938 29.4688 14.0938 30 12 30C9.90625 30 7.90625 29.4688 6 28.4062C4.125 27.2812 2.65625 25.8125 1.59375 24C0.5625 22.1875 0.03125 20.1875 0 18ZM12.5625 12C13.4688 12.0312 14.2188 12.3438 14.8125 12.9375C15.4062 13.5312 15.7188 14.2812 15.75 15.1875C15.7188 16.1562 15.3594 16.9531 14.6719 17.5781C15.6094 18.2656 16.0938 19.2188 16.125 20.4375C16.0938 21.4375 15.75 22.2812 15.0938 22.9688C14.4062 23.625 13.5625 23.9688 12.5625 24H11.4375C10.4375 23.9688 9.59375 23.625 8.90625 22.9688C8.25 22.2812 7.90625 21.4375 7.875 20.4375C7.90625 19.2188 8.39062 18.2656 9.32812 17.5781C8.64062 16.9531 8.28125 16.1562 8.25 15.1875C8.28125 14.2812 8.59375 13.5312 9.1875 12.9375C9.78125 12.3438 10.5312 12.0312 11.4375 12H12.5625ZM11.4375 16.875H12.5625C13.0312 16.875 13.4219 16.7031 13.7344 16.3594C14.0781 16.0469 14.25 15.6562 14.25 15.1875C14.25 14.7188 14.0781 14.3281 13.7344 14.0156C13.4219 13.6719 13.0312 13.5 12.5625 13.5H11.4375C10.9688 13.5 10.5781 13.6719 10.2656 14.0156C9.92188 14.3281 9.75 14.7188 9.75 15.1875C9.75 15.6562 9.92188 16.0469 10.2656 16.3594C10.5781 16.7031 10.9688 16.875 11.4375 16.875ZM12.5625 18.375H11.4375C10.8438 18.375 10.3594 18.5781 9.98438 18.9844C9.57812 19.3594 9.375 19.8438 9.375 20.4375C9.375 21.0312 9.57812 21.5156 9.98438 21.8906C10.3594 22.2969 10.8438 22.5 11.4375 22.5H12.5625C13.1562 22.5 13.6406 22.2969 14.0156 21.8906C14.4219 21.5156 14.625 21.0312 14.625 20.4375C14.625 19.8438 14.4219 19.3594 14.0156 18.9844C13.6406 18.5781 13.1562 18.375 12.5625 18.375Z" fill="black" fill-opacity="0.72"/>
</g>
<defs>
<clipPath id="clip0_1731_6111">
<rect width="24" height="36" fill="white"/>
</clipPath>
</defs>
</svg>
