<svg width="14" height="22" viewBox="0 0 14 22" fill="none" xmlns="http://www.w3.org/2000/svg">
<g id="label-paired / sm / arrows-rotate-sm / bold" clip-path="url(#clip0_1731_1929)">
<path id="icon" d="M13.5625 9.21875C13.526 9.61979 13.3073 9.83854 12.9062 9.875H9.84375H8.96875C8.56771 9.83854 8.34896 9.61979 8.3125 9.21875C8.34896 8.81771 8.56771 8.59896 8.96875 8.5625H9.84375H11.3203L9.89844 7.14062C9.09635 6.35677 8.13021 5.95573 7 5.9375C5.9974 5.95573 5.10417 6.22917 4.32031 6.75781C3.53646 7.28646 2.95312 7.98828 2.57031 8.86328C2.38802 9.22786 2.10547 9.34635 1.72266 9.21875C1.35807 9.01823 1.23958 8.72656 1.36719 8.34375C1.84115 7.23177 2.57943 6.33854 3.58203 5.66406C4.58464 4.98958 5.72396 4.64323 7 4.625C8.47656 4.64323 9.7526 5.17188 10.8281 6.21094L12.25 7.63281V6.15625V5.28125C12.2865 4.88021 12.5052 4.66146 12.9062 4.625C13.3073 4.66146 13.526 4.88021 13.5625 5.28125V9.21875ZM1.09375 11.625H4.15625C4.55729 11.6615 4.77604 11.8802 4.8125 12.2812C4.77604 12.6823 4.55729 12.901 4.15625 12.9375H2.67969L4.10156 14.3594C4.90365 15.1432 5.86979 15.5443 7 15.5625C8.0026 15.5443 8.89583 15.2708 9.67969 14.7422C10.4635 14.2135 11.0469 13.5117 11.4297 12.6367C11.612 12.2904 11.8945 12.181 12.2773 12.3086C12.6419 12.4909 12.7604 12.7734 12.6328 13.1562C12.1406 14.2682 11.4023 15.1615 10.418 15.8359C9.41536 16.5104 8.27604 16.8568 7 16.875C5.52344 16.8568 4.2474 16.3281 3.17188 15.2891L1.75 13.8672V15.3438C1.71354 15.7448 1.49479 15.9635 1.09375 16C0.692708 15.9635 0.473958 15.7448 0.4375 15.3438V12.2812C0.473958 11.8802 0.692708 11.6615 1.09375 11.625Z" fill="black" fill-opacity="0.72"/>
</g>
<defs>
<clipPath id="clip0_1731_1929">
<rect width="14" height="22" fill="white"/>
</clipPath>
</defs>
</svg>
