<svg width="20" height="30" viewBox="0 0 20 30" fill="none" xmlns="http://www.w3.org/2000/svg">
<g id="label-paired / lg / triangle-exclamation-lg / regular" clip-path="url(#clip0_1731_5094)">
<path id="icon" d="M1.36719 21.9062C1.28906 22.0365 1.25 22.1667 1.25 22.2969C1.30208 22.7396 1.53646 22.974 1.95312 23H18.0469C18.4635 22.974 18.6979 22.7396 18.75 22.2969C18.75 22.1667 18.724 22.0365 18.6719 21.9062L10.8203 8.46875C10.612 8.15625 10.3385 8 10 8C9.66146 8 9.40104 8.15625 9.21875 8.46875L1.36719 21.9062ZM0.273438 21.2812L8.125 7.84375C8.56771 7.14062 9.19271 6.77604 10 6.75C10.8073 6.77604 11.4323 7.14062 11.875 7.84375L19.7266 21.2812C19.9089 21.5938 20 21.9323 20 22.2969C19.974 22.8438 19.7786 23.2995 19.4141 23.6641C19.0495 24.0286 18.5938 24.224 18.0469 24.25H1.95312C1.40625 24.224 0.950521 24.0286 0.585938 23.6641C0.221354 23.2995 0.0260417 22.8438 0 22.2969C0 21.9323 0.0911458 21.5938 0.273438 21.2812ZM10 11.75C10.3906 11.776 10.599 11.9844 10.625 12.375V17.375C10.599 17.7656 10.3906 17.974 10 18C9.60938 17.974 9.40104 17.7656 9.375 17.375V12.375C9.40104 11.9844 9.60938 11.776 10 11.75ZM9.0625 20.5C9.11458 19.9271 9.42708 19.6146 10 19.5625C10.5729 19.6146 10.8854 19.9271 10.9375 20.5C10.8854 21.0729 10.5729 21.3854 10 21.4375C9.42708 21.3854 9.11458 21.0729 9.0625 20.5Z" fill="black" fill-opacity="0.72"/>
</g>
<defs>
<clipPath id="clip0_1731_5094">
<rect width="20" height="30" fill="white"/>
</clipPath>
</defs>
</svg>
