<svg width="15" height="30" viewBox="0 0 15 30" fill="none" xmlns="http://www.w3.org/2000/svg">
<g id="label-paired / lg / moon-lg / bold" clip-path="url(#clip0_1731_5471)">
<path id="icon" d="M5.66406 9.36719C4.51823 9.9401 3.60677 10.7604 2.92969 11.8281C2.2526 12.9219 1.90104 14.1458 1.875 15.5C1.92708 17.4531 2.59115 19.0677 3.86719 20.3438C5.16927 21.6458 6.78385 22.3229 8.71094 22.375C9.23177 22.375 9.73958 22.3229 10.2344 22.2188C8.48958 21.5938 7.08333 20.5391 6.01562 19.0547C4.94792 17.5964 4.40104 15.8906 4.375 13.9375C4.375 12.2448 4.80469 10.7214 5.66406 9.36719ZM8.08594 6.78906C8.16406 6.78906 8.25521 6.77604 8.35938 6.75C8.48958 6.75 8.61979 6.75 8.75 6.75C8.85417 6.75 8.95833 6.75 9.0625 6.75C9.19271 6.75 9.32292 6.76302 9.45312 6.78906C9.76562 6.84115 9.96094 6.9974 10.0391 7.25781C10.0911 7.57031 9.98698 7.80469 9.72656 7.96094C9.59635 8.01302 9.46615 8.09115 9.33594 8.19531C9.17969 8.29948 9.02344 8.41667 8.86719 8.54688C8.84115 8.54688 8.82812 8.54688 8.82812 8.54688C8.80208 8.57292 8.77604 8.59896 8.75 8.625C7.96875 9.27604 7.35677 10.0573 6.91406 10.9688C6.47135 11.8802 6.25 12.8698 6.25 13.9375C6.30208 15.8906 6.96615 17.5052 8.24219 18.7812C9.51823 20.0833 11.1328 20.7604 13.0859 20.8125C13.138 20.8125 13.1901 20.8125 13.2422 20.8125C13.4505 20.8125 13.6458 20.7995 13.8281 20.7734C13.9844 20.7474 14.1276 20.7344 14.2578 20.7344C14.5703 20.6823 14.7917 20.7865 14.9219 21.0469C15.0521 21.3073 15.013 21.5547 14.8047 21.7891C14.7005 21.8672 14.5964 21.9583 14.4922 22.0625C14.3359 22.2188 14.1536 22.362 13.9453 22.4922C13.9193 22.5182 13.8932 22.5443 13.8672 22.5703C13.8411 22.5964 13.8021 22.6224 13.75 22.6484C12.2917 23.6901 10.625 24.224 8.75 24.25C7.10938 24.224 5.63802 23.8203 4.33594 23.0391C3.00781 22.2839 1.96615 21.2422 1.21094 19.9141C0.429688 18.612 0.0260417 17.1406 0 15.5C0.0520833 13.1302 0.833333 11.138 2.34375 9.52344C3.85417 7.90885 5.76823 6.9974 8.08594 6.78906Z" fill="black" fill-opacity="0.72"/>
</g>
<defs>
<clipPath id="clip0_1731_5471">
<rect width="15" height="30" fill="white"/>
</clipPath>
</defs>
</svg>
