<svg width="24" height="36" viewBox="0 0 24 36" fill="none" xmlns="http://www.w3.org/2000/svg">
<g id="label-paired / xl / cash-register-xl / regular" clip-path="url(#clip0_1731_6753)">
<path id="icon" d="M12.75 7.5H3.75C3.28125 7.53125 3.03125 7.78125 3 8.25V9.75C3.03125 10.2188 3.28125 10.4688 3.75 10.5H12.75C13.2188 10.4688 13.4688 10.2188 13.5 9.75V8.25C13.4688 7.78125 13.2188 7.53125 12.75 7.5ZM3.75 6H12.75C13.375 6.03125 13.9062 6.25 14.3438 6.65625C14.75 7.09375 14.9688 7.625 15 8.25V9.75C14.9688 10.375 14.75 10.9062 14.3438 11.3438C13.9062 11.75 13.375 11.9688 12.75 12H9V13.5H19.875C20.6562 13.5 21.3125 13.75 21.8438 14.25C22.4062 14.7188 22.75 15.3281 22.875 16.0781L23.9531 23.8125C23.9844 23.9375 24 24.0781 24 24.2344V27C23.9688 27.8438 23.6719 28.5469 23.1094 29.1094C22.5469 29.6719 21.8438 29.9688 21 30H3C2.15625 29.9688 1.45312 29.6719 0.890625 29.1094C0.328125 28.5469 0.03125 27.8438 0 27V24.2344C0 24.1406 0 24.0625 0 24C0 23.9375 0.015625 23.875 0.046875 23.8125L1.125 16.0781C1.25 15.3281 1.59375 14.7188 2.15625 14.25C2.6875 13.75 3.34375 13.5 4.125 13.5H7.5V12H3.75C3.125 11.9688 2.59375 11.75 2.15625 11.3438C1.75 10.9062 1.53125 10.375 1.5 9.75V8.25C1.53125 7.625 1.75 7.09375 2.15625 6.65625C2.59375 6.25 3.125 6.03125 3.75 6ZM1.5 27C1.5 27.4375 1.64062 27.7969 1.92188 28.0781C2.20312 28.3594 2.5625 28.5 3 28.5H21C21.4375 28.5 21.7969 28.3594 22.0781 28.0781C22.3594 27.7969 22.5 27.4375 22.5 27V25.5H1.5V27ZM21.375 16.3125C21.2188 15.5 20.7344 15.0625 19.9219 15H4.125C3.28125 15.0625 2.78125 15.5 2.625 16.3125L1.5 24H22.5L21.375 16.3125ZM5.25 16.875C5.9375 16.9375 6.3125 17.3125 6.375 18C6.3125 18.6875 5.9375 19.0625 5.25 19.125C4.5625 19.0625 4.1875 18.6875 4.125 18C4.1875 17.3125 4.5625 16.9375 5.25 16.875ZM8.625 18C8.6875 17.3125 9.0625 16.9375 9.75 16.875C10.4375 16.9375 10.8125 17.3125 10.875 18C10.8125 18.6875 10.4375 19.0625 9.75 19.125C9.0625 19.0625 8.6875 18.6875 8.625 18ZM7.5 20.625C8.1875 20.6875 8.5625 21.0625 8.625 21.75C8.5625 22.4375 8.1875 22.8125 7.5 22.875C6.8125 22.8125 6.4375 22.4375 6.375 21.75C6.4375 21.0625 6.8125 20.6875 7.5 20.625ZM13.125 18C13.1875 17.3125 13.5625 16.9375 14.25 16.875C14.9375 16.9375 15.3125 17.3125 15.375 18C15.3125 18.6875 14.9375 19.0625 14.25 19.125C13.5625 19.0625 13.1875 18.6875 13.125 18ZM12 20.625C12.6875 20.6875 13.0625 21.0625 13.125 21.75C13.0625 22.4375 12.6875 22.8125 12 22.875C11.3125 22.8125 10.9375 22.4375 10.875 21.75C10.9375 21.0625 11.3125 20.6875 12 20.625ZM17.625 18C17.6875 17.3125 18.0625 16.9375 18.75 16.875C19.4375 16.9375 19.8125 17.3125 19.875 18C19.8125 18.6875 19.4375 19.0625 18.75 19.125C18.0625 19.0625 17.6875 18.6875 17.625 18ZM16.5 20.625C17.1875 20.6875 17.5625 21.0625 17.625 21.75C17.5625 22.4375 17.1875 22.8125 16.5 22.875C15.8125 22.8125 15.4375 22.4375 15.375 21.75C15.4375 21.0625 15.8125 20.6875 16.5 20.625Z" fill="black" fill-opacity="0.72"/>
</g>
<defs>
<clipPath id="clip0_1731_6753">
<rect width="24" height="36" fill="white"/>
</clipPath>
</defs>
</svg>
