<svg width="15" height="36" viewBox="0 0 15 36" fill="none" xmlns="http://www.w3.org/2000/svg">
<g id="label-paired / xl / nine-xl / bold" clip-path="url(#clip0_1731_6068)">
<path id="icon" d="M2.25 15C2.28125 16.5 2.79688 17.7344 3.79688 18.7031C4.76562 19.7031 6 20.2188 7.5 20.25C9.0625 20.2188 10.3438 19.6562 11.3438 18.5625L11.5781 18.2812C12.3594 17.3125 12.75 16.2188 12.75 15C12.7188 13.5 12.2031 12.2656 11.2031 11.2969C10.2344 10.2969 9 9.78125 7.5 9.75C6 9.78125 4.76562 10.2969 3.79688 11.2969C2.79688 12.2656 2.28125 13.5 2.25 15ZM8.15625 22.4531C7.9375 22.4844 7.71875 22.5 7.5 22.5C5.375 22.4375 3.60938 21.7031 2.20312 20.2969C0.796875 18.8906 0.0625 17.125 0 15C0.0625 12.875 0.796875 11.1094 2.20312 9.70312C3.60938 8.29688 5.375 7.5625 7.5 7.5C9.625 7.5625 11.3906 8.29688 12.7969 9.70312C14.2031 11.1094 14.9375 12.875 15 15C14.9688 17 14.3125 18.6875 13.0312 20.0625L6.51562 28.0781C6.01562 28.5781 5.48438 28.6406 4.92188 28.2656C4.42188 27.7656 4.35938 27.2344 4.73438 26.6719L8.15625 22.4531Z" fill="black" fill-opacity="0.72"/>
</g>
<defs>
<clipPath id="clip0_1731_6068">
<rect width="15" height="36" fill="white"/>
</clipPath>
</defs>
</svg>
