<svg width="12" height="18" viewBox="0 0 12 18" fill="none" xmlns="http://www.w3.org/2000/svg">
<g id="label-paired / caption / gear-caption / regular" clip-path="url(#clip0_1731_589)">
<path id="icon" d="M5.22656 4.39062L4.92188 5.49219C4.82812 5.78906 4.64844 6 4.38281 6.125C4.21094 6.20312 4.04688 6.29688 3.89062 6.40625C3.65625 6.5625 3.39062 6.61719 3.09375 6.57031L1.94531 6.28906C1.91406 6.27344 1.88281 6.27344 1.85156 6.28906C1.72656 6.44531 1.60938 6.61719 1.5 6.80469L1.40625 6.96875C1.3125 7.14062 1.22656 7.32031 1.14844 7.50781C1.14844 7.53906 1.16406 7.57031 1.19531 7.60156L1.99219 8.44531C2.19531 8.66406 2.28906 8.92188 2.27344 9.21875C2.25781 9.3125 2.25 9.40625 2.25 9.5C2.25 9.59375 2.25781 9.69531 2.27344 9.80469C2.28906 10.0859 2.19531 10.3359 1.99219 10.5547L1.19531 11.3984C1.16406 11.4141 1.14062 11.4453 1.125 11.4922C1.20312 11.6797 1.29688 11.8594 1.40625 12.0312L1.5 12.1953C1.60938 12.3828 1.72656 12.5547 1.85156 12.7109C1.88281 12.7266 1.91406 12.7266 1.94531 12.7109L3.07031 12.4297C3.38281 12.3828 3.64844 12.4375 3.86719 12.5938C4.03906 12.7031 4.21094 12.7969 4.38281 12.875C4.63281 13 4.8125 13.2109 4.92188 13.5078L5.22656 14.6094C5.24219 14.6406 5.26562 14.6719 5.29688 14.7031C5.53125 14.7344 5.76562 14.75 6 14.75C6.23438 14.75 6.46875 14.7344 6.70312 14.7031C6.73438 14.6719 6.75781 14.6406 6.77344 14.6094L7.07812 13.5078C7.17188 13.2109 7.35156 13 7.61719 12.875C7.78906 12.7969 7.96094 12.7031 8.13281 12.5938C8.36719 12.4375 8.625 12.3828 8.90625 12.4297L10.0547 12.7109C10.0859 12.7266 10.1172 12.7266 10.1484 12.7109C10.2734 12.5547 10.3906 12.3828 10.5 12.1953L10.5938 12.0312C10.6875 11.8594 10.7734 11.6797 10.8516 11.4922C10.8516 11.4453 10.8359 11.4141 10.8047 11.3984L10.0078 10.5547C9.80469 10.3359 9.71875 10.0859 9.75 9.80469C9.75 9.69531 9.75 9.59375 9.75 9.5C9.75 9.40625 9.75 9.3125 9.75 9.21875C9.71875 8.92188 9.80469 8.66406 10.0078 8.44531L10.8047 7.60156C10.8359 7.58594 10.8594 7.55469 10.875 7.50781C10.7969 7.32031 10.7031 7.14062 10.5938 6.96875L10.5 6.80469C10.3906 6.61719 10.2734 6.44531 10.1484 6.28906C10.1172 6.27344 10.0859 6.27344 10.0547 6.28906L8.92969 6.57031C8.61719 6.61719 8.35156 6.5625 8.13281 6.40625C7.96094 6.29688 7.78906 6.20312 7.61719 6.125C7.36719 6 7.1875 5.79688 7.07812 5.51562L6.77344 4.39062C6.75781 4.35938 6.73438 4.32812 6.70312 4.29688C6.46875 4.26562 6.23438 4.25 6 4.25C5.76562 4.25 5.53125 4.26562 5.29688 4.29688C5.26562 4.32812 5.24219 4.35938 5.22656 4.39062ZM6 3.5C6.3125 3.5 6.60938 3.52344 6.89062 3.57031C6.9375 3.57031 6.97656 3.58594 7.00781 3.61719C7.24219 3.72656 7.39844 3.91406 7.47656 4.17969L7.80469 5.30469C7.82031 5.35156 7.86719 5.39844 7.94531 5.44531C8.14844 5.53906 8.35156 5.65625 8.55469 5.79688C8.61719 5.82812 8.67969 5.84375 8.74219 5.84375L9.86719 5.5625C10.1328 5.5 10.375 5.53906 10.5938 5.67969C10.625 5.69531 10.6562 5.71875 10.6875 5.75C10.8594 5.95312 11.0156 6.17188 11.1562 6.40625L11.25 6.59375C11.375 6.82812 11.4844 7.07031 11.5781 7.32031C11.5938 7.35156 11.6094 7.39062 11.625 7.4375C11.625 7.70312 11.5312 7.9375 11.3438 8.14062L10.5469 8.96094C10.5 9.00781 10.4766 9.07031 10.4766 9.14844C10.4922 9.25781 10.5 9.375 10.5 9.5C10.5 9.625 10.4922 9.74219 10.4766 9.85156C10.4766 9.92969 10.5 9.99219 10.5469 10.0391L11.3438 10.8828C11.5312 11.0703 11.625 11.2969 11.625 11.5625C11.6094 11.6094 11.5938 11.6484 11.5781 11.6797C11.4844 11.9297 11.375 12.1719 11.25 12.4062L11.1562 12.5938H11.1328C11.0078 12.8281 10.8594 13.0469 10.6875 13.25C10.6562 13.2812 10.625 13.3047 10.5938 13.3203C10.375 13.4609 10.1328 13.5078 9.86719 13.4609L8.74219 13.1797C8.67969 13.1641 8.61719 13.1719 8.55469 13.2031C8.35156 13.3438 8.14844 13.4609 7.94531 13.5547C7.86719 13.6016 7.82031 13.6484 7.80469 13.6953L7.47656 14.8203C7.39844 15.0859 7.24219 15.2812 7.00781 15.4062C6.97656 15.4219 6.9375 15.4297 6.89062 15.4297C6.60938 15.4766 6.3125 15.5 6 15.5C5.6875 15.5 5.39062 15.4766 5.10938 15.4297C5.0625 15.4297 5.02344 15.4219 4.99219 15.4062C4.75781 15.2812 4.60156 15.0859 4.52344 14.8203L4.19531 13.6953C4.17969 13.6484 4.13281 13.6016 4.05469 13.5547C3.85156 13.4609 3.64844 13.3438 3.44531 13.2031C3.38281 13.1719 3.32031 13.1641 3.25781 13.1797L2.13281 13.4609C1.86719 13.5078 1.625 13.4688 1.40625 13.3438C1.375 13.3125 1.34375 13.2812 1.3125 13.25C1.14062 13.0469 0.992188 12.8281 0.867188 12.5938H0.84375L0.75 12.4062C0.625 12.1719 0.515625 11.9297 0.421875 11.6797C0.40625 11.6484 0.398438 11.6094 0.398438 11.5625C0.382812 11.3125 0.46875 11.0859 0.65625 10.8828L1.45312 10.0391C1.5 9.99219 1.52344 9.92969 1.52344 9.85156C1.50781 9.74219 1.5 9.625 1.5 9.5C1.5 9.4375 1.5 9.38281 1.5 9.33594C1.5 9.27344 1.50781 9.21094 1.52344 9.14844C1.52344 9.07031 1.5 9.00781 1.45312 8.96094L0.65625 8.14062C0.46875 7.9375 0.375 7.70312 0.375 7.4375C0.390625 7.39062 0.40625 7.35156 0.421875 7.32031C0.515625 7.07031 0.625 6.82812 0.75 6.59375L0.84375 6.40625H0.867188C0.992188 6.17188 1.14062 5.95312 1.3125 5.75C1.34375 5.71875 1.375 5.69531 1.40625 5.67969C1.625 5.53906 1.86719 5.5 2.13281 5.5625L3.25781 5.84375C3.32031 5.84375 3.38281 5.82812 3.44531 5.79688C3.64844 5.65625 3.85156 5.53906 4.05469 5.44531C4.13281 5.39844 4.17969 5.35156 4.19531 5.30469L4.52344 4.17969C4.60156 3.91406 4.75781 3.72656 4.99219 3.61719C5.02344 3.58594 5.0625 3.57031 5.10938 3.57031C5.39062 3.52344 5.6875 3.5 6 3.5ZM4.6875 9.5C4.70312 10 4.92188 10.375 5.34375 10.625C5.78125 10.875 6.21875 10.875 6.65625 10.625C7.07812 10.375 7.29688 10 7.3125 9.5C7.29688 9 7.07812 8.625 6.65625 8.375C6.21875 8.125 5.78125 8.125 5.34375 8.375C4.92188 8.625 4.70312 9 4.6875 9.5ZM8.0625 9.5C8.03125 10.2812 7.6875 10.875 7.03125 11.2812C6.34375 11.6562 5.65625 11.6562 4.96875 11.2812C4.3125 10.875 3.96875 10.2812 3.9375 9.5C3.96875 8.71875 4.3125 8.125 4.96875 7.71875C5.65625 7.34375 6.34375 7.34375 7.03125 7.71875C7.6875 8.125 8.03125 8.71875 8.0625 9.5Z" fill="black" fill-opacity="0.72"/>
</g>
<defs>
<clipPath id="clip0_1731_589">
<rect width="12" height="18" fill="white"/>
</clipPath>
</defs>
</svg>
