<svg width="18" height="30" viewBox="0 0 18 30" fill="none" xmlns="http://www.w3.org/2000/svg">
<g id="label-paired / lg / copy-lg / regular" clip-path="url(#clip0_1731_4989)">
<path id="icon" d="M15.25 19.25C15.6146 19.25 15.9141 19.1328 16.1484 18.8984C16.3828 18.6641 16.5 18.3646 16.5 18V10.0312C16.5 9.84896 16.4349 9.70573 16.3047 9.60156L13.6484 6.94531C13.5443 6.8151 13.401 6.75 13.2188 6.75H9C8.63542 6.75 8.33594 6.86719 8.10156 7.10156C7.86719 7.33594 7.75 7.63542 7.75 8V18C7.75 18.3646 7.86719 18.6641 8.10156 18.8984C8.33594 19.1328 8.63542 19.25 9 19.25H15.25ZM17.2031 8.70312C17.5677 9.06771 17.75 9.51042 17.75 10.0312V18C17.724 18.7031 17.4766 19.2891 17.0078 19.7578C16.5391 20.2266 15.9531 20.474 15.25 20.5H9C8.29688 20.474 7.71094 20.2266 7.24219 19.7578C6.77344 19.2891 6.52604 18.7031 6.5 18V8C6.52604 7.29688 6.77344 6.71094 7.24219 6.24219C7.71094 5.77344 8.29688 5.52604 9 5.5H13.2188C13.7396 5.5 14.1823 5.68229 14.5469 6.04688L17.2031 8.70312ZM2.75 10.5H5.25V11.75H2.75C2.38542 11.75 2.08594 11.8672 1.85156 12.1016C1.61719 12.3359 1.5 12.6354 1.5 13V23C1.5 23.3646 1.61719 23.6641 1.85156 23.8984C2.08594 24.1328 2.38542 24.25 2.75 24.25H9C9.36458 24.25 9.66406 24.1328 9.89844 23.8984C10.1328 23.6641 10.25 23.3646 10.25 23V21.75H11.5V23C11.474 23.7031 11.2266 24.2891 10.7578 24.7578C10.2891 25.2266 9.70312 25.474 9 25.5H2.75C2.04688 25.474 1.46094 25.2266 0.992188 24.7578C0.523438 24.2891 0.276042 23.7031 0.25 23V13C0.276042 12.2969 0.523438 11.7109 0.992188 11.2422C1.46094 10.7734 2.04688 10.526 2.75 10.5Z" fill="black" fill-opacity="0.72"/>
</g>
<defs>
<clipPath id="clip0_1731_4989">
<rect width="18" height="30" fill="white"/>
</clipPath>
</defs>
</svg>
