<svg width="24" height="36" viewBox="0 0 24 36" fill="none" xmlns="http://www.w3.org/2000/svg">
<g id="label-paired / xl / file-certificate-xl / regular" clip-path="url(#clip0_1731_6617)">
<path id="icon" d="M22.5 27V15H17.25C16.625 14.9688 16.0938 14.75 15.6562 14.3438C15.25 13.9062 15.0312 13.375 15 12.75V7.5H9C8.5625 7.5 8.20312 7.64062 7.92188 7.92188C7.64062 8.20312 7.5 8.5625 7.5 9V12C7.09375 11.9688 6.70312 12.0312 6.32812 12.1875C6.23438 12.2188 6.14062 12.25 6.04688 12.2812C6.04688 12.3125 6.03125 12.3281 6 12.3281V9C6.03125 8.15625 6.32812 7.45312 6.89062 6.89062C7.45312 6.32812 8.15625 6.03125 9 6H16.3125C16.9375 6 17.4688 6.21875 17.9062 6.65625L23.3438 12.0938C23.7812 12.5312 24 13.0625 24 13.6875V27C23.9688 27.8438 23.6719 28.5469 23.1094 29.1094C22.5469 29.6719 21.8438 29.9688 21 30H10.3594C10.4531 29.75 10.5 29.5 10.5 29.25V28.5H21C21.4375 28.5 21.7969 28.3594 22.0781 28.0781C22.3594 27.7969 22.5 27.4375 22.5 27ZM22.5 13.5C22.4375 13.375 22.3594 13.2656 22.2656 13.1719L16.8281 7.73438C16.7344 7.64062 16.625 7.57813 16.5 7.54688V12.75C16.5312 13.2188 16.7812 13.4688 17.25 13.5H22.5ZM3.28125 22.8281C3.78125 22.8906 4.1875 23.125 4.5 23.5312L4.82812 23.9062L5.29688 23.7188C5.76562 23.5312 6.23438 23.5312 6.70312 23.7188L7.17188 23.9062L7.5 23.5312C7.8125 23.125 8.21875 22.8906 8.71875 22.8281L9.23438 22.7344L9.32812 22.2188L10.7812 22.4531L10.6875 23.2031C10.5938 23.7656 10.2656 24.0938 9.70312 24.1875L9 24.2812V29.25C9 29.5312 8.875 29.75 8.625 29.9062C8.34375 30.0312 8.07812 30.0156 7.82812 29.8594L6 28.6406L4.17188 29.8594C3.92188 30.0156 3.67188 30.0312 3.42188 29.9062C3.14062 29.75 3 29.5312 3 29.25V24.2812L2.29688 24.1875C1.73438 24.0938 1.40625 23.7656 1.3125 23.2031L1.21875 22.4062C1.1875 22.3125 1.14062 22.2344 1.07812 22.1719L0.421875 21.7031C0.015625 21.3281 -0.09375 20.8906 0.09375 20.3906L0.375 19.6406C0.40625 19.5469 0.40625 19.4531 0.375 19.3594L0.09375 18.6094C-0.09375 18.1094 0.015625 17.6719 0.421875 17.2969L1.07812 16.8281L1.96875 18L1.59375 18.3281L1.78125 18.7969C1.96875 19.2656 1.96875 19.7344 1.78125 20.2031L1.59375 20.6719L1.96875 21L1.07812 22.1719L1.96875 21C2.375 21.3125 2.625 21.7188 2.71875 22.2188L2.76562 22.7344L3.28125 22.8281L3.1875 23.5312L3.28125 22.8281ZM1.07812 16.8281C1.14062 16.7656 1.1875 16.6875 1.21875 16.5938L1.3125 15.7969C1.40625 15.2344 1.73438 14.9062 2.29688 14.8125L3.09375 14.7188C3.1875 14.6875 3.26562 14.6406 3.32812 14.5781L3.79688 13.9219C4.17188 13.5156 4.60938 13.4062 5.10938 13.5938L5.85938 13.875C5.95312 13.9062 6.04688 13.9062 6.14062 13.875L6.89062 13.5938C7.39062 13.4062 7.82812 13.5156 8.20312 13.9219L8.67188 14.5781C8.73438 14.6406 8.82812 14.6875 8.95312 14.7188L9.75 14.8125C10.2812 14.9062 10.5938 15.2344 10.6875 15.7969L10.7812 16.5938C10.8125 16.6875 10.8594 16.7656 10.9219 16.8281L11.5781 17.2969C11.9844 17.6719 12.0938 18.1094 11.9062 18.6094L11.625 19.3594C11.5938 19.4531 11.5938 19.5469 11.625 19.6406L11.9062 20.3906C12.0938 20.8906 11.9844 21.3281 11.5781 21.7031L10.9219 22.1719C10.8594 22.2344 10.8125 22.3125 10.7812 22.4062L9.32812 22.2188C9.39062 21.7188 9.625 21.3125 10.0312 21L10.4062 20.6719L10.2188 20.2031C10.0312 19.7344 10.0312 19.2656 10.2188 18.7969L10.4062 18.3281L10.0312 18C9.625 17.6875 9.39062 17.2812 9.32812 16.7812L9.23438 16.2656L8.71875 16.2188C8.21875 16.125 7.8125 15.875 7.5 15.4688L7.17188 15.0938L6.70312 15.2812L6.1875 13.9688L6.70312 15.2812C6.23438 15.4688 5.76562 15.4688 5.29688 15.2812L4.82812 15.0938L4.5 15.4688C4.1875 15.875 3.78125 16.125 3.28125 16.2188L2.76562 16.2656L2.71875 16.7812L1.35938 16.5938L2.71875 16.7812C2.625 17.2812 2.375 17.6875 1.96875 18L1.07812 16.8281ZM7.5 27.8438V25.5C7.28125 25.5312 7.07812 25.5 6.89062 25.4062L6.14062 25.125C6.04688 25.0625 5.95312 25.0625 5.85938 25.125L5.10938 25.4062C4.92188 25.5 4.71875 25.5312 4.5 25.5V27.8438L5.57812 27.1406C5.85938 26.9531 6.14062 26.9531 6.42188 27.1406L7.5 27.8438Z" fill="black" fill-opacity="0.72"/>
</g>
<defs>
<clipPath id="clip0_1731_6617">
<rect width="24" height="36" fill="white"/>
</clipPath>
</defs>
</svg>
