<svg width="30" height="36" viewBox="0 0 30 36" fill="none" xmlns="http://www.w3.org/2000/svg">
<g id="label-paired / xl / harmony-os-xl" clip-path="url(#clip0_1731_14121)">
<path id="icon" d="M7.875 6H22.0781C24.7969 6 27 8.20312 27 10.9219V25.125C27 27.8438 24.7969 30 22.0781 30H7.875C5.15625 30 3 27.8438 3 25.125V10.9219C3 8.20312 5.15625 6 7.875 6ZM8.8125 11.5312V16.9219H9.89062V14.625H12.2344V16.9219H13.2656V11.5312H12.2344V13.6406H9.89062V11.5312H8.8125ZM16.125 11.5312V16.9219H17.1562V14.25L17.0625 13.3594H17.1562L18.5625 15.75H19.1719L20.625 13.3594H20.6719L20.625 14.25V16.9219H21.6562V11.5312H20.625L18.8906 14.3438H18.8438L17.1562 11.5312H16.125ZM18.2344 24.5625C18.4688 24.6094 18.7031 24.6562 18.9375 24.6562C19.1719 24.6562 19.4062 24.6094 19.6406 24.5625C19.875 24.4688 20.0625 24.375 20.25 24.2344C20.4375 24.0938 20.5781 23.9531 20.7188 23.7656C20.8125 23.5312 20.9062 23.2969 20.9062 23.0156C20.9062 22.7812 20.8594 22.5938 20.7656 22.4062C20.7188 22.2656 20.625 22.0781 20.4844 21.9375C20.3438 21.7969 20.1562 21.7031 19.9688 21.6094C19.7812 21.5156 19.5938 21.4219 19.3594 21.3281L19.0312 21.2344C18.7031 21.1406 18.4688 21 18.2812 20.9062C18.1406 20.8125 18.0938 20.6719 18.0938 20.4844C18.0938 20.3438 18.1406 20.2031 18.3281 20.1094C18.4688 19.9688 18.6562 19.9219 18.8906 19.9219C19.125 19.9219 19.3125 20.0156 19.4531 20.1094C19.5938 20.25 19.6875 20.3906 19.7344 20.5312L20.7188 20.1562C20.6719 20.0156 20.5781 19.9219 20.4844 19.7812C20.4375 19.6406 20.2969 19.5 20.1562 19.4062C20.0156 19.2656 19.8281 19.1719 19.5938 19.125C19.4062 19.0312 19.1719 19.0312 18.8906 19.0312C18.6094 19.0312 18.3281 19.0312 18.1406 19.125C17.9062 19.2188 17.7188 19.3125 17.5312 19.4531C17.3906 19.5938 17.25 19.7344 17.1562 19.9219C17.0625 20.1094 17.0156 20.2969 17.0156 20.5312C17.0156 20.7188 17.0625 20.9062 17.1562 21.0938C17.25 21.2344 17.3438 21.375 17.4844 21.5156C17.5781 21.6094 17.7188 21.75 17.9062 21.7969C18.0469 21.8906 18.1875 21.9844 18.375 22.0312L18.7031 22.125C18.9375 22.2188 19.0781 22.2656 19.2188 22.3594C19.3594 22.4062 19.5 22.4531 19.5938 22.5469C19.6406 22.5938 19.7344 22.6875 19.7812 22.7812C19.7812 22.8281 19.8281 22.9219 19.8281 23.0156C19.8281 23.1562 19.7812 23.25 19.7344 23.2969C19.6875 23.3906 19.6406 23.4375 19.5469 23.5312C19.4531 23.5781 19.4062 23.625 19.2656 23.625C19.1719 23.6719 19.0781 23.6719 18.9375 23.6719C18.6562 23.6719 18.4219 23.5781 18.2344 23.3906C18.0469 23.25 17.9062 23.0156 17.8594 22.7344L16.8281 23.1094C16.9219 23.3438 17.0156 23.5781 17.1562 23.7656C17.2969 23.9531 17.4375 24.0938 17.625 24.2344C17.8125 24.375 18.0469 24.4688 18.2344 24.5625ZM11.0625 24.6562C11.4375 24.6562 11.8125 24.5625 12.1406 24.4219C12.4688 24.2812 12.75 24.0938 13.0312 23.8125C13.2656 23.5781 13.4531 23.25 13.5938 22.9219C13.7344 22.5938 13.7812 22.2188 13.7812 21.8438C13.7812 21.4219 13.7344 21.0469 13.5938 20.7188C13.4531 20.3906 13.2656 20.0625 13.0312 19.8281C12.75 19.5938 12.4688 19.3594 12.1406 19.2188C11.8125 19.0781 11.4375 19.0312 11.0625 19.0312C10.6875 19.0312 10.3125 19.0781 9.98438 19.2188C9.60938 19.3594 9.32812 19.5938 9.09375 19.8281C8.85938 20.0625 8.67188 20.3906 8.53125 20.7188C8.39062 21.0469 8.29688 21.4219 8.29688 21.8438C8.29688 22.2188 8.39062 22.5938 8.53125 22.9219C8.67188 23.25 8.85938 23.5781 9.09375 23.8125C9.32812 24.0938 9.60938 24.2812 9.98438 24.4219C10.3125 24.5625 10.6875 24.6562 11.0625 24.6562ZM11.0625 23.6719C10.8281 23.6719 10.5938 23.625 10.3594 23.5312C10.1719 23.4375 9.98438 23.3438 9.79688 23.1562C9.65625 23.0156 9.51562 22.8281 9.42188 22.5938C9.32812 22.3594 9.28125 22.0781 9.28125 21.8438C9.28125 21.5625 9.32812 21.2812 9.42188 21.0469C9.51562 20.8594 9.65625 20.625 9.79688 20.4844C9.98438 20.3438 10.1719 20.2031 10.3594 20.1094C10.5938 20.0156 10.8281 19.9688 11.0625 19.9688C11.2969 19.9688 11.5312 20.0156 11.7188 20.1094C11.9531 20.2031 12.1406 20.3438 12.2812 20.4844C12.4688 20.625 12.5625 20.8594 12.6562 21.0469C12.75 21.2812 12.7969 21.5625 12.7969 21.8438C12.7969 22.0781 12.75 22.3594 12.6562 22.5938C12.5625 22.8281 12.4688 23.0156 12.2812 23.1562C12.1406 23.3438 11.9531 23.4375 11.7188 23.5312C11.5312 23.625 11.2969 23.6719 11.0625 23.6719ZM9.04688 25.125V25.1719V26.0625H12.9844V25.125H9.04688Z" fill="black" fill-opacity="0.72"/>
</g>
<defs>
<clipPath id="clip0_1731_14121">
<rect width="30" height="36" fill="white"/>
</clipPath>
</defs>
</svg>
