<svg width="12" height="24" viewBox="0 0 12 24" fill="none" xmlns="http://www.w3.org/2000/svg">
<g id="label-paired / md / location-dot-md / bold" clip-path="url(#clip0_1731_3928)">
<path id="icon" d="M10.5 10C10.4583 8.72917 10.0208 7.66667 9.1875 6.8125C8.33333 5.97917 7.27083 5.54167 6 5.5C4.72917 5.54167 3.66667 5.97917 2.8125 6.8125C1.97917 7.66667 1.54167 8.72917 1.5 10C1.5 10.3958 1.65625 10.9896 1.96875 11.7812C2.32292 12.5729 2.77083 13.4062 3.3125 14.2812C3.77083 15.0104 4.22917 15.7083 4.6875 16.375C5.16667 17.0417 5.60417 17.625 6 18.125C6.39583 17.625 6.83333 17.0417 7.3125 16.375C7.79167 15.7083 8.25 15.0104 8.6875 14.2812C9.22917 13.4062 9.67708 12.5729 10.0312 11.7812C10.3438 10.9896 10.5 10.3958 10.5 10ZM12 10C11.9583 10.9375 11.625 12.0208 11 13.25C10.3542 14.4792 9.625 15.6667 8.8125 16.8125C8 17.9792 7.3125 18.9062 6.75 19.5938C6.54167 19.8438 6.29167 19.9688 6 19.9688C5.70833 19.9688 5.45833 19.8438 5.25 19.5938C4.6875 18.9062 4 17.9792 3.1875 16.8125C2.375 15.6667 1.64583 14.4792 1 13.25C0.375 12.0208 0.0416667 10.9375 0 10C0.0416667 8.29167 0.625 6.875 1.75 5.75C2.875 4.625 4.29167 4.04167 6 4C7.70833 4.04167 9.125 4.625 10.25 5.75C11.375 6.875 11.9583 8.29167 12 10ZM7 10C7 9.70833 6.90625 9.46875 6.71875 9.28125C6.53125 9.09375 6.29167 9 6 9C5.70833 9 5.46875 9.09375 5.28125 9.28125C5.09375 9.46875 5 9.70833 5 10C5 10.2917 5.09375 10.5312 5.28125 10.7188C5.46875 10.9062 5.70833 11 6 11C6.29167 11 6.53125 10.9062 6.71875 10.7188C6.90625 10.5312 7 10.2917 7 10ZM3.5 10C3.52083 9.0625 3.9375 8.34375 4.75 7.84375C5.58333 7.38542 6.41667 7.38542 7.25 7.84375C8.0625 8.34375 8.47917 9.0625 8.5 10C8.47917 10.9375 8.0625 11.6562 7.25 12.1562C6.41667 12.6146 5.58333 12.6146 4.75 12.1562C3.9375 11.6562 3.52083 10.9375 3.5 10Z" fill="black" fill-opacity="0.72"/>
</g>
<defs>
<clipPath id="clip0_1731_3928">
<rect width="12" height="24" fill="white"/>
</clipPath>
</defs>
</svg>
