<svg width="16" height="22" viewBox="0 0 16 22" fill="none" xmlns="http://www.w3.org/2000/svg">
<g id="label-paired / sm / rectangle-ad-sm / bold" clip-path="url(#clip0_1731_2603)">
<path id="icon" d="M1.875 5.9375C1.60156 5.95573 1.45573 6.10156 1.4375 6.375V15.125C1.45573 15.3984 1.60156 15.5443 1.875 15.5625H14.125C14.3984 15.5443 14.5443 15.3984 14.5625 15.125V6.375C14.5443 6.10156 14.3984 5.95573 14.125 5.9375H1.875ZM0.125 6.375C0.143229 5.88281 0.316406 5.47266 0.644531 5.14453C0.972656 4.81641 1.38281 4.64323 1.875 4.625H14.125C14.6172 4.64323 15.0273 4.81641 15.3555 5.14453C15.6836 5.47266 15.8568 5.88281 15.875 6.375V15.125C15.8568 15.6172 15.6836 16.0273 15.3555 16.3555C15.0273 16.6836 14.6172 16.8568 14.125 16.875H1.875C1.38281 16.8568 0.972656 16.6836 0.644531 16.3555C0.316406 16.0273 0.143229 15.6172 0.125 15.125V6.375ZM6.41406 8.48047L8.38281 12.418C8.51042 12.8008 8.41016 13.1016 8.08203 13.3203C7.69922 13.4479 7.40755 13.3477 7.20703 13.0195L7.04297 12.7188H4.58203L4.41797 13.0195C4.21745 13.3477 3.92578 13.4388 3.54297 13.293C3.19661 13.0924 3.10547 12.8008 3.26953 12.418L5.23828 8.48047C5.36589 8.24349 5.55729 8.125 5.8125 8.125C6.08594 8.125 6.28646 8.24349 6.41406 8.48047ZM5.8125 10.2578L5.23828 11.4062H6.38672L5.8125 10.2578ZM10.8438 10.75C10.4427 10.7865 10.224 11.0052 10.1875 11.4062C10.224 11.8073 10.4427 12.026 10.8438 12.0625C11.2448 12.026 11.4635 11.8073 11.5 11.4062C11.4635 11.0052 11.2448 10.7865 10.8438 10.75ZM11.5 9.54688V8.78125C11.5365 8.38021 11.7552 8.16146 12.1562 8.125C12.5573 8.16146 12.776 8.38021 12.8125 8.78125V11.4062V12.7188C12.776 13.1198 12.5573 13.3385 12.1562 13.375C11.974 13.375 11.819 13.3112 11.6914 13.1836C11.4362 13.3112 11.1536 13.375 10.8438 13.375C10.2786 13.3568 9.8138 13.1654 9.44922 12.8008C9.08464 12.4362 8.89323 11.9714 8.875 11.4062C8.89323 10.8411 9.08464 10.3763 9.44922 10.0117C9.8138 9.64714 10.2786 9.45573 10.8438 9.4375C11.0807 9.4375 11.2995 9.47396 11.5 9.54688Z" fill="black" fill-opacity="0.72"/>
</g>
<defs>
<clipPath id="clip0_1731_2603">
<rect width="16" height="22" fill="white"/>
</clipPath>
</defs>
</svg>
