<svg width="18" height="24" viewBox="0 0 18 24" fill="none" xmlns="http://www.w3.org/2000/svg">
<g id="label-paired / md / rectangle-ad-md / regular" clip-path="url(#clip0_1731_3859)">
<path id="icon" d="M2 6C1.70833 6 1.46875 6.09375 1.28125 6.28125C1.09375 6.46875 1 6.70833 1 7V17C1 17.2917 1.09375 17.5312 1.28125 17.7188C1.46875 17.9062 1.70833 18 2 18H16C16.2917 18 16.5312 17.9062 16.7188 17.7188C16.9062 17.5312 17 17.2917 17 17V7C17 6.70833 16.9062 6.46875 16.7188 6.28125C16.5312 6.09375 16.2917 6 16 6H2ZM0 7C0.0208333 6.4375 0.21875 5.96875 0.59375 5.59375C0.96875 5.21875 1.4375 5.02083 2 5H16C16.5625 5.02083 17.0312 5.21875 17.4062 5.59375C17.7812 5.96875 17.9792 6.4375 18 7V17C17.9792 17.5625 17.7812 18.0312 17.4062 18.4062C17.0312 18.7812 16.5625 18.9792 16 19H2C1.4375 18.9792 0.96875 18.7812 0.59375 18.4062C0.21875 18.0312 0.0208333 17.5625 0 17V7ZM6.71875 9.28125L8.96875 14.2812C9.05208 14.5729 8.96875 14.8021 8.71875 14.9688C8.42708 15.0521 8.19792 14.9688 8.03125 14.7188L7.71875 14H4.78125L4.46875 14.7188C4.30208 14.9688 4.07292 15.0521 3.78125 14.9688C3.51042 14.8021 3.42708 14.5729 3.53125 14.2812L5.78125 9.28125C5.88542 9.09375 6.04167 9 6.25 9C6.45833 9 6.61458 9.09375 6.71875 9.28125ZM6.25 10.7188L5.21875 13H7.28125L6.25 10.7188ZM11.75 11.5C11.2708 11.5208 10.9062 11.7292 10.6562 12.125C10.4479 12.5417 10.4479 12.9583 10.6562 13.375C10.9062 13.7708 11.2708 13.9792 11.75 14C12.2292 13.9792 12.5938 13.7708 12.8438 13.375C13.0521 12.9583 13.0521 12.5417 12.8438 12.125C12.5938 11.7292 12.2292 11.5208 11.75 11.5ZM13 10.875V9.5C13.0208 9.1875 13.1875 9.02083 13.5 9C13.8125 9.02083 13.9792 9.1875 14 9.5V12.75V14.5C13.9792 14.8125 13.8125 14.9792 13.5 15C13.25 14.9792 13.0833 14.8542 13 14.625C12.6458 14.875 12.2292 15 11.75 15C11.1042 14.9792 10.5729 14.7604 10.1562 14.3438C9.73958 13.9271 9.52083 13.3958 9.5 12.75C9.52083 12.1042 9.73958 11.5729 10.1562 11.1562C10.5729 10.7396 11.1042 10.5208 11.75 10.5C12.2292 10.5 12.6458 10.625 13 10.875Z" fill="black" fill-opacity="0.72"/>
</g>
<defs>
<clipPath id="clip0_1731_3859">
<rect width="18" height="24" fill="white"/>
</clipPath>
</defs>
</svg>
