<svg width="16" height="24" viewBox="0 0 16 24" fill="none" xmlns="http://www.w3.org/2000/svg">
<g id="label-paired / md / triangle-exclamation-md / bold" clip-path="url(#clip0_1731_4139)">
<path id="icon" d="M7.75 6.625L1.5625 16.8125C1.52083 16.875 1.5 16.9583 1.5 17.0625C1.52083 17.3333 1.67708 17.4792 1.96875 17.5H14.0625C14.3333 17.4792 14.4792 17.3333 14.5 17.0625C14.5 16.9792 14.4792 16.8958 14.4375 16.8125L8.25 6.625C8.1875 6.54167 8.10417 6.5 8 6.5C7.89583 6.5 7.8125 6.54167 7.75 6.625ZM6.46875 5.84375C6.84375 5.30208 7.35417 5.02083 8 5C8.66667 5.02083 9.17708 5.30208 9.53125 5.84375L15.7188 16.0312C15.9062 16.3438 16 16.6875 16 17.0625C15.9792 17.6042 15.7917 18.0625 15.4375 18.4375C15.0625 18.7917 14.6042 18.9792 14.0625 19H1.96875C1.40625 18.9792 0.9375 18.7917 0.5625 18.4375C0.208333 18.0625 0.0208333 17.6042 0 17.0625C0 16.6875 0.09375 16.3438 0.28125 16.0312L6.46875 5.84375ZM9 15.5C9 15.7917 8.90625 16.0312 8.71875 16.2188C8.53125 16.4062 8.29167 16.5 8 16.5C7.70833 16.5 7.46875 16.4062 7.28125 16.2188C7.09375 16.0312 7 15.7917 7 15.5C7 15.2083 7.09375 14.9688 7.28125 14.7812C7.46875 14.5938 7.70833 14.5 8 14.5C8.29167 14.5 8.53125 14.5938 8.71875 14.7812C8.90625 14.9688 9 15.2083 9 15.5ZM8.75 9.75V12.75C8.70833 13.2083 8.45833 13.4583 8 13.5C7.54167 13.4583 7.29167 13.2083 7.25 12.75V9.75C7.29167 9.29167 7.54167 9.04167 8 9C8.45833 9.04167 8.70833 9.29167 8.75 9.75Z" fill="black" fill-opacity="0.72"/>
</g>
<defs>
<clipPath id="clip0_1731_4139">
<rect width="16" height="24" fill="white"/>
</clipPath>
</defs>
</svg>
