<svg width="14" height="24" viewBox="0 0 14 24" fill="none" xmlns="http://www.w3.org/2000/svg">
<g id="label-paired / md / ellipsis-md / regular" clip-path="url(#clip0_1731_3245)">
<path id="icon" d="M13 12C13 12.2917 12.9062 12.5312 12.7188 12.7188C12.5312 12.9062 12.2917 13 12 13C11.7083 13 11.4688 12.9062 11.2812 12.7188C11.0938 12.5312 11 12.2917 11 12C11 11.7083 11.0938 11.4688 11.2812 11.2812C11.4688 11.0938 11.7083 11 12 11C12.2917 11 12.5312 11.0938 12.7188 11.2812C12.9062 11.4688 13 11.7083 13 12ZM8 12C8 12.2917 7.90625 12.5312 7.71875 12.7188C7.53125 12.9062 7.29167 13 7 13C6.70833 13 6.46875 12.9062 6.28125 12.7188C6.09375 12.5312 6 12.2917 6 12C6 11.7083 6.09375 11.4688 6.28125 11.2812C6.46875 11.0938 6.70833 11 7 11C7.29167 11 7.53125 11.0938 7.71875 11.2812C7.90625 11.4688 8 11.7083 8 12ZM2 13C1.70833 13 1.46875 12.9062 1.28125 12.7188C1.09375 12.5312 1 12.2917 1 12C1 11.7083 1.09375 11.4688 1.28125 11.2812C1.46875 11.0938 1.70833 11 2 11C2.29167 11 2.53125 11.0938 2.71875 11.2812C2.90625 11.4688 3 11.7083 3 12C3 12.2917 2.90625 12.5312 2.71875 12.7188C2.53125 12.9062 2.29167 13 2 13Z" fill="black" fill-opacity="0.72"/>
</g>
<defs>
<clipPath id="clip0_1731_3245">
<rect width="14" height="24" fill="white"/>
</clipPath>
</defs>
</svg>
