<svg width="30" height="36" viewBox="0 0 30 36" fill="none" xmlns="http://www.w3.org/2000/svg">
<g id="label-paired / xl / huawei-xl" clip-path="url(#clip0_1731_14120)">
<path id="icon" d="M4.54688 10.6875C4.54688 10.6875 9.375 16.5 12.9375 24.2344V24.2812L12.8906 24.375C12.8438 24.4219 12.7969 24.375 12.7969 24.375C11.4844 23.7188 5.95312 20.9062 3.65625 18.7031C3.65625 18.7031 2.25 17.5781 2.10938 15.7031V15.2344C2.25 12.8906 4.54688 10.6875 4.54688 10.6875ZM12.0469 26.25V26.2969V26.25C12.0469 26.25 12.0469 26.2969 12 26.3906C11.1094 27 8.34375 28.9219 7.125 29.25C5.39062 29.6719 3.70312 28.2656 2.67188 26.4844L11.9062 26.1562C11.9062 26.1562 12 26.1562 12.0469 26.25ZM12.1406 25.3125C12.1406 25.3125 12.1875 25.3125 12.1875 25.3594V25.4531C12.1875 25.4531 12.1406 25.5 12.0938 25.5C10.6406 25.5 5.29688 25.5 5.15625 25.5C5.15625 25.5 4.26562 25.5 3.42188 25.125C3.42188 25.125 1.5 24.4688 0.46875 22.3594C0.46875 22.3594 0 21.4219 0 20.0625V20.0156C0 19.5 0.046875 18.9375 0.234375 18.375C0.234375 18.375 8.10938 22.5469 12.1406 25.3125ZM11.2969 7.03125V6.98438C11.2969 6.98438 12.375 6.75 12.7969 6.70312C12.7969 6.70312 15.5156 10.2656 14.2031 23.4844C14.2031 23.5312 14.1562 23.5312 14.1562 23.5781L14.1094 23.625C14.1094 23.625 14.0625 23.625 13.9688 23.5781C13.125 22.3125 9.14062 16.4062 8.29688 12.75C8.29688 12.75 8.10938 12.1875 8.10938 11.4375V10.9688C8.15625 10.0312 8.48438 9.14062 9.04688 8.4375C9.60938 7.73438 10.4062 7.21875 11.2969 7.03125ZM21.6562 9.84375C22.125 11.0156 21.6562 12.75 21.6562 12.75C20.8594 16.3594 16.875 22.2656 15.9844 23.5781C15.9844 23.5781 15.9375 23.625 15.8438 23.625C15.8438 23.625 15.7969 23.5781 15.75 23.4844C14.4375 10.2188 17.1562 6.70312 17.1562 6.70312C17.9062 6.84375 18.6094 6.98438 18.6094 6.98438C21.0469 7.59375 21.6562 9.84375 21.6562 9.84375ZM18.0469 26.2031V26.1562H18L27.2812 26.4844C25.875 28.875 24.375 29.2969 23.5312 29.2969H23.3438C23.0156 29.2969 22.7812 29.25 22.7812 29.25C21.5156 28.875 18.8438 27 17.9531 26.3906C17.9062 26.3438 17.9062 26.25 17.9062 26.25C17.9531 26.2031 18.0469 26.2031 18.0469 26.2031ZM27.7969 15.6562C27.75 17.5312 26.2969 18.7031 26.2969 18.7031C24.0469 20.9062 18.5156 23.7188 17.2031 24.375H17.1094H17.0625C17.0156 24.2812 17.0625 24.1875 17.0625 24.1875C20.5781 16.5469 25.4062 10.6875 25.4062 10.6875C25.4062 10.6875 27.9844 13.0781 27.7969 15.6562ZM29.7188 18.3281V18.375C30.4219 20.4844 29.4844 22.2656 29.4844 22.2656C28.5 24.4688 26.5312 25.125 26.5312 25.125C25.6406 25.4531 24.9375 25.4531 24.9375 25.4531C24.7969 25.5 19.3125 25.5 17.8594 25.5C17.8125 25.5 17.7656 25.4062 17.7656 25.4062C17.7656 25.3594 17.8125 25.2656 17.8125 25.2656C21.8438 22.5469 29.7188 18.3281 29.7188 18.3281Z" fill="black" fill-opacity="0.72"/>
</g>
<defs>
<clipPath id="clip0_1731_14120">
<rect width="30" height="36" fill="white"/>
</clipPath>
</defs>
</svg>
