<svg width="14" height="24" viewBox="0 0 14 24" fill="none" xmlns="http://www.w3.org/2000/svg">
<g id="label-paired / md / floppy-disk-md / bold" clip-path="url(#clip0_1731_3974)">
<path id="icon" d="M1.5 7V17C1.52083 17.3125 1.6875 17.4792 2 17.5H12C12.3125 17.4792 12.4792 17.3125 12.5 17V9.34375C12.5 9.19792 12.4479 9.07292 12.3438 8.96875L13.4062 7.90625C13.8021 8.30208 14 8.78125 14 9.34375V17C13.9792 17.5625 13.7812 18.0312 13.4062 18.4062C13.0312 18.7812 12.5625 18.9792 12 19H2C1.4375 18.9792 0.96875 18.7812 0.59375 18.4062C0.21875 18.0312 0.0208333 17.5625 0 17V7C0.0208333 6.4375 0.21875 5.96875 0.59375 5.59375C0.96875 5.21875 1.4375 5.02083 2 5H9.6875C10.2292 5 10.6979 5.19792 11.0938 5.59375L13.4062 7.90625L12.3438 8.96875L10.0312 6.65625C10.0104 6.63542 10 6.625 10 6.625V9.75C9.95833 10.2083 9.70833 10.4583 9.25 10.5H3.25C2.79167 10.4583 2.54167 10.2083 2.5 9.75V6.5H2C1.6875 6.52083 1.52083 6.6875 1.5 7ZM4 6.5V9H8.5V6.5H4ZM5 14C5.02083 13.25 5.35417 12.6771 6 12.2812C6.66667 11.9062 7.33333 11.9062 8 12.2812C8.64583 12.6771 8.97917 13.25 9 14C8.97917 14.75 8.64583 15.3229 8 15.7188C7.33333 16.0938 6.66667 16.0938 6 15.7188C5.35417 15.3229 5.02083 14.75 5 14Z" fill="black" fill-opacity="0.72"/>
</g>
<defs>
<clipPath id="clip0_1731_3974">
<rect width="14" height="24" fill="white"/>
</clipPath>
</defs>
</svg>
