<svg width="16" height="24" viewBox="0 0 16 24" fill="none" xmlns="http://www.w3.org/2000/svg">
<g id="label-paired / md / circle-four-md / regular" clip-path="url(#clip0_1731_3576)">
<path id="icon" d="M15 12C14.9792 10.7292 14.6667 9.5625 14.0625 8.5C13.4375 7.4375 12.5833 6.58333 11.5 5.9375C10.3958 5.3125 9.22917 5 8 5C6.77083 5 5.60417 5.3125 4.5 5.9375C3.41667 6.58333 2.5625 7.4375 1.9375 8.5C1.33333 9.5625 1.02083 10.7292 1 12C1.02083 13.2708 1.33333 14.4375 1.9375 15.5C2.5625 16.5625 3.41667 17.4167 4.5 18.0625C5.60417 18.6875 6.77083 19 8 19C9.22917 19 10.3958 18.6875 11.5 18.0625C12.5833 17.4167 13.4375 16.5625 14.0625 15.5C14.6667 14.4375 14.9792 13.2708 15 12ZM0 12C0.0208333 10.5417 0.375 9.20833 1.0625 8C1.77083 6.79167 2.75 5.8125 4 5.0625C5.27083 4.35417 6.60417 4 8 4C9.39583 4 10.7292 4.35417 12 5.0625C13.25 5.8125 14.2292 6.79167 14.9375 8C15.625 9.20833 15.9792 10.5417 16 12C15.9792 13.4583 15.625 14.7917 14.9375 16C14.2292 17.2083 13.25 18.1875 12 18.9375C10.7292 19.6458 9.39583 20 8 20C6.60417 20 5.27083 19.6458 4 18.9375C2.75 18.1875 1.77083 17.2083 1.0625 16C0.375 14.7917 0.0208333 13.4583 0 12ZM7.1875 8.03125C7.45833 8.17708 7.55208 8.39583 7.46875 8.6875L5.75 13H9V10.5C9.02083 10.1875 9.1875 10.0208 9.5 10C9.8125 10.0208 9.97917 10.1875 10 10.5V13H10.5C10.8125 13.0208 10.9792 13.1875 11 13.5C10.9792 13.8125 10.8125 13.9792 10.5 14H10V15.5C9.97917 15.8125 9.8125 15.9792 9.5 16C9.1875 15.9792 9.02083 15.8125 9 15.5V14H5C4.83333 14 4.69792 13.9271 4.59375 13.7812C4.48958 13.6354 4.46875 13.4792 4.53125 13.3125L6.53125 8.3125C6.67708 8.04167 6.89583 7.94792 7.1875 8.03125Z" fill="black" fill-opacity="0.72"/>
</g>
<defs>
<clipPath id="clip0_1731_3576">
<rect width="16" height="24" fill="white"/>
</clipPath>
</defs>
</svg>
