<svg width="16" height="24" viewBox="0 0 16 24" fill="none" xmlns="http://www.w3.org/2000/svg">
<g id="label-paired / md / google-play-md" clip-path="url(#clip0_1731_13963)">
<path id="icon" d="M10.1562 11.3125L12.0312 9.4375L3.28125 4.40625L10.1562 11.3125ZM1.46875 4L9.5 12L1.46875 20C1.03125 19.7708 0.802083 19.4062 0.78125 18.9062V5.09375C0.802083 4.59375 1.03125 4.22917 1.46875 4ZM14.75 11.0625C15.0625 11.2917 15.2188 11.6042 15.2188 12C15.2188 12.3958 15.0729 12.7083 14.7812 12.9375L12.9062 14.0312L10.875 12L12.9062 10L14.75 11.0625ZM3.28125 19.5938L10.1562 12.6875L12.0312 14.5625L3.28125 19.5938Z" fill="black" fill-opacity="0.72"/>
</g>
<defs>
<clipPath id="clip0_1731_13963">
<rect width="16" height="24" fill="white"/>
</clipPath>
</defs>
</svg>
