<svg width="13" height="30" viewBox="0 0 13 30" fill="none" xmlns="http://www.w3.org/2000/svg">
<g id="label-paired / lg / caret-up-lg / regular" clip-path="url(#clip0_1731_5114)">
<path id="icon" d="M6.26562 11.8281L1.57812 16.2812C1.52604 16.3333 1.5 16.3984 1.5 16.4766C1.52604 16.6328 1.61719 16.724 1.77344 16.75H11.2266C11.3828 16.724 11.474 16.6328 11.5 16.4766C11.5 16.3984 11.474 16.3333 11.4219 16.2812L6.73438 11.8281C6.65625 11.776 6.57812 11.75 6.5 11.75C6.42188 11.75 6.34375 11.776 6.26562 11.8281ZM5.40625 10.9297C5.71875 10.6432 6.08333 10.5 6.5 10.5C6.91667 10.5 7.28125 10.6432 7.59375 10.9297L12.2812 15.3828C12.5938 15.6693 12.75 16.0339 12.75 16.4766C12.75 16.9193 12.6068 17.2839 12.3203 17.5703C12.0339 17.8568 11.6693 18 11.2266 18H1.77344C1.33073 18 0.966146 17.8568 0.679688 17.5703C0.393229 17.2839 0.25 16.9193 0.25 16.4766C0.25 16.0339 0.40625 15.6562 0.71875 15.3438L5.40625 10.9297Z" fill="black" fill-opacity="0.72"/>
</g>
<defs>
<clipPath id="clip0_1731_5114">
<rect width="13" height="30" fill="white"/>
</clipPath>
</defs>
</svg>
