<svg width="24" height="36" viewBox="0 0 24 36" fill="none" xmlns="http://www.w3.org/2000/svg">
<g id="label-paired / xl / backward-xl / fill" clip-path="url(#clip0_1731_6579)">
<path id="icon" d="M21.5625 26.6719L13.5 19.9688V18V16.0312L21.5625 9.32812C22.0312 8.95312 22.5625 8.89062 23.1562 9.14062C23.6875 9.42188 23.9688 9.875 24 10.5V25.5C23.9688 26.125 23.6875 26.5781 23.1562 26.8594C22.5625 27.1094 22.0312 27.0469 21.5625 26.6719ZM12 22.5V25.5C11.9688 26.125 11.6875 26.5781 11.1562 26.8594C10.5625 27.1094 10.0312 27.0469 9.5625 26.6719L0.5625 19.1719C0.1875 18.8594 0 18.4688 0 18C0 17.5312 0.1875 17.1406 0.5625 16.8281L9.5625 9.32812C10.0312 8.95312 10.5625 8.89062 11.1562 9.14062C11.6875 9.42188 11.9688 9.875 12 10.5V12V18V22.5Z" fill="black" fill-opacity="0.72"/>
</g>
<defs>
<clipPath id="clip0_1731_6579">
<rect width="24" height="36" fill="white"/>
</clipPath>
</defs>
</svg>
