<svg width="24" height="36" viewBox="0 0 24 36" fill="none" xmlns="http://www.w3.org/2000/svg">
<g id="label-paired / xl / location-crosshairs-xl / bold" clip-path="url(#clip0_1731_6449)">
<path id="icon" d="M12 6C12.6875 6.0625 13.0625 6.4375 13.125 7.125V9.09375C15.1875 9.375 16.9375 10.2188 18.375 11.625C19.7812 13.0625 20.6406 14.8125 20.9531 16.875H22.875C23.5625 16.9375 23.9375 17.3125 24 18C23.9375 18.6875 23.5625 19.0625 22.875 19.125H20.9531C20.6406 21.1875 19.7812 22.9375 18.375 24.375C16.9375 25.7812 15.1875 26.6406 13.125 26.9531V28.875C13.0625 29.5625 12.6875 29.9375 12 30C11.3125 29.9375 10.9375 29.5625 10.875 28.875V26.9531C8.8125 26.6406 7.0625 25.7812 5.625 24.375C4.21875 22.9375 3.375 21.1875 3.09375 19.125H1.125C0.4375 19.0625 0.0625 18.6875 0 18C0.0625 17.3125 0.4375 16.9375 1.125 16.875H3.09375C3.375 14.8125 4.21875 13.0625 5.625 11.625C7.0625 10.2188 8.8125 9.375 10.875 9.09375V7.125C10.9375 6.4375 11.3125 6.0625 12 6ZM5.25 18C5.25 19.2188 5.54688 20.3438 6.14062 21.375C6.73438 22.4062 7.5625 23.2344 8.625 23.8594C9.6875 24.4531 10.8125 24.75 12 24.75C13.1875 24.75 14.3125 24.4531 15.375 23.8594C16.4375 23.2344 17.2656 22.4062 17.8594 21.375C18.4531 20.3438 18.75 19.2188 18.75 18C18.75 16.7812 18.4531 15.6562 17.8594 14.625C17.2656 13.5938 16.4375 12.7656 15.375 12.1406C14.3125 11.5469 13.1875 11.25 12 11.25C10.8125 11.25 9.6875 11.5469 8.625 12.1406C7.5625 12.7656 6.73438 13.5938 6.14062 14.625C5.54688 15.6562 5.25 16.7812 5.25 18ZM14.25 18C14.2188 17.1562 13.8438 16.5 13.125 16.0312C12.375 15.6562 11.625 15.6562 10.875 16.0312C10.1562 16.5 9.78125 17.1562 9.75 18C9.78125 18.8438 10.1562 19.5 10.875 19.9688C11.625 20.3438 12.375 20.3438 13.125 19.9688C13.8438 19.5 14.2188 18.8438 14.25 18ZM7.5 18C7.5 17.1875 7.70312 16.4375 8.10938 15.75C8.51562 15.0625 9.0625 14.5156 9.75 14.1094C10.4688 13.7031 11.2188 13.5 12 13.5C12.7812 13.5 13.5312 13.7031 14.25 14.1094C14.9375 14.5156 15.4844 15.0625 15.8906 15.75C16.2969 16.4375 16.5 17.1875 16.5 18C16.5 18.8125 16.2969 19.5625 15.8906 20.25C15.4844 20.9375 14.9375 21.4844 14.25 21.8906C13.5312 22.2969 12.7812 22.5 12 22.5C11.2188 22.5 10.4688 22.2969 9.75 21.8906C9.0625 21.4844 8.51562 20.9375 8.10938 20.25C7.70312 19.5625 7.5 18.8125 7.5 18Z" fill="black" fill-opacity="0.72"/>
</g>
<defs>
<clipPath id="clip0_1731_6449">
<rect width="24" height="36" fill="white"/>
</clipPath>
</defs>
</svg>
