<svg width="15" height="18" viewBox="0 0 15 18" fill="none" xmlns="http://www.w3.org/2000/svg">
<g id="label-paired / caption / stop-loss-caption / bold" clip-path="url(#clip0_1731_771)">
<path id="icon" d="M5.01562 12.7578C4.45312 12.7578 3.98438 12.6641 3.60938 12.4766C3.21094 12.2891 2.90625 12.0312 2.625 11.75L3.51562 10.8359C3.96094 11.3047 4.47656 11.5625 5.10938 11.5625C5.4375 11.5625 5.69531 11.4922 5.83594 11.3516C6 11.2109 6.09375 11.0234 6.09375 10.7891C6.09375 10.625 6.04688 10.4844 5.95312 10.3672C5.85938 10.25 5.64844 10.1562 5.36719 10.1328L4.73438 10.0391C4.07812 9.94531 3.58594 9.75781 3.28125 9.42969C2.97656 9.125 2.8125 8.70312 2.8125 8.16406C2.8125 7.88281 2.85938 7.625 2.97656 7.39062C3.09375 7.15625 3.23438 6.96875 3.44531 6.80469C3.63281 6.61719 3.89062 6.5 4.17188 6.40625C4.47656 6.3125 4.80469 6.26562 5.17969 6.26562C5.64844 6.26562 6.07031 6.33594 6.42188 6.5C6.77344 6.64062 7.10156 6.85156 7.35938 7.15625L6.44531 8.07031C6.28125 7.88281 6.11719 7.74219 5.88281 7.64844C5.67188 7.53125 5.41406 7.46094 5.08594 7.46094C4.78125 7.46094 4.54688 7.53125 4.40625 7.625C4.26562 7.74219 4.17188 7.88281 4.17188 8.09375C4.17188 8.30469 4.24219 8.44531 4.35938 8.5625C4.47656 8.65625 4.66406 8.72656 4.92188 8.75L5.55469 8.86719C6.1875 8.96094 6.67969 9.14844 6.98438 9.45312C7.3125 9.75781 7.45312 10.1797 7.45312 10.7188C7.45312 11.0234 7.40625 11.3047 7.28906 11.5391C7.19531 11.7969 7.03125 12.0078 6.82031 12.1953C6.60938 12.3828 6.35156 12.5234 6.04688 12.6172C5.74219 12.7109 5.39062 12.7578 5.01562 12.7578ZM8.60156 12.6406V6.35938H9.96094V11.4453H12.3516V12.6406H8.60156Z" fill="black" fill-opacity="0.72"/>
</g>
<defs>
<clipPath id="clip0_1731_771">
<rect width="15" height="18" fill="white"/>
</clipPath>
</defs>
</svg>
