<svg width="27" height="36" viewBox="0 0 27 36" fill="none" xmlns="http://www.w3.org/2000/svg">
<g id="label-paired / xl / star-xl / bold" clip-path="url(#clip0_1731_5848)">
<path id="icon" d="M13.5 6C13.9688 6.03125 14.3125 6.25 14.5312 6.65625L17.7188 13.2656L24.8906 14.2969C25.3594 14.3906 25.6719 14.6562 25.8281 15.0938C25.9531 15.5312 25.8594 15.9062 25.5469 16.2188L20.3438 21.375L21.5625 28.6875C21.625 29.125 21.4688 29.5 21.0938 29.8125C20.7188 30.0625 20.3281 30.0781 19.9219 29.8594L13.5 26.4375L7.07812 29.8594C6.67188 30.0781 6.28125 30.0469 5.90625 29.7656C5.53125 29.4844 5.375 29.125 5.4375 28.6875L6.65625 21.375L1.45312 16.2188C1.14062 15.9062 1.04688 15.5312 1.17188 15.0938C1.32812 14.6562 1.64062 14.3906 2.10938 14.2969L9.28125 13.2656L12.4688 6.65625C12.6875 6.25 13.0312 6.03125 13.5 6ZM13.5 9.70312L11.0156 14.7656C10.8594 15.1094 10.5781 15.3281 10.1719 15.4219L4.64062 16.2188L8.67188 20.2031C8.92188 20.4844 9.03125 20.8125 9 21.1875L8.01562 26.8125L12.9844 24.1875C13.3281 24 13.6719 24 14.0156 24.1875L18.9375 26.8125L18 21.1875C17.9375 20.8125 18.0469 20.4844 18.3281 20.2031L22.3594 16.2188L16.8281 15.4219C16.4219 15.3281 16.1406 15.1094 15.9844 14.7656L13.5 9.70312Z" fill="black" fill-opacity="0.72"/>
</g>
<defs>
<clipPath id="clip0_1731_5848">
<rect width="27" height="36" fill="white"/>
</clipPath>
</defs>
</svg>
