<svg width="8" height="18" viewBox="0 0 8 18" fill="none" xmlns="http://www.w3.org/2000/svg">
<g id="label-paired / caption / forward-step-caption / regular" clip-path="url(#clip0_1731_1550)">
<path id="icon" d="M6.25 5.375C6.26562 5.14062 6.39062 5.01562 6.625 5C6.85938 5.01562 6.98438 5.14062 7 5.375V9.17188V9.82812V13.625C6.98438 13.8594 6.85938 13.9844 6.625 14C6.39062 13.9844 6.26562 13.8594 6.25 13.625V10.4375L2.05469 13.8594C1.94531 13.9531 1.8125 14 1.65625 14C1.46875 14 1.3125 13.9375 1.1875 13.8125C1.0625 13.6875 1 13.5312 1 13.3438V5.65625C1 5.46875 1.0625 5.3125 1.1875 5.1875C1.3125 5.0625 1.46875 5 1.65625 5C1.8125 5 1.94531 5.04688 2.05469 5.14062L6.25 8.5625V5.375ZM1.75 5.86719V13.1328L6.22656 9.5L1.75 5.86719Z" fill="black" fill-opacity="0.72"/>
</g>
<defs>
<clipPath id="clip0_1731_1550">
<rect width="8" height="18" fill="white"/>
</clipPath>
</defs>
</svg>
