<svg width="9" height="18" viewBox="0 0 9 18" fill="none" xmlns="http://www.w3.org/2000/svg">
<g id="label-paired / caption / arrow-down-to-line-caption / bold" clip-path="url(#clip0_1731_921)">
<path id="icon" d="M8.4375 14.75H0.5625C0.21875 14.7188 0.03125 14.5312 0 14.1875C0.03125 13.8438 0.21875 13.6562 0.5625 13.625H8.4375C8.78125 13.6562 8.96875 13.8438 9 14.1875C8.96875 14.5312 8.78125 14.7188 8.4375 14.75ZM4.10156 11.5625V11.5859L1.10156 8.39844C0.882812 8.11719 0.890625 7.85156 1.125 7.60156C1.39062 7.38281 1.65625 7.39062 1.92188 7.625L3.9375 9.78125V7.8125V4.8125C3.96875 4.46875 4.15625 4.28125 4.5 4.25C4.84375 4.28125 5.03125 4.46875 5.0625 4.8125V7.8125V9.78125L7.10156 7.625C7.35156 7.39062 7.61719 7.38281 7.89844 7.60156C8.11719 7.85156 8.125 8.10938 7.92188 8.375L4.92188 11.5625C4.79688 11.6875 4.65625 11.75 4.5 11.75C4.34375 11.75 4.21094 11.6875 4.10156 11.5625Z" fill="black" fill-opacity="0.72"/>
</g>
<defs>
<clipPath id="clip0_1731_921">
<rect width="9" height="18" fill="white"/>
</clipPath>
</defs>
</svg>
