<svg width="23" height="30" viewBox="0 0 23 30" fill="none" xmlns="http://www.w3.org/2000/svg">
<g id="label-paired / lg / file-circle-info-lg / regular" clip-path="url(#clip0_1731_4959)">
<path id="icon" d="M2.75 24.25H11.8125C12.2031 24.7188 12.6458 25.1224 13.1406 25.4609C13.0104 25.487 12.8802 25.5 12.75 25.5H2.75C2.04688 25.474 1.46094 25.2266 0.992188 24.7578C0.523438 24.2891 0.276042 23.7031 0.25 23V8C0.276042 7.29688 0.523438 6.71094 0.992188 6.24219C1.46094 5.77344 2.04688 5.52604 2.75 5.5H8.84375C9.36458 5.5 9.80729 5.68229 10.1719 6.04688L14.7031 10.5781C15.0677 10.9427 15.25 11.3854 15.25 11.9062V13.2344C14.8073 13.3646 14.3906 13.5339 14 13.7422V13H9.625C9.10417 12.974 8.66146 12.7917 8.29688 12.4531C7.95833 12.0885 7.77604 11.6458 7.75 11.125V6.75H2.75C2.38542 6.75 2.08594 6.86719 1.85156 7.10156C1.61719 7.33594 1.5 7.63542 1.5 8V23C1.5 23.3646 1.61719 23.6641 1.85156 23.8984C2.08594 24.1328 2.38542 24.25 2.75 24.25ZM14 11.75C13.9479 11.6458 13.8828 11.5547 13.8047 11.4766L9.27344 6.94531C9.19531 6.86719 9.10417 6.8151 9 6.78906V11.125C9.02604 11.5156 9.23438 11.724 9.625 11.75H14ZM21.5 19.875C21.5 19.0938 21.3047 18.3646 20.9141 17.6875C20.5234 17.0104 19.9896 16.4766 19.3125 16.0859C18.6354 15.6953 17.9062 15.5 17.125 15.5C16.3438 15.5 15.6146 15.6953 14.9375 16.0859C14.2604 16.4766 13.7266 17.0104 13.3359 17.6875C12.9453 18.3646 12.75 19.0938 12.75 19.875C12.75 20.6562 12.9453 21.3854 13.3359 22.0625C13.7266 22.7396 14.2604 23.2734 14.9375 23.6641C15.6146 24.0547 16.3438 24.25 17.125 24.25C17.9062 24.25 18.6354 24.0547 19.3125 23.6641C19.9896 23.2734 20.5234 22.7396 20.9141 22.0625C21.3047 21.3854 21.5 20.6562 21.5 19.875ZM11.5 19.875C11.5 18.8594 11.7474 17.9219 12.2422 17.0625C12.737 16.2031 13.4271 15.513 14.3125 14.9922C15.1979 14.4974 16.1354 14.25 17.125 14.25C18.1146 14.25 19.0521 14.4974 19.9375 14.9922C20.8229 15.513 21.513 16.2031 22.0078 17.0625C22.5026 17.9219 22.75 18.8594 22.75 19.875C22.75 20.8906 22.5026 21.8281 22.0078 22.6875C21.513 23.5469 20.8229 24.237 19.9375 24.7578C19.0521 25.2526 18.1146 25.5 17.125 25.5C16.1354 25.5 15.1979 25.2526 14.3125 24.7578C13.4271 24.237 12.737 23.5469 12.2422 22.6875C11.7474 21.8281 11.5 20.8906 11.5 19.875ZM17.125 18.625C16.5521 18.5729 16.2396 18.2604 16.1875 17.6875C16.2396 17.1146 16.5521 16.8021 17.125 16.75C17.6979 16.8021 18.0104 17.1146 18.0625 17.6875C18.0104 18.2604 17.6979 18.5729 17.125 18.625ZM15.875 22.375C15.901 21.9844 16.1094 21.776 16.5 21.75V20.5C16.1094 20.474 15.901 20.2656 15.875 19.875C15.901 19.4844 16.1094 19.276 16.5 19.25H17.125C17.5156 19.276 17.724 19.4844 17.75 19.875V21.75C18.1406 21.776 18.349 21.9844 18.375 22.375C18.349 22.7656 18.1406 22.974 17.75 23H17.125H16.5C16.1094 22.974 15.901 22.7656 15.875 22.375Z" fill="black" fill-opacity="0.72"/>
</g>
<defs>
<clipPath id="clip0_1731_4959">
<rect width="23" height="30" fill="white"/>
</clipPath>
</defs>
</svg>
