<svg width="18" height="22" viewBox="0 0 18 22" fill="none" xmlns="http://www.w3.org/2000/svg">
<g id="label-paired / sm / location-crosshairs-slash-sm / bold" clip-path="url(#clip0_1731_2680)">
<path id="icon" d="M1.31641 3.88672L5.30859 7.03125C6.12891 6.21094 7.14062 5.71875 8.34375 5.55469V4.40625C8.38021 4.00521 8.59896 3.78646 9 3.75C9.40104 3.78646 9.61979 4.00521 9.65625 4.40625V5.55469C10.8594 5.71875 11.8802 6.21094 12.7188 7.03125C13.5391 7.86979 14.0404 8.89062 14.2227 10.0938H15.3438C15.7448 10.1302 15.9635 10.349 16 10.75C15.9635 11.151 15.7448 11.3698 15.3438 11.4062H14.2227C14.1133 12.1536 13.8763 12.8372 13.5117 13.457L17.5039 16.5742C17.7956 16.8477 17.832 17.1576 17.6133 17.5039C17.3398 17.7956 17.0299 17.832 16.6836 17.6133L0.496094 4.92578C0.204427 4.65234 0.167969 4.34245 0.386719 3.99609C0.660156 3.70443 0.970052 3.66797 1.31641 3.88672ZM6.34766 7.85156L7.41406 8.67188C7.85156 8.32552 8.38021 8.14323 9 8.125C9.7474 8.14323 10.3672 8.39844 10.8594 8.89062C11.3516 9.38281 11.6068 10.0026 11.625 10.75C11.625 11.1328 11.5521 11.4883 11.4062 11.8164L12.4727 12.6367C12.7826 12.0716 12.9375 11.4427 12.9375 10.75C12.901 9.63802 12.5182 8.70833 11.7891 7.96094C11.0417 7.23177 10.112 6.84896 9 6.8125C7.96094 6.83073 7.07682 7.17708 6.34766 7.85156ZM10.3125 10.9414H10.2852C10.3034 10.8685 10.3125 10.8047 10.3125 10.75C10.2943 10.3854 10.1667 10.0755 9.92969 9.82031C9.67448 9.58333 9.36458 9.45573 9 9.4375C8.81771 9.4375 8.65365 9.46484 8.50781 9.51953L10.3125 10.9414ZM11.5977 15.3164C11.0143 15.6445 10.3672 15.8633 9.65625 15.9727V17.0938C9.61979 17.4948 9.40104 17.7135 9 17.75C8.59896 17.7135 8.38021 17.4948 8.34375 17.0938V15.9727C7.14062 15.7904 6.11979 15.2891 5.28125 14.4688C4.46094 13.6484 3.96875 12.6276 3.80469 11.4062H2.65625C2.25521 11.3698 2.03646 11.151 2 10.75C2.03646 10.349 2.25521 10.1302 2.65625 10.0938H3.80469C3.82292 9.82031 3.8776 9.55599 3.96875 9.30078L5.08984 10.2031C5.07161 10.3854 5.0625 10.5677 5.0625 10.75C5.09896 11.862 5.48177 12.7917 6.21094 13.5391C6.95833 14.2865 7.88802 14.6693 9 14.6875C9.51042 14.6875 9.99349 14.5964 10.4492 14.4141L11.5977 15.3164Z" fill="black" fill-opacity="0.72"/>
</g>
<defs>
<clipPath id="clip0_1731_2680">
<rect width="18" height="22" fill="white"/>
</clipPath>
</defs>
</svg>
