<svg width="30" height="36" viewBox="0 0 30 36" fill="none" xmlns="http://www.w3.org/2000/svg">
<g id="label-paired / xl / macos-xl" clip-path="url(#clip0_1731_14125)">
<path id="icon" d="M14.1094 20.5781C14.1094 22.5938 13.0781 23.8594 11.3906 23.8594C9.70312 23.8594 8.67188 22.5938 8.67188 20.5781C8.67188 18.5625 9.70312 17.2969 11.3906 17.2969C13.0781 17.2969 14.1094 18.5625 14.1094 20.5781ZM16.4531 13.4531L15.75 13.5C15.3281 13.5469 15.1406 13.6875 15.1406 13.9688C15.1406 14.25 15.375 14.3906 15.7031 14.3906C16.125 14.3906 16.4531 14.1094 16.4531 13.7344V13.4531ZM3 18C3 13.7344 5.25 9.79688 9 7.64062C12.7031 5.48438 17.25 5.48438 21 7.64062C24.7031 9.79688 27 13.7344 27 18C27 22.3125 24.7031 26.25 21 28.4062C17.25 30.5625 12.7031 30.5625 9 28.4062C5.25 26.25 3 22.3125 3 18ZM17.7656 13.3125C17.7656 14.2969 18.2812 14.9062 19.1719 14.9062C19.9219 14.9062 20.3906 14.4844 20.4375 13.875H19.875C19.7812 14.2031 19.5469 14.3906 19.1719 14.3906C18.6562 14.3906 18.375 13.9688 18.375 13.3125C18.375 12.6562 18.6562 12.2812 19.1719 12.2812C19.5469 12.2812 19.8281 12.5156 19.875 12.7969H20.4375C20.3906 12.2344 19.9219 11.7656 19.1719 11.7656C18.2812 11.7656 17.7656 12.375 17.7656 13.3125ZM9.70312 11.8594V14.8125H10.2656V12.9844C10.2656 12.6094 10.5469 12.2812 10.9219 12.2812C11.25 12.2812 11.4844 12.5156 11.4844 12.8438V14.8125H12.0938V12.9375C12.0938 12.5625 12.3281 12.2812 12.7031 12.2812C13.0781 12.2812 13.2656 12.5156 13.2656 12.8906V14.8125H13.875V12.75C13.875 12.1406 13.5469 11.7656 12.9375 11.7656C12.5156 11.7656 12.1406 12 12 12.3281H11.9531C11.8125 12 11.5312 11.7656 11.1094 11.7656C10.7344 11.7656 10.4062 11.9531 10.3125 12.3281H10.2656V11.8125L9.70312 11.8594ZM15.1875 20.5781C15.1875 18 13.7344 16.3594 11.3906 16.3594C9.09375 16.3594 7.64062 18 7.64062 20.5781C7.64062 23.2031 9.09375 24.8438 11.3906 24.8438C13.7344 24.8438 15.1875 23.2031 15.1875 20.5781ZM15.5625 14.8594C15.9375 14.8594 16.2656 14.7188 16.4531 14.3906H16.5V14.8125H17.0625V12.7969C17.0625 12.1406 16.6406 11.7656 15.8906 11.7656C15.2344 11.7656 14.7188 12.0938 14.6719 12.6094H15.2344C15.3281 12.375 15.5625 12.2812 15.8906 12.2812C16.2656 12.2812 16.5 12.4688 16.5 12.7969V13.0312L15.6562 13.0781C14.9531 13.125 14.5781 13.4531 14.5781 14.0156C14.5312 14.5312 14.9531 14.8594 15.5625 14.8594ZM22.0312 22.3594C22.0312 21.1875 21.3281 20.5312 19.6406 20.1562L18.75 19.9219C17.625 19.6875 17.1562 19.2656 17.1562 18.6094C17.1562 17.7656 17.9531 17.25 18.9844 17.25C20.0625 17.25 20.7656 17.8125 20.8594 18.7031H21.8906C21.8438 17.3438 20.625 16.3594 19.0312 16.3594C17.2969 16.3594 16.125 17.2969 16.125 18.6562C16.125 19.8281 16.8281 20.5781 18.4688 20.9062L19.4062 21.1406C20.5312 21.375 21 21.8438 21 22.5C21 23.3438 20.1562 23.9062 19.0781 23.9062C17.8594 23.9062 17.0625 23.3906 16.9219 22.5H15.9375C16.0312 23.9062 17.2031 24.8438 18.9844 24.8438C20.8125 24.8438 22.0312 23.8594 22.0312 22.3594Z" fill="black" fill-opacity="0.72"/>
</g>
<defs>
<clipPath id="clip0_1731_14125">
<rect width="30" height="36" fill="white"/>
</clipPath>
</defs>
</svg>
