<svg width="18" height="24" viewBox="0 0 18 24" fill="none" xmlns="http://www.w3.org/2000/svg">
<g id="label-paired / md / file-shield-md / regular" clip-path="url(#clip0_1731_4106)">
<path id="icon" d="M10 19C10.0417 19 10.0833 19 10.125 19C10.375 19.2708 10.6458 19.5312 10.9375 19.7812C10.6667 19.9271 10.3542 20 10 20H2C1.4375 19.9792 0.96875 19.7812 0.59375 19.4062C0.21875 19.0312 0.0208333 18.5625 0 18V6C0.0208333 5.4375 0.21875 4.96875 0.59375 4.59375C0.96875 4.21875 1.4375 4.02083 2 4H6.875C7.29167 4 7.64583 4.14583 7.9375 4.4375L11.5625 8.0625C11.8542 8.35417 12 8.70833 12 9.125V10.4688L11 10.875V10H7.5C7.08333 9.97917 6.72917 9.83333 6.4375 9.5625C6.16667 9.27083 6.02083 8.91667 6 8.5V5H2C1.70833 5 1.46875 5.09375 1.28125 5.28125C1.09375 5.46875 1 5.70833 1 6V18C1 18.2917 1.09375 18.5312 1.28125 18.7188C1.46875 18.9062 1.70833 19 2 19H10ZM11 9C10.9583 8.91667 10.9062 8.84375 10.8438 8.78125L7.21875 5.15625C7.15625 5.09375 7.08333 5.05208 7 5.03125V8.5C7.02083 8.8125 7.1875 8.97917 7.5 9H11ZM10 13.4062C10 14.2812 10.2188 15.2188 10.6562 16.2188C11.0938 17.2188 11.875 18.0521 13 18.7188V12.2188L10 13.4062ZM17 13.4062L14 12.2188V18.7188C15.125 18.0521 15.9062 17.2188 16.3438 16.2188C16.7812 15.2188 17 14.2812 17 13.4062ZM13.7812 11.0625L17.5312 12.5625C17.8229 12.6875 17.9792 12.9167 18 13.25C18.0208 13.9375 17.9062 14.7083 17.6562 15.5625C17.4271 16.4167 17.0104 17.2396 16.4062 18.0312C15.7812 18.8229 14.9062 19.4583 13.7812 19.9375C13.5938 20.0208 13.4062 20.0208 13.2188 19.9375C12.0938 19.4583 11.2188 18.8229 10.5938 18.0312C9.98958 17.2396 9.57292 16.4167 9.34375 15.5625C9.09375 14.7083 8.97917 13.9375 9 13.25C9.02083 12.9167 9.17708 12.6875 9.46875 12.5625L13.2188 11.0625C13.4062 10.9792 13.5938 10.9792 13.7812 11.0625Z" fill="black" fill-opacity="0.72"/>
</g>
<defs>
<clipPath id="clip0_1731_4106">
<rect width="18" height="24" fill="white"/>
</clipPath>
</defs>
</svg>
