<svg width="12" height="18" viewBox="0 0 12 18" fill="none" xmlns="http://www.w3.org/2000/svg">
<g id="label-paired / caption / camera-caption / regular" clip-path="url(#clip0_1731_1774)">
<path id="icon" d="M4.47656 4.25H7.52344C8.03906 4.28125 8.39844 4.53906 8.60156 5.02344L8.83594 5.75H10.5C10.9219 5.76562 11.2734 5.91406 11.5547 6.19531C11.8359 6.47656 11.9844 6.82812 12 7.25V13.25C11.9844 13.6719 11.8359 14.0234 11.5547 14.3047C11.2734 14.5859 10.9219 14.7344 10.5 14.75H1.5C1.07812 14.7344 0.726562 14.5859 0.445312 14.3047C0.164062 14.0234 0.015625 13.6719 0 13.25V7.25C0.015625 6.82812 0.164062 6.47656 0.445312 6.19531C0.726562 5.91406 1.07812 5.76562 1.5 5.75H3.16406L3.42188 5.02344C3.60938 4.53906 3.96094 4.28125 4.47656 4.25ZM4.125 5.25781L3.79688 6.24219C3.73438 6.39844 3.61719 6.48438 3.44531 6.5H1.5C1.28125 6.5 1.10156 6.57031 0.960938 6.71094C0.820312 6.85156 0.75 7.03125 0.75 7.25V13.25C0.75 13.4688 0.820312 13.6484 0.960938 13.7891C1.10156 13.9297 1.28125 14 1.5 14H10.5C10.7188 14 10.8984 13.9297 11.0391 13.7891C11.1797 13.6484 11.25 13.4688 11.25 13.25V7.25C11.25 7.03125 11.1797 6.85156 11.0391 6.71094C10.8984 6.57031 10.7188 6.5 10.5 6.5H8.55469C8.38281 6.48438 8.26562 6.39844 8.20312 6.24219L7.875 5.25781C7.8125 5.10156 7.69531 5.01562 7.52344 5H4.47656C4.30469 5.01562 4.1875 5.10156 4.125 5.25781ZM6 12.875C5.53125 12.875 5.09375 12.7578 4.6875 12.5234C4.28125 12.2891 3.96094 11.9688 3.72656 11.5625C3.49219 11.1562 3.375 10.7188 3.375 10.25C3.375 9.78125 3.49219 9.34375 3.72656 8.9375C3.96094 8.53125 4.28125 8.21094 4.6875 7.97656C5.09375 7.74219 5.53125 7.625 6 7.625C6.46875 7.625 6.90625 7.74219 7.3125 7.97656C7.71875 8.21094 8.03906 8.53125 8.27344 8.9375C8.50781 9.34375 8.625 9.78125 8.625 10.25C8.625 10.7188 8.50781 11.1562 8.27344 11.5625C8.03906 11.9688 7.71875 12.2891 7.3125 12.5234C6.90625 12.7578 6.46875 12.875 6 12.875ZM4.125 10.25C4.14062 10.9531 4.45312 11.4922 5.0625 11.8672C5.6875 12.2109 6.3125 12.2109 6.9375 11.8672C7.54688 11.4922 7.85938 10.9531 7.875 10.25C7.85938 9.54688 7.54688 9.00781 6.9375 8.63281C6.3125 8.28906 5.6875 8.28906 5.0625 8.63281C4.45312 9.00781 4.14062 9.54688 4.125 10.25Z" fill="black" fill-opacity="0.72"/>
</g>
<defs>
<clipPath id="clip0_1731_1774">
<rect width="12" height="18" fill="white"/>
</clipPath>
</defs>
</svg>
