<svg width="20" height="30" viewBox="0 0 20 30" fill="none" xmlns="http://www.w3.org/2000/svg">
<g id="label-paired / lg / forward-lg / bold" clip-path="url(#clip0_1731_5011)">
<path id="icon" d="M8.75 9.17188C8.75 8.83333 8.86719 8.5599 9.10156 8.35156C9.3099 8.11719 9.58333 8 9.92188 8C10.1823 8 10.4167 8.07812 10.625 8.23438L19.6094 14.7578C19.8698 14.9401 20 15.1875 20 15.5C20 15.8125 19.8698 16.0599 19.6094 16.2422L10.625 22.7656C10.4167 22.9219 10.1823 23 9.92188 23C9.58333 23 9.3099 22.8828 9.10156 22.6484C8.86719 22.4401 8.75 22.1667 8.75 21.8281V17.9609L1.83594 22.8047C1.6276 22.9349 1.40625 23 1.17188 23C0.833333 23 0.559896 22.8828 0.351562 22.6484C0.117188 22.4401 0 22.1667 0 21.8281V9.17188C0 8.83333 0.117188 8.5599 0.351562 8.35156C0.559896 8.11719 0.833333 8 1.17188 8C1.43229 8 1.65365 8.0651 1.83594 8.19531L8.75 13.0391V9.17188ZM8.75 15.3438L1.875 10.5391V20.5L8.75 15.6562V15.3438ZM17.4609 15.5L10.625 10.5391V20.4609L17.4609 15.5Z" fill="black" fill-opacity="0.72"/>
</g>
<defs>
<clipPath id="clip0_1731_5011">
<rect width="20" height="30" fill="white"/>
</clipPath>
</defs>
</svg>
