<svg width="24" height="36" viewBox="0 0 24 36" fill="none" xmlns="http://www.w3.org/2000/svg">
<g id="label-paired / xl / chevrons-left-xl / regular" clip-path="url(#clip0_1731_5936)">
<path id="icon" d="M2.48438 17.4844L11.4844 8.48438C11.8281 8.17188 12.1719 8.17188 12.5156 8.48438C12.8281 8.82812 12.8281 9.17188 12.5156 9.51562L4.07812 18L12.5156 26.4844C12.8281 26.8281 12.8281 27.1719 12.5156 27.5156C12.1719 27.8281 11.8281 27.8281 11.4844 27.5156L2.48438 18.5156C2.17188 18.1719 2.17188 17.8281 2.48438 17.4844ZM20.4844 8.48438C20.8281 8.17188 21.1719 8.17188 21.5156 8.48438C21.8281 8.82812 21.8281 9.17188 21.5156 9.51562L13.0781 18L21.5156 26.4844C21.8281 26.8281 21.8281 27.1719 21.5156 27.5156C21.1719 27.8281 20.8281 27.8281 20.4844 27.5156L11.4844 18.5156C11.1719 18.1719 11.1719 17.8281 11.4844 17.4844L20.4844 8.48438Z" fill="black" fill-opacity="0.72"/>
</g>
<defs>
<clipPath id="clip0_1731_5936">
<rect width="24" height="36" fill="white"/>
</clipPath>
</defs>
</svg>
