<svg width="12" height="24" viewBox="0 0 12 24" fill="none" xmlns="http://www.w3.org/2000/svg">
<g id="label-paired / md / mobile-screen-button-md / bold" clip-path="url(#clip0_1731_3887)">
<path id="icon" d="M2 18C2.02083 18.3125 2.1875 18.4792 2.5 18.5H9.5C9.8125 18.4792 9.97917 18.3125 10 18V15.5H2V18ZM2 14H10V6C9.97917 5.6875 9.8125 5.52083 9.5 5.5H2.5C2.1875 5.52083 2.02083 5.6875 2 6V14ZM0.5 6C0.520833 5.4375 0.71875 4.96875 1.09375 4.59375C1.46875 4.21875 1.9375 4.02083 2.5 4H9.5C10.0625 4.02083 10.5312 4.21875 10.9062 4.59375C11.2812 4.96875 11.4792 5.4375 11.5 6V18C11.4792 18.5625 11.2812 19.0312 10.9062 19.4062C10.5312 19.7812 10.0625 19.9792 9.5 20H2.5C1.9375 19.9792 1.46875 19.7812 1.09375 19.4062C0.71875 19.0312 0.520833 18.5625 0.5 18V6ZM5 16.5H7C7.3125 16.5208 7.47917 16.6875 7.5 17C7.47917 17.3125 7.3125 17.4792 7 17.5H5C4.6875 17.4792 4.52083 17.3125 4.5 17C4.52083 16.6875 4.6875 16.5208 5 16.5Z" fill="black" fill-opacity="0.72"/>
</g>
<defs>
<clipPath id="clip0_1731_3887">
<rect width="12" height="24" fill="white"/>
</clipPath>
</defs>
</svg>
