<svg width="16" height="24" viewBox="0 0 16 24" fill="none" xmlns="http://www.w3.org/2000/svg">
<g id="label-paired / md / forward-md / fill" clip-path="url(#clip0_1731_4056)">
<path id="icon" d="M1.65625 17.7812C1.32292 18.0312 0.958333 18.0729 0.5625 17.9062C0.208333 17.7188 0.0208333 17.4167 0 17V7C0.0208333 6.58333 0.208333 6.28125 0.5625 6.09375C0.958333 5.92708 1.32292 5.96875 1.65625 6.21875L7 10.6875V12V13.3125L1.65625 17.7812ZM8 15V12V8V7C8.02083 6.58333 8.20833 6.28125 8.5625 6.09375C8.95833 5.92708 9.32292 5.96875 9.65625 6.21875L15.6562 11.2188C15.8854 11.4271 16 11.6875 16 12C16 12.3125 15.8854 12.5729 15.6562 12.7812L9.65625 17.7812C9.32292 18.0312 8.95833 18.0729 8.5625 17.9062C8.20833 17.7188 8.02083 17.4167 8 17V15Z" fill="black" fill-opacity="0.72"/>
</g>
<defs>
<clipPath id="clip0_1731_4056">
<rect width="16" height="24" fill="white"/>
</clipPath>
</defs>
</svg>
