<svg width="14" height="22" viewBox="0 0 14 22" fill="none" xmlns="http://www.w3.org/2000/svg">
<g id="label-paired / sm / right-to-bracket-sm / regular" clip-path="url(#clip0_1731_1937)">
<path id="icon" d="M8.72266 10.8047C8.74089 10.7865 8.75 10.7682 8.75 10.75C8.75 10.7318 8.74089 10.7135 8.72266 10.6953L5.11328 7.30469C5.07682 7.26823 5.04036 7.25 5.00391 7.25C4.89453 7.26823 4.83073 7.33203 4.8125 7.44141V9C4.79427 9.27344 4.64844 9.41927 4.375 9.4375H1.09375C0.966146 9.45573 0.893229 9.52865 0.875 9.65625V11.8438C0.893229 11.9714 0.966146 12.0443 1.09375 12.0625H4.375C4.64844 12.0807 4.79427 12.2266 4.8125 12.5V14.0586C4.83073 14.168 4.89453 14.2318 5.00391 14.25C5.04036 14.25 5.07682 14.2318 5.11328 14.1953L8.72266 10.8047ZM9.625 10.75C9.625 11.0234 9.52474 11.2513 9.32422 11.4336L5.71484 14.8516C5.51432 15.0339 5.27734 15.125 5.00391 15.125C4.69401 15.125 4.4388 15.0247 4.23828 14.8242C4.03776 14.6237 3.9375 14.3685 3.9375 14.0586V12.9375H1.09375C0.783854 12.9375 0.528646 12.8281 0.328125 12.6094C0.109375 12.4089 0 12.1536 0 11.8438V9.65625C0 9.34635 0.109375 9.09115 0.328125 8.89062C0.528646 8.67188 0.783854 8.5625 1.09375 8.5625H3.9375V7.44141C3.9375 7.13151 4.03776 6.8763 4.23828 6.67578C4.4388 6.47526 4.69401 6.375 5.00391 6.375C5.27734 6.375 5.51432 6.47526 5.71484 6.67578L9.32422 10.0664C9.52474 10.2487 9.625 10.4766 9.625 10.75ZM9.1875 16H11.8125C12.1771 15.9818 12.487 15.8542 12.7422 15.6172C12.9792 15.362 13.1068 15.0521 13.125 14.6875V6.8125C13.1068 6.44792 12.9792 6.13802 12.7422 5.88281C12.487 5.64583 12.1771 5.51823 11.8125 5.5H9.1875C8.91406 5.48177 8.76823 5.33594 8.75 5.0625C8.76823 4.78906 8.91406 4.64323 9.1875 4.625H11.8125C12.4323 4.64323 12.9518 4.85286 13.3711 5.25391C13.7721 5.67318 13.9818 6.19271 14 6.8125V14.6875C13.9818 15.3073 13.7721 15.8268 13.3711 16.2461C12.9518 16.6471 12.4323 16.8568 11.8125 16.875H9.1875C8.91406 16.8568 8.76823 16.7109 8.75 16.4375C8.76823 16.1641 8.91406 16.0182 9.1875 16Z" fill="black" fill-opacity="0.72"/>
</g>
<defs>
<clipPath id="clip0_1731_1937">
<rect width="14" height="22" fill="white"/>
</clipPath>
</defs>
</svg>
