<svg width="18" height="24" viewBox="0 0 18 24" fill="none" xmlns="http://www.w3.org/2000/svg">
<g id="label-paired / md / arrow-down-a-z-md / bold" clip-path="url(#clip0_1731_3649)">
<path id="icon" d="M1.46875 15.7812C1.17708 15.4271 1.17708 15.0729 1.46875 14.7188C1.82292 14.4271 2.17708 14.4271 2.53125 14.7188L4.25 16.4375V5.75C4.29167 5.29167 4.54167 5.04167 5 5C5.45833 5.04167 5.70833 5.29167 5.75 5.75V16.4375L7.46875 14.7188C7.82292 14.4271 8.17708 14.4271 8.53125 14.7188C8.82292 15.0729 8.82292 15.4271 8.53125 15.7812L5.53125 18.7812C5.17708 19.0729 4.82292 19.0729 4.46875 18.7812L1.46875 15.7812ZM11 13H15C15.3125 13.0208 15.5417 13.1667 15.6875 13.4375C15.7917 13.7292 15.75 14 15.5625 14.25L12.6562 17.5H15C15.4583 17.5417 15.7083 17.7917 15.75 18.25C15.7083 18.7083 15.4583 18.9583 15 19H11C10.6875 18.9792 10.4583 18.8333 10.3125 18.5625C10.2083 18.2708 10.25 18 10.4375 17.75L13.3438 14.5H11C10.5417 14.4583 10.2917 14.2083 10.25 13.75C10.2917 13.2917 10.5417 13.0417 11 13ZM13 5C13.3125 5.02083 13.5312 5.15625 13.6562 5.40625L16.1562 10.4062C16.3229 10.8438 16.2188 11.1771 15.8438 11.4062C15.4062 11.5729 15.0729 11.4688 14.8438 11.0938L14.4062 10.25C14.3646 10.25 14.3125 10.25 14.25 10.25H11.5938L11.1562 11.0938C10.9271 11.4688 10.5938 11.5833 10.1562 11.4375C9.78125 11.1875 9.67708 10.8438 9.84375 10.4062L12.3438 5.40625C12.4896 5.13542 12.7083 5 13 5ZM12.3438 8.75H13.6562L13 7.4375L12.3438 8.75Z" fill="black" fill-opacity="0.72"/>
</g>
<defs>
<clipPath id="clip0_1731_3649">
<rect width="18" height="24" fill="white"/>
</clipPath>
</defs>
</svg>
