<svg width="25" height="30" viewBox="0 0 25 30" fill="none" xmlns="http://www.w3.org/2000/svg">
<g id="label-paired / lg / laptop-lg / regular" clip-path="url(#clip0_1731_4857)">
<path id="icon" d="M20 8H5C4.63542 8 4.33594 8.11719 4.10156 8.35156C3.86719 8.58594 3.75 8.88542 3.75 9.25V19.25H2.5V9.25C2.52604 8.54688 2.77344 7.96094 3.24219 7.49219C3.71094 7.02344 4.29688 6.77604 5 6.75H20C20.7031 6.77604 21.2891 7.02344 21.7578 7.49219C22.2266 7.96094 22.474 8.54688 22.5 9.25V19.25H21.25V9.25C21.25 8.88542 21.1328 8.58594 20.8984 8.35156C20.6641 8.11719 20.3646 8 20 8ZM3.00781 23H21.9922C22.8516 22.9479 23.4115 22.5312 23.6719 21.75H1.32812C1.58854 22.5312 2.14844 22.9479 3.00781 23ZM0 21.2422C0.0520833 20.7995 0.299479 20.5521 0.742188 20.5H24.2578C24.7005 20.5521 24.9479 20.7995 25 21.2422C24.974 22.1016 24.6875 22.8177 24.1406 23.3906C23.5677 23.9375 22.8516 24.224 21.9922 24.25H3.00781C2.14844 24.224 1.44531 23.9375 0.898438 23.3906C0.325521 22.8177 0.0260417 22.1016 0 21.2422Z" fill="black" fill-opacity="0.72"/>
</g>
<defs>
<clipPath id="clip0_1731_4857">
<rect width="25" height="30" fill="white"/>
</clipPath>
</defs>
</svg>
