<svg width="11" height="18" viewBox="0 0 11 18" fill="none" xmlns="http://www.w3.org/2000/svg">
<g id="label-paired / caption / arrow-left-to-line-caption / regular" clip-path="url(#clip0_1731_924)">
<path id="icon" d="M0.25 13.625V5.375C0.265625 5.14062 0.390625 5.01562 0.625 5C0.859375 5.01562 0.984375 5.14062 1 5.375V13.625C0.984375 13.8594 0.859375 13.9844 0.625 14C0.390625 13.9844 0.265625 13.8594 0.25 13.625ZM2.61719 9.24219L5.61719 6.24219C5.78906 6.08594 5.96094 6.08594 6.13281 6.24219C6.28906 6.41406 6.28906 6.58594 6.13281 6.75781L3.78906 9.125H6.25H10.375C10.6094 9.14062 10.7344 9.26562 10.75 9.5C10.7344 9.73438 10.6094 9.85938 10.375 9.875H6.25H3.78906L6.13281 12.2422C6.28906 12.4141 6.28906 12.5859 6.13281 12.7578C5.96094 12.9141 5.78906 12.9141 5.61719 12.7578L2.61719 9.75781C2.46094 9.58594 2.46094 9.41406 2.61719 9.24219Z" fill="black" fill-opacity="0.72"/>
</g>
<defs>
<clipPath id="clip0_1731_924">
<rect width="11" height="18" fill="white"/>
</clipPath>
</defs>
</svg>
