<svg width="20" height="30" viewBox="0 0 20 30" fill="none" xmlns="http://www.w3.org/2000/svg">
<g id="label-paired / lg / reddit-lg" clip-path="url(#clip0_1731_14058)">
<path id="icon" d="M7.89062 17.4531C7.29167 17.375 6.96615 17.0495 6.91406 16.4766C6.96615 15.8776 7.29167 15.5521 7.89062 15.5C8.46354 15.5521 8.77604 15.8776 8.82812 16.4766C8.77604 17.0495 8.46354 17.375 7.89062 17.4531ZM19.6875 15.5C19.6615 17.2969 19.2188 18.9245 18.3594 20.3828C17.5 21.8411 16.3411 23 14.8828 23.8594C13.4245 24.7188 11.7969 25.1615 10 25.1875C8.20312 25.1615 6.57552 24.7188 5.11719 23.8594C3.65885 23 2.5 21.8411 1.64062 20.3828C0.78125 18.9245 0.338542 17.2969 0.3125 15.5C0.338542 13.7031 0.78125 12.0755 1.64062 10.6172C2.5 9.15885 3.65885 8 5.11719 7.14062C6.57552 6.28125 8.20312 5.83854 10 5.8125C11.7969 5.83854 13.4245 6.28125 14.8828 7.14062C16.3411 8 17.5 9.15885 18.3594 10.6172C19.2188 12.0755 19.6615 13.7031 19.6875 15.5ZM14.5312 13.8984C14.1406 13.8984 13.8281 14.0286 13.5938 14.2891C12.6823 13.6641 11.5625 13.3125 10.2344 13.2344L10.8984 10.1875L13.0859 10.6562C13.138 11.2552 13.4505 11.5807 14.0234 11.6328C14.6224 11.5807 14.9479 11.2552 15 10.6562C14.9479 10.0573 14.6224 9.73177 14.0234 9.67969C13.6328 9.70573 13.3464 9.88802 13.1641 10.2266L10.7812 9.67969C10.651 9.67969 10.5599 9.74479 10.5078 9.875L9.76562 13.2344C8.4375 13.3125 7.31771 13.6641 6.40625 14.2891C6.17188 14.0286 5.85938 13.8984 5.46875 13.8984C4.79167 13.9505 4.375 14.276 4.21875 14.875C4.08854 15.474 4.32292 15.9688 4.92188 16.3594C4.86979 16.5417 4.84375 16.737 4.84375 16.9453C4.89583 18.013 5.40365 18.8854 6.36719 19.5625C7.33073 20.2656 8.54167 20.6302 10 20.6562C11.4583 20.6302 12.6823 20.2656 13.6719 19.5625C14.6354 18.8854 15.1432 18.013 15.1953 16.9453C15.1953 16.737 15.1693 16.5286 15.1172 16.3203C15.6901 15.9557 15.9115 15.474 15.7812 14.875C15.625 14.276 15.2083 13.9505 14.5312 13.8984ZM11.8359 18.4297C11.4193 18.7943 10.8073 18.9766 10 18.9766C9.19271 18.9505 8.58073 18.7682 8.16406 18.4297C8.0599 18.3516 7.95573 18.3516 7.85156 18.4297C7.7474 18.5599 7.7474 18.6771 7.85156 18.7812C8.3724 19.224 9.08854 19.4453 10 19.4453C10.9115 19.4453 11.6276 19.224 12.1484 18.7812C12.2526 18.6771 12.2526 18.5599 12.1484 18.4297C12.0443 18.3516 11.9401 18.3516 11.8359 18.4297ZM12.1484 15.5C11.5495 15.5521 11.224 15.8776 11.1719 16.4766C11.224 17.0495 11.5495 17.375 12.1484 17.4531C12.7214 17.375 13.0339 17.0495 13.0859 16.4766C13.0339 15.8776 12.7214 15.5521 12.1484 15.5Z" fill="black" fill-opacity="0.72"/>
</g>
<defs>
<clipPath id="clip0_1731_14058">
<rect width="20" height="30" fill="white"/>
</clipPath>
</defs>
</svg>
