<svg width="12" height="18" viewBox="0 0 12 18" fill="none" xmlns="http://www.w3.org/2000/svg">
<g id="label-paired / caption / chevrons-left-caption / regular" clip-path="url(#clip0_1731_904)">
<path id="icon" d="M1.24219 9.24219L5.74219 4.74219C5.91406 4.58594 6.08594 4.58594 6.25781 4.74219C6.41406 4.91406 6.41406 5.08594 6.25781 5.25781L2.03906 9.5L6.25781 13.7422C6.41406 13.9141 6.41406 14.0859 6.25781 14.2578C6.08594 14.4141 5.91406 14.4141 5.74219 14.2578L1.24219 9.75781C1.08594 9.58594 1.08594 9.41406 1.24219 9.24219ZM10.2422 4.74219C10.4141 4.58594 10.5859 4.58594 10.7578 4.74219C10.9141 4.91406 10.9141 5.08594 10.7578 5.25781L6.53906 9.5L10.7578 13.7422C10.9141 13.9141 10.9141 14.0859 10.7578 14.2578C10.5859 14.4141 10.4141 14.4141 10.2422 14.2578L5.74219 9.75781C5.58594 9.58594 5.58594 9.41406 5.74219 9.24219L10.2422 4.74219Z" fill="black" fill-opacity="0.72"/>
</g>
<defs>
<clipPath id="clip0_1731_904">
<rect width="12" height="18" fill="white"/>
</clipPath>
</defs>
</svg>
