<svg width="16" height="22" viewBox="0 0 16 22" fill="none" xmlns="http://www.w3.org/2000/svg">
<g id="label-paired / sm / rectangle-barcode-sm / regular" clip-path="url(#clip0_1731_2995)">
<path id="icon" d="M1.875 5.5C1.61979 5.5 1.41016 5.58203 1.24609 5.74609C1.08203 5.91016 1 6.11979 1 6.375V15.125C1 15.3802 1.08203 15.5898 1.24609 15.7539C1.41016 15.918 1.61979 16 1.875 16H14.125C14.3802 16 14.5898 15.918 14.7539 15.7539C14.918 15.5898 15 15.3802 15 15.125V6.375C15 6.11979 14.918 5.91016 14.7539 5.74609C14.5898 5.58203 14.3802 5.5 14.125 5.5H1.875ZM0.125 6.375C0.143229 5.88281 0.316406 5.47266 0.644531 5.14453C0.972656 4.81641 1.38281 4.64323 1.875 4.625H14.125C14.6172 4.64323 15.0273 4.81641 15.3555 5.14453C15.6836 5.47266 15.8568 5.88281 15.875 6.375V15.125C15.8568 15.6172 15.6836 16.0273 15.3555 16.3555C15.0273 16.6836 14.6172 16.8568 14.125 16.875H1.875C1.38281 16.8568 0.972656 16.6836 0.644531 16.3555C0.316406 16.0273 0.143229 15.6172 0.125 15.125V6.375ZM2.75 7.6875C2.76823 7.41406 2.91406 7.26823 3.1875 7.25C3.46094 7.26823 3.60677 7.41406 3.625 7.6875V13.8125C3.60677 14.0859 3.46094 14.2318 3.1875 14.25C2.91406 14.2318 2.76823 14.0859 2.75 13.8125V7.6875ZM10.625 7.6875C10.6432 7.41406 10.7891 7.26823 11.0625 7.25C11.3359 7.26823 11.4818 7.41406 11.5 7.6875V13.8125C11.4818 14.0859 11.3359 14.2318 11.0625 14.25C10.7891 14.2318 10.6432 14.0859 10.625 13.8125V7.6875ZM12.8125 7.25C13.0859 7.26823 13.2318 7.41406 13.25 7.6875V13.8125C13.2318 14.0859 13.0859 14.2318 12.8125 14.25C12.5391 14.2318 12.3932 14.0859 12.375 13.8125V7.6875C12.3932 7.41406 12.5391 7.26823 12.8125 7.25ZM4.5 7.6875C4.51823 7.41406 4.66406 7.26823 4.9375 7.25C5.21094 7.26823 5.35677 7.41406 5.375 7.6875V13.8125C5.35677 14.0859 5.21094 14.2318 4.9375 14.25C4.66406 14.2318 4.51823 14.0859 4.5 13.8125V7.6875ZM6.6875 7.25C6.96094 7.26823 7.10677 7.41406 7.125 7.6875V13.8125C7.10677 14.0859 6.96094 14.2318 6.6875 14.25C6.41406 14.2318 6.26823 14.0859 6.25 13.8125V7.6875C6.26823 7.41406 6.41406 7.26823 6.6875 7.25ZM8.4375 7.6875C8.45573 7.41406 8.60156 7.26823 8.875 7.25C9.14844 7.26823 9.29427 7.41406 9.3125 7.6875V13.8125C9.29427 14.0859 9.14844 14.2318 8.875 14.25C8.60156 14.2318 8.45573 14.0859 8.4375 13.8125V7.6875Z" fill="black" fill-opacity="0.72"/>
</g>
<defs>
<clipPath id="clip0_1731_2995">
<rect width="16" height="22" fill="white"/>
</clipPath>
</defs>
</svg>
