<svg width="18" height="30" viewBox="0 0 18 30" fill="none" xmlns="http://www.w3.org/2000/svg">
<g id="label-paired / lg / square-minus-lg / fill" clip-path="url(#clip0_1731_5527)">
<path id="icon" d="M2.75 6.75H15.25C15.9531 6.77604 16.5391 7.02344 17.0078 7.49219C17.4766 7.96094 17.724 8.54688 17.75 9.25V21.75C17.724 22.4531 17.4766 23.0391 17.0078 23.5078C16.5391 23.9766 15.9531 24.224 15.25 24.25H2.75C2.04688 24.224 1.46094 23.9766 0.992188 23.5078C0.523438 23.0391 0.276042 22.4531 0.25 21.75V9.25C0.276042 8.54688 0.523438 7.96094 0.992188 7.49219C1.46094 7.02344 2.04688 6.77604 2.75 6.75ZM6.1875 14.5625C5.61458 14.6146 5.30208 14.9271 5.25 15.5C5.30208 16.0729 5.61458 16.3854 6.1875 16.4375H11.8125C12.3854 16.3854 12.6979 16.0729 12.75 15.5C12.6979 14.9271 12.3854 14.6146 11.8125 14.5625H6.1875Z" fill="black" fill-opacity="0.72"/>
</g>
<defs>
<clipPath id="clip0_1731_5527">
<rect width="18" height="30" fill="white"/>
</clipPath>
</defs>
</svg>
