<svg width="13" height="30" viewBox="0 0 13 30" fill="none" xmlns="http://www.w3.org/2000/svg">
<g id="label-paired / lg / six-lg / regular" clip-path="url(#clip0_1731_4493)">
<path id="icon" d="M11.5 18C11.474 16.5938 10.9922 15.4089 10.0547 14.4453C9.09115 13.5078 7.90625 13.026 6.5 13C5.09375 13.026 3.9349 13.5078 3.02344 14.4453C2.08594 15.3568 1.57812 16.5026 1.5 17.8828C1.5 17.9089 1.5 17.9219 1.5 17.9219C1.5 17.9479 1.5 17.974 1.5 18C1.52604 19.4062 2.00781 20.5911 2.94531 21.5547C3.90885 22.4922 5.09375 22.974 6.5 23C7.90625 22.974 9.09115 22.4922 10.0547 21.5547C10.9922 20.5911 11.474 19.4062 11.5 18ZM5.21094 11.9062C5.6276 11.8021 6.05729 11.75 6.5 11.75C8.27083 11.8021 9.74219 12.4141 10.9141 13.5859C12.0859 14.7578 12.6979 16.2292 12.75 18C12.6979 19.7708 12.0859 21.2422 10.9141 22.4141C9.74219 23.5859 8.27083 24.1979 6.5 24.25C4.72917 24.1979 3.25781 23.5859 2.08594 22.4141C0.914062 21.2422 0.302083 19.7708 0.25 18C0.25 17.9219 0.25 17.8438 0.25 17.7656C0.328125 16.2552 0.861979 14.9271 1.85156 13.7812L7.90625 6.94531C8.19271 6.6849 8.49219 6.67188 8.80469 6.90625C9.0651 7.19271 9.07812 7.49219 8.84375 7.80469L5.21094 11.9062Z" fill="black" fill-opacity="0.72"/>
</g>
<defs>
<clipPath id="clip0_1731_4493">
<rect width="13" height="30" fill="white"/>
</clipPath>
</defs>
</svg>
