<svg width="16" height="24" viewBox="0 0 16 24" fill="none" xmlns="http://www.w3.org/2000/svg">
<g id="label-paired / md / arrow-up-from-square-md / bold" clip-path="url(#clip0_1731_3177)">
<path id="icon" d="M8.53125 4.21875L12.0312 7.71875C12.3229 8.07292 12.3229 8.42708 12.0312 8.78125C11.6771 9.07292 11.3229 9.07292 10.9688 8.78125L8.75 6.5625V14.25C8.70833 14.7083 8.45833 14.9583 8 15C7.54167 14.9583 7.29167 14.7083 7.25 14.25V6.5625L5.03125 8.78125C4.67708 9.07292 4.32292 9.07292 3.96875 8.78125C3.67708 8.42708 3.67708 8.07292 3.96875 7.71875L7.46875 4.21875C7.82292 3.92708 8.17708 3.92708 8.53125 4.21875ZM2.25 5H2.5C2.95833 5.04167 3.20833 5.29167 3.25 5.75C3.20833 6.20833 2.95833 6.45833 2.5 6.5H2.25C1.79167 6.54167 1.54167 6.79167 1.5 7.25V17.75C1.54167 18.2083 1.79167 18.4583 2.25 18.5H13.75C14.2083 18.4583 14.4583 18.2083 14.5 17.75V7.25C14.4583 6.79167 14.2083 6.54167 13.75 6.5H13.5C13.0417 6.45833 12.7917 6.20833 12.75 5.75C12.7917 5.29167 13.0417 5.04167 13.5 5H13.75C14.3958 5.02083 14.9271 5.23958 15.3438 5.65625C15.7604 6.07292 15.9792 6.60417 16 7.25V17.75C15.9792 18.3958 15.7604 18.9271 15.3438 19.3438C14.9271 19.7604 14.3958 19.9792 13.75 20H2.25C1.60417 19.9792 1.07292 19.7604 0.65625 19.3438C0.239583 18.9271 0.0208333 18.3958 0 17.75V7.25C0.0208333 6.60417 0.239583 6.07292 0.65625 5.65625C1.07292 5.23958 1.60417 5.02083 2.25 5Z" fill="black" fill-opacity="0.72"/>
</g>
<defs>
<clipPath id="clip0_1731_3177">
<rect width="16" height="24" fill="white"/>
</clipPath>
</defs>
</svg>
