<svg width="12" height="24" viewBox="0 0 12 24" fill="none" xmlns="http://www.w3.org/2000/svg">
<g id="label-paired / md / file-chart-column-md / regular" clip-path="url(#clip0_1731_3778)">
<path id="icon" d="M10 19C10.2917 19 10.5312 18.9062 10.7188 18.7188C10.9062 18.5312 11 18.2917 11 18V10H7.5C7.08333 9.97917 6.72917 9.83333 6.4375 9.5625C6.16667 9.27083 6.02083 8.91667 6 8.5V5H2C1.70833 5 1.46875 5.09375 1.28125 5.28125C1.09375 5.46875 1 5.70833 1 6V18C1 18.2917 1.09375 18.5312 1.28125 18.7188C1.46875 18.9062 1.70833 19 2 19H10ZM7.5 9H11C10.9583 8.91667 10.9062 8.84375 10.8438 8.78125L7.21875 5.15625C7.15625 5.09375 7.08333 5.05208 7 5.03125V8.5C7.02083 8.8125 7.1875 8.97917 7.5 9ZM2 4H6.875C7.29167 4 7.64583 4.14583 7.9375 4.4375L11.5625 8.0625C11.8542 8.35417 12 8.70833 12 9.125V18C11.9792 18.5625 11.7812 19.0312 11.4062 19.4062C11.0312 19.7812 10.5625 19.9792 10 20H2C1.4375 19.9792 0.96875 19.7812 0.59375 19.4062C0.21875 19.0312 0.0208333 18.5625 0 18V6C0.0208333 5.4375 0.21875 4.96875 0.59375 4.59375C0.96875 4.21875 1.4375 4.02083 2 4ZM6.5 11.5V17.5C6.47917 17.8125 6.3125 17.9792 6 18C5.6875 17.9792 5.52083 17.8125 5.5 17.5V11.5C5.52083 11.1875 5.6875 11.0208 6 11C6.3125 11.0208 6.47917 11.1875 6.5 11.5ZM9.5 13.5V17.5C9.47917 17.8125 9.3125 17.9792 9 18C8.6875 17.9792 8.52083 17.8125 8.5 17.5V13.5C8.52083 13.1875 8.6875 13.0208 9 13C9.3125 13.0208 9.47917 13.1875 9.5 13.5ZM3.5 15.5V17.5C3.47917 17.8125 3.3125 17.9792 3 18C2.6875 17.9792 2.52083 17.8125 2.5 17.5V15.5C2.52083 15.1875 2.6875 15.0208 3 15C3.3125 15.0208 3.47917 15.1875 3.5 15.5Z" fill="black" fill-opacity="0.72"/>
</g>
<defs>
<clipPath id="clip0_1731_3778">
<rect width="12" height="24" fill="white"/>
</clipPath>
</defs>
</svg>
