<svg width="14" height="22" viewBox="0 0 14 22" fill="none" xmlns="http://www.w3.org/2000/svg">
<g id="label-paired / sm / circle-sort-down-sm / regular" clip-path="url(#clip0_1731_2379)">
<path id="icon" d="M0.875 10.75C0.893229 11.862 1.16667 12.8828 1.69531 13.8125C2.24219 14.7422 2.98958 15.4896 3.9375 16.0547C4.90365 16.6016 5.92448 16.875 7 16.875C8.07552 16.875 9.09635 16.6016 10.0625 16.0547C11.0104 15.4896 11.7578 14.7422 12.3047 13.8125C12.8333 12.8828 13.1068 11.862 13.125 10.75C13.1068 9.63802 12.8333 8.61719 12.3047 7.6875C11.7578 6.75781 11.0104 6.01042 10.0625 5.44531C9.09635 4.89844 8.07552 4.625 7 4.625C5.92448 4.625 4.90365 4.89844 3.9375 5.44531C2.98958 6.01042 2.24219 6.75781 1.69531 7.6875C1.16667 8.61719 0.893229 9.63802 0.875 10.75ZM14 10.75C13.9818 12.026 13.6719 13.1927 13.0703 14.25C12.4505 15.3073 11.5938 16.1641 10.5 16.8203C9.38802 17.4401 8.22135 17.75 7 17.75C5.77865 17.75 4.61198 17.4401 3.5 16.8203C2.40625 16.1641 1.54948 15.3073 0.929688 14.25C0.328125 13.1927 0.0182292 12.026 0 10.75C0.0182292 9.47396 0.328125 8.30729 0.929688 7.25C1.54948 6.19271 2.40625 5.33594 3.5 4.67969C4.61198 4.0599 5.77865 3.75 7 3.75C8.22135 3.75 9.38802 4.0599 10.5 4.67969C11.5938 5.33594 12.4505 6.19271 13.0703 7.25C13.6719 8.30729 13.9818 9.47396 14 10.75ZM6.69922 14.9883L4.07422 12.3633C3.94661 12.2357 3.91016 12.0807 3.96484 11.8984C4.05599 11.7161 4.19271 11.625 4.375 11.625H9.625C9.80729 11.6432 9.94401 11.7344 10.0352 11.8984C10.0898 12.0807 10.0534 12.2357 9.92578 12.3633L7.30078 14.9883C7.10026 15.1706 6.89974 15.1706 6.69922 14.9883ZM5.44141 12.5L7 14.0586L8.55859 12.5H5.44141ZM4.07422 9.13672L6.69922 6.51172C6.89974 6.32943 7.10026 6.32943 7.30078 6.51172L9.92578 9.13672C10.1081 9.33724 10.1081 9.53776 9.92578 9.73828C9.72526 9.92057 9.52474 9.92057 9.32422 9.73828L7 7.44141L4.67578 9.73828C4.47526 9.92057 4.27474 9.92057 4.07422 9.73828C3.89193 9.53776 3.89193 9.33724 4.07422 9.13672Z" fill="black" fill-opacity="0.72"/>
</g>
<defs>
<clipPath id="clip0_1731_2379">
<rect width="14" height="22" fill="white"/>
</clipPath>
</defs>
</svg>
