<svg width="21" height="36" viewBox="0 0 21 36" fill="none" xmlns="http://www.w3.org/2000/svg">
<g id="label-paired / xl / square-minus-xl / bold" clip-path="url(#clip0_1731_5827)">
<path id="icon" d="M3 9.75C2.53125 9.78125 2.28125 10.0312 2.25 10.5V25.5C2.28125 25.9688 2.53125 26.2188 3 26.25H18C18.4688 26.2188 18.7188 25.9688 18.75 25.5V10.5C18.7188 10.0312 18.4688 9.78125 18 9.75H3ZM0 10.5C0.03125 9.65625 0.328125 8.95312 0.890625 8.39062C1.45312 7.82812 2.15625 7.53125 3 7.5H18C18.8438 7.53125 19.5469 7.82812 20.1094 8.39062C20.6719 8.95312 20.9688 9.65625 21 10.5V25.5C20.9688 26.3438 20.6719 27.0469 20.1094 27.6094C19.5469 28.1719 18.8438 28.4688 18 28.5H3C2.15625 28.4688 1.45312 28.1719 0.890625 27.6094C0.328125 27.0469 0.03125 26.3438 0 25.5V10.5ZM7.125 16.875H13.875C14.5625 16.9375 14.9375 17.3125 15 18C14.9375 18.6875 14.5625 19.0625 13.875 19.125H7.125C6.4375 19.0625 6.0625 18.6875 6 18C6.0625 17.3125 6.4375 16.9375 7.125 16.875Z" fill="black" fill-opacity="0.72"/>
</g>
<defs>
<clipPath id="clip0_1731_5827">
<rect width="21" height="36" fill="white"/>
</clipPath>
</defs>
</svg>
