<svg width="12" height="18" viewBox="0 0 12 18" fill="none" xmlns="http://www.w3.org/2000/svg">
<g id="label-paired / caption / envelope-caption / bold" clip-path="url(#clip0_1731_1300)">
<path id="icon" d="M1.5 6.125C1.26562 6.14062 1.14062 6.26562 1.125 6.5V7.01562L5.17969 10.3438C5.42969 10.5312 5.70312 10.625 6 10.625C6.3125 10.625 6.59375 10.5312 6.84375 10.3438L10.875 7.01562V6.5C10.8594 6.26562 10.7344 6.14062 10.5 6.125H1.5ZM1.125 8.46875V12.5C1.14062 12.7344 1.26562 12.8594 1.5 12.875H10.5C10.7344 12.8594 10.8594 12.7344 10.875 12.5V8.46875L7.54688 11.2109C7.07812 11.5703 6.5625 11.75 6 11.75C5.4375 11.75 4.92188 11.5703 4.45312 11.2109L1.125 8.46875ZM0 6.5C0.015625 6.07812 0.164062 5.72656 0.445312 5.44531C0.726562 5.16406 1.07812 5.01562 1.5 5H10.5C10.9219 5.01562 11.2734 5.16406 11.5547 5.44531C11.8359 5.72656 11.9844 6.07812 12 6.5V12.5C11.9844 12.9219 11.8359 13.2734 11.5547 13.5547C11.2734 13.8359 10.9219 13.9844 10.5 14H1.5C1.07812 13.9844 0.726562 13.8359 0.445312 13.5547C0.164062 13.2734 0.015625 12.9219 0 12.5V6.5Z" fill="black" fill-opacity="0.72"/>
</g>
<defs>
<clipPath id="clip0_1731_1300">
<rect width="12" height="18" fill="white"/>
</clipPath>
</defs>
</svg>
