<svg width="14" height="22" viewBox="0 0 14 22" fill="none" xmlns="http://www.w3.org/2000/svg">
<g id="label-paired / sm / circle-calendar-sm / bold" clip-path="url(#clip0_1731_1864)">
<path id="icon" d="M12.6875 10.75C12.6875 9.71094 12.4323 8.76302 11.9219 7.90625C11.4297 7.04948 10.737 6.35677 9.84375 5.82812C8.95052 5.31771 8.0026 5.0625 7 5.0625C5.9974 5.0625 5.04948 5.31771 4.15625 5.82812C3.26302 6.35677 2.57031 7.04948 2.07812 7.90625C1.56771 8.76302 1.3125 9.71094 1.3125 10.75C1.3125 11.7891 1.56771 12.737 2.07812 13.5938C2.57031 14.4505 3.26302 15.1432 4.15625 15.6719C5.04948 16.1823 5.9974 16.4375 7 16.4375C8.0026 16.4375 8.95052 16.1823 9.84375 15.6719C10.737 15.1432 11.4297 14.4505 11.9219 13.5938C12.4323 12.737 12.6875 11.7891 12.6875 10.75ZM0 10.75C0.0182292 9.47396 0.328125 8.30729 0.929688 7.25C1.54948 6.19271 2.40625 5.33594 3.5 4.67969C4.61198 4.0599 5.77865 3.75 7 3.75C8.22135 3.75 9.38802 4.0599 10.5 4.67969C11.5938 5.33594 12.4505 6.19271 13.0703 7.25C13.6719 8.30729 13.9818 9.47396 14 10.75C13.9818 12.026 13.6719 13.1927 13.0703 14.25C12.4505 15.3073 11.5938 16.1641 10.5 16.8203C9.38802 17.4401 8.22135 17.75 7 17.75C5.77865 17.75 4.61198 17.4401 3.5 16.8203C2.40625 16.1641 1.54948 15.3073 0.929688 14.25C0.328125 13.1927 0.0182292 12.026 0 10.75ZM5.6875 6.8125C5.96094 6.83073 6.10677 6.97656 6.125 7.25V7.6875H7.875V7.25C7.89323 6.97656 8.03906 6.83073 8.3125 6.8125C8.58594 6.83073 8.73177 6.97656 8.75 7.25V7.6875H9.1875C9.55208 7.70573 9.86198 7.83333 10.1172 8.07031C10.3542 8.32552 10.4818 8.63542 10.5 9V9.875V12.5C10.4818 12.8646 10.3542 13.1745 10.1172 13.4297C9.86198 13.6667 9.55208 13.7943 9.1875 13.8125H4.8125C4.44792 13.7943 4.13802 13.6667 3.88281 13.4297C3.64583 13.1745 3.51823 12.8646 3.5 12.5V9.875V9C3.51823 8.63542 3.64583 8.32552 3.88281 8.07031C4.13802 7.83333 4.44792 7.70573 4.8125 7.6875H5.25V7.25C5.26823 6.97656 5.41406 6.83073 5.6875 6.8125ZM4.8125 12.5H9.1875V9.875H4.8125V12.5Z" fill="black" fill-opacity="0.72"/>
</g>
<defs>
<clipPath id="clip0_1731_1864">
<rect width="14" height="22" fill="white"/>
</clipPath>
</defs>
</svg>
