<svg width="14" height="24" viewBox="0 0 14 24" fill="none" xmlns="http://www.w3.org/2000/svg">
<g id="label-paired / md / image-polaroid-user-md / bold" clip-path="url(#clip0_1731_4297)">
<path id="icon" d="M1.5 17C1.52083 17.3125 1.6875 17.4792 2 17.5H12C12.3125 17.4792 12.4792 17.3125 12.5 17V15.5H1.5V17ZM10.4375 14H12.5V7C12.4792 6.6875 12.3125 6.52083 12 6.5H2C1.6875 6.52083 1.52083 6.6875 1.5 7V14H3.5625C3.6875 13.5625 3.91667 13.2083 4.25 12.9375C4.60417 12.6458 5.02083 12.5 5.5 12.5H8.5C8.97917 12.5 9.39583 12.6458 9.75 12.9375C10.0833 13.2083 10.3125 13.5625 10.4375 14ZM14 7V14V14.75V15.5V17C13.9792 17.5625 13.7812 18.0312 13.4062 18.4062C13.0312 18.7812 12.5625 18.9792 12 19H2C1.4375 18.9792 0.96875 18.7812 0.59375 18.4062C0.21875 18.0312 0.0208333 17.5625 0 17V15.5V14.75V14V7C0.0208333 6.4375 0.21875 5.96875 0.59375 5.59375C0.96875 5.21875 1.4375 5.02083 2 5H12C12.5625 5.02083 13.0312 5.21875 13.4062 5.59375C13.7812 5.96875 13.9792 6.4375 14 7ZM5 9.5C5.02083 8.75 5.35417 8.17708 6 7.78125C6.66667 7.40625 7.33333 7.40625 8 7.78125C8.64583 8.17708 8.97917 8.75 9 9.5C8.97917 10.25 8.64583 10.8229 8 11.2188C7.33333 11.5938 6.66667 11.5938 6 11.2188C5.35417 10.8229 5.02083 10.25 5 9.5Z" fill="black" fill-opacity="0.72"/>
</g>
<defs>
<clipPath id="clip0_1731_4297">
<rect width="14" height="24" fill="white"/>
</clipPath>
</defs>
</svg>
