<svg width="15" height="30" viewBox="0 0 15 30" fill="none" xmlns="http://www.w3.org/2000/svg">
<g id="label-paired / lg / four-lg / bold" clip-path="url(#clip0_1731_4485)">
<path id="icon" d="M7.38281 8.11719L2.5 17.375H10.625V11.4375C10.6771 10.8646 10.9896 10.5521 11.5625 10.5C12.1354 10.5521 12.4479 10.8646 12.5 11.4375V17.375H14.0625C14.6354 17.4271 14.9479 17.7396 15 18.3125C14.9479 18.8854 14.6354 19.1979 14.0625 19.25H12.5V23.3125C12.4479 23.8854 12.1354 24.1979 11.5625 24.25C10.9896 24.1979 10.6771 23.8854 10.625 23.3125V19.25H0.9375C0.598958 19.25 0.325521 19.0938 0.117188 18.7812C-0.0390625 18.4948 -0.0390625 18.1953 0.117188 17.8828L5.74219 7.25781C6.05469 6.76302 6.47135 6.63281 6.99219 6.86719C7.48698 7.17969 7.61719 7.59635 7.38281 8.11719Z" fill="black" fill-opacity="0.72"/>
</g>
<defs>
<clipPath id="clip0_1731_4485">
<rect width="15" height="30" fill="white"/>
</clipPath>
</defs>
</svg>
