<svg width="16" height="24" viewBox="0 0 16 24" fill="none" xmlns="http://www.w3.org/2000/svg">
<g id="label-paired / md / arrow-up-right-from-square-md / regular" clip-path="url(#clip0_1731_3180)">
<path id="icon" d="M10.5 4H15.5C15.8125 4.02083 15.9792 4.1875 16 4.5V9.5C15.9792 9.8125 15.8125 9.97917 15.5 10C15.1875 9.97917 15.0208 9.8125 15 9.5V5.71875L7.34375 13.3438C7.11458 13.5521 6.88542 13.5521 6.65625 13.3438C6.44792 13.1146 6.44792 12.8854 6.65625 12.6562L14.2812 5H10.5C10.1875 4.97917 10.0208 4.8125 10 4.5C10.0208 4.1875 10.1875 4.02083 10.5 4ZM2 5H6.5C6.8125 5.02083 6.97917 5.1875 7 5.5C6.97917 5.8125 6.8125 5.97917 6.5 6H2C1.70833 6 1.46875 6.09375 1.28125 6.28125C1.09375 6.46875 1 6.70833 1 7V18C1 18.2917 1.09375 18.5312 1.28125 18.7188C1.46875 18.9062 1.70833 19 2 19H13C13.2917 19 13.5312 18.9062 13.7188 18.7188C13.9062 18.5312 14 18.2917 14 18V13.5C14.0208 13.1875 14.1875 13.0208 14.5 13C14.8125 13.0208 14.9792 13.1875 15 13.5V18C14.9792 18.5625 14.7812 19.0312 14.4062 19.4062C14.0312 19.7812 13.5625 19.9792 13 20H2C1.4375 19.9792 0.96875 19.7812 0.59375 19.4062C0.21875 19.0312 0.0208333 18.5625 0 18V7C0.0208333 6.4375 0.21875 5.96875 0.59375 5.59375C0.96875 5.21875 1.4375 5.02083 2 5Z" fill="black" fill-opacity="0.72"/>
</g>
<defs>
<clipPath id="clip0_1731_3180">
<rect width="16" height="24" fill="white"/>
</clipPath>
</defs>
</svg>
