<svg width="18" height="22" viewBox="0 0 18 22" fill="none" xmlns="http://www.w3.org/2000/svg">
<g id="label-paired / sm / laptop-sm / bold" clip-path="url(#clip0_1731_2644)">
<path id="icon" d="M14.25 5.9375H3.75C3.47656 5.95573 3.33073 6.10156 3.3125 6.375V12.5H2V6.375C2.01823 5.88281 2.19141 5.47266 2.51953 5.14453C2.84766 4.81641 3.25781 4.64323 3.75 4.625H14.25C14.7422 4.64323 15.1523 4.81641 15.4805 5.14453C15.8086 5.47266 15.9818 5.88281 16 6.375V12.5H14.6875V6.375C14.6693 6.10156 14.5234 5.95573 14.25 5.9375ZM2.875 15.5625H15.125C15.7266 15.526 16.1367 15.2344 16.3555 14.6875H1.64453C1.86328 15.2344 2.27344 15.526 2.875 15.5625ZM0.25 14.25C0.25 13.9948 0.332031 13.7852 0.496094 13.6211C0.660156 13.457 0.869792 13.375 1.125 13.375H16.875C17.1302 13.375 17.3398 13.457 17.5039 13.6211C17.668 13.7852 17.75 13.9948 17.75 14.25C17.7318 14.9974 17.4766 15.6172 16.9844 16.1094C16.4922 16.6016 15.8724 16.8568 15.125 16.875H2.875C2.1276 16.8568 1.50781 16.6016 1.01562 16.1094C0.523438 15.6172 0.268229 14.9974 0.25 14.25Z" fill="black" fill-opacity="0.72"/>
</g>
<defs>
<clipPath id="clip0_1731_2644">
<rect width="18" height="22" fill="white"/>
</clipPath>
</defs>
</svg>
