<svg width="12" height="24" viewBox="0 0 12 24" fill="none" xmlns="http://www.w3.org/2000/svg">
<g id="label-paired / md / computer-mouse-scrollwheel-md / regular" clip-path="url(#clip0_1731_3915)">
<path id="icon" d="M11 15V9C10.9792 7.875 10.5938 6.92708 9.84375 6.15625C9.07292 5.40625 8.125 5.02083 7 5H5C3.875 5.02083 2.92708 5.40625 2.15625 6.15625C1.40625 6.92708 1.02083 7.875 1 9V15C1.02083 16.125 1.40625 17.0729 2.15625 17.8438C2.92708 18.5938 3.875 18.9792 5 19H7C8.125 18.9792 9.07292 18.5938 9.84375 17.8438C10.5938 17.0729 10.9792 16.125 11 15ZM0 9C0.0416667 7.58333 0.53125 6.40625 1.46875 5.46875C2.40625 4.53125 3.58333 4.04167 5 4H7C8.41667 4.04167 9.59375 4.53125 10.5312 5.46875C11.4688 6.40625 11.9583 7.58333 12 9V15C11.9583 16.4167 11.4688 17.5938 10.5312 18.5312C9.59375 19.4688 8.41667 19.9583 7 20H5C3.58333 19.9583 2.40625 19.4688 1.46875 18.5312C0.53125 17.5938 0.0416667 16.4167 0 15V9ZM6.5 7.5V9.5C6.47917 9.8125 6.3125 9.97917 6 10C5.6875 9.97917 5.52083 9.8125 5.5 9.5V7.5C5.52083 7.1875 5.6875 7.02083 6 7C6.3125 7.02083 6.47917 7.1875 6.5 7.5Z" fill="black" fill-opacity="0.72"/>
</g>
<defs>
<clipPath id="clip0_1731_3915">
<rect width="12" height="24" fill="white"/>
</clipPath>
</defs>
</svg>
