<svg width="13" height="22" viewBox="0 0 13 22" fill="none" xmlns="http://www.w3.org/2000/svg">
<g id="label-paired / sm / arrow-left-to-line-sm / bold" clip-path="url(#clip0_1731_2184)">
<path id="icon" d="M0.375 15.3438V6.15625C0.411458 5.75521 0.630208 5.53646 1.03125 5.5C1.43229 5.53646 1.65104 5.75521 1.6875 6.15625V15.3438C1.65104 15.7448 1.43229 15.9635 1.03125 16C0.630208 15.9635 0.411458 15.7448 0.375 15.3438ZM4.09375 10.2852L7.8125 6.78516C8.1224 6.52995 8.42318 6.53906 8.71484 6.8125C8.97005 7.1224 8.96094 7.43229 8.6875 7.74219L6.19922 10.0938H8.46875H11.9688C12.3698 10.1302 12.5885 10.349 12.625 10.75C12.5885 11.151 12.3698 11.3698 11.9688 11.4062H8.46875H6.19922L8.71484 13.7852C8.97005 14.0768 8.97917 14.3867 8.74219 14.7148C8.43229 14.9701 8.1224 14.9792 7.8125 14.7422L4.09375 11.2422C3.94792 11.0964 3.875 10.9323 3.875 10.75C3.875 10.5677 3.94792 10.4128 4.09375 10.2852Z" fill="black" fill-opacity="0.72"/>
</g>
<defs>
<clipPath id="clip0_1731_2184">
<rect width="13" height="22" fill="white"/>
</clipPath>
</defs>
</svg>
