<svg width="24" height="36" viewBox="0 0 24 36" fill="none" xmlns="http://www.w3.org/2000/svg">
<g id="label-paired / xl / window-maximize-xl / bold" clip-path="url(#clip0_1731_5723)">
<path id="icon" d="M0 10.2188C0.0625 9.8125 0.1875 9.4375 0.375 9.09375C0.625 8.59375 1 8.20312 1.5 7.92188C1.875 7.70312 2.28125 7.5625 2.71875 7.5C2.8125 7.5 2.90625 7.5 3 7.5H21C21.8438 7.53125 22.5469 7.82812 23.1094 8.39062C23.6719 8.95312 23.9688 9.65625 24 10.5V16.5V25.5C23.9688 26.3438 23.6719 27.0469 23.1094 27.6094C22.5469 28.1719 21.8438 28.4688 21 28.5H3C2.15625 28.4688 1.45312 28.1719 0.890625 27.6094C0.328125 27.0469 0.03125 26.3438 0 25.5V16.5V10.5C0 10.4062 0 10.3125 0 10.2188ZM2.25 16.5V25.5C2.28125 25.9688 2.53125 26.2188 3 26.25H21C21.4688 26.2188 21.7188 25.9688 21.75 25.5V16.5H2.25Z" fill="black" fill-opacity="0.72"/>
</g>
<defs>
<clipPath id="clip0_1731_5723">
<rect width="24" height="36" fill="white"/>
</clipPath>
</defs>
</svg>
