<svg width="30" height="36" viewBox="0 0 30 36" fill="none" xmlns="http://www.w3.org/2000/svg">
<g id="label-paired / xl / chart-ohlc-xl / regular" clip-path="url(#clip0_1731_6308)">
<path id="icon" d="M15 6C15.375 6 15.75 6.375 15.75 6.75V9H18C18.375 9 18.75 9.375 18.75 9.75C18.75 10.1719 18.375 10.5 18 10.5H15.75V26.25C15.75 26.6719 15.375 27 15 27C14.5781 27 14.25 26.6719 14.25 26.25V24H12C11.5781 24 11.25 23.6719 11.25 23.25C11.25 22.875 11.5781 22.5 12 22.5H14.25V6.75C14.25 6.375 14.5781 6 15 6ZM24.75 9C25.125 9 25.5 9.375 25.5 9.75V19.5H27.75C28.125 19.5 28.5 19.875 28.5 20.25C28.5 20.6719 28.125 21 27.75 21H25.5V23.25C25.5 23.6719 25.125 24 24.75 24C24.3281 24 24 23.6719 24 23.25V13.5H21.75C21.3281 13.5 21 13.1719 21 12.75C21 12.375 21.3281 12 21.75 12H24V9.75C24 9.375 24.3281 9 24.75 9ZM5.25 15C5.625 15 6 15.375 6 15.75V25.5H8.25C8.625 25.5 9 25.875 9 26.25C9 26.6719 8.625 27 8.25 27H6V29.25C6 29.6719 5.625 30 5.25 30C4.82812 30 4.5 29.6719 4.5 29.25V19.5H2.25C1.82812 19.5 1.5 19.1719 1.5 18.75C1.5 18.375 1.82812 18 2.25 18H4.5V15.75C4.5 15.375 4.82812 15 5.25 15Z" fill="black" fill-opacity="0.72"/>
</g>
<defs>
<clipPath id="clip0_1731_6308">
<rect width="30" height="36" fill="white"/>
</clipPath>
</defs>
</svg>
