<svg width="24" height="36" viewBox="0 0 24 36" fill="none" xmlns="http://www.w3.org/2000/svg">
<g id="label-paired / xl / circle-four-xl / regular" clip-path="url(#clip0_1731_6091)">
<path id="icon" d="M22.5 18C22.4688 16.0938 22 14.3438 21.0938 12.75C20.1562 11.1562 18.875 9.875 17.25 8.90625C15.5938 7.96875 13.8438 7.5 12 7.5C10.1562 7.5 8.40625 7.96875 6.75 8.90625C5.125 9.875 3.84375 11.1562 2.90625 12.75C2 14.3438 1.53125 16.0938 1.5 18C1.53125 19.9062 2 21.6562 2.90625 23.25C3.84375 24.8438 5.125 26.125 6.75 27.0938C8.40625 28.0312 10.1562 28.5 12 28.5C13.8438 28.5 15.5938 28.0312 17.25 27.0938C18.875 26.125 20.1562 24.8438 21.0938 23.25C22 21.6562 22.4688 19.9062 22.5 18ZM0 18C0.03125 15.8125 0.5625 13.8125 1.59375 12C2.65625 10.1875 4.125 8.71875 6 7.59375C7.90625 6.53125 9.90625 6 12 6C14.0938 6 16.0938 6.53125 18 7.59375C19.875 8.71875 21.3438 10.1875 22.4062 12C23.4375 13.8125 23.9688 15.8125 24 18C23.9688 20.1875 23.4375 22.1875 22.4062 24C21.3438 25.8125 19.875 27.2812 18 28.4062C16.0938 29.4688 14.0938 30 12 30C9.90625 30 7.90625 29.4688 6 28.4062C4.125 27.2812 2.65625 25.8125 1.59375 24C0.5625 22.1875 0.03125 20.1875 0 18ZM10.7812 12.0469C11.1875 12.2656 11.3281 12.5938 11.2031 13.0312L8.625 19.5H13.5V15.75C13.5312 15.2812 13.7812 15.0312 14.25 15C14.7188 15.0312 14.9688 15.2812 15 15.75V19.5H15.75C16.2188 19.5312 16.4688 19.7812 16.5 20.25C16.4688 20.7188 16.2188 20.9688 15.75 21H15V23.25C14.9688 23.7188 14.7188 23.9688 14.25 24C13.7812 23.9688 13.5312 23.7188 13.5 23.25V21H7.5C7.25 21 7.04688 20.8906 6.89062 20.6719C6.73438 20.4531 6.70312 20.2188 6.79688 19.9688L9.79688 12.4688C10.0156 12.0625 10.3438 11.9219 10.7812 12.0469Z" fill="black" fill-opacity="0.72"/>
</g>
<defs>
<clipPath id="clip0_1731_6091">
<rect width="24" height="36" fill="white"/>
</clipPath>
</defs>
</svg>
