<svg width="14" height="24" viewBox="0 0 14 24" fill="none" xmlns="http://www.w3.org/2000/svg">
<g id="label-paired / md / qrcode-md / bold" clip-path="url(#clip0_1731_4260)">
<path id="icon" d="M4.5 6.5H1.5V9.5H4.5V6.5ZM1.5 5H4.5C4.91667 5.02083 5.27083 5.16667 5.5625 5.4375C5.83333 5.72917 5.97917 6.08333 6 6.5V9.5C5.97917 9.91667 5.83333 10.2708 5.5625 10.5625C5.27083 10.8333 4.91667 10.9792 4.5 11H1.5C1.08333 10.9792 0.729167 10.8333 0.4375 10.5625C0.166667 10.2708 0.0208333 9.91667 0 9.5V6.5C0.0208333 6.08333 0.166667 5.72917 0.4375 5.4375C0.729167 5.16667 1.08333 5.02083 1.5 5ZM4.5 14.5H1.5V17.5H4.5V14.5ZM1.5 13H4.5C4.91667 13.0208 5.27083 13.1667 5.5625 13.4375C5.83333 13.7292 5.97917 14.0833 6 14.5V17.5C5.97917 17.9167 5.83333 18.2708 5.5625 18.5625C5.27083 18.8333 4.91667 18.9792 4.5 19H1.5C1.08333 18.9792 0.729167 18.8333 0.4375 18.5625C0.166667 18.2708 0.0208333 17.9167 0 17.5V14.5C0.0208333 14.0833 0.166667 13.7292 0.4375 13.4375C0.729167 13.1667 1.08333 13.0208 1.5 13ZM9.5 6.5V9.5H12.5V6.5H9.5ZM8 6.5C8.02083 6.08333 8.16667 5.72917 8.4375 5.4375C8.72917 5.16667 9.08333 5.02083 9.5 5H12.5C12.9167 5.02083 13.2708 5.16667 13.5625 5.4375C13.8333 5.72917 13.9792 6.08333 14 6.5V9.5C13.9792 9.91667 13.8333 10.2708 13.5625 10.5625C13.2708 10.8333 12.9167 10.9792 12.5 11H9.5C9.08333 10.9792 8.72917 10.8333 8.4375 10.5625C8.16667 10.2708 8.02083 9.91667 8 9.5V6.5ZM2.25 7.75C2.27083 7.4375 2.4375 7.27083 2.75 7.25H3.25C3.5625 7.27083 3.72917 7.4375 3.75 7.75V8.25C3.72917 8.5625 3.5625 8.72917 3.25 8.75H2.75C2.4375 8.72917 2.27083 8.5625 2.25 8.25V7.75ZM2.75 15.25H3.25C3.5625 15.2708 3.72917 15.4375 3.75 15.75V16.25C3.72917 16.5625 3.5625 16.7292 3.25 16.75H2.75C2.4375 16.7292 2.27083 16.5625 2.25 16.25V15.75C2.27083 15.4375 2.4375 15.2708 2.75 15.25ZM10.25 7.75C10.2708 7.4375 10.4375 7.27083 10.75 7.25H11.25C11.5625 7.27083 11.7292 7.4375 11.75 7.75V8.25C11.7292 8.5625 11.5625 8.72917 11.25 8.75H10.75C10.4375 8.72917 10.2708 8.5625 10.25 8.25V7.75ZM8 13.5C8.02083 13.1875 8.1875 13.0208 8.5 13H10.5C10.8125 13.0208 10.9792 13.1875 11 13.5C11.0208 13.8125 11.1875 13.9792 11.5 14H12.5C12.8125 13.9792 12.9792 13.8125 13 13.5C13.0208 13.1875 13.1875 13.0208 13.5 13C13.8125 13.0208 13.9792 13.1875 14 13.5V16.5C13.9792 16.8125 13.8125 16.9792 13.5 17H11.5C11.1875 16.9792 11.0208 16.8125 11 16.5C10.9792 16.1875 10.8125 16.0208 10.5 16C10.1875 16.0208 10.0208 16.1875 10 16.5V18.5C9.97917 18.8125 9.8125 18.9792 9.5 19H8.5C8.1875 18.9792 8.02083 18.8125 8 18.5V13.5ZM11.5 18C11.8125 18.0208 11.9792 18.1875 12 18.5C11.9792 18.8125 11.8125 18.9792 11.5 19C11.1875 18.9792 11.0208 18.8125 11 18.5C11.0208 18.1875 11.1875 18.0208 11.5 18ZM13.5 18C13.8125 18.0208 13.9792 18.1875 14 18.5C13.9792 18.8125 13.8125 18.9792 13.5 19C13.1875 18.9792 13.0208 18.8125 13 18.5C13.0208 18.1875 13.1875 18.0208 13.5 18Z" fill="black" fill-opacity="0.72"/>
</g>
<defs>
<clipPath id="clip0_1731_4260">
<rect width="14" height="24" fill="white"/>
</clipPath>
</defs>
</svg>
