<svg width="5" height="30" viewBox="0 0 5 30" fill="none" xmlns="http://www.w3.org/2000/svg">
<g id="label-paired / lg / ellipsis-vertical-lg / bold" clip-path="url(#clip0_1731_5386)">
<path id="icon" d="M2.5 19.875C3.20312 19.901 3.75 20.2135 4.14062 20.8125C4.45312 21.4375 4.45312 22.0625 4.14062 22.6875C3.75 23.2865 3.20312 23.599 2.5 23.625C1.79688 23.599 1.25 23.2865 0.859375 22.6875C0.546875 22.0625 0.546875 21.4375 0.859375 20.8125C1.25 20.2135 1.79688 19.901 2.5 19.875ZM2.5 13.625C3.20312 13.651 3.75 13.9635 4.14062 14.5625C4.45312 15.1875 4.45312 15.8125 4.14062 16.4375C3.75 17.0365 3.20312 17.349 2.5 17.375C1.79688 17.349 1.25 17.0365 0.859375 16.4375C0.546875 15.8125 0.546875 15.1875 0.859375 14.5625C1.25 13.9635 1.79688 13.651 2.5 13.625ZM4.375 9.25C4.34896 9.95312 4.03646 10.5 3.4375 10.8906C2.8125 11.2031 2.1875 11.2031 1.5625 10.8906C0.963542 10.5 0.651042 9.95312 0.625 9.25C0.651042 8.54688 0.963542 8 1.5625 7.60938C2.1875 7.29688 2.8125 7.29688 3.4375 7.60938C4.03646 8 4.34896 8.54688 4.375 9.25Z" fill="black" fill-opacity="0.72"/>
</g>
<defs>
<clipPath id="clip0_1731_5386">
<rect width="5" height="30" fill="white"/>
</clipPath>
</defs>
</svg>
