<svg width="16" height="22" viewBox="0 0 16 22" fill="none" xmlns="http://www.w3.org/2000/svg">
<g id="label-paired / sm / money-bill-sm / regular" clip-path="url(#clip0_1731_2985)">
<path id="icon" d="M13.25 6.375C13.2682 6.86719 13.4414 7.27734 13.7695 7.60547C14.0977 7.93359 14.5078 8.10677 15 8.125V7.25C15 6.99479 14.918 6.78516 14.7539 6.62109C14.5898 6.45703 14.3802 6.375 14.125 6.375H13.25ZM12.375 6.375H3.625C3.60677 7.1224 3.35156 7.74219 2.85938 8.23438C2.36719 8.72656 1.7474 8.98177 1 9V12.5C1.7474 12.5182 2.36719 12.7734 2.85938 13.2656C3.35156 13.7578 3.60677 14.3776 3.625 15.125H12.375C12.3932 14.3776 12.6484 13.7578 13.1406 13.2656C13.6328 12.7734 14.2526 12.5182 15 12.5V9C14.2526 8.98177 13.6328 8.72656 13.1406 8.23438C12.6484 7.74219 12.3932 7.1224 12.375 6.375ZM1 14.25C1 14.5052 1.08203 14.7148 1.24609 14.8789C1.41016 15.043 1.61979 15.125 1.875 15.125H2.75C2.73177 14.6328 2.55859 14.2227 2.23047 13.8945C1.90234 13.5664 1.49219 13.3932 1 13.375V14.25ZM15 13.375C14.5078 13.3932 14.0977 13.5664 13.7695 13.8945C13.4414 14.2227 13.2682 14.6328 13.25 15.125H14.125C14.3802 15.125 14.5898 15.043 14.7539 14.8789C14.918 14.7148 15 14.5052 15 14.25V13.375ZM1.875 6.375C1.61979 6.375 1.41016 6.45703 1.24609 6.62109C1.08203 6.78516 1 6.99479 1 7.25V8.125C1.49219 8.10677 1.90234 7.93359 2.23047 7.60547C2.55859 7.27734 2.73177 6.86719 2.75 6.375H1.875ZM0.125 7.25C0.143229 6.75781 0.316406 6.34766 0.644531 6.01953C0.972656 5.69141 1.38281 5.51823 1.875 5.5H14.125C14.6172 5.51823 15.0273 5.69141 15.3555 6.01953C15.6836 6.34766 15.8568 6.75781 15.875 7.25V14.25C15.8568 14.7422 15.6836 15.1523 15.3555 15.4805C15.0273 15.8086 14.6172 15.9818 14.125 16H1.875C1.38281 15.9818 0.972656 15.8086 0.644531 15.4805C0.316406 15.1523 0.143229 14.7422 0.125 14.25V7.25ZM9.75 10.75C9.73177 10.0938 9.4401 9.59245 8.875 9.24609C8.29167 8.91797 7.70833 8.91797 7.125 9.24609C6.5599 9.59245 6.26823 10.0938 6.25 10.75C6.26823 11.4062 6.5599 11.9076 7.125 12.2539C7.70833 12.582 8.29167 12.582 8.875 12.2539C9.4401 11.9076 9.73177 11.4062 9.75 10.75ZM5.375 10.75C5.375 10.276 5.49349 9.83854 5.73047 9.4375C5.96745 9.03646 6.28646 8.71745 6.6875 8.48047C7.10677 8.24349 7.54427 8.125 8 8.125C8.45573 8.125 8.89323 8.24349 9.3125 8.48047C9.71354 8.71745 10.0326 9.03646 10.2695 9.4375C10.5065 9.83854 10.625 10.276 10.625 10.75C10.625 11.224 10.5065 11.6615 10.2695 12.0625C10.0326 12.4635 9.71354 12.7826 9.3125 13.0195C8.89323 13.2565 8.45573 13.375 8 13.375C7.54427 13.375 7.10677 13.2565 6.6875 13.0195C6.28646 12.7826 5.96745 12.4635 5.73047 12.0625C5.49349 11.6615 5.375 11.224 5.375 10.75Z" fill="black" fill-opacity="0.72"/>
</g>
<defs>
<clipPath id="clip0_1731_2985">
<rect width="16" height="22" fill="white"/>
</clipPath>
</defs>
</svg>
