<svg width="21" height="36" viewBox="0 0 21 36" fill="none" xmlns="http://www.w3.org/2000/svg">
<g id="label-paired / xl / bell-xl / regular" clip-path="url(#clip0_1731_6315)">
<path id="icon" d="M9.75 6.75C9.78125 6.28125 10.0312 6.03125 10.5 6C10.9688 6.03125 11.2188 6.28125 11.25 6.75V7.54688C13.1875 7.76563 14.7812 8.5625 16.0312 9.9375C17.3125 11.3125 17.9688 13 18 15V16.3594C18.0312 18.4844 18.7812 20.3125 20.25 21.8438L20.3906 21.9844C20.7969 22.3906 21 22.875 21 23.4375C21 24.0312 20.7969 24.5156 20.3906 24.8906C20.0156 25.2969 19.5312 25.5 18.9375 25.5H2.0625C1.46875 25.5 0.984375 25.2969 0.609375 24.8906C0.203125 24.5156 0 24.0312 0 23.4375C0 22.875 0.203125 22.375 0.609375 21.9375L0.75 21.8438C2.21875 20.3125 2.96875 18.4844 3 16.3594V15C3.03125 13 3.6875 11.3125 4.96875 9.9375C6.21875 8.5625 7.8125 7.76563 9.75 7.54688V6.75ZM10.5 9C8.8125 9.03125 7.39062 9.60938 6.23438 10.7344C5.10938 11.8906 4.53125 13.3125 4.5 15V16.3594C4.46875 18.8906 3.5625 21.0625 1.78125 22.875L1.6875 23.0156C1.5625 23.1406 1.5 23.2812 1.5 23.4375C1.53125 23.7812 1.71875 23.9688 2.0625 24H18.9375C19.2812 23.9688 19.4688 23.7812 19.5 23.4375C19.5 23.2812 19.4375 23.1406 19.3125 23.0156L19.2188 22.875C17.4375 21.0625 16.5312 18.8906 16.5 16.3594V15C16.4688 13.3125 15.875 11.8906 14.7188 10.7344C13.5938 9.60938 12.1875 9.03125 10.5 9ZM9.09375 27.5156C9.34375 28.1406 9.8125 28.4688 10.5 28.5C11.1875 28.4688 11.6562 28.1406 11.9062 27.5156C12.0938 27.0781 12.4219 26.9219 12.8906 27.0469C13.2969 27.2344 13.4375 27.5469 13.3125 27.9844C13.0938 28.5781 12.7344 29.0625 12.2344 29.4375C11.7344 29.8125 11.1562 30 10.5 30C9.84375 30 9.26562 29.8125 8.76562 29.4375C8.26562 29.0625 7.90625 28.5781 7.6875 27.9844C7.5625 27.5469 7.70312 27.2344 8.10938 27.0469C8.57812 26.9219 8.90625 27.0781 9.09375 27.5156Z" fill="black" fill-opacity="0.72"/>
</g>
<defs>
<clipPath id="clip0_1731_6315">
<rect width="21" height="36" fill="white"/>
</clipPath>
</defs>
</svg>
