<svg width="18" height="22" viewBox="0 0 18 22" fill="none" xmlns="http://www.w3.org/2000/svg">
<g id="label-paired / sm / laptop-mobile-sm / bold" clip-path="url(#clip0_1731_2649)">
<path id="icon" d="M3.75 5.0625C3.47656 5.08073 3.33073 5.22656 3.3125 5.5V12.5H9.875V14.25H1.5625C1.19792 14.2318 0.888021 14.1042 0.632812 13.8672C0.395833 13.612 0.268229 13.3021 0.25 12.9375C0.268229 12.6641 0.414062 12.5182 0.6875 12.5H2V5.5C2.01823 5.00781 2.19141 4.59766 2.51953 4.26953C2.84766 3.94141 3.25781 3.76823 3.75 3.75H12.5C12.9922 3.76823 13.4023 3.94141 13.7305 4.26953C14.0586 4.59766 14.2318 5.00781 14.25 5.5V6.375H12.9375V5.5C12.9193 5.22656 12.7734 5.08073 12.5 5.0625H3.75ZM10.75 8.5625C10.7682 8.19792 10.8958 7.88802 11.1328 7.63281C11.388 7.39583 11.6979 7.26823 12.0625 7.25H16.4375C16.8021 7.26823 17.112 7.39583 17.3672 7.63281C17.6042 7.88802 17.7318 8.19792 17.75 8.5625V16.4375C17.7318 16.8021 17.6042 17.112 17.3672 17.3672C17.112 17.6042 16.8021 17.7318 16.4375 17.75H12.0625C11.6979 17.7318 11.388 17.6042 11.1328 17.3672C10.8958 17.112 10.7682 16.8021 10.75 16.4375V8.5625ZM12.0625 8.5625V16.4375H16.4375V8.5625H12.0625Z" fill="black" fill-opacity="0.72"/>
</g>
<defs>
<clipPath id="clip0_1731_2649">
<rect width="18" height="22" fill="white"/>
</clipPath>
</defs>
</svg>
