<svg width="21" height="36" viewBox="0 0 21 36" fill="none" xmlns="http://www.w3.org/2000/svg">
<g id="label-paired / xl / placeholder-xl / bold" clip-path="url(#clip0_1731_5562)">
<path id="icon" d="M4.125 7.5H4.875C5.5625 7.5625 5.9375 7.9375 6 8.625C5.9375 9.3125 5.5625 9.6875 4.875 9.75H4.125C3.59375 9.75 3.15625 9.9375 2.8125 10.3125C2.4375 10.6562 2.25 11.0938 2.25 11.625V12.375C2.1875 13.0625 1.8125 13.4375 1.125 13.5C0.4375 13.4375 0.0625 13.0625 0 12.375V11.625C0.03125 10.4688 0.4375 9.5 1.21875 8.71875C2 7.9375 2.96875 7.53125 4.125 7.5ZM1.125 15C1.8125 15.0625 2.1875 15.4375 2.25 16.125V19.875C2.1875 20.5625 1.8125 20.9375 1.125 21C0.4375 20.9375 0.0625 20.5625 0 19.875V16.125C0.0625 15.4375 0.4375 15.0625 1.125 15ZM19.875 15C20.5625 15.0625 20.9375 15.4375 21 16.125V19.875C20.9375 20.5625 20.5625 20.9375 19.875 21C19.1875 20.9375 18.8125 20.5625 18.75 19.875V16.125C18.8125 15.4375 19.1875 15.0625 19.875 15ZM19.875 13.5C19.1875 13.4375 18.8125 13.0625 18.75 12.375V11.625C18.75 11.0938 18.5625 10.6562 18.1875 10.3125C17.8438 9.9375 17.4062 9.75 16.875 9.75H16.125C15.4375 9.6875 15.0625 9.3125 15 8.625C15.0625 7.9375 15.4375 7.5625 16.125 7.5H16.875C18.0312 7.53125 19 7.9375 19.7812 8.71875C20.5625 9.5 20.9688 10.4688 21 11.625V12.375C20.9375 13.0625 20.5625 13.4375 19.875 13.5ZM21 23.625V24.375C20.9688 25.5312 20.5625 26.5 19.7812 27.2812C19 28.0625 18.0312 28.4688 16.875 28.5H16.125C15.4375 28.4375 15.0625 28.0625 15 27.375C15.0625 26.6875 15.4375 26.3125 16.125 26.25H16.875C17.4062 26.25 17.8438 26.0625 18.1875 25.6875C18.5625 25.3438 18.75 24.9062 18.75 24.375V23.625C18.8125 22.9375 19.1875 22.5625 19.875 22.5C20.5625 22.5625 20.9375 22.9375 21 23.625ZM2.25 23.625V24.375C2.25 24.9062 2.4375 25.3438 2.8125 25.6875C3.15625 26.0625 3.59375 26.25 4.125 26.25H4.875C5.5625 26.3125 5.9375 26.6875 6 27.375C5.9375 28.0625 5.5625 28.4375 4.875 28.5H4.125C2.96875 28.4688 2 28.0625 1.21875 27.2812C0.4375 26.5 0.03125 25.5312 0 24.375V23.625C0.0625 22.9375 0.4375 22.5625 1.125 22.5C1.8125 22.5625 2.1875 22.9375 2.25 23.625ZM8.625 28.5C7.9375 28.4375 7.5625 28.0625 7.5 27.375C7.5625 26.6875 7.9375 26.3125 8.625 26.25H12.375C13.0625 26.3125 13.4375 26.6875 13.5 27.375C13.4375 28.0625 13.0625 28.4375 12.375 28.5H8.625ZM7.5 8.625C7.5625 7.9375 7.9375 7.5625 8.625 7.5H12.375C13.0625 7.5625 13.4375 7.9375 13.5 8.625C13.4375 9.3125 13.0625 9.6875 12.375 9.75H8.625C7.9375 9.6875 7.5625 9.3125 7.5 8.625Z" fill="black" fill-opacity="0.72"/>
</g>
<defs>
<clipPath id="clip0_1731_5562">
<rect width="21" height="36" fill="white"/>
</clipPath>
</defs>
</svg>
