<svg width="18" height="24" viewBox="0 0 18 24" fill="none" xmlns="http://www.w3.org/2000/svg">
<g id="label-paired / md / star-md / fill" clip-path="url(#clip0_1731_3334)">
<path id="icon" d="M9.90625 4.5625L11.9062 8.6875L16.4062 9.375C16.8021 9.4375 17.0729 9.65625 17.2188 10.0312C17.3229 10.4271 17.2396 10.7708 16.9688 11.0625L13.7188 14.2812L14.4688 18.8438C14.5312 19.2396 14.3958 19.5625 14.0625 19.8125C13.7292 20.0417 13.3854 20.0625 13.0312 19.875L9 17.75L5 19.875C4.625 20.0625 4.27083 20.0417 3.9375 19.8125C3.625 19.5625 3.48958 19.2396 3.53125 18.8438L4.3125 14.2812L1.0625 11.0625C0.770833 10.7708 0.6875 10.4271 0.8125 10.0312C0.9375 9.65625 1.19792 9.4375 1.59375 9.375L6.09375 8.6875L8.09375 4.5625C8.30208 4.20833 8.60417 4.02083 9 4C9.41667 4.02083 9.71875 4.20833 9.90625 4.5625Z" fill="black" fill-opacity="0.72"/>
</g>
<defs>
<clipPath id="clip0_1731_3334">
<rect width="18" height="24" fill="white"/>
</clipPath>
</defs>
</svg>
