<svg width="18" height="36" viewBox="0 0 18 36" fill="none" xmlns="http://www.w3.org/2000/svg">
<g id="label-paired / xl / location-dot-xl / bold" clip-path="url(#clip0_1731_6444)">
<path id="icon" d="M15.75 15C15.6875 13.0938 15.0312 11.5 13.7812 10.2188C12.5 8.96875 10.9062 8.3125 9 8.25C7.09375 8.3125 5.5 8.96875 4.21875 10.2188C2.96875 11.5 2.3125 13.0938 2.25 15C2.25 15.5938 2.48438 16.4844 2.95312 17.6719C3.48438 18.8594 4.15625 20.1094 4.96875 21.4219C5.65625 22.5156 6.34375 23.5625 7.03125 24.5625C7.75 25.5625 8.40625 26.4375 9 27.1875C9.59375 26.4375 10.25 25.5625 10.9688 24.5625C11.6875 23.5625 12.375 22.5156 13.0312 21.4219C13.8438 20.1094 14.5156 18.8594 15.0469 17.6719C15.5156 16.4844 15.75 15.5938 15.75 15ZM18 15C17.9375 16.4062 17.4375 18.0312 16.5 19.875C15.5312 21.7188 14.4375 23.5 13.2188 25.2188C12 26.9688 10.9688 28.3594 10.125 29.3906C9.8125 29.7656 9.4375 29.9531 9 29.9531C8.5625 29.9531 8.1875 29.7656 7.875 29.3906C7.03125 28.3594 6 26.9688 4.78125 25.2188C3.5625 23.5 2.46875 21.7188 1.5 19.875C0.5625 18.0312 0.0625 16.4062 0 15C0.0625 12.4375 0.9375 10.3125 2.625 8.625C4.3125 6.9375 6.4375 6.0625 9 6C11.5625 6.0625 13.6875 6.9375 15.375 8.625C17.0625 10.3125 17.9375 12.4375 18 15ZM10.5 15C10.5 14.5625 10.3594 14.2031 10.0781 13.9219C9.79688 13.6406 9.4375 13.5 9 13.5C8.5625 13.5 8.20312 13.6406 7.92188 13.9219C7.64062 14.2031 7.5 14.5625 7.5 15C7.5 15.4375 7.64062 15.7969 7.92188 16.0781C8.20312 16.3594 8.5625 16.5 9 16.5C9.4375 16.5 9.79688 16.3594 10.0781 16.0781C10.3594 15.7969 10.5 15.4375 10.5 15ZM5.25 15C5.28125 13.5938 5.90625 12.5156 7.125 11.7656C8.375 11.0781 9.625 11.0781 10.875 11.7656C12.0938 12.5156 12.7188 13.5938 12.75 15C12.7188 16.4062 12.0938 17.4844 10.875 18.2344C9.625 18.9219 8.375 18.9219 7.125 18.2344C5.90625 17.4844 5.28125 16.4062 5.25 15Z" fill="black" fill-opacity="0.72"/>
</g>
<defs>
<clipPath id="clip0_1731_6444">
<rect width="18" height="36" fill="white"/>
</clipPath>
</defs>
</svg>
