<svg width="25" height="30" viewBox="0 0 25 30" fill="none" xmlns="http://www.w3.org/2000/svg">
<g id="label-paired / lg / deriv-lg" clip-path="url(#clip0_1731_14051)">
<path id="icon" d="M16.5625 6.16406L20.4688 5.5L17.7344 21.125C17.3047 23.5469 15 25.5 12.5391 25.5H9.57031C6.21094 25.5 3.98438 22.8047 4.57031 19.4844L4.84375 18.0391C5.42969 14.7188 8.59375 11.9844 11.9531 11.9844H15.5078L16.5625 6.16406ZM14.0234 20.5781L14.8828 15.5781H11.7578C10.2344 15.5781 8.82812 16.8281 8.55469 18.3125L8.39844 19.2109C8.125 20.6953 9.14062 21.9062 10.625 21.9062H12.4609C13.2031 21.9062 13.8672 21.3203 14.0234 20.5781Z" fill="black" fill-opacity="0.72"/>
</g>
<defs>
<clipPath id="clip0_1731_14051">
<rect width="25" height="30" fill="white"/>
</clipPath>
</defs>
</svg>
