<svg width="15" height="36" viewBox="0 0 15 36" fill="none" xmlns="http://www.w3.org/2000/svg">
<g id="label-paired / xl / forward-step-xl / bold" clip-path="url(#clip0_1731_6584)">
<path id="icon" d="M11.25 10.125C11.3125 9.4375 11.6875 9.0625 12.375 9C13.0625 9.0625 13.4375 9.4375 13.5 10.125V16.6406V19.3594V25.875C13.4375 26.5625 13.0625 26.9375 12.375 27C11.6875 26.9375 11.3125 26.5625 11.25 25.875V20.9531L2.95312 26.7656C2.70312 26.9219 2.4375 27 2.15625 27C1.75 27 1.42188 26.8594 1.17188 26.5781C0.890625 26.3281 0.75 26 0.75 25.5938V10.4062C0.75 10 0.890625 9.67188 1.17188 9.42188C1.42188 9.14062 1.75 9 2.15625 9C2.46875 9 2.73438 9.07812 2.95312 9.23438L11.25 15.0469V10.125ZM11.25 18.1875V17.8125L3 12.0469V24L11.25 18.1875Z" fill="black" fill-opacity="0.72"/>
</g>
<defs>
<clipPath id="clip0_1731_6584">
<rect width="15" height="36" fill="white"/>
</clipPath>
</defs>
</svg>
