<svg width="15" height="30" viewBox="0 0 15 30" fill="none" xmlns="http://www.w3.org/2000/svg">
<g id="label-paired / lg / xmark-lg / bold" clip-path="url(#clip0_1731_5271)">
<path id="icon" d="M13.4766 10.8516L8.82812 15.5L13.4766 20.1484C13.8411 20.5911 13.8411 21.0339 13.4766 21.4766C13.0339 21.8411 12.5911 21.8411 12.1484 21.4766L7.5 16.8281L2.85156 21.4766C2.40885 21.8411 1.96615 21.8411 1.52344 21.4766C1.15885 21.0339 1.15885 20.5911 1.52344 20.1484L6.17188 15.5L1.52344 10.8516C1.15885 10.4089 1.15885 9.96615 1.52344 9.52344C1.96615 9.15885 2.40885 9.15885 2.85156 9.52344L7.5 14.1719L12.1484 9.52344C12.5911 9.15885 13.0339 9.15885 13.4766 9.52344C13.8411 9.96615 13.8411 10.4089 13.4766 10.8516Z" fill="black" fill-opacity="0.72"/>
</g>
<defs>
<clipPath id="clip0_1731_5271">
<rect width="15" height="30" fill="white"/>
</clipPath>
</defs>
</svg>
