<svg width="15" height="30" viewBox="0 0 15 30" fill="none" xmlns="http://www.w3.org/2000/svg">
<g id="label-paired / lg / percent-lg / bold" clip-path="url(#clip0_1731_4951)">
<path id="icon" d="M14.4141 9.91406L1.91406 22.4141C1.47135 22.7786 1.02865 22.7786 0.585938 22.4141C0.221354 21.9714 0.221354 21.5286 0.585938 21.0859L13.0859 8.58594C13.5286 8.22135 13.9714 8.22135 14.4141 8.58594C14.7786 9.02865 14.7786 9.47135 14.4141 9.91406ZM4.375 10.5C4.34896 11.2031 4.03646 11.75 3.4375 12.1406C2.8125 12.4531 2.1875 12.4531 1.5625 12.1406C0.963542 11.75 0.651042 11.2031 0.625 10.5C0.651042 9.79688 0.963542 9.25 1.5625 8.85938C2.1875 8.54688 2.8125 8.54688 3.4375 8.85938C4.03646 9.25 4.34896 9.79688 4.375 10.5ZM14.375 20.5C14.349 21.2031 14.0365 21.75 13.4375 22.1406C12.8125 22.4531 12.1875 22.4531 11.5625 22.1406C10.9635 21.75 10.651 21.2031 10.625 20.5C10.651 19.7969 10.9635 19.25 11.5625 18.8594C12.1875 18.5469 12.8125 18.5469 13.4375 18.8594C14.0365 19.25 14.349 19.7969 14.375 20.5Z" fill="black" fill-opacity="0.72"/>
</g>
<defs>
<clipPath id="clip0_1731_4951">
<rect width="15" height="30" fill="white"/>
</clipPath>
</defs>
</svg>
