<svg width="9" height="22" viewBox="0 0 9 22" fill="none" xmlns="http://www.w3.org/2000/svg">
<g id="label-paired / sm / eight-sm / bold" clip-path="url(#clip0_1731_2290)">
<path id="icon" d="M8.4375 8.01562C8.40104 9.07292 8.00911 9.92969 7.26172 10.5859C7.75391 10.8958 8.14583 11.2969 8.4375 11.7891C8.72917 12.2995 8.875 12.8646 8.875 13.4844C8.85677 14.4505 8.52865 15.2526 7.89062 15.8906C7.2526 16.5286 6.45052 16.8568 5.48438 16.875H3.51562C2.54948 16.8568 1.7474 16.5286 1.10938 15.8906C0.471354 15.2526 0.143229 14.4505 0.125 13.4844C0.125 12.8646 0.270833 12.2995 0.5625 11.7891C0.854167 11.2969 1.24609 10.8958 1.73828 10.5859C0.990885 9.92969 0.598958 9.07292 0.5625 8.01562C0.580729 7.04948 0.908854 6.2474 1.54688 5.60938C2.1849 4.97135 2.98698 4.64323 3.95312 4.625H5.04688C6.01302 4.64323 6.8151 4.97135 7.45312 5.60938C8.09115 6.2474 8.41927 7.04948 8.4375 8.01562ZM5.04688 11.4062H3.95312H3.51562C2.93229 11.4245 2.4401 11.625 2.03906 12.0078C1.65625 12.4089 1.45573 12.901 1.4375 13.4844C1.45573 14.0677 1.65625 14.5599 2.03906 14.9609C2.4401 15.3438 2.93229 15.5443 3.51562 15.5625H5.48438C6.06771 15.5443 6.5599 15.3438 6.96094 14.9609C7.34375 14.5599 7.54427 14.0677 7.5625 13.4844C7.54427 12.901 7.34375 12.4089 6.96094 12.0078C6.5599 11.625 6.06771 11.4245 5.48438 11.4062H5.04688ZM5.04688 10.0938C5.63021 10.0755 6.1224 9.875 6.52344 9.49219C6.90625 9.09115 7.10677 8.59896 7.125 8.01562C7.10677 7.43229 6.90625 6.9401 6.52344 6.53906C6.1224 6.15625 5.63021 5.95573 5.04688 5.9375H3.95312C3.36979 5.95573 2.8776 6.15625 2.47656 6.53906C2.09375 6.9401 1.89323 7.43229 1.875 8.01562C1.89323 8.59896 2.09375 9.09115 2.47656 9.49219C2.8776 9.875 3.36979 10.0755 3.95312 10.0938H5.04688Z" fill="black" fill-opacity="0.72"/>
</g>
<defs>
<clipPath id="clip0_1731_2290">
<rect width="9" height="22" fill="white"/>
</clipPath>
</defs>
</svg>
