<svg width="20" height="30" viewBox="0 0 20 30" fill="none" xmlns="http://www.w3.org/2000/svg">
<g id="label-paired / lg / backward-lg / bold" clip-path="url(#clip0_1731_5018)">
<path id="icon" d="M11.25 9.17188V13.0391L18.1641 8.19531C18.3464 8.0651 18.5677 8 18.8281 8C19.1667 8 19.4401 8.11719 19.6484 8.35156C19.8828 8.5599 20 8.83333 20 9.17188V21.8281C20 22.1667 19.8828 22.4401 19.6484 22.6484C19.4401 22.8828 19.1667 23 18.8281 23C18.5938 23 18.3724 22.9349 18.1641 22.8047L11.25 17.9609V21.8281C11.25 22.1667 11.1328 22.4401 10.8984 22.6484C10.6901 22.8828 10.4167 23 10.0781 23C9.81771 23 9.58333 22.9219 9.375 22.7656L0.390625 16.2422C0.130208 16.0599 0 15.8125 0 15.5C0 15.1875 0.130208 14.9401 0.390625 14.7578L9.375 8.23438C9.58333 8.07812 9.81771 8 10.0781 8C10.4167 8 10.6901 8.11719 10.8984 8.35156C11.1328 8.5599 11.25 8.83333 11.25 9.17188ZM11.25 15.3438V15.6562L18.125 20.5V10.5391L11.25 15.3438ZM2.53906 15.5L9.375 20.4609V10.5391L2.53906 15.5Z" fill="black" fill-opacity="0.72"/>
</g>
<defs>
<clipPath id="clip0_1731_5018">
<rect width="20" height="30" fill="white"/>
</clipPath>
</defs>
</svg>
