<svg width="12" height="18" viewBox="0 0 12 18" fill="none" xmlns="http://www.w3.org/2000/svg">
<g id="label-paired / caption / circle-ellipsis-caption / bold" clip-path="url(#clip0_1731_696)">
<path id="icon" d="M6 14.375C6.89062 14.375 7.70312 14.1562 8.4375 13.7188C9.17188 13.2969 9.76562 12.7031 10.2188 11.9375C10.6562 11.1719 10.875 10.3594 10.875 9.5C10.875 8.64062 10.6562 7.82812 10.2188 7.0625C9.76562 6.29688 9.17188 5.70312 8.4375 5.28125C7.70312 4.84375 6.89062 4.625 6 4.625C5.10938 4.625 4.29688 4.84375 3.5625 5.28125C2.82812 5.70312 2.23438 6.29688 1.78125 7.0625C1.34375 7.82812 1.125 8.64062 1.125 9.5C1.125 10.3594 1.34375 11.1719 1.78125 11.9375C2.23438 12.7031 2.82812 13.2969 3.5625 13.7188C4.29688 14.1562 5.10938 14.375 6 14.375ZM6 3.5C7.09375 3.51563 8.09375 3.78125 9 4.29688C9.90625 4.82812 10.6406 5.5625 11.2031 6.5C11.7344 7.45312 12 8.45312 12 9.5C12 10.5469 11.7344 11.5469 11.2031 12.5C10.6406 13.4375 9.90625 14.1719 9 14.7031C8.09375 15.2188 7.09375 15.4844 6 15.5C4.90625 15.4844 3.90625 15.2188 3 14.7031C2.09375 14.1719 1.35938 13.4375 0.796875 12.5C0.265625 11.5469 0 10.5469 0 9.5C0 8.45312 0.265625 7.45312 0.796875 6.5C1.35938 5.5625 2.09375 4.82812 3 4.29688C3.90625 3.78125 4.90625 3.51563 6 3.5ZM6.75 9.5C6.75 9.71875 6.67969 9.89844 6.53906 10.0391C6.39844 10.1797 6.21875 10.25 6 10.25C5.78125 10.25 5.60156 10.1797 5.46094 10.0391C5.32031 9.89844 5.25 9.71875 5.25 9.5C5.25 9.28125 5.32031 9.10156 5.46094 8.96094C5.60156 8.82031 5.78125 8.75 6 8.75C6.21875 8.75 6.39844 8.82031 6.53906 8.96094C6.67969 9.10156 6.75 9.28125 6.75 9.5ZM8.25 8.75C8.46875 8.75 8.64844 8.82031 8.78906 8.96094C8.92969 9.10156 9 9.28125 9 9.5C9 9.71875 8.92969 9.89844 8.78906 10.0391C8.64844 10.1797 8.46875 10.25 8.25 10.25C8.03125 10.25 7.85156 10.1797 7.71094 10.0391C7.57031 9.89844 7.5 9.71875 7.5 9.5C7.5 9.28125 7.57031 9.10156 7.71094 8.96094C7.85156 8.82031 8.03125 8.75 8.25 8.75ZM4.5 9.5C4.5 9.71875 4.42969 9.89844 4.28906 10.0391C4.14844 10.1797 3.96875 10.25 3.75 10.25C3.53125 10.25 3.35156 10.1797 3.21094 10.0391C3.07031 9.89844 3 9.71875 3 9.5C3 9.28125 3.07031 9.10156 3.21094 8.96094C3.35156 8.82031 3.53125 8.75 3.75 8.75C3.96875 8.75 4.14844 8.82031 4.28906 8.96094C4.42969 9.10156 4.5 9.28125 4.5 9.5Z" fill="black" fill-opacity="0.72"/>
</g>
<defs>
<clipPath id="clip0_1731_696">
<rect width="12" height="18" fill="white"/>
</clipPath>
</defs>
</svg>
