<svg width="20" height="30" viewBox="0 0 20 30" fill="none" xmlns="http://www.w3.org/2000/svg">
<g id="label-paired / lg / gear-lg / bold" clip-path="url(#clip0_1731_5321)">
<path id="icon" d="M10 5.5C10.6771 5.5 11.3281 5.5651 11.9531 5.69531C12.1094 5.72135 12.3047 5.78646 12.5391 5.89062C12.7474 6.02083 12.9297 6.21615 13.0859 6.47656C13.1641 6.60677 13.2292 6.76302 13.2812 6.94531L13.6328 8.42969C13.6849 8.5599 13.776 8.66406 13.9062 8.74219C14.0365 8.82031 14.1667 8.84635 14.2969 8.82031L15.7812 8.39062C15.9375 8.33854 16.0938 8.3125 16.25 8.3125C16.5625 8.3125 16.8229 8.3776 17.0312 8.50781C17.2656 8.63802 17.4349 8.76823 17.5391 8.89844C18.3984 9.88802 19.0365 11.0208 19.4531 12.2969C19.5312 12.4531 19.5703 12.6484 19.5703 12.8828C19.5964 13.1432 19.5312 13.4036 19.375 13.6641C19.2708 13.7943 19.1667 13.9245 19.0625 14.0547L17.9297 15.1094C17.8516 15.2135 17.8125 15.3438 17.8125 15.5C17.8125 15.6562 17.8516 15.7865 17.9297 15.8906L19.0625 16.9453C19.1667 17.0755 19.2708 17.2057 19.375 17.3359C19.5052 17.6224 19.5703 17.8828 19.5703 18.1172C19.5703 18.3776 19.5312 18.5729 19.4531 18.7031C19.0365 19.9792 18.3984 21.112 17.5391 22.1016C17.4349 22.2318 17.2656 22.362 17.0312 22.4922C16.8229 22.6224 16.5625 22.6875 16.25 22.6875C16.0938 22.6875 15.9375 22.6615 15.7812 22.6094L14.2969 22.1797C14.1667 22.1536 14.0365 22.1797 13.9062 22.2578C13.776 22.3359 13.6849 22.4401 13.6328 22.5703L13.2812 24.0547C13.2292 24.237 13.1641 24.3932 13.0859 24.5234C12.9297 24.7839 12.7474 24.9792 12.5391 25.1094C12.3047 25.2135 12.1094 25.2786 11.9531 25.3047C11.3281 25.4349 10.6771 25.5 10 25.5C9.32292 25.5 8.67188 25.4349 8.04688 25.3047C7.89062 25.2786 7.69531 25.2135 7.46094 25.1094C7.2526 24.9792 7.07031 24.7839 6.91406 24.5234C6.83594 24.3932 6.77083 24.237 6.71875 24.0547L6.36719 22.5703C6.3151 22.4401 6.22396 22.3359 6.09375 22.2578C5.96354 22.1797 5.83333 22.1536 5.70312 22.1797L4.21875 22.6094C4.0625 22.6615 3.90625 22.6875 3.75 22.6875C3.4375 22.6875 3.17708 22.6224 2.96875 22.4922C2.73438 22.362 2.57812 22.2318 2.5 22.1016C1.61458 21.112 0.963542 19.9792 0.546875 18.7031C0.46875 18.5469 0.429688 18.3516 0.429688 18.1172C0.403646 17.8568 0.46875 17.5964 0.625 17.3359C0.729167 17.2057 0.833333 17.0755 0.9375 16.9453L2.07031 15.8906C2.14844 15.7865 2.1875 15.6562 2.1875 15.5C2.1875 15.3438 2.14844 15.2135 2.07031 15.1094L0.9375 14.0547C0.833333 13.9245 0.729167 13.7943 0.625 13.6641C0.46875 13.3776 0.403646 13.1172 0.429688 12.8828C0.429688 12.6224 0.46875 12.4271 0.546875 12.2969C0.963542 11.0469 1.61458 9.91406 2.5 8.89844C2.57812 8.76823 2.73438 8.63802 2.96875 8.50781C3.17708 8.3776 3.4375 8.3125 3.75 8.3125C3.90625 8.3125 4.0625 8.33854 4.21875 8.39062L5.70312 8.82031C5.83333 8.84635 5.96354 8.82031 6.09375 8.74219C6.22396 8.66406 6.3151 8.5599 6.36719 8.42969L6.71875 6.94531C6.77083 6.76302 6.83594 6.60677 6.91406 6.47656C7.07031 6.21615 7.2526 6.02083 7.46094 5.89062C7.69531 5.78646 7.89062 5.72135 8.04688 5.69531C8.67188 5.5651 9.32292 5.5 10 5.5ZM8.51562 7.49219L8.20312 8.89844C8.02083 9.52344 7.63021 10.0052 7.03125 10.3438C6.43229 10.6823 5.80729 10.7734 5.15625 10.6172L3.82812 10.2266C3.17708 10.9818 2.68229 11.8411 2.34375 12.8047L3.35938 13.7812C3.82812 14.25 4.0625 14.8229 4.0625 15.5C4.0625 16.1771 3.82812 16.763 3.35938 17.2578L2.34375 18.1953C2.68229 19.1589 3.17708 20.0182 3.82812 20.7734L5.19531 20.3828C5.82031 20.2005 6.43229 20.2917 7.03125 20.6562C7.63021 20.9948 8.02083 21.4766 8.20312 22.1016L8.51562 23.5078C9.50521 23.6641 10.4948 23.6641 11.4844 23.5078L11.8359 22.1016C12.0182 21.4766 12.3958 20.9948 12.9688 20.6562C13.5677 20.3177 14.1927 20.2266 14.8438 20.3828L16.1719 20.7734C16.8229 20.0182 17.3177 19.1589 17.6562 18.1953L16.6406 17.2188C16.1719 16.75 15.9375 16.1771 15.9375 15.5C15.9375 14.8229 16.1719 14.237 16.6406 13.7422L17.6562 12.8047C17.3177 11.8411 16.8229 10.9818 16.1719 10.2266L14.8438 10.6172C14.1927 10.7995 13.5677 10.7083 12.9688 10.3438C12.3958 10.0052 12.0182 9.51042 11.8359 8.85938L11.4844 7.49219C10.4948 7.33594 9.50521 7.33594 8.51562 7.49219ZM8.125 15.5C8.15104 16.2031 8.46354 16.75 9.0625 17.1406C9.6875 17.4531 10.3125 17.4531 10.9375 17.1406C11.5365 16.75 11.849 16.2031 11.875 15.5C11.849 14.7969 11.5365 14.25 10.9375 13.8594C10.3125 13.5469 9.6875 13.5469 9.0625 13.8594C8.46354 14.25 8.15104 14.7969 8.125 15.5ZM10 19.25C9.32292 19.25 8.69792 19.0807 8.125 18.7422C7.55208 18.4036 7.09635 17.9479 6.75781 17.375C6.41927 16.776 6.25 16.151 6.25 15.5C6.25 14.849 6.41927 14.224 6.75781 13.625C7.09635 13.0521 7.55208 12.5964 8.125 12.2578C8.69792 11.9193 9.32292 11.75 10 11.75C10.6771 11.75 11.3021 11.9193 11.875 12.2578C12.4479 12.5964 12.9036 13.0521 13.2422 13.625C13.5807 14.224 13.75 14.849 13.75 15.5C13.75 16.151 13.5807 16.776 13.2422 17.375C12.9036 17.9479 12.4479 18.4036 11.875 18.7422C11.3021 19.0807 10.6771 19.25 10 19.25Z" fill="black" fill-opacity="0.72"/>
</g>
<defs>
<clipPath id="clip0_1731_5321">
<rect width="20" height="30" fill="white"/>
</clipPath>
</defs>
</svg>
