<svg width="20" height="30" viewBox="0 0 20 30" fill="none" xmlns="http://www.w3.org/2000/svg">
<g id="label-paired / lg / triangle-exclamation-lg / bold" clip-path="url(#clip0_1731_5096)">
<path id="icon" d="M9.6875 8.78125L1.95312 21.5156C1.90104 21.5938 1.875 21.6979 1.875 21.8281C1.90104 22.1667 2.09635 22.349 2.46094 22.375H17.5781C17.9167 22.349 18.099 22.1667 18.125 21.8281C18.125 21.724 18.099 21.6198 18.0469 21.5156L10.3125 8.78125C10.2344 8.67708 10.1302 8.625 10 8.625C9.86979 8.625 9.76562 8.67708 9.6875 8.78125ZM8.08594 7.80469C8.55469 7.1276 9.19271 6.77604 10 6.75C10.8333 6.77604 11.4714 7.1276 11.9141 7.80469L19.6484 20.5391C19.8828 20.9297 20 21.3594 20 21.8281C19.974 22.5052 19.7396 23.0781 19.2969 23.5469C18.8281 23.9896 18.2552 24.224 17.5781 24.25H2.46094C1.75781 24.224 1.17188 23.9896 0.703125 23.5469C0.260417 23.0781 0.0260417 22.5052 0 21.8281C0 21.3594 0.117188 20.9297 0.351562 20.5391L8.08594 7.80469ZM11.25 19.875C11.25 20.2396 11.1328 20.5391 10.8984 20.7734C10.6641 21.0078 10.3646 21.125 10 21.125C9.63542 21.125 9.33594 21.0078 9.10156 20.7734C8.86719 20.5391 8.75 20.2396 8.75 19.875C8.75 19.5104 8.86719 19.2109 9.10156 18.9766C9.33594 18.7422 9.63542 18.625 10 18.625C10.3646 18.625 10.6641 18.7422 10.8984 18.9766C11.1328 19.2109 11.25 19.5104 11.25 19.875ZM10.9375 12.6875V16.4375C10.8854 17.0104 10.5729 17.3229 10 17.375C9.42708 17.3229 9.11458 17.0104 9.0625 16.4375V12.6875C9.11458 12.1146 9.42708 11.8021 10 11.75C10.5729 11.8021 10.8854 12.1146 10.9375 12.6875Z" fill="black" fill-opacity="0.72"/>
</g>
<defs>
<clipPath id="clip0_1731_5096">
<rect width="20" height="30" fill="white"/>
</clipPath>
</defs>
</svg>
