<svg width="9" height="22" viewBox="0 0 9 22" fill="none" xmlns="http://www.w3.org/2000/svg">
<g id="label-paired / sm / nine-sm / regular" clip-path="url(#clip0_1731_2293)">
<path id="icon" d="M1 9C1.01823 9.98438 1.35547 10.8138 2.01172 11.4883C2.6862 12.1445 3.51562 12.4818 4.5 12.5C5.48438 12.4818 6.30469 12.1536 6.96094 11.5156C7.59896 10.8594 7.94531 10.0482 8 9.08203C8 9.0638 8 9.05469 8 9.05469C8 9.03646 8 9.01823 8 9C7.98177 8.01562 7.64453 7.1862 6.98828 6.51172C6.3138 5.85547 5.48438 5.51823 4.5 5.5C3.51562 5.51823 2.6862 5.85547 2.01172 6.51172C1.35547 7.1862 1.01823 8.01562 1 9ZM5.40234 13.293C5.11068 13.3477 4.8099 13.375 4.5 13.375C3.26042 13.3385 2.23047 12.9102 1.41016 12.0898C0.589844 11.2695 0.161458 10.2396 0.125 9C0.161458 7.76042 0.589844 6.73047 1.41016 5.91016C2.23047 5.08984 3.26042 4.66146 4.5 4.625C5.73958 4.66146 6.76953 5.08984 7.58984 5.91016C8.41016 6.73047 8.83854 7.76042 8.875 9C8.875 9.05469 8.875 9.10938 8.875 9.16406C8.82031 10.2214 8.44661 11.1602 7.75391 11.9805L3.51562 16.7383C3.3151 16.9206 3.10547 16.9297 2.88672 16.7656C2.70443 16.5651 2.69531 16.3555 2.85938 16.1367L5.40234 13.293Z" fill="black" fill-opacity="0.72"/>
</g>
<defs>
<clipPath id="clip0_1731_2293">
<rect width="9" height="22" fill="white"/>
</clipPath>
</defs>
</svg>
