<svg width="9" height="18" viewBox="0 0 9 18" fill="none" xmlns="http://www.w3.org/2000/svg">
<g id="label-paired / caption / four-caption / regular" clip-path="url(#clip0_1731_1010)">
<path id="icon" d="M4.07812 4.78906L0.984375 11H6.75V6.875C6.76562 6.64062 6.89062 6.51562 7.125 6.5C7.35938 6.51562 7.48438 6.64062 7.5 6.875V11H8.625C8.85938 11.0156 8.98438 11.1406 9 11.375C8.98438 11.6094 8.85938 11.7344 8.625 11.75H7.5V14.375C7.48438 14.6094 7.35938 14.7344 7.125 14.75C6.89062 14.7344 6.76562 14.6094 6.75 14.375V11.75H0.375C0.234375 11.75 0.125 11.6953 0.046875 11.5859C-0.015625 11.4609 -0.015625 11.3359 0.046875 11.2109L3.42188 4.46094C3.53125 4.25781 3.69531 4.20312 3.91406 4.29688C4.11719 4.42188 4.17188 4.58594 4.07812 4.78906Z" fill="black" fill-opacity="0.72"/>
</g>
<defs>
<clipPath id="clip0_1731_1010">
<rect width="9" height="18" fill="white"/>
</clipPath>
</defs>
</svg>
