<svg width="15" height="30" viewBox="0 0 15 30" fill="none" xmlns="http://www.w3.org/2000/svg">
<g id="label-paired / lg / location-dot-lg / bold" clip-path="url(#clip0_1731_4885)">
<path id="icon" d="M13.125 13C13.0729 11.4115 12.526 10.0833 11.4844 9.01562C10.4167 7.97396 9.08854 7.42708 7.5 7.375C5.91146 7.42708 4.58333 7.97396 3.51562 9.01562C2.47396 10.0833 1.92708 11.4115 1.875 13C1.875 13.4948 2.07031 14.237 2.46094 15.2266C2.90365 16.2161 3.46354 17.2578 4.14062 18.3516C4.71354 19.263 5.28646 20.1354 5.85938 20.9688C6.45833 21.8021 7.00521 22.5312 7.5 23.1562C7.99479 22.5312 8.54167 21.8021 9.14062 20.9688C9.73958 20.1354 10.3125 19.263 10.8594 18.3516C11.5365 17.2578 12.0964 16.2161 12.5391 15.2266C12.9297 14.237 13.125 13.4948 13.125 13ZM15 13C14.9479 14.1719 14.5312 15.526 13.75 17.0625C12.9427 18.599 12.0312 20.0833 11.0156 21.5156C10 22.974 9.14062 24.1328 8.4375 24.9922C8.17708 25.3047 7.86458 25.4609 7.5 25.4609C7.13542 25.4609 6.82292 25.3047 6.5625 24.9922C5.85938 24.1328 5 22.974 3.98438 21.5156C2.96875 20.0833 2.05729 18.599 1.25 17.0625C0.46875 15.526 0.0520833 14.1719 0 13C0.0520833 10.8646 0.78125 9.09375 2.1875 7.6875C3.59375 6.28125 5.36458 5.55208 7.5 5.5C9.63542 5.55208 11.4062 6.28125 12.8125 7.6875C14.2188 9.09375 14.9479 10.8646 15 13ZM8.75 13C8.75 12.6354 8.63281 12.3359 8.39844 12.1016C8.16406 11.8672 7.86458 11.75 7.5 11.75C7.13542 11.75 6.83594 11.8672 6.60156 12.1016C6.36719 12.3359 6.25 12.6354 6.25 13C6.25 13.3646 6.36719 13.6641 6.60156 13.8984C6.83594 14.1328 7.13542 14.25 7.5 14.25C7.86458 14.25 8.16406 14.1328 8.39844 13.8984C8.63281 13.6641 8.75 13.3646 8.75 13ZM4.375 13C4.40104 11.8281 4.92188 10.9297 5.9375 10.3047C6.97917 9.73177 8.02083 9.73177 9.0625 10.3047C10.0781 10.9297 10.599 11.8281 10.625 13C10.599 14.1719 10.0781 15.0703 9.0625 15.6953C8.02083 16.2682 6.97917 16.2682 5.9375 15.6953C4.92188 15.0703 4.40104 14.1719 4.375 13Z" fill="black" fill-opacity="0.72"/>
</g>
<defs>
<clipPath id="clip0_1731_4885">
<rect width="15" height="30" fill="white"/>
</clipPath>
</defs>
</svg>
