<svg width="20" height="30" viewBox="0 0 20 30" fill="none" xmlns="http://www.w3.org/2000/svg">
<g id="label-paired / lg / circle-sort-down-lg / regular" clip-path="url(#clip0_1731_4594)">
<path id="icon" d="M1.25 15.5C1.27604 17.0885 1.66667 18.5469 2.42188 19.875C3.20312 21.2031 4.27083 22.2708 5.625 23.0781C7.00521 23.8594 8.46354 24.25 10 24.25C11.5365 24.25 12.9948 23.8594 14.375 23.0781C15.7292 22.2708 16.7969 21.2031 17.5781 19.875C18.3333 18.5469 18.724 17.0885 18.75 15.5C18.724 13.9115 18.3333 12.4531 17.5781 11.125C16.7969 9.79688 15.7292 8.72917 14.375 7.92188C12.9948 7.14062 11.5365 6.75 10 6.75C8.46354 6.75 7.00521 7.14062 5.625 7.92188C4.27083 8.72917 3.20312 9.79688 2.42188 11.125C1.66667 12.4531 1.27604 13.9115 1.25 15.5ZM20 15.5C19.974 17.3229 19.5312 18.9896 18.6719 20.5C17.7865 22.0104 16.5625 23.2344 15 24.1719C13.4115 25.0573 11.7448 25.5 10 25.5C8.25521 25.5 6.58854 25.0573 5 24.1719C3.4375 23.2344 2.21354 22.0104 1.32812 20.5C0.46875 18.9896 0.0260417 17.3229 0 15.5C0.0260417 13.6771 0.46875 12.0104 1.32812 10.5C2.21354 8.98958 3.4375 7.76562 5 6.82812C6.58854 5.94271 8.25521 5.5 10 5.5C11.7448 5.5 13.4115 5.94271 15 6.82812C16.5625 7.76562 17.7865 8.98958 18.6719 10.5C19.5312 12.0104 19.974 13.6771 20 15.5ZM9.57031 21.5547L5.82031 17.8047C5.63802 17.6224 5.58594 17.401 5.66406 17.1406C5.79427 16.8802 5.98958 16.75 6.25 16.75H13.75C14.0104 16.776 14.2057 16.9062 14.3359 17.1406C14.4141 17.401 14.362 17.6224 14.1797 17.8047L10.4297 21.5547C10.1432 21.8151 9.85677 21.8151 9.57031 21.5547ZM7.77344 18L10 20.2266L12.2266 18H7.77344ZM5.82031 13.1953L9.57031 9.44531C9.85677 9.1849 10.1432 9.1849 10.4297 9.44531L14.1797 13.1953C14.4401 13.4818 14.4401 13.7682 14.1797 14.0547C13.8932 14.3151 13.6068 14.3151 13.3203 14.0547L10 10.7734L6.67969 14.0547C6.39323 14.3151 6.10677 14.3151 5.82031 14.0547C5.5599 13.7682 5.5599 13.4818 5.82031 13.1953Z" fill="black" fill-opacity="0.72"/>
</g>
<defs>
<clipPath id="clip0_1731_4594">
<rect width="20" height="30" fill="white"/>
</clipPath>
</defs>
</svg>
