<svg width="18" height="30" viewBox="0 0 18 30" fill="none" xmlns="http://www.w3.org/2000/svg">
<g id="label-paired / lg / instagram-lg" clip-path="url(#clip0_1731_14050)">
<path id="icon" d="M9 11.0078C10.276 11.0339 11.3307 11.4766 12.1641 12.3359C13.0234 13.1693 13.4661 14.224 13.4922 15.5C13.4661 16.776 13.0234 17.8307 12.1641 18.6641C11.3307 19.5234 10.276 19.9661 9 19.9922C7.72396 19.9661 6.66927 19.5234 5.83594 18.6641C4.97656 17.8307 4.53385 16.776 4.50781 15.5C4.53385 14.224 4.97656 13.1693 5.83594 12.3359C6.66927 11.4766 7.72396 11.0339 9 11.0078ZM9 18.4297C9.83333 18.4036 10.5234 18.1172 11.0703 17.5703C11.6172 17.0234 11.9036 16.3333 11.9297 15.5C11.9036 14.6667 11.6172 13.9766 11.0703 13.4297C10.5234 12.8828 9.83333 12.5964 9 12.5703C8.16667 12.5964 7.47656 12.8828 6.92969 13.4297C6.38281 13.9766 6.09635 14.6667 6.07031 15.5C6.09635 16.3333 6.38281 17.0234 6.92969 17.5703C7.47656 18.1172 8.16667 18.4036 9 18.4297ZM14.7422 10.8125C14.7161 10.526 14.612 10.2786 14.4297 10.0703C14.2214 9.88802 13.974 9.79688 13.6875 9.79688C13.375 9.79688 13.1276 9.88802 12.9453 10.0703C12.737 10.2786 12.6328 10.526 12.6328 10.8125C12.6849 11.4635 13.0365 11.8151 13.6875 11.8672C14.3125 11.8151 14.6641 11.4635 14.7422 10.8125ZM17.7109 11.9062V11.8672C17.737 12.388 17.75 13.1302 17.75 14.0938C17.75 15.0312 17.75 15.9688 17.75 16.9062C17.75 17.8438 17.737 18.5729 17.7109 19.0938C17.7109 20.526 17.2292 21.75 16.2656 22.7656C15.25 23.7292 14.0391 24.1979 12.6328 24.1719C12.112 24.1979 11.3698 24.224 10.4062 24.25C9.46875 24.25 8.53125 24.25 7.59375 24.25C6.63021 24.224 5.90104 24.1979 5.40625 24.1719C3.97396 24.1979 2.75 23.7292 1.73438 22.7656C0.770833 21.75 0.302083 20.526 0.328125 19.0938C0.276042 18.5729 0.25 17.8438 0.25 16.9062C0.25 15.9688 0.25 15.0312 0.25 14.0938C0.25 13.1302 0.276042 12.388 0.328125 11.8672C0.302083 10.4609 0.770833 9.25 1.73438 8.23438C2.77604 7.27083 4 6.78906 5.40625 6.78906C5.90104 6.76302 6.63021 6.75 7.59375 6.75C8.53125 6.75 9.46875 6.75 10.4062 6.75C11.3698 6.75 12.112 6.76302 12.6328 6.78906C14.0391 6.78906 15.25 7.27083 16.2656 8.23438C17.2292 9.25 17.7109 10.474 17.7109 11.9062ZM15.8359 20.6562C16.0182 20.1354 16.1224 19.4323 16.1484 18.5469C16.2005 17.6615 16.2135 16.8542 16.1875 16.125C16.1875 15.8906 16.1875 15.6823 16.1875 15.5C16.1875 15.3177 16.1875 15.1094 16.1875 14.875C16.2135 14.1458 16.2005 13.3385 16.1484 12.4531C16.1224 11.5677 16.0182 10.8646 15.8359 10.3438C15.4974 9.5625 14.9375 9.0026 14.1562 8.66406C13.6354 8.48177 12.9323 8.3776 12.0469 8.35156C11.1615 8.32552 10.3542 8.3125 9.625 8.3125C9.39062 8.3125 9.18229 8.3125 9 8.3125C8.81771 8.3125 8.60938 8.3125 8.375 8.3125C7.64583 8.28646 6.83854 8.29948 5.95312 8.35156C5.09375 8.3776 4.39062 8.48177 3.84375 8.66406C3.0625 9.0026 2.5026 9.5625 2.16406 10.3438C1.98177 10.8646 1.8776 11.5677 1.85156 12.4531C1.82552 13.3385 1.8125 14.1458 1.8125 14.875C1.8125 15.1094 1.8125 15.3177 1.8125 15.5C1.8125 15.6823 1.8125 15.8906 1.8125 16.125C1.8125 16.8542 1.82552 17.6615 1.85156 18.5469C1.8776 19.4062 1.98177 20.1094 2.16406 20.6562C2.5026 21.4375 3.0625 21.9974 3.84375 22.3359C4.39062 22.5182 5.09375 22.6224 5.95312 22.6484C6.83854 22.6745 7.64583 22.6875 8.375 22.6875C8.60938 22.6875 8.81771 22.6875 9 22.6875C9.18229 22.6875 9.39062 22.6875 9.625 22.6875C10.3542 22.6875 11.1615 22.6745 12.0469 22.6484C12.9323 22.6224 13.6354 22.5182 14.1562 22.3359C14.9375 21.9974 15.4974 21.4375 15.8359 20.6562Z" fill="black" fill-opacity="0.72"/>
</g>
<defs>
<clipPath id="clip0_1731_14050">
<rect width="18" height="30" fill="white"/>
</clipPath>
</defs>
</svg>
