<svg width="15" height="18" viewBox="0 0 15 18" fill="none" xmlns="http://www.w3.org/2000/svg">
<g id="label-paired / caption / take-profit-caption / bold" clip-path="url(#clip0_1731_776)">
<path id="icon" d="M5.27344 7.57812V12.6406H3.89062V7.57812H2.20312V6.35938H6.96094V7.57812H5.27344ZM7.89844 12.6406V6.35938H10.875C11.1562 6.35938 11.4375 6.42969 11.6719 6.52344C11.9062 6.61719 12.0938 6.75781 12.2578 6.92188C12.4219 7.10938 12.5625 7.32031 12.6562 7.57812C12.7266 7.8125 12.7734 8.09375 12.7734 8.375C12.7734 8.67969 12.7266 8.96094 12.6562 9.19531C12.5625 9.45312 12.4219 9.66406 12.2578 9.82812C12.0938 9.99219 11.9062 10.1328 11.6719 10.25C11.4375 10.3438 11.1797 10.3906 10.875 10.3906H9.28125V12.6406H7.89844ZM9.28125 9.19531H10.7109C10.9219 9.19531 11.0859 9.14844 11.1797 9.03125C11.3203 8.9375 11.3672 8.77344 11.3672 8.5625V8.1875C11.3672 7.97656 11.3203 7.8125 11.1797 7.71875C11.0859 7.60156 10.9219 7.55469 10.7109 7.55469H9.28125V9.19531Z" fill="black" fill-opacity="0.72"/>
</g>
<defs>
<clipPath id="clip0_1731_776">
<rect width="15" height="18" fill="white"/>
</clipPath>
</defs>
</svg>
