<svg width="12" height="24" viewBox="0 0 12 24" fill="none" xmlns="http://www.w3.org/2000/svg">
<g id="label-paired / md / computer-mouse-scrollwheel-md / bold" clip-path="url(#clip0_1731_3917)">
<path id="icon" d="M10.5 15V9C10.4792 8 10.1354 7.17708 9.46875 6.53125C8.82292 5.86458 8 5.52083 7 5.5H5C4 5.52083 3.17708 5.86458 2.53125 6.53125C1.86458 7.17708 1.52083 8 1.5 9V15C1.52083 16 1.86458 16.8229 2.53125 17.4688C3.17708 18.1354 4 18.4792 5 18.5H7C8 18.4792 8.82292 18.1354 9.46875 17.4688C10.1354 16.8229 10.4792 16 10.5 15ZM0 9C0.0416667 7.58333 0.53125 6.40625 1.46875 5.46875C2.40625 4.53125 3.58333 4.04167 5 4H7C8.41667 4.04167 9.59375 4.53125 10.5312 5.46875C11.4688 6.40625 11.9583 7.58333 12 9V15C11.9583 16.4167 11.4688 17.5938 10.5312 18.5312C9.59375 19.4688 8.41667 19.9583 7 20H5C3.58333 19.9583 2.40625 19.4688 1.46875 18.5312C0.53125 17.5938 0.0416667 16.4167 0 15V9ZM6 7C6.29167 7 6.53125 7.09375 6.71875 7.28125C6.90625 7.46875 7 7.70833 7 8V9C7 9.29167 6.90625 9.53125 6.71875 9.71875C6.53125 9.90625 6.29167 10 6 10C5.70833 10 5.46875 9.90625 5.28125 9.71875C5.09375 9.53125 5 9.29167 5 9V8C5 7.70833 5.09375 7.46875 5.28125 7.28125C5.46875 7.09375 5.70833 7 6 7Z" fill="black" fill-opacity="0.72"/>
</g>
<defs>
<clipPath id="clip0_1731_3917">
<rect width="12" height="24" fill="white"/>
</clipPath>
</defs>
</svg>
