<svg width="30" height="36" viewBox="0 0 30 36" fill="none" xmlns="http://www.w3.org/2000/svg">
<g id="label-paired / xl / take-profit-xl / bold" clip-path="url(#clip0_1731_5808)">
<path id="icon" d="M10.5469 14.1562V24.2812H7.78125V14.1562H4.40625V11.7188H13.9219V14.1562H10.5469ZM15.7969 24.2812V11.7188H21.75C22.3125 11.7188 22.875 11.8594 23.3438 12.0469C23.8125 12.2344 24.1875 12.5156 24.5156 12.8438C24.8438 13.2188 25.125 13.6406 25.3125 14.1562C25.4531 14.625 25.5469 15.1875 25.5469 15.75C25.5469 16.3594 25.4531 16.9219 25.3125 17.3906C25.125 17.9062 24.8438 18.3281 24.5156 18.6562C24.1875 18.9844 23.8125 19.2656 23.3438 19.5C22.875 19.6875 22.3594 19.7812 21.75 19.7812H18.5625V24.2812H15.7969ZM18.5625 17.3906H21.4219C21.8438 17.3906 22.1719 17.2969 22.3594 17.0625C22.6406 16.875 22.7344 16.5469 22.7344 16.125V15.375C22.7344 14.9531 22.6406 14.625 22.3594 14.4375C22.1719 14.2031 21.8438 14.1094 21.4219 14.1094H18.5625V17.3906Z" fill="black" fill-opacity="0.72"/>
</g>
<defs>
<clipPath id="clip0_1731_5808">
<rect width="30" height="36" fill="white"/>
</clipPath>
</defs>
</svg>
