<svg width="16" height="24" viewBox="0 0 16 24" fill="none" xmlns="http://www.w3.org/2000/svg">
<g id="label-paired / md / paste-md / bold" clip-path="url(#clip0_1731_3959)">
<path id="icon" d="M2.5 7H2C1.6875 7.02083 1.52083 7.1875 1.5 7.5V16C1.52083 16.3125 1.6875 16.4792 2 16.5H5V18H2C1.4375 17.9792 0.96875 17.7812 0.59375 17.4062C0.21875 17.0312 0.0208333 16.5625 0 16V7.5C0.0208333 6.9375 0.21875 6.46875 0.59375 6.09375C0.96875 5.71875 1.4375 5.52083 2 5.5H3.28125C3.34375 5.0625 3.53125 4.70833 3.84375 4.4375C4.15625 4.14583 4.54167 4 5 4C5.45833 4 5.84375 4.14583 6.15625 4.4375C6.46875 4.70833 6.65625 5.0625 6.71875 5.5H8C8.47917 5.5 8.89583 5.64583 9.25 5.9375C9.58333 6.20833 9.8125 6.5625 9.9375 7H8C7.4375 7 6.92708 7.13542 6.46875 7.40625C6.03125 7.67708 5.67708 8.04167 5.40625 8.5H3.5C3.20833 8.5 2.96875 8.40625 2.78125 8.21875C2.59375 8.03125 2.5 7.79167 2.5 7.5V7ZM4.5 5.75C4.52083 6.0625 4.6875 6.22917 5 6.25C5.3125 6.22917 5.47917 6.0625 5.5 5.75C5.47917 5.4375 5.3125 5.27083 5 5.25C4.6875 5.27083 4.52083 5.4375 4.5 5.75ZM8 18.5H14C14.3125 18.4792 14.4792 18.3125 14.5 18V12H13C12.7083 12 12.4688 11.9062 12.2812 11.7188C12.0938 11.5312 12 11.2917 12 11V9.5H8C7.6875 9.52083 7.52083 9.6875 7.5 10V18C7.52083 18.3125 7.6875 18.4792 8 18.5ZM14 20H8C7.4375 19.9792 6.96875 19.7812 6.59375 19.4062C6.21875 19.0312 6.02083 18.5625 6 18V10C6.02083 9.4375 6.21875 8.96875 6.59375 8.59375C6.96875 8.21875 7.4375 8.02083 8 8H12.875C13.2917 8 13.6458 8.14583 13.9375 8.4375L15.5625 10.0625C15.8542 10.3542 16 10.7083 16 11.125V18C15.9792 18.5625 15.7812 19.0312 15.4062 19.4062C15.0312 19.7812 14.5625 19.9792 14 20Z" fill="black" fill-opacity="0.72"/>
</g>
<defs>
<clipPath id="clip0_1731_3959">
<rect width="16" height="24" fill="white"/>
</clipPath>
</defs>
</svg>
