<svg width="14" height="22" viewBox="0 0 14 22" fill="none" xmlns="http://www.w3.org/2000/svg">
<g id="label-paired / sm / forward-sm / bold" clip-path="url(#clip0_1731_2796)">
<path id="icon" d="M6.125 6.32031C6.125 6.08333 6.20703 5.89193 6.37109 5.74609C6.51693 5.58203 6.70833 5.5 6.94531 5.5C7.1276 5.5 7.29167 5.55469 7.4375 5.66406L13.7266 10.2305C13.9089 10.3581 14 10.5312 14 10.75C14 10.9688 13.9089 11.1419 13.7266 11.2695L7.4375 15.8359C7.29167 15.9453 7.1276 16 6.94531 16C6.70833 16 6.51693 15.918 6.37109 15.7539C6.20703 15.6081 6.125 15.4167 6.125 15.1797V12.4727L1.28516 15.8633C1.13932 15.9544 0.984375 16 0.820312 16C0.583333 16 0.391927 15.918 0.246094 15.7539C0.0820312 15.6081 0 15.4167 0 15.1797V6.32031C0 6.08333 0.0820312 5.89193 0.246094 5.74609C0.391927 5.58203 0.583333 5.5 0.820312 5.5C1.0026 5.5 1.15755 5.54557 1.28516 5.63672L6.125 9.02734V6.32031ZM6.125 10.6406L1.3125 7.27734V14.25L6.125 10.8594V10.6406ZM12.2227 10.75L7.4375 7.27734V14.2227L12.2227 10.75Z" fill="black" fill-opacity="0.72"/>
</g>
<defs>
<clipPath id="clip0_1731_2796">
<rect width="14" height="22" fill="white"/>
</clipPath>
</defs>
</svg>
