<svg width="12" height="18" viewBox="0 0 12 18" fill="none" xmlns="http://www.w3.org/2000/svg">
<g id="label-paired / caption / chevrons-left-caption / bold" clip-path="url(#clip0_1731_906)">
<path id="icon" d="M1.10156 9.10156L5.60156 4.60156C5.86719 4.38281 6.13281 4.38281 6.39844 4.60156C6.61719 4.86719 6.61719 5.13281 6.39844 5.39844L2.29688 9.5L6.39844 13.6016C6.61719 13.8672 6.61719 14.1328 6.39844 14.3984C6.13281 14.6172 5.86719 14.6172 5.60156 14.3984L1.10156 9.89844C0.882812 9.63281 0.882812 9.36719 1.10156 9.10156ZM10.1016 4.60156C10.3672 4.38281 10.6328 4.38281 10.8984 4.60156C11.1172 4.86719 11.1172 5.13281 10.8984 5.39844L6.79688 9.5L10.8984 13.6016C11.1172 13.8672 11.1172 14.1328 10.8984 14.3984C10.6328 14.6172 10.3672 14.6172 10.1016 14.3984L5.60156 9.89844C5.38281 9.63281 5.38281 9.36719 5.60156 9.10156L10.1016 4.60156Z" fill="black" fill-opacity="0.72"/>
</g>
<defs>
<clipPath id="clip0_1731_906">
<rect width="12" height="18" fill="white"/>
</clipPath>
</defs>
</svg>
