<svg width="15" height="36" viewBox="0 0 15 36" fill="none" xmlns="http://www.w3.org/2000/svg">
<g id="label-paired / xl / five-xl / bold" clip-path="url(#clip0_1731_6048)">
<path id="icon" d="M1.5 8.4375C1.65625 7.84375 2.03125 7.53125 2.625 7.5H12.375C13.0625 7.5625 13.4375 7.9375 13.5 8.625C13.4375 9.3125 13.0625 9.6875 12.375 9.75H3.5625L2.48438 16.125H8.8125C10.5625 16.1562 12.0156 16.7656 13.1719 17.9531C14.3594 19.1094 14.9688 20.5625 15 22.3125C14.9688 24.0625 14.3594 25.5156 13.1719 26.6719C12.0156 27.8594 10.5625 28.4688 8.8125 28.5H4.35938C3.48438 28.5 2.6875 28.2812 1.96875 27.8438C1.25 27.4062 0.703125 26.7969 0.328125 26.0156L0.09375 25.6406C-0.125 24.9844 0.046875 24.4688 0.609375 24.0938C1.26562 23.875 1.76562 24.0469 2.10938 24.6094L2.34375 24.9844C2.78125 25.7969 3.45312 26.2188 4.35938 26.25H8.8125C9.9375 26.2188 10.8594 25.8281 11.5781 25.0781C12.3281 24.3594 12.7188 23.4375 12.75 22.3125C12.7188 21.1875 12.3281 20.2656 11.5781 19.5469C10.8594 18.7969 9.9375 18.4062 8.8125 18.375H1.125C0.78125 18.375 0.5 18.2344 0.28125 17.9531C0.0625 17.7031 -0.03125 17.4062 0 17.0625L1.5 8.4375Z" fill="black" fill-opacity="0.72"/>
</g>
<defs>
<clipPath id="clip0_1731_6048">
<rect width="15" height="36" fill="white"/>
</clipPath>
</defs>
</svg>
