<svg width="9" height="18" viewBox="0 0 9 18" fill="none" xmlns="http://www.w3.org/2000/svg">
<g id="label-paired / caption / file-chart-column-caption / bold" clip-path="url(#clip0_1731_1264)">
<path id="icon" d="M1.125 14C1.14062 14.2344 1.26562 14.3594 1.5 14.375H7.5C7.73438 14.3594 7.85938 14.2344 7.875 14V7.25H6C5.78125 7.25 5.60156 7.17969 5.46094 7.03906C5.32031 6.89844 5.25 6.71875 5.25 6.5V4.625H1.5C1.26562 4.64062 1.14062 4.76562 1.125 5V14ZM1.5 3.5H5.39062C5.79688 3.5 6.14844 3.64844 6.44531 3.94531L8.55469 6.05469C8.85156 6.35156 9 6.71094 9 7.13281V14C8.98438 14.4219 8.83594 14.7734 8.55469 15.0547C8.27344 15.3359 7.92188 15.4844 7.5 15.5H1.5C1.07812 15.4844 0.726562 15.3359 0.445312 15.0547C0.164062 14.7734 0.015625 14.4219 0 14V5C0.015625 4.57812 0.164062 4.22656 0.445312 3.94531C0.726562 3.66406 1.07812 3.51563 1.5 3.5ZM5.0625 10.0625V13.0625C5.03125 13.4062 4.84375 13.5938 4.5 13.625C4.15625 13.5938 3.96875 13.4062 3.9375 13.0625V10.0625C3.96875 9.71875 4.15625 9.53125 4.5 9.5C4.84375 9.53125 5.03125 9.71875 5.0625 10.0625ZM7.125 10.8125V13.0625C7.09375 13.4062 6.90625 13.5938 6.5625 13.625C6.21875 13.5938 6.03125 13.4062 6 13.0625V10.8125C6.03125 10.4688 6.21875 10.2812 6.5625 10.25C6.90625 10.2812 7.09375 10.4688 7.125 10.8125ZM3 11.5625V13.0625C2.96875 13.4062 2.78125 13.5938 2.4375 13.625C2.09375 13.5938 1.90625 13.4062 1.875 13.0625V11.5625C1.90625 11.2188 2.09375 11.0312 2.4375 11C2.78125 11.0312 2.96875 11.2188 3 11.5625Z" fill="black" fill-opacity="0.72"/>
</g>
<defs>
<clipPath id="clip0_1731_1264">
<rect width="9" height="18" fill="white"/>
</clipPath>
</defs>
</svg>
