<svg width="15" height="30" viewBox="0 0 15 30" fill="none" xmlns="http://www.w3.org/2000/svg">
<g id="label-paired / lg / arrow-up-to-line-lg / regular" clip-path="url(#clip0_1731_4382)">
<path id="icon" d="M0.625 6.75H14.375C14.7656 6.77604 14.974 6.98438 15 7.375C14.974 7.76562 14.7656 7.97396 14.375 8H0.625C0.234375 7.97396 0.0260417 7.76562 0 7.375C0.0260417 6.98438 0.234375 6.77604 0.625 6.75ZM7.92969 10.6953L12.9297 15.6953C13.1901 15.9818 13.1901 16.2682 12.9297 16.5547C12.6432 16.8151 12.3568 16.8151 12.0703 16.5547L8.125 12.6484V16.75V23.625C8.09896 24.0156 7.89062 24.224 7.5 24.25C7.10938 24.224 6.90104 24.0156 6.875 23.625V16.75V12.6484L2.92969 16.5547C2.64323 16.8151 2.35677 16.8151 2.07031 16.5547C1.8099 16.2682 1.8099 15.9818 2.07031 15.6953L7.07031 10.6953C7.35677 10.4349 7.64323 10.4349 7.92969 10.6953Z" fill="black" fill-opacity="0.72"/>
</g>
<defs>
<clipPath id="clip0_1731_4382">
<rect width="15" height="30" fill="white"/>
</clipPath>
</defs>
</svg>
