<svg width="15" height="30" viewBox="0 0 15 30" fill="none" xmlns="http://www.w3.org/2000/svg">
<g id="label-paired / lg / computer-mouse-scrollwheel-lg / bold" clip-path="url(#clip0_1731_4874)">
<path id="icon" d="M13.125 19.25V11.75C13.099 10.5 12.6693 9.47135 11.8359 8.66406C11.0286 7.83073 10 7.40104 8.75 7.375H6.25C5 7.40104 3.97135 7.83073 3.16406 8.66406C2.33073 9.47135 1.90104 10.5 1.875 11.75V19.25C1.90104 20.5 2.33073 21.5286 3.16406 22.3359C3.97135 23.1693 5 23.599 6.25 23.625H8.75C10 23.599 11.0286 23.1693 11.8359 22.3359C12.6693 21.5286 13.099 20.5 13.125 19.25ZM0 11.75C0.0520833 9.97917 0.664062 8.50781 1.83594 7.33594C3.00781 6.16406 4.47917 5.55208 6.25 5.5H8.75C10.5208 5.55208 11.9922 6.16406 13.1641 7.33594C14.3359 8.50781 14.9479 9.97917 15 11.75V19.25C14.9479 21.0208 14.3359 22.4922 13.1641 23.6641C11.9922 24.8359 10.5208 25.4479 8.75 25.5H6.25C4.47917 25.4479 3.00781 24.8359 1.83594 23.6641C0.664062 22.4922 0.0520833 21.0208 0 19.25V11.75ZM7.5 9.25C7.86458 9.25 8.16406 9.36719 8.39844 9.60156C8.63281 9.83594 8.75 10.1354 8.75 10.5V11.75C8.75 12.1146 8.63281 12.4141 8.39844 12.6484C8.16406 12.8828 7.86458 13 7.5 13C7.13542 13 6.83594 12.8828 6.60156 12.6484C6.36719 12.4141 6.25 12.1146 6.25 11.75V10.5C6.25 10.1354 6.36719 9.83594 6.60156 9.60156C6.83594 9.36719 7.13542 9.25 7.5 9.25Z" fill="black" fill-opacity="0.72"/>
</g>
<defs>
<clipPath id="clip0_1731_4874">
<rect width="15" height="30" fill="white"/>
</clipPath>
</defs>
</svg>
