<svg width="25" height="30" viewBox="0 0 25 30" fill="none" xmlns="http://www.w3.org/2000/svg">
<g id="label-paired / lg / chart-ohlc-lg / bold" clip-path="url(#clip0_1731_4752)">
<path id="icon" d="M12.5 5.5C13.0078 5.5 13.4375 5.92969 13.4375 6.4375V8H15C15.5078 8 15.9375 8.42969 15.9375 8.9375C15.9375 9.48438 15.5078 9.875 15 9.875H13.4375V22.0625C13.4375 22.6094 13.0078 23 12.5 23C11.9531 23 11.5625 22.6094 11.5625 22.0625V20.5H10C9.45312 20.5 9.0625 20.1094 9.0625 19.5625C9.0625 19.0547 9.45312 18.625 10 18.625H11.5625V6.4375C11.5625 5.92969 11.9531 5.5 12.5 5.5ZM20.625 8C21.1328 8 21.5625 8.42969 21.5625 8.9375V16.125H23.125C23.6328 16.125 24.0625 16.5547 24.0625 17.0625C24.0625 17.6094 23.6328 18 23.125 18H21.5625V19.5625C21.5625 20.1094 21.1328 20.5 20.625 20.5C20.0781 20.5 19.6875 20.1094 19.6875 19.5625V12.375H18.125C17.5781 12.375 17.1875 11.9844 17.1875 11.4375C17.1875 10.9297 17.5781 10.5 18.125 10.5H19.6875V8.9375C19.6875 8.42969 20.0781 8 20.625 8ZM4.375 13C4.88281 13 5.3125 13.4297 5.3125 13.9375V21.125H6.875C7.38281 21.125 7.8125 21.5547 7.8125 22.0625C7.8125 22.6094 7.38281 23 6.875 23H5.3125V24.5625C5.3125 25.1094 4.88281 25.5 4.375 25.5C3.82812 25.5 3.4375 25.1094 3.4375 24.5625V17.375H1.875C1.32812 17.375 0.9375 16.9844 0.9375 16.4375C0.9375 15.9297 1.32812 15.5 1.875 15.5H3.4375V13.9375C3.4375 13.4297 3.82812 13 4.375 13Z" fill="black" fill-opacity="0.72"/>
</g>
<defs>
<clipPath id="clip0_1731_4752">
<rect width="25" height="30" fill="white"/>
</clipPath>
</defs>
</svg>
