<svg width="27" height="36" viewBox="0 0 27 36" fill="none" xmlns="http://www.w3.org/2000/svg">
<g id="label-paired / xl / money-bill-xl / regular" clip-path="url(#clip0_1731_6758)">
<path id="icon" d="M22.5 10.5C22.5312 11.3438 22.8281 12.0469 23.3906 12.6094C23.9531 13.1719 24.6562 13.4688 25.5 13.5V12C25.5 11.5625 25.3594 11.2031 25.0781 10.9219C24.7969 10.6406 24.4375 10.5 24 10.5H22.5ZM21 10.5H6C5.96875 11.7812 5.53125 12.8438 4.6875 13.6875C3.84375 14.5312 2.78125 14.9688 1.5 15V21C2.78125 21.0312 3.84375 21.4688 4.6875 22.3125C5.53125 23.1562 5.96875 24.2188 6 25.5H21C21.0312 24.2188 21.4688 23.1562 22.3125 22.3125C23.1562 21.4688 24.2188 21.0312 25.5 21V15C24.2188 14.9688 23.1562 14.5312 22.3125 13.6875C21.4688 12.8438 21.0312 11.7812 21 10.5ZM1.5 24C1.5 24.4375 1.64062 24.7969 1.92188 25.0781C2.20312 25.3594 2.5625 25.5 3 25.5H4.5C4.46875 24.6562 4.17188 23.9531 3.60938 23.3906C3.04688 22.8281 2.34375 22.5312 1.5 22.5V24ZM25.5 22.5C24.6562 22.5312 23.9531 22.8281 23.3906 23.3906C22.8281 23.9531 22.5312 24.6562 22.5 25.5H24C24.4375 25.5 24.7969 25.3594 25.0781 25.0781C25.3594 24.7969 25.5 24.4375 25.5 24V22.5ZM3 10.5C2.5625 10.5 2.20312 10.6406 1.92188 10.9219C1.64062 11.2031 1.5 11.5625 1.5 12V13.5C2.34375 13.4688 3.04688 13.1719 3.60938 12.6094C4.17188 12.0469 4.46875 11.3438 4.5 10.5H3ZM0 12C0.03125 11.1562 0.328125 10.4531 0.890625 9.89062C1.45312 9.32812 2.15625 9.03125 3 9H24C24.8438 9.03125 25.5469 9.32812 26.1094 9.89062C26.6719 10.4531 26.9688 11.1562 27 12V24C26.9688 24.8438 26.6719 25.5469 26.1094 26.1094C25.5469 26.6719 24.8438 26.9688 24 27H3C2.15625 26.9688 1.45312 26.6719 0.890625 26.1094C0.328125 25.5469 0.03125 24.8438 0 24V12ZM16.5 18C16.4688 16.875 15.9688 16.0156 15 15.4219C14 14.8594 13 14.8594 12 15.4219C11.0312 16.0156 10.5312 16.875 10.5 18C10.5312 19.125 11.0312 19.9844 12 20.5781C13 21.1406 14 21.1406 15 20.5781C15.9688 19.9844 16.4688 19.125 16.5 18ZM9 18C9 17.1875 9.20312 16.4375 9.60938 15.75C10.0156 15.0625 10.5625 14.5156 11.25 14.1094C11.9688 13.7031 12.7188 13.5 13.5 13.5C14.2812 13.5 15.0312 13.7031 15.75 14.1094C16.4375 14.5156 16.9844 15.0625 17.3906 15.75C17.7969 16.4375 18 17.1875 18 18C18 18.8125 17.7969 19.5625 17.3906 20.25C16.9844 20.9375 16.4375 21.4844 15.75 21.8906C15.0312 22.2969 14.2812 22.5 13.5 22.5C12.7188 22.5 11.9688 22.2969 11.25 21.8906C10.5625 21.4844 10.0156 20.9375 9.60938 20.25C9.20312 19.5625 9 18.8125 9 18Z" fill="black" fill-opacity="0.72"/>
</g>
<defs>
<clipPath id="clip0_1731_6758">
<rect width="27" height="36" fill="white"/>
</clipPath>
</defs>
</svg>
