<svg width="5" height="18" viewBox="0 0 5 18" fill="none" xmlns="http://www.w3.org/2000/svg">
<g id="label-paired / caption / info-caption / regular" clip-path="url(#clip0_1731_1631)">
<path id="icon" d="M1.75 5C1.75 4.78125 1.82031 4.60156 1.96094 4.46094C2.10156 4.32031 2.28125 4.25 2.5 4.25C2.71875 4.25 2.89844 4.32031 3.03906 4.46094C3.17969 4.60156 3.25 4.78125 3.25 5C3.25 5.21875 3.17969 5.39844 3.03906 5.53906C2.89844 5.67969 2.71875 5.75 2.5 5.75C2.28125 5.75 2.10156 5.67969 1.96094 5.53906C1.82031 5.39844 1.75 5.21875 1.75 5ZM0.625 7.625C0.640625 7.39062 0.765625 7.26562 1 7.25H2.5C2.73438 7.26562 2.85938 7.39062 2.875 7.625V14H4.375C4.60938 14.0156 4.73438 14.1406 4.75 14.375C4.73438 14.6094 4.60938 14.7344 4.375 14.75H0.625C0.390625 14.7344 0.265625 14.6094 0.25 14.375C0.265625 14.1406 0.390625 14.0156 0.625 14H2.125V8H1C0.765625 7.98438 0.640625 7.85938 0.625 7.625Z" fill="black" fill-opacity="0.72"/>
</g>
<defs>
<clipPath id="clip0_1731_1631">
<rect width="5" height="18" fill="white"/>
</clipPath>
</defs>
</svg>
