<svg width="15" height="30" viewBox="0 0 15 30" fill="none" xmlns="http://www.w3.org/2000/svg">
<g id="label-paired / lg / bookmark-lg / regular" clip-path="url(#clip0_1731_5339)">
<path id="icon" d="M0 7.375C0.0260417 6.85417 0.208333 6.41146 0.546875 6.04688C0.911458 5.70833 1.35417 5.52604 1.875 5.5H13.125C13.6458 5.52604 14.0885 5.70833 14.4531 6.04688C14.7917 6.41146 14.974 6.85417 15 7.375V24.6406C14.9479 25.1615 14.6615 25.4479 14.1406 25.5C13.9583 25.5 13.8021 25.4479 13.6719 25.3438L7.5 21.2422L1.32812 25.3438C1.19792 25.4479 1.04167 25.5 0.859375 25.5C0.338542 25.4479 0.0520833 25.1615 0 24.6406V7.375ZM1.875 6.75C1.48438 6.77604 1.27604 6.98438 1.25 7.375V23.8984L7.14844 19.9922C7.38281 19.8359 7.61719 19.8359 7.85156 19.9922L13.75 23.8984V7.375C13.724 6.98438 13.5156 6.77604 13.125 6.75H1.875Z" fill="black" fill-opacity="0.72"/>
</g>
<defs>
<clipPath id="clip0_1731_5339">
<rect width="15" height="30" fill="white"/>
</clipPath>
</defs>
</svg>
