<svg width="13" height="22" viewBox="0 0 13 22" fill="none" xmlns="http://www.w3.org/2000/svg">
<g id="label-paired / sm / copy-sm / bold" clip-path="url(#clip0_1731_2696)">
<path id="icon" d="M10.875 12.9375C11.1484 12.9193 11.2943 12.7734 11.3125 12.5V6.92188L9.45312 5.0625H5.625C5.35156 5.08073 5.20573 5.22656 5.1875 5.5V12.5C5.20573 12.7734 5.35156 12.9193 5.625 12.9375H10.875ZM5.625 14.25C5.13281 14.2318 4.72266 14.0586 4.39453 13.7305C4.06641 13.4023 3.89323 12.9922 3.875 12.5V5.5C3.89323 5.00781 4.06641 4.59766 4.39453 4.26953C4.72266 3.94141 5.13281 3.76823 5.625 3.75H9.45312C9.81771 3.75 10.1276 3.8776 10.3828 4.13281L12.2422 5.99219C12.4974 6.2474 12.625 6.55729 12.625 6.92188V12.5C12.6068 12.9922 12.4336 13.4023 12.1055 13.7305C11.7773 14.0586 11.3672 14.2318 10.875 14.25H5.625ZM2.125 7.25H3V8.5625H2.125C1.85156 8.58073 1.70573 8.72656 1.6875 9V16C1.70573 16.2734 1.85156 16.4193 2.125 16.4375H7.375C7.64844 16.4193 7.79427 16.2734 7.8125 16V15.125H9.125V16C9.10677 16.4922 8.93359 16.9023 8.60547 17.2305C8.27734 17.5586 7.86719 17.7318 7.375 17.75H2.125C1.63281 17.7318 1.22266 17.5586 0.894531 17.2305C0.566406 16.9023 0.393229 16.4922 0.375 16V9C0.393229 8.50781 0.566406 8.09766 0.894531 7.76953C1.22266 7.44141 1.63281 7.26823 2.125 7.25Z" fill="black" fill-opacity="0.72"/>
</g>
<defs>
<clipPath id="clip0_1731_2696">
<rect width="13" height="22" fill="white"/>
</clipPath>
</defs>
</svg>
