<svg width="18" height="30" viewBox="0 0 18 30" fill="none" xmlns="http://www.w3.org/2000/svg">
<g id="label-paired / lg / lock-lg / regular" clip-path="url(#clip0_1731_5047)">
<path id="icon" d="M5.25 10.5V13H12.75V10.5C12.724 9.43229 12.3594 8.54688 11.6562 7.84375C10.9531 7.14062 10.0677 6.77604 9 6.75C7.93229 6.77604 7.04688 7.14062 6.34375 7.84375C5.64062 8.54688 5.27604 9.43229 5.25 10.5ZM4 13V10.5C4.02604 9.09375 4.50781 7.90885 5.44531 6.94531C6.40885 6.00781 7.59375 5.52604 9 5.5C10.4062 5.52604 11.5911 6.00781 12.5547 6.94531C13.4922 7.90885 13.974 9.09375 14 10.5V13H14.625C15.5104 13.026 16.2526 13.3255 16.8516 13.8984C17.4245 14.4974 17.724 15.2396 17.75 16.125V22.375C17.724 23.2604 17.4245 24.0026 16.8516 24.6016C16.2526 25.1745 15.5104 25.474 14.625 25.5H3.375C2.48958 25.474 1.7474 25.1745 1.14844 24.6016C0.575521 24.0026 0.276042 23.2604 0.25 22.375V16.125C0.276042 15.2396 0.575521 14.4974 1.14844 13.8984C1.7474 13.3255 2.48958 13.026 3.375 13H4ZM1.5 16.125V22.375C1.52604 22.8958 1.70833 23.3385 2.04688 23.7031C2.41146 24.0417 2.85417 24.224 3.375 24.25H14.625C15.1458 24.224 15.5885 24.0417 15.9531 23.7031C16.2917 23.3385 16.474 22.8958 16.5 22.375V16.125C16.474 15.6042 16.2917 15.1615 15.9531 14.7969C15.5885 14.4583 15.1458 14.276 14.625 14.25H3.375C2.85417 14.276 2.41146 14.4583 2.04688 14.7969C1.70833 15.1615 1.52604 15.6042 1.5 16.125Z" fill="black" fill-opacity="0.72"/>
</g>
<defs>
<clipPath id="clip0_1731_5047">
<rect width="18" height="30" fill="white"/>
</clipPath>
</defs>
</svg>
