<svg width="10" height="24" viewBox="0 0 10 24" fill="none" xmlns="http://www.w3.org/2000/svg">
<g id="label-paired / md / backward-step-md / bold" clip-path="url(#clip0_1731_4075)">
<path id="icon" d="M2.5 6.75V10.0312L8.03125 6.15625C8.17708 6.05208 8.35417 6 8.5625 6C8.83333 6 9.05208 6.09375 9.21875 6.28125C9.40625 6.44792 9.5 6.66667 9.5 6.9375V17.0625C9.5 17.3333 9.40625 17.5521 9.21875 17.7188C9.05208 17.9062 8.83333 18 8.5625 18C8.375 18 8.19792 17.9479 8.03125 17.8438L2.5 13.9688V17.25C2.45833 17.7083 2.20833 17.9583 1.75 18C1.29167 17.9583 1.04167 17.7083 1 17.25V12.9062V11.0938V6.75C1.04167 6.29167 1.29167 6.04167 1.75 6C2.20833 6.04167 2.45833 6.29167 2.5 6.75ZM2.5 12.125L8 16V8.03125L2.5 11.875V12.125Z" fill="black" fill-opacity="0.72"/>
</g>
<defs>
<clipPath id="clip0_1731_4075">
<rect width="10" height="24" fill="white"/>
</clipPath>
</defs>
</svg>
