<svg width="15" height="18" viewBox="0 0 15 18" fill="none" xmlns="http://www.w3.org/2000/svg">
<g id="label-paired / caption / chart-trend-down-caption / regular" clip-path="url(#clip0_1885_530)">
<path id="icon" d="M14.4141 15.1016C14.2266 15.1953 13.9922 15.125 13.8984 14.9375L11.7656 10.625H8.25C8.08594 10.625 7.96875 10.5547 7.89844 10.4375L5.0625 4.76562L0.914062 6.85156C0.726562 6.94531 0.492188 6.85156 0.398438 6.6875C0.304688 6.5 0.375 6.26562 0.5625 6.17188L5.0625 3.92188C5.25 3.82812 5.48438 3.89844 5.57812 4.08594L8.46094 9.875H12C12.1406 9.875 12.2578 9.96875 12.3281 10.0859L14.5781 14.5859C14.6719 14.7734 14.6016 15.0078 14.4141 15.1016Z" fill="black" fill-opacity="0.72"/>
</g>
<defs>
<clipPath id="clip0_1885_530">
<rect width="15" height="18" fill="white"/>
</clipPath>
</defs>
</svg>
