<svg width="11" height="18" viewBox="0 0 11 18" fill="none" xmlns="http://www.w3.org/2000/svg">
<g id="label-paired / caption / flag-checkered-caption / regular" clip-path="url(#clip0_1731_1425)">
<path id="icon" d="M1 3.875V4.88281L3.29688 4.25C4.29688 4 5.25781 4.09375 6.17969 4.53125C6.66406 4.78125 7.17969 4.89844 7.72656 4.88281C8.27344 4.86719 8.78906 4.72656 9.27344 4.46094L9.625 4.25C9.89062 4.10938 10.1406 4.10938 10.375 4.25C10.6094 4.375 10.7344 4.58594 10.75 4.88281V11.5156C10.7344 11.8281 10.5859 12.0547 10.3047 12.1953L9.57812 12.5C8.98438 12.75 8.375 12.8672 7.75 12.8516C7.125 12.8359 6.52344 12.6797 5.94531 12.3828C5.11719 11.9922 4.26562 11.9062 3.39062 12.125L1 12.7812V15.125C0.984375 15.3594 0.859375 15.4844 0.625 15.5C0.390625 15.4844 0.265625 15.3594 0.25 15.125V12.9922V12.5V5.375V5.09375V3.875C0.265625 3.64062 0.390625 3.51563 0.625 3.5C0.859375 3.51563 0.984375 3.64062 1 3.875ZM1 5.65625V7.10938L3.25 6.64062V5.04688L1 5.65625ZM1 7.88281V9.54688L3.25 9.07812V7.39062L1 7.88281ZM4 7.22656V8.89062C4.53125 8.79688 5.0625 8.82812 5.59375 8.98438L7 9.38281V7.74219C6.96875 7.72656 6.92969 7.71094 6.88281 7.69531L5.38281 7.27344C4.94531 7.14844 4.51562 7.13281 4.09375 7.22656H4ZM7.75 7.85938V9.54688C8.10938 9.57812 8.46094 9.55469 8.80469 9.47656L10 9.19531V7.53125L8.99219 7.76562C8.57031 7.85938 8.15625 7.89062 7.75 7.85938ZM7 10.1797C6.96875 10.1641 6.92969 10.1484 6.88281 10.1328L5.38281 9.71094C4.94531 9.58594 4.51562 9.57031 4.09375 9.66406H4V11.2812C4.79688 11.2188 5.55469 11.3672 6.27344 11.7266C6.50781 11.8359 6.75 11.9219 7 11.9844V10.1797ZM7.75 12.1016C8.28125 12.1172 8.79688 12.0156 9.29688 11.7969L10 11.5156V9.96875L8.99219 10.2031C8.57031 10.2969 8.15625 10.3281 7.75 10.2969V12.1016ZM7.75 7.10938C8.10938 7.14062 8.46094 7.11719 8.80469 7.03906L10 6.75781V4.90625L9.625 5.09375C9.03125 5.4375 8.40625 5.61719 7.75 5.63281V7.10938ZM7 5.58594C6.59375 5.52344 6.20312 5.39844 5.82812 5.21094C5.25 4.92969 4.64062 4.82031 4 4.88281V6.47656C4.53125 6.36719 5.0625 6.39062 5.59375 6.54688L7 6.96875V5.58594ZM1 10.3203V12.0078L3.17969 11.4219C3.21094 11.4062 3.23438 11.3984 3.25 11.3984V9.82812L1 10.3203Z" fill="black" fill-opacity="0.72"/>
</g>
<defs>
<clipPath id="clip0_1731_1425">
<rect width="11" height="18" fill="white"/>
</clipPath>
</defs>
</svg>
