<svg width="18" height="22" viewBox="0 0 18 22" fill="none" xmlns="http://www.w3.org/2000/svg">
<g id="label-paired / sm / ipados-sm" clip-path="url(#clip0_1731_13872)">
<path id="icon" d="M11.9805 7.85156C11.9805 7.46875 11.7891 7.22266 11.4883 7.22266C11.1875 7.22266 10.9961 7.44141 10.9961 7.85156C10.9961 8.26172 11.1875 8.50781 11.4883 8.50781C11.7891 8.50781 11.9805 8.26172 11.9805 7.85156ZM7.96094 7.14062C7.96094 7.44141 7.76953 7.60547 7.44141 7.60547H6.94922V6.64844H7.44141C7.76953 6.64844 7.96094 6.8125 7.96094 7.14062ZM6.78516 10.3125C7.82422 10.3125 8.45312 11.1055 8.45312 12.3633C8.45312 13.5938 7.82422 14.3867 6.78516 14.3867C5.74609 14.3867 5.08984 13.5938 5.08984 12.3633C5.08984 11.1055 5.74609 10.3125 6.78516 10.3125ZM9.35547 7.96094C9.10938 7.98828 9 8.07031 9 8.23438C9 8.42578 9.13672 8.50781 9.32812 8.50781C9.60156 8.50781 9.82031 8.34375 9.82031 8.09766V7.93359L9.35547 7.96094ZM15.6992 5.63672C15.9727 6.32031 16 7.11328 16 7.60547V13.9219C16 14.4141 15.9727 15.207 15.6992 15.8906C15.5625 16.2461 15.2617 16.7383 14.8242 17.0664C14.5508 17.2578 14.25 17.4492 13.8398 17.5859C13.375 17.7227 12.8281 17.75 12.1445 17.75H5.82812C5.14453 17.75 4.59766 17.7227 4.13281 17.5859C3.72266 17.4492 3.42188 17.2578 3.14844 17.0664C2.71094 16.7383 2.41016 16.2461 2.27344 15.8906C2 15.207 2 14.4141 2 13.9219V7.60547C2 7.11328 2 6.32031 2.27344 5.63672C2.41016 5.28125 2.71094 4.78906 3.14844 4.46094C3.42188 4.24219 3.72266 4.07812 4.13281 3.94141C4.59766 3.80469 5.14453 3.75 5.82812 3.75H12.1445C12.8281 3.75 13.375 3.80469 13.8398 3.94141C14.25 4.05078 14.5508 4.24219 14.8242 4.46094C15.2617 4.78906 15.5625 5.28125 15.6992 5.63672ZM11.3789 6.89453C10.9141 6.89453 10.6133 7.27734 10.6133 7.85156C10.6133 8.45312 10.9141 8.80859 11.3789 8.80859C11.6523 8.80859 11.8438 8.69922 11.9805 8.48047H12.0078V8.78125H12.3359V6.21094H11.9805V7.22266H11.9531C11.8438 7.03125 11.625 6.89453 11.3789 6.89453ZM6.56641 6.32031V8.78125H6.94922V7.93359H7.52344C7.98828 7.93359 8.34375 7.60547 8.34375 7.14062C8.34375 6.64844 8.01562 6.32031 7.52344 6.32031H6.56641ZM5.80078 6.59375C5.88281 6.62109 5.96484 6.56641 6.01953 6.48438C6.07422 6.42969 6.07422 6.32031 6.01953 6.23828C5.96484 6.15625 5.88281 6.12891 5.80078 6.12891C5.71875 6.12891 5.63672 6.15625 5.58203 6.23828C5.52734 6.32031 5.52734 6.42969 5.58203 6.48438C5.63672 6.56641 5.71875 6.62109 5.80078 6.59375ZM5.99219 6.92188H5.60938V8.78125H5.99219V6.92188ZM6.78516 14.9883C8.20703 14.9883 9.10938 13.9766 9.10938 12.3633C9.10938 10.75 8.20703 9.71094 6.78516 9.71094C5.33594 9.71094 4.43359 10.75 4.43359 12.3633C4.43359 13.9766 5.33594 14.9883 6.78516 14.9883ZM8.61719 8.26172C8.61719 8.58984 8.89062 8.80859 9.24609 8.80859C9.49219 8.80859 9.68359 8.69922 9.79297 8.50781H9.82031V8.78125H10.1758V7.52344C10.1758 7.11328 9.92969 6.89453 9.4375 6.89453C9.02734 6.89453 8.72656 7.08594 8.69922 7.41406H9.05469C9.08203 7.27734 9.21875 7.19531 9.4375 7.19531C9.68359 7.19531 9.82031 7.30469 9.82031 7.52344V7.6875L9.30078 7.71484C8.86328 7.74219 8.61719 7.93359 8.61719 8.26172ZM11.4883 14.9883C12.6094 14.9883 13.3477 14.3867 13.3477 13.457C13.3477 12.7188 12.9375 12.3086 11.8711 12.0625L11.3242 11.9531C10.6133 11.7891 10.3398 11.5156 10.3398 11.1328C10.3398 10.6133 10.832 10.2852 11.4609 10.2852C12.1445 10.2852 12.582 10.6406 12.6367 11.1875H13.2656C13.2383 10.3398 12.5 9.71094 11.4883 9.71094C10.4219 9.71094 9.68359 10.3125 9.68359 11.1602C9.68359 11.8711 10.1484 12.3359 11.1602 12.5547L11.707 12.6914C12.418 12.8281 12.6914 13.1289 12.6914 13.5391C12.6914 14.0312 12.1992 14.4141 11.5156 14.4141C10.7773 14.4141 10.2852 14.0859 10.2031 13.5391H9.57422C9.62891 14.4141 10.3672 14.9883 11.4883 14.9883Z" fill="black" fill-opacity="0.72"/>
</g>
<defs>
<clipPath id="clip0_1731_13872">
<rect width="18" height="22" fill="white"/>
</clipPath>
</defs>
</svg>
