<svg width="16" height="22" viewBox="0 0 16 22" fill="none" xmlns="http://www.w3.org/2000/svg">
<g id="label-paired / sm / arrow-up-a-z-sm / regular" clip-path="url(#clip0_1731_2394)">
<path id="icon" d="M4.80078 4.76172L7.42578 7.38672C7.60807 7.58724 7.60807 7.78776 7.42578 7.98828C7.22526 8.17057 7.02474 8.17057 6.82422 7.98828L4.9375 6.12891V16.4375C4.91927 16.7109 4.77344 16.8568 4.5 16.875C4.22656 16.8568 4.08073 16.7109 4.0625 16.4375V6.12891L2.17578 7.98828C1.97526 8.17057 1.77474 8.17057 1.57422 7.98828C1.39193 7.78776 1.39193 7.58724 1.57422 7.38672L4.19922 4.76172C4.39974 4.57943 4.60026 4.57943 4.80078 4.76172ZM9.75 11.625H13.25C13.4323 11.625 13.5599 11.707 13.6328 11.8711C13.7057 12.0352 13.6966 12.1901 13.6055 12.3359L10.6523 16H13.25C13.5234 16.0182 13.6693 16.1641 13.6875 16.4375C13.6693 16.7109 13.5234 16.8568 13.25 16.875H9.75C9.56771 16.875 9.4401 16.793 9.36719 16.6289C9.29427 16.4648 9.3125 16.3099 9.42188 16.1641L12.3477 12.5H9.75C9.47656 12.4818 9.33073 12.3359 9.3125 12.0625C9.33073 11.7891 9.47656 11.6432 9.75 11.625ZM11.5 4.625C11.6823 4.625 11.8099 4.70703 11.8828 4.87109L13.6328 8.37109C13.651 8.37109 13.6602 8.37109 13.6602 8.37109L14.0703 9.24609C14.1797 9.5013 14.1159 9.69271 13.8789 9.82031C13.6419 9.92969 13.4505 9.86589 13.3047 9.62891L12.9766 9H10.0234L9.69531 9.62891C9.56771 9.86589 9.3763 9.92969 9.12109 9.82031C8.88411 9.69271 8.82031 9.5013 8.92969 9.24609L9.36719 8.37109L11.1172 4.87109C11.1901 4.70703 11.3177 4.625 11.5 4.625ZM10.4609 8.125H12.5391L11.5 6.04688L10.4609 8.125Z" fill="black" fill-opacity="0.72"/>
</g>
<defs>
<clipPath id="clip0_1731_2394">
<rect width="16" height="22" fill="white"/>
</clipPath>
</defs>
</svg>
