<svg width="27" height="36" viewBox="0 0 27 36" fill="none" xmlns="http://www.w3.org/2000/svg">
<g id="label-paired / xl / star-xl / fill" clip-path="url(#clip0_1731_5850)">
<path id="icon" d="M14.8594 6.84375L17.8594 13.0312L24.6094 14.0625C25.2031 14.1562 25.6094 14.4844 25.8281 15.0469C25.9844 15.6406 25.8594 16.1562 25.4531 16.5938L20.5781 21.4219L21.7031 28.2656C21.7969 28.8594 21.5938 29.3438 21.0938 29.7188C20.5938 30.0625 20.0781 30.0938 19.5469 29.8125L13.5 26.625L7.5 29.8125C6.9375 30.0938 6.40625 30.0625 5.90625 29.7188C5.4375 29.3438 5.23438 28.8594 5.29688 28.2656L6.46875 21.4219L1.59375 16.5938C1.15625 16.1562 1.03125 15.6406 1.21875 15.0469C1.40625 14.4844 1.79688 14.1562 2.39062 14.0625L9.14062 13.0312L12.1406 6.84375C12.4531 6.3125 12.9062 6.03125 13.5 6C14.125 6.03125 14.5781 6.3125 14.8594 6.84375Z" fill="black" fill-opacity="0.72"/>
</g>
<defs>
<clipPath id="clip0_1731_5850">
<rect width="27" height="36" fill="white"/>
</clipPath>
</defs>
</svg>
