<svg width="9" height="18" viewBox="0 0 9 18" fill="none" xmlns="http://www.w3.org/2000/svg">
<g id="label-paired / caption / file-invoice-dollar-caption / regular" clip-path="url(#clip0_1731_1516)">
<path id="icon" d="M8.25 14V8H5.625C5.3125 7.98438 5.04688 7.875 4.82812 7.67188C4.625 7.45312 4.51562 7.1875 4.5 6.875V4.25H1.5C1.28125 4.25 1.10156 4.32031 0.960938 4.46094C0.820312 4.60156 0.75 4.78125 0.75 5V14C0.75 14.2188 0.820312 14.3984 0.960938 14.5391C1.10156 14.6797 1.28125 14.75 1.5 14.75H7.5C7.71875 14.75 7.89844 14.6797 8.03906 14.5391C8.17969 14.3984 8.25 14.2188 8.25 14ZM8.25 7.25C8.21875 7.1875 8.17969 7.13281 8.13281 7.08594L5.41406 4.36719C5.36719 4.32031 5.3125 4.28906 5.25 4.27344V6.875C5.26562 7.10938 5.39062 7.23438 5.625 7.25H8.25ZM0 5C0.015625 4.57812 0.164062 4.22656 0.445312 3.94531C0.726562 3.66406 1.07812 3.51563 1.5 3.5H5.15625C5.46875 3.5 5.73438 3.60938 5.95312 3.82812L8.67188 6.54688C8.89062 6.76562 9 7.03125 9 7.34375V14C8.98438 14.4219 8.83594 14.7734 8.55469 15.0547C8.27344 15.3359 7.92188 15.4844 7.5 15.5H1.5C1.07812 15.4844 0.726562 15.3359 0.445312 15.0547C0.164062 14.7734 0.015625 14.4219 0 14V5ZM1.5 5.375C1.51562 5.14062 1.64062 5.01562 1.875 5H3.375C3.60938 5.01562 3.73438 5.14062 3.75 5.375C3.73438 5.60938 3.60938 5.73438 3.375 5.75H1.875C1.64062 5.73438 1.51562 5.60938 1.5 5.375ZM1.5 6.875C1.51562 6.64062 1.64062 6.51562 1.875 6.5H3.375C3.60938 6.51562 3.73438 6.64062 3.75 6.875C3.73438 7.10938 3.60938 7.23438 3.375 7.25H1.875C1.64062 7.23438 1.51562 7.10938 1.5 6.875ZM4.875 9.21875V9.52344C5.07812 9.55469 5.26562 9.59375 5.4375 9.64062C5.65625 9.70312 5.75 9.85156 5.71875 10.0859C5.64062 10.3047 5.48438 10.3984 5.25 10.3672C4.98438 10.3047 4.73438 10.2656 4.5 10.25C4.28125 10.25 4.08594 10.2891 3.91406 10.3672C3.78906 10.4453 3.73438 10.5234 3.75 10.6016C3.73438 10.6328 3.78906 10.6875 3.91406 10.7656C4.07031 10.8438 4.29688 10.9141 4.59375 10.9766L4.61719 11C4.89844 11.0625 5.17969 11.1562 5.46094 11.2812C5.77344 11.4375 5.95312 11.7188 6 12.125C5.96875 12.5781 5.78125 12.8828 5.4375 13.0391C5.26562 13.1328 5.07812 13.1953 4.875 13.2266V13.5547C4.85938 13.7734 4.73438 13.8984 4.5 13.9297C4.26562 13.8984 4.14062 13.7734 4.125 13.5547V13.2031C3.875 13.1562 3.64062 13.1016 3.42188 13.0391C3.375 13.0234 3.33594 13.0078 3.30469 12.9922C3.28906 12.9922 3.28125 12.9922 3.28125 12.9922C3.0625 12.8984 2.97656 12.7422 3.02344 12.5234C3.10156 12.3047 3.25781 12.2188 3.49219 12.2656C3.53906 12.2812 3.59375 12.2969 3.65625 12.3125C3.96875 12.4219 4.25781 12.4844 4.52344 12.5C4.74219 12.5 4.92969 12.4609 5.08594 12.3828C5.21094 12.3203 5.26562 12.2422 5.25 12.1484C5.26562 12.0859 5.21094 12.0156 5.08594 11.9375C4.92969 11.8594 4.70312 11.7812 4.40625 11.7031H4.35938C4.35938 11.7031 4.35156 11.7031 4.33594 11.7031C4.07031 11.6406 3.8125 11.5469 3.5625 11.4219C3.23438 11.2812 3.04688 11.0078 3 10.6016C3.04688 10.1484 3.24219 9.85156 3.58594 9.71094C3.75781 9.61719 3.9375 9.55469 4.125 9.52344V9.21875C4.15625 8.98438 4.28125 8.85938 4.5 8.84375C4.73438 8.85938 4.85938 8.98438 4.875 9.21875Z" fill="black" fill-opacity="0.72"/>
</g>
<defs>
<clipPath id="clip0_1731_1516">
<rect width="9" height="18" fill="white"/>
</clipPath>
</defs>
</svg>
