<svg width="12" height="18" viewBox="0 0 12 18" fill="none" xmlns="http://www.w3.org/2000/svg">
<g id="label-paired / caption / arrow-up-right-from-square-caption / regular" clip-path="url(#clip0_1731_664)">
<path id="icon" d="M7.875 3.5H11.625C11.8594 3.51563 11.9844 3.64062 12 3.875V7.625C11.9844 7.85938 11.8594 7.98438 11.625 8C11.3906 7.98438 11.2656 7.85938 11.25 7.625V4.78906L5.50781 10.5078C5.33594 10.6641 5.16406 10.6641 4.99219 10.5078C4.83594 10.3359 4.83594 10.1641 4.99219 9.99219L10.7109 4.25H7.875C7.64062 4.23438 7.51562 4.10938 7.5 3.875C7.51562 3.64062 7.64062 3.51563 7.875 3.5ZM1.5 4.25H4.875C5.10938 4.26562 5.23438 4.39062 5.25 4.625C5.23438 4.85938 5.10938 4.98438 4.875 5H1.5C1.28125 5 1.10156 5.07031 0.960938 5.21094C0.820312 5.35156 0.75 5.53125 0.75 5.75V14C0.75 14.2188 0.820312 14.3984 0.960938 14.5391C1.10156 14.6797 1.28125 14.75 1.5 14.75H9.75C9.96875 14.75 10.1484 14.6797 10.2891 14.5391C10.4297 14.3984 10.5 14.2188 10.5 14V10.625C10.5156 10.3906 10.6406 10.2656 10.875 10.25C11.1094 10.2656 11.2344 10.3906 11.25 10.625V14C11.2344 14.4219 11.0859 14.7734 10.8047 15.0547C10.5234 15.3359 10.1719 15.4844 9.75 15.5H1.5C1.07812 15.4844 0.726562 15.3359 0.445312 15.0547C0.164062 14.7734 0.015625 14.4219 0 14V5.75C0.015625 5.32812 0.164062 4.97656 0.445312 4.69531C0.726562 4.41406 1.07812 4.26562 1.5 4.25Z" fill="black" fill-opacity="0.72"/>
</g>
<defs>
<clipPath id="clip0_1731_664">
<rect width="12" height="18" fill="white"/>
</clipPath>
</defs>
</svg>
