<svg width="18" height="22" viewBox="0 0 18 22" fill="none" xmlns="http://www.w3.org/2000/svg">
<g id="label-paired / sm / fiat-offramp-sm / bold" clip-path="url(#clip0_1731_2942)">
<path id="icon" d="M5.60938 9.68359C6.42969 9.68359 7.19531 9.24609 7.60547 8.53516C8.01562 7.82422 8.01562 6.94922 7.60547 6.23828C7.19531 5.52734 6.42969 5.08984 5.60938 5.0625C4.78906 5.0625 4.02344 5.52734 3.61328 6.23828C3.20312 6.94922 3.20312 7.82422 3.61328 8.53516C4.02344 9.24609 4.78906 9.68359 5.60938 9.68359ZM3.3125 10.1758V15.4258C3.3125 15.9727 3.77734 16.4375 4.32422 16.4375H9.57422C9.05469 15.8359 8.75391 15.0156 8.75391 14.1406C8.75391 12.9648 9.32812 11.8984 10.2305 11.2422L8.50781 9.51953C7.85156 10.4219 6.8125 10.9961 5.60938 10.9961C4.73438 10.9961 3.91406 10.6953 3.3125 10.1758ZM12.3633 16.4375C13.6484 16.4375 14.6602 15.4258 14.6602 14.1406C14.6602 12.8828 13.6484 11.8438 12.3633 11.8438C12.0625 11.8438 11.7891 11.8984 11.543 12.0078H11.5156C10.668 12.3359 10.0664 13.1836 10.0664 14.1406C10.0664 15.4258 11.1055 16.4375 12.3633 16.4375ZM11.4883 10.6406C11.7617 10.5586 12.0625 10.5312 12.3633 10.5312C14.3594 10.5312 16 12.1445 16 14.1406C16 16.1367 14.3594 17.75 12.3633 17.75H4.32422C3.03906 17.75 2 16.7109 2 15.4258V7.38672C2 5.39062 3.61328 3.75 5.60938 3.75C7.60547 3.75 9.21875 5.39062 9.21875 7.38672C9.21875 7.6875 9.19141 7.98828 9.10938 8.26172L11.4883 10.6406ZM12.8008 6.29297C13.1562 6.29297 13.457 6.59375 13.457 6.94922V9.49219C13.457 9.76562 13.293 9.98438 13.0469 10.0938C12.8008 10.2031 12.5273 10.1484 12.3359 9.95703L9.79297 7.41406C9.54688 7.16797 9.54688 6.75781 9.79297 6.48438C10.0391 6.23828 10.4766 6.23828 10.7227 6.48438L12.1445 7.90625V6.94922C12.1445 6.59375 12.418 6.29297 12.8008 6.29297ZM12.6914 12.1719H12.0625V12.4453C11.625 12.582 11.3516 12.9922 11.3516 13.4297C11.3516 14.0039 11.8164 14.4688 12.3633 14.4688C12.582 14.4688 12.7461 14.6328 12.7461 14.8516C12.7461 15.043 12.582 15.2344 12.3633 15.2344C12.1719 15.2344 11.9805 15.043 11.9805 14.8516V14.7422H11.3516V14.8516C11.3516 15.2891 11.625 15.6719 12.0625 15.8086V16.1094H12.6914V15.8359C13.1016 15.6719 13.4023 15.2891 13.4023 14.8516C13.4023 14.2773 12.9375 13.8125 12.3633 13.8125C12.1719 13.8125 11.9805 13.6484 11.9805 13.4297C11.9805 13.2109 12.1719 13.0469 12.3633 13.0469C12.582 13.0469 12.7461 13.2109 12.7461 13.4297V13.5117H13.4023V13.4297C13.4023 12.9922 13.1016 12.6094 12.6914 12.4453V12.1719ZM5.19922 5.52734H4.67969V6.07422H4.16016V6.59375H4.67969V8.17969H4.16016V8.69922H4.67969V9.21875H5.19922V8.69922H5.74609V9.21875H6.26562V8.69922C6.67578 8.69922 7.03125 8.34375 7.03125 7.90625C7.03125 7.71484 6.97656 7.52344 6.83984 7.38672C7.14062 7.05859 7.11328 6.56641 6.78516 6.26562C6.64844 6.12891 6.45703 6.07422 6.26562 6.07422V5.52734H5.74609V6.07422H5.19922V5.52734ZM6.26562 7.63281C6.40234 7.63281 6.51172 7.76953 6.51172 7.90625C6.51172 8.04297 6.40234 8.17969 6.26562 8.17969H5.19922V7.63281H6.26562ZM6.26562 6.59375C6.40234 6.59375 6.51172 6.70312 6.51172 6.86719C6.51172 7.00391 6.40234 7.11328 6.26562 7.11328H5.19922V6.59375H6.26562Z" fill="black" fill-opacity="0.72"/>
</g>
<defs>
<clipPath id="clip0_1731_2942">
<rect width="18" height="22" fill="white"/>
</clipPath>
</defs>
</svg>
