<svg width="12" height="24" viewBox="0 0 12 24" fill="none" xmlns="http://www.w3.org/2000/svg">
<g id="label-paired / md / file-circle-check-md / bold" clip-path="url(#clip0_1731_4024)">
<path id="icon" d="M2 18.5H10C10.3125 18.4792 10.4792 18.3125 10.5 18V9H8C7.70833 9 7.46875 8.90625 7.28125 8.71875C7.09375 8.53125 7 8.29167 7 8V5.5H2C1.6875 5.52083 1.52083 5.6875 1.5 6V18C1.52083 18.3125 1.6875 18.4792 2 18.5ZM2 4H7.1875C7.72917 4 8.19792 4.19792 8.59375 4.59375L11.4062 7.40625C11.8021 7.80208 12 8.28125 12 8.84375V18C11.9792 18.5625 11.7812 19.0312 11.4062 19.4062C11.0312 19.7812 10.5625 19.9792 10 20H2C1.4375 19.9792 0.96875 19.7812 0.59375 19.4062C0.21875 19.0312 0.0208333 18.5625 0 18V6C0.0208333 5.4375 0.21875 4.96875 0.59375 4.59375C0.96875 4.21875 1.4375 4.02083 2 4ZM9.03125 12.375L5.6875 15.6875C5.54167 15.8333 5.36458 15.9062 5.15625 15.9062C4.94792 15.9062 4.77083 15.8333 4.625 15.6875L2.96875 14.0312C2.67708 13.6771 2.67708 13.3229 2.96875 12.9688C3.32292 12.6771 3.67708 12.6771 4.03125 12.9688L5.15625 14.0938L7.96875 11.3125C8.32292 11.0208 8.67708 11.0208 9.03125 11.3125C9.32292 11.6667 9.32292 12.0208 9.03125 12.375Z" fill="black" fill-opacity="0.72"/>
</g>
<defs>
<clipPath id="clip0_1731_4024">
<rect width="12" height="24" fill="white"/>
</clipPath>
</defs>
</svg>
