<svg width="14" height="22" viewBox="0 0 14 22" fill="none" xmlns="http://www.w3.org/2000/svg">
<g id="label-paired / sm / file-certificate-sm / regular" clip-path="url(#clip0_1731_2843)">
<path id="icon" d="M13.125 16V9H10.0625C9.69792 8.98177 9.38802 8.85417 9.13281 8.61719C8.89583 8.36198 8.76823 8.05208 8.75 7.6875V4.625H5.25C4.99479 4.625 4.78516 4.70703 4.62109 4.87109C4.45703 5.03516 4.375 5.24479 4.375 5.5V7.25C4.13802 7.23177 3.91016 7.26823 3.69141 7.35938C3.63672 7.3776 3.58203 7.39583 3.52734 7.41406C3.52734 7.43229 3.51823 7.44141 3.5 7.44141V5.5C3.51823 5.00781 3.69141 4.59766 4.01953 4.26953C4.34766 3.94141 4.75781 3.76823 5.25 3.75H9.51562C9.88021 3.75 10.1901 3.8776 10.4453 4.13281L13.6172 7.30469C13.8724 7.5599 14 7.86979 14 8.23438V16C13.9818 16.4922 13.8086 16.9023 13.4805 17.2305C13.1523 17.5586 12.7422 17.7318 12.25 17.75H6.04297C6.09766 17.6042 6.125 17.4583 6.125 17.3125V16.875H12.25C12.5052 16.875 12.7148 16.793 12.8789 16.6289C13.043 16.4648 13.125 16.2552 13.125 16ZM13.125 8.125C13.0885 8.05208 13.043 7.98828 12.9883 7.93359L9.81641 4.76172C9.76172 4.70703 9.69792 4.67057 9.625 4.65234V7.6875C9.64323 7.96094 9.78906 8.10677 10.0625 8.125H13.125ZM1.91406 13.5664C2.20573 13.6029 2.44271 13.7396 2.625 13.9766L2.81641 14.1953L3.08984 14.0859C3.36328 13.9766 3.63672 13.9766 3.91016 14.0859L4.18359 14.1953L4.375 13.9766C4.55729 13.7396 4.79427 13.6029 5.08594 13.5664L5.38672 13.5117L5.44141 13.2109L6.28906 13.3477L6.23438 13.7852C6.17969 14.1133 5.98828 14.3047 5.66016 14.3594L5.25 14.4141V17.3125C5.25 17.4766 5.17708 17.6042 5.03125 17.6953C4.86719 17.7682 4.71224 17.7591 4.56641 17.668L3.5 16.957L2.43359 17.668C2.28776 17.7591 2.14193 17.7682 1.99609 17.6953C1.83203 17.6042 1.75 17.4766 1.75 17.3125V14.4141L1.33984 14.3594C1.01172 14.3047 0.820312 14.1133 0.765625 13.7852L0.710938 13.3203C0.692708 13.2656 0.665365 13.2201 0.628906 13.1836L0.246094 12.9102C0.00911458 12.6914 -0.0546875 12.4362 0.0546875 12.1445L0.21875 11.707C0.236979 11.6523 0.236979 11.5977 0.21875 11.543L0.0546875 11.1055C-0.0546875 10.8138 0.00911458 10.5586 0.246094 10.3398L0.628906 10.0664L1.14844 10.75L0.929688 10.9414L1.03906 11.2148C1.14844 11.4883 1.14844 11.7617 1.03906 12.0352L0.929688 12.3086L1.14844 12.5L0.628906 13.1836L1.14844 12.5C1.38542 12.6823 1.53125 12.9193 1.58594 13.2109L1.61328 13.5117L1.91406 13.5664L1.85938 13.9766L1.91406 13.5664ZM0.628906 10.0664C0.665365 10.0299 0.692708 9.98438 0.710938 9.92969L0.765625 9.46484C0.820312 9.13672 1.01172 8.94531 1.33984 8.89062L1.80469 8.83594C1.85938 8.81771 1.90495 8.79036 1.94141 8.75391L2.21484 8.37109C2.43359 8.13411 2.6888 8.07031 2.98047 8.17969L3.41797 8.34375C3.47266 8.36198 3.52734 8.36198 3.58203 8.34375L4.01953 8.17969C4.3112 8.07031 4.56641 8.13411 4.78516 8.37109L5.05859 8.75391C5.09505 8.79036 5.14974 8.81771 5.22266 8.83594L5.6875 8.89062C5.9974 8.94531 6.17969 9.13672 6.23438 9.46484L6.28906 9.92969C6.30729 9.98438 6.33464 10.0299 6.37109 10.0664L6.75391 10.3398C6.99089 10.5586 7.05469 10.8138 6.94531 11.1055L6.78125 11.543C6.76302 11.5977 6.76302 11.6523 6.78125 11.707L6.94531 12.1445C7.05469 12.4362 6.99089 12.6914 6.75391 12.9102L6.37109 13.1836C6.33464 13.2201 6.30729 13.2656 6.28906 13.3203L5.44141 13.2109C5.47786 12.9193 5.61458 12.6823 5.85156 12.5L6.07031 12.3086L5.96094 12.0352C5.85156 11.7617 5.85156 11.4883 5.96094 11.2148L6.07031 10.9414L5.85156 10.75C5.61458 10.5677 5.47786 10.3307 5.44141 10.0391L5.38672 9.73828L5.08594 9.71094C4.79427 9.65625 4.55729 9.51042 4.375 9.27344L4.18359 9.05469L3.91016 9.16406L3.60938 8.39844L3.91016 9.16406C3.63672 9.27344 3.36328 9.27344 3.08984 9.16406L2.81641 9.05469L2.625 9.27344C2.44271 9.51042 2.20573 9.65625 1.91406 9.71094L1.61328 9.73828L1.58594 10.0391L0.792969 9.92969L1.58594 10.0391C1.53125 10.3307 1.38542 10.5677 1.14844 10.75L0.628906 10.0664ZM4.375 16.4922V15.125C4.2474 15.1432 4.12891 15.125 4.01953 15.0703L3.58203 14.9062C3.52734 14.8698 3.47266 14.8698 3.41797 14.9062L2.98047 15.0703C2.87109 15.125 2.7526 15.1432 2.625 15.125V16.4922L3.25391 16.082C3.41797 15.9727 3.58203 15.9727 3.74609 16.082L4.375 16.4922Z" fill="black" fill-opacity="0.72"/>
</g>
<defs>
<clipPath id="clip0_1731_2843">
<rect width="14" height="22" fill="white"/>
</clipPath>
</defs>
</svg>
