<svg width="15" height="18" viewBox="0 0 15 18" fill="none" xmlns="http://www.w3.org/2000/svg">
<g id="label-paired / caption / computer-caption / bold" clip-path="url(#clip0_1731_1396)">
<path id="icon" d="M9 5.375H1.5C1.26562 5.39062 1.14062 5.51562 1.125 5.75V11C1.14062 11.2344 1.26562 11.3594 1.5 11.375H3.91406H4.3125H6.1875H6.58594H9C9.23438 11.3594 9.35938 11.2344 9.375 11V5.75C9.35938 5.51562 9.23438 5.39062 9 5.375ZM1.5 12.5C1.07812 12.4844 0.726562 12.3359 0.445312 12.0547C0.164062 11.7734 0.015625 11.4219 0 11V5.75C0.015625 5.32812 0.164062 4.97656 0.445312 4.69531C0.726562 4.41406 1.07812 4.26562 1.5 4.25H9C9.42188 4.26562 9.77344 4.41406 10.0547 4.69531C10.3359 4.97656 10.4844 5.32812 10.5 5.75V11C10.4844 11.4219 10.3359 11.7734 10.0547 12.0547C9.77344 12.3359 9.42188 12.4844 9 12.5H6.96094L7.33594 13.625H8.4375C8.78125 13.6562 8.96875 13.8438 9 14.1875C8.96875 14.5312 8.78125 14.7188 8.4375 14.75H7.71094H6.9375H3.5625H2.78906H2.0625C1.71875 14.7188 1.53125 14.5312 1.5 14.1875C1.53125 13.8438 1.71875 13.6562 2.0625 13.625H3.16406L3.53906 12.5H1.5ZM4.33594 13.625H6.16406L5.78906 12.5H4.71094L4.33594 13.625ZM12.375 5.375V6.125H13.875V5.375H12.375ZM12.375 7.25V8H13.875V7.25H12.375ZM13.875 9.125H12.375V13.625H13.875V9.125ZM11.25 5.375C11.2656 5.0625 11.375 4.79688 11.5781 4.57812C11.7969 4.375 12.0625 4.26562 12.375 4.25H13.875C14.1875 4.26562 14.4531 4.375 14.6719 4.57812C14.875 4.79688 14.9844 5.0625 15 5.375V13.625C14.9844 13.9375 14.875 14.2031 14.6719 14.4219C14.4531 14.625 14.1875 14.7344 13.875 14.75H12.375C12.0625 14.7344 11.7969 14.625 11.5781 14.4219C11.375 14.2031 11.2656 13.9375 11.25 13.625V5.375ZM13.125 11.9375C12.7812 11.9062 12.5938 11.7188 12.5625 11.375C12.5938 11.0312 12.7812 10.8438 13.125 10.8125C13.4688 10.8438 13.6562 11.0312 13.6875 11.375C13.6562 11.7188 13.4688 11.9062 13.125 11.9375Z" fill="black" fill-opacity="0.72"/>
</g>
<defs>
<clipPath id="clip0_1731_1396">
<rect width="15" height="18" fill="white"/>
</clipPath>
</defs>
</svg>
