<svg width="13" height="30" viewBox="0 0 13 30" fill="none" xmlns="http://www.w3.org/2000/svg">
<g id="label-paired / lg / sterling-sign-lg / regular" clip-path="url(#clip0_1731_5185)">
<path id="icon" d="M3.375 11.4375V15.5H9.625C10.0156 15.526 10.224 15.7344 10.25 16.125C10.224 16.5156 10.0156 16.724 9.625 16.75H3.375C3.32292 18.9375 2.82812 21.0208 1.89062 23H12.125C12.5156 23.026 12.724 23.2344 12.75 23.625C12.724 24.0156 12.5156 24.224 12.125 24.25H0.875C0.640625 24.25 0.458333 24.1458 0.328125 23.9375C0.223958 23.7292 0.223958 23.5208 0.328125 23.3125L0.367188 23.2344C1.46094 21.2031 2.04688 19.0417 2.125 16.75H0.875C0.484375 16.724 0.276042 16.5156 0.25 16.125C0.276042 15.7344 0.484375 15.526 0.875 15.5H2.125V11.4375C2.15104 10.1094 2.60677 9.0026 3.49219 8.11719C4.3776 7.23177 5.48438 6.77604 6.8125 6.75H7.08594C7.60677 6.75 8.10156 6.82812 8.57031 6.98438L11.6953 8.03906C12.0339 8.19531 12.1641 8.45573 12.0859 8.82031C11.9297 9.1849 11.6693 9.3151 11.3047 9.21094L8.17969 8.19531C7.8151 8.0651 7.45052 8 7.08594 8H6.8125C5.84896 8.02604 5.04167 8.36458 4.39062 9.01562C3.73958 9.66667 3.40104 10.474 3.375 11.4375Z" fill="black" fill-opacity="0.72"/>
</g>
<defs>
<clipPath id="clip0_1731_5185">
<rect width="13" height="30" fill="white"/>
</clipPath>
</defs>
</svg>
