<svg width="16" height="22" viewBox="0 0 16 22" fill="none" xmlns="http://www.w3.org/2000/svg">
<g id="label-paired / sm / keyboard-sm / bold" clip-path="url(#clip0_1731_2664)">
<path id="icon" d="M1.875 6.8125C1.60156 6.83073 1.45573 6.97656 1.4375 7.25V14.25C1.45573 14.5234 1.60156 14.6693 1.875 14.6875H14.125C14.3984 14.6693 14.5443 14.5234 14.5625 14.25V7.25C14.5443 6.97656 14.3984 6.83073 14.125 6.8125H1.875ZM0.125 7.25C0.143229 6.75781 0.316406 6.34766 0.644531 6.01953C0.972656 5.69141 1.38281 5.51823 1.875 5.5H14.125C14.6172 5.51823 15.0273 5.69141 15.3555 6.01953C15.6836 6.34766 15.8568 6.75781 15.875 7.25V14.25C15.8568 14.7422 15.6836 15.1523 15.3555 15.4805C15.0273 15.8086 14.6172 15.9818 14.125 16H1.875C1.38281 15.9818 0.972656 15.8086 0.644531 15.4805C0.316406 15.1523 0.143229 14.7422 0.125 14.25V7.25ZM4.9375 12.5H11.0625C11.3359 12.5182 11.4818 12.6641 11.5 12.9375V13.375C11.4818 13.6484 11.3359 13.7943 11.0625 13.8125H4.9375C4.66406 13.7943 4.51823 13.6484 4.5 13.375V12.9375C4.51823 12.6641 4.66406 12.5182 4.9375 12.5ZM2.96875 10.5312C2.98698 10.2578 3.13281 10.112 3.40625 10.0938H3.84375C4.11719 10.112 4.26302 10.2578 4.28125 10.5312V10.9688C4.26302 11.2422 4.11719 11.388 3.84375 11.4062H3.40625C3.13281 11.388 2.98698 11.2422 2.96875 10.9688V10.5312ZM3.40625 7.90625H3.84375C4.11719 7.92448 4.26302 8.07031 4.28125 8.34375V8.78125C4.26302 9.05469 4.11719 9.20052 3.84375 9.21875H3.40625C3.13281 9.20052 2.98698 9.05469 2.96875 8.78125V8.34375C2.98698 8.07031 3.13281 7.92448 3.40625 7.90625ZM5.15625 10.5312C5.17448 10.2578 5.32031 10.112 5.59375 10.0938H6.03125C6.30469 10.112 6.45052 10.2578 6.46875 10.5312V10.9688C6.45052 11.2422 6.30469 11.388 6.03125 11.4062H5.59375C5.32031 11.388 5.17448 11.2422 5.15625 10.9688V10.5312ZM5.59375 7.90625H6.03125C6.30469 7.92448 6.45052 8.07031 6.46875 8.34375V8.78125C6.45052 9.05469 6.30469 9.20052 6.03125 9.21875H5.59375C5.32031 9.20052 5.17448 9.05469 5.15625 8.78125V8.34375C5.17448 8.07031 5.32031 7.92448 5.59375 7.90625ZM7.34375 10.5312C7.36198 10.2578 7.50781 10.112 7.78125 10.0938H8.21875C8.49219 10.112 8.63802 10.2578 8.65625 10.5312V10.9688C8.63802 11.2422 8.49219 11.388 8.21875 11.4062H7.78125C7.50781 11.388 7.36198 11.2422 7.34375 10.9688V10.5312ZM7.78125 7.90625H8.21875C8.49219 7.92448 8.63802 8.07031 8.65625 8.34375V8.78125C8.63802 9.05469 8.49219 9.20052 8.21875 9.21875H7.78125C7.50781 9.20052 7.36198 9.05469 7.34375 8.78125V8.34375C7.36198 8.07031 7.50781 7.92448 7.78125 7.90625ZM9.53125 10.5312C9.54948 10.2578 9.69531 10.112 9.96875 10.0938H10.4062C10.6797 10.112 10.8255 10.2578 10.8438 10.5312V10.9688C10.8255 11.2422 10.6797 11.388 10.4062 11.4062H9.96875C9.69531 11.388 9.54948 11.2422 9.53125 10.9688V10.5312ZM9.96875 7.90625H10.4062C10.6797 7.92448 10.8255 8.07031 10.8438 8.34375V8.78125C10.8255 9.05469 10.6797 9.20052 10.4062 9.21875H9.96875C9.69531 9.20052 9.54948 9.05469 9.53125 8.78125V8.34375C9.54948 8.07031 9.69531 7.92448 9.96875 7.90625ZM11.7188 10.5312C11.737 10.2578 11.8828 10.112 12.1562 10.0938H12.5938C12.8672 10.112 13.013 10.2578 13.0312 10.5312V10.9688C13.013 11.2422 12.8672 11.388 12.5938 11.4062H12.1562C11.8828 11.388 11.737 11.2422 11.7188 10.9688V10.5312ZM12.1562 7.90625H12.5938C12.8672 7.92448 13.013 8.07031 13.0312 8.34375V8.78125C13.013 9.05469 12.8672 9.20052 12.5938 9.21875H12.1562C11.8828 9.20052 11.737 9.05469 11.7188 8.78125V8.34375C11.737 8.07031 11.8828 7.92448 12.1562 7.90625Z" fill="black" fill-opacity="0.72"/>
</g>
<defs>
<clipPath id="clip0_1731_2664">
<rect width="16" height="22" fill="white"/>
</clipPath>
</defs>
</svg>
