<svg width="15" height="30" viewBox="0 0 15 30" fill="none" xmlns="http://www.w3.org/2000/svg">
<g id="label-paired / lg / arrow-up-to-line-lg / bold" clip-path="url(#clip0_1731_4384)">
<path id="icon" d="M0.9375 6.75H14.0625C14.6354 6.80208 14.9479 7.11458 15 7.6875C14.9479 8.26042 14.6354 8.57292 14.0625 8.625H0.9375C0.364583 8.57292 0.0520833 8.26042 0 7.6875C0.0520833 7.11458 0.364583 6.80208 0.9375 6.75ZM8.20312 12.0625H8.16406L13.1641 17.375C13.5286 17.8177 13.5156 18.2474 13.125 18.6641C12.6823 19.0286 12.2526 19.0156 11.8359 18.625L8.4375 15.0703V18.3125V23.3125C8.38542 23.8854 8.07292 24.1979 7.5 24.25C6.92708 24.1979 6.61458 23.8854 6.5625 23.3125V18.3125V15.0703L3.16406 18.6641C2.7474 19.0286 2.31771 19.0417 1.875 18.7031C1.48438 18.2604 1.47135 17.8177 1.83594 17.375L6.83594 12.0625C7.01823 11.8542 7.23958 11.75 7.5 11.75C7.76042 11.75 7.99479 11.8542 8.20312 12.0625Z" fill="black" fill-opacity="0.72"/>
</g>
<defs>
<clipPath id="clip0_1731_4384">
<rect width="15" height="30" fill="white"/>
</clipPath>
</defs>
</svg>
