<svg width="27" height="36" viewBox="0 0 27 36" fill="none" xmlns="http://www.w3.org/2000/svg">
<g id="label-paired / xl / memo-circle-check-xl / regular" clip-path="url(#clip0_1731_6543)">
<path id="icon" d="M15 7.5H3C2.5625 7.5 2.20312 7.64062 1.92188 7.92188C1.64062 8.20312 1.5 8.5625 1.5 9V27C1.5 27.4375 1.64062 27.7969 1.92188 28.0781C2.20312 28.3594 2.5625 28.5 3 28.5H13.875C14.3438 29.0625 14.875 29.5469 15.4688 29.9531C15.3125 29.9844 15.1562 30 15 30H3C2.15625 29.9688 1.45312 29.6719 0.890625 29.1094C0.328125 28.5469 0.03125 27.8438 0 27V9C0.03125 8.15625 0.328125 7.45312 0.890625 6.89062C1.45312 6.32812 2.15625 6.03125 3 6H15C15.8438 6.03125 16.5469 6.32812 17.1094 6.89062C17.6719 7.45312 17.9688 8.15625 18 9V15.3281C17.4688 15.4531 16.9688 15.6406 16.5 15.8906V9C16.5 8.5625 16.3594 8.20312 16.0781 7.92188C15.7969 7.64062 15.4375 7.5 15 7.5ZM3 12.75C3.03125 12.2812 3.28125 12.0312 3.75 12H14.25C14.7188 12.0312 14.9688 12.2812 15 12.75C14.9688 13.2188 14.7188 13.4688 14.25 13.5H3.75C3.28125 13.4688 3.03125 13.2188 3 12.75ZM3.75 16.5H12.75C13.2188 16.5312 13.4688 16.7812 13.5 17.25C13.4688 17.7188 13.2188 17.9688 12.75 18H3.75C3.28125 17.9688 3.03125 17.7188 3 17.25C3.03125 16.7812 3.28125 16.5312 3.75 16.5ZM3.75 21H9.75C10.2188 21.0312 10.4688 21.2812 10.5 21.75C10.4688 22.2188 10.2188 22.4688 9.75 22.5H3.75C3.28125 22.4688 3.03125 22.2188 3 21.75C3.03125 21.2812 3.28125 21.0312 3.75 21ZM20.25 28.5C21.1875 28.5 22.0625 28.2656 22.875 27.7969C23.6875 27.3281 24.3281 26.6875 24.7969 25.875C25.2656 25.0625 25.5 24.1875 25.5 23.25C25.5 22.3125 25.2656 21.4375 24.7969 20.625C24.3281 19.8125 23.6875 19.1719 22.875 18.7031C22.0625 18.2344 21.1875 18 20.25 18C19.3125 18 18.4375 18.2344 17.625 18.7031C16.8125 19.1719 16.1719 19.8125 15.7031 20.625C15.2344 21.4375 15 22.3125 15 23.25C15 24.1875 15.2344 25.0625 15.7031 25.875C16.1719 26.6875 16.8125 27.3281 17.625 27.7969C18.4375 28.2656 19.3125 28.5 20.25 28.5ZM20.25 16.5C21.4688 16.5 22.5938 16.7969 23.625 17.3906C24.6562 17.9844 25.4844 18.8125 26.1094 19.875C26.7031 20.9375 27 22.0625 27 23.25C27 24.4375 26.7031 25.5625 26.1094 26.625C25.4844 27.6875 24.6562 28.5156 23.625 29.1094C22.5938 29.7031 21.4688 30 20.25 30C19.0312 30 17.9062 29.7031 16.875 29.1094C15.8438 28.5156 15.0156 27.6875 14.3906 26.625C13.7969 25.5625 13.5 24.4375 13.5 23.25C13.5 22.0625 13.7969 20.9375 14.3906 19.875C15.0156 18.8125 15.8438 17.9844 16.875 17.3906C17.9062 16.7969 19.0312 16.5 20.25 16.5ZM22.3594 21.2344C22.7031 20.9219 23.0469 20.9219 23.3906 21.2344C23.7031 21.5781 23.7031 21.9219 23.3906 22.2656L20.0156 25.6406C19.6719 25.9531 19.3281 25.9531 18.9844 25.6406L17.1094 23.7656C16.7969 23.4219 16.7969 23.0781 17.1094 22.7344C17.4531 22.4219 17.7969 22.4219 18.1406 22.7344L19.5 24.0469L22.3594 21.2344Z" fill="black" fill-opacity="0.72"/>
</g>
<defs>
<clipPath id="clip0_1731_6543">
<rect width="27" height="36" fill="white"/>
</clipPath>
</defs>
</svg>
