<svg width="24" height="36" viewBox="0 0 24 36" fill="none" xmlns="http://www.w3.org/2000/svg">
<g id="label-paired / xl / circle-caret-down-xl / regular" clip-path="url(#clip0_1731_6688)">
<path id="icon" d="M12 28.5C13.9062 28.4688 15.6562 28 17.25 27.0938C18.8438 26.1562 20.125 24.875 21.0938 23.25C22.0312 21.5938 22.5 19.8438 22.5 18C22.5 16.1562 22.0312 14.4062 21.0938 12.75C20.125 11.125 18.8438 9.84375 17.25 8.90625C15.6562 8 13.9062 7.53125 12 7.5C10.0938 7.53125 8.34375 8 6.75 8.90625C5.15625 9.84375 3.875 11.125 2.90625 12.75C1.96875 14.4062 1.5 16.1562 1.5 18C1.5 19.8438 1.96875 21.5938 2.90625 23.25C3.875 24.875 5.15625 26.1562 6.75 27.0938C8.34375 28 10.0938 28.4688 12 28.5ZM12 6C14.1875 6.03125 16.1875 6.5625 18 7.59375C19.8125 8.65625 21.2812 10.125 22.4062 12C23.4688 13.9062 24 15.9062 24 18C24 20.0938 23.4688 22.0938 22.4062 24C21.2812 25.875 19.8125 27.3438 18 28.4062C16.1875 29.4375 14.1875 29.9688 12 30C9.8125 29.9688 7.8125 29.4375 6 28.4062C4.1875 27.3438 2.71875 25.875 1.59375 24C0.53125 22.0938 0 20.0938 0 18C0 15.9062 0.53125 13.9062 1.59375 12C2.71875 10.125 4.1875 8.65625 6 7.59375C7.8125 6.5625 9.8125 6.03125 12 6ZM12 22.5C11.5312 22.5 11.1406 22.3281 10.8281 21.9844L6.32812 17.1562C6.10938 16.9062 6 16.625 6 16.3125C6 15.9375 6.125 15.625 6.375 15.375C6.625 15.125 6.9375 15 7.3125 15H16.7344C17.0781 15 17.375 15.125 17.625 15.375C17.875 15.625 18 15.9375 18 16.3125C18 16.625 17.8906 16.9062 17.6719 17.1562L13.1719 21.9844C12.8594 22.3281 12.4688 22.5 12 22.5ZM12.0938 20.9531L16.2188 16.5H7.78125L11.9062 20.9531C11.9375 20.9844 11.9688 21 12 21C12.0312 21 12.0625 20.9844 12.0938 20.9531Z" fill="black" fill-opacity="0.72"/>
</g>
<defs>
<clipPath id="clip0_1731_6688">
<rect width="24" height="36" fill="white"/>
</clipPath>
</defs>
</svg>
