<svg width="24" height="36" viewBox="0 0 24 36" fill="none" xmlns="http://www.w3.org/2000/svg">
<g id="label-paired / xl / chart-line-up-down-xl / regular" clip-path="url(#clip0_1731_6298)">
<path id="icon" d="M1.5 8.25V24.75C1.53125 25.375 1.75 25.9062 2.15625 26.3438C2.59375 26.75 3.125 26.9688 3.75 27H23.25C23.7188 27.0312 23.9688 27.2812 24 27.75C23.9688 28.2188 23.7188 28.4688 23.25 28.5H3.75C2.6875 28.4688 1.79688 28.1094 1.07812 27.4219C0.390625 26.7031 0.03125 25.8125 0 24.75V8.25C0.03125 7.78125 0.28125 7.53125 0.75 7.5C1.21875 7.53125 1.46875 7.78125 1.5 8.25ZM17.25 10.5C16.7812 10.4688 16.5312 10.2188 16.5 9.75C16.5312 9.28125 16.7812 9.03125 17.25 9H21.75C22.2188 9.03125 22.4688 9.28125 22.5 9.75V14.25C22.4688 14.7188 22.2188 14.9688 21.75 15C21.2812 14.9688 21.0312 14.7188 21 14.25V11.5781L14.0156 18.5156C13.6719 18.8281 13.3281 18.8281 12.9844 18.5156L9.75 15.3281L5.76562 19.2656C5.42188 19.5781 5.07812 19.5781 4.73438 19.2656C4.42188 18.9219 4.42188 18.5781 4.73438 18.2344L9.23438 13.7344C9.35938 13.5781 9.53125 13.5 9.75 13.5C9.96875 13.5 10.1406 13.5781 10.2656 13.7344L13.5 16.9219L19.9219 10.5H17.25ZM17.25 24C16.7812 23.9688 16.5312 23.7188 16.5 23.25C16.5312 22.7812 16.7812 22.5312 17.25 22.5H19.9219L16.7344 19.2656L17.7656 18.2344L21 21.4219V18.75C21.0312 18.2812 21.2812 18.0312 21.75 18C22.2188 18.0312 22.4688 18.2812 22.5 18.75V23.25C22.4688 23.7188 22.2188 23.9688 21.75 24H17.25Z" fill="black" fill-opacity="0.72"/>
</g>
<defs>
<clipPath id="clip0_1731_6298">
<rect width="24" height="36" fill="white"/>
</clipPath>
</defs>
</svg>
