<svg width="27" height="36" viewBox="0 0 27 36" fill="none" xmlns="http://www.w3.org/2000/svg">
<g id="label-paired / xl / presentation-screen-xl / bold" clip-path="url(#clip0_1731_6362)">
<path id="icon" d="M1.125 6H25.875C26.5625 6.0625 26.9375 6.4375 27 7.125C26.9375 7.8125 26.5625 8.1875 25.875 8.25H1.125C0.4375 8.1875 0.0625 7.8125 0 7.125C0.0625 6.4375 0.4375 6.0625 1.125 6ZM1.5 9.75H3.75V19.875C3.78125 20.0938 3.90625 20.2188 4.125 20.25H13.5H22.875C23.0938 20.2188 23.2188 20.0938 23.25 19.875V9.75H25.5V19.875C25.4688 20.625 25.2188 21.25 24.75 21.75C24.25 22.2188 23.625 22.4688 22.875 22.5H14.625V24.6562L18.0469 28.0781C18.4844 28.6094 18.4844 29.1406 18.0469 29.6719C17.5156 30.1094 16.9844 30.1094 16.4531 29.6719L13.5 26.7188L10.5469 29.6719C10.0156 30.1094 9.48438 30.1094 8.95312 29.6719C8.51562 29.1406 8.51562 28.6094 8.95312 28.0781L12.375 24.6562V22.5H4.125C3.375 22.4688 2.75 22.2188 2.25 21.75C1.78125 21.25 1.53125 20.625 1.5 19.875V9.75Z" fill="black" fill-opacity="0.72"/>
</g>
<defs>
<clipPath id="clip0_1731_6362">
<rect width="27" height="36" fill="white"/>
</clipPath>
</defs>
</svg>
