<svg width="16" height="24" viewBox="0 0 16 24" fill="none" xmlns="http://www.w3.org/2000/svg">
<g id="label-paired / md / circle-arrow-left-md / regular" clip-path="url(#clip0_1731_3460)">
<path id="icon" d="M1 12C1.02083 13.2708 1.33333 14.4375 1.9375 15.5C2.5625 16.5625 3.41667 17.4167 4.5 18.0625C5.60417 18.6875 6.77083 19 8 19C9.22917 19 10.3958 18.6875 11.5 18.0625C12.5833 17.4167 13.4375 16.5625 14.0625 15.5C14.6667 14.4375 14.9792 13.2708 15 12C14.9792 10.7292 14.6667 9.5625 14.0625 8.5C13.4375 7.4375 12.5833 6.58333 11.5 5.9375C10.3958 5.3125 9.22917 5 8 5C6.77083 5 5.60417 5.3125 4.5 5.9375C3.41667 6.58333 2.5625 7.4375 1.9375 8.5C1.33333 9.5625 1.02083 10.7292 1 12ZM16 12C15.9792 13.4583 15.625 14.7917 14.9375 16C14.2292 17.2083 13.25 18.1875 12 18.9375C10.7292 19.6458 9.39583 20 8 20C6.60417 20 5.27083 19.6458 4 18.9375C2.75 18.1875 1.77083 17.2083 1.0625 16C0.375 14.7917 0.0208333 13.4583 0 12C0.0208333 10.5417 0.375 9.20833 1.0625 8C1.77083 6.79167 2.75 5.8125 4 5.0625C5.27083 4.35417 6.60417 4 8 4C9.39583 4 10.7292 4.35417 12 5.0625C13.25 5.8125 14.2292 6.79167 14.9375 8C15.625 9.20833 15.9792 10.5417 16 12ZM7.15625 8.65625C7.38542 8.44792 7.61458 8.44792 7.84375 8.65625C8.05208 8.88542 8.05208 9.11458 7.84375 9.34375L5.71875 11.5H11.5C11.8125 11.5208 11.9792 11.6875 12 12C11.9792 12.3125 11.8125 12.4792 11.5 12.5H5.71875L7.84375 14.6562C8.05208 14.8854 8.05208 15.1146 7.84375 15.3438C7.61458 15.5521 7.38542 15.5521 7.15625 15.3438L4.15625 12.3438C3.94792 12.1146 3.94792 11.8854 4.15625 11.6562L7.15625 8.65625Z" fill="black" fill-opacity="0.72"/>
</g>
<defs>
<clipPath id="clip0_1731_3460">
<rect width="16" height="24" fill="white"/>
</clipPath>
</defs>
</svg>
