<svg width="18" height="30" viewBox="0 0 18 30" fill="none" xmlns="http://www.w3.org/2000/svg">
<g id="label-paired / lg / tablet-screen-lg / bold" clip-path="url(#clip0_1731_4854)">
<path id="icon" d="M2.125 23C2.15104 23.3906 2.35938 23.599 2.75 23.625H15.25C15.6406 23.599 15.849 23.3906 15.875 23V19.875H2.125V23ZM2.125 18H15.875V8C15.849 7.60938 15.6406 7.40104 15.25 7.375H2.75C2.35938 7.40104 2.15104 7.60938 2.125 8V18ZM0.25 8C0.276042 7.29688 0.523438 6.71094 0.992188 6.24219C1.46094 5.77344 2.04688 5.52604 2.75 5.5H15.25C15.9531 5.52604 16.5391 5.77344 17.0078 6.24219C17.4766 6.71094 17.724 7.29688 17.75 8V23C17.724 23.7031 17.4766 24.2891 17.0078 24.7578C16.5391 25.2266 15.9531 25.474 15.25 25.5H2.75C2.04688 25.474 1.46094 25.2266 0.992188 24.7578C0.523438 24.2891 0.276042 23.7031 0.25 23V8ZM7.75 21.125H10.25C10.6406 21.151 10.849 21.3594 10.875 21.75C10.849 22.1406 10.6406 22.349 10.25 22.375H7.75C7.35938 22.349 7.15104 22.1406 7.125 21.75C7.15104 21.3594 7.35938 21.151 7.75 21.125Z" fill="black" fill-opacity="0.72"/>
</g>
<defs>
<clipPath id="clip0_1731_4854">
<rect width="18" height="30" fill="white"/>
</clipPath>
</defs>
</svg>
