<svg width="25" height="30" viewBox="0 0 25 30" fill="none" xmlns="http://www.w3.org/2000/svg">
<g id="label-paired / lg / language-lg / regular" clip-path="url(#clip0_1731_4801)">
<path id="icon" d="M11.875 9.25H2.5C2.13542 9.25 1.83594 9.36719 1.60156 9.60156C1.36719 9.83594 1.25 10.1354 1.25 10.5V20.5C1.25 20.8646 1.36719 21.1641 1.60156 21.3984C1.83594 21.6328 2.13542 21.75 2.5 21.75H11.875V9.25ZM13.125 9.25V21.75H22.5C22.8646 21.75 23.1641 21.6328 23.3984 21.3984C23.6328 21.1641 23.75 20.8646 23.75 20.5V10.5C23.75 10.1354 23.6328 9.83594 23.3984 9.60156C23.1641 9.36719 22.8646 9.25 22.5 9.25H13.125ZM25 10.5V20.5C24.974 21.2031 24.7266 21.7891 24.2578 22.2578C23.7891 22.7266 23.2031 22.974 22.5 23H2.5C1.79688 22.974 1.21094 22.7266 0.742188 22.2578C0.273438 21.7891 0.0260417 21.2031 0 20.5V10.5C0.0260417 9.79688 0.273438 9.21094 0.742188 8.74219C1.21094 8.27344 1.79688 8.02604 2.5 8H22.5C23.2031 8.02604 23.7891 8.27344 24.2578 8.74219C24.7266 9.21094 24.974 9.79688 25 10.5ZM6.83594 12.1406L9.33594 18.3906C9.4401 18.7552 9.32292 19.0286 8.98438 19.2109C8.61979 19.3151 8.34635 19.1979 8.16406 18.8594L7.8125 18H4.6875L4.33594 18.8594C4.15365 19.1979 3.88021 19.3151 3.51562 19.2109C3.17708 19.0286 3.0599 18.7552 3.16406 18.3906L5.66406 12.1406C5.79427 11.8802 5.98958 11.75 6.25 11.75C6.51042 11.75 6.70573 11.8802 6.83594 12.1406ZM6.25 14.0547L5.15625 16.75H7.34375L6.25 14.0547ZM19.375 12.375V13H21.25H21.875C22.2656 13.026 22.474 13.2344 22.5 13.625C22.474 14.0156 22.2656 14.224 21.875 14.25H21.6797L21.5234 14.7188C21.1328 15.7344 20.5599 16.6328 19.8047 17.4141C19.9349 17.4922 20.0651 17.5703 20.1953 17.6484L20.9375 18.0781C21.25 18.3125 21.3281 18.599 21.1719 18.9375C20.9375 19.25 20.651 19.3281 20.3125 19.1719L19.5703 18.7031C19.3099 18.5729 19.0625 18.4167 18.8281 18.2344C18.5156 18.4688 18.1771 18.6771 17.8125 18.8594L17.1484 19.1719C16.7839 19.3021 16.5104 19.2109 16.3281 18.8984C16.1719 18.5339 16.263 18.2604 16.6016 18.0781L17.2656 17.7266C17.474 17.6224 17.6823 17.5052 17.8906 17.375L17.0703 16.5547C16.8359 16.2682 16.8359 15.9818 17.0703 15.6953C17.3568 15.4349 17.6432 15.4349 17.9297 15.6953L18.8281 16.5547L18.8672 16.5938C19.5182 15.9427 20.013 15.1745 20.3516 14.2891V14.25H18.75H15.625C15.2344 14.224 15.026 14.0156 15 13.625C15.026 13.2344 15.2344 13.026 15.625 13H18.125V12.375C18.151 11.9844 18.3594 11.776 18.75 11.75C19.1406 11.776 19.349 11.9844 19.375 12.375Z" fill="black" fill-opacity="0.72"/>
</g>
<defs>
<clipPath id="clip0_1731_4801">
<rect width="25" height="30" fill="white"/>
</clipPath>
</defs>
</svg>
