<svg width="15" height="18" viewBox="0 0 15 18" fill="none" xmlns="http://www.w3.org/2000/svg">
<g id="label-paired / caption / hands-holding-diamond-caption / bold" clip-path="url(#clip0_1731_1607)">
<path id="icon" d="M6.96094 3.71094C7.11719 3.57031 7.29688 3.5 7.5 3.5C7.70312 3.5 7.88281 3.57031 8.03906 3.71094L10.2891 5.96094C10.4297 6.11719 10.5 6.29688 10.5 6.5C10.5 6.70312 10.4297 6.88281 10.2891 7.03906L8.03906 9.28906C7.88281 9.42969 7.70312 9.5 7.5 9.5C7.29688 9.5 7.11719 9.42969 6.96094 9.28906L4.71094 7.03906C4.57031 6.88281 4.5 6.70312 4.5 6.5C4.5 6.29688 4.57031 6.11719 4.71094 5.96094L6.96094 3.71094ZM1.6875 5C2.17188 5.01562 2.57031 5.17969 2.88281 5.49219C3.19531 5.80469 3.35938 6.20312 3.375 6.6875V9.71094C3.67188 9.46094 4.02344 9.32812 4.42969 9.3125C4.88281 9.3125 5.26562 9.46875 5.57812 9.78125L7.03125 11.2344C7.20312 11.4062 7.35938 11.6016 7.5 11.8203C7.64062 11.6016 7.80469 11.4062 7.99219 11.2344L9.42188 9.78125C9.73438 9.46875 10.1172 9.3125 10.5703 9.3125C10.9766 9.32812 11.3281 9.46094 11.625 9.71094V6.6875C11.6406 6.20312 11.8047 5.80469 12.1172 5.49219C12.4453 5.17969 12.8438 5.01562 13.3125 5C13.7969 5.01562 14.1953 5.17969 14.5078 5.49219C14.8203 5.80469 14.9844 6.20312 15 6.6875V11.75C15 12.5312 14.7266 13.1953 14.1797 13.7422L12.5859 15.3359C12.3203 15.5547 12.0547 15.5547 11.7891 15.3359C11.5703 15.0703 11.5703 14.8047 11.7891 14.5391L13.3828 12.9453C13.7109 12.6172 13.875 12.2188 13.875 11.75V6.6875C13.8438 6.34375 13.6562 6.15625 13.3125 6.125C12.9688 6.15625 12.7812 6.34375 12.75 6.6875V10.1094C12.75 10.7344 12.5312 11.2656 12.0938 11.7031L11.7188 12.0781L11.0859 12.7109L10.7109 13.0859C10.4453 13.3047 10.1797 13.3047 9.91406 13.0859C9.69531 12.8203 9.69531 12.5547 9.91406 12.2891L10.2891 11.9141L10.9219 11.2812C11.0156 11.1875 11.0625 11.0703 11.0625 10.9297C11.0312 10.6328 10.8672 10.4688 10.5703 10.4375C10.4297 10.4375 10.3125 10.4844 10.2188 10.5781L8.76562 12.0312C8.3125 12.5 8.07812 13.0703 8.0625 13.7422V14.9375C8.03125 15.2812 7.84375 15.4688 7.5 15.5C7.15625 15.4688 6.96875 15.2812 6.9375 14.9375V13.7422C6.92188 13.0703 6.6875 12.5 6.23438 12.0312L4.78125 10.5781C4.6875 10.4844 4.57031 10.4375 4.42969 10.4375C4.13281 10.4688 3.96875 10.6328 3.9375 10.9297C3.9375 11.0703 3.98438 11.1875 4.07812 11.2812L4.71094 11.9141L5.08594 12.2891C5.30469 12.5547 5.30469 12.8203 5.08594 13.0859C4.82031 13.3047 4.55469 13.3047 4.28906 13.0859L3.91406 12.7109L3.28125 12.0781L2.92969 11.7031C2.49219 11.2656 2.26562 10.7344 2.25 10.1094V6.6875C2.21875 6.34375 2.03125 6.15625 1.6875 6.125C1.34375 6.15625 1.15625 6.34375 1.125 6.6875V11.75C1.125 12.2188 1.28906 12.6172 1.61719 12.9453L3.21094 14.5391C3.42969 14.8047 3.42969 15.0703 3.21094 15.3359C2.94531 15.5547 2.67969 15.5547 2.41406 15.3359L0.820312 13.7422C0.289062 13.1953 0.015625 12.5312 0 11.75V6.6875C0.015625 6.20312 0.179688 5.80469 0.492188 5.49219C0.804688 5.17969 1.20312 5.01562 1.6875 5Z" fill="black" fill-opacity="0.72"/>
</g>
<defs>
<clipPath id="clip0_1731_1607">
<rect width="15" height="18" fill="white"/>
</clipPath>
</defs>
</svg>
