<svg width="14" height="24" viewBox="0 0 14 24" fill="none" xmlns="http://www.w3.org/2000/svg">
<g id="label-paired / md / bell-md / regular" clip-path="url(#clip0_1731_3799)">
<path id="icon" d="M6.5 4.5C6.52083 4.1875 6.6875 4.02083 7 4C7.3125 4.02083 7.47917 4.1875 7.5 4.5V5.03125C8.79167 5.17708 9.85417 5.70833 10.6875 6.625C11.5417 7.54167 11.9792 8.66667 12 10V10.9062C12.0208 12.3229 12.5208 13.5417 13.5 14.5625L13.5938 14.6562C13.8646 14.9271 14 15.25 14 15.625C14 16.0208 13.8646 16.3438 13.5938 16.5938C13.3438 16.8646 13.0208 17 12.625 17H1.375C0.979167 17 0.65625 16.8646 0.40625 16.5938C0.135417 16.3438 0 16.0208 0 15.625C0 15.25 0.135417 14.9167 0.40625 14.625L0.5 14.5625C1.47917 13.5417 1.97917 12.3229 2 10.9062V10C2.02083 8.66667 2.45833 7.54167 3.3125 6.625C4.14583 5.70833 5.20833 5.17708 6.5 5.03125V4.5ZM7 6C5.875 6.02083 4.92708 6.40625 4.15625 7.15625C3.40625 7.92708 3.02083 8.875 3 10V10.9062C2.97917 12.5938 2.375 14.0417 1.1875 15.25L1.125 15.3438C1.04167 15.4271 1 15.5208 1 15.625C1.02083 15.8542 1.14583 15.9792 1.375 16H12.625C12.8542 15.9792 12.9792 15.8542 13 15.625C13 15.5208 12.9583 15.4271 12.875 15.3438L12.8125 15.25C11.625 14.0417 11.0208 12.5938 11 10.9062V10C10.9792 8.875 10.5833 7.92708 9.8125 7.15625C9.0625 6.40625 8.125 6.02083 7 6ZM6.0625 18.3438C6.22917 18.7604 6.54167 18.9792 7 19C7.45833 18.9792 7.77083 18.7604 7.9375 18.3438C8.0625 18.0521 8.28125 17.9479 8.59375 18.0312C8.86458 18.1562 8.95833 18.3646 8.875 18.6562C8.72917 19.0521 8.48958 19.375 8.15625 19.625C7.82292 19.875 7.4375 20 7 20C6.5625 20 6.17708 19.875 5.84375 19.625C5.51042 19.375 5.27083 19.0521 5.125 18.6562C5.04167 18.3646 5.13542 18.1562 5.40625 18.0312C5.71875 17.9479 5.9375 18.0521 6.0625 18.3438Z" fill="black" fill-opacity="0.72"/>
</g>
<defs>
<clipPath id="clip0_1731_3799">
<rect width="14" height="24" fill="white"/>
</clipPath>
</defs>
</svg>
