<svg width="16" height="24" viewBox="0 0 16 24" fill="none" xmlns="http://www.w3.org/2000/svg">
<g id="label-paired / md / shield-check-md / bold" clip-path="url(#clip0_1731_4113)">
<path id="icon" d="M2.28125 7.96875C2.09375 8.07292 2 8.20833 2 8.375C2 9.35417 2.16667 10.4792 2.5 11.75C2.83333 13 3.41667 14.2292 4.25 15.4375C5.10417 16.625 6.29167 17.6042 7.8125 18.375C7.9375 18.4167 8.0625 18.4167 8.1875 18.375C9.70833 17.6042 10.8958 16.625 11.75 15.4375C12.5833 14.2292 13.1667 13 13.5 11.75C13.8333 10.4792 14 9.35417 14 8.375C14 8.20833 13.9062 8.07292 13.7188 7.96875L8 5.53125L2.28125 7.96875ZM14.3125 6.59375C14.6667 6.73958 14.9479 6.96875 15.1562 7.28125C15.3854 7.59375 15.5 7.95833 15.5 8.375C15.5208 9.4375 15.3438 10.6875 14.9688 12.125C14.5938 13.5625 13.9167 14.9583 12.9375 16.3125C11.9792 17.6875 10.6042 18.8229 8.8125 19.7188C8.27083 19.9688 7.72917 19.9688 7.1875 19.7188C5.39583 18.8229 4.02083 17.6875 3.0625 16.3125C2.08333 14.9583 1.40625 13.5625 1.03125 12.125C0.65625 10.6875 0.479167 9.4375 0.5 8.375C0.5 7.95833 0.614583 7.59375 0.84375 7.28125C1.05208 6.96875 1.33333 6.73958 1.6875 6.59375L7.59375 4.09375C7.71875 4.03125 7.85417 4 8 4C8.14583 4 8.28125 4.03125 8.40625 4.09375L14.3125 6.59375ZM9.75 10.5C9.70833 11.2292 9.375 11.7604 8.75 12.0938V14.25C8.70833 14.7083 8.45833 14.9583 8 15C7.54167 14.9583 7.29167 14.7083 7.25 14.25V12.0938C6.625 11.7604 6.29167 11.2292 6.25 10.5C6.27083 10 6.4375 9.58333 6.75 9.25C7.08333 8.9375 7.5 8.77083 8 8.75C8.5 8.77083 8.91667 8.9375 9.25 9.25C9.5625 9.58333 9.72917 10 9.75 10.5Z" fill="black" fill-opacity="0.72"/>
</g>
<defs>
<clipPath id="clip0_1731_4113">
<rect width="16" height="24" fill="white"/>
</clipPath>
</defs>
</svg>
