<svg width="13" height="22" viewBox="0 0 13 22" fill="none" xmlns="http://www.w3.org/2000/svg">
<g id="label-paired / sm / copy-sm / regular" clip-path="url(#clip0_1731_2694)">
<path id="icon" d="M10.875 13.375C11.1302 13.375 11.3398 13.293 11.5039 13.1289C11.668 12.9648 11.75 12.7552 11.75 12.5V6.92188C11.75 6.79427 11.7044 6.69401 11.6133 6.62109L9.75391 4.76172C9.68099 4.67057 9.58073 4.625 9.45312 4.625H6.5C6.24479 4.625 6.03516 4.70703 5.87109 4.87109C5.70703 5.03516 5.625 5.24479 5.625 5.5V12.5C5.625 12.7552 5.70703 12.9648 5.87109 13.1289C6.03516 13.293 6.24479 13.375 6.5 13.375H10.875ZM12.2422 5.99219C12.4974 6.2474 12.625 6.55729 12.625 6.92188V12.5C12.6068 12.9922 12.4336 13.4023 12.1055 13.7305C11.7773 14.0586 11.3672 14.2318 10.875 14.25H6.5C6.00781 14.2318 5.59766 14.0586 5.26953 13.7305C4.94141 13.4023 4.76823 12.9922 4.75 12.5V5.5C4.76823 5.00781 4.94141 4.59766 5.26953 4.26953C5.59766 3.94141 6.00781 3.76823 6.5 3.75H9.45312C9.81771 3.75 10.1276 3.8776 10.3828 4.13281L12.2422 5.99219ZM2.125 7.25H3.875V8.125H2.125C1.86979 8.125 1.66016 8.20703 1.49609 8.37109C1.33203 8.53516 1.25 8.74479 1.25 9V16C1.25 16.2552 1.33203 16.4648 1.49609 16.6289C1.66016 16.793 1.86979 16.875 2.125 16.875H6.5C6.75521 16.875 6.96484 16.793 7.12891 16.6289C7.29297 16.4648 7.375 16.2552 7.375 16V15.125H8.25V16C8.23177 16.4922 8.05859 16.9023 7.73047 17.2305C7.40234 17.5586 6.99219 17.7318 6.5 17.75H2.125C1.63281 17.7318 1.22266 17.5586 0.894531 17.2305C0.566406 16.9023 0.393229 16.4922 0.375 16V9C0.393229 8.50781 0.566406 8.09766 0.894531 7.76953C1.22266 7.44141 1.63281 7.26823 2.125 7.25Z" fill="black" fill-opacity="0.72"/>
</g>
<defs>
<clipPath id="clip0_1731_2694">
<rect width="13" height="22" fill="white"/>
</clipPath>
</defs>
</svg>
