<svg width="12" height="18" viewBox="0 0 12 18" fill="none" xmlns="http://www.w3.org/2000/svg">
<g id="label-paired / caption / arrow-up-from-square-caption / regular" clip-path="url(#clip0_1731_659)">
<path id="icon" d="M6.25781 3.61719L8.69531 6.05469C8.85156 6.22656 8.85156 6.39844 8.69531 6.57031C8.52344 6.72656 8.35156 6.72656 8.17969 6.57031L6.375 4.78906V11C6.35938 11.2344 6.23438 11.3594 6 11.375C5.76562 11.3594 5.64062 11.2344 5.625 11V4.78906L3.82031 6.57031C3.64844 6.72656 3.47656 6.72656 3.30469 6.57031C3.14844 6.39844 3.14844 6.22656 3.30469 6.05469L5.74219 3.61719C5.91406 3.46094 6.08594 3.46094 6.25781 3.61719ZM1.5 4.25H2.25C2.48438 4.26562 2.60938 4.39062 2.625 4.625C2.60938 4.85938 2.48438 4.98438 2.25 5H1.5C1.28125 5 1.10156 5.07031 0.960938 5.21094C0.820312 5.35156 0.75 5.53125 0.75 5.75V14C0.75 14.2188 0.820312 14.3984 0.960938 14.5391C1.10156 14.6797 1.28125 14.75 1.5 14.75H10.5C10.7188 14.75 10.8984 14.6797 11.0391 14.5391C11.1797 14.3984 11.25 14.2188 11.25 14V5.75C11.25 5.53125 11.1797 5.35156 11.0391 5.21094C10.8984 5.07031 10.7188 5 10.5 5H9.75C9.51562 4.98438 9.39062 4.85938 9.375 4.625C9.39062 4.39062 9.51562 4.26562 9.75 4.25H10.5C10.9219 4.26562 11.2734 4.41406 11.5547 4.69531C11.8359 4.97656 11.9844 5.32812 12 5.75V14C11.9844 14.4219 11.8359 14.7734 11.5547 15.0547C11.2734 15.3359 10.9219 15.4844 10.5 15.5H1.5C1.07812 15.4844 0.726562 15.3359 0.445312 15.0547C0.164062 14.7734 0.015625 14.4219 0 14V5.75C0.015625 5.32812 0.164062 4.97656 0.445312 4.69531C0.726562 4.41406 1.07812 4.26562 1.5 4.25Z" fill="black" fill-opacity="0.72"/>
</g>
<defs>
<clipPath id="clip0_1731_659">
<rect width="12" height="18" fill="white"/>
</clipPath>
</defs>
</svg>
