<svg width="16" height="24" viewBox="0 0 16 24" fill="none" xmlns="http://www.w3.org/2000/svg">
<g id="label-paired / md / search-md / bold" clip-path="url(#clip0_1731_3137)">
<path id="icon" d="M11.5 10.5C11.5 9.60417 11.2812 8.77083 10.8438 8C10.3854 7.22917 9.77083 6.61458 9 6.15625C8.20833 5.71875 7.375 5.5 6.5 5.5C5.625 5.5 4.79167 5.71875 4 6.15625C3.22917 6.61458 2.61458 7.22917 2.15625 8C1.71875 8.77083 1.5 9.60417 1.5 10.5C1.5 11.3958 1.71875 12.2292 2.15625 13C2.61458 13.7708 3.22917 14.3854 4 14.8438C4.79167 15.2812 5.625 15.5 6.5 15.5C7.375 15.5 8.20833 15.2812 9 14.8438C9.77083 14.3854 10.3854 13.7708 10.8438 13C11.2812 12.2292 11.5 11.3958 11.5 10.5ZM10.5312 15.5938C9.40625 16.5104 8.0625 16.9792 6.5 17C4.66667 16.9583 3.13542 16.3229 1.90625 15.0938C0.677083 13.8646 0.0416667 12.3333 0 10.5C0.0416667 8.66667 0.677083 7.13542 1.90625 5.90625C3.13542 4.67708 4.66667 4.04167 6.5 4C8.33333 4.04167 9.86458 4.67708 11.0938 5.90625C12.3229 7.13542 12.9583 8.66667 13 10.5C12.9792 12.0625 12.5104 13.4062 11.5938 14.5312L15.7812 18.7188C16.0729 19.0729 16.0729 19.4271 15.7812 19.7812C15.4271 20.0729 15.0729 20.0729 14.7188 19.7812L10.5312 15.5938Z" fill="black" fill-opacity="0.72"/>
</g>
<defs>
<clipPath id="clip0_1731_3137">
<rect width="16" height="24" fill="white"/>
</clipPath>
</defs>
</svg>
