<svg width="14" height="22" viewBox="0 0 14 22" fill="none" xmlns="http://www.w3.org/2000/svg">
<g id="label-paired / sm / circle-six-sm / bold" clip-path="url(#clip0_1731_2330)">
<path id="icon" d="M12.6875 10.75C12.6875 9.71094 12.4323 8.76302 11.9219 7.90625C11.4297 7.04948 10.737 6.35677 9.84375 5.82812C8.95052 5.31771 8.0026 5.0625 7 5.0625C5.9974 5.0625 5.04948 5.31771 4.15625 5.82812C3.26302 6.35677 2.57031 7.04948 2.07812 7.90625C1.56771 8.76302 1.3125 9.71094 1.3125 10.75C1.3125 11.7891 1.56771 12.737 2.07812 13.5938C2.57031 14.4505 3.26302 15.1432 4.15625 15.6719C5.04948 16.1823 5.9974 16.4375 7 16.4375C8.0026 16.4375 8.95052 16.1823 9.84375 15.6719C10.737 15.1432 11.4297 14.4505 11.9219 13.5938C12.4323 12.737 12.6875 11.7891 12.6875 10.75ZM0 10.75C0.0182292 9.47396 0.328125 8.30729 0.929688 7.25C1.54948 6.19271 2.40625 5.33594 3.5 4.67969C4.61198 4.0599 5.77865 3.75 7 3.75C8.22135 3.75 9.38802 4.0599 10.5 4.67969C11.5938 5.33594 12.4505 6.19271 13.0703 7.25C13.6719 8.30729 13.9818 9.47396 14 10.75C13.9818 12.026 13.6719 13.1927 13.0703 14.25C12.4505 15.3073 11.5938 16.1641 10.5 16.8203C9.38802 17.4401 8.22135 17.75 7 17.75C5.77865 17.75 4.61198 17.4401 3.5 16.8203C2.40625 16.1641 1.54948 15.3073 0.929688 14.25C0.328125 13.1927 0.0182292 12.026 0 10.75ZM7 12.9375C7.49219 12.9193 7.875 12.7005 8.14844 12.2812C8.36719 11.8438 8.36719 11.4062 8.14844 10.9688C7.875 10.5495 7.49219 10.3307 7 10.3125C6.50781 10.3307 6.125 10.5495 5.85156 10.9688C5.63281 11.4062 5.63281 11.8438 5.85156 12.2812C6.125 12.7005 6.50781 12.9193 7 12.9375ZM4.375 11.625C4.39323 10.6953 4.7487 9.92969 5.44141 9.32812L7.65625 7.41406C7.98438 7.17708 8.29427 7.19531 8.58594 7.46875C8.82292 7.79688 8.80469 8.10677 8.53125 8.39844L7.71094 9.10938C8.27604 9.27344 8.73177 9.58333 9.07812 10.0391C9.42448 10.4766 9.60677 11.0052 9.625 11.625C9.60677 12.3724 9.35156 12.9922 8.85938 13.4844C8.36719 13.9766 7.7474 14.2318 7 14.25C6.2526 14.2318 5.63281 13.9766 5.14062 13.4844C4.64844 12.9922 4.39323 12.3724 4.375 11.625Z" fill="black" fill-opacity="0.72"/>
</g>
<defs>
<clipPath id="clip0_1731_2330">
<rect width="14" height="22" fill="white"/>
</clipPath>
</defs>
</svg>
