<svg width="20" height="30" viewBox="0 0 20 30" fill="none" xmlns="http://www.w3.org/2000/svg">
<g id="label-paired / lg / bullhorn-lg / bold" clip-path="url(#clip0_1731_5086)">
<path id="icon" d="M16.875 8.39062L16.4453 8.82031C15.3255 9.91406 14.0495 10.7734 12.6172 11.3984C11.2109 11.9974 9.71354 12.3229 8.125 12.375V17.375C9.71354 17.4271 11.2109 17.7526 12.6172 18.3516C14.0495 18.9766 15.3255 19.8359 16.4453 20.9297L16.875 21.3594V8.39062ZM6.25 10.5H7.85156C9.23177 10.5 10.5469 10.2396 11.7969 9.71875C13.0469 9.19792 14.1536 8.45573 15.1172 7.49219L16.6016 6.00781C17.0443 5.61719 17.5 5.52604 17.9688 5.73438C18.4375 5.91667 18.6979 6.29427 18.75 6.86719V12.5312C19.1146 12.7135 19.4141 13.013 19.6484 13.4297C19.8828 13.8464 20 14.3281 20 14.875C20 15.4219 19.8828 15.9036 19.6484 16.3203C19.4141 16.737 19.1146 17.0365 18.75 17.2188V22.8828C18.6979 23.4557 18.4375 23.8333 17.9688 24.0156C17.5 24.224 17.0443 24.1328 16.6016 23.7422L15.1172 22.2578C14.1797 21.3203 13.112 20.5911 11.9141 20.0703C10.7161 19.5755 9.45312 19.3021 8.125 19.25V23.3125C8.09896 23.9375 7.89062 24.4583 7.5 24.875C7.08333 25.2656 6.5625 25.474 5.9375 25.5H4.6875C4.0625 25.474 3.54167 25.2656 3.125 24.875C2.73438 24.4583 2.52604 23.9375 2.5 23.3125V19.25C1.79688 19.224 1.21094 18.9766 0.742188 18.5078C0.273438 18.0391 0.0260417 17.4531 0 16.75V13C0.0260417 12.2969 0.273438 11.7109 0.742188 11.2422C1.21094 10.7734 1.79688 10.526 2.5 10.5H6.25ZM4.375 19.25V23.3125C4.40104 23.4948 4.50521 23.599 4.6875 23.625H5.9375C6.11979 23.599 6.22396 23.4948 6.25 23.3125V19.25H4.375ZM2.5 12.375C2.10938 12.401 1.90104 12.6094 1.875 13V16.75C1.90104 17.1406 2.10938 17.349 2.5 17.375H4.375H6.25V12.375H2.5Z" fill="black" fill-opacity="0.72"/>
</g>
<defs>
<clipPath id="clip0_1731_5086">
<rect width="20" height="30" fill="white"/>
</clipPath>
</defs>
</svg>
