<svg width="20" height="30" viewBox="0 0 20 30" fill="none" xmlns="http://www.w3.org/2000/svg">
<g id="label-paired / lg / circle-sort-lg / bold" clip-path="url(#clip0_1731_4586)">
<path id="icon" d="M18.125 15.5C18.125 14.0156 17.7604 12.6615 17.0312 11.4375C16.3281 10.2135 15.3385 9.22396 14.0625 8.46875C12.7865 7.73958 11.4323 7.375 10 7.375C8.56771 7.375 7.21354 7.73958 5.9375 8.46875C4.66146 9.22396 3.67188 10.2135 2.96875 11.4375C2.23958 12.6615 1.875 14.0156 1.875 15.5C1.875 16.9844 2.23958 18.3385 2.96875 19.5625C3.67188 20.7865 4.66146 21.776 5.9375 22.5312C7.21354 23.2604 8.56771 23.625 10 23.625C11.4323 23.625 12.7865 23.2604 14.0625 22.5312C15.3385 21.776 16.3281 20.7865 17.0312 19.5625C17.7604 18.3385 18.125 16.9844 18.125 15.5ZM0 15.5C0.0260417 13.6771 0.46875 12.0104 1.32812 10.5C2.21354 8.98958 3.4375 7.76562 5 6.82812C6.58854 5.94271 8.25521 5.5 10 5.5C11.7448 5.5 13.4115 5.94271 15 6.82812C16.5625 7.76562 17.7865 8.98958 18.6719 10.5C19.5312 12.0104 19.974 13.6771 20 15.5C19.974 17.3229 19.5312 18.9896 18.6719 20.5C17.7865 22.0104 16.5625 23.2344 15 24.1719C13.4115 25.0573 11.7448 25.5 10 25.5C8.25521 25.5 6.58854 25.0573 5 24.1719C3.4375 23.2344 2.21354 22.0104 1.32812 20.5C0.46875 18.9896 0.0260417 17.3229 0 15.5ZM10.4297 9.44531L14.1797 13.1953C14.362 13.3776 14.4141 13.599 14.3359 13.8594C14.2057 14.0938 14.0104 14.224 13.75 14.25H6.25C5.98958 14.25 5.79427 14.1198 5.66406 13.8594C5.58594 13.599 5.63802 13.3776 5.82031 13.1953L9.57031 9.44531C9.85677 9.1849 10.1432 9.1849 10.4297 9.44531ZM9.57031 21.5547L5.82031 17.8047C5.63802 17.6224 5.58594 17.401 5.66406 17.1406C5.79427 16.9062 5.98958 16.776 6.25 16.75H13.75C14.0104 16.75 14.2057 16.8802 14.3359 17.1406C14.4141 17.401 14.362 17.6224 14.1797 17.8047L10.4297 21.5547C10.1432 21.8151 9.85677 21.8151 9.57031 21.5547Z" fill="black" fill-opacity="0.72"/>
</g>
<defs>
<clipPath id="clip0_1731_4586">
<rect width="20" height="30" fill="white"/>
</clipPath>
</defs>
</svg>
