<svg width="20" height="30" viewBox="0 0 20 30" fill="none" xmlns="http://www.w3.org/2000/svg">
<g id="label-paired / lg / phone-lg / regular" clip-path="url(#clip0_1731_4776)">
<path id="icon" d="M14.6875 16.2422L19.0625 18.1172C19.401 18.2734 19.6615 18.5208 19.8438 18.8594C20 19.1719 20.0391 19.5104 19.9609 19.875L19.0234 24.25C18.8151 25.0312 18.3073 25.4479 17.5 25.5C17.2656 25.5 17.0312 25.5 16.7969 25.5C16.6146 25.474 16.4323 25.4609 16.25 25.4609C13.2031 25.2005 10.4557 24.276 8.00781 22.6875C5.5599 21.099 3.61979 19.0286 2.1875 16.4766C0.755208 13.9505 0.0260417 11.125 0 8C0.0520833 7.19271 0.46875 6.6849 1.25 6.47656L5.625 5.53906C5.98958 5.46094 6.32812 5.51302 6.64062 5.69531C6.97917 5.85156 7.22656 6.09896 7.38281 6.4375L9.25781 10.8125C9.51823 11.5156 9.36198 12.1276 8.78906 12.6484L7.22656 13.9375C8.29427 15.7604 9.73958 17.2057 11.5625 18.2734L12.8516 16.7109C13.3724 16.138 13.9844 15.9818 14.6875 16.2422ZM17.5 24.25C17.6562 24.25 17.7604 24.1719 17.8125 24.0156L18.75 19.6406C18.776 19.4583 18.7109 19.3411 18.5547 19.2891L14.1797 17.4141C14.0495 17.362 13.9323 17.388 13.8281 17.4922L12.5391 19.0938C12.0703 19.5625 11.5365 19.6536 10.9375 19.3672C8.90625 18.1953 7.30469 16.5938 6.13281 14.5625C5.84635 13.9635 5.9375 13.4297 6.40625 12.9609L8.00781 11.6719C8.11198 11.5677 8.13802 11.4505 8.08594 11.3203L6.21094 6.94531C6.13281 6.78906 6.01562 6.72396 5.85938 6.75L1.48438 7.6875C1.32812 7.73958 1.25 7.84375 1.25 8C1.27604 11.0208 2.01823 13.7552 3.47656 16.2031C4.90885 18.651 6.84896 20.5911 9.29688 22.0234C11.7448 23.4818 14.4792 24.224 17.5 24.25Z" fill="black" fill-opacity="0.72"/>
</g>
<defs>
<clipPath id="clip0_1731_4776">
<rect width="20" height="30" fill="white"/>
</clipPath>
</defs>
</svg>
