<svg width="24" height="36" viewBox="0 0 24 36" fill="none" xmlns="http://www.w3.org/2000/svg">
<g id="label-paired / xl / circle-five-xl / regular" clip-path="url(#clip0_1731_6096)">
<path id="icon" d="M12 7.5C10.0938 7.53125 8.34375 8 6.75 8.90625C5.15625 9.84375 3.875 11.125 2.90625 12.75C1.96875 14.4062 1.5 16.1562 1.5 18C1.5 19.8438 1.96875 21.5938 2.90625 23.25C3.875 24.875 5.15625 26.1562 6.75 27.0938C8.34375 28 10.0938 28.4688 12 28.5C13.9062 28.4688 15.6562 28 17.25 27.0938C18.8438 26.1562 20.125 24.875 21.0938 23.25C22.0312 21.5938 22.5 19.8438 22.5 18C22.5 16.1562 22.0312 14.4062 21.0938 12.75C20.125 11.125 18.8438 9.84375 17.25 8.90625C15.6562 8 13.9062 7.53125 12 7.5ZM12 30C9.8125 29.9688 7.8125 29.4375 6 28.4062C4.1875 27.3438 2.71875 25.875 1.59375 24C0.53125 22.0938 0 20.0938 0 18C0 15.9062 0.53125 13.9062 1.59375 12C2.71875 10.125 4.1875 8.65625 6 7.59375C7.8125 6.5625 9.8125 6.03125 12 6C14.1875 6.03125 16.1875 6.5625 18 7.59375C19.8125 8.65625 21.2812 10.125 22.4062 12C23.4688 13.9062 24 15.9062 24 18C24 20.0938 23.4688 22.0938 22.4062 24C21.2812 25.875 19.8125 27.3438 18 28.4062C16.1875 29.4375 14.1875 29.9688 12 30ZM9.75 12H15C15.4688 12.0312 15.7188 12.2812 15.75 12.75C15.7188 13.2188 15.4688 13.4688 15 13.5H10.3594L9.5625 16.5938L13.3125 16.9688C14.25 17.0938 15.0156 17.4688 15.6094 18.0938C16.1719 18.75 16.4688 19.5469 16.5 20.4844C16.4688 21.4844 16.125 22.3125 15.4688 22.9688C14.8125 23.625 13.9844 23.9688 12.9844 24H10.9219C9.54688 23.9688 8.46875 23.4062 7.6875 22.3125L7.64062 22.1719C7.42188 21.7656 7.48438 21.4219 7.82812 21.1406C8.23438 20.9219 8.57812 20.9844 8.85938 21.3281L8.95312 21.4688C9.42188 22.125 10.0781 22.4688 10.9219 22.5H12.9844C13.5469 22.5 14.0156 22.2969 14.3906 21.8906C14.7969 21.5156 15 21.0469 15 20.4844C15 19.9531 14.8281 19.5 14.4844 19.125C14.1406 18.75 13.7031 18.5312 13.1719 18.4688L8.53125 18C8.3125 17.9688 8.14062 17.8594 8.01562 17.6719C7.89062 17.4844 7.85938 17.2812 7.92188 17.0625L9.04688 12.5625C9.14062 12.2188 9.375 12.0312 9.75 12Z" fill="black" fill-opacity="0.72"/>
</g>
<defs>
<clipPath id="clip0_1731_6096">
<rect width="24" height="36" fill="white"/>
</clipPath>
</defs>
</svg>
