<svg width="13" height="22" viewBox="0 0 13 22" fill="none" xmlns="http://www.w3.org/2000/svg">
<g id="label-paired / sm / arrow-right-to-line-sm / bold" clip-path="url(#clip0_1731_2174)">
<path id="icon" d="M12.625 6.15625V15.3438C12.5885 15.7448 12.3698 15.9635 11.9688 16C11.5677 15.9635 11.349 15.7448 11.3125 15.3438V6.15625C11.349 5.75521 11.5677 5.53646 11.9688 5.5C12.3698 5.53646 12.5885 5.75521 12.625 6.15625ZM8.90625 11.2422L8.93359 11.2148L5.21484 14.7148C4.88672 14.9701 4.57682 14.9609 4.28516 14.6875C4.02995 14.3776 4.03906 14.0768 4.3125 13.7852L6.82812 11.4062H4.53125H1.03125C0.630208 11.3698 0.411458 11.151 0.375 10.75C0.411458 10.349 0.630208 10.1302 1.03125 10.0938H4.53125H6.82812L4.3125 7.71484C4.03906 7.42318 4.02995 7.1224 4.28516 6.8125C4.57682 6.53906 4.8776 6.52995 5.1875 6.78516L8.90625 10.2852C9.05208 10.4128 9.125 10.5677 9.125 10.75C9.125 10.9323 9.05208 11.0964 8.90625 11.2422Z" fill="black" fill-opacity="0.72"/>
</g>
<defs>
<clipPath id="clip0_1731_2174">
<rect width="13" height="22" fill="white"/>
</clipPath>
</defs>
</svg>
