<svg width="20" height="30" viewBox="0 0 20 30" fill="none" xmlns="http://www.w3.org/2000/svg">
<g id="label-paired / lg / sun-bright-lg / regular" clip-path="url(#clip0_1731_5464)">
<path id="icon" d="M10 5.5C10.3906 5.52604 10.599 5.73438 10.625 6.125V9.25C10.599 9.64062 10.3906 9.84896 10 9.875C9.60938 9.84896 9.40104 9.64062 9.375 9.25V6.125C9.40104 5.73438 9.60938 5.52604 10 5.5ZM0 15.5C0.0260417 15.1094 0.234375 14.901 0.625 14.875H3.75C4.14062 14.901 4.34896 15.1094 4.375 15.5C4.34896 15.8906 4.14062 16.099 3.75 16.125H0.625C0.234375 16.099 0.0260417 15.8906 0 15.5ZM15.625 15.5C15.651 15.1094 15.8594 14.901 16.25 14.875H19.375C19.7656 14.901 19.974 15.1094 20 15.5C19.974 15.8906 19.7656 16.099 19.375 16.125H16.25C15.8594 16.099 15.651 15.8906 15.625 15.5ZM10 21.125C10.3906 21.151 10.599 21.3594 10.625 21.75V24.875C10.599 25.2656 10.3906 25.474 10 25.5C9.60938 25.474 9.40104 25.2656 9.375 24.875V21.75C9.40104 21.3594 9.60938 21.151 10 21.125ZM2.92969 8.42969C3.21615 8.19531 3.51562 8.19531 3.82812 8.42969L6.01562 10.6562C6.25 10.9427 6.25 11.2292 6.01562 11.5156C5.72917 11.776 5.44271 11.776 5.15625 11.5156L2.92969 9.32812C2.69531 9.01562 2.69531 8.71615 2.92969 8.42969ZM2.92969 22.5703C2.69531 22.2839 2.69531 21.9844 2.92969 21.6719L5.15625 19.4844C5.44271 19.25 5.72917 19.25 6.01562 19.4844C6.27604 19.7708 6.27604 20.0573 6.01562 20.3438L3.82812 22.5703C3.51562 22.8047 3.21615 22.8047 2.92969 22.5703ZM13.9844 11.5156C13.75 11.2292 13.75 10.9427 13.9844 10.6562L16.1719 8.42969C16.4844 8.19531 16.7839 8.19531 17.0703 8.42969C17.3047 8.71615 17.3047 9.01562 17.0703 9.32812L14.8438 11.5156C14.5573 11.75 14.2708 11.75 13.9844 11.5156ZM13.9844 19.4844C14.2708 19.25 14.5573 19.25 14.8438 19.4844L17.0703 21.6719C17.3047 21.9844 17.3047 22.2839 17.0703 22.5703C16.7839 22.8047 16.4844 22.8047 16.1719 22.5703L13.9844 20.3438C13.75 20.0573 13.75 19.7708 13.9844 19.4844ZM13.125 15.5C13.099 14.3281 12.5781 13.4297 11.5625 12.8047C10.5208 12.2318 9.47917 12.2318 8.4375 12.8047C7.42188 13.4297 6.90104 14.3281 6.875 15.5C6.90104 16.6719 7.42188 17.5703 8.4375 18.1953C9.47917 18.7682 10.5208 18.7682 11.5625 18.1953C12.5781 17.5703 13.099 16.6719 13.125 15.5ZM5.625 15.5C5.625 14.7188 5.82031 13.9896 6.21094 13.3125C6.60156 12.6354 7.13542 12.1016 7.8125 11.7109C8.48958 11.3203 9.21875 11.125 10 11.125C10.7812 11.125 11.5104 11.3203 12.1875 11.7109C12.8646 12.1016 13.3984 12.6354 13.7891 13.3125C14.1797 13.9896 14.375 14.7188 14.375 15.5C14.375 16.2812 14.1797 17.0104 13.7891 17.6875C13.3984 18.3646 12.8646 18.8984 12.1875 19.2891C11.5104 19.6797 10.7812 19.875 10 19.875C9.21875 19.875 8.48958 19.6797 7.8125 19.2891C7.13542 18.8984 6.60156 18.3646 6.21094 17.6875C5.82031 17.0104 5.625 16.2812 5.625 15.5Z" fill="black" fill-opacity="0.72"/>
</g>
<defs>
<clipPath id="clip0_1731_5464">
<rect width="20" height="30" fill="white"/>
</clipPath>
</defs>
</svg>
