<svg width="24" height="36" viewBox="0 0 24 36" fill="none" xmlns="http://www.w3.org/2000/svg">
<g id="label-paired / xl / chart-line-up-down-xl / bold" clip-path="url(#clip0_1731_6300)">
<path id="icon" d="M1.125 7.5C1.8125 7.5625 2.1875 7.9375 2.25 8.625V25.125C2.3125 25.8125 2.6875 26.1875 3.375 26.25H22.875C23.5625 26.3125 23.9375 26.6875 24 27.375C23.9375 28.0625 23.5625 28.4375 22.875 28.5H3.375C2.40625 28.4688 1.60938 28.1406 0.984375 27.5156C0.359375 26.8906 0.03125 26.0938 0 25.125V8.625C0.0625 7.9375 0.4375 7.5625 1.125 7.5ZM17.625 11.25C16.9375 11.1875 16.5625 10.8125 16.5 10.125C16.5625 9.4375 16.9375 9.0625 17.625 9H21.375C21.6875 9 21.9531 9.10938 22.1719 9.32812C22.3906 9.54688 22.5 9.8125 22.5 10.125V13.875C22.4375 14.5625 22.0625 14.9375 21.375 15C20.6875 14.9375 20.3125 14.5625 20.25 13.875V12.8438L14.2969 18.7969C13.7656 19.2344 13.2344 19.2344 12.7031 18.7969L9.75 15.8438L6.79688 18.7969C6.26562 19.2344 5.73438 19.2344 5.20312 18.7969C4.76562 18.2656 4.76562 17.7344 5.20312 17.2031L8.95312 13.4531C9.48438 13.0156 10.0156 13.0156 10.5469 13.4531L13.5 16.4062L18.6562 11.25H17.625ZM17.625 24C16.9375 23.9375 16.5625 23.5625 16.5 22.875C16.5625 22.1875 16.9375 21.8125 17.625 21.75H18.6562L16.4531 19.5469L18.0469 17.9531L20.25 20.1562V19.125C20.3125 18.4375 20.6875 18.0625 21.375 18C22.0625 18.0625 22.4375 18.4375 22.5 19.125V22.875C22.5 23.1875 22.3906 23.4531 22.1719 23.6719C21.9531 23.8906 21.6875 24 21.375 24H17.625Z" fill="black" fill-opacity="0.72"/>
</g>
<defs>
<clipPath id="clip0_1731_6300">
<rect width="24" height="36" fill="white"/>
</clipPath>
</defs>
</svg>
