<svg width="23" height="30" viewBox="0 0 23 30" fill="none" xmlns="http://www.w3.org/2000/svg">
<g id="label-paired / lg / youtube-lg" clip-path="url(#clip0_1731_14035)">
<path id="icon" d="M21.7344 10.3438C21.8646 10.9427 21.9688 11.6328 22.0469 12.4141C22.099 13.2214 22.138 13.9375 22.1641 14.5625C22.1641 15.1615 22.1641 15.474 22.1641 15.5C22.1641 15.5521 22.1641 15.8776 22.1641 16.4766C22.138 17.1016 22.099 17.8047 22.0469 18.5859C21.9688 19.3932 21.8646 20.0964 21.7344 20.6953C21.4219 21.6589 20.7839 22.2839 19.8203 22.5703C19.1953 22.7005 18.2318 22.8047 16.9297 22.8828C15.6276 22.9349 14.4167 22.974 13.2969 23C12.1771 23 11.5781 23 11.5 23C11.4219 23 10.8229 23 9.70312 23C8.58333 22.974 7.3724 22.9349 6.07031 22.8828C4.76823 22.8047 3.80469 22.7005 3.17969 22.5703C2.21615 22.2839 1.57812 21.6589 1.26562 20.6953C1.13542 20.0964 1.03125 19.3932 0.953125 18.5859C0.901042 17.8047 0.861979 17.1016 0.835938 16.4766C0.835938 15.8776 0.835938 15.5521 0.835938 15.5C0.835938 15.474 0.835938 15.1615 0.835938 14.5625C0.861979 13.9375 0.901042 13.2214 0.953125 12.4141C1.03125 11.6328 1.13542 10.9427 1.26562 10.3438C1.57812 9.38021 2.21615 8.74219 3.17969 8.42969C3.80469 8.29948 4.76823 8.19531 6.07031 8.11719C7.3724 8.0651 8.58333 8.02604 9.70312 8C10.8229 8 11.4219 8 11.5 8C11.5781 8 12.1771 8 13.2969 8C14.4167 8.02604 15.6276 8.0651 16.9297 8.11719C18.2318 8.19531 19.1953 8.29948 19.8203 8.42969C20.7839 8.74219 21.4219 9.38021 21.7344 10.3438ZM9.3125 18.7031L14.8984 15.5L9.3125 12.3359V18.7031Z" fill="black" fill-opacity="0.72"/>
</g>
<defs>
<clipPath id="clip0_1731_14035">
<rect width="23" height="30" fill="white"/>
</clipPath>
</defs>
</svg>
