<svg width="13" height="22" viewBox="0 0 13 22" fill="none" xmlns="http://www.w3.org/2000/svg">
<g id="label-paired / sm / plus-sm / regular" clip-path="url(#clip0_1731_1817)">
<path id="icon" d="M6.9375 5.5V10.3125H11.75C12.0234 10.3307 12.1693 10.4766 12.1875 10.75C12.1693 11.0234 12.0234 11.1693 11.75 11.1875H6.9375V16C6.91927 16.2734 6.77344 16.4193 6.5 16.4375C6.22656 16.4193 6.08073 16.2734 6.0625 16V11.1875H1.25C0.976562 11.1693 0.830729 11.0234 0.8125 10.75C0.830729 10.4766 0.976562 10.3307 1.25 10.3125H6.0625V5.5C6.08073 5.22656 6.22656 5.08073 6.5 5.0625C6.77344 5.08073 6.91927 5.22656 6.9375 5.5Z" fill="black" fill-opacity="0.72"/>
</g>
<defs>
<clipPath id="clip0_1731_1817">
<rect width="13" height="22" fill="white"/>
</clipPath>
</defs>
</svg>
