<svg width="16" height="24" viewBox="0 0 16 24" fill="none" xmlns="http://www.w3.org/2000/svg">
<g id="label-paired / md / bullhorn-md / regular" clip-path="url(#clip0_1731_4127)">
<path id="icon" d="M13 5.375C13 5.27083 12.9479 5.19792 12.8438 5.15625C12.7396 5.11458 12.6458 5.13542 12.5625 5.21875L11.8125 6C10.4792 7.39583 8.875 8.3125 7 8.75V14.2812C8.875 14.6979 10.4792 15.6042 11.8125 17L12.5625 17.7812C12.6458 17.8646 12.7396 17.8854 12.8438 17.8438C12.9479 17.8021 13 17.7292 13 17.625V5.375ZM6 14.0938V8.90625C5.8125 8.92708 5.63542 8.9375 5.46875 8.9375L4.53125 9H4.5H2C1.70833 9 1.46875 9.09375 1.28125 9.28125C1.09375 9.46875 1 9.70833 1 10V13C1 13.2917 1.09375 13.5312 1.28125 13.7188C1.46875 13.9062 1.70833 14 2 14H4.5H4.53125L5.4375 14.0625C5.625 14.0625 5.8125 14.0729 6 14.0938ZM11.8438 4.53125C12.2812 4.13542 12.7396 4.03125 13.2188 4.21875C13.6979 4.40625 13.9583 4.79167 14 5.375V17.625C13.9583 18.2083 13.6979 18.5938 13.2188 18.7812C12.7396 18.9688 12.2812 18.8646 11.8438 18.4688L11.0938 17.6875C9.69792 16.2292 8 15.3646 6 15.0938V18.25C5.97917 18.75 5.8125 19.1667 5.5 19.5C5.16667 19.8125 4.75 19.9792 4.25 20H3.75C3.25 19.9792 2.83333 19.8125 2.5 19.5C2.1875 19.1667 2.02083 18.75 2 18.25V15C1.4375 14.9792 0.96875 14.7812 0.59375 14.4062C0.21875 14.0312 0.0208333 13.5625 0 13V10C0.0208333 9.4375 0.21875 8.96875 0.59375 8.59375C0.96875 8.21875 1.4375 8.02083 2 8H4.5L5.40625 7.9375C6.48958 7.875 7.52083 7.625 8.5 7.1875C9.47917 6.72917 10.3438 6.10417 11.0938 5.3125L11.8438 4.53125ZM3 15V18.25C3.04167 18.7083 3.29167 18.9583 3.75 19H4.25C4.70833 18.9583 4.95833 18.7083 5 18.25V15.0312L4.5 15H3ZM15.5 10C15.8125 10.0208 15.9792 10.1875 16 10.5V12.5C15.9792 12.8125 15.8125 12.9792 15.5 13C15.1875 12.9792 15.0208 12.8125 15 12.5V10.5C15.0208 10.1875 15.1875 10.0208 15.5 10Z" fill="black" fill-opacity="0.72"/>
</g>
<defs>
<clipPath id="clip0_1731_4127">
<rect width="16" height="24" fill="white"/>
</clipPath>
</defs>
</svg>
