<svg width="18" height="36" viewBox="0 0 18 36" fill="none" xmlns="http://www.w3.org/2000/svg">
<g id="label-paired / xl / percent-xl / regular" clip-path="url(#clip0_1731_6513)">
<path id="icon" d="M3 10.5C2.5625 10.5 2.20312 10.6406 1.92188 10.9219C1.64062 11.2031 1.5 11.5625 1.5 12C1.5 12.4375 1.64062 12.7969 1.92188 13.0781C2.20312 13.3594 2.5625 13.5 3 13.5C3.4375 13.5 3.79688 13.3594 4.07812 13.0781C4.35938 12.7969 4.5 12.4375 4.5 12C4.5 11.5625 4.35938 11.2031 4.07812 10.9219C3.79688 10.6406 3.4375 10.5 3 10.5ZM3 15C1.875 14.9688 1.01562 14.4688 0.421875 13.5C-0.140625 12.5 -0.140625 11.5 0.421875 10.5C1.01562 9.53125 1.875 9.03125 3 9C4.125 9.03125 4.98438 9.53125 5.57812 10.5C6.14062 11.5 6.14062 12.5 5.57812 13.5C4.98438 14.4688 4.125 14.9688 3 15ZM15 22.5C14.5625 22.5 14.2031 22.6406 13.9219 22.9219C13.6406 23.2031 13.5 23.5625 13.5 24C13.5 24.4375 13.6406 24.7969 13.9219 25.0781C14.2031 25.3594 14.5625 25.5 15 25.5C15.4375 25.5 15.7969 25.3594 16.0781 25.0781C16.3594 24.7969 16.5 24.4375 16.5 24C16.5 23.5625 16.3594 23.2031 16.0781 22.9219C15.7969 22.6406 15.4375 22.5 15 22.5ZM15 27C13.875 26.9688 13.0156 26.4688 12.4219 25.5C11.8594 24.5 11.8594 23.5 12.4219 22.5C13.0156 21.5312 13.875 21.0312 15 21C16.125 21.0312 16.9844 21.5312 17.5781 22.5C18.1406 23.5 18.1406 24.5 17.5781 25.5C16.9844 26.4688 16.125 26.9688 15 27ZM17.7656 10.2656L1.26562 26.7656C0.921875 27.0781 0.578125 27.0781 0.234375 26.7656C-0.078125 26.4219 -0.078125 26.0781 0.234375 25.7344L16.7344 9.23438C17.0781 8.92188 17.4219 8.92188 17.7656 9.23438C18.0781 9.57812 18.0781 9.92188 17.7656 10.2656Z" fill="black" fill-opacity="0.72"/>
</g>
<defs>
<clipPath id="clip0_1731_6513">
<rect width="18" height="36" fill="white"/>
</clipPath>
</defs>
</svg>
