<svg width="20" height="24" viewBox="0 0 20 24" fill="none" xmlns="http://www.w3.org/2000/svg">
<g id="label-paired / md / box-archive-circle-arrow-down-md / bold" clip-path="url(#clip0_1731_3227)">
<path id="icon" d="M0 6C0 5.46875 0.4375 5 1 5C5.65625 5 10.3125 5 15 5C15.5312 5 16 5.46875 16 6C16 6.84375 16 7.6875 16 8.5C16 9.0625 15.5312 9.5 15 9.5C10.3125 9.5 5.65625 9.5 1 9.5C0.4375 9.5 0 9.0625 0 8.5C0 7.6875 0 6.84375 0 6ZM1 10.5H2.5C2.5 12.6875 2.5 14.8438 2.5 17C2.5 17.2812 2.71875 17.5 3 17.5C5.4375 17.5 7.90625 17.5 10.375 17.5C10.5625 18.0625 10.875 18.5625 11.25 19C8.5 19 5.75 19 3 19C1.875 19 1 18.125 1 17C1 14.8438 1 12.6875 1 10.5ZM1.5 6.5C1.5 7 1.5 7.5 1.5 8C5.8125 8 10.1562 8 14.5 8C14.5 7.5 14.5 7 14.5 6.5H1.5ZM5 11.75C5 11.3438 5.3125 11 5.75 11C7.25 11 8.75 11 10.25 11C10.6562 11 11 11.3438 11 11.75C11 12.1875 10.6562 12.5 10.25 12.5C8.75 12.5 7.25 12.5 5.75 12.5C5.3125 12.5 5 12.1875 5 11.75ZM11 15.5C11 13.9062 11.8438 12.4062 13.25 11.625C14.625 10.8125 16.3438 10.8125 17.75 11.625C19.125 12.4062 20 13.9062 20 15.5C20 17.125 19.125 18.5938 17.75 19.4062C16.3438 20.2188 14.625 20.2188 13.25 19.4062C11.8438 18.5938 11 17.125 11 15.5ZM13.375 15.4062C13.1875 15.5938 13.1875 15.9375 13.375 16.125C13.9688 16.6875 14.5625 17.2812 15.125 17.875C15.3125 18.0625 15.6562 18.0625 15.8438 17.875C16.4375 17.2812 17 16.6875 17.5938 16.125C17.7812 15.9375 17.7812 15.5938 17.5938 15.4062C17.4062 15.2188 17.0625 15.2188 16.875 15.4062C16.5938 15.7188 16.2812 16 16 16.3125C16 15.375 16 14.4375 16 13.5C16 13.25 15.75 13 15.5 13C15.2188 13 15 13.25 15 13.5C15 14.4375 15 15.375 15 16.3125C14.6875 16 14.375 15.7188 14.0938 15.4062C13.9062 15.2188 13.5625 15.2188 13.375 15.4062Z" fill="black" fill-opacity="0.72"/>
</g>
<defs>
<clipPath id="clip0_1731_3227">
<rect width="20" height="24" fill="white"/>
</clipPath>
</defs>
</svg>
