<svg width="25" height="30" viewBox="0 0 25 30" fill="none" xmlns="http://www.w3.org/2000/svg">
<g id="label-paired / lg / deal-cancellation-lg / bold" clip-path="url(#clip0_1731_5496)">
<path id="icon" d="M3.16406 10.2656H7.10938C7.8125 10.2656 8.4375 10.3828 8.98438 10.6172C9.57031 10.8125 10.0391 11.1641 10.4688 11.5938C10.8594 12.0234 11.1719 12.5703 11.3672 13.2344C11.6016 13.8984 11.7188 14.6406 11.7188 15.5C11.7188 16.3984 11.6016 17.1406 11.3672 17.8047C11.1719 18.4688 10.8594 19.0156 10.4688 19.4453C10.0391 19.875 9.57031 20.1875 8.98438 20.4219C8.4375 20.6562 7.8125 20.7734 7.10938 20.7734H3.16406V10.2656ZM7.10938 18.7422C7.77344 18.7422 8.32031 18.5469 8.71094 18.1562C9.10156 17.7656 9.29688 17.1797 9.29688 16.3203V14.7188C9.29688 13.8594 9.10156 13.2734 8.71094 12.8828C8.32031 12.4922 7.77344 12.2969 7.10938 12.2969H5.42969V18.7422H7.10938ZM17.8516 20.9297C17.1484 20.9297 16.4844 20.8125 15.9375 20.6172C15.3516 20.3828 14.8828 20.0312 14.4922 19.6016C14.0625 19.1328 13.75 18.5859 13.5547 17.9219C13.3203 17.2578 13.2031 16.4766 13.2031 15.5781C13.2031 14.7188 13.3203 13.9375 13.5547 13.2734C13.75 12.5703 14.0625 11.9844 14.4922 11.5156C14.8828 11.0469 15.3516 10.6953 15.9375 10.4609C16.4844 10.2266 17.1484 10.1094 17.8516 10.1094C18.8281 10.1094 19.6094 10.3047 20.2344 10.6953C20.8984 11.0859 21.4062 11.7109 21.7578 12.5703L19.8047 13.5859C19.6484 13.1562 19.4531 12.8047 19.1406 12.5312C18.8672 12.2578 18.4375 12.1406 17.8516 12.1406C17.1875 12.1406 16.6406 12.3359 16.25 12.8047C15.8203 13.2344 15.625 13.8594 15.625 14.6797V16.3594C15.625 17.1797 15.8203 17.8047 16.25 18.2734C16.6406 18.7031 17.1875 18.8984 17.8516 18.8984C18.3984 18.8984 18.8672 18.7422 19.1797 18.4688C19.5312 18.1562 19.7656 17.7656 19.9219 17.3359L21.7969 18.4297C21.4062 19.2109 20.8984 19.8359 20.2344 20.3047C19.6094 20.7344 18.8281 20.9297 17.8516 20.9297Z" fill="black" fill-opacity="0.72"/>
</g>
<defs>
<clipPath id="clip0_1731_5496">
<rect width="25" height="30" fill="white"/>
</clipPath>
</defs>
</svg>
