<svg width="23" height="30" viewBox="0 0 23 30" fill="none" xmlns="http://www.w3.org/2000/svg">
<g id="label-paired / lg / presentation-screen-lg / regular" clip-path="url(#clip0_1731_4796)">
<path id="icon" d="M0.875 5.5H22.125C22.5156 5.52604 22.724 5.73438 22.75 6.125C22.724 6.51562 22.5156 6.72396 22.125 6.75H0.875C0.484375 6.72396 0.276042 6.51562 0.25 6.125C0.276042 5.73438 0.484375 5.52604 0.875 5.5ZM1.5 8H2.75V16.75C2.75 17.1146 2.86719 17.4141 3.10156 17.6484C3.33594 17.8828 3.63542 18 4 18H11.5H19C19.3646 18 19.6641 17.8828 19.8984 17.6484C20.1328 17.4141 20.25 17.1146 20.25 16.75V8H21.5V16.75C21.474 17.4531 21.2266 18.0391 20.7578 18.5078C20.2891 18.9766 19.7031 19.224 19 19.25H12.125V20.8516L15.6797 24.4453C15.9401 24.7318 15.9401 25.0182 15.6797 25.3047C15.3932 25.5651 15.1068 25.5651 14.8203 25.3047L11.5 22.0234L8.17969 25.3047C7.89323 25.5651 7.60677 25.5651 7.32031 25.3047C7.0599 25.0182 7.0599 24.7318 7.32031 24.4453L10.875 20.8516V19.25H4C3.29688 19.224 2.71094 18.9766 2.24219 18.5078C1.77344 18.0391 1.52604 17.4531 1.5 16.75V8Z" fill="black" fill-opacity="0.72"/>
</g>
<defs>
<clipPath id="clip0_1731_4796">
<rect width="23" height="30" fill="white"/>
</clipPath>
</defs>
</svg>
