<svg width="18" height="30" viewBox="0 0 18 30" fill="none" xmlns="http://www.w3.org/2000/svg">
<g id="label-paired / lg / arrow-right-arrow-left-lg / bold" clip-path="url(#clip0_1731_4464)">
<path id="icon" d="M4.27344 24.9141L0.523438 21.1641C0.158854 20.7214 0.158854 20.2786 0.523438 19.8359L4.27344 16.0859C4.71615 15.7214 5.15885 15.7214 5.60156 16.0859C5.96615 16.5286 5.96615 16.9714 5.60156 17.4141L3.45312 19.5625H16.8125C17.3854 19.6146 17.6979 19.9271 17.75 20.5C17.6979 21.0729 17.3854 21.3854 16.8125 21.4375H3.45312L5.60156 23.5859C5.96615 24.0286 5.96615 24.4714 5.60156 24.9141C5.15885 25.2786 4.71615 25.2786 4.27344 24.9141ZM17.4766 11.1641L13.7266 14.9141C13.2839 15.2786 12.8411 15.2786 12.3984 14.9141C12.0339 14.4714 12.0339 14.0286 12.3984 13.5859L14.5469 11.4375H1.1875C0.614583 11.3854 0.302083 11.0729 0.25 10.5C0.302083 9.92708 0.614583 9.61458 1.1875 9.5625H14.5469L12.3984 7.41406C12.0339 6.97135 12.0339 6.52865 12.3984 6.08594C12.8411 5.72135 13.2839 5.72135 13.7266 6.08594L17.4766 9.83594C17.8411 10.2786 17.8411 10.7214 17.4766 11.1641Z" fill="black" fill-opacity="0.72"/>
</g>
<defs>
<clipPath id="clip0_1731_4464">
<rect width="18" height="30" fill="white"/>
</clipPath>
</defs>
</svg>
