<svg width="25" height="30" viewBox="0 0 25 30" fill="none" xmlns="http://www.w3.org/2000/svg">
<g id="label-paired / lg / person-chalkboard-lg / regular" clip-path="url(#clip0_1731_4791)">
<path id="icon" d="M6.5625 7.6875C6.61458 8.26042 6.92708 8.57292 7.5 8.625C8.07292 8.57292 8.38542 8.26042 8.4375 7.6875C8.38542 7.11458 8.07292 6.80208 7.5 6.75C6.92708 6.80208 6.61458 7.11458 6.5625 7.6875ZM9.6875 7.6875C9.66146 8.52083 9.29688 9.14583 8.59375 9.5625C7.86458 9.97917 7.13542 9.97917 6.40625 9.5625C5.70312 9.14583 5.33854 8.52083 5.3125 7.6875C5.33854 6.85417 5.70312 6.22917 6.40625 5.8125C7.13542 5.39583 7.86458 5.39583 8.59375 5.8125C9.29688 6.22917 9.66146 6.85417 9.6875 7.6875ZM6.99219 11.75C6.73177 11.75 6.48438 11.8021 6.25 11.9062V18H8.75V11.75H6.99219ZM6.25 24.875C6.22396 25.2656 6.01562 25.474 5.625 25.5C5.23438 25.474 5.02604 25.2656 5 24.875V13.3906L3.04688 17.0625C2.83854 17.375 2.5651 17.4531 2.22656 17.2969C1.88802 17.0885 1.79688 16.8151 1.95312 16.4766L4.25781 12.1406C4.85677 11.099 5.76823 10.5521 6.99219 10.5H9.49219H12.5V7.375C12.526 6.85417 12.7083 6.41146 13.0469 6.04688C13.4115 5.70833 13.8542 5.52604 14.375 5.5H23.125C23.6458 5.52604 24.0885 5.70833 24.4531 6.04688C24.7917 6.41146 24.974 6.85417 25 7.375V16.125C24.974 16.6458 24.7917 17.0885 24.4531 17.4531C24.0885 17.7917 23.6458 17.974 23.125 18H14.375C13.8542 17.974 13.4115 17.7917 13.0469 17.4531C12.7083 17.0885 12.526 16.6458 12.5 16.125V13H13.75V16.125C13.776 16.5156 13.9844 16.724 14.375 16.75H23.125C23.5156 16.724 23.724 16.5156 23.75 16.125V7.375C23.724 6.98438 23.5156 6.77604 23.125 6.75H14.375C13.9844 6.77604 13.776 6.98438 13.75 7.375V10.5H15.625C16.0156 10.526 16.224 10.7344 16.25 11.125C16.224 11.5156 16.0156 11.724 15.625 11.75H10V24.875C9.97396 25.2656 9.76562 25.474 9.375 25.5C8.98438 25.474 8.77604 25.2656 8.75 24.875V19.25H6.25V24.875Z" fill="black" fill-opacity="0.72"/>
</g>
<defs>
<clipPath id="clip0_1731_4791">
<rect width="25" height="30" fill="white"/>
</clipPath>
</defs>
</svg>
