<svg width="14" height="22" viewBox="0 0 14 22" fill="none" xmlns="http://www.w3.org/2000/svg">
<g id="label-paired / sm / telegram-sm" clip-path="url(#clip0_1731_13886)">
<path id="icon" d="M7 3.96875C8.25781 3.98698 9.39714 4.29688 10.418 4.89844C11.4388 5.5 12.25 6.3112 12.8516 7.33203C13.4531 8.35286 13.763 9.49219 13.7812 10.75C13.763 12.0078 13.4531 13.1471 12.8516 14.168C12.25 15.1888 11.4388 16 10.418 16.6016C9.39714 17.2031 8.25781 17.513 7 17.5312C5.74219 17.513 4.60286 17.2031 3.58203 16.6016C2.5612 16 1.75 15.1888 1.14844 14.168C0.546875 13.1471 0.236979 12.0078 0.21875 10.75C0.236979 9.49219 0.546875 8.35286 1.14844 7.33203C1.75 6.3112 2.5612 5.5 3.58203 4.89844C4.60286 4.29688 5.74219 3.98698 7 3.96875ZM10.1445 8.58984C10.1445 8.4987 10.1445 8.40755 10.1445 8.31641C10.1263 8.24349 10.0898 8.17969 10.0352 8.125C9.94401 8.07031 9.85286 8.04297 9.76172 8.04297C9.67057 8.04297 9.45182 8.10677 9.10547 8.23438C8.77734 8.34375 8.15755 8.58984 7.24609 8.97266C6.58984 9.24609 5.26823 9.8112 3.28125 10.668C2.97135 10.7956 2.80729 10.9232 2.78906 11.0508C2.78906 11.2331 2.98047 11.3698 3.36328 11.4609C3.41797 11.4609 3.47266 11.4701 3.52734 11.4883C3.69141 11.5612 3.8737 11.6159 4.07422 11.6523C4.27474 11.707 4.4388 11.7344 4.56641 11.7344C4.78516 11.7526 5.03125 11.6706 5.30469 11.4883C7.14583 10.2305 8.10286 9.59245 8.17578 9.57422C8.21224 9.55599 8.25781 9.5651 8.3125 9.60156C8.34896 9.65625 8.35807 9.69271 8.33984 9.71094C8.30339 9.80208 8.10286 10.0117 7.73828 10.3398C7.39193 10.6862 7.07292 10.9961 6.78125 11.2695C6.59896 11.4154 6.4987 11.5065 6.48047 11.543C6.42578 11.5977 6.37109 11.6523 6.31641 11.707C6.13411 11.8529 6.02474 11.9987 5.98828 12.1445C5.93359 12.2721 6.04297 12.4362 6.31641 12.6367C6.58984 12.8008 6.83594 12.9557 7.05469 13.1016C7.27344 13.2656 7.53776 13.4479 7.84766 13.6484C7.92057 13.7031 7.99349 13.7578 8.06641 13.8125C8.33984 14.0312 8.6224 14.1406 8.91406 14.1406C9.11458 14.1589 9.26953 13.931 9.37891 13.457C9.45182 13.0378 9.54297 12.5182 9.65234 11.8984C9.76172 11.2786 9.86198 10.668 9.95312 10.0664C10.0443 9.44661 10.1081 8.95443 10.1445 8.58984Z" fill="black" fill-opacity="0.72"/>
</g>
<defs>
<clipPath id="clip0_1731_13886">
<rect width="14" height="22" fill="white"/>
</clipPath>
</defs>
</svg>
