<svg width="15" height="18" viewBox="0 0 15 18" fill="none" xmlns="http://www.w3.org/2000/svg">
<g id="label-paired / caption / light-user-tie-circle-dollar-caption / regular" clip-path="url(#clip0_1731_1763)">
<path id="icon" d="M0 14.7969C0 12.9453 1.3125 11.3984 3.07031 11.0703C3.23438 11.0469 3.39844 11.1406 3.44531 11.2812C3.70312 11.8203 3.96094 12.3594 4.21875 12.8984C4.38281 12.4062 4.54688 11.8906 4.71094 11.375C4.64062 11.375 4.57031 11.375 4.47656 11.375C4.28906 11.375 4.10156 11.2109 4.10156 11C4.10156 10.8125 4.28906 10.625 4.47656 10.625C4.73438 10.625 4.99219 10.625 5.22656 10.625C5.48438 10.625 5.74219 10.625 5.97656 10.625C6.1875 10.625 6.35156 10.8125 6.35156 11C6.35156 11.2109 6.1875 11.375 5.97656 11.375C5.90625 11.375 5.83594 11.375 5.76562 11.375C5.92969 11.8906 6.09375 12.4062 6.25781 12.8984C6.51562 12.3594 6.77344 11.8203 7.00781 11.2812C7.07812 11.1406 7.24219 11.0469 7.40625 11.0703C7.47656 11.0938 7.54688 11.0938 7.61719 11.1172C7.54688 11.4219 7.5 11.7266 7.5 12.0547C7.07812 12.9453 6.67969 13.8125 6.25781 14.7031C6.25781 14.7266 6.23438 14.75 6.23438 14.75C6.96094 14.75 7.71094 14.75 8.4375 14.75C8.67188 15.0547 8.92969 15.2891 9.23438 15.5C6.39844 15.5 3.5625 15.5 0.703125 15.5C0.304688 15.5 0 15.1953 0 14.7969ZM0.75 14.75C1.89844 14.75 3.07031 14.75 4.24219 14.75C4.24219 14.75 4.21875 14.7266 4.21875 14.7031C3.77344 13.7656 3.35156 12.8281 2.90625 11.8906C1.66406 12.2422 0.75 13.3906 0.75 14.75ZM2.25 6.5C2.25 5.44531 2.8125 4.4375 3.75 3.92188C4.66406 3.38281 5.8125 3.38281 6.75 3.92188C7.66406 4.4375 8.25 5.44531 8.25 6.5C8.25 7.57812 7.66406 8.5625 6.75 9.10156C5.8125 9.64062 4.66406 9.64062 3.75 9.10156C2.8125 8.5625 2.25 7.57812 2.25 6.5ZM3.28125 5.375C2.88281 6.07812 2.88281 6.94531 3.28125 7.625C3.70312 8.32812 4.42969 8.75 5.25 8.75C6.04688 8.75 6.79688 8.32812 7.19531 7.625C7.59375 6.94531 7.59375 6.07812 7.19531 5.375C6.79688 4.69531 6.04688 4.25 5.25 4.25C4.42969 4.25 3.70312 4.69531 3.28125 5.375ZM4.66406 13.9062C4.75781 14.0703 4.82812 14.2344 4.89844 14.3984C5.03906 14.6797 5.4375 14.6797 5.57812 14.3984C5.64844 14.2344 5.74219 14.0703 5.8125 13.9062C5.625 13.3438 5.4375 12.7578 5.25 12.1953L4.66406 13.9062ZM8.25 12.125C8.25 10.2734 9.75 8.75 11.625 8.75C13.4766 8.75 15 10.2734 15 12.125C15 14 13.4766 15.5 11.625 15.5C9.75 15.5 8.25 14 8.25 12.125ZM9 12.125C9 13.5781 10.1719 14.75 11.625 14.75C13.0547 14.75 14.25 13.5781 14.25 12.125C14.25 10.6953 13.0547 9.5 11.625 9.5C10.1719 9.5 9 10.6953 9 12.125ZM10.3125 11.4922C10.2891 11.0469 10.5469 10.7656 10.8281 10.625C10.9453 10.5547 11.0859 10.5078 11.25 10.4844C11.25 10.4141 11.25 10.3203 11.25 10.25C11.25 10.0391 11.4141 9.875 11.625 9.875C11.8125 9.875 12 10.0391 12 10.25C12 10.3203 12 10.4141 12 10.4844C12.1406 10.5078 12.2812 10.5312 12.3984 10.5547C12.6094 10.6016 12.7266 10.8125 12.6797 11.0234C12.6328 11.2109 12.4219 11.3516 12.2344 11.2812C12 11.2344 11.8125 11.1875 11.6016 11.1875C11.4609 11.1875 11.2969 11.2344 11.1797 11.2812C11.1094 11.3281 11.0859 11.3516 11.0625 11.375C11.0625 11.375 11.0625 11.3984 11.0625 11.4453C11.0625 11.4688 11.0625 11.4922 11.1562 11.5625C11.2969 11.6328 11.4844 11.6797 11.7188 11.75C11.7188 11.75 11.7188 11.75 11.7422 11.75C11.9531 11.8203 12.2344 11.8906 12.4453 12.0312C12.6797 12.1719 12.9141 12.4062 12.9375 12.7812C12.9375 13.2031 12.7031 13.4844 12.4219 13.6484C12.2812 13.7188 12.1406 13.7656 12 13.7891C12 13.8828 12 13.9531 12 14.0469C12 14.2578 11.8125 14.4219 11.625 14.4219C11.4141 14.4219 11.25 14.2578 11.25 14.0469C11.25 13.9531 11.25 13.8594 11.25 13.7656C11.0391 13.7422 10.8516 13.6719 10.6875 13.625C10.6406 13.6016 10.5938 13.6016 10.5703 13.5781C10.3594 13.5312 10.2656 13.3203 10.3125 13.1094C10.3828 12.9219 10.5938 12.8047 10.7812 12.875C10.8281 12.875 10.875 12.8984 10.9219 12.8984C11.2031 12.9922 11.4141 13.0625 11.625 13.0625C11.7891 13.0625 11.9531 13.0391 12.0703 12.9922C12.1172 12.9453 12.1406 12.9219 12.1641 12.8984C12.1641 12.8984 12.1875 12.8516 12.1875 12.8047C12.1875 12.7578 12.1641 12.7344 12.0703 12.6641C11.9531 12.5938 11.7656 12.5469 11.5312 12.4766C11.5078 12.4766 11.4844 12.4766 11.4844 12.4531C11.2734 12.4062 11.0156 12.3359 10.8047 12.2188C10.5703 12.1016 10.3359 11.8672 10.3125 11.4922Z" fill="black" fill-opacity="0.72"/>
</g>
<defs>
<clipPath id="clip0_1731_1763">
<rect width="15" height="18" fill="white"/>
</clipPath>
</defs>
</svg>
