<svg width="15" height="18" viewBox="0 0 15 18" fill="none" xmlns="http://www.w3.org/2000/svg">
<g id="label-paired / caption / box-archive-circle-arrow-down-caption / bold" clip-path="url(#clip0_1731_711)">
<path id="icon" d="M0 5C0 4.60156 0.328125 4.25 0.75 4.25C4.24219 4.25 7.73438 4.25 11.25 4.25C11.6484 4.25 12 4.60156 12 5C12 5.63281 12 6.26562 12 6.875C12 7.29688 11.6484 7.625 11.25 7.625C7.73438 7.625 4.24219 7.625 0.75 7.625C0.328125 7.625 0 7.29688 0 6.875C0 6.26562 0 5.63281 0 5ZM0.75 8.375H1.875C1.875 10.0156 1.875 11.6328 1.875 13.25C1.875 13.4609 2.03906 13.625 2.25 13.625C4.07812 13.625 5.92969 13.625 7.78125 13.625C7.92188 14.0469 8.15625 14.4219 8.4375 14.75C6.375 14.75 4.3125 14.75 2.25 14.75C1.40625 14.75 0.75 14.0938 0.75 13.25C0.75 11.6328 0.75 10.0156 0.75 8.375ZM1.125 5.375C1.125 5.75 1.125 6.125 1.125 6.5C4.35938 6.5 7.61719 6.5 10.875 6.5C10.875 6.125 10.875 5.75 10.875 5.375H1.125ZM3.75 9.3125C3.75 9.00781 3.98438 8.75 4.3125 8.75C5.4375 8.75 6.5625 8.75 7.6875 8.75C7.99219 8.75 8.25 9.00781 8.25 9.3125C8.25 9.64062 7.99219 9.875 7.6875 9.875C6.5625 9.875 5.4375 9.875 4.3125 9.875C3.98438 9.875 3.75 9.64062 3.75 9.3125ZM8.25 12.125C8.25 10.9297 8.88281 9.80469 9.9375 9.21875C10.9688 8.60938 12.2578 8.60938 13.3125 9.21875C14.3438 9.80469 15 10.9297 15 12.125C15 13.3438 14.3438 14.4453 13.3125 15.0547C12.2578 15.6641 10.9688 15.6641 9.9375 15.0547C8.88281 14.4453 8.25 13.3438 8.25 12.125ZM10.0312 12.0547C9.89062 12.1953 9.89062 12.4531 10.0312 12.5938C10.4766 13.0156 10.9219 13.4609 11.3438 13.9062C11.4844 14.0469 11.7422 14.0469 11.8828 13.9062C12.3281 13.4609 12.75 13.0156 13.1953 12.5938C13.3359 12.4531 13.3359 12.1953 13.1953 12.0547C13.0547 11.9141 12.7969 11.9141 12.6562 12.0547C12.4453 12.2891 12.2109 12.5 12 12.7344C12 12.0312 12 11.3281 12 10.625C12 10.4375 11.8125 10.25 11.625 10.25C11.4141 10.25 11.25 10.4375 11.25 10.625C11.25 11.3281 11.25 12.0312 11.25 12.7344C11.0156 12.5 10.7812 12.2891 10.5703 12.0547C10.4297 11.9141 10.1719 11.9141 10.0312 12.0547Z" fill="black" fill-opacity="0.72"/>
</g>
<defs>
<clipPath id="clip0_1731_711">
<rect width="15" height="18" fill="white"/>
</clipPath>
</defs>
</svg>
