<svg width="16" height="24" viewBox="0 0 16 24" fill="none" xmlns="http://www.w3.org/2000/svg">
<g id="label-paired / md / circle-envelope-md / regular" clip-path="url(#clip0_1731_3819)">
<path id="icon" d="M15 12C14.9792 10.7292 14.6667 9.5625 14.0625 8.5C13.4375 7.4375 12.5833 6.58333 11.5 5.9375C10.3958 5.3125 9.22917 5 8 5C6.77083 5 5.60417 5.3125 4.5 5.9375C3.41667 6.58333 2.5625 7.4375 1.9375 8.5C1.33333 9.5625 1.02083 10.7292 1 12C1.02083 13.2708 1.33333 14.4375 1.9375 15.5C2.5625 16.5625 3.41667 17.4167 4.5 18.0625C5.60417 18.6875 6.77083 19 8 19C9.22917 19 10.3958 18.6875 11.5 18.0625C12.5833 17.4167 13.4375 16.5625 14.0625 15.5C14.6667 14.4375 14.9792 13.2708 15 12ZM0 12C0.0208333 10.5417 0.375 9.20833 1.0625 8C1.77083 6.79167 2.75 5.8125 4 5.0625C5.27083 4.35417 6.60417 4 8 4C9.39583 4 10.7292 4.35417 12 5.0625C13.25 5.8125 14.2292 6.79167 14.9375 8C15.625 9.20833 15.9792 10.5417 16 12C15.9792 13.4583 15.625 14.7917 14.9375 16C14.2292 17.2083 13.25 18.1875 12 18.9375C10.7292 19.6458 9.39583 20 8 20C6.60417 20 5.27083 19.6458 4 18.9375C2.75 18.1875 1.77083 17.2083 1.0625 16C0.375 14.7917 0.0208333 13.4583 0 12ZM5 9H11C11.2917 9 11.5312 9.09375 11.7188 9.28125C11.9062 9.46875 12 9.70833 12 10V14C12 14.2917 11.9062 14.5312 11.7188 14.7188C11.5312 14.9062 11.2917 15 11 15H5C4.70833 15 4.46875 14.9062 4.28125 14.7188C4.09375 14.5312 4 14.2917 4 14V10C4 9.70833 4.09375 9.46875 4.28125 9.28125C4.46875 9.09375 4.70833 9 5 9ZM11 10.5312V10H5V10.5312L7.78125 12C7.84375 12.0208 7.91667 12.0417 8 12.0625C8.08333 12.0625 8.16667 12.0417 8.25 12L11 10.5312ZM11 11.6562L8.71875 12.875C8.48958 12.9792 8.25 13.0312 8 13.0312C7.75 13.0312 7.51042 12.9792 7.28125 12.875L5 11.6562V14H11V11.6562Z" fill="black" fill-opacity="0.72"/>
</g>
<defs>
<clipPath id="clip0_1731_3819">
<rect width="16" height="24" fill="white"/>
</clipPath>
</defs>
</svg>
