<svg width="9" height="22" viewBox="0 0 9 22" fill="none" xmlns="http://www.w3.org/2000/svg">
<g id="label-paired / sm / three-sm / regular" clip-path="url(#clip0_1731_2263)">
<path id="icon" d="M0.125 5.0625C0.143229 4.78906 0.289062 4.64323 0.5625 4.625H8C8.20052 4.625 8.33724 4.71615 8.41016 4.89844C8.46484 5.08073 8.42839 5.24479 8.30078 5.39062L3.43359 9.875H5.375C6.35938 9.89323 7.1888 10.2305 7.86328 10.8867C8.51953 11.5612 8.85677 12.3906 8.875 13.375C8.85677 14.3594 8.51953 15.1888 7.86328 15.8633C7.1888 16.5195 6.35938 16.8568 5.375 16.875H2.55859C2.06641 16.875 1.61068 16.7474 1.19141 16.4922C0.772135 16.237 0.453125 15.8815 0.234375 15.4258L0.179688 15.3164C0.0703125 15.0612 0.134115 14.8698 0.371094 14.7422C0.608073 14.6328 0.799479 14.6966 0.945312 14.9336L1 15.043C1.34635 15.6628 1.86589 15.9818 2.55859 16H5.375C6.1224 15.9818 6.74219 15.7266 7.23438 15.2344C7.72656 14.7422 7.98177 14.1224 8 13.375C7.98177 12.6276 7.72656 12.0078 7.23438 11.5156C6.74219 11.0234 6.1224 10.7682 5.375 10.75H2.3125C2.11198 10.75 1.97526 10.6589 1.90234 10.4766C1.84766 10.2943 1.88411 10.1302 2.01172 9.98438L6.87891 5.5H0.5625C0.289062 5.48177 0.143229 5.33594 0.125 5.0625Z" fill="black" fill-opacity="0.72"/>
</g>
<defs>
<clipPath id="clip0_1731_2263">
<rect width="9" height="22" fill="white"/>
</clipPath>
</defs>
</svg>
