<svg width="14" height="22" viewBox="0 0 14 22" fill="none" xmlns="http://www.w3.org/2000/svg">
<g id="label-paired / sm / circle-dollar-sm / bold" clip-path="url(#clip0_1731_2957)">
<path id="icon" d="M12.6875 10.75C12.6875 9.71094 12.4323 8.76302 11.9219 7.90625C11.4297 7.04948 10.737 6.35677 9.84375 5.82812C8.95052 5.31771 8.0026 5.0625 7 5.0625C5.9974 5.0625 5.04948 5.31771 4.15625 5.82812C3.26302 6.35677 2.57031 7.04948 2.07812 7.90625C1.56771 8.76302 1.3125 9.71094 1.3125 10.75C1.3125 11.7891 1.56771 12.737 2.07812 13.5938C2.57031 14.4505 3.26302 15.1432 4.15625 15.6719C5.04948 16.1823 5.9974 16.4375 7 16.4375C8.0026 16.4375 8.95052 16.1823 9.84375 15.6719C10.737 15.1432 11.4297 14.4505 11.9219 13.5938C12.4323 12.737 12.6875 11.7891 12.6875 10.75ZM0 10.75C0.0182292 9.47396 0.328125 8.30729 0.929688 7.25C1.54948 6.19271 2.40625 5.33594 3.5 4.67969C4.61198 4.0599 5.77865 3.75 7 3.75C8.22135 3.75 9.38802 4.0599 10.5 4.67969C11.5938 5.33594 12.4505 6.19271 13.0703 7.25C13.6719 8.30729 13.9818 9.47396 14 10.75C13.9818 12.026 13.6719 13.1927 13.0703 14.25C12.4505 15.3073 11.5938 16.1641 10.5 16.8203C9.38802 17.4401 8.22135 17.75 7 17.75C5.77865 17.75 4.61198 17.4401 3.5 16.8203C2.40625 16.1641 1.54948 15.3073 0.929688 14.25C0.328125 13.1927 0.0182292 12.026 0 10.75ZM7.57422 7.41406V7.79688C7.82943 7.83333 8.09375 7.88802 8.36719 7.96094C8.42188 7.97917 8.46745 7.9974 8.50391 8.01562C8.85026 8.14323 8.99609 8.38932 8.94141 8.75391C8.79557 9.08203 8.54948 9.21875 8.20312 9.16406C8.1849 9.14583 8.16667 9.13672 8.14844 9.13672C8.11198 9.13672 8.08464 9.1276 8.06641 9.10938C7.88411 9.05469 7.69271 9.00911 7.49219 8.97266C7.10938 8.89974 6.73568 8.9362 6.37109 9.08203C6.20703 9.15495 6.09766 9.25521 6.04297 9.38281C5.97005 9.51042 6.01562 9.63802 6.17969 9.76562C6.45312 9.91146 6.74479 10.0208 7.05469 10.0938C7.07292 10.0938 7.08203 10.0938 7.08203 10.0938C7.11849 10.112 7.15495 10.1211 7.19141 10.1211C7.20964 10.1393 7.23698 10.1484 7.27344 10.1484C7.7474 10.2578 8.20312 10.4401 8.64062 10.6953C9.1875 11.0964 9.40625 11.625 9.29688 12.2812C9.15104 12.901 8.80469 13.3112 8.25781 13.5117C8.03906 13.6029 7.8112 13.6576 7.57422 13.6758V14.1133C7.53776 14.4596 7.33724 14.651 6.97266 14.6875C6.6263 14.651 6.4349 14.4596 6.39844 14.1133V13.6211C5.9974 13.5299 5.60547 13.4206 5.22266 13.293C4.89453 13.1471 4.76693 12.8919 4.83984 12.5273C4.98568 12.1992 5.23177 12.0807 5.57812 12.1719C5.61458 12.1719 5.65104 12.181 5.6875 12.1992C5.72396 12.1992 5.76042 12.2083 5.79688 12.2266C6.10677 12.3359 6.41667 12.4271 6.72656 12.5C7.20052 12.5547 7.5651 12.5273 7.82031 12.418C7.98438 12.3451 8.09375 12.2357 8.14844 12.0898C8.1849 11.9258 8.13021 11.7891 7.98438 11.6797C7.69271 11.4974 7.3737 11.3789 7.02734 11.3242C6.97266 11.306 6.91797 11.2878 6.86328 11.2695C6.84505 11.2513 6.83594 11.2422 6.83594 11.2422C6.38021 11.151 5.94271 10.987 5.52344 10.75C4.97656 10.3854 4.7487 9.875 4.83984 9.21875C5.00391 8.61719 5.35938 8.20703 5.90625 7.98828C6.05208 7.93359 6.21615 7.88802 6.39844 7.85156V7.41406C6.4349 7.04948 6.6263 6.84896 6.97266 6.8125C7.33724 6.84896 7.53776 7.04948 7.57422 7.41406Z" fill="black" fill-opacity="0.72"/>
</g>
<defs>
<clipPath id="clip0_1731_2957">
<rect width="14" height="22" fill="white"/>
</clipPath>
</defs>
</svg>
