<svg width="18" height="22" viewBox="0 0 18 22" fill="none" xmlns="http://www.w3.org/2000/svg">
<g id="label-paired / sm / stop-loss-sm / bold" clip-path="url(#clip0_1731_2029)">
<path id="icon" d="M6.10156 14.5508C5.44531 14.5508 4.89844 14.4414 4.46094 14.2227C3.99609 14.0039 3.64062 13.7031 3.3125 13.375L4.35156 12.3086C4.87109 12.8555 5.47266 13.1562 6.21094 13.1562C6.59375 13.1562 6.89453 13.0742 7.05859 12.9102C7.25 12.7461 7.35938 12.5273 7.35938 12.2539C7.35938 12.0625 7.30469 11.8984 7.19531 11.7617C7.08594 11.625 6.83984 11.5156 6.51172 11.4883L5.77344 11.3789C5.00781 11.2695 4.43359 11.0508 4.07812 10.668C3.72266 10.3125 3.53125 9.82031 3.53125 9.19141C3.53125 8.86328 3.58594 8.5625 3.72266 8.28906C3.85938 8.01562 4.02344 7.79688 4.26953 7.60547C4.48828 7.38672 4.78906 7.25 5.11719 7.14062C5.47266 7.03125 5.85547 6.97656 6.29297 6.97656C6.83984 6.97656 7.33203 7.05859 7.74219 7.25C8.15234 7.41406 8.53516 7.66016 8.83594 8.01562L7.76953 9.08203C7.57812 8.86328 7.38672 8.69922 7.11328 8.58984C6.86719 8.45312 6.56641 8.37109 6.18359 8.37109C5.82812 8.37109 5.55469 8.45312 5.39062 8.5625C5.22656 8.69922 5.11719 8.86328 5.11719 9.10938C5.11719 9.35547 5.19922 9.51953 5.33594 9.65625C5.47266 9.76562 5.69141 9.84766 5.99219 9.875L6.73047 10.0117C7.46875 10.1211 8.04297 10.3398 8.39844 10.6953C8.78125 11.0508 8.94531 11.543 8.94531 12.1719C8.94531 12.5273 8.89062 12.8555 8.75391 13.1289C8.64453 13.4297 8.45312 13.6758 8.20703 13.8945C7.96094 14.1133 7.66016 14.2773 7.30469 14.3867C6.94922 14.4961 6.53906 14.5508 6.10156 14.5508ZM10.2852 14.4141V7.08594H11.8711V13.0195H14.6602V14.4141H10.2852Z" fill="black" fill-opacity="0.72"/>
</g>
<defs>
<clipPath id="clip0_1731_2029">
<rect width="18" height="22" fill="white"/>
</clipPath>
</defs>
</svg>
