<svg width="21" height="36" viewBox="0 0 21 36" fill="none" xmlns="http://www.w3.org/2000/svg">
<g id="label-paired / xl / arrow-right-arrow-left-xl / regular" clip-path="url(#clip0_1731_6021)">
<path id="icon" d="M20.7656 12.5156L16.2656 17.0156C15.9219 17.3281 15.5781 17.3281 15.2344 17.0156C14.9219 16.6719 14.9219 16.3281 15.2344 15.9844L18.4219 12.75H0.75C0.28125 12.7188 0.03125 12.4688 0 12C0.03125 11.5312 0.28125 11.2812 0.75 11.25H18.4219L15.2344 8.01562C14.9219 7.67188 14.9219 7.32812 15.2344 6.98438C15.5781 6.67187 15.9219 6.67187 16.2656 6.98438L20.7656 11.4844C21.0781 11.8281 21.0781 12.1719 20.7656 12.5156ZM4.73438 29.0156L0.234375 24.5156C-0.078125 24.1719 -0.078125 23.8281 0.234375 23.4844L4.73438 18.9844C5.07812 18.6719 5.42188 18.6719 5.76562 18.9844C6.07812 19.3281 6.07812 19.6719 5.76562 20.0156L2.57812 23.25H20.25C20.7188 23.2812 20.9688 23.5312 21 24C20.9688 24.4688 20.7188 24.7188 20.25 24.75H2.57812L5.76562 27.9844C6.07812 28.3281 6.07812 28.6719 5.76562 29.0156C5.42188 29.3281 5.07812 29.3281 4.73438 29.0156Z" fill="black" fill-opacity="0.72"/>
</g>
<defs>
<clipPath id="clip0_1731_6021">
<rect width="21" height="36" fill="white"/>
</clipPath>
</defs>
</svg>
