<svg width="21" height="36" viewBox="0 0 21 36" fill="none" xmlns="http://www.w3.org/2000/svg">
<g id="label-paired / xl / stopwatch-xl / bold" clip-path="url(#clip0_1731_5733)">
<path id="icon" d="M6.75 7.125C6.8125 6.4375 7.1875 6.0625 7.875 6H13.125C13.8125 6.0625 14.1875 6.4375 14.25 7.125C14.1875 7.8125 13.8125 8.1875 13.125 8.25H11.625V10.5469C13.6875 10.8281 15.4688 11.625 16.9688 12.9375L18.3281 11.5781C18.8594 11.1406 19.3906 11.1406 19.9219 11.5781C20.3594 12.1094 20.3594 12.6406 19.9219 13.1719L18.4688 14.625C19.625 16.25 20.2188 18.125 20.25 20.25C20.1875 23 19.2344 25.2969 17.3906 27.1406C15.5469 28.9844 13.25 29.9375 10.5 30C7.75 29.9375 5.45312 28.9844 3.60938 27.1406C1.76563 25.2969 0.8125 23 0.75 20.25C0.8125 17.6875 1.64062 15.5156 3.23438 13.7344C4.85938 11.9531 6.90625 10.8906 9.375 10.5469V8.25H7.875C7.1875 8.1875 6.8125 7.8125 6.75 7.125ZM10.5 27.75C11.8438 27.75 13.0938 27.4219 14.25 26.7656C15.4062 26.0781 16.3281 25.1562 17.0156 24C17.6719 22.8125 18 21.5625 18 20.25C18 18.9375 17.6719 17.6875 17.0156 16.5C16.3281 15.3438 15.4062 14.4219 14.25 13.7344C13.0938 13.0781 11.8438 12.75 10.5 12.75C9.15625 12.75 7.90625 13.0781 6.75 13.7344C5.59375 14.4219 4.67188 15.3438 3.98438 16.5C3.32812 17.6875 3 18.9375 3 20.25C3 21.5625 3.32812 22.8125 3.98438 24C4.67188 25.1562 5.59375 26.0781 6.75 26.7656C7.90625 27.4219 9.15625 27.75 10.5 27.75ZM11.625 16.125V21C11.5625 21.6875 11.1875 22.0625 10.5 22.125C9.8125 22.0625 9.4375 21.6875 9.375 21V16.125C9.4375 15.4375 9.8125 15.0625 10.5 15C11.1875 15.0625 11.5625 15.4375 11.625 16.125Z" fill="black" fill-opacity="0.72"/>
</g>
<defs>
<clipPath id="clip0_1731_5733">
<rect width="21" height="36" fill="white"/>
</clipPath>
</defs>
</svg>
