<svg width="15" height="30" viewBox="0 0 15 30" fill="none" xmlns="http://www.w3.org/2000/svg">
<g id="label-paired / lg / bookmark-lg / bold" clip-path="url(#clip0_1731_5341)">
<path id="icon" d="M0 7.375C0.0260417 6.85417 0.208333 6.41146 0.546875 6.04688C0.911458 5.70833 1.35417 5.52604 1.875 5.5V7.375V22.7266L6.95312 19.1328C7.31771 18.8984 7.68229 18.8984 8.04688 19.1328L13.125 22.7266V7.375H1.875V5.5H13.125C13.6458 5.52604 14.0885 5.70833 14.4531 6.04688C14.7917 6.41146 14.974 6.85417 15 7.375V24.5625C15 24.9271 14.8307 25.2005 14.4922 25.3828C14.1536 25.5391 13.8281 25.526 13.5156 25.3438L7.5 21.0469L1.48438 25.3438C1.17188 25.526 0.846354 25.5391 0.507812 25.3828C0.195312 25.2005 0.0260417 24.9271 0 24.5625V7.375Z" fill="black" fill-opacity="0.72"/>
</g>
<defs>
<clipPath id="clip0_1731_5341">
<rect width="15" height="30" fill="white"/>
</clipPath>
</defs>
</svg>
