<svg width="18" height="24" viewBox="0 0 18 24" fill="none" xmlns="http://www.w3.org/2000/svg">
<g id="label-paired / md / video-md / regular" clip-path="url(#clip0_1731_4080)">
<path id="icon" d="M2 7C1.70833 7 1.46875 7.09375 1.28125 7.28125C1.09375 7.46875 1 7.70833 1 8V16C1 16.2917 1.09375 16.5312 1.28125 16.7188C1.46875 16.9062 1.70833 17 2 17H10C10.2917 17 10.5312 16.9062 10.7188 16.7188C10.9062 16.5312 11 16.2917 11 16V8C11 7.70833 10.9062 7.46875 10.7188 7.28125C10.5312 7.09375 10.2917 7 10 7H2ZM0 8C0.0208333 7.4375 0.21875 6.96875 0.59375 6.59375C0.96875 6.21875 1.4375 6.02083 2 6H10C10.5625 6.02083 11.0312 6.21875 11.4062 6.59375C11.7812 6.96875 11.9792 7.4375 12 8V9.46875V14.5312V16C11.9792 16.5625 11.7812 17.0312 11.4062 17.4062C11.0312 17.7812 10.5625 17.9792 10 18H2C1.4375 17.9792 0.96875 17.7812 0.59375 17.4062C0.21875 17.0312 0.0208333 16.5625 0 16V8ZM16.2188 16.8438L13 15.0625V13.9375L16.7188 15.9688C16.7396 15.9896 16.7708 16 16.8125 16C16.9167 16 16.9792 15.9375 17 15.8125V8.1875C16.9792 8.08333 16.9167 8.02083 16.8125 8C16.7708 8 16.7396 8.01042 16.7188 8.03125L13 10.0625V8.9375L16.2188 7.15625C16.4062 7.05208 16.6042 7 16.8125 7C17.1458 7 17.4271 7.11458 17.6562 7.34375C17.8854 7.57292 18 7.85417 18 8.1875V15.8125C18 16.1458 17.8854 16.4271 17.6562 16.6562C17.4271 16.8854 17.1458 17 16.8125 17C16.6042 17 16.4062 16.9479 16.2188 16.8438Z" fill="black" fill-opacity="0.72"/>
</g>
<defs>
<clipPath id="clip0_1731_4080">
<rect width="18" height="24" fill="white"/>
</clipPath>
</defs>
</svg>
