<svg width="18" height="36" viewBox="0 0 18 36" fill="none" xmlns="http://www.w3.org/2000/svg">
<g id="label-paired / xl / arrow-down-to-line-xl / bold" clip-path="url(#clip0_1731_5953)">
<path id="icon" d="M16.875 28.5H1.125C0.4375 28.4375 0.0625 28.0625 0 27.375C0.0625 26.6875 0.4375 26.3125 1.125 26.25H16.875C17.5625 26.3125 17.9375 26.6875 18 27.375C17.9375 28.0625 17.5625 28.4375 16.875 28.5ZM8.20312 22.125V22.1719L2.20312 15.7969C1.76562 15.2344 1.78125 14.7031 2.25 14.2031C2.78125 13.7656 3.3125 13.7812 3.84375 14.25L7.875 18.5625V14.625V8.625C7.9375 7.9375 8.3125 7.5625 9 7.5C9.6875 7.5625 10.0625 7.9375 10.125 8.625V14.625V18.5625L14.2031 14.25C14.7031 13.7812 15.2344 13.7656 15.7969 14.2031C16.2344 14.7031 16.25 15.2188 15.8438 15.75L9.84375 22.125C9.59375 22.375 9.3125 22.5 9 22.5C8.6875 22.5 8.42188 22.375 8.20312 22.125Z" fill="black" fill-opacity="0.72"/>
</g>
<defs>
<clipPath id="clip0_1731_5953">
<rect width="18" height="36" fill="white"/>
</clipPath>
</defs>
</svg>
