<svg width="23" height="30" viewBox="0 0 23 30" fill="none" xmlns="http://www.w3.org/2000/svg">
<g id="label-paired / lg / star-lg / regular" clip-path="url(#clip0_1731_5544)">
<path id="icon" d="M9.11719 12.1016C8.90885 12.4922 8.58333 12.7266 8.14062 12.8047L2.78906 13.5859L6.69531 17.4531C6.98177 17.7396 7.09896 18.1042 7.04688 18.5469L6.10938 23.9766L10.9141 21.4375C11.3047 21.2292 11.6953 21.2292 12.0859 21.4375L16.8906 23.9766L15.9531 18.5469C15.901 18.1042 16.0182 17.7396 16.3047 17.4531L20.2109 13.5859L14.8203 12.8047C14.4036 12.7266 14.0911 12.4922 13.8828 12.1016L11.5 7.14062L9.11719 12.1016ZM16.8516 25.3828L11.5 22.5312L6.14844 25.3828C5.8099 25.5651 5.48438 25.5391 5.17188 25.3047C4.85938 25.0703 4.72917 24.7708 4.78125 24.4062L5.79688 18.3125L1.46094 14.0156C1.20052 13.7552 1.1224 13.4427 1.22656 13.0781C1.35677 12.7135 1.61719 12.5052 2.00781 12.4531L7.98438 11.5547L10.6406 6.04688C10.8229 5.70833 11.1094 5.52604 11.5 5.5C11.8906 5.52604 12.1771 5.70833 12.3594 6.04688L15.0156 11.5547L20.9922 12.4141C21.3828 12.4922 21.6432 12.7135 21.7734 13.0781C21.8776 13.4427 21.7995 13.7552 21.5391 14.0156L17.2031 18.3125L18.2188 24.4062C18.2708 24.7708 18.1406 25.0703 17.8281 25.3047C17.5156 25.5391 17.1901 25.5651 16.8516 25.3828Z" fill="black" fill-opacity="0.72"/>
</g>
<defs>
<clipPath id="clip0_1731_5544">
<rect width="23" height="30" fill="white"/>
</clipPath>
</defs>
</svg>
