<svg width="20" height="30" viewBox="0 0 20 30" fill="none" xmlns="http://www.w3.org/2000/svg">
<g id="label-paired / lg / phone-lg / bold" clip-path="url(#clip0_1731_4778)">
<path id="icon" d="M14.6875 16.2422L19.0625 18.1172C19.401 18.2734 19.6615 18.5208 19.8438 18.8594C20 19.1719 20.0391 19.5234 19.9609 19.9141L19.0234 24.2891C18.8151 25.0443 18.3073 25.4479 17.5 25.5C17.2656 25.5 17.0312 25.5 16.7969 25.5C16.4062 25.474 16.0156 25.4479 15.625 25.4219C12.6562 25.0573 10 24.0807 7.65625 22.4922C5.3125 20.8776 3.46354 18.8203 2.10938 16.3203C0.729167 13.8203 0.0260417 11.0469 0 8C0.0520833 7.19271 0.46875 6.6849 1.25 6.47656L5.625 5.53906C5.98958 5.46094 6.32812 5.51302 6.64062 5.69531C6.97917 5.85156 7.22656 6.09896 7.38281 6.4375L9.25781 10.8125C9.51823 11.5156 9.36198 12.1276 8.78906 12.6484L7.22656 13.9375C8.29427 15.7604 9.73958 17.2057 11.5625 18.2734L12.8516 16.7109C13.3724 16.138 13.9844 15.9818 14.6875 16.2422ZM17.2656 23.625L18.0859 19.7578L14.1797 18.0781L13.0078 19.4844C12.6953 19.8229 12.3307 20.0312 11.9141 20.1094C11.4714 20.2135 11.0417 20.1484 10.625 19.9141C8.51562 18.6641 6.83594 16.9844 5.58594 14.875C5.3776 14.4583 5.3125 14.0417 5.39062 13.625C5.46875 13.1823 5.67708 12.8047 6.01562 12.4922L7.42188 11.3594L5.74219 7.41406L1.875 8.27344C1.95312 11.112 2.68229 13.6771 4.0625 15.9688C5.41667 18.2604 7.23958 20.0833 9.53125 21.4375C11.8229 22.8177 14.401 23.5469 17.2656 23.625Z" fill="black" fill-opacity="0.72"/>
</g>
<defs>
<clipPath id="clip0_1731_4778">
<rect width="20" height="30" fill="white"/>
</clipPath>
</defs>
</svg>
