<svg width="14" height="22" viewBox="0 0 14 22" fill="none" xmlns="http://www.w3.org/2000/svg">
<g id="label-paired / sm / chevrons-left-sm / bold" clip-path="url(#clip0_1731_2164)">
<path id="icon" d="M1.28516 10.2852L6.53516 5.03516C6.84505 4.77995 7.15495 4.77995 7.46484 5.03516C7.72005 5.34505 7.72005 5.65495 7.46484 5.96484L2.67969 10.75L7.46484 15.5352C7.72005 15.8451 7.72005 16.1549 7.46484 16.4648C7.15495 16.7201 6.84505 16.7201 6.53516 16.4648L1.28516 11.2148C1.02995 10.9049 1.02995 10.5951 1.28516 10.2852ZM11.7852 5.03516C12.0951 4.77995 12.4049 4.77995 12.7148 5.03516C12.9701 5.34505 12.9701 5.65495 12.7148 5.96484L7.92969 10.75L12.7148 15.5352C12.9701 15.8451 12.9701 16.1549 12.7148 16.4648C12.4049 16.7201 12.0951 16.7201 11.7852 16.4648L6.53516 11.2148C6.27995 10.9049 6.27995 10.5951 6.53516 10.2852L11.7852 5.03516Z" fill="black" fill-opacity="0.72"/>
</g>
<defs>
<clipPath id="clip0_1731_2164">
<rect width="14" height="22" fill="white"/>
</clipPath>
</defs>
</svg>
