<svg width="20" height="30" viewBox="0 0 20 30" fill="none" xmlns="http://www.w3.org/2000/svg">
<g id="label-paired / lg / chart-line-lg / regular" clip-path="url(#clip0_1731_4720)">
<path id="icon" d="M1.25 7.375V21.125C1.27604 21.6458 1.45833 22.0885 1.79688 22.4531C2.16146 22.7917 2.60417 22.974 3.125 23H19.375C19.7656 23.026 19.974 23.2344 20 23.625C19.974 24.0156 19.7656 24.224 19.375 24.25H3.125C2.23958 24.224 1.4974 23.9245 0.898438 23.3516C0.325521 22.7526 0.0260417 22.0104 0 21.125V7.375C0.0260417 6.98438 0.234375 6.77604 0.625 6.75C1.01562 6.77604 1.22396 6.98438 1.25 7.375ZM18.5547 11.5547L12.9297 17.1797C12.6432 17.4401 12.3568 17.4401 12.0703 17.1797L8.75 13.8984L4.80469 17.8047C4.51823 18.0651 4.23177 18.0651 3.94531 17.8047C3.6849 17.5182 3.6849 17.2318 3.94531 16.9453L8.32031 12.5703C8.60677 12.3099 8.89323 12.3099 9.17969 12.5703L12.5 15.8516L17.6953 10.6953C17.9818 10.4349 18.2682 10.4349 18.5547 10.6953C18.8151 10.9818 18.8151 11.2682 18.5547 11.5547Z" fill="black" fill-opacity="0.72"/>
</g>
<defs>
<clipPath id="clip0_1731_4720">
<rect width="20" height="30" fill="white"/>
</clipPath>
</defs>
</svg>
