<svg width="27" height="36" viewBox="0 0 27 36" fill="none" xmlns="http://www.w3.org/2000/svg">
<g id="label-paired / xl / pen-line-xl / bold" clip-path="url(#clip0_1731_6510)">
<path id="icon" d="M0.609375 26.5781L1.6875 22.9219C1.90625 22.2344 2.26562 21.6562 2.76562 21.1875L17.0156 6.89062C17.6094 6.32812 18.3125 6.04688 19.125 6.04688C19.9062 6.04688 20.6094 6.32812 21.2344 6.89062L23.1094 8.76562C23.2344 8.89062 23.3594 9.04688 23.4844 9.23438C23.8594 9.82812 24.0156 10.4688 23.9531 11.1562C23.8906 11.8438 23.6094 12.4531 23.1094 12.9844L8.85938 27.2344C8.79688 27.2969 8.73438 27.3594 8.67188 27.4219C8.20312 27.8281 7.67188 28.125 7.07812 28.3125L3.42188 29.3906L1.45312 29.9531C1.01562 30.0781 0.640625 29.9844 0.328125 29.6719C0.046875 29.3594 -0.046875 28.9844 0.046875 28.5469L0.609375 26.5781ZM3.5625 24.6562L2.76562 27.2344L5.34375 26.4844L6.46875 26.1562C6.75 26.0625 7.01562 25.9062 7.26562 25.6875L17.9531 14.9531L15.0469 12.0469L4.35938 22.7344C4.32812 22.7656 4.29688 22.7969 4.26562 22.8281C4.07812 23.0469 3.9375 23.2812 3.84375 23.5312L3.5625 24.6562ZM11.625 27.75H25.875C26.5625 27.8125 26.9375 28.1875 27 28.875C26.9375 29.5625 26.5625 29.9375 25.875 30H11.625C10.9375 29.9375 10.5625 29.5625 10.5 28.875C10.5625 28.1875 10.9375 27.8125 11.625 27.75Z" fill="black" fill-opacity="0.72"/>
</g>
<defs>
<clipPath id="clip0_1731_6510">
<rect width="27" height="36" fill="white"/>
</clipPath>
</defs>
</svg>
