<svg width="30" height="36" viewBox="0 0 30 36" fill="none" xmlns="http://www.w3.org/2000/svg">
<g id="label-paired / xl / deriv-xl" clip-path="url(#clip0_1731_14138)">
<path id="icon" d="M19.875 6.79688L24.5625 6L21.2812 24.75C20.7656 27.6562 18 30 15.0469 30H11.4844C7.45312 30 4.78125 26.7656 5.48438 22.7812L5.8125 21.0469C6.51562 17.0625 10.3125 13.7812 14.3438 13.7812H18.6094L19.875 6.79688ZM16.8281 24.0938L17.8594 18.0938H14.1094C12.2812 18.0938 10.5938 19.5938 10.2656 21.375L10.0781 22.4531C9.75 24.2344 10.9688 25.6875 12.75 25.6875H14.9531C15.8438 25.6875 16.6406 24.9844 16.8281 24.0938Z" fill="black" fill-opacity="0.72"/>
</g>
<defs>
<clipPath id="clip0_1731_14138">
<rect width="30" height="36" fill="white"/>
</clipPath>
</defs>
</svg>
