<svg width="30" height="36" viewBox="0 0 30 36" fill="none" xmlns="http://www.w3.org/2000/svg">
<g id="label-paired / xl / box-archive-circle-arrow-down-xl / bold" clip-path="url(#clip0_1731_5743)">
<path id="icon" d="M0 9C0 8.20312 0.65625 7.5 1.5 7.5C8.48438 7.5 15.4688 7.5 22.5 7.5C23.2969 7.5 24 8.20312 24 9C24 10.2656 24 11.5312 24 12.75C24 13.5938 23.2969 14.25 22.5 14.25C15.4688 14.25 8.48438 14.25 1.5 14.25C0.65625 14.25 0 13.5938 0 12.75C0 11.5312 0 10.2656 0 9ZM1.5 15.75H3.75C3.75 19.0312 3.75 22.2656 3.75 25.5C3.75 25.9219 4.07812 26.25 4.5 26.25C8.15625 26.25 11.8594 26.25 15.5625 26.25C15.8438 27.0938 16.3125 27.8438 16.875 28.5C12.75 28.5 8.625 28.5 4.5 28.5C2.8125 28.5 1.5 27.1875 1.5 25.5C1.5 22.2656 1.5 19.0312 1.5 15.75ZM2.25 9.75C2.25 10.5 2.25 11.25 2.25 12C8.71875 12 15.2344 12 21.75 12C21.75 11.25 21.75 10.5 21.75 9.75H2.25ZM7.5 17.625C7.5 17.0156 7.96875 16.5 8.625 16.5C10.875 16.5 13.125 16.5 15.375 16.5C15.9844 16.5 16.5 17.0156 16.5 17.625C16.5 18.2812 15.9844 18.75 15.375 18.75C13.125 18.75 10.875 18.75 8.625 18.75C7.96875 18.75 7.5 18.2812 7.5 17.625ZM16.5 23.25C16.5 20.8594 17.7656 18.6094 19.875 17.4375C21.9375 16.2188 24.5156 16.2188 26.625 17.4375C28.6875 18.6094 30 20.8594 30 23.25C30 25.6875 28.6875 27.8906 26.625 29.1094C24.5156 30.3281 21.9375 30.3281 19.875 29.1094C17.7656 27.8906 16.5 25.6875 16.5 23.25ZM20.0625 23.1094C19.7812 23.3906 19.7812 23.9062 20.0625 24.1875C20.9531 25.0312 21.8438 25.9219 22.6875 26.8125C22.9688 27.0938 23.4844 27.0938 23.7656 26.8125C24.6562 25.9219 25.5 25.0312 26.3906 24.1875C26.6719 23.9062 26.6719 23.3906 26.3906 23.1094C26.1094 22.8281 25.5938 22.8281 25.3125 23.1094C24.8906 23.5781 24.4219 24 24 24.4688C24 23.0625 24 21.6562 24 20.25C24 19.875 23.625 19.5 23.25 19.5C22.8281 19.5 22.5 19.875 22.5 20.25C22.5 21.6562 22.5 23.0625 22.5 24.4688C22.0312 24 21.5625 23.5781 21.1406 23.1094C20.8594 22.8281 20.3438 22.8281 20.0625 23.1094Z" fill="black" fill-opacity="0.72"/>
</g>
<defs>
<clipPath id="clip0_1731_5743">
<rect width="30" height="36" fill="white"/>
</clipPath>
</defs>
</svg>
