<svg width="24" height="36" viewBox="0 0 24 36" fill="none" xmlns="http://www.w3.org/2000/svg">
<g id="label-paired / xl / circle-star-xl / fill" clip-path="url(#clip0_1731_5857)">
<path id="icon" d="M0 18C0.03125 15.8125 0.5625 13.8125 1.59375 12C2.65625 10.1875 4.125 8.71875 6 7.59375C7.90625 6.53125 9.90625 6 12 6C14.0938 6 16.0938 6.53125 18 7.59375C19.875 8.71875 21.3438 10.1875 22.4062 12C23.4375 13.8125 23.9688 15.8125 24 18C23.9688 20.1875 23.4375 22.1875 22.4062 24C21.3438 25.8125 19.875 27.2812 18 28.4062C16.0938 29.4688 14.0938 30 12 30C9.90625 30 7.90625 29.4688 6 28.4062C4.125 27.2812 2.65625 25.8125 1.59375 24C0.5625 22.1875 0.03125 20.1875 0 18ZM12 10.875C11.6875 10.875 11.4688 11.0156 11.3438 11.2969L9.65625 14.7188L5.85938 15.2812C5.54688 15.3438 5.34375 15.5156 5.25 15.7969C5.15625 16.0781 5.21875 16.3281 5.4375 16.5469L8.15625 19.2656L7.5 23.0156C7.46875 23.3281 7.57812 23.5781 7.82812 23.7656C8.07812 23.9219 8.34375 23.9375 8.625 23.8125L12 22.0312L15.4219 23.8125C15.6719 23.9375 15.9219 23.9219 16.1719 23.7656C16.4219 23.5781 16.5312 23.3281 16.5 23.0156L15.8438 19.2656L18.6094 16.5938C18.7969 16.3438 18.8594 16.0781 18.7969 15.7969C18.6719 15.5156 18.4688 15.3438 18.1875 15.2812L14.3906 14.7188L12.6562 11.2969C12.5312 11.0156 12.3125 10.875 12 10.875Z" fill="black" fill-opacity="0.72"/>
</g>
<defs>
<clipPath id="clip0_1731_5857">
<rect width="24" height="36" fill="white"/>
</clipPath>
</defs>
</svg>
