<svg width="21" height="36" viewBox="0 0 21 36" fill="none" xmlns="http://www.w3.org/2000/svg">
<g id="label-paired / xl / trash-xl / regular" clip-path="url(#clip0_1731_5601)">
<path id="icon" d="M8.34375 7.5C8.0625 7.5 7.84375 7.625 7.6875 7.875L6.98438 9H14.0156L13.3125 7.875C13.1562 7.625 12.9375 7.5 12.6562 7.5H8.34375ZM15.7969 9H18H19.5H20.25C20.7188 9.03125 20.9688 9.28125 21 9.75C20.9688 10.2188 20.7188 10.4688 20.25 10.5H19.4062L18.1875 27.2344C18.125 28.0156 17.8125 28.6719 17.25 29.2031C16.6875 29.7031 16 29.9688 15.1875 30H5.8125C5 29.9688 4.3125 29.7031 3.75 29.2031C3.1875 28.6719 2.875 28.0156 2.8125 27.2344L1.59375 10.5H0.75C0.28125 10.4688 0.03125 10.2188 0 9.75C0.03125 9.28125 0.28125 9.03125 0.75 9H1.5H3H5.20312L6.42188 7.07812C6.89062 6.39062 7.53125 6.03125 8.34375 6H12.6562C13.4688 6.03125 14.1094 6.39062 14.5781 7.07812L15.7969 9ZM17.9062 10.5H3.09375L4.3125 27.0938C4.34375 27.5 4.5 27.8281 4.78125 28.0781C5.0625 28.3594 5.40625 28.5 5.8125 28.5H15.1875C15.5938 28.5 15.9375 28.3594 16.2188 28.0781C16.5 27.8281 16.6562 27.5 16.6875 27.0938L17.9062 10.5Z" fill="black" fill-opacity="0.72"/>
</g>
<defs>
<clipPath id="clip0_1731_5601">
<rect width="21" height="36" fill="white"/>
</clipPath>
</defs>
</svg>
