<svg width="18" height="24" viewBox="0 0 18 24" fill="none" xmlns="http://www.w3.org/2000/svg">
<g id="label-paired / md / rectangle-ad-md / bold" clip-path="url(#clip0_1731_3861)">
<path id="icon" d="M2 6.5C1.6875 6.52083 1.52083 6.6875 1.5 7V17C1.52083 17.3125 1.6875 17.4792 2 17.5H16C16.3125 17.4792 16.4792 17.3125 16.5 17V7C16.4792 6.6875 16.3125 6.52083 16 6.5H2ZM0 7C0.0208333 6.4375 0.21875 5.96875 0.59375 5.59375C0.96875 5.21875 1.4375 5.02083 2 5H16C16.5625 5.02083 17.0312 5.21875 17.4062 5.59375C17.7812 5.96875 17.9792 6.4375 18 7V17C17.9792 17.5625 17.7812 18.0312 17.4062 18.4062C17.0312 18.7812 16.5625 18.9792 16 19H2C1.4375 18.9792 0.96875 18.7812 0.59375 18.4062C0.21875 18.0312 0.0208333 17.5625 0 17V7ZM7.1875 9.40625L9.4375 13.9062C9.58333 14.3438 9.46875 14.6875 9.09375 14.9375C8.65625 15.0833 8.32292 14.9688 8.09375 14.5938L7.90625 14.25H5.09375L4.90625 14.5938C4.67708 14.9688 4.34375 15.0729 3.90625 14.9062C3.51042 14.6771 3.40625 14.3438 3.59375 13.9062L5.84375 9.40625C5.98958 9.13542 6.20833 9 6.5 9C6.8125 9 7.04167 9.13542 7.1875 9.40625ZM6.5 11.4375L5.84375 12.75H7.15625L6.5 11.4375ZM12.25 12C11.7917 12.0417 11.5417 12.2917 11.5 12.75C11.5417 13.2083 11.7917 13.4583 12.25 13.5C12.7083 13.4583 12.9583 13.2083 13 12.75C12.9583 12.2917 12.7083 12.0417 12.25 12ZM13 10.625V9.75C13.0417 9.29167 13.2917 9.04167 13.75 9C14.2083 9.04167 14.4583 9.29167 14.5 9.75V12.75V14.25C14.4583 14.7083 14.2083 14.9583 13.75 15C13.5417 15 13.3646 14.9271 13.2188 14.7812C12.9271 14.9271 12.6042 15 12.25 15C11.6042 14.9792 11.0729 14.7604 10.6562 14.3438C10.2396 13.9271 10.0208 13.3958 10 12.75C10.0208 12.1042 10.2396 11.5729 10.6562 11.1562C11.0729 10.7396 11.6042 10.5208 12.25 10.5C12.5208 10.5 12.7708 10.5417 13 10.625Z" fill="black" fill-opacity="0.72"/>
</g>
<defs>
<clipPath id="clip0_1731_3861">
<rect width="18" height="24" fill="white"/>
</clipPath>
</defs>
</svg>
