<svg width="14" height="22" viewBox="0 0 14 22" fill="none" xmlns="http://www.w3.org/2000/svg">
<g id="label-paired / sm / chevrons-up-sm / regular" clip-path="url(#clip0_1731_2147)">
<path id="icon" d="M7.30078 5.19922L12.5508 10.4492C12.7331 10.6497 12.7331 10.8503 12.5508 11.0508C12.3503 11.2331 12.1497 11.2331 11.9492 11.0508L7 6.12891L2.05078 11.0508C1.85026 11.2331 1.64974 11.2331 1.44922 11.0508C1.26693 10.8503 1.26693 10.6497 1.44922 10.4492L6.69922 5.19922C6.89974 5.01693 7.10026 5.01693 7.30078 5.19922ZM12.5508 15.6992C12.7331 15.8997 12.7331 16.1003 12.5508 16.3008C12.3503 16.4831 12.1497 16.4831 11.9492 16.3008L7 11.3789L2.05078 16.3008C1.85026 16.4831 1.64974 16.4831 1.44922 16.3008C1.26693 16.1003 1.26693 15.8997 1.44922 15.6992L6.69922 10.4492C6.89974 10.2669 7.10026 10.2669 7.30078 10.4492L12.5508 15.6992Z" fill="black" fill-opacity="0.72"/>
</g>
<defs>
<clipPath id="clip0_1731_2147">
<rect width="14" height="22" fill="white"/>
</clipPath>
</defs>
</svg>
