<svg width="14" height="22" viewBox="0 0 14 22" fill="none" xmlns="http://www.w3.org/2000/svg">
<g id="label-paired / sm / life-ring-sm / regular" clip-path="url(#clip0_1731_2012)">
<path id="icon" d="M11.0195 15.3711L8.53125 12.8828C8.09375 13.1927 7.58333 13.3568 7 13.375C6.41667 13.3568 5.90625 13.1927 5.46875 12.8828L2.98047 15.3711C4.09245 16.3372 5.43229 16.8385 7 16.875C8.56771 16.8385 9.90755 16.3372 11.0195 15.3711ZM11.6211 14.7695C12.5872 13.6576 13.0885 12.3177 13.125 10.75C13.0885 9.18229 12.5872 7.84245 11.6211 6.73047L9.13281 9.21875C9.44271 9.65625 9.60677 10.1667 9.625 10.75C9.60677 11.3333 9.44271 11.8438 9.13281 12.2812L11.6211 14.7695ZM12.25 15.3711L12.5508 15.6992C12.7331 15.8997 12.7331 16.1003 12.5508 16.3008C12.3503 16.4831 12.1497 16.4831 11.9492 16.3008L11.6211 16C10.3633 17.1302 8.82292 17.7135 7 17.75C5.17708 17.7135 3.63672 17.1302 2.37891 16L2.05078 16.3008C1.85026 16.4831 1.64974 16.4831 1.44922 16.3008C1.26693 16.1003 1.26693 15.8997 1.44922 15.6992L1.75 15.3711C0.619792 14.0951 0.0364583 12.5547 0 10.75C0.0364583 8.94531 0.619792 7.40495 1.75 6.12891L1.44922 5.80078C1.26693 5.60026 1.26693 5.39974 1.44922 5.19922C1.64974 5.01693 1.85026 5.01693 2.05078 5.19922L2.37891 5.5C3.65495 4.36979 5.19531 3.78646 7 3.75C8.80469 3.78646 10.3451 4.36979 11.6211 5.5L11.9492 5.19922C12.1497 5.01693 12.3503 5.01693 12.5508 5.19922C12.7331 5.39974 12.7331 5.60026 12.5508 5.80078L12.25 6.12891C13.3802 7.38672 13.9635 8.92708 14 10.75C13.9635 12.5729 13.3802 14.1133 12.25 15.3711ZM11.0195 6.12891C9.90755 5.16276 8.56771 4.66146 7 4.625C5.43229 4.66146 4.09245 5.16276 2.98047 6.12891L5.46875 8.61719C5.90625 8.30729 6.41667 8.14323 7 8.125C7.58333 8.14323 8.09375 8.30729 8.53125 8.61719L11.0195 6.12891ZM4.86719 12.2812C4.55729 11.8438 4.39323 11.3333 4.375 10.75C4.39323 10.1667 4.55729 9.65625 4.86719 9.21875L2.37891 6.73047C1.41276 7.84245 0.911458 9.18229 0.875 10.75C0.911458 12.3177 1.41276 13.6576 2.37891 14.7695L4.86719 12.2812ZM5.25 10.75C5.26823 11.4062 5.5599 11.9076 6.125 12.2539C6.70833 12.582 7.29167 12.582 7.875 12.2539C8.4401 11.9076 8.73177 11.4062 8.75 10.75C8.73177 10.0938 8.4401 9.59245 7.875 9.24609C7.29167 8.91797 6.70833 8.91797 6.125 9.24609C5.5599 9.59245 5.26823 10.0938 5.25 10.75Z" fill="black" fill-opacity="0.72"/>
</g>
<defs>
<clipPath id="clip0_1731_2012">
<rect width="14" height="22" fill="white"/>
</clipPath>
</defs>
</svg>
