<svg width="25" height="30" viewBox="0 0 25 30" fill="none" xmlns="http://www.w3.org/2000/svg">
<g id="label-paired / lg / deal-protection-lg / bold" clip-path="url(#clip0_1731_5491)">
<path id="icon" d="M3.20312 10.2656H7.14844C7.8125 10.2656 8.4375 10.3828 9.02344 10.6172C9.60938 10.8125 10.0781 11.1641 10.4688 11.5938C10.8594 12.0234 11.1719 12.5703 11.4062 13.2344C11.6406 13.8984 11.7188 14.6406 11.7188 15.5C11.7188 16.3984 11.6406 17.1406 11.4062 17.8047C11.1719 18.4688 10.8594 19.0156 10.4688 19.4453C10.0781 19.875 9.60938 20.1875 9.02344 20.4219C8.47656 20.6562 7.8125 20.7734 7.14844 20.7734H3.20312V10.2656ZM7.14844 18.7422C7.8125 18.7422 8.35938 18.5469 8.75 18.1562C9.14062 17.7656 9.33594 17.1797 9.33594 16.3203V14.7188C9.33594 13.8594 9.14062 13.2734 8.75 12.8828C8.35938 12.4922 7.8125 12.2969 7.14844 12.2969H5.46875V18.7422H7.14844ZM13.6328 20.7344V10.2656H18.5938C19.1016 10.2656 19.5312 10.3828 19.9219 10.5391C20.3125 10.6953 20.625 10.9297 20.8984 11.2031C21.1719 11.5156 21.4062 11.8672 21.5625 12.2969C21.6797 12.6875 21.7578 13.1562 21.7578 13.625C21.7578 14.1328 21.7188 14.6016 21.5625 14.9922C21.4062 15.4219 21.1719 15.7734 20.8984 16.0469C20.625 16.3203 20.3125 16.5547 19.9219 16.75C19.5312 16.9062 19.1016 16.9844 18.5938 16.9844H15.9375V20.7344H13.6328ZM15.9375 14.9922H18.3203C18.6719 14.9922 18.9453 14.9141 19.1406 14.7188C19.3359 14.5625 19.4141 14.2891 19.4141 13.9375V13.3125C19.4141 12.9609 19.3359 12.6875 19.1406 12.5312C18.9453 12.3359 18.6719 12.2578 18.3203 12.2578H15.9375V14.9922Z" fill="black" fill-opacity="0.72"/>
</g>
<defs>
<clipPath id="clip0_1731_5491">
<rect width="25" height="30" fill="white"/>
</clipPath>
</defs>
</svg>
