<svg width="20" height="30" viewBox="0 0 20 30" fill="none" xmlns="http://www.w3.org/2000/svg">
<g id="label-paired / lg / chevrons-up-lg / bold" clip-path="url(#clip0_1731_4364)">
<path id="icon" d="M10.6641 7.33594L18.1641 14.8359C18.5286 15.2786 18.5286 15.7214 18.1641 16.1641C17.7214 16.5286 17.2786 16.5286 16.8359 16.1641L10 9.32812L3.16406 16.1641C2.72135 16.5286 2.27865 16.5286 1.83594 16.1641C1.47135 15.7214 1.47135 15.2786 1.83594 14.8359L9.33594 7.33594C9.77865 6.97135 10.2214 6.97135 10.6641 7.33594ZM18.1641 22.3359C18.5286 22.7786 18.5286 23.2214 18.1641 23.6641C17.7214 24.0286 17.2786 24.0286 16.8359 23.6641L10 16.8281L3.16406 23.6641C2.72135 24.0286 2.27865 24.0286 1.83594 23.6641C1.47135 23.2214 1.47135 22.7786 1.83594 22.3359L9.33594 14.8359C9.77865 14.4714 10.2214 14.4714 10.6641 14.8359L18.1641 22.3359Z" fill="black" fill-opacity="0.72"/>
</g>
<defs>
<clipPath id="clip0_1731_4364">
<rect width="20" height="30" fill="white"/>
</clipPath>
</defs>
</svg>
