<svg width="11" height="22" viewBox="0 0 11 22" fill="none" xmlns="http://www.w3.org/2000/svg">
<g id="label-paired / sm / computer-mouse-scrollwheel-sm / regular" clip-path="url(#clip0_1731_2657)">
<path id="icon" d="M9.875 13.375V8.125C9.85677 7.14062 9.51953 6.3112 8.86328 5.63672C8.1888 4.98047 7.35938 4.64323 6.375 4.625H4.625C3.64062 4.64323 2.8112 4.98047 2.13672 5.63672C1.48047 6.3112 1.14323 7.14062 1.125 8.125V13.375C1.14323 14.3594 1.48047 15.1888 2.13672 15.8633C2.8112 16.5195 3.64062 16.8568 4.625 16.875H6.375C7.35938 16.8568 8.1888 16.5195 8.86328 15.8633C9.51953 15.1888 9.85677 14.3594 9.875 13.375ZM0.25 8.125C0.286458 6.88542 0.714844 5.85547 1.53516 5.03516C2.35547 4.21484 3.38542 3.78646 4.625 3.75H6.375C7.61458 3.78646 8.64453 4.21484 9.46484 5.03516C10.2852 5.85547 10.7135 6.88542 10.75 8.125V13.375C10.7135 14.6146 10.2852 15.6445 9.46484 16.4648C8.64453 17.2852 7.61458 17.7135 6.375 17.75H4.625C3.38542 17.7135 2.35547 17.2852 1.53516 16.4648C0.714844 15.6445 0.286458 14.6146 0.25 13.375V8.125ZM5.9375 6.8125V8.5625C5.91927 8.83594 5.77344 8.98177 5.5 9C5.22656 8.98177 5.08073 8.83594 5.0625 8.5625V6.8125C5.08073 6.53906 5.22656 6.39323 5.5 6.375C5.77344 6.39323 5.91927 6.53906 5.9375 6.8125Z" fill="black" fill-opacity="0.72"/>
</g>
<defs>
<clipPath id="clip0_1731_2657">
<rect width="11" height="22" fill="white"/>
</clipPath>
</defs>
</svg>
