<svg width="14" height="24" viewBox="0 0 14 24" fill="none" xmlns="http://www.w3.org/2000/svg">
<g id="label-paired / md / trash-md / bold" clip-path="url(#clip0_1731_3087)">
<path id="icon" d="M5.53125 5.5C5.44792 5.5 5.38542 5.54167 5.34375 5.625L4.75 6.5H9.28125L8.6875 5.625C8.625 5.54167 8.55208 5.5 8.46875 5.5H5.53125ZM11.0625 6.5H11.5H13H13.25C13.7083 6.54167 13.9583 6.79167 14 7.25C13.9583 7.70833 13.7083 7.95833 13.25 8H12.875L12.125 18.1562C12.0833 18.6771 11.875 19.1146 11.5 19.4688C11.125 19.8021 10.6771 19.9792 10.1562 20H3.84375C3.32292 19.9792 2.875 19.8021 2.5 19.4688C2.125 19.1146 1.91667 18.6771 1.875 18.1562L1.125 8H0.75C0.291667 7.95833 0.0416667 7.70833 0 7.25C0.0416667 6.79167 0.291667 6.54167 0.75 6.5H1H2.5H2.9375L4.09375 4.78125C4.44792 4.28125 4.92708 4.02083 5.53125 4H8.46875C9.07292 4.02083 9.5625 4.28125 9.9375 4.78125L11.0625 6.5ZM11.375 8H2.625L3.34375 18.0312C3.40625 18.3229 3.57292 18.4792 3.84375 18.5H10.1562C10.4271 18.4792 10.5938 18.3229 10.6562 18.0312L11.375 8Z" fill="black" fill-opacity="0.72"/>
</g>
<defs>
<clipPath id="clip0_1731_3087">
<rect width="14" height="24" fill="white"/>
</clipPath>
</defs>
</svg>
