<svg width="16" height="22" viewBox="0 0 16 22" fill="none" xmlns="http://www.w3.org/2000/svg">
<g id="label-paired / sm / presentation-screen-sm / bold" clip-path="url(#clip0_1731_2588)">
<path id="icon" d="M0.78125 3.75H15.2188C15.6198 3.78646 15.8385 4.00521 15.875 4.40625C15.8385 4.80729 15.6198 5.02604 15.2188 5.0625H0.78125C0.380208 5.02604 0.161458 4.80729 0.125 4.40625C0.161458 4.00521 0.380208 3.78646 0.78125 3.75ZM1 5.9375H2.3125V11.8438C2.33073 11.9714 2.40365 12.0443 2.53125 12.0625H8H13.4688C13.5964 12.0443 13.6693 11.9714 13.6875 11.8438V5.9375H15V11.8438C14.9818 12.2812 14.8359 12.6458 14.5625 12.9375C14.2708 13.2109 13.9062 13.3568 13.4688 13.375H8.65625V14.6328L10.6523 16.6289C10.9076 16.9388 10.9076 17.2487 10.6523 17.5586C10.3424 17.8138 10.0326 17.8138 9.72266 17.5586L8 15.8359L6.27734 17.5586C5.96745 17.8138 5.65755 17.8138 5.34766 17.5586C5.09245 17.2487 5.09245 16.9388 5.34766 16.6289L7.34375 14.6328V13.375H2.53125C2.09375 13.3568 1.72917 13.2109 1.4375 12.9375C1.16406 12.6458 1.01823 12.2812 1 11.8438V5.9375Z" fill="black" fill-opacity="0.72"/>
</g>
<defs>
<clipPath id="clip0_1731_2588">
<rect width="16" height="22" fill="white"/>
</clipPath>
</defs>
</svg>
