<svg width="14" height="22" viewBox="0 0 14 22" fill="none" xmlns="http://www.w3.org/2000/svg">
<g id="label-paired / sm / sun-bright-sm / regular" clip-path="url(#clip0_1731_1992)">
<path id="icon" d="M7 3.75C7.27344 3.76823 7.41927 3.91406 7.4375 4.1875V6.375C7.41927 6.64844 7.27344 6.79427 7 6.8125C6.72656 6.79427 6.58073 6.64844 6.5625 6.375V4.1875C6.58073 3.91406 6.72656 3.76823 7 3.75ZM0 10.75C0.0182292 10.4766 0.164062 10.3307 0.4375 10.3125H2.625C2.89844 10.3307 3.04427 10.4766 3.0625 10.75C3.04427 11.0234 2.89844 11.1693 2.625 11.1875H0.4375C0.164062 11.1693 0.0182292 11.0234 0 10.75ZM10.9375 10.75C10.9557 10.4766 11.1016 10.3307 11.375 10.3125H13.5625C13.8359 10.3307 13.9818 10.4766 14 10.75C13.9818 11.0234 13.8359 11.1693 13.5625 11.1875H11.375C11.1016 11.1693 10.9557 11.0234 10.9375 10.75ZM7 14.6875C7.27344 14.7057 7.41927 14.8516 7.4375 15.125V17.3125C7.41927 17.5859 7.27344 17.7318 7 17.75C6.72656 17.7318 6.58073 17.5859 6.5625 17.3125V15.125C6.58073 14.8516 6.72656 14.7057 7 14.6875ZM2.05078 5.80078C2.2513 5.63672 2.46094 5.63672 2.67969 5.80078L4.21094 7.35938C4.375 7.5599 4.375 7.76042 4.21094 7.96094C4.01042 8.14323 3.8099 8.14323 3.60938 7.96094L2.05078 6.42969C1.88672 6.21094 1.88672 6.0013 2.05078 5.80078ZM2.05078 15.6992C1.88672 15.4987 1.88672 15.2891 2.05078 15.0703L3.60938 13.5391C3.8099 13.375 4.01042 13.375 4.21094 13.5391C4.39323 13.7396 4.39323 13.9401 4.21094 14.1406L2.67969 15.6992C2.46094 15.8633 2.2513 15.8633 2.05078 15.6992ZM9.78906 7.96094C9.625 7.76042 9.625 7.5599 9.78906 7.35938L11.3203 5.80078C11.5391 5.63672 11.7487 5.63672 11.9492 5.80078C12.1133 6.0013 12.1133 6.21094 11.9492 6.42969L10.3906 7.96094C10.1901 8.125 9.98958 8.125 9.78906 7.96094ZM9.78906 13.5391C9.98958 13.375 10.1901 13.375 10.3906 13.5391L11.9492 15.0703C12.1133 15.2891 12.1133 15.4987 11.9492 15.6992C11.7487 15.8633 11.5391 15.8633 11.3203 15.6992L9.78906 14.1406C9.625 13.9401 9.625 13.7396 9.78906 13.5391ZM9.1875 10.75C9.16927 9.92969 8.80469 9.30078 8.09375 8.86328C7.36458 8.46224 6.63542 8.46224 5.90625 8.86328C5.19531 9.30078 4.83073 9.92969 4.8125 10.75C4.83073 11.5703 5.19531 12.1992 5.90625 12.6367C6.63542 13.0378 7.36458 13.0378 8.09375 12.6367C8.80469 12.1992 9.16927 11.5703 9.1875 10.75ZM3.9375 10.75C3.9375 10.2031 4.07422 9.69271 4.34766 9.21875C4.62109 8.74479 4.99479 8.37109 5.46875 8.09766C5.94271 7.82422 6.45312 7.6875 7 7.6875C7.54688 7.6875 8.05729 7.82422 8.53125 8.09766C9.00521 8.37109 9.37891 8.74479 9.65234 9.21875C9.92578 9.69271 10.0625 10.2031 10.0625 10.75C10.0625 11.2969 9.92578 11.8073 9.65234 12.2812C9.37891 12.7552 9.00521 13.1289 8.53125 13.4023C8.05729 13.6758 7.54688 13.8125 7 13.8125C6.45312 13.8125 5.94271 13.6758 5.46875 13.4023C4.99479 13.1289 4.62109 12.7552 4.34766 12.2812C4.07422 11.8073 3.9375 11.2969 3.9375 10.75Z" fill="black" fill-opacity="0.72"/>
</g>
<defs>
<clipPath id="clip0_1731_1992">
<rect width="14" height="22" fill="white"/>
</clipPath>
</defs>
</svg>
