<svg width="16" height="24" viewBox="0 0 16 24" fill="none" xmlns="http://www.w3.org/2000/svg">
<g id="label-paired / md / circle-eight-md / regular" clip-path="url(#clip0_1731_3596)">
<path id="icon" d="M15 12C14.9792 10.7292 14.6667 9.5625 14.0625 8.5C13.4375 7.4375 12.5833 6.58333 11.5 5.9375C10.3958 5.3125 9.22917 5 8 5C6.77083 5 5.60417 5.3125 4.5 5.9375C3.41667 6.58333 2.5625 7.4375 1.9375 8.5C1.33333 9.5625 1.02083 10.7292 1 12C1.02083 13.2708 1.33333 14.4375 1.9375 15.5C2.5625 16.5625 3.41667 17.4167 4.5 18.0625C5.60417 18.6875 6.77083 19 8 19C9.22917 19 10.3958 18.6875 11.5 18.0625C12.5833 17.4167 13.4375 16.5625 14.0625 15.5C14.6667 14.4375 14.9792 13.2708 15 12ZM0 12C0.0208333 10.5417 0.375 9.20833 1.0625 8C1.77083 6.79167 2.75 5.8125 4 5.0625C5.27083 4.35417 6.60417 4 8 4C9.39583 4 10.7292 4.35417 12 5.0625C13.25 5.8125 14.2292 6.79167 14.9375 8C15.625 9.20833 15.9792 10.5417 16 12C15.9792 13.4583 15.625 14.7917 14.9375 16C14.2292 17.2083 13.25 18.1875 12 18.9375C10.7292 19.6458 9.39583 20 8 20C6.60417 20 5.27083 19.6458 4 18.9375C2.75 18.1875 1.77083 17.2083 1.0625 16C0.375 14.7917 0.0208333 13.4583 0 12ZM8.375 8C8.97917 8.02083 9.47917 8.22917 9.875 8.625C10.2708 9.02083 10.4792 9.52083 10.5 10.125C10.4792 10.7708 10.2396 11.3021 9.78125 11.7188C10.4062 12.1771 10.7292 12.8125 10.75 13.625C10.7292 14.2917 10.5 14.8542 10.0625 15.3125C9.60417 15.75 9.04167 15.9792 8.375 16H7.625C6.95833 15.9792 6.39583 15.75 5.9375 15.3125C5.5 14.8542 5.27083 14.2917 5.25 13.625C5.27083 12.8125 5.59375 12.1771 6.21875 11.7188C5.76042 11.3021 5.52083 10.7708 5.5 10.125C5.52083 9.52083 5.72917 9.02083 6.125 8.625C6.52083 8.22917 7.02083 8.02083 7.625 8H8.375ZM7.625 11.25H8.375C8.6875 11.25 8.94792 11.1354 9.15625 10.9062C9.38542 10.6979 9.5 10.4375 9.5 10.125C9.5 9.8125 9.38542 9.55208 9.15625 9.34375C8.94792 9.11458 8.6875 9 8.375 9H7.625C7.3125 9 7.05208 9.11458 6.84375 9.34375C6.61458 9.55208 6.5 9.8125 6.5 10.125C6.5 10.4375 6.61458 10.6979 6.84375 10.9062C7.05208 11.1354 7.3125 11.25 7.625 11.25ZM8.375 12.25H7.625C7.22917 12.25 6.90625 12.3854 6.65625 12.6562C6.38542 12.9062 6.25 13.2292 6.25 13.625C6.25 14.0208 6.38542 14.3438 6.65625 14.5938C6.90625 14.8646 7.22917 15 7.625 15H8.375C8.77083 15 9.09375 14.8646 9.34375 14.5938C9.61458 14.3438 9.75 14.0208 9.75 13.625C9.75 13.2292 9.61458 12.9062 9.34375 12.6562C9.09375 12.3854 8.77083 12.25 8.375 12.25Z" fill="black" fill-opacity="0.72"/>
</g>
<defs>
<clipPath id="clip0_1731_3596">
<rect width="16" height="24" fill="white"/>
</clipPath>
</defs>
</svg>
