<svg width="24" height="36" viewBox="0 0 24 36" fill="none" xmlns="http://www.w3.org/2000/svg">
<g id="label-paired / xl / chart-line-xl / regular" clip-path="url(#clip0_1731_6278)">
<path id="icon" d="M1.5 8.25V24.75C1.53125 25.375 1.75 25.9062 2.15625 26.3438C2.59375 26.75 3.125 26.9688 3.75 27H23.25C23.7188 27.0312 23.9688 27.2812 24 27.75C23.9688 28.2188 23.7188 28.4688 23.25 28.5H3.75C2.6875 28.4688 1.79688 28.1094 1.07812 27.4219C0.390625 26.7031 0.03125 25.8125 0 24.75V8.25C0.03125 7.78125 0.28125 7.53125 0.75 7.5C1.21875 7.53125 1.46875 7.78125 1.5 8.25ZM22.2656 13.2656L15.5156 20.0156C15.1719 20.3281 14.8281 20.3281 14.4844 20.0156L10.5 16.0781L5.76562 20.7656C5.42188 21.0781 5.07812 21.0781 4.73438 20.7656C4.42188 20.4219 4.42188 20.0781 4.73438 19.7344L9.98438 14.4844C10.3281 14.1719 10.6719 14.1719 11.0156 14.4844L15 18.4219L21.2344 12.2344C21.5781 11.9219 21.9219 11.9219 22.2656 12.2344C22.5781 12.5781 22.5781 12.9219 22.2656 13.2656Z" fill="black" fill-opacity="0.72"/>
</g>
<defs>
<clipPath id="clip0_1731_6278">
<rect width="24" height="36" fill="white"/>
</clipPath>
</defs>
</svg>
