<svg width="18" height="22" viewBox="0 0 18 22" fill="none" xmlns="http://www.w3.org/2000/svg">
<g id="label-paired / sm / users-sm / bold" clip-path="url(#clip0_1731_3018)">
<path id="icon" d="M4.1875 8.125C3.36719 8.10677 2.73828 7.74219 2.30078 7.03125C1.89974 6.30208 1.89974 5.57292 2.30078 4.84375C2.73828 4.13281 3.36719 3.76823 4.1875 3.75C5.00781 3.76823 5.63672 4.13281 6.07422 4.84375C6.47526 5.57292 6.47526 6.30208 6.07422 7.03125C5.63672 7.74219 5.00781 8.10677 4.1875 8.125ZM14.25 8.125C13.4297 8.10677 12.8008 7.74219 12.3633 7.03125C11.9622 6.30208 11.9622 5.57292 12.3633 4.84375C12.8008 4.13281 13.4297 3.76823 14.25 3.75C15.0703 3.76823 15.6992 4.13281 16.1367 4.84375C16.5378 5.57292 16.5378 6.30208 16.1367 7.03125C15.6992 7.74219 15.0703 8.10677 14.25 8.125ZM0.25 11.9258C0.268229 11.0872 0.550781 10.3945 1.09766 9.84766C1.64453 9.30078 2.33724 9.01823 3.17578 9H4.32422C4.76172 9 5.17188 9.09115 5.55469 9.27344C5.51823 9.47396 5.5 9.67448 5.5 9.875C5.53646 10.9505 5.92839 11.8255 6.67578 12.5H0.824219C0.477865 12.4635 0.286458 12.2721 0.25 11.9258ZM11.3242 12.5C12.0716 11.8255 12.4635 10.9505 12.5 9.875C12.5 9.67448 12.4818 9.47396 12.4453 9.27344C12.8281 9.09115 13.2383 9 13.6758 9H14.8242C15.6628 9.01823 16.3555 9.30078 16.9023 9.84766C17.4492 10.3945 17.7318 11.0872 17.75 11.9258C17.7135 12.2721 17.5221 12.4635 17.1758 12.5H11.3242ZM9 8.5625C8.50781 8.58073 8.125 8.79948 7.85156 9.21875C7.63281 9.65625 7.63281 10.0938 7.85156 10.5312C8.125 10.9505 8.50781 11.1693 9 11.1875C9.49219 11.1693 9.875 10.9505 10.1484 10.5312C10.3672 10.0938 10.3672 9.65625 10.1484 9.21875C9.875 8.79948 9.49219 8.58073 9 8.5625ZM9 12.5C8.52604 12.5 8.08854 12.3815 7.6875 12.1445C7.28646 11.9076 6.96745 11.5885 6.73047 11.1875C6.49349 10.7682 6.375 10.3307 6.375 9.875C6.375 9.41927 6.49349 8.98177 6.73047 8.5625C6.96745 8.16146 7.28646 7.84245 7.6875 7.60547C8.08854 7.36849 8.52604 7.25 9 7.25C9.47396 7.25 9.91146 7.36849 10.3125 7.60547C10.7135 7.84245 11.0326 8.16146 11.2695 8.5625C11.5065 8.98177 11.625 9.41927 11.625 9.875C11.625 10.3307 11.5065 10.7682 11.2695 11.1875C11.0326 11.5885 10.7135 11.9076 10.3125 12.1445C9.91146 12.3815 9.47396 12.5 9 12.5ZM7.38672 14.6875C6.83984 14.7057 6.36589 14.8698 5.96484 15.1797C5.54557 15.5078 5.27214 15.9271 5.14453 16.4375H12.8555C12.7279 15.9271 12.4544 15.5078 12.0352 15.1797C11.6341 14.8698 11.1602 14.7057 10.6133 14.6875H7.38672ZM7.38672 13.375H10.6133C11.6341 13.3932 12.4909 13.7487 13.1836 14.4414C13.8763 15.1341 14.2318 15.9909 14.25 17.0117C14.2135 17.4674 13.9674 17.7135 13.5117 17.75H4.48828C4.03255 17.7135 3.78646 17.4674 3.75 17.0117C3.76823 15.9909 4.1237 15.1341 4.81641 14.4414C5.50911 13.7487 6.36589 13.3932 7.38672 13.375Z" fill="black" fill-opacity="0.72"/>
</g>
<defs>
<clipPath id="clip0_1731_3018">
<rect width="18" height="22" fill="white"/>
</clipPath>
</defs>
</svg>
