<svg width="11" height="18" viewBox="0 0 11 18" fill="none" xmlns="http://www.w3.org/2000/svg">
<g id="label-paired / caption / image-polaroid-user-caption / regular" clip-path="url(#clip0_1731_1779)">
<path id="icon" d="M8.125 12.5H7.375H3.625H2.875H1V13.25C1 13.4688 1.07031 13.6484 1.21094 13.7891C1.35156 13.9297 1.53125 14 1.75 14H9.25C9.46875 14 9.64844 13.9297 9.78906 13.7891C9.92969 13.6484 10 13.4688 10 13.25V12.5H8.125ZM8.07812 11.75H10V5.75C10 5.53125 9.92969 5.35156 9.78906 5.21094C9.64844 5.07031 9.46875 5 9.25 5H1.75C1.53125 5 1.35156 5.07031 1.21094 5.21094C1.07031 5.35156 1 5.53125 1 5.75V11.75H2.92188C3.01562 11.3125 3.22656 10.9531 3.55469 10.6719C3.88281 10.4062 4.28125 10.2656 4.75 10.25H5.5H6.25C6.71875 10.2656 7.11719 10.4062 7.44531 10.6719C7.77344 10.9531 7.98438 11.3125 8.07812 11.75ZM3.69531 11.75H7.30469C7.11719 11.2812 6.76562 11.0312 6.25 11H4.75C4.23438 11.0312 3.88281 11.2812 3.69531 11.75ZM10.75 5.75V11.75V12.125V12.5V13.25C10.7344 13.6719 10.5859 14.0234 10.3047 14.3047C10.0234 14.5859 9.67188 14.7344 9.25 14.75H1.75C1.32812 14.7344 0.976562 14.5859 0.695312 14.3047C0.414062 14.0234 0.265625 13.6719 0.25 13.25V12.5V12.125V11.75V5.75C0.265625 5.32812 0.414062 4.97656 0.695312 4.69531C0.976562 4.41406 1.32812 4.26562 1.75 4.25H9.25C9.67188 4.26562 10.0234 4.41406 10.3047 4.69531C10.5859 4.97656 10.7344 5.32812 10.75 5.75ZM6.25 8C6.25 7.78125 6.17969 7.60156 6.03906 7.46094C5.89844 7.32031 5.71875 7.25 5.5 7.25C5.28125 7.25 5.10156 7.32031 4.96094 7.46094C4.82031 7.60156 4.75 7.78125 4.75 8C4.75 8.21875 4.82031 8.39844 4.96094 8.53906C5.10156 8.67969 5.28125 8.75 5.5 8.75C5.71875 8.75 5.89844 8.67969 6.03906 8.53906C6.17969 8.39844 6.25 8.21875 6.25 8ZM5.5 6.5C6.0625 6.51562 6.49219 6.76562 6.78906 7.25C7.07031 7.75 7.07031 8.25 6.78906 8.75C6.49219 9.23438 6.0625 9.48438 5.5 9.5C4.9375 9.48438 4.50781 9.23438 4.21094 8.75C3.92969 8.25 3.92969 7.75 4.21094 7.25C4.50781 6.76562 4.9375 6.51562 5.5 6.5Z" fill="black" fill-opacity="0.72"/>
</g>
<defs>
<clipPath id="clip0_1731_1779">
<rect width="11" height="18" fill="white"/>
</clipPath>
</defs>
</svg>
