<svg width="11" height="22" viewBox="0 0 11 22" fill="none" xmlns="http://www.w3.org/2000/svg">
<g id="label-paired / sm / file-invoice-dollar-sm / regular" clip-path="url(#clip0_1731_2774)">
<path id="icon" d="M9.875 16V9H6.8125C6.44792 8.98177 6.13802 8.85417 5.88281 8.61719C5.64583 8.36198 5.51823 8.05208 5.5 7.6875V4.625H2C1.74479 4.625 1.53516 4.70703 1.37109 4.87109C1.20703 5.03516 1.125 5.24479 1.125 5.5V16C1.125 16.2552 1.20703 16.4648 1.37109 16.6289C1.53516 16.793 1.74479 16.875 2 16.875H9C9.25521 16.875 9.46484 16.793 9.62891 16.6289C9.79297 16.4648 9.875 16.2552 9.875 16ZM9.875 8.125C9.83854 8.05208 9.79297 7.98828 9.73828 7.93359L6.56641 4.76172C6.51172 4.70703 6.44792 4.67057 6.375 4.65234V7.6875C6.39323 7.96094 6.53906 8.10677 6.8125 8.125H9.875ZM0.25 5.5C0.268229 5.00781 0.441406 4.59766 0.769531 4.26953C1.09766 3.94141 1.50781 3.76823 2 3.75H6.26562C6.63021 3.75 6.9401 3.8776 7.19531 4.13281L10.3672 7.30469C10.6224 7.5599 10.75 7.86979 10.75 8.23438V16C10.7318 16.4922 10.5586 16.9023 10.2305 17.2305C9.90234 17.5586 9.49219 17.7318 9 17.75H2C1.50781 17.7318 1.09766 17.5586 0.769531 17.2305C0.441406 16.9023 0.268229 16.4922 0.25 16V5.5ZM2 5.9375C2.01823 5.66406 2.16406 5.51823 2.4375 5.5H4.1875C4.46094 5.51823 4.60677 5.66406 4.625 5.9375C4.60677 6.21094 4.46094 6.35677 4.1875 6.375H2.4375C2.16406 6.35677 2.01823 6.21094 2 5.9375ZM2 7.6875C2.01823 7.41406 2.16406 7.26823 2.4375 7.25H4.1875C4.46094 7.26823 4.60677 7.41406 4.625 7.6875C4.60677 7.96094 4.46094 8.10677 4.1875 8.125H2.4375C2.16406 8.10677 2.01823 7.96094 2 7.6875ZM5.9375 10.4219V10.7773C6.17448 10.8138 6.39323 10.8594 6.59375 10.9141C6.84896 10.987 6.95833 11.1602 6.92188 11.4336C6.83073 11.6888 6.64844 11.7982 6.375 11.7617C6.0651 11.6888 5.77344 11.6432 5.5 11.625C5.24479 11.625 5.01693 11.6706 4.81641 11.7617C4.67057 11.8529 4.60677 11.944 4.625 12.0352C4.60677 12.0716 4.67057 12.1354 4.81641 12.2266C4.9987 12.3177 5.26302 12.3997 5.60938 12.4727L5.63672 12.5C5.96484 12.5729 6.29297 12.6823 6.62109 12.8281C6.98568 13.0104 7.19531 13.3385 7.25 13.8125C7.21354 14.3411 6.99479 14.6966 6.59375 14.8789C6.39323 14.9883 6.17448 15.0612 5.9375 15.0977V15.4805C5.91927 15.7357 5.77344 15.8815 5.5 15.918C5.22656 15.8815 5.08073 15.7357 5.0625 15.4805V15.0703C4.77083 15.0156 4.4974 14.9518 4.24219 14.8789C4.1875 14.8607 4.14193 14.8424 4.10547 14.8242C4.08724 14.8242 4.07812 14.8242 4.07812 14.8242C3.82292 14.7148 3.72266 14.5326 3.77734 14.2773C3.86849 14.0221 4.05078 13.9219 4.32422 13.9766C4.37891 13.9948 4.44271 14.013 4.51562 14.0312C4.88021 14.1589 5.21745 14.2318 5.52734 14.25C5.78255 14.25 6.0013 14.2044 6.18359 14.1133C6.32943 14.0404 6.39323 13.9492 6.375 13.8398C6.39323 13.7669 6.32943 13.6849 6.18359 13.5938C6.0013 13.5026 5.73698 13.4115 5.39062 13.3203H5.33594C5.33594 13.3203 5.32682 13.3203 5.30859 13.3203C4.9987 13.2474 4.69792 13.138 4.40625 12.9922C4.02344 12.8281 3.80469 12.5091 3.75 12.0352C3.80469 11.5065 4.03255 11.1602 4.43359 10.9961C4.63411 10.8867 4.84375 10.8138 5.0625 10.7773V10.4219C5.09896 10.1484 5.24479 10.0026 5.5 9.98438C5.77344 10.0026 5.91927 10.1484 5.9375 10.4219Z" fill="black" fill-opacity="0.72"/>
</g>
<defs>
<clipPath id="clip0_1731_2774">
<rect width="11" height="22" fill="white"/>
</clipPath>
</defs>
</svg>
