<svg width="11" height="22" viewBox="0 0 11 22" fill="none" xmlns="http://www.w3.org/2000/svg">
<g id="label-paired / sm / percent-sm / regular" clip-path="url(#clip0_1731_2739)">
<path id="icon" d="M2 6.375C1.74479 6.375 1.53516 6.45703 1.37109 6.62109C1.20703 6.78516 1.125 6.99479 1.125 7.25C1.125 7.50521 1.20703 7.71484 1.37109 7.87891C1.53516 8.04297 1.74479 8.125 2 8.125C2.25521 8.125 2.46484 8.04297 2.62891 7.87891C2.79297 7.71484 2.875 7.50521 2.875 7.25C2.875 6.99479 2.79297 6.78516 2.62891 6.62109C2.46484 6.45703 2.25521 6.375 2 6.375ZM2 9C1.34375 8.98177 0.842448 8.6901 0.496094 8.125C0.167969 7.54167 0.167969 6.95833 0.496094 6.375C0.842448 5.8099 1.34375 5.51823 2 5.5C2.65625 5.51823 3.15755 5.8099 3.50391 6.375C3.83203 6.95833 3.83203 7.54167 3.50391 8.125C3.15755 8.6901 2.65625 8.98177 2 9ZM9 13.375C8.74479 13.375 8.53516 13.457 8.37109 13.6211C8.20703 13.7852 8.125 13.9948 8.125 14.25C8.125 14.5052 8.20703 14.7148 8.37109 14.8789C8.53516 15.043 8.74479 15.125 9 15.125C9.25521 15.125 9.46484 15.043 9.62891 14.8789C9.79297 14.7148 9.875 14.5052 9.875 14.25C9.875 13.9948 9.79297 13.7852 9.62891 13.6211C9.46484 13.457 9.25521 13.375 9 13.375ZM9 16C8.34375 15.9818 7.84245 15.6901 7.49609 15.125C7.16797 14.5417 7.16797 13.9583 7.49609 13.375C7.84245 12.8099 8.34375 12.5182 9 12.5C9.65625 12.5182 10.1576 12.8099 10.5039 13.375C10.832 13.9583 10.832 14.5417 10.5039 15.125C10.1576 15.6901 9.65625 15.9818 9 16ZM10.6133 6.23828L0.988281 15.8633C0.78776 16.0456 0.58724 16.0456 0.386719 15.8633C0.204427 15.6628 0.204427 15.4622 0.386719 15.2617L10.0117 5.63672C10.2122 5.45443 10.4128 5.45443 10.6133 5.63672C10.7956 5.83724 10.7956 6.03776 10.6133 6.23828Z" fill="black" fill-opacity="0.72"/>
</g>
<defs>
<clipPath id="clip0_1731_2739">
<rect width="11" height="22" fill="white"/>
</clipPath>
</defs>
</svg>
