<svg width="15" height="30" viewBox="0 0 15 30" fill="none" xmlns="http://www.w3.org/2000/svg">
<g id="label-paired / lg / mobile-screen-button-lg / regular" clip-path="url(#clip0_1731_4842)">
<path id="icon" d="M11.25 6.75H3.75C3.38542 6.75 3.08594 6.86719 2.85156 7.10156C2.61719 7.33594 2.5 7.63542 2.5 8V18H12.5V8C12.5 7.63542 12.3828 7.33594 12.1484 7.10156C11.9141 6.86719 11.6146 6.75 11.25 6.75ZM12.5 19.25H2.5V23C2.5 23.3646 2.61719 23.6641 2.85156 23.8984C3.08594 24.1328 3.38542 24.25 3.75 24.25H11.25C11.6146 24.25 11.9141 24.1328 12.1484 23.8984C12.3828 23.6641 12.5 23.3646 12.5 23V19.25ZM3.75 5.5H11.25C11.9531 5.52604 12.5391 5.77344 13.0078 6.24219C13.4766 6.71094 13.724 7.29688 13.75 8V23C13.724 23.7031 13.4766 24.2891 13.0078 24.7578C12.5391 25.2266 11.9531 25.474 11.25 25.5H3.75C3.04688 25.474 2.46094 25.2266 1.99219 24.7578C1.52344 24.2891 1.27604 23.7031 1.25 23V8C1.27604 7.29688 1.52344 6.71094 1.99219 6.24219C2.46094 5.77344 3.04688 5.52604 3.75 5.5ZM5.625 21.75C5.65104 21.3594 5.85938 21.151 6.25 21.125H8.75C9.14062 21.151 9.34896 21.3594 9.375 21.75C9.34896 22.1406 9.14062 22.349 8.75 22.375H6.25C5.85938 22.349 5.65104 22.1406 5.625 21.75Z" fill="black" fill-opacity="0.72"/>
</g>
<defs>
<clipPath id="clip0_1731_4842">
<rect width="15" height="30" fill="white"/>
</clipPath>
</defs>
</svg>
