<svg width="18" height="36" viewBox="0 0 18 36" fill="none" xmlns="http://www.w3.org/2000/svg">
<g id="label-paired / xl / play-xl / regular" clip-path="url(#clip0_1731_6554)">
<path id="icon" d="M2.625 9.09375C2.375 8.96875 2.125 8.96875 1.875 9.09375C1.625 9.25 1.5 9.46875 1.5 9.75V26.25C1.5 26.5312 1.625 26.75 1.875 26.9062C2.125 27.0312 2.375 27.0312 2.625 26.9062L16.125 18.6562C16.375 18.5 16.5 18.2812 16.5 18C16.5 17.7188 16.375 17.5 16.125 17.3438L2.625 9.09375ZM1.17188 7.78125C1.92188 7.375 2.67188 7.39063 3.42188 7.82812L16.9219 16.0781C17.6094 16.5156 17.9688 17.1562 18 18C17.9688 18.8438 17.6094 19.4844 16.9219 19.9219L3.42188 28.1719C2.67188 28.6094 1.92188 28.625 1.17188 28.2188C0.421875 27.7812 0.03125 27.125 0 26.25V9.75C0.03125 8.875 0.421875 8.21875 1.17188 7.78125Z" fill="black" fill-opacity="0.72"/>
</g>
<defs>
<clipPath id="clip0_1731_6554">
<rect width="18" height="36" fill="white"/>
</clipPath>
</defs>
</svg>
