<svg width="16" height="24" viewBox="0 0 16 24" fill="none" xmlns="http://www.w3.org/2000/svg">
<g id="label-paired / md / right-to-bracket-md / bold" clip-path="url(#clip0_1731_3197)">
<path id="icon" d="M6 15.4375L9.4375 12L6 8.5625V10.25C5.95833 10.7083 5.70833 10.9583 5.25 11H1.5V13H5.25C5.70833 13.0417 5.95833 13.2917 6 13.75V15.4375ZM11 12C11 12.375 10.8646 12.6979 10.5938 12.9688L6.96875 16.5625C6.69792 16.8542 6.35417 17 5.9375 17C5.54167 17 5.20833 16.8542 4.9375 16.5625C4.66667 16.2917 4.52083 15.9583 4.5 15.5625V14.5H1.5C1.08333 14.4792 0.729167 14.3333 0.4375 14.0625C0.166667 13.7708 0.0208333 13.4167 0 13V11C0.0208333 10.5833 0.166667 10.2292 0.4375 9.9375C0.729167 9.66667 1.08333 9.52083 1.5 9.5H4.5V8.4375C4.52083 8.04167 4.66667 7.70833 4.9375 7.4375C5.20833 7.14583 5.54167 7 5.9375 7C6.33333 7 6.67708 7.14583 6.96875 7.4375L10.5938 11.0312C10.8646 11.3021 11 11.625 11 12ZM10.75 17.5H13.25C13.6042 17.5 13.8958 17.375 14.125 17.125C14.375 16.8958 14.5 16.6042 14.5 16.25V7.75C14.5 7.39583 14.375 7.10417 14.125 6.875C13.8958 6.625 13.6042 6.5 13.25 6.5H10.75C10.2917 6.45833 10.0417 6.20833 10 5.75C10.0417 5.29167 10.2917 5.04167 10.75 5H13.25C14.0208 5.02083 14.6667 5.29167 15.1875 5.8125C15.7083 6.33333 15.9792 6.97917 16 7.75V16.25C15.9792 17.0208 15.7083 17.6667 15.1875 18.1875C14.6667 18.7083 14.0208 18.9792 13.25 19H10.75C10.2917 18.9583 10.0417 18.7083 10 18.25C10.0417 17.7917 10.2917 17.5417 10.75 17.5Z" fill="black" fill-opacity="0.72"/>
</g>
<defs>
<clipPath id="clip0_1731_3197">
<rect width="16" height="24" fill="white"/>
</clipPath>
</defs>
</svg>
