<svg width="7" height="22" viewBox="0 0 7 22" fill="none" xmlns="http://www.w3.org/2000/svg">
<g id="label-paired / sm / grip-dots-vertical-sm / bold" clip-path="url(#clip0_1731_1794)">
<path id="icon" d="M1.75 7.25C1.49479 7.25 1.28516 7.16797 1.12109 7.00391C0.957031 6.83984 0.875 6.63021 0.875 6.375C0.875 6.11979 0.957031 5.91016 1.12109 5.74609C1.28516 5.58203 1.49479 5.5 1.75 5.5C2.00521 5.5 2.21484 5.58203 2.37891 5.74609C2.54297 5.91016 2.625 6.11979 2.625 6.375C2.625 6.63021 2.54297 6.83984 2.37891 7.00391C2.21484 7.16797 2.00521 7.25 1.75 7.25ZM1.75 11.625C1.49479 11.625 1.28516 11.543 1.12109 11.3789C0.957031 11.2148 0.875 11.0052 0.875 10.75C0.875 10.4948 0.957031 10.2852 1.12109 10.1211C1.28516 9.95703 1.49479 9.875 1.75 9.875C2.00521 9.875 2.21484 9.95703 2.37891 10.1211C2.54297 10.2852 2.625 10.4948 2.625 10.75C2.625 11.0052 2.54297 11.2148 2.37891 11.3789C2.21484 11.543 2.00521 11.625 1.75 11.625ZM2.625 15.125C2.625 15.3802 2.54297 15.5898 2.37891 15.7539C2.21484 15.918 2.00521 16 1.75 16C1.49479 16 1.28516 15.918 1.12109 15.7539C0.957031 15.5898 0.875 15.3802 0.875 15.125C0.875 14.8698 0.957031 14.6602 1.12109 14.4961C1.28516 14.332 1.49479 14.25 1.75 14.25C2.00521 14.25 2.21484 14.332 2.37891 14.4961C2.54297 14.6602 2.625 14.8698 2.625 15.125ZM5.25 7.25C4.99479 7.25 4.78516 7.16797 4.62109 7.00391C4.45703 6.83984 4.375 6.63021 4.375 6.375C4.375 6.11979 4.45703 5.91016 4.62109 5.74609C4.78516 5.58203 4.99479 5.5 5.25 5.5C5.50521 5.5 5.71484 5.58203 5.87891 5.74609C6.04297 5.91016 6.125 6.11979 6.125 6.375C6.125 6.63021 6.04297 6.83984 5.87891 7.00391C5.71484 7.16797 5.50521 7.25 5.25 7.25ZM6.125 10.75C6.125 11.0052 6.04297 11.2148 5.87891 11.3789C5.71484 11.543 5.50521 11.625 5.25 11.625C4.99479 11.625 4.78516 11.543 4.62109 11.3789C4.45703 11.2148 4.375 11.0052 4.375 10.75C4.375 10.4948 4.45703 10.2852 4.62109 10.1211C4.78516 9.95703 4.99479 9.875 5.25 9.875C5.50521 9.875 5.71484 9.95703 5.87891 10.1211C6.04297 10.2852 6.125 10.4948 6.125 10.75ZM5.25 16C4.99479 16 4.78516 15.918 4.62109 15.7539C4.45703 15.5898 4.375 15.3802 4.375 15.125C4.375 14.8698 4.45703 14.6602 4.62109 14.4961C4.78516 14.332 4.99479 14.25 5.25 14.25C5.50521 14.25 5.71484 14.332 5.87891 14.4961C6.04297 14.6602 6.125 14.8698 6.125 15.125C6.125 15.3802 6.04297 15.5898 5.87891 15.7539C5.71484 15.918 5.50521 16 5.25 16Z" fill="black" fill-opacity="0.72"/>
</g>
<defs>
<clipPath id="clip0_1731_1794">
<rect width="7" height="22" fill="white"/>
</clipPath>
</defs>
</svg>
