<svg width="9" height="22" viewBox="0 0 9 22" fill="none" xmlns="http://www.w3.org/2000/svg">
<g id="label-paired / sm / forward-step-sm / regular" clip-path="url(#clip0_1731_2808)">
<path id="icon" d="M7.125 5.9375C7.14323 5.66406 7.28906 5.51823 7.5625 5.5C7.83594 5.51823 7.98177 5.66406 8 5.9375V10.3672V11.1328V15.5625C7.98177 15.8359 7.83594 15.9818 7.5625 16C7.28906 15.9818 7.14323 15.8359 7.125 15.5625V11.8438L2.23047 15.8359C2.10286 15.9453 1.94792 16 1.76562 16C1.54688 16 1.36458 15.9271 1.21875 15.7812C1.07292 15.6354 1 15.4531 1 15.2344V6.26562C1 6.04688 1.07292 5.86458 1.21875 5.71875C1.36458 5.57292 1.54688 5.5 1.76562 5.5C1.94792 5.5 2.10286 5.55469 2.23047 5.66406L7.125 9.65625V5.9375ZM1.875 6.51172V14.9883L7.09766 10.75L1.875 6.51172Z" fill="black" fill-opacity="0.72"/>
</g>
<defs>
<clipPath id="clip0_1731_2808">
<rect width="9" height="22" fill="white"/>
</clipPath>
</defs>
</svg>
