<svg width="18" height="30" viewBox="0 0 18 30" fill="none" xmlns="http://www.w3.org/2000/svg">
<g id="label-paired / lg / app-store-ios-lg" clip-path="url(#clip0_1731_14042)">
<path id="icon" d="M15.875 6.75C16.3958 6.77604 16.8385 6.95833 17.2031 7.29688C17.5417 7.66146 17.724 8.10417 17.75 8.625V22.375C17.724 22.8958 17.5417 23.3385 17.2031 23.7031C16.8385 24.0417 16.3958 24.224 15.875 24.25H2.125C1.60417 24.224 1.16146 24.0417 0.796875 23.7031C0.458333 23.3385 0.276042 22.8958 0.25 22.375V8.625C0.276042 8.10417 0.458333 7.66146 0.796875 7.29688C1.16146 6.95833 1.60417 6.77604 2.125 6.75H15.875ZM5.21094 20.5391L5.95312 19.2109C5.5625 18.7161 5.05469 18.5729 4.42969 18.7812L3.84375 19.7578C3.66146 20.1745 3.76562 20.526 4.15625 20.8125C4.57292 20.9948 4.92448 20.9036 5.21094 20.5391ZM10.6406 18.4297C10.7969 18.0651 10.7839 17.7135 10.6016 17.375C10.4453 17.0625 10.1589 16.8932 9.74219 16.8672H7.32031L10.6797 11.0469C10.888 10.6042 10.7969 10.2526 10.4062 9.99219C9.96354 9.78385 9.59896 9.875 9.3125 10.2656L8.96094 10.8516L8.64844 10.2656C8.36198 9.875 7.9974 9.78385 7.55469 9.99219C7.16406 10.2526 7.07292 10.6042 7.28125 11.0469L8.0625 12.4141L5.52344 16.8672H3.53125C3.0625 16.8932 2.80208 17.1536 2.75 17.6484C2.80208 18.1172 3.0625 18.3776 3.53125 18.4297H10.6406ZM14.4688 18.4297C14.9375 18.3776 15.1979 18.1172 15.25 17.6484C15.1979 17.1536 14.9375 16.8932 14.4688 16.8672H12.4375C11.6042 15.4349 10.9401 14.2891 10.4453 13.4297C10.3411 13.2214 10.237 13.0391 10.1328 12.8828C9.8724 13.0911 9.6901 13.4297 9.58594 13.8984C9.45573 14.3932 9.54688 14.9271 9.85938 15.5C10.224 16.125 10.6797 16.9193 11.2266 17.8828C11.6693 18.6641 12.1771 19.5495 12.75 20.5391C13.0365 20.9036 13.388 20.9948 13.8047 20.8125C14.1953 20.526 14.2995 20.1745 14.1172 19.7578L13.3359 18.4297H14.4688Z" fill="black" fill-opacity="0.72"/>
</g>
<defs>
<clipPath id="clip0_1731_14042">
<rect width="18" height="30" fill="white"/>
</clipPath>
</defs>
</svg>
