<svg width="12" height="24" viewBox="0 0 12 24" fill="none" xmlns="http://www.w3.org/2000/svg">
<g id="label-paired / md / file-invoice-dollar-md / bold" clip-path="url(#clip0_1731_4034)">
<path id="icon" d="M10.5 18V9H8C7.70833 9 7.46875 8.90625 7.28125 8.71875C7.09375 8.53125 7 8.29167 7 8V5.5H2C1.6875 5.52083 1.52083 5.6875 1.5 6V18C1.52083 18.3125 1.6875 18.4792 2 18.5H10C10.3125 18.4792 10.4792 18.3125 10.5 18ZM0 6C0.0208333 5.4375 0.21875 4.96875 0.59375 4.59375C0.96875 4.21875 1.4375 4.02083 2 4H7.1875C7.72917 4 8.19792 4.19792 8.59375 4.59375L11.4062 7.40625C11.8021 7.80208 12 8.28125 12 8.84375V18C11.9792 18.5625 11.7812 19.0312 11.4062 19.4062C11.0312 19.7812 10.5625 19.9792 10 20H2C1.4375 19.9792 0.96875 19.7812 0.59375 19.4062C0.21875 19.0312 0.0208333 18.5625 0 18V6ZM6 10.75C6.375 10.7708 6.58333 10.9792 6.625 11.375V11.6875C6.85417 11.7083 7.07292 11.75 7.28125 11.8125C7.63542 11.9375 7.79167 12.1875 7.75 12.5625C7.625 12.9167 7.36458 13.0729 6.96875 13.0312C6.63542 12.9479 6.3125 12.8958 6 12.875C5.72917 12.875 5.48958 12.9271 5.28125 13.0312C5.15625 13.1146 5.10417 13.1771 5.125 13.2188C5.125 13.2396 5.16667 13.2708 5.25 13.3125C5.45833 13.4167 5.75 13.5104 6.125 13.5938C6.14583 13.6146 6.15625 13.625 6.15625 13.625H6.1875C6.5625 13.7083 6.94792 13.8438 7.34375 14.0312C7.53125 14.1354 7.70833 14.2917 7.875 14.5C8.02083 14.6875 8.10417 14.9375 8.125 15.25C8.08333 15.8958 7.8125 16.3438 7.3125 16.5938C7.10417 16.7188 6.875 16.8021 6.625 16.8438V17.1562C6.58333 17.5312 6.375 17.7396 6 17.7812C5.625 17.7396 5.41667 17.5312 5.375 17.1562V16.8125C5.08333 16.75 4.8125 16.6771 4.5625 16.5938C4.54167 16.5938 4.52083 16.5833 4.5 16.5625C4.45833 16.5625 4.42708 16.5521 4.40625 16.5312C4.36458 16.5312 4.33333 16.5312 4.3125 16.5312C3.95833 16.3854 3.82292 16.125 3.90625 15.75C4.05208 15.3958 4.3125 15.25 4.6875 15.3125C4.72917 15.3333 4.78125 15.3542 4.84375 15.375C4.86458 15.375 4.88542 15.375 4.90625 15.375C5.30208 15.5208 5.67708 15.6042 6.03125 15.625C6.32292 15.625 6.55208 15.5833 6.71875 15.5C6.84375 15.4167 6.89583 15.3438 6.875 15.2812C6.89583 15.2604 6.84375 15.2083 6.71875 15.125C6.51042 15.0208 6.21875 14.9167 5.84375 14.8125H5.78125C5.40625 14.7292 5.04167 14.5938 4.6875 14.4062C4.47917 14.3021 4.29167 14.1562 4.125 13.9688C3.97917 13.7812 3.89583 13.5312 3.875 13.2188C3.875 12.8854 3.95833 12.6146 4.125 12.4062C4.29167 12.1771 4.48958 12.0104 4.71875 11.9062C4.92708 11.8021 5.14583 11.7292 5.375 11.6875V11.375C5.41667 10.9792 5.625 10.7708 6 10.75ZM3 7H5.5C5.8125 7.02083 5.97917 7.1875 6 7.5C5.97917 7.8125 5.8125 7.97917 5.5 8H3C2.6875 7.97917 2.52083 7.8125 2.5 7.5C2.52083 7.1875 2.6875 7.02083 3 7ZM3 9H5.5C5.8125 9.02083 5.97917 9.1875 6 9.5C5.97917 9.8125 5.8125 9.97917 5.5 10H3C2.6875 9.97917 2.52083 9.8125 2.5 9.5C2.52083 9.1875 2.6875 9.02083 3 9Z" fill="black" fill-opacity="0.72"/>
</g>
<defs>
<clipPath id="clip0_1731_4034">
<rect width="12" height="24" fill="white"/>
</clipPath>
</defs>
</svg>
