<svg width="16" height="24" viewBox="0 0 16 24" fill="none" xmlns="http://www.w3.org/2000/svg">
<g id="label-paired / md / chart-candlestick-md / regular" clip-path="url(#clip0_1731_3773)">
<path id="icon" d="M1 5.5V16.5C1.02083 16.9167 1.16667 17.2708 1.4375 17.5625C1.72917 17.8333 2.08333 17.9792 2.5 18H15.5C15.8125 18.0208 15.9792 18.1875 16 18.5C15.9792 18.8125 15.8125 18.9792 15.5 19H2.5C1.79167 18.9792 1.19792 18.7396 0.71875 18.2812C0.260417 17.8021 0.0208333 17.2083 0 16.5V5.5C0.0208333 5.1875 0.1875 5.02083 0.5 5C0.8125 5.02083 0.979167 5.1875 1 5.5ZM10 5.5V7C10 7.02083 10 7.03125 10 7.03125C10.2917 7.09375 10.5312 7.23958 10.7188 7.46875C10.9062 7.67708 11 7.9375 11 8.25V10.75C10.9583 11.3958 10.625 11.8021 10 11.9688C10 11.9688 10 11.9792 10 12V13.5C9.97917 13.8125 9.8125 13.9792 9.5 14C9.1875 13.9792 9.02083 13.8125 9 13.5V12C9 11.9792 9 11.9688 9 11.9688C8.70833 11.9062 8.46875 11.7604 8.28125 11.5312C8.09375 11.3229 8 11.0625 8 10.75V8.25C8.04167 7.60417 8.375 7.19792 9 7.03125C9 7.03125 9 7.02083 9 7V5.5C9.02083 5.1875 9.1875 5.02083 9.5 5C9.8125 5.02083 9.97917 5.1875 10 5.5ZM5.5 6C5.8125 6.02083 5.97917 6.1875 6 6.5V8C6 8.02083 6 8.03125 6 8.03125C6.29167 8.09375 6.53125 8.23958 6.71875 8.46875C6.90625 8.67708 7 8.9375 7 9.25V12.75C6.95833 13.3958 6.625 13.8021 6 13.9688C6 13.9688 6 13.9792 6 14V15.5C5.97917 15.8125 5.8125 15.9792 5.5 16C5.1875 15.9792 5.02083 15.8125 5 15.5V14C5 13.9792 5 13.9688 5 13.9688C4.70833 13.9062 4.46875 13.7604 4.28125 13.5312C4.09375 13.3229 4 13.0625 4 12.75V9.25C4.04167 8.60417 4.375 8.19792 5 8.03125C5 8.03125 5 8.02083 5 8V6.5C5.02083 6.1875 5.1875 6.02083 5.5 6ZM10 8.25C9.97917 8.10417 9.89583 8.02083 9.75 8H9.25C9.10417 8.02083 9.02083 8.10417 9 8.25V10.75C9.02083 10.8958 9.10417 10.9792 9.25 11H9.75C9.89583 10.9792 9.97917 10.8958 10 10.75V8.25ZM13.25 11C13.1042 11.0208 13.0208 11.1042 13 11.25V12.75C13.0208 12.8958 13.1042 12.9792 13.25 13H13.75C13.8958 12.9792 13.9792 12.8958 14 12.75V11.25C13.9792 11.1042 13.8958 11.0208 13.75 11H13.25ZM13 10V8.5C13.0208 8.1875 13.1875 8.02083 13.5 8C13.8125 8.02083 13.9792 8.1875 14 8.5V10C14 10.0208 14 10.0312 14 10.0312C14.2917 10.0938 14.5312 10.2396 14.7188 10.4688C14.9062 10.6771 15 10.9375 15 11.25V12.75C14.9583 13.3958 14.625 13.8021 14 13.9688C14 13.9688 14 13.9792 14 14V15.5C13.9792 15.8125 13.8125 15.9792 13.5 16C13.1875 15.9792 13.0208 15.8125 13 15.5V14C13 13.9792 13 13.9688 13 13.9688C12.7083 13.9062 12.4688 13.7604 12.2812 13.5312C12.0938 13.3229 12 13.0625 12 12.75V11.25C12.0417 10.6042 12.375 10.1979 13 10.0312C13 10.0312 13 10.0208 13 10ZM5.75 9H5.25C5.10417 9.02083 5.02083 9.10417 5 9.25V12.75C5.02083 12.8958 5.10417 12.9792 5.25 13H5.75C5.89583 12.9792 5.97917 12.8958 6 12.75V9.25C5.97917 9.10417 5.89583 9.02083 5.75 9Z" fill="black" fill-opacity="0.72"/>
</g>
<defs>
<clipPath id="clip0_1731_3773">
<rect width="16" height="24" fill="white"/>
</clipPath>
</defs>
</svg>
