<svg width="16" height="24" viewBox="0 0 16 24" fill="none" xmlns="http://www.w3.org/2000/svg">
<g id="label-paired / md / clone-md / bold" clip-path="url(#clip0_1731_3964)">
<path id="icon" d="M2 18.5H9C9.3125 18.4792 9.47917 18.3125 9.5 18V16H11V18C10.9792 18.5625 10.7812 19.0312 10.4062 19.4062C10.0312 19.7812 9.5625 19.9792 9 20H2C1.4375 19.9792 0.96875 19.7812 0.59375 19.4062C0.21875 19.0312 0.0208333 18.5625 0 18V11C0.0208333 10.4375 0.21875 9.96875 0.59375 9.59375C0.96875 9.21875 1.4375 9.02083 2 9H4V10.5H2C1.6875 10.5208 1.52083 10.6875 1.5 11V18C1.52083 18.3125 1.6875 18.4792 2 18.5ZM7 13.5H14C14.3125 13.4792 14.4792 13.3125 14.5 13V6C14.4792 5.6875 14.3125 5.52083 14 5.5H7C6.6875 5.52083 6.52083 5.6875 6.5 6V13C6.52083 13.3125 6.6875 13.4792 7 13.5ZM5 13V6C5.02083 5.4375 5.21875 4.96875 5.59375 4.59375C5.96875 4.21875 6.4375 4.02083 7 4H14C14.5625 4.02083 15.0312 4.21875 15.4062 4.59375C15.7812 4.96875 15.9792 5.4375 16 6V13C15.9792 13.5625 15.7812 14.0312 15.4062 14.4062C15.0312 14.7812 14.5625 14.9792 14 15H7C6.4375 14.9792 5.96875 14.7812 5.59375 14.4062C5.21875 14.0312 5.02083 13.5625 5 13Z" fill="black" fill-opacity="0.72"/>
</g>
<defs>
<clipPath id="clip0_1731_3964">
<rect width="16" height="24" fill="white"/>
</clipPath>
</defs>
</svg>
