<svg width="20" height="24" viewBox="0 0 20 24" fill="none" xmlns="http://www.w3.org/2000/svg">
<g id="label-paired / md / deriv-md" clip-path="url(#clip0_1731_13970)">
<path id="icon" d="M13.25 4.53125L16.375 4L14.1875 16.5C13.8438 18.4375 12 20 10.0312 20H7.65625C4.96875 20 3.1875 17.8438 3.65625 15.1875L3.875 14.0312C4.34375 11.375 6.875 9.1875 9.5625 9.1875H12.4062L13.25 4.53125ZM11.2188 16.0625L11.9062 12.0625H9.40625C8.1875 12.0625 7.0625 13.0625 6.84375 14.25L6.71875 14.9688C6.5 16.1562 7.3125 17.125 8.5 17.125H9.96875C10.5625 17.125 11.0938 16.6562 11.2188 16.0625Z" fill="black" fill-opacity="0.72"/>
</g>
<defs>
<clipPath id="clip0_1731_13970">
<rect width="20" height="24" fill="white"/>
</clipPath>
</defs>
</svg>
