<svg width="13" height="22" viewBox="0 0 13 22" fill="none" xmlns="http://www.w3.org/2000/svg">
<g id="label-paired / sm / ellipsis-sm / regular" clip-path="url(#clip0_1731_1987)">
<path id="icon" d="M11.75 10.75C11.75 11.0052 11.668 11.2148 11.5039 11.3789C11.3398 11.543 11.1302 11.625 10.875 11.625C10.6198 11.625 10.4102 11.543 10.2461 11.3789C10.082 11.2148 10 11.0052 10 10.75C10 10.4948 10.082 10.2852 10.2461 10.1211C10.4102 9.95703 10.6198 9.875 10.875 9.875C11.1302 9.875 11.3398 9.95703 11.5039 10.1211C11.668 10.2852 11.75 10.4948 11.75 10.75ZM7.375 10.75C7.375 11.0052 7.29297 11.2148 7.12891 11.3789C6.96484 11.543 6.75521 11.625 6.5 11.625C6.24479 11.625 6.03516 11.543 5.87109 11.3789C5.70703 11.2148 5.625 11.0052 5.625 10.75C5.625 10.4948 5.70703 10.2852 5.87109 10.1211C6.03516 9.95703 6.24479 9.875 6.5 9.875C6.75521 9.875 6.96484 9.95703 7.12891 10.1211C7.29297 10.2852 7.375 10.4948 7.375 10.75ZM2.125 11.625C1.86979 11.625 1.66016 11.543 1.49609 11.3789C1.33203 11.2148 1.25 11.0052 1.25 10.75C1.25 10.4948 1.33203 10.2852 1.49609 10.1211C1.66016 9.95703 1.86979 9.875 2.125 9.875C2.38021 9.875 2.58984 9.95703 2.75391 10.1211C2.91797 10.2852 3 10.4948 3 10.75C3 11.0052 2.91797 11.2148 2.75391 11.3789C2.58984 11.543 2.38021 11.625 2.125 11.625Z" fill="black" fill-opacity="0.72"/>
</g>
<defs>
<clipPath id="clip0_1731_1987">
<rect width="13" height="22" fill="white"/>
</clipPath>
</defs>
</svg>
