<svg width="18" height="36" viewBox="0 0 18 36" fill="none" xmlns="http://www.w3.org/2000/svg">
<g id="label-paired / xl / file-chart-column-xl / bold" clip-path="url(#clip0_1731_6295)">
<path id="icon" d="M2.25 27C2.28125 27.4688 2.53125 27.7188 3 27.75H15C15.4688 27.7188 15.7188 27.4688 15.75 27V13.5H12C11.5625 13.5 11.2031 13.3594 10.9219 13.0781C10.6406 12.7969 10.5 12.4375 10.5 12V8.25H3C2.53125 8.28125 2.28125 8.53125 2.25 9V27ZM3 6H10.7812C11.5938 6 12.2969 6.29687 12.8906 6.89062L17.1094 11.1094C17.7031 11.7031 18 12.4219 18 13.2656V27C17.9688 27.8438 17.6719 28.5469 17.1094 29.1094C16.5469 29.6719 15.8438 29.9688 15 30H3C2.15625 29.9688 1.45312 29.6719 0.890625 29.1094C0.328125 28.5469 0.03125 27.8438 0 27V9C0.03125 8.15625 0.328125 7.45312 0.890625 6.89062C1.45312 6.32812 2.15625 6.03125 3 6ZM10.125 19.125V25.125C10.0625 25.8125 9.6875 26.1875 9 26.25C8.3125 26.1875 7.9375 25.8125 7.875 25.125V19.125C7.9375 18.4375 8.3125 18.0625 9 18C9.6875 18.0625 10.0625 18.4375 10.125 19.125ZM14.25 20.625V25.125C14.1875 25.8125 13.8125 26.1875 13.125 26.25C12.4375 26.1875 12.0625 25.8125 12 25.125V20.625C12.0625 19.9375 12.4375 19.5625 13.125 19.5C13.8125 19.5625 14.1875 19.9375 14.25 20.625ZM6 22.125V25.125C5.9375 25.8125 5.5625 26.1875 4.875 26.25C4.1875 26.1875 3.8125 25.8125 3.75 25.125V22.125C3.8125 21.4375 4.1875 21.0625 4.875 21C5.5625 21.0625 5.9375 21.4375 6 22.125Z" fill="black" fill-opacity="0.72"/>
</g>
<defs>
<clipPath id="clip0_1731_6295">
<rect width="18" height="36" fill="white"/>
</clipPath>
</defs>
</svg>
