<svg width="27" height="36" viewBox="0 0 27 36" fill="none" xmlns="http://www.w3.org/2000/svg">
<g id="label-paired / xl / star-xl / regular" clip-path="url(#clip0_1731_5846)">
<path id="icon" d="M10.6406 13.9219C10.3906 14.3906 10 14.6719 9.46875 14.7656L3.04688 15.7031L7.73438 20.3438C8.07812 20.6875 8.21875 21.125 8.15625 21.6562L7.03125 28.1719L12.7969 25.125C13.2656 24.875 13.7344 24.875 14.2031 25.125L19.9688 28.1719L18.8438 21.6562C18.7812 21.125 18.9219 20.6875 19.2656 20.3438L23.9531 15.7031L17.4844 14.7656C16.9844 14.6719 16.6094 14.3906 16.3594 13.9219L13.5 7.96875L10.6406 13.9219ZM19.9219 29.8594L13.5 26.4375L7.07812 29.8594C6.67188 30.0781 6.28125 30.0469 5.90625 29.7656C5.53125 29.4844 5.375 29.125 5.4375 28.6875L6.65625 21.375L1.45312 16.2188C1.14062 15.9062 1.04688 15.5312 1.17188 15.0938C1.32812 14.6562 1.64062 14.4062 2.10938 14.3438L9.28125 13.2656L12.4688 6.65625C12.6875 6.25 13.0312 6.03125 13.5 6C13.9688 6.03125 14.3125 6.25 14.5312 6.65625L17.7188 13.2656L24.8906 14.2969C25.3594 14.3906 25.6719 14.6562 25.8281 15.0938C25.9531 15.5312 25.8594 15.9062 25.5469 16.2188L20.3438 21.375L21.5625 28.6875C21.625 29.125 21.4688 29.4844 21.0938 29.7656C20.7188 30.0469 20.3281 30.0781 19.9219 29.8594Z" fill="black" fill-opacity="0.72"/>
</g>
<defs>
<clipPath id="clip0_1731_5846">
<rect width="27" height="36" fill="white"/>
</clipPath>
</defs>
</svg>
