<svg width="18" height="22" viewBox="0 0 18 22" fill="none" xmlns="http://www.w3.org/2000/svg">
<g id="label-paired / sm / harmony-os-sm" clip-path="url(#clip0_1731_13869)">
<path id="icon" d="M4.84375 3.75H13.1289C14.7148 3.75 16 5.03516 16 6.62109V14.9062C16 16.4922 14.7148 17.75 13.1289 17.75H4.84375C3.25781 17.75 2 16.4922 2 14.9062V6.62109C2 5.03516 3.25781 3.75 4.84375 3.75ZM5.39062 6.97656V10.1211H6.01953V8.78125H7.38672V10.1211H7.98828V6.97656H7.38672V8.20703H6.01953V6.97656H5.39062ZM9.65625 6.97656V10.1211H10.2578V8.5625L10.2031 8.04297H10.2578L11.0781 9.4375H11.4336L12.2812 8.04297H12.3086L12.2812 8.5625V10.1211H12.8828V6.97656H12.2812L11.2695 8.61719H11.2422L10.2578 6.97656H9.65625ZM10.8867 14.5781C11.0234 14.6055 11.1602 14.6328 11.2969 14.6328C11.4336 14.6328 11.5703 14.6055 11.707 14.5781C11.8438 14.5234 11.9531 14.4688 12.0625 14.3867C12.1719 14.3047 12.2539 14.2227 12.3359 14.1133C12.3906 13.9766 12.4453 13.8398 12.4453 13.6758C12.4453 13.5391 12.418 13.4297 12.3633 13.3203C12.3359 13.2383 12.2812 13.1289 12.1992 13.0469C12.1172 12.9648 12.0078 12.9102 11.8984 12.8555C11.7891 12.8008 11.6797 12.7461 11.543 12.6914L11.3516 12.6367C11.1602 12.582 11.0234 12.5 10.9141 12.4453C10.832 12.3906 10.8047 12.3086 10.8047 12.1992C10.8047 12.1172 10.832 12.0352 10.9414 11.9805C11.0234 11.8984 11.1328 11.8711 11.2695 11.8711C11.4062 11.8711 11.5156 11.9258 11.5977 11.9805C11.6797 12.0625 11.7344 12.1445 11.7617 12.2266L12.3359 12.0078C12.3086 11.9258 12.2539 11.8711 12.1992 11.7891C12.1719 11.707 12.0898 11.625 12.0078 11.5703C11.9258 11.4883 11.8164 11.4336 11.6797 11.4062C11.5703 11.3516 11.4336 11.3516 11.2695 11.3516C11.1055 11.3516 10.9414 11.3516 10.832 11.4062C10.6953 11.4609 10.5859 11.5156 10.4766 11.5977C10.3945 11.6797 10.3125 11.7617 10.2578 11.8711C10.2031 11.9805 10.1758 12.0898 10.1758 12.2266C10.1758 12.3359 10.2031 12.4453 10.2578 12.5547C10.3125 12.6367 10.3672 12.7188 10.4492 12.8008C10.5039 12.8555 10.5859 12.9375 10.6953 12.9648C10.7773 13.0195 10.8594 13.0742 10.9688 13.1016L11.1602 13.1562C11.2969 13.2109 11.3789 13.2383 11.4609 13.293C11.543 13.3203 11.625 13.3477 11.6797 13.4023C11.707 13.4297 11.7617 13.4844 11.7891 13.5391C11.7891 13.5664 11.8164 13.6211 11.8164 13.6758C11.8164 13.7578 11.7891 13.8125 11.7617 13.8398C11.7344 13.8945 11.707 13.9219 11.6523 13.9766C11.5977 14.0039 11.5703 14.0312 11.4883 14.0312C11.4336 14.0586 11.3789 14.0586 11.2969 14.0586C11.1328 14.0586 10.9961 14.0039 10.8867 13.8945C10.7773 13.8125 10.6953 13.6758 10.668 13.5117L10.0664 13.7305C10.1211 13.8672 10.1758 14.0039 10.2578 14.1133C10.3398 14.2227 10.4219 14.3047 10.5312 14.3867C10.6406 14.4688 10.7773 14.5234 10.8867 14.5781ZM6.70312 14.6328C6.92188 14.6328 7.14062 14.5781 7.33203 14.4961C7.52344 14.4141 7.6875 14.3047 7.85156 14.1406C7.98828 14.0039 8.09766 13.8125 8.17969 13.6211C8.26172 13.4297 8.28906 13.2109 8.28906 12.9922C8.28906 12.7461 8.26172 12.5273 8.17969 12.3359C8.09766 12.1445 7.98828 11.9531 7.85156 11.8164C7.6875 11.6797 7.52344 11.543 7.33203 11.4609C7.14062 11.3789 6.92188 11.3516 6.70312 11.3516C6.48438 11.3516 6.26562 11.3789 6.07422 11.4609C5.85547 11.543 5.69141 11.6797 5.55469 11.8164C5.41797 11.9531 5.30859 12.1445 5.22656 12.3359C5.14453 12.5273 5.08984 12.7461 5.08984 12.9922C5.08984 13.2109 5.14453 13.4297 5.22656 13.6211C5.30859 13.8125 5.41797 14.0039 5.55469 14.1406C5.69141 14.3047 5.85547 14.4141 6.07422 14.4961C6.26562 14.5781 6.48438 14.6328 6.70312 14.6328ZM6.70312 14.0586C6.56641 14.0586 6.42969 14.0312 6.29297 13.9766C6.18359 13.9219 6.07422 13.8672 5.96484 13.7578C5.88281 13.6758 5.80078 13.5664 5.74609 13.4297C5.69141 13.293 5.66406 13.1289 5.66406 12.9922C5.66406 12.8281 5.69141 12.6641 5.74609 12.5273C5.80078 12.418 5.88281 12.2812 5.96484 12.1992C6.07422 12.1172 6.18359 12.0352 6.29297 11.9805C6.42969 11.9258 6.56641 11.8984 6.70312 11.8984C6.83984 11.8984 6.97656 11.9258 7.08594 11.9805C7.22266 12.0352 7.33203 12.1172 7.41406 12.1992C7.52344 12.2812 7.57812 12.418 7.63281 12.5273C7.6875 12.6641 7.71484 12.8281 7.71484 12.9922C7.71484 13.1289 7.6875 13.293 7.63281 13.4297C7.57812 13.5664 7.52344 13.6758 7.41406 13.7578C7.33203 13.8672 7.22266 13.9219 7.08594 13.9766C6.97656 14.0312 6.83984 14.0586 6.70312 14.0586ZM5.52734 14.9062V14.9336V15.4531H7.82422V14.9062H5.52734Z" fill="black" fill-opacity="0.72"/>
</g>
<defs>
<clipPath id="clip0_1731_13869">
<rect width="18" height="22" fill="white"/>
</clipPath>
</defs>
</svg>
