<svg width="23" height="30" viewBox="0 0 23 30" fill="none" xmlns="http://www.w3.org/2000/svg">
<g id="label-paired / lg / arrow-down-a-z-lg / regular" clip-path="url(#clip0_1731_4604)">
<path id="icon" d="M10.6797 20.3047L6.92969 24.0547C6.64323 24.3151 6.35677 24.3151 6.07031 24.0547L2.32031 20.3047C2.0599 20.0182 2.0599 19.7318 2.32031 19.4453C2.60677 19.1849 2.89323 19.1849 3.17969 19.4453L5.875 22.1016V7.375C5.90104 6.98438 6.10938 6.77604 6.5 6.75C6.89062 6.77604 7.09896 6.98438 7.125 7.375V22.1016L9.82031 19.4453C10.1068 19.1849 10.3932 19.1849 10.6797 19.4453C10.9401 19.7318 10.9401 20.0182 10.6797 20.3047ZM17.0469 7.10156L19.5469 12.0625C19.5469 12.0885 19.5469 12.1016 19.5469 12.1016L20.1719 13.3516C20.3281 13.6901 20.237 13.9635 19.8984 14.1719C19.5339 14.3281 19.2604 14.237 19.0781 13.8984L18.6094 13H14.3906L13.9219 13.8984C13.7135 14.237 13.4401 14.3281 13.1016 14.1719C12.763 13.9896 12.6719 13.7161 12.8281 13.3516L13.4141 12.1016C13.4401 12.1016 13.4531 12.1016 13.4531 12.1016L15.9531 7.10156C16.0573 6.86719 16.2396 6.75 16.5 6.75C16.7604 6.75 16.9427 6.86719 17.0469 7.10156ZM16.5 8.78125L15.0156 11.75H17.9844L16.5 8.78125ZM14 16.75H19C19.2604 16.75 19.4427 16.8672 19.5469 17.1016C19.651 17.3359 19.638 17.5573 19.5078 17.7656L15.2891 23H19C19.3906 23.026 19.599 23.2344 19.625 23.625C19.599 24.0156 19.3906 24.224 19 24.25H14C13.7396 24.25 13.5573 24.1328 13.4531 23.8984C13.349 23.6641 13.375 23.4427 13.5312 23.2344L17.7109 18H14C13.6094 17.974 13.401 17.7656 13.375 17.375C13.401 16.9844 13.6094 16.776 14 16.75Z" fill="black" fill-opacity="0.72"/>
</g>
<defs>
<clipPath id="clip0_1731_4604">
<rect width="23" height="30" fill="white"/>
</clipPath>
</defs>
</svg>
