<svg width="16" height="24" viewBox="0 0 16 24" fill="none" xmlns="http://www.w3.org/2000/svg">
<g id="label-paired / md / circle-arrow-up-left-md / bold" clip-path="url(#clip0_1731_3482)">
<path id="icon" d="M8 5.5C6.8125 5.5 5.72917 5.79167 4.75 6.375C3.77083 6.9375 2.97917 7.72917 2.375 8.75C1.79167 9.77083 1.5 10.8542 1.5 12C1.5 13.1458 1.79167 14.2292 2.375 15.25C2.97917 16.2708 3.77083 17.0625 4.75 17.625C5.72917 18.2083 6.8125 18.5 8 18.5C9.1875 18.5 10.2708 18.2083 11.25 17.625C12.2292 17.0625 13.0208 16.2708 13.625 15.25C14.2083 14.2292 14.5 13.1458 14.5 12C14.5 10.8542 14.2083 9.77083 13.625 8.75C13.0208 7.72917 12.2292 6.9375 11.25 6.375C10.2708 5.79167 9.1875 5.5 8 5.5ZM8 20C6.54167 19.9792 5.20833 19.625 4 18.9375C2.79167 18.2292 1.8125 17.25 1.0625 16C0.354167 14.7292 0 13.3958 0 12C0 10.6042 0.354167 9.27083 1.0625 8C1.8125 6.75 2.79167 5.77083 4 5.0625C5.20833 4.375 6.54167 4.02083 8 4C9.45833 4.02083 10.7917 4.375 12 5.0625C13.2083 5.77083 14.1875 6.75 14.9375 8C15.6458 9.27083 16 10.6042 16 12C16 13.3958 15.6458 14.7292 14.9375 16C14.1875 17.25 13.2083 18.2292 12 18.9375C10.7917 19.625 9.45833 19.9792 8 20ZM10 8.5C10.4583 8.54167 10.7083 8.79167 10.75 9.25C10.7083 9.70833 10.4583 9.95833 10 10H7.0625L11.2812 14.2188C11.5729 14.5729 11.5729 14.9271 11.2812 15.2812C10.9271 15.5729 10.5729 15.5729 10.2188 15.2812L6 11.0625V14.25C5.95833 14.7083 5.70833 14.9583 5.25 15C4.79167 14.9583 4.54167 14.7083 4.5 14.25V9.25C4.54167 8.79167 4.79167 8.54167 5.25 8.5H10Z" fill="black" fill-opacity="0.72"/>
</g>
<defs>
<clipPath id="clip0_1731_3482">
<rect width="16" height="24" fill="white"/>
</clipPath>
</defs>
</svg>
