<svg width="8" height="18" viewBox="0 0 8 18" fill="none" xmlns="http://www.w3.org/2000/svg">
<g id="label-paired / caption / nine-caption / regular" clip-path="url(#clip0_1731_1035)">
<path id="icon" d="M1 8C1.01562 8.84375 1.30469 9.55469 1.86719 10.1328C2.44531 10.6953 3.15625 10.9844 4 11C4.84375 10.9844 5.54688 10.7031 6.10938 10.1562C6.65625 9.59375 6.95312 8.89844 7 8.07031C7 8.05469 7 8.04688 7 8.04688C7 8.03125 7 8.01562 7 8C6.98438 7.15625 6.69531 6.44531 6.13281 5.86719C5.55469 5.30469 4.84375 5.01562 4 5C3.15625 5.01562 2.44531 5.30469 1.86719 5.86719C1.30469 6.44531 1.01562 7.15625 1 8ZM4.77344 11.6797C4.52344 11.7266 4.26562 11.75 4 11.75C2.9375 11.7188 2.05469 11.3516 1.35156 10.6484C0.648438 9.94531 0.28125 9.0625 0.25 8C0.28125 6.9375 0.648438 6.05469 1.35156 5.35156C2.05469 4.64844 2.9375 4.28125 4 4.25C5.0625 4.28125 5.94531 4.64844 6.64844 5.35156C7.35156 6.05469 7.71875 6.9375 7.75 8C7.75 8.04688 7.75 8.09375 7.75 8.14062C7.70312 9.04688 7.38281 9.85156 6.78906 10.5547L3.15625 14.6328C2.98438 14.7891 2.80469 14.7969 2.61719 14.6562C2.46094 14.4844 2.45312 14.3047 2.59375 14.1172L4.77344 11.6797Z" fill="black" fill-opacity="0.72"/>
</g>
<defs>
<clipPath id="clip0_1731_1035">
<rect width="8" height="18" fill="white"/>
</clipPath>
</defs>
</svg>
