<svg width="15" height="36" viewBox="0 0 15 36" fill="none" xmlns="http://www.w3.org/2000/svg">
<g id="label-paired / xl / sterling-sign-xl / bold" clip-path="url(#clip0_1731_6745)">
<path id="icon" d="M4.5 13.4531V16.5H10.875C11.5625 16.5625 11.9375 16.9375 12 17.625C11.9375 18.3125 11.5625 18.6875 10.875 18.75H4.5V21.7031C4.5 22.9219 4.20312 24.0625 3.60938 25.125L3 26.25H13.875C14.5625 26.3125 14.9375 26.6875 15 27.375C14.9375 28.0625 14.5625 28.4375 13.875 28.5H1.125C0.71875 28.5 0.390625 28.3125 0.140625 27.9375C-0.046875 27.5938 -0.046875 27.2344 0.140625 26.8594L1.64062 24.0469C2.04688 23.3281 2.25 22.5469 2.25 21.7031V18.75H1.125C0.4375 18.6875 0.0625 18.3125 0 17.625C0.0625 16.9375 0.4375 16.5625 1.125 16.5H2.25V13.4531C2.28125 11.7656 2.85938 10.3594 3.98438 9.23438C5.10938 8.10938 6.51562 7.53125 8.20312 7.5C8.85938 7.5 9.5 7.60937 10.125 7.82812L13.875 9.04688C14.5 9.32812 14.7344 9.8125 14.5781 10.5C14.2969 11.125 13.8125 11.3594 13.125 11.2031L9.375 9.9375C9 9.8125 8.60938 9.75 8.20312 9.75C7.17188 9.78125 6.29688 10.1406 5.57812 10.8281C4.89062 11.5469 4.53125 12.4219 4.5 13.4531Z" fill="black" fill-opacity="0.72"/>
</g>
<defs>
<clipPath id="clip0_1731_6745">
<rect width="15" height="36" fill="white"/>
</clipPath>
</defs>
</svg>
