<svg width="18" height="36" viewBox="0 0 18 36" fill="none" xmlns="http://www.w3.org/2000/svg">
<g id="label-paired / xl / file-invoice-dollar-xl / regular" clip-path="url(#clip0_1731_6548)">
<path id="icon" d="M16.5 27V15H11.25C10.625 14.9688 10.0938 14.75 9.65625 14.3438C9.25 13.9062 9.03125 13.375 9 12.75V7.5H3C2.5625 7.5 2.20312 7.64062 1.92188 7.92188C1.64062 8.20312 1.5 8.5625 1.5 9V27C1.5 27.4375 1.64062 27.7969 1.92188 28.0781C2.20312 28.3594 2.5625 28.5 3 28.5H15C15.4375 28.5 15.7969 28.3594 16.0781 28.0781C16.3594 27.7969 16.5 27.4375 16.5 27ZM16.5 13.5C16.4375 13.375 16.3594 13.2656 16.2656 13.1719L10.8281 7.73438C10.7344 7.64062 10.625 7.57813 10.5 7.54688V12.75C10.5312 13.2188 10.7812 13.4688 11.25 13.5H16.5ZM0 9C0.03125 8.15625 0.328125 7.45312 0.890625 6.89062C1.45312 6.32812 2.15625 6.03125 3 6H10.3125C10.9375 6 11.4688 6.21875 11.9062 6.65625L17.3438 12.0938C17.7812 12.5312 18 13.0625 18 13.6875V27C17.9688 27.8438 17.6719 28.5469 17.1094 29.1094C16.5469 29.6719 15.8438 29.9688 15 30H3C2.15625 29.9688 1.45312 29.6719 0.890625 29.1094C0.328125 28.5469 0.03125 27.8438 0 27V9ZM3 9.75C3.03125 9.28125 3.28125 9.03125 3.75 9H6.75C7.21875 9.03125 7.46875 9.28125 7.5 9.75C7.46875 10.2188 7.21875 10.4688 6.75 10.5H3.75C3.28125 10.4688 3.03125 10.2188 3 9.75ZM3 12.75C3.03125 12.2812 3.28125 12.0312 3.75 12H6.75C7.21875 12.0312 7.46875 12.2812 7.5 12.75C7.46875 13.2188 7.21875 13.4688 6.75 13.5H3.75C3.28125 13.4688 3.03125 13.2188 3 12.75ZM9.75 17.4375V18.0469C10.1562 18.1094 10.5312 18.1875 10.875 18.2812C11.3125 18.4062 11.5 18.7031 11.4375 19.1719C11.2812 19.6094 10.9688 19.7969 10.5 19.7344C9.96875 19.6094 9.46875 19.5312 9 19.5C8.5625 19.5 8.17188 19.5781 7.82812 19.7344C7.57812 19.8906 7.46875 20.0469 7.5 20.2031C7.46875 20.2656 7.57812 20.375 7.82812 20.5312C8.14062 20.6875 8.59375 20.8281 9.1875 20.9531L9.23438 21C9.79688 21.125 10.3594 21.3125 10.9219 21.5625C11.5469 21.875 11.9062 22.4375 12 23.25C11.9375 24.1562 11.5625 24.7656 10.875 25.0781C10.5312 25.2656 10.1562 25.3906 9.75 25.4531V26.1094C9.71875 26.5469 9.46875 26.7969 9 26.8594C8.53125 26.7969 8.28125 26.5469 8.25 26.1094V25.4062C7.75 25.3125 7.28125 25.2031 6.84375 25.0781C6.75 25.0469 6.67188 25.0156 6.60938 24.9844C6.57812 24.9844 6.5625 24.9844 6.5625 24.9844C6.125 24.7969 5.95312 24.4844 6.04688 24.0469C6.20312 23.6094 6.51562 23.4375 6.98438 23.5312C7.07812 23.5625 7.1875 23.5938 7.3125 23.625C7.9375 23.8438 8.51562 23.9688 9.04688 24C9.48438 24 9.85938 23.9219 10.1719 23.7656C10.4219 23.6406 10.5312 23.4844 10.5 23.2969C10.5312 23.1719 10.4219 23.0312 10.1719 22.875C9.85938 22.7188 9.40625 22.5625 8.8125 22.4062H8.71875C8.71875 22.4062 8.70312 22.4062 8.67188 22.4062C8.14062 22.2812 7.625 22.0938 7.125 21.8438C6.46875 21.5625 6.09375 21.0156 6 20.2031C6.09375 19.2969 6.48438 18.7031 7.17188 18.4219C7.51562 18.2344 7.875 18.1094 8.25 18.0469V17.4375C8.3125 16.9688 8.5625 16.7188 9 16.6875C9.46875 16.7188 9.71875 16.9688 9.75 17.4375Z" fill="black" fill-opacity="0.72"/>
</g>
<defs>
<clipPath id="clip0_1731_6548">
<rect width="18" height="36" fill="white"/>
</clipPath>
</defs>
</svg>
