<svg width="18" height="24" viewBox="0 0 18 24" fill="none" xmlns="http://www.w3.org/2000/svg">
<g id="label-paired / md / money-bill-md / regular" clip-path="url(#clip0_1731_4243)">
<path id="icon" d="M15 7C15.0208 7.5625 15.2188 8.03125 15.5938 8.40625C15.9688 8.78125 16.4375 8.97917 17 9V8C17 7.70833 16.9062 7.46875 16.7188 7.28125C16.5312 7.09375 16.2917 7 16 7H15ZM14 7H4C3.97917 7.85417 3.6875 8.5625 3.125 9.125C2.5625 9.6875 1.85417 9.97917 1 10V14C1.85417 14.0208 2.5625 14.3125 3.125 14.875C3.6875 15.4375 3.97917 16.1458 4 17H14C14.0208 16.1458 14.3125 15.4375 14.875 14.875C15.4375 14.3125 16.1458 14.0208 17 14V10C16.1458 9.97917 15.4375 9.6875 14.875 9.125C14.3125 8.5625 14.0208 7.85417 14 7ZM1 16C1 16.2917 1.09375 16.5312 1.28125 16.7188C1.46875 16.9062 1.70833 17 2 17H3C2.97917 16.4375 2.78125 15.9688 2.40625 15.5938C2.03125 15.2188 1.5625 15.0208 1 15V16ZM17 15C16.4375 15.0208 15.9688 15.2188 15.5938 15.5938C15.2188 15.9688 15.0208 16.4375 15 17H16C16.2917 17 16.5312 16.9062 16.7188 16.7188C16.9062 16.5312 17 16.2917 17 16V15ZM2 7C1.70833 7 1.46875 7.09375 1.28125 7.28125C1.09375 7.46875 1 7.70833 1 8V9C1.5625 8.97917 2.03125 8.78125 2.40625 8.40625C2.78125 8.03125 2.97917 7.5625 3 7H2ZM0 8C0.0208333 7.4375 0.21875 6.96875 0.59375 6.59375C0.96875 6.21875 1.4375 6.02083 2 6H16C16.5625 6.02083 17.0312 6.21875 17.4062 6.59375C17.7812 6.96875 17.9792 7.4375 18 8V16C17.9792 16.5625 17.7812 17.0312 17.4062 17.4062C17.0312 17.7812 16.5625 17.9792 16 18H2C1.4375 17.9792 0.96875 17.7812 0.59375 17.4062C0.21875 17.0312 0.0208333 16.5625 0 16V8ZM11 12C10.9792 11.25 10.6458 10.6771 10 10.2812C9.33333 9.90625 8.66667 9.90625 8 10.2812C7.35417 10.6771 7.02083 11.25 7 12C7.02083 12.75 7.35417 13.3229 8 13.7188C8.66667 14.0938 9.33333 14.0938 10 13.7188C10.6458 13.3229 10.9792 12.75 11 12ZM6 12C6 11.4583 6.13542 10.9583 6.40625 10.5C6.67708 10.0417 7.04167 9.67708 7.5 9.40625C7.97917 9.13542 8.47917 9 9 9C9.52083 9 10.0208 9.13542 10.5 9.40625C10.9583 9.67708 11.3229 10.0417 11.5938 10.5C11.8646 10.9583 12 11.4583 12 12C12 12.5417 11.8646 13.0417 11.5938 13.5C11.3229 13.9583 10.9583 14.3229 10.5 14.5938C10.0208 14.8646 9.52083 15 9 15C8.47917 15 7.97917 14.8646 7.5 14.5938C7.04167 14.3229 6.67708 13.9583 6.40625 13.5C6.13542 13.0417 6 12.5417 6 12Z" fill="black" fill-opacity="0.72"/>
</g>
<defs>
<clipPath id="clip0_1731_4243">
<rect width="18" height="24" fill="white"/>
</clipPath>
</defs>
</svg>
