<svg width="24" height="36" viewBox="0 0 24 36" fill="none" xmlns="http://www.w3.org/2000/svg">
<g id="label-paired / xl / search-xl / bold" clip-path="url(#clip0_1731_5653)">
<path id="icon" d="M17.25 15.75C17.25 14.4062 16.9219 13.1562 16.2656 12C15.5781 10.8438 14.6562 9.92188 13.5 9.23438C12.3125 8.57812 11.0625 8.25 9.75 8.25C8.4375 8.25 7.1875 8.57812 6 9.23438C4.84375 9.92188 3.92188 10.8438 3.23438 12C2.57812 13.1562 2.25 14.4062 2.25 15.75C2.25 17.0938 2.57812 18.3438 3.23438 19.5C3.92188 20.6562 4.84375 21.5781 6 22.2656C7.1875 22.9219 8.4375 23.25 9.75 23.25C11.0625 23.25 12.3125 22.9219 13.5 22.2656C14.6562 21.5781 15.5781 20.6562 16.2656 19.5C16.9219 18.3438 17.25 17.0938 17.25 15.75ZM15.7969 23.3906C14.1094 24.7656 12.0938 25.4688 9.75 25.5C7 25.4375 4.70312 24.4844 2.85938 22.6406C1.01563 20.7969 0.0625 18.5 0 15.75C0.0625 13 1.01563 10.7031 2.85938 8.85938C4.70312 7.01563 7 6.0625 9.75 6C12.5 6.0625 14.7969 7.01563 16.6406 8.85938C18.4844 10.7031 19.4375 13 19.5 15.75C19.4688 18.0938 18.7656 20.1094 17.3906 21.7969L23.6719 28.0781C24.1094 28.6094 24.1094 29.1406 23.6719 29.6719C23.1406 30.1094 22.6094 30.1094 22.0781 29.6719L15.7969 23.3906Z" fill="black" fill-opacity="0.72"/>
</g>
<defs>
<clipPath id="clip0_1731_5653">
<rect width="24" height="36" fill="white"/>
</clipPath>
</defs>
</svg>
