<svg width="18" height="30" viewBox="0 0 18 30" fill="none" xmlns="http://www.w3.org/2000/svg">
<g id="label-paired / lg / image-polaroid-user-lg / regular" clip-path="url(#clip0_1731_5252)">
<path id="icon" d="M13.375 20.5H12.125H5.875H4.625H1.5V21.75C1.5 22.1146 1.61719 22.4141 1.85156 22.6484C2.08594 22.8828 2.38542 23 2.75 23H15.25C15.6146 23 15.9141 22.8828 16.1484 22.6484C16.3828 22.4141 16.5 22.1146 16.5 21.75V20.5H13.375ZM13.2969 19.25H16.5V9.25C16.5 8.88542 16.3828 8.58594 16.1484 8.35156C15.9141 8.11719 15.6146 8 15.25 8H2.75C2.38542 8 2.08594 8.11719 1.85156 8.35156C1.61719 8.58594 1.5 8.88542 1.5 9.25V19.25H4.70312C4.85938 18.5208 5.21094 17.9219 5.75781 17.4531C6.30469 17.0104 6.96875 16.776 7.75 16.75H9H10.25C11.0312 16.776 11.6953 17.0104 12.2422 17.4531C12.7891 17.9219 13.1406 18.5208 13.2969 19.25ZM5.99219 19.25H12.0078C11.6953 18.4688 11.1094 18.0521 10.25 18H7.75C6.89062 18.0521 6.30469 18.4688 5.99219 19.25ZM17.75 9.25V19.25V19.875V20.5V21.75C17.724 22.4531 17.4766 23.0391 17.0078 23.5078C16.5391 23.9766 15.9531 24.224 15.25 24.25H2.75C2.04688 24.224 1.46094 23.9766 0.992188 23.5078C0.523438 23.0391 0.276042 22.4531 0.25 21.75V20.5V19.875V19.25V9.25C0.276042 8.54688 0.523438 7.96094 0.992188 7.49219C1.46094 7.02344 2.04688 6.77604 2.75 6.75H15.25C15.9531 6.77604 16.5391 7.02344 17.0078 7.49219C17.4766 7.96094 17.724 8.54688 17.75 9.25ZM10.25 13C10.25 12.6354 10.1328 12.3359 9.89844 12.1016C9.66406 11.8672 9.36458 11.75 9 11.75C8.63542 11.75 8.33594 11.8672 8.10156 12.1016C7.86719 12.3359 7.75 12.6354 7.75 13C7.75 13.3646 7.86719 13.6641 8.10156 13.8984C8.33594 14.1328 8.63542 14.25 9 14.25C9.36458 14.25 9.66406 14.1328 9.89844 13.8984C10.1328 13.6641 10.25 13.3646 10.25 13ZM9 10.5C9.9375 10.526 10.6536 10.9427 11.1484 11.75C11.6172 12.5833 11.6172 13.4167 11.1484 14.25C10.6536 15.0573 9.9375 15.474 9 15.5C8.0625 15.474 7.34635 15.0573 6.85156 14.25C6.38281 13.4167 6.38281 12.5833 6.85156 11.75C7.34635 10.9427 8.0625 10.526 9 10.5Z" fill="black" fill-opacity="0.72"/>
</g>
<defs>
<clipPath id="clip0_1731_5252">
<rect width="18" height="30" fill="white"/>
</clipPath>
</defs>
</svg>
