<svg width="15" height="18" viewBox="0 0 15 18" fill="none" xmlns="http://www.w3.org/2000/svg">
<g id="label-paired / caption / chart-trend-up-caption / bold" clip-path="url(#clip0_1885_527)">
<path id="icon" d="M14.4844 3.75781C14.7656 3.89844 14.8828 4.22656 14.7422 4.50781L12.4922 9.00781C12.3984 9.19531 12.2109 9.3125 11.9766 9.3125H8.57812L5.74219 15.0078C5.60156 15.2891 5.27344 15.4062 4.99219 15.2656L0.492188 13.0156C0.210938 12.875 0.09375 12.5469 0.234375 12.2656C0.375 11.9844 0.703125 11.8672 0.984375 12.0078L4.99219 14L7.73438 8.51562C7.82812 8.32812 8.01562 8.1875 8.25 8.1875H11.6484L13.7344 4.01562C13.875 3.73438 14.2031 3.61719 14.4844 3.75781Z" fill="black" fill-opacity="0.72"/>
</g>
<defs>
<clipPath id="clip0_1885_527">
<rect width="15" height="18" fill="white"/>
</clipPath>
</defs>
</svg>
