<svg width="21" height="36" viewBox="0 0 21 36" fill="none" xmlns="http://www.w3.org/2000/svg">
<g id="label-paired / xl / tablet-screen-xl / regular" clip-path="url(#clip0_1731_6411)">
<path id="icon" d="M18 7.5H3C2.5625 7.5 2.20312 7.64062 1.92188 7.92188C1.64062 8.20312 1.5 8.5625 1.5 9V21H19.5V9C19.5 8.5625 19.3594 8.20312 19.0781 7.92188C18.7969 7.64062 18.4375 7.5 18 7.5ZM19.5 22.5H1.5V27C1.5 27.4375 1.64062 27.7969 1.92188 28.0781C2.20312 28.3594 2.5625 28.5 3 28.5H18C18.4375 28.5 18.7969 28.3594 19.0781 28.0781C19.3594 27.7969 19.5 27.4375 19.5 27V22.5ZM3 6H18C18.8438 6.03125 19.5469 6.32812 20.1094 6.89062C20.6719 7.45312 20.9688 8.15625 21 9V27C20.9688 27.8438 20.6719 28.5469 20.1094 29.1094C19.5469 29.6719 18.8438 29.9688 18 30H3C2.15625 29.9688 1.45312 29.6719 0.890625 29.1094C0.328125 28.5469 0.03125 27.8438 0 27V9C0.03125 8.15625 0.328125 7.45312 0.890625 6.89062C1.45312 6.32812 2.15625 6.03125 3 6ZM8.25 25.5C8.28125 25.0312 8.53125 24.7812 9 24.75H12C12.4688 24.7812 12.7188 25.0312 12.75 25.5C12.7188 25.9688 12.4688 26.2188 12 26.25H9C8.53125 26.2188 8.28125 25.9688 8.25 25.5Z" fill="black" fill-opacity="0.72"/>
</g>
<defs>
<clipPath id="clip0_1731_6411">
<rect width="21" height="36" fill="white"/>
</clipPath>
</defs>
</svg>
