<svg width="16" height="22" viewBox="0 0 16 22" fill="none" xmlns="http://www.w3.org/2000/svg">
<g id="label-paired / sm / arrow-up-one-nine-sm / regular" clip-path="url(#clip0_1731_2404)">
<path id="icon" d="M12.375 5.0625V9H13.25C13.5234 9.01823 13.6693 9.16406 13.6875 9.4375C13.6693 9.71094 13.5234 9.85677 13.25 9.875H11.9375H10.625C10.3516 9.85677 10.2057 9.71094 10.1875 9.4375C10.2057 9.16406 10.3516 9.01823 10.625 9H11.5V5.66406L10.7617 5.91016C10.5065 5.96484 10.3242 5.8737 10.2148 5.63672C10.1602 5.38151 10.2513 5.19922 10.4883 5.08984L11.8008 4.65234C11.9466 4.59766 12.0742 4.61589 12.1836 4.70703C12.3112 4.79818 12.375 4.91667 12.375 5.0625ZM4.80078 4.76172L7.42578 7.38672C7.60807 7.58724 7.60807 7.78776 7.42578 7.98828C7.22526 8.17057 7.02474 8.17057 6.82422 7.98828L4.9375 6.12891V16.4375C4.91927 16.7109 4.77344 16.8568 4.5 16.875C4.22656 16.8568 4.08073 16.7109 4.0625 16.4375V6.12891L2.17578 7.98828C1.97526 8.17057 1.77474 8.17057 1.57422 7.98828C1.39193 7.78776 1.39193 7.58724 1.57422 7.38672L4.19922 4.76172C4.39974 4.57943 4.60026 4.57943 4.80078 4.76172ZM11.8281 14.4688C12.3568 14.4505 12.7669 14.2135 13.0586 13.7578C13.3138 13.2839 13.3138 12.8099 13.0586 12.3359C12.7669 11.8802 12.3568 11.6432 11.8281 11.625C11.2995 11.6432 10.8893 11.8802 10.5977 12.3359C10.3424 12.8099 10.3424 13.2839 10.5977 13.7578C10.8893 14.2135 11.2995 14.4505 11.8281 14.4688ZM9.53125 13.0469C9.54948 12.3906 9.77734 11.8529 10.2148 11.4336C10.6341 10.9961 11.1719 10.7682 11.8281 10.75C12.4844 10.7682 13.0221 10.9961 13.4414 11.4336C13.8789 11.8529 14.1068 12.3906 14.125 13.0469C14.125 13.0833 14.125 13.1198 14.125 13.1562C14.125 13.7578 13.9336 14.2865 13.5508 14.7422L11.8281 16.7383C11.6458 16.9206 11.4453 16.9297 11.2266 16.7656C11.026 16.5833 11.0078 16.3828 11.1719 16.1641L11.8555 15.3438C11.8372 15.3438 11.8281 15.3438 11.8281 15.3438C11.1719 15.3255 10.6341 15.0977 10.2148 14.6602C9.77734 14.2409 9.54948 13.7031 9.53125 13.0469Z" fill="black" fill-opacity="0.72"/>
</g>
<defs>
<clipPath id="clip0_1731_2404">
<rect width="16" height="22" fill="white"/>
</clipPath>
</defs>
</svg>
