<svg width="18" height="36" viewBox="0 0 18 36" fill="none" xmlns="http://www.w3.org/2000/svg">
<g id="label-paired / xl / percent-xl / bold" clip-path="url(#clip0_1731_6515)">
<path id="icon" d="M17.2969 11.2969L2.29688 26.2969C1.76562 26.7344 1.23438 26.7344 0.703125 26.2969C0.265625 25.7656 0.265625 25.2344 0.703125 24.7031L15.7031 9.70312C16.2344 9.26562 16.7656 9.26562 17.2969 9.70312C17.7344 10.2344 17.7344 10.7656 17.2969 11.2969ZM5.25 12C5.21875 12.8438 4.84375 13.5 4.125 13.9688C3.375 14.3438 2.625 14.3438 1.875 13.9688C1.15625 13.5 0.78125 12.8438 0.75 12C0.78125 11.1562 1.15625 10.5 1.875 10.0312C2.625 9.65625 3.375 9.65625 4.125 10.0312C4.84375 10.5 5.21875 11.1562 5.25 12ZM17.25 24C17.2188 24.8438 16.8438 25.5 16.125 25.9688C15.375 26.3438 14.625 26.3438 13.875 25.9688C13.1562 25.5 12.7812 24.8438 12.75 24C12.7812 23.1562 13.1562 22.5 13.875 22.0312C14.625 21.6562 15.375 21.6562 16.125 22.0312C16.8438 22.5 17.2188 23.1562 17.25 24Z" fill="black" fill-opacity="0.72"/>
</g>
<defs>
<clipPath id="clip0_1731_6515">
<rect width="18" height="36" fill="white"/>
</clipPath>
</defs>
</svg>
