<svg width="16" height="22" viewBox="0 0 16 22" fill="none" xmlns="http://www.w3.org/2000/svg">
<g id="label-paired / sm / arrow-down-one-nine-sm / regular" clip-path="url(#clip0_1731_2399)">
<path id="icon" d="M12.375 5.0625V9H13.25C13.5234 9.01823 13.6693 9.16406 13.6875 9.4375C13.6693 9.71094 13.5234 9.85677 13.25 9.875H11.9375H10.625C10.3516 9.85677 10.2057 9.71094 10.1875 9.4375C10.2057 9.16406 10.3516 9.01823 10.625 9H11.5V5.66406L10.7617 5.91016C10.5065 5.98307 10.3242 5.89193 10.2148 5.63672C10.1602 5.38151 10.2513 5.19922 10.4883 5.08984L11.8008 4.65234C11.9466 4.61589 12.0742 4.63411 12.1836 4.70703C12.3112 4.79818 12.375 4.91667 12.375 5.0625ZM4.80078 16.7383C4.60026 16.9206 4.39974 16.9206 4.19922 16.7383L1.57422 14.1133C1.39193 13.9128 1.39193 13.7122 1.57422 13.5117C1.77474 13.3294 1.97526 13.3294 2.17578 13.5117L4.0625 15.3711V5.0625C4.08073 4.78906 4.22656 4.64323 4.5 4.625C4.77344 4.64323 4.91927 4.78906 4.9375 5.0625V15.3711L6.82422 13.5117C7.02474 13.3294 7.22526 13.3294 7.42578 13.5117C7.60807 13.7122 7.60807 13.9128 7.42578 14.1133L4.80078 16.7383ZM11.8281 11.625C11.2995 11.6432 10.8893 11.8802 10.5977 12.3359C10.3424 12.8099 10.3424 13.2839 10.5977 13.7578C10.8893 14.2135 11.2995 14.4505 11.8281 14.4688C12.3568 14.4505 12.7669 14.2135 13.0586 13.7578C13.3138 13.2839 13.3138 12.8099 13.0586 12.3359C12.7669 11.8802 12.3568 11.6432 11.8281 11.625ZM9.53125 13.0469C9.54948 12.3906 9.77734 11.8529 10.2148 11.4336C10.6341 10.9961 11.1719 10.7682 11.8281 10.75C12.4844 10.7682 13.0221 10.9961 13.4414 11.4336C13.8789 11.8529 14.1068 12.3906 14.125 13.0469C14.125 13.0833 14.125 13.1198 14.125 13.1562C14.125 13.7578 13.9336 14.2865 13.5508 14.7422L11.8281 16.7109C11.6276 16.9115 11.4271 16.9297 11.2266 16.7656C11.026 16.5651 11.0078 16.3646 11.1719 16.1641L11.8555 15.3438C11.8372 15.3438 11.8281 15.3438 11.8281 15.3438C11.1719 15.3255 10.6341 15.0977 10.2148 14.6602C9.77734 14.2409 9.54948 13.7031 9.53125 13.0469Z" fill="black" fill-opacity="0.72"/>
</g>
<defs>
<clipPath id="clip0_1731_2399">
<rect width="16" height="22" fill="white"/>
</clipPath>
</defs>
</svg>
