<svg width="20" height="24" viewBox="0 0 20 24" fill="none" xmlns="http://www.w3.org/2000/svg">
<g id="label-paired / md / box-archive-circle-arrow-up-md / bold" clip-path="url(#clip0_1731_3232)">
<path id="icon" d="M0 6C0 5.46875 0.4375 5 1 5C5.65625 5 10.3125 5 15 5C15.5312 5 16 5.46875 16 6C16 6.84375 16 7.6875 16 8.5C16 9.0625 15.5312 9.5 15 9.5C10.3125 9.5 5.65625 9.5 1 9.5C0.4375 9.5 0 9.0625 0 8.5C0 7.6875 0 6.84375 0 6ZM1 10.5H2.5C2.5 12.6875 2.5 14.8438 2.5 17C2.5 17.2812 2.71875 17.5 3 17.5C5.4375 17.5 7.90625 17.5 10.375 17.5C10.5625 18.0625 10.875 18.5625 11.25 19C8.5 19 5.75 19 3 19C1.875 19 1 18.125 1 17C1 14.8438 1 12.6875 1 10.5ZM1.5 6.5C1.5 7 1.5 7.5 1.5 8C5.8125 8 10.1562 8 14.5 8C14.5 7.5 14.5 7 14.5 6.5H1.5ZM5 11.75C5 11.3438 5.3125 11 5.75 11C7.25 11 8.75 11 10.25 11C10.6562 11 11 11.3438 11 11.75C11 12.1875 10.6562 12.5 10.25 12.5C8.75 12.5 7.25 12.5 5.75 12.5C5.3125 12.5 5 12.1875 5 11.75ZM11 15.5C11 13.9062 11.8438 12.4062 13.25 11.625C14.625 10.8125 16.3438 10.8125 17.75 11.625C19.125 12.4062 20 13.9062 20 15.5C20 17.125 19.125 18.5938 17.75 19.4062C16.3438 20.2188 14.625 20.2188 13.25 19.4062C11.8438 18.5938 11 17.125 11 15.5ZM13.375 14.9062C13.1875 15.0938 13.1875 15.4375 13.375 15.625C13.5625 15.8125 13.9062 15.8125 14.0938 15.625C14.375 15.3125 14.6875 15.0312 15 14.7188C15 15.6562 15 16.5938 15 17.5C15 17.7812 15.2188 18 15.5 18C15.75 18 16 17.7812 16 17.5C16 16.5938 16 15.6562 16 14.7188C16.2812 15.0312 16.5938 15.3125 16.875 15.625C17.0625 15.8125 17.4062 15.8125 17.5938 15.625C17.7812 15.4375 17.7812 15.0938 17.5938 14.9062C17 14.3125 16.4375 13.75 15.8438 13.1562C15.6562 12.9688 15.3125 12.9688 15.125 13.1562L13.375 14.9062Z" fill="black" fill-opacity="0.72"/>
</g>
<defs>
<clipPath id="clip0_1731_3232">
<rect width="20" height="24" fill="white"/>
</clipPath>
</defs>
</svg>
