<svg width="20" height="24" viewBox="0 0 20 24" fill="none" xmlns="http://www.w3.org/2000/svg">
<g id="label-paired / md / chart-trend-up-md / bold" clip-path="url(#clip0_1885_557)">
<path id="icon" d="M19.3125 4.34375C19.6875 4.53125 19.8438 4.96875 19.6562 5.34375L16.6562 11.3438C16.5312 11.5938 16.2812 11.75 15.9688 11.75H11.4375L7.65625 19.3438C7.46875 19.7188 7.03125 19.875 6.65625 19.6875L0.65625 16.6875C0.28125 16.5 0.125 16.0625 0.3125 15.6875C0.5 15.3125 0.9375 15.1562 1.3125 15.3438L6.65625 18L10.3125 10.6875C10.4375 10.4375 10.6875 10.25 11 10.25H15.5312L18.3125 4.6875C18.5 4.3125 18.9375 4.15625 19.3125 4.34375Z" fill="black" fill-opacity="0.72"/>
</g>
<defs>
<clipPath id="clip0_1885_557">
<rect width="20" height="24" fill="white"/>
</clipPath>
</defs>
</svg>
