<svg width="14" height="22" viewBox="0 0 14 22" fill="none" xmlns="http://www.w3.org/2000/svg">
<g id="label-paired / sm / chart-candlestick-sm / bold" clip-path="url(#clip0_1731_2517)">
<path id="icon" d="M1.3125 5.28125V14.9062C1.34896 15.3073 1.56771 15.526 1.96875 15.5625H13.3438C13.7448 15.599 13.9635 15.8177 14 16.2188C13.9635 16.6198 13.7448 16.8385 13.3438 16.875H1.96875C1.40365 16.8568 0.938802 16.6654 0.574219 16.3008C0.209635 15.9362 0.0182292 15.4714 0 14.9062V5.28125C0.0364583 4.88021 0.255208 4.66146 0.65625 4.625C1.05729 4.66146 1.27604 4.88021 1.3125 5.28125ZM8.75 5.0625V6.375C9.00521 6.375 9.21484 6.45703 9.37891 6.62109C9.54297 6.78516 9.625 6.99479 9.625 7.25V9.875C9.625 10.1302 9.54297 10.3398 9.37891 10.5039C9.21484 10.668 9.00521 10.75 8.75 10.75V12.0625C8.73177 12.3359 8.58594 12.4818 8.3125 12.5C8.03906 12.4818 7.89323 12.3359 7.875 12.0625V10.75C7.61979 10.75 7.41016 10.668 7.24609 10.5039C7.08203 10.3398 7 10.1302 7 9.875V7.25C7 6.99479 7.08203 6.78516 7.24609 6.62109C7.41016 6.45703 7.61979 6.375 7.875 6.375V5.0625C7.89323 4.78906 8.03906 4.64323 8.3125 4.625C8.58594 4.64323 8.73177 4.78906 8.75 5.0625ZM10.5 9.875C10.5 9.61979 10.582 9.41016 10.7461 9.24609C10.9102 9.08203 11.1198 9 11.375 9V7.6875C11.3932 7.41406 11.5391 7.26823 11.8125 7.25C12.0859 7.26823 12.2318 7.41406 12.25 7.6875V9C12.5052 9 12.7148 9.08203 12.8789 9.24609C13.043 9.41016 13.125 9.61979 13.125 9.875V11.625C13.125 11.8802 13.043 12.0898 12.8789 12.2539C12.7148 12.418 12.5052 12.5 12.25 12.5V13.8125C12.2318 14.0859 12.0859 14.2318 11.8125 14.25C11.5391 14.2318 11.3932 14.0859 11.375 13.8125V12.5C11.1198 12.5 10.9102 12.418 10.7461 12.2539C10.582 12.0898 10.5 11.8802 10.5 11.625V9.875ZM4.375 7.25V5.9375C4.39323 5.66406 4.53906 5.51823 4.8125 5.5C5.08594 5.51823 5.23177 5.66406 5.25 5.9375V7.25C5.50521 7.25 5.71484 7.33203 5.87891 7.49609C6.04297 7.66016 6.125 7.86979 6.125 8.125V11.625C6.125 11.8802 6.04297 12.0898 5.87891 12.2539C5.71484 12.418 5.50521 12.5 5.25 12.5V13.8125C5.23177 14.0859 5.08594 14.2318 4.8125 14.25C4.53906 14.2318 4.39323 14.0859 4.375 13.8125V12.5C4.11979 12.5 3.91016 12.418 3.74609 12.2539C3.58203 12.0898 3.5 11.8802 3.5 11.625V8.125C3.5 7.86979 3.58203 7.66016 3.74609 7.49609C3.91016 7.33203 4.11979 7.25 4.375 7.25Z" fill="black" fill-opacity="0.72"/>
</g>
<defs>
<clipPath id="clip0_1731_2517">
<rect width="14" height="22" fill="white"/>
</clipPath>
</defs>
</svg>
