<svg width="15" height="18" viewBox="0 0 15 18" fill="none" xmlns="http://www.w3.org/2000/svg">
<g id="label-paired / caption / signal-caption / bold" clip-path="url(#clip0_1731_1355)">
<path id="icon" d="M13.5 3.5C13.8438 3.53125 14.0312 3.71875 14.0625 4.0625V14.9375C14.0312 15.2812 13.8438 15.4688 13.5 15.5C13.1562 15.4688 12.9688 15.2812 12.9375 14.9375V4.0625C12.9688 3.71875 13.1562 3.53125 13.5 3.5ZM10.5 5.75C10.8438 5.78125 11.0312 5.96875 11.0625 6.3125V14.9375C11.0312 15.2812 10.8438 15.4688 10.5 15.5C10.1562 15.4688 9.96875 15.2812 9.9375 14.9375V6.3125C9.96875 5.96875 10.1562 5.78125 10.5 5.75ZM7.5 8C7.84375 8.03125 8.03125 8.21875 8.0625 8.5625V14.9375C8.03125 15.2812 7.84375 15.4688 7.5 15.5C7.15625 15.4688 6.96875 15.2812 6.9375 14.9375V8.5625C6.96875 8.21875 7.15625 8.03125 7.5 8ZM4.5 10.25C4.84375 10.2812 5.03125 10.4688 5.0625 10.8125V14.9375C5.03125 15.2812 4.84375 15.4688 4.5 15.5C4.15625 15.4688 3.96875 15.2812 3.9375 14.9375V10.8125C3.96875 10.4688 4.15625 10.2812 4.5 10.25ZM1.5 12.5C1.84375 12.5312 2.03125 12.7188 2.0625 13.0625V14.9375C2.03125 15.2812 1.84375 15.4688 1.5 15.5C1.15625 15.4688 0.96875 15.2812 0.9375 14.9375V13.0625C0.96875 12.7188 1.15625 12.5312 1.5 12.5Z" fill="black" fill-opacity="0.72"/>
</g>
<defs>
<clipPath id="clip0_1731_1355">
<rect width="15" height="18" fill="white"/>
</clipPath>
</defs>
</svg>
