<svg width="12" height="18" viewBox="0 0 12 18" fill="none" xmlns="http://www.w3.org/2000/svg">
<g id="label-paired / caption / backward-caption / bold" clip-path="url(#clip0_1731_1545)">
<path id="icon" d="M6.75 5.70312V8.02344L10.8984 5.11719C11.0078 5.03906 11.1406 5 11.2969 5C11.5 5 11.6641 5.07031 11.7891 5.21094C11.9297 5.33594 12 5.5 12 5.70312V13.2969C12 13.5 11.9297 13.6641 11.7891 13.7891C11.6641 13.9297 11.5 14 11.2969 14C11.1562 14 11.0234 13.9609 10.8984 13.8828L6.75 10.9766V13.2969C6.75 13.5 6.67969 13.6641 6.53906 13.7891C6.41406 13.9297 6.25 14 6.04688 14C5.89062 14 5.75 13.9531 5.625 13.8594L0.234375 9.94531C0.078125 9.83594 0 9.6875 0 9.5C0 9.3125 0.078125 9.16406 0.234375 9.05469L5.625 5.14062C5.75 5.04688 5.89062 5 6.04688 5C6.25 5 6.41406 5.07031 6.53906 5.21094C6.67969 5.33594 6.75 5.5 6.75 5.70312ZM6.75 9.40625V9.59375L10.875 12.5V6.52344L6.75 9.40625ZM1.52344 9.5L5.625 12.4766V6.52344L1.52344 9.5Z" fill="black" fill-opacity="0.72"/>
</g>
<defs>
<clipPath id="clip0_1731_1545">
<rect width="12" height="18" fill="white"/>
</clipPath>
</defs>
</svg>
