<svg width="30" height="36" viewBox="0 0 30 36" fill="none" xmlns="http://www.w3.org/2000/svg">
<g id="label-paired / xl / ios-xl" clip-path="url(#clip0_1731_14124)">
<path id="icon" d="M15.6094 18.375C15.6094 20.5312 14.5312 21.8906 12.7031 21.8906C10.9219 21.8906 9.84375 20.5312 9.84375 18.375C9.84375 16.2188 10.9219 14.8594 12.7031 14.8594C14.5312 14.8594 15.6094 16.2188 15.6094 18.375ZM27 12.6094V23.4375C27 24.2812 26.9531 25.6406 26.4844 26.8125C26.25 27.4219 25.7344 28.2656 24.9844 28.8281C24.5156 29.1562 24 29.4844 23.2969 29.7188C22.5 29.9531 21.5625 30 20.3906 30H9.5625C8.39062 30 7.45312 29.9531 6.65625 29.7188C5.95312 29.4844 5.4375 29.1562 4.96875 28.8281C4.21875 28.2656 3.70312 27.4219 3.46875 26.8125C3 25.6406 3 24.2812 3 23.4375V12.6094C3 11.7656 3 10.4062 3.46875 9.23438C3.70312 8.625 4.21875 7.78125 4.96875 7.21875C5.4375 6.84375 5.95312 6.51562 6.65625 6.32812C7.45312 6.09375 8.39062 6 9.5625 6H20.3906C21.5625 6 22.5 6.09375 23.2969 6.32812C24 6.5625 24.5156 6.89062 24.9844 7.21875C25.7344 7.78125 26.25 8.625 26.4844 9.23438C26.9531 10.4062 27 11.7656 27 12.6094ZM7.73438 22.7344V17.5312H6.65625V22.7344H7.73438ZM7.78125 16.0781C7.78125 15.75 7.5 15.4688 7.17188 15.4688C6.84375 15.4688 6.5625 15.75 6.5625 16.0781C6.5625 16.4062 6.84375 16.6875 7.17188 16.6875C7.5 16.6875 7.78125 16.4062 7.78125 16.0781ZM16.7344 18.375C16.7344 15.6094 15.1875 13.875 12.7031 13.875C10.2656 13.875 8.71875 15.6094 8.71875 18.375C8.71875 21.1406 10.2656 22.875 12.7031 22.875C15.1875 22.875 16.7344 21.1406 16.7344 18.375ZM23.7188 20.25C23.7188 19.0312 22.9688 18.2812 21.1875 17.9062L20.2031 17.6719C19.0312 17.4375 18.5625 16.9688 18.5625 16.2656C18.5625 15.375 19.3594 14.8594 20.4844 14.8594C21.6094 14.8594 22.3594 15.4219 22.4531 16.4062H23.5312C23.4844 14.9062 22.2188 13.875 20.4844 13.875C18.7031 13.875 17.4375 14.9062 17.4375 16.3125C17.4375 17.5781 18.1875 18.375 19.9219 18.75L20.9062 18.9375C22.0781 19.2188 22.5938 19.6875 22.5938 20.4375C22.5938 21.2812 21.7031 21.8906 20.5312 21.8906C19.3125 21.8906 18.4219 21.3281 18.2812 20.3906H17.2031C17.2969 21.8906 18.6094 22.875 20.4844 22.875C22.4531 22.875 23.7188 21.8906 23.7188 20.25Z" fill="black" fill-opacity="0.72"/>
</g>
<defs>
<clipPath id="clip0_1731_14124">
<rect width="30" height="36" fill="white"/>
</clipPath>
</defs>
</svg>
