<svg width="13" height="22" viewBox="0 0 13 22" fill="none" xmlns="http://www.w3.org/2000/svg">
<g id="label-paired / sm / image-polaroid-user-sm / regular" clip-path="url(#clip0_1731_3037)">
<path id="icon" d="M9.5625 14.25H8.6875H4.3125H3.4375H1.25V15.125C1.25 15.3802 1.33203 15.5898 1.49609 15.7539C1.66016 15.918 1.86979 16 2.125 16H10.875C11.1302 16 11.3398 15.918 11.5039 15.7539C11.668 15.5898 11.75 15.3802 11.75 15.125V14.25H9.5625ZM9.50781 13.375H11.75V6.375C11.75 6.11979 11.668 5.91016 11.5039 5.74609C11.3398 5.58203 11.1302 5.5 10.875 5.5H2.125C1.86979 5.5 1.66016 5.58203 1.49609 5.74609C1.33203 5.91016 1.25 6.11979 1.25 6.375V13.375H3.49219C3.60156 12.8646 3.84766 12.4453 4.23047 12.1172C4.61328 11.8073 5.07812 11.6432 5.625 11.625H6.5H7.375C7.92188 11.6432 8.38672 11.8073 8.76953 12.1172C9.15234 12.4453 9.39844 12.8646 9.50781 13.375ZM4.39453 13.375H8.60547C8.38672 12.8281 7.97656 12.5365 7.375 12.5H5.625C5.02344 12.5365 4.61328 12.8281 4.39453 13.375ZM12.625 6.375V13.375V13.8125V14.25V15.125C12.6068 15.6172 12.4336 16.0273 12.1055 16.3555C11.7773 16.6836 11.3672 16.8568 10.875 16.875H2.125C1.63281 16.8568 1.22266 16.6836 0.894531 16.3555C0.566406 16.0273 0.393229 15.6172 0.375 15.125V14.25V13.8125V13.375V6.375C0.393229 5.88281 0.566406 5.47266 0.894531 5.14453C1.22266 4.81641 1.63281 4.64323 2.125 4.625H10.875C11.3672 4.64323 11.7773 4.81641 12.1055 5.14453C12.4336 5.47266 12.6068 5.88281 12.625 6.375ZM7.375 9C7.375 8.74479 7.29297 8.53516 7.12891 8.37109C6.96484 8.20703 6.75521 8.125 6.5 8.125C6.24479 8.125 6.03516 8.20703 5.87109 8.37109C5.70703 8.53516 5.625 8.74479 5.625 9C5.625 9.25521 5.70703 9.46484 5.87109 9.62891C6.03516 9.79297 6.24479 9.875 6.5 9.875C6.75521 9.875 6.96484 9.79297 7.12891 9.62891C7.29297 9.46484 7.375 9.25521 7.375 9ZM6.5 7.25C7.15625 7.26823 7.65755 7.5599 8.00391 8.125C8.33203 8.70833 8.33203 9.29167 8.00391 9.875C7.65755 10.4401 7.15625 10.7318 6.5 10.75C5.84375 10.7318 5.34245 10.4401 4.99609 9.875C4.66797 9.29167 4.66797 8.70833 4.99609 8.125C5.34245 7.5599 5.84375 7.26823 6.5 7.25Z" fill="black" fill-opacity="0.72"/>
</g>
<defs>
<clipPath id="clip0_1731_3037">
<rect width="13" height="22" fill="white"/>
</clipPath>
</defs>
</svg>
