<svg width="24" height="36" viewBox="0 0 24 36" fill="none" xmlns="http://www.w3.org/2000/svg">
<g id="label-paired / xl / circle-star-xl / bold" clip-path="url(#clip0_1731_5855)">
<path id="icon" d="M12 8.25C10.2188 8.25 8.59375 8.6875 7.125 9.5625C5.65625 10.4062 4.46875 11.5938 3.5625 13.125C2.6875 14.6562 2.25 16.2812 2.25 18C2.25 19.7188 2.6875 21.3438 3.5625 22.875C4.46875 24.4062 5.65625 25.5938 7.125 26.4375C8.59375 27.3125 10.2188 27.75 12 27.75C13.7812 27.75 15.4062 27.3125 16.875 26.4375C18.3438 25.5938 19.5312 24.4062 20.4375 22.875C21.3125 21.3438 21.75 19.7188 21.75 18C21.75 16.2812 21.3125 14.6562 20.4375 13.125C19.5312 11.5938 18.3438 10.4062 16.875 9.5625C15.4062 8.6875 13.7812 8.25 12 8.25ZM12 30C9.8125 29.9688 7.8125 29.4375 6 28.4062C4.1875 27.3438 2.71875 25.875 1.59375 24C0.53125 22.0938 0 20.0938 0 18C0 15.9062 0.53125 13.9062 1.59375 12C2.71875 10.125 4.1875 8.65625 6 7.59375C7.8125 6.5625 9.8125 6.03125 12 6C14.1875 6.03125 16.1875 6.5625 18 7.59375C19.8125 8.65625 21.2812 10.125 22.4062 12C23.4688 13.9062 24 15.9062 24 18C24 20.0938 23.4688 22.0938 22.4062 24C21.2812 25.875 19.8125 27.3438 18 28.4062C16.1875 29.4375 14.1875 29.9688 12 30ZM12 11.6719C12.3125 11.6719 12.5312 11.8125 12.6562 12.0938L14.1562 15.0469L17.4375 15.5156C17.7188 15.5781 17.9062 15.75 18 16.0312C18.0938 16.3438 18.0312 16.6094 17.8125 16.8281L15.4688 19.125L16.0312 22.4062C16.0625 22.6875 15.9531 22.9219 15.7031 23.1094C15.4531 23.2969 15.2031 23.3281 14.9531 23.2031L12 21.6562L9.09375 23.1562C8.8125 23.3125 8.54688 23.2969 8.29688 23.1094C8.04688 22.9219 7.9375 22.6875 7.96875 22.4062L8.53125 19.125L6.1875 16.8281C5.96875 16.6094 5.90625 16.3438 6 16.0312C6.09375 15.75 6.29688 15.5781 6.60938 15.5156L9.84375 15.0469L11.3438 12.0938C11.4688 11.8125 11.6875 11.6719 12 11.6719Z" fill="black" fill-opacity="0.72"/>
</g>
<defs>
<clipPath id="clip0_1731_5855">
<rect width="24" height="36" fill="white"/>
</clipPath>
</defs>
</svg>
