<svg width="30" height="36" viewBox="0 0 30 36" fill="none" xmlns="http://www.w3.org/2000/svg">
<g id="label-paired / xl / messages-question-xl / bold" clip-path="url(#clip0_1731_6372)">
<path id="icon" d="M3.375 8.25C2.6875 8.3125 2.3125 8.6875 2.25 9.375V17.625C2.3125 18.3125 2.6875 18.6875 3.375 18.75H5.625C6.3125 18.8125 6.6875 19.1875 6.75 19.875V20.7656L9.51562 18.9375C9.70312 18.8125 9.90625 18.75 10.125 18.75H16.125C16.8125 18.6875 17.1875 18.3125 17.25 17.625V9.375C17.1875 8.6875 16.8125 8.3125 16.125 8.25H3.375ZM0 9.375C0.03125 8.40625 0.359375 7.60937 0.984375 6.98438C1.60938 6.35938 2.40625 6.03125 3.375 6H16.125C17.0938 6.03125 17.8906 6.35938 18.5156 6.98438C19.1406 7.60937 19.4688 8.40625 19.5 9.375V17.625C19.4688 18.5938 19.1406 19.3906 18.5156 20.0156C17.8906 20.6406 17.0938 20.9688 16.125 21H10.4531L6.23438 23.8125C5.85938 24.0312 5.48438 24.0469 5.10938 23.8594C4.73438 23.6406 4.53125 23.3125 4.5 22.875V21H3.375C2.40625 20.9688 1.60938 20.6406 0.984375 20.0156C0.359375 19.3906 0.03125 18.5938 0 17.625V9.375ZM12 22.5H14.25V23.625C14.3125 24.3125 14.6875 24.6875 15.375 24.75H19.875C20.0938 24.75 20.2969 24.8125 20.4844 24.9375L23.25 26.7656V25.875C23.3125 25.1875 23.6875 24.8125 24.375 24.75H26.625C27.3125 24.6875 27.6875 24.3125 27.75 23.625V15.375C27.6875 14.6875 27.3125 14.3125 26.625 14.25H21V12H26.625C27.5938 12.0312 28.3906 12.3594 29.0156 12.9844C29.6406 13.6094 29.9688 14.4062 30 15.375V23.625C29.9688 24.5938 29.6406 25.3906 29.0156 26.0156C28.3906 26.6406 27.5938 26.9688 26.625 27H25.5V28.875C25.4688 29.3125 25.2656 29.6406 24.8906 29.8594C24.5156 30.0469 24.1406 30.0312 23.7656 29.8125L19.5469 27H15.375C14.4062 26.9688 13.6094 26.6406 12.9844 26.0156C12.3594 25.3906 12.0312 24.5938 12 23.625V22.5ZM6.9375 10.5C7.25 9.75 7.8125 9.34375 8.625 9.28125H10.5938C11.1562 9.3125 11.6406 9.51562 12.0469 9.89062C12.4219 10.2969 12.6094 10.7812 12.6094 11.3438C12.6094 12.125 12.2656 12.7188 11.5781 13.125L10.5 13.7344V13.7812C10.4688 14.2188 10.2188 14.4688 9.75 14.5312C9.28125 14.4688 9.03125 14.2188 9 13.7812V13.3125C9 13.0312 9.125 12.8125 9.375 12.6562L10.8281 11.8125C11.0156 11.7188 11.1094 11.5625 11.1094 11.3438C11.0781 11 10.9062 10.8125 10.5938 10.7812H8.625C8.5 10.8125 8.40625 10.8906 8.34375 11.0156V11.0625C8.125 11.4688 7.79688 11.6094 7.35938 11.4844C6.95312 11.2969 6.8125 10.9844 6.9375 10.5469V10.5ZM8.67188 16.6875C8.67188 16.2812 8.84375 15.9531 9.1875 15.7031C9.5625 15.4844 9.9375 15.4844 10.3125 15.7031C10.6562 15.9531 10.8281 16.2812 10.8281 16.6875C10.8281 17.0938 10.6562 17.4219 10.3125 17.6719C9.9375 17.8906 9.5625 17.8906 9.1875 17.6719C8.84375 17.4219 8.67188 17.0938 8.67188 16.6875Z" fill="black" fill-opacity="0.72"/>
</g>
<defs>
<clipPath id="clip0_1731_6372">
<rect width="30" height="36" fill="white"/>
</clipPath>
</defs>
</svg>
