<svg width="13" height="22" viewBox="0 0 13 22" fill="none" xmlns="http://www.w3.org/2000/svg">
<g id="label-paired / sm / arrow-down-to-bracket-sm / bold" clip-path="url(#clip0_1731_1894)">
<path id="icon" d="M10.4648 9.68359L6.96484 13.1836C6.65495 13.4388 6.34505 13.4388 6.03516 13.1836L2.53516 9.68359C2.27995 9.3737 2.27995 9.0638 2.53516 8.75391C2.84505 8.4987 3.15495 8.4987 3.46484 8.75391L5.84375 11.1328V4.40625C5.88021 4.00521 6.09896 3.78646 6.5 3.75C6.90104 3.78646 7.11979 4.00521 7.15625 4.40625V11.1328L9.53516 8.75391C9.84505 8.4987 10.1549 8.4987 10.4648 8.75391C10.7201 9.0638 10.7201 9.3737 10.4648 9.68359ZM1.6875 13.1562V15.3438C1.6875 15.6536 1.79688 15.9089 2.01562 16.1094C2.21615 16.3281 2.47135 16.4375 2.78125 16.4375H10.2188C10.5286 16.4375 10.7839 16.3281 10.9844 16.1094C11.2031 15.9089 11.3125 15.6536 11.3125 15.3438V13.1562C11.349 12.7552 11.5677 12.5365 11.9688 12.5C12.3698 12.5365 12.5885 12.7552 12.625 13.1562V15.3438C12.6068 16.0182 12.3698 16.5833 11.9141 17.0391C11.4583 17.4948 10.8932 17.7318 10.2188 17.75H2.78125C2.10677 17.7318 1.54167 17.4948 1.08594 17.0391C0.630208 16.5833 0.393229 16.0182 0.375 15.3438V13.1562C0.411458 12.7552 0.630208 12.5365 1.03125 12.5C1.43229 12.5365 1.65104 12.7552 1.6875 13.1562Z" fill="black" fill-opacity="0.72"/>
</g>
<defs>
<clipPath id="clip0_1731_1894">
<rect width="13" height="22" fill="white"/>
</clipPath>
</defs>
</svg>
