<svg width="11" height="18" viewBox="0 0 11 18" fill="none" xmlns="http://www.w3.org/2000/svg">
<g id="label-paired / caption / bell-caption / bold" clip-path="url(#clip0_1731_1285)">
<path id="icon" d="M5.5 3.5C5.71875 3.5 5.89844 3.57031 6.03906 3.71094C6.17969 3.85156 6.25 4.03125 6.25 4.25V4.67188C7.125 4.82812 7.83594 5.22656 8.38281 5.86719C8.94531 6.50781 9.23438 7.28125 9.25 8.1875V8.96094C9.26562 10.0547 9.60938 11.0312 10.2812 11.8906L10.6328 12.3359C10.7578 12.5234 10.7812 12.7188 10.7031 12.9219C10.5938 13.125 10.4219 13.2344 10.1875 13.25H0.8125C0.578125 13.2344 0.40625 13.125 0.296875 12.9219C0.203125 12.7188 0.226562 12.5234 0.367188 12.3359L0.71875 11.8906C1.39062 11.0312 1.73438 10.0547 1.75 8.96094V8.1875C1.76562 7.28125 2.05469 6.50781 2.61719 5.86719C3.16406 5.22656 3.875 4.82812 4.75 4.67188V4.25C4.75 4.03125 4.82031 3.85156 4.96094 3.71094C5.10156 3.57031 5.28125 3.5 5.5 3.5ZM5.5 5.75H5.3125C4.625 5.76562 4.04688 6 3.57812 6.45312C3.125 6.92188 2.89062 7.5 2.875 8.1875V8.96094C2.85938 10.1172 2.54688 11.1719 1.9375 12.125H9.0625C8.4375 11.1719 8.125 10.1172 8.125 8.96094V8.1875C8.10938 7.5 7.875 6.92188 7.42188 6.45312C6.95312 6 6.375 5.76562 5.6875 5.75H5.5ZM7 14C7 14.4062 6.85156 14.7578 6.55469 15.0547C6.25781 15.3516 5.90625 15.5 5.5 15.5C5.09375 15.5 4.74219 15.3516 4.44531 15.0547C4.14844 14.7578 4 14.4062 4 14H5.5H7Z" fill="black" fill-opacity="0.72"/>
</g>
<defs>
<clipPath id="clip0_1731_1285">
<rect width="11" height="18" fill="white"/>
</clipPath>
</defs>
</svg>
