<svg width="15" height="36" viewBox="0 0 15 36" fill="none" xmlns="http://www.w3.org/2000/svg">
<g id="label-paired / xl / backward-step-xl / fill" clip-path="url(#clip0_1731_6593)">
<path id="icon" d="M12.5625 26.6719L3.5625 19.1719L3 18.7031V25.5C3 25.9375 2.85938 26.2969 2.57812 26.5781C2.29688 26.8594 1.9375 27 1.5 27C1.0625 27 0.703125 26.8594 0.421875 26.5781C0.140625 26.2969 0 25.9375 0 25.5V10.5C0 10.0625 0.140625 9.70312 0.421875 9.42188C0.703125 9.14062 1.0625 9 1.5 9C1.9375 9 2.29688 9.14062 2.57812 9.42188C2.85938 9.70312 3 10.0625 3 10.5V17.2969L3.5625 16.8281L12.5625 9.32812C13.0312 8.95312 13.5625 8.89062 14.1562 9.14062C14.6875 9.42188 14.9688 9.875 15 10.5V25.5C14.9688 26.125 14.6875 26.5781 14.1562 26.8594C13.5625 27.1094 13.0312 27.0469 12.5625 26.6719Z" fill="black" fill-opacity="0.72"/>
</g>
<defs>
<clipPath id="clip0_1731_6593">
<rect width="15" height="36" fill="white"/>
</clipPath>
</defs>
</svg>
