<svg width="14" height="22" viewBox="0 0 14 22" fill="none" xmlns="http://www.w3.org/2000/svg">
<g id="label-paired / sm / arrow-up-right-from-square-sm / regular" clip-path="url(#clip0_1731_1922)">
<path id="icon" d="M9.1875 3.75H13.5625C13.8359 3.76823 13.9818 3.91406 14 4.1875V8.5625C13.9818 8.83594 13.8359 8.98177 13.5625 9C13.2891 8.98177 13.1432 8.83594 13.125 8.5625V5.25391L6.42578 11.9258C6.22526 12.1081 6.02474 12.1081 5.82422 11.9258C5.64193 11.7253 5.64193 11.5247 5.82422 11.3242L12.4961 4.625H9.1875C8.91406 4.60677 8.76823 4.46094 8.75 4.1875C8.76823 3.91406 8.91406 3.76823 9.1875 3.75ZM1.75 4.625H5.6875C5.96094 4.64323 6.10677 4.78906 6.125 5.0625C6.10677 5.33594 5.96094 5.48177 5.6875 5.5H1.75C1.49479 5.5 1.28516 5.58203 1.12109 5.74609C0.957031 5.91016 0.875 6.11979 0.875 6.375V16C0.875 16.2552 0.957031 16.4648 1.12109 16.6289C1.28516 16.793 1.49479 16.875 1.75 16.875H11.375C11.6302 16.875 11.8398 16.793 12.0039 16.6289C12.168 16.4648 12.25 16.2552 12.25 16V12.0625C12.2682 11.7891 12.4141 11.6432 12.6875 11.625C12.9609 11.6432 13.1068 11.7891 13.125 12.0625V16C13.1068 16.4922 12.9336 16.9023 12.6055 17.2305C12.2773 17.5586 11.8672 17.7318 11.375 17.75H1.75C1.25781 17.7318 0.847656 17.5586 0.519531 17.2305C0.191406 16.9023 0.0182292 16.4922 0 16V6.375C0.0182292 5.88281 0.191406 5.47266 0.519531 5.14453C0.847656 4.81641 1.25781 4.64323 1.75 4.625Z" fill="black" fill-opacity="0.72"/>
</g>
<defs>
<clipPath id="clip0_1731_1922">
<rect width="14" height="22" fill="white"/>
</clipPath>
</defs>
</svg>
