<svg width="25" height="30" viewBox="0 0 25 30" fill="none" xmlns="http://www.w3.org/2000/svg">
<g id="label-paired / lg / box-archive-circle-arrow-up-lg / bold" clip-path="url(#clip0_1731_5446)">
<path id="icon" d="M0 8C0 7.33594 0.546875 6.75 1.25 6.75C7.07031 6.75 12.8906 6.75 18.75 6.75C19.4141 6.75 20 7.33594 20 8C20 9.05469 20 10.1094 20 11.125C20 11.8281 19.4141 12.375 18.75 12.375C12.8906 12.375 7.07031 12.375 1.25 12.375C0.546875 12.375 0 11.8281 0 11.125C0 10.1094 0 9.05469 0 8ZM1.25 13.625H3.125C3.125 16.3594 3.125 19.0547 3.125 21.75C3.125 22.1016 3.39844 22.375 3.75 22.375C6.79688 22.375 9.88281 22.375 12.9688 22.375C13.2031 23.0781 13.5938 23.7031 14.0625 24.25C10.625 24.25 7.1875 24.25 3.75 24.25C2.34375 24.25 1.25 23.1562 1.25 21.75C1.25 19.0547 1.25 16.3594 1.25 13.625ZM1.875 8.625C1.875 9.25 1.875 9.875 1.875 10.5C7.26562 10.5 12.6953 10.5 18.125 10.5C18.125 9.875 18.125 9.25 18.125 8.625H1.875ZM6.25 15.1875C6.25 14.6797 6.64062 14.25 7.1875 14.25C9.0625 14.25 10.9375 14.25 12.8125 14.25C13.3203 14.25 13.75 14.6797 13.75 15.1875C13.75 15.7344 13.3203 16.125 12.8125 16.125C10.9375 16.125 9.0625 16.125 7.1875 16.125C6.64062 16.125 6.25 15.7344 6.25 15.1875ZM13.75 19.875C13.75 17.8828 14.8047 16.0078 16.5625 15.0312C18.2812 14.0156 20.4297 14.0156 22.1875 15.0312C23.9062 16.0078 25 17.8828 25 19.875C25 21.9062 23.9062 23.7422 22.1875 24.7578C20.4297 25.7734 18.2812 25.7734 16.5625 24.7578C14.8047 23.7422 13.75 21.9062 13.75 19.875ZM16.7188 19.1328C16.4844 19.3672 16.4844 19.7969 16.7188 20.0312C16.9531 20.2656 17.3828 20.2656 17.6172 20.0312C17.9688 19.6406 18.3594 19.2891 18.75 18.8984C18.75 20.0703 18.75 21.2422 18.75 22.375C18.75 22.7266 19.0234 23 19.375 23C19.6875 23 20 22.7266 20 22.375C20 21.2422 20 20.0703 20 18.8984C20.3516 19.2891 20.7422 19.6406 21.0938 20.0312C21.3281 20.2656 21.7578 20.2656 21.9922 20.0312C22.2266 19.7969 22.2266 19.3672 21.9922 19.1328C21.25 18.3906 20.5469 17.6875 19.8047 16.9453C19.5703 16.7109 19.1406 16.7109 18.9062 16.9453L16.7188 19.1328Z" fill="black" fill-opacity="0.72"/>
</g>
<defs>
<clipPath id="clip0_1731_5446">
<rect width="25" height="30" fill="white"/>
</clipPath>
</defs>
</svg>
