<svg width="10" height="24" viewBox="0 0 10 24" fill="none" xmlns="http://www.w3.org/2000/svg">
<g id="label-paired / md / sterling-sign-md / bold" clip-path="url(#clip0_1731_4230)">
<path id="icon" d="M3 8.96875V11H7.25C7.70833 11.0417 7.95833 11.2917 8 11.75C7.95833 12.2083 7.70833 12.4583 7.25 12.5H3V14.4688C3 15.2812 2.80208 16.0417 2.40625 16.75L2 17.5H9.25C9.70833 17.5417 9.95833 17.7917 10 18.25C9.95833 18.7083 9.70833 18.9583 9.25 19H0.75C0.479167 19 0.260417 18.875 0.09375 18.625C-0.03125 18.3958 -0.03125 18.1562 0.09375 17.9062L1.09375 16.0312C1.36458 15.5521 1.5 15.0312 1.5 14.4688V12.5H0.75C0.291667 12.4583 0.0416667 12.2083 0 11.75C0.0416667 11.2917 0.291667 11.0417 0.75 11H1.5V8.96875C1.52083 7.84375 1.90625 6.90625 2.65625 6.15625C3.40625 5.40625 4.34375 5.02083 5.46875 5C5.90625 5 6.33333 5.07292 6.75 5.21875L9.25 6.03125C9.66667 6.21875 9.82292 6.54167 9.71875 7C9.53125 7.41667 9.20833 7.57292 8.75 7.46875L6.25 6.625C6 6.54167 5.73958 6.5 5.46875 6.5C4.78125 6.52083 4.19792 6.76042 3.71875 7.21875C3.26042 7.69792 3.02083 8.28125 3 8.96875Z" fill="black" fill-opacity="0.72"/>
</g>
<defs>
<clipPath id="clip0_1731_4230">
<rect width="10" height="24" fill="white"/>
</clipPath>
</defs>
</svg>
