<svg width="11" height="22" viewBox="0 0 11 22" fill="none" xmlns="http://www.w3.org/2000/svg">
<g id="label-paired / sm / mobile-notch-sm / bold" clip-path="url(#clip0_1731_2624)">
<path id="icon" d="M7.25 5.0625V5.5C7.23177 5.77344 7.08594 5.91927 6.8125 5.9375H4.1875C3.91406 5.91927 3.76823 5.77344 3.75 5.5V5.0625H2.875C2.61979 5.0625 2.41016 5.14453 2.24609 5.30859C2.08203 5.47266 2 5.68229 2 5.9375V15.5625C2 15.8177 2.08203 16.0273 2.24609 16.1914C2.41016 16.3555 2.61979 16.4375 2.875 16.4375H8.125C8.38021 16.4375 8.58984 16.3555 8.75391 16.1914C8.91797 16.0273 9 15.8177 9 15.5625V5.9375C9 5.68229 8.91797 5.47266 8.75391 5.30859C8.58984 5.14453 8.38021 5.0625 8.125 5.0625H7.25ZM0.6875 5.9375C0.705729 5.31771 0.915365 4.79818 1.31641 4.37891C1.73568 3.97786 2.25521 3.76823 2.875 3.75H8.125C8.74479 3.76823 9.26432 3.97786 9.68359 4.37891C10.0846 4.79818 10.2943 5.31771 10.3125 5.9375V15.5625C10.2943 16.1823 10.0846 16.7018 9.68359 17.1211C9.26432 17.5221 8.74479 17.7318 8.125 17.75H2.875C2.25521 17.7318 1.73568 17.5221 1.31641 17.1211C0.915365 16.7018 0.705729 16.1823 0.6875 15.5625V5.9375Z" fill="black" fill-opacity="0.72"/>
</g>
<defs>
<clipPath id="clip0_1731_2624">
<rect width="11" height="22" fill="white"/>
</clipPath>
</defs>
</svg>
