<svg width="16" height="24" viewBox="0 0 16 24" fill="none" xmlns="http://www.w3.org/2000/svg">
<g id="label-paired / md / copy-md / regular" clip-path="url(#clip0_1731_3952)">
<path id="icon" d="M14 15C14.2917 15 14.5312 14.9062 14.7188 14.7188C14.9062 14.5312 15 14.2917 15 14V7.625C15 7.47917 14.9479 7.36458 14.8438 7.28125L12.7188 5.15625C12.6354 5.05208 12.5208 5 12.375 5H9C8.70833 5 8.46875 5.09375 8.28125 5.28125C8.09375 5.46875 8 5.70833 8 6V14C8 14.2917 8.09375 14.5312 8.28125 14.7188C8.46875 14.9062 8.70833 15 9 15H14ZM15.5625 6.5625C15.8542 6.85417 16 7.20833 16 7.625V14C15.9792 14.5625 15.7812 15.0312 15.4062 15.4062C15.0312 15.7812 14.5625 15.9792 14 16H9C8.4375 15.9792 7.96875 15.7812 7.59375 15.4062C7.21875 15.0312 7.02083 14.5625 7 14V6C7.02083 5.4375 7.21875 4.96875 7.59375 4.59375C7.96875 4.21875 8.4375 4.02083 9 4H12.375C12.7917 4 13.1458 4.14583 13.4375 4.4375L15.5625 6.5625ZM2 8H6V9H2C1.70833 9 1.46875 9.09375 1.28125 9.28125C1.09375 9.46875 1 9.70833 1 10V18C1 18.2917 1.09375 18.5312 1.28125 18.7188C1.46875 18.9062 1.70833 19 2 19H7C7.29167 19 7.53125 18.9062 7.71875 18.7188C7.90625 18.5312 8 18.2917 8 18V17H9V18C8.97917 18.5625 8.78125 19.0312 8.40625 19.4062C8.03125 19.7812 7.5625 19.9792 7 20H2C1.4375 19.9792 0.96875 19.7812 0.59375 19.4062C0.21875 19.0312 0.0208333 18.5625 0 18V10C0.0208333 9.4375 0.21875 8.96875 0.59375 8.59375C0.96875 8.21875 1.4375 8.02083 2 8Z" fill="black" fill-opacity="0.72"/>
</g>
<defs>
<clipPath id="clip0_1731_3952">
<rect width="16" height="24" fill="white"/>
</clipPath>
</defs>
</svg>
