<svg width="11" height="18" viewBox="0 0 11 18" fill="none" xmlns="http://www.w3.org/2000/svg">
<g id="label-paired / caption / placeholder-caption / bold" clip-path="url(#clip0_1731_530)">
<path id="icon" d="M2.3125 4.25H2.6875C3.03125 4.28125 3.21875 4.46875 3.25 4.8125C3.21875 5.15625 3.03125 5.34375 2.6875 5.375H2.3125C2.04688 5.375 1.82812 5.46875 1.65625 5.65625C1.46875 5.82812 1.375 6.04688 1.375 6.3125V6.6875C1.34375 7.03125 1.15625 7.21875 0.8125 7.25C0.46875 7.21875 0.28125 7.03125 0.25 6.6875V6.3125C0.265625 5.73438 0.46875 5.25 0.859375 4.85938C1.25 4.46875 1.73438 4.26562 2.3125 4.25ZM0.8125 8C1.15625 8.03125 1.34375 8.21875 1.375 8.5625V10.4375C1.34375 10.7812 1.15625 10.9688 0.8125 11C0.46875 10.9688 0.28125 10.7812 0.25 10.4375V8.5625C0.28125 8.21875 0.46875 8.03125 0.8125 8ZM10.1875 8C10.5312 8.03125 10.7188 8.21875 10.75 8.5625V10.4375C10.7188 10.7812 10.5312 10.9688 10.1875 11C9.84375 10.9688 9.65625 10.7812 9.625 10.4375V8.5625C9.65625 8.21875 9.84375 8.03125 10.1875 8ZM10.1875 7.25C9.84375 7.21875 9.65625 7.03125 9.625 6.6875V6.3125C9.625 6.04688 9.53125 5.82812 9.34375 5.65625C9.17188 5.46875 8.95312 5.375 8.6875 5.375H8.3125C7.96875 5.34375 7.78125 5.15625 7.75 4.8125C7.78125 4.46875 7.96875 4.28125 8.3125 4.25H8.6875C9.26562 4.26562 9.75 4.46875 10.1406 4.85938C10.5312 5.25 10.7344 5.73438 10.75 6.3125V6.6875C10.7188 7.03125 10.5312 7.21875 10.1875 7.25ZM10.75 12.3125V12.6875C10.7344 13.2656 10.5312 13.75 10.1406 14.1406C9.75 14.5312 9.26562 14.7344 8.6875 14.75H8.3125C7.96875 14.7188 7.78125 14.5312 7.75 14.1875C7.78125 13.8438 7.96875 13.6562 8.3125 13.625H8.6875C8.95312 13.625 9.17188 13.5312 9.34375 13.3438C9.53125 13.1719 9.625 12.9531 9.625 12.6875V12.3125C9.65625 11.9688 9.84375 11.7812 10.1875 11.75C10.5312 11.7812 10.7188 11.9688 10.75 12.3125ZM1.375 12.3125V12.6875C1.375 12.9531 1.46875 13.1719 1.65625 13.3438C1.82812 13.5312 2.04688 13.625 2.3125 13.625H2.6875C3.03125 13.6562 3.21875 13.8438 3.25 14.1875C3.21875 14.5312 3.03125 14.7188 2.6875 14.75H2.3125C1.73438 14.7344 1.25 14.5312 0.859375 14.1406C0.46875 13.75 0.265625 13.2656 0.25 12.6875V12.3125C0.28125 11.9688 0.46875 11.7812 0.8125 11.75C1.15625 11.7812 1.34375 11.9688 1.375 12.3125ZM4.5625 14.75C4.21875 14.7188 4.03125 14.5312 4 14.1875C4.03125 13.8438 4.21875 13.6562 4.5625 13.625H6.4375C6.78125 13.6562 6.96875 13.8438 7 14.1875C6.96875 14.5312 6.78125 14.7188 6.4375 14.75H4.5625ZM4 4.8125C4.03125 4.46875 4.21875 4.28125 4.5625 4.25H6.4375C6.78125 4.28125 6.96875 4.46875 7 4.8125C6.96875 5.15625 6.78125 5.34375 6.4375 5.375H4.5625C4.21875 5.34375 4.03125 5.15625 4 4.8125Z" fill="black" fill-opacity="0.72"/>
</g>
<defs>
<clipPath id="clip0_1731_530">
<rect width="11" height="18" fill="white"/>
</clipPath>
</defs>
</svg>
