<svg width="15" height="18" viewBox="0 0 15 18" fill="none" xmlns="http://www.w3.org/2000/svg">
<g id="label-paired / caption / deriv-caption" clip-path="url(#clip0_1731_13798)">
<path id="icon" d="M9.9375 3.89844L12.2812 3.5L10.6406 12.875C10.3828 14.3281 9 15.5 7.52344 15.5H5.74219C3.72656 15.5 2.39062 13.8828 2.74219 11.8906L2.90625 11.0234C3.25781 9.03125 5.15625 7.39062 7.17188 7.39062H9.30469L9.9375 3.89844ZM8.41406 12.5469L8.92969 9.54688H7.05469C6.14062 9.54688 5.29688 10.2969 5.13281 11.1875L5.03906 11.7266C4.875 12.6172 5.48438 13.3438 6.375 13.3438H7.47656C7.92188 13.3438 8.32031 12.9922 8.41406 12.5469Z" fill="black" fill-opacity="0.72"/>
</g>
<defs>
<clipPath id="clip0_1731_13798">
<rect width="15" height="18" fill="white"/>
</clipPath>
</defs>
</svg>
