<svg width="13" height="22" viewBox="0 0 13 22" fill="none" xmlns="http://www.w3.org/2000/svg">
<g id="label-paired / sm / user-sm / bold" clip-path="url(#clip0_1731_3013)">
<path id="icon" d="M8.6875 7.25C8.66927 6.42969 8.30469 5.80078 7.59375 5.36328C6.86458 4.96224 6.13542 4.96224 5.40625 5.36328C4.69531 5.80078 4.33073 6.42969 4.3125 7.25C4.33073 8.07031 4.69531 8.69922 5.40625 9.13672C6.13542 9.53776 6.86458 9.53776 7.59375 9.13672C8.30469 8.69922 8.66927 8.07031 8.6875 7.25ZM3 7.25C3 6.61198 3.15495 6.02865 3.46484 5.5C3.77474 4.97135 4.20312 4.54297 4.75 4.21484C5.29688 3.90495 5.88021 3.75 6.5 3.75C7.11979 3.75 7.70312 3.90495 8.25 4.21484C8.79688 4.54297 9.22526 4.97135 9.53516 5.5C9.84505 6.02865 10 6.61198 10 7.25C10 7.88802 9.84505 8.47135 9.53516 9C9.22526 9.52865 8.79688 9.95703 8.25 10.2852C7.70312 10.5951 7.11979 10.75 6.5 10.75C5.88021 10.75 5.29688 10.5951 4.75 10.2852C4.20312 9.95703 3.77474 9.52865 3.46484 9C3.15495 8.47135 3 7.88802 3 7.25ZM1.71484 16.4375H11.2852C11.1393 15.5443 10.7474 14.8151 10.1094 14.25C9.45312 13.6849 8.66927 13.3932 7.75781 13.375H5.24219C4.33073 13.3932 3.55599 13.6849 2.91797 14.25C2.26172 14.8151 1.86068 15.5443 1.71484 16.4375ZM0.375 16.9297C0.411458 15.5625 0.885417 14.4141 1.79688 13.4844C2.72656 12.5729 3.875 12.099 5.24219 12.0625H7.75781C9.125 12.099 10.2734 12.5729 11.2031 13.4844C12.1146 14.4141 12.5885 15.5625 12.625 16.9297C12.625 17.1667 12.543 17.3581 12.3789 17.5039C12.2331 17.668 12.0417 17.75 11.8047 17.75H1.19531C0.958333 17.75 0.766927 17.668 0.621094 17.5039C0.457031 17.3581 0.375 17.1667 0.375 16.9297Z" fill="black" fill-opacity="0.72"/>
</g>
<defs>
<clipPath id="clip0_1731_3013">
<rect width="13" height="22" fill="white"/>
</clipPath>
</defs>
</svg>
