<svg width="12" height="18" viewBox="0 0 12 18" fill="none" xmlns="http://www.w3.org/2000/svg">
<g id="label-paired / caption / barcode-caption / regular" clip-path="url(#clip0_1731_1732)">
<path id="icon" d="M0 4.625C0.015625 4.39062 0.140625 4.26562 0.375 4.25C0.609375 4.26562 0.734375 4.39062 0.75 4.625V14.375C0.734375 14.6094 0.609375 14.7344 0.375 14.75C0.140625 14.7344 0.015625 14.6094 0 14.375V4.625ZM1.5 4.625C1.51562 4.39062 1.64062 4.26562 1.875 4.25C2.10938 4.26562 2.23438 4.39062 2.25 4.625V14.375C2.23438 14.6094 2.10938 14.7344 1.875 14.75C1.64062 14.7344 1.51562 14.6094 1.5 14.375V4.625ZM3.375 4.25C3.60938 4.26562 3.73438 4.39062 3.75 4.625V14.375C3.73438 14.6094 3.60938 14.7344 3.375 14.75C3.14062 14.7344 3.01562 14.6094 3 14.375V4.625C3.01562 4.39062 3.14062 4.26562 3.375 4.25ZM5.25 4.625C5.26562 4.39062 5.39062 4.26562 5.625 4.25C5.85938 4.26562 5.98438 4.39062 6 4.625V14.375C5.98438 14.6094 5.85938 14.7344 5.625 14.75C5.39062 14.7344 5.26562 14.6094 5.25 14.375V4.625ZM7.125 4.25C7.35938 4.26562 7.48438 4.39062 7.5 4.625V14.375C7.48438 14.6094 7.35938 14.7344 7.125 14.75C6.89062 14.7344 6.76562 14.6094 6.75 14.375V4.625C6.76562 4.39062 6.89062 4.26562 7.125 4.25ZM9 4.625C9.01562 4.39062 9.14062 4.26562 9.375 4.25C9.60938 4.26562 9.73438 4.39062 9.75 4.625V14.375C9.73438 14.6094 9.60938 14.7344 9.375 14.75C9.14062 14.7344 9.01562 14.6094 9 14.375V4.625ZM11.625 4.25C11.8594 4.26562 11.9844 4.39062 12 4.625V14.375C11.9844 14.6094 11.8594 14.7344 11.625 14.75C11.3906 14.7344 11.2656 14.6094 11.25 14.375V4.625C11.2656 4.39062 11.3906 4.26562 11.625 4.25Z" fill="black" fill-opacity="0.72"/>
</g>
<defs>
<clipPath id="clip0_1731_1732">
<rect width="12" height="18" fill="white"/>
</clipPath>
</defs>
</svg>
