<svg width="13" height="30" viewBox="0 0 13 30" fill="none" xmlns="http://www.w3.org/2000/svg">
<g id="label-paired / lg / sort-lg / regular" clip-path="url(#clip0_1731_4569)">
<path id="icon" d="M1.57812 12.5312C1.52604 12.5833 1.5 12.6484 1.5 12.7266C1.52604 12.8828 1.61719 12.974 1.77344 13H11.2266C11.3828 12.974 11.474 12.8828 11.5 12.7266C11.5 12.6484 11.474 12.5833 11.4219 12.5312L6.73438 8.07812C6.65625 8.02604 6.57812 8 6.5 8C6.42188 8 6.34375 8.02604 6.26562 8.07812L1.57812 12.5312ZM0.71875 11.5938L5.40625 7.17969C5.71875 6.89323 6.08333 6.75 6.5 6.75C6.91667 6.75 7.28125 6.89323 7.59375 7.17969L12.2812 11.6328C12.5938 11.9193 12.75 12.2839 12.75 12.7266C12.75 13.1693 12.6068 13.5339 12.3203 13.8203C12.0339 14.1068 11.6693 14.25 11.2266 14.25H1.77344C1.33073 14.25 0.966146 14.1068 0.679688 13.8203C0.393229 13.5339 0.25 13.1693 0.25 12.7266C0.25 12.2839 0.40625 11.9062 0.71875 11.5938ZM1.57812 18.4688L6.26562 22.9219C6.34375 22.974 6.42188 23 6.5 23C6.57812 23 6.65625 22.974 6.73438 22.9219L11.4219 18.4688C11.474 18.4167 11.5 18.3516 11.5 18.2734C11.474 18.1172 11.3828 18.026 11.2266 18H1.77344C1.61719 18.026 1.52604 18.1172 1.5 18.2734C1.5 18.3516 1.52604 18.4167 1.57812 18.4688ZM0.71875 19.4062C0.40625 19.0938 0.25 18.7161 0.25 18.2734C0.25 17.8307 0.393229 17.4661 0.679688 17.1797C0.966146 16.8932 1.33073 16.75 1.77344 16.75H11.2266C11.6693 16.75 12.0339 16.8932 12.3203 17.1797C12.6068 17.4661 12.75 17.8307 12.75 18.2734C12.75 18.7161 12.5938 19.0938 12.2812 19.4062L7.59375 23.8203C7.28125 24.1068 6.91667 24.25 6.5 24.25C6.08333 24.25 5.71875 24.1068 5.40625 23.8203L0.71875 19.4062Z" fill="black" fill-opacity="0.72"/>
</g>
<defs>
<clipPath id="clip0_1731_4569">
<rect width="13" height="30" fill="white"/>
</clipPath>
</defs>
</svg>
