<svg width="16" height="24" viewBox="0 0 16 24" fill="none" xmlns="http://www.w3.org/2000/svg">
<g id="label-paired / md / chevrons-left-md / regular" clip-path="url(#clip0_1731_3420)">
<path id="icon" d="M1.65625 11.6562L7.65625 5.65625C7.88542 5.44792 8.11458 5.44792 8.34375 5.65625C8.55208 5.88542 8.55208 6.11458 8.34375 6.34375L2.71875 12L8.34375 17.6562C8.55208 17.8854 8.55208 18.1146 8.34375 18.3438C8.11458 18.5521 7.88542 18.5521 7.65625 18.3438L1.65625 12.3438C1.44792 12.1146 1.44792 11.8854 1.65625 11.6562ZM13.6562 5.65625C13.8854 5.44792 14.1146 5.44792 14.3438 5.65625C14.5521 5.88542 14.5521 6.11458 14.3438 6.34375L8.71875 12L14.3438 17.6562C14.5521 17.8854 14.5521 18.1146 14.3438 18.3438C14.1146 18.5521 13.8854 18.5521 13.6562 18.3438L7.65625 12.3438C7.44792 12.1146 7.44792 11.8854 7.65625 11.6562L13.6562 5.65625Z" fill="black" fill-opacity="0.72"/>
</g>
<defs>
<clipPath id="clip0_1731_3420">
<rect width="16" height="24" fill="white"/>
</clipPath>
</defs>
</svg>
