<svg width="30" height="36" viewBox="0 0 30 36" fill="none" xmlns="http://www.w3.org/2000/svg">
<g id="label-paired / xl / wifi-xl / bold" clip-path="url(#clip0_1731_6382)">
<path id="icon" d="M1.875 14.7188C1.3125 15.125 0.78125 15.0938 0.28125 14.625C-0.125 14.0625 -0.09375 13.5312 0.375 13.0312C2.34375 11.2812 4.5625 9.92188 7.03125 8.95312C9.53125 7.98437 12.1875 7.5 15 7.5C17.8125 7.5 20.4688 7.98437 22.9688 8.95312C25.4375 9.92188 27.6562 11.2812 29.625 13.0312C30.0938 13.5312 30.125 14.0625 29.7188 14.625C29.2188 15.0938 28.6875 15.125 28.125 14.7188C26.375 13.1562 24.375 11.9375 22.125 11.0625C19.9062 10.1875 17.5312 9.75 15 9.75C12.4688 9.75 10.0938 10.1875 7.875 11.0625C5.625 11.9375 3.625 13.1562 1.875 14.7188ZM15 18C11.9062 18.0625 9.28125 19.0781 7.125 21.0469C6.59375 21.4844 6.0625 21.4688 5.53125 21C5.125 20.4375 5.15625 19.9062 5.625 19.4062C6.875 18.25 8.29688 17.3594 9.89062 16.7344C11.4844 16.0781 13.1875 15.75 15 15.75C16.8125 15.75 18.5156 16.0781 20.1094 16.7344C21.7031 17.3594 23.125 18.25 24.375 19.4062C24.8438 19.9062 24.875 20.4375 24.4688 21C23.9375 21.4688 23.4062 21.4844 22.875 21.0469C20.7188 19.0781 18.0938 18.0625 15 18ZM17.625 25.875C17.5938 26.875 17.1562 27.625 16.3125 28.125C15.4375 28.625 14.5625 28.625 13.6875 28.125C12.8438 27.625 12.4062 26.875 12.375 25.875C12.4062 24.875 12.8438 24.125 13.6875 23.625C14.5625 23.125 15.4375 23.125 16.3125 23.625C17.1562 24.125 17.5938 24.875 17.625 25.875Z" fill="black" fill-opacity="0.72"/>
</g>
<defs>
<clipPath id="clip0_1731_6382">
<rect width="30" height="36" fill="white"/>
</clipPath>
</defs>
</svg>
