<svg width="16" height="24" viewBox="0 0 16 24" fill="none" xmlns="http://www.w3.org/2000/svg">
<g id="label-paired / md / chevrons-up-md / bold" clip-path="url(#clip0_1731_3407)">
<path id="icon" d="M8.53125 5.46875L14.5312 11.4688C14.8229 11.8229 14.8229 12.1771 14.5312 12.5312C14.1771 12.8229 13.8229 12.8229 13.4688 12.5312L8 7.0625L2.53125 12.5312C2.17708 12.8229 1.82292 12.8229 1.46875 12.5312C1.17708 12.1771 1.17708 11.8229 1.46875 11.4688L7.46875 5.46875C7.82292 5.17708 8.17708 5.17708 8.53125 5.46875ZM14.5312 17.4688C14.8229 17.8229 14.8229 18.1771 14.5312 18.5312C14.1771 18.8229 13.8229 18.8229 13.4688 18.5312L8 13.0625L2.53125 18.5312C2.17708 18.8229 1.82292 18.8229 1.46875 18.5312C1.17708 18.1771 1.17708 17.8229 1.46875 17.4688L7.46875 11.4688C7.82292 11.1771 8.17708 11.1771 8.53125 11.4688L14.5312 17.4688Z" fill="black" fill-opacity="0.72"/>
</g>
<defs>
<clipPath id="clip0_1731_3407">
<rect width="16" height="24" fill="white"/>
</clipPath>
</defs>
</svg>
