<svg width="14" height="18" viewBox="0 0 14 18" fill="none" xmlns="http://www.w3.org/2000/svg">
<g id="label-paired / caption / arrow-down-one-nine-caption / bold" clip-path="url(#clip0_1731_1143)">
<path id="icon" d="M10.9375 4.8125V6.5V7.625H11.5C11.8438 7.65625 12.0312 7.84375 12.0625 8.1875C12.0312 8.53125 11.8438 8.71875 11.5 8.75H10.375H9.25C8.90625 8.71875 8.71875 8.53125 8.6875 8.1875C8.71875 7.84375 8.90625 7.65625 9.25 7.625H9.8125V6.5V5.58594L9.4375 5.72656C9.09375 5.80469 8.85156 5.6875 8.71094 5.375C8.63281 5.03125 8.75 4.78906 9.0625 4.64844L10.1875 4.27344C10.375 4.22656 10.5469 4.25781 10.7031 4.36719C10.8594 4.47656 10.9375 4.625 10.9375 4.8125ZM3.60156 14.5859L1.35156 12.3359C1.13281 12.0703 1.13281 11.8047 1.35156 11.5391C1.61719 11.3203 1.88281 11.3203 2.14844 11.5391L3.4375 12.8281V4.8125C3.46875 4.46875 3.65625 4.28125 4 4.25C4.34375 4.28125 4.53125 4.46875 4.5625 4.8125V12.8281L5.85156 11.5391C6.11719 11.3203 6.38281 11.3203 6.64844 11.5391C6.86719 11.8047 6.86719 12.0703 6.64844 12.3359L4.39844 14.5859C4.13281 14.8047 3.86719 14.8047 3.60156 14.5859ZM10.1875 12.5C10.5469 12.4844 10.8203 12.3281 11.0078 12.0312C11.1641 11.7188 11.1641 11.4062 11.0078 11.0938C10.8203 10.7969 10.5469 10.6406 10.1875 10.625C9.82812 10.6406 9.55469 10.7969 9.36719 11.0938C9.21094 11.4062 9.21094 11.7188 9.36719 12.0312C9.55469 12.3281 9.82812 12.4844 10.1875 12.5ZM9.76562 13.5781C9.28125 13.4688 8.89062 13.2344 8.59375 12.875C8.29688 12.5156 8.14062 12.0781 8.125 11.5625C8.14062 10.9844 8.34375 10.5 8.73438 10.1094C9.125 9.71875 9.60938 9.51562 10.1875 9.5C10.7656 9.51562 11.25 9.71875 11.6406 10.1094C12.0312 10.5 12.2344 10.9844 12.25 11.5625C12.25 12.0781 12.0859 12.5312 11.7578 12.9219L10.4453 14.5391C10.1953 14.7891 9.92969 14.8203 9.64844 14.6328C9.39844 14.3828 9.36719 14.1172 9.55469 13.8359L9.76562 13.5781Z" fill="black" fill-opacity="0.72"/>
</g>
<defs>
<clipPath id="clip0_1731_1143">
<rect width="14" height="18" fill="white"/>
</clipPath>
</defs>
</svg>
