<svg width="10" height="24" viewBox="0 0 10 24" fill="none" xmlns="http://www.w3.org/2000/svg">
<g id="label-paired / md / sort-down-md / regular" clip-path="url(#clip0_1731_3622)">
<path id="icon" d="M4.8125 17.9375C4.875 17.9792 4.9375 18 5 18C5.0625 18 5.125 17.9792 5.1875 17.9375L8.9375 14.375C8.97917 14.3333 9 14.2812 9 14.2188C8.97917 14.0938 8.90625 14.0208 8.78125 14H1.21875C1.09375 14.0208 1.02083 14.0938 1 14.2188C1 14.2812 1.02083 14.3333 1.0625 14.375L4.8125 17.9375ZM4.125 18.6562L0.375 15.125C0.125 14.875 0 14.5729 0 14.2188C0 13.8646 0.114583 13.5729 0.34375 13.3438C0.572917 13.1146 0.864583 13 1.21875 13H8.78125C9.13542 13 9.42708 13.1146 9.65625 13.3438C9.88542 13.5729 10 13.8646 10 14.2188C10 14.5729 9.875 14.875 9.625 15.125L5.875 18.6562C5.625 18.8854 5.33333 19 5 19C4.66667 19 4.375 18.8854 4.125 18.6562Z" fill="black" fill-opacity="0.72"/>
</g>
<defs>
<clipPath id="clip0_1731_3622">
<rect width="10" height="24" fill="white"/>
</clipPath>
</defs>
</svg>
