<svg width="8" height="18" viewBox="0 0 8 18" fill="none" xmlns="http://www.w3.org/2000/svg">
<g id="label-paired / caption / five-caption / bold" clip-path="url(#clip0_1731_1017)">
<path id="icon" d="M1 4.71875C1.07812 4.42188 1.26562 4.26562 1.5625 4.25H6.4375C6.78125 4.28125 6.96875 4.46875 7 4.8125C6.96875 5.15625 6.78125 5.34375 6.4375 5.375H2.03125L1.49219 8.5625H4.65625C5.53125 8.57812 6.25781 8.88281 6.83594 9.47656C7.42969 10.0547 7.73438 10.7812 7.75 11.6562C7.73438 12.5312 7.42969 13.2578 6.83594 13.8359C6.25781 14.4297 5.53125 14.7344 4.65625 14.75H2.42969C1.99219 14.75 1.59375 14.6406 1.23438 14.4219C0.875 14.2031 0.601562 13.8984 0.414062 13.5078L0.296875 13.3203C0.1875 12.9922 0.273438 12.7344 0.554688 12.5469C0.882812 12.4375 1.13281 12.5234 1.30469 12.8047L1.42188 12.9922C1.64062 13.3984 1.97656 13.6094 2.42969 13.625H4.65625C5.21875 13.6094 5.67969 13.4141 6.03906 13.0391C6.41406 12.6797 6.60938 12.2188 6.625 11.6562C6.60938 11.0938 6.41406 10.6328 6.03906 10.2734C5.67969 9.89844 5.21875 9.70312 4.65625 9.6875H0.8125C0.640625 9.6875 0.5 9.61719 0.390625 9.47656C0.28125 9.35156 0.234375 9.20312 0.25 9.03125L1 4.71875Z" fill="black" fill-opacity="0.72"/>
</g>
<defs>
<clipPath id="clip0_1731_1017">
<rect width="8" height="18" fill="white"/>
</clipPath>
</defs>
</svg>
