<svg width="18" height="24" viewBox="0 0 18 24" fill="none" xmlns="http://www.w3.org/2000/svg">
<g id="label-paired / md / star-md / regular" clip-path="url(#clip0_1731_3330)">
<path id="icon" d="M7.09375 9.28125C6.92708 9.59375 6.66667 9.78125 6.3125 9.84375L2.03125 10.4688L5.15625 13.5625C5.38542 13.7917 5.47917 14.0833 5.4375 14.4375L4.6875 18.7812L8.53125 16.75C8.84375 16.5833 9.15625 16.5833 9.46875 16.75L13.3125 18.7812L12.5625 14.4375C12.5208 14.0833 12.6146 13.7917 12.8438 13.5625L15.9688 10.4688L11.6562 9.84375C11.3229 9.78125 11.0729 9.59375 10.9062 9.28125L9 5.3125L7.09375 9.28125ZM13.2812 19.9062L9 17.625L4.71875 19.9062C4.44792 20.0521 4.1875 20.0312 3.9375 19.8438C3.6875 19.6562 3.58333 19.4167 3.625 19.125L4.4375 14.25L0.96875 10.8125C0.760417 10.6042 0.697917 10.3542 0.78125 10.0625C0.885417 9.77083 1.09375 9.60417 1.40625 9.5625L6.1875 8.84375L8.3125 4.4375C8.45833 4.16667 8.6875 4.02083 9 4C9.3125 4.02083 9.54167 4.16667 9.6875 4.4375L11.8125 8.84375L16.5938 9.53125C16.9062 9.59375 17.1146 9.77083 17.2188 10.0625C17.3021 10.3542 17.2396 10.6042 17.0312 10.8125L13.5625 14.25L14.375 19.125C14.4167 19.4167 14.3125 19.6562 14.0625 19.8438C13.8125 20.0312 13.5521 20.0521 13.2812 19.9062Z" fill="black" fill-opacity="0.72"/>
</g>
<defs>
<clipPath id="clip0_1731_3330">
<rect width="18" height="24" fill="white"/>
</clipPath>
</defs>
</svg>
