<svg width="24" height="36" viewBox="0 0 24 36" fill="none" xmlns="http://www.w3.org/2000/svg">
<g id="label-paired / xl / right-from-bracket-xl / bold" clip-path="url(#clip0_1731_5708)">
<path id="icon" d="M16.5 12.8438V15.375C16.4375 16.0625 16.0625 16.4375 15.375 16.5H9.75V19.5H15.375C16.0625 19.5625 16.4375 19.9375 16.5 20.625V23.1562L21.6562 18L16.5 12.8438ZM24 18C24 18.5625 23.7969 19.0469 23.3906 19.4531L17.9531 24.8438C17.5469 25.2812 17.0312 25.5 16.4062 25.5C15.8125 25.5 15.3125 25.2812 14.9062 24.8438C14.5 24.4375 14.2812 23.9375 14.25 23.3438V21.75H9.75C9.125 21.7188 8.59375 21.5 8.15625 21.0938C7.75 20.6562 7.53125 20.125 7.5 19.5V16.5C7.53125 15.875 7.75 15.3438 8.15625 14.9062C8.59375 14.5 9.125 14.2812 9.75 14.25H14.25V12.6562C14.2812 12.0625 14.5 11.5625 14.9062 11.1562C15.3125 10.75 15.8125 10.5312 16.4062 10.5C17.0312 10.5 17.5469 10.7188 17.9531 11.1562L23.3906 16.5469C23.7969 16.9531 24 17.4375 24 18ZM7.875 9.75H4.125C3.59375 9.75 3.15625 9.9375 2.8125 10.3125C2.4375 10.6562 2.25 11.0938 2.25 11.625V24.375C2.25 24.9062 2.4375 25.3438 2.8125 25.6875C3.15625 26.0625 3.59375 26.25 4.125 26.25H7.875C8.5625 26.3125 8.9375 26.6875 9 27.375C8.9375 28.0625 8.5625 28.4375 7.875 28.5H4.125C2.96875 28.4688 2 28.0625 1.21875 27.2812C0.4375 26.5 0.03125 25.5312 0 24.375V11.625C0.03125 10.4688 0.4375 9.5 1.21875 8.71875C2 7.9375 2.96875 7.53125 4.125 7.5H7.875C8.5625 7.5625 8.9375 7.9375 9 8.625C8.9375 9.3125 8.5625 9.6875 7.875 9.75Z" fill="black" fill-opacity="0.72"/>
</g>
<defs>
<clipPath id="clip0_1731_5708">
<rect width="24" height="36" fill="white"/>
</clipPath>
</defs>
</svg>
