<svg width="18" height="24" viewBox="0 0 18 24" fill="none" xmlns="http://www.w3.org/2000/svg">
<g id="label-paired / md / file-circle-info-md / regular" clip-path="url(#clip0_1731_4007)">
<path id="icon" d="M2 19H9.25C9.5625 19.375 9.91667 19.6979 10.3125 19.9688C10.2083 19.9896 10.1042 20 10 20H2C1.4375 19.9792 0.96875 19.7812 0.59375 19.4062C0.21875 19.0312 0.0208333 18.5625 0 18V6C0.0208333 5.4375 0.21875 4.96875 0.59375 4.59375C0.96875 4.21875 1.4375 4.02083 2 4H6.875C7.29167 4 7.64583 4.14583 7.9375 4.4375L11.5625 8.0625C11.8542 8.35417 12 8.70833 12 9.125V10.1875C11.6458 10.2917 11.3125 10.4271 11 10.5938V10H7.5C7.08333 9.97917 6.72917 9.83333 6.4375 9.5625C6.16667 9.27083 6.02083 8.91667 6 8.5V5H2C1.70833 5 1.46875 5.09375 1.28125 5.28125C1.09375 5.46875 1 5.70833 1 6V18C1 18.2917 1.09375 18.5312 1.28125 18.7188C1.46875 18.9062 1.70833 19 2 19ZM11 9C10.9583 8.91667 10.9062 8.84375 10.8438 8.78125L7.21875 5.15625C7.15625 5.09375 7.08333 5.05208 7 5.03125V8.5C7.02083 8.8125 7.1875 8.97917 7.5 9H11ZM17 15.5C17 14.875 16.8438 14.2917 16.5312 13.75C16.2188 13.2083 15.7917 12.7812 15.25 12.4688C14.7083 12.1562 14.125 12 13.5 12C12.875 12 12.2917 12.1562 11.75 12.4688C11.2083 12.7812 10.7812 13.2083 10.4688 13.75C10.1562 14.2917 10 14.875 10 15.5C10 16.125 10.1562 16.7083 10.4688 17.25C10.7812 17.7917 11.2083 18.2188 11.75 18.5312C12.2917 18.8438 12.875 19 13.5 19C14.125 19 14.7083 18.8438 15.25 18.5312C15.7917 18.2188 16.2188 17.7917 16.5312 17.25C16.8438 16.7083 17 16.125 17 15.5ZM9 15.5C9 14.6875 9.19792 13.9375 9.59375 13.25C9.98958 12.5625 10.5417 12.0104 11.25 11.5938C11.9583 11.1979 12.7083 11 13.5 11C14.2917 11 15.0417 11.1979 15.75 11.5938C16.4583 12.0104 17.0104 12.5625 17.4062 13.25C17.8021 13.9375 18 14.6875 18 15.5C18 16.3125 17.8021 17.0625 17.4062 17.75C17.0104 18.4375 16.4583 18.9896 15.75 19.4062C15.0417 19.8021 14.2917 20 13.5 20C12.7083 20 11.9583 19.8021 11.25 19.4062C10.5417 18.9896 9.98958 18.4375 9.59375 17.75C9.19792 17.0625 9 16.3125 9 15.5ZM13.5 14.5C13.0417 14.4583 12.7917 14.2083 12.75 13.75C12.7917 13.2917 13.0417 13.0417 13.5 13C13.9583 13.0417 14.2083 13.2917 14.25 13.75C14.2083 14.2083 13.9583 14.4583 13.5 14.5ZM12.5 17.5C12.5208 17.1875 12.6875 17.0208 13 17V16C12.6875 15.9792 12.5208 15.8125 12.5 15.5C12.5208 15.1875 12.6875 15.0208 13 15H13.5C13.8125 15.0208 13.9792 15.1875 14 15.5V17C14.3125 17.0208 14.4792 17.1875 14.5 17.5C14.4792 17.8125 14.3125 17.9792 14 18H13.5H13C12.6875 17.9792 12.5208 17.8125 12.5 17.5Z" fill="black" fill-opacity="0.72"/>
</g>
<defs>
<clipPath id="clip0_1731_4007">
<rect width="18" height="24" fill="white"/>
</clipPath>
</defs>
</svg>
