<svg width="12" height="18" viewBox="0 0 12 18" fill="none" xmlns="http://www.w3.org/2000/svg">
<g id="label-paired / caption / reddit-caption" clip-path="url(#clip0_1731_13807)">
<path id="icon" d="M4.73438 10.6719C4.375 10.625 4.17969 10.4297 4.14844 10.0859C4.17969 9.72656 4.375 9.53125 4.73438 9.5C5.07812 9.53125 5.26562 9.72656 5.29688 10.0859C5.26562 10.4297 5.07812 10.625 4.73438 10.6719ZM11.8125 9.5C11.7969 10.5781 11.5312 11.5547 11.0156 12.4297C10.5 13.3047 9.80469 14 8.92969 14.5156C8.05469 15.0312 7.07812 15.2969 6 15.3125C4.92188 15.2969 3.94531 15.0312 3.07031 14.5156C2.19531 14 1.5 13.3047 0.984375 12.4297C0.46875 11.5547 0.203125 10.5781 0.1875 9.5C0.203125 8.42188 0.46875 7.44531 0.984375 6.57031C1.5 5.69531 2.19531 5 3.07031 4.48438C3.94531 3.96875 4.92188 3.70313 6 3.6875C7.07812 3.70313 8.05469 3.96875 8.92969 4.48438C9.80469 5 10.5 5.69531 11.0156 6.57031C11.5312 7.44531 11.7969 8.42188 11.8125 9.5ZM8.71875 8.53906C8.48438 8.53906 8.29688 8.61719 8.15625 8.77344C7.60938 8.39844 6.9375 8.1875 6.14062 8.14062L6.53906 6.3125L7.85156 6.59375C7.88281 6.95312 8.07031 7.14844 8.41406 7.17969C8.77344 7.14844 8.96875 6.95312 9 6.59375C8.96875 6.23438 8.77344 6.03906 8.41406 6.00781C8.17969 6.02344 8.00781 6.13281 7.89844 6.33594L6.46875 6.00781C6.39062 6.00781 6.33594 6.04688 6.30469 6.125L5.85938 8.14062C5.0625 8.1875 4.39062 8.39844 3.84375 8.77344C3.70312 8.61719 3.51562 8.53906 3.28125 8.53906C2.875 8.57031 2.625 8.76562 2.53125 9.125C2.45312 9.48438 2.59375 9.78125 2.95312 10.0156C2.92188 10.125 2.90625 10.2422 2.90625 10.3672C2.9375 11.0078 3.24219 11.5312 3.82031 11.9375C4.39844 12.3594 5.125 12.5781 6 12.5938C6.875 12.5781 7.60938 12.3594 8.20312 11.9375C8.78125 11.5312 9.08594 11.0078 9.11719 10.3672C9.11719 10.2422 9.10156 10.1172 9.07031 9.99219C9.41406 9.77344 9.54688 9.48438 9.46875 9.125C9.375 8.76562 9.125 8.57031 8.71875 8.53906ZM7.10156 11.2578C6.85156 11.4766 6.48438 11.5859 6 11.5859C5.51562 11.5703 5.14844 11.4609 4.89844 11.2578C4.83594 11.2109 4.77344 11.2109 4.71094 11.2578C4.64844 11.3359 4.64844 11.4062 4.71094 11.4688C5.02344 11.7344 5.45312 11.8672 6 11.8672C6.54688 11.8672 6.97656 11.7344 7.28906 11.4688C7.35156 11.4062 7.35156 11.3359 7.28906 11.2578C7.22656 11.2109 7.16406 11.2109 7.10156 11.2578ZM7.28906 9.5C6.92969 9.53125 6.73438 9.72656 6.70312 10.0859C6.73438 10.4297 6.92969 10.625 7.28906 10.6719C7.63281 10.625 7.82031 10.4297 7.85156 10.0859C7.82031 9.72656 7.63281 9.53125 7.28906 9.5Z" fill="black" fill-opacity="0.72"/>
</g>
<defs>
<clipPath id="clip0_1731_13807">
<rect width="12" height="18" fill="white"/>
</clipPath>
</defs>
</svg>
