<svg width="18" height="30" viewBox="0 0 18 30" fill="none" xmlns="http://www.w3.org/2000/svg">
<g id="label-paired / lg / stopwatch-lg / regular" clip-path="url(#clip0_1731_5429)">
<path id="icon" d="M5.25 6.125C5.27604 5.73438 5.48438 5.52604 5.875 5.5H12.125C12.5156 5.52604 12.724 5.73438 12.75 6.125C12.724 6.51562 12.5156 6.72396 12.125 6.75H9.625V9.28906C11.6042 9.47135 13.2708 10.2135 14.625 11.5156L16.0703 10.0703C16.3568 9.8099 16.6432 9.8099 16.9297 10.0703C17.1901 10.3568 17.1901 10.6432 16.9297 10.9297L15.4453 12.4141C16.5391 13.8203 17.099 15.474 17.125 17.375C17.0729 19.6667 16.2786 21.5807 14.7422 23.1172C13.2057 24.6536 11.2917 25.4479 9 25.5C6.70833 25.4479 4.79427 24.6536 3.25781 23.1172C1.72135 21.5807 0.927083 19.6667 0.875 17.375C0.927083 15.1875 1.65625 13.3385 3.0625 11.8281C4.46875 10.3438 6.23958 9.4974 8.375 9.28906V6.75H5.875C5.48438 6.72396 5.27604 6.51562 5.25 6.125ZM2.125 17.375C2.125 18.625 2.4375 19.7708 3.0625 20.8125C3.66146 21.8542 4.49479 22.6875 5.5625 23.3125C6.65625 23.9375 7.80208 24.25 9 24.25C10.1979 24.25 11.3438 23.9375 12.4375 23.3125C13.5052 22.6875 14.3385 21.8542 14.9375 20.8125C15.5625 19.7708 15.875 18.625 15.875 17.375C15.875 16.125 15.5625 14.9792 14.9375 13.9375C14.3385 12.8958 13.5052 12.0625 12.4375 11.4375C11.3438 10.8125 10.1979 10.5 9 10.5C7.80208 10.5 6.65625 10.8125 5.5625 11.4375C4.49479 12.0625 3.66146 12.8958 3.0625 13.9375C2.4375 14.9792 2.125 16.125 2.125 17.375ZM9.625 13.625V18C9.59896 18.3906 9.39062 18.599 9 18.625C8.60938 18.599 8.40104 18.3906 8.375 18V13.625C8.40104 13.2344 8.60938 13.026 9 13C9.39062 13.026 9.59896 13.2344 9.625 13.625Z" fill="black" fill-opacity="0.72"/>
</g>
<defs>
<clipPath id="clip0_1731_5429">
<rect width="18" height="30" fill="white"/>
</clipPath>
</defs>
</svg>
