<svg width="14" height="24" viewBox="0 0 14 24" fill="none" xmlns="http://www.w3.org/2000/svg">
<g id="label-paired / md / arrow-right-arrow-left-md / regular" clip-path="url(#clip0_1731_3505)">
<path id="icon" d="M13.8438 8.34375L10.8438 11.3438C10.6146 11.5521 10.3854 11.5521 10.1562 11.3438C9.94792 11.1146 9.94792 10.8854 10.1562 10.6562L12.2812 8.5H0.5C0.1875 8.47917 0.0208333 8.3125 0 8C0.0208333 7.6875 0.1875 7.52083 0.5 7.5H12.2812L10.1562 5.34375C9.94792 5.11458 9.94792 4.88542 10.1562 4.65625C10.3854 4.44792 10.6146 4.44792 10.8438 4.65625L13.8438 7.65625C14.0521 7.88542 14.0521 8.11458 13.8438 8.34375ZM3.15625 19.3438L0.15625 16.3438C-0.0520833 16.1146 -0.0520833 15.8854 0.15625 15.6562L3.15625 12.6562C3.38542 12.4479 3.61458 12.4479 3.84375 12.6562C4.05208 12.8854 4.05208 13.1146 3.84375 13.3438L1.71875 15.5H13.5C13.8125 15.5208 13.9792 15.6875 14 16C13.9792 16.3125 13.8125 16.4792 13.5 16.5H1.71875L3.84375 18.6562C4.05208 18.8854 4.05208 19.1146 3.84375 19.3438C3.61458 19.5521 3.38542 19.5521 3.15625 19.3438Z" fill="black" fill-opacity="0.72"/>
</g>
<defs>
<clipPath id="clip0_1731_3505">
<rect width="14" height="24" fill="white"/>
</clipPath>
</defs>
</svg>
