<svg width="14" height="22" viewBox="0 0 14 22" fill="none" xmlns="http://www.w3.org/2000/svg">
<g id="label-paired / sm / calendar-range-sm / regular" clip-path="url(#clip0_1731_1857)">
<path id="icon" d="M3.9375 3.75C4.21094 3.76823 4.35677 3.91406 4.375 4.1875V5.5H9.625V4.1875C9.64323 3.91406 9.78906 3.76823 10.0625 3.75C10.3359 3.76823 10.4818 3.91406 10.5 4.1875V5.5H11.375C11.8672 5.51823 12.2773 5.69141 12.6055 6.01953C12.9336 6.34766 13.1068 6.75781 13.125 7.25V8.125V9V16C13.1068 16.4922 12.9336 16.9023 12.6055 17.2305C12.2773 17.5586 11.8672 17.7318 11.375 17.75H2.625C2.13281 17.7318 1.72266 17.5586 1.39453 17.2305C1.06641 16.9023 0.893229 16.4922 0.875 16V9V8.125V7.25C0.893229 6.75781 1.06641 6.34766 1.39453 6.01953C1.72266 5.69141 2.13281 5.51823 2.625 5.5H3.5V4.1875C3.51823 3.91406 3.66406 3.76823 3.9375 3.75ZM12.25 9H1.75V16C1.75 16.2552 1.83203 16.4648 1.99609 16.6289C2.16016 16.793 2.36979 16.875 2.625 16.875H11.375C11.6302 16.875 11.8398 16.793 12.0039 16.6289C12.168 16.4648 12.25 16.2552 12.25 16V9ZM11.375 6.375H2.625C2.36979 6.375 2.16016 6.45703 1.99609 6.62109C1.83203 6.78516 1.75 6.99479 1.75 7.25V8.125H12.25V7.25C12.25 6.99479 12.168 6.78516 12.0039 6.62109C11.8398 6.45703 11.6302 6.375 11.375 6.375ZM11.375 11.1875C11.3568 11.4609 11.2109 11.6068 10.9375 11.625H6.5625C6.28906 11.6068 6.14323 11.4609 6.125 11.1875C6.14323 10.9141 6.28906 10.7682 6.5625 10.75H10.9375C11.2109 10.7682 11.3568 10.9141 11.375 11.1875ZM7.4375 15.125H3.0625C2.78906 15.1068 2.64323 14.9609 2.625 14.6875C2.64323 14.4141 2.78906 14.2682 3.0625 14.25H7.4375C7.71094 14.2682 7.85677 14.4141 7.875 14.6875C7.85677 14.9609 7.71094 15.1068 7.4375 15.125ZM3.5 11.1875C3.51823 11.4609 3.66406 11.6068 3.9375 11.625C4.21094 11.6068 4.35677 11.4609 4.375 11.1875C4.35677 10.9141 4.21094 10.7682 3.9375 10.75C3.66406 10.7682 3.51823 10.9141 3.5 11.1875ZM3.9375 12.5C3.44531 12.4818 3.0625 12.263 2.78906 11.8438C2.57031 11.4062 2.57031 10.9688 2.78906 10.5312C3.0625 10.112 3.44531 9.89323 3.9375 9.875C4.42969 9.89323 4.8125 10.112 5.08594 10.5312C5.30469 10.9688 5.30469 11.4062 5.08594 11.8438C4.8125 12.263 4.42969 12.4818 3.9375 12.5ZM10.0625 15.125C10.3359 15.1068 10.4818 14.9609 10.5 14.6875C10.4818 14.4141 10.3359 14.2682 10.0625 14.25C9.78906 14.2682 9.64323 14.4141 9.625 14.6875C9.64323 14.9609 9.78906 15.1068 10.0625 15.125ZM11.375 14.6875C11.3568 15.1797 11.138 15.5625 10.7188 15.8359C10.2812 16.0547 9.84375 16.0547 9.40625 15.8359C8.98698 15.5625 8.76823 15.1797 8.75 14.6875C8.76823 14.1953 8.98698 13.8125 9.40625 13.5391C9.84375 13.3203 10.2812 13.3203 10.7188 13.5391C11.138 13.8125 11.3568 14.1953 11.375 14.6875Z" fill="black" fill-opacity="0.72"/>
</g>
<defs>
<clipPath id="clip0_1731_1857">
<rect width="14" height="22" fill="white"/>
</clipPath>
</defs>
</svg>
