<svg width="24" height="36" viewBox="0 0 24 36" fill="none" xmlns="http://www.w3.org/2000/svg">
<g id="label-paired / xl / wallet-xl / regular" clip-path="url(#clip0_1731_6693)">
<path id="icon" d="M3.75 7.5H21.75C22.2188 7.53125 22.4688 7.78125 22.5 8.25C22.4688 8.71875 22.2188 8.96875 21.75 9H3.75C3.125 9.03125 2.59375 9.25 2.15625 9.65625C1.75 10.0938 1.53125 10.625 1.5 11.25V24.75C1.53125 25.375 1.75 25.9062 2.15625 26.3438C2.59375 26.75 3.125 26.9688 3.75 27H20.25C20.875 26.9688 21.4062 26.75 21.8438 26.3438C22.25 25.9062 22.4688 25.375 22.5 24.75V14.25C22.4688 13.625 22.25 13.0938 21.8438 12.6562C21.4062 12.25 20.875 12.0312 20.25 12H5.25C4.78125 11.9688 4.53125 11.7188 4.5 11.25C4.53125 10.7812 4.78125 10.5312 5.25 10.5H20.25C21.3125 10.5312 22.2031 10.8906 22.9219 11.5781C23.6094 12.2969 23.9688 13.1875 24 14.25V24.75C23.9688 25.8125 23.6094 26.7031 22.9219 27.4219C22.2031 28.1094 21.3125 28.4688 20.25 28.5H3.75C2.6875 28.4688 1.79688 28.1094 1.07812 27.4219C0.390625 26.7031 0.03125 25.8125 0 24.75V11.25C0.03125 10.1875 0.390625 9.29688 1.07812 8.57812C1.79688 7.89062 2.6875 7.53125 3.75 7.5ZM18 20.625C17.3125 20.5625 16.9375 20.1875 16.875 19.5C16.9375 18.8125 17.3125 18.4375 18 18.375C18.6875 18.4375 19.0625 18.8125 19.125 19.5C19.0625 20.1875 18.6875 20.5625 18 20.625Z" fill="black" fill-opacity="0.72"/>
</g>
<defs>
<clipPath id="clip0_1731_6693">
<rect width="24" height="36" fill="white"/>
</clipPath>
</defs>
</svg>
