<svg width="23" height="30" viewBox="0 0 23 30" fill="none" xmlns="http://www.w3.org/2000/svg">
<g id="label-paired / lg / money-bill-lg / regular" clip-path="url(#clip0_1731_5200)">
<path id="icon" d="M19 9.25C19.026 9.95312 19.2734 10.5391 19.7422 11.0078C20.2109 11.4766 20.7969 11.724 21.5 11.75V10.5C21.5 10.1354 21.3828 9.83594 21.1484 9.60156C20.9141 9.36719 20.6146 9.25 20.25 9.25H19ZM17.75 9.25H5.25C5.22396 10.3177 4.85938 11.2031 4.15625 11.9062C3.45312 12.6094 2.56771 12.974 1.5 13V18C2.56771 18.026 3.45312 18.3906 4.15625 19.0938C4.85938 19.7969 5.22396 20.6823 5.25 21.75H17.75C17.776 20.6823 18.1406 19.7969 18.8438 19.0938C19.5469 18.3906 20.4323 18.026 21.5 18V13C20.4323 12.974 19.5469 12.6094 18.8438 11.9062C18.1406 11.2031 17.776 10.3177 17.75 9.25ZM1.5 20.5C1.5 20.8646 1.61719 21.1641 1.85156 21.3984C2.08594 21.6328 2.38542 21.75 2.75 21.75H4C3.97396 21.0469 3.72656 20.4609 3.25781 19.9922C2.78906 19.5234 2.20312 19.276 1.5 19.25V20.5ZM21.5 19.25C20.7969 19.276 20.2109 19.5234 19.7422 19.9922C19.2734 20.4609 19.026 21.0469 19 21.75H20.25C20.6146 21.75 20.9141 21.6328 21.1484 21.3984C21.3828 21.1641 21.5 20.8646 21.5 20.5V19.25ZM2.75 9.25C2.38542 9.25 2.08594 9.36719 1.85156 9.60156C1.61719 9.83594 1.5 10.1354 1.5 10.5V11.75C2.20312 11.724 2.78906 11.4766 3.25781 11.0078C3.72656 10.5391 3.97396 9.95312 4 9.25H2.75ZM0.25 10.5C0.276042 9.79688 0.523438 9.21094 0.992188 8.74219C1.46094 8.27344 2.04688 8.02604 2.75 8H20.25C20.9531 8.02604 21.5391 8.27344 22.0078 8.74219C22.4766 9.21094 22.724 9.79688 22.75 10.5V20.5C22.724 21.2031 22.4766 21.7891 22.0078 22.2578C21.5391 22.7266 20.9531 22.974 20.25 23H2.75C2.04688 22.974 1.46094 22.7266 0.992188 22.2578C0.523438 21.7891 0.276042 21.2031 0.25 20.5V10.5ZM14 15.5C13.974 14.5625 13.5573 13.8464 12.75 13.3516C11.9167 12.8828 11.0833 12.8828 10.25 13.3516C9.44271 13.8464 9.02604 14.5625 9 15.5C9.02604 16.4375 9.44271 17.1536 10.25 17.6484C11.0833 18.1172 11.9167 18.1172 12.75 17.6484C13.5573 17.1536 13.974 16.4375 14 15.5ZM7.75 15.5C7.75 14.8229 7.91927 14.1979 8.25781 13.625C8.59635 13.0521 9.05208 12.5964 9.625 12.2578C10.224 11.9193 10.849 11.75 11.5 11.75C12.151 11.75 12.776 11.9193 13.375 12.2578C13.9479 12.5964 14.4036 13.0521 14.7422 13.625C15.0807 14.1979 15.25 14.8229 15.25 15.5C15.25 16.1771 15.0807 16.8021 14.7422 17.375C14.4036 17.9479 13.9479 18.4036 13.375 18.7422C12.776 19.0807 12.151 19.25 11.5 19.25C10.849 19.25 10.224 19.0807 9.625 18.7422C9.05208 18.4036 8.59635 17.9479 8.25781 17.375C7.91927 16.8021 7.75 16.1771 7.75 15.5Z" fill="black" fill-opacity="0.72"/>
</g>
<defs>
<clipPath id="clip0_1731_5200">
<rect width="23" height="30" fill="white"/>
</clipPath>
</defs>
</svg>
