<svg width="14" height="24" viewBox="0 0 14 24" fill="none" xmlns="http://www.w3.org/2000/svg">
<g id="label-paired / md / arrow-right-md / bold" clip-path="url(#clip0_1731_3352)">
<path id="icon" d="M13.7812 12.5312L8.28125 17.7812C7.90625 18.0729 7.55208 18.0729 7.21875 17.7812C6.92708 17.4062 6.92708 17.0521 7.21875 16.7188L11.375 12.75H0.75C0.291667 12.7083 0.0416667 12.4583 0 12C0.0416667 11.5417 0.291667 11.2917 0.75 11.25H11.375L7.25 7.28125C6.9375 6.94792 6.92708 6.59375 7.21875 6.21875C7.55208 5.92708 7.90625 5.92708 8.28125 6.21875L13.7812 11.4688C13.9271 11.6146 14 11.7917 14 12C14 12.2083 13.9271 12.3854 13.7812 12.5312Z" fill="black" fill-opacity="0.72"/>
</g>
<defs>
<clipPath id="clip0_1731_3352">
<rect width="14" height="24" fill="white"/>
</clipPath>
</defs>
</svg>
