<svg width="18" height="22" viewBox="0 0 18 22" fill="none" xmlns="http://www.w3.org/2000/svg">
<g id="label-paired / sm / users-sm / regular" clip-path="url(#clip0_1731_3016)">
<path id="icon" d="M2.875 5.9375C2.89323 6.42969 3.11198 6.8125 3.53125 7.08594C3.96875 7.30469 4.40625 7.30469 4.84375 7.08594C5.26302 6.8125 5.48177 6.42969 5.5 5.9375C5.48177 5.44531 5.26302 5.0625 4.84375 4.78906C4.40625 4.57031 3.96875 4.57031 3.53125 4.78906C3.11198 5.0625 2.89323 5.44531 2.875 5.9375ZM6.375 5.9375C6.35677 6.75781 5.99219 7.38672 5.28125 7.82422C4.55208 8.22526 3.82292 8.22526 3.09375 7.82422C2.38281 7.38672 2.01823 6.75781 2 5.9375C2.01823 5.11719 2.38281 4.48828 3.09375 4.05078C3.82292 3.64974 4.55208 3.64974 5.28125 4.05078C5.99219 4.48828 6.35677 5.11719 6.375 5.9375ZM9 8.125C8.34375 8.14323 7.84245 8.4349 7.49609 9C7.16797 9.58333 7.16797 10.1667 7.49609 10.75C7.84245 11.3151 8.34375 11.6068 9 11.625C9.65625 11.6068 10.1576 11.3151 10.5039 10.75C10.832 10.1667 10.832 9.58333 10.5039 9C10.1576 8.4349 9.65625 8.14323 9 8.125ZM9 12.5C8.52604 12.5 8.08854 12.3815 7.6875 12.1445C7.28646 11.9076 6.96745 11.5885 6.73047 11.1875C6.49349 10.7682 6.375 10.3307 6.375 9.875C6.375 9.41927 6.49349 8.98177 6.73047 8.5625C6.96745 8.16146 7.28646 7.84245 7.6875 7.60547C8.08854 7.36849 8.52604 7.25 9 7.25C9.47396 7.25 9.91146 7.36849 10.3125 7.60547C10.7135 7.84245 11.0326 8.16146 11.2695 8.5625C11.5065 8.98177 11.625 9.41927 11.625 9.875C11.625 10.3307 11.5065 10.7682 11.2695 11.1875C11.0326 11.5885 10.7135 11.9076 10.3125 12.1445C9.91146 12.3815 9.47396 12.5 9 12.5ZM7.38672 14.25C6.63932 14.2682 6.0013 14.5234 5.47266 15.0156C4.96224 15.5078 4.67969 16.1276 4.625 16.875H13.375C13.3203 16.1276 13.0378 15.5078 12.5273 15.0156C11.9987 14.5234 11.3607 14.2682 10.6133 14.25H7.38672ZM7.38672 13.375H10.6133C11.6341 13.3932 12.4909 13.7487 13.1836 14.4414C13.8763 15.1341 14.2318 15.9909 14.25 17.0117C14.2135 17.4674 13.9674 17.7135 13.5117 17.75H4.48828C4.03255 17.7135 3.78646 17.4674 3.75 17.0117C3.76823 15.9909 4.1237 15.1341 4.81641 14.4414C5.50911 13.7487 6.36589 13.3932 7.38672 13.375ZM14.25 4.625C13.7578 4.64323 13.375 4.86198 13.1016 5.28125C12.8828 5.71875 12.8828 6.15625 13.1016 6.59375C13.375 7.01302 13.7578 7.23177 14.25 7.25C14.7422 7.23177 15.125 7.01302 15.3984 6.59375C15.6172 6.15625 15.6172 5.71875 15.3984 5.28125C15.125 4.86198 14.7422 4.64323 14.25 4.625ZM14.25 8.125C13.4297 8.10677 12.8008 7.74219 12.3633 7.03125C11.9622 6.30208 11.9622 5.57292 12.3633 4.84375C12.8008 4.13281 13.4297 3.76823 14.25 3.75C15.0703 3.76823 15.6992 4.13281 16.1367 4.84375C16.5378 5.57292 16.5378 6.30208 16.1367 7.03125C15.6992 7.74219 15.0703 8.10677 14.25 8.125ZM14.6875 9.875H12.5C12.5 9.5651 12.4635 9.27344 12.3906 9H14.6875C15.5625 9.01823 16.2826 9.31901 16.8477 9.90234C17.431 10.4674 17.7318 11.1875 17.75 12.0625C17.7318 12.3359 17.5859 12.4818 17.3125 12.5C17.0391 12.4818 16.8932 12.3359 16.875 12.0625C16.8568 11.4427 16.6471 10.9232 16.2461 10.5039C15.8268 10.1029 15.3073 9.89323 14.6875 9.875ZM5.5 9.875H3.3125C2.69271 9.89323 2.17318 10.1029 1.75391 10.5039C1.35286 10.9232 1.14323 11.4427 1.125 12.0625C1.10677 12.3359 0.960938 12.4818 0.6875 12.5C0.414062 12.4818 0.268229 12.3359 0.25 12.0625C0.268229 11.1875 0.56901 10.4674 1.15234 9.90234C1.71745 9.31901 2.4375 9.01823 3.3125 9H5.60938C5.53646 9.27344 5.5 9.5651 5.5 9.875Z" fill="black" fill-opacity="0.72"/>
</g>
<defs>
<clipPath id="clip0_1731_3016">
<rect width="18" height="22" fill="white"/>
</clipPath>
</defs>
</svg>
