<svg width="25" height="30" viewBox="0 0 25 30" fill="none" xmlns="http://www.w3.org/2000/svg">
<g id="label-paired / lg / apple-pay-lg" clip-path="url(#clip0_1731_14043)">
<path id="icon" d="M4.57031 11.7109V11.6719C4.88281 11.3073 5.02604 10.8776 5 10.3828C4.53125 10.4089 4.1276 10.6172 3.78906 11.0078C3.47656 11.3464 3.32031 11.763 3.32031 12.2578C3.84115 12.2578 4.25781 12.0755 4.57031 11.7109ZM5 12.375C5.15625 12.375 5.3776 12.4141 5.66406 12.4922C5.97656 12.5964 6.26302 12.8307 6.52344 13.1953C6.4974 13.1953 6.48438 13.1953 6.48438 13.1953C6.38021 13.2474 6.22396 13.4036 6.01562 13.6641C5.78125 13.8984 5.65104 14.263 5.625 14.7578C5.65104 15.3307 5.80729 15.7474 6.09375 16.0078C6.40625 16.2682 6.61458 16.4115 6.71875 16.4375C6.71875 16.4635 6.66667 16.5938 6.5625 16.8281C6.48438 17.0365 6.35417 17.2969 6.17188 17.6094C5.98958 17.8698 5.79427 18.1042 5.58594 18.3125C5.40365 18.4948 5.16927 18.599 4.88281 18.625C4.6224 18.625 4.41406 18.5729 4.25781 18.4688C4.07552 18.3646 3.82812 18.2995 3.51562 18.2734C3.20312 18.2995 2.95573 18.3646 2.77344 18.4688C2.61719 18.5469 2.42188 18.599 2.1875 18.625C1.90104 18.625 1.65365 18.5208 1.44531 18.3125C1.23698 18.1042 1.04167 17.8568 0.859375 17.5703C0.494792 17.0234 0.234375 16.3594 0.078125 15.5781C-0.078125 14.7969 0.0130208 14.0807 0.351562 13.4297C0.742188 12.7786 1.3151 12.4271 2.07031 12.375C2.35677 12.401 2.63021 12.4792 2.89062 12.6094C3.09896 12.6875 3.26823 12.7396 3.39844 12.7656C3.52865 12.7396 3.69792 12.6875 3.90625 12.6094C4.21875 12.4531 4.58333 12.375 5 12.375ZM8.90625 10.9297H11.7578C12.513 10.9557 13.125 11.1901 13.5938 11.6328C14.0365 12.1016 14.2578 12.7005 14.2578 13.4297C14.2578 14.1849 14.0234 14.7969 13.5547 15.2656C13.112 15.7083 12.5 15.9427 11.7188 15.9688H10.0781V18.5469H8.90625V10.9297ZM10.0781 11.9453V14.9531H11.4453C12.513 14.9271 13.0599 14.4323 13.0859 13.4688C13.0599 12.4792 12.513 11.9714 11.4453 11.9453H10.0781ZM16.4453 18.625C15.8724 18.625 15.4167 18.4688 15.0781 18.1562C14.7396 17.8698 14.5703 17.4792 14.5703 16.9844C14.5964 15.9948 15.2995 15.4479 16.6797 15.3438L18.1641 15.2656V14.8359C18.138 14.2109 17.7604 13.8984 17.0312 13.8984C16.4062 13.9245 16.0286 14.1849 15.8984 14.6797H14.8438C14.8698 14.1589 15.0911 13.7422 15.5078 13.4297C15.8984 13.1172 16.4193 12.9609 17.0703 12.9609C17.7474 12.9609 18.2812 13.1302 18.6719 13.4688C19.0885 13.7812 19.2969 14.2109 19.2969 14.7578V18.5469H18.2031V17.6484H18.1641C17.7995 18.2734 17.2266 18.599 16.4453 18.625ZM16.7578 17.7266C17.1745 17.7266 17.513 17.6094 17.7734 17.375C18.0339 17.1406 18.1641 16.8542 18.1641 16.5156V16.0859L16.8359 16.1641C16.1068 16.2161 15.7292 16.4766 15.7031 16.9453C15.7552 17.4401 16.1068 17.7005 16.7578 17.7266ZM20.7422 20.6172C20.5859 20.6172 20.4427 20.6172 20.3125 20.6172V19.6797C20.4167 19.7057 20.5339 19.7188 20.6641 19.7188C21.1589 19.7448 21.4844 19.4844 21.6406 18.9375L21.7578 18.5859L19.7656 13.0391H20.9766L22.3828 17.5312H22.4219L23.7891 13.0391H25L22.9297 18.8594C22.6953 19.5104 22.4219 19.9661 22.1094 20.2266C21.7708 20.513 21.3151 20.6432 20.7422 20.6172Z" fill="black" fill-opacity="0.72"/>
</g>
<defs>
<clipPath id="clip0_1731_14043">
<rect width="25" height="30" fill="white"/>
</clipPath>
</defs>
</svg>
