<svg width="14" height="18" viewBox="0 0 14 18" fill="none" xmlns="http://www.w3.org/2000/svg">
<g id="label-paired / caption / file-circle-info-caption / bold" clip-path="url(#clip0_1731_1493)">
<path id="icon" d="M1.75 14.375H6.92969C7.21094 14.8125 7.5625 15.1797 7.98438 15.4766C7.90625 15.4922 7.82812 15.5 7.75 15.5H1.75C1.32812 15.4844 0.976562 15.3359 0.695312 15.0547C0.414062 14.7734 0.265625 14.4219 0.25 14V5C0.265625 4.57812 0.414062 4.22656 0.695312 3.94531C0.976562 3.66406 1.32812 3.51563 1.75 3.5H5.64062C6.04688 3.5 6.39844 3.64844 6.69531 3.94531L8.80469 6.05469C9.10156 6.35156 9.25 6.71094 9.25 7.13281V8.16406C8.84375 8.27344 8.46875 8.4375 8.125 8.65625V7.25H6.25C6.03125 7.25 5.85156 7.17969 5.71094 7.03906C5.57031 6.89844 5.5 6.71875 5.5 6.5V4.625H1.75C1.51562 4.64062 1.39062 4.76562 1.375 5V14C1.39062 14.2344 1.51562 14.3594 1.75 14.375ZM10.375 8.75C10.9844 8.75 11.5469 8.89844 12.0625 9.19531C12.5781 9.49219 12.9922 9.90625 13.3047 10.4375C13.6016 10.9688 13.75 11.5312 13.75 12.125C13.75 12.7188 13.6016 13.2812 13.3047 13.8125C12.9922 14.3438 12.5781 14.7578 12.0625 15.0547C11.5469 15.3516 10.9844 15.5 10.375 15.5C9.76562 15.5 9.20312 15.3516 8.6875 15.0547C8.17188 14.7578 7.75781 14.3438 7.44531 13.8125C7.14844 13.2812 7 12.7188 7 12.125C7 11.5312 7.14844 10.9688 7.44531 10.4375C7.75781 9.90625 8.17188 9.49219 8.6875 9.19531C9.20312 8.89844 9.76562 8.75 10.375 8.75ZM10.375 11C10.7188 10.9688 10.9062 10.7812 10.9375 10.4375C10.9062 10.0938 10.7188 9.90625 10.375 9.875C10.0312 9.90625 9.84375 10.0938 9.8125 10.4375C9.84375 10.7812 10.0312 10.9688 10.375 11ZM9.625 12.125C9.64062 12.3594 9.76562 12.4844 10 12.5V13.625C9.76562 13.6406 9.64062 13.7656 9.625 14C9.64062 14.2344 9.76562 14.3594 10 14.375H10.375H10.75C10.9844 14.3594 11.1094 14.2344 11.125 14C11.1094 13.7656 10.9844 13.6406 10.75 13.625V12.125C10.7344 11.8906 10.6094 11.7656 10.375 11.75H10C9.76562 11.7656 9.64062 11.8906 9.625 12.125Z" fill="black" fill-opacity="0.72"/>
</g>
<defs>
<clipPath id="clip0_1731_1493">
<rect width="14" height="18" fill="white"/>
</clipPath>
</defs>
</svg>
