<svg width="12" height="24" viewBox="0 0 12 24" fill="none" xmlns="http://www.w3.org/2000/svg">
<g id="label-paired / md / moon-md / regular" clip-path="url(#clip0_1731_3255)">
<path id="icon" d="M5.96875 6.09375C4.53125 6.36458 3.35417 7.04167 2.4375 8.125C1.5 9.1875 1.02083 10.4792 1 12C1.04167 13.7083 1.625 15.125 2.75 16.25C3.875 17.375 5.29167 17.9583 7 18C8.0625 17.9792 9.04167 17.7188 9.9375 17.2188C8.22917 17.0521 6.82292 16.3646 5.71875 15.1562C4.61458 13.9688 4.04167 12.5 4 10.75C4 9.83333 4.17708 8.97917 4.53125 8.1875C4.86458 7.375 5.34375 6.67708 5.96875 6.09375ZM8.03125 5.40625C8.07292 5.65625 7.98958 5.84375 7.78125 5.96875C6.94792 6.44792 6.27083 7.10417 5.75 7.9375C5.25 8.77083 5 9.70833 5 10.75C5.04167 12.3125 5.57292 13.6042 6.59375 14.625C7.63542 15.6667 8.92708 16.2083 10.4688 16.25C10.8021 16.25 11.1146 16.2188 11.4062 16.1562C11.6562 16.1354 11.8333 16.2292 11.9375 16.4375C12.0417 16.6458 12.0104 16.8438 11.8438 17.0312C10.5521 18.3021 8.9375 18.9583 7 19C5.6875 18.9792 4.51042 18.6562 3.46875 18.0312C2.40625 17.4271 1.57292 16.5938 0.96875 15.5312C0.34375 14.4896 0.0208333 13.3125 0 12C0.0208333 10.6875 0.333333 9.51042 0.9375 8.46875C1.5625 7.40625 2.40625 6.57292 3.46875 5.96875C4.51042 5.34375 5.67708 5.02083 6.96875 5C7.17708 5 7.375 5.01042 7.5625 5.03125C7.8125 5.05208 7.96875 5.17708 8.03125 5.40625Z" fill="black" fill-opacity="0.72"/>
</g>
<defs>
<clipPath id="clip0_1731_3255">
<rect width="12" height="24" fill="white"/>
</clipPath>
</defs>
</svg>
