<svg width="16" height="22" viewBox="0 0 16 22" fill="none" xmlns="http://www.w3.org/2000/svg">
<g id="label-paired / sm / memo-circle-check-sm / regular" clip-path="url(#clip0_1731_2769)">
<path id="icon" d="M8.875 4.625H1.875C1.61979 4.625 1.41016 4.70703 1.24609 4.87109C1.08203 5.03516 1 5.24479 1 5.5V16C1 16.2552 1.08203 16.4648 1.24609 16.6289C1.41016 16.793 1.61979 16.875 1.875 16.875H8.21875C8.49219 17.2031 8.80208 17.4857 9.14844 17.7227C9.05729 17.7409 8.96615 17.75 8.875 17.75H1.875C1.38281 17.7318 0.972656 17.5586 0.644531 17.2305C0.316406 16.9023 0.143229 16.4922 0.125 16V5.5C0.143229 5.00781 0.316406 4.59766 0.644531 4.26953C0.972656 3.94141 1.38281 3.76823 1.875 3.75H8.875C9.36719 3.76823 9.77734 3.94141 10.1055 4.26953C10.4336 4.59766 10.6068 5.00781 10.625 5.5V9.19141C10.3151 9.26432 10.0234 9.3737 9.75 9.51953V5.5C9.75 5.24479 9.66797 5.03516 9.50391 4.87109C9.33984 4.70703 9.13021 4.625 8.875 4.625ZM1.875 7.6875C1.89323 7.41406 2.03906 7.26823 2.3125 7.25H8.4375C8.71094 7.26823 8.85677 7.41406 8.875 7.6875C8.85677 7.96094 8.71094 8.10677 8.4375 8.125H2.3125C2.03906 8.10677 1.89323 7.96094 1.875 7.6875ZM2.3125 9.875H7.5625C7.83594 9.89323 7.98177 10.0391 8 10.3125C7.98177 10.5859 7.83594 10.7318 7.5625 10.75H2.3125C2.03906 10.7318 1.89323 10.5859 1.875 10.3125C1.89323 10.0391 2.03906 9.89323 2.3125 9.875ZM2.3125 12.5H5.8125C6.08594 12.5182 6.23177 12.6641 6.25 12.9375C6.23177 13.2109 6.08594 13.3568 5.8125 13.375H2.3125C2.03906 13.3568 1.89323 13.2109 1.875 12.9375C1.89323 12.6641 2.03906 12.5182 2.3125 12.5ZM11.9375 16.875C12.4844 16.875 12.9948 16.7383 13.4688 16.4648C13.9427 16.1914 14.3164 15.8177 14.5898 15.3438C14.8633 14.8698 15 14.3594 15 13.8125C15 13.2656 14.8633 12.7552 14.5898 12.2812C14.3164 11.8073 13.9427 11.4336 13.4688 11.1602C12.9948 10.8867 12.4844 10.75 11.9375 10.75C11.3906 10.75 10.8802 10.8867 10.4062 11.1602C9.93229 11.4336 9.55859 11.8073 9.28516 12.2812C9.01172 12.7552 8.875 13.2656 8.875 13.8125C8.875 14.3594 9.01172 14.8698 9.28516 15.3438C9.55859 15.8177 9.93229 16.1914 10.4062 16.4648C10.8802 16.7383 11.3906 16.875 11.9375 16.875ZM11.9375 9.875C12.6484 9.875 13.3047 10.0482 13.9062 10.3945C14.5078 10.7409 14.9909 11.224 15.3555 11.8438C15.7018 12.4635 15.875 13.1198 15.875 13.8125C15.875 14.5052 15.7018 15.1615 15.3555 15.7812C14.9909 16.401 14.5078 16.8841 13.9062 17.2305C13.3047 17.5768 12.6484 17.75 11.9375 17.75C11.2266 17.75 10.5703 17.5768 9.96875 17.2305C9.36719 16.8841 8.88411 16.401 8.51953 15.7812C8.17318 15.1615 8 14.5052 8 13.8125C8 13.1198 8.17318 12.4635 8.51953 11.8438C8.88411 11.224 9.36719 10.7409 9.96875 10.3945C10.5703 10.0482 11.2266 9.875 11.9375 9.875ZM13.168 12.6367C13.3685 12.4544 13.569 12.4544 13.7695 12.6367C13.9518 12.8372 13.9518 13.0378 13.7695 13.2383L11.8008 15.207C11.6003 15.3893 11.3997 15.3893 11.1992 15.207L10.1055 14.1133C9.92318 13.9128 9.92318 13.7122 10.1055 13.5117C10.306 13.3294 10.5065 13.3294 10.707 13.5117L11.5 14.2773L13.168 12.6367Z" fill="black" fill-opacity="0.72"/>
</g>
<defs>
<clipPath id="clip0_1731_2769">
<rect width="16" height="22" fill="white"/>
</clipPath>
</defs>
</svg>
