<svg width="30" height="36" viewBox="0 0 30 36" fill="none" xmlns="http://www.w3.org/2000/svg">
<g id="label-paired / xl / box-archive-circle-arrow-down-xl / regular" clip-path="url(#clip0_1731_5741)">
<path id="icon" d="M0 9C0 8.20312 0.65625 7.5 1.5 7.5C8.48438 7.5 15.4688 7.5 22.5 7.5C23.2969 7.5 24 8.20312 24 9C24 10.0312 24 11.0156 24 12C24 12.8438 23.2969 13.5 22.5 13.5C21.9844 13.5 21.4688 13.5 21 13.5C15 13.5 9 13.5 3 13.5C2.48438 13.5 1.96875 13.5 1.5 13.5C0.65625 13.5 0 12.8438 0 12C0 11.0156 0 10.0312 0 9ZM1.5 9C1.5 10.0312 1.5 11.0156 1.5 12C1.96875 12 2.48438 12 3 12C9 12 15 12 21 12C21.4688 12 21.9844 12 22.5 12C22.5 11.0156 22.5 10.0312 22.5 9H1.5ZM1.5 15H3C3 18.5156 3 22.0312 3 25.5C3 26.3438 3.65625 27 4.5 27C8.29688 27 12.0938 27 15.8906 27C16.1719 27.5625 16.5 28.0781 16.875 28.5C12.75 28.5 8.625 28.5 4.5 28.5C2.8125 28.5 1.5 27.1875 1.5 25.5C1.5 22.0312 1.5 18.5156 1.5 15ZM7.5 17.25C7.5 16.875 7.82812 16.5 8.25 16.5C10.7344 16.5 13.2188 16.5 15.75 16.5C16.125 16.5 16.5 16.875 16.5 17.25C16.5 17.6719 16.125 18 15.75 18C13.2188 18 10.7344 18 8.25 18C7.82812 18 7.5 17.6719 7.5 17.25ZM17.3906 19.875C18.6094 17.8125 20.8125 16.5 23.25 16.5C25.6406 16.5 27.8906 17.8125 29.0625 19.875C30.2812 21.9844 30.2812 24.5625 29.0625 26.625C27.8906 28.7344 25.6406 30 23.25 30C20.8125 30 18.6094 28.7344 17.3906 26.625C16.1719 24.5625 16.1719 21.9844 17.3906 19.875ZM18.7031 20.625C17.7656 22.2656 17.7656 24.2812 18.7031 25.875C19.6406 27.5156 21.375 28.5 23.25 28.5C25.125 28.5 26.8594 27.5156 27.7969 25.875C28.7344 24.2812 28.7344 22.2656 27.7969 20.625C26.8594 19.0312 25.125 18 23.25 18C21.375 18 19.6406 19.0312 18.7031 20.625ZM20.0625 23.1094C20.3438 22.8281 20.8594 22.8281 21.1406 23.1094C21.5625 23.5781 22.0312 24 22.5 24.4688C22.5 23.0625 22.5 21.6562 22.5 20.25C22.5 19.875 22.8281 19.5 23.25 19.5C23.625 19.5 24 19.875 24 20.25C24 21.6562 24 23.0625 24 24.4688C24.4219 24 24.8906 23.5781 25.3125 23.1094C25.5938 22.8281 26.1094 22.8281 26.3906 23.1094C26.6719 23.3906 26.6719 23.9062 26.3906 24.1875C25.5 25.0312 24.6562 25.9219 23.7656 26.8125C23.4844 27.0938 22.9688 27.0938 22.6875 26.8125C21.8438 25.9219 20.9531 25.0312 20.0625 24.1875C19.7812 23.9062 19.7812 23.3906 20.0625 23.1094ZM21 15H22.5C22.5 15.0469 22.5 15.0469 22.5 15.0469C21.9844 15.0938 21.4688 15.1875 21 15.3281C21 15.2344 21 15.1406 21 15Z" fill="black" fill-opacity="0.72"/>
</g>
<defs>
<clipPath id="clip0_1731_5741">
<rect width="30" height="36" fill="white"/>
</clipPath>
</defs>
</svg>
