<svg width="18" height="36" viewBox="0 0 18 36" fill="none" xmlns="http://www.w3.org/2000/svg">
<g id="label-paired / xl / mobile-screen-button-xl / bold" clip-path="url(#clip0_1731_6403)">
<path id="icon" d="M3 27C3.03125 27.4688 3.28125 27.7188 3.75 27.75H14.25C14.7188 27.7188 14.9688 27.4688 15 27V23.25H3V27ZM3 21H15V9C14.9688 8.53125 14.7188 8.28125 14.25 8.25H3.75C3.28125 8.28125 3.03125 8.53125 3 9V21ZM0.75 9C0.78125 8.15625 1.07812 7.45312 1.64062 6.89062C2.20312 6.32812 2.90625 6.03125 3.75 6H14.25C15.0938 6.03125 15.7969 6.32812 16.3594 6.89062C16.9219 7.45312 17.2188 8.15625 17.25 9V27C17.2188 27.8438 16.9219 28.5469 16.3594 29.1094C15.7969 29.6719 15.0938 29.9688 14.25 30H3.75C2.90625 29.9688 2.20312 29.6719 1.64062 29.1094C1.07812 28.5469 0.78125 27.8438 0.75 27V9ZM7.5 24.75H10.5C10.9688 24.7812 11.2188 25.0312 11.25 25.5C11.2188 25.9688 10.9688 26.2188 10.5 26.25H7.5C7.03125 26.2188 6.78125 25.9688 6.75 25.5C6.78125 25.0312 7.03125 24.7812 7.5 24.75Z" fill="black" fill-opacity="0.72"/>
</g>
<defs>
<clipPath id="clip0_1731_6403">
<rect width="18" height="36" fill="white"/>
</clipPath>
</defs>
</svg>
