<svg width="15" height="18" viewBox="0 0 15 18" fill="none" xmlns="http://www.w3.org/2000/svg">
<g id="label-paired / caption / location-crosshairs-slash-caption / bold" clip-path="url(#clip0_1731_1422)">
<path id="icon" d="M0.914062 3.61719L4.33594 6.3125C5.03906 5.60938 5.90625 5.1875 6.9375 5.04688V4.0625C6.96875 3.71875 7.15625 3.53125 7.5 3.5C7.84375 3.53125 8.03125 3.71875 8.0625 4.0625V5.04688C9.09375 5.1875 9.96875 5.60938 10.6875 6.3125C11.3906 7.03125 11.8203 7.90625 11.9766 8.9375H12.9375C13.2812 8.96875 13.4688 9.15625 13.5 9.5C13.4688 9.84375 13.2812 10.0312 12.9375 10.0625H11.9766C11.8828 10.7031 11.6797 11.2891 11.3672 11.8203L14.7891 14.4922C15.0391 14.7266 15.0703 14.9922 14.8828 15.2891C14.6484 15.5391 14.3828 15.5703 14.0859 15.3828L0.210938 4.50781C-0.0390625 4.27344 -0.0703125 4.00781 0.117188 3.71094C0.351562 3.46094 0.617188 3.42969 0.914062 3.61719ZM5.22656 7.01562L6.14062 7.71875C6.51562 7.42188 6.96875 7.26562 7.5 7.25C8.14062 7.26562 8.67188 7.48438 9.09375 7.90625C9.51562 8.32812 9.73438 8.85938 9.75 9.5C9.75 9.82812 9.6875 10.1328 9.5625 10.4141L10.4766 11.1172C10.7422 10.6328 10.875 10.0938 10.875 9.5C10.8438 8.54688 10.5156 7.75 9.89062 7.10938C9.25 6.48438 8.45312 6.15625 7.5 6.125C6.60938 6.14062 5.85156 6.4375 5.22656 7.01562ZM8.625 9.66406H8.60156C8.61719 9.60156 8.625 9.54688 8.625 9.5C8.60938 9.1875 8.5 8.92188 8.29688 8.70312C8.07812 8.5 7.8125 8.39062 7.5 8.375C7.34375 8.375 7.20312 8.39844 7.07812 8.44531L8.625 9.66406ZM9.72656 13.4141C9.22656 13.6953 8.67188 13.8828 8.0625 13.9766V14.9375C8.03125 15.2812 7.84375 15.4688 7.5 15.5C7.15625 15.4688 6.96875 15.2812 6.9375 14.9375V13.9766C5.90625 13.8203 5.03125 13.3906 4.3125 12.6875C3.60938 11.9844 3.1875 11.1094 3.04688 10.0625H2.0625C1.71875 10.0312 1.53125 9.84375 1.5 9.5C1.53125 9.15625 1.71875 8.96875 2.0625 8.9375H3.04688C3.0625 8.70312 3.10938 8.47656 3.1875 8.25781L4.14844 9.03125C4.13281 9.1875 4.125 9.34375 4.125 9.5C4.15625 10.4531 4.48438 11.25 5.10938 11.8906C5.75 12.5312 6.54688 12.8594 7.5 12.875C7.9375 12.875 8.35156 12.7969 8.74219 12.6406L9.72656 13.4141Z" fill="black" fill-opacity="0.72"/>
</g>
<defs>
<clipPath id="clip0_1731_1422">
<rect width="15" height="18" fill="white"/>
</clipPath>
</defs>
</svg>
