<svg width="14" height="24" viewBox="0 0 14 24" fill="none" xmlns="http://www.w3.org/2000/svg">
<g id="label-paired / md / copy-md / bold" clip-path="url(#clip0_1731_3954)">
<path id="icon" d="M12 14.5C12.3125 14.4792 12.4792 14.3125 12.5 14V7.625L10.375 5.5H6C5.6875 5.52083 5.52083 5.6875 5.5 6V14C5.52083 14.3125 5.6875 14.4792 6 14.5H12ZM6 16C5.4375 15.9792 4.96875 15.7812 4.59375 15.4062C4.21875 15.0312 4.02083 14.5625 4 14V6C4.02083 5.4375 4.21875 4.96875 4.59375 4.59375C4.96875 4.21875 5.4375 4.02083 6 4H10.375C10.7917 4 11.1458 4.14583 11.4375 4.4375L13.5625 6.5625C13.8542 6.85417 14 7.20833 14 7.625V14C13.9792 14.5625 13.7812 15.0312 13.4062 15.4062C13.0312 15.7812 12.5625 15.9792 12 16H6ZM2 8H3V9.5H2C1.6875 9.52083 1.52083 9.6875 1.5 10V18C1.52083 18.3125 1.6875 18.4792 2 18.5H8C8.3125 18.4792 8.47917 18.3125 8.5 18V17H10V18C9.97917 18.5625 9.78125 19.0312 9.40625 19.4062C9.03125 19.7812 8.5625 19.9792 8 20H2C1.4375 19.9792 0.96875 19.7812 0.59375 19.4062C0.21875 19.0312 0.0208333 18.5625 0 18V10C0.0208333 9.4375 0.21875 8.96875 0.59375 8.59375C0.96875 8.21875 1.4375 8.02083 2 8Z" fill="black" fill-opacity="0.72"/>
</g>
<defs>
<clipPath id="clip0_1731_3954">
<rect width="14" height="24" fill="white"/>
</clipPath>
</defs>
</svg>
