<svg width="9" height="18" viewBox="0 0 9 18" fill="none" xmlns="http://www.w3.org/2000/svg">
<g id="label-paired / caption / mobile-notch-caption / bold" clip-path="url(#clip0_1731_1366)">
<path id="icon" d="M6 4.625V5C5.98438 5.23438 5.85938 5.35938 5.625 5.375H3.375C3.14062 5.35938 3.01562 5.23438 3 5V4.625H2.25C2.03125 4.625 1.85156 4.69531 1.71094 4.83594C1.57031 4.97656 1.5 5.15625 1.5 5.375V13.625C1.5 13.8438 1.57031 14.0234 1.71094 14.1641C1.85156 14.3047 2.03125 14.375 2.25 14.375H6.75C6.96875 14.375 7.14844 14.3047 7.28906 14.1641C7.42969 14.0234 7.5 13.8438 7.5 13.625V5.375C7.5 5.15625 7.42969 4.97656 7.28906 4.83594C7.14844 4.69531 6.96875 4.625 6.75 4.625H6ZM0.375 5.375C0.390625 4.84375 0.570312 4.39844 0.914062 4.03906C1.27344 3.69531 1.71875 3.51563 2.25 3.5H6.75C7.28125 3.51563 7.72656 3.69531 8.08594 4.03906C8.42969 4.39844 8.60938 4.84375 8.625 5.375V13.625C8.60938 14.1562 8.42969 14.6016 8.08594 14.9609C7.72656 15.3047 7.28125 15.4844 6.75 15.5H2.25C1.71875 15.4844 1.27344 15.3047 0.914062 14.9609C0.570312 14.6016 0.390625 14.1562 0.375 13.625V5.375Z" fill="black" fill-opacity="0.72"/>
</g>
<defs>
<clipPath id="clip0_1731_1366">
<rect width="9" height="18" fill="white"/>
</clipPath>
</defs>
</svg>
