<svg width="10" height="24" viewBox="0 0 10 24" fill="none" xmlns="http://www.w3.org/2000/svg">
<g id="label-paired / md / euro-sign-md / regular" clip-path="url(#clip0_1731_4218)">
<path id="icon" d="M1.0625 11H0.5C0.1875 10.9792 0.0208333 10.8125 0 10.5C0.0208333 10.1875 0.1875 10.0208 0.5 10H1.28125C1.73958 8.52083 2.57292 7.32292 3.78125 6.40625C4.98958 5.48958 6.39583 5.02083 8 5H9.53125C9.84375 5.02083 10.0104 5.1875 10.0312 5.5C10.0104 5.8125 9.84375 5.97917 9.53125 6H8C6.66667 6.02083 5.5 6.39583 4.5 7.125C3.5 7.85417 2.78125 8.8125 2.34375 10H8.5C8.8125 10.0208 8.97917 10.1875 9 10.5C8.97917 10.8125 8.8125 10.9792 8.5 11H2.09375C2.03125 11.3333 2 11.6667 2 12C2 12.3333 2.03125 12.6667 2.09375 13H8.5C8.8125 13.0208 8.97917 13.1875 9 13.5C8.97917 13.8125 8.8125 13.9792 8.5 14H2.34375C2.78125 15.1875 3.5 16.1458 4.5 16.875C5.5 17.6042 6.66667 17.9792 8 18H9.53125C9.84375 18.0208 10.0104 18.1875 10.0312 18.5C10.0104 18.8125 9.84375 18.9792 9.53125 19H8C6.39583 18.9792 4.98958 18.5104 3.78125 17.5938C2.57292 16.6771 1.73958 15.4792 1.28125 14H0.5C0.1875 13.9792 0.0208333 13.8125 0 13.5C0.0208333 13.1875 0.1875 13.0208 0.5 13H1.0625C1.02083 12.6667 1 12.3333 1 12C1 11.6667 1.02083 11.3333 1.0625 11Z" fill="black" fill-opacity="0.72"/>
</g>
<defs>
<clipPath id="clip0_1731_4218">
<rect width="10" height="24" fill="white"/>
</clipPath>
</defs>
</svg>
