<svg width="30" height="36" viewBox="0 0 30 36" fill="none" xmlns="http://www.w3.org/2000/svg">
<g id="label-paired / xl / deal-protection-xl / regular" clip-path="url(#clip0_1731_5791)">
<path id="icon" d="M4.3125 11.7188H8.76562C9.5625 11.7188 10.2656 11.8594 10.9219 12.1406C11.5781 12.375 12.1406 12.7969 12.6094 13.3125C13.0781 13.8281 13.4531 14.4844 13.6875 15.2812C13.9219 16.0781 14.0625 16.9688 14.0625 18C14.0625 19.0781 13.9219 19.9688 13.6875 20.7656C13.4531 21.5625 13.0781 22.2188 12.6094 22.7344C12.1406 23.25 11.5781 23.625 10.9219 23.9062C10.2656 24.1875 9.5625 24.3281 8.76562 24.3281H4.3125V11.7188ZM8.76562 22.5C9.70312 22.5 10.4531 22.2188 11.0156 21.6094C11.5781 21.0469 11.9062 20.1562 11.9062 19.0312V17.0156C11.9062 15.8906 11.5781 15 11.0156 14.4375C10.4531 13.8281 9.70312 13.5469 8.76562 13.5469H6.32812V22.5H8.76562ZM16.5938 24.2812V11.7188H21.9844C23.1562 11.7188 24.0469 12.0938 24.7031 12.75C25.3125 13.4531 25.6406 14.3906 25.6406 15.5156C25.6406 16.6875 25.3125 17.5781 24.7031 18.2812C24.0469 18.9844 23.1562 19.3125 21.9844 19.3125H18.6094V24.2812H16.5938ZM18.6094 17.5312H21.8906C22.4062 17.5312 22.7812 17.3906 23.0625 17.1094C23.3438 16.8281 23.4844 16.4531 23.4844 15.9375V15.0938C23.4844 14.5781 23.3438 14.2031 23.0625 13.9219C22.7812 13.6406 22.4062 13.5 21.8906 13.5H18.6094V17.5312Z" fill="black" fill-opacity="0.72"/>
</g>
<defs>
<clipPath id="clip0_1731_5791">
<rect width="30" height="36" fill="white"/>
</clipPath>
</defs>
</svg>
