<svg width="12" height="18" viewBox="0 0 12 18" fill="none" xmlns="http://www.w3.org/2000/svg">
<g id="label-paired / caption / calendar-range-caption / regular" clip-path="url(#clip0_1731_599)">
<path id="icon" d="M3.375 3.5C3.60938 3.51563 3.73438 3.64062 3.75 3.875V5H8.25V3.875C8.26562 3.64062 8.39062 3.51563 8.625 3.5C8.85938 3.51563 8.98438 3.64062 9 3.875V5H9.75C10.1719 5.01562 10.5234 5.16406 10.8047 5.44531C11.0859 5.72656 11.2344 6.07812 11.25 6.5V7.25V8V14C11.2344 14.4219 11.0859 14.7734 10.8047 15.0547C10.5234 15.3359 10.1719 15.4844 9.75 15.5H2.25C1.82812 15.4844 1.47656 15.3359 1.19531 15.0547C0.914062 14.7734 0.765625 14.4219 0.75 14V8V7.25V6.5C0.765625 6.07812 0.914062 5.72656 1.19531 5.44531C1.47656 5.16406 1.82812 5.01562 2.25 5H3V3.875C3.01562 3.64062 3.14062 3.51563 3.375 3.5ZM10.5 8H1.5V14C1.5 14.2188 1.57031 14.3984 1.71094 14.5391C1.85156 14.6797 2.03125 14.75 2.25 14.75H9.75C9.96875 14.75 10.1484 14.6797 10.2891 14.5391C10.4297 14.3984 10.5 14.2188 10.5 14V8ZM9.75 5.75H2.25C2.03125 5.75 1.85156 5.82031 1.71094 5.96094C1.57031 6.10156 1.5 6.28125 1.5 6.5V7.25H10.5V6.5C10.5 6.28125 10.4297 6.10156 10.2891 5.96094C10.1484 5.82031 9.96875 5.75 9.75 5.75ZM9.75 9.875C9.73438 10.1094 9.60938 10.2344 9.375 10.25H5.625C5.39062 10.2344 5.26562 10.1094 5.25 9.875C5.26562 9.64062 5.39062 9.51562 5.625 9.5H9.375C9.60938 9.51562 9.73438 9.64062 9.75 9.875ZM6.375 13.25H2.625C2.39062 13.2344 2.26562 13.1094 2.25 12.875C2.26562 12.6406 2.39062 12.5156 2.625 12.5H6.375C6.60938 12.5156 6.73438 12.6406 6.75 12.875C6.73438 13.1094 6.60938 13.2344 6.375 13.25ZM3 9.875C3.01562 10.1094 3.14062 10.2344 3.375 10.25C3.60938 10.2344 3.73438 10.1094 3.75 9.875C3.73438 9.64062 3.60938 9.51562 3.375 9.5C3.14062 9.51562 3.01562 9.64062 3 9.875ZM3.375 11C2.95312 10.9844 2.625 10.7969 2.39062 10.4375C2.20312 10.0625 2.20312 9.6875 2.39062 9.3125C2.625 8.95312 2.95312 8.76562 3.375 8.75C3.79688 8.76562 4.125 8.95312 4.35938 9.3125C4.54688 9.6875 4.54688 10.0625 4.35938 10.4375C4.125 10.7969 3.79688 10.9844 3.375 11ZM8.625 13.25C8.85938 13.2344 8.98438 13.1094 9 12.875C8.98438 12.6406 8.85938 12.5156 8.625 12.5C8.39062 12.5156 8.26562 12.6406 8.25 12.875C8.26562 13.1094 8.39062 13.2344 8.625 13.25ZM9.75 12.875C9.73438 13.2969 9.54688 13.625 9.1875 13.8594C8.8125 14.0469 8.4375 14.0469 8.0625 13.8594C7.70312 13.625 7.51562 13.2969 7.5 12.875C7.51562 12.4531 7.70312 12.125 8.0625 11.8906C8.4375 11.7031 8.8125 11.7031 9.1875 11.8906C9.54688 12.125 9.73438 12.4531 9.75 12.875Z" fill="black" fill-opacity="0.72"/>
</g>
<defs>
<clipPath id="clip0_1731_599">
<rect width="12" height="18" fill="white"/>
</clipPath>
</defs>
</svg>
