<svg width="20" height="24" viewBox="0 0 20 24" fill="none" xmlns="http://www.w3.org/2000/svg">
<g id="label-paired / md / chart-ohlc-md / regular" clip-path="url(#clip0_1731_3793)">
<path id="icon" d="M10 4C10.25 4 10.5 4.25 10.5 4.5V6H12C12.25 6 12.5 6.25 12.5 6.5C12.5 6.78125 12.25 7 12 7H10.5V17.5C10.5 17.7812 10.25 18 10 18C9.71875 18 9.5 17.7812 9.5 17.5V16H8C7.71875 16 7.5 15.7812 7.5 15.5C7.5 15.25 7.71875 15 8 15H9.5V4.5C9.5 4.25 9.71875 4 10 4ZM16.5 6C16.75 6 17 6.25 17 6.5V13H18.5C18.75 13 19 13.25 19 13.5C19 13.7812 18.75 14 18.5 14H17V15.5C17 15.7812 16.75 16 16.5 16C16.2188 16 16 15.7812 16 15.5V9H14.5C14.2188 9 14 8.78125 14 8.5C14 8.25 14.2188 8 14.5 8H16V6.5C16 6.25 16.2188 6 16.5 6ZM3.5 10C3.75 10 4 10.25 4 10.5V17H5.5C5.75 17 6 17.25 6 17.5C6 17.7812 5.75 18 5.5 18H4V19.5C4 19.7812 3.75 20 3.5 20C3.21875 20 3 19.7812 3 19.5V13H1.5C1.21875 13 1 12.7812 1 12.5C1 12.25 1.21875 12 1.5 12H3V10.5C3 10.25 3.21875 10 3.5 10Z" fill="black" fill-opacity="0.72"/>
</g>
<defs>
<clipPath id="clip0_1731_3793">
<rect width="20" height="24" fill="white"/>
</clipPath>
</defs>
</svg>
