<svg width="20" height="30" viewBox="0 0 20 30" fill="none" xmlns="http://www.w3.org/2000/svg">
<g id="label-paired / lg / chart-mixed-lg / regular" clip-path="url(#clip0_1731_4715)">
<path id="icon" d="M19.8438 6.94531C20.0781 7.25781 20.0651 7.55729 19.8047 7.84375L12.9297 14.0938C12.6432 14.3021 12.3568 14.2891 12.0703 14.0547L7.42188 9.44531L0.976562 14.1328C0.664062 14.3151 0.377604 14.263 0.117188 13.9766C-0.0651042 13.6641 -0.0130208 13.3776 0.273438 13.1172L7.14844 8.11719C7.4349 7.9349 7.69531 7.96094 7.92969 8.19531L12.5391 12.7656L18.9453 6.90625C19.2578 6.67188 19.5573 6.6849 19.8438 6.94531ZM3.125 22.375V19.875C3.09896 19.4844 2.89062 19.276 2.5 19.25C2.10938 19.276 1.90104 19.4844 1.875 19.875V22.375C1.90104 22.7656 2.10938 22.974 2.5 23C2.89062 22.974 3.09896 22.7656 3.125 22.375ZM2.5 18C3.02083 18.026 3.46354 18.2083 3.82812 18.5469C4.16667 18.9115 4.34896 19.3542 4.375 19.875V22.375C4.34896 22.8958 4.16667 23.3385 3.82812 23.7031C3.46354 24.0417 3.02083 24.224 2.5 24.25C1.97917 24.224 1.53646 24.0417 1.17188 23.7031C0.833333 23.3385 0.651042 22.8958 0.625 22.375V19.875C0.651042 19.3542 0.833333 18.9115 1.17188 18.5469C1.53646 18.2083 1.97917 18.026 2.5 18ZM8.125 16.125C8.09896 15.7344 7.89062 15.526 7.5 15.5C7.10938 15.526 6.90104 15.7344 6.875 16.125V22.375C6.90104 22.7656 7.10938 22.974 7.5 23C7.89062 22.974 8.09896 22.7656 8.125 22.375V16.125ZM5.625 16.125C5.65104 15.6042 5.83333 15.1615 6.17188 14.7969C6.53646 14.4583 6.97917 14.276 7.5 14.25C8.02083 14.276 8.46354 14.4583 8.82812 14.7969C9.16667 15.1615 9.34896 15.6042 9.375 16.125V22.375C9.34896 22.8958 9.16667 23.3385 8.82812 23.7031C8.46354 24.0417 8.02083 24.224 7.5 24.25C6.97917 24.224 6.53646 24.0417 6.17188 23.7031C5.83333 23.3385 5.65104 22.8958 5.625 22.375V16.125ZM13.125 22.375V18.625C13.099 18.2344 12.8906 18.026 12.5 18C12.1094 18.026 11.901 18.2344 11.875 18.625V22.375C11.901 22.7656 12.1094 22.974 12.5 23C12.8906 22.974 13.099 22.7656 13.125 22.375ZM12.5 16.75C13.0208 16.776 13.4635 16.9583 13.8281 17.2969C14.1667 17.6615 14.349 18.1042 14.375 18.625V22.375C14.349 22.8958 14.1667 23.3385 13.8281 23.7031C13.4635 24.0417 13.0208 24.224 12.5 24.25C11.9792 24.224 11.5365 24.0417 11.1719 23.7031C10.8333 23.3385 10.651 22.8958 10.625 22.375V18.625C10.651 18.1042 10.8333 17.6615 11.1719 17.2969C11.5365 16.9583 11.9792 16.776 12.5 16.75ZM18.125 16.125C18.099 15.7344 17.8906 15.526 17.5 15.5C17.1094 15.526 16.901 15.7344 16.875 16.125V22.375C16.901 22.7656 17.1094 22.974 17.5 23C17.8906 22.974 18.099 22.7656 18.125 22.375V16.125ZM15.625 16.125C15.651 15.6042 15.8333 15.1615 16.1719 14.7969C16.5365 14.4583 16.9792 14.276 17.5 14.25C18.0208 14.276 18.4635 14.4583 18.8281 14.7969C19.1667 15.1615 19.349 15.6042 19.375 16.125V22.375C19.349 22.8958 19.1667 23.3385 18.8281 23.7031C18.4635 24.0417 18.0208 24.224 17.5 24.25C16.9792 24.224 16.5365 24.0417 16.1719 23.7031C15.8333 23.3385 15.651 22.8958 15.625 22.375V16.125Z" fill="black" fill-opacity="0.72"/>
</g>
<defs>
<clipPath id="clip0_1731_4715">
<rect width="20" height="30" fill="white"/>
</clipPath>
</defs>
</svg>
