<svg width="15" height="18" viewBox="0 0 15 18" fill="none" xmlns="http://www.w3.org/2000/svg">
<g id="label-paired / caption / huawei-caption" clip-path="url(#clip0_1731_13784)">
<path id="icon" d="M2.27344 5.84375C2.27344 5.84375 4.6875 8.75 6.46875 12.6172V12.6406L6.44531 12.6875C6.42188 12.7109 6.39844 12.6875 6.39844 12.6875C5.74219 12.3594 2.97656 10.9531 1.82812 9.85156C1.82812 9.85156 1.125 9.28906 1.05469 8.35156V8.11719C1.125 6.94531 2.27344 5.84375 2.27344 5.84375ZM6.02344 13.625V13.6484V13.625C6.02344 13.625 6.02344 13.6484 6 13.6953C5.55469 14 4.17188 14.9609 3.5625 15.125C2.69531 15.3359 1.85156 14.6328 1.33594 13.7422L5.95312 13.5781C5.95312 13.5781 6 13.5781 6.02344 13.625ZM6.07031 13.1562C6.07031 13.1562 6.09375 13.1562 6.09375 13.1797V13.2266C6.09375 13.2266 6.07031 13.25 6.04688 13.25C5.32031 13.25 2.64844 13.25 2.57812 13.25C2.57812 13.25 2.13281 13.25 1.71094 13.0625C1.71094 13.0625 0.75 12.7344 0.234375 11.6797C0.234375 11.6797 0 11.2109 0 10.5312V10.5078C0 10.25 0.0234375 9.96875 0.117188 9.6875C0.117188 9.6875 4.05469 11.7734 6.07031 13.1562ZM5.64844 4.01562V3.99219C5.64844 3.99219 6.1875 3.875 6.39844 3.85156C6.39844 3.85156 7.75781 5.63281 7.10156 12.2422C7.10156 12.2656 7.07812 12.2656 7.07812 12.2891L7.05469 12.3125C7.05469 12.3125 7.03125 12.3125 6.98438 12.2891C6.5625 11.6562 4.57031 8.70312 4.14844 6.875C4.14844 6.875 4.05469 6.59375 4.05469 6.21875V5.98438C4.07812 5.51562 4.24219 5.07031 4.52344 4.71875C4.80469 4.36719 5.20312 4.10938 5.64844 4.01562ZM10.8281 5.42188C11.0625 6.00781 10.8281 6.875 10.8281 6.875C10.4297 8.67969 8.4375 11.6328 7.99219 12.2891C7.99219 12.2891 7.96875 12.3125 7.92188 12.3125C7.92188 12.3125 7.89844 12.2891 7.875 12.2422C7.21875 5.60938 8.57812 3.85156 8.57812 3.85156C8.95312 3.92188 9.30469 3.99219 9.30469 3.99219C10.5234 4.29688 10.8281 5.42188 10.8281 5.42188ZM9.02344 13.6016V13.5781H9L13.6406 13.7422C12.9375 14.9375 12.1875 15.1484 11.7656 15.1484H11.6719C11.5078 15.1484 11.3906 15.125 11.3906 15.125C10.7578 14.9375 9.42188 14 8.97656 13.6953C8.95312 13.6719 8.95312 13.625 8.95312 13.625C8.97656 13.6016 9.02344 13.6016 9.02344 13.6016ZM13.8984 8.32812C13.875 9.26562 13.1484 9.85156 13.1484 9.85156C12.0234 10.9531 9.25781 12.3594 8.60156 12.6875H8.55469H8.53125C8.50781 12.6406 8.53125 12.5938 8.53125 12.5938C10.2891 8.77344 12.7031 5.84375 12.7031 5.84375C12.7031 5.84375 13.9922 7.03906 13.8984 8.32812ZM14.8594 9.66406V9.6875C15.2109 10.7422 14.7422 11.6328 14.7422 11.6328C14.25 12.7344 13.2656 13.0625 13.2656 13.0625C12.8203 13.2266 12.4688 13.2266 12.4688 13.2266C12.3984 13.25 9.65625 13.25 8.92969 13.25C8.90625 13.25 8.88281 13.2031 8.88281 13.2031C8.88281 13.1797 8.90625 13.1328 8.90625 13.1328C10.9219 11.7734 14.8594 9.66406 14.8594 9.66406Z" fill="black" fill-opacity="0.72"/>
</g>
<defs>
<clipPath id="clip0_1731_13784">
<rect width="15" height="18" fill="white"/>
</clipPath>
</defs>
</svg>
