<svg width="30" height="36" viewBox="0 0 30 36" fill="none" xmlns="http://www.w3.org/2000/svg">
<g id="label-paired / xl / person-chalkboard-xl / bold" clip-path="url(#clip0_1731_6357)">
<path id="icon" d="M9 10.5C8.15625 10.4688 7.5 10.0938 7.03125 9.375C6.65625 8.625 6.65625 7.875 7.03125 7.125C7.5 6.40625 8.15625 6.03125 9 6C9.84375 6.03125 10.5 6.40625 10.9688 7.125C11.3438 7.875 11.3438 8.625 10.9688 9.375C10.5 10.0938 9.84375 10.4688 9 10.5ZM8.34375 14.25C8.34375 14.25 8.32812 14.25 8.29688 14.25C8.29688 14.25 8.28125 14.25 8.25 14.25V20.25H9.75V14.25H8.34375ZM8.25 28.875C8.1875 29.5625 7.8125 29.9375 7.125 30C6.4375 29.9375 6.0625 29.5625 6 28.875V16.5L3.98438 20.0625C3.57812 20.625 3.0625 20.7656 2.4375 20.4844C1.875 20.0781 1.73438 19.5625 2.01562 18.9375L4.78125 14.1094C5.15625 13.4531 5.65625 12.9375 6.28125 12.5625C6.90625 12.1875 7.59375 12 8.34375 12H11.3906H15V8.25C15.0312 7.625 15.25 7.09375 15.6562 6.65625C16.0938 6.25 16.625 6.03125 17.25 6H27.75C28.375 6.03125 28.9062 6.25 29.3438 6.65625C29.75 7.09375 29.9688 7.625 30 8.25V18.75C29.9688 19.375 29.75 19.9062 29.3438 20.3438C28.9062 20.75 28.375 20.9688 27.75 21H17.25C16.625 20.9688 16.0938 20.75 15.6562 20.3438C15.25 19.9062 15.0312 19.375 15 18.75V16.5H17.25V18.75H27.75V8.25H17.25V12H18.375C19.0625 12.0625 19.4375 12.4375 19.5 13.125C19.4375 13.8125 19.0625 14.1875 18.375 14.25H12V28.875C11.9375 29.5625 11.5625 29.9375 10.875 30C10.1875 29.9375 9.8125 29.5625 9.75 28.875V22.5H8.25V28.875Z" fill="black" fill-opacity="0.72"/>
</g>
<defs>
<clipPath id="clip0_1731_6357">
<rect width="30" height="36" fill="white"/>
</clipPath>
</defs>
</svg>
