<svg width="16" height="22" viewBox="0 0 16 22" fill="none" xmlns="http://www.w3.org/2000/svg">
<g id="label-paired / sm / pen-line-sm / regular" clip-path="url(#clip0_1731_2734)">
<path id="icon" d="M11.8828 4.84375C11.5729 4.58854 11.263 4.58854 10.9531 4.84375L9.44922 6.32031L11.5547 8.42578L13.0312 6.92188C13.2865 6.61198 13.2865 6.30208 13.0312 5.99219L11.8828 4.84375ZM2.39453 13.375C2.19401 13.5938 2.04818 13.849 1.95703 14.1406L1.21875 16.6562L3.73438 15.918C4.02604 15.8268 4.28125 15.681 4.5 15.4805L10.9258 9.05469L8.82031 6.94922L2.39453 13.375ZM10.3242 4.21484C10.6341 3.92318 10.9987 3.77734 11.418 3.77734C11.819 3.77734 12.1745 3.92318 12.4844 4.21484L13.6602 5.39062C13.9518 5.70052 14.0977 6.05599 14.0977 6.45703C14.0977 6.8763 13.9518 7.24089 13.6602 7.55078L5.10156 16.1094C4.79167 16.4193 4.42708 16.638 4.00781 16.7656L0.699219 17.7227C0.516927 17.7773 0.371094 17.7409 0.261719 17.6133C0.134115 17.5039 0.0976562 17.3672 0.152344 17.2031L1.10938 13.8945C1.23698 13.457 1.46484 13.0833 1.79297 12.7734L10.3242 4.21484ZM6.6875 16.875H15.4375C15.7109 16.8932 15.8568 17.0391 15.875 17.3125C15.8568 17.5859 15.7109 17.7318 15.4375 17.75H6.6875C6.41406 17.7318 6.26823 17.5859 6.25 17.3125C6.26823 17.0391 6.41406 16.8932 6.6875 16.875Z" fill="black" fill-opacity="0.72"/>
</g>
<defs>
<clipPath id="clip0_1731_2734">
<rect width="16" height="22" fill="white"/>
</clipPath>
</defs>
</svg>
