<svg width="25" height="30" viewBox="0 0 25 30" fill="none" xmlns="http://www.w3.org/2000/svg">
<g id="label-paired / lg / computer-lg / bold" clip-path="url(#clip0_1731_4869)">
<path id="icon" d="M15 8.625H2.5C2.10938 8.65104 1.90104 8.85938 1.875 9.25V18C1.90104 18.3906 2.10938 18.599 2.5 18.625H6.52344H7.1875H10.3125H10.9766H15C15.3906 18.599 15.599 18.3906 15.625 18V9.25C15.599 8.85938 15.3906 8.65104 15 8.625ZM2.5 20.5C1.79688 20.474 1.21094 20.2266 0.742188 19.7578C0.273438 19.2891 0.0260417 18.7031 0 18V9.25C0.0260417 8.54688 0.273438 7.96094 0.742188 7.49219C1.21094 7.02344 1.79688 6.77604 2.5 6.75H15C15.7031 6.77604 16.2891 7.02344 16.7578 7.49219C17.2266 7.96094 17.474 8.54688 17.5 9.25V18C17.474 18.7031 17.2266 19.2891 16.7578 19.7578C16.2891 20.2266 15.7031 20.474 15 20.5H11.6016L12.2266 22.375H14.0625C14.6354 22.4271 14.9479 22.7396 15 23.3125C14.9479 23.8854 14.6354 24.1979 14.0625 24.25H12.8516H11.5625H5.9375H4.64844H3.4375C2.86458 24.1979 2.55208 23.8854 2.5 23.3125C2.55208 22.7396 2.86458 22.4271 3.4375 22.375H5.27344L5.89844 20.5H2.5ZM7.22656 22.375H10.2734L9.64844 20.5H7.85156L7.22656 22.375ZM20.625 8.625V9.875H23.125V8.625H20.625ZM20.625 11.75V13H23.125V11.75H20.625ZM23.125 14.875H20.625V22.375H23.125V14.875ZM18.75 8.625C18.776 8.10417 18.9583 7.66146 19.2969 7.29688C19.6615 6.95833 20.1042 6.77604 20.625 6.75H23.125C23.6458 6.77604 24.0885 6.95833 24.4531 7.29688C24.7917 7.66146 24.974 8.10417 25 8.625V22.375C24.974 22.8958 24.7917 23.3385 24.4531 23.7031C24.0885 24.0417 23.6458 24.224 23.125 24.25H20.625C20.1042 24.224 19.6615 24.0417 19.2969 23.7031C18.9583 23.3385 18.776 22.8958 18.75 22.375V8.625ZM21.875 19.5625C21.3021 19.5104 20.9896 19.1979 20.9375 18.625C20.9896 18.0521 21.3021 17.7396 21.875 17.6875C22.4479 17.7396 22.7604 18.0521 22.8125 18.625C22.7604 19.1979 22.4479 19.5104 21.875 19.5625Z" fill="black" fill-opacity="0.72"/>
</g>
<defs>
<clipPath id="clip0_1731_4869">
<rect width="25" height="30" fill="white"/>
</clipPath>
</defs>
</svg>
