<svg width="30" height="36" viewBox="0 0 30 36" fill="none" xmlns="http://www.w3.org/2000/svg">
<g id="label-paired / xl / apple-pay-xl" clip-path="url(#clip0_1731_14129)">
<path id="icon" d="M5.48438 13.4531V13.4062C5.85938 12.9688 6.03125 12.4531 6 11.8594C5.4375 11.8906 4.95312 12.1406 4.54688 12.6094C4.17188 13.0156 3.98438 13.5156 3.98438 14.1094C4.60938 14.1094 5.10938 13.8906 5.48438 13.4531ZM6 14.25C6.1875 14.25 6.45312 14.2969 6.79688 14.3906C7.17188 14.5156 7.51562 14.7969 7.82812 15.2344C7.79688 15.2344 7.78125 15.2344 7.78125 15.2344C7.65625 15.2969 7.46875 15.4844 7.21875 15.7969C6.9375 16.0781 6.78125 16.5156 6.75 17.1094C6.78125 17.7969 6.96875 18.2969 7.3125 18.6094C7.6875 18.9219 7.9375 19.0938 8.0625 19.125C8.0625 19.1562 8 19.3125 7.875 19.5938C7.78125 19.8438 7.625 20.1562 7.40625 20.5312C7.1875 20.8438 6.95312 21.125 6.70312 21.375C6.48438 21.5938 6.20312 21.7188 5.85938 21.75C5.54688 21.75 5.29688 21.6875 5.10938 21.5625C4.89062 21.4375 4.59375 21.3594 4.21875 21.3281C3.84375 21.3594 3.54688 21.4375 3.32812 21.5625C3.14062 21.6562 2.90625 21.7188 2.625 21.75C2.28125 21.75 1.98438 21.625 1.73438 21.375C1.48438 21.125 1.25 20.8281 1.03125 20.4844C0.59375 19.8281 0.28125 19.0312 0.09375 18.0938C-0.09375 17.1562 0.015625 16.2969 0.421875 15.5156C0.890625 14.7344 1.57812 14.3125 2.48438 14.25C2.82812 14.2812 3.15625 14.375 3.46875 14.5312C3.71875 14.625 3.92188 14.6875 4.07812 14.7188C4.23438 14.6875 4.4375 14.625 4.6875 14.5312C5.0625 14.3438 5.5 14.25 6 14.25ZM10.6875 12.5156H14.1094C15.0156 12.5469 15.75 12.8281 16.3125 13.3594C16.8438 13.9219 17.1094 14.6406 17.1094 15.5156C17.1094 16.4219 16.8281 17.1562 16.2656 17.7188C15.7344 18.25 15 18.5312 14.0625 18.5625H12.0938V21.6562H10.6875V12.5156ZM12.0938 13.7344V17.3438H13.7344C15.0156 17.3125 15.6719 16.7188 15.7031 15.5625C15.6719 14.375 15.0156 13.7656 13.7344 13.7344H12.0938ZM19.7344 21.75C19.0469 21.75 18.5 21.5625 18.0938 21.1875C17.6875 20.8438 17.4844 20.375 17.4844 19.7812C17.5156 18.5938 18.3594 17.9375 20.0156 17.8125L21.7969 17.7188V17.2031C21.7656 16.4531 21.3125 16.0781 20.4375 16.0781C19.6875 16.1094 19.2344 16.4219 19.0781 17.0156H17.8125C17.8438 16.3906 18.1094 15.8906 18.6094 15.5156C19.0781 15.1406 19.7031 14.9531 20.4844 14.9531C21.2969 14.9531 21.9375 15.1562 22.4062 15.5625C22.9062 15.9375 23.1562 16.4531 23.1562 17.1094V21.6562H21.8438V20.5781H21.7969C21.3594 21.3281 20.6719 21.7188 19.7344 21.75ZM20.1094 20.6719C20.6094 20.6719 21.0156 20.5312 21.3281 20.25C21.6406 19.9688 21.7969 19.625 21.7969 19.2188V18.7031L20.2031 18.7969C19.3281 18.8594 18.875 19.1719 18.8438 19.7344C18.9062 20.3281 19.3281 20.6406 20.1094 20.6719ZM24.8906 24.1406C24.7031 24.1406 24.5312 24.1406 24.375 24.1406V23.0156C24.5 23.0469 24.6406 23.0625 24.7969 23.0625C25.3906 23.0938 25.7812 22.7812 25.9688 22.125L26.1094 21.7031L23.7188 15.0469H25.1719L26.8594 20.4375H26.9062L28.5469 15.0469H30L27.5156 22.0312C27.2344 22.8125 26.9062 23.3594 26.5312 23.6719C26.125 24.0156 25.5781 24.1719 24.8906 24.1406Z" fill="black" fill-opacity="0.72"/>
</g>
<defs>
<clipPath id="clip0_1731_14129">
<rect width="30" height="36" fill="white"/>
</clipPath>
</defs>
</svg>
