<svg width="15" height="18" viewBox="0 0 15 18" fill="none" xmlns="http://www.w3.org/2000/svg">
<g id="label-paired / caption / language-caption / bold" clip-path="url(#clip0_1731_1335)">
<path id="icon" d="M1.5 5H6.375H7.125H7.5H13.5C13.9219 5.01562 14.2734 5.16406 14.5547 5.44531C14.8359 5.72656 14.9844 6.07812 15 6.5V12.5C14.9844 12.9219 14.8359 13.2734 14.5547 13.5547C14.2734 13.8359 13.9219 13.9844 13.5 14H7.5H7.125H6.375H1.5C1.07812 13.9844 0.726562 13.8359 0.445312 13.5547C0.164062 13.2734 0.015625 12.9219 0 12.5V6.5C0.015625 6.07812 0.164062 5.72656 0.445312 5.44531C0.726562 5.16406 1.07812 5.01562 1.5 5ZM13.5 6.125H7.5V12.875H13.5C13.7344 12.8594 13.8594 12.7344 13.875 12.5V6.5C13.8594 6.26562 13.7344 6.14062 13.5 6.125ZM4.17188 7.625C4.09375 7.45312 3.95312 7.35938 3.75 7.34375C3.54688 7.35938 3.40625 7.45312 3.32812 7.625L1.82812 11C1.73438 11.2656 1.8125 11.4688 2.0625 11.6094C2.32812 11.7031 2.53125 11.625 2.67188 11.375L2.88281 10.9062H4.61719L4.82812 11.375C4.96875 11.625 5.17188 11.7031 5.4375 11.6094C5.6875 11.4688 5.76562 11.2656 5.67188 11L4.17188 7.625ZM4.19531 9.96875H3.30469L3.75 8.96094L4.19531 9.96875ZM10.6875 7.34375C10.9688 7.375 11.125 7.53125 11.1562 7.8125V7.90625H12.1875H12.5625C12.8438 7.9375 13 8.09375 13.0312 8.375C13 8.65625 12.8438 8.8125 12.5625 8.84375H12.5156L12.4688 8.96094C12.2656 9.52344 11.9609 10.0312 11.5547 10.4844C11.5547 10.4844 11.5625 10.4922 11.5781 10.5078C11.5938 10.5078 11.6016 10.5156 11.6016 10.5312L12.0469 10.7891C12.2812 10.9609 12.3359 11.1719 12.2109 11.4219C12.0391 11.6562 11.8281 11.7109 11.5781 11.5859L11.1328 11.3281C11.0234 11.2656 10.9219 11.1953 10.8281 11.1172C10.5781 11.3047 10.3125 11.4609 10.0312 11.5859L9.9375 11.6094C9.67188 11.7031 9.46875 11.625 9.32812 11.375C9.23438 11.1094 9.3125 10.9062 9.5625 10.7656L9.65625 10.7188C9.79688 10.6562 9.9375 10.5781 10.0781 10.4844L9.79688 10.2031C9.60938 9.98438 9.60938 9.76562 9.79688 9.54688C10.0156 9.35938 10.2344 9.35938 10.4531 9.54688L10.8047 9.89844C11.1016 9.58594 11.3359 9.23438 11.5078 8.84375H10.6875H9C8.71875 8.8125 8.5625 8.65625 8.53125 8.375C8.5625 8.09375 8.71875 7.9375 9 7.90625H10.2188V7.8125C10.25 7.53125 10.4062 7.375 10.6875 7.34375Z" fill="black" fill-opacity="0.72"/>
</g>
<defs>
<clipPath id="clip0_1731_1335">
<rect width="15" height="18" fill="white"/>
</clipPath>
</defs>
</svg>
