<svg width="20" height="24" viewBox="0 0 20 24" fill="none" xmlns="http://www.w3.org/2000/svg">
<g id="label-paired / md / wifi-md / regular" clip-path="url(#clip0_1731_3864)">
<path id="icon" d="M0.84375 9.75C0.614583 9.95833 0.385417 9.95833 0.15625 9.75C-0.0520833 9.52083 -0.0520833 9.29167 0.15625 9.0625C1.42708 7.79167 2.90625 6.80208 4.59375 6.09375C6.26042 5.38542 8.0625 5.02083 10 5C11.9375 5.02083 13.7396 5.38542 15.4062 6.09375C17.0938 6.80208 18.5729 7.79167 19.8438 9.0625C20.0521 9.29167 20.0521 9.52083 19.8438 9.75C19.6146 9.95833 19.3854 9.95833 19.1562 9.75C17.9688 8.58333 16.5938 7.66667 15.0312 7C13.4688 6.35417 11.7917 6.02083 10 6C8.20833 6.02083 6.53125 6.35417 4.96875 7C3.40625 7.66667 2.03125 8.58333 0.84375 9.75ZM10 11C8.89583 11 7.86458 11.2083 6.90625 11.625C5.92708 12.0417 5.07292 12.6146 4.34375 13.3438C4.11458 13.5312 3.88542 13.5312 3.65625 13.3438C3.44792 13.0938 3.44792 12.8542 3.65625 12.625C4.46875 11.8125 5.41667 11.1771 6.5 10.7188C7.58333 10.2396 8.75 10 10 10C11.25 10 12.4167 10.2396 13.5 10.7188C14.5833 11.1771 15.5312 11.8125 16.3438 12.625C16.5521 12.8542 16.5521 13.0938 16.3438 13.3438C16.1146 13.5312 15.8854 13.5312 15.6562 13.3438C14.9271 12.6146 14.0729 12.0417 13.0938 11.625C12.1354 11.2083 11.1042 11 10 11ZM10 16C9.70833 16 9.46875 16.0938 9.28125 16.2812C9.09375 16.4688 9 16.7083 9 17C9 17.2917 9.09375 17.5312 9.28125 17.7188C9.46875 17.9062 9.70833 18 10 18C10.2917 18 10.5312 17.9062 10.7188 17.7188C10.9062 17.5312 11 17.2917 11 17C11 16.7083 10.9062 16.4688 10.7188 16.2812C10.5312 16.0938 10.2917 16 10 16ZM10 19C9.25 18.9792 8.67708 18.6458 8.28125 18C7.90625 17.3333 7.90625 16.6667 8.28125 16C8.67708 15.3542 9.25 15.0208 10 15C10.75 15.0208 11.3229 15.3542 11.7188 16C12.0938 16.6667 12.0938 17.3333 11.7188 18C11.3229 18.6458 10.75 18.9792 10 19Z" fill="black" fill-opacity="0.72"/>
</g>
<defs>
<clipPath id="clip0_1731_3864">
<rect width="20" height="24" fill="white"/>
</clipPath>
</defs>
</svg>
