<svg width="30" height="36" viewBox="0 0 30 36" fill="none" xmlns="http://www.w3.org/2000/svg">
<g id="label-paired / xl / bell-slash-xl / regular" clip-path="url(#clip0_1731_6320)">
<path id="icon" d="M17.7656 24L19.6406 25.5H6.5625C5.96875 25.5 5.48438 25.2969 5.10938 24.8906C4.70312 24.5156 4.5 24.0312 4.5 23.4375C4.5 22.875 4.70312 22.375 5.10938 21.9375L5.25 21.8438C6.71875 20.3125 7.46875 18.4844 7.5 16.3594V15.8906L9 17.0625C8.78125 19.3125 7.875 21.25 6.28125 22.875L6.1875 23.0156C6.0625 23.1406 6 23.2812 6 23.4375C6.03125 23.7812 6.21875 23.9688 6.5625 24H17.7656ZM14.25 7.54688V6.75C14.2812 6.28125 14.5312 6.03125 15 6C15.4688 6.03125 15.7188 6.28125 15.75 6.75V7.54688C17.6875 7.76563 19.2812 8.5625 20.5312 9.9375C21.8125 11.3125 22.4688 13 22.5 15V16.3594C22.5312 18.4844 23.2812 20.3125 24.75 21.8438L24.8906 21.9375C24.9219 22 24.9531 22.0469 24.9844 22.0781L21.4688 19.3125C21.1562 18.3438 21 17.3594 21 16.3594V15C20.9688 13.3125 20.3906 11.8906 19.2656 10.7344C18.1094 9.60938 16.6875 9.03125 15 9C13.2812 9.03125 11.8594 9.625 10.7344 10.7812L9.51562 9.84375C10.7656 8.53125 12.3438 7.76563 14.25 7.54688ZM13.5938 27.5156C13.8438 28.1406 14.3125 28.4688 15 28.5C15.6875 28.4688 16.1562 28.1406 16.4062 27.5156C16.5938 27.0781 16.9219 26.9219 17.3906 27.0469C17.7969 27.2344 17.9375 27.5469 17.8125 27.9844C17.5938 28.5781 17.2344 29.0625 16.7344 29.4375C16.2344 29.8125 15.6562 30 15 30C14.3438 30 13.7656 29.8125 13.2656 29.4375C12.7656 29.0625 12.4062 28.5781 12.1875 27.9844C12.0625 27.5469 12.2031 27.2344 12.6094 27.0469C13.0781 26.9219 13.4062 27.0781 13.5938 27.5156ZM1.21875 6.14062L29.7188 28.6875C30.0625 29 30.1094 29.3438 29.8594 29.7188C29.5156 30.0625 29.1562 30.1094 28.7812 29.8594L0.28125 7.35938C-0.0625 7.01563 -0.109375 6.65625 0.140625 6.28125C0.484375 5.96875 0.84375 5.92187 1.21875 6.14062Z" fill="black" fill-opacity="0.72"/>
</g>
<defs>
<clipPath id="clip0_1731_6320">
<rect width="30" height="36" fill="white"/>
</clipPath>
</defs>
</svg>
