<svg width="20" height="30" viewBox="0 0 20 30" fill="none" xmlns="http://www.w3.org/2000/svg">
<g id="label-paired / lg / circle-calendar-lg / regular" clip-path="url(#clip0_1731_5334)">
<path id="icon" d="M18.75 15.5C18.724 13.9115 18.3333 12.4531 17.5781 11.125C16.7969 9.79688 15.7292 8.72917 14.375 7.92188C12.9948 7.14062 11.5365 6.75 10 6.75C8.46354 6.75 7.00521 7.14062 5.625 7.92188C4.27083 8.72917 3.20312 9.79688 2.42188 11.125C1.66667 12.4531 1.27604 13.9115 1.25 15.5C1.27604 17.0885 1.66667 18.5469 2.42188 19.875C3.20312 21.2031 4.27083 22.2708 5.625 23.0781C7.00521 23.8594 8.46354 24.25 10 24.25C11.5365 24.25 12.9948 23.8594 14.375 23.0781C15.7292 22.2708 16.7969 21.2031 17.5781 19.875C18.3333 18.5469 18.724 17.0885 18.75 15.5ZM0 15.5C0.0260417 13.6771 0.46875 12.0104 1.32812 10.5C2.21354 8.98958 3.4375 7.76562 5 6.82812C6.58854 5.94271 8.25521 5.5 10 5.5C11.7448 5.5 13.4115 5.94271 15 6.82812C16.5625 7.76562 17.7865 8.98958 18.6719 10.5C19.5312 12.0104 19.974 13.6771 20 15.5C19.974 17.3229 19.5312 18.9896 18.6719 20.5C17.7865 22.0104 16.5625 23.2344 15 24.1719C13.4115 25.0573 11.7448 25.5 10 25.5C8.25521 25.5 6.58854 25.0573 5 24.1719C3.4375 23.2344 2.21354 22.0104 1.32812 20.5C0.46875 18.9896 0.0260417 17.3229 0 15.5ZM8.125 9.25C8.51562 9.27604 8.72396 9.48438 8.75 9.875V10.5H11.25V9.875C11.276 9.48438 11.4844 9.27604 11.875 9.25C12.2656 9.27604 12.474 9.48438 12.5 9.875V10.5H13.125C13.6458 10.526 14.0885 10.7083 14.4531 11.0469C14.7917 11.4115 14.974 11.8542 15 12.375V13V14.25V18.625C14.974 19.1458 14.7917 19.5885 14.4531 19.9531C14.0885 20.2917 13.6458 20.474 13.125 20.5H6.875C6.35417 20.474 5.91146 20.2917 5.54688 19.9531C5.20833 19.5885 5.02604 19.1458 5 18.625V14.25V13V12.375C5.02604 11.8542 5.20833 11.4115 5.54688 11.0469C5.91146 10.7083 6.35417 10.526 6.875 10.5H7.5V9.875C7.52604 9.48438 7.73438 9.27604 8.125 9.25ZM6.25 12.375V13H13.75V12.375C13.724 11.9844 13.5156 11.776 13.125 11.75H11.875H8.125H6.875C6.48438 11.776 6.27604 11.9844 6.25 12.375ZM13.75 14.25H6.25V18.625C6.27604 19.0156 6.48438 19.224 6.875 19.25H13.125C13.5156 19.224 13.724 19.0156 13.75 18.625V14.25Z" fill="black" fill-opacity="0.72"/>
</g>
<defs>
<clipPath id="clip0_1731_5334">
<rect width="20" height="30" fill="white"/>
</clipPath>
</defs>
</svg>
