<svg width="11" height="18" viewBox="0 0 11 18" fill="none" xmlns="http://www.w3.org/2000/svg">
<g id="label-paired / caption / app-store-ios-caption" clip-path="url(#clip0_1731_13793)">
<path id="icon" d="M9.625 4.25C9.9375 4.26562 10.2031 4.375 10.4219 4.57812C10.625 4.79688 10.7344 5.0625 10.75 5.375V13.625C10.7344 13.9375 10.625 14.2031 10.4219 14.4219C10.2031 14.625 9.9375 14.7344 9.625 14.75H1.375C1.0625 14.7344 0.796875 14.625 0.578125 14.4219C0.375 14.2031 0.265625 13.9375 0.25 13.625V5.375C0.265625 5.0625 0.375 4.79688 0.578125 4.57812C0.796875 4.375 1.0625 4.26562 1.375 4.25H9.625ZM3.22656 12.5234L3.67188 11.7266C3.4375 11.4297 3.13281 11.3438 2.75781 11.4688L2.40625 12.0547C2.29688 12.3047 2.35938 12.5156 2.59375 12.6875C2.84375 12.7969 3.05469 12.7422 3.22656 12.5234ZM6.48438 11.2578C6.57812 11.0391 6.57031 10.8281 6.46094 10.625C6.36719 10.4375 6.19531 10.3359 5.94531 10.3203H4.49219L6.50781 6.82812C6.63281 6.5625 6.57812 6.35156 6.34375 6.19531C6.07812 6.07031 5.85938 6.125 5.6875 6.35938L5.47656 6.71094L5.28906 6.35938C5.11719 6.125 4.89844 6.07031 4.63281 6.19531C4.39844 6.35156 4.34375 6.5625 4.46875 6.82812L4.9375 7.64844L3.41406 10.3203H2.21875C1.9375 10.3359 1.78125 10.4922 1.75 10.7891C1.78125 11.0703 1.9375 11.2266 2.21875 11.2578H6.48438ZM8.78125 11.2578C9.0625 11.2266 9.21875 11.0703 9.25 10.7891C9.21875 10.4922 9.0625 10.3359 8.78125 10.3203H7.5625C7.0625 9.46094 6.66406 8.77344 6.36719 8.25781C6.30469 8.13281 6.24219 8.02344 6.17969 7.92969C6.02344 8.05469 5.91406 8.25781 5.85156 8.53906C5.77344 8.83594 5.82812 9.15625 6.01562 9.5C6.23438 9.875 6.50781 10.3516 6.83594 10.9297C7.10156 11.3984 7.40625 11.9297 7.75 12.5234C7.92188 12.7422 8.13281 12.7969 8.38281 12.6875C8.61719 12.5156 8.67969 12.3047 8.57031 12.0547L8.10156 11.2578H8.78125Z" fill="black" fill-opacity="0.72"/>
</g>
<defs>
<clipPath id="clip0_1731_13793">
<rect width="11" height="18" fill="white"/>
</clipPath>
</defs>
</svg>
