<svg width="13" height="22" viewBox="0 0 13 22" fill="none" xmlns="http://www.w3.org/2000/svg">
<g id="label-paired / sm / arrow-right-sm / bold" clip-path="url(#clip0_1731_2094)">
<path id="icon" d="M12.4336 11.2148L7.62109 15.8086C7.29297 16.0638 6.98307 16.0638 6.69141 15.8086C6.4362 15.4805 6.4362 15.1706 6.69141 14.8789L10.3281 11.4062H1.03125C0.630208 11.3698 0.411458 11.151 0.375 10.75C0.411458 10.349 0.630208 10.1302 1.03125 10.0938H10.3281L6.71875 6.62109C6.44531 6.32943 6.4362 6.01953 6.69141 5.69141C6.98307 5.4362 7.29297 5.4362 7.62109 5.69141L12.4336 10.2852C12.5612 10.4128 12.625 10.5677 12.625 10.75C12.625 10.9323 12.5612 11.0872 12.4336 11.2148Z" fill="black" fill-opacity="0.72"/>
</g>
<defs>
<clipPath id="clip0_1731_2094">
<rect width="13" height="22" fill="white"/>
</clipPath>
</defs>
</svg>
