<svg width="14" height="22" viewBox="0 0 14 22" fill="none" xmlns="http://www.w3.org/2000/svg">
<g id="label-paired / sm / chevrons-up-sm / bold" clip-path="url(#clip0_1731_2149)">
<path id="icon" d="M7.46484 5.03516L12.7148 10.2852C12.9701 10.5951 12.9701 10.9049 12.7148 11.2148C12.4049 11.4701 12.0951 11.4701 11.7852 11.2148L7 6.42969L2.21484 11.2148C1.90495 11.4701 1.59505 11.4701 1.28516 11.2148C1.02995 10.9049 1.02995 10.5951 1.28516 10.2852L6.53516 5.03516C6.84505 4.77995 7.15495 4.77995 7.46484 5.03516ZM12.7148 15.5352C12.9701 15.8451 12.9701 16.1549 12.7148 16.4648C12.4049 16.7201 12.0951 16.7201 11.7852 16.4648L7 11.6797L2.21484 16.4648C1.90495 16.7201 1.59505 16.7201 1.28516 16.4648C1.02995 16.1549 1.02995 15.8451 1.28516 15.5352L6.53516 10.2852C6.84505 10.0299 7.15495 10.0299 7.46484 10.2852L12.7148 15.5352Z" fill="black" fill-opacity="0.72"/>
</g>
<defs>
<clipPath id="clip0_1731_2149">
<rect width="14" height="22" fill="white"/>
</clipPath>
</defs>
</svg>
