<svg width="24" height="36" viewBox="0 0 24 36" fill="none" xmlns="http://www.w3.org/2000/svg">
<g id="label-paired / xl / circle-user-xl / regular" clip-path="url(#clip0_1731_6780)">
<path id="icon" d="M19.3125 25.5469C20.3125 24.5781 21.0938 23.4531 21.6562 22.1719C22.2188 20.8906 22.5 19.5 22.5 18C22.4688 16.0312 21.9844 14.2656 21.0469 12.7031C20.1406 11.1094 18.8906 9.85938 17.2969 8.95312C15.7344 8.01562 13.9688 7.53125 12 7.5C10.0312 7.53125 8.26562 8.01562 6.70312 8.95312C5.10938 9.85938 3.85938 11.1094 2.95312 12.7031C2.01562 14.2656 1.53125 16.0312 1.5 18C1.5 19.5 1.78125 20.8906 2.34375 22.1719C2.90625 23.4531 3.6875 24.5781 4.6875 25.5469C5.03125 24.2031 5.73438 23.1094 6.79688 22.2656C7.82812 21.4531 9.0625 21.0312 10.5 21H13.5C14.9375 21.0312 16.1719 21.4531 17.2031 22.2656C18.2656 23.1094 18.9688 24.2031 19.3125 25.5469ZM18 26.625C17.875 25.4375 17.3906 24.4688 16.5469 23.7188C15.7344 22.9375 14.7188 22.5312 13.5 22.5H10.5C9.28125 22.5312 8.26562 22.9375 7.45312 23.7188C6.60938 24.4688 6.125 25.4375 6 26.625C7.75 27.8438 9.75 28.4688 12 28.5C14.25 28.4688 16.25 27.8438 18 26.625ZM12 30C9.8125 29.9688 7.8125 29.4375 6 28.4062C4.1875 27.3438 2.71875 25.875 1.59375 24C0.53125 22.0938 0 20.0938 0 18C0 15.9062 0.53125 13.9062 1.59375 12C2.71875 10.125 4.1875 8.65625 6 7.59375C7.8125 6.5625 9.8125 6.03125 12 6C14.1875 6.03125 16.1875 6.5625 18 7.59375C19.8125 8.65625 21.2812 10.125 22.4062 12C23.4688 13.9062 24 15.9062 24 18C24 20.0938 23.4688 22.0938 22.4062 24C21.2812 25.875 19.8125 27.3438 18 28.4062C16.1875 29.4375 14.1875 29.9688 12 30ZM12 18C12.8438 17.9688 13.5 17.5938 13.9688 16.875C14.3438 16.125 14.3438 15.375 13.9688 14.625C13.5 13.9062 12.8438 13.5312 12 13.5C11.1562 13.5312 10.5 13.9062 10.0312 14.625C9.65625 15.375 9.65625 16.125 10.0312 16.875C10.5 17.5938 11.1562 17.9688 12 18ZM8.25 15.75C8.28125 14.3438 8.90625 13.2656 10.125 12.5156C11.375 11.8281 12.625 11.8281 13.875 12.5156C15.0938 13.2656 15.7188 14.3438 15.75 15.75C15.7188 17.1562 15.0938 18.2344 13.875 18.9844C12.625 19.6719 11.375 19.6719 10.125 18.9844C8.90625 18.2344 8.28125 17.1562 8.25 15.75Z" fill="black" fill-opacity="0.72"/>
</g>
<defs>
<clipPath id="clip0_1731_6780">
<rect width="24" height="36" fill="white"/>
</clipPath>
</defs>
</svg>
