<svg width="20" height="30" viewBox="0 0 20 30" fill="none" xmlns="http://www.w3.org/2000/svg">
<g id="label-paired / lg / table-layout-lg / regular" clip-path="url(#clip0_1731_4954)">
<path id="icon" d="M17.5 8H2.5C2.13542 8 1.83594 8.11719 1.60156 8.35156C1.36719 8.58594 1.25 8.88542 1.25 9.25V11.75H18.75V9.25C18.75 8.88542 18.6328 8.58594 18.3984 8.35156C18.1641 8.11719 17.8646 8 17.5 8ZM1.25 21.75C1.25 22.1146 1.36719 22.4141 1.60156 22.6484C1.83594 22.8828 2.13542 23 2.5 23H6.25V13H1.25V21.75ZM7.5 23H17.5C17.8646 23 18.1641 22.8828 18.3984 22.6484C18.6328 22.4141 18.75 22.1146 18.75 21.75V13H7.5V23ZM2.5 6.75H17.5C18.2031 6.77604 18.7891 7.02344 19.2578 7.49219C19.7266 7.96094 19.974 8.54688 20 9.25V21.75C19.974 22.4531 19.7266 23.0391 19.2578 23.5078C18.7891 23.9766 18.2031 24.224 17.5 24.25H2.5C1.79688 24.224 1.21094 23.9766 0.742188 23.5078C0.273438 23.0391 0.0260417 22.4531 0 21.75V9.25C0.0260417 8.54688 0.273438 7.96094 0.742188 7.49219C1.21094 7.02344 1.79688 6.77604 2.5 6.75Z" fill="black" fill-opacity="0.72"/>
</g>
<defs>
<clipPath id="clip0_1731_4954">
<rect width="20" height="30" fill="white"/>
</clipPath>
</defs>
</svg>
