<svg width="18" height="22" viewBox="0 0 18 22" fill="none" xmlns="http://www.w3.org/2000/svg">
<g id="label-paired / sm / deriv-p2p-sm / regular" clip-path="url(#clip0_1731_2945)">
<path id="icon" d="M5.5 8.78125C5.33594 8.78125 5.14453 8.80859 4.92578 8.80859C4.73438 8.83594 4.51562 8.86328 4.32422 8.89062V12.7734H5.19922V11.4609H5.5C6.07422 11.4609 6.53906 11.3516 6.83984 11.1328C7.16797 10.9414 7.33203 10.5859 7.33203 10.1211C7.33203 9.65625 7.16797 9.30078 6.86719 9.10938C6.53906 8.89062 6.10156 8.78125 5.5 8.78125ZM5.55469 9.54688C5.69141 9.54688 5.80078 9.54688 5.91016 9.57422C6.01953 9.60156 6.10156 9.62891 6.18359 9.65625C6.26562 9.71094 6.32031 9.76562 6.34766 9.84766C6.40234 9.90234 6.40234 10.0117 6.40234 10.1211C6.40234 10.3398 6.34766 10.5039 6.18359 10.5859C6.01953 10.668 5.80078 10.6953 5.5 10.6953H5.19922V9.57422C5.25391 9.57422 5.30859 9.54688 5.36328 9.54688C5.44531 9.54688 5.5 9.54688 5.55469 9.54688ZM10.0664 9.875C10.0664 9.71094 10.0391 9.54688 9.98438 9.41016C9.92969 9.27344 9.84766 9.16406 9.73828 9.05469C9.62891 8.97266 9.49219 8.89062 9.32812 8.83594C9.16406 8.78125 8.97266 8.75391 8.72656 8.75391C8.48047 8.75391 8.23438 8.80859 8.01562 8.91797C7.79688 9 7.60547 9.13672 7.44141 9.30078L7.85156 9.875C7.87891 9.84766 7.93359 9.82031 7.98828 9.79297C8.04297 9.73828 8.09766 9.68359 8.17969 9.65625C8.23438 9.60156 8.31641 9.57422 8.42578 9.54688C8.50781 9.49219 8.58984 9.49219 8.69922 9.49219C8.83594 9.49219 8.97266 9.51953 9.05469 9.57422C9.16406 9.65625 9.19141 9.76562 9.19141 9.92969C9.19141 10.0117 9.19141 10.0938 9.13672 10.1758C9.10938 10.2305 9.05469 10.3125 9 10.3945C8.94531 10.4492 8.86328 10.5312 8.78125 10.6133C8.69922 10.6953 8.61719 10.7773 8.53516 10.8594C8.42578 10.9688 8.28906 11.0781 8.17969 11.1875C8.07031 11.2969 7.96094 11.4336 7.85156 11.5703C7.76953 11.707 7.6875 11.8438 7.63281 11.9805C7.57812 12.1445 7.55078 12.3086 7.55078 12.5C7.55078 12.5273 7.55078 12.5547 7.55078 12.6367C7.55078 12.6914 7.55078 12.7461 7.55078 12.7734H10.1758V12.0625H8.48047C8.50781 12.0352 8.53516 11.9805 8.5625 11.9258C8.61719 11.8711 8.67188 11.8164 8.72656 11.7344C8.80859 11.6797 8.86328 11.5977 8.91797 11.543C9 11.4609 9.05469 11.4062 9.10938 11.3516C9.21875 11.2422 9.32812 11.1328 9.4375 11.0234C9.57422 10.9141 9.65625 10.8047 9.76562 10.668C9.84766 10.5586 9.92969 10.4219 9.98438 10.2852C10.0391 10.1484 10.0664 10.0117 10.0664 9.875ZM11.8164 8.78125H11.8438C11.6797 8.78125 11.4883 8.80859 11.2695 8.80859C11.0508 8.83594 10.832 8.86328 10.6406 8.89062V12.7734H11.543V11.4609H11.8164C12.3906 11.4609 12.8555 11.3516 13.1836 11.1328C13.4844 10.9414 13.6484 10.5859 13.6484 10.1211C13.6484 9.65625 13.4844 9.30078 13.1836 9.10938C12.8555 8.89062 12.418 8.78125 11.8164 8.78125ZM11.8984 9.54688C12.0078 9.54688 12.1445 9.54688 12.2266 9.57422C12.3359 9.60156 12.4453 9.62891 12.5 9.65625C12.582 9.71094 12.6367 9.76562 12.6641 9.84766C12.7188 9.90234 12.7461 10.0117 12.7461 10.1211C12.7461 10.3398 12.6641 10.5039 12.5 10.5859C12.3633 10.668 12.1172 10.6953 11.8164 10.6953H11.543V9.57422C11.5703 9.57422 11.625 9.54688 11.6797 9.54688C11.7617 9.54688 11.8164 9.54688 11.8984 9.54688ZM13.375 4.625H4.625C3.64062 4.625 2.875 5.41797 2.875 6.375V15.125C2.875 16.1094 3.64062 16.875 4.625 16.875H13.375C14.332 16.875 15.125 16.1094 15.125 15.125V6.375C15.125 5.41797 14.332 4.625 13.375 4.625ZM4.625 3.75H13.375C14.8242 3.75 16 4.92578 16 6.375V15.125C16 16.5742 14.8242 17.75 13.375 17.75H4.625C3.17578 17.75 2 16.5742 2 15.125V6.375C2 4.92578 3.17578 3.75 4.625 3.75Z" fill="black" fill-opacity="0.72"/>
</g>
<defs>
<clipPath id="clip0_1731_2945">
<rect width="18" height="22" fill="white"/>
</clipPath>
</defs>
</svg>
