<svg width="12" height="18" viewBox="0 0 12 18" fill="none" xmlns="http://www.w3.org/2000/svg">
<g id="label-paired / caption / circle-euro-caption / regular" clip-path="url(#clip0_1731_1707)">
<path id="icon" d="M11.25 9.5C11.2344 8.54688 11 7.67188 10.5469 6.875C10.0781 6.07812 9.4375 5.4375 8.625 4.95312C7.79688 4.48438 6.92188 4.25 6 4.25C5.07812 4.25 4.20312 4.48438 3.375 4.95312C2.5625 5.4375 1.92188 6.07812 1.45312 6.875C1 7.67188 0.765625 8.54688 0.75 9.5C0.765625 10.4531 1 11.3281 1.45312 12.125C1.92188 12.9219 2.5625 13.5625 3.375 14.0469C4.20312 14.5156 5.07812 14.75 6 14.75C6.92188 14.75 7.79688 14.5156 8.625 14.0469C9.4375 13.5625 10.0781 12.9219 10.5469 12.125C11 11.3281 11.2344 10.4531 11.25 9.5ZM0 9.5C0.015625 8.40625 0.28125 7.40625 0.796875 6.5C1.32812 5.59375 2.0625 4.85938 3 4.29688C3.95312 3.76562 4.95312 3.5 6 3.5C7.04688 3.5 8.04688 3.76562 9 4.29688C9.9375 4.85938 10.6719 5.59375 11.2031 6.5C11.7188 7.40625 11.9844 8.40625 12 9.5C11.9844 10.5938 11.7188 11.5938 11.2031 12.5C10.6719 13.4062 9.9375 14.1406 9 14.7031C8.04688 15.2344 7.04688 15.5 6 15.5C4.95312 15.5 3.95312 15.2344 3 14.7031C2.0625 14.1406 1.32812 13.4062 0.796875 12.5C0.28125 11.5938 0.015625 10.5938 0 9.5ZM3 9.875H3.5625C3.54688 9.75 3.53906 9.63281 3.53906 9.52344C3.53906 9.38281 3.54688 9.25 3.5625 9.125H3C2.76562 9.10938 2.64062 8.98438 2.625 8.75C2.64062 8.51562 2.76562 8.39062 3 8.375H3.79688C4.01562 7.92188 4.33594 7.5625 4.75781 7.29688C5.17969 7.01562 5.65625 6.875 6.1875 6.875H7.14844C7.38281 6.89062 7.50781 7.01562 7.52344 7.25C7.50781 7.48438 7.38281 7.60938 7.14844 7.625H6.1875C5.54688 7.64062 5.04688 7.89062 4.6875 8.375H6.75C6.98438 8.39062 7.10938 8.51562 7.125 8.75C7.10938 8.98438 6.98438 9.10938 6.75 9.125H4.33594C4.30469 9.25 4.28906 9.38281 4.28906 9.52344C4.28906 9.64844 4.30469 9.76562 4.33594 9.875H6.75C6.98438 9.89062 7.10938 10.0156 7.125 10.25C7.10938 10.4844 6.98438 10.6094 6.75 10.625H4.64062C5.01562 11.125 5.53125 11.3906 6.1875 11.4219H7.14844C7.38281 11.4375 7.50781 11.5625 7.52344 11.7969C7.50781 12.0156 7.38281 12.1406 7.14844 12.1719H6.1875C5.64062 12.1562 5.15625 12.0078 4.73438 11.7266C4.3125 11.4453 4 11.0781 3.79688 10.625H3C2.76562 10.6094 2.64062 10.4844 2.625 10.25C2.64062 10.0156 2.76562 9.89062 3 9.875Z" fill="black" fill-opacity="0.72"/>
</g>
<defs>
<clipPath id="clip0_1731_1707">
<rect width="12" height="18" fill="white"/>
</clipPath>
</defs>
</svg>
