<svg width="20" height="30" viewBox="0 0 20 30" fill="none" xmlns="http://www.w3.org/2000/svg">
<g id="label-paired / lg / image-lg / regular" clip-path="url(#clip0_1731_5242)">
<path id="icon" d="M2.5 8C2.13542 8 1.83594 8.11719 1.60156 8.35156C1.36719 8.58594 1.25 8.88542 1.25 9.25V18.3516L3.90625 15.7344C4.21875 15.4219 4.58333 15.2656 5 15.2656C5.41667 15.2656 5.78125 15.4219 6.09375 15.7344L8.75 18.3516L13.9062 13.2344C14.2188 12.9219 14.5833 12.7656 15 12.7656C15.4167 12.7656 15.7812 12.9219 16.0938 13.2344L18.75 15.8516V9.25C18.75 8.88542 18.6328 8.58594 18.3984 8.35156C18.1641 8.11719 17.8646 8 17.5 8H2.5ZM1.25 20.1484V21.75C1.25 22.1146 1.36719 22.4141 1.60156 22.6484C1.83594 22.8828 2.13542 23 2.5 23H4.10156L7.85156 19.25L5.23438 16.5938C5.07812 16.4896 4.92188 16.4896 4.76562 16.5938L1.25 20.1484ZM15.2344 14.0938C15.0781 13.9896 14.9219 13.9896 14.7656 14.0938L5.89844 23H17.5C17.8646 23 18.1641 22.8828 18.3984 22.6484C18.6328 22.4141 18.75 22.1146 18.75 21.75V17.6484L15.2344 14.0938ZM0 9.25C0.0260417 8.54688 0.273438 7.96094 0.742188 7.49219C1.21094 7.02344 1.79688 6.77604 2.5 6.75H17.5C18.2031 6.77604 18.7891 7.02344 19.2578 7.49219C19.7266 7.96094 19.974 8.54688 20 9.25V21.75C19.974 22.4531 19.7266 23.0391 19.2578 23.5078C18.7891 23.9766 18.2031 24.224 17.5 24.25H2.5C1.79688 24.224 1.21094 23.9766 0.742188 23.5078C0.273438 23.0391 0.0260417 22.4531 0 21.75V9.25ZM6.25 11.125C6.22396 10.7344 6.01562 10.526 5.625 10.5C5.23438 10.526 5.02604 10.7344 5 11.125C5.02604 11.5156 5.23438 11.724 5.625 11.75C6.01562 11.724 6.22396 11.5156 6.25 11.125ZM3.75 11.125C3.77604 10.4219 4.08854 9.875 4.6875 9.48438C5.3125 9.17188 5.9375 9.17188 6.5625 9.48438C7.16146 9.875 7.47396 10.4219 7.5 11.125C7.47396 11.8281 7.16146 12.375 6.5625 12.7656C5.9375 13.0781 5.3125 13.0781 4.6875 12.7656C4.08854 12.375 3.77604 11.8281 3.75 11.125Z" fill="black" fill-opacity="0.72"/>
</g>
<defs>
<clipPath id="clip0_1731_5242">
<rect width="20" height="30" fill="white"/>
</clipPath>
</defs>
</svg>
