<svg width="13" height="22" viewBox="0 0 13 22" fill="none" xmlns="http://www.w3.org/2000/svg">
<g id="label-paired / sm / stopwatch-sm / bold" clip-path="url(#clip0_1731_1959)">
<path id="icon" d="M4.3125 4.40625C4.34896 4.00521 4.56771 3.78646 4.96875 3.75H8.03125C8.43229 3.78646 8.65104 4.00521 8.6875 4.40625C8.65104 4.80729 8.43229 5.02604 8.03125 5.0625H7.15625V6.40234C8.35938 6.56641 9.39844 7.03125 10.2734 7.79688L11.0664 7.00391C11.3763 6.7487 11.6862 6.7487 11.9961 7.00391C12.2513 7.3138 12.2513 7.6237 11.9961 7.93359L11.1484 8.78125C11.8229 9.72917 12.1693 10.8229 12.1875 12.0625C12.151 13.6667 11.5951 15.0065 10.5195 16.082C9.44401 17.1576 8.10417 17.7135 6.5 17.75C4.89583 17.7135 3.55599 17.1576 2.48047 16.082C1.40495 15.0065 0.848958 13.6667 0.8125 12.0625C0.848958 10.5677 1.33203 9.30078 2.26172 8.26172C3.20964 7.22266 4.40365 6.60286 5.84375 6.40234V5.0625H4.96875C4.56771 5.02604 4.34896 4.80729 4.3125 4.40625ZM6.5 16.4375C7.28385 16.4375 8.01302 16.2461 8.6875 15.8633C9.36198 15.4622 9.89974 14.9245 10.3008 14.25C10.6836 13.5573 10.875 12.8281 10.875 12.0625C10.875 11.2969 10.6836 10.5677 10.3008 9.875C9.89974 9.20052 9.36198 8.66276 8.6875 8.26172C8.01302 7.87891 7.28385 7.6875 6.5 7.6875C5.71615 7.6875 4.98698 7.87891 4.3125 8.26172C3.63802 8.66276 3.10026 9.20052 2.69922 9.875C2.31641 10.5677 2.125 11.2969 2.125 12.0625C2.125 12.8281 2.31641 13.5573 2.69922 14.25C3.10026 14.9245 3.63802 15.4622 4.3125 15.8633C4.98698 16.2461 5.71615 16.4375 6.5 16.4375ZM7.15625 9.65625V12.5C7.11979 12.901 6.90104 13.1198 6.5 13.1562C6.09896 13.1198 5.88021 12.901 5.84375 12.5V9.65625C5.88021 9.25521 6.09896 9.03646 6.5 9C6.90104 9.03646 7.11979 9.25521 7.15625 9.65625Z" fill="black" fill-opacity="0.72"/>
</g>
<defs>
<clipPath id="clip0_1731_1959">
<rect width="13" height="22" fill="white"/>
</clipPath>
</defs>
</svg>
