<svg width="23" height="30" viewBox="0 0 23 30" fill="none" xmlns="http://www.w3.org/2000/svg">
<g id="label-paired / lg / link-simple-lg / regular" clip-path="url(#clip0_1731_4786)">
<path id="icon" d="M0.25 15.5C0.302083 13.7292 0.914062 12.2578 2.08594 11.0859C3.25781 9.91406 4.72917 9.30208 6.5 9.25H9.625C10.0156 9.27604 10.224 9.48438 10.25 9.875C10.224 10.2656 10.0156 10.474 9.625 10.5H6.5C5.09375 10.526 3.90885 11.0078 2.94531 11.9453C2.00781 12.9089 1.52604 14.0938 1.5 15.5C1.52604 16.9062 2.00781 18.0911 2.94531 19.0547C3.90885 19.9922 5.09375 20.474 6.5 20.5H9.625C10.0156 20.526 10.224 20.7344 10.25 21.125C10.224 21.5156 10.0156 21.724 9.625 21.75H6.5C4.72917 21.6979 3.25781 21.0859 2.08594 19.9141C0.914062 18.7422 0.302083 17.2708 0.25 15.5ZM22.75 15.5C22.6979 17.2708 22.0859 18.7422 20.9141 19.9141C19.7422 21.0859 18.2708 21.6979 16.5 21.75H13.375C12.9844 21.724 12.776 21.5156 12.75 21.125C12.776 20.7344 12.9844 20.526 13.375 20.5H16.5C17.9062 20.474 19.0911 19.9922 20.0547 19.0547C20.9922 18.0911 21.474 16.9062 21.5 15.5C21.474 14.0938 20.9922 12.9089 20.0547 11.9453C19.0911 11.0078 17.9062 10.526 16.5 10.5H13.375C12.9844 10.474 12.776 10.2656 12.75 9.875C12.776 9.48438 12.9844 9.27604 13.375 9.25H16.5C18.2708 9.30208 19.7422 9.91406 20.9141 11.0859C22.0859 12.2578 22.6979 13.7292 22.75 15.5ZM6.1875 14.875H16.8125C17.2031 14.901 17.4115 15.1094 17.4375 15.5C17.4115 15.8906 17.2031 16.099 16.8125 16.125H6.1875C5.79688 16.099 5.58854 15.8906 5.5625 15.5C5.58854 15.1094 5.79688 14.901 6.1875 14.875Z" fill="black" fill-opacity="0.72"/>
</g>
<defs>
<clipPath id="clip0_1731_4786">
<rect width="23" height="30" fill="white"/>
</clipPath>
</defs>
</svg>
