<svg width="15" height="18" viewBox="0 0 15 18" fill="none" xmlns="http://www.w3.org/2000/svg">
<g id="label-paired / caption / horizontal-rule-dashed-caption / bold" clip-path="url(#clip0_1731_1503)">
<path id="icon" d="M0 9.5C0 9.19531 0.234375 8.9375 0.5625 8.9375H2.0625C2.36719 8.9375 2.625 9.19531 2.625 9.5C2.625 9.82812 2.36719 10.0625 2.0625 10.0625H0.5625C0.234375 10.0625 0 9.82812 0 9.5ZM4.125 9.5C4.125 9.19531 4.35938 8.9375 4.6875 8.9375H6.1875C6.49219 8.9375 6.75 9.19531 6.75 9.5C6.75 9.82812 6.49219 10.0625 6.1875 10.0625H4.6875C4.35938 10.0625 4.125 9.82812 4.125 9.5ZM8.25 9.5C8.25 9.19531 8.48438 8.9375 8.8125 8.9375H10.3125C10.6172 8.9375 10.875 9.19531 10.875 9.5C10.875 9.82812 10.6172 10.0625 10.3125 10.0625H8.8125C8.48438 10.0625 8.25 9.82812 8.25 9.5ZM12.375 9.5C12.375 9.19531 12.6094 8.9375 12.9375 8.9375H14.4375C14.7422 8.9375 15 9.19531 15 9.5C15 9.82812 14.7422 10.0625 14.4375 10.0625H12.9375C12.6094 10.0625 12.375 9.82812 12.375 9.5Z" fill="black" fill-opacity="0.72"/>
</g>
<defs>
<clipPath id="clip0_1731_1503">
<rect width="15" height="18" fill="white"/>
</clipPath>
</defs>
</svg>
