<svg width="25" height="30" viewBox="0 0 25 30" fill="none" xmlns="http://www.w3.org/2000/svg">
<g id="label-paired / lg / light-user-tie-circle-dollar-lg / regular" clip-path="url(#clip0_1731_5236)">
<path id="icon" d="M0 24.3281C0 21.2422 2.1875 18.6641 5.11719 18.1172C5.39062 18.0781 5.66406 18.2344 5.74219 18.4688C6.17188 19.3672 6.60156 20.2656 7.03125 21.1641C7.30469 20.3438 7.57812 19.4844 7.85156 18.625C7.73438 18.625 7.61719 18.625 7.46094 18.625C7.14844 18.625 6.83594 18.3516 6.83594 18C6.83594 17.6875 7.14844 17.375 7.46094 17.375C7.89062 17.375 8.32031 17.375 8.71094 17.375C9.14062 17.375 9.57031 17.375 9.96094 17.375C10.3125 17.375 10.5859 17.6875 10.5859 18C10.5859 18.3516 10.3125 18.625 9.96094 18.625C9.84375 18.625 9.72656 18.625 9.60938 18.625C9.88281 19.4844 10.1562 20.3438 10.4297 21.1641C10.8594 20.2656 11.2891 19.3672 11.6797 18.4688C11.7969 18.2344 12.0703 18.0781 12.3438 18.1172C12.4609 18.1562 12.5781 18.1562 12.6953 18.1953C12.5781 18.7031 12.5 19.2109 12.5 19.7578C11.7969 21.2422 11.1328 22.6875 10.4297 24.1719C10.4297 24.2109 10.3906 24.25 10.3906 24.25C11.6016 24.25 12.8516 24.25 14.0625 24.25C14.4531 24.7578 14.8828 25.1484 15.3906 25.5C10.6641 25.5 5.9375 25.5 1.17188 25.5C0.507812 25.5 0 24.9922 0 24.3281ZM1.25 24.25C3.16406 24.25 5.11719 24.25 7.07031 24.25C7.07031 24.25 7.03125 24.2109 7.03125 24.1719C6.28906 22.6094 5.58594 21.0469 4.84375 19.4844C2.77344 20.0703 1.25 21.9844 1.25 24.25ZM3.75 10.5C3.75 8.74219 4.6875 7.0625 6.25 6.20312C7.77344 5.30469 9.6875 5.30469 11.25 6.20312C12.7734 7.0625 13.75 8.74219 13.75 10.5C13.75 12.2969 12.7734 13.9375 11.25 14.8359C9.6875 15.7344 7.77344 15.7344 6.25 14.8359C4.6875 13.9375 3.75 12.2969 3.75 10.5ZM5.46875 8.625C4.80469 9.79688 4.80469 11.2422 5.46875 12.375C6.17188 13.5469 7.38281 14.25 8.75 14.25C10.0781 14.25 11.3281 13.5469 11.9922 12.375C12.6562 11.2422 12.6562 9.79688 11.9922 8.625C11.3281 7.49219 10.0781 6.75 8.75 6.75C7.38281 6.75 6.17188 7.49219 5.46875 8.625ZM7.77344 22.8438C7.92969 23.1172 8.04688 23.3906 8.16406 23.6641C8.39844 24.1328 9.0625 24.1328 9.29688 23.6641C9.41406 23.3906 9.57031 23.1172 9.6875 22.8438C9.375 21.9062 9.0625 20.9297 8.75 19.9922L7.77344 22.8438ZM13.75 19.875C13.75 16.7891 16.25 14.25 19.375 14.25C22.4609 14.25 25 16.7891 25 19.875C25 23 22.4609 25.5 19.375 25.5C16.25 25.5 13.75 23 13.75 19.875ZM15 19.875C15 22.2969 16.9531 24.25 19.375 24.25C21.7578 24.25 23.75 22.2969 23.75 19.875C23.75 17.4922 21.7578 15.5 19.375 15.5C16.9531 15.5 15 17.4922 15 19.875ZM17.1875 18.8203C17.1484 18.0781 17.5781 17.6094 18.0469 17.375C18.2422 17.2578 18.4766 17.1797 18.75 17.1406C18.75 17.0234 18.75 16.8672 18.75 16.75C18.75 16.3984 19.0234 16.125 19.375 16.125C19.6875 16.125 20 16.3984 20 16.75C20 16.8672 20 17.0234 20 17.1406C20.2344 17.1797 20.4688 17.2188 20.6641 17.2578C21.0156 17.3359 21.2109 17.6875 21.1328 18.0391C21.0547 18.3516 20.7031 18.5859 20.3906 18.4688C20 18.3906 19.6875 18.3125 19.3359 18.3125C19.1016 18.3125 18.8281 18.3906 18.6328 18.4688C18.5156 18.5469 18.4766 18.5859 18.4375 18.625C18.4375 18.625 18.4375 18.6641 18.4375 18.7422C18.4375 18.7812 18.4375 18.8203 18.5938 18.9375C18.8281 19.0547 19.1406 19.1328 19.5312 19.25C19.5312 19.25 19.5312 19.25 19.5703 19.25C19.9219 19.3672 20.3906 19.4844 20.7422 19.7188C21.1328 19.9531 21.5234 20.3438 21.5625 20.9688C21.5625 21.6719 21.1719 22.1406 20.7031 22.4141C20.4688 22.5312 20.2344 22.6094 20 22.6484C20 22.8047 20 22.9219 20 23.0781C20 23.4297 19.6875 23.7031 19.375 23.7031C19.0234 23.7031 18.75 23.4297 18.75 23.0781C18.75 22.9219 18.75 22.7656 18.75 22.6094C18.3984 22.5703 18.0859 22.4531 17.8125 22.375C17.7344 22.3359 17.6562 22.3359 17.6172 22.2969C17.2656 22.2188 17.1094 21.8672 17.1875 21.5156C17.3047 21.2031 17.6562 21.0078 17.9688 21.125C18.0469 21.125 18.125 21.1641 18.2031 21.1641C18.6719 21.3203 19.0234 21.4375 19.375 21.4375C19.6484 21.4375 19.9219 21.3984 20.1172 21.3203C20.1953 21.2422 20.2344 21.2031 20.2734 21.1641C20.2734 21.1641 20.3125 21.0859 20.3125 21.0078C20.3125 20.9297 20.2734 20.8906 20.1172 20.7734C19.9219 20.6562 19.6094 20.5781 19.2188 20.4609C19.1797 20.4609 19.1406 20.4609 19.1406 20.4219C18.7891 20.3438 18.3594 20.2266 18.0078 20.0312C17.6172 19.8359 17.2266 19.4453 17.1875 18.8203Z" fill="black" fill-opacity="0.72"/>
</g>
<defs>
<clipPath id="clip0_1731_5236">
<rect width="25" height="30" fill="white"/>
</clipPath>
</defs>
</svg>
