<svg width="24" height="36" viewBox="0 0 24 36" fill="none" xmlns="http://www.w3.org/2000/svg">
<g id="label-paired / xl / calendar-range-xl / bold" clip-path="url(#clip0_1731_5633)">
<path id="icon" d="M8.625 7.125V9H15.375V7.125C15.4375 6.4375 15.8125 6.0625 16.5 6C17.1875 6.0625 17.5625 6.4375 17.625 7.125V9H19.5C20.3438 9.03125 21.0469 9.32812 21.6094 9.89062C22.1719 10.4531 22.4688 11.1562 22.5 12V12.75V15V27C22.4688 27.8438 22.1719 28.5469 21.6094 29.1094C21.0469 29.6719 20.3438 29.9688 19.5 30H4.5C3.65625 29.9688 2.95312 29.6719 2.39062 29.1094C1.82812 28.5469 1.53125 27.8438 1.5 27V15V12.75V12C1.53125 11.1562 1.82812 10.4531 2.39062 9.89062C2.95312 9.32812 3.65625 9.03125 4.5 9H6.375V7.125C6.4375 6.4375 6.8125 6.0625 7.5 6C8.1875 6.0625 8.5625 6.4375 8.625 7.125ZM3.75 15V27C3.78125 27.4688 4.03125 27.7188 4.5 27.75H19.5C19.9688 27.7188 20.2188 27.4688 20.25 27V15H3.75ZM6 19.5C6 19.0625 6.14062 18.7031 6.42188 18.4219C6.70312 18.1406 7.0625 18 7.5 18C7.9375 18 8.29688 18.1406 8.57812 18.4219C8.85938 18.7031 9 19.0625 9 19.5C9 19.9375 8.85938 20.2969 8.57812 20.5781C8.29688 20.8594 7.9375 21 7.5 21C7.0625 21 6.70312 20.8594 6.42188 20.5781C6.14062 20.2969 6 19.9375 6 19.5ZM16.5 22.5C16.9375 22.5 17.2969 22.6406 17.5781 22.9219C17.8594 23.2031 18 23.5625 18 24C18 24.4375 17.8594 24.7969 17.5781 25.0781C17.2969 25.3594 16.9375 25.5 16.5 25.5C16.0625 25.5 15.7031 25.3594 15.4219 25.0781C15.1406 24.7969 15 24.4375 15 24C15 23.5625 15.1406 23.2031 15.4219 22.9219C15.7031 22.6406 16.0625 22.5 16.5 22.5ZM10.5 19.5C10.5625 18.8125 10.9375 18.4375 11.625 18.375H16.875C17.5625 18.4375 17.9375 18.8125 18 19.5C17.9375 20.1875 17.5625 20.5625 16.875 20.625H11.625C10.9375 20.5625 10.5625 20.1875 10.5 19.5ZM12.375 22.875C13.0625 22.9375 13.4375 23.3125 13.5 24C13.4375 24.6875 13.0625 25.0625 12.375 25.125H7.125C6.4375 25.0625 6.0625 24.6875 6 24C6.0625 23.3125 6.4375 22.9375 7.125 22.875H12.375Z" fill="black" fill-opacity="0.72"/>
</g>
<defs>
<clipPath id="clip0_1731_5633">
<rect width="24" height="36" fill="white"/>
</clipPath>
</defs>
</svg>
