<svg width="20" height="24" viewBox="0 0 20 24" fill="none" xmlns="http://www.w3.org/2000/svg">
<g id="label-paired / md / person-chalkboard-md / bold" clip-path="url(#clip0_1731_3841)">
<path id="icon" d="M6 7C5.4375 6.97917 5 6.72917 4.6875 6.25C4.4375 5.75 4.4375 5.25 4.6875 4.75C5 4.27083 5.4375 4.02083 6 4C6.5625 4.02083 7 4.27083 7.3125 4.75C7.5625 5.25 7.5625 5.75 7.3125 6.25C7 6.72917 6.5625 6.97917 6 7ZM5.5625 9.5C5.5625 9.5 5.55208 9.5 5.53125 9.5C5.53125 9.5 5.52083 9.5 5.5 9.5V13.5H6.5V9.5H5.5625ZM5.5 19.25C5.45833 19.7083 5.20833 19.9583 4.75 20C4.29167 19.9583 4.04167 19.7083 4 19.25V11L2.65625 13.375C2.38542 13.75 2.04167 13.8438 1.625 13.6562C1.25 13.3854 1.15625 13.0417 1.34375 12.625L3.1875 9.40625C3.4375 8.96875 3.77083 8.625 4.1875 8.375C4.60417 8.125 5.0625 8 5.5625 8H7.59375H10V5.5C10.0208 5.08333 10.1667 4.72917 10.4375 4.4375C10.7292 4.16667 11.0833 4.02083 11.5 4H18.5C18.9167 4.02083 19.2708 4.16667 19.5625 4.4375C19.8333 4.72917 19.9792 5.08333 20 5.5V12.5C19.9792 12.9167 19.8333 13.2708 19.5625 13.5625C19.2708 13.8333 18.9167 13.9792 18.5 14H11.5C11.0833 13.9792 10.7292 13.8333 10.4375 13.5625C10.1667 13.2708 10.0208 12.9167 10 12.5V11H11.5V12.5H18.5V5.5H11.5V8H12.25C12.7083 8.04167 12.9583 8.29167 13 8.75C12.9583 9.20833 12.7083 9.45833 12.25 9.5H8V19.25C7.95833 19.7083 7.70833 19.9583 7.25 20C6.79167 19.9583 6.54167 19.7083 6.5 19.25V15H5.5V19.25Z" fill="black" fill-opacity="0.72"/>
</g>
<defs>
<clipPath id="clip0_1731_3841">
<rect width="20" height="24" fill="white"/>
</clipPath>
</defs>
</svg>
