<svg width="24" height="36" viewBox="0 0 24 36" fill="none" xmlns="http://www.w3.org/2000/svg">
<g id="label-paired / xl / arrow-up-right-from-square-xl / bold" clip-path="url(#clip0_1731_5698)">
<path id="icon" d="M14.25 7.125C14.3125 6.4375 14.6875 6.0625 15.375 6H22.875C23.5625 6.0625 23.9375 6.4375 24 7.125V14.625C23.9375 15.3125 23.5625 15.6875 22.875 15.75C22.1875 15.6875 21.8125 15.3125 21.75 14.625V9.84375L11.2969 20.2969C10.7656 20.7344 10.2344 20.7344 9.70312 20.2969C9.26562 19.7656 9.26562 19.2344 9.70312 18.7031L20.1562 8.25H15.375C14.6875 8.1875 14.3125 7.8125 14.25 7.125ZM3.375 7.5H9.375C10.0625 7.5625 10.4375 7.9375 10.5 8.625C10.4375 9.3125 10.0625 9.6875 9.375 9.75H3.375C2.6875 9.8125 2.3125 10.1875 2.25 10.875V26.625C2.3125 27.3125 2.6875 27.6875 3.375 27.75H19.125C19.8125 27.6875 20.1875 27.3125 20.25 26.625V20.625C20.3125 19.9375 20.6875 19.5625 21.375 19.5C22.0625 19.5625 22.4375 19.9375 22.5 20.625V26.625C22.4688 27.5938 22.1406 28.3906 21.5156 29.0156C20.8906 29.6406 20.0938 29.9688 19.125 30H3.375C2.40625 29.9688 1.60938 29.6406 0.984375 29.0156C0.359375 28.3906 0.03125 27.5938 0 26.625V10.875C0.03125 9.90625 0.359375 9.10938 0.984375 8.48438C1.60938 7.85938 2.40625 7.53125 3.375 7.5Z" fill="black" fill-opacity="0.72"/>
</g>
<defs>
<clipPath id="clip0_1731_5698">
<rect width="24" height="36" fill="white"/>
</clipPath>
</defs>
</svg>
