<svg width="30" height="36" viewBox="0 0 30 36" fill="none" xmlns="http://www.w3.org/2000/svg">
<g id="label-paired / xl / fiat-offramp-xl / bold" clip-path="url(#clip0_1731_6715)">
<path id="icon" d="M9.1875 16.1719C10.5938 16.1719 11.9062 15.4219 12.6094 14.2031C13.3125 12.9844 13.3125 11.4844 12.6094 10.2656C11.9062 9.04688 10.5938 8.29688 9.1875 8.25C7.78125 8.25 6.46875 9.04688 5.76562 10.2656C5.0625 11.4844 5.0625 12.9844 5.76562 14.2031C6.46875 15.4219 7.78125 16.1719 9.1875 16.1719ZM5.25 17.0156V26.0156C5.25 26.9531 6.04688 27.75 6.98438 27.75H15.9844C15.0938 26.7188 14.5781 25.3125 14.5781 23.8125C14.5781 21.7969 15.5625 19.9688 17.1094 18.8438L14.1562 15.8906C13.0312 17.4375 11.25 18.4219 9.1875 18.4219C7.6875 18.4219 6.28125 17.9062 5.25 17.0156ZM20.7656 27.75C22.9688 27.75 24.7031 26.0156 24.7031 23.8125C24.7031 21.6562 22.9688 19.875 20.7656 19.875C20.25 19.875 19.7812 19.9688 19.3594 20.1562H19.3125C17.8594 20.7188 16.8281 22.1719 16.8281 23.8125C16.8281 26.0156 18.6094 27.75 20.7656 27.75ZM19.2656 17.8125C19.7344 17.6719 20.25 17.625 20.7656 17.625C24.1875 17.625 27 20.3906 27 23.8125C27 27.2344 24.1875 30 20.7656 30H6.98438C4.78125 30 3 28.2188 3 26.0156V12.2344C3 8.8125 5.76562 6 9.1875 6C12.6094 6 15.375 8.8125 15.375 12.2344C15.375 12.75 15.3281 13.2656 15.1875 13.7344L19.2656 17.8125ZM21.5156 10.3594C22.125 10.3594 22.6406 10.875 22.6406 11.4844V15.8438C22.6406 16.3125 22.3594 16.6875 21.9375 16.875C21.5156 17.0625 21.0469 16.9688 20.7188 16.6406L16.3594 12.2812C15.9375 11.8594 15.9375 11.1562 16.3594 10.6875C16.7812 10.2656 17.5312 10.2656 17.9531 10.6875L20.3906 13.125V11.4844C20.3906 10.875 20.8594 10.3594 21.5156 10.3594ZM21.3281 20.4375H20.25V20.9062C19.5 21.1406 19.0312 21.8438 19.0312 22.5938C19.0312 23.5781 19.8281 24.375 20.7656 24.375C21.1406 24.375 21.4219 24.6562 21.4219 25.0312C21.4219 25.3594 21.1406 25.6875 20.7656 25.6875C20.4375 25.6875 20.1094 25.3594 20.1094 25.0312V24.8438H19.0312V25.0312C19.0312 25.7812 19.5 26.4375 20.25 26.6719V27.1875H21.3281V26.7188C22.0312 26.4375 22.5469 25.7812 22.5469 25.0312C22.5469 24.0469 21.75 23.25 20.7656 23.25C20.4375 23.25 20.1094 22.9688 20.1094 22.5938C20.1094 22.2188 20.4375 21.9375 20.7656 21.9375C21.1406 21.9375 21.4219 22.2188 21.4219 22.5938V22.7344H22.5469V22.5938C22.5469 21.8438 22.0312 21.1875 21.3281 20.9062V20.4375ZM8.48438 9.04688H7.59375V9.98438H6.70312V10.875H7.59375V13.5938H6.70312V14.4844H7.59375V15.375H8.48438V14.4844H9.42188V15.375H10.3125V14.4844C11.0156 14.4844 11.625 13.875 11.625 13.125C11.625 12.7969 11.5312 12.4688 11.2969 12.2344C11.8125 11.6719 11.7656 10.8281 11.2031 10.3125C10.9688 10.0781 10.6406 9.98438 10.3125 9.98438V9.04688H9.42188V9.98438H8.48438V9.04688ZM10.3125 12.6562C10.5469 12.6562 10.7344 12.8906 10.7344 13.125C10.7344 13.3594 10.5469 13.5938 10.3125 13.5938H8.48438V12.6562H10.3125ZM10.3125 10.875C10.5469 10.875 10.7344 11.0625 10.7344 11.3438C10.7344 11.5781 10.5469 11.7656 10.3125 11.7656H8.48438V10.875H10.3125Z" fill="black" fill-opacity="0.72"/>
</g>
<defs>
<clipPath id="clip0_1731_6715">
<rect width="30" height="36" fill="white"/>
</clipPath>
</defs>
</svg>
