<svg width="14" height="18" viewBox="0 0 14 18" fill="none" xmlns="http://www.w3.org/2000/svg">
<g id="label-paired / caption / link-simple-caption / regular" clip-path="url(#clip0_1731_1318)">
<path id="icon" d="M0.25 9.5C0.28125 8.4375 0.648438 7.55469 1.35156 6.85156C2.05469 6.14844 2.9375 5.78125 4 5.75H5.875C6.10938 5.76562 6.23438 5.89062 6.25 6.125C6.23438 6.35938 6.10938 6.48438 5.875 6.5H4C3.15625 6.51562 2.44531 6.80469 1.86719 7.36719C1.30469 7.94531 1.01562 8.65625 1 9.5C1.01562 10.3438 1.30469 11.0547 1.86719 11.6328C2.44531 12.1953 3.15625 12.4844 4 12.5H5.875C6.10938 12.5156 6.23438 12.6406 6.25 12.875C6.23438 13.1094 6.10938 13.2344 5.875 13.25H4C2.9375 13.2188 2.05469 12.8516 1.35156 12.1484C0.648438 11.4453 0.28125 10.5625 0.25 9.5ZM13.75 9.5C13.7188 10.5625 13.3516 11.4453 12.6484 12.1484C11.9453 12.8516 11.0625 13.2188 10 13.25H8.125C7.89062 13.2344 7.76562 13.1094 7.75 12.875C7.76562 12.6406 7.89062 12.5156 8.125 12.5H10C10.8438 12.4844 11.5547 12.1953 12.1328 11.6328C12.6953 11.0547 12.9844 10.3438 13 9.5C12.9844 8.65625 12.6953 7.94531 12.1328 7.36719C11.5547 6.80469 10.8438 6.51562 10 6.5H8.125C7.89062 6.48438 7.76562 6.35938 7.75 6.125C7.76562 5.89062 7.89062 5.76562 8.125 5.75H10C11.0625 5.78125 11.9453 6.14844 12.6484 6.85156C13.3516 7.55469 13.7188 8.4375 13.75 9.5ZM3.8125 9.125H10.1875C10.4219 9.14062 10.5469 9.26562 10.5625 9.5C10.5469 9.73438 10.4219 9.85938 10.1875 9.875H3.8125C3.57812 9.85938 3.45312 9.73438 3.4375 9.5C3.45312 9.26562 3.57812 9.14062 3.8125 9.125Z" fill="black" fill-opacity="0.72"/>
</g>
<defs>
<clipPath id="clip0_1731_1318">
<rect width="14" height="18" fill="white"/>
</clipPath>
</defs>
</svg>
