<svg width="20" height="24" viewBox="0 0 20 24" fill="none" xmlns="http://www.w3.org/2000/svg">
<g id="label-paired / md / chart-trend-up-md / regular" clip-path="url(#clip0_1885_555)">
<path id="icon" d="M19.2188 4.5625C19.4688 4.6875 19.5625 5 19.4375 5.25L16.4375 11.25C16.3438 11.4062 16.1875 11.5 16 11.5H11.2812L7.4375 19.25C7.3125 19.5 7 19.5938 6.75 19.4688L0.75 16.4688C0.5 16.3438 0.40625 16.0312 0.53125 15.7812C0.65625 15.5312 0.96875 15.4375 1.21875 15.5625L6.75 18.3438L10.5312 10.7812C10.625 10.625 10.7812 10.5 11 10.5H15.6875L18.5312 4.78125C18.6562 4.53125 18.9688 4.4375 19.2188 4.5625Z" fill="black" fill-opacity="0.72"/>
</g>
<defs>
<clipPath id="clip0_1885_555">
<rect width="20" height="24" fill="white"/>
</clipPath>
</defs>
</svg>
