<svg width="20" height="30" viewBox="0 0 20 30" fill="none" xmlns="http://www.w3.org/2000/svg">
<g id="label-paired / lg / circle-eight-lg / regular" clip-path="url(#clip0_1731_4553)">
<path id="icon" d="M18.75 15.5C18.724 13.9115 18.3333 12.4531 17.5781 11.125C16.7969 9.79688 15.7292 8.72917 14.375 7.92188C12.9948 7.14062 11.5365 6.75 10 6.75C8.46354 6.75 7.00521 7.14062 5.625 7.92188C4.27083 8.72917 3.20312 9.79688 2.42188 11.125C1.66667 12.4531 1.27604 13.9115 1.25 15.5C1.27604 17.0885 1.66667 18.5469 2.42188 19.875C3.20312 21.2031 4.27083 22.2708 5.625 23.0781C7.00521 23.8594 8.46354 24.25 10 24.25C11.5365 24.25 12.9948 23.8594 14.375 23.0781C15.7292 22.2708 16.7969 21.2031 17.5781 19.875C18.3333 18.5469 18.724 17.0885 18.75 15.5ZM0 15.5C0.0260417 13.6771 0.46875 12.0104 1.32812 10.5C2.21354 8.98958 3.4375 7.76562 5 6.82812C6.58854 5.94271 8.25521 5.5 10 5.5C11.7448 5.5 13.4115 5.94271 15 6.82812C16.5625 7.76562 17.7865 8.98958 18.6719 10.5C19.5312 12.0104 19.974 13.6771 20 15.5C19.974 17.3229 19.5312 18.9896 18.6719 20.5C17.7865 22.0104 16.5625 23.2344 15 24.1719C13.4115 25.0573 11.7448 25.5 10 25.5C8.25521 25.5 6.58854 25.0573 5 24.1719C3.4375 23.2344 2.21354 22.0104 1.32812 20.5C0.46875 18.9896 0.0260417 17.3229 0 15.5ZM10.4688 10.5C11.224 10.526 11.849 10.7865 12.3438 11.2812C12.8385 11.776 13.099 12.401 13.125 13.1562C13.099 13.9635 12.7995 14.6276 12.2266 15.1484C13.0078 15.7214 13.4115 16.5156 13.4375 17.5312C13.4115 18.3646 13.125 19.0677 12.5781 19.6406C12.0052 20.1875 11.3021 20.474 10.4688 20.5H9.53125C8.69792 20.474 7.99479 20.1875 7.42188 19.6406C6.875 19.0677 6.58854 18.3646 6.5625 17.5312C6.58854 16.5156 6.99219 15.7214 7.77344 15.1484C7.20052 14.6276 6.90104 13.9635 6.875 13.1562C6.90104 12.401 7.16146 11.776 7.65625 11.2812C8.15104 10.7865 8.77604 10.526 9.53125 10.5H10.4688ZM9.53125 14.5625H10.4688C10.8594 14.5625 11.1849 14.4193 11.4453 14.1328C11.7318 13.8724 11.875 13.5469 11.875 13.1562C11.875 12.7656 11.7318 12.4401 11.4453 12.1797C11.1849 11.8932 10.8594 11.75 10.4688 11.75H9.53125C9.14062 11.75 8.8151 11.8932 8.55469 12.1797C8.26823 12.4401 8.125 12.7656 8.125 13.1562C8.125 13.5469 8.26823 13.8724 8.55469 14.1328C8.8151 14.4193 9.14062 14.5625 9.53125 14.5625ZM10.4688 15.8125H9.53125C9.03646 15.8125 8.63281 15.9818 8.32031 16.3203C7.98177 16.6328 7.8125 17.0365 7.8125 17.5312C7.8125 18.026 7.98177 18.4297 8.32031 18.7422C8.63281 19.0807 9.03646 19.25 9.53125 19.25H10.4688C10.9635 19.25 11.3672 19.0807 11.6797 18.7422C12.0182 18.4297 12.1875 18.026 12.1875 17.5312C12.1875 17.0365 12.0182 16.6328 11.6797 16.3203C11.3672 15.9818 10.9635 15.8125 10.4688 15.8125Z" fill="black" fill-opacity="0.72"/>
</g>
<defs>
<clipPath id="clip0_1731_4553">
<rect width="20" height="30" fill="white"/>
</clipPath>
</defs>
</svg>
