<svg width="12" height="24" viewBox="0 0 12 24" fill="none" xmlns="http://www.w3.org/2000/svg">
<g id="label-paired / md / location-dot-md / regular" clip-path="url(#clip0_1731_3926)">
<path id="icon" d="M11 10C10.9583 8.58333 10.4688 7.40625 9.53125 6.46875C8.59375 5.53125 7.41667 5.04167 6 5C4.58333 5.04167 3.40625 5.53125 2.46875 6.46875C1.53125 7.40625 1.04167 8.58333 1 10C1 10.5 1.17708 11.1562 1.53125 11.9688C1.88542 12.8021 2.33333 13.6667 2.875 14.5625C3.41667 15.4375 3.96875 16.25 4.53125 17C5.09375 17.7708 5.58333 18.4167 6 18.9375C6.41667 18.4167 6.90625 17.7708 7.46875 17C8.03125 16.25 8.58333 15.4375 9.125 14.5625C9.6875 13.6667 10.1458 12.8021 10.5 11.9688C10.8333 11.1562 11 10.5 11 10ZM12 10C11.9583 10.9375 11.625 12.0208 11 13.25C10.3542 14.4792 9.625 15.6667 8.8125 16.8125C8 17.9792 7.3125 18.9062 6.75 19.5938C6.54167 19.8438 6.29167 19.9688 6 19.9688C5.70833 19.9688 5.45833 19.8438 5.25 19.5938C4.6875 18.9062 4 17.9792 3.1875 16.8125C2.375 15.6667 1.64583 14.4792 1 13.25C0.375 12.0208 0.0416667 10.9375 0 10C0.0416667 8.29167 0.625 6.875 1.75 5.75C2.875 4.625 4.29167 4.04167 6 4C7.70833 4.04167 9.125 4.625 10.25 5.75C11.375 6.875 11.9583 8.29167 12 10ZM4.5 10C4.52083 10.5625 4.77083 11 5.25 11.3125C5.75 11.5625 6.25 11.5625 6.75 11.3125C7.22917 11 7.47917 10.5625 7.5 10C7.47917 9.4375 7.22917 9 6.75 8.6875C6.25 8.4375 5.75 8.4375 5.25 8.6875C4.77083 9 4.52083 9.4375 4.5 10ZM6 12.5C5.0625 12.4792 4.34375 12.0625 3.84375 11.25C3.38542 10.4167 3.38542 9.58333 3.84375 8.75C4.34375 7.9375 5.0625 7.52083 6 7.5C6.9375 7.52083 7.65625 7.9375 8.15625 8.75C8.61458 9.58333 8.61458 10.4167 8.15625 11.25C7.65625 12.0625 6.9375 12.4792 6 12.5Z" fill="black" fill-opacity="0.72"/>
</g>
<defs>
<clipPath id="clip0_1731_3926">
<rect width="12" height="24" fill="white"/>
</clipPath>
</defs>
</svg>
