<svg width="18" height="22" viewBox="0 0 18 22" fill="none" xmlns="http://www.w3.org/2000/svg">
<g id="label-paired / sm / laptop-mobile-sm / regular" clip-path="url(#clip0_1731_2647)">
<path id="icon" d="M3.75 4.625C3.49479 4.625 3.28516 4.70703 3.12109 4.87109C2.95703 5.03516 2.875 5.24479 2.875 5.5V11.625H9.875V12.5H2.875H2H1.17969C1.36198 13.0469 1.75391 13.3385 2.35547 13.375H9.875V14.25H2.35547C1.75391 14.2318 1.26172 14.0312 0.878906 13.6484C0.477865 13.2474 0.268229 12.7461 0.25 12.1445C0.286458 11.8346 0.459635 11.6615 0.769531 11.625H2V5.5C2.01823 5.00781 2.19141 4.59766 2.51953 4.26953C2.84766 3.94141 3.25781 3.76823 3.75 3.75H12.5C12.9922 3.76823 13.4023 3.94141 13.7305 4.26953C14.0586 4.59766 14.2318 5.00781 14.25 5.5V6.375H13.375V5.5C13.375 5.24479 13.293 5.03516 13.1289 4.87109C12.9648 4.70703 12.7552 4.625 12.5 4.625H3.75ZM11.625 8.5625V16.4375C11.6432 16.7109 11.7891 16.8568 12.0625 16.875H16.4375C16.7109 16.8568 16.8568 16.7109 16.875 16.4375V8.5625C16.8568 8.28906 16.7109 8.14323 16.4375 8.125H12.0625C11.7891 8.14323 11.6432 8.28906 11.625 8.5625ZM10.75 8.5625C10.7682 8.19792 10.8958 7.88802 11.1328 7.63281C11.388 7.39583 11.6979 7.26823 12.0625 7.25H16.4375C16.8021 7.26823 17.112 7.39583 17.3672 7.63281C17.6042 7.88802 17.7318 8.19792 17.75 8.5625V16.4375C17.7318 16.8021 17.6042 17.112 17.3672 17.3672C17.112 17.6042 16.8021 17.7318 16.4375 17.75H12.0625C11.6979 17.7318 11.388 17.6042 11.1328 17.3672C10.8958 17.112 10.7682 16.8021 10.75 16.4375V8.5625Z" fill="black" fill-opacity="0.72"/>
</g>
<defs>
<clipPath id="clip0_1731_2647">
<rect width="18" height="22" fill="white"/>
</clipPath>
</defs>
</svg>
