<svg width="24" height="36" viewBox="0 0 24 36" fill="none" xmlns="http://www.w3.org/2000/svg">
<g id="label-paired / xl / telegram-xl" clip-path="url(#clip0_1731_14143)">
<path id="icon" d="M12 6.375C14.1562 6.40625 16.1094 6.9375 17.8594 7.96875C19.6094 9 21 10.3906 22.0312 12.1406C23.0625 13.8906 23.5938 15.8438 23.625 18C23.5938 20.1562 23.0625 22.1094 22.0312 23.8594C21 25.6094 19.6094 27 17.8594 28.0312C16.1094 29.0625 14.1562 29.5938 12 29.625C9.84375 29.5938 7.89062 29.0625 6.14062 28.0312C4.39062 27 3 25.6094 1.96875 23.8594C0.9375 22.1094 0.40625 20.1562 0.375 18C0.40625 15.8438 0.9375 13.8906 1.96875 12.1406C3 10.3906 4.39062 9 6.14062 7.96875C7.89062 6.9375 9.84375 6.40625 12 6.375ZM17.3906 14.2969C17.3906 14.1406 17.3906 13.9844 17.3906 13.8281C17.3594 13.7031 17.2969 13.5938 17.2031 13.5C17.0469 13.4062 16.8906 13.3594 16.7344 13.3594C16.5781 13.3594 16.2031 13.4688 15.6094 13.6875C15.0469 13.875 13.9844 14.2969 12.4219 14.9531C11.2969 15.4219 9.03125 16.3906 5.625 17.8594C5.09375 18.0781 4.8125 18.2969 4.78125 18.5156C4.78125 18.8281 5.10938 19.0625 5.76562 19.2188C5.85938 19.2188 5.95312 19.2344 6.04688 19.2656C6.32812 19.3906 6.64062 19.4844 6.98438 19.5469C7.32812 19.6406 7.60938 19.6875 7.82812 19.6875C8.20312 19.7188 8.625 19.5781 9.09375 19.2656C12.25 17.1094 13.8906 16.0156 14.0156 15.9844C14.0781 15.9531 14.1562 15.9688 14.25 16.0312C14.3125 16.125 14.3281 16.1875 14.2969 16.2188C14.2344 16.375 13.8906 16.7344 13.2656 17.2969C12.6719 17.8906 12.125 18.4219 11.625 18.8906C11.3125 19.1406 11.1406 19.2969 11.1094 19.3594C11.0156 19.4531 10.9219 19.5469 10.8281 19.6406C10.5156 19.8906 10.3281 20.1406 10.2656 20.3906C10.1719 20.6094 10.3594 20.8906 10.8281 21.2344C11.2969 21.5156 11.7188 21.7812 12.0938 22.0312C12.4688 22.3125 12.9219 22.625 13.4531 22.9688C13.5781 23.0625 13.7031 23.1562 13.8281 23.25C14.2969 23.625 14.7812 23.8125 15.2812 23.8125C15.625 23.8438 15.8906 23.4531 16.0781 22.6406C16.2031 21.9219 16.3594 21.0312 16.5469 19.9688C16.7344 18.9062 16.9062 17.8594 17.0625 16.8281C17.2188 15.7656 17.3281 14.9219 17.3906 14.2969Z" fill="black" fill-opacity="0.72"/>
</g>
<defs>
<clipPath id="clip0_1731_14143">
<rect width="24" height="36" fill="white"/>
</clipPath>
</defs>
</svg>
