<svg width="15" height="18" viewBox="0 0 15 18" fill="none" xmlns="http://www.w3.org/2000/svg">
<g id="label-paired / caption / ios-caption" clip-path="url(#clip0_1731_13788)">
<path id="icon" d="M7.80469 9.6875C7.80469 10.7656 7.26562 11.4453 6.35156 11.4453C5.46094 11.4453 4.92188 10.7656 4.92188 9.6875C4.92188 8.60938 5.46094 7.92969 6.35156 7.92969C7.26562 7.92969 7.80469 8.60938 7.80469 9.6875ZM13.5 6.80469V12.2188C13.5 12.6406 13.4766 13.3203 13.2422 13.9062C13.125 14.2109 12.8672 14.6328 12.4922 14.9141C12.2578 15.0781 12 15.2422 11.6484 15.3594C11.25 15.4766 10.7812 15.5 10.1953 15.5H4.78125C4.19531 15.5 3.72656 15.4766 3.32812 15.3594C2.97656 15.2422 2.71875 15.0781 2.48438 14.9141C2.10938 14.6328 1.85156 14.2109 1.73438 13.9062C1.5 13.3203 1.5 12.6406 1.5 12.2188V6.80469C1.5 6.38281 1.5 5.70312 1.73438 5.11719C1.85156 4.8125 2.10938 4.39062 2.48438 4.10938C2.71875 3.92188 2.97656 3.75781 3.32812 3.66406C3.72656 3.54688 4.19531 3.5 4.78125 3.5H10.1953C10.7812 3.5 11.25 3.54688 11.6484 3.66406C12 3.78125 12.2578 3.94531 12.4922 4.10938C12.8672 4.39062 13.125 4.8125 13.2422 5.11719C13.4766 5.70312 13.5 6.38281 13.5 6.80469ZM3.86719 11.8672V9.26562H3.32812V11.8672H3.86719ZM3.89062 8.53906C3.89062 8.375 3.75 8.23438 3.58594 8.23438C3.42188 8.23438 3.28125 8.375 3.28125 8.53906C3.28125 8.70312 3.42188 8.84375 3.58594 8.84375C3.75 8.84375 3.89062 8.70312 3.89062 8.53906ZM8.36719 9.6875C8.36719 8.30469 7.59375 7.4375 6.35156 7.4375C5.13281 7.4375 4.35938 8.30469 4.35938 9.6875C4.35938 11.0703 5.13281 11.9375 6.35156 11.9375C7.59375 11.9375 8.36719 11.0703 8.36719 9.6875ZM11.8594 10.625C11.8594 10.0156 11.4844 9.64062 10.5938 9.45312L10.1016 9.33594C9.51562 9.21875 9.28125 8.98438 9.28125 8.63281C9.28125 8.1875 9.67969 7.92969 10.2422 7.92969C10.8047 7.92969 11.1797 8.21094 11.2266 8.70312H11.7656C11.7422 7.95312 11.1094 7.4375 10.2422 7.4375C9.35156 7.4375 8.71875 7.95312 8.71875 8.65625C8.71875 9.28906 9.09375 9.6875 9.96094 9.875L10.4531 9.96875C11.0391 10.1094 11.2969 10.3438 11.2969 10.7188C11.2969 11.1406 10.8516 11.4453 10.2656 11.4453C9.65625 11.4453 9.21094 11.1641 9.14062 10.6953H8.60156C8.64844 11.4453 9.30469 11.9375 10.2422 11.9375C11.2266 11.9375 11.8594 11.4453 11.8594 10.625Z" fill="black" fill-opacity="0.72"/>
</g>
<defs>
<clipPath id="clip0_1731_13788">
<rect width="15" height="18" fill="white"/>
</clipPath>
</defs>
</svg>
