<svg width="16" height="24" viewBox="0 0 16 24" fill="none" xmlns="http://www.w3.org/2000/svg">
<g id="label-paired / md / circle-zero-md / bold" clip-path="url(#clip0_1731_3608)">
<path id="icon" d="M8 5.5C6.8125 5.5 5.72917 5.79167 4.75 6.375C3.77083 6.9375 2.97917 7.72917 2.375 8.75C1.79167 9.77083 1.5 10.8542 1.5 12C1.5 13.1458 1.79167 14.2292 2.375 15.25C2.97917 16.2708 3.77083 17.0625 4.75 17.625C5.72917 18.2083 6.8125 18.5 8 18.5C9.1875 18.5 10.2708 18.2083 11.25 17.625C12.2292 17.0625 13.0208 16.2708 13.625 15.25C14.2083 14.2292 14.5 13.1458 14.5 12C14.5 10.8542 14.2083 9.77083 13.625 8.75C13.0208 7.72917 12.2292 6.9375 11.25 6.375C10.2708 5.79167 9.1875 5.5 8 5.5ZM8 20C6.54167 19.9792 5.20833 19.625 4 18.9375C2.79167 18.2292 1.8125 17.25 1.0625 16C0.354167 14.7292 0 13.3958 0 12C0 10.6042 0.354167 9.27083 1.0625 8C1.8125 6.75 2.79167 5.77083 4 5.0625C5.20833 4.375 6.54167 4.02083 8 4C9.45833 4.02083 10.7917 4.375 12 5.0625C13.2083 5.77083 14.1875 6.75 14.9375 8C15.6458 9.27083 16 10.6042 16 12C16 13.3958 15.6458 14.7292 14.9375 16C14.1875 17.25 13.2083 18.2292 12 18.9375C10.7917 19.625 9.45833 19.9792 8 20ZM8 8C8.85417 8.02083 9.5625 8.3125 10.125 8.875C10.6875 9.4375 10.9792 10.1458 11 11V13C10.9792 13.8542 10.6875 14.5625 10.125 15.125C9.5625 15.6875 8.85417 15.9792 8 16C7.14583 15.9792 6.4375 15.6875 5.875 15.125C5.3125 14.5625 5.02083 13.8542 5 13V11C5.02083 10.1458 5.3125 9.4375 5.875 8.875C6.4375 8.3125 7.14583 8.02083 8 8ZM6.5 11V13C6.52083 13.4167 6.66667 13.7708 6.9375 14.0625C7.22917 14.3333 7.58333 14.4792 8 14.5C8.41667 14.4792 8.77083 14.3333 9.0625 14.0625C9.33333 13.7708 9.47917 13.4167 9.5 13V11C9.47917 10.5833 9.33333 10.2292 9.0625 9.9375C8.77083 9.66667 8.41667 9.52083 8 9.5C7.58333 9.52083 7.22917 9.66667 6.9375 9.9375C6.66667 10.2292 6.52083 10.5833 6.5 11Z" fill="black" fill-opacity="0.72"/>
</g>
<defs>
<clipPath id="clip0_1731_3608">
<rect width="16" height="24" fill="white"/>
</clipPath>
</defs>
</svg>
