<svg width="11" height="18" viewBox="0 0 11 18" fill="none" xmlns="http://www.w3.org/2000/svg">
<g id="label-paired / caption / bars-filter-caption / bold" clip-path="url(#clip0_1731_1153)">
<path id="icon" d="M0.25 5.5625C0.28125 5.21875 0.46875 5.03125 0.8125 5H10.1875C10.5312 5.03125 10.7188 5.21875 10.75 5.5625C10.7188 5.90625 10.5312 6.09375 10.1875 6.125H0.8125C0.46875 6.09375 0.28125 5.90625 0.25 5.5625ZM1.75 9.3125C1.78125 8.96875 1.96875 8.78125 2.3125 8.75H8.6875C9.03125 8.78125 9.21875 8.96875 9.25 9.3125C9.21875 9.65625 9.03125 9.84375 8.6875 9.875H2.3125C1.96875 9.84375 1.78125 9.65625 1.75 9.3125ZM7 13.0625C6.96875 13.4062 6.78125 13.5938 6.4375 13.625H4.5625C4.21875 13.5938 4.03125 13.4062 4 13.0625C4.03125 12.7188 4.21875 12.5312 4.5625 12.5H6.4375C6.78125 12.5312 6.96875 12.7188 7 13.0625Z" fill="black" fill-opacity="0.72"/>
</g>
<defs>
<clipPath id="clip0_1731_1153">
<rect width="11" height="18" fill="white"/>
</clipPath>
</defs>
</svg>
