<svg width="9" height="22" viewBox="0 0 9 22" fill="none" xmlns="http://www.w3.org/2000/svg">
<g id="label-paired / sm / five-sm / bold" clip-path="url(#clip0_1731_2275)">
<path id="icon" d="M1 5.17188C1.09115 4.82552 1.3099 4.64323 1.65625 4.625H7.34375C7.74479 4.66146 7.96354 4.88021 8 5.28125C7.96354 5.68229 7.74479 5.90104 7.34375 5.9375H2.20312L1.57422 9.65625H5.26562C6.28646 9.67448 7.13411 10.0299 7.80859 10.7227C8.5013 11.3971 8.85677 12.2448 8.875 13.2656C8.85677 14.2865 8.5013 15.1341 7.80859 15.8086C7.13411 16.5013 6.28646 16.8568 5.26562 16.875H2.66797C2.15755 16.875 1.69271 16.7474 1.27344 16.4922C0.854167 16.237 0.535156 15.8815 0.316406 15.4258L0.179688 15.207C0.0520833 14.8242 0.152344 14.5234 0.480469 14.3047C0.863281 14.1771 1.15495 14.2773 1.35547 14.6055L1.49219 14.8242C1.7474 15.2982 2.13932 15.5443 2.66797 15.5625H5.26562C5.92188 15.5443 6.45964 15.3164 6.87891 14.8789C7.31641 14.4596 7.54427 13.9219 7.5625 13.2656C7.54427 12.6094 7.31641 12.0716 6.87891 11.6523C6.45964 11.2148 5.92188 10.987 5.26562 10.9688H0.78125C0.580729 10.9688 0.416667 10.8867 0.289062 10.7227C0.161458 10.5768 0.106771 10.4036 0.125 10.2031L1 5.17188Z" fill="black" fill-opacity="0.72"/>
</g>
<defs>
<clipPath id="clip0_1731_2275">
<rect width="9" height="22" fill="white"/>
</clipPath>
</defs>
</svg>
