<svg width="12" height="24" viewBox="0 0 12 24" fill="none" xmlns="http://www.w3.org/2000/svg">
<g id="label-paired / md / arrow-down-md / bold" clip-path="url(#clip0_1731_3357)">
<path id="icon" d="M5.46875 18.7812L0.21875 13.2812C-0.0729167 12.9062 -0.0625 12.5521 0.25 12.2188C0.604167 11.9271 0.947917 11.9271 1.28125 12.2188L5.25 16.375V5.75C5.29167 5.29167 5.54167 5.04167 6 5C6.45833 5.04167 6.70833 5.29167 6.75 5.75V16.375L10.7188 12.25C11.0521 11.9375 11.4062 11.9271 11.7812 12.2188C12.0729 12.5521 12.0729 12.9062 11.7812 13.2812L6.53125 18.7812C6.38542 18.9271 6.20833 19 6 19C5.79167 19 5.61458 18.9271 5.46875 18.7812Z" fill="black" fill-opacity="0.72"/>
</g>
<defs>
<clipPath id="clip0_1731_3357">
<rect width="12" height="24" fill="white"/>
</clipPath>
</defs>
</svg>
