<svg width="25" height="30" viewBox="0 0 25 30" fill="none" xmlns="http://www.w3.org/2000/svg">
<g id="label-paired / lg / signal-lg / regular" clip-path="url(#clip0_1731_4821)">
<path id="icon" d="M23.125 6.125V24.875C23.099 25.2656 22.8906 25.474 22.5 25.5C22.1094 25.474 21.901 25.2656 21.875 24.875V6.125C21.901 5.73438 22.1094 5.52604 22.5 5.5C22.8906 5.52604 23.099 5.73438 23.125 6.125ZM17.5 9.25C17.8906 9.27604 18.099 9.48438 18.125 9.875V24.875C18.099 25.2656 17.8906 25.474 17.5 25.5C17.1094 25.474 16.901 25.2656 16.875 24.875V9.875C16.901 9.48438 17.1094 9.27604 17.5 9.25ZM13.125 13.625V24.875C13.099 25.2656 12.8906 25.474 12.5 25.5C12.1094 25.474 11.901 25.2656 11.875 24.875V13.625C11.901 13.2344 12.1094 13.026 12.5 13C12.8906 13.026 13.099 13.2344 13.125 13.625ZM7.5 16.75C7.89062 16.776 8.09896 16.9844 8.125 17.375V24.875C8.09896 25.2656 7.89062 25.474 7.5 25.5C7.10938 25.474 6.90104 25.2656 6.875 24.875V17.375C6.90104 16.9844 7.10938 16.776 7.5 16.75ZM2.5 20.5C2.89062 20.526 3.09896 20.7344 3.125 21.125V24.875C3.09896 25.2656 2.89062 25.474 2.5 25.5C2.10938 25.474 1.90104 25.2656 1.875 24.875V21.125C1.90104 20.7344 2.10938 20.526 2.5 20.5Z" fill="black" fill-opacity="0.72"/>
</g>
<defs>
<clipPath id="clip0_1731_4821">
<rect width="25" height="30" fill="white"/>
</clipPath>
</defs>
</svg>
