<svg width="21" height="36" viewBox="0 0 21 36" fill="none" xmlns="http://www.w3.org/2000/svg">
<g id="label-paired / xl / linkedin-xl" clip-path="url(#clip0_1731_14140)">
<path id="icon" d="M19.5 7.5C19.9375 7.5 20.2969 7.64062 20.5781 7.92188C20.8594 8.23438 21 8.59375 21 9V27C21 27.4062 20.8594 27.7656 20.5781 28.0781C20.2969 28.3594 19.9375 28.5 19.5 28.5H1.5C1.0625 28.5 0.703125 28.3594 0.421875 28.0781C0.140625 27.7656 0 27.4062 0 27V9C0 8.59375 0.140625 8.23438 0.421875 7.92188C0.703125 7.64062 1.0625 7.5 1.5 7.5H19.5ZM6.32812 25.5H6.375V15.4688H3.23438V25.5H6.32812ZM4.78125 14.1094C5.3125 14.1094 5.73438 13.9375 6.04688 13.5938C6.39062 13.25 6.57812 12.8281 6.60938 12.3281C6.57812 11.7969 6.39062 11.3594 6.04688 11.0156C5.73438 10.6719 5.3125 10.5 4.78125 10.5C4.28125 10.5 3.85938 10.6719 3.51562 11.0156C3.17188 11.3594 3 11.7969 3 12.3281C3 12.8281 3.17188 13.25 3.51562 13.5938C3.85938 13.9375 4.28125 14.1094 4.78125 14.1094ZM18 25.5V20.0156C18.0625 18.6406 17.8438 17.5 17.3438 16.5938C16.8438 15.7188 15.8281 15.2656 14.2969 15.2344C13.5156 15.2344 12.875 15.4062 12.375 15.75C11.875 16.0625 11.5312 16.4219 11.3438 16.8281H11.2969V15.4688H8.29688V25.5H11.4375V20.5312C11.4062 19.8438 11.5 19.25 11.7188 18.75C11.9688 18.25 12.4844 17.9844 13.2656 17.9531C14.0469 18.0156 14.5156 18.3125 14.6719 18.8438C14.8594 19.4062 14.9375 20 14.9062 20.625V25.5H18Z" fill="black" fill-opacity="0.72"/>
</g>
<defs>
<clipPath id="clip0_1731_14140">
<rect width="21" height="36" fill="white"/>
</clipPath>
</defs>
</svg>
