<svg width="27" height="36" viewBox="0 0 27 36" fill="none" xmlns="http://www.w3.org/2000/svg">
<g id="label-paired / xl / video-xl / regular" clip-path="url(#clip0_1731_6596)">
<path id="icon" d="M3 10.5C2.5625 10.5 2.20312 10.6406 1.92188 10.9219C1.64062 11.2031 1.5 11.5625 1.5 12V24C1.5 24.4375 1.64062 24.7969 1.92188 25.0781C2.20312 25.3594 2.5625 25.5 3 25.5H15C15.4375 25.5 15.7969 25.3594 16.0781 25.0781C16.3594 24.7969 16.5 24.4375 16.5 24V12C16.5 11.5625 16.3594 11.2031 16.0781 10.9219C15.7969 10.6406 15.4375 10.5 15 10.5H3ZM0 12C0.03125 11.1562 0.328125 10.4531 0.890625 9.89062C1.45312 9.32812 2.15625 9.03125 3 9H15C15.8438 9.03125 16.5469 9.32812 17.1094 9.89062C17.6719 10.4531 17.9688 11.1562 18 12V14.2031V21.7969V24C17.9688 24.8438 17.6719 25.5469 17.1094 26.1094C16.5469 26.6719 15.8438 26.9688 15 27H3C2.15625 26.9688 1.45312 26.6719 0.890625 26.1094C0.328125 25.5469 0.03125 24.8438 0 24V12ZM24.3281 25.2656L19.5 22.5938V20.9062L25.0781 23.9531C25.1094 23.9844 25.1562 24 25.2188 24C25.375 24 25.4688 23.9062 25.5 23.7188V12.2812C25.4688 12.125 25.375 12.0312 25.2188 12C25.1562 12 25.1094 12.0156 25.0781 12.0469L19.5 15.0938V13.4062L24.3281 10.7344C24.6094 10.5781 24.9062 10.5 25.2188 10.5C25.7188 10.5 26.1406 10.6719 26.4844 11.0156C26.8281 11.3594 27 11.7812 27 12.2812V23.7188C27 24.2188 26.8281 24.6406 26.4844 24.9844C26.1406 25.3281 25.7188 25.5 25.2188 25.5C24.9062 25.5 24.6094 25.4219 24.3281 25.2656Z" fill="black" fill-opacity="0.72"/>
</g>
<defs>
<clipPath id="clip0_1731_6596">
<rect width="27" height="36" fill="white"/>
</clipPath>
</defs>
</svg>
