<svg width="12" height="18" viewBox="0 0 12 18" fill="none" xmlns="http://www.w3.org/2000/svg">
<g id="label-paired / caption / wallet-caption / regular" clip-path="url(#clip0_1731_1662)">
<path id="icon" d="M1.875 4.25H10.875C11.1094 4.26562 11.2344 4.39062 11.25 4.625C11.2344 4.85938 11.1094 4.98438 10.875 5H1.875C1.5625 5.01562 1.29688 5.125 1.07812 5.32812C0.875 5.54688 0.765625 5.8125 0.75 6.125V12.875C0.765625 13.1875 0.875 13.4531 1.07812 13.6719C1.29688 13.875 1.5625 13.9844 1.875 14H10.125C10.4375 13.9844 10.7031 13.875 10.9219 13.6719C11.125 13.4531 11.2344 13.1875 11.25 12.875V7.625C11.2344 7.3125 11.125 7.04688 10.9219 6.82812C10.7031 6.625 10.4375 6.51562 10.125 6.5H2.625C2.39062 6.48438 2.26562 6.35938 2.25 6.125C2.26562 5.89062 2.39062 5.76562 2.625 5.75H10.125C10.6562 5.76562 11.1016 5.94531 11.4609 6.28906C11.8047 6.64844 11.9844 7.09375 12 7.625V12.875C11.9844 13.4062 11.8047 13.8516 11.4609 14.2109C11.1016 14.5547 10.6562 14.7344 10.125 14.75H1.875C1.34375 14.7344 0.898438 14.5547 0.539062 14.2109C0.195312 13.8516 0.015625 13.4062 0 12.875V6.125C0.015625 5.59375 0.195312 5.14844 0.539062 4.78906C0.898438 4.44531 1.34375 4.26562 1.875 4.25ZM9 10.8125C8.65625 10.7812 8.46875 10.5938 8.4375 10.25C8.46875 9.90625 8.65625 9.71875 9 9.6875C9.34375 9.71875 9.53125 9.90625 9.5625 10.25C9.53125 10.5938 9.34375 10.7812 9 10.8125Z" fill="black" fill-opacity="0.72"/>
</g>
<defs>
<clipPath id="clip0_1731_1662">
<rect width="12" height="18" fill="white"/>
</clipPath>
</defs>
</svg>
