<svg width="14" height="22" viewBox="0 0 14 22" fill="none" xmlns="http://www.w3.org/2000/svg">
<g id="label-paired / sm / circle-nine-sm / regular" clip-path="url(#clip0_1731_2343)">
<path id="icon" d="M13.125 10.75C13.1068 9.63802 12.8333 8.61719 12.3047 7.6875C11.7578 6.75781 11.0104 6.01042 10.0625 5.44531C9.09635 4.89844 8.07552 4.625 7 4.625C5.92448 4.625 4.90365 4.89844 3.9375 5.44531C2.98958 6.01042 2.24219 6.75781 1.69531 7.6875C1.16667 8.61719 0.893229 9.63802 0.875 10.75C0.893229 11.862 1.16667 12.8828 1.69531 13.8125C2.24219 14.7422 2.98958 15.4896 3.9375 16.0547C4.90365 16.6016 5.92448 16.875 7 16.875C8.07552 16.875 9.09635 16.6016 10.0625 16.0547C11.0104 15.4896 11.7578 14.7422 12.3047 13.8125C12.8333 12.8828 13.1068 11.862 13.125 10.75ZM0 10.75C0.0182292 9.47396 0.328125 8.30729 0.929688 7.25C1.54948 6.19271 2.40625 5.33594 3.5 4.67969C4.61198 4.0599 5.77865 3.75 7 3.75C8.22135 3.75 9.38802 4.0599 10.5 4.67969C11.5938 5.33594 12.4505 6.19271 13.0703 7.25C13.6719 8.30729 13.9818 9.47396 14 10.75C13.9818 12.026 13.6719 13.1927 13.0703 14.25C12.4505 15.3073 11.5938 16.1641 10.5 16.8203C9.38802 17.4401 8.22135 17.75 7 17.75C5.77865 17.75 4.61198 17.4401 3.5 16.8203C2.40625 16.1641 1.54948 15.3073 0.929688 14.25C0.328125 13.1927 0.0182292 12.026 0 10.75ZM7 8.125C6.34375 8.14323 5.84245 8.4349 5.49609 9C5.16797 9.58333 5.16797 10.1667 5.49609 10.75C5.84245 11.3151 6.34375 11.6068 7 11.625C7.65625 11.6068 8.15755 11.3151 8.50391 10.75C8.83203 10.1667 8.83203 9.58333 8.50391 9C8.15755 8.4349 7.65625 8.14323 7 8.125ZM6.89062 12.5C6.17969 12.4635 5.58724 12.1992 5.11328 11.707C4.63932 11.2148 4.39323 10.6042 4.375 9.875C4.39323 9.1276 4.64844 8.50781 5.14062 8.01562C5.63281 7.52344 6.2526 7.26823 7 7.25C7.7474 7.26823 8.36719 7.52344 8.85938 8.01562C9.35156 8.50781 9.60677 9.1276 9.625 9.875C9.60677 10.7318 9.29688 11.4518 8.69531 12.0352L6.42578 14.1406C6.20703 14.3047 5.9974 14.2956 5.79688 14.1133C5.63281 13.8945 5.64193 13.6849 5.82422 13.4844L6.89062 12.5Z" fill="black" fill-opacity="0.72"/>
</g>
<defs>
<clipPath id="clip0_1731_2343">
<rect width="14" height="22" fill="white"/>
</clipPath>
</defs>
</svg>
