<svg width="8" height="30" viewBox="0 0 8 30" fill="none" xmlns="http://www.w3.org/2000/svg">
<g id="label-paired / lg / info-lg / regular" clip-path="url(#clip0_1731_5104)">
<path id="icon" d="M2.75 8C2.75 7.63542 2.86719 7.33594 3.10156 7.10156C3.33594 6.86719 3.63542 6.75 4 6.75C4.36458 6.75 4.66406 6.86719 4.89844 7.10156C5.13281 7.33594 5.25 7.63542 5.25 8C5.25 8.36458 5.13281 8.66406 4.89844 8.89844C4.66406 9.13281 4.36458 9.25 4 9.25C3.63542 9.25 3.33594 9.13281 3.10156 8.89844C2.86719 8.66406 2.75 8.36458 2.75 8ZM0.875 12.375C0.901042 11.9844 1.10938 11.776 1.5 11.75H4C4.39062 11.776 4.59896 11.9844 4.625 12.375V23H7.125C7.51562 23.026 7.72396 23.2344 7.75 23.625C7.72396 24.0156 7.51562 24.224 7.125 24.25H0.875C0.484375 24.224 0.276042 24.0156 0.25 23.625C0.276042 23.2344 0.484375 23.026 0.875 23H3.375V13H1.5C1.10938 12.974 0.901042 12.7656 0.875 12.375Z" fill="black" fill-opacity="0.72"/>
</g>
<defs>
<clipPath id="clip0_1731_5104">
<rect width="8" height="30" fill="white"/>
</clipPath>
</defs>
</svg>
