<svg width="18" height="22" viewBox="0 0 18 22" fill="none" xmlns="http://www.w3.org/2000/svg">
<g id="label-paired / sm / eye-slash-sm / bold" clip-path="url(#clip0_1731_1889)">
<path id="icon" d="M1.31641 3.88672L4.37891 6.29297C4.98047 5.80078 5.66406 5.39974 6.42969 5.08984C7.21354 4.79818 8.07031 4.64323 9 4.625C10.112 4.64323 11.1055 4.86198 11.9805 5.28125C12.8555 5.70052 13.6211 6.22005 14.2773 6.83984C14.9154 7.44141 15.444 8.0612 15.8633 8.69922C16.2826 9.33724 16.6016 9.91146 16.8203 10.4219C16.8932 10.6406 16.8932 10.8594 16.8203 11.0781C16.6198 11.5339 16.3372 12.0443 15.9727 12.6094C15.6081 13.1927 15.1615 13.7669 14.6328 14.332L17.5039 16.5742C17.7956 16.8477 17.832 17.1576 17.6133 17.5039C17.3398 17.7956 17.0299 17.832 16.6836 17.6133L0.496094 4.92578C0.204427 4.65234 0.167969 4.34245 0.386719 3.99609C0.660156 3.70443 0.970052 3.66797 1.31641 3.88672ZM5.44531 7.11328L6.70312 8.09766C7.34115 7.55078 8.10677 7.26823 9 7.25C9.98438 7.26823 10.8138 7.60547 11.4883 8.26172C12.1445 8.9362 12.4818 9.76562 12.5 10.75C12.5 11.3333 12.3724 11.8711 12.1172 12.3633L13.5938 13.5117C14.0495 13.0378 14.4414 12.5547 14.7695 12.0625C15.0977 11.5703 15.3529 11.1328 15.5352 10.75C15.3346 10.3307 15.0612 9.85677 14.7148 9.32812C14.3503 8.79948 13.9036 8.28906 13.375 7.79688C12.8099 7.25 12.1628 6.8125 11.4336 6.48438C10.7044 6.13802 9.89323 5.95573 9 5.9375C7.61458 5.97396 6.42969 6.36589 5.44531 7.11328ZM11.0508 11.5156C11.1419 11.2786 11.1875 11.0234 11.1875 10.75C11.1693 10.1302 10.9596 9.61068 10.5586 9.19141C10.1393 8.79036 9.61979 8.58073 9 8.5625C8.98177 8.5625 8.96354 8.5625 8.94531 8.5625C8.98177 8.70833 9 8.85417 9 9C9 9.27344 8.9362 9.52865 8.80859 9.76562L11.0508 11.5156ZM11.2969 15.0977L12.4453 16C11.4609 16.5469 10.3125 16.8385 9 16.875C7.88802 16.8568 6.89453 16.638 6.01953 16.2188C5.14453 15.7995 4.38802 15.2799 3.75 14.6602C3.09375 14.0586 2.55599 13.4388 2.13672 12.8008C1.71745 12.1628 1.40755 11.5885 1.20703 11.0781C1.11589 10.8594 1.11589 10.6406 1.20703 10.4219C1.46224 9.76562 1.89974 9.01823 2.51953 8.17969L3.55859 8.97266C3.06641 9.62891 2.70182 10.2214 2.46484 10.75C2.66536 11.1693 2.9388 11.6432 3.28516 12.1719C3.64974 12.7005 4.09635 13.2109 4.625 13.7031C5.1901 14.25 5.83724 14.6875 6.56641 15.0156C7.29557 15.362 8.10677 15.5443 9 15.5625C9.83854 15.5443 10.6042 15.3893 11.2969 15.0977ZM5.5 10.75C5.5 10.6771 5.5 10.6042 5.5 10.5312L7.03125 11.7344C7.34115 12.3359 7.83333 12.7188 8.50781 12.8828L10.0391 14.0859C9.71094 14.1953 9.36458 14.25 9 14.25C8.01562 14.2318 7.1862 13.8945 6.51172 13.2383C5.85547 12.5638 5.51823 11.7344 5.5 10.75Z" fill="black" fill-opacity="0.72"/>
</g>
<defs>
<clipPath id="clip0_1731_1889">
<rect width="18" height="22" fill="white"/>
</clipPath>
</defs>
</svg>
