<svg width="20" height="30" viewBox="0 0 20 30" fill="none" xmlns="http://www.w3.org/2000/svg">
<g id="label-paired / lg / circle-dollar-lg / bold" clip-path="url(#clip0_1731_5172)">
<path id="icon" d="M18.125 15.5C18.125 14.0156 17.7604 12.6615 17.0312 11.4375C16.3281 10.2135 15.3385 9.22396 14.0625 8.46875C12.7865 7.73958 11.4323 7.375 10 7.375C8.56771 7.375 7.21354 7.73958 5.9375 8.46875C4.66146 9.22396 3.67188 10.2135 2.96875 11.4375C2.23958 12.6615 1.875 14.0156 1.875 15.5C1.875 16.9844 2.23958 18.3385 2.96875 19.5625C3.67188 20.7865 4.66146 21.776 5.9375 22.5312C7.21354 23.2604 8.56771 23.625 10 23.625C11.4323 23.625 12.7865 23.2604 14.0625 22.5312C15.3385 21.776 16.3281 20.7865 17.0312 19.5625C17.7604 18.3385 18.125 16.9844 18.125 15.5ZM0 15.5C0.0260417 13.6771 0.46875 12.0104 1.32812 10.5C2.21354 8.98958 3.4375 7.76562 5 6.82812C6.58854 5.94271 8.25521 5.5 10 5.5C11.7448 5.5 13.4115 5.94271 15 6.82812C16.5625 7.76562 17.7865 8.98958 18.6719 10.5C19.5312 12.0104 19.974 13.6771 20 15.5C19.974 17.3229 19.5312 18.9896 18.6719 20.5C17.7865 22.0104 16.5625 23.2344 15 24.1719C13.4115 25.0573 11.7448 25.5 10 25.5C8.25521 25.5 6.58854 25.0573 5 24.1719C3.4375 23.2344 2.21354 22.0104 1.32812 20.5C0.46875 18.9896 0.0260417 17.3229 0 15.5ZM10.8203 10.7344V11.2812C11.1849 11.3333 11.5625 11.4115 11.9531 11.5156C12.0312 11.5417 12.0964 11.5677 12.1484 11.5938C12.6432 11.776 12.8516 12.1276 12.7734 12.6484C12.5651 13.1172 12.2135 13.3125 11.7188 13.2344C11.6927 13.2083 11.6667 13.1953 11.6406 13.1953C11.5885 13.1953 11.5495 13.1823 11.5234 13.1562C11.263 13.0781 10.9896 13.013 10.7031 12.9609C10.1562 12.8568 9.6224 12.9089 9.10156 13.1172C8.86719 13.2214 8.71094 13.3646 8.63281 13.5469C8.52865 13.7292 8.59375 13.9115 8.82812 14.0938C9.21875 14.3021 9.63542 14.4583 10.0781 14.5625C10.1042 14.5625 10.1172 14.5625 10.1172 14.5625C10.1693 14.5885 10.2214 14.6016 10.2734 14.6016C10.2995 14.6276 10.3385 14.6406 10.3906 14.6406C11.0677 14.7969 11.7188 15.0573 12.3438 15.4219C13.125 15.9948 13.4375 16.75 13.2812 17.6875C13.0729 18.5729 12.5781 19.1589 11.7969 19.4453C11.4844 19.5755 11.1589 19.6536 10.8203 19.6797V20.3047C10.7682 20.7995 10.4818 21.0729 9.96094 21.125C9.46615 21.0729 9.19271 20.7995 9.14062 20.3047V19.6016C8.56771 19.4714 8.00781 19.3151 7.46094 19.1328C6.99219 18.9245 6.8099 18.5599 6.91406 18.0391C7.1224 17.5703 7.47396 17.401 7.96875 17.5312C8.02083 17.5312 8.07292 17.5443 8.125 17.5703C8.17708 17.5703 8.22917 17.5833 8.28125 17.6094C8.72396 17.7656 9.16667 17.8958 9.60938 18C10.2865 18.0781 10.8073 18.0391 11.1719 17.8828C11.4062 17.7786 11.5625 17.6224 11.6406 17.4141C11.6927 17.1797 11.6146 16.9844 11.4062 16.8281C10.9896 16.5677 10.5339 16.3984 10.0391 16.3203C9.96094 16.2943 9.88281 16.2682 9.80469 16.2422C9.77865 16.2161 9.76562 16.2031 9.76562 16.2031C9.11458 16.0729 8.48958 15.8385 7.89062 15.5C7.10938 14.9792 6.78385 14.25 6.91406 13.3125C7.14844 12.4531 7.65625 11.8672 8.4375 11.5547C8.64583 11.4766 8.88021 11.4115 9.14062 11.3594V10.7344C9.19271 10.2135 9.46615 9.92708 9.96094 9.875C10.4818 9.92708 10.7682 10.2135 10.8203 10.7344Z" fill="black" fill-opacity="0.72"/>
</g>
<defs>
<clipPath id="clip0_1731_5172">
<rect width="20" height="30" fill="white"/>
</clipPath>
</defs>
</svg>
