<svg width="9" height="18" viewBox="0 0 9 18" fill="none" xmlns="http://www.w3.org/2000/svg">
<g id="label-paired / caption / file-invoice-dollar-caption / bold" clip-path="url(#clip0_1731_1518)">
<path id="icon" d="M7.875 14V7.25H6C5.78125 7.25 5.60156 7.17969 5.46094 7.03906C5.32031 6.89844 5.25 6.71875 5.25 6.5V4.625H1.5C1.26562 4.64062 1.14062 4.76562 1.125 5V14C1.14062 14.2344 1.26562 14.3594 1.5 14.375H7.5C7.73438 14.3594 7.85938 14.2344 7.875 14ZM0 5C0.015625 4.57812 0.164062 4.22656 0.445312 3.94531C0.726562 3.66406 1.07812 3.51563 1.5 3.5H5.39062C5.79688 3.5 6.14844 3.64844 6.44531 3.94531L8.55469 6.05469C8.85156 6.35156 9 6.71094 9 7.13281V14C8.98438 14.4219 8.83594 14.7734 8.55469 15.0547C8.27344 15.3359 7.92188 15.4844 7.5 15.5H1.5C1.07812 15.4844 0.726562 15.3359 0.445312 15.0547C0.164062 14.7734 0.015625 14.4219 0 14V5ZM4.5 8.5625C4.78125 8.57812 4.9375 8.73438 4.96875 9.03125V9.26562C5.14062 9.28125 5.30469 9.3125 5.46094 9.35938C5.72656 9.45312 5.84375 9.64062 5.8125 9.92188C5.71875 10.1875 5.52344 10.3047 5.22656 10.2734C4.97656 10.2109 4.73438 10.1719 4.5 10.1562C4.29688 10.1562 4.11719 10.1953 3.96094 10.2734C3.86719 10.3359 3.82812 10.3828 3.84375 10.4141C3.84375 10.4297 3.875 10.4531 3.9375 10.4844C4.09375 10.5625 4.3125 10.6328 4.59375 10.6953C4.60938 10.7109 4.61719 10.7188 4.61719 10.7188H4.64062C4.92188 10.7812 5.21094 10.8828 5.50781 11.0234C5.64844 11.1016 5.78125 11.2188 5.90625 11.375C6.01562 11.5156 6.07812 11.7031 6.09375 11.9375C6.0625 12.4219 5.85938 12.7578 5.48438 12.9453C5.32812 13.0391 5.15625 13.1016 4.96875 13.1328V13.3672C4.9375 13.6484 4.78125 13.8047 4.5 13.8359C4.21875 13.8047 4.0625 13.6484 4.03125 13.3672V13.1094C3.8125 13.0625 3.60938 13.0078 3.42188 12.9453C3.40625 12.9453 3.39062 12.9375 3.375 12.9219C3.34375 12.9219 3.32031 12.9141 3.30469 12.8984C3.27344 12.8984 3.25 12.8984 3.23438 12.8984C2.96875 12.7891 2.86719 12.5938 2.92969 12.3125C3.03906 12.0469 3.23438 11.9375 3.51562 11.9844C3.54688 12 3.58594 12.0156 3.63281 12.0312C3.64844 12.0312 3.66406 12.0312 3.67969 12.0312C3.97656 12.1406 4.25781 12.2031 4.52344 12.2188C4.74219 12.2188 4.91406 12.1875 5.03906 12.125C5.13281 12.0625 5.17188 12.0078 5.15625 11.9609C5.17188 11.9453 5.13281 11.9062 5.03906 11.8438C4.88281 11.7656 4.66406 11.6875 4.38281 11.6094H4.33594C4.05469 11.5469 3.78125 11.4453 3.51562 11.3047C3.35938 11.2266 3.21875 11.1172 3.09375 10.9766C2.98438 10.8359 2.92188 10.6484 2.90625 10.4141C2.90625 10.1641 2.96875 9.96094 3.09375 9.80469C3.21875 9.63281 3.36719 9.50781 3.53906 9.42969C3.69531 9.35156 3.85938 9.29688 4.03125 9.26562V9.03125C4.0625 8.73438 4.21875 8.57812 4.5 8.5625ZM2.25 5.75H4.125C4.35938 5.76562 4.48438 5.89062 4.5 6.125C4.48438 6.35938 4.35938 6.48438 4.125 6.5H2.25C2.01562 6.48438 1.89062 6.35938 1.875 6.125C1.89062 5.89062 2.01562 5.76562 2.25 5.75ZM2.25 7.25H4.125C4.35938 7.26562 4.48438 7.39062 4.5 7.625C4.48438 7.85938 4.35938 7.98438 4.125 8H2.25C2.01562 7.98438 1.89062 7.85938 1.875 7.625C1.89062 7.39062 2.01562 7.26562 2.25 7.25Z" fill="black" fill-opacity="0.72"/>
</g>
<defs>
<clipPath id="clip0_1731_1518">
<rect width="9" height="18" fill="white"/>
</clipPath>
</defs>
</svg>
