<svg width="24" height="36" viewBox="0 0 24 36" fill="none" xmlns="http://www.w3.org/2000/svg">
<g id="label-paired / xl / chart-mixed-xl / regular" clip-path="url(#clip0_1731_6273)">
<path id="icon" d="M23.8125 7.73438C24.0938 8.10938 24.0781 8.46875 23.7656 8.8125L15.5156 16.3125C15.1719 16.5625 14.8281 16.5469 14.4844 16.2656L8.90625 10.7344L1.17188 16.3594C0.796875 16.5781 0.453125 16.5156 0.140625 16.1719C-0.078125 15.7969 -0.015625 15.4531 0.328125 15.1406L8.57812 9.14062C8.92188 8.92188 9.23438 8.95312 9.51562 9.23438L15.0469 14.7188L22.7344 7.6875C23.1094 7.40625 23.4688 7.42187 23.8125 7.73438ZM3.75 26.25V23.25C3.71875 22.7812 3.46875 22.5312 3 22.5C2.53125 22.5312 2.28125 22.7812 2.25 23.25V26.25C2.28125 26.7188 2.53125 26.9688 3 27C3.46875 26.9688 3.71875 26.7188 3.75 26.25ZM3 21C3.625 21.0312 4.15625 21.25 4.59375 21.6562C5 22.0938 5.21875 22.625 5.25 23.25V26.25C5.21875 26.875 5 27.4062 4.59375 27.8438C4.15625 28.25 3.625 28.4688 3 28.5C2.375 28.4688 1.84375 28.25 1.40625 27.8438C1 27.4062 0.78125 26.875 0.75 26.25V23.25C0.78125 22.625 1 22.0938 1.40625 21.6562C1.84375 21.25 2.375 21.0312 3 21ZM9.75 18.75C9.71875 18.2812 9.46875 18.0312 9 18C8.53125 18.0312 8.28125 18.2812 8.25 18.75V26.25C8.28125 26.7188 8.53125 26.9688 9 27C9.46875 26.9688 9.71875 26.7188 9.75 26.25V18.75ZM6.75 18.75C6.78125 18.125 7 17.5938 7.40625 17.1562C7.84375 16.75 8.375 16.5312 9 16.5C9.625 16.5312 10.1562 16.75 10.5938 17.1562C11 17.5938 11.2188 18.125 11.25 18.75V26.25C11.2188 26.875 11 27.4062 10.5938 27.8438C10.1562 28.25 9.625 28.4688 9 28.5C8.375 28.4688 7.84375 28.25 7.40625 27.8438C7 27.4062 6.78125 26.875 6.75 26.25V18.75ZM15.75 26.25V21.75C15.7188 21.2812 15.4688 21.0312 15 21C14.5312 21.0312 14.2812 21.2812 14.25 21.75V26.25C14.2812 26.7188 14.5312 26.9688 15 27C15.4688 26.9688 15.7188 26.7188 15.75 26.25ZM15 19.5C15.625 19.5312 16.1562 19.75 16.5938 20.1562C17 20.5938 17.2188 21.125 17.25 21.75V26.25C17.2188 26.875 17 27.4062 16.5938 27.8438C16.1562 28.25 15.625 28.4688 15 28.5C14.375 28.4688 13.8438 28.25 13.4062 27.8438C13 27.4062 12.7812 26.875 12.75 26.25V21.75C12.7812 21.125 13 20.5938 13.4062 20.1562C13.8438 19.75 14.375 19.5312 15 19.5ZM21.75 18.75C21.7188 18.2812 21.4688 18.0312 21 18C20.5312 18.0312 20.2812 18.2812 20.25 18.75V26.25C20.2812 26.7188 20.5312 26.9688 21 27C21.4688 26.9688 21.7188 26.7188 21.75 26.25V18.75ZM18.75 18.75C18.7812 18.125 19 17.5938 19.4062 17.1562C19.8438 16.75 20.375 16.5312 21 16.5C21.625 16.5312 22.1562 16.75 22.5938 17.1562C23 17.5938 23.2188 18.125 23.25 18.75V26.25C23.2188 26.875 23 27.4062 22.5938 27.8438C22.1562 28.25 21.625 28.4688 21 28.5C20.375 28.4688 19.8438 28.25 19.4062 27.8438C19 27.4062 18.7812 26.875 18.75 26.25V18.75Z" fill="black" fill-opacity="0.72"/>
</g>
<defs>
<clipPath id="clip0_1731_6273">
<rect width="24" height="36" fill="white"/>
</clipPath>
</defs>
</svg>
