<svg width="30" height="36" viewBox="0 0 30 36" fill="none" xmlns="http://www.w3.org/2000/svg">
<g id="label-paired / xl / chart-trend-down-xl / bold" clip-path="url(#clip0_1885_592)">
<path id="icon" d="M28.9688 29.5312C28.4062 29.8125 27.75 29.5781 27.4688 29.0156L23.2969 20.625H16.5C16.0312 20.625 15.6562 20.3906 15.4688 20.0156L9.98438 9.04688L1.96875 13.0312C1.40625 13.3125 0.75 13.0781 0.46875 12.5156C0.1875 11.9531 0.421875 11.2969 0.984375 11.0156L9.98438 6.51562C10.5469 6.23438 11.2031 6.46875 11.4844 7.03125L17.1562 18.375H23.9531C24.4219 18.375 24.7969 18.6562 24.9844 19.0312L29.4844 28.0312C29.7656 28.5938 29.5312 29.25 28.9688 29.5312Z" fill="black" fill-opacity="0.72"/>
</g>
<defs>
<clipPath id="clip0_1885_592">
<rect width="30" height="36" fill="white"/>
</clipPath>
</defs>
</svg>
