<svg width="12" height="18" viewBox="0 0 12 18" fill="none" xmlns="http://www.w3.org/2000/svg">
<g id="label-paired / caption / forward-caption / bold" clip-path="url(#clip0_1731_1538)">
<path id="icon" d="M5.25 5.70312C5.25 5.5 5.32031 5.33594 5.46094 5.21094C5.58594 5.07031 5.75 5 5.95312 5C6.10938 5 6.25 5.04688 6.375 5.14062L11.7656 9.05469C11.9219 9.16406 12 9.3125 12 9.5C12 9.6875 11.9219 9.83594 11.7656 9.94531L6.375 13.8594C6.25 13.9531 6.10938 14 5.95312 14C5.75 14 5.58594 13.9297 5.46094 13.7891C5.32031 13.6641 5.25 13.5 5.25 13.2969V10.9766L1.10156 13.8828C0.976562 13.9609 0.84375 14 0.703125 14C0.5 14 0.335938 13.9297 0.210938 13.7891C0.0703125 13.6641 0 13.5 0 13.2969V5.70312C0 5.5 0.0703125 5.33594 0.210938 5.21094C0.335938 5.07031 0.5 5 0.703125 5C0.859375 5 0.992188 5.03906 1.10156 5.11719L5.25 8.02344V5.70312ZM5.25 9.40625L1.125 6.52344V12.5L5.25 9.59375V9.40625ZM10.4766 9.5L6.375 6.52344V12.4766L10.4766 9.5Z" fill="black" fill-opacity="0.72"/>
</g>
<defs>
<clipPath id="clip0_1731_1538">
<rect width="12" height="18" fill="white"/>
</clipPath>
</defs>
</svg>
