<svg width="15" height="18" viewBox="0 0 15 18" fill="none" xmlns="http://www.w3.org/2000/svg">
<g id="label-paired / caption / take-profit-caption / regular" clip-path="url(#clip0_1731_774)">
<path id="icon" d="M5.25 7.27344V12.6406H4.21875V7.27344H2.34375V6.35938H7.10156V7.27344H5.25ZM8.10938 12.6406V6.35938H10.8047C11.3906 6.35938 11.8359 6.54688 12.1641 6.875C12.4688 7.22656 12.6328 7.69531 12.6328 8.25781C12.6328 8.84375 12.4688 9.28906 12.1641 9.64062C11.8359 9.99219 11.3906 10.1562 10.8047 10.1562H9.11719V12.6406H8.10938ZM9.11719 9.26562H10.7344C10.9922 9.26562 11.2031 9.19531 11.3438 9.05469C11.4844 8.91406 11.5547 8.72656 11.5547 8.46875V8.04688C11.5547 7.78906 11.4844 7.60156 11.3438 7.46094C11.2031 7.32031 10.9922 7.25 10.7344 7.25H9.11719V9.26562Z" fill="black" fill-opacity="0.72"/>
</g>
<defs>
<clipPath id="clip0_1731_774">
<rect width="15" height="18" fill="white"/>
</clipPath>
</defs>
</svg>
