<svg width="11" height="18" viewBox="0 0 11 18" fill="none" xmlns="http://www.w3.org/2000/svg">
<g id="label-paired / caption / bars-caption / bold" clip-path="url(#clip0_1731_651)">
<path id="icon" d="M0.25 5.5625C0.28125 5.21875 0.46875 5.03125 0.8125 5H10.1875C10.5312 5.03125 10.7188 5.21875 10.75 5.5625C10.7188 5.90625 10.5312 6.09375 10.1875 6.125H0.8125C0.46875 6.09375 0.28125 5.90625 0.25 5.5625ZM0.25 9.3125C0.28125 8.96875 0.46875 8.78125 0.8125 8.75H10.1875C10.5312 8.78125 10.7188 8.96875 10.75 9.3125C10.7188 9.65625 10.5312 9.84375 10.1875 9.875H0.8125C0.46875 9.84375 0.28125 9.65625 0.25 9.3125ZM10.75 13.0625C10.7188 13.4062 10.5312 13.5938 10.1875 13.625H0.8125C0.46875 13.5938 0.28125 13.4062 0.25 13.0625C0.28125 12.7188 0.46875 12.5312 0.8125 12.5H10.1875C10.5312 12.5312 10.7188 12.7188 10.75 13.0625Z" fill="black" fill-opacity="0.72"/>
</g>
<defs>
<clipPath id="clip0_1731_651">
<rect width="11" height="18" fill="white"/>
</clipPath>
</defs>
</svg>
