<svg width="24" height="36" viewBox="0 0 24 36" fill="none" xmlns="http://www.w3.org/2000/svg">
<g id="label-paired / xl / circle-info-xl / bold" clip-path="url(#clip0_1731_6670)">
<path id="icon" d="M12 8.25C10.2188 8.25 8.59375 8.6875 7.125 9.5625C5.65625 10.4062 4.46875 11.5938 3.5625 13.125C2.6875 14.6562 2.25 16.2812 2.25 18C2.25 19.7188 2.6875 21.3438 3.5625 22.875C4.46875 24.4062 5.65625 25.5938 7.125 26.4375C8.59375 27.3125 10.2188 27.75 12 27.75C13.7812 27.75 15.4062 27.3125 16.875 26.4375C18.3438 25.5938 19.5312 24.4062 20.4375 22.875C21.3125 21.3438 21.75 19.7188 21.75 18C21.75 16.2812 21.3125 14.6562 20.4375 13.125C19.5312 11.5938 18.3438 10.4062 16.875 9.5625C15.4062 8.6875 13.7812 8.25 12 8.25ZM12 30C9.8125 29.9688 7.8125 29.4375 6 28.4062C4.1875 27.3438 2.71875 25.875 1.59375 24C0.53125 22.0938 0 20.0938 0 18C0 15.9062 0.53125 13.9062 1.59375 12C2.71875 10.125 4.1875 8.65625 6 7.59375C7.8125 6.5625 9.8125 6.03125 12 6C14.1875 6.03125 16.1875 6.5625 18 7.59375C19.8125 8.65625 21.2812 10.125 22.4062 12C23.4688 13.9062 24 15.9062 24 18C24 20.0938 23.4688 22.0938 22.4062 24C21.2812 25.875 19.8125 27.3438 18 28.4062C16.1875 29.4375 14.1875 29.9688 12 30ZM10.125 21.75H11.25V18.75H10.125C9.4375 18.6875 9.0625 18.3125 9 17.625C9.0625 16.9375 9.4375 16.5625 10.125 16.5H12.375C13.0625 16.5625 13.4375 16.9375 13.5 17.625V21.75H13.875C14.5625 21.8125 14.9375 22.1875 15 22.875C14.9375 23.5625 14.5625 23.9375 13.875 24H10.125C9.4375 23.9375 9.0625 23.5625 9 22.875C9.0625 22.1875 9.4375 21.8125 10.125 21.75ZM12 15C11.5625 15 11.2031 14.8594 10.9219 14.5781C10.6406 14.2969 10.5 13.9375 10.5 13.5C10.5 13.0625 10.6406 12.7031 10.9219 12.4219C11.2031 12.1406 11.5625 12 12 12C12.4375 12 12.7969 12.1406 13.0781 12.4219C13.3594 12.7031 13.5 13.0625 13.5 13.5C13.5 13.9375 13.3594 14.2969 13.0781 14.5781C12.7969 14.8594 12.4375 15 12 15Z" fill="black" fill-opacity="0.72"/>
</g>
<defs>
<clipPath id="clip0_1731_6670">
<rect width="24" height="36" fill="white"/>
</clipPath>
</defs>
</svg>
