<svg width="12" height="18" viewBox="0 0 12 18" fill="none" xmlns="http://www.w3.org/2000/svg">
<g id="label-paired / caption / sun-bright-caption / bold" clip-path="url(#clip0_1731_736)">
<path id="icon" d="M6.5625 4.0625V5.5625C6.53125 5.90625 6.34375 6.09375 6 6.125C5.65625 6.09375 5.46875 5.90625 5.4375 5.5625V4.0625C5.46875 3.71875 5.65625 3.53125 6 3.5C6.34375 3.53125 6.53125 3.71875 6.5625 4.0625ZM10.2422 6.05469L9.1875 7.10938C8.92188 7.32812 8.65625 7.32812 8.39062 7.10938C8.17188 6.84375 8.17188 6.57812 8.39062 6.3125L9.44531 5.25781C9.71094 5.03906 9.97656 5.03906 10.2422 5.25781C10.4609 5.52344 10.4609 5.78906 10.2422 6.05469ZM2.55469 5.25781L3.60938 6.3125C3.82812 6.57812 3.82812 6.84375 3.60938 7.10938C3.34375 7.32812 3.07812 7.32812 2.8125 7.10938L1.75781 6.05469C1.53906 5.78906 1.53906 5.52344 1.75781 5.25781C2.02344 5.03906 2.28906 5.03906 2.55469 5.25781ZM0.5625 8.9375H2.0625C2.40625 8.96875 2.59375 9.15625 2.625 9.5C2.59375 9.84375 2.40625 10.0312 2.0625 10.0625H0.5625C0.21875 10.0312 0.03125 9.84375 0 9.5C0.03125 9.15625 0.21875 8.96875 0.5625 8.9375ZM9.9375 8.9375H11.4375C11.7812 8.96875 11.9688 9.15625 12 9.5C11.9688 9.84375 11.7812 10.0312 11.4375 10.0625H9.9375C9.59375 10.0312 9.40625 9.84375 9.375 9.5C9.40625 9.15625 9.59375 8.96875 9.9375 8.9375ZM3.60938 12.6875L2.55469 13.7422C2.28906 13.9609 2.02344 13.9609 1.75781 13.7422C1.53906 13.4766 1.53906 13.2109 1.75781 12.9453L2.8125 11.8906C3.07812 11.6719 3.34375 11.6719 3.60938 11.8906C3.82812 12.1562 3.82812 12.4219 3.60938 12.6875ZM9.1875 11.8906L10.2422 12.9453C10.4609 13.2109 10.4609 13.4766 10.2422 13.7422C9.97656 13.9609 9.71094 13.9609 9.44531 13.7422L8.39062 12.6875C8.17188 12.4219 8.17188 12.1562 8.39062 11.8906C8.65625 11.6719 8.92188 11.6719 9.1875 11.8906ZM6.5625 13.4375V14.9375C6.53125 15.2812 6.34375 15.4688 6 15.5C5.65625 15.4688 5.46875 15.2812 5.4375 14.9375V13.4375C5.46875 13.0938 5.65625 12.9062 6 12.875C6.34375 12.9062 6.53125 13.0938 6.5625 13.4375ZM7.5 9.5C7.48438 8.9375 7.23438 8.50781 6.75 8.21094C6.25 7.92969 5.75 7.92969 5.25 8.21094C4.76562 8.50781 4.51562 8.9375 4.5 9.5C4.51562 10.0625 4.76562 10.4922 5.25 10.7891C5.75 11.0703 6.25 11.0703 6.75 10.7891C7.23438 10.4922 7.48438 10.0625 7.5 9.5ZM3.375 9.5C3.375 9.03125 3.49219 8.59375 3.72656 8.1875C3.96094 7.78125 4.28125 7.46094 4.6875 7.22656C5.09375 6.99219 5.53125 6.875 6 6.875C6.46875 6.875 6.90625 6.99219 7.3125 7.22656C7.71875 7.46094 8.03906 7.78125 8.27344 8.1875C8.50781 8.59375 8.625 9.03125 8.625 9.5C8.625 9.96875 8.50781 10.4062 8.27344 10.8125C8.03906 11.2188 7.71875 11.5391 7.3125 11.7734C6.90625 12.0078 6.46875 12.125 6 12.125C5.53125 12.125 5.09375 12.0078 4.6875 11.7734C4.28125 11.5391 3.96094 11.2188 3.72656 10.8125C3.49219 10.4062 3.375 9.96875 3.375 9.5Z" fill="black" fill-opacity="0.72"/>
</g>
<defs>
<clipPath id="clip0_1731_736">
<rect width="12" height="18" fill="white"/>
</clipPath>
</defs>
</svg>
