<svg width="27" height="36" viewBox="0 0 27 36" fill="none" xmlns="http://www.w3.org/2000/svg">
<g id="label-paired / xl / pen-line-xl / regular" clip-path="url(#clip0_1731_6508)">
<path id="icon" d="M20.1562 7.875C19.625 7.4375 19.0938 7.4375 18.5625 7.875L15.9844 10.4062L19.5938 14.0156L22.125 11.4375C22.5625 10.9062 22.5625 10.375 22.125 9.84375L20.1562 7.875ZM3.89062 22.5C3.54688 22.875 3.29688 23.3125 3.14062 23.8125L1.875 28.125L6.1875 26.8594C6.6875 26.7031 7.125 26.4531 7.5 26.1094L18.5156 15.0938L14.9062 11.4844L3.89062 22.5ZM17.4844 6.79688C18.0156 6.29687 18.6406 6.04688 19.3594 6.04688C20.0469 6.04688 20.6562 6.29687 21.1875 6.79688L23.2031 8.8125C23.7031 9.34375 23.9531 9.95312 23.9531 10.6406C23.9531 11.3594 23.7031 11.9844 23.2031 12.5156L8.53125 27.1875C8 27.7188 7.375 28.0938 6.65625 28.3125L0.984375 29.9531C0.671875 30.0469 0.421875 29.9844 0.234375 29.7656C0.015625 29.5781 -0.046875 29.3438 0.046875 29.0625L1.6875 23.3906C1.90625 22.6406 2.29688 22 2.85938 21.4688L17.4844 6.79688ZM11.25 28.5H26.25C26.7188 28.5312 26.9688 28.7812 27 29.25C26.9688 29.7188 26.7188 29.9688 26.25 30H11.25C10.7812 29.9688 10.5312 29.7188 10.5 29.25C10.5312 28.7812 10.7812 28.5312 11.25 28.5Z" fill="black" fill-opacity="0.72"/>
</g>
<defs>
<clipPath id="clip0_1731_6508">
<rect width="27" height="36" fill="white"/>
</clipPath>
</defs>
</svg>
