<svg width="18" height="36" viewBox="0 0 18 36" fill="none" xmlns="http://www.w3.org/2000/svg">
<g id="label-paired / xl / arrow-up-to-line-xl / bold" clip-path="url(#clip0_1731_5943)">
<path id="icon" d="M1.125 7.5H16.875C17.5625 7.5625 17.9375 7.9375 18 8.625C17.9375 9.3125 17.5625 9.6875 16.875 9.75H1.125C0.4375 9.6875 0.0625 9.3125 0 8.625C0.0625 7.9375 0.4375 7.5625 1.125 7.5ZM9.84375 13.875H9.79688L15.7969 20.25C16.2344 20.7812 16.2188 21.2969 15.75 21.7969C15.2188 22.2344 14.7031 22.2188 14.2031 21.75L10.125 17.4844V21.375V27.375C10.0625 28.0625 9.6875 28.4375 9 28.5C8.3125 28.4375 7.9375 28.0625 7.875 27.375V21.375V17.4844L3.79688 21.7969C3.29688 22.2344 2.78125 22.25 2.25 21.8438C1.78125 21.3125 1.76562 20.7812 2.20312 20.25L8.20312 13.875C8.42188 13.625 8.6875 13.5 9 13.5C9.3125 13.5 9.59375 13.625 9.84375 13.875Z" fill="black" fill-opacity="0.72"/>
</g>
<defs>
<clipPath id="clip0_1731_5943">
<rect width="18" height="36" fill="white"/>
</clipPath>
</defs>
</svg>
