<svg width="20" height="24" viewBox="0 0 20 24" fill="none" xmlns="http://www.w3.org/2000/svg">
<g id="label-paired / md / person-chalkboard-md / regular" clip-path="url(#clip0_1731_3839)">
<path id="icon" d="M5.25 5.75C5.29167 6.20833 5.54167 6.45833 6 6.5C6.45833 6.45833 6.70833 6.20833 6.75 5.75C6.70833 5.29167 6.45833 5.04167 6 5C5.54167 5.04167 5.29167 5.29167 5.25 5.75ZM7.75 5.75C7.72917 6.41667 7.4375 6.91667 6.875 7.25C6.29167 7.58333 5.70833 7.58333 5.125 7.25C4.5625 6.91667 4.27083 6.41667 4.25 5.75C4.27083 5.08333 4.5625 4.58333 5.125 4.25C5.70833 3.91667 6.29167 3.91667 6.875 4.25C7.4375 4.58333 7.72917 5.08333 7.75 5.75ZM5.59375 9C5.38542 9 5.1875 9.04167 5 9.125V14H7V9H5.59375ZM5 19.5C4.97917 19.8125 4.8125 19.9792 4.5 20C4.1875 19.9792 4.02083 19.8125 4 19.5V10.3125L2.4375 13.25C2.27083 13.5 2.05208 13.5625 1.78125 13.4375C1.51042 13.2708 1.4375 13.0521 1.5625 12.7812L3.40625 9.3125C3.88542 8.47917 4.61458 8.04167 5.59375 8H7.59375H10V5.5C10.0208 5.08333 10.1667 4.72917 10.4375 4.4375C10.7292 4.16667 11.0833 4.02083 11.5 4H18.5C18.9167 4.02083 19.2708 4.16667 19.5625 4.4375C19.8333 4.72917 19.9792 5.08333 20 5.5V12.5C19.9792 12.9167 19.8333 13.2708 19.5625 13.5625C19.2708 13.8333 18.9167 13.9792 18.5 14H11.5C11.0833 13.9792 10.7292 13.8333 10.4375 13.5625C10.1667 13.2708 10.0208 12.9167 10 12.5V10H11V12.5C11.0208 12.8125 11.1875 12.9792 11.5 13H18.5C18.8125 12.9792 18.9792 12.8125 19 12.5V5.5C18.9792 5.1875 18.8125 5.02083 18.5 5H11.5C11.1875 5.02083 11.0208 5.1875 11 5.5V8H12.5C12.8125 8.02083 12.9792 8.1875 13 8.5C12.9792 8.8125 12.8125 8.97917 12.5 9H8V19.5C7.97917 19.8125 7.8125 19.9792 7.5 20C7.1875 19.9792 7.02083 19.8125 7 19.5V15H5V19.5Z" fill="black" fill-opacity="0.72"/>
</g>
<defs>
<clipPath id="clip0_1731_3839">
<rect width="20" height="24" fill="white"/>
</clipPath>
</defs>
</svg>
