<svg width="27" height="36" viewBox="0 0 27 36" fill="none" xmlns="http://www.w3.org/2000/svg">
<g id="label-paired / xl / android-xl" clip-path="url(#clip0_1731_14141)">
<path id="icon" d="M19.7344 20.1562C20.3906 20.0938 20.7656 19.7188 20.8594 19.0312C20.7656 18.3438 20.3906 17.9688 19.7344 17.9062C19.0469 17.9688 18.6719 18.3438 18.6094 19.0312C18.6719 19.7188 19.0469 20.0938 19.7344 20.1562ZM7.26562 20.1562C7.95312 20.0938 8.32812 19.7188 8.39062 19.0312C8.32812 18.3438 7.95312 17.9688 7.26562 17.9062C6.60938 17.9688 6.23438 18.3438 6.14062 19.0312C6.23438 19.7188 6.60938 20.0938 7.26562 20.1562ZM20.1094 13.3594C22.0781 14.4531 23.6562 15.9219 24.8438 17.7656C26.0625 19.5781 26.7812 21.6562 27 24H0C0.21875 21.6562 0.9375 19.5781 2.15625 17.7656C3.34375 15.9219 4.92188 14.4531 6.89062 13.3594L4.64062 9.46875C4.54688 9.3125 4.53125 9.15625 4.59375 9C4.6875 8.84375 4.82812 8.76562 5.01562 8.76562C5.20312 8.76562 5.34375 8.84375 5.4375 9L7.73438 12.9844C9.57812 12.1406 11.5 11.7188 13.5 11.7188C15.5 11.7188 17.4219 12.1406 19.2656 12.9844L21.5625 9C21.6562 8.84375 21.7969 8.76562 21.9844 8.76562C22.1719 8.76562 22.3125 8.84375 22.4062 9C22.4688 9.15625 22.4531 9.3125 22.3594 9.46875L20.1094 13.3594Z" fill="black" fill-opacity="0.72"/>
</g>
<defs>
<clipPath id="clip0_1731_14141">
<rect width="27" height="36" fill="white"/>
</clipPath>
</defs>
</svg>
