<svg width="14" height="24" viewBox="0 0 14 24" fill="none" xmlns="http://www.w3.org/2000/svg">
<g id="label-paired / md / stopwatch-md / regular" clip-path="url(#clip0_1731_3215)">
<path id="icon" d="M4 4.5C4.02083 4.1875 4.1875 4.02083 4.5 4H9.5C9.8125 4.02083 9.97917 4.1875 10 4.5C9.97917 4.8125 9.8125 4.97917 9.5 5H7.5V7.03125C9.08333 7.17708 10.4167 7.77083 11.5 8.8125L12.6562 7.65625C12.8854 7.44792 13.1146 7.44792 13.3438 7.65625C13.5521 7.88542 13.5521 8.11458 13.3438 8.34375L12.1562 9.53125C13.0312 10.6562 13.4792 11.9792 13.5 13.5C13.4583 15.3333 12.8229 16.8646 11.5938 18.0938C10.3646 19.3229 8.83333 19.9583 7 20C5.16667 19.9583 3.63542 19.3229 2.40625 18.0938C1.17708 16.8646 0.541667 15.3333 0.5 13.5C0.541667 11.75 1.125 10.2708 2.25 9.0625C3.375 7.875 4.79167 7.19792 6.5 7.03125V5H4.5C4.1875 4.97917 4.02083 4.8125 4 4.5ZM1.5 13.5C1.5 14.5 1.75 15.4167 2.25 16.25C2.72917 17.0833 3.39583 17.75 4.25 18.25C5.125 18.75 6.04167 19 7 19C7.95833 19 8.875 18.75 9.75 18.25C10.6042 17.75 11.2708 17.0833 11.75 16.25C12.25 15.4167 12.5 14.5 12.5 13.5C12.5 12.5 12.25 11.5833 11.75 10.75C11.2708 9.91667 10.6042 9.25 9.75 8.75C8.875 8.25 7.95833 8 7 8C6.04167 8 5.125 8.25 4.25 8.75C3.39583 9.25 2.72917 9.91667 2.25 10.75C1.75 11.5833 1.5 12.5 1.5 13.5ZM7.5 10.5V14C7.47917 14.3125 7.3125 14.4792 7 14.5C6.6875 14.4792 6.52083 14.3125 6.5 14V10.5C6.52083 10.1875 6.6875 10.0208 7 10C7.3125 10.0208 7.47917 10.1875 7.5 10.5Z" fill="black" fill-opacity="0.72"/>
</g>
<defs>
<clipPath id="clip0_1731_3215">
<rect width="14" height="24" fill="white"/>
</clipPath>
</defs>
</svg>
