<svg width="11" height="18" viewBox="0 0 11 18" fill="none" xmlns="http://www.w3.org/2000/svg">
<g id="label-paired / caption / user-caption / regular" clip-path="url(#clip0_1731_1753)">
<path id="icon" d="M7.75 6.5C7.75 6.09375 7.64844 5.71875 7.44531 5.375C7.24219 5.03125 6.96875 4.75781 6.625 4.55469C6.26562 4.35156 5.89062 4.25 5.5 4.25C5.10938 4.25 4.73438 4.35156 4.375 4.55469C4.03125 4.75781 3.75781 5.03125 3.55469 5.375C3.35156 5.71875 3.25 6.09375 3.25 6.5C3.25 6.90625 3.35156 7.28125 3.55469 7.625C3.75781 7.96875 4.03125 8.24219 4.375 8.44531C4.73438 8.64844 5.10938 8.75 5.5 8.75C5.89062 8.75 6.26562 8.64844 6.625 8.44531C6.96875 8.24219 7.24219 7.96875 7.44531 7.625C7.64844 7.28125 7.75 6.90625 7.75 6.5ZM2.5 6.5C2.5 5.95312 2.63281 5.45312 2.89844 5C3.16406 4.54688 3.53125 4.17969 4 3.89844C4.46875 3.63281 4.96875 3.5 5.5 3.5C6.03125 3.5 6.53125 3.63281 7 3.89844C7.46875 4.17969 7.83594 4.54688 8.10156 5C8.36719 5.45312 8.5 5.95312 8.5 6.5C8.5 7.04688 8.36719 7.54688 8.10156 8C7.83594 8.45312 7.46875 8.82031 7 9.10156C6.53125 9.36719 6.03125 9.5 5.5 9.5C4.96875 9.5 4.46875 9.36719 4 9.10156C3.53125 8.82031 3.16406 8.45312 2.89844 8C2.63281 7.54688 2.5 7.04688 2.5 6.5ZM1 14.75H10C9.96875 13.7969 9.625 13 8.96875 12.3594C8.32812 11.7344 7.53125 11.4062 6.57812 11.375H4.42188C3.46875 11.4062 2.67188 11.7344 2.03125 12.3594C1.375 13 1.03125 13.7969 1 14.75ZM0.25 14.7969C0.28125 13.625 0.6875 12.6406 1.46875 11.8438C2.26562 11.0625 3.25 10.6562 4.42188 10.625H6.57812C7.75 10.6562 8.73438 11.0625 9.53125 11.8438C10.3125 12.6406 10.7188 13.625 10.75 14.7969C10.75 15 10.6797 15.1641 10.5391 15.2891C10.4141 15.4297 10.25 15.5 10.0469 15.5H0.953125C0.75 15.5 0.585938 15.4297 0.460938 15.2891C0.320312 15.1641 0.25 15 0.25 14.7969Z" fill="black" fill-opacity="0.72"/>
</g>
<defs>
<clipPath id="clip0_1731_1753">
<rect width="11" height="18" fill="white"/>
</clipPath>
</defs>
</svg>
