<svg width="20" height="30" viewBox="0 0 20 30" fill="none" xmlns="http://www.w3.org/2000/svg">
<g id="label-paired / lg / circle-nine-lg / regular" clip-path="url(#clip0_1731_4558)">
<path id="icon" d="M18.75 15.5C18.724 13.9115 18.3333 12.4531 17.5781 11.125C16.7969 9.79688 15.7292 8.72917 14.375 7.92188C12.9948 7.14062 11.5365 6.75 10 6.75C8.46354 6.75 7.00521 7.14062 5.625 7.92188C4.27083 8.72917 3.20312 9.79688 2.42188 11.125C1.66667 12.4531 1.27604 13.9115 1.25 15.5C1.27604 17.0885 1.66667 18.5469 2.42188 19.875C3.20312 21.2031 4.27083 22.2708 5.625 23.0781C7.00521 23.8594 8.46354 24.25 10 24.25C11.5365 24.25 12.9948 23.8594 14.375 23.0781C15.7292 22.2708 16.7969 21.2031 17.5781 19.875C18.3333 18.5469 18.724 17.0885 18.75 15.5ZM0 15.5C0.0260417 13.6771 0.46875 12.0104 1.32812 10.5C2.21354 8.98958 3.4375 7.76562 5 6.82812C6.58854 5.94271 8.25521 5.5 10 5.5C11.7448 5.5 13.4115 5.94271 15 6.82812C16.5625 7.76562 17.7865 8.98958 18.6719 10.5C19.5312 12.0104 19.974 13.6771 20 15.5C19.974 17.3229 19.5312 18.9896 18.6719 20.5C17.7865 22.0104 16.5625 23.2344 15 24.1719C13.4115 25.0573 11.7448 25.5 10 25.5C8.25521 25.5 6.58854 25.0573 5 24.1719C3.4375 23.2344 2.21354 22.0104 1.32812 20.5C0.46875 18.9896 0.0260417 17.3229 0 15.5ZM10 11.75C9.0625 11.776 8.34635 12.1927 7.85156 13C7.38281 13.8333 7.38281 14.6667 7.85156 15.5C8.34635 16.3073 9.0625 16.724 10 16.75C10.9375 16.724 11.6536 16.3073 12.1484 15.5C12.6172 14.6667 12.6172 13.8333 12.1484 13C11.6536 12.1927 10.9375 11.776 10 11.75ZM9.84375 18C8.82812 17.9479 7.98177 17.5703 7.30469 16.8672C6.6276 16.1641 6.27604 15.2917 6.25 14.25C6.27604 13.1823 6.64062 12.2969 7.34375 11.5938C8.04688 10.8906 8.93229 10.526 10 10.5C11.0677 10.526 11.9531 10.8906 12.6562 11.5938C13.3594 12.2969 13.724 13.1823 13.75 14.25C13.724 15.474 13.2812 16.5026 12.4219 17.3359L9.17969 20.3438C8.86719 20.5781 8.56771 20.5651 8.28125 20.3047C8.04688 19.9922 8.0599 19.6927 8.32031 19.4062L9.84375 18Z" fill="black" fill-opacity="0.72"/>
</g>
<defs>
<clipPath id="clip0_1731_4558">
<rect width="20" height="30" fill="white"/>
</clipPath>
</defs>
</svg>
