<svg width="9" height="22" viewBox="0 0 9 22" fill="none" xmlns="http://www.w3.org/2000/svg">
<g id="label-paired / sm / euro-sign-sm / regular" clip-path="url(#clip0_1731_2960)">
<path id="icon" d="M1.05469 9.875H0.5625C0.289062 9.85677 0.143229 9.71094 0.125 9.4375C0.143229 9.16406 0.289062 9.01823 0.5625 9H1.24609C1.64714 7.70573 2.3763 6.65755 3.43359 5.85547C4.49089 5.05339 5.72135 4.64323 7.125 4.625H8.46484C8.73828 4.64323 8.88411 4.78906 8.90234 5.0625C8.88411 5.33594 8.73828 5.48177 8.46484 5.5H7.125C5.95833 5.51823 4.9375 5.84635 4.0625 6.48438C3.1875 7.1224 2.55859 7.96094 2.17578 9H7.5625C7.83594 9.01823 7.98177 9.16406 8 9.4375C7.98177 9.71094 7.83594 9.85677 7.5625 9.875H1.95703C1.90234 10.1667 1.875 10.4583 1.875 10.75C1.875 11.0417 1.90234 11.3333 1.95703 11.625H7.5625C7.83594 11.6432 7.98177 11.7891 8 12.0625C7.98177 12.3359 7.83594 12.4818 7.5625 12.5H2.17578C2.55859 13.5391 3.1875 14.3776 4.0625 15.0156C4.9375 15.6536 5.95833 15.9818 7.125 16H8.46484C8.73828 16.0182 8.88411 16.1641 8.90234 16.4375C8.88411 16.7109 8.73828 16.8568 8.46484 16.875H7.125C5.72135 16.8568 4.49089 16.4466 3.43359 15.6445C2.3763 14.8424 1.64714 13.7943 1.24609 12.5H0.5625C0.289062 12.4818 0.143229 12.3359 0.125 12.0625C0.143229 11.7891 0.289062 11.6432 0.5625 11.625H1.05469C1.01823 11.3333 1 11.0417 1 10.75C1 10.4583 1.01823 10.1667 1.05469 9.875Z" fill="black" fill-opacity="0.72"/>
</g>
<defs>
<clipPath id="clip0_1731_2960">
<rect width="9" height="22" fill="white"/>
</clipPath>
</defs>
</svg>
