<svg width="24" height="36" viewBox="0 0 24 36" fill="none" xmlns="http://www.w3.org/2000/svg">
<g id="label-paired / xl / scissors-xl / bold" clip-path="url(#clip0_1731_6485)">
<path id="icon" d="M23.7188 26.5781C23.25 27.0781 22.7344 27.125 22.1719 26.7188L14.625 20.4375L16.4062 18.9844L23.5781 25.0312C24.0781 25.5 24.125 26.0156 23.7188 26.5781ZM5.25 8.25C4.125 8.28125 3.26562 8.78125 2.67188 9.75C2.10938 10.75 2.10938 11.75 2.67188 12.75C3.26562 13.7188 4.125 14.2188 5.25 14.25C6.375 14.2188 7.23438 13.7188 7.82812 12.75C8.39062 11.75 8.39062 10.75 7.82812 9.75C7.23438 8.78125 6.375 8.28125 5.25 8.25ZM5.25 6C6.75 6.03125 7.98438 6.54688 8.95312 7.54688C9.95312 8.51562 10.4688 9.75 10.5 11.25C10.5 12.0938 10.3125 12.875 9.9375 13.5938L13.5 16.5469L22.1719 9.28125C22.7344 8.875 23.25 8.92188 23.7188 9.42188C24.125 9.98438 24.0781 10.5 23.5781 10.9688L9.9375 22.4062C10.3125 23.125 10.5 23.9062 10.5 24.75C10.4688 26.25 9.95312 27.4844 8.95312 28.4531C7.98438 29.4531 6.75 29.9688 5.25 30C3.75 29.9688 2.51562 29.4531 1.54688 28.4531C0.546875 27.4844 0.03125 26.25 0 24.75C0.03125 23.25 0.546875 22.0156 1.54688 21.0469C2.51562 20.0469 3.75 19.5312 5.25 19.5C6.53125 19.5312 7.625 19.9219 8.53125 20.6719L11.7188 18L8.53125 15.3281C7.625 16.0781 6.53125 16.4688 5.25 16.5C3.75 16.4688 2.51562 15.9531 1.54688 14.9531C0.546875 13.9844 0.03125 12.75 0 11.25C0.03125 9.75 0.546875 8.51562 1.54688 7.54688C2.51562 6.54688 3.75 6.03125 5.25 6ZM8.25 24.75C8.21875 23.625 7.71875 22.7656 6.75 22.1719C5.75 21.6094 4.75 21.6094 3.75 22.1719C2.78125 22.7656 2.28125 23.625 2.25 24.75C2.28125 25.875 2.78125 26.7344 3.75 27.3281C4.75 27.8906 5.75 27.8906 6.75 27.3281C7.71875 26.7344 8.21875 25.875 8.25 24.75Z" fill="black" fill-opacity="0.72"/>
</g>
<defs>
<clipPath id="clip0_1731_6485">
<rect width="24" height="36" fill="white"/>
</clipPath>
</defs>
</svg>
