<svg width="21" height="36" viewBox="0 0 21 36" fill="none" xmlns="http://www.w3.org/2000/svg">
<g id="label-paired / xl / bars-xl / bold" clip-path="url(#clip0_1731_5683)">
<path id="icon" d="M0 10.125C0.0625 9.4375 0.4375 9.0625 1.125 9H19.875C20.5625 9.0625 20.9375 9.4375 21 10.125C20.9375 10.8125 20.5625 11.1875 19.875 11.25H1.125C0.4375 11.1875 0.0625 10.8125 0 10.125ZM0 17.625C0.0625 16.9375 0.4375 16.5625 1.125 16.5H19.875C20.5625 16.5625 20.9375 16.9375 21 17.625C20.9375 18.3125 20.5625 18.6875 19.875 18.75H1.125C0.4375 18.6875 0.0625 18.3125 0 17.625ZM21 25.125C20.9375 25.8125 20.5625 26.1875 19.875 26.25H1.125C0.4375 26.1875 0.0625 25.8125 0 25.125C0.0625 24.4375 0.4375 24.0625 1.125 24H19.875C20.5625 24.0625 20.9375 24.4375 21 25.125Z" fill="black" fill-opacity="0.72"/>
</g>
<defs>
<clipPath id="clip0_1731_5683">
<rect width="21" height="36" fill="white"/>
</clipPath>
</defs>
</svg>
