<svg width="13" height="22" viewBox="0 0 13 22" fill="none" xmlns="http://www.w3.org/2000/svg">
<g id="label-paired / sm / calendar-sm / bold" clip-path="url(#clip0_1731_1854)">
<path id="icon" d="M4.53125 4.40625V5.5H8.46875V4.40625C8.50521 4.00521 8.72396 3.78646 9.125 3.75C9.52604 3.78646 9.74479 4.00521 9.78125 4.40625V5.5H10.875C11.3672 5.51823 11.7773 5.69141 12.1055 6.01953C12.4336 6.34766 12.6068 6.75781 12.625 7.25V7.6875V9V16C12.6068 16.4922 12.4336 16.9023 12.1055 17.2305C11.7773 17.5586 11.3672 17.7318 10.875 17.75H2.125C1.63281 17.7318 1.22266 17.5586 0.894531 17.2305C0.566406 16.9023 0.393229 16.4922 0.375 16V9V7.6875V7.25C0.393229 6.75781 0.566406 6.34766 0.894531 6.01953C1.22266 5.69141 1.63281 5.51823 2.125 5.5H3.21875V4.40625C3.25521 4.00521 3.47396 3.78646 3.875 3.75C4.27604 3.78646 4.49479 4.00521 4.53125 4.40625ZM1.6875 9V16C1.70573 16.2734 1.85156 16.4193 2.125 16.4375H10.875C11.1484 16.4193 11.2943 16.2734 11.3125 16V9H1.6875Z" fill="black" fill-opacity="0.72"/>
</g>
<defs>
<clipPath id="clip0_1731_1854">
<rect width="13" height="22" fill="white"/>
</clipPath>
</defs>
</svg>
