<svg width="18" height="22" viewBox="0 0 18 22" fill="none" xmlns="http://www.w3.org/2000/svg">
<g id="label-paired / sm / light-user-tie-circle-dollar-sm / bold" clip-path="url(#clip0_1731_3023)">
<path id="icon" d="M0.25 16.9297C0.25 14.7422 1.80859 12.9375 3.88672 12.582C4.07812 12.5547 4.24219 12.6367 4.32422 12.8008C4.73438 13.5938 5.11719 14.4141 5.52734 15.207C5.66406 14.6602 5.80078 14.1133 5.96484 13.5938C5.77344 13.293 5.60938 13.0195 5.44531 12.7461C5.28125 12.4453 5.47266 12.0625 5.82812 12.0625C5.99219 12.0625 6.18359 12.0625 6.375 12.0625C6.53906 12.0625 6.73047 12.0625 6.89453 12.0625C7.25 12.0625 7.44141 12.4453 7.27734 12.7461C7.11328 13.0195 6.94922 13.293 6.75781 13.5938C6.92188 14.1133 7.05859 14.6602 7.19531 15.207C7.60547 14.4141 7.98828 13.5938 8.39844 12.8008C8.48047 12.6367 8.64453 12.5547 8.83594 12.582C8.94531 12.582 9.02734 12.6094 9.13672 12.6367C9.02734 13.0195 9 13.4297 9 13.8125C9 14.0586 9 14.2773 9.02734 14.4961C8.69922 15.1523 8.37109 15.8086 8.04297 16.4375C8.61719 16.4375 9.19141 16.4375 9.76562 16.4375C10.0938 16.957 10.5312 17.4219 11.0234 17.75C7.71484 17.75 4.40625 17.75 1.07031 17.75C0.605469 17.75 0.25 17.3945 0.25 16.9297ZM1.58984 16.4375C2.62891 16.4375 3.64062 16.4375 4.67969 16.4375C4.26953 15.6445 3.88672 14.8516 3.47656 14.0586C2.49219 14.4688 1.75391 15.3711 1.58984 16.4375ZM2.875 7.25C2.875 6.01953 3.53125 4.84375 4.625 4.24219C5.69141 3.61328 7.03125 3.61328 8.125 4.24219C9.19141 4.84375 9.875 6.01953 9.875 7.25C9.875 8.50781 9.19141 9.65625 8.125 10.2852C7.03125 10.9141 5.69141 10.9141 4.625 10.2852C3.53125 9.65625 2.875 8.50781 2.875 7.25ZM4.46094 6.15625C4.07812 6.83984 4.07812 7.6875 4.46094 8.34375C4.87109 9.02734 5.58203 9.4375 6.375 9.4375C7.14062 9.4375 7.87891 9.02734 8.26172 8.34375C8.64453 7.6875 8.64453 6.83984 8.26172 6.15625C7.87891 5.5 7.14062 5.0625 6.375 5.0625C5.58203 5.0625 4.87109 5.5 4.46094 6.15625ZM9.875 13.8125C9.875 11.6523 11.625 9.875 13.8125 9.875C15.9727 9.875 17.75 11.6523 17.75 13.8125C17.75 16 15.9727 17.75 13.8125 17.75C11.625 17.75 9.875 16 9.875 13.8125ZM12.2812 13.0742C12.3086 13.5117 12.582 13.7852 12.8555 13.9219C13.1016 14.0586 13.4023 14.1406 13.6484 14.1953C13.6484 14.2227 13.6758 14.2227 13.7031 14.2227C13.9766 14.3047 14.1953 14.3594 14.332 14.4414C14.4414 14.5234 14.4688 14.5508 14.4688 14.6055C14.4688 14.6602 14.4414 14.7148 14.4414 14.7148C14.4141 14.7422 14.3867 14.7695 14.332 14.8242C14.1953 14.8789 14.0039 14.9062 13.8125 14.9062C13.5664 14.9062 13.3203 14.8242 12.9922 14.7148C12.9375 14.7148 12.8828 14.6875 12.8281 14.6875C12.6094 14.6055 12.3633 14.7422 12.2812 14.9609C12.2266 15.207 12.3359 15.4531 12.582 15.5078C12.6094 15.5352 12.6641 15.5352 12.7188 15.5625C12.9102 15.6172 13.1289 15.6992 13.375 15.7266C13.375 15.8359 13.375 15.9453 13.375 16.0547C13.375 16.3008 13.5664 16.4922 13.8125 16.4922C14.0312 16.4922 14.25 16.3008 14.25 16.0547C14.25 15.9453 14.25 15.8633 14.25 15.7539C14.4141 15.7266 14.5781 15.6719 14.7422 15.5898C15.0703 15.3984 15.3438 15.0703 15.3438 14.5781C15.3164 14.1406 15.043 13.8672 14.7695 13.7031C14.5234 13.5391 14.1953 13.457 13.9492 13.375C13.9219 13.375 13.9219 13.375 13.9219 13.375C13.6484 13.293 13.4297 13.2383 13.2656 13.1562C13.1562 13.0742 13.1562 13.0469 13.1562 13.0195C13.1562 12.9648 13.1562 12.9375 13.1562 12.9375C13.1836 12.9102 13.2109 12.8828 13.293 12.8281C13.4297 12.7734 13.6211 12.7188 13.7852 12.7188C14.0312 12.7188 14.25 12.7734 14.5234 12.8281C14.7422 12.9102 14.9883 12.7461 15.043 12.5273C15.0977 12.2812 14.9609 12.0352 14.7148 11.9805C14.5781 11.9531 14.4141 11.9258 14.25 11.8984C14.25 11.8164 14.25 11.707 14.25 11.625C14.25 11.3789 14.0312 11.1875 13.8125 11.1875C13.5664 11.1875 13.375 11.3789 13.375 11.625C13.375 11.707 13.375 11.8164 13.375 11.8984C13.1836 11.9258 13.0195 11.9805 12.8828 12.0625C12.5547 12.2266 12.2539 12.5547 12.2812 13.0742Z" fill="black" fill-opacity="0.72"/>
</g>
<defs>
<clipPath id="clip0_1731_3023">
<rect width="18" height="22" fill="white"/>
</clipPath>
</defs>
</svg>
