<svg width="12" height="24" viewBox="0 0 12 24" fill="none" xmlns="http://www.w3.org/2000/svg">
<g id="label-paired / md / file-chart-column-md / bold" clip-path="url(#clip0_1731_3780)">
<path id="icon" d="M1.5 18C1.52083 18.3125 1.6875 18.4792 2 18.5H10C10.3125 18.4792 10.4792 18.3125 10.5 18V9H8C7.70833 9 7.46875 8.90625 7.28125 8.71875C7.09375 8.53125 7 8.29167 7 8V5.5H2C1.6875 5.52083 1.52083 5.6875 1.5 6V18ZM2 4H7.1875C7.72917 4 8.19792 4.19792 8.59375 4.59375L11.4062 7.40625C11.8021 7.80208 12 8.28125 12 8.84375V18C11.9792 18.5625 11.7812 19.0312 11.4062 19.4062C11.0312 19.7812 10.5625 19.9792 10 20H2C1.4375 19.9792 0.96875 19.7812 0.59375 19.4062C0.21875 19.0312 0.0208333 18.5625 0 18V6C0.0208333 5.4375 0.21875 4.96875 0.59375 4.59375C0.96875 4.21875 1.4375 4.02083 2 4ZM6.75 12.75V16.75C6.70833 17.2083 6.45833 17.4583 6 17.5C5.54167 17.4583 5.29167 17.2083 5.25 16.75V12.75C5.29167 12.2917 5.54167 12.0417 6 12C6.45833 12.0417 6.70833 12.2917 6.75 12.75ZM9.5 13.75V16.75C9.45833 17.2083 9.20833 17.4583 8.75 17.5C8.29167 17.4583 8.04167 17.2083 8 16.75V13.75C8.04167 13.2917 8.29167 13.0417 8.75 13C9.20833 13.0417 9.45833 13.2917 9.5 13.75ZM4 14.75V16.75C3.95833 17.2083 3.70833 17.4583 3.25 17.5C2.79167 17.4583 2.54167 17.2083 2.5 16.75V14.75C2.54167 14.2917 2.79167 14.0417 3.25 14C3.70833 14.0417 3.95833 14.2917 4 14.75Z" fill="black" fill-opacity="0.72"/>
</g>
<defs>
<clipPath id="clip0_1731_3780">
<rect width="12" height="24" fill="white"/>
</clipPath>
</defs>
</svg>
