<svg width="15" height="18" viewBox="0 0 15 18" fill="none" xmlns="http://www.w3.org/2000/svg">
<g id="label-paired / caption / light-chart-line-up-down-clock-caption / bold" clip-path="url(#clip0_1731_1274)">
<path id="icon" d="M0 4.8125C0 4.50781 0.234375 4.25 0.5625 4.25C0.867188 4.25 1.125 4.50781 1.125 4.8125C1.125 7.57812 1.125 10.3203 1.125 13.0625C1.125 13.3906 1.35938 13.625 1.6875 13.625C3.70312 13.625 5.74219 13.625 7.78125 13.625C7.92188 14.0469 8.15625 14.4219 8.4375 14.75C6.1875 14.75 3.9375 14.75 1.6875 14.75C0.75 14.75 0 14 0 13.0625C0 10.3203 0 7.57812 0 4.8125ZM2.60156 9.125L4.47656 7.25C4.6875 7.01562 5.03906 7.01562 5.27344 7.25C5.76562 7.74219 6.25781 8.23438 6.75 8.72656C7.59375 7.85938 8.46094 6.99219 9.32812 6.125C9.14062 6.125 8.97656 6.125 8.8125 6.125C8.48438 6.125 8.25 5.89062 8.25 5.5625C8.25 5.25781 8.48438 5 8.8125 5C9.42188 5 10.0547 5 10.6875 5C10.8281 5 10.9688 5.07031 11.0859 5.16406C11.1797 5.28125 11.25 5.42188 11.25 5.5625C11.25 6.19531 11.25 6.82812 11.25 7.4375C11.25 7.76562 10.9922 8 10.6875 8C10.3594 8 10.125 7.76562 10.125 7.4375C10.125 7.27344 10.125 7.10938 10.125 6.92188C9.11719 7.92969 8.13281 8.91406 7.14844 9.89844C6.91406 10.1328 6.5625 10.1328 6.35156 9.89844C5.85938 9.40625 5.36719 8.91406 4.875 8.42188C4.38281 8.91406 3.89062 9.40625 3.39844 9.89844C3.16406 10.1328 2.8125 10.1328 2.60156 9.89844C2.36719 9.6875 2.36719 9.33594 2.60156 9.125ZM8.25 12.125C8.25 10.2734 9.75 8.75 11.625 8.75C13.4766 8.75 15 10.2734 15 12.125C15 14 13.4766 15.5 11.625 15.5C9.75 15.5 8.25 14 8.25 12.125ZM11.25 10.625V12.125C11.25 12.3359 11.4141 12.5 11.625 12.5C12 12.5 12.375 12.5 12.75 12.5C12.9375 12.5 13.125 12.3359 13.125 12.125C13.125 11.9375 12.9375 11.75 12.75 11.75C12.4922 11.75 12.2344 11.75 12 11.75C12 11.375 12 11 12 10.625C12 10.4375 11.8125 10.25 11.625 10.25C11.4141 10.25 11.25 10.4375 11.25 10.625Z" fill="black" fill-opacity="0.72"/>
</g>
<defs>
<clipPath id="clip0_1731_1274">
<rect width="15" height="18" fill="white"/>
</clipPath>
</defs>
</svg>
