<svg width="18" height="30" viewBox="0 0 18 30" fill="none" xmlns="http://www.w3.org/2000/svg">
<g id="label-paired / lg / linkedin-lg" clip-path="url(#clip0_1731_14053)">
<path id="icon" d="M16.5 6.75C16.8646 6.75 17.1641 6.86719 17.3984 7.10156C17.6328 7.36198 17.75 7.66146 17.75 8V23C17.75 23.3385 17.6328 23.638 17.3984 23.8984C17.1641 24.1328 16.8646 24.25 16.5 24.25H1.5C1.13542 24.25 0.835938 24.1328 0.601562 23.8984C0.367188 23.638 0.25 23.3385 0.25 23V8C0.25 7.66146 0.367188 7.36198 0.601562 7.10156C0.835938 6.86719 1.13542 6.75 1.5 6.75H16.5ZM5.52344 21.75H5.5625V13.3906H2.94531V21.75H5.52344ZM4.23438 12.2578C4.67708 12.2578 5.02865 12.1146 5.28906 11.8281C5.57552 11.5417 5.73177 11.1901 5.75781 10.7734C5.73177 10.3307 5.57552 9.96615 5.28906 9.67969C5.02865 9.39323 4.67708 9.25 4.23438 9.25C3.81771 9.25 3.46615 9.39323 3.17969 9.67969C2.89323 9.96615 2.75 10.3307 2.75 10.7734C2.75 11.1901 2.89323 11.5417 3.17969 11.8281C3.46615 12.1146 3.81771 12.2578 4.23438 12.2578ZM15.25 21.75V17.1797C15.3021 16.0339 15.1198 15.0833 14.7031 14.3281C14.2865 13.599 13.4401 13.2214 12.1641 13.1953C11.513 13.1953 10.9792 13.3385 10.5625 13.625C10.1458 13.8854 9.85938 14.1849 9.70312 14.5234H9.66406V13.3906H7.16406V21.75H9.78125V17.6094C9.75521 17.0365 9.83333 16.5417 10.0156 16.125C10.224 15.7083 10.6536 15.487 11.3047 15.4609C11.9557 15.513 12.3464 15.7604 12.4766 16.2031C12.6328 16.6719 12.6979 17.1667 12.6719 17.6875V21.75H15.25Z" fill="black" fill-opacity="0.72"/>
</g>
<defs>
<clipPath id="clip0_1731_14053">
<rect width="18" height="30" fill="white"/>
</clipPath>
</defs>
</svg>
