<svg width="12" height="18" viewBox="0 0 12 18" fill="none" xmlns="http://www.w3.org/2000/svg">
<g id="label-paired / caption / arrows-rotate-caption / regular" clip-path="url(#clip0_1731_669)">
<path id="icon" d="M1.61719 8.44531H1.64062C1.57812 8.63281 1.44531 8.73438 1.24219 8.75C0.976562 8.71875 0.859375 8.57812 0.890625 8.32812C1.17188 7.14062 1.78125 6.17188 2.71875 5.42188C3.64062 4.67188 4.73438 4.28125 6 4.25C6.96875 4.26562 7.84375 4.5 8.625 4.95312C9.40625 5.40625 10.0312 6.02344 10.5 6.80469V5.375C10.5156 5.14062 10.6406 5.01562 10.875 5C11.1094 5.01562 11.2344 5.14062 11.25 5.375V7.625C11.2344 7.85938 11.1094 7.98438 10.875 8H10.5234H8.625C8.39062 7.98438 8.26562 7.85938 8.25 7.625C8.26562 7.39062 8.39062 7.26562 8.625 7.25H9.89062C9.5 6.5625 8.96094 6.01562 8.27344 5.60938C7.60156 5.21875 6.84375 5.01562 6 5C4.92188 5.01562 3.98438 5.34375 3.1875 5.98438C2.40625 6.60938 1.88281 7.42969 1.61719 8.44531ZM10.3828 10.5781V10.5547C10.4297 10.3672 10.5547 10.2656 10.7578 10.25C11.0234 10.2812 11.1406 10.4219 11.1094 10.6719C10.8281 11.8594 10.2266 12.8281 9.30469 13.5781C8.36719 14.3281 7.26562 14.7188 6 14.75C5.03125 14.7344 4.15625 14.5 3.375 14.0469C2.59375 13.5938 1.96875 12.9844 1.5 12.2188V13.625C1.48438 13.8594 1.35938 13.9844 1.125 14C0.90625 13.9844 0.78125 13.8594 0.75 13.625V11.375C0.78125 11.1406 0.90625 11.0156 1.125 11H1.47656H3.375C3.60938 11.0156 3.73438 11.1406 3.75 11.375C3.73438 11.6094 3.60938 11.7344 3.375 11.75H2.10938C2.5 12.4375 3.03906 12.9844 3.72656 13.3906C4.39844 13.7812 5.15625 13.9844 6 14C7.07812 13.9844 8.01562 13.6562 8.8125 13.0156C9.59375 12.3906 10.1172 11.5781 10.3828 10.5781Z" fill="black" fill-opacity="0.72"/>
</g>
<defs>
<clipPath id="clip0_1731_669">
<rect width="12" height="18" fill="white"/>
</clipPath>
</defs>
</svg>
