<svg width="20" height="24" viewBox="0 0 20 24" fill="none" xmlns="http://www.w3.org/2000/svg">
<g id="label-paired / md / bell-on-md / bold" clip-path="url(#clip0_1731_3811)">
<path id="icon" d="M10 4C10.2917 4 10.5312 4.09375 10.7188 4.28125C10.9062 4.46875 11 4.70833 11 5V5.5625C12.1667 5.77083 13.1146 6.30208 13.8438 7.15625C14.5938 8.01042 14.9792 9.04167 15 10.25V11.2812C15.0208 12.7396 15.4792 14.0417 16.375 15.1875L16.8438 15.7812C17.0104 16.0312 17.0417 16.2917 16.9375 16.5625C16.7917 16.8333 16.5625 16.9792 16.25 17H3.75C3.4375 16.9792 3.20833 16.8333 3.0625 16.5625C2.95833 16.2917 2.98958 16.0312 3.15625 15.7812L3.625 15.1875C4.52083 14.0417 4.97917 12.7396 5 11.2812V10.25C5.02083 9.04167 5.40625 8.01042 6.15625 7.15625C6.88542 6.30208 7.83333 5.77083 9 5.5625V5C9 4.70833 9.09375 4.46875 9.28125 4.28125C9.46875 4.09375 9.70833 4 10 4ZM10 7H9.75C8.83333 7.02083 8.0625 7.33333 7.4375 7.9375C6.83333 8.5625 6.52083 9.33333 6.5 10.25V11.2812C6.5 12.8229 6.08333 14.2292 5.25 15.5H14.75C13.9375 14.2292 13.5208 12.8229 13.5 11.2812V10.25C13.4792 9.33333 13.1667 8.5625 12.5625 7.9375C11.9375 7.33333 11.1667 7.02083 10.25 7H10ZM12 18C12 18.5417 11.8021 19.0104 11.4062 19.4062C11.0104 19.8021 10.5417 20 10 20C9.45833 20 8.98958 19.8021 8.59375 19.4062C8.19792 19.0104 8 18.5417 8 18H10H12ZM0 10.25C0.0416667 9.79167 0.291667 9.54167 0.75 9.5H3.25C3.70833 9.54167 3.95833 9.79167 4 10.25C3.95833 10.7083 3.70833 10.9583 3.25 11H0.75C0.291667 10.9583 0.0416667 10.7083 0 10.25ZM16.75 9.5H19.25C19.7083 9.54167 19.9583 9.79167 20 10.25C19.9583 10.7083 19.7083 10.9583 19.25 11H16.75C16.2917 10.9583 16.0417 10.7083 16 10.25C16.0417 9.79167 16.2917 9.54167 16.75 9.5ZM18.6875 4.65625C18.8542 5.09375 18.7396 5.4375 18.3438 5.6875L16.3438 6.6875C15.9062 6.85417 15.5729 6.73958 15.3438 6.34375C15.1771 5.90625 15.2812 5.57292 15.6562 5.34375L17.6562 4.34375C18.0938 4.17708 18.4375 4.28125 18.6875 4.65625ZM1.65625 5.6875C1.28125 5.4375 1.17708 5.09375 1.34375 4.65625C1.57292 4.28125 1.90625 4.17708 2.34375 4.34375L4.34375 5.34375C4.71875 5.57292 4.83333 5.90625 4.6875 6.34375C4.4375 6.71875 4.09375 6.83333 3.65625 6.6875L1.65625 5.6875Z" fill="black" fill-opacity="0.72"/>
</g>
<defs>
<clipPath id="clip0_1731_3811">
<rect width="20" height="24" fill="white"/>
</clipPath>
</defs>
</svg>
