<svg width="20" height="30" viewBox="0 0 20 30" fill="none" xmlns="http://www.w3.org/2000/svg">
<g id="label-paired / lg / google-lg" clip-path="url(#clip0_1731_14061)">
<path id="icon" d="M19.5312 15.7344C19.4792 18.5469 18.6198 20.8125 16.9531 22.5312C15.2604 24.25 12.9948 25.1354 10.1562 25.1875C8.35938 25.1615 6.73177 24.7188 5.27344 23.8594C3.8151 23 2.65625 21.8411 1.79688 20.3828C0.9375 18.9245 0.494792 17.2969 0.46875 15.5C0.494792 13.7031 0.9375 12.0755 1.79688 10.6172C2.65625 9.15885 3.8151 8 5.27344 7.14062C6.73177 6.28125 8.35938 5.83854 10.1562 5.8125C12.7865 5.86458 14.9479 6.71094 16.6406 8.35156L14.0234 10.8906C12.7995 9.79688 11.4323 9.30208 9.92188 9.40625C8.41146 9.48438 7.08333 10.0573 5.9375 11.125C4.81771 12.2188 4.21875 13.6771 4.14062 15.5C4.19271 17.2448 4.77865 18.6901 5.89844 19.8359C7.04427 20.9818 8.46354 21.5807 10.1562 21.6328C11.4323 21.6068 12.4609 21.3464 13.2422 20.8516C14.0234 20.3568 14.6094 19.7969 15 19.1719C15.3646 18.5208 15.5859 17.9479 15.6641 17.4531H10.1562V14.0938H19.375C19.4792 14.5625 19.5312 15.1094 19.5312 15.7344Z" fill="black" fill-opacity="0.72"/>
</g>
<defs>
<clipPath id="clip0_1731_14061">
<rect width="20" height="30" fill="white"/>
</clipPath>
</defs>
</svg>
