<svg width="25" height="30" viewBox="0 0 25 30" fill="none" xmlns="http://www.w3.org/2000/svg">
<g id="label-paired / lg / fiat-offramp-lg / bold" clip-path="url(#clip0_1731_5157)">
<path id="icon" d="M7.65625 13.9766C8.82812 13.9766 9.92188 13.3516 10.5078 12.3359C11.0938 11.3203 11.0938 10.0703 10.5078 9.05469C9.92188 8.03906 8.82812 7.41406 7.65625 7.375C6.48438 7.375 5.39062 8.03906 4.80469 9.05469C4.21875 10.0703 4.21875 11.3203 4.80469 12.3359C5.39062 13.3516 6.48438 13.9766 7.65625 13.9766ZM4.375 14.6797V22.1797C4.375 22.9609 5.03906 23.625 5.82031 23.625H13.3203C12.5781 22.7656 12.1484 21.5938 12.1484 20.3438C12.1484 18.6641 12.9688 17.1406 14.2578 16.2031L11.7969 13.7422C10.8594 15.0312 9.375 15.8516 7.65625 15.8516C6.40625 15.8516 5.23438 15.4219 4.375 14.6797ZM17.3047 23.625C19.1406 23.625 20.5859 22.1797 20.5859 20.3438C20.5859 18.5469 19.1406 17.0625 17.3047 17.0625C16.875 17.0625 16.4844 17.1406 16.1328 17.2969H16.0938C14.8828 17.7656 14.0234 18.9766 14.0234 20.3438C14.0234 22.1797 15.5078 23.625 17.3047 23.625ZM16.0547 15.3438C16.4453 15.2266 16.875 15.1875 17.3047 15.1875C20.1562 15.1875 22.5 17.4922 22.5 20.3438C22.5 23.1953 20.1562 25.5 17.3047 25.5H5.82031C3.98438 25.5 2.5 24.0156 2.5 22.1797V10.6953C2.5 7.84375 4.80469 5.5 7.65625 5.5C10.5078 5.5 12.8125 7.84375 12.8125 10.6953C12.8125 11.125 12.7734 11.5547 12.6562 11.9453L16.0547 15.3438ZM17.9297 9.13281C18.4375 9.13281 18.8672 9.5625 18.8672 10.0703V13.7031C18.8672 14.0938 18.6328 14.4062 18.2812 14.5625C17.9297 14.7188 17.5391 14.6406 17.2656 14.3672L13.6328 10.7344C13.2812 10.3828 13.2812 9.79688 13.6328 9.40625C13.9844 9.05469 14.6094 9.05469 14.9609 9.40625L16.9922 11.4375V10.0703C16.9922 9.5625 17.3828 9.13281 17.9297 9.13281ZM17.7734 17.5312H16.875V17.9219C16.25 18.1172 15.8594 18.7031 15.8594 19.3281C15.8594 20.1484 16.5234 20.8125 17.3047 20.8125C17.6172 20.8125 17.8516 21.0469 17.8516 21.3594C17.8516 21.6328 17.6172 21.9062 17.3047 21.9062C17.0312 21.9062 16.7578 21.6328 16.7578 21.3594V21.2031H15.8594V21.3594C15.8594 21.9844 16.25 22.5312 16.875 22.7266V23.1562H17.7734V22.7656C18.3594 22.5312 18.7891 21.9844 18.7891 21.3594C18.7891 20.5391 18.125 19.875 17.3047 19.875C17.0312 19.875 16.7578 19.6406 16.7578 19.3281C16.7578 19.0156 17.0312 18.7812 17.3047 18.7812C17.6172 18.7812 17.8516 19.0156 17.8516 19.3281V19.4453H18.7891V19.3281C18.7891 18.7031 18.3594 18.1562 17.7734 17.9219V17.5312ZM7.07031 8.03906H6.32812V8.82031H5.58594V9.5625H6.32812V11.8281H5.58594V12.5703H6.32812V13.3125H7.07031V12.5703H7.85156V13.3125H8.59375V12.5703C9.17969 12.5703 9.6875 12.0625 9.6875 11.4375C9.6875 11.1641 9.60938 10.8906 9.41406 10.6953C9.84375 10.2266 9.80469 9.52344 9.33594 9.09375C9.14062 8.89844 8.86719 8.82031 8.59375 8.82031V8.03906H7.85156V8.82031H7.07031V8.03906ZM8.59375 11.0469C8.78906 11.0469 8.94531 11.2422 8.94531 11.4375C8.94531 11.6328 8.78906 11.8281 8.59375 11.8281H7.07031V11.0469H8.59375ZM8.59375 9.5625C8.78906 9.5625 8.94531 9.71875 8.94531 9.95312C8.94531 10.1484 8.78906 10.3047 8.59375 10.3047H7.07031V9.5625H8.59375Z" fill="black" fill-opacity="0.72"/>
</g>
<defs>
<clipPath id="clip0_1731_5157">
<rect width="25" height="30" fill="white"/>
</clipPath>
</defs>
</svg>
