<svg width="30" height="36" viewBox="0 0 30 36" fill="none" xmlns="http://www.w3.org/2000/svg">
<g id="label-paired / xl / bell-slash-xl / bold" clip-path="url(#clip0_1731_6322)">
<path id="icon" d="M1.82812 6.23438L8.625 11.5781C9.75 9.79688 11.375 8.71875 13.5 8.34375V7.5C13.5 7.0625 13.6406 6.70312 13.9219 6.42188C14.2031 6.14062 14.5625 6 15 6C15.4375 6 15.7969 6.14062 16.0781 6.42188C16.3594 6.70312 16.5 7.0625 16.5 7.5V8.34375C18.25 8.65625 19.6719 9.45312 20.7656 10.7344C21.8906 12.0156 22.4688 13.5625 22.5 15.375V16.9219C22.5312 19.1094 23.2188 21.0625 24.5625 22.7812L25.2656 23.6719C25.5156 24.0156 25.5781 24.375 25.4531 24.75L29.5781 27.9844C30.0781 28.4531 30.1406 28.9844 29.7656 29.5781C29.2969 30.0781 28.7656 30.1406 28.1719 29.7656L0.421875 8.01562C-0.078125 7.54688 -0.140625 7.01563 0.234375 6.42188C0.703125 5.92187 1.23438 5.85938 1.82812 6.23438ZM10.4062 12.9375L21.1406 21.375C20.5469 19.9688 20.25 18.4844 20.25 16.9219V15.375C20.2188 14 19.75 12.8438 18.8438 11.9062C17.9062 11 16.75 10.5312 15.375 10.5H15H14.625C13.7188 10.5 12.8906 10.7188 12.1406 11.1562C11.3906 11.625 10.8125 12.2188 10.4062 12.9375ZM19.0312 25.5H5.625C5.15625 25.4688 4.8125 25.25 4.59375 24.8438C4.4375 24.4375 4.48438 24.0469 4.73438 23.6719L5.4375 22.7812C6.78125 21.0625 7.46875 19.125 7.5 16.9688V16.4062L9.70312 18.1406C9.48438 19.9844 8.875 21.6875 7.875 23.25H16.1719L19.0312 25.5ZM18 27C18 27.8125 17.7031 28.5156 17.1094 29.1094C16.5156 29.7031 15.8125 30 15 30C14.1875 30 13.4844 29.7031 12.8906 29.1094C12.2969 28.5156 12 27.8125 12 27H15H18Z" fill="black" fill-opacity="0.72"/>
</g>
<defs>
<clipPath id="clip0_1731_6322">
<rect width="30" height="36" fill="white"/>
</clipPath>
</defs>
</svg>
