<svg width="20" height="24" viewBox="0 0 20 24" fill="none" xmlns="http://www.w3.org/2000/svg">
<g id="label-paired / md / chart-trend-down-md / bold" clip-path="url(#clip0_1885_562)">
<path id="icon" d="M19.3125 19.6875C18.9375 19.875 18.5 19.7188 18.3125 19.3438L15.5312 13.75H11C10.6875 13.75 10.4375 13.5938 10.3125 13.3438L6.65625 6.03125L1.3125 8.6875C0.9375 8.875 0.5 8.71875 0.3125 8.34375C0.125 7.96875 0.28125 7.53125 0.65625 7.34375L6.65625 4.34375C7.03125 4.15625 7.46875 4.3125 7.65625 4.6875L11.4375 12.25H15.9688C16.2812 12.25 16.5312 12.4375 16.6562 12.6875L19.6562 18.6875C19.8438 19.0625 19.6875 19.5 19.3125 19.6875Z" fill="black" fill-opacity="0.72"/>
</g>
<defs>
<clipPath id="clip0_1885_562">
<rect width="20" height="24" fill="white"/>
</clipPath>
</defs>
</svg>
