<svg width="21" height="36" viewBox="0 0 21 36" fill="none" xmlns="http://www.w3.org/2000/svg">
<g id="label-paired / xl / plus-xl / regular" clip-path="url(#clip0_1731_5591)">
<path id="icon" d="M11.25 9V17.25H19.5C19.9688 17.2812 20.2188 17.5312 20.25 18C20.2188 18.4688 19.9688 18.7188 19.5 18.75H11.25V27C11.2188 27.4688 10.9688 27.7188 10.5 27.75C10.0312 27.7188 9.78125 27.4688 9.75 27V18.75H1.5C1.03125 18.7188 0.78125 18.4688 0.75 18C0.78125 17.5312 1.03125 17.2812 1.5 17.25H9.75V9C9.78125 8.53125 10.0312 8.28125 10.5 8.25C10.9688 8.28125 11.2188 8.53125 11.25 9Z" fill="black" fill-opacity="0.72"/>
</g>
<defs>
<clipPath id="clip0_1731_5591">
<rect width="21" height="36" fill="white"/>
</clipPath>
</defs>
</svg>
