<svg width="15" height="18" viewBox="0 0 15 18" fill="none" xmlns="http://www.w3.org/2000/svg">
<g id="label-paired / caption / location-crosshairs-slash-caption / regular" clip-path="url(#clip0_1731_1420)">
<path id="icon" d="M9.28125 12.8047H9.25781L9.89062 13.2969C9.29688 13.6875 8.625 13.9141 7.875 13.9766V15.125C7.85938 15.3594 7.73438 15.4844 7.5 15.5C7.26562 15.4844 7.14062 15.3594 7.125 15.125V13.9766C6.01562 13.8672 5.07812 13.4375 4.3125 12.6875C3.5625 11.9219 3.13281 10.9844 3.02344 9.875H1.875C1.64062 9.85938 1.51562 9.73438 1.5 9.5C1.51562 9.26562 1.64062 9.14062 1.875 9.125H3.02344C3.05469 8.75 3.125 8.39062 3.23438 8.04688L3.86719 8.53906C3.78906 8.85156 3.75 9.17188 3.75 9.5C3.78125 10.5625 4.14844 11.4453 4.85156 12.1484C5.55469 12.8516 6.4375 13.2188 7.5 13.25C8.14062 13.25 8.73438 13.1016 9.28125 12.8047ZM7.125 5.02344V3.875C7.14062 3.64062 7.26562 3.51563 7.5 3.5C7.73438 3.51563 7.85938 3.64062 7.875 3.875V5.02344C8.98438 5.13281 9.92188 5.5625 10.6875 6.3125C11.4375 7.07812 11.8672 8.01562 11.9766 9.125H13.125C13.3594 9.14062 13.4844 9.26562 13.5 9.5C13.4844 9.73438 13.3594 9.85938 13.125 9.875H11.9766C11.9453 10.25 11.875 10.6094 11.7656 10.9531L11.1328 10.4609C11.2109 10.1484 11.25 9.82812 11.25 9.5C11.2188 8.4375 10.8516 7.55469 10.1484 6.85156C9.44531 6.14844 8.5625 5.78125 7.5 5.75C6.85938 5.75 6.27344 5.89844 5.74219 6.19531L5.10938 5.70312C5.70312 5.3125 6.375 5.08594 7.125 5.02344ZM7.5 11.75C6.89062 11.7344 6.375 11.5312 5.95312 11.1406C5.53125 10.75 5.29688 10.25 5.25 9.64062L6.5625 10.6719C6.57812 10.6719 6.58594 10.6797 6.58594 10.6953L7.89844 11.7266C7.75781 11.7422 7.625 11.75 7.5 11.75ZM7.125 7.27344C7.25 7.25781 7.375 7.25 7.5 7.25C8.10938 7.26562 8.625 7.46875 9.04688 7.85938C9.46875 8.25 9.70312 8.75 9.75 9.35938L8.4375 8.32812C8.42188 8.32812 8.41406 8.32031 8.41406 8.30469L7.125 7.27344ZM0.609375 3.57031L14.8594 14.8438C15.0312 15 15.0547 15.1719 14.9297 15.3594C14.7578 15.5312 14.5781 15.5547 14.3906 15.4297L0.140625 4.17969C-0.03125 4.00781 -0.0546875 3.82812 0.0703125 3.64062C0.242188 3.48437 0.421875 3.46094 0.609375 3.57031Z" fill="black" fill-opacity="0.72"/>
</g>
<defs>
<clipPath id="clip0_1731_1420">
<rect width="15" height="18" fill="white"/>
</clipPath>
</defs>
</svg>
