<svg width="20" height="24" viewBox="0 0 20 24" fill="none" xmlns="http://www.w3.org/2000/svg">
<g id="label-paired / md / deal-cancellation-md / regular" clip-path="url(#clip0_1731_3280)">
<path id="icon" d="M2.8125 7.8125H5.78125C6.3125 7.8125 6.78125 7.90625 7.21875 8.09375C7.65625 8.25 8.03125 8.53125 8.34375 8.875C8.65625 9.21875 8.875 9.65625 9.0625 10.1875C9.21875 10.7188 9.3125 11.3125 9.3125 12C9.3125 12.7188 9.21875 13.3125 9.0625 13.8438C8.875 14.375 8.65625 14.8125 8.34375 15.1562C8.03125 15.5 7.65625 15.75 7.21875 15.9375C6.78125 16.125 6.3125 16.2188 5.78125 16.2188H2.8125V7.8125ZM5.78125 15C6.40625 15 6.90625 14.8125 7.28125 14.4062C7.65625 14.0312 7.84375 13.4375 7.84375 12.6875V11.3438C7.84375 10.5938 7.65625 10 7.28125 9.625C6.90625 9.21875 6.40625 9.03125 5.78125 9.03125H4.15625V15H5.78125ZM14.125 16.3438C13.0312 16.3438 12.1875 15.9688 11.5625 15.25C10.9375 14.5 10.625 13.4375 10.625 12C10.625 11.3125 10.6875 10.6875 10.875 10.1562C11.0312 9.625 11.25 9.15625 11.5625 8.8125C11.875 8.4375 12.2188 8.15625 12.6562 7.96875C13.0938 7.78125 13.5938 7.6875 14.125 7.6875C14.875 7.6875 15.4688 7.84375 15.9688 8.15625C16.4688 8.46875 16.8438 8.96875 17.125 9.59375L15.9688 10.2188C15.8438 9.8125 15.625 9.5 15.3125 9.25C15 9.03125 14.625 8.90625 14.125 8.90625C13.5 8.90625 12.9688 9.125 12.625 9.5625C12.25 10 12.0625 10.5938 12.0625 11.375V12.6562C12.0625 13.4375 12.25 14.0312 12.625 14.4688C12.9688 14.9062 13.5 15.125 14.125 15.125C14.625 15.125 15.0625 15 15.375 14.75C15.6875 14.5 15.9062 14.1562 16.0625 13.75L17.1562 14.4062C16.875 15 16.5 15.5 16 15.8438C15.4688 16.1875 14.875 16.3438 14.125 16.3438Z" fill="black" fill-opacity="0.72"/>
</g>
<defs>
<clipPath id="clip0_1731_3280">
<rect width="20" height="24" fill="white"/>
</clipPath>
</defs>
</svg>
