<svg width="17" height="22" viewBox="0 0 17 22" fill="none" xmlns="http://www.w3.org/2000/svg">
<g id="label-paired / sm / microsoft-store-sm" clip-path="url(#clip0_1731_13871)">
<path id="icon" d="M5.75195 7.25V5.69141C5.75195 4.73438 6.24414 4.43359 7.17383 4.21484C8.56836 3.88672 8.65039 4.78906 8.65039 5.36328V6.67578L9.00586 6.62109V5.39062C9.00586 4.29688 8.65039 3.50391 7.11914 3.85938C6.27148 4.02344 5.42383 4.24219 5.42383 5.66406V7.33203L5.75195 7.25ZM9.33398 5.08984C9.30664 4.95312 9.2793 4.84375 9.2793 4.73438C10.3457 4.59766 10.5371 4.89844 10.5371 6.10156V6.32031L10.209 6.375V6.10156C10.209 6.07422 10.209 6.07422 10.209 6.04688C10.209 5.30859 10.209 4.95312 9.33398 5.08984ZM7.2832 6.42969C7.2832 5.33594 7.7207 5.17188 8.26758 4.98047C8.29492 5.08984 8.32227 5.19922 8.32227 5.33594C7.83008 5.55469 7.63867 5.69141 7.63867 6.42969V6.89453L7.2832 6.94922V6.42969ZM2.85352 8.26172L12.2324 6.375L14.1191 7.05859V16.2461L12.2324 16.9297L2.85352 15.0703V8.26172ZM4.87695 13.375L6.95508 13.6484V11.6523H4.87695V13.375ZM4.87695 11.3789H6.95508V9.49219L4.87695 9.79297V11.3789ZM7.22852 13.6758L9.85352 14.0586V11.6523H7.22852V13.6758ZM7.22852 11.3789H9.85352V9.10938L7.22852 9.49219V11.3789Z" fill="black" fill-opacity="0.72"/>
</g>
<defs>
<clipPath id="clip0_1731_13871">
<rect width="17" height="22" fill="white"/>
</clipPath>
</defs>
</svg>
