<svg width="24" height="36" viewBox="0 0 24 36" fill="none" xmlns="http://www.w3.org/2000/svg">
<g id="label-paired / xl / pen-circle-xl / bold" clip-path="url(#clip0_1731_6505)">
<path id="icon" d="M21.75 18C21.75 16.2188 21.3125 14.5938 20.4375 13.125C19.5938 11.6562 18.4062 10.4688 16.875 9.5625C15.3438 8.6875 13.7188 8.25 12 8.25C10.2812 8.25 8.65625 8.6875 7.125 9.5625C5.59375 10.4688 4.40625 11.6562 3.5625 13.125C2.6875 14.5938 2.25 16.2188 2.25 18C2.25 19.7812 2.6875 21.4062 3.5625 22.875C4.40625 24.3438 5.59375 25.5312 7.125 26.4375C8.65625 27.3125 10.2812 27.75 12 27.75C13.7188 27.75 15.3438 27.3125 16.875 26.4375C18.4062 25.5312 19.5938 24.3438 20.4375 22.875C21.3125 21.4062 21.75 19.7812 21.75 18ZM0 18C0.03125 15.8125 0.5625 13.8125 1.59375 12C2.65625 10.1875 4.125 8.71875 6 7.59375C7.90625 6.53125 9.90625 6 12 6C14.0938 6 16.0938 6.53125 18 7.59375C19.875 8.71875 21.3438 10.1875 22.4062 12C23.4375 13.8125 23.9688 15.8125 24 18C23.9688 20.1875 23.4375 22.1875 22.4062 24C21.3438 25.8125 19.875 27.2812 18 28.4062C16.0938 29.4688 14.0938 30 12 30C9.90625 30 7.90625 29.4688 6 28.4062C4.125 27.2812 2.65625 25.8125 1.59375 24C0.5625 22.1875 0.03125 20.1875 0 18ZM16.7812 12.5625L17.4375 13.2188C17.8125 13.5938 18 14.0312 18 14.5312C18 15.0312 17.8125 15.4844 17.4375 15.8906L16.4531 16.875L13.125 13.5469L14.1094 12.5625C14.5156 12.1875 14.9531 12 15.4219 12C15.9219 12 16.375 12.1875 16.7812 12.5625ZM7.125 19.5469L12.0469 14.625L15.375 17.9531L10.4531 22.875C10.2656 23.0625 10.0312 23.1875 9.75 23.25L6.9375 23.9531C6.65625 24.0156 6.42188 23.9531 6.23438 23.7656C6.04688 23.5781 5.98438 23.3438 6.04688 23.0625L6.75 20.25C6.8125 19.9688 6.9375 19.7344 7.125 19.5469Z" fill="black" fill-opacity="0.72"/>
</g>
<defs>
<clipPath id="clip0_1731_6505">
<rect width="24" height="36" fill="white"/>
</clipPath>
</defs>
</svg>
