<svg width="18" height="24" viewBox="0 0 18 24" fill="none" xmlns="http://www.w3.org/2000/svg">
<g id="label-paired / md / link-simple-md / bold" clip-path="url(#clip0_1731_3836)">
<path id="icon" d="M0 12C0.0416667 10.5833 0.53125 9.40625 1.46875 8.46875C2.40625 7.53125 3.58333 7.04167 5 7H7.25C7.70833 7.04167 7.95833 7.29167 8 7.75C7.95833 8.20833 7.70833 8.45833 7.25 8.5H5C4 8.52083 3.17708 8.86458 2.53125 9.53125C1.86458 10.1771 1.52083 11 1.5 12C1.52083 13 1.86458 13.8229 2.53125 14.4688C3.17708 15.1354 4 15.4792 5 15.5H7.25C7.70833 15.5417 7.95833 15.7917 8 16.25C7.95833 16.7083 7.70833 16.9583 7.25 17H5C3.58333 16.9583 2.40625 16.4688 1.46875 15.5312C0.53125 14.5938 0.0416667 13.4167 0 12ZM18 12C17.9583 13.4167 17.4688 14.5938 16.5312 15.5312C15.5938 16.4688 14.4167 16.9583 13 17H10.75C10.2917 16.9583 10.0417 16.7083 10 16.25C10.0417 15.7917 10.2917 15.5417 10.75 15.5H13C14 15.4792 14.8229 15.1354 15.4688 14.4688C16.1354 13.8229 16.4792 13 16.5 12C16.4792 11 16.1354 10.1771 15.4688 9.53125C14.8229 8.86458 14 8.52083 13 8.5H10.75C10.2917 8.45833 10.0417 8.20833 10 7.75C10.0417 7.29167 10.2917 7.04167 10.75 7H13C14.4167 7.04167 15.5938 7.53125 16.5312 8.46875C17.4688 9.40625 17.9583 10.5833 18 12ZM5.75 11.25H12.25C12.7083 11.2917 12.9583 11.5417 13 12C12.9583 12.4583 12.7083 12.7083 12.25 12.75H5.75C5.29167 12.7083 5.04167 12.4583 5 12C5.04167 11.5417 5.29167 11.2917 5.75 11.25Z" fill="black" fill-opacity="0.72"/>
</g>
<defs>
<clipPath id="clip0_1731_3836">
<rect width="18" height="24" fill="white"/>
</clipPath>
</defs>
</svg>
