<svg width="24" height="36" viewBox="0 0 24 36" fill="none" xmlns="http://www.w3.org/2000/svg">
<g id="label-paired / xl / chart-line-xl / bold" clip-path="url(#clip0_1731_6280)">
<path id="icon" d="M2.25 8.625V25.125C2.3125 25.8125 2.6875 26.1875 3.375 26.25H22.875C23.5625 26.3125 23.9375 26.6875 24 27.375C23.9375 28.0625 23.5625 28.4375 22.875 28.5H3.375C2.40625 28.4688 1.60938 28.1406 0.984375 27.5156C0.359375 26.8906 0.03125 26.0938 0 25.125V8.625C0.0625 7.9375 0.4375 7.5625 1.125 7.5C1.8125 7.5625 2.1875 7.9375 2.25 8.625ZM22.1719 13.9219L15.7969 20.2969C15.2656 20.7344 14.7344 20.7344 14.2031 20.2969L10.5 16.5938L6.79688 20.2969C6.26562 20.7344 5.73438 20.7344 5.20312 20.2969C4.76562 19.7656 4.76562 19.2344 5.20312 18.7031L9.70312 14.2031C9.92188 13.9844 10.1875 13.875 10.5 13.875C10.8125 13.875 11.0781 13.9844 11.2969 14.2031L15 17.9062L20.5781 12.3281C21.1094 11.8906 21.6406 11.8906 22.1719 12.3281C22.6094 12.8594 22.6094 13.3906 22.1719 13.9219Z" fill="black" fill-opacity="0.72"/>
</g>
<defs>
<clipPath id="clip0_1731_6280">
<rect width="24" height="36" fill="white"/>
</clipPath>
</defs>
</svg>
