<svg width="15" height="36" viewBox="0 0 15 36" fill="none" xmlns="http://www.w3.org/2000/svg">
<g id="label-paired / xl / euro-sign-xl / regular" clip-path="url(#clip0_1731_6733)">
<path id="icon" d="M1.59375 16.5H0.75C0.28125 16.4688 0.03125 16.2188 0 15.75C0.03125 15.2812 0.28125 15.0312 0.75 15H1.92188C2.60938 12.7812 3.85938 10.9844 5.67188 9.60938C7.48438 8.23438 9.59375 7.53125 12 7.5H14.2969C14.7656 7.53125 15.0156 7.78125 15.0469 8.25C15.0156 8.71875 14.7656 8.96875 14.2969 9H12C10 9.03125 8.25 9.59375 6.75 10.6875C5.25 11.7812 4.17188 13.2188 3.51562 15H12.75C13.2188 15.0312 13.4688 15.2812 13.5 15.75C13.4688 16.2188 13.2188 16.4688 12.75 16.5H3.14062C3.04688 17 3 17.5 3 18C3 18.5 3.04688 19 3.14062 19.5H12.75C13.2188 19.5312 13.4688 19.7812 13.5 20.25C13.4688 20.7188 13.2188 20.9688 12.75 21H3.51562C4.17188 22.7812 5.25 24.2188 6.75 25.3125C8.25 26.4062 10 26.9688 12 27H14.2969C14.7656 27.0312 15.0156 27.2812 15.0469 27.75C15.0156 28.2188 14.7656 28.4688 14.2969 28.5H12C9.59375 28.4688 7.48438 27.7656 5.67188 26.3906C3.85938 25.0156 2.60938 23.2188 1.92188 21H0.75C0.28125 20.9688 0.03125 20.7188 0 20.25C0.03125 19.7812 0.28125 19.5312 0.75 19.5H1.59375C1.53125 19 1.5 18.5 1.5 18C1.5 17.5 1.53125 17 1.59375 16.5Z" fill="black" fill-opacity="0.72"/>
</g>
<defs>
<clipPath id="clip0_1731_6733">
<rect width="15" height="36" fill="white"/>
</clipPath>
</defs>
</svg>
