<svg width="18" height="30" viewBox="0 0 18 30" fill="none" xmlns="http://www.w3.org/2000/svg">
<g id="label-paired / lg / copy-lg / bold" clip-path="url(#clip0_1731_4991)">
<path id="icon" d="M15.25 18.625C15.6406 18.599 15.849 18.3906 15.875 18V10.0312L13.2188 7.375H7.75C7.35938 7.40104 7.15104 7.60938 7.125 8V18C7.15104 18.3906 7.35938 18.599 7.75 18.625H15.25ZM7.75 20.5C7.04688 20.474 6.46094 20.2266 5.99219 19.7578C5.52344 19.2891 5.27604 18.7031 5.25 18V8C5.27604 7.29688 5.52344 6.71094 5.99219 6.24219C6.46094 5.77344 7.04688 5.52604 7.75 5.5H13.2188C13.7396 5.5 14.1823 5.68229 14.5469 6.04688L17.2031 8.70312C17.5677 9.06771 17.75 9.51042 17.75 10.0312V18C17.724 18.7031 17.4766 19.2891 17.0078 19.7578C16.5391 20.2266 15.9531 20.474 15.25 20.5H7.75ZM2.75 10.5H4V12.375H2.75C2.35938 12.401 2.15104 12.6094 2.125 13V23C2.15104 23.3906 2.35938 23.599 2.75 23.625H10.25C10.6406 23.599 10.849 23.3906 10.875 23V21.75H12.75V23C12.724 23.7031 12.4766 24.2891 12.0078 24.7578C11.5391 25.2266 10.9531 25.474 10.25 25.5H2.75C2.04688 25.474 1.46094 25.2266 0.992188 24.7578C0.523438 24.2891 0.276042 23.7031 0.25 23V13C0.276042 12.2969 0.523438 11.7109 0.992188 11.2422C1.46094 10.7734 2.04688 10.526 2.75 10.5Z" fill="black" fill-opacity="0.72"/>
</g>
<defs>
<clipPath id="clip0_1731_4991">
<rect width="18" height="30" fill="white"/>
</clipPath>
</defs>
</svg>
