<svg width="21" height="36" viewBox="0 0 21 36" fill="none" xmlns="http://www.w3.org/2000/svg">
<g id="label-paired / xl / square-check-xl / regular" clip-path="url(#clip0_1731_5818)">
<path id="icon" d="M3 9C2.5625 9 2.20312 9.14062 1.92188 9.42188C1.64062 9.70312 1.5 10.0625 1.5 10.5V25.5C1.5 25.9375 1.64062 26.2969 1.92188 26.5781C2.20312 26.8594 2.5625 27 3 27H18C18.4375 27 18.7969 26.8594 19.0781 26.5781C19.3594 26.2969 19.5 25.9375 19.5 25.5V10.5C19.5 10.0625 19.3594 9.70312 19.0781 9.42188C18.7969 9.14062 18.4375 9 18 9H3ZM0 10.5C0.03125 9.65625 0.328125 8.95312 0.890625 8.39062C1.45312 7.82812 2.15625 7.53125 3 7.5H18C18.8438 7.53125 19.5469 7.82812 20.1094 8.39062C20.6719 8.95312 20.9688 9.65625 21 10.5V25.5C20.9688 26.3438 20.6719 27.0469 20.1094 27.6094C19.5469 28.1719 18.8438 28.4688 18 28.5H3C2.15625 28.4688 1.45312 28.1719 0.890625 27.6094C0.328125 27.0469 0.03125 26.3438 0 25.5V10.5ZM15.5156 15.5156L9.51562 21.5156C9.17188 21.8281 8.82812 21.8281 8.48438 21.5156L5.48438 18.5156C5.17188 18.1719 5.17188 17.8281 5.48438 17.4844C5.82812 17.1719 6.17188 17.1719 6.51562 17.4844L9 19.9219L14.4844 14.4844C14.8281 14.1719 15.1719 14.1719 15.5156 14.4844C15.8281 14.8281 15.8281 15.1719 15.5156 15.5156Z" fill="black" fill-opacity="0.72"/>
</g>
<defs>
<clipPath id="clip0_1731_5818">
<rect width="21" height="36" fill="white"/>
</clipPath>
</defs>
</svg>
