<svg width="15" height="18" viewBox="0 0 15 18" fill="none" xmlns="http://www.w3.org/2000/svg">
<g id="label-paired / caption / laptop-caption / bold" clip-path="url(#clip0_1731_1386)">
<path id="icon" d="M12 5.375H3C2.76562 5.39062 2.64062 5.51562 2.625 5.75V11H1.5V5.75C1.51562 5.32812 1.66406 4.97656 1.94531 4.69531C2.22656 4.41406 2.57812 4.26562 3 4.25H12C12.4219 4.26562 12.7734 4.41406 13.0547 4.69531C13.3359 4.97656 13.4844 5.32812 13.5 5.75V11H12.375V5.75C12.3594 5.51562 12.2344 5.39062 12 5.375ZM2.25 13.625H12.75C13.2656 13.5938 13.6172 13.3438 13.8047 12.875H1.19531C1.38281 13.3438 1.73438 13.5938 2.25 13.625ZM0 12.5C0 12.2812 0.0703125 12.1016 0.210938 11.9609C0.351562 11.8203 0.53125 11.75 0.75 11.75H14.25C14.4688 11.75 14.6484 11.8203 14.7891 11.9609C14.9297 12.1016 15 12.2812 15 12.5C14.9844 13.1406 14.7656 13.6719 14.3438 14.0938C13.9219 14.5156 13.3906 14.7344 12.75 14.75H2.25C1.60938 14.7344 1.07812 14.5156 0.65625 14.0938C0.234375 13.6719 0.015625 13.1406 0 12.5Z" fill="black" fill-opacity="0.72"/>
</g>
<defs>
<clipPath id="clip0_1731_1386">
<rect width="15" height="18" fill="white"/>
</clipPath>
</defs>
</svg>
