<svg width="20" height="24" viewBox="0 0 20 24" fill="none" xmlns="http://www.w3.org/2000/svg">
<g id="label-paired / md / messages-question-md / bold" clip-path="url(#clip0_1731_3856)">
<path id="icon" d="M2.25 5.5C1.79167 5.54167 1.54167 5.79167 1.5 6.25V11.75C1.54167 12.2083 1.79167 12.4583 2.25 12.5H3.75C4.20833 12.5417 4.45833 12.7917 4.5 13.25V13.8438L6.34375 12.625C6.46875 12.5417 6.60417 12.5 6.75 12.5H10.75C11.2083 12.4583 11.4583 12.2083 11.5 11.75V6.25C11.4583 5.79167 11.2083 5.54167 10.75 5.5H2.25ZM0 6.25C0.0208333 5.60417 0.239583 5.07292 0.65625 4.65625C1.07292 4.23958 1.60417 4.02083 2.25 4H10.75C11.3958 4.02083 11.9271 4.23958 12.3438 4.65625C12.7604 5.07292 12.9792 5.60417 13 6.25V11.75C12.9792 12.3958 12.7604 12.9271 12.3438 13.3438C11.9271 13.7604 11.3958 13.9792 10.75 14H6.96875L4.15625 15.875C3.90625 16.0208 3.65625 16.0312 3.40625 15.9062C3.15625 15.7604 3.02083 15.5417 3 15.25V14H2.25C1.60417 13.9792 1.07292 13.7604 0.65625 13.3438C0.239583 12.9271 0.0208333 12.3958 0 11.75V6.25ZM8 15H9.5V15.75C9.54167 16.2083 9.79167 16.4583 10.25 16.5H13.25C13.3958 16.5 13.5312 16.5417 13.6562 16.625L15.5 17.8438V17.25C15.5417 16.7917 15.7917 16.5417 16.25 16.5H17.75C18.2083 16.4583 18.4583 16.2083 18.5 15.75V10.25C18.4583 9.79167 18.2083 9.54167 17.75 9.5H14V8H17.75C18.3958 8.02083 18.9271 8.23958 19.3438 8.65625C19.7604 9.07292 19.9792 9.60417 20 10.25V15.75C19.9792 16.3958 19.7604 16.9271 19.3438 17.3438C18.9271 17.7604 18.3958 17.9792 17.75 18H17V19.25C16.9792 19.5417 16.8438 19.7604 16.5938 19.9062C16.3438 20.0312 16.0938 20.0208 15.8438 19.875L13.0312 18H10.25C9.60417 17.9792 9.07292 17.7604 8.65625 17.3438C8.23958 16.9271 8.02083 16.3958 8 15.75V15ZM4.625 7C4.83333 6.5 5.20833 6.22917 5.75 6.1875H7.0625C7.4375 6.20833 7.76042 6.34375 8.03125 6.59375C8.28125 6.86458 8.40625 7.1875 8.40625 7.5625C8.40625 8.08333 8.17708 8.47917 7.71875 8.75L7 9.15625V9.1875C6.97917 9.47917 6.8125 9.64583 6.5 9.6875C6.1875 9.64583 6.02083 9.47917 6 9.1875V8.875C6 8.6875 6.08333 8.54167 6.25 8.4375L7.21875 7.875C7.34375 7.8125 7.40625 7.70833 7.40625 7.5625C7.38542 7.33333 7.27083 7.20833 7.0625 7.1875H5.75C5.66667 7.20833 5.60417 7.26042 5.5625 7.34375V7.375C5.41667 7.64583 5.19792 7.73958 4.90625 7.65625C4.63542 7.53125 4.54167 7.32292 4.625 7.03125V7ZM5.78125 11.125C5.78125 10.8542 5.89583 10.6354 6.125 10.4688C6.375 10.3229 6.625 10.3229 6.875 10.4688C7.10417 10.6354 7.21875 10.8542 7.21875 11.125C7.21875 11.3958 7.10417 11.6146 6.875 11.7812C6.625 11.9271 6.375 11.9271 6.125 11.7812C5.89583 11.6146 5.78125 11.3958 5.78125 11.125Z" fill="black" fill-opacity="0.72"/>
</g>
<defs>
<clipPath id="clip0_1731_3856">
<rect width="20" height="24" fill="white"/>
</clipPath>
</defs>
</svg>
