<svg width="11" height="18" viewBox="0 0 11 18" fill="none" xmlns="http://www.w3.org/2000/svg">
<g id="label-paired / caption / square-check-caption / regular" clip-path="url(#clip0_1731_786)">
<path id="icon" d="M1.75 5C1.53125 5 1.35156 5.07031 1.21094 5.21094C1.07031 5.35156 1 5.53125 1 5.75V13.25C1 13.4688 1.07031 13.6484 1.21094 13.7891C1.35156 13.9297 1.53125 14 1.75 14H9.25C9.46875 14 9.64844 13.9297 9.78906 13.7891C9.92969 13.6484 10 13.4688 10 13.25V5.75C10 5.53125 9.92969 5.35156 9.78906 5.21094C9.64844 5.07031 9.46875 5 9.25 5H1.75ZM0.25 5.75C0.265625 5.32812 0.414062 4.97656 0.695312 4.69531C0.976562 4.41406 1.32812 4.26562 1.75 4.25H9.25C9.67188 4.26562 10.0234 4.41406 10.3047 4.69531C10.5859 4.97656 10.7344 5.32812 10.75 5.75V13.25C10.7344 13.6719 10.5859 14.0234 10.3047 14.3047C10.0234 14.5859 9.67188 14.7344 9.25 14.75H1.75C1.32812 14.7344 0.976562 14.5859 0.695312 14.3047C0.414062 14.0234 0.265625 13.6719 0.25 13.25V5.75ZM8.00781 8.25781L5.00781 11.2578C4.83594 11.4141 4.66406 11.4141 4.49219 11.2578L2.99219 9.75781C2.83594 9.58594 2.83594 9.41406 2.99219 9.24219C3.16406 9.08594 3.33594 9.08594 3.50781 9.24219L4.75 10.4609L7.49219 7.74219C7.66406 7.58594 7.83594 7.58594 8.00781 7.74219C8.16406 7.91406 8.16406 8.08594 8.00781 8.25781Z" fill="black" fill-opacity="0.72"/>
</g>
<defs>
<clipPath id="clip0_1731_786">
<rect width="11" height="18" fill="white"/>
</clipPath>
</defs>
</svg>
