<svg width="20" height="24" viewBox="0 0 20 24" fill="none" xmlns="http://www.w3.org/2000/svg">
<g id="label-paired / md / box-archive-circle-arrow-up-md / regular" clip-path="url(#clip0_1731_3230)">
<path id="icon" d="M0 6C0 5.46875 0.4375 5 1 5C5.65625 5 10.3125 5 15 5C15.5312 5 16 5.46875 16 6C16 6.6875 16 7.34375 16 8C16 8.5625 15.5312 9 15 9C14.6562 9 14.3125 9 14 9C10 9 6 9 2 9C1.65625 9 1.3125 9 1 9C0.4375 9 0 8.5625 0 8C0 7.34375 0 6.6875 0 6ZM1 6C1 6.6875 1 7.34375 1 8C1.3125 8 1.65625 8 2 8C6 8 10 8 14 8C14.3125 8 14.6562 8 15 8C15 7.34375 15 6.6875 15 6H1ZM1 10H2C2 12.3438 2 14.6875 2 17C2 17.5625 2.4375 18 3 18C5.53125 18 8.0625 18 10.5938 18C10.7812 18.375 11 18.7188 11.25 19C8.5 19 5.75 19 3 19C1.875 19 1 18.125 1 17C1 14.6875 1 12.3438 1 10ZM5 11.5C5 11.25 5.21875 11 5.5 11C7.15625 11 8.8125 11 10.5 11C10.75 11 11 11.25 11 11.5C11 11.7812 10.75 12 10.5 12C8.8125 12 7.15625 12 5.5 12C5.21875 12 5 11.7812 5 11.5ZM11.5938 13.25C12.4062 11.875 13.875 11 15.5 11C17.0938 11 18.5938 11.875 19.375 13.25C20.1875 14.6562 20.1875 16.375 19.375 17.75C18.5938 19.1562 17.0938 20 15.5 20C13.875 20 12.4062 19.1562 11.5938 17.75C10.7812 16.375 10.7812 14.6562 11.5938 13.25ZM12.4688 13.75C11.8438 14.8438 11.8438 16.1875 12.4688 17.25C13.0938 18.3438 14.25 19 15.5 19C16.75 19 17.9062 18.3438 18.5312 17.25C19.1562 16.1875 19.1562 14.8438 18.5312 13.75C17.9062 12.6875 16.75 12 15.5 12C14.25 12 13.0938 12.6875 12.4688 13.75ZM13.375 14.9062L15.125 13.1562C15.3125 12.9688 15.6562 12.9688 15.8438 13.1562C16.4375 13.75 17 14.3125 17.5938 14.9062C17.7812 15.0938 17.7812 15.4375 17.5938 15.625C17.4062 15.8125 17.0625 15.8125 16.875 15.625C16.5938 15.3125 16.2812 15.0312 16 14.7188C16 15.6562 16 16.5938 16 17.5C16 17.7812 15.75 18 15.5 18C15.2188 18 15 17.7812 15 17.5C15 16.5938 15 15.6562 15 14.7188C14.6875 15.0312 14.375 15.3125 14.0938 15.625C13.9062 15.8125 13.5625 15.8125 13.375 15.625C13.1875 15.4375 13.1875 15.0938 13.375 14.9062ZM14 10H15C15 10.0312 15 10.0312 15 10.0312C14.6562 10.0625 14.3125 10.125 14 10.2188C14 10.1562 14 10.0938 14 10Z" fill="black" fill-opacity="0.72"/>
</g>
<defs>
<clipPath id="clip0_1731_3230">
<rect width="20" height="24" fill="white"/>
</clipPath>
</defs>
</svg>
