<svg width="16" height="24" viewBox="0 0 16 24" fill="none" xmlns="http://www.w3.org/2000/svg">
<g id="label-paired / md / circle-dot-md / fill" clip-path="url(#clip0_1731_3320)">
<path id="icon" d="M8 20C6.54167 19.9792 5.20833 19.625 4 18.9375C2.79167 18.2292 1.8125 17.25 1.0625 16C0.354167 14.7292 0 13.3958 0 12C0 10.6042 0.354167 9.27083 1.0625 8C1.8125 6.75 2.79167 5.77083 4 5.0625C5.20833 4.375 6.54167 4.02083 8 4C9.45833 4.02083 10.7917 4.375 12 5.0625C13.2083 5.77083 14.1875 6.75 14.9375 8C15.6458 9.27083 16 10.6042 16 12C16 13.3958 15.6458 14.7292 14.9375 16C14.1875 17.25 13.2083 18.2292 12 18.9375C10.7917 19.625 9.45833 19.9792 8 20ZM8 9C7.45833 9 6.95833 9.13542 6.5 9.40625C6.04167 9.67708 5.67708 10.0417 5.40625 10.5C5.13542 10.9792 5 11.4792 5 12C5 12.5208 5.13542 13.0208 5.40625 13.5C5.67708 13.9583 6.04167 14.3229 6.5 14.5938C6.95833 14.8646 7.45833 15 8 15C8.54167 15 9.04167 14.8646 9.5 14.5938C9.95833 14.3229 10.3229 13.9583 10.5938 13.5C10.8646 13.0208 11 12.5208 11 12C11 11.4792 10.8646 10.9792 10.5938 10.5C10.3229 10.0417 9.95833 9.67708 9.5 9.40625C9.04167 9.13542 8.54167 9 8 9Z" fill="black" fill-opacity="0.72"/>
</g>
<defs>
<clipPath id="clip0_1731_3320">
<rect width="16" height="24" fill="white"/>
</clipPath>
</defs>
</svg>
