<svg width="15" height="30" viewBox="0 0 15 30" fill="none" xmlns="http://www.w3.org/2000/svg">
<g id="label-paired / lg / arrow-down-lg / bold" clip-path="url(#clip0_1731_4314)">
<path id="icon" d="M6.83594 23.9766L0.273438 17.1016C-0.0911458 16.6328 -0.078125 16.1901 0.3125 15.7734C0.755208 15.4089 1.1849 15.4089 1.60156 15.7734L6.5625 20.9688V7.6875C6.61458 7.11458 6.92708 6.80208 7.5 6.75C8.07292 6.80208 8.38542 7.11458 8.4375 7.6875V20.9688L13.3984 15.8125C13.8151 15.4219 14.2578 15.4089 14.7266 15.7734C15.0911 16.1901 15.0911 16.6328 14.7266 17.1016L8.16406 23.9766C7.98177 24.1589 7.76042 24.25 7.5 24.25C7.23958 24.25 7.01823 24.1589 6.83594 23.9766Z" fill="black" fill-opacity="0.72"/>
</g>
<defs>
<clipPath id="clip0_1731_4314">
<rect width="15" height="30" fill="white"/>
</clipPath>
</defs>
</svg>
