<svg width="11" height="18" viewBox="0 0 11 18" fill="none" xmlns="http://www.w3.org/2000/svg">
<g id="label-paired / caption / qrcode-caption / regular" clip-path="url(#clip0_1731_1742)">
<path id="icon" d="M3.625 5H1.375C1.14062 5.01562 1.01562 5.14062 1 5.375V7.625C1.01562 7.85938 1.14062 7.98438 1.375 8H3.625C3.85938 7.98438 3.98438 7.85938 4 7.625V5.375C3.98438 5.14062 3.85938 5.01562 3.625 5ZM1.375 4.25H3.625C3.9375 4.26562 4.20312 4.375 4.42188 4.57812C4.625 4.79688 4.73438 5.0625 4.75 5.375V7.625C4.73438 7.9375 4.625 8.20312 4.42188 8.42188C4.20312 8.625 3.9375 8.73438 3.625 8.75H1.375C1.0625 8.73438 0.796875 8.625 0.578125 8.42188C0.375 8.20312 0.265625 7.9375 0.25 7.625V5.375C0.265625 5.0625 0.375 4.79688 0.578125 4.57812C0.796875 4.375 1.0625 4.26562 1.375 4.25ZM3.625 11H1.375C1.14062 11.0156 1.01562 11.1406 1 11.375V13.625C1.01562 13.8594 1.14062 13.9844 1.375 14H3.625C3.85938 13.9844 3.98438 13.8594 4 13.625V11.375C3.98438 11.1406 3.85938 11.0156 3.625 11ZM1.375 10.25H3.625C3.9375 10.2656 4.20312 10.375 4.42188 10.5781C4.625 10.7969 4.73438 11.0625 4.75 11.375V13.625C4.73438 13.9375 4.625 14.2031 4.42188 14.4219C4.20312 14.625 3.9375 14.7344 3.625 14.75H1.375C1.0625 14.7344 0.796875 14.625 0.578125 14.4219C0.375 14.2031 0.265625 13.9375 0.25 13.625V11.375C0.265625 11.0625 0.375 10.7969 0.578125 10.5781C0.796875 10.375 1.0625 10.2656 1.375 10.25ZM7.375 5C7.14062 5.01562 7.01562 5.14062 7 5.375V7.625C7.01562 7.85938 7.14062 7.98438 7.375 8H9.625C9.85938 7.98438 9.98438 7.85938 10 7.625V5.375C9.98438 5.14062 9.85938 5.01562 9.625 5H7.375ZM6.25 5.375C6.26562 5.0625 6.375 4.79688 6.57812 4.57812C6.79688 4.375 7.0625 4.26562 7.375 4.25H9.625C9.9375 4.26562 10.2031 4.375 10.4219 4.57812C10.625 4.79688 10.7344 5.0625 10.75 5.375V7.625C10.7344 7.9375 10.625 8.20312 10.4219 8.42188C10.2031 8.625 9.9375 8.73438 9.625 8.75H7.375C7.0625 8.73438 6.79688 8.625 6.57812 8.42188C6.375 8.20312 6.26562 7.9375 6.25 7.625V5.375ZM6.25 10.625C6.26562 10.3906 6.39062 10.2656 6.625 10.25H8.125C8.35938 10.2656 8.48438 10.3906 8.5 10.625V12.2188H10V10.625C10.0156 10.3906 10.1406 10.2656 10.375 10.25C10.6094 10.2656 10.7344 10.3906 10.75 10.625V12.5938C10.7344 12.8281 10.6094 12.9531 10.375 12.9688H8.125C7.89062 12.9531 7.76562 12.8281 7.75 12.5938V11H7V14.5625C6.98438 14.7969 6.85938 14.9219 6.625 14.9375C6.39062 14.9219 6.26562 14.7969 6.25 14.5625V10.625ZM2.3125 5.9375H2.6875C2.92188 5.95312 3.04688 6.07812 3.0625 6.3125V6.6875C3.04688 6.92188 2.92188 7.04688 2.6875 7.0625H2.3125C2.07812 7.04688 1.95312 6.92188 1.9375 6.6875V6.3125C1.95312 6.07812 2.07812 5.95312 2.3125 5.9375ZM1.9375 12.3125C1.95312 12.0781 2.07812 11.9531 2.3125 11.9375H2.6875C2.92188 11.9531 3.04688 12.0781 3.0625 12.3125V12.6875C3.04688 12.9219 2.92188 13.0469 2.6875 13.0625H2.3125C2.07812 13.0469 1.95312 12.9219 1.9375 12.6875V12.3125ZM8.3125 5.9375H8.6875C8.92188 5.95312 9.04688 6.07812 9.0625 6.3125V6.6875C9.04688 6.92188 8.92188 7.04688 8.6875 7.0625H8.3125C8.07812 7.04688 7.95312 6.92188 7.9375 6.6875V6.3125C7.95312 6.07812 8.07812 5.95312 8.3125 5.9375ZM7.75 14C7.76562 13.7656 7.89062 13.6406 8.125 13.625H8.5C8.73438 13.6406 8.85938 13.7656 8.875 14V14.375C8.85938 14.6094 8.73438 14.7344 8.5 14.75H8.125C7.89062 14.7344 7.76562 14.6094 7.75 14.375V14ZM10 13.625H10.375C10.6094 13.6406 10.7344 13.7656 10.75 14V14.375C10.7344 14.6094 10.6094 14.7344 10.375 14.75H10C9.76562 14.7344 9.64062 14.6094 9.625 14.375V14C9.64062 13.7656 9.76562 13.6406 10 13.625Z" fill="black" fill-opacity="0.72"/>
</g>
<defs>
<clipPath id="clip0_1731_1742">
<rect width="11" height="18" fill="white"/>
</clipPath>
</defs>
</svg>
