<svg width="14" height="24" viewBox="0 0 14 24" fill="none" xmlns="http://www.w3.org/2000/svg">
<g id="label-paired / md / bars-md / regular" clip-path="url(#clip0_1731_3165)">
<path id="icon" d="M0 6.5C0.0208333 6.1875 0.1875 6.02083 0.5 6H13.5C13.8125 6.02083 13.9792 6.1875 14 6.5C13.9792 6.8125 13.8125 6.97917 13.5 7H0.5C0.1875 6.97917 0.0208333 6.8125 0 6.5ZM0 11.5C0.0208333 11.1875 0.1875 11.0208 0.5 11H13.5C13.8125 11.0208 13.9792 11.1875 14 11.5C13.9792 11.8125 13.8125 11.9792 13.5 12H0.5C0.1875 11.9792 0.0208333 11.8125 0 11.5ZM14 16.5C13.9792 16.8125 13.8125 16.9792 13.5 17H0.5C0.1875 16.9792 0.0208333 16.8125 0 16.5C0.0208333 16.1875 0.1875 16.0208 0.5 16H13.5C13.8125 16.0208 13.9792 16.1875 14 16.5Z" fill="black" fill-opacity="0.72"/>
</g>
<defs>
<clipPath id="clip0_1731_3165">
<rect width="14" height="24" fill="white"/>
</clipPath>
</defs>
</svg>
