<svg width="15" height="18" viewBox="0 0 15 18" fill="none" xmlns="http://www.w3.org/2000/svg">
<g id="label-paired / caption / bell-on-caption / regular" clip-path="url(#clip0_1731_1293)">
<path id="icon" d="M14.2031 3.71094C14.2969 3.91406 14.2422 4.07812 14.0391 4.20312L12.5391 4.95312C12.3203 5.04688 12.1562 4.99219 12.0469 4.78906C11.9531 4.57031 12.0078 4.40625 12.2109 4.29688L13.7109 3.54688C13.9141 3.45312 14.0781 3.50781 14.2031 3.71094ZM7.125 3.875C7.14062 3.64062 7.26562 3.51563 7.5 3.5C7.73438 3.51563 7.85938 3.64062 7.875 3.875V4.27344C8.84375 4.38281 9.64062 4.78125 10.2656 5.46875C10.9062 6.15625 11.2344 7 11.25 8V8.67969C11.2656 9.74219 11.6406 10.6562 12.375 11.4219L12.4453 11.4922C12.6484 11.6953 12.75 11.9375 12.75 12.2188C12.75 12.5156 12.6484 12.7578 12.4453 12.9453C12.2578 13.1484 12.0156 13.25 11.7188 13.25H3.28125C2.98438 13.25 2.74219 13.1484 2.55469 12.9453C2.35156 12.7578 2.25 12.5156 2.25 12.2188C2.25 11.9375 2.35156 11.6875 2.55469 11.4688L2.625 11.4219C3.35938 10.6562 3.73438 9.74219 3.75 8.67969V8C3.78125 7 4.10938 6.15625 4.73438 5.46875C5.35938 4.78125 6.15625 4.38281 7.125 4.27344V3.875ZM7.5 5C6.65625 5.01562 5.94531 5.30469 5.36719 5.86719C4.80469 6.44531 4.51562 7.15625 4.5 8V8.67969C4.48438 9.94531 4.03125 11.0312 3.14062 11.9375L3.09375 12.0078C3.03125 12.0703 3 12.1406 3 12.2188C3.01562 12.3906 3.10938 12.4844 3.28125 12.5H11.7188C11.8906 12.4844 11.9844 12.3906 12 12.2188C12 12.1406 11.9688 12.0703 11.9062 12.0078L11.8594 11.9375C10.9688 11.0312 10.5156 9.94531 10.5 8.67969V8C10.4844 7.15625 10.1875 6.44531 9.60938 5.86719C9.04688 5.30469 8.34375 5.01562 7.5 5ZM6.79688 14.2578C6.92188 14.5703 7.15625 14.7344 7.5 14.75C7.84375 14.7344 8.07812 14.5703 8.20312 14.2578C8.29688 14.0391 8.46094 13.9609 8.69531 14.0234C8.89844 14.1172 8.96875 14.2734 8.90625 14.4922C8.79688 14.7891 8.61719 15.0312 8.36719 15.2188C8.11719 15.4062 7.82812 15.5 7.5 15.5C7.17188 15.5 6.88281 15.4062 6.63281 15.2188C6.38281 15.0312 6.20312 14.7891 6.09375 14.4922C6.03125 14.2734 6.10156 14.1172 6.30469 14.0234C6.53906 13.9609 6.70312 14.0391 6.79688 14.2578ZM0 7.625C0.015625 7.39062 0.140625 7.26562 0.375 7.25H2.25C2.48438 7.26562 2.60938 7.39062 2.625 7.625C2.60938 7.85938 2.48438 7.98438 2.25 8H0.375C0.140625 7.98438 0.015625 7.85938 0 7.625ZM12.75 7.25H14.625C14.8594 7.26562 14.9844 7.39062 15 7.625C14.9844 7.85938 14.8594 7.98438 14.625 8H12.75C12.5156 7.98438 12.3906 7.85938 12.375 7.625C12.3906 7.39062 12.5156 7.26562 12.75 7.25ZM0.960938 4.20312C0.757812 4.07812 0.703125 3.91406 0.796875 3.71094C0.90625 3.50781 1.07031 3.45312 1.28906 3.54688L2.78906 4.29688C2.99219 4.40625 3.04688 4.57031 2.95312 4.78906C2.84375 4.99219 2.67969 5.04688 2.46094 4.95312L0.960938 4.20312Z" fill="black" fill-opacity="0.72"/>
</g>
<defs>
<clipPath id="clip0_1731_1293">
<rect width="15" height="18" fill="white"/>
</clipPath>
</defs>
</svg>
