<svg width="15" height="36" viewBox="0 0 15 36" fill="none" xmlns="http://www.w3.org/2000/svg">
<g id="label-paired / xl / three-xl / regular" clip-path="url(#clip0_1731_6036)">
<path id="icon" d="M0 8.25C0.03125 7.78125 0.28125 7.53125 0.75 7.5H13.5C13.8438 7.5 14.0781 7.65625 14.2031 7.96875C14.2969 8.28125 14.2344 8.5625 14.0156 8.8125L5.67188 16.5H9C10.6875 16.5312 12.1094 17.1094 13.2656 18.2344C14.3906 19.3906 14.9688 20.8125 15 22.5C14.9688 24.1875 14.3906 25.6094 13.2656 26.7656C12.1094 27.8906 10.6875 28.4688 9 28.5H4.17188C3.32812 28.5 2.54688 28.2812 1.82812 27.8438C1.10938 27.4062 0.5625 26.7969 0.1875 26.0156L0.09375 25.8281C-0.09375 25.3906 0.015625 25.0625 0.421875 24.8438C0.828125 24.6562 1.15625 24.7656 1.40625 25.1719L1.5 25.3594C2.09375 26.4219 2.98438 26.9688 4.17188 27H9C10.2812 26.9688 11.3438 26.5312 12.1875 25.6875C13.0312 24.8438 13.4688 23.7812 13.5 22.5C13.4688 21.2188 13.0312 20.1562 12.1875 19.3125C11.3438 18.4688 10.2812 18.0312 9 18H3.75C3.40625 18 3.17188 17.8438 3.04688 17.5312C2.95312 17.2188 3.01562 16.9375 3.23438 16.6875L11.5781 9H0.75C0.28125 8.96875 0.03125 8.71875 0 8.25Z" fill="black" fill-opacity="0.72"/>
</g>
<defs>
<clipPath id="clip0_1731_6036">
<rect width="15" height="36" fill="white"/>
</clipPath>
</defs>
</svg>
