<svg width="23" height="30" viewBox="0 0 23 30" fill="none" xmlns="http://www.w3.org/2000/svg">
<g id="label-paired / lg / arrow-up-a-z-lg / bold" clip-path="url(#clip0_1731_4611)">
<path id="icon" d="M16.5 6.75C16.8906 6.75 17.1771 6.91927 17.3594 7.25781L20.4844 13.5078C20.6667 14.0547 20.5234 14.4844 20.0547 14.7969C19.5078 14.9792 19.0911 14.8359 18.8047 14.3672L18.2578 13.3125C18.2057 13.3125 18.1406 13.3125 18.0625 13.3125H14.7422L14.1953 14.3672C13.9089 14.862 13.4922 15.0052 12.9453 14.7969C12.4505 14.4844 12.3073 14.0547 12.5156 13.5078L15.6406 7.25781C15.849 6.94531 16.1354 6.77604 16.5 6.75ZM15.6797 11.4375H17.3203L16.5 9.79688L15.6797 11.4375ZM5.83594 7.02344C6.27865 6.65885 6.72135 6.65885 7.16406 7.02344L10.9141 10.7734C11.2786 11.2161 11.2786 11.6589 10.9141 12.1016C10.4714 12.4661 10.0286 12.4661 9.58594 12.1016L7.4375 9.95312V23.3125C7.38542 23.8854 7.07292 24.1979 6.5 24.25C5.92708 24.1979 5.61458 23.8854 5.5625 23.3125V9.95312L3.41406 12.1016C2.97135 12.4661 2.52865 12.4661 2.08594 12.1016C1.72135 11.6589 1.72135 11.2161 2.08594 10.7734L5.83594 7.02344ZM14 16.75H19C19.3906 16.776 19.6771 16.9583 19.8594 17.2969C20.0156 17.6615 19.9635 18 19.7031 18.3125L16.0703 22.375H19C19.5729 22.4271 19.8854 22.7396 19.9375 23.3125C19.8854 23.8854 19.5729 24.1979 19 24.25H14C13.6094 24.224 13.3229 24.0417 13.1406 23.7031C12.9844 23.3385 13.0365 23 13.2969 22.6875L16.9297 18.625H14C13.4271 18.5729 13.1146 18.2604 13.0625 17.6875C13.1146 17.1146 13.4271 16.8021 14 16.75Z" fill="black" fill-opacity="0.72"/>
</g>
<defs>
<clipPath id="clip0_1731_4611">
<rect width="23" height="30" fill="white"/>
</clipPath>
</defs>
</svg>
