<svg width="15" height="18" viewBox="0 0 15 18" fill="none" xmlns="http://www.w3.org/2000/svg">
<g id="label-paired / caption / person-chalkboard-caption / bold" clip-path="url(#clip0_1731_1325)">
<path id="icon" d="M4.5 5.75C4.07812 5.73438 3.75 5.54688 3.51562 5.1875C3.32812 4.8125 3.32812 4.4375 3.51562 4.0625C3.75 3.70313 4.07812 3.51563 4.5 3.5C4.92188 3.51563 5.25 3.70313 5.48438 4.0625C5.67188 4.4375 5.67188 4.8125 5.48438 5.1875C5.25 5.54688 4.92188 5.73438 4.5 5.75ZM4.17188 7.625C4.17188 7.625 4.16406 7.625 4.14844 7.625C4.14844 7.625 4.14062 7.625 4.125 7.625V10.625H4.875V7.625H4.17188ZM4.125 14.9375C4.09375 15.2812 3.90625 15.4688 3.5625 15.5C3.21875 15.4688 3.03125 15.2812 3 14.9375V8.75L1.99219 10.5312C1.78906 10.8125 1.53125 10.8828 1.21875 10.7422C0.9375 10.5391 0.867188 10.2812 1.00781 9.96875L2.39062 7.55469C2.57812 7.22656 2.82812 6.96875 3.14062 6.78125C3.45312 6.59375 3.79688 6.5 4.17188 6.5H5.69531H7.5V4.625C7.51562 4.3125 7.625 4.04688 7.82812 3.82812C8.04688 3.625 8.3125 3.51563 8.625 3.5H13.875C14.1875 3.51563 14.4531 3.625 14.6719 3.82812C14.875 4.04688 14.9844 4.3125 15 4.625V9.875C14.9844 10.1875 14.875 10.4531 14.6719 10.6719C14.4531 10.875 14.1875 10.9844 13.875 11H8.625C8.3125 10.9844 8.04688 10.875 7.82812 10.6719C7.625 10.4531 7.51562 10.1875 7.5 9.875V8.75H8.625V9.875H13.875V4.625H8.625V6.5H9.1875C9.53125 6.53125 9.71875 6.71875 9.75 7.0625C9.71875 7.40625 9.53125 7.59375 9.1875 7.625H6V14.9375C5.96875 15.2812 5.78125 15.4688 5.4375 15.5C5.09375 15.4688 4.90625 15.2812 4.875 14.9375V11.75H4.125V14.9375Z" fill="black" fill-opacity="0.72"/>
</g>
<defs>
<clipPath id="clip0_1731_1325">
<rect width="15" height="18" fill="white"/>
</clipPath>
</defs>
</svg>
