<svg width="27" height="36" viewBox="0 0 27 36" fill="none" xmlns="http://www.w3.org/2000/svg">
<g id="label-paired / xl / youtube-xl" clip-path="url(#clip0_1731_14119)">
<path id="icon" d="M25.7812 11.8125C25.9375 12.5312 26.0625 13.3594 26.1562 14.2969C26.2188 15.2656 26.2656 16.125 26.2969 16.875C26.2969 17.5938 26.2969 17.9688 26.2969 18C26.2969 18.0625 26.2969 18.4531 26.2969 19.1719C26.2656 19.9219 26.2188 20.7656 26.1562 21.7031C26.0625 22.6719 25.9375 23.5156 25.7812 24.2344C25.4062 25.3906 24.6406 26.1406 23.4844 26.4844C22.7344 26.6406 21.5781 26.7656 20.0156 26.8594C18.4531 26.9219 17 26.9688 15.6562 27C14.3125 27 13.5938 27 13.5 27C13.4062 27 12.6875 27 11.3438 27C10 26.9688 8.54688 26.9219 6.98438 26.8594C5.42188 26.7656 4.26562 26.6406 3.51562 26.4844C2.35938 26.1406 1.59375 25.3906 1.21875 24.2344C1.0625 23.5156 0.9375 22.6719 0.84375 21.7031C0.78125 20.7656 0.734375 19.9219 0.703125 19.1719C0.703125 18.4531 0.703125 18.0625 0.703125 18C0.703125 17.9688 0.703125 17.5938 0.703125 16.875C0.734375 16.125 0.78125 15.2656 0.84375 14.2969C0.9375 13.3594 1.0625 12.5312 1.21875 11.8125C1.59375 10.6562 2.35938 9.89062 3.51562 9.51562C4.26562 9.35938 5.42188 9.23438 6.98438 9.14062C8.54688 9.07812 10 9.03125 11.3438 9C12.6875 9 13.4062 9 13.5 9C13.5938 9 14.3125 9 15.6562 9C17 9.03125 18.4531 9.07812 20.0156 9.14062C21.5781 9.23438 22.7344 9.35938 23.4844 9.51562C24.6406 9.89062 25.4062 10.6562 25.7812 11.8125ZM10.875 21.8438L17.5781 18L10.875 14.2031V21.8438Z" fill="black" fill-opacity="0.72"/>
</g>
<defs>
<clipPath id="clip0_1731_14119">
<rect width="27" height="36" fill="white"/>
</clipPath>
</defs>
</svg>
