<svg width="24" height="36" viewBox="0 0 24 36" fill="none" xmlns="http://www.w3.org/2000/svg">
<g id="label-paired / xl / camera-xl / bold" clip-path="url(#clip0_1731_6808)">
<path id="icon" d="M9.32812 7.5H14.6719C15.2344 7.5 15.75 7.67188 16.2188 8.01562C16.6562 8.32812 16.9688 8.75 17.1562 9.28125L17.5781 10.5H21C21.8438 10.5312 22.5469 10.8281 23.1094 11.3906C23.6719 11.9531 23.9688 12.6562 24 13.5V25.5C23.9688 26.3438 23.6719 27.0469 23.1094 27.6094C22.5469 28.1719 21.8438 28.4688 21 28.5H3C2.15625 28.4688 1.45312 28.1719 0.890625 27.6094C0.328125 27.0469 0.03125 26.3438 0 25.5V13.5C0.03125 12.6562 0.328125 11.9531 0.890625 11.3906C1.45312 10.8281 2.15625 10.5312 3 10.5H6.42188L6.84375 9.28125L7.92188 9.65625L6.84375 9.28125C7.03125 8.75 7.34375 8.32812 7.78125 8.01562C8.25 7.67188 8.76562 7.5 9.32812 7.5ZM9 10.0312L8.34375 12C8.125 12.4688 7.76562 12.7188 7.26562 12.75H3C2.53125 12.7812 2.28125 13.0312 2.25 13.5V25.5C2.28125 25.9688 2.53125 26.2188 3 26.25H21C21.4688 26.2188 21.7188 25.9688 21.75 25.5V13.5C21.7188 13.0312 21.4688 12.7812 21 12.75H16.7344C16.2344 12.7188 15.8906 12.4688 15.7031 12L15.0469 10.0312C14.9531 9.84375 14.8281 9.75 14.6719 9.75H9.32812C9.17188 9.75 9.0625 9.84375 9 10.0312ZM12 24.75C11.0625 24.75 10.1875 24.5156 9.375 24.0469C8.5625 23.5781 7.92188 22.9375 7.45312 22.125C6.98438 21.3125 6.75 20.4375 6.75 19.5C6.75 18.5625 6.98438 17.6875 7.45312 16.875C7.92188 16.0625 8.5625 15.4219 9.375 14.9531C10.1875 14.4844 11.0625 14.25 12 14.25C12.9375 14.25 13.8125 14.4844 14.625 14.9531C15.4375 15.4219 16.0781 16.0625 16.5469 16.875C17.0156 17.6875 17.25 18.5625 17.25 19.5C17.25 20.4375 17.0156 21.3125 16.5469 22.125C16.0781 22.9375 15.4375 23.5781 14.625 24.0469C13.8125 24.5156 12.9375 24.75 12 24.75ZM9 19.5C9.03125 20.625 9.53125 21.4844 10.5 22.0781C11.5 22.6406 12.5 22.6406 13.5 22.0781C14.4688 21.4844 14.9688 20.625 15 19.5C14.9688 18.375 14.4688 17.5156 13.5 16.9219C12.5 16.3594 11.5 16.3594 10.5 16.9219C9.53125 17.5156 9.03125 18.375 9 19.5Z" fill="black" fill-opacity="0.72"/>
</g>
<defs>
<clipPath id="clip0_1731_6808">
<rect width="24" height="36" fill="white"/>
</clipPath>
</defs>
</svg>
