<svg width="12" height="18" viewBox="0 0 12 18" fill="none" xmlns="http://www.w3.org/2000/svg">
<g id="label-paired / caption / cash-register-caption / regular" clip-path="url(#clip0_1731_1722)">
<path id="icon" d="M6.375 4.25H1.875C1.64062 4.26562 1.51562 4.39062 1.5 4.625V5.375C1.51562 5.60938 1.64062 5.73438 1.875 5.75H6.375C6.60938 5.73438 6.73438 5.60938 6.75 5.375V4.625C6.73438 4.39062 6.60938 4.26562 6.375 4.25ZM1.875 3.5H6.375C6.6875 3.51563 6.95312 3.625 7.17188 3.82812C7.375 4.04688 7.48438 4.3125 7.5 4.625V5.375C7.48438 5.6875 7.375 5.95312 7.17188 6.17188C6.95312 6.375 6.6875 6.48438 6.375 6.5H4.5V7.25H9.9375C10.3281 7.25 10.6562 7.375 10.9219 7.625C11.2031 7.85938 11.375 8.16406 11.4375 8.53906L11.9766 12.4062C11.9922 12.4688 12 12.5391 12 12.6172V14C11.9844 14.4219 11.8359 14.7734 11.5547 15.0547C11.2734 15.3359 10.9219 15.4844 10.5 15.5H1.5C1.07812 15.4844 0.726562 15.3359 0.445312 15.0547C0.164062 14.7734 0.015625 14.4219 0 14V12.6172C0 12.5703 0 12.5312 0 12.5C0 12.4688 0.0078125 12.4375 0.0234375 12.4062L0.5625 8.53906C0.625 8.16406 0.796875 7.85938 1.07812 7.625C1.34375 7.375 1.67188 7.25 2.0625 7.25H3.75V6.5H1.875C1.5625 6.48438 1.29688 6.375 1.07812 6.17188C0.875 5.95312 0.765625 5.6875 0.75 5.375V4.625C0.765625 4.3125 0.875 4.04688 1.07812 3.82812C1.29688 3.625 1.5625 3.51563 1.875 3.5ZM0.75 14C0.75 14.2188 0.820312 14.3984 0.960938 14.5391C1.10156 14.6797 1.28125 14.75 1.5 14.75H10.5C10.7188 14.75 10.8984 14.6797 11.0391 14.5391C11.1797 14.3984 11.25 14.2188 11.25 14V13.25H0.75V14ZM10.6875 8.65625C10.6094 8.25 10.3672 8.03125 9.96094 8H2.0625C1.64062 8.03125 1.39062 8.25 1.3125 8.65625L0.75 12.5H11.25L10.6875 8.65625ZM2.625 8.9375C2.96875 8.96875 3.15625 9.15625 3.1875 9.5C3.15625 9.84375 2.96875 10.0312 2.625 10.0625C2.28125 10.0312 2.09375 9.84375 2.0625 9.5C2.09375 9.15625 2.28125 8.96875 2.625 8.9375ZM4.3125 9.5C4.34375 9.15625 4.53125 8.96875 4.875 8.9375C5.21875 8.96875 5.40625 9.15625 5.4375 9.5C5.40625 9.84375 5.21875 10.0312 4.875 10.0625C4.53125 10.0312 4.34375 9.84375 4.3125 9.5ZM3.75 10.8125C4.09375 10.8438 4.28125 11.0312 4.3125 11.375C4.28125 11.7188 4.09375 11.9062 3.75 11.9375C3.40625 11.9062 3.21875 11.7188 3.1875 11.375C3.21875 11.0312 3.40625 10.8438 3.75 10.8125ZM6.5625 9.5C6.59375 9.15625 6.78125 8.96875 7.125 8.9375C7.46875 8.96875 7.65625 9.15625 7.6875 9.5C7.65625 9.84375 7.46875 10.0312 7.125 10.0625C6.78125 10.0312 6.59375 9.84375 6.5625 9.5ZM6 10.8125C6.34375 10.8438 6.53125 11.0312 6.5625 11.375C6.53125 11.7188 6.34375 11.9062 6 11.9375C5.65625 11.9062 5.46875 11.7188 5.4375 11.375C5.46875 11.0312 5.65625 10.8438 6 10.8125ZM8.8125 9.5C8.84375 9.15625 9.03125 8.96875 9.375 8.9375C9.71875 8.96875 9.90625 9.15625 9.9375 9.5C9.90625 9.84375 9.71875 10.0312 9.375 10.0625C9.03125 10.0312 8.84375 9.84375 8.8125 9.5ZM8.25 10.8125C8.59375 10.8438 8.78125 11.0312 8.8125 11.375C8.78125 11.7188 8.59375 11.9062 8.25 11.9375C7.90625 11.9062 7.71875 11.7188 7.6875 11.375C7.71875 11.0312 7.90625 10.8438 8.25 10.8125Z" fill="black" fill-opacity="0.72"/>
</g>
<defs>
<clipPath id="clip0_1731_1722">
<rect width="12" height="18" fill="white"/>
</clipPath>
</defs>
</svg>
