<svg width="30" height="36" viewBox="0 0 30 36" fill="none" xmlns="http://www.w3.org/2000/svg">
<g id="label-paired / xl / light-user-tie-circle-dollar-xl / regular" clip-path="url(#clip0_1731_6795)">
<path id="icon" d="M0 28.5938C0 24.8906 2.625 21.7969 6.14062 21.1406C6.46875 21.0938 6.79688 21.2812 6.89062 21.5625C7.40625 22.6406 7.92188 23.7188 8.4375 24.7969C8.76562 23.8125 9.09375 22.7812 9.42188 21.75C9.28125 21.75 9.14062 21.75 8.95312 21.75C8.57812 21.75 8.20312 21.4219 8.20312 21C8.20312 20.625 8.57812 20.25 8.95312 20.25C9.46875 20.25 9.98438 20.25 10.4531 20.25C10.9688 20.25 11.4844 20.25 11.9531 20.25C12.375 20.25 12.7031 20.625 12.7031 21C12.7031 21.4219 12.375 21.75 11.9531 21.75C11.8125 21.75 11.6719 21.75 11.5312 21.75C11.8594 22.7812 12.1875 23.8125 12.5156 24.7969C13.0312 23.7188 13.5469 22.6406 14.0156 21.5625C14.1562 21.2812 14.4844 21.0938 14.8125 21.1406C14.9531 21.1875 15.0938 21.1875 15.2344 21.2344C15.0938 21.8438 15 22.4531 15 23.1094C14.1562 24.8906 13.3594 26.625 12.5156 28.4062C12.5156 28.4531 12.4688 28.5 12.4688 28.5C13.9219 28.5 15.4219 28.5 16.875 28.5C17.3438 29.1094 17.8594 29.5781 18.4688 30C12.7969 30 7.125 30 1.40625 30C0.609375 30 0 29.3906 0 28.5938ZM1.5 28.5C3.79688 28.5 6.14062 28.5 8.48438 28.5C8.48438 28.5 8.4375 28.4531 8.4375 28.4062C7.54688 26.5312 6.70312 24.6562 5.8125 22.7812C3.32812 23.4844 1.5 25.7812 1.5 28.5ZM4.5 12C4.5 9.89062 5.625 7.875 7.5 6.84375C9.32812 5.76562 11.625 5.76562 13.5 6.84375C15.3281 7.875 16.5 9.89062 16.5 12C16.5 14.1562 15.3281 16.125 13.5 17.2031C11.625 18.2812 9.32812 18.2812 7.5 17.2031C5.625 16.125 4.5 14.1562 4.5 12ZM6.5625 9.75C5.76562 11.1562 5.76562 12.8906 6.5625 14.25C7.40625 15.6562 8.85938 16.5 10.5 16.5C12.0938 16.5 13.5938 15.6562 14.3906 14.25C15.1875 12.8906 15.1875 11.1562 14.3906 9.75C13.5938 8.39062 12.0938 7.5 10.5 7.5C8.85938 7.5 7.40625 8.39062 6.5625 9.75ZM9.32812 26.8125C9.51562 27.1406 9.65625 27.4688 9.79688 27.7969C10.0781 28.3594 10.875 28.3594 11.1562 27.7969C11.2969 27.4688 11.4844 27.1406 11.625 26.8125C11.25 25.6875 10.875 24.5156 10.5 23.3906L9.32812 26.8125ZM16.5 23.25C16.5 19.5469 19.5 16.5 23.25 16.5C26.9531 16.5 30 19.5469 30 23.25C30 27 26.9531 30 23.25 30C19.5 30 16.5 27 16.5 23.25ZM18 23.25C18 26.1562 20.3438 28.5 23.25 28.5C26.1094 28.5 28.5 26.1562 28.5 23.25C28.5 20.3906 26.1094 18 23.25 18C20.3438 18 18 20.3906 18 23.25ZM20.625 21.9844C20.5781 21.0938 21.0938 20.5312 21.6562 20.25C21.8906 20.1094 22.1719 20.0156 22.5 19.9688C22.5 19.8281 22.5 19.6406 22.5 19.5C22.5 19.0781 22.8281 18.75 23.25 18.75C23.625 18.75 24 19.0781 24 19.5C24 19.6406 24 19.8281 24 19.9688C24.2812 20.0156 24.5625 20.0625 24.7969 20.1094C25.2188 20.2031 25.4531 20.625 25.3594 21.0469C25.2656 21.4219 24.8438 21.7031 24.4688 21.5625C24 21.4688 23.625 21.375 23.2031 21.375C22.9219 21.375 22.5938 21.4688 22.3594 21.5625C22.2188 21.6562 22.1719 21.7031 22.125 21.75C22.125 21.75 22.125 21.7969 22.125 21.8906C22.125 21.9375 22.125 21.9844 22.3125 22.125C22.5938 22.2656 22.9688 22.3594 23.4375 22.5C23.4375 22.5 23.4375 22.5 23.4844 22.5C23.9062 22.6406 24.4688 22.7812 24.8906 23.0625C25.3594 23.3438 25.8281 23.8125 25.875 24.5625C25.875 25.4062 25.4062 25.9688 24.8438 26.2969C24.5625 26.4375 24.2812 26.5312 24 26.5781C24 26.7656 24 26.9062 24 27.0938C24 27.5156 23.625 27.8438 23.25 27.8438C22.8281 27.8438 22.5 27.5156 22.5 27.0938C22.5 26.9062 22.5 26.7188 22.5 26.5312C22.0781 26.4844 21.7031 26.3438 21.375 26.25C21.2812 26.2031 21.1875 26.2031 21.1406 26.1562C20.7188 26.0625 20.5312 25.6406 20.625 25.2188C20.7656 24.8438 21.1875 24.6094 21.5625 24.75C21.6562 24.75 21.75 24.7969 21.8438 24.7969C22.4062 24.9844 22.8281 25.125 23.25 25.125C23.5781 25.125 23.9062 25.0781 24.1406 24.9844C24.2344 24.8906 24.2812 24.8438 24.3281 24.7969C24.3281 24.7969 24.375 24.7031 24.375 24.6094C24.375 24.5156 24.3281 24.4688 24.1406 24.3281C23.9062 24.1875 23.5312 24.0938 23.0625 23.9531C23.0156 23.9531 22.9688 23.9531 22.9688 23.9062C22.5469 23.8125 22.0312 23.6719 21.6094 23.4375C21.1406 23.2031 20.6719 22.7344 20.625 21.9844Z" fill="black" fill-opacity="0.72"/>
</g>
<defs>
<clipPath id="clip0_1731_6795">
<rect width="30" height="36" fill="white"/>
</clipPath>
</defs>
</svg>
