<svg width="15" height="18" viewBox="0 0 15 18" fill="none" xmlns="http://www.w3.org/2000/svg">
<g id="label-paired / caption / deal-protection-caption / bold" clip-path="url(#clip0_1731_761)">
<path id="icon" d="M1.92188 6.35938H4.28906C4.6875 6.35938 5.0625 6.42969 5.41406 6.57031C5.76562 6.6875 6.04688 6.89844 6.28125 7.15625C6.51562 7.41406 6.70312 7.74219 6.84375 8.14062C6.98438 8.53906 7.03125 8.98438 7.03125 9.5C7.03125 10.0391 6.98438 10.4844 6.84375 10.8828C6.70312 11.2812 6.51562 11.6094 6.28125 11.8672C6.04688 12.125 5.76562 12.3125 5.41406 12.4531C5.08594 12.5938 4.6875 12.6641 4.28906 12.6641H1.92188V6.35938ZM4.28906 11.4453C4.6875 11.4453 5.01562 11.3281 5.25 11.0938C5.48438 10.8594 5.60156 10.5078 5.60156 9.99219V9.03125C5.60156 8.51562 5.48438 8.16406 5.25 7.92969C5.01562 7.69531 4.6875 7.57812 4.28906 7.57812H3.28125V11.4453H4.28906ZM8.17969 12.6406V6.35938H11.1562C11.4609 6.35938 11.7188 6.42969 11.9531 6.52344C12.1875 6.61719 12.375 6.75781 12.5391 6.92188C12.7031 7.10938 12.8438 7.32031 12.9375 7.57812C13.0078 7.8125 13.0547 8.09375 13.0547 8.375C13.0547 8.67969 13.0312 8.96094 12.9375 9.19531C12.8438 9.45312 12.7031 9.66406 12.5391 9.82812C12.375 9.99219 12.1875 10.1328 11.9531 10.25C11.7188 10.3438 11.4609 10.3906 11.1562 10.3906H9.5625V12.6406H8.17969ZM9.5625 9.19531H10.9922C11.2031 9.19531 11.3672 9.14844 11.4844 9.03125C11.6016 8.9375 11.6484 8.77344 11.6484 8.5625V8.1875C11.6484 7.97656 11.6016 7.8125 11.4844 7.71875C11.3672 7.60156 11.2031 7.55469 10.9922 7.55469H9.5625V9.19531Z" fill="black" fill-opacity="0.72"/>
</g>
<defs>
<clipPath id="clip0_1731_761">
<rect width="15" height="18" fill="white"/>
</clipPath>
</defs>
</svg>
