<svg width="14" height="24" viewBox="0 0 14 24" fill="none" xmlns="http://www.w3.org/2000/svg">
<g id="label-paired / md / bars-md / bold" clip-path="url(#clip0_1731_3167)">
<path id="icon" d="M0 6.75C0.0416667 6.29167 0.291667 6.04167 0.75 6H13.25C13.7083 6.04167 13.9583 6.29167 14 6.75C13.9583 7.20833 13.7083 7.45833 13.25 7.5H0.75C0.291667 7.45833 0.0416667 7.20833 0 6.75ZM0 11.75C0.0416667 11.2917 0.291667 11.0417 0.75 11H13.25C13.7083 11.0417 13.9583 11.2917 14 11.75C13.9583 12.2083 13.7083 12.4583 13.25 12.5H0.75C0.291667 12.4583 0.0416667 12.2083 0 11.75ZM14 16.75C13.9583 17.2083 13.7083 17.4583 13.25 17.5H0.75C0.291667 17.4583 0.0416667 17.2083 0 16.75C0.0416667 16.2917 0.291667 16.0417 0.75 16H13.25C13.7083 16.0417 13.9583 16.2917 14 16.75Z" fill="black" fill-opacity="0.72"/>
</g>
<defs>
<clipPath id="clip0_1731_3167">
<rect width="14" height="24" fill="white"/>
</clipPath>
</defs>
</svg>
