<svg width="23" height="30" viewBox="0 0 23 30" fill="none" xmlns="http://www.w3.org/2000/svg">
<g id="label-paired / lg / rectangle-barcode-lg / regular" clip-path="url(#clip0_1731_5210)">
<path id="icon" d="M2.75 8C2.38542 8 2.08594 8.11719 1.85156 8.35156C1.61719 8.58594 1.5 8.88542 1.5 9.25V21.75C1.5 22.1146 1.61719 22.4141 1.85156 22.6484C2.08594 22.8828 2.38542 23 2.75 23H20.25C20.6146 23 20.9141 22.8828 21.1484 22.6484C21.3828 22.4141 21.5 22.1146 21.5 21.75V9.25C21.5 8.88542 21.3828 8.58594 21.1484 8.35156C20.9141 8.11719 20.6146 8 20.25 8H2.75ZM0.25 9.25C0.276042 8.54688 0.523438 7.96094 0.992188 7.49219C1.46094 7.02344 2.04688 6.77604 2.75 6.75H20.25C20.9531 6.77604 21.5391 7.02344 22.0078 7.49219C22.4766 7.96094 22.724 8.54688 22.75 9.25V21.75C22.724 22.4531 22.4766 23.0391 22.0078 23.5078C21.5391 23.9766 20.9531 24.224 20.25 24.25H2.75C2.04688 24.224 1.46094 23.9766 0.992188 23.5078C0.523438 23.0391 0.276042 22.4531 0.25 21.75V9.25ZM4 11.125C4.02604 10.7344 4.23438 10.526 4.625 10.5C5.01562 10.526 5.22396 10.7344 5.25 11.125V19.875C5.22396 20.2656 5.01562 20.474 4.625 20.5C4.23438 20.474 4.02604 20.2656 4 19.875V11.125ZM15.25 11.125C15.276 10.7344 15.4844 10.526 15.875 10.5C16.2656 10.526 16.474 10.7344 16.5 11.125V19.875C16.474 20.2656 16.2656 20.474 15.875 20.5C15.4844 20.474 15.276 20.2656 15.25 19.875V11.125ZM18.375 10.5C18.7656 10.526 18.974 10.7344 19 11.125V19.875C18.974 20.2656 18.7656 20.474 18.375 20.5C17.9844 20.474 17.776 20.2656 17.75 19.875V11.125C17.776 10.7344 17.9844 10.526 18.375 10.5ZM6.5 11.125C6.52604 10.7344 6.73438 10.526 7.125 10.5C7.51562 10.526 7.72396 10.7344 7.75 11.125V19.875C7.72396 20.2656 7.51562 20.474 7.125 20.5C6.73438 20.474 6.52604 20.2656 6.5 19.875V11.125ZM9.625 10.5C10.0156 10.526 10.224 10.7344 10.25 11.125V19.875C10.224 20.2656 10.0156 20.474 9.625 20.5C9.23438 20.474 9.02604 20.2656 9 19.875V11.125C9.02604 10.7344 9.23438 10.526 9.625 10.5ZM12.125 11.125C12.151 10.7344 12.3594 10.526 12.75 10.5C13.1406 10.526 13.349 10.7344 13.375 11.125V19.875C13.349 20.2656 13.1406 20.474 12.75 20.5C12.3594 20.474 12.151 20.2656 12.125 19.875V11.125Z" fill="black" fill-opacity="0.72"/>
</g>
<defs>
<clipPath id="clip0_1731_5210">
<rect width="23" height="30" fill="white"/>
</clipPath>
</defs>
</svg>
