<svg width="13" height="22" viewBox="0 0 13 22" fill="none" xmlns="http://www.w3.org/2000/svg">
<g id="label-paired / sm / arrow-left-to-line-sm / regular" clip-path="url(#clip0_1731_2182)">
<path id="icon" d="M0.375 15.5625V5.9375C0.393229 5.66406 0.539062 5.51823 0.8125 5.5C1.08594 5.51823 1.23177 5.66406 1.25 5.9375V15.5625C1.23177 15.8359 1.08594 15.9818 0.8125 16C0.539062 15.9818 0.393229 15.8359 0.375 15.5625ZM3.13672 10.4492L6.63672 6.94922C6.83724 6.76693 7.03776 6.76693 7.23828 6.94922C7.42057 7.14974 7.42057 7.35026 7.23828 7.55078L4.50391 10.3125H7.375H12.1875C12.4609 10.3307 12.6068 10.4766 12.625 10.75C12.6068 11.0234 12.4609 11.1693 12.1875 11.1875H7.375H4.50391L7.23828 13.9492C7.42057 14.1497 7.42057 14.3503 7.23828 14.5508C7.03776 14.7331 6.83724 14.7331 6.63672 14.5508L3.13672 11.0508C2.95443 10.8503 2.95443 10.6497 3.13672 10.4492Z" fill="black" fill-opacity="0.72"/>
</g>
<defs>
<clipPath id="clip0_1731_2182">
<rect width="13" height="22" fill="white"/>
</clipPath>
</defs>
</svg>
