<svg width="9" height="22" viewBox="0 0 9 22" fill="none" xmlns="http://www.w3.org/2000/svg">
<g id="label-paired / sm / sterling-sign-sm / regular" clip-path="url(#clip0_1731_2970)">
<path id="icon" d="M2.3125 7.90625V10.75H6.6875C6.96094 10.7682 7.10677 10.9141 7.125 11.1875C7.10677 11.4609 6.96094 11.6068 6.6875 11.625H2.3125C2.27604 13.1562 1.92969 14.6146 1.27344 16H8.4375C8.71094 16.0182 8.85677 16.1641 8.875 16.4375C8.85677 16.7109 8.71094 16.8568 8.4375 16.875H0.5625C0.398438 16.875 0.270833 16.8021 0.179688 16.6562C0.106771 16.5104 0.106771 16.3646 0.179688 16.2188L0.207031 16.1641C0.972656 14.7422 1.38281 13.2292 1.4375 11.625H0.5625C0.289062 11.6068 0.143229 11.4609 0.125 11.1875C0.143229 10.9141 0.289062 10.7682 0.5625 10.75H1.4375V7.90625C1.45573 6.97656 1.77474 6.20182 2.39453 5.58203C3.01432 4.96224 3.78906 4.64323 4.71875 4.625H4.91016C5.27474 4.625 5.62109 4.67969 5.94922 4.78906L8.13672 5.52734C8.3737 5.63672 8.46484 5.81901 8.41016 6.07422C8.30078 6.32943 8.11849 6.42057 7.86328 6.34766L5.67578 5.63672C5.42057 5.54557 5.16536 5.5 4.91016 5.5H4.71875C4.04427 5.51823 3.47917 5.75521 3.02344 6.21094C2.56771 6.66667 2.33073 7.23177 2.3125 7.90625Z" fill="black" fill-opacity="0.72"/>
</g>
<defs>
<clipPath id="clip0_1731_2970">
<rect width="9" height="22" fill="white"/>
</clipPath>
</defs>
</svg>
