<svg width="9" height="22" viewBox="0 0 9 22" fill="none" xmlns="http://www.w3.org/2000/svg">
<g id="label-paired / sm / pause-sm / bold" clip-path="url(#clip0_1731_2789)">
<path id="icon" d="M1.4375 6.8125V14.6875H2.75V6.8125H1.4375ZM0.125 6.8125C0.143229 6.44792 0.270833 6.13802 0.507812 5.88281C0.763021 5.64583 1.07292 5.51823 1.4375 5.5H2.75C3.11458 5.51823 3.42448 5.64583 3.67969 5.88281C3.91667 6.13802 4.04427 6.44792 4.0625 6.8125V14.6875C4.04427 15.0521 3.91667 15.362 3.67969 15.6172C3.42448 15.8542 3.11458 15.9818 2.75 16H1.4375C1.07292 15.9818 0.763021 15.8542 0.507812 15.6172C0.270833 15.362 0.143229 15.0521 0.125 14.6875V6.8125ZM6.25 6.8125V14.6875H7.5625V6.8125H6.25ZM4.9375 6.8125C4.95573 6.44792 5.08333 6.13802 5.32031 5.88281C5.57552 5.64583 5.88542 5.51823 6.25 5.5H7.5625C7.92708 5.51823 8.23698 5.64583 8.49219 5.88281C8.72917 6.13802 8.85677 6.44792 8.875 6.8125V14.6875C8.85677 15.0521 8.72917 15.362 8.49219 15.6172C8.23698 15.8542 7.92708 15.9818 7.5625 16H6.25C5.88542 15.9818 5.57552 15.8542 5.32031 15.6172C5.08333 15.362 4.95573 15.0521 4.9375 14.6875V6.8125Z" fill="black" fill-opacity="0.72"/>
</g>
<defs>
<clipPath id="clip0_1731_2789">
<rect width="9" height="22" fill="white"/>
</clipPath>
</defs>
</svg>
