<svg width="20" height="30" viewBox="0 0 20 30" fill="none" xmlns="http://www.w3.org/2000/svg">
<g id="label-paired / lg / circle-six-lg / regular" clip-path="url(#clip0_1731_4543)">
<path id="icon" d="M10 6.75C8.41146 6.77604 6.95312 7.16667 5.625 7.92188C4.29688 8.70312 3.22917 9.77083 2.42188 11.125C1.64062 12.5052 1.25 13.9635 1.25 15.5C1.25 17.0365 1.64062 18.4948 2.42188 19.875C3.22917 21.2292 4.29688 22.2969 5.625 23.0781C6.95312 23.8333 8.41146 24.224 10 24.25C11.5885 24.224 13.0469 23.8333 14.375 23.0781C15.7031 22.2969 16.7708 21.2292 17.5781 19.875C18.3594 18.4948 18.75 17.0365 18.75 15.5C18.75 13.9635 18.3594 12.5052 17.5781 11.125C16.7708 9.77083 15.7031 8.70312 14.375 7.92188C13.0469 7.16667 11.5885 6.77604 10 6.75ZM10 25.5C8.17708 25.474 6.51042 25.0312 5 24.1719C3.48958 23.2865 2.26562 22.0625 1.32812 20.5C0.442708 18.9115 0 17.2448 0 15.5C0 13.7552 0.442708 12.0885 1.32812 10.5C2.26562 8.9375 3.48958 7.71354 5 6.82812C6.51042 5.96875 8.17708 5.52604 10 5.5C11.8229 5.52604 13.4896 5.96875 15 6.82812C16.5104 7.71354 17.7344 8.9375 18.6719 10.5C19.5573 12.0885 20 13.7552 20 15.5C20 17.2448 19.5573 18.9115 18.6719 20.5C17.7344 22.0625 16.5104 23.2865 15 24.1719C13.4896 25.0312 11.8229 25.474 10 25.5ZM11.7188 10.6953C11.9531 11.0078 11.9401 11.3073 11.6797 11.5938L10.1562 13C11.1719 13.0521 12.0182 13.4297 12.6953 14.1328C13.3724 14.8359 13.724 15.7083 13.75 16.75C13.724 17.8177 13.3594 18.7031 12.6562 19.4062C11.9531 20.1094 11.0677 20.474 10 20.5C8.93229 20.474 8.04688 20.1094 7.34375 19.4062C6.64062 18.7031 6.27604 17.8177 6.25 16.75C6.27604 15.526 6.71875 14.4974 7.57812 13.6641L10.8203 10.6562C11.1328 10.4219 11.4323 10.4349 11.7188 10.6953ZM10 14.25C9.0625 14.276 8.34635 14.6927 7.85156 15.5C7.38281 16.3333 7.38281 17.1667 7.85156 18C8.34635 18.8073 9.0625 19.224 10 19.25C10.9375 19.224 11.6536 18.8073 12.1484 18C12.6172 17.1667 12.6172 16.3333 12.1484 15.5C11.6536 14.6927 10.9375 14.276 10 14.25Z" fill="black" fill-opacity="0.72"/>
</g>
<defs>
<clipPath id="clip0_1731_4543">
<rect width="20" height="30" fill="white"/>
</clipPath>
</defs>
</svg>
