<svg width="25" height="30" viewBox="0 0 25 30" fill="none" xmlns="http://www.w3.org/2000/svg">
<g id="label-paired / lg / location-crosshairs-slash-lg / bold" clip-path="url(#clip0_1731_4895)">
<path id="icon" d="M1.52344 5.69531L7.22656 10.1875C8.39844 9.01562 9.84375 8.3125 11.5625 8.07812V6.4375C11.6146 5.86458 11.9271 5.55208 12.5 5.5C13.0729 5.55208 13.3854 5.86458 13.4375 6.4375V8.07812C15.1562 8.3125 16.6146 9.01562 17.8125 10.1875C18.9844 11.3854 19.7005 12.8438 19.9609 14.5625H21.5625C22.1354 14.6146 22.4479 14.9271 22.5 15.5C22.4479 16.0729 22.1354 16.3854 21.5625 16.4375H19.9609C19.8047 17.5052 19.4661 18.4818 18.9453 19.3672L24.6484 23.8203C25.0651 24.2109 25.1172 24.6536 24.8047 25.1484C24.4141 25.5651 23.9714 25.6172 23.4766 25.3047L0.351562 7.17969C-0.0651042 6.78906 -0.117188 6.34635 0.195312 5.85156C0.585938 5.4349 1.02865 5.38281 1.52344 5.69531ZM8.71094 11.3594L10.2344 12.5312C10.8594 12.0365 11.6146 11.776 12.5 11.75C13.5677 11.776 14.4531 12.1406 15.1562 12.8438C15.8594 13.5469 16.224 14.4323 16.25 15.5C16.25 16.0469 16.1458 16.5547 15.9375 17.0234L17.4609 18.1953C17.9036 17.388 18.125 16.4896 18.125 15.5C18.0729 13.9115 17.526 12.5833 16.4844 11.5156C15.4167 10.474 14.0885 9.92708 12.5 9.875C11.0156 9.90104 9.7526 10.3958 8.71094 11.3594ZM14.375 15.7734H14.3359C14.362 15.6693 14.375 15.5781 14.375 15.5C14.349 14.9792 14.1667 14.5365 13.8281 14.1719C13.4635 13.8333 13.0208 13.651 12.5 13.625C12.2396 13.625 12.0052 13.6641 11.7969 13.7422L14.375 15.7734ZM16.2109 22.0234C15.3776 22.4922 14.4531 22.8047 13.4375 22.9609V24.5625C13.3854 25.1354 13.0729 25.4479 12.5 25.5C11.9271 25.4479 11.6146 25.1354 11.5625 24.5625V22.9609C9.84375 22.7005 8.38542 21.9844 7.1875 20.8125C6.01562 19.6406 5.3125 18.1823 5.07812 16.4375H3.4375C2.86458 16.3854 2.55208 16.0729 2.5 15.5C2.55208 14.9271 2.86458 14.6146 3.4375 14.5625H5.07812C5.10417 14.1719 5.18229 13.7943 5.3125 13.4297L6.91406 14.7188C6.88802 14.9792 6.875 15.2396 6.875 15.5C6.92708 17.0885 7.47396 18.4167 8.51562 19.4844C9.58333 20.5521 10.9115 21.099 12.5 21.125C13.2292 21.125 13.9193 20.9948 14.5703 20.7344L16.2109 22.0234Z" fill="black" fill-opacity="0.72"/>
</g>
<defs>
<clipPath id="clip0_1731_4895">
<rect width="25" height="30" fill="white"/>
</clipPath>
</defs>
</svg>
