<svg width="2" height="24" viewBox="0 0 2 24" fill="none" xmlns="http://www.w3.org/2000/svg">
<g id="label-paired / md / exclamation-md / bold" clip-path="url(#clip0_1731_4134)">
<path id="icon" d="M1.75 5.75V14.75C1.70833 15.2083 1.45833 15.4583 1 15.5C0.541667 15.4583 0.291667 15.2083 0.25 14.75V5.75C0.291667 5.29167 0.541667 5.04167 1 5C1.45833 5.04167 1.70833 5.29167 1.75 5.75ZM1 19C0.708333 19 0.46875 18.9062 0.28125 18.7188C0.09375 18.5312 0 18.2917 0 18C0 17.7083 0.09375 17.4688 0.28125 17.2812C0.46875 17.0938 0.708333 17 1 17C1.29167 17 1.53125 17.0938 1.71875 17.2812C1.90625 17.4688 2 17.7083 2 18C2 18.2917 1.90625 18.5312 1.71875 18.7188C1.53125 18.9062 1.29167 19 1 19Z" fill="black" fill-opacity="0.72"/>
</g>
<defs>
<clipPath id="clip0_1731_4134">
<rect width="2" height="24" fill="white"/>
</clipPath>
</defs>
</svg>
