<svg width="12" height="18" viewBox="0 0 12 18" fill="none" xmlns="http://www.w3.org/2000/svg">
<g id="label-paired / caption / circle-envelope-caption / regular" clip-path="url(#clip0_1731_1303)">
<path id="icon" d="M11.25 9.5C11.2344 8.54688 11 7.67188 10.5469 6.875C10.0781 6.07812 9.4375 5.4375 8.625 4.95312C7.79688 4.48438 6.92188 4.25 6 4.25C5.07812 4.25 4.20312 4.48438 3.375 4.95312C2.5625 5.4375 1.92188 6.07812 1.45312 6.875C1 7.67188 0.765625 8.54688 0.75 9.5C0.765625 10.4531 1 11.3281 1.45312 12.125C1.92188 12.9219 2.5625 13.5625 3.375 14.0469C4.20312 14.5156 5.07812 14.75 6 14.75C6.92188 14.75 7.79688 14.5156 8.625 14.0469C9.4375 13.5625 10.0781 12.9219 10.5469 12.125C11 11.3281 11.2344 10.4531 11.25 9.5ZM0 9.5C0.015625 8.40625 0.28125 7.40625 0.796875 6.5C1.32812 5.59375 2.0625 4.85938 3 4.29688C3.95312 3.76562 4.95312 3.5 6 3.5C7.04688 3.5 8.04688 3.76562 9 4.29688C9.9375 4.85938 10.6719 5.59375 11.2031 6.5C11.7188 7.40625 11.9844 8.40625 12 9.5C11.9844 10.5938 11.7188 11.5938 11.2031 12.5C10.6719 13.4062 9.9375 14.1406 9 14.7031C8.04688 15.2344 7.04688 15.5 6 15.5C4.95312 15.5 3.95312 15.2344 3 14.7031C2.0625 14.1406 1.32812 13.4062 0.796875 12.5C0.28125 11.5938 0.015625 10.5938 0 9.5ZM3.75 7.25H8.25C8.46875 7.25 8.64844 7.32031 8.78906 7.46094C8.92969 7.60156 9 7.78125 9 8V11C9 11.2188 8.92969 11.3984 8.78906 11.5391C8.64844 11.6797 8.46875 11.75 8.25 11.75H3.75C3.53125 11.75 3.35156 11.6797 3.21094 11.5391C3.07031 11.3984 3 11.2188 3 11V8C3 7.78125 3.07031 7.60156 3.21094 7.46094C3.35156 7.32031 3.53125 7.25 3.75 7.25ZM8.25 8.39844V8H3.75V8.39844L5.83594 9.5C5.88281 9.51562 5.9375 9.53125 6 9.54688C6.0625 9.54688 6.125 9.53125 6.1875 9.5L8.25 8.39844ZM8.25 9.24219L6.53906 10.1562C6.36719 10.2344 6.1875 10.2734 6 10.2734C5.8125 10.2734 5.63281 10.2344 5.46094 10.1562L3.75 9.24219V11H8.25V9.24219Z" fill="black" fill-opacity="0.72"/>
</g>
<defs>
<clipPath id="clip0_1731_1303">
<rect width="12" height="18" fill="white"/>
</clipPath>
</defs>
</svg>
