<svg width="12" height="18" viewBox="0 0 12 18" fill="none" xmlns="http://www.w3.org/2000/svg">
<g id="label-paired / caption / circle-bookmark-caption / regular" clip-path="url(#clip0_1731_614)">
<path id="icon" d="M6 4.25C5.04688 4.26562 4.17188 4.5 3.375 4.95312C2.57812 5.42188 1.9375 6.0625 1.45312 6.875C0.984375 7.70312 0.75 8.57812 0.75 9.5C0.75 10.4219 0.984375 11.2969 1.45312 12.125C1.9375 12.9375 2.57812 13.5781 3.375 14.0469C4.17188 14.5 5.04688 14.7344 6 14.75C6.95312 14.7344 7.82812 14.5 8.625 14.0469C9.42188 13.5781 10.0625 12.9375 10.5469 12.125C11.0156 11.2969 11.25 10.4219 11.25 9.5C11.25 8.57812 11.0156 7.70312 10.5469 6.875C10.0625 6.0625 9.42188 5.42188 8.625 4.95312C7.82812 4.5 6.95312 4.26562 6 4.25ZM6 15.5C4.90625 15.4844 3.90625 15.2188 3 14.7031C2.09375 14.1719 1.35938 13.4375 0.796875 12.5C0.265625 11.5469 0 10.5469 0 9.5C0 8.45312 0.265625 7.45312 0.796875 6.5C1.35938 5.5625 2.09375 4.82812 3 4.29688C3.90625 3.78125 4.90625 3.51563 6 3.5C7.09375 3.51563 8.09375 3.78125 9 4.29688C9.90625 4.82812 10.6406 5.5625 11.2031 6.5C11.7344 7.45312 12 8.45312 12 9.5C12 10.5469 11.7344 11.5469 11.2031 12.5C10.6406 13.4375 9.90625 14.1719 9 14.7031C8.09375 15.2188 7.09375 15.4844 6 15.5ZM4.5 7.625V11.3516L5.76562 10.3438C5.92188 10.2188 6.07812 10.2188 6.23438 10.3438L7.5 11.3516V7.625C7.48438 7.39062 7.35938 7.26562 7.125 7.25H4.875C4.64062 7.26562 4.51562 7.39062 4.5 7.625ZM4.875 6.5H7.125C7.4375 6.51562 7.70312 6.625 7.92188 6.82812C8.125 7.04688 8.23438 7.3125 8.25 7.625V12.125C8.25 12.2812 8.17969 12.3906 8.03906 12.4531C7.89844 12.5156 7.76562 12.5078 7.64062 12.4297L6 11.1172L4.35938 12.4297C4.23438 12.5078 4.10156 12.5156 3.96094 12.4531C3.82031 12.3906 3.75 12.2812 3.75 12.125V7.625C3.76562 7.3125 3.875 7.04688 4.07812 6.82812C4.29688 6.625 4.5625 6.51562 4.875 6.5Z" fill="black" fill-opacity="0.72"/>
</g>
<defs>
<clipPath id="clip0_1731_614">
<rect width="12" height="18" fill="white"/>
</clipPath>
</defs>
</svg>
