<svg width="12" height="18" viewBox="0 0 12 18" fill="none" xmlns="http://www.w3.org/2000/svg">
<g id="label-paired / caption / right-to-bracket-caption / regular" clip-path="url(#clip0_1731_679)">
<path id="icon" d="M7.47656 9.54688C7.49219 9.53125 7.5 9.51562 7.5 9.5C7.5 9.48438 7.49219 9.46875 7.47656 9.45312L4.38281 6.54688C4.35156 6.51562 4.32031 6.5 4.28906 6.5C4.19531 6.51562 4.14062 6.57031 4.125 6.66406V8C4.10938 8.23438 3.98438 8.35938 3.75 8.375H0.9375C0.828125 8.39062 0.765625 8.45312 0.75 8.5625V10.4375C0.765625 10.5469 0.828125 10.6094 0.9375 10.625H3.75C3.98438 10.6406 4.10938 10.7656 4.125 11V12.3359C4.14062 12.4297 4.19531 12.4844 4.28906 12.5C4.32031 12.5 4.35156 12.4844 4.38281 12.4531L7.47656 9.54688ZM8.25 9.5C8.25 9.73438 8.16406 9.92969 7.99219 10.0859L4.89844 13.0156C4.72656 13.1719 4.52344 13.25 4.28906 13.25C4.02344 13.25 3.80469 13.1641 3.63281 12.9922C3.46094 12.8203 3.375 12.6016 3.375 12.3359V11.375H0.9375C0.671875 11.375 0.453125 11.2812 0.28125 11.0938C0.09375 10.9219 0 10.7031 0 10.4375V8.5625C0 8.29688 0.09375 8.07812 0.28125 7.90625C0.453125 7.71875 0.671875 7.625 0.9375 7.625H3.375V6.66406C3.375 6.39844 3.46094 6.17969 3.63281 6.00781C3.80469 5.83594 4.02344 5.75 4.28906 5.75C4.52344 5.75 4.72656 5.83594 4.89844 6.00781L7.99219 8.91406C8.16406 9.07031 8.25 9.26562 8.25 9.5ZM7.875 14H10.125C10.4375 13.9844 10.7031 13.875 10.9219 13.6719C11.125 13.4531 11.2344 13.1875 11.25 12.875V6.125C11.2344 5.8125 11.125 5.54688 10.9219 5.32812C10.7031 5.125 10.4375 5.01562 10.125 5H7.875C7.64062 4.98438 7.51562 4.85938 7.5 4.625C7.51562 4.39062 7.64062 4.26562 7.875 4.25H10.125C10.6562 4.26562 11.1016 4.44531 11.4609 4.78906C11.8047 5.14844 11.9844 5.59375 12 6.125V12.875C11.9844 13.4062 11.8047 13.8516 11.4609 14.2109C11.1016 14.5547 10.6562 14.7344 10.125 14.75H7.875C7.64062 14.7344 7.51562 14.6094 7.5 14.375C7.51562 14.1406 7.64062 14.0156 7.875 14Z" fill="black" fill-opacity="0.72"/>
</g>
<defs>
<clipPath id="clip0_1731_679">
<rect width="12" height="18" fill="white"/>
</clipPath>
</defs>
</svg>
