<svg width="25" height="30" viewBox="0 0 25 30" fill="none" xmlns="http://www.w3.org/2000/svg">
<g id="label-paired / lg / chart-trend-up-lg / regular" clip-path="url(#clip0_1885_570)">
<path id="icon" d="M24.0234 6.20312C24.3359 6.35938 24.4531 6.75 24.2969 7.0625L20.5469 14.5625C20.4297 14.7578 20.2344 14.875 20 14.875H14.1016L9.29688 24.5625C9.14062 24.875 8.75 24.9922 8.4375 24.8359L0.9375 21.0859C0.625 20.9297 0.507812 20.5391 0.664062 20.2266C0.820312 19.9141 1.21094 19.7969 1.52344 19.9531L8.4375 23.4297L13.1641 13.9766C13.2812 13.7812 13.4766 13.625 13.75 13.625H19.6094L23.1641 6.47656C23.3203 6.16406 23.7109 6.04688 24.0234 6.20312Z" fill="black" fill-opacity="0.72"/>
</g>
<defs>
<clipPath id="clip0_1885_570">
<rect width="25" height="30" fill="white"/>
</clipPath>
</defs>
</svg>
