<svg width="18" height="30" viewBox="0 0 18 30" fill="none" xmlns="http://www.w3.org/2000/svg">
<g id="label-paired / lg / arrow-left-to-line-lg / bold" clip-path="url(#clip0_1731_4399)">
<path id="icon" d="M0.25 22.0625V8.9375C0.302083 8.36458 0.614583 8.05208 1.1875 8C1.76042 8.05208 2.07292 8.36458 2.125 8.9375V22.0625C2.07292 22.6354 1.76042 22.9479 1.1875 23C0.614583 22.9479 0.302083 22.6354 0.25 22.0625ZM5.5625 14.8359L10.875 9.83594C11.3177 9.47135 11.7474 9.48438 12.1641 9.875C12.5286 10.3177 12.5156 10.7604 12.125 11.2031L8.57031 14.5625H11.8125H16.8125C17.3854 14.6146 17.6979 14.9271 17.75 15.5C17.6979 16.0729 17.3854 16.3854 16.8125 16.4375H11.8125H8.57031L12.1641 19.8359C12.5286 20.2526 12.5417 20.6953 12.2031 21.1641C11.7604 21.5286 11.3177 21.5417 10.875 21.2031L5.5625 16.2031C5.35417 15.9948 5.25 15.7604 5.25 15.5C5.25 15.2396 5.35417 15.0182 5.5625 14.8359Z" fill="black" fill-opacity="0.72"/>
</g>
<defs>
<clipPath id="clip0_1731_4399">
<rect width="18" height="30" fill="white"/>
</clipPath>
</defs>
</svg>
