<svg width="24" height="36" viewBox="0 0 24 36" fill="none" xmlns="http://www.w3.org/2000/svg">
<g id="label-paired / xl / chevrons-down-xl / regular" clip-path="url(#clip0_1731_5931)">
<path id="icon" d="M2.48438 9.51562C2.17188 9.17188 2.17188 8.82812 2.48438 8.48438C2.82812 8.17188 3.17188 8.17188 3.51562 8.48438L12 16.9219L20.4844 8.48438C20.8281 8.17188 21.1719 8.17188 21.5156 8.48438C21.8281 8.82812 21.8281 9.17188 21.5156 9.51562L12.5156 18.5156C12.1719 18.8281 11.8281 18.8281 11.4844 18.5156L2.48438 9.51562ZM2.48438 18.5156C2.17188 18.1719 2.17188 17.8281 2.48438 17.4844C2.82812 17.1719 3.17188 17.1719 3.51562 17.4844L12 25.9219L20.4844 17.4844C20.8281 17.1719 21.1719 17.1719 21.5156 17.4844C21.8281 17.8281 21.8281 18.1719 21.5156 18.5156L12.5156 27.5156C12.1719 27.8281 11.8281 27.8281 11.4844 27.5156L2.48438 18.5156Z" fill="black" fill-opacity="0.72"/>
</g>
<defs>
<clipPath id="clip0_1731_5931">
<rect width="24" height="36" fill="white"/>
</clipPath>
</defs>
</svg>
