<svg width="12" height="36" viewBox="0 0 12 36" fill="none" xmlns="http://www.w3.org/2000/svg">
<g id="label-paired / xl / one-xl / regular" clip-path="url(#clip0_1731_6026)">
<path id="icon" d="M6.75 8.25V27H11.25C11.7188 27.0312 11.9688 27.2812 12 27.75C11.9688 28.2188 11.7188 28.4688 11.25 28.5H6H0.75C0.28125 28.4688 0.03125 28.2188 0 27.75C0.03125 27.2812 0.28125 27.0312 0.75 27H5.25V9.65625L1.92188 11.8594C1.51562 12.0781 1.17188 12.0156 0.890625 11.6719C0.671875 11.2656 0.734375 10.9219 1.07812 10.6406L5.57812 7.64062C5.82812 7.48438 6.09375 7.46875 6.375 7.59375C6.625 7.75 6.75 7.96875 6.75 8.25Z" fill="black" fill-opacity="0.72"/>
</g>
<defs>
<clipPath id="clip0_1731_6026">
<rect width="12" height="36" fill="white"/>
</clipPath>
</defs>
</svg>
