<svg width="16" height="24" viewBox="0 0 16 24" fill="none" xmlns="http://www.w3.org/2000/svg">
<g id="label-paired / md / chart-mixed-md / bold" clip-path="url(#clip0_1731_3760)">
<path id="icon" d="M15.75 6.3125L10.5 10.8125C10.1667 11.0625 9.83333 11.0625 9.5 10.8125L5.9375 7.6875L1.15625 10.875C0.760417 11.0833 0.416667 11.0104 0.125 10.6562C-0.0833333 10.2604 -0.0104167 9.91667 0.34375 9.625L5.59375 6.125C5.90625 5.9375 6.20833 5.95833 6.5 6.1875L10 9.25L14.75 5.1875C15.125 4.91667 15.4792 4.9375 15.8125 5.25C16.0833 5.625 16.0625 5.97917 15.75 6.3125ZM6.25 17.5V12.5C6.22917 12.3542 6.14583 12.2708 6 12.25C5.85417 12.2708 5.77083 12.3542 5.75 12.5V17.5C5.77083 17.6458 5.85417 17.7292 6 17.75C6.14583 17.7292 6.22917 17.6458 6.25 17.5ZM6 11C6.41667 11.0208 6.77083 11.1667 7.0625 11.4375C7.33333 11.7292 7.47917 12.0833 7.5 12.5V17.5C7.47917 17.9167 7.33333 18.2708 7.0625 18.5625C6.77083 18.8333 6.41667 18.9792 6 19C5.58333 18.9792 5.22917 18.8333 4.9375 18.5625C4.66667 18.2708 4.52083 17.9167 4.5 17.5V12.5C4.52083 12.0833 4.66667 11.7292 4.9375 11.4375C5.22917 11.1667 5.58333 11.0208 6 11ZM2.25 17.5V15.5C2.22917 15.3542 2.14583 15.2708 2 15.25C1.85417 15.2708 1.77083 15.3542 1.75 15.5V17.5C1.77083 17.6458 1.85417 17.7292 2 17.75C2.14583 17.7292 2.22917 17.6458 2.25 17.5ZM2 14C2.41667 14.0208 2.77083 14.1667 3.0625 14.4375C3.33333 14.7292 3.47917 15.0833 3.5 15.5V17.5C3.47917 17.9167 3.33333 18.2708 3.0625 18.5625C2.77083 18.8333 2.41667 18.9792 2 19C1.58333 18.9792 1.22917 18.8333 0.9375 18.5625C0.666667 18.2708 0.520833 17.9167 0.5 17.5V15.5C0.520833 15.0833 0.666667 14.7292 0.9375 14.4375C1.22917 14.1667 1.58333 14.0208 2 14ZM10.25 14.5C10.2292 14.3542 10.1458 14.2708 10 14.25C9.85417 14.2708 9.77083 14.3542 9.75 14.5V17.5C9.77083 17.6458 9.85417 17.7292 10 17.75C10.1458 17.7292 10.2292 17.6458 10.25 17.5V14.5ZM8.5 14.5C8.52083 14.0833 8.66667 13.7292 8.9375 13.4375C9.22917 13.1667 9.58333 13.0208 10 13C10.4167 13.0208 10.7708 13.1667 11.0625 13.4375C11.3333 13.7292 11.4792 14.0833 11.5 14.5V17.5C11.4792 17.9167 11.3333 18.2708 11.0625 18.5625C10.7708 18.8333 10.4167 18.9792 10 19C9.58333 18.9792 9.22917 18.8333 8.9375 18.5625C8.66667 18.2708 8.52083 17.9167 8.5 17.5V14.5ZM14.25 17.5V12.5C14.2292 12.3542 14.1458 12.2708 14 12.25C13.8542 12.2708 13.7708 12.3542 13.75 12.5V17.5C13.7708 17.6458 13.8542 17.7292 14 17.75C14.1458 17.7292 14.2292 17.6458 14.25 17.5ZM14 11C14.4167 11.0208 14.7708 11.1667 15.0625 11.4375C15.3333 11.7292 15.4792 12.0833 15.5 12.5V17.5C15.4792 17.9167 15.3333 18.2708 15.0625 18.5625C14.7708 18.8333 14.4167 18.9792 14 19C13.5833 18.9792 13.2292 18.8333 12.9375 18.5625C12.6667 18.2708 12.5208 17.9167 12.5 17.5V12.5C12.5208 12.0833 12.6667 11.7292 12.9375 11.4375C13.2292 11.1667 13.5833 11.0208 14 11Z" fill="black" fill-opacity="0.72"/>
</g>
<defs>
<clipPath id="clip0_1731_3760">
<rect width="16" height="24" fill="white"/>
</clipPath>
</defs>
</svg>
