<svg width="15" height="18" viewBox="0 0 15 18" fill="none" xmlns="http://www.w3.org/2000/svg">
<g id="label-paired / caption / box-archive-circle-arrow-down-caption / regular" clip-path="url(#clip0_1731_709)">
<path id="icon" d="M0 5C0 4.60156 0.328125 4.25 0.75 4.25C4.24219 4.25 7.73438 4.25 11.25 4.25C11.6484 4.25 12 4.60156 12 5C12 5.51562 12 6.00781 12 6.5C12 6.92188 11.6484 7.25 11.25 7.25C10.9922 7.25 10.7344 7.25 10.5 7.25C7.5 7.25 4.5 7.25 1.5 7.25C1.24219 7.25 0.984375 7.25 0.75 7.25C0.328125 7.25 0 6.92188 0 6.5C0 6.00781 0 5.51562 0 5ZM0.75 5C0.75 5.51562 0.75 6.00781 0.75 6.5C0.984375 6.5 1.24219 6.5 1.5 6.5C4.5 6.5 7.5 6.5 10.5 6.5C10.7344 6.5 10.9922 6.5 11.25 6.5C11.25 6.00781 11.25 5.51562 11.25 5H0.75ZM0.75 8H1.5C1.5 9.75781 1.5 11.5156 1.5 13.25C1.5 13.6719 1.82812 14 2.25 14C4.14844 14 6.04688 14 7.94531 14C8.08594 14.2812 8.25 14.5391 8.4375 14.75C6.375 14.75 4.3125 14.75 2.25 14.75C1.40625 14.75 0.75 14.0938 0.75 13.25C0.75 11.5156 0.75 9.75781 0.75 8ZM3.75 9.125C3.75 8.9375 3.91406 8.75 4.125 8.75C5.36719 8.75 6.60938 8.75 7.875 8.75C8.0625 8.75 8.25 8.9375 8.25 9.125C8.25 9.33594 8.0625 9.5 7.875 9.5C6.60938 9.5 5.36719 9.5 4.125 9.5C3.91406 9.5 3.75 9.33594 3.75 9.125ZM8.69531 10.4375C9.30469 9.40625 10.4062 8.75 11.625 8.75C12.8203 8.75 13.9453 9.40625 14.5312 10.4375C15.1406 11.4922 15.1406 12.7812 14.5312 13.8125C13.9453 14.8672 12.8203 15.5 11.625 15.5C10.4062 15.5 9.30469 14.8672 8.69531 13.8125C8.08594 12.7812 8.08594 11.4922 8.69531 10.4375ZM9.35156 10.8125C8.88281 11.6328 8.88281 12.6406 9.35156 13.4375C9.82031 14.2578 10.6875 14.75 11.625 14.75C12.5625 14.75 13.4297 14.2578 13.8984 13.4375C14.3672 12.6406 14.3672 11.6328 13.8984 10.8125C13.4297 10.0156 12.5625 9.5 11.625 9.5C10.6875 9.5 9.82031 10.0156 9.35156 10.8125ZM10.0312 12.0547C10.1719 11.9141 10.4297 11.9141 10.5703 12.0547C10.7812 12.2891 11.0156 12.5 11.25 12.7344C11.25 12.0312 11.25 11.3281 11.25 10.625C11.25 10.4375 11.4141 10.25 11.625 10.25C11.8125 10.25 12 10.4375 12 10.625C12 11.3281 12 12.0312 12 12.7344C12.2109 12.5 12.4453 12.2891 12.6562 12.0547C12.7969 11.9141 13.0547 11.9141 13.1953 12.0547C13.3359 12.1953 13.3359 12.4531 13.1953 12.5938C12.75 13.0156 12.3281 13.4609 11.8828 13.9062C11.7422 14.0469 11.4844 14.0469 11.3438 13.9062C10.9219 13.4609 10.4766 13.0156 10.0312 12.5938C9.89062 12.4531 9.89062 12.1953 10.0312 12.0547ZM10.5 8H11.25C11.25 8.02344 11.25 8.02344 11.25 8.02344C10.9922 8.04688 10.7344 8.09375 10.5 8.16406C10.5 8.11719 10.5 8.07031 10.5 8Z" fill="black" fill-opacity="0.72"/>
</g>
<defs>
<clipPath id="clip0_1731_709">
<rect width="15" height="18" fill="white"/>
</clipPath>
</defs>
</svg>
