<svg width="24" height="36" viewBox="0 0 24 36" fill="none" xmlns="http://www.w3.org/2000/svg">
<g id="label-paired / xl / arrows-rotate-xl / regular" clip-path="url(#clip0_1731_5701)">
<path id="icon" d="M3.23438 15.8906H3.28125C3.15625 16.2656 2.89062 16.4688 2.48438 16.5C1.95312 16.4375 1.71875 16.1562 1.78125 15.6562C2.34375 13.2812 3.5625 11.3438 5.4375 9.84375C7.28125 8.34375 9.46875 7.5625 12 7.5C13.9375 7.53125 15.6875 8 17.25 8.90625C18.8125 9.8125 20.0625 11.0469 21 12.6094V9.75C21.0312 9.28125 21.2812 9.03125 21.75 9C22.2188 9.03125 22.4688 9.28125 22.5 9.75V14.25C22.4688 14.7188 22.2188 14.9688 21.75 15H21.0469H17.25C16.7812 14.9688 16.5312 14.7188 16.5 14.25C16.5312 13.7812 16.7812 13.5312 17.25 13.5H19.7812C19 12.125 17.9219 11.0312 16.5469 10.2188C15.2031 9.4375 13.6875 9.03125 12 9C9.84375 9.03125 7.96875 9.6875 6.375 10.9688C4.8125 12.2188 3.76562 13.8594 3.23438 15.8906ZM20.7656 20.1562V20.1094C20.8594 19.7344 21.1094 19.5312 21.5156 19.5C22.0469 19.5625 22.2812 19.8438 22.2188 20.3438C21.6562 22.7188 20.4531 24.6562 18.6094 26.1562C16.7344 27.6562 14.5312 28.4375 12 28.5C10.0625 28.4688 8.3125 28 6.75 27.0938C5.1875 26.1875 3.9375 24.9688 3 23.4375V26.25C2.96875 26.7188 2.71875 26.9688 2.25 27C1.8125 26.9688 1.5625 26.7188 1.5 26.25V21.75C1.5625 21.2812 1.8125 21.0312 2.25 21H2.95312H6.75C7.21875 21.0312 7.46875 21.2812 7.5 21.75C7.46875 22.2188 7.21875 22.4688 6.75 22.5H4.21875C5 23.875 6.07812 24.9688 7.45312 25.7812C8.79688 26.5625 10.3125 26.9688 12 27C14.1562 26.9688 16.0312 26.3125 17.625 25.0312C19.1875 23.7812 20.2344 22.1562 20.7656 20.1562Z" fill="black" fill-opacity="0.72"/>
</g>
<defs>
<clipPath id="clip0_1731_5701">
<rect width="24" height="36" fill="white"/>
</clipPath>
</defs>
</svg>
