<svg width="21" height="36" viewBox="0 0 21 36" fill="none" xmlns="http://www.w3.org/2000/svg">
<g id="label-paired / xl / arrow-down-to-bracket-xl / regular" clip-path="url(#clip0_1731_5666)">
<path id="icon" d="M17.0156 16.2656L11.0156 22.2656C10.6719 22.5781 10.3281 22.5781 9.98438 22.2656L3.98438 16.2656C3.67188 15.9219 3.67188 15.5781 3.98438 15.2344C4.32812 14.9219 4.67188 14.9219 5.01562 15.2344L9.75 19.9219V6.75C9.78125 6.28125 10.0312 6.03125 10.5 6C10.9688 6.03125 11.2188 6.28125 11.25 6.75V19.9219L15.9844 15.2344C16.3281 14.9219 16.6719 14.9219 17.0156 15.2344C17.3281 15.5781 17.3281 15.9219 17.0156 16.2656ZM1.5 21.75V26.25C1.53125 26.875 1.75 27.4062 2.15625 27.8438C2.59375 28.25 3.125 28.4688 3.75 28.5H17.25C17.875 28.4688 18.4062 28.25 18.8438 27.8438C19.25 27.4062 19.4688 26.875 19.5 26.25V21.75C19.5312 21.2812 19.7812 21.0312 20.25 21C20.7188 21.0312 20.9688 21.2812 21 21.75V26.25C20.9688 27.3125 20.6094 28.2031 19.9219 28.9219C19.2031 29.6094 18.3125 29.9688 17.25 30H3.75C2.6875 29.9688 1.79688 29.6094 1.07812 28.9219C0.390625 28.2031 0.03125 27.3125 0 26.25V21.75C0.03125 21.2812 0.28125 21.0312 0.75 21C1.21875 21.0312 1.46875 21.2812 1.5 21.75Z" fill="black" fill-opacity="0.72"/>
</g>
<defs>
<clipPath id="clip0_1731_5666">
<rect width="21" height="36" fill="white"/>
</clipPath>
</defs>
</svg>
