<svg width="9" height="18" viewBox="0 0 9 18" fill="none" xmlns="http://www.w3.org/2000/svg">
<g id="label-paired / caption / file-circle-check-caption / regular" clip-path="url(#clip0_1731_1506)">
<path id="icon" d="M7.5 14.75C7.71875 14.75 7.89844 14.6797 8.03906 14.5391C8.17969 14.3984 8.25 14.2188 8.25 14V8H5.625C5.3125 7.98438 5.04688 7.875 4.82812 7.67188C4.625 7.45312 4.51562 7.1875 4.5 6.875V4.25H1.5C1.28125 4.25 1.10156 4.32031 0.960938 4.46094C0.820312 4.60156 0.75 4.78125 0.75 5V14C0.75 14.2188 0.820312 14.3984 0.960938 14.5391C1.10156 14.6797 1.28125 14.75 1.5 14.75H7.5ZM5.625 7.25H8.25C8.21875 7.1875 8.17969 7.13281 8.13281 7.08594L5.41406 4.36719C5.36719 4.32031 5.3125 4.28906 5.25 4.27344V6.875C5.26562 7.10938 5.39062 7.23438 5.625 7.25ZM1.5 3.5H5.15625C5.46875 3.5 5.73438 3.60938 5.95312 3.82812L8.67188 6.54688C8.89062 6.76562 9 7.03125 9 7.34375V14C8.98438 14.4219 8.83594 14.7734 8.55469 15.0547C8.27344 15.3359 7.92188 15.4844 7.5 15.5H1.5C1.07812 15.4844 0.726562 15.3359 0.445312 15.0547C0.164062 14.7734 0.015625 14.4219 0 14V5C0.015625 4.57812 0.164062 4.22656 0.445312 3.94531C0.726562 3.66406 1.07812 3.51563 1.5 3.5ZM6.63281 10.3906L4.14844 12.8984C3.96094 13.0391 3.78125 13.0391 3.60938 12.8984L2.36719 11.6328C2.21094 11.4609 2.21094 11.2891 2.36719 11.1172C2.53906 10.9766 2.71094 10.9766 2.88281 11.1172L3.86719 12.1016L6.11719 9.85156C6.28906 9.71094 6.46094 9.71094 6.63281 9.85156C6.78906 10.0391 6.78906 10.2188 6.63281 10.3906Z" fill="black" fill-opacity="0.72"/>
</g>
<defs>
<clipPath id="clip0_1731_1506">
<rect width="9" height="18" fill="white"/>
</clipPath>
</defs>
</svg>
