<svg width="16" height="24" viewBox="0 0 16 24" fill="none" xmlns="http://www.w3.org/2000/svg">
<g id="label-paired / md / chart-candlestick-md / bold" clip-path="url(#clip0_1731_3775)">
<path id="icon" d="M1.5 5.75V16.75C1.54167 17.2083 1.79167 17.4583 2.25 17.5H15.25C15.7083 17.5417 15.9583 17.7917 16 18.25C15.9583 18.7083 15.7083 18.9583 15.25 19H2.25C1.60417 18.9792 1.07292 18.7604 0.65625 18.3438C0.239583 17.9271 0.0208333 17.3958 0 16.75V5.75C0.0416667 5.29167 0.291667 5.04167 0.75 5C1.20833 5.04167 1.45833 5.29167 1.5 5.75ZM10 5.5V7C10.2917 7 10.5312 7.09375 10.7188 7.28125C10.9062 7.46875 11 7.70833 11 8V11C11 11.2917 10.9062 11.5312 10.7188 11.7188C10.5312 11.9062 10.2917 12 10 12V13.5C9.97917 13.8125 9.8125 13.9792 9.5 14C9.1875 13.9792 9.02083 13.8125 9 13.5V12C8.70833 12 8.46875 11.9062 8.28125 11.7188C8.09375 11.5312 8 11.2917 8 11V8C8 7.70833 8.09375 7.46875 8.28125 7.28125C8.46875 7.09375 8.70833 7 9 7V5.5C9.02083 5.1875 9.1875 5.02083 9.5 5C9.8125 5.02083 9.97917 5.1875 10 5.5ZM12 11C12 10.7083 12.0938 10.4688 12.2812 10.2812C12.4688 10.0938 12.7083 10 13 10V8.5C13.0208 8.1875 13.1875 8.02083 13.5 8C13.8125 8.02083 13.9792 8.1875 14 8.5V10C14.2917 10 14.5312 10.0938 14.7188 10.2812C14.9062 10.4688 15 10.7083 15 11V13C15 13.2917 14.9062 13.5312 14.7188 13.7188C14.5312 13.9062 14.2917 14 14 14V15.5C13.9792 15.8125 13.8125 15.9792 13.5 16C13.1875 15.9792 13.0208 15.8125 13 15.5V14C12.7083 14 12.4688 13.9062 12.2812 13.7188C12.0938 13.5312 12 13.2917 12 13V11ZM5 8V6.5C5.02083 6.1875 5.1875 6.02083 5.5 6C5.8125 6.02083 5.97917 6.1875 6 6.5V8C6.29167 8 6.53125 8.09375 6.71875 8.28125C6.90625 8.46875 7 8.70833 7 9V13C7 13.2917 6.90625 13.5312 6.71875 13.7188C6.53125 13.9062 6.29167 14 6 14V15.5C5.97917 15.8125 5.8125 15.9792 5.5 16C5.1875 15.9792 5.02083 15.8125 5 15.5V14C4.70833 14 4.46875 13.9062 4.28125 13.7188C4.09375 13.5312 4 13.2917 4 13V9C4 8.70833 4.09375 8.46875 4.28125 8.28125C4.46875 8.09375 4.70833 8 5 8Z" fill="black" fill-opacity="0.72"/>
</g>
<defs>
<clipPath id="clip0_1731_3775">
<rect width="16" height="24" fill="white"/>
</clipPath>
</defs>
</svg>
