<svg width="11" height="18" viewBox="0 0 11 18" fill="none" xmlns="http://www.w3.org/2000/svg">
<g id="label-paired / caption / expand-caption / regular" clip-path="url(#clip0_1731_579)">
<path id="icon" d="M3.625 4.25C3.85938 4.26562 3.98438 4.39062 4 4.625C3.98438 4.85938 3.85938 4.98438 3.625 5H1V7.625C0.984375 7.85938 0.859375 7.98438 0.625 8C0.390625 7.98438 0.265625 7.85938 0.25 7.625V4.625C0.265625 4.39062 0.390625 4.26562 0.625 4.25H3.625ZM0.25 11.375C0.265625 11.1406 0.390625 11.0156 0.625 11C0.859375 11.0156 0.984375 11.1406 1 11.375V14H3.625C3.85938 14.0156 3.98438 14.1406 4 14.375C3.98438 14.6094 3.85938 14.7344 3.625 14.75H0.625C0.390625 14.7344 0.265625 14.6094 0.25 14.375V11.375ZM10.375 4.25C10.6094 4.26562 10.7344 4.39062 10.75 4.625V7.625C10.7344 7.85938 10.6094 7.98438 10.375 8C10.1406 7.98438 10.0156 7.85938 10 7.625V5H7.375C7.14062 4.98438 7.01562 4.85938 7 4.625C7.01562 4.39062 7.14062 4.26562 7.375 4.25H10.375ZM10 11.375C10.0156 11.1406 10.1406 11.0156 10.375 11C10.6094 11.0156 10.7344 11.1406 10.75 11.375V14.375C10.7344 14.6094 10.6094 14.7344 10.375 14.75H7.375C7.14062 14.7344 7.01562 14.6094 7 14.375C7.01562 14.1406 7.14062 14.0156 7.375 14H10V11.375Z" fill="black" fill-opacity="0.72"/>
</g>
<defs>
<clipPath id="clip0_1731_579">
<rect width="11" height="18" fill="white"/>
</clipPath>
</defs>
</svg>
