<svg width="16" height="22" viewBox="0 0 16 22" fill="none" xmlns="http://www.w3.org/2000/svg">
<g id="label-paired / sm / house-blank-sm / bold" clip-path="url(#clip0_1731_2690)">
<path id="icon" d="M8.4375 3.91406L15.6562 10.0391C15.9297 10.3125 15.9479 10.6224 15.7109 10.9688C15.4375 11.2422 15.1367 11.2604 14.8086 11.0234L14.125 10.4766V15.5625C14.1068 16.1823 13.8971 16.7018 13.4961 17.1211C13.0768 17.5221 12.5573 17.7318 11.9375 17.75H4.0625C3.44271 17.7318 2.92318 17.5221 2.50391 17.1211C2.10286 16.7018 1.89323 16.1823 1.875 15.5625V10.4766L1.19141 11.0234C0.863281 11.2604 0.5625 11.2422 0.289062 10.9688C0.0520833 10.6224 0.0703125 10.3125 0.34375 10.0391L7.5625 3.91406C7.85417 3.69531 8.14583 3.69531 8.4375 3.91406ZM12.8125 9.35547L8 5.28125L3.1875 9.35547V15.5625C3.1875 15.8177 3.26953 16.0273 3.43359 16.1914C3.59766 16.3555 3.80729 16.4375 4.0625 16.4375H11.9375C12.1927 16.4375 12.4023 16.3555 12.5664 16.1914C12.7305 16.0273 12.8125 15.8177 12.8125 15.5625V9.35547Z" fill="black" fill-opacity="0.72"/>
</g>
<defs>
<clipPath id="clip0_1731_2690">
<rect width="16" height="22" fill="white"/>
</clipPath>
</defs>
</svg>
