<svg width="6" height="18" viewBox="0 0 6 18" fill="none" xmlns="http://www.w3.org/2000/svg">
<g id="label-paired / caption / one-caption / bold" clip-path="url(#clip0_1731_997)">
<path id="icon" d="M3.5625 4.8125V13.625H5.4375C5.78125 13.6562 5.96875 13.8438 6 14.1875C5.96875 14.5312 5.78125 14.7188 5.4375 14.75H3H0.5625C0.21875 14.7188 0.03125 14.5312 0 14.1875C0.03125 13.8438 0.21875 13.6562 0.5625 13.625H2.4375V5.82031L0.84375 6.78125C0.546875 6.9375 0.289062 6.88281 0.0703125 6.61719C-0.0703125 6.30469 -0.0078125 6.04688 0.257812 5.84375L2.69531 4.34375C2.88281 4.23438 3.07812 4.22656 3.28125 4.32031C3.46875 4.42969 3.5625 4.59375 3.5625 4.8125Z" fill="black" fill-opacity="0.72"/>
</g>
<defs>
<clipPath id="clip0_1731_997">
<rect width="6" height="18" fill="white"/>
</clipPath>
</defs>
</svg>
