<svg width="24" height="36" viewBox="0 0 24 36" fill="none" xmlns="http://www.w3.org/2000/svg">
<g id="label-paired / xl / forward-xl / fill" clip-path="url(#clip0_1731_6572)">
<path id="icon" d="M2.48438 26.6719C1.98438 27.0469 1.4375 27.1094 0.84375 26.8594C0.3125 26.5781 0.03125 26.125 0 25.5V10.5C0.03125 9.875 0.3125 9.42188 0.84375 9.14062C1.4375 8.89062 1.98438 8.95312 2.48438 9.32812L10.5 16.0312V18V19.9688L2.48438 26.6719ZM12 22.5V18V12V10.5C12.0312 9.875 12.3125 9.42188 12.8438 9.14062C13.4375 8.89062 13.9844 8.95312 14.4844 9.32812L23.4844 16.8281C23.8281 17.1406 24 17.5312 24 18C24 18.4688 23.8281 18.8594 23.4844 19.1719L14.4844 26.6719C13.9844 27.0469 13.4375 27.1094 12.8438 26.8594C12.3125 26.5781 12.0312 26.125 12 25.5V22.5Z" fill="black" fill-opacity="0.72"/>
</g>
<defs>
<clipPath id="clip0_1731_6572">
<rect width="24" height="36" fill="white"/>
</clipPath>
</defs>
</svg>
