<svg width="21" height="36" viewBox="0 0 21 36" fill="none" xmlns="http://www.w3.org/2000/svg">
<g id="label-paired / xl / tiktok-xl" clip-path="url(#clip0_1731_14118)">
<path id="icon" d="M21 15.8438C18.875 15.8438 16.9531 15.2344 15.2344 14.0156V22.3594C15.2344 23.9844 14.7812 25.4375 13.875 26.7188C13 28 11.8125 28.9375 10.3125 29.5312C8.78125 30.0625 7.26562 30.1406 5.76562 29.7656C4.26562 29.3906 2.96875 28.5938 1.875 27.375C0.84375 26.1562 0.234375 24.7656 0.046875 23.2031C-0.109375 21.6719 0.1875 20.1875 0.9375 18.75C1.71875 17.3438 2.79688 16.2812 4.17188 15.5625C5.57812 14.875 7.07812 14.625 8.67188 14.8125V19.0312C7.92188 18.8125 7.20312 18.8281 6.51562 19.0781C5.82812 19.2969 5.25 19.7188 4.78125 20.3438C4.34375 20.9688 4.125 21.6562 4.125 22.4062C4.125 23.125 4.34375 23.8125 4.78125 24.4688C5.25 25.0625 5.84375 25.4688 6.5625 25.6875C7.25 25.9375 7.96875 25.9375 8.71875 25.6875C9.4375 25.4375 10.0156 25.0156 10.4531 24.4219C10.8906 23.8281 11.1094 23.1406 11.1094 22.3594V6H15.2344C15.2344 6.34375 15.2656 6.6875 15.3281 7.03125C15.6719 8.625 16.5156 9.875 17.8594 10.7812C18.8281 11.4062 19.875 11.7344 21 11.7656V15.8438Z" fill="black" fill-opacity="0.72"/>
</g>
<defs>
<clipPath id="clip0_1731_14118">
<rect width="21" height="36" fill="white"/>
</clipPath>
</defs>
</svg>
