<svg width="21" height="36" viewBox="0 0 21 36" fill="none" xmlns="http://www.w3.org/2000/svg">
<g id="label-paired / xl / square-check-xl / bold" clip-path="url(#clip0_1731_5820)">
<path id="icon" d="M3 9.75C2.53125 9.78125 2.28125 10.0312 2.25 10.5V25.5C2.28125 25.9688 2.53125 26.2188 3 26.25H18C18.4688 26.2188 18.7188 25.9688 18.75 25.5V10.5C18.7188 10.0312 18.4688 9.78125 18 9.75H3ZM0 10.5C0.03125 9.65625 0.328125 8.95312 0.890625 8.39062C1.45312 7.82812 2.15625 7.53125 3 7.5H18C18.8438 7.53125 19.5469 7.82812 20.1094 8.39062C20.6719 8.95312 20.9688 9.65625 21 10.5V25.5C20.9688 26.3438 20.6719 27.0469 20.1094 27.6094C19.5469 28.1719 18.8438 28.4688 18 28.5H3C2.15625 28.4688 1.45312 28.1719 0.890625 27.6094C0.328125 27.0469 0.03125 26.3438 0 25.5V10.5ZM15.7969 15.7969L9.79688 21.7969C9.26562 22.2344 8.73438 22.2344 8.20312 21.7969L5.20312 18.7969C4.76562 18.2656 4.76562 17.7344 5.20312 17.2031C5.73438 16.7656 6.26562 16.7656 6.79688 17.2031L9 19.4062L14.2031 14.2031C14.7344 13.7656 15.2656 13.7656 15.7969 14.2031C16.2344 14.7344 16.2344 15.2656 15.7969 15.7969Z" fill="black" fill-opacity="0.72"/>
</g>
<defs>
<clipPath id="clip0_1731_5820">
<rect width="21" height="36" fill="white"/>
</clipPath>
</defs>
</svg>
