<svg width="14" height="22" viewBox="0 0 14 22" fill="none" xmlns="http://www.w3.org/2000/svg">
<g id="label-paired / sm / phone-sm / regular" clip-path="url(#clip0_1731_2566)">
<path id="icon" d="M10.2812 11.2695L13.3438 12.582C13.5807 12.6914 13.763 12.8646 13.8906 13.1016C14 13.3203 14.0273 13.5573 13.9727 13.8125L13.3164 16.875C13.1706 17.4219 12.8151 17.7135 12.25 17.75C12.0859 17.75 11.9219 17.75 11.7578 17.75C11.6302 17.7318 11.5026 17.7227 11.375 17.7227C9.24219 17.5404 7.31901 16.8932 5.60547 15.7812C3.89193 14.6693 2.53385 13.2201 1.53125 11.4336C0.528646 9.66536 0.0182292 7.6875 0 5.5C0.0364583 4.9349 0.328125 4.57943 0.875 4.43359L3.9375 3.77734C4.19271 3.72266 4.42969 3.75911 4.64844 3.88672C4.88542 3.99609 5.05859 4.16927 5.16797 4.40625L6.48047 7.46875C6.66276 7.96094 6.55339 8.38932 6.15234 8.75391L5.05859 9.65625C5.80599 10.9323 6.81771 11.944 8.09375 12.6914L8.99609 11.5977C9.36068 11.1966 9.78906 11.0872 10.2812 11.2695ZM12.25 16.875C12.3594 16.875 12.4323 16.8203 12.4688 16.7109L13.125 13.6484C13.1432 13.5208 13.0977 13.4388 12.9883 13.4023L9.92578 12.0898C9.83464 12.0534 9.7526 12.0716 9.67969 12.1445L8.77734 13.2656C8.44922 13.5938 8.07552 13.6576 7.65625 13.457C6.23438 12.6367 5.11328 11.5156 4.29297 10.0938C4.09245 9.67448 4.15625 9.30078 4.48438 8.97266L5.60547 8.07031C5.67839 7.9974 5.69661 7.91536 5.66016 7.82422L4.34766 4.76172C4.29297 4.65234 4.21094 4.60677 4.10156 4.625L1.03906 5.28125C0.929688 5.31771 0.875 5.39062 0.875 5.5C0.893229 7.61458 1.41276 9.52865 2.43359 11.2422C3.4362 12.9557 4.79427 14.3138 6.50781 15.3164C8.22135 16.3372 10.1354 16.8568 12.25 16.875Z" fill="black" fill-opacity="0.72"/>
</g>
<defs>
<clipPath id="clip0_1731_2566">
<rect width="14" height="22" fill="white"/>
</clipPath>
</defs>
</svg>
