<svg width="10" height="24" viewBox="0 0 10 24" fill="none" xmlns="http://www.w3.org/2000/svg">
<g id="label-paired / md / caret-down-md / regular" clip-path="url(#clip0_1731_4167)">
<path id="icon" d="M5.1875 14.9375L8.9375 11.375C8.97917 11.3333 9 11.2812 9 11.2188C8.97917 11.0938 8.90625 11.0208 8.78125 11H1.21875C1.09375 11.0208 1.02083 11.0938 1 11.2188C1 11.2812 1.02083 11.3333 1.0625 11.375L4.8125 14.9375C4.875 14.9792 4.9375 15 5 15C5.0625 15 5.125 14.9792 5.1875 14.9375ZM5.875 15.6562C5.625 15.8854 5.33333 16 5 16C4.66667 16 4.375 15.8854 4.125 15.6562L0.375 12.125C0.125 11.875 0 11.5729 0 11.2188C0 10.8646 0.114583 10.5729 0.34375 10.3438C0.572917 10.1146 0.864583 10 1.21875 10H8.78125C9.13542 10.0208 9.42708 10.1458 9.65625 10.375C9.88542 10.6042 10 10.8854 10 11.2188C10 11.5729 9.875 11.875 9.625 12.125L5.875 15.6562Z" fill="black" fill-opacity="0.72"/>
</g>
<defs>
<clipPath id="clip0_1731_4167">
<rect width="10" height="24" fill="white"/>
</clipPath>
</defs>
</svg>
