<svg width="14" height="24" viewBox="0 0 14 24" fill="none" xmlns="http://www.w3.org/2000/svg">
<g id="label-paired / md / square-md / bold" clip-path="url(#clip0_1731_3297)">
<path id="icon" d="M12 6.5H2C1.6875 6.52083 1.52083 6.6875 1.5 7V17C1.52083 17.3125 1.6875 17.4792 2 17.5H12C12.3125 17.4792 12.4792 17.3125 12.5 17V7C12.4792 6.6875 12.3125 6.52083 12 6.5ZM2 5H12C12.5625 5.02083 13.0312 5.21875 13.4062 5.59375C13.7812 5.96875 13.9792 6.4375 14 7V17C13.9792 17.5625 13.7812 18.0312 13.4062 18.4062C13.0312 18.7812 12.5625 18.9792 12 19H2C1.4375 18.9792 0.96875 18.7812 0.59375 18.4062C0.21875 18.0312 0.0208333 17.5625 0 17V7C0.0208333 6.4375 0.21875 5.96875 0.59375 5.59375C0.96875 5.21875 1.4375 5.02083 2 5Z" fill="black" fill-opacity="0.72"/>
</g>
<defs>
<clipPath id="clip0_1731_3297">
<rect width="14" height="24" fill="white"/>
</clipPath>
</defs>
</svg>
