<svg width="29" height="36" viewBox="0 0 29 36" fill="none" xmlns="http://www.w3.org/2000/svg">
<g id="label-paired / xl / microsoft-store-xl" clip-path="url(#clip0_1731_14123)">
<path id="icon" d="M9.78906 12V9.32812C9.78906 7.6875 10.6328 7.17188 12.2266 6.79688C14.6172 6.23438 14.7578 7.78125 14.7578 8.76562V11.0156L15.3672 10.9219V8.8125C15.3672 6.9375 14.7578 5.57812 12.1328 6.1875C10.6797 6.46875 9.22656 6.84375 9.22656 9.28125V12.1406L9.78906 12ZM15.9297 8.29688C15.8828 8.0625 15.8359 7.875 15.8359 7.6875C17.6641 7.45312 17.9922 7.96875 17.9922 10.0312V10.4062L17.4297 10.5V10.0312C17.4297 9.98438 17.4297 9.98438 17.4297 9.9375C17.4297 8.67188 17.4297 8.0625 15.9297 8.29688ZM12.4141 10.5938C12.4141 8.71875 13.1641 8.4375 14.1016 8.10938C14.1484 8.29688 14.1953 8.48438 14.1953 8.71875C13.3516 9.09375 13.0234 9.32812 13.0234 10.5938V11.3906L12.4141 11.4844V10.5938ZM4.82031 13.7344L20.8984 10.5L24.1328 11.6719V27.4219L20.8984 28.5938L4.82031 25.4062V13.7344ZM8.28906 22.5L11.8516 22.9688V19.5469H8.28906V22.5ZM8.28906 19.0781H11.8516V15.8438L8.28906 16.3594V19.0781ZM12.3203 23.0156L16.8203 23.6719V19.5469H12.3203V23.0156ZM12.3203 19.0781H16.8203V15.1875L12.3203 15.8438V19.0781Z" fill="black" fill-opacity="0.72"/>
</g>
<defs>
<clipPath id="clip0_1731_14123">
<rect width="29" height="36" fill="white"/>
</clipPath>
</defs>
</svg>
