<svg width="24" height="36" viewBox="0 0 24 36" fill="none" xmlns="http://www.w3.org/2000/svg">
<g id="label-paired / xl / circle-sort-xl / regular" clip-path="url(#clip0_1731_6143)">
<path id="icon" d="M22.5 18C22.4688 16.0938 22 14.3438 21.0938 12.75C20.1562 11.1562 18.875 9.875 17.25 8.90625C15.5938 7.96875 13.8438 7.5 12 7.5C10.1562 7.5 8.40625 7.96875 6.75 8.90625C5.125 9.875 3.84375 11.1562 2.90625 12.75C2 14.3438 1.53125 16.0938 1.5 18C1.53125 19.9062 2 21.6562 2.90625 23.25C3.84375 24.8438 5.125 26.125 6.75 27.0938C8.40625 28.0312 10.1562 28.5 12 28.5C13.8438 28.5 15.5938 28.0312 17.25 27.0938C18.875 26.125 20.1562 24.8438 21.0938 23.25C22 21.6562 22.4688 19.9062 22.5 18ZM0 18C0.03125 15.8125 0.5625 13.8125 1.59375 12C2.65625 10.1875 4.125 8.71875 6 7.59375C7.90625 6.53125 9.90625 6 12 6C14.0938 6 16.0938 6.53125 18 7.59375C19.875 8.71875 21.3438 10.1875 22.4062 12C23.4375 13.8125 23.9688 15.8125 24 18C23.9688 20.1875 23.4375 22.1875 22.4062 24C21.3438 25.8125 19.875 27.2812 18 28.4062C16.0938 29.4688 14.0938 30 12 30C9.90625 30 7.90625 29.4688 6 28.4062C4.125 27.2812 2.65625 25.8125 1.59375 24C0.5625 22.1875 0.03125 20.1875 0 18ZM11.4844 10.7344C11.8281 10.4219 12.1719 10.4219 12.5156 10.7344L17.0156 15.2344C17.2344 15.4531 17.2969 15.7188 17.2031 16.0312C17.0469 16.3125 16.8125 16.4688 16.5 16.5H7.5C7.1875 16.5 6.95312 16.3438 6.79688 16.0312C6.70312 15.7188 6.76562 15.4531 6.98438 15.2344L11.4844 10.7344ZM9.32812 15H14.6719L12 12.3281L9.32812 15ZM6.98438 20.7656C6.76562 20.5469 6.70312 20.2812 6.79688 19.9688C6.95312 19.6875 7.1875 19.5312 7.5 19.5H16.5C16.8125 19.5 17.0469 19.6562 17.2031 19.9688C17.2969 20.2812 17.2344 20.5469 17.0156 20.7656L12.5156 25.2656C12.1719 25.5781 11.8281 25.5781 11.4844 25.2656L6.98438 20.7656ZM12 23.6719L14.6719 21H9.32812L12 23.6719Z" fill="black" fill-opacity="0.72"/>
</g>
<defs>
<clipPath id="clip0_1731_6143">
<rect width="24" height="36" fill="white"/>
</clipPath>
</defs>
</svg>
