<svg width="23" height="30" viewBox="0 0 23 30" fill="none" xmlns="http://www.w3.org/2000/svg">
<g id="label-paired / lg / rectangle-ad-lg / bold" clip-path="url(#clip0_1731_4813)">
<path id="icon" d="M2.75 8.625C2.35938 8.65104 2.15104 8.85938 2.125 9.25V21.75C2.15104 22.1406 2.35938 22.349 2.75 22.375H20.25C20.6406 22.349 20.849 22.1406 20.875 21.75V9.25C20.849 8.85938 20.6406 8.65104 20.25 8.625H2.75ZM0.25 9.25C0.276042 8.54688 0.523438 7.96094 0.992188 7.49219C1.46094 7.02344 2.04688 6.77604 2.75 6.75H20.25C20.9531 6.77604 21.5391 7.02344 22.0078 7.49219C22.4766 7.96094 22.724 8.54688 22.75 9.25V21.75C22.724 22.4531 22.4766 23.0391 22.0078 23.5078C21.5391 23.9766 20.9531 24.224 20.25 24.25H2.75C2.04688 24.224 1.46094 23.9766 0.992188 23.5078C0.523438 23.0391 0.276042 22.4531 0.25 21.75V9.25ZM9.23438 12.2578L12.0469 17.8828C12.2292 18.4297 12.0859 18.8594 11.6172 19.1719C11.0703 19.3542 10.6536 19.2109 10.3672 18.7422L10.1328 18.3125H6.61719L6.38281 18.7422C6.09635 19.2109 5.67969 19.3411 5.13281 19.1328C4.63802 18.8464 4.50781 18.4297 4.74219 17.8828L7.55469 12.2578C7.73698 11.9193 8.01042 11.75 8.375 11.75C8.76562 11.75 9.05208 11.9193 9.23438 12.2578ZM8.375 14.7969L7.55469 16.4375H9.19531L8.375 14.7969ZM15.5625 15.5C14.9896 15.5521 14.6771 15.8646 14.625 16.4375C14.6771 17.0104 14.9896 17.3229 15.5625 17.375C16.1354 17.3229 16.4479 17.0104 16.5 16.4375C16.4479 15.8646 16.1354 15.5521 15.5625 15.5ZM16.5 13.7812V12.6875C16.5521 12.1146 16.8646 11.8021 17.4375 11.75C18.0104 11.8021 18.3229 12.1146 18.375 12.6875V16.4375V18.3125C18.3229 18.8854 18.0104 19.1979 17.4375 19.25C17.1771 19.25 16.9557 19.1589 16.7734 18.9766C16.4089 19.1589 16.0052 19.25 15.5625 19.25C14.7552 19.224 14.0911 18.9505 13.5703 18.4297C13.0495 17.9089 12.776 17.2448 12.75 16.4375C12.776 15.6302 13.0495 14.9661 13.5703 14.4453C14.0911 13.9245 14.7552 13.651 15.5625 13.625C15.901 13.625 16.2135 13.6771 16.5 13.7812Z" fill="black" fill-opacity="0.72"/>
</g>
<defs>
<clipPath id="clip0_1731_4813">
<rect width="23" height="30" fill="white"/>
</clipPath>
</defs>
</svg>
