<svg width="16" height="22" viewBox="0 0 16 22" fill="none" xmlns="http://www.w3.org/2000/svg">
<g id="label-paired / sm / file-circle-info-sm / regular" clip-path="url(#clip0_1731_2749)">
<path id="icon" d="M1.875 16.875H8.21875C8.49219 17.2031 8.80208 17.4857 9.14844 17.7227C9.05729 17.7409 8.96615 17.75 8.875 17.75H1.875C1.38281 17.7318 0.972656 17.5586 0.644531 17.2305C0.316406 16.9023 0.143229 16.4922 0.125 16V5.5C0.143229 5.00781 0.316406 4.59766 0.644531 4.26953C0.972656 3.94141 1.38281 3.76823 1.875 3.75H6.14062C6.50521 3.75 6.8151 3.8776 7.07031 4.13281L10.2422 7.30469C10.4974 7.5599 10.625 7.86979 10.625 8.23438V9.16406C10.3151 9.25521 10.0234 9.3737 9.75 9.51953V9H6.6875C6.32292 8.98177 6.01302 8.85417 5.75781 8.61719C5.52083 8.36198 5.39323 8.05208 5.375 7.6875V4.625H1.875C1.61979 4.625 1.41016 4.70703 1.24609 4.87109C1.08203 5.03516 1 5.24479 1 5.5V16C1 16.2552 1.08203 16.4648 1.24609 16.6289C1.41016 16.793 1.61979 16.875 1.875 16.875ZM9.75 8.125C9.71354 8.05208 9.66797 7.98828 9.61328 7.93359L6.44141 4.76172C6.38672 4.70703 6.32292 4.67057 6.25 4.65234V7.6875C6.26823 7.96094 6.41406 8.10677 6.6875 8.125H9.75ZM15 13.8125C15 13.2656 14.8633 12.7552 14.5898 12.2812C14.3164 11.8073 13.9427 11.4336 13.4688 11.1602C12.9948 10.8867 12.4844 10.75 11.9375 10.75C11.3906 10.75 10.8802 10.8867 10.4062 11.1602C9.93229 11.4336 9.55859 11.8073 9.28516 12.2812C9.01172 12.7552 8.875 13.2656 8.875 13.8125C8.875 14.3594 9.01172 14.8698 9.28516 15.3438C9.55859 15.8177 9.93229 16.1914 10.4062 16.4648C10.8802 16.7383 11.3906 16.875 11.9375 16.875C12.4844 16.875 12.9948 16.7383 13.4688 16.4648C13.9427 16.1914 14.3164 15.8177 14.5898 15.3438C14.8633 14.8698 15 14.3594 15 13.8125ZM8 13.8125C8 13.1016 8.17318 12.4453 8.51953 11.8438C8.86589 11.2422 9.34896 10.7591 9.96875 10.3945C10.5885 10.0482 11.2448 9.875 11.9375 9.875C12.6302 9.875 13.2865 10.0482 13.9062 10.3945C14.526 10.7591 15.0091 11.2422 15.3555 11.8438C15.7018 12.4453 15.875 13.1016 15.875 13.8125C15.875 14.5234 15.7018 15.1797 15.3555 15.7812C15.0091 16.3828 14.526 16.8659 13.9062 17.2305C13.2865 17.5768 12.6302 17.75 11.9375 17.75C11.2448 17.75 10.5885 17.5768 9.96875 17.2305C9.34896 16.8659 8.86589 16.3828 8.51953 15.7812C8.17318 15.1797 8 14.5234 8 13.8125ZM11.9375 12.9375C11.5365 12.901 11.3177 12.6823 11.2812 12.2812C11.3177 11.8802 11.5365 11.6615 11.9375 11.625C12.3385 11.6615 12.5573 11.8802 12.5938 12.2812C12.5573 12.6823 12.3385 12.901 11.9375 12.9375ZM11.0625 15.5625C11.0807 15.2891 11.2266 15.1432 11.5 15.125V14.25C11.2266 14.2318 11.0807 14.0859 11.0625 13.8125C11.0807 13.5391 11.2266 13.3932 11.5 13.375H11.9375C12.2109 13.3932 12.3568 13.5391 12.375 13.8125V15.125C12.6484 15.1432 12.7943 15.2891 12.8125 15.5625C12.7943 15.8359 12.6484 15.9818 12.375 16H11.9375H11.5C11.2266 15.9818 11.0807 15.8359 11.0625 15.5625Z" fill="black" fill-opacity="0.72"/>
</g>
<defs>
<clipPath id="clip0_1731_2749">
<rect width="16" height="22" fill="white"/>
</clipPath>
</defs>
</svg>
