<svg width="21" height="36" viewBox="0 0 21 36" fill="none" xmlns="http://www.w3.org/2000/svg">
<g id="label-paired / xl / arrow-down-to-bracket-xl / bold" clip-path="url(#clip0_1731_5668)">
<path id="icon" d="M17.2969 16.1719L11.2969 22.1719C10.7656 22.6094 10.2344 22.6094 9.70312 22.1719L3.70312 16.1719C3.26562 15.6406 3.26562 15.1094 3.70312 14.5781C4.23438 14.1406 4.76562 14.1406 5.29688 14.5781L9.375 18.6562V7.125C9.4375 6.4375 9.8125 6.0625 10.5 6C11.1875 6.0625 11.5625 6.4375 11.625 7.125V18.6562L15.7031 14.5781C16.2344 14.1406 16.7656 14.1406 17.2969 14.5781C17.7344 15.1094 17.7344 15.6406 17.2969 16.1719ZM2.25 22.125V25.875C2.25 26.4062 2.4375 26.8438 2.8125 27.1875C3.15625 27.5625 3.59375 27.75 4.125 27.75H16.875C17.4062 27.75 17.8438 27.5625 18.1875 27.1875C18.5625 26.8438 18.75 26.4062 18.75 25.875V22.125C18.8125 21.4375 19.1875 21.0625 19.875 21C20.5625 21.0625 20.9375 21.4375 21 22.125V25.875C20.9688 27.0312 20.5625 28 19.7812 28.7812C19 29.5625 18.0312 29.9688 16.875 30H4.125C2.96875 29.9688 2 29.5625 1.21875 28.7812C0.4375 28 0.03125 27.0312 0 25.875V22.125C0.0625 21.4375 0.4375 21.0625 1.125 21C1.8125 21.0625 2.1875 21.4375 2.25 22.125Z" fill="black" fill-opacity="0.72"/>
</g>
<defs>
<clipPath id="clip0_1731_5668">
<rect width="21" height="36" fill="white"/>
</clipPath>
</defs>
</svg>
