<svg width="15" height="36" viewBox="0 0 15 36" fill="none" xmlns="http://www.w3.org/2000/svg">
<g id="label-paired / xl / caret-up-xl / regular" clip-path="url(#clip0_1731_6673)">
<path id="icon" d="M7.21875 13.5938L1.59375 18.9375C1.53125 19 1.5 19.0781 1.5 19.1719C1.53125 19.3594 1.64062 19.4688 1.82812 19.5H13.1719C13.3594 19.4688 13.4688 19.3594 13.5 19.1719C13.5 19.0781 13.4688 19 13.4062 18.9375L7.78125 13.5938C7.6875 13.5312 7.59375 13.5 7.5 13.5C7.40625 13.5 7.3125 13.5312 7.21875 13.5938ZM6.1875 12.5156C6.5625 12.1719 7 12 7.5 12C8 12 8.4375 12.1719 8.8125 12.5156L14.4375 17.8594C14.8125 18.2031 15 18.6406 15 19.1719C15 19.7031 14.8281 20.1406 14.4844 20.4844C14.1406 20.8281 13.7031 21 13.1719 21H1.82812C1.29688 21 0.859375 20.8281 0.515625 20.4844C0.171875 20.1406 0 19.7031 0 19.1719C0 18.6406 0.1875 18.1875 0.5625 17.8125L6.1875 12.5156Z" fill="black" fill-opacity="0.72"/>
</g>
<defs>
<clipPath id="clip0_1731_6673">
<rect width="15" height="36" fill="white"/>
</clipPath>
</defs>
</svg>
