<svg width="30" height="36" viewBox="0 0 30 36" fill="none" xmlns="http://www.w3.org/2000/svg">
<g id="label-paired / xl / language-xl / regular" clip-path="url(#clip0_1731_6365)">
<path id="icon" d="M14.25 10.5H3C2.5625 10.5 2.20312 10.6406 1.92188 10.9219C1.64062 11.2031 1.5 11.5625 1.5 12V24C1.5 24.4375 1.64062 24.7969 1.92188 25.0781C2.20312 25.3594 2.5625 25.5 3 25.5H14.25V10.5ZM15.75 10.5V25.5H27C27.4375 25.5 27.7969 25.3594 28.0781 25.0781C28.3594 24.7969 28.5 24.4375 28.5 24V12C28.5 11.5625 28.3594 11.2031 28.0781 10.9219C27.7969 10.6406 27.4375 10.5 27 10.5H15.75ZM30 12V24C29.9688 24.8438 29.6719 25.5469 29.1094 26.1094C28.5469 26.6719 27.8438 26.9688 27 27H3C2.15625 26.9688 1.45312 26.6719 0.890625 26.1094C0.328125 25.5469 0.03125 24.8438 0 24V12C0.03125 11.1562 0.328125 10.4531 0.890625 9.89062C1.45312 9.32812 2.15625 9.03125 3 9H27C27.8438 9.03125 28.5469 9.32812 29.1094 9.89062C29.6719 10.4531 29.9688 11.1562 30 12ZM8.20312 13.9688L11.2031 21.4688C11.3281 21.9062 11.1875 22.2344 10.7812 22.4531C10.3438 22.5781 10.0156 22.4375 9.79688 22.0312L9.375 21H5.625L5.20312 22.0312C4.98438 22.4375 4.65625 22.5781 4.21875 22.4531C3.8125 22.2344 3.67188 21.9062 3.79688 21.4688L6.79688 13.9688C6.95312 13.6562 7.1875 13.5 7.5 13.5C7.8125 13.5 8.04688 13.6562 8.20312 13.9688ZM7.5 16.2656L6.1875 19.5H8.8125L7.5 16.2656ZM23.25 14.25V15H25.5H26.25C26.7188 15.0312 26.9688 15.2812 27 15.75C26.9688 16.2188 26.7188 16.4688 26.25 16.5H26.0156L25.8281 17.0625C25.3594 18.2812 24.6719 19.3594 23.7656 20.2969C23.9219 20.3906 24.0781 20.4844 24.2344 20.5781L25.125 21.0938C25.5 21.375 25.5938 21.7188 25.4062 22.125C25.125 22.5 24.7812 22.5938 24.375 22.4062L23.4844 21.8438C23.1719 21.6875 22.875 21.5 22.5938 21.2812C22.2188 21.5625 21.8125 21.8125 21.375 22.0312L20.5781 22.4062C20.1406 22.5625 19.8125 22.4531 19.5938 22.0781C19.4062 21.6406 19.5156 21.3125 19.9219 21.0938L20.7188 20.6719C20.9688 20.5469 21.2188 20.4062 21.4688 20.25L20.4844 19.2656C20.2031 18.9219 20.2031 18.5781 20.4844 18.2344C20.8281 17.9219 21.1719 17.9219 21.5156 18.2344L22.5938 19.2656L22.6406 19.3125C23.4219 18.5312 24.0156 17.6094 24.4219 16.5469V16.5H22.5H18.75C18.2812 16.4688 18.0312 16.2188 18 15.75C18.0312 15.2812 18.2812 15.0312 18.75 15H21.75V14.25C21.7812 13.7812 22.0312 13.5312 22.5 13.5C22.9688 13.5312 23.2188 13.7812 23.25 14.25Z" fill="black" fill-opacity="0.72"/>
</g>
<defs>
<clipPath id="clip0_1731_6365">
<rect width="30" height="36" fill="white"/>
</clipPath>
</defs>
</svg>
