<svg width="9" height="22" viewBox="0 0 9 22" fill="none" xmlns="http://www.w3.org/2000/svg">
<g id="label-paired / sm / sterling-sign-sm / bold" clip-path="url(#clip0_1731_2972)">
<path id="icon" d="M2.75 8.09766V9.875H6.46875C6.86979 9.91146 7.08854 10.1302 7.125 10.5312C7.08854 10.9323 6.86979 11.151 6.46875 11.1875H2.75V12.9102C2.75 13.6211 2.57682 14.2865 2.23047 14.9062L1.875 15.5625H8.21875C8.61979 15.599 8.83854 15.8177 8.875 16.2188C8.83854 16.6198 8.61979 16.8385 8.21875 16.875H0.78125C0.544271 16.875 0.352865 16.7656 0.207031 16.5469C0.0976562 16.3464 0.0976562 16.1367 0.207031 15.918L1.08203 14.2773C1.31901 13.8581 1.4375 13.4023 1.4375 12.9102V11.1875H0.78125C0.380208 11.151 0.161458 10.9323 0.125 10.5312C0.161458 10.1302 0.380208 9.91146 0.78125 9.875H1.4375V8.09766C1.45573 7.11328 1.79297 6.29297 2.44922 5.63672C3.10547 4.98047 3.92578 4.64323 4.91016 4.625C5.29297 4.625 5.66667 4.6888 6.03125 4.81641L8.21875 5.52734C8.58333 5.69141 8.72005 5.97396 8.62891 6.375C8.46484 6.73958 8.18229 6.8763 7.78125 6.78516L5.59375 6.04688C5.375 5.97396 5.14714 5.9375 4.91016 5.9375C4.30859 5.95573 3.79818 6.16536 3.37891 6.56641C2.97786 6.98568 2.76823 7.49609 2.75 8.09766Z" fill="black" fill-opacity="0.72"/>
</g>
<defs>
<clipPath id="clip0_1731_2972">
<rect width="9" height="22" fill="white"/>
</clipPath>
</defs>
</svg>
