<svg width="18" height="24" viewBox="0 0 18 24" fill="none" xmlns="http://www.w3.org/2000/svg">
<g id="label-paired / md / file-circle-info-md / bold" clip-path="url(#clip0_1731_4009)">
<path id="icon" d="M2 18.5H8.90625C9.28125 19.0833 9.75 19.5729 10.3125 19.9688C10.2083 19.9896 10.1042 20 10 20H2C1.4375 19.9792 0.96875 19.7812 0.59375 19.4062C0.21875 19.0312 0.0208333 18.5625 0 18V6C0.0208333 5.4375 0.21875 4.96875 0.59375 4.59375C0.96875 4.21875 1.4375 4.02083 2 4H7.1875C7.72917 4 8.19792 4.19792 8.59375 4.59375L11.4062 7.40625C11.8021 7.80208 12 8.28125 12 8.84375V10.2188C11.4583 10.3646 10.9583 10.5833 10.5 10.875V9H8C7.70833 9 7.46875 8.90625 7.28125 8.71875C7.09375 8.53125 7 8.29167 7 8V5.5H2C1.6875 5.52083 1.52083 5.6875 1.5 6V18C1.52083 18.3125 1.6875 18.4792 2 18.5ZM13.5 11C14.3125 11 15.0625 11.1979 15.75 11.5938C16.4375 11.9896 16.9896 12.5417 17.4062 13.25C17.8021 13.9583 18 14.7083 18 15.5C18 16.2917 17.8021 17.0417 17.4062 17.75C16.9896 18.4583 16.4375 19.0104 15.75 19.4062C15.0625 19.8021 14.3125 20 13.5 20C12.6875 20 11.9375 19.8021 11.25 19.4062C10.5625 19.0104 10.0104 18.4583 9.59375 17.75C9.19792 17.0417 9 16.2917 9 15.5C9 14.7083 9.19792 13.9583 9.59375 13.25C10.0104 12.5417 10.5625 11.9896 11.25 11.5938C11.9375 11.1979 12.6875 11 13.5 11ZM13.5 14C13.9583 13.9583 14.2083 13.7083 14.25 13.25C14.2083 12.7917 13.9583 12.5417 13.5 12.5C13.0417 12.5417 12.7917 12.7917 12.75 13.25C12.7917 13.7083 13.0417 13.9583 13.5 14ZM12.5 15.5C12.5208 15.8125 12.6875 15.9792 13 16V17.5C12.6875 17.5208 12.5208 17.6875 12.5 18C12.5208 18.3125 12.6875 18.4792 13 18.5H13.5H14C14.3125 18.4792 14.4792 18.3125 14.5 18C14.4792 17.6875 14.3125 17.5208 14 17.5V15.5C13.9792 15.1875 13.8125 15.0208 13.5 15H13C12.6875 15.0208 12.5208 15.1875 12.5 15.5Z" fill="black" fill-opacity="0.72"/>
</g>
<defs>
<clipPath id="clip0_1731_4009">
<rect width="18" height="24" fill="white"/>
</clipPath>
</defs>
</svg>
