<svg width="9" height="22" viewBox="0 0 9 22" fill="none" xmlns="http://www.w3.org/2000/svg">
<g id="label-paired / sm / caret-up-sm / regular" clip-path="url(#clip0_1731_2899)">
<path id="icon" d="M4.33594 8.17969L1.05469 11.2969C1.01823 11.3333 1 11.3789 1 11.4336C1.01823 11.543 1.08203 11.6068 1.19141 11.625H7.80859C7.91797 11.6068 7.98177 11.543 8 11.4336C8 11.3789 7.98177 11.3333 7.94531 11.2969L4.66406 8.17969C4.60938 8.14323 4.55469 8.125 4.5 8.125C4.44531 8.125 4.39062 8.14323 4.33594 8.17969ZM3.73438 7.55078C3.95312 7.35026 4.20833 7.25 4.5 7.25C4.79167 7.25 5.04688 7.35026 5.26562 7.55078L8.54688 10.668C8.76562 10.8685 8.875 11.1237 8.875 11.4336C8.875 11.7435 8.77474 11.9987 8.57422 12.1992C8.3737 12.3997 8.11849 12.5 7.80859 12.5H1.19141C0.88151 12.5 0.626302 12.3997 0.425781 12.1992C0.22526 11.9987 0.125 11.7435 0.125 11.4336C0.125 11.1237 0.234375 10.8594 0.453125 10.6406L3.73438 7.55078Z" fill="black" fill-opacity="0.72"/>
</g>
<defs>
<clipPath id="clip0_1731_2899">
<rect width="9" height="22" fill="white"/>
</clipPath>
</defs>
</svg>
