<svg width="15" height="36" viewBox="0 0 15 36" fill="none" xmlns="http://www.w3.org/2000/svg">
<g id="label-paired / xl / sterling-sign-xl / regular" clip-path="url(#clip0_1731_6743)">
<path id="icon" d="M3.75 13.125V18H11.25C11.7188 18.0312 11.9688 18.2812 12 18.75C11.9688 19.2188 11.7188 19.4688 11.25 19.5H3.75C3.6875 22.125 3.09375 24.625 1.96875 27H14.25C14.7188 27.0312 14.9688 27.2812 15 27.75C14.9688 28.2188 14.7188 28.4688 14.25 28.5H0.75C0.46875 28.5 0.25 28.375 0.09375 28.125C-0.03125 27.875 -0.03125 27.625 0.09375 27.375L0.140625 27.2812C1.45312 24.8438 2.15625 22.25 2.25 19.5H0.75C0.28125 19.4688 0.03125 19.2188 0 18.75C0.03125 18.2812 0.28125 18.0312 0.75 18H2.25V13.125C2.28125 11.5312 2.82812 10.2031 3.89062 9.14062C4.95312 8.07812 6.28125 7.53125 7.875 7.5H8.20312C8.82812 7.5 9.42188 7.59375 9.98438 7.78125L13.7344 9.04688C14.1406 9.23438 14.2969 9.54688 14.2031 9.98438C14.0156 10.4219 13.7031 10.5781 13.2656 10.4531L9.51562 9.23438C9.07812 9.07812 8.64062 9 8.20312 9H7.875C6.71875 9.03125 5.75 9.4375 4.96875 10.2188C4.1875 11 3.78125 11.9688 3.75 13.125Z" fill="black" fill-opacity="0.72"/>
</g>
<defs>
<clipPath id="clip0_1731_6743">
<rect width="15" height="36" fill="white"/>
</clipPath>
</defs>
</svg>
