<svg width="24" height="36" viewBox="0 0 24 36" fill="none" xmlns="http://www.w3.org/2000/svg">
<g id="label-paired / xl / at-xl / bold" clip-path="url(#clip0_1731_6392)">
<path id="icon" d="M12 8.25C9.25 8.3125 6.95312 9.26562 5.10938 11.1094C3.26562 12.9531 2.3125 15.25 2.25 18C2.3125 20.75 3.26562 23.0469 5.10938 24.8906C6.95312 26.7344 9.25 27.6875 12 27.75C12.6875 27.8125 13.0625 28.1875 13.125 28.875C13.0625 29.5625 12.6875 29.9375 12 30C9.75 29.9688 7.73438 29.4219 5.95312 28.3594C4.14062 27.2969 2.70312 25.8594 1.64062 24.0469C0.578125 22.2656 0.03125 20.25 0 18C0.03125 15.75 0.578125 13.7344 1.64062 11.9531C2.70312 10.1406 4.14062 8.70312 5.95312 7.64062C7.73438 6.57812 9.75 6.03125 12 6C14.25 6.03125 16.2656 6.57812 18.0469 7.64062C19.8594 8.70312 21.2969 10.1406 22.3594 11.9531C23.4219 13.7344 23.9688 15.75 24 18V19.3125C23.9688 20.5312 23.5469 21.5469 22.7344 22.3594C21.9219 23.1719 20.9062 23.5938 19.6875 23.625C18.1562 23.5625 16.9844 22.9531 16.1719 21.7969C15.0781 22.9531 13.6875 23.5625 12 23.625C10.4062 23.5938 9.07812 23.0469 8.01562 21.9844C6.95312 20.9219 6.40625 19.5938 6.375 18C6.40625 16.4062 6.95312 15.0781 8.01562 14.0156C9.07812 12.9531 10.4062 12.4062 12 12.375C13.375 12.4062 14.5625 12.8281 15.5625 13.6406C15.7812 13.3281 16.0938 13.1562 16.5 13.125C17.1875 13.1875 17.5625 13.5625 17.625 14.25V18V19.3125C17.625 19.9062 17.8281 20.3906 18.2344 20.7656C18.6094 21.1719 19.0938 21.375 19.6875 21.375C20.2812 21.375 20.7656 21.1719 21.1406 20.7656C21.5469 20.3906 21.75 19.9062 21.75 19.3125V18C21.6875 15.25 20.7344 12.9531 18.8906 11.1094C17.0469 9.26562 14.75 8.3125 12 8.25ZM15.375 18C15.3438 16.7188 14.7812 15.75 13.6875 15.0938C12.5625 14.4688 11.4375 14.4688 10.3125 15.0938C9.21875 15.75 8.65625 16.7188 8.625 18C8.65625 19.2812 9.21875 20.25 10.3125 20.9062C11.4375 21.5312 12.5625 21.5312 13.6875 20.9062C14.7812 20.25 15.3438 19.2812 15.375 18Z" fill="black" fill-opacity="0.72"/>
</g>
<defs>
<clipPath id="clip0_1731_6392">
<rect width="24" height="36" fill="white"/>
</clipPath>
</defs>
</svg>
