<svg width="14" height="18" viewBox="0 0 14 18" fill="none" xmlns="http://www.w3.org/2000/svg">
<g id="label-paired / caption / money-bill-caption / regular" clip-path="url(#clip0_1731_1727)">
<path id="icon" d="M11.5 5.75C11.5156 6.17188 11.6641 6.52344 11.9453 6.80469C12.2266 7.08594 12.5781 7.23438 13 7.25V6.5C13 6.28125 12.9297 6.10156 12.7891 5.96094C12.6484 5.82031 12.4688 5.75 12.25 5.75H11.5ZM10.75 5.75H3.25C3.23438 6.39062 3.01562 6.92188 2.59375 7.34375C2.17188 7.76562 1.64062 7.98438 1 8V11C1.64062 11.0156 2.17188 11.2344 2.59375 11.6562C3.01562 12.0781 3.23438 12.6094 3.25 13.25H10.75C10.7656 12.6094 10.9844 12.0781 11.4062 11.6562C11.8281 11.2344 12.3594 11.0156 13 11V8C12.3594 7.98438 11.8281 7.76562 11.4062 7.34375C10.9844 6.92188 10.7656 6.39062 10.75 5.75ZM1 12.5C1 12.7188 1.07031 12.8984 1.21094 13.0391C1.35156 13.1797 1.53125 13.25 1.75 13.25H2.5C2.48438 12.8281 2.33594 12.4766 2.05469 12.1953C1.77344 11.9141 1.42188 11.7656 1 11.75V12.5ZM13 11.75C12.5781 11.7656 12.2266 11.9141 11.9453 12.1953C11.6641 12.4766 11.5156 12.8281 11.5 13.25H12.25C12.4688 13.25 12.6484 13.1797 12.7891 13.0391C12.9297 12.8984 13 12.7188 13 12.5V11.75ZM1.75 5.75C1.53125 5.75 1.35156 5.82031 1.21094 5.96094C1.07031 6.10156 1 6.28125 1 6.5V7.25C1.42188 7.23438 1.77344 7.08594 2.05469 6.80469C2.33594 6.52344 2.48438 6.17188 2.5 5.75H1.75ZM0.25 6.5C0.265625 6.07812 0.414062 5.72656 0.695312 5.44531C0.976562 5.16406 1.32812 5.01562 1.75 5H12.25C12.6719 5.01562 13.0234 5.16406 13.3047 5.44531C13.5859 5.72656 13.7344 6.07812 13.75 6.5V12.5C13.7344 12.9219 13.5859 13.2734 13.3047 13.5547C13.0234 13.8359 12.6719 13.9844 12.25 14H1.75C1.32812 13.9844 0.976562 13.8359 0.695312 13.5547C0.414062 13.2734 0.265625 12.9219 0.25 12.5V6.5ZM8.5 9.5C8.48438 8.9375 8.23438 8.50781 7.75 8.21094C7.25 7.92969 6.75 7.92969 6.25 8.21094C5.76562 8.50781 5.51562 8.9375 5.5 9.5C5.51562 10.0625 5.76562 10.4922 6.25 10.7891C6.75 11.0703 7.25 11.0703 7.75 10.7891C8.23438 10.4922 8.48438 10.0625 8.5 9.5ZM4.75 9.5C4.75 9.09375 4.85156 8.71875 5.05469 8.375C5.25781 8.03125 5.53125 7.75781 5.875 7.55469C6.23438 7.35156 6.60938 7.25 7 7.25C7.39062 7.25 7.76562 7.35156 8.125 7.55469C8.46875 7.75781 8.74219 8.03125 8.94531 8.375C9.14844 8.71875 9.25 9.09375 9.25 9.5C9.25 9.90625 9.14844 10.2812 8.94531 10.625C8.74219 10.9688 8.46875 11.2422 8.125 11.4453C7.76562 11.6484 7.39062 11.75 7 11.75C6.60938 11.75 6.23438 11.6484 5.875 11.4453C5.53125 11.2422 5.25781 10.9688 5.05469 10.625C4.85156 10.2812 4.75 9.90625 4.75 9.5Z" fill="black" fill-opacity="0.72"/>
</g>
<defs>
<clipPath id="clip0_1731_1727">
<rect width="14" height="18" fill="white"/>
</clipPath>
</defs>
</svg>
