<svg width="16" height="24" viewBox="0 0 16 24" fill="none" xmlns="http://www.w3.org/2000/svg">
<g id="label-paired / md / cash-register-md / regular" clip-path="url(#clip0_1731_4238)">
<path id="icon" d="M8.5 5H2.5C2.1875 5.02083 2.02083 5.1875 2 5.5V6.5C2.02083 6.8125 2.1875 6.97917 2.5 7H8.5C8.8125 6.97917 8.97917 6.8125 9 6.5V5.5C8.97917 5.1875 8.8125 5.02083 8.5 5ZM2.5 4H8.5C8.91667 4.02083 9.27083 4.16667 9.5625 4.4375C9.83333 4.72917 9.97917 5.08333 10 5.5V6.5C9.97917 6.91667 9.83333 7.27083 9.5625 7.5625C9.27083 7.83333 8.91667 7.97917 8.5 8H6V9H13.25C13.7708 9 14.2083 9.16667 14.5625 9.5C14.9375 9.8125 15.1667 10.2188 15.25 10.7188L15.9688 15.875C15.9896 15.9583 16 16.0521 16 16.1562V18C15.9792 18.5625 15.7812 19.0312 15.4062 19.4062C15.0312 19.7812 14.5625 19.9792 14 20H2C1.4375 19.9792 0.96875 19.7812 0.59375 19.4062C0.21875 19.0312 0.0208333 18.5625 0 18V16.1562C0 16.0938 0 16.0417 0 16C0 15.9583 0.0104167 15.9167 0.03125 15.875L0.75 10.7188C0.833333 10.2188 1.0625 9.8125 1.4375 9.5C1.79167 9.16667 2.22917 9 2.75 9H5V8H2.5C2.08333 7.97917 1.72917 7.83333 1.4375 7.5625C1.16667 7.27083 1.02083 6.91667 1 6.5V5.5C1.02083 5.08333 1.16667 4.72917 1.4375 4.4375C1.72917 4.16667 2.08333 4.02083 2.5 4ZM1 18C1 18.2917 1.09375 18.5312 1.28125 18.7188C1.46875 18.9062 1.70833 19 2 19H14C14.2917 19 14.5312 18.9062 14.7188 18.7188C14.9062 18.5312 15 18.2917 15 18V17H1V18ZM14.25 10.875C14.1458 10.3333 13.8229 10.0417 13.2812 10H2.75C2.1875 10.0417 1.85417 10.3333 1.75 10.875L1 16H15L14.25 10.875ZM3.5 11.25C3.95833 11.2917 4.20833 11.5417 4.25 12C4.20833 12.4583 3.95833 12.7083 3.5 12.75C3.04167 12.7083 2.79167 12.4583 2.75 12C2.79167 11.5417 3.04167 11.2917 3.5 11.25ZM5.75 12C5.79167 11.5417 6.04167 11.2917 6.5 11.25C6.95833 11.2917 7.20833 11.5417 7.25 12C7.20833 12.4583 6.95833 12.7083 6.5 12.75C6.04167 12.7083 5.79167 12.4583 5.75 12ZM5 13.75C5.45833 13.7917 5.70833 14.0417 5.75 14.5C5.70833 14.9583 5.45833 15.2083 5 15.25C4.54167 15.2083 4.29167 14.9583 4.25 14.5C4.29167 14.0417 4.54167 13.7917 5 13.75ZM8.75 12C8.79167 11.5417 9.04167 11.2917 9.5 11.25C9.95833 11.2917 10.2083 11.5417 10.25 12C10.2083 12.4583 9.95833 12.7083 9.5 12.75C9.04167 12.7083 8.79167 12.4583 8.75 12ZM8 13.75C8.45833 13.7917 8.70833 14.0417 8.75 14.5C8.70833 14.9583 8.45833 15.2083 8 15.25C7.54167 15.2083 7.29167 14.9583 7.25 14.5C7.29167 14.0417 7.54167 13.7917 8 13.75ZM11.75 12C11.7917 11.5417 12.0417 11.2917 12.5 11.25C12.9583 11.2917 13.2083 11.5417 13.25 12C13.2083 12.4583 12.9583 12.7083 12.5 12.75C12.0417 12.7083 11.7917 12.4583 11.75 12ZM11 13.75C11.4583 13.7917 11.7083 14.0417 11.75 14.5C11.7083 14.9583 11.4583 15.2083 11 15.25C10.5417 15.2083 10.2917 14.9583 10.25 14.5C10.2917 14.0417 10.5417 13.7917 11 13.75Z" fill="black" fill-opacity="0.72"/>
</g>
<defs>
<clipPath id="clip0_1731_4238">
<rect width="16" height="24" fill="white"/>
</clipPath>
</defs>
</svg>
