<svg width="12" height="18" viewBox="0 0 12 18" fill="none" xmlns="http://www.w3.org/2000/svg">
<g id="label-paired / caption / table-layout-caption / regular" clip-path="url(#clip0_1731_1486)">
<path id="icon" d="M10.5 5H1.5C1.28125 5 1.10156 5.07031 0.960938 5.21094C0.820312 5.35156 0.75 5.53125 0.75 5.75V7.25H11.25V5.75C11.25 5.53125 11.1797 5.35156 11.0391 5.21094C10.8984 5.07031 10.7188 5 10.5 5ZM0.75 13.25C0.75 13.4688 0.820312 13.6484 0.960938 13.7891C1.10156 13.9297 1.28125 14 1.5 14H3.75V8H0.75V13.25ZM4.5 14H10.5C10.7188 14 10.8984 13.9297 11.0391 13.7891C11.1797 13.6484 11.25 13.4688 11.25 13.25V8H4.5V14ZM1.5 4.25H10.5C10.9219 4.26562 11.2734 4.41406 11.5547 4.69531C11.8359 4.97656 11.9844 5.32812 12 5.75V13.25C11.9844 13.6719 11.8359 14.0234 11.5547 14.3047C11.2734 14.5859 10.9219 14.7344 10.5 14.75H1.5C1.07812 14.7344 0.726562 14.5859 0.445312 14.3047C0.164062 14.0234 0.015625 13.6719 0 13.25V5.75C0.015625 5.32812 0.164062 4.97656 0.445312 4.69531C0.726562 4.41406 1.07812 4.26562 1.5 4.25Z" fill="black" fill-opacity="0.72"/>
</g>
<defs>
<clipPath id="clip0_1731_1486">
<rect width="12" height="18" fill="white"/>
</clipPath>
</defs>
</svg>
