<svg width="27" height="36" viewBox="0 0 27 36" fill="none" xmlns="http://www.w3.org/2000/svg">
<g id="label-paired / xl / keyboard-xl / bold" clip-path="url(#clip0_1731_6438)">
<path id="icon" d="M3 11.25C2.53125 11.2812 2.28125 11.5312 2.25 12V24C2.28125 24.4688 2.53125 24.7188 3 24.75H24C24.4688 24.7188 24.7188 24.4688 24.75 24V12C24.7188 11.5312 24.4688 11.2812 24 11.25H3ZM0 12C0.03125 11.1562 0.328125 10.4531 0.890625 9.89062C1.45312 9.32812 2.15625 9.03125 3 9H24C24.8438 9.03125 25.5469 9.32812 26.1094 9.89062C26.6719 10.4531 26.9688 11.1562 27 12V24C26.9688 24.8438 26.6719 25.5469 26.1094 26.1094C25.5469 26.6719 24.8438 26.9688 24 27H3C2.15625 26.9688 1.45312 26.6719 0.890625 26.1094C0.328125 25.5469 0.03125 24.8438 0 24V12ZM8.25 21H18.75C19.2188 21.0312 19.4688 21.2812 19.5 21.75V22.5C19.4688 22.9688 19.2188 23.2188 18.75 23.25H8.25C7.78125 23.2188 7.53125 22.9688 7.5 22.5V21.75C7.53125 21.2812 7.78125 21.0312 8.25 21ZM4.875 17.625C4.90625 17.1562 5.15625 16.9062 5.625 16.875H6.375C6.84375 16.9062 7.09375 17.1562 7.125 17.625V18.375C7.09375 18.8438 6.84375 19.0938 6.375 19.125H5.625C5.15625 19.0938 4.90625 18.8438 4.875 18.375V17.625ZM5.625 13.125H6.375C6.84375 13.1562 7.09375 13.4062 7.125 13.875V14.625C7.09375 15.0938 6.84375 15.3438 6.375 15.375H5.625C5.15625 15.3438 4.90625 15.0938 4.875 14.625V13.875C4.90625 13.4062 5.15625 13.1562 5.625 13.125ZM8.625 17.625C8.65625 17.1562 8.90625 16.9062 9.375 16.875H10.125C10.5938 16.9062 10.8438 17.1562 10.875 17.625V18.375C10.8438 18.8438 10.5938 19.0938 10.125 19.125H9.375C8.90625 19.0938 8.65625 18.8438 8.625 18.375V17.625ZM9.375 13.125H10.125C10.5938 13.1562 10.8438 13.4062 10.875 13.875V14.625C10.8438 15.0938 10.5938 15.3438 10.125 15.375H9.375C8.90625 15.3438 8.65625 15.0938 8.625 14.625V13.875C8.65625 13.4062 8.90625 13.1562 9.375 13.125ZM12.375 17.625C12.4062 17.1562 12.6562 16.9062 13.125 16.875H13.875C14.3438 16.9062 14.5938 17.1562 14.625 17.625V18.375C14.5938 18.8438 14.3438 19.0938 13.875 19.125H13.125C12.6562 19.0938 12.4062 18.8438 12.375 18.375V17.625ZM13.125 13.125H13.875C14.3438 13.1562 14.5938 13.4062 14.625 13.875V14.625C14.5938 15.0938 14.3438 15.3438 13.875 15.375H13.125C12.6562 15.3438 12.4062 15.0938 12.375 14.625V13.875C12.4062 13.4062 12.6562 13.1562 13.125 13.125ZM16.125 17.625C16.1562 17.1562 16.4062 16.9062 16.875 16.875H17.625C18.0938 16.9062 18.3438 17.1562 18.375 17.625V18.375C18.3438 18.8438 18.0938 19.0938 17.625 19.125H16.875C16.4062 19.0938 16.1562 18.8438 16.125 18.375V17.625ZM16.875 13.125H17.625C18.0938 13.1562 18.3438 13.4062 18.375 13.875V14.625C18.3438 15.0938 18.0938 15.3438 17.625 15.375H16.875C16.4062 15.3438 16.1562 15.0938 16.125 14.625V13.875C16.1562 13.4062 16.4062 13.1562 16.875 13.125ZM19.875 17.625C19.9062 17.1562 20.1562 16.9062 20.625 16.875H21.375C21.8438 16.9062 22.0938 17.1562 22.125 17.625V18.375C22.0938 18.8438 21.8438 19.0938 21.375 19.125H20.625C20.1562 19.0938 19.9062 18.8438 19.875 18.375V17.625ZM20.625 13.125H21.375C21.8438 13.1562 22.0938 13.4062 22.125 13.875V14.625C22.0938 15.0938 21.8438 15.3438 21.375 15.375H20.625C20.1562 15.3438 19.9062 15.0938 19.875 14.625V13.875C19.9062 13.4062 20.1562 13.1562 20.625 13.125Z" fill="black" fill-opacity="0.72"/>
</g>
<defs>
<clipPath id="clip0_1731_6438">
<rect width="27" height="36" fill="white"/>
</clipPath>
</defs>
</svg>
