<svg width="9" height="22" viewBox="0 0 9 22" fill="none" xmlns="http://www.w3.org/2000/svg">
<g id="label-paired / sm / six-sm / regular" clip-path="url(#clip0_1731_2278)">
<path id="icon" d="M8 12.5C7.98177 11.5156 7.64453 10.6862 6.98828 10.0117C6.3138 9.35547 5.48438 9.01823 4.5 9C3.51562 9.01823 2.70443 9.35547 2.06641 10.0117C1.41016 10.6497 1.05469 11.4518 1 12.418C1 12.4362 1 12.4453 1 12.4453C1 12.4635 1 12.4818 1 12.5C1.01823 13.4844 1.35547 14.3138 2.01172 14.9883C2.6862 15.6445 3.51562 15.9818 4.5 16C5.48438 15.9818 6.3138 15.6445 6.98828 14.9883C7.64453 14.3138 7.98177 13.4844 8 12.5ZM3.59766 8.23438C3.88932 8.16146 4.1901 8.125 4.5 8.125C5.73958 8.16146 6.76953 8.58984 7.58984 9.41016C8.41016 10.2305 8.83854 11.2604 8.875 12.5C8.83854 13.7396 8.41016 14.7695 7.58984 15.5898C6.76953 16.4102 5.73958 16.8385 4.5 16.875C3.26042 16.8385 2.23047 16.4102 1.41016 15.5898C0.589844 14.7695 0.161458 13.7396 0.125 12.5C0.125 12.4453 0.125 12.3906 0.125 12.3359C0.179688 11.2786 0.553385 10.349 1.24609 9.54688L5.48438 4.76172C5.6849 4.57943 5.89453 4.57031 6.11328 4.73438C6.29557 4.9349 6.30469 5.14453 6.14062 5.36328L3.59766 8.23438Z" fill="black" fill-opacity="0.72"/>
</g>
<defs>
<clipPath id="clip0_1731_2278">
<rect width="9" height="22" fill="white"/>
</clipPath>
</defs>
</svg>
