<svg width="12" height="18" viewBox="0 0 12 18" fill="none" xmlns="http://www.w3.org/2000/svg">
<g id="label-paired / caption / circle-sterling-caption / bold" clip-path="url(#clip0_1731_1719)">
<path id="icon" d="M10.875 9.5C10.875 8.60938 10.6562 7.79688 10.2188 7.0625C9.79688 6.32812 9.20312 5.73438 8.4375 5.28125C7.67188 4.84375 6.85938 4.625 6 4.625C5.14062 4.625 4.32812 4.84375 3.5625 5.28125C2.79688 5.73438 2.20312 6.32812 1.78125 7.0625C1.34375 7.79688 1.125 8.60938 1.125 9.5C1.125 10.3906 1.34375 11.2031 1.78125 11.9375C2.20312 12.6719 2.79688 13.2656 3.5625 13.7188C4.32812 14.1562 5.14062 14.375 6 14.375C6.85938 14.375 7.67188 14.1562 8.4375 13.7188C9.20312 13.2656 9.79688 12.6719 10.2188 11.9375C10.6562 11.2031 10.875 10.3906 10.875 9.5ZM0 9.5C0.015625 8.40625 0.28125 7.40625 0.796875 6.5C1.32812 5.59375 2.0625 4.85938 3 4.29688C3.95312 3.76562 4.95312 3.5 6 3.5C7.04688 3.5 8.04688 3.76562 9 4.29688C9.9375 4.85938 10.6719 5.59375 11.2031 6.5C11.7188 7.40625 11.9844 8.40625 12 9.5C11.9844 10.5938 11.7188 11.5938 11.2031 12.5C10.6719 13.4062 9.9375 14.1406 9 14.7031C8.04688 15.2344 7.04688 15.5 6 15.5C4.95312 15.5 3.95312 15.2344 3 14.7031C2.0625 14.1406 1.32812 13.4062 0.796875 12.5C0.28125 11.5938 0.015625 10.5938 0 9.5ZM6.14062 7.25C5.9375 7.25 5.76562 7.32031 5.625 7.46094C5.48438 7.60156 5.41406 7.77344 5.41406 7.97656V8.75H6.375C6.60938 8.76562 6.73438 8.89062 6.75 9.125C6.73438 9.35938 6.60938 9.48438 6.375 9.5H5.4375V9.73438C5.4375 10.1719 5.35938 10.5938 5.20312 11H7.6875C8.03125 11.0312 8.21875 11.2188 8.25 11.5625C8.21875 11.9062 8.03125 12.0938 7.6875 12.125H4.3125C4.10938 12.125 3.95312 12.0391 3.84375 11.8672C3.73438 11.6797 3.72656 11.4922 3.82031 11.3047L4.03125 10.8594C4.21875 10.5156 4.3125 10.1406 4.3125 9.73438V9.5H4.125C3.89062 9.48438 3.76562 9.35938 3.75 9.125C3.76562 8.89062 3.89062 8.76562 4.125 8.75H4.3125L4.28906 7.97656C4.30469 7.44531 4.48438 7.00781 4.82812 6.66406C5.17188 6.32031 5.60938 6.14062 6.14062 6.125C6.375 6.125 6.60156 6.17188 6.82031 6.26562L7.52344 6.54688C7.83594 6.70312 7.9375 6.94531 7.82812 7.27344C7.67188 7.57031 7.42969 7.67188 7.10156 7.57812L6.39844 7.29688C6.30469 7.26562 6.21875 7.25 6.14062 7.25Z" fill="black" fill-opacity="0.72"/>
</g>
<defs>
<clipPath id="clip0_1731_1719">
<rect width="12" height="18" fill="white"/>
</clipPath>
</defs>
</svg>
