<svg width="20" height="30" viewBox="0 0 20 30" fill="none" xmlns="http://www.w3.org/2000/svg">
<g id="label-paired / lg / life-ring-lg / bold" clip-path="url(#clip0_1731_5486)">
<path id="icon" d="M15.0391 21.8672L11.9141 18.7422C11.3411 19.0807 10.7031 19.25 10 19.25C9.29688 19.25 8.65885 19.0807 8.08594 18.7422L4.96094 21.8672C6.36719 23.013 8.04688 23.599 10 23.625C11.9531 23.599 13.6328 23.013 15.0391 21.8672ZM17.6953 21.8672L18.1641 22.3359C18.5286 22.7786 18.5286 23.2214 18.1641 23.6641C17.7214 24.0286 17.2786 24.0286 16.8359 23.6641L16.3672 23.1953C14.5964 24.6797 12.474 25.4479 10 25.5C7.52604 25.4479 5.40365 24.6797 3.63281 23.1953L3.16406 23.6641C2.72135 24.0286 2.27865 24.0286 1.83594 23.6641C1.47135 23.2214 1.47135 22.7786 1.83594 22.3359L2.30469 21.8672C0.820312 20.0964 0.0520833 17.974 0 15.5C0.0520833 13.026 0.820312 10.9036 2.30469 9.13281L1.83594 8.66406C1.47135 8.22135 1.47135 7.77865 1.83594 7.33594C2.27865 6.97135 2.72135 6.97135 3.16406 7.33594L3.63281 7.80469C5.40365 6.32031 7.52604 5.55208 10 5.5C12.474 5.55208 14.5964 6.32031 16.3672 7.80469L16.8359 7.33594C17.2786 6.97135 17.7214 6.97135 18.1641 7.33594C18.5286 7.77865 18.5286 8.22135 18.1641 8.66406L17.6953 9.13281C19.1797 10.9036 19.9479 13.026 20 15.5C19.9479 17.974 19.1797 20.0964 17.6953 21.8672ZM16.3672 20.5391C17.513 19.1328 18.099 17.4531 18.125 15.5C18.099 13.5469 17.513 11.8672 16.3672 10.4609L13.2422 13.5859C13.5807 14.1589 13.75 14.7969 13.75 15.5C13.75 16.2031 13.5807 16.8411 13.2422 17.4141L16.3672 20.5391ZM15.0391 9.13281C13.6328 7.98698 11.9531 7.40104 10 7.375C8.04688 7.40104 6.36719 7.98698 4.96094 9.13281L8.08594 12.2578C8.65885 11.9193 9.29688 11.75 10 11.75C10.7031 11.75 11.3411 11.9193 11.9141 12.2578L15.0391 9.13281ZM6.75781 17.4141C6.41927 16.8411 6.25 16.2031 6.25 15.5C6.25 14.7969 6.41927 14.1589 6.75781 13.5859L3.63281 10.4609C2.48698 11.8672 1.90104 13.5469 1.875 15.5C1.90104 17.4531 2.48698 19.1328 3.63281 20.5391L6.75781 17.4141ZM8.125 15.5C8.15104 16.2031 8.46354 16.75 9.0625 17.1406C9.6875 17.4531 10.3125 17.4531 10.9375 17.1406C11.5365 16.75 11.849 16.2031 11.875 15.5C11.849 14.7969 11.5365 14.25 10.9375 13.8594C10.3125 13.5469 9.6875 13.5469 9.0625 13.8594C8.46354 14.25 8.15104 14.7969 8.125 15.5Z" fill="black" fill-opacity="0.72"/>
</g>
<defs>
<clipPath id="clip0_1731_5486">
<rect width="20" height="30" fill="white"/>
</clipPath>
</defs>
</svg>
