<svg width="16" height="24" viewBox="0 0 16 24" fill="none" xmlns="http://www.w3.org/2000/svg">
<g id="label-paired / md / globe-md / bold" clip-path="url(#clip0_1731_3831)">
<path id="icon" d="M8 18.5C8.125 18.5208 8.32292 18.4271 8.59375 18.2188C8.86458 18.0312 9.16667 17.625 9.5 17C9.77083 16.4375 10 15.7708 10.1875 15H5.8125C6 15.7708 6.22917 16.4375 6.5 17C6.83333 17.625 7.13542 18.0312 7.40625 18.2188C7.67708 18.4271 7.875 18.5208 8 18.5ZM5.59375 13.5H10.4375C10.4792 13.0208 10.5 12.5208 10.5 12C10.5 11.4792 10.4792 10.9792 10.4375 10.5H5.59375C5.53125 10.9792 5.5 11.4792 5.5 12C5.5 12.5208 5.53125 13.0208 5.59375 13.5ZM5.8125 9H10.1875C10 8.22917 9.77083 7.5625 9.5 7C9.16667 6.375 8.86458 5.96875 8.59375 5.78125C8.32292 5.57292 8.125 5.47917 8 5.5C7.875 5.47917 7.67708 5.57292 7.40625 5.78125C7.13542 5.96875 6.83333 6.375 6.5 7C6.22917 7.5625 6 8.22917 5.8125 9ZM11.9375 10.5C11.9792 10.9792 12 11.4792 12 12C12 12.5208 11.9792 13.0208 11.9375 13.5H14.3125C14.4375 13.0208 14.5 12.5208 14.5 12C14.5 11.4792 14.4375 10.9792 14.3125 10.5H11.9375ZM13.7812 9C13.0729 7.6875 12.0417 6.71875 10.6875 6.09375C11.125 6.90625 11.4688 7.875 11.7188 9H13.7812ZM4.28125 9C4.51042 7.875 4.85417 6.90625 5.3125 6.09375C3.95833 6.71875 2.92708 7.6875 2.21875 9H4.28125ZM1.6875 10.5C1.5625 10.9792 1.5 11.4792 1.5 12C1.5 12.5208 1.5625 13.0208 1.6875 13.5H4.0625C4.02083 13.0208 4 12.5208 4 12C4 11.4792 4.02083 10.9792 4.0625 10.5H1.6875ZM10.6875 17.9062C12.0417 17.2812 13.0729 16.3125 13.7812 15H11.7188C11.4896 16.125 11.1458 17.0938 10.6875 17.9062ZM5.3125 17.9062C4.875 17.0938 4.53125 16.125 4.28125 15H2.21875C2.92708 16.3125 3.95833 17.2812 5.3125 17.9062ZM8 20C6.54167 19.9792 5.20833 19.625 4 18.9375C2.79167 18.2292 1.8125 17.25 1.0625 16C0.354167 14.7292 0 13.3958 0 12C0 10.6042 0.354167 9.27083 1.0625 8C1.8125 6.75 2.79167 5.77083 4 5.0625C5.20833 4.375 6.54167 4.02083 8 4C9.45833 4.02083 10.7917 4.375 12 5.0625C13.2083 5.77083 14.1875 6.75 14.9375 8C15.6458 9.27083 16 10.6042 16 12C16 13.3958 15.6458 14.7292 14.9375 16C14.1875 17.25 13.2083 18.2292 12 18.9375C10.7917 19.625 9.45833 19.9792 8 20Z" fill="black" fill-opacity="0.72"/>
</g>
<defs>
<clipPath id="clip0_1731_3831">
<rect width="16" height="24" fill="white"/>
</clipPath>
</defs>
</svg>
