<svg width="14" height="22" viewBox="0 0 14 22" fill="none" xmlns="http://www.w3.org/2000/svg">
<g id="label-paired / sm / circle-star-sm / bold" clip-path="url(#clip0_1731_2081)">
<path id="icon" d="M7 5.0625C5.96094 5.0625 5.01302 5.31771 4.15625 5.82812C3.29948 6.32031 2.60677 7.01302 2.07812 7.90625C1.56771 8.79948 1.3125 9.7474 1.3125 10.75C1.3125 11.7526 1.56771 12.7005 2.07812 13.5938C2.60677 14.487 3.29948 15.1797 4.15625 15.6719C5.01302 16.1823 5.96094 16.4375 7 16.4375C8.03906 16.4375 8.98698 16.1823 9.84375 15.6719C10.7005 15.1797 11.3932 14.487 11.9219 13.5938C12.4323 12.7005 12.6875 11.7526 12.6875 10.75C12.6875 9.7474 12.4323 8.79948 11.9219 7.90625C11.3932 7.01302 10.7005 6.32031 9.84375 5.82812C8.98698 5.31771 8.03906 5.0625 7 5.0625ZM7 17.75C5.72396 17.7318 4.55729 17.4219 3.5 16.8203C2.44271 16.2005 1.58594 15.3438 0.929688 14.25C0.309896 13.138 0 11.9714 0 10.75C0 9.52865 0.309896 8.36198 0.929688 7.25C1.58594 6.15625 2.44271 5.29948 3.5 4.67969C4.55729 4.07812 5.72396 3.76823 7 3.75C8.27604 3.76823 9.44271 4.07812 10.5 4.67969C11.5573 5.29948 12.4141 6.15625 13.0703 7.25C13.6901 8.36198 14 9.52865 14 10.75C14 11.9714 13.6901 13.138 13.0703 14.25C12.4141 15.3438 11.5573 16.2005 10.5 16.8203C9.44271 17.4219 8.27604 17.7318 7 17.75ZM7 7.05859C7.18229 7.05859 7.3099 7.14062 7.38281 7.30469L8.25781 9.02734L10.1719 9.30078C10.3359 9.33724 10.4453 9.4375 10.5 9.60156C10.5547 9.78385 10.5182 9.9388 10.3906 10.0664L9.02344 11.4062L9.35156 13.3203C9.36979 13.4844 9.30599 13.6211 9.16016 13.7305C9.01432 13.8398 8.86849 13.8581 8.72266 13.7852L7 12.8828L5.30469 13.7578C5.14062 13.849 4.98568 13.8398 4.83984 13.7305C4.69401 13.6211 4.63021 13.4844 4.64844 13.3203L4.97656 11.4062L3.60938 10.0664C3.48177 9.9388 3.44531 9.78385 3.5 9.60156C3.55469 9.4375 3.67318 9.33724 3.85547 9.30078L5.74219 9.02734L6.61719 7.30469C6.6901 7.14062 6.81771 7.05859 7 7.05859Z" fill="black" fill-opacity="0.72"/>
</g>
<defs>
<clipPath id="clip0_1731_2081">
<rect width="14" height="22" fill="white"/>
</clipPath>
</defs>
</svg>
