<svg width="15" height="36" viewBox="0 0 15 36" fill="none" xmlns="http://www.w3.org/2000/svg">
<g id="label-paired / xl / two-xl / regular" clip-path="url(#clip0_1731_6031)">
<path id="icon" d="M6.9375 9C5.53125 9.03125 4.32812 9.53125 3.32812 10.5L2.01562 11.7656C1.67188 12.0781 1.32812 12.0781 0.984375 11.7656C0.671875 11.4219 0.671875 11.0781 0.984375 10.7344L2.25 9.42188C3.5625 8.17188 5.125 7.53125 6.9375 7.5C8.78125 7.53125 10.3281 8.17188 11.5781 9.42188C12.7969 10.6406 13.4375 12.1719 13.5 14.0156C13.4688 15.8906 12.7812 17.4688 11.4375 18.75L2.67188 27H14.25C14.7188 27.0312 14.9688 27.2812 15 27.75C14.9688 28.2188 14.7188 28.4688 14.25 28.5H0.75C0.40625 28.5 0.171875 28.3438 0.046875 28.0312C-0.046875 27.7188 0.015625 27.4375 0.234375 27.1875L10.4062 17.6719C11.4375 16.6719 11.9688 15.4531 12 14.0156C11.9688 12.6094 11.4688 11.4219 10.5 10.4531C9.5625 9.51562 8.375 9.03125 6.9375 9Z" fill="black" fill-opacity="0.72"/>
</g>
<defs>
<clipPath id="clip0_1731_6031">
<rect width="15" height="36" fill="white"/>
</clipPath>
</defs>
</svg>
