<svg width="18" height="22" viewBox="0 0 18 22" fill="none" xmlns="http://www.w3.org/2000/svg">
<g id="label-paired / sm / bell-on-sm / bold" clip-path="url(#clip0_1731_2553)">
<path id="icon" d="M9 3.75C9.25521 3.75 9.46484 3.83203 9.62891 3.99609C9.79297 4.16016 9.875 4.36979 9.875 4.625V5.11719C10.8958 5.29948 11.7253 5.76432 12.3633 6.51172C13.0195 7.25911 13.3568 8.16146 13.375 9.21875V10.1211C13.3932 11.3971 13.7943 12.5365 14.5781 13.5391L14.9883 14.0586C15.1341 14.2773 15.1615 14.5052 15.0703 14.7422C14.9427 14.9792 14.7422 15.1068 14.4688 15.125H3.53125C3.25781 15.1068 3.05729 14.9792 2.92969 14.7422C2.83854 14.5052 2.86589 14.2773 3.01172 14.0586L3.42188 13.5391C4.20573 12.5365 4.60677 11.3971 4.625 10.1211V9.21875C4.64323 8.16146 4.98047 7.25911 5.63672 6.51172C6.27474 5.76432 7.10417 5.29948 8.125 5.11719V4.625C8.125 4.36979 8.20703 4.16016 8.37109 3.99609C8.53516 3.83203 8.74479 3.75 9 3.75ZM9 6.375H8.78125C7.97917 6.39323 7.30469 6.66667 6.75781 7.19531C6.22917 7.74219 5.95573 8.41667 5.9375 9.21875V10.1211C5.9375 11.4701 5.57292 12.7005 4.84375 13.8125H13.1562C12.4453 12.7005 12.0807 11.4701 12.0625 10.1211V9.21875C12.0443 8.41667 11.7708 7.74219 11.2422 7.19531C10.6953 6.66667 10.0208 6.39323 9.21875 6.375H9ZM10.75 16C10.75 16.474 10.5768 16.8841 10.2305 17.2305C9.88411 17.5768 9.47396 17.75 9 17.75C8.52604 17.75 8.11589 17.5768 7.76953 17.2305C7.42318 16.8841 7.25 16.474 7.25 16H9H10.75ZM0.25 9.21875C0.286458 8.81771 0.505208 8.59896 0.90625 8.5625H3.09375C3.49479 8.59896 3.71354 8.81771 3.75 9.21875C3.71354 9.61979 3.49479 9.83854 3.09375 9.875H0.90625C0.505208 9.83854 0.286458 9.61979 0.25 9.21875ZM14.9062 8.5625H17.0938C17.4948 8.59896 17.7135 8.81771 17.75 9.21875C17.7135 9.61979 17.4948 9.83854 17.0938 9.875H14.9062C14.5052 9.83854 14.2865 9.61979 14.25 9.21875C14.2865 8.81771 14.5052 8.59896 14.9062 8.5625ZM16.6016 4.32422C16.7474 4.70703 16.6471 5.00781 16.3008 5.22656L14.5508 6.10156C14.168 6.2474 13.8763 6.14714 13.6758 5.80078C13.5299 5.41797 13.6211 5.1263 13.9492 4.92578L15.6992 4.05078C16.082 3.90495 16.3828 3.99609 16.6016 4.32422ZM1.69922 5.22656C1.37109 5.00781 1.27995 4.70703 1.42578 4.32422C1.6263 3.99609 1.91797 3.90495 2.30078 4.05078L4.05078 4.92578C4.37891 5.1263 4.47917 5.41797 4.35156 5.80078C4.13281 6.12891 3.83203 6.22917 3.44922 6.10156L1.69922 5.22656Z" fill="black" fill-opacity="0.72"/>
</g>
<defs>
<clipPath id="clip0_1731_2553">
<rect width="18" height="22" fill="white"/>
</clipPath>
</defs>
</svg>
