<svg width="6" height="18" viewBox="0 0 6 18" fill="none" xmlns="http://www.w3.org/2000/svg">
<g id="label-paired / caption / grip-dots-vertical-caption / regular" clip-path="url(#clip0_1731_534)">
<path id="icon" d="M1.5 5.75C1.48438 5.51562 1.35938 5.39062 1.125 5.375C0.890625 5.39062 0.765625 5.51562 0.75 5.75C0.765625 5.98438 0.890625 6.10938 1.125 6.125C1.35938 6.10938 1.48438 5.98438 1.5 5.75ZM0 5.75C0.015625 5.32812 0.203125 5 0.5625 4.76562C0.9375 4.57812 1.3125 4.57812 1.6875 4.76562C2.04688 5 2.23438 5.32812 2.25 5.75C2.23438 6.17188 2.04688 6.5 1.6875 6.73438C1.3125 6.92188 0.9375 6.92188 0.5625 6.73438C0.203125 6.5 0.015625 6.17188 0 5.75ZM1.5 9.5C1.48438 9.26562 1.35938 9.14062 1.125 9.125C0.890625 9.14062 0.765625 9.26562 0.75 9.5C0.765625 9.73438 0.890625 9.85938 1.125 9.875C1.35938 9.85938 1.48438 9.73438 1.5 9.5ZM0 9.5C0.015625 9.07812 0.203125 8.75 0.5625 8.51562C0.9375 8.32812 1.3125 8.32812 1.6875 8.51562C2.04688 8.75 2.23438 9.07812 2.25 9.5C2.23438 9.92188 2.04688 10.25 1.6875 10.4844C1.3125 10.6719 0.9375 10.6719 0.5625 10.4844C0.203125 10.25 0.015625 9.92188 0 9.5ZM1.125 13.625C1.35938 13.6094 1.48438 13.4844 1.5 13.25C1.48438 13.0156 1.35938 12.8906 1.125 12.875C0.890625 12.8906 0.765625 13.0156 0.75 13.25C0.765625 13.4844 0.890625 13.6094 1.125 13.625ZM1.125 12.125C1.54688 12.1406 1.875 12.3281 2.10938 12.6875C2.29688 13.0625 2.29688 13.4375 2.10938 13.8125C1.875 14.1719 1.54688 14.3594 1.125 14.375C0.703125 14.3594 0.375 14.1719 0.140625 13.8125C-0.046875 13.4375 -0.046875 13.0625 0.140625 12.6875C0.375 12.3281 0.703125 12.1406 1.125 12.125ZM5.25 5.75C5.23438 5.51562 5.10938 5.39062 4.875 5.375C4.64062 5.39062 4.51562 5.51562 4.5 5.75C4.51562 5.98438 4.64062 6.10938 4.875 6.125C5.10938 6.10938 5.23438 5.98438 5.25 5.75ZM3.75 5.75C3.76562 5.32812 3.95312 5 4.3125 4.76562C4.6875 4.57812 5.0625 4.57812 5.4375 4.76562C5.79688 5 5.98438 5.32812 6 5.75C5.98438 6.17188 5.79688 6.5 5.4375 6.73438C5.0625 6.92188 4.6875 6.92188 4.3125 6.73438C3.95312 6.5 3.76562 6.17188 3.75 5.75ZM4.875 9.875C5.10938 9.85938 5.23438 9.73438 5.25 9.5C5.23438 9.26562 5.10938 9.14062 4.875 9.125C4.64062 9.14062 4.51562 9.26562 4.5 9.5C4.51562 9.73438 4.64062 9.85938 4.875 9.875ZM4.875 8.375C5.29688 8.39062 5.625 8.57812 5.85938 8.9375C6.04688 9.3125 6.04688 9.6875 5.85938 10.0625C5.625 10.4219 5.29688 10.6094 4.875 10.625C4.45312 10.6094 4.125 10.4219 3.89062 10.0625C3.70312 9.6875 3.70312 9.3125 3.89062 8.9375C4.125 8.57812 4.45312 8.39062 4.875 8.375ZM5.25 13.25C5.23438 13.0156 5.10938 12.8906 4.875 12.875C4.64062 12.8906 4.51562 13.0156 4.5 13.25C4.51562 13.4844 4.64062 13.6094 4.875 13.625C5.10938 13.6094 5.23438 13.4844 5.25 13.25ZM3.75 13.25C3.76562 12.8281 3.95312 12.5 4.3125 12.2656C4.6875 12.0781 5.0625 12.0781 5.4375 12.2656C5.79688 12.5 5.98438 12.8281 6 13.25C5.98438 13.6719 5.79688 14 5.4375 14.2344C5.0625 14.4219 4.6875 14.4219 4.3125 14.2344C3.95312 14 3.76562 13.6719 3.75 13.25Z" fill="black" fill-opacity="0.72"/>
</g>
<defs>
<clipPath id="clip0_1731_534">
<rect width="6" height="18" fill="white"/>
</clipPath>
</defs>
</svg>
