<svg width="12" height="24" viewBox="0 0 12 24" fill="none" xmlns="http://www.w3.org/2000/svg">
<g id="label-paired / md / play-md / regular" clip-path="url(#clip0_1731_4038)">
<path id="icon" d="M1.75 6.0625C1.58333 5.97917 1.41667 5.97917 1.25 6.0625C1.08333 6.16667 1 6.3125 1 6.5V17.5C1 17.6875 1.08333 17.8333 1.25 17.9375C1.41667 18.0208 1.58333 18.0208 1.75 17.9375L10.75 12.4375C10.9167 12.3333 11 12.1875 11 12C11 11.8125 10.9167 11.6667 10.75 11.5625L1.75 6.0625ZM0.78125 5.1875C1.28125 4.91667 1.78125 4.92708 2.28125 5.21875L11.2812 10.7188C11.7396 11.0104 11.9792 11.4375 12 12C11.9792 12.5625 11.7396 12.9896 11.2812 13.2812L2.28125 18.7812C1.78125 19.0729 1.28125 19.0833 0.78125 18.8125C0.28125 18.5208 0.0208333 18.0833 0 17.5V6.5C0.0208333 5.91667 0.28125 5.47917 0.78125 5.1875Z" fill="black" fill-opacity="0.72"/>
</g>
<defs>
<clipPath id="clip0_1731_4038">
<rect width="12" height="24" fill="white"/>
</clipPath>
</defs>
</svg>
