<svg width="24" height="36" viewBox="0 0 24 36" fill="none" xmlns="http://www.w3.org/2000/svg">
<g id="label-paired / xl / paste-xl / regular" clip-path="url(#clip0_1731_6473)">
<path id="icon" d="M7.5 7.5C6.90625 7.53125 6.54688 7.82812 6.42188 8.39062C6.29688 8.76562 6.04688 8.96875 5.67188 9H5.25C4.78125 9.03125 4.53125 9.28125 4.5 9.75V10.5H10.5V9.75C10.4688 9.28125 10.2188 9.03125 9.75 9H9.32812C8.95312 8.96875 8.71875 8.76562 8.625 8.39062C8.46875 7.82812 8.09375 7.53125 7.5 7.5ZM3 9C2.5625 9 2.20312 9.14062 1.92188 9.42188C1.64062 9.70312 1.5 10.0625 1.5 10.5V24C1.5 24.4375 1.64062 24.7969 1.92188 25.0781C2.20312 25.3594 2.5625 25.5 3 25.5H9V27H3C2.15625 26.9688 1.45312 26.6719 0.890625 26.1094C0.328125 25.5469 0.03125 24.8438 0 24V10.5C0.03125 9.65625 0.328125 8.95312 0.890625 8.39062C1.45312 7.82812 2.15625 7.53125 3 7.5H5.10938C5.60938 6.5625 6.40625 6.0625 7.5 6C8.59375 6.0625 9.39062 6.5625 9.89062 7.5H12C12.8438 7.53125 13.5469 7.82812 14.1094 8.39062C14.6719 8.95312 14.9688 9.65625 15 10.5H13.5C13.5 10.0625 13.3594 9.70312 13.0781 9.42188C12.7969 9.14062 12.4375 9 12 9H11.8594C11.9531 9.25 12 9.5 12 9.75V10.5C12 10.9375 11.8594 11.2969 11.5781 11.5781C11.2969 11.8594 10.9375 12 10.5 12H4.5C4.0625 12 3.70312 11.8594 3.42188 11.5781C3.14062 11.2969 3 10.9375 3 10.5V9.75C3 9.5 3.04688 9.25 3.14062 9H3ZM13.5 28.5H21C21.4375 28.5 21.7969 28.3594 22.0781 28.0781C22.3594 27.7969 22.5 27.4375 22.5 27V18H19.875C19.3438 18 18.9062 17.8125 18.5625 17.4375C18.1875 17.0938 18 16.6562 18 16.125V13.5H13.5C13.0625 13.5 12.7031 13.6406 12.4219 13.9219C12.1406 14.2031 12 14.5625 12 15V27C12 27.4375 12.1406 27.7969 12.4219 28.0781C12.7031 28.3594 13.0625 28.5 13.5 28.5ZM19.5 13.7344V16.125C19.5312 16.3438 19.6562 16.4688 19.875 16.5H22.2656L19.5 13.7344ZM21 30H13.5C12.6562 29.9688 11.9531 29.6719 11.3906 29.1094C10.8281 28.5469 10.5312 27.8438 10.5 27V15C10.5312 14.1562 10.8281 13.4531 11.3906 12.8906C11.9531 12.3281 12.6562 12.0312 13.5 12H18.9375C19.5625 12 20.0938 12.2188 20.5312 12.6562L23.3438 15.4688C23.7812 15.9062 24 16.4375 24 17.0625V27C23.9688 27.8438 23.6719 28.5469 23.1094 29.1094C22.5469 29.6719 21.8438 29.9688 21 30Z" fill="black" fill-opacity="0.72"/>
</g>
<defs>
<clipPath id="clip0_1731_6473">
<rect width="24" height="36" fill="white"/>
</clipPath>
</defs>
</svg>
