<svg width="12" height="24" viewBox="0 0 12 24" fill="none" xmlns="http://www.w3.org/2000/svg">
<g id="label-paired / md / arrow-up-to-line-md / bold" clip-path="url(#clip0_1731_3427)">
<path id="icon" d="M0.75 5H11.25C11.7083 5.04167 11.9583 5.29167 12 5.75C11.9583 6.20833 11.7083 6.45833 11.25 6.5H0.75C0.291667 6.45833 0.0416667 6.20833 0 5.75C0.0416667 5.29167 0.291667 5.04167 0.75 5ZM6.5625 9.25H6.53125L10.5312 13.5C10.8229 13.8542 10.8125 14.1979 10.5 14.5312C10.1458 14.8229 9.80208 14.8125 9.46875 14.5L6.75 11.6562V14.25V18.25C6.70833 18.7083 6.45833 18.9583 6 19C5.54167 18.9583 5.29167 18.7083 5.25 18.25V14.25V11.6562L2.53125 14.5312C2.19792 14.8229 1.85417 14.8333 1.5 14.5625C1.1875 14.2083 1.17708 13.8542 1.46875 13.5L5.46875 9.25C5.61458 9.08333 5.79167 9 6 9C6.20833 9 6.39583 9.08333 6.5625 9.25Z" fill="black" fill-opacity="0.72"/>
</g>
<defs>
<clipPath id="clip0_1731_3427">
<rect width="12" height="24" fill="white"/>
</clipPath>
</defs>
</svg>
