<svg width="12" height="18" viewBox="0 0 12 18" fill="none" xmlns="http://www.w3.org/2000/svg">
<g id="label-paired / caption / circle-nine-caption / regular" clip-path="url(#clip0_1731_1085)">
<path id="icon" d="M11.25 9.5C11.2344 8.54688 11 7.67188 10.5469 6.875C10.0781 6.07812 9.4375 5.4375 8.625 4.95312C7.79688 4.48438 6.92188 4.25 6 4.25C5.07812 4.25 4.20312 4.48438 3.375 4.95312C2.5625 5.4375 1.92188 6.07812 1.45312 6.875C1 7.67188 0.765625 8.54688 0.75 9.5C0.765625 10.4531 1 11.3281 1.45312 12.125C1.92188 12.9219 2.5625 13.5625 3.375 14.0469C4.20312 14.5156 5.07812 14.75 6 14.75C6.92188 14.75 7.79688 14.5156 8.625 14.0469C9.4375 13.5625 10.0781 12.9219 10.5469 12.125C11 11.3281 11.2344 10.4531 11.25 9.5ZM0 9.5C0.015625 8.40625 0.28125 7.40625 0.796875 6.5C1.32812 5.59375 2.0625 4.85938 3 4.29688C3.95312 3.76562 4.95312 3.5 6 3.5C7.04688 3.5 8.04688 3.76562 9 4.29688C9.9375 4.85938 10.6719 5.59375 11.2031 6.5C11.7188 7.40625 11.9844 8.40625 12 9.5C11.9844 10.5938 11.7188 11.5938 11.2031 12.5C10.6719 13.4062 9.9375 14.1406 9 14.7031C8.04688 15.2344 7.04688 15.5 6 15.5C4.95312 15.5 3.95312 15.2344 3 14.7031C2.0625 14.1406 1.32812 13.4062 0.796875 12.5C0.28125 11.5938 0.015625 10.5938 0 9.5ZM6 7.25C5.4375 7.26562 5.00781 7.51562 4.71094 8C4.42969 8.5 4.42969 9 4.71094 9.5C5.00781 9.98438 5.4375 10.2344 6 10.25C6.5625 10.2344 6.99219 9.98438 7.28906 9.5C7.57031 9 7.57031 8.5 7.28906 8C6.99219 7.51562 6.5625 7.26562 6 7.25ZM5.90625 11C5.29688 10.9688 4.78906 10.7422 4.38281 10.3203C3.97656 9.89844 3.76562 9.375 3.75 8.75C3.76562 8.10938 3.98438 7.57812 4.40625 7.15625C4.82812 6.73438 5.35938 6.51562 6 6.5C6.64062 6.51562 7.17188 6.73438 7.59375 7.15625C8.01562 7.57812 8.23438 8.10938 8.25 8.75C8.23438 9.48438 7.96875 10.1016 7.45312 10.6016L5.50781 12.4062C5.32031 12.5469 5.14062 12.5391 4.96875 12.3828C4.82812 12.1953 4.83594 12.0156 4.99219 11.8438L5.90625 11Z" fill="black" fill-opacity="0.72"/>
</g>
<defs>
<clipPath id="clip0_1731_1085">
<rect width="12" height="18" fill="white"/>
</clipPath>
</defs>
</svg>
