<svg width="16" height="24" viewBox="0 0 16 24" fill="none" xmlns="http://www.w3.org/2000/svg">
<g id="label-paired / md / camera-md / regular" clip-path="url(#clip0_1731_4290)">
<path id="icon" d="M5.96875 5H10.0312C10.7188 5.04167 11.1979 5.38542 11.4688 6.03125L11.7812 7H14C14.5625 7.02083 15.0312 7.21875 15.4062 7.59375C15.7812 7.96875 15.9792 8.4375 16 9V17C15.9792 17.5625 15.7812 18.0312 15.4062 18.4062C15.0312 18.7812 14.5625 18.9792 14 19H2C1.4375 18.9792 0.96875 18.7812 0.59375 18.4062C0.21875 18.0312 0.0208333 17.5625 0 17V9C0.0208333 8.4375 0.21875 7.96875 0.59375 7.59375C0.96875 7.21875 1.4375 7.02083 2 7H4.21875L4.5625 6.03125C4.8125 5.38542 5.28125 5.04167 5.96875 5ZM5.5 6.34375L5.0625 7.65625C4.97917 7.86458 4.82292 7.97917 4.59375 8H2C1.70833 8 1.46875 8.09375 1.28125 8.28125C1.09375 8.46875 1 8.70833 1 9V17C1 17.2917 1.09375 17.5312 1.28125 17.7188C1.46875 17.9062 1.70833 18 2 18H14C14.2917 18 14.5312 17.9062 14.7188 17.7188C14.9062 17.5312 15 17.2917 15 17V9C15 8.70833 14.9062 8.46875 14.7188 8.28125C14.5312 8.09375 14.2917 8 14 8H11.4062C11.1771 7.97917 11.0208 7.86458 10.9375 7.65625L10.5 6.34375C10.4167 6.13542 10.2604 6.02083 10.0312 6H5.96875C5.73958 6.02083 5.58333 6.13542 5.5 6.34375ZM8 16.5C7.375 16.5 6.79167 16.3438 6.25 16.0312C5.70833 15.7188 5.28125 15.2917 4.96875 14.75C4.65625 14.2083 4.5 13.625 4.5 13C4.5 12.375 4.65625 11.7917 4.96875 11.25C5.28125 10.7083 5.70833 10.2812 6.25 9.96875C6.79167 9.65625 7.375 9.5 8 9.5C8.625 9.5 9.20833 9.65625 9.75 9.96875C10.2917 10.2812 10.7188 10.7083 11.0312 11.25C11.3438 11.7917 11.5 12.375 11.5 13C11.5 13.625 11.3438 14.2083 11.0312 14.75C10.7188 15.2917 10.2917 15.7188 9.75 16.0312C9.20833 16.3438 8.625 16.5 8 16.5ZM5.5 13C5.52083 13.9375 5.9375 14.6562 6.75 15.1562C7.58333 15.6146 8.41667 15.6146 9.25 15.1562C10.0625 14.6562 10.4792 13.9375 10.5 13C10.4792 12.0625 10.0625 11.3438 9.25 10.8438C8.41667 10.3854 7.58333 10.3854 6.75 10.8438C5.9375 11.3438 5.52083 12.0625 5.5 13Z" fill="black" fill-opacity="0.72"/>
</g>
<defs>
<clipPath id="clip0_1731_4290">
<rect width="16" height="24" fill="white"/>
</clipPath>
</defs>
</svg>
