<svg width="16" height="24" viewBox="0 0 16 24" fill="none" xmlns="http://www.w3.org/2000/svg">
<g id="label-paired / md / wallet-md / regular" clip-path="url(#clip0_1731_4178)">
<path id="icon" d="M2.5 5H14.5C14.8125 5.02083 14.9792 5.1875 15 5.5C14.9792 5.8125 14.8125 5.97917 14.5 6H2.5C2.08333 6.02083 1.72917 6.16667 1.4375 6.4375C1.16667 6.72917 1.02083 7.08333 1 7.5V16.5C1.02083 16.9167 1.16667 17.2708 1.4375 17.5625C1.72917 17.8333 2.08333 17.9792 2.5 18H13.5C13.9167 17.9792 14.2708 17.8333 14.5625 17.5625C14.8333 17.2708 14.9792 16.9167 15 16.5V9.5C14.9792 9.08333 14.8333 8.72917 14.5625 8.4375C14.2708 8.16667 13.9167 8.02083 13.5 8H3.5C3.1875 7.97917 3.02083 7.8125 3 7.5C3.02083 7.1875 3.1875 7.02083 3.5 7H13.5C14.2083 7.02083 14.8021 7.26042 15.2812 7.71875C15.7396 8.19792 15.9792 8.79167 16 9.5V16.5C15.9792 17.2083 15.7396 17.8021 15.2812 18.2812C14.8021 18.7396 14.2083 18.9792 13.5 19H2.5C1.79167 18.9792 1.19792 18.7396 0.71875 18.2812C0.260417 17.8021 0.0208333 17.2083 0 16.5V7.5C0.0208333 6.79167 0.260417 6.19792 0.71875 5.71875C1.19792 5.26042 1.79167 5.02083 2.5 5ZM12 13.75C11.5417 13.7083 11.2917 13.4583 11.25 13C11.2917 12.5417 11.5417 12.2917 12 12.25C12.4583 12.2917 12.7083 12.5417 12.75 13C12.7083 13.4583 12.4583 13.7083 12 13.75Z" fill="black" fill-opacity="0.72"/>
</g>
<defs>
<clipPath id="clip0_1731_4178">
<rect width="16" height="24" fill="white"/>
</clipPath>
</defs>
</svg>
