<svg width="14" height="22" viewBox="0 0 14 22" fill="none" xmlns="http://www.w3.org/2000/svg">
<g id="label-paired / sm / wallet-sm / regular" clip-path="url(#clip0_1731_2920)">
<path id="icon" d="M2.1875 4.625H12.6875C12.9609 4.64323 13.1068 4.78906 13.125 5.0625C13.1068 5.33594 12.9609 5.48177 12.6875 5.5H2.1875C1.82292 5.51823 1.51302 5.64583 1.25781 5.88281C1.02083 6.13802 0.893229 6.44792 0.875 6.8125V14.6875C0.893229 15.0521 1.02083 15.362 1.25781 15.6172C1.51302 15.8542 1.82292 15.9818 2.1875 16H11.8125C12.1771 15.9818 12.487 15.8542 12.7422 15.6172C12.9792 15.362 13.1068 15.0521 13.125 14.6875V8.5625C13.1068 8.19792 12.9792 7.88802 12.7422 7.63281C12.487 7.39583 12.1771 7.26823 11.8125 7.25H3.0625C2.78906 7.23177 2.64323 7.08594 2.625 6.8125C2.64323 6.53906 2.78906 6.39323 3.0625 6.375H11.8125C12.4323 6.39323 12.9518 6.60286 13.3711 7.00391C13.7721 7.42318 13.9818 7.94271 14 8.5625V14.6875C13.9818 15.3073 13.7721 15.8268 13.3711 16.2461C12.9518 16.6471 12.4323 16.8568 11.8125 16.875H2.1875C1.56771 16.8568 1.04818 16.6471 0.628906 16.2461C0.227865 15.8268 0.0182292 15.3073 0 14.6875V6.8125C0.0182292 6.19271 0.227865 5.67318 0.628906 5.25391C1.04818 4.85286 1.56771 4.64323 2.1875 4.625ZM10.5 12.2812C10.099 12.2448 9.88021 12.026 9.84375 11.625C9.88021 11.224 10.099 11.0052 10.5 10.9688C10.901 11.0052 11.1198 11.224 11.1562 11.625C11.1198 12.026 10.901 12.2448 10.5 12.2812Z" fill="black" fill-opacity="0.72"/>
</g>
<defs>
<clipPath id="clip0_1731_2920">
<rect width="14" height="22" fill="white"/>
</clipPath>
</defs>
</svg>
