<svg width="13" height="22" viewBox="0 0 13 22" fill="none" xmlns="http://www.w3.org/2000/svg">
<g id="label-paired / sm / bell-sm / regular" clip-path="url(#clip0_1731_2541)">
<path id="icon" d="M6.0625 4.1875C6.08073 3.91406 6.22656 3.76823 6.5 3.75C6.77344 3.76823 6.91927 3.91406 6.9375 4.1875V4.65234C8.06771 4.77995 8.9974 5.24479 9.72656 6.04688C10.474 6.84896 10.8568 7.83333 10.875 9V9.79297C10.8932 11.0326 11.3307 12.099 12.1875 12.9922L12.2695 13.0742C12.5065 13.3112 12.625 13.5938 12.625 13.9219C12.625 14.2682 12.5065 14.5508 12.2695 14.7695C12.0508 15.0065 11.7682 15.125 11.4219 15.125H1.57812C1.23177 15.125 0.949219 15.0065 0.730469 14.7695C0.49349 14.5508 0.375 14.2682 0.375 13.9219C0.375 13.5938 0.49349 13.3021 0.730469 13.0469L0.8125 12.9922C1.66927 12.099 2.10677 11.0326 2.125 9.79297V9C2.14323 7.83333 2.52604 6.84896 3.27344 6.04688C4.0026 5.24479 4.93229 4.77995 6.0625 4.65234V4.1875ZM6.5 5.5C5.51562 5.51823 4.6862 5.85547 4.01172 6.51172C3.35547 7.1862 3.01823 8.01562 3 9V9.79297C2.98177 11.2695 2.45312 12.5365 1.41406 13.5938L1.35938 13.6758C1.28646 13.7487 1.25 13.8307 1.25 13.9219C1.26823 14.1224 1.3776 14.2318 1.57812 14.25H11.4219C11.6224 14.2318 11.7318 14.1224 11.75 13.9219C11.75 13.8307 11.7135 13.7487 11.6406 13.6758L11.5859 13.5938C10.5469 12.5365 10.0182 11.2695 10 9.79297V9C9.98177 8.01562 9.63542 7.1862 8.96094 6.51172C8.30469 5.85547 7.48438 5.51823 6.5 5.5ZM5.67969 16.3008C5.82552 16.6654 6.09896 16.8568 6.5 16.875C6.90104 16.8568 7.17448 16.6654 7.32031 16.3008C7.42969 16.0456 7.62109 15.9544 7.89453 16.0273C8.13151 16.1367 8.21354 16.319 8.14062 16.5742C8.01302 16.9206 7.80339 17.2031 7.51172 17.4219C7.22005 17.6406 6.88281 17.75 6.5 17.75C6.11719 17.75 5.77995 17.6406 5.48828 17.4219C5.19661 17.2031 4.98698 16.9206 4.85938 16.5742C4.78646 16.319 4.86849 16.1367 5.10547 16.0273C5.37891 15.9544 5.57031 16.0456 5.67969 16.3008Z" fill="black" fill-opacity="0.72"/>
</g>
<defs>
<clipPath id="clip0_1731_2541">
<rect width="13" height="22" fill="white"/>
</clipPath>
</defs>
</svg>
