<svg width="20" height="30" viewBox="0 0 20 30" fill="none" xmlns="http://www.w3.org/2000/svg">
<g id="label-paired / lg / circle-dot-lg / bold" clip-path="url(#clip0_1731_5532)">
<path id="icon" d="M18.125 15.5C18.125 14.0156 17.7604 12.6615 17.0312 11.4375C16.3281 10.2135 15.3385 9.22396 14.0625 8.46875C12.7865 7.73958 11.4323 7.375 10 7.375C8.56771 7.375 7.21354 7.73958 5.9375 8.46875C4.66146 9.22396 3.67188 10.2135 2.96875 11.4375C2.23958 12.6615 1.875 14.0156 1.875 15.5C1.875 16.9844 2.23958 18.3385 2.96875 19.5625C3.67188 20.7865 4.66146 21.776 5.9375 22.5312C7.21354 23.2604 8.56771 23.625 10 23.625C11.4323 23.625 12.7865 23.2604 14.0625 22.5312C15.3385 21.776 16.3281 20.7865 17.0312 19.5625C17.7604 18.3385 18.125 16.9844 18.125 15.5ZM0 15.5C0.0260417 13.6771 0.46875 12.0104 1.32812 10.5C2.21354 8.98958 3.4375 7.76562 5 6.82812C6.58854 5.94271 8.25521 5.5 10 5.5C11.7448 5.5 13.4115 5.94271 15 6.82812C16.5625 7.76562 17.7865 8.98958 18.6719 10.5C19.5312 12.0104 19.974 13.6771 20 15.5C19.974 17.3229 19.5312 18.9896 18.6719 20.5C17.7865 22.0104 16.5625 23.2344 15 24.1719C13.4115 25.0573 11.7448 25.5 10 25.5C8.25521 25.5 6.58854 25.0573 5 24.1719C3.4375 23.2344 2.21354 22.0104 1.32812 20.5C0.46875 18.9896 0.0260417 17.3229 0 15.5ZM10 11.75C10.6771 11.75 11.3021 11.9193 11.875 12.2578C12.4479 12.5964 12.9036 13.0521 13.2422 13.625C13.5807 14.224 13.75 14.849 13.75 15.5C13.75 16.151 13.5807 16.776 13.2422 17.375C12.9036 17.9479 12.4479 18.4036 11.875 18.7422C11.3021 19.0807 10.6771 19.25 10 19.25C9.32292 19.25 8.69792 19.0807 8.125 18.7422C7.55208 18.4036 7.09635 17.9479 6.75781 17.375C6.41927 16.776 6.25 16.151 6.25 15.5C6.25 14.849 6.41927 14.224 6.75781 13.625C7.09635 13.0521 7.55208 12.5964 8.125 12.2578C8.69792 11.9193 9.32292 11.75 10 11.75Z" fill="black" fill-opacity="0.72"/>
</g>
<defs>
<clipPath id="clip0_1731_5532">
<rect width="20" height="30" fill="white"/>
</clipPath>
</defs>
</svg>
