<svg width="12" height="18" viewBox="0 0 12 18" fill="none" xmlns="http://www.w3.org/2000/svg">
<g id="label-paired / caption / backward-caption / fill" clip-path="url(#clip0_1731_1547)">
<path id="icon" d="M10.7812 13.8359L6.75 10.4844V9.5V8.51562L10.7812 5.16406C11.0156 4.97656 11.2812 4.94531 11.5781 5.07031C11.8438 5.21094 11.9844 5.4375 12 5.75V13.25C11.9844 13.5625 11.8438 13.7891 11.5781 13.9297C11.2812 14.0547 11.0156 14.0234 10.7812 13.8359ZM6 11.75V13.25C5.98438 13.5625 5.84375 13.7891 5.57812 13.9297C5.28125 14.0547 5.01562 14.0234 4.78125 13.8359L0.28125 10.0859C0.09375 9.92969 0 9.73438 0 9.5C0 9.26562 0.09375 9.07031 0.28125 8.91406L4.78125 5.16406C5.01562 4.97656 5.28125 4.94531 5.57812 5.07031C5.84375 5.21094 5.98438 5.4375 6 5.75V6.5V9.5V11.75Z" fill="black" fill-opacity="0.72"/>
</g>
<defs>
<clipPath id="clip0_1731_1547">
<rect width="12" height="18" fill="white"/>
</clipPath>
</defs>
</svg>
