<svg width="20" height="30" viewBox="0 0 20 30" fill="none" xmlns="http://www.w3.org/2000/svg">
<g id="label-paired / lg / circle-ellipsis-lg / bold" clip-path="url(#clip0_1731_5426)">
<path id="icon" d="M10 23.625C11.4844 23.625 12.8385 23.2604 14.0625 22.5312C15.2865 21.8281 16.276 20.8385 17.0312 19.5625C17.7604 18.2865 18.125 16.9323 18.125 15.5C18.125 14.0677 17.7604 12.7135 17.0312 11.4375C16.276 10.1615 15.2865 9.17188 14.0625 8.46875C12.8385 7.73958 11.4844 7.375 10 7.375C8.51562 7.375 7.16146 7.73958 5.9375 8.46875C4.71354 9.17188 3.72396 10.1615 2.96875 11.4375C2.23958 12.7135 1.875 14.0677 1.875 15.5C1.875 16.9323 2.23958 18.2865 2.96875 19.5625C3.72396 20.8385 4.71354 21.8281 5.9375 22.5312C7.16146 23.2604 8.51562 23.625 10 23.625ZM10 5.5C11.8229 5.52604 13.4896 5.96875 15 6.82812C16.5104 7.71354 17.7344 8.9375 18.6719 10.5C19.5573 12.0885 20 13.7552 20 15.5C20 17.2448 19.5573 18.9115 18.6719 20.5C17.7344 22.0625 16.5104 23.2865 15 24.1719C13.4896 25.0312 11.8229 25.474 10 25.5C8.17708 25.474 6.51042 25.0312 5 24.1719C3.48958 23.2865 2.26562 22.0625 1.32812 20.5C0.442708 18.9115 0 17.2448 0 15.5C0 13.7552 0.442708 12.0885 1.32812 10.5C2.26562 8.9375 3.48958 7.71354 5 6.82812C6.51042 5.96875 8.17708 5.52604 10 5.5ZM11.25 15.5C11.25 15.8646 11.1328 16.1641 10.8984 16.3984C10.6641 16.6328 10.3646 16.75 10 16.75C9.63542 16.75 9.33594 16.6328 9.10156 16.3984C8.86719 16.1641 8.75 15.8646 8.75 15.5C8.75 15.1354 8.86719 14.8359 9.10156 14.6016C9.33594 14.3672 9.63542 14.25 10 14.25C10.3646 14.25 10.6641 14.3672 10.8984 14.6016C11.1328 14.8359 11.25 15.1354 11.25 15.5ZM13.75 14.25C14.1146 14.25 14.4141 14.3672 14.6484 14.6016C14.8828 14.8359 15 15.1354 15 15.5C15 15.8646 14.8828 16.1641 14.6484 16.3984C14.4141 16.6328 14.1146 16.75 13.75 16.75C13.3854 16.75 13.0859 16.6328 12.8516 16.3984C12.6172 16.1641 12.5 15.8646 12.5 15.5C12.5 15.1354 12.6172 14.8359 12.8516 14.6016C13.0859 14.3672 13.3854 14.25 13.75 14.25ZM7.5 15.5C7.5 15.8646 7.38281 16.1641 7.14844 16.3984C6.91406 16.6328 6.61458 16.75 6.25 16.75C5.88542 16.75 5.58594 16.6328 5.35156 16.3984C5.11719 16.1641 5 15.8646 5 15.5C5 15.1354 5.11719 14.8359 5.35156 14.6016C5.58594 14.3672 5.88542 14.25 6.25 14.25C6.61458 14.25 6.91406 14.3672 7.14844 14.6016C7.38281 14.8359 7.5 15.1354 7.5 15.5Z" fill="black" fill-opacity="0.72"/>
</g>
<defs>
<clipPath id="clip0_1731_5426">
<rect width="20" height="30" fill="white"/>
</clipPath>
</defs>
</svg>
