<svg width="12" height="24" viewBox="0 0 12 24" fill="none" xmlns="http://www.w3.org/2000/svg">
<g id="label-paired / md / microphone-md / regular" clip-path="url(#clip0_1731_4085)">
<path id="icon" d="M8 7C7.97917 6.4375 7.78125 5.96875 7.40625 5.59375C7.03125 5.21875 6.5625 5.02083 6 5C5.4375 5.02083 4.96875 5.21875 4.59375 5.59375C4.21875 5.96875 4.02083 6.4375 4 7V12C4.02083 12.5625 4.21875 13.0312 4.59375 13.4062C4.96875 13.7812 5.4375 13.9792 6 14C6.5625 13.9792 7.03125 13.7812 7.40625 13.4062C7.78125 13.0312 7.97917 12.5625 8 12V7ZM3 7C3.02083 6.14583 3.3125 5.4375 3.875 4.875C4.4375 4.3125 5.14583 4.02083 6 4C6.85417 4.02083 7.5625 4.3125 8.125 4.875C8.6875 5.4375 8.97917 6.14583 9 7V12C8.97917 12.8542 8.6875 13.5625 8.125 14.125C7.5625 14.6875 6.85417 14.9792 6 15C5.14583 14.9792 4.4375 14.6875 3.875 14.125C3.3125 13.5625 3.02083 12.8542 3 12V7ZM2 10.5V12C2.02083 13.125 2.40625 14.0729 3.15625 14.8438C3.92708 15.5938 4.875 15.9792 6 16C7.125 15.9792 8.07292 15.5938 8.84375 14.8438C9.59375 14.0729 9.97917 13.125 10 12V10.5C10.0208 10.1875 10.1875 10.0208 10.5 10C10.8125 10.0208 10.9792 10.1875 11 10.5V12C10.9792 13.3333 10.5417 14.4583 9.6875 15.375C8.85417 16.2917 7.79167 16.8229 6.5 16.9688V19H8.5C8.8125 19.0208 8.97917 19.1875 9 19.5C8.97917 19.8125 8.8125 19.9792 8.5 20H6H3.5C3.1875 19.9792 3.02083 19.8125 3 19.5C3.02083 19.1875 3.1875 19.0208 3.5 19H5.5V16.9688C4.20833 16.8229 3.14583 16.2917 2.3125 15.375C1.45833 14.4583 1.02083 13.3333 1 12V10.5C1.02083 10.1875 1.1875 10.0208 1.5 10C1.8125 10.0208 1.97917 10.1875 2 10.5Z" fill="black" fill-opacity="0.72"/>
</g>
<defs>
<clipPath id="clip0_1731_4085">
<rect width="12" height="24" fill="white"/>
</clipPath>
</defs>
</svg>
