<svg width="15" height="18" viewBox="0 0 15 18" fill="none" xmlns="http://www.w3.org/2000/svg">
<g id="label-paired / caption / chart-ohlc-caption / bold" clip-path="url(#clip0_1731_1279)">
<path id="icon" d="M7.5 3.5C7.80469 3.5 8.0625 3.75781 8.0625 4.0625V5H9C9.30469 5 9.5625 5.25781 9.5625 5.5625C9.5625 5.89062 9.30469 6.125 9 6.125H8.0625V13.4375C8.0625 13.7656 7.80469 14 7.5 14C7.17188 14 6.9375 13.7656 6.9375 13.4375V12.5H6C5.67188 12.5 5.4375 12.2656 5.4375 11.9375C5.4375 11.6328 5.67188 11.375 6 11.375H6.9375V4.0625C6.9375 3.75781 7.17188 3.5 7.5 3.5ZM12.375 5C12.6797 5 12.9375 5.25781 12.9375 5.5625V9.875H13.875C14.1797 9.875 14.4375 10.1328 14.4375 10.4375C14.4375 10.7656 14.1797 11 13.875 11H12.9375V11.9375C12.9375 12.2656 12.6797 12.5 12.375 12.5C12.0469 12.5 11.8125 12.2656 11.8125 11.9375V7.625H10.875C10.5469 7.625 10.3125 7.39062 10.3125 7.0625C10.3125 6.75781 10.5469 6.5 10.875 6.5H11.8125V5.5625C11.8125 5.25781 12.0469 5 12.375 5ZM2.625 8C2.92969 8 3.1875 8.25781 3.1875 8.5625V12.875H4.125C4.42969 12.875 4.6875 13.1328 4.6875 13.4375C4.6875 13.7656 4.42969 14 4.125 14H3.1875V14.9375C3.1875 15.2656 2.92969 15.5 2.625 15.5C2.29688 15.5 2.0625 15.2656 2.0625 14.9375V10.625H1.125C0.796875 10.625 0.5625 10.3906 0.5625 10.0625C0.5625 9.75781 0.796875 9.5 1.125 9.5H2.0625V8.5625C2.0625 8.25781 2.29688 8 2.625 8Z" fill="black" fill-opacity="0.72"/>
</g>
<defs>
<clipPath id="clip0_1731_1279">
<rect width="15" height="18" fill="white"/>
</clipPath>
</defs>
</svg>
