<svg width="9" height="36" viewBox="0 0 9 36" fill="none" xmlns="http://www.w3.org/2000/svg">
<g id="label-paired / xl / info-xl / regular" clip-path="url(#clip0_1731_6663)">
<path id="icon" d="M3 9C3 8.5625 3.14062 8.20312 3.42188 7.92188C3.70312 7.64062 4.0625 7.5 4.5 7.5C4.9375 7.5 5.29688 7.64062 5.57812 7.92188C5.85938 8.20312 6 8.5625 6 9C6 9.4375 5.85938 9.79688 5.57812 10.0781C5.29688 10.3594 4.9375 10.5 4.5 10.5C4.0625 10.5 3.70312 10.3594 3.42188 10.0781C3.14062 9.79688 3 9.4375 3 9ZM0.75 14.25C0.78125 13.7812 1.03125 13.5312 1.5 13.5H4.5C4.96875 13.5312 5.21875 13.7812 5.25 14.25V27H8.25C8.71875 27.0312 8.96875 27.2812 9 27.75C8.96875 28.2188 8.71875 28.4688 8.25 28.5H0.75C0.28125 28.4688 0.03125 28.2188 0 27.75C0.03125 27.2812 0.28125 27.0312 0.75 27H3.75V15H1.5C1.03125 14.9688 0.78125 14.7188 0.75 14.25Z" fill="black" fill-opacity="0.72"/>
</g>
<defs>
<clipPath id="clip0_1731_6663">
<rect width="9" height="36" fill="white"/>
</clipPath>
</defs>
</svg>
