<svg width="24" height="36" viewBox="0 0 24 36" fill="none" xmlns="http://www.w3.org/2000/svg">
<g id="label-paired / xl / window-maximize-xl / regular" clip-path="url(#clip0_1731_5721)">
<path id="icon" d="M3 9C2.5625 9 2.20312 9.14062 1.92188 9.42188C1.64062 9.70312 1.5 10.0625 1.5 10.5V15H22.5V10.5C22.5 10.0625 22.3594 9.70312 22.0781 9.42188C21.7969 9.14062 21.4375 9 21 9H3ZM1.5 16.5V25.5C1.5 25.9375 1.64062 26.2969 1.92188 26.5781C2.20312 26.8594 2.5625 27 3 27H21C21.4375 27 21.7969 26.8594 22.0781 26.5781C22.3594 26.2969 22.5 25.9375 22.5 25.5V16.5H1.5ZM0 10.5C0.03125 9.65625 0.328125 8.95312 0.890625 8.39062C1.45312 7.82812 2.15625 7.53125 3 7.5H21C21.8438 7.53125 22.5469 7.82812 23.1094 8.39062C23.6719 8.95312 23.9688 9.65625 24 10.5V25.5C23.9688 26.3438 23.6719 27.0469 23.1094 27.6094C22.5469 28.1719 21.8438 28.4688 21 28.5H3C2.15625 28.4688 1.45312 28.1719 0.890625 27.6094C0.328125 27.0469 0.03125 26.3438 0 25.5V10.5Z" fill="black" fill-opacity="0.72"/>
</g>
<defs>
<clipPath id="clip0_1731_5721">
<rect width="24" height="36" fill="white"/>
</clipPath>
</defs>
</svg>
