<svg width="27" height="36" viewBox="0 0 27 36" fill="none" xmlns="http://www.w3.org/2000/svg">
<g id="label-paired / xl / file-shield-xl / regular" clip-path="url(#clip0_1731_6622)">
<path id="icon" d="M15 28.5C15.0625 28.5 15.125 28.5 15.1875 28.5C15.5625 28.9062 15.9688 29.2969 16.4062 29.6719C16 29.8906 15.5312 30 15 30H3C2.15625 29.9688 1.45312 29.6719 0.890625 29.1094C0.328125 28.5469 0.03125 27.8438 0 27V9C0.03125 8.15625 0.328125 7.45312 0.890625 6.89062C1.45312 6.32812 2.15625 6.03125 3 6H10.3125C10.9375 6 11.4688 6.21875 11.9062 6.65625L17.3438 12.0938C17.7812 12.5312 18 13.0625 18 13.6875V15.7031L16.5 16.3125V15H11.25C10.625 14.9688 10.0938 14.75 9.65625 14.3438C9.25 13.9062 9.03125 13.375 9 12.75V7.5H3C2.5625 7.5 2.20312 7.64062 1.92188 7.92188C1.64062 8.20312 1.5 8.5625 1.5 9V27C1.5 27.4375 1.64062 27.7969 1.92188 28.0781C2.20312 28.3594 2.5625 28.5 3 28.5H15ZM16.5 13.5C16.4375 13.375 16.3594 13.2656 16.2656 13.1719L10.8281 7.73438C10.7344 7.64062 10.625 7.57813 10.5 7.54688V12.75C10.5312 13.2188 10.7812 13.4688 11.25 13.5H16.5ZM15 20.1094C15 21.4219 15.3281 22.8281 15.9844 24.3281C16.6406 25.8281 17.8125 27.0781 19.5 28.0781V18.3281L15 20.1094ZM25.5 20.1094L21 18.3281V28.0781C22.6875 27.0781 23.8594 25.8281 24.5156 24.3281C25.1719 22.8281 25.5 21.4219 25.5 20.1094ZM20.6719 16.5938L26.2969 18.8438C26.7344 19.0312 26.9688 19.375 27 19.875C27.0312 20.9062 26.8594 22.0625 26.4844 23.3438C26.1406 24.625 25.5156 25.8594 24.6094 27.0469C23.6719 28.2344 22.3594 29.1875 20.6719 29.9062C20.3906 30.0312 20.1094 30.0312 19.8281 29.9062C18.1406 29.1875 16.8281 28.2344 15.8906 27.0469C14.9844 25.8594 14.3594 24.625 14.0156 23.3438C13.6406 22.0625 13.4688 20.9062 13.5 19.875C13.5312 19.375 13.7656 19.0312 14.2031 18.8438L19.8281 16.5938C20.1094 16.4688 20.3906 16.4688 20.6719 16.5938Z" fill="black" fill-opacity="0.72"/>
</g>
<defs>
<clipPath id="clip0_1731_6622">
<rect width="27" height="36" fill="white"/>
</clipPath>
</defs>
</svg>
