<svg width="24" height="36" viewBox="0 0 24 36" fill="none" xmlns="http://www.w3.org/2000/svg">
<g id="label-paired / xl / gauge-max-xl / bold" clip-path="url(#clip0_1731_5778)">
<path id="icon" d="M12 27.75C13.7812 27.75 15.4062 27.3125 16.875 26.4375C18.3438 25.5938 19.5312 24.4062 20.4375 22.875C21.3125 21.3438 21.75 19.7188 21.75 18C21.75 16.2812 21.3125 14.6562 20.4375 13.125C19.5312 11.5938 18.3438 10.4062 16.875 9.5625C15.4062 8.6875 13.7812 8.25 12 8.25C10.2188 8.25 8.59375 8.6875 7.125 9.5625C5.65625 10.4062 4.46875 11.5938 3.5625 13.125C2.6875 14.6562 2.25 16.2812 2.25 18C2.25 19.7188 2.6875 21.3438 3.5625 22.875C4.46875 24.4062 5.65625 25.5938 7.125 26.4375C8.59375 27.3125 10.2188 27.75 12 27.75ZM12 6C14.1875 6.03125 16.1875 6.5625 18 7.59375C19.8125 8.65625 21.2812 10.125 22.4062 12C23.4688 13.9062 24 15.9062 24 18C24 20.0938 23.4688 22.0938 22.4062 24C21.2812 25.875 19.8125 27.3438 18 28.4062C16.1875 29.4375 14.1875 29.9688 12 30C9.8125 29.9688 7.8125 29.4375 6 28.4062C4.1875 27.3438 2.71875 25.875 1.59375 24C0.53125 22.0938 0 20.0938 0 18C0 15.9062 0.53125 13.9062 1.59375 12C2.71875 10.125 4.1875 8.65625 6 7.59375C7.8125 6.5625 9.8125 6.03125 12 6ZM13.5 11.25C13.5 11.6875 13.3594 12.0469 13.0781 12.3281C12.7969 12.6094 12.4375 12.75 12 12.75C11.5625 12.75 11.2031 12.6094 10.9219 12.3281C10.6406 12.0469 10.5 11.6875 10.5 11.25C10.5 10.8125 10.6406 10.4531 10.9219 10.1719C11.2031 9.89062 11.5625 9.75 12 9.75C12.4375 9.75 12.7969 9.89062 13.0781 10.1719C13.3594 10.4531 13.5 10.8125 13.5 11.25ZM12 25.125C11.25 25.0938 10.625 24.8438 10.125 24.375C9.65625 23.875 9.40625 23.25 9.375 22.5C9.40625 21.75 9.65625 21.125 10.125 20.625C10.625 20.1562 11.25 19.9062 12 19.875C12.5 19.875 12.9375 20 13.3125 20.25L18.4688 16.6875C19.0938 16.3438 19.625 16.4531 20.0625 17.0156C20.4062 17.6094 20.3125 18.125 19.7812 18.5625L14.5781 22.0781C14.6094 22.2344 14.625 22.375 14.625 22.5C14.5938 23.25 14.3438 23.875 13.875 24.375C13.375 24.8438 12.75 25.0938 12 25.125ZM18 13.5C18 13.9375 17.8594 14.2969 17.5781 14.5781C17.2969 14.8594 16.9375 15 16.5 15C16.0625 15 15.7031 14.8594 15.4219 14.5781C15.1406 14.2969 15 13.9375 15 13.5C15 13.0625 15.1406 12.7031 15.4219 12.4219C15.7031 12.1406 16.0625 12 16.5 12C16.9375 12 17.2969 12.1406 17.5781 12.4219C17.8594 12.7031 18 13.0625 18 13.5ZM5.25 16.5C5.6875 16.5 6.04688 16.6406 6.32812 16.9219C6.60938 17.2031 6.75 17.5625 6.75 18C6.75 18.4375 6.60938 18.7969 6.32812 19.0781C6.04688 19.3594 5.6875 19.5 5.25 19.5C4.8125 19.5 4.45312 19.3594 4.17188 19.0781C3.89062 18.7969 3.75 18.4375 3.75 18C3.75 17.5625 3.89062 17.2031 4.17188 16.9219C4.45312 16.6406 4.8125 16.5 5.25 16.5ZM9 13.5C9 13.9375 8.85938 14.2969 8.57812 14.5781C8.29688 14.8594 7.9375 15 7.5 15C7.0625 15 6.70312 14.8594 6.42188 14.5781C6.14062 14.2969 6 13.9375 6 13.5C6 13.0625 6.14062 12.7031 6.42188 12.4219C6.70312 12.1406 7.0625 12 7.5 12C7.9375 12 8.29688 12.1406 8.57812 12.4219C8.85938 12.7031 9 13.0625 9 13.5Z" fill="black" fill-opacity="0.72"/>
</g>
<defs>
<clipPath id="clip0_1731_5778">
<rect width="24" height="36" fill="white"/>
</clipPath>
</defs>
</svg>
