<svg width="18" height="24" viewBox="0 0 18 24" fill="none" xmlns="http://www.w3.org/2000/svg">
<g id="label-paired / md / arrow-up-a-z-md / regular" clip-path="url(#clip0_1731_3652)">
<path id="icon" d="M5.34375 5.15625L8.34375 8.15625C8.55208 8.38542 8.55208 8.61458 8.34375 8.84375C8.11458 9.05208 7.88542 9.05208 7.65625 8.84375L5.5 6.71875V18.5C5.47917 18.8125 5.3125 18.9792 5 19C4.6875 18.9792 4.52083 18.8125 4.5 18.5V6.71875L2.34375 8.84375C2.11458 9.05208 1.88542 9.05208 1.65625 8.84375C1.44792 8.61458 1.44792 8.38542 1.65625 8.15625L4.65625 5.15625C4.88542 4.94792 5.11458 4.94792 5.34375 5.15625ZM11 13H15C15.2083 13 15.3542 13.0938 15.4375 13.2812C15.5208 13.4688 15.5104 13.6458 15.4062 13.8125L12.0312 18H15C15.3125 18.0208 15.4792 18.1875 15.5 18.5C15.4792 18.8125 15.3125 18.9792 15 19H11C10.7917 19 10.6458 18.9062 10.5625 18.7188C10.4792 18.5312 10.5 18.3542 10.625 18.1875L13.9688 14H11C10.6875 13.9792 10.5208 13.8125 10.5 13.5C10.5208 13.1875 10.6875 13.0208 11 13ZM13 5C13.2083 5 13.3542 5.09375 13.4375 5.28125L15.4375 9.28125C15.4583 9.28125 15.4688 9.28125 15.4688 9.28125L15.9375 10.2812C16.0625 10.5729 15.9896 10.7917 15.7188 10.9375C15.4479 11.0625 15.2292 10.9896 15.0625 10.7188L14.6875 10H11.3125L10.9375 10.7188C10.7917 10.9896 10.5729 11.0625 10.2812 10.9375C10.0104 10.7917 9.9375 10.5729 10.0625 10.2812L10.5625 9.28125L12.5625 5.28125C12.6458 5.09375 12.7917 5 13 5ZM11.8125 9H14.1875L13 6.625L11.8125 9Z" fill="black" fill-opacity="0.72"/>
</g>
<defs>
<clipPath id="clip0_1731_3652">
<rect width="18" height="24" fill="white"/>
</clipPath>
</defs>
</svg>
