<svg width="13" height="22" viewBox="0 0 13 22" fill="none" xmlns="http://www.w3.org/2000/svg">
<g id="label-paired / sm / linkedin-sm" clip-path="url(#clip0_1731_13889)">
<path id="icon" d="M11.75 4.625C12.0052 4.625 12.2148 4.70703 12.3789 4.87109C12.543 5.05339 12.625 5.26302 12.625 5.5V16C12.625 16.237 12.543 16.4466 12.3789 16.6289C12.2148 16.793 12.0052 16.875 11.75 16.875H1.25C0.994792 16.875 0.785156 16.793 0.621094 16.6289C0.457031 16.4466 0.375 16.237 0.375 16V5.5C0.375 5.26302 0.457031 5.05339 0.621094 4.87109C0.785156 4.70703 0.994792 4.625 1.25 4.625H11.75ZM4.06641 15.125H4.09375V9.27344H2.26172V15.125H4.06641ZM3.16406 8.48047C3.47396 8.48047 3.72005 8.38021 3.90234 8.17969C4.10286 7.97917 4.21224 7.73307 4.23047 7.44141C4.21224 7.13151 4.10286 6.8763 3.90234 6.67578C3.72005 6.47526 3.47396 6.375 3.16406 6.375C2.8724 6.375 2.6263 6.47526 2.42578 6.67578C2.22526 6.8763 2.125 7.13151 2.125 7.44141C2.125 7.73307 2.22526 7.97917 2.42578 8.17969C2.6263 8.38021 2.8724 8.48047 3.16406 8.48047ZM10.875 15.125V11.9258C10.9115 11.1237 10.7839 10.4583 10.4922 9.92969C10.2005 9.41927 9.60807 9.15495 8.71484 9.13672C8.25911 9.13672 7.88542 9.23698 7.59375 9.4375C7.30208 9.61979 7.10156 9.82943 6.99219 10.0664H6.96484V9.27344H5.21484V15.125H7.04688V12.2266C7.02865 11.8255 7.08333 11.4792 7.21094 11.1875C7.35677 10.8958 7.65755 10.7409 8.11328 10.7227C8.56901 10.7591 8.84245 10.9323 8.93359 11.2422C9.04297 11.5703 9.08854 11.9167 9.07031 12.2812V15.125H10.875Z" fill="black" fill-opacity="0.72"/>
</g>
<defs>
<clipPath id="clip0_1731_13889">
<rect width="13" height="22" fill="white"/>
</clipPath>
</defs>
</svg>
