<svg width="14" height="22" viewBox="0 0 14 22" fill="none" xmlns="http://www.w3.org/2000/svg">
<g id="label-paired / sm / ubuntu-sm" clip-path="url(#clip0_1731_13875)">
<path id="icon" d="M7 3.96875C8.25781 3.98698 9.39714 4.29688 10.418 4.89844C11.4388 5.5 12.25 6.3112 12.8516 7.33203C13.4531 8.35286 13.763 9.49219 13.7812 10.75C13.763 12.0078 13.4531 13.1471 12.8516 14.168C12.25 15.1888 11.4388 16 10.418 16.6016C9.39714 17.2031 8.25781 17.513 7 17.5312C5.74219 17.513 4.60286 17.2031 3.58203 16.6016C2.5612 16 1.75 15.1888 1.14844 14.168C0.546875 13.1471 0.236979 12.0078 0.21875 10.75C0.236979 9.49219 0.546875 8.35286 1.14844 7.33203C1.75 6.3112 2.5612 5.5 3.58203 4.89844C4.60286 4.29688 5.74219 3.98698 7 3.96875ZM8.44922 6.51172C8.32161 6.73047 8.29427 6.94922 8.36719 7.16797C8.42188 7.38672 8.54948 7.56901 8.75 7.71484C8.96875 7.82422 9.19661 7.85156 9.43359 7.79688C9.65234 7.72396 9.82552 7.58724 9.95312 7.38672C10.0625 7.16797 10.0898 6.94922 10.0352 6.73047C9.98047 6.49349 9.84375 6.3112 9.625 6.18359C9.40625 6.07422 9.1875 6.04688 8.96875 6.10156C8.75 6.15625 8.57682 6.29297 8.44922 6.51172ZM2.59766 11.625C2.85286 11.625 3.0625 11.543 3.22656 11.3789C3.39062 11.2148 3.47266 11.0052 3.47266 10.75C3.47266 10.4948 3.39062 10.2852 3.22656 10.1211C3.0625 9.95703 2.85286 9.875 2.59766 9.875C2.36068 9.875 2.16016 9.95703 1.99609 10.1211C1.83203 10.2852 1.75 10.4948 1.75 10.75C1.75 11.0052 1.83203 11.2148 1.99609 11.3789C2.16016 11.543 2.36068 11.625 2.59766 11.625ZM3.39062 11.707C3.64583 12.6185 4.15625 13.3385 4.92188 13.8672L5.57812 12.7734C4.86719 12.2448 4.51172 11.5703 4.51172 10.75C4.51172 9.92969 4.86719 9.25521 5.57812 8.72656L4.92188 7.63281C4.15625 8.16146 3.64583 8.88151 3.39062 9.79297C3.68229 10.0664 3.82812 10.3854 3.82812 10.75C3.82812 11.1328 3.68229 11.4518 3.39062 11.707ZM9.625 15.3164C9.84375 15.1888 9.98047 15.0065 10.0352 14.7695C10.0898 14.5508 10.0625 14.332 9.95312 14.1133C9.82552 13.9128 9.65234 13.776 9.43359 13.7031C9.19661 13.6484 8.96875 13.6758 8.75 13.7852C8.54948 13.9128 8.42188 14.0951 8.36719 14.332C8.29427 14.5508 8.32161 14.7695 8.44922 14.9883C8.57682 15.207 8.75 15.3438 8.96875 15.3984C9.1875 15.4531 9.40625 15.4258 9.625 15.3164ZM9.65234 13.4023C10.2904 12.7643 10.6549 11.9622 10.7461 10.9961L9.48828 10.9688C9.36068 11.8438 8.95052 12.4909 8.25781 12.9102C7.54688 13.3112 6.78125 13.3477 5.96094 13.0195L5.33203 14.1133C5.98828 14.4049 6.5625 14.5326 7.05469 14.4961C7.54688 14.4596 7.85677 14.4141 7.98438 14.3594C8.05729 13.9583 8.25781 13.6667 8.58594 13.4844C8.91406 13.3021 9.26953 13.2747 9.65234 13.4023ZM9.48828 10.5312L10.7461 10.5039C10.6549 9.53776 10.2812 8.73568 9.625 8.09766C9.26042 8.22526 8.91406 8.19792 8.58594 8.01562C8.25781 7.83333 8.05729 7.54167 7.98438 7.14062C7.98438 7.14062 7.97526 7.14062 7.95703 7.14062C7.84766 7.08594 7.54688 7.04036 7.05469 7.00391C6.5625 6.96745 5.98828 7.09505 5.33203 7.38672L5.96094 8.50781C6.78125 8.16146 7.54688 8.1888 8.25781 8.58984C8.95052 9.00911 9.36068 9.65625 9.48828 10.5312Z" fill="black" fill-opacity="0.72"/>
</g>
<defs>
<clipPath id="clip0_1731_13875">
<rect width="14" height="22" fill="white"/>
</clipPath>
</defs>
</svg>
