<svg width="18" height="22" viewBox="0 0 18 22" fill="none" xmlns="http://www.w3.org/2000/svg">
<g id="label-paired / sm / chart-trend-up-sm / bold" clip-path="url(#clip0_1885_542)">
<path id="icon" d="M17.1484 4.05078C17.4766 4.21484 17.6133 4.59766 17.4492 4.92578L14.8242 10.1758C14.7148 10.3945 14.4961 10.5312 14.2227 10.5312H10.2578L6.94922 17.1758C6.78516 17.5039 6.40234 17.6406 6.07422 17.4766L0.824219 14.8516C0.496094 14.6875 0.359375 14.3047 0.523438 13.9766C0.6875 13.6484 1.07031 13.5117 1.39844 13.6758L6.07422 16L9.27344 9.60156C9.38281 9.38281 9.60156 9.21875 9.875 9.21875H13.8398L16.2734 4.35156C16.4375 4.02344 16.8203 3.88672 17.1484 4.05078Z" fill="black" fill-opacity="0.72"/>
</g>
<defs>
<clipPath id="clip0_1885_542">
<rect width="18" height="22" fill="white"/>
</clipPath>
</defs>
</svg>
