<svg width="12" height="18" viewBox="0 0 12 18" fill="none" xmlns="http://www.w3.org/2000/svg">
<g id="label-paired / caption / triangle-exclamation-caption / regular" clip-path="url(#clip0_1731_1621)">
<path id="icon" d="M0.820312 13.3438C0.773438 13.4219 0.75 13.5 0.75 13.5781C0.78125 13.8438 0.921875 13.9844 1.17188 14H10.8281C11.0781 13.9844 11.2188 13.8438 11.25 13.5781C11.25 13.5 11.2344 13.4219 11.2031 13.3438L6.49219 5.28125C6.36719 5.09375 6.20312 5 6 5C5.79688 5 5.64062 5.09375 5.53125 5.28125L0.820312 13.3438ZM0.164062 12.9688L4.875 4.90625C5.14062 4.48438 5.51562 4.26562 6 4.25C6.48438 4.26562 6.85938 4.48438 7.125 4.90625L11.8359 12.9688C11.9453 13.1562 12 13.3594 12 13.5781C11.9844 13.9062 11.8672 14.1797 11.6484 14.3984C11.4297 14.6172 11.1562 14.7344 10.8281 14.75H1.17188C0.84375 14.7344 0.570312 14.6172 0.351562 14.3984C0.132813 14.1797 0.015625 13.9062 0 13.5781C0 13.3594 0.0546875 13.1562 0.164062 12.9688ZM6 7.25C6.23438 7.26562 6.35938 7.39062 6.375 7.625V10.625C6.35938 10.8594 6.23438 10.9844 6 11C5.76562 10.9844 5.64062 10.8594 5.625 10.625V7.625C5.64062 7.39062 5.76562 7.26562 6 7.25ZM5.4375 12.5C5.46875 12.1562 5.65625 11.9688 6 11.9375C6.34375 11.9688 6.53125 12.1562 6.5625 12.5C6.53125 12.8438 6.34375 13.0312 6 13.0625C5.65625 13.0312 5.46875 12.8438 5.4375 12.5Z" fill="black" fill-opacity="0.72"/>
</g>
<defs>
<clipPath id="clip0_1731_1621">
<rect width="12" height="18" fill="white"/>
</clipPath>
</defs>
</svg>
