<svg width="12" height="18" viewBox="0 0 12 18" fill="none" xmlns="http://www.w3.org/2000/svg">
<g id="label-paired / caption / circle-zero-caption / regular" clip-path="url(#clip0_1731_1090)">
<path id="icon" d="M6 4.25C5.04688 4.26562 4.17188 4.5 3.375 4.95312C2.57812 5.42188 1.9375 6.0625 1.45312 6.875C0.984375 7.70312 0.75 8.57812 0.75 9.5C0.75 10.4219 0.984375 11.2969 1.45312 12.125C1.9375 12.9375 2.57812 13.5781 3.375 14.0469C4.17188 14.5 5.04688 14.7344 6 14.75C6.95312 14.7344 7.82812 14.5 8.625 14.0469C9.42188 13.5781 10.0625 12.9375 10.5469 12.125C11.0156 11.2969 11.25 10.4219 11.25 9.5C11.25 8.57812 11.0156 7.70312 10.5469 6.875C10.0625 6.0625 9.42188 5.42188 8.625 4.95312C7.82812 4.5 6.95312 4.26562 6 4.25ZM6 15.5C4.90625 15.4844 3.90625 15.2188 3 14.7031C2.09375 14.1719 1.35938 13.4375 0.796875 12.5C0.265625 11.5469 0 10.5469 0 9.5C0 8.45312 0.265625 7.45312 0.796875 6.5C1.35938 5.5625 2.09375 4.82812 3 4.29688C3.90625 3.78125 4.90625 3.51563 6 3.5C7.09375 3.51563 8.09375 3.78125 9 4.29688C9.90625 4.82812 10.6406 5.5625 11.2031 6.5C11.7344 7.45312 12 8.45312 12 9.5C12 10.5469 11.7344 11.5469 11.2031 12.5C10.6406 13.4375 9.90625 14.1719 9 14.7031C8.09375 15.2188 7.09375 15.4844 6 15.5ZM6 6.5C6.64062 6.51562 7.17188 6.73438 7.59375 7.15625C8.01562 7.57812 8.23438 8.10938 8.25 8.75V10.25C8.23438 10.8906 8.01562 11.4219 7.59375 11.8438C7.17188 12.2656 6.64062 12.4844 6 12.5C5.35938 12.4844 4.82812 12.2656 4.40625 11.8438C3.98438 11.4219 3.76562 10.8906 3.75 10.25V8.75C3.76562 8.10938 3.98438 7.57812 4.40625 7.15625C4.82812 6.73438 5.35938 6.51562 6 6.5ZM4.5 8.75V10.25C4.51562 10.6719 4.66406 11.0234 4.94531 11.3047C5.22656 11.5859 5.57812 11.7344 6 11.75C6.42188 11.7344 6.77344 11.5859 7.05469 11.3047C7.33594 11.0234 7.48438 10.6719 7.5 10.25V8.75C7.48438 8.32812 7.33594 7.97656 7.05469 7.69531C6.77344 7.41406 6.42188 7.26562 6 7.25C5.57812 7.26562 5.22656 7.41406 4.94531 7.69531C4.66406 7.97656 4.51562 8.32812 4.5 8.75Z" fill="black" fill-opacity="0.72"/>
</g>
<defs>
<clipPath id="clip0_1731_1090">
<rect width="12" height="18" fill="white"/>
</clipPath>
</defs>
</svg>
