<svg width="18" height="30" viewBox="0 0 18 30" fill="none" xmlns="http://www.w3.org/2000/svg">
<g id="label-paired / lg / trash-lg / bold" clip-path="url(#clip0_1731_5301)">
<path id="icon" d="M7.16406 7.375C7.0599 7.375 6.98177 7.42708 6.92969 7.53125L6.1875 8.625H11.8516L11.1094 7.53125C11.0312 7.42708 10.9401 7.375 10.8359 7.375H7.16406ZM14.0781 8.625H14.625H16.5H16.8125C17.3854 8.67708 17.6979 8.98958 17.75 9.5625C17.6979 10.1354 17.3854 10.4479 16.8125 10.5H16.3438L15.4062 23.1953C15.3542 23.8464 15.0938 24.3932 14.625 24.8359C14.1562 25.2526 13.5964 25.474 12.9453 25.5H5.05469C4.40365 25.474 3.84375 25.2526 3.375 24.8359C2.90625 24.3932 2.64583 23.8464 2.59375 23.1953L1.65625 10.5H1.1875C0.614583 10.4479 0.302083 10.1354 0.25 9.5625C0.302083 8.98958 0.614583 8.67708 1.1875 8.625H1.5H3.375H3.92188L5.36719 6.47656C5.8099 5.85156 6.40885 5.52604 7.16406 5.5H10.8359C11.5911 5.52604 12.2031 5.85156 12.6719 6.47656L14.0781 8.625ZM14.4688 10.5H3.53125L4.42969 23.0391C4.50781 23.4036 4.71615 23.599 5.05469 23.625H12.9453C13.2839 23.599 13.4922 23.4036 13.5703 23.0391L14.4688 10.5Z" fill="black" fill-opacity="0.72"/>
</g>
<defs>
<clipPath id="clip0_1731_5301">
<rect width="18" height="30" fill="white"/>
</clipPath>
</defs>
</svg>
