<svg width="14" height="24" viewBox="0 0 14 24" fill="none" xmlns="http://www.w3.org/2000/svg">
<g id="label-paired / md / user-md / regular" clip-path="url(#clip0_1731_4269)">
<path id="icon" d="M10 8C10 7.45833 9.86458 6.95833 9.59375 6.5C9.32292 6.04167 8.95833 5.67708 8.5 5.40625C8.02083 5.13542 7.52083 5 7 5C6.47917 5 5.97917 5.13542 5.5 5.40625C5.04167 5.67708 4.67708 6.04167 4.40625 6.5C4.13542 6.95833 4 7.45833 4 8C4 8.54167 4.13542 9.04167 4.40625 9.5C4.67708 9.95833 5.04167 10.3229 5.5 10.5938C5.97917 10.8646 6.47917 11 7 11C7.52083 11 8.02083 10.8646 8.5 10.5938C8.95833 10.3229 9.32292 9.95833 9.59375 9.5C9.86458 9.04167 10 8.54167 10 8ZM3 8C3 7.27083 3.17708 6.60417 3.53125 6C3.88542 5.39583 4.375 4.90625 5 4.53125C5.625 4.17708 6.29167 4 7 4C7.70833 4 8.375 4.17708 9 4.53125C9.625 4.90625 10.1146 5.39583 10.4688 6C10.8229 6.60417 11 7.27083 11 8C11 8.72917 10.8229 9.39583 10.4688 10C10.1146 10.6042 9.625 11.0938 9 11.4688C8.375 11.8229 7.70833 12 7 12C6.29167 12 5.625 11.8229 5 11.4688C4.375 11.0938 3.88542 10.6042 3.53125 10C3.17708 9.39583 3 8.72917 3 8ZM1 19H13C12.9583 17.7292 12.5 16.6667 11.625 15.8125C10.7708 14.9792 9.70833 14.5417 8.4375 14.5H5.5625C4.29167 14.5417 3.22917 14.9792 2.375 15.8125C1.5 16.6667 1.04167 17.7292 1 19ZM0 19.0625C0.0416667 17.5 0.583333 16.1875 1.625 15.125C2.6875 14.0833 4 13.5417 5.5625 13.5H8.4375C10 13.5417 11.3125 14.0833 12.375 15.125C13.4167 16.1875 13.9583 17.5 14 19.0625C14 19.3333 13.9062 19.5521 13.7188 19.7188C13.5521 19.9062 13.3333 20 13.0625 20H0.9375C0.666667 20 0.447917 19.9062 0.28125 19.7188C0.09375 19.5521 0 19.3333 0 19.0625Z" fill="black" fill-opacity="0.72"/>
</g>
<defs>
<clipPath id="clip0_1731_4269">
<rect width="14" height="24" fill="white"/>
</clipPath>
</defs>
</svg>
