<svg width="11" height="22" viewBox="0 0 11 22" fill="none" xmlns="http://www.w3.org/2000/svg">
<g id="label-paired / sm / file-circle-check-sm / bold" clip-path="url(#clip0_1731_2766)">
<path id="icon" d="M2 16.4375H9C9.27344 16.4193 9.41927 16.2734 9.4375 16V8.125H7.25C6.99479 8.125 6.78516 8.04297 6.62109 7.87891C6.45703 7.71484 6.375 7.50521 6.375 7.25V5.0625H2C1.72656 5.08073 1.58073 5.22656 1.5625 5.5V16C1.58073 16.2734 1.72656 16.4193 2 16.4375ZM2 3.75H6.53906C7.01302 3.75 7.42318 3.92318 7.76953 4.26953L10.2305 6.73047C10.5768 7.07682 10.75 7.49609 10.75 7.98828V16C10.7318 16.4922 10.5586 16.9023 10.2305 17.2305C9.90234 17.5586 9.49219 17.7318 9 17.75H2C1.50781 17.7318 1.09766 17.5586 0.769531 17.2305C0.441406 16.9023 0.268229 16.4922 0.25 16V5.5C0.268229 5.00781 0.441406 4.59766 0.769531 4.26953C1.09766 3.94141 1.50781 3.76823 2 3.75ZM8.15234 11.0781L5.22656 13.9766C5.09896 14.1042 4.94401 14.168 4.76172 14.168C4.57943 14.168 4.42448 14.1042 4.29688 13.9766L2.84766 12.5273C2.59245 12.2174 2.59245 11.9076 2.84766 11.5977C3.15755 11.3424 3.46745 11.3424 3.77734 11.5977L4.76172 12.582L7.22266 10.1484C7.53255 9.89323 7.84245 9.89323 8.15234 10.1484C8.40755 10.4583 8.40755 10.7682 8.15234 11.0781Z" fill="black" fill-opacity="0.72"/>
</g>
<defs>
<clipPath id="clip0_1731_2766">
<rect width="11" height="22" fill="white"/>
</clipPath>
</defs>
</svg>
