<svg width="18" height="30" viewBox="0 0 18 30" fill="none" xmlns="http://www.w3.org/2000/svg">
<g id="label-paired / lg / grid-lg / regular" clip-path="url(#clip0_1731_5374)">
<path id="icon" d="M3.6875 8H1.8125C1.63021 8.02604 1.52604 8.13021 1.5 8.3125V10.1875C1.52604 10.3698 1.63021 10.474 1.8125 10.5H3.6875C3.86979 10.474 3.97396 10.3698 4 10.1875V8.3125C3.97396 8.13021 3.86979 8.02604 3.6875 8ZM1.8125 6.75H3.6875C4.13021 6.75 4.49479 6.90625 4.78125 7.21875C5.09375 7.50521 5.25 7.86979 5.25 8.3125V10.1875C5.25 10.6302 5.09375 10.9948 4.78125 11.2812C4.49479 11.5938 4.13021 11.75 3.6875 11.75H1.8125C1.36979 11.75 1.00521 11.5938 0.71875 11.2812C0.40625 10.9948 0.25 10.6302 0.25 10.1875V8.3125C0.25 7.86979 0.40625 7.50521 0.71875 7.21875C1.00521 6.90625 1.36979 6.75 1.8125 6.75ZM3.6875 14.25H1.8125C1.63021 14.276 1.52604 14.3802 1.5 14.5625V16.4375C1.52604 16.6198 1.63021 16.724 1.8125 16.75H3.6875C3.86979 16.724 3.97396 16.6198 4 16.4375V14.5625C3.97396 14.3802 3.86979 14.276 3.6875 14.25ZM1.8125 13H3.6875C4.13021 13 4.49479 13.1562 4.78125 13.4688C5.09375 13.7552 5.25 14.1198 5.25 14.5625V16.4375C5.25 16.8802 5.09375 17.2448 4.78125 17.5312C4.49479 17.8438 4.13021 18 3.6875 18H1.8125C1.36979 18 1.00521 17.8438 0.71875 17.5312C0.40625 17.2448 0.25 16.8802 0.25 16.4375V14.5625C0.25 14.1198 0.40625 13.7552 0.71875 13.4688C1.00521 13.1562 1.36979 13 1.8125 13ZM1.8125 20.5C1.63021 20.526 1.52604 20.6302 1.5 20.8125V22.6875C1.52604 22.8698 1.63021 22.974 1.8125 23H3.6875C3.86979 22.974 3.97396 22.8698 4 22.6875V20.8125C3.97396 20.6302 3.86979 20.526 3.6875 20.5H1.8125ZM0.25 20.8125C0.25 20.3698 0.40625 20.0052 0.71875 19.7188C1.00521 19.4062 1.36979 19.25 1.8125 19.25H3.6875C4.13021 19.25 4.49479 19.4062 4.78125 19.7188C5.09375 20.0052 5.25 20.3698 5.25 20.8125V22.6875C5.25 23.1302 5.09375 23.4948 4.78125 23.7812C4.49479 24.0938 4.13021 24.25 3.6875 24.25H1.8125C1.36979 24.25 1.00521 24.0938 0.71875 23.7812C0.40625 23.4948 0.25 23.1302 0.25 22.6875V20.8125ZM9.9375 8H8.0625C7.88021 8.02604 7.77604 8.13021 7.75 8.3125V10.1875C7.77604 10.3698 7.88021 10.474 8.0625 10.5H9.9375C10.1198 10.474 10.224 10.3698 10.25 10.1875V8.3125C10.224 8.13021 10.1198 8.02604 9.9375 8ZM8.0625 6.75H9.9375C10.3802 6.75 10.7448 6.90625 11.0312 7.21875C11.3438 7.50521 11.5 7.86979 11.5 8.3125V10.1875C11.5 10.6302 11.3438 10.9948 11.0312 11.2812C10.7448 11.5938 10.3802 11.75 9.9375 11.75H8.0625C7.61979 11.75 7.25521 11.5938 6.96875 11.2812C6.65625 10.9948 6.5 10.6302 6.5 10.1875V8.3125C6.5 7.86979 6.65625 7.50521 6.96875 7.21875C7.25521 6.90625 7.61979 6.75 8.0625 6.75ZM8.0625 14.25C7.88021 14.276 7.77604 14.3802 7.75 14.5625V16.4375C7.77604 16.6198 7.88021 16.724 8.0625 16.75H9.9375C10.1198 16.724 10.224 16.6198 10.25 16.4375V14.5625C10.224 14.3802 10.1198 14.276 9.9375 14.25H8.0625ZM6.5 14.5625C6.5 14.1198 6.65625 13.7552 6.96875 13.4688C7.25521 13.1562 7.61979 13 8.0625 13H9.9375C10.3802 13 10.7448 13.1562 11.0312 13.4688C11.3438 13.7552 11.5 14.1198 11.5 14.5625V16.4375C11.5 16.8802 11.3438 17.2448 11.0312 17.5312C10.7448 17.8438 10.3802 18 9.9375 18H8.0625C7.61979 18 7.25521 17.8438 6.96875 17.5312C6.65625 17.2448 6.5 16.8802 6.5 16.4375V14.5625ZM9.9375 20.5H8.0625C7.88021 20.526 7.77604 20.6302 7.75 20.8125V22.6875C7.77604 22.8698 7.88021 22.974 8.0625 23H9.9375C10.1198 22.974 10.224 22.8698 10.25 22.6875V20.8125C10.224 20.6302 10.1198 20.526 9.9375 20.5ZM8.0625 19.25H9.9375C10.3802 19.25 10.7448 19.4062 11.0312 19.7188C11.3438 20.0052 11.5 20.3698 11.5 20.8125V22.6875C11.5 23.1302 11.3438 23.4948 11.0312 23.7812C10.7448 24.0938 10.3802 24.25 9.9375 24.25H8.0625C7.61979 24.25 7.25521 24.0938 6.96875 23.7812C6.65625 23.4948 6.5 23.1302 6.5 22.6875V20.8125C6.5 20.3698 6.65625 20.0052 6.96875 19.7188C7.25521 19.4062 7.61979 19.25 8.0625 19.25ZM14.3125 8C14.1302 8.02604 14.026 8.13021 14 8.3125V10.1875C14.026 10.3698 14.1302 10.474 14.3125 10.5H16.1875C16.3698 10.474 16.474 10.3698 16.5 10.1875V8.3125C16.474 8.13021 16.3698 8.02604 16.1875 8H14.3125ZM12.75 8.3125C12.75 7.86979 12.9062 7.50521 13.2188 7.21875C13.5052 6.90625 13.8698 6.75 14.3125 6.75H16.1875C16.6302 6.75 16.9948 6.90625 17.2812 7.21875C17.5938 7.50521 17.75 7.86979 17.75 8.3125V10.1875C17.75 10.6302 17.5938 10.9948 17.2812 11.2812C16.9948 11.5938 16.6302 11.75 16.1875 11.75H14.3125C13.8698 11.75 13.5052 11.5938 13.2188 11.2812C12.9062 10.9948 12.75 10.6302 12.75 10.1875V8.3125ZM16.1875 14.25H14.3125C14.1302 14.276 14.026 14.3802 14 14.5625V16.4375C14.026 16.6198 14.1302 16.724 14.3125 16.75H16.1875C16.3698 16.724 16.474 16.6198 16.5 16.4375V14.5625C16.474 14.3802 16.3698 14.276 16.1875 14.25ZM14.3125 13H16.1875C16.6302 13 16.9948 13.1562 17.2812 13.4688C17.5938 13.7552 17.75 14.1198 17.75 14.5625V16.4375C17.75 16.8802 17.5938 17.2448 17.2812 17.5312C16.9948 17.8438 16.6302 18 16.1875 18H14.3125C13.8698 18 13.5052 17.8438 13.2188 17.5312C12.9062 17.2448 12.75 16.8802 12.75 16.4375V14.5625C12.75 14.1198 12.9062 13.7552 13.2188 13.4688C13.5052 13.1562 13.8698 13 14.3125 13ZM14.3125 20.5C14.1302 20.526 14.026 20.6302 14 20.8125V22.6875C14.026 22.8698 14.1302 22.974 14.3125 23H16.1875C16.3698 22.974 16.474 22.8698 16.5 22.6875V20.8125C16.474 20.6302 16.3698 20.526 16.1875 20.5H14.3125ZM12.75 20.8125C12.75 20.3698 12.9062 20.0052 13.2188 19.7188C13.5052 19.4062 13.8698 19.25 14.3125 19.25H16.1875C16.6302 19.25 16.9948 19.4062 17.2812 19.7188C17.5938 20.0052 17.75 20.3698 17.75 20.8125V22.6875C17.75 23.1302 17.5938 23.4948 17.2812 23.7812C16.9948 24.0938 16.6302 24.25 16.1875 24.25H14.3125C13.8698 24.25 13.5052 24.0938 13.2188 23.7812C12.9062 23.4948 12.75 23.1302 12.75 22.6875V20.8125Z" fill="black" fill-opacity="0.72"/>
</g>
<defs>
<clipPath id="clip0_1731_5374">
<rect width="18" height="30" fill="white"/>
</clipPath>
</defs>
</svg>
