<svg width="12" height="18" viewBox="0 0 12 18" fill="none" xmlns="http://www.w3.org/2000/svg">
<g id="label-paired / caption / chevrons-right-caption / bold" clip-path="url(#clip0_1731_896)">
<path id="icon" d="M10.8984 9.10156C11.1172 9.36719 11.1172 9.63281 10.8984 9.89844L6.39844 14.3984C6.13281 14.6172 5.86719 14.6172 5.60156 14.3984C5.38281 14.1328 5.38281 13.8672 5.60156 13.6016L9.70312 9.5L5.60156 5.39844C5.38281 5.13281 5.38281 4.86719 5.60156 4.60156C5.86719 4.38281 6.13281 4.38281 6.39844 4.60156L10.8984 9.10156ZM1.89844 4.60156L6.39844 9.10156C6.61719 9.36719 6.61719 9.63281 6.39844 9.89844L1.89844 14.3984C1.63281 14.6172 1.36719 14.6172 1.10156 14.3984C0.882812 14.1328 0.882812 13.8672 1.10156 13.6016L5.20312 9.5L1.10156 5.39844C0.882812 5.13281 0.882812 4.86719 1.10156 4.60156C1.36719 4.38281 1.63281 4.38281 1.89844 4.60156Z" fill="black" fill-opacity="0.72"/>
</g>
<defs>
<clipPath id="clip0_1731_896">
<rect width="12" height="18" fill="white"/>
</clipPath>
</defs>
</svg>
