<svg width="11" height="18" viewBox="0 0 11 18" fill="none" xmlns="http://www.w3.org/2000/svg">
<g id="label-paired / caption / expand-caption / bold" clip-path="url(#clip0_1731_581)">
<path id="icon" d="M3.4375 4.25C3.78125 4.28125 3.96875 4.46875 4 4.8125C3.96875 5.15625 3.78125 5.34375 3.4375 5.375H1.375V7.4375C1.34375 7.78125 1.15625 7.96875 0.8125 8C0.46875 7.96875 0.28125 7.78125 0.25 7.4375V4.8125C0.28125 4.46875 0.46875 4.28125 0.8125 4.25H3.4375ZM0.25 11.5625C0.28125 11.2188 0.46875 11.0312 0.8125 11C1.15625 11.0312 1.34375 11.2188 1.375 11.5625V13.625H3.4375C3.78125 13.6562 3.96875 13.8438 4 14.1875C3.96875 14.5312 3.78125 14.7188 3.4375 14.75H0.8125C0.46875 14.7188 0.28125 14.5312 0.25 14.1875V11.5625ZM10.1875 4.25C10.5312 4.28125 10.7188 4.46875 10.75 4.8125V7.4375C10.7188 7.78125 10.5312 7.96875 10.1875 8C9.84375 7.96875 9.65625 7.78125 9.625 7.4375V5.375H7.5625C7.21875 5.34375 7.03125 5.15625 7 4.8125C7.03125 4.46875 7.21875 4.28125 7.5625 4.25H10.1875ZM9.625 11.5625C9.65625 11.2188 9.84375 11.0312 10.1875 11C10.5312 11.0312 10.7188 11.2188 10.75 11.5625V14.1875C10.7188 14.5312 10.5312 14.7188 10.1875 14.75H7.5625C7.21875 14.7188 7.03125 14.5312 7 14.1875C7.03125 13.8438 7.21875 13.6562 7.5625 13.625H9.625V11.5625Z" fill="black" fill-opacity="0.72"/>
</g>
<defs>
<clipPath id="clip0_1731_581">
<rect width="11" height="18" fill="white"/>
</clipPath>
</defs>
</svg>
