<svg width="14" height="22" viewBox="0 0 14 22" fill="none" xmlns="http://www.w3.org/2000/svg">
<g id="label-paired / sm / forward-sm / fill" clip-path="url(#clip0_1731_2798)">
<path id="icon" d="M1.44922 15.8086C1.15755 16.0273 0.838542 16.0638 0.492188 15.918C0.182292 15.7539 0.0182292 15.4896 0 15.125V6.375C0.0182292 6.01042 0.182292 5.74609 0.492188 5.58203C0.838542 5.4362 1.15755 5.47266 1.44922 5.69141L6.125 9.60156V10.75V11.8984L1.44922 15.8086ZM7 13.375V10.75V7.25V6.375C7.01823 6.01042 7.18229 5.74609 7.49219 5.58203C7.83854 5.4362 8.15755 5.47266 8.44922 5.69141L13.6992 10.0664C13.8997 10.2487 14 10.4766 14 10.75C14 11.0234 13.8997 11.2513 13.6992 11.4336L8.44922 15.8086C8.15755 16.0273 7.83854 16.0638 7.49219 15.918C7.18229 15.7539 7.01823 15.4896 7 15.125V13.375Z" fill="black" fill-opacity="0.72"/>
</g>
<defs>
<clipPath id="clip0_1731_2798">
<rect width="14" height="22" fill="white"/>
</clipPath>
</defs>
</svg>
