<svg width="18" height="30" viewBox="0 0 18 30" fill="none" xmlns="http://www.w3.org/2000/svg">
<g id="label-paired / lg / arrow-right-to-line-lg / regular" clip-path="url(#clip0_1731_4387)">
<path id="icon" d="M17.75 8.625V22.375C17.724 22.7656 17.5156 22.974 17.125 23C16.7344 22.974 16.526 22.7656 16.5 22.375V8.625C16.526 8.23438 16.7344 8.02604 17.125 8C17.5156 8.02604 17.724 8.23438 17.75 8.625ZM13.8047 15.9297L8.80469 20.9297C8.51823 21.1901 8.23177 21.1901 7.94531 20.9297C7.6849 20.6432 7.6849 20.3568 7.94531 20.0703L11.8516 16.125H7.75H0.875C0.484375 16.099 0.276042 15.8906 0.25 15.5C0.276042 15.1094 0.484375 14.901 0.875 14.875H7.75H11.8516L7.94531 10.9297C7.6849 10.6432 7.6849 10.3568 7.94531 10.0703C8.23177 9.8099 8.51823 9.8099 8.80469 10.0703L13.8047 15.0703C14.0651 15.3568 14.0651 15.6432 13.8047 15.9297Z" fill="black" fill-opacity="0.72"/>
</g>
<defs>
<clipPath id="clip0_1731_4387">
<rect width="18" height="30" fill="white"/>
</clipPath>
</defs>
</svg>
