<svg width="14" height="18" viewBox="0 0 14 18" fill="none" xmlns="http://www.w3.org/2000/svg">
<g id="label-paired / caption / android-caption" clip-path="url(#clip0_1731_13796)">
<path id="icon" d="M10.1172 10.5781C10.4453 10.5469 10.6328 10.3594 10.6797 10.0156C10.6328 9.67188 10.4453 9.48438 10.1172 9.45312C9.77344 9.48438 9.58594 9.67188 9.55469 10.0156C9.58594 10.3594 9.77344 10.5469 10.1172 10.5781ZM3.88281 10.5781C4.22656 10.5469 4.41406 10.3594 4.44531 10.0156C4.41406 9.67188 4.22656 9.48438 3.88281 9.45312C3.55469 9.48438 3.36719 9.67188 3.32031 10.0156C3.36719 10.3594 3.55469 10.5469 3.88281 10.5781ZM10.3047 7.17969C11.2891 7.72656 12.0781 8.46094 12.6719 9.38281C13.2812 10.2891 13.6406 11.3281 13.75 12.5H0.25C0.359375 11.3281 0.71875 10.2891 1.32812 9.38281C1.92188 8.46094 2.71094 7.72656 3.69531 7.17969L2.57031 5.23438C2.52344 5.15625 2.51562 5.07812 2.54688 5C2.59375 4.92188 2.66406 4.88281 2.75781 4.88281C2.85156 4.88281 2.92188 4.92188 2.96875 5L4.11719 6.99219C5.03906 6.57031 6 6.35938 7 6.35938C8 6.35938 8.96094 6.57031 9.88281 6.99219L11.0312 5C11.0781 4.92188 11.1484 4.88281 11.2422 4.88281C11.3359 4.88281 11.4062 4.92188 11.4531 5C11.4844 5.07812 11.4766 5.15625 11.4297 5.23438L10.3047 7.17969Z" fill="black" fill-opacity="0.72"/>
</g>
<defs>
<clipPath id="clip0_1731_13796">
<rect width="14" height="18" fill="white"/>
</clipPath>
</defs>
</svg>
