<svg width="23" height="30" viewBox="0 0 23 30" fill="none" xmlns="http://www.w3.org/2000/svg">
<g id="label-paired / lg / video-lg / bold" clip-path="url(#clip0_1731_5039)">
<path id="icon" d="M2.75 9.875C2.35938 9.90104 2.15104 10.1094 2.125 10.5V20.5C2.15104 20.8906 2.35938 21.099 2.75 21.125H12.75C13.1406 21.099 13.349 20.8906 13.375 20.5V10.5C13.349 10.1094 13.1406 9.90104 12.75 9.875H2.75ZM0.25 10.5C0.276042 9.79688 0.523438 9.21094 0.992188 8.74219C1.46094 8.27344 2.04688 8.02604 2.75 8H12.75C13.4531 8.02604 14.0391 8.27344 14.5078 8.74219C14.9766 9.21094 15.224 9.79688 15.25 10.5V11.7891V19.2109V20.5C15.224 21.2031 14.9766 21.7891 14.5078 22.2578C14.0391 22.7266 13.4531 22.974 12.75 23H2.75C2.04688 22.974 1.46094 22.7266 0.992188 22.2578C0.523438 21.7891 0.276042 21.2031 0.25 20.5V10.5ZM20.875 19.6797V11.3203L16.5 13.2734V11.2031L20.5625 9.40625C20.7708 9.30208 20.9922 9.25 21.2266 9.25C21.6432 9.25 21.9948 9.40625 22.2812 9.71875C22.5938 10.0052 22.75 10.3698 22.75 10.8125V20.2266C22.75 20.6432 22.5938 20.9948 22.2812 21.2812C21.9948 21.5938 21.6432 21.75 21.2266 21.75C20.9922 21.75 20.7708 21.7109 20.5625 21.6328L16.5 19.7969V17.7266L20.875 19.6797Z" fill="black" fill-opacity="0.72"/>
</g>
<defs>
<clipPath id="clip0_1731_5039">
<rect width="23" height="30" fill="white"/>
</clipPath>
</defs>
</svg>
