<svg width="30" height="36" viewBox="0 0 30 36" fill="none" xmlns="http://www.w3.org/2000/svg">
<g id="label-paired / xl / eye-slash-xl / bold" clip-path="url(#clip0_1731_5663)">
<path id="icon" d="M1.82812 6.23438L7.07812 10.3594C8.10938 9.51562 9.28125 8.82812 10.5938 8.29688C11.9375 7.79687 13.4062 7.53125 15 7.5C16.9062 7.53125 18.6094 7.90625 20.1094 8.625C21.6094 9.34375 22.9219 10.2344 24.0469 11.2969C25.1406 12.3281 26.0469 13.3906 26.7656 14.4844C27.4844 15.5781 28.0312 16.5625 28.4062 17.4375C28.5312 17.8125 28.5312 18.1875 28.4062 18.5625C28.0625 19.3438 27.5781 20.2188 26.9531 21.1875C26.3281 22.1875 25.5625 23.1719 24.6562 24.1406L29.5781 27.9844C30.0781 28.4531 30.1406 28.9844 29.7656 29.5781C29.2969 30.0781 28.7656 30.1406 28.1719 29.7656L0.421875 8.01562C-0.078125 7.54688 -0.140625 7.01563 0.234375 6.42188C0.703125 5.92187 1.23438 5.85938 1.82812 6.23438ZM8.90625 11.7656L11.0625 13.4531C12.1562 12.5156 13.4688 12.0312 15 12C16.6875 12.0312 18.1094 12.6094 19.2656 13.7344C20.3906 14.8906 20.9688 16.3125 21 18C21 19 20.7812 19.9219 20.3438 20.7656L22.875 22.7344C23.6562 21.9219 24.3281 21.0938 24.8906 20.25C25.4531 19.4062 25.8906 18.6562 26.2031 18C25.8594 17.2812 25.3906 16.4688 24.7969 15.5625C24.1719 14.6562 23.4062 13.7812 22.5 12.9375C21.5312 12 20.4219 11.25 19.1719 10.6875C17.9219 10.0938 16.5312 9.78125 15 9.75C12.625 9.8125 10.5938 10.4844 8.90625 11.7656ZM18.5156 19.3125C18.6719 18.9062 18.75 18.4688 18.75 18C18.7188 16.9375 18.3594 16.0469 17.6719 15.3281C16.9531 14.6406 16.0625 14.2812 15 14.25C14.9688 14.25 14.9375 14.25 14.9062 14.25C14.9688 14.5 15 14.75 15 15C15 15.4688 14.8906 15.9062 14.6719 16.3125L18.5156 19.3125ZM18.9375 25.4531L20.9062 27C19.2188 27.9375 17.25 28.4375 15 28.5C13.0938 28.4688 11.3906 28.0938 9.89062 27.375C8.39062 26.6562 7.09375 25.7656 6 24.7031C4.875 23.6719 3.95312 22.6094 3.23438 21.5156C2.51562 20.4219 1.98438 19.4375 1.64062 18.5625C1.48438 18.1875 1.48438 17.8125 1.64062 17.4375C2.07812 16.3125 2.82812 15.0312 3.89062 13.5938L5.67188 14.9531C4.82812 16.0781 4.20312 17.0938 3.79688 18C4.14062 18.7188 4.60938 19.5312 5.20312 20.4375C5.82812 21.3438 6.59375 22.2188 7.5 23.0625C8.46875 24 9.57812 24.75 10.8281 25.3125C12.0781 25.9062 13.4688 26.2188 15 26.25C16.4375 26.2188 17.75 25.9531 18.9375 25.4531ZM9 18C9 17.875 9 17.75 9 17.625L11.625 19.6875C12.1562 20.7188 13 21.375 14.1562 21.6562L16.7812 23.7188C16.2188 23.9062 15.625 24 15 24C13.3125 23.9688 11.8906 23.3906 10.7344 22.2656C9.60938 21.1094 9.03125 19.6875 9 18Z" fill="black" fill-opacity="0.72"/>
</g>
<defs>
<clipPath id="clip0_1731_5663">
<rect width="30" height="36" fill="white"/>
</clipPath>
</defs>
</svg>
