<svg width="12" height="18" viewBox="0 0 12 18" fill="none" xmlns="http://www.w3.org/2000/svg">
<g id="label-paired / caption / chevrons-down-caption / regular" clip-path="url(#clip0_1731_899)">
<path id="icon" d="M1.24219 5.25781C1.08594 5.08594 1.08594 4.91406 1.24219 4.74219C1.41406 4.58594 1.58594 4.58594 1.75781 4.74219L6 8.96094L10.2422 4.74219C10.4141 4.58594 10.5859 4.58594 10.7578 4.74219C10.9141 4.91406 10.9141 5.08594 10.7578 5.25781L6.25781 9.75781C6.08594 9.91406 5.91406 9.91406 5.74219 9.75781L1.24219 5.25781ZM1.24219 9.75781C1.08594 9.58594 1.08594 9.41406 1.24219 9.24219C1.41406 9.08594 1.58594 9.08594 1.75781 9.24219L6 13.4609L10.2422 9.24219C10.4141 9.08594 10.5859 9.08594 10.7578 9.24219C10.9141 9.41406 10.9141 9.58594 10.7578 9.75781L6.25781 14.2578C6.08594 14.4141 5.91406 14.4141 5.74219 14.2578L1.24219 9.75781Z" fill="black" fill-opacity="0.72"/>
</g>
<defs>
<clipPath id="clip0_1731_899">
<rect width="12" height="18" fill="white"/>
</clipPath>
</defs>
</svg>
