<svg width="14" height="22" viewBox="0 0 14 22" fill="none" xmlns="http://www.w3.org/2000/svg">
<g id="label-paired / sm / scissors-sm / regular" clip-path="url(#clip0_1731_2709)">
<path id="icon" d="M13.8906 15.8359C13.7083 16.0365 13.5078 16.0547 13.2891 15.8906L9.13281 12.3633C8.93229 12.1628 8.91406 11.9531 9.07812 11.7344C9.26042 11.5521 9.46094 11.543 9.67969 11.707L13.8359 15.2344C14.0365 15.4167 14.0547 15.6172 13.8906 15.8359ZM7.84766 10.1758L13.2891 5.60938C13.5078 5.44531 13.7083 5.46354 13.8906 5.66406C14.0547 5.88281 14.0365 6.08333 13.8359 6.26562L5.71484 13.1289C5.98828 13.5846 6.125 14.1042 6.125 14.6875C6.10677 15.5625 5.80599 16.2826 5.22266 16.8477C4.65755 17.431 3.9375 17.7318 3.0625 17.75C2.1875 17.7318 1.46745 17.431 0.902344 16.8477C0.31901 16.2826 0.0182292 15.5625 0 14.6875C0.0182292 13.8125 0.31901 13.0924 0.902344 12.5273C1.46745 11.944 2.1875 11.6432 3.0625 11.625C3.88281 11.6432 4.57552 11.9167 5.14062 12.4453L7.16406 10.75L5.14062 9.05469C4.57552 9.58333 3.88281 9.85677 3.0625 9.875C2.1875 9.85677 1.46745 9.55599 0.902344 8.97266C0.31901 8.40755 0.0182292 7.6875 0 6.8125C0.0182292 5.9375 0.31901 5.21745 0.902344 4.65234C1.46745 4.06901 2.1875 3.76823 3.0625 3.75C3.9375 3.76823 4.65755 4.06901 5.22266 4.65234C5.80599 5.21745 6.10677 5.9375 6.125 6.8125C6.125 7.39583 5.98828 7.91536 5.71484 8.37109L7.84766 10.1758ZM3.0625 9C3.88281 8.98177 4.51172 8.61719 4.94922 7.90625C5.35026 7.17708 5.35026 6.44792 4.94922 5.71875C4.51172 5.00781 3.88281 4.64323 3.0625 4.625C2.24219 4.64323 1.61328 5.00781 1.17578 5.71875C0.77474 6.44792 0.77474 7.17708 1.17578 7.90625C1.61328 8.61719 2.24219 8.98177 3.0625 9ZM3.0625 12.5C2.24219 12.5182 1.61328 12.8828 1.17578 13.5938C0.77474 14.3229 0.77474 15.0521 1.17578 15.7812C1.61328 16.4922 2.24219 16.8568 3.0625 16.875C3.88281 16.8568 4.51172 16.4922 4.94922 15.7812C5.35026 15.0521 5.35026 14.3229 4.94922 13.5938C4.51172 12.8828 3.88281 12.5182 3.0625 12.5Z" fill="black" fill-opacity="0.72"/>
</g>
<defs>
<clipPath id="clip0_1731_2709">
<rect width="14" height="22" fill="white"/>
</clipPath>
</defs>
</svg>
