<svg width="20" height="24" viewBox="0 0 20 24" fill="none" xmlns="http://www.w3.org/2000/svg">
<g id="label-paired / md / eye-slash-md / bold" clip-path="url(#clip0_1731_3147)">
<path id="icon" d="M1.21875 4.15625L4.71875 6.90625C5.40625 6.34375 6.1875 5.88542 7.0625 5.53125C7.95833 5.19792 8.9375 5.02083 10 5C11.2708 5.02083 12.4062 5.27083 13.4062 5.75C14.4062 6.22917 15.2812 6.82292 16.0312 7.53125C16.7604 8.21875 17.3646 8.92708 17.8438 9.65625C18.3229 10.3854 18.6875 11.0417 18.9375 11.625C19.0208 11.875 19.0208 12.125 18.9375 12.375C18.7083 12.8958 18.3854 13.4792 17.9688 14.125C17.5521 14.7917 17.0417 15.4479 16.4375 16.0938L19.7188 18.6562C20.0521 18.9688 20.0938 19.3229 19.8438 19.7188C19.5312 20.0521 19.1771 20.0938 18.7812 19.8438L0.28125 5.34375C-0.0520833 5.03125 -0.09375 4.67708 0.15625 4.28125C0.46875 3.94792 0.822917 3.90625 1.21875 4.15625ZM5.9375 7.84375L7.375 8.96875C8.10417 8.34375 8.97917 8.02083 10 8C11.125 8.02083 12.0729 8.40625 12.8438 9.15625C13.5938 9.92708 13.9792 10.875 14 12C14 12.6667 13.8542 13.2812 13.5625 13.8438L15.25 15.1562C15.7708 14.6146 16.2188 14.0625 16.5938 13.5C16.9688 12.9375 17.2604 12.4375 17.4688 12C17.2396 11.5208 16.9271 10.9792 16.5312 10.375C16.1146 9.77083 15.6042 9.1875 15 8.625C14.3542 8 13.6146 7.5 12.7812 7.125C11.9479 6.72917 11.0208 6.52083 10 6.5C8.41667 6.54167 7.0625 6.98958 5.9375 7.84375ZM12.3438 12.875C12.4479 12.6042 12.5 12.3125 12.5 12C12.4792 11.2917 12.2396 10.6979 11.7812 10.2188C11.3021 9.76042 10.7083 9.52083 10 9.5C9.97917 9.5 9.95833 9.5 9.9375 9.5C9.97917 9.66667 10 9.83333 10 10C10 10.3125 9.92708 10.6042 9.78125 10.875L12.3438 12.875ZM12.625 16.9688L13.9375 18C12.8125 18.625 11.5 18.9583 10 19C8.72917 18.9792 7.59375 18.7292 6.59375 18.25C5.59375 17.7708 4.72917 17.1771 4 16.4688C3.25 15.7812 2.63542 15.0729 2.15625 14.3438C1.67708 13.6146 1.32292 12.9583 1.09375 12.375C0.989583 12.125 0.989583 11.875 1.09375 11.625C1.38542 10.875 1.88542 10.0208 2.59375 9.0625L3.78125 9.96875C3.21875 10.7188 2.80208 11.3958 2.53125 12C2.76042 12.4792 3.07292 13.0208 3.46875 13.625C3.88542 14.2292 4.39583 14.8125 5 15.375C5.64583 16 6.38542 16.5 7.21875 16.875C8.05208 17.2708 8.97917 17.4792 10 17.5C10.9583 17.4792 11.8333 17.3021 12.625 16.9688ZM6 12C6 11.9167 6 11.8333 6 11.75L7.75 13.125C8.10417 13.8125 8.66667 14.25 9.4375 14.4375L11.1875 15.8125C10.8125 15.9375 10.4167 16 10 16C8.875 15.9792 7.92708 15.5938 7.15625 14.8438C6.40625 14.0729 6.02083 13.125 6 12Z" fill="black" fill-opacity="0.72"/>
</g>
<defs>
<clipPath id="clip0_1731_3147">
<rect width="20" height="24" fill="white"/>
</clipPath>
</defs>
</svg>
