<svg width="24" height="36" viewBox="0 0 24 36" fill="none" xmlns="http://www.w3.org/2000/svg">
<g id="label-paired / xl / arrow-up-right-from-square-xl / regular" clip-path="url(#clip0_1731_5696)">
<path id="icon" d="M15.75 6H23.25C23.7188 6.03125 23.9688 6.28125 24 6.75V14.25C23.9688 14.7188 23.7188 14.9688 23.25 15C22.7812 14.9688 22.5312 14.7188 22.5 14.25V8.57812L11.0156 20.0156C10.6719 20.3281 10.3281 20.3281 9.98438 20.0156C9.67188 19.6719 9.67188 19.3281 9.98438 18.9844L21.4219 7.5H15.75C15.2812 7.46875 15.0312 7.21875 15 6.75C15.0312 6.28125 15.2812 6.03125 15.75 6ZM3 7.5H9.75C10.2188 7.53125 10.4688 7.78125 10.5 8.25C10.4688 8.71875 10.2188 8.96875 9.75 9H3C2.5625 9 2.20312 9.14062 1.92188 9.42188C1.64062 9.70312 1.5 10.0625 1.5 10.5V27C1.5 27.4375 1.64062 27.7969 1.92188 28.0781C2.20312 28.3594 2.5625 28.5 3 28.5H19.5C19.9375 28.5 20.2969 28.3594 20.5781 28.0781C20.8594 27.7969 21 27.4375 21 27V20.25C21.0312 19.7812 21.2812 19.5312 21.75 19.5C22.2188 19.5312 22.4688 19.7812 22.5 20.25V27C22.4688 27.8438 22.1719 28.5469 21.6094 29.1094C21.0469 29.6719 20.3438 29.9688 19.5 30H3C2.15625 29.9688 1.45312 29.6719 0.890625 29.1094C0.328125 28.5469 0.03125 27.8438 0 27V10.5C0.03125 9.65625 0.328125 8.95312 0.890625 8.39062C1.45312 7.82812 2.15625 7.53125 3 7.5Z" fill="black" fill-opacity="0.72"/>
</g>
<defs>
<clipPath id="clip0_1731_5696">
<rect width="24" height="36" fill="white"/>
</clipPath>
</defs>
</svg>
