<svg width="16" height="24" viewBox="0 0 16 24" fill="none" xmlns="http://www.w3.org/2000/svg">
<g id="label-paired / md / chevrons-up-md / regular" clip-path="url(#clip0_1731_3405)">
<path id="icon" d="M8.34375 5.65625L14.3438 11.6562C14.5521 11.8854 14.5521 12.1146 14.3438 12.3438C14.1146 12.5521 13.8854 12.5521 13.6562 12.3438L8 6.71875L2.34375 12.3438C2.11458 12.5521 1.88542 12.5521 1.65625 12.3438C1.44792 12.1146 1.44792 11.8854 1.65625 11.6562L7.65625 5.65625C7.88542 5.44792 8.11458 5.44792 8.34375 5.65625ZM14.3438 17.6562C14.5521 17.8854 14.5521 18.1146 14.3438 18.3438C14.1146 18.5521 13.8854 18.5521 13.6562 18.3438L8 12.7188L2.34375 18.3438C2.11458 18.5521 1.88542 18.5521 1.65625 18.3438C1.44792 18.1146 1.44792 17.8854 1.65625 17.6562L7.65625 11.6562C7.88542 11.4479 8.11458 11.4479 8.34375 11.6562L14.3438 17.6562Z" fill="black" fill-opacity="0.72"/>
</g>
<defs>
<clipPath id="clip0_1731_3405">
<rect width="16" height="24" fill="white"/>
</clipPath>
</defs>
</svg>
