<svg width="12" height="24" viewBox="0 0 12 24" fill="none" xmlns="http://www.w3.org/2000/svg">
<g id="label-paired / md / arrow-down-to-line-md / regular" clip-path="url(#clip0_1731_3435)">
<path id="icon" d="M0.5 19C0.1875 18.9792 0.0208333 18.8125 0 18.5C0.0208333 18.1875 0.1875 18.0208 0.5 18H11.5C11.8125 18.0208 11.9792 18.1875 12 18.5C11.9792 18.8125 11.8125 18.9792 11.5 19H0.5ZM6.34375 15.8438C6.11458 16.0521 5.88542 16.0521 5.65625 15.8438L1.65625 11.8438C1.44792 11.6146 1.44792 11.3854 1.65625 11.1562C1.88542 10.9479 2.11458 10.9479 2.34375 11.1562L5.5 14.2812V11V5.5C5.52083 5.1875 5.6875 5.02083 6 5C6.3125 5.02083 6.47917 5.1875 6.5 5.5V11V14.2812L9.65625 11.1562C9.88542 10.9479 10.1146 10.9479 10.3438 11.1562C10.5521 11.3854 10.5521 11.6146 10.3438 11.8438L6.34375 15.8438Z" fill="black" fill-opacity="0.72"/>
</g>
<defs>
<clipPath id="clip0_1731_3435">
<rect width="12" height="24" fill="white"/>
</clipPath>
</defs>
</svg>
