<svg width="15" height="18" viewBox="0 0 15 18" fill="none" xmlns="http://www.w3.org/2000/svg">
<g id="label-paired / caption / deal-cancellation-caption / bold" clip-path="url(#clip0_1731_766)">
<path id="icon" d="M1.89844 6.35938H4.26562C4.6875 6.35938 5.0625 6.42969 5.39062 6.57031C5.74219 6.6875 6.02344 6.89844 6.28125 7.15625C6.51562 7.41406 6.70312 7.74219 6.82031 8.14062C6.96094 8.53906 7.03125 8.98438 7.03125 9.5C7.03125 10.0391 6.96094 10.4844 6.82031 10.8828C6.70312 11.2812 6.51562 11.6094 6.28125 11.8672C6.02344 12.125 5.74219 12.3125 5.39062 12.4531C5.0625 12.5938 4.6875 12.6641 4.26562 12.6641H1.89844V6.35938ZM4.26562 11.4453C4.66406 11.4453 4.99219 11.3281 5.22656 11.0938C5.46094 10.8594 5.57812 10.5078 5.57812 9.99219V9.03125C5.57812 8.51562 5.46094 8.16406 5.22656 7.92969C4.99219 7.69531 4.66406 7.57812 4.26562 7.57812H3.25781V11.4453H4.26562ZM10.7109 12.7578C10.2891 12.7578 9.89062 12.6875 9.5625 12.5703C9.21094 12.4297 8.92969 12.2188 8.69531 11.9609C8.4375 11.6797 8.25 11.3516 8.13281 10.9531C7.99219 10.5547 7.92188 10.0859 7.92188 9.54688C7.92188 9.03125 7.99219 8.5625 8.13281 8.16406C8.25 7.74219 8.4375 7.39062 8.69531 7.10938C8.92969 6.82812 9.21094 6.61719 9.5625 6.47656C9.89062 6.33594 10.2891 6.26562 10.7109 6.26562C11.2969 6.26562 11.7656 6.38281 12.1406 6.61719C12.5391 6.85156 12.8438 7.22656 13.0547 7.74219L11.8828 8.35156C11.7891 8.09375 11.6719 7.88281 11.4844 7.71875C11.3203 7.55469 11.0625 7.48438 10.7109 7.48438C10.3125 7.48438 9.98438 7.60156 9.75 7.88281C9.49219 8.14062 9.375 8.51562 9.375 9.00781V10.0156C9.375 10.5078 9.49219 10.8828 9.75 11.1641C9.98438 11.4219 10.3125 11.5391 10.7109 11.5391C11.0391 11.5391 11.3203 11.4453 11.5078 11.2812C11.7188 11.0938 11.8594 10.8594 11.9531 10.6016L13.0781 11.2578C12.8438 11.7266 12.5391 12.1016 12.1406 12.3828C11.7656 12.6406 11.2969 12.7578 10.7109 12.7578Z" fill="black" fill-opacity="0.72"/>
</g>
<defs>
<clipPath id="clip0_1731_766">
<rect width="15" height="18" fill="white"/>
</clipPath>
</defs>
</svg>
