<svg width="24" height="36" viewBox="0 0 24 36" fill="none" xmlns="http://www.w3.org/2000/svg">
<g id="label-paired / xl / forward-xl / regular" clip-path="url(#clip0_1731_6568)">
<path id="icon" d="M22.2188 18L12 10.5938V25.4062L22.2188 18ZM11.9062 9C12.2188 9 12.5 9.09375 12.75 9.28125L23.5312 17.1094C23.8438 17.3281 24 17.625 24 18C24 18.375 23.8438 18.6719 23.5312 18.8906L12.75 26.7188C12.5 26.9062 12.2188 27 11.9062 27C11.5 27 11.1719 26.8594 10.9219 26.5781C10.6406 26.3281 10.5 26 10.5 25.5938V20.7656L2.25 26.7188C2 26.9062 1.71875 27 1.40625 27C1 27 0.671875 26.8594 0.421875 26.5781C0.140625 26.3281 0 26 0 25.5938V10.4062C0 10 0.140625 9.67188 0.421875 9.42188C0.671875 9.14062 1 9 1.40625 9C1.71875 9 2 9.09375 2.25 9.28125L10.5 15.2344V10.4062C10.5 10 10.6406 9.67188 10.9219 9.42188C11.1719 9.14062 11.5 9 11.9062 9ZM10.5 18.8906V17.1094L1.5 10.5938V25.4062L10.5 18.8906Z" fill="black" fill-opacity="0.72"/>
</g>
<defs>
<clipPath id="clip0_1731_6568">
<rect width="24" height="36" fill="white"/>
</clipPath>
</defs>
</svg>
