<svg width="25" height="30" viewBox="0 0 25 30" fill="none" xmlns="http://www.w3.org/2000/svg">
<g id="label-paired / lg / horizontal-rule-dashed-lg / bold" clip-path="url(#clip0_1731_4971)">
<path id="icon" d="M0 15.5C0 14.9922 0.390625 14.5625 0.9375 14.5625H3.4375C3.94531 14.5625 4.375 14.9922 4.375 15.5C4.375 16.0469 3.94531 16.4375 3.4375 16.4375H0.9375C0.390625 16.4375 0 16.0469 0 15.5ZM6.875 15.5C6.875 14.9922 7.26562 14.5625 7.8125 14.5625H10.3125C10.8203 14.5625 11.25 14.9922 11.25 15.5C11.25 16.0469 10.8203 16.4375 10.3125 16.4375H7.8125C7.26562 16.4375 6.875 16.0469 6.875 15.5ZM13.75 15.5C13.75 14.9922 14.1406 14.5625 14.6875 14.5625H17.1875C17.6953 14.5625 18.125 14.9922 18.125 15.5C18.125 16.0469 17.6953 16.4375 17.1875 16.4375H14.6875C14.1406 16.4375 13.75 16.0469 13.75 15.5ZM20.625 15.5C20.625 14.9922 21.0156 14.5625 21.5625 14.5625H24.0625C24.5703 14.5625 25 14.9922 25 15.5C25 16.0469 24.5703 16.4375 24.0625 16.4375H21.5625C21.0156 16.4375 20.625 16.0469 20.625 15.5Z" fill="black" fill-opacity="0.72"/>
</g>
<defs>
<clipPath id="clip0_1731_4971">
<rect width="25" height="30" fill="white"/>
</clipPath>
</defs>
</svg>
