<svg width="24" height="36" viewBox="0 0 24 36" fill="none" xmlns="http://www.w3.org/2000/svg">
<g id="label-paired / xl / circle-caret-up-xl / regular" clip-path="url(#clip0_1731_6678)">
<path id="icon" d="M12 7.5C10.0938 7.53125 8.34375 8 6.75 8.90625C5.15625 9.84375 3.875 11.125 2.90625 12.75C1.96875 14.4062 1.5 16.1562 1.5 18C1.5 19.8438 1.96875 21.5938 2.90625 23.25C3.875 24.875 5.15625 26.1562 6.75 27.0938C8.34375 28 10.0938 28.4688 12 28.5C13.9062 28.4688 15.6562 28 17.25 27.0938C18.8438 26.1562 20.125 24.875 21.0938 23.25C22.0312 21.5938 22.5 19.8438 22.5 18C22.5 16.1562 22.0312 14.4062 21.0938 12.75C20.125 11.125 18.8438 9.84375 17.25 8.90625C15.6562 8 13.9062 7.53125 12 7.5ZM12 30C9.8125 29.9688 7.8125 29.4375 6 28.4062C4.1875 27.3438 2.71875 25.875 1.59375 24C0.53125 22.0938 0 20.0938 0 18C0 15.9062 0.53125 13.9062 1.59375 12C2.71875 10.125 4.1875 8.65625 6 7.59375C7.8125 6.5625 9.8125 6.03125 12 6C14.1875 6.03125 16.1875 6.5625 18 7.59375C19.8125 8.65625 21.2812 10.125 22.4062 12C23.4688 13.9062 24 15.9062 24 18C24 20.0938 23.4688 22.0938 22.4062 24C21.2812 25.875 19.8125 27.3438 18 28.4062C16.1875 29.4375 14.1875 29.9688 12 30ZM12 13.5C12.4688 13.5 12.8594 13.6719 13.1719 14.0156L17.6719 18.8438C17.8906 19.0938 18 19.3906 18 19.7344C18 20.0781 17.875 20.375 17.625 20.625C17.375 20.875 17.0781 21 16.7344 21H7.3125C6.9375 21 6.625 20.875 6.375 20.625C6.125 20.375 6 20.0781 6 19.7344C6 19.3906 6.10938 19.0938 6.32812 18.8438L10.8281 14.0156C11.1406 13.6719 11.5312 13.5 12 13.5ZM11.9062 15.0469L7.78125 19.5H16.2188L12.0938 15.0469C12.0625 15.0156 12.0312 15 12 15C11.9688 15 11.9375 15.0156 11.9062 15.0469Z" fill="black" fill-opacity="0.72"/>
</g>
<defs>
<clipPath id="clip0_1731_6678">
<rect width="24" height="36" fill="white"/>
</clipPath>
</defs>
</svg>
