<svg width="11" height="18" viewBox="0 0 11 18" fill="none" xmlns="http://www.w3.org/2000/svg">
<g id="label-paired / caption / arrow-left-to-line-caption / bold" clip-path="url(#clip0_1731_926)">
<path id="icon" d="M0.25 13.4375V5.5625C0.28125 5.21875 0.46875 5.03125 0.8125 5C1.15625 5.03125 1.34375 5.21875 1.375 5.5625V13.4375C1.34375 13.7812 1.15625 13.9688 0.8125 14C0.46875 13.9688 0.28125 13.7812 0.25 13.4375ZM3.4375 9.10156L6.625 6.10156C6.89062 5.88281 7.14844 5.89062 7.39844 6.125C7.61719 6.39062 7.60938 6.65625 7.375 6.92188L5.24219 8.9375H7.1875H10.1875C10.5312 8.96875 10.7188 9.15625 10.75 9.5C10.7188 9.84375 10.5312 10.0312 10.1875 10.0625H7.1875H5.24219L7.39844 12.1016C7.61719 12.3516 7.625 12.6172 7.42188 12.8984C7.15625 13.1172 6.89062 13.125 6.625 12.9219L3.4375 9.92188C3.3125 9.79688 3.25 9.65625 3.25 9.5C3.25 9.34375 3.3125 9.21094 3.4375 9.10156Z" fill="black" fill-opacity="0.72"/>
</g>
<defs>
<clipPath id="clip0_1731_926">
<rect width="11" height="18" fill="white"/>
</clipPath>
</defs>
</svg>
