<svg width="14" height="22" viewBox="0 0 14 22" fill="none" xmlns="http://www.w3.org/2000/svg">
<g id="label-paired / sm / circle-trash-sm / bold" clip-path="url(#clip0_1731_1834)">
<path id="icon" d="M12.6875 10.75C12.6875 9.71094 12.4323 8.76302 11.9219 7.90625C11.4297 7.04948 10.737 6.35677 9.84375 5.82812C8.95052 5.31771 8.0026 5.0625 7 5.0625C5.9974 5.0625 5.04948 5.31771 4.15625 5.82812C3.26302 6.35677 2.57031 7.04948 2.07812 7.90625C1.56771 8.76302 1.3125 9.71094 1.3125 10.75C1.3125 11.7891 1.56771 12.737 2.07812 13.5938C2.57031 14.4505 3.26302 15.1432 4.15625 15.6719C5.04948 16.1823 5.9974 16.4375 7 16.4375C8.0026 16.4375 8.95052 16.1823 9.84375 15.6719C10.737 15.1432 11.4297 14.4505 11.9219 13.5938C12.4323 12.737 12.6875 11.7891 12.6875 10.75ZM0 10.75C0.0182292 9.47396 0.328125 8.30729 0.929688 7.25C1.54948 6.19271 2.40625 5.33594 3.5 4.67969C4.61198 4.0599 5.77865 3.75 7 3.75C8.22135 3.75 9.38802 4.0599 10.5 4.67969C11.5938 5.33594 12.4505 6.19271 13.0703 7.25C13.6719 8.30729 13.9818 9.47396 14 10.75C13.9818 12.026 13.6719 13.1927 13.0703 14.25C12.4505 15.3073 11.5938 16.1641 10.5 16.8203C9.38802 17.4401 8.22135 17.75 7 17.75C5.77865 17.75 4.61198 17.4401 3.5 16.8203C2.40625 16.1641 1.54948 15.3073 0.929688 14.25C0.328125 13.1927 0.0182292 12.026 0 10.75ZM4.375 7.25H5.49609L5.82422 6.94922C5.89714 6.85807 5.9974 6.8125 6.125 6.8125H7.875C8.0026 6.8125 8.10286 6.85807 8.17578 6.94922L8.50391 7.25H9.625C9.89844 7.26823 10.0443 7.41406 10.0625 7.6875C10.0443 7.96094 9.89844 8.10677 9.625 8.125H4.375C4.10156 8.10677 3.95573 7.96094 3.9375 7.6875C3.95573 7.41406 4.10156 7.26823 4.375 7.25ZM4.375 9H9.625L9.24219 13.457C9.16927 13.9492 8.88672 14.2135 8.39453 14.25H5.60547C5.38672 14.25 5.19531 14.1771 5.03125 14.0312C4.86719 13.8672 4.77604 13.6758 4.75781 13.457L4.375 9Z" fill="black" fill-opacity="0.72"/>
</g>
<defs>
<clipPath id="clip0_1731_1834">
<rect width="14" height="22" fill="white"/>
</clipPath>
</defs>
</svg>
