<svg width="18" height="22" viewBox="0 0 18 22" fill="none" xmlns="http://www.w3.org/2000/svg">
<g id="label-paired / sm / signal-sm / regular" clip-path="url(#clip0_1731_2611)">
<path id="icon" d="M16.4375 4.1875V17.3125C16.4193 17.5859 16.2734 17.7318 16 17.75C15.7266 17.7318 15.5807 17.5859 15.5625 17.3125V4.1875C15.5807 3.91406 15.7266 3.76823 16 3.75C16.2734 3.76823 16.4193 3.91406 16.4375 4.1875ZM12.5 6.375C12.7734 6.39323 12.9193 6.53906 12.9375 6.8125V17.3125C12.9193 17.5859 12.7734 17.7318 12.5 17.75C12.2266 17.7318 12.0807 17.5859 12.0625 17.3125V6.8125C12.0807 6.53906 12.2266 6.39323 12.5 6.375ZM9.4375 9.4375V17.3125C9.41927 17.5859 9.27344 17.7318 9 17.75C8.72656 17.7318 8.58073 17.5859 8.5625 17.3125V9.4375C8.58073 9.16406 8.72656 9.01823 9 9C9.27344 9.01823 9.41927 9.16406 9.4375 9.4375ZM5.5 11.625C5.77344 11.6432 5.91927 11.7891 5.9375 12.0625V17.3125C5.91927 17.5859 5.77344 17.7318 5.5 17.75C5.22656 17.7318 5.08073 17.5859 5.0625 17.3125V12.0625C5.08073 11.7891 5.22656 11.6432 5.5 11.625ZM2 14.25C2.27344 14.2682 2.41927 14.4141 2.4375 14.6875V17.3125C2.41927 17.5859 2.27344 17.7318 2 17.75C1.72656 17.7318 1.58073 17.5859 1.5625 17.3125V14.6875C1.58073 14.4141 1.72656 14.2682 2 14.25Z" fill="black" fill-opacity="0.72"/>
</g>
<defs>
<clipPath id="clip0_1731_2611">
<rect width="18" height="22" fill="white"/>
</clipPath>
</defs>
</svg>
