<svg width="13" height="30" viewBox="0 0 13 30" fill="none" xmlns="http://www.w3.org/2000/svg">
<g id="label-paired / lg / zero-lg / bold" clip-path="url(#clip0_1731_4515)">
<path id="icon" d="M0.25 13C0.302083 11.2292 0.914062 9.75781 2.08594 8.58594C3.25781 7.41406 4.72917 6.80208 6.5 6.75C8.27083 6.80208 9.74219 7.41406 10.9141 8.58594C12.0859 9.75781 12.6979 11.2292 12.75 13V18C12.6979 19.7708 12.0859 21.2422 10.9141 22.4141C9.74219 23.5859 8.27083 24.1979 6.5 24.25C4.72917 24.1979 3.25781 23.5859 2.08594 22.4141C0.914062 21.2422 0.302083 19.7708 0.25 18V13ZM6.5 8.625C5.25 8.65104 4.22135 9.08073 3.41406 9.91406C2.58073 10.7214 2.15104 11.75 2.125 13V18C2.15104 19.25 2.58073 20.2786 3.41406 21.0859C4.22135 21.9193 5.25 22.349 6.5 22.375C7.75 22.349 8.77865 21.9193 9.58594 21.0859C10.4193 20.2786 10.849 19.25 10.875 18V13C10.849 11.75 10.4193 10.7214 9.58594 9.91406C8.77865 9.08073 7.75 8.65104 6.5 8.625Z" fill="black" fill-opacity="0.72"/>
</g>
<defs>
<clipPath id="clip0_1731_4515">
<rect width="13" height="30" fill="white"/>
</clipPath>
</defs>
</svg>
