<svg width="15" height="30" viewBox="0 0 15 30" fill="none" xmlns="http://www.w3.org/2000/svg">
<g id="label-paired / lg / microphone-lg / regular" clip-path="url(#clip0_1731_5042)">
<path id="icon" d="M10 9.25C9.97396 8.54688 9.72656 7.96094 9.25781 7.49219C8.78906 7.02344 8.20312 6.77604 7.5 6.75C6.79688 6.77604 6.21094 7.02344 5.74219 7.49219C5.27344 7.96094 5.02604 8.54688 5 9.25V15.5C5.02604 16.2031 5.27344 16.7891 5.74219 17.2578C6.21094 17.7266 6.79688 17.974 7.5 18C8.20312 17.974 8.78906 17.7266 9.25781 17.2578C9.72656 16.7891 9.97396 16.2031 10 15.5V9.25ZM3.75 9.25C3.77604 8.18229 4.14062 7.29688 4.84375 6.59375C5.54688 5.89062 6.43229 5.52604 7.5 5.5C8.56771 5.52604 9.45312 5.89062 10.1562 6.59375C10.8594 7.29688 11.224 8.18229 11.25 9.25V15.5C11.224 16.5677 10.8594 17.4531 10.1562 18.1562C9.45312 18.8594 8.56771 19.224 7.5 19.25C6.43229 19.224 5.54688 18.8594 4.84375 18.1562C4.14062 17.4531 3.77604 16.5677 3.75 15.5V9.25ZM2.5 13.625V15.5C2.52604 16.9062 3.00781 18.0911 3.94531 19.0547C4.90885 19.9922 6.09375 20.474 7.5 20.5C8.90625 20.474 10.0911 19.9922 11.0547 19.0547C11.9922 18.0911 12.474 16.9062 12.5 15.5V13.625C12.526 13.2344 12.7344 13.026 13.125 13C13.5156 13.026 13.724 13.2344 13.75 13.625V15.5C13.724 17.1667 13.1771 18.5729 12.1094 19.7188C11.0677 20.8646 9.73958 21.5286 8.125 21.7109V24.25H10.625C11.0156 24.276 11.224 24.4844 11.25 24.875C11.224 25.2656 11.0156 25.474 10.625 25.5H7.5H4.375C3.98438 25.474 3.77604 25.2656 3.75 24.875C3.77604 24.4844 3.98438 24.276 4.375 24.25H6.875V21.7109C5.26042 21.5286 3.93229 20.8646 2.89062 19.7188C1.82292 18.5729 1.27604 17.1667 1.25 15.5V13.625C1.27604 13.2344 1.48438 13.026 1.875 13C2.26562 13.026 2.47396 13.2344 2.5 13.625Z" fill="black" fill-opacity="0.72"/>
</g>
<defs>
<clipPath id="clip0_1731_5042">
<rect width="15" height="30" fill="white"/>
</clipPath>
</defs>
</svg>
