<svg width="18" height="30" viewBox="0 0 18 30" fill="none" xmlns="http://www.w3.org/2000/svg">
<g id="label-paired / lg / expand-lg / regular" clip-path="url(#clip0_1731_5309)">
<path id="icon" d="M5.875 6.75C6.26562 6.77604 6.47396 6.98438 6.5 7.375C6.47396 7.76562 6.26562 7.97396 5.875 8H1.5V12.375C1.47396 12.7656 1.26562 12.974 0.875 13C0.484375 12.974 0.276042 12.7656 0.25 12.375V7.375C0.276042 6.98438 0.484375 6.77604 0.875 6.75H5.875ZM0.25 18.625C0.276042 18.2344 0.484375 18.026 0.875 18C1.26562 18.026 1.47396 18.2344 1.5 18.625V23H5.875C6.26562 23.026 6.47396 23.2344 6.5 23.625C6.47396 24.0156 6.26562 24.224 5.875 24.25H0.875C0.484375 24.224 0.276042 24.0156 0.25 23.625V18.625ZM17.125 6.75C17.5156 6.77604 17.724 6.98438 17.75 7.375V12.375C17.724 12.7656 17.5156 12.974 17.125 13C16.7344 12.974 16.526 12.7656 16.5 12.375V8H12.125C11.7344 7.97396 11.526 7.76562 11.5 7.375C11.526 6.98438 11.7344 6.77604 12.125 6.75H17.125ZM16.5 18.625C16.526 18.2344 16.7344 18.026 17.125 18C17.5156 18.026 17.724 18.2344 17.75 18.625V23.625C17.724 24.0156 17.5156 24.224 17.125 24.25H12.125C11.7344 24.224 11.526 24.0156 11.5 23.625C11.526 23.2344 11.7344 23.026 12.125 23H16.5V18.625Z" fill="black" fill-opacity="0.72"/>
</g>
<defs>
<clipPath id="clip0_1731_5309">
<rect width="18" height="30" fill="white"/>
</clipPath>
</defs>
</svg>
