<svg width="18" height="24" viewBox="0 0 18 24" fill="none" xmlns="http://www.w3.org/2000/svg">
<g id="label-paired / md / keyboard-md / regular" clip-path="url(#clip0_1731_3920)">
<path id="icon" d="M2 7C1.70833 7 1.46875 7.09375 1.28125 7.28125C1.09375 7.46875 1 7.70833 1 8V16C1 16.2917 1.09375 16.5312 1.28125 16.7188C1.46875 16.9062 1.70833 17 2 17H16C16.2917 17 16.5312 16.9062 16.7188 16.7188C16.9062 16.5312 17 16.2917 17 16V8C17 7.70833 16.9062 7.46875 16.7188 7.28125C16.5312 7.09375 16.2917 7 16 7H2ZM0 8C0.0208333 7.4375 0.21875 6.96875 0.59375 6.59375C0.96875 6.21875 1.4375 6.02083 2 6H16C16.5625 6.02083 17.0312 6.21875 17.4062 6.59375C17.7812 6.96875 17.9792 7.4375 18 8V16C17.9792 16.5625 17.7812 17.0312 17.4062 17.4062C17.0312 17.7812 16.5625 17.9792 16 18H2C1.4375 17.9792 0.96875 17.7812 0.59375 17.4062C0.21875 17.0312 0.0208333 16.5625 0 16V8ZM2.75 8.25H3.25C3.5625 8.27083 3.72917 8.4375 3.75 8.75V9.25C3.72917 9.5625 3.5625 9.72917 3.25 9.75H2.75C2.4375 9.72917 2.27083 9.5625 2.25 9.25V8.75C2.27083 8.4375 2.4375 8.27083 2.75 8.25ZM2.25 11.75C2.27083 11.4375 2.4375 11.2708 2.75 11.25H3.25C3.5625 11.2708 3.72917 11.4375 3.75 11.75V12.25C3.72917 12.5625 3.5625 12.7292 3.25 12.75H2.75C2.4375 12.7292 2.27083 12.5625 2.25 12.25V11.75ZM2.75 14.25H3.25C3.5625 14.2708 3.72917 14.4375 3.75 14.75V15.25C3.72917 15.5625 3.5625 15.7292 3.25 15.75H2.75C2.4375 15.7292 2.27083 15.5625 2.25 15.25V14.75C2.27083 14.4375 2.4375 14.2708 2.75 14.25ZM5.25 8.75C5.27083 8.4375 5.4375 8.27083 5.75 8.25H6.25C6.5625 8.27083 6.72917 8.4375 6.75 8.75V9.25C6.72917 9.5625 6.5625 9.72917 6.25 9.75H5.75C5.4375 9.72917 5.27083 9.5625 5.25 9.25V8.75ZM5.75 11.25H6.25C6.5625 11.2708 6.72917 11.4375 6.75 11.75V12.25C6.72917 12.5625 6.5625 12.7292 6.25 12.75H5.75C5.4375 12.7292 5.27083 12.5625 5.25 12.25V11.75C5.27083 11.4375 5.4375 11.2708 5.75 11.25ZM8.25 8.75C8.27083 8.4375 8.4375 8.27083 8.75 8.25H9.25C9.5625 8.27083 9.72917 8.4375 9.75 8.75V9.25C9.72917 9.5625 9.5625 9.72917 9.25 9.75H8.75C8.4375 9.72917 8.27083 9.5625 8.25 9.25V8.75ZM8.75 11.25H9.25C9.5625 11.2708 9.72917 11.4375 9.75 11.75V12.25C9.72917 12.5625 9.5625 12.7292 9.25 12.75H8.75C8.4375 12.7292 8.27083 12.5625 8.25 12.25V11.75C8.27083 11.4375 8.4375 11.2708 8.75 11.25ZM11.25 8.75C11.2708 8.4375 11.4375 8.27083 11.75 8.25H12.25C12.5625 8.27083 12.7292 8.4375 12.75 8.75V9.25C12.7292 9.5625 12.5625 9.72917 12.25 9.75H11.75C11.4375 9.72917 11.2708 9.5625 11.25 9.25V8.75ZM11.75 11.25H12.25C12.5625 11.2708 12.7292 11.4375 12.75 11.75V12.25C12.7292 12.5625 12.5625 12.7292 12.25 12.75H11.75C11.4375 12.7292 11.2708 12.5625 11.25 12.25V11.75C11.2708 11.4375 11.4375 11.2708 11.75 11.25ZM14.25 8.75C14.2708 8.4375 14.4375 8.27083 14.75 8.25H15.25C15.5625 8.27083 15.7292 8.4375 15.75 8.75V9.25C15.7292 9.5625 15.5625 9.72917 15.25 9.75H14.75C14.4375 9.72917 14.2708 9.5625 14.25 9.25V8.75ZM14.75 11.25H15.25C15.5625 11.2708 15.7292 11.4375 15.75 11.75V12.25C15.7292 12.5625 15.5625 12.7292 15.25 12.75H14.75C14.4375 12.7292 14.2708 12.5625 14.25 12.25V11.75C14.2708 11.4375 14.4375 11.2708 14.75 11.25ZM14.25 14.75C14.2708 14.4375 14.4375 14.2708 14.75 14.25H15.25C15.5625 14.2708 15.7292 14.4375 15.75 14.75V15.25C15.7292 15.5625 15.5625 15.7292 15.25 15.75H14.75C14.4375 15.7292 14.2708 15.5625 14.25 15.25V14.75ZM5.5 14.5H12.5C12.8125 14.5208 12.9792 14.6875 13 15C12.9792 15.3125 12.8125 15.4792 12.5 15.5H5.5C5.1875 15.4792 5.02083 15.3125 5 15C5.02083 14.6875 5.1875 14.5208 5.5 14.5Z" fill="black" fill-opacity="0.72"/>
</g>
<defs>
<clipPath id="clip0_1731_3920">
<rect width="18" height="24" fill="white"/>
</clipPath>
</defs>
</svg>
