<svg width="10" height="24" viewBox="0 0 10 24" fill="none" xmlns="http://www.w3.org/2000/svg">
<g id="label-paired / md / five-md / regular" clip-path="url(#clip0_1731_3531)">
<path id="icon" d="M1.53125 5.375C1.59375 5.14583 1.75 5.02083 2 5H8.5C8.8125 5.02083 8.97917 5.1875 9 5.5C8.97917 5.8125 8.8125 5.97917 8.5 6H2.40625L1.15625 11H6C7.125 11.0208 8.07292 11.4062 8.84375 12.1562C9.59375 12.9271 9.97917 13.875 10 15C9.97917 16.125 9.59375 17.0729 8.84375 17.8438C8.07292 18.5938 7.125 18.9792 6 19H2.65625C2.11458 19 1.625 18.8646 1.1875 18.5938C0.75 18.3229 0.416667 17.9479 0.1875 17.4688L0.0625 17.2188C-0.0625 16.9479 0.0104167 16.7292 0.28125 16.5625C0.572917 16.4375 0.791667 16.5104 0.9375 16.7812L1.09375 17.0312C1.42708 17.6562 1.94792 17.9792 2.65625 18H6C6.85417 17.9792 7.5625 17.6875 8.125 17.125C8.6875 16.5625 8.97917 15.8542 9 15C8.97917 14.1458 8.6875 13.4375 8.125 12.875C7.5625 12.3125 6.85417 12.0208 6 12H0.5C0.333333 12 0.197917 11.9375 0.09375 11.8125C0.0104167 11.6875 -0.0208333 11.5417 0 11.375L1.53125 5.375Z" fill="black" fill-opacity="0.72"/>
</g>
<defs>
<clipPath id="clip0_1731_3531">
<rect width="10" height="24" fill="white"/>
</clipPath>
</defs>
</svg>
