<svg width="18" height="24" viewBox="0 0 18 24" fill="none" xmlns="http://www.w3.org/2000/svg">
<g id="label-paired / md / youtube-md" clip-path="url(#clip0_1731_13951)">
<path id="icon" d="M17.1875 7.875C17.2917 8.35417 17.375 8.90625 17.4375 9.53125C17.4792 10.1771 17.5104 10.75 17.5312 11.25C17.5312 11.7292 17.5312 11.9792 17.5312 12C17.5312 12.0417 17.5312 12.3021 17.5312 12.7812C17.5104 13.2812 17.4792 13.8438 17.4375 14.4688C17.375 15.1146 17.2917 15.6771 17.1875 16.1562C16.9375 16.9271 16.4271 17.4271 15.6562 17.6562C15.1562 17.7604 14.3854 17.8438 13.3438 17.9062C12.3021 17.9479 11.3333 17.9792 10.4375 18C9.54167 18 9.0625 18 9 18C8.9375 18 8.45833 18 7.5625 18C6.66667 17.9792 5.69792 17.9479 4.65625 17.9062C3.61458 17.8438 2.84375 17.7604 2.34375 17.6562C1.57292 17.4271 1.0625 16.9271 0.8125 16.1562C0.708333 15.6771 0.625 15.1146 0.5625 14.4688C0.520833 13.8438 0.489583 13.2812 0.46875 12.7812C0.46875 12.3021 0.46875 12.0417 0.46875 12C0.46875 11.9792 0.46875 11.7292 0.46875 11.25C0.489583 10.75 0.520833 10.1771 0.5625 9.53125C0.625 8.90625 0.708333 8.35417 0.8125 7.875C1.0625 7.10417 1.57292 6.59375 2.34375 6.34375C2.84375 6.23958 3.61458 6.15625 4.65625 6.09375C5.69792 6.05208 6.66667 6.02083 7.5625 6C8.45833 6 8.9375 6 9 6C9.0625 6 9.54167 6 10.4375 6C11.3333 6.02083 12.3021 6.05208 13.3438 6.09375C14.3854 6.15625 15.1562 6.23958 15.6562 6.34375C16.4271 6.59375 16.9375 7.10417 17.1875 7.875ZM7.25 14.5625L11.7188 12L7.25 9.46875V14.5625Z" fill="black" fill-opacity="0.72"/>
</g>
<defs>
<clipPath id="clip0_1731_13951">
<rect width="18" height="24" fill="white"/>
</clipPath>
</defs>
</svg>
