<svg width="11" height="18" viewBox="0 0 11 18" fill="none" xmlns="http://www.w3.org/2000/svg">
<g id="label-paired / caption / tablet-screen-caption / regular" clip-path="url(#clip0_1731_1379)">
<path id="icon" d="M9.25 4.25H1.75C1.53125 4.25 1.35156 4.32031 1.21094 4.46094C1.07031 4.60156 1 4.78125 1 5V11H10V5C10 4.78125 9.92969 4.60156 9.78906 4.46094C9.64844 4.32031 9.46875 4.25 9.25 4.25ZM10 11.75H1V14C1 14.2188 1.07031 14.3984 1.21094 14.5391C1.35156 14.6797 1.53125 14.75 1.75 14.75H9.25C9.46875 14.75 9.64844 14.6797 9.78906 14.5391C9.92969 14.3984 10 14.2188 10 14V11.75ZM1.75 3.5H9.25C9.67188 3.51563 10.0234 3.66406 10.3047 3.94531C10.5859 4.22656 10.7344 4.57812 10.75 5V14C10.7344 14.4219 10.5859 14.7734 10.3047 15.0547C10.0234 15.3359 9.67188 15.4844 9.25 15.5H1.75C1.32812 15.4844 0.976562 15.3359 0.695312 15.0547C0.414062 14.7734 0.265625 14.4219 0.25 14V5C0.265625 4.57812 0.414062 4.22656 0.695312 3.94531C0.976562 3.66406 1.32812 3.51563 1.75 3.5ZM4.375 13.25C4.39062 13.0156 4.51562 12.8906 4.75 12.875H6.25C6.48438 12.8906 6.60938 13.0156 6.625 13.25C6.60938 13.4844 6.48438 13.6094 6.25 13.625H4.75C4.51562 13.6094 4.39062 13.4844 4.375 13.25Z" fill="black" fill-opacity="0.72"/>
</g>
<defs>
<clipPath id="clip0_1731_1379">
<rect width="11" height="18" fill="white"/>
</clipPath>
</defs>
</svg>
