<svg width="21" height="36" viewBox="0 0 21 36" fill="none" xmlns="http://www.w3.org/2000/svg">
<g id="label-paired / xl / bars-filter-xl / bold" clip-path="url(#clip0_1731_6185)">
<path id="icon" d="M0 10.125C0.0625 9.4375 0.4375 9.0625 1.125 9H19.875C20.5625 9.0625 20.9375 9.4375 21 10.125C20.9375 10.8125 20.5625 11.1875 19.875 11.25H1.125C0.4375 11.1875 0.0625 10.8125 0 10.125ZM3 17.625C3.0625 16.9375 3.4375 16.5625 4.125 16.5H16.875C17.5625 16.5625 17.9375 16.9375 18 17.625C17.9375 18.3125 17.5625 18.6875 16.875 18.75H4.125C3.4375 18.6875 3.0625 18.3125 3 17.625ZM13.5 25.125C13.4375 25.8125 13.0625 26.1875 12.375 26.25H8.625C7.9375 26.1875 7.5625 25.8125 7.5 25.125C7.5625 24.4375 7.9375 24.0625 8.625 24H12.375C13.0625 24.0625 13.4375 24.4375 13.5 25.125Z" fill="black" fill-opacity="0.72"/>
</g>
<defs>
<clipPath id="clip0_1731_6185">
<rect width="21" height="36" fill="white"/>
</clipPath>
</defs>
</svg>
