<svg width="20" height="30" viewBox="0 0 20 30" fill="none" xmlns="http://www.w3.org/2000/svg">
<g id="label-paired / lg / sun-bright-lg / bold" clip-path="url(#clip0_1731_5466)">
<path id="icon" d="M10.9375 6.4375V8.9375C10.8854 9.51042 10.5729 9.82292 10 9.875C9.42708 9.82292 9.11458 9.51042 9.0625 8.9375V6.4375C9.11458 5.86458 9.42708 5.55208 10 5.5C10.5729 5.55208 10.8854 5.86458 10.9375 6.4375ZM17.0703 9.75781L15.3125 11.5156C14.8698 11.8802 14.4271 11.8802 13.9844 11.5156C13.6198 11.0729 13.6198 10.6302 13.9844 10.1875L15.7422 8.42969C16.1849 8.0651 16.6276 8.0651 17.0703 8.42969C17.4349 8.8724 17.4349 9.3151 17.0703 9.75781ZM4.25781 8.42969L6.01562 10.1875C6.38021 10.6302 6.38021 11.0729 6.01562 11.5156C5.57292 11.8802 5.13021 11.8802 4.6875 11.5156L2.92969 9.75781C2.5651 9.3151 2.5651 8.8724 2.92969 8.42969C3.3724 8.0651 3.8151 8.0651 4.25781 8.42969ZM0.9375 14.5625H3.4375C4.01042 14.6146 4.32292 14.9271 4.375 15.5C4.32292 16.0729 4.01042 16.3854 3.4375 16.4375H0.9375C0.364583 16.3854 0.0520833 16.0729 0 15.5C0.0520833 14.9271 0.364583 14.6146 0.9375 14.5625ZM16.5625 14.5625H19.0625C19.6354 14.6146 19.9479 14.9271 20 15.5C19.9479 16.0729 19.6354 16.3854 19.0625 16.4375H16.5625C15.9896 16.3854 15.6771 16.0729 15.625 15.5C15.6771 14.9271 15.9896 14.6146 16.5625 14.5625ZM6.01562 20.8125L4.25781 22.5703C3.8151 22.9349 3.3724 22.9349 2.92969 22.5703C2.5651 22.1276 2.5651 21.6849 2.92969 21.2422L4.6875 19.4844C5.13021 19.1198 5.57292 19.1198 6.01562 19.4844C6.38021 19.9271 6.38021 20.3698 6.01562 20.8125ZM15.3125 19.4844L17.0703 21.2422C17.4349 21.6849 17.4349 22.1276 17.0703 22.5703C16.6276 22.9349 16.1849 22.9349 15.7422 22.5703L13.9844 20.8125C13.6198 20.3698 13.6198 19.9271 13.9844 19.4844C14.4271 19.1198 14.8698 19.1198 15.3125 19.4844ZM10.9375 22.0625V24.5625C10.8854 25.1354 10.5729 25.4479 10 25.5C9.42708 25.4479 9.11458 25.1354 9.0625 24.5625V22.0625C9.11458 21.4896 9.42708 21.1771 10 21.125C10.5729 21.1771 10.8854 21.4896 10.9375 22.0625ZM12.5 15.5C12.474 14.5625 12.0573 13.8464 11.25 13.3516C10.4167 12.8828 9.58333 12.8828 8.75 13.3516C7.94271 13.8464 7.52604 14.5625 7.5 15.5C7.52604 16.4375 7.94271 17.1536 8.75 17.6484C9.58333 18.1172 10.4167 18.1172 11.25 17.6484C12.0573 17.1536 12.474 16.4375 12.5 15.5ZM5.625 15.5C5.625 14.7188 5.82031 13.9896 6.21094 13.3125C6.60156 12.6354 7.13542 12.1016 7.8125 11.7109C8.48958 11.3203 9.21875 11.125 10 11.125C10.7812 11.125 11.5104 11.3203 12.1875 11.7109C12.8646 12.1016 13.3984 12.6354 13.7891 13.3125C14.1797 13.9896 14.375 14.7188 14.375 15.5C14.375 16.2812 14.1797 17.0104 13.7891 17.6875C13.3984 18.3646 12.8646 18.8984 12.1875 19.2891C11.5104 19.6797 10.7812 19.875 10 19.875C9.21875 19.875 8.48958 19.6797 7.8125 19.2891C7.13542 18.8984 6.60156 18.3646 6.21094 17.6875C5.82031 17.0104 5.625 16.2812 5.625 15.5Z" fill="black" fill-opacity="0.72"/>
</g>
<defs>
<clipPath id="clip0_1731_5466">
<rect width="20" height="30" fill="white"/>
</clipPath>
</defs>
</svg>
