<svg width="16" height="24" viewBox="0 0 16 24" fill="none" xmlns="http://www.w3.org/2000/svg">
<g id="label-paired / md / chevrons-right-md / bold" clip-path="url(#clip0_1731_3412)">
<path id="icon" d="M14.5312 11.4688C14.8229 11.8229 14.8229 12.1771 14.5312 12.5312L8.53125 18.5312C8.17708 18.8229 7.82292 18.8229 7.46875 18.5312C7.17708 18.1771 7.17708 17.8229 7.46875 17.4688L12.9375 12L7.46875 6.53125C7.17708 6.17708 7.17708 5.82292 7.46875 5.46875C7.82292 5.17708 8.17708 5.17708 8.53125 5.46875L14.5312 11.4688ZM2.53125 5.46875L8.53125 11.4688C8.82292 11.8229 8.82292 12.1771 8.53125 12.5312L2.53125 18.5312C2.17708 18.8229 1.82292 18.8229 1.46875 18.5312C1.17708 18.1771 1.17708 17.8229 1.46875 17.4688L6.9375 12L1.46875 6.53125C1.17708 6.17708 1.17708 5.82292 1.46875 5.46875C1.82292 5.17708 2.17708 5.17708 2.53125 5.46875Z" fill="black" fill-opacity="0.72"/>
</g>
<defs>
<clipPath id="clip0_1731_3412">
<rect width="16" height="24" fill="white"/>
</clipPath>
</defs>
</svg>
