<svg width="15" height="36" viewBox="0 0 15 36" fill="none" xmlns="http://www.w3.org/2000/svg">
<g id="label-paired / xl / three-xl / bold" clip-path="url(#clip0_1731_6038)">
<path id="icon" d="M0 8.625C0.0625 7.9375 0.4375 7.5625 1.125 7.5H13.125C13.625 7.53125 13.9688 7.76563 14.1562 8.20312C14.3438 8.67188 14.2656 9.07812 13.9219 9.42188L6.9375 16.125H8.8125C10.5625 16.1562 12.0156 16.7656 13.1719 17.9531C14.3594 19.1094 14.9688 20.5625 15 22.3125C14.9688 24.0625 14.3594 25.5156 13.1719 26.6719C12.0156 27.8594 10.5625 28.4688 8.8125 28.5H4.54688C3.60938 28.5 2.76562 28.25 2.01562 27.75C1.23438 27.2812 0.625 26.6406 0.1875 25.8281L0.140625 25.6406C-0.109375 24.9844 0.046875 24.4844 0.609375 24.1406C1.26562 23.8906 1.76562 24.0469 2.10938 24.6094L2.20312 24.7969C2.73438 25.7344 3.51562 26.2188 4.54688 26.25H8.8125C9.9375 26.2188 10.8594 25.8281 11.5781 25.0781C12.3281 24.3594 12.7188 23.4375 12.75 22.3125C12.7188 21.1875 12.3281 20.2656 11.5781 19.5469C10.8594 18.7969 9.9375 18.4062 8.8125 18.375H4.125C3.625 18.3438 3.28125 18.1094 3.09375 17.6719C2.90625 17.2031 2.98438 16.7969 3.32812 16.4531L10.3125 9.75H1.125C0.4375 9.6875 0.0625 9.3125 0 8.625Z" fill="black" fill-opacity="0.72"/>
</g>
<defs>
<clipPath id="clip0_1731_6038">
<rect width="15" height="36" fill="white"/>
</clipPath>
</defs>
</svg>
