<svg width="20" height="30" viewBox="0 0 20 30" fill="none" xmlns="http://www.w3.org/2000/svg">
<g id="label-paired / lg / chart-candlestick-lg / bold" clip-path="url(#clip0_1731_4732)">
<path id="icon" d="M1.875 7.6875V21.4375C1.92708 22.0104 2.23958 22.3229 2.8125 22.375H19.0625C19.6354 22.4271 19.9479 22.7396 20 23.3125C19.9479 23.8854 19.6354 24.1979 19.0625 24.25H2.8125C2.00521 24.224 1.34115 23.9505 0.820312 23.4297C0.299479 22.9089 0.0260417 22.2448 0 21.4375V7.6875C0.0520833 7.11458 0.364583 6.80208 0.9375 6.75C1.51042 6.80208 1.82292 7.11458 1.875 7.6875ZM12.5 7.375V9.25C12.8646 9.25 13.1641 9.36719 13.3984 9.60156C13.6328 9.83594 13.75 10.1354 13.75 10.5V14.25C13.75 14.6146 13.6328 14.9141 13.3984 15.1484C13.1641 15.3828 12.8646 15.5 12.5 15.5V17.375C12.474 17.7656 12.2656 17.974 11.875 18C11.4844 17.974 11.276 17.7656 11.25 17.375V15.5C10.8854 15.5 10.5859 15.3828 10.3516 15.1484C10.1172 14.9141 10 14.6146 10 14.25V10.5C10 10.1354 10.1172 9.83594 10.3516 9.60156C10.5859 9.36719 10.8854 9.25 11.25 9.25V7.375C11.276 6.98438 11.4844 6.77604 11.875 6.75C12.2656 6.77604 12.474 6.98438 12.5 7.375ZM15 14.25C15 13.8854 15.1172 13.5859 15.3516 13.3516C15.5859 13.1172 15.8854 13 16.25 13V11.125C16.276 10.7344 16.4844 10.526 16.875 10.5C17.2656 10.526 17.474 10.7344 17.5 11.125V13C17.8646 13 18.1641 13.1172 18.3984 13.3516C18.6328 13.5859 18.75 13.8854 18.75 14.25V16.75C18.75 17.1146 18.6328 17.4141 18.3984 17.6484C18.1641 17.8828 17.8646 18 17.5 18V19.875C17.474 20.2656 17.2656 20.474 16.875 20.5C16.4844 20.474 16.276 20.2656 16.25 19.875V18C15.8854 18 15.5859 17.8828 15.3516 17.6484C15.1172 17.4141 15 17.1146 15 16.75V14.25ZM6.25 10.5V8.625C6.27604 8.23438 6.48438 8.02604 6.875 8C7.26562 8.02604 7.47396 8.23438 7.5 8.625V10.5C7.86458 10.5 8.16406 10.6172 8.39844 10.8516C8.63281 11.0859 8.75 11.3854 8.75 11.75V16.75C8.75 17.1146 8.63281 17.4141 8.39844 17.6484C8.16406 17.8828 7.86458 18 7.5 18V19.875C7.47396 20.2656 7.26562 20.474 6.875 20.5C6.48438 20.474 6.27604 20.2656 6.25 19.875V18C5.88542 18 5.58594 17.8828 5.35156 17.6484C5.11719 17.4141 5 17.1146 5 16.75V11.75C5 11.3854 5.11719 11.0859 5.35156 10.8516C5.58594 10.6172 5.88542 10.5 6.25 10.5Z" fill="black" fill-opacity="0.72"/>
</g>
<defs>
<clipPath id="clip0_1731_4732">
<rect width="20" height="30" fill="white"/>
</clipPath>
</defs>
</svg>
