<svg width="15" height="18" viewBox="0 0 15 18" fill="none" xmlns="http://www.w3.org/2000/svg">
<g id="label-paired / caption / laptop-mobile-caption / bold" clip-path="url(#clip0_1731_1391)">
<path id="icon" d="M3 4.625C2.76562 4.64062 2.64062 4.76562 2.625 5V11H8.25V12.5H1.125C0.8125 12.4844 0.546875 12.375 0.328125 12.1719C0.125 11.9531 0.015625 11.6875 0 11.375C0.015625 11.1406 0.140625 11.0156 0.375 11H1.5V5C1.51562 4.57812 1.66406 4.22656 1.94531 3.94531C2.22656 3.66406 2.57812 3.51563 3 3.5H10.5C10.9219 3.51563 11.2734 3.66406 11.5547 3.94531C11.8359 4.22656 11.9844 4.57812 12 5V5.75H10.875V5C10.8594 4.76562 10.7344 4.64062 10.5 4.625H3ZM9 7.625C9.01562 7.3125 9.125 7.04688 9.32812 6.82812C9.54688 6.625 9.8125 6.51562 10.125 6.5H13.875C14.1875 6.51562 14.4531 6.625 14.6719 6.82812C14.875 7.04688 14.9844 7.3125 15 7.625V14.375C14.9844 14.6875 14.875 14.9531 14.6719 15.1719C14.4531 15.375 14.1875 15.4844 13.875 15.5H10.125C9.8125 15.4844 9.54688 15.375 9.32812 15.1719C9.125 14.9531 9.01562 14.6875 9 14.375V7.625ZM10.125 7.625V14.375H13.875V7.625H10.125Z" fill="black" fill-opacity="0.72"/>
</g>
<defs>
<clipPath id="clip0_1731_1391">
<rect width="15" height="18" fill="white"/>
</clipPath>
</defs>
</svg>
