<svg width="15" height="18" viewBox="0 0 15 18" fill="none" xmlns="http://www.w3.org/2000/svg">
<g id="label-paired / caption / deal-cancellation-caption / regular" clip-path="url(#clip0_1731_764)">
<path id="icon" d="M2.10938 6.35938H4.33594C4.73438 6.35938 5.08594 6.42969 5.41406 6.57031C5.74219 6.6875 6.02344 6.89844 6.25781 7.15625C6.49219 7.41406 6.65625 7.74219 6.79688 8.14062C6.91406 8.53906 6.98438 8.98438 6.98438 9.5C6.98438 10.0391 6.91406 10.4844 6.79688 10.8828C6.65625 11.2812 6.49219 11.6094 6.25781 11.8672C6.02344 12.125 5.74219 12.3125 5.41406 12.4531C5.08594 12.5938 4.73438 12.6641 4.33594 12.6641H2.10938V6.35938ZM4.33594 11.75C4.80469 11.75 5.17969 11.6094 5.46094 11.3047C5.74219 11.0234 5.88281 10.5781 5.88281 10.0156V9.00781C5.88281 8.44531 5.74219 8 5.46094 7.71875C5.17969 7.41406 4.80469 7.27344 4.33594 7.27344H3.11719V11.75H4.33594ZM10.5938 12.7578C9.77344 12.7578 9.14062 12.4766 8.67188 11.9375C8.20312 11.375 7.96875 10.5781 7.96875 9.5C7.96875 8.98438 8.01562 8.51562 8.15625 8.11719C8.27344 7.71875 8.4375 7.36719 8.67188 7.10938C8.90625 6.82812 9.16406 6.61719 9.49219 6.47656C9.82031 6.33594 10.1953 6.26562 10.5938 6.26562C11.1562 6.26562 11.6016 6.38281 11.9766 6.61719C12.3516 6.85156 12.6328 7.22656 12.8438 7.69531L11.9766 8.16406C11.8828 7.85938 11.7188 7.625 11.4844 7.4375C11.25 7.27344 10.9688 7.17969 10.5938 7.17969C10.125 7.17969 9.72656 7.34375 9.46875 7.67188C9.1875 8 9.04688 8.44531 9.04688 9.03125V9.99219C9.04688 10.5781 9.1875 11.0234 9.46875 11.3516C9.72656 11.6797 10.125 11.8438 10.5938 11.8438C10.9688 11.8438 11.2969 11.75 11.5312 11.5625C11.7656 11.375 11.9297 11.1172 12.0469 10.8125L12.8672 11.3047C12.6562 11.75 12.375 12.125 12 12.3828C11.6016 12.6406 11.1562 12.7578 10.5938 12.7578Z" fill="black" fill-opacity="0.72"/>
</g>
<defs>
<clipPath id="clip0_1731_764">
<rect width="15" height="18" fill="white"/>
</clipPath>
</defs>
</svg>
