<svg width="14" height="22" viewBox="0 0 14 22" fill="none" xmlns="http://www.w3.org/2000/svg">
<g id="label-paired / sm / bullhorn-sm / regular" clip-path="url(#clip0_1731_2869)">
<path id="icon" d="M11.375 4.95312C11.375 4.86198 11.3294 4.79818 11.2383 4.76172C11.1471 4.72526 11.0651 4.74349 10.9922 4.81641L10.3359 5.5C9.16927 6.72135 7.76562 7.52344 6.125 7.90625V12.7461C7.76562 13.1107 9.16927 13.9036 10.3359 15.125L10.9922 15.8086C11.0651 15.8815 11.1471 15.8997 11.2383 15.8633C11.3294 15.8268 11.375 15.763 11.375 15.6719V4.95312ZM5.25 12.582V8.04297C5.08594 8.0612 4.93099 8.07031 4.78516 8.07031L3.96484 8.125H3.9375H1.75C1.49479 8.125 1.28516 8.20703 1.12109 8.37109C0.957031 8.53516 0.875 8.74479 0.875 9V11.625C0.875 11.8802 0.957031 12.0898 1.12109 12.2539C1.28516 12.418 1.49479 12.5 1.75 12.5H3.9375H3.96484L4.75781 12.5547C4.92188 12.5547 5.08594 12.5638 5.25 12.582ZM10.3633 4.21484C10.7461 3.86849 11.1471 3.77734 11.5664 3.94141C11.9857 4.10547 12.2135 4.44271 12.25 4.95312V15.6719C12.2135 16.1823 11.9857 16.5195 11.5664 16.6836C11.1471 16.8477 10.7461 16.7565 10.3633 16.4102L9.70703 15.7266C8.48568 14.4505 7 13.694 5.25 13.457V16.2188C5.23177 16.6562 5.08594 17.0208 4.8125 17.3125C4.52083 17.5859 4.15625 17.7318 3.71875 17.75H3.28125C2.84375 17.7318 2.47917 17.5859 2.1875 17.3125C1.91406 17.0208 1.76823 16.6562 1.75 16.2188V13.375C1.25781 13.3568 0.847656 13.1836 0.519531 12.8555C0.191406 12.5273 0.0182292 12.1172 0 11.625V9C0.0182292 8.50781 0.191406 8.09766 0.519531 7.76953C0.847656 7.44141 1.25781 7.26823 1.75 7.25H3.9375L4.73047 7.19531C5.67839 7.14062 6.58073 6.92188 7.4375 6.53906C8.29427 6.13802 9.05078 5.59115 9.70703 4.89844L10.3633 4.21484ZM2.625 13.375V16.2188C2.66146 16.6198 2.88021 16.8385 3.28125 16.875H3.71875C4.11979 16.8385 4.33854 16.6198 4.375 16.2188V13.4023L3.9375 13.375H2.625ZM13.5625 9C13.8359 9.01823 13.9818 9.16406 14 9.4375V11.1875C13.9818 11.4609 13.8359 11.6068 13.5625 11.625C13.2891 11.6068 13.1432 11.4609 13.125 11.1875V9.4375C13.1432 9.16406 13.2891 9.01823 13.5625 9Z" fill="black" fill-opacity="0.72"/>
</g>
<defs>
<clipPath id="clip0_1731_2869">
<rect width="14" height="22" fill="white"/>
</clipPath>
</defs>
</svg>
