<svg width="23" height="30" viewBox="0 0 23 30" fill="none" xmlns="http://www.w3.org/2000/svg">
<g id="label-paired / lg / house-blank-lg / bold" clip-path="url(#clip0_1731_4905)">
<path id="icon" d="M12.125 5.73438L22.4375 14.4844C22.8281 14.875 22.8542 15.3177 22.5156 15.8125C22.125 16.2031 21.6953 16.2292 21.2266 15.8906L20.25 15.1094V22.375C20.224 23.2604 19.9245 24.0026 19.3516 24.6016C18.7526 25.1745 18.0104 25.474 17.125 25.5H5.875C4.98958 25.474 4.2474 25.1745 3.64844 24.6016C3.07552 24.0026 2.77604 23.2604 2.75 22.375V15.1094L1.77344 15.8906C1.30469 16.2292 0.875 16.2031 0.484375 15.8125C0.145833 15.3177 0.171875 14.875 0.5625 14.4844L10.875 5.73438C11.2917 5.42188 11.7083 5.42188 12.125 5.73438ZM18.375 13.5078L11.5 7.6875L4.625 13.5078V22.375C4.625 22.7396 4.74219 23.0391 4.97656 23.2734C5.21094 23.5078 5.51042 23.625 5.875 23.625H17.125C17.4896 23.625 17.7891 23.5078 18.0234 23.2734C18.2578 23.0391 18.375 22.7396 18.375 22.375V13.5078Z" fill="black" fill-opacity="0.72"/>
</g>
<defs>
<clipPath id="clip0_1731_4905">
<rect width="23" height="30" fill="white"/>
</clipPath>
</defs>
</svg>
