<svg width="18" height="22" viewBox="0 0 18 22" fill="none" xmlns="http://www.w3.org/2000/svg">
<g id="label-paired / sm / ios-sm" clip-path="url(#clip0_1731_13873)">
<path id="icon" d="M9.35547 10.9688C9.35547 12.2266 8.72656 13.0195 7.66016 13.0195C6.62109 13.0195 5.99219 12.2266 5.99219 10.9688C5.99219 9.71094 6.62109 8.91797 7.66016 8.91797C8.72656 8.91797 9.35547 9.71094 9.35547 10.9688ZM16 7.60547V13.9219C16 14.4141 15.9727 15.207 15.6992 15.8906C15.5625 16.2461 15.2617 16.7383 14.8242 17.0664C14.5508 17.2578 14.25 17.4492 13.8398 17.5859C13.375 17.7227 12.8281 17.75 12.1445 17.75H5.82812C5.14453 17.75 4.59766 17.7227 4.13281 17.5859C3.72266 17.4492 3.42188 17.2578 3.14844 17.0664C2.71094 16.7383 2.41016 16.2461 2.27344 15.8906C2 15.207 2 14.4141 2 13.9219V7.60547C2 7.11328 2 6.32031 2.27344 5.63672C2.41016 5.28125 2.71094 4.78906 3.14844 4.46094C3.42188 4.24219 3.72266 4.05078 4.13281 3.94141C4.59766 3.80469 5.14453 3.75 5.82812 3.75H12.1445C12.8281 3.75 13.375 3.80469 13.8398 3.94141C14.25 4.07812 14.5508 4.26953 14.8242 4.46094C15.2617 4.78906 15.5625 5.28125 15.6992 5.63672C15.9727 6.32031 16 7.11328 16 7.60547ZM4.76172 13.5117V10.4766H4.13281V13.5117H4.76172ZM4.78906 9.62891C4.78906 9.4375 4.625 9.27344 4.43359 9.27344C4.24219 9.27344 4.07812 9.4375 4.07812 9.62891C4.07812 9.82031 4.24219 9.98438 4.43359 9.98438C4.625 9.98438 4.78906 9.82031 4.78906 9.62891ZM10.0117 10.9688C10.0117 9.35547 9.10938 8.34375 7.66016 8.34375C6.23828 8.34375 5.33594 9.35547 5.33594 10.9688C5.33594 12.582 6.23828 13.5938 7.66016 13.5938C9.10938 13.5938 10.0117 12.582 10.0117 10.9688ZM14.0859 12.0625C14.0859 11.3516 13.6484 10.9141 12.6094 10.6953L12.0352 10.5586C11.3516 10.4219 11.0781 10.1484 11.0781 9.73828C11.0781 9.21875 11.543 8.91797 12.1992 8.91797C12.8555 8.91797 13.293 9.24609 13.3477 9.82031H13.9766C13.9492 8.94531 13.2109 8.34375 12.1992 8.34375C11.1602 8.34375 10.4219 8.94531 10.4219 9.76562C10.4219 10.5039 10.8594 10.9688 11.8711 11.1875L12.4453 11.2969C13.1289 11.4609 13.4297 11.7344 13.4297 12.1719C13.4297 12.6641 12.9102 13.0195 12.2266 13.0195C11.5156 13.0195 10.9961 12.6914 10.9141 12.1445H10.2852C10.3398 13.0195 11.1055 13.5938 12.1992 13.5938C13.3477 13.5938 14.0859 13.0195 14.0859 12.0625Z" fill="black" fill-opacity="0.72"/>
</g>
<defs>
<clipPath id="clip0_1731_13873">
<rect width="18" height="22" fill="white"/>
</clipPath>
</defs>
</svg>
