<svg width="18" height="24" viewBox="0 0 18 24" fill="none" xmlns="http://www.w3.org/2000/svg">
<g id="label-paired / md / money-bill-md / bold" clip-path="url(#clip0_1731_4245)">
<path id="icon" d="M3.5 7.5C3.47917 8.0625 3.28125 8.53125 2.90625 8.90625C2.53125 9.28125 2.0625 9.47917 1.5 9.5V14.5C2.0625 14.5208 2.53125 14.7188 2.90625 15.0938C3.28125 15.4688 3.47917 15.9375 3.5 16.5H14.5C14.5208 15.9375 14.7188 15.4688 15.0938 15.0938C15.4688 14.7188 15.9375 14.5208 16.5 14.5V9.5C15.9375 9.47917 15.4688 9.28125 15.0938 8.90625C14.7188 8.53125 14.5208 8.0625 14.5 7.5H3.5ZM0 8C0.0208333 7.4375 0.21875 6.96875 0.59375 6.59375C0.96875 6.21875 1.4375 6.02083 2 6H16C16.5625 6.02083 17.0312 6.21875 17.4062 6.59375C17.7812 6.96875 17.9792 7.4375 18 8V16C17.9792 16.5625 17.7812 17.0312 17.4062 17.4062C17.0312 17.7812 16.5625 17.9792 16 18H2C1.4375 17.9792 0.96875 17.7812 0.59375 17.4062C0.21875 17.0312 0.0208333 16.5625 0 16V8ZM9 9C9.54167 9 10.0417 9.13542 10.5 9.40625C10.9583 9.67708 11.3229 10.0417 11.5938 10.5C11.8646 10.9792 12 11.4792 12 12C12 12.5208 11.8646 13.0208 11.5938 13.5C11.3229 13.9583 10.9583 14.3229 10.5 14.5938C10.0417 14.8646 9.54167 15 9 15C8.45833 15 7.95833 14.8646 7.5 14.5938C7.04167 14.3229 6.67708 13.9583 6.40625 13.5C6.13542 13.0208 6 12.5208 6 12C6 11.4792 6.13542 10.9792 6.40625 10.5C6.67708 10.0417 7.04167 9.67708 7.5 9.40625C7.95833 9.13542 8.45833 9 9 9Z" fill="black" fill-opacity="0.72"/>
</g>
<defs>
<clipPath id="clip0_1731_4245">
<rect width="18" height="24" fill="white"/>
</clipPath>
</defs>
</svg>
