<svg width="18" height="30" viewBox="0 0 18 30" fill="none" xmlns="http://www.w3.org/2000/svg">
<g id="label-paired / lg / tablet-screen-lg / regular" clip-path="url(#clip0_1731_4852)">
<path id="icon" d="M15.25 6.75H2.75C2.38542 6.75 2.08594 6.86719 1.85156 7.10156C1.61719 7.33594 1.5 7.63542 1.5 8V18H16.5V8C16.5 7.63542 16.3828 7.33594 16.1484 7.10156C15.9141 6.86719 15.6146 6.75 15.25 6.75ZM16.5 19.25H1.5V23C1.5 23.3646 1.61719 23.6641 1.85156 23.8984C2.08594 24.1328 2.38542 24.25 2.75 24.25H15.25C15.6146 24.25 15.9141 24.1328 16.1484 23.8984C16.3828 23.6641 16.5 23.3646 16.5 23V19.25ZM2.75 5.5H15.25C15.9531 5.52604 16.5391 5.77344 17.0078 6.24219C17.4766 6.71094 17.724 7.29688 17.75 8V23C17.724 23.7031 17.4766 24.2891 17.0078 24.7578C16.5391 25.2266 15.9531 25.474 15.25 25.5H2.75C2.04688 25.474 1.46094 25.2266 0.992188 24.7578C0.523438 24.2891 0.276042 23.7031 0.25 23V8C0.276042 7.29688 0.523438 6.71094 0.992188 6.24219C1.46094 5.77344 2.04688 5.52604 2.75 5.5ZM7.125 21.75C7.15104 21.3594 7.35938 21.151 7.75 21.125H10.25C10.6406 21.151 10.849 21.3594 10.875 21.75C10.849 22.1406 10.6406 22.349 10.25 22.375H7.75C7.35938 22.349 7.15104 22.1406 7.125 21.75Z" fill="black" fill-opacity="0.72"/>
</g>
<defs>
<clipPath id="clip0_1731_4852">
<rect width="18" height="30" fill="white"/>
</clipPath>
</defs>
</svg>
