<svg width="20" height="30" viewBox="0 0 20 30" fill="none" xmlns="http://www.w3.org/2000/svg">
<g id="label-paired / lg / circle-two-lg / bold" clip-path="url(#clip0_1731_4525)">
<path id="icon" d="M10 7.375C8.51562 7.375 7.16146 7.73958 5.9375 8.46875C4.71354 9.17188 3.72396 10.1615 2.96875 11.4375C2.23958 12.7135 1.875 14.0677 1.875 15.5C1.875 16.9323 2.23958 18.2865 2.96875 19.5625C3.72396 20.8385 4.71354 21.8281 5.9375 22.5312C7.16146 23.2604 8.51562 23.625 10 23.625C11.4844 23.625 12.8385 23.2604 14.0625 22.5312C15.2865 21.8281 16.276 20.8385 17.0312 19.5625C17.7604 18.2865 18.125 16.9323 18.125 15.5C18.125 14.0677 17.7604 12.7135 17.0312 11.4375C16.276 10.1615 15.2865 9.17188 14.0625 8.46875C12.8385 7.73958 11.4844 7.375 10 7.375ZM10 25.5C8.17708 25.474 6.51042 25.0312 5 24.1719C3.48958 23.2865 2.26562 22.0625 1.32812 20.5C0.442708 18.9115 0 17.2448 0 15.5C0 13.7552 0.442708 12.0885 1.32812 10.5C2.26562 8.9375 3.48958 7.71354 5 6.82812C6.51042 5.96875 8.17708 5.52604 10 5.5C11.8229 5.52604 13.4896 5.96875 15 6.82812C16.5104 7.71354 17.7344 8.9375 18.6719 10.5C19.5573 12.0885 20 13.7552 20 15.5C20 17.2448 19.5573 18.9115 18.6719 20.5C17.7344 22.0625 16.5104 23.2865 15 24.1719C13.4896 25.0312 11.8229 25.474 10 25.5ZM8.71094 12.7266L7.77344 13.4297C7.27865 13.7422 6.83594 13.6771 6.44531 13.2344C6.13281 12.7656 6.19792 12.3359 6.64062 11.9453L7.57812 11.2031C8.20312 10.7344 8.91927 10.5 9.72656 10.5H9.84375C10.7812 10.5521 11.5625 10.8906 12.1875 11.5156C12.7865 12.1406 13.099 12.9219 13.125 13.8594C13.099 14.7969 12.7474 15.6042 12.0703 16.2812L9.57031 18.625H12.8125C13.3854 18.6771 13.6979 18.9896 13.75 19.5625C13.6979 20.1354 13.3854 20.4479 12.8125 20.5H7.1875C6.77083 20.474 6.48438 20.2786 6.32812 19.9141C6.19792 19.5234 6.27604 19.1849 6.5625 18.8984L10.7812 14.9141C11.0938 14.6276 11.25 14.276 11.25 13.8594C11.25 13.4427 11.1068 13.1042 10.8203 12.8438C10.5599 12.5573 10.2214 12.4141 9.80469 12.4141L9.6875 12.375C9.32292 12.375 8.9974 12.4922 8.71094 12.7266Z" fill="black" fill-opacity="0.72"/>
</g>
<defs>
<clipPath id="clip0_1731_4525">
<rect width="20" height="30" fill="white"/>
</clipPath>
</defs>
</svg>
