<svg width="14" height="22" viewBox="0 0 14 22" fill="none" xmlns="http://www.w3.org/2000/svg">
<g id="label-paired / sm / circle-bookmark-sm / regular" clip-path="url(#clip0_1731_1872)">
<path id="icon" d="M7 4.625C5.88802 4.64323 4.86719 4.91667 3.9375 5.44531C3.00781 5.99219 2.26042 6.73958 1.69531 7.6875C1.14844 8.65365 0.875 9.67448 0.875 10.75C0.875 11.8255 1.14844 12.8464 1.69531 13.8125C2.26042 14.7604 3.00781 15.5078 3.9375 16.0547C4.86719 16.5833 5.88802 16.8568 7 16.875C8.11198 16.8568 9.13281 16.5833 10.0625 16.0547C10.9922 15.5078 11.7396 14.7604 12.3047 13.8125C12.8516 12.8464 13.125 11.8255 13.125 10.75C13.125 9.67448 12.8516 8.65365 12.3047 7.6875C11.7396 6.73958 10.9922 5.99219 10.0625 5.44531C9.13281 4.91667 8.11198 4.64323 7 4.625ZM7 17.75C5.72396 17.7318 4.55729 17.4219 3.5 16.8203C2.44271 16.2005 1.58594 15.3438 0.929688 14.25C0.309896 13.138 0 11.9714 0 10.75C0 9.52865 0.309896 8.36198 0.929688 7.25C1.58594 6.15625 2.44271 5.29948 3.5 4.67969C4.55729 4.07812 5.72396 3.76823 7 3.75C8.27604 3.76823 9.44271 4.07812 10.5 4.67969C11.5573 5.29948 12.4141 6.15625 13.0703 7.25C13.6901 8.36198 14 9.52865 14 10.75C14 11.9714 13.6901 13.138 13.0703 14.25C12.4141 15.3438 11.5573 16.2005 10.5 16.8203C9.44271 17.4219 8.27604 17.7318 7 17.75ZM5.25 8.5625V12.9102L6.72656 11.7344C6.90885 11.5885 7.09115 11.5885 7.27344 11.7344L8.75 12.9102V8.5625C8.73177 8.28906 8.58594 8.14323 8.3125 8.125H5.6875C5.41406 8.14323 5.26823 8.28906 5.25 8.5625ZM5.6875 7.25H8.3125C8.67708 7.26823 8.98698 7.39583 9.24219 7.63281C9.47917 7.88802 9.60677 8.19792 9.625 8.5625V13.8125C9.625 13.9948 9.54297 14.1224 9.37891 14.1953C9.21484 14.2682 9.0599 14.2591 8.91406 14.168L7 12.6367L5.08594 14.168C4.9401 14.2591 4.78516 14.2682 4.62109 14.1953C4.45703 14.1224 4.375 13.9948 4.375 13.8125V8.5625C4.39323 8.19792 4.52083 7.88802 4.75781 7.63281C5.01302 7.39583 5.32292 7.26823 5.6875 7.25Z" fill="black" fill-opacity="0.72"/>
</g>
<defs>
<clipPath id="clip0_1731_1872">
<rect width="14" height="22" fill="white"/>
</clipPath>
</defs>
</svg>
