<svg width="30" height="36" viewBox="0 0 30 36" fill="none" xmlns="http://www.w3.org/2000/svg">
<g id="label-paired / xl / fiat-onramp-xl / regular" clip-path="url(#clip0_1731_6708)">
<path id="icon" d="M21 7.5C19.3594 7.54688 17.8594 8.39062 17.0625 9.79688C16.2656 11.1562 16.2656 12.8906 17.0625 14.2969C17.9062 15.6562 19.3594 16.5469 21 16.5469C22.5938 16.5469 24.0938 15.6562 24.8906 14.2969C25.6875 12.8906 25.6875 11.1562 24.8906 9.75C24.0938 8.39062 22.5938 7.5 21 7.5ZM25.5 15.9844C24.375 17.25 22.7812 18 21 18C18.8438 18 16.9219 16.875 15.8906 15.1875L12.1406 18.9375C13.8281 19.9688 15 21.8438 15 24C15 25.8281 14.2031 27.4219 12.9375 28.5H23.25C24.4688 28.5 25.5 27.5156 25.5 26.25V15.9844ZM9 28.5C11.4844 28.5 13.5 26.4844 13.5 24C13.5 22.125 12.3281 20.4844 10.6406 19.8281H10.5938C10.125 19.6406 9.5625 19.5 9 19.5C6.51562 19.5 4.5 21.5156 4.5 24C4.5 26.4844 6.51562 28.5 9 28.5ZM10.6875 18.2812L15.2344 13.7344C15.0469 13.1719 15 12.6094 15 12C15 8.71875 17.6719 6 21 6C24.2812 6 27 8.71875 27 12V26.25C27 28.3594 25.3125 30 23.25 30H9C5.67188 30 3 27.3281 3 24C3 20.7188 5.67188 18 9 18C9.5625 18 10.125 18.0938 10.6875 18.2812ZM7.5 11.25C7.5 10.875 7.82812 10.5 8.25 10.5H12.75C13.0312 10.5 13.3125 10.6875 13.4062 10.9688C13.5469 11.25 13.4531 11.5781 13.2656 11.8125L8.76562 16.3125C8.48438 16.5938 7.96875 16.5938 7.6875 16.3125C7.40625 16.0312 7.40625 15.5156 7.6875 15.2344L10.9219 12H8.25C7.82812 12 7.5 11.6719 7.5 11.25ZM9.60938 20.25V20.8125C10.4062 21.0469 10.9219 21.7969 10.9219 22.6406V22.8281H9.70312V22.6406C9.70312 22.2656 9.375 21.9375 8.95312 21.9375C8.57812 21.9375 8.25 22.2656 8.25 22.6406C8.25 23.0625 8.57812 23.3906 8.95312 23.3906C10.0312 23.3906 10.9219 24.2812 10.9219 25.3594C10.9219 26.2031 10.4062 26.9531 9.60938 27.1875V27.75H8.34375V27.1875C7.54688 26.9531 7.03125 26.2031 7.03125 25.3594V25.1719H8.25V25.3594C8.25 25.7344 8.57812 26.0625 8.95312 26.0625C9.375 26.0625 9.70312 25.7344 9.70312 25.3594C9.70312 24.9375 9.375 24.6094 8.95312 24.6094C7.875 24.6094 7.03125 23.7188 7.03125 22.6406C7.03125 21.7969 7.54688 21.0469 8.34375 20.8125V20.25H9.60938ZM20.25 8.48438V9.51562H21.2344V8.48438H22.2188V9.51562C22.5938 9.51562 22.9688 9.65625 23.2031 9.89062C23.8125 10.4531 23.8594 11.3906 23.2969 12C23.5781 12.2812 23.7188 12.6562 23.7188 13.0312C23.7188 13.875 23.0156 14.5312 22.2188 14.5312V15.5156H21.2344V14.5312H20.25V15.5156H19.2188V14.5312H18.2344V13.5H19.2188V10.5H18.2344V9.51562H19.2188V8.48438H20.25ZM22.2188 12.5156H20.25V13.5H22.2188C22.5 13.5 22.7344 13.2656 22.7344 12.9844C22.7344 12.75 22.5 12.5156 22.2188 12.5156ZM22.2188 10.5H20.25V11.5312H22.2188C22.5 11.5312 22.7344 11.2969 22.7344 11.0156C22.7344 10.7344 22.5 10.5 22.2188 10.5Z" fill="black" fill-opacity="0.72"/>
</g>
<defs>
<clipPath id="clip0_1731_6708">
<rect width="30" height="36" fill="white"/>
</clipPath>
</defs>
</svg>
