<svg width="18" height="30" viewBox="0 0 18 30" fill="none" xmlns="http://www.w3.org/2000/svg">
<g id="label-paired / lg / calendar-lg / bold" clip-path="url(#clip0_1731_5326)">
<path id="icon" d="M6.1875 6.4375V8H11.8125V6.4375C11.8646 5.86458 12.1771 5.55208 12.75 5.5C13.3229 5.55208 13.6354 5.86458 13.6875 6.4375V8H15.25C15.9531 8.02604 16.5391 8.27344 17.0078 8.74219C17.4766 9.21094 17.724 9.79688 17.75 10.5V11.125V13V23C17.724 23.7031 17.4766 24.2891 17.0078 24.7578C16.5391 25.2266 15.9531 25.474 15.25 25.5H2.75C2.04688 25.474 1.46094 25.2266 0.992188 24.7578C0.523438 24.2891 0.276042 23.7031 0.25 23V13V11.125V10.5C0.276042 9.79688 0.523438 9.21094 0.992188 8.74219C1.46094 8.27344 2.04688 8.02604 2.75 8H4.3125V6.4375C4.36458 5.86458 4.67708 5.55208 5.25 5.5C5.82292 5.55208 6.13542 5.86458 6.1875 6.4375ZM2.125 13V23C2.15104 23.3906 2.35938 23.599 2.75 23.625H15.25C15.6406 23.599 15.849 23.3906 15.875 23V13H2.125Z" fill="black" fill-opacity="0.72"/>
</g>
<defs>
<clipPath id="clip0_1731_5326">
<rect width="18" height="30" fill="white"/>
</clipPath>
</defs>
</svg>
