<svg width="12" height="18" viewBox="0 0 12 18" fill="none" xmlns="http://www.w3.org/2000/svg">
<g id="label-paired / caption / circle-xmark-caption / bold" clip-path="url(#clip0_1731_546)">
<path id="icon" d="M6 4.625C5.10938 4.625 4.29688 4.84375 3.5625 5.28125C2.82812 5.70312 2.23438 6.29688 1.78125 7.0625C1.34375 7.82812 1.125 8.64062 1.125 9.5C1.125 10.3594 1.34375 11.1719 1.78125 11.9375C2.23438 12.7031 2.82812 13.2969 3.5625 13.7188C4.29688 14.1562 5.10938 14.375 6 14.375C6.89062 14.375 7.70312 14.1562 8.4375 13.7188C9.17188 13.2969 9.76562 12.7031 10.2188 11.9375C10.6562 11.1719 10.875 10.3594 10.875 9.5C10.875 8.64062 10.6562 7.82812 10.2188 7.0625C9.76562 6.29688 9.17188 5.70312 8.4375 5.28125C7.70312 4.84375 6.89062 4.625 6 4.625ZM6 15.5C4.90625 15.4844 3.90625 15.2188 3 14.7031C2.09375 14.1719 1.35938 13.4375 0.796875 12.5C0.265625 11.5469 0 10.5469 0 9.5C0 8.45312 0.265625 7.45312 0.796875 6.5C1.35938 5.5625 2.09375 4.82812 3 4.29688C3.90625 3.78125 4.90625 3.51563 6 3.5C7.09375 3.51563 8.09375 3.78125 9 4.29688C9.90625 4.82812 10.6406 5.5625 11.2031 6.5C11.7344 7.45312 12 8.45312 12 9.5C12 10.5469 11.7344 11.5469 11.2031 12.5C10.6406 13.4375 9.90625 14.1719 9 14.7031C8.09375 15.2188 7.09375 15.4844 6 15.5ZM4.10156 7.60156C4.36719 7.38281 4.63281 7.38281 4.89844 7.60156L6 8.70312L7.10156 7.60156C7.36719 7.38281 7.63281 7.38281 7.89844 7.60156C8.11719 7.86719 8.11719 8.13281 7.89844 8.39844L6.79688 9.5L7.89844 10.6016C8.11719 10.8672 8.11719 11.1328 7.89844 11.3984C7.63281 11.6172 7.36719 11.6172 7.10156 11.3984L6 10.2969L4.89844 11.3984C4.63281 11.6172 4.36719 11.6172 4.10156 11.3984C3.88281 11.1328 3.88281 10.8672 4.10156 10.6016L5.20312 9.5L4.10156 8.39844C3.88281 8.13281 3.88281 7.86719 4.10156 7.60156Z" fill="black" fill-opacity="0.72"/>
</g>
<defs>
<clipPath id="clip0_1731_546">
<rect width="12" height="18" fill="white"/>
</clipPath>
</defs>
</svg>
