<svg width="24" height="36" viewBox="0 0 24 36" fill="none" xmlns="http://www.w3.org/2000/svg">
<g id="label-paired / xl / arrows-rotate-xl / bold" clip-path="url(#clip0_1731_5703)">
<path id="icon" d="M23.25 15.375C23.1875 16.0625 22.8125 16.4375 22.125 16.5H16.875H15.375C14.6875 16.4375 14.3125 16.0625 14.25 15.375C14.3125 14.6875 14.6875 14.3125 15.375 14.25H16.875H19.4062L16.9688 11.8125C15.5938 10.4688 13.9375 9.78125 12 9.75C10.2812 9.78125 8.75 10.25 7.40625 11.1562C6.0625 12.0625 5.0625 13.2656 4.40625 14.7656C4.09375 15.3906 3.60938 15.5938 2.95312 15.375C2.32812 15.0312 2.125 14.5312 2.34375 13.875C3.15625 11.9688 4.42188 10.4375 6.14062 9.28125C7.85938 8.125 9.8125 7.53125 12 7.5C14.5312 7.53125 16.7188 8.4375 18.5625 10.2188L21 12.6562V10.125V8.625C21.0625 7.9375 21.4375 7.5625 22.125 7.5C22.8125 7.5625 23.1875 7.9375 23.25 8.625V15.375ZM1.875 19.5H7.125C7.8125 19.5625 8.1875 19.9375 8.25 20.625C8.1875 21.3125 7.8125 21.6875 7.125 21.75H4.59375L7.03125 24.1875C8.40625 25.5312 10.0625 26.2188 12 26.25C13.7188 26.2188 15.25 25.75 16.5938 24.8438C17.9375 23.9375 18.9375 22.7344 19.5938 21.2344C19.9062 20.6406 20.3906 20.4531 21.0469 20.6719C21.6719 20.9844 21.875 21.4688 21.6562 22.125C20.8125 24.0312 19.5469 25.5625 17.8594 26.7188C16.1406 27.875 14.1875 28.4688 12 28.5C9.46875 28.4688 7.28125 27.5625 5.4375 25.7812L3 23.3438V25.875C2.9375 26.5625 2.5625 26.9375 1.875 27C1.1875 26.9375 0.8125 26.5625 0.75 25.875V20.625C0.8125 19.9375 1.1875 19.5625 1.875 19.5Z" fill="black" fill-opacity="0.72"/>
</g>
<defs>
<clipPath id="clip0_1731_5703">
<rect width="24" height="36" fill="white"/>
</clipPath>
</defs>
</svg>
