<svg width="13" height="22" viewBox="0 0 13 22" fill="none" xmlns="http://www.w3.org/2000/svg">
<g id="label-paired / sm / stopwatch-sm / regular" clip-path="url(#clip0_1731_1957)">
<path id="icon" d="M3.875 4.1875C3.89323 3.91406 4.03906 3.76823 4.3125 3.75H8.6875C8.96094 3.76823 9.10677 3.91406 9.125 4.1875C9.10677 4.46094 8.96094 4.60677 8.6875 4.625H6.9375V6.40234C8.32292 6.52995 9.48958 7.04948 10.4375 7.96094L11.4492 6.94922C11.6497 6.76693 11.8503 6.76693 12.0508 6.94922C12.2331 7.14974 12.2331 7.35026 12.0508 7.55078L11.0117 8.58984C11.7773 9.57422 12.1693 10.7318 12.1875 12.0625C12.151 13.6667 11.5951 15.0065 10.5195 16.082C9.44401 17.1576 8.10417 17.7135 6.5 17.75C4.89583 17.7135 3.55599 17.1576 2.48047 16.082C1.40495 15.0065 0.848958 13.6667 0.8125 12.0625C0.848958 10.5312 1.35938 9.23698 2.34375 8.17969C3.32812 7.14062 4.56771 6.54818 6.0625 6.40234V4.625H4.3125C4.03906 4.60677 3.89323 4.46094 3.875 4.1875ZM1.6875 12.0625C1.6875 12.9375 1.90625 13.7396 2.34375 14.4688C2.76302 15.1979 3.34635 15.7812 4.09375 16.2188C4.85938 16.6562 5.66146 16.875 6.5 16.875C7.33854 16.875 8.14062 16.6562 8.90625 16.2188C9.65365 15.7812 10.237 15.1979 10.6562 14.4688C11.0938 13.7396 11.3125 12.9375 11.3125 12.0625C11.3125 11.1875 11.0938 10.3854 10.6562 9.65625C10.237 8.92708 9.65365 8.34375 8.90625 7.90625C8.14062 7.46875 7.33854 7.25 6.5 7.25C5.66146 7.25 4.85938 7.46875 4.09375 7.90625C3.34635 8.34375 2.76302 8.92708 2.34375 9.65625C1.90625 10.3854 1.6875 11.1875 1.6875 12.0625ZM6.9375 9.4375V12.5C6.91927 12.7734 6.77344 12.9193 6.5 12.9375C6.22656 12.9193 6.08073 12.7734 6.0625 12.5V9.4375C6.08073 9.16406 6.22656 9.01823 6.5 9C6.77344 9.01823 6.91927 9.16406 6.9375 9.4375Z" fill="black" fill-opacity="0.72"/>
</g>
<defs>
<clipPath id="clip0_1731_1957">
<rect width="13" height="22" fill="white"/>
</clipPath>
</defs>
</svg>
