<svg width="15" height="18" viewBox="0 0 15 18" fill="none" xmlns="http://www.w3.org/2000/svg">
<g id="label-paired / caption / huawei-app-gallery-caption" clip-path="url(#clip0_1731_13786)">
<path id="icon" d="M6.89062 9.92188L6.67969 10.4609L6.65625 10.5078H7.14844L7.125 10.4609L6.89062 9.92188ZM10.6875 3.5C12.2344 3.5 13.5 4.76562 13.5 6.3125V12.7109C13.5 14.2578 12.2344 15.5 10.6875 15.5H4.28906C2.74219 15.5 1.5 14.2578 1.5 12.7109V6.3125C1.5 4.76562 2.74219 3.5 4.28906 3.5H10.6875ZM8.64844 9.5L8.29688 10.625L7.94531 9.5H7.61719L8.15625 11.1406H8.4375L8.78906 10.0625L9.14062 11.1406H9.39844L9.96094 9.5H9.63281L9.28125 10.625L8.92969 9.5H8.64844ZM6.77344 9.5L6.07031 11.1406H6.39844L6.53906 10.8359V10.8125H7.26562L7.40625 11.1406H7.73438L7.05469 9.52344V9.5H6.77344ZM11.7656 9.5V11.1406H12.0938V9.5H11.7656ZM2.76562 9.5V11.1406H3.09375V10.4844H3.79688V11.1406H4.125V9.5H3.79688V10.1797H3.09375V9.5H2.76562ZM5.60156 9.5V9.52344V10.4375C5.60156 10.7188 5.46094 10.8594 5.25 10.8594C5.01562 10.8594 4.875 10.7188 4.875 10.4375V9.52344H4.57031V10.4375C4.57031 10.9062 4.80469 11.1641 5.22656 11.1641C5.67188 11.1641 5.90625 10.9062 5.90625 10.4375V9.5H5.60156ZM10.2188 9.5V9.52344V11.1406H11.3906V10.8359H10.5234V10.4375H11.1094V10.1328H10.5234V9.80469H11.3672V9.5H10.2188ZM5.29688 5.42188C5.29688 6.57031 6.25781 7.48438 7.42969 7.48438C8.60156 7.48438 9.5625 6.57031 9.5625 5.42188H9.25781C9.25781 6.40625 8.4375 7.17969 7.42969 7.17969C6.42188 7.17969 5.60156 6.40625 5.60156 5.42188H5.29688Z" fill="black" fill-opacity="0.72"/>
</g>
<defs>
<clipPath id="clip0_1731_13786">
<rect width="15" height="18" fill="white"/>
</clipPath>
</defs>
</svg>
