<svg width="16" height="24" viewBox="0 0 16 24" fill="none" xmlns="http://www.w3.org/2000/svg">
<g id="label-paired / md / image-md / regular" clip-path="url(#clip0_1731_4285)">
<path id="icon" d="M2 6C1.70833 6 1.46875 6.09375 1.28125 6.28125C1.09375 6.46875 1 6.70833 1 7V14.2812L3.125 12.1875C3.375 11.9375 3.66667 11.8125 4 11.8125C4.33333 11.8125 4.625 11.9375 4.875 12.1875L7 14.2812L11.125 10.1875C11.375 9.9375 11.6667 9.8125 12 9.8125C12.3333 9.8125 12.625 9.9375 12.875 10.1875L15 12.2812V7C15 6.70833 14.9062 6.46875 14.7188 6.28125C14.5312 6.09375 14.2917 6 14 6H2ZM1 15.7188V17C1 17.2917 1.09375 17.5312 1.28125 17.7188C1.46875 17.9062 1.70833 18 2 18H3.28125L6.28125 15L4.1875 12.875C4.0625 12.7917 3.9375 12.7917 3.8125 12.875L1 15.7188ZM12.1875 10.875C12.0625 10.7917 11.9375 10.7917 11.8125 10.875L4.71875 18H14C14.2917 18 14.5312 17.9062 14.7188 17.7188C14.9062 17.5312 15 17.2917 15 17V13.7188L12.1875 10.875ZM0 7C0.0208333 6.4375 0.21875 5.96875 0.59375 5.59375C0.96875 5.21875 1.4375 5.02083 2 5H14C14.5625 5.02083 15.0312 5.21875 15.4062 5.59375C15.7812 5.96875 15.9792 6.4375 16 7V17C15.9792 17.5625 15.7812 18.0312 15.4062 18.4062C15.0312 18.7812 14.5625 18.9792 14 19H2C1.4375 18.9792 0.96875 18.7812 0.59375 18.4062C0.21875 18.0312 0.0208333 17.5625 0 17V7ZM5 8.5C4.97917 8.1875 4.8125 8.02083 4.5 8C4.1875 8.02083 4.02083 8.1875 4 8.5C4.02083 8.8125 4.1875 8.97917 4.5 9C4.8125 8.97917 4.97917 8.8125 5 8.5ZM3 8.5C3.02083 7.9375 3.27083 7.5 3.75 7.1875C4.25 6.9375 4.75 6.9375 5.25 7.1875C5.72917 7.5 5.97917 7.9375 6 8.5C5.97917 9.0625 5.72917 9.5 5.25 9.8125C4.75 10.0625 4.25 10.0625 3.75 9.8125C3.27083 9.5 3.02083 9.0625 3 8.5Z" fill="black" fill-opacity="0.72"/>
</g>
<defs>
<clipPath id="clip0_1731_4285">
<rect width="16" height="24" fill="white"/>
</clipPath>
</defs>
</svg>
