<svg width="13" height="22" viewBox="0 0 13 22" fill="none" xmlns="http://www.w3.org/2000/svg">
<g id="label-paired / sm / expand-sm / bold" clip-path="url(#clip0_1731_1839)">
<path id="icon" d="M4.09375 4.625C4.49479 4.66146 4.71354 4.88021 4.75 5.28125C4.71354 5.68229 4.49479 5.90104 4.09375 5.9375H1.6875V8.34375C1.65104 8.74479 1.43229 8.96354 1.03125 9C0.630208 8.96354 0.411458 8.74479 0.375 8.34375V5.28125C0.411458 4.88021 0.630208 4.66146 1.03125 4.625H4.09375ZM0.375 13.1562C0.411458 12.7552 0.630208 12.5365 1.03125 12.5C1.43229 12.5365 1.65104 12.7552 1.6875 13.1562V15.5625H4.09375C4.49479 15.599 4.71354 15.8177 4.75 16.2188C4.71354 16.6198 4.49479 16.8385 4.09375 16.875H1.03125C0.630208 16.8385 0.411458 16.6198 0.375 16.2188V13.1562ZM11.9688 4.625C12.3698 4.66146 12.5885 4.88021 12.625 5.28125V8.34375C12.5885 8.74479 12.3698 8.96354 11.9688 9C11.5677 8.96354 11.349 8.74479 11.3125 8.34375V5.9375H8.90625C8.50521 5.90104 8.28646 5.68229 8.25 5.28125C8.28646 4.88021 8.50521 4.66146 8.90625 4.625H11.9688ZM11.3125 13.1562C11.349 12.7552 11.5677 12.5365 11.9688 12.5C12.3698 12.5365 12.5885 12.7552 12.625 13.1562V16.2188C12.5885 16.6198 12.3698 16.8385 11.9688 16.875H8.90625C8.50521 16.8385 8.28646 16.6198 8.25 16.2188C8.28646 15.8177 8.50521 15.599 8.90625 15.5625H11.3125V13.1562Z" fill="black" fill-opacity="0.72"/>
</g>
<defs>
<clipPath id="clip0_1731_1839">
<rect width="13" height="22" fill="white"/>
</clipPath>
</defs>
</svg>
