<svg width="25" height="30" viewBox="0 0 25 30" fill="none" xmlns="http://www.w3.org/2000/svg">
<g id="label-paired / lg / take-profit-lg / bold" clip-path="url(#clip0_1731_5506)">
<path id="icon" d="M8.78906 12.2969V20.7344H6.48438V12.2969H3.67188V10.2656H11.6016V12.2969H8.78906ZM13.1641 20.7344V10.2656H18.125C18.5938 10.2656 19.0625 10.3828 19.4531 10.5391C19.8438 10.6953 20.1562 10.9297 20.4297 11.2031C20.7031 11.5156 20.9375 11.8672 21.0938 12.2969C21.2109 12.6875 21.2891 13.1562 21.2891 13.625C21.2891 14.1328 21.2109 14.6016 21.0938 14.9922C20.9375 15.4219 20.7031 15.7734 20.4297 16.0469C20.1562 16.3203 19.8438 16.5547 19.4531 16.75C19.0625 16.9062 18.6328 16.9844 18.125 16.9844H15.4688V20.7344H13.1641ZM15.4688 14.9922H17.8516C18.2031 14.9922 18.4766 14.9141 18.6328 14.7188C18.8672 14.5625 18.9453 14.2891 18.9453 13.9375V13.3125C18.9453 12.9609 18.8672 12.6875 18.6328 12.5312C18.4766 12.3359 18.2031 12.2578 17.8516 12.2578H15.4688V14.9922Z" fill="black" fill-opacity="0.72"/>
</g>
<defs>
<clipPath id="clip0_1731_5506">
<rect width="25" height="30" fill="white"/>
</clipPath>
</defs>
</svg>
