<svg width="18" height="22" viewBox="0 0 18 22" fill="none" xmlns="http://www.w3.org/2000/svg">
<g id="label-paired / sm / bell-slash-sm / bold" clip-path="url(#clip0_1731_2548)">
<path id="icon" d="M1.31641 3.88672L5.28125 7.00391C5.9375 5.96484 6.88542 5.33594 8.125 5.11719V4.625C8.125 4.36979 8.20703 4.16016 8.37109 3.99609C8.53516 3.83203 8.74479 3.75 9 3.75C9.25521 3.75 9.46484 3.83203 9.62891 3.99609C9.79297 4.16016 9.875 4.36979 9.875 4.625V5.11719C10.8958 5.29948 11.7253 5.76432 12.3633 6.51172C13.0195 7.25911 13.3568 8.16146 13.375 9.21875V10.1211C13.3932 11.3971 13.7943 12.5365 14.5781 13.5391L14.9883 14.0586C15.1341 14.2591 15.1706 14.4688 15.0977 14.6875L17.5039 16.5742C17.7956 16.8477 17.832 17.1576 17.6133 17.5039C17.3398 17.7956 17.0299 17.832 16.6836 17.6133L0.496094 4.92578C0.204427 4.65234 0.167969 4.34245 0.386719 3.99609C0.660156 3.70443 0.970052 3.66797 1.31641 3.88672ZM6.32031 7.79688L12.582 12.7188C12.2357 11.8984 12.0625 11.0326 12.0625 10.1211V9.21875C12.0443 8.41667 11.7708 7.74219 11.2422 7.19531C10.6953 6.66667 10.0208 6.39323 9.21875 6.375H9H8.78125C8.2526 6.375 7.76953 6.5026 7.33203 6.75781C6.89453 7.03125 6.55729 7.3776 6.32031 7.79688ZM11.3516 15.125H3.53125C3.25781 15.1068 3.05729 14.9792 2.92969 14.7422C2.83854 14.5052 2.86589 14.2773 3.01172 14.0586L3.42188 13.5391C4.20573 12.5365 4.60677 11.4062 4.625 10.1484V9.82031L5.91016 10.832C5.78255 11.9076 5.42708 12.901 4.84375 13.8125H9.68359L11.3516 15.125ZM10.75 16C10.75 16.474 10.5768 16.8841 10.2305 17.2305C9.88411 17.5768 9.47396 17.75 9 17.75C8.52604 17.75 8.11589 17.5768 7.76953 17.2305C7.42318 16.8841 7.25 16.474 7.25 16H9H10.75Z" fill="black" fill-opacity="0.72"/>
</g>
<defs>
<clipPath id="clip0_1731_2548">
<rect width="18" height="22" fill="white"/>
</clipPath>
</defs>
</svg>
