<svg width="18" height="36" viewBox="0 0 18 36" fill="none" xmlns="http://www.w3.org/2000/svg">
<g id="label-paired / xl / arrow-up-to-line-xl / regular" clip-path="url(#clip0_1731_5941)">
<path id="icon" d="M0.75 7.5H17.25C17.7188 7.53125 17.9688 7.78125 18 8.25C17.9688 8.71875 17.7188 8.96875 17.25 9H0.75C0.28125 8.96875 0.03125 8.71875 0 8.25C0.03125 7.78125 0.28125 7.53125 0.75 7.5ZM9.51562 12.2344L15.5156 18.2344C15.8281 18.5781 15.8281 18.9219 15.5156 19.2656C15.1719 19.5781 14.8281 19.5781 14.4844 19.2656L9.75 14.5781V19.5V27.75C9.71875 28.2188 9.46875 28.4688 9 28.5C8.53125 28.4688 8.28125 28.2188 8.25 27.75V19.5V14.5781L3.51562 19.2656C3.17188 19.5781 2.82812 19.5781 2.48438 19.2656C2.17188 18.9219 2.17188 18.5781 2.48438 18.2344L8.48438 12.2344C8.82812 11.9219 9.17188 11.9219 9.51562 12.2344Z" fill="black" fill-opacity="0.72"/>
</g>
<defs>
<clipPath id="clip0_1731_5941">
<rect width="18" height="36" fill="white"/>
</clipPath>
</defs>
</svg>
