<svg width="14" height="24" viewBox="0 0 14 24" fill="none" xmlns="http://www.w3.org/2000/svg">
<g id="label-paired / md / flag-checkered-md / regular" clip-path="url(#clip0_1731_3941)">
<path id="icon" d="M1 4.5V5.84375L4.0625 5C5.39583 4.66667 6.67708 4.79167 7.90625 5.375C8.55208 5.70833 9.23958 5.86458 9.96875 5.84375C10.6979 5.82292 11.3854 5.63542 12.0312 5.28125L12.5 5C12.8542 4.8125 13.1875 4.8125 13.5 5C13.8125 5.16667 13.9792 5.44792 14 5.84375V14.6875C13.9792 15.1042 13.7812 15.4062 13.4062 15.5938L12.4375 16C11.6458 16.3333 10.8333 16.4896 10 16.4688C9.16667 16.4479 8.36458 16.2396 7.59375 15.8438C6.48958 15.3229 5.35417 15.2083 4.1875 15.5L1 16.375V19.5C0.979167 19.8125 0.8125 19.9792 0.5 20C0.1875 19.9792 0.0208333 19.8125 0 19.5V16.6562V16V6.5V6.125V4.5C0.0208333 4.1875 0.1875 4.02083 0.5 4C0.8125 4.02083 0.979167 4.1875 1 4.5ZM1 6.875V8.8125L4 8.1875V6.0625L1 6.875ZM1 9.84375V12.0625L4 11.4375V9.1875L1 9.84375ZM5 8.96875V11.1875C5.70833 11.0625 6.41667 11.1042 7.125 11.3125L9 11.8438V9.65625C8.95833 9.63542 8.90625 9.61458 8.84375 9.59375L6.84375 9.03125C6.26042 8.86458 5.6875 8.84375 5.125 8.96875H5ZM10 9.8125V12.0625C10.4792 12.1042 10.9479 12.0729 11.4062 11.9688L13 11.5938V9.375L11.6562 9.6875C11.0938 9.8125 10.5417 9.85417 10 9.8125ZM9 12.9062C8.95833 12.8854 8.90625 12.8646 8.84375 12.8438L6.84375 12.2812C6.26042 12.1146 5.6875 12.0938 5.125 12.2188H5V14.375C6.0625 14.2917 7.07292 14.4896 8.03125 14.9688C8.34375 15.1146 8.66667 15.2292 9 15.3125V12.9062ZM10 15.4688C10.7083 15.4896 11.3958 15.3542 12.0625 15.0625L13 14.6875V12.625L11.6562 12.9375C11.0938 13.0625 10.5417 13.1042 10 13.0625V15.4688ZM10 8.8125C10.4792 8.85417 10.9479 8.82292 11.4062 8.71875L13 8.34375V5.875L12.5 6.125C11.7083 6.58333 10.875 6.82292 10 6.84375V8.8125ZM9 6.78125C8.45833 6.69792 7.9375 6.53125 7.4375 6.28125C6.66667 5.90625 5.85417 5.76042 5 5.84375V7.96875C5.70833 7.82292 6.41667 7.85417 7.125 8.0625L9 8.625V6.78125ZM1 13.0938V15.3438L3.90625 14.5625C3.94792 14.5417 3.97917 14.5312 4 14.5312V12.4375L1 13.0938Z" fill="black" fill-opacity="0.72"/>
</g>
<defs>
<clipPath id="clip0_1731_3941">
<rect width="14" height="24" fill="white"/>
</clipPath>
</defs>
</svg>
