<svg width="12" height="18" viewBox="0 0 12 18" fill="none" xmlns="http://www.w3.org/2000/svg">
<g id="label-paired / caption / circle-info-caption / regular" clip-path="url(#clip0_1731_1636)">
<path id="icon" d="M6 4.25C5.04688 4.26562 4.17188 4.5 3.375 4.95312C2.57812 5.42188 1.9375 6.0625 1.45312 6.875C0.984375 7.70312 0.75 8.57812 0.75 9.5C0.75 10.4219 0.984375 11.2969 1.45312 12.125C1.9375 12.9375 2.57812 13.5781 3.375 14.0469C4.17188 14.5 5.04688 14.7344 6 14.75C6.95312 14.7344 7.82812 14.5 8.625 14.0469C9.42188 13.5781 10.0625 12.9375 10.5469 12.125C11.0156 11.2969 11.25 10.4219 11.25 9.5C11.25 8.57812 11.0156 7.70312 10.5469 6.875C10.0625 6.0625 9.42188 5.42188 8.625 4.95312C7.82812 4.5 6.95312 4.26562 6 4.25ZM6 15.5C4.90625 15.4844 3.90625 15.2188 3 14.7031C2.09375 14.1719 1.35938 13.4375 0.796875 12.5C0.265625 11.5469 0 10.5469 0 9.5C0 8.45312 0.265625 7.45312 0.796875 6.5C1.35938 5.5625 2.09375 4.82812 3 4.29688C3.90625 3.78125 4.90625 3.51563 6 3.5C7.09375 3.51563 8.09375 3.78125 9 4.29688C9.90625 4.82812 10.6406 5.5625 11.2031 6.5C11.7344 7.45312 12 8.45312 12 9.5C12 10.5469 11.7344 11.5469 11.2031 12.5C10.6406 13.4375 9.90625 14.1719 9 14.7031C8.09375 15.2188 7.09375 15.4844 6 15.5ZM4.875 11.75H5.625V9.5H5.0625C4.82812 9.48438 4.70312 9.35938 4.6875 9.125C4.70312 8.89062 4.82812 8.76562 5.0625 8.75H6C6.23438 8.76562 6.35938 8.89062 6.375 9.125V11.75H7.125C7.35938 11.7656 7.48438 11.8906 7.5 12.125C7.48438 12.3594 7.35938 12.4844 7.125 12.5H4.875C4.64062 12.4844 4.51562 12.3594 4.5 12.125C4.51562 11.8906 4.64062 11.7656 4.875 11.75ZM6 7.8125C5.65625 7.78125 5.46875 7.59375 5.4375 7.25C5.46875 6.90625 5.65625 6.71875 6 6.6875C6.34375 6.71875 6.53125 6.90625 6.5625 7.25C6.53125 7.59375 6.34375 7.78125 6 7.8125Z" fill="black" fill-opacity="0.72"/>
</g>
<defs>
<clipPath id="clip0_1731_1636">
<rect width="12" height="18" fill="white"/>
</clipPath>
</defs>
</svg>
