<svg width="18" height="30" viewBox="0 0 18 30" fill="none" xmlns="http://www.w3.org/2000/svg">
<g id="label-paired / lg / unlock-lg / bold" clip-path="url(#clip0_1731_5054)">
<path id="icon" d="M5.875 10.5V13H15.25C15.9531 13.026 16.5391 13.2734 17.0078 13.7422C17.4766 14.2109 17.724 14.7969 17.75 15.5V23C17.724 23.7031 17.4766 24.2891 17.0078 24.7578C16.5391 25.2266 15.9531 25.474 15.25 25.5H2.75C2.04688 25.474 1.46094 25.2266 0.992188 24.7578C0.523438 24.2891 0.276042 23.7031 0.25 23V15.5C0.276042 14.7969 0.523438 14.2109 0.992188 13.7422C1.46094 13.2734 2.04688 13.026 2.75 13H4V10.5C4.02604 9.09375 4.50781 7.90885 5.44531 6.94531C6.40885 6.00781 7.59375 5.52604 9 5.5C10.1198 5.52604 11.1094 5.85156 11.9688 6.47656C12.8281 7.10156 13.4271 7.9349 13.7656 8.97656C13.8958 9.52344 13.6875 9.91406 13.1406 10.1484C12.5938 10.2786 12.2031 10.0703 11.9688 9.52344C11.7604 8.89844 11.3958 8.39062 10.875 8C10.3281 7.58333 9.70312 7.375 9 7.375C8.11458 7.40104 7.3724 7.70052 6.77344 8.27344C6.20052 8.8724 5.90104 9.61458 5.875 10.5ZM2.125 15.5V23C2.15104 23.3906 2.35938 23.599 2.75 23.625H15.25C15.6406 23.599 15.849 23.3906 15.875 23V15.5C15.849 15.1094 15.6406 14.901 15.25 14.875H2.75C2.35938 14.901 2.15104 15.1094 2.125 15.5Z" fill="black" fill-opacity="0.72"/>
</g>
<defs>
<clipPath id="clip0_1731_5054">
<rect width="18" height="30" fill="white"/>
</clipPath>
</defs>
</svg>
