<svg width="13" height="22" viewBox="0 0 13 22" fill="none" xmlns="http://www.w3.org/2000/svg">
<g id="label-paired / sm / placeholder-sm / bold" clip-path="url(#clip0_1731_1788)">
<path id="icon" d="M2.78125 4.625H3.21875C3.61979 4.66146 3.83854 4.88021 3.875 5.28125C3.83854 5.68229 3.61979 5.90104 3.21875 5.9375H2.78125C2.47135 5.9375 2.21615 6.04688 2.01562 6.26562C1.79688 6.46615 1.6875 6.72135 1.6875 7.03125V7.46875C1.65104 7.86979 1.43229 8.08854 1.03125 8.125C0.630208 8.08854 0.411458 7.86979 0.375 7.46875V7.03125C0.393229 6.35677 0.630208 5.79167 1.08594 5.33594C1.54167 4.88021 2.10677 4.64323 2.78125 4.625ZM1.03125 9C1.43229 9.03646 1.65104 9.25521 1.6875 9.65625V11.8438C1.65104 12.2448 1.43229 12.4635 1.03125 12.5C0.630208 12.4635 0.411458 12.2448 0.375 11.8438V9.65625C0.411458 9.25521 0.630208 9.03646 1.03125 9ZM11.9688 9C12.3698 9.03646 12.5885 9.25521 12.625 9.65625V11.8438C12.5885 12.2448 12.3698 12.4635 11.9688 12.5C11.5677 12.4635 11.349 12.2448 11.3125 11.8438V9.65625C11.349 9.25521 11.5677 9.03646 11.9688 9ZM11.9688 8.125C11.5677 8.08854 11.349 7.86979 11.3125 7.46875V7.03125C11.3125 6.72135 11.2031 6.46615 10.9844 6.26562C10.7839 6.04688 10.5286 5.9375 10.2188 5.9375H9.78125C9.38021 5.90104 9.16146 5.68229 9.125 5.28125C9.16146 4.88021 9.38021 4.66146 9.78125 4.625H10.2188C10.8932 4.64323 11.4583 4.88021 11.9141 5.33594C12.3698 5.79167 12.6068 6.35677 12.625 7.03125V7.46875C12.5885 7.86979 12.3698 8.08854 11.9688 8.125ZM12.625 14.0312V14.4688C12.6068 15.1432 12.3698 15.7083 11.9141 16.1641C11.4583 16.6198 10.8932 16.8568 10.2188 16.875H9.78125C9.38021 16.8385 9.16146 16.6198 9.125 16.2188C9.16146 15.8177 9.38021 15.599 9.78125 15.5625H10.2188C10.5286 15.5625 10.7839 15.4531 10.9844 15.2344C11.2031 15.0339 11.3125 14.7786 11.3125 14.4688V14.0312C11.349 13.6302 11.5677 13.4115 11.9688 13.375C12.3698 13.4115 12.5885 13.6302 12.625 14.0312ZM1.6875 14.0312V14.4688C1.6875 14.7786 1.79688 15.0339 2.01562 15.2344C2.21615 15.4531 2.47135 15.5625 2.78125 15.5625H3.21875C3.61979 15.599 3.83854 15.8177 3.875 16.2188C3.83854 16.6198 3.61979 16.8385 3.21875 16.875H2.78125C2.10677 16.8568 1.54167 16.6198 1.08594 16.1641C0.630208 15.7083 0.393229 15.1432 0.375 14.4688V14.0312C0.411458 13.6302 0.630208 13.4115 1.03125 13.375C1.43229 13.4115 1.65104 13.6302 1.6875 14.0312ZM5.40625 16.875C5.00521 16.8385 4.78646 16.6198 4.75 16.2188C4.78646 15.8177 5.00521 15.599 5.40625 15.5625H7.59375C7.99479 15.599 8.21354 15.8177 8.25 16.2188C8.21354 16.6198 7.99479 16.8385 7.59375 16.875H5.40625ZM4.75 5.28125C4.78646 4.88021 5.00521 4.66146 5.40625 4.625H7.59375C7.99479 4.66146 8.21354 4.88021 8.25 5.28125C8.21354 5.68229 7.99479 5.90104 7.59375 5.9375H5.40625C5.00521 5.90104 4.78646 5.68229 4.75 5.28125Z" fill="black" fill-opacity="0.72"/>
</g>
<defs>
<clipPath id="clip0_1731_1788">
<rect width="13" height="22" fill="white"/>
</clipPath>
</defs>
</svg>
