<svg width="12" height="18" viewBox="0 0 12 18" fill="none" xmlns="http://www.w3.org/2000/svg">
<g id="label-paired / caption / circle-user-caption / regular" clip-path="url(#clip0_1731_1748)">
<path id="icon" d="M9.65625 13.2734C10.1562 12.7891 10.5469 12.2266 10.8281 11.5859C11.1094 10.9453 11.25 10.25 11.25 9.5C11.2344 8.51562 10.9922 7.63281 10.5234 6.85156C10.0703 6.05469 9.44531 5.42969 8.64844 4.97656C7.86719 4.50781 6.98438 4.26562 6 4.25C5.01562 4.26562 4.13281 4.50781 3.35156 4.97656C2.55469 5.42969 1.92969 6.05469 1.47656 6.85156C1.00781 7.63281 0.765625 8.51562 0.75 9.5C0.75 10.25 0.890625 10.9453 1.17188 11.5859C1.45312 12.2266 1.84375 12.7891 2.34375 13.2734C2.51562 12.6016 2.86719 12.0547 3.39844 11.6328C3.91406 11.2266 4.53125 11.0156 5.25 11H6.75C7.46875 11.0156 8.08594 11.2266 8.60156 11.6328C9.13281 12.0547 9.48438 12.6016 9.65625 13.2734ZM9 13.8125C8.9375 13.2188 8.69531 12.7344 8.27344 12.3594C7.86719 11.9688 7.35938 11.7656 6.75 11.75H5.25C4.64062 11.7656 4.13281 11.9688 3.72656 12.3594C3.30469 12.7344 3.0625 13.2188 3 13.8125C3.875 14.4219 4.875 14.7344 6 14.75C7.125 14.7344 8.125 14.4219 9 13.8125ZM6 15.5C4.90625 15.4844 3.90625 15.2188 3 14.7031C2.09375 14.1719 1.35938 13.4375 0.796875 12.5C0.265625 11.5469 0 10.5469 0 9.5C0 8.45312 0.265625 7.45312 0.796875 6.5C1.35938 5.5625 2.09375 4.82812 3 4.29688C3.90625 3.78125 4.90625 3.51563 6 3.5C7.09375 3.51563 8.09375 3.78125 9 4.29688C9.90625 4.82812 10.6406 5.5625 11.2031 6.5C11.7344 7.45312 12 8.45312 12 9.5C12 10.5469 11.7344 11.5469 11.2031 12.5C10.6406 13.4375 9.90625 14.1719 9 14.7031C8.09375 15.2188 7.09375 15.4844 6 15.5ZM6 9.5C6.42188 9.48438 6.75 9.29688 6.98438 8.9375C7.17188 8.5625 7.17188 8.1875 6.98438 7.8125C6.75 7.45312 6.42188 7.26562 6 7.25C5.57812 7.26562 5.25 7.45312 5.01562 7.8125C4.82812 8.1875 4.82812 8.5625 5.01562 8.9375C5.25 9.29688 5.57812 9.48438 6 9.5ZM4.125 8.375C4.14062 7.67188 4.45312 7.13281 5.0625 6.75781C5.6875 6.41406 6.3125 6.41406 6.9375 6.75781C7.54688 7.13281 7.85938 7.67188 7.875 8.375C7.85938 9.07812 7.54688 9.61719 6.9375 9.99219C6.3125 10.3359 5.6875 10.3359 5.0625 9.99219C4.45312 9.61719 4.14062 9.07812 4.125 8.375Z" fill="black" fill-opacity="0.72"/>
</g>
<defs>
<clipPath id="clip0_1731_1748">
<rect width="12" height="18" fill="white"/>
</clipPath>
</defs>
</svg>
