<svg width="14" height="22" viewBox="0 0 14 22" fill="none" xmlns="http://www.w3.org/2000/svg">
<g id="label-paired / sm / search-sm / regular" clip-path="url(#clip0_1731_1877)">
<path id="icon" d="M10.5 9.4375C10.5 8.5625 10.2812 7.76042 9.84375 7.03125C9.42448 6.30208 8.84115 5.71875 8.09375 5.28125C7.32812 4.84375 6.52604 4.625 5.6875 4.625C4.84896 4.625 4.04688 4.84375 3.28125 5.28125C2.53385 5.71875 1.95052 6.30208 1.53125 7.03125C1.09375 7.76042 0.875 8.5625 0.875 9.4375C0.875 10.3125 1.09375 11.1146 1.53125 11.8438C1.95052 12.5729 2.53385 13.1562 3.28125 13.5938C4.04688 14.0312 4.84896 14.25 5.6875 14.25C6.52604 14.25 7.32812 14.0312 8.09375 13.5938C8.84115 13.1562 9.42448 12.5729 9.84375 11.8438C10.2812 11.1146 10.5 10.3125 10.5 9.4375ZM9.37891 13.7578C8.35807 14.6328 7.1276 15.0885 5.6875 15.125C4.08333 15.0885 2.74349 14.5326 1.66797 13.457C0.592448 12.3815 0.0364583 11.0417 0 9.4375C0.0364583 7.83333 0.592448 6.49349 1.66797 5.41797C2.74349 4.34245 4.08333 3.78646 5.6875 3.75C7.29167 3.78646 8.63151 4.34245 9.70703 5.41797C10.7826 6.49349 11.3385 7.83333 11.375 9.4375C11.3385 10.8776 10.8828 12.1081 10.0078 13.1289L13.8633 17.0117C14.0456 17.2122 14.0456 17.4128 13.8633 17.6133C13.6628 17.7956 13.4622 17.7956 13.2617 17.6133L9.37891 13.7578Z" fill="black" fill-opacity="0.72"/>
</g>
<defs>
<clipPath id="clip0_1731_1877">
<rect width="14" height="22" fill="white"/>
</clipPath>
</defs>
</svg>
