<svg width="24" height="36" viewBox="0 0 24 36" fill="none" xmlns="http://www.w3.org/2000/svg">
<g id="label-paired / xl / gauge-min-xl / regular" clip-path="url(#clip0_1731_5781)">
<path id="icon" d="M12 7.5C10.0938 7.53125 8.34375 8 6.75 8.90625C5.15625 9.84375 3.875 11.125 2.90625 12.75C1.96875 14.4062 1.5 16.1562 1.5 18C1.5 19.8438 1.96875 21.5938 2.90625 23.25C3.875 24.875 5.15625 26.1562 6.75 27.0938C8.34375 28 10.0938 28.4688 12 28.5C13.9062 28.4688 15.6562 28 17.25 27.0938C18.8438 26.1562 20.125 24.875 21.0938 23.25C22.0312 21.5938 22.5 19.8438 22.5 18C22.5 16.1562 22.0312 14.4062 21.0938 12.75C20.125 11.125 18.8438 9.84375 17.25 8.90625C15.6562 8 13.9062 7.53125 12 7.5ZM12 30C9.8125 29.9688 7.8125 29.4375 6 28.4062C4.1875 27.3438 2.71875 25.875 1.59375 24C0.53125 22.0938 0 20.0938 0 18C0 15.9062 0.53125 13.9062 1.59375 12C2.71875 10.125 4.1875 8.65625 6 7.59375C7.8125 6.5625 9.8125 6.03125 12 6C14.1875 6.03125 16.1875 6.5625 18 7.59375C19.8125 8.65625 21.2812 10.125 22.4062 12C23.4688 13.9062 24 15.9062 24 18C24 20.0938 23.4688 22.0938 22.4062 24C21.2812 25.875 19.8125 27.3438 18 28.4062C16.1875 29.4375 14.1875 29.9688 12 30ZM13.125 10.5C13.0625 11.1875 12.6875 11.5625 12 11.625C11.3125 11.5625 10.9375 11.1875 10.875 10.5C10.9375 9.8125 11.3125 9.4375 12 9.375C12.6875 9.4375 13.0625 9.8125 13.125 10.5ZM10.5 22.5C10.5 22.9375 10.6406 23.2969 10.9219 23.5781C11.2031 23.8594 11.5625 24 12 24C12.4375 24 12.7969 23.8594 13.0781 23.5781C13.3594 23.2969 13.5 22.9375 13.5 22.5C13.5 22.0625 13.3594 21.7031 13.0781 21.4219C12.7969 21.1406 12.4375 21 12 21C11.5625 21 11.2031 21.1406 10.9219 21.4219C10.6406 21.7031 10.5 22.0625 10.5 22.5ZM15 22.5C14.9688 23.3438 14.6719 24.0469 14.1094 24.6094C13.5469 25.1719 12.8438 25.4688 12 25.5C11.1562 25.4688 10.4531 25.1719 9.89062 24.6094C9.32812 24.0469 9.03125 23.3438 9 22.5C9 22.2188 9.04688 21.9375 9.14062 21.6562L4.125 18.6562C3.75 18.375 3.65625 18.0312 3.84375 17.625C4.125 17.25 4.46875 17.1562 4.875 17.3438L9.89062 20.3438C10.4531 19.8125 11.1562 19.5312 12 19.5C12.8438 19.5312 13.5469 19.8281 14.1094 20.3906C14.6719 20.9531 14.9688 21.6562 15 22.5ZM7.875 12.75C7.8125 13.4375 7.4375 13.8125 6.75 13.875C6.0625 13.8125 5.6875 13.4375 5.625 12.75C5.6875 12.0625 6.0625 11.6875 6.75 11.625C7.4375 11.6875 7.8125 12.0625 7.875 12.75ZM19.5 19.125C18.8125 19.0625 18.4375 18.6875 18.375 18C18.4375 17.3125 18.8125 16.9375 19.5 16.875C20.1875 16.9375 20.5625 17.3125 20.625 18C20.5625 18.6875 20.1875 19.0625 19.5 19.125ZM18.375 12.75C18.3125 13.4375 17.9375 13.8125 17.25 13.875C16.5625 13.8125 16.1875 13.4375 16.125 12.75C16.1875 12.0625 16.5625 11.6875 17.25 11.625C17.9375 11.6875 18.3125 12.0625 18.375 12.75Z" fill="black" fill-opacity="0.72"/>
</g>
<defs>
<clipPath id="clip0_1731_5781">
<rect width="24" height="36" fill="white"/>
</clipPath>
</defs>
</svg>
