<svg width="14" height="22" viewBox="0 0 14 22" fill="none" xmlns="http://www.w3.org/2000/svg">
<g id="label-paired / sm / circle-arrow-left-sm / regular" clip-path="url(#clip0_1731_2202)">
<path id="icon" d="M0.875 10.75C0.893229 11.862 1.16667 12.8828 1.69531 13.8125C2.24219 14.7422 2.98958 15.4896 3.9375 16.0547C4.90365 16.6016 5.92448 16.875 7 16.875C8.07552 16.875 9.09635 16.6016 10.0625 16.0547C11.0104 15.4896 11.7578 14.7422 12.3047 13.8125C12.8333 12.8828 13.1068 11.862 13.125 10.75C13.1068 9.63802 12.8333 8.61719 12.3047 7.6875C11.7578 6.75781 11.0104 6.01042 10.0625 5.44531C9.09635 4.89844 8.07552 4.625 7 4.625C5.92448 4.625 4.90365 4.89844 3.9375 5.44531C2.98958 6.01042 2.24219 6.75781 1.69531 7.6875C1.16667 8.61719 0.893229 9.63802 0.875 10.75ZM14 10.75C13.9818 12.026 13.6719 13.1927 13.0703 14.25C12.4505 15.3073 11.5938 16.1641 10.5 16.8203C9.38802 17.4401 8.22135 17.75 7 17.75C5.77865 17.75 4.61198 17.4401 3.5 16.8203C2.40625 16.1641 1.54948 15.3073 0.929688 14.25C0.328125 13.1927 0.0182292 12.026 0 10.75C0.0182292 9.47396 0.328125 8.30729 0.929688 7.25C1.54948 6.19271 2.40625 5.33594 3.5 4.67969C4.61198 4.0599 5.77865 3.75 7 3.75C8.22135 3.75 9.38802 4.0599 10.5 4.67969C11.5938 5.33594 12.4505 6.19271 13.0703 7.25C13.6719 8.30729 13.9818 9.47396 14 10.75ZM6.26172 7.82422C6.46224 7.64193 6.66276 7.64193 6.86328 7.82422C7.04557 8.02474 7.04557 8.22526 6.86328 8.42578L5.00391 10.3125H10.0625C10.3359 10.3307 10.4818 10.4766 10.5 10.75C10.4818 11.0234 10.3359 11.1693 10.0625 11.1875H5.00391L6.86328 13.0742C7.04557 13.2747 7.04557 13.4753 6.86328 13.6758C6.66276 13.8581 6.46224 13.8581 6.26172 13.6758L3.63672 11.0508C3.45443 10.8503 3.45443 10.6497 3.63672 10.4492L6.26172 7.82422Z" fill="black" fill-opacity="0.72"/>
</g>
<defs>
<clipPath id="clip0_1731_2202">
<rect width="14" height="22" fill="white"/>
</clipPath>
</defs>
</svg>
