<svg width="11" height="22" viewBox="0 0 11 22" fill="none" xmlns="http://www.w3.org/2000/svg">
<g id="label-paired / sm / xmark-sm / regular" clip-path="url(#clip0_1731_1797)">
<path id="icon" d="M9.13672 14.9883L5.5 11.3789L1.89062 14.9883C1.67188 15.1523 1.46224 15.1523 1.26172 14.9883C1.09766 14.7878 1.09766 14.5872 1.26172 14.3867L4.87109 10.75L1.26172 7.14062C1.09766 6.92188 1.09766 6.71224 1.26172 6.51172C1.46224 6.34766 1.67188 6.34766 1.89062 6.51172L5.5 10.1211L9.13672 6.51172C9.33724 6.34766 9.53776 6.34766 9.73828 6.51172C9.90234 6.71224 9.90234 6.92188 9.73828 7.14062L6.12891 10.75L9.73828 14.3867C9.90234 14.5872 9.90234 14.7878 9.73828 14.9883C9.53776 15.1523 9.33724 15.1523 9.13672 14.9883Z" fill="black" fill-opacity="0.72"/>
</g>
<defs>
<clipPath id="clip0_1731_1797">
<rect width="11" height="22" fill="white"/>
</clipPath>
</defs>
</svg>
