<svg width="16" height="22" viewBox="0 0 16 22" fill="none" xmlns="http://www.w3.org/2000/svg">
<g id="label-paired / sm / link-simple-sm / regular" clip-path="url(#clip0_1731_2576)">
<path id="icon" d="M0.125 10.75C0.161458 9.51042 0.589844 8.48047 1.41016 7.66016C2.23047 6.83984 3.26042 6.41146 4.5 6.375H6.6875C6.96094 6.39323 7.10677 6.53906 7.125 6.8125C7.10677 7.08594 6.96094 7.23177 6.6875 7.25H4.5C3.51562 7.26823 2.6862 7.60547 2.01172 8.26172C1.35547 8.9362 1.01823 9.76562 1 10.75C1.01823 11.7344 1.35547 12.5638 2.01172 13.2383C2.6862 13.8945 3.51562 14.2318 4.5 14.25H6.6875C6.96094 14.2682 7.10677 14.4141 7.125 14.6875C7.10677 14.9609 6.96094 15.1068 6.6875 15.125H4.5C3.26042 15.0885 2.23047 14.6602 1.41016 13.8398C0.589844 13.0195 0.161458 11.9896 0.125 10.75ZM15.875 10.75C15.8385 11.9896 15.4102 13.0195 14.5898 13.8398C13.7695 14.6602 12.7396 15.0885 11.5 15.125H9.3125C9.03906 15.1068 8.89323 14.9609 8.875 14.6875C8.89323 14.4141 9.03906 14.2682 9.3125 14.25H11.5C12.4844 14.2318 13.3138 13.8945 13.9883 13.2383C14.6445 12.5638 14.9818 11.7344 15 10.75C14.9818 9.76562 14.6445 8.9362 13.9883 8.26172C13.3138 7.60547 12.4844 7.26823 11.5 7.25H9.3125C9.03906 7.23177 8.89323 7.08594 8.875 6.8125C8.89323 6.53906 9.03906 6.39323 9.3125 6.375H11.5C12.7396 6.41146 13.7695 6.83984 14.5898 7.66016C15.4102 8.48047 15.8385 9.51042 15.875 10.75ZM4.28125 10.3125H11.7188C11.9922 10.3307 12.138 10.4766 12.1562 10.75C12.138 11.0234 11.9922 11.1693 11.7188 11.1875H4.28125C4.00781 11.1693 3.86198 11.0234 3.84375 10.75C3.86198 10.4766 4.00781 10.3307 4.28125 10.3125Z" fill="black" fill-opacity="0.72"/>
</g>
<defs>
<clipPath id="clip0_1731_2576">
<rect width="16" height="22" fill="white"/>
</clipPath>
</defs>
</svg>
