<svg width="21" height="36" viewBox="0 0 21 36" fill="none" xmlns="http://www.w3.org/2000/svg">
<g id="label-paired / xl / user-xl / regular" clip-path="url(#clip0_1731_6785)">
<path id="icon" d="M15 12C15 11.1875 14.7969 10.4375 14.3906 9.75C13.9844 9.0625 13.4375 8.51562 12.75 8.10938C12.0312 7.70312 11.2812 7.5 10.5 7.5C9.71875 7.5 8.96875 7.70312 8.25 8.10938C7.5625 8.51562 7.01562 9.0625 6.60938 9.75C6.20312 10.4375 6 11.1875 6 12C6 12.8125 6.20312 13.5625 6.60938 14.25C7.01562 14.9375 7.5625 15.4844 8.25 15.8906C8.96875 16.2969 9.71875 16.5 10.5 16.5C11.2812 16.5 12.0312 16.2969 12.75 15.8906C13.4375 15.4844 13.9844 14.9375 14.3906 14.25C14.7969 13.5625 15 12.8125 15 12ZM4.5 12C4.5 10.9062 4.76562 9.90625 5.29688 9C5.82812 8.09375 6.5625 7.35938 7.5 6.79688C8.4375 6.26563 9.4375 6 10.5 6C11.5625 6 12.5625 6.26563 13.5 6.79688C14.4375 7.35938 15.1719 8.09375 15.7031 9C16.2344 9.90625 16.5 10.9062 16.5 12C16.5 13.0938 16.2344 14.0938 15.7031 15C15.1719 15.9062 14.4375 16.6406 13.5 17.2031C12.5625 17.7344 11.5625 18 10.5 18C9.4375 18 8.4375 17.7344 7.5 17.2031C6.5625 16.6406 5.82812 15.9062 5.29688 15C4.76562 14.0938 4.5 13.0938 4.5 12ZM1.5 28.5H19.5C19.4375 26.5938 18.75 25 17.4375 23.7188C16.1562 22.4688 14.5625 21.8125 12.6562 21.75H8.34375C6.4375 21.8125 4.84375 22.4688 3.5625 23.7188C2.25 25 1.5625 26.5938 1.5 28.5ZM0 28.5938C0.0625 26.25 0.875 24.2812 2.4375 22.6875C4.03125 21.125 6 20.3125 8.34375 20.25H12.6562C15 20.3125 16.9688 21.125 18.5625 22.6875C20.125 24.2812 20.9375 26.25 21 28.5938C21 29 20.8594 29.3281 20.5781 29.5781C20.3281 29.8594 20 30 19.5938 30H1.40625C1 30 0.671875 29.8594 0.421875 29.5781C0.140625 29.3281 0 29 0 28.5938Z" fill="black" fill-opacity="0.72"/>
</g>
<defs>
<clipPath id="clip0_1731_6785">
<rect width="21" height="36" fill="white"/>
</clipPath>
</defs>
</svg>
