<svg width="24" height="36" viewBox="0 0 24 36" fill="none" xmlns="http://www.w3.org/2000/svg">
<g id="label-paired / xl / backward-xl / regular" clip-path="url(#clip0_1731_6575)">
<path id="icon" d="M1.78125 18L12 25.4062V10.5938L1.78125 18ZM12.0938 9C12.5 9 12.8281 9.14062 13.0781 9.42188C13.3594 9.67188 13.5 10 13.5 10.4062V15.2344L21.75 9.28125C22 9.09375 22.2812 9 22.5938 9C23 9 23.3281 9.14062 23.5781 9.42188C23.8594 9.67188 24 10 24 10.4062V25.5938C24 26 23.8594 26.3281 23.5781 26.5781C23.3281 26.8594 23 27 22.5938 27C22.2812 27 22 26.9062 21.75 26.7188L13.5 20.7656V25.5938C13.5 26 13.3594 26.3281 13.0781 26.5781C12.8281 26.8594 12.5 27 12.0938 27C11.7812 27 11.5 26.9062 11.25 26.7188L0.46875 18.8906C0.15625 18.6719 0 18.375 0 18C0 17.625 0.15625 17.3281 0.46875 17.1094L11.25 9.28125C11.5 9.09375 11.7812 9 12.0938 9ZM13.5 18.8906L22.5 25.4062V10.5938L13.5 17.1094V18.8906Z" fill="black" fill-opacity="0.72"/>
</g>
<defs>
<clipPath id="clip0_1731_6575">
<rect width="24" height="36" fill="white"/>
</clipPath>
</defs>
</svg>
