<svg width="11" height="22" viewBox="0 0 11 22" fill="none" xmlns="http://www.w3.org/2000/svg">
<g id="label-paired / sm / four-sm / regular" clip-path="url(#clip0_1731_2268)">
<path id="icon" d="M5.00781 5.25391L1.39844 12.5H8.125V7.6875C8.14323 7.41406 8.28906 7.26823 8.5625 7.25C8.83594 7.26823 8.98177 7.41406 9 7.6875V12.5H10.3125C10.5859 12.5182 10.7318 12.6641 10.75 12.9375C10.7318 13.2109 10.5859 13.3568 10.3125 13.375H9V16.4375C8.98177 16.7109 8.83594 16.8568 8.5625 16.875C8.28906 16.8568 8.14323 16.7109 8.125 16.4375V13.375H0.6875C0.523438 13.375 0.395833 13.3112 0.304688 13.1836C0.231771 13.0378 0.231771 12.8919 0.304688 12.7461L4.24219 4.87109C4.36979 4.63411 4.5612 4.57031 4.81641 4.67969C5.05339 4.82552 5.11719 5.01693 5.00781 5.25391Z" fill="black" fill-opacity="0.72"/>
</g>
<defs>
<clipPath id="clip0_1731_2268">
<rect width="11" height="22" fill="white"/>
</clipPath>
</defs>
</svg>
