<svg width="8" height="18" viewBox="0 0 8 18" fill="none" xmlns="http://www.w3.org/2000/svg">
<g id="label-paired / caption / sort-down-caption / regular" clip-path="url(#clip0_1731_1106)">
<path id="icon" d="M3.85938 13.9531C3.90625 13.9844 3.95312 14 4 14C4.04688 14 4.09375 13.9844 4.14062 13.9531L6.95312 11.2812C6.98438 11.25 7 11.2109 7 11.1641C6.98438 11.0703 6.92969 11.0156 6.83594 11H1.16406C1.07031 11.0156 1.01562 11.0703 1 11.1641C1 11.2109 1.01562 11.25 1.04688 11.2812L3.85938 13.9531ZM3.34375 14.4922L0.53125 11.8438C0.34375 11.6562 0.25 11.4297 0.25 11.1641C0.25 10.8984 0.335938 10.6797 0.507812 10.5078C0.679688 10.3359 0.898438 10.25 1.16406 10.25H6.83594C7.10156 10.25 7.32031 10.3359 7.49219 10.5078C7.66406 10.6797 7.75 10.8984 7.75 11.1641C7.75 11.4297 7.65625 11.6562 7.46875 11.8438L4.65625 14.4922C4.46875 14.6641 4.25 14.75 4 14.75C3.75 14.75 3.53125 14.6641 3.34375 14.4922Z" fill="black" fill-opacity="0.72"/>
</g>
<defs>
<clipPath id="clip0_1731_1106">
<rect width="8" height="18" fill="white"/>
</clipPath>
</defs>
</svg>
