<svg width="14" height="24" viewBox="0 0 14 24" fill="none" xmlns="http://www.w3.org/2000/svg">
<g id="label-paired / md / arrow-up-from-bracket-md / regular" clip-path="url(#clip0_1731_3155)">
<path id="icon" d="M7.34375 4.15625L11.3438 8.15625C11.5521 8.38542 11.5521 8.61458 11.3438 8.84375C11.1146 9.05208 10.8854 9.05208 10.6562 8.84375L7.5 5.71875V14.5C7.47917 14.8125 7.3125 14.9792 7 15C6.6875 14.9792 6.52083 14.8125 6.5 14.5V5.71875L3.34375 8.84375C3.11458 9.05208 2.88542 9.05208 2.65625 8.84375C2.44792 8.61458 2.44792 8.38542 2.65625 8.15625L6.65625 4.15625C6.88542 3.94792 7.11458 3.94792 7.34375 4.15625ZM1 14.5V17.5C1.02083 17.9167 1.16667 18.2708 1.4375 18.5625C1.72917 18.8333 2.08333 18.9792 2.5 19H11.5C11.9167 18.9792 12.2708 18.8333 12.5625 18.5625C12.8333 18.2708 12.9792 17.9167 13 17.5V14.5C13.0208 14.1875 13.1875 14.0208 13.5 14C13.8125 14.0208 13.9792 14.1875 14 14.5V17.5C13.9792 18.2083 13.7396 18.8021 13.2812 19.2812C12.8021 19.7396 12.2083 19.9792 11.5 20H2.5C1.79167 19.9792 1.19792 19.7396 0.71875 19.2812C0.260417 18.8021 0.0208333 18.2083 0 17.5V14.5C0.0208333 14.1875 0.1875 14.0208 0.5 14C0.8125 14.0208 0.979167 14.1875 1 14.5Z" fill="black" fill-opacity="0.72"/>
</g>
<defs>
<clipPath id="clip0_1731_3155">
<rect width="14" height="24" fill="white"/>
</clipPath>
</defs>
</svg>
