<svg width="30" height="36" viewBox="0 0 30 36" fill="none" xmlns="http://www.w3.org/2000/svg">
<g id="label-paired / xl / hands-holding-diamond-xl / bold" clip-path="url(#clip0_1731_6639)">
<path id="icon" d="M13.9219 6.42188C14.2344 6.14062 14.5938 6 15 6C15.4062 6 15.7656 6.14062 16.0781 6.42188L20.5781 10.9219C20.8594 11.2344 21 11.5938 21 12C21 12.4062 20.8594 12.7656 20.5781 13.0781L16.0781 17.5781C15.7656 17.8594 15.4062 18 15 18C14.5938 18 14.2344 17.8594 13.9219 17.5781L9.42188 13.0781C9.14062 12.7656 9 12.4062 9 12C9 11.5938 9.14062 11.2344 9.42188 10.9219L13.9219 6.42188ZM3.375 9C4.34375 9.03125 5.14062 9.35938 5.76562 9.98438C6.39062 10.6094 6.71875 11.4062 6.75 12.375V18.4219C7.34375 17.9219 8.04688 17.6562 8.85938 17.625C9.76562 17.625 10.5312 17.9375 11.1562 18.5625L14.0625 21.4688C14.4062 21.8125 14.7188 22.2031 15 22.6406C15.2812 22.2031 15.6094 21.8125 15.9844 21.4688L18.8438 18.5625C19.4688 17.9375 20.2344 17.625 21.1406 17.625C21.9531 17.6562 22.6562 17.9219 23.25 18.4219V12.375C23.2812 11.4062 23.6094 10.6094 24.2344 9.98438C24.8906 9.35938 25.6875 9.03125 26.625 9C27.5938 9.03125 28.3906 9.35938 29.0156 9.98438C29.6406 10.6094 29.9688 11.4062 30 12.375V22.5C30 24.0625 29.4531 25.3906 28.3594 26.4844L25.1719 29.6719C24.6406 30.1094 24.1094 30.1094 23.5781 29.6719C23.1406 29.1406 23.1406 28.6094 23.5781 28.0781L26.7656 24.8906C27.4219 24.2344 27.75 23.4375 27.75 22.5V12.375C27.6875 11.6875 27.3125 11.3125 26.625 11.25C25.9375 11.3125 25.5625 11.6875 25.5 12.375V19.2188C25.5 20.4688 25.0625 21.5312 24.1875 22.4062L23.4375 23.1562L22.1719 24.4219L21.4219 25.1719C20.8906 25.6094 20.3594 25.6094 19.8281 25.1719C19.3906 24.6406 19.3906 24.1094 19.8281 23.5781L20.5781 22.8281L21.8438 21.5625C22.0312 21.375 22.125 21.1406 22.125 20.8594C22.0625 20.2656 21.7344 19.9375 21.1406 19.875C20.8594 19.875 20.625 19.9688 20.4375 20.1562L17.5312 23.0625C16.625 24 16.1562 25.1406 16.125 26.4844V28.875C16.0625 29.5625 15.6875 29.9375 15 30C14.3125 29.9375 13.9375 29.5625 13.875 28.875V26.4844C13.8438 25.1406 13.375 24 12.4688 23.0625L9.5625 20.1562C9.375 19.9688 9.14062 19.875 8.85938 19.875C8.26562 19.9375 7.9375 20.2656 7.875 20.8594C7.875 21.1406 7.96875 21.375 8.15625 21.5625L9.42188 22.8281L10.1719 23.5781C10.6094 24.1094 10.6094 24.6406 10.1719 25.1719C9.64062 25.6094 9.10938 25.6094 8.57812 25.1719L7.82812 24.4219L6.5625 23.1562L5.85938 22.4062C4.98438 21.5312 4.53125 20.4688 4.5 19.2188V12.375C4.4375 11.6875 4.0625 11.3125 3.375 11.25C2.6875 11.3125 2.3125 11.6875 2.25 12.375V22.5C2.25 23.4375 2.57812 24.2344 3.23438 24.8906L6.42188 28.0781C6.85938 28.6094 6.85938 29.1406 6.42188 29.6719C5.89062 30.1094 5.35938 30.1094 4.82812 29.6719L1.64062 26.4844C0.578125 25.3906 0.03125 24.0625 0 22.5V12.375C0.03125 11.4062 0.359375 10.6094 0.984375 9.98438C1.60938 9.35938 2.40625 9.03125 3.375 9Z" fill="black" fill-opacity="0.72"/>
</g>
<defs>
<clipPath id="clip0_1731_6639">
<rect width="30" height="36" fill="white"/>
</clipPath>
</defs>
</svg>
