<svg width="27" height="36" viewBox="0 0 27 36" fill="none" xmlns="http://www.w3.org/2000/svg">
<g id="label-paired / xl / eye-xl / bold" clip-path="url(#clip0_1731_5658)">
<path id="icon" d="M13.5 9.75C11.9688 9.78125 10.5781 10.0938 9.32812 10.6875C8.07812 11.25 6.96875 12 6 12.9375C5.09375 13.7812 4.32812 14.6562 3.70312 15.5625C3.10938 16.4688 2.64062 17.2812 2.29688 18C2.64062 18.7188 3.10938 19.5312 3.70312 20.4375C4.32812 21.3438 5.09375 22.2188 6 23.0625C6.96875 24 8.07812 24.75 9.32812 25.3125C10.5781 25.9062 11.9688 26.2188 13.5 26.25C15.0312 26.2188 16.4219 25.9062 17.6719 25.3125C18.9219 24.75 20.0312 24 21 23.0625C21.9062 22.2188 22.6719 21.3438 23.2969 20.4375C23.8906 19.5312 24.3594 18.7188 24.7031 18C24.3594 17.2812 23.8906 16.4688 23.2969 15.5625C22.6719 14.6562 21.9062 13.7812 21 12.9375C20.0312 12 18.9219 11.25 17.6719 10.6875C16.4219 10.0938 15.0312 9.78125 13.5 9.75ZM4.45312 11.2969C5.57812 10.2344 6.89062 9.34375 8.39062 8.625C9.89062 7.90625 11.5938 7.53125 13.5 7.5C15.4062 7.53125 17.1094 7.90625 18.6094 8.625C20.1094 9.34375 21.4219 10.2344 22.5469 11.2969C23.6406 12.3281 24.5469 13.3906 25.2656 14.4844C25.9844 15.5781 26.5312 16.5625 26.9062 17.4375C27.0625 17.8125 27.0625 18.1875 26.9062 18.5625C26.5312 19.4375 25.9844 20.4219 25.2656 21.5156C24.5469 22.6094 23.6406 23.6719 22.5469 24.7031C21.4219 25.7656 20.1094 26.6562 18.6094 27.375C17.1094 28.0938 15.4062 28.4688 13.5 28.5C11.5938 28.4688 9.89062 28.0938 8.39062 27.375C6.89062 26.6562 5.57812 25.7656 4.45312 24.7031C3.35938 23.6719 2.45312 22.6094 1.73438 21.5156C1.01562 20.4219 0.484375 19.4375 0.140625 18.5625C-0.015625 18.1875 -0.015625 17.8125 0.140625 17.4375C0.484375 16.5625 1.01562 15.5781 1.73438 14.4844C2.45312 13.3906 3.35938 12.3281 4.45312 11.2969ZM13.5 21.75C14.5625 21.7188 15.4531 21.3594 16.1719 20.6719C16.8594 19.9531 17.2188 19.0625 17.25 18C17.2188 16.9375 16.8594 16.0469 16.1719 15.3281C15.4531 14.6406 14.5625 14.2812 13.5 14.25C13.4688 14.25 13.4531 14.25 13.4531 14.25C13.4531 14.25 13.4375 14.25 13.4062 14.25C13.4688 14.5 13.5 14.75 13.5 15C13.4688 15.8438 13.1719 16.5469 12.6094 17.1094C12.0469 17.6719 11.3438 17.9688 10.5 18C10.25 18 10 17.9688 9.75 17.9062C9.75 17.9375 9.75 17.9531 9.75 17.9531C9.75 17.9531 9.75 17.9688 9.75 18C9.78125 19.0625 10.1406 19.9531 10.8281 20.6719C11.5469 21.3594 12.4375 21.7188 13.5 21.75ZM13.5 12C14.5938 12 15.5938 12.2656 16.5 12.7969C17.4062 13.3281 18.1406 14.0625 18.7031 15C19.2344 15.9375 19.5 16.9375 19.5 18C19.5 19.0625 19.2344 20.0625 18.7031 21C18.1406 21.9375 17.4062 22.6719 16.5 23.2031C15.5938 23.7344 14.5938 24 13.5 24C12.4062 24 11.4062 23.7344 10.5 23.2031C9.59375 22.6719 8.85938 21.9375 8.29688 21C7.76562 20.0625 7.5 19.0625 7.5 18C7.5 16.9375 7.76562 15.9375 8.29688 15C8.85938 14.0625 9.59375 13.3281 10.5 12.7969C11.4062 12.2656 12.4062 12 13.5 12Z" fill="black" fill-opacity="0.72"/>
</g>
<defs>
<clipPath id="clip0_1731_5658">
<rect width="27" height="36" fill="white"/>
</clipPath>
</defs>
</svg>
