<svg width="12" height="18" viewBox="0 0 12 18" fill="none" xmlns="http://www.w3.org/2000/svg">
<g id="label-paired / caption / google-play-caption" clip-path="url(#clip0_1731_13794)">
<path id="icon" d="M7.61719 8.98438L9.02344 7.57812L2.46094 3.80469L7.61719 8.98438ZM1.10156 3.5L7.125 9.5L1.10156 15.5C0.773438 15.3281 0.601562 15.0547 0.585938 14.6797V4.32031C0.601562 3.94531 0.773438 3.67187 1.10156 3.5ZM11.0625 8.79688C11.2969 8.96875 11.4141 9.20312 11.4141 9.5C11.4141 9.79688 11.3047 10.0312 11.0859 10.2031L9.67969 11.0234L8.15625 9.5L9.67969 8L11.0625 8.79688ZM2.46094 15.1953L7.61719 10.0156L9.02344 11.4219L2.46094 15.1953Z" fill="black" fill-opacity="0.72"/>
</g>
<defs>
<clipPath id="clip0_1731_13794">
<rect width="12" height="18" fill="white"/>
</clipPath>
</defs>
</svg>
