<svg width="15" height="18" viewBox="0 0 15 18" fill="none" xmlns="http://www.w3.org/2000/svg">
<g id="label-paired / caption / eye-slash-caption / regular" clip-path="url(#clip0_1731_629)">
<path id="icon" d="M0.609375 3.57031L14.8594 14.8438C15.0312 15 15.0547 15.1719 14.9297 15.3594C14.7578 15.5312 14.5781 15.5547 14.3906 15.4297L0.140625 4.17969C-0.03125 4.00781 -0.0546875 3.82812 0.0703125 3.64062C0.242188 3.48437 0.421875 3.46094 0.609375 3.57031ZM14.2031 9.78125C13.9531 10.3906 13.5312 11.0859 12.9375 11.8672L12.3516 11.4219C12.8984 10.6875 13.2812 10.0469 13.5 9.5C13.3438 9.10938 13.1016 8.66406 12.7734 8.16406C12.4297 7.66406 12.0078 7.17188 11.5078 6.6875C10.9922 6.20312 10.4062 5.80469 9.75 5.49219C9.07812 5.17969 8.32812 5.01562 7.5 5C6.5625 5.01562 5.72656 5.21875 4.99219 5.60938L4.35938 5.11719C5.25 4.57031 6.29688 4.28125 7.5 4.25C8.45312 4.26562 9.30469 4.45312 10.0547 4.8125C10.8047 5.17188 11.4609 5.61719 12.0234 6.14844C12.5703 6.66406 13.0234 7.19531 13.3828 7.74219C13.7422 8.28906 14.0156 8.78125 14.2031 9.21875C14.2656 9.40625 14.2656 9.59375 14.2031 9.78125ZM2.0625 7.13281L2.67188 7.60156C2.10938 8.32031 1.71875 8.95312 1.5 9.5C1.65625 9.89062 1.89844 10.3359 2.22656 10.8359C2.57031 11.3359 2.99219 11.8281 3.49219 12.3125C4.00781 12.7969 4.59375 13.1953 5.25 13.5078C5.92188 13.8203 6.67188 13.9844 7.5 14C8.4375 13.9844 9.27344 13.7812 10.0078 13.3906L10.6406 13.8828C9.75 14.4297 8.70312 14.7188 7.5 14.75C6.54688 14.7344 5.69531 14.5469 4.94531 14.1875C4.19531 13.8281 3.54688 13.3828 3 12.8516C2.4375 12.3359 1.97656 11.8047 1.61719 11.2578C1.25781 10.7109 0.992188 10.2188 0.820312 9.78125C0.742188 9.59375 0.742188 9.40625 0.820312 9.21875C1.05469 8.60938 1.46875 7.91406 2.0625 7.13281ZM7.5 12.5C6.65625 12.4844 5.94531 12.1875 5.36719 11.6094C4.80469 11.0469 4.51562 10.3438 4.5 9.5C4.5 9.34375 4.50781 9.19531 4.52344 9.05469L5.25 9.64062C5.29688 10.2344 5.53125 10.7344 5.95312 11.1406C6.375 11.5312 6.89062 11.7344 7.5 11.75C7.625 11.75 7.75781 11.7422 7.89844 11.7266L8.60156 12.2891C8.25781 12.4297 7.89062 12.5 7.5 12.5ZM10.5 9.5C10.5 9.65625 10.4922 9.80469 10.4766 9.94531L9.75 9.35938C9.70312 8.76562 9.46875 8.26562 9.04688 7.85938C8.625 7.46875 8.10938 7.26562 7.5 7.25C7.375 7.25 7.25 7.26562 7.125 7.29688L6.39844 6.71094C6.74219 6.57031 7.10938 6.5 7.5 6.5C8.34375 6.51562 9.05469 6.80469 9.63281 7.36719C10.1953 7.94531 10.4844 8.65625 10.5 9.5Z" fill="black" fill-opacity="0.72"/>
</g>
<defs>
<clipPath id="clip0_1731_629">
<rect width="15" height="18" fill="white"/>
</clipPath>
</defs>
</svg>
