<svg width="9" height="18" viewBox="0 0 9 18" fill="none" xmlns="http://www.w3.org/2000/svg">
<g id="label-paired / caption / xmark-caption / bold" clip-path="url(#clip0_1731_541)">
<path id="icon" d="M8.08594 6.71094L5.29688 9.5L8.08594 12.2891C8.30469 12.5547 8.30469 12.8203 8.08594 13.0859C7.82031 13.3047 7.55469 13.3047 7.28906 13.0859L4.5 10.2969L1.71094 13.0859C1.44531 13.3047 1.17969 13.3047 0.914062 13.0859C0.695312 12.8203 0.695312 12.5547 0.914062 12.2891L3.70312 9.5L0.914062 6.71094C0.695312 6.44531 0.695312 6.17969 0.914062 5.91406C1.17969 5.69531 1.44531 5.69531 1.71094 5.91406L4.5 8.70312L7.28906 5.91406C7.55469 5.69531 7.82031 5.69531 8.08594 5.91406C8.30469 6.17969 8.30469 6.44531 8.08594 6.71094Z" fill="black" fill-opacity="0.72"/>
</g>
<defs>
<clipPath id="clip0_1731_541">
<rect width="9" height="18" fill="white"/>
</clipPath>
</defs>
</svg>
