<svg width="11" height="22" viewBox="0 0 11 22" fill="none" xmlns="http://www.w3.org/2000/svg">
<g id="label-paired / sm / xmark-sm / bold" clip-path="url(#clip0_1731_1799)">
<path id="icon" d="M9.68359 7.49609L6.42969 10.75L9.68359 14.0039C9.9388 14.3138 9.9388 14.6237 9.68359 14.9336C9.3737 15.1888 9.0638 15.1888 8.75391 14.9336L5.5 11.6797L2.24609 14.9336C1.9362 15.1888 1.6263 15.1888 1.31641 14.9336C1.0612 14.6237 1.0612 14.3138 1.31641 14.0039L4.57031 10.75L1.31641 7.49609C1.0612 7.1862 1.0612 6.8763 1.31641 6.56641C1.6263 6.3112 1.9362 6.3112 2.24609 6.56641L5.5 9.82031L8.75391 6.56641C9.0638 6.3112 9.3737 6.3112 9.68359 6.56641C9.9388 6.8763 9.9388 7.1862 9.68359 7.49609Z" fill="black" fill-opacity="0.72"/>
</g>
<defs>
<clipPath id="clip0_1731_1799">
<rect width="11" height="22" fill="white"/>
</clipPath>
</defs>
</svg>
