<svg width="11" height="18" viewBox="0 0 11 18" fill="none" xmlns="http://www.w3.org/2000/svg">
<g id="label-paired / caption / plus-caption / bold" clip-path="url(#clip0_1731_561)">
<path id="icon" d="M6.0625 5.1875V8.9375H9.8125C10.1562 8.96875 10.3438 9.15625 10.375 9.5C10.3438 9.84375 10.1562 10.0312 9.8125 10.0625H6.0625V13.8125C6.03125 14.1562 5.84375 14.3438 5.5 14.375C5.15625 14.3438 4.96875 14.1562 4.9375 13.8125V10.0625H1.1875C0.84375 10.0312 0.65625 9.84375 0.625 9.5C0.65625 9.15625 0.84375 8.96875 1.1875 8.9375H4.9375V5.1875C4.96875 4.84375 5.15625 4.65625 5.5 4.625C5.84375 4.65625 6.03125 4.84375 6.0625 5.1875Z" fill="black" fill-opacity="0.72"/>
</g>
<defs>
<clipPath id="clip0_1731_561">
<rect width="11" height="18" fill="white"/>
</clipPath>
</defs>
</svg>
