<svg width="14" height="22" viewBox="0 0 14 22" fill="none" xmlns="http://www.w3.org/2000/svg">
<g id="label-paired / sm / envelope-sm / regular" clip-path="url(#clip0_1731_2556)">
<path id="icon" d="M1.75 6.375C1.49479 6.375 1.28516 6.45703 1.12109 6.62109C0.957031 6.78516 0.875 6.99479 0.875 7.25V8.34375L6.23438 12.2539C6.74479 12.6003 7.25521 12.6003 7.76562 12.2539L13.125 8.34375V7.25C13.125 6.99479 13.043 6.78516 12.8789 6.62109C12.7148 6.45703 12.5052 6.375 12.25 6.375H1.75ZM0.875 9.4375V14.25C0.875 14.5052 0.957031 14.7148 1.12109 14.8789C1.28516 15.043 1.49479 15.125 1.75 15.125H12.25C12.5052 15.125 12.7148 15.043 12.8789 14.8789C13.043 14.7148 13.125 14.5052 13.125 14.25V9.4375L8.28516 12.9648C7.90234 13.2565 7.47396 13.4023 7 13.4023C6.52604 13.4023 6.09766 13.2565 5.71484 12.9648L0.875 9.4375ZM0 7.25C0.0182292 6.75781 0.191406 6.34766 0.519531 6.01953C0.847656 5.69141 1.25781 5.51823 1.75 5.5H12.25C12.7422 5.51823 13.1523 5.69141 13.4805 6.01953C13.8086 6.34766 13.9818 6.75781 14 7.25V14.25C13.9818 14.7422 13.8086 15.1523 13.4805 15.4805C13.1523 15.8086 12.7422 15.9818 12.25 16H1.75C1.25781 15.9818 0.847656 15.8086 0.519531 15.4805C0.191406 15.1523 0.0182292 14.7422 0 14.25V7.25Z" fill="black" fill-opacity="0.72"/>
</g>
<defs>
<clipPath id="clip0_1731_2556">
<rect width="14" height="22" fill="white"/>
</clipPath>
</defs>
</svg>
