<svg width="20" height="30" viewBox="0 0 20 30" fill="none" xmlns="http://www.w3.org/2000/svg">
<g id="label-paired / lg / location-crosshairs-lg / bold" clip-path="url(#clip0_1731_4890)">
<path id="icon" d="M10 5.5C10.5729 5.55208 10.8854 5.86458 10.9375 6.4375V8.07812C12.6562 8.3125 14.1146 9.01562 15.3125 10.1875C16.4844 11.3854 17.2005 12.8438 17.4609 14.5625H19.0625C19.6354 14.6146 19.9479 14.9271 20 15.5C19.9479 16.0729 19.6354 16.3854 19.0625 16.4375H17.4609C17.2005 18.1562 16.4844 19.6146 15.3125 20.8125C14.1146 21.9844 12.6562 22.7005 10.9375 22.9609V24.5625C10.8854 25.1354 10.5729 25.4479 10 25.5C9.42708 25.4479 9.11458 25.1354 9.0625 24.5625V22.9609C7.34375 22.7005 5.88542 21.9844 4.6875 20.8125C3.51562 19.6146 2.8125 18.1562 2.57812 16.4375H0.9375C0.364583 16.3854 0.0520833 16.0729 0 15.5C0.0520833 14.9271 0.364583 14.6146 0.9375 14.5625H2.57812C2.8125 12.8438 3.51562 11.3854 4.6875 10.1875C5.88542 9.01562 7.34375 8.3125 9.0625 8.07812V6.4375C9.11458 5.86458 9.42708 5.55208 10 5.5ZM4.375 15.5C4.375 16.5156 4.6224 17.4531 5.11719 18.3125C5.61198 19.1719 6.30208 19.862 7.1875 20.3828C8.07292 20.8776 9.01042 21.125 10 21.125C10.9896 21.125 11.9271 20.8776 12.8125 20.3828C13.6979 19.862 14.388 19.1719 14.8828 18.3125C15.3776 17.4531 15.625 16.5156 15.625 15.5C15.625 14.4844 15.3776 13.5469 14.8828 12.6875C14.388 11.8281 13.6979 11.138 12.8125 10.6172C11.9271 10.1224 10.9896 9.875 10 9.875C9.01042 9.875 8.07292 10.1224 7.1875 10.6172C6.30208 11.138 5.61198 11.8281 5.11719 12.6875C4.6224 13.5469 4.375 14.4844 4.375 15.5ZM11.875 15.5C11.849 14.7969 11.5365 14.25 10.9375 13.8594C10.3125 13.5469 9.6875 13.5469 9.0625 13.8594C8.46354 14.25 8.15104 14.7969 8.125 15.5C8.15104 16.2031 8.46354 16.75 9.0625 17.1406C9.6875 17.4531 10.3125 17.4531 10.9375 17.1406C11.5365 16.75 11.849 16.2031 11.875 15.5ZM6.25 15.5C6.25 14.8229 6.41927 14.1979 6.75781 13.625C7.09635 13.0521 7.55208 12.5964 8.125 12.2578C8.72396 11.9193 9.34896 11.75 10 11.75C10.651 11.75 11.276 11.9193 11.875 12.2578C12.4479 12.5964 12.9036 13.0521 13.2422 13.625C13.5807 14.1979 13.75 14.8229 13.75 15.5C13.75 16.1771 13.5807 16.8021 13.2422 17.375C12.9036 17.9479 12.4479 18.4036 11.875 18.7422C11.276 19.0807 10.651 19.25 10 19.25C9.34896 19.25 8.72396 19.0807 8.125 18.7422C7.55208 18.4036 7.09635 17.9479 6.75781 17.375C6.41927 16.8021 6.25 16.1771 6.25 15.5Z" fill="black" fill-opacity="0.72"/>
</g>
<defs>
<clipPath id="clip0_1731_4890">
<rect width="20" height="30" fill="white"/>
</clipPath>
</defs>
</svg>
