<svg width="11" height="18" viewBox="0 0 11 18" fill="none" xmlns="http://www.w3.org/2000/svg">
<g id="label-paired / caption / tablet-screen-caption / bold" clip-path="url(#clip0_1731_1381)">
<path id="icon" d="M1.375 14C1.39062 14.2344 1.51562 14.3594 1.75 14.375H9.25C9.48438 14.3594 9.60938 14.2344 9.625 14V12.125H1.375V14ZM1.375 11H9.625V5C9.60938 4.76562 9.48438 4.64062 9.25 4.625H1.75C1.51562 4.64062 1.39062 4.76562 1.375 5V11ZM0.25 5C0.265625 4.57812 0.414062 4.22656 0.695312 3.94531C0.976562 3.66406 1.32812 3.51563 1.75 3.5H9.25C9.67188 3.51563 10.0234 3.66406 10.3047 3.94531C10.5859 4.22656 10.7344 4.57812 10.75 5V14C10.7344 14.4219 10.5859 14.7734 10.3047 15.0547C10.0234 15.3359 9.67188 15.4844 9.25 15.5H1.75C1.32812 15.4844 0.976562 15.3359 0.695312 15.0547C0.414062 14.7734 0.265625 14.4219 0.25 14V5ZM4.75 12.875H6.25C6.48438 12.8906 6.60938 13.0156 6.625 13.25C6.60938 13.4844 6.48438 13.6094 6.25 13.625H4.75C4.51562 13.6094 4.39062 13.4844 4.375 13.25C4.39062 13.0156 4.51562 12.8906 4.75 12.875Z" fill="black" fill-opacity="0.72"/>
</g>
<defs>
<clipPath id="clip0_1731_1381">
<rect width="11" height="18" fill="white"/>
</clipPath>
</defs>
</svg>
