<svg width="14" height="24" viewBox="0 0 14 24" fill="none" xmlns="http://www.w3.org/2000/svg">
<g id="label-paired / md / plus-md / bold" clip-path="url(#clip0_1731_3077)">
<path id="icon" d="M7.75 6.25V11.25H12.75C13.2083 11.2917 13.4583 11.5417 13.5 12C13.4583 12.4583 13.2083 12.7083 12.75 12.75H7.75V17.75C7.70833 18.2083 7.45833 18.4583 7 18.5C6.54167 18.4583 6.29167 18.2083 6.25 17.75V12.75H1.25C0.791667 12.7083 0.541667 12.4583 0.5 12C0.541667 11.5417 0.791667 11.2917 1.25 11.25H6.25V6.25C6.29167 5.79167 6.54167 5.54167 7 5.5C7.45833 5.54167 7.70833 5.79167 7.75 6.25Z" fill="black" fill-opacity="0.72"/>
</g>
<defs>
<clipPath id="clip0_1731_3077">
<rect width="14" height="24" fill="white"/>
</clipPath>
</defs>
</svg>
