<svg width="14" height="22" viewBox="0 0 14 22" fill="none" xmlns="http://www.w3.org/2000/svg">
<g id="label-paired / sm / circle-caret-down-sm / regular" clip-path="url(#clip0_1731_2914)">
<path id="icon" d="M7 16.875C8.11198 16.8568 9.13281 16.5833 10.0625 16.0547C10.9922 15.5078 11.7396 14.7604 12.3047 13.8125C12.8516 12.8464 13.125 11.8255 13.125 10.75C13.125 9.67448 12.8516 8.65365 12.3047 7.6875C11.7396 6.73958 10.9922 5.99219 10.0625 5.44531C9.13281 4.91667 8.11198 4.64323 7 4.625C5.88802 4.64323 4.86719 4.91667 3.9375 5.44531C3.00781 5.99219 2.26042 6.73958 1.69531 7.6875C1.14844 8.65365 0.875 9.67448 0.875 10.75C0.875 11.8255 1.14844 12.8464 1.69531 13.8125C2.26042 14.7604 3.00781 15.5078 3.9375 16.0547C4.86719 16.5833 5.88802 16.8568 7 16.875ZM7 3.75C8.27604 3.76823 9.44271 4.07812 10.5 4.67969C11.5573 5.29948 12.4141 6.15625 13.0703 7.25C13.6901 8.36198 14 9.52865 14 10.75C14 11.9714 13.6901 13.138 13.0703 14.25C12.4141 15.3438 11.5573 16.2005 10.5 16.8203C9.44271 17.4219 8.27604 17.7318 7 17.75C5.72396 17.7318 4.55729 17.4219 3.5 16.8203C2.44271 16.2005 1.58594 15.3438 0.929688 14.25C0.309896 13.138 0 11.9714 0 10.75C0 9.52865 0.309896 8.36198 0.929688 7.25C1.58594 6.15625 2.44271 5.29948 3.5 4.67969C4.55729 4.07812 5.72396 3.76823 7 3.75ZM7 13.375C6.72656 13.375 6.4987 13.2747 6.31641 13.0742L3.69141 10.2578C3.5638 10.112 3.5 9.94792 3.5 9.76562C3.5 9.54688 3.57292 9.36458 3.71875 9.21875C3.86458 9.07292 4.04688 9 4.26562 9H9.76172C9.96224 9 10.1354 9.07292 10.2812 9.21875C10.4271 9.36458 10.5 9.54688 10.5 9.76562C10.5 9.94792 10.4362 10.112 10.3086 10.2578L7.68359 13.0742C7.5013 13.2747 7.27344 13.375 7 13.375ZM7.05469 12.4727L9.46094 9.875H4.53906L6.94531 12.4727C6.96354 12.4909 6.98177 12.5 7 12.5C7.01823 12.5 7.03646 12.4909 7.05469 12.4727Z" fill="black" fill-opacity="0.72"/>
</g>
<defs>
<clipPath id="clip0_1731_2914">
<rect width="14" height="22" fill="white"/>
</clipPath>
</defs>
</svg>
