<svg width="18" height="30" viewBox="0 0 18 30" fill="none" xmlns="http://www.w3.org/2000/svg">
<g id="label-paired / lg / bars-lg / bold" clip-path="url(#clip0_1731_5381)">
<path id="icon" d="M0.25 8.9375C0.302083 8.36458 0.614583 8.05208 1.1875 8H16.8125C17.3854 8.05208 17.6979 8.36458 17.75 8.9375C17.6979 9.51042 17.3854 9.82292 16.8125 9.875H1.1875C0.614583 9.82292 0.302083 9.51042 0.25 8.9375ZM0.25 15.1875C0.302083 14.6146 0.614583 14.3021 1.1875 14.25H16.8125C17.3854 14.3021 17.6979 14.6146 17.75 15.1875C17.6979 15.7604 17.3854 16.0729 16.8125 16.125H1.1875C0.614583 16.0729 0.302083 15.7604 0.25 15.1875ZM17.75 21.4375C17.6979 22.0104 17.3854 22.3229 16.8125 22.375H1.1875C0.614583 22.3229 0.302083 22.0104 0.25 21.4375C0.302083 20.8646 0.614583 20.5521 1.1875 20.5H16.8125C17.3854 20.5521 17.6979 20.8646 17.75 21.4375Z" fill="black" fill-opacity="0.72"/>
</g>
<defs>
<clipPath id="clip0_1731_5381">
<rect width="18" height="30" fill="white"/>
</clipPath>
</defs>
</svg>
