<svg width="20" height="24" viewBox="0 0 20 24" fill="none" xmlns="http://www.w3.org/2000/svg">
<g id="label-paired / md / ipados-md" clip-path="url(#clip0_1731_13976)">
<path id="icon" d="M13.4062 8.6875C13.4062 8.25 13.1875 7.96875 12.8438 7.96875C12.5 7.96875 12.2812 8.21875 12.2812 8.6875C12.2812 9.15625 12.5 9.4375 12.8438 9.4375C13.1875 9.4375 13.4062 9.15625 13.4062 8.6875ZM8.8125 7.875C8.8125 8.21875 8.59375 8.40625 8.21875 8.40625H7.65625V7.3125H8.21875C8.59375 7.3125 8.8125 7.5 8.8125 7.875ZM7.46875 11.5C8.65625 11.5 9.375 12.4062 9.375 13.8438C9.375 15.25 8.65625 16.1562 7.46875 16.1562C6.28125 16.1562 5.53125 15.25 5.53125 13.8438C5.53125 12.4062 6.28125 11.5 7.46875 11.5ZM10.4062 8.8125C10.125 8.84375 10 8.9375 10 9.125C10 9.34375 10.1562 9.4375 10.375 9.4375C10.6875 9.4375 10.9375 9.25 10.9375 8.96875V8.78125L10.4062 8.8125ZM17.6562 6.15625C17.9688 6.9375 18 7.84375 18 8.40625V15.625C18 16.1875 17.9688 17.0938 17.6562 17.875C17.5 18.2812 17.1562 18.8438 16.6562 19.2188C16.3438 19.4375 16 19.6562 15.5312 19.8125C15 19.9688 14.375 20 13.5938 20H6.375C5.59375 20 4.96875 19.9688 4.4375 19.8125C3.96875 19.6562 3.625 19.4375 3.3125 19.2188C2.8125 18.8438 2.46875 18.2812 2.3125 17.875C2 17.0938 2 16.1875 2 15.625V8.40625C2 7.84375 2 6.9375 2.3125 6.15625C2.46875 5.75 2.8125 5.1875 3.3125 4.8125C3.625 4.5625 3.96875 4.375 4.4375 4.21875C4.96875 4.0625 5.59375 4 6.375 4H13.5938C14.375 4 15 4.0625 15.5312 4.21875C16 4.34375 16.3438 4.5625 16.6562 4.8125C17.1562 5.1875 17.5 5.75 17.6562 6.15625ZM12.7188 7.59375C12.1875 7.59375 11.8438 8.03125 11.8438 8.6875C11.8438 9.375 12.1875 9.78125 12.7188 9.78125C13.0312 9.78125 13.25 9.65625 13.4062 9.40625H13.4375V9.75H13.8125V6.8125H13.4062V7.96875H13.375C13.25 7.75 13 7.59375 12.7188 7.59375ZM7.21875 6.9375V9.75H7.65625V8.78125H8.3125C8.84375 8.78125 9.25 8.40625 9.25 7.875C9.25 7.3125 8.875 6.9375 8.3125 6.9375H7.21875ZM6.34375 7.25C6.4375 7.28125 6.53125 7.21875 6.59375 7.125C6.65625 7.0625 6.65625 6.9375 6.59375 6.84375C6.53125 6.75 6.4375 6.71875 6.34375 6.71875C6.25 6.71875 6.15625 6.75 6.09375 6.84375C6.03125 6.9375 6.03125 7.0625 6.09375 7.125C6.15625 7.21875 6.25 7.28125 6.34375 7.25ZM6.5625 7.625H6.125V9.75H6.5625V7.625ZM7.46875 16.8438C9.09375 16.8438 10.125 15.6875 10.125 13.8438C10.125 12 9.09375 10.8125 7.46875 10.8125C5.8125 10.8125 4.78125 12 4.78125 13.8438C4.78125 15.6875 5.8125 16.8438 7.46875 16.8438ZM9.5625 9.15625C9.5625 9.53125 9.875 9.78125 10.2812 9.78125C10.5625 9.78125 10.7812 9.65625 10.9062 9.4375H10.9375V9.75H11.3438V8.3125C11.3438 7.84375 11.0625 7.59375 10.5 7.59375C10.0312 7.59375 9.6875 7.8125 9.65625 8.1875H10.0625C10.0938 8.03125 10.25 7.9375 10.5 7.9375C10.7812 7.9375 10.9375 8.0625 10.9375 8.3125V8.5L10.3438 8.53125C9.84375 8.5625 9.5625 8.78125 9.5625 9.15625ZM12.8438 16.8438C14.125 16.8438 14.9688 16.1562 14.9688 15.0938C14.9688 14.25 14.5 13.7812 13.2812 13.5L12.6562 13.375C11.8438 13.1875 11.5312 12.875 11.5312 12.4375C11.5312 11.8438 12.0938 11.4688 12.8125 11.4688C13.5938 11.4688 14.0938 11.875 14.1562 12.5H14.875C14.8438 11.5312 14 10.8125 12.8438 10.8125C11.625 10.8125 10.7812 11.5 10.7812 12.4688C10.7812 13.2812 11.3125 13.8125 12.4688 14.0625L13.0938 14.2188C13.9062 14.375 14.2188 14.7188 14.2188 15.1875C14.2188 15.75 13.6562 16.1875 12.875 16.1875C12.0312 16.1875 11.4688 15.8125 11.375 15.1875H10.6562C10.7188 16.1875 11.5625 16.8438 12.8438 16.8438Z" fill="black" fill-opacity="0.72"/>
</g>
<defs>
<clipPath id="clip0_1731_13976">
<rect width="20" height="24" fill="white"/>
</clipPath>
</defs>
</svg>
