<svg width="30" height="36" viewBox="0 0 30 36" fill="none" xmlns="http://www.w3.org/2000/svg">
<g id="label-paired / xl / eye-slash-xl / regular" clip-path="url(#clip0_1731_5661)">
<path id="icon" d="M1.21875 6.14062L29.7188 28.6875C30.0625 29 30.1094 29.3438 29.8594 29.7188C29.5156 30.0625 29.1562 30.1094 28.7812 29.8594L0.28125 7.35938C-0.0625 7.01563 -0.109375 6.65625 0.140625 6.28125C0.484375 5.96875 0.84375 5.92187 1.21875 6.14062ZM28.4062 18.5625C27.9062 19.7812 27.0625 21.1719 25.875 22.7344L24.7031 21.8438C25.7969 20.375 26.5625 19.0938 27 18C26.6875 17.2188 26.2031 16.3281 25.5469 15.3281C24.8594 14.3281 24.0156 13.3438 23.0156 12.375C21.9844 11.4062 20.8125 10.6094 19.5 9.98438C18.1562 9.35938 16.6562 9.03125 15 9C13.125 9.03125 11.4531 9.4375 9.98438 10.2188L8.71875 9.23438C10.5 8.14062 12.5938 7.5625 15 7.5C16.9062 7.53125 18.6094 7.90625 20.1094 8.625C21.6094 9.34375 22.9219 10.2344 24.0469 11.2969C25.1406 12.3281 26.0469 13.3906 26.7656 14.4844C27.4844 15.5781 28.0312 16.5625 28.4062 17.4375C28.5312 17.8125 28.5312 18.1875 28.4062 18.5625ZM4.125 13.2656L5.34375 14.2031C4.21875 15.6406 3.4375 16.9062 3 18C3.3125 18.7812 3.79688 19.6719 4.45312 20.6719C5.14062 21.6719 5.98438 22.6562 6.98438 23.625C8.01562 24.5938 9.1875 25.3906 10.5 26.0156C11.8438 26.6406 13.3438 26.9688 15 27C16.875 26.9688 18.5469 26.5625 20.0156 25.7812L21.2812 26.7656C19.5 27.8594 17.4062 28.4375 15 28.5C13.0938 28.4688 11.3906 28.0938 9.89062 27.375C8.39062 26.6562 7.09375 25.7656 6 24.7031C4.875 23.6719 3.95312 22.6094 3.23438 21.5156C2.51562 20.4219 1.98438 19.4375 1.64062 18.5625C1.48438 18.1875 1.48438 17.8125 1.64062 17.4375C2.10938 16.2188 2.9375 14.8281 4.125 13.2656ZM15 24C13.3125 23.9688 11.8906 23.375 10.7344 22.2188C9.60938 21.0938 9.03125 19.6875 9 18C9 17.6875 9.01562 17.3906 9.04688 17.1094L10.5 18.2812C10.5938 19.4688 11.0625 20.4688 11.9062 21.2812C12.75 22.0625 13.7812 22.4688 15 22.5C15.25 22.5 15.5156 22.4844 15.7969 22.4531L17.2031 23.5781C16.5156 23.8594 15.7812 24 15 24ZM21 18C21 18.3125 20.9844 18.6094 20.9531 18.8906L19.5 17.7188C19.4062 16.5312 18.9375 15.5312 18.0938 14.7188C17.25 13.9375 16.2188 13.5312 15 13.5C14.75 13.5 14.5 13.5312 14.25 13.5938L12.7969 12.4219C13.4844 12.1406 14.2188 12 15 12C16.6875 12.0312 18.1094 12.6094 19.2656 13.7344C20.3906 14.8906 20.9688 16.3125 21 18Z" fill="black" fill-opacity="0.72"/>
</g>
<defs>
<clipPath id="clip0_1731_5661">
<rect width="30" height="36" fill="white"/>
</clipPath>
</defs>
</svg>
