<svg width="18" height="36" viewBox="0 0 18 36" fill="none" xmlns="http://www.w3.org/2000/svg">
<g id="label-paired / xl / file-invoice-dollar-xl / bold" clip-path="url(#clip0_1731_6550)">
<path id="icon" d="M15.75 27V13.5H12C11.5625 13.5 11.2031 13.3594 10.9219 13.0781C10.6406 12.7969 10.5 12.4375 10.5 12V8.25H3C2.53125 8.28125 2.28125 8.53125 2.25 9V27C2.28125 27.4688 2.53125 27.7188 3 27.75H15C15.4688 27.7188 15.7188 27.4688 15.75 27ZM0 9C0.03125 8.15625 0.328125 7.45312 0.890625 6.89062C1.45312 6.32812 2.15625 6.03125 3 6H10.7812C11.5938 6 12.2969 6.29687 12.8906 6.89062L17.1094 11.1094C17.7031 11.7031 18 12.4219 18 13.2656V27C17.9688 27.8438 17.6719 28.5469 17.1094 29.1094C16.5469 29.6719 15.8438 29.9688 15 30H3C2.15625 29.9688 1.45312 29.6719 0.890625 29.1094C0.328125 28.5469 0.03125 27.8438 0 27V9ZM9 16.125C9.5625 16.1562 9.875 16.4688 9.9375 17.0625V17.5312C10.2812 17.5625 10.6094 17.625 10.9219 17.7188C11.4531 17.9062 11.6875 18.2812 11.625 18.8438C11.4375 19.375 11.0469 19.6094 10.4531 19.5469C9.95312 19.4219 9.46875 19.3438 9 19.3125C8.59375 19.3125 8.23438 19.3906 7.92188 19.5469C7.73438 19.6719 7.65625 19.7656 7.6875 19.8281C7.6875 19.8594 7.75 19.9062 7.875 19.9688C8.1875 20.125 8.625 20.2656 9.1875 20.3906C9.21875 20.4219 9.23438 20.4375 9.23438 20.4375H9.28125C9.84375 20.5625 10.4219 20.7656 11.0156 21.0469C11.2969 21.2031 11.5625 21.4375 11.8125 21.75C12.0312 22.0312 12.1562 22.4062 12.1875 22.875C12.125 23.8438 11.7188 24.5156 10.9688 24.8906C10.6562 25.0781 10.3125 25.2031 9.9375 25.2656V25.7344C9.875 26.2969 9.5625 26.6094 9 26.6719C8.4375 26.6094 8.125 26.2969 8.0625 25.7344V25.2188C7.625 25.125 7.21875 25.0156 6.84375 24.8906C6.8125 24.8906 6.78125 24.875 6.75 24.8438C6.6875 24.8438 6.64062 24.8281 6.60938 24.7969C6.54688 24.7969 6.5 24.7969 6.46875 24.7969C5.9375 24.5781 5.73438 24.1875 5.85938 23.625C6.07812 23.0938 6.46875 22.875 7.03125 22.9688C7.09375 23 7.17188 23.0312 7.26562 23.0625C7.29688 23.0625 7.32812 23.0625 7.35938 23.0625C7.95312 23.2812 8.51562 23.4062 9.04688 23.4375C9.48438 23.4375 9.82812 23.375 10.0781 23.25C10.2656 23.125 10.3438 23.0156 10.3125 22.9219C10.3438 22.8906 10.2656 22.8125 10.0781 22.6875C9.76562 22.5312 9.32812 22.375 8.76562 22.2188H8.67188C8.10938 22.0938 7.5625 21.8906 7.03125 21.6094C6.71875 21.4531 6.4375 21.2344 6.1875 20.9531C5.96875 20.6719 5.84375 20.2969 5.8125 19.8281C5.8125 19.3281 5.9375 18.9219 6.1875 18.6094C6.4375 18.2656 6.73438 18.0156 7.07812 17.8594C7.39062 17.7031 7.71875 17.5938 8.0625 17.5312V17.0625C8.125 16.4688 8.4375 16.1562 9 16.125ZM4.5 10.5H8.25C8.71875 10.5312 8.96875 10.7812 9 11.25C8.96875 11.7188 8.71875 11.9688 8.25 12H4.5C4.03125 11.9688 3.78125 11.7188 3.75 11.25C3.78125 10.7812 4.03125 10.5312 4.5 10.5ZM4.5 13.5H8.25C8.71875 13.5312 8.96875 13.7812 9 14.25C8.96875 14.7188 8.71875 14.9688 8.25 15H4.5C4.03125 14.9688 3.78125 14.7188 3.75 14.25C3.78125 13.7812 4.03125 13.5312 4.5 13.5Z" fill="black" fill-opacity="0.72"/>
</g>
<defs>
<clipPath id="clip0_1731_6550">
<rect width="18" height="36" fill="white"/>
</clipPath>
</defs>
</svg>
