<svg width="18" height="30" viewBox="0 0 18 30" fill="none" xmlns="http://www.w3.org/2000/svg">
<g id="label-paired / lg / ellipsis-lg / regular" clip-path="url(#clip0_1731_5459)">
<path id="icon" d="M16.5 15.5C16.5 15.8646 16.3828 16.1641 16.1484 16.3984C15.9141 16.6328 15.6146 16.75 15.25 16.75C14.8854 16.75 14.5859 16.6328 14.3516 16.3984C14.1172 16.1641 14 15.8646 14 15.5C14 15.1354 14.1172 14.8359 14.3516 14.6016C14.5859 14.3672 14.8854 14.25 15.25 14.25C15.6146 14.25 15.9141 14.3672 16.1484 14.6016C16.3828 14.8359 16.5 15.1354 16.5 15.5ZM10.25 15.5C10.25 15.8646 10.1328 16.1641 9.89844 16.3984C9.66406 16.6328 9.36458 16.75 9 16.75C8.63542 16.75 8.33594 16.6328 8.10156 16.3984C7.86719 16.1641 7.75 15.8646 7.75 15.5C7.75 15.1354 7.86719 14.8359 8.10156 14.6016C8.33594 14.3672 8.63542 14.25 9 14.25C9.36458 14.25 9.66406 14.3672 9.89844 14.6016C10.1328 14.8359 10.25 15.1354 10.25 15.5ZM2.75 16.75C2.38542 16.75 2.08594 16.6328 1.85156 16.3984C1.61719 16.1641 1.5 15.8646 1.5 15.5C1.5 15.1354 1.61719 14.8359 1.85156 14.6016C2.08594 14.3672 2.38542 14.25 2.75 14.25C3.11458 14.25 3.41406 14.3672 3.64844 14.6016C3.88281 14.8359 4 15.1354 4 15.5C4 15.8646 3.88281 16.1641 3.64844 16.3984C3.41406 16.6328 3.11458 16.75 2.75 16.75Z" fill="black" fill-opacity="0.72"/>
</g>
<defs>
<clipPath id="clip0_1731_5459">
<rect width="18" height="30" fill="white"/>
</clipPath>
</defs>
</svg>
