<svg width="23" height="30" viewBox="0 0 23 30" fill="none" xmlns="http://www.w3.org/2000/svg">
<g id="label-paired / lg / star-lg / fill" clip-path="url(#clip0_1731_5548)">
<path id="icon" d="M12.6328 6.20312L15.1328 11.3594L20.7578 12.2188C21.2526 12.2969 21.5911 12.5703 21.7734 13.0391C21.9036 13.5339 21.7995 13.9635 21.4609 14.3281L17.3984 18.3516L18.3359 24.0547C18.4141 24.5495 18.2448 24.9531 17.8281 25.2656C17.4115 25.5521 16.9818 25.5781 16.5391 25.3438L11.5 22.6875L6.5 25.3438C6.03125 25.5781 5.58854 25.5521 5.17188 25.2656C4.78125 24.9531 4.61198 24.5495 4.66406 24.0547L5.64062 18.3516L1.57812 14.3281C1.21354 13.9635 1.10938 13.5339 1.26562 13.0391C1.42188 12.5703 1.7474 12.2969 2.24219 12.2188L7.86719 11.3594L10.3672 6.20312C10.6276 5.76042 11.0052 5.52604 11.5 5.5C12.0208 5.52604 12.3984 5.76042 12.6328 6.20312Z" fill="black" fill-opacity="0.72"/>
</g>
<defs>
<clipPath id="clip0_1731_5548">
<rect width="23" height="30" fill="white"/>
</clipPath>
</defs>
</svg>
