<svg width="16" height="24" viewBox="0 0 16 24" fill="none" xmlns="http://www.w3.org/2000/svg">
<g id="label-paired / md / wallet-md / bold" clip-path="url(#clip0_1731_4180)">
<path id="icon" d="M2.75 5H14.25C14.7083 5.04167 14.9583 5.29167 15 5.75C14.9583 6.20833 14.7083 6.45833 14.25 6.5H2.75C2.39583 6.5 2.10417 6.625 1.875 6.875C1.625 7.10417 1.5 7.39583 1.5 7.75V16.25C1.5 16.6042 1.625 16.8958 1.875 17.125C2.10417 17.375 2.39583 17.5 2.75 17.5H13.25C13.6042 17.5 13.8958 17.375 14.125 17.125C14.375 16.8958 14.5 16.6042 14.5 16.25V10.75C14.5 10.3958 14.375 10.1042 14.125 9.875C13.8958 9.625 13.6042 9.5 13.25 9.5H3.75C3.29167 9.45833 3.04167 9.20833 3 8.75C3.04167 8.29167 3.29167 8.04167 3.75 8H13.25C14.0208 8.02083 14.6667 8.29167 15.1875 8.8125C15.7083 9.33333 15.9792 9.97917 16 10.75V16.25C15.9792 17.0208 15.7083 17.6667 15.1875 18.1875C14.6667 18.7083 14.0208 18.9792 13.25 19H2.75C1.97917 18.9792 1.33333 18.7083 0.8125 18.1875C0.291667 17.6667 0.0208333 17.0208 0 16.25V7.75C0.0208333 6.97917 0.291667 6.33333 0.8125 5.8125C1.33333 5.29167 1.97917 5.02083 2.75 5ZM12 14.5C11.7083 14.5 11.4688 14.4062 11.2812 14.2188C11.0938 14.0312 11 13.7917 11 13.5C11 13.2083 11.0938 12.9688 11.2812 12.7812C11.4688 12.5938 11.7083 12.5 12 12.5C12.2917 12.5 12.5312 12.5938 12.7188 12.7812C12.9062 12.9688 13 13.2083 13 13.5C13 13.7917 12.9062 14.0312 12.7188 14.2188C12.5312 14.4062 12.2917 14.5 12 14.5Z" fill="black" fill-opacity="0.72"/>
</g>
<defs>
<clipPath id="clip0_1731_4180">
<rect width="16" height="24" fill="white"/>
</clipPath>
</defs>
</svg>
