<svg width="16" height="24" viewBox="0 0 16 24" fill="none" xmlns="http://www.w3.org/2000/svg">
<g id="label-paired / md / circle-euro-md / regular" clip-path="url(#clip0_1731_4223)">
<path id="icon" d="M15 12C14.9792 10.7292 14.6667 9.5625 14.0625 8.5C13.4375 7.4375 12.5833 6.58333 11.5 5.9375C10.3958 5.3125 9.22917 5 8 5C6.77083 5 5.60417 5.3125 4.5 5.9375C3.41667 6.58333 2.5625 7.4375 1.9375 8.5C1.33333 9.5625 1.02083 10.7292 1 12C1.02083 13.2708 1.33333 14.4375 1.9375 15.5C2.5625 16.5625 3.41667 17.4167 4.5 18.0625C5.60417 18.6875 6.77083 19 8 19C9.22917 19 10.3958 18.6875 11.5 18.0625C12.5833 17.4167 13.4375 16.5625 14.0625 15.5C14.6667 14.4375 14.9792 13.2708 15 12ZM0 12C0.0208333 10.5417 0.375 9.20833 1.0625 8C1.77083 6.79167 2.75 5.8125 4 5.0625C5.27083 4.35417 6.60417 4 8 4C9.39583 4 10.7292 4.35417 12 5.0625C13.25 5.8125 14.2292 6.79167 14.9375 8C15.625 9.20833 15.9792 10.5417 16 12C15.9792 13.4583 15.625 14.7917 14.9375 16C14.2292 17.2083 13.25 18.1875 12 18.9375C10.7292 19.6458 9.39583 20 8 20C6.60417 20 5.27083 19.6458 4 18.9375C2.75 18.1875 1.77083 17.2083 1.0625 16C0.375 14.7917 0.0208333 13.4583 0 12ZM4 12.5H4.75C4.72917 12.3333 4.71875 12.1771 4.71875 12.0312C4.71875 11.8438 4.72917 11.6667 4.75 11.5H4C3.6875 11.4792 3.52083 11.3125 3.5 11C3.52083 10.6875 3.6875 10.5208 4 10.5H5.0625C5.35417 9.89583 5.78125 9.41667 6.34375 9.0625C6.90625 8.6875 7.54167 8.5 8.25 8.5H9.53125C9.84375 8.52083 10.0104 8.6875 10.0312 9C10.0104 9.3125 9.84375 9.47917 9.53125 9.5H8.25C7.39583 9.52083 6.72917 9.85417 6.25 10.5H9C9.3125 10.5208 9.47917 10.6875 9.5 11C9.47917 11.3125 9.3125 11.4792 9 11.5H5.78125C5.73958 11.6667 5.71875 11.8438 5.71875 12.0312C5.71875 12.1979 5.73958 12.3542 5.78125 12.5H9C9.3125 12.5208 9.47917 12.6875 9.5 13C9.47917 13.3125 9.3125 13.4792 9 13.5H6.1875C6.6875 14.1667 7.375 14.5208 8.25 14.5625H9.53125C9.84375 14.5833 10.0104 14.75 10.0312 15.0625C10.0104 15.3542 9.84375 15.5208 9.53125 15.5625H8.25C7.52083 15.5417 6.875 15.3438 6.3125 14.9688C5.75 14.5938 5.33333 14.1042 5.0625 13.5H4C3.6875 13.4792 3.52083 13.3125 3.5 13C3.52083 12.6875 3.6875 12.5208 4 12.5Z" fill="black" fill-opacity="0.72"/>
</g>
<defs>
<clipPath id="clip0_1731_4223">
<rect width="16" height="24" fill="white"/>
</clipPath>
</defs>
</svg>
