<svg width="18" height="30" viewBox="0 0 18 30" fill="none" xmlns="http://www.w3.org/2000/svg">
<g id="label-paired / lg / square-minus-lg / regular" clip-path="url(#clip0_1731_5523)">
<path id="icon" d="M2.75 8C2.38542 8 2.08594 8.11719 1.85156 8.35156C1.61719 8.58594 1.5 8.88542 1.5 9.25V21.75C1.5 22.1146 1.61719 22.4141 1.85156 22.6484C2.08594 22.8828 2.38542 23 2.75 23H15.25C15.6146 23 15.9141 22.8828 16.1484 22.6484C16.3828 22.4141 16.5 22.1146 16.5 21.75V9.25C16.5 8.88542 16.3828 8.58594 16.1484 8.35156C15.9141 8.11719 15.6146 8 15.25 8H2.75ZM0.25 9.25C0.276042 8.54688 0.523438 7.96094 0.992188 7.49219C1.46094 7.02344 2.04688 6.77604 2.75 6.75H15.25C15.9531 6.77604 16.5391 7.02344 17.0078 7.49219C17.4766 7.96094 17.724 8.54688 17.75 9.25V21.75C17.724 22.4531 17.4766 23.0391 17.0078 23.5078C16.5391 23.9766 15.9531 24.224 15.25 24.25H2.75C2.04688 24.224 1.46094 23.9766 0.992188 23.5078C0.523438 23.0391 0.276042 22.4531 0.25 21.75V9.25ZM5.25 14.875H12.75C13.1406 14.901 13.349 15.1094 13.375 15.5C13.349 15.8906 13.1406 16.099 12.75 16.125H5.25C4.85938 16.099 4.65104 15.8906 4.625 15.5C4.65104 15.1094 4.85938 14.901 5.25 14.875Z" fill="black" fill-opacity="0.72"/>
</g>
<defs>
<clipPath id="clip0_1731_5523">
<rect width="18" height="30" fill="white"/>
</clipPath>
</defs>
</svg>
