<svg width="27" height="36" viewBox="0 0 27 36" fill="none" xmlns="http://www.w3.org/2000/svg">
<g id="label-paired / xl / arrow-down-one-nine-xl / regular" clip-path="url(#clip0_1731_6173)">
<path id="icon" d="M21 8.25V15H22.5C22.9688 15.0312 23.2188 15.2812 23.25 15.75C23.2188 16.2188 22.9688 16.4688 22.5 16.5H20.25H18C17.5312 16.4688 17.2812 16.2188 17.25 15.75C17.2812 15.2812 17.5312 15.0312 18 15H19.5V9.28125L18.2344 9.70312C17.7969 9.82812 17.4844 9.67188 17.2969 9.23438C17.2031 8.79688 17.3594 8.48438 17.7656 8.29688L20.0156 7.54688C20.2656 7.48438 20.4844 7.51562 20.6719 7.64062C20.8906 7.79687 21 8 21 8.25ZM8.01562 28.2656C7.67188 28.5781 7.32812 28.5781 6.98438 28.2656L2.48438 23.7656C2.17188 23.4219 2.17188 23.0781 2.48438 22.7344C2.82812 22.4219 3.17188 22.4219 3.51562 22.7344L6.75 25.9219V8.25C6.78125 7.78125 7.03125 7.53125 7.5 7.5C7.96875 7.53125 8.21875 7.78125 8.25 8.25V25.9219L11.4844 22.7344C11.8281 22.4219 12.1719 22.4219 12.5156 22.7344C12.8281 23.0781 12.8281 23.4219 12.5156 23.7656L8.01562 28.2656ZM20.0625 19.5C19.1562 19.5312 18.4531 19.9375 17.9531 20.7188C17.5156 21.5312 17.5156 22.3438 17.9531 23.1562C18.4531 23.9375 19.1562 24.3438 20.0625 24.375C20.9688 24.3438 21.6719 23.9375 22.1719 23.1562C22.6094 22.3438 22.6094 21.5312 22.1719 20.7188C21.6719 19.9375 20.9688 19.5312 20.0625 19.5ZM16.125 21.9375C16.1562 20.8125 16.5469 19.8906 17.2969 19.1719C18.0156 18.4219 18.9375 18.0312 20.0625 18C21.1875 18.0312 22.1094 18.4219 22.8281 19.1719C23.5781 19.8906 23.9688 20.8125 24 21.9375C24 22 24 22.0625 24 22.125C24 23.1562 23.6719 24.0625 23.0156 24.8438L20.0625 28.2188C19.7188 28.5625 19.375 28.5938 19.0312 28.3125C18.6875 27.9688 18.6562 27.625 18.9375 27.2812L20.1094 25.875C20.0781 25.875 20.0625 25.875 20.0625 25.875C18.9375 25.8438 18.0156 25.4531 17.2969 24.7031C16.5469 23.9844 16.1562 23.0625 16.125 21.9375Z" fill="black" fill-opacity="0.72"/>
</g>
<defs>
<clipPath id="clip0_1731_6173">
<rect width="27" height="36" fill="white"/>
</clipPath>
</defs>
</svg>
