<svg width="20" height="30" viewBox="0 0 20 30" fill="none" xmlns="http://www.w3.org/2000/svg">
<g id="label-paired / lg / chart-line-up-down-lg / bold" clip-path="url(#clip0_1731_4742)">
<path id="icon" d="M0.9375 6.75C1.51042 6.80208 1.82292 7.11458 1.875 7.6875V21.4375C1.92708 22.0104 2.23958 22.3229 2.8125 22.375H19.0625C19.6354 22.4271 19.9479 22.7396 20 23.3125C19.9479 23.8854 19.6354 24.1979 19.0625 24.25H2.8125C2.00521 24.224 1.34115 23.9505 0.820312 23.4297C0.299479 22.9089 0.0260417 22.2448 0 21.4375V7.6875C0.0520833 7.11458 0.364583 6.80208 0.9375 6.75ZM14.6875 9.875C14.1146 9.82292 13.8021 9.51042 13.75 8.9375C13.8021 8.36458 14.1146 8.05208 14.6875 8H17.8125C18.0729 8 18.2943 8.09115 18.4766 8.27344C18.6589 8.45573 18.75 8.67708 18.75 8.9375V12.0625C18.6979 12.6354 18.3854 12.9479 17.8125 13C17.2396 12.9479 16.9271 12.6354 16.875 12.0625V11.2031L11.9141 16.1641C11.4714 16.5286 11.0286 16.5286 10.5859 16.1641L8.125 13.7031L5.66406 16.1641C5.22135 16.5286 4.77865 16.5286 4.33594 16.1641C3.97135 15.7214 3.97135 15.2786 4.33594 14.8359L7.46094 11.7109C7.90365 11.3464 8.34635 11.3464 8.78906 11.7109L11.25 14.1719L15.5469 9.875H14.6875ZM14.6875 20.5C14.1146 20.4479 13.8021 20.1354 13.75 19.5625C13.8021 18.9896 14.1146 18.6771 14.6875 18.625H15.5469L13.7109 16.7891L15.0391 15.4609L16.875 17.2969V16.4375C16.9271 15.8646 17.2396 15.5521 17.8125 15.5C18.3854 15.5521 18.6979 15.8646 18.75 16.4375V19.5625C18.75 19.8229 18.6589 20.0443 18.4766 20.2266C18.2943 20.4089 18.0729 20.5 17.8125 20.5H14.6875Z" fill="black" fill-opacity="0.72"/>
</g>
<defs>
<clipPath id="clip0_1731_4742">
<rect width="20" height="30" fill="white"/>
</clipPath>
</defs>
</svg>
