<svg width="24" height="36" viewBox="0 0 24 36" fill="none" xmlns="http://www.w3.org/2000/svg">
<g id="label-paired / xl / circle-nine-xl / regular" clip-path="url(#clip0_1731_6116)">
<path id="icon" d="M22.5 18C22.4688 16.0938 22 14.3438 21.0938 12.75C20.1562 11.1562 18.875 9.875 17.25 8.90625C15.5938 7.96875 13.8438 7.5 12 7.5C10.1562 7.5 8.40625 7.96875 6.75 8.90625C5.125 9.875 3.84375 11.1562 2.90625 12.75C2 14.3438 1.53125 16.0938 1.5 18C1.53125 19.9062 2 21.6562 2.90625 23.25C3.84375 24.8438 5.125 26.125 6.75 27.0938C8.40625 28.0312 10.1562 28.5 12 28.5C13.8438 28.5 15.5938 28.0312 17.25 27.0938C18.875 26.125 20.1562 24.8438 21.0938 23.25C22 21.6562 22.4688 19.9062 22.5 18ZM0 18C0.03125 15.8125 0.5625 13.8125 1.59375 12C2.65625 10.1875 4.125 8.71875 6 7.59375C7.90625 6.53125 9.90625 6 12 6C14.0938 6 16.0938 6.53125 18 7.59375C19.875 8.71875 21.3438 10.1875 22.4062 12C23.4375 13.8125 23.9688 15.8125 24 18C23.9688 20.1875 23.4375 22.1875 22.4062 24C21.3438 25.8125 19.875 27.2812 18 28.4062C16.0938 29.4688 14.0938 30 12 30C9.90625 30 7.90625 29.4688 6 28.4062C4.125 27.2812 2.65625 25.8125 1.59375 24C0.5625 22.1875 0.03125 20.1875 0 18ZM12 13.5C10.875 13.5312 10.0156 14.0312 9.42188 15C8.85938 16 8.85938 17 9.42188 18C10.0156 18.9688 10.875 19.4688 12 19.5C13.125 19.4688 13.9844 18.9688 14.5781 18C15.1406 17 15.1406 16 14.5781 15C13.9844 14.0312 13.125 13.5312 12 13.5ZM11.8125 21C10.5938 20.9375 9.57812 20.4844 8.76562 19.6406C7.95312 18.7969 7.53125 17.75 7.5 16.5C7.53125 15.2188 7.96875 14.1562 8.8125 13.3125C9.65625 12.4688 10.7188 12.0312 12 12C13.2812 12.0312 14.3438 12.4688 15.1875 13.3125C16.0312 14.1562 16.4688 15.2188 16.5 16.5C16.4688 17.9688 15.9375 19.2031 14.9062 20.2031L11.0156 23.8125C10.6406 24.0938 10.2812 24.0781 9.9375 23.7656C9.65625 23.3906 9.67188 23.0312 9.98438 22.6875L11.8125 21Z" fill="black" fill-opacity="0.72"/>
</g>
<defs>
<clipPath id="clip0_1731_6116">
<rect width="24" height="36" fill="white"/>
</clipPath>
</defs>
</svg>
