<svg width="10" height="24" viewBox="0 0 10 24" fill="none" xmlns="http://www.w3.org/2000/svg">
<g id="label-paired / md / two-md / bold" clip-path="url(#clip0_1731_3518)">
<path id="icon" d="M4.625 6.5C3.75 6.52083 3.01042 6.82292 2.40625 7.40625L1.28125 8.53125C0.927083 8.82292 0.572917 8.82292 0.21875 8.53125C-0.0729167 8.17708 -0.0729167 7.82292 0.21875 7.46875L1.34375 6.375C2.23958 5.47917 3.33333 5.02083 4.625 5H4.84375C6.09375 5.04167 7.13542 5.46875 7.96875 6.28125C8.78125 7.11458 9.20833 8.15625 9.25 9.40625C9.22917 10.6771 8.76042 11.75 7.84375 12.625L2.65625 17.5H9.25C9.70833 17.5417 9.95833 17.7917 10 18.25C9.95833 18.7083 9.70833 18.9583 9.25 19H0.75C0.416667 18.9792 0.1875 18.8229 0.0625 18.5312C-0.0416667 18.2188 0.0208333 17.9479 0.25 17.7188L6.84375 11.5312C7.42708 10.9479 7.72917 10.2396 7.75 9.40625C7.72917 8.59375 7.44792 7.90625 6.90625 7.34375C6.34375 6.80208 5.65625 6.52083 4.84375 6.5H4.625Z" fill="black" fill-opacity="0.72"/>
</g>
<defs>
<clipPath id="clip0_1731_3518">
<rect width="10" height="24" fill="white"/>
</clipPath>
</defs>
</svg>
