<svg width="20" height="30" viewBox="0 0 20 30" fill="none" xmlns="http://www.w3.org/2000/svg">
<g id="label-paired / lg / chart-line-lg / bold" clip-path="url(#clip0_1731_4722)">
<path id="icon" d="M1.875 7.6875V21.4375C1.92708 22.0104 2.23958 22.3229 2.8125 22.375H19.0625C19.6354 22.4271 19.9479 22.7396 20 23.3125C19.9479 23.8854 19.6354 24.1979 19.0625 24.25H2.8125C2.00521 24.224 1.34115 23.9505 0.820312 23.4297C0.299479 22.9089 0.0260417 22.2448 0 21.4375V7.6875C0.0520833 7.11458 0.364583 6.80208 0.9375 6.75C1.51042 6.80208 1.82292 7.11458 1.875 7.6875ZM18.4766 12.1016L13.1641 17.4141C12.7214 17.7786 12.2786 17.7786 11.8359 17.4141L8.75 14.3281L5.66406 17.4141C5.22135 17.7786 4.77865 17.7786 4.33594 17.4141C3.97135 16.9714 3.97135 16.5286 4.33594 16.0859L8.08594 12.3359C8.26823 12.1536 8.48958 12.0625 8.75 12.0625C9.01042 12.0625 9.23177 12.1536 9.41406 12.3359L12.5 15.4219L17.1484 10.7734C17.5911 10.4089 18.0339 10.4089 18.4766 10.7734C18.8411 11.2161 18.8411 11.6589 18.4766 12.1016Z" fill="black" fill-opacity="0.72"/>
</g>
<defs>
<clipPath id="clip0_1731_4722">
<rect width="20" height="30" fill="white"/>
</clipPath>
</defs>
</svg>
