<svg width="12" height="18" viewBox="0 0 12 18" fill="none" xmlns="http://www.w3.org/2000/svg">
<g id="label-paired / caption / chart-mixed-caption / bold" clip-path="url(#clip0_1731_1244)">
<path id="icon" d="M11.8125 5.23438L7.875 8.60938C7.625 8.79688 7.375 8.79688 7.125 8.60938L4.45312 6.26562L0.867188 8.65625C0.570312 8.8125 0.3125 8.75781 0.09375 8.49219C-0.0625 8.19531 -0.0078125 7.9375 0.257812 7.71875L4.19531 5.09375C4.42969 4.95312 4.65625 4.96875 4.875 5.14062L7.5 7.4375L11.0625 4.39062C11.3438 4.1875 11.6094 4.20312 11.8594 4.4375C12.0625 4.71875 12.0469 4.98438 11.8125 5.23438ZM4.6875 13.625V9.875C4.67188 9.76562 4.60938 9.70312 4.5 9.6875C4.39062 9.70312 4.32812 9.76562 4.3125 9.875V13.625C4.32812 13.7344 4.39062 13.7969 4.5 13.8125C4.60938 13.7969 4.67188 13.7344 4.6875 13.625ZM4.5 8.75C4.8125 8.76562 5.07812 8.875 5.29688 9.07812C5.5 9.29688 5.60938 9.5625 5.625 9.875V13.625C5.60938 13.9375 5.5 14.2031 5.29688 14.4219C5.07812 14.625 4.8125 14.7344 4.5 14.75C4.1875 14.7344 3.92188 14.625 3.70312 14.4219C3.5 14.2031 3.39062 13.9375 3.375 13.625V9.875C3.39062 9.5625 3.5 9.29688 3.70312 9.07812C3.92188 8.875 4.1875 8.76562 4.5 8.75ZM1.6875 13.625V12.125C1.67188 12.0156 1.60938 11.9531 1.5 11.9375C1.39062 11.9531 1.32812 12.0156 1.3125 12.125V13.625C1.32812 13.7344 1.39062 13.7969 1.5 13.8125C1.60938 13.7969 1.67188 13.7344 1.6875 13.625ZM1.5 11C1.8125 11.0156 2.07812 11.125 2.29688 11.3281C2.5 11.5469 2.60938 11.8125 2.625 12.125V13.625C2.60938 13.9375 2.5 14.2031 2.29688 14.4219C2.07812 14.625 1.8125 14.7344 1.5 14.75C1.1875 14.7344 0.921875 14.625 0.703125 14.4219C0.5 14.2031 0.390625 13.9375 0.375 13.625V12.125C0.390625 11.8125 0.5 11.5469 0.703125 11.3281C0.921875 11.125 1.1875 11.0156 1.5 11ZM7.6875 11.375C7.67188 11.2656 7.60938 11.2031 7.5 11.1875C7.39062 11.2031 7.32812 11.2656 7.3125 11.375V13.625C7.32812 13.7344 7.39062 13.7969 7.5 13.8125C7.60938 13.7969 7.67188 13.7344 7.6875 13.625V11.375ZM6.375 11.375C6.39062 11.0625 6.5 10.7969 6.70312 10.5781C6.92188 10.375 7.1875 10.2656 7.5 10.25C7.8125 10.2656 8.07812 10.375 8.29688 10.5781C8.5 10.7969 8.60938 11.0625 8.625 11.375V13.625C8.60938 13.9375 8.5 14.2031 8.29688 14.4219C8.07812 14.625 7.8125 14.7344 7.5 14.75C7.1875 14.7344 6.92188 14.625 6.70312 14.4219C6.5 14.2031 6.39062 13.9375 6.375 13.625V11.375ZM10.6875 13.625V9.875C10.6719 9.76562 10.6094 9.70312 10.5 9.6875C10.3906 9.70312 10.3281 9.76562 10.3125 9.875V13.625C10.3281 13.7344 10.3906 13.7969 10.5 13.8125C10.6094 13.7969 10.6719 13.7344 10.6875 13.625ZM10.5 8.75C10.8125 8.76562 11.0781 8.875 11.2969 9.07812C11.5 9.29688 11.6094 9.5625 11.625 9.875V13.625C11.6094 13.9375 11.5 14.2031 11.2969 14.4219C11.0781 14.625 10.8125 14.7344 10.5 14.75C10.1875 14.7344 9.92188 14.625 9.70312 14.4219C9.5 14.2031 9.39062 13.9375 9.375 13.625V9.875C9.39062 9.5625 9.5 9.29688 9.70312 9.07812C9.92188 8.875 10.1875 8.76562 10.5 8.75Z" fill="black" fill-opacity="0.72"/>
</g>
<defs>
<clipPath id="clip0_1731_1244">
<rect width="12" height="18" fill="white"/>
</clipPath>
</defs>
</svg>
