<svg width="21" height="36" viewBox="0 0 21 36" fill="none" xmlns="http://www.w3.org/2000/svg">
<g id="label-paired / xl / copy-xl / regular" clip-path="url(#clip0_1731_6468)">
<path id="icon" d="M18 22.5C18.4375 22.5 18.7969 22.3594 19.0781 22.0781C19.3594 21.7969 19.5 21.4375 19.5 21V11.4375C19.5 11.2188 19.4219 11.0469 19.2656 10.9219L16.0781 7.73438C15.9531 7.57813 15.7812 7.5 15.5625 7.5H10.5C10.0625 7.5 9.70312 7.64062 9.42188 7.92188C9.14062 8.20312 9 8.5625 9 9V21C9 21.4375 9.14062 21.7969 9.42188 22.0781C9.70312 22.3594 10.0625 22.5 10.5 22.5H18ZM20.3438 9.84375C20.7812 10.2812 21 10.8125 21 11.4375V21C20.9688 21.8438 20.6719 22.5469 20.1094 23.1094C19.5469 23.6719 18.8438 23.9688 18 24H10.5C9.65625 23.9688 8.95312 23.6719 8.39062 23.1094C7.82812 22.5469 7.53125 21.8438 7.5 21V9C7.53125 8.15625 7.82812 7.45312 8.39062 6.89062C8.95312 6.32812 9.65625 6.03125 10.5 6H15.5625C16.1875 6 16.7188 6.21875 17.1562 6.65625L20.3438 9.84375ZM3 12H6V13.5H3C2.5625 13.5 2.20312 13.6406 1.92188 13.9219C1.64062 14.2031 1.5 14.5625 1.5 15V27C1.5 27.4375 1.64062 27.7969 1.92188 28.0781C2.20312 28.3594 2.5625 28.5 3 28.5H10.5C10.9375 28.5 11.2969 28.3594 11.5781 28.0781C11.8594 27.7969 12 27.4375 12 27V25.5H13.5V27C13.4688 27.8438 13.1719 28.5469 12.6094 29.1094C12.0469 29.6719 11.3438 29.9688 10.5 30H3C2.15625 29.9688 1.45312 29.6719 0.890625 29.1094C0.328125 28.5469 0.03125 27.8438 0 27V15C0.03125 14.1562 0.328125 13.4531 0.890625 12.8906C1.45312 12.3281 2.15625 12.0312 3 12Z" fill="black" fill-opacity="0.72"/>
</g>
<defs>
<clipPath id="clip0_1731_6468">
<rect width="21" height="36" fill="white"/>
</clipPath>
</defs>
</svg>
