<svg width="16" height="24" viewBox="0 0 16 24" fill="none" xmlns="http://www.w3.org/2000/svg">
<g id="label-paired / md / window-maximize-md / regular" clip-path="url(#clip0_1731_3205)">
<path id="icon" d="M2 6C1.70833 6 1.46875 6.09375 1.28125 6.28125C1.09375 6.46875 1 6.70833 1 7V10H15V7C15 6.70833 14.9062 6.46875 14.7188 6.28125C14.5312 6.09375 14.2917 6 14 6H2ZM1 11V17C1 17.2917 1.09375 17.5312 1.28125 17.7188C1.46875 17.9062 1.70833 18 2 18H14C14.2917 18 14.5312 17.9062 14.7188 17.7188C14.9062 17.5312 15 17.2917 15 17V11H1ZM0 7C0.0208333 6.4375 0.21875 5.96875 0.59375 5.59375C0.96875 5.21875 1.4375 5.02083 2 5H14C14.5625 5.02083 15.0312 5.21875 15.4062 5.59375C15.7812 5.96875 15.9792 6.4375 16 7V17C15.9792 17.5625 15.7812 18.0312 15.4062 18.4062C15.0312 18.7812 14.5625 18.9792 14 19H2C1.4375 18.9792 0.96875 18.7812 0.59375 18.4062C0.21875 18.0312 0.0208333 17.5625 0 17V7Z" fill="black" fill-opacity="0.72"/>
</g>
<defs>
<clipPath id="clip0_1731_3205">
<rect width="16" height="24" fill="white"/>
</clipPath>
</defs>
</svg>
