<svg width="12" height="18" viewBox="0 0 12 18" fill="none" xmlns="http://www.w3.org/2000/svg">
<g id="label-paired / caption / arrows-rotate-caption / bold" clip-path="url(#clip0_1731_671)">
<path id="icon" d="M11.625 8.1875C11.5938 8.53125 11.4062 8.71875 11.0625 8.75H8.4375H7.6875C7.34375 8.71875 7.15625 8.53125 7.125 8.1875C7.15625 7.84375 7.34375 7.65625 7.6875 7.625H8.4375H9.70312L8.48438 6.40625C7.79688 5.73438 6.96875 5.39062 6 5.375C5.14062 5.39062 4.375 5.625 3.70312 6.07812C3.03125 6.53125 2.53125 7.13281 2.20312 7.88281C2.04688 8.19531 1.80469 8.29688 1.47656 8.1875C1.16406 8.01562 1.0625 7.76562 1.17188 7.4375C1.57812 6.48438 2.21094 5.71875 3.07031 5.14062C3.92969 4.5625 4.90625 4.26562 6 4.25C7.26562 4.26562 8.35938 4.71875 9.28125 5.60938L10.5 6.82812V5.5625V4.8125C10.5312 4.46875 10.7188 4.28125 11.0625 4.25C11.4062 4.28125 11.5938 4.46875 11.625 4.8125V8.1875ZM0.9375 10.25H3.5625C3.90625 10.2812 4.09375 10.4688 4.125 10.8125C4.09375 11.1562 3.90625 11.3438 3.5625 11.375H2.29688L3.51562 12.5938C4.20312 13.2656 5.03125 13.6094 6 13.625C6.85938 13.6094 7.625 13.375 8.29688 12.9219C8.96875 12.4688 9.46875 11.8672 9.79688 11.1172C9.95312 10.8203 10.1953 10.7266 10.5234 10.8359C10.8359 10.9922 10.9375 11.2344 10.8281 11.5625C10.4062 12.5156 9.77344 13.2812 8.92969 13.8594C8.07031 14.4375 7.09375 14.7344 6 14.75C4.73438 14.7344 3.64062 14.2812 2.71875 13.3906L1.5 12.1719V13.4375C1.46875 13.7812 1.28125 13.9688 0.9375 14C0.59375 13.9688 0.40625 13.7812 0.375 13.4375V10.8125C0.40625 10.4688 0.59375 10.2812 0.9375 10.25Z" fill="black" fill-opacity="0.72"/>
</g>
<defs>
<clipPath id="clip0_1731_671">
<rect width="12" height="18" fill="white"/>
</clipPath>
</defs>
</svg>
