<svg width="16" height="24" viewBox="0 0 16 24" fill="none" xmlns="http://www.w3.org/2000/svg">
<g id="label-paired / md / window-maximize-md / bold" clip-path="url(#clip0_1731_3207)">
<path id="icon" d="M0 6.8125C0.0416667 6.54167 0.125 6.29167 0.25 6.0625C0.416667 5.72917 0.666667 5.46875 1 5.28125C1.25 5.13542 1.52083 5.04167 1.8125 5C1.875 5 1.9375 5 2 5H14C14.5625 5.02083 15.0312 5.21875 15.4062 5.59375C15.7812 5.96875 15.9792 6.4375 16 7V11V17C15.9792 17.5625 15.7812 18.0312 15.4062 18.4062C15.0312 18.7812 14.5625 18.9792 14 19H2C1.4375 18.9792 0.96875 18.7812 0.59375 18.4062C0.21875 18.0312 0.0208333 17.5625 0 17V11V7C0 6.9375 0 6.875 0 6.8125ZM1.5 11V17C1.52083 17.3125 1.6875 17.4792 2 17.5H14C14.3125 17.4792 14.4792 17.3125 14.5 17V11H1.5Z" fill="black" fill-opacity="0.72"/>
</g>
<defs>
<clipPath id="clip0_1731_3207">
<rect width="16" height="24" fill="white"/>
</clipPath>
</defs>
</svg>
