<svg width="23" height="30" viewBox="0 0 23 30" fill="none" xmlns="http://www.w3.org/2000/svg">
<g id="label-paired / lg / presentation-screen-lg / bold" clip-path="url(#clip0_1731_4798)">
<path id="icon" d="M1.1875 5.5H21.8125C22.3854 5.55208 22.6979 5.86458 22.75 6.4375C22.6979 7.01042 22.3854 7.32292 21.8125 7.375H1.1875C0.614583 7.32292 0.302083 7.01042 0.25 6.4375C0.302083 5.86458 0.614583 5.55208 1.1875 5.5ZM1.5 8.625H3.375V17.0625C3.40104 17.2448 3.50521 17.349 3.6875 17.375H11.5H19.3125C19.4948 17.349 19.599 17.2448 19.625 17.0625V8.625H21.5V17.0625C21.474 17.6875 21.2656 18.2083 20.875 18.625C20.4583 19.0156 19.9375 19.224 19.3125 19.25H12.4375V21.0469L15.2891 23.8984C15.6536 24.3411 15.6536 24.7839 15.2891 25.2266C14.8464 25.5911 14.4036 25.5911 13.9609 25.2266L11.5 22.7656L9.03906 25.2266C8.59635 25.5911 8.15365 25.5911 7.71094 25.2266C7.34635 24.7839 7.34635 24.3411 7.71094 23.8984L10.5625 21.0469V19.25H3.6875C3.0625 19.224 2.54167 19.0156 2.125 18.625C1.73438 18.2083 1.52604 17.6875 1.5 17.0625V8.625Z" fill="black" fill-opacity="0.72"/>
</g>
<defs>
<clipPath id="clip0_1731_4798">
<rect width="23" height="30" fill="white"/>
</clipPath>
</defs>
</svg>
