<svg width="18" height="36" viewBox="0 0 18 36" fill="none" xmlns="http://www.w3.org/2000/svg">
<g id="label-paired / xl / mobile-notch-xl / regular" clip-path="url(#clip0_1731_6396)">
<path id="icon" d="M12 7.5V8.25C12 8.6875 11.8594 9.04688 11.5781 9.32812C11.2969 9.60938 10.9375 9.75 10.5 9.75H7.5C7.0625 9.75 6.70312 9.60938 6.42188 9.32812C6.14062 9.04688 6 8.6875 6 8.25V7.5H4.5C4.0625 7.5 3.70312 7.64062 3.42188 7.92188C3.14062 8.20312 3 8.5625 3 9V27C3 27.4375 3.14062 27.7969 3.42188 28.0781C3.70312 28.3594 4.0625 28.5 4.5 28.5H13.5C13.9375 28.5 14.2969 28.3594 14.5781 28.0781C14.8594 27.7969 15 27.4375 15 27V9C15 8.5625 14.8594 8.20312 14.5781 7.92188C14.2969 7.64062 13.9375 7.5 13.5 7.5H12ZM10.5 7.5H7.5V8.25H10.5V7.5ZM1.5 9C1.53125 8.15625 1.82812 7.45312 2.39062 6.89062C2.95312 6.32812 3.65625 6.03125 4.5 6H13.5C14.3438 6.03125 15.0469 6.32812 15.6094 6.89062C16.1719 7.45312 16.4688 8.15625 16.5 9V27C16.4688 27.8438 16.1719 28.5469 15.6094 29.1094C15.0469 29.6719 14.3438 29.9688 13.5 30H4.5C3.65625 29.9688 2.95312 29.6719 2.39062 29.1094C1.82812 28.5469 1.53125 27.8438 1.5 27V9Z" fill="black" fill-opacity="0.72"/>
</g>
<defs>
<clipPath id="clip0_1731_6396">
<rect width="18" height="36" fill="white"/>
</clipPath>
</defs>
</svg>
