<svg width="23" height="30" viewBox="0 0 23 30" fill="none" xmlns="http://www.w3.org/2000/svg">
<g id="label-paired / lg / pen-line-lg / regular" clip-path="url(#clip0_1731_4944)">
<path id="icon" d="M17.0469 7.0625C16.6042 6.69792 16.1615 6.69792 15.7188 7.0625L13.5703 9.17188L16.5781 12.1797L18.6875 10.0312C19.0521 9.58854 19.0521 9.14583 18.6875 8.70312L17.0469 7.0625ZM3.49219 19.25C3.20573 19.5625 2.9974 19.9271 2.86719 20.3438L1.8125 23.9375L5.40625 22.8828C5.82292 22.7526 6.1875 22.5443 6.5 22.2578L15.6797 13.0781L12.6719 10.0703L3.49219 19.25ZM14.8203 6.16406C15.263 5.7474 15.7839 5.53906 16.3828 5.53906C16.9557 5.53906 17.4635 5.7474 17.9062 6.16406L19.5859 7.84375C20.0026 8.28646 20.2109 8.79427 20.2109 9.36719C20.2109 9.96615 20.0026 10.487 19.5859 10.9297L7.35938 23.1562C6.91667 23.599 6.39583 23.9115 5.79688 24.0938L1.07031 25.4609C0.809896 25.5391 0.601562 25.487 0.445312 25.3047C0.263021 25.1484 0.210938 24.9531 0.289062 24.7188L1.65625 19.9922C1.83854 19.3672 2.16406 18.8333 2.63281 18.3906L14.8203 6.16406ZM9.625 24.25H22.125C22.5156 24.276 22.724 24.4844 22.75 24.875C22.724 25.2656 22.5156 25.474 22.125 25.5H9.625C9.23438 25.474 9.02604 25.2656 9 24.875C9.02604 24.4844 9.23438 24.276 9.625 24.25Z" fill="black" fill-opacity="0.72"/>
</g>
<defs>
<clipPath id="clip0_1731_4944">
<rect width="23" height="30" fill="white"/>
</clipPath>
</defs>
</svg>
