<svg width="30" height="36" viewBox="0 0 30 36" fill="none" xmlns="http://www.w3.org/2000/svg">
<g id="label-paired / xl / fiat-onramp-xl / bold" clip-path="url(#clip0_1731_6710)">
<path id="icon" d="M20.7656 8.25C19.3594 8.29688 18.0469 9.04688 17.3438 10.2656C16.6406 11.4844 16.6406 12.9844 17.3438 14.2031C18.0469 15.4219 19.3594 16.1719 20.7656 16.1719C22.1719 16.1719 23.4844 15.4219 24.1875 14.2031C24.8906 12.9844 24.8906 11.4844 24.1875 10.2656C23.4844 9.04688 22.1719 8.25 20.7656 8.25ZM24.75 17.0156C23.6719 17.9062 22.2656 18.4219 20.7656 18.4219C18.75 18.4219 16.9219 17.4375 15.7969 15.8906L12.8438 18.8438C14.3906 19.9688 15.375 21.7969 15.375 23.8125C15.375 25.3125 14.8594 26.7188 13.9688 27.75H22.9688C23.9531 27.75 24.75 26.9531 24.75 26.0156V17.0156ZM9.1875 27.75C11.3438 27.75 13.125 26.0156 13.125 23.8125C13.125 22.1719 12.0938 20.7188 10.6406 20.1562H10.5938C10.1719 19.9688 9.70312 19.875 9.1875 19.875C6.98438 19.875 5.25 21.6562 5.25 23.8125C5.25 26.0156 6.98438 27.75 9.1875 27.75ZM10.6875 17.8125L14.7656 13.7344C14.625 13.2656 14.5781 12.75 14.5781 12.2344C14.5781 8.8125 17.3438 6 20.7656 6C24.1875 6 27 8.8125 27 12.2344V26.0156C27 28.2188 25.1719 30 22.9688 30H9.1875C5.76562 30 3 27.2344 3 23.8125C3 20.3906 5.76562 17.625 9.1875 17.625C9.70312 17.625 10.2188 17.6719 10.6875 17.8125ZM7.26562 11.4844C7.26562 10.875 7.78125 10.3594 8.39062 10.3594H12.7969C13.2656 10.3594 13.6875 10.6406 13.8281 11.0625C14.0156 11.4844 13.9219 11.9531 13.5938 12.2812L9.23438 16.6406C8.8125 17.0625 8.10938 17.0625 7.64062 16.6406C7.21875 16.2188 7.21875 15.4688 7.64062 15.0469L10.0781 12.6094H8.39062C7.78125 12.6094 7.26562 12.1406 7.26562 11.4844ZM20.1094 9.09375V9.98438H21V9.09375H21.8906V9.98438C22.2188 9.98438 22.5469 10.0781 22.7812 10.3125C23.3438 10.8281 23.3906 11.6719 22.875 12.2344C23.1094 12.4688 23.25 12.7969 23.25 13.125C23.25 13.875 22.6406 14.4844 21.8906 14.4844V15.375H21V14.4844H20.1094V15.375H19.2188V14.4844H18.3281V13.5938H19.2188V10.875H18.3281V9.98438H19.2188V9.09375H20.1094ZM21.8906 12.6562H20.1094V13.5938H21.8906C22.125 13.5938 22.3594 13.3594 22.3594 13.125C22.3594 12.8906 22.125 12.6562 21.8906 12.6562ZM21.8906 10.875H20.1094V11.7656H21.8906C22.125 11.7656 22.3594 11.5781 22.3594 11.3438C22.3594 11.0625 22.125 10.875 21.8906 10.875ZM9.75 20.4375V20.9062C10.4531 21.1875 10.9688 21.8438 10.9688 22.5938V22.7344H9.84375V22.5938C9.84375 22.2188 9.5625 21.9375 9.1875 21.9375C8.8125 21.9375 8.53125 22.2188 8.53125 22.5938C8.53125 22.9688 8.8125 23.25 9.1875 23.25C10.1719 23.25 10.9688 24.0469 10.9688 25.0312C10.9688 25.7812 10.4531 26.4375 9.75 26.7188V27.1875H8.625V26.6719C7.92188 26.4375 7.45312 25.7812 7.45312 25.0312V24.8438H8.53125V25.0312C8.53125 25.3594 8.8125 25.6875 9.1875 25.6875C9.5625 25.6875 9.84375 25.3594 9.84375 25.0312C9.84375 24.6562 9.5625 24.375 9.1875 24.375C8.20312 24.375 7.45312 23.5781 7.45312 22.5938C7.45312 21.8438 7.92188 21.1406 8.625 20.9062V20.4375H9.75Z" fill="black" fill-opacity="0.72"/>
</g>
<defs>
<clipPath id="clip0_1731_6710">
<rect width="30" height="36" fill="white"/>
</clipPath>
</defs>
</svg>
