<svg width="12" height="18" viewBox="0 0 12 18" fill="none" xmlns="http://www.w3.org/2000/svg">
<g id="label-paired / caption / circle-four-caption / bold" clip-path="url(#clip0_1731_1062)">
<path id="icon" d="M10.875 9.5C10.875 8.60938 10.6562 7.79688 10.2188 7.0625C9.79688 6.32812 9.20312 5.73438 8.4375 5.28125C7.67188 4.84375 6.85938 4.625 6 4.625C5.14062 4.625 4.32812 4.84375 3.5625 5.28125C2.79688 5.73438 2.20312 6.32812 1.78125 7.0625C1.34375 7.79688 1.125 8.60938 1.125 9.5C1.125 10.3906 1.34375 11.2031 1.78125 11.9375C2.20312 12.6719 2.79688 13.2656 3.5625 13.7188C4.32812 14.1562 5.14062 14.375 6 14.375C6.85938 14.375 7.67188 14.1562 8.4375 13.7188C9.20312 13.2656 9.79688 12.6719 10.2188 11.9375C10.6562 11.2031 10.875 10.3906 10.875 9.5ZM0 9.5C0.015625 8.40625 0.28125 7.40625 0.796875 6.5C1.32812 5.59375 2.0625 4.85938 3 4.29688C3.95312 3.76562 4.95312 3.5 6 3.5C7.04688 3.5 8.04688 3.76562 9 4.29688C9.9375 4.85938 10.6719 5.59375 11.2031 6.5C11.7188 7.40625 11.9844 8.40625 12 9.5C11.9844 10.5938 11.7188 11.5938 11.2031 12.5C10.6719 13.4062 9.9375 14.1406 9 14.7031C8.04688 15.2344 7.04688 15.5 6 15.5C4.95312 15.5 3.95312 15.2344 3 14.7031C2.0625 14.1406 1.32812 13.4062 0.796875 12.5C0.28125 11.5938 0.015625 10.5938 0 9.5ZM5.25 6.52344C5.5625 6.66406 5.67969 6.90625 5.60156 7.25L4.71094 9.875H6.375V8.5625C6.40625 8.21875 6.59375 8.03125 6.9375 8C7.28125 8.03125 7.46875 8.21875 7.5 8.5625V9.875H7.6875C8.03125 9.90625 8.21875 10.0938 8.25 10.4375C8.21875 10.7812 8.03125 10.9688 7.6875 11H7.5V11.9375C7.46875 12.2812 7.28125 12.4688 6.9375 12.5C6.59375 12.4688 6.40625 12.2812 6.375 11.9375V11H3.9375C3.75 11 3.60156 10.9219 3.49219 10.7656C3.38281 10.6094 3.35156 10.4375 3.39844 10.25L4.52344 6.875C4.66406 6.5625 4.90625 6.44531 5.25 6.52344Z" fill="black" fill-opacity="0.72"/>
</g>
<defs>
<clipPath id="clip0_1731_1062">
<rect width="12" height="18" fill="white"/>
</clipPath>
</defs>
</svg>
