<svg width="16" height="22" viewBox="0 0 16 22" fill="none" xmlns="http://www.w3.org/2000/svg">
<g id="label-paired / sm / arrow-up-arrow-down-sm / bold" clip-path="url(#clip0_1731_2386)">
<path id="icon" d="M14.5898 14.0586L11.9648 16.6836C11.6549 16.9388 11.3451 16.9388 11.0352 16.6836L8.41016 14.0586C8.15495 13.7487 8.15495 13.4388 8.41016 13.1289C8.72005 12.8737 9.02995 12.8737 9.33984 13.1289L10.8438 14.6328V5.28125C10.8802 4.88021 11.099 4.66146 11.5 4.625C11.901 4.66146 12.1198 4.88021 12.1562 5.28125V14.6328L13.6602 13.1289C13.9701 12.8737 14.2799 12.8737 14.5898 13.1289C14.8451 13.4388 14.8451 13.7487 14.5898 14.0586ZM4.96484 4.81641L7.58984 7.44141C7.84505 7.7513 7.84505 8.0612 7.58984 8.37109C7.27995 8.6263 6.97005 8.6263 6.66016 8.37109L5.15625 6.86719V16.2188C5.11979 16.6198 4.90104 16.8385 4.5 16.875C4.09896 16.8385 3.88021 16.6198 3.84375 16.2188V6.86719L2.33984 8.37109C2.02995 8.6263 1.72005 8.6263 1.41016 8.37109C1.15495 8.0612 1.15495 7.7513 1.41016 7.44141L4.03516 4.81641C4.34505 4.5612 4.65495 4.5612 4.96484 4.81641Z" fill="black" fill-opacity="0.72"/>
</g>
<defs>
<clipPath id="clip0_1731_2386">
<rect width="16" height="22" fill="white"/>
</clipPath>
</defs>
</svg>
