<svg width="16" height="24" viewBox="0 0 16 24" fill="none" xmlns="http://www.w3.org/2000/svg">
<g id="label-paired / md / chart-line-up-down-md / regular" clip-path="url(#clip0_1731_3783)">
<path id="icon" d="M1 5.5V16.5C1.02083 16.9167 1.16667 17.2708 1.4375 17.5625C1.72917 17.8333 2.08333 17.9792 2.5 18H15.5C15.8125 18.0208 15.9792 18.1875 16 18.5C15.9792 18.8125 15.8125 18.9792 15.5 19H2.5C1.79167 18.9792 1.19792 18.7396 0.71875 18.2812C0.260417 17.8021 0.0208333 17.2083 0 16.5V5.5C0.0208333 5.1875 0.1875 5.02083 0.5 5C0.8125 5.02083 0.979167 5.1875 1 5.5ZM11.5 7C11.1875 6.97917 11.0208 6.8125 11 6.5C11.0208 6.1875 11.1875 6.02083 11.5 6H14.5C14.8125 6.02083 14.9792 6.1875 15 6.5V9.5C14.9792 9.8125 14.8125 9.97917 14.5 10C14.1875 9.97917 14.0208 9.8125 14 9.5V7.71875L9.34375 12.3438C9.11458 12.5521 8.88542 12.5521 8.65625 12.3438L6.5 10.2188L3.84375 12.8438C3.61458 13.0521 3.38542 13.0521 3.15625 12.8438C2.94792 12.6146 2.94792 12.3854 3.15625 12.1562L6.15625 9.15625C6.23958 9.05208 6.35417 9 6.5 9C6.64583 9 6.76042 9.05208 6.84375 9.15625L9 11.2812L13.2812 7H11.5ZM11.5 16C11.1875 15.9792 11.0208 15.8125 11 15.5C11.0208 15.1875 11.1875 15.0208 11.5 15H13.2812L11.1562 12.8438L11.8438 12.1562L14 14.2812V12.5C14.0208 12.1875 14.1875 12.0208 14.5 12C14.8125 12.0208 14.9792 12.1875 15 12.5V15.5C14.9792 15.8125 14.8125 15.9792 14.5 16H11.5Z" fill="black" fill-opacity="0.72"/>
</g>
<defs>
<clipPath id="clip0_1731_3783">
<rect width="16" height="24" fill="white"/>
</clipPath>
</defs>
</svg>
