<svg width="30" height="36" viewBox="0 0 30 36" fill="none" xmlns="http://www.w3.org/2000/svg">
<g id="label-paired / xl / location-crosshairs-slash-xl / regular" clip-path="url(#clip0_1731_6452)">
<path id="icon" d="M18.5625 24.6094H18.5156L19.7812 25.5938C18.5938 26.375 17.25 26.8281 15.75 26.9531V29.25C15.7188 29.7188 15.4688 29.9688 15 30C14.5312 29.9688 14.2812 29.7188 14.25 29.25V26.9531C12.0312 26.7344 10.1562 25.875 8.625 24.375C7.125 22.8438 6.26562 20.9688 6.04688 18.75H3.75C3.28125 18.7188 3.03125 18.4688 3 18C3.03125 17.5312 3.28125 17.2812 3.75 17.25H6.04688C6.10938 16.5 6.25 15.7812 6.46875 15.0938L7.73438 16.0781C7.57812 16.7031 7.5 17.3438 7.5 18C7.5625 20.125 8.29688 21.8906 9.70312 23.2969C11.1094 24.7031 12.875 25.4375 15 25.5C16.2812 25.5 17.4688 25.2031 18.5625 24.6094ZM14.25 9.04688V6.75C14.2812 6.28125 14.5312 6.03125 15 6C15.4688 6.03125 15.7188 6.28125 15.75 6.75V9.04688C17.9688 9.26562 19.8438 10.125 21.375 11.625C22.875 13.1562 23.7344 15.0312 23.9531 17.25H26.25C26.7188 17.2812 26.9688 17.5312 27 18C26.9688 18.4688 26.7188 18.7188 26.25 18.75H23.9531C23.8906 19.5 23.75 20.2188 23.5312 20.9062L22.2656 19.9219C22.4219 19.2969 22.5 18.6562 22.5 18C22.4375 15.875 21.7031 14.1094 20.2969 12.7031C18.8906 11.2969 17.125 10.5625 15 10.5C13.7188 10.5 12.5469 10.7969 11.4844 11.3906L10.2188 10.4062C11.4062 9.625 12.75 9.17188 14.25 9.04688ZM15 22.5C13.7812 22.4688 12.75 22.0625 11.9062 21.2812C11.0625 20.5 10.5938 19.5 10.5 18.2812L13.125 20.3438C13.1562 20.3438 13.1719 20.3594 13.1719 20.3906L15.7969 22.4531C15.5156 22.4844 15.25 22.5 15 22.5ZM14.25 13.5469C14.5 13.5156 14.75 13.5 15 13.5C16.2188 13.5312 17.25 13.9375 18.0938 14.7188C18.9375 15.5 19.4062 16.5 19.5 17.7188L16.875 15.6562C16.8438 15.6562 16.8281 15.6406 16.8281 15.6094L14.25 13.5469ZM1.21875 6.14062L29.7188 28.6875C30.0625 29 30.1094 29.3438 29.8594 29.7188C29.5156 30.0625 29.1562 30.1094 28.7812 29.8594L0.28125 7.35938C-0.0625 7.01563 -0.109375 6.65625 0.140625 6.28125C0.484375 5.96875 0.84375 5.92187 1.21875 6.14062Z" fill="black" fill-opacity="0.72"/>
</g>
<defs>
<clipPath id="clip0_1731_6452">
<rect width="30" height="36" fill="white"/>
</clipPath>
</defs>
</svg>
