<svg width="30" height="36" viewBox="0 0 30 36" fill="none" xmlns="http://www.w3.org/2000/svg">
<g id="label-paired / xl / bell-on-xl / bold" clip-path="url(#clip0_1731_6327)">
<path id="icon" d="M15 6C15.4375 6 15.7969 6.14062 16.0781 6.42188C16.3594 6.70312 16.5 7.0625 16.5 7.5V8.34375C18.25 8.65625 19.6719 9.45312 20.7656 10.7344C21.8906 12.0156 22.4688 13.5625 22.5 15.375V16.9219C22.5312 19.1094 23.2188 21.0625 24.5625 22.7812L25.2656 23.6719C25.5156 24.0469 25.5625 24.4375 25.4062 24.8438C25.1875 25.25 24.8438 25.4688 24.375 25.5H5.625C5.15625 25.4688 4.8125 25.25 4.59375 24.8438C4.4375 24.4375 4.48438 24.0469 4.73438 23.6719L5.4375 22.7812C6.78125 21.0625 7.46875 19.1094 7.5 16.9219V15.375C7.53125 13.5625 8.10938 12.0156 9.23438 10.7344C10.3281 9.45312 11.75 8.65625 13.5 8.34375V7.5C13.5 7.0625 13.6406 6.70312 13.9219 6.42188C14.2031 6.14062 14.5625 6 15 6ZM15 10.5H14.625C13.25 10.5312 12.0938 11 11.1562 11.9062C10.25 12.8438 9.78125 14 9.75 15.375V16.9219C9.75 19.2344 9.125 21.3438 7.875 23.25H22.125C20.9062 21.3438 20.2812 19.2344 20.25 16.9219V15.375C20.2188 14 19.75 12.8438 18.8438 11.9062C17.9062 11 16.75 10.5312 15.375 10.5H15ZM18 27C18 27.8125 17.7031 28.5156 17.1094 29.1094C16.5156 29.7031 15.8125 30 15 30C14.1875 30 13.4844 29.7031 12.8906 29.1094C12.2969 28.5156 12 27.8125 12 27H15H18ZM0 15.375C0.0625 14.6875 0.4375 14.3125 1.125 14.25H4.875C5.5625 14.3125 5.9375 14.6875 6 15.375C5.9375 16.0625 5.5625 16.4375 4.875 16.5H1.125C0.4375 16.4375 0.0625 16.0625 0 15.375ZM25.125 14.25H28.875C29.5625 14.3125 29.9375 14.6875 30 15.375C29.9375 16.0625 29.5625 16.4375 28.875 16.5H25.125C24.4375 16.4375 24.0625 16.0625 24 15.375C24.0625 14.6875 24.4375 14.3125 25.125 14.25ZM28.0312 6.98438C28.2812 7.64062 28.1094 8.15625 27.5156 8.53125L24.5156 10.0312C23.8594 10.2812 23.3594 10.1094 23.0156 9.51562C22.7656 8.85938 22.9219 8.35938 23.4844 8.01562L26.4844 6.51562C27.1406 6.26563 27.6562 6.42188 28.0312 6.98438ZM2.48438 8.53125C1.92188 8.15625 1.76562 7.64062 2.01562 6.98438C2.35938 6.42188 2.85938 6.26563 3.51562 6.51562L6.51562 8.01562C7.07812 8.35938 7.25 8.85938 7.03125 9.51562C6.65625 10.0781 6.14062 10.25 5.48438 10.0312L2.48438 8.53125Z" fill="black" fill-opacity="0.72"/>
</g>
<defs>
<clipPath id="clip0_1731_6327">
<rect width="30" height="36" fill="white"/>
</clipPath>
</defs>
</svg>
