<svg width="8" height="18" viewBox="0 0 8 18" fill="none" xmlns="http://www.w3.org/2000/svg">
<g id="label-paired / caption / sort-up-caption / regular" clip-path="url(#clip0_1731_1101)">
<path id="icon" d="M3.85938 5.04688L1.04688 7.71875C1.01562 7.75 1 7.78906 1 7.83594C1.01562 7.92969 1.07031 7.98438 1.16406 8H6.83594C6.92969 7.98438 6.98438 7.92969 7 7.83594C7 7.78906 6.98438 7.75 6.95312 7.71875L4.14062 5.04688C4.09375 5.01562 4.04688 5 4 5C3.95312 5 3.90625 5.01562 3.85938 5.04688ZM3.34375 4.50781C3.53125 4.33594 3.75 4.25 4 4.25C4.25 4.25 4.46875 4.33594 4.65625 4.50781L7.46875 7.15625C7.65625 7.34375 7.75 7.57031 7.75 7.83594C7.75 8.10156 7.66406 8.32031 7.49219 8.49219C7.32031 8.66406 7.10156 8.75 6.83594 8.75H1.16406C0.898438 8.75 0.679688 8.66406 0.507812 8.49219C0.335938 8.32031 0.25 8.10156 0.25 7.83594C0.25 7.57031 0.34375 7.34375 0.53125 7.15625L3.34375 4.50781Z" fill="black" fill-opacity="0.72"/>
</g>
<defs>
<clipPath id="clip0_1731_1101">
<rect width="8" height="18" fill="white"/>
</clipPath>
</defs>
</svg>
