<svg width="10" height="24" viewBox="0 0 10 24" fill="none" xmlns="http://www.w3.org/2000/svg">
<g id="label-paired / md / six-md / regular" clip-path="url(#clip0_1731_3536)">
<path id="icon" d="M9 14C8.97917 12.875 8.59375 11.9271 7.84375 11.1562C7.07292 10.4062 6.125 10.0208 5 10C3.875 10.0208 2.94792 10.4062 2.21875 11.1562C1.46875 11.8854 1.0625 12.8021 1 13.9062C1 13.9271 1 13.9375 1 13.9375C1 13.9583 1 13.9792 1 14C1.02083 15.125 1.40625 16.0729 2.15625 16.8438C2.92708 17.5938 3.875 17.9792 5 18C6.125 17.9792 7.07292 17.5938 7.84375 16.8438C8.59375 16.0729 8.97917 15.125 9 14ZM3.96875 9.125C4.30208 9.04167 4.64583 9 5 9C6.41667 9.04167 7.59375 9.53125 8.53125 10.4688C9.46875 11.4062 9.95833 12.5833 10 14C9.95833 15.4167 9.46875 16.5938 8.53125 17.5312C7.59375 18.4688 6.41667 18.9583 5 19C3.58333 18.9583 2.40625 18.4688 1.46875 17.5312C0.53125 16.5938 0.0416667 15.4167 0 14C0 13.9375 0 13.875 0 13.8125C0.0625 12.6042 0.489583 11.5417 1.28125 10.625L6.125 5.15625C6.35417 4.94792 6.59375 4.9375 6.84375 5.125C7.05208 5.35417 7.0625 5.59375 6.875 5.84375L3.96875 9.125Z" fill="black" fill-opacity="0.72"/>
</g>
<defs>
<clipPath id="clip0_1731_3536">
<rect width="10" height="24" fill="white"/>
</clipPath>
</defs>
</svg>
