<svg width="18" height="22" viewBox="0 0 18 22" fill="none" xmlns="http://www.w3.org/2000/svg">
<g id="label-paired / sm / wifi-sm / regular" clip-path="url(#clip0_1731_2606)">
<path id="icon" d="M0.988281 8.78125C0.78776 8.96354 0.58724 8.96354 0.386719 8.78125C0.204427 8.58073 0.204427 8.38021 0.386719 8.17969C1.4987 7.06771 2.79297 6.20182 4.26953 5.58203C5.72786 4.96224 7.30469 4.64323 9 4.625C10.6953 4.64323 12.2721 4.96224 13.7305 5.58203C15.207 6.20182 16.5013 7.06771 17.6133 8.17969C17.7956 8.38021 17.7956 8.58073 17.6133 8.78125C17.4128 8.96354 17.2122 8.96354 17.0117 8.78125C15.9727 7.76042 14.7695 6.95833 13.4023 6.375C12.0352 5.8099 10.5677 5.51823 9 5.5C7.43229 5.51823 5.96484 5.8099 4.59766 6.375C3.23047 6.95833 2.02734 7.76042 0.988281 8.78125ZM9 9.875C8.03385 9.875 7.13151 10.0573 6.29297 10.4219C5.4362 10.7865 4.6888 11.2878 4.05078 11.9258C3.85026 12.0898 3.64974 12.0898 3.44922 11.9258C3.26693 11.707 3.26693 11.4974 3.44922 11.2969C4.16016 10.5859 4.98958 10.0299 5.9375 9.62891C6.88542 9.20964 7.90625 9 9 9C10.0938 9 11.1146 9.20964 12.0625 9.62891C13.0104 10.0299 13.8398 10.5859 14.5508 11.2969C14.7331 11.4974 14.7331 11.707 14.5508 11.9258C14.3503 12.0898 14.1497 12.0898 13.9492 11.9258C13.3112 11.2878 12.5638 10.7865 11.707 10.4219C10.8685 10.0573 9.96615 9.875 9 9.875ZM9 14.25C8.74479 14.25 8.53516 14.332 8.37109 14.4961C8.20703 14.6602 8.125 14.8698 8.125 15.125C8.125 15.3802 8.20703 15.5898 8.37109 15.7539C8.53516 15.918 8.74479 16 9 16C9.25521 16 9.46484 15.918 9.62891 15.7539C9.79297 15.5898 9.875 15.3802 9.875 15.125C9.875 14.8698 9.79297 14.6602 9.62891 14.4961C9.46484 14.332 9.25521 14.25 9 14.25ZM9 16.875C8.34375 16.8568 7.84245 16.5651 7.49609 16C7.16797 15.4167 7.16797 14.8333 7.49609 14.25C7.84245 13.6849 8.34375 13.3932 9 13.375C9.65625 13.3932 10.1576 13.6849 10.5039 14.25C10.832 14.8333 10.832 15.4167 10.5039 16C10.1576 16.5651 9.65625 16.8568 9 16.875Z" fill="black" fill-opacity="0.72"/>
</g>
<defs>
<clipPath id="clip0_1731_2606">
<rect width="18" height="22" fill="white"/>
</clipPath>
</defs>
</svg>
