<svg width="20" height="30" viewBox="0 0 20 30" fill="none" xmlns="http://www.w3.org/2000/svg">
<g id="label-paired / lg / grid-2-lg / regular" clip-path="url(#clip0_1923_540)">
<path id="icon" d="M3.125 8C2.73438 8.02604 2.52604 8.23438 2.5 8.625V12.375C2.52604 12.7656 2.73438 12.974 3.125 13H6.875C7.26562 12.974 7.47396 12.7656 7.5 12.375V8.625C7.47396 8.23438 7.26562 8.02604 6.875 8H3.125ZM1.25 8.625C1.27604 8.10417 1.45833 7.66146 1.79688 7.29688C2.16146 6.95833 2.60417 6.77604 3.125 6.75H6.875C7.39583 6.77604 7.83854 6.95833 8.20312 7.29688C8.54167 7.66146 8.72396 8.10417 8.75 8.625V12.375C8.72396 12.8958 8.54167 13.3385 8.20312 13.7031C7.83854 14.0417 7.39583 14.224 6.875 14.25H3.125C2.60417 14.224 2.16146 14.0417 1.79688 13.7031C1.45833 13.3385 1.27604 12.8958 1.25 12.375V8.625ZM3.125 18C2.73438 18.026 2.52604 18.2344 2.5 18.625V22.375C2.52604 22.7656 2.73438 22.974 3.125 23H6.875C7.26562 22.974 7.47396 22.7656 7.5 22.375V18.625C7.47396 18.2344 7.26562 18.026 6.875 18H3.125ZM1.25 18.625C1.27604 18.1042 1.45833 17.6615 1.79688 17.2969C2.16146 16.9583 2.60417 16.776 3.125 16.75H6.875C7.39583 16.776 7.83854 16.9583 8.20312 17.2969C8.54167 17.6615 8.72396 18.1042 8.75 18.625V22.375C8.72396 22.8958 8.54167 23.3385 8.20312 23.7031C7.83854 24.0417 7.39583 24.224 6.875 24.25H3.125C2.60417 24.224 2.16146 24.0417 1.79688 23.7031C1.45833 23.3385 1.27604 22.8958 1.25 22.375V18.625ZM16.875 8H13.125C12.7344 8.02604 12.526 8.23438 12.5 8.625V12.375C12.526 12.7656 12.7344 12.974 13.125 13H16.875C17.2656 12.974 17.474 12.7656 17.5 12.375V8.625C17.474 8.23438 17.2656 8.02604 16.875 8ZM13.125 6.75H16.875C17.3958 6.77604 17.8385 6.95833 18.2031 7.29688C18.5417 7.66146 18.724 8.10417 18.75 8.625V12.375C18.724 12.8958 18.5417 13.3385 18.2031 13.7031C17.8385 14.0417 17.3958 14.224 16.875 14.25H13.125C12.6042 14.224 12.1615 14.0417 11.7969 13.7031C11.4583 13.3385 11.276 12.8958 11.25 12.375V8.625C11.276 8.10417 11.4583 7.66146 11.7969 7.29688C12.1615 6.95833 12.6042 6.77604 13.125 6.75ZM13.125 18C12.7344 18.026 12.526 18.2344 12.5 18.625V22.375C12.526 22.7656 12.7344 22.974 13.125 23H16.875C17.2656 22.974 17.474 22.7656 17.5 22.375V18.625C17.474 18.2344 17.2656 18.026 16.875 18H13.125ZM11.25 18.625C11.276 18.1042 11.4583 17.6615 11.7969 17.2969C12.1615 16.9583 12.6042 16.776 13.125 16.75H16.875C17.3958 16.776 17.8385 16.9583 18.2031 17.2969C18.5417 17.6615 18.724 18.1042 18.75 18.625V22.375C18.724 22.8958 18.5417 23.3385 18.2031 23.7031C17.8385 24.0417 17.3958 24.224 16.875 24.25H13.125C12.6042 24.224 12.1615 24.0417 11.7969 23.7031C11.4583 23.3385 11.276 22.8958 11.25 22.375V18.625Z" fill="black" fill-opacity="0.72"/>
</g>
<defs>
<clipPath id="clip0_1923_540">
<rect width="20" height="30" fill="white"/>
</clipPath>
</defs>
</svg>
