<svg width="12" height="18" viewBox="0 0 12 18" fill="none" xmlns="http://www.w3.org/2000/svg">
<g id="label-paired / caption / scissors-caption / regular" clip-path="url(#clip0_1731_1451)">
<path id="icon" d="M11.9062 13.8594C11.75 14.0312 11.5781 14.0469 11.3906 13.9062L7.82812 10.8828C7.65625 10.7109 7.64062 10.5312 7.78125 10.3438C7.9375 10.1875 8.10938 10.1797 8.29688 10.3203L11.8594 13.3438C12.0312 13.5 12.0469 13.6719 11.9062 13.8594ZM6.72656 9.00781L11.3906 5.09375C11.5781 4.95312 11.75 4.96875 11.9062 5.14062C12.0469 5.32812 12.0312 5.5 11.8594 5.65625L4.89844 11.5391C5.13281 11.9297 5.25 12.375 5.25 12.875C5.23438 13.625 4.97656 14.2422 4.47656 14.7266C3.99219 15.2266 3.375 15.4844 2.625 15.5C1.875 15.4844 1.25781 15.2266 0.773438 14.7266C0.273438 14.2422 0.015625 13.625 0 12.875C0.015625 12.125 0.273438 11.5078 0.773438 11.0234C1.25781 10.5234 1.875 10.2656 2.625 10.25C3.32812 10.2656 3.92188 10.5 4.40625 10.9531L6.14062 9.5L4.40625 8.04688C3.92188 8.5 3.32812 8.73438 2.625 8.75C1.875 8.73438 1.25781 8.47656 0.773438 7.97656C0.273438 7.49219 0.015625 6.875 0 6.125C0.015625 5.375 0.273438 4.75781 0.773438 4.27344C1.25781 3.77344 1.875 3.51563 2.625 3.5C3.375 3.51563 3.99219 3.77344 4.47656 4.27344C4.97656 4.75781 5.23438 5.375 5.25 6.125C5.25 6.625 5.13281 7.07031 4.89844 7.46094L6.72656 9.00781ZM2.625 8C3.32812 7.98438 3.86719 7.67188 4.24219 7.0625C4.58594 6.4375 4.58594 5.8125 4.24219 5.1875C3.86719 4.57812 3.32812 4.26562 2.625 4.25C1.92188 4.26562 1.38281 4.57812 1.00781 5.1875C0.664062 5.8125 0.664062 6.4375 1.00781 7.0625C1.38281 7.67188 1.92188 7.98438 2.625 8ZM2.625 11C1.92188 11.0156 1.38281 11.3281 1.00781 11.9375C0.664062 12.5625 0.664062 13.1875 1.00781 13.8125C1.38281 14.4219 1.92188 14.7344 2.625 14.75C3.32812 14.7344 3.86719 14.4219 4.24219 13.8125C4.58594 13.1875 4.58594 12.5625 4.24219 11.9375C3.86719 11.3281 3.32812 11.0156 2.625 11Z" fill="black" fill-opacity="0.72"/>
</g>
<defs>
<clipPath id="clip0_1731_1451">
<rect width="12" height="18" fill="white"/>
</clipPath>
</defs>
</svg>
