<svg width="11" height="22" viewBox="0 0 11 22" fill="none" xmlns="http://www.w3.org/2000/svg">
<g id="label-paired / sm / play-sm / regular" clip-path="url(#clip0_1731_2780)">
<path id="icon" d="M1.78125 5.55469C1.63542 5.48177 1.48958 5.48177 1.34375 5.55469C1.19792 5.64583 1.125 5.77344 1.125 5.9375V15.5625C1.125 15.7266 1.19792 15.8542 1.34375 15.9453C1.48958 16.0182 1.63542 16.0182 1.78125 15.9453L9.65625 11.1328C9.80208 11.0417 9.875 10.9141 9.875 10.75C9.875 10.5859 9.80208 10.4583 9.65625 10.3672L1.78125 5.55469ZM0.933594 4.78906C1.37109 4.55208 1.80859 4.5612 2.24609 4.81641L10.1211 9.62891C10.5221 9.88411 10.7318 10.2578 10.75 10.75C10.7318 11.2422 10.5221 11.6159 10.1211 11.8711L2.24609 16.6836C1.80859 16.9388 1.37109 16.9479 0.933594 16.7109C0.496094 16.4557 0.268229 16.0729 0.25 15.5625V5.9375C0.268229 5.42708 0.496094 5.04427 0.933594 4.78906Z" fill="black" fill-opacity="0.72"/>
</g>
<defs>
<clipPath id="clip0_1731_2780">
<rect width="11" height="22" fill="white"/>
</clipPath>
</defs>
</svg>
