<svg width="7" height="22" viewBox="0 0 7 22" fill="none" xmlns="http://www.w3.org/2000/svg">
<g id="label-paired / sm / grip-dots-vertical-sm / regular" clip-path="url(#clip0_1731_1792)">
<path id="icon" d="M1.75 6.375C1.73177 6.10156 1.58594 5.95573 1.3125 5.9375C1.03906 5.95573 0.893229 6.10156 0.875 6.375C0.893229 6.64844 1.03906 6.79427 1.3125 6.8125C1.58594 6.79427 1.73177 6.64844 1.75 6.375ZM0 6.375C0.0182292 5.88281 0.236979 5.5 0.65625 5.22656C1.09375 5.00781 1.53125 5.00781 1.96875 5.22656C2.38802 5.5 2.60677 5.88281 2.625 6.375C2.60677 6.86719 2.38802 7.25 1.96875 7.52344C1.53125 7.74219 1.09375 7.74219 0.65625 7.52344C0.236979 7.25 0.0182292 6.86719 0 6.375ZM1.75 10.75C1.73177 10.4766 1.58594 10.3307 1.3125 10.3125C1.03906 10.3307 0.893229 10.4766 0.875 10.75C0.893229 11.0234 1.03906 11.1693 1.3125 11.1875C1.58594 11.1693 1.73177 11.0234 1.75 10.75ZM0 10.75C0.0182292 10.2578 0.236979 9.875 0.65625 9.60156C1.09375 9.38281 1.53125 9.38281 1.96875 9.60156C2.38802 9.875 2.60677 10.2578 2.625 10.75C2.60677 11.2422 2.38802 11.625 1.96875 11.8984C1.53125 12.1172 1.09375 12.1172 0.65625 11.8984C0.236979 11.625 0.0182292 11.2422 0 10.75ZM1.3125 15.5625C1.58594 15.5443 1.73177 15.3984 1.75 15.125C1.73177 14.8516 1.58594 14.7057 1.3125 14.6875C1.03906 14.7057 0.893229 14.8516 0.875 15.125C0.893229 15.3984 1.03906 15.5443 1.3125 15.5625ZM1.3125 13.8125C1.80469 13.8307 2.1875 14.0495 2.46094 14.4688C2.67969 14.9062 2.67969 15.3438 2.46094 15.7812C2.1875 16.2005 1.80469 16.4193 1.3125 16.4375C0.820312 16.4193 0.4375 16.2005 0.164062 15.7812C-0.0546875 15.3438 -0.0546875 14.9062 0.164062 14.4688C0.4375 14.0495 0.820312 13.8307 1.3125 13.8125ZM6.125 6.375C6.10677 6.10156 5.96094 5.95573 5.6875 5.9375C5.41406 5.95573 5.26823 6.10156 5.25 6.375C5.26823 6.64844 5.41406 6.79427 5.6875 6.8125C5.96094 6.79427 6.10677 6.64844 6.125 6.375ZM4.375 6.375C4.39323 5.88281 4.61198 5.5 5.03125 5.22656C5.46875 5.00781 5.90625 5.00781 6.34375 5.22656C6.76302 5.5 6.98177 5.88281 7 6.375C6.98177 6.86719 6.76302 7.25 6.34375 7.52344C5.90625 7.74219 5.46875 7.74219 5.03125 7.52344C4.61198 7.25 4.39323 6.86719 4.375 6.375ZM5.6875 11.1875C5.96094 11.1693 6.10677 11.0234 6.125 10.75C6.10677 10.4766 5.96094 10.3307 5.6875 10.3125C5.41406 10.3307 5.26823 10.4766 5.25 10.75C5.26823 11.0234 5.41406 11.1693 5.6875 11.1875ZM5.6875 9.4375C6.17969 9.45573 6.5625 9.67448 6.83594 10.0938C7.05469 10.5312 7.05469 10.9688 6.83594 11.4062C6.5625 11.8255 6.17969 12.0443 5.6875 12.0625C5.19531 12.0443 4.8125 11.8255 4.53906 11.4062C4.32031 10.9688 4.32031 10.5312 4.53906 10.0938C4.8125 9.67448 5.19531 9.45573 5.6875 9.4375ZM6.125 15.125C6.10677 14.8516 5.96094 14.7057 5.6875 14.6875C5.41406 14.7057 5.26823 14.8516 5.25 15.125C5.26823 15.3984 5.41406 15.5443 5.6875 15.5625C5.96094 15.5443 6.10677 15.3984 6.125 15.125ZM4.375 15.125C4.39323 14.6328 4.61198 14.25 5.03125 13.9766C5.46875 13.7578 5.90625 13.7578 6.34375 13.9766C6.76302 14.25 6.98177 14.6328 7 15.125C6.98177 15.6172 6.76302 16 6.34375 16.2734C5.90625 16.4922 5.46875 16.4922 5.03125 16.2734C4.61198 16 4.39323 15.6172 4.375 15.125Z" fill="black" fill-opacity="0.72"/>
</g>
<defs>
<clipPath id="clip0_1731_1792">
<rect width="7" height="22" fill="white"/>
</clipPath>
</defs>
</svg>
