<svg width="14" height="18" viewBox="0 0 14 18" fill="none" xmlns="http://www.w3.org/2000/svg">
<g id="label-paired / caption / arrow-down-a-z-caption / bold" clip-path="url(#clip0_1731_1133)">
<path id="icon" d="M1.35156 12.3359C1.13281 12.0703 1.13281 11.8047 1.35156 11.5391C1.61719 11.3203 1.88281 11.3203 2.14844 11.5391L3.4375 12.8281V4.8125C3.46875 4.46875 3.65625 4.28125 4 4.25C4.34375 4.28125 4.53125 4.46875 4.5625 4.8125V12.8281L5.85156 11.5391C6.11719 11.3203 6.38281 11.3203 6.64844 11.5391C6.86719 11.8047 6.86719 12.0703 6.64844 12.3359L4.39844 14.5859C4.13281 14.8047 3.86719 14.8047 3.60156 14.5859L1.35156 12.3359ZM8.5 10.25H11.5C11.7344 10.2656 11.9062 10.375 12.0156 10.5781C12.0938 10.7969 12.0625 11 11.9219 11.1875L9.74219 13.625H11.5C11.8438 13.6562 12.0312 13.8438 12.0625 14.1875C12.0312 14.5312 11.8438 14.7188 11.5 14.75H8.5C8.26562 14.7344 8.09375 14.625 7.98438 14.4219C7.90625 14.2031 7.9375 14 8.07812 13.8125L10.2578 11.375H8.5C8.15625 11.3438 7.96875 11.1562 7.9375 10.8125C7.96875 10.4688 8.15625 10.2812 8.5 10.25ZM10 4.25C10.2344 4.26562 10.3984 4.36719 10.4922 4.55469L12.3672 8.30469C12.4922 8.63281 12.4141 8.88281 12.1328 9.05469C11.8047 9.17969 11.5547 9.10156 11.3828 8.82031L11.0547 8.1875C11.0234 8.1875 10.9844 8.1875 10.9375 8.1875H8.94531L8.61719 8.82031C8.44531 9.10156 8.19531 9.1875 7.86719 9.07812C7.58594 8.89062 7.50781 8.63281 7.63281 8.30469L9.50781 4.55469C9.61719 4.35156 9.78125 4.25 10 4.25ZM9.50781 7.0625H10.4922L10 6.07812L9.50781 7.0625Z" fill="black" fill-opacity="0.72"/>
</g>
<defs>
<clipPath id="clip0_1731_1133">
<rect width="14" height="18" fill="white"/>
</clipPath>
</defs>
</svg>
