<svg width="14" height="22" viewBox="0 0 14 22" fill="none" xmlns="http://www.w3.org/2000/svg">
<g id="label-paired / sm / chart-area-sm / regular" clip-path="url(#clip0_1731_2510)">
<path id="icon" d="M0.875 5.0625V14.6875C0.893229 15.0521 1.02083 15.362 1.25781 15.6172C1.51302 15.8542 1.82292 15.9818 2.1875 16H13.5625C13.8359 16.0182 13.9818 16.1641 14 16.4375C13.9818 16.7109 13.8359 16.8568 13.5625 16.875H2.1875C1.56771 16.8568 1.04818 16.6471 0.628906 16.2461C0.227865 15.8268 0.0182292 15.3073 0 14.6875V5.0625C0.0182292 4.78906 0.164062 4.64323 0.4375 4.625C0.710938 4.64323 0.856771 4.78906 0.875 5.0625ZM8.12109 9.62891L6.125 7.60547L3.63672 10.1211C3.54557 10.194 3.5 10.2943 3.5 10.4219V13.375H12.25V10.8047C12.25 10.6953 12.2135 10.5951 12.1406 10.5039L10.4453 8.53516L9.37891 9.62891C9.19661 9.79297 8.98698 9.875 8.75 9.875C8.51302 9.875 8.30339 9.79297 8.12109 9.62891ZM8.12109 8.37109L8.75 9L9.37891 8.37109L9.84375 7.90625C10.026 7.74219 10.2357 7.66016 10.4727 7.66016C10.7279 7.67839 10.9375 7.77865 11.1016 7.96094L12.7969 9.95703C13.0156 10.194 13.125 10.4766 13.125 10.8047V13.375C13.125 13.6302 13.043 13.8398 12.8789 14.0039C12.7148 14.168 12.5052 14.25 12.25 14.25H3.5C3.24479 14.25 3.03516 14.168 2.87109 14.0039C2.70703 13.8398 2.625 13.6302 2.625 13.375V10.4219C2.625 10.0573 2.7526 9.7474 3.00781 9.49219L5.49609 7.00391C5.67839 6.82161 5.88802 6.73047 6.125 6.73047C6.36198 6.73047 6.57161 6.82161 6.75391 7.00391L8.12109 8.37109Z" fill="black" fill-opacity="0.72"/>
</g>
<defs>
<clipPath id="clip0_1731_2510">
<rect width="14" height="22" fill="white"/>
</clipPath>
</defs>
</svg>
