<svg width="14" height="22" viewBox="0 0 14 22" fill="none" xmlns="http://www.w3.org/2000/svg">
<g id="label-paired / sm / chart-line-sm / bold" clip-path="url(#clip0_1731_2507)">
<path id="icon" d="M1.3125 5.28125V14.9062C1.34896 15.3073 1.56771 15.526 1.96875 15.5625H13.3438C13.7448 15.599 13.9635 15.8177 14 16.2188C13.9635 16.6198 13.7448 16.8385 13.3438 16.875H1.96875C1.40365 16.8568 0.938802 16.6654 0.574219 16.3008C0.209635 15.9362 0.0182292 15.4714 0 14.9062V5.28125C0.0364583 4.88021 0.255208 4.66146 0.65625 4.625C1.05729 4.66146 1.27604 4.88021 1.3125 5.28125ZM12.9336 8.37109L9.21484 12.0898C8.90495 12.3451 8.59505 12.3451 8.28516 12.0898L6.125 9.92969L3.96484 12.0898C3.65495 12.3451 3.34505 12.3451 3.03516 12.0898C2.77995 11.7799 2.77995 11.4701 3.03516 11.1602L5.66016 8.53516C5.78776 8.40755 5.94271 8.34375 6.125 8.34375C6.30729 8.34375 6.46224 8.40755 6.58984 8.53516L8.75 10.6953L12.0039 7.44141C12.3138 7.1862 12.6237 7.1862 12.9336 7.44141C13.1888 7.7513 13.1888 8.0612 12.9336 8.37109Z" fill="black" fill-opacity="0.72"/>
</g>
<defs>
<clipPath id="clip0_1731_2507">
<rect width="14" height="22" fill="white"/>
</clipPath>
</defs>
</svg>
