<svg width="20" height="30" viewBox="0 0 20 30" fill="none" xmlns="http://www.w3.org/2000/svg">
<g id="label-paired / lg / right-to-bracket-lg / regular" clip-path="url(#clip0_1731_5409)">
<path id="icon" d="M12.4609 15.5781C12.487 15.5521 12.5 15.526 12.5 15.5C12.5 15.474 12.487 15.4479 12.4609 15.4219L7.30469 10.5781C7.2526 10.526 7.20052 10.5 7.14844 10.5C6.99219 10.526 6.90104 10.6172 6.875 10.7734V13C6.84896 13.3906 6.64062 13.599 6.25 13.625H1.5625C1.38021 13.651 1.27604 13.7552 1.25 13.9375V17.0625C1.27604 17.2448 1.38021 17.349 1.5625 17.375H6.25C6.64062 17.401 6.84896 17.6094 6.875 18V20.2266C6.90104 20.3828 6.99219 20.474 7.14844 20.5C7.20052 20.5 7.2526 20.474 7.30469 20.4219L12.4609 15.5781ZM13.75 15.5C13.75 15.8906 13.6068 16.2161 13.3203 16.4766L8.16406 21.3594C7.8776 21.6198 7.53906 21.75 7.14844 21.75C6.70573 21.75 6.34115 21.6068 6.05469 21.3203C5.76823 21.0339 5.625 20.6693 5.625 20.2266V18.625H1.5625C1.11979 18.625 0.755208 18.4688 0.46875 18.1562C0.15625 17.8698 0 17.5052 0 17.0625V13.9375C0 13.4948 0.15625 13.1302 0.46875 12.8438C0.755208 12.5312 1.11979 12.375 1.5625 12.375H5.625V10.7734C5.625 10.3307 5.76823 9.96615 6.05469 9.67969C6.34115 9.39323 6.70573 9.25 7.14844 9.25C7.53906 9.25 7.8776 9.39323 8.16406 9.67969L13.3203 14.5234C13.6068 14.7839 13.75 15.1094 13.75 15.5ZM13.125 23H16.875C17.3958 22.974 17.8385 22.7917 18.2031 22.4531C18.5417 22.0885 18.724 21.6458 18.75 21.125V9.875C18.724 9.35417 18.5417 8.91146 18.2031 8.54688C17.8385 8.20833 17.3958 8.02604 16.875 8H13.125C12.7344 7.97396 12.526 7.76562 12.5 7.375C12.526 6.98438 12.7344 6.77604 13.125 6.75H16.875C17.7604 6.77604 18.5026 7.07552 19.1016 7.64844C19.6745 8.2474 19.974 8.98958 20 9.875V21.125C19.974 22.0104 19.6745 22.7526 19.1016 23.3516C18.5026 23.9245 17.7604 24.224 16.875 24.25H13.125C12.7344 24.224 12.526 24.0156 12.5 23.625C12.526 23.2344 12.7344 23.026 13.125 23Z" fill="black" fill-opacity="0.72"/>
</g>
<defs>
<clipPath id="clip0_1731_5409">
<rect width="20" height="30" fill="white"/>
</clipPath>
</defs>
</svg>
