<svg width="13" height="30" viewBox="0 0 13 30" fill="none" xmlns="http://www.w3.org/2000/svg">
<g id="label-paired / lg / two-lg / regular" clip-path="url(#clip0_1731_4473)">
<path id="icon" d="M6.03125 8C4.85938 8.02604 3.85677 8.44271 3.02344 9.25L1.92969 10.3047C1.64323 10.5651 1.35677 10.5651 1.07031 10.3047C0.809896 10.0182 0.809896 9.73177 1.07031 9.44531L2.125 8.35156C3.21875 7.3099 4.52083 6.77604 6.03125 6.75C7.56771 6.77604 8.85677 7.3099 9.89844 8.35156C10.9141 9.36719 11.4479 10.6432 11.5 12.1797C11.474 13.7422 10.901 15.0573 9.78125 16.125L2.47656 23H12.125C12.5156 23.026 12.724 23.2344 12.75 23.625C12.724 24.0156 12.5156 24.224 12.125 24.25H0.875C0.588542 24.25 0.393229 24.1198 0.289062 23.8594C0.210938 23.599 0.263021 23.3646 0.445312 23.1562L8.92188 15.2266C9.78125 14.3932 10.224 13.3776 10.25 12.1797C10.224 11.0078 9.80729 10.0182 9 9.21094C8.21875 8.42969 7.22917 8.02604 6.03125 8Z" fill="black" fill-opacity="0.72"/>
</g>
<defs>
<clipPath id="clip0_1731_4473">
<rect width="13" height="30" fill="white"/>
</clipPath>
</defs>
</svg>
