<svg width="12" height="18" viewBox="0 0 12 18" fill="none" xmlns="http://www.w3.org/2000/svg">
<g id="label-paired / caption / arrow-up-right-from-square-caption / bold" clip-path="url(#clip0_1731_666)">
<path id="icon" d="M7.125 4.0625C7.15625 3.71875 7.34375 3.53125 7.6875 3.5H11.4375C11.7812 3.53125 11.9688 3.71875 12 4.0625V7.8125C11.9688 8.15625 11.7812 8.34375 11.4375 8.375C11.0938 8.34375 10.9062 8.15625 10.875 7.8125V5.42188L5.64844 10.6484C5.38281 10.8672 5.11719 10.8672 4.85156 10.6484C4.63281 10.3828 4.63281 10.1172 4.85156 9.85156L10.0781 4.625H7.6875C7.34375 4.59375 7.15625 4.40625 7.125 4.0625ZM1.6875 4.25H4.6875C5.03125 4.28125 5.21875 4.46875 5.25 4.8125C5.21875 5.15625 5.03125 5.34375 4.6875 5.375H1.6875C1.34375 5.40625 1.15625 5.59375 1.125 5.9375V13.8125C1.15625 14.1562 1.34375 14.3438 1.6875 14.375H9.5625C9.90625 14.3438 10.0938 14.1562 10.125 13.8125V10.8125C10.1562 10.4688 10.3438 10.2812 10.6875 10.25C11.0312 10.2812 11.2188 10.4688 11.25 10.8125V13.8125C11.2344 14.2969 11.0703 14.6953 10.7578 15.0078C10.4453 15.3203 10.0469 15.4844 9.5625 15.5H1.6875C1.20312 15.4844 0.804688 15.3203 0.492188 15.0078C0.179688 14.6953 0.015625 14.2969 0 13.8125V5.9375C0.015625 5.45312 0.179688 5.05469 0.492188 4.74219C0.804688 4.42969 1.20312 4.26562 1.6875 4.25Z" fill="black" fill-opacity="0.72"/>
</g>
<defs>
<clipPath id="clip0_1731_666">
<rect width="12" height="18" fill="white"/>
</clipPath>
</defs>
</svg>
