<svg width="14" height="22" viewBox="0 0 14 22" fill="none" xmlns="http://www.w3.org/2000/svg">
<g id="label-paired / sm / circle-sm / fill" clip-path="url(#clip0_1731_2069)">
<path id="icon" d="M7 17.75C5.72396 17.7318 4.55729 17.4219 3.5 16.8203C2.44271 16.2005 1.58594 15.3438 0.929688 14.25C0.309896 13.138 0 11.9714 0 10.75C0 9.52865 0.309896 8.36198 0.929688 7.25C1.58594 6.15625 2.44271 5.29948 3.5 4.67969C4.55729 4.07812 5.72396 3.76823 7 3.75C8.27604 3.76823 9.44271 4.07812 10.5 4.67969C11.5573 5.29948 12.4141 6.15625 13.0703 7.25C13.6901 8.36198 14 9.52865 14 10.75C14 11.9714 13.6901 13.138 13.0703 14.25C12.4141 15.3438 11.5573 16.2005 10.5 16.8203C9.44271 17.4219 8.27604 17.7318 7 17.75Z" fill="black" fill-opacity="0.72"/>
</g>
<defs>
<clipPath id="clip0_1731_2069">
<rect width="14" height="22" fill="white"/>
</clipPath>
</defs>
</svg>
