<svg width="12" height="18" viewBox="0 0 12 18" fill="none" xmlns="http://www.w3.org/2000/svg">
<g id="label-paired / caption / bullhorn-caption / regular" clip-path="url(#clip0_1731_1611)">
<path id="icon" d="M9.75 4.53125C9.75 4.45312 9.71094 4.39844 9.63281 4.36719C9.55469 4.33594 9.48438 4.35156 9.42188 4.41406L8.85938 5C7.85938 6.04688 6.65625 6.73438 5.25 7.0625V11.2109C6.65625 11.5234 7.85938 12.2031 8.85938 13.25L9.42188 13.8359C9.48438 13.8984 9.55469 13.9141 9.63281 13.8828C9.71094 13.8516 9.75 13.7969 9.75 13.7188V4.53125ZM4.5 11.0703V7.17969C4.35938 7.19531 4.22656 7.20312 4.10156 7.20312L3.39844 7.25H3.375H1.5C1.28125 7.25 1.10156 7.32031 0.960938 7.46094C0.820312 7.60156 0.75 7.78125 0.75 8V10.25C0.75 10.4688 0.820312 10.6484 0.960938 10.7891C1.10156 10.9297 1.28125 11 1.5 11H3.375H3.39844L4.07812 11.0469C4.21875 11.0469 4.35938 11.0547 4.5 11.0703ZM8.88281 3.89844C9.21094 3.60156 9.55469 3.52344 9.91406 3.66406C10.2734 3.80469 10.4688 4.09375 10.5 4.53125V13.7188C10.4688 14.1562 10.2734 14.4453 9.91406 14.5859C9.55469 14.7266 9.21094 14.6484 8.88281 14.3516L8.32031 13.7656C7.27344 12.6719 6 12.0234 4.5 11.8203V14.1875C4.48438 14.5625 4.35938 14.875 4.125 15.125C3.875 15.3594 3.5625 15.4844 3.1875 15.5H2.8125C2.4375 15.4844 2.125 15.3594 1.875 15.125C1.64062 14.875 1.51562 14.5625 1.5 14.1875V11.75C1.07812 11.7344 0.726562 11.5859 0.445312 11.3047C0.164062 11.0234 0.015625 10.6719 0 10.25V8C0.015625 7.57812 0.164062 7.22656 0.445312 6.94531C0.726562 6.66406 1.07812 6.51562 1.5 6.5H3.375L4.05469 6.45312C4.86719 6.40625 5.64062 6.21875 6.375 5.89062C7.10938 5.54688 7.75781 5.07812 8.32031 4.48438L8.88281 3.89844ZM2.25 11.75V14.1875C2.28125 14.5312 2.46875 14.7188 2.8125 14.75H3.1875C3.53125 14.7188 3.71875 14.5312 3.75 14.1875V11.7734L3.375 11.75H2.25ZM11.625 8C11.8594 8.01562 11.9844 8.14062 12 8.375V9.875C11.9844 10.1094 11.8594 10.2344 11.625 10.25C11.3906 10.2344 11.2656 10.1094 11.25 9.875V8.375C11.2656 8.14062 11.3906 8.01562 11.625 8Z" fill="black" fill-opacity="0.72"/>
</g>
<defs>
<clipPath id="clip0_1731_1611">
<rect width="12" height="18" fill="white"/>
</clipPath>
</defs>
</svg>
