<svg width="12" height="18" viewBox="0 0 12 18" fill="none" xmlns="http://www.w3.org/2000/svg">
<g id="label-paired / caption / circle-one-caption / regular" clip-path="url(#clip0_1731_1045)">
<path id="icon" d="M11.25 9.5C11.2344 8.54688 11 7.67188 10.5469 6.875C10.0781 6.07812 9.4375 5.4375 8.625 4.95312C7.79688 4.48438 6.92188 4.25 6 4.25C5.07812 4.25 4.20312 4.48438 3.375 4.95312C2.5625 5.4375 1.92188 6.07812 1.45312 6.875C1 7.67188 0.765625 8.54688 0.75 9.5C0.765625 10.4531 1 11.3281 1.45312 12.125C1.92188 12.9219 2.5625 13.5625 3.375 14.0469C4.20312 14.5156 5.07812 14.75 6 14.75C6.92188 14.75 7.79688 14.5156 8.625 14.0469C9.4375 13.5625 10.0781 12.9219 10.5469 12.125C11 11.3281 11.2344 10.4531 11.25 9.5ZM0 9.5C0.015625 8.40625 0.28125 7.40625 0.796875 6.5C1.32812 5.59375 2.0625 4.85938 3 4.29688C3.95312 3.76562 4.95312 3.5 6 3.5C7.04688 3.5 8.04688 3.76562 9 4.29688C9.9375 4.85938 10.6719 5.59375 11.2031 6.5C11.7188 7.40625 11.9844 8.40625 12 9.5C11.9844 10.5938 11.7188 11.5938 11.2031 12.5C10.6719 13.4062 9.9375 14.1406 9 14.7031C8.04688 15.2344 7.04688 15.5 6 15.5C4.95312 15.5 3.95312 15.2344 3 14.7031C2.0625 14.1406 1.32812 13.4062 0.796875 12.5C0.28125 11.5938 0.015625 10.5938 0 9.5ZM6.1875 6.54688C6.3125 6.625 6.375 6.73438 6.375 6.875V11.75H7.5C7.73438 11.7656 7.85938 11.8906 7.875 12.125C7.85938 12.3594 7.73438 12.4844 7.5 12.5H6H4.5C4.26562 12.4844 4.14062 12.3594 4.125 12.125C4.14062 11.8906 4.26562 11.7656 4.5 11.75H5.625V7.53125L4.875 7.95312C4.67188 8.04688 4.5 8 4.35938 7.8125C4.26562 7.60938 4.3125 7.4375 4.5 7.29688L5.8125 6.54688C5.9375 6.48438 6.0625 6.48438 6.1875 6.54688Z" fill="black" fill-opacity="0.72"/>
</g>
<defs>
<clipPath id="clip0_1731_1045">
<rect width="12" height="18" fill="white"/>
</clipPath>
</defs>
</svg>
