<svg width="10" height="24" viewBox="0 0 10 24" fill="none" xmlns="http://www.w3.org/2000/svg">
<g id="label-paired / md / dollar-sign-md / regular" clip-path="url(#clip0_1731_4208)">
<path id="icon" d="M5.5 4.5V6.03125C6.52083 6.13542 7.39583 6.28125 8.125 6.46875C8.41667 6.57292 8.54167 6.78125 8.5 7.09375C8.39583 7.38542 8.1875 7.5 7.875 7.4375C7.35417 7.3125 6.75 7.19792 6.0625 7.09375C5.375 6.98958 4.6875 6.95833 4 7C3.33333 7.0625 2.78125 7.22917 2.34375 7.5C1.94792 7.75 1.67708 8.16667 1.53125 8.75C1.46875 9.20833 1.5 9.5625 1.625 9.8125C1.77083 10.0625 2 10.3021 2.3125 10.5312C3.04167 10.9271 3.97917 11.25 5.125 11.5L5.1875 11.5312C5.72917 11.6562 6.26042 11.8021 6.78125 11.9688C7.32292 12.1562 7.80208 12.375 8.21875 12.625C8.67708 12.8958 9.03125 13.2708 9.28125 13.75C9.51042 14.2292 9.5625 14.7917 9.4375 15.4375C9.1875 16.5 8.54167 17.2292 7.5 17.625C6.89583 17.8333 6.22917 17.9479 5.5 17.9688V19.5C5.47917 19.8125 5.3125 19.9792 5 20C4.70833 19.9792 4.54167 19.8125 4.5 19.5V17.9375C4.3125 17.9375 4.11458 17.9167 3.90625 17.875C3.48958 17.8125 3 17.7083 2.4375 17.5625C1.89583 17.4375 1.35417 17.2604 0.8125 17.0312C0.541667 16.8854 0.447917 16.6667 0.53125 16.375C0.697917 16.1042 0.916667 16.0104 1.1875 16.0938C1.6875 16.3021 2.1875 16.4792 2.6875 16.625C3.20833 16.75 3.66667 16.8438 4.0625 16.9062C5.29167 17.0729 6.3125 17 7.125 16.6875C7.89583 16.375 8.34375 15.8958 8.46875 15.25C8.53125 14.7917 8.5 14.4375 8.375 14.1875C8.25 13.9167 8.02083 13.6771 7.6875 13.4688C6.95833 13.0729 6.02083 12.7396 4.875 12.4688H4.8125C4.29167 12.3438 3.76042 12.1875 3.21875 12C2.69792 11.8333 2.21875 11.6146 1.78125 11.3438C1.32292 11.0729 0.979167 10.7083 0.75 10.25C0.5 9.75 0.4375 9.1875 0.5625 8.5625C0.75 7.6875 1.16667 7.05208 1.8125 6.65625C2.4375 6.28125 3.13542 6.0625 3.90625 6C4.11458 6 4.3125 6 4.5 6V4.5C4.52083 4.1875 4.6875 4.02083 5 4C5.3125 4.02083 5.47917 4.1875 5.5 4.5Z" fill="black" fill-opacity="0.72"/>
</g>
<defs>
<clipPath id="clip0_1731_4208">
<rect width="10" height="24" fill="white"/>
</clipPath>
</defs>
</svg>
