<svg width="9" height="22" viewBox="0 0 9 22" fill="none" xmlns="http://www.w3.org/2000/svg">
<g id="label-paired / sm / pause-sm / fill" clip-path="url(#clip0_1731_2791)">
<path id="icon" d="M1.4375 5.5H2.3125C2.67708 5.51823 2.98698 5.64583 3.24219 5.88281C3.47917 6.13802 3.60677 6.44792 3.625 6.8125V14.6875C3.60677 15.0521 3.47917 15.362 3.24219 15.6172C2.98698 15.8542 2.67708 15.9818 2.3125 16H1.4375C1.07292 15.9818 0.763021 15.8542 0.507812 15.6172C0.270833 15.362 0.143229 15.0521 0.125 14.6875V6.8125C0.143229 6.44792 0.270833 6.13802 0.507812 5.88281C0.763021 5.64583 1.07292 5.51823 1.4375 5.5ZM6.6875 5.5H7.5625C7.92708 5.51823 8.23698 5.64583 8.49219 5.88281C8.72917 6.13802 8.85677 6.44792 8.875 6.8125V14.6875C8.85677 15.0521 8.72917 15.362 8.49219 15.6172C8.23698 15.8542 7.92708 15.9818 7.5625 16H6.6875C6.32292 15.9818 6.01302 15.8542 5.75781 15.6172C5.52083 15.362 5.39323 15.0521 5.375 14.6875V6.8125C5.39323 6.44792 5.52083 6.13802 5.75781 5.88281C6.01302 5.64583 6.32292 5.51823 6.6875 5.5Z" fill="black" fill-opacity="0.72"/>
</g>
<defs>
<clipPath id="clip0_1731_2791">
<rect width="9" height="22" fill="white"/>
</clipPath>
</defs>
</svg>
