<svg width="12" height="18" viewBox="0 0 12 18" fill="none" xmlns="http://www.w3.org/2000/svg">
<g id="label-paired / caption / chart-candlestick-caption / bold" clip-path="url(#clip0_1731_1259)">
<path id="icon" d="M1.125 4.8125V13.0625C1.15625 13.4062 1.34375 13.5938 1.6875 13.625H11.4375C11.7812 13.6562 11.9688 13.8438 12 14.1875C11.9688 14.5312 11.7812 14.7188 11.4375 14.75H1.6875C1.20312 14.7344 0.804688 14.5703 0.492188 14.2578C0.179688 13.9453 0.015625 13.5469 0 13.0625V4.8125C0.03125 4.46875 0.21875 4.28125 0.5625 4.25C0.90625 4.28125 1.09375 4.46875 1.125 4.8125ZM7.5 4.625V5.75C7.71875 5.75 7.89844 5.82031 8.03906 5.96094C8.17969 6.10156 8.25 6.28125 8.25 6.5V8.75C8.25 8.96875 8.17969 9.14844 8.03906 9.28906C7.89844 9.42969 7.71875 9.5 7.5 9.5V10.625C7.48438 10.8594 7.35938 10.9844 7.125 11C6.89062 10.9844 6.76562 10.8594 6.75 10.625V9.5C6.53125 9.5 6.35156 9.42969 6.21094 9.28906C6.07031 9.14844 6 8.96875 6 8.75V6.5C6 6.28125 6.07031 6.10156 6.21094 5.96094C6.35156 5.82031 6.53125 5.75 6.75 5.75V4.625C6.76562 4.39062 6.89062 4.26562 7.125 4.25C7.35938 4.26562 7.48438 4.39062 7.5 4.625ZM9 8.75C9 8.53125 9.07031 8.35156 9.21094 8.21094C9.35156 8.07031 9.53125 8 9.75 8V6.875C9.76562 6.64062 9.89062 6.51562 10.125 6.5C10.3594 6.51562 10.4844 6.64062 10.5 6.875V8C10.7188 8 10.8984 8.07031 11.0391 8.21094C11.1797 8.35156 11.25 8.53125 11.25 8.75V10.25C11.25 10.4688 11.1797 10.6484 11.0391 10.7891C10.8984 10.9297 10.7188 11 10.5 11V12.125C10.4844 12.3594 10.3594 12.4844 10.125 12.5C9.89062 12.4844 9.76562 12.3594 9.75 12.125V11C9.53125 11 9.35156 10.9297 9.21094 10.7891C9.07031 10.6484 9 10.4688 9 10.25V8.75ZM3.75 6.5V5.375C3.76562 5.14062 3.89062 5.01562 4.125 5C4.35938 5.01562 4.48438 5.14062 4.5 5.375V6.5C4.71875 6.5 4.89844 6.57031 5.03906 6.71094C5.17969 6.85156 5.25 7.03125 5.25 7.25V10.25C5.25 10.4688 5.17969 10.6484 5.03906 10.7891C4.89844 10.9297 4.71875 11 4.5 11V12.125C4.48438 12.3594 4.35938 12.4844 4.125 12.5C3.89062 12.4844 3.76562 12.3594 3.75 12.125V11C3.53125 11 3.35156 10.9297 3.21094 10.7891C3.07031 10.6484 3 10.4688 3 10.25V7.25C3 7.03125 3.07031 6.85156 3.21094 6.71094C3.35156 6.57031 3.53125 6.5 3.75 6.5Z" fill="black" fill-opacity="0.72"/>
</g>
<defs>
<clipPath id="clip0_1731_1259">
<rect width="12" height="18" fill="white"/>
</clipPath>
</defs>
</svg>
