<svg width="15" height="36" viewBox="0 0 15 36" fill="none" xmlns="http://www.w3.org/2000/svg">
<g id="label-paired / xl / two-xl / bold" clip-path="url(#clip0_1731_6033)">
<path id="icon" d="M6.9375 9.75C5.625 9.78125 4.51562 10.2344 3.60938 11.1094L1.92188 12.7969C1.39062 13.2344 0.859375 13.2344 0.328125 12.7969C-0.109375 12.2656 -0.109375 11.7344 0.328125 11.2031L2.01562 9.5625C3.35938 8.21875 5 7.53125 6.9375 7.5H7.26562C9.14062 7.5625 10.7031 8.20312 11.9531 9.42188C13.1719 10.6719 13.8125 12.2344 13.875 14.1094C13.8438 16.0156 13.1406 17.625 11.7656 18.9375L3.98438 26.25H13.875C14.5625 26.3125 14.9375 26.6875 15 27.375C14.9375 28.0625 14.5625 28.4375 13.875 28.5H1.125C0.625 28.4688 0.28125 28.2344 0.09375 27.7969C-0.0625 27.3281 0.03125 26.9219 0.375 26.5781L10.2656 17.2969C11.1406 16.4219 11.5938 15.3594 11.625 14.1094C11.5938 12.8906 11.1719 11.8594 10.3594 11.0156C9.51562 10.2031 8.48438 9.78125 7.26562 9.75H6.9375Z" fill="black" fill-opacity="0.72"/>
</g>
<defs>
<clipPath id="clip0_1731_6033">
<rect width="15" height="36" fill="white"/>
</clipPath>
</defs>
</svg>
