<svg width="16" height="24" viewBox="0 0 16 24" fill="none" xmlns="http://www.w3.org/2000/svg">
<g id="label-paired / md / circle-six-md / bold" clip-path="url(#clip0_1731_3588)">
<path id="icon" d="M14.5 12C14.5 10.8125 14.2083 9.72917 13.625 8.75C13.0625 7.77083 12.2708 6.97917 11.25 6.375C10.2292 5.79167 9.14583 5.5 8 5.5C6.85417 5.5 5.77083 5.79167 4.75 6.375C3.72917 6.97917 2.9375 7.77083 2.375 8.75C1.79167 9.72917 1.5 10.8125 1.5 12C1.5 13.1875 1.79167 14.2708 2.375 15.25C2.9375 16.2292 3.72917 17.0208 4.75 17.625C5.77083 18.2083 6.85417 18.5 8 18.5C9.14583 18.5 10.2292 18.2083 11.25 17.625C12.2708 17.0208 13.0625 16.2292 13.625 15.25C14.2083 14.2708 14.5 13.1875 14.5 12ZM0 12C0.0208333 10.5417 0.375 9.20833 1.0625 8C1.77083 6.79167 2.75 5.8125 4 5.0625C5.27083 4.35417 6.60417 4 8 4C9.39583 4 10.7292 4.35417 12 5.0625C13.25 5.8125 14.2292 6.79167 14.9375 8C15.625 9.20833 15.9792 10.5417 16 12C15.9792 13.4583 15.625 14.7917 14.9375 16C14.2292 17.2083 13.25 18.1875 12 18.9375C10.7292 19.6458 9.39583 20 8 20C6.60417 20 5.27083 19.6458 4 18.9375C2.75 18.1875 1.77083 17.2083 1.0625 16C0.375 14.7917 0.0208333 13.4583 0 12ZM8 14.5C8.5625 14.4792 9 14.2292 9.3125 13.75C9.5625 13.25 9.5625 12.75 9.3125 12.25C9 11.7708 8.5625 11.5208 8 11.5C7.4375 11.5208 7 11.7708 6.6875 12.25C6.4375 12.75 6.4375 13.25 6.6875 13.75C7 14.2292 7.4375 14.4792 8 14.5ZM5 13C5.02083 11.9375 5.42708 11.0625 6.21875 10.375L8.75 8.1875C9.125 7.91667 9.47917 7.9375 9.8125 8.25C10.0833 8.625 10.0625 8.97917 9.75 9.3125L8.8125 10.125C9.45833 10.3125 9.97917 10.6667 10.375 11.1875C10.7708 11.6875 10.9792 12.2917 11 13C10.9792 13.8542 10.6875 14.5625 10.125 15.125C9.5625 15.6875 8.85417 15.9792 8 16C7.14583 15.9792 6.4375 15.6875 5.875 15.125C5.3125 14.5625 5.02083 13.8542 5 13Z" fill="black" fill-opacity="0.72"/>
</g>
<defs>
<clipPath id="clip0_1731_3588">
<rect width="16" height="24" fill="white"/>
</clipPath>
</defs>
</svg>
