<svg width="9" height="22" viewBox="0 0 9 22" fill="none" xmlns="http://www.w3.org/2000/svg">
<g id="label-paired / sm / backward-step-sm / bold" clip-path="url(#clip0_1731_2817)">
<path id="icon" d="M2.3125 6.15625V9.02734L7.15234 5.63672C7.27995 5.54557 7.4349 5.5 7.61719 5.5C7.85417 5.5 8.04557 5.58203 8.19141 5.74609C8.35547 5.89193 8.4375 6.08333 8.4375 6.32031V15.1797C8.4375 15.4167 8.35547 15.6081 8.19141 15.7539C8.04557 15.918 7.85417 16 7.61719 16C7.45312 16 7.29818 15.9544 7.15234 15.8633L2.3125 12.4727V15.3438C2.27604 15.7448 2.05729 15.9635 1.65625 16C1.25521 15.9635 1.03646 15.7448 1 15.3438V11.543V9.95703V6.15625C1.03646 5.75521 1.25521 5.53646 1.65625 5.5C2.05729 5.53646 2.27604 5.75521 2.3125 6.15625ZM2.3125 10.8594L7.125 14.25V7.27734L2.3125 10.6406V10.8594Z" fill="black" fill-opacity="0.72"/>
</g>
<defs>
<clipPath id="clip0_1731_2817">
<rect width="9" height="22" fill="white"/>
</clipPath>
</defs>
</svg>
