<svg width="14" height="24" viewBox="0 0 14 24" fill="none" xmlns="http://www.w3.org/2000/svg">
<g id="label-paired / md / compress-md / bold" clip-path="url(#clip0_1731_3102)">
<path id="icon" d="M5 5.75V9.25C4.95833 9.70833 4.70833 9.95833 4.25 10H0.75C0.291667 9.95833 0.0416667 9.70833 0 9.25C0.0416667 8.79167 0.291667 8.54167 0.75 8.5H3.5V5.75C3.54167 5.29167 3.79167 5.04167 4.25 5C4.70833 5.04167 4.95833 5.29167 5 5.75ZM0.75 14H4.25C4.70833 14.0417 4.95833 14.2917 5 14.75V18.25C4.95833 18.7083 4.70833 18.9583 4.25 19C3.79167 18.9583 3.54167 18.7083 3.5 18.25V15.5H0.75C0.291667 15.4583 0.0416667 15.2083 0 14.75C0.0416667 14.2917 0.291667 14.0417 0.75 14ZM10.5 5.75V8.5H13.25C13.7083 8.54167 13.9583 8.79167 14 9.25C13.9583 9.70833 13.7083 9.95833 13.25 10H9.75C9.29167 9.95833 9.04167 9.70833 9 9.25V5.75C9.04167 5.29167 9.29167 5.04167 9.75 5C10.2083 5.04167 10.4583 5.29167 10.5 5.75ZM9.75 14H13.25C13.7083 14.0417 13.9583 14.2917 14 14.75C13.9583 15.2083 13.7083 15.4583 13.25 15.5H10.5V18.25C10.4583 18.7083 10.2083 18.9583 9.75 19C9.29167 18.9583 9.04167 18.7083 9 18.25V14.75C9.04167 14.2917 9.29167 14.0417 9.75 14Z" fill="black" fill-opacity="0.72"/>
</g>
<defs>
<clipPath id="clip0_1731_3102">
<rect width="14" height="24" fill="white"/>
</clipPath>
</defs>
</svg>
