<svg width="15" height="18" viewBox="0 0 15 18" fill="none" xmlns="http://www.w3.org/2000/svg">
<g id="label-paired / caption / chart-ohlc-caption / regular" clip-path="url(#clip0_1731_1277)">
<path id="icon" d="M7.5 3.5C7.6875 3.5 7.875 3.6875 7.875 3.875V5H9C9.1875 5 9.375 5.1875 9.375 5.375C9.375 5.58594 9.1875 5.75 9 5.75H7.875V13.625C7.875 13.8359 7.6875 14 7.5 14C7.28906 14 7.125 13.8359 7.125 13.625V12.5H6C5.78906 12.5 5.625 12.3359 5.625 12.125C5.625 11.9375 5.78906 11.75 6 11.75H7.125V3.875C7.125 3.6875 7.28906 3.5 7.5 3.5ZM12.375 5C12.5625 5 12.75 5.1875 12.75 5.375V10.25H13.875C14.0625 10.25 14.25 10.4375 14.25 10.625C14.25 10.8359 14.0625 11 13.875 11H12.75V12.125C12.75 12.3359 12.5625 12.5 12.375 12.5C12.1641 12.5 12 12.3359 12 12.125V7.25H10.875C10.6641 7.25 10.5 7.08594 10.5 6.875C10.5 6.6875 10.6641 6.5 10.875 6.5H12V5.375C12 5.1875 12.1641 5 12.375 5ZM2.625 8C2.8125 8 3 8.1875 3 8.375V13.25H4.125C4.3125 13.25 4.5 13.4375 4.5 13.625C4.5 13.8359 4.3125 14 4.125 14H3V15.125C3 15.3359 2.8125 15.5 2.625 15.5C2.41406 15.5 2.25 15.3359 2.25 15.125V10.25H1.125C0.914062 10.25 0.75 10.0859 0.75 9.875C0.75 9.6875 0.914062 9.5 1.125 9.5H2.25V8.375C2.25 8.1875 2.41406 8 2.625 8Z" fill="black" fill-opacity="0.72"/>
</g>
<defs>
<clipPath id="clip0_1731_1277">
<rect width="15" height="18" fill="white"/>
</clipPath>
</defs>
</svg>
