<svg width="20" height="30" viewBox="0 0 20 30" fill="none" xmlns="http://www.w3.org/2000/svg">
<g id="label-paired / lg / at-lg / bold" clip-path="url(#clip0_1731_4828)">
<path id="icon" d="M10 7.375C7.70833 7.42708 5.79427 8.22135 4.25781 9.75781C2.72135 11.2943 1.92708 13.2083 1.875 15.5C1.92708 17.7917 2.72135 19.7057 4.25781 21.2422C5.79427 22.7786 7.70833 23.5729 10 23.625C10.5729 23.6771 10.8854 23.9896 10.9375 24.5625C10.8854 25.1354 10.5729 25.4479 10 25.5C8.125 25.474 6.44531 25.0182 4.96094 24.1328C3.45052 23.2474 2.2526 22.0495 1.36719 20.5391C0.481771 19.0547 0.0260417 17.375 0 15.5C0.0260417 13.625 0.481771 11.9453 1.36719 10.4609C2.2526 8.95052 3.45052 7.7526 4.96094 6.86719C6.44531 5.98177 8.125 5.52604 10 5.5C11.875 5.52604 13.5547 5.98177 15.0391 6.86719C16.5495 7.7526 17.7474 8.95052 18.6328 10.4609C19.5182 11.9453 19.974 13.625 20 15.5V16.5938C19.974 17.6094 19.6224 18.4557 18.9453 19.1328C18.2682 19.8099 17.4219 20.1615 16.4062 20.1875C15.1302 20.1354 14.1536 19.6276 13.4766 18.6641C12.5651 19.6276 11.4062 20.1354 10 20.1875C8.67188 20.1615 7.5651 19.7057 6.67969 18.8203C5.79427 17.9349 5.33854 16.8281 5.3125 15.5C5.33854 14.1719 5.79427 13.0651 6.67969 12.1797C7.5651 11.2943 8.67188 10.8385 10 10.8125C11.1458 10.8385 12.1354 11.1901 12.9688 11.8672C13.151 11.6068 13.4115 11.4635 13.75 11.4375C14.3229 11.4896 14.6354 11.8021 14.6875 12.375V15.5V16.5938C14.6875 17.0885 14.8568 17.4922 15.1953 17.8047C15.5078 18.1432 15.9115 18.3125 16.4062 18.3125C16.901 18.3125 17.3047 18.1432 17.6172 17.8047C17.9557 17.4922 18.125 17.0885 18.125 16.5938V15.5C18.0729 13.2083 17.2786 11.2943 15.7422 9.75781C14.2057 8.22135 12.2917 7.42708 10 7.375ZM12.8125 15.5C12.7865 14.4323 12.3177 13.625 11.4062 13.0781C10.4688 12.5573 9.53125 12.5573 8.59375 13.0781C7.68229 13.625 7.21354 14.4323 7.1875 15.5C7.21354 16.5677 7.68229 17.375 8.59375 17.9219C9.53125 18.4427 10.4688 18.4427 11.4062 17.9219C12.3177 17.375 12.7865 16.5677 12.8125 15.5Z" fill="black" fill-opacity="0.72"/>
</g>
<defs>
<clipPath id="clip0_1731_4828">
<rect width="20" height="30" fill="white"/>
</clipPath>
</defs>
</svg>
