<svg width="12" height="18" viewBox="0 0 12 18" fill="none" xmlns="http://www.w3.org/2000/svg">
<g id="label-paired / caption / chart-area-caption / regular" clip-path="url(#clip0_1731_1252)">
<path id="icon" d="M0.75 4.625V12.875C0.765625 13.1875 0.875 13.4531 1.07812 13.6719C1.29688 13.875 1.5625 13.9844 1.875 14H11.625C11.8594 14.0156 11.9844 14.1406 12 14.375C11.9844 14.6094 11.8594 14.7344 11.625 14.75H1.875C1.34375 14.7344 0.898438 14.5547 0.539062 14.2109C0.195312 13.8516 0.015625 13.4062 0 12.875V4.625C0.015625 4.39062 0.140625 4.26562 0.375 4.25C0.609375 4.26562 0.734375 4.39062 0.75 4.625ZM6.96094 8.53906L5.25 6.80469L3.11719 8.96094C3.03906 9.02344 3 9.10938 3 9.21875V11.75H10.5V9.54688C10.5 9.45312 10.4688 9.36719 10.4062 9.28906L8.95312 7.60156L8.03906 8.53906C7.88281 8.67969 7.70312 8.75 7.5 8.75C7.29688 8.75 7.11719 8.67969 6.96094 8.53906ZM6.96094 7.46094L7.5 8L8.03906 7.46094L8.4375 7.0625C8.59375 6.92188 8.77344 6.85156 8.97656 6.85156C9.19531 6.86719 9.375 6.95312 9.51562 7.10938L10.9688 8.82031C11.1562 9.02344 11.25 9.26562 11.25 9.54688V11.75C11.25 11.9688 11.1797 12.1484 11.0391 12.2891C10.8984 12.4297 10.7188 12.5 10.5 12.5H3C2.78125 12.5 2.60156 12.4297 2.46094 12.2891C2.32031 12.1484 2.25 11.9688 2.25 11.75V9.21875C2.25 8.90625 2.35938 8.64062 2.57812 8.42188L4.71094 6.28906C4.86719 6.13281 5.04688 6.05469 5.25 6.05469C5.45312 6.05469 5.63281 6.13281 5.78906 6.28906L6.96094 7.46094Z" fill="black" fill-opacity="0.72"/>
</g>
<defs>
<clipPath id="clip0_1731_1252">
<rect width="12" height="18" fill="white"/>
</clipPath>
</defs>
</svg>
