<svg width="12" height="18" viewBox="0 0 12 18" fill="none" xmlns="http://www.w3.org/2000/svg">
<g id="label-paired / caption / circle-euro-caption / bold" clip-path="url(#clip0_1731_1709)">
<path id="icon" d="M10.875 9.5C10.875 8.60938 10.6562 7.79688 10.2188 7.0625C9.79688 6.32812 9.20312 5.73438 8.4375 5.28125C7.67188 4.84375 6.85938 4.625 6 4.625C5.14062 4.625 4.32812 4.84375 3.5625 5.28125C2.79688 5.73438 2.20312 6.32812 1.78125 7.0625C1.34375 7.79688 1.125 8.60938 1.125 9.5C1.125 10.3906 1.34375 11.2031 1.78125 11.9375C2.20312 12.6719 2.79688 13.2656 3.5625 13.7188C4.32812 14.1562 5.14062 14.375 6 14.375C6.85938 14.375 7.67188 14.1562 8.4375 13.7188C9.20312 13.2656 9.79688 12.6719 10.2188 11.9375C10.6562 11.2031 10.875 10.3906 10.875 9.5ZM0 9.5C0.015625 8.40625 0.28125 7.40625 0.796875 6.5C1.32812 5.59375 2.0625 4.85938 3 4.29688C3.95312 3.76562 4.95312 3.5 6 3.5C7.04688 3.5 8.04688 3.76562 9 4.29688C9.9375 4.85938 10.6719 5.59375 11.2031 6.5C11.7188 7.40625 11.9844 8.40625 12 9.5C11.9844 10.5938 11.7188 11.5938 11.2031 12.5C10.6719 13.4062 9.9375 14.1406 9 14.7031C8.04688 15.2344 7.04688 15.5 6 15.5C4.95312 15.5 3.95312 15.2344 3 14.7031C2.0625 14.1406 1.32812 13.4062 0.796875 12.5C0.28125 11.5938 0.015625 10.5938 0 9.5ZM3 9.875H3.375C3.35938 9.75 3.35156 9.63281 3.35156 9.52344C3.35156 9.38281 3.35938 9.25 3.375 9.125H3C2.76562 9.10938 2.64062 8.98438 2.625 8.75C2.64062 8.51562 2.76562 8.39062 3 8.375H3.58594C3.82031 7.8125 4.17969 7.35938 4.66406 7.01562C5.16406 6.6875 5.73438 6.51562 6.375 6.5H7.33594C7.67969 6.53125 7.86719 6.71875 7.89844 7.0625C7.86719 7.40625 7.67969 7.59375 7.33594 7.625H6.375C5.73438 7.64062 5.23438 7.89062 4.875 8.375H6.75C6.98438 8.39062 7.10938 8.51562 7.125 8.75C7.10938 8.98438 6.98438 9.10938 6.75 9.125H4.52344C4.49219 9.25 4.47656 9.38281 4.47656 9.52344C4.47656 9.64844 4.49219 9.76562 4.52344 9.875H6.75C6.98438 9.89062 7.10938 10.0156 7.125 10.25C7.10938 10.4844 6.98438 10.6094 6.75 10.625H4.82812C5.20312 11.125 5.71875 11.3906 6.375 11.4219H7.33594C7.67969 11.4531 7.86719 11.6406 7.89844 11.9844C7.86719 12.3125 7.67969 12.5 7.33594 12.5469H6.375C5.71875 12.5312 5.14844 12.3516 4.66406 12.0078C4.16406 11.6484 3.79688 11.1875 3.5625 10.625H3C2.76562 10.6094 2.64062 10.4844 2.625 10.25C2.64062 10.0156 2.76562 9.89062 3 9.875Z" fill="black" fill-opacity="0.72"/>
</g>
<defs>
<clipPath id="clip0_1731_1709">
<rect width="12" height="18" fill="white"/>
</clipPath>
</defs>
</svg>
