<svg width="14" height="22" viewBox="0 0 14 22" fill="none" xmlns="http://www.w3.org/2000/svg">
<g id="label-paired / sm / chevrons-right-sm / regular" clip-path="url(#clip0_1731_2152)">
<path id="icon" d="M2.05078 16.3008C1.85026 16.4831 1.64974 16.4831 1.44922 16.3008C1.26693 16.1003 1.26693 15.8997 1.44922 15.6992L6.37109 10.75L1.44922 5.80078C1.26693 5.60026 1.26693 5.39974 1.44922 5.19922C1.64974 5.01693 1.85026 5.01693 2.05078 5.19922L7.30078 10.4492C7.48307 10.6497 7.48307 10.8503 7.30078 11.0508L2.05078 16.3008ZM7.30078 16.3008C7.10026 16.4831 6.89974 16.4831 6.69922 16.3008C6.51693 16.1003 6.51693 15.8997 6.69922 15.6992L11.6211 10.75L6.69922 5.80078C6.51693 5.60026 6.51693 5.39974 6.69922 5.19922C6.89974 5.01693 7.10026 5.01693 7.30078 5.19922L12.5508 10.4492C12.7331 10.6497 12.7331 10.8503 12.5508 11.0508L7.30078 16.3008Z" fill="black" fill-opacity="0.72"/>
</g>
<defs>
<clipPath id="clip0_1731_2152">
<rect width="14" height="22" fill="white"/>
</clipPath>
</defs>
</svg>
