<svg width="18" height="24" viewBox="0 0 18 24" fill="none" xmlns="http://www.w3.org/2000/svg">
<g id="label-paired / md / arrow-up-arrow-down-md / bold" clip-path="url(#clip0_1731_3644)">
<path id="icon" d="M16.5312 15.7812L13.5312 18.7812C13.1771 19.0729 12.8229 19.0729 12.4688 18.7812L9.46875 15.7812C9.17708 15.4271 9.17708 15.0729 9.46875 14.7188C9.82292 14.4271 10.1771 14.4271 10.5312 14.7188L12.25 16.4375V5.75C12.2917 5.29167 12.5417 5.04167 13 5C13.4583 5.04167 13.7083 5.29167 13.75 5.75V16.4375L15.4688 14.7188C15.8229 14.4271 16.1771 14.4271 16.5312 14.7188C16.8229 15.0729 16.8229 15.4271 16.5312 15.7812ZM5.53125 5.21875L8.53125 8.21875C8.82292 8.57292 8.82292 8.92708 8.53125 9.28125C8.17708 9.57292 7.82292 9.57292 7.46875 9.28125L5.75 7.5625V18.25C5.70833 18.7083 5.45833 18.9583 5 19C4.54167 18.9583 4.29167 18.7083 4.25 18.25V7.5625L2.53125 9.28125C2.17708 9.57292 1.82292 9.57292 1.46875 9.28125C1.17708 8.92708 1.17708 8.57292 1.46875 8.21875L4.46875 5.21875C4.82292 4.92708 5.17708 4.92708 5.53125 5.21875Z" fill="black" fill-opacity="0.72"/>
</g>
<defs>
<clipPath id="clip0_1731_3644">
<rect width="18" height="24" fill="white"/>
</clipPath>
</defs>
</svg>
