<svg width="18" height="30" viewBox="0 0 18 30" fill="none" xmlns="http://www.w3.org/2000/svg">
<g id="label-paired / lg / placeholder-lg / bold" clip-path="url(#clip0_1731_5260)">
<path id="icon" d="M3.6875 6.75H4.3125C4.88542 6.80208 5.19792 7.11458 5.25 7.6875C5.19792 8.26042 4.88542 8.57292 4.3125 8.625H3.6875C3.24479 8.625 2.88021 8.78125 2.59375 9.09375C2.28125 9.38021 2.125 9.74479 2.125 10.1875V10.8125C2.07292 11.3854 1.76042 11.6979 1.1875 11.75C0.614583 11.6979 0.302083 11.3854 0.25 10.8125V10.1875C0.276042 9.22396 0.614583 8.41667 1.26562 7.76562C1.91667 7.11458 2.72396 6.77604 3.6875 6.75ZM1.1875 13C1.76042 13.0521 2.07292 13.3646 2.125 13.9375V17.0625C2.07292 17.6354 1.76042 17.9479 1.1875 18C0.614583 17.9479 0.302083 17.6354 0.25 17.0625V13.9375C0.302083 13.3646 0.614583 13.0521 1.1875 13ZM16.8125 13C17.3854 13.0521 17.6979 13.3646 17.75 13.9375V17.0625C17.6979 17.6354 17.3854 17.9479 16.8125 18C16.2396 17.9479 15.9271 17.6354 15.875 17.0625V13.9375C15.9271 13.3646 16.2396 13.0521 16.8125 13ZM16.8125 11.75C16.2396 11.6979 15.9271 11.3854 15.875 10.8125V10.1875C15.875 9.74479 15.7188 9.38021 15.4062 9.09375C15.1198 8.78125 14.7552 8.625 14.3125 8.625H13.6875C13.1146 8.57292 12.8021 8.26042 12.75 7.6875C12.8021 7.11458 13.1146 6.80208 13.6875 6.75H14.3125C15.276 6.77604 16.0833 7.11458 16.7344 7.76562C17.3854 8.41667 17.724 9.22396 17.75 10.1875V10.8125C17.6979 11.3854 17.3854 11.6979 16.8125 11.75ZM17.75 20.1875V20.8125C17.724 21.776 17.3854 22.5833 16.7344 23.2344C16.0833 23.8854 15.276 24.224 14.3125 24.25H13.6875C13.1146 24.1979 12.8021 23.8854 12.75 23.3125C12.8021 22.7396 13.1146 22.4271 13.6875 22.375H14.3125C14.7552 22.375 15.1198 22.2188 15.4062 21.9062C15.7188 21.6198 15.875 21.2552 15.875 20.8125V20.1875C15.9271 19.6146 16.2396 19.3021 16.8125 19.25C17.3854 19.3021 17.6979 19.6146 17.75 20.1875ZM2.125 20.1875V20.8125C2.125 21.2552 2.28125 21.6198 2.59375 21.9062C2.88021 22.2188 3.24479 22.375 3.6875 22.375H4.3125C4.88542 22.4271 5.19792 22.7396 5.25 23.3125C5.19792 23.8854 4.88542 24.1979 4.3125 24.25H3.6875C2.72396 24.224 1.91667 23.8854 1.26562 23.2344C0.614583 22.5833 0.276042 21.776 0.25 20.8125V20.1875C0.302083 19.6146 0.614583 19.3021 1.1875 19.25C1.76042 19.3021 2.07292 19.6146 2.125 20.1875ZM7.4375 24.25C6.86458 24.1979 6.55208 23.8854 6.5 23.3125C6.55208 22.7396 6.86458 22.4271 7.4375 22.375H10.5625C11.1354 22.4271 11.4479 22.7396 11.5 23.3125C11.4479 23.8854 11.1354 24.1979 10.5625 24.25H7.4375ZM6.5 7.6875C6.55208 7.11458 6.86458 6.80208 7.4375 6.75H10.5625C11.1354 6.80208 11.4479 7.11458 11.5 7.6875C11.4479 8.26042 11.1354 8.57292 10.5625 8.625H7.4375C6.86458 8.57292 6.55208 8.26042 6.5 7.6875Z" fill="black" fill-opacity="0.72"/>
</g>
<defs>
<clipPath id="clip0_1731_5260">
<rect width="18" height="30" fill="white"/>
</clipPath>
</defs>
</svg>
