<svg width="20" height="30" viewBox="0 0 20 30" fill="none" xmlns="http://www.w3.org/2000/svg">
<g id="label-paired / lg / circle-nine-lg / bold" clip-path="url(#clip0_1731_4560)">
<path id="icon" d="M18.125 15.5C18.125 14.0156 17.7604 12.6615 17.0312 11.4375C16.3281 10.2135 15.3385 9.22396 14.0625 8.46875C12.7865 7.73958 11.4323 7.375 10 7.375C8.56771 7.375 7.21354 7.73958 5.9375 8.46875C4.66146 9.22396 3.67188 10.2135 2.96875 11.4375C2.23958 12.6615 1.875 14.0156 1.875 15.5C1.875 16.9844 2.23958 18.3385 2.96875 19.5625C3.67188 20.7865 4.66146 21.776 5.9375 22.5312C7.21354 23.2604 8.56771 23.625 10 23.625C11.4323 23.625 12.7865 23.2604 14.0625 22.5312C15.3385 21.776 16.3281 20.7865 17.0312 19.5625C17.7604 18.3385 18.125 16.9844 18.125 15.5ZM0 15.5C0.0260417 13.6771 0.46875 12.0104 1.32812 10.5C2.21354 8.98958 3.4375 7.76562 5 6.82812C6.58854 5.94271 8.25521 5.5 10 5.5C11.7448 5.5 13.4115 5.94271 15 6.82812C16.5625 7.76562 17.7865 8.98958 18.6719 10.5C19.5312 12.0104 19.974 13.6771 20 15.5C19.974 17.3229 19.5312 18.9896 18.6719 20.5C17.7865 22.0104 16.5625 23.2344 15 24.1719C13.4115 25.0573 11.7448 25.5 10 25.5C8.25521 25.5 6.58854 25.0573 5 24.1719C3.4375 23.2344 2.21354 22.0104 1.32812 20.5C0.46875 18.9896 0.0260417 17.3229 0 15.5ZM10 12.375C9.29688 12.401 8.75 12.7135 8.35938 13.3125C8.04688 13.9375 8.04688 14.5625 8.35938 15.1875C8.75 15.7865 9.29688 16.099 10 16.125C10.7031 16.099 11.25 15.7865 11.6406 15.1875C11.9531 14.5625 11.9531 13.9375 11.6406 13.3125C11.25 12.7135 10.7031 12.401 10 12.375ZM8.98438 17.8438C8.17708 17.6094 7.52604 17.1667 7.03125 16.5156C6.53646 15.8906 6.27604 15.1354 6.25 14.25C6.27604 13.1823 6.64062 12.2969 7.34375 11.5938C8.04688 10.8906 8.93229 10.526 10 10.5C11.0677 10.526 11.9531 10.8906 12.6562 11.5938C13.3594 12.2969 13.724 13.1823 13.75 14.25C13.724 15.5781 13.2161 16.6719 12.2266 17.5312L9.0625 20.2656C8.59375 20.6042 8.15104 20.5781 7.73438 20.1875C7.39583 19.7188 7.42188 19.276 7.8125 18.8594L8.98438 17.8438Z" fill="black" fill-opacity="0.72"/>
</g>
<defs>
<clipPath id="clip0_1731_4560">
<rect width="20" height="30" fill="white"/>
</clipPath>
</defs>
</svg>
