<svg width="8" height="18" viewBox="0 0 8 18" fill="none" xmlns="http://www.w3.org/2000/svg">
<g id="label-paired / caption / euro-sign-caption / regular" clip-path="url(#clip0_1731_1702)">
<path id="icon" d="M1.04688 8.75H0.625C0.390625 8.73438 0.265625 8.60938 0.25 8.375C0.265625 8.14062 0.390625 8.01562 0.625 8H1.21094C1.55469 6.89062 2.17969 5.99219 3.08594 5.30469C3.99219 4.61719 5.04688 4.26562 6.25 4.25H7.39844C7.63281 4.26562 7.75781 4.39062 7.77344 4.625C7.75781 4.85938 7.63281 4.98438 7.39844 5H6.25C5.25 5.01562 4.375 5.29688 3.625 5.84375C2.875 6.39062 2.33594 7.10938 2.00781 8H6.625C6.85938 8.01562 6.98438 8.14062 7 8.375C6.98438 8.60938 6.85938 8.73438 6.625 8.75H1.82031C1.77344 9 1.75 9.25 1.75 9.5C1.75 9.75 1.77344 10 1.82031 10.25H6.625C6.85938 10.2656 6.98438 10.3906 7 10.625C6.98438 10.8594 6.85938 10.9844 6.625 11H2.00781C2.33594 11.8906 2.875 12.6094 3.625 13.1562C4.375 13.7031 5.25 13.9844 6.25 14H7.39844C7.63281 14.0156 7.75781 14.1406 7.77344 14.375C7.75781 14.6094 7.63281 14.7344 7.39844 14.75H6.25C5.04688 14.7344 3.99219 14.3828 3.08594 13.6953C2.17969 13.0078 1.55469 12.1094 1.21094 11H0.625C0.390625 10.9844 0.265625 10.8594 0.25 10.625C0.265625 10.3906 0.390625 10.2656 0.625 10.25H1.04688C1.01562 10 1 9.75 1 9.5C1 9.25 1.01562 9 1.04688 8.75Z" fill="black" fill-opacity="0.72"/>
</g>
<defs>
<clipPath id="clip0_1731_1702">
<rect width="8" height="18" fill="white"/>
</clipPath>
</defs>
</svg>
