<svg width="15" height="30" viewBox="0 0 15 30" fill="none" xmlns="http://www.w3.org/2000/svg">
<g id="label-paired / lg / four-lg / regular" clip-path="url(#clip0_1731_4483)">
<path id="icon" d="M6.79688 7.64844L1.64062 18H11.25V11.125C11.276 10.7344 11.4844 10.526 11.875 10.5C12.2656 10.526 12.474 10.7344 12.5 11.125V18H14.375C14.7656 18.026 14.974 18.2344 15 18.625C14.974 19.0156 14.7656 19.224 14.375 19.25H12.5V23.625C12.474 24.0156 12.2656 24.224 11.875 24.25C11.4844 24.224 11.276 24.0156 11.25 23.625V19.25H0.625C0.390625 19.25 0.208333 19.1589 0.078125 18.9766C-0.0260417 18.7682 -0.0260417 18.5599 0.078125 18.3516L5.70312 7.10156C5.88542 6.76302 6.15885 6.67188 6.52344 6.82812C6.86198 7.03646 6.95312 7.3099 6.79688 7.64844Z" fill="black" fill-opacity="0.72"/>
</g>
<defs>
<clipPath id="clip0_1731_4483">
<rect width="15" height="30" fill="white"/>
</clipPath>
</defs>
</svg>
