<svg width="16" height="24" viewBox="0 0 16 24" fill="none" xmlns="http://www.w3.org/2000/svg">
<g id="label-paired / md / gauge-max-md / bold" clip-path="url(#clip0_1731_3262)">
<path id="icon" d="M8 18.5C9.1875 18.5 10.2708 18.2083 11.25 17.625C12.2292 17.0625 13.0208 16.2708 13.625 15.25C14.2083 14.2292 14.5 13.1458 14.5 12C14.5 10.8542 14.2083 9.77083 13.625 8.75C13.0208 7.72917 12.2292 6.9375 11.25 6.375C10.2708 5.79167 9.1875 5.5 8 5.5C6.8125 5.5 5.72917 5.79167 4.75 6.375C3.77083 6.9375 2.97917 7.72917 2.375 8.75C1.79167 9.77083 1.5 10.8542 1.5 12C1.5 13.1458 1.79167 14.2292 2.375 15.25C2.97917 16.2708 3.77083 17.0625 4.75 17.625C5.72917 18.2083 6.8125 18.5 8 18.5ZM8 4C9.45833 4.02083 10.7917 4.375 12 5.0625C13.2083 5.77083 14.1875 6.75 14.9375 8C15.6458 9.27083 16 10.6042 16 12C16 13.3958 15.6458 14.7292 14.9375 16C14.1875 17.25 13.2083 18.2292 12 18.9375C10.7917 19.625 9.45833 19.9792 8 20C6.54167 19.9792 5.20833 19.625 4 18.9375C2.79167 18.2292 1.8125 17.25 1.0625 16C0.354167 14.7292 0 13.3958 0 12C0 10.6042 0.354167 9.27083 1.0625 8C1.8125 6.75 2.79167 5.77083 4 5.0625C5.20833 4.375 6.54167 4.02083 8 4ZM9 7.5C9 7.79167 8.90625 8.03125 8.71875 8.21875C8.53125 8.40625 8.29167 8.5 8 8.5C7.70833 8.5 7.46875 8.40625 7.28125 8.21875C7.09375 8.03125 7 7.79167 7 7.5C7 7.20833 7.09375 6.96875 7.28125 6.78125C7.46875 6.59375 7.70833 6.5 8 6.5C8.29167 6.5 8.53125 6.59375 8.71875 6.78125C8.90625 6.96875 9 7.20833 9 7.5ZM8 16.75C7.5 16.7292 7.08333 16.5625 6.75 16.25C6.4375 15.9167 6.27083 15.5 6.25 15C6.27083 14.5 6.4375 14.0833 6.75 13.75C7.08333 13.4375 7.5 13.2708 8 13.25C8.33333 13.25 8.625 13.3333 8.875 13.5L12.3125 11.125C12.7292 10.8958 13.0833 10.9688 13.375 11.3438C13.6042 11.7396 13.5417 12.0833 13.1875 12.375L9.71875 14.7188C9.73958 14.8229 9.75 14.9167 9.75 15C9.72917 15.5 9.5625 15.9167 9.25 16.25C8.91667 16.5625 8.5 16.7292 8 16.75ZM12 9C12 9.29167 11.9062 9.53125 11.7188 9.71875C11.5312 9.90625 11.2917 10 11 10C10.7083 10 10.4688 9.90625 10.2812 9.71875C10.0938 9.53125 10 9.29167 10 9C10 8.70833 10.0938 8.46875 10.2812 8.28125C10.4688 8.09375 10.7083 8 11 8C11.2917 8 11.5312 8.09375 11.7188 8.28125C11.9062 8.46875 12 8.70833 12 9ZM3.5 11C3.79167 11 4.03125 11.0938 4.21875 11.2812C4.40625 11.4688 4.5 11.7083 4.5 12C4.5 12.2917 4.40625 12.5312 4.21875 12.7188C4.03125 12.9062 3.79167 13 3.5 13C3.20833 13 2.96875 12.9062 2.78125 12.7188C2.59375 12.5312 2.5 12.2917 2.5 12C2.5 11.7083 2.59375 11.4688 2.78125 11.2812C2.96875 11.0938 3.20833 11 3.5 11ZM6 9C6 9.29167 5.90625 9.53125 5.71875 9.71875C5.53125 9.90625 5.29167 10 5 10C4.70833 10 4.46875 9.90625 4.28125 9.71875C4.09375 9.53125 4 9.29167 4 9C4 8.70833 4.09375 8.46875 4.28125 8.28125C4.46875 8.09375 4.70833 8 5 8C5.29167 8 5.53125 8.09375 5.71875 8.28125C5.90625 8.46875 6 8.70833 6 9Z" fill="black" fill-opacity="0.72"/>
</g>
<defs>
<clipPath id="clip0_1731_3262">
<rect width="16" height="24" fill="white"/>
</clipPath>
</defs>
</svg>
