<svg width="20" height="24" viewBox="0 0 20 24" fill="none" xmlns="http://www.w3.org/2000/svg">
<g id="label-paired / md / laptop-md / regular" clip-path="url(#clip0_1731_3900)">
<path id="icon" d="M16 6H4C3.70833 6 3.46875 6.09375 3.28125 6.28125C3.09375 6.46875 3 6.70833 3 7V15H2V7C2.02083 6.4375 2.21875 5.96875 2.59375 5.59375C2.96875 5.21875 3.4375 5.02083 4 5H16C16.5625 5.02083 17.0312 5.21875 17.4062 5.59375C17.7812 5.96875 17.9792 6.4375 18 7V15H17V7C17 6.70833 16.9062 6.46875 16.7188 6.28125C16.5312 6.09375 16.2917 6 16 6ZM2.40625 18H17.5938C18.2812 17.9583 18.7292 17.625 18.9375 17H1.0625C1.27083 17.625 1.71875 17.9583 2.40625 18ZM0 16.5938C0.0416667 16.2396 0.239583 16.0417 0.59375 16H19.4062C19.7604 16.0417 19.9583 16.2396 20 16.5938C19.9792 17.2812 19.75 17.8542 19.3125 18.3125C18.8542 18.75 18.2812 18.9792 17.5938 19H2.40625C1.71875 18.9792 1.15625 18.75 0.71875 18.3125C0.260417 17.8542 0.0208333 17.2812 0 16.5938Z" fill="black" fill-opacity="0.72"/>
</g>
<defs>
<clipPath id="clip0_1731_3900">
<rect width="20" height="24" fill="white"/>
</clipPath>
</defs>
</svg>
