<svg width="18" height="22" viewBox="0 0 18 22" fill="none" xmlns="http://www.w3.org/2000/svg">
<g id="label-paired / sm / wifi-sm / bold" clip-path="url(#clip0_1731_2608)">
<path id="icon" d="M1.34375 8.83594C1.01562 9.07292 0.705729 9.05469 0.414062 8.78125C0.177083 8.45312 0.195312 8.14323 0.46875 7.85156C1.61719 6.83073 2.91146 6.03776 4.35156 5.47266C5.8099 4.90755 7.35938 4.625 9 4.625C10.6406 4.625 12.1901 4.90755 13.6484 5.47266C15.0885 6.03776 16.3828 6.83073 17.5312 7.85156C17.8047 8.14323 17.8229 8.45312 17.5859 8.78125C17.2943 9.05469 16.9844 9.07292 16.6562 8.83594C15.6354 7.92448 14.4688 7.21354 13.1562 6.70312C11.862 6.19271 10.4766 5.9375 9 5.9375C7.52344 5.9375 6.13802 6.19271 4.84375 6.70312C3.53125 7.21354 2.36458 7.92448 1.34375 8.83594ZM9 10.75C7.19531 10.7865 5.66406 11.3789 4.40625 12.5273C4.09635 12.7826 3.78646 12.7734 3.47656 12.5C3.23958 12.1719 3.25781 11.862 3.53125 11.5703C4.26042 10.8958 5.08984 10.3763 6.01953 10.0117C6.94922 9.62891 7.94271 9.4375 9 9.4375C10.0573 9.4375 11.0508 9.62891 11.9805 10.0117C12.9102 10.3763 13.7396 10.8958 14.4688 11.5703C14.7422 11.862 14.7604 12.1719 14.5234 12.5C14.2135 12.7734 13.9036 12.7826 13.5938 12.5273C12.3359 11.3789 10.8047 10.7865 9 10.75ZM10.5312 15.3438C10.513 15.9271 10.2578 16.3646 9.76562 16.6562C9.25521 16.9479 8.74479 16.9479 8.23438 16.6562C7.74219 16.3646 7.48698 15.9271 7.46875 15.3438C7.48698 14.7604 7.74219 14.3229 8.23438 14.0312C8.74479 13.7396 9.25521 13.7396 9.76562 14.0312C10.2578 14.3229 10.513 14.7604 10.5312 15.3438Z" fill="black" fill-opacity="0.72"/>
</g>
<defs>
<clipPath id="clip0_1731_2608">
<rect width="18" height="22" fill="white"/>
</clipPath>
</defs>
</svg>
