<svg width="15" height="30" viewBox="0 0 15 30" fill="none" xmlns="http://www.w3.org/2000/svg">
<g id="label-paired / lg / location-dot-lg / regular" clip-path="url(#clip0_1731_4883)">
<path id="icon" d="M13.75 13C13.6979 11.2292 13.0859 9.75781 11.9141 8.58594C10.7422 7.41406 9.27083 6.80208 7.5 6.75C5.72917 6.80208 4.25781 7.41406 3.08594 8.58594C1.91406 9.75781 1.30208 11.2292 1.25 13C1.25 13.625 1.47135 14.4453 1.91406 15.4609C2.35677 16.5026 2.91667 17.5833 3.59375 18.7031C4.27083 19.7969 4.96094 20.8125 5.66406 21.75C6.36719 22.7135 6.97917 23.5208 7.5 24.1719C8.02083 23.5208 8.63281 22.7135 9.33594 21.75C10.0391 20.8125 10.7292 19.7969 11.4062 18.7031C12.1094 17.5833 12.6823 16.5026 13.125 15.4609C13.5417 14.4453 13.75 13.625 13.75 13ZM15 13C14.9479 14.1719 14.5312 15.526 13.75 17.0625C12.9427 18.599 12.0312 20.0833 11.0156 21.5156C10 22.974 9.14062 24.1328 8.4375 24.9922C8.17708 25.3047 7.86458 25.4609 7.5 25.4609C7.13542 25.4609 6.82292 25.3047 6.5625 24.9922C5.85938 24.1328 5 22.974 3.98438 21.5156C2.96875 20.0833 2.05729 18.599 1.25 17.0625C0.46875 15.526 0.0520833 14.1719 0 13C0.0520833 10.8646 0.78125 9.09375 2.1875 7.6875C3.59375 6.28125 5.36458 5.55208 7.5 5.5C9.63542 5.55208 11.4062 6.28125 12.8125 7.6875C14.2188 9.09375 14.9479 10.8646 15 13ZM5.625 13C5.65104 13.7031 5.96354 14.25 6.5625 14.6406C7.1875 14.9531 7.8125 14.9531 8.4375 14.6406C9.03646 14.25 9.34896 13.7031 9.375 13C9.34896 12.2969 9.03646 11.75 8.4375 11.3594C7.8125 11.0469 7.1875 11.0469 6.5625 11.3594C5.96354 11.75 5.65104 12.2969 5.625 13ZM7.5 16.125C6.32812 16.099 5.42969 15.5781 4.80469 14.5625C4.23177 13.5208 4.23177 12.4792 4.80469 11.4375C5.42969 10.4219 6.32812 9.90104 7.5 9.875C8.67188 9.90104 9.57031 10.4219 10.1953 11.4375C10.7682 12.4792 10.7682 13.5208 10.1953 14.5625C9.57031 15.5781 8.67188 16.099 7.5 16.125Z" fill="black" fill-opacity="0.72"/>
</g>
<defs>
<clipPath id="clip0_1731_4883">
<rect width="15" height="30" fill="white"/>
</clipPath>
</defs>
</svg>
