<svg width="8" height="18" viewBox="0 0 8 18" fill="none" xmlns="http://www.w3.org/2000/svg">
<g id="label-paired / caption / zero-caption / bold" clip-path="url(#clip0_1731_1042)">
<path id="icon" d="M0.25 8C0.28125 6.9375 0.648438 6.05469 1.35156 5.35156C2.05469 4.64844 2.9375 4.28125 4 4.25C5.0625 4.28125 5.94531 4.64844 6.64844 5.35156C7.35156 6.05469 7.71875 6.9375 7.75 8V11C7.71875 12.0625 7.35156 12.9453 6.64844 13.6484C5.94531 14.3516 5.0625 14.7188 4 14.75C2.9375 14.7188 2.05469 14.3516 1.35156 13.6484C0.648438 12.9453 0.28125 12.0625 0.25 11V8ZM4 5.375C3.25 5.39062 2.63281 5.64844 2.14844 6.14844C1.64844 6.63281 1.39062 7.25 1.375 8V11C1.39062 11.75 1.64844 12.3672 2.14844 12.8516C2.63281 13.3516 3.25 13.6094 4 13.625C4.75 13.6094 5.36719 13.3516 5.85156 12.8516C6.35156 12.3672 6.60938 11.75 6.625 11V8C6.60938 7.25 6.35156 6.63281 5.85156 6.14844C5.36719 5.64844 4.75 5.39062 4 5.375Z" fill="black" fill-opacity="0.72"/>
</g>
<defs>
<clipPath id="clip0_1731_1042">
<rect width="8" height="18" fill="white"/>
</clipPath>
</defs>
</svg>
