<svg width="8" height="18" viewBox="0 0 8 18" fill="none" xmlns="http://www.w3.org/2000/svg">
<g id="label-paired / caption / pause-caption / regular" clip-path="url(#clip0_1731_1529)">
<path id="icon" d="M1.375 5.75C1.14062 5.76562 1.01562 5.89062 1 6.125V12.875C1.01562 13.1094 1.14062 13.2344 1.375 13.25H2.5C2.73438 13.2344 2.85938 13.1094 2.875 12.875V6.125C2.85938 5.89062 2.73438 5.76562 2.5 5.75H1.375ZM0.25 6.125C0.265625 5.8125 0.375 5.54688 0.578125 5.32812C0.796875 5.125 1.0625 5.01562 1.375 5H2.5C2.8125 5.01562 3.07812 5.125 3.29688 5.32812C3.5 5.54688 3.60938 5.8125 3.625 6.125V12.875C3.60938 13.1875 3.5 13.4531 3.29688 13.6719C3.07812 13.875 2.8125 13.9844 2.5 14H1.375C1.0625 13.9844 0.796875 13.875 0.578125 13.6719C0.375 13.4531 0.265625 13.1875 0.25 12.875V6.125ZM5.5 5.75C5.26562 5.76562 5.14062 5.89062 5.125 6.125V12.875C5.14062 13.1094 5.26562 13.2344 5.5 13.25H6.625C6.85938 13.2344 6.98438 13.1094 7 12.875V6.125C6.98438 5.89062 6.85938 5.76562 6.625 5.75H5.5ZM4.375 6.125C4.39062 5.8125 4.5 5.54688 4.70312 5.32812C4.92188 5.125 5.1875 5.01562 5.5 5H6.625C6.9375 5.01562 7.20312 5.125 7.42188 5.32812C7.625 5.54688 7.73438 5.8125 7.75 6.125V12.875C7.73438 13.1875 7.625 13.4531 7.42188 13.6719C7.20312 13.875 6.9375 13.9844 6.625 14H5.5C5.1875 13.9844 4.92188 13.875 4.70312 13.6719C4.5 13.4531 4.39062 13.1875 4.375 12.875V6.125Z" fill="black" fill-opacity="0.72"/>
</g>
<defs>
<clipPath id="clip0_1731_1529">
<rect width="8" height="18" fill="white"/>
</clipPath>
</defs>
</svg>
