<svg width="25" height="30" viewBox="0 0 25 30" fill="none" xmlns="http://www.w3.org/2000/svg">
<g id="label-paired / lg / deal-protection-lg / regular" clip-path="url(#clip0_1731_5489)">
<path id="icon" d="M3.59375 10.2656H7.30469C7.96875 10.2656 8.55469 10.3828 9.10156 10.6172C9.64844 10.8125 10.1172 11.1641 10.5078 11.5938C10.8984 12.0234 11.2109 12.5703 11.4062 13.2344C11.6016 13.8984 11.7188 14.6406 11.7188 15.5C11.7188 16.3984 11.6016 17.1406 11.4062 17.8047C11.2109 18.4688 10.8984 19.0156 10.5078 19.4453C10.1172 19.875 9.64844 20.1875 9.10156 20.4219C8.55469 20.6562 7.96875 20.7734 7.30469 20.7734H3.59375V10.2656ZM7.30469 19.25C8.08594 19.25 8.71094 19.0156 9.17969 18.5078C9.64844 18.0391 9.92188 17.2969 9.92188 16.3594V14.6797C9.92188 13.7422 9.64844 13 9.17969 12.5312C8.71094 12.0234 8.08594 11.7891 7.30469 11.7891H5.27344V19.25H7.30469ZM13.8281 20.7344V10.2656H18.3203C19.2969 10.2656 20.0391 10.5781 20.5859 11.125C21.0938 11.7109 21.3672 12.4922 21.3672 13.4297C21.3672 14.4062 21.0938 15.1484 20.5859 15.7344C20.0391 16.3203 19.2969 16.5938 18.3203 16.5938H15.5078V20.7344H13.8281ZM15.5078 15.1094H18.2422C18.6719 15.1094 18.9844 14.9922 19.2188 14.7578C19.4531 14.5234 19.5703 14.2109 19.5703 13.7812V13.0781C19.5703 12.6484 19.4531 12.3359 19.2188 12.1016C18.9844 11.8672 18.6719 11.75 18.2422 11.75H15.5078V15.1094Z" fill="black" fill-opacity="0.72"/>
</g>
<defs>
<clipPath id="clip0_1731_5489">
<rect width="25" height="30" fill="white"/>
</clipPath>
</defs>
</svg>
