<svg width="14" height="18" viewBox="0 0 14 18" fill="none" xmlns="http://www.w3.org/2000/svg">
<g id="label-paired / caption / memo-circle-check-caption / bold" clip-path="url(#clip0_1731_1513)">
<path id="icon" d="M1.75 4.625C1.51562 4.64062 1.39062 4.76562 1.375 5V14C1.39062 14.2344 1.51562 14.3594 1.75 14.375H6.90625C7.20312 14.8125 7.5625 15.1797 7.98438 15.4766C7.90625 15.4922 7.82812 15.5 7.75 15.5H1.75C1.32812 15.4844 0.976562 15.3359 0.695312 15.0547C0.414062 14.7734 0.265625 14.4219 0.25 14V5C0.265625 4.57812 0.414062 4.22656 0.695312 3.94531C0.976562 3.66406 1.32812 3.51563 1.75 3.5H7.75C8.17188 3.51563 8.52344 3.66406 8.80469 3.94531C9.08594 4.22656 9.23438 4.57812 9.25 5V8.16406C8.84375 8.27344 8.46875 8.44531 8.125 8.67969V5C8.10938 4.76562 7.98438 4.64062 7.75 4.625H1.75ZM3.0625 6.5H6.4375C6.78125 6.53125 6.96875 6.71875 7 7.0625C6.96875 7.40625 6.78125 7.59375 6.4375 7.625H3.0625C2.71875 7.59375 2.53125 7.40625 2.5 7.0625C2.53125 6.71875 2.71875 6.53125 3.0625 6.5ZM3.0625 8.75H6.4375C6.78125 8.78125 6.96875 8.96875 7 9.3125C6.96875 9.65625 6.78125 9.84375 6.4375 9.875H3.0625C2.71875 9.84375 2.53125 9.65625 2.5 9.3125C2.53125 8.96875 2.71875 8.78125 3.0625 8.75ZM3.0625 11H4.1875C4.53125 11.0312 4.71875 11.2188 4.75 11.5625C4.71875 11.9062 4.53125 12.0938 4.1875 12.125H3.0625C2.71875 12.0938 2.53125 11.9062 2.5 11.5625C2.53125 11.2188 2.71875 11.0312 3.0625 11ZM13.75 12.125C13.75 12.7344 13.6016 13.2969 13.3047 13.8125C13.0078 14.3281 12.5938 14.7422 12.0625 15.0547C11.5312 15.3516 10.9688 15.5 10.375 15.5C9.78125 15.5 9.21875 15.3516 8.6875 15.0547C8.15625 14.7422 7.74219 14.3281 7.44531 13.8125C7.14844 13.2969 7 12.7344 7 12.125C7 11.5156 7.14844 10.9531 7.44531 10.4375C7.74219 9.92188 8.15625 9.50781 8.6875 9.19531C9.21875 8.89844 9.78125 8.75 10.375 8.75C10.9688 8.75 11.5312 8.89844 12.0625 9.19531C12.5938 9.50781 13.0078 9.92188 13.3047 10.4375C13.6016 10.9531 13.75 11.5156 13.75 12.125ZM11.9453 11.1172C11.7734 10.9609 11.6016 10.9609 11.4297 11.1172L10 12.5234L9.32031 11.8672C9.14844 11.7109 8.97656 11.7109 8.80469 11.8672C8.64844 12.0391 8.64844 12.2109 8.80469 12.3828L9.74219 13.3203C9.91406 13.4766 10.0859 13.4766 10.2578 13.3203L11.9453 11.6328C12.1016 11.4609 12.1016 11.2891 11.9453 11.1172Z" fill="black" fill-opacity="0.72"/>
</g>
<defs>
<clipPath id="clip0_1731_1513">
<rect width="14" height="18" fill="white"/>
</clipPath>
</defs>
</svg>
