<svg width="15" height="18" viewBox="0 0 15 18" fill="none" xmlns="http://www.w3.org/2000/svg">
<g id="label-paired / caption / deal-protection-caption / regular" clip-path="url(#clip0_1731_759)">
<path id="icon" d="M2.15625 6.35938H4.38281C4.78125 6.35938 5.13281 6.42969 5.46094 6.57031C5.78906 6.6875 6.07031 6.89844 6.30469 7.15625C6.53906 7.41406 6.72656 7.74219 6.84375 8.14062C6.96094 8.53906 7.03125 8.98438 7.03125 9.5C7.03125 10.0391 6.96094 10.4844 6.84375 10.8828C6.72656 11.2812 6.53906 11.6094 6.30469 11.8672C6.07031 12.125 5.78906 12.3125 5.46094 12.4531C5.13281 12.5938 4.78125 12.6641 4.38281 12.6641H2.15625V6.35938ZM4.38281 11.75C4.85156 11.75 5.22656 11.6094 5.50781 11.3047C5.78906 11.0234 5.95312 10.5781 5.95312 10.0156V9.00781C5.95312 8.44531 5.78906 8 5.50781 7.71875C5.22656 7.41406 4.85156 7.27344 4.38281 7.27344H3.16406V11.75H4.38281ZM8.29688 12.6406V6.35938H10.9922C11.5781 6.35938 12.0234 6.54688 12.3516 6.875C12.6562 7.22656 12.8203 7.69531 12.8203 8.25781C12.8203 8.84375 12.6562 9.28906 12.3516 9.64062C12.0234 9.99219 11.5781 10.1562 10.9922 10.1562H9.30469V12.6406H8.29688ZM9.30469 9.26562H10.9453C11.2031 9.26562 11.3906 9.19531 11.5312 9.05469C11.6719 8.91406 11.7422 8.72656 11.7422 8.46875V8.04688C11.7422 7.78906 11.6719 7.60156 11.5312 7.46094C11.3906 7.32031 11.2031 7.25 10.9453 7.25H9.30469V9.26562Z" fill="black" fill-opacity="0.72"/>
</g>
<defs>
<clipPath id="clip0_1731_759">
<rect width="15" height="18" fill="white"/>
</clipPath>
</defs>
</svg>
