<svg width="6" height="18" viewBox="0 0 6 18" fill="none" xmlns="http://www.w3.org/2000/svg">
<g id="label-paired / caption / grip-dots-vertical-caption / bold" clip-path="url(#clip0_1731_536)">
<path id="icon" d="M1.5 6.5C1.28125 6.5 1.10156 6.42969 0.960938 6.28906C0.820312 6.14844 0.75 5.96875 0.75 5.75C0.75 5.53125 0.820312 5.35156 0.960938 5.21094C1.10156 5.07031 1.28125 5 1.5 5C1.71875 5 1.89844 5.07031 2.03906 5.21094C2.17969 5.35156 2.25 5.53125 2.25 5.75C2.25 5.96875 2.17969 6.14844 2.03906 6.28906C1.89844 6.42969 1.71875 6.5 1.5 6.5ZM1.5 10.25C1.28125 10.25 1.10156 10.1797 0.960938 10.0391C0.820312 9.89844 0.75 9.71875 0.75 9.5C0.75 9.28125 0.820312 9.10156 0.960938 8.96094C1.10156 8.82031 1.28125 8.75 1.5 8.75C1.71875 8.75 1.89844 8.82031 2.03906 8.96094C2.17969 9.10156 2.25 9.28125 2.25 9.5C2.25 9.71875 2.17969 9.89844 2.03906 10.0391C1.89844 10.1797 1.71875 10.25 1.5 10.25ZM2.25 13.25C2.25 13.4688 2.17969 13.6484 2.03906 13.7891C1.89844 13.9297 1.71875 14 1.5 14C1.28125 14 1.10156 13.9297 0.960938 13.7891C0.820312 13.6484 0.75 13.4688 0.75 13.25C0.75 13.0312 0.820312 12.8516 0.960938 12.7109C1.10156 12.5703 1.28125 12.5 1.5 12.5C1.71875 12.5 1.89844 12.5703 2.03906 12.7109C2.17969 12.8516 2.25 13.0312 2.25 13.25ZM4.5 6.5C4.28125 6.5 4.10156 6.42969 3.96094 6.28906C3.82031 6.14844 3.75 5.96875 3.75 5.75C3.75 5.53125 3.82031 5.35156 3.96094 5.21094C4.10156 5.07031 4.28125 5 4.5 5C4.71875 5 4.89844 5.07031 5.03906 5.21094C5.17969 5.35156 5.25 5.53125 5.25 5.75C5.25 5.96875 5.17969 6.14844 5.03906 6.28906C4.89844 6.42969 4.71875 6.5 4.5 6.5ZM5.25 9.5C5.25 9.71875 5.17969 9.89844 5.03906 10.0391C4.89844 10.1797 4.71875 10.25 4.5 10.25C4.28125 10.25 4.10156 10.1797 3.96094 10.0391C3.82031 9.89844 3.75 9.71875 3.75 9.5C3.75 9.28125 3.82031 9.10156 3.96094 8.96094C4.10156 8.82031 4.28125 8.75 4.5 8.75C4.71875 8.75 4.89844 8.82031 5.03906 8.96094C5.17969 9.10156 5.25 9.28125 5.25 9.5ZM4.5 14C4.28125 14 4.10156 13.9297 3.96094 13.7891C3.82031 13.6484 3.75 13.4688 3.75 13.25C3.75 13.0312 3.82031 12.8516 3.96094 12.7109C4.10156 12.5703 4.28125 12.5 4.5 12.5C4.71875 12.5 4.89844 12.5703 5.03906 12.7109C5.17969 12.8516 5.25 13.0312 5.25 13.25C5.25 13.4688 5.17969 13.6484 5.03906 13.7891C4.89844 13.9297 4.71875 14 4.5 14Z" fill="black" fill-opacity="0.72"/>
</g>
<defs>
<clipPath id="clip0_1731_536">
<rect width="6" height="18" fill="white"/>
</clipPath>
</defs>
</svg>
