<svg width="27" height="36" viewBox="0 0 27 36" fill="none" xmlns="http://www.w3.org/2000/svg">
<g id="label-paired / xl / eye-xl / regular" clip-path="url(#clip0_1731_5656)">
<path id="icon" d="M5.48438 12.375C4.48438 13.3438 3.64062 14.3281 2.95312 15.3281C2.29688 16.3281 1.8125 17.2188 1.5 18C1.8125 18.7812 2.29688 19.6719 2.95312 20.6719C3.64062 21.6719 4.48438 22.6562 5.48438 23.625C6.51562 24.5938 7.6875 25.3906 9 26.0156C10.3438 26.6406 11.8438 26.9688 13.5 27C15.1562 26.9688 16.6562 26.6406 18 26.0156C19.3125 25.3906 20.4844 24.5938 21.5156 23.625C22.5156 22.6562 23.3594 21.6719 24.0469 20.6719C24.7031 19.6719 25.1875 18.7812 25.5 18C25.1875 17.2188 24.7031 16.3281 24.0469 15.3281C23.3594 14.3281 22.5156 13.3438 21.5156 12.375C20.4844 11.4062 19.3125 10.6094 18 9.98438C16.6562 9.35938 15.1562 9.03125 13.5 9C11.8438 9.03125 10.3438 9.35938 9 9.98438C7.6875 10.6094 6.51562 11.4062 5.48438 12.375ZM13.5 7.5C15.4062 7.53125 17.1094 7.90625 18.6094 8.625C20.1094 9.34375 21.4219 10.2344 22.5469 11.2969C23.6406 12.3281 24.5469 13.3906 25.2656 14.4844C25.9844 15.5781 26.5312 16.5625 26.9062 17.4375C27.0625 17.8125 27.0625 18.1875 26.9062 18.5625C26.5312 19.4375 25.9844 20.4219 25.2656 21.5156C24.5469 22.6094 23.6406 23.6719 22.5469 24.7031C21.4219 25.7656 20.1094 26.6562 18.6094 27.375C17.1094 28.0938 15.4062 28.4688 13.5 28.5C11.5938 28.4688 9.89062 28.0938 8.39062 27.375C6.89062 26.6562 5.57812 25.7656 4.45312 24.7031C3.35938 23.6719 2.45312 22.6094 1.73438 21.5156C1.01562 20.4219 0.484375 19.4375 0.140625 18.5625C-0.015625 18.1875 -0.015625 17.8125 0.140625 17.4375C0.484375 16.5625 1.01562 15.5781 1.73438 14.4844C2.45312 13.3906 3.35938 12.3281 4.45312 11.2969C5.57812 10.2344 6.89062 9.34375 8.39062 8.625C9.89062 7.90625 11.5938 7.53125 13.5 7.5ZM9 18C9 18.8125 9.20312 19.5625 9.60938 20.25C10.0156 20.9375 10.5625 21.4844 11.25 21.8906C11.9688 22.2969 12.7188 22.5 13.5 22.5C14.2812 22.5 15.0312 22.2969 15.75 21.8906C16.4375 21.4844 16.9844 20.9375 17.3906 20.25C17.7969 19.5625 18 18.8125 18 18C18 17.1875 17.7969 16.4375 17.3906 15.75C16.9844 15.0625 16.4375 14.5156 15.75 14.1094C15.0312 13.7031 14.2812 13.5 13.5 13.5C12.7188 13.5 11.9688 13.7031 11.25 14.1094C10.5625 14.5156 10.0156 15.0625 9.60938 15.75C9.20312 16.4375 9 17.1875 9 18ZM19.5 18C19.5 19.0938 19.2344 20.0938 18.7031 21C18.1719 21.9062 17.4375 22.6406 16.5 23.2031C15.5625 23.7344 14.5625 24 13.5 24C12.4375 24 11.4375 23.7344 10.5 23.2031C9.5625 22.6406 8.82812 21.9062 8.29688 21C7.76562 20.0938 7.5 19.0938 7.5 18C7.5 16.9062 7.76562 15.9062 8.29688 15C8.82812 14.0938 9.5625 13.3594 10.5 12.7969C11.4375 12.2656 12.4375 12 13.5 12C14.5625 12 15.5625 12.2656 16.5 12.7969C17.4375 13.3594 18.1719 14.0938 18.7031 15C19.2344 15.9062 19.5 16.9062 19.5 18Z" fill="black" fill-opacity="0.72"/>
</g>
<defs>
<clipPath id="clip0_1731_5656">
<rect width="27" height="36" fill="white"/>
</clipPath>
</defs>
</svg>
