<svg width="12" height="24" viewBox="0 0 12 24" fill="none" xmlns="http://www.w3.org/2000/svg">
<g id="label-paired / md / percent-md / regular" clip-path="url(#clip0_1731_3997)">
<path id="icon" d="M2 7C1.70833 7 1.46875 7.09375 1.28125 7.28125C1.09375 7.46875 1 7.70833 1 8C1 8.29167 1.09375 8.53125 1.28125 8.71875C1.46875 8.90625 1.70833 9 2 9C2.29167 9 2.53125 8.90625 2.71875 8.71875C2.90625 8.53125 3 8.29167 3 8C3 7.70833 2.90625 7.46875 2.71875 7.28125C2.53125 7.09375 2.29167 7 2 7ZM2 10C1.25 9.97917 0.677083 9.64583 0.28125 9C-0.09375 8.33333 -0.09375 7.66667 0.28125 7C0.677083 6.35417 1.25 6.02083 2 6C2.75 6.02083 3.32292 6.35417 3.71875 7C4.09375 7.66667 4.09375 8.33333 3.71875 9C3.32292 9.64583 2.75 9.97917 2 10ZM10 15C9.70833 15 9.46875 15.0938 9.28125 15.2812C9.09375 15.4688 9 15.7083 9 16C9 16.2917 9.09375 16.5312 9.28125 16.7188C9.46875 16.9062 9.70833 17 10 17C10.2917 17 10.5312 16.9062 10.7188 16.7188C10.9062 16.5312 11 16.2917 11 16C11 15.7083 10.9062 15.4688 10.7188 15.2812C10.5312 15.0938 10.2917 15 10 15ZM10 18C9.25 17.9792 8.67708 17.6458 8.28125 17C7.90625 16.3333 7.90625 15.6667 8.28125 15C8.67708 14.3542 9.25 14.0208 10 14C10.75 14.0208 11.3229 14.3542 11.7188 15C12.0938 15.6667 12.0938 16.3333 11.7188 17C11.3229 17.6458 10.75 17.9792 10 18ZM11.8438 6.84375L0.84375 17.8438C0.614583 18.0521 0.385417 18.0521 0.15625 17.8438C-0.0520833 17.6146 -0.0520833 17.3854 0.15625 17.1562L11.1562 6.15625C11.3854 5.94792 11.6146 5.94792 11.8438 6.15625C12.0521 6.38542 12.0521 6.61458 11.8438 6.84375Z" fill="black" fill-opacity="0.72"/>
</g>
<defs>
<clipPath id="clip0_1731_3997">
<rect width="12" height="24" fill="white"/>
</clipPath>
</defs>
</svg>
