<svg width="11" height="22" viewBox="0 0 11 22" fill="none" xmlns="http://www.w3.org/2000/svg">
<g id="label-paired / sm / location-dot-sm / bold" clip-path="url(#clip0_1731_2670)">
<path id="icon" d="M9.4375 9C9.40104 7.88802 9.01823 6.95833 8.28906 6.21094C7.54167 5.48177 6.61198 5.09896 5.5 5.0625C4.38802 5.09896 3.45833 5.48177 2.71094 6.21094C1.98177 6.95833 1.59896 7.88802 1.5625 9C1.5625 9.34635 1.69922 9.86589 1.97266 10.5586C2.28255 11.2513 2.67448 11.9805 3.14844 12.7461C3.54948 13.3841 3.95052 13.9948 4.35156 14.5781C4.77083 15.1615 5.15365 15.6719 5.5 16.1094C5.84635 15.6719 6.22917 15.1615 6.64844 14.5781C7.06771 13.9948 7.46875 13.3841 7.85156 12.7461C8.32552 11.9805 8.71745 11.2513 9.02734 10.5586C9.30078 9.86589 9.4375 9.34635 9.4375 9ZM10.75 9C10.7135 9.82031 10.4219 10.7682 9.875 11.8438C9.3099 12.9193 8.67188 13.9583 7.96094 14.9609C7.25 15.9818 6.64844 16.793 6.15625 17.3945C5.97396 17.6133 5.75521 17.7227 5.5 17.7227C5.24479 17.7227 5.02604 17.6133 4.84375 17.3945C4.35156 16.793 3.75 15.9818 3.03906 14.9609C2.32812 13.9583 1.6901 12.9193 1.125 11.8438C0.578125 10.7682 0.286458 9.82031 0.25 9C0.286458 7.50521 0.796875 6.26562 1.78125 5.28125C2.76562 4.29688 4.00521 3.78646 5.5 3.75C6.99479 3.78646 8.23438 4.29688 9.21875 5.28125C10.2031 6.26562 10.7135 7.50521 10.75 9ZM6.375 9C6.375 8.74479 6.29297 8.53516 6.12891 8.37109C5.96484 8.20703 5.75521 8.125 5.5 8.125C5.24479 8.125 5.03516 8.20703 4.87109 8.37109C4.70703 8.53516 4.625 8.74479 4.625 9C4.625 9.25521 4.70703 9.46484 4.87109 9.62891C5.03516 9.79297 5.24479 9.875 5.5 9.875C5.75521 9.875 5.96484 9.79297 6.12891 9.62891C6.29297 9.46484 6.375 9.25521 6.375 9ZM3.3125 9C3.33073 8.17969 3.69531 7.55078 4.40625 7.11328C5.13542 6.71224 5.86458 6.71224 6.59375 7.11328C7.30469 7.55078 7.66927 8.17969 7.6875 9C7.66927 9.82031 7.30469 10.4492 6.59375 10.8867C5.86458 11.2878 5.13542 11.2878 4.40625 10.8867C3.69531 10.4492 3.33073 9.82031 3.3125 9Z" fill="black" fill-opacity="0.72"/>
</g>
<defs>
<clipPath id="clip0_1731_2670">
<rect width="11" height="22" fill="white"/>
</clipPath>
</defs>
</svg>
