<svg width="13" height="22" viewBox="0 0 13 22" fill="none" xmlns="http://www.w3.org/2000/svg">
<g id="label-paired / sm / plus-sm / bold" clip-path="url(#clip0_1731_1819)">
<path id="icon" d="M7.15625 5.71875V10.0938H11.5312C11.9323 10.1302 12.151 10.349 12.1875 10.75C12.151 11.151 11.9323 11.3698 11.5312 11.4062H7.15625V15.7812C7.11979 16.1823 6.90104 16.401 6.5 16.4375C6.09896 16.401 5.88021 16.1823 5.84375 15.7812V11.4062H1.46875C1.06771 11.3698 0.848958 11.151 0.8125 10.75C0.848958 10.349 1.06771 10.1302 1.46875 10.0938H5.84375V5.71875C5.88021 5.31771 6.09896 5.09896 6.5 5.0625C6.90104 5.09896 7.11979 5.31771 7.15625 5.71875Z" fill="black" fill-opacity="0.72"/>
</g>
<defs>
<clipPath id="clip0_1731_1819">
<rect width="13" height="22" fill="white"/>
</clipPath>
</defs>
</svg>
