<svg width="20" height="24" viewBox="0 0 20 24" fill="none" xmlns="http://www.w3.org/2000/svg">
<g id="label-paired / md / wifi-md / bold" clip-path="url(#clip0_1731_3866)">
<path id="icon" d="M1.25 9.8125C0.875 10.0833 0.520833 10.0625 0.1875 9.75C-0.0833333 9.375 -0.0625 9.02083 0.25 8.6875C1.5625 7.52083 3.04167 6.61458 4.6875 5.96875C6.35417 5.32292 8.125 5 10 5C11.875 5 13.6458 5.32292 15.3125 5.96875C16.9583 6.61458 18.4375 7.52083 19.75 8.6875C20.0625 9.02083 20.0833 9.375 19.8125 9.75C19.4792 10.0625 19.125 10.0833 18.75 9.8125C17.5833 8.77083 16.25 7.95833 14.75 7.375C13.2708 6.79167 11.6875 6.5 10 6.5C8.3125 6.5 6.72917 6.79167 5.25 7.375C3.75 7.95833 2.41667 8.77083 1.25 9.8125ZM10 12C7.9375 12.0417 6.1875 12.7188 4.75 14.0312C4.39583 14.3229 4.04167 14.3125 3.6875 14C3.41667 13.625 3.4375 13.2708 3.75 12.9375C4.58333 12.1667 5.53125 11.5729 6.59375 11.1562C7.65625 10.7188 8.79167 10.5 10 10.5C11.2083 10.5 12.3438 10.7188 13.4062 11.1562C14.4688 11.5729 15.4167 12.1667 16.25 12.9375C16.5625 13.2708 16.5833 13.625 16.3125 14C15.9583 14.3125 15.6042 14.3229 15.25 14.0312C13.8125 12.7188 12.0625 12.0417 10 12ZM11.75 17.25C11.7292 17.9167 11.4375 18.4167 10.875 18.75C10.2917 19.0833 9.70833 19.0833 9.125 18.75C8.5625 18.4167 8.27083 17.9167 8.25 17.25C8.27083 16.5833 8.5625 16.0833 9.125 15.75C9.70833 15.4167 10.2917 15.4167 10.875 15.75C11.4375 16.0833 11.7292 16.5833 11.75 17.25Z" fill="black" fill-opacity="0.72"/>
</g>
<defs>
<clipPath id="clip0_1731_3866">
<rect width="20" height="24" fill="white"/>
</clipPath>
</defs>
</svg>
