<svg width="9" height="18" viewBox="0 0 9 18" fill="none" xmlns="http://www.w3.org/2000/svg">
<g id="label-paired / caption / four-caption / bold" clip-path="url(#clip0_1731_1012)">
<path id="icon" d="M4.42969 5.07031L1.5 10.625H6.375V7.0625C6.40625 6.71875 6.59375 6.53125 6.9375 6.5C7.28125 6.53125 7.46875 6.71875 7.5 7.0625V10.625H8.4375C8.78125 10.6562 8.96875 10.8438 9 11.1875C8.96875 11.5312 8.78125 11.7188 8.4375 11.75H7.5V14.1875C7.46875 14.5312 7.28125 14.7188 6.9375 14.75C6.59375 14.7188 6.40625 14.5312 6.375 14.1875V11.75H0.5625C0.359375 11.75 0.195312 11.6562 0.0703125 11.4688C-0.0234375 11.2969 -0.0234375 11.1172 0.0703125 10.9297L3.44531 4.55469C3.63281 4.25781 3.88281 4.17969 4.19531 4.32031C4.49219 4.50781 4.57031 4.75781 4.42969 5.07031Z" fill="black" fill-opacity="0.72"/>
</g>
<defs>
<clipPath id="clip0_1731_1012">
<rect width="9" height="18" fill="white"/>
</clipPath>
</defs>
</svg>
