<svg width="14" height="22" viewBox="0 0 14 22" fill="none" xmlns="http://www.w3.org/2000/svg">
<g id="label-paired / sm / triangle-exclamation-sm / regular" clip-path="url(#clip0_1731_2879)">
<path id="icon" d="M0.957031 15.2344C0.902344 15.3255 0.875 15.4167 0.875 15.5078C0.911458 15.8177 1.07552 15.9818 1.36719 16H12.6328C12.9245 15.9818 13.0885 15.8177 13.125 15.5078C13.125 15.4167 13.1068 15.3255 13.0703 15.2344L7.57422 5.82812C7.42839 5.60938 7.23698 5.5 7 5.5C6.76302 5.5 6.58073 5.60938 6.45312 5.82812L0.957031 15.2344ZM0.191406 14.7969L5.6875 5.39062C5.9974 4.89844 6.4349 4.64323 7 4.625C7.5651 4.64323 8.0026 4.89844 8.3125 5.39062L13.8086 14.7969C13.9362 15.0156 14 15.2526 14 15.5078C13.9818 15.8906 13.8451 16.2096 13.5898 16.4648C13.3346 16.7201 13.0156 16.8568 12.6328 16.875H1.36719C0.984375 16.8568 0.665365 16.7201 0.410156 16.4648C0.154948 16.2096 0.0182292 15.8906 0 15.5078C0 15.2526 0.0638021 15.0156 0.191406 14.7969ZM7 8.125C7.27344 8.14323 7.41927 8.28906 7.4375 8.5625V12.0625C7.41927 12.3359 7.27344 12.4818 7 12.5C6.72656 12.4818 6.58073 12.3359 6.5625 12.0625V8.5625C6.58073 8.28906 6.72656 8.14323 7 8.125ZM6.34375 14.25C6.38021 13.849 6.59896 13.6302 7 13.5938C7.40104 13.6302 7.61979 13.849 7.65625 14.25C7.61979 14.651 7.40104 14.8698 7 14.9062C6.59896 14.8698 6.38021 14.651 6.34375 14.25Z" fill="black" fill-opacity="0.72"/>
</g>
<defs>
<clipPath id="clip0_1731_2879">
<rect width="14" height="22" fill="white"/>
</clipPath>
</defs>
</svg>
