<svg width="13" height="22" viewBox="0 0 13 22" fill="none" xmlns="http://www.w3.org/2000/svg">
<g id="label-paired / sm / app-store-ios-sm" clip-path="url(#clip0_1731_13878)">
<path id="icon" d="M11.3125 4.625C11.6771 4.64323 11.987 4.77083 12.2422 5.00781C12.4792 5.26302 12.6068 5.57292 12.625 5.9375V15.5625C12.6068 15.9271 12.4792 16.237 12.2422 16.4922C11.987 16.7292 11.6771 16.8568 11.3125 16.875H1.6875C1.32292 16.8568 1.01302 16.7292 0.757812 16.4922C0.520833 16.237 0.393229 15.9271 0.375 15.5625V5.9375C0.393229 5.57292 0.520833 5.26302 0.757812 5.00781C1.01302 4.77083 1.32292 4.64323 1.6875 4.625H11.3125ZM3.84766 14.2773L4.36719 13.3477C4.09375 13.0013 3.73828 12.901 3.30078 13.0469L2.89062 13.7305C2.76302 14.0221 2.83594 14.2682 3.10938 14.4688C3.40104 14.5964 3.64714 14.5326 3.84766 14.2773ZM7.64844 12.8008C7.75781 12.5456 7.7487 12.2995 7.62109 12.0625C7.51172 11.8438 7.3112 11.7253 7.01953 11.707H5.32422L7.67578 7.63281C7.82161 7.32292 7.75781 7.07682 7.48438 6.89453C7.17448 6.7487 6.91927 6.8125 6.71875 7.08594L6.47266 7.49609L6.25391 7.08594C6.05339 6.8125 5.79818 6.7487 5.48828 6.89453C5.21484 7.07682 5.15104 7.32292 5.29688 7.63281L5.84375 8.58984L4.06641 11.707H2.67188C2.34375 11.7253 2.16146 11.9076 2.125 12.2539C2.16146 12.582 2.34375 12.7643 2.67188 12.8008H7.64844ZM10.3281 12.8008C10.6562 12.7643 10.8385 12.582 10.875 12.2539C10.8385 11.9076 10.6562 11.7253 10.3281 11.707H8.90625C8.32292 10.7044 7.85807 9.90234 7.51172 9.30078C7.4388 9.15495 7.36589 9.02734 7.29297 8.91797C7.11068 9.0638 6.98307 9.30078 6.91016 9.62891C6.81901 9.97526 6.88281 10.349 7.10156 10.75C7.35677 11.1875 7.67578 11.7435 8.05859 12.418C8.36849 12.9648 8.72396 13.5846 9.125 14.2773C9.32552 14.5326 9.57161 14.5964 9.86328 14.4688C10.1367 14.2682 10.2096 14.0221 10.082 13.7305L9.53516 12.8008H10.3281Z" fill="black" fill-opacity="0.72"/>
</g>
<defs>
<clipPath id="clip0_1731_13878">
<rect width="13" height="22" fill="white"/>
</clipPath>
</defs>
</svg>
