<svg width="21" height="36" viewBox="0 0 21 36" fill="none" xmlns="http://www.w3.org/2000/svg">
<g id="label-paired / xl / instagram-xl" clip-path="url(#clip0_1731_14135)">
<path id="icon" d="M10.5 12.6094C12.0312 12.6406 13.2969 13.1719 14.2969 14.2031C15.3281 15.2031 15.8594 16.4688 15.8906 18C15.8594 19.5312 15.3281 20.7969 14.2969 21.7969C13.2969 22.8281 12.0312 23.3594 10.5 23.3906C8.96875 23.3594 7.70312 22.8281 6.70312 21.7969C5.67188 20.7969 5.14062 19.5312 5.10938 18C5.14062 16.4688 5.67188 15.2031 6.70312 14.2031C7.70312 13.1719 8.96875 12.6406 10.5 12.6094ZM10.5 21.5156C11.5 21.4844 12.3281 21.1406 12.9844 20.4844C13.6406 19.8281 13.9844 19 14.0156 18C13.9844 17 13.6406 16.1719 12.9844 15.5156C12.3281 14.8594 11.5 14.5156 10.5 14.4844C9.5 14.5156 8.67188 14.8594 8.01562 15.5156C7.35938 16.1719 7.01562 17 6.98438 18C7.01562 19 7.35938 19.8281 8.01562 20.4844C8.67188 21.1406 9.5 21.4844 10.5 21.5156ZM17.3906 12.375C17.3594 12.0312 17.2344 11.7344 17.0156 11.4844C16.7656 11.2656 16.4688 11.1562 16.125 11.1562C15.75 11.1562 15.4531 11.2656 15.2344 11.4844C14.9844 11.7344 14.8594 12.0312 14.8594 12.375C14.9219 13.1562 15.3438 13.5781 16.125 13.6406C16.875 13.5781 17.2969 13.1562 17.3906 12.375ZM20.9531 13.6875V13.6406C20.9844 14.2656 21 15.1562 21 16.3125C21 17.4375 21 18.5625 21 19.6875C21 20.8125 20.9844 21.6875 20.9531 22.3125C20.9531 24.0312 20.375 25.5 19.2188 26.7188C18 27.875 16.5469 28.4375 14.8594 28.4062C14.2344 28.4375 13.3438 28.4688 12.1875 28.5C11.0625 28.5 9.9375 28.5 8.8125 28.5C7.65625 28.4688 6.78125 28.4375 6.1875 28.4062C4.46875 28.4375 3 27.875 1.78125 26.7188C0.625 25.5 0.0625 24.0312 0.09375 22.3125C0.03125 21.6875 0 20.8125 0 19.6875C0 18.5625 0 17.4375 0 16.3125C0 15.1562 0.03125 14.2656 0.09375 13.6406C0.0625 11.9531 0.625 10.5 1.78125 9.28125C3.03125 8.125 4.5 7.54688 6.1875 7.54688C6.78125 7.51562 7.65625 7.5 8.8125 7.5C9.9375 7.5 11.0625 7.5 12.1875 7.5C13.3438 7.5 14.2344 7.51562 14.8594 7.54688C16.5469 7.54688 18 8.125 19.2188 9.28125C20.375 10.5 20.9531 11.9688 20.9531 13.6875ZM18.7031 24.1875C18.9219 23.5625 19.0469 22.7188 19.0781 21.6562C19.1406 20.5938 19.1562 19.625 19.125 18.75C19.125 18.4688 19.125 18.2188 19.125 18C19.125 17.7812 19.125 17.5312 19.125 17.25C19.1562 16.375 19.1406 15.4062 19.0781 14.3438C19.0469 13.2812 18.9219 12.4375 18.7031 11.8125C18.2969 10.875 17.625 10.2031 16.6875 9.79688C16.0625 9.57812 15.2188 9.45312 14.1562 9.42188C13.0938 9.39062 12.125 9.375 11.25 9.375C10.9688 9.375 10.7188 9.375 10.5 9.375C10.2812 9.375 10.0312 9.375 9.75 9.375C8.875 9.34375 7.90625 9.35938 6.84375 9.42188C5.8125 9.45312 4.96875 9.57812 4.3125 9.79688C3.375 10.2031 2.70312 10.875 2.29688 11.8125C2.07812 12.4375 1.95312 13.2812 1.92188 14.3438C1.89062 15.4062 1.875 16.375 1.875 17.25C1.875 17.5312 1.875 17.7812 1.875 18C1.875 18.2188 1.875 18.4688 1.875 18.75C1.875 19.625 1.89062 20.5938 1.92188 21.6562C1.95312 22.6875 2.07812 23.5312 2.29688 24.1875C2.70312 25.125 3.375 25.7969 4.3125 26.2031C4.96875 26.4219 5.8125 26.5469 6.84375 26.5781C7.90625 26.6094 8.875 26.625 9.75 26.625C10.0312 26.625 10.2812 26.625 10.5 26.625C10.7188 26.625 10.9688 26.625 11.25 26.625C12.125 26.625 13.0938 26.6094 14.1562 26.5781C15.2188 26.5469 16.0625 26.4219 16.6875 26.2031C17.625 25.7969 18.2969 25.125 18.7031 24.1875Z" fill="black" fill-opacity="0.72"/>
</g>
<defs>
<clipPath id="clip0_1731_14135">
<rect width="21" height="36" fill="white"/>
</clipPath>
</defs>
</svg>
