<svg width="14" height="18" viewBox="0 0 14 18" fill="none" xmlns="http://www.w3.org/2000/svg">
<g id="label-paired / caption / file-circle-info-caption / regular" clip-path="url(#clip0_1731_1491)">
<path id="icon" d="M1.75 14.75H7.1875C7.42188 15.0312 7.6875 15.2734 7.98438 15.4766C7.90625 15.4922 7.82812 15.5 7.75 15.5H1.75C1.32812 15.4844 0.976562 15.3359 0.695312 15.0547C0.414062 14.7734 0.265625 14.4219 0.25 14V5C0.265625 4.57812 0.414062 4.22656 0.695312 3.94531C0.976562 3.66406 1.32812 3.51563 1.75 3.5H5.40625C5.71875 3.5 5.98438 3.60938 6.20312 3.82812L8.92188 6.54688C9.14062 6.76562 9.25 7.03125 9.25 7.34375V8.14062C8.98438 8.21875 8.73438 8.32031 8.5 8.44531V8H5.875C5.5625 7.98438 5.29688 7.875 5.07812 7.67188C4.875 7.45312 4.76562 7.1875 4.75 6.875V4.25H1.75C1.53125 4.25 1.35156 4.32031 1.21094 4.46094C1.07031 4.60156 1 4.78125 1 5V14C1 14.2188 1.07031 14.3984 1.21094 14.5391C1.35156 14.6797 1.53125 14.75 1.75 14.75ZM8.5 7.25C8.46875 7.1875 8.42969 7.13281 8.38281 7.08594L5.66406 4.36719C5.61719 4.32031 5.5625 4.28906 5.5 4.27344V6.875C5.51562 7.10938 5.64062 7.23438 5.875 7.25H8.5ZM13 12.125C13 11.6562 12.8828 11.2188 12.6484 10.8125C12.4141 10.4062 12.0938 10.0859 11.6875 9.85156C11.2812 9.61719 10.8438 9.5 10.375 9.5C9.90625 9.5 9.46875 9.61719 9.0625 9.85156C8.65625 10.0859 8.33594 10.4062 8.10156 10.8125C7.86719 11.2188 7.75 11.6562 7.75 12.125C7.75 12.5938 7.86719 13.0312 8.10156 13.4375C8.33594 13.8438 8.65625 14.1641 9.0625 14.3984C9.46875 14.6328 9.90625 14.75 10.375 14.75C10.8438 14.75 11.2812 14.6328 11.6875 14.3984C12.0938 14.1641 12.4141 13.8438 12.6484 13.4375C12.8828 13.0312 13 12.5938 13 12.125ZM7 12.125C7 11.5156 7.14844 10.9531 7.44531 10.4375C7.74219 9.92188 8.15625 9.50781 8.6875 9.19531C9.21875 8.89844 9.78125 8.75 10.375 8.75C10.9688 8.75 11.5312 8.89844 12.0625 9.19531C12.5938 9.50781 13.0078 9.92188 13.3047 10.4375C13.6016 10.9531 13.75 11.5156 13.75 12.125C13.75 12.7344 13.6016 13.2969 13.3047 13.8125C13.0078 14.3281 12.5938 14.7422 12.0625 15.0547C11.5312 15.3516 10.9688 15.5 10.375 15.5C9.78125 15.5 9.21875 15.3516 8.6875 15.0547C8.15625 14.7422 7.74219 14.3281 7.44531 13.8125C7.14844 13.2969 7 12.7344 7 12.125ZM10.375 11.375C10.0312 11.3438 9.84375 11.1562 9.8125 10.8125C9.84375 10.4688 10.0312 10.2812 10.375 10.25C10.7188 10.2812 10.9062 10.4688 10.9375 10.8125C10.9062 11.1562 10.7188 11.3438 10.375 11.375ZM9.625 13.625C9.64062 13.3906 9.76562 13.2656 10 13.25V12.5C9.76562 12.4844 9.64062 12.3594 9.625 12.125C9.64062 11.8906 9.76562 11.7656 10 11.75H10.375C10.6094 11.7656 10.7344 11.8906 10.75 12.125V13.25C10.9844 13.2656 11.1094 13.3906 11.125 13.625C11.1094 13.8594 10.9844 13.9844 10.75 14H10.375H10C9.76562 13.9844 9.64062 13.8594 9.625 13.625Z" fill="black" fill-opacity="0.72"/>
</g>
<defs>
<clipPath id="clip0_1731_1491">
<rect width="14" height="18" fill="white"/>
</clipPath>
</defs>
</svg>
