<svg width="15" height="36" viewBox="0 0 15 36" fill="none" xmlns="http://www.w3.org/2000/svg">
<g id="label-paired / xl / sort-xl / regular">
<path id="icon" d="M1.59375 14.4375C1.53125 14.5 1.5 14.5781 1.5 14.6719C1.53125 14.8594 1.64062 14.9688 1.82812 15H13.1719C13.3594 14.9688 13.4688 14.8594 13.5 14.6719C13.5 14.5781 13.4688 14.5 13.4062 14.4375L7.78125 9.09375C7.6875 9.03125 7.59375 9 7.5 9C7.40625 9 7.3125 9.03125 7.21875 9.09375L1.59375 14.4375ZM0.5625 13.3125L6.1875 8.01562C6.5625 7.67188 7 7.5 7.5 7.5C8 7.5 8.4375 7.67188 8.8125 8.01562L14.4375 13.3594C14.8125 13.7031 15 14.1406 15 14.6719C15 15.2031 14.8281 15.6406 14.4844 15.9844C14.1406 16.3281 13.7031 16.5 13.1719 16.5H1.82812C1.29688 16.5 0.859375 16.3281 0.515625 15.9844C0.171875 15.6406 0 15.2031 0 14.6719C0 14.1406 0.1875 13.6875 0.5625 13.3125ZM1.59375 21.5625L7.21875 26.9062C7.3125 26.9688 7.40625 27 7.5 27C7.59375 27 7.6875 26.9688 7.78125 26.9062L13.4062 21.5625C13.4688 21.5 13.5 21.4219 13.5 21.3281C13.4688 21.1406 13.3594 21.0312 13.1719 21H1.82812C1.64062 21.0312 1.53125 21.1406 1.5 21.3281C1.5 21.4219 1.53125 21.5 1.59375 21.5625ZM0.5625 22.6875C0.1875 22.3125 0 21.8594 0 21.3281C0 20.7969 0.171875 20.3594 0.515625 20.0156C0.859375 19.6719 1.29688 19.5 1.82812 19.5H13.1719C13.7031 19.5 14.1406 19.6719 14.4844 20.0156C14.8281 20.3594 15 20.7969 15 21.3281C15 21.8594 14.8125 22.3125 14.4375 22.6875L8.8125 27.9844C8.4375 28.3281 8 28.5 7.5 28.5C7 28.5 6.5625 28.3281 6.1875 27.9844L0.5625 22.6875Z" fill="black" fill-opacity="0.72"/>
</g>
</svg>
