<svg width="16" height="22" viewBox="0 0 16 22" fill="none" xmlns="http://www.w3.org/2000/svg">
<g id="label-paired / sm / rectangle-barcode-sm / bold" clip-path="url(#clip0_1731_2997)">
<path id="icon" d="M1.875 5.9375C1.60156 5.95573 1.45573 6.10156 1.4375 6.375V15.125C1.45573 15.3984 1.60156 15.5443 1.875 15.5625H14.125C14.3984 15.5443 14.5443 15.3984 14.5625 15.125V6.375C14.5443 6.10156 14.3984 5.95573 14.125 5.9375H1.875ZM0.125 6.375C0.143229 5.88281 0.316406 5.47266 0.644531 5.14453C0.972656 4.81641 1.38281 4.64323 1.875 4.625H14.125C14.6172 4.64323 15.0273 4.81641 15.3555 5.14453C15.6836 5.47266 15.8568 5.88281 15.875 6.375V15.125C15.8568 15.6172 15.6836 16.0273 15.3555 16.3555C15.0273 16.6836 14.6172 16.8568 14.125 16.875H1.875C1.38281 16.8568 0.972656 16.6836 0.644531 16.3555C0.316406 16.0273 0.143229 15.6172 0.125 15.125V6.375ZM3.40625 7.25C3.80729 7.28646 4.02604 7.50521 4.0625 7.90625V13.5938C4.02604 13.9948 3.80729 14.2135 3.40625 14.25C3.00521 14.2135 2.78646 13.9948 2.75 13.5938V7.90625C2.78646 7.50521 3.00521 7.28646 3.40625 7.25ZM5.375 7.25C5.64844 7.26823 5.79427 7.41406 5.8125 7.6875V13.8125C5.79427 14.0859 5.64844 14.2318 5.375 14.25C5.10156 14.2318 4.95573 14.0859 4.9375 13.8125V7.6875C4.95573 7.41406 5.10156 7.26823 5.375 7.25ZM6.6875 7.90625C6.72396 7.50521 6.94271 7.28646 7.34375 7.25C7.74479 7.28646 7.96354 7.50521 8 7.90625V13.5938C7.96354 13.9948 7.74479 14.2135 7.34375 14.25C6.94271 14.2135 6.72396 13.9948 6.6875 13.5938V7.90625ZM10.4062 7.25C10.8073 7.28646 11.026 7.50521 11.0625 7.90625V13.5938C11.026 13.9948 10.8073 14.2135 10.4062 14.25C10.0052 14.2135 9.78646 13.9948 9.75 13.5938V7.90625C9.78646 7.50521 10.0052 7.28646 10.4062 7.25ZM12.375 7.6875C12.3932 7.41406 12.5391 7.26823 12.8125 7.25C13.0859 7.26823 13.2318 7.41406 13.25 7.6875V13.8125C13.2318 14.0859 13.0859 14.2318 12.8125 14.25C12.5391 14.2318 12.3932 14.0859 12.375 13.8125V7.6875Z" fill="black" fill-opacity="0.72"/>
</g>
<defs>
<clipPath id="clip0_1731_2997">
<rect width="16" height="22" fill="white"/>
</clipPath>
</defs>
</svg>
