<svg width="24" height="36" viewBox="0 0 24 36" fill="none" xmlns="http://www.w3.org/2000/svg">
<g id="label-paired / xl / circle-sterling-xl / regular" clip-path="url(#clip0_1731_6748)">
<path id="icon" d="M22.5 18C22.4688 16.0938 22 14.3438 21.0938 12.75C20.1562 11.1562 18.875 9.875 17.25 8.90625C15.5938 7.96875 13.8438 7.5 12 7.5C10.1562 7.5 8.40625 7.96875 6.75 8.90625C5.125 9.875 3.84375 11.1562 2.90625 12.75C2 14.3438 1.53125 16.0938 1.5 18C1.53125 19.9062 2 21.6562 2.90625 23.25C3.84375 24.8438 5.125 26.125 6.75 27.0938C8.40625 28.0312 10.1562 28.5 12 28.5C13.8438 28.5 15.5938 28.0312 17.25 27.0938C18.875 26.125 20.1562 24.8438 21.0938 23.25C22 21.6562 22.4688 19.9062 22.5 18ZM0 18C0.03125 15.8125 0.5625 13.8125 1.59375 12C2.65625 10.1875 4.125 8.71875 6 7.59375C7.90625 6.53125 9.90625 6 12 6C14.0938 6 16.0938 6.53125 18 7.59375C19.875 8.71875 21.3438 10.1875 22.4062 12C23.4375 13.8125 23.9688 15.8125 24 18C23.9688 20.1875 23.4375 22.1875 22.4062 24C21.3438 25.8125 19.875 27.2812 18 28.4062C16.0938 29.4688 14.0938 30 12 30C9.90625 30 7.90625 29.4688 6 28.4062C4.125 27.2812 2.65625 25.8125 1.59375 24C0.5625 22.1875 0.03125 20.1875 0 18ZM12.1875 12.75C11.6875 12.75 11.2812 12.9219 10.9688 13.2656C10.6562 13.5781 10.4844 13.9844 10.4531 14.4844L10.5 16.5H12.75C13.2188 16.5312 13.4688 16.7812 13.5 17.25C13.4688 17.7188 13.2188 17.9688 12.75 18H10.5C10.4375 19.0625 10.1562 20.0625 9.65625 21H15.375C15.8438 21.0312 16.0938 21.2812 16.125 21.75C16.0938 22.2188 15.8438 22.4688 15.375 22.5H8.25C7.96875 22.5 7.75 22.375 7.59375 22.125C7.46875 21.8438 7.48438 21.5781 7.64062 21.3281L8.0625 20.7188C8.625 19.875 8.9375 18.9688 9 18H8.25C7.78125 17.9688 7.53125 17.7188 7.5 17.25C7.53125 16.7812 7.78125 16.5312 8.25 16.5H9L8.95312 14.4844C8.98438 13.5781 9.29688 12.8125 9.89062 12.1875C10.4844 11.5938 11.25 11.2812 12.1875 11.25C12.6875 11.25 13.1562 11.3594 13.5938 11.5781L14.5781 12.0938C14.9844 12.3438 15.0938 12.6719 14.9062 13.0781C14.6875 13.4844 14.3594 13.5938 13.9219 13.4062L12.9375 12.9375C12.6875 12.8125 12.4375 12.75 12.1875 12.75Z" fill="black" fill-opacity="0.72"/>
</g>
<defs>
<clipPath id="clip0_1731_6748">
<rect width="24" height="36" fill="white"/>
</clipPath>
</defs>
</svg>
