<svg width="14" height="24" viewBox="0 0 14 24" fill="none" xmlns="http://www.w3.org/2000/svg">
<g id="label-paired / md / bars-filter-md / regular" clip-path="url(#clip0_1731_3667)">
<path id="icon" d="M0 6.5C0.0208333 6.1875 0.1875 6.02083 0.5 6H13.5C13.8125 6.02083 13.9792 6.1875 14 6.5C13.9792 6.8125 13.8125 6.97917 13.5 7H0.5C0.1875 6.97917 0.0208333 6.8125 0 6.5ZM2 11.5C2.02083 11.1875 2.1875 11.0208 2.5 11H11.5C11.8125 11.0208 11.9792 11.1875 12 11.5C11.9792 11.8125 11.8125 11.9792 11.5 12H2.5C2.1875 11.9792 2.02083 11.8125 2 11.5ZM9 16.5C8.97917 16.8125 8.8125 16.9792 8.5 17H5.5C5.1875 16.9792 5.02083 16.8125 5 16.5C5.02083 16.1875 5.1875 16.0208 5.5 16H8.5C8.8125 16.0208 8.97917 16.1875 9 16.5Z" fill="black" fill-opacity="0.72"/>
</g>
<defs>
<clipPath id="clip0_1731_3667">
<rect width="14" height="24" fill="white"/>
</clipPath>
</defs>
</svg>
