<svg width="24" height="36" viewBox="0 0 24 36" fill="none" xmlns="http://www.w3.org/2000/svg">
<g id="label-paired / xl / circle-arrow-right-xl / regular" clip-path="url(#clip0_1731_5966)">
<path id="icon" d="M22.5 18C22.4688 16.0938 22 14.3438 21.0938 12.75C20.1562 11.1562 18.875 9.875 17.25 8.90625C15.5938 7.96875 13.8438 7.5 12 7.5C10.1562 7.5 8.40625 7.96875 6.75 8.90625C5.125 9.875 3.84375 11.1562 2.90625 12.75C2 14.3438 1.53125 16.0938 1.5 18C1.53125 19.9062 2 21.6562 2.90625 23.25C3.84375 24.8438 5.125 26.125 6.75 27.0938C8.40625 28.0312 10.1562 28.5 12 28.5C13.8438 28.5 15.5938 28.0312 17.25 27.0938C18.875 26.125 20.1562 24.8438 21.0938 23.25C22 21.6562 22.4688 19.9062 22.5 18ZM0 18C0.03125 15.8125 0.5625 13.8125 1.59375 12C2.65625 10.1875 4.125 8.71875 6 7.59375C7.90625 6.53125 9.90625 6 12 6C14.0938 6 16.0938 6.53125 18 7.59375C19.875 8.71875 21.3438 10.1875 22.4062 12C23.4375 13.8125 23.9688 15.8125 24 18C23.9688 20.1875 23.4375 22.1875 22.4062 24C21.3438 25.8125 19.875 27.2812 18 28.4062C16.0938 29.4688 14.0938 30 12 30C9.90625 30 7.90625 29.4688 6 28.4062C4.125 27.2812 2.65625 25.8125 1.59375 24C0.5625 22.1875 0.03125 20.1875 0 18ZM13.2656 23.0156C12.9219 23.3281 12.5781 23.3281 12.2344 23.0156C11.9219 22.6719 11.9219 22.3281 12.2344 21.9844L15.4219 18.75H6.75C6.28125 18.7188 6.03125 18.4688 6 18C6.03125 17.5312 6.28125 17.2812 6.75 17.25H15.4219L12.2344 14.0156C11.9219 13.6719 11.9219 13.3281 12.2344 12.9844C12.5781 12.6719 12.9219 12.6719 13.2656 12.9844L17.7656 17.4844C18.0781 17.8281 18.0781 18.1719 17.7656 18.5156L13.2656 23.0156Z" fill="black" fill-opacity="0.72"/>
</g>
<defs>
<clipPath id="clip0_1731_5966">
<rect width="24" height="36" fill="white"/>
</clipPath>
</defs>
</svg>
