<svg width="15" height="36" viewBox="0 0 15 36" fill="none" xmlns="http://www.w3.org/2000/svg">
<g id="label-paired / xl / six-xl / bold" clip-path="url(#clip0_1731_6053)">
<path id="icon" d="M12.75 21C12.7188 19.5 12.2031 18.2656 11.2031 17.2969C10.2344 16.2969 9 15.7812 7.5 15.75C5.9375 15.7812 4.65625 16.3438 3.65625 17.4375L3.42188 17.7188C2.64062 18.6875 2.25 19.7812 2.25 21C2.28125 22.5 2.79688 23.7344 3.79688 24.7031C4.76562 25.7031 6 26.2188 7.5 26.25C9 26.2188 10.2344 25.7031 11.2031 24.7031C12.2031 23.7344 12.7188 22.5 12.75 21ZM6.84375 13.5469C7.0625 13.5156 7.28125 13.5 7.5 13.5C9.625 13.5625 11.3906 14.2969 12.7969 15.7031C14.2031 17.1094 14.9375 18.875 15 21C14.9375 23.125 14.2031 24.8906 12.7969 26.2969C11.3906 27.7031 9.625 28.4375 7.5 28.5C5.375 28.4375 3.60938 27.7031 2.20312 26.2969C0.796875 24.8906 0.0625 23.125 0 21C0.03125 19 0.6875 17.3125 1.96875 15.9375L8.48438 7.92188C8.98438 7.42187 9.51562 7.35938 10.0781 7.73438C10.5781 8.23438 10.6406 8.76562 10.2656 9.32812L6.84375 13.5469Z" fill="black" fill-opacity="0.72"/>
</g>
<defs>
<clipPath id="clip0_1731_6053">
<rect width="15" height="36" fill="white"/>
</clipPath>
</defs>
</svg>
