<svg width="25" height="30" viewBox="0 0 25 30" fill="none" xmlns="http://www.w3.org/2000/svg">
<g id="label-paired / lg / stop-loss-lg / regular" clip-path="url(#clip0_1731_5499)">
<path id="icon" d="M8.51562 20.9297C7.61719 20.9297 6.875 20.7734 6.25 20.4609C5.625 20.1484 5.11719 19.7188 4.6875 19.1719L5.85938 18.0781C6.21094 18.5078 6.64062 18.8594 7.07031 19.0938C7.5 19.3281 8.00781 19.4453 8.59375 19.4453C9.25781 19.4453 9.76562 19.2891 10.1172 18.9766C10.4688 18.6641 10.625 18.2734 10.625 17.7656C10.625 17.375 10.5078 17.0234 10.2734 16.7891C10.0391 16.5547 9.60938 16.3594 8.98438 16.2422L8.04688 16.0859C7.03125 15.8906 6.28906 15.5781 5.78125 15.0703C5.23438 14.6016 5 13.9375 5 13.1172C5 12.6484 5.07812 12.2188 5.23438 11.8672C5.42969 11.4766 5.66406 11.1641 5.97656 10.9297C6.28906 10.6562 6.67969 10.4609 7.14844 10.3047C7.57812 10.1875 8.08594 10.1094 8.67188 10.1094C9.45312 10.1094 10.1172 10.2266 10.7031 10.5391C11.2891 10.7734 11.7969 11.2031 12.1875 11.7109L11.0156 12.7656C10.7422 12.4141 10.4297 12.1406 10.0391 11.9062C9.64844 11.7109 9.14062 11.5938 8.55469 11.5938C7.96875 11.5938 7.5 11.7109 7.1875 11.9453C6.83594 12.1797 6.67969 12.5312 6.67969 13C6.67969 13.4688 6.83594 13.7812 7.07031 14.0156C7.34375 14.2109 7.77344 14.3672 8.35938 14.4844L9.29688 14.6797C10.3125 14.875 11.0938 15.2266 11.5625 15.6953C12.0703 16.1641 12.3047 16.8281 12.3047 17.6875C12.3047 18.1562 12.2266 18.625 12.0703 19.0156C11.875 19.4062 11.6406 19.7578 11.2891 20.0312C10.9766 20.3438 10.5859 20.5391 10.1172 20.6953C9.64844 20.8516 9.10156 20.9297 8.51562 20.9297ZM14.3359 20.7344V10.2656H16.0156V19.25H20.2734V20.7344H14.3359Z" fill="black" fill-opacity="0.72"/>
</g>
<defs>
<clipPath id="clip0_1731_5499">
<rect width="25" height="30" fill="white"/>
</clipPath>
</defs>
</svg>
