<svg width="14" height="24" viewBox="0 0 14 24" fill="none" xmlns="http://www.w3.org/2000/svg">
<g id="label-paired / md / stopwatch-md / bold" clip-path="url(#clip0_1731_3217)">
<path id="icon" d="M4.5 4.75C4.54167 4.29167 4.79167 4.04167 5.25 4H8.75C9.20833 4.04167 9.45833 4.29167 9.5 4.75C9.45833 5.20833 9.20833 5.45833 8.75 5.5H7.75V7.03125C9.125 7.21875 10.3125 7.75 11.3125 8.625L12.2188 7.71875C12.5729 7.42708 12.9271 7.42708 13.2812 7.71875C13.5729 8.07292 13.5729 8.42708 13.2812 8.78125L12.3125 9.75C13.0833 10.8333 13.4792 12.0833 13.5 13.5C13.4583 15.3333 12.8229 16.8646 11.5938 18.0938C10.3646 19.3229 8.83333 19.9583 7 20C5.16667 19.9583 3.63542 19.3229 2.40625 18.0938C1.17708 16.8646 0.541667 15.3333 0.5 13.5C0.541667 11.7917 1.09375 10.3438 2.15625 9.15625C3.23958 7.96875 4.60417 7.26042 6.25 7.03125V5.5H5.25C4.79167 5.45833 4.54167 5.20833 4.5 4.75ZM7 18.5C7.89583 18.5 8.72917 18.2812 9.5 17.8438C10.2708 17.3854 10.8854 16.7708 11.3438 16C11.7812 15.2083 12 14.375 12 13.5C12 12.625 11.7812 11.7917 11.3438 11C10.8854 10.2292 10.2708 9.61458 9.5 9.15625C8.72917 8.71875 7.89583 8.5 7 8.5C6.10417 8.5 5.27083 8.71875 4.5 9.15625C3.72917 9.61458 3.11458 10.2292 2.65625 11C2.21875 11.7917 2 12.625 2 13.5C2 14.375 2.21875 15.2083 2.65625 16C3.11458 16.7708 3.72917 17.3854 4.5 17.8438C5.27083 18.2812 6.10417 18.5 7 18.5ZM7.75 10.75V14C7.70833 14.4583 7.45833 14.7083 7 14.75C6.54167 14.7083 6.29167 14.4583 6.25 14V10.75C6.29167 10.2917 6.54167 10.0417 7 10C7.45833 10.0417 7.70833 10.2917 7.75 10.75Z" fill="black" fill-opacity="0.72"/>
</g>
<defs>
<clipPath id="clip0_1731_3217">
<rect width="14" height="24" fill="white"/>
</clipPath>
</defs>
</svg>
