<svg width="14" height="24" viewBox="0 0 14 24" fill="none" xmlns="http://www.w3.org/2000/svg">
<g id="label-paired / md / flag-checkered-md / bold" clip-path="url(#clip0_1731_3943)">
<path id="icon" d="M0.75 4C1.20833 4.04167 1.45833 4.29167 1.5 4.75V5.625L4.15625 4.96875C5.38542 4.67708 6.57292 4.80208 7.71875 5.34375C8.44792 5.71875 9.20833 5.90625 10 5.90625C10.7917 5.90625 11.5625 5.71875 12.3125 5.34375L12.5938 5.21875C12.9479 5.05208 13.2604 5.0625 13.5312 5.25C13.8229 5.41667 13.9792 5.6875 14 6.0625V14.8125C13.9792 15.25 13.7604 15.5625 13.3438 15.75L12.2812 16.1562C10.7604 16.6979 9.28125 16.6146 7.84375 15.9062C6.61458 15.3229 5.33333 15.1875 4 15.5L1.5 16.125V19.25C1.45833 19.7083 1.20833 19.9583 0.75 20C0.291667 19.9583 0.0416667 19.7083 0 19.25V16.5V14.9688V6V4.75C0.0416667 4.29167 0.291667 4.04167 0.75 4ZM1.5 8.71875L4 8.15625V6.5625L1.5 7.1875V8.71875ZM1.5 10.25V11.7188L4 11.1562V9.71875L1.5 10.25ZM1.5 13.25V14.5938L3.65625 14.0312C3.76042 14.0104 3.875 13.9896 4 13.9688V12.7188L1.5 13.25ZM5.5 13.8438C6.54167 13.8646 7.54167 14.1042 8.5 14.5625V13.0312L6.78125 12.5C6.36458 12.375 5.9375 12.3438 5.5 12.4062V13.8438ZM10 15C10.5833 15.0417 11.1667 14.9583 11.75 14.75L12.5 14.4688V13L11.6875 13.1875C11.125 13.3125 10.5625 13.3542 10 13.3125V15ZM12.5 11.4688V10L11.6875 10.1875C11.125 10.3125 10.5625 10.3542 10 10.3125V11.8125C10.4583 11.8542 10.9167 11.8229 11.375 11.7188L12.5 11.4688ZM12.5 8.46875V6.90625C11.6875 7.23958 10.8542 7.40625 10 7.40625V8.8125C10.4583 8.85417 10.9167 8.82292 11.375 8.71875L12.5 8.46875ZM8.5 7.21875C8 7.11458 7.51042 6.9375 7.03125 6.6875C6.55208 6.45833 6.04167 6.33333 5.5 6.3125V7.875C6.08333 7.85417 6.64583 7.91667 7.1875 8.0625L8.5 8.46875V7.21875ZM8.5 10.0312L6.78125 9.5C6.36458 9.375 5.9375 9.34375 5.5 9.40625V10.9062C6.08333 10.8646 6.64583 10.9167 7.1875 11.0625L8.5 11.4688V10.0312Z" fill="black" fill-opacity="0.72"/>
</g>
<defs>
<clipPath id="clip0_1731_3943">
<rect width="14" height="24" fill="white"/>
</clipPath>
</defs>
</svg>
