<svg width="14" height="22" viewBox="0 0 14 22" fill="none" xmlns="http://www.w3.org/2000/svg">
<g id="label-paired / sm / circle-four-sm / regular" clip-path="url(#clip0_1731_2318)">
<path id="icon" d="M13.125 10.75C13.1068 9.63802 12.8333 8.61719 12.3047 7.6875C11.7578 6.75781 11.0104 6.01042 10.0625 5.44531C9.09635 4.89844 8.07552 4.625 7 4.625C5.92448 4.625 4.90365 4.89844 3.9375 5.44531C2.98958 6.01042 2.24219 6.75781 1.69531 7.6875C1.16667 8.61719 0.893229 9.63802 0.875 10.75C0.893229 11.862 1.16667 12.8828 1.69531 13.8125C2.24219 14.7422 2.98958 15.4896 3.9375 16.0547C4.90365 16.6016 5.92448 16.875 7 16.875C8.07552 16.875 9.09635 16.6016 10.0625 16.0547C11.0104 15.4896 11.7578 14.7422 12.3047 13.8125C12.8333 12.8828 13.1068 11.862 13.125 10.75ZM0 10.75C0.0182292 9.47396 0.328125 8.30729 0.929688 7.25C1.54948 6.19271 2.40625 5.33594 3.5 4.67969C4.61198 4.0599 5.77865 3.75 7 3.75C8.22135 3.75 9.38802 4.0599 10.5 4.67969C11.5938 5.33594 12.4505 6.19271 13.0703 7.25C13.6719 8.30729 13.9818 9.47396 14 10.75C13.9818 12.026 13.6719 13.1927 13.0703 14.25C12.4505 15.3073 11.5938 16.1641 10.5 16.8203C9.38802 17.4401 8.22135 17.75 7 17.75C5.77865 17.75 4.61198 17.4401 3.5 16.8203C2.40625 16.1641 1.54948 15.3073 0.929688 14.25C0.328125 13.1927 0.0182292 12.026 0 10.75ZM6.28906 7.27734C6.52604 7.40495 6.60807 7.59635 6.53516 7.85156L5.03125 11.625H7.875V9.4375C7.89323 9.16406 8.03906 9.01823 8.3125 9C8.58594 9.01823 8.73177 9.16406 8.75 9.4375V11.625H9.1875C9.46094 11.6432 9.60677 11.7891 9.625 12.0625C9.60677 12.3359 9.46094 12.4818 9.1875 12.5H8.75V13.8125C8.73177 14.0859 8.58594 14.2318 8.3125 14.25C8.03906 14.2318 7.89323 14.0859 7.875 13.8125V12.5H4.375C4.22917 12.5 4.11068 12.4362 4.01953 12.3086C3.92839 12.181 3.91016 12.0443 3.96484 11.8984L5.71484 7.52344C5.84245 7.28646 6.03385 7.20443 6.28906 7.27734Z" fill="black" fill-opacity="0.72"/>
</g>
<defs>
<clipPath id="clip0_1731_2318">
<rect width="14" height="22" fill="white"/>
</clipPath>
</defs>
</svg>
