<svg width="16" height="22" viewBox="0 0 16 22" fill="none" xmlns="http://www.w3.org/2000/svg">
<g id="label-paired / sm / pen-line-sm / bold" clip-path="url(#clip0_1731_2736)">
<path id="icon" d="M0.480469 15.7539L1.10938 13.6211C1.23698 13.2201 1.44661 12.8828 1.73828 12.6094L10.0508 4.26953C10.3971 3.94141 10.8073 3.77734 11.2812 3.77734C11.737 3.77734 12.1471 3.94141 12.5117 4.26953L13.6055 5.36328C13.6784 5.4362 13.7513 5.52734 13.8242 5.63672C14.043 5.98307 14.1341 6.35677 14.0977 6.75781C14.0612 7.15885 13.8971 7.51432 13.6055 7.82422L5.29297 16.1367C5.25651 16.1732 5.22005 16.2096 5.18359 16.2461C4.91016 16.4831 4.60026 16.6562 4.25391 16.7656L2.12109 17.3945L0.972656 17.7227C0.717448 17.7956 0.498698 17.7409 0.316406 17.5586C0.152344 17.3763 0.0976562 17.1576 0.152344 16.9023L0.480469 15.7539ZM2.20312 14.6328L1.73828 16.1367L3.24219 15.6992L3.89844 15.5078C4.0625 15.4531 4.21745 15.362 4.36328 15.2344L10.5977 8.97266L8.90234 7.27734L2.66797 13.5117C2.64974 13.5299 2.63151 13.5482 2.61328 13.5664C2.50391 13.694 2.42188 13.8307 2.36719 13.9766L2.20312 14.6328ZM6.90625 16.4375H15.2188C15.6198 16.474 15.8385 16.6927 15.875 17.0938C15.8385 17.4948 15.6198 17.7135 15.2188 17.75H6.90625C6.50521 17.7135 6.28646 17.4948 6.25 17.0938C6.28646 16.6927 6.50521 16.474 6.90625 16.4375Z" fill="black" fill-opacity="0.72"/>
</g>
<defs>
<clipPath id="clip0_1731_2736">
<rect width="16" height="22" fill="white"/>
</clipPath>
</defs>
</svg>
