<svg width="10" height="24" viewBox="0 0 10 24" fill="none" xmlns="http://www.w3.org/2000/svg">
<g id="label-paired / md / backward-step-md / fill" clip-path="url(#clip0_1731_4077)">
<path id="icon" d="M8.375 17.7812L2.375 12.7812L2 12.4688V17C2 17.2917 1.90625 17.5312 1.71875 17.7188C1.53125 17.9062 1.29167 18 1 18C0.708333 18 0.46875 17.9062 0.28125 17.7188C0.09375 17.5312 0 17.2917 0 17V7C0 6.70833 0.09375 6.46875 0.28125 6.28125C0.46875 6.09375 0.708333 6 1 6C1.29167 6 1.53125 6.09375 1.71875 6.28125C1.90625 6.46875 2 6.70833 2 7V11.5312L2.375 11.2188L8.375 6.21875C8.6875 5.96875 9.04167 5.92708 9.4375 6.09375C9.79167 6.28125 9.97917 6.58333 10 7V17C9.97917 17.4167 9.79167 17.7188 9.4375 17.9062C9.04167 18.0729 8.6875 18.0312 8.375 17.7812Z" fill="black" fill-opacity="0.72"/>
</g>
<defs>
<clipPath id="clip0_1731_4077">
<rect width="10" height="24" fill="white"/>
</clipPath>
</defs>
</svg>
