<svg width="24" height="36" viewBox="0 0 24 36" fill="none" xmlns="http://www.w3.org/2000/svg">
<g id="label-paired / xl / forward-xl / bold" clip-path="url(#clip0_1731_6570)">
<path id="icon" d="M10.5 10.4062C10.5 10 10.6406 9.67188 10.9219 9.42188C11.1719 9.14062 11.5 9 11.9062 9C12.2188 9 12.5 9.09375 12.75 9.28125L23.5312 17.1094C23.8438 17.3281 24 17.625 24 18C24 18.375 23.8438 18.6719 23.5312 18.8906L12.75 26.7188C12.5 26.9062 12.2188 27 11.9062 27C11.5 27 11.1719 26.8594 10.9219 26.5781C10.6406 26.3281 10.5 26 10.5 25.5938V20.9531L2.20312 26.7656C1.95312 26.9219 1.6875 27 1.40625 27C1 27 0.671875 26.8594 0.421875 26.5781C0.140625 26.3281 0 26 0 25.5938V10.4062C0 10 0.140625 9.67188 0.421875 9.42188C0.671875 9.14062 1 9 1.40625 9C1.71875 9 1.98438 9.07812 2.20312 9.23438L10.5 15.0469V10.4062ZM10.5 17.8125L2.25 12.0469V24L10.5 18.1875V17.8125ZM20.9531 18L12.75 12.0469V23.9531L20.9531 18Z" fill="black" fill-opacity="0.72"/>
</g>
<defs>
<clipPath id="clip0_1731_6570">
<rect width="24" height="36" fill="white"/>
</clipPath>
</defs>
</svg>
