<svg width="20" height="24" viewBox="0 0 20 24" fill="none" xmlns="http://www.w3.org/2000/svg">
<g id="label-paired / md / eye-slash-md / regular" clip-path="url(#clip0_1731_3145)">
<path id="icon" d="M0.8125 4.09375L19.8125 19.125C20.0417 19.3333 20.0729 19.5625 19.9062 19.8125C19.6771 20.0417 19.4375 20.0729 19.1875 19.9062L0.1875 4.90625C-0.0416667 4.67708 -0.0729167 4.4375 0.09375 4.1875C0.322917 3.97917 0.5625 3.94792 0.8125 4.09375ZM18.9375 12.375C18.6042 13.1875 18.0417 14.1146 17.25 15.1562L16.4688 14.5625C17.1979 13.5833 17.7083 12.7292 18 12C17.7917 11.4792 17.4688 10.8854 17.0312 10.2188C16.5729 9.55208 16.0104 8.89583 15.3438 8.25C14.6562 7.60417 13.875 7.07292 13 6.65625C12.1042 6.23958 11.1042 6.02083 10 6C8.75 6.02083 7.63542 6.29167 6.65625 6.8125L5.8125 6.15625C7 5.42708 8.39583 5.04167 10 5C11.2708 5.02083 12.4062 5.27083 13.4062 5.75C14.4062 6.22917 15.2812 6.82292 16.0312 7.53125C16.7604 8.21875 17.3646 8.92708 17.8438 9.65625C18.3229 10.3854 18.6875 11.0417 18.9375 11.625C19.0208 11.875 19.0208 12.125 18.9375 12.375ZM2.75 8.84375L3.5625 9.46875C2.8125 10.4271 2.29167 11.2708 2 12C2.20833 12.5208 2.53125 13.1146 2.96875 13.7812C3.42708 14.4479 3.98958 15.1042 4.65625 15.75C5.34375 16.3958 6.125 16.9271 7 17.3438C7.89583 17.7604 8.89583 17.9792 10 18C11.25 17.9792 12.3646 17.7083 13.3438 17.1875L14.1875 17.8438C13 18.5729 11.6042 18.9583 10 19C8.72917 18.9792 7.59375 18.7292 6.59375 18.25C5.59375 17.7708 4.72917 17.1771 4 16.4688C3.25 15.7812 2.63542 15.0729 2.15625 14.3438C1.67708 13.6146 1.32292 12.9583 1.09375 12.375C0.989583 12.125 0.989583 11.875 1.09375 11.625C1.40625 10.8125 1.95833 9.88542 2.75 8.84375ZM10 16C8.875 15.9792 7.92708 15.5833 7.15625 14.8125C6.40625 14.0625 6.02083 13.125 6 12C6 11.7917 6.01042 11.5938 6.03125 11.4062L7 12.1875C7.0625 12.9792 7.375 13.6458 7.9375 14.1875C8.5 14.7083 9.1875 14.9792 10 15C10.1667 15 10.3438 14.9896 10.5312 14.9688L11.4688 15.7188C11.0104 15.9062 10.5208 16 10 16ZM14 12C14 12.2083 13.9896 12.4062 13.9688 12.5938L13 11.8125C12.9375 11.0208 12.625 10.3542 12.0625 9.8125C11.5 9.29167 10.8125 9.02083 10 9C9.83333 9 9.66667 9.02083 9.5 9.0625L8.53125 8.28125C8.98958 8.09375 9.47917 8 10 8C11.125 8.02083 12.0729 8.40625 12.8438 9.15625C13.5938 9.92708 13.9792 10.875 14 12Z" fill="black" fill-opacity="0.72"/>
</g>
<defs>
<clipPath id="clip0_1731_3145">
<rect width="20" height="24" fill="white"/>
</clipPath>
</defs>
</svg>
