<svg width="25" height="30" viewBox="0 0 25 30" fill="none" xmlns="http://www.w3.org/2000/svg">
<g id="label-paired / lg / fiat-onramp-lg / regular" clip-path="url(#clip0_1731_5150)">
<path id="icon" d="M17.5 6.75C16.1328 6.78906 14.8828 7.49219 14.2188 8.66406C13.5547 9.79688 13.5547 11.2422 14.2188 12.4141C14.9219 13.5469 16.1328 14.2891 17.5 14.2891C18.8281 14.2891 20.0781 13.5469 20.7422 12.4141C21.4062 11.2422 21.4062 9.79688 20.7422 8.625C20.0781 7.49219 18.8281 6.75 17.5 6.75ZM21.25 13.8203C20.3125 14.875 18.9844 15.5 17.5 15.5C15.7031 15.5 14.1016 14.5625 13.2422 13.1562L10.1172 16.2812C11.5234 17.1406 12.5 18.7031 12.5 20.5C12.5 22.0234 11.8359 23.3516 10.7812 24.25H19.375C20.3906 24.25 21.25 23.4297 21.25 22.375V13.8203ZM7.5 24.25C9.57031 24.25 11.25 22.5703 11.25 20.5C11.25 18.9375 10.2734 17.5703 8.86719 17.0234H8.82812C8.4375 16.8672 7.96875 16.75 7.5 16.75C5.42969 16.75 3.75 18.4297 3.75 20.5C3.75 22.5703 5.42969 24.25 7.5 24.25ZM8.90625 15.7344L12.6953 11.9453C12.5391 11.4766 12.5 11.0078 12.5 10.5C12.5 7.76562 14.7266 5.5 17.5 5.5C20.2344 5.5 22.5 7.76562 22.5 10.5V22.375C22.5 24.1328 21.0938 25.5 19.375 25.5H7.5C4.72656 25.5 2.5 23.2734 2.5 20.5C2.5 17.7656 4.72656 15.5 7.5 15.5C7.96875 15.5 8.4375 15.5781 8.90625 15.7344ZM6.25 9.875C6.25 9.5625 6.52344 9.25 6.875 9.25H10.625C10.8594 9.25 11.0938 9.40625 11.1719 9.64062C11.2891 9.875 11.2109 10.1484 11.0547 10.3438L7.30469 14.0938C7.07031 14.3281 6.64062 14.3281 6.40625 14.0938C6.17188 13.8594 6.17188 13.4297 6.40625 13.1953L9.10156 10.5H6.875C6.52344 10.5 6.25 10.2266 6.25 9.875ZM8.00781 17.375V17.8438C8.67188 18.0391 9.10156 18.6641 9.10156 19.3672V19.5234H8.08594V19.3672C8.08594 19.0547 7.8125 18.7812 7.46094 18.7812C7.14844 18.7812 6.875 19.0547 6.875 19.3672C6.875 19.7188 7.14844 19.9922 7.46094 19.9922C8.35938 19.9922 9.10156 20.7344 9.10156 21.6328C9.10156 22.3359 8.67188 22.9609 8.00781 23.1562V23.625H6.95312V23.1562C6.28906 22.9609 5.85938 22.3359 5.85938 21.6328V21.4766H6.875V21.6328C6.875 21.9453 7.14844 22.2188 7.46094 22.2188C7.8125 22.2188 8.08594 21.9453 8.08594 21.6328C8.08594 21.2812 7.8125 21.0078 7.46094 21.0078C6.5625 21.0078 5.85938 20.2656 5.85938 19.3672C5.85938 18.6641 6.28906 18.0391 6.95312 17.8438V17.375H8.00781ZM16.875 7.57031V8.42969H17.6953V7.57031H18.5156V8.42969C18.8281 8.42969 19.1406 8.54688 19.3359 8.74219C19.8438 9.21094 19.8828 9.99219 19.4141 10.5C19.6484 10.7344 19.7656 11.0469 19.7656 11.3594C19.7656 12.0625 19.1797 12.6094 18.5156 12.6094V13.4297H17.6953V12.6094H16.875V13.4297H16.0156V12.6094H15.1953V11.75H16.0156V9.25H15.1953V8.42969H16.0156V7.57031H16.875ZM18.5156 10.9297H16.875V11.75H18.5156C18.75 11.75 18.9453 11.5547 18.9453 11.3203C18.9453 11.125 18.75 10.9297 18.5156 10.9297ZM18.5156 9.25H16.875V10.1094H18.5156C18.75 10.1094 18.9453 9.91406 18.9453 9.67969C18.9453 9.44531 18.75 9.25 18.5156 9.25Z" fill="black" fill-opacity="0.72"/>
</g>
<defs>
<clipPath id="clip0_1731_5150">
<rect width="25" height="30" fill="white"/>
</clipPath>
</defs>
</svg>
