<svg width="12" height="24" viewBox="0 0 12 24" fill="none" xmlns="http://www.w3.org/2000/svg">
<g id="label-paired / md / bookmark-md / regular" clip-path="url(#clip0_1731_3125)">
<path id="icon" d="M0 5.5C0.0208333 5.08333 0.166667 4.72917 0.4375 4.4375C0.729167 4.16667 1.08333 4.02083 1.5 4H10.5C10.9167 4.02083 11.2708 4.16667 11.5625 4.4375C11.8333 4.72917 11.9792 5.08333 12 5.5V19.3125C11.9583 19.7292 11.7292 19.9583 11.3125 20C11.1667 20 11.0417 19.9583 10.9375 19.875L6 16.5938L1.0625 19.875C0.958333 19.9583 0.833333 20 0.6875 20C0.270833 19.9583 0.0416667 19.7292 0 19.3125V5.5ZM1.5 5C1.1875 5.02083 1.02083 5.1875 1 5.5V18.7188L5.71875 15.5938C5.90625 15.4688 6.09375 15.4688 6.28125 15.5938L11 18.7188V5.5C10.9792 5.1875 10.8125 5.02083 10.5 5H1.5Z" fill="black" fill-opacity="0.72"/>
</g>
<defs>
<clipPath id="clip0_1731_3125">
<rect width="12" height="24" fill="white"/>
</clipPath>
</defs>
</svg>
