<svg width="16" height="22" viewBox="0 0 16 22" fill="none" xmlns="http://www.w3.org/2000/svg">
<g id="label-paired / sm / eye-sm / regular" clip-path="url(#clip0_1731_1882)">
<path id="icon" d="M3.32422 7.46875C2.74089 8.03385 2.2487 8.60807 1.84766 9.19141C1.46484 9.77474 1.18229 10.2943 1 10.75C1.18229 11.2057 1.46484 11.7253 1.84766 12.3086C2.2487 12.8919 2.74089 13.4661 3.32422 14.0312C3.92578 14.5964 4.60938 15.0612 5.375 15.4258C6.15885 15.7904 7.03385 15.9818 8 16C8.96615 15.9818 9.84115 15.7904 10.625 15.4258C11.3906 15.0612 12.0742 14.5964 12.6758 14.0312C13.2591 13.4661 13.7513 12.8919 14.1523 12.3086C14.5352 11.7253 14.8177 11.2057 15 10.75C14.8177 10.2943 14.5352 9.77474 14.1523 9.19141C13.7513 8.60807 13.2591 8.03385 12.6758 7.46875C12.0742 6.90365 11.3906 6.4388 10.625 6.07422C9.84115 5.70964 8.96615 5.51823 8 5.5C7.03385 5.51823 6.15885 5.70964 5.375 6.07422C4.60938 6.4388 3.92578 6.90365 3.32422 7.46875ZM8 4.625C9.11198 4.64323 10.1055 4.86198 10.9805 5.28125C11.8555 5.70052 12.6211 6.22005 13.2773 6.83984C13.9154 7.44141 14.444 8.0612 14.8633 8.69922C15.2826 9.33724 15.6016 9.91146 15.8203 10.4219C15.9115 10.6406 15.9115 10.8594 15.8203 11.0781C15.6016 11.5885 15.2826 12.1628 14.8633 12.8008C14.444 13.4388 13.9154 14.0586 13.2773 14.6602C12.6211 15.2799 11.8555 15.7995 10.9805 16.2188C10.1055 16.638 9.11198 16.8568 8 16.875C6.88802 16.8568 5.89453 16.638 5.01953 16.2188C4.14453 15.7995 3.37891 15.2799 2.72266 14.6602C2.08464 14.0586 1.55599 13.4388 1.13672 12.8008C0.717448 12.1628 0.407552 11.5885 0.207031 11.0781C0.115885 10.8594 0.115885 10.6406 0.207031 10.4219C0.407552 9.91146 0.717448 9.33724 1.13672 8.69922C1.55599 8.0612 2.08464 7.44141 2.72266 6.83984C3.37891 6.22005 4.14453 5.70052 5.01953 5.28125C5.89453 4.86198 6.88802 4.64323 8 4.625ZM5.375 10.75C5.375 11.224 5.49349 11.6615 5.73047 12.0625C5.96745 12.4635 6.28646 12.7826 6.6875 13.0195C7.10677 13.2565 7.54427 13.375 8 13.375C8.45573 13.375 8.89323 13.2565 9.3125 13.0195C9.71354 12.7826 10.0326 12.4635 10.2695 12.0625C10.5065 11.6615 10.625 11.224 10.625 10.75C10.625 10.276 10.5065 9.83854 10.2695 9.4375C10.0326 9.03646 9.71354 8.71745 9.3125 8.48047C8.89323 8.24349 8.45573 8.125 8 8.125C7.54427 8.125 7.10677 8.24349 6.6875 8.48047C6.28646 8.71745 5.96745 9.03646 5.73047 9.4375C5.49349 9.83854 5.375 10.276 5.375 10.75ZM11.5 10.75C11.5 11.388 11.3451 11.9714 11.0352 12.5C10.7253 13.0286 10.2969 13.457 9.75 13.7852C9.20312 14.0951 8.61979 14.25 8 14.25C7.38021 14.25 6.79688 14.0951 6.25 13.7852C5.70312 13.457 5.27474 13.0286 4.96484 12.5C4.65495 11.9714 4.5 11.388 4.5 10.75C4.5 10.112 4.65495 9.52865 4.96484 9C5.27474 8.47135 5.70312 8.04297 6.25 7.71484C6.79688 7.40495 7.38021 7.25 8 7.25C8.61979 7.25 9.20312 7.40495 9.75 7.71484C10.2969 8.04297 10.7253 8.47135 11.0352 9C11.3451 9.52865 11.5 10.112 11.5 10.75Z" fill="black" fill-opacity="0.72"/>
</g>
<defs>
<clipPath id="clip0_1731_1882">
<rect width="16" height="22" fill="white"/>
</clipPath>
</defs>
</svg>
