<svg width="13" height="22" viewBox="0 0 13 22" fill="none" xmlns="http://www.w3.org/2000/svg">
<g id="label-paired / sm / flag-checkered-sm / bold" clip-path="url(#clip0_1731_2685)">
<path id="icon" d="M1.03125 3.75C1.43229 3.78646 1.65104 4.00521 1.6875 4.40625V5.17188L4.01172 4.59766C5.08724 4.34245 6.1263 4.45182 7.12891 4.92578C7.76693 5.25391 8.43229 5.41797 9.125 5.41797C9.81771 5.41797 10.4922 5.25391 11.1484 4.92578L11.3945 4.81641C11.7044 4.67057 11.9779 4.67969 12.2148 4.84375C12.4701 4.98958 12.6068 5.22656 12.625 5.55469V13.2109C12.6068 13.5938 12.4154 13.8672 12.0508 14.0312L11.1211 14.3867C9.79036 14.8607 8.49609 14.7878 7.23828 14.168C6.16276 13.6576 5.04167 13.5391 3.875 13.8125L1.6875 14.3594V17.0938C1.65104 17.4948 1.43229 17.7135 1.03125 17.75C0.630208 17.7135 0.411458 17.4948 0.375 17.0938V14.6875V13.3477V5.5V4.40625C0.411458 4.00521 0.630208 3.78646 1.03125 3.75ZM1.6875 7.87891L3.875 7.38672V5.99219L1.6875 6.53906V7.87891ZM1.6875 9.21875V10.5039L3.875 10.0117V8.75391L1.6875 9.21875ZM1.6875 11.8438V13.0195L3.57422 12.5273C3.66536 12.5091 3.76562 12.4909 3.875 12.4727V11.3789L1.6875 11.8438ZM5.1875 12.3633C6.09896 12.3815 6.97396 12.5911 7.8125 12.9922V11.6523L6.30859 11.1875C5.94401 11.0781 5.57031 11.0508 5.1875 11.1055V12.3633ZM9.125 13.375C9.63542 13.4115 10.1458 13.3385 10.6562 13.1562L11.3125 12.9102V11.625L10.6016 11.7891C10.1094 11.8984 9.61719 11.9349 9.125 11.8984V13.375ZM11.3125 10.2852V9L10.6016 9.16406C10.1094 9.27344 9.61719 9.3099 9.125 9.27344V10.5859C9.52604 10.6224 9.92708 10.5951 10.3281 10.5039L11.3125 10.2852ZM11.3125 7.66016V6.29297C10.6016 6.58464 9.8724 6.73047 9.125 6.73047V7.96094C9.52604 7.9974 9.92708 7.97005 10.3281 7.87891L11.3125 7.66016ZM7.8125 6.56641C7.375 6.47526 6.94661 6.32031 6.52734 6.10156C6.10807 5.90104 5.66146 5.79167 5.1875 5.77344V7.14062C5.69792 7.1224 6.1901 7.17708 6.66406 7.30469L7.8125 7.66016V6.56641ZM7.8125 9.02734L6.30859 8.5625C5.94401 8.45312 5.57031 8.42578 5.1875 8.48047V9.79297C5.69792 9.75651 6.1901 9.80208 6.66406 9.92969L7.8125 10.2852V9.02734Z" fill="black" fill-opacity="0.72"/>
</g>
<defs>
<clipPath id="clip0_1731_2685">
<rect width="13" height="22" fill="white"/>
</clipPath>
</defs>
</svg>
