<svg width="32" height="32" viewBox="0 0 32 32" fill="none" xmlns="http://www.w3.org/2000/svg">
<g id="illustrative / md / reply-md">
<g id="icon">
<path d="M23.3268 9.81051C22.9602 9.81051 22.6602 10.1105 22.6602 10.4772C22.6602 10.8438 22.9602 11.1438 23.3268 11.1438H25.3268C25.7402 11.1438 26.1268 11.2705 26.4468 11.4905L17.2068 18.0905C16.4802 18.6105 15.5068 18.6105 14.7868 18.0905L5.54683 11.4905C5.86683 11.2705 6.2535 11.1438 6.66683 11.1438H8.66683C9.0335 11.1438 9.3335 10.8438 9.3335 10.4772C9.3335 10.1105 9.0335 9.81051 8.66683 9.81051H6.66683C4.82683 9.81051 3.3335 11.3038 3.3335 13.1438V24.3105C3.3335 26.1505 4.82683 27.6438 6.66683 27.6438H25.3335C27.1735 27.6438 28.6668 26.1505 28.6668 24.3105V13.1438C28.6668 11.3038 27.1735 9.81051 25.3335 9.81051H23.3268ZM27.3268 24.3105C27.3268 25.4105 26.4268 26.3105 25.3268 26.3105H6.66016C5.56016 26.3105 4.66016 25.4105 4.66016 24.3105V13.1438C4.66016 12.9438 4.70016 12.7505 4.7535 12.5638L14.0068 19.1705C14.6002 19.5972 15.2935 19.8038 15.9935 19.8038C16.6935 19.8038 17.3868 19.5905 17.9802 19.1705L27.2335 12.5638C27.2868 12.7505 27.3268 12.9372 27.3268 13.1438V24.3105Z" fill="black" fill-opacity="0.72"/>
<path d="M15.9935 15.8105C18.9335 15.8105 21.3268 13.4172 21.3268 10.4772C21.3268 8.13051 19.8068 6.14384 17.7002 5.43051L18.0135 5.21051C18.3135 4.99718 18.3868 4.58384 18.1802 4.28384C17.9668 3.98384 17.5535 3.91051 17.2535 4.11718L15.6135 5.26384C15.6135 5.26384 15.5868 5.29051 15.5735 5.30384C15.5402 5.33718 15.5068 5.36384 15.4802 5.40384C15.4535 5.43718 15.4335 5.47051 15.4135 5.50384C15.3935 5.54384 15.3802 5.57718 15.3668 5.62384C15.3535 5.67051 15.3468 5.71051 15.3402 5.75718C15.3402 5.77718 15.3268 5.79051 15.3268 5.81051C15.3268 5.83718 15.3402 5.85718 15.3402 5.87718C15.3402 5.92384 15.3535 5.96384 15.3668 6.01051C15.3802 6.05718 15.4002 6.09718 15.4202 6.13718C15.4335 6.15718 15.4335 6.17718 15.4468 6.19718L16.5935 7.83718C16.7268 8.02384 16.9268 8.12384 17.1402 8.12384C17.2735 8.12384 17.4068 8.08384 17.5202 8.00384C17.8202 7.79051 17.8935 7.37718 17.6868 7.07718L17.4735 6.77718C18.9468 7.37051 19.9935 8.81051 19.9935 10.4905C19.9935 12.6972 18.2002 14.4905 15.9935 14.4905C13.7868 14.4905 11.9935 12.6972 11.9935 10.4905C11.9935 9.43718 12.4002 8.44384 13.1335 7.69051C13.3935 7.43051 13.3868 7.00384 13.1268 6.75051C12.8602 6.49051 12.4402 6.49718 12.1868 6.75718C11.2068 7.75718 10.6602 9.08384 10.6602 10.4905C10.6602 13.4305 13.0535 15.8238 15.9935 15.8238V15.8105Z" fill="black" fill-opacity="0.72"/>
</g>
</g>
</svg>
