<svg width="32" height="32" viewBox="0 0 32 32" fill="none" xmlns="http://www.w3.org/2000/svg">
<g id="illustrative / md / fast-and-secure-md">
<g id="icon">
<path d="M8.66663 18C8.66663 17.6334 8.36663 17.3334 7.99996 17.3334H3.33329C2.96663 17.3334 2.66663 17.6334 2.66663 18C2.66663 18.3667 2.96663 18.6667 3.33329 18.6667H7.99996C8.36663 18.6667 8.66663 18.3667 8.66663 18Z" fill="black" fill-opacity="0.72"/>
<path d="M8.66663 14.6667H5.33329C4.96663 14.6667 4.66663 14.9667 4.66663 15.3334C4.66663 15.7 4.96663 16 5.33329 16H8.66663C9.03329 16 9.33329 15.7 9.33329 15.3334C9.33329 14.9667 9.03329 14.6667 8.66663 14.6667Z" fill="black" fill-opacity="0.72"/>
<path d="M8.66663 20H5.33329C4.96663 20 4.66663 20.3 4.66663 20.6667C4.66663 21.0334 4.96663 21.3334 5.33329 21.3334H8.66663C9.03329 21.3334 9.33329 21.0334 9.33329 20.6667C9.33329 20.3 9.03329 20 8.66663 20Z" fill="black" fill-opacity="0.72"/>
<path d="M11.3333 20C10.9666 20 10.6666 20.3 10.6666 20.6667C10.6666 21.0334 10.9666 21.3334 11.3333 21.3334H12.6666V22C12.6666 22.3667 12.9666 22.6667 13.3333 22.6667C13.7 22.6667 14 22.3667 14 22V21.3334H14.6666C15.4 21.3334 16 20.7334 16 20V18.6667C16 17.9334 15.4 17.3334 14.6666 17.3334H12V16H15.3333C15.7 16 16 15.7 16 15.3334C16 14.9667 15.7 14.6667 15.3333 14.6667H14V14C14 13.6334 13.7 13.3334 13.3333 13.3334C12.9666 13.3334 12.6666 13.6334 12.6666 14V14.6667H12C11.2666 14.6667 10.6666 15.2667 10.6666 16V17.3334C10.6666 18.0667 11.2666 18.6667 12 18.6667H14.6666V20H11.3333Z" fill="black" fill-opacity="0.72"/>
<path d="M21.8133 9.00002C19.9466 8.54669 15.42 7.36002 13.7066 6.22002C13.48 6.07335 13.1933 6.07335 12.9666 6.22002C11.2533 7.36002 6.72663 8.54669 4.85996 9.00002C3.96663 9.22002 3.33996 10.02 3.33996 10.94V12.66C3.33996 13.0267 3.63996 13.3267 4.00663 13.3267C4.37329 13.3267 4.67329 13.0267 4.67329 12.66V10.94C4.67329 10.6334 4.87996 10.3667 5.17996 10.2934C7.43329 9.74669 11.36 8.68669 13.34 7.55335C15.32 8.68669 19.2466 9.74002 21.5 10.2934C21.8 10.3667 22.0066 10.6334 22.0066 10.94V19.9934C22.0066 22.9534 20.56 25.3067 17.7 26.98C15.78 28.1067 13.82 28.5534 13.34 28.6467C12.5 28.48 7.09996 27.24 5.27996 23.06C5.13329 22.72 4.73996 22.5667 4.39996 22.7134C4.05996 22.86 3.90663 23.2534 4.05329 23.5934C6.30663 28.78 12.94 29.94 13.22 29.9867C13.2533 29.9867 13.2933 29.9934 13.3266 29.9934C13.36 29.9934 13.4 29.9934 13.4333 29.9867C13.5333 29.9734 23.3266 28.24 23.3266 19.9934V10.94C23.3266 10.0134 22.7 9.22002 21.8066 9.00002H21.8133Z" fill="black" fill-opacity="0.72"/>
<path d="M27.9466 3.08002C27.8466 2.83335 27.6 2.66669 27.3333 2.66669H25.3333C24.9666 2.66669 24.6666 2.96669 24.6666 3.33335C24.6666 3.70002 24.9666 4.00002 25.3333 4.00002H25.7266L23.5333 6.19335C23.2733 6.45335 23.2733 6.87335 23.5333 7.13335C23.6666 7.26669 23.8333 7.32669 24.0066 7.32669C24.18 7.32669 24.3466 7.26002 24.48 7.13335L27.8133 3.80002C28.0066 3.60669 28.06 3.32002 27.96 3.07335L27.9466 3.08002Z" fill="black" fill-opacity="0.72"/>
<path d="M29.8066 4.86002C29.5466 4.60002 29.1266 4.60002 28.8666 4.86002L25.5333 8.19335C25.34 8.38669 25.2866 8.67335 25.3866 8.92002C25.4866 9.16669 25.7333 9.33335 26 9.33335H28C28.3666 9.33335 28.6666 9.03335 28.6666 8.66669C28.6666 8.30002 28.3666 8.00002 28 8.00002H27.6066L29.8 5.80669C30.06 5.54669 30.06 5.12669 29.8 4.86669L29.8066 4.86002Z" fill="black" fill-opacity="0.72"/>
</g>
</g>
</svg>
