<svg width="32" height="32" viewBox="0 0 32 32" fill="none" xmlns="http://www.w3.org/2000/svg">
<g id="illustrative / md / earn-md">
<g id="icon">
<path d="M25.3334 15.4533V14.6667C25.3334 13.5667 24.4334 12.6667 23.3334 12.6667H23.3C22.96 8.93333 19.82 6 16 6C12.18 6 9.04004 8.93333 8.70004 12.6667H7.33337C6.23337 12.6667 5.33337 13.5667 5.33337 14.6667V28C5.33337 29.1 6.23337 30 7.33337 30H24.6667C25.7667 30 26.6667 29.1 26.6667 28V17.3333C26.6667 16.4667 26.1067 15.7333 25.3334 15.4533ZM25.3334 24.66H20.6667C20.3 24.66 20 24.36 20 23.9933V21.3267C20 20.96 20.3 20.66 20.6667 20.66H25.3334V24.66ZM24 14.6667V15.3333H23.0467C23.1734 14.9 23.2534 14.4533 23.3 14H23.3334C23.7 14 24 14.3 24 14.6667ZM16 7.33333C19.3067 7.33333 22 10.0267 22 13.3333C22 14.0267 21.88 14.6933 21.6534 15.3333H18.6667V14C18.6667 13.2667 18.0667 12.6667 17.3334 12.6667H14.6667V11.3333H18C18.3667 11.3333 18.6667 11.0333 18.6667 10.6667C18.6667 10.3 18.3667 10 18 10H16.6667V9.33333C16.6667 8.96667 16.3667 8.66667 16 8.66667C15.6334 8.66667 15.3334 8.96667 15.3334 9.33333V10H14.6667C13.9334 10 13.3334 10.6 13.3334 11.3333V12.6667C13.3334 13.4 13.9334 14 14.6667 14H17.3334V15.3333H10.3534C10.1267 14.6933 10.0067 14.02 10.0067 13.3333C10.0067 10.0267 12.7 7.33333 16.0067 7.33333H16ZM7.33337 14H8.70004C8.74004 14.4533 8.82671 14.9 8.94671 15.3333H7.33337C6.97337 15.3333 6.66671 15.0267 6.66671 14.6667C6.66671 14.3067 6.97337 14 7.33337 14ZM25.3334 28C25.3334 28.3667 25.0334 28.6667 24.6667 28.6667H7.33337C6.96671 28.6667 6.66671 28.3667 6.66671 28V16.5467C6.87337 16.62 7.10004 16.6667 7.33337 16.6667H24.6667C25.0334 16.6667 25.3334 16.9667 25.3334 17.3333V19.3333H20.6667C19.5667 19.3333 18.6667 20.2333 18.6667 21.3333V24C18.6667 25.1 19.5667 26 20.6667 26H25.3334V28Z" fill="black" fill-opacity="0.72"/>
<path d="M22.6667 23.3333C23.0349 23.3333 23.3334 23.0349 23.3334 22.6667C23.3334 22.2985 23.0349 22 22.6667 22C22.2985 22 22 22.2985 22 22.6667C22 23.0349 22.2985 23.3333 22.6667 23.3333Z" fill="black" fill-opacity="0.72"/>
<path d="M24 8.66667C24.3667 8.66667 24.6667 8.36667 24.6667 8V5.33333C24.6667 4.96667 24.3667 4.66667 24 4.66667C23.6334 4.66667 23.3334 4.96667 23.3334 5.33333V8C23.3334 8.36667 23.6334 8.66667 24 8.66667Z" fill="black" fill-opacity="0.72"/>
<path d="M8.66671 8.66667C9.03337 8.66667 9.33337 8.36667 9.33337 8V5.33333C9.33337 4.96667 9.03337 4.66667 8.66671 4.66667C8.30004 4.66667 8.00004 4.96667 8.00004 5.33333V8C8.00004 8.36667 8.30004 8.66667 8.66671 8.66667Z" fill="black" fill-opacity="0.72"/>
<path d="M12 5.33333C12.3667 5.33333 12.6667 5.03333 12.6667 4.66667V3.33333C12.6667 2.96667 12.3667 2.66667 12 2.66667C11.6334 2.66667 11.3334 2.96667 11.3334 3.33333V4.66667C11.3334 5.03333 11.6334 5.33333 12 5.33333Z" fill="black" fill-opacity="0.72"/>
<path d="M20.6667 5.33333C21.0334 5.33333 21.3334 5.03333 21.3334 4.66667V3.33333C21.3334 2.96667 21.0334 2.66667 20.6667 2.66667C20.3 2.66667 20 2.96667 20 3.33333V4.66667C20 5.03333 20.3 5.33333 20.6667 5.33333Z" fill="black" fill-opacity="0.72"/>
<path d="M16 4C16.3667 4 16.6667 3.7 16.6667 3.33333V2.66667C16.6667 2.3 16.3667 2 16 2C15.6334 2 15.3334 2.3 15.3334 2.66667V3.33333C15.3334 3.7 15.6334 4 16 4Z" fill="black" fill-opacity="0.72"/>
</g>
</g>
</svg>
