<svg width="32" height="32" viewBox="0 0 32 32" fill="none" xmlns="http://www.w3.org/2000/svg">
<g id="illustrative / md / forex-md">
<g id="icon">
<path d="M12.267 13.3334H9.6003V10.6667H16.9336C18.0403 10.6667 18.9336 9.77337 18.9336 8.66671V7.33337C18.9336 6.22671 18.0403 5.33337 16.9336 5.33337H7.6003C5.7603 5.33337 4.26697 6.82671 4.26697 8.66671V24.6667C4.26697 25.7734 5.1603 26.6667 6.26697 26.6667H7.6003C8.70697 26.6667 9.6003 25.7734 9.6003 24.6667V18.6667H12.267C13.7336 18.6667 14.9336 17.4667 14.9336 16C14.9336 14.5334 13.7336 13.3334 12.267 13.3334ZM12.267 17.3334H8.93363C8.5603 17.3334 8.26697 17.6267 8.26697 18V24.6667C8.26697 25.04 7.97363 25.3334 7.6003 25.3334H6.26697C5.89363 25.3334 5.6003 25.04 5.6003 24.6667V8.66671C5.6003 7.56004 6.49363 6.66671 7.6003 6.66671H16.9336C17.307 6.66671 17.6003 6.96004 17.6003 7.33337V8.66671C17.6003 9.04004 17.307 9.33337 16.9336 9.33337H8.93363C8.5603 9.33337 8.26697 9.62671 8.26697 10V14C8.26697 14.3734 8.5603 14.6667 8.93363 14.6667H12.267C13.0003 14.6667 13.6003 15.2667 13.6003 16C13.6003 16.7334 13.0003 17.3334 12.267 17.3334Z" fill="black" fill-opacity="0.72"/>
<path d="M27.3203 12.96C26.9603 12.36 26.3203 12 25.6136 12H24.0003C23.2536 12 22.5736 12.4134 22.227 13.08L21.8936 13.7334L21.5603 13.08C21.2136 12.4134 20.5336 12 19.787 12H18.1736C17.467 12 16.827 12.36 16.467 12.96C16.107 13.56 16.0803 14.2934 16.4003 14.92L18.8403 19.6134L16.6936 23.7334C16.3736 24.36 16.387 25.0934 16.7603 25.6934C17.1336 26.2934 17.7603 26.6534 18.467 26.6534H20.0803C20.827 26.6534 21.507 26.24 21.8536 25.5734L21.8936 25.4934L21.9336 25.5734C22.2803 26.24 22.9603 26.6534 23.707 26.6534H25.3203C26.027 26.6534 26.667 26.2934 27.027 25.6934C27.387 25.0934 27.4136 24.36 27.0936 23.7334L24.947 19.6134L27.387 14.92C27.707 14.2934 27.6936 13.56 27.3203 12.96ZM26.2003 14.3067L23.6003 19.3067C23.4936 19.4934 23.4936 19.7334 23.6003 19.92L25.907 24.36C26.067 24.6667 25.947 24.92 25.8803 25.0134C25.827 25.1067 25.6536 25.3334 25.307 25.3334H23.6936C23.4403 25.3334 23.2136 25.2 23.107 24.9734L22.4803 23.76C22.3603 23.5334 22.1336 23.4 21.8936 23.4C21.6536 23.4 21.4136 23.5334 21.307 23.76L20.6803 24.9734C20.5603 25.2 20.3336 25.3334 20.0936 25.3334H18.4803C18.147 25.3334 17.9736 25.1067 17.907 25.0134C17.8536 24.92 17.7336 24.6667 17.8803 24.36L20.187 19.92C20.2936 19.7334 20.2936 19.4934 20.187 19.3067L17.587 14.3067C17.427 14.0134 17.547 13.7467 17.6136 13.6534C17.6803 13.56 17.8403 13.3334 18.187 13.3334H19.8003C20.0536 13.3334 20.2803 13.4667 20.387 13.6934L21.3203 15.48C21.547 15.92 22.267 15.92 22.507 15.48L23.4403 13.6934C23.5603 13.4667 23.787 13.3334 24.027 13.3334H25.6403C25.9736 13.3334 26.147 13.56 26.2136 13.6534C26.2803 13.7467 26.387 14 26.2403 14.3067H26.2003Z" fill="black" fill-opacity="0.72"/>
</g>
</g>
</svg>
