<svg width="32" height="32" viewBox="0 0 32 32" fill="none" xmlns="http://www.w3.org/2000/svg">
<g id="illustrative / md / hands-on-experience-md">
<g id="icon">
<path d="M16.1198 23.3333C17.7732 23.3333 19.1198 21.9867 19.1198 20.3333C19.1198 18.68 17.7732 17.3333 16.1198 17.3333C14.4665 17.3333 13.1198 18.68 13.1198 20.3333C13.1198 21.9867 14.4665 23.3333 16.1198 23.3333ZM16.1198 18.6667C17.0398 18.6667 17.7865 19.4133 17.7865 20.3333C17.7865 21.2533 17.0398 22 16.1198 22C15.1998 22 14.4532 21.2533 14.4532 20.3333C14.4532 19.4133 15.1998 18.6667 16.1198 18.6667Z" fill="black" fill-opacity="0.72"/>
<path d="M18.1198 24C17.7532 24 17.4532 24.3 17.4532 24.6667C17.4532 25.0333 17.7532 25.3333 18.1198 25.3333C18.8532 25.3333 19.4532 25.9333 19.4532 26.6667V28.6667C19.4532 29.0333 19.1532 29.3333 18.7865 29.3333H13.4532C13.0865 29.3333 12.7865 29.0333 12.7865 28.6667V26.6667C12.7865 25.9333 13.3865 25.3333 14.1198 25.3333C14.4865 25.3333 14.7865 25.0333 14.7865 24.6667C14.7865 24.3 14.4865 24 14.1198 24C12.6465 24 11.4532 25.1933 11.4532 26.6667V28.6667C11.4532 29.7667 12.3532 30.6667 13.4532 30.6667H18.7865C19.8865 30.6667 20.7865 29.7667 20.7865 28.6667V26.6667C20.7865 25.1933 19.5932 24 18.1198 24Z" fill="black" fill-opacity="0.72"/>
<path d="M8.7865 19.3333C7.55984 19.3333 6.5665 20.3333 6.5665 21.5533C6.5665 22.7733 7.5665 23.7733 8.7865 23.7733C10.0065 23.7733 11.0065 22.7733 11.0065 21.5533C11.0065 20.3333 10.0065 19.3333 8.7865 19.3333ZM8.7865 22.4467C8.29317 22.4467 7.89984 22.0467 7.89984 21.56C7.89984 21.0733 8.29984 20.6733 8.7865 20.6733C9.27317 20.6733 9.67317 21.0733 9.67317 21.56C9.67317 22.0467 9.27317 22.4467 8.7865 22.4467Z" fill="black" fill-opacity="0.72"/>
<path d="M9.45317 28.4467H7.0065C6.8865 28.4467 6.7865 28.3467 6.7865 28.2267V26.8933C6.7865 26.5267 7.0865 26.2267 7.45317 26.2267C7.81984 26.2267 8.11984 25.9267 8.11984 25.56C8.11984 25.1933 7.81984 24.8933 7.45317 24.8933C6.35317 24.8933 5.45317 25.7933 5.45317 26.8933V28.2267C5.45317 29.0867 6.15317 29.78 7.0065 29.78H9.45317C9.81984 29.78 10.1198 29.48 10.1198 29.1133C10.1198 28.7467 9.81984 28.4467 9.45317 28.4467Z" fill="black" fill-opacity="0.72"/>
<path d="M25.6732 21.5533C25.6732 20.3267 24.6732 19.3333 23.4532 19.3333C22.2332 19.3333 21.2332 20.3333 21.2332 21.5533C21.2332 22.7733 22.2332 23.7733 23.4532 23.7733C24.6732 23.7733 25.6732 22.7733 25.6732 21.5533ZM22.5598 21.5533C22.5598 21.06 22.9598 20.6667 23.4465 20.6667C23.9332 20.6667 24.3332 21.0667 24.3332 21.5533C24.3332 22.04 23.9332 22.44 23.4465 22.44C22.9598 22.44 22.5598 22.04 22.5598 21.5533Z" fill="black" fill-opacity="0.72"/>
<path d="M24.7865 24.8867C24.4198 24.8867 24.1198 25.1867 24.1198 25.5533C24.1198 25.92 24.4198 26.22 24.7865 26.22C25.1532 26.22 25.4532 26.52 25.4532 26.8867V28.22C25.4532 28.34 25.3532 28.44 25.2332 28.44H22.7865C22.4198 28.44 22.1198 28.74 22.1198 29.1067C22.1198 29.4733 22.4198 29.7733 22.7865 29.7733H25.2332C26.0932 29.7733 26.7865 29.0733 26.7865 28.22V26.8867C26.7865 25.7867 25.8865 24.8867 24.7865 24.8867Z" fill="black" fill-opacity="0.72"/>
<path d="M28.6732 11.62C28.3065 11.62 28.0065 11.92 28.0065 12.2867V14.2867C28.0065 14.6533 27.7065 14.9533 27.3398 14.9533H24.0065C23.8465 14.9533 23.6932 15.0067 23.5732 15.1133L22.3132 16.18V15.62C22.3132 15.2533 22.0132 14.9533 21.6465 14.9533H18.0065C17.6398 14.9533 17.3398 14.6533 17.3398 14.2867V12.2867C17.3398 11.92 17.0398 11.62 16.6732 11.62C16.3065 11.62 16.0065 11.92 16.0065 12.2867V14.2867C16.0065 15.3867 16.9065 16.2867 18.0065 16.2867H20.9798V17.62C20.9798 17.88 21.1332 18.1133 21.3665 18.2267C21.4532 18.2667 21.5532 18.2867 21.6465 18.2867C21.7998 18.2867 21.9532 18.2333 22.0798 18.1267L24.2532 16.2867H27.3398C28.4398 16.2867 29.3398 15.3867 29.3398 14.2867V12.2867C29.3398 11.92 29.0398 11.62 28.6732 11.62Z" fill="black" fill-opacity="0.72"/>
<path d="M13.3398 14.2867V12.2867C13.3398 11.92 13.0398 11.62 12.6732 11.62C12.3065 11.62 12.0065 11.92 12.0065 12.2867V14.2867C12.0065 14.6533 11.7065 14.9533 11.3398 14.9533H9.03317C8.6665 14.9533 8.3665 15.2533 8.3665 15.62V16.18L7.09984 15.1067C6.97984 15.0067 6.8265 14.9467 6.6665 14.9467H4.6665C4.29984 14.9467 3.99984 14.6467 3.99984 14.28V12.28C3.99984 11.9133 3.69984 11.6133 3.33317 11.6133C2.9665 11.6133 2.6665 11.9133 2.6665 12.28V14.28C2.6665 15.38 3.5665 16.28 4.6665 16.28H6.41984L8.59317 18.12C8.71317 18.2267 8.8665 18.28 9.0265 18.28C9.11984 18.28 9.21984 18.26 9.3065 18.22C9.53984 18.1133 9.69317 17.8733 9.69317 17.6133V16.28H11.3332C12.4332 16.28 13.3332 15.38 13.3332 14.28L13.3398 14.2867Z" fill="black" fill-opacity="0.72"/>
<path d="M18.0065 9.47333H18.2265C18.3865 9.85333 18.5932 10.2133 18.8398 10.54C18.8132 10.5933 18.7798 10.6467 18.7465 10.7C18.5665 11.0067 18.5132 11.3667 18.6065 11.72C18.6998 12.0667 18.9198 12.36 19.2265 12.54L20.1265 13.06C20.7598 13.4267 21.5732 13.2067 21.9398 12.5867L22.0465 12.4067C22.4598 12.46 22.8732 12.46 23.2932 12.4067C23.3265 12.4667 23.3665 12.5267 23.3998 12.5933C23.6465 13.0133 24.0932 13.2533 24.5532 13.2533C24.7798 13.2533 25.0065 13.1933 25.2198 13.0733L26.1198 12.5533C26.4265 12.3733 26.6532 12.0867 26.7398 11.74C26.8332 11.3933 26.7798 11.0333 26.5998 10.7267L26.4998 10.5533C26.7532 10.2267 26.9598 9.86667 27.1198 9.48667H27.3398C28.0732 9.48667 28.6732 8.88667 28.6732 8.15333V7.11333C28.6732 6.38 28.0732 5.78 27.3398 5.78H27.1198C26.9598 5.4 26.7532 5.04 26.5065 4.71333L26.5998 4.55333C26.7798 4.24667 26.8332 3.88667 26.7398 3.54C26.6465 3.19333 26.4265 2.9 26.1198 2.72667L25.2198 2.20667C24.5865 1.84667 23.7732 2.06 23.4065 2.68L23.2998 2.86C22.8865 2.80667 22.4665 2.80667 22.0532 2.86L21.9465 2.67333C21.5798 2.04667 20.7598 1.82667 20.1265 2.19333L19.2265 2.71333C18.9198 2.89333 18.6932 3.18 18.6065 3.52667C18.5132 3.87333 18.5665 4.23333 18.7465 4.54L18.8465 4.71333C18.5932 5.04 18.3865 5.4 18.2265 5.78H18.0065C17.2732 5.78 16.6732 6.38 16.6732 7.11333V8.15333C16.6732 8.88667 17.2732 9.48667 18.0065 9.48667V9.47333ZM18.0065 7.1H18.6998C19.0132 7.1 19.2732 6.88667 19.3465 6.6C19.4998 6.09333 19.7798 5.62 20.1465 5.22667C20.3265 5.03333 20.3798 4.74667 20.2732 4.50667C20.2598 4.48 20.2465 4.44667 20.2265 4.42L19.8932 3.85333L20.7932 3.33333L21.1332 3.92C21.2798 4.17333 21.5798 4.3 21.8598 4.23333C22.3865 4.10667 22.9532 4.10667 23.4732 4.23333C23.7598 4.3 24.0532 4.17333 24.1998 3.92667L24.5398 3.34667L25.4398 3.86667L25.1065 4.43333C24.9532 4.68667 24.9932 5.01333 25.1932 5.23333C25.5665 5.62667 25.8465 6.11333 25.9998 6.63333C26.0865 6.91333 26.3465 7.11333 26.6398 7.11333H27.3332V8.15333H26.6398C26.3465 8.15333 26.0865 8.34667 25.9998 8.62667C25.8465 9.14667 25.5665 9.62667 25.1932 10.0267C24.9932 10.24 24.9532 10.5667 25.1065 10.82L25.4465 11.4L24.5465 11.92C24.1598 11.2533 23.9998 10.9867 23.6932 10.9867C23.6265 10.9867 23.5532 11 23.4732 11.02C22.9465 11.1467 22.3865 11.1467 21.8598 11.02C21.5798 10.9533 21.2798 11.0733 21.1332 11.3267L20.7932 11.9067L19.8932 11.3867C20.0398 11.1333 20.1932 10.88 20.2198 10.8333C20.2398 10.8067 20.2532 10.7733 20.2665 10.7467C20.3732 10.5 20.3198 10.22 20.1398 10.0267C19.7665 9.63333 19.4865 9.14667 19.3332 8.63333C19.2465 8.35333 18.9865 8.16 18.6932 8.16H17.9998V7.12L18.0065 7.1Z" fill="black" fill-opacity="0.72"/>
<path d="M22.6732 10.2867C24.1465 10.2867 25.3398 9.09333 25.3398 7.62C25.3398 6.14667 24.1465 4.95333 22.6732 4.95333C21.1998 4.95333 20.0065 6.14667 20.0065 7.62C20.0065 9.09333 21.1998 10.2867 22.6732 10.2867ZM22.6732 6.28667C23.4065 6.28667 24.0065 6.88667 24.0065 7.62C24.0065 8.35333 23.4065 8.95333 22.6732 8.95333C21.9398 8.95333 21.3398 8.35333 21.3398 7.62C21.3398 6.88667 21.9398 6.28667 22.6732 6.28667Z" fill="black" fill-opacity="0.72"/>
<path d="M5.33984 8.96667V11.3333C5.33984 12.4333 6.23984 13.3333 7.33984 13.3333H8.67317C9.77317 13.3333 10.6732 12.4333 10.6732 11.3333V8.96667C11.5265 8.20667 12.0065 7.14 12.0065 6C12.0065 3.79333 10.2132 2 8.0065 2C5.79984 2 4.0065 3.79333 4.0065 6C4.0065 7.14 4.4865 8.20667 5.33984 8.96667ZM9.33984 11.3333C9.33984 11.7 9.03984 12 8.67317 12H7.33984C6.97317 12 6.67317 11.7 6.67317 11.3333V10.6667H9.33984V11.3333ZM8.0065 3.33333C9.47984 3.33333 10.6732 4.52667 10.6732 6C10.6732 6.83333 10.2865 7.60667 9.6065 8.12C9.43984 8.24667 9.33984 8.44 9.33984 8.65333V9.33333H6.67317V8.65333C6.67317 8.44667 6.57317 8.24667 6.4065 8.12C5.7265 7.60667 5.33984 6.83333 5.33984 6C5.33984 4.52667 6.53317 3.33333 8.0065 3.33333Z" fill="black" fill-opacity="0.72"/>
<path d="M7.39984 6.66667L7.2065 6.86C6.9465 7.12 6.9465 7.54 7.2065 7.80667C7.33984 7.94 7.5065 8 7.67984 8C7.85317 8 8.01984 7.93333 8.15317 7.80667L8.81984 7.14C8.9465 7.01333 9.01317 6.84667 9.01317 6.66667C9.01317 6.48667 8.93984 6.32 8.81984 6.19333L8.6265 6L8.81984 5.80667C9.07984 5.54667 9.07984 5.12667 8.81984 4.86C8.55984 4.6 8.13984 4.6 7.87984 4.86L7.21317 5.52667C7.0865 5.65333 7.01984 5.82 7.01984 6C7.01984 6.18 7.09317 6.34667 7.21317 6.47333L7.4065 6.66667H7.39984Z" fill="black" fill-opacity="0.72"/>
</g>
</g>
</svg>
