<svg width="32" height="32" viewBox="0 0 32 32" fill="none" xmlns="http://www.w3.org/2000/svg">
<g id="illustrative / md / antivirus-and-firewalls-md">
<path id="icon" d="M27.3867 7.33331H4.62666C3.07999 7.33331 1.82666 8.58665 1.82666 10.1333V23.64C1.82666 25.1866 3.07999 26.44 4.62666 26.44H15.3333V28.6666H12.44C12.0667 28.6666 11.7733 28.96 11.7733 29.3333C11.7733 29.7066 12.0667 30 12.44 30H19.56C19.9333 30 20.2267 29.7066 20.2267 29.3333C20.2267 28.96 19.9333 28.6666 19.56 28.6666H16.6667V26.44H27.3867C28.9333 26.44 30.1867 25.1866 30.1867 23.64V10.1333C30.1867 8.58665 28.9333 7.33331 27.3867 7.33331ZM28.8533 23.64C28.8533 24.4533 28.2 25.1066 27.3867 25.1066H4.62666C3.81333 25.1066 3.15999 24.4533 3.15999 23.64V10.1333C3.15999 9.31998 3.81333 8.66665 4.62666 8.66665H27.3867C28.2 8.66665 28.8533 9.31998 28.8533 10.1333V23.64ZM20.1867 11.9733C18.5067 11.5466 17.2267 11.1066 16.56 10.76C16.2 10.5866 15.7867 10.5866 15.4533 10.76C15 11 14.0133 11.4133 11.8533 11.96C11.08 12.16 10.5333 12.8533 10.5333 13.6533V18.0266C10.5333 21.6533 14.04 23.1866 15.9067 23.4933C15.9067 23.4933 15.9467 23.4933 15.9733 23.4933C16.04 23.4933 16.1067 23.4933 16.1333 23.4933C17.9867 23.1866 21.5067 21.64 21.5067 18.0266V13.6533C21.5067 12.8533 20.96 12.16 20.1867 11.9733ZM20.1733 18.0266C20.1733 21.3066 16.3733 22.0933 16.0533 22.1733C15.4667 22.0533 11.8667 21.2133 11.8667 18.0266V13.6533C11.8667 13.4666 12 13.3066 12.1733 13.2533C13.96 12.8 15.2533 12.36 16.0133 11.96C16.7867 12.36 18.08 12.7866 19.8533 13.2533C20.04 13.2933 20.16 13.4666 20.16 13.64V18.0133L20.1733 18.0266ZM16.68 16.0933V17.16C16.68 17.5333 16.3867 17.8266 16.0133 17.8266C15.64 17.8266 15.3467 17.5333 15.3467 17.16V16.0933C15.3467 15.72 15.64 15.4266 16.0133 15.4266C16.3867 15.4266 16.68 15.72 16.68 16.0933ZM16.5467 18.76C16.5467 19.0533 16.3067 19.2933 16.0133 19.2933C15.72 19.2933 15.48 19.0533 15.48 18.76C15.48 18.4666 15.72 18.2266 16.0133 18.2266C16.3067 18.2266 16.5467 18.4666 16.5467 18.76Z" fill="black" fill-opacity="0.72"/>
</g>
</svg>
