<svg width="32" height="32" viewBox="0 0 32 32" fill="none" xmlns="http://www.w3.org/2000/svg">
<g id="illustrative / md / secure-platform-md">
<g id="icon">
<path d="M8.66671 25.8683H4.66671C4.30004 25.8683 4.00004 26.1683 4.00004 26.535C4.00004 26.9016 4.30004 27.2016 4.66671 27.2016H8.66671C9.03337 27.2016 9.33337 26.9016 9.33337 26.535C9.33337 26.1683 9.03337 25.8683 8.66671 25.8683Z" fill="black" fill-opacity="0.72"/>
<path d="M30 10.6683C29.6334 10.6683 29.3334 10.9683 29.3334 11.335V20.0016C29.3334 21.1016 28.4334 22.0016 27.3334 22.0016H14C13.6334 22.0016 13.3334 22.3016 13.3334 22.6683C13.3334 23.035 13.6334 23.335 14 23.335H16.6667V25.335H14C13.6334 25.335 13.3334 25.635 13.3334 26.0016C13.3334 26.3683 13.6334 26.6683 14 26.6683H20.6667C21.0334 26.6683 21.3334 26.3683 21.3334 26.0016C21.3334 25.635 21.0334 25.335 20.6667 25.335H18V23.335H27.3334C29.1734 23.335 30.6667 21.8416 30.6667 20.0016V11.335C30.6667 10.9683 30.3667 10.6683 30 10.6683Z" fill="black" fill-opacity="0.72"/>
<path d="M4.66671 11.335C5.03337 11.335 5.33337 11.035 5.33337 10.6683V8.66831C5.33337 7.56831 6.23337 6.66831 7.33337 6.66831H21.3334C21.7 6.66831 22 6.36831 22 6.00165C22 5.63498 21.7 5.33498 21.3334 5.33498H7.33337C5.49337 5.33498 4.00004 6.82831 4.00004 8.66831V10.6683C4.00004 11.035 4.30004 11.335 4.66671 11.335Z" fill="black" fill-opacity="0.72"/>
<path d="M9.33337 12.6683H4.00004C2.52671 12.6683 1.33337 13.8616 1.33337 15.335V27.335C1.33337 28.8083 2.52671 30.0016 4.00004 30.0016H9.33337C10.8067 30.0016 12 28.8083 12 27.335V15.335C12 13.8616 10.8067 12.6683 9.33337 12.6683ZM10.6667 27.335C10.6667 28.0683 10.0667 28.6683 9.33337 28.6683H4.00004C3.26671 28.6683 2.66671 28.0683 2.66671 27.335V15.335C2.66671 14.6016 3.26671 14.0016 4.00004 14.0016H9.33337C10.0667 14.0016 10.6667 14.6016 10.6667 15.335V27.335Z" fill="black" fill-opacity="0.72"/>
<path d="M30 2.00165C29.6134 2.00165 28.3334 1.63498 27.5467 1.36831C27.4067 1.32165 27.26 1.32165 27.1267 1.36831C26.34 1.62831 25.0534 2.00165 24.6734 2.00165C24.2934 2.00165 24.0067 2.30165 24.0067 2.66831V6.66831C24.0067 8.32831 26.5334 9.67498 27.04 9.92831C27.1334 9.97498 27.2334 10.0016 27.34 10.0016C27.4267 10.0016 27.52 9.98165 27.6067 9.94831C27.64 9.93498 30.6734 8.59498 30.6734 6.66831V2.66831C30.6734 2.30165 30.3734 2.00165 30.0067 2.00165H30ZM29.3334 6.66831C29.3334 7.32831 28.0867 8.19498 27.3467 8.58831C26.4267 8.06831 25.3334 7.20831 25.3334 6.66831V3.24831C26.0267 3.10831 26.9 2.84165 27.3334 2.70165C27.7667 2.84165 28.64 3.11498 29.3334 3.24831V6.66831Z" fill="black" fill-opacity="0.72"/>
</g>
</g>
</svg>
