<svg width="32" height="32" viewBox="0 0 32 32" fill="none" xmlns="http://www.w3.org/2000/svg">
<g id="illustrative / md / filter-md">
<g id="icon">
<path d="M19.3334 8.66669H11.3334C10.6 8.66669 10 9.26669 10 10V12C10 12.5334 10.2067 13.0334 10.5867 13.4134L13.14 15.9667C13.2667 16.0934 13.3334 16.26 13.3334 16.44V18.28C13.3334 18.6334 13.4734 18.9734 13.7267 19.22L15.06 20.5534C15.3134 20.8067 15.6534 20.9467 16 20.9467C16.1734 20.9467 16.3467 20.9134 16.5134 20.8467C17.0134 20.64 17.3334 20.1534 17.3334 19.6134V16.44C17.3334 16.26 17.4 16.0934 17.5267 15.9667L20.08 13.4134C20.46 13.0334 20.6667 12.5334 20.6667 12V10C20.6667 9.26669 20.0667 8.66669 19.3334 8.66669ZM19.3334 10V11.3334H11.3334V10H19.3334ZM16.5867 15.0267C16.2067 15.4067 16 15.9067 16 16.44V19.6134L14.6667 18.28V16.44C14.6667 15.9067 14.46 15.4067 14.08 15.0267L11.72 12.6667H18.94L16.58 15.0267H16.5867Z" fill="black" fill-opacity="0.72"/>
<path d="M27.3334 4.66669H4.66671C2.82671 4.66669 1.33337 6.16002 1.33337 8.00002V21.3334C1.33337 23.1734 2.82671 24.6667 4.66671 24.6667H15.3334V26.6667H12C11.6334 26.6667 11.3334 26.9667 11.3334 27.3334C11.3334 27.7 11.6334 28 12 28H20C20.3667 28 20.6667 27.7 20.6667 27.3334C20.6667 26.9667 20.3667 26.6667 20 26.6667H16.6667V24.6667H27.3334C29.1734 24.6667 30.6667 23.1734 30.6667 21.3334V8.00002C30.6667 6.16002 29.1734 4.66669 27.3334 4.66669ZM29.3334 21.3334C29.3334 22.4334 28.4334 23.3334 27.3334 23.3334H4.66671C3.56671 23.3334 2.66671 22.4334 2.66671 21.3334V8.00002C2.66671 6.90002 3.56671 6.00002 4.66671 6.00002H27.3334C28.4334 6.00002 29.3334 6.90002 29.3334 8.00002V21.3334Z" fill="black" fill-opacity="0.72"/>
<path d="M27.3334 8.66669C27.7016 8.66669 28 8.36821 28 8.00002C28 7.63183 27.7016 7.33335 27.3334 7.33335C26.9652 7.33335 26.6667 7.63183 26.6667 8.00002C26.6667 8.36821 26.9652 8.66669 27.3334 8.66669Z" fill="black" fill-opacity="0.72"/>
<path d="M25.3334 8.66669C25.7016 8.66669 26 8.36821 26 8.00002C26 7.63183 25.7016 7.33335 25.3334 7.33335C24.9652 7.33335 24.6667 7.63183 24.6667 8.00002C24.6667 8.36821 24.9652 8.66669 25.3334 8.66669Z" fill="black" fill-opacity="0.72"/>
<path d="M23.3334 8.66669C23.7016 8.66669 24 8.36821 24 8.00002C24 7.63183 23.7016 7.33335 23.3334 7.33335C22.9652 7.33335 22.6667 7.63183 22.6667 8.00002C22.6667 8.36821 22.9652 8.66669 23.3334 8.66669Z" fill="black" fill-opacity="0.72"/>
</g>
</g>
</svg>
