<svg width="32" height="32" viewBox="0 0 32 32" fill="none" xmlns="http://www.w3.org/2000/svg">
<g id="illustrative / md / close-account-md">
<g id="icon">
<path d="M9.33337 23.3333C10.9867 23.3333 12.3334 21.9866 12.3334 20.3333C12.3334 18.68 10.9867 17.3333 9.33337 17.3333C7.68004 17.3333 6.33337 18.68 6.33337 20.3333C6.33337 21.9866 7.68004 23.3333 9.33337 23.3333ZM9.33337 18.6666C10.2534 18.6666 11 19.4133 11 20.3333C11 21.2533 10.2534 22 9.33337 22C8.41337 22 7.66671 21.2533 7.66671 20.3333C7.66671 19.4133 8.41337 18.6666 9.33337 18.6666Z" fill="black" fill-opacity="0.72"/>
<path d="M15.3334 20H21.3334C21.7 20 22 19.7 22 19.3333C22 18.9666 21.7 18.6666 21.3334 18.6666H15.3334C14.9667 18.6666 14.6667 18.9666 14.6667 19.3333C14.6667 19.7 14.9667 20 15.3334 20Z" fill="black" fill-opacity="0.72"/>
<path d="M15.3334 22.6666H20C20.3667 22.6666 20.6667 22.3666 20.6667 22C20.6667 21.6333 20.3667 21.3333 20 21.3333H15.3334C14.9667 21.3333 14.6667 21.6333 14.6667 22C14.6667 22.3666 14.9667 22.6666 15.3334 22.6666Z" fill="black" fill-opacity="0.72"/>
<path d="M22 10.6666H4.66671C2.82671 10.6666 1.33337 12.16 1.33337 14V27.3333C1.33337 29.1733 2.82671 30.6666 4.66671 30.6666H22C23.84 30.6666 25.3334 29.1733 25.3334 27.3333V14C25.3334 12.16 23.84 10.6666 22 10.6666ZM4.66671 12H22C23.1 12 24 12.9 24 14H2.66671C2.66671 12.9 3.56671 12 4.66671 12ZM24 27.3333C24 28.4333 23.1 29.3333 22 29.3333H14V26.6666C14 25.1933 12.8067 24 11.3334 24C10.9667 24 10.6667 24.3 10.6667 24.6666C10.6667 25.0333 10.9667 25.3333 11.3334 25.3333C12.0667 25.3333 12.6667 25.9333 12.6667 26.6666V29.3333H6.00004V26.6666C6.00004 25.9333 6.60004 25.3333 7.33337 25.3333C7.70004 25.3333 8.00004 25.0333 8.00004 24.6666C8.00004 24.3 7.70004 24 7.33337 24C5.86004 24 4.66671 25.1933 4.66671 26.6666V29.3333C3.56671 29.3333 2.66671 28.4333 2.66671 27.3333V15.3333H24V27.3333Z" fill="black" fill-opacity="0.72"/>
<path d="M26.3334 1.33331C23.94 1.33331 22 3.27331 22 5.66665C22 8.05998 23.94 9.99998 26.3334 9.99998C28.7267 9.99998 30.6667 8.05998 30.6667 5.66665C30.6667 3.27331 28.7267 1.33331 26.3334 1.33331ZM26.3334 8.66665C24.68 8.66665 23.3334 7.31998 23.3334 5.66665C23.3334 4.01331 24.68 2.66665 26.3334 2.66665C27.9867 2.66665 29.3334 4.01331 29.3334 5.66665C29.3334 7.31998 27.9867 8.66665 26.3334 8.66665Z" fill="black" fill-opacity="0.72"/>
<path d="M27.4734 4.52665C27.2134 4.26665 26.7934 4.26665 26.5334 4.52665L26.34 4.71998L26.1467 4.52665C25.8867 4.26665 25.4667 4.26665 25.2067 4.52665C24.9467 4.78665 24.9467 5.20665 25.2067 5.46665L25.4 5.65998L25.2067 5.85331C24.9467 6.11331 24.9467 6.53331 25.2067 6.79331C25.34 6.92665 25.5067 6.98665 25.68 6.98665C25.8534 6.98665 26.02 6.91998 26.1534 6.79331L26.3467 6.59998L26.54 6.79331C26.6734 6.92665 26.84 6.98665 27.0134 6.98665C27.1867 6.98665 27.3534 6.91998 27.4867 6.79331C27.7467 6.53331 27.7467 6.11331 27.4867 5.85331L27.2934 5.65998L27.4867 5.46665C27.7467 5.20665 27.7467 4.78665 27.4867 4.52665H27.4734Z" fill="black" fill-opacity="0.72"/>
</g>
</g>
</svg>
