<svg width="32" height="32" viewBox="0 0 32 32" fill="none" xmlns="http://www.w3.org/2000/svg">
<g id="illustrative / md / basket-md">
<g id="icon">
<path d="M15.9731 20.5734H15.5598C15.5598 18.0534 13.5065 16 10.9865 16C8.46648 16 6.41314 18.0534 6.41314 20.5734H5.99981C5.38648 20.5734 4.81314 20.8467 4.43314 21.3334C4.05314 21.82 3.91314 22.4334 4.05314 23.0334L5.33314 28.46C5.54648 29.3667 6.34648 30 7.27981 30H14.6931C15.6265 30 16.4265 29.3667 16.6398 28.46L17.9198 23.0334C18.0598 22.4334 17.9198 21.8134 17.5398 21.3334C17.1598 20.8534 16.5865 20.5734 15.9731 20.5734ZM10.9931 17.3334C12.7798 17.3334 14.2331 18.7867 14.2331 20.5734H7.75314C7.75314 18.7867 9.20647 17.3334 10.9931 17.3334ZM16.6265 22.7267L15.3465 28.1534C15.2731 28.4534 15.0065 28.6667 14.6998 28.6667H7.28648C6.97314 28.6667 6.70648 28.4534 6.63981 28.1534L5.35981 22.7267C5.31314 22.5267 5.35981 22.32 5.48648 22.16C5.61314 22 5.80648 21.9067 6.00648 21.9067H15.9731C16.1798 21.9067 16.3665 22 16.4931 22.16C16.6198 22.32 16.6665 22.5267 16.6198 22.7267H16.6265Z" fill="black" fill-opacity="0.72"/>
<path d="M10.9931 23.4267C10.6265 23.4267 10.3265 23.7267 10.3265 24.0934V26.4734C10.3265 26.84 10.6265 27.14 10.9931 27.14C11.3598 27.14 11.6598 26.84 11.6598 26.4734V24.0934C11.6598 23.7267 11.3598 23.4267 10.9931 23.4267Z" fill="black" fill-opacity="0.72"/>
<path d="M13.9798 23.44C13.6198 23.3667 13.2665 23.6 13.1931 23.96L12.7198 26.34C12.6465 26.7 12.8798 27.0534 13.2398 27.1267C13.2865 27.1334 13.3265 27.14 13.3731 27.14C13.6865 27.14 13.9598 26.92 14.0265 26.6067L14.4998 24.2267C14.5731 23.8667 14.3398 23.5134 13.9798 23.44Z" fill="black" fill-opacity="0.72"/>
<path d="M8.00647 23.44C7.64648 23.5134 7.41314 23.86 7.47981 24.2267L7.95314 26.6067C8.01314 26.9267 8.29314 27.14 8.60647 27.14C8.65314 27.14 8.69314 27.14 8.73981 27.1267C9.09981 27.0534 9.33314 26.7067 9.25981 26.34L8.78648 23.96C8.71314 23.6 8.35981 23.3667 7.99981 23.4334L8.00647 23.44Z" fill="black" fill-opacity="0.72"/>
<path d="M9.33981 2.66669C8.23981 2.66669 7.33981 3.56669 7.33981 4.66669V12C7.33981 13.1 8.23981 14 9.33981 14H16.0065V16C16.0065 16.2667 16.1665 16.5134 16.4198 16.6134C16.4998 16.6467 16.5865 16.6667 16.6731 16.6667C16.8465 16.6667 17.0198 16.6 17.1465 16.4734L19.6198 14H26.0131C27.1131 14 28.0131 13.1 28.0131 12V4.66669C28.0131 3.56669 27.1131 2.66669 26.0131 2.66669H9.33981ZM26.6731 12C26.6731 12.3667 26.3731 12.6667 26.0065 12.6667H19.3398C19.1598 12.6667 18.9931 12.74 18.8665 12.86L17.3398 14.3867V13.3267C17.3398 12.96 17.0398 12.66 16.6731 12.66H9.33981C8.97314 12.66 8.67314 12.36 8.67314 11.9934V4.66669C8.67314 4.30002 8.97314 4.00002 9.33981 4.00002H26.0065C26.3731 4.00002 26.6731 4.30002 26.6731 4.66669V12Z" fill="black" fill-opacity="0.72"/>
<path d="M24.3598 6.26002C24.0998 6.00002 23.6798 6.00002 23.4198 6.26002L20.2731 9.40669C20.0131 9.66669 20.0131 10.0867 20.2731 10.3467C20.4065 10.48 20.5731 10.54 20.7465 10.54C20.9198 10.54 21.0865 10.4734 21.2198 10.3467L24.3665 7.20002C24.6265 6.94002 24.6265 6.52002 24.3665 6.26002H24.3598Z" fill="black" fill-opacity="0.72"/>
<path d="M20.7398 7.52002C21.1731 7.52002 21.5265 7.16669 21.5265 6.73335C21.5265 6.30002 21.1731 5.94669 20.7398 5.94669C20.3065 5.94669 19.9531 6.30002 19.9531 6.73335C19.9531 7.16669 20.3065 7.52002 20.7398 7.52002Z" fill="black" fill-opacity="0.72"/>
<path d="M23.8865 9.09335C23.4531 9.09335 23.0998 9.44669 23.0998 9.88002C23.0998 10.3134 23.4531 10.6667 23.8865 10.6667C24.3198 10.6667 24.6731 10.3134 24.6731 9.88002C24.6731 9.44669 24.3198 9.09335 23.8865 9.09335Z" fill="black" fill-opacity="0.72"/>
<path d="M13.3398 9.33335H12.5198L13.3065 8.02002C13.5598 7.60002 13.5598 7.10002 13.3198 6.68002C13.0798 6.26002 12.6465 6.00669 12.1598 6.00669H11.3398C10.9731 6.00669 10.6731 6.30669 10.6731 6.67335C10.6731 7.04002 10.9731 7.34002 11.3398 7.34002H12.1598L10.7665 9.66669C10.6398 9.87335 10.6398 10.1267 10.7598 10.34C10.8798 10.5467 11.0998 10.68 11.3398 10.68H13.3398C13.7065 10.68 14.0065 10.38 14.0065 10.0134C14.0065 9.64669 13.7065 9.34669 13.3398 9.34669V9.33335Z" fill="black" fill-opacity="0.72"/>
<path d="M16.6731 6.00002C15.5731 6.00002 14.6731 6.90002 14.6731 8.00002V8.66669C14.6731 9.76669 15.5731 10.6667 16.6731 10.6667C17.7731 10.6667 18.6731 9.76669 18.6731 8.66669V8.00002C18.6731 6.90002 17.7731 6.00002 16.6731 6.00002ZM17.3398 8.66669C17.3398 9.03335 17.0398 9.33335 16.6731 9.33335C16.3065 9.33335 16.0065 9.03335 16.0065 8.66669V8.00002C16.0065 7.63335 16.3065 7.33335 16.6731 7.33335C17.0398 7.33335 17.3398 7.63335 17.3398 8.00002V8.66669Z" fill="black" fill-opacity="0.72"/>
</g>
</g>
</svg>
