<svg width="32" height="32" viewBox="0 0 32 32" fill="none" xmlns="http://www.w3.org/2000/svg">
<g id="illustrative / md / charts-md">
<g id="icon">
<path d="M7.33333 21.3334H6.66667C5.56667 21.3334 4.66667 22.2334 4.66667 23.3334V27.3334C4.66667 28.4334 5.56667 29.3334 6.66667 29.3334H7.33333C8.43333 29.3334 9.33333 28.4334 9.33333 27.3334V23.3334C9.33333 22.2334 8.43333 21.3334 7.33333 21.3334ZM8 27.3334C8 27.7 7.7 28 7.33333 28H6.66667C6.3 28 6 27.7 6 27.3334V23.3334C6 22.9667 6.3 22.6667 6.66667 22.6667H7.33333C7.7 22.6667 8 22.9667 8 23.3334V27.3334Z" fill="black" fill-opacity="0.72"/>
<path d="M13.3333 16H12.6667C11.5667 16 10.6667 16.9 10.6667 18V27.3334C10.6667 28.4334 11.5667 29.3334 12.6667 29.3334H13.3333C14.4333 29.3334 15.3333 28.4334 15.3333 27.3334V18C15.3333 16.9 14.4333 16 13.3333 16ZM14 27.3334C14 27.7 13.7 28 13.3333 28H12.6667C12.3 28 12 27.7 12 27.3334V18C12 17.6334 12.3 17.3334 12.6667 17.3334H13.3333C13.7 17.3334 14 17.6334 14 18V27.3334Z" fill="black" fill-opacity="0.72"/>
<path d="M19.3333 20.6667H18.6667C17.5667 20.6667 16.6667 21.5667 16.6667 22.6667V27.3334C16.6667 28.4334 17.5667 29.3334 18.6667 29.3334H19.3333C20.4333 29.3334 21.3333 28.4334 21.3333 27.3334V22.6667C21.3333 21.5667 20.4333 20.6667 19.3333 20.6667ZM20 27.3334C20 27.7 19.7 28 19.3333 28H18.6667C18.3 28 18 27.7 18 27.3334V22.6667C18 22.3 18.3 22 18.6667 22H19.3333C19.7 22 20 22.3 20 22.6667V27.3334Z" fill="black" fill-opacity="0.72"/>
<path d="M25.3333 14.6667H24.6667C23.5667 14.6667 22.6667 15.5667 22.6667 16.6667V27.3334C22.6667 28.4334 23.5667 29.3334 24.6667 29.3334H25.3333C26.4333 29.3334 27.3333 28.4334 27.3333 27.3334V16.6667C27.3333 15.5667 26.4333 14.6667 25.3333 14.6667ZM26 27.3334C26 27.7 25.7 28 25.3333 28H24.6667C24.3 28 24 27.7 24 27.3334V16.6667C24 16.3 24.3 16 24.6667 16H25.3333C25.7 16 26 16.3 26 16.6667V27.3334Z" fill="black" fill-opacity="0.72"/>
<path d="M17.9533 12C17.8533 13.1334 17.5067 14.2267 16.9067 15.1934C16.7133 15.5067 16.8067 15.92 17.12 16.1134C17.2267 16.18 17.3533 16.2134 17.4733 16.2134C17.6933 16.2134 17.9133 16.1 18.04 15.9C18.8867 14.5334 19.3333 12.9534 19.3333 11.34C19.3333 10.9734 19.0333 10.6734 18.6667 10.6734H11.3333V3.33335C11.3333 2.96669 11.0333 2.66669 10.6667 2.66669C5.88667 2.66669 2 6.55335 2 11.3334C2 15.1534 4.44667 18.48 8.08667 19.6134C8.15333 19.6334 8.22 19.64 8.28667 19.64C8.57333 19.64 8.83333 19.46 8.92667 19.1734C9.03333 18.82 8.84 18.4467 8.48667 18.34C5.40667 17.38 3.33333 14.5667 3.33333 11.3334C3.33333 7.51335 6.26667 4.37335 10 4.03335V11.3334C10 11.7 10.3 12 10.6667 12H17.9533Z" fill="black" fill-opacity="0.72"/>
<path d="M13.3333 9.33335H18.6667C19.0333 9.33335 19.3333 9.03335 19.3333 8.66669C19.3333 5.36002 16.64 2.66669 13.3333 2.66669C12.9667 2.66669 12.6667 2.96669 12.6667 3.33335V8.66669C12.6667 9.03335 12.9667 9.33335 13.3333 9.33335ZM14 4.04669C16.04 4.34002 17.66 5.96002 17.9533 8.00002H14V4.04669Z" fill="black" fill-opacity="0.72"/>
<path d="M30 5.33335C30 4.96669 29.7 4.66669 29.3333 4.66669H22C21.6333 4.66669 21.3333 4.96669 21.3333 5.33335C21.3333 5.70002 21.6333 6.00002 22 6.00002H29.3333C29.7 6.00002 30 5.70002 30 5.33335Z" fill="black" fill-opacity="0.72"/>
<path d="M29.3333 7.33335H24C23.6333 7.33335 23.3333 7.63335 23.3333 8.00002C23.3333 8.36669 23.6333 8.66669 24 8.66669H29.3333C29.7 8.66669 30 8.36669 30 8.00002C30 7.63335 29.7 7.33335 29.3333 7.33335Z" fill="black" fill-opacity="0.72"/>
<path d="M29.3333 10H26.6667C26.3 10 26 10.3 26 10.6667C26 11.0334 26.3 11.3334 26.6667 11.3334H29.3333C29.7 11.3334 30 11.0334 30 10.6667C30 10.3 29.7 10 29.3333 10Z" fill="black" fill-opacity="0.72"/>
</g>
</g>
</svg>
