<svg width="32" height="32" viewBox="0 0 32 32" fill="none" xmlns="http://www.w3.org/2000/svg">
<g id="illustrative / md / licensed-and-regulated-md">
<g id="icon">
<path d="M19.8134 8.22665C17.9467 7.77331 13.4134 6.58665 11.7067 5.44665C11.48 5.29998 11.1934 5.29998 10.9667 5.44665C9.26004 6.58665 4.72671 7.77331 2.86004 8.22665C1.96004 8.44665 1.33337 9.24665 1.33337 10.1666V19.22C1.33337 24.48 5.32671 27.0733 8.00004 28.2133V28.92C8.00004 29.3866 8.23337 29.8066 8.63337 30.0533C9.02671 30.3 9.51337 30.32 9.93337 30.1133L11.34 29.4133L12.7467 30.1133C12.9334 30.2066 13.14 30.2533 13.34 30.2533C13.58 30.2533 13.8267 30.1866 14.04 30.0533C14.4334 29.8066 14.6734 29.3866 14.6734 28.92V28.2133C17.3467 27.0733 21.34 24.4866 21.34 19.22V10.1666C21.34 9.23998 20.7134 8.43998 19.82 8.22665H19.8134ZM11.3334 21.3333C9.12671 21.3333 7.33337 19.54 7.33337 17.3333C7.33337 15.1266 9.12671 13.3333 11.3334 13.3333C13.54 13.3333 15.3334 15.1266 15.3334 17.3333C15.3334 19.54 13.54 21.3333 11.3334 21.3333ZM13.3334 28.92L11.6334 28.0666C11.4467 27.9733 11.2267 27.9733 11.04 28.0666L9.34004 28.92V22.2733C9.96004 22.5266 10.6334 22.6666 11.34 22.6666C12.0467 22.6666 12.72 22.5266 13.34 22.2733V28.92H13.3334ZM20 19.22C20 23.2666 17.28 25.52 14.6667 26.7533V21.4933C15.8867 20.5133 16.6667 19.0133 16.6667 17.3333C16.6667 14.3933 14.2734 12 11.3334 12C8.39337 12 6.00004 14.3933 6.00004 17.3333C6.00004 19.0133 6.78004 20.5133 8.00004 21.4933V26.7533C5.38671 25.52 2.66671 23.2666 2.66671 19.22V10.1666C2.66671 9.85998 2.87337 9.59331 3.17337 9.51998C5.42671 8.96665 9.35337 7.90665 11.3334 6.77998C13.3134 7.90665 17.24 8.96665 19.4934 9.51998C19.7934 9.59331 20 9.85998 20 10.1666V19.22Z" fill="black" fill-opacity="0.72"/>
<path d="M11.3334 14.6666C9.86004 14.6666 8.66671 15.86 8.66671 17.3333C8.66671 18.8066 9.86004 20 11.3334 20C12.8067 20 14 18.8066 14 17.3333C14 15.86 12.8067 14.6666 11.3334 14.6666ZM11.3334 18.6666C10.6 18.6666 10 18.0666 10 17.3333C10 16.6 10.6 16 11.3334 16C12.0667 16 12.6667 16.6 12.6667 17.3333C12.6667 18.0666 12.0667 18.6666 11.3334 18.6666Z" fill="black" fill-opacity="0.72"/>
<path d="M26.3334 1.33331C23.94 1.33331 22 3.27331 22 5.66665C22 8.05998 23.94 9.99998 26.3334 9.99998C28.7267 9.99998 30.6667 8.05998 30.6667 5.66665C30.6667 3.27331 28.7267 1.33331 26.3334 1.33331ZM26.3334 8.66665C24.68 8.66665 23.3334 7.31998 23.3334 5.66665C23.3334 4.01331 24.68 2.66665 26.3334 2.66665C27.9867 2.66665 29.3334 4.01331 29.3334 5.66665C29.3334 7.31998 27.9867 8.66665 26.3334 8.66665Z" fill="black" fill-opacity="0.72"/>
<path d="M26.86 4.85998L26 5.71998L25.8067 5.52665C25.5467 5.26665 25.1267 5.26665 24.8667 5.52665C24.6067 5.78665 24.6067 6.20665 24.8667 6.46665L25.5334 7.13331C25.6667 7.26665 25.8334 7.32665 26.0067 7.32665C26.18 7.32665 26.3467 7.25998 26.48 7.13331L27.8134 5.79998C28.0734 5.53998 28.0734 5.11998 27.8134 4.85998C27.5534 4.59998 27.1334 4.59998 26.8734 4.85998H26.86Z" fill="black" fill-opacity="0.72"/>
</g>
</g>
</svg>
