<svg width="32" height="32" viewBox="0 0 32 32" fill="none" xmlns="http://www.w3.org/2000/svg">
<g id="illustrative / md / competence-md">
<g id="icon">
<path d="M16 9.99994C17.6534 9.99994 19 8.65327 19 6.99994C19 5.34661 17.6534 3.99994 16 3.99994C14.3467 3.99994 13 5.34661 13 6.99994C13 8.65327 14.3467 9.99994 16 9.99994ZM16 5.33327C16.92 5.33327 17.6667 6.07994 17.6667 6.99994C17.6667 7.91994 16.92 8.66661 16 8.66661C15.08 8.66661 14.3334 7.91994 14.3334 6.99994C14.3334 6.07994 15.08 5.33327 16 5.33327Z" fill="black" fill-opacity="0.72"/>
<path d="M18 10.6666C17.6334 10.6666 17.3334 10.9666 17.3334 11.3333C17.3334 11.6999 17.6334 11.9999 18 11.9999C18.7334 11.9999 19.3334 12.5999 19.3334 13.3333V15.3333C19.3334 15.6999 19.0334 15.9999 18.6667 15.9999H13.3334C12.9667 15.9999 12.6667 15.6999 12.6667 15.3333V13.3333C12.6667 12.5999 13.2667 11.9999 14 11.9999C14.3667 11.9999 14.6667 11.6999 14.6667 11.3333C14.6667 10.9666 14.3667 10.6666 14 10.6666C12.5267 10.6666 11.3334 11.8599 11.3334 13.3333V15.3333C11.3334 16.4333 12.2334 17.3333 13.3334 17.3333H18.6667C19.7667 17.3333 20.6667 16.4333 20.6667 15.3333V13.3333C20.6667 11.8599 19.4734 10.6666 18 10.6666Z" fill="black" fill-opacity="0.72"/>
<path d="M8.66671 5.77994C7.44004 5.77994 6.44671 6.77994 6.44671 7.99994C6.44671 9.21994 7.44671 10.2199 8.66671 10.2199C9.88671 10.2199 10.8867 9.21994 10.8867 7.99994C10.8867 6.77994 9.88671 5.77994 8.66671 5.77994ZM8.66671 8.89327C8.17337 8.89327 7.78004 8.49327 7.78004 8.00661C7.78004 7.51994 8.18004 7.11994 8.66671 7.11994C9.15337 7.11994 9.55337 7.51994 9.55337 8.00661C9.55337 8.49327 9.15337 8.89327 8.66671 8.89327Z" fill="black" fill-opacity="0.72"/>
<path d="M6.88671 16.2266H9.33337C9.70004 16.2266 10 15.9266 10 15.5599C10 15.1933 9.70004 14.8933 9.33337 14.8933H6.88671C6.76671 14.8933 6.66671 14.7933 6.66671 14.6733V13.3399C6.66671 12.9733 6.96671 12.6733 7.33337 12.6733C7.70004 12.6733 8.00004 12.3733 8.00004 12.0066C8.00004 11.6399 7.70004 11.3399 7.33337 11.3399C6.23337 11.3399 5.33337 12.2399 5.33337 13.3399V14.6733C5.33337 15.5333 6.03337 16.2266 6.88671 16.2266Z" fill="black" fill-opacity="0.72"/>
<path d="M23.3334 10.2266C24.56 10.2266 25.5534 9.22661 25.5534 8.00661C25.5534 6.78661 24.5534 5.78661 23.3334 5.78661C22.1134 5.78661 21.1134 6.78661 21.1134 8.00661C21.1134 9.22661 22.1134 10.2266 23.3334 10.2266ZM23.3334 7.11327C23.8267 7.11327 24.22 7.51327 24.22 7.99994C24.22 8.48661 23.82 8.88661 23.3334 8.88661C22.8467 8.88661 22.4467 8.48661 22.4467 7.99994C22.4467 7.51327 22.8467 7.11327 23.3334 7.11327Z" fill="black" fill-opacity="0.72"/>
<path d="M24 12.0066C24 12.3733 24.3 12.6733 24.6667 12.6733C25.0334 12.6733 25.3334 12.9733 25.3334 13.3399V14.6733C25.3334 14.7933 25.2334 14.8933 25.1134 14.8933H22.6667C22.3 14.8933 22 15.1933 22 15.5599C22 15.9266 22.3 16.2266 22.6667 16.2266H25.1134C25.9734 16.2266 26.6667 15.5266 26.6667 14.6733V13.3399C26.6667 12.2399 25.7667 11.3399 24.6667 11.3399C24.3 11.3399 24 11.6399 24 12.0066Z" fill="black" fill-opacity="0.72"/>
<path d="M18.76 21.8799L18.02 21.7733C17.8 21.7399 17.6134 21.6066 17.52 21.4066L17.1934 20.7399C16.9667 20.2799 16.5067 19.9933 16 19.9933C15.4934 19.9933 15.0334 20.2799 14.8067 20.7399L14.48 21.4066C14.38 21.5999 14.1934 21.7399 13.98 21.7733L13.2467 21.8799C12.74 21.9533 12.3267 22.2999 12.1734 22.7866C12.0134 23.2733 12.1467 23.7933 12.5067 24.1533L13.04 24.6733C13.2 24.8266 13.2667 25.0466 13.2334 25.2599L13.1067 25.9933C13.02 26.4999 13.2267 26.9933 13.64 27.2999C13.8734 27.4666 14.1467 27.5533 14.42 27.5533C14.6334 27.5533 14.8467 27.4999 15.04 27.3999L15.7 27.0533C15.8934 26.9533 16.1267 26.9533 16.32 27.0533L16.98 27.3999C17.4334 27.6399 17.9734 27.5999 18.3867 27.2999C18.8 26.9999 19.0067 26.4999 18.92 25.9933L18.7934 25.2599C18.7534 25.0466 18.8267 24.8199 18.9867 24.6733L19.52 24.1533C19.8867 23.7933 20.0134 23.2733 19.86 22.7866C19.7 22.2999 19.2867 21.9533 18.7867 21.8799H18.76ZM18.0334 23.7199C17.56 24.1799 17.3467 24.8399 17.46 25.4933L17.5867 26.2266L16.9267 25.8799C16.3467 25.5733 15.6467 25.5733 15.0667 25.8799L14.4067 26.2266L14.5334 25.4933C14.6467 24.8466 14.4267 24.1799 13.96 23.7266L13.4267 23.2066L14.16 23.0999C14.8134 23.0066 15.3734 22.5999 15.6667 22.0066L15.9934 21.3333L16.3267 22.0066C16.62 22.5999 17.18 23.0066 17.8334 23.0999L18.5734 23.2066L18.04 23.7266L18.0334 23.7199Z" fill="black" fill-opacity="0.72"/>
<path d="M26.6 21.6399L25.3934 21.4666L24.8534 20.3733C24.6267 19.9199 23.88 19.9199 23.66 20.3733L23.12 21.4666L21.9134 21.6399C21.66 21.6733 21.4534 21.8533 21.3734 22.0933C21.2934 22.3333 21.36 22.5999 21.54 22.7799L22.4134 23.6333L22.2067 24.8399C22.1667 25.0933 22.2667 25.3399 22.4734 25.4933C22.68 25.6399 22.9534 25.6599 23.1734 25.5466L24.2534 24.9799L25.3334 25.5466C25.4334 25.5999 25.54 25.6266 25.64 25.6266C25.78 25.6266 25.9134 25.5866 26.0334 25.4999C26.24 25.3533 26.34 25.0999 26.3 24.8466L26.0934 23.6399L26.9667 22.7866C27.1467 22.6066 27.2134 22.3466 27.1334 22.1066C27.0534 21.8666 26.8467 21.6866 26.5934 21.6533L26.6 21.6399ZM24.7667 23.7399C24.44 23.5999 24.0667 23.5999 23.74 23.7399C23.7667 23.3866 23.6534 23.0333 23.42 22.7666C23.7667 22.6866 24.0667 22.4666 24.2534 22.1599C24.44 22.4666 24.74 22.6799 25.0867 22.7666C24.8534 23.0333 24.74 23.3866 24.7667 23.7399Z" fill="black" fill-opacity="0.72"/>
<path d="M10.0934 21.6399L8.88671 21.4666L8.34671 20.3733C8.12004 19.9199 7.37337 19.9199 7.15337 20.3733L6.61337 21.4666L5.40671 21.6399C5.15337 21.6733 4.94671 21.8533 4.86671 22.0933C4.78671 22.3333 4.85337 22.5999 5.03337 22.7733L5.90671 23.6266L5.70004 24.8333C5.66004 25.0866 5.76004 25.3333 5.96671 25.4866C6.17337 25.6333 6.44671 25.6533 6.66671 25.5399L7.74671 24.9733L8.82671 25.5399C8.92671 25.5933 9.03337 25.6199 9.13337 25.6199C9.27337 25.6199 9.40671 25.5799 9.52671 25.4933C9.73337 25.3466 9.83337 25.0933 9.79337 24.8399L9.58671 23.6333L10.46 22.7799C10.64 22.5999 10.7067 22.3399 10.6267 22.0933C10.5467 21.8533 10.34 21.6799 10.0867 21.6399H10.0934ZM8.26004 23.7399C7.93337 23.5999 7.56004 23.5999 7.23337 23.7399C7.26004 23.3866 7.14671 23.0333 6.91337 22.7599C7.26004 22.6799 7.56004 22.4599 7.74671 22.1533C7.93337 22.4599 8.23337 22.6733 8.58004 22.7599C8.34671 23.0266 8.23337 23.3799 8.26004 23.7333V23.7399Z" fill="black" fill-opacity="0.72"/>
<path d="M3.33337 15.9999C3.70004 15.9999 4.00004 15.6999 4.00004 15.3333C4.00004 14.9666 3.70004 14.6666 3.33337 14.6666C2.23337 14.6666 1.33337 15.5666 1.33337 16.6666V22.6666C1.33337 23.7666 2.23337 24.6666 3.33337 24.6666C3.70004 24.6666 4.00004 24.3666 4.00004 23.9999C4.00004 23.6333 3.70004 23.3333 3.33337 23.3333C2.96671 23.3333 2.66671 23.0333 2.66671 22.6666V16.6666C2.66671 16.2999 2.96671 15.9999 3.33337 15.9999Z" fill="black" fill-opacity="0.72"/>
<path d="M28.6667 14.6666C28.3 14.6666 28 14.9666 28 15.3333C28 15.6999 28.3 15.9999 28.6667 15.9999C29.0334 15.9999 29.3334 16.2999 29.3334 16.6666V22.6666C29.3334 23.0333 29.0334 23.3333 28.6667 23.3333C28.3 23.3333 28 23.6333 28 23.9999C28 24.3666 28.3 24.6666 28.6667 24.6666C29.7667 24.6666 30.6667 23.7666 30.6667 22.6666V16.6666C30.6667 15.5666 29.7667 14.6666 28.6667 14.6666Z" fill="black" fill-opacity="0.72"/>
</g>
</g>
</svg>
