<svg width="32" height="32" viewBox="0 0 32 32" fill="none" xmlns="http://www.w3.org/2000/svg">
<g id="illustrative / md / record-md">
<g id="icon">
<path d="M22 26H21.3333V11.3333C21.3333 10.2333 20.4333 9.33333 19.3333 9.33333H4C2.9 9.33333 2 10.2333 2 11.3333V16C2 17.1 2.9 18 4 18H4.66667V28.6667C4.66667 29.7667 5.56667 30.6667 6.66667 30.6667H22C23.1 30.6667 24 29.7667 24 28.6667V28C24 26.9 23.1 26 22 26ZM20 11.3333V26H9.33333C8.23333 26 7.33333 26.9 7.33333 28V28.6667C7.33333 29.0333 7.03333 29.3333 6.66667 29.3333C6.3 29.3333 6 29.0333 6 28.6667V11.3333C6 11.1 5.95333 10.8733 5.88 10.6667H19.3333C19.7 10.6667 20 10.9667 20 11.3333ZM4 16.6667C3.63333 16.6667 3.33333 16.3667 3.33333 16V11.3333C3.33333 10.9667 3.63333 10.6667 4 10.6667C4.36667 10.6667 4.66667 10.9667 4.66667 11.3333V16.6667H4ZM22.6667 28.6667C22.6667 29.0333 22.3667 29.3333 22 29.3333H8.54667C8.62 29.1267 8.66667 28.9 8.66667 28.6667V28C8.66667 27.6333 8.96667 27.3333 9.33333 27.3333H22C22.3667 27.3333 22.6667 27.6333 22.6667 28V28.6667Z" fill="black" fill-opacity="0.72"/>
<path d="M11.3333 15.3333H17.3333C17.7 15.3333 18 15.0333 18 14.6667C18 14.3 17.7 14 17.3333 14H11.3333C10.9667 14 10.6667 14.3 10.6667 14.6667C10.6667 15.0333 10.9667 15.3333 11.3333 15.3333Z" fill="black" fill-opacity="0.72"/>
<path d="M11.3333 18H17.3333C17.7 18 18 17.7 18 17.3333C18 16.9667 17.7 16.6667 17.3333 16.6667H11.3333C10.9667 16.6667 10.6667 16.9667 10.6667 17.3333C10.6667 17.7 10.9667 18 11.3333 18Z" fill="black" fill-opacity="0.72"/>
<path d="M11.3333 20.6667H17.3333C17.7 20.6667 18 20.3667 18 20C18 19.6333 17.7 19.3333 17.3333 19.3333H11.3333C10.9667 19.3333 10.6667 19.6333 10.6667 20C10.6667 20.3667 10.9667 20.6667 11.3333 20.6667Z" fill="black" fill-opacity="0.72"/>
<path d="M11.3333 23.3333H17.3333C17.7 23.3333 18 23.0333 18 22.6667C18 22.3 17.7 22 17.3333 22H11.3333C10.9667 22 10.6667 22.3 10.6667 22.6667C10.6667 23.0333 10.9667 23.3333 11.3333 23.3333Z" fill="black" fill-opacity="0.72"/>
<path d="M8.66667 15.3333C9.03486 15.3333 9.33333 15.0349 9.33333 14.6667C9.33333 14.2985 9.03486 14 8.66667 14C8.29848 14 8 14.2985 8 14.6667C8 15.0349 8.29848 15.3333 8.66667 15.3333Z" fill="black" fill-opacity="0.72"/>
<path d="M8.66667 18C9.03486 18 9.33333 17.7015 9.33333 17.3333C9.33333 16.9651 9.03486 16.6667 8.66667 16.6667C8.29848 16.6667 8 16.9651 8 17.3333C8 17.7015 8.29848 18 8.66667 18Z" fill="black" fill-opacity="0.72"/>
<path d="M8.66667 20.6667C9.03486 20.6667 9.33333 20.3682 9.33333 20C9.33333 19.6318 9.03486 19.3333 8.66667 19.3333C8.29848 19.3333 8 19.6318 8 20C8 20.3682 8.29848 20.6667 8.66667 20.6667Z" fill="black" fill-opacity="0.72"/>
<path d="M8.66667 23.3333C9.03486 23.3333 9.33333 23.0349 9.33333 22.6667C9.33333 22.2985 9.03486 22 8.66667 22C8.29848 22 8 22.2985 8 22.6667C8 23.0349 8.29848 23.3333 8.66667 23.3333Z" fill="black" fill-opacity="0.72"/>
<path d="M25.6667 2C23.2733 2 21.3333 3.94 21.3333 6.33333C21.3333 8.72667 23.2733 10.6667 25.6667 10.6667C28.06 10.6667 30 8.72667 30 6.33333C30 3.94 28.06 2 25.6667 2ZM25.6667 9.33333C24.0133 9.33333 22.6667 7.98667 22.6667 6.33333C22.6667 4.68 24.0133 3.33333 25.6667 3.33333C27.32 3.33333 28.6667 4.68 28.6667 6.33333C28.6667 7.98667 27.32 9.33333 25.6667 9.33333Z" fill="black" fill-opacity="0.72"/>
<path d="M26.1933 5.52667L25.3333 6.38667L25.14 6.19333C24.88 5.93333 24.46 5.93333 24.2 6.19333C23.94 6.45333 23.94 6.87333 24.2 7.13333L24.8667 7.8C25 7.93333 25.1667 7.99333 25.34 7.99333C25.5133 7.99333 25.68 7.92667 25.8133 7.8L27.1467 6.46667C27.4067 6.20667 27.4067 5.78667 27.1467 5.52667C26.8867 5.26667 26.4667 5.26667 26.2067 5.52667H26.1933Z" fill="black" fill-opacity="0.72"/>
</g>
</g>
</svg>
