<svg width="32" height="32" viewBox="0 0 32 32" fill="none" xmlns="http://www.w3.org/2000/svg">
<g id="illustrative / md / advertise-md">
<g id="icon">
<path d="M19.0867 15.4934L9.27337 17.3334H6.66671C4.82671 17.3334 3.33337 18.8267 3.33337 20.6667V22C3.33337 23.6067 4.48004 24.9534 6.00004 25.2667V28C6.00004 29.1 6.90004 30 8.00004 30C9.10004 30 10 29.1 10 28V25.4667L19.0867 27.1734C19.1667 27.1867 19.2534 27.2 19.3334 27.2C19.64 27.2 19.94 27.0934 20.1867 26.8934C20.4934 26.64 20.6667 26.2667 20.6667 25.8667V16.8067C20.6667 16.4067 20.4934 16.0334 20.1867 15.78C19.88 15.5267 19.48 15.42 19.0867 15.4934ZM4.66671 22V20.6667C4.66671 19.5667 5.56671 18.6667 6.66671 18.6667H8.66671V24H6.66671C5.56671 24 4.66671 23.1 4.66671 22ZM8.00004 28.6667C7.63337 28.6667 7.33337 28.3667 7.33337 28V25.3334H8.66671V28C8.66671 28.3667 8.36671 28.6667 8.00004 28.6667ZM19.3334 25.8667L10 24.1134V18.5534L19.3334 16.8067V25.8667Z" fill="black" fill-opacity="0.72"/>
<path d="M17.3334 2.66669C16.2334 2.66669 15.3334 3.56669 15.3334 4.66669V11.3334C15.3334 12.4334 16.2334 13.3334 17.3334 13.3334H22.3067V15.0267C22.3067 15.2934 22.4667 15.54 22.72 15.64C22.8 15.6734 22.8867 15.6934 22.9734 15.6934C23.1467 15.6934 23.32 15.6267 23.4467 15.5L25.6134 13.3334H26.6734C27.7734 13.3334 28.6734 12.4334 28.6734 11.3334V4.66669C28.6734 3.56669 27.7734 2.66669 26.6734 2.66669H17.3334ZM27.3334 11.3334C27.3334 11.7 27.0334 12 26.6667 12H25.3334C25.1534 12 24.9867 12.0734 24.86 12.1934L23.64 13.4134V12.66C23.64 12.2934 23.34 11.9934 22.9734 11.9934H17.3334C16.9667 11.9934 16.6667 11.6934 16.6667 11.3267V4.66669C16.6667 4.30002 16.9667 4.00002 17.3334 4.00002H26.6667C27.0334 4.00002 27.3334 4.30002 27.3334 4.66669V11.3334Z" fill="black" fill-opacity="0.72"/>
<path d="M19.3334 8.66669C19.7016 8.66669 20 8.36821 20 8.00002C20 7.63183 19.7016 7.33335 19.3334 7.33335C18.9652 7.33335 18.6667 7.63183 18.6667 8.00002C18.6667 8.36821 18.9652 8.66669 19.3334 8.66669Z" fill="black" fill-opacity="0.72"/>
<path d="M22 8.66669C22.3682 8.66669 22.6667 8.36821 22.6667 8.00002C22.6667 7.63183 22.3682 7.33335 22 7.33335C21.6318 7.33335 21.3334 7.63183 21.3334 8.00002C21.3334 8.36821 21.6318 8.66669 22 8.66669Z" fill="black" fill-opacity="0.72"/>
<path d="M24.6667 8.66669C25.0349 8.66669 25.3334 8.36821 25.3334 8.00002C25.3334 7.63183 25.0349 7.33335 24.6667 7.33335C24.2985 7.33335 24 7.63183 24 8.00002C24 8.36821 24.2985 8.66669 24.6667 8.66669Z" fill="black" fill-opacity="0.72"/>
<path d="M23.14 22.7467C22.88 22.4867 22.46 22.4867 22.1934 22.7467C21.9334 23.0067 21.9334 23.4267 22.1934 23.6934L22.6667 24.1667C22.8 24.3 22.9667 24.36 23.14 24.36C23.3134 24.36 23.48 24.2934 23.6134 24.1667C23.8734 23.9067 23.8734 23.4867 23.6134 23.2267L23.14 22.7534V22.7467Z" fill="black" fill-opacity="0.72"/>
<path d="M24.5534 20.6667H23.6134C23.2467 20.6667 22.9467 20.9667 22.9467 21.3334C22.9467 21.7 23.2467 22 23.6134 22H24.5534C24.92 22 25.22 21.7 25.22 21.3334C25.22 20.9667 24.92 20.6667 24.5534 20.6667Z" fill="black" fill-opacity="0.72"/>
<path d="M22.6667 20.1134C22.84 20.1134 23.0067 20.0467 23.14 19.92L23.6134 19.4467C23.8734 19.1867 23.8734 18.7667 23.6134 18.5067C23.3534 18.2467 22.9334 18.2467 22.6734 18.5067L22.2 18.98C21.94 19.24 21.94 19.6667 22.2 19.9267C22.3334 20.0534 22.5 20.12 22.6734 20.12L22.6667 20.1134Z" fill="black" fill-opacity="0.72"/>
</g>
</g>
</svg>
