<svg width="32" height="32" viewBox="0 0 32 32" fill="none" xmlns="http://www.w3.org/2000/svg">
<g id="illustrative / md / crypto-pairs-md">
<g id="icon">
<path d="M16.8467 18.06C17.18 17.64 17.3867 17.12 17.3867 16.5466C17.3867 15.4266 16.6267 14.4866 15.6 14.1933V13.56C15.6 13.1933 15.3 12.8933 14.9334 12.8933C14.5667 12.8933 14.2667 13.1933 14.2667 13.56V14.0866H13.2134V13.56C13.2134 13.1933 12.9134 12.8933 12.5467 12.8933C12.18 12.8933 11.88 13.1933 11.88 13.56V14.0933C10.8867 14.1333 10.0934 14.9466 10.0934 15.9466V20.72C10.0934 21.72 10.8934 22.5333 11.88 22.5733V23.1066C11.88 23.4733 12.18 23.7733 12.5467 23.7733C12.9134 23.7733 13.2134 23.4733 13.2134 23.1066V22.58H14.2667V23.1066C14.2667 23.4733 14.5667 23.7733 14.9334 23.7733C15.3 23.7733 15.6 23.4733 15.6 23.1066V22.5733C16.92 22.5333 17.9867 21.4533 17.9867 20.1266C17.9867 19.26 17.5334 18.5 16.8534 18.06H16.8467ZM11.9467 15.42H14.9267C15.5467 15.42 16.0467 15.9266 16.0467 16.54C16.0467 17.1533 15.54 17.66 14.9267 17.66H11.42V15.94C11.42 15.6466 11.6534 15.4133 11.9467 15.4133V15.42ZM15.5267 21.2466H11.9467C11.6534 21.2466 11.42 21.0133 11.42 20.72V19H15.5267C16.1467 19 16.6467 19.5066 16.6467 20.12C16.6467 20.7333 16.14 21.24 15.5267 21.24V21.2466Z" fill="black" fill-opacity="0.72"/>
<path d="M19.8934 7.70665C19.8934 7.70665 19.86 7.66665 19.8334 7.65331C19.8134 7.63998 19.7934 7.63998 19.7734 7.63331C17.9734 6.59998 15.8867 5.99998 13.6667 5.99998C11.4467 5.99998 9.36004 6.59998 7.56004 7.63331C7.54004 7.63998 7.52004 7.63998 7.50004 7.65331C7.47337 7.66665 7.46004 7.68665 7.44004 7.70665C3.79337 9.84665 1.33337 13.8066 1.33337 18.3333C1.33337 22.86 3.79337 26.82 7.44004 28.96C7.46004 28.9733 7.47337 29 7.50004 29.0133C7.52671 29.0266 7.55337 29.0333 7.58671 29.0466C9.38671 30.0733 11.46 30.6666 13.6667 30.6666C15.8734 30.6666 17.9534 30.0733 19.7467 29.0466C19.7734 29.0333 19.8 29.0266 19.8334 29.0133C19.86 29 19.8734 28.98 19.8934 28.96C23.54 26.8133 26 22.86 26 18.3333C26 13.8066 23.54 9.84665 19.8934 7.70665ZM24.6334 17.6666H23.0467C22.84 14.7066 21.26 12.1133 18.9334 10.5333L19.7267 9.15998C22.52 11.0133 24.4134 14.1133 24.6267 17.66L24.6334 17.6666ZM13.6667 26.4133C9.20671 26.4133 5.58671 22.7866 5.58671 18.3333C5.58671 13.88 9.21337 10.2533 13.6667 10.2533C18.12 10.2533 21.7467 13.88 21.7467 18.3333C21.7467 22.7866 18.12 26.4133 13.6667 26.4133ZM18.5734 8.49998L17.78 9.87331C16.5334 9.26665 15.14 8.91331 13.6667 8.91331C12.1934 8.91331 10.8 9.26665 9.55337 9.87331L8.76004 8.49998C10.24 7.75998 11.9 7.33331 13.6667 7.33331C15.4334 7.33331 17.0934 7.75998 18.5734 8.49998ZM7.60671 9.15998L8.40004 10.5333C6.07337 12.1133 4.50004 14.7 4.28671 17.6666H2.70004C2.91337 14.12 4.80671 11.02 7.60004 9.16665L7.60671 9.15998ZM2.70671 18.9933H4.29337C4.50004 21.9533 6.08004 24.5466 8.40671 26.1266L7.61337 27.5C4.82004 25.6466 2.92671 22.5466 2.71337 19L2.70671 18.9933ZM8.76671 28.16L9.56004 26.7866C10.8067 27.3933 12.2 27.7466 13.6734 27.7466C15.1467 27.7466 16.54 27.3933 17.7867 26.7866L18.58 28.16C17.1 28.9 15.44 29.3266 13.6734 29.3266C11.9067 29.3266 10.2467 28.9 8.76671 28.16ZM19.7334 27.5L18.94 26.1266C21.2667 24.5466 22.84 21.96 23.0534 18.9933H24.64C24.4267 22.54 22.5334 25.64 19.74 27.4933L19.7334 27.5Z" fill="black" fill-opacity="0.72"/>
<path d="M26.3334 1.33331C23.94 1.33331 22 3.27331 22 5.66665C22 8.05998 23.94 9.99998 26.3334 9.99998C28.7267 9.99998 30.6667 8.05998 30.6667 5.66665C30.6667 3.27331 28.7267 1.33331 26.3334 1.33331ZM26.3334 8.66665C24.68 8.66665 23.3334 7.31998 23.3334 5.66665C23.3334 4.01331 24.68 2.66665 26.3334 2.66665C27.9867 2.66665 29.3334 4.01331 29.3334 5.66665C29.3334 7.31998 27.9867 8.66665 26.3334 8.66665Z" fill="black" fill-opacity="0.72"/>
<path d="M27.3334 4.99998H27V4.66665C27 4.29998 26.7 3.99998 26.3334 3.99998C25.9667 3.99998 25.6667 4.29998 25.6667 4.66665V4.99998H25.3334C24.9667 4.99998 24.6667 5.29998 24.6667 5.66665C24.6667 6.03331 24.9667 6.33331 25.3334 6.33331H25.6667V6.66665C25.6667 7.03331 25.9667 7.33331 26.3334 7.33331C26.7 7.33331 27 7.03331 27 6.66665V6.33331H27.3334C27.7 6.33331 28 6.03331 28 5.66665C28 5.29998 27.7 4.99998 27.3334 4.99998Z" fill="black" fill-opacity="0.72"/>
</g>
</g>
</svg>
