<svg width="32" height="32" viewBox="0 0 32 32" fill="none" xmlns="http://www.w3.org/2000/svg">
<g id="illustrative / md / optional-md">
<g id="icon">
<path d="M22.2467 8.98665C22.3733 9.11331 22.54 9.17998 22.72 9.17998C22.9 9.17998 23.0667 9.10665 23.1933 8.98665L24.32 7.85998C24.58 7.59998 24.58 7.17998 24.32 6.91998C24.06 6.65998 23.6333 6.65998 23.38 6.91998L22.72 7.57998L22.6267 7.48665C22.3667 7.22665 21.9467 7.22665 21.6867 7.48665C21.4267 7.74665 21.4267 8.16665 21.6867 8.42665L22.2533 8.99331L22.2467 8.98665Z" fill="black" fill-opacity="0.72"/>
<path d="M6 10.6666H19.88C20.6667 11.4866 21.7733 12 23 12C25.3867 12 27.3333 10.0533 27.3333 7.66665C27.3333 5.27998 25.3867 3.33331 23 3.33331C21.7733 3.33331 20.6667 3.84665 19.88 4.66665H6C4.9 4.66665 4 5.56665 4 6.66665V8.66665C4 9.76665 4.9 10.6666 6 10.6666ZM23 4.66665C24.6533 4.66665 26 6.01331 26 7.66665C26 9.31998 24.6533 10.6666 23 10.6666C21.3467 10.6666 20 9.31998 20 7.66665C20 6.01331 21.3467 4.66665 23 4.66665ZM5.33333 6.66665C5.33333 6.29998 5.63333 5.99998 6 5.99998H19C18.7867 6.51331 18.6667 7.07331 18.6667 7.66665C18.6667 8.25998 18.7867 8.81998 19 9.33331H6C5.63333 9.33331 5.33333 9.03331 5.33333 8.66665V6.66665Z" fill="black" fill-opacity="0.72"/>
<path d="M22 16.3333C22 13.9466 20.0533 12 17.6667 12C16.44 12 15.3333 12.5133 14.5467 13.3333H6C4.9 13.3333 4 14.2333 4 15.3333V17.3333C4 18.4333 4.9 19.3333 6 19.3333H14.5467C15.3333 20.1533 16.44 20.6666 17.6667 20.6666C20.0533 20.6666 22 18.72 22 16.3333ZM6 18C5.63333 18 5.33333 17.7 5.33333 17.3333V15.3333C5.33333 14.9666 5.63333 14.6666 6 14.6666H13.6667C13.4533 15.18 13.3333 15.74 13.3333 16.3333C13.3333 16.9266 13.4533 17.4866 13.6667 18H6ZM17.6667 19.3333C16.0133 19.3333 14.6667 17.9866 14.6667 16.3333C14.6667 14.68 16.0133 13.3333 17.6667 13.3333C19.32 13.3333 20.6667 14.68 20.6667 16.3333C20.6667 17.9866 19.32 19.3333 17.6667 19.3333Z" fill="black" fill-opacity="0.72"/>
<path d="M18.04 15.58L17.38 16.24L17.2867 16.1466C17.0267 15.8866 16.6067 15.8866 16.3467 16.1466C16.0867 16.4066 16.0867 16.8266 16.3467 17.0866L16.9133 17.6533C17.04 17.78 17.2067 17.8466 17.3867 17.8466C17.5667 17.8466 17.7333 17.7733 17.86 17.6533L18.9867 16.5266C19.2467 16.2666 19.2467 15.8466 18.9867 15.5866C18.7267 15.3266 18.3 15.3266 18.0467 15.5866L18.04 15.58Z" fill="black" fill-opacity="0.72"/>
<path d="M12.3333 20.6666C11.1067 20.6666 10 21.18 9.21333 22H6C4.9 22 4 22.9 4 24V26C4 27.1 4.9 28 6 28H9.21333C10 28.82 11.1067 29.3333 12.3333 29.3333C14.72 29.3333 16.6667 27.3866 16.6667 25C16.6667 22.6133 14.72 20.6666 12.3333 20.6666ZM6 26.6666C5.63333 26.6666 5.33333 26.3666 5.33333 26V24C5.33333 23.6333 5.63333 23.3333 6 23.3333H8.33333C8.12 23.8466 8 24.4066 8 25C8 25.5933 8.12 26.1533 8.33333 26.6666H6ZM12.3333 28C10.68 28 9.33333 26.6533 9.33333 25C9.33333 23.3466 10.68 22 12.3333 22C13.9867 22 15.3333 23.3466 15.3333 25C15.3333 26.6533 13.9867 28 12.3333 28Z" fill="black" fill-opacity="0.72"/>
<path d="M12.7067 24.2466L12.0533 24.9066L11.96 24.8133C11.7 24.5533 11.28 24.5533 11.02 24.8133C10.76 25.0733 10.76 25.4933 11.02 25.7533L11.5867 26.32C11.7133 26.4466 11.88 26.5133 12.06 26.5133C12.24 26.5133 12.4067 26.44 12.5333 26.32L13.66 25.1933C13.92 24.9333 13.92 24.5133 13.66 24.2533C13.4 23.9933 12.98 23.9933 12.72 24.2533L12.7067 24.2466Z" fill="black" fill-opacity="0.72"/>
<path d="M27.6067 26.6666H28C28.3667 26.6666 28.6667 26.3666 28.6667 26C28.6667 25.6333 28.3667 25.3333 28 25.3333H26C25.92 25.3333 25.84 25.3533 25.7667 25.38C25.7467 25.3866 25.7267 25.4 25.7 25.4133C25.6467 25.44 25.6067 25.4666 25.56 25.5066C25.54 25.52 25.5267 25.5333 25.5067 25.5533C25.46 25.6066 25.42 25.66 25.3867 25.7266C25.3867 25.7266 25.38 25.74 25.3733 25.7466C25.34 25.82 25.3333 25.9 25.3267 25.98C25.3267 25.9866 25.3267 25.9933 25.3267 26.0066V28.0066C25.3267 28.3733 25.6267 28.6733 25.9933 28.6733C26.36 28.6733 26.66 28.3733 26.66 28.0066V27.6133L27.52 28.4733C27.6533 28.6066 27.82 28.6666 27.9933 28.6666C28.1667 28.6666 28.3333 28.6 28.4667 28.4733C28.7267 28.2133 28.7267 27.7933 28.4667 27.5333L27.6067 26.6733V26.6666Z" fill="black" fill-opacity="0.72"/>
<path d="M26 22C25.6333 22 25.3333 22.3 25.3333 22.6666V23.3333C25.3333 23.7 25.6333 24 26 24C26.3667 24 26.6667 23.7 26.6667 23.3333V22.6666C26.6667 22.3 26.3667 22 26 22Z" fill="black" fill-opacity="0.72"/>
<path d="M23.8067 22.86C23.5467 22.6 23.1267 22.6 22.8667 22.86C22.6067 23.12 22.6067 23.54 22.8667 23.8L23.5333 24.4666C23.6667 24.6 23.8333 24.66 24.0067 24.66C24.18 24.66 24.3467 24.5933 24.48 24.4666C24.74 24.2066 24.74 23.7866 24.48 23.5266L23.8133 22.86H23.8067Z" fill="black" fill-opacity="0.72"/>
<path d="M23.3333 25.3333H22.6667C22.3 25.3333 22 25.6333 22 26C22 26.3666 22.3 26.6666 22.6667 26.6666H23.3333C23.7 26.6666 24 26.3666 24 26C24 25.6333 23.7 25.3333 23.3333 25.3333Z" fill="black" fill-opacity="0.72"/>
<path d="M26 20.6666C26.3667 20.6666 26.6667 20.3666 26.6667 20C26.6667 19.6333 26.3667 19.3333 26 19.3333C22.3267 19.3333 19.3333 22.3266 19.3333 26C19.3333 26.3666 19.6333 26.6666 20 26.6666C20.3667 26.6666 20.6667 26.3666 20.6667 26C20.6667 23.06 23.06 20.6666 26 20.6666Z" fill="black" fill-opacity="0.72"/>
</g>
</g>
</svg>
