<svg width="32" height="32" viewBox="0 0 32 32" fill="none" xmlns="http://www.w3.org/2000/svg">
<g id="illustrative / md / crash-boom-indices-md">
<g id="icon">
<path d="M7.33494 19.34H6.66827C5.56827 19.34 4.66827 20.24 4.66827 21.34V25.34C4.66827 26.44 5.56827 27.34 6.66827 27.34H7.33494C8.43494 27.34 9.33494 26.44 9.33494 25.34V21.34C9.33494 20.24 8.43494 19.34 7.33494 19.34ZM8.00161 25.34C8.00161 25.7067 7.70161 26.0067 7.33494 26.0067H6.66827C6.30161 26.0067 6.00161 25.7067 6.00161 25.34V21.34C6.00161 20.9733 6.30161 20.6733 6.66827 20.6733H7.33494C7.70161 20.6733 8.00161 20.9733 8.00161 21.34V25.34Z" fill="black" fill-opacity="0.72"/>
<path d="M13.3349 15.34H12.6683C11.5683 15.34 10.6683 16.24 10.6683 17.34V25.34C10.6683 26.44 11.5683 27.34 12.6683 27.34H13.3349C14.4349 27.34 15.3349 26.44 15.3349 25.34V17.34C15.3349 16.24 14.4349 15.34 13.3349 15.34ZM14.0016 25.34C14.0016 25.7067 13.7016 26.0067 13.3349 26.0067H12.6683C12.3016 26.0067 12.0016 25.7067 12.0016 25.34V17.34C12.0016 16.9733 12.3016 16.6733 12.6683 16.6733H13.3349C13.7016 16.6733 14.0016 16.9733 14.0016 17.34V25.34Z" fill="black" fill-opacity="0.72"/>
<path d="M20.6683 23.36C20.3016 23.36 20.0016 23.66 20.0016 24.0267V24.7067C20.0016 25.0733 20.3016 25.3733 20.6683 25.3733C21.0349 25.3733 21.3349 25.0733 21.3349 24.7067V24.0267C21.3349 23.66 21.0349 23.36 20.6683 23.36Z" fill="black" fill-opacity="0.72"/>
<path d="M19.3349 26.0067H18.6549C18.2883 26.0067 17.9949 26.3067 17.9949 26.6733C17.9949 27.04 18.3016 27.34 18.6683 27.34H19.3483C19.7149 27.34 20.0083 27.04 20.0083 26.6733C20.0083 26.3067 19.7016 26.0067 19.3349 26.0067Z" fill="black" fill-opacity="0.72"/>
<path d="M18.6683 19.34H19.3416C19.7083 19.34 20.0083 19.04 20.0083 18.6733C20.0083 18.3067 19.7083 18.0067 19.3416 18.0067H18.6683C18.3016 18.0067 18.0083 18.3067 18.0083 18.6733C18.0083 19.04 18.3083 19.34 18.6816 19.34H18.6683Z" fill="black" fill-opacity="0.72"/>
<path d="M20.6683 19.9667C20.3016 19.9667 20.0016 20.2667 20.0016 20.6333V21.3133C20.0016 21.68 20.3016 21.98 20.6683 21.98C21.0349 21.98 21.3349 21.68 21.3349 21.3133V20.6333C21.3349 20.2667 21.0349 19.9667 20.6683 19.9667Z" fill="black" fill-opacity="0.72"/>
<path d="M17.3349 19.9667C16.9683 19.9667 16.6683 20.2667 16.6683 20.6333V21.3133C16.6683 21.68 16.9683 21.98 17.3349 21.98C17.7016 21.98 18.0016 21.68 18.0016 21.3133V20.6333C18.0016 20.2667 17.7016 19.9667 17.3349 19.9667Z" fill="black" fill-opacity="0.72"/>
<path d="M18.0016 24.0267C18.0016 23.66 17.7016 23.36 17.3349 23.36C16.9683 23.36 16.6683 23.66 16.6683 24.0267V24.7067C16.6683 25.0733 16.9683 25.3733 17.3349 25.3733C17.7016 25.3733 18.0016 25.0733 18.0016 24.7067V24.0267Z" fill="black" fill-opacity="0.72"/>
<path d="M26.6683 23.3733C26.3016 23.3733 26.0016 23.6733 26.0016 24.04V24.7133C26.0016 25.08 26.3016 25.38 26.6683 25.38C27.0349 25.38 27.3349 25.08 27.3349 24.7133V24.04C27.3349 23.6733 27.0349 23.3733 26.6683 23.3733Z" fill="black" fill-opacity="0.72"/>
<path d="M26.6683 19.9933C26.3016 19.9933 26.0016 20.2933 26.0016 20.66V21.3333C26.0016 21.7 26.3016 22 26.6683 22C27.0349 22 27.3349 21.7 27.3349 21.3333V20.66C27.3349 20.2933 27.0349 19.9933 26.6683 19.9933Z" fill="black" fill-opacity="0.72"/>
<path d="M26.6683 16.6133C26.3016 16.6133 26.0016 16.9133 26.0016 17.28V17.9533C26.0016 18.32 26.3016 18.62 26.6683 18.62C27.0349 18.62 27.3349 18.32 27.3349 17.9533V17.28C27.3349 16.9133 27.0349 16.6133 26.6683 16.6133Z" fill="black" fill-opacity="0.72"/>
<path d="M24.0016 24.0467C24.0016 23.68 23.7016 23.38 23.3349 23.38C22.9683 23.38 22.6683 23.68 22.6683 24.0467V24.72C22.6683 25.0867 22.9683 25.3867 23.3349 25.3867C23.7016 25.3867 24.0016 25.0867 24.0016 24.72V24.0467Z" fill="black" fill-opacity="0.72"/>
<path d="M24.6616 26.0067C24.2949 26.0067 24.0016 26.3067 24.0016 26.6733C24.0016 27.04 24.3016 27.34 24.6749 27.34H25.3549C25.7216 27.34 26.0149 27.04 26.0149 26.6733C26.0149 26.3067 25.7083 26.0067 25.3416 26.0067H24.6616Z" fill="black" fill-opacity="0.72"/>
<path d="M23.3349 16.62C22.9683 16.62 22.6683 16.92 22.6683 17.2867V17.96C22.6683 18.3267 22.9683 18.6267 23.3349 18.6267C23.7016 18.6267 24.0016 18.3267 24.0016 17.96V17.2867C24.0016 16.92 23.7016 16.62 23.3349 16.62Z" fill="black" fill-opacity="0.72"/>
<path d="M22.6683 21.3467C22.6683 21.7133 22.9683 22.0133 23.3349 22.0133C23.7016 22.0133 24.0016 21.7133 24.0016 21.3467V20.6733C24.0016 20.3067 23.7016 20.0067 23.3349 20.0067C22.9683 20.0067 22.6683 20.3067 22.6683 20.6733V21.3467Z" fill="black" fill-opacity="0.72"/>
<path d="M24.6683 16.0067H25.3349C25.7016 16.0067 26.0016 15.7067 26.0016 15.34C26.0016 14.9733 25.7016 14.6733 25.3349 14.6733H24.6616C24.2949 14.6733 24.0016 14.9733 24.0016 15.34C24.0016 15.7067 24.3016 16.0067 24.6749 16.0067H24.6683Z" fill="black" fill-opacity="0.72"/>
<path d="M27.3283 4.64667C27.3283 4.56667 27.3149 4.49333 27.2816 4.41333C27.2816 4.41333 27.2749 4.4 27.2683 4.39333C27.2416 4.32667 27.1949 4.26667 27.1483 4.22C27.1349 4.2 27.1149 4.18667 27.0949 4.17333C27.0549 4.13333 27.0083 4.10667 26.9549 4.08C26.9349 4.06667 26.9149 4.06 26.8883 4.04667C26.8149 4.02 26.7349 4 26.6549 4H24.6549C24.2883 4 23.9883 4.3 23.9883 4.66667C23.9883 5.03333 24.2883 5.33333 24.6549 5.33333H25.0483L19.1283 11.2533C18.8683 11.5133 18.4483 11.5133 18.1883 11.2533L14.0749 7.14C13.2949 6.36 12.0283 6.36 11.2483 7.14L4.19494 14.2C3.93494 14.46 3.93494 14.88 4.19494 15.14C4.32827 15.2733 4.49494 15.3333 4.66827 15.3333C4.84161 15.3333 5.00827 15.2667 5.14161 15.14L12.2016 8.08C12.4616 7.82 12.8816 7.82 13.1416 8.08L17.2549 12.1933C18.0349 12.9733 19.3016 12.9733 20.0816 12.1933L26.0016 6.27333V6.66667C26.0016 7.03333 26.3016 7.33333 26.6683 7.33333C27.0349 7.33333 27.3349 7.03333 27.3349 6.66667V4.66667C27.3349 4.66667 27.3349 4.65333 27.3349 4.64L27.3283 4.64667Z" fill="black" fill-opacity="0.72"/>
</g>
</g>
</svg>
