<svg width="32" height="32" viewBox="0 0 32 32" fill="none" xmlns="http://www.w3.org/2000/svg">
<g id="illustrative / md / demo-account-md">
<path id="icon" d="M6.00002 23.3333H5.33335C4.22669 23.3333 3.33335 24.2267 3.33335 25.3333V28.6667C3.33335 29.7733 4.22669 30.6667 5.33335 30.6667H6.00002C7.10669 30.6667 8.00002 29.7733 8.00002 28.6667V25.3333C8.00002 24.2267 7.10669 23.3333 6.00002 23.3333ZM6.66669 28.6667C6.66669 29.04 6.37335 29.3333 6.00002 29.3333H5.33335C4.96002 29.3333 4.66669 29.04 4.66669 28.6667V25.3333C4.66669 24.96 4.96002 24.6667 5.33335 24.6667H6.00002C6.37335 24.6667 6.66669 24.96 6.66669 25.3333V28.6667ZM12 18H11.3334C10.2267 18 9.33335 18.8933 9.33335 20V28.6667C9.33335 29.7733 10.2267 30.6667 11.3334 30.6667H12C13.1067 30.6667 14 29.7733 14 28.6667V20C14 18.8933 13.1067 18 12 18ZM12.6667 28.6667C12.6667 29.04 12.3734 29.3333 12 29.3333H11.3334C10.96 29.3333 10.6667 29.04 10.6667 28.6667V20C10.6667 19.6267 10.96 19.3333 11.3334 19.3333H12C12.3734 19.3333 12.6667 19.6267 12.6667 20V28.6667ZM18 20.6667H17.3334C16.2267 20.6667 15.3334 21.56 15.3334 22.6667V28.6667C15.3334 29.7733 16.2267 30.6667 17.3334 30.6667H18C19.1067 30.6667 20 29.7733 20 28.6667V22.6667C20 21.56 19.1067 20.6667 18 20.6667ZM18.6667 28.6667C18.6667 29.04 18.3734 29.3333 18 29.3333H17.3334C16.96 29.3333 16.6667 29.04 16.6667 28.6667V22.6667C16.6667 22.2933 16.96 22 17.3334 22H18C18.3734 22 18.6667 22.2933 18.6667 22.6667V28.6667ZM24 18H23.3334C22.2267 18 21.3334 18.8933 21.3334 20V28.6667C21.3334 29.7733 22.2267 30.6667 23.3334 30.6667H24C25.1067 30.6667 26 29.7733 26 28.6667V20C26 18.8933 25.1067 18 24 18ZM24.6667 28.6667C24.6667 29.04 24.3734 29.3333 24 29.3333H23.3334C22.96 29.3333 22.6667 29.04 22.6667 28.6667V20C22.6667 19.6267 22.96 19.3333 23.3334 19.3333H24C24.3734 19.3333 24.6667 19.6267 24.6667 20V28.6667ZM9.33335 14C8.96002 14 8.66669 13.7067 8.66669 13.3333V6.03999C4.93335 6.37332 2.00002 9.51999 2.00002 13.3333C2.00002 16.56 4.06669 19.3733 7.16002 20.3333C7.50669 20.44 7.70669 20.8133 7.60002 21.1733C7.50669 21.4533 7.25335 21.64 6.96002 21.64C6.89335 21.64 6.82669 21.64 6.76002 21.6133C3.12002 20.48 0.666687 17.1467 0.666687 13.3333C0.666687 8.55999 4.56002 4.66665 9.33335 4.66665C9.70669 4.66665 10 4.95999 10 5.33332V12.6667H17.3334C17.7067 12.6667 18 12.96 18 13.3333C18 14.9467 17.5467 16.52 16.7067 17.8933C16.5867 18.0933 16.36 18.2133 16.1334 18.2133C16.0134 18.2133 15.8934 18.1867 15.7867 18.1067C15.48 17.9067 15.3734 17.5067 15.5734 17.1867C16.1734 16.2133 16.52 15.12 16.6267 13.9867H9.33335V14ZM12 11.3333H17.3334C17.7067 11.3333 18 11.04 18 10.6667C18 7.35999 15.3067 4.66665 12 4.66665C11.6267 4.66665 11.3334 4.95999 11.3334 5.33332V10.6667C11.3334 11.04 11.6267 11.3333 12 11.3333ZM12.6667 6.05332C14.7067 6.34665 16.32 7.95999 16.6134 9.99999H12.6667V6.05332ZM28 10.6667C28 11.4133 27.4134 12 26.6667 12H26V12.6667C26 13.04 25.7067 13.3333 25.3334 13.3333C24.96 13.3333 24.6667 13.04 24.6667 12.6667V12H23.3334C22.96 12 22.6667 11.7067 22.6667 11.3333C22.6667 10.96 22.96 10.6667 23.3334 10.6667H26.6667V9.33332H24C23.2534 9.33332 22.6667 8.74665 22.6667 7.99999V6.66665C22.6667 5.91999 23.2534 5.33332 24 5.33332H24.6667V4.66665C24.6667 4.29332 24.96 3.99999 25.3334 3.99999C25.7067 3.99999 26 4.29332 26 4.66665V5.33332H27.3334C27.7067 5.33332 28 5.62665 28 5.99999C28 6.37332 27.7067 6.66665 27.3334 6.66665H24V7.99999H26.6667C27.4134 7.99999 28 8.58665 28 9.33332V10.6667ZM24.0267 2.01332C24.0267 1.65332 24.3734 1.31999 24.72 1.34665H27.44C27.8134 1.34665 28.1067 1.65332 28.1067 2.01332C28.1067 2.37332 27.8134 2.67999 27.44 2.67999H24.6934C24.3334 2.67999 24.0267 2.37332 24.0267 2.01332ZM20.0134 3.94665V3.34665C20.0134 2.26665 20.8934 1.35999 21.9867 1.34665H22.08C22.44 1.34665 22.7467 1.65332 22.7467 2.01332C22.7467 2.37332 22.44 2.67999 22.08 2.67999H21.9734C21.6267 2.69332 21.3467 2.98665 21.3467 3.34665V3.93332C21.3467 4.31999 21.04 4.61332 20.68 4.61332C20.32 4.61332 20.0134 4.31999 20.0134 3.94665ZM20.0134 9.31999V6.57332C20.0134 6.21332 20.32 5.90665 20.68 5.90665C21.04 5.90665 21.3467 6.21332 21.3467 6.57332V9.31999C21.3467 9.67999 21.04 9.98665 20.68 9.98665C20.32 9.98665 20.0134 9.67999 20.0134 9.31999ZM29.2667 3.01332C29.1867 2.85332 29.16 2.67999 29.2 2.50665C29.2534 2.33332 29.36 2.18665 29.5067 2.09332C29.8134 1.90665 30.2267 2.02665 30.4134 2.31999C30.4134 2.31999 30.44 2.37332 30.44 2.38665V2.41332C30.5867 2.69332 30.6667 3.01332 30.6667 3.33332V5.38665C30.6667 5.74665 30.36 6.05332 30 6.05332H30.0134C29.6534 6.06665 29.3467 5.75999 29.3467 5.39999V3.34665C29.3467 3.23999 29.32 3.13332 29.2667 3.03999V3.01332ZM30.68 8.02665V10.7733C30.68 11.1467 30.3734 11.44 30.0134 11.44C29.6534 11.44 29.3467 11.1467 29.3467 10.7733V8.02665C29.3467 7.65332 29.6534 7.35999 30.0134 7.35999C30.3734 7.35999 30.68 7.65332 30.68 8.02665ZM21.1734 15.24C21.0667 15.3067 20.96 15.3333 20.84 15.3333C20.6134 15.3333 20.3734 15.2 20.28 15C20.28 14.9867 20.2667 14.9733 20.2534 14.9467C20.2534 14.9467 20.2534 14.92 20.24 14.9067C20.0934 14.6267 20.0134 14.32 20.0134 14V11.9467C20.0134 11.5733 20.32 11.28 20.68 11.28C21.04 11.28 21.3467 11.5733 21.3467 11.9467V14C21.3467 14.1067 21.3734 14.2 21.4134 14.3067V14.3333C21.4934 14.48 21.52 14.6667 21.48 14.84C21.44 15 21.32 15.1467 21.1734 15.24ZM26.6534 15.3333C26.6534 15.6933 26.36 16 25.9867 16H23.2267C22.8667 16 22.56 15.6933 22.56 15.3333C22.56 14.9733 22.8667 14.6667 23.2267 14.6667H25.9867C26.3467 14.6667 26.6534 14.9733 26.6534 15.3333ZM30.6667 13.3867V14C30.6667 15.0933 29.8 15.9733 28.7067 16H28.6C28.24 16 27.9334 15.6933 27.9334 15.3333C27.9334 14.9733 28.24 14.6667 28.6 14.6667H28.7067C29.0667 14.64 29.3334 14.3467 29.3334 14V13.3867C29.3334 13.0133 29.64 12.72 30 12.72C30.36 12.72 30.6667 13.0133 30.6667 13.3867Z" fill="black" fill-opacity="0.72"/>
</g>
</svg>
