<svg width="32" height="32" viewBox="0 0 32 32" fill="none" xmlns="http://www.w3.org/2000/svg">
<g id="illustrative / md / list-md">
<g id="icon">
<path d="M27.2 5.34667L25.5333 5.68C25.3 5.72667 25.1067 5.89333 25.0333 6.12L24.7 7.12C24.5867 7.46667 24.7733 7.84667 25.12 7.96C25.1867 7.98667 25.26 7.99333 25.3333 7.99333C25.6133 7.99333 25.8733 7.82 25.9667 7.54L26.18 6.90667L27.4667 6.64667C27.8267 6.57333 28.06 6.22 27.9867 5.86C27.9133 5.5 27.56 5.26 27.2 5.34V5.34667Z" fill="black" fill-opacity="0.72"/>
<path d="M25.6667 2C23.28 2 21.3333 3.94667 21.3333 6.33333C21.3333 8.72 23.28 10.6667 25.6667 10.6667C28.0533 10.6667 30 8.72 30 6.33333C30 3.94667 28.0533 2 25.6667 2ZM25.6667 9.33333C24.0133 9.33333 22.6667 7.98667 22.6667 6.33333C22.6667 4.68 24.0133 3.33333 25.6667 3.33333C27.32 3.33333 28.6667 4.68 28.6667 6.33333C28.6667 7.98667 27.32 9.33333 25.6667 9.33333Z" fill="black" fill-opacity="0.72"/>
<path d="M22 26H21.3333V11.3333C21.3333 10.2333 20.4333 9.33333 19.3333 9.33333H4C2.9 9.33333 2 10.2333 2 11.3333V16C2 17.1 2.9 18 4 18H4.66667V28.6667C4.66667 29.7667 5.56667 30.6667 6.66667 30.6667H22C23.1 30.6667 24 29.7667 24 28.6667V28C24 26.9 23.1 26 22 26ZM20 11.3333V26H9.33333C8.23333 26 7.33333 26.9 7.33333 28V28.6667C7.33333 29.0333 7.03333 29.3333 6.66667 29.3333C6.3 29.3333 6 29.0333 6 28.6667V11.3333C6 11.1 5.95333 10.8733 5.88 10.6667H19.3333C19.7 10.6667 20 10.9667 20 11.3333ZM4 16.6667C3.63333 16.6667 3.33333 16.3667 3.33333 16V11.3333C3.33333 10.9667 3.63333 10.6667 4 10.6667C4.36667 10.6667 4.66667 10.9667 4.66667 11.3333V16.6667H4ZM22.6667 28.6667C22.6667 29.0333 22.3667 29.3333 22 29.3333H8.54667C8.62 29.1267 8.66667 28.9 8.66667 28.6667V28C8.66667 27.6333 8.96667 27.3333 9.33333 27.3333H22C22.3667 27.3333 22.6667 27.6333 22.6667 28V28.6667Z" fill="black" fill-opacity="0.72"/>
<path d="M9.33333 15.3333H16.6667C17.0333 15.3333 17.3333 15.0333 17.3333 14.6667C17.3333 14.3 17.0333 14 16.6667 14H9.33333C8.96667 14 8.66667 14.3 8.66667 14.6667C8.66667 15.0333 8.96667 15.3333 9.33333 15.3333Z" fill="black" fill-opacity="0.72"/>
<path d="M8.66667 18H17.3333C17.7 18 18 17.7 18 17.3333C18 16.9667 17.7 16.6667 17.3333 16.6667H8.66667C8.3 16.6667 8 16.9667 8 17.3333C8 17.7 8.3 18 8.66667 18Z" fill="black" fill-opacity="0.72"/>
<path d="M9.33333 19.3333C8.96667 19.3333 8.66667 19.6333 8.66667 20C8.66667 20.3667 8.96667 20.6667 9.33333 20.6667H16.6667C17.0333 20.6667 17.3333 20.3667 17.3333 20C17.3333 19.6333 17.0333 19.3333 16.6667 19.3333H9.33333Z" fill="black" fill-opacity="0.72"/>
<path d="M8.66667 23.3333H17.3333C17.7 23.3333 18 23.0333 18 22.6667C18 22.3 17.7 22 17.3333 22H8.66667C8.3 22 8 22.3 8 22.6667C8 23.0333 8.3 23.3333 8.66667 23.3333Z" fill="black" fill-opacity="0.72"/>
</g>
</g>
</svg>
