<svg width="32" height="32" viewBox="0 0 32 32" fill="none" xmlns="http://www.w3.org/2000/svg">
<g id="illustrative / md / trade-mdartly-sm">
<g id="icon">
<path d="M29.1084 23.5267L27.1084 21.5267C27.2351 21.2667 27.3084 20.98 27.3084 20.6667C27.3084 19.5667 26.4084 18.6667 25.3084 18.6667C24.2084 18.6667 23.3084 19.5667 23.3084 20.6667C23.3084 20.9067 23.3484 21.1467 23.4351 21.3667C23.4551 21.42 23.4817 21.4734 23.5084 21.52L19.5084 25.52C19.2484 25.3934 18.9617 25.32 18.6484 25.32C18.4084 25.32 18.1684 25.36 17.9484 25.4467C17.8951 25.4667 17.8417 25.4934 17.7951 25.52L16.4617 24.1867C16.5884 23.9267 16.6617 23.64 16.6617 23.3267C16.6617 22.2267 15.7617 21.3267 14.6617 21.3267C13.5617 21.3267 12.6617 22.2267 12.6617 23.3267C12.6617 23.5667 12.7017 23.8067 12.7884 24.0267C12.8084 24.08 12.8351 24.1334 12.8617 24.18L10.8617 26.18C10.6017 26.0534 10.3151 25.98 10.0017 25.98C9.68841 25.98 9.40175 26.0534 9.14175 26.18L8.13508 25.1734C8.26175 24.9134 8.33508 24.6267 8.33508 24.3134C8.33508 23.2134 7.43508 22.3134 6.33508 22.3134C5.23508 22.3134 4.33508 23.2134 4.33508 24.3134C4.33508 24.62 4.40841 24.9067 4.53508 25.1734L2.86175 26.8467C2.60175 27.1067 2.60175 27.5267 2.86175 27.7867C2.99508 27.92 3.16175 27.98 3.33508 27.98C3.50841 27.98 3.67508 27.9134 3.80841 27.7867L5.48175 26.1134C5.74175 26.24 6.02841 26.3134 6.34175 26.3134C6.65508 26.3134 6.93508 26.24 7.20175 26.1134L8.20841 27.12C8.08175 27.38 8.00841 27.6667 8.00841 27.98C8.00841 29.08 8.90841 29.98 10.0084 29.98C11.1084 29.98 12.0084 29.08 12.0084 27.98C12.0084 27.6734 11.9351 27.38 11.8084 27.12L13.8084 25.12C14.0751 25.2467 14.3684 25.32 14.6684 25.32C14.9684 25.32 15.2684 25.2467 15.5284 25.12L16.8617 26.4534C16.7351 26.72 16.6617 27.0134 16.6617 27.3134C16.6617 28.4134 17.5617 29.3134 18.6617 29.3134C19.7617 29.3134 20.6617 28.4134 20.6617 27.3134C20.6617 27.0067 20.5884 26.7134 20.4617 26.4534L24.4618 22.4534C24.7284 22.58 25.0217 22.6534 25.3217 22.6534C25.6217 22.6534 25.9217 22.58 26.1817 22.4534L28.1817 24.4534C28.3151 24.5867 28.4817 24.6467 28.6551 24.6467C28.8284 24.6467 28.9951 24.58 29.1284 24.4534C29.3884 24.1934 29.3884 23.7734 29.1284 23.5134L29.1084 23.5267ZM6.30175 25C5.93508 25 5.63508 24.7 5.63508 24.3334C5.63508 23.9667 5.93508 23.6667 6.30175 23.6667C6.66841 23.6667 6.96841 23.9667 6.96841 24.3334C6.96841 24.7 6.66841 25 6.30175 25ZM9.96841 28.6667C9.60175 28.6667 9.30175 28.3667 9.30175 28C9.30175 27.6334 9.60175 27.3334 9.96841 27.3334C10.3351 27.3334 10.6351 27.6334 10.6351 28C10.6351 28.3667 10.3351 28.6667 9.96841 28.6667ZM14.6351 24C14.3551 24 14.1084 23.8267 14.0084 23.5667C13.9817 23.4934 13.9684 23.4134 13.9684 23.3334C13.9684 22.9667 14.2684 22.6667 14.6351 22.6667C15.0017 22.6667 15.3017 22.9667 15.3017 23.3334C15.3017 23.7 15.0017 24 14.6351 24ZM18.6351 28C18.2684 28 17.9684 27.7 17.9684 27.3334C17.9684 27.0534 18.1417 26.8067 18.4017 26.7067C18.4751 26.68 18.5551 26.6667 18.6351 26.6667C19.0017 26.6667 19.3017 26.9667 19.3017 27.3334C19.3017 27.7 19.0017 28 18.6351 28ZM25.3017 21.3334C25.0217 21.3334 24.7751 21.16 24.6751 20.9C24.6484 20.8267 24.6351 20.7467 24.6351 20.6667C24.6351 20.3 24.9351 20 25.3017 20C25.6684 20 25.9684 20.3 25.9684 20.6667C25.9684 21.0334 25.6684 21.3334 25.3017 21.3334Z" fill="black" fill-opacity="0.72"/>
<path d="M5.30175 18.9734H8.66175L10.8284 21.14C10.9551 21.2667 11.1284 21.3334 11.3017 21.3334C11.3884 21.3334 11.4751 21.32 11.5551 21.28C11.8017 21.18 11.9684 20.9334 11.9684 20.6667V18.9734H14.6351C15.7351 18.9734 16.6351 18.0734 16.6351 16.9734V4.66669C16.6351 3.56669 15.7351 2.66669 14.6351 2.66669H5.30175C4.20175 2.66669 3.30175 3.56669 3.30175 4.66669V16.9734C3.30175 18.0734 4.20175 18.9734 5.30175 18.9734ZM4.63508 4.66669C4.63508 4.30002 4.93508 4.00002 5.30175 4.00002H14.6351C15.0017 4.00002 15.3017 4.30002 15.3017 4.66669V16.9734C15.3017 17.34 15.0017 17.64 14.6351 17.64H11.3017C10.9351 17.64 10.6351 17.94 10.6351 18.3067V19.06L9.41508 17.84C9.28841 17.7134 9.12175 17.6467 8.94175 17.6467H5.30175C4.93508 17.6467 4.63508 17.3467 4.63508 16.98V4.66669Z" fill="black" fill-opacity="0.72"/>
<path d="M7.30175 12.3V14.6667C7.30175 15.7667 8.20175 16.6667 9.30175 16.6667H10.6351C11.7351 16.6667 12.6351 15.7667 12.6351 14.6667V12.3C13.4884 11.54 13.9684 10.4734 13.9684 9.33335C13.9684 7.12669 12.1751 5.33335 9.96841 5.33335C7.76175 5.33335 5.96841 7.12669 5.96841 9.33335C5.96841 10.4734 6.44841 11.54 7.30175 12.3ZM11.3017 14.6667C11.3017 15.0334 11.0017 15.3334 10.6351 15.3334H9.30175C8.93508 15.3334 8.63508 15.0334 8.63508 14.6667V14H11.3017V14.6667ZM9.96841 6.66669C11.4417 6.66669 12.6351 7.86002 12.6351 9.33335C12.6351 10.1667 12.2484 10.94 11.5684 11.4534C11.4017 11.58 11.3017 11.7734 11.3017 11.9867V12.6667H8.63508V11.9867C8.63508 11.78 8.53508 11.58 8.36841 11.4534C7.68841 10.94 7.30175 10.1667 7.30175 9.33335C7.30175 7.86002 8.49508 6.66669 9.96841 6.66669Z" fill="black" fill-opacity="0.72"/>
<path d="M9.16175 11.14C9.29508 11.2734 9.46175 11.3334 9.63508 11.3334C9.80842 11.3334 9.97508 11.2667 10.1084 11.14L10.7751 10.4734C11.0351 10.2134 11.0351 9.79335 10.7751 9.53335L10.5817 9.34002L10.7751 9.14669C11.0351 8.88669 11.0351 8.46669 10.7751 8.20669C10.5151 7.94669 10.0951 7.94669 9.83508 8.20669L9.16842 8.87335C8.90842 9.13335 8.90842 9.55335 9.16842 9.81335L9.36175 10.0067L9.16842 10.2C8.90842 10.46 8.90842 10.88 9.16842 11.14H9.16175Z" fill="black" fill-opacity="0.72"/>
<path d="M24.6351 15.3334C24.2684 15.3334 23.9684 15.6334 23.9684 16V16.6667C23.9684 17.0334 24.2684 17.3334 24.6351 17.3334C25.0017 17.3334 25.3017 17.0334 25.3017 16.6667V16C25.3017 15.6334 25.0017 15.3334 24.6351 15.3334Z" fill="black" fill-opacity="0.72"/>
<path d="M23.1084 17.8067C23.3684 17.5467 23.3684 17.1267 23.1084 16.8667L22.4417 16.2C22.1817 15.94 21.7617 15.94 21.5017 16.2C21.2417 16.46 21.2417 16.88 21.5017 17.14L22.1684 17.8067C22.3017 17.94 22.4684 18 22.6417 18C22.8151 18 22.9817 17.9334 23.1151 17.8067H23.1084Z" fill="black" fill-opacity="0.72"/>
<path d="M21.3017 18.6667C20.9351 18.6667 20.6351 18.9667 20.6351 19.3334C20.6351 19.7 20.9351 20 21.3017 20H21.9684C22.3351 20 22.6351 19.7 22.6351 19.3334C22.6351 18.9667 22.3351 18.6667 21.9684 18.6667H21.3017Z" fill="black" fill-opacity="0.72"/>
<path d="M18.6351 20C19.0017 20 19.3017 19.7 19.3017 19.3334C19.3017 16.3934 21.6951 14 24.6351 14C25.0017 14 25.3017 13.7 25.3017 13.3334C25.3017 12.9667 25.0017 12.6667 24.6351 12.6667C20.9617 12.6667 17.9684 15.66 17.9684 19.3334C17.9684 19.7 18.2684 20 18.6351 20Z" fill="black" fill-opacity="0.72"/>
</g>
</g>
</svg>
