<svg width="32" height="32" viewBox="0 0 32 32" fill="none" xmlns="http://www.w3.org/2000/svg">
<g id="illustrative / md / professional-guidance-md">
<g id="icon">
<path d="M26.6667 14H26V13.3333C26 12.2333 25.1 11.3333 24 11.3333H18C16.9067 11.3333 15.94 11.8733 15.3333 12.6866C14.7267 11.8666 13.76 11.3333 12.6667 11.3333H6.66667C5.56667 11.3333 4.66667 12.2333 4.66667 13.3333V14H4C2.9 14 2 14.9 2 16V27.3333C2 28.4333 2.9 29.3333 4 29.3333H13.4533C13.7267 30.1066 14.46 30.6666 15.3333 30.6666C16.2067 30.6666 16.9333 30.1066 17.2133 29.3333H26.6667C27.7667 29.3333 28.6667 28.4333 28.6667 27.3333V16C28.6667 14.9 27.7667 14 26.6667 14ZM18 12.6666H24C24.3667 12.6666 24.6667 12.9666 24.6667 13.3333V21.4533C24.46 21.38 24.2333 21.3333 24 21.3333H18C17.2467 21.3333 16.56 21.5933 16 22.02V14.6666C16 13.5666 16.9 12.6666 18 12.6666ZM6 23.3333C6 22.9666 6.3 22.6666 6.66667 22.6666H12.6667C13.7667 22.6666 14.6667 23.5666 14.6667 24.6666C14.6667 25.0333 14.3667 25.3333 14 25.3333H6.66667C6.3 25.3333 6 25.0333 6 24.6666V23.3333ZM24.6667 23.3333V24.6666C24.6667 25.0333 24.3667 25.3333 24 25.3333H16.6667C16.3 25.3333 16 25.0333 16 24.6666C16 23.5666 16.9 22.6666 18 22.6666H24C24.3667 22.6666 24.6667 22.9666 24.6667 23.3333ZM6 13.3333C6 12.9666 6.3 12.6666 6.66667 12.6666H12.6667C13.7667 12.6666 14.6667 13.5666 14.6667 14.6666V22.02C14.1067 21.6 13.42 21.3333 12.6667 21.3333H6.66667C6.43333 21.3333 6.20667 21.38 6 21.4533V13.3333ZM27.3333 27.3333C27.3333 27.7 27.0333 28 26.6667 28H16.6667C16.3 28 16 28.3 16 28.6666C16 29.0333 15.7 29.3333 15.3333 29.3333C14.9667 29.3333 14.6667 29.0333 14.6667 28.6666C14.6667 28.3 14.3667 28 14 28H4C3.63333 28 3.33333 27.7 3.33333 27.3333V16C3.33333 15.6333 3.63333 15.3333 4 15.3333H4.66667V24.6666C4.66667 25.7666 5.56667 26.6666 6.66667 26.6666H14C14.5133 26.6666 14.98 26.4666 15.3333 26.1466C15.6867 26.4666 16.1533 26.6666 16.6667 26.6666H24C25.1 26.6666 26 25.7666 26 24.6666V15.3333H26.6667C27.0333 15.3333 27.3333 15.6333 27.3333 16V27.3333Z" fill="black" fill-opacity="0.72"/>
<path d="M8 16.6666H12C12.3667 16.6666 12.6667 16.3666 12.6667 16C12.6667 15.6333 12.3667 15.3333 12 15.3333H8C7.63333 15.3333 7.33333 15.6333 7.33333 16C7.33333 16.3666 7.63333 16.6666 8 16.6666Z" fill="black" fill-opacity="0.72"/>
<path d="M8 19.3333H10.6667C11.0333 19.3333 11.3333 19.0333 11.3333 18.6666C11.3333 18.3 11.0333 18 10.6667 18H8C7.63333 18 7.33333 18.3 7.33333 18.6666C7.33333 19.0333 7.63333 19.3333 8 19.3333Z" fill="black" fill-opacity="0.72"/>
<path d="M19.3333 16.6666H22.6667C23.0333 16.6666 23.3333 16.3666 23.3333 16C23.3333 15.6333 23.0333 15.3333 22.6667 15.3333H19.3333C18.9667 15.3333 18.6667 15.6333 18.6667 16C18.6667 16.3666 18.9667 16.6666 19.3333 16.6666Z" fill="black" fill-opacity="0.72"/>
<path d="M18.6667 19.3333H22.6667C23.0333 19.3333 23.3333 19.0333 23.3333 18.6666C23.3333 18.3 23.0333 18 22.6667 18H18.6667C18.3 18 18 18.3 18 18.6666C18 19.0333 18.3 19.3333 18.6667 19.3333Z" fill="black" fill-opacity="0.72"/>
<path d="M25.6667 1.33331C23.2733 1.33331 21.3333 3.27331 21.3333 5.66665C21.3333 8.05998 23.2733 9.99998 25.6667 9.99998C28.06 9.99998 30 8.05998 30 5.66665C30 3.27331 28.06 1.33331 25.6667 1.33331ZM25.6667 8.66665C24.0133 8.66665 22.6667 7.31998 22.6667 5.66665C22.6667 4.01331 24.0133 2.66665 25.6667 2.66665C27.32 2.66665 28.6667 4.01331 28.6667 5.66665C28.6667 7.31998 27.32 8.66665 25.6667 8.66665Z" fill="black" fill-opacity="0.72"/>
<path d="M25 6.16665V6.83331C25 7.19998 25.3 7.49998 25.6667 7.49998C26.0333 7.49998 26.3333 7.19998 26.3333 6.83331V6.16665C26.3333 5.79998 26.0333 5.49998 25.6667 5.49998C25.3 5.49998 25 5.79998 25 6.16665Z" fill="black" fill-opacity="0.72"/>
<path d="M25.6667 5.49998C26.0349 5.49998 26.3333 5.2015 26.3333 4.83331C26.3333 4.46512 26.0349 4.16665 25.6667 4.16665C25.2985 4.16665 25 4.46512 25 4.83331C25 5.2015 25.2985 5.49998 25.6667 5.49998Z" fill="black" fill-opacity="0.72"/>
</g>
</g>
</svg>
