<svg width="32" height="32" viewBox="0 0 32 32" fill="none" xmlns="http://www.w3.org/2000/svg">
<g id="illustrative / md / partnership-shield-md">
<g id="icon">
<path d="M29.3334 13.815H27.2467C27.3067 13.595 27.3334 13.375 27.3334 13.1483C27.3334 11.675 26.14 10.4816 24.6667 10.4816C23.1934 10.4816 22 11.675 22 13.1483C22 13.375 22.0267 13.595 22.0867 13.815H20C19.2667 13.815 18.6667 14.415 18.6667 15.1483V17.235C18.4534 17.175 18.2267 17.1483 18 17.1483C16.5267 17.1483 15.3334 18.3416 15.3334 19.815C15.3334 21.2883 16.5267 22.4816 18 22.4816C18.2267 22.4816 18.4534 22.455 18.6667 22.395V24.4816C18.6667 25.215 19.2667 25.815 20 25.815H27.3334C29.1734 25.815 30.6667 24.3216 30.6667 22.4816V15.1483C30.6667 14.415 30.0667 13.815 29.3334 13.815ZM29.3334 22.4816C29.3334 23.5816 28.4334 24.4816 27.3334 24.4816H20V21.295C20 21.0283 19.8467 20.795 19.6067 20.6883C19.52 20.6483 19.4267 20.6283 19.3334 20.6283C19.1734 20.6283 19.0134 20.6883 18.8867 20.8016C18.64 21.0283 18.3267 21.1483 18 21.1483C17.2667 21.1483 16.6667 20.5483 16.6667 19.815C16.6667 19.0816 17.2667 18.4816 18 18.4816C18.3267 18.4816 18.64 18.6083 18.8867 18.8283C19.08 19.0016 19.3667 19.0483 19.6067 18.9416C19.8467 18.835 20 18.595 20 18.335V15.1483H23.1867C23.4467 15.1483 23.6867 14.995 23.7934 14.755C23.9 14.515 23.8534 14.235 23.68 14.035C23.52 13.8616 23.3334 13.5616 23.3334 13.1483C23.3334 12.415 23.9334 11.815 24.6667 11.815C25.4 11.815 26 12.415 26 13.1483C26 13.5616 25.8134 13.8616 25.6534 14.035C25.48 14.2283 25.4334 14.515 25.54 14.755C25.6467 14.995 25.8867 15.1483 26.1467 15.1483H29.3334V22.4816Z" fill="black" fill-opacity="0.72"/>
<path d="M12 13.815H4.66671C2.82671 13.815 1.33337 15.3083 1.33337 17.1483V24.4816C1.33337 25.215 1.93337 25.815 2.66671 25.815H4.75337C4.69337 26.0283 4.66671 26.255 4.66671 26.4816C4.66671 27.955 5.86004 29.1483 7.33337 29.1483C8.80671 29.1483 10 27.955 10 26.4816C10 26.255 9.97337 26.0283 9.91337 25.815H12C12.7334 25.815 13.3334 25.215 13.3334 24.4816V21.295C13.3334 21.0283 13.18 20.795 12.94 20.6883C12.7 20.5816 12.42 20.6283 12.22 20.8016C11.9734 21.0283 11.66 21.1483 11.3334 21.1483C10.6 21.1483 10 20.5483 10 19.815C10 19.0816 10.6 18.4816 11.3334 18.4816C11.66 18.4816 11.9734 18.6083 12.22 18.8283C12.4134 19.0016 12.7 19.0483 12.94 18.9416C13.18 18.835 13.3334 18.595 13.3334 18.335V15.1483C13.3334 14.415 12.7334 13.815 12 13.815ZM12 17.235C11.7867 17.175 11.56 17.1483 11.3334 17.1483C9.86004 17.1483 8.66671 18.3416 8.66671 19.815C8.66671 21.2883 9.86004 22.4816 11.3334 22.4816C11.56 22.4816 11.7867 22.455 12 22.395V24.4816H8.81337C8.55337 24.4816 8.31337 24.635 8.20671 24.875C8.10004 25.115 8.14671 25.395 8.32004 25.595C8.48004 25.7683 8.66671 26.0683 8.66671 26.4816C8.66671 27.215 8.06671 27.815 7.33337 27.815C6.60004 27.815 6.00004 27.215 6.00004 26.4816C6.00004 26.0683 6.18671 25.7683 6.34671 25.595C6.52004 25.4016 6.56671 25.1216 6.46004 24.875C6.35337 24.635 6.11337 24.4816 5.85337 24.4816H2.66671V17.1483C2.66671 16.0483 3.56671 15.1483 4.66671 15.1483H12V17.235Z" fill="black" fill-opacity="0.72"/>
<path d="M16.74 13.5216C16.8734 13.655 17.04 13.715 17.2134 13.715C17.3867 13.715 17.5534 13.6483 17.6867 13.5216L18.0534 13.155C18.3134 12.895 18.3134 12.475 18.0534 12.215C17.7934 11.955 17.3734 11.955 17.1134 12.215L16.7467 12.5816C16.4867 12.8416 16.4867 13.2616 16.7467 13.5216H16.74Z" fill="black" fill-opacity="0.72"/>
<path d="M14.72 12.195C14.46 11.935 14.04 11.935 13.78 12.195C13.52 12.455 13.52 12.875 13.78 13.135L14.1467 13.5016C14.28 13.635 14.4467 13.695 14.62 13.695C14.7934 13.695 14.96 13.6283 15.0934 13.5016C15.3534 13.2416 15.3534 12.8216 15.0934 12.5616L14.7267 12.195H14.72Z" fill="black" fill-opacity="0.72"/>
<path d="M16.08 11.335C16.4467 11.335 16.7467 11.035 16.7467 10.6683V10.0016C16.7467 9.63498 16.4467 9.33498 16.08 9.33498C15.7134 9.33498 15.4134 9.63498 15.4134 10.0016V10.6683C15.4134 11.035 15.7134 11.335 16.08 11.335Z" fill="black" fill-opacity="0.72"/>
<path d="M17.6867 25.815C17.4267 25.555 17.0067 25.555 16.7467 25.815C16.4867 26.075 16.4867 26.495 16.7467 26.755L17.1134 27.1216C17.2467 27.255 17.4134 27.315 17.5867 27.315C17.76 27.315 17.9267 27.2483 18.06 27.1216C18.32 26.8616 18.32 26.4416 18.06 26.1816L17.6934 25.815H17.6867Z" fill="black" fill-opacity="0.72"/>
<path d="M14.1467 25.8283L13.78 26.195C13.52 26.455 13.52 26.875 13.78 27.135C13.9134 27.2683 14.08 27.3283 14.2534 27.3283C14.4267 27.3283 14.5934 27.2616 14.7267 27.135L15.0934 26.7683C15.3534 26.5083 15.3534 26.0883 15.0934 25.8283C14.8334 25.5683 14.4134 25.5683 14.1534 25.8283H14.1467Z" fill="black" fill-opacity="0.72"/>
<path d="M16.08 28.0016C15.7134 28.0016 15.4134 28.3016 15.4134 28.6683V29.335C15.4134 29.7016 15.7134 30.0016 16.08 30.0016C16.4467 30.0016 16.7467 29.7016 16.7467 29.335V28.6683C16.7467 28.3016 16.4467 28.0016 16.08 28.0016Z" fill="black" fill-opacity="0.72"/>
<path d="M30 2.00165C29.6134 2.00165 28.3334 1.63498 27.5467 1.36831C27.4067 1.32165 27.26 1.32165 27.1267 1.36831C26.34 1.62831 25.0534 2.00165 24.6734 2.00165C24.2934 2.00165 24.0067 2.30165 24.0067 2.66831V6.66831C24.0067 8.32831 26.5334 9.67498 27.04 9.92831C27.1334 9.97498 27.2334 10.0016 27.34 10.0016C27.4267 10.0016 27.52 9.98165 27.6067 9.94831C27.64 9.93498 30.6734 8.59498 30.6734 6.66831V2.66831C30.6734 2.30165 30.3734 2.00165 30.0067 2.00165H30ZM29.3334 6.66831C29.3334 7.32831 28.0867 8.19498 27.3467 8.58831C26.4267 8.06831 25.3334 7.20831 25.3334 6.66831V3.24831C26.0267 3.10831 26.9 2.84165 27.3334 2.70165C27.7667 2.84165 28.64 3.11498 29.3334 3.24831V6.66831Z" fill="black" fill-opacity="0.72"/>
</g>
</g>
</svg>
