<svg width="32" height="32" viewBox="0 0 32 32" fill="none" xmlns="http://www.w3.org/2000/svg">
<g id="illustrative / md / liquidity-risks-md">
<g id="icon">
<path d="M20.48 9.55998C18.6133 9.10665 14.08 7.91998 12.3733 6.77998C12.1467 6.63331 11.86 6.63331 11.6333 6.77998C9.92667 7.91998 5.39333 9.10665 3.52667 9.55998C2.62667 9.77998 2 10.58 2 11.5V20.5533C2 28.8 11.7933 30.5266 11.8933 30.5466C11.9267 30.5466 11.9667 30.5533 12 30.5533C12.0333 30.5533 12.0733 30.5533 12.1067 30.5466C12.2067 30.5333 22 28.8 22 20.5533V11.5C22 10.5733 21.3733 9.77331 20.48 9.55998ZM20.6667 20.56C20.6667 23.52 19.22 25.8733 16.36 27.5466C14.4333 28.68 12.4733 29.12 12 29.2133C10.9867 29.0133 3.33333 27.2533 3.33333 20.56V11.5066C3.33333 11.2 3.54 10.9333 3.84 10.86C6.09333 10.3066 10.02 9.24665 12 8.11998C13.98 9.24665 17.9067 10.3066 20.16 10.86C20.46 10.9333 20.6667 11.2 20.6667 11.5066V20.56Z" fill="black" fill-opacity="0.72"/>
<path d="M13.74 13.1666C13.38 12.5333 12.7267 12.1533 12 12.1533C11.2733 12.1533 10.62 12.5333 10.26 13.1666L5.88 20.9C5.52667 21.5266 5.53333 22.2733 5.89333 22.8933C6.25333 23.5133 6.9 23.8866 7.62 23.8866H16.38C17.1 23.8866 17.7467 23.5133 18.1067 22.8933C18.4667 22.2733 18.4733 21.5266 18.12 20.9L13.74 13.1666ZM16.9533 22.22C16.8933 22.32 16.72 22.5533 16.38 22.5533H7.62C7.27333 22.5533 7.1 22.32 7.04667 22.22C6.98667 22.12 6.87333 21.86 7.04667 21.5533L11.4267 13.82C11.6 13.5133 11.8933 13.48 12.0067 13.48C12.12 13.48 12.4133 13.5133 12.5867 13.82L16.9667 21.5533C17.14 21.8533 17.02 22.12 16.9667 22.22H16.9533Z" fill="black" fill-opacity="0.72"/>
<path d="M12 16.78C11.6333 16.78 11.3333 17.08 11.3333 17.4466V18.78C11.3333 19.1466 11.6333 19.4466 12 19.4466C12.3667 19.4466 12.6667 19.1466 12.6667 18.78V17.4466C12.6667 17.08 12.3667 16.78 12 16.78Z" fill="black" fill-opacity="0.72"/>
<path d="M12 21.4466C12.3682 21.4466 12.6667 21.1482 12.6667 20.78C12.6667 20.4118 12.3682 20.1133 12 20.1133C11.6318 20.1133 11.3333 20.4118 11.3333 20.78C11.3333 21.1482 11.6318 21.4466 12 21.4466Z" fill="black" fill-opacity="0.72"/>
<path d="M26.3333 1.33331C23.94 1.33331 22 3.27331 22 5.66665C22 8.05998 23.94 9.99998 26.3333 9.99998C28.7267 9.99998 30.6667 8.05998 30.6667 5.66665C30.6667 3.27331 28.7267 1.33331 26.3333 1.33331ZM26.3333 8.66665C24.68 8.66665 23.3333 7.31998 23.3333 5.66665C23.3333 4.01331 24.68 2.66665 26.3333 2.66665C27.9867 2.66665 29.3333 4.01331 29.3333 5.66665C29.3333 7.31998 27.9867 8.66665 26.3333 8.66665Z" fill="black" fill-opacity="0.72"/>
<path d="M26.86 4.85998L26 5.71998L25.8067 5.52665C25.5467 5.26665 25.1267 5.26665 24.8667 5.52665C24.6067 5.78665 24.6067 6.20665 24.8667 6.46665L25.5333 7.13331C25.6667 7.26665 25.8333 7.32665 26.0067 7.32665C26.18 7.32665 26.3467 7.25998 26.48 7.13331L27.8133 5.79998C28.0733 5.53998 28.0733 5.11998 27.8133 4.85998C27.5533 4.59998 27.1333 4.59998 26.8733 4.85998H26.86Z" fill="black" fill-opacity="0.72"/>
</g>
</g>
</svg>
