<svg width="32" height="32" viewBox="0 0 32 32" fill="none" xmlns="http://www.w3.org/2000/svg">
<g id="illustrative / md / high-md">
<g id="icon">
<path d="M24 4.66669H7.99996C6.15996 4.66669 4.66663 6.16002 4.66663 8.00002V24C4.66663 25.84 6.15996 27.3334 7.99996 27.3334H24C25.84 27.3334 27.3333 25.84 27.3333 24V8.00002C27.3333 6.16002 25.84 4.66669 24 4.66669ZM26 24C26 25.1 25.1 26 24 26H7.99996C6.89996 26 5.99996 25.1 5.99996 24V8.00002C5.99996 6.90002 6.89996 6.00002 7.99996 6.00002H24C25.1 6.00002 26 6.90002 26 8.00002V24Z" fill="black" fill-opacity="0.72"/>
<path d="M20.8666 16.9267L16.2933 14.64C16.1066 14.5467 15.8866 14.5467 15.7 14.64L11.1266 16.9267C10.8 17.0934 10.6666 17.4934 10.8266 17.82C10.9933 18.1467 11.3933 18.28 11.72 18.12L15.9933 15.98L20.2666 18.12C20.36 18.1667 20.4666 18.1934 20.5666 18.1934C20.8133 18.1934 21.0466 18.06 21.1666 17.8267C21.3333 17.5 21.2 17.1 20.8666 16.9334V16.9267Z" fill="black" fill-opacity="0.72"/>
</g>
</g>
</svg>
