<svg width="32" height="32" viewBox="0 0 32 32" fill="none" xmlns="http://www.w3.org/2000/svg">
<g id="illustrative / md / responsible-md">
<path id="icon" d="M29.5117 20.0884C29.5267 20.0717 29.5417 20.055 29.5534 20.0367C29.5634 20.0217 29.5717 20.0034 29.58 19.9884C29.5917 19.9667 29.605 19.9467 29.615 19.9234C29.625 19.9 29.63 19.8767 29.6367 19.8517C29.6417 19.835 29.6484 19.8184 29.6534 19.8C29.6617 19.7567 29.6667 19.7117 29.6667 19.6667C29.6667 12.355 23.8934 6.36669 16.6667 6.01669V3.83335C16.6667 3.46502 16.3684 3.16669 16 3.16669C15.6317 3.16669 15.3334 3.46502 15.3334 3.83335V6.01669C8.10671 6.36669 2.33337 12.355 2.33337 19.6667C2.33337 19.6667 2.33337 19.6667 2.33337 19.6684C2.33337 19.7084 2.33837 19.7467 2.34504 19.785C2.34504 19.79 2.34504 19.795 2.34671 19.8C2.35504 19.8367 2.36671 19.8734 2.38004 19.9084C2.39004 19.9334 2.40337 19.9584 2.41671 19.9817C2.42671 20 2.43504 20.02 2.44671 20.0367C2.45671 20.0517 2.47004 20.065 2.48171 20.08C2.49671 20.0984 2.51004 20.1184 2.52837 20.1367C2.53337 20.1417 2.53837 20.145 2.54337 20.15C2.57504 20.18 2.61171 20.2067 2.65004 20.2317C2.68004 20.25 2.71004 20.2684 2.74171 20.2817C2.74671 20.2834 2.75337 20.285 2.75837 20.2867C2.79337 20.3 2.83004 20.3134 2.86837 20.32C2.86837 20.32 2.86837 20.32 2.87004 20.32C2.90504 20.3267 2.94004 20.3284 2.97504 20.33C2.98337 20.33 2.99004 20.3317 2.99837 20.3317C3.25671 20.3317 3.49004 20.18 3.60004 19.9484C3.60337 19.94 3.61004 19.9334 3.61337 19.925C3.61837 19.9117 3.62171 19.8967 3.62671 19.8834C3.63671 19.855 3.64671 19.8267 3.65337 19.7967C3.65337 19.7967 3.65337 19.795 3.65337 19.7934C3.83671 18.8534 4.66837 18.1634 5.60337 18.1634C5.62504 18.1634 5.64671 18.1634 5.66837 18.1634C6.57837 18.195 7.36837 18.8784 7.54671 19.7917C7.54671 19.7917 7.54671 19.7934 7.54671 19.795C7.55004 19.8084 7.55504 19.82 7.55837 19.8334C7.56504 19.86 7.57337 19.8884 7.58337 19.9134C7.59004 19.9284 7.59671 19.9417 7.60337 19.9567C7.61504 19.98 7.62671 20.0017 7.64004 20.0234C7.64837 20.0367 7.65837 20.05 7.66837 20.0617C7.68337 20.0817 7.69837 20.1 7.71504 20.1184C7.72671 20.13 7.73837 20.1417 7.75004 20.1517C7.76837 20.1684 7.78671 20.1834 7.80671 20.1984C7.82004 20.2084 7.83337 20.2184 7.84671 20.2267C7.86837 20.24 7.89004 20.2517 7.91171 20.2617C7.92671 20.2684 7.94004 20.2767 7.95504 20.2817C7.98004 20.2917 8.00671 20.3 8.03337 20.3067C8.04671 20.31 8.05837 20.315 8.07337 20.3167C8.11337 20.325 8.15504 20.33 8.19837 20.33H8.20171C8.24504 20.33 8.28671 20.325 8.32671 20.3167C8.34171 20.3134 8.35504 20.3084 8.36837 20.305C8.39504 20.2984 8.42004 20.2917 8.44504 20.2817C8.46004 20.275 8.47504 20.2684 8.49004 20.2617C8.51171 20.2517 8.53337 20.24 8.55337 20.2267C8.56837 20.2184 8.58171 20.2084 8.59504 20.1984C8.61504 20.1834 8.63337 20.1684 8.65171 20.1517C8.66337 20.14 8.67504 20.13 8.68671 20.1184C8.70337 20.1 8.72004 20.08 8.73504 20.06C8.74504 20.0484 8.75337 20.035 8.76171 20.0234C8.77671 20.0017 8.78837 19.9767 8.80004 19.9534C8.80671 19.94 8.81337 19.9284 8.81837 19.915C8.83171 19.8817 8.84171 19.8484 8.85004 19.8117C8.85004 19.8067 8.85337 19.8017 8.85504 19.795C9.05504 18.81 9.94171 18.105 10.9117 18.1617C11.81 18.21 12.565 18.8817 12.7484 19.7934C12.75 19.8017 12.7534 19.81 12.755 19.8184C12.7634 19.85 12.7717 19.8834 12.785 19.9134C12.79 19.9267 12.7967 19.9384 12.8034 19.95C12.815 19.975 12.8267 19.9984 12.8417 20.0217C12.85 20.035 12.86 20.0467 12.87 20.06C12.885 20.0784 12.8984 20.0967 12.915 20.115C12.9284 20.13 12.9434 20.1434 12.9567 20.155C12.97 20.1667 12.9834 20.1784 12.9984 20.19C13.0184 20.205 13.0384 20.2184 13.06 20.2317C13.07 20.2384 13.08 20.2434 13.0917 20.2484C13.1184 20.2617 13.145 20.275 13.1717 20.285C13.1767 20.2867 13.1834 20.2884 13.1884 20.29C13.22 20.3 13.2534 20.31 13.2867 20.3167C13.2934 20.3167 13.3017 20.3167 13.3084 20.3184C13.3384 20.3234 13.3684 20.3284 13.4 20.3284C13.4 20.3284 13.4017 20.3284 13.4034 20.3284C13.4034 20.3284 13.405 20.3284 13.4067 20.3284C13.4484 20.3284 13.49 20.3234 13.53 20.315C13.5417 20.3134 13.5534 20.3084 13.5667 20.305C13.595 20.2984 13.6217 20.29 13.6484 20.28C13.6634 20.2734 13.6767 20.2667 13.6917 20.26C13.715 20.2484 13.7367 20.2384 13.7567 20.225C13.77 20.2167 13.7834 20.2067 13.7967 20.1967C13.8167 20.1817 13.835 20.1667 13.8534 20.15C13.865 20.1384 13.8767 20.1284 13.8884 20.115C13.905 20.0967 13.92 20.0784 13.935 20.0584C13.945 20.045 13.955 20.0334 13.9634 20.0184C13.9767 19.9967 13.9884 19.975 13.9984 19.9517C14.005 19.9367 14.0134 19.9234 14.0184 19.9084C14.0284 19.8834 14.035 19.8584 14.0417 19.8317C14.045 19.8167 14.05 19.8034 14.0534 19.7884C14.0534 19.7867 14.0534 19.7834 14.055 19.7817C14.185 19.0717 14.685 18.51 15.3334 18.2784V27.495C15.3334 27.955 14.96 28.3284 14.5 28.3284C14.04 28.3284 13.6667 27.955 13.6667 27.495C13.6667 27.1267 13.3684 26.8284 13 26.8284C12.6317 26.8284 12.3334 27.1267 12.3334 27.495C12.3334 28.69 13.305 29.6617 14.5 29.6617C15.695 29.6617 16.6667 28.69 16.6667 27.495V18.2784C17.315 18.51 17.8134 19.0734 17.945 19.7817C17.945 19.7834 17.945 19.7867 17.9467 19.7884C17.95 19.8034 17.955 19.8167 17.9584 19.8317C17.965 19.8584 17.9717 19.8834 17.9817 19.9084C17.9884 19.9234 17.995 19.9367 18.0034 19.9517C18.015 19.975 18.025 19.9967 18.0384 20.0184C18.0467 20.0317 18.0567 20.045 18.0667 20.0584C18.0817 20.0784 18.0967 20.0967 18.1134 20.115C18.125 20.1267 18.1367 20.1384 18.1484 20.15C18.1667 20.1667 18.185 20.1817 18.205 20.1967C18.2184 20.2067 18.2317 20.2167 18.245 20.225C18.2667 20.2384 18.2884 20.25 18.31 20.26C18.325 20.2667 18.3384 20.275 18.3534 20.28C18.3784 20.29 18.405 20.2984 18.4334 20.305C18.4467 20.3084 18.4584 20.3134 18.4717 20.315C18.5117 20.3234 18.5534 20.3284 18.5967 20.3284H18.6C18.6434 20.3284 18.685 20.3234 18.7267 20.315C18.7417 20.3117 18.755 20.3067 18.7684 20.3034C18.795 20.2967 18.82 20.29 18.845 20.28C18.86 20.2734 18.875 20.2667 18.89 20.2584C18.9117 20.2484 18.9334 20.2367 18.9534 20.2234C18.9684 20.215 18.9817 20.205 18.995 20.195C19.015 20.18 19.0334 20.165 19.05 20.1484C19.0617 20.1367 19.0734 20.1267 19.085 20.1134C19.1017 20.095 19.1167 20.0767 19.1317 20.0567C19.1417 20.0434 19.1517 20.0317 19.16 20.0184C19.1734 19.9967 19.185 19.975 19.1967 19.9517C19.2034 19.9367 19.2117 19.9234 19.2184 19.9084C19.2284 19.8834 19.2367 19.855 19.2434 19.8284C19.2467 19.815 19.2517 19.8034 19.255 19.79C19.255 19.79 19.255 19.7884 19.255 19.7867C19.4317 18.8717 20.225 18.1884 21.1384 18.16C22.1 18.1284 22.96 18.83 23.1467 19.7884C23.1467 19.7884 23.1467 19.79 23.1467 19.7917C23.15 19.805 23.155 19.8184 23.1584 19.8317C23.165 19.8584 23.1734 19.8867 23.1834 19.9117C23.19 19.9267 23.1967 19.94 23.205 19.955C23.2167 19.9784 23.2267 20 23.24 20.02C23.2484 20.0334 23.2584 20.0467 23.2684 20.06C23.2834 20.08 23.2984 20.0984 23.315 20.1167C23.3267 20.1284 23.3384 20.14 23.35 20.1517C23.3684 20.1684 23.3867 20.1834 23.405 20.1967C23.4184 20.2067 23.4317 20.2167 23.4467 20.225C23.4667 20.2384 23.4884 20.2484 23.51 20.26C23.525 20.2667 23.5384 20.275 23.555 20.28C23.58 20.29 23.6067 20.2967 23.6334 20.3034C23.6467 20.3067 23.66 20.3117 23.6734 20.315C23.7134 20.3234 23.755 20.3284 23.7984 20.3284H23.8C23.8434 20.3284 23.885 20.3234 23.925 20.315C23.94 20.3117 23.9534 20.3067 23.9667 20.3034C23.9917 20.2967 24.0184 20.29 24.0434 20.28C24.0584 20.2734 24.0734 20.2667 24.0884 20.2584C24.11 20.2484 24.1317 20.2367 24.1517 20.2234C24.1667 20.215 24.18 20.205 24.1934 20.195C24.2134 20.18 24.2317 20.165 24.2484 20.15C24.26 20.1384 24.2717 20.1284 24.2834 20.115C24.3 20.0967 24.315 20.0784 24.33 20.0584C24.34 20.045 24.35 20.0334 24.3584 20.02C24.3717 19.9984 24.3834 19.975 24.395 19.9517C24.4017 19.9384 24.4084 19.925 24.415 19.9117C24.4267 19.8817 24.4367 19.8484 24.445 19.8167C24.4467 19.8084 24.45 19.8017 24.4517 19.7934C24.635 18.8834 25.3884 18.2117 26.285 18.1617C27.26 18.105 28.1434 18.81 28.345 19.795C28.345 19.8017 28.3484 19.8067 28.35 19.8134C28.3584 19.8484 28.3684 19.8817 28.3817 19.915C28.3867 19.9267 28.3934 19.9384 28.4 19.95C28.4117 19.975 28.425 20 28.44 20.0234C28.4484 20.035 28.4567 20.0467 28.465 20.0584C28.48 20.08 28.4967 20.1 28.515 20.1184C28.525 20.13 28.5367 20.14 28.5484 20.15C28.5667 20.1667 28.585 20.1834 28.605 20.1967C28.6184 20.2067 28.6317 20.215 28.645 20.2234C28.6667 20.2367 28.6867 20.2484 28.71 20.2584C28.725 20.265 28.7384 20.2717 28.7534 20.2784C28.7784 20.2884 28.805 20.2967 28.8317 20.3034C28.845 20.3067 28.8567 20.3117 28.87 20.3134C28.9117 20.3217 28.9534 20.3267 28.995 20.3267C29.025 20.3267 29.055 20.3217 29.085 20.3184C29.145 20.31 29.2034 20.2967 29.2567 20.2734C29.2717 20.2667 29.285 20.2584 29.2984 20.25C29.3234 20.2384 29.3484 20.2267 29.37 20.21C29.3884 20.1967 29.405 20.1817 29.4217 20.1667C29.4367 20.1534 29.455 20.1417 29.4684 20.1267C29.4834 20.1117 29.495 20.095 29.5084 20.0784L29.5117 20.0884ZM5.71337 16.8334C5.05671 16.8134 4.42837 16.9967 3.89171 17.3267C4.68504 13.2167 7.52337 9.82669 11.3034 8.26335C10.805 8.79835 10.3384 9.42002 9.91171 10.13C8.68337 12.1767 7.89837 14.7567 7.63337 17.5467C7.09337 17.12 6.42504 16.8567 5.71171 16.8317L5.71337 16.8334ZM10.9834 16.8334C10.26 16.7934 9.56837 17.0017 8.99171 17.3867C9.26171 14.905 9.97004 12.6267 11.0567 10.815C11.9667 9.29835 13.0634 8.24335 14.245 7.71835C13.97 8.38835 13.725 9.25835 13.5084 10.3417C13.1134 12.315 12.86 14.7967 12.77 17.4867C12.2617 17.105 11.6467 16.8684 10.9834 16.8334ZM16 16.8334C15.3017 16.8334 14.6467 17.0534 14.1067 17.43C14.1917 15.0267 14.41 12.79 14.745 10.9767C15.2234 8.38502 15.78 7.51169 16.0017 7.35002C16.2217 7.51169 16.78 8.38335 17.2584 10.9767C17.5934 12.7917 17.8117 15.0284 17.8967 17.43C17.3567 17.0534 16.7017 16.8334 16.0034 16.8334H16ZM21.0967 16.8334C20.4084 16.855 19.7617 17.0967 19.23 17.495C19.14 14.8034 18.8867 12.3184 18.4917 10.3434C18.275 9.26002 18.0317 8.39002 17.755 7.72002C18.9367 8.24669 20.0334 9.30169 20.9434 10.8167C22.03 12.6284 22.7384 14.9067 23.0084 17.39C22.4517 17.0217 21.7867 16.815 21.095 16.8334H21.0967ZM26.2117 16.8334C25.5217 16.8717 24.8834 17.1284 24.365 17.5384C24.1 14.7517 23.315 12.175 22.0867 10.13C21.66 9.42002 21.1934 8.79835 20.695 8.26335C24.4767 9.82669 27.315 13.2167 28.1067 17.3267C27.5484 16.9817 26.8917 16.7967 26.21 16.8334H26.2117Z" fill="black" fill-opacity="0.72"/>
</g>
</svg>
