<svg width="32" height="32" viewBox="0 0 32 32" fill="none" xmlns="http://www.w3.org/2000/svg">
<g id="illustrative / md / knock-out-md">
<g id="icon">
<path d="M30.4685 12.86L30.0752 12.4667C29.2952 11.6867 28.0285 11.6867 27.2485 12.4667L23.8018 15.9134C23.5485 16.1667 23.1085 16.1667 22.8618 15.9134L19.4152 12.4667C18.6352 11.6867 17.3685 11.6867 16.5885 12.4667L9.7485 19.3067C9.50183 19.5534 9.10183 19.5667 8.83516 19.3334L5.38183 16.3067C4.5885 15.6134 3.39516 15.6534 2.6485 16.4L1.5285 17.52C1.2685 17.78 1.2685 18.2 1.5285 18.46C1.7885 18.72 2.2085 18.72 2.4685 18.46L3.5885 17.34C3.83516 17.0934 4.23516 17.08 4.50183 17.3134L7.95516 20.34C8.33516 20.6667 8.80183 20.8334 9.27516 20.8334C9.7885 20.8334 10.3018 20.64 10.6885 20.2467L17.5285 13.4067C17.7885 13.1467 18.2085 13.1467 18.4685 13.4067L21.9152 16.8534C22.6952 17.6334 23.9618 17.6334 24.7418 16.8534L28.1885 13.4067C28.4485 13.1467 28.8685 13.1467 29.1285 13.4067L29.5218 13.8C29.7818 14.06 30.2018 14.06 30.4618 13.8C30.7218 13.54 30.7218 13.12 30.4618 12.86H30.4685Z" fill="black" fill-opacity="0.72"/>
<path d="M17.9952 9.33335C18.8885 9.33335 19.7218 8.98669 20.3552 8.36002C20.9818 7.73335 21.3285 6.89335 21.3285 6.00002C21.3285 5.10669 20.9818 4.27335 20.3552 3.64002C19.7285 3.00669 18.8885 2.66669 17.9952 2.66669C17.1018 2.66669 16.2685 3.01335 15.6352 3.64002C15.0018 4.26669 14.6618 5.10669 14.6618 6.00002C14.6618 6.89335 15.0085 7.72669 15.6352 8.36002C16.2618 8.99335 17.1018 9.33335 17.9952 9.33335ZM19.4085 7.41335C18.8152 8.00669 17.8885 8.12669 17.1418 7.79335L19.7885 5.14669C19.9152 5.41335 19.9885 5.70002 19.9885 6.00669C19.9885 6.54002 19.7818 7.04002 19.4018 7.42002L19.4085 7.41335ZM16.5818 4.58669C16.9618 4.20669 17.4618 4.00002 17.9952 4.00002C18.2952 4.00002 18.5885 4.07335 18.8552 4.20002L16.1952 6.86002C16.0685 6.59335 15.9952 6.30669 15.9952 6.00002C15.9952 5.46669 16.2018 4.96669 16.5818 4.58669Z" fill="black" fill-opacity="0.72"/>
<path d="M6.9685 24.3067C6.34183 24.9334 5.99516 25.7734 5.99516 26.6667C5.99516 27.56 6.34183 28.3934 6.9685 29.0267C7.59516 29.66 8.4685 30 9.3285 30C10.1885 30 11.0352 29.6734 11.6885 29.0267C12.3418 28.38 12.6618 27.56 12.6618 26.6667C12.6618 25.7734 12.3152 24.94 11.6885 24.3067C10.3885 23.0067 8.27516 23.0067 6.97516 24.3067H6.9685ZM7.9085 25.2467C8.29516 24.86 8.8085 24.66 9.32183 24.66C9.61516 24.66 9.9085 24.7334 10.1752 24.86L7.52183 27.5134C7.39516 27.2467 7.32183 26.96 7.32183 26.6534C7.32183 26.12 7.5285 25.62 7.9085 25.24V25.2467ZM10.7352 28.0734C10.1218 28.6867 9.2085 28.8134 8.46183 28.46L11.1152 25.8067C11.2418 26.0734 11.3152 26.36 11.3152 26.6667C11.3152 27.2 11.1085 27.7 10.7285 28.08L10.7352 28.0734Z" fill="black" fill-opacity="0.72"/>
<path d="M15.3285 10C15.3285 10.3667 15.6285 10.6667 15.9952 10.6667H19.9952C20.3618 10.6667 20.6618 10.3667 20.6618 10C20.6618 9.63335 20.3618 9.33335 19.9952 9.33335H15.9952C15.6285 9.33335 15.3285 9.63335 15.3285 10Z" fill="black" fill-opacity="0.72"/>
<path d="M11.3285 23.3334C11.6952 23.3334 11.9952 23.0334 11.9952 22.6667C11.9952 22.3 11.6952 22 11.3285 22H7.3285C6.96183 22 6.66183 22.3 6.66183 22.6667C6.66183 23.0334 6.96183 23.3334 7.3285 23.3334H11.3285Z" fill="black" fill-opacity="0.72"/>
<path d="M14.6618 22H13.9952C13.6285 22 13.3285 22.3 13.3285 22.6667C13.3285 23.0334 13.6285 23.3334 13.9952 23.3334H14.6618C15.0285 23.3334 15.3285 23.0334 15.3285 22.6667C15.3285 22.3 15.0285 22 14.6618 22Z" fill="black" fill-opacity="0.72"/>
<path d="M4.66183 22H3.99516C3.6285 22 3.3285 22.3 3.3285 22.6667C3.3285 23.0334 3.6285 23.3334 3.99516 23.3334H4.66183C5.0285 23.3334 5.3285 23.0334 5.3285 22.6667C5.3285 22.3 5.0285 22 4.66183 22Z" fill="black" fill-opacity="0.72"/>
<path d="M17.9952 22H17.3285C16.9618 22 16.6618 22.3 16.6618 22.6667C16.6618 23.0334 16.9618 23.3334 17.3285 23.3334H17.9952C18.3618 23.3334 18.6618 23.0334 18.6618 22.6667C18.6618 22.3 18.3618 22 17.9952 22Z" fill="black" fill-opacity="0.72"/>
<path d="M21.3285 22H20.6618C20.2952 22 19.9952 22.3 19.9952 22.6667C19.9952 23.0334 20.2952 23.3334 20.6618 23.3334H21.3285C21.6952 23.3334 21.9952 23.0334 21.9952 22.6667C21.9952 22.3 21.6952 22 21.3285 22Z" fill="black" fill-opacity="0.72"/>
<path d="M12.6618 10.6667H13.3285C13.6952 10.6667 13.9952 10.3667 13.9952 10C13.9952 9.63335 13.6952 9.33335 13.3285 9.33335H12.6618C12.2952 9.33335 11.9952 9.63335 11.9952 10C11.9952 10.3667 12.2952 10.6667 12.6618 10.6667Z" fill="black" fill-opacity="0.72"/>
<path d="M22.6618 10.6667H23.3285C23.6952 10.6667 23.9952 10.3667 23.9952 10C23.9952 9.63335 23.6952 9.33335 23.3285 9.33335H22.6618C22.2952 9.33335 21.9952 9.63335 21.9952 10C21.9952 10.3667 22.2952 10.6667 22.6618 10.6667Z" fill="black" fill-opacity="0.72"/>
<path d="M25.9952 10.6667H26.6618C27.0285 10.6667 27.3285 10.3667 27.3285 10C27.3285 9.63335 27.0285 9.33335 26.6618 9.33335H25.9952C25.6285 9.33335 25.3285 9.63335 25.3285 10C25.3285 10.3667 25.6285 10.6667 25.9952 10.6667Z" fill="black" fill-opacity="0.72"/>
<path d="M9.3285 10.6667H9.99516C10.3618 10.6667 10.6618 10.3667 10.6618 10C10.6618 9.63335 10.3618 9.33335 9.99516 9.33335H9.3285C8.96183 9.33335 8.66183 9.63335 8.66183 10C8.66183 10.3667 8.96183 10.6667 9.3285 10.6667Z" fill="black" fill-opacity="0.72"/>
</g>
</g>
</svg>
