<svg width="32" height="32" viewBox="0 0 32 32" fill="none" xmlns="http://www.w3.org/2000/svg">
<g id="illustrative / md / medium-md">
<g id="icon">
<path d="M24 4.66669H7.99996C6.15996 4.66669 4.66663 6.16002 4.66663 8.00002V24C4.66663 25.84 6.15996 27.3334 7.99996 27.3334H24C25.84 27.3334 27.3333 25.84 27.3333 24V8.00002C27.3333 6.16002 25.84 4.66669 24 4.66669ZM26 24C26 25.1 25.1 26 24 26H7.99996C6.89996 26 5.99996 25.1 5.99996 24V8.00002C5.99996 6.90002 6.89996 6.00002 7.99996 6.00002H24C25.1 6.00002 26 6.90002 26 8.00002V24Z" fill="black" fill-opacity="0.72"/>
<path d="M19.8066 13.4267H12.1866C11.82 13.4267 11.52 13.7267 11.52 14.0934C11.52 14.46 11.82 14.76 12.1866 14.76H19.8066C20.1733 14.76 20.4733 14.46 20.4733 14.0934C20.4733 13.7267 20.1733 13.4267 19.8066 13.4267Z" fill="black" fill-opacity="0.72"/>
<path d="M19.8066 17.24H12.1866C11.82 17.24 11.52 17.54 11.52 17.9067C11.52 18.2734 11.82 18.5734 12.1866 18.5734H19.8066C20.1733 18.5734 20.4733 18.2734 20.4733 17.9067C20.4733 17.54 20.1733 17.24 19.8066 17.24Z" fill="black" fill-opacity="0.72"/>
</g>
</g>
</svg>
