<svg width="32" height="32" viewBox="0 0 32 32" fill="none" xmlns="http://www.w3.org/2000/svg">
<g id="illustrative / md / reliable-md">
<g id="icon">
<path d="M28.3652 18.055H22.5469C21.6569 18.055 20.8202 18.4017 20.1902 19.0317L18.2502 20.9717C17.4902 21.7317 17.4902 22.9683 18.2502 23.7283C18.4019 23.88 18.5736 24.0017 18.7569 24.0933L18.7302 24.12C18.3519 24.4983 17.8502 24.705 17.3152 24.705H13.5819C12.5469 24.705 11.7052 25.5467 11.7052 26.5817C11.7052 27.6167 12.5469 28.4583 13.5819 28.4583H20.3386C21.2286 28.4583 22.0669 28.1117 22.6952 27.4817L25.3652 24.8117C25.7436 24.4333 26.2452 24.2267 26.7802 24.2267H28.3652C28.9169 24.2267 29.3652 23.7783 29.3652 23.2267V19.0567C29.3652 18.505 28.9169 18.0567 28.3652 18.0567V18.055ZM24.4236 23.8683L21.7536 26.5383C21.3752 26.9167 20.8736 27.1233 20.3386 27.1233H13.5819C13.2836 27.1233 13.0386 26.88 13.0386 26.58C13.0386 26.28 13.2819 26.0367 13.5819 26.0367H17.3152C18.2052 26.0367 19.0436 25.69 19.6719 25.06L21.9119 22.82C22.0419 22.69 22.1069 22.52 22.1069 22.3483C22.1069 22.1767 22.0419 22.0067 21.9119 21.8767C21.6519 21.6167 21.2286 21.6167 20.9686 21.8767L20.0619 22.7833C19.8219 23.0233 19.4302 23.0233 19.1902 22.7833C18.9502 22.5433 18.9502 22.1517 19.1902 21.9117L21.1302 19.9717C21.5086 19.5933 22.0102 19.385 22.5452 19.385H25.6119V23.1017C25.1702 23.2667 24.7652 23.5217 24.4219 23.865L24.4236 23.8683ZM28.0319 22.8917H26.9469V19.3883H28.0319V22.8917Z" fill="black" fill-opacity="0.72"/>
<path d="M11.8103 12.9699L13.7503 11.0299C14.5103 10.2699 14.5103 9.03327 13.7503 8.27327C13.5986 8.12161 13.4269 7.99994 13.2436 7.90827L13.2703 7.88161C13.6486 7.50327 14.1503 7.29661 14.6853 7.29661H18.4186C19.4536 7.29661 20.2953 6.45494 20.2953 5.41994C20.2953 4.38494 19.4536 3.54327 18.4186 3.54327H11.6619C10.7719 3.54327 9.93359 3.88994 9.30525 4.51994L6.63525 7.18994C6.25692 7.56827 5.75525 7.77494 5.22025 7.77494H3.63525C3.08359 7.77494 2.63525 8.22327 2.63525 8.77494V12.9449C2.63525 13.4966 3.08359 13.9449 3.63525 13.9449H9.45359C10.3436 13.9449 11.1803 13.5983 11.8103 12.9683V12.9699ZM7.57692 8.13327L10.2469 5.46327C10.6253 5.08494 11.1269 4.87827 11.6619 4.87827H18.4186C18.7169 4.87827 18.9619 5.12161 18.9619 5.42161C18.9619 5.72161 18.7186 5.96494 18.4186 5.96494H14.6853C13.7953 5.96494 12.9569 6.31161 12.3286 6.94161L10.0886 9.18161C9.95859 9.31161 9.89359 9.48161 9.89359 9.65327C9.89359 9.82494 9.95859 9.99494 10.0886 10.1249C10.3486 10.3849 10.7719 10.3849 11.0319 10.1249L11.9386 9.21827C12.1786 8.97827 12.5703 8.97827 12.8103 9.21827C13.0503 9.45827 13.0503 9.84994 12.8103 10.0899L10.8703 12.0299C10.4919 12.4083 9.99025 12.6166 9.45525 12.6166H6.38859V8.89994C6.83025 8.73494 7.23525 8.47994 7.57859 8.13661L7.57692 8.13327ZM3.96859 9.10994H5.05359V12.6133H3.96859V9.10994Z" fill="black" fill-opacity="0.72"/>
<path d="M16.8152 12.0415C16.6786 11.9965 16.5302 11.9965 16.3936 12.0415C15.5702 12.3165 14.4919 12.6115 14.1852 12.6115C13.8169 12.6115 13.5186 12.9099 13.5186 13.2782V16.9065C13.5186 18.4499 15.8402 19.6882 16.3052 19.9215C16.3986 19.9682 16.5002 19.9915 16.6036 19.9915C16.6936 19.9915 16.7836 19.9732 16.8686 19.9365C16.8969 19.9249 19.6902 18.6982 19.6902 16.9065V13.2782C19.6902 12.9099 19.3919 12.6115 19.0236 12.6115C18.7169 12.6115 17.6386 12.3149 16.8152 12.0415ZM18.3569 16.9065C18.3569 17.4382 17.3336 18.1982 16.6186 18.5782C15.7336 18.0799 14.8519 17.3315 14.8519 16.9065V13.8582C15.4636 13.7315 16.2136 13.5015 16.6036 13.3765C16.9936 13.5015 17.7436 13.7332 18.3552 13.8582V16.9065H18.3569Z" fill="black" fill-opacity="0.72"/>
<path d="M15.9386 9.04653C15.9386 9.41486 16.237 9.7132 16.6053 9.7132C19.9053 9.7132 22.5903 12.3982 22.5903 15.6982C22.5903 16.0665 22.8886 16.3649 23.257 16.3649C23.6253 16.3649 23.9236 16.0665 23.9236 15.6982C23.9236 11.6632 20.6403 8.37986 16.6053 8.37986C16.237 8.37986 15.9386 8.6782 15.9386 9.04653Z" fill="black" fill-opacity="0.72"/>
<path d="M16.0003 22.9882C16.3419 22.9882 16.6319 22.7282 16.6636 22.3816C16.6969 22.0149 16.4269 21.6916 16.0603 21.6582C12.9586 21.3782 10.6203 18.8166 10.6203 15.6982C10.6203 15.3299 10.3219 15.0316 9.95361 15.0316C9.58528 15.0316 9.28695 15.3299 9.28695 15.6982C9.28695 19.5116 12.1469 22.6449 15.9403 22.9866C15.9603 22.9882 15.9803 22.9899 16.0003 22.9899V22.9882Z" fill="black" fill-opacity="0.72"/>
</g>
</g>
</svg>
