<svg width="32" height="32" viewBox="0 0 32 32" fill="none" xmlns="http://www.w3.org/2000/svg">
<g id="illustrative / md / top-performers-md">
<g id="icon">
<path d="M18.4466 20.3311C18.4466 18.6777 17.1 17.3311 15.4466 17.3311C13.7933 17.3311 12.4466 18.6777 12.4466 20.3311C12.4466 21.9844 13.7933 23.3311 15.4466 23.3311C17.1 23.3311 18.4466 21.9844 18.4466 20.3311ZM13.78 20.3311C13.78 19.4111 14.5266 18.6644 15.4466 18.6644C16.3666 18.6644 17.1133 19.4111 17.1133 20.3311C17.1133 21.2511 16.3666 21.9977 15.4466 21.9977C14.5266 21.9977 13.78 21.2511 13.78 20.3311Z" fill="black" fill-opacity="0.72"/>
<path d="M17.4466 23.9977C17.08 23.9977 16.78 24.2977 16.78 24.6644C16.78 25.0311 17.08 25.3311 17.4466 25.3311C18.18 25.3311 18.78 25.9311 18.78 26.6644V28.6644C18.78 29.0311 18.48 29.3311 18.1133 29.3311H12.78C12.4133 29.3311 12.1133 29.0311 12.1133 28.6644V26.6644C12.1133 25.9311 12.7133 25.3311 13.4466 25.3311C13.8133 25.3311 14.1133 25.0311 14.1133 24.6644C14.1133 24.2977 13.8133 23.9977 13.4466 23.9977C11.9733 23.9977 10.78 25.1911 10.78 26.6644V28.6644C10.78 29.7644 11.68 30.6644 12.78 30.6644H18.1133C19.2133 30.6644 20.1133 29.7644 20.1133 28.6644V26.6644C20.1133 25.1911 18.92 23.9977 17.4466 23.9977Z" fill="black" fill-opacity="0.72"/>
<path d="M8.11329 19.3311C6.88663 19.3311 5.89329 20.3311 5.89329 21.5511C5.89329 22.7711 6.89329 23.7711 8.11329 23.7711C9.33329 23.7711 10.3333 22.7711 10.3333 21.5511C10.3333 20.3311 9.33329 19.3311 8.11329 19.3311ZM8.11329 22.4444C7.61996 22.4444 7.22663 22.0444 7.22663 21.5577C7.22663 21.0711 7.62663 20.6711 8.11329 20.6711C8.59996 20.6711 8.99996 21.0711 8.99996 21.5577C8.99996 22.0444 8.59996 22.4444 8.11329 22.4444Z" fill="black" fill-opacity="0.72"/>
<path d="M8.77996 28.4377H6.33329C6.21329 28.4377 6.11329 28.3377 6.11329 28.2177V26.8844C6.11329 26.5177 6.41329 26.2177 6.77996 26.2177C7.14663 26.2177 7.44663 25.9177 7.44663 25.5511C7.44663 25.1844 7.14663 24.8844 6.77996 24.8844C5.67996 24.8844 4.77996 25.7844 4.77996 26.8844V28.2177C4.77996 29.0777 5.47996 29.7711 6.33329 29.7711H8.77996C9.14663 29.7711 9.44663 29.4711 9.44663 29.1044C9.44663 28.7377 9.14663 28.4377 8.77996 28.4377Z" fill="black" fill-opacity="0.72"/>
<path d="M25 21.5511C25 20.3244 24 19.3311 22.78 19.3311C21.56 19.3311 20.56 20.3311 20.56 21.5511C20.56 22.7711 21.56 23.7711 22.78 23.7711C24 23.7711 25 22.7711 25 21.5511ZM21.8866 21.5511C21.8866 21.0577 22.2866 20.6644 22.7733 20.6644C23.26 20.6644 23.66 21.0644 23.66 21.5511C23.66 22.0377 23.26 22.4377 22.7733 22.4377C22.2866 22.4377 21.8866 22.0377 21.8866 21.5511Z" fill="black" fill-opacity="0.72"/>
<path d="M24.1133 24.8844C23.7466 24.8844 23.4466 25.1844 23.4466 25.5511C23.4466 25.9177 23.7466 26.2177 24.1133 26.2177C24.48 26.2177 24.78 26.5177 24.78 26.8844V28.2177C24.78 28.3377 24.68 28.4377 24.56 28.4377H22.1133C21.7466 28.4377 21.4466 28.7377 21.4466 29.1044C21.4466 29.4711 21.7466 29.7711 22.1133 29.7711H24.56C25.42 29.7711 26.1133 29.0711 26.1133 28.2177V26.8844C26.1133 25.7844 25.2133 24.8844 24.1133 24.8844Z" fill="black" fill-opacity="0.72"/>
<path d="M27.78 5.76441C27.62 5.38441 27.4133 5.02441 27.1666 4.69774L27.26 4.53774C27.44 4.23108 27.4933 3.87108 27.4 3.52441C27.3066 3.17775 27.0866 2.88441 26.78 2.71108L25.88 2.19108C25.2533 1.82441 24.4333 2.04441 24.0666 2.66441L23.96 2.84441C23.5466 2.79108 23.1266 2.79108 22.7133 2.84441L22.6066 2.65774C22.24 2.03108 21.42 1.81108 20.7866 2.17774L20.2133 2.51108C20.1466 2.49108 20.08 2.47108 20 2.47108H5.99996C4.15996 2.47108 2.66663 3.96441 2.66663 5.80441V12.4711C2.66663 14.3111 4.15996 15.8044 5.99996 15.8044H20V16.7244C20 17.1911 20.2333 17.6111 20.6333 17.8577C21.0266 18.1044 21.5133 18.1244 21.9333 17.9177L23.34 17.2177L24.7466 17.9177C24.9333 18.0111 25.14 18.0577 25.34 18.0577C25.58 18.0577 25.8266 17.9911 26.04 17.8577C26.4333 17.6111 26.6733 17.1911 26.6733 16.7244V12.6044L26.7866 12.5377C27.0933 12.3577 27.32 12.0711 27.4066 11.7244C27.5 11.3777 27.4466 11.0177 27.2666 10.7111L27.1666 10.5377C27.42 10.2111 27.6266 9.85108 27.7866 9.47108H28.0066C28.74 9.47108 29.34 8.87108 29.34 8.13774V7.09774C29.34 6.36441 28.74 5.76441 28.0066 5.76441H27.78ZM5.99996 14.4644C4.89996 14.4644 3.99996 13.5644 3.99996 12.4644V5.79774C3.99996 4.69774 4.89996 3.79774 5.99996 3.79774H19.2266C19.22 4.05108 19.2733 4.29774 19.4066 4.52441L19.5066 4.69774C19.2533 5.02441 19.0466 5.38441 18.8866 5.76441H18.6666C17.9333 5.76441 17.3333 6.36441 17.3333 7.09774V8.13774C17.3333 8.87108 17.9333 9.47108 18.6666 9.47108H18.8866C19.0466 9.85108 19.2533 10.2111 19.5 10.5377C19.4733 10.5911 19.44 10.6444 19.4066 10.6977C19.2266 11.0044 19.1733 11.3644 19.2666 11.7177C19.36 12.0644 19.58 12.3577 19.8866 12.5377L19.9933 12.5977V14.4711H5.99996V14.4644ZM23.6333 15.8711C23.4466 15.7777 23.2266 15.7777 23.04 15.8711L21.34 16.7244V13.2177C21.84 13.2644 22.34 13.0244 22.6133 12.5711L22.72 12.3911C23.1333 12.4444 23.5466 12.4444 23.9666 12.3911C24 12.4511 24.04 12.5111 24.0733 12.5777C24.32 12.9977 24.7666 13.2377 25.2266 13.2377C25.2666 13.2377 25.3066 13.2244 25.34 13.2244V16.7244L23.64 15.8711H23.6333ZM28 8.13774H27.3066C27.0133 8.13774 26.7533 8.33108 26.6666 8.61108C26.5133 9.13108 26.2333 9.61108 25.86 10.0111C25.66 10.2244 25.62 10.5511 25.7733 10.8044L26.1133 11.3844L25.2133 11.9044C24.8266 11.2377 24.6666 10.9711 24.36 10.9711C24.2933 10.9711 24.22 10.9844 24.14 11.0044C23.6133 11.1311 23.0466 11.1311 22.5266 11.0044C22.2466 10.9377 21.9466 11.0644 21.8 11.3111L21.46 11.8911L20.56 11.3711C20.7066 11.1177 20.86 10.8644 20.8866 10.8177C20.9066 10.7911 20.92 10.7577 20.9333 10.7311C21.04 10.4844 20.9866 10.2044 20.8066 10.0111C20.4333 9.61774 20.1533 9.13108 20 8.61774C19.9133 8.33774 19.6533 8.14441 19.36 8.14441H18.6666V7.10441H19.36C19.6733 7.10441 19.9333 6.89108 20.0066 6.60441C20.16 6.09774 20.44 5.62441 20.8066 5.23108C20.9866 5.03774 21.04 4.75108 20.9333 4.51108C20.92 4.48441 20.9066 4.45108 20.8866 4.42441L20.5533 3.85775L21.4533 3.33774L21.7933 3.92441C21.94 4.17775 22.24 4.30441 22.52 4.23774C23.0466 4.11108 23.6133 4.11108 24.1333 4.23774C24.42 4.30441 24.7133 4.17774 24.86 3.93108L25.2 3.35108L26.1 3.87108L25.7666 4.43775C25.6133 4.69108 25.6533 5.01774 25.8533 5.23108C26.2266 5.63108 26.5066 6.11108 26.66 6.63108C26.7466 6.91108 27.0066 7.11108 27.3 7.11108H27.9933V8.15108L28 8.13774Z" fill="black" fill-opacity="0.72"/>
<path d="M23.3333 4.94441C21.86 4.94441 20.6666 6.13775 20.6666 7.61108C20.6666 9.08441 21.86 10.2777 23.3333 10.2777C24.8066 10.2777 26 9.08441 26 7.61108C26 6.13775 24.8066 4.94441 23.3333 4.94441ZM23.3333 8.94441C22.6 8.94441 22 8.34441 22 7.61108C22 6.87775 22.6 6.27775 23.3333 6.27775C24.0666 6.27775 24.6666 6.87775 24.6666 7.61108C24.6666 8.34441 24.0666 8.94441 23.3333 8.94441Z" fill="black" fill-opacity="0.72"/>
<path d="M6.41329 10.2577C6.60663 10.3977 6.82663 10.4711 7.05329 10.4711C7.22663 10.4711 7.39996 10.4311 7.56663 10.3444L7.98663 10.1244C8.03996 10.0977 8.10663 10.0977 8.16663 10.1244L8.58663 10.3444C8.95996 10.5377 9.39996 10.5111 9.73996 10.2644C10.08 10.0177 10.2466 9.60441 10.1733 9.19108L10.0933 8.71774C10.08 8.65774 10.1 8.59108 10.1466 8.55108L10.4866 8.21774C10.7866 7.92441 10.8933 7.49775 10.7666 7.09774C10.64 6.69774 10.3 6.41108 9.87996 6.35108L9.40663 6.28441C9.34663 6.27774 9.29329 6.23774 9.26663 6.17774L9.05329 5.75108C8.86663 5.37108 8.49329 5.13774 8.07329 5.13774C7.65329 5.13774 7.27996 5.37108 7.09329 5.75108L6.87996 6.17774C6.85329 6.23108 6.79996 6.27108 6.73996 6.28441L6.26663 6.35108C5.85329 6.41108 5.51329 6.69774 5.37996 7.09774C5.25329 7.49775 5.35329 7.92441 5.65996 8.21774L5.99996 8.55108C6.04663 8.59774 6.06663 8.65774 6.05329 8.71774L5.97329 9.19108C5.89996 9.60441 6.06663 10.0177 6.40663 10.2644L6.41329 10.2577ZM8.07996 6.76441C8.29996 7.21108 8.72663 7.51774 9.21996 7.59108C8.86663 7.93774 8.69996 8.43774 8.78663 8.93108C8.34663 8.70441 7.81996 8.70441 7.37996 8.93108C7.45996 8.43774 7.29996 7.93774 6.94663 7.59108C7.43996 7.51774 7.86663 7.21108 8.08663 6.76441H8.07996Z" fill="black" fill-opacity="0.72"/>
<path d="M12.6666 7.79774H15.3333C15.7 7.79774 16 7.49775 16 7.13108C16 6.76441 15.7 6.46441 15.3333 6.46441H12.6666C12.3 6.46441 12 6.76441 12 7.13108C12 7.49775 12.3 7.79774 12.6666 7.79774Z" fill="black" fill-opacity="0.72"/>
<path d="M12.6666 10.4644H15.3333C15.7 10.4644 16 10.1644 16 9.79774C16 9.43108 15.7 9.13108 15.3333 9.13108H12.6666C12.3 9.13108 12 9.43108 12 9.79774C12 10.1644 12.3 10.4644 12.6666 10.4644Z" fill="black" fill-opacity="0.72"/>
<path d="M17.3333 11.7977H6.66663C6.29996 11.7977 5.99996 12.0977 5.99996 12.4644C5.99996 12.8311 6.29996 13.1311 6.66663 13.1311H17.3333C17.7 13.1311 18 12.8311 18 12.4644C18 12.0977 17.7 11.7977 17.3333 11.7977Z" fill="black" fill-opacity="0.72"/>
</g>
</g>
</svg>
