<svg width="32" height="32" viewBox="0 0 32 32" fill="none" xmlns="http://www.w3.org/2000/svg">
<g id="illustrative / md / customer-first-trading-md">
<g id="icon">
<path d="M19.1199 20.3323C19.1199 18.679 17.7732 17.3323 16.1199 17.3323C14.4665 17.3323 13.1199 18.679 13.1199 20.3323C13.1199 21.9857 14.4665 23.3323 16.1199 23.3323C17.7732 23.3323 19.1199 21.9857 19.1199 20.3323ZM14.4532 20.3323C14.4532 19.4123 15.1999 18.6657 16.1199 18.6657C17.0399 18.6657 17.7865 19.4123 17.7865 20.3323C17.7865 21.2523 17.0399 21.999 16.1199 21.999C15.1999 21.999 14.4532 21.2523 14.4532 20.3323Z" fill="black" fill-opacity="0.72"/>
<path d="M18.1199 23.999C17.7532 23.999 17.4532 24.299 17.4532 24.6657C17.4532 25.0324 17.7532 25.3323 18.1199 25.3323C18.8532 25.3323 19.4532 25.9324 19.4532 26.6657V27.999C19.4532 28.3657 19.1532 28.6657 18.7865 28.6657H13.4532C13.0865 28.6657 12.7865 28.3657 12.7865 27.999V26.6657C12.7865 25.9324 13.3865 25.3323 14.1199 25.3323C14.4865 25.3323 14.7865 25.0324 14.7865 24.6657C14.7865 24.299 14.4865 23.999 14.1199 23.999C12.6465 23.999 11.4532 25.1924 11.4532 26.6657V27.999C11.4532 29.099 12.3532 29.999 13.4532 29.999H18.7865C19.8865 29.999 20.7865 29.099 20.7865 27.999V26.6657C20.7865 25.1924 19.5932 23.999 18.1199 23.999Z" fill="black" fill-opacity="0.72"/>
<path d="M25.2865 8.41235C25.2865 8.41235 25.2799 8.39902 25.2732 8.39235C25.2465 8.32568 25.1999 8.26568 25.1532 8.21902C25.1399 8.19902 25.1199 8.18568 25.0999 8.17235C25.0599 8.13235 25.0132 8.10568 24.9599 8.07902C24.9399 8.06568 24.9199 8.05902 24.8932 8.04568C24.8199 8.01902 24.7399 7.99902 24.6599 7.99902H23.3265C22.9599 7.99902 22.6599 8.29902 22.6599 8.66568C22.6599 8.95235 22.8399 9.19235 23.0932 9.29235L21.3265 11.059L19.7999 9.53235C19.5399 9.27235 19.1199 9.27235 18.8599 9.53235L17.3332 11.059L15.8065 9.53235C15.5465 9.27235 15.1265 9.27235 14.8665 9.53235C14.6065 9.79235 14.6065 10.2123 14.8665 10.4723L16.8665 12.4723C17.1265 12.7323 17.5465 12.7323 17.8065 12.4723L19.3332 10.9457L20.8599 12.4723C20.9932 12.6057 21.1599 12.6657 21.3332 12.6657C21.5065 12.6657 21.6732 12.599 21.8065 12.4723L24.0465 10.2323C24.1399 10.4857 24.3799 10.6723 24.6665 10.6723C25.0332 10.6723 25.3332 10.3723 25.3332 10.0057V8.67235C25.3332 8.67235 25.3332 8.65902 25.3332 8.64568C25.3332 8.56568 25.3199 8.49235 25.2865 8.41235Z" fill="black" fill-opacity="0.72"/>
<path d="M7.33988 9.33235H12.0065C12.3732 9.33235 12.6732 9.03235 12.6732 8.66568C12.6732 8.29902 12.3732 7.99902 12.0065 7.99902H7.33988C6.97321 7.99902 6.67321 8.29902 6.67321 8.66568C6.67321 9.03235 6.97321 9.33235 7.33988 9.33235Z" fill="black" fill-opacity="0.72"/>
<path d="M13.3399 10.6657H7.33988C6.97321 10.6657 6.67321 10.9657 6.67321 11.3323C6.67321 11.699 6.97321 11.999 7.33988 11.999H13.3399C13.7065 11.999 14.0065 11.699 14.0065 11.3323C14.0065 10.9657 13.7065 10.6657 13.3399 10.6657Z" fill="black" fill-opacity="0.72"/>
<path d="M11.3399 4.66568V2.66568C11.3399 2.39902 11.1799 2.15235 10.9265 2.05235C10.6799 1.94568 10.3932 2.00568 10.1999 2.19902L7.72654 4.67235H5.99988C4.89988 4.67235 3.99988 5.57235 3.99988 6.67235V13.339C3.99988 14.439 4.89988 15.339 5.99988 15.339H20.6732V17.339C20.6732 17.6057 20.8332 17.8523 21.0865 17.9523C21.1665 17.9857 21.2532 18.0057 21.3399 18.0057C21.5132 18.0057 21.6865 17.939 21.8132 17.8123L24.2865 15.339H26.0132C27.1132 15.339 28.0132 14.439 28.0132 13.339V6.66568C28.0132 5.56568 27.1132 4.66568 26.0132 4.66568H11.3399ZM26.6732 13.3323C26.6732 13.699 26.3732 13.999 26.0065 13.999H24.0065C23.8265 13.999 23.6599 14.0723 23.5332 14.1923L22.0065 15.719V14.659C22.0065 14.2923 21.7065 13.9923 21.3399 13.9923H6.00654C5.63988 13.9923 5.33988 13.6923 5.33988 13.3257V6.66568C5.33988 6.29902 5.63988 5.99902 6.00654 5.99902H8.00654C8.18654 5.99902 8.35321 5.92568 8.47988 5.80568L10.0065 4.27902V5.33902C10.0065 5.70568 10.3065 6.00568 10.6732 6.00568H26.0065C26.3732 6.00568 26.6732 6.30568 26.6732 6.67235V13.339V13.3323Z" fill="black" fill-opacity="0.72"/>
</g>
</g>
</svg>
