<svg width="32" height="32" viewBox="0 0 32 32" fill="none" xmlns="http://www.w3.org/2000/svg">
<g id="illustrative / md / liquidity-md">
<path id="icon" fill-rule="evenodd" clip-rule="evenodd" d="M15.5288 2.86192C15.7891 2.60157 16.2112 2.60157 16.4716 2.86192C16.4849 2.87527 16.4984 2.88878 16.5121 2.90245C17.1873 3.57751 18.2518 4.64173 19.2522 6.01391C19.4691 6.31143 19.4038 6.72845 19.1062 6.94535C18.8087 7.16226 18.3917 7.09692 18.1748 6.7994C17.4243 5.76995 16.6324 4.92222 16.0005 4.27923C15.3689 4.92347 14.5759 5.77526 13.8246 6.80067C13.607 7.09767 13.1898 7.16203 12.8928 6.94443C12.5958 6.72682 12.5314 6.30965 12.7491 6.01264C13.766 4.62471 14.8486 3.54202 15.523 2.86767L15.5288 2.86192ZM8.8153 6.19525C9.07565 5.9349 9.49776 5.9349 9.75811 6.19525C9.77146 6.2086 9.78497 6.22211 9.79864 6.23578C10.4739 6.91083 11.5383 7.97506 12.5387 9.34724C12.7556 9.64476 12.6903 10.0618 12.3928 10.2787C12.0953 10.4956 11.6783 10.4302 11.4613 10.1327C10.7108 9.1033 9.91893 8.25558 9.28708 7.6126C8.51205 8.40332 7.49356 9.50768 6.60638 10.8648C5.52443 12.5198 4.66671 14.508 4.66671 16.7133C4.66671 18.299 5.54962 19.8972 7.00046 20.7362C7.31919 20.9205 7.42814 21.3283 7.24382 21.6471C7.05949 21.9658 6.65169 22.0748 6.33296 21.8904C4.4638 20.8095 3.33337 18.7677 3.33337 16.7133C3.33337 14.1587 4.32566 11.9168 5.49037 10.1352C6.65151 8.35902 8.01281 6.99774 8.80775 6.2028L8.8153 6.19525ZM22.242 6.19525C22.5023 5.9349 22.9244 5.9349 23.1848 6.19525L23.1923 6.2028C23.9873 6.99774 25.3486 8.35903 26.5097 10.1352C27.6744 11.9168 28.6667 14.1587 28.6667 16.7133C28.6667 18.7677 27.5363 20.8095 25.6671 21.8904C25.3484 22.0748 24.9406 21.9658 24.7563 21.6471C24.5719 21.3283 24.6809 20.9205 24.9996 20.7362C26.4505 19.8972 27.3334 18.299 27.3334 16.7133C27.3334 14.508 26.4757 12.5198 25.3937 10.8648C24.5067 9.50788 23.4883 8.40365 22.7133 7.61295C22.0818 8.25714 21.289 9.1088 20.5378 10.134C20.3202 10.431 19.903 10.4954 19.606 10.2778C19.309 10.0602 19.2447 9.64298 19.4623 9.34598C20.4792 7.95803 21.5619 6.87535 22.2362 6.20099L22.242 6.19525ZM15.5286 8.86192C15.789 8.60157 16.2111 8.60157 16.4714 8.86192L16.4791 8.86953C17.4806 9.8711 19.1869 11.5774 20.6414 13.8018C22.0994 16.0317 23.3334 18.8253 23.3334 22C23.3334 25.6513 20.397 29.3333 16 29.3333C11.6031 29.3333 8.66671 25.6513 8.66671 22C8.66671 18.8253 9.90071 16.0317 11.3587 13.8018C12.8132 11.5774 14.5194 9.8711 15.521 8.86953L15.5286 8.86192ZM12.4747 14.5315C11.0994 16.6349 10 19.1747 10 22C10 25.002 12.4237 28 16 28C19.5764 28 22 25.002 22 22C22 19.1747 20.9007 16.6349 19.5254 14.5315C18.3496 12.7332 16.9933 11.2853 16 10.2785C15.0067 11.2853 13.6505 12.7332 12.4747 14.5315ZM15.3334 17.3333H14.6667C13.9319 17.3333 13.3334 17.9318 13.3334 18.6667V20C13.3334 20.7348 13.9319 21.3333 14.6667 21.3333H17.3334V22.6667H14C13.6319 22.6667 13.3334 22.9651 13.3334 23.3333C13.3334 23.7015 13.6319 24 14 24H15.3334V24.6667C15.3334 25.0348 15.6319 25.3333 16 25.3333C16.3682 25.3333 16.6667 25.0348 16.6667 24.6667V24H17.3334C18.0682 24 18.6667 23.4015 18.6667 22.6667V21.3333C18.6667 20.5985 18.0682 20 17.3334 20H14.6667V18.6667H18C18.3682 18.6667 18.6667 18.3682 18.6667 18C18.6667 17.6318 18.3682 17.3333 18 17.3333H16.6667V16.6667C16.6667 16.2985 16.3682 16 16 16C15.6319 16 15.3334 16.2985 15.3334 16.6667V17.3333Z" fill="black" fill-opacity="0.72"/>
</g>
</svg>
