<svg width="32" height="32" viewBox="0 0 32 32" fill="none" xmlns="http://www.w3.org/2000/svg">
<g id="illustrative / md / cfds-md">
<g id="icon">
<path d="M21.0839 28.6667C20.3939 28.6667 19.7039 28.3867 19.18 27.84L14.3628 22.8134C13.7111 22.1334 13.7111 21.0267 14.3628 20.3467L15.2444 19.4267C15.8961 18.7467 16.9567 18.7467 17.6083 19.4267L18.8989 20.7734V16.16C18.8989 15.2 19.6528 14.4134 20.5728 14.4134H21.6206C22.5406 14.4134 23.2944 15.2 23.2944 16.16V20.7734L24.585 19.4267C25.2367 18.7467 26.2972 18.7467 26.9489 19.4267L27.8305 20.3467C28.15 20.68 28.3161 21.12 28.3161 21.5734C28.3161 22.0267 28.1372 22.48 27.8305 22.8L23.0261 27.8134C22.5022 28.36 21.8122 28.64 21.1222 28.64L21.0839 28.6667ZM16.42 20.2667C16.3178 20.2667 16.2156 20.3067 16.1389 20.3867L15.2572 21.2934C15.1039 21.4534 15.1039 21.7067 15.2572 21.8667L20.0744 26.8934C20.6239 27.4667 21.5311 27.4667 22.0806 26.8934L26.885 21.8667C26.9617 21.7867 27 21.6934 27 21.5867C27 21.48 26.9617 21.3734 26.885 21.2934L26.0033 20.3734C25.85 20.2134 25.6072 20.2134 25.4539 20.3734L23.8311 22.0667C23.5244 22.3867 23.0517 22.48 22.6556 22.3067C22.2467 22.1334 21.9911 21.72 21.9911 21.2667V16.16C21.9911 15.9334 21.8122 15.7467 21.595 15.7467H20.5472C20.33 15.7467 20.1511 15.9334 20.1511 16.16V21.2667C20.1511 21.72 19.8828 22.1334 19.4867 22.3067C19.0778 22.48 18.6178 22.3867 18.3111 22.0667L16.6883 20.3734C16.6117 20.2934 16.5094 20.2534 16.4072 20.2534L16.42 20.2667Z" fill="black" fill-opacity="0.72"/>
<path d="M11.7433 17.56H10.6956C9.77556 17.56 9.02167 16.7733 9.02167 15.8133V11.2L7.73111 12.5466C7.07944 13.2266 6.01889 13.2266 5.36722 12.5466L4.48556 11.6266C4.16611 11.2933 4 10.8533 4 10.4C4 9.94663 4.17889 9.4933 4.48556 9.1733L9.29 4.15997C10.3378 3.06663 12.05 3.06663 13.1106 4.15997L17.9278 9.1733C18.5794 9.8533 18.5794 10.96 17.9278 11.64L17.0461 12.56C16.3944 13.24 15.3339 13.24 14.6822 12.56L13.3917 11.2133V15.8266C13.3917 16.7866 12.6378 17.5733 11.7178 17.5733L11.7433 17.56ZM9.22611 9.5733C9.36667 9.5733 9.50722 9.59997 9.64778 9.6533C10.0567 9.82663 10.3122 10.24 10.3122 10.6933V15.8C10.3122 16.0266 10.4911 16.2133 10.7083 16.2133H11.7561C11.9733 16.2133 12.1522 16.0266 12.1522 15.8V10.6933C12.1522 10.24 12.4206 9.82663 12.8167 9.6533C13.2256 9.47997 13.6856 9.5733 13.9922 9.8933L15.615 11.5866C15.7683 11.7466 16.0111 11.7466 16.1644 11.5866L17.0461 10.68C17.1994 10.52 17.1994 10.2666 17.0461 10.1066L12.2289 5.0933C11.6794 4.51997 10.7722 4.51997 10.2228 5.0933L5.41833 10.12C5.34167 10.2 5.30333 10.2933 5.30333 10.4C5.30333 10.5066 5.34167 10.6133 5.41833 10.6933L6.3 11.6133C6.45333 11.7733 6.69611 11.7733 6.84944 11.6133L8.47222 9.91997C8.67667 9.70663 8.95778 9.58663 9.23889 9.58663L9.22611 9.5733Z" fill="black" fill-opacity="0.72"/>
</g>
</g>
</svg>
