<svg width="32" height="32" viewBox="0 0 32 32" fill="none" xmlns="http://www.w3.org/2000/svg">
<g id="illustrative / md / capital-md">
<g id="icon">
<path d="M26 2.66669H18C16.16 2.66669 14.6666 4.16002 14.6666 6.00002V17.3334C14.6666 18.0667 15.2666 18.6667 16 18.6667H26C27.84 18.6667 29.3333 17.1734 29.3333 15.3334V6.00002C29.3333 4.16002 27.84 2.66669 26 2.66669ZM28 15.3334C28 16.4334 27.1 17.3334 26 17.3334H16V6.00002C16 4.90002 16.9 4.00002 18 4.00002H26C27.1 4.00002 28 4.90002 28 6.00002V15.3334Z" fill="black" fill-opacity="0.72"/>
<path d="M26 10C25.6333 10 25.3333 10.3 25.3333 10.6667V15.3334C25.3333 15.7 25.6333 16 26 16C26.3666 16 26.6666 15.7 26.6666 15.3334V10.6667C26.6666 10.3 26.3666 10 26 10Z" fill="black" fill-opacity="0.72"/>
<path d="M23.3333 13.3334C22.9666 13.3334 22.6666 13.6334 22.6666 14V15.3334C22.6666 15.7 22.9666 16 23.3333 16C23.7 16 24 15.7 24 15.3334V14C24 13.6334 23.7 13.3334 23.3333 13.3334Z" fill="black" fill-opacity="0.72"/>
<path d="M20.6666 12C20.3 12 20 12.3 20 12.6667V15.3334C20 15.7 20.3 16 20.6666 16C21.0333 16 21.3333 15.7 21.3333 15.3334V12.6667C21.3333 12.3 21.0333 12 20.6666 12Z" fill="black" fill-opacity="0.72"/>
<path d="M18 10.6667C17.6333 10.6667 17.3333 10.9667 17.3333 11.3334V15.3334C17.3333 15.7 17.6333 16 18 16C18.3666 16 18.6666 15.7 18.6666 15.3334V11.3334C18.6666 10.9667 18.3666 10.6667 18 10.6667Z" fill="black" fill-opacity="0.72"/>
<path d="M26.6133 5.74669C26.6133 5.74669 26.6066 5.73335 26.6 5.72669C26.5733 5.66002 26.5266 5.60002 26.48 5.55335C26.4666 5.53335 26.4466 5.52002 26.4266 5.50669C26.3866 5.46669 26.34 5.44002 26.2866 5.41335C26.2666 5.40002 26.2466 5.39335 26.22 5.38002C26.1466 5.35335 26.0666 5.33335 25.9866 5.33335H24.6533C24.2866 5.33335 23.9866 5.63335 23.9866 6.00002C23.9866 6.28669 24.1666 6.52669 24.42 6.62669L21.9866 9.06002L19.7933 6.86669C19.5333 6.60669 19.1133 6.60669 18.8533 6.86669L17.52 8.20002C17.26 8.46002 17.26 8.88002 17.52 9.14002C17.78 9.40002 18.2 9.40002 18.46 9.14002L19.32 8.28002L21.5133 10.4734C21.6466 10.6067 21.8133 10.6667 21.9866 10.6667C22.16 10.6667 22.3266 10.6 22.46 10.4734L25.3666 7.56669C25.46 7.82002 25.7 8.00669 25.9866 8.00669C26.3533 8.00669 26.6533 7.70669 26.6533 7.34002V6.00669C26.6533 6.00669 26.6533 5.99335 26.6533 5.98002C26.6533 5.90002 26.64 5.82669 26.6066 5.74669H26.6133Z" fill="black" fill-opacity="0.72"/>
<path d="M12 20C12.3666 20 12.6666 19.7 12.6666 19.3334C12.6666 18.9667 12.3666 18.6667 12 18.6667H10.6666V18C10.6666 17.6334 10.3666 17.3334 9.99996 17.3334C9.63329 17.3334 9.33329 17.6334 9.33329 18V18.6667H8.66663C7.93329 18.6667 7.33329 19.2667 7.33329 20V21.3334C7.33329 22.0667 7.93329 22.6667 8.66663 22.6667H11.3333V24H7.99996C7.63329 24 7.33329 24.3 7.33329 24.6667C7.33329 25.0334 7.63329 25.3334 7.99996 25.3334H9.33329V26C9.33329 26.3667 9.63329 26.6667 9.99996 26.6667C10.3666 26.6667 10.6666 26.3667 10.6666 26V25.3334H11.3333C12.0666 25.3334 12.6666 24.7334 12.6666 24V22.6667C12.6666 21.9334 12.0666 21.3334 11.3333 21.3334H8.66663V20H12Z" fill="black" fill-opacity="0.72"/>
<path d="M16.4 20.0134C16.04 20.0867 15.8066 20.44 15.88 20.8C15.96 21.1934 16 21.6 16 22C16 25.3067 13.3066 28 9.99996 28C6.69329 28 3.99996 25.3067 3.99996 22C3.99996 18.6934 6.69329 16 9.99996 16C10.8333 16 11.64 16.1667 12.4 16.5C12.74 16.6534 13.1333 16.5 13.28 16.1534C13.4266 15.8134 13.28 15.42 12.9333 15.2734C12.0066 14.8667 11.02 14.66 9.99996 14.66C5.95329 14.66 2.66663 17.9467 2.66663 21.9934C2.66663 26.04 5.95329 29.3267 9.99996 29.3267C14.0466 29.3267 17.3333 26.04 17.3333 21.9934C17.3333 21.5 17.2866 21.0067 17.1866 20.5267C17.1133 20.1667 16.76 19.9334 16.4 20.0067V20.0134Z" fill="black" fill-opacity="0.72"/>
</g>
</g>
</svg>
