<svg width="32" height="32" viewBox="0 0 32 32" fill="none" xmlns="http://www.w3.org/2000/svg">
<g id="illustrative / md / stocks-and-indices-md">
<g id="icon">
<path d="M9.33329 10H8.66663V8.05337C8.66663 7.68004 8.37329 7.38671 7.99996 7.38671C7.62663 7.38671 7.33329 7.68004 7.33329 8.05337V10H6.66663C5.55996 10 4.66663 10.8934 4.66663 12V20C4.66663 21.1067 5.55996 22 6.66663 22H7.33329V24C7.33329 24.3734 7.62663 24.6667 7.99996 24.6667C8.37329 24.6667 8.66663 24.3734 8.66663 24V22H9.33329C10.44 22 11.3333 21.1067 11.3333 20V12C11.3333 10.8934 10.44 10 9.33329 10ZM9.99996 20C9.99996 20.3734 9.70663 20.6667 9.33329 20.6667H6.66663C6.29329 20.6667 5.99996 20.3734 5.99996 20V12C5.99996 11.6267 6.29329 11.3334 6.66663 11.3334H9.33329C9.70663 11.3334 9.99996 11.6267 9.99996 12V20Z" fill="black" fill-opacity="0.72"/>
<path d="M17.3333 6.00004H16.6666V4.00004C16.6666 3.62671 16.3733 3.33337 16 3.33337C15.6266 3.33337 15.3333 3.62671 15.3333 4.00004V6.00004H14.6666C13.56 6.00004 12.6666 6.89337 12.6666 8.00004V24C12.6666 25.1067 13.56 26 14.6666 26H15.3333V28C15.3333 28.3734 15.6266 28.6667 16 28.6667C16.3733 28.6667 16.6666 28.3734 16.6666 28V26H17.3333C18.44 26 19.3333 25.1067 19.3333 24V8.00004C19.3333 6.89337 18.44 6.00004 17.3333 6.00004ZM18 24C18 24.3734 17.7066 24.6667 17.3333 24.6667H14.6666C14.2933 24.6667 14 24.3734 14 24V8.00004C14 7.62671 14.2933 7.33337 14.6666 7.33337H15.96C15.96 7.33337 15.9866 7.33337 16 7.33337C16.0133 7.33337 16.0266 7.33337 16.04 7.33337H17.3333C17.7066 7.33337 18 7.62671 18 8.00004V24Z" fill="black" fill-opacity="0.72"/>
<path d="M25.3333 11.3334H24.6666V8.00004C24.6666 7.62671 24.3733 7.33337 24 7.33337C23.6266 7.33337 23.3333 7.62671 23.3333 8.00004V11.3334H22.6666C21.56 11.3334 20.6666 12.2267 20.6666 13.3334V21.3334C20.6666 22.44 21.56 23.3334 22.6666 23.3334H23.3333V25.3334C23.3333 25.7067 23.6266 26 24 26C24.3733 26 24.6666 25.7067 24.6666 25.3334V23.3334H25.3333C26.44 23.3334 27.3333 22.44 27.3333 21.3334V13.3334C27.3333 12.2267 26.44 11.3334 25.3333 11.3334ZM26 21.3334C26 21.7067 25.7066 22 25.3333 22H22.6666C22.2933 22 22 21.7067 22 21.3334V13.3334C22 12.96 22.2933 12.6667 22.6666 12.6667H25.3333C25.7066 12.6667 26 12.96 26 13.3334V21.3334Z" fill="black" fill-opacity="0.72"/>
</g>
</g>
</svg>
