<svg width="32" height="32" viewBox="0 0 32 32" fill="none" xmlns="http://www.w3.org/2000/svg">
<g id="illustrative / md / profit-potential-md">
<g id="icon">
<path d="M28.9394 15.3933L25.9927 14.0733C25.9927 14.0733 25.9994 14.0266 25.9994 14C25.9994 12.9 25.0994 12 23.9994 12C22.8994 12 21.9994 12.9 21.9994 14C21.9994 14.0933 22.0127 14.1866 22.026 14.2866L10.0194 20.54C9.65938 20.2066 9.18605 20 8.66605 20C8.14605 20 7.67938 20.2 7.32605 20.5266L3.62605 18.7333C3.29271 18.5733 2.89271 18.7133 2.73271 19.04C2.57271 19.3733 2.71271 19.7733 3.03938 19.9333L6.69271 21.7066C6.67938 21.8066 6.66605 21.9 6.66605 22C6.66605 23.1 7.56605 24 8.66605 24C9.76605 24 10.666 23.1 10.666 22C10.666 21.9066 10.6527 21.8133 10.6394 21.72L22.646 15.4666C23.006 15.8 23.4927 16 24.006 16C24.606 16 25.1394 15.7266 25.506 15.3133L28.3994 16.6133C28.486 16.6533 28.5794 16.6733 28.6727 16.6733C28.926 16.6733 29.1727 16.5266 29.2794 16.28C29.4327 15.9466 29.2794 15.5466 28.946 15.4L28.9394 15.3933ZM8.66605 22.6666C8.29938 22.6666 7.99938 22.3666 7.99938 22C7.99938 21.6333 8.29938 21.3333 8.66605 21.3333C9.03271 21.3333 9.33271 21.6333 9.33271 22C9.33271 22.3666 9.03271 22.6666 8.66605 22.6666ZM23.9994 14.6666C23.7194 14.6666 23.4727 14.4933 23.3727 14.2333C23.346 14.16 23.3327 14.08 23.3327 14C23.3327 13.6333 23.6327 13.3333 23.9994 13.3333C24.366 13.3333 24.666 13.6333 24.666 14C24.666 14.3666 24.366 14.6666 23.9994 14.6666Z" fill="black" fill-opacity="0.72"/>
<path d="M5.99938 16H8.02604L10.1927 18.1666C10.3194 18.2933 10.4927 18.36 10.666 18.36C10.7527 18.36 10.8394 18.3466 10.9194 18.3066C11.166 18.2066 11.3327 17.96 11.3327 17.6933V16H12.666C13.766 16 14.666 15.1 14.666 14V3.33331C14.666 2.23331 13.766 1.33331 12.666 1.33331H5.99938C4.89938 1.33331 3.99938 2.23331 3.99938 3.33331V14C3.99938 15.1 4.89938 16 5.99938 16ZM5.33271 3.33331C5.33271 2.96665 5.63271 2.66665 5.99938 2.66665H12.666C13.0327 2.66665 13.3327 2.96665 13.3327 3.33331V14C13.3327 14.3666 13.0327 14.6666 12.666 14.6666H10.666C10.2994 14.6666 9.99938 14.9666 9.99938 15.3333V16.0866L8.77938 14.8666C8.65271 14.74 8.48604 14.6733 8.30605 14.6733H5.99938C5.63271 14.6733 5.33271 14.3733 5.33271 14.0066V3.33331Z" fill="black" fill-opacity="0.72"/>
<path d="M7.33271 10.6666C6.96605 10.6666 6.66605 10.9666 6.66605 11.3333C6.66605 11.7 6.96605 12 7.33271 12H8.66605V12.6666C8.66605 13.0333 8.96604 13.3333 9.33271 13.3333C9.69938 13.3333 9.99938 13.0333 9.99938 12.6666V12H10.666C11.3994 12 11.9994 11.4 11.9994 10.6666V9.33331C11.9994 8.59998 11.3994 7.99998 10.666 7.99998H7.99938V6.66665H11.3327C11.6994 6.66665 11.9994 6.36665 11.9994 5.99998C11.9994 5.63331 11.6994 5.33331 11.3327 5.33331H9.99938V4.66665C9.99938 4.29998 9.69938 3.99998 9.33271 3.99998C8.96604 3.99998 8.66605 4.29998 8.66605 4.66665V5.33331H7.99938C7.26605 5.33331 6.66605 5.93331 6.66605 6.66665V7.99998C6.66605 8.73331 7.26605 9.33331 7.99938 9.33331H10.666V10.6666H7.33271Z" fill="black" fill-opacity="0.72"/>
<path d="M23.9994 17.3333C23.6327 17.3333 23.3327 17.6333 23.3327 18V26.6666C23.3327 27.0333 23.0327 27.3333 22.666 27.3333H17.6927C17.326 27.3333 17.026 27.6333 17.026 28V28.56L15.766 27.4933C15.646 27.3933 15.4927 27.3333 15.3327 27.3333H10.306C9.93938 27.3333 9.63938 27.0333 9.63938 26.6666V26C9.63938 25.6333 9.33938 25.3333 8.97271 25.3333C8.60605 25.3333 8.30605 25.6333 8.30605 26V26.6666C8.30605 27.7666 9.20605 28.6666 10.306 28.6666H15.086L17.2594 30.5066C17.3794 30.6133 17.5327 30.6666 17.6927 30.6666C17.786 30.6666 17.886 30.6466 17.9727 30.6066C18.206 30.5 18.3594 30.26 18.3594 30V28.6666H22.666C23.766 28.6666 24.666 27.7666 24.666 26.6666V18C24.666 17.6333 24.366 17.3333 23.9994 17.3333Z" fill="black" fill-opacity="0.72"/>
</g>
</g>
</svg>
