<svg width="32" height="32" viewBox="0 0 32 32" fill="none" xmlns="http://www.w3.org/2000/svg">
<g id="illustrative / md / mobile-md">
<g id="icon">
<path d="M10.1067 21.3333C10.1067 21.7 10.4067 22 10.7734 22H14.5667C14.9334 22 15.2334 21.7 15.2334 21.3333C15.2334 20.9666 14.9334 20.6666 14.5667 20.6666H10.7734C10.4067 20.6666 10.1067 20.9666 10.1067 21.3333Z" fill="black" fill-opacity="0.72"/>
<path d="M19.3334 12H18V10.6666C18 8.82665 16.5067 7.33331 14.6667 7.33331H10.6667C8.82671 7.33331 7.33337 8.82665 7.33337 10.6666V21.3333C7.33337 23.1733 8.82671 24.6666 10.6667 24.6666H14.6667C16.5067 24.6666 18 23.1733 18 21.3333V20.12C18.7734 20.3933 19.3334 21.1266 19.3334 22C19.3334 23.84 20.8267 25.3333 22.6667 25.3333C23.0334 25.3333 23.3334 25.0333 23.3334 24.6666C23.3334 24.3 23.0334 24 22.6667 24C21.5667 24 20.6667 23.1 20.6667 22C20.6667 20.16 19.1734 18.6666 17.3334 18.6666H16.6667C15.5667 18.6666 14.6667 17.7666 14.6667 16.6666H18.6667C19.0334 16.6666 19.3334 16.3666 19.3334 16C19.3334 15.6333 19.0334 15.3333 18.6667 15.3333H18V13.3333H19.3334C21.9067 13.3333 24 15.4266 24 18V19.3333C24 19.7 24.3 20 24.6667 20C25.0334 20 25.3334 19.7 25.3334 19.3333V18C25.3334 14.6933 22.64 12 19.3334 12ZM14.6667 15.3333C13.9334 15.3333 13.3334 15.9333 13.3334 16.6666C13.3334 18.5066 14.8267 20 16.6667 20V21.3333C16.6667 22.4333 15.7667 23.3333 14.6667 23.3333H10.6667C9.56671 23.3333 8.66671 22.4333 8.66671 21.3333V10.6666C8.66671 9.56665 9.56671 8.66665 10.6667 8.66665H14.6667C15.7667 8.66665 16.6667 9.56665 16.6667 10.6666V15.3333H14.6667Z" fill="black" fill-opacity="0.72"/>
</g>
</g>
</svg>
