<svg width="32" height="32" viewBox="0 0 32 32" fill="none" xmlns="http://www.w3.org/2000/svg">
<g id="illustrative / md / safety-md">
<g id="icon">
<path d="M12 18.6666C13.6533 18.6666 15 17.32 15 15.6666C15 14.0133 13.6533 12.6666 12 12.6666C10.3467 12.6666 9 14.0133 9 15.6666C9 17.32 10.3467 18.6666 12 18.6666ZM12 14C12.92 14 13.6667 14.7466 13.6667 15.6666C13.6667 16.5866 12.92 17.3333 12 17.3333C11.08 17.3333 10.3333 16.5866 10.3333 15.6666C10.3333 14.7466 11.08 14 12 14Z" fill="black" fill-opacity="0.72"/>
<path d="M14 19.3333C13.6333 19.3333 13.3333 19.6333 13.3333 20C13.3333 20.3666 13.6333 20.6666 14 20.6666C14.7333 20.6666 15.3333 21.2666 15.3333 22V23.3333C15.3333 23.7 15.0333 24 14.6667 24H9.33333C8.96667 24 8.66667 23.7 8.66667 23.3333V22C8.66667 21.2666 9.26667 20.6666 10 20.6666C10.3667 20.6666 10.6667 20.3666 10.6667 20C10.6667 19.6333 10.3667 19.3333 10 19.3333C8.52667 19.3333 7.33333 20.5266 7.33333 22V23.3333C7.33333 24.4333 8.23333 25.3333 9.33333 25.3333H14.6667C15.7667 25.3333 16.6667 24.4333 16.6667 23.3333V22C16.6667 20.5266 15.4733 19.3333 14 19.3333Z" fill="black" fill-opacity="0.72"/>
<path d="M20.48 9.55998C18.6133 9.10665 14.08 7.91998 12.3733 6.77998C12.1467 6.63331 11.86 6.63331 11.6333 6.77998C9.92667 7.91998 5.39333 9.10665 3.52667 9.55998C2.62667 9.77998 2 10.58 2 11.5V20.5533C2 28.8 11.7933 30.5266 11.8933 30.5466C11.9267 30.5466 11.9667 30.5533 12 30.5533C12.0333 30.5533 12.0733 30.5533 12.1067 30.5466C12.2067 30.5333 22 28.8 22 20.5533V11.5C22 10.5733 21.3733 9.77331 20.48 9.55998ZM20.6667 20.56C20.6667 23.52 19.22 25.8733 16.36 27.5466C14.4333 28.68 12.4733 29.12 12 29.2133C10.9867 29.0133 3.33333 27.2533 3.33333 20.56V11.5066C3.33333 11.2 3.54 10.9333 3.84 10.86C6.09333 10.3066 10.02 9.24665 12 8.11998C13.98 9.24665 17.9067 10.3066 20.16 10.86C20.46 10.9333 20.6667 11.2 20.6667 11.5066V20.56Z" fill="black" fill-opacity="0.72"/>
<path d="M26.3333 1.33331C23.94 1.33331 22 3.27331 22 5.66665C22 8.05998 23.94 9.99998 26.3333 9.99998C28.7267 9.99998 30.6667 8.05998 30.6667 5.66665C30.6667 3.27331 28.7267 1.33331 26.3333 1.33331ZM26.3333 8.66665C24.68 8.66665 23.3333 7.31998 23.3333 5.66665C23.3333 4.01331 24.68 2.66665 26.3333 2.66665C27.9867 2.66665 29.3333 4.01331 29.3333 5.66665C29.3333 7.31998 27.9867 8.66665 26.3333 8.66665Z" fill="black" fill-opacity="0.72"/>
<path d="M26.86 4.85998L26 5.71998L25.8067 5.52665C25.5467 5.26665 25.1267 5.26665 24.8667 5.52665C24.6067 5.78665 24.6067 6.20665 24.8667 6.46665L25.5333 7.13331C25.6667 7.26665 25.8333 7.32665 26.0067 7.32665C26.18 7.32665 26.3467 7.25998 26.48 7.13331L27.8133 5.79998C28.0733 5.53998 28.0733 5.11998 27.8133 4.85998C27.5533 4.59998 27.1333 4.59998 26.8733 4.85998H26.86Z" fill="black" fill-opacity="0.72"/>
</g>
</g>
</svg>
