<svg width="32" height="32" viewBox="0 0 32 32" fill="none" xmlns="http://www.w3.org/2000/svg">
<g id="illustrative / md / etf-md">
<path id="icon" fill-rule="evenodd" clip-rule="evenodd" d="M4.66663 5.33337C4.66663 4.23185 5.5651 3.33337 6.66663 3.33337H20C21.1015 3.33337 22 4.23185 22 5.33337V7.33337H25.3333C26.4348 7.33337 27.3333 8.23185 27.3333 9.33337V26.6667C27.3333 27.7682 26.4348 28.6667 25.3333 28.6667H12C10.8984 28.6667 9.99996 27.7682 9.99996 26.6667V24H6.66663C5.5651 24 4.66663 23.1016 4.66663 22V5.33337ZM11.3333 26.6667C11.3333 27.0319 11.6348 27.3334 12 27.3334H25.3333C25.6984 27.3334 26 27.0319 26 26.6667V9.33337C26 8.96823 25.6984 8.66671 25.3333 8.66671H12C11.6348 8.66671 11.3333 8.96823 11.3333 9.33337V26.6667ZM20.6666 7.33337H12C10.8984 7.33337 9.99996 8.23185 9.99996 9.33337V22.6667H6.66663C6.30148 22.6667 5.99996 22.3652 5.99996 22V5.33337C5.99996 4.96823 6.30148 4.66671 6.66663 4.66671H20C20.3651 4.66671 20.6666 4.96823 20.6666 5.33337V7.33337ZM14 14.6667C14 14.2985 14.2984 14 14.6666 14H20C20.3681 14 20.6666 14.2985 20.6666 14.6667C20.6666 15.0349 20.3681 15.3334 20 15.3334H14.6666C14.2984 15.3334 14 15.0349 14 14.6667ZM14 20C14 19.6319 14.2984 19.3334 14.6666 19.3334H20C20.3681 19.3334 20.6666 19.6319 20.6666 20C20.6666 20.3682 20.3681 20.6667 20 20.6667H14.6666C14.2984 20.6667 14 20.3682 14 20ZM14 22.6667C14 22.2985 14.2984 22 14.6666 22H17.3333C17.7015 22 18 22.2985 18 22.6667C18 23.0349 17.7015 23.3334 17.3333 23.3334H14.6666C14.2984 23.3334 14 23.0349 14 22.6667Z" fill="black" fill-opacity="0.72"/>
</g>
</svg>
