<svg width="32" height="32" viewBox="0 0 32 32" fill="none" xmlns="http://www.w3.org/2000/svg">
<g id="illustrative / md / trade-wisely-md">
<path id="icon" d="M27.8133 19H22.3733C22 19 21.7066 19.2933 21.7066 19.6666C21.7066 20.04 22 20.3333 22.3733 20.3333H24.4266V20.76C24.4266 21.5866 23.7466 22.2666 22.92 22.2666H18.5733C18.28 21.3333 17.4266 20.64 16.3866 20.64C15.3466 20.64 14.4933 21.3333 14.2 22.2666H9.86663C9.03996 22.2666 8.35996 21.5866 8.35996 20.76V17.0666H10.4C10.7733 17.0666 11.0666 16.7733 11.0666 16.4C11.0666 16.0266 10.7733 15.7333 10.4 15.7333H4.95996C4.58663 15.7333 4.2933 16.0266 4.2933 16.4C4.2933 16.7733 4.58663 17.0666 4.95996 17.0666H7.02663V20.76C7.02663 22.32 8.30663 23.6 9.86663 23.6H14.2C14.4266 24.32 14.9866 24.8933 15.72 25.12V26.0666H11.4933C10.52 26.0666 9.7333 26.8533 9.7333 27.8266V30C9.7333 30.3733 10.0266 30.6666 10.4 30.6666H22.3733C22.7466 30.6666 23.04 30.3733 23.04 30V27.8266C23.04 26.8533 22.2533 26.0666 21.28 26.0666H17.0533V25.12C17.7733 24.8933 18.3466 24.3333 18.5733 23.6H22.92C24.48 23.6 25.76 22.32 25.76 20.76V20.3333H27.8133C28.1866 20.3333 28.48 20.04 28.48 19.6666C28.48 19.2933 28.1866 19 27.8133 19ZM21.7066 27.8266V29.3333H11.0666V27.8266C11.0666 27.6 11.2666 27.4 11.4933 27.4H21.28C21.5066 27.4 21.7066 27.6 21.7066 27.8266ZM16.3866 23.8933C15.8533 23.8933 15.4266 23.4666 15.4266 22.9333C15.4266 22.4 15.8533 21.9733 16.3866 21.9733C16.92 21.9733 17.3466 22.4 17.3466 22.9333C17.3466 23.4666 16.92 23.8933 16.3866 23.8933ZM22.7866 15.08V15.8133C22.7866 15.8133 22.7866 15.8533 22.7866 15.88V16.9733C22.7866 17.9466 23.5733 18.7333 24.5466 18.7333H25.64C26.6133 18.7333 27.4 17.9466 27.4 16.9733V15.08C28.0933 14.44 28.4933 13.5466 28.4933 12.6133C28.4933 12.56 28.4933 12.5066 28.48 12.4533C28.4 10.6533 26.92 9.22664 25.0933 9.22664C23.2666 9.22664 21.7066 10.7466 21.7066 12.6133C21.7066 13.5733 22.1066 14.4533 22.8 15.0933L22.7866 15.08ZM26.0533 16.96C26.0533 17.1866 25.8533 17.3866 25.6266 17.3866H24.5333C24.3066 17.3866 24.1066 17.1866 24.1066 16.96V16.5333H26.0533V16.96ZM25.08 10.5466C26.2133 10.5466 27.1333 11.4666 27.1333 12.6C27.1333 12.64 27.1333 12.68 27.1333 12.72C27.0933 13.3066 26.8 13.8666 26.3066 14.2266C26.1333 14.3466 26.04 14.5466 26.04 14.76V15.2H24.1066V14.76C24.1066 14.5466 24 14.3466 23.84 14.2266C23.32 13.84 23.0133 13.2533 23.0133 12.6C23.0133 11.4666 23.9333 10.5466 25.0666 10.5466H25.08ZM24.3466 13.0533C24.0933 12.7866 24.0933 12.3733 24.3466 12.1066L24.8933 11.56C25.16 11.2933 25.5733 11.2933 25.84 11.56C26.1066 11.8133 26.1066 12.24 25.84 12.5066L25.76 12.5866L25.84 12.6666C26.0933 12.9333 26.0933 13.3466 25.84 13.6133L25.2933 14.16C25.16 14.2933 24.9866 14.36 24.8266 14.36C24.6666 14.36 24.48 14.2933 24.36 14.16C24.0933 13.8933 24.0933 13.48 24.36 13.2133L24.44 13.1333L24.36 13.0533H24.3466ZM5.8133 11.5466C6.8933 10.6133 8.55996 10.64 9.5733 11.5466C9.8533 11.7866 9.86663 12.2133 9.62663 12.4933C9.38663 12.7733 8.95996 12.7866 8.67996 12.5466C8.14663 12.0666 7.26663 12.0533 6.67996 12.5466C6.55996 12.6533 6.39996 12.7066 6.23996 12.7066C6.0533 12.7066 5.86663 12.6266 5.7333 12.48C5.4933 12.2 5.51996 11.7866 5.79996 11.5333L5.8133 11.5466ZM5.51996 9.05331C5.51996 8.59998 5.87996 8.23998 6.3333 8.23998C6.78663 8.23998 7.14663 8.59998 7.14663 9.05331C7.14663 9.50664 6.78663 9.86664 6.3333 9.86664C5.87996 9.86664 5.51996 9.50664 5.51996 9.05331ZM8.23996 9.05331C8.23996 8.59998 8.59996 8.23998 9.0533 8.23998C9.50663 8.23998 9.86663 8.59998 9.86663 9.05331C9.86663 9.50664 9.50663 9.86664 9.0533 9.86664C8.59996 9.86664 8.23996 9.50664 8.23996 9.05331ZM7.67996 15.4533C8.1333 15.4533 8.59996 15.4 9.0533 15.28C10.52 14.9066 11.7466 13.9733 12.5066 12.6666C13.6 10.7733 13.4666 8.41331 12.2133 6.65331L12.6666 5.86664C12.9066 5.46664 12.9733 4.98664 12.8533 4.53331C12.76 4.15998 12.52 3.86664 12.2266 3.63998C12.3733 3.53331 12.5466 3.43998 12.72 3.39998C13.1066 3.29331 13.52 3.34664 13.8666 3.54664C14.5866 3.95998 14.84 4.89331 14.4266 5.61331C13.64 6.97331 14.1066 8.70664 15.4666 9.49331C15.9066 9.74664 16.4 9.86664 16.88 9.86664C17.8666 9.86664 18.8266 9.35998 19.3466 8.43998C19.5333 8.11998 19.4266 7.71998 19.1066 7.53331C18.7866 7.34664 18.3733 7.45331 18.2 7.77331C17.7866 8.49331 16.8533 8.74664 16.1333 8.33331C15.7866 8.13331 15.5333 7.79998 15.4266 7.41331C15.32 7.02664 15.3733 6.61331 15.5733 6.26664C16.36 4.90664 15.8933 3.15998 14.5333 2.38664C13.88 2.01331 13.1066 1.90664 12.3733 2.10664C11.8533 2.23998 11.4 2.53331 11.04 2.90664C10.64 2.67998 10.1866 2.62664 9.74663 2.73331C9.2933 2.85331 8.90663 3.14664 8.67996 3.55998L8.22663 4.35998C5.99996 4.13331 3.8533 5.26664 2.7733 7.26664C1.4133 9.81331 2.2933 13.12 4.75996 14.6266C5.6533 15.1733 6.6533 15.4533 7.66663 15.4533H7.67996ZM3.95996 7.89331C4.70663 6.50664 6.14663 5.66664 7.67996 5.66664C7.9333 5.66664 8.19996 5.69331 8.46663 5.73331C8.74663 5.78664 9.02663 5.65331 9.15996 5.41331L9.83996 4.22664C9.8933 4.13331 9.98663 4.06664 10.0933 4.02664C10.2 3.99998 10.3066 4.01331 10.4133 4.06664L11.36 4.61331C11.4533 4.66664 11.52 4.75998 11.56 4.86664C11.5866 4.97331 11.5733 5.07998 11.52 5.18664L10.84 6.37331C10.7066 6.61331 10.7333 6.91998 10.9066 7.13331C12.0666 8.49331 12.2533 10.4533 11.36 12C10.7866 13 9.8533 13.7066 8.7333 13.9866C7.6133 14.2666 6.4533 14.0933 5.46663 13.48C3.59996 12.3333 2.91996 9.82664 3.95996 7.87998V7.89331ZM19.28 5.89331L19.5466 5.42664C19.7333 5.10664 20.1333 4.99998 20.4533 5.17331C20.7733 5.35998 20.88 5.75998 20.7066 6.07998L20.44 6.54664C20.32 6.75998 20.0933 6.87998 19.8666 6.87998C19.76 6.87998 19.64 6.85331 19.5333 6.78664C19.2133 6.59998 19.1066 6.19998 19.28 5.87998V5.89331ZM20.6266 7.19998L21.1466 7.05331C21.5066 6.95998 21.8666 7.15998 21.9733 7.51998C22.0666 7.87998 21.8666 8.23998 21.5066 8.34664L20.9866 8.49331C20.9866 8.49331 20.8666 8.51998 20.8 8.51998C20.5066 8.51998 20.24 8.33331 20.16 8.03998C20.0666 7.67998 20.2666 7.31998 20.6266 7.21331V7.19998ZM17.2133 5.86664C17.1066 5.50664 17.32 5.14664 17.68 5.03998C18.04 4.94664 18.4 5.14664 18.5066 5.49331L18.6533 6.01331C18.76 6.37331 18.5466 6.73331 18.1866 6.83998C18.1333 6.85331 18.0666 6.86664 18 6.86664C17.7066 6.86664 17.44 6.67998 17.36 6.38664L17.2133 5.86664Z" fill="black" fill-opacity="0.72"/>
</g>
</svg>
