<svg width="32" height="32" viewBox="0 0 32 32" fill="none" xmlns="http://www.w3.org/2000/svg">
<g id="illustrative / md / two-factor-authentication-md">
<path id="icon" d="M29.9066 12.12V20.9467C29.9066 22.7067 28.48 24.1333 26.72 24.1333H17.9333V25.9467H20.4133C20.7866 25.9467 21.08 26.24 21.08 26.6133C21.08 26.9867 20.7866 27.28 20.4133 27.28H14.1066C13.7333 27.28 13.44 26.9867 13.44 26.6133C13.44 26.24 13.7333 25.9467 14.1066 25.9467H16.6V24.1333H14.12C13.7466 24.1333 13.4533 23.84 13.4533 23.4667C13.4533 23.0933 13.7466 22.8 14.12 22.8H26.72C27.7466 22.8 28.5733 21.9733 28.5733 20.9467V12.12C28.5733 11.7467 28.8666 11.4533 29.24 11.4533C29.6133 11.4533 29.9066 11.7467 29.9066 12.12ZM5.27997 12.7867C5.65331 12.7867 5.94664 12.4933 5.94664 12.12V10.2267C5.94664 9.2 6.77331 8.37333 7.79997 8.37333H21.8666C22.24 8.37333 22.5333 8.08 22.5333 7.70667C22.5333 7.33333 22.24 7.04 21.8666 7.04H7.79997C6.03997 7.04 4.61331 8.46667 4.61331 10.2267V12.12C4.61331 12.4933 4.90664 12.7867 5.27997 12.7867ZM11.7333 20.1333C11.36 20.1333 11.0666 20.4267 11.0666 20.8V27.2C11.0666 28.0133 10.4133 28.6667 9.59997 28.6667H4.79997C3.98664 28.6667 3.33331 28.0133 3.33331 27.2V16.5333C3.33331 15.8667 3.78664 15.28 4.43997 15.1067C4.79997 15.0133 5.01331 14.6533 4.91997 14.2933C4.82664 13.9333 4.46664 13.7333 4.10664 13.8133C2.86664 14.1333 2.01331 15.2533 2.01331 16.52V27.1867C2.01331 28.7333 3.26664 29.9867 4.81331 29.9867H9.61331C11.16 29.9867 12.4133 28.7333 12.4133 27.1867V20.7867C12.4133 20.4133 12.12 20.12 11.7466 20.12L11.7333 20.1333ZM4.61331 26.6667C4.61331 27.04 4.90664 27.3333 5.27997 27.3333H9.06664C9.43997 27.3333 9.7333 27.04 9.7333 26.6667C9.7333 26.2933 9.43997 26 9.06664 26H5.27997C4.90664 26 4.61331 26.2933 4.61331 26.6667ZM30 6.93333V9.06667C30 10.0267 29.2266 10.8 28.2666 10.8H25.0666C24.1066 10.8 23.3333 10.0267 23.3333 9.06667V6.93333C23.3333 5.97333 24.1066 5.2 25.0666 5.2H27.6V3.73333C27.6 3.52 27.4133 3.33333 27.2 3.33333H26.1333C25.92 3.33333 25.7333 3.52 25.7333 3.73333C25.7333 4.10667 25.44 4.4 25.0666 4.4C24.6933 4.4 24.4 4.10667 24.4 3.73333C24.4 2.77333 25.1733 2 26.1333 2H27.2C28.16 2 28.9333 2.77333 28.9333 3.73333V5.33333C29.56 5.6 30 6.21333 30 6.93333ZM28.6666 6.93333C28.6666 6.70667 28.4933 6.53333 28.2666 6.53333H25.0666C24.84 6.53333 24.6666 6.70667 24.6666 6.93333V9.06667C24.6666 9.29333 24.84 9.46667 25.0666 9.46667H28.2666C28.4933 9.46667 28.6666 9.29333 28.6666 9.06667V6.93333ZM12.4 15.4667V17.6C12.4 18.56 11.6266 19.3333 10.6666 19.3333H7.46664C6.50664 19.3333 5.73331 18.56 5.73331 17.6V15.4667C5.73331 14.7467 6.17331 14.1333 6.79997 13.8667V13.3333C6.79997 12.3733 7.57331 11.6 8.53331 11.6H9.59997C10.0666 11.6 10.5066 11.7733 10.8266 12.1067C11.1466 12.44 11.3333 12.88 11.3333 13.3333V13.8667C11.96 14.1333 12.4 14.7467 12.4 15.4667ZM8.13331 13.3333V13.7333H9.99997V13.3333C9.99997 13.3333 9.99997 13.1467 9.8933 13.04C9.8133 12.96 9.71997 12.9333 9.59997 12.9333H8.53331C8.31997 12.9333 8.13331 13.12 8.13331 13.3333ZM11.0666 15.4667C11.0666 15.24 10.8933 15.0667 10.6666 15.0667H7.46664C7.23997 15.0667 7.06664 15.24 7.06664 15.4667V17.6C7.06664 17.8267 7.23997 18 7.46664 18H10.6666C10.8933 18 11.0666 17.8267 11.0666 17.6V15.4667Z" fill="black" fill-opacity="0.72"/>
</g>
</svg>
