<svg width="32" height="32" viewBox="0 0 32 32" fill="none" xmlns="http://www.w3.org/2000/svg">
<g id="illustrative / md / payout-md">
<g id="icon">
<path d="M28.402 6.11663L25.342 3.05663C24.822 2.53663 23.9753 2.53663 23.4553 3.05663L20.3953 6.11663C20.142 6.36996 20.0153 6.70996 20.0153 7.05663H13.7287C10.7887 7.05663 8.39533 9.44996 8.39533 12.39V15.0566C6.18866 15.0566 4.39533 16.85 4.39533 19.0566V23.0566H4.002C3.462 23.0566 2.97533 23.3766 2.76866 23.8766C2.562 24.3766 2.67533 24.95 3.05533 25.33L6.11533 28.39C6.37533 28.65 6.71533 28.7766 7.05533 28.7766C7.39533 28.7766 7.73533 28.6433 7.99533 28.39L11.0553 25.33C11.3087 25.0766 11.4353 24.7366 11.4353 24.39H17.722C20.662 24.39 23.0553 21.9966 23.0553 19.0566V16.39H23.722C25.562 16.39 27.0553 14.8966 27.0553 13.0566V8.38996H27.4487C27.9887 8.38996 28.4753 8.06996 28.682 7.56996C28.8887 7.06996 28.7753 6.49663 28.3953 6.11663H28.402ZM7.06866 27.45L4.00866 24.39H5.06866C5.43533 24.39 5.73533 24.09 5.73533 23.7233V19.0566C5.73533 17.5833 6.92866 16.39 8.402 16.39V23.7233C8.402 24.09 8.702 24.39 9.06866 24.39H10.1287L7.06866 27.45ZM21.7353 19.0566C21.7353 21.2633 19.942 23.0566 17.7353 23.0566H9.73533V12.39C9.73533 10.1833 11.5287 8.38996 13.7353 8.38996H21.7353V19.0566ZM26.402 7.05663C26.0353 7.05663 25.7353 7.35663 25.7353 7.72329V13.0566C25.7353 14.1566 24.8353 15.0566 23.7353 15.0566H23.0687V7.72329C23.0687 7.35663 22.7687 7.05663 22.402 7.05663H21.342L24.402 3.99663L27.462 7.05663H26.402Z" fill="black" fill-opacity="0.72"/>
<path d="M17.7353 13.7233C18.102 13.7233 18.402 13.4233 18.402 13.0566C18.402 12.69 18.102 12.39 17.7353 12.39H16.402V11.7233C16.402 11.3566 16.102 11.0566 15.7353 11.0566C15.3687 11.0566 15.0687 11.3566 15.0687 11.7233V12.39H14.402C13.6687 12.39 13.0687 12.99 13.0687 13.7233V15.0566C13.0687 15.79 13.6687 16.39 14.402 16.39H17.0687V17.7233H13.7353C13.3687 17.7233 13.0687 18.0233 13.0687 18.39C13.0687 18.7566 13.3687 19.0566 13.7353 19.0566H15.0687V19.7233C15.0687 20.09 15.3687 20.39 15.7353 20.39C16.102 20.39 16.402 20.09 16.402 19.7233V19.0566H17.0687C17.802 19.0566 18.402 18.4566 18.402 17.7233V16.39C18.402 15.6566 17.802 15.0566 17.0687 15.0566H14.402V13.7233H17.7353Z" fill="black" fill-opacity="0.72"/>
</g>
</g>
</svg>
