<svg width="32" height="32" viewBox="0 0 32 32" fill="none" xmlns="http://www.w3.org/2000/svg">
<g id="illustrative / md / user-friendly-md">
<g id="icon">
<path d="M13.44 21.3333C13.44 21.7 13.74 22 14.1066 22H17.9C18.2666 22 18.5666 21.7 18.5666 21.3333C18.5666 20.9666 18.2666 20.6666 17.9 20.6666H14.1066C13.74 20.6666 13.44 20.9666 13.44 21.3333Z" fill="black" fill-opacity="0.72"/>
<path d="M22.6666 12H21.3333V10.6666C21.3333 8.82665 19.84 7.33331 18 7.33331H14C12.6133 7.33331 11.4266 8.17998 10.9266 9.38665C10.8466 9.35331 10.76 9.33331 10.6666 9.33331H9.33331C6.02665 9.33331 3.33331 12.0266 3.33331 15.3333V16.6666C3.33331 17.0333 3.63331 17.3333 3.99998 17.3333C4.36665 17.3333 4.66665 17.0333 4.66665 16.6666V15.3333C4.66665 12.76 6.75998 10.6666 9.33331 10.6666H10.6666V12.6666H9.99998C9.63331 12.6666 9.33331 12.9666 9.33331 13.3333C9.33331 13.7 9.63331 14 9.99998 14H14C14 15.1 13.1 16 12 16H11.3333C9.49331 16 7.99998 17.4933 7.99998 19.3333C7.99998 20.4333 7.09998 21.3333 5.99998 21.3333C5.63331 21.3333 5.33331 21.6333 5.33331 22C5.33331 22.3666 5.63331 22.6666 5.99998 22.6666C7.83998 22.6666 9.33331 21.1733 9.33331 19.3333C9.33331 18.4666 9.89331 17.7333 10.6666 17.4533V21.3333C10.6666 23.1733 12.16 24.6666 14 24.6666H18C19.84 24.6666 21.3333 23.1733 21.3333 21.3333V20.12C22.1066 20.3933 22.6666 21.1266 22.6666 22C22.6666 23.84 24.16 25.3333 26 25.3333C26.3666 25.3333 26.6666 25.0333 26.6666 24.6666C26.6666 24.3 26.3666 24 26 24C24.9 24 24 23.1 24 22C24 20.16 22.5066 18.6666 20.6666 18.6666H20C18.9 18.6666 18 17.7666 18 16.6666H22C22.3666 16.6666 22.6666 16.3666 22.6666 16C22.6666 15.6333 22.3666 15.3333 22 15.3333H21.3333V13.3333H22.6666C25.24 13.3333 27.3333 15.4266 27.3333 18V19.3333C27.3333 19.7 27.6333 20 28 20C28.3666 20 28.6666 19.7 28.6666 19.3333V18C28.6666 14.6933 25.9733 12 22.6666 12ZM18 15.3333C17.2666 15.3333 16.6666 15.9333 16.6666 16.6666C16.6666 18.5066 18.16 20 20 20V21.3333C20 22.4333 19.1 23.3333 18 23.3333H14C12.9 23.3333 12 22.4333 12 21.3333V17.3333C13.84 17.3333 15.3333 15.84 15.3333 14C15.3333 13.2666 14.7333 12.6666 14 12.6666H12V10.6666C12 9.56665 12.9 8.66665 14 8.66665H18C19.1 8.66665 20 9.56665 20 10.6666V15.3333H18Z" fill="black" fill-opacity="0.72"/>
</g>
</g>
</svg>
