<svg width="32" height="32" viewBox="0 0 32 32" fill="none" xmlns="http://www.w3.org/2000/svg">
<g id="illustrative / md / find-or-create-an-ad-md">
<g id="icon">
<path d="M19.3733 13.8933C19.3533 13.9467 19.3466 14 19.34 14.06C19.34 14.08 19.34 14.1067 19.34 14.1267C19.34 14.1933 19.3533 14.2667 19.38 14.3333C19.38 14.34 19.38 14.3467 19.38 14.3533C19.4133 14.4267 19.46 14.4933 19.5133 14.5467C19.5133 14.5467 19.52 14.56 19.5266 14.5667L20.86 15.9C20.9933 16.0333 21.16 16.0933 21.3333 16.0933C21.5066 16.0933 21.6733 16.0267 21.8066 15.9C22.0666 15.64 22.0666 15.22 21.8066 14.96L21.6133 14.7667H23.34C23.7066 14.7667 24.0066 14.4667 24.0066 14.1C24.0066 13.7333 23.7066 13.4333 23.34 13.4333H21.6133L21.8066 13.24C22.0666 12.98 22.0666 12.56 21.8066 12.2933C21.5466 12.0333 21.1266 12.0333 20.86 12.2933L19.5266 13.6267C19.5266 13.6267 19.5266 13.6267 19.5266 13.6333C19.4733 13.6867 19.4333 13.7533 19.4 13.82C19.3933 13.84 19.3866 13.8667 19.3733 13.8867V13.8933Z" fill="black" fill-opacity="0.72"/>
<path d="M17.9933 14.06C17.9933 14.0067 17.98 13.9467 17.96 13.8933C17.9533 13.8733 17.9466 13.8467 17.9333 13.8267C17.9 13.76 17.86 13.6933 17.8066 13.64C17.8066 13.64 17.8066 13.64 17.8066 13.6333L16.4733 12.3C16.2133 12.04 15.7933 12.04 15.5266 12.3C15.2666 12.56 15.2666 12.98 15.5266 13.2467L15.72 13.44H13.9933C13.6266 13.44 13.3266 13.74 13.3266 14.1067C13.3266 14.4733 13.6266 14.7733 13.9933 14.7733H15.72L15.5266 14.9667C15.2666 15.2267 15.2666 15.6467 15.5266 15.9067C15.66 16.04 15.8266 16.1 16 16.1C16.1733 16.1 16.34 16.0333 16.4733 15.9067L17.8066 14.5733C17.8066 14.5733 17.8133 14.56 17.82 14.5533C17.8733 14.4933 17.92 14.4333 17.9533 14.36C17.9533 14.3533 17.9533 14.3467 17.9533 14.34C17.98 14.2733 17.9933 14.2 17.9933 14.1333C17.9933 14.1133 17.9933 14.0867 17.9933 14.0667V14.06Z" fill="black" fill-opacity="0.72"/>
<path d="M16.7333 19.5667C17.1 19.5667 17.4 19.2667 17.4 18.9C17.4 18.5333 17.1 18.2333 16.7333 18.2333H15.7V17.7667C15.7 17.4 15.4 17.1 15.0333 17.1C14.6666 17.1 14.3666 17.4 14.3666 17.7667V18.2333H13.9C13.22 18.2333 12.6666 18.7867 12.6666 19.4667V20.6C12.6666 21.28 13.22 21.8333 13.9 21.8333H16.0666V22.7667H13.3333C12.9666 22.7667 12.6666 23.0667 12.6666 23.4333C12.6666 23.8 12.9666 24.1 13.3333 24.1H14.3666V24.5667C14.3666 24.9333 14.6666 25.2333 15.0333 25.2333C15.4 25.2333 15.7 24.9333 15.7 24.5667V24.1H16.1666C16.8466 24.1 17.4 23.5467 17.4 22.8667V21.7333C17.4 21.0533 16.8466 20.5 16.1666 20.5H14V19.5667H16.7333Z" fill="black" fill-opacity="0.72"/>
<path d="M19.3333 19.1H22.6666C23.0333 19.1 23.3333 18.8 23.3333 18.4333C23.3333 18.0667 23.0333 17.7667 22.6666 17.7667H19.3333C18.9666 17.7667 18.6666 18.0667 18.6666 18.4333C18.6666 18.8 18.9666 19.1 19.3333 19.1Z" fill="black" fill-opacity="0.72"/>
<path d="M24 20.4333H19.3333C18.9666 20.4333 18.6666 20.7333 18.6666 21.1C18.6666 21.4667 18.9666 21.7667 19.3333 21.7667H24C24.3666 21.7667 24.6666 21.4667 24.6666 21.1C24.6666 20.7333 24.3666 20.4333 24 20.4333Z" fill="black" fill-opacity="0.72"/>
<path d="M23.6 23.1H19.3333C18.9666 23.1 18.6666 23.4 18.6666 23.7667C18.6666 24.1333 18.9666 24.4333 19.3333 24.4333H23.6C23.9666 24.4333 24.2666 24.1333 24.2666 23.7667C24.2666 23.4 23.9666 23.1 23.6 23.1Z" fill="black" fill-opacity="0.72"/>
<path d="M25.3333 9.33333H24.6666V8.66667C24.6666 7.56667 23.7666 6.66667 22.6666 6.66667H22V6C22 4.9 21.1 4 20 4H5.33329C4.96663 4 4.66663 4.3 4.66663 4.66667V20.6667C4.66663 21.7667 5.56663 22.6667 6.66663 22.6667H7.33329V23.3333C7.33329 24.4333 8.23329 25.3333 9.33329 25.3333H9.99996V26C9.99996 27.1 10.9 28 12 28H25.3333C26.4333 28 27.3333 27.1 27.3333 26V11.3333C27.3333 10.2333 26.4333 9.33333 25.3333 9.33333ZM6.66663 21.3333C6.29996 21.3333 5.99996 21.0333 5.99996 20.6667V5.33333H20C20.3666 5.33333 20.6666 5.63333 20.6666 6V6.66667H7.99996C7.63329 6.66667 7.33329 6.96667 7.33329 7.33333V21.3333H6.66663ZM9.33329 24C8.96663 24 8.66663 23.7 8.66663 23.3333V8H22.6666C23.0333 8 23.3333 8.3 23.3333 8.66667V9.33333H10.6666C10.3 9.33333 9.99996 9.63333 9.99996 10V24H9.33329ZM26 26C26 26.3667 25.7 26.6667 25.3333 26.6667H12C11.6333 26.6667 11.3333 26.3667 11.3333 26V10.6667H25.3333C25.7 10.6667 26 10.9667 26 11.3333V26Z" fill="black" fill-opacity="0.72"/>
</g>
</g>
</svg>
