<svg width="32" height="32" viewBox="0 0 32 32" fill="none" xmlns="http://www.w3.org/2000/svg">
<g id="illustrative / md / community-managers-md">
<g id="icon">
<path d="M16.1133 16C14.46 16 13.1133 17.3467 13.1133 19C13.1133 20.6534 14.46 22 16.1133 22C17.7666 22 19.1133 20.6534 19.1133 19C19.1133 17.3467 17.7666 16 16.1133 16ZM16.1133 20.6667C15.1933 20.6667 14.4466 19.92 14.4466 19C14.4466 18.08 15.1933 17.3334 16.1133 17.3334C17.0333 17.3334 17.78 18.08 17.78 19C17.78 19.92 17.0333 20.6667 16.1133 20.6667Z" fill="black" fill-opacity="0.72"/>
<path d="M18.1133 22.6667C17.7466 22.6667 17.4466 22.9667 17.4466 23.3334C17.4466 23.7 17.7466 24 18.1133 24C18.8466 24 19.4466 24.6 19.4466 25.3334V27.3334C19.4466 27.7 19.1466 28 18.78 28H13.4466C13.08 28 12.78 27.7 12.78 27.3334V25.3334C12.78 24.6 13.38 24 14.1133 24C14.48 24 14.78 23.7 14.78 23.3334C14.78 22.9667 14.48 22.6667 14.1133 22.6667C12.64 22.6667 11.4466 23.86 11.4466 25.3334V27.3334C11.4466 28.4334 12.3466 29.3334 13.4466 29.3334H18.78C19.88 29.3334 20.78 28.4334 20.78 27.3334V25.3334C20.78 23.86 19.5866 22.6667 18.1133 22.6667Z" fill="black" fill-opacity="0.72"/>
<path d="M8.77996 18C7.55329 18 6.55996 19 6.55996 20.22C6.55996 21.44 7.55996 22.44 8.77996 22.44C9.99996 22.44 11 21.44 11 20.22C11 19 9.99996 18 8.77996 18ZM8.77996 21.1134C8.28663 21.1134 7.89329 20.7134 7.89329 20.2267C7.89329 19.74 8.29329 19.34 8.77996 19.34C9.26663 19.34 9.66663 19.74 9.66663 20.2267C9.66663 20.7134 9.26663 21.1134 8.77996 21.1134Z" fill="black" fill-opacity="0.72"/>
<path d="M9.44663 27.1134H6.99996C6.87996 27.1134 6.77996 27.0134 6.77996 26.8934V25.56C6.77996 25.1934 7.07996 24.8934 7.44663 24.8934C7.81329 24.8934 8.11329 24.5934 8.11329 24.2267C8.11329 23.86 7.81329 23.56 7.44663 23.56C6.34663 23.56 5.44663 24.46 5.44663 25.56V26.8934C5.44663 27.7534 6.14663 28.4467 6.99996 28.4467H9.44663C9.81329 28.4467 10.1133 28.1467 10.1133 27.78C10.1133 27.4134 9.81329 27.1134 9.44663 27.1134Z" fill="black" fill-opacity="0.72"/>
<path d="M25.6666 20.22C25.6666 18.9934 24.6666 18 23.4466 18C22.2266 18 21.2266 19 21.2266 20.22C21.2266 21.44 22.2266 22.44 23.4466 22.44C24.6666 22.44 25.6666 21.44 25.6666 20.22ZM22.5533 20.22C22.5533 19.7267 22.9533 19.3334 23.44 19.3334C23.9266 19.3334 24.3266 19.7334 24.3266 20.22C24.3266 20.7067 23.9266 21.1067 23.44 21.1067C22.9533 21.1067 22.5533 20.7067 22.5533 20.22Z" fill="black" fill-opacity="0.72"/>
<path d="M24.78 23.5534C24.4133 23.5534 24.1133 23.8534 24.1133 24.22C24.1133 24.5867 24.4133 24.8867 24.78 24.8867C25.1466 24.8867 25.4466 25.1867 25.4466 25.5534V26.8867C25.4466 27.0067 25.3466 27.1067 25.2266 27.1067H22.78C22.4133 27.1067 22.1133 27.4067 22.1133 27.7734C22.1133 28.14 22.4133 28.44 22.78 28.44H25.2266C26.0866 28.44 26.78 27.74 26.78 26.8867V25.5534C26.78 24.4534 25.88 23.5534 24.78 23.5534Z" fill="black" fill-opacity="0.72"/>
<path d="M12.1733 11.5867C12.1466 11.64 12.1133 11.6934 12.08 11.7467C11.9 12.0534 11.8466 12.4134 11.94 12.7667C12.0333 13.1134 12.2533 13.4067 12.56 13.5867L13.46 14.1067C14.0933 14.4734 14.9066 14.2534 15.2733 13.6334L15.38 13.4534C15.7933 13.5067 16.2133 13.5067 16.6266 13.4534L16.7333 13.64C16.98 14.06 17.4266 14.3 17.8866 14.3C18.1133 14.3 18.34 14.24 18.5466 14.12L19.4466 13.6C19.7533 13.42 19.98 13.1334 20.0666 12.7867C20.16 12.44 20.1066 12.08 19.9266 11.7734L19.8266 11.6C20.08 11.2667 20.2933 10.9 20.4466 10.5334H20.6666C21.4 10.5334 22 9.93335 22 9.20002V8.16669C22 7.43335 21.4 6.83335 20.6666 6.83335H20.4466C20.2866 6.45335 20.08 6.09335 19.8333 5.76669L19.9266 5.60669C20.1066 5.30002 20.16 4.94002 20.0666 4.59335C19.9733 4.24669 19.7533 3.95335 19.4466 3.78002L18.5466 3.26002C17.9133 2.89335 17.1 3.11335 16.7333 3.73335L16.6266 3.91335C16.2133 3.86002 15.7933 3.86002 15.38 3.91335L15.2733 3.72669C14.9066 3.10002 14.0866 2.88002 13.4533 3.24669L12.5533 3.76669C12.2466 3.94669 12.02 4.23335 11.9333 4.58002C11.84 4.92669 11.8933 5.28669 12.0733 5.59335L12.1733 5.76669C11.92 6.09335 11.7133 6.45335 11.5533 6.83335H11.3333C10.6 6.83335 9.99996 7.43335 9.99996 8.16669V9.20002C9.99996 9.93335 10.6 10.5334 11.3333 10.5334H11.5533C11.7133 10.9134 11.92 11.2734 12.1666 11.6L12.1733 11.5867ZM11.3333 8.14669H12.0266C12.34 8.14669 12.6 7.93335 12.6733 7.64669C12.8266 7.14002 13.1066 6.66669 13.4733 6.27335C13.6533 6.08002 13.7066 5.79335 13.6 5.55335C13.5866 5.52669 13.5733 5.49335 13.5533 5.46669L13.22 4.90002L14.12 4.38002L14.46 4.96669C14.6066 5.22002 14.9066 5.34669 15.1866 5.28002C15.7133 5.15335 16.2733 5.15335 16.8 5.28002C17.0866 5.34669 17.38 5.22002 17.5266 4.97335L17.8666 4.39335L18.7666 4.91335L18.4333 5.48002C18.28 5.73335 18.32 6.06002 18.52 6.27335C18.8933 6.67335 19.1733 7.15335 19.3266 7.67335C19.4133 7.95335 19.6733 8.15335 19.9666 8.15335H20.66V9.18669C19.7 9.18669 19.5266 9.18669 19.3533 9.60002C19.3466 9.62002 19.34 9.64002 19.3333 9.66669C19.18 10.1867 18.9 10.6667 18.5266 11.0667C18.3266 11.28 18.2866 11.6067 18.44 11.86L18.78 12.44L17.88 12.96L17.5333 12.3734C17.4133 12.1667 17.1933 12.0467 16.96 12.0467C16.9066 12.0467 16.86 12.0467 16.8066 12.0667C16.28 12.1934 15.72 12.1934 15.1933 12.0667C14.9133 12 14.6133 12.1267 14.4666 12.3734L14.1266 12.9534L13.2266 12.4334C13.3733 12.18 13.5266 11.9267 13.5533 11.88C13.5733 11.8534 13.5866 11.82 13.6 11.7934C13.7066 11.5467 13.6533 11.2667 13.4733 11.0734C13.1 10.68 12.82 10.1934 12.6666 9.68002C12.58 9.40002 12.32 9.20002 12.0266 9.20002H11.3333V8.14669Z" fill="black" fill-opacity="0.72"/>
<path d="M16 11.3334C17.4733 11.3334 18.6666 10.14 18.6666 8.66669C18.6666 7.19335 17.4733 6.00002 16 6.00002C14.5266 6.00002 13.3333 7.19335 13.3333 8.66669C13.3333 10.14 14.5266 11.3334 16 11.3334ZM16 7.33335C16.7333 7.33335 17.3333 7.93335 17.3333 8.66669C17.3333 9.40002 16.7333 10 16 10C15.2666 10 14.6666 9.40002 14.6666 8.66669C14.6666 7.93335 15.2666 7.33335 16 7.33335Z" fill="black" fill-opacity="0.72"/>
<path d="M4.66663 21.3334C4.29996 21.3334 3.99996 21.0334 3.99996 20.6667V12C3.99996 10.5267 5.19329 9.33335 6.66663 9.33335H7.33329V12.6667C7.33329 13.7667 8.23329 14.6667 9.33329 14.6667H9.99996C10.3666 14.6667 10.6666 14.3667 10.6666 14C10.6666 13.6334 10.3666 13.3334 9.99996 13.3334H9.33329C8.96663 13.3334 8.66663 13.0334 8.66663 12.6667V4.66669C8.66663 4.30002 8.96663 4.00002 9.33329 4.00002H9.99996C10.3666 4.00002 10.6666 3.70002 10.6666 3.33335C10.6666 2.96669 10.3666 2.66669 9.99996 2.66669H9.33329C8.23329 2.66669 7.33329 3.56669 7.33329 4.66669V8.00002H6.66663C4.45996 8.00002 2.66663 9.79335 2.66663 12V20.6667C2.66663 21.7667 3.56663 22.6667 4.66663 22.6667C5.03329 22.6667 5.33329 22.3667 5.33329 22C5.33329 21.6334 5.03329 21.3334 4.66663 21.3334Z" fill="black" fill-opacity="0.72"/>
<path d="M25.3333 8.00002H24.6666V4.66669C24.6666 3.56669 23.7666 2.66669 22.6666 2.66669H22C21.6333 2.66669 21.3333 2.96669 21.3333 3.33335C21.3333 3.70002 21.6333 4.00002 22 4.00002H22.6666C23.0333 4.00002 23.3333 4.30002 23.3333 4.66669V12.6667C23.3333 13.0334 23.0333 13.3334 22.6666 13.3334H22C21.6333 13.3334 21.3333 13.6334 21.3333 14C21.3333 14.3667 21.6333 14.6667 22 14.6667H22.6666C23.7666 14.6667 24.6666 13.7667 24.6666 12.6667V9.33335H25.3333C26.8066 9.33335 28 10.5267 28 12V20.6667C28 21.0334 27.7 21.3334 27.3333 21.3334C26.9666 21.3334 26.6666 21.6334 26.6666 22C26.6666 22.3667 26.9666 22.6667 27.3333 22.6667C28.4333 22.6667 29.3333 21.7667 29.3333 20.6667V12C29.3333 9.79335 27.54 8.00002 25.3333 8.00002Z" fill="black" fill-opacity="0.72"/>
</g>
</g>
</svg>
