<svg width="32" height="32" viewBox="0 0 32 32" fill="none" xmlns="http://www.w3.org/2000/svg">
<g id="illustrative / md / low-md">
<g id="icon">
<path d="M24 4.66669H8.00002C6.16002 4.66669 4.66669 6.16002 4.66669 8.00002V24C4.66669 25.84 6.16002 27.3334 8.00002 27.3334H24C25.84 27.3334 27.3334 25.84 27.3334 24V8.00002C27.3334 6.16002 25.84 4.66669 24 4.66669ZM26 24C26 25.1 25.1 26 24 26H8.00002C6.90002 26 6.00002 25.1 6.00002 24V8.00002C6.00002 6.90002 6.90002 6.00002 8.00002 6.00002H24C25.1 6.00002 26 6.90002 26 8.00002V24Z" fill="black" fill-opacity="0.72"/>
<path d="M20.2734 14.64L16 16.78L11.7267 14.64C11.4 14.4734 11 14.6067 10.8334 14.94C10.6667 15.2734 10.8 15.6667 11.1334 15.8334L15.7067 18.12C15.8 18.1667 15.9 18.1934 16.0067 18.1934C16.1134 18.1934 16.2134 18.1667 16.3067 18.12L20.88 15.8334C21.2067 15.6667 21.34 15.2667 21.18 14.94C21.0134 14.6134 20.6134 14.48 20.2867 14.64H20.2734Z" fill="black" fill-opacity="0.72"/>
</g>
</g>
</svg>
