<svg width="32" height="32" viewBox="0 0 32 32" fill="none" xmlns="http://www.w3.org/2000/svg">
<g id="illustrative / md / no-commission-md">
<g id="icon">
<path d="M24.165 15.6933C24.0784 15.54 24.0317 15.3666 24.0317 15.1933L24.0117 13.5066C23.9984 12.68 23.5517 11.9066 22.845 11.4866L21.3917 10.6266C21.2384 10.54 21.1117 10.4066 21.025 10.26L20.165 8.80665C19.745 8.09998 18.9717 7.64665 18.145 7.63998L16.4517 7.61998C16.2784 7.61998 16.105 7.57331 15.9517 7.48665L14.4784 6.65998C13.7584 6.25331 12.865 6.25331 12.145 6.65998L10.6717 7.48665C10.5184 7.57331 10.345 7.61998 10.1717 7.61998L8.48504 7.63998C7.65837 7.65331 6.88504 8.09998 6.46504 8.80665L5.60504 10.26C5.51837 10.4133 5.38504 10.54 5.23837 10.6266L3.78504 11.4866C3.07837 11.9066 2.62504 12.68 2.61837 13.5066L2.59837 15.2C2.59837 15.3733 2.55171 15.5466 2.46504 15.7L1.63837 17.1733C1.23171 17.8933 1.23171 18.7866 1.63837 19.5066L2.46504 20.98C2.55171 21.1333 2.59837 21.3066 2.59837 21.48L2.61837 23.1666C2.63171 23.9933 3.07837 24.7666 3.78504 25.1866L5.23837 26.0466C5.39171 26.1333 5.51837 26.2666 5.60504 26.4133L6.46504 27.8666C6.88504 28.5733 7.65837 29.0266 8.48504 29.0333L10.1784 29.0533C10.3517 29.0533 10.525 29.1 10.6784 29.1866L12.1517 30.0133C12.5117 30.2133 12.9184 30.3133 13.3184 30.3133C13.7184 30.3133 14.125 30.2133 14.485 30.0133L15.9584 29.1866C16.1117 29.1 16.285 29.0533 16.4584 29.0533L18.145 29.0333C18.9717 29.02 19.745 28.5733 20.165 27.8666L21.025 26.4133C21.1117 26.26 21.245 26.1333 21.3917 26.0466L22.845 25.1866C23.5517 24.7666 24.005 23.9933 24.0117 23.1666L24.0317 21.4733C24.0317 21.3 24.0784 21.1266 24.165 20.9733L24.9917 19.5C25.3984 18.78 25.3984 17.8866 24.9917 17.1666L24.165 15.6933ZM23.8317 18.8533L23.005 20.3266C22.8117 20.6733 22.705 21.0666 22.6984 21.4666L22.6784 23.1533C22.6784 23.52 22.4784 23.86 22.165 24.0466L20.7117 24.9066C20.3717 25.1066 20.0784 25.4 19.8784 25.74L19.0184 27.1933C18.8317 27.5066 18.4917 27.7066 18.125 27.7066L16.4384 27.7266C16.0384 27.7266 15.645 27.84 15.2984 28.0333L13.825 28.86C13.505 29.04 13.1117 29.04 12.7917 28.86L11.3184 28.0333C10.9717 27.84 10.5784 27.7333 10.1784 27.7266L8.49171 27.7066C8.12504 27.7066 7.78504 27.5066 7.59837 27.1933L6.73837 25.74C6.53837 25.4 6.24504 25.1066 5.90504 24.9066L4.45171 24.0466C4.13837 23.86 3.93837 23.52 3.93837 23.1533L3.91837 21.4666C3.91837 21.0666 3.80504 20.6733 3.61171 20.3266L2.78504 18.8533C2.60504 18.5333 2.60504 18.14 2.78504 17.82L3.61171 16.3466C3.80504 16 3.91171 15.6066 3.91837 15.2066L3.93837 13.52C3.93837 13.1533 4.13837 12.8133 4.45171 12.6266L5.90504 11.7666C6.24504 11.5666 6.53837 11.2733 6.73837 10.9333L7.59837 9.47998C7.78504 9.16665 8.12504 8.96665 8.49171 8.96665L10.1784 8.94665C10.5784 8.94665 10.9717 8.83331 11.3184 8.63998L12.7917 7.81331C12.9517 7.72665 13.1317 7.67998 13.305 7.67998C13.4784 7.67998 13.665 7.72665 13.8184 7.81331L15.2917 8.63998C15.6384 8.83331 16.0317 8.93998 16.4317 8.94665L18.1184 8.96665C18.485 8.96665 18.825 9.16665 19.0117 9.47998L19.8717 10.9333C20.0717 11.2733 20.365 11.5666 20.705 11.7666L22.1584 12.6266C22.4717 12.8133 22.6717 13.1533 22.6717 13.52L22.6917 15.2066C22.6917 15.6066 22.805 16 22.9984 16.3466L23.825 17.82C24.005 18.14 24.005 18.5333 23.825 18.8533H23.8317Z" fill="black" fill-opacity="0.72"/>
<path d="M17.2317 13.46L8.43171 22.26C8.17171 22.52 8.17171 22.94 8.43171 23.2C8.56504 23.3333 8.73171 23.3933 8.90504 23.3933C9.07837 23.3933 9.24504 23.3266 9.37837 23.2L18.1784 14.4C18.4384 14.14 18.4384 13.72 18.1784 13.46C17.9184 13.2 17.4984 13.2 17.2384 13.46H17.2317Z" fill="black" fill-opacity="0.72"/>
<path d="M16.2384 19.1333C15.065 19.1333 14.105 20.0933 14.105 21.2666C14.105 22.44 15.065 23.4 16.2384 23.4C17.4117 23.4 18.3717 22.44 18.3717 21.2666C18.3717 20.0933 17.4117 19.1333 16.2384 19.1333ZM16.2384 22.0666C15.7984 22.0666 15.4384 21.7066 15.4384 21.2666C15.4384 20.8266 15.7984 20.4666 16.2384 20.4666C16.6784 20.4666 17.0384 20.8266 17.0384 21.2666C17.0384 21.7066 16.6784 22.0666 16.2384 22.0666Z" fill="black" fill-opacity="0.72"/>
<path d="M10.3717 17.5333C11.545 17.5333 12.505 16.5733 12.505 15.4C12.505 14.2266 11.545 13.2666 10.3717 13.2666C9.19837 13.2666 8.23837 14.2266 8.23837 15.4C8.23837 16.5733 9.19837 17.5333 10.3717 17.5333ZM10.3717 14.6C10.8117 14.6 11.1717 14.96 11.1717 15.4C11.1717 15.84 10.8117 16.2 10.3717 16.2C9.93171 16.2 9.57171 15.84 9.57171 15.4C9.57171 14.96 9.93171 14.6 10.3717 14.6Z" fill="black" fill-opacity="0.72"/>
<path d="M25.9717 1.33331C23.585 1.33331 21.6384 3.27998 21.6384 5.66665C21.6384 8.05331 23.585 9.99998 25.9717 9.99998C28.3584 9.99998 30.305 8.05331 30.305 5.66665C30.305 3.27998 28.3584 1.33331 25.9717 1.33331ZM25.9717 2.66665C26.5584 2.66665 27.0984 2.83998 27.565 3.13331L23.4384 7.25998C23.145 6.79998 22.9717 6.25331 22.9717 5.66665C22.9717 4.01331 24.3184 2.66665 25.9717 2.66665ZM25.9717 8.66665C25.385 8.66665 24.845 8.49331 24.3784 8.19998L28.505 4.07331C28.7984 4.53331 28.9717 5.07998 28.9717 5.66665C28.9717 7.31998 27.625 8.66665 25.9717 8.66665Z" fill="black" fill-opacity="0.72"/>
</g>
</g>
</svg>
