<svg width="32" height="32" viewBox="0 0 32 32" fill="none" xmlns="http://www.w3.org/2000/svg">
<g id="illustrative / md / instant-access-md">
<g id="icon">
<path d="M26 5.33331H5.99996C4.15996 5.33331 2.66663 6.82665 2.66663 8.66665V20C2.66663 21.84 4.15996 23.3333 5.99996 23.3333H15.3333V25.3333H12.6666C12.3 25.3333 12 25.6333 12 26C12 26.3666 12.3 26.6666 12.6666 26.6666H19.3333C19.7 26.6666 20 26.3666 20 26C20 25.6333 19.7 25.3333 19.3333 25.3333H16.6666V23.3333H26C27.84 23.3333 29.3333 21.84 29.3333 20V8.66665C29.3333 6.82665 27.84 5.33331 26 5.33331ZM28 20C28 21.1 27.1 22 26 22H5.99996C4.89996 22 3.99996 21.1 3.99996 20V8.66665C3.99996 7.56665 4.89996 6.66665 5.99996 6.66665H26C27.1 6.66665 28 7.56665 28 8.66665V20Z" fill="black" fill-opacity="0.72"/>
<path d="M26 16.6666C26 16.3 25.7 16 25.3333 16H23.3333C23.2533 16 23.1733 16.02 23.1 16.0466C23.08 16.0533 23.06 16.0666 23.0333 16.08C22.98 16.1066 22.94 16.1333 22.8933 16.1733C22.8733 16.1866 22.86 16.2 22.84 16.22C22.7933 16.2733 22.7533 16.3266 22.72 16.3933C22.72 16.3933 22.7133 16.4066 22.7066 16.4133C22.6733 16.4866 22.6666 16.5666 22.66 16.6466C22.66 16.6533 22.66 16.66 22.66 16.6733V18.6733C22.66 19.04 22.96 19.34 23.3266 19.34C23.6933 19.34 23.9933 19.04 23.9933 18.6733V18.28L24.8533 19.14C24.9866 19.2733 25.1533 19.3333 25.3266 19.3333C25.5 19.3333 25.6666 19.2666 25.8 19.14C26.06 18.88 26.06 18.46 25.8 18.2L24.94 17.34H25.3333C25.7 17.34 26 17.04 26 16.6733V16.6666Z" fill="black" fill-opacity="0.72"/>
<path d="M22.6666 13.3333V14C22.6666 14.3666 22.9666 14.6666 23.3333 14.6666C23.7 14.6666 24 14.3666 24 14V13.3333C24 12.9666 23.7 12.6666 23.3333 12.6666C22.9666 12.6666 22.6666 12.9666 22.6666 13.3333Z" fill="black" fill-opacity="0.72"/>
<path d="M21.14 13.5266C20.88 13.2666 20.46 13.2666 20.2 13.5266C19.94 13.7866 19.94 14.2066 20.2 14.4666L20.8666 15.1333C21 15.2666 21.1666 15.3266 21.34 15.3266C21.5133 15.3266 21.68 15.26 21.8133 15.1333C22.0733 14.8733 22.0733 14.4533 21.8133 14.1933L21.1466 13.5266H21.14Z" fill="black" fill-opacity="0.72"/>
<path d="M20.6666 16H20C19.6333 16 19.3333 16.3 19.3333 16.6666C19.3333 17.0333 19.6333 17.3333 20 17.3333H20.6666C21.0333 17.3333 21.3333 17.0333 21.3333 16.6666C21.3333 16.3 21.0333 16 20.6666 16Z" fill="black" fill-opacity="0.72"/>
<path d="M20.94 11.3333L22.6666 9.60665L23.5266 10.4666C23.7866 10.7266 24.2066 10.7266 24.4666 10.4666C24.7266 10.2066 24.7266 9.78665 24.4666 9.52665L23.6066 8.66665C23.0866 8.14665 22.24 8.14665 21.72 8.66665L19.9933 10.3933L19.6 9.99998C19.08 9.47998 18.2333 9.47998 17.7133 9.99998L9.31996 18.3933L7.79329 16.8666C7.53329 16.6066 7.11329 16.6066 6.85329 16.8666C6.59329 17.1266 6.59329 17.5466 6.85329 17.8066L8.37996 19.3333C8.63329 19.5866 8.96663 19.7266 9.31996 19.7266C9.67329 19.7266 10.0133 19.5866 10.26 19.3333L18.6533 10.94L19.0466 11.3333C19.5533 11.84 20.4266 11.84 20.9333 11.3333H20.94Z" fill="black" fill-opacity="0.72"/>
</g>
</g>
</svg>
