<svg width="32" height="32" viewBox="0 0 32 32" fill="none" xmlns="http://www.w3.org/2000/svg">
<g id="illustrative / md / minimal-capital-md">
<g id="icon">
<path d="M10.6666 20C11.0333 20 11.3333 19.7 11.3333 19.3334C11.3333 18.9667 11.0333 18.6667 10.6666 18.6667H9.33331V18C9.33331 17.6334 9.03331 17.3334 8.66665 17.3334C8.29998 17.3334 7.99998 17.6334 7.99998 18V18.6667H7.33331C6.59998 18.6667 5.99998 19.2667 5.99998 20V21.3334C5.99998 22.0667 6.59998 22.6667 7.33331 22.6667H9.99998V24H6.66665C6.29998 24 5.99998 24.3 5.99998 24.6667C5.99998 25.0334 6.29998 25.3334 6.66665 25.3334H7.99998V26C7.99998 26.3667 8.29998 26.6667 8.66665 26.6667C9.03331 26.6667 9.33331 26.3667 9.33331 26V25.3334H9.99998C10.7333 25.3334 11.3333 24.7334 11.3333 24V22.6667C11.3333 21.9334 10.7333 21.3334 9.99998 21.3334H7.33331V20H10.6666Z" fill="black" fill-opacity="0.72"/>
<path d="M8.66665 14.6667C4.61998 14.6667 1.33331 17.9534 1.33331 22C1.33331 26.0467 4.61998 29.3334 8.66665 29.3334C12.7133 29.3334 16 26.0467 16 22C16 17.9534 12.7133 14.6667 8.66665 14.6667ZM8.66665 28C5.35998 28 2.66665 25.3067 2.66665 22C2.66665 18.6934 5.35998 16 8.66665 16C11.9733 16 14.6666 18.6934 14.6666 22C14.6666 25.3067 11.9733 28 8.66665 28Z" fill="black" fill-opacity="0.72"/>
<path d="M13.3333 12C12.6 12 11.8666 12.0934 11.1533 12.2734C10.7933 12.3667 10.58 12.7267 10.6733 13.0867C10.7666 13.4467 11.1266 13.66 11.4866 13.5667C12.0866 13.4134 12.7066 13.3334 13.3333 13.3334C17.38 13.3334 20.6666 16.62 20.6666 20.6667C20.6666 23.9 18.5933 26.7134 15.5133 27.6667C15.16 27.7734 14.9666 28.1467 15.0733 28.5C15.16 28.7867 15.4266 28.9667 15.7133 28.9667C15.78 28.9667 15.8466 28.96 15.9133 28.94C19.5533 27.8067 22 24.48 22 20.66C22 15.88 18.1133 11.9934 13.3333 11.9934V12Z" fill="black" fill-opacity="0.72"/>
<path d="M20.3333 8.66669C18.8266 8.66669 17.3666 8.98669 16.0066 9.61335C15.6733 9.76669 15.5266 10.1667 15.68 10.5C15.8333 10.8334 16.2266 10.98 16.5666 10.8267C17.7533 10.28 19.0133 10.0067 20.3333 10.0067C25.2933 10.0067 29.3333 14.0467 29.3333 19.0067C29.3333 23.9667 25.6066 27.7267 20.8466 27.9934C20.48 28.0134 20.2 28.3267 20.22 28.6934C20.24 29.0467 20.5333 29.32 20.8866 29.32C20.9 29.32 20.9133 29.32 20.9266 29.32C26.3933 29.0134 30.6733 24.4867 30.6733 19C30.6733 13.5134 26.04 8.66669 20.34 8.66669H20.3333Z" fill="black" fill-opacity="0.72"/>
<path d="M3.33331 13.3334C3.50665 13.3334 3.67331 13.2667 3.80665 13.14L7.33331 9.61335L8.19331 10.4734C8.45331 10.7334 8.87331 10.7334 9.13331 10.4734L12.66 6.94669L13.52 7.80669C13.78 8.06669 14.2 8.06669 14.46 7.80669L17.3666 4.90002C17.46 5.15335 17.7 5.34002 17.9866 5.34002C18.3533 5.34002 18.6533 5.04002 18.6533 4.67335V3.34002C18.6533 3.34002 18.6533 3.32669 18.6533 3.31335C18.6533 3.23335 18.64 3.16002 18.6066 3.08002C18.6066 3.08002 18.6 3.06669 18.5933 3.06002C18.5666 2.99335 18.52 2.93335 18.4733 2.88669C18.46 2.86669 18.44 2.85335 18.42 2.84002C18.38 2.80002 18.3333 2.77335 18.28 2.74669C18.26 2.73335 18.24 2.72669 18.2133 2.71335C18.14 2.68669 18.06 2.66669 17.98 2.66669H16.6466C16.28 2.66669 15.98 2.96669 15.98 3.33335C15.98 3.62002 16.16 3.86002 16.4133 3.96002L13.98 6.39335L13.12 5.53335C12.86 5.27335 12.44 5.27335 12.18 5.53335L8.65331 9.06002L7.79331 8.20002C7.53331 7.94002 7.11331 7.94002 6.85331 8.20002L2.85331 12.2C2.59331 12.46 2.59331 12.88 2.85331 13.14C2.98665 13.2734 3.15331 13.3334 3.32665 13.3334H3.33331Z" fill="black" fill-opacity="0.72"/>
</g>
</g>
</svg>
