<svg width="32" height="32" viewBox="0 0 32 32" fill="none" xmlns="http://www.w3.org/2000/svg">
<g id="illustrative / md / fast-execution -md">
<g id="icon">
<path d="M18.3269 16.6533V17.9867C18.3269 18.72 17.7335 19.32 16.9935 19.32H16.3269V19.9867C16.3269 20.3533 16.0335 20.6533 15.6602 20.6533C15.2869 20.6533 14.9935 20.3533 14.9935 19.9867V19.32H13.6602C13.2935 19.32 12.9935 19.02 12.9935 18.6533C12.9935 18.2867 13.2935 17.9867 13.6602 17.9867H16.9935V16.6533H14.3269C13.5935 16.6533 12.9935 16.0533 12.9935 15.32V13.9867C12.9935 13.2533 13.5935 12.6533 14.3269 12.6533H14.9935V11.9867C14.9935 11.62 15.2935 11.32 15.6602 11.32C16.0269 11.32 16.3269 11.62 16.3269 11.9867V13.32C16.3269 13.6867 16.0335 13.9867 15.6602 13.9867H14.3269V15.32H16.9935C17.7335 15.32 18.3269 15.92 18.3269 16.6533Z" fill="black" fill-opacity="0.72"/>
<path d="M18.3269 13.32C18.3269 13.6867 18.0335 13.9867 17.6602 13.9867H15.6602C16.0335 13.9867 16.3269 13.6867 16.3269 13.32V12.6533H17.6602C18.0335 12.6533 18.3269 12.9533 18.3269 13.32Z" fill="black" fill-opacity="0.72"/>
<path d="M10.0468 20.2665C9.82682 20.2665 9.61349 20.1598 9.48682 19.9598C9.38682 19.7998 9.29349 19.6465 9.20016 19.4798C9.02016 19.1598 9.13349 18.7532 9.45349 18.5732C9.77349 18.3932 10.1802 18.5065 10.3602 18.8265C10.4402 18.9665 10.5202 19.1065 10.6068 19.2398C10.8068 19.5532 10.7135 19.9598 10.4002 20.1598C10.2868 20.2332 10.1668 20.2665 10.0402 20.2665H10.0468Z" fill="black" fill-opacity="0.72"/>
<path d="M15.6335 28.64C13.1535 28.64 10.6535 27.9133 8.48685 26.4267C8.18019 26.22 8.10685 25.8067 8.31352 25.5C8.52019 25.1933 8.94019 25.12 9.24019 25.3267C13.7335 28.4067 19.8002 27.8467 23.6602 23.9867L26.9602 20.6867C27.2135 20.4333 27.6535 20.4333 27.9002 20.6867L28.6469 21.4333V16.1667H23.3802L24.1269 16.9133C24.3869 17.1733 24.3869 17.5933 24.1269 17.8533L20.8269 21.1533C18.3335 23.64 14.4135 24.0133 11.5069 22.0267C11.2002 21.82 11.1269 21.4067 11.3335 21.1C11.5402 20.7933 11.9535 20.72 12.2602 20.9267C14.6402 22.5533 17.8469 22.2533 19.8869 20.2133L22.7135 17.3867L22.4402 17.1133C22.0602 16.7333 21.9469 16.16 22.1535 15.66C22.3602 15.16 22.8469 14.8333 23.3869 14.8333H29.3202C29.6869 14.8333 29.9869 15.1333 29.9869 15.5V21.4333C29.9869 21.9733 29.6602 22.46 29.1602 22.6667C28.6602 22.8733 28.0869 22.76 27.7069 22.38L27.4335 22.1067L24.6069 24.9333C22.1535 27.3867 18.9069 28.6467 15.6402 28.6467L15.6335 28.64Z" fill="black" fill-opacity="0.72"/>
<path d="M6.66661 24.5999C6.47995 24.5999 6.29995 24.5265 6.16661 24.3732C5.65995 23.7999 5.21328 23.1999 4.83995 22.5865C4.64661 22.2732 4.74661 21.8599 5.06661 21.6732C5.37995 21.4865 5.79328 21.5799 5.97995 21.8999C6.30661 22.4399 6.70661 22.9799 7.15995 23.4865C7.40661 23.7599 7.37995 24.1799 7.10661 24.4265C6.97995 24.5399 6.81995 24.5932 6.66661 24.5932V24.5999Z" fill="black" fill-opacity="0.72"/>
<path d="M4.31341 20.5934C4.04007 20.5934 3.78007 20.4201 3.68007 20.1468C3.61341 19.9468 3.54674 19.7401 3.48674 19.5334C3.38007 19.1801 3.58007 18.8068 3.93341 18.7068C4.28674 18.6001 4.66007 18.8001 4.76007 19.1534C4.82007 19.3468 4.87341 19.5268 4.94007 19.7134C5.06007 20.0601 4.87341 20.4401 4.52674 20.5601C4.45341 20.5868 4.38007 20.5934 4.30674 20.5934H4.31341Z" fill="black" fill-opacity="0.72"/>
<path d="M21.5402 13.4934C21.3068 13.4934 21.0802 13.3734 20.9602 13.1534C20.8802 13.0134 20.8002 12.8734 20.7135 12.7334C20.5135 12.4201 20.6068 12.0134 20.9202 11.8134C21.2268 11.6134 21.6402 11.7067 21.8402 12.0201C21.9402 12.1734 22.0335 12.3334 22.1268 12.4934C22.3068 12.8134 22.1935 13.2201 21.8735 13.4001C21.7668 13.4601 21.6602 13.4867 21.5468 13.4867L21.5402 13.4934Z" fill="black" fill-opacity="0.72"/>
<path d="M7.93337 17.1468H2.00004C1.63337 17.1468 1.33337 16.8468 1.33337 16.4801V10.5468C1.33337 10.0068 1.66004 9.52014 2.16004 9.31348C2.66004 9.10681 3.23337 9.22014 3.61337 9.60014L3.88671 9.87348L6.71337 7.04681C9.26004 4.50014 12.7734 3.15348 16.36 3.35348C16.7267 3.37348 17.0067 3.68681 16.9867 4.05348C16.9667 4.42014 16.6467 4.69348 16.2867 4.68014C13.0734 4.50681 9.93337 5.70681 7.65337 7.98681L4.35337 11.2868C4.22671 11.4135 4.06004 11.4801 3.88004 11.4801C3.70004 11.4801 3.53337 11.4068 3.40671 11.2868L2.66004 10.5401V15.8068H7.92671L7.18004 15.0601C7.05337 14.9335 6.98671 14.7668 6.98671 14.5868C6.98671 14.4068 7.06004 14.2401 7.18004 14.1135L10.48 10.8135C12.9734 8.32014 16.8934 7.95348 19.8 9.94014C20.1067 10.1468 20.18 10.5601 19.9734 10.8668C19.7667 11.1735 19.3534 11.2468 19.0467 11.0401C16.6667 9.41348 13.46 9.71348 11.42 11.7535L8.59337 14.5801L8.86671 14.8535C9.24671 15.2335 9.36004 15.8068 9.15337 16.3068C8.94671 16.8068 8.46004 17.1335 7.92004 17.1335L7.93337 17.1468Z" fill="black" fill-opacity="0.72"/>
<path d="M19.6599 5.34651C19.5866 5.34651 19.5066 5.33317 19.4332 5.30651C19.2266 5.23317 19.0199 5.16651 18.8066 5.10651C18.4532 4.99984 18.2532 4.63317 18.3532 4.27984C18.4599 3.92651 18.8332 3.72651 19.1799 3.82651C19.4199 3.89984 19.6532 3.96651 19.8866 4.05317C20.2332 4.17984 20.4132 4.55984 20.2866 4.90651C20.1866 5.17984 19.9332 5.34651 19.6599 5.34651Z" fill="black" fill-opacity="0.72"/>
<path d="M25.9935 3.97331C23.6002 3.97331 21.6602 5.91331 21.6602 8.30664C21.6602 10.7 23.6002 12.64 25.9935 12.64C28.3869 12.64 30.3269 10.7 30.3269 8.30664C30.3269 5.91331 28.3869 3.97331 25.9935 3.97331ZM25.9935 11.3066C24.3402 11.3066 22.9935 9.95997 22.9935 8.30664C22.9935 6.65331 24.3402 5.30664 25.9935 5.30664C27.6469 5.30664 28.9935 6.65331 28.9935 8.30664C28.9935 9.95997 27.6469 11.3066 25.9935 11.3066Z" fill="black" fill-opacity="0.72"/>
<path d="M27.6602 8.30664C27.6602 8.67331 27.3669 8.97331 26.9935 8.97331H26.6602V9.30664C26.6602 9.67331 26.3669 9.97331 25.9935 9.97331C25.6202 9.97331 25.3269 9.67331 25.3269 9.30664V8.97331H24.9935C24.6269 8.97331 24.3269 8.67331 24.3269 8.30664C24.3269 7.93997 24.6269 7.63997 24.9935 7.63997H25.3269V7.30664C25.3269 6.93997 25.6269 6.63997 25.9935 6.63997C26.3602 6.63997 26.6602 6.93997 26.6602 7.30664V7.63997H26.9935C27.3669 7.63997 27.6602 7.93997 27.6602 8.30664Z" fill="black" fill-opacity="0.72"/>
</g>
</g>
</svg>
