<svg width="32" height="32" viewBox="0 0 32 32" fill="none" xmlns="http://www.w3.org/2000/svg">
<g id="illustrative / md / trading-24-7-md">
<g id="icon">
<path d="M20 10.6667H18.6667V10C18.6667 9.63333 18.3667 9.33333 18 9.33333C17.6333 9.33333 17.3333 9.63333 17.3333 10V10.6667H13.3333V10C13.3333 9.63333 13.0333 9.33333 12.6667 9.33333C12.3 9.33333 12 9.63333 12 10V10.6667H8V10C8 9.63333 7.7 9.33333 7.33333 9.33333C6.96667 9.33333 6.66667 9.63333 6.66667 10V10.6667H5.33333C3.49333 10.6667 2 12.16 2 14V26.6667C2 28.5067 3.49333 30 5.33333 30H20C21.84 30 23.3333 28.5067 23.3333 26.6667V14C23.3333 12.16 21.84 10.6667 20 10.6667ZM22 26.6667C22 27.7667 21.1 28.6667 20 28.6667H5.33333C4.23333 28.6667 3.33333 27.7667 3.33333 26.6667V14C3.33333 12.9 4.23333 12 5.33333 12H6.66667V12.6667C6.66667 13.0333 6.96667 13.3333 7.33333 13.3333C7.7 13.3333 8 13.0333 8 12.6667V12H12V12.6667C12 13.0333 12.3 13.3333 12.6667 13.3333C13.0333 13.3333 13.3333 13.0333 13.3333 12.6667V12H17.3333V12.6667C17.3333 13.0333 17.6333 13.3333 18 13.3333C18.3667 13.3333 18.6667 13.0333 18.6667 12.6667V12H20C21.1 12 22 12.9 22 14V26.6667Z" fill="black" fill-opacity="0.72"/>
<path d="M6.66667 18C7.03486 18 7.33333 17.7015 7.33333 17.3333C7.33333 16.9651 7.03486 16.6667 6.66667 16.6667C6.29848 16.6667 6 16.9651 6 17.3333C6 17.7015 6.29848 18 6.66667 18Z" fill="black" fill-opacity="0.72"/>
<path d="M10.6667 18C11.0349 18 11.3333 17.7015 11.3333 17.3333C11.3333 16.9651 11.0349 16.6667 10.6667 16.6667C10.2985 16.6667 10 16.9651 10 17.3333C10 17.7015 10.2985 18 10.6667 18Z" fill="black" fill-opacity="0.72"/>
<path d="M14.6667 18C15.0349 18 15.3333 17.7015 15.3333 17.3333C15.3333 16.9651 15.0349 16.6667 14.6667 16.6667C14.2985 16.6667 14 16.9651 14 17.3333C14 17.7015 14.2985 18 14.6667 18Z" fill="black" fill-opacity="0.72"/>
<path d="M18.6667 18C19.0349 18 19.3333 17.7015 19.3333 17.3333C19.3333 16.9651 19.0349 16.6667 18.6667 16.6667C18.2985 16.6667 18 16.9651 18 17.3333C18 17.7015 18.2985 18 18.6667 18Z" fill="black" fill-opacity="0.72"/>
<path d="M6.66667 22C7.03486 22 7.33333 21.7015 7.33333 21.3333C7.33333 20.9651 7.03486 20.6667 6.66667 20.6667C6.29848 20.6667 6 20.9651 6 21.3333C6 21.7015 6.29848 22 6.66667 22Z" fill="black" fill-opacity="0.72"/>
<path d="M10.6667 22C11.0349 22 11.3333 21.7015 11.3333 21.3333C11.3333 20.9651 11.0349 20.6667 10.6667 20.6667C10.2985 20.6667 10 20.9651 10 21.3333C10 21.7015 10.2985 22 10.6667 22Z" fill="black" fill-opacity="0.72"/>
<path d="M14.6667 22C15.0349 22 15.3333 21.7015 15.3333 21.3333C15.3333 20.9651 15.0349 20.6667 14.6667 20.6667C14.2985 20.6667 14 20.9651 14 21.3333C14 21.7015 14.2985 22 14.6667 22Z" fill="black" fill-opacity="0.72"/>
<path d="M18.6667 22C19.0349 22 19.3333 21.7015 19.3333 21.3333C19.3333 20.9651 19.0349 20.6667 18.6667 20.6667C18.2985 20.6667 18 20.9651 18 21.3333C18 21.7015 18.2985 22 18.6667 22Z" fill="black" fill-opacity="0.72"/>
<path d="M6.66667 26C7.03486 26 7.33333 25.7015 7.33333 25.3333C7.33333 24.9651 7.03486 24.6667 6.66667 24.6667C6.29848 24.6667 6 24.9651 6 25.3333C6 25.7015 6.29848 26 6.66667 26Z" fill="black" fill-opacity="0.72"/>
<path d="M10.6667 26C11.0349 26 11.3333 25.7015 11.3333 25.3333C11.3333 24.9651 11.0349 24.6667 10.6667 24.6667C10.2985 24.6667 10 24.9651 10 25.3333C10 25.7015 10.2985 26 10.6667 26Z" fill="black" fill-opacity="0.72"/>
<path d="M14.6667 26C15.0349 26 15.3333 25.7015 15.3333 25.3333C15.3333 24.9651 15.0349 24.6667 14.6667 24.6667C14.2985 24.6667 14 24.9651 14 25.3333C14 25.7015 14.2985 26 14.6667 26Z" fill="black" fill-opacity="0.72"/>
<path d="M18.6667 26C19.0349 26 19.3333 25.7015 19.3333 25.3333C19.3333 24.9651 19.0349 24.6667 18.6667 24.6667C18.2985 24.6667 18 24.9651 18 25.3333C18 25.7015 18.2985 26 18.6667 26Z" fill="black" fill-opacity="0.72"/>
<path d="M27.2 5.34667L25.5333 5.68C25.3 5.72667 25.1067 5.89333 25.0333 6.12L24.7 7.12C24.5867 7.46667 24.7733 7.84667 25.12 7.96C25.1867 7.98667 25.26 7.99333 25.3333 7.99333C25.6133 7.99333 25.8733 7.82 25.9667 7.54L26.18 6.90667L27.4667 6.64667C27.8267 6.57333 28.06 6.22 27.9867 5.86C27.9133 5.5 27.56 5.26 27.2 5.34V5.34667Z" fill="black" fill-opacity="0.72"/>
<path d="M25.6667 2C23.28 2 21.3333 3.94667 21.3333 6.33333C21.3333 8.72 23.28 10.6667 25.6667 10.6667C28.0533 10.6667 30 8.72 30 6.33333C30 3.94667 28.0533 2 25.6667 2ZM25.6667 9.33333C24.0133 9.33333 22.6667 7.98667 22.6667 6.33333C22.6667 4.68 24.0133 3.33333 25.6667 3.33333C27.32 3.33333 28.6667 4.68 28.6667 6.33333C28.6667 7.98667 27.32 9.33333 25.6667 9.33333Z" fill="black" fill-opacity="0.72"/>
</g>
</g>
</svg>
