<svg width="32" height="32" viewBox="0 0 32 32" fill="none" xmlns="http://www.w3.org/2000/svg">
<g id="illustrative / md / marketing-md">
<g id="icon">
<path d="M16.8333 15.8117C16.5066 15.5584 16.0933 15.465 15.6866 15.5717L8.59329 17.345H6.00663C4.16663 17.345 2.67329 18.8384 2.67329 20.6784V21.345C2.67329 22.9517 3.81996 24.2984 5.33996 24.6117V27.345C5.33996 28.445 6.23996 29.345 7.33996 29.345C8.43996 29.345 9.33996 28.445 9.33996 27.345V24.865L15.6866 26.4517C15.7933 26.4784 15.9066 26.4917 16.0133 26.4917C16.3066 26.4917 16.5933 26.3917 16.8333 26.2117C17.16 25.9584 17.3466 25.5717 17.3466 25.1584V16.865C17.3466 16.4517 17.16 16.0717 16.8333 15.8117ZM4.01329 21.3384V20.6717C4.01329 19.5717 4.91329 18.6717 6.01329 18.6717H8.01329V23.3384H6.01329C4.91329 23.3384 4.01329 22.4384 4.01329 21.3384ZM7.34663 28.005C6.97996 28.005 6.67996 27.705 6.67996 27.3384V24.6717H8.01329V27.3384C8.01329 27.705 7.71329 28.005 7.34663 28.005ZM16.0133 25.1517L9.34663 23.485V18.525L16.0133 16.8584V25.1517Z" fill="black" fill-opacity="0.72"/>
<path d="M26.68 2.67169H17.3466C16.2466 2.67169 15.3466 3.57169 15.3466 4.67169V10.005C15.3466 11.105 16.2466 12.005 17.3466 12.005H22.32V13.3384C22.32 13.5984 22.4733 13.8317 22.7066 13.945C22.7933 13.985 22.8933 14.005 22.9866 14.005C23.14 14.005 23.2933 13.9517 23.42 13.845L25.5933 12.005H26.68C27.78 12.005 28.68 11.105 28.68 10.005V4.67169C28.68 3.57169 27.78 2.67169 26.68 2.67169ZM27.3466 10.005C27.3466 10.3717 27.0466 10.6717 26.68 10.6717H25.3466C25.1866 10.6717 25.0333 10.725 24.9133 10.8317L23.6533 11.8984V11.3384C23.6533 10.9717 23.3533 10.6717 22.9866 10.6717H17.3466C16.98 10.6717 16.68 10.3717 16.68 10.005V4.67169C16.68 4.30502 16.98 4.00502 17.3466 4.00502H26.68C27.0466 4.00502 27.3466 4.30502 27.3466 4.67169V10.005Z" fill="black" fill-opacity="0.72"/>
<path d="M19.3466 8.00502C19.7148 8.00502 20.0133 7.70654 20.0133 7.33835C20.0133 6.97016 19.7148 6.67169 19.3466 6.67169C18.9784 6.67169 18.68 6.97016 18.68 7.33835C18.68 7.70654 18.9784 8.00502 19.3466 8.00502Z" fill="black" fill-opacity="0.72"/>
<path d="M22.0133 8.00502C22.3815 8.00502 22.68 7.70654 22.68 7.33835C22.68 6.97016 22.3815 6.67169 22.0133 6.67169C21.6451 6.67169 21.3466 6.97016 21.3466 7.33835C21.3466 7.70654 21.6451 8.00502 22.0133 8.00502Z" fill="black" fill-opacity="0.72"/>
<path d="M24.68 8.00502C25.0482 8.00502 25.3466 7.70654 25.3466 7.33835C25.3466 6.97016 25.0482 6.67169 24.68 6.67169C24.3118 6.67169 24.0133 6.97016 24.0133 7.33835C24.0133 7.70654 24.3118 8.00502 24.68 8.00502Z" fill="black" fill-opacity="0.72"/>
<path d="M20.4866 22.085C20.2266 21.825 19.8066 21.825 19.54 22.085C19.28 22.345 19.28 22.765 19.54 23.0317L20.0133 23.505C20.1466 23.6384 20.3133 23.6984 20.4866 23.6984C20.66 23.6984 20.8266 23.6317 20.96 23.505C21.22 23.245 21.22 22.825 20.96 22.565L20.4866 22.0917V22.085Z" fill="black" fill-opacity="0.72"/>
<path d="M21.9 20.005H20.96C20.5933 20.005 20.2933 20.305 20.2933 20.6717C20.2933 21.0384 20.5933 21.3384 20.96 21.3384H21.9C22.2666 21.3384 22.5666 21.0384 22.5666 20.6717C22.5666 20.305 22.2666 20.005 21.9 20.005Z" fill="black" fill-opacity="0.72"/>
<path d="M20.0133 19.4517C20.1866 19.4517 20.3533 19.385 20.4866 19.2584L20.96 18.785C21.22 18.525 21.22 18.105 20.96 17.845C20.7 17.585 20.28 17.585 20.02 17.845L19.5466 18.3184C19.2866 18.5784 19.2866 19.005 19.5466 19.265C19.68 19.3917 19.8466 19.4584 20.02 19.4584L20.0133 19.4517Z" fill="black" fill-opacity="0.72"/>
<path d="M3.93329 11.6517C4.71329 12.4317 5.97996 12.4317 6.75996 11.6517L6.87329 11.5384C7.12663 11.285 7.56663 11.285 7.81329 11.5384L7.92663 11.6517C8.70663 12.4317 9.97329 12.4317 10.7533 11.6517L10.8666 11.5384C11.1266 11.2784 11.5466 11.2784 11.8066 11.5384L12.6666 12.3984V13.4584C12.6666 13.825 12.9666 14.125 13.3333 14.125C13.7 14.125 14 13.825 14 13.4584V4.78502C14 4.60502 13.9266 4.43835 13.8066 4.31169L12.7466 3.25169C11.9666 2.47169 10.7 2.47169 9.91996 3.25169L9.33329 3.83835L8.74663 3.25169C7.96663 2.47169 6.69996 2.47169 5.91996 3.25169L5.33329 3.83835L4.93996 3.44502C4.55996 3.06502 3.98663 2.94502 3.48663 3.15835C2.98663 3.36502 2.66663 3.85169 2.66663 4.39169V10.1184C2.66663 10.2984 2.73996 10.465 2.85996 10.5917L3.91996 11.6517H3.93329ZM4.01329 4.39835L4.40663 4.79169C4.91329 5.29835 5.78663 5.29835 6.29329 4.79169L6.87996 4.20502C7.13996 3.94502 7.55996 3.94502 7.81996 4.20502L8.40663 4.79169C8.92663 5.31169 9.77329 5.31169 10.2933 4.79169L10.88 4.20502C11.14 3.94502 11.56 3.94502 11.82 4.20502L12.68 5.06502V10.5184C11.92 9.83835 10.66 9.86502 9.93329 10.5984L9.81996 10.7117C9.55996 10.9717 9.13329 10.9717 8.87996 10.7117L8.76663 10.5984C8.38663 10.2184 7.88663 10.0117 7.35329 10.0117C6.81996 10.0117 6.31996 10.2184 5.93996 10.5984L5.82663 10.7117C5.56663 10.9717 5.13996 10.9717 4.88663 10.7117L4.02663 9.85169V4.39835H4.01329Z" fill="black" fill-opacity="0.72"/>
</g>
</g>
</svg>
