<svg width="32" height="32" viewBox="0 0 32 32" fill="none" xmlns="http://www.w3.org/2000/svg">
<g id="illustrative / md / deposit-and-withdrawal-md">
<g id="icon">
<path d="M18.6374 16.98C18.6374 16.2467 18.0374 15.6467 17.304 15.6467H14.6374V14.3133H17.9707C18.3374 14.3133 18.6374 14.0133 18.6374 13.6467C18.6374 13.28 18.3374 12.98 17.9707 12.98H16.6374V12.3133C16.6374 11.9467 16.3374 11.6467 15.9707 11.6467C15.604 11.6467 15.304 11.9467 15.304 12.3133V12.98H14.6374C13.904 12.98 13.304 13.58 13.304 14.3133V15.6467C13.304 16.38 13.904 16.98 14.6374 16.98H17.304V18.3133H13.9707C13.604 18.3133 13.304 18.6133 13.304 18.98C13.304 19.3467 13.604 19.6467 13.9707 19.6467H15.304V20.3133C15.304 20.68 15.604 20.98 15.9707 20.98C16.3374 20.98 16.6374 20.68 16.6374 20.3133V19.6467H17.304C18.0374 19.6467 18.6374 19.0467 18.6374 18.3133V16.98Z" fill="black" fill-opacity="0.72"/>
<path d="M19.4707 22.7733C19.6374 22.68 19.804 22.5867 19.9574 22.48C20.264 22.28 20.3574 21.8667 20.1574 21.56C19.9574 21.2533 19.544 21.16 19.2374 21.36C19.104 21.4467 18.9707 21.5267 18.8307 21.6C18.504 21.7733 18.3907 22.18 18.564 22.5067C18.684 22.7267 18.9107 22.8533 19.1507 22.8533C19.2574 22.8533 19.3707 22.8267 19.4707 22.7733Z" fill="black" fill-opacity="0.72"/>
<path d="M24.9307 7.37333L22.104 4.54667L22.3774 4.27333C22.7574 3.89333 22.8707 3.32 22.664 2.82C22.4574 2.32 21.9707 2 21.4307 2H15.4974C15.1307 2 14.8307 2.3 14.8307 2.66667V8.58667C14.8307 9.12667 15.1507 9.61333 15.6507 9.82C16.1507 10.0267 16.724 9.91333 17.104 9.53333L17.3774 9.26L20.204 12.0867C22.244 14.1267 22.544 17.3333 20.9174 19.7067C20.7107 20.0133 20.784 20.4267 21.0907 20.6333C21.3974 20.84 21.8107 20.76 22.0174 20.46C24.004 17.5533 23.6374 13.6333 21.144 11.14L17.844 7.84C17.584 7.58 17.164 7.58 16.904 7.84L16.1574 8.58667V3.32H21.424L20.6774 4.06667C20.4174 4.32667 20.4174 4.74667 20.6774 5.00667L23.9774 8.30667C27.8374 12.1667 28.404 18.2333 25.3174 22.7267C25.1107 23.0333 25.184 23.4467 25.4907 23.6533C25.604 23.7333 25.7374 23.7733 25.864 23.7733C26.0774 23.7733 26.284 23.6733 26.4174 23.4867C29.864 18.4667 29.2374 11.6867 24.924 7.37333H24.9307Z" fill="black" fill-opacity="0.72"/>
<path d="M23.4974 24.8067C22.9974 25.2467 22.464 25.6467 21.904 25.9933C21.5907 26.1867 21.4907 26.6 21.684 26.9133C21.8107 27.12 22.0307 27.2333 22.2507 27.2333C22.3707 27.2333 22.4907 27.2 22.5974 27.1333C23.224 26.7467 23.824 26.3 24.3774 25.8067C24.6507 25.56 24.6774 25.14 24.4307 24.8667C24.184 24.5933 23.764 24.5667 23.4907 24.8133L23.4974 24.8067Z" fill="black" fill-opacity="0.72"/>
<path d="M19.7107 27.0333C19.524 27.1 19.344 27.1533 19.1574 27.2133C18.804 27.3133 18.604 27.6867 18.704 28.04C18.7907 28.3333 19.0574 28.52 19.344 28.52C19.404 28.52 19.4707 28.5133 19.5307 28.4933C19.7374 28.4333 19.944 28.3667 20.1507 28.2933C20.4974 28.1733 20.684 27.7933 20.564 27.4467C20.444 27.1 20.064 26.9133 19.7174 27.0333H19.7107Z" fill="black" fill-opacity="0.72"/>
<path d="M12.504 9.85333C12.3374 9.94 12.1774 10.04 12.0174 10.14C11.7107 10.34 11.6174 10.7533 11.8174 11.06C11.944 11.26 12.1574 11.3667 12.3774 11.3667C12.504 11.3667 12.624 11.3333 12.7374 11.26C12.8707 11.1733 13.004 11.0933 13.144 11.02C13.464 10.8467 13.584 10.44 13.4107 10.1133C13.2374 9.78667 12.8307 9.67333 12.504 9.84667V9.85333Z" fill="black" fill-opacity="0.72"/>
<path d="M16.3174 22.8067C15.8174 22.6 15.244 22.7133 14.864 23.0933L14.5907 23.3667L11.764 20.54C9.72403 18.5 9.42403 15.2933 11.0507 12.92C11.2574 12.6133 11.184 12.2 10.8774 11.9933C10.5707 11.7867 10.1574 11.8667 9.9507 12.1667C7.96403 15.0733 8.3307 18.9933 10.824 21.4867L14.124 24.7867C14.384 25.0467 14.804 25.0467 15.064 24.7867L15.8107 24.04V29.3067H10.544L11.2907 28.56C11.5507 28.3 11.5507 27.88 11.2907 27.62L7.9907 24.32C4.1307 20.46 3.56403 14.3933 6.6507 9.9C6.85737 9.59333 6.78403 9.18 6.47737 8.97333C6.1707 8.76667 5.75737 8.84 5.5507 9.14667C2.10403 14.1733 2.7307 20.9467 7.04403 25.26L9.8707 28.0867L9.59737 28.36C9.21737 28.74 9.10403 29.3133 9.3107 29.8133C9.51737 30.3133 10.004 30.6333 10.544 30.6333H16.4774C16.844 30.6333 17.144 30.3333 17.144 29.9667V24.0333C17.144 23.4933 16.824 23.0067 16.324 22.8L16.3174 22.8067Z" fill="black" fill-opacity="0.72"/>
<path d="M8.04403 7.98667C8.20403 7.98667 8.35737 7.93333 8.48403 7.82C8.98403 7.38 9.51737 6.98 10.0774 6.63333C10.3907 6.44 10.4907 6.02667 10.2974 5.71333C10.104 5.4 9.6907 5.3 9.37737 5.49333C8.7507 5.88 8.1507 6.32667 7.5907 6.82C7.31737 7.06667 7.2907 7.48667 7.53737 7.76C7.6707 7.90667 7.8507 7.98667 8.03737 7.98667H8.04403Z" fill="black" fill-opacity="0.72"/>
<path d="M12.0507 5.63333C12.124 5.63333 12.1974 5.62 12.2707 5.59333C12.4574 5.52667 12.6374 5.47333 12.824 5.41333C13.1774 5.31333 13.3774 4.94 13.2774 4.58667C13.1774 4.23333 12.804 4.02667 12.4507 4.13333C12.244 4.19333 12.0374 4.26 11.8307 4.33333C11.484 4.45333 11.2974 4.83333 11.4174 5.18C11.5107 5.45333 11.7707 5.62667 12.044 5.62667L12.0507 5.63333Z" fill="black" fill-opacity="0.72"/>
</g>
</g>
</svg>
