<svg width="32" height="32" viewBox="0 0 32 32" fill="none" xmlns="http://www.w3.org/2000/svg">
<g id="illustrative / md / cryptocurrencies-md">
<g id="icon">
<path d="M15.9867 3.34668C9.01337 3.34668 3.33337 9.01335 3.33337 16C3.33337 22.9867 9.01337 28.6533 15.9867 28.6533C22.96 28.6533 28.6534 22.9733 28.6534 16C28.6534 9.02668 22.9734 3.34668 15.9867 3.34668ZM15.9867 27.3333C9.74671 27.3333 4.66671 22.2533 4.66671 16.0133C4.66671 9.77335 9.74671 4.68001 15.9867 4.68001C22.2267 4.68001 27.32 9.76001 27.32 16C27.32 22.24 22.24 27.32 15.9867 27.32V27.3333Z" fill="black" fill-opacity="0.72"/>
<path d="M19.4 15.88C19.7734 15.4267 20.0134 14.8533 20.0134 14.2267C20.0134 13.0267 19.1867 12.0133 18.08 11.72V9.33335C18.08 8.96001 17.7867 8.66668 17.4134 8.66668C17.04 8.66668 16.7467 8.96001 16.7467 9.33335V11.6267H15.4934V9.33335C15.4934 8.96001 15.2 8.66668 14.8267 8.66668C14.4534 8.66668 14.16 8.96001 14.16 9.33335V11.6267C13.08 11.6667 12.2267 12.5333 12.2267 13.6267V18.7067C12.2267 19.7867 13.0934 20.6667 14.16 20.7067V22.6667C14.16 23.04 14.4534 23.3333 14.8267 23.3333C15.2 23.3333 15.4934 23.04 15.4934 22.6667V20.7067H16.7467V22.6667C16.7467 23.04 17.04 23.3333 17.4134 23.3333C17.7867 23.3333 18.08 23.04 18.08 22.6667V20.7067C19.5067 20.7067 20.6667 19.5333 20.6667 18.1067C20.6667 17.16 20.16 16.3467 19.4134 15.8933L19.4 15.88ZM14.2267 12.9467H17.4134C18.12 12.9467 18.68 13.52 18.68 14.2133C18.68 14.9067 18.1067 15.48 17.4134 15.48H13.56V13.6C13.56 13.2267 13.8534 12.9333 14.2267 12.9333V12.9467ZM18.0667 19.36H14.2267C13.8534 19.36 13.56 19.0667 13.56 18.6933V16.8133H18.0667C18.7734 16.8133 19.3334 17.3867 19.3334 18.08C19.3334 18.7733 18.76 19.3467 18.0667 19.3467V19.36Z" fill="black" fill-opacity="0.72"/>
</g>
</g>
</svg>
