<svg width="32" height="32" viewBox="0 0 32 32" fill="none" xmlns="http://www.w3.org/2000/svg">
<g id="illustrative / md / extended-time-md">
<g id="icon">
<path d="M4 16C4.36667 16 4.66667 15.7 4.66667 15.3333C4.66667 14.9667 4.36667 14.6667 4 14.6667C2.9 14.6667 2 15.5667 2 16.6667V20.6667C2 21.7667 2.9 22.6667 4 22.6667C4.36667 22.6667 4.66667 22.3667 4.66667 22C4.66667 21.6333 4.36667 21.3333 4 21.3333C3.63333 21.3333 3.33333 21.0333 3.33333 20.6667V16.6667C3.33333 16.3 3.63333 16 4 16Z" fill="black" fill-opacity="0.72"/>
<path d="M22.5533 13.74C22.1867 13.74 21.8867 14.04 21.8867 14.4067C21.8867 14.7733 22.1867 15.0733 22.5533 15.0733C22.92 15.0733 23.22 15.3733 23.22 15.74V19.74C23.22 20.1067 22.92 20.4067 22.5533 20.4067C22.1867 20.4067 21.8867 20.7067 21.8867 21.0733C21.8867 21.44 22.1867 21.74 22.5533 21.74C23.6533 21.74 24.5533 20.84 24.5533 19.74V15.74C24.5533 14.64 23.6533 13.74 22.5533 13.74Z" fill="black" fill-opacity="0.72"/>
<path d="M16.94 6.66667H9.60667C8.50667 6.66667 7.60667 7.56667 7.60667 8.66667V14.5533C7.60667 15.5933 8.1 16.5867 8.93333 17.2133L10.8333 18.6467L9.01333 19.94C8.13333 20.5667 7.60667 21.58 7.60667 22.66V28.6667C7.60667 29.7667 8.50667 30.6667 9.60667 30.6667H16.94C18.04 30.6667 18.94 29.7667 18.94 28.6667V22.6733C18.94 21.6 18.42 20.5867 17.5467 19.96L15.7133 18.6467L17.6133 17.2133C18.44 16.5867 18.94 15.5933 18.94 14.5533V8.66667C18.94 7.56667 18.04 6.66667 16.94 6.66667ZM9.86 29.3333L12.8 26.32C12.9267 26.1933 13.0933 26.12 13.28 26.12C13.46 26.12 13.6333 26.1933 13.7533 26.32L16.6933 29.3333H9.86ZM17.6133 14.5533C17.6133 15.18 17.3133 15.7733 16.82 16.1467L14.92 17.58C14.58 17.84 14.3867 18.2333 14.3933 18.66C14.3933 19.0867 14.6 19.48 14.9533 19.7267L16.7867 21.04C17.3067 21.4133 17.62 22.02 17.62 22.6667V28.3533L14.72 25.38C14.34 24.9933 13.8333 24.7733 13.2867 24.7733C12.74 24.7733 12.2333 24.9867 11.8533 25.38L8.95333 28.3533V22.6533C8.95333 22.0067 9.26667 21.4 9.79333 21.02L11.6133 19.7267C11.96 19.48 12.1667 19.08 12.1733 18.66C12.1733 18.2333 11.98 17.8333 11.6467 17.58L9.74667 16.1467C9.24667 15.7733 8.95333 15.1733 8.95333 14.5533V8.66667C8.95333 8.3 9.25333 8 9.62 8H16.9533C17.32 8 17.62 8.3 17.62 8.66667V14.5533H17.6133Z" fill="black" fill-opacity="0.72"/>
<path d="M25.6667 2C23.2733 2 21.3333 3.94 21.3333 6.33333C21.3333 8.72667 23.2733 10.6667 25.6667 10.6667C28.06 10.6667 30 8.72667 30 6.33333C30 3.94 28.06 2 25.6667 2ZM25.6667 9.33333C24.0133 9.33333 22.6667 7.98667 22.6667 6.33333C22.6667 4.68 24.0133 3.33333 25.6667 3.33333C27.32 3.33333 28.6667 4.68 28.6667 6.33333C28.6667 7.98667 27.32 9.33333 25.6667 9.33333Z" fill="black" fill-opacity="0.72"/>
<path d="M26.6667 5.66667H26.3333V5.33333C26.3333 4.96667 26.0333 4.66667 25.6667 4.66667C25.3 4.66667 25 4.96667 25 5.33333V5.66667H24.6667C24.3 5.66667 24 5.96667 24 6.33333C24 6.7 24.3 7 24.6667 7H25V7.33333C25 7.7 25.3 8 25.6667 8C26.0333 8 26.3333 7.7 26.3333 7.33333V7H26.6667C27.0333 7 27.3333 6.7 27.3333 6.33333C27.3333 5.96667 27.0333 5.66667 26.6667 5.66667Z" fill="black" fill-opacity="0.72"/>
</g>
</g>
</svg>
