<svg width="32" height="32" viewBox="0 0 32 32" fill="none" xmlns="http://www.w3.org/2000/svg">
<g id="illustrative / md / multiple-assets-md">
<g id="icon">
<path d="M17.9701 17.32C18.2035 17.74 18.6501 18 19.1301 18H21.3501C21.8301 18 22.2768 17.74 22.5101 17.32L23.6368 15.32C23.8635 14.92 23.8635 14.42 23.6368 14.0133L22.5101 12.0133C22.2768 11.5933 21.8301 11.3333 21.3501 11.3333H19.1301C18.6501 11.3333 18.2035 11.5933 17.9701 12.0133L16.8435 14.0133C16.6168 14.4133 16.6168 14.9133 16.8435 15.32L16.9701 15.5467L15.4168 16.44L15.1701 16.0067C14.9368 15.5867 14.4901 15.3267 14.0101 15.3267H13.5635V13.3267H14.0101C14.4901 13.3267 14.9368 13.0667 15.1701 12.6467L16.2968 10.6467C16.5235 10.2467 16.5235 9.74667 16.2968 9.34L15.1701 7.34C14.9368 6.92 14.4901 6.66 14.0101 6.66H11.7901C11.3101 6.66 10.8635 6.92 10.6301 7.34L9.50346 9.34C9.27679 9.74 9.27679 10.24 9.50346 10.6467L10.6301 12.6467C10.8635 13.0667 11.3101 13.3267 11.7901 13.3267H12.2368V15.3267H11.7901C11.3101 15.3267 10.8635 15.5867 10.6301 16.0067L10.3901 16.44L8.83679 15.5467L8.96346 15.3133C9.19012 14.9133 9.19012 14.4133 8.96346 14.0067L7.83679 12.0067C7.60346 11.5867 7.15679 11.3267 6.67679 11.3267H4.45679C3.97679 11.3267 3.53012 11.5867 3.29679 12.0067L2.17012 14.0067C1.94346 14.4067 1.94346 14.9067 2.17012 15.3133L3.29679 17.3133C3.53012 17.7333 3.97679 17.9933 4.45679 17.9933H6.67679C7.15679 17.9933 7.60346 17.7333 7.83679 17.3133L8.17679 16.7067L9.73012 17.6L9.50346 18.0067C9.27679 18.4067 9.27679 18.9067 9.50346 19.3133L9.73012 19.72L7.89679 20.78L7.83679 20.6733C7.60346 20.2533 7.15679 19.9933 6.67679 19.9933H4.45679C3.97679 19.9933 3.53012 20.2533 3.29679 20.6733L2.17012 22.6733C1.94346 23.0733 1.94346 23.5733 2.17012 23.98L3.29679 25.98C3.53012 26.4 3.97679 26.66 4.45679 26.66H6.67679C7.15679 26.66 7.60346 26.4 7.83679 25.98L8.96346 23.98C9.19012 23.58 9.19012 23.08 8.96346 22.6733L8.55012 21.94L10.3835 20.88L10.6301 21.3133C10.8635 21.7333 11.3101 21.9933 11.7901 21.9933H12.2368V23.9933H11.7901C11.3101 23.9933 10.8635 24.2533 10.6301 24.6733L9.50346 26.6733C9.27679 27.0733 9.27679 27.5733 9.50346 27.98L10.6301 29.98C10.8635 30.4 11.3101 30.66 11.7901 30.66H14.0101C14.4901 30.66 14.9368 30.4 15.1701 29.98L16.2968 27.98C16.5235 27.58 16.5235 27.08 16.2968 26.6733L15.1701 24.6733C14.9368 24.2533 14.4901 23.9933 14.0101 23.9933H13.5635V21.9933H14.0101C14.4901 21.9933 14.9368 21.7333 15.1701 21.3133L15.4101 20.88L17.2435 21.94L16.8301 22.6733C16.6035 23.0733 16.6035 23.5733 16.8301 23.98L17.9568 25.98C18.1901 26.4 18.6368 26.66 19.1168 26.66H21.3368C21.8168 26.66 22.2635 26.4 22.4968 25.98L23.6235 23.98C23.8501 23.58 23.8501 23.08 23.6235 22.6733L22.4968 20.6733C22.2635 20.2533 21.8168 19.9933 21.3368 19.9933H19.1168C18.6368 19.9933 18.1901 20.2533 17.9568 20.6733L17.8968 20.78L16.0635 19.72L16.2901 19.3133C16.5168 18.9133 16.5168 18.4133 16.2901 18.0067L16.0635 17.6L17.6168 16.7067L17.9568 17.3133L17.9701 17.32ZM11.7968 12L10.6701 10L11.7968 8H14.0168L15.1435 10L14.0168 12H11.7968ZM4.46346 16.6667L3.33679 14.6667L4.46346 12.6667H6.68346L7.81012 14.6667L7.36346 15.46L6.69012 16.66H4.47012L4.46346 16.6667ZM6.68346 25.3333H4.46346L3.33679 23.3333L4.46346 21.3333H6.68346L7.07679 22.0333L7.81012 23.3333L6.68346 25.3333ZM15.1435 27.3333L14.0168 29.3333H11.7968L10.6701 27.3333L11.7968 25.3333H14.0168L15.1435 27.3333ZM21.3501 21.3333L22.4768 23.3333L21.3501 25.3333H19.1301L18.0035 23.3333L18.7368 22.0333L19.1301 21.3333H21.3501ZM11.7968 20.6667L10.6768 18.6733L11.8035 16.6733H14.0235L15.1435 18.6667L14.0235 20.66H11.8035L11.7968 20.6667ZM19.1301 12.6667H21.3501L22.4768 14.6667L21.3501 16.6667H19.1301L18.4568 15.4667L18.0101 14.6733L19.1368 12.6733L19.1301 12.6667Z" fill="black" fill-opacity="0.72"/>
<path d="M26.0768 2C23.6835 2 21.7435 3.94 21.7435 6.33333C21.7435 8.72667 23.6835 10.6667 26.0768 10.6667C28.4701 10.6667 30.4101 8.72667 30.4101 6.33333C30.4101 3.94 28.4701 2 26.0768 2ZM26.0768 9.33333C24.4235 9.33333 23.0768 7.98667 23.0768 6.33333C23.0768 4.68 24.4235 3.33333 26.0768 3.33333C27.7301 3.33333 29.0768 4.68 29.0768 6.33333C29.0768 7.98667 27.7301 9.33333 26.0768 9.33333Z" fill="black" fill-opacity="0.72"/>
<path d="M26.6035 5.52667L25.7435 6.38667L25.5501 6.19333C25.2901 5.93333 24.8701 5.93333 24.6101 6.19333C24.3501 6.45333 24.3501 6.87333 24.6101 7.13333L25.2768 7.8C25.4101 7.93333 25.5768 7.99333 25.7501 7.99333C25.9235 7.99333 26.0901 7.92667 26.2235 7.8L27.5568 6.46667C27.8168 6.20667 27.8168 5.78667 27.5568 5.52667C27.2968 5.26667 26.8768 5.26667 26.6168 5.52667H26.6035Z" fill="black" fill-opacity="0.72"/>
</g>
</g>
</svg>
