<svg width="32" height="32" viewBox="0 0 32 32" fill="none" xmlns="http://www.w3.org/2000/svg">
<g id="illustrative / md / multiple-markets-md">
<g id="icon">
<path d="M12 4.66669H7.99996C6.15996 4.66669 4.66663 6.16002 4.66663 8.00002V12C4.66663 13.84 6.15996 15.3334 7.99996 15.3334H14C14.7333 15.3334 15.3333 14.7334 15.3333 14V8.00002C15.3333 6.16002 13.84 4.66669 12 4.66669ZM7.99996 14C6.89996 14 5.99996 13.1 5.99996 12V8.00002C5.99996 6.90002 6.89996 6.00002 7.99996 6.00002H12C13.1 6.00002 14 6.90002 14 8.00002V14H7.99996Z" fill="black" fill-opacity="0.72"/>
<path d="M11.3333 9.33335C10.9666 9.33335 10.6666 9.63335 10.6666 10V11.3334C10.6666 11.7 10.9666 12 11.3333 12C11.7 12 12 11.7 12 11.3334V10C12 9.63335 11.7 9.33335 11.3333 9.33335Z" fill="black" fill-opacity="0.72"/>
<path d="M8.66663 8.66669C8.29996 8.66669 7.99996 8.96669 7.99996 9.33335V11.3334C7.99996 11.7 8.29996 12 8.66663 12C9.03329 12 9.33329 11.7 9.33329 11.3334V9.33335C9.33329 8.96669 9.03329 8.66669 8.66663 8.66669Z" fill="black" fill-opacity="0.72"/>
<path d="M24 4.66669H20C18.16 4.66669 16.6666 6.16002 16.6666 8.00002V14C16.6666 14.7334 17.2666 15.3334 18 15.3334H24C25.84 15.3334 27.3333 13.84 27.3333 12V8.00002C27.3333 6.16002 25.84 4.66669 24 4.66669ZM26 12C26 13.1 25.1 14 24 14H18V8.00002C18 6.90002 18.9 6.00002 20 6.00002H24C25.1 6.00002 26 6.90002 26 8.00002V12Z" fill="black" fill-opacity="0.72"/>
<path d="M23.3333 8.00002C22.9666 8.00002 22.6666 8.30002 22.6666 8.66669V11.3334C22.6666 11.7 22.9666 12 23.3333 12C23.7 12 24 11.7 24 11.3334V8.66669C24 8.30002 23.7 8.00002 23.3333 8.00002Z" fill="black" fill-opacity="0.72"/>
<path d="M20.6666 10C20.3 10 20 10.3 20 10.6667V11.3334C20 11.7 20.3 12 20.6666 12C21.0333 12 21.3333 11.7 21.3333 11.3334V10.6667C21.3333 10.3 21.0333 10 20.6666 10Z" fill="black" fill-opacity="0.72"/>
<path d="M24 16.6667H18C17.2666 16.6667 16.6666 17.2667 16.6666 18V24C16.6666 25.84 18.16 27.3334 20 27.3334H24C25.84 27.3334 27.3333 25.84 27.3333 24V20C27.3333 18.16 25.84 16.6667 24 16.6667ZM26 24C26 25.1 25.1 26 24 26H20C18.9 26 18 25.1 18 24V18H24C25.1 18 26 18.9 26 20V24Z" fill="black" fill-opacity="0.72"/>
<path d="M23.3333 22C22.9666 22 22.6666 22.3 22.6666 22.6667V23.3334C22.6666 23.7 22.9666 24 23.3333 24C23.7 24 24 23.7 24 23.3334V22.6667C24 22.3 23.7 22 23.3333 22Z" fill="black" fill-opacity="0.72"/>
<path d="M20.6666 20C20.3 20 20 20.3 20 20.6667V23.3334C20 23.7 20.3 24 20.6666 24C21.0333 24 21.3333 23.7 21.3333 23.3334V20.6667C21.3333 20.3 21.0333 20 20.6666 20Z" fill="black" fill-opacity="0.72"/>
<path d="M14.6133 19.08C14.6133 19.08 14.6066 19.0667 14.6 19.06C14.5666 18.9934 14.5266 18.9334 14.48 18.8867C14.4666 18.8667 14.4466 18.8534 14.4266 18.84C14.3866 18.8 14.34 18.7734 14.2866 18.7467C14.2666 18.7334 14.2466 18.7267 14.2266 18.7134C14.1533 18.6867 14.0733 18.6667 13.9933 18.6667H12.66C12.2933 18.6667 11.9933 18.9667 11.9933 19.3334C11.9933 19.62 12.1733 19.86 12.4266 19.96L9.99329 22.3934L7.79996 20.2C7.53996 19.94 7.11996 19.94 6.85996 20.2L5.53996 21.52C5.31329 21.74 5.26663 22.1 5.44663 22.3734C5.65329 22.68 6.06663 22.76 6.37329 22.56C6.37329 22.56 6.62663 22.32 6.65996 22.2934L7.33996 21.6134L9.53329 23.8067C9.66663 23.94 9.83329 24 10.0066 24C10.18 24 10.3466 23.9334 10.48 23.8067L13.3866 20.9C13.48 21.1534 13.72 21.34 14.0066 21.34C14.3733 21.34 14.6733 21.04 14.6733 20.6734V19.34C14.6733 19.34 14.6733 19.3267 14.6733 19.3134C14.6733 19.2334 14.66 19.16 14.6266 19.08H14.6133Z" fill="black" fill-opacity="0.72"/>
</g>
</g>
</svg>
