<svg width="32" height="32" viewBox="0 0 32 32" fill="none" xmlns="http://www.w3.org/2000/svg">
<g id="illustrative / md / sign-up-md">
<g id="icon">
<path d="M9.33331 23.3333C10.9866 23.3333 12.3333 21.9866 12.3333 20.3333C12.3333 18.68 10.9866 17.3333 9.33331 17.3333C7.67998 17.3333 6.33331 18.68 6.33331 20.3333C6.33331 21.9866 7.67998 23.3333 9.33331 23.3333ZM9.33331 18.6666C10.2533 18.6666 11 19.4133 11 20.3333C11 21.2533 10.2533 22 9.33331 22C8.41331 22 7.66665 21.2533 7.66665 20.3333C7.66665 19.4133 8.41331 18.6666 9.33331 18.6666Z" fill="black" fill-opacity="0.72"/>
<path d="M15.3333 20H21.3333C21.7 20 22 19.7 22 19.3333C22 18.9666 21.7 18.6666 21.3333 18.6666H15.3333C14.9666 18.6666 14.6666 18.9666 14.6666 19.3333C14.6666 19.7 14.9666 20 15.3333 20Z" fill="black" fill-opacity="0.72"/>
<path d="M15.3333 22.6666H20C20.3666 22.6666 20.6666 22.3666 20.6666 22C20.6666 21.6333 20.3666 21.3333 20 21.3333H15.3333C14.9666 21.3333 14.6666 21.6333 14.6666 22C14.6666 22.3666 14.9666 22.6666 15.3333 22.6666Z" fill="black" fill-opacity="0.72"/>
<path d="M22 10.6666H4.66665C2.82665 10.6666 1.33331 12.16 1.33331 14V27.3333C1.33331 29.1733 2.82665 30.6666 4.66665 30.6666H22C23.84 30.6666 25.3333 29.1733 25.3333 27.3333V14C25.3333 12.16 23.84 10.6666 22 10.6666ZM4.66665 12H22C23.1 12 24 12.9 24 14H2.66665C2.66665 12.9 3.56665 12 4.66665 12ZM24 27.3333C24 28.4333 23.1 29.3333 22 29.3333H14V26.6666C14 25.1933 12.8066 24 11.3333 24C10.9666 24 10.6666 24.3 10.6666 24.6666C10.6666 25.0333 10.9666 25.3333 11.3333 25.3333C12.0666 25.3333 12.6666 25.9333 12.6666 26.6666V29.3333H5.99998V26.6666C5.99998 25.9333 6.59998 25.3333 7.33331 25.3333C7.69998 25.3333 7.99998 25.0333 7.99998 24.6666C7.99998 24.3 7.69998 24 7.33331 24C5.85998 24 4.66665 25.1933 4.66665 26.6666V29.3333C3.56665 29.3333 2.66665 28.4333 2.66665 27.3333V15.3333H24V27.3333Z" fill="black" fill-opacity="0.72"/>
<path d="M26.3333 1.33331C23.94 1.33331 22 3.27331 22 5.66665C22 8.05998 23.94 9.99998 26.3333 9.99998C28.7266 9.99998 30.6666 8.05998 30.6666 5.66665C30.6666 3.27331 28.7266 1.33331 26.3333 1.33331ZM26.3333 8.66665C24.68 8.66665 23.3333 7.31998 23.3333 5.66665C23.3333 4.01331 24.68 2.66665 26.3333 2.66665C27.9866 2.66665 29.3333 4.01331 29.3333 5.66665C29.3333 7.31998 27.9866 8.66665 26.3333 8.66665Z" fill="black" fill-opacity="0.72"/>
<path d="M26.86 4.85998L26 5.71998L25.8066 5.52665C25.5466 5.26665 25.1266 5.26665 24.8666 5.52665C24.6066 5.78665 24.6066 6.20665 24.8666 6.46665L25.5333 7.13331C25.6666 7.26665 25.8333 7.32665 26.0066 7.32665C26.18 7.32665 26.3466 7.25998 26.48 7.13331L27.8133 5.79998C28.0733 5.53998 28.0733 5.11998 27.8133 4.85998C27.5533 4.59998 27.1333 4.59998 26.8733 4.85998H26.86Z" fill="black" fill-opacity="0.72"/>
</g>
</g>
</svg>
