<svg width="32" height="32" viewBox="0 0 32 32" fill="none" xmlns="http://www.w3.org/2000/svg">
<g id="illustrative / md / purchase-md">
<g id="icon">
<path d="M28 12.6667C27.6333 12.6667 27.3333 12.9667 27.3333 13.3334V22.6667C27.3333 23.7667 26.4333 24.6667 25.3333 24.6667H5.33333C4.23333 24.6667 3.33333 23.7667 3.33333 22.6667V11.3334C3.33333 10.2334 4.23333 9.33335 5.33333 9.33335H19.3333C19.7 9.33335 20 9.03335 20 8.66669C20 8.30002 19.7 8.00002 19.3333 8.00002H5.33333C3.49333 8.00002 2 9.49335 2 11.3334V22.6667C2 24.5067 3.49333 26 5.33333 26H14.6667V28H12C11.6333 28 11.3333 28.3 11.3333 28.6667C11.3333 29.0334 11.6333 29.3334 12 29.3334H18.6667C19.0333 29.3334 19.3333 29.0334 19.3333 28.6667C19.3333 28.3 19.0333 28 18.6667 28H16V26H25.3333C27.1733 26 28.6667 24.5067 28.6667 22.6667V13.3334C28.6667 12.9667 28.3667 12.6667 28 12.6667Z" fill="black" fill-opacity="0.72"/>
<path d="M22 22C22 22.3667 22.3 22.6667 22.6667 22.6667C23.0333 22.6667 23.3333 22.3667 23.3333 22V21.6067L24.1933 22.4667C24.3267 22.6 24.4933 22.66 24.6667 22.66C24.84 22.66 25.0067 22.5934 25.14 22.4667C25.4 22.2067 25.4 21.7867 25.14 21.5267L24.28 20.6667H24.6733C25.04 20.6667 25.34 20.3667 25.34 20C25.34 19.6334 25.04 19.3334 24.6733 19.3334H22.6733C22.5933 19.3334 22.5133 19.3534 22.44 19.38C22.42 19.3867 22.4 19.4 22.3733 19.4134C22.32 19.44 22.28 19.4667 22.2333 19.5067C22.2133 19.52 22.2 19.5334 22.18 19.5534C22.1333 19.6067 22.0933 19.66 22.06 19.7267C22.06 19.7267 22.0533 19.74 22.0467 19.7467C22.0133 19.82 22.0067 19.9 22 19.98C22 19.9867 22 19.9934 22 20.0067V22.0067V22Z" fill="black" fill-opacity="0.72"/>
<path d="M22.6667 18C23.0333 18 23.3333 17.7 23.3333 17.3334V16.6667C23.3333 16.3 23.0333 16 22.6667 16C22.3 16 22 16.3 22 16.6667V17.3334C22 17.7 22.3 18 22.6667 18Z" fill="black" fill-opacity="0.72"/>
<path d="M21.14 18.4734C21.4 18.2134 21.4 17.7934 21.14 17.5334L20.4733 16.8667C20.2133 16.6067 19.7933 16.6067 19.5333 16.8667C19.2733 17.1267 19.2733 17.5467 19.5333 17.8067L20.2 18.4734C20.3333 18.6067 20.5 18.6667 20.6733 18.6667C20.8467 18.6667 21.0133 18.6 21.1467 18.4734H21.14Z" fill="black" fill-opacity="0.72"/>
<path d="M19.3333 19.3334C18.9667 19.3334 18.6667 19.6334 18.6667 20C18.6667 20.3667 18.9667 20.6667 19.3333 20.6667H20C20.3667 20.6667 20.6667 20.3667 20.6667 20C20.6667 19.6334 20.3667 19.3334 20 19.3334H19.3333Z" fill="black" fill-opacity="0.72"/>
<path d="M16.6667 12.6667C17.0349 12.6667 17.3333 12.3682 17.3333 12C17.3333 11.6318 17.0349 11.3334 16.6667 11.3334C16.2985 11.3334 16 11.6318 16 12C16 12.3682 16.2985 12.6667 16.6667 12.6667Z" fill="black" fill-opacity="0.72"/>
<path d="M18.6667 12.6667C19.0349 12.6667 19.3333 12.3682 19.3333 12C19.3333 11.6318 19.0349 11.3334 18.6667 11.3334C18.2985 11.3334 18 11.6318 18 12C18 12.3682 18.2985 12.6667 18.6667 12.6667Z" fill="black" fill-opacity="0.72"/>
<path d="M20.6667 12.6667C21.0349 12.6667 21.3333 12.3682 21.3333 12C21.3333 11.6318 21.0349 11.3334 20.6667 11.3334C20.2985 11.3334 20 11.6318 20 12C20 12.3682 20.2985 12.6667 20.6667 12.6667Z" fill="black" fill-opacity="0.72"/>
<path d="M14.6667 12.6667C15.0333 12.6667 15.3333 12.3667 15.3333 12C15.3333 11.6334 15.0333 11.3334 14.6667 11.3334H6.66667C6.3 11.3334 6 11.6334 6 12C6 12.3667 6.3 12.6667 6.66667 12.6667H14.6667Z" fill="black" fill-opacity="0.72"/>
<path d="M20.6667 14H7.33333C6.23333 14 5.33333 14.9 5.33333 16V21.3334C5.33333 22.4334 6.23333 23.3334 7.33333 23.3334H20C20.3667 23.3334 20.6667 23.0334 20.6667 22.6667C20.6667 22.3 20.3667 22 20 22H7.33333C6.96667 22 6.66667 21.7 6.66667 21.3334V16C6.66667 15.6334 6.96667 15.3334 7.33333 15.3334H20.6667C21.0333 15.3334 21.3333 15.0334 21.3333 14.6667C21.3333 14.3 21.0333 14 20.6667 14Z" fill="black" fill-opacity="0.72"/>
<path d="M25.6667 2.66669C23.2733 2.66669 21.3333 4.60669 21.3333 7.00002C21.3333 9.39335 23.2733 11.3334 25.6667 11.3334C28.06 11.3334 30 9.39335 30 7.00002C30 4.60669 28.06 2.66669 25.6667 2.66669ZM25.6667 10C24.0133 10 22.6667 8.65335 22.6667 7.00002C22.6667 5.34669 24.0133 4.00002 25.6667 4.00002C27.32 4.00002 28.6667 5.34669 28.6667 7.00002C28.6667 8.65335 27.32 10 25.6667 10Z" fill="black" fill-opacity="0.72"/>
<path d="M26.1933 6.19335L25.3333 7.05335L25.14 6.86002C24.88 6.60002 24.46 6.60002 24.2 6.86002C23.94 7.12002 23.94 7.54002 24.2 7.80002L24.8667 8.46669C25 8.60002 25.1667 8.66002 25.34 8.66002C25.5133 8.66002 25.68 8.59335 25.8133 8.46669L27.1467 7.13335C27.4067 6.87335 27.4067 6.45335 27.1467 6.19335C26.8867 5.93335 26.4667 5.93335 26.2067 6.19335H26.1933Z" fill="black" fill-opacity="0.72"/>
</g>
</g>
</svg>
