<svg width="32" height="32" viewBox="0 0 32 32" fill="none" xmlns="http://www.w3.org/2000/svg">
<g id="illustrative / md / easy-access-md">
<g id="icon">
<path d="M27.3334 7.99998H16.6667C14.8267 7.99998 13.3334 9.49331 13.3334 11.3333V14.9733H11.64C11.3734 14.9733 11.1267 15.1333 11.0267 15.3866C10.9267 15.6333 10.98 15.92 11.1734 16.1133L13.34 18.28V20.6733C13.34 22.5133 14.8334 24.0066 16.6734 24.0066H27.34C29.18 24.0066 30.6734 22.5133 30.6734 20.6733V11.34C30.6734 9.49998 29.18 8.00665 27.34 8.00665L27.3334 7.99998ZM29.3334 20.6666C29.3334 21.7666 28.4334 22.6666 27.3334 22.6666H16.6667C15.5667 22.6666 14.6667 21.7666 14.6667 20.6666V18C14.6667 17.82 14.5934 17.6533 14.4734 17.5266L13.2534 16.3066H14.0067C14.3734 16.3066 14.6734 16.0066 14.6734 15.64V11.3333C14.6734 10.2333 15.5734 9.33331 16.6734 9.33331H27.34C28.44 9.33331 29.34 10.2333 29.34 11.3333V20.6666H29.3334Z" fill="black" fill-opacity="0.72"/>
<path d="M25.6667 14.0333V12C25.6667 11.6333 25.3667 11.3333 25 11.3333C24.6334 11.3333 24.3334 11.6333 24.3334 12V14.0333C23.3867 14.1933 22.6667 15.0133 22.6667 16V16.6666C22.6667 17.6533 23.3867 18.4733 24.3334 18.6333V20C24.3334 20.3666 24.6334 20.6666 25 20.6666C25.3667 20.6666 25.6667 20.3666 25.6667 20V18.6333C26.6134 18.4733 27.3334 17.6533 27.3334 16.6666V16C27.3334 15.0133 26.6134 14.1933 25.6667 14.0333ZM26 16.6666C26 17.0333 25.7 17.3333 25.3334 17.3333H24.6667C24.3 17.3333 24 17.0333 24 16.6666V16C24 15.6333 24.3 15.3333 24.6667 15.3333H25.3334C25.7 15.3333 26 15.6333 26 16V16.6666Z" fill="black" fill-opacity="0.72"/>
<path d="M19.6667 12.7V12C19.6667 11.6333 19.3667 11.3333 19 11.3333C18.6334 11.3333 18.3334 11.6333 18.3334 12V12.7C17.3867 12.86 16.6667 13.68 16.6667 14.6666V17.3333C16.6667 18.32 17.3867 19.14 18.3334 19.3V20C18.3334 20.3666 18.6334 20.6666 19 20.6666C19.3667 20.6666 19.6667 20.3666 19.6667 20V19.3C20.6134 19.14 21.3334 18.32 21.3334 17.3333V14.6666C21.3334 13.68 20.6134 12.86 19.6667 12.7ZM20 17.3333C20 17.7 19.7 18 19.3334 18H18.6667C18.3 18 18 17.7 18 17.3333V14.6666C18 14.3 18.3 14 18.6667 14H19.3334C19.7 14 20 14.3 20 14.6666V17.3333Z" fill="black" fill-opacity="0.72"/>
<path d="M11.3334 18C10.9667 18 10.6667 18.3 10.6667 18.6666V21.3333C10.6667 22.4333 9.76671 23.3333 8.66671 23.3333H4.66671C3.56671 23.3333 2.66671 22.4333 2.66671 21.3333V10.6666C2.66671 9.56665 3.56671 8.66665 4.66671 8.66665H8.66671C9.76671 8.66665 10.6667 9.56665 10.6667 10.6666V13.3333C10.6667 13.7 10.9667 14 11.3334 14C11.7 14 12 13.7 12 13.3333V10.6666C12 8.82665 10.5067 7.33331 8.66671 7.33331H4.66671C2.82671 7.33331 1.33337 8.82665 1.33337 10.6666V21.3333C1.33337 23.1733 2.82671 24.6666 4.66671 24.6666H8.66671C10.5067 24.6666 12 23.1733 12 21.3333V18.6666C12 18.3 11.7 18 11.3334 18Z" fill="black" fill-opacity="0.72"/>
<path d="M4.66671 20.6666C4.30004 20.6666 4.00004 20.9666 4.00004 21.3333C4.00004 21.7 4.30004 22 4.66671 22H8.66671C9.03337 22 9.33337 21.7 9.33337 21.3333C9.33337 20.9666 9.03337 20.6666 8.66671 20.6666H4.66671Z" fill="black" fill-opacity="0.72"/>
</g>
</g>
</svg>
