<svg width="32" height="32" viewBox="0 0 32 32" fill="none" xmlns="http://www.w3.org/2000/svg">
<g id="illustrative / md / responsive-md">
<g id="icon">
<path d="M30 10.6667C29.6333 10.6667 29.3333 10.9667 29.3333 11.3333V20.6667C29.3333 21.7667 28.4333 22.6667 27.3333 22.6667H14C13.6333 22.6667 13.3333 22.9667 13.3333 23.3333C13.3333 23.7 13.6333 24 14 24H16.6666V26H14C13.6333 26 13.3333 26.3 13.3333 26.6667C13.3333 27.0333 13.6333 27.3333 14 27.3333H20.6666C21.0333 27.3333 21.3333 27.0333 21.3333 26.6667C21.3333 26.3 21.0333 26 20.6666 26H18V24H27.3333C29.1733 24 30.6666 22.5067 30.6666 20.6667V11.3333C30.6666 10.9667 30.3666 10.6667 30 10.6667Z" fill="black" fill-opacity="0.72"/>
<path d="M4.66665 12C5.03331 12 5.33331 11.7 5.33331 11.3333V9.33333C5.33331 8.23333 6.23331 7.33333 7.33331 7.33333H20C20.3666 7.33333 20.6666 7.03333 20.6666 6.66667C20.6666 6.3 20.3666 6 20 6H7.33331C5.49331 6 3.99998 7.49333 3.99998 9.33333V11.3333C3.99998 11.7 4.29998 12 4.66665 12Z" fill="black" fill-opacity="0.72"/>
<path d="M8.66665 26.5333H4.66665C4.29998 26.5333 3.99998 26.8333 3.99998 27.2C3.99998 27.5667 4.29998 27.8667 4.66665 27.8667H8.66665C9.03331 27.8667 9.33331 27.5667 9.33331 27.2C9.33331 26.8333 9.03331 26.5333 8.66665 26.5333Z" fill="black" fill-opacity="0.72"/>
<path d="M9.33331 13.3333H3.99998C2.52665 13.3333 1.33331 14.5267 1.33331 16V28C1.33331 29.4733 2.52665 30.6667 3.99998 30.6667H9.33331C10.8066 30.6667 12 29.4733 12 28V16C12 14.5267 10.8066 13.3333 9.33331 13.3333ZM10.6666 28C10.6666 28.7333 10.0666 29.3333 9.33331 29.3333H3.99998C3.26665 29.3333 2.66665 28.7333 2.66665 28V16C2.66665 15.2667 3.26665 14.6667 3.99998 14.6667H9.33331C10.0666 14.6667 10.6666 15.2667 10.6666 16V28Z" fill="black" fill-opacity="0.72"/>
<path d="M26.3333 10.6667C28.7266 10.6667 30.6666 8.72667 30.6666 6.33333C30.6666 3.94 28.7266 2 26.3333 2C23.94 2 22 3.94 22 6.33333C22 8.72667 23.94 10.6667 26.3333 10.6667ZM26.3333 3.33333C27.9866 3.33333 29.3333 4.68 29.3333 6.33333C29.3333 7.98667 27.9866 9.33333 26.3333 9.33333C24.68 9.33333 23.3333 7.98667 23.3333 6.33333C23.3333 4.68 24.68 3.33333 26.3333 3.33333Z" fill="black" fill-opacity="0.72"/>
<path d="M25.5266 7.80667C25.66 7.94 25.8266 8 26 8C26.1733 8 26.34 7.93333 26.4733 7.80667L27.8066 6.47333C28.0666 6.21333 28.0666 5.79333 27.8066 5.53333C27.5466 5.27333 27.1266 5.27333 26.8666 5.53333L26.0066 6.39333L25.8133 6.2C25.5533 5.94 25.1333 5.94 24.8733 6.2C24.6133 6.46 24.6133 6.88 24.8733 7.14L25.54 7.80667H25.5266Z" fill="black" fill-opacity="0.72"/>
</g>
</g>
</svg>
