<svg width="32" height="32" viewBox="0 0 32 32" fill="none" xmlns="http://www.w3.org/2000/svg">
<g id="illustrative / md / integrity-md">
<g id="icon">
<path d="M30 19.3333H23.1067C22.2134 19.3333 21.38 19.68 20.7467 20.3066L18.4734 22.58C17.6934 23.36 17.6934 24.6266 18.4734 25.4066L18.5867 25.52C18.7534 25.6866 18.94 25.8133 19.14 25.9133L18.98 26.0733C18.6 26.4533 18.1 26.66 17.5667 26.66H13.34C12.24 26.66 11.34 27.56 11.34 28.66C11.34 29.76 12.24 30.66 13.34 30.66H20.9C21.7934 30.66 22.6267 30.3133 23.26 29.6866L26.36 26.5866C26.74 26.2066 27.2467 25.9933 27.7934 25.9933H30.0134C30.38 25.9933 30.68 25.6933 30.68 25.3266V19.9933C30.68 19.6266 30.38 19.3266 30.0134 19.3266L30 19.3333ZM25.4067 25.6466L22.3067 28.7466C21.9267 29.1266 21.4267 29.3333 20.8934 29.3333H13.3334C12.9667 29.3333 12.6667 29.0333 12.6667 28.6666C12.6667 28.3 12.9667 28 13.3334 28H17.56C18.4534 28 19.2867 27.6533 19.92 27.0266L22.4734 24.4733C22.6067 24.34 22.6667 24.1733 22.6667 24C22.6667 23.8266 22.6 23.66 22.4734 23.5266C22.2134 23.2666 21.7934 23.2666 21.5334 23.5266L20.4734 24.5866C20.2134 24.8466 19.7934 24.8466 19.5334 24.5866L19.42 24.4733C19.16 24.2133 19.16 23.7933 19.42 23.5333L21.6934 21.26C22.0734 20.88 22.5734 20.6733 23.1067 20.6733H26.6667V24.8733C26.2 25.04 25.7667 25.2933 25.4067 25.6533V25.6466ZM29.3334 24.6666H28V20.6666H29.3334V24.6666Z" fill="black" fill-opacity="0.72"/>
<path d="M11.2534 13.6933L13.5334 11.42C14.3134 10.64 14.3134 9.37331 13.5334 8.59331L13.42 8.47998C13.26 8.31998 13.0734 8.18665 12.8667 8.08665L13.0267 7.92665C13.4 7.55331 13.9134 7.33998 14.44 7.33998H18.6667C19.7667 7.33998 20.6667 6.43998 20.6667 5.33998C20.6667 4.23998 19.7667 3.33998 18.6667 3.33998H11.1067C10.22 3.33998 9.38004 3.68665 8.74671 4.31331L5.64671 7.41331C5.26671 7.79331 4.76004 8.00665 4.22004 8.00665H2.00004C1.63337 8.00665 1.33337 8.30665 1.33337 8.67331V14.0066C1.33337 14.3733 1.63337 14.6733 2.00004 14.6733H8.89337C9.78004 14.6733 10.62 14.3266 11.2534 13.7V13.6933ZM2.66671 13.3333V9.33331H4.00004V13.3333H2.66671ZM5.33337 9.13331C5.80004 8.96665 6.23337 8.71331 6.59337 8.35331L9.69337 5.25331C10.0667 4.87998 10.58 4.66665 11.1067 4.66665H18.6667C19.0334 4.66665 19.3334 4.96665 19.3334 5.33331C19.3334 5.69998 19.0334 5.99998 18.6667 5.99998H14.44C13.5534 5.99998 12.7134 6.34665 12.08 6.97331L10.6 8.45331C10.6 8.45331 10.5934 8.45998 10.5867 8.46665L9.52671 9.52665C9.26671 9.78665 9.26671 10.2066 9.52671 10.4666C9.78671 10.7266 10.2067 10.7266 10.4667 10.4666L11.5334 9.39998C11.7867 9.15331 12.22 9.15998 12.4667 9.40665L12.58 9.51998C12.84 9.77998 12.84 10.2 12.58 10.46L10.3067 12.7333C9.93337 13.1066 9.42004 13.32 8.89337 13.32H5.33337V9.11998V9.13331Z" fill="black" fill-opacity="0.72"/>
<path d="M16.88 12.7C16.74 12.6533 16.5934 12.6533 16.46 12.7C15.6734 12.96 14.3867 13.3333 14.0067 13.3333C13.6267 13.3333 13.34 13.6333 13.34 14V18C13.34 19.66 15.8667 21.0066 16.3734 21.26C16.4667 21.3066 16.5667 21.3333 16.6734 21.3333C16.76 21.3333 16.8534 21.3133 16.94 21.28C16.9734 21.2666 20.0067 19.9266 20.0067 18V14C20.0067 13.6333 19.7067 13.3333 19.34 13.3333C18.9734 13.3333 17.6734 12.9666 16.8867 12.7H16.88ZM18.6667 18C18.6667 18.66 17.42 19.5266 16.68 19.92C15.76 19.4 14.6667 18.54 14.6667 18V14.58C15.36 14.44 16.2334 14.1733 16.6667 14.0333C17.1 14.1733 17.9734 14.4466 18.6667 14.58V18Z" fill="black" fill-opacity="0.72"/>
<path d="M23.3334 16.6666C23.3334 17.0333 23.6334 17.3333 24 17.3333C24.3667 17.3333 24.6667 17.0333 24.6667 16.6666C24.6667 12.2533 21.08 8.66665 16.6667 8.66665C16.3 8.66665 16 8.96665 16 9.33331C16 9.69998 16.3 9.99998 16.6667 9.99998C20.34 9.99998 23.3334 12.9933 23.3334 16.6666Z" fill="black" fill-opacity="0.72"/>
<path d="M16 24.64C16.34 24.64 16.6334 24.38 16.6667 24.0333C16.7 23.6666 16.4267 23.34 16.06 23.3066C12.6067 22.9933 10 20.14 10 16.6666C10 16.3 9.70004 16 9.33337 16C8.96671 16 8.66671 16.3 8.66671 16.6666C8.66671 20.8333 11.7934 24.26 15.94 24.6333C15.96 24.6333 15.98 24.6333 16 24.6333V24.64Z" fill="black" fill-opacity="0.72"/>
<path d="M26.3334 9.99998C28.7267 9.99998 30.6667 8.05998 30.6667 5.66665C30.6667 3.27331 28.7267 1.33331 26.3334 1.33331C23.94 1.33331 22 3.27331 22 5.66665C22 8.05998 23.94 9.99998 26.3334 9.99998ZM26.3334 2.66665C27.9867 2.66665 29.3334 4.01331 29.3334 5.66665C29.3334 7.31998 27.9867 8.66665 26.3334 8.66665C24.68 8.66665 23.3334 7.31998 23.3334 5.66665C23.3334 4.01331 24.68 2.66665 26.3334 2.66665Z" fill="black" fill-opacity="0.72"/>
<path d="M25.5267 7.13998C25.66 7.27331 25.8267 7.33331 26 7.33331C26.1734 7.33331 26.34 7.26665 26.4734 7.13998L27.8067 5.80665C28.0667 5.54665 28.0667 5.12665 27.8067 4.86665C27.5467 4.60665 27.1267 4.60665 26.8667 4.86665L26.0067 5.72665L25.8134 5.53331C25.5534 5.27331 25.1334 5.27331 24.8734 5.53331C24.6134 5.79331 24.6134 6.21331 24.8734 6.47331L25.54 7.13998H25.5267Z" fill="black" fill-opacity="0.72"/>
</g>
</g>
</svg>
