<svg width="32" height="32" viewBox="0 0 32 32" fill="none" xmlns="http://www.w3.org/2000/svg">
<g id="illustrative / md / protected-and-secure-md">
<g id="icon">
<path fill-rule="evenodd" clip-rule="evenodd" d="M26.6667 2C25.5652 2 24.6667 2.89848 24.6667 4V4.78047C23.8899 5.05503 23.3334 5.79585 23.3334 6.66667V8.66667C23.3334 9.77124 24.2288 10.6667 25.3334 10.6667H28.6667C29.7713 10.6667 30.6667 9.77124 30.6667 8.66667V6.66667C30.6667 5.79585 30.1102 5.05503 29.3334 4.78047V4C29.3334 2.89848 28.4349 2 27.3334 2H26.6667ZM28 4.66667V4C28 3.63486 27.6985 3.33333 27.3334 3.33333H26.6667C26.3016 3.33333 26 3.63486 26 4V4.66667H28ZM25.3334 6C24.9652 6 24.6667 6.29848 24.6667 6.66667V8.66667C24.6667 9.03486 24.9652 9.33333 25.3334 9.33333H28.6667C29.0349 9.33333 29.3334 9.03486 29.3334 8.66667V6.66667C29.3334 6.29848 29.0349 6 28.6667 6H25.3334Z" fill="black" fill-opacity="0.72"/>
<path d="M7.33337 6.66667C6.22823 6.66667 5.33337 7.56152 5.33337 8.66667V10.6667C5.33337 11.0349 5.0349 11.3333 4.66671 11.3333C4.29852 11.3333 4.00004 11.0349 4.00004 10.6667V8.66667C4.00004 6.82514 5.49185 5.33333 7.33337 5.33333H20.6667C21.0349 5.33333 21.3334 5.63181 21.3334 6C21.3334 6.36819 21.0349 6.66667 20.6667 6.66667H7.33337Z" fill="black" fill-opacity="0.72"/>
<path d="M30.6667 13.3333C30.6667 12.9651 30.3682 12.6667 30 12.6667C29.6319 12.6667 29.3334 12.9651 29.3334 13.3333V20C29.3334 21.1051 28.4385 22 27.3334 22H14C13.6319 22 13.3334 22.2985 13.3334 22.6667C13.3334 23.0349 13.6319 23.3333 14 23.3333H16.6667V25.3333H14C13.6319 25.3333 13.3334 25.6318 13.3334 26C13.3334 26.3682 13.6319 26.6667 14 26.6667H20.6667C21.0349 26.6667 21.3334 26.3682 21.3334 26C21.3334 25.6318 21.0349 25.3333 20.6667 25.3333H18V23.3333H27.3334C29.1749 23.3333 30.6667 21.8415 30.6667 20V13.3333Z" fill="black" fill-opacity="0.72"/>
<path d="M4.66671 25.8665C4.29852 25.8665 4.00004 26.165 4.00004 26.5332C4.00004 26.9014 4.29852 27.1999 4.66671 27.1999H8.66671C9.0349 27.1999 9.33337 26.9014 9.33337 26.5332C9.33337 26.165 9.0349 25.8665 8.66671 25.8665H4.66671Z" fill="black" fill-opacity="0.72"/>
<path fill-rule="evenodd" clip-rule="evenodd" d="M4.00004 12.6667H9.33337C10.8067 12.6667 12 13.86 12 15.3333V27.3333C12 28.8067 10.8067 30 9.33337 30H4.00004C2.52671 30 1.33337 28.8067 1.33337 27.3333V15.3333C1.33337 13.86 2.52671 12.6667 4.00004 12.6667ZM10.6667 15.3333C10.6667 14.6 10.0667 14 9.33337 14H4.00004C3.26671 14 2.66671 14.6 2.66671 15.3333V27.3333C2.66671 28.0667 3.26671 28.6667 4.00004 28.6667H9.33337C10.0667 28.6667 10.6667 28.0667 10.6667 27.3333V15.3333Z" fill="black" fill-opacity="0.72"/>
</g>
</g>
</svg>
