<svg width="32" height="32" viewBox="0 0 32 32" fill="none" xmlns="http://www.w3.org/2000/svg">
<g id="illustrative / md / exclusive-access-md">
<g id="icon">
<path d="M28.6667 6.78669V4.66669C28.6667 3.56669 27.7667 2.66669 26.6667 2.66669H25.3333C24.2333 2.66669 23.3333 3.56669 23.3333 4.66669C23.3333 5.03335 23.6333 5.33335 24 5.33335C24.3667 5.33335 24.6667 5.03335 24.6667 4.66669C24.6667 4.30002 24.9667 4.00002 25.3333 4.00002H26.6667C27.0333 4.00002 27.3333 4.30002 27.3333 4.66669V6.66669H24C22.9 6.66669 22 7.56669 22 8.66669V11.3334C22 12.4334 22.9 13.3334 24 13.3334H28C29.1 13.3334 30 12.4334 30 11.3334V8.66669C30 7.80002 29.44 7.06669 28.6667 6.78669ZM28.6667 11.3334C28.6667 11.7 28.3667 12 28 12H24C23.6333 12 23.3333 11.7 23.3333 11.3334V8.66669C23.3333 8.30002 23.6333 8.00002 24 8.00002H28C28.3667 8.00002 28.6667 8.30002 28.6667 8.66669V11.3334Z" fill="black" fill-opacity="0.72"/>
<path d="M19.6667 13.3334V14.7C18.72 14.86 18 15.68 18 16.6667V21.3334C18 22.32 18.72 23.14 19.6667 23.3V24.6667C19.6667 25.0334 19.9667 25.3334 20.3333 25.3334C20.7 25.3334 21 25.0334 21 24.6667V23.3C21.9467 23.14 22.6667 22.32 22.6667 21.3334V16.6667C22.6667 15.68 21.9467 14.86 21 14.7V13.3334C21 12.9667 20.7 12.6667 20.3333 12.6667C19.9667 12.6667 19.6667 12.9667 19.6667 13.3334ZM21.3333 16.6667V21.3334C21.3333 21.7 21.0333 22 20.6667 22H20C19.6333 22 19.3333 21.7 19.3333 21.3334V16.6667C19.3333 16.3 19.6333 16 20 16H20.6667C21.0333 16 21.3333 16.3 21.3333 16.6667Z" fill="black" fill-opacity="0.72"/>
<path d="M14.3333 26.6667C14.7 26.6667 15 26.3667 15 26V23.3C15.9467 23.14 16.6667 22.32 16.6667 21.3334V14C16.6667 13.0134 15.9467 12.1934 15 12.0334V10.6667C15 10.3 14.7 10 14.3333 10C13.9667 10 13.6667 10.3 13.6667 10.6667V12.0334C12.72 12.1934 12 13.0134 12 14V21.3334C12 22.32 12.72 23.14 13.6667 23.3V26C13.6667 26.3667 13.9667 26.6667 14.3333 26.6667ZM13.3333 21.3334V14C13.3333 13.6334 13.6333 13.3334 14 13.3334H14.6667C15.0333 13.3334 15.3333 13.6334 15.3333 14V21.3334C15.3333 21.7 15.0333 22 14.6667 22H14C13.6333 22 13.3333 21.7 13.3333 21.3334Z" fill="black" fill-opacity="0.72"/>
<path d="M8.33333 24.6667C8.7 24.6667 9 24.3667 9 24V23.3C9.94667 23.14 10.6667 22.32 10.6667 21.3334V17.3334C10.6667 16.3467 9.94667 15.5267 9 15.3667V13.3334C9 12.9667 8.7 12.6667 8.33333 12.6667C7.96667 12.6667 7.66667 12.9667 7.66667 13.3334V15.3667C6.72 15.5267 6 16.3467 6 17.3334V21.3334C6 22.32 6.72 23.14 7.66667 23.3V24C7.66667 24.3667 7.96667 24.6667 8.33333 24.6667ZM7.33333 21.3334V17.3334C7.33333 16.9667 7.63333 16.6667 8 16.6667H8.66667C9.03333 16.6667 9.33333 16.9667 9.33333 17.3334V21.3334C9.33333 21.7 9.03333 22 8.66667 22H8C7.63333 22 7.33333 21.7 7.33333 21.3334Z" fill="black" fill-opacity="0.72"/>
<path d="M26 14.6667C25.6333 14.6667 25.3333 14.9667 25.3333 15.3334V24.6667C25.3333 26.5067 23.84 28 22 28H6.66667C4.82667 28 3.33333 26.5067 3.33333 24.6667V11.3334C3.33333 9.49335 4.82667 8.00002 6.66667 8.00002H20C20.3667 8.00002 20.6667 7.70002 20.6667 7.33335C20.6667 6.96669 20.3667 6.66669 20 6.66669H6.66667C4.09333 6.66669 2 8.76002 2 11.3334V24.6667C2 27.24 4.09333 29.3334 6.66667 29.3334H22C24.5733 29.3334 26.6667 27.24 26.6667 24.6667V15.3334C26.6667 14.9667 26.3667 14.6667 26 14.6667Z" fill="black" fill-opacity="0.72"/>
</g>
</g>
</svg>
