<svg width="32" height="32" viewBox="0 0 32 32" fill="none" xmlns="http://www.w3.org/2000/svg">
<g id="illustrative / md / trade-anytime-md">
<g id="icon">
<path d="M24 7.99998H23.18L23.9667 6.68665C24.22 6.26665 24.22 5.76665 23.98 5.34665C23.74 4.92665 23.3067 4.67331 22.82 4.67331H22C21.6334 4.67331 21.3334 4.97331 21.3334 5.33998C21.3334 5.70665 21.6334 6.00665 22 6.00665H22.82L21.4267 8.33331C21.3 8.53998 21.3 8.79331 21.42 9.00665C21.54 9.21331 21.76 9.34665 22 9.34665H24C24.3667 9.34665 24.6667 9.04665 24.6667 8.67998C24.6667 8.31331 24.3667 8.01331 24 8.01331V7.99998Z" fill="black" fill-opacity="0.72"/>
<path d="M27.3334 4.66665C26.9667 4.66665 26.6667 4.96665 26.6667 5.33331V5.99998H26V5.33331C26 4.96665 25.7 4.66665 25.3334 4.66665C24.9667 4.66665 24.6667 4.96665 24.6667 5.33331V6.66665C24.6667 7.03331 24.9667 7.33331 25.3334 7.33331H26.6667V8.66665C26.6667 9.03331 26.9667 9.33331 27.3334 9.33331C27.7 9.33331 28 9.03331 28 8.66665V5.33331C28 4.96665 27.7 4.66665 27.3334 4.66665Z" fill="black" fill-opacity="0.72"/>
<path d="M20.6667 1.33331C19.5667 1.33331 18.6667 2.23331 18.6667 3.33331V9.99998C18.6667 11.1 19.5667 12 20.6667 12H23.3334V14C23.3334 14.2666 23.4934 14.5133 23.7467 14.6133C23.8267 14.6466 23.9134 14.6666 24 14.6666C24.1734 14.6666 24.3467 14.6 24.4734 14.4733L26.9467 12H28.6734C29.7734 12 30.6734 11.1 30.6734 9.99998V3.33331C30.6734 2.23331 29.7734 1.33331 28.6734 1.33331H20.6667ZM29.3334 9.99998C29.3334 10.3666 29.0334 10.6666 28.6667 10.6666H26.6667C26.4867 10.6666 26.32 10.74 26.1934 10.86L24.6667 12.3866V11.3266C24.6667 10.96 24.3667 10.66 24 10.66H20.6667C20.3 10.66 20 10.36 20 9.99331V3.33331C20 2.96665 20.3 2.66665 20.6667 2.66665H28.6667C29.0334 2.66665 29.3334 2.96665 29.3334 3.33331V9.99998Z" fill="black" fill-opacity="0.72"/>
<path d="M19.3334 15.3333H17.3334V14.6666C17.3334 14.3 17.0334 14 16.6667 14C16.3 14 16 14.3 16 14.6666V15.3333H12V14.6666C12 14.3 11.7 14 11.3334 14C10.9667 14 10.6667 14.3 10.6667 14.6666V15.3333H6.66671V14.6666C6.66671 14.3 6.36671 14 6.00004 14C5.63337 14 5.33337 14.3 5.33337 14.6666V15.3333H4.66671C2.82671 15.3333 1.33337 16.8266 1.33337 18.6666V27.3333C1.33337 29.1733 2.82671 30.6666 4.66671 30.6666H19.3334C21.1734 30.6666 22.6667 29.1733 22.6667 27.3333V18.6666C22.6667 16.8266 21.1734 15.3333 19.3334 15.3333ZM21.3334 27.3333C21.3334 28.4333 20.4334 29.3333 19.3334 29.3333H4.66671C3.56671 29.3333 2.66671 28.4333 2.66671 27.3333V18.6666C2.66671 17.5666 3.56671 16.6666 4.66671 16.6666H5.33337V17.3333C5.33337 17.7 5.63337 18 6.00004 18C6.36671 18 6.66671 17.7 6.66671 17.3333V16.6666H10.6667V17.3333C10.6667 17.7 10.9667 18 11.3334 18C11.7 18 12 17.7 12 17.3333V16.6666H16V17.3333C16 17.7 16.3 18 16.6667 18C17.0334 18 17.3334 17.7 17.3334 17.3333V16.6666H19.3334C20.4334 16.6666 21.3334 17.5666 21.3334 18.6666V27.3333Z" fill="black" fill-opacity="0.72"/>
<path d="M6.00004 22C6.36823 22 6.66671 21.7015 6.66671 21.3333C6.66671 20.9651 6.36823 20.6666 6.00004 20.6666C5.63185 20.6666 5.33337 20.9651 5.33337 21.3333C5.33337 21.7015 5.63185 22 6.00004 22Z" fill="black" fill-opacity="0.72"/>
<path d="M10 22C10.3682 22 10.6667 21.7015 10.6667 21.3333C10.6667 20.9651 10.3682 20.6666 10 20.6666C9.63185 20.6666 9.33337 20.9651 9.33337 21.3333C9.33337 21.7015 9.63185 22 10 22Z" fill="black" fill-opacity="0.72"/>
<path d="M14 22C14.3682 22 14.6667 21.7015 14.6667 21.3333C14.6667 20.9651 14.3682 20.6666 14 20.6666C13.6319 20.6666 13.3334 20.9651 13.3334 21.3333C13.3334 21.7015 13.6319 22 14 22Z" fill="black" fill-opacity="0.72"/>
<path d="M18 22C18.3682 22 18.6667 21.7015 18.6667 21.3333C18.6667 20.9651 18.3682 20.6666 18 20.6666C17.6318 20.6666 17.3334 20.9651 17.3334 21.3333C17.3334 21.7015 17.6318 22 18 22Z" fill="black" fill-opacity="0.72"/>
<path d="M6.00004 24.6666C6.36823 24.6666 6.66671 24.3682 6.66671 24C6.66671 23.6318 6.36823 23.3333 6.00004 23.3333C5.63185 23.3333 5.33337 23.6318 5.33337 24C5.33337 24.3682 5.63185 24.6666 6.00004 24.6666Z" fill="black" fill-opacity="0.72"/>
<path d="M10 24.6666C10.3682 24.6666 10.6667 24.3682 10.6667 24C10.6667 23.6318 10.3682 23.3333 10 23.3333C9.63185 23.3333 9.33337 23.6318 9.33337 24C9.33337 24.3682 9.63185 24.6666 10 24.6666Z" fill="black" fill-opacity="0.72"/>
<path d="M14 24.6666C14.3682 24.6666 14.6667 24.3682 14.6667 24C14.6667 23.6318 14.3682 23.3333 14 23.3333C13.6319 23.3333 13.3334 23.6318 13.3334 24C13.3334 24.3682 13.6319 24.6666 14 24.6666Z" fill="black" fill-opacity="0.72"/>
<path d="M18 24.6666C18.3682 24.6666 18.6667 24.3682 18.6667 24C18.6667 23.6318 18.3682 23.3333 18 23.3333C17.6318 23.3333 17.3334 23.6318 17.3334 24C17.3334 24.3682 17.6318 24.6666 18 24.6666Z" fill="black" fill-opacity="0.72"/>
<path d="M6.00004 27.3333C6.36823 27.3333 6.66671 27.0348 6.66671 26.6666C6.66671 26.2985 6.36823 26 6.00004 26C5.63185 26 5.33337 26.2985 5.33337 26.6666C5.33337 27.0348 5.63185 27.3333 6.00004 27.3333Z" fill="black" fill-opacity="0.72"/>
<path d="M10 27.3333C10.3682 27.3333 10.6667 27.0348 10.6667 26.6666C10.6667 26.2985 10.3682 26 10 26C9.63185 26 9.33337 26.2985 9.33337 26.6666C9.33337 27.0348 9.63185 27.3333 10 27.3333Z" fill="black" fill-opacity="0.72"/>
<path d="M14 27.3333C14.3682 27.3333 14.6667 27.0348 14.6667 26.6666C14.6667 26.2985 14.3682 26 14 26C13.6319 26 13.3334 26.2985 13.3334 26.6666C13.3334 27.0348 13.6319 27.3333 14 27.3333Z" fill="black" fill-opacity="0.72"/>
<path d="M18 27.3333C18.3682 27.3333 18.6667 27.0348 18.6667 26.6666C18.6667 26.2985 18.3682 26 18 26C17.6318 26 17.3334 26.2985 17.3334 26.6666C17.3334 27.0348 17.6318 27.3333 18 27.3333Z" fill="black" fill-opacity="0.72"/>
</g>
</g>
</svg>
