<svg width="32" height="32" viewBox="0 0 32 32" fill="none" xmlns="http://www.w3.org/2000/svg">
<g id="illustrative / md / we-are-here-to-help-md">
<g id="icon">
<path d="M14.4467 21.3334C13.3467 21.3334 12.4467 22.2334 12.4467 23.3334V26C12.4467 27.1 13.3467 28 14.4467 28H21.04L23.2067 30.1667C23.3334 30.2934 23.5067 30.36 23.68 30.36C23.7667 30.36 23.8534 30.3467 23.9334 30.3067C24.18 30.2067 24.3467 29.96 24.3467 29.6934V28H25.8934C26.9934 28 27.8934 27.1 27.8934 26V23.3334C27.8934 22.2334 26.9934 21.3334 25.8934 21.3334H14.4467ZM26.5534 26C26.5534 26.3667 26.2534 26.6667 25.8867 26.6667H23.6734C23.3067 26.6667 23.0067 26.9667 23.0067 27.3334V28.0867L21.7867 26.8667C21.66 26.74 21.4934 26.6734 21.3134 26.6734H14.4467C14.08 26.6734 13.78 26.3734 13.78 26.0067V23.34C13.78 22.9734 14.08 22.6734 14.4467 22.6734H25.8934C26.26 22.6734 26.56 22.9734 26.56 23.34V26.0067L26.5534 26Z" fill="black" fill-opacity="0.72"/>
<path d="M24.4467 24H15.78C15.4134 24 15.1134 24.3 15.1134 24.6667C15.1134 25.0334 15.4134 25.3334 15.78 25.3334H24.4467C24.8134 25.3334 25.1134 25.0334 25.1134 24.6667C25.1134 24.3 24.8134 24 24.4467 24Z" fill="black" fill-opacity="0.72"/>
<path d="M16.4467 8.00004H21.04L23.2067 10.1667C23.3334 10.2934 23.5067 10.36 23.68 10.36C23.7667 10.36 23.8534 10.3467 23.9334 10.3067C24.18 10.2067 24.3467 9.96004 24.3467 9.69337V8.00004H25.8934C26.9934 8.00004 27.8934 7.10004 27.8934 6.00004V3.33337C27.8934 2.23337 26.9934 1.33337 25.8934 1.33337H16.4467C15.3467 1.33337 14.4467 2.23337 14.4467 3.33337V6.00004C14.4467 7.10004 15.3467 8.00004 16.4467 8.00004ZM15.78 3.33337C15.78 2.96671 16.08 2.66671 16.4467 2.66671H25.8934C26.26 2.66671 26.56 2.96671 26.56 3.33337V6.00004C26.56 6.36671 26.26 6.66671 25.8934 6.66671H23.68C23.3134 6.66671 23.0134 6.96671 23.0134 7.33337V8.08671L21.7934 6.86671C21.6667 6.74004 21.5 6.67337 21.32 6.67337H16.4534C16.0867 6.67337 15.7867 6.37337 15.7867 6.00671V3.33337H15.78Z" fill="black" fill-opacity="0.72"/>
<path d="M17.78 5.33337H24.4467C24.8134 5.33337 25.1134 5.03337 25.1134 4.66671C25.1134 4.30004 24.8134 4.00004 24.4467 4.00004H17.78C17.4134 4.00004 17.1134 4.30004 17.1134 4.66671C17.1134 5.03337 17.4134 5.33337 17.78 5.33337Z" fill="black" fill-opacity="0.72"/>
<path d="M26 11.3334H18.5534C17.4534 11.3334 16.5534 12.2334 16.5534 13.3334V16C16.5534 17.1 17.4534 18 18.5534 18H21.1467L23.3134 20.1667C23.44 20.2934 23.6134 20.36 23.7867 20.36C23.8734 20.36 23.96 20.3467 24.04 20.3067C24.2867 20.2067 24.4534 19.96 24.4534 19.6934V18H26C27.1 18 28 17.1 28 16V13.3334C28 12.2334 27.1 11.3334 26 11.3334ZM26.6667 16C26.6667 16.3667 26.3667 16.6667 26 16.6667H23.7867C23.42 16.6667 23.12 16.9667 23.12 17.3334V18.0867L21.9 16.8667C21.7734 16.74 21.6067 16.6734 21.4267 16.6734H18.56C18.1934 16.6734 17.8934 16.3734 17.8934 16.0067V13.34C17.8934 12.9734 18.1934 12.6734 18.56 12.6734H26.0067C26.3734 12.6734 26.6734 12.9734 26.6734 13.34V16.0067L26.6667 16Z" fill="black" fill-opacity="0.72"/>
<path d="M24.5534 14H19.8867C19.52 14 19.22 14.3 19.22 14.6667C19.22 15.0334 19.52 15.3334 19.8867 15.3334H24.5534C24.92 15.3334 25.22 15.0334 25.22 14.6667C25.22 14.3 24.92 14 24.5534 14Z" fill="black" fill-opacity="0.72"/>
<path d="M14 18V9.69337C14 8.59337 13.1 7.69337 12 7.69337H6.66669C5.56669 7.69337 4.66669 8.59337 4.66669 9.69337V18C4.66669 19.1 5.56669 20 6.66669 20H7.54669V21.6934C7.54669 21.96 7.70669 22.2067 7.96002 22.3067C8.04002 22.34 8.12669 22.36 8.21335 22.36C8.38669 22.36 8.56002 22.2934 8.68669 22.1667L10.8534 20H12C13.1 20 14 19.1 14 18ZM12.6667 18C12.6667 18.3667 12.3667 18.6667 12 18.6667H10.58C10.4 18.6667 10.2334 18.74 10.1067 18.86L8.88669 20.08V19.3267C8.88669 18.96 8.58669 18.66 8.22002 18.66H6.67335C6.30669 18.66 6.00669 18.36 6.00669 17.9934V9.69337C6.00669 9.32671 6.30669 9.02671 6.67335 9.02671H12C12.3667 9.02671 12.6667 9.32671 12.6667 9.69337V18Z" fill="black" fill-opacity="0.72"/>
<path d="M9.33335 17.0267C9.70154 17.0267 10 16.7282 10 16.36C10 15.9919 9.70154 15.6934 9.33335 15.6934C8.96516 15.6934 8.66669 15.9919 8.66669 16.36C8.66669 16.7282 8.96516 17.0267 9.33335 17.0267Z" fill="black" fill-opacity="0.72"/>
<path d="M9.33335 10.36C8.23335 10.36 7.33335 11.26 7.33335 12.36C7.33335 12.7267 7.63335 13.0267 8.00002 13.0267C8.36669 13.0267 8.66669 12.7267 8.66669 12.36C8.66669 11.9934 8.97335 11.6934 9.33335 11.6934C9.69335 11.6934 10 12 10 12.36C10 12.78 9.82002 12.92 9.44669 13.1867C9.21335 13.3534 8.88669 13.58 8.74002 13.9534C8.69335 14.0467 8.66669 14.1467 8.66669 14.26V14.36C8.66669 14.7267 8.96669 15.0267 9.33335 15.0267C9.67335 15.0267 9.95335 14.7734 9.99335 14.44C10.0467 14.3934 10.14 14.3267 10.2134 14.2734C10.6334 13.98 11.3334 13.48 11.3334 12.3534C11.3334 11.2267 10.4334 10.3534 9.33335 10.3534V10.36Z" fill="black" fill-opacity="0.72"/>
</g>
</g>
</svg>
