<svg width="32" height="32" viewBox="0 0 32 32" fill="none" xmlns="http://www.w3.org/2000/svg">
<g id="illustrative / md / limited-influence-md">
<g id="icon">
<path d="M22.6732 14C22.3065 14 22.0065 14.3 22.0065 14.6666V24.4866C19.5998 23.3733 14.7198 23.3333 14.0065 23.3333C13.2932 23.3333 8.41317 23.3733 6.0065 24.4866V14.6666C6.0065 10.2533 9.59317 6.66665 14.0065 6.66665C14.4198 6.66665 14.8332 6.69998 15.2332 6.75998C15.5932 6.81331 15.9398 6.56665 15.9932 6.20665C16.0465 5.83998 15.7998 5.49998 15.4398 5.44665C14.9665 5.37331 14.4798 5.33331 13.9998 5.33331C8.85317 5.33331 4.6665 9.51998 4.6665 14.6666V26C4.6665 28.5933 13.0465 28.6666 13.9998 28.6666C14.9532 28.6666 23.3332 28.5933 23.3332 26V14.6666C23.3332 14.3 23.0332 14 22.6665 14H22.6732ZM14.0065 27.3333C9.3865 27.3333 6.51984 26.5133 6.03984 26C6.51984 25.4866 9.3865 24.6666 14.0065 24.6666C18.6265 24.6666 21.4932 25.4866 21.9732 26C21.4932 26.5133 18.6265 27.3333 14.0065 27.3333Z" fill="black" fill-opacity="0.72"/>
<path d="M16.4398 16.6266L14.0065 19.06L11.8132 16.8666C11.5532 16.6066 11.1332 16.6066 10.8732 16.8666L9.53984 18.2C9.27984 18.46 9.27984 18.88 9.53984 19.14C9.79984 19.4 10.2198 19.4 10.4798 19.14L11.3398 18.28L13.5332 20.4733C13.6665 20.6066 13.8332 20.6666 14.0065 20.6666C14.1798 20.6666 14.3465 20.6 14.4798 20.4733L17.3865 17.5666C17.4798 17.82 17.7198 18.0066 18.0065 18.0066C18.3732 18.0066 18.6732 17.7066 18.6732 17.34V16.0066C18.6732 16.0066 18.6732 15.9933 18.6732 15.98C18.6732 15.9 18.6598 15.8266 18.6265 15.7466C18.6265 15.7466 18.6198 15.7333 18.6132 15.7266C18.5865 15.66 18.5398 15.6 18.4932 15.5533C18.4798 15.5333 18.4598 15.52 18.4398 15.5066C18.3998 15.4666 18.3532 15.44 18.2998 15.4133C18.2798 15.4 18.2598 15.3933 18.2332 15.38C18.1598 15.3533 18.0798 15.3333 17.9998 15.3333H16.6665C16.2998 15.3333 15.9998 15.6333 15.9998 16C15.9998 16.2866 16.1798 16.5266 16.4332 16.6266H16.4398Z" fill="black" fill-opacity="0.72"/>
<path d="M23.3398 3.33331H20.6732C18.8332 3.33331 17.3398 4.82665 17.3398 6.66665V11.3333C17.3398 12.0666 17.9398 12.6666 18.6732 12.6666H23.3398C25.1798 12.6666 26.6732 11.1733 26.6732 9.33331V6.66665C26.6732 4.82665 25.1798 3.33331 23.3398 3.33331ZM25.3398 9.33331C25.3398 10.4333 24.4398 11.3333 23.3398 11.3333H18.6732V6.66665C18.6732 5.56665 19.5732 4.66665 20.6732 4.66665H23.3398C24.4398 4.66665 25.3398 5.56665 25.3398 6.66665V9.33331Z" fill="black" fill-opacity="0.72"/>
<path d="M23.3398 5.99998C22.9732 5.99998 22.6732 6.29998 22.6732 6.66665V9.33331C22.6732 9.69998 22.9732 9.99998 23.3398 9.99998C23.7065 9.99998 24.0065 9.69998 24.0065 9.33331V6.66665C24.0065 6.29998 23.7065 5.99998 23.3398 5.99998Z" fill="black" fill-opacity="0.72"/>
<path d="M20.6732 7.99998C20.3065 7.99998 20.0065 8.29998 20.0065 8.66665V9.33331C20.0065 9.69998 20.3065 9.99998 20.6732 9.99998C21.0398 9.99998 21.3398 9.69998 21.3398 9.33331V8.66665C21.3398 8.29998 21.0398 7.99998 20.6732 7.99998Z" fill="black" fill-opacity="0.72"/>
</g>
</g>
</svg>
