<svg width="32" height="32" viewBox="0 0 32 32" fill="none" xmlns="http://www.w3.org/2000/svg">
<g id="illustrative / md / web-browser-md">
<path id="icon" d="M27.3867 7.33331H4.62666C3.07999 7.33331 1.82666 8.58665 1.82666 10.1333V23.64C1.82666 25.1866 3.07999 26.44 4.62666 26.44H15.3333V28.6666H12.44C12.0667 28.6666 11.7733 28.96 11.7733 29.3333C11.7733 29.7066 12.0667 30 12.44 30H19.56C19.9333 30 20.2267 29.7066 20.2267 29.3333C20.2267 28.96 19.9333 28.6666 19.56 28.6666H16.6667V26.44H27.3867C28.9333 26.44 30.1867 25.1866 30.1867 23.64V10.1333C30.1867 8.58665 28.9333 7.33331 27.3867 7.33331ZM4.62666 8.66665H27.3867C28.2 8.66665 28.8533 9.31998 28.8533 10.1333V11.6H3.15999V10.1333C3.15999 9.31998 3.81333 8.66665 4.62666 8.66665ZM27.3867 25.1066H4.62666C3.81333 25.1066 3.15999 24.4533 3.15999 23.64V12.9333H28.8533V23.64C28.8533 24.4533 28.2 25.1066 27.3867 25.1066ZM26.6667 21.64H26.1467L27.1467 22.64C27.4133 22.9066 27.4133 23.32 27.1467 23.5866C27.0133 23.72 26.84 23.7866 26.68 23.7866C26.52 23.7866 26.3333 23.72 26.2133 23.5866L25.2133 22.5866V23.1066C25.2133 23.48 24.92 23.7733 24.5467 23.7733C24.1733 23.7733 23.88 23.48 23.88 23.1066V20.9733C23.88 20.88 23.8933 20.8 23.9333 20.72C23.9733 20.6133 24.0533 20.52 24.1467 20.4533C24.1733 20.44 24.1867 20.4266 24.2133 20.4133C24.3067 20.36 24.4267 20.3066 24.5467 20.3066H26.68C27.0533 20.3066 27.3467 20.6 27.3467 20.9733C27.3467 21.3466 27.0533 21.64 26.68 21.64H26.6667ZM24.76 18.84V18.1333C24.76 17.76 25.0533 17.4666 25.4267 17.4666C25.8 17.4666 26.0933 17.76 26.0933 18.1333V18.84C26.0933 19.2133 25.8 19.5066 25.4267 19.5066C25.0533 19.5066 24.76 19.2133 24.76 18.84ZM23.76 20.0266C23.6267 20.16 23.4533 20.2266 23.2933 20.2266C23.1333 20.2266 22.9467 20.16 22.8267 20.0266L22.12 19.32C21.8533 19.0533 21.8533 18.64 22.12 18.3733C22.3867 18.1066 22.8 18.1066 23.0667 18.3733L23.7733 19.08C24.04 19.3466 24.04 19.76 23.7733 20.0266H23.76ZM23.24 21.6933C23.24 22.0666 22.9467 22.36 22.5733 22.36H21.8667C21.4933 22.36 21.2 22.0666 21.2 21.6933C21.2 21.32 21.4933 21.0266 21.8667 21.0266H22.5733C22.9467 21.0266 23.24 21.32 23.24 21.6933ZM7.99999 10.1333C7.99999 9.83998 8.23999 9.59998 8.53333 9.59998C8.82666 9.59998 9.06666 9.83998 9.06666 10.1333C9.06666 10.4266 8.82666 10.6666 8.53333 10.6666C8.23999 10.6666 7.99999 10.4266 7.99999 10.1333ZM6.39999 10.1333C6.39999 9.83998 6.63999 9.59998 6.93333 9.59998C7.22666 9.59998 7.46666 9.83998 7.46666 10.1333C7.46666 10.4266 7.22666 10.6666 6.93333 10.6666C6.63999 10.6666 6.39999 10.4266 6.39999 10.1333ZM4.79999 10.1333C4.79999 9.83998 5.03999 9.59998 5.33333 9.59998C5.62666 9.59998 5.86666 9.83998 5.86666 10.1333C5.86666 10.4266 5.62666 10.6666 5.33333 10.6666C5.03999 10.6666 4.79999 10.4266 4.79999 10.1333Z" fill="black" fill-opacity="0.72"/>
</g>
</svg>
