<svg width="32" height="32" viewBox="0 0 32 32" fill="none" xmlns="http://www.w3.org/2000/svg">
<g id="illustrative / md / commodities-md">
<path id="icon" d="M28.6271 23.1067L26.2405 16.64C25.9471 15.8533 25.2005 15.3333 24.3605 15.3333H22.4538L20.2405 9.30667C19.9471 8.52 19.2005 8 18.3605 8H13.6271C12.7871 8 12.0405 8.52 11.7471 9.30667L9.52046 15.3333H7.61379C6.77379 15.3333 6.02712 15.8533 5.73379 16.64L3.34712 23.1067C3.26712 23.3067 3.29379 23.5333 3.42712 23.72C3.54712 23.8933 3.76046 24 3.97379 24H28.0005C28.2138 24 28.4271 23.8933 28.5471 23.72C28.6671 23.5467 28.7071 23.3067 28.6271 23.1067ZM13.0138 9.77333C13.1071 9.50667 13.3605 9.33333 13.6405 9.33333H18.3738C18.6538 9.33333 18.9071 9.50667 19.0005 9.77333L21.0538 15.3333H10.9605L13.0138 9.77333ZM16.0005 21.4133L14.2538 16.6667H17.7471L16.0005 21.4133ZM4.96046 22.6667L7.01379 17.1067C7.10712 16.84 7.36046 16.6667 7.64046 16.6667H12.3738C12.6538 16.6667 12.9071 16.84 13.0005 17.1067L15.0538 22.6667H4.96046ZM16.9605 22.6667L19.0138 17.1067C19.1071 16.84 19.3605 16.6667 19.6405 16.6667H24.3738C24.6538 16.6667 24.9071 16.84 25.0005 17.1067L27.0538 22.6667H16.9605Z" fill="black" fill-opacity="0.72"/>
</g>
</svg>
