<svg width="32" height="32" viewBox="0 0 32 32" fill="none" xmlns="http://www.w3.org/2000/svg">
<g id="illustrative / md / options-md">
<g id="icon">
<path d="M6.84007 28C5.2934 28 4.02673 26.7333 4.02673 25.1867V18.08C4.02673 17.12 4.80007 16.3333 5.76007 16.3333H7.0534C8.0134 16.3333 8.80007 17.12 8.80007 18.08V19.9867L10.3201 18.4667C11.2001 17.5867 12.3734 17.0933 13.6134 17.0933H17.0801C18.0401 17.0933 18.8134 17.8667 18.8134 18.8267V19.9333C18.8134 20.8933 18.0401 21.6667 17.0801 21.6667H14.4134C13.8934 21.6667 13.3734 21.88 13.0001 22.2533L12.0401 23.2133H13.9467C14.9067 23.2133 15.6934 24 15.6934 24.96V26.2533C15.6934 27.2133 14.9067 28 13.9467 28H6.84007ZM5.76007 17.68C5.5334 17.68 5.34673 17.8667 5.34673 18.0933V25.2C5.34673 26.0133 6.0134 26.68 6.82673 26.68H13.9201C14.1467 26.68 14.3334 26.4933 14.3334 26.2667V24.9733C14.3334 24.7467 14.1467 24.56 13.9201 24.56H11.5201C11.0667 24.56 10.6534 24.28 10.4801 23.8667C10.3067 23.44 10.4001 22.96 10.7201 22.64L12.0267 21.3333C12.6534 20.7067 13.4934 20.36 14.3867 20.36H17.0534C17.2801 20.36 17.4534 20.1867 17.4534 19.96V18.8533C17.4534 18.6267 17.2801 18.4533 17.0534 18.4533H13.5867C12.6934 18.4533 11.8667 18.8 11.2267 19.4267L9.36007 21.2933C9.04007 21.6133 8.56007 21.72 8.1334 21.5333C7.70673 21.36 7.44007 20.9467 7.44007 20.4933V18.0933C7.44007 17.8667 7.2534 17.68 7.02673 17.68H5.7334H5.76007Z" fill="black" fill-opacity="0.72"/>
<path d="M26.2269 15.6667H24.9335C23.9735 15.6667 23.1869 14.88 23.1869 13.92V12.0133L21.6669 13.5333C20.7869 14.4133 19.6135 14.9067 18.3735 14.9067H14.9069C13.9469 14.9067 13.1735 14.1333 13.1735 13.1733V12.0667C13.1735 11.1067 13.9469 10.3333 14.9069 10.3333H17.5735C18.0935 10.3333 18.6135 10.12 18.9869 9.74667L19.9469 8.78667H18.0402C17.0802 8.78667 16.2935 8 16.2935 7.04V5.74667C16.2935 4.78667 17.0802 4 18.0402 4H25.1335C26.6802 4 27.9469 5.26667 27.9469 6.81333V13.92C27.9469 14.88 27.1735 15.6667 26.2135 15.6667H26.2269ZM23.4002 10.4C23.5469 10.4 23.6935 10.4267 23.8402 10.48C24.2669 10.6533 24.5335 11.0667 24.5335 11.52V13.92C24.5335 14.1467 24.7202 14.3333 24.9469 14.3333H26.2402C26.4669 14.3333 26.6535 14.1467 26.6535 13.92V6.81333C26.6535 6 25.9869 5.33333 25.1735 5.33333H18.0802C17.8535 5.33333 17.6669 5.52 17.6669 5.74667V7.04C17.6669 7.26667 17.8535 7.45333 18.0802 7.45333H20.4802C20.9335 7.45333 21.3469 7.73333 21.5202 8.14667C21.6935 8.57333 21.6002 9.05333 21.2802 9.37333L19.9735 10.68C19.3469 11.3067 18.5069 11.6533 17.6135 11.6533H14.9469C14.7202 11.6533 14.5469 11.8267 14.5469 12.0533V13.16C14.5469 13.3867 14.7202 13.56 14.9469 13.56H18.4135C19.3069 13.56 20.1335 13.2133 20.7735 12.5867L22.6402 10.72C22.8535 10.5067 23.1469 10.3867 23.4402 10.3867L23.4002 10.4Z" fill="black" fill-opacity="0.72"/>
</g>
</g>
</svg>
