<svg width="32" height="32" viewBox="0 0 32 32" fill="none" xmlns="http://www.w3.org/2000/svg">
<g id="illustrative / md / easy-to-start-md">
<g id="icon">
<path d="M6.11313 24.6667C6.11313 25.0333 6.41313 25.3333 6.7798 25.3333H9.90646C10.2731 25.3333 10.5731 25.0333 10.5731 24.6667C10.5731 24.3 10.2731 24 9.90646 24H6.7798C6.41313 24 6.11313 24.3 6.11313 24.6667Z" fill="black" fill-opacity="0.72"/>
<path d="M10.6731 15.3333C10.3065 15.3333 10.0065 15.6333 10.0065 16V16.6667C10.0065 17.0333 10.3065 17.3333 10.6731 17.3333C11.0398 17.3333 11.3398 17.0333 11.3398 16.6667V16C11.3398 15.6333 11.0398 15.3333 10.6731 15.3333Z" fill="black" fill-opacity="0.72"/>
<path d="M7.53313 18.2733C7.66646 18.4067 7.83313 18.4667 8.00646 18.4667C8.1798 18.4667 8.34646 18.4 8.4798 18.2733C8.7398 18.0133 8.7398 17.5933 8.4798 17.3333L8.00646 16.86C7.74646 16.6 7.32646 16.6 7.06646 16.86C6.80646 17.12 6.80646 17.54 7.06646 17.8L7.5398 18.2733H7.53313Z" fill="black" fill-opacity="0.72"/>
<path d="M6.67313 21.3333H7.3398C7.70646 21.3333 8.00646 21.0333 8.00646 20.6667C8.00646 20.3 7.70646 20 7.3398 20H6.67313C6.30646 20 6.00646 20.3 6.00646 20.6667C6.00646 21.0333 6.30646 21.3333 6.67313 21.3333Z" fill="black" fill-opacity="0.72"/>
<path d="M21.1998 24.8C21.7931 23.76 21.6131 22.4467 20.7665 21.6L20.0331 20.8667C19.4065 20.24 18.5665 19.8933 17.6731 19.8933C16.7798 19.8933 15.9465 20.24 15.3131 20.8667L14.8398 21.34L13.9998 20.5V14.0067C13.9998 12.1667 12.5065 10.6733 10.6665 10.6733H6.66646C4.82646 10.6733 3.33313 12.1667 3.33313 14.0067V24.6733C3.33313 26.5133 4.82646 28.0067 6.66646 28.0067H10.6665C12.0665 28.0067 13.2598 27.1333 13.7531 25.9133L14.2398 26.4C14.1131 26.6667 14.0465 26.96 14.0465 27.26C14.0465 27.7933 14.2531 28.2933 14.6331 28.6733C15.3865 29.4267 16.7065 29.4267 17.4598 28.6733L17.9331 29.1467C18.0665 29.28 18.2331 29.34 18.4065 29.34C18.5798 29.34 18.7465 29.2733 18.8798 29.1467C19.1398 28.8867 19.1398 28.4667 18.8798 28.2067L18.4065 27.7333C17.8998 27.2267 17.0265 27.2267 16.5198 27.7333C16.2665 27.9867 15.8265 27.9867 15.5798 27.7333C15.4531 27.6067 15.3865 27.44 15.3865 27.26C15.3865 27.08 15.4531 26.9133 15.5798 26.7867C15.7065 26.66 15.7731 26.4933 15.7731 26.3133C15.7731 26.1333 15.6998 25.9667 15.5798 25.84L10.8665 21.1267C10.6065 20.8667 10.6065 20.4467 10.8665 20.1867C11.1265 19.9267 11.5465 19.9267 11.8065 20.1867L14.3731 22.7533C14.6331 23.0133 15.0531 23.0133 15.3131 22.7533L16.2598 21.8133C17.0131 21.06 18.3331 21.06 19.0865 21.8133L19.8198 22.5467C20.2398 22.9667 20.3331 23.6267 20.0331 24.1467C19.7198 24.7 19.7998 25.3533 20.2265 25.7867L20.7598 26.32C21.0198 26.58 21.4398 26.58 21.6998 26.32C21.9598 26.06 21.9598 25.64 21.6998 25.38L21.1931 24.8133L21.1998 24.8ZM9.92646 19.24C9.54646 19.62 9.3398 20.12 9.3398 20.6533C9.3398 21.1867 9.54646 21.6867 9.92646 22.0667L12.6598 24.8C12.5865 25.84 11.7331 26.6667 10.6731 26.6667H6.67313C5.57313 26.6667 4.67313 25.7667 4.67313 24.6667V14C4.67313 12.9 5.57313 12 6.67313 12H10.6731C11.7731 12 12.6731 12.9 12.6731 14V19.1733C11.8865 18.4667 10.6798 18.4867 9.92646 19.24Z" fill="black" fill-opacity="0.72"/>
<path d="M24.3398 2C21.9465 2 20.0065 3.94 20.0065 6.33333C20.0065 8.72667 21.9465 10.6667 24.3398 10.6667C26.7331 10.6667 28.6731 8.72667 28.6731 6.33333C28.6731 3.94 26.7331 2 24.3398 2ZM24.3398 9.33333C22.6865 9.33333 21.3398 7.98667 21.3398 6.33333C21.3398 4.68 22.6865 3.33333 24.3398 3.33333C25.9931 3.33333 27.3398 4.68 27.3398 6.33333C27.3398 7.98667 25.9931 9.33333 24.3398 9.33333Z" fill="black" fill-opacity="0.72"/>
<path d="M24.8665 5.52667L24.0065 6.38667L23.8131 6.19333C23.5531 5.93333 23.1331 5.93333 22.8731 6.19333C22.6131 6.45333 22.6131 6.87333 22.8731 7.13333L23.5398 7.8C23.6731 7.93333 23.8398 7.99333 24.0131 7.99333C24.1865 7.99333 24.3531 7.92667 24.4865 7.8L25.8198 6.46667C26.0798 6.20667 26.0798 5.78667 25.8198 5.52667C25.5598 5.26667 25.1398 5.26667 24.8798 5.52667H24.8665Z" fill="black" fill-opacity="0.72"/>
</g>
</g>
</svg>
