<svg width="32" height="32" viewBox="0 0 32 32" fill="none" xmlns="http://www.w3.org/2000/svg">
<g id="illustrative / md / register-md">
<g id="icon">
<path d="M22.6667 2.66669H9.33333C7.49333 2.66669 6 4.16002 6 6.00002V26C6 27.84 7.49333 29.3334 9.33333 29.3334H22.6667C24.5067 29.3334 26 27.84 26 26V6.00002C26 4.16002 24.5067 2.66669 22.6667 2.66669ZM24.6667 26C24.6667 27.1 23.7667 28 22.6667 28H9.33333C8.23333 28 7.33333 27.1 7.33333 26V6.00002C7.33333 4.90002 8.23333 4.00002 9.33333 4.00002H22.6667C23.7667 4.00002 24.6667 4.90002 24.6667 6.00002V26Z" fill="black" fill-opacity="0.72"/>
<path d="M17.3333 7.33335H22C22.3667 7.33335 22.6667 7.03335 22.6667 6.66669C22.6667 6.30002 22.3667 6.00002 22 6.00002H17.3333C16.9667 6.00002 16.6667 6.30002 16.6667 6.66669C16.6667 7.03335 16.9667 7.33335 17.3333 7.33335Z" fill="black" fill-opacity="0.72"/>
<path d="M22.6667 8.66669H17.3333C16.9667 8.66669 16.6667 8.96669 16.6667 9.33335C16.6667 9.70002 16.9667 10 17.3333 10H22.6667C23.0333 10 23.3333 9.70002 23.3333 9.33335C23.3333 8.96669 23.0333 8.66669 22.6667 8.66669Z" fill="black" fill-opacity="0.72"/>
<path d="M17.3333 12.6667H21.3333C21.7 12.6667 22 12.3667 22 12C22 11.6334 21.7 11.3334 21.3333 11.3334H17.3333C16.9667 11.3334 16.6667 11.6334 16.6667 12C16.6667 12.3667 16.9667 12.6667 17.3333 12.6667Z" fill="black" fill-opacity="0.72"/>
<path d="M17.3333 15.3334H22C22.3667 15.3334 22.6667 15.0334 22.6667 14.6667C22.6667 14.3 22.3667 14 22 14H17.3333C16.9667 14 16.6667 14.3 16.6667 14.6667C16.6667 15.0334 16.9667 15.3334 17.3333 15.3334Z" fill="black" fill-opacity="0.72"/>
<path d="M12 9.78002C13.2267 9.78002 14.22 8.78002 14.22 7.56002C14.22 6.34002 13.22 5.34002 12 5.34002C10.78 5.34002 9.78 6.34002 9.78 7.56002C9.78 8.78002 10.78 9.78002 12 9.78002ZM12 6.66669C12.4933 6.66669 12.8867 7.06669 12.8867 7.55335C12.8867 8.04002 12.4867 8.44002 12 8.44002C11.5133 8.44002 11.1133 8.04002 11.1133 7.55335C11.1133 7.06669 11.5133 6.66669 12 6.66669Z" fill="black" fill-opacity="0.72"/>
<path d="M10.22 15.78H13.7733C14.6333 15.78 15.3267 15.08 15.3267 14.2267V12.8934C15.3267 11.7934 14.4267 10.8934 13.3267 10.8934C12.96 10.8934 12.66 11.1934 12.66 11.56C12.66 11.9267 12.96 12.2267 13.3267 12.2267C13.6933 12.2267 13.9933 12.5267 13.9933 12.8934V14.2267C13.9933 14.3467 13.8933 14.4467 13.7733 14.4467H10.22C10.1 14.4467 10 14.3467 10 14.2267V12.8934C10 12.5267 10.3 12.2267 10.6667 12.2267C11.0333 12.2267 11.3333 11.9267 11.3333 11.56C11.3333 11.1934 11.0333 10.8934 10.6667 10.8934C9.56667 10.8934 8.66667 11.7934 8.66667 12.8934V14.2267C8.66667 15.0867 9.36667 15.78 10.22 15.78Z" fill="black" fill-opacity="0.72"/>
<path d="M23.3333 24C23.3333 23.6334 23.0333 23.3334 22.6667 23.3334H20.6667C20.5867 23.3334 20.5067 23.3534 20.4333 23.38C20.4133 23.3867 20.3933 23.4 20.3667 23.4134C20.3133 23.44 20.2733 23.4667 20.2267 23.5067C20.2067 23.52 20.1933 23.5334 20.1733 23.5534C20.1267 23.6067 20.0867 23.66 20.0533 23.7267C20.0533 23.7267 20.0467 23.74 20.04 23.7467C20.0067 23.82 20 23.9 19.9933 23.98C19.9933 23.9867 19.9933 23.9934 19.9933 24.0067V26.0067C19.9933 26.3734 20.2933 26.6734 20.66 26.6734C21.0267 26.6734 21.3267 26.3734 21.3267 26.0067V25.6134L22.1867 26.4734C22.32 26.6067 22.4867 26.6667 22.66 26.6667C22.8333 26.6667 23 26.6 23.1333 26.4734C23.3933 26.2134 23.3933 25.7934 23.1333 25.5334L22.2733 24.6734H22.6667C23.0333 24.6734 23.3333 24.3734 23.3333 24.0067V24Z" fill="black" fill-opacity="0.72"/>
<path d="M20 20.6667V21.3334C20 21.7 20.3 22 20.6667 22C21.0333 22 21.3333 21.7 21.3333 21.3334V20.6667C21.3333 20.3 21.0333 20 20.6667 20C20.3 20 20 20.3 20 20.6667Z" fill="black" fill-opacity="0.72"/>
<path d="M18.4733 20.86C18.2133 20.6 17.7933 20.6 17.5333 20.86C17.2733 21.12 17.2733 21.54 17.5333 21.8L18.2 22.4667C18.3333 22.6 18.5 22.66 18.6733 22.66C18.8467 22.66 19.0133 22.5934 19.1467 22.4667C19.4067 22.2067 19.4067 21.7867 19.1467 21.5267L18.48 20.86H18.4733Z" fill="black" fill-opacity="0.72"/>
<path d="M18 23.3334H17.3333C16.9667 23.3334 16.6667 23.6334 16.6667 24C16.6667 24.3667 16.9667 24.6667 17.3333 24.6667H18C18.3667 24.6667 18.6667 24.3667 18.6667 24C18.6667 23.6334 18.3667 23.3334 18 23.3334Z" fill="black" fill-opacity="0.72"/>
<path d="M15.3333 25.3334H10.6667C10.3 25.3334 10 25.0334 10 24.6667V19.3334C10 18.9667 10.3 18.6667 10.6667 18.6667H21.3333C21.7 18.6667 22 18.3667 22 18C22 17.6334 21.7 17.3334 21.3333 17.3334H10.6667C9.56667 17.3334 8.66667 18.2334 8.66667 19.3334V24.6667C8.66667 25.7667 9.56667 26.6667 10.6667 26.6667H15.3333C15.7 26.6667 16 26.3667 16 26C16 25.6334 15.7 25.3334 15.3333 25.3334Z" fill="black" fill-opacity="0.72"/>
</g>
</g>
</svg>
