<svg width="32" height="32" viewBox="0 0 32 32" fill="none" xmlns="http://www.w3.org/2000/svg">
<g id="illustrative / md / markets-md">
<g id="icon">
<path d="M12 4.66669H7.99996C6.15996 4.66669 4.66663 6.16002 4.66663 8.00002V12C4.66663 13.84 6.15996 15.3334 7.99996 15.3334H14C14.7333 15.3334 15.3333 14.7334 15.3333 14V8.00002C15.3333 6.16002 13.84 4.66669 12 4.66669ZM7.99996 14C6.89996 14 5.99996 13.1 5.99996 12V8.00002C5.99996 6.90002 6.89996 6.00002 7.99996 6.00002H12C13.1 6.00002 14 6.90002 14 8.00002V14H7.99996Z" fill="black" fill-opacity="0.72"/>
<path d="M11.3333 9.33335C10.9666 9.33335 10.6666 9.63335 10.6666 10V11.3334C10.6666 11.7 10.9666 12 11.3333 12C11.7 12 12 11.7 12 11.3334V10C12 9.63335 11.7 9.33335 11.3333 9.33335Z" fill="black" fill-opacity="0.72"/>
<path d="M8.66663 8.66669C8.29996 8.66669 7.99996 8.96669 7.99996 9.33335V11.3334C7.99996 11.7 8.29996 12 8.66663 12C9.03329 12 9.33329 11.7 9.33329 11.3334V9.33335C9.33329 8.96669 9.03329 8.66669 8.66663 8.66669Z" fill="black" fill-opacity="0.72"/>
<path d="M14 16.6667H7.99996C6.15996 16.6667 4.66663 18.16 4.66663 20V24C4.66663 25.84 6.15996 27.3334 7.99996 27.3334H12C13.84 27.3334 15.3333 25.84 15.3333 24V18C15.3333 17.2667 14.7333 16.6667 14 16.6667ZM14 24C14 25.1 13.1 26 12 26H7.99996C6.89996 26 5.99996 25.1 5.99996 24V20C5.99996 18.9 6.89996 18 7.99996 18H14V24Z" fill="black" fill-opacity="0.72"/>
<path d="M11.3333 24C11.7 24 12 23.7 12 23.3334V20.6667C12 20.3 11.7 20 11.3333 20C10.9666 20 10.6666 20.3 10.6666 20.6667V23.3334C10.6666 23.7 10.9666 24 11.3333 24Z" fill="black" fill-opacity="0.72"/>
<path d="M7.99996 23.3334C7.99996 23.7 8.29996 24 8.66663 24C9.03329 24 9.33329 23.7 9.33329 23.3334V21.3334C9.33329 20.9667 9.03329 20.6667 8.66663 20.6667C8.29996 20.6667 7.99996 20.9667 7.99996 21.3334V23.3334Z" fill="black" fill-opacity="0.72"/>
<path d="M24 4.66669H20C18.16 4.66669 16.6666 6.16002 16.6666 8.00002V14C16.6666 14.7334 17.2666 15.3334 18 15.3334H24C25.84 15.3334 27.3333 13.84 27.3333 12V8.00002C27.3333 6.16002 25.84 4.66669 24 4.66669ZM26 12C26 13.1 25.1 14 24 14H18V8.00002C18 6.90002 18.9 6.00002 20 6.00002H24C25.1 6.00002 26 6.90002 26 8.00002V12Z" fill="black" fill-opacity="0.72"/>
<path d="M23.3333 8.00002C22.9666 8.00002 22.6666 8.30002 22.6666 8.66669V11.3334C22.6666 11.7 22.9666 12 23.3333 12C23.7 12 24 11.7 24 11.3334V8.66669C24 8.30002 23.7 8.00002 23.3333 8.00002Z" fill="black" fill-opacity="0.72"/>
<path d="M20.6666 10C20.3 10 20 10.3 20 10.6667V11.3334C20 11.7 20.3 12 20.6666 12C21.0333 12 21.3333 11.7 21.3333 11.3334V10.6667C21.3333 10.3 21.0333 10 20.6666 10Z" fill="black" fill-opacity="0.72"/>
<path d="M24 16.6667H18C17.2666 16.6667 16.6666 17.2667 16.6666 18V24C16.6666 25.84 18.16 27.3334 20 27.3334H24C25.84 27.3334 27.3333 25.84 27.3333 24V20C27.3333 18.16 25.84 16.6667 24 16.6667ZM26 24C26 25.1 25.1 26 24 26H20C18.9 26 18 25.1 18 24V18H24C25.1 18 26 18.9 26 20V24Z" fill="black" fill-opacity="0.72"/>
<path d="M23.3333 22C22.9666 22 22.6666 22.3 22.6666 22.6667V23.3334C22.6666 23.7 22.9666 24 23.3333 24C23.7 24 24 23.7 24 23.3334V22.6667C24 22.3 23.7 22 23.3333 22Z" fill="black" fill-opacity="0.72"/>
<path d="M20.6666 20C20.3 20 20 20.3 20 20.6667V23.3334C20 23.7 20.3 24 20.6666 24C21.0333 24 21.3333 23.7 21.3333 23.3334V20.6667C21.3333 20.3 21.0333 20 20.6666 20Z" fill="black" fill-opacity="0.72"/>
</g>
</g>
</svg>
