<svg width="32" height="32" viewBox="0 0 32 32" fill="none" xmlns="http://www.w3.org/2000/svg">
<g id="illustrative / md / long-or-short-md">
<g id="icon">
<path d="M30.0111 6.00163H29.4644C28.7378 6.00163 28.0644 6.39496 27.7111 7.03496L25.4311 11.175L23.3244 14.855C23.1578 15.1416 22.8178 15.2683 22.5111 15.1483L19.1644 13.895C18.3311 13.5816 17.4111 13.8483 16.8711 14.555L9.47109 24.2283C9.27776 24.4816 8.93109 24.5616 8.64442 24.4216L5.47109 22.835C4.49776 22.3483 3.30442 22.735 2.80442 23.695L1.41109 26.3616C1.23776 26.6883 1.36442 27.0883 1.69109 27.2616C1.79109 27.315 1.89776 27.335 1.99776 27.335C2.23776 27.335 2.47109 27.2016 2.59109 26.975L3.98442 24.3083C4.15109 23.9883 4.55109 23.8616 4.87109 24.0216L8.04442 25.6083C8.90442 26.035 9.94442 25.795 10.5244 25.035L17.9244 15.3616C18.1044 15.1283 18.4111 15.0416 18.6911 15.1416L22.0378 16.395C22.9644 16.7416 23.9844 16.3683 24.4778 15.515L26.5844 11.8216L28.8711 7.66829C28.9911 7.45496 29.2111 7.32163 29.4578 7.32163H30.0044C30.3711 7.32163 30.6711 7.02163 30.6711 6.65496C30.6711 6.28829 30.3711 5.98829 30.0044 5.98829L30.0111 6.00163Z" fill="black" fill-opacity="0.72"/>
<path d="M4.01109 8.66829C4.37776 8.66829 4.67776 8.36829 4.67776 8.00163C4.67776 7.63496 4.97776 7.33496 5.34442 7.33496H12.6778C12.8578 7.33496 13.0244 7.26163 13.1511 7.14163L14.0111 6.28163L14.8711 7.14163C14.9978 7.26829 15.1644 7.33496 15.3444 7.33496H23.3444C23.7111 7.33496 24.0111 7.63496 24.0111 8.00163C24.0111 8.36829 24.3111 8.66829 24.6778 8.66829C25.0444 8.66829 25.3444 8.36829 25.3444 8.00163C25.3444 6.90163 24.4444 6.00163 23.3444 6.00163H15.6178L14.4778 4.86163C14.2178 4.60163 13.7978 4.60163 13.5378 4.86163L12.3978 6.00163H5.34442C4.24442 6.00163 3.34442 6.90163 3.34442 8.00163C3.34442 8.36829 3.64442 8.66829 4.01109 8.66829Z" fill="black" fill-opacity="0.72"/>
<path d="M28.0111 23.335C27.6444 23.335 27.3444 23.635 27.3444 24.0016C27.3444 24.3683 27.0444 24.6683 26.6778 24.6683H24.6778C24.4978 24.6683 24.3311 24.7416 24.2044 24.8616L23.3444 25.7216L22.4844 24.8616C22.3578 24.735 22.1911 24.6683 22.0111 24.6683H20.0111C19.6444 24.6683 19.3444 24.3683 19.3444 24.0016C19.3444 23.635 19.0444 23.335 18.6778 23.335C18.3111 23.335 18.0111 23.635 18.0111 24.0016C18.0111 25.1016 18.9111 26.0016 20.0111 26.0016H21.7378L22.8778 27.1416C23.0111 27.275 23.1778 27.335 23.3511 27.335C23.5244 27.335 23.6911 27.2683 23.8244 27.1416L24.9644 26.0016H26.6911C27.7911 26.0016 28.6911 25.1016 28.6911 24.0016C28.6911 23.635 28.3911 23.335 28.0244 23.335H28.0111Z" fill="black" fill-opacity="0.72"/>
<path d="M4.01109 10.6683C4.37928 10.6683 4.67776 10.3698 4.67776 10.0016C4.67776 9.63344 4.37928 9.33496 4.01109 9.33496C3.6429 9.33496 3.34442 9.63344 3.34442 10.0016C3.34442 10.3698 3.6429 10.6683 4.01109 10.6683Z" fill="black" fill-opacity="0.72"/>
<path d="M4.01109 12.6683C4.37928 12.6683 4.67776 12.3698 4.67776 12.0016C4.67776 11.6334 4.37928 11.335 4.01109 11.335C3.6429 11.335 3.34442 11.6334 3.34442 12.0016C3.34442 12.3698 3.6429 12.6683 4.01109 12.6683Z" fill="black" fill-opacity="0.72"/>
<path d="M4.01109 14.6683C4.37928 14.6683 4.67776 14.3698 4.67776 14.0016C4.67776 13.6334 4.37928 13.335 4.01109 13.335C3.6429 13.335 3.34442 13.6334 3.34442 14.0016C3.34442 14.3698 3.6429 14.6683 4.01109 14.6683Z" fill="black" fill-opacity="0.72"/>
<path d="M4.01109 16.6683C4.37928 16.6683 4.67776 16.3698 4.67776 16.0016C4.67776 15.6334 4.37928 15.335 4.01109 15.335C3.6429 15.335 3.34442 15.6334 3.34442 16.0016C3.34442 16.3698 3.6429 16.6683 4.01109 16.6683Z" fill="black" fill-opacity="0.72"/>
<path d="M4.01109 18.6683C4.37928 18.6683 4.67776 18.3698 4.67776 18.0016C4.67776 17.6334 4.37928 17.335 4.01109 17.335C3.6429 17.335 3.34442 17.6334 3.34442 18.0016C3.34442 18.3698 3.6429 18.6683 4.01109 18.6683Z" fill="black" fill-opacity="0.72"/>
<path d="M4.01109 20.6683C4.37928 20.6683 4.67776 20.3698 4.67776 20.0016C4.67776 19.6334 4.37928 19.335 4.01109 19.335C3.6429 19.335 3.34442 19.6334 3.34442 20.0016C3.34442 20.3698 3.6429 20.6683 4.01109 20.6683Z" fill="black" fill-opacity="0.72"/>
<path d="M18.6778 20.6683C19.0459 20.6683 19.3444 20.3698 19.3444 20.0016C19.3444 19.6334 19.0459 19.335 18.6778 19.335C18.3096 19.335 18.0111 19.6334 18.0111 20.0016C18.0111 20.3698 18.3096 20.6683 18.6778 20.6683Z" fill="black" fill-opacity="0.72"/>
<path d="M18.6778 22.6683C19.0459 22.6683 19.3444 22.3698 19.3444 22.0016C19.3444 21.6334 19.0459 21.335 18.6778 21.335C18.3096 21.335 18.0111 21.6334 18.0111 22.0016C18.0111 22.3698 18.3096 22.6683 18.6778 22.6683Z" fill="black" fill-opacity="0.72"/>
<path d="M18.6778 18.6683C19.0459 18.6683 19.3444 18.3698 19.3444 18.0016C19.3444 17.6334 19.0459 17.335 18.6778 17.335C18.3096 17.335 18.0111 17.6334 18.0111 18.0016C18.0111 18.3698 18.3096 18.6683 18.6778 18.6683Z" fill="black" fill-opacity="0.72"/>
<path d="M28.0111 20.6683C28.3793 20.6683 28.6778 20.3698 28.6778 20.0016C28.6778 19.6334 28.3793 19.335 28.0111 19.335C27.6429 19.335 27.3444 19.6334 27.3444 20.0016C27.3444 20.3698 27.6429 20.6683 28.0111 20.6683Z" fill="black" fill-opacity="0.72"/>
<path d="M28.0111 22.6683C28.3793 22.6683 28.6778 22.3698 28.6778 22.0016C28.6778 21.6334 28.3793 21.335 28.0111 21.335C27.6429 21.335 27.3444 21.6334 27.3444 22.0016C27.3444 22.3698 27.6429 22.6683 28.0111 22.6683Z" fill="black" fill-opacity="0.72"/>
<path d="M28.0111 16.6683C28.3793 16.6683 28.6778 16.3698 28.6778 16.0016C28.6778 15.6334 28.3793 15.335 28.0111 15.335C27.6429 15.335 27.3444 15.6334 27.3444 16.0016C27.3444 16.3698 27.6429 16.6683 28.0111 16.6683Z" fill="black" fill-opacity="0.72"/>
<path d="M28.0111 18.6683C28.3793 18.6683 28.6778 18.3698 28.6778 18.0016C28.6778 17.6334 28.3793 17.335 28.0111 17.335C27.6429 17.335 27.3444 17.6334 27.3444 18.0016C27.3444 18.3698 27.6429 18.6683 28.0111 18.6683Z" fill="black" fill-opacity="0.72"/>
<path d="M28.0111 14.6683C28.3793 14.6683 28.6778 14.3698 28.6778 14.0016C28.6778 13.6334 28.3793 13.335 28.0111 13.335C27.6429 13.335 27.3444 13.6334 27.3444 14.0016C27.3444 14.3698 27.6429 14.6683 28.0111 14.6683Z" fill="black" fill-opacity="0.72"/>
</g>
</g>
</svg>
