<svg width="32" height="32" viewBox="0 0 32 32" fill="none" xmlns="http://www.w3.org/2000/svg">
<g id="illustrative / md / creative-materials-md">
<g id="icon">
<path d="M17.4866 14.4733C17.16 14.22 16.7466 14.1266 16.34 14.2333L9.24663 16.0066H6.65996C4.81996 16.0066 3.32663 17.5 3.32663 19.34V20.0066C3.32663 21.6133 4.47329 22.96 5.99329 23.2733V26.0066C5.99329 27.1066 6.89329 28.0066 7.99329 28.0066C9.09329 28.0066 9.99329 27.1066 9.99329 26.0066V23.5266L16.34 25.1133C16.4466 25.14 16.56 25.1533 16.6666 25.1533C16.96 25.1533 17.2466 25.0533 17.4866 24.8733C17.8133 24.62 18 24.2333 18 23.82V15.5266C18 15.1133 17.8133 14.7333 17.4866 14.4733ZM4.66663 20V19.3333C4.66663 18.2333 5.56663 17.3333 6.66663 17.3333H8.66663V22H6.66663C5.56663 22 4.66663 21.1 4.66663 20ZM7.99996 26.6666C7.63329 26.6666 7.33329 26.3666 7.33329 26V23.3333H8.66663V26C8.66663 26.3666 8.36663 26.6666 7.99996 26.6666ZM16.6666 23.8133L9.99996 22.1466V17.1866L16.6666 15.52V23.8133Z" fill="black" fill-opacity="0.72"/>
<path d="M27.3333 3.33331H18C16.9 3.33331 16 4.23331 16 5.33331V10.6666C16 11.7666 16.9 12.6666 18 12.6666H22.9733V14C22.9733 14.26 23.1266 14.4933 23.36 14.6066C23.4466 14.6466 23.5466 14.6666 23.64 14.6666C23.7933 14.6666 23.9466 14.6133 24.0733 14.5066L26.2466 12.6666H27.3333C28.4333 12.6666 29.3333 11.7666 29.3333 10.6666V5.33331C29.3333 4.23331 28.4333 3.33331 27.3333 3.33331ZM28 10.6666C28 11.0333 27.7 11.3333 27.3333 11.3333H26C25.84 11.3333 25.6866 11.3866 25.5666 11.4933L24.3066 12.56V12C24.3066 11.6333 24.0066 11.3333 23.64 11.3333H18C17.6333 11.3333 17.3333 11.0333 17.3333 10.6666V5.33331C17.3333 4.96665 17.6333 4.66665 18 4.66665H27.3333C27.7 4.66665 28 4.96665 28 5.33331V10.6666Z" fill="black" fill-opacity="0.72"/>
<path d="M20 8.66665C20.3681 8.66665 20.6666 8.36817 20.6666 7.99998C20.6666 7.63179 20.3681 7.33331 20 7.33331C19.6318 7.33331 19.3333 7.63179 19.3333 7.99998C19.3333 8.36817 19.6318 8.66665 20 8.66665Z" fill="black" fill-opacity="0.72"/>
<path d="M22.6666 8.66665C23.0348 8.66665 23.3333 8.36817 23.3333 7.99998C23.3333 7.63179 23.0348 7.33331 22.6666 7.33331C22.2984 7.33331 22 7.63179 22 7.99998C22 8.36817 22.2984 8.66665 22.6666 8.66665Z" fill="black" fill-opacity="0.72"/>
<path d="M25.3333 8.66665C25.7015 8.66665 26 8.36817 26 7.99998C26 7.63179 25.7015 7.33331 25.3333 7.33331C24.9651 7.33331 24.6666 7.63179 24.6666 7.99998C24.6666 8.36817 24.9651 8.66665 25.3333 8.66665Z" fill="black" fill-opacity="0.72"/>
<path d="M12.6666 12C13.7666 12 14.6666 11.1 14.6666 9.99998V5.33331C14.6666 4.23331 13.7666 3.33331 12.6666 3.33331H4.66663C3.56663 3.33331 2.66663 4.23331 2.66663 5.33331V9.99998C2.66663 11.1 3.56663 12 4.66663 12H12.6666ZM12.1866 4.66665L8.66663 7.17998L5.14663 4.66665H12.1866ZM3.99996 9.99998V5.48665L8.27996 8.53998C8.39329 8.61998 8.53329 8.66665 8.66663 8.66665C8.79996 8.66665 8.93996 8.62665 9.05329 8.53998L13.3333 5.48665V9.99998C13.3333 10.3666 13.0333 10.6666 12.6666 10.6666H4.66663C4.29996 10.6666 3.99996 10.3666 3.99996 9.99998Z" fill="black" fill-opacity="0.72"/>
<path d="M21.14 20.7466C20.88 20.4866 20.46 20.4866 20.1933 20.7466C19.9333 21.0066 19.9333 21.4266 20.1933 21.6933L20.6666 22.1666C20.8 22.3 20.9666 22.36 21.14 22.36C21.3133 22.36 21.48 22.2933 21.6133 22.1666C21.8733 21.9066 21.8733 21.4866 21.6133 21.2266L21.14 20.7533V20.7466Z" fill="black" fill-opacity="0.72"/>
<path d="M22.5533 18.6666H21.6133C21.2466 18.6666 20.9466 18.9666 20.9466 19.3333C20.9466 19.7 21.2466 20 21.6133 20H22.5533C22.92 20 23.22 19.7 23.22 19.3333C23.22 18.9666 22.92 18.6666 22.5533 18.6666Z" fill="black" fill-opacity="0.72"/>
<path d="M20.6666 18.1133C20.84 18.1133 21.0066 18.0466 21.14 17.92L21.6133 17.4466C21.8733 17.1866 21.8733 16.7666 21.6133 16.5066C21.3533 16.2466 20.9333 16.2466 20.6733 16.5066L20.2 16.98C19.94 17.24 19.94 17.6666 20.2 17.9266C20.3333 18.0533 20.5 18.12 20.6733 18.12L20.6666 18.1133Z" fill="black" fill-opacity="0.72"/>
</g>
</g>
</svg>
