<svg width="32" height="32" viewBox="0 0 32 32" fill="none" xmlns="http://www.w3.org/2000/svg">
<g id="illustrative / md / strong-passwords-md">
<path id="icon" d="M30.5466 20.72C30.5466 18.8933 29.3999 17.3467 27.7866 16.7333V13.7867C27.7866 12.2267 26.5466 10.96 24.9999 10.9067C24.9466 5.98667 20.9333 2 15.9999 2C11.0666 2 7.05328 5.98667 6.99994 10.9067C5.45328 10.9733 4.22661 12.2267 4.22661 13.7867V16.72C2.59994 17.3333 1.43994 18.88 1.43994 20.72C1.43994 22.56 2.59994 24.0933 4.21327 24.7067V27.12C4.21327 28.72 5.50661 30.0133 7.10661 30.0133H24.8799C26.4799 30.0133 27.7733 28.72 27.7733 27.12V24.7067C29.3866 24.0933 30.5466 22.5467 30.5466 20.72ZM15.9999 3.33333C20.1866 3.33333 23.6133 6.72 23.6666 10.8933H22.7599C22.7066 7.21333 19.6933 4.22667 15.9999 4.22667C12.3066 4.22667 9.29327 7.21333 9.23994 10.8933H8.33327C8.38661 6.72 11.8133 3.33333 15.9999 3.33333ZM21.4399 10.8933H10.5599C10.6133 7.94667 13.0399 5.56 15.9999 5.56C18.9599 5.56 21.3866 7.94667 21.4399 10.8933ZM5.55994 13.7867C5.55994 12.92 6.25328 12.2267 7.11994 12.2267H24.8933C25.7599 12.2267 26.4533 12.92 26.4533 13.7867V16.4533C26.4533 16.4533 26.3333 16.44 26.2666 16.44H5.71994C5.71994 16.44 5.61328 16.4533 5.55994 16.4533V13.7867ZM26.4399 27.12C26.4399 27.9867 25.7466 28.68 24.8799 28.68H7.10661C6.23994 28.68 5.54661 27.9867 5.54661 27.12V24.9867C5.54661 24.9867 5.66661 25 5.71994 25H26.2666C26.2666 25 26.3866 24.9867 26.4399 24.9867V27.12ZM26.2666 23.6667H5.71994C4.09327 23.6667 2.77327 22.3467 2.77327 20.72C2.77327 19.0933 4.09327 17.7733 5.71994 17.7733H26.2666C27.8933 17.7733 29.2133 19.0933 29.2133 20.72C29.2133 22.3467 27.8933 23.6667 26.2666 23.6667ZM17.4533 20.5867L17.2533 20.72L17.4533 20.8533C17.7599 21.0533 17.8666 21.4667 17.6666 21.7733C17.5466 21.9733 17.3199 22.0933 17.0933 22.0933C16.9733 22.0933 16.8533 22.0667 16.7466 21.9867L16.6533 21.9333V22.12C16.6533 22.4933 16.3599 22.7867 15.9866 22.7867C15.6133 22.7867 15.3199 22.4933 15.3199 22.12V21.9333L15.2133 22C15.1066 22.0667 14.9866 22.1067 14.8666 22.1067C14.6399 22.1067 14.4266 22 14.3066 21.7867C14.1066 21.48 14.2133 21.0667 14.5199 20.8667L14.7199 20.7333L14.5199 20.6C14.2133 20.4 14.1066 19.9867 14.3066 19.68C14.5066 19.3733 14.9066 19.28 15.2266 19.4667L15.3333 19.5333V19.3467C15.3333 18.9733 15.6266 18.68 15.9999 18.68C16.3733 18.68 16.6666 18.9733 16.6666 19.3467V19.5333L16.7599 19.48C17.0666 19.2933 17.4799 19.3867 17.6799 19.6933C17.8799 20 17.7733 20.4133 17.4666 20.6133L17.4533 20.5867ZM21.9066 20.5867L21.7066 20.72L21.9066 20.8533C22.2133 21.0533 22.3199 21.4667 22.1199 21.7733C21.9999 21.9733 21.7733 22.0933 21.5599 22.0933C21.4399 22.0933 21.3199 22.0667 21.2133 21.9867L21.1066 21.92V22.1067C21.1066 22.48 20.8133 22.7733 20.4399 22.7733C20.0666 22.7733 19.7733 22.48 19.7733 22.1067V21.92L19.6799 21.9733C19.5733 22.04 19.4533 22.08 19.3333 22.08C19.1066 22.08 18.8933 21.9733 18.7733 21.76C18.5733 21.4533 18.6799 21.04 18.9866 20.84L19.1866 20.7067L18.9866 20.5733C18.6799 20.3733 18.5733 19.96 18.7733 19.6533C18.9733 19.3467 19.3866 19.2533 19.6933 19.44L19.7866 19.4933V19.3067C19.7866 18.9333 20.0799 18.64 20.4533 18.64C20.8266 18.64 21.1199 18.9333 21.1199 19.3067V19.4933L21.2266 19.4267C21.5466 19.24 21.9466 19.3333 22.1466 19.64C22.3466 19.9467 22.2399 20.36 21.9333 20.56L21.9066 20.5867ZM26.3466 20.5867L26.1466 20.72L26.3466 20.8533C26.6533 21.0533 26.7599 21.4667 26.5599 21.7733C26.4399 21.9733 26.2133 22.0933 25.9999 22.0933C25.8799 22.0933 25.7599 22.0667 25.6533 21.9867L25.5599 21.9333V22.12C25.5599 22.4933 25.2666 22.7867 24.8933 22.7867C24.5199 22.7867 24.2266 22.4933 24.2266 22.12V21.9333L24.1199 22C24.0133 22.0667 23.8933 22.1067 23.7733 22.1067C23.5466 22.1067 23.3333 22 23.2133 21.7867C23.0133 21.48 23.1199 21.0667 23.4266 20.8667L23.6266 20.7333L23.4266 20.6C23.1199 20.4 23.0133 19.9867 23.2133 19.68C23.4133 19.3733 23.8266 19.28 24.1333 19.4667L24.2399 19.5333V19.3467C24.2399 18.9733 24.5333 18.68 24.9066 18.68C25.2799 18.68 25.5733 18.9733 25.5733 19.3467V19.5333L25.6666 19.48C25.9866 19.2933 26.3866 19.3867 26.5866 19.6933C26.7866 20 26.6799 20.4133 26.3733 20.6133L26.3466 20.5867ZM13.0133 20.5867L12.8133 20.72L13.0133 20.8533C13.3199 21.0533 13.4266 21.4667 13.2266 21.7733C13.1066 21.9733 12.8799 22.0933 12.6666 22.0933C12.5466 22.0933 12.4266 22.0667 12.3199 21.9867L12.2266 21.9333V22.12C12.2266 22.4933 11.9333 22.7867 11.5599 22.7867C11.1866 22.7867 10.8933 22.4933 10.8933 22.12V21.9333L10.7866 22C10.6799 22.0667 10.5599 22.1067 10.4399 22.1067C10.2133 22.1067 9.99994 22 9.87994 21.7867C9.67994 21.48 9.78661 21.0667 10.0933 20.8667L10.2933 20.7333L10.0933 20.6C9.78661 20.4 9.67994 19.9867 9.87994 19.68C10.0799 19.3733 10.4799 19.28 10.7999 19.4667L10.9066 19.5333V19.3467C10.9066 18.9733 11.1999 18.68 11.5733 18.68C11.9466 18.68 12.2399 18.9733 12.2399 19.3467V19.5333L12.3333 19.48C12.6399 19.2933 13.0533 19.3867 13.2533 19.6933C13.4533 20 13.3466 20.4133 13.0399 20.6133L13.0133 20.5867ZM8.57327 20.5867L8.37328 20.72L8.57327 20.8533C8.87994 21.0533 8.98661 21.4667 8.78661 21.7733C8.66661 21.9733 8.43994 22.0933 8.22661 22.0933C8.10661 22.0933 7.98661 22.0667 7.87994 21.9867L7.77327 21.92V22.1067C7.77327 22.48 7.47994 22.7733 7.10661 22.7733C6.73327 22.7733 6.43994 22.48 6.43994 22.1067V21.92L6.34661 21.9733C6.23994 22.04 6.11994 22.08 5.99994 22.08C5.77327 22.08 5.55994 21.9733 5.43994 21.76C5.23994 21.4533 5.34661 21.04 5.65327 20.84L5.85327 20.7067L5.65327 20.5733C5.34661 20.3733 5.23994 19.96 5.43994 19.6533C5.63994 19.3467 6.05328 19.2533 6.35994 19.44L6.45328 19.4933V19.3067C6.45328 18.9333 6.74661 18.64 7.11994 18.64C7.49328 18.64 7.78661 18.9333 7.78661 19.3067V19.4933L7.89328 19.4267C8.19994 19.24 8.61328 19.3333 8.81328 19.64C9.01328 19.9467 8.90661 20.36 8.59994 20.56L8.57327 20.5867Z" fill="black" fill-opacity="0.72"/>
</g>
</svg>
