<svg width="32" height="32" viewBox="0 0 32 32" fill="none" xmlns="http://www.w3.org/2000/svg">
<g id="illustrative / md / community-md">
<g id="icon">
<path d="M13.1133 19.36C13.1133 21.0134 14.46 22.36 16.1133 22.36C17.7667 22.36 19.1133 21.0134 19.1133 19.36C19.1133 17.7067 17.7667 16.36 16.1133 16.36C14.46 16.36 13.1133 17.7067 13.1133 19.36ZM16.1133 17.6934C17.0333 17.6934 17.78 18.44 17.78 19.36C17.78 20.28 17.0333 21.0267 16.1133 21.0267C15.1933 21.0267 14.4467 20.28 14.4467 19.36C14.4467 18.44 15.1933 17.6934 16.1133 17.6934Z" fill="black" fill-opacity="0.72"/>
<path d="M18.1133 23.0267C17.7467 23.0267 17.4467 23.3267 17.4467 23.6934C17.4467 24.06 17.7467 24.36 18.1133 24.36C18.8467 24.36 19.4467 24.96 19.4467 25.6934V27.6934C19.4467 28.06 19.1467 28.36 18.78 28.36H13.4467C13.08 28.36 12.78 28.06 12.78 27.6934V25.6934C12.78 24.96 13.38 24.36 14.1133 24.36C14.48 24.36 14.78 24.06 14.78 23.6934C14.78 23.3267 14.48 23.0267 14.1133 23.0267C12.64 23.0267 11.4467 24.22 11.4467 25.6934V27.6934C11.4467 28.7934 12.3467 29.6934 13.4467 29.6934H18.78C19.88 29.6934 20.78 28.7934 20.78 27.6934V25.6934C20.78 24.22 19.5867 23.0267 18.1133 23.0267Z" fill="black" fill-opacity="0.72"/>
<path d="M8.78 18.36C7.55333 18.36 6.56 19.36 6.56 20.58C6.56 21.8 7.56 22.8 8.78 22.8C10 22.8 11 21.8 11 20.58C11 19.36 10 18.36 8.78 18.36ZM8.78 21.4734C8.28667 21.4734 7.89333 21.0734 7.89333 20.5867C7.89333 20.1 8.29333 19.7 8.78 19.7C9.26667 19.7 9.66667 20.1 9.66667 20.5867C9.66667 21.0734 9.26667 21.4734 8.78 21.4734Z" fill="black" fill-opacity="0.72"/>
<path d="M9.44667 27.4734H7C6.88 27.4734 6.78 27.3734 6.78 27.2534V25.92C6.78 25.5534 7.08 25.2534 7.44667 25.2534C7.81333 25.2534 8.11333 24.9534 8.11333 24.5867C8.11333 24.22 7.81333 23.92 7.44667 23.92C6.34667 23.92 5.44667 24.82 5.44667 25.92V27.2534C5.44667 28.1134 6.14667 28.8067 7 28.8067H9.44667C9.81333 28.8067 10.1133 28.5067 10.1133 28.14C10.1133 27.7734 9.81333 27.4734 9.44667 27.4734Z" fill="black" fill-opacity="0.72"/>
<path d="M25.6667 20.5867C25.6667 19.36 24.6667 18.3667 23.4467 18.3667C22.2267 18.3667 21.2267 19.3667 21.2267 20.5867C21.2267 21.8067 22.2267 22.8067 23.4467 22.8067C24.6667 22.8067 25.6667 21.8067 25.6667 20.5867ZM22.5533 20.5867C22.5533 20.0934 22.9533 19.7 23.44 19.7C23.9267 19.7 24.3267 20.1 24.3267 20.5867C24.3267 21.0734 23.9267 21.4734 23.44 21.4734C22.9533 21.4734 22.5533 21.0734 22.5533 20.5867Z" fill="black" fill-opacity="0.72"/>
<path d="M24.78 23.92C24.4133 23.92 24.1133 24.22 24.1133 24.5867C24.1133 24.9534 24.4133 25.2534 24.78 25.2534C25.1467 25.2534 25.4467 25.5534 25.4467 25.92V27.2534C25.4467 27.3734 25.3467 27.4734 25.2267 27.4734H22.78C22.4133 27.4734 22.1133 27.7734 22.1133 28.14C22.1133 28.5067 22.4133 28.8067 22.78 28.8067H25.2267C26.0867 28.8067 26.78 28.1067 26.78 27.2534V25.92C26.78 24.82 25.88 23.92 24.78 23.92Z" fill="black" fill-opacity="0.72"/>
<path d="M14.78 12V6.55335C14.78 5.45335 13.88 4.55335 12.78 4.55335H6C4.9 4.55335 4 5.45335 4 6.55335V12C4 13.1 4.9 14 6 14H7.92667L10.0933 16.1667C10.22 16.2934 10.3933 16.36 10.5667 16.36C10.6533 16.36 10.74 16.3467 10.82 16.3067C11.0667 16.2067 11.2333 15.96 11.2333 15.6934V14H12.78C13.88 14 14.78 13.1 14.78 12ZM10.5667 12.6667C10.2 12.6667 9.9 12.9667 9.9 13.3334V14.0867L8.68 12.8667C8.55333 12.74 8.38667 12.6734 8.20667 12.6734H6.00667C5.64 12.6734 5.34 12.3734 5.34 12.0067V6.55335C5.34 6.18669 5.64 5.88669 6.00667 5.88669H12.7867C13.1533 5.88669 13.4533 6.18669 13.4533 6.55335V12C13.4533 12.3667 13.1533 12.6667 12.7867 12.6667H10.5667Z" fill="black" fill-opacity="0.72"/>
<path d="M26 2.66669H20.6667C19.5667 2.66669 18.6667 3.56669 18.6667 4.66669V12C18.6667 13.1 19.5667 14 20.6667 14H21.5467V15.6934C21.5467 15.96 21.7067 16.2067 21.96 16.3067C22.04 16.34 22.1267 16.36 22.2133 16.36C22.3867 16.36 22.56 16.2934 22.6867 16.1667L24.8533 14H26C27.1 14 28 13.1 28 12V4.66669C28 3.56669 27.1 2.66669 26 2.66669ZM26.6667 12C26.6667 12.3667 26.3667 12.6667 26 12.6667H24.58C24.4 12.6667 24.2333 12.74 24.1067 12.86L22.8867 14.08V13.3267C22.8867 12.96 22.5867 12.66 22.22 12.66H20.6733C20.3067 12.66 20.0067 12.36 20.0067 11.9934V4.66669C20.0067 4.30002 20.3067 4.00002 20.6733 4.00002H26.0067C26.3733 4.00002 26.6733 4.30002 26.6733 4.66669V12H26.6667Z" fill="black" fill-opacity="0.72"/>
<path d="M23.3333 12C23.7015 12 24 11.7015 24 11.3334C24 10.9652 23.7015 10.6667 23.3333 10.6667C22.9651 10.6667 22.6667 10.9652 22.6667 11.3334C22.6667 11.7015 22.9651 12 23.3333 12Z" fill="black" fill-opacity="0.72"/>
<path d="M23.3333 5.33335C22.2333 5.33335 21.3333 6.23335 21.3333 7.33335C21.3333 7.70002 21.6333 8.00002 22 8.00002C22.3667 8.00002 22.6667 7.70002 22.6667 7.33335C22.6667 6.96669 22.9733 6.66669 23.3333 6.66669C23.6933 6.66669 24 6.97335 24 7.33335C24 7.75335 23.82 7.89335 23.4467 8.16002C23.2133 8.32669 22.8867 8.55335 22.74 8.92669C22.6933 9.02002 22.6667 9.12002 22.6667 9.23335V9.33335C22.6667 9.70002 22.9667 10 23.3333 10C23.6733 10 23.9533 9.74669 23.9933 9.41335C24.0467 9.36669 24.14 9.30002 24.2133 9.24669C24.6333 8.95335 25.3333 8.45335 25.3333 7.32669C25.3333 6.20002 24.4333 5.32669 23.3333 5.32669V5.33335Z" fill="black" fill-opacity="0.72"/>
<path d="M11.3333 7.22002H7.33333C6.96667 7.22002 6.66667 7.52002 6.66667 7.88669C6.66667 8.25335 6.96667 8.55335 7.33333 8.55335H11.3333C11.7 8.55335 12 8.25335 12 7.88669C12 7.52002 11.7 7.22002 11.3333 7.22002Z" fill="black" fill-opacity="0.72"/>
<path d="M10 9.88669H7.33333C6.96667 9.88669 6.66667 10.1867 6.66667 10.5534C6.66667 10.92 6.96667 11.22 7.33333 11.22H10C10.3667 11.22 10.6667 10.92 10.6667 10.5534C10.6667 10.1867 10.3667 9.88669 10 9.88669Z" fill="black" fill-opacity="0.72"/>
</g>
</g>
</svg>
