<svg width="32" height="32" viewBox="0 0 32 32" fill="none" xmlns="http://www.w3.org/2000/svg">
<g id="illustrative / md / platforms-md">
<g id="icon">
<path d="M30 10.6667C29.6334 10.6667 29.3334 10.9667 29.3334 11.3333V20.6667C29.3334 21.7667 28.4334 22.6667 27.3334 22.6667H14C13.6334 22.6667 13.3334 22.9667 13.3334 23.3333C13.3334 23.7 13.6334 24 14 24H16.6667V26H14C13.6334 26 13.3334 26.3 13.3334 26.6667C13.3334 27.0333 13.6334 27.3333 14 27.3333H20.6667C21.0334 27.3333 21.3334 27.0333 21.3334 26.6667C21.3334 26.3 21.0334 26 20.6667 26H18V24H27.3334C29.1734 24 30.6667 22.5067 30.6667 20.6667V11.3333C30.6667 10.9667 30.3667 10.6667 30 10.6667Z" fill="black" fill-opacity="0.72"/>
<path d="M4.66671 12C5.03337 12 5.33337 11.7 5.33337 11.3333V9.33333C5.33337 8.23333 6.23337 7.33333 7.33337 7.33333H20C20.3667 7.33333 20.6667 7.03333 20.6667 6.66667C20.6667 6.3 20.3667 6 20 6H7.33337C5.49337 6 4.00004 7.49333 4.00004 9.33333V11.3333C4.00004 11.7 4.30004 12 4.66671 12Z" fill="black" fill-opacity="0.72"/>
<path d="M9.33337 13.3333H4.00004C2.52671 13.3333 1.33337 14.5267 1.33337 16V28C1.33337 29.4733 2.52671 30.6667 4.00004 30.6667H9.33337C10.8067 30.6667 12 29.4733 12 28V16C12 14.5267 10.8067 13.3333 9.33337 13.3333ZM10.6667 28C10.6667 28.7333 10.0667 29.3333 9.33337 29.3333H4.00004C3.26671 29.3333 2.66671 28.7333 2.66671 28V16C2.66671 15.2667 3.26671 14.6667 4.00004 14.6667H9.33337C10.0667 14.6667 10.6667 15.2667 10.6667 16V28Z" fill="black" fill-opacity="0.72"/>
<path d="M8.66671 26.5333H4.66671C4.30004 26.5333 4.00004 26.8333 4.00004 27.2C4.00004 27.5667 4.30004 27.8667 4.66671 27.8667H8.66671C9.03337 27.8667 9.33337 27.5667 9.33337 27.2C9.33337 26.8333 9.03337 26.5333 8.66671 26.5333Z" fill="black" fill-opacity="0.72"/>
<path d="M26.3334 10.6667C28.7267 10.6667 30.6667 8.72667 30.6667 6.33333C30.6667 3.94 28.7267 2 26.3334 2C23.94 2 22 3.94 22 6.33333C22 8.72667 23.94 10.6667 26.3334 10.6667ZM26.3334 3.33333C27.9867 3.33333 29.3334 4.68 29.3334 6.33333C29.3334 7.98667 27.9867 9.33333 26.3334 9.33333C24.68 9.33333 23.3334 7.98667 23.3334 6.33333C23.3334 4.68 24.68 3.33333 26.3334 3.33333Z" fill="black" fill-opacity="0.72"/>
<path d="M25.5267 7.80667C25.66 7.94 25.8267 8 26 8C26.1734 8 26.34 7.93333 26.4734 7.80667L27.8067 6.47333C28.0667 6.21333 28.0667 5.79333 27.8067 5.53333C27.5467 5.27333 27.1267 5.27333 26.8667 5.53333L26.0067 6.39333L25.8134 6.2C25.5534 5.94 25.1334 5.94 24.8734 6.2C24.6134 6.46 24.6134 6.88 24.8734 7.14L25.54 7.80667H25.5267Z" fill="black" fill-opacity="0.72"/>
<path d="M17.7267 15.3333L16.6667 16.3933L14.4734 14.2C14.2134 13.94 13.7934 13.94 13.5334 14.2C13.2734 14.46 13.2734 14.88 13.5334 15.14L15.7267 17.3333C16.2467 17.8533 17.0934 17.8533 17.6134 17.3333L18.6667 16.2733L20.3934 18C20.6534 18.26 20.9934 18.3867 21.3334 18.3867C21.6734 18.3867 22.0134 18.2533 22.2734 18L24.7134 15.56C24.8067 15.8133 25.0467 16 25.3334 16C25.7 16 26 15.7 26 15.3333V14C26 14 26 13.9867 26 13.9733C26 13.8933 25.9867 13.82 25.9534 13.74C25.9534 13.74 25.9467 13.7267 25.94 13.72C25.9134 13.6533 25.8667 13.5933 25.82 13.5467C25.8067 13.5267 25.7867 13.5133 25.7667 13.5C25.7267 13.46 25.68 13.4333 25.6267 13.4067C25.6067 13.3933 25.5867 13.3867 25.56 13.3733C25.4867 13.3467 25.4067 13.3267 25.3267 13.3267H23.9934C23.6267 13.3267 23.3267 13.6267 23.3267 13.9933C23.3267 14.28 23.5067 14.52 23.76 14.62L21.3267 17.0533L19.6 15.3267C19.08 14.8067 18.2334 14.8067 17.7134 15.3267L17.7267 15.3333Z" fill="black" fill-opacity="0.72"/>
</g>
</g>
</svg>
