<svg width="32" height="32" viewBox="0 0 32 32" fill="none" xmlns="http://www.w3.org/2000/svg">
<g id="illustrative / md / limit-losses-md">
<path id="icon" d="M25.3334 13.4534V12.6667C25.3334 11.56 24.44 10.6667 23.3334 10.6667H22.6667C22.6667 10.6667 22.64 10.6667 22.6267 10.6667C22.2934 6.93336 19.1467 3.98669 15.3334 3.98669C11.52 3.98669 8.37337 6.92003 8.04004 10.6534H7.33337C6.22671 10.6534 5.33337 11.5467 5.33337 12.6534V25.9867C5.33337 27.0934 6.22671 27.9867 7.33337 27.9867H24.6667C25.7734 27.9867 26.6667 27.0934 26.6667 25.9867V15.32C26.6667 14.4534 26.1067 13.72 25.3334 13.44V13.4534ZM22.6267 11.9867C22.6267 11.9867 22.6534 11.9867 22.6667 11.9867H23.3334C23.7067 11.9867 24 12.28 24 12.6534V13.32H22.3867C22.5067 12.88 22.6 12.44 22.64 11.9734L22.6267 11.9867ZM15.3334 5.33336C18.64 5.33336 21.3334 8.02669 21.3334 11.3334C21.3334 12.0267 21.1867 12.6934 20.96 13.3334H18V12C18 11.2667 17.4 10.6667 16.6667 10.6667H14V9.33336H17.3334C17.7067 9.33336 18 9.04003 18 8.66669C18 8.29336 17.7067 8.00003 17.3334 8.00003H16V7.33336C16 6.96003 15.7067 6.66669 15.3334 6.66669C14.96 6.66669 14.6667 6.96003 14.6667 7.33336V8.00003H14C13.2667 8.00003 12.6667 8.60003 12.6667 9.33336V10.6667C12.6667 11.4 13.2667 12 14 12H16.6667V13.3334H9.69337C9.46671 12.68 9.33337 12.0134 9.33337 11.3334C9.33337 8.02669 12.0267 5.33336 15.3334 5.33336ZM7.33337 12H8.06671C8.10671 12.4534 8.18671 12.8934 8.32004 13.3334H7.34671C6.97337 13.3334 6.68004 13.04 6.68004 12.6667C6.68004 12.2934 6.97337 12 7.34671 12H7.33337ZM25.3334 22.6667H20.6667C20.2934 22.6667 20 22.3734 20 22V19.3334C20 18.96 20.2934 18.6667 20.6667 18.6667H25.3334V22.6667ZM25.3334 17.3334H20.6667C19.56 17.3334 18.6667 18.2267 18.6667 19.3334V22C18.6667 23.1067 19.56 24 20.6667 24H25.3334V26C25.3334 26.3734 25.04 26.6667 24.6667 26.6667H7.33337C6.96004 26.6667 6.66671 26.3734 6.66671 26V14.5467C6.88004 14.6267 7.09337 14.6667 7.33337 14.6667H24.6667C25.04 14.6667 25.3334 14.96 25.3334 15.3334V17.3334ZM22 20.6667C22 20.2934 22.2934 20 22.6667 20C23.04 20 23.3334 20.2934 23.3334 20.6667C23.3334 21.04 23.04 21.3334 22.6667 21.3334C22.2934 21.3334 22 21.04 22 20.6667Z" fill="black" fill-opacity="0.72"/>
</g>
</svg>
