<svg width="32" height="32" viewBox="0 0 32 32" fill="none" xmlns="http://www.w3.org/2000/svg">
<g id="illustrative / md / student-md">
<g id="icon">
<path d="M28 3.33334H4C2.9 3.33334 2 4.23334 2 5.33334C2 6.43334 2.9 7.33334 4 7.33334H4.66667V15.4533C3.89333 15.7267 3.33333 16.46 3.33333 17.3333V20.6667C3.33333 21.7667 4.23333 22.6667 5.33333 22.6667C6.43333 22.6667 7.33333 21.7667 7.33333 20.6667V17.3333C7.33333 16.4667 6.77333 15.7333 6 15.4533V7.33334H8.66667V9.33334C8.66667 9.92001 8.92667 10.4467 9.33333 10.8133V16.6667C9.33333 19.9733 12.0267 22.6667 15.3333 22.6667H17.3333C20.64 22.6667 23.3333 19.9733 23.3333 16.6667V10.8133C23.74 10.4467 24 9.92001 24 9.33334V7.33334H28C29.1 7.33334 30 6.43334 30 5.33334C30 4.23334 29.1 3.33334 28 3.33334ZM6 20.6667C6 21.0333 5.7 21.3333 5.33333 21.3333C4.96667 21.3333 4.66667 21.0333 4.66667 20.6667V17.3333C4.66667 16.9667 4.96667 16.6667 5.33333 16.6667C5.7 16.6667 6 16.9667 6 17.3333V20.6667ZM17.3333 21.3333H15.3333C12.76 21.3333 10.6667 19.24 10.6667 16.6667V11.6733C13.9133 13.0733 17.26 13.8533 20.64 13.98C20.98 13.9933 21.32 14 21.66 14C21.7733 14 21.8867 14 21.9933 14V16.6733C21.9933 19.2467 19.9 21.34 17.3267 21.34L17.3333 21.3333ZM22 12.6467C21.56 12.6467 21.1267 12.66 20.6933 12.6467C18.2867 12.5533 15.8867 12.1067 13.5333 11.3333H22V12.6467ZM22.6667 9.33334C22.6667 9.70001 22.3667 10 22 10H10.6667C10.3 10 10 9.70001 10 9.33334V7.33334H22.6667V9.33334ZM28 6.00001H4C3.63333 6.00001 3.33333 5.70001 3.33333 5.33334C3.33333 4.96668 3.63333 4.66668 4 4.66668H28C28.3667 4.66668 28.6667 4.96668 28.6667 5.33334C28.6667 5.70001 28.3667 6.00001 28 6.00001Z" fill="black" fill-opacity="0.72"/>
<path d="M14.12 24.9133C13.94 24.3667 13.4267 24 12.8533 24H8C6.16 24 4.66667 25.4933 4.66667 27.3333V28C4.66667 28.7333 5.26667 29.3333 6 29.3333H13.74C14.1667 29.3333 14.5733 29.1267 14.82 28.78C15.0733 28.4333 15.14 27.9867 15 27.58L14.1133 24.9133H14.12ZM6 28V27.3333C6 26.2333 6.9 25.3333 8 25.3333H12.8533L13.7467 28H6Z" fill="black" fill-opacity="0.72"/>
<path d="M24.6667 24H19.8133C19.24 24 18.7333 24.3667 18.5467 24.9133L17.66 27.58C17.5267 27.9867 17.5933 28.4333 17.84 28.78C18.0933 29.1267 18.4933 29.3333 18.92 29.3333H26.66C27.3933 29.3333 27.9933 28.7333 27.9933 28V27.3333C27.9933 25.4933 26.5 24 24.66 24H24.6667ZM26.6667 28H18.9267L19.8133 25.3333H24.6667C25.7667 25.3333 26.6667 26.2333 26.6667 27.3333V28Z" fill="black" fill-opacity="0.72"/>
</g>
</g>
</svg>
