<svg width="32" height="32" viewBox="0 0 32 32" fill="none" xmlns="http://www.w3.org/2000/svg">
<g id="illustrative / md / execution-speed-md">
<g id="icon">
<path d="M16.6667 14.2933C16.3 14.2933 16 13.9933 16 13.6267V13.3333C16 12.9667 16.3 12.6667 16.6667 12.6667C17.0334 12.6667 17.3334 12.9667 17.3334 13.3333V13.6267C17.3334 13.9933 17.0334 14.2933 16.6667 14.2933Z" fill="black" fill-opacity="0.72"/>
<path d="M22.0001 19.3333H21.7067C21.3401 19.3333 21.0401 19.0333 21.0401 18.6667C21.0401 18.3 21.3401 18 21.7067 18H22.0001C22.3667 18 22.6667 18.3 22.6667 18.6667C22.6667 19.0333 22.3667 19.3333 22.0001 19.3333Z" fill="black" fill-opacity="0.72"/>
<path d="M16.6667 24.6667C16.3 24.6667 16 24.3667 16 24V23.7067C16 23.34 16.3 23.04 16.6667 23.04C17.0334 23.04 17.3334 23.34 17.3334 23.7067V24C17.3334 24.3667 17.0334 24.6667 16.6667 24.6667Z" fill="black" fill-opacity="0.72"/>
<path d="M11.6267 19.3333H11.3334C10.9667 19.3333 10.6667 19.0333 10.6667 18.6667C10.6667 18.3 10.9667 18 11.3334 18H11.6267C11.9934 18 12.2934 18.3 12.2934 18.6667C12.2934 19.0333 11.9934 19.3333 11.6267 19.3333Z" fill="black" fill-opacity="0.72"/>
<path d="M20.2335 15.7668C20.0601 15.7668 19.8935 15.7001 19.7601 15.5734C19.5001 15.3134 19.5001 14.8934 19.7601 14.6334L19.9668 14.4268C20.2268 14.1668 20.6468 14.1668 20.9135 14.4268C21.1735 14.6868 21.1735 15.1068 20.9135 15.3668L20.7068 15.5734C20.5735 15.7001 20.4068 15.7668 20.2335 15.7668Z" fill="black" fill-opacity="0.72"/>
<path d="M20.4401 23.1066C20.2668 23.1066 20.1001 23.0399 19.9668 22.9133L19.7601 22.7066C19.5001 22.4466 19.5001 22.0266 19.7601 21.7666C20.0201 21.5066 20.4401 21.5066 20.7001 21.7666L20.9068 21.9733C21.1668 22.2333 21.1668 22.6533 20.9068 22.9133C20.7735 23.0466 20.6068 23.1066 20.4335 23.1066H20.4401Z" fill="black" fill-opacity="0.72"/>
<path d="M12.8933 23.1066C12.72 23.1066 12.5533 23.0399 12.42 22.9133C12.16 22.6533 12.16 22.2333 12.42 21.9733L12.6266 21.7666C12.8866 21.5066 13.3066 21.5066 13.5666 21.7666C13.8266 22.0266 13.8266 22.4466 13.5666 22.7066L13.36 22.9133C13.2266 23.0466 13.06 23.1066 12.8866 23.1066H12.8933Z" fill="black" fill-opacity="0.72"/>
<path d="M13.1 15.7668C12.9266 15.7668 12.76 15.7001 12.6266 15.5734L12.42 15.3668C12.16 15.1068 12.16 14.6868 12.42 14.4268C12.68 14.1668 13.1 14.1668 13.36 14.4268L13.5666 14.6334C13.8266 14.8934 13.8266 15.3134 13.5666 15.5734C13.4333 15.7001 13.2666 15.7668 13.0933 15.7668H13.1Z" fill="black" fill-opacity="0.72"/>
<path d="M16.6667 27.3335C11.8867 27.3335 8.00004 23.4468 8.00004 18.6668C8.00004 18.3002 8.30004 18.0002 8.66671 18.0002C9.03337 18.0002 9.33337 18.3002 9.33337 18.6668C9.33337 22.7135 12.62 26.0002 16.6667 26.0002C20.7134 26.0002 24 22.7135 24 18.6668C24 14.6202 20.7134 11.3335 16.6667 11.3335C15.0867 11.3335 13.58 11.8268 12.3067 12.7668C12.0067 12.9868 11.5934 12.9202 11.3734 12.6268C11.1534 12.3335 11.22 11.9135 11.5134 11.6935C13.0134 10.5802 14.8 9.99349 16.66 9.99349C21.44 9.99349 25.3267 13.8802 25.3267 18.6602C25.3267 23.4402 21.44 27.3268 16.66 27.3268L16.6667 27.3335Z" fill="black" fill-opacity="0.72"/>
<path d="M19.3134 7.65333C19.3267 7.6 19.3334 7.54667 19.3334 7.49333V6H20.6667C21.7734 6 22.6667 5.10667 22.6667 4C22.6667 2.89333 21.7734 2 20.6667 2H12.6667C11.5667 2 10.6667 2.9 10.6667 4C10.6667 5.1 11.5667 6 12.6667 6H14V7.49333C14 7.54667 14 7.6 14.02 7.64667C13.5134 7.76667 13.0134 7.92667 12.52 8.12C12.1734 8.25333 12.0067 8.64 12.14 8.98667C12.2734 9.32667 12.66 9.49333 13.0067 9.36C14.18 8.9 15.4134 8.66667 16.6667 8.66667C22.18 8.66667 26.6667 13.1533 26.6667 18.6667C26.6667 24.18 22.18 28.6667 16.6667 28.6667C11.1534 28.6667 6.66671 24.18 6.66671 18.6667C6.66671 18.3 6.36671 18 6.00004 18C5.63337 18 5.33337 18.3 5.33337 18.6667C5.33337 24.92 10.42 30 16.6667 30C22.9134 30 28 24.92 28 18.6667C28 13.3333 24.2867 8.84 19.3134 7.65333ZM12.6667 4.66667C12.3 4.66667 12 4.36667 12 4C12 3.63333 12.3 3.33333 12.6667 3.33333H20.6667C21.0334 3.33333 21.3334 3.63333 21.3334 4C21.3334 4.36667 21.0334 4.66667 20.6667 4.66667H12.6667ZM15.3334 7.41333V6H18V7.41333C17.56 7.36 17.12 7.33333 16.6667 7.33333C16.2134 7.33333 15.7734 7.36 15.3334 7.41333Z" fill="black" fill-opacity="0.72"/>
<path d="M9.33337 11.3333H6.66671C6.30004 11.3333 6.00004 11.0333 6.00004 10.6667C6.00004 10.3 6.30004 10 6.66671 10H9.33337C9.70004 10 10 10.3 10 10.6667C10 11.0333 9.70004 11.3333 9.33337 11.3333Z" fill="black" fill-opacity="0.72"/>
<path d="M8.66671 14H2.00004C1.63337 14 1.33337 13.7 1.33337 13.3333C1.33337 12.9667 1.63337 12.6667 2.00004 12.6667H8.66671C9.03337 12.6667 9.33337 12.9667 9.33337 13.3333C9.33337 13.7 9.03337 14 8.66671 14Z" fill="black" fill-opacity="0.72"/>
<path d="M9.33337 16.6667H5.33337C4.96671 16.6667 4.66671 16.3667 4.66671 16C4.66671 15.6333 4.96671 15.3333 5.33337 15.3333H9.33337C9.70004 15.3333 10 15.6333 10 16C10 16.3667 9.70004 16.6667 9.33337 16.6667Z" fill="black" fill-opacity="0.72"/>
<path d="M16.6667 19.3332C16.4934 19.3332 16.3267 19.2666 16.1934 19.1399L14.1934 17.1399C13.9334 16.8799 13.9334 16.4599 14.1934 16.1999C14.4534 15.9399 14.8734 15.9399 15.1334 16.1999L17.1334 18.1999C17.3934 18.4599 17.3934 18.8799 17.1334 19.1399C17.0001 19.2732 16.8334 19.3332 16.6601 19.3332H16.6667Z" fill="black" fill-opacity="0.72"/>
</g>
</g>
</svg>
