<svg width="14" height="24" viewBox="0 0 14 24" fill="none" xmlns="http://www.w3.org/2000/svg">
<g id="label-paired / md / arrow-right-to-line-md / regular" clip-path="url(#clip0_1731_3430)">
<path id="icon" d="M14 6.5V17.5C13.9792 17.8125 13.8125 17.9792 13.5 18C13.1875 17.9792 13.0208 17.8125 13 17.5V6.5C13.0208 6.1875 13.1875 6.02083 13.5 6C13.8125 6.02083 13.9792 6.1875 14 6.5ZM10.8438 12.3438L6.84375 16.3438C6.61458 16.5521 6.38542 16.5521 6.15625 16.3438C5.94792 16.1146 5.94792 15.8854 6.15625 15.6562L9.28125 12.5H6H0.5C0.1875 12.4792 0.0208333 12.3125 0 12C0.0208333 11.6875 0.1875 11.5208 0.5 11.5H6H9.28125L6.15625 8.34375C5.94792 8.11458 5.94792 7.88542 6.15625 7.65625C6.38542 7.44792 6.61458 7.44792 6.84375 7.65625L10.8438 11.6562C11.0521 11.8854 11.0521 12.1146 10.8438 12.3438Z" fill="black" fill-opacity="0.72"/>
</g>
<defs>
<clipPath id="clip0_1731_3430">
<rect width="14" height="24" fill="white"/>
</clipPath>
</defs>
</svg>
