<svg width="14" height="24" viewBox="0 0 14 24" fill="none" xmlns="http://www.w3.org/2000/svg">
<g id="label-paired / md / arrow-down-to-bracket-md / bold" clip-path="url(#clip0_1731_3152)">
<path id="icon" d="M11.5312 10.7812L7.53125 14.7812C7.17708 15.0729 6.82292 15.0729 6.46875 14.7812L2.46875 10.7812C2.17708 10.4271 2.17708 10.0729 2.46875 9.71875C2.82292 9.42708 3.17708 9.42708 3.53125 9.71875L6.25 12.4375V4.75C6.29167 4.29167 6.54167 4.04167 7 4C7.45833 4.04167 7.70833 4.29167 7.75 4.75V12.4375L10.4688 9.71875C10.8229 9.42708 11.1771 9.42708 11.5312 9.71875C11.8229 10.0729 11.8229 10.4271 11.5312 10.7812ZM1.5 14.75V17.25C1.5 17.6042 1.625 17.8958 1.875 18.125C2.10417 18.375 2.39583 18.5 2.75 18.5H11.25C11.6042 18.5 11.8958 18.375 12.125 18.125C12.375 17.8958 12.5 17.6042 12.5 17.25V14.75C12.5417 14.2917 12.7917 14.0417 13.25 14C13.7083 14.0417 13.9583 14.2917 14 14.75V17.25C13.9792 18.0208 13.7083 18.6667 13.1875 19.1875C12.6667 19.7083 12.0208 19.9792 11.25 20H2.75C1.97917 19.9792 1.33333 19.7083 0.8125 19.1875C0.291667 18.6667 0.0208333 18.0208 0 17.25V14.75C0.0416667 14.2917 0.291667 14.0417 0.75 14C1.20833 14.0417 1.45833 14.2917 1.5 14.75Z" fill="black" fill-opacity="0.72"/>
</g>
<defs>
<clipPath id="clip0_1731_3152">
<rect width="14" height="24" fill="white"/>
</clipPath>
</defs>
</svg>
