<svg width="16" height="24" viewBox="0 0 16 24" fill="none" xmlns="http://www.w3.org/2000/svg">
<g id="label-paired / md / arrow-up-from-square-md / regular" clip-path="url(#clip0_1731_3175)">
<path id="icon" d="M8.34375 4.15625L11.5938 7.40625C11.8021 7.63542 11.8021 7.86458 11.5938 8.09375C11.3646 8.30208 11.1354 8.30208 10.9062 8.09375L8.5 5.71875V14C8.47917 14.3125 8.3125 14.4792 8 14.5C7.6875 14.4792 7.52083 14.3125 7.5 14V5.71875L5.09375 8.09375C4.86458 8.30208 4.63542 8.30208 4.40625 8.09375C4.19792 7.86458 4.19792 7.63542 4.40625 7.40625L7.65625 4.15625C7.88542 3.94792 8.11458 3.94792 8.34375 4.15625ZM2 5H3C3.3125 5.02083 3.47917 5.1875 3.5 5.5C3.47917 5.8125 3.3125 5.97917 3 6H2C1.70833 6 1.46875 6.09375 1.28125 6.28125C1.09375 6.46875 1 6.70833 1 7V18C1 18.2917 1.09375 18.5312 1.28125 18.7188C1.46875 18.9062 1.70833 19 2 19H14C14.2917 19 14.5312 18.9062 14.7188 18.7188C14.9062 18.5312 15 18.2917 15 18V7C15 6.70833 14.9062 6.46875 14.7188 6.28125C14.5312 6.09375 14.2917 6 14 6H13C12.6875 5.97917 12.5208 5.8125 12.5 5.5C12.5208 5.1875 12.6875 5.02083 13 5H14C14.5625 5.02083 15.0312 5.21875 15.4062 5.59375C15.7812 5.96875 15.9792 6.4375 16 7V18C15.9792 18.5625 15.7812 19.0312 15.4062 19.4062C15.0312 19.7812 14.5625 19.9792 14 20H2C1.4375 19.9792 0.96875 19.7812 0.59375 19.4062C0.21875 19.0312 0.0208333 18.5625 0 18V7C0.0208333 6.4375 0.21875 5.96875 0.59375 5.59375C0.96875 5.21875 1.4375 5.02083 2 5Z" fill="black" fill-opacity="0.72"/>
</g>
<defs>
<clipPath id="clip0_1731_3175">
<rect width="16" height="24" fill="white"/>
</clipPath>
</defs>
</svg>
