<svg width="14" height="24" viewBox="0 0 14 24" fill="none" xmlns="http://www.w3.org/2000/svg">
<g id="label-paired / md / arrow-down-to-bracket-md / regular" clip-path="url(#clip0_1731_3150)">
<path id="icon" d="M11.3438 10.8438L7.34375 14.8438C7.11458 15.0521 6.88542 15.0521 6.65625 14.8438L2.65625 10.8438C2.44792 10.6146 2.44792 10.3854 2.65625 10.1562C2.88542 9.94792 3.11458 9.94792 3.34375 10.1562L6.5 13.2812V4.5C6.52083 4.1875 6.6875 4.02083 7 4C7.3125 4.02083 7.47917 4.1875 7.5 4.5V13.2812L10.6562 10.1562C10.8854 9.94792 11.1146 9.94792 11.3438 10.1562C11.5521 10.3854 11.5521 10.6146 11.3438 10.8438ZM1 14.5V17.5C1.02083 17.9167 1.16667 18.2708 1.4375 18.5625C1.72917 18.8333 2.08333 18.9792 2.5 19H11.5C11.9167 18.9792 12.2708 18.8333 12.5625 18.5625C12.8333 18.2708 12.9792 17.9167 13 17.5V14.5C13.0208 14.1875 13.1875 14.0208 13.5 14C13.8125 14.0208 13.9792 14.1875 14 14.5V17.5C13.9792 18.2083 13.7396 18.8021 13.2812 19.2812C12.8021 19.7396 12.2083 19.9792 11.5 20H2.5C1.79167 19.9792 1.19792 19.7396 0.71875 19.2812C0.260417 18.8021 0.0208333 18.2083 0 17.5V14.5C0.0208333 14.1875 0.1875 14.0208 0.5 14C0.8125 14.0208 0.979167 14.1875 1 14.5Z" fill="black" fill-opacity="0.72"/>
</g>
<defs>
<clipPath id="clip0_1731_3150">
<rect width="14" height="24" fill="white"/>
</clipPath>
</defs>
</svg>
