<svg width="14" height="24" viewBox="0 0 14 24" fill="none" xmlns="http://www.w3.org/2000/svg">
<g id="label-paired / md / arrow-right-arrow-left-md / bold" clip-path="url(#clip0_1731_3507)">
<path id="icon" d="M3.21875 19.5312L0.21875 16.5312C-0.0729167 16.1771 -0.0729167 15.8229 0.21875 15.4688L3.21875 12.4688C3.57292 12.1771 3.92708 12.1771 4.28125 12.4688C4.57292 12.8229 4.57292 13.1771 4.28125 13.5312L2.5625 15.25H13.25C13.7083 15.2917 13.9583 15.5417 14 16C13.9583 16.4583 13.7083 16.7083 13.25 16.75H2.5625L4.28125 18.4688C4.57292 18.8229 4.57292 19.1771 4.28125 19.5312C3.92708 19.8229 3.57292 19.8229 3.21875 19.5312ZM13.7812 8.53125L10.7812 11.5312C10.4271 11.8229 10.0729 11.8229 9.71875 11.5312C9.42708 11.1771 9.42708 10.8229 9.71875 10.4688L11.4375 8.75H0.75C0.291667 8.70833 0.0416667 8.45833 0 8C0.0416667 7.54167 0.291667 7.29167 0.75 7.25H11.4375L9.71875 5.53125C9.42708 5.17708 9.42708 4.82292 9.71875 4.46875C10.0729 4.17708 10.4271 4.17708 10.7812 4.46875L13.7812 7.46875C14.0729 7.82292 14.0729 8.17708 13.7812 8.53125Z" fill="black" fill-opacity="0.72"/>
</g>
<defs>
<clipPath id="clip0_1731_3507">
<rect width="14" height="24" fill="white"/>
</clipPath>
</defs>
</svg>
