<svg width="16" height="24" viewBox="0 0 16 24" fill="none" xmlns="http://www.w3.org/2000/svg">
<g id="label-paired / md / arrow-up-right-from-square-md / bold" clip-path="url(#clip0_1731_3182)">
<path id="icon" d="M9.5 4.75C9.54167 4.29167 9.79167 4.04167 10.25 4H15.25C15.7083 4.04167 15.9583 4.29167 16 4.75V9.75C15.9583 10.2083 15.7083 10.4583 15.25 10.5C14.7917 10.4583 14.5417 10.2083 14.5 9.75V6.5625L7.53125 13.5312C7.17708 13.8229 6.82292 13.8229 6.46875 13.5312C6.17708 13.1771 6.17708 12.8229 6.46875 12.4688L13.4375 5.5H10.25C9.79167 5.45833 9.54167 5.20833 9.5 4.75ZM2.25 5H6.25C6.70833 5.04167 6.95833 5.29167 7 5.75C6.95833 6.20833 6.70833 6.45833 6.25 6.5H2.25C1.79167 6.54167 1.54167 6.79167 1.5 7.25V17.75C1.54167 18.2083 1.79167 18.4583 2.25 18.5H12.75C13.2083 18.4583 13.4583 18.2083 13.5 17.75V13.75C13.5417 13.2917 13.7917 13.0417 14.25 13C14.7083 13.0417 14.9583 13.2917 15 13.75V17.75C14.9792 18.3958 14.7604 18.9271 14.3438 19.3438C13.9271 19.7604 13.3958 19.9792 12.75 20H2.25C1.60417 19.9792 1.07292 19.7604 0.65625 19.3438C0.239583 18.9271 0.0208333 18.3958 0 17.75V7.25C0.0208333 6.60417 0.239583 6.07292 0.65625 5.65625C1.07292 5.23958 1.60417 5.02083 2.25 5Z" fill="black" fill-opacity="0.72"/>
</g>
<defs>
<clipPath id="clip0_1731_3182">
<rect width="16" height="24" fill="white"/>
</clipPath>
</defs>
</svg>
