<svg width="12" height="24" viewBox="0 0 12 24" fill="none" xmlns="http://www.w3.org/2000/svg">
<g id="label-paired / md / arrow-up-md / bold" clip-path="url(#clip0_1731_3347)">
<path id="icon" d="M6.53125 5.21875V5.25L11.7812 10.75C12.0729 11.1042 12.0729 11.4479 11.7812 11.7812C11.4062 12.0729 11.0521 12.0729 10.7188 11.7812L6.75 7.625V18.25C6.70833 18.7083 6.45833 18.9583 6 19C5.54167 18.9583 5.29167 18.7083 5.25 18.25V7.625L1.28125 11.75C0.947917 12.0625 0.59375 12.0729 0.21875 11.7812C-0.0729167 11.4479 -0.0729167 11.0938 0.21875 10.7188L5.46875 5.21875C5.61458 5.07292 5.79167 5 6 5C6.20833 5 6.38542 5.07292 6.53125 5.21875Z" fill="black" fill-opacity="0.72"/>
</g>
<defs>
<clipPath id="clip0_1731_3347">
<rect width="12" height="24" fill="white"/>
</clipPath>
</defs>
</svg>
