<svg width="14" height="24" viewBox="0 0 14 24" fill="none" xmlns="http://www.w3.org/2000/svg">
<g id="label-paired / md / arrow-left-md / bold" clip-path="url(#clip0_1731_3362)">
<path id="icon" d="M0.21875 12.5312C0.0729167 12.3854 0 12.2083 0 12C0 11.7917 0.0729167 11.6146 0.21875 11.4688L5.71875 6.21875C6.09375 5.92708 6.44792 5.92708 6.78125 6.21875C7.07292 6.59375 7.0625 6.94792 6.75 7.28125L2.625 11.25H13.25C13.7083 11.2917 13.9583 11.5417 14 12C13.9583 12.4583 13.7083 12.7083 13.25 12.75H2.625L6.78125 16.7188C7.07292 17.0521 7.07292 17.4062 6.78125 17.7812C6.44792 18.0729 6.10417 18.0729 5.75 17.7812L0.25 12.5312H0.21875Z" fill="black" fill-opacity="0.72"/>
</g>
<defs>
<clipPath id="clip0_1731_3362">
<rect width="14" height="24" fill="white"/>
</clipPath>
</defs>
</svg>
