<svg width="10" height="24" viewBox="0 0 10 24" fill="none" xmlns="http://www.w3.org/2000/svg">
<g id="label-paired / md / backward-step-md / regular" clip-path="url(#clip0_1731_4073)">
<path id="icon" d="M2 6.5V10.75L7.59375 6.1875C7.73958 6.0625 7.91667 6 8.125 6C8.375 6 8.58333 6.08333 8.75 6.25C8.91667 6.41667 9 6.625 9 6.875V17.125C9 17.375 8.91667 17.5833 8.75 17.75C8.58333 17.9167 8.375 18 8.125 18C7.91667 18 7.73958 17.9375 7.59375 17.8125L2 13.25V17.5C1.97917 17.8125 1.8125 17.9792 1.5 18C1.1875 17.9792 1.02083 17.8125 1 17.5V12.4375V11.5625V6.5C1.02083 6.1875 1.1875 6.02083 1.5 6C1.8125 6.02083 1.97917 6.1875 2 6.5ZM8 7.15625L2.03125 12L8 16.8438V7.15625Z" fill="black" fill-opacity="0.72"/>
</g>
<defs>
<clipPath id="clip0_1731_4073">
<rect width="10" height="24" fill="white"/>
</clipPath>
</defs>
</svg>
