<svg width="14" height="24" viewBox="0 0 14 24" fill="none" xmlns="http://www.w3.org/2000/svg">
<g id="label-paired / md / bars-filter-md / bold" clip-path="url(#clip0_1731_3669)">
<path id="icon" d="M0 6.75C0.0416667 6.29167 0.291667 6.04167 0.75 6H13.25C13.7083 6.04167 13.9583 6.29167 14 6.75C13.9583 7.20833 13.7083 7.45833 13.25 7.5H0.75C0.291667 7.45833 0.0416667 7.20833 0 6.75ZM2 11.75C2.04167 11.2917 2.29167 11.0417 2.75 11H11.25C11.7083 11.0417 11.9583 11.2917 12 11.75C11.9583 12.2083 11.7083 12.4583 11.25 12.5H2.75C2.29167 12.4583 2.04167 12.2083 2 11.75ZM9 16.75C8.95833 17.2083 8.70833 17.4583 8.25 17.5H5.75C5.29167 17.4583 5.04167 17.2083 5 16.75C5.04167 16.2917 5.29167 16.0417 5.75 16H8.25C8.70833 16.0417 8.95833 16.2917 9 16.75Z" fill="black" fill-opacity="0.72"/>
</g>
<defs>
<clipPath id="clip0_1731_3669">
<rect width="14" height="24" fill="white"/>
</clipPath>
</defs>
</svg>
