<svg width="20" height="24" viewBox="0 0 20 24" fill="none" xmlns="http://www.w3.org/2000/svg">
<g id="label-paired / md / bell-on-md / regular" clip-path="url(#clip0_1731_3809)">
<path id="icon" d="M18.9375 4.28125C19.0625 4.55208 18.9896 4.77083 18.7188 4.9375L16.7188 5.9375C16.4271 6.0625 16.2083 5.98958 16.0625 5.71875C15.9375 5.42708 16.0104 5.20833 16.2812 5.0625L18.2812 4.0625C18.5521 3.9375 18.7708 4.01042 18.9375 4.28125ZM9.5 4.5C9.52083 4.1875 9.6875 4.02083 10 4C10.3125 4.02083 10.4792 4.1875 10.5 4.5V5.03125C11.7917 5.17708 12.8542 5.70833 13.6875 6.625C14.5417 7.54167 14.9792 8.66667 15 10V10.9062C15.0208 12.3229 15.5208 13.5417 16.5 14.5625L16.5938 14.6562C16.8646 14.9271 17 15.25 17 15.625C17 16.0208 16.8646 16.3438 16.5938 16.5938C16.3438 16.8646 16.0208 17 15.625 17H4.375C3.97917 17 3.65625 16.8646 3.40625 16.5938C3.13542 16.3438 3 16.0208 3 15.625C3 15.25 3.13542 14.9167 3.40625 14.625L3.5 14.5625C4.47917 13.5417 4.97917 12.3229 5 10.9062V10C5.04167 8.66667 5.47917 7.54167 6.3125 6.625C7.14583 5.70833 8.20833 5.17708 9.5 5.03125V4.5ZM10 6C8.875 6.02083 7.92708 6.40625 7.15625 7.15625C6.40625 7.92708 6.02083 8.875 6 10V10.9062C5.97917 12.5938 5.375 14.0417 4.1875 15.25L4.125 15.3438C4.04167 15.4271 4 15.5208 4 15.625C4.02083 15.8542 4.14583 15.9792 4.375 16H15.625C15.8542 15.9792 15.9792 15.8542 16 15.625C16 15.5208 15.9583 15.4271 15.875 15.3438L15.8125 15.25C14.625 14.0417 14.0208 12.5938 14 10.9062V10C13.9792 8.875 13.5833 7.92708 12.8125 7.15625C12.0625 6.40625 11.125 6.02083 10 6ZM9.0625 18.3438C9.22917 18.7604 9.54167 18.9792 10 19C10.4583 18.9792 10.7708 18.7604 10.9375 18.3438C11.0625 18.0521 11.2812 17.9479 11.5938 18.0312C11.8646 18.1562 11.9583 18.3646 11.875 18.6562C11.7292 19.0521 11.4896 19.375 11.1562 19.625C10.8229 19.875 10.4375 20 10 20C9.5625 20 9.17708 19.875 8.84375 19.625C8.51042 19.375 8.27083 19.0521 8.125 18.6562C8.04167 18.3646 8.13542 18.1562 8.40625 18.0312C8.71875 17.9479 8.9375 18.0521 9.0625 18.3438ZM0 9.5C0.0208333 9.1875 0.1875 9.02083 0.5 9H3C3.3125 9.02083 3.47917 9.1875 3.5 9.5C3.47917 9.8125 3.3125 9.97917 3 10H0.5C0.1875 9.97917 0.0208333 9.8125 0 9.5ZM17 9H19.5C19.8125 9.02083 19.9792 9.1875 20 9.5C19.9792 9.8125 19.8125 9.97917 19.5 10H17C16.6875 9.97917 16.5208 9.8125 16.5 9.5C16.5208 9.1875 16.6875 9.02083 17 9ZM1.28125 4.9375C1.01042 4.77083 0.9375 4.55208 1.0625 4.28125C1.20833 4.01042 1.42708 3.9375 1.71875 4.0625L3.71875 5.0625C3.98958 5.20833 4.0625 5.42708 3.9375 5.71875C3.79167 5.98958 3.57292 6.0625 3.28125 5.9375L1.28125 4.9375Z" fill="black" fill-opacity="0.72"/>
</g>
<defs>
<clipPath id="clip0_1731_3809">
<rect width="20" height="24" fill="white"/>
</clipPath>
</defs>
</svg>
