<svg width="20" height="24" viewBox="0 0 20 24" fill="none" xmlns="http://www.w3.org/2000/svg">
<g id="label-paired / md / bell-slash-md / bold" clip-path="url(#clip0_1731_3806)">
<path id="icon" d="M1.21875 4.15625L5.75 7.71875C6.5 6.53125 7.58333 5.8125 9 5.5625V5C9 4.70833 9.09375 4.46875 9.28125 4.28125C9.46875 4.09375 9.70833 4 10 4C10.2917 4 10.5312 4.09375 10.7188 4.28125C10.9062 4.46875 11 4.70833 11 5V5.5625C12.1667 5.77083 13.1146 6.30208 13.8438 7.15625C14.5938 8.01042 14.9792 9.04167 15 10.25V11.2812C15.0208 12.7396 15.4792 14.0417 16.375 15.1875L16.8438 15.7812C17.0104 16.0104 17.0521 16.25 16.9688 16.5L19.7188 18.6562C20.0521 18.9688 20.0938 19.3229 19.8438 19.7188C19.5312 20.0521 19.1771 20.0938 18.7812 19.8438L0.28125 5.34375C-0.0520833 5.03125 -0.09375 4.67708 0.15625 4.28125C0.46875 3.94792 0.822917 3.90625 1.21875 4.15625ZM6.9375 8.625L14.0938 14.25C13.6979 13.3125 13.5 12.3229 13.5 11.2812V10.25C13.4792 9.33333 13.1667 8.5625 12.5625 7.9375C11.9375 7.33333 11.1667 7.02083 10.25 7H10H9.75C9.14583 7 8.59375 7.14583 8.09375 7.4375C7.59375 7.75 7.20833 8.14583 6.9375 8.625ZM12.6875 17H3.75C3.4375 16.9792 3.20833 16.8333 3.0625 16.5625C2.95833 16.2917 2.98958 16.0312 3.15625 15.7812L3.625 15.1875C4.52083 14.0417 4.97917 12.75 5 11.3125V10.9375L6.46875 12.0938C6.32292 13.3229 5.91667 14.4583 5.25 15.5H10.7812L12.6875 17ZM12 18C12 18.5417 11.8021 19.0104 11.4062 19.4062C11.0104 19.8021 10.5417 20 10 20C9.45833 20 8.98958 19.8021 8.59375 19.4062C8.19792 19.0104 8 18.5417 8 18H10H12Z" fill="black" fill-opacity="0.72"/>
</g>
<defs>
<clipPath id="clip0_1731_3806">
<rect width="20" height="24" fill="white"/>
</clipPath>
</defs>
</svg>
