<svg width="16" height="24" viewBox="0 0 16 24" fill="none" xmlns="http://www.w3.org/2000/svg">
<g id="label-paired / md / calendar-range-md / regular" clip-path="url(#clip0_1731_3115)">
<path id="icon" d="M4.5 4C4.8125 4.02083 4.97917 4.1875 5 4.5V6H11V4.5C11.0208 4.1875 11.1875 4.02083 11.5 4C11.8125 4.02083 11.9792 4.1875 12 4.5V6H13C13.5625 6.02083 14.0312 6.21875 14.4062 6.59375C14.7812 6.96875 14.9792 7.4375 15 8V9V10V18C14.9792 18.5625 14.7812 19.0312 14.4062 19.4062C14.0312 19.7812 13.5625 19.9792 13 20H3C2.4375 19.9792 1.96875 19.7812 1.59375 19.4062C1.21875 19.0312 1.02083 18.5625 1 18V10V9V8C1.02083 7.4375 1.21875 6.96875 1.59375 6.59375C1.96875 6.21875 2.4375 6.02083 3 6H4V4.5C4.02083 4.1875 4.1875 4.02083 4.5 4ZM14 10H2V18C2 18.2917 2.09375 18.5312 2.28125 18.7188C2.46875 18.9062 2.70833 19 3 19H13C13.2917 19 13.5312 18.9062 13.7188 18.7188C13.9062 18.5312 14 18.2917 14 18V10ZM13 7H3C2.70833 7 2.46875 7.09375 2.28125 7.28125C2.09375 7.46875 2 7.70833 2 8V9H14V8C14 7.70833 13.9062 7.46875 13.7188 7.28125C13.5312 7.09375 13.2917 7 13 7ZM13 12.5C12.9792 12.8125 12.8125 12.9792 12.5 13H7.5C7.1875 12.9792 7.02083 12.8125 7 12.5C7.02083 12.1875 7.1875 12.0208 7.5 12H12.5C12.8125 12.0208 12.9792 12.1875 13 12.5ZM8.5 17H3.5C3.1875 16.9792 3.02083 16.8125 3 16.5C3.02083 16.1875 3.1875 16.0208 3.5 16H8.5C8.8125 16.0208 8.97917 16.1875 9 16.5C8.97917 16.8125 8.8125 16.9792 8.5 17ZM4 12.5C4.02083 12.8125 4.1875 12.9792 4.5 13C4.8125 12.9792 4.97917 12.8125 5 12.5C4.97917 12.1875 4.8125 12.0208 4.5 12C4.1875 12.0208 4.02083 12.1875 4 12.5ZM4.5 14C3.9375 13.9792 3.5 13.7292 3.1875 13.25C2.9375 12.75 2.9375 12.25 3.1875 11.75C3.5 11.2708 3.9375 11.0208 4.5 11C5.0625 11.0208 5.5 11.2708 5.8125 11.75C6.0625 12.25 6.0625 12.75 5.8125 13.25C5.5 13.7292 5.0625 13.9792 4.5 14ZM11.5 17C11.8125 16.9792 11.9792 16.8125 12 16.5C11.9792 16.1875 11.8125 16.0208 11.5 16C11.1875 16.0208 11.0208 16.1875 11 16.5C11.0208 16.8125 11.1875 16.9792 11.5 17ZM13 16.5C12.9792 17.0625 12.7292 17.5 12.25 17.8125C11.75 18.0625 11.25 18.0625 10.75 17.8125C10.2708 17.5 10.0208 17.0625 10 16.5C10.0208 15.9375 10.2708 15.5 10.75 15.1875C11.25 14.9375 11.75 14.9375 12.25 15.1875C12.7292 15.5 12.9792 15.9375 13 16.5Z" fill="black" fill-opacity="0.72"/>
</g>
<defs>
<clipPath id="clip0_1731_3115">
<rect width="16" height="24" fill="white"/>
</clipPath>
</defs>
</svg>
