<svg width="10" height="24" viewBox="0 0 10 24" fill="none" xmlns="http://www.w3.org/2000/svg">
<g id="label-paired / md / caret-up-md / regular" clip-path="url(#clip0_1731_4157)">
<path id="icon" d="M4.8125 9.0625L1.0625 12.625C1.02083 12.6667 1 12.7188 1 12.7812C1.02083 12.9062 1.09375 12.9792 1.21875 13H8.78125C8.90625 12.9792 8.97917 12.9062 9 12.7812C9 12.7188 8.97917 12.6667 8.9375 12.625L5.1875 9.0625C5.125 9.02083 5.0625 9 5 9C4.9375 9 4.875 9.02083 4.8125 9.0625ZM4.125 8.34375C4.375 8.11458 4.66667 8 5 8C5.33333 8 5.625 8.11458 5.875 8.34375L9.625 11.9062C9.875 12.1354 10 12.4271 10 12.7812C10 13.1354 9.88542 13.4271 9.65625 13.6562C9.42708 13.8854 9.13542 14 8.78125 14H1.21875C0.864583 14 0.572917 13.8854 0.34375 13.6562C0.114583 13.4271 0 13.1354 0 12.7812C0 12.4271 0.125 12.125 0.375 11.875L4.125 8.34375Z" fill="black" fill-opacity="0.72"/>
</g>
<defs>
<clipPath id="clip0_1731_4157">
<rect width="10" height="24" fill="white"/>
</clipPath>
</defs>
</svg>
