<svg width="16" height="24" viewBox="0 0 16 24" fill="none" xmlns="http://www.w3.org/2000/svg">
<g id="label-paired / md / cash-register-md / bold" clip-path="url(#clip0_1731_4240)">
<path id="icon" d="M2 4H9C9.29167 4 9.53125 4.09375 9.71875 4.28125C9.90625 4.46875 10 4.70833 10 5V7C10 7.29167 9.90625 7.53125 9.71875 7.71875C9.53125 7.90625 9.29167 8 9 8H6.5V9H13.25C13.7708 9 14.2083 9.16667 14.5625 9.5C14.9375 9.8125 15.1667 10.2188 15.25 10.7188L15.9688 15.875C15.9896 15.9583 16 16.0521 16 16.1562V18C15.9792 18.5625 15.7812 19.0312 15.4062 19.4062C15.0312 19.7812 14.5625 19.9792 14 20H2C1.4375 19.9792 0.96875 19.7812 0.59375 19.4062C0.21875 19.0312 0.0208333 18.5625 0 18V16.1562C0 16.0938 0 16.0417 0 16C0 15.9583 0.0104167 15.9167 0.03125 15.875L0.75 10.7188C0.833333 10.2188 1.0625 9.8125 1.4375 9.5C1.79167 9.16667 2.22917 9 2.75 9H4.5V8H2C1.70833 8 1.46875 7.90625 1.28125 7.71875C1.09375 7.53125 1 7.29167 1 7V5C1 4.70833 1.09375 4.46875 1.28125 4.28125C1.46875 4.09375 1.70833 4 2 4ZM3 5.5C2.6875 5.52083 2.52083 5.6875 2.5 6C2.52083 6.3125 2.6875 6.47917 3 6.5H8C8.3125 6.47917 8.47917 6.3125 8.5 6C8.47917 5.6875 8.3125 5.52083 8 5.5H3ZM1.5 18C1.52083 18.3125 1.6875 18.4792 2 18.5H14C14.3125 18.4792 14.4792 18.3125 14.5 18V17.5H1.5V18ZM13.75 10.9375C13.7083 10.6667 13.5521 10.5208 13.2812 10.5H2.75C2.45833 10.5208 2.29167 10.6667 2.25 10.9375L1.53125 16H14.5L13.75 10.9375ZM3.5 11.25C3.95833 11.2917 4.20833 11.5417 4.25 12C4.20833 12.4583 3.95833 12.7083 3.5 12.75C3.04167 12.7083 2.79167 12.4583 2.75 12C2.79167 11.5417 3.04167 11.2917 3.5 11.25ZM5.75 12C5.79167 11.5417 6.04167 11.2917 6.5 11.25C6.95833 11.2917 7.20833 11.5417 7.25 12C7.20833 12.4583 6.95833 12.7083 6.5 12.75C6.04167 12.7083 5.79167 12.4583 5.75 12ZM5 13.75C5.45833 13.7917 5.70833 14.0417 5.75 14.5C5.70833 14.9583 5.45833 15.2083 5 15.25C4.54167 15.2083 4.29167 14.9583 4.25 14.5C4.29167 14.0417 4.54167 13.7917 5 13.75ZM8.75 12C8.79167 11.5417 9.04167 11.2917 9.5 11.25C9.95833 11.2917 10.2083 11.5417 10.25 12C10.2083 12.4583 9.95833 12.7083 9.5 12.75C9.04167 12.7083 8.79167 12.4583 8.75 12ZM8 13.75C8.45833 13.7917 8.70833 14.0417 8.75 14.5C8.70833 14.9583 8.45833 15.2083 8 15.25C7.54167 15.2083 7.29167 14.9583 7.25 14.5C7.29167 14.0417 7.54167 13.7917 8 13.75ZM11.75 12C11.7917 11.5417 12.0417 11.2917 12.5 11.25C12.9583 11.2917 13.2083 11.5417 13.25 12C13.2083 12.4583 12.9583 12.7083 12.5 12.75C12.0417 12.7083 11.7917 12.4583 11.75 12ZM11 13.75C11.4583 13.7917 11.7083 14.0417 11.75 14.5C11.7083 14.9583 11.4583 15.2083 11 15.25C10.5417 15.2083 10.2917 14.9583 10.25 14.5C10.2917 14.0417 10.5417 13.7917 11 13.75Z" fill="black" fill-opacity="0.72"/>
</g>
<defs>
<clipPath id="clip0_1731_4240">
<rect width="16" height="24" fill="white"/>
</clipPath>
</defs>
</svg>
