<svg width="16" height="24" viewBox="0 0 16 24" fill="none" xmlns="http://www.w3.org/2000/svg">
<g id="label-paired / md / chart-line-up-down-md / bold" clip-path="url(#clip0_1731_3785)">
<path id="icon" d="M0.75 5C1.20833 5.04167 1.45833 5.29167 1.5 5.75V16.75C1.54167 17.2083 1.79167 17.4583 2.25 17.5H15.25C15.7083 17.5417 15.9583 17.7917 16 18.25C15.9583 18.7083 15.7083 18.9583 15.25 19H2.25C1.60417 18.9792 1.07292 18.7604 0.65625 18.3438C0.239583 17.9271 0.0208333 17.3958 0 16.75V5.75C0.0416667 5.29167 0.291667 5.04167 0.75 5ZM11.75 7.5C11.2917 7.45833 11.0417 7.20833 11 6.75C11.0417 6.29167 11.2917 6.04167 11.75 6H14.25C14.4583 6 14.6354 6.07292 14.7812 6.21875C14.9271 6.36458 15 6.54167 15 6.75V9.25C14.9583 9.70833 14.7083 9.95833 14.25 10C13.7917 9.95833 13.5417 9.70833 13.5 9.25V8.5625L9.53125 12.5312C9.17708 12.8229 8.82292 12.8229 8.46875 12.5312L6.5 10.5625L4.53125 12.5312C4.17708 12.8229 3.82292 12.8229 3.46875 12.5312C3.17708 12.1771 3.17708 11.8229 3.46875 11.4688L5.96875 8.96875C6.32292 8.67708 6.67708 8.67708 7.03125 8.96875L9 10.9375L12.4375 7.5H11.75ZM11.75 16C11.2917 15.9583 11.0417 15.7083 11 15.25C11.0417 14.7917 11.2917 14.5417 11.75 14.5H12.4375L10.9688 13.0312L12.0312 11.9688L13.5 13.4375V12.75C13.5417 12.2917 13.7917 12.0417 14.25 12C14.7083 12.0417 14.9583 12.2917 15 12.75V15.25C15 15.4583 14.9271 15.6354 14.7812 15.7812C14.6354 15.9271 14.4583 16 14.25 16H11.75Z" fill="black" fill-opacity="0.72"/>
</g>
<defs>
<clipPath id="clip0_1731_3785">
<rect width="16" height="24" fill="white"/>
</clipPath>
</defs>
</svg>
