<svg width="16" height="24" viewBox="0 0 16 24" fill="none" xmlns="http://www.w3.org/2000/svg">
<g id="label-paired / md / chart-area-md / regular" clip-path="url(#clip0_1731_3768)">
<path id="icon" d="M1 5.5V16.5C1.02083 16.9167 1.16667 17.2708 1.4375 17.5625C1.72917 17.8333 2.08333 17.9792 2.5 18H15.5C15.8125 18.0208 15.9792 18.1875 16 18.5C15.9792 18.8125 15.8125 18.9792 15.5 19H2.5C1.79167 18.9792 1.19792 18.7396 0.71875 18.2812C0.260417 17.8021 0.0208333 17.2083 0 16.5V5.5C0.0208333 5.1875 0.1875 5.02083 0.5 5C0.8125 5.02083 0.979167 5.1875 1 5.5ZM9.28125 10.7188L7 8.40625L4.15625 11.2812C4.05208 11.3646 4 11.4792 4 11.625V15H14V12.0625C14 11.9375 13.9583 11.8229 13.875 11.7188L11.9375 9.46875L10.7188 10.7188C10.5104 10.9062 10.2708 11 10 11C9.72917 11 9.48958 10.9062 9.28125 10.7188ZM9.28125 9.28125L10 10L10.7188 9.28125L11.25 8.75C11.4583 8.5625 11.6979 8.46875 11.9688 8.46875C12.2604 8.48958 12.5 8.60417 12.6875 8.8125L14.625 11.0938C14.875 11.3646 15 11.6875 15 12.0625V15C15 15.2917 14.9062 15.5312 14.7188 15.7188C14.5312 15.9062 14.2917 16 14 16H4C3.70833 16 3.46875 15.9062 3.28125 15.7188C3.09375 15.5312 3 15.2917 3 15V11.625C3 11.2083 3.14583 10.8542 3.4375 10.5625L6.28125 7.71875C6.48958 7.51042 6.72917 7.40625 7 7.40625C7.27083 7.40625 7.51042 7.51042 7.71875 7.71875L9.28125 9.28125Z" fill="black" fill-opacity="0.72"/>
</g>
<defs>
<clipPath id="clip0_1731_3768">
<rect width="16" height="24" fill="white"/>
</clipPath>
</defs>
</svg>
