<svg width="20" height="24" viewBox="0 0 20 24" fill="none" xmlns="http://www.w3.org/2000/svg">
<g id="label-paired / md / chart-ohlc-md / bold" clip-path="url(#clip0_1731_3795)">
<path id="icon" d="M10 4C10.4062 4 10.75 4.34375 10.75 4.75V6H12C12.4062 6 12.75 6.34375 12.75 6.75C12.75 7.1875 12.4062 7.5 12 7.5H10.75V17.25C10.75 17.6875 10.4062 18 10 18C9.5625 18 9.25 17.6875 9.25 17.25V16H8C7.5625 16 7.25 15.6875 7.25 15.25C7.25 14.8438 7.5625 14.5 8 14.5H9.25V4.75C9.25 4.34375 9.5625 4 10 4ZM16.5 6C16.9062 6 17.25 6.34375 17.25 6.75V12.5H18.5C18.9062 12.5 19.25 12.8438 19.25 13.25C19.25 13.6875 18.9062 14 18.5 14H17.25V15.25C17.25 15.6875 16.9062 16 16.5 16C16.0625 16 15.75 15.6875 15.75 15.25V9.5H14.5C14.0625 9.5 13.75 9.1875 13.75 8.75C13.75 8.34375 14.0625 8 14.5 8H15.75V6.75C15.75 6.34375 16.0625 6 16.5 6ZM3.5 10C3.90625 10 4.25 10.3438 4.25 10.75V16.5H5.5C5.90625 16.5 6.25 16.8438 6.25 17.25C6.25 17.6875 5.90625 18 5.5 18H4.25V19.25C4.25 19.6875 3.90625 20 3.5 20C3.0625 20 2.75 19.6875 2.75 19.25V13.5H1.5C1.0625 13.5 0.75 13.1875 0.75 12.75C0.75 12.3438 1.0625 12 1.5 12H2.75V10.75C2.75 10.3438 3.0625 10 3.5 10Z" fill="black" fill-opacity="0.72"/>
</g>
<defs>
<clipPath id="clip0_1731_3795">
<rect width="20" height="24" fill="white"/>
</clipPath>
</defs>
</svg>
