<svg width="16" height="24" viewBox="0 0 16 24" fill="none" xmlns="http://www.w3.org/2000/svg">
<g id="label-paired / md / chart-line-md / bold" clip-path="url(#clip0_1731_3765)">
<path id="icon" d="M1.5 5.75V16.75C1.54167 17.2083 1.79167 17.4583 2.25 17.5H15.25C15.7083 17.5417 15.9583 17.7917 16 18.25C15.9583 18.7083 15.7083 18.9583 15.25 19H2.25C1.60417 18.9792 1.07292 18.7604 0.65625 18.3438C0.239583 17.9271 0.0208333 17.3958 0 16.75V5.75C0.0416667 5.29167 0.291667 5.04167 0.75 5C1.20833 5.04167 1.45833 5.29167 1.5 5.75ZM14.7812 9.28125L10.5312 13.5312C10.1771 13.8229 9.82292 13.8229 9.46875 13.5312L7 11.0625L4.53125 13.5312C4.17708 13.8229 3.82292 13.8229 3.46875 13.5312C3.17708 13.1771 3.17708 12.8229 3.46875 12.4688L6.46875 9.46875C6.61458 9.32292 6.79167 9.25 7 9.25C7.20833 9.25 7.38542 9.32292 7.53125 9.46875L10 11.9375L13.7188 8.21875C14.0729 7.92708 14.4271 7.92708 14.7812 8.21875C15.0729 8.57292 15.0729 8.92708 14.7812 9.28125Z" fill="black" fill-opacity="0.72"/>
</g>
<defs>
<clipPath id="clip0_1731_3765">
<rect width="16" height="24" fill="white"/>
</clipPath>
</defs>
</svg>
