<svg width="16" height="24" viewBox="0 0 16 24" fill="none" xmlns="http://www.w3.org/2000/svg">
<g id="label-paired / md / circle-five-md / bold" clip-path="url(#clip0_1731_3583)">
<path id="icon" d="M8 5.5C6.8125 5.5 5.72917 5.79167 4.75 6.375C3.77083 6.9375 2.97917 7.72917 2.375 8.75C1.79167 9.77083 1.5 10.8542 1.5 12C1.5 13.1458 1.79167 14.2292 2.375 15.25C2.97917 16.2708 3.77083 17.0625 4.75 17.625C5.72917 18.2083 6.8125 18.5 8 18.5C9.1875 18.5 10.2708 18.2083 11.25 17.625C12.2292 17.0625 13.0208 16.2708 13.625 15.25C14.2083 14.2292 14.5 13.1458 14.5 12C14.5 10.8542 14.2083 9.77083 13.625 8.75C13.0208 7.72917 12.2292 6.9375 11.25 6.375C10.2708 5.79167 9.1875 5.5 8 5.5ZM8 20C6.54167 19.9792 5.20833 19.625 4 18.9375C2.79167 18.2292 1.8125 17.25 1.0625 16C0.354167 14.7292 0 13.3958 0 12C0 10.6042 0.354167 9.27083 1.0625 8C1.8125 6.75 2.79167 5.77083 4 5.0625C5.20833 4.375 6.54167 4.02083 8 4C9.45833 4.02083 10.7917 4.375 12 5.0625C13.2083 5.77083 14.1875 6.75 14.9375 8C15.6458 9.27083 16 10.6042 16 12C16 13.3958 15.6458 14.7292 14.9375 16C14.1875 17.25 13.2083 18.2292 12 18.9375C10.7917 19.625 9.45833 19.9792 8 20ZM6.5 8H9.75C10.2083 8.04167 10.4583 8.29167 10.5 8.75C10.4583 9.20833 10.2083 9.45833 9.75 9.5H7.125L6.875 10.8438L8.8125 11.0625C9.4375 11.1458 9.95833 11.4167 10.375 11.875C10.7708 12.3333 10.9792 12.8854 11 13.5312C10.9792 14.2396 10.7396 14.8229 10.2812 15.2812C9.80208 15.7396 9.21875 15.9792 8.53125 16H7.40625C6.48958 15.9792 5.77083 15.5938 5.25 14.8438L5.125 14.6562C4.91667 14.2604 4.98958 13.9167 5.34375 13.625C5.73958 13.4167 6.08333 13.4896 6.375 13.8438L6.5 14.0312C6.72917 14.3438 7.03125 14.5 7.40625 14.5H8.53125C8.80208 14.5 9.03125 14.4062 9.21875 14.2188C9.40625 14.0312 9.5 13.8021 9.5 13.5312C9.45833 12.9896 9.16667 12.6667 8.625 12.5625L5.90625 12.25C5.69792 12.2292 5.53125 12.125 5.40625 11.9375C5.28125 11.7708 5.22917 11.5833 5.25 11.375L5.75 8.625C5.85417 8.22917 6.10417 8.02083 6.5 8Z" fill="black" fill-opacity="0.72"/>
</g>
<defs>
<clipPath id="clip0_1731_3583">
<rect width="16" height="24" fill="white"/>
</clipPath>
</defs>
</svg>
