<svg width="16" height="24" viewBox="0 0 16 24" fill="none" xmlns="http://www.w3.org/2000/svg">
<g id="label-paired / md / circle-three-md / bold" clip-path="url(#clip0_1731_3573)">
<path id="icon" d="M8 5.5C6.8125 5.5 5.72917 5.79167 4.75 6.375C3.77083 6.9375 2.97917 7.72917 2.375 8.75C1.79167 9.77083 1.5 10.8542 1.5 12C1.5 13.1458 1.79167 14.2292 2.375 15.25C2.97917 16.2708 3.77083 17.0625 4.75 17.625C5.72917 18.2083 6.8125 18.5 8 18.5C9.1875 18.5 10.2708 18.2083 11.25 17.625C12.2292 17.0625 13.0208 16.2708 13.625 15.25C14.2083 14.2292 14.5 13.1458 14.5 12C14.5 10.8542 14.2083 9.77083 13.625 8.75C13.0208 7.72917 12.2292 6.9375 11.25 6.375C10.2708 5.79167 9.1875 5.5 8 5.5ZM8 20C6.54167 19.9792 5.20833 19.625 4 18.9375C2.79167 18.2292 1.8125 17.25 1.0625 16C0.354167 14.7292 0 13.3958 0 12C0 10.6042 0.354167 9.27083 1.0625 8C1.8125 6.75 2.79167 5.77083 4 5.0625C5.20833 4.375 6.54167 4.02083 8 4C9.45833 4.02083 10.7917 4.375 12 5.0625C13.2083 5.77083 14.1875 6.75 14.9375 8C15.6458 9.27083 16 10.6042 16 12C16 13.3958 15.6458 14.7292 14.9375 16C14.1875 17.25 13.2083 18.2292 12 18.9375C10.7917 19.625 9.45833 19.9792 8 20ZM5.75 8H9.75C10.0833 8.02083 10.3125 8.17708 10.4375 8.46875C10.5417 8.78125 10.4792 9.0625 10.25 9.3125L8.65625 10.75C9.34375 10.8333 9.89583 11.125 10.3125 11.625C10.75 12.1042 10.9792 12.6875 11 13.375C10.9792 14.125 10.7188 14.7396 10.2188 15.2188C9.73958 15.7188 9.125 15.9792 8.375 16H7.5C6.5 15.9792 5.72917 15.5521 5.1875 14.7188L5.125 14.5938C4.91667 14.1771 4.98958 13.8333 5.34375 13.5625C5.76042 13.3542 6.10417 13.4375 6.375 13.8125L6.46875 13.9375C6.71875 14.2917 7.0625 14.4792 7.5 14.5H8.375C8.6875 14.5 8.95833 14.3958 9.1875 14.1875C9.39583 13.9583 9.5 13.6875 9.5 13.375C9.5 13.0417 9.38542 12.7708 9.15625 12.5625C8.94792 12.3542 8.6875 12.25 8.375 12.25H6.75C6.41667 12.2292 6.1875 12.0729 6.0625 11.7812C5.95833 11.4688 6.02083 11.1875 6.25 10.9375L7.8125 9.5H5.75C5.29167 9.45833 5.04167 9.20833 5 8.75C5.04167 8.29167 5.29167 8.04167 5.75 8Z" fill="black" fill-opacity="0.72"/>
</g>
<defs>
<clipPath id="clip0_1731_3573">
<rect width="16" height="24" fill="white"/>
</clipPath>
</defs>
</svg>
