<svg width="16" height="24" viewBox="0 0 16 24" fill="none" xmlns="http://www.w3.org/2000/svg">
<g id="label-paired / md / circle-sterling-md / regular" clip-path="url(#clip0_1731_4233)">
<path id="icon" d="M15 12C14.9792 10.7292 14.6667 9.5625 14.0625 8.5C13.4375 7.4375 12.5833 6.58333 11.5 5.9375C10.3958 5.3125 9.22917 5 8 5C6.77083 5 5.60417 5.3125 4.5 5.9375C3.41667 6.58333 2.5625 7.4375 1.9375 8.5C1.33333 9.5625 1.02083 10.7292 1 12C1.02083 13.2708 1.33333 14.4375 1.9375 15.5C2.5625 16.5625 3.41667 17.4167 4.5 18.0625C5.60417 18.6875 6.77083 19 8 19C9.22917 19 10.3958 18.6875 11.5 18.0625C12.5833 17.4167 13.4375 16.5625 14.0625 15.5C14.6667 14.4375 14.9792 13.2708 15 12ZM0 12C0.0208333 10.5417 0.375 9.20833 1.0625 8C1.77083 6.79167 2.75 5.8125 4 5.0625C5.27083 4.35417 6.60417 4 8 4C9.39583 4 10.7292 4.35417 12 5.0625C13.25 5.8125 14.2292 6.79167 14.9375 8C15.625 9.20833 15.9792 10.5417 16 12C15.9792 13.4583 15.625 14.7917 14.9375 16C14.2292 17.2083 13.25 18.1875 12 18.9375C10.7292 19.6458 9.39583 20 8 20C6.60417 20 5.27083 19.6458 4 18.9375C2.75 18.1875 1.77083 17.2083 1.0625 16C0.375 14.7917 0.0208333 13.4583 0 12ZM8.125 8.5C7.79167 8.5 7.52083 8.61458 7.3125 8.84375C7.10417 9.05208 6.98958 9.32292 6.96875 9.65625L7 11H8.5C8.8125 11.0208 8.97917 11.1875 9 11.5C8.97917 11.8125 8.8125 11.9792 8.5 12H7C6.95833 12.7083 6.77083 13.375 6.4375 14H10.25C10.5625 14.0208 10.7292 14.1875 10.75 14.5C10.7292 14.8125 10.5625 14.9792 10.25 15H5.5C5.3125 15 5.16667 14.9167 5.0625 14.75C4.97917 14.5625 4.98958 14.3854 5.09375 14.2188L5.375 13.8125C5.75 13.25 5.95833 12.6458 6 12H5.5C5.1875 11.9792 5.02083 11.8125 5 11.5C5.02083 11.1875 5.1875 11.0208 5.5 11H6L5.96875 9.65625C5.98958 9.05208 6.19792 8.54167 6.59375 8.125C6.98958 7.72917 7.5 7.52083 8.125 7.5C8.45833 7.5 8.77083 7.57292 9.0625 7.71875L9.71875 8.0625C9.98958 8.22917 10.0625 8.44792 9.9375 8.71875C9.79167 8.98958 9.57292 9.0625 9.28125 8.9375L8.625 8.625C8.45833 8.54167 8.29167 8.5 8.125 8.5Z" fill="black" fill-opacity="0.72"/>
</g>
<defs>
<clipPath id="clip0_1731_4233">
<rect width="16" height="24" fill="white"/>
</clipPath>
</defs>
</svg>
