<svg width="16" height="24" viewBox="0 0 16 24" fill="none" xmlns="http://www.w3.org/2000/svg">
<g id="label-paired / md / circle-sort-down-md / regular" clip-path="url(#clip0_1731_3637)">
<path id="icon" d="M1 12C1.02083 13.2708 1.33333 14.4375 1.9375 15.5C2.5625 16.5625 3.41667 17.4167 4.5 18.0625C5.60417 18.6875 6.77083 19 8 19C9.22917 19 10.3958 18.6875 11.5 18.0625C12.5833 17.4167 13.4375 16.5625 14.0625 15.5C14.6667 14.4375 14.9792 13.2708 15 12C14.9792 10.7292 14.6667 9.5625 14.0625 8.5C13.4375 7.4375 12.5833 6.58333 11.5 5.9375C10.3958 5.3125 9.22917 5 8 5C6.77083 5 5.60417 5.3125 4.5 5.9375C3.41667 6.58333 2.5625 7.4375 1.9375 8.5C1.33333 9.5625 1.02083 10.7292 1 12ZM16 12C15.9792 13.4583 15.625 14.7917 14.9375 16C14.2292 17.2083 13.25 18.1875 12 18.9375C10.7292 19.6458 9.39583 20 8 20C6.60417 20 5.27083 19.6458 4 18.9375C2.75 18.1875 1.77083 17.2083 1.0625 16C0.375 14.7917 0.0208333 13.4583 0 12C0.0208333 10.5417 0.375 9.20833 1.0625 8C1.77083 6.79167 2.75 5.8125 4 5.0625C5.27083 4.35417 6.60417 4 8 4C9.39583 4 10.7292 4.35417 12 5.0625C13.25 5.8125 14.2292 6.79167 14.9375 8C15.625 9.20833 15.9792 10.5417 16 12ZM7.65625 16.8438L4.65625 13.8438C4.51042 13.6979 4.46875 13.5208 4.53125 13.3125C4.63542 13.1042 4.79167 13 5 13H11C11.2083 13.0208 11.3646 13.125 11.4688 13.3125C11.5312 13.5208 11.4896 13.6979 11.3438 13.8438L8.34375 16.8438C8.11458 17.0521 7.88542 17.0521 7.65625 16.8438ZM6.21875 14L8 15.7812L9.78125 14H6.21875ZM4.65625 10.1562L7.65625 7.15625C7.88542 6.94792 8.11458 6.94792 8.34375 7.15625L11.3438 10.1562C11.5521 10.3854 11.5521 10.6146 11.3438 10.8438C11.1146 11.0521 10.8854 11.0521 10.6562 10.8438L8 8.21875L5.34375 10.8438C5.11458 11.0521 4.88542 11.0521 4.65625 10.8438C4.44792 10.6146 4.44792 10.3854 4.65625 10.1562Z" fill="black" fill-opacity="0.72"/>
</g>
<defs>
<clipPath id="clip0_1731_3637">
<rect width="16" height="24" fill="white"/>
</clipPath>
</defs>
</svg>
