<svg width="16" height="24" viewBox="0 0 16 24" fill="none" xmlns="http://www.w3.org/2000/svg">
<g id="label-paired / md / circle-star-md / regular" clip-path="url(#clip0_1731_3337)">
<path id="icon" d="M8 5C6.72917 5.02083 5.5625 5.33333 4.5 5.9375C3.4375 6.5625 2.58333 7.41667 1.9375 8.5C1.3125 9.60417 1 10.7708 1 12C1 13.2292 1.3125 14.3958 1.9375 15.5C2.58333 16.5833 3.4375 17.4375 4.5 18.0625C5.5625 18.6667 6.72917 18.9792 8 19C9.27083 18.9792 10.4375 18.6667 11.5 18.0625C12.5625 17.4375 13.4167 16.5833 14.0625 15.5C14.6875 14.3958 15 13.2292 15 12C15 10.7708 14.6875 9.60417 14.0625 8.5C13.4167 7.41667 12.5625 6.5625 11.5 5.9375C10.4375 5.33333 9.27083 5.02083 8 5ZM8 20C6.54167 19.9792 5.20833 19.625 4 18.9375C2.79167 18.2292 1.8125 17.25 1.0625 16C0.354167 14.7292 0 13.3958 0 12C0 10.6042 0.354167 9.27083 1.0625 8C1.8125 6.75 2.79167 5.77083 4 5.0625C5.20833 4.375 6.54167 4.02083 8 4C9.45833 4.02083 10.7917 4.375 12 5.0625C13.2083 5.77083 14.1875 6.75 14.9375 8C15.6458 9.27083 16 10.6042 16 12C16 13.3958 15.6458 14.7292 14.9375 16C14.1875 17.25 13.2083 18.2292 12 18.9375C10.7917 19.625 9.45833 19.9792 8 20ZM8.4375 7.53125L9.59375 9.8125L12.125 10.1875C12.3125 10.2292 12.4479 10.3438 12.5312 10.5312C12.5729 10.7188 12.5312 10.8958 12.4062 11.0625L10.5625 12.8438L11 15.3438C11.0208 15.5521 10.9479 15.7188 10.7812 15.8438C10.6146 15.9479 10.4479 15.9583 10.2812 15.875L8 14.6875L5.75 15.875C5.5625 15.9583 5.38542 15.9479 5.21875 15.8438C5.05208 15.7188 4.97917 15.5521 5 15.3438L5.4375 12.8438L3.625 11.0312C3.47917 10.8854 3.4375 10.7188 3.5 10.5312C3.5625 10.3438 3.6875 10.2292 3.875 10.1875L6.40625 9.8125L7.5625 7.53125C7.64583 7.34375 7.79167 7.25 8 7.25C8.20833 7.25 8.35417 7.34375 8.4375 7.53125ZM7.1875 10.5C7.10417 10.6458 6.97917 10.7396 6.8125 10.7812L5.03125 11.0312L6.3125 12.3125C6.4375 12.4375 6.48958 12.5833 6.46875 12.75L6.15625 14.5312L7.75 13.6875C7.91667 13.6042 8.07292 13.6042 8.21875 13.6875L9.84375 14.5312L9.53125 12.75C9.51042 12.5833 9.55208 12.4375 9.65625 12.3125L10.9688 11.0312L9.1875 10.7812C9 10.7396 8.875 10.6458 8.8125 10.5L8 8.875L7.1875 10.5Z" fill="black" fill-opacity="0.72"/>
</g>
<defs>
<clipPath id="clip0_1731_3337">
<rect width="16" height="24" fill="white"/>
</clipPath>
</defs>
</svg>
