<svg width="16" height="24" viewBox="0 0 16 24" fill="none" xmlns="http://www.w3.org/2000/svg">
<g id="label-paired / md / circle-dot-md / regular" clip-path="url(#clip0_1731_3316)">
<path id="icon" d="M15 12C14.9792 10.7292 14.6667 9.5625 14.0625 8.5C13.4375 7.4375 12.5833 6.58333 11.5 5.9375C10.3958 5.3125 9.22917 5 8 5C6.77083 5 5.60417 5.3125 4.5 5.9375C3.41667 6.58333 2.5625 7.4375 1.9375 8.5C1.33333 9.5625 1.02083 10.7292 1 12C1.02083 13.2708 1.33333 14.4375 1.9375 15.5C2.5625 16.5625 3.41667 17.4167 4.5 18.0625C5.60417 18.6875 6.77083 19 8 19C9.22917 19 10.3958 18.6875 11.5 18.0625C12.5833 17.4167 13.4375 16.5625 14.0625 15.5C14.6667 14.4375 14.9792 13.2708 15 12ZM0 12C0.0208333 10.5417 0.375 9.20833 1.0625 8C1.77083 6.79167 2.75 5.8125 4 5.0625C5.27083 4.35417 6.60417 4 8 4C9.39583 4 10.7292 4.35417 12 5.0625C13.25 5.8125 14.2292 6.79167 14.9375 8C15.625 9.20833 15.9792 10.5417 16 12C15.9792 13.4583 15.625 14.7917 14.9375 16C14.2292 17.2083 13.25 18.1875 12 18.9375C10.7292 19.6458 9.39583 20 8 20C6.60417 20 5.27083 19.6458 4 18.9375C2.75 18.1875 1.77083 17.2083 1.0625 16C0.375 14.7917 0.0208333 13.4583 0 12ZM10 12C9.97917 11.25 9.64583 10.6771 9 10.2812C8.33333 9.90625 7.66667 9.90625 7 10.2812C6.35417 10.6771 6.02083 11.25 6 12C6.02083 12.75 6.35417 13.3229 7 13.7188C7.66667 14.0938 8.33333 14.0938 9 13.7188C9.64583 13.3229 9.97917 12.75 10 12ZM5 12C5 11.4583 5.13542 10.9583 5.40625 10.5C5.67708 10.0417 6.04167 9.67708 6.5 9.40625C6.97917 9.13542 7.47917 9 8 9C8.52083 9 9.02083 9.13542 9.5 9.40625C9.95833 9.67708 10.3229 10.0417 10.5938 10.5C10.8646 10.9583 11 11.4583 11 12C11 12.5417 10.8646 13.0417 10.5938 13.5C10.3229 13.9583 9.95833 14.3229 9.5 14.5938C9.02083 14.8646 8.52083 15 8 15C7.47917 15 6.97917 14.8646 6.5 14.5938C6.04167 14.3229 5.67708 13.9583 5.40625 13.5C5.13542 13.0417 5 12.5417 5 12Z" fill="black" fill-opacity="0.72"/>
</g>
<defs>
<clipPath id="clip0_1731_3316">
<rect width="16" height="24" fill="white"/>
</clipPath>
</defs>
</svg>
