<svg width="20" height="24" viewBox="0 0 20 24" fill="none" xmlns="http://www.w3.org/2000/svg">
<g id="label-paired / md / deriv-p2p-md / bold" clip-path="url(#clip0_1731_4205)">
<path id="icon" d="M6 9.75C5.8125 9.75 5.59375 9.78125 5.34375 9.78125C5.125 9.8125 4.875 9.84375 4.65625 9.875V14.3125H5.65625V12.8125H6C6.65625 12.8125 7.1875 12.6875 7.53125 12.4375C7.90625 12.2188 8.09375 11.8125 8.09375 11.2812C8.09375 10.75 7.90625 10.3438 7.5625 10.125C7.1875 9.875 6.6875 9.75 6 9.75ZM6.0625 10.625C6.21875 10.625 6.34375 10.625 6.46875 10.6562C6.59375 10.6875 6.6875 10.7188 6.78125 10.75C6.875 10.8125 6.9375 10.875 6.96875 10.9688C7.03125 11.0312 7.03125 11.1562 7.03125 11.2812C7.03125 11.5312 6.96875 11.7188 6.78125 11.8125C6.59375 11.9062 6.34375 11.9375 6 11.9375H5.65625V10.6562C5.71875 10.6562 5.78125 10.625 5.84375 10.625C5.9375 10.625 6 10.625 6.0625 10.625ZM11.2188 11C11.2188 10.8125 11.1875 10.625 11.125 10.4688C11.0625 10.3125 10.9688 10.1875 10.8438 10.0625C10.7188 9.96875 10.5625 9.875 10.375 9.8125C10.1875 9.75 9.96875 9.71875 9.6875 9.71875C9.40625 9.71875 9.125 9.78125 8.875 9.90625C8.625 10 8.40625 10.1562 8.21875 10.3438L8.6875 11C8.71875 10.9688 8.78125 10.9375 8.84375 10.9062C8.90625 10.8438 8.96875 10.7812 9.0625 10.75C9.125 10.6875 9.21875 10.6562 9.34375 10.625C9.4375 10.5625 9.53125 10.5625 9.65625 10.5625C9.8125 10.5625 9.96875 10.5938 10.0625 10.6562C10.1875 10.75 10.2188 10.875 10.2188 11.0625C10.2188 11.1562 10.2188 11.25 10.1562 11.3438C10.125 11.4062 10.0625 11.5 10 11.5938C9.9375 11.6562 9.84375 11.75 9.75 11.8438C9.65625 11.9375 9.5625 12.0312 9.46875 12.125C9.34375 12.25 9.1875 12.375 9.0625 12.5C8.9375 12.625 8.8125 12.7812 8.6875 12.9375C8.59375 13.0938 8.5 13.25 8.4375 13.4062C8.375 13.5938 8.34375 13.7812 8.34375 14C8.34375 14.0312 8.34375 14.0625 8.34375 14.1562C8.34375 14.2188 8.34375 14.2812 8.34375 14.3125H11.3438V13.5H9.40625C9.4375 13.4688 9.46875 13.4062 9.5 13.3438C9.5625 13.2812 9.625 13.2188 9.6875 13.125C9.78125 13.0625 9.84375 12.9688 9.90625 12.9062C10 12.8125 10.0625 12.75 10.125 12.6875C10.25 12.5625 10.375 12.4375 10.5 12.3125C10.6562 12.1875 10.75 12.0625 10.875 11.9062C10.9688 11.7812 11.0625 11.625 11.125 11.4688C11.1875 11.3125 11.2188 11.1562 11.2188 11ZM13.2188 9.75H13.25C13.0625 9.75 12.8438 9.78125 12.5938 9.78125C12.3438 9.8125 12.0938 9.84375 11.875 9.875V14.3125H12.9062V12.8125H13.2188C13.875 12.8125 14.4062 12.6875 14.7812 12.4375C15.125 12.2188 15.3125 11.8125 15.3125 11.2812C15.3125 10.75 15.125 10.3438 14.7812 10.125C14.4062 9.875 13.9062 9.75 13.2188 9.75ZM13.3125 10.625C13.4375 10.625 13.5938 10.625 13.6875 10.6562C13.8125 10.6875 13.9375 10.7188 14 10.75C14.0938 10.8125 14.1562 10.875 14.1875 10.9688C14.25 11.0312 14.2812 11.1562 14.2812 11.2812C14.2812 11.5312 14.1875 11.7188 14 11.8125C13.8438 11.9062 13.5625 11.9375 13.2188 11.9375H12.9062V10.6562C12.9375 10.6562 13 10.625 13.0625 10.625C13.1562 10.625 13.2188 10.625 13.3125 10.625ZM15 5.5H5C4.15625 5.5 3.5 6.1875 3.5 7V17C3.5 17.8438 4.15625 18.5 5 18.5H15C15.8125 18.5 16.5 17.8438 16.5 17V7C16.5 6.1875 15.8125 5.5 15 5.5ZM5 4H15C16.6562 4 18 5.34375 18 7V17C18 18.6562 16.6562 20 15 20H5C3.34375 20 2 18.6562 2 17V7C2 5.34375 3.34375 4 5 4Z" fill="black" fill-opacity="0.72"/>
</g>
<defs>
<clipPath id="clip0_1731_4205">
<rect width="20" height="24" fill="white"/>
</clipPath>
</defs>
</svg>
