<svg width="10" height="24" viewBox="0 0 10 24" fill="none" xmlns="http://www.w3.org/2000/svg">
<g id="label-paired / md / eight-md / regular" clip-path="url(#clip0_1731_3546)">
<path id="icon" d="M9.5 8.75C9.5 9.39583 9.35417 9.98958 9.0625 10.5312C8.75 11.0729 8.34375 11.5104 7.84375 11.8438C8.48958 12.1562 9.01042 12.6146 9.40625 13.2188C9.80208 13.8229 10 14.5 10 15.25C9.97917 16.3125 9.61458 17.1979 8.90625 17.9062C8.19792 18.6146 7.3125 18.9792 6.25 19H3.75C2.6875 18.9792 1.80208 18.6146 1.09375 17.9062C0.385417 17.1979 0.0208333 16.3125 0 15.25C0 14.5 0.197917 13.8229 0.59375 13.2188C0.989583 12.6146 1.51042 12.1562 2.15625 11.8438C1.65625 11.5104 1.25 11.0729 0.9375 10.5312C0.645833 9.98958 0.5 9.39583 0.5 8.75C0.520833 7.6875 0.885417 6.80208 1.59375 6.09375C2.30208 5.38542 3.1875 5.02083 4.25 5H5.75C6.8125 5.02083 7.69792 5.38542 8.40625 6.09375C9.11458 6.80208 9.47917 7.6875 9.5 8.75ZM5.75 12.5H4.25H3.75C2.97917 12.5208 2.33333 12.7917 1.8125 13.3125C1.29167 13.8333 1.02083 14.4792 1 15.25C1.02083 16.0208 1.29167 16.6667 1.8125 17.1875C2.33333 17.7083 2.97917 17.9792 3.75 18H6.25C7.02083 17.9792 7.66667 17.7083 8.1875 17.1875C8.70833 16.6667 8.97917 16.0208 9 15.25C8.97917 14.4792 8.70833 13.8333 8.1875 13.3125C7.66667 12.7917 7.02083 12.5208 6.25 12.5H5.75ZM5.75 11.5C6.52083 11.4792 7.16667 11.2083 7.6875 10.6875C8.20833 10.1667 8.47917 9.52083 8.5 8.75C8.47917 7.97917 8.20833 7.33333 7.6875 6.8125C7.16667 6.29167 6.52083 6.02083 5.75 6H4.25C3.47917 6.02083 2.83333 6.29167 2.3125 6.8125C1.79167 7.33333 1.52083 7.97917 1.5 8.75C1.52083 9.52083 1.79167 10.1667 2.3125 10.6875C2.83333 11.2083 3.47917 11.4792 4.25 11.5H5.75Z" fill="black" fill-opacity="0.72"/>
</g>
<defs>
<clipPath id="clip0_1731_3546">
<rect width="10" height="24" fill="white"/>
</clipPath>
</defs>
</svg>
