<svg width="14" height="24" viewBox="0 0 14 24" fill="none" xmlns="http://www.w3.org/2000/svg">
<g id="label-paired / md / ellipsis-md / bold" clip-path="url(#clip0_1731_3247)">
<path id="icon" d="M13.5 12C13.4792 12.5625 13.2292 13 12.75 13.3125C12.25 13.5625 11.75 13.5625 11.25 13.3125C10.7708 13 10.5208 12.5625 10.5 12C10.5208 11.4375 10.7708 11 11.25 10.6875C11.75 10.4375 12.25 10.4375 12.75 10.6875C13.2292 11 13.4792 11.4375 13.5 12ZM8.5 12C8.47917 12.5625 8.22917 13 7.75 13.3125C7.25 13.5625 6.75 13.5625 6.25 13.3125C5.77083 13 5.52083 12.5625 5.5 12C5.52083 11.4375 5.77083 11 6.25 10.6875C6.75 10.4375 7.25 10.4375 7.75 10.6875C8.22917 11 8.47917 11.4375 8.5 12ZM2 13.5C1.4375 13.4792 1 13.2292 0.6875 12.75C0.4375 12.25 0.4375 11.75 0.6875 11.25C1 10.7708 1.4375 10.5208 2 10.5C2.5625 10.5208 3 10.7708 3.3125 11.25C3.5625 11.75 3.5625 12.25 3.3125 12.75C3 13.2292 2.5625 13.4792 2 13.5Z" fill="black" fill-opacity="0.72"/>
</g>
<defs>
<clipPath id="clip0_1731_3247">
<rect width="14" height="24" fill="white"/>
</clipPath>
</defs>
</svg>
