<svg width="16" height="24" viewBox="0 0 16 24" fill="none" xmlns="http://www.w3.org/2000/svg">
<g id="label-paired / md / envelope-md / bold" clip-path="url(#clip0_1731_3816)">
<path id="icon" d="M2 7.5C1.6875 7.52083 1.52083 7.6875 1.5 8V8.6875L6.90625 13.125C7.23958 13.375 7.60417 13.5 8 13.5C8.41667 13.5 8.79167 13.375 9.125 13.125L14.5 8.6875V8C14.4792 7.6875 14.3125 7.52083 14 7.5H2ZM1.5 10.625V16C1.52083 16.3125 1.6875 16.4792 2 16.5H14C14.3125 16.4792 14.4792 16.3125 14.5 16V10.625L10.0625 14.2812C9.4375 14.7604 8.75 15 8 15C7.25 15 6.5625 14.7604 5.9375 14.2812L1.5 10.625ZM0 8C0.0208333 7.4375 0.21875 6.96875 0.59375 6.59375C0.96875 6.21875 1.4375 6.02083 2 6H14C14.5625 6.02083 15.0312 6.21875 15.4062 6.59375C15.7812 6.96875 15.9792 7.4375 16 8V16C15.9792 16.5625 15.7812 17.0312 15.4062 17.4062C15.0312 17.7812 14.5625 17.9792 14 18H2C1.4375 17.9792 0.96875 17.7812 0.59375 17.4062C0.21875 17.0312 0.0208333 16.5625 0 16V8Z" fill="black" fill-opacity="0.72"/>
</g>
<defs>
<clipPath id="clip0_1731_3816">
<rect width="16" height="24" fill="white"/>
</clipPath>
</defs>
</svg>
