<svg width="18" height="24" viewBox="0 0 18 24" fill="none" xmlns="http://www.w3.org/2000/svg">
<g id="label-paired / md / eye-md / bold" clip-path="url(#clip0_1731_3142)">
<path id="icon" d="M9 6.5C7.97917 6.52083 7.05208 6.72917 6.21875 7.125C5.38542 7.5 4.64583 8 4 8.625C3.39583 9.1875 2.88542 9.77083 2.46875 10.375C2.07292 10.9792 1.76042 11.5208 1.53125 12C1.76042 12.4792 2.07292 13.0208 2.46875 13.625C2.88542 14.2292 3.39583 14.8125 4 15.375C4.64583 16 5.38542 16.5 6.21875 16.875C7.05208 17.2708 7.97917 17.4792 9 17.5C10.0208 17.4792 10.9479 17.2708 11.7812 16.875C12.6146 16.5 13.3542 16 14 15.375C14.6042 14.8125 15.1146 14.2292 15.5312 13.625C15.9271 13.0208 16.2396 12.4792 16.4688 12C16.2396 11.5208 15.9271 10.9792 15.5312 10.375C15.1146 9.77083 14.6042 9.1875 14 8.625C13.3542 8 12.6146 7.5 11.7812 7.125C10.9479 6.72917 10.0208 6.52083 9 6.5ZM2.96875 7.53125C3.71875 6.82292 4.59375 6.22917 5.59375 5.75C6.59375 5.27083 7.72917 5.02083 9 5C10.2708 5.02083 11.4062 5.27083 12.4062 5.75C13.4062 6.22917 14.2812 6.82292 15.0312 7.53125C15.7604 8.21875 16.3646 8.92708 16.8438 9.65625C17.3229 10.3854 17.6875 11.0417 17.9375 11.625C18.0417 11.875 18.0417 12.125 17.9375 12.375C17.6875 12.9583 17.3229 13.6146 16.8438 14.3438C16.3646 15.0729 15.7604 15.7812 15.0312 16.4688C14.2812 17.1771 13.4062 17.7708 12.4062 18.25C11.4062 18.7292 10.2708 18.9792 9 19C7.72917 18.9792 6.59375 18.7292 5.59375 18.25C4.59375 17.7708 3.71875 17.1771 2.96875 16.4688C2.23958 15.7812 1.63542 15.0729 1.15625 14.3438C0.677083 13.6146 0.322917 12.9583 0.09375 12.375C-0.0104167 12.125 -0.0104167 11.875 0.09375 11.625C0.322917 11.0417 0.677083 10.3854 1.15625 9.65625C1.63542 8.92708 2.23958 8.21875 2.96875 7.53125ZM9 14.5C9.70833 14.4792 10.3021 14.2396 10.7812 13.7812C11.2396 13.3021 11.4792 12.7083 11.5 12C11.4792 11.2917 11.2396 10.6979 10.7812 10.2188C10.3021 9.76042 9.70833 9.52083 9 9.5C8.97917 9.5 8.96875 9.5 8.96875 9.5C8.96875 9.5 8.95833 9.5 8.9375 9.5C8.97917 9.66667 9 9.83333 9 10C8.97917 10.5625 8.78125 11.0312 8.40625 11.4062C8.03125 11.7812 7.5625 11.9792 7 12C6.83333 12 6.66667 11.9792 6.5 11.9375C6.5 11.9583 6.5 11.9688 6.5 11.9688C6.5 11.9688 6.5 11.9792 6.5 12C6.52083 12.7083 6.76042 13.3021 7.21875 13.7812C7.69792 14.2396 8.29167 14.4792 9 14.5ZM9 8C9.72917 8 10.3958 8.17708 11 8.53125C11.6042 8.88542 12.0938 9.375 12.4688 10C12.8229 10.625 13 11.2917 13 12C13 12.7083 12.8229 13.375 12.4688 14C12.0938 14.625 11.6042 15.1146 11 15.4688C10.3958 15.8229 9.72917 16 9 16C8.27083 16 7.60417 15.8229 7 15.4688C6.39583 15.1146 5.90625 14.625 5.53125 14C5.17708 13.375 5 12.7083 5 12C5 11.2917 5.17708 10.625 5.53125 10C5.90625 9.375 6.39583 8.88542 7 8.53125C7.60417 8.17708 8.27083 8 9 8Z" fill="black" fill-opacity="0.72"/>
</g>
<defs>
<clipPath id="clip0_1731_3142">
<rect width="18" height="24" fill="white"/>
</clipPath>
</defs>
</svg>
