<svg width="18" height="24" viewBox="0 0 18 24" fill="none" xmlns="http://www.w3.org/2000/svg">
<g id="label-paired / md / eye-md / regular" clip-path="url(#clip0_1731_3140)">
<path id="icon" d="M3.65625 8.25C2.98958 8.89583 2.42708 9.55208 1.96875 10.2188C1.53125 10.8854 1.20833 11.4792 1 12C1.20833 12.5208 1.53125 13.1146 1.96875 13.7812C2.42708 14.4479 2.98958 15.1042 3.65625 15.75C4.34375 16.3958 5.125 16.9271 6 17.3438C6.89583 17.7604 7.89583 17.9792 9 18C10.1042 17.9792 11.1042 17.7604 12 17.3438C12.875 16.9271 13.6562 16.3958 14.3438 15.75C15.0104 15.1042 15.5729 14.4479 16.0312 13.7812C16.4688 13.1146 16.7917 12.5208 17 12C16.7917 11.4792 16.4688 10.8854 16.0312 10.2188C15.5729 9.55208 15.0104 8.89583 14.3438 8.25C13.6562 7.60417 12.875 7.07292 12 6.65625C11.1042 6.23958 10.1042 6.02083 9 6C7.89583 6.02083 6.89583 6.23958 6 6.65625C5.125 7.07292 4.34375 7.60417 3.65625 8.25ZM9 5C10.2708 5.02083 11.4062 5.27083 12.4062 5.75C13.4062 6.22917 14.2812 6.82292 15.0312 7.53125C15.7604 8.21875 16.3646 8.92708 16.8438 9.65625C17.3229 10.3854 17.6875 11.0417 17.9375 11.625C18.0417 11.875 18.0417 12.125 17.9375 12.375C17.6875 12.9583 17.3229 13.6146 16.8438 14.3438C16.3646 15.0729 15.7604 15.7812 15.0312 16.4688C14.2812 17.1771 13.4062 17.7708 12.4062 18.25C11.4062 18.7292 10.2708 18.9792 9 19C7.72917 18.9792 6.59375 18.7292 5.59375 18.25C4.59375 17.7708 3.71875 17.1771 2.96875 16.4688C2.23958 15.7812 1.63542 15.0729 1.15625 14.3438C0.677083 13.6146 0.322917 12.9583 0.09375 12.375C-0.0104167 12.125 -0.0104167 11.875 0.09375 11.625C0.322917 11.0417 0.677083 10.3854 1.15625 9.65625C1.63542 8.92708 2.23958 8.21875 2.96875 7.53125C3.71875 6.82292 4.59375 6.22917 5.59375 5.75C6.59375 5.27083 7.72917 5.02083 9 5ZM6 12C6 12.5417 6.13542 13.0417 6.40625 13.5C6.67708 13.9583 7.04167 14.3229 7.5 14.5938C7.97917 14.8646 8.47917 15 9 15C9.52083 15 10.0208 14.8646 10.5 14.5938C10.9583 14.3229 11.3229 13.9583 11.5938 13.5C11.8646 13.0417 12 12.5417 12 12C12 11.4583 11.8646 10.9583 11.5938 10.5C11.3229 10.0417 10.9583 9.67708 10.5 9.40625C10.0208 9.13542 9.52083 9 9 9C8.47917 9 7.97917 9.13542 7.5 9.40625C7.04167 9.67708 6.67708 10.0417 6.40625 10.5C6.13542 10.9583 6 11.4583 6 12ZM13 12C13 12.7292 12.8229 13.3958 12.4688 14C12.1146 14.6042 11.625 15.0938 11 15.4688C10.375 15.8229 9.70833 16 9 16C8.29167 16 7.625 15.8229 7 15.4688C6.375 15.0938 5.88542 14.6042 5.53125 14C5.17708 13.3958 5 12.7292 5 12C5 11.2708 5.17708 10.6042 5.53125 10C5.88542 9.39583 6.375 8.90625 7 8.53125C7.625 8.17708 8.29167 8 9 8C9.70833 8 10.375 8.17708 11 8.53125C11.625 8.90625 12.1146 9.39583 12.4688 10C12.8229 10.6042 13 11.2708 13 12Z" fill="black" fill-opacity="0.72"/>
</g>
<defs>
<clipPath id="clip0_1731_3140">
<rect width="18" height="24" fill="white"/>
</clipPath>
</defs>
</svg>
