<svg width="20" height="24" viewBox="0 0 20 24" fill="none" xmlns="http://www.w3.org/2000/svg">
<g id="label-paired / md / fiat-offramp-md / regular" clip-path="url(#clip0_1731_4198)">
<path id="icon" d="M2 8C2 5.8125 3.78125 4 6 4C8.1875 4 10 5.8125 10 8C10 8.40625 9.9375 8.78125 9.8125 9.15625L12.8438 12.1875C13.2188 12.0625 13.5938 12 14 12C16.1875 12 18 13.8125 18 16C18 18.2188 16.1875 20 14 20H4.5C3.09375 20 2 18.9062 2 17.5V8ZM3 10.6562V17.5C3 18.3438 3.65625 19 4.5 19H11.3438C10.5 18.2812 10 17.2188 10 16C10 14.5625 10.75 13.3125 11.875 12.625L9.375 10.125C8.6875 11.25 7.4375 12 6 12C4.78125 12 3.71875 11.5 3 10.6562ZM6 5C4.90625 5 3.90625 5.59375 3.375 6.5C2.84375 7.4375 2.84375 8.59375 3.375 9.53125C3.90625 10.4375 4.90625 11.0312 5.96875 11.0312C7.0625 11.0312 8.03125 10.4375 8.59375 9.53125C9.125 8.59375 9.125 7.4375 8.59375 6.53125C8.0625 5.59375 7.0625 5.03125 6 5ZM11.125 7.15625C11.3125 6.96875 11.6562 6.96875 11.8438 7.15625L14 9.3125V8.5C14 8.25 14.2188 8 14.5 8C14.75 8 15 8.25 15 8.5V10.5C15 10.7188 14.875 10.9062 14.6875 10.9688C14.5 11.0625 14.2812 11 14.125 10.875L11.125 7.875C10.9375 7.6875 10.9375 7.34375 11.125 7.15625ZM14 13C13.5938 13 13.25 13.0938 12.9062 13.2188H12.875C11.7812 13.6562 11 14.75 11 16C11 17.6562 12.3438 19 14 19C15.6562 19 17 17.6562 17 16C17 14.3438 15.6562 13 14 13ZM5.46875 5.65625V6.34375H6.15625V5.65625H6.8125V6.34375C7.0625 6.34375 7.28125 6.4375 7.46875 6.59375C7.875 6.96875 7.90625 7.59375 7.53125 8C7.71875 8.1875 7.8125 8.4375 7.8125 8.6875C7.8125 9.25 7.34375 9.6875 6.8125 9.6875V10.3438H6.15625V9.6875H5.46875V10.3438H4.8125V9.6875H4.15625V9H4.8125V7H4.15625V6.34375H4.8125V5.65625H5.46875ZM6.8125 8.34375H5.46875V9H6.8125C7 9 7.15625 8.84375 7.15625 8.65625C7.15625 8.5 7 8.34375 6.8125 8.34375ZM6.8125 7H5.46875V7.6875H6.8125C7 7.6875 7.15625 7.53125 7.15625 7.34375C7.15625 7.15625 7 7 6.8125 7ZM14.4062 13.5V13.875C14.9375 14.0312 15.2812 14.5312 15.2812 15.0938V15.2188H14.4688V15.0938C14.4688 14.8438 14.25 14.625 13.9688 14.625C13.7188 14.625 13.5 14.8438 13.5 15.0938C13.5 15.375 13.7188 15.5938 13.9688 15.5938C14.6875 15.5938 15.2812 16.1875 15.2812 16.9062C15.2812 17.4688 14.9375 17.9688 14.4062 18.125V18.5H13.5625V18.125C13.0312 17.9688 12.6875 17.4688 12.6875 16.9062V16.7812H13.5V16.9062C13.5 17.1562 13.7188 17.375 13.9688 17.375C14.25 17.375 14.4688 17.1562 14.4688 16.9062C14.4688 16.625 14.25 16.4062 13.9688 16.4062C13.25 16.4062 12.6875 15.8125 12.6875 15.0938C12.6875 14.5312 13.0312 14.0312 13.5625 13.875V13.5H14.4062Z" fill="black" fill-opacity="0.72"/>
</g>
<defs>
<clipPath id="clip0_1731_4198">
<rect width="20" height="24" fill="white"/>
</clipPath>
</defs>
</svg>
