<svg width="12" height="24" viewBox="0 0 12 24" fill="none" xmlns="http://www.w3.org/2000/svg">
<g id="label-paired / md / file-invoice-dollar-md / regular" clip-path="url(#clip0_1731_4032)">
<path id="icon" d="M11 18V10H7.5C7.08333 9.97917 6.72917 9.83333 6.4375 9.5625C6.16667 9.27083 6.02083 8.91667 6 8.5V5H2C1.70833 5 1.46875 5.09375 1.28125 5.28125C1.09375 5.46875 1 5.70833 1 6V18C1 18.2917 1.09375 18.5312 1.28125 18.7188C1.46875 18.9062 1.70833 19 2 19H10C10.2917 19 10.5312 18.9062 10.7188 18.7188C10.9062 18.5312 11 18.2917 11 18ZM11 9C10.9583 8.91667 10.9062 8.84375 10.8438 8.78125L7.21875 5.15625C7.15625 5.09375 7.08333 5.05208 7 5.03125V8.5C7.02083 8.8125 7.1875 8.97917 7.5 9H11ZM0 6C0.0208333 5.4375 0.21875 4.96875 0.59375 4.59375C0.96875 4.21875 1.4375 4.02083 2 4H6.875C7.29167 4 7.64583 4.14583 7.9375 4.4375L11.5625 8.0625C11.8542 8.35417 12 8.70833 12 9.125V18C11.9792 18.5625 11.7812 19.0312 11.4062 19.4062C11.0312 19.7812 10.5625 19.9792 10 20H2C1.4375 19.9792 0.96875 19.7812 0.59375 19.4062C0.21875 19.0312 0.0208333 18.5625 0 18V6ZM2 6.5C2.02083 6.1875 2.1875 6.02083 2.5 6H4.5C4.8125 6.02083 4.97917 6.1875 5 6.5C4.97917 6.8125 4.8125 6.97917 4.5 7H2.5C2.1875 6.97917 2.02083 6.8125 2 6.5ZM2 8.5C2.02083 8.1875 2.1875 8.02083 2.5 8H4.5C4.8125 8.02083 4.97917 8.1875 5 8.5C4.97917 8.8125 4.8125 8.97917 4.5 9H2.5C2.1875 8.97917 2.02083 8.8125 2 8.5ZM6.5 11.625V12.0312C6.77083 12.0729 7.02083 12.125 7.25 12.1875C7.54167 12.2708 7.66667 12.4688 7.625 12.7812C7.52083 13.0729 7.3125 13.1979 7 13.1562C6.64583 13.0729 6.3125 13.0208 6 13C5.70833 13 5.44792 13.0521 5.21875 13.1562C5.05208 13.2604 4.97917 13.3646 5 13.4688C4.97917 13.5104 5.05208 13.5833 5.21875 13.6875C5.42708 13.7917 5.72917 13.8854 6.125 13.9688L6.15625 14C6.53125 14.0833 6.90625 14.2083 7.28125 14.375C7.69792 14.5833 7.9375 14.9583 8 15.5C7.95833 16.1042 7.70833 16.5104 7.25 16.7188C7.02083 16.8438 6.77083 16.9271 6.5 16.9688V17.4062C6.47917 17.6979 6.3125 17.8646 6 17.9062C5.6875 17.8646 5.52083 17.6979 5.5 17.4062V16.9375C5.16667 16.875 4.85417 16.8021 4.5625 16.7188C4.5 16.6979 4.44792 16.6771 4.40625 16.6562C4.38542 16.6562 4.375 16.6562 4.375 16.6562C4.08333 16.5312 3.96875 16.3229 4.03125 16.0312C4.13542 15.7396 4.34375 15.625 4.65625 15.6875C4.71875 15.7083 4.79167 15.7292 4.875 15.75C5.29167 15.8958 5.67708 15.9792 6.03125 16C6.32292 16 6.57292 15.9479 6.78125 15.8438C6.94792 15.7604 7.02083 15.6562 7 15.5312C7.02083 15.4479 6.94792 15.3542 6.78125 15.25C6.57292 15.1458 6.27083 15.0417 5.875 14.9375H5.8125C5.8125 14.9375 5.80208 14.9375 5.78125 14.9375C5.42708 14.8542 5.08333 14.7292 4.75 14.5625C4.3125 14.375 4.0625 14.0104 4 13.4688C4.0625 12.8646 4.32292 12.4688 4.78125 12.2812C5.01042 12.1562 5.25 12.0729 5.5 12.0312V11.625C5.54167 11.3125 5.70833 11.1458 6 11.125C6.3125 11.1458 6.47917 11.3125 6.5 11.625Z" fill="black" fill-opacity="0.72"/>
</g>
<defs>
<clipPath id="clip0_1731_4032">
<rect width="12" height="24" fill="white"/>
</clipPath>
</defs>
</svg>
