<svg width="10" height="24" viewBox="0 0 10 24" fill="none" xmlns="http://www.w3.org/2000/svg">
<g id="label-paired / md / five-md / bold" clip-path="url(#clip0_1731_3533)">
<path id="icon" d="M1 5.625C1.10417 5.22917 1.35417 5.02083 1.75 5H8.25C8.70833 5.04167 8.95833 5.29167 9 5.75C8.95833 6.20833 8.70833 6.45833 8.25 6.5H2.375L1.65625 10.75H5.875C7.04167 10.7708 8.01042 11.1771 8.78125 11.9688C9.57292 12.7396 9.97917 13.7083 10 14.875C9.97917 16.0417 9.57292 17.0104 8.78125 17.7812C8.01042 18.5729 7.04167 18.9792 5.875 19H2.90625C2.32292 19 1.79167 18.8542 1.3125 18.5625C0.833333 18.2708 0.46875 17.8646 0.21875 17.3438L0.0625 17.0938C-0.0833333 16.6562 0.03125 16.3125 0.40625 16.0625C0.84375 15.9167 1.17708 16.0312 1.40625 16.4062L1.5625 16.6562C1.85417 17.1979 2.30208 17.4792 2.90625 17.5H5.875C6.625 17.4792 7.23958 17.2188 7.71875 16.7188C8.21875 16.2396 8.47917 15.625 8.5 14.875C8.47917 14.125 8.21875 13.5104 7.71875 13.0312C7.23958 12.5312 6.625 12.2708 5.875 12.25H0.75C0.520833 12.25 0.333333 12.1562 0.1875 11.9688C0.0416667 11.8021 -0.0208333 11.6042 0 11.375L1 5.625Z" fill="black" fill-opacity="0.72"/>
</g>
<defs>
<clipPath id="clip0_1731_3533">
<rect width="10" height="24" fill="white"/>
</clipPath>
</defs>
</svg>
