<svg width="18" height="24" viewBox="0 0 18 24" fill="none" xmlns="http://www.w3.org/2000/svg">
<g id="label-paired / md / floppy-disk-pen-md / bold" clip-path="url(#clip0_1731_3979)">
<path id="icon" d="M1.5 7V17C1.52083 17.3125 1.6875 17.4792 2 17.5H8.46875L8.09375 19H2C1.4375 18.9792 0.96875 18.7812 0.59375 18.4062C0.21875 18.0312 0.0208333 17.5625 0 17V7C0.0208333 6.4375 0.21875 5.96875 0.59375 5.59375C0.96875 5.21875 1.4375 5.02083 2 5H9.6875C10.2292 5 10.6979 5.19792 11.0938 5.59375L13.4062 7.90625L12.3438 8.96875L10.0312 6.65625C10.0104 6.63542 10 6.625 10 6.625V9.75C9.95833 10.2083 9.70833 10.4583 9.25 10.5H3.25C2.79167 10.4583 2.54167 10.2083 2.5 9.75V6.5H2C1.6875 6.52083 1.52083 6.6875 1.5 7ZM13.4062 7.90625C13.8021 8.30208 14 8.78125 14 9.34375V11.375L12.5 12.875V9.34375C12.5 9.19792 12.4479 9.07292 12.3438 8.96875L13.4062 7.90625ZM4 6.5V9H8.5V6.5H4ZM5 14C5.02083 13.25 5.35417 12.6771 6 12.2812C6.66667 11.9062 7.33333 11.9062 8 12.2812C8.64583 12.6771 8.97917 13.25 9 14C8.97917 14.75 8.64583 15.3229 8 15.7188C7.33333 16.0938 6.66667 16.0938 6 15.7188C5.35417 15.3229 5.02083 14.75 5 14ZM17.1875 11.375L17.625 11.8125C17.875 12.0833 18 12.375 18 12.6875C18 13.0208 17.875 13.3229 17.625 13.5938L16.7188 14.5L14.5 12.2812L15.4062 11.375C15.6771 11.125 15.9688 11 16.2812 11C16.6146 11 16.9167 11.125 17.1875 11.375ZM9.75 17.0312L13.7812 13L16 15.2188L11.9688 19.25C11.8438 19.375 11.6875 19.4688 11.5 19.5312L9.625 20C9.4375 20.0208 9.28125 19.9688 9.15625 19.8438C9.03125 19.7188 8.97917 19.5625 9 19.375L9.46875 17.5C9.53125 17.3125 9.625 17.1562 9.75 17.0312Z" fill="black" fill-opacity="0.72"/>
</g>
<defs>
<clipPath id="clip0_1731_3979">
<rect width="18" height="24" fill="white"/>
</clipPath>
</defs>
</svg>
