<svg width="18" height="24" viewBox="0 0 18 24" fill="none" xmlns="http://www.w3.org/2000/svg">
<g id="label-paired / md / floppy-disk-pen-md / regular" clip-path="url(#clip0_1731_3977)">
<path id="icon" d="M1 7V17C1 17.2917 1.09375 17.5312 1.28125 17.7188C1.46875 17.9062 1.70833 18 2 18H8.3125L8.0625 19H2C1.4375 18.9792 0.96875 18.7812 0.59375 18.4062C0.21875 18.0312 0.0208333 17.5625 0 17V7C0.0208333 6.4375 0.21875 5.96875 0.59375 5.59375C0.96875 5.21875 1.4375 5.02083 2 5H9.6875C10.2292 5 10.6979 5.19792 11.0938 5.59375L13.4062 7.90625C13.8021 8.30208 14 8.78125 14 9.34375V10.875L13 11.875V9.34375C13 9.05208 12.9062 8.8125 12.7188 8.625L10.375 6.28125C10.2708 6.17708 10.1458 6.10417 10 6.0625V9C10 9.29167 9.90625 9.53125 9.71875 9.71875C9.53125 9.90625 9.29167 10 9 10H3C2.70833 10 2.46875 9.90625 2.28125 9.71875C2.09375 9.53125 2 9.29167 2 9V6C1.70833 6 1.46875 6.09375 1.28125 6.28125C1.09375 6.46875 1 6.70833 1 7ZM3 6V9H9V6H3ZM5.5 14C5.52083 14.5625 5.77083 15 6.25 15.3125C6.75 15.5625 7.25 15.5625 7.75 15.3125C8.22917 15 8.47917 14.5625 8.5 14C8.47917 13.4375 8.22917 13 7.75 12.6875C7.25 12.4375 6.75 12.4375 6.25 12.6875C5.77083 13 5.52083 13.4375 5.5 14ZM7 16.5C6.0625 16.4792 5.34375 16.0625 4.84375 15.25C4.38542 14.4167 4.38542 13.5833 4.84375 12.75C5.34375 11.9375 6.0625 11.5208 7 11.5C7.9375 11.5208 8.65625 11.9375 9.15625 12.75C9.61458 13.5833 9.61458 14.4167 9.15625 15.25C8.65625 16.0625 7.9375 16.4792 7 16.5ZM16.2188 12.25C15.9688 12.0625 15.7292 12.0625 15.5 12.25L14.7188 13.0312L15.9688 14.2812L16.75 13.5C16.9375 13.2708 16.9375 13.0417 16.75 12.8125L16.2188 12.25ZM10.7188 17.0625C10.6354 17.125 10.5833 17.1979 10.5625 17.2812L10.1875 18.8125L11.7188 18.4375C11.8021 18.4167 11.875 18.375 11.9375 18.3125L15.2812 15L14.0312 13.75L10.7188 17.0625ZM14.8125 11.5625C15.1042 11.25 15.4479 11.0938 15.8438 11.0938C16.2604 11.0938 16.6146 11.25 16.9062 11.5625L17.4688 12.0938C17.7604 12.4062 17.9062 12.7604 17.9062 13.1562C17.9062 13.5521 17.7604 13.9062 17.4688 14.2188L12.6562 19.0312C12.4688 19.2188 12.2396 19.3438 11.9688 19.4062L9.625 20C9.4375 20.0417 9.28125 20 9.15625 19.875C9.03125 19.7292 8.98958 19.5625 9.03125 19.375L9.59375 17.0625C9.67708 16.7917 9.8125 16.5521 10 16.3438L14.8125 11.5625Z" fill="black" fill-opacity="0.72"/>
</g>
<defs>
<clipPath id="clip0_1731_3977">
<rect width="18" height="24" fill="white"/>
</clipPath>
</defs>
</svg>
