<svg width="10" height="24" viewBox="0 0 10 24" fill="none" xmlns="http://www.w3.org/2000/svg">
<g id="label-paired / md / forward-step-md / bold" clip-path="url(#clip0_1731_4068)">
<path id="icon" d="M7.5 6.75C7.54167 6.29167 7.79167 6.04167 8.25 6C8.70833 6.04167 8.95833 6.29167 9 6.75V11.0938V12.9062V17.25C8.95833 17.7083 8.70833 17.9583 8.25 18C7.79167 17.9583 7.54167 17.7083 7.5 17.25V13.9688L1.96875 17.8438C1.80208 17.9479 1.625 18 1.4375 18C1.16667 18 0.947917 17.9062 0.78125 17.7188C0.59375 17.5521 0.5 17.3333 0.5 17.0625V6.9375C0.5 6.66667 0.59375 6.44792 0.78125 6.28125C0.947917 6.09375 1.16667 6 1.4375 6C1.64583 6 1.82292 6.05208 1.96875 6.15625L7.5 10.0312V6.75ZM7.5 12.125V11.875L2 8.03125V16L7.5 12.125Z" fill="black" fill-opacity="0.72"/>
</g>
<defs>
<clipPath id="clip0_1731_4068">
<rect width="10" height="24" fill="white"/>
</clipPath>
</defs>
</svg>
