<svg width="16" height="24" viewBox="0 0 16 24" fill="none" xmlns="http://www.w3.org/2000/svg">
<g id="label-paired / md / gauge-max-md / regular" clip-path="url(#clip0_1731_3260)">
<path id="icon" d="M8 19C9.27083 18.9792 10.4375 18.6667 11.5 18.0625C12.5625 17.4375 13.4167 16.5833 14.0625 15.5C14.6875 14.3958 15 13.2292 15 12C15 10.7708 14.6875 9.60417 14.0625 8.5C13.4167 7.41667 12.5625 6.5625 11.5 5.9375C10.4375 5.33333 9.27083 5.02083 8 5C6.72917 5.02083 5.5625 5.33333 4.5 5.9375C3.4375 6.5625 2.58333 7.41667 1.9375 8.5C1.3125 9.60417 1 10.7708 1 12C1 13.2292 1.3125 14.3958 1.9375 15.5C2.58333 16.5833 3.4375 17.4375 4.5 18.0625C5.5625 18.6667 6.72917 18.9792 8 19ZM8 4C9.45833 4.02083 10.7917 4.375 12 5.0625C13.2083 5.77083 14.1875 6.75 14.9375 8C15.6458 9.27083 16 10.6042 16 12C16 13.3958 15.6458 14.7292 14.9375 16C14.1875 17.25 13.2083 18.2292 12 18.9375C10.7917 19.625 9.45833 19.9792 8 20C6.54167 19.9792 5.20833 19.625 4 18.9375C2.79167 18.2292 1.8125 17.25 1.0625 16C0.354167 14.7292 0 13.3958 0 12C0 10.6042 0.354167 9.27083 1.0625 8C1.8125 6.75 2.79167 5.77083 4 5.0625C5.20833 4.375 6.54167 4.02083 8 4ZM8.75 7C8.70833 7.45833 8.45833 7.70833 8 7.75C7.54167 7.70833 7.29167 7.45833 7.25 7C7.29167 6.54167 7.54167 6.29167 8 6.25C8.45833 6.29167 8.70833 6.54167 8.75 7ZM7 15C7 15.2917 7.09375 15.5312 7.28125 15.7188C7.46875 15.9062 7.70833 16 8 16C8.29167 16 8.53125 15.9062 8.71875 15.7188C8.90625 15.5312 9 15.2917 9 15C9 14.7083 8.90625 14.4688 8.71875 14.2812C8.53125 14.0938 8.29167 14 8 14C7.70833 14 7.46875 14.0938 7.28125 14.2812C7.09375 14.4688 7 14.7083 7 15ZM6 15C6.02083 14.4375 6.21875 13.9688 6.59375 13.5938C6.96875 13.2188 7.4375 13.0208 8 13C8.5625 13.0208 9.03125 13.2083 9.40625 13.5625L12.75 11.5625C13.0208 11.4375 13.25 11.5 13.4375 11.75C13.5625 12.0208 13.5 12.25 13.25 12.4375L9.90625 14.4375C9.96875 14.625 10 14.8125 10 15C9.97917 15.5625 9.78125 16.0312 9.40625 16.4062C9.03125 16.7812 8.5625 16.9792 8 17C7.4375 16.9792 6.96875 16.7812 6.59375 16.4062C6.21875 16.0312 6.02083 15.5625 6 15ZM12.25 8.5C12.2083 8.95833 11.9583 9.20833 11.5 9.25C11.0417 9.20833 10.7917 8.95833 10.75 8.5C10.7917 8.04167 11.0417 7.79167 11.5 7.75C11.9583 7.79167 12.2083 8.04167 12.25 8.5ZM3 11.25C3.45833 11.2917 3.70833 11.5417 3.75 12C3.70833 12.4583 3.45833 12.7083 3 12.75C2.54167 12.7083 2.29167 12.4583 2.25 12C2.29167 11.5417 2.54167 11.2917 3 11.25ZM5.25 8.5C5.20833 8.95833 4.95833 9.20833 4.5 9.25C4.04167 9.20833 3.79167 8.95833 3.75 8.5C3.79167 8.04167 4.04167 7.79167 4.5 7.75C4.95833 7.79167 5.20833 8.04167 5.25 8.5Z" fill="black" fill-opacity="0.72"/>
</g>
<defs>
<clipPath id="clip0_1731_3260">
<rect width="16" height="24" fill="white"/>
</clipPath>
</defs>
</svg>
