<svg width="16" height="24" viewBox="0 0 16 24" fill="none" xmlns="http://www.w3.org/2000/svg">
<g id="label-paired / md / gear-md / bold" clip-path="url(#clip0_1731_3107)">
<path id="icon" d="M8 4C8.54167 4 9.0625 4.05208 9.5625 4.15625C9.6875 4.17708 9.84375 4.22917 10.0312 4.3125C10.1979 4.41667 10.3438 4.57292 10.4688 4.78125C10.5312 4.88542 10.5833 5.01042 10.625 5.15625L10.9062 6.34375C10.9479 6.44792 11.0208 6.53125 11.125 6.59375C11.2292 6.65625 11.3333 6.67708 11.4375 6.65625L12.625 6.3125C12.75 6.27083 12.875 6.25 13 6.25C13.25 6.25 13.4583 6.30208 13.625 6.40625C13.8125 6.51042 13.9479 6.61458 14.0312 6.71875C14.7188 7.51042 15.2292 8.41667 15.5625 9.4375C15.625 9.5625 15.6562 9.71875 15.6562 9.90625C15.6771 10.1146 15.625 10.3229 15.5 10.5312C15.4167 10.6354 15.3333 10.7396 15.25 10.8438L14.3438 11.6875C14.2812 11.7708 14.25 11.875 14.25 12C14.25 12.125 14.2812 12.2292 14.3438 12.3125L15.25 13.1562C15.3333 13.2604 15.4167 13.3646 15.5 13.4688C15.6042 13.6979 15.6562 13.9062 15.6562 14.0938C15.6562 14.3021 15.625 14.4583 15.5625 14.5625C15.2292 15.5833 14.7188 16.4896 14.0312 17.2812C13.9479 17.3854 13.8125 17.4896 13.625 17.5938C13.4583 17.6979 13.25 17.75 13 17.75C12.875 17.75 12.75 17.7292 12.625 17.6875L11.4375 17.3438C11.3333 17.3229 11.2292 17.3438 11.125 17.4062C11.0208 17.4688 10.9479 17.5521 10.9062 17.6562L10.625 18.8438C10.5833 18.9896 10.5312 19.1146 10.4688 19.2188C10.3438 19.4271 10.1979 19.5833 10.0312 19.6875C9.84375 19.7708 9.6875 19.8229 9.5625 19.8438C9.0625 19.9479 8.54167 20 8 20C7.45833 20 6.9375 19.9479 6.4375 19.8438C6.3125 19.8229 6.15625 19.7708 5.96875 19.6875C5.80208 19.5833 5.65625 19.4271 5.53125 19.2188C5.46875 19.1146 5.41667 18.9896 5.375 18.8438L5.09375 17.6562C5.05208 17.5521 4.97917 17.4688 4.875 17.4062C4.77083 17.3438 4.66667 17.3229 4.5625 17.3438L3.375 17.6875C3.25 17.7292 3.125 17.75 3 17.75C2.75 17.75 2.54167 17.6979 2.375 17.5938C2.1875 17.4896 2.0625 17.3854 2 17.2812C1.29167 16.4896 0.770833 15.5833 0.4375 14.5625C0.375 14.4375 0.34375 14.2812 0.34375 14.0938C0.322917 13.8854 0.375 13.6771 0.5 13.4688C0.583333 13.3646 0.666667 13.2604 0.75 13.1562L1.65625 12.3125C1.71875 12.2292 1.75 12.125 1.75 12C1.75 11.875 1.71875 11.7708 1.65625 11.6875L0.75 10.8438C0.666667 10.7396 0.583333 10.6354 0.5 10.5312C0.375 10.3021 0.322917 10.0938 0.34375 9.90625C0.34375 9.69792 0.375 9.54167 0.4375 9.4375C0.770833 8.4375 1.29167 7.53125 2 6.71875C2.0625 6.61458 2.1875 6.51042 2.375 6.40625C2.54167 6.30208 2.75 6.25 3 6.25C3.125 6.25 3.25 6.27083 3.375 6.3125L4.5625 6.65625C4.66667 6.67708 4.77083 6.65625 4.875 6.59375C4.97917 6.53125 5.05208 6.44792 5.09375 6.34375L5.375 5.15625C5.41667 5.01042 5.46875 4.88542 5.53125 4.78125C5.65625 4.57292 5.80208 4.41667 5.96875 4.3125C6.15625 4.22917 6.3125 4.17708 6.4375 4.15625C6.9375 4.05208 7.45833 4 8 4ZM6.8125 5.59375L6.5625 6.71875C6.41667 7.21875 6.10417 7.60417 5.625 7.875C5.14583 8.14583 4.64583 8.21875 4.125 8.09375L3.0625 7.78125C2.54167 8.38542 2.14583 9.07292 1.875 9.84375L2.6875 10.625C3.0625 11 3.25 11.4583 3.25 12C3.25 12.5417 3.0625 13.0104 2.6875 13.4062L1.875 14.1562C2.14583 14.9271 2.54167 15.6146 3.0625 16.2188L4.15625 15.9062C4.65625 15.7604 5.14583 15.8333 5.625 16.125C6.10417 16.3958 6.41667 16.7812 6.5625 17.2812L6.8125 18.4062C7.60417 18.5312 8.39583 18.5312 9.1875 18.4062L9.46875 17.2812C9.61458 16.7812 9.91667 16.3958 10.375 16.125C10.8542 15.8542 11.3542 15.7812 11.875 15.9062L12.9375 16.2188C13.4583 15.6146 13.8542 14.9271 14.125 14.1562L13.3125 13.375C12.9375 13 12.75 12.5417 12.75 12C12.75 11.4583 12.9375 10.9896 13.3125 10.5938L14.125 9.84375C13.8542 9.07292 13.4583 8.38542 12.9375 7.78125L11.875 8.09375C11.3542 8.23958 10.8542 8.16667 10.375 7.875C9.91667 7.60417 9.61458 7.20833 9.46875 6.6875L9.1875 5.59375C8.39583 5.46875 7.60417 5.46875 6.8125 5.59375ZM6.5 12C6.52083 12.5625 6.77083 13 7.25 13.3125C7.75 13.5625 8.25 13.5625 8.75 13.3125C9.22917 13 9.47917 12.5625 9.5 12C9.47917 11.4375 9.22917 11 8.75 10.6875C8.25 10.4375 7.75 10.4375 7.25 10.6875C6.77083 11 6.52083 11.4375 6.5 12ZM8 15C7.45833 15 6.95833 14.8646 6.5 14.5938C6.04167 14.3229 5.67708 13.9583 5.40625 13.5C5.13542 13.0208 5 12.5208 5 12C5 11.4792 5.13542 10.9792 5.40625 10.5C5.67708 10.0417 6.04167 9.67708 6.5 9.40625C6.95833 9.13542 7.45833 9 8 9C8.54167 9 9.04167 9.13542 9.5 9.40625C9.95833 9.67708 10.3229 10.0417 10.5938 10.5C10.8646 10.9792 11 11.4792 11 12C11 12.5208 10.8646 13.0208 10.5938 13.5C10.3229 13.9583 9.95833 14.3229 9.5 14.5938C9.04167 14.8646 8.54167 15 8 15Z" fill="black" fill-opacity="0.72"/>
</g>
<defs>
<clipPath id="clip0_1731_3107">
<rect width="16" height="24" fill="white"/>
</clipPath>
</defs>
</svg>
