<svg width="8" height="24" viewBox="0 0 8 24" fill="none" xmlns="http://www.w3.org/2000/svg">
<g id="label-paired / md / grip-dots-vertical-md / regular" clip-path="url(#clip0_1731_3050)">
<path id="icon" d="M2 7C1.97917 6.6875 1.8125 6.52083 1.5 6.5C1.1875 6.52083 1.02083 6.6875 1 7C1.02083 7.3125 1.1875 7.47917 1.5 7.5C1.8125 7.47917 1.97917 7.3125 2 7ZM0 7C0.0208333 6.4375 0.270833 6 0.75 5.6875C1.25 5.4375 1.75 5.4375 2.25 5.6875C2.72917 6 2.97917 6.4375 3 7C2.97917 7.5625 2.72917 8 2.25 8.3125C1.75 8.5625 1.25 8.5625 0.75 8.3125C0.270833 8 0.0208333 7.5625 0 7ZM2 12C1.97917 11.6875 1.8125 11.5208 1.5 11.5C1.1875 11.5208 1.02083 11.6875 1 12C1.02083 12.3125 1.1875 12.4792 1.5 12.5C1.8125 12.4792 1.97917 12.3125 2 12ZM0 12C0.0208333 11.4375 0.270833 11 0.75 10.6875C1.25 10.4375 1.75 10.4375 2.25 10.6875C2.72917 11 2.97917 11.4375 3 12C2.97917 12.5625 2.72917 13 2.25 13.3125C1.75 13.5625 1.25 13.5625 0.75 13.3125C0.270833 13 0.0208333 12.5625 0 12ZM1.5 17.5C1.8125 17.4792 1.97917 17.3125 2 17C1.97917 16.6875 1.8125 16.5208 1.5 16.5C1.1875 16.5208 1.02083 16.6875 1 17C1.02083 17.3125 1.1875 17.4792 1.5 17.5ZM1.5 15.5C2.0625 15.5208 2.5 15.7708 2.8125 16.25C3.0625 16.75 3.0625 17.25 2.8125 17.75C2.5 18.2292 2.0625 18.4792 1.5 18.5C0.9375 18.4792 0.5 18.2292 0.1875 17.75C-0.0625 17.25 -0.0625 16.75 0.1875 16.25C0.5 15.7708 0.9375 15.5208 1.5 15.5ZM7 7C6.97917 6.6875 6.8125 6.52083 6.5 6.5C6.1875 6.52083 6.02083 6.6875 6 7C6.02083 7.3125 6.1875 7.47917 6.5 7.5C6.8125 7.47917 6.97917 7.3125 7 7ZM5 7C5.02083 6.4375 5.27083 6 5.75 5.6875C6.25 5.4375 6.75 5.4375 7.25 5.6875C7.72917 6 7.97917 6.4375 8 7C7.97917 7.5625 7.72917 8 7.25 8.3125C6.75 8.5625 6.25 8.5625 5.75 8.3125C5.27083 8 5.02083 7.5625 5 7ZM6.5 12.5C6.8125 12.4792 6.97917 12.3125 7 12C6.97917 11.6875 6.8125 11.5208 6.5 11.5C6.1875 11.5208 6.02083 11.6875 6 12C6.02083 12.3125 6.1875 12.4792 6.5 12.5ZM6.5 10.5C7.0625 10.5208 7.5 10.7708 7.8125 11.25C8.0625 11.75 8.0625 12.25 7.8125 12.75C7.5 13.2292 7.0625 13.4792 6.5 13.5C5.9375 13.4792 5.5 13.2292 5.1875 12.75C4.9375 12.25 4.9375 11.75 5.1875 11.25C5.5 10.7708 5.9375 10.5208 6.5 10.5ZM7 17C6.97917 16.6875 6.8125 16.5208 6.5 16.5C6.1875 16.5208 6.02083 16.6875 6 17C6.02083 17.3125 6.1875 17.4792 6.5 17.5C6.8125 17.4792 6.97917 17.3125 7 17ZM5 17C5.02083 16.4375 5.27083 16 5.75 15.6875C6.25 15.4375 6.75 15.4375 7.25 15.6875C7.72917 16 7.97917 16.4375 8 17C7.97917 17.5625 7.72917 18 7.25 18.3125C6.75 18.5625 6.25 18.5625 5.75 18.3125C5.27083 18 5.02083 17.5625 5 17Z" fill="black" fill-opacity="0.72"/>
</g>
<defs>
<clipPath id="clip0_1731_3050">
<rect width="8" height="24" fill="white"/>
</clipPath>
</defs>
</svg>
