<svg width="20" height="24" viewBox="0 0 20 24" fill="none" xmlns="http://www.w3.org/2000/svg">
<g id="label-paired / md / hands-holding-diamond-md / bold" clip-path="url(#clip0_1731_4123)">
<path id="icon" d="M9.28125 4.28125C9.48958 4.09375 9.72917 4 10 4C10.2708 4 10.5104 4.09375 10.7188 4.28125L13.7188 7.28125C13.9062 7.48958 14 7.72917 14 8C14 8.27083 13.9062 8.51042 13.7188 8.71875L10.7188 11.7188C10.5104 11.9062 10.2708 12 10 12C9.72917 12 9.48958 11.9062 9.28125 11.7188L6.28125 8.71875C6.09375 8.51042 6 8.27083 6 8C6 7.72917 6.09375 7.48958 6.28125 7.28125L9.28125 4.28125ZM2.25 6C2.89583 6.02083 3.42708 6.23958 3.84375 6.65625C4.26042 7.07292 4.47917 7.60417 4.5 8.25V12.2812C4.89583 11.9479 5.36458 11.7708 5.90625 11.75C6.51042 11.75 7.02083 11.9583 7.4375 12.375L9.375 14.3125C9.60417 14.5417 9.8125 14.8021 10 15.0938C10.1875 14.8021 10.4062 14.5417 10.6562 14.3125L12.5625 12.375C12.9792 11.9583 13.4896 11.75 14.0938 11.75C14.6354 11.7708 15.1042 11.9479 15.5 12.2812V8.25C15.5208 7.60417 15.7396 7.07292 16.1562 6.65625C16.5938 6.23958 17.125 6.02083 17.75 6C18.3958 6.02083 18.9271 6.23958 19.3438 6.65625C19.7604 7.07292 19.9792 7.60417 20 8.25V15C20 16.0417 19.6354 16.9271 18.9062 17.6562L16.7812 19.7812C16.4271 20.0729 16.0729 20.0729 15.7188 19.7812C15.4271 19.4271 15.4271 19.0729 15.7188 18.7188L17.8438 16.5938C18.2812 16.1562 18.5 15.625 18.5 15V8.25C18.4583 7.79167 18.2083 7.54167 17.75 7.5C17.2917 7.54167 17.0417 7.79167 17 8.25V12.8125C17 13.6458 16.7083 14.3542 16.125 14.9375L15.625 15.4375L14.7812 16.2812L14.2812 16.7812C13.9271 17.0729 13.5729 17.0729 13.2188 16.7812C12.9271 16.4271 12.9271 16.0729 13.2188 15.7188L13.7188 15.2188L14.5625 14.375C14.6875 14.25 14.75 14.0938 14.75 13.9062C14.7083 13.5104 14.4896 13.2917 14.0938 13.25C13.9062 13.25 13.75 13.3125 13.625 13.4375L11.6875 15.375C11.0833 16 10.7708 16.7604 10.75 17.6562V19.25C10.7083 19.7083 10.4583 19.9583 10 20C9.54167 19.9583 9.29167 19.7083 9.25 19.25V17.6562C9.22917 16.7604 8.91667 16 8.3125 15.375L6.375 13.4375C6.25 13.3125 6.09375 13.25 5.90625 13.25C5.51042 13.2917 5.29167 13.5104 5.25 13.9062C5.25 14.0938 5.3125 14.25 5.4375 14.375L6.28125 15.2188L6.78125 15.7188C7.07292 16.0729 7.07292 16.4271 6.78125 16.7812C6.42708 17.0729 6.07292 17.0729 5.71875 16.7812L5.21875 16.2812L4.375 15.4375L3.90625 14.9375C3.32292 14.3542 3.02083 13.6458 3 12.8125V8.25C2.95833 7.79167 2.70833 7.54167 2.25 7.5C1.79167 7.54167 1.54167 7.79167 1.5 8.25V15C1.5 15.625 1.71875 16.1562 2.15625 16.5938L4.28125 18.7188C4.57292 19.0729 4.57292 19.4271 4.28125 19.7812C3.92708 20.0729 3.57292 20.0729 3.21875 19.7812L1.09375 17.6562C0.385417 16.9271 0.0208333 16.0417 0 15V8.25C0.0208333 7.60417 0.239583 7.07292 0.65625 6.65625C1.07292 6.23958 1.60417 6.02083 2.25 6Z" fill="black" fill-opacity="0.72"/>
</g>
<defs>
<clipPath id="clip0_1731_4123">
<rect width="20" height="24" fill="white"/>
</clipPath>
</defs>
</svg>
