<svg width="18" height="24" viewBox="0 0 18 24" fill="none" xmlns="http://www.w3.org/2000/svg">
<g id="label-paired / md / house-blank-md / bold" clip-path="url(#clip0_1731_3948)">
<path id="icon" d="M9.5 4.1875L17.75 11.1875C18.0625 11.5 18.0833 11.8542 17.8125 12.25C17.5 12.5625 17.1562 12.5833 16.7812 12.3125L16 11.6875V17.5C15.9792 18.2083 15.7396 18.8021 15.2812 19.2812C14.8021 19.7396 14.2083 19.9792 13.5 20H4.5C3.79167 19.9792 3.19792 19.7396 2.71875 19.2812C2.26042 18.8021 2.02083 18.2083 2 17.5V11.6875L1.21875 12.3125C0.84375 12.5833 0.5 12.5625 0.1875 12.25C-0.0833333 11.8542 -0.0625 11.5 0.25 11.1875L8.5 4.1875C8.83333 3.9375 9.16667 3.9375 9.5 4.1875ZM14.5 10.4062L9 5.75L3.5 10.4062V17.5C3.5 17.7917 3.59375 18.0312 3.78125 18.2188C3.96875 18.4062 4.20833 18.5 4.5 18.5H13.5C13.7917 18.5 14.0312 18.4062 14.2188 18.2188C14.4062 18.0312 14.5 17.7917 14.5 17.5V10.4062Z" fill="black" fill-opacity="0.72"/>
</g>
<defs>
<clipPath id="clip0_1731_3948">
<rect width="18" height="24" fill="white"/>
</clipPath>
</defs>
</svg>
