<svg width="14" height="24" viewBox="0 0 14 24" fill="none" xmlns="http://www.w3.org/2000/svg">
<g id="label-paired / md / image-polaroid-user-md / regular" clip-path="url(#clip0_1731_4295)">
<path id="icon" d="M10.5 16H9.5H4.5H3.5H1V17C1 17.2917 1.09375 17.5312 1.28125 17.7188C1.46875 17.9062 1.70833 18 2 18H12C12.2917 18 12.5312 17.9062 12.7188 17.7188C12.9062 17.5312 13 17.2917 13 17V16H10.5ZM10.4375 15H13V7C13 6.70833 12.9062 6.46875 12.7188 6.28125C12.5312 6.09375 12.2917 6 12 6H2C1.70833 6 1.46875 6.09375 1.28125 6.28125C1.09375 6.46875 1 6.70833 1 7V15H3.5625C3.6875 14.4167 3.96875 13.9375 4.40625 13.5625C4.84375 13.2083 5.375 13.0208 6 13H7H8C8.625 13.0208 9.15625 13.2083 9.59375 13.5625C10.0312 13.9375 10.3125 14.4167 10.4375 15ZM4.59375 15H9.40625C9.15625 14.375 8.6875 14.0417 8 14H6C5.3125 14.0417 4.84375 14.375 4.59375 15ZM14 7V15V15.5V16V17C13.9792 17.5625 13.7812 18.0312 13.4062 18.4062C13.0312 18.7812 12.5625 18.9792 12 19H2C1.4375 18.9792 0.96875 18.7812 0.59375 18.4062C0.21875 18.0312 0.0208333 17.5625 0 17V16V15.5V15V7C0.0208333 6.4375 0.21875 5.96875 0.59375 5.59375C0.96875 5.21875 1.4375 5.02083 2 5H12C12.5625 5.02083 13.0312 5.21875 13.4062 5.59375C13.7812 5.96875 13.9792 6.4375 14 7ZM8 10C8 9.70833 7.90625 9.46875 7.71875 9.28125C7.53125 9.09375 7.29167 9 7 9C6.70833 9 6.46875 9.09375 6.28125 9.28125C6.09375 9.46875 6 9.70833 6 10C6 10.2917 6.09375 10.5312 6.28125 10.7188C6.46875 10.9062 6.70833 11 7 11C7.29167 11 7.53125 10.9062 7.71875 10.7188C7.90625 10.5312 8 10.2917 8 10ZM7 8C7.75 8.02083 8.32292 8.35417 8.71875 9C9.09375 9.66667 9.09375 10.3333 8.71875 11C8.32292 11.6458 7.75 11.9792 7 12C6.25 11.9792 5.67708 11.6458 5.28125 11C4.90625 10.3333 4.90625 9.66667 5.28125 9C5.67708 8.35417 6.25 8.02083 7 8Z" fill="black" fill-opacity="0.72"/>
</g>
<defs>
<clipPath id="clip0_1731_4295">
<rect width="14" height="24" fill="white"/>
</clipPath>
</defs>
</svg>
