<svg width="16" height="24" viewBox="0 0 16 24" fill="none" xmlns="http://www.w3.org/2000/svg">
<g id="label-paired / md / image-md / bold" clip-path="url(#clip0_1731_4287)">
<path id="icon" d="M14 6.5H2C1.6875 6.52083 1.52083 6.6875 1.5 7V17L1.65625 16.8125L4.15625 13.3125C4.30208 13.1042 4.5 13 4.75 13C5 13 5.20833 13.1042 5.375 13.3125L6.3125 14.6562L8.90625 11.2812C9.05208 11.0938 9.25 11 9.5 11C9.75 11 9.94792 11.0938 10.0938 11.2812L14.3438 16.7812L14.5 17V7C14.4792 6.6875 14.3125 6.52083 14 6.5ZM2 5H14C14.5625 5.02083 15.0312 5.21875 15.4062 5.59375C15.7812 5.96875 15.9792 6.4375 16 7V17C15.9792 17.5625 15.7812 18.0312 15.4062 18.4062C15.0312 18.7812 14.5625 18.9792 14 19H2C1.4375 18.9792 0.96875 18.7812 0.59375 18.4062C0.21875 18.0312 0.0208333 17.5625 0 17V7C0.0208333 6.4375 0.21875 5.96875 0.59375 5.59375C0.96875 5.21875 1.4375 5.02083 2 5ZM4.5 11C3.9375 10.9792 3.5 10.7292 3.1875 10.25C2.9375 9.75 2.9375 9.25 3.1875 8.75C3.5 8.27083 3.9375 8.02083 4.5 8C5.0625 8.02083 5.5 8.27083 5.8125 8.75C6.0625 9.25 6.0625 9.75 5.8125 10.25C5.5 10.7292 5.0625 10.9792 4.5 11Z" fill="black" fill-opacity="0.72"/>
</g>
<defs>
<clipPath id="clip0_1731_4287">
<rect width="16" height="24" fill="white"/>
</clipPath>
</defs>
</svg>
