<svg width="6" height="24" viewBox="0 0 6 24" fill="none" xmlns="http://www.w3.org/2000/svg">
<g id="label-paired / md / info-md / regular" clip-path="url(#clip0_1731_4147)">
<path id="icon" d="M2 6C2 5.70833 2.09375 5.46875 2.28125 5.28125C2.46875 5.09375 2.70833 5 3 5C3.29167 5 3.53125 5.09375 3.71875 5.28125C3.90625 5.46875 4 5.70833 4 6C4 6.29167 3.90625 6.53125 3.71875 6.71875C3.53125 6.90625 3.29167 7 3 7C2.70833 7 2.46875 6.90625 2.28125 6.71875C2.09375 6.53125 2 6.29167 2 6ZM0.5 9.5C0.520833 9.1875 0.6875 9.02083 1 9H3C3.3125 9.02083 3.47917 9.1875 3.5 9.5V18H5.5C5.8125 18.0208 5.97917 18.1875 6 18.5C5.97917 18.8125 5.8125 18.9792 5.5 19H0.5C0.1875 18.9792 0.0208333 18.8125 0 18.5C0.0208333 18.1875 0.1875 18.0208 0.5 18H2.5V10H1C0.6875 9.97917 0.520833 9.8125 0.5 9.5Z" fill="black" fill-opacity="0.72"/>
</g>
<defs>
<clipPath id="clip0_1731_4147">
<rect width="6" height="24" fill="white"/>
</clipPath>
</defs>
</svg>
