<svg width="6" height="24" viewBox="0 0 6 24" fill="none" xmlns="http://www.w3.org/2000/svg">
<g id="label-paired / md / info-md / bold" clip-path="url(#clip0_1731_4149)">
<path id="icon" d="M1.75 6.25C1.77083 5.77083 1.97917 5.40625 2.375 5.15625C2.79167 4.94792 3.20833 4.94792 3.625 5.15625C4.02083 5.40625 4.22917 5.77083 4.25 6.25C4.22917 6.72917 4.02083 7.09375 3.625 7.34375C3.20833 7.55208 2.79167 7.55208 2.375 7.34375C1.97917 7.09375 1.77083 6.72917 1.75 6.25ZM0.5 10.25C0.541667 9.79167 0.791667 9.54167 1.25 9.5H3C3.45833 9.54167 3.70833 9.79167 3.75 10.25V18.5H5.25C5.70833 18.5417 5.95833 18.7917 6 19.25C5.95833 19.7083 5.70833 19.9583 5.25 20H0.75C0.291667 19.9583 0.0416667 19.7083 0 19.25C0.0416667 18.7917 0.291667 18.5417 0.75 18.5H2.25V11H1.25C0.791667 10.9583 0.541667 10.7083 0.5 10.25Z" fill="black" fill-opacity="0.72"/>
</g>
<defs>
<clipPath id="clip0_1731_4149">
<rect width="6" height="24" fill="white"/>
</clipPath>
</defs>
</svg>
