<svg width="16" height="24" viewBox="0 0 16 24" fill="none" xmlns="http://www.w3.org/2000/svg">
<g id="label-paired / md / ubuntu-md" clip-path="url(#clip0_1731_13958)">
<path id="icon" d="M8 4.25C9.4375 4.27083 10.7396 4.625 11.9062 5.3125C13.0729 6 14 6.92708 14.6875 8.09375C15.375 9.26042 15.7292 10.5625 15.75 12C15.7292 13.4375 15.375 14.7396 14.6875 15.9062C14 17.0729 13.0729 18 11.9062 18.6875C10.7396 19.375 9.4375 19.7292 8 19.75C6.5625 19.7292 5.26042 19.375 4.09375 18.6875C2.92708 18 2 17.0729 1.3125 15.9062C0.625 14.7396 0.270833 13.4375 0.25 12C0.270833 10.5625 0.625 9.26042 1.3125 8.09375C2 6.92708 2.92708 6 4.09375 5.3125C5.26042 4.625 6.5625 4.27083 8 4.25ZM9.65625 7.15625C9.51042 7.40625 9.47917 7.65625 9.5625 7.90625C9.625 8.15625 9.77083 8.36458 10 8.53125C10.25 8.65625 10.5104 8.6875 10.7812 8.625C11.0312 8.54167 11.2292 8.38542 11.375 8.15625C11.5 7.90625 11.5312 7.65625 11.4688 7.40625C11.4062 7.13542 11.25 6.92708 11 6.78125C10.75 6.65625 10.5 6.625 10.25 6.6875C10 6.75 9.80208 6.90625 9.65625 7.15625ZM2.96875 13C3.26042 13 3.5 12.9062 3.6875 12.7188C3.875 12.5312 3.96875 12.2917 3.96875 12C3.96875 11.7083 3.875 11.4688 3.6875 11.2812C3.5 11.0938 3.26042 11 2.96875 11C2.69792 11 2.46875 11.0938 2.28125 11.2812C2.09375 11.4688 2 11.7083 2 12C2 12.2917 2.09375 12.5312 2.28125 12.7188C2.46875 12.9062 2.69792 13 2.96875 13ZM3.875 13.0938C4.16667 14.1354 4.75 14.9583 5.625 15.5625L6.375 14.3125C5.5625 13.7083 5.15625 12.9375 5.15625 12C5.15625 11.0625 5.5625 10.2917 6.375 9.6875L5.625 8.4375C4.75 9.04167 4.16667 9.86458 3.875 10.9062C4.20833 11.2188 4.375 11.5833 4.375 12C4.375 12.4375 4.20833 12.8021 3.875 13.0938ZM11 17.2188C11.25 17.0729 11.4062 16.8646 11.4688 16.5938C11.5312 16.3438 11.5 16.0938 11.375 15.8438C11.2292 15.6146 11.0312 15.4583 10.7812 15.375C10.5104 15.3125 10.25 15.3438 10 15.4688C9.77083 15.6146 9.625 15.8229 9.5625 16.0938C9.47917 16.3438 9.51042 16.5938 9.65625 16.8438C9.80208 17.0938 10 17.25 10.25 17.3125C10.5 17.375 10.75 17.3438 11 17.2188ZM11.0312 15.0312C11.7604 14.3021 12.1771 13.3854 12.2812 12.2812L10.8438 12.25C10.6979 13.25 10.2292 13.9896 9.4375 14.4688C8.625 14.9271 7.75 14.9688 6.8125 14.5938L6.09375 15.8438C6.84375 16.1771 7.5 16.3229 8.0625 16.2812C8.625 16.2396 8.97917 16.1875 9.125 16.125C9.20833 15.6667 9.4375 15.3333 9.8125 15.125C10.1875 14.9167 10.5938 14.8854 11.0312 15.0312ZM10.8438 11.75L12.2812 11.7188C12.1771 10.6146 11.75 9.69792 11 8.96875C10.5833 9.11458 10.1875 9.08333 9.8125 8.875C9.4375 8.66667 9.20833 8.33333 9.125 7.875C9.125 7.875 9.11458 7.875 9.09375 7.875C8.96875 7.8125 8.625 7.76042 8.0625 7.71875C7.5 7.67708 6.84375 7.82292 6.09375 8.15625L6.8125 9.4375C7.75 9.04167 8.625 9.07292 9.4375 9.53125C10.2292 10.0104 10.6979 10.75 10.8438 11.75Z" fill="black" fill-opacity="0.72"/>
</g>
<defs>
<clipPath id="clip0_1731_13958">
<rect width="16" height="24" fill="white"/>
</clipPath>
</defs>
</svg>
