<svg width="18" height="24" viewBox="0 0 18 24" fill="none" xmlns="http://www.w3.org/2000/svg">
<g id="label-paired / md / android-md" clip-path="url(#clip0_1731_13973)">
<path id="icon" d="M13.1562 13.4375C13.5938 13.3958 13.8438 13.1458 13.9062 12.6875C13.8438 12.2292 13.5938 11.9792 13.1562 11.9375C12.6979 11.9792 12.4479 12.2292 12.4062 12.6875C12.4479 13.1458 12.6979 13.3958 13.1562 13.4375ZM4.84375 13.4375C5.30208 13.3958 5.55208 13.1458 5.59375 12.6875C5.55208 12.2292 5.30208 11.9792 4.84375 11.9375C4.40625 11.9792 4.15625 12.2292 4.09375 12.6875C4.15625 13.1458 4.40625 13.3958 4.84375 13.4375ZM13.4062 8.90625C14.7188 9.63542 15.7708 10.6146 16.5625 11.8438C17.375 13.0521 17.8542 14.4375 18 16H0C0.145833 14.4375 0.625 13.0521 1.4375 11.8438C2.22917 10.6146 3.28125 9.63542 4.59375 8.90625L3.09375 6.3125C3.03125 6.20833 3.02083 6.10417 3.0625 6C3.125 5.89583 3.21875 5.84375 3.34375 5.84375C3.46875 5.84375 3.5625 5.89583 3.625 6L5.15625 8.65625C6.38542 8.09375 7.66667 7.8125 9 7.8125C10.3333 7.8125 11.6146 8.09375 12.8438 8.65625L14.375 6C14.4375 5.89583 14.5312 5.84375 14.6562 5.84375C14.7812 5.84375 14.875 5.89583 14.9375 6C14.9792 6.10417 14.9688 6.20833 14.9062 6.3125L13.4062 8.90625Z" fill="black" fill-opacity="0.72"/>
</g>
<defs>
<clipPath id="clip0_1731_13973">
<rect width="18" height="24" fill="white"/>
</clipPath>
</defs>
</svg>
