<svg width="16" height="24" viewBox="0 0 16 24" fill="none" xmlns="http://www.w3.org/2000/svg">
<g id="label-paired / md / google-md" clip-path="url(#clip0_1731_13977)">
<path id="icon" d="M15.625 12.1875C15.5833 14.4375 14.8958 16.25 13.5625 17.625C12.2083 19 10.3958 19.7083 8.125 19.75C6.6875 19.7292 5.38542 19.375 4.21875 18.6875C3.05208 18 2.125 17.0729 1.4375 15.9062C0.75 14.7396 0.395833 13.4375 0.375 12C0.395833 10.5625 0.75 9.26042 1.4375 8.09375C2.125 6.92708 3.05208 6 4.21875 5.3125C5.38542 4.625 6.6875 4.27083 8.125 4.25C10.2292 4.29167 11.9583 4.96875 13.3125 6.28125L11.2188 8.3125C10.2396 7.4375 9.14583 7.04167 7.9375 7.125C6.72917 7.1875 5.66667 7.64583 4.75 8.5C3.85417 9.375 3.375 10.5417 3.3125 12C3.35417 13.3958 3.82292 14.5521 4.71875 15.4688C5.63542 16.3854 6.77083 16.8646 8.125 16.9062C9.14583 16.8854 9.96875 16.6771 10.5938 16.2812C11.2188 15.8854 11.6875 15.4375 12 14.9375C12.2917 14.4167 12.4688 13.9583 12.5312 13.5625H8.125V10.875H15.5C15.5833 11.25 15.625 11.6875 15.625 12.1875Z" fill="black" fill-opacity="0.72"/>
</g>
<defs>
<clipPath id="clip0_1731_13977">
<rect width="16" height="24" fill="white"/>
</clipPath>
</defs>
</svg>
