<svg width="20" height="24" viewBox="0 0 20 24" fill="none" xmlns="http://www.w3.org/2000/svg">
<g id="label-paired / md / huawei-md" clip-path="url(#clip0_1731_13952)">
<path id="icon" d="M3.03125 7.125C3.03125 7.125 6.25 11 8.625 16.1562V16.1875L8.59375 16.25C8.5625 16.2812 8.53125 16.25 8.53125 16.25C7.65625 15.8125 3.96875 13.9375 2.4375 12.4688C2.4375 12.4688 1.5 11.7188 1.40625 10.4688V10.1562C1.5 8.59375 3.03125 7.125 3.03125 7.125ZM8.03125 17.5V17.5312V17.5C8.03125 17.5 8.03125 17.5312 8 17.5938C7.40625 18 5.5625 19.2812 4.75 19.5C3.59375 19.7812 2.46875 18.8438 1.78125 17.6562L7.9375 17.4375C7.9375 17.4375 8 17.4375 8.03125 17.5ZM8.09375 16.875C8.09375 16.875 8.125 16.875 8.125 16.9062V16.9688C8.125 16.9688 8.09375 17 8.0625 17C7.09375 17 3.53125 17 3.4375 17C3.4375 17 2.84375 17 2.28125 16.75C2.28125 16.75 1 16.3125 0.3125 14.9062C0.3125 14.9062 0 14.2812 0 13.375V13.3438C0 13 0.03125 12.625 0.15625 12.25C0.15625 12.25 5.40625 15.0312 8.09375 16.875ZM7.53125 4.6875V4.65625C7.53125 4.65625 8.25 4.5 8.53125 4.46875C8.53125 4.46875 10.3438 6.84375 9.46875 15.6562C9.46875 15.6875 9.4375 15.6875 9.4375 15.7188L9.40625 15.75C9.40625 15.75 9.375 15.75 9.3125 15.7188C8.75 14.875 6.09375 10.9375 5.53125 8.5C5.53125 8.5 5.40625 8.125 5.40625 7.625V7.3125C5.4375 6.6875 5.65625 6.09375 6.03125 5.625C6.40625 5.15625 6.9375 4.8125 7.53125 4.6875ZM14.4375 6.5625C14.75 7.34375 14.4375 8.5 14.4375 8.5C13.9062 10.9062 11.25 14.8438 10.6562 15.7188C10.6562 15.7188 10.625 15.75 10.5625 15.75C10.5625 15.75 10.5312 15.7188 10.5 15.6562C9.625 6.8125 11.4375 4.46875 11.4375 4.46875C11.9375 4.5625 12.4062 4.65625 12.4062 4.65625C14.0312 5.0625 14.4375 6.5625 14.4375 6.5625ZM12.0312 17.4688V17.4375H12L18.1875 17.6562C17.25 19.25 16.25 19.5312 15.6875 19.5312H15.5625C15.3438 19.5312 15.1875 19.5 15.1875 19.5C14.3438 19.25 12.5625 18 11.9688 17.5938C11.9375 17.5625 11.9375 17.5 11.9375 17.5C11.9688 17.4688 12.0312 17.4688 12.0312 17.4688ZM18.5312 10.4375C18.5 11.6875 17.5312 12.4688 17.5312 12.4688C16.0312 13.9375 12.3438 15.8125 11.4688 16.25H11.4062H11.375C11.3438 16.1875 11.375 16.125 11.375 16.125C13.7188 11.0312 16.9375 7.125 16.9375 7.125C16.9375 7.125 18.6562 8.71875 18.5312 10.4375ZM19.8125 12.2188V12.25C20.2812 13.6562 19.6562 14.8438 19.6562 14.8438C19 16.3125 17.6875 16.75 17.6875 16.75C17.0938 16.9688 16.625 16.9688 16.625 16.9688C16.5312 17 12.875 17 11.9062 17C11.875 17 11.8438 16.9375 11.8438 16.9375C11.8438 16.9062 11.875 16.8438 11.875 16.8438C14.5625 15.0312 19.8125 12.2188 19.8125 12.2188Z" fill="black" fill-opacity="0.72"/>
</g>
<defs>
<clipPath id="clip0_1731_13952">
<rect width="20" height="24" fill="white"/>
</clipPath>
</defs>
</svg>
