<svg width="16" height="24" viewBox="0 0 16 24" fill="none" xmlns="http://www.w3.org/2000/svg">
<g id="label-paired / md / telegram-md" clip-path="url(#clip0_1731_13975)">
<path id="icon" d="M8 4.25C9.4375 4.27083 10.7396 4.625 11.9062 5.3125C13.0729 6 14 6.92708 14.6875 8.09375C15.375 9.26042 15.7292 10.5625 15.75 12C15.7292 13.4375 15.375 14.7396 14.6875 15.9062C14 17.0729 13.0729 18 11.9062 18.6875C10.7396 19.375 9.4375 19.7292 8 19.75C6.5625 19.7292 5.26042 19.375 4.09375 18.6875C2.92708 18 2 17.0729 1.3125 15.9062C0.625 14.7396 0.270833 13.4375 0.25 12C0.270833 10.5625 0.625 9.26042 1.3125 8.09375C2 6.92708 2.92708 6 4.09375 5.3125C5.26042 4.625 6.5625 4.27083 8 4.25ZM11.5938 9.53125C11.5938 9.42708 11.5938 9.32292 11.5938 9.21875C11.5729 9.13542 11.5312 9.0625 11.4688 9C11.3646 8.9375 11.2604 8.90625 11.1562 8.90625C11.0521 8.90625 10.8021 8.97917 10.4062 9.125C10.0312 9.25 9.32292 9.53125 8.28125 9.96875C7.53125 10.2812 6.02083 10.9271 3.75 11.9062C3.39583 12.0521 3.20833 12.1979 3.1875 12.3438C3.1875 12.5521 3.40625 12.7083 3.84375 12.8125C3.90625 12.8125 3.96875 12.8229 4.03125 12.8438C4.21875 12.9271 4.42708 12.9896 4.65625 13.0312C4.88542 13.0938 5.07292 13.125 5.21875 13.125C5.46875 13.1458 5.75 13.0521 6.0625 12.8438C8.16667 11.4062 9.26042 10.6771 9.34375 10.6562C9.38542 10.6354 9.4375 10.6458 9.5 10.6875C9.54167 10.75 9.55208 10.7917 9.53125 10.8125C9.48958 10.9167 9.26042 11.1562 8.84375 11.5312C8.44792 11.9271 8.08333 12.2812 7.75 12.5938C7.54167 12.7604 7.42708 12.8646 7.40625 12.9062C7.34375 12.9688 7.28125 13.0312 7.21875 13.0938C7.01042 13.2604 6.88542 13.4271 6.84375 13.5938C6.78125 13.7396 6.90625 13.9271 7.21875 14.1562C7.53125 14.3438 7.8125 14.5208 8.0625 14.6875C8.3125 14.875 8.61458 15.0833 8.96875 15.3125C9.05208 15.375 9.13542 15.4375 9.21875 15.5C9.53125 15.75 9.85417 15.875 10.1875 15.875C10.4167 15.8958 10.5938 15.6354 10.7188 15.0938C10.8021 14.6146 10.9062 14.0208 11.0312 13.3125C11.1562 12.6042 11.2708 11.9062 11.375 11.2188C11.4792 10.5104 11.5521 9.94792 11.5938 9.53125Z" fill="black" fill-opacity="0.72"/>
</g>
<defs>
<clipPath id="clip0_1731_13975">
<rect width="16" height="24" fill="white"/>
</clipPath>
</defs>
</svg>
