<svg width="14" height="24" viewBox="0 0 14 24" fill="none" xmlns="http://www.w3.org/2000/svg">
<g id="label-paired / md / tiktok-md" clip-path="url(#clip0_1731_13950)">
<path id="icon" d="M14 10.5625C12.5833 10.5625 11.3021 10.1562 10.1562 9.34375V14.9062C10.1562 15.9896 9.85417 16.9583 9.25 17.8125C8.66667 18.6667 7.875 19.2917 6.875 19.6875C5.85417 20.0417 4.84375 20.0938 3.84375 19.8438C2.84375 19.5938 1.97917 19.0625 1.25 18.25C0.5625 17.4375 0.15625 16.5104 0.03125 15.4688C-0.0729167 14.4479 0.125 13.4583 0.625 12.5C1.14583 11.5625 1.86458 10.8542 2.78125 10.375C3.71875 9.91667 4.71875 9.75 5.78125 9.875V12.6875C5.28125 12.5417 4.80208 12.5521 4.34375 12.7188C3.88542 12.8646 3.5 13.1458 3.1875 13.5625C2.89583 13.9792 2.75 14.4375 2.75 14.9375C2.75 15.4167 2.89583 15.875 3.1875 16.3125C3.5 16.7083 3.89583 16.9792 4.375 17.125C4.83333 17.2917 5.3125 17.2917 5.8125 17.125C6.29167 16.9583 6.67708 16.6771 6.96875 16.2812C7.26042 15.8854 7.40625 15.4271 7.40625 14.9062V4H10.1562C10.1562 4.22917 10.1771 4.45833 10.2188 4.6875C10.4479 5.75 11.0104 6.58333 11.9062 7.1875C12.5521 7.60417 13.25 7.82292 14 7.84375V10.5625Z" fill="black" fill-opacity="0.72"/>
</g>
<defs>
<clipPath id="clip0_1731_13950">
<rect width="14" height="24" fill="white"/>
</clipPath>
</defs>
</svg>
