<svg width="20" height="24" viewBox="0 0 20 24" fill="none" xmlns="http://www.w3.org/2000/svg">
<g id="label-paired / md / harmony-os-md" clip-path="url(#clip0_1731_13953)">
<path id="icon" d="M5.25 4H14.7188C16.5312 4 18 5.46875 18 7.28125V16.75C18 18.5625 16.5312 20 14.7188 20H5.25C3.4375 20 2 18.5625 2 16.75V7.28125C2 5.46875 3.4375 4 5.25 4ZM5.875 7.6875V11.2812H6.59375V9.75H8.15625V11.2812H8.84375V7.6875H8.15625V9.09375H6.59375V7.6875H5.875ZM10.75 7.6875V11.2812H11.4375V9.5L11.375 8.90625H11.4375L12.375 10.5H12.7812L13.75 8.90625H13.7812L13.75 9.5V11.2812H14.4375V7.6875H13.75L12.5938 9.5625H12.5625L11.4375 7.6875H10.75ZM12.1562 16.375C12.3125 16.4062 12.4688 16.4375 12.625 16.4375C12.7812 16.4375 12.9375 16.4062 13.0938 16.375C13.25 16.3125 13.375 16.25 13.5 16.1562C13.625 16.0625 13.7188 15.9688 13.8125 15.8438C13.875 15.6875 13.9375 15.5312 13.9375 15.3438C13.9375 15.1875 13.9062 15.0625 13.8438 14.9375C13.8125 14.8438 13.75 14.7188 13.6562 14.625C13.5625 14.5312 13.4375 14.4688 13.3125 14.4062C13.1875 14.3438 13.0625 14.2812 12.9062 14.2188L12.6875 14.1562C12.4688 14.0938 12.3125 14 12.1875 13.9375C12.0938 13.875 12.0625 13.7812 12.0625 13.6562C12.0625 13.5625 12.0938 13.4688 12.2188 13.4062C12.3125 13.3125 12.4375 13.2812 12.5938 13.2812C12.75 13.2812 12.875 13.3438 12.9688 13.4062C13.0625 13.5 13.125 13.5938 13.1562 13.6875L13.8125 13.4375C13.7812 13.3438 13.7188 13.2812 13.6562 13.1875C13.625 13.0938 13.5312 13 13.4375 12.9375C13.3438 12.8438 13.2188 12.7812 13.0625 12.75C12.9375 12.6875 12.7812 12.6875 12.5938 12.6875C12.4062 12.6875 12.2188 12.6875 12.0938 12.75C11.9375 12.8125 11.8125 12.875 11.6875 12.9688C11.5938 13.0625 11.5 13.1562 11.4375 13.2812C11.375 13.4062 11.3438 13.5312 11.3438 13.6875C11.3438 13.8125 11.375 13.9375 11.4375 14.0625C11.5 14.1562 11.5625 14.25 11.6562 14.3438C11.7188 14.4062 11.8125 14.5 11.9375 14.5312C12.0312 14.5938 12.125 14.6562 12.25 14.6875L12.4688 14.75C12.625 14.8125 12.7188 14.8438 12.8125 14.9062C12.9062 14.9375 13 14.9688 13.0625 15.0312C13.0938 15.0625 13.1562 15.125 13.1875 15.1875C13.1875 15.2188 13.2188 15.2812 13.2188 15.3438C13.2188 15.4375 13.1875 15.5 13.1562 15.5312C13.125 15.5938 13.0938 15.625 13.0312 15.6875C12.9688 15.7188 12.9375 15.75 12.8438 15.75C12.7812 15.7812 12.7188 15.7812 12.625 15.7812C12.4375 15.7812 12.2812 15.7188 12.1562 15.5938C12.0312 15.5 11.9375 15.3438 11.9062 15.1562L11.2188 15.4062C11.2812 15.5625 11.3438 15.7188 11.4375 15.8438C11.5312 15.9688 11.625 16.0625 11.75 16.1562C11.875 16.25 12.0312 16.3125 12.1562 16.375ZM7.375 16.4375C7.625 16.4375 7.875 16.375 8.09375 16.2812C8.3125 16.1875 8.5 16.0625 8.6875 15.875C8.84375 15.7188 8.96875 15.5 9.0625 15.2812C9.15625 15.0625 9.1875 14.8125 9.1875 14.5625C9.1875 14.2812 9.15625 14.0312 9.0625 13.8125C8.96875 13.5938 8.84375 13.375 8.6875 13.2188C8.5 13.0625 8.3125 12.9062 8.09375 12.8125C7.875 12.7188 7.625 12.6875 7.375 12.6875C7.125 12.6875 6.875 12.7188 6.65625 12.8125C6.40625 12.9062 6.21875 13.0625 6.0625 13.2188C5.90625 13.375 5.78125 13.5938 5.6875 13.8125C5.59375 14.0312 5.53125 14.2812 5.53125 14.5625C5.53125 14.8125 5.59375 15.0625 5.6875 15.2812C5.78125 15.5 5.90625 15.7188 6.0625 15.875C6.21875 16.0625 6.40625 16.1875 6.65625 16.2812C6.875 16.375 7.125 16.4375 7.375 16.4375ZM7.375 15.7812C7.21875 15.7812 7.0625 15.75 6.90625 15.6875C6.78125 15.625 6.65625 15.5625 6.53125 15.4375C6.4375 15.3438 6.34375 15.2188 6.28125 15.0625C6.21875 14.9062 6.1875 14.7188 6.1875 14.5625C6.1875 14.375 6.21875 14.1875 6.28125 14.0312C6.34375 13.9062 6.4375 13.75 6.53125 13.6562C6.65625 13.5625 6.78125 13.4688 6.90625 13.4062C7.0625 13.3438 7.21875 13.3125 7.375 13.3125C7.53125 13.3125 7.6875 13.3438 7.8125 13.4062C7.96875 13.4688 8.09375 13.5625 8.1875 13.6562C8.3125 13.75 8.375 13.9062 8.4375 14.0312C8.5 14.1875 8.53125 14.375 8.53125 14.5625C8.53125 14.7188 8.5 14.9062 8.4375 15.0625C8.375 15.2188 8.3125 15.3438 8.1875 15.4375C8.09375 15.5625 7.96875 15.625 7.8125 15.6875C7.6875 15.75 7.53125 15.7812 7.375 15.7812ZM6.03125 16.75V16.7812V17.375H8.65625V16.75H6.03125Z" fill="black" fill-opacity="0.72"/>
</g>
<defs>
<clipPath id="clip0_1731_13953">
<rect width="20" height="24" fill="white"/>
</clipPath>
</defs>
</svg>
