<svg width="20" height="24" viewBox="0 0 20 24" fill="none" xmlns="http://www.w3.org/2000/svg">
<g id="label-paired / md / language-md / regular" clip-path="url(#clip0_1731_3849)">
<path id="icon" d="M9.5 7H2C1.70833 7 1.46875 7.09375 1.28125 7.28125C1.09375 7.46875 1 7.70833 1 8V16C1 16.2917 1.09375 16.5312 1.28125 16.7188C1.46875 16.9062 1.70833 17 2 17H9.5V7ZM10.5 7V17H18C18.2917 17 18.5312 16.9062 18.7188 16.7188C18.9062 16.5312 19 16.2917 19 16V8C19 7.70833 18.9062 7.46875 18.7188 7.28125C18.5312 7.09375 18.2917 7 18 7H10.5ZM20 8V16C19.9792 16.5625 19.7812 17.0312 19.4062 17.4062C19.0312 17.7812 18.5625 17.9792 18 18H2C1.4375 17.9792 0.96875 17.7812 0.59375 17.4062C0.21875 17.0312 0.0208333 16.5625 0 16V8C0.0208333 7.4375 0.21875 6.96875 0.59375 6.59375C0.96875 6.21875 1.4375 6.02083 2 6H18C18.5625 6.02083 19.0312 6.21875 19.4062 6.59375C19.7812 6.96875 19.9792 7.4375 20 8ZM5.46875 9.3125L7.46875 14.3125C7.55208 14.6042 7.45833 14.8229 7.1875 14.9688C6.89583 15.0521 6.67708 14.9583 6.53125 14.6875L6.25 14H3.75L3.46875 14.6875C3.32292 14.9583 3.10417 15.0521 2.8125 14.9688C2.54167 14.8229 2.44792 14.6042 2.53125 14.3125L4.53125 9.3125C4.63542 9.10417 4.79167 9 5 9C5.20833 9 5.36458 9.10417 5.46875 9.3125ZM5 10.8438L4.125 13H5.875L5 10.8438ZM15.5 9.5V10H17H17.5C17.8125 10.0208 17.9792 10.1875 18 10.5C17.9792 10.8125 17.8125 10.9792 17.5 11H17.3438L17.2188 11.375C16.9062 12.1875 16.4479 12.9062 15.8438 13.5312C15.9479 13.5938 16.0521 13.6562 16.1562 13.7188L16.75 14.0625C17 14.25 17.0625 14.4792 16.9375 14.75C16.75 15 16.5208 15.0625 16.25 14.9375L15.6562 14.5625C15.4479 14.4583 15.25 14.3333 15.0625 14.1875C14.8125 14.375 14.5417 14.5417 14.25 14.6875L13.7188 14.9375C13.4271 15.0417 13.2083 14.9688 13.0625 14.7188C12.9375 14.4271 13.0104 14.2083 13.2812 14.0625L13.8125 13.7812C13.9792 13.6979 14.1458 13.6042 14.3125 13.5L13.6562 12.8438C13.4688 12.6146 13.4688 12.3854 13.6562 12.1562C13.8854 11.9479 14.1146 11.9479 14.3438 12.1562L15.0625 12.8438L15.0938 12.875C15.6146 12.3542 16.0104 11.7396 16.2812 11.0312V11H15H12.5C12.1875 10.9792 12.0208 10.8125 12 10.5C12.0208 10.1875 12.1875 10.0208 12.5 10H14.5V9.5C14.5208 9.1875 14.6875 9.02083 15 9C15.3125 9.02083 15.4792 9.1875 15.5 9.5Z" fill="black" fill-opacity="0.72"/>
</g>
<defs>
<clipPath id="clip0_1731_3849">
<rect width="20" height="24" fill="white"/>
</clipPath>
</defs>
</svg>
