<svg width="20" height="24" viewBox="0 0 20 24" fill="none" xmlns="http://www.w3.org/2000/svg">
<g id="label-paired / md / laptop-mobile-md / regular" clip-path="url(#clip0_1731_3905)">
<path id="icon" d="M4 5C3.70833 5 3.46875 5.09375 3.28125 5.28125C3.09375 5.46875 3 5.70833 3 6V13H11V14H3H2H1.0625C1.27083 14.625 1.71875 14.9583 2.40625 15H11V16H2.40625C1.71875 15.9792 1.15625 15.75 0.71875 15.3125C0.260417 14.8542 0.0208333 14.2812 0 13.5938C0.0416667 13.2396 0.239583 13.0417 0.59375 13H2V6C2.02083 5.4375 2.21875 4.96875 2.59375 4.59375C2.96875 4.21875 3.4375 4.02083 4 4H14C14.5625 4.02083 15.0312 4.21875 15.4062 4.59375C15.7812 4.96875 15.9792 5.4375 16 6V7H15V6C15 5.70833 14.9062 5.46875 14.7188 5.28125C14.5312 5.09375 14.2917 5 14 5H4ZM13 9.5V18.5C13.0208 18.8125 13.1875 18.9792 13.5 19H18.5C18.8125 18.9792 18.9792 18.8125 19 18.5V9.5C18.9792 9.1875 18.8125 9.02083 18.5 9H13.5C13.1875 9.02083 13.0208 9.1875 13 9.5ZM12 9.5C12.0208 9.08333 12.1667 8.72917 12.4375 8.4375C12.7292 8.16667 13.0833 8.02083 13.5 8H18.5C18.9167 8.02083 19.2708 8.16667 19.5625 8.4375C19.8333 8.72917 19.9792 9.08333 20 9.5V18.5C19.9792 18.9167 19.8333 19.2708 19.5625 19.5625C19.2708 19.8333 18.9167 19.9792 18.5 20H13.5C13.0833 19.9792 12.7292 19.8333 12.4375 19.5625C12.1667 19.2708 12.0208 18.9167 12 18.5V9.5Z" fill="black" fill-opacity="0.72"/>
</g>
<defs>
<clipPath id="clip0_1731_3905">
<rect width="20" height="24" fill="white"/>
</clipPath>
</defs>
</svg>
