<svg width="16" height="24" viewBox="0 0 16 24" fill="none" xmlns="http://www.w3.org/2000/svg">
<g id="label-paired / md / life-ring-md / regular" clip-path="url(#clip0_1731_3270)">
<path id="icon" d="M12.5938 17.2812L9.75 14.4375C9.25 14.7917 8.66667 14.9792 8 15C7.33333 14.9792 6.75 14.7917 6.25 14.4375L3.40625 17.2812C4.67708 18.3854 6.20833 18.9583 8 19C9.79167 18.9583 11.3229 18.3854 12.5938 17.2812ZM13.2812 16.5938C14.3854 15.3229 14.9583 13.7917 15 12C14.9583 10.2083 14.3854 8.67708 13.2812 7.40625L10.4375 10.25C10.7917 10.75 10.9792 11.3333 11 12C10.9792 12.6667 10.7917 13.25 10.4375 13.75L13.2812 16.5938ZM14 17.2812L14.3438 17.6562C14.5521 17.8854 14.5521 18.1146 14.3438 18.3438C14.1146 18.5521 13.8854 18.5521 13.6562 18.3438L13.2812 18C11.8438 19.2917 10.0833 19.9583 8 20C5.91667 19.9583 4.15625 19.2917 2.71875 18L2.34375 18.3438C2.11458 18.5521 1.88542 18.5521 1.65625 18.3438C1.44792 18.1146 1.44792 17.8854 1.65625 17.6562L2 17.2812C0.708333 15.8229 0.0416667 14.0625 0 12C0.0416667 9.9375 0.708333 8.17708 2 6.71875L1.65625 6.34375C1.44792 6.11458 1.44792 5.88542 1.65625 5.65625C1.88542 5.44792 2.11458 5.44792 2.34375 5.65625L2.71875 6C4.17708 4.70833 5.9375 4.04167 8 4C10.0625 4.04167 11.8229 4.70833 13.2812 6L13.6562 5.65625C13.8854 5.44792 14.1146 5.44792 14.3438 5.65625C14.5521 5.88542 14.5521 6.11458 14.3438 6.34375L14 6.71875C15.2917 8.15625 15.9583 9.91667 16 12C15.9583 14.0833 15.2917 15.8438 14 17.2812ZM12.5938 6.71875C11.3229 5.61458 9.79167 5.04167 8 5C6.20833 5.04167 4.67708 5.61458 3.40625 6.71875L6.25 9.5625C6.75 9.20833 7.33333 9.02083 8 9C8.66667 9.02083 9.25 9.20833 9.75 9.5625L12.5938 6.71875ZM5.5625 13.75C5.20833 13.25 5.02083 12.6667 5 12C5.02083 11.3333 5.20833 10.75 5.5625 10.25L2.71875 7.40625C1.61458 8.67708 1.04167 10.2083 1 12C1.04167 13.7917 1.61458 15.3229 2.71875 16.5938L5.5625 13.75ZM6 12C6.02083 12.75 6.35417 13.3229 7 13.7188C7.66667 14.0938 8.33333 14.0938 9 13.7188C9.64583 13.3229 9.97917 12.75 10 12C9.97917 11.25 9.64583 10.6771 9 10.2812C8.33333 9.90625 7.66667 9.90625 7 10.2812C6.35417 10.6771 6.02083 11.25 6 12Z" fill="black" fill-opacity="0.72"/>
</g>
<defs>
<clipPath id="clip0_1731_3270">
<rect width="16" height="24" fill="white"/>
</clipPath>
</defs>
</svg>
