<svg width="20" height="24" viewBox="0 0 20 24" fill="none" xmlns="http://www.w3.org/2000/svg">
<g id="label-paired / md / light-user-tie-circle-dollar-md / regular" clip-path="url(#clip0_1731_4279)">
<path id="icon" d="M0 19.0625C0 16.5938 1.75 14.5312 4.09375 14.0938C4.3125 14.0625 4.53125 14.1875 4.59375 14.375C4.9375 15.0938 5.28125 15.8125 5.625 16.5312C5.84375 15.875 6.0625 15.1875 6.28125 14.5C6.1875 14.5 6.09375 14.5 5.96875 14.5C5.71875 14.5 5.46875 14.2812 5.46875 14C5.46875 13.75 5.71875 13.5 5.96875 13.5C6.3125 13.5 6.65625 13.5 6.96875 13.5C7.3125 13.5 7.65625 13.5 7.96875 13.5C8.25 13.5 8.46875 13.75 8.46875 14C8.46875 14.2812 8.25 14.5 7.96875 14.5C7.875 14.5 7.78125 14.5 7.6875 14.5C7.90625 15.1875 8.125 15.875 8.34375 16.5312C8.6875 15.8125 9.03125 15.0938 9.34375 14.375C9.4375 14.1875 9.65625 14.0625 9.875 14.0938C9.96875 14.125 10.0625 14.125 10.1562 14.1562C10.0625 14.5625 10 14.9688 10 15.4062C9.4375 16.5938 8.90625 17.75 8.34375 18.9375C8.34375 18.9688 8.3125 19 8.3125 19C9.28125 19 10.2812 19 11.25 19C11.5625 19.4062 11.9062 19.7188 12.3125 20C8.53125 20 4.75 20 0.9375 20C0.40625 20 0 19.5938 0 19.0625ZM1 19C2.53125 19 4.09375 19 5.65625 19C5.65625 19 5.625 18.9688 5.625 18.9375C5.03125 17.6875 4.46875 16.4375 3.875 15.1875C2.21875 15.6562 1 17.1875 1 19ZM3 8C3 6.59375 3.75 5.25 5 4.5625C6.21875 3.84375 7.75 3.84375 9 4.5625C10.2188 5.25 11 6.59375 11 8C11 9.4375 10.2188 10.75 9 11.4688C7.75 12.1875 6.21875 12.1875 5 11.4688C3.75 10.75 3 9.4375 3 8ZM4.375 6.5C3.84375 7.4375 3.84375 8.59375 4.375 9.5C4.9375 10.4375 5.90625 11 7 11C8.0625 11 9.0625 10.4375 9.59375 9.5C10.125 8.59375 10.125 7.4375 9.59375 6.5C9.0625 5.59375 8.0625 5 7 5C5.90625 5 4.9375 5.59375 4.375 6.5ZM6.21875 17.875C6.34375 18.0938 6.4375 18.3125 6.53125 18.5312C6.71875 18.9062 7.25 18.9062 7.4375 18.5312C7.53125 18.3125 7.65625 18.0938 7.75 17.875C7.5 17.125 7.25 16.3438 7 15.5938L6.21875 17.875ZM11 15.5C11 13.0312 13 11 15.5 11C17.9688 11 20 13.0312 20 15.5C20 18 17.9688 20 15.5 20C13 20 11 18 11 15.5ZM12 15.5C12 17.4375 13.5625 19 15.5 19C17.4062 19 19 17.4375 19 15.5C19 13.5938 17.4062 12 15.5 12C13.5625 12 12 13.5938 12 15.5ZM13.75 14.6562C13.7188 14.0625 14.0625 13.6875 14.4375 13.5C14.5938 13.4062 14.7812 13.3438 15 13.3125C15 13.2188 15 13.0938 15 13C15 12.7188 15.2188 12.5 15.5 12.5C15.75 12.5 16 12.7188 16 13C16 13.0938 16 13.2188 16 13.3125C16.1875 13.3438 16.375 13.375 16.5312 13.4062C16.8125 13.4688 16.9688 13.75 16.9062 14.0312C16.8438 14.2812 16.5625 14.4688 16.3125 14.375C16 14.3125 15.75 14.25 15.4688 14.25C15.2812 14.25 15.0625 14.3125 14.9062 14.375C14.8125 14.4375 14.7812 14.4688 14.75 14.5C14.75 14.5 14.75 14.5312 14.75 14.5938C14.75 14.625 14.75 14.6562 14.875 14.75C15.0625 14.8438 15.3125 14.9062 15.625 15C15.625 15 15.625 15 15.6562 15C15.9375 15.0938 16.3125 15.1875 16.5938 15.375C16.9062 15.5625 17.2188 15.875 17.25 16.375C17.25 16.9375 16.9375 17.3125 16.5625 17.5312C16.375 17.625 16.1875 17.6875 16 17.7188C16 17.8438 16 17.9375 16 18.0625C16 18.3438 15.75 18.5625 15.5 18.5625C15.2188 18.5625 15 18.3438 15 18.0625C15 17.9375 15 17.8125 15 17.6875C14.7188 17.6562 14.4688 17.5625 14.25 17.5C14.1875 17.4688 14.125 17.4688 14.0938 17.4375C13.8125 17.375 13.6875 17.0938 13.75 16.8125C13.8438 16.5625 14.125 16.4062 14.375 16.5C14.4375 16.5 14.5 16.5312 14.5625 16.5312C14.9375 16.6562 15.2188 16.75 15.5 16.75C15.7188 16.75 15.9375 16.7188 16.0938 16.6562C16.1562 16.5938 16.1875 16.5625 16.2188 16.5312C16.2188 16.5312 16.25 16.4688 16.25 16.4062C16.25 16.3438 16.2188 16.3125 16.0938 16.2188C15.9375 16.125 15.6875 16.0625 15.375 15.9688C15.3438 15.9688 15.3125 15.9688 15.3125 15.9375C15.0312 15.875 14.6875 15.7812 14.4062 15.625C14.0938 15.4688 13.7812 15.1562 13.75 14.6562Z" fill="black" fill-opacity="0.72"/>
</g>
<defs>
<clipPath id="clip0_1731_4279">
<rect width="20" height="24" fill="white"/>
</clipPath>
</defs>
</svg>
