<svg width="20" height="24" viewBox="0 0 20 24" fill="none" xmlns="http://www.w3.org/2000/svg">
<g id="label-paired / md / light-chart-line-up-down-clock-md / bold" clip-path="url(#clip0_1731_3790)">
<path id="icon" d="M0 5.75C0 5.34375 0.3125 5 0.75 5C1.15625 5 1.5 5.34375 1.5 5.75C1.5 9.4375 1.5 13.0938 1.5 16.75C1.5 17.1875 1.8125 17.5 2.25 17.5C4.9375 17.5 7.65625 17.5 10.375 17.5C10.5625 18.0625 10.875 18.5625 11.25 19C8.25 19 5.25 19 2.25 19C1 19 0 18 0 16.75C0 13.0938 0 9.4375 0 5.75ZM3.46875 11.5L5.96875 9C6.25 8.6875 6.71875 8.6875 7.03125 9C7.6875 9.65625 8.34375 10.3125 9 10.9688C10.125 9.8125 11.2812 8.65625 12.4375 7.5C12.1875 7.5 11.9688 7.5 11.75 7.5C11.3125 7.5 11 7.1875 11 6.75C11 6.34375 11.3125 6 11.75 6C12.5625 6 13.4062 6 14.25 6C14.4375 6 14.625 6.09375 14.7812 6.21875C14.9062 6.375 15 6.5625 15 6.75C15 7.59375 15 8.4375 15 9.25C15 9.6875 14.6562 10 14.25 10C13.8125 10 13.5 9.6875 13.5 9.25C13.5 9.03125 13.5 8.8125 13.5 8.5625C12.1562 9.90625 10.8438 11.2188 9.53125 12.5312C9.21875 12.8438 8.75 12.8438 8.46875 12.5312C7.8125 11.875 7.15625 11.2188 6.5 10.5625C5.84375 11.2188 5.1875 11.875 4.53125 12.5312C4.21875 12.8438 3.75 12.8438 3.46875 12.5312C3.15625 12.25 3.15625 11.7812 3.46875 11.5ZM11 15.5C11 13.0312 13 11 15.5 11C17.9688 11 20 13.0312 20 15.5C20 18 17.9688 20 15.5 20C13 20 11 18 11 15.5ZM15 13.5V15.5C15 15.7812 15.2188 16 15.5 16C16 16 16.5 16 17 16C17.25 16 17.5 15.7812 17.5 15.5C17.5 15.25 17.25 15 17 15C16.6562 15 16.3125 15 16 15C16 14.5 16 14 16 13.5C16 13.25 15.75 13 15.5 13C15.2188 13 15 13.25 15 13.5Z" fill="black" fill-opacity="0.72"/>
</g>
<defs>
<clipPath id="clip0_1731_3790">
<rect width="20" height="24" fill="white"/>
</clipPath>
</defs>
</svg>
