<svg width="18" height="24" viewBox="0 0 18 24" fill="none" xmlns="http://www.w3.org/2000/svg">
<g id="label-paired / md / link-simple-md / regular" clip-path="url(#clip0_1731_3834)">
<path id="icon" d="M0 12C0.0416667 10.5833 0.53125 9.40625 1.46875 8.46875C2.40625 7.53125 3.58333 7.04167 5 7H7.5C7.8125 7.02083 7.97917 7.1875 8 7.5C7.97917 7.8125 7.8125 7.97917 7.5 8H5C3.875 8.02083 2.92708 8.40625 2.15625 9.15625C1.40625 9.92708 1.02083 10.875 1 12C1.02083 13.125 1.40625 14.0729 2.15625 14.8438C2.92708 15.5938 3.875 15.9792 5 16H7.5C7.8125 16.0208 7.97917 16.1875 8 16.5C7.97917 16.8125 7.8125 16.9792 7.5 17H5C3.58333 16.9583 2.40625 16.4688 1.46875 15.5312C0.53125 14.5938 0.0416667 13.4167 0 12ZM18 12C17.9583 13.4167 17.4688 14.5938 16.5312 15.5312C15.5938 16.4688 14.4167 16.9583 13 17H10.5C10.1875 16.9792 10.0208 16.8125 10 16.5C10.0208 16.1875 10.1875 16.0208 10.5 16H13C14.125 15.9792 15.0729 15.5938 15.8438 14.8438C16.5938 14.0729 16.9792 13.125 17 12C16.9792 10.875 16.5938 9.92708 15.8438 9.15625C15.0729 8.40625 14.125 8.02083 13 8H10.5C10.1875 7.97917 10.0208 7.8125 10 7.5C10.0208 7.1875 10.1875 7.02083 10.5 7H13C14.4167 7.04167 15.5938 7.53125 16.5312 8.46875C17.4688 9.40625 17.9583 10.5833 18 12ZM4.75 11.5H13.25C13.5625 11.5208 13.7292 11.6875 13.75 12C13.7292 12.3125 13.5625 12.4792 13.25 12.5H4.75C4.4375 12.4792 4.27083 12.3125 4.25 12C4.27083 11.6875 4.4375 11.5208 4.75 11.5Z" fill="black" fill-opacity="0.72"/>
</g>
<defs>
<clipPath id="clip0_1731_3834">
<rect width="18" height="24" fill="white"/>
</clipPath>
</defs>
</svg>
