<svg width="16" height="24" viewBox="0 0 16 24" fill="none" xmlns="http://www.w3.org/2000/svg">
<g id="label-paired / md / location-crosshairs-md / regular" clip-path="url(#clip0_1731_3931)">
<path id="icon" d="M8 4C8.3125 4.02083 8.47917 4.1875 8.5 4.5V6.03125C9.97917 6.17708 11.2292 6.75 12.25 7.75C13.25 8.77083 13.8229 10.0208 13.9688 11.5H15.5C15.8125 11.5208 15.9792 11.6875 16 12C15.9792 12.3125 15.8125 12.4792 15.5 12.5H13.9688C13.8229 13.9792 13.25 15.2292 12.25 16.25C11.2292 17.25 9.97917 17.8229 8.5 17.9688V19.5C8.47917 19.8125 8.3125 19.9792 8 20C7.6875 19.9792 7.52083 19.8125 7.5 19.5V17.9688C6.02083 17.8229 4.77083 17.25 3.75 16.25C2.75 15.2292 2.17708 13.9792 2.03125 12.5H0.5C0.1875 12.4792 0.0208333 12.3125 0 12C0.0208333 11.6875 0.1875 11.5208 0.5 11.5H2.03125C2.17708 10.0208 2.75 8.77083 3.75 7.75C4.77083 6.75 6.02083 6.17708 7.5 6.03125V4.5C7.52083 4.1875 7.6875 4.02083 8 4ZM3 12C3 12.8958 3.21875 13.7292 3.65625 14.5C4.11458 15.2708 4.72917 15.8854 5.5 16.3438C6.29167 16.7812 7.125 17 8 17C8.875 17 9.70833 16.7812 10.5 16.3438C11.2708 15.8854 11.8854 15.2708 12.3438 14.5C12.7812 13.7292 13 12.8958 13 12C13 11.1042 12.7812 10.2708 12.3438 9.5C11.8854 8.72917 11.2708 8.11458 10.5 7.65625C9.70833 7.21875 8.875 7 8 7C7.125 7 6.29167 7.21875 5.5 7.65625C4.72917 8.11458 4.11458 8.72917 3.65625 9.5C3.21875 10.2708 3 11.1042 3 12ZM10 12C9.97917 11.25 9.64583 10.6771 9 10.2812C8.33333 9.90625 7.66667 9.90625 7 10.2812C6.35417 10.6771 6.02083 11.25 6 12C6.02083 12.75 6.35417 13.3229 7 13.7188C7.66667 14.0938 8.33333 14.0938 9 13.7188C9.64583 13.3229 9.97917 12.75 10 12ZM5 12C5 11.4583 5.13542 10.9583 5.40625 10.5C5.67708 10.0417 6.04167 9.67708 6.5 9.40625C6.97917 9.13542 7.47917 9 8 9C8.52083 9 9.02083 9.13542 9.5 9.40625C9.95833 9.67708 10.3229 10.0417 10.5938 10.5C10.8646 10.9583 11 11.4583 11 12C11 12.5417 10.8646 13.0417 10.5938 13.5C10.3229 13.9583 9.95833 14.3229 9.5 14.5938C9.02083 14.8646 8.52083 15 8 15C7.47917 15 6.97917 14.8646 6.5 14.5938C6.04167 14.3229 5.67708 13.9583 5.40625 13.5C5.13542 13.0417 5 12.5417 5 12Z" fill="black" fill-opacity="0.72"/>
</g>
<defs>
<clipPath id="clip0_1731_3931">
<rect width="16" height="24" fill="white"/>
</clipPath>
</defs>
</svg>
