<svg width="16" height="24" viewBox="0 0 16 24" fill="none" xmlns="http://www.w3.org/2000/svg">
<g id="label-paired / md / location-crosshairs-md / bold" clip-path="url(#clip0_1731_3933)">
<path id="icon" d="M8 4C8.45833 4.04167 8.70833 4.29167 8.75 4.75V6.0625C10.125 6.25 11.2917 6.8125 12.25 7.75C13.1875 8.70833 13.7604 9.875 13.9688 11.25H15.25C15.7083 11.2917 15.9583 11.5417 16 12C15.9583 12.4583 15.7083 12.7083 15.25 12.75H13.9688C13.7604 14.125 13.1875 15.2917 12.25 16.25C11.2917 17.1875 10.125 17.7604 8.75 17.9688V19.25C8.70833 19.7083 8.45833 19.9583 8 20C7.54167 19.9583 7.29167 19.7083 7.25 19.25V17.9688C5.875 17.7604 4.70833 17.1875 3.75 16.25C2.8125 15.2917 2.25 14.125 2.0625 12.75H0.75C0.291667 12.7083 0.0416667 12.4583 0 12C0.0416667 11.5417 0.291667 11.2917 0.75 11.25H2.0625C2.25 9.875 2.8125 8.70833 3.75 7.75C4.70833 6.8125 5.875 6.25 7.25 6.0625V4.75C7.29167 4.29167 7.54167 4.04167 8 4ZM3.5 12C3.5 12.8125 3.69792 13.5625 4.09375 14.25C4.48958 14.9375 5.04167 15.4896 5.75 15.9062C6.45833 16.3021 7.20833 16.5 8 16.5C8.79167 16.5 9.54167 16.3021 10.25 15.9062C10.9583 15.4896 11.5104 14.9375 11.9062 14.25C12.3021 13.5625 12.5 12.8125 12.5 12C12.5 11.1875 12.3021 10.4375 11.9062 9.75C11.5104 9.0625 10.9583 8.51042 10.25 8.09375C9.54167 7.69792 8.79167 7.5 8 7.5C7.20833 7.5 6.45833 7.69792 5.75 8.09375C5.04167 8.51042 4.48958 9.0625 4.09375 9.75C3.69792 10.4375 3.5 11.1875 3.5 12ZM9.5 12C9.47917 11.4375 9.22917 11 8.75 10.6875C8.25 10.4375 7.75 10.4375 7.25 10.6875C6.77083 11 6.52083 11.4375 6.5 12C6.52083 12.5625 6.77083 13 7.25 13.3125C7.75 13.5625 8.25 13.5625 8.75 13.3125C9.22917 13 9.47917 12.5625 9.5 12ZM5 12C5 11.4583 5.13542 10.9583 5.40625 10.5C5.67708 10.0417 6.04167 9.67708 6.5 9.40625C6.97917 9.13542 7.47917 9 8 9C8.52083 9 9.02083 9.13542 9.5 9.40625C9.95833 9.67708 10.3229 10.0417 10.5938 10.5C10.8646 10.9583 11 11.4583 11 12C11 12.5417 10.8646 13.0417 10.5938 13.5C10.3229 13.9583 9.95833 14.3229 9.5 14.5938C9.02083 14.8646 8.52083 15 8 15C7.47917 15 6.97917 14.8646 6.5 14.5938C6.04167 14.3229 5.67708 13.9583 5.40625 13.5C5.13542 13.0417 5 12.5417 5 12Z" fill="black" fill-opacity="0.72"/>
</g>
<defs>
<clipPath id="clip0_1731_3933">
<rect width="16" height="24" fill="white"/>
</clipPath>
</defs>
</svg>
