<svg width="18" height="24" viewBox="0 0 18 24" fill="none" xmlns="http://www.w3.org/2000/svg">
<g id="label-paired / md / memo-circle-check-md / regular" clip-path="url(#clip0_1731_4027)">
<path id="icon" d="M10 5H2C1.70833 5 1.46875 5.09375 1.28125 5.28125C1.09375 5.46875 1 5.70833 1 6V18C1 18.2917 1.09375 18.5312 1.28125 18.7188C1.46875 18.9062 1.70833 19 2 19H9.25C9.5625 19.375 9.91667 19.6979 10.3125 19.9688C10.2083 19.9896 10.1042 20 10 20H2C1.4375 19.9792 0.96875 19.7812 0.59375 19.4062C0.21875 19.0312 0.0208333 18.5625 0 18V6C0.0208333 5.4375 0.21875 4.96875 0.59375 4.59375C0.96875 4.21875 1.4375 4.02083 2 4H10C10.5625 4.02083 11.0312 4.21875 11.4062 4.59375C11.7812 4.96875 11.9792 5.4375 12 6V10.2188C11.6458 10.3021 11.3125 10.4271 11 10.5938V6C11 5.70833 10.9062 5.46875 10.7188 5.28125C10.5312 5.09375 10.2917 5 10 5ZM2 8.5C2.02083 8.1875 2.1875 8.02083 2.5 8H9.5C9.8125 8.02083 9.97917 8.1875 10 8.5C9.97917 8.8125 9.8125 8.97917 9.5 9H2.5C2.1875 8.97917 2.02083 8.8125 2 8.5ZM2.5 11H8.5C8.8125 11.0208 8.97917 11.1875 9 11.5C8.97917 11.8125 8.8125 11.9792 8.5 12H2.5C2.1875 11.9792 2.02083 11.8125 2 11.5C2.02083 11.1875 2.1875 11.0208 2.5 11ZM2.5 14H6.5C6.8125 14.0208 6.97917 14.1875 7 14.5C6.97917 14.8125 6.8125 14.9792 6.5 15H2.5C2.1875 14.9792 2.02083 14.8125 2 14.5C2.02083 14.1875 2.1875 14.0208 2.5 14ZM13.5 19C14.125 19 14.7083 18.8438 15.25 18.5312C15.7917 18.2188 16.2188 17.7917 16.5312 17.25C16.8438 16.7083 17 16.125 17 15.5C17 14.875 16.8438 14.2917 16.5312 13.75C16.2188 13.2083 15.7917 12.7812 15.25 12.4688C14.7083 12.1562 14.125 12 13.5 12C12.875 12 12.2917 12.1562 11.75 12.4688C11.2083 12.7812 10.7812 13.2083 10.4688 13.75C10.1562 14.2917 10 14.875 10 15.5C10 16.125 10.1562 16.7083 10.4688 17.25C10.7812 17.7917 11.2083 18.2188 11.75 18.5312C12.2917 18.8438 12.875 19 13.5 19ZM13.5 11C14.3125 11 15.0625 11.1979 15.75 11.5938C16.4375 11.9896 16.9896 12.5417 17.4062 13.25C17.8021 13.9583 18 14.7083 18 15.5C18 16.2917 17.8021 17.0417 17.4062 17.75C16.9896 18.4583 16.4375 19.0104 15.75 19.4062C15.0625 19.8021 14.3125 20 13.5 20C12.6875 20 11.9375 19.8021 11.25 19.4062C10.5625 19.0104 10.0104 18.4583 9.59375 17.75C9.19792 17.0417 9 16.2917 9 15.5C9 14.7083 9.19792 13.9583 9.59375 13.25C10.0104 12.5417 10.5625 11.9896 11.25 11.5938C11.9375 11.1979 12.6875 11 13.5 11ZM14.9062 14.1562C15.1354 13.9479 15.3646 13.9479 15.5938 14.1562C15.8021 14.3854 15.8021 14.6146 15.5938 14.8438L13.3438 17.0938C13.1146 17.3021 12.8854 17.3021 12.6562 17.0938L11.4062 15.8438C11.1979 15.6146 11.1979 15.3854 11.4062 15.1562C11.6354 14.9479 11.8646 14.9479 12.0938 15.1562L13 16.0312L14.9062 14.1562Z" fill="black" fill-opacity="0.72"/>
</g>
<defs>
<clipPath id="clip0_1731_4027">
<rect width="18" height="24" fill="white"/>
</clipPath>
</defs>
</svg>
