<svg width="20" height="24" viewBox="0 0 20 24" fill="none" xmlns="http://www.w3.org/2000/svg">
<g id="label-paired / md / messages-question-md / regular" clip-path="url(#clip0_1731_3854)">
<path id="icon" d="M6.34375 13H11C11.2917 13 11.5312 12.9062 11.7188 12.7188C11.9062 12.5312 12 12.2917 12 12V6C12 5.70833 11.9062 5.46875 11.7188 5.28125C11.5312 5.09375 11.2917 5 11 5H2C1.70833 5 1.46875 5.09375 1.28125 5.28125C1.09375 5.46875 1 5.70833 1 6V12C1 12.2917 1.09375 12.5312 1.28125 12.7188C1.46875 12.9062 1.70833 13 2 13H3C3.29167 13 3.53125 13.0938 3.71875 13.2812C3.90625 13.4688 4 13.7083 4 14V14.5L5.75 13.1875C5.91667 13.0625 6.11458 13 6.34375 13ZM11 14H6.34375L3.8125 15.9062C3.64583 16.0104 3.46875 16.0208 3.28125 15.9375C3.09375 15.8542 3 15.7083 3 15.5V15V14H2C1.4375 13.9792 0.96875 13.7812 0.59375 13.4062C0.21875 13.0312 0.0208333 12.5625 0 12V6C0.0208333 5.4375 0.21875 4.96875 0.59375 4.59375C0.96875 4.21875 1.4375 4.02083 2 4H11C11.5625 4.02083 12.0312 4.21875 12.4062 4.59375C12.7812 4.96875 12.9792 5.4375 13 6V12C12.9792 12.5625 12.7812 13.0312 12.4062 13.4062C12.0312 13.7812 11.5625 13.9792 11 14ZM10 18C9.4375 17.9792 8.96875 17.7812 8.59375 17.4062C8.21875 17.0312 8.02083 16.5625 8 16V15H9V16C9 16.2917 9.09375 16.5312 9.28125 16.7188C9.46875 16.9062 9.70833 17 10 17H13.6562C13.8854 17 14.0938 17.0625 14.2812 17.1875L16 18.5V18C16 17.7083 16.0938 17.4688 16.2812 17.2812C16.4688 17.0938 16.7083 17 17 17H18C18.2917 17 18.5312 16.9062 18.7188 16.7188C18.9062 16.5312 19 16.2917 19 16V10C19 9.70833 18.9062 9.46875 18.7188 9.28125C18.5312 9.09375 18.2917 9 18 9H14V8H18C18.5625 8.02083 19.0312 8.21875 19.4062 8.59375C19.7812 8.96875 19.9792 9.4375 20 10V16C19.9792 16.5625 19.7812 17.0312 19.4062 17.4062C19.0312 17.7812 18.5625 17.9792 18 18H17V19V19.5C17 19.7083 16.9062 19.8542 16.7188 19.9375C16.5312 20.0208 16.3542 20.0104 16.1875 19.9062L13.6562 18H10ZM5.75 6.1875C5.20833 6.22917 4.83333 6.5 4.625 7V7.03125C4.54167 7.32292 4.63542 7.53125 4.90625 7.65625C5.21875 7.73958 5.4375 7.64583 5.5625 7.375V7.34375C5.60417 7.23958 5.66667 7.1875 5.75 7.1875H7.0625C7.27083 7.20833 7.38542 7.33333 7.40625 7.5625C7.40625 7.70833 7.34375 7.8125 7.21875 7.875L6.25 8.4375C6.08333 8.54167 6 8.6875 6 8.875V9.1875C6.02083 9.47917 6.1875 9.64583 6.5 9.6875C6.8125 9.64583 6.97917 9.47917 7 9.1875V9.15625L7.71875 8.75C8.17708 8.47917 8.40625 8.08333 8.40625 7.5625C8.40625 7.16667 8.28125 6.84375 8.03125 6.59375C7.76042 6.34375 7.4375 6.20833 7.0625 6.1875H5.75ZM6.5 11.8438C6.77083 11.8438 6.98958 11.7292 7.15625 11.5C7.30208 11.25 7.30208 11 7.15625 10.75C6.98958 10.5208 6.77083 10.4062 6.5 10.4062C6.22917 10.4062 6.01042 10.5208 5.84375 10.75C5.69792 11 5.69792 11.25 5.84375 11.5C6.01042 11.7292 6.22917 11.8438 6.5 11.8438Z" fill="black" fill-opacity="0.72"/>
</g>
<defs>
<clipPath id="clip0_1731_3854">
<rect width="20" height="24" fill="white"/>
</clipPath>
</defs>
</svg>
