<svg width="12" height="24" viewBox="0 0 12 24" fill="none" xmlns="http://www.w3.org/2000/svg">
<g id="label-paired / md / microphone-md / bold" clip-path="url(#clip0_1731_4087)">
<path id="icon" d="M7.5 7C7.47917 6.58333 7.33333 6.22917 7.0625 5.9375C6.77083 5.66667 6.41667 5.52083 6 5.5C5.58333 5.52083 5.22917 5.66667 4.9375 5.9375C4.66667 6.22917 4.52083 6.58333 4.5 7V12C4.52083 12.4167 4.66667 12.7708 4.9375 13.0625C5.22917 13.3333 5.58333 13.4792 6 13.5C6.41667 13.4792 6.77083 13.3333 7.0625 13.0625C7.33333 12.7708 7.47917 12.4167 7.5 12V7ZM3 7C3.02083 6.14583 3.3125 5.4375 3.875 4.875C4.4375 4.3125 5.14583 4.02083 6 4C6.85417 4.02083 7.5625 4.3125 8.125 4.875C8.6875 5.4375 8.97917 6.14583 9 7V12C8.97917 12.8542 8.6875 13.5625 8.125 14.125C7.5625 14.6875 6.85417 14.9792 6 15C5.14583 14.9792 4.4375 14.6875 3.875 14.125C3.3125 13.5625 3.02083 12.8542 3 12V7ZM2 10.75V12C2.02083 13.125 2.40625 14.0729 3.15625 14.8438C3.92708 15.5938 4.875 15.9792 6 16C7.125 15.9792 8.07292 15.5938 8.84375 14.8438C9.59375 14.0729 9.97917 13.125 10 12V10.75C10.0417 10.2917 10.2917 10.0417 10.75 10C11.2083 10.0417 11.4583 10.2917 11.5 10.75V12C11.4792 13.4167 11.0208 14.625 10.125 15.625C9.25 16.625 8.125 17.2292 6.75 17.4375V18.5H8.25C8.70833 18.5417 8.95833 18.7917 9 19.25C8.95833 19.7083 8.70833 19.9583 8.25 20H6H3.75C3.29167 19.9583 3.04167 19.7083 3 19.25C3.04167 18.7917 3.29167 18.5417 3.75 18.5H5.25V17.4375C3.875 17.2292 2.75 16.625 1.875 15.625C0.979167 14.625 0.520833 13.4167 0.5 12V10.75C0.541667 10.2917 0.791667 10.0417 1.25 10C1.70833 10.0417 1.95833 10.2917 2 10.75Z" fill="black" fill-opacity="0.72"/>
</g>
<defs>
<clipPath id="clip0_1731_4087">
<rect width="12" height="24" fill="white"/>
</clipPath>
</defs>
</svg>
