<svg width="12" height="24" viewBox="0 0 12 24" fill="none" xmlns="http://www.w3.org/2000/svg">
<g id="label-paired / md / mobile-notch-md / bold" clip-path="url(#clip0_1731_3882)">
<path id="icon" d="M8 5.5V6C7.97917 6.3125 7.8125 6.47917 7.5 6.5H4.5C4.1875 6.47917 4.02083 6.3125 4 6V5.5H3C2.70833 5.5 2.46875 5.59375 2.28125 5.78125C2.09375 5.96875 2 6.20833 2 6.5V17.5C2 17.7917 2.09375 18.0312 2.28125 18.2188C2.46875 18.4062 2.70833 18.5 3 18.5H9C9.29167 18.5 9.53125 18.4062 9.71875 18.2188C9.90625 18.0312 10 17.7917 10 17.5V6.5C10 6.20833 9.90625 5.96875 9.71875 5.78125C9.53125 5.59375 9.29167 5.5 9 5.5H8ZM0.5 6.5C0.520833 5.79167 0.760417 5.19792 1.21875 4.71875C1.69792 4.26042 2.29167 4.02083 3 4H9C9.70833 4.02083 10.3021 4.26042 10.7812 4.71875C11.2396 5.19792 11.4792 5.79167 11.5 6.5V17.5C11.4792 18.2083 11.2396 18.8021 10.7812 19.2812C10.3021 19.7396 9.70833 19.9792 9 20H3C2.29167 19.9792 1.69792 19.7396 1.21875 19.2812C0.760417 18.8021 0.520833 18.2083 0.5 17.5V6.5Z" fill="black" fill-opacity="0.72"/>
</g>
<defs>
<clipPath id="clip0_1731_3882">
<rect width="12" height="24" fill="white"/>
</clipPath>
</defs>
</svg>
