<svg width="10" height="24" viewBox="0 0 10 24" fill="none" xmlns="http://www.w3.org/2000/svg">
<g id="label-paired / md / nine-md / bold" clip-path="url(#clip0_1731_3553)">
<path id="icon" d="M1.5 10C1.52083 11 1.86458 11.8229 2.53125 12.4688C3.17708 13.1354 4 13.4792 5 13.5C6.04167 13.4792 6.89583 13.1042 7.5625 12.375L7.71875 12.1875C8.23958 11.5417 8.5 10.8125 8.5 10C8.47917 9 8.13542 8.17708 7.46875 7.53125C6.82292 6.86458 6 6.52083 5 6.5C4 6.52083 3.17708 6.86458 2.53125 7.53125C1.86458 8.17708 1.52083 9 1.5 10ZM5.4375 14.9688C5.29167 14.9896 5.14583 15 5 15C3.58333 14.9583 2.40625 14.4688 1.46875 13.5312C0.53125 12.5938 0.0416667 11.4167 0 10C0.0416667 8.58333 0.53125 7.40625 1.46875 6.46875C2.40625 5.53125 3.58333 5.04167 5 5C6.41667 5.04167 7.59375 5.53125 8.53125 6.46875C9.46875 7.40625 9.95833 8.58333 10 10C9.97917 11.3333 9.54167 12.4583 8.6875 13.375L4.34375 18.7188C4.01042 19.0521 3.65625 19.0938 3.28125 18.8438C2.94792 18.5104 2.90625 18.1562 3.15625 17.7812L5.4375 14.9688Z" fill="black" fill-opacity="0.72"/>
</g>
<defs>
<clipPath id="clip0_1731_3553">
<rect width="10" height="24" fill="white"/>
</clipPath>
</defs>
</svg>
