<svg width="16" height="24" viewBox="0 0 16 24" fill="none" xmlns="http://www.w3.org/2000/svg">
<g id="label-paired / md / pen-circle-md / regular" clip-path="url(#clip0_1731_3987)">
<path id="icon" d="M15 12C14.9792 10.7292 14.6667 9.5625 14.0625 8.5C13.4375 7.4375 12.5833 6.58333 11.5 5.9375C10.3958 5.3125 9.22917 5 8 5C6.77083 5 5.60417 5.3125 4.5 5.9375C3.41667 6.58333 2.5625 7.4375 1.9375 8.5C1.33333 9.5625 1.02083 10.7292 1 12C1.02083 13.2708 1.33333 14.4375 1.9375 15.5C2.5625 16.5625 3.41667 17.4167 4.5 18.0625C5.60417 18.6875 6.77083 19 8 19C9.22917 19 10.3958 18.6875 11.5 18.0625C12.5833 17.4167 13.4375 16.5625 14.0625 15.5C14.6667 14.4375 14.9792 13.2708 15 12ZM0 12C0.0208333 10.5417 0.375 9.20833 1.0625 8C1.77083 6.79167 2.75 5.8125 4 5.0625C5.27083 4.35417 6.60417 4 8 4C9.39583 4 10.7292 4.35417 12 5.0625C13.25 5.8125 14.2292 6.79167 14.9375 8C15.625 9.20833 15.9792 10.5417 16 12C15.9792 13.4583 15.625 14.7917 14.9375 16C14.2292 17.2083 13.25 18.1875 12 18.9375C10.7292 19.6458 9.39583 20 8 20C6.60417 20 5.27083 19.6458 4 18.9375C2.75 18.1875 1.77083 17.2083 1.0625 16C0.375 14.7917 0.0208333 13.4583 0 12ZM10.375 9.09375C10.125 8.90625 9.88542 8.90625 9.65625 9.09375L9 9.78125L10.25 11.0312L10.9062 10.3438C11.0938 10.1146 11.0938 9.88542 10.9062 9.65625L10.375 9.09375ZM5.71875 13.0625C5.63542 13.125 5.58333 13.1979 5.5625 13.2812L5.1875 14.8125L6.71875 14.4375C6.80208 14.4167 6.875 14.375 6.9375 14.3125L9.53125 11.7188L8.28125 10.4688L5.6875 13.0625H5.71875ZM8.9375 8.40625C9.25 8.11458 9.60417 7.96875 10 7.96875C10.3958 7.96875 10.75 8.11458 11.0625 8.40625L11.625 8.9375C11.9167 9.25 12.0625 9.60417 12.0625 10C12.0625 10.3958 11.9167 10.75 11.625 11.0625L7.65625 15C7.46875 15.2083 7.23958 15.3438 6.96875 15.4062L4.625 16C4.4375 16.0417 4.28125 15.9896 4.15625 15.8438C4.03125 15.7188 3.98958 15.5625 4.03125 15.375L4.59375 13.0312C4.67708 12.7812 4.8125 12.5521 5 12.3438L8.9375 8.40625Z" fill="black" fill-opacity="0.72"/>
</g>
<defs>
<clipPath id="clip0_1731_3987">
<rect width="16" height="24" fill="white"/>
</clipPath>
</defs>
</svg>
