<svg width="18" height="24" viewBox="0 0 18 24" fill="none" xmlns="http://www.w3.org/2000/svg">
<g id="label-paired / md / pen-line-md / bold" clip-path="url(#clip0_1731_3994)">
<path id="icon" d="M0.40625 17.7188L1.125 15.2812C1.27083 14.8229 1.51042 14.4375 1.84375 14.125L11.3438 4.59375C11.7396 4.21875 12.2083 4.03125 12.75 4.03125C13.2708 4.03125 13.7396 4.21875 14.1562 4.59375L15.4062 5.84375C15.4896 5.92708 15.5729 6.03125 15.6562 6.15625C15.9062 6.55208 16.0104 6.97917 15.9688 7.4375C15.9271 7.89583 15.7396 8.30208 15.4062 8.65625L5.90625 18.1562C5.86458 18.1979 5.82292 18.2396 5.78125 18.2812C5.46875 18.5521 5.11458 18.75 4.71875 18.875L2.28125 19.5938L0.96875 19.9688C0.677083 20.0521 0.427083 19.9896 0.21875 19.7812C0.03125 19.5729 -0.03125 19.3229 0.03125 19.0312L0.40625 17.7188ZM2.375 16.4375L1.84375 18.1562L3.5625 17.6562L4.3125 17.4375C4.5 17.375 4.67708 17.2708 4.84375 17.125L11.9688 9.96875L10.0312 8.03125L2.90625 15.1562C2.88542 15.1771 2.86458 15.1979 2.84375 15.2188C2.71875 15.3646 2.625 15.5208 2.5625 15.6875L2.375 16.4375ZM7.75 18.5H17.25C17.7083 18.5417 17.9583 18.7917 18 19.25C17.9583 19.7083 17.7083 19.9583 17.25 20H7.75C7.29167 19.9583 7.04167 19.7083 7 19.25C7.04167 18.7917 7.29167 18.5417 7.75 18.5Z" fill="black" fill-opacity="0.72"/>
</g>
<defs>
<clipPath id="clip0_1731_3994">
<rect width="18" height="24" fill="white"/>
</clipPath>
</defs>
</svg>
