<svg width="12" height="24" viewBox="0 0 12 24" fill="none" xmlns="http://www.w3.org/2000/svg">
<g id="label-paired / md / percent-md / bold" clip-path="url(#clip0_1731_3999)">
<path id="icon" d="M11.5312 7.53125L1.53125 17.5312C1.17708 17.8229 0.822917 17.8229 0.46875 17.5312C0.177083 17.1771 0.177083 16.8229 0.46875 16.4688L10.4688 6.46875C10.8229 6.17708 11.1771 6.17708 11.5312 6.46875C11.8229 6.82292 11.8229 7.17708 11.5312 7.53125ZM3.5 8C3.47917 8.5625 3.22917 9 2.75 9.3125C2.25 9.5625 1.75 9.5625 1.25 9.3125C0.770833 9 0.520833 8.5625 0.5 8C0.520833 7.4375 0.770833 7 1.25 6.6875C1.75 6.4375 2.25 6.4375 2.75 6.6875C3.22917 7 3.47917 7.4375 3.5 8ZM11.5 16C11.4792 16.5625 11.2292 17 10.75 17.3125C10.25 17.5625 9.75 17.5625 9.25 17.3125C8.77083 17 8.52083 16.5625 8.5 16C8.52083 15.4375 8.77083 15 9.25 14.6875C9.75 14.4375 10.25 14.4375 10.75 14.6875C11.2292 15 11.4792 15.4375 11.5 16Z" fill="black" fill-opacity="0.72"/>
</g>
<defs>
<clipPath id="clip0_1731_3999">
<rect width="12" height="24" fill="white"/>
</clipPath>
</defs>
</svg>
