<svg width="18" height="24" viewBox="0 0 18 24" fill="none" xmlns="http://www.w3.org/2000/svg">
<g id="label-paired / md / presentation-screen-md / regular" clip-path="url(#clip0_1731_3844)">
<path id="icon" d="M0.5 4H17.5C17.8125 4.02083 17.9792 4.1875 18 4.5C17.9792 4.8125 17.8125 4.97917 17.5 5H0.5C0.1875 4.97917 0.0208333 4.8125 0 4.5C0.0208333 4.1875 0.1875 4.02083 0.5 4ZM1 6H2V13C2 13.2917 2.09375 13.5312 2.28125 13.7188C2.46875 13.9062 2.70833 14 3 14H9H15C15.2917 14 15.5312 13.9062 15.7188 13.7188C15.9062 13.5312 16 13.2917 16 13V6H17V13C16.9792 13.5625 16.7812 14.0312 16.4062 14.4062C16.0312 14.7812 15.5625 14.9792 15 15H9.5V16.2812L12.3438 19.1562C12.5521 19.3854 12.5521 19.6146 12.3438 19.8438C12.1146 20.0521 11.8854 20.0521 11.6562 19.8438L9 17.2188L6.34375 19.8438C6.11458 20.0521 5.88542 20.0521 5.65625 19.8438C5.44792 19.6146 5.44792 19.3854 5.65625 19.1562L8.5 16.2812V15H3C2.4375 14.9792 1.96875 14.7812 1.59375 14.4062C1.21875 14.0312 1.02083 13.5625 1 13V6Z" fill="black" fill-opacity="0.72"/>
</g>
<defs>
<clipPath id="clip0_1731_3844">
<rect width="18" height="24" fill="white"/>
</clipPath>
</defs>
</svg>
