<svg width="18" height="24" viewBox="0 0 18 24" fill="none" xmlns="http://www.w3.org/2000/svg">
<g id="label-paired / md / presentation-screen-md / bold" clip-path="url(#clip0_1731_3846)">
<path id="icon" d="M0.75 4H17.25C17.7083 4.04167 17.9583 4.29167 18 4.75C17.9583 5.20833 17.7083 5.45833 17.25 5.5H0.75C0.291667 5.45833 0.0416667 5.20833 0 4.75C0.0416667 4.29167 0.291667 4.04167 0.75 4ZM1 6.5H2.5V13.25C2.52083 13.3958 2.60417 13.4792 2.75 13.5H9H15.25C15.3958 13.4792 15.4792 13.3958 15.5 13.25V6.5H17V13.25C16.9792 13.75 16.8125 14.1667 16.5 14.5C16.1667 14.8125 15.75 14.9792 15.25 15H9.75V16.4375L12.0312 18.7188C12.3229 19.0729 12.3229 19.4271 12.0312 19.7812C11.6771 20.0729 11.3229 20.0729 10.9688 19.7812L9 17.8125L7.03125 19.7812C6.67708 20.0729 6.32292 20.0729 5.96875 19.7812C5.67708 19.4271 5.67708 19.0729 5.96875 18.7188L8.25 16.4375V15H2.75C2.25 14.9792 1.83333 14.8125 1.5 14.5C1.1875 14.1667 1.02083 13.75 1 13.25V6.5Z" fill="black" fill-opacity="0.72"/>
</g>
<defs>
<clipPath id="clip0_1731_3846">
<rect width="18" height="24" fill="white"/>
</clipPath>
</defs>
</svg>
