<svg width="14" height="24" viewBox="0 0 14 24" fill="none" xmlns="http://www.w3.org/2000/svg">
<g id="label-paired / md / qrcode-md / regular" clip-path="url(#clip0_1731_4258)">
<path id="icon" d="M4.5 6H1.5C1.1875 6.02083 1.02083 6.1875 1 6.5V9.5C1.02083 9.8125 1.1875 9.97917 1.5 10H4.5C4.8125 9.97917 4.97917 9.8125 5 9.5V6.5C4.97917 6.1875 4.8125 6.02083 4.5 6ZM1.5 5H4.5C4.91667 5.02083 5.27083 5.16667 5.5625 5.4375C5.83333 5.72917 5.97917 6.08333 6 6.5V9.5C5.97917 9.91667 5.83333 10.2708 5.5625 10.5625C5.27083 10.8333 4.91667 10.9792 4.5 11H1.5C1.08333 10.9792 0.729167 10.8333 0.4375 10.5625C0.166667 10.2708 0.0208333 9.91667 0 9.5V6.5C0.0208333 6.08333 0.166667 5.72917 0.4375 5.4375C0.729167 5.16667 1.08333 5.02083 1.5 5ZM4.5 14H1.5C1.1875 14.0208 1.02083 14.1875 1 14.5V17.5C1.02083 17.8125 1.1875 17.9792 1.5 18H4.5C4.8125 17.9792 4.97917 17.8125 5 17.5V14.5C4.97917 14.1875 4.8125 14.0208 4.5 14ZM1.5 13H4.5C4.91667 13.0208 5.27083 13.1667 5.5625 13.4375C5.83333 13.7292 5.97917 14.0833 6 14.5V17.5C5.97917 17.9167 5.83333 18.2708 5.5625 18.5625C5.27083 18.8333 4.91667 18.9792 4.5 19H1.5C1.08333 18.9792 0.729167 18.8333 0.4375 18.5625C0.166667 18.2708 0.0208333 17.9167 0 17.5V14.5C0.0208333 14.0833 0.166667 13.7292 0.4375 13.4375C0.729167 13.1667 1.08333 13.0208 1.5 13ZM9.5 6C9.1875 6.02083 9.02083 6.1875 9 6.5V9.5C9.02083 9.8125 9.1875 9.97917 9.5 10H12.5C12.8125 9.97917 12.9792 9.8125 13 9.5V6.5C12.9792 6.1875 12.8125 6.02083 12.5 6H9.5ZM8 6.5C8.02083 6.08333 8.16667 5.72917 8.4375 5.4375C8.72917 5.16667 9.08333 5.02083 9.5 5H12.5C12.9167 5.02083 13.2708 5.16667 13.5625 5.4375C13.8333 5.72917 13.9792 6.08333 14 6.5V9.5C13.9792 9.91667 13.8333 10.2708 13.5625 10.5625C13.2708 10.8333 12.9167 10.9792 12.5 11H9.5C9.08333 10.9792 8.72917 10.8333 8.4375 10.5625C8.16667 10.2708 8.02083 9.91667 8 9.5V6.5ZM8 13.5C8.02083 13.1875 8.1875 13.0208 8.5 13H10.5C10.8125 13.0208 10.9792 13.1875 11 13.5V15.625H13V13.5C13.0208 13.1875 13.1875 13.0208 13.5 13C13.8125 13.0208 13.9792 13.1875 14 13.5V16.125C13.9792 16.4375 13.8125 16.6042 13.5 16.625H10.5C10.1875 16.6042 10.0208 16.4375 10 16.125V14H9V18.75C8.97917 19.0625 8.8125 19.2292 8.5 19.25C8.1875 19.2292 8.02083 19.0625 8 18.75V13.5ZM2.75 7.25H3.25C3.5625 7.27083 3.72917 7.4375 3.75 7.75V8.25C3.72917 8.5625 3.5625 8.72917 3.25 8.75H2.75C2.4375 8.72917 2.27083 8.5625 2.25 8.25V7.75C2.27083 7.4375 2.4375 7.27083 2.75 7.25ZM2.25 15.75C2.27083 15.4375 2.4375 15.2708 2.75 15.25H3.25C3.5625 15.2708 3.72917 15.4375 3.75 15.75V16.25C3.72917 16.5625 3.5625 16.7292 3.25 16.75H2.75C2.4375 16.7292 2.27083 16.5625 2.25 16.25V15.75ZM10.75 7.25H11.25C11.5625 7.27083 11.7292 7.4375 11.75 7.75V8.25C11.7292 8.5625 11.5625 8.72917 11.25 8.75H10.75C10.4375 8.72917 10.2708 8.5625 10.25 8.25V7.75C10.2708 7.4375 10.4375 7.27083 10.75 7.25ZM10 18C10.0208 17.6875 10.1875 17.5208 10.5 17.5H11C11.3125 17.5208 11.4792 17.6875 11.5 18V18.5C11.4792 18.8125 11.3125 18.9792 11 19H10.5C10.1875 18.9792 10.0208 18.8125 10 18.5V18ZM13 17.5H13.5C13.8125 17.5208 13.9792 17.6875 14 18V18.5C13.9792 18.8125 13.8125 18.9792 13.5 19H13C12.6875 18.9792 12.5208 18.8125 12.5 18.5V18C12.5208 17.6875 12.6875 17.5208 13 17.5Z" fill="black" fill-opacity="0.72"/>
</g>
<defs>
<clipPath id="clip0_1731_4258">
<rect width="14" height="24" fill="white"/>
</clipPath>
</defs>
</svg>
