<svg width="16" height="24" viewBox="0 0 16 24" fill="none" xmlns="http://www.w3.org/2000/svg">
<g id="label-paired / md / right-from-bracket-md / regular" clip-path="url(#clip0_1731_3190)">
<path id="icon" d="M14.9688 11.9375L10.8438 8.0625C10.8021 8.02083 10.7604 8 10.7188 8C10.5938 8.02083 10.5208 8.09375 10.5 8.21875V10C10.4792 10.3125 10.3125 10.4792 10 10.5H6.25C6.10417 10.5208 6.02083 10.6042 6 10.75V13.25C6.02083 13.3958 6.10417 13.4792 6.25 13.5H10C10.3125 13.5208 10.4792 13.6875 10.5 14V15.7812C10.5208 15.9062 10.5938 15.9792 10.7188 16C10.7604 16 10.8021 15.9792 10.8438 15.9375L14.9688 12.0625C14.9896 12.0417 15 12.0208 15 12C15 11.9792 14.9896 11.9583 14.9688 11.9375ZM16 12C16 12.3125 15.8854 12.5729 15.6562 12.7812L11.5312 16.6875C11.3021 16.8958 11.0312 17 10.7188 17C10.3646 17 10.0729 16.8854 9.84375 16.6562C9.61458 16.4271 9.5 16.1354 9.5 15.7812V14.5H6.25C5.89583 14.5 5.60417 14.375 5.375 14.125C5.125 13.8958 5 13.6042 5 13.25V10.75C5 10.3958 5.125 10.1042 5.375 9.875C5.60417 9.625 5.89583 9.5 6.25 9.5H9.5V8.21875C9.5 7.86458 9.61458 7.57292 9.84375 7.34375C10.0729 7.11458 10.3646 7 10.7188 7C11.0312 7 11.3021 7.11458 11.5312 7.34375L15.6562 11.2188C15.8854 11.4271 16 11.6875 16 12ZM5.5 6H2.5C2.08333 6.02083 1.72917 6.16667 1.4375 6.4375C1.16667 6.72917 1.02083 7.08333 1 7.5V16.5C1.02083 16.9167 1.16667 17.2708 1.4375 17.5625C1.72917 17.8333 2.08333 17.9792 2.5 18H5.5C5.8125 18.0208 5.97917 18.1875 6 18.5C5.97917 18.8125 5.8125 18.9792 5.5 19H2.5C1.79167 18.9792 1.19792 18.7396 0.71875 18.2812C0.260417 17.8021 0.0208333 17.2083 0 16.5V7.5C0.0208333 6.79167 0.260417 6.19792 0.71875 5.71875C1.19792 5.26042 1.79167 5.02083 2.5 5H5.5C5.8125 5.02083 5.97917 5.1875 6 5.5C5.97917 5.8125 5.8125 5.97917 5.5 6Z" fill="black" fill-opacity="0.72"/>
</g>
<defs>
<clipPath id="clip0_1731_3190">
<rect width="16" height="24" fill="white"/>
</clipPath>
</defs>
</svg>
