<svg width="16" height="24" viewBox="0 0 16 24" fill="none" xmlns="http://www.w3.org/2000/svg">
<g id="label-paired / md / scissors-md / regular" clip-path="url(#clip0_1731_3967)">
<path id="icon" d="M15.875 17.8125C15.6667 18.0417 15.4375 18.0625 15.1875 17.875L10.4375 13.8438C10.2083 13.6146 10.1875 13.375 10.375 13.125C10.5833 12.9167 10.8125 12.9062 11.0625 13.0938L15.8125 17.125C16.0417 17.3333 16.0625 17.5625 15.875 17.8125ZM8.96875 11.3438L15.1875 6.125C15.4375 5.9375 15.6667 5.95833 15.875 6.1875C16.0625 6.4375 16.0417 6.66667 15.8125 6.875L6.53125 14.7188C6.84375 15.2396 7 15.8333 7 16.5C6.97917 17.5 6.63542 18.3229 5.96875 18.9688C5.32292 19.6354 4.5 19.9792 3.5 20C2.5 19.9792 1.67708 19.6354 1.03125 18.9688C0.364583 18.3229 0.0208333 17.5 0 16.5C0.0208333 15.5 0.364583 14.6771 1.03125 14.0312C1.67708 13.3646 2.5 13.0208 3.5 13C4.4375 13.0208 5.22917 13.3333 5.875 13.9375L8.1875 12L5.875 10.0625C5.22917 10.6667 4.4375 10.9792 3.5 11C2.5 10.9792 1.67708 10.6354 1.03125 9.96875C0.364583 9.32292 0.0208333 8.5 0 7.5C0.0208333 6.5 0.364583 5.67708 1.03125 5.03125C1.67708 4.36458 2.5 4.02083 3.5 4C4.5 4.02083 5.32292 4.36458 5.96875 5.03125C6.63542 5.67708 6.97917 6.5 7 7.5C7 8.16667 6.84375 8.76042 6.53125 9.28125L8.96875 11.3438ZM3.5 10C4.4375 9.97917 5.15625 9.5625 5.65625 8.75C6.11458 7.91667 6.11458 7.08333 5.65625 6.25C5.15625 5.4375 4.4375 5.02083 3.5 5C2.5625 5.02083 1.84375 5.4375 1.34375 6.25C0.885417 7.08333 0.885417 7.91667 1.34375 8.75C1.84375 9.5625 2.5625 9.97917 3.5 10ZM3.5 14C2.5625 14.0208 1.84375 14.4375 1.34375 15.25C0.885417 16.0833 0.885417 16.9167 1.34375 17.75C1.84375 18.5625 2.5625 18.9792 3.5 19C4.4375 18.9792 5.15625 18.5625 5.65625 17.75C6.11458 16.9167 6.11458 16.0833 5.65625 15.25C5.15625 14.4375 4.4375 14.0208 3.5 14Z" fill="black" fill-opacity="0.72"/>
</g>
<defs>
<clipPath id="clip0_1731_3967">
<rect width="16" height="24" fill="white"/>
</clipPath>
</defs>
</svg>
