<svg width="10" height="24" viewBox="0 0 10 24" fill="none" xmlns="http://www.w3.org/2000/svg">
<g id="label-paired / md / six-md / bold" clip-path="url(#clip0_1731_3538)">
<path id="icon" d="M8.5 14C8.47917 13 8.13542 12.1771 7.46875 11.5312C6.82292 10.8646 6 10.5208 5 10.5C3.95833 10.5208 3.10417 10.8958 2.4375 11.625L2.28125 11.8125C1.76042 12.4583 1.5 13.1875 1.5 14C1.52083 15 1.86458 15.8229 2.53125 16.4688C3.17708 17.1354 4 17.4792 5 17.5C6 17.4792 6.82292 17.1354 7.46875 16.4688C8.13542 15.8229 8.47917 15 8.5 14ZM4.5625 9.03125C4.70833 9.01042 4.85417 9 5 9C6.41667 9.04167 7.59375 9.53125 8.53125 10.4688C9.46875 11.4062 9.95833 12.5833 10 14C9.95833 15.4167 9.46875 16.5938 8.53125 17.5312C7.59375 18.4688 6.41667 18.9583 5 19C3.58333 18.9583 2.40625 18.4688 1.46875 17.5312C0.53125 16.5938 0.0416667 15.4167 0 14C0.0208333 12.6667 0.458333 11.5417 1.3125 10.625L5.65625 5.28125C5.98958 4.94792 6.34375 4.90625 6.71875 5.15625C7.05208 5.48958 7.09375 5.84375 6.84375 6.21875L4.5625 9.03125Z" fill="black" fill-opacity="0.72"/>
</g>
<defs>
<clipPath id="clip0_1731_3538">
<rect width="10" height="24" fill="white"/>
</clipPath>
</defs>
</svg>
