<svg width="10" height="24" viewBox="0 0 10 24" fill="none" xmlns="http://www.w3.org/2000/svg">
<g id="label-paired / md / sort-md / bold" clip-path="url(#clip0_1731_3614)">
<path id="icon" d="M2.21875 9.5H7.78125L5 6.71875L2.21875 9.5ZM5.71875 5.28125L9.71875 9.28125C10.0104 9.61458 10.0833 9.97917 9.9375 10.375C9.75 10.7708 9.4375 10.9792 9 11H1C0.5625 10.9792 0.25 10.7708 0.0625 10.375C-0.0833333 9.97917 -0.0104167 9.61458 0.28125 9.28125L4.28125 5.28125C4.48958 5.09375 4.72917 5 5 5C5.27083 5 5.51042 5.09375 5.71875 5.28125ZM2.21875 14.5L5 17.2812L7.78125 14.5H2.21875ZM5.71875 18.7188C5.51042 18.9062 5.27083 19 5 19C4.72917 19 4.48958 18.9062 4.28125 18.7188L0.28125 14.7188C-0.0104167 14.3854 -0.0833333 14.0208 0.0625 13.625C0.25 13.2292 0.5625 13.0208 1 13H9C9.4375 13.0208 9.75 13.2292 9.9375 13.625C10.0833 14.0208 10.0104 14.3854 9.71875 14.7188L5.71875 18.7188Z" fill="black" fill-opacity="0.72"/>
</g>
<defs>
<clipPath id="clip0_1731_3614">
<rect width="10" height="24" fill="white"/>
</clipPath>
</defs>
</svg>
