<svg width="14" height="24" viewBox="0 0 14 24" fill="none" xmlns="http://www.w3.org/2000/svg">
<g id="label-paired / md / square-minus-md / fill" clip-path="url(#clip0_1731_3313)">
<path id="icon" d="M2 5H12C12.5625 5.02083 13.0312 5.21875 13.4062 5.59375C13.7812 5.96875 13.9792 6.4375 14 7V17C13.9792 17.5625 13.7812 18.0312 13.4062 18.4062C13.0312 18.7812 12.5625 18.9792 12 19H2C1.4375 18.9792 0.96875 18.7812 0.59375 18.4062C0.21875 18.0312 0.0208333 17.5625 0 17V7C0.0208333 6.4375 0.21875 5.96875 0.59375 5.59375C0.96875 5.21875 1.4375 5.02083 2 5ZM4.75 11.25C4.29167 11.2917 4.04167 11.5417 4 12C4.04167 12.4583 4.29167 12.7083 4.75 12.75H9.25C9.70833 12.7083 9.95833 12.4583 10 12C9.95833 11.5417 9.70833 11.2917 9.25 11.25H4.75Z" fill="black" fill-opacity="0.72"/>
</g>
<defs>
<clipPath id="clip0_1731_3313">
<rect width="14" height="24" fill="white"/>
</clipPath>
</defs>
</svg>
