<svg width="14" height="24" viewBox="0 0 14 24" fill="none" xmlns="http://www.w3.org/2000/svg">
<g id="label-paired / md / square-check-md / regular" clip-path="url(#clip0_1731_3302)">
<path id="icon" d="M2 6C1.70833 6 1.46875 6.09375 1.28125 6.28125C1.09375 6.46875 1 6.70833 1 7V17C1 17.2917 1.09375 17.5312 1.28125 17.7188C1.46875 17.9062 1.70833 18 2 18H12C12.2917 18 12.5312 17.9062 12.7188 17.7188C12.9062 17.5312 13 17.2917 13 17V7C13 6.70833 12.9062 6.46875 12.7188 6.28125C12.5312 6.09375 12.2917 6 12 6H2ZM0 7C0.0208333 6.4375 0.21875 5.96875 0.59375 5.59375C0.96875 5.21875 1.4375 5.02083 2 5H12C12.5625 5.02083 13.0312 5.21875 13.4062 5.59375C13.7812 5.96875 13.9792 6.4375 14 7V17C13.9792 17.5625 13.7812 18.0312 13.4062 18.4062C13.0312 18.7812 12.5625 18.9792 12 19H2C1.4375 18.9792 0.96875 18.7812 0.59375 18.4062C0.21875 18.0312 0.0208333 17.5625 0 17V7ZM10.3438 10.3438L6.34375 14.3438C6.11458 14.5521 5.88542 14.5521 5.65625 14.3438L3.65625 12.3438C3.44792 12.1146 3.44792 11.8854 3.65625 11.6562C3.88542 11.4479 4.11458 11.4479 4.34375 11.6562L6 13.2812L9.65625 9.65625C9.88542 9.44792 10.1146 9.44792 10.3438 9.65625C10.5521 9.88542 10.5521 10.1146 10.3438 10.3438Z" fill="black" fill-opacity="0.72"/>
</g>
<defs>
<clipPath id="clip0_1731_3302">
<rect width="14" height="24" fill="white"/>
</clipPath>
</defs>
</svg>
