<svg width="18" height="24" viewBox="0 0 18 24" fill="none" xmlns="http://www.w3.org/2000/svg">
<g id="label-paired / md / star-md / bold" clip-path="url(#clip0_1731_3332)">
<path id="icon" d="M9 4C9.3125 4.02083 9.54167 4.16667 9.6875 4.4375L11.8125 8.84375L16.5938 9.53125C16.9062 9.59375 17.1146 9.77083 17.2188 10.0625C17.3021 10.3542 17.2396 10.6042 17.0312 10.8125L13.5625 14.25L14.375 19.125C14.4167 19.4167 14.3125 19.6667 14.0625 19.875C13.8125 20.0417 13.5521 20.0521 13.2812 19.9062L9 17.625L4.71875 19.9062C4.44792 20.0521 4.1875 20.0312 3.9375 19.8438C3.6875 19.6562 3.58333 19.4167 3.625 19.125L4.4375 14.25L0.96875 10.8125C0.760417 10.6042 0.697917 10.3542 0.78125 10.0625C0.885417 9.77083 1.09375 9.59375 1.40625 9.53125L6.1875 8.84375L8.3125 4.4375C8.45833 4.16667 8.6875 4.02083 9 4ZM9 6.46875L7.34375 9.84375C7.23958 10.0729 7.05208 10.2188 6.78125 10.2812L3.09375 10.8125L5.78125 13.4688C5.94792 13.6562 6.02083 13.875 6 14.125L5.34375 17.875L8.65625 16.125C8.88542 16 9.11458 16 9.34375 16.125L12.625 17.875L12 14.125C11.9583 13.875 12.0312 13.6562 12.2188 13.4688L14.9062 10.8125L11.2188 10.2812C10.9479 10.2188 10.7604 10.0729 10.6562 9.84375L9 6.46875Z" fill="black" fill-opacity="0.72"/>
</g>
<defs>
<clipPath id="clip0_1731_3332">
<rect width="18" height="24" fill="white"/>
</clipPath>
</defs>
</svg>
