<svg width="16" height="24" viewBox="0 0 16 24" fill="none" xmlns="http://www.w3.org/2000/svg">
<g id="label-paired / md / sun-bright-md / bold" clip-path="url(#clip0_1731_3252)">
<path id="icon" d="M8.75 4.75V6.75C8.70833 7.20833 8.45833 7.45833 8 7.5C7.54167 7.45833 7.29167 7.20833 7.25 6.75V4.75C7.29167 4.29167 7.54167 4.04167 8 4C8.45833 4.04167 8.70833 4.29167 8.75 4.75ZM13.6562 7.40625L12.25 8.8125C11.8958 9.10417 11.5417 9.10417 11.1875 8.8125C10.8958 8.45833 10.8958 8.10417 11.1875 7.75L12.5938 6.34375C12.9479 6.05208 13.3021 6.05208 13.6562 6.34375C13.9479 6.69792 13.9479 7.05208 13.6562 7.40625ZM3.40625 6.34375L4.8125 7.75C5.10417 8.10417 5.10417 8.45833 4.8125 8.8125C4.45833 9.10417 4.10417 9.10417 3.75 8.8125L2.34375 7.40625C2.05208 7.05208 2.05208 6.69792 2.34375 6.34375C2.69792 6.05208 3.05208 6.05208 3.40625 6.34375ZM0.75 11.25H2.75C3.20833 11.2917 3.45833 11.5417 3.5 12C3.45833 12.4583 3.20833 12.7083 2.75 12.75H0.75C0.291667 12.7083 0.0416667 12.4583 0 12C0.0416667 11.5417 0.291667 11.2917 0.75 11.25ZM13.25 11.25H15.25C15.7083 11.2917 15.9583 11.5417 16 12C15.9583 12.4583 15.7083 12.7083 15.25 12.75H13.25C12.7917 12.7083 12.5417 12.4583 12.5 12C12.5417 11.5417 12.7917 11.2917 13.25 11.25ZM4.8125 16.25L3.40625 17.6562C3.05208 17.9479 2.69792 17.9479 2.34375 17.6562C2.05208 17.3021 2.05208 16.9479 2.34375 16.5938L3.75 15.1875C4.10417 14.8958 4.45833 14.8958 4.8125 15.1875C5.10417 15.5417 5.10417 15.8958 4.8125 16.25ZM12.25 15.1875L13.6562 16.5938C13.9479 16.9479 13.9479 17.3021 13.6562 17.6562C13.3021 17.9479 12.9479 17.9479 12.5938 17.6562L11.1875 16.25C10.8958 15.8958 10.8958 15.5417 11.1875 15.1875C11.5417 14.8958 11.8958 14.8958 12.25 15.1875ZM8.75 17.25V19.25C8.70833 19.7083 8.45833 19.9583 8 20C7.54167 19.9583 7.29167 19.7083 7.25 19.25V17.25C7.29167 16.7917 7.54167 16.5417 8 16.5C8.45833 16.5417 8.70833 16.7917 8.75 17.25ZM10 12C9.97917 11.25 9.64583 10.6771 9 10.2812C8.33333 9.90625 7.66667 9.90625 7 10.2812C6.35417 10.6771 6.02083 11.25 6 12C6.02083 12.75 6.35417 13.3229 7 13.7188C7.66667 14.0938 8.33333 14.0938 9 13.7188C9.64583 13.3229 9.97917 12.75 10 12ZM4.5 12C4.5 11.375 4.65625 10.7917 4.96875 10.25C5.28125 9.70833 5.70833 9.28125 6.25 8.96875C6.79167 8.65625 7.375 8.5 8 8.5C8.625 8.5 9.20833 8.65625 9.75 8.96875C10.2917 9.28125 10.7188 9.70833 11.0312 10.25C11.3438 10.7917 11.5 11.375 11.5 12C11.5 12.625 11.3438 13.2083 11.0312 13.75C10.7188 14.2917 10.2917 14.7188 9.75 15.0312C9.20833 15.3438 8.625 15.5 8 15.5C7.375 15.5 6.79167 15.3438 6.25 15.0312C5.70833 14.7188 5.28125 14.2917 4.96875 13.75C4.65625 13.2083 4.5 12.625 4.5 12Z" fill="black" fill-opacity="0.72"/>
</g>
<defs>
<clipPath id="clip0_1731_3252">
<rect width="16" height="24" fill="white"/>
</clipPath>
</defs>
</svg>
