<svg width="14" height="24" viewBox="0 0 14 24" fill="none" xmlns="http://www.w3.org/2000/svg">
<g id="label-paired / md / tablet-md / regular" clip-path="url(#clip0_1731_3890)">
<path id="icon" d="M2 5C1.70833 5 1.46875 5.09375 1.28125 5.28125C1.09375 5.46875 1 5.70833 1 6V18C1 18.2917 1.09375 18.5312 1.28125 18.7188C1.46875 18.9062 1.70833 19 2 19H12C12.2917 19 12.5312 18.9062 12.7188 18.7188C12.9062 18.5312 13 18.2917 13 18V6C13 5.70833 12.9062 5.46875 12.7188 5.28125C12.5312 5.09375 12.2917 5 12 5H2ZM0 6C0.0208333 5.4375 0.21875 4.96875 0.59375 4.59375C0.96875 4.21875 1.4375 4.02083 2 4H12C12.5625 4.02083 13.0312 4.21875 13.4062 4.59375C13.7812 4.96875 13.9792 5.4375 14 6V18C13.9792 18.5625 13.7812 19.0312 13.4062 19.4062C13.0312 19.7812 12.5625 19.9792 12 20H2C1.4375 19.9792 0.96875 19.7812 0.59375 19.4062C0.21875 19.0312 0.0208333 18.5625 0 18V6ZM6 16.5H8C8.3125 16.5208 8.47917 16.6875 8.5 17C8.47917 17.3125 8.3125 17.4792 8 17.5H6C5.6875 17.4792 5.52083 17.3125 5.5 17C5.52083 16.6875 5.6875 16.5208 6 16.5Z" fill="black" fill-opacity="0.72"/>
</g>
<defs>
<clipPath id="clip0_1731_3890">
<rect width="14" height="24" fill="white"/>
</clipPath>
</defs>
</svg>
