<svg width="20" height="24" viewBox="0 0 20 24" fill="none" xmlns="http://www.w3.org/2000/svg">
<g id="label-paired / md / users-md / bold" clip-path="url(#clip0_1731_4276)">
<path id="icon" d="M4.5 9C3.5625 8.97917 2.84375 8.5625 2.34375 7.75C1.88542 6.91667 1.88542 6.08333 2.34375 5.25C2.84375 4.4375 3.5625 4.02083 4.5 4C5.4375 4.02083 6.15625 4.4375 6.65625 5.25C7.11458 6.08333 7.11458 6.91667 6.65625 7.75C6.15625 8.5625 5.4375 8.97917 4.5 9ZM16 9C15.0625 8.97917 14.3438 8.5625 13.8438 7.75C13.3854 6.91667 13.3854 6.08333 13.8438 5.25C14.3438 4.4375 15.0625 4.02083 16 4C16.9375 4.02083 17.6562 4.4375 18.1562 5.25C18.6146 6.08333 18.6146 6.91667 18.1562 7.75C17.6562 8.5625 16.9375 8.97917 16 9ZM0 13.3438C0.0208333 12.3854 0.34375 11.5938 0.96875 10.9688C1.59375 10.3438 2.38542 10.0208 3.34375 10H4.65625C5.15625 10 5.625 10.1042 6.0625 10.3125C6.02083 10.5417 6 10.7708 6 11C6.04167 12.2292 6.48958 13.2292 7.34375 14H0.65625C0.260417 13.9583 0.0416667 13.7396 0 13.3438ZM12.6562 14C13.5104 13.2292 13.9583 12.2292 14 11C14 10.7708 13.9792 10.5417 13.9375 10.3125C14.375 10.1042 14.8438 10 15.3438 10H16.6562C17.6146 10.0208 18.4062 10.3438 19.0312 10.9688C19.6562 11.5938 19.9792 12.3854 20 13.3438C19.9583 13.7396 19.7396 13.9583 19.3438 14H12.6562ZM10 9.5C9.4375 9.52083 9 9.77083 8.6875 10.25C8.4375 10.75 8.4375 11.25 8.6875 11.75C9 12.2292 9.4375 12.4792 10 12.5C10.5625 12.4792 11 12.2292 11.3125 11.75C11.5625 11.25 11.5625 10.75 11.3125 10.25C11 9.77083 10.5625 9.52083 10 9.5ZM10 14C9.45833 14 8.95833 13.8646 8.5 13.5938C8.04167 13.3229 7.67708 12.9583 7.40625 12.5C7.13542 12.0208 7 11.5208 7 11C7 10.4792 7.13542 9.97917 7.40625 9.5C7.67708 9.04167 8.04167 8.67708 8.5 8.40625C8.95833 8.13542 9.45833 8 10 8C10.5417 8 11.0417 8.13542 11.5 8.40625C11.9583 8.67708 12.3229 9.04167 12.5938 9.5C12.8646 9.97917 13 10.4792 13 11C13 11.5208 12.8646 12.0208 12.5938 12.5C12.3229 12.9583 11.9583 13.3229 11.5 13.5938C11.0417 13.8646 10.5417 14 10 14ZM8.15625 16.5C7.53125 16.5208 6.98958 16.7083 6.53125 17.0625C6.05208 17.4375 5.73958 17.9167 5.59375 18.5H14.4062C14.2604 17.9167 13.9479 17.4375 13.4688 17.0625C13.0104 16.7083 12.4688 16.5208 11.8438 16.5H8.15625ZM8.15625 15H11.8438C13.0104 15.0208 13.9896 15.4271 14.7812 16.2188C15.5729 17.0104 15.9792 17.9896 16 19.1562C15.9583 19.6771 15.6771 19.9583 15.1562 20H4.84375C4.32292 19.9583 4.04167 19.6771 4 19.1562C4.02083 17.9896 4.42708 17.0104 5.21875 16.2188C6.01042 15.4271 6.98958 15.0208 8.15625 15Z" fill="black" fill-opacity="0.72"/>
</g>
<defs>
<clipPath id="clip0_1731_4276">
<rect width="20" height="24" fill="white"/>
</clipPath>
</defs>
</svg>
