<svg width="18" height="24" viewBox="0 0 18 24" fill="none" xmlns="http://www.w3.org/2000/svg">
<g id="label-paired / md / video-md / bold" clip-path="url(#clip0_1731_4082)">
<path id="icon" d="M2 7.5C1.6875 7.52083 1.52083 7.6875 1.5 8V16C1.52083 16.3125 1.6875 16.4792 2 16.5H10C10.3125 16.4792 10.4792 16.3125 10.5 16V8C10.4792 7.6875 10.3125 7.52083 10 7.5H2ZM0 8C0.0208333 7.4375 0.21875 6.96875 0.59375 6.59375C0.96875 6.21875 1.4375 6.02083 2 6H10C10.5625 6.02083 11.0312 6.21875 11.4062 6.59375C11.7812 6.96875 11.9792 7.4375 12 8V9.03125V14.9688V16C11.9792 16.5625 11.7812 17.0312 11.4062 17.4062C11.0312 17.7812 10.5625 17.9792 10 18H2C1.4375 17.9792 0.96875 17.7812 0.59375 17.4062C0.21875 17.0312 0.0208333 16.5625 0 16V8ZM16.5 15.3438V8.65625L13 10.2188V8.5625L16.25 7.125C16.4167 7.04167 16.5938 7 16.7812 7C17.1146 7 17.3958 7.125 17.625 7.375C17.875 7.60417 18 7.89583 18 8.25V15.7812C18 16.1146 17.875 16.3958 17.625 16.625C17.3958 16.875 17.1146 17 16.7812 17C16.5938 17 16.4167 16.9688 16.25 16.9062L13 15.4375V13.7812L16.5 15.3438Z" fill="black" fill-opacity="0.72"/>
</g>
<defs>
<clipPath id="clip0_1731_4082">
<rect width="18" height="24" fill="white"/>
</clipPath>
</defs>
</svg>
