<svg width="32" height="32" viewBox="0 0 32 32" fill="none" xmlns="http://www.w3.org/2000/svg">
<g id="standalone / md / fiat-onramp-md / bold">
<path id="icon" d="M20.8047 8.375C19.6328 8.41406 18.5391 9.03906 17.9531 10.0547C17.3672 11.0703 17.3672 12.3203 17.9531 13.3359C18.5391 14.3516 19.6328 14.9766 20.8047 14.9766C21.9766 14.9766 23.0703 14.3516 23.6562 13.3359C24.2422 12.3203 24.2422 11.0703 23.6562 10.0547C23.0703 9.03906 21.9766 8.375 20.8047 8.375ZM24.125 15.6797C23.2266 16.4219 22.0547 16.8516 20.8047 16.8516C19.125 16.8516 17.6016 16.0312 16.6641 14.7422L14.2031 17.2031C15.4922 18.1406 16.3125 19.6641 16.3125 21.3438C16.3125 22.5938 15.8828 23.7656 15.1406 24.625H22.6406C23.4609 24.625 24.125 23.9609 24.125 23.1797V15.6797ZM11.1562 24.625C12.9531 24.625 14.4375 23.1797 14.4375 21.3438C14.4375 19.9766 13.5781 18.7656 12.3672 18.2969H12.3281C11.9766 18.1406 11.5859 18.0625 11.1562 18.0625C9.32031 18.0625 7.875 19.5469 7.875 21.3438C7.875 23.1797 9.32031 24.625 11.1562 24.625ZM12.4062 16.3438L15.8047 12.9453C15.6875 12.5547 15.6484 12.125 15.6484 11.6953C15.6484 8.84375 17.9531 6.5 20.8047 6.5C23.6562 6.5 26 8.84375 26 11.6953V23.1797C26 25.0156 24.4766 26.5 22.6406 26.5H11.1562C8.30469 26.5 6 24.1953 6 21.3438C6 18.4922 8.30469 16.1875 11.1562 16.1875C11.5859 16.1875 12.0156 16.2266 12.4062 16.3438ZM9.55469 11.0703C9.55469 10.5625 9.98438 10.1328 10.4922 10.1328H14.1641C14.5547 10.1328 14.9062 10.3672 15.0234 10.7188C15.1797 11.0703 15.1016 11.4609 14.8281 11.7344L11.1953 15.3672C10.8438 15.7188 10.2578 15.7188 9.86719 15.3672C9.51562 15.0156 9.51562 14.3906 9.86719 14.0391L11.8984 12.0078H10.4922C9.98438 12.0078 9.55469 11.6172 9.55469 11.0703ZM20.2578 9.07812V9.82031H21V9.07812H21.7422V9.82031C22.0156 9.82031 22.2891 9.89844 22.4844 10.0938C22.9531 10.5234 22.9922 11.2266 22.5625 11.6953C22.7578 11.8906 22.875 12.1641 22.875 12.4375C22.875 13.0625 22.3672 13.5703 21.7422 13.5703V14.3125H21V13.5703H20.2578V14.3125H19.5156V13.5703H18.7734V12.8281H19.5156V10.5625H18.7734V9.82031H19.5156V9.07812H20.2578ZM21.7422 12.0469H20.2578V12.8281H21.7422C21.9375 12.8281 22.1328 12.6328 22.1328 12.4375C22.1328 12.2422 21.9375 12.0469 21.7422 12.0469ZM21.7422 10.5625H20.2578V11.3047H21.7422C21.9375 11.3047 22.1328 11.1484 22.1328 10.9531C22.1328 10.7188 21.9375 10.5625 21.7422 10.5625ZM11.625 18.5312V18.9219C12.2109 19.1562 12.6406 19.7031 12.6406 20.3281V20.4453H11.7031V20.3281C11.7031 20.0156 11.4688 19.7812 11.1562 19.7812C10.8438 19.7812 10.6094 20.0156 10.6094 20.3281C10.6094 20.6406 10.8438 20.875 11.1562 20.875C11.9766 20.875 12.6406 21.5391 12.6406 22.3594C12.6406 22.9844 12.2109 23.5312 11.625 23.7656V24.1562H10.6875V23.7266C10.1016 23.5312 9.71094 22.9844 9.71094 22.3594V22.2031H10.6094V22.3594C10.6094 22.6328 10.8438 22.9062 11.1562 22.9062C11.4688 22.9062 11.7031 22.6328 11.7031 22.3594C11.7031 22.0469 11.4688 21.8125 11.1562 21.8125C10.3359 21.8125 9.71094 21.1484 9.71094 20.3281C9.71094 19.7031 10.1016 19.1172 10.6875 18.9219V18.5312H11.625Z" fill="black" fill-opacity="0.72"/>
</g>
</svg>
