<svg width="32" height="32" viewBox="0 0 32 32" fill="none" xmlns="http://www.w3.org/2000/svg">
<g id="standalone / md / circle-six-md / bold">
<path id="icon" d="M24.125 16.5C24.125 15.0156 23.7604 13.6615 23.0312 12.4375C22.3281 11.2135 21.3385 10.224 20.0625 9.46875C18.7865 8.73958 17.4323 8.375 16 8.375C14.5677 8.375 13.2135 8.73958 11.9375 9.46875C10.6615 10.224 9.67188 11.2135 8.96875 12.4375C8.23958 13.6615 7.875 15.0156 7.875 16.5C7.875 17.9844 8.23958 19.3385 8.96875 20.5625C9.67188 21.7865 10.6615 22.776 11.9375 23.5312C13.2135 24.2604 14.5677 24.625 16 24.625C17.4323 24.625 18.7865 24.2604 20.0625 23.5312C21.3385 22.776 22.3281 21.7865 23.0312 20.5625C23.7604 19.3385 24.125 17.9844 24.125 16.5ZM6 16.5C6.02604 14.6771 6.46875 13.0104 7.32812 11.5C8.21354 9.98958 9.4375 8.76562 11 7.82812C12.5885 6.94271 14.2552 6.5 16 6.5C17.7448 6.5 19.4115 6.94271 21 7.82812C22.5625 8.76562 23.7865 9.98958 24.6719 11.5C25.5312 13.0104 25.974 14.6771 26 16.5C25.974 18.3229 25.5312 19.9896 24.6719 21.5C23.7865 23.0104 22.5625 24.2344 21 25.1719C19.4115 26.0573 17.7448 26.5 16 26.5C14.2552 26.5 12.5885 26.0573 11 25.1719C9.4375 24.2344 8.21354 23.0104 7.32812 21.5C6.46875 19.9896 6.02604 18.3229 6 16.5ZM16 19.625C16.7031 19.599 17.25 19.2865 17.6406 18.6875C17.9531 18.0625 17.9531 17.4375 17.6406 16.8125C17.25 16.2135 16.7031 15.901 16 15.875C15.2969 15.901 14.75 16.2135 14.3594 16.8125C14.0469 17.4375 14.0469 18.0625 14.3594 18.6875C14.75 19.2865 15.2969 19.599 16 19.625ZM12.25 17.75C12.276 16.4219 12.7839 15.3281 13.7734 14.4688L16.9375 11.7344C17.4062 11.3958 17.849 11.4219 18.2656 11.8125C18.6042 12.2812 18.5781 12.724 18.1875 13.1406L17.0156 14.1562C17.8229 14.3906 18.474 14.8333 18.9688 15.4844C19.4635 16.1094 19.724 16.8646 19.75 17.75C19.724 18.8177 19.3594 19.7031 18.6562 20.4062C17.9531 21.1094 17.0677 21.474 16 21.5C14.9323 21.474 14.0469 21.1094 13.3438 20.4062C12.6406 19.7031 12.276 18.8177 12.25 17.75Z" fill="black" fill-opacity="0.72"/>
</g>
</svg>
