<svg width="32" height="32" viewBox="0 0 32 32" fill="none" xmlns="http://www.w3.org/2000/svg">
<g id="standalone / md / file-chart-column-md / regular">
<path id="icon" d="M21 25.25C21.3646 25.25 21.6641 25.1328 21.8984 24.8984C22.1328 24.6641 22.25 24.3646 22.25 24V14H17.875C17.3542 13.974 16.9115 13.7917 16.5469 13.4531C16.2083 13.0885 16.026 12.6458 16 12.125V7.75H11C10.6354 7.75 10.3359 7.86719 10.1016 8.10156C9.86719 8.33594 9.75 8.63542 9.75 9V24C9.75 24.3646 9.86719 24.6641 10.1016 24.8984C10.3359 25.1328 10.6354 25.25 11 25.25H21ZM17.875 12.75H22.25C22.1979 12.6458 22.1328 12.5547 22.0547 12.4766L17.5234 7.94531C17.4453 7.86719 17.3542 7.8151 17.25 7.78906V12.125C17.276 12.5156 17.4844 12.724 17.875 12.75ZM11 6.5H17.0938C17.6146 6.5 18.0573 6.68229 18.4219 7.04688L22.9531 11.5781C23.3177 11.9427 23.5 12.3854 23.5 12.9062V24C23.474 24.7031 23.2266 25.2891 22.7578 25.7578C22.2891 26.2266 21.7031 26.474 21 26.5H11C10.2969 26.474 9.71094 26.2266 9.24219 25.7578C8.77344 25.2891 8.52604 24.7031 8.5 24V9C8.52604 8.29688 8.77344 7.71094 9.24219 7.24219C9.71094 6.77344 10.2969 6.52604 11 6.5ZM16.625 15.875V23.375C16.599 23.7656 16.3906 23.974 16 24C15.6094 23.974 15.401 23.7656 15.375 23.375V15.875C15.401 15.4844 15.6094 15.276 16 15.25C16.3906 15.276 16.599 15.4844 16.625 15.875ZM20.375 18.375V23.375C20.349 23.7656 20.1406 23.974 19.75 24C19.3594 23.974 19.151 23.7656 19.125 23.375V18.375C19.151 17.9844 19.3594 17.776 19.75 17.75C20.1406 17.776 20.349 17.9844 20.375 18.375ZM12.875 20.875V23.375C12.849 23.7656 12.6406 23.974 12.25 24C11.8594 23.974 11.651 23.7656 11.625 23.375V20.875C11.651 20.4844 11.8594 20.276 12.25 20.25C12.6406 20.276 12.849 20.4844 12.875 20.875Z" fill="black" fill-opacity="0.72"/>
</g>
</svg>
