<svg width="32" height="32" viewBox="0 0 32 32" fill="none" xmlns="http://www.w3.org/2000/svg">
<g id="standalone / md / dollar-sign-md / regular">
<path id="icon" d="M16.625 7.125V9.03906C17.901 9.16927 18.9948 9.35156 19.9062 9.58594C20.2708 9.71615 20.4271 9.97656 20.375 10.3672C20.2448 10.7318 19.9844 10.875 19.5938 10.7969C18.9427 10.6406 18.1875 10.4974 17.3281 10.3672C16.4688 10.237 15.6094 10.1979 14.75 10.25C13.9167 10.3281 13.2266 10.5365 12.6797 10.875C12.1849 11.1875 11.8464 11.7083 11.6641 12.4375C11.5859 13.0104 11.625 13.4531 11.7812 13.7656C11.9635 14.0781 12.25 14.3776 12.6406 14.6641C13.5521 15.1589 14.724 15.5625 16.1562 15.875L16.2344 15.9141C16.9115 16.0703 17.5755 16.2526 18.2266 16.4609C18.9036 16.6953 19.5026 16.9688 20.0234 17.2812C20.5964 17.6198 21.0391 18.0885 21.3516 18.6875C21.638 19.2865 21.7031 19.9896 21.5469 20.7969C21.2344 22.125 20.4271 23.0365 19.125 23.5312C18.3698 23.7917 17.5365 23.9349 16.625 23.9609V25.875C16.599 26.2656 16.3906 26.474 16 26.5C15.6354 26.474 15.4271 26.2656 15.375 25.875V23.9219C15.1406 23.9219 14.8932 23.8958 14.6328 23.8438C14.112 23.7656 13.5 23.6354 12.7969 23.4531C12.1198 23.2969 11.4427 23.0755 10.7656 22.7891C10.4271 22.6068 10.3099 22.3333 10.4141 21.9688C10.6224 21.6302 10.8958 21.513 11.2344 21.6172C11.8594 21.8776 12.4844 22.099 13.1094 22.2812C13.7604 22.4375 14.3333 22.5547 14.8281 22.6328C16.3646 22.8411 17.6406 22.75 18.6562 22.3594C19.6198 21.9688 20.1797 21.3698 20.3359 20.5625C20.4141 19.9896 20.375 19.5469 20.2188 19.2344C20.0625 18.8958 19.776 18.5964 19.3594 18.3359C18.4479 17.8411 17.276 17.4245 15.8438 17.0859H15.7656C15.1146 16.9297 14.4505 16.7344 13.7734 16.5C13.1224 16.2917 12.5234 16.0182 11.9766 15.6797C11.4036 15.3411 10.974 14.8854 10.6875 14.3125C10.375 13.6875 10.2969 12.9844 10.4531 12.2031C10.6875 11.1094 11.2083 10.3151 12.0156 9.82031C12.7969 9.35156 13.6693 9.07812 14.6328 9C14.8932 9 15.1406 9 15.375 9V7.125C15.401 6.73438 15.6094 6.52604 16 6.5C16.3906 6.52604 16.599 6.73438 16.625 7.125Z" fill="black" fill-opacity="0.72"/>
</g>
</svg>
