<svg width="32" height="32" viewBox="0 0 32 32" fill="none" xmlns="http://www.w3.org/2000/svg">
<g id="standalone / md / image-polaroid-user-md / regular">
<path id="icon" d="M20.375 21.5H19.125H12.875H11.625H8.5V22.75C8.5 23.1146 8.61719 23.4141 8.85156 23.6484C9.08594 23.8828 9.38542 24 9.75 24H22.25C22.6146 24 22.9141 23.8828 23.1484 23.6484C23.3828 23.4141 23.5 23.1146 23.5 22.75V21.5H20.375ZM20.2969 20.25H23.5V10.25C23.5 9.88542 23.3828 9.58594 23.1484 9.35156C22.9141 9.11719 22.6146 9 22.25 9H9.75C9.38542 9 9.08594 9.11719 8.85156 9.35156C8.61719 9.58594 8.5 9.88542 8.5 10.25V20.25H11.7031C11.8594 19.5208 12.2109 18.9219 12.7578 18.4531C13.3047 18.0104 13.9688 17.776 14.75 17.75H16H17.25C18.0312 17.776 18.6953 18.0104 19.2422 18.4531C19.7891 18.9219 20.1406 19.5208 20.2969 20.25ZM12.9922 20.25H19.0078C18.6953 19.4688 18.1094 19.0521 17.25 19H14.75C13.8906 19.0521 13.3047 19.4688 12.9922 20.25ZM24.75 10.25V20.25V20.875V21.5V22.75C24.724 23.4531 24.4766 24.0391 24.0078 24.5078C23.5391 24.9766 22.9531 25.224 22.25 25.25H9.75C9.04688 25.224 8.46094 24.9766 7.99219 24.5078C7.52344 24.0391 7.27604 23.4531 7.25 22.75V21.5V20.875V20.25V10.25C7.27604 9.54688 7.52344 8.96094 7.99219 8.49219C8.46094 8.02344 9.04688 7.77604 9.75 7.75H22.25C22.9531 7.77604 23.5391 8.02344 24.0078 8.49219C24.4766 8.96094 24.724 9.54688 24.75 10.25ZM17.25 14C17.25 13.6354 17.1328 13.3359 16.8984 13.1016C16.6641 12.8672 16.3646 12.75 16 12.75C15.6354 12.75 15.3359 12.8672 15.1016 13.1016C14.8672 13.3359 14.75 13.6354 14.75 14C14.75 14.3646 14.8672 14.6641 15.1016 14.8984C15.3359 15.1328 15.6354 15.25 16 15.25C16.3646 15.25 16.6641 15.1328 16.8984 14.8984C17.1328 14.6641 17.25 14.3646 17.25 14ZM16 11.5C16.9375 11.526 17.6536 11.9427 18.1484 12.75C18.6172 13.5833 18.6172 14.4167 18.1484 15.25C17.6536 16.0573 16.9375 16.474 16 16.5C15.0625 16.474 14.3464 16.0573 13.8516 15.25C13.3828 14.4167 13.3828 13.5833 13.8516 12.75C14.3464 11.9427 15.0625 11.526 16 11.5Z" fill="black" fill-opacity="0.72"/>
</g>
</svg>
