<svg width="32" height="32" viewBox="0 0 32 32" fill="none" xmlns="http://www.w3.org/2000/svg">
<g id="standalone / md / pen-circle-md / regular">
<path id="icon" d="M24.75 16.5C24.724 14.9115 24.3333 13.4531 23.5781 12.125C22.7969 10.7969 21.7292 9.72917 20.375 8.92188C18.9948 8.14062 17.5365 7.75 16 7.75C14.4635 7.75 13.0052 8.14062 11.625 8.92188C10.2708 9.72917 9.20312 10.7969 8.42188 12.125C7.66667 13.4531 7.27604 14.9115 7.25 16.5C7.27604 18.0885 7.66667 19.5469 8.42188 20.875C9.20312 22.2031 10.2708 23.2708 11.625 24.0781C13.0052 24.8594 14.4635 25.25 16 25.25C17.5365 25.25 18.9948 24.8594 20.375 24.0781C21.7292 23.2708 22.7969 22.2031 23.5781 20.875C24.3333 19.5469 24.724 18.0885 24.75 16.5ZM6 16.5C6.02604 14.6771 6.46875 13.0104 7.32812 11.5C8.21354 9.98958 9.4375 8.76562 11 7.82812C12.5885 6.94271 14.2552 6.5 16 6.5C17.7448 6.5 19.4115 6.94271 21 7.82812C22.5625 8.76562 23.7865 9.98958 24.6719 11.5C25.5312 13.0104 25.974 14.6771 26 16.5C25.974 18.3229 25.5312 19.9896 24.6719 21.5C23.7865 23.0104 22.5625 24.2344 21 25.1719C19.4115 26.0573 17.7448 26.5 16 26.5C14.2552 26.5 12.5885 26.0573 11 25.1719C9.4375 24.2344 8.21354 23.0104 7.32812 21.5C6.46875 19.9896 6.02604 18.3229 6 16.5ZM18.9688 12.8672C18.6562 12.6328 18.3568 12.6328 18.0703 12.8672L17.25 13.7266L18.8125 15.2891L19.6328 14.4297C19.8672 14.1432 19.8672 13.8568 19.6328 13.5703L18.9688 12.8672ZM13.1484 17.8281C13.0443 17.9062 12.9792 17.9974 12.9531 18.1016L12.4844 20.0156L14.3984 19.5469C14.5026 19.5208 14.5938 19.4688 14.6719 19.3906L17.9141 16.1484L16.3516 14.5859L13.1094 17.8281H13.1484ZM17.1719 12.0078C17.5625 11.6432 18.0052 11.4609 18.5 11.4609C18.9948 11.4609 19.4375 11.6432 19.8281 12.0078L20.5312 12.6719C20.8958 13.0625 21.0781 13.5052 21.0781 14C21.0781 14.4948 20.8958 14.9375 20.5312 15.3281L15.5703 20.25C15.3359 20.5104 15.0495 20.6797 14.7109 20.7578L11.7812 21.5C11.5469 21.5521 11.3516 21.487 11.1953 21.3047C11.0391 21.1484 10.987 20.9531 11.0391 20.7188L11.7422 17.7891C11.8464 17.4766 12.0156 17.1901 12.25 16.9297L17.1719 12.0078Z" fill="black" fill-opacity="0.72"/>
</g>
</svg>
