<svg width="32" height="32" viewBox="0 0 32 32" fill="none" xmlns="http://www.w3.org/2000/svg">
<g id="standalone / md / flag-checkered-md / bold">
<path id="icon" d="M8.1875 6.5C8.76042 6.55208 9.07292 6.86458 9.125 7.4375V8.53125L12.4453 7.71094C13.9818 7.34635 15.4661 7.5026 16.8984 8.17969C17.8099 8.64844 18.7604 8.88281 19.75 8.88281C20.7396 8.88281 21.7031 8.64844 22.6406 8.17969L22.9922 8.02344C23.4349 7.8151 23.8255 7.82812 24.1641 8.0625C24.5286 8.27083 24.724 8.60938 24.75 9.07812V20.0156C24.724 20.5625 24.4505 20.9531 23.9297 21.1875L22.6016 21.6953C20.7005 22.3724 18.8516 22.2682 17.0547 21.3828C15.5182 20.6536 13.9167 20.4844 12.25 20.875L9.125 21.6562V25.5625C9.07292 26.1354 8.76042 26.4479 8.1875 26.5C7.61458 26.4479 7.30208 26.1354 7.25 25.5625V22.125V20.2109V9V7.4375C7.30208 6.86458 7.61458 6.55208 8.1875 6.5ZM9.125 12.3984L12.25 11.6953V9.70312L9.125 10.4844V12.3984ZM9.125 14.3125V16.1484L12.25 15.4453V13.6484L9.125 14.3125ZM9.125 18.0625V19.7422L11.8203 19.0391C11.9505 19.013 12.0938 18.987 12.25 18.9609V17.3984L9.125 18.0625ZM14.125 18.8047C15.4271 18.8307 16.6771 19.1302 17.875 19.7031V17.7891L15.7266 17.125C15.2057 16.9688 14.6719 16.9297 14.125 17.0078V18.8047ZM19.75 20.25C20.4792 20.3021 21.2083 20.1979 21.9375 19.9375L22.875 19.5859V17.75L21.8594 17.9844C21.1562 18.1406 20.4531 18.1927 19.75 18.1406V20.25ZM22.875 15.8359V14L21.8594 14.2344C21.1562 14.3906 20.4531 14.4427 19.75 14.3906V16.2656C20.3229 16.3177 20.8958 16.2786 21.4688 16.1484L22.875 15.8359ZM22.875 12.0859V10.1328C21.8594 10.5495 20.8177 10.7578 19.75 10.7578V12.5156C20.3229 12.5677 20.8958 12.5286 21.4688 12.3984L22.875 12.0859ZM17.875 10.5234C17.25 10.3932 16.638 10.1719 16.0391 9.85938C15.4401 9.57292 14.8021 9.41667 14.125 9.39062V11.3438C14.8542 11.3177 15.5573 11.3958 16.2344 11.5781L17.875 12.0859V10.5234ZM17.875 14.0391L15.7266 13.375C15.2057 13.2188 14.6719 13.1797 14.125 13.2578V15.1328C14.8542 15.0807 15.5573 15.1458 16.2344 15.3281L17.875 15.8359V14.0391Z" fill="black" fill-opacity="0.72"/>
</g>
</svg>
