<svg width="32" height="32" viewBox="0 0 32 32" fill="none" xmlns="http://www.w3.org/2000/svg">
<g id="standalone / md / circle-caret-down-md / regular">
<path id="icon" d="M16 25.25C17.5885 25.224 19.0469 24.8333 20.375 24.0781C21.7031 23.2969 22.7708 22.2292 23.5781 20.875C24.3594 19.4948 24.75 18.0365 24.75 16.5C24.75 14.9635 24.3594 13.5052 23.5781 12.125C22.7708 10.7708 21.7031 9.70312 20.375 8.92188C19.0469 8.16667 17.5885 7.77604 16 7.75C14.4115 7.77604 12.9531 8.16667 11.625 8.92188C10.2969 9.70312 9.22917 10.7708 8.42188 12.125C7.64062 13.5052 7.25 14.9635 7.25 16.5C7.25 18.0365 7.64062 19.4948 8.42188 20.875C9.22917 22.2292 10.2969 23.2969 11.625 24.0781C12.9531 24.8333 14.4115 25.224 16 25.25ZM16 6.5C17.8229 6.52604 19.4896 6.96875 21 7.82812C22.5104 8.71354 23.7344 9.9375 24.6719 11.5C25.5573 13.0885 26 14.7552 26 16.5C26 18.2448 25.5573 19.9115 24.6719 21.5C23.7344 23.0625 22.5104 24.2865 21 25.1719C19.4896 26.0312 17.8229 26.474 16 26.5C14.1771 26.474 12.5104 26.0312 11 25.1719C9.48958 24.2865 8.26562 23.0625 7.32812 21.5C6.44271 19.9115 6 18.2448 6 16.5C6 14.7552 6.44271 13.0885 7.32812 11.5C8.26562 9.9375 9.48958 8.71354 11 7.82812C12.5104 6.96875 14.1771 6.52604 16 6.5ZM16 20.25C15.6094 20.25 15.2839 20.1068 15.0234 19.8203L11.2734 15.7969C11.0911 15.5885 11 15.3542 11 15.0938C11 14.7812 11.1042 14.5208 11.3125 14.3125C11.5208 14.1042 11.7812 14 12.0938 14H19.9453C20.2318 14 20.4792 14.1042 20.6875 14.3125C20.8958 14.5208 21 14.7812 21 15.0938C21 15.3542 20.9089 15.5885 20.7266 15.7969L16.9766 19.8203C16.7161 20.1068 16.3906 20.25 16 20.25ZM16.0781 18.9609L19.5156 15.25H12.4844L15.9219 18.9609C15.9479 18.987 15.974 19 16 19C16.026 19 16.0521 18.987 16.0781 18.9609Z" fill="black" fill-opacity="0.72"/>
</g>
</svg>
