<svg width="32" height="32" viewBox="0 0 32 32" fill="none" xmlns="http://www.w3.org/2000/svg">
<g id="standalone / md / paste-md / bold">
<path id="icon" d="M9.125 10.25H8.5C8.10938 10.276 7.90104 10.4844 7.875 10.875V21.5C7.90104 21.8906 8.10938 22.099 8.5 22.125H12.25V24H8.5C7.79688 23.974 7.21094 23.7266 6.74219 23.2578C6.27344 22.7891 6.02604 22.2031 6 21.5V10.875C6.02604 10.1719 6.27344 9.58594 6.74219 9.11719C7.21094 8.64844 7.79688 8.40104 8.5 8.375H10.1016C10.1797 7.82812 10.4141 7.38542 10.8047 7.04688C11.1953 6.68229 11.6771 6.5 12.25 6.5C12.8229 6.5 13.3047 6.68229 13.6953 7.04688C14.0859 7.38542 14.3203 7.82812 14.3984 8.375H16C16.599 8.375 17.1198 8.55729 17.5625 8.92188C17.9792 9.26042 18.2656 9.70312 18.4219 10.25H16C15.2969 10.25 14.6589 10.4193 14.0859 10.7578C13.5391 11.0964 13.0964 11.5521 12.7578 12.125H10.375C10.0104 12.125 9.71094 12.0078 9.47656 11.7734C9.24219 11.5391 9.125 11.2396 9.125 10.875V10.25ZM11.625 8.6875C11.651 9.07812 11.8594 9.28646 12.25 9.3125C12.6406 9.28646 12.849 9.07812 12.875 8.6875C12.849 8.29688 12.6406 8.08854 12.25 8.0625C11.8594 8.08854 11.651 8.29688 11.625 8.6875ZM16 24.625H23.5C23.8906 24.599 24.099 24.3906 24.125 24V16.5H22.25C21.8854 16.5 21.5859 16.3828 21.3516 16.1484C21.1172 15.9141 21 15.6146 21 15.25V13.375H16C15.6094 13.401 15.401 13.6094 15.375 14V24C15.401 24.3906 15.6094 24.599 16 24.625ZM23.5 26.5H16C15.2969 26.474 14.7109 26.2266 14.2422 25.7578C13.7734 25.2891 13.526 24.7031 13.5 24V14C13.526 13.2969 13.7734 12.7109 14.2422 12.2422C14.7109 11.7734 15.2969 11.526 16 11.5H22.0938C22.6146 11.5 23.0573 11.6823 23.4219 12.0469L25.4531 14.0781C25.8177 14.4427 26 14.8854 26 15.4062V24C25.974 24.7031 25.7266 25.2891 25.2578 25.7578C24.7891 26.2266 24.2031 26.474 23.5 26.5Z" fill="black" fill-opacity="0.72"/>
</g>
</svg>
