<svg width="32" height="32" viewBox="0 0 32 32" fill="none" xmlns="http://www.w3.org/2000/svg">
<g id="standalone / md / circle-star-md / fill">
<path id="icon" d="M6 16.5C6.02604 14.6771 6.46875 13.0104 7.32812 11.5C8.21354 9.98958 9.4375 8.76562 11 7.82812C12.5885 6.94271 14.2552 6.5 16 6.5C17.7448 6.5 19.4115 6.94271 21 7.82812C22.5625 8.76562 23.7865 9.98958 24.6719 11.5C25.5312 13.0104 25.974 14.6771 26 16.5C25.974 18.3229 25.5312 19.9896 24.6719 21.5C23.7865 23.0104 22.5625 24.2344 21 25.1719C19.4115 26.0573 17.7448 26.5 16 26.5C14.2552 26.5 12.5885 26.0573 11 25.1719C9.4375 24.2344 8.21354 23.0104 7.32812 21.5C6.46875 19.9896 6.02604 18.3229 6 16.5ZM16 10.5625C15.7396 10.5625 15.5573 10.6797 15.4531 10.9141L14.0469 13.7656L10.8828 14.2344C10.6224 14.2865 10.4531 14.4297 10.375 14.6641C10.2969 14.8984 10.349 15.1068 10.5312 15.2891L12.7969 17.5547L12.25 20.6797C12.224 20.9401 12.3151 21.1484 12.5234 21.3047C12.7318 21.4349 12.9531 21.4479 13.1875 21.3438L16 19.8594L18.8516 21.3438C19.0599 21.4479 19.2682 21.4349 19.4766 21.3047C19.6849 21.1484 19.776 20.9401 19.75 20.6797L19.2031 17.5547L21.5078 15.3281C21.6641 15.1198 21.7161 14.8984 21.6641 14.6641C21.5599 14.4297 21.3906 14.2865 21.1562 14.2344L17.9922 13.7656L16.5469 10.9141C16.4427 10.6797 16.2604 10.5625 16 10.5625Z" fill="black" fill-opacity="0.72"/>
</g>
</svg>
