<svg width="32" height="32" viewBox="0 0 32 32" fill="none" xmlns="http://www.w3.org/2000/svg">
<g id="standalone / md / circle-three-md / regular">
<path id="icon" d="M16 7.75C14.4115 7.77604 12.9531 8.16667 11.625 8.92188C10.2969 9.70312 9.22917 10.7708 8.42188 12.125C7.64062 13.5052 7.25 14.9635 7.25 16.5C7.25 18.0365 7.64062 19.4948 8.42188 20.875C9.22917 22.2292 10.2969 23.2969 11.625 24.0781C12.9531 24.8333 14.4115 25.224 16 25.25C17.5885 25.224 19.0469 24.8333 20.375 24.0781C21.7031 23.2969 22.7708 22.2292 23.5781 20.875C24.3594 19.4948 24.75 18.0365 24.75 16.5C24.75 14.9635 24.3594 13.5052 23.5781 12.125C22.7708 10.7708 21.7031 9.70312 20.375 8.92188C19.0469 8.16667 17.5885 7.77604 16 7.75ZM16 26.5C14.1771 26.474 12.5104 26.0312 11 25.1719C9.48958 24.2865 8.26562 23.0625 7.32812 21.5C6.44271 19.9115 6 18.2448 6 16.5C6 14.7552 6.44271 13.0885 7.32812 11.5C8.26562 9.9375 9.48958 8.71354 11 7.82812C12.5104 6.96875 14.1771 6.52604 16 6.5C17.8229 6.52604 19.4896 6.96875 21 7.82812C22.5104 8.71354 23.7344 9.9375 24.6719 11.5C25.5573 13.0885 26 14.7552 26 16.5C26 18.2448 25.5573 19.9115 24.6719 21.5C23.7344 23.0625 22.5104 24.2865 21 25.1719C19.4896 26.0312 17.8229 26.474 16 26.5ZM12.875 11.5H18.5C18.7865 11.526 18.9818 11.6562 19.0859 11.8906C19.1641 12.1771 19.099 12.4115 18.8906 12.5938L15.8047 15.25H16.5859C17.4974 15.25 18.2396 15.5495 18.8125 16.1484C19.4115 16.7474 19.724 17.4896 19.75 18.375C19.724 19.2604 19.4115 20.0026 18.8125 20.6016C18.2396 21.1745 17.5104 21.474 16.625 21.5H15.2188C14.0729 21.474 13.1615 21.0182 12.4844 20.1328L12.3672 20.0156C12.1589 19.6771 12.1979 19.3776 12.4844 19.1172C12.8229 18.9349 13.1224 18.987 13.3828 19.2734L13.4609 19.3906C13.9036 19.9635 14.4896 20.25 15.2188 20.25H16.625C17.1458 20.25 17.5885 20.0677 17.9531 19.7031C18.2917 19.3385 18.474 18.8958 18.5 18.375C18.474 17.8281 18.2917 17.3854 17.9531 17.0469C17.5885 16.6823 17.1458 16.5 16.625 16.5H14.125C13.8385 16.474 13.6432 16.3438 13.5391 16.1094C13.4609 15.8229 13.526 15.5885 13.7344 15.4062L16.8203 12.75H12.875C12.4844 12.724 12.276 12.5156 12.25 12.125C12.276 11.7344 12.4844 11.526 12.875 11.5Z" fill="black" fill-opacity="0.72"/>
</g>
</svg>
