<svg width="32" height="32" viewBox="0 0 32 32" fill="none" xmlns="http://www.w3.org/2000/svg">
<g id="standalone / md / circle-dot-md / fill">
<path id="icon" d="M16 26.5C14.1771 26.474 12.5104 26.0312 11 25.1719C9.48958 24.2865 8.26562 23.0625 7.32812 21.5C6.44271 19.9115 6 18.2448 6 16.5C6 14.7552 6.44271 13.0885 7.32812 11.5C8.26562 9.9375 9.48958 8.71354 11 7.82812C12.5104 6.96875 14.1771 6.52604 16 6.5C17.8229 6.52604 19.4896 6.96875 21 7.82812C22.5104 8.71354 23.7344 9.9375 24.6719 11.5C25.5573 13.0885 26 14.7552 26 16.5C26 18.2448 25.5573 19.9115 24.6719 21.5C23.7344 23.0625 22.5104 24.2865 21 25.1719C19.4896 26.0312 17.8229 26.474 16 26.5ZM16 12.75C15.3229 12.75 14.6979 12.9193 14.125 13.2578C13.5521 13.5964 13.0964 14.0521 12.7578 14.625C12.4193 15.224 12.25 15.849 12.25 16.5C12.25 17.151 12.4193 17.776 12.7578 18.375C13.0964 18.9479 13.5521 19.4036 14.125 19.7422C14.6979 20.0807 15.3229 20.25 16 20.25C16.6771 20.25 17.3021 20.0807 17.875 19.7422C18.4479 19.4036 18.9036 18.9479 19.2422 18.375C19.5807 17.776 19.75 17.151 19.75 16.5C19.75 15.849 19.5807 15.224 19.2422 14.625C18.9036 14.0521 18.4479 13.5964 17.875 13.2578C17.3021 12.9193 16.6771 12.75 16 12.75Z" fill="black" fill-opacity="0.72"/>
</g>
</svg>
