<svg width="32" height="32" viewBox="0 0 32 32" fill="none" xmlns="http://www.w3.org/2000/svg">
<g id="standalone / md / arrow-down-one-nine-md / bold">
<path id="icon" d="M22.5625 8.6875V11.5V13.375H23.5C24.0729 13.4271 24.3854 13.7396 24.4375 14.3125C24.3854 14.8854 24.0729 15.1979 23.5 15.25H21.625H19.75C19.1771 15.1979 18.8646 14.8854 18.8125 14.3125C18.8646 13.7396 19.1771 13.4271 19.75 13.375H20.6875V11.5V9.97656L20.0625 10.2109C19.4896 10.3411 19.0859 10.1458 18.8516 9.625C18.7214 9.05208 18.9167 8.64844 19.4375 8.41406L21.3125 7.78906C21.625 7.71094 21.9115 7.76302 22.1719 7.94531C22.4323 8.1276 22.5625 8.375 22.5625 8.6875ZM10.3359 24.9766L6.58594 21.2266C6.22135 20.7839 6.22135 20.3411 6.58594 19.8984C7.02865 19.5339 7.47135 19.5339 7.91406 19.8984L10.0625 22.0469V8.6875C10.1146 8.11458 10.4271 7.80208 11 7.75C11.5729 7.80208 11.8854 8.11458 11.9375 8.6875V22.0469L14.0859 19.8984C14.5286 19.5339 14.9714 19.5339 15.4141 19.8984C15.7786 20.3411 15.7786 20.7839 15.4141 21.2266L11.6641 24.9766C11.2214 25.3411 10.7786 25.3411 10.3359 24.9766ZM21.3125 21.5C21.9115 21.474 22.3672 21.2135 22.6797 20.7188C22.9401 20.1979 22.9401 19.6771 22.6797 19.1562C22.3672 18.6615 21.9115 18.401 21.3125 18.375C20.7135 18.401 20.2578 18.6615 19.9453 19.1562C19.6849 19.6771 19.6849 20.1979 19.9453 20.7188C20.2578 21.2135 20.7135 21.474 21.3125 21.5ZM20.6094 23.2969C19.8021 23.1146 19.151 22.724 18.6562 22.125C18.1615 21.526 17.901 20.7969 17.875 19.9375C17.901 18.974 18.2396 18.1667 18.8906 17.5156C19.5417 16.8646 20.349 16.526 21.3125 16.5C22.276 16.526 23.0833 16.8646 23.7344 17.5156C24.3854 18.1667 24.724 18.974 24.75 19.9375C24.75 20.7969 24.4766 21.5521 23.9297 22.2031L21.7422 24.8984C21.3255 25.3151 20.8828 25.3672 20.4141 25.0547C19.9974 24.638 19.9453 24.1953 20.2578 23.7266L20.6094 23.2969Z" fill="black" fill-opacity="0.72"/>
</g>
</svg>
