<svg width="32" height="32" viewBox="0 0 32 32" fill="none" xmlns="http://www.w3.org/2000/svg">
<g id="standalone / md / ios-md">
<path id="icon" d="M16.5078 16.8125C16.5078 18.6094 15.6094 19.7422 14.0859 19.7422C12.6016 19.7422 11.7031 18.6094 11.7031 16.8125C11.7031 15.0156 12.6016 13.8828 14.0859 13.8828C15.6094 13.8828 16.5078 15.0156 16.5078 16.8125ZM26 12.0078V21.0312C26 21.7344 25.9609 22.8672 25.5703 23.8438C25.375 24.3516 24.9453 25.0547 24.3203 25.5234C23.9297 25.7969 23.5 26.0703 22.9141 26.2656C22.25 26.4609 21.4688 26.5 20.4922 26.5H11.4688C10.4922 26.5 9.71094 26.4609 9.04688 26.2656C8.46094 26.0703 8.03125 25.7969 7.64062 25.5234C7.01562 25.0547 6.58594 24.3516 6.39062 23.8438C6 22.8672 6 21.7344 6 21.0312V12.0078C6 11.3047 6 10.1719 6.39062 9.19531C6.58594 8.6875 7.01562 7.98438 7.64062 7.51562C8.03125 7.20312 8.46094 6.92969 9.04688 6.77344C9.71094 6.57812 10.4922 6.5 11.4688 6.5H20.4922C21.4688 6.5 22.25 6.57812 22.9141 6.77344C23.5 6.96875 23.9297 7.24219 24.3203 7.51562C24.9453 7.98438 25.375 8.6875 25.5703 9.19531C25.9609 10.1719 26 11.3047 26 12.0078ZM9.94531 20.4453V16.1094H9.04688V20.4453H9.94531ZM9.98438 14.8984C9.98438 14.625 9.75 14.3906 9.47656 14.3906C9.20312 14.3906 8.96875 14.625 8.96875 14.8984C8.96875 15.1719 9.20312 15.4062 9.47656 15.4062C9.75 15.4062 9.98438 15.1719 9.98438 14.8984ZM17.4453 16.8125C17.4453 14.5078 16.1562 13.0625 14.0859 13.0625C12.0547 13.0625 10.7656 14.5078 10.7656 16.8125C10.7656 19.1172 12.0547 20.5625 14.0859 20.5625C16.1562 20.5625 17.4453 19.1172 17.4453 16.8125ZM23.2656 18.375C23.2656 17.3594 22.6406 16.7344 21.1562 16.4219L20.3359 16.2266C19.3594 16.0312 18.9688 15.6406 18.9688 15.0547C18.9688 14.3125 19.6328 13.8828 20.5703 13.8828C21.5078 13.8828 22.1328 14.3516 22.2109 15.1719H23.1094C23.0703 13.9219 22.0156 13.0625 20.5703 13.0625C19.0859 13.0625 18.0312 13.9219 18.0312 15.0938C18.0312 16.1484 18.6562 16.8125 20.1016 17.125L20.9219 17.2812C21.8984 17.5156 22.3281 17.9062 22.3281 18.5312C22.3281 19.2344 21.5859 19.7422 20.6094 19.7422C19.5938 19.7422 18.8516 19.2734 18.7344 18.4922H17.8359C17.9141 19.7422 19.0078 20.5625 20.5703 20.5625C22.2109 20.5625 23.2656 19.7422 23.2656 18.375Z" fill="black" fill-opacity="0.72"/>
</g>
</svg>
