<svg width="32" height="32" viewBox="0 0 32 32" fill="none" xmlns="http://www.w3.org/2000/svg">
<g id="standalone / md / search-md / bold">
<path id="icon" d="M20.375 14.625C20.375 13.5052 20.1016 12.4635 19.5547 11.5C18.9818 10.5365 18.2135 9.76823 17.25 9.19531C16.2604 8.64844 15.2188 8.375 14.125 8.375C13.0312 8.375 11.9896 8.64844 11 9.19531C10.0365 9.76823 9.26823 10.5365 8.69531 11.5C8.14844 12.4635 7.875 13.5052 7.875 14.625C7.875 15.7448 8.14844 16.7865 8.69531 17.75C9.26823 18.7135 10.0365 19.4818 11 20.0547C11.9896 20.6016 13.0312 20.875 14.125 20.875C15.2188 20.875 16.2604 20.6016 17.25 20.0547C18.2135 19.4818 18.9818 18.7135 19.5547 17.75C20.1016 16.7865 20.375 15.7448 20.375 14.625ZM19.1641 20.9922C17.7578 22.138 16.0781 22.724 14.125 22.75C11.8333 22.6979 9.91927 21.9036 8.38281 20.3672C6.84635 18.8307 6.05208 16.9167 6 14.625C6.05208 12.3333 6.84635 10.4193 8.38281 8.88281C9.91927 7.34635 11.8333 6.55208 14.125 6.5C16.4167 6.55208 18.3307 7.34635 19.8672 8.88281C21.4036 10.4193 22.1979 12.3333 22.25 14.625C22.224 16.5781 21.638 18.2578 20.4922 19.6641L25.7266 24.8984C26.0911 25.3411 26.0911 25.7839 25.7266 26.2266C25.2839 26.5911 24.8411 26.5911 24.3984 26.2266L19.1641 20.9922Z" fill="black" fill-opacity="0.72"/>
</g>
</svg>
