<svg width="32" height="32" viewBox="0 0 32 32" fill="none" xmlns="http://www.w3.org/2000/svg">
<g id="standalone / md / floppy-disk-md / bold">
<path id="icon" d="M9.125 10.25V22.75C9.15104 23.1406 9.35938 23.349 9.75 23.375H22.25C22.6406 23.349 22.849 23.1406 22.875 22.75V13.1797C22.875 12.9974 22.8099 12.8411 22.6797 12.7109L24.0078 11.3828C24.5026 11.8776 24.75 12.4766 24.75 13.1797V22.75C24.724 23.4531 24.4766 24.0391 24.0078 24.5078C23.5391 24.9766 22.9531 25.224 22.25 25.25H9.75C9.04688 25.224 8.46094 24.9766 7.99219 24.5078C7.52344 24.0391 7.27604 23.4531 7.25 22.75V10.25C7.27604 9.54688 7.52344 8.96094 7.99219 8.49219C8.46094 8.02344 9.04688 7.77604 9.75 7.75H19.3594C20.0365 7.75 20.6224 7.9974 21.1172 8.49219L24.0078 11.3828L22.6797 12.7109L19.7891 9.82031C19.763 9.79427 19.75 9.78125 19.75 9.78125V13.6875C19.6979 14.2604 19.3854 14.5729 18.8125 14.625H11.3125C10.7396 14.5729 10.4271 14.2604 10.375 13.6875V9.625H9.75C9.35938 9.65104 9.15104 9.85938 9.125 10.25ZM12.25 9.625V12.75H17.875V9.625H12.25ZM13.5 19C13.526 18.0625 13.9427 17.3464 14.75 16.8516C15.5833 16.3828 16.4167 16.3828 17.25 16.8516C18.0573 17.3464 18.474 18.0625 18.5 19C18.474 19.9375 18.0573 20.6536 17.25 21.1484C16.4167 21.6172 15.5833 21.6172 14.75 21.1484C13.9427 20.6536 13.526 19.9375 13.5 19Z" fill="black" fill-opacity="0.72"/>
</g>
</svg>
