<svg width="32" height="32" viewBox="0 0 32 32" fill="none" xmlns="http://www.w3.org/2000/svg">
<g id="standalone / md / arrow-down-a-z-md / regular">
<path id="icon" d="M15.1797 21.3047L11.4297 25.0547C11.1432 25.3151 10.8568 25.3151 10.5703 25.0547L6.82031 21.3047C6.5599 21.0182 6.5599 20.7318 6.82031 20.4453C7.10677 20.1849 7.39323 20.1849 7.67969 20.4453L10.375 23.1016V8.375C10.401 7.98438 10.6094 7.77604 11 7.75C11.3906 7.77604 11.599 7.98438 11.625 8.375V23.1016L14.3203 20.4453C14.6068 20.1849 14.8932 20.1849 15.1797 20.4453C15.4401 20.7318 15.4401 21.0182 15.1797 21.3047ZM21.5469 8.10156L24.0469 13.0625C24.0469 13.0885 24.0469 13.1016 24.0469 13.1016L24.6719 14.3516C24.8281 14.6901 24.737 14.9635 24.3984 15.1719C24.0339 15.3281 23.7604 15.237 23.5781 14.8984L23.1094 14H18.8906L18.4219 14.8984C18.2135 15.237 17.9401 15.3281 17.6016 15.1719C17.263 14.9896 17.1719 14.7161 17.3281 14.3516L17.9141 13.1016C17.9401 13.1016 17.9531 13.1016 17.9531 13.1016L20.4531 8.10156C20.5573 7.86719 20.7396 7.75 21 7.75C21.2604 7.75 21.4427 7.86719 21.5469 8.10156ZM21 9.78125L19.5156 12.75H22.4844L21 9.78125ZM18.5 17.75H23.5C23.7604 17.75 23.9427 17.8672 24.0469 18.1016C24.151 18.3359 24.138 18.5573 24.0078 18.7656L19.7891 24H23.5C23.8906 24.026 24.099 24.2344 24.125 24.625C24.099 25.0156 23.8906 25.224 23.5 25.25H18.5C18.2396 25.25 18.0573 25.1328 17.9531 24.8984C17.849 24.6641 17.875 24.4427 18.0312 24.2344L22.2109 19H18.5C18.1094 18.974 17.901 18.7656 17.875 18.375C17.901 17.9844 18.1094 17.776 18.5 17.75Z" fill="black" fill-opacity="0.72"/>
</g>
</svg>
