<svg width="32" height="32" viewBox="0 0 32 32" fill="none" xmlns="http://www.w3.org/2000/svg">
<g id="standalone / md / circle-info-md / bold">
<path id="icon" d="M16 8.375C14.5156 8.375 13.1615 8.73958 11.9375 9.46875C10.7135 10.1719 9.72396 11.1615 8.96875 12.4375C8.23958 13.7135 7.875 15.0677 7.875 16.5C7.875 17.9323 8.23958 19.2865 8.96875 20.5625C9.72396 21.8385 10.7135 22.8281 11.9375 23.5312C13.1615 24.2604 14.5156 24.625 16 24.625C17.4844 24.625 18.8385 24.2604 20.0625 23.5312C21.2865 22.8281 22.276 21.8385 23.0312 20.5625C23.7604 19.2865 24.125 17.9323 24.125 16.5C24.125 15.0677 23.7604 13.7135 23.0312 12.4375C22.276 11.1615 21.2865 10.1719 20.0625 9.46875C18.8385 8.73958 17.4844 8.375 16 8.375ZM16 26.5C14.1771 26.474 12.5104 26.0312 11 25.1719C9.48958 24.2865 8.26562 23.0625 7.32812 21.5C6.44271 19.9115 6 18.2448 6 16.5C6 14.7552 6.44271 13.0885 7.32812 11.5C8.26562 9.9375 9.48958 8.71354 11 7.82812C12.5104 6.96875 14.1771 6.52604 16 6.5C17.8229 6.52604 19.4896 6.96875 21 7.82812C22.5104 8.71354 23.7344 9.9375 24.6719 11.5C25.5573 13.0885 26 14.7552 26 16.5C26 18.2448 25.5573 19.9115 24.6719 21.5C23.7344 23.0625 22.5104 24.2865 21 25.1719C19.4896 26.0312 17.8229 26.474 16 26.5ZM14.4375 19.625H15.375V17.125H14.4375C13.8646 17.0729 13.5521 16.7604 13.5 16.1875C13.5521 15.6146 13.8646 15.3021 14.4375 15.25H16.3125C16.8854 15.3021 17.1979 15.6146 17.25 16.1875V19.625H17.5625C18.1354 19.6771 18.4479 19.9896 18.5 20.5625C18.4479 21.1354 18.1354 21.4479 17.5625 21.5H14.4375C13.8646 21.4479 13.5521 21.1354 13.5 20.5625C13.5521 19.9896 13.8646 19.6771 14.4375 19.625ZM16 14C15.6354 14 15.3359 13.8828 15.1016 13.6484C14.8672 13.4141 14.75 13.1146 14.75 12.75C14.75 12.3854 14.8672 12.0859 15.1016 11.8516C15.3359 11.6172 15.6354 11.5 16 11.5C16.3646 11.5 16.6641 11.6172 16.8984 11.8516C17.1328 12.0859 17.25 12.3854 17.25 12.75C17.25 13.1146 17.1328 13.4141 16.8984 13.6484C16.6641 13.8828 16.3646 14 16 14Z" fill="black" fill-opacity="0.72"/>
</g>
</svg>
