<svg width="32" height="32" viewBox="0 0 32 32" fill="none" xmlns="http://www.w3.org/2000/svg">
<g id="standalone / md / percent-md / regular">
<path id="icon" d="M11 10.25C10.6354 10.25 10.3359 10.3672 10.1016 10.6016C9.86719 10.8359 9.75 11.1354 9.75 11.5C9.75 11.8646 9.86719 12.1641 10.1016 12.3984C10.3359 12.6328 10.6354 12.75 11 12.75C11.3646 12.75 11.6641 12.6328 11.8984 12.3984C12.1328 12.1641 12.25 11.8646 12.25 11.5C12.25 11.1354 12.1328 10.8359 11.8984 10.6016C11.6641 10.3672 11.3646 10.25 11 10.25ZM11 14C10.0625 13.974 9.34635 13.5573 8.85156 12.75C8.38281 11.9167 8.38281 11.0833 8.85156 10.25C9.34635 9.44271 10.0625 9.02604 11 9C11.9375 9.02604 12.6536 9.44271 13.1484 10.25C13.6172 11.0833 13.6172 11.9167 13.1484 12.75C12.6536 13.5573 11.9375 13.974 11 14ZM21 20.25C20.6354 20.25 20.3359 20.3672 20.1016 20.6016C19.8672 20.8359 19.75 21.1354 19.75 21.5C19.75 21.8646 19.8672 22.1641 20.1016 22.3984C20.3359 22.6328 20.6354 22.75 21 22.75C21.3646 22.75 21.6641 22.6328 21.8984 22.3984C22.1328 22.1641 22.25 21.8646 22.25 21.5C22.25 21.1354 22.1328 20.8359 21.8984 20.6016C21.6641 20.3672 21.3646 20.25 21 20.25ZM21 24C20.0625 23.974 19.3464 23.5573 18.8516 22.75C18.3828 21.9167 18.3828 21.0833 18.8516 20.25C19.3464 19.4427 20.0625 19.026 21 19C21.9375 19.026 22.6536 19.4427 23.1484 20.25C23.6172 21.0833 23.6172 21.9167 23.1484 22.75C22.6536 23.5573 21.9375 23.974 21 24ZM23.3047 10.0547L9.55469 23.8047C9.26823 24.0651 8.98177 24.0651 8.69531 23.8047C8.4349 23.5182 8.4349 23.2318 8.69531 22.9453L22.4453 9.19531C22.7318 8.9349 23.0182 8.9349 23.3047 9.19531C23.5651 9.48177 23.5651 9.76823 23.3047 10.0547Z" fill="black" fill-opacity="0.72"/>
</g>
</svg>
