<svg width="32" height="32" viewBox="0 0 32 32" fill="none" xmlns="http://www.w3.org/2000/svg">
<g id="standalone / md / calendar-range-md / bold">
<path id="icon" d="M13.1875 7.4375V9H18.8125V7.4375C18.8646 6.86458 19.1771 6.55208 19.75 6.5C20.3229 6.55208 20.6354 6.86458 20.6875 7.4375V9H22.25C22.9531 9.02604 23.5391 9.27344 24.0078 9.74219C24.4766 10.2109 24.724 10.7969 24.75 11.5V12.125V14V24C24.724 24.7031 24.4766 25.2891 24.0078 25.7578C23.5391 26.2266 22.9531 26.474 22.25 26.5H9.75C9.04688 26.474 8.46094 26.2266 7.99219 25.7578C7.52344 25.2891 7.27604 24.7031 7.25 24V14V12.125V11.5C7.27604 10.7969 7.52344 10.2109 7.99219 9.74219C8.46094 9.27344 9.04688 9.02604 9.75 9H11.3125V7.4375C11.3646 6.86458 11.6771 6.55208 12.25 6.5C12.8229 6.55208 13.1354 6.86458 13.1875 7.4375ZM9.125 14V24C9.15104 24.3906 9.35938 24.599 9.75 24.625H22.25C22.6406 24.599 22.849 24.3906 22.875 24V14H9.125ZM11 17.75C11 17.3854 11.1172 17.0859 11.3516 16.8516C11.5859 16.6172 11.8854 16.5 12.25 16.5C12.6146 16.5 12.9141 16.6172 13.1484 16.8516C13.3828 17.0859 13.5 17.3854 13.5 17.75C13.5 18.1146 13.3828 18.4141 13.1484 18.6484C12.9141 18.8828 12.6146 19 12.25 19C11.8854 19 11.5859 18.8828 11.3516 18.6484C11.1172 18.4141 11 18.1146 11 17.75ZM19.75 20.25C20.1146 20.25 20.4141 20.3672 20.6484 20.6016C20.8828 20.8359 21 21.1354 21 21.5C21 21.8646 20.8828 22.1641 20.6484 22.3984C20.4141 22.6328 20.1146 22.75 19.75 22.75C19.3854 22.75 19.0859 22.6328 18.8516 22.3984C18.6172 22.1641 18.5 21.8646 18.5 21.5C18.5 21.1354 18.6172 20.8359 18.8516 20.6016C19.0859 20.3672 19.3854 20.25 19.75 20.25ZM14.75 17.75C14.8021 17.1771 15.1146 16.8646 15.6875 16.8125H20.0625C20.6354 16.8646 20.9479 17.1771 21 17.75C20.9479 18.3229 20.6354 18.6354 20.0625 18.6875H15.6875C15.1146 18.6354 14.8021 18.3229 14.75 17.75ZM16.3125 20.5625C16.8854 20.6146 17.1979 20.9271 17.25 21.5C17.1979 22.0729 16.8854 22.3854 16.3125 22.4375H11.9375C11.3646 22.3854 11.0521 22.0729 11 21.5C11.0521 20.9271 11.3646 20.6146 11.9375 20.5625H16.3125Z" fill="black" fill-opacity="0.72"/>
</g>
</svg>
