<svg width="32" height="32" viewBox="0 0 32 32" fill="none" xmlns="http://www.w3.org/2000/svg">
<g id="standalone / md / barcode-md / regular">
<path id="icon" d="M6 8.375C6.02604 7.98438 6.23438 7.77604 6.625 7.75C7.01562 7.77604 7.22396 7.98438 7.25 8.375V24.625C7.22396 25.0156 7.01562 25.224 6.625 25.25C6.23438 25.224 6.02604 25.0156 6 24.625V8.375ZM8.5 8.375C8.52604 7.98438 8.73438 7.77604 9.125 7.75C9.51562 7.77604 9.72396 7.98438 9.75 8.375V24.625C9.72396 25.0156 9.51562 25.224 9.125 25.25C8.73438 25.224 8.52604 25.0156 8.5 24.625V8.375ZM11.625 7.75C12.0156 7.77604 12.224 7.98438 12.25 8.375V24.625C12.224 25.0156 12.0156 25.224 11.625 25.25C11.2344 25.224 11.026 25.0156 11 24.625V8.375C11.026 7.98438 11.2344 7.77604 11.625 7.75ZM14.75 8.375C14.776 7.98438 14.9844 7.77604 15.375 7.75C15.7656 7.77604 15.974 7.98438 16 8.375V24.625C15.974 25.0156 15.7656 25.224 15.375 25.25C14.9844 25.224 14.776 25.0156 14.75 24.625V8.375ZM17.875 7.75C18.2656 7.77604 18.474 7.98438 18.5 8.375V24.625C18.474 25.0156 18.2656 25.224 17.875 25.25C17.4844 25.224 17.276 25.0156 17.25 24.625V8.375C17.276 7.98438 17.4844 7.77604 17.875 7.75ZM21 8.375C21.026 7.98438 21.2344 7.77604 21.625 7.75C22.0156 7.77604 22.224 7.98438 22.25 8.375V24.625C22.224 25.0156 22.0156 25.224 21.625 25.25C21.2344 25.224 21.026 25.0156 21 24.625V8.375ZM25.375 7.75C25.7656 7.77604 25.974 7.98438 26 8.375V24.625C25.974 25.0156 25.7656 25.224 25.375 25.25C24.9844 25.224 24.776 25.0156 24.75 24.625V8.375C24.776 7.98438 24.9844 7.77604 25.375 7.75Z" fill="black" fill-opacity="0.72"/>
</g>
</svg>
