<svg width="32" height="32" viewBox="0 0 32 32" fill="none" xmlns="http://www.w3.org/2000/svg">
<g id="standalone / md / light-chart-line-up-down-clock-md / bold">
<path id="icon" d="M3.5 8.6875C3.5 8.17969 3.89062 7.75 4.4375 7.75C4.94531 7.75 5.375 8.17969 5.375 8.6875C5.375 13.2969 5.375 17.8672 5.375 22.4375C5.375 22.9844 5.76562 23.375 6.3125 23.375C9.67188 23.375 13.0703 23.375 16.4688 23.375C16.7031 24.0781 17.0938 24.7031 17.5625 25.25C13.8125 25.25 10.0625 25.25 6.3125 25.25C4.75 25.25 3.5 24 3.5 22.4375C3.5 17.8672 3.5 13.2969 3.5 8.6875ZM7.83594 15.875L10.9609 12.75C11.3125 12.3594 11.8984 12.3594 12.2891 12.75C13.1094 13.5703 13.9297 14.3906 14.75 15.2109C16.1562 13.7656 17.6016 12.3203 19.0469 10.875C18.7344 10.875 18.4609 10.875 18.1875 10.875C17.6406 10.875 17.25 10.4844 17.25 9.9375C17.25 9.42969 17.6406 9 18.1875 9C19.2031 9 20.2578 9 21.3125 9C21.5469 9 21.7812 9.11719 21.9766 9.27344C22.1328 9.46875 22.25 9.70312 22.25 9.9375C22.25 10.9922 22.25 12.0469 22.25 13.0625C22.25 13.6094 21.8203 14 21.3125 14C20.7656 14 20.375 13.6094 20.375 13.0625C20.375 12.7891 20.375 12.5156 20.375 12.2031C18.6953 13.8828 17.0547 15.5234 15.4141 17.1641C15.0234 17.5547 14.4375 17.5547 14.0859 17.1641C13.2656 16.3438 12.4453 15.5234 11.625 14.7031C10.8047 15.5234 9.98438 16.3438 9.16406 17.1641C8.77344 17.5547 8.1875 17.5547 7.83594 17.1641C7.44531 16.8125 7.44531 16.2266 7.83594 15.875ZM17.25 20.875C17.25 17.7891 19.75 15.25 22.875 15.25C25.9609 15.25 28.5 17.7891 28.5 20.875C28.5 24 25.9609 26.5 22.875 26.5C19.75 26.5 17.25 24 17.25 20.875ZM22.25 18.375V20.875C22.25 21.2266 22.5234 21.5 22.875 21.5C23.5 21.5 24.125 21.5 24.75 21.5C25.0625 21.5 25.375 21.2266 25.375 20.875C25.375 20.5625 25.0625 20.25 24.75 20.25C24.3203 20.25 23.8906 20.25 23.5 20.25C23.5 19.625 23.5 19 23.5 18.375C23.5 18.0625 23.1875 17.75 22.875 17.75C22.5234 17.75 22.25 18.0625 22.25 18.375Z" fill="black" fill-opacity="0.72"/>
</g>
</svg>
