<svg width="32" height="32" viewBox="0 0 32 32" fill="none" xmlns="http://www.w3.org/2000/svg">
<g id="standalone / md / arrow-right-to-line-md / bold">
<path id="icon" d="M24.75 9.9375V23.0625C24.6979 23.6354 24.3854 23.9479 23.8125 24C23.2396 23.9479 22.9271 23.6354 22.875 23.0625V9.9375C22.9271 9.36458 23.2396 9.05208 23.8125 9C24.3854 9.05208 24.6979 9.36458 24.75 9.9375ZM19.4375 17.2031L19.4766 17.1641L14.1641 22.1641C13.6953 22.5286 13.2526 22.5156 12.8359 22.125C12.4714 21.6823 12.4844 21.2526 12.875 20.8359L16.4688 17.4375H13.1875H8.1875C7.61458 17.3854 7.30208 17.0729 7.25 16.5C7.30208 15.9271 7.61458 15.6146 8.1875 15.5625H13.1875H16.4688L12.875 12.1641C12.4844 11.7474 12.4714 11.3177 12.8359 10.875C13.2526 10.4844 13.6823 10.4714 14.125 10.8359L19.4375 15.8359C19.6458 16.0182 19.75 16.2396 19.75 16.5C19.75 16.7604 19.6458 16.9948 19.4375 17.2031Z" fill="black" fill-opacity="0.72"/>
</g>
</svg>
