<svg width="32" height="32" viewBox="0 0 32 32" fill="none" xmlns="http://www.w3.org/2000/svg">
<g id="standalone / md / eye-slash-md / bold">
<path id="icon" d="M5.02344 6.69531L9.39844 10.1328C10.2578 9.42969 11.2344 8.85677 12.3281 8.41406C13.4479 7.9974 14.6719 7.77604 16 7.75C17.5885 7.77604 19.0078 8.08854 20.2578 8.6875C21.5078 9.28646 22.6016 10.0286 23.5391 10.9141C24.4505 11.7734 25.2057 12.6589 25.8047 13.5703C26.4036 14.4818 26.8594 15.3021 27.1719 16.0312C27.276 16.3438 27.276 16.6562 27.1719 16.9688C26.8854 17.6198 26.4818 18.349 25.9609 19.1562C25.4401 19.9896 24.8021 20.8099 24.0469 21.6172L28.1484 24.8203C28.5651 25.2109 28.6172 25.6536 28.3047 26.1484C27.9141 26.5651 27.4714 26.6172 26.9766 26.3047L3.85156 8.17969C3.4349 7.78906 3.38281 7.34635 3.69531 6.85156C4.08594 6.4349 4.52865 6.38281 5.02344 6.69531ZM10.9219 11.3047L12.7188 12.7109C13.6302 11.9297 14.724 11.526 16 11.5C17.4062 11.526 18.5911 12.0078 19.5547 12.9453C20.4922 13.9089 20.974 15.0938 21 16.5C21 17.3333 20.8177 18.1016 20.4531 18.8047L22.5625 20.4453C23.2135 19.7682 23.7734 19.0781 24.2422 18.375C24.7109 17.6719 25.0755 17.0469 25.3359 16.5C25.0495 15.901 24.6589 15.224 24.1641 14.4688C23.6432 13.7135 23.0052 12.9844 22.25 12.2812C21.4427 11.5 20.5182 10.875 19.4766 10.4062C18.4349 9.91146 17.276 9.65104 16 9.625C14.0208 9.67708 12.3281 10.237 10.9219 11.3047ZM18.9297 17.5938C19.0599 17.2552 19.125 16.8906 19.125 16.5C19.099 15.6146 18.7995 14.8724 18.2266 14.2734C17.6276 13.7005 16.8854 13.401 16 13.375C15.974 13.375 15.9479 13.375 15.9219 13.375C15.974 13.5833 16 13.7917 16 14C16 14.3906 15.9089 14.7552 15.7266 15.0938L18.9297 17.5938ZM19.2812 22.7109L20.9219 24C19.5156 24.7812 17.875 25.1979 16 25.25C14.4115 25.224 12.9922 24.9115 11.7422 24.3125C10.4922 23.7135 9.41146 22.9714 8.5 22.0859C7.5625 21.2266 6.79427 20.3411 6.19531 19.4297C5.59635 18.5182 5.15365 17.6979 4.86719 16.9688C4.73698 16.6562 4.73698 16.3438 4.86719 16.0312C5.23177 15.0938 5.85677 14.026 6.74219 12.8281L8.22656 13.9609C7.52344 14.8984 7.0026 15.7448 6.66406 16.5C6.95052 17.099 7.34115 17.776 7.83594 18.5312C8.35677 19.2865 8.99479 20.0156 9.75 20.7188C10.5573 21.5 11.4818 22.125 12.5234 22.5938C13.5651 23.0885 14.724 23.349 16 23.375C17.1979 23.349 18.2917 23.1276 19.2812 22.7109ZM11 16.5C11 16.3958 11 16.2917 11 16.1875L13.1875 17.9062C13.6302 18.7656 14.3333 19.3125 15.2969 19.5469L17.4844 21.2656C17.0156 21.4219 16.5208 21.5 16 21.5C14.5938 21.474 13.4089 20.9922 12.4453 20.0547C11.5078 19.0911 11.026 17.9062 11 16.5Z" fill="black" fill-opacity="0.72"/>
</g>
</svg>
