<svg width="32" height="32" viewBox="0 0 32 32" fill="none" xmlns="http://www.w3.org/2000/svg">
<g id="standalone / md / rectangle-ad-md / bold">
<path id="icon" d="M7.25 9.625C6.85938 9.65104 6.65104 9.85938 6.625 10.25V22.75C6.65104 23.1406 6.85938 23.349 7.25 23.375H24.75C25.1406 23.349 25.349 23.1406 25.375 22.75V10.25C25.349 9.85938 25.1406 9.65104 24.75 9.625H7.25ZM4.75 10.25C4.77604 9.54688 5.02344 8.96094 5.49219 8.49219C5.96094 8.02344 6.54688 7.77604 7.25 7.75H24.75C25.4531 7.77604 26.0391 8.02344 26.5078 8.49219C26.9766 8.96094 27.224 9.54688 27.25 10.25V22.75C27.224 23.4531 26.9766 24.0391 26.5078 24.5078C26.0391 24.9766 25.4531 25.224 24.75 25.25H7.25C6.54688 25.224 5.96094 24.9766 5.49219 24.5078C5.02344 24.0391 4.77604 23.4531 4.75 22.75V10.25ZM13.7344 13.2578L16.5469 18.8828C16.7292 19.4297 16.5859 19.8594 16.1172 20.1719C15.5703 20.3542 15.1536 20.2109 14.8672 19.7422L14.6328 19.3125H11.1172L10.8828 19.7422C10.5964 20.2109 10.1797 20.3411 9.63281 20.1328C9.13802 19.8464 9.00781 19.4297 9.24219 18.8828L12.0547 13.2578C12.237 12.9193 12.5104 12.75 12.875 12.75C13.2656 12.75 13.5521 12.9193 13.7344 13.2578ZM12.875 15.7969L12.0547 17.4375H13.6953L12.875 15.7969ZM20.0625 16.5C19.4896 16.5521 19.1771 16.8646 19.125 17.4375C19.1771 18.0104 19.4896 18.3229 20.0625 18.375C20.6354 18.3229 20.9479 18.0104 21 17.4375C20.9479 16.8646 20.6354 16.5521 20.0625 16.5ZM21 14.7812V13.6875C21.0521 13.1146 21.3646 12.8021 21.9375 12.75C22.5104 12.8021 22.8229 13.1146 22.875 13.6875V17.4375V19.3125C22.8229 19.8854 22.5104 20.1979 21.9375 20.25C21.6771 20.25 21.4557 20.1589 21.2734 19.9766C20.9089 20.1589 20.5052 20.25 20.0625 20.25C19.2552 20.224 18.5911 19.9505 18.0703 19.4297C17.5495 18.9089 17.276 18.2448 17.25 17.4375C17.276 16.6302 17.5495 15.9661 18.0703 15.4453C18.5911 14.9245 19.2552 14.651 20.0625 14.625C20.401 14.625 20.7135 14.6771 21 14.7812Z" fill="black" fill-opacity="0.72"/>
</g>
</svg>
