<svg width="32" height="32" viewBox="0 0 32 32" fill="none" xmlns="http://www.w3.org/2000/svg">
<g id="standalone / md / exclamation-md / bold">
<path id="icon" d="M16.9375 8.6875V19.9375C16.8854 20.5104 16.5729 20.8229 16 20.875C15.4271 20.8229 15.1146 20.5104 15.0625 19.9375V8.6875C15.1146 8.11458 15.4271 7.80208 16 7.75C16.5729 7.80208 16.8854 8.11458 16.9375 8.6875ZM16 25.25C15.6354 25.25 15.3359 25.1328 15.1016 24.8984C14.8672 24.6641 14.75 24.3646 14.75 24C14.75 23.6354 14.8672 23.3359 15.1016 23.1016C15.3359 22.8672 15.6354 22.75 16 22.75C16.3646 22.75 16.6641 22.8672 16.8984 23.1016C17.1328 23.3359 17.25 23.6354 17.25 24C17.25 24.3646 17.1328 24.6641 16.8984 24.8984C16.6641 25.1328 16.3646 25.25 16 25.25Z" fill="black" fill-opacity="0.72"/>
</g>
</svg>
