<svg width="32" height="32" viewBox="0 0 32 32" fill="none" xmlns="http://www.w3.org/2000/svg">
<g id="standalone / md / chart-trend-up-md / regular">
<path id="icon" d="M27.5234 7.20312C27.8359 7.35938 27.9531 7.75 27.7969 8.0625L24.0469 15.5625C23.9297 15.7578 23.7344 15.875 23.5 15.875H17.6016L12.7969 25.5625C12.6406 25.875 12.25 25.9922 11.9375 25.8359L4.4375 22.0859C4.125 21.9297 4.00781 21.5391 4.16406 21.2266C4.32031 20.9141 4.71094 20.7969 5.02344 20.9531L11.9375 24.4297L16.6641 14.9766C16.7812 14.7812 16.9766 14.625 17.25 14.625H23.1094L26.6641 7.47656C26.8203 7.16406 27.2109 7.04688 27.5234 7.20312Z" fill="black" fill-opacity="0.72"/>
</g>
</svg>
