<svg width="32" height="32" viewBox="0 0 32 32" fill="none" xmlns="http://www.w3.org/2000/svg">
<g id="standalone / md / sort-md / regular">
<path id="icon" d="M11.0781 13.5312C11.026 13.5833 11 13.6484 11 13.7266C11.026 13.8828 11.1172 13.974 11.2734 14H20.7266C20.8828 13.974 20.974 13.8828 21 13.7266C21 13.6484 20.974 13.5833 20.9219 13.5312L16.2344 9.07812C16.1562 9.02604 16.0781 9 16 9C15.9219 9 15.8438 9.02604 15.7656 9.07812L11.0781 13.5312ZM10.2188 12.5938L14.9062 8.17969C15.2188 7.89323 15.5833 7.75 16 7.75C16.4167 7.75 16.7812 7.89323 17.0938 8.17969L21.7812 12.6328C22.0938 12.9193 22.25 13.2839 22.25 13.7266C22.25 14.1693 22.1068 14.5339 21.8203 14.8203C21.5339 15.1068 21.1693 15.25 20.7266 15.25H11.2734C10.8307 15.25 10.4661 15.1068 10.1797 14.8203C9.89323 14.5339 9.75 14.1693 9.75 13.7266C9.75 13.2839 9.90625 12.9062 10.2188 12.5938ZM11.0781 19.4688L15.7656 23.9219C15.8438 23.974 15.9219 24 16 24C16.0781 24 16.1562 23.974 16.2344 23.9219L20.9219 19.4688C20.974 19.4167 21 19.3516 21 19.2734C20.974 19.1172 20.8828 19.026 20.7266 19H11.2734C11.1172 19.026 11.026 19.1172 11 19.2734C11 19.3516 11.026 19.4167 11.0781 19.4688ZM10.2188 20.4062C9.90625 20.0938 9.75 19.7161 9.75 19.2734C9.75 18.8307 9.89323 18.4661 10.1797 18.1797C10.4661 17.8932 10.8307 17.75 11.2734 17.75H20.7266C21.1693 17.75 21.5339 17.8932 21.8203 18.1797C22.1068 18.4661 22.25 18.8307 22.25 19.2734C22.25 19.7161 22.0938 20.0938 21.7812 20.4062L17.0938 24.8203C16.7812 25.1068 16.4167 25.25 16 25.25C15.5833 25.25 15.2188 25.1068 14.9062 24.8203L10.2188 20.4062Z" fill="black" fill-opacity="0.72"/>
</g>
</svg>
