<svg width="32" height="32" viewBox="0 0 32 32" fill="none" xmlns="http://www.w3.org/2000/svg">
<g id="standalone / md / camera-md / bold">
<path id="icon" d="M13.7734 7.75H18.2266C18.6953 7.75 19.125 7.89323 19.5156 8.17969C19.8802 8.4401 20.1406 8.79167 20.2969 9.23438L20.6484 10.25H23.5C24.2031 10.276 24.7891 10.5234 25.2578 10.9922C25.7266 11.4609 25.974 12.0469 26 12.75V22.75C25.974 23.4531 25.7266 24.0391 25.2578 24.5078C24.7891 24.9766 24.2031 25.224 23.5 25.25H8.5C7.79688 25.224 7.21094 24.9766 6.74219 24.5078C6.27344 24.0391 6.02604 23.4531 6 22.75V12.75C6.02604 12.0469 6.27344 11.4609 6.74219 10.9922C7.21094 10.5234 7.79688 10.276 8.5 10.25H11.3516L11.7031 9.23438L12.6016 9.54688L11.7031 9.23438C11.8594 8.79167 12.1198 8.4401 12.4844 8.17969C12.875 7.89323 13.3047 7.75 13.7734 7.75ZM13.5 9.85938L12.9531 11.5C12.7708 11.8906 12.4714 12.099 12.0547 12.125H8.5C8.10938 12.151 7.90104 12.3594 7.875 12.75V22.75C7.90104 23.1406 8.10938 23.349 8.5 23.375H23.5C23.8906 23.349 24.099 23.1406 24.125 22.75V12.75C24.099 12.3594 23.8906 12.151 23.5 12.125H19.9453C19.5286 12.099 19.2422 11.8906 19.0859 11.5L18.5391 9.85938C18.4609 9.70312 18.3568 9.625 18.2266 9.625H13.7734C13.6432 9.625 13.5521 9.70312 13.5 9.85938ZM16 22.125C15.2188 22.125 14.4896 21.9297 13.8125 21.5391C13.1354 21.1484 12.6016 20.6146 12.2109 19.9375C11.8203 19.2604 11.625 18.5312 11.625 17.75C11.625 16.9688 11.8203 16.2396 12.2109 15.5625C12.6016 14.8854 13.1354 14.3516 13.8125 13.9609C14.4896 13.5703 15.2188 13.375 16 13.375C16.7812 13.375 17.5104 13.5703 18.1875 13.9609C18.8646 14.3516 19.3984 14.8854 19.7891 15.5625C20.1797 16.2396 20.375 16.9688 20.375 17.75C20.375 18.5312 20.1797 19.2604 19.7891 19.9375C19.3984 20.6146 18.8646 21.1484 18.1875 21.5391C17.5104 21.9297 16.7812 22.125 16 22.125ZM13.5 17.75C13.526 18.6875 13.9427 19.4036 14.75 19.8984C15.5833 20.3672 16.4167 20.3672 17.25 19.8984C18.0573 19.4036 18.474 18.6875 18.5 17.75C18.474 16.8125 18.0573 16.0964 17.25 15.6016C16.4167 15.1328 15.5833 15.1328 14.75 15.6016C13.9427 16.0964 13.526 16.8125 13.5 17.75Z" fill="black" fill-opacity="0.72"/>
</g>
</svg>
