<svg width="32" height="32" viewBox="0 0 32 32" fill="none" xmlns="http://www.w3.org/2000/svg">
<g id="standalone / md / language-md / bold">
<path id="icon" d="M6 9H14.125H15.375H16H26C26.7031 9.02604 27.2891 9.27344 27.7578 9.74219C28.2266 10.2109 28.474 10.7969 28.5 11.5V21.5C28.474 22.2031 28.2266 22.7891 27.7578 23.2578C27.2891 23.7266 26.7031 23.974 26 24H16H15.375H14.125H6C5.29688 23.974 4.71094 23.7266 4.24219 23.2578C3.77344 22.7891 3.52604 22.2031 3.5 21.5V11.5C3.52604 10.7969 3.77344 10.2109 4.24219 9.74219C4.71094 9.27344 5.29688 9.02604 6 9ZM26 10.875H16V22.125H26C26.3906 22.099 26.599 21.8906 26.625 21.5V11.5C26.599 11.1094 26.3906 10.901 26 10.875ZM10.4531 13.375C10.3229 13.0885 10.0885 12.9323 9.75 12.9062C9.41146 12.9323 9.17708 13.0885 9.04688 13.375L6.54688 19C6.39062 19.4427 6.52083 19.7812 6.9375 20.0156C7.38021 20.1719 7.71875 20.0417 7.95312 19.625L8.30469 18.8438H11.1953L11.5469 19.625C11.7812 20.0417 12.1198 20.1719 12.5625 20.0156C12.9792 19.7812 13.1094 19.4427 12.9531 19L10.4531 13.375ZM10.4922 17.2812H9.00781L9.75 15.6016L10.4922 17.2812ZM21.3125 12.9062C21.7812 12.9583 22.0417 13.2188 22.0938 13.6875V13.8438H23.8125H24.4375C24.9062 13.8958 25.1667 14.1562 25.2188 14.625C25.1667 15.0938 24.9062 15.3542 24.4375 15.4062H24.3594L24.2812 15.6016C23.9427 16.5391 23.4349 17.3854 22.7578 18.1406C22.7578 18.1406 22.7708 18.1536 22.7969 18.1797C22.8229 18.1797 22.8359 18.1927 22.8359 18.2188L23.5781 18.6484C23.9688 18.9349 24.0599 19.2865 23.8516 19.7031C23.5651 20.0938 23.2135 20.1849 22.7969 19.9766L22.0547 19.5469C21.8724 19.4427 21.7031 19.3255 21.5469 19.1953C21.1302 19.5078 20.6875 19.7682 20.2188 19.9766L20.0625 20.0156C19.6198 20.1719 19.2812 20.0417 19.0469 19.625C18.8906 19.1823 19.0208 18.8438 19.4375 18.6094L19.5938 18.5312C19.8281 18.4271 20.0625 18.2969 20.2969 18.1406L19.8281 17.6719C19.5156 17.3073 19.5156 16.9427 19.8281 16.5781C20.1927 16.2656 20.5573 16.2656 20.9219 16.5781L21.5078 17.1641C22.0026 16.6432 22.3932 16.0573 22.6797 15.4062H21.3125H18.5C18.0312 15.3542 17.7708 15.0938 17.7188 14.625C17.7708 14.1562 18.0312 13.8958 18.5 13.8438H20.5312V13.6875C20.5833 13.2188 20.8438 12.9583 21.3125 12.9062Z" fill="black" fill-opacity="0.72"/>
</g>
</svg>
