<svg width="32" height="32" viewBox="0 0 32 32" fill="none" xmlns="http://www.w3.org/2000/svg">
<g id="standalone / md / two-md / bold">
<path id="icon" d="M15.5312 9.625C14.4375 9.65104 13.513 10.0286 12.7578 10.7578L11.3516 12.1641C10.9089 12.5286 10.4661 12.5286 10.0234 12.1641C9.65885 11.7214 9.65885 11.2786 10.0234 10.8359L11.4297 9.46875C12.5495 8.34896 13.9167 7.77604 15.5312 7.75H15.8047C17.3672 7.80208 18.6693 8.33594 19.7109 9.35156C20.7266 10.3932 21.2604 11.6953 21.3125 13.2578C21.2865 14.8464 20.7005 16.1875 19.5547 17.2812L13.0703 23.375H21.3125C21.8854 23.4271 22.1979 23.7396 22.25 24.3125C22.1979 24.8854 21.8854 25.1979 21.3125 25.25H10.6875C10.2708 25.224 9.98438 25.0286 9.82812 24.6641C9.69792 24.2734 9.77604 23.9349 10.0625 23.6484L18.3047 15.9141C19.0339 15.1849 19.4115 14.2995 19.4375 13.2578C19.4115 12.2422 19.0599 11.3828 18.3828 10.6797C17.6797 10.0026 16.8203 9.65104 15.8047 9.625H15.5312Z" fill="black" fill-opacity="0.72"/>
</g>
</svg>
