<svg width="32" height="32" viewBox="0 0 32 32" fill="none" xmlns="http://www.w3.org/2000/svg">
<g id="standalone / md / file-certificate-md / bold">
<path id="icon" d="M23.5 24.625C23.8906 24.599 24.099 24.3906 24.125 24V12.75H21C20.6354 12.75 20.3359 12.6328 20.1016 12.3984C19.8672 12.1641 19.75 11.8646 19.75 11.5V8.375H13.5C13.1094 8.40104 12.901 8.60938 12.875 9V11.6562C12.3542 11.4479 11.8203 11.4479 11.2734 11.6562C11.1953 11.6823 11.1172 11.7083 11.0391 11.7344C11.0391 11.7604 11.026 11.7734 11 11.7734V9C11.026 8.29688 11.2734 7.71094 11.7422 7.24219C12.2109 6.77344 12.7969 6.52604 13.5 6.5H19.9844C20.6615 6.5 21.2474 6.7474 21.7422 7.24219L25.2578 10.7578C25.7526 11.2526 26 11.8516 26 12.5547V24C25.974 24.7031 25.7266 25.2891 25.2578 25.7578C24.7891 26.2266 24.2031 26.474 23.5 26.5H14.6328C14.7109 26.2917 14.75 26.0833 14.75 25.875V24.625H23.5ZM10.2578 12.8281L10.8828 13.0625C10.9609 13.0885 11.0391 13.0885 11.1172 13.0625L11.7422 12.8281C12.1849 12.6719 12.5495 12.763 12.8359 13.1016L13.2656 13.6484C13.3177 13.7005 13.3828 13.7396 13.4609 13.7656L14.125 13.8438C14.5677 13.9219 14.8281 14.1823 14.9062 14.625L15.0234 15.2891C15.0234 15.3672 15.0625 15.4453 15.1406 15.5234L15.6484 15.9141C15.987 16.2266 16.0911 16.5911 15.9609 17.0078L15.6875 17.6328C15.6615 17.7109 15.6615 17.7891 15.6875 17.8672L15.9219 18.4922C16.0781 18.9089 15.987 19.2734 15.6484 19.5859L15.1016 19.9766C15.0495 20.0286 15.0104 20.1068 14.9844 20.2109L14.9062 20.875C14.8281 21.3177 14.5677 21.5781 14.125 21.6562L13.5 21.7344V25.875C13.5 26.1094 13.3958 26.2917 13.1875 26.4219C12.9531 26.526 12.7318 26.513 12.5234 26.3828L11 25.3672L9.47656 26.3828C9.26823 26.513 9.0599 26.526 8.85156 26.4219C8.61719 26.2917 8.5 26.1094 8.5 25.875V21.7344L7.875 21.6562C7.43229 21.5781 7.17188 21.3177 7.09375 20.875L7.01562 20.2109C6.98958 20.1068 6.95052 20.0286 6.89844 19.9766L6.35156 19.5859C6.01302 19.2734 5.92188 18.9089 6.07812 18.4922L6.3125 17.8672C6.33854 17.7891 6.33854 17.7109 6.3125 17.6328L6.07812 17.0078C5.92188 16.5911 6.01302 16.2266 6.35156 15.9141L6.89844 15.5234C6.95052 15.4714 6.98958 15.3932 7.01562 15.2891L7.09375 14.625C7.17188 14.1823 7.44531 13.9219 7.91406 13.8438L8.53906 13.7656C8.64323 13.7396 8.72135 13.7005 8.77344 13.6484L9.16406 13.1016C9.47656 12.763 9.84115 12.6719 10.2578 12.8281ZM8.5 17.75C8.52604 18.6875 8.94271 19.4036 9.75 19.8984C10.5833 20.3672 11.4167 20.3672 12.25 19.8984C13.0573 19.4036 13.474 18.6875 13.5 17.75C13.474 16.8125 13.0573 16.0964 12.25 15.6016C11.4167 15.1328 10.5833 15.1328 9.75 15.6016C8.94271 16.0964 8.52604 16.8125 8.5 17.75Z" fill="black" fill-opacity="0.72"/>
</g>
</svg>
