<svg width="32" height="32" viewBox="0 0 32 32" fill="none" xmlns="http://www.w3.org/2000/svg">
<g id="standalone / md / circle-user-md / regular">
<path id="icon" d="M22.0938 22.7891C22.9271 21.9818 23.5781 21.0443 24.0469 19.9766C24.5156 18.9089 24.75 17.75 24.75 16.5C24.724 14.8594 24.3203 13.388 23.5391 12.0859C22.7839 10.7578 21.7422 9.71615 20.4141 8.96094C19.112 8.17969 17.6406 7.77604 16 7.75C14.3594 7.77604 12.888 8.17969 11.5859 8.96094C10.2578 9.71615 9.21615 10.7578 8.46094 12.0859C7.67969 13.388 7.27604 14.8594 7.25 16.5C7.25 17.75 7.48438 18.9089 7.95312 19.9766C8.42188 21.0443 9.07292 21.9818 9.90625 22.7891C10.1927 21.6693 10.7786 20.7578 11.6641 20.0547C12.5234 19.3776 13.5521 19.026 14.75 19H17.25C18.4479 19.026 19.4766 19.3776 20.3359 20.0547C21.2214 20.7578 21.8073 21.6693 22.0938 22.7891ZM21 23.6875C20.8958 22.6979 20.4922 21.8906 19.7891 21.2656C19.112 20.6146 18.2656 20.276 17.25 20.25H14.75C13.7344 20.276 12.888 20.6146 12.2109 21.2656C11.5078 21.8906 11.1042 22.6979 11 23.6875C12.4583 24.7031 14.125 25.224 16 25.25C17.875 25.224 19.5417 24.7031 21 23.6875ZM16 26.5C14.1771 26.474 12.5104 26.0312 11 25.1719C9.48958 24.2865 8.26562 23.0625 7.32812 21.5C6.44271 19.9115 6 18.2448 6 16.5C6 14.7552 6.44271 13.0885 7.32812 11.5C8.26562 9.9375 9.48958 8.71354 11 7.82812C12.5104 6.96875 14.1771 6.52604 16 6.5C17.8229 6.52604 19.4896 6.96875 21 7.82812C22.5104 8.71354 23.7344 9.9375 24.6719 11.5C25.5573 13.0885 26 14.7552 26 16.5C26 18.2448 25.5573 19.9115 24.6719 21.5C23.7344 23.0625 22.5104 24.2865 21 25.1719C19.4896 26.0312 17.8229 26.474 16 26.5ZM16 16.5C16.7031 16.474 17.25 16.1615 17.6406 15.5625C17.9531 14.9375 17.9531 14.3125 17.6406 13.6875C17.25 13.0885 16.7031 12.776 16 12.75C15.2969 12.776 14.75 13.0885 14.3594 13.6875C14.0469 14.3125 14.0469 14.9375 14.3594 15.5625C14.75 16.1615 15.2969 16.474 16 16.5ZM12.875 14.625C12.901 13.4531 13.4219 12.5547 14.4375 11.9297C15.4792 11.3568 16.5208 11.3568 17.5625 11.9297C18.5781 12.5547 19.099 13.4531 19.125 14.625C19.099 15.7969 18.5781 16.6953 17.5625 17.3203C16.5208 17.8932 15.4792 17.8932 14.4375 17.3203C13.4219 16.6953 12.901 15.7969 12.875 14.625Z" fill="black" fill-opacity="0.72"/>
</g>
</svg>
