<svg width="32" height="32" viewBox="0 0 32 32" fill="none" xmlns="http://www.w3.org/2000/svg">
<g id="standalone / md / gear-md / regular">
<path id="icon" d="M14.7109 7.98438L14.2031 9.82031C14.0469 10.3151 13.7474 10.6667 13.3047 10.875C13.0182 11.0052 12.7448 11.1615 12.4844 11.3438C12.0938 11.6042 11.651 11.6953 11.1562 11.6172L9.24219 11.1484C9.1901 11.1224 9.13802 11.1224 9.08594 11.1484C8.8776 11.4089 8.68229 11.6953 8.5 12.0078L8.34375 12.2812C8.1875 12.5677 8.04427 12.8672 7.91406 13.1797C7.91406 13.2318 7.9401 13.2839 7.99219 13.3359L9.32031 14.7422C9.65885 15.1068 9.8151 15.5365 9.78906 16.0312C9.76302 16.1875 9.75 16.3438 9.75 16.5C9.75 16.6562 9.76302 16.8255 9.78906 17.0078C9.8151 17.4766 9.65885 17.8932 9.32031 18.2578L7.99219 19.6641C7.9401 19.6901 7.90104 19.7422 7.875 19.8203C8.00521 20.1328 8.16146 20.4323 8.34375 20.7188L8.5 20.9922C8.68229 21.3047 8.8776 21.5911 9.08594 21.8516C9.13802 21.8776 9.1901 21.8776 9.24219 21.8516L11.1172 21.3828C11.638 21.3047 12.0807 21.3958 12.4453 21.6562C12.7318 21.8385 13.0182 21.9948 13.3047 22.125C13.7214 22.3333 14.0208 22.6849 14.2031 23.1797L14.7109 25.0156C14.737 25.0677 14.776 25.1198 14.8281 25.1719C15.2188 25.224 15.6094 25.25 16 25.25C16.3906 25.25 16.7812 25.224 17.1719 25.1719C17.224 25.1198 17.263 25.0677 17.2891 25.0156L17.7969 23.1797C17.9531 22.6849 18.2526 22.3333 18.6953 22.125C18.9818 21.9948 19.2682 21.8385 19.5547 21.6562C19.9453 21.3958 20.375 21.3047 20.8438 21.3828L22.7578 21.8516C22.8099 21.8776 22.862 21.8776 22.9141 21.8516C23.1224 21.5911 23.3177 21.3047 23.5 20.9922L23.6562 20.7188C23.8125 20.4323 23.9557 20.1328 24.0859 19.8203C24.0859 19.7422 24.0599 19.6901 24.0078 19.6641L22.6797 18.2578C22.3411 17.8932 22.1979 17.4766 22.25 17.0078C22.25 16.8255 22.25 16.6562 22.25 16.5C22.25 16.3438 22.25 16.1875 22.25 16.0312C22.1979 15.5365 22.3411 15.1068 22.6797 14.7422L24.0078 13.3359C24.0599 13.3099 24.099 13.2578 24.125 13.1797C23.9948 12.8672 23.8385 12.5677 23.6562 12.2812L23.5 12.0078C23.3177 11.6953 23.1224 11.4089 22.9141 11.1484C22.862 11.1224 22.8099 11.1224 22.7578 11.1484L20.8828 11.6172C20.362 11.6953 19.9193 11.6042 19.5547 11.3438C19.2682 11.1615 18.9818 11.0052 18.6953 10.875C18.2786 10.6667 17.9792 10.3281 17.7969 9.85938L17.2891 7.98438C17.263 7.93229 17.224 7.88021 17.1719 7.82812C16.7812 7.77604 16.3906 7.75 16 7.75C15.6094 7.75 15.2188 7.77604 14.8281 7.82812C14.776 7.88021 14.737 7.93229 14.7109 7.98438ZM16 6.5C16.5208 6.5 17.0156 6.53906 17.4844 6.61719C17.5625 6.61719 17.6276 6.64323 17.6797 6.69531C18.0703 6.8776 18.3307 7.1901 18.4609 7.63281L19.0078 9.50781C19.0339 9.58594 19.112 9.66406 19.2422 9.74219C19.5807 9.89844 19.9193 10.0938 20.2578 10.3281C20.362 10.3802 20.4661 10.4062 20.5703 10.4062L22.4453 9.9375C22.888 9.83333 23.2917 9.89844 23.6562 10.1328C23.7083 10.1589 23.7604 10.1979 23.8125 10.25C24.099 10.5885 24.3594 10.9531 24.5938 11.3438L24.75 11.6562C24.9583 12.0469 25.1406 12.4505 25.2969 12.8672C25.3229 12.9193 25.349 12.9844 25.375 13.0625C25.375 13.5052 25.2188 13.8958 24.9062 14.2344L23.5781 15.6016C23.5 15.6797 23.4609 15.7839 23.4609 15.9141C23.487 16.0964 23.5 16.2917 23.5 16.5C23.5 16.7083 23.487 16.9036 23.4609 17.0859C23.4609 17.2161 23.5 17.3203 23.5781 17.3984L24.9062 18.8047C25.2188 19.1172 25.375 19.4948 25.375 19.9375C25.349 20.0156 25.3229 20.0807 25.2969 20.1328C25.1406 20.5495 24.9583 20.9531 24.75 21.3438L24.5938 21.6562H24.5547C24.3464 22.0469 24.099 22.4115 23.8125 22.75C23.7604 22.8021 23.7083 22.8411 23.6562 22.8672C23.2917 23.1016 22.888 23.1797 22.4453 23.1016L20.5703 22.6328C20.4661 22.6068 20.362 22.6198 20.2578 22.6719C19.9193 22.9062 19.5807 23.1016 19.2422 23.2578C19.112 23.3359 19.0339 23.4141 19.0078 23.4922L18.4609 25.3672C18.3307 25.8099 18.0703 26.1354 17.6797 26.3438C17.6276 26.3698 17.5625 26.3828 17.4844 26.3828C17.0156 26.4609 16.5208 26.5 16 26.5C15.4792 26.5 14.9844 26.4609 14.5156 26.3828C14.4375 26.3828 14.3724 26.3698 14.3203 26.3438C13.9297 26.1354 13.6693 25.8099 13.5391 25.3672L12.9922 23.4922C12.9661 23.4141 12.888 23.3359 12.7578 23.2578C12.4193 23.1016 12.0807 22.9062 11.7422 22.6719C11.638 22.6198 11.5339 22.6068 11.4297 22.6328L9.55469 23.1016C9.11198 23.1797 8.70833 23.1146 8.34375 22.9062C8.29167 22.8542 8.23958 22.8021 8.1875 22.75C7.90104 22.4115 7.65365 22.0469 7.44531 21.6562H7.40625L7.25 21.3438C7.04167 20.9531 6.85938 20.5495 6.70312 20.1328C6.67708 20.0807 6.66406 20.0156 6.66406 19.9375C6.63802 19.5208 6.78125 19.1432 7.09375 18.8047L8.42188 17.3984C8.5 17.3203 8.53906 17.2161 8.53906 17.0859C8.51302 16.9036 8.5 16.7083 8.5 16.5C8.5 16.3958 8.5 16.3047 8.5 16.2266C8.5 16.1224 8.51302 16.0182 8.53906 15.9141C8.53906 15.7839 8.5 15.6797 8.42188 15.6016L7.09375 14.2344C6.78125 13.8958 6.625 13.5052 6.625 13.0625C6.65104 12.9844 6.67708 12.9193 6.70312 12.8672C6.85938 12.4505 7.04167 12.0469 7.25 11.6562L7.40625 11.3438H7.44531C7.65365 10.9531 7.90104 10.5885 8.1875 10.25C8.23958 10.1979 8.29167 10.1589 8.34375 10.1328C8.70833 9.89844 9.11198 9.83333 9.55469 9.9375L11.4297 10.4062C11.5339 10.4062 11.638 10.3802 11.7422 10.3281C12.0807 10.0938 12.4193 9.89844 12.7578 9.74219C12.888 9.66406 12.9661 9.58594 12.9922 9.50781L13.5391 7.63281C13.6693 7.1901 13.9297 6.8776 14.3203 6.69531C14.3724 6.64323 14.4375 6.61719 14.5156 6.61719C14.9844 6.53906 15.4792 6.5 16 6.5ZM13.8125 16.5C13.8385 17.3333 14.2031 17.9583 14.9062 18.375C15.6354 18.7917 16.3646 18.7917 17.0938 18.375C17.7969 17.9583 18.1615 17.3333 18.1875 16.5C18.1615 15.6667 17.7969 15.0417 17.0938 14.625C16.3646 14.2083 15.6354 14.2083 14.9062 14.625C14.2031 15.0417 13.8385 15.6667 13.8125 16.5ZM19.4375 16.5C19.3854 17.8021 18.8125 18.7917 17.7188 19.4688C16.5729 20.0938 15.4271 20.0938 14.2812 19.4688C13.1875 18.7917 12.6146 17.8021 12.5625 16.5C12.6146 15.1979 13.1875 14.2083 14.2812 13.5312C15.4271 12.9062 16.5729 12.9062 17.7188 13.5312C18.8125 14.2083 19.3854 15.1979 19.4375 16.5Z" fill="black" fill-opacity="0.72"/>
</g>
</svg>
