<svg width="32" height="32" viewBox="0 0 32 32" fill="none" xmlns="http://www.w3.org/2000/svg">
<g id="standalone / md / camera-md / regular">
<path id="icon" d="M13.4609 7.75H18.5391C19.3984 7.80208 19.9974 8.23177 20.3359 9.03906L20.7266 10.25H23.5C24.2031 10.276 24.7891 10.5234 25.2578 10.9922C25.7266 11.4609 25.974 12.0469 26 12.75V22.75C25.974 23.4531 25.7266 24.0391 25.2578 24.5078C24.7891 24.9766 24.2031 25.224 23.5 25.25H8.5C7.79688 25.224 7.21094 24.9766 6.74219 24.5078C6.27344 24.0391 6.02604 23.4531 6 22.75V12.75C6.02604 12.0469 6.27344 11.4609 6.74219 10.9922C7.21094 10.5234 7.79688 10.276 8.5 10.25H11.2734L11.7031 9.03906C12.0156 8.23177 12.6016 7.80208 13.4609 7.75ZM12.875 9.42969L12.3281 11.0703C12.224 11.3307 12.0286 11.474 11.7422 11.5H8.5C8.13542 11.5 7.83594 11.6172 7.60156 11.8516C7.36719 12.0859 7.25 12.3854 7.25 12.75V22.75C7.25 23.1146 7.36719 23.4141 7.60156 23.6484C7.83594 23.8828 8.13542 24 8.5 24H23.5C23.8646 24 24.1641 23.8828 24.3984 23.6484C24.6328 23.4141 24.75 23.1146 24.75 22.75V12.75C24.75 12.3854 24.6328 12.0859 24.3984 11.8516C24.1641 11.6172 23.8646 11.5 23.5 11.5H20.2578C19.9714 11.474 19.776 11.3307 19.6719 11.0703L19.125 9.42969C19.0208 9.16927 18.8255 9.02604 18.5391 9H13.4609C13.1745 9.02604 12.9792 9.16927 12.875 9.42969ZM16 22.125C15.2188 22.125 14.4896 21.9297 13.8125 21.5391C13.1354 21.1484 12.6016 20.6146 12.2109 19.9375C11.8203 19.2604 11.625 18.5312 11.625 17.75C11.625 16.9688 11.8203 16.2396 12.2109 15.5625C12.6016 14.8854 13.1354 14.3516 13.8125 13.9609C14.4896 13.5703 15.2188 13.375 16 13.375C16.7812 13.375 17.5104 13.5703 18.1875 13.9609C18.8646 14.3516 19.3984 14.8854 19.7891 15.5625C20.1797 16.2396 20.375 16.9688 20.375 17.75C20.375 18.5312 20.1797 19.2604 19.7891 19.9375C19.3984 20.6146 18.8646 21.1484 18.1875 21.5391C17.5104 21.9297 16.7812 22.125 16 22.125ZM12.875 17.75C12.901 18.9219 13.4219 19.8203 14.4375 20.4453C15.4792 21.0182 16.5208 21.0182 17.5625 20.4453C18.5781 19.8203 19.099 18.9219 19.125 17.75C19.099 16.5781 18.5781 15.6797 17.5625 15.0547C16.5208 14.4818 15.4792 14.4818 14.4375 15.0547C13.4219 15.6797 12.901 16.5781 12.875 17.75Z" fill="black" fill-opacity="0.72"/>
</g>
</svg>
