<svg width="32" height="32" viewBox="0 0 32 32" fill="none" xmlns="http://www.w3.org/2000/svg">
<g id="standalone / md / barcode-md / bold">
<path id="icon" d="M6.9375 7.75C7.51042 7.80208 7.82292 8.11458 7.875 8.6875V24.3125C7.82292 24.8854 7.51042 25.1979 6.9375 25.25C6.36458 25.1979 6.05208 24.8854 6 24.3125V8.6875C6.05208 8.11458 6.36458 7.80208 6.9375 7.75ZM10.375 7.75C10.7656 7.77604 10.974 7.98438 11 8.375V24.625C10.974 25.0156 10.7656 25.224 10.375 25.25C9.98438 25.224 9.77604 25.0156 9.75 24.625V8.375C9.77604 7.98438 9.98438 7.77604 10.375 7.75ZM13.1875 7.75C13.7604 7.80208 14.0729 8.11458 14.125 8.6875V24.3125C14.0729 24.8854 13.7604 25.1979 13.1875 25.25C12.6146 25.1979 12.3021 24.8854 12.25 24.3125V8.6875C12.3021 8.11458 12.6146 7.80208 13.1875 7.75ZM17.5625 7.75C18.1354 7.80208 18.4479 8.11458 18.5 8.6875V24.3125C18.4479 24.8854 18.1354 25.1979 17.5625 25.25C16.9896 25.1979 16.6771 24.8854 16.625 24.3125V8.6875C16.6771 8.11458 16.9896 7.80208 17.5625 7.75ZM24.125 8.6875C24.1771 8.11458 24.4896 7.80208 25.0625 7.75C25.6354 7.80208 25.9479 8.11458 26 8.6875V24.3125C25.9479 24.8854 25.6354 25.1979 25.0625 25.25C24.4896 25.1979 24.1771 24.8854 24.125 24.3125V8.6875ZM21.625 8.375C21.651 7.98438 21.8594 7.77604 22.25 7.75C22.6406 7.77604 22.849 7.98438 22.875 8.375V24.625C22.849 25.0156 22.6406 25.224 22.25 25.25C21.8594 25.224 21.651 25.0156 21.625 24.625V8.375Z" fill="black" fill-opacity="0.72"/>
</g>
</svg>
