<svg width="32" height="32" viewBox="0 0 32 32" fill="none" xmlns="http://www.w3.org/2000/svg">
<g id="standalone / md / arrow-up-from-square-md / regular">
<path id="icon" d="M16.4297 6.69531L20.4922 10.7578C20.7526 11.0443 20.7526 11.3307 20.4922 11.6172C20.2057 11.8776 19.9193 11.8776 19.6328 11.6172L16.625 8.64844V19C16.599 19.3906 16.3906 19.599 16 19.625C15.6094 19.599 15.401 19.3906 15.375 19V8.64844L12.3672 11.6172C12.0807 11.8776 11.7943 11.8776 11.5078 11.6172C11.2474 11.3307 11.2474 11.0443 11.5078 10.7578L15.5703 6.69531C15.8568 6.4349 16.1432 6.4349 16.4297 6.69531ZM8.5 7.75H9.75C10.1406 7.77604 10.349 7.98438 10.375 8.375C10.349 8.76562 10.1406 8.97396 9.75 9H8.5C8.13542 9 7.83594 9.11719 7.60156 9.35156C7.36719 9.58594 7.25 9.88542 7.25 10.25V24C7.25 24.3646 7.36719 24.6641 7.60156 24.8984C7.83594 25.1328 8.13542 25.25 8.5 25.25H23.5C23.8646 25.25 24.1641 25.1328 24.3984 24.8984C24.6328 24.6641 24.75 24.3646 24.75 24V10.25C24.75 9.88542 24.6328 9.58594 24.3984 9.35156C24.1641 9.11719 23.8646 9 23.5 9H22.25C21.8594 8.97396 21.651 8.76562 21.625 8.375C21.651 7.98438 21.8594 7.77604 22.25 7.75H23.5C24.2031 7.77604 24.7891 8.02344 25.2578 8.49219C25.7266 8.96094 25.974 9.54688 26 10.25V24C25.974 24.7031 25.7266 25.2891 25.2578 25.7578C24.7891 26.2266 24.2031 26.474 23.5 26.5H8.5C7.79688 26.474 7.21094 26.2266 6.74219 25.7578C6.27344 25.2891 6.02604 24.7031 6 24V10.25C6.02604 9.54688 6.27344 8.96094 6.74219 8.49219C7.21094 8.02344 7.79688 7.77604 8.5 7.75Z" fill="black" fill-opacity="0.72"/>
</g>
</svg>
