<svg width="32" height="32" viewBox="0 0 32 32" fill="none" xmlns="http://www.w3.org/2000/svg">
<g id="standalone / md / chevrons-down-md / regular">
<path id="icon" d="M8.07031 9.42969C7.8099 9.14323 7.8099 8.85677 8.07031 8.57031C8.35677 8.3099 8.64323 8.3099 8.92969 8.57031L16 15.6016L23.0703 8.57031C23.3568 8.3099 23.6432 8.3099 23.9297 8.57031C24.1901 8.85677 24.1901 9.14323 23.9297 9.42969L16.4297 16.9297C16.1432 17.1901 15.8568 17.1901 15.5703 16.9297L8.07031 9.42969ZM8.07031 16.9297C7.8099 16.6432 7.8099 16.3568 8.07031 16.0703C8.35677 15.8099 8.64323 15.8099 8.92969 16.0703L16 23.1016L23.0703 16.0703C23.3568 15.8099 23.6432 15.8099 23.9297 16.0703C24.1901 16.3568 24.1901 16.6432 23.9297 16.9297L16.4297 24.4297C16.1432 24.6901 15.8568 24.6901 15.5703 24.4297L8.07031 16.9297Z" fill="black" fill-opacity="0.72"/>
</g>
</svg>
