<svg width="32" height="32" viewBox="0 0 32 32" fill="none" xmlns="http://www.w3.org/2000/svg">
<g id="standalone / md / circle-euro-md / regular">
<path id="icon" d="M24.75 16.5C24.724 14.9115 24.3333 13.4531 23.5781 12.125C22.7969 10.7969 21.7292 9.72917 20.375 8.92188C18.9948 8.14062 17.5365 7.75 16 7.75C14.4635 7.75 13.0052 8.14062 11.625 8.92188C10.2708 9.72917 9.20312 10.7969 8.42188 12.125C7.66667 13.4531 7.27604 14.9115 7.25 16.5C7.27604 18.0885 7.66667 19.5469 8.42188 20.875C9.20312 22.2031 10.2708 23.2708 11.625 24.0781C13.0052 24.8594 14.4635 25.25 16 25.25C17.5365 25.25 18.9948 24.8594 20.375 24.0781C21.7292 23.2708 22.7969 22.2031 23.5781 20.875C24.3333 19.5469 24.724 18.0885 24.75 16.5ZM6 16.5C6.02604 14.6771 6.46875 13.0104 7.32812 11.5C8.21354 9.98958 9.4375 8.76562 11 7.82812C12.5885 6.94271 14.2552 6.5 16 6.5C17.7448 6.5 19.4115 6.94271 21 7.82812C22.5625 8.76562 23.7865 9.98958 24.6719 11.5C25.5312 13.0104 25.974 14.6771 26 16.5C25.974 18.3229 25.5312 19.9896 24.6719 21.5C23.7865 23.0104 22.5625 24.2344 21 25.1719C19.4115 26.0573 17.7448 26.5 16 26.5C14.2552 26.5 12.5885 26.0573 11 25.1719C9.4375 24.2344 8.21354 23.0104 7.32812 21.5C6.46875 19.9896 6.02604 18.3229 6 16.5ZM11 17.125H11.9375C11.9115 16.9167 11.8984 16.7214 11.8984 16.5391C11.8984 16.3047 11.9115 16.0833 11.9375 15.875H11C10.6094 15.849 10.401 15.6406 10.375 15.25C10.401 14.8594 10.6094 14.651 11 14.625H12.3281C12.6927 13.8698 13.2266 13.2708 13.9297 12.8281C14.6328 12.3594 15.4271 12.125 16.3125 12.125H17.9141C18.3047 12.151 18.513 12.3594 18.5391 12.75C18.513 13.1406 18.3047 13.349 17.9141 13.375H16.3125C15.2448 13.401 14.4115 13.8177 13.8125 14.625H17.25C17.6406 14.651 17.849 14.8594 17.875 15.25C17.849 15.6406 17.6406 15.849 17.25 15.875H13.2266C13.1745 16.0833 13.1484 16.3047 13.1484 16.5391C13.1484 16.7474 13.1745 16.9427 13.2266 17.125H17.25C17.6406 17.151 17.849 17.3594 17.875 17.75C17.849 18.1406 17.6406 18.349 17.25 18.375H13.7344C14.3594 19.2083 15.2188 19.651 16.3125 19.7031H17.9141C18.3047 19.7292 18.513 19.9375 18.5391 20.3281C18.513 20.6927 18.3047 20.901 17.9141 20.9531H16.3125C15.401 20.9271 14.5938 20.6797 13.8906 20.2109C13.1875 19.7422 12.6667 19.1302 12.3281 18.375H11C10.6094 18.349 10.401 18.1406 10.375 17.75C10.401 17.3594 10.6094 17.151 11 17.125Z" fill="black" fill-opacity="0.72"/>
</g>
</svg>
