<svg width="32" height="32" viewBox="0 0 32 32" fill="none" xmlns="http://www.w3.org/2000/svg">
<g id="standalone / md / arrow-right-md / bold">
<path id="icon" d="M24.4766 17.1641L17.6016 23.7266C17.1328 24.0911 16.6901 24.0911 16.2734 23.7266C15.9089 23.2578 15.9089 22.8151 16.2734 22.3984L21.4688 17.4375H8.1875C7.61458 17.3854 7.30208 17.0729 7.25 16.5C7.30208 15.9271 7.61458 15.6146 8.1875 15.5625H21.4688L16.3125 10.6016C15.9219 10.1849 15.9089 9.74219 16.2734 9.27344C16.6901 8.90885 17.1328 8.90885 17.6016 9.27344L24.4766 15.8359C24.6589 16.0182 24.75 16.2396 24.75 16.5C24.75 16.7604 24.6589 16.9818 24.4766 17.1641Z" fill="black" fill-opacity="0.72"/>
</g>
</svg>
