<svg width="32" height="32" viewBox="0 0 32 32" fill="none" xmlns="http://www.w3.org/2000/svg">
<g id="standalone / md / signal-md / bold">
<path id="icon" d="M26 6.5C26.5729 6.55208 26.8854 6.86458 26.9375 7.4375V25.5625C26.8854 26.1354 26.5729 26.4479 26 26.5C25.4271 26.4479 25.1146 26.1354 25.0625 25.5625V7.4375C25.1146 6.86458 25.4271 6.55208 26 6.5ZM21 10.25C21.5729 10.3021 21.8854 10.6146 21.9375 11.1875V25.5625C21.8854 26.1354 21.5729 26.4479 21 26.5C20.4271 26.4479 20.1146 26.1354 20.0625 25.5625V11.1875C20.1146 10.6146 20.4271 10.3021 21 10.25ZM16 14C16.5729 14.0521 16.8854 14.3646 16.9375 14.9375V25.5625C16.8854 26.1354 16.5729 26.4479 16 26.5C15.4271 26.4479 15.1146 26.1354 15.0625 25.5625V14.9375C15.1146 14.3646 15.4271 14.0521 16 14ZM11 17.75C11.5729 17.8021 11.8854 18.1146 11.9375 18.6875V25.5625C11.8854 26.1354 11.5729 26.4479 11 26.5C10.4271 26.4479 10.1146 26.1354 10.0625 25.5625V18.6875C10.1146 18.1146 10.4271 17.8021 11 17.75ZM6 21.5C6.57292 21.5521 6.88542 21.8646 6.9375 22.4375V25.5625C6.88542 26.1354 6.57292 26.4479 6 26.5C5.42708 26.4479 5.11458 26.1354 5.0625 25.5625V22.4375C5.11458 21.8646 5.42708 21.5521 6 21.5Z" fill="black" fill-opacity="0.72"/>
</g>
</svg>
