<svg width="32" height="32" viewBox="0 0 32 32" fill="none" xmlns="http://www.w3.org/2000/svg">
<g id="standalone / md / grid-md / bold">
<path id="icon" d="M10.6875 9.3125H8.8125V11.1875H10.6875V9.3125ZM8.8125 7.75H10.6875C11.1302 7.75 11.4948 7.90625 11.7812 8.21875C12.0938 8.50521 12.25 8.86979 12.25 9.3125V11.1875C12.25 11.6302 12.0938 11.9948 11.7812 12.2812C11.4948 12.5938 11.1302 12.75 10.6875 12.75H8.8125C8.36979 12.75 8.00521 12.5938 7.71875 12.2812C7.40625 11.9948 7.25 11.6302 7.25 11.1875V9.3125C7.25 8.86979 7.40625 8.50521 7.71875 8.21875C8.00521 7.90625 8.36979 7.75 8.8125 7.75ZM10.6875 15.5625H8.8125V17.4375H10.6875V15.5625ZM8.8125 14H10.6875C11.1302 14 11.4948 14.1562 11.7812 14.4688C12.0938 14.7552 12.25 15.1198 12.25 15.5625V17.4375C12.25 17.8802 12.0938 18.2448 11.7812 18.5312C11.4948 18.8438 11.1302 19 10.6875 19H8.8125C8.36979 19 8.00521 18.8438 7.71875 18.5312C7.40625 18.2448 7.25 17.8802 7.25 17.4375V15.5625C7.25 15.1198 7.40625 14.7552 7.71875 14.4688C8.00521 14.1562 8.36979 14 8.8125 14ZM8.8125 21.8125V23.6875H10.6875V21.8125H8.8125ZM7.25 21.8125C7.25 21.3698 7.40625 21.0052 7.71875 20.7188C8.00521 20.4062 8.36979 20.25 8.8125 20.25H10.6875C11.1302 20.25 11.4948 20.4062 11.7812 20.7188C12.0938 21.0052 12.25 21.3698 12.25 21.8125V23.6875C12.25 24.1302 12.0938 24.4948 11.7812 24.7812C11.4948 25.0938 11.1302 25.25 10.6875 25.25H8.8125C8.36979 25.25 8.00521 25.0938 7.71875 24.7812C7.40625 24.4948 7.25 24.1302 7.25 23.6875V21.8125ZM16.9375 9.3125H15.0625V11.1875H16.9375V9.3125ZM15.0625 7.75H16.9375C17.3802 7.75 17.7448 7.90625 18.0312 8.21875C18.3438 8.50521 18.5 8.86979 18.5 9.3125V11.1875C18.5 11.6302 18.3438 11.9948 18.0312 12.2812C17.7448 12.5938 17.3802 12.75 16.9375 12.75H15.0625C14.6198 12.75 14.2552 12.5938 13.9688 12.2812C13.6562 11.9948 13.5 11.6302 13.5 11.1875V9.3125C13.5 8.86979 13.6562 8.50521 13.9688 8.21875C14.2552 7.90625 14.6198 7.75 15.0625 7.75ZM15.0625 15.5625V17.4375H16.9375V15.5625H15.0625ZM13.5 15.5625C13.5 15.1198 13.6562 14.7552 13.9688 14.4688C14.2552 14.1562 14.6198 14 15.0625 14H16.9375C17.3802 14 17.7448 14.1562 18.0312 14.4688C18.3438 14.7552 18.5 15.1198 18.5 15.5625V17.4375C18.5 17.8802 18.3438 18.2448 18.0312 18.5312C17.7448 18.8438 17.3802 19 16.9375 19H15.0625C14.6198 19 14.2552 18.8438 13.9688 18.5312C13.6562 18.2448 13.5 17.8802 13.5 17.4375V15.5625ZM16.9375 21.8125H15.0625V23.6875H16.9375V21.8125ZM15.0625 20.25H16.9375C17.3802 20.25 17.7448 20.4062 18.0312 20.7188C18.3438 21.0052 18.5 21.3698 18.5 21.8125V23.6875C18.5 24.1302 18.3438 24.4948 18.0312 24.7812C17.7448 25.0938 17.3802 25.25 16.9375 25.25H15.0625C14.6198 25.25 14.2552 25.0938 13.9688 24.7812C13.6562 24.4948 13.5 24.1302 13.5 23.6875V21.8125C13.5 21.3698 13.6562 21.0052 13.9688 20.7188C14.2552 20.4062 14.6198 20.25 15.0625 20.25ZM21.3125 9.3125V11.1875H23.1875V9.3125H21.3125ZM19.75 9.3125C19.75 8.86979 19.9062 8.50521 20.2188 8.21875C20.5052 7.90625 20.8698 7.75 21.3125 7.75H23.1875C23.6302 7.75 23.9948 7.90625 24.2812 8.21875C24.5938 8.50521 24.75 8.86979 24.75 9.3125V11.1875C24.75 11.6302 24.5938 11.9948 24.2812 12.2812C23.9948 12.5938 23.6302 12.75 23.1875 12.75H21.3125C20.8698 12.75 20.5052 12.5938 20.2188 12.2812C19.9062 11.9948 19.75 11.6302 19.75 11.1875V9.3125ZM23.1875 15.5625H21.3125V17.4375H23.1875V15.5625ZM21.3125 14H23.1875C23.6302 14 23.9948 14.1562 24.2812 14.4688C24.5938 14.7552 24.75 15.1198 24.75 15.5625V17.4375C24.75 17.8802 24.5938 18.2448 24.2812 18.5312C23.9948 18.8438 23.6302 19 23.1875 19H21.3125C20.8698 19 20.5052 18.8438 20.2188 18.5312C19.9062 18.2448 19.75 17.8802 19.75 17.4375V15.5625C19.75 15.1198 19.9062 14.7552 20.2188 14.4688C20.5052 14.1562 20.8698 14 21.3125 14ZM21.3125 21.8125V23.6875H23.1875V21.8125H21.3125ZM19.75 21.8125C19.75 21.3698 19.9062 21.0052 20.2188 20.7188C20.5052 20.4062 20.8698 20.25 21.3125 20.25H23.1875C23.6302 20.25 23.9948 20.4062 24.2812 20.7188C24.5938 21.0052 24.75 21.3698 24.75 21.8125V23.6875C24.75 24.1302 24.5938 24.4948 24.2812 24.7812C23.9948 25.0938 23.6302 25.25 23.1875 25.25H21.3125C20.8698 25.25 20.5052 25.0938 20.2188 24.7812C19.9062 24.4948 19.75 24.1302 19.75 23.6875V21.8125Z" fill="black" fill-opacity="0.72"/>
</g>
</svg>
