<svg width="32" height="32" viewBox="0 0 32 32" fill="none" xmlns="http://www.w3.org/2000/svg">
<g id="standalone / md / chart-trend-down-md / bold">
<path id="icon" d="M27.6406 26.1094C27.1719 26.3438 26.625 26.1484 26.3906 25.6797L22.9141 18.6875H17.25C16.8594 18.6875 16.5469 18.4922 16.3906 18.1797L11.8203 9.03906L5.14062 12.3594C4.67188 12.5938 4.125 12.3984 3.89062 11.9297C3.65625 11.4609 3.85156 10.9141 4.32031 10.6797L11.8203 6.92969C12.2891 6.69531 12.8359 6.89062 13.0703 7.35938L17.7969 16.8125H23.4609C23.8516 16.8125 24.1641 17.0469 24.3203 17.3594L28.0703 24.8594C28.3047 25.3281 28.1094 25.875 27.6406 26.1094Z" fill="black" fill-opacity="0.72"/>
</g>
</svg>
