<svg width="32" height="32" viewBox="0 0 32 32" fill="none" xmlns="http://www.w3.org/2000/svg">
<g id="standalone / md / placeholder-md / regular">
<path id="icon" d="M10.6875 7.75H11.625C12.0156 7.77604 12.224 7.98438 12.25 8.375C12.224 8.76562 12.0156 8.97396 11.625 9H10.6875C10.0625 9.02604 9.54167 9.23438 9.125 9.625C8.73438 10.0417 8.52604 10.5625 8.5 11.1875V12.125C8.47396 12.5156 8.26562 12.724 7.875 12.75C7.48438 12.724 7.27604 12.5156 7.25 12.125V11.1875C7.27604 10.224 7.61458 9.41667 8.26562 8.76562C8.91667 8.11458 9.72396 7.77604 10.6875 7.75ZM7.875 14C8.26562 14.026 8.47396 14.2344 8.5 14.625V18.375C8.47396 18.7656 8.26562 18.974 7.875 19C7.48438 18.974 7.27604 18.7656 7.25 18.375V14.625C7.27604 14.2344 7.48438 14.026 7.875 14ZM24.125 14C24.5156 14.026 24.724 14.2344 24.75 14.625V18.375C24.724 18.7656 24.5156 18.974 24.125 19C23.7344 18.974 23.526 18.7656 23.5 18.375V14.625C23.526 14.2344 23.7344 14.026 24.125 14ZM24.125 12.75C23.7344 12.724 23.526 12.5156 23.5 12.125V11.1875C23.474 10.5625 23.2656 10.0417 22.875 9.625C22.4583 9.23438 21.9375 9.02604 21.3125 9H20.375C19.9844 8.97396 19.776 8.76562 19.75 8.375C19.776 7.98438 19.9844 7.77604 20.375 7.75H21.3125C22.276 7.77604 23.0833 8.11458 23.7344 8.76562C24.3854 9.41667 24.724 10.224 24.75 11.1875V12.125C24.724 12.5156 24.5156 12.724 24.125 12.75ZM24.75 20.875V21.8125C24.724 22.776 24.3854 23.5833 23.7344 24.2344C23.0833 24.8854 22.276 25.224 21.3125 25.25H20.375C19.9844 25.224 19.776 25.0156 19.75 24.625C19.776 24.2344 19.9844 24.026 20.375 24H21.3125C21.9375 23.974 22.4583 23.7656 22.875 23.375C23.2656 22.9583 23.474 22.4375 23.5 21.8125V20.875C23.526 20.4844 23.7344 20.276 24.125 20.25C24.5156 20.276 24.724 20.4844 24.75 20.875ZM8.5 20.875V21.8125C8.52604 22.4375 8.73438 22.9583 9.125 23.375C9.54167 23.7656 10.0625 23.974 10.6875 24H11.625C12.0156 24.026 12.224 24.2344 12.25 24.625C12.224 25.0156 12.0156 25.224 11.625 25.25H10.6875C9.72396 25.224 8.91667 24.8854 8.26562 24.2344C7.61458 23.5833 7.27604 22.776 7.25 21.8125V20.875C7.27604 20.4844 7.48438 20.276 7.875 20.25C8.26562 20.276 8.47396 20.4844 8.5 20.875ZM14.125 25.25C13.7344 25.224 13.526 25.0156 13.5 24.625C13.526 24.2344 13.7344 24.026 14.125 24H17.875C18.2656 24.026 18.474 24.2344 18.5 24.625C18.474 25.0156 18.2656 25.224 17.875 25.25H14.125ZM13.5 8.375C13.526 7.98438 13.7344 7.77604 14.125 7.75H17.875C18.2656 7.77604 18.474 7.98438 18.5 8.375C18.474 8.76562 18.2656 8.97396 17.875 9H14.125C13.7344 8.97396 13.526 8.76562 13.5 8.375Z" fill="black" fill-opacity="0.72"/>
</g>
</svg>
