<svg width="32" height="32" viewBox="0 0 32 32" fill="none" xmlns="http://www.w3.org/2000/svg">
<g id="standalone / md / rectangle-barcode-md / bold">
<path id="icon" d="M7.25 9.625C6.85938 9.65104 6.65104 9.85938 6.625 10.25V22.75C6.65104 23.1406 6.85938 23.349 7.25 23.375H24.75C25.1406 23.349 25.349 23.1406 25.375 22.75V10.25C25.349 9.85938 25.1406 9.65104 24.75 9.625H7.25ZM4.75 10.25C4.77604 9.54688 5.02344 8.96094 5.49219 8.49219C5.96094 8.02344 6.54688 7.77604 7.25 7.75H24.75C25.4531 7.77604 26.0391 8.02344 26.5078 8.49219C26.9766 8.96094 27.224 9.54688 27.25 10.25V22.75C27.224 23.4531 26.9766 24.0391 26.5078 24.5078C26.0391 24.9766 25.4531 25.224 24.75 25.25H7.25C6.54688 25.224 5.96094 24.9766 5.49219 24.5078C5.02344 24.0391 4.77604 23.4531 4.75 22.75V10.25ZM9.4375 11.5C10.0104 11.5521 10.3229 11.8646 10.375 12.4375V20.5625C10.3229 21.1354 10.0104 21.4479 9.4375 21.5C8.86458 21.4479 8.55208 21.1354 8.5 20.5625V12.4375C8.55208 11.8646 8.86458 11.5521 9.4375 11.5ZM12.25 11.5C12.6406 11.526 12.849 11.7344 12.875 12.125V20.875C12.849 21.2656 12.6406 21.474 12.25 21.5C11.8594 21.474 11.651 21.2656 11.625 20.875V12.125C11.651 11.7344 11.8594 11.526 12.25 11.5ZM14.125 12.4375C14.1771 11.8646 14.4896 11.5521 15.0625 11.5C15.6354 11.5521 15.9479 11.8646 16 12.4375V20.5625C15.9479 21.1354 15.6354 21.4479 15.0625 21.5C14.4896 21.4479 14.1771 21.1354 14.125 20.5625V12.4375ZM19.4375 11.5C20.0104 11.5521 20.3229 11.8646 20.375 12.4375V20.5625C20.3229 21.1354 20.0104 21.4479 19.4375 21.5C18.8646 21.4479 18.5521 21.1354 18.5 20.5625V12.4375C18.5521 11.8646 18.8646 11.5521 19.4375 11.5ZM22.25 12.125C22.276 11.7344 22.4844 11.526 22.875 11.5C23.2656 11.526 23.474 11.7344 23.5 12.125V20.875C23.474 21.2656 23.2656 21.474 22.875 21.5C22.4844 21.474 22.276 21.2656 22.25 20.875V12.125Z" fill="black" fill-opacity="0.72"/>
</g>
</svg>
