<svg width="32" height="32" viewBox="0 0 32 32" fill="none" xmlns="http://www.w3.org/2000/svg">
<g id="standalone / md / chevrons-up-md / bold">
<path id="icon" d="M16.6641 8.33594L24.1641 15.8359C24.5286 16.2786 24.5286 16.7214 24.1641 17.1641C23.7214 17.5286 23.2786 17.5286 22.8359 17.1641L16 10.3281L9.16406 17.1641C8.72135 17.5286 8.27865 17.5286 7.83594 17.1641C7.47135 16.7214 7.47135 16.2786 7.83594 15.8359L15.3359 8.33594C15.7786 7.97135 16.2214 7.97135 16.6641 8.33594ZM24.1641 23.3359C24.5286 23.7786 24.5286 24.2214 24.1641 24.6641C23.7214 25.0286 23.2786 25.0286 22.8359 24.6641L16 17.8281L9.16406 24.6641C8.72135 25.0286 8.27865 25.0286 7.83594 24.6641C7.47135 24.2214 7.47135 23.7786 7.83594 23.3359L15.3359 15.8359C15.7786 15.4714 16.2214 15.4714 16.6641 15.8359L24.1641 23.3359Z" fill="black" fill-opacity="0.72"/>
</g>
</svg>
