<svg width="32" height="32" viewBox="0 0 32 32" fill="none" xmlns="http://www.w3.org/2000/svg">
<g id="standalone / md / chart-line-md / bold">
<path id="icon" d="M7.875 8.6875V22.4375C7.92708 23.0104 8.23958 23.3229 8.8125 23.375H25.0625C25.6354 23.4271 25.9479 23.7396 26 24.3125C25.9479 24.8854 25.6354 25.1979 25.0625 25.25H8.8125C8.00521 25.224 7.34115 24.9505 6.82031 24.4297C6.29948 23.9089 6.02604 23.2448 6 22.4375V8.6875C6.05208 8.11458 6.36458 7.80208 6.9375 7.75C7.51042 7.80208 7.82292 8.11458 7.875 8.6875ZM24.4766 13.1016L19.1641 18.4141C18.7214 18.7786 18.2786 18.7786 17.8359 18.4141L14.75 15.3281L11.6641 18.4141C11.2214 18.7786 10.7786 18.7786 10.3359 18.4141C9.97135 17.9714 9.97135 17.5286 10.3359 17.0859L14.0859 13.3359C14.2682 13.1536 14.4896 13.0625 14.75 13.0625C15.0104 13.0625 15.2318 13.1536 15.4141 13.3359L18.5 16.4219L23.1484 11.7734C23.5911 11.4089 24.0339 11.4089 24.4766 11.7734C24.8411 12.2161 24.8411 12.6589 24.4766 13.1016Z" fill="black" fill-opacity="0.72"/>
</g>
</svg>
