<svg width="32" height="32" viewBox="0 0 32 32" fill="none" xmlns="http://www.w3.org/2000/svg">
<g id="standalone / md / arrows-rotate-md / regular">
<path id="icon" d="M8.69531 14.7422H8.73438C8.63021 15.0547 8.40885 15.224 8.07031 15.25C7.6276 15.1979 7.43229 14.9635 7.48438 14.5469C7.95312 12.5677 8.96875 10.9531 10.5312 9.70312C12.0677 8.45312 13.8906 7.80208 16 7.75C17.6146 7.77604 19.0729 8.16667 20.375 8.92188C21.6771 9.67708 22.7188 10.7057 23.5 12.0078V9.625C23.526 9.23438 23.7344 9.02604 24.125 9C24.5156 9.02604 24.724 9.23438 24.75 9.625V13.375C24.724 13.7656 24.5156 13.974 24.125 14H23.5391H20.375C19.9844 13.974 19.776 13.7656 19.75 13.375C19.776 12.9844 19.9844 12.776 20.375 12.75H22.4844C21.8333 11.6042 20.9349 10.6927 19.7891 10.0156C18.6693 9.36458 17.4062 9.02604 16 9C14.2031 9.02604 12.6406 9.57292 11.3125 10.6406C10.0104 11.6823 9.13802 13.0495 8.69531 14.7422ZM23.3047 18.2969V18.2578C23.3828 17.9453 23.5911 17.776 23.9297 17.75C24.3724 17.8021 24.5677 18.0365 24.5156 18.4531C24.0469 20.4323 23.0443 22.0469 21.5078 23.2969C19.9453 24.5469 18.1094 25.1979 16 25.25C14.3854 25.224 12.9271 24.8333 11.625 24.0781C10.3229 23.3229 9.28125 22.3073 8.5 21.0312V23.375C8.47396 23.7656 8.26562 23.974 7.875 24C7.51042 23.974 7.30208 23.7656 7.25 23.375V19.625C7.30208 19.2344 7.51042 19.026 7.875 19H8.46094H11.625C12.0156 19.026 12.224 19.2344 12.25 19.625C12.224 20.0156 12.0156 20.224 11.625 20.25H9.51562C10.1667 21.3958 11.0651 22.3073 12.2109 22.9844C13.3307 23.6354 14.5938 23.974 16 24C17.7969 23.974 19.3594 23.4271 20.6875 22.3594C21.9896 21.3177 22.862 19.9635 23.3047 18.2969Z" fill="black" fill-opacity="0.72"/>
</g>
</svg>
