<svg width="32" height="32" viewBox="0 0 32 32" fill="none" xmlns="http://www.w3.org/2000/svg">
<g id="standalone / md / arrow-up-right-from-square-md / bold">
<path id="icon" d="M17.875 7.4375C17.9271 6.86458 18.2396 6.55208 18.8125 6.5H25.0625C25.6354 6.55208 25.9479 6.86458 26 7.4375V13.6875C25.9479 14.2604 25.6354 14.5729 25.0625 14.625C24.4896 14.5729 24.1771 14.2604 24.125 13.6875V9.70312L15.4141 18.4141C14.9714 18.7786 14.5286 18.7786 14.0859 18.4141C13.7214 17.9714 13.7214 17.5286 14.0859 17.0859L22.7969 8.375H18.8125C18.2396 8.32292 17.9271 8.01042 17.875 7.4375ZM8.8125 7.75H13.8125C14.3854 7.80208 14.6979 8.11458 14.75 8.6875C14.6979 9.26042 14.3854 9.57292 13.8125 9.625H8.8125C8.23958 9.67708 7.92708 9.98958 7.875 10.5625V23.6875C7.92708 24.2604 8.23958 24.5729 8.8125 24.625H21.9375C22.5104 24.5729 22.8229 24.2604 22.875 23.6875V18.6875C22.9271 18.1146 23.2396 17.8021 23.8125 17.75C24.3854 17.8021 24.6979 18.1146 24.75 18.6875V23.6875C24.724 24.4948 24.4505 25.1589 23.9297 25.6797C23.4089 26.2005 22.7448 26.474 21.9375 26.5H8.8125C8.00521 26.474 7.34115 26.2005 6.82031 25.6797C6.29948 25.1589 6.02604 24.4948 6 23.6875V10.5625C6.02604 9.75521 6.29948 9.09115 6.82031 8.57031C7.34115 8.04948 8.00521 7.77604 8.8125 7.75Z" fill="black" fill-opacity="0.72"/>
</g>
</svg>
