<svg width="32" height="32" viewBox="0 0 32 32" fill="none" xmlns="http://www.w3.org/2000/svg">
<g id="standalone / md / calendar-range-md / regular">
<path id="icon" d="M11.625 6.5C12.0156 6.52604 12.224 6.73438 12.25 7.125V9H19.75V7.125C19.776 6.73438 19.9844 6.52604 20.375 6.5C20.7656 6.52604 20.974 6.73438 21 7.125V9H22.25C22.9531 9.02604 23.5391 9.27344 24.0078 9.74219C24.4766 10.2109 24.724 10.7969 24.75 11.5V12.75V14V24C24.724 24.7031 24.4766 25.2891 24.0078 25.7578C23.5391 26.2266 22.9531 26.474 22.25 26.5H9.75C9.04688 26.474 8.46094 26.2266 7.99219 25.7578C7.52344 25.2891 7.27604 24.7031 7.25 24V14V12.75V11.5C7.27604 10.7969 7.52344 10.2109 7.99219 9.74219C8.46094 9.27344 9.04688 9.02604 9.75 9H11V7.125C11.026 6.73438 11.2344 6.52604 11.625 6.5ZM23.5 14H8.5V24C8.5 24.3646 8.61719 24.6641 8.85156 24.8984C9.08594 25.1328 9.38542 25.25 9.75 25.25H22.25C22.6146 25.25 22.9141 25.1328 23.1484 24.8984C23.3828 24.6641 23.5 24.3646 23.5 24V14ZM22.25 10.25H9.75C9.38542 10.25 9.08594 10.3672 8.85156 10.6016C8.61719 10.8359 8.5 11.1354 8.5 11.5V12.75H23.5V11.5C23.5 11.1354 23.3828 10.8359 23.1484 10.6016C22.9141 10.3672 22.6146 10.25 22.25 10.25ZM22.25 17.125C22.224 17.5156 22.0156 17.724 21.625 17.75H15.375C14.9844 17.724 14.776 17.5156 14.75 17.125C14.776 16.7344 14.9844 16.526 15.375 16.5H21.625C22.0156 16.526 22.224 16.7344 22.25 17.125ZM16.625 22.75H10.375C9.98438 22.724 9.77604 22.5156 9.75 22.125C9.77604 21.7344 9.98438 21.526 10.375 21.5H16.625C17.0156 21.526 17.224 21.7344 17.25 22.125C17.224 22.5156 17.0156 22.724 16.625 22.75ZM11 17.125C11.026 17.5156 11.2344 17.724 11.625 17.75C12.0156 17.724 12.224 17.5156 12.25 17.125C12.224 16.7344 12.0156 16.526 11.625 16.5C11.2344 16.526 11.026 16.7344 11 17.125ZM11.625 19C10.9219 18.974 10.375 18.6615 9.98438 18.0625C9.67188 17.4375 9.67188 16.8125 9.98438 16.1875C10.375 15.5885 10.9219 15.276 11.625 15.25C12.3281 15.276 12.875 15.5885 13.2656 16.1875C13.5781 16.8125 13.5781 17.4375 13.2656 18.0625C12.875 18.6615 12.3281 18.974 11.625 19ZM20.375 22.75C20.7656 22.724 20.974 22.5156 21 22.125C20.974 21.7344 20.7656 21.526 20.375 21.5C19.9844 21.526 19.776 21.7344 19.75 22.125C19.776 22.5156 19.9844 22.724 20.375 22.75ZM22.25 22.125C22.224 22.8281 21.9115 23.375 21.3125 23.7656C20.6875 24.0781 20.0625 24.0781 19.4375 23.7656C18.8385 23.375 18.526 22.8281 18.5 22.125C18.526 21.4219 18.8385 20.875 19.4375 20.4844C20.0625 20.1719 20.6875 20.1719 21.3125 20.4844C21.9115 20.875 22.224 21.4219 22.25 22.125Z" fill="black" fill-opacity="0.72"/>
</g>
</svg>
