<svg width="32" height="32" viewBox="0 0 32 32" fill="none" xmlns="http://www.w3.org/2000/svg">
<g id="standalone / md / gauge-min-md / regular">
<path id="icon" d="M16 7.75C14.4115 7.77604 12.9531 8.16667 11.625 8.92188C10.2969 9.70312 9.22917 10.7708 8.42188 12.125C7.64062 13.5052 7.25 14.9635 7.25 16.5C7.25 18.0365 7.64062 19.4948 8.42188 20.875C9.22917 22.2292 10.2969 23.2969 11.625 24.0781C12.9531 24.8333 14.4115 25.224 16 25.25C17.5885 25.224 19.0469 24.8333 20.375 24.0781C21.7031 23.2969 22.7708 22.2292 23.5781 20.875C24.3594 19.4948 24.75 18.0365 24.75 16.5C24.75 14.9635 24.3594 13.5052 23.5781 12.125C22.7708 10.7708 21.7031 9.70312 20.375 8.92188C19.0469 8.16667 17.5885 7.77604 16 7.75ZM16 26.5C14.1771 26.474 12.5104 26.0312 11 25.1719C9.48958 24.2865 8.26562 23.0625 7.32812 21.5C6.44271 19.9115 6 18.2448 6 16.5C6 14.7552 6.44271 13.0885 7.32812 11.5C8.26562 9.9375 9.48958 8.71354 11 7.82812C12.5104 6.96875 14.1771 6.52604 16 6.5C17.8229 6.52604 19.4896 6.96875 21 7.82812C22.5104 8.71354 23.7344 9.9375 24.6719 11.5C25.5573 13.0885 26 14.7552 26 16.5C26 18.2448 25.5573 19.9115 24.6719 21.5C23.7344 23.0625 22.5104 24.2865 21 25.1719C19.4896 26.0312 17.8229 26.474 16 26.5ZM16.9375 10.25C16.8854 10.8229 16.5729 11.1354 16 11.1875C15.4271 11.1354 15.1146 10.8229 15.0625 10.25C15.1146 9.67708 15.4271 9.36458 16 9.3125C16.5729 9.36458 16.8854 9.67708 16.9375 10.25ZM14.75 20.25C14.75 20.6146 14.8672 20.9141 15.1016 21.1484C15.3359 21.3828 15.6354 21.5 16 21.5C16.3646 21.5 16.6641 21.3828 16.8984 21.1484C17.1328 20.9141 17.25 20.6146 17.25 20.25C17.25 19.8854 17.1328 19.5859 16.8984 19.3516C16.6641 19.1172 16.3646 19 16 19C15.6354 19 15.3359 19.1172 15.1016 19.3516C14.8672 19.5859 14.75 19.8854 14.75 20.25ZM18.5 20.25C18.474 20.9531 18.2266 21.5391 17.7578 22.0078C17.2891 22.4766 16.7031 22.724 16 22.75C15.2969 22.724 14.7109 22.4766 14.2422 22.0078C13.7734 21.5391 13.526 20.9531 13.5 20.25C13.5 20.0156 13.5391 19.7812 13.6172 19.5469L9.4375 17.0469C9.125 16.8125 9.04688 16.526 9.20312 16.1875C9.4375 15.875 9.72396 15.7969 10.0625 15.9531L14.2422 18.4531C14.7109 18.0104 15.2969 17.776 16 17.75C16.7031 17.776 17.2891 18.0234 17.7578 18.4922C18.2266 18.9609 18.474 19.5469 18.5 20.25ZM12.5625 12.125C12.5104 12.6979 12.1979 13.0104 11.625 13.0625C11.0521 13.0104 10.7396 12.6979 10.6875 12.125C10.7396 11.5521 11.0521 11.2396 11.625 11.1875C12.1979 11.2396 12.5104 11.5521 12.5625 12.125ZM22.25 17.4375C21.6771 17.3854 21.3646 17.0729 21.3125 16.5C21.3646 15.9271 21.6771 15.6146 22.25 15.5625C22.8229 15.6146 23.1354 15.9271 23.1875 16.5C23.1354 17.0729 22.8229 17.3854 22.25 17.4375ZM21.3125 12.125C21.2604 12.6979 20.9479 13.0104 20.375 13.0625C19.8021 13.0104 19.4896 12.6979 19.4375 12.125C19.4896 11.5521 19.8021 11.2396 20.375 11.1875C20.9479 11.2396 21.2604 11.5521 21.3125 12.125Z" fill="black" fill-opacity="0.72"/>
</g>
</svg>
