<svg width="32" height="32" viewBox="0 0 32 32" fill="none" xmlns="http://www.w3.org/2000/svg">
<g id="standalone / md / copy-md / bold">
<path id="icon" d="M22.25 19.625C22.6406 19.599 22.849 19.3906 22.875 19V11.0312L20.2188 8.375H14.75C14.3594 8.40104 14.151 8.60938 14.125 9V19C14.151 19.3906 14.3594 19.599 14.75 19.625H22.25ZM14.75 21.5C14.0469 21.474 13.4609 21.2266 12.9922 20.7578C12.5234 20.2891 12.276 19.7031 12.25 19V9C12.276 8.29688 12.5234 7.71094 12.9922 7.24219C13.4609 6.77344 14.0469 6.52604 14.75 6.5H20.2188C20.7396 6.5 21.1823 6.68229 21.5469 7.04688L24.2031 9.70312C24.5677 10.0677 24.75 10.5104 24.75 11.0312V19C24.724 19.7031 24.4766 20.2891 24.0078 20.7578C23.5391 21.2266 22.9531 21.474 22.25 21.5H14.75ZM9.75 11.5H11V13.375H9.75C9.35938 13.401 9.15104 13.6094 9.125 14V24C9.15104 24.3906 9.35938 24.599 9.75 24.625H17.25C17.6406 24.599 17.849 24.3906 17.875 24V22.75H19.75V24C19.724 24.7031 19.4766 25.2891 19.0078 25.7578C18.5391 26.2266 17.9531 26.474 17.25 26.5H9.75C9.04688 26.474 8.46094 26.2266 7.99219 25.7578C7.52344 25.2891 7.27604 24.7031 7.25 24V14C7.27604 13.2969 7.52344 12.7109 7.99219 12.2422C8.46094 11.7734 9.04688 11.526 9.75 11.5Z" fill="black" fill-opacity="0.72"/>
</g>
</svg>
