<svg width="32" height="32" viewBox="0 0 32 32" fill="none" xmlns="http://www.w3.org/2000/svg">
<g id="standalone / md / file-chart-column-md / bold">
<path id="icon" d="M10.375 24C10.401 24.3906 10.6094 24.599 11 24.625H21C21.3906 24.599 21.599 24.3906 21.625 24V12.75H18.5C18.1354 12.75 17.8359 12.6328 17.6016 12.3984C17.3672 12.1641 17.25 11.8646 17.25 11.5V8.375H11C10.6094 8.40104 10.401 8.60938 10.375 9V24ZM11 6.5H17.4844C18.1615 6.5 18.7474 6.7474 19.2422 7.24219L22.7578 10.7578C23.2526 11.2526 23.5 11.8516 23.5 12.5547V24C23.474 24.7031 23.2266 25.2891 22.7578 25.7578C22.2891 26.2266 21.7031 26.474 21 26.5H11C10.2969 26.474 9.71094 26.2266 9.24219 25.7578C8.77344 25.2891 8.52604 24.7031 8.5 24V9C8.52604 8.29688 8.77344 7.71094 9.24219 7.24219C9.71094 6.77344 10.2969 6.52604 11 6.5ZM16.9375 17.4375V22.4375C16.8854 23.0104 16.5729 23.3229 16 23.375C15.4271 23.3229 15.1146 23.0104 15.0625 22.4375V17.4375C15.1146 16.8646 15.4271 16.5521 16 16.5C16.5729 16.5521 16.8854 16.8646 16.9375 17.4375ZM20.375 18.6875V22.4375C20.3229 23.0104 20.0104 23.3229 19.4375 23.375C18.8646 23.3229 18.5521 23.0104 18.5 22.4375V18.6875C18.5521 18.1146 18.8646 17.8021 19.4375 17.75C20.0104 17.8021 20.3229 18.1146 20.375 18.6875ZM13.5 19.9375V22.4375C13.4479 23.0104 13.1354 23.3229 12.5625 23.375C11.9896 23.3229 11.6771 23.0104 11.625 22.4375V19.9375C11.6771 19.3646 11.9896 19.0521 12.5625 19C13.1354 19.0521 13.4479 19.3646 13.5 19.9375Z" fill="black" fill-opacity="0.72"/>
</g>
</svg>
