<svg width="32" height="32" viewBox="0 0 32 32" fill="none" xmlns="http://www.w3.org/2000/svg">
<g id="standalone / md / sterling-sign-md / regular">
<path id="icon" d="M12.875 12.4375V16.5H19.125C19.5156 16.526 19.724 16.7344 19.75 17.125C19.724 17.5156 19.5156 17.724 19.125 17.75H12.875C12.8229 19.9375 12.3281 22.0208 11.3906 24H21.625C22.0156 24.026 22.224 24.2344 22.25 24.625C22.224 25.0156 22.0156 25.224 21.625 25.25H10.375C10.1406 25.25 9.95833 25.1458 9.82812 24.9375C9.72396 24.7292 9.72396 24.5208 9.82812 24.3125L9.86719 24.2344C10.9609 22.2031 11.5469 20.0417 11.625 17.75H10.375C9.98438 17.724 9.77604 17.5156 9.75 17.125C9.77604 16.7344 9.98438 16.526 10.375 16.5H11.625V12.4375C11.651 11.1094 12.1068 10.0026 12.9922 9.11719C13.8776 8.23177 14.9844 7.77604 16.3125 7.75H16.5859C17.1068 7.75 17.6016 7.82812 18.0703 7.98438L21.1953 9.03906C21.5339 9.19531 21.6641 9.45573 21.5859 9.82031C21.4297 10.1849 21.1693 10.3151 20.8047 10.2109L17.6797 9.19531C17.3151 9.0651 16.9505 9 16.5859 9H16.3125C15.349 9.02604 14.5417 9.36458 13.8906 10.0156C13.2396 10.6667 12.901 11.474 12.875 12.4375Z" fill="black" fill-opacity="0.72"/>
</g>
</svg>
