<svg width="32" height="32" viewBox="0 0 32 32" fill="none" xmlns="http://www.w3.org/2000/svg">
<g id="standalone / md / chart-area-md / regular">
<path id="icon" d="M7.25 8.375V22.125C7.27604 22.6458 7.45833 23.0885 7.79688 23.4531C8.16146 23.7917 8.60417 23.974 9.125 24H25.375C25.7656 24.026 25.974 24.2344 26 24.625C25.974 25.0156 25.7656 25.224 25.375 25.25H9.125C8.23958 25.224 7.4974 24.9245 6.89844 24.3516C6.32552 23.7526 6.02604 23.0104 6 22.125V8.375C6.02604 7.98438 6.23438 7.77604 6.625 7.75C7.01562 7.77604 7.22396 7.98438 7.25 8.375ZM17.6016 14.8984L14.75 12.0078L11.1953 15.6016C11.0651 15.7057 11 15.849 11 16.0312V20.25H23.5V16.5781C23.5 16.4219 23.4479 16.2786 23.3438 16.1484L20.9219 13.3359L19.3984 14.8984C19.138 15.1328 18.8385 15.25 18.5 15.25C18.1615 15.25 17.862 15.1328 17.6016 14.8984ZM17.6016 13.1016L18.5 14L19.3984 13.1016L20.0625 12.4375C20.3229 12.2031 20.6224 12.0859 20.9609 12.0859C21.3255 12.112 21.625 12.2552 21.8594 12.5156L24.2812 15.3672C24.5938 15.7057 24.75 16.1094 24.75 16.5781V20.25C24.75 20.6146 24.6328 20.9141 24.3984 21.1484C24.1641 21.3828 23.8646 21.5 23.5 21.5H11C10.6354 21.5 10.3359 21.3828 10.1016 21.1484C9.86719 20.9141 9.75 20.6146 9.75 20.25V16.0312C9.75 15.5104 9.93229 15.0677 10.2969 14.7031L13.8516 11.1484C14.112 10.888 14.4115 10.7578 14.75 10.7578C15.0885 10.7578 15.388 10.888 15.6484 11.1484L17.6016 13.1016Z" fill="black" fill-opacity="0.72"/>
</g>
</svg>
