<svg width="32" height="32" viewBox="0 0 32 32" fill="none" xmlns="http://www.w3.org/2000/svg">
<g id="standalone / md / wallet-md / regular">
<path id="icon" d="M9.125 7.75H24.125C24.5156 7.77604 24.724 7.98438 24.75 8.375C24.724 8.76562 24.5156 8.97396 24.125 9H9.125C8.60417 9.02604 8.16146 9.20833 7.79688 9.54688C7.45833 9.91146 7.27604 10.3542 7.25 10.875V22.125C7.27604 22.6458 7.45833 23.0885 7.79688 23.4531C8.16146 23.7917 8.60417 23.974 9.125 24H22.875C23.3958 23.974 23.8385 23.7917 24.2031 23.4531C24.5417 23.0885 24.724 22.6458 24.75 22.125V13.375C24.724 12.8542 24.5417 12.4115 24.2031 12.0469C23.8385 11.7083 23.3958 11.526 22.875 11.5H10.375C9.98438 11.474 9.77604 11.2656 9.75 10.875C9.77604 10.4844 9.98438 10.276 10.375 10.25H22.875C23.7604 10.276 24.5026 10.5755 25.1016 11.1484C25.6745 11.7474 25.974 12.4896 26 13.375V22.125C25.974 23.0104 25.6745 23.7526 25.1016 24.3516C24.5026 24.9245 23.7604 25.224 22.875 25.25H9.125C8.23958 25.224 7.4974 24.9245 6.89844 24.3516C6.32552 23.7526 6.02604 23.0104 6 22.125V10.875C6.02604 9.98958 6.32552 9.2474 6.89844 8.64844C7.4974 8.07552 8.23958 7.77604 9.125 7.75ZM21 18.6875C20.4271 18.6354 20.1146 18.3229 20.0625 17.75C20.1146 17.1771 20.4271 16.8646 21 16.8125C21.5729 16.8646 21.8854 17.1771 21.9375 17.75C21.8854 18.3229 21.5729 18.6354 21 18.6875Z" fill="black" fill-opacity="0.72"/>
</g>
</svg>
