<svg width="32" height="32" viewBox="0 0 32 32" fill="none" xmlns="http://www.w3.org/2000/svg">
<g id="standalone / md / ellipsis-vertical-md / bold">
<path id="icon" d="M16 20.875C16.7031 20.901 17.25 21.2135 17.6406 21.8125C17.9531 22.4375 17.9531 23.0625 17.6406 23.6875C17.25 24.2865 16.7031 24.599 16 24.625C15.2969 24.599 14.75 24.2865 14.3594 23.6875C14.0469 23.0625 14.0469 22.4375 14.3594 21.8125C14.75 21.2135 15.2969 20.901 16 20.875ZM16 14.625C16.7031 14.651 17.25 14.9635 17.6406 15.5625C17.9531 16.1875 17.9531 16.8125 17.6406 17.4375C17.25 18.0365 16.7031 18.349 16 18.375C15.2969 18.349 14.75 18.0365 14.3594 17.4375C14.0469 16.8125 14.0469 16.1875 14.3594 15.5625C14.75 14.9635 15.2969 14.651 16 14.625ZM17.875 10.25C17.849 10.9531 17.5365 11.5 16.9375 11.8906C16.3125 12.2031 15.6875 12.2031 15.0625 11.8906C14.4635 11.5 14.151 10.9531 14.125 10.25C14.151 9.54688 14.4635 9 15.0625 8.60938C15.6875 8.29688 16.3125 8.29688 16.9375 8.60938C17.5365 9 17.849 9.54688 17.875 10.25Z" fill="black" fill-opacity="0.72"/>
</g>
</svg>
