<svg width="32" height="32" viewBox="0 0 32 32" fill="none" xmlns="http://www.w3.org/2000/svg">
<g id="standalone / md / gauge-min-md / bold">
<path id="icon" d="M16 8.375C14.5156 8.375 13.1615 8.73958 11.9375 9.46875C10.7135 10.1719 9.72396 11.1615 8.96875 12.4375C8.23958 13.7135 7.875 15.0677 7.875 16.5C7.875 17.9323 8.23958 19.2865 8.96875 20.5625C9.72396 21.8385 10.7135 22.8281 11.9375 23.5312C13.1615 24.2604 14.5156 24.625 16 24.625C17.4844 24.625 18.8385 24.2604 20.0625 23.5312C21.2865 22.8281 22.276 21.8385 23.0312 20.5625C23.7604 19.2865 24.125 17.9323 24.125 16.5C24.125 15.0677 23.7604 13.7135 23.0312 12.4375C22.276 11.1615 21.2865 10.1719 20.0625 9.46875C18.8385 8.73958 17.4844 8.375 16 8.375ZM16 26.5C14.1771 26.474 12.5104 26.0312 11 25.1719C9.48958 24.2865 8.26562 23.0625 7.32812 21.5C6.44271 19.9115 6 18.2448 6 16.5C6 14.7552 6.44271 13.0885 7.32812 11.5C8.26562 9.9375 9.48958 8.71354 11 7.82812C12.5104 6.96875 14.1771 6.52604 16 6.5C17.8229 6.52604 19.4896 6.96875 21 7.82812C22.5104 8.71354 23.7344 9.9375 24.6719 11.5C25.5573 13.0885 26 14.7552 26 16.5C26 18.2448 25.5573 19.9115 24.6719 21.5C23.7344 23.0625 22.5104 24.2865 21 25.1719C19.4896 26.0312 17.8229 26.474 16 26.5ZM17.25 10.875C17.25 11.2396 17.1328 11.5391 16.8984 11.7734C16.6641 12.0078 16.3646 12.125 16 12.125C15.6354 12.125 15.3359 12.0078 15.1016 11.7734C14.8672 11.5391 14.75 11.2396 14.75 10.875C14.75 10.5104 14.8672 10.2109 15.1016 9.97656C15.3359 9.74219 15.6354 9.625 16 9.625C16.3646 9.625 16.6641 9.74219 16.8984 9.97656C17.1328 10.2109 17.25 10.5104 17.25 10.875ZM16 22.4375C15.375 22.4115 14.8542 22.2031 14.4375 21.8125C14.0469 21.3958 13.8385 20.875 13.8125 20.25C13.8125 20.1458 13.8255 20.0286 13.8516 19.8984L9.55469 16.9688C9.08594 16.6042 8.99479 16.1745 9.28125 15.6797C9.64583 15.2109 10.0885 15.1198 10.6094 15.4062L14.9062 18.375C15.2188 18.1667 15.5833 18.0625 16 18.0625C16.625 18.0885 17.1458 18.2969 17.5625 18.6875C17.9531 19.1042 18.1615 19.625 18.1875 20.25C18.1615 20.875 17.9531 21.3958 17.5625 21.8125C17.1458 22.2031 16.625 22.4115 16 22.4375ZM13.5 12.75C13.5 13.1146 13.3828 13.4141 13.1484 13.6484C12.9141 13.8828 12.6146 14 12.25 14C11.8854 14 11.5859 13.8828 11.3516 13.6484C11.1172 13.4141 11 13.1146 11 12.75C11 12.3854 11.1172 12.0859 11.3516 11.8516C11.5859 11.6172 11.8854 11.5 12.25 11.5C12.6146 11.5 12.9141 11.6172 13.1484 11.8516C13.3828 12.0859 13.5 12.3854 13.5 12.75ZM21.625 17.75C21.2604 17.75 20.9609 17.6328 20.7266 17.3984C20.4922 17.1641 20.375 16.8646 20.375 16.5C20.375 16.1354 20.4922 15.8359 20.7266 15.6016C20.9609 15.3672 21.2604 15.25 21.625 15.25C21.9896 15.25 22.2891 15.3672 22.5234 15.6016C22.7578 15.8359 22.875 16.1354 22.875 16.5C22.875 16.8646 22.7578 17.1641 22.5234 17.3984C22.2891 17.6328 21.9896 17.75 21.625 17.75ZM21 12.75C21 13.1146 20.8828 13.4141 20.6484 13.6484C20.4141 13.8828 20.1146 14 19.75 14C19.3854 14 19.0859 13.8828 18.8516 13.6484C18.6172 13.4141 18.5 13.1146 18.5 12.75C18.5 12.3854 18.6172 12.0859 18.8516 11.8516C19.0859 11.6172 19.3854 11.5 19.75 11.5C20.1146 11.5 20.4141 11.6172 20.6484 11.8516C20.8828 12.0859 21 12.3854 21 12.75Z" fill="black" fill-opacity="0.72"/>
</g>
</svg>
