<svg width="32" height="32" viewBox="0 0 32 32" fill="none" xmlns="http://www.w3.org/2000/svg">
<g id="standalone / md / moon-md / bold">
<path id="icon" d="M14.1641 10.3672C13.0182 10.9401 12.1068 11.7604 11.4297 12.8281C10.7526 13.9219 10.401 15.1458 10.375 16.5C10.4271 18.4531 11.0911 20.0677 12.3672 21.3438C13.6693 22.6458 15.2839 23.3229 17.2109 23.375C17.7318 23.375 18.2396 23.3229 18.7344 23.2188C16.9896 22.5938 15.5833 21.5391 14.5156 20.0547C13.4479 18.5964 12.901 16.8906 12.875 14.9375C12.875 13.2448 13.3047 11.7214 14.1641 10.3672ZM16.5859 7.78906C16.6641 7.78906 16.7552 7.77604 16.8594 7.75C16.9896 7.75 17.1198 7.75 17.25 7.75C17.3542 7.75 17.4583 7.75 17.5625 7.75C17.6927 7.75 17.8229 7.76302 17.9531 7.78906C18.2656 7.84115 18.4609 7.9974 18.5391 8.25781C18.5911 8.57031 18.487 8.80469 18.2266 8.96094C18.0964 9.01302 17.9661 9.09115 17.8359 9.19531C17.6797 9.29948 17.5234 9.41667 17.3672 9.54688C17.3411 9.54688 17.3281 9.54688 17.3281 9.54688C17.3021 9.57292 17.276 9.59896 17.25 9.625C16.4688 10.276 15.8568 11.0573 15.4141 11.9688C14.9714 12.8802 14.75 13.8698 14.75 14.9375C14.8021 16.8906 15.4661 18.5052 16.7422 19.7812C18.0182 21.0833 19.6328 21.7604 21.5859 21.8125C21.638 21.8125 21.6901 21.8125 21.7422 21.8125C21.9505 21.8125 22.1458 21.7995 22.3281 21.7734C22.4844 21.7474 22.6276 21.7344 22.7578 21.7344C23.0703 21.6823 23.2917 21.7865 23.4219 22.0469C23.5521 22.3073 23.513 22.5547 23.3047 22.7891C23.2005 22.8672 23.0964 22.9583 22.9922 23.0625C22.8359 23.2188 22.6536 23.362 22.4453 23.4922C22.4193 23.5182 22.3932 23.5443 22.3672 23.5703C22.3411 23.5964 22.3021 23.6224 22.25 23.6484C20.7917 24.6901 19.125 25.224 17.25 25.25C15.6094 25.224 14.138 24.8203 12.8359 24.0391C11.5078 23.2839 10.4661 22.2422 9.71094 20.9141C8.92969 19.612 8.52604 18.1406 8.5 16.5C8.55208 14.1302 9.33333 12.138 10.8438 10.5234C12.3542 8.90885 14.2682 7.9974 16.5859 7.78906Z" fill="black" fill-opacity="0.72"/>
</g>
</svg>
