<svg width="32" height="32" viewBox="0 0 32 32" fill="none" xmlns="http://www.w3.org/2000/svg">
<g id="standalone / md / play-md / regular">
<path id="icon" d="M10.6875 9.07812C10.4792 8.97396 10.2708 8.97396 10.0625 9.07812C9.85417 9.20833 9.75 9.39062 9.75 9.625V23.375C9.75 23.6094 9.85417 23.7917 10.0625 23.9219C10.2708 24.026 10.4792 24.026 10.6875 23.9219L21.9375 17.0469C22.1458 16.9167 22.25 16.7344 22.25 16.5C22.25 16.2656 22.1458 16.0833 21.9375 15.9531L10.6875 9.07812ZM9.47656 7.98438C10.1016 7.64583 10.7266 7.65885 11.3516 8.02344L22.6016 14.8984C23.1745 15.263 23.474 15.7969 23.5 16.5C23.474 17.2031 23.1745 17.737 22.6016 18.1016L11.3516 24.9766C10.7266 25.3411 10.1016 25.3542 9.47656 25.0156C8.85156 24.651 8.52604 24.1042 8.5 23.375V9.625C8.52604 8.89583 8.85156 8.34896 9.47656 7.98438Z" fill="black" fill-opacity="0.72"/>
</g>
</svg>
