<svg width="32" height="32" viewBox="0 0 32 32" fill="none" xmlns="http://www.w3.org/2000/svg">
<g id="standalone / md / mobile-notch-md / bold">
<path id="icon" d="M18.5 8.375V9C18.474 9.39062 18.2656 9.59896 17.875 9.625H14.125C13.7344 9.59896 13.526 9.39062 13.5 9V8.375H12.25C11.8854 8.375 11.5859 8.49219 11.3516 8.72656C11.1172 8.96094 11 9.26042 11 9.625V23.375C11 23.7396 11.1172 24.0391 11.3516 24.2734C11.5859 24.5078 11.8854 24.625 12.25 24.625H19.75C20.1146 24.625 20.4141 24.5078 20.6484 24.2734C20.8828 24.0391 21 23.7396 21 23.375V9.625C21 9.26042 20.8828 8.96094 20.6484 8.72656C20.4141 8.49219 20.1146 8.375 19.75 8.375H18.5ZM9.125 9.625C9.15104 8.73958 9.45052 7.9974 10.0234 7.39844C10.6224 6.82552 11.3646 6.52604 12.25 6.5H19.75C20.6354 6.52604 21.3776 6.82552 21.9766 7.39844C22.5495 7.9974 22.849 8.73958 22.875 9.625V23.375C22.849 24.2604 22.5495 25.0026 21.9766 25.6016C21.3776 26.1745 20.6354 26.474 19.75 26.5H12.25C11.3646 26.474 10.6224 26.1745 10.0234 25.6016C9.45052 25.0026 9.15104 24.2604 9.125 23.375V9.625Z" fill="black" fill-opacity="0.72"/>
</g>
</svg>
