<svg width="32" height="32" viewBox="0 0 32 32" fill="none" xmlns="http://www.w3.org/2000/svg">
<g id="standalone / md / eight-md / regular">
<path id="icon" d="M21.625 12.4375C21.625 13.2448 21.4427 13.987 21.0781 14.6641C20.6875 15.3411 20.1797 15.888 19.5547 16.3047C20.362 16.6953 21.013 17.2682 21.5078 18.0234C22.0026 18.7786 22.25 19.625 22.25 20.5625C22.224 21.8906 21.7682 22.9974 20.8828 23.8828C19.9974 24.7682 18.8906 25.224 17.5625 25.25H14.4375C13.1094 25.224 12.0026 24.7682 11.1172 23.8828C10.2318 22.9974 9.77604 21.8906 9.75 20.5625C9.75 19.625 9.9974 18.7786 10.4922 18.0234C10.987 17.2682 11.638 16.6953 12.4453 16.3047C11.8203 15.888 11.3125 15.3411 10.9219 14.6641C10.5573 13.987 10.375 13.2448 10.375 12.4375C10.401 11.1094 10.8568 10.0026 11.7422 9.11719C12.6276 8.23177 13.7344 7.77604 15.0625 7.75H16.9375C18.2656 7.77604 19.3724 8.23177 20.2578 9.11719C21.1432 10.0026 21.599 11.1094 21.625 12.4375ZM16.9375 17.125H15.0625H14.4375C13.474 17.151 12.6667 17.4896 12.0156 18.1406C11.3646 18.7917 11.026 19.599 11 20.5625C11.026 21.526 11.3646 22.3333 12.0156 22.9844C12.6667 23.6354 13.474 23.974 14.4375 24H17.5625C18.526 23.974 19.3333 23.6354 19.9844 22.9844C20.6354 22.3333 20.974 21.526 21 20.5625C20.974 19.599 20.6354 18.7917 19.9844 18.1406C19.3333 17.4896 18.526 17.151 17.5625 17.125H16.9375ZM16.9375 15.875C17.901 15.849 18.7083 15.5104 19.3594 14.8594C20.0104 14.2083 20.349 13.401 20.375 12.4375C20.349 11.474 20.0104 10.6667 19.3594 10.0156C18.7083 9.36458 17.901 9.02604 16.9375 9H15.0625C14.099 9.02604 13.2917 9.36458 12.6406 10.0156C11.9896 10.6667 11.651 11.474 11.625 12.4375C11.651 13.401 11.9896 14.2083 12.6406 14.8594C13.2917 15.5104 14.099 15.849 15.0625 15.875H16.9375Z" fill="black" fill-opacity="0.72"/>
</g>
</svg>
