<svg width="32" height="32" viewBox="0 0 32 32" fill="none" xmlns="http://www.w3.org/2000/svg">
<g id="standalone / md / arrow-left-to-line-md / bold">
<path id="icon" d="M7.25 23.0625V9.9375C7.30208 9.36458 7.61458 9.05208 8.1875 9C8.76042 9.05208 9.07292 9.36458 9.125 9.9375V23.0625C9.07292 23.6354 8.76042 23.9479 8.1875 24C7.61458 23.9479 7.30208 23.6354 7.25 23.0625ZM12.5625 15.8359L17.875 10.8359C18.3177 10.4714 18.7474 10.4844 19.1641 10.875C19.5286 11.3177 19.5156 11.7604 19.125 12.2031L15.5703 15.5625H18.8125H23.8125C24.3854 15.6146 24.6979 15.9271 24.75 16.5C24.6979 17.0729 24.3854 17.3854 23.8125 17.4375H18.8125H15.5703L19.1641 20.8359C19.5286 21.2526 19.5417 21.6953 19.2031 22.1641C18.7604 22.5286 18.3177 22.5417 17.875 22.2031L12.5625 17.2031C12.3542 16.9948 12.25 16.7604 12.25 16.5C12.25 16.2396 12.3542 16.0182 12.5625 15.8359Z" fill="black" fill-opacity="0.72"/>
</g>
</svg>
