<svg width="32" height="32" viewBox="0 0 32 32" fill="none" xmlns="http://www.w3.org/2000/svg">
<g id="standalone / md / hands-holding-diamond-md / regular">
<path id="icon" d="M16.8984 6.85156L20.6484 10.6016C20.8828 10.862 21 11.1615 21 11.5C21 11.8385 20.8828 12.138 20.6484 12.3984L16.8984 16.1484C16.638 16.3828 16.3385 16.5 16 16.5C15.6615 16.5 15.362 16.3828 15.1016 16.1484L11.3516 12.3984C11.1172 12.138 11 11.8385 11 11.5C11 11.1615 11.1172 10.862 11.3516 10.6016L15.1016 6.85156C15.362 6.61719 15.6615 6.5 16 6.5C16.3385 6.5 16.638 6.61719 16.8984 6.85156ZM12.25 11.5L16 15.25L19.75 11.5L16 7.75L12.25 11.5ZM6 9C6.70312 9.02604 7.28906 9.27344 7.75781 9.74219C8.22656 10.2109 8.47396 10.7969 8.5 11.5V16.3438C8.5 16.526 8.51302 16.7083 8.53906 16.8906C8.61719 16.7604 8.72135 16.6432 8.85156 16.5391C9.29427 16.0964 9.80208 15.875 10.375 15.875C10.9479 15.875 11.4557 16.0964 11.8984 16.5391L15.4922 20.0938C15.6745 20.3021 15.8438 20.5234 16 20.7578C16.1562 20.5234 16.3255 20.3021 16.5078 20.0938L20.1016 16.5391C20.5443 16.0964 21.0521 15.875 21.625 15.875C22.1979 15.875 22.7057 16.0964 23.1484 16.5391C23.2786 16.6432 23.3828 16.7604 23.4609 16.8906C23.487 16.7083 23.5 16.526 23.5 16.3438V11.5C23.526 10.7969 23.7734 10.2109 24.2422 9.74219C24.7109 9.27344 25.2969 9.02604 26 9C26.7031 9.02604 27.2891 9.27344 27.7578 9.74219C28.2266 10.2109 28.474 10.7969 28.5 11.5V19.9375C28.474 21.1354 28.0443 22.1641 27.2109 23.0234L23.9297 26.3047C23.6432 26.5651 23.3568 26.5651 23.0703 26.3047C22.8099 26.0182 22.8099 25.7318 23.0703 25.4453L26.3516 22.1641C26.9505 21.5391 27.25 20.7969 27.25 19.9375V11.5C27.25 11.1354 27.1328 10.8359 26.8984 10.6016C26.6641 10.3672 26.3646 10.25 26 10.25C25.6354 10.25 25.3359 10.3672 25.1016 10.6016C24.8672 10.8359 24.75 11.1354 24.75 11.5V16.3438C24.724 17.4375 24.3333 18.388 23.5781 19.1953L23.1484 19.5859L21.4297 21.3047L20.8047 21.9297C20.5182 22.1901 20.2318 22.1901 19.9453 21.9297C19.6849 21.6432 19.6849 21.3568 19.9453 21.0703L20.5703 20.4453L22.2891 18.7266C22.6536 18.2839 22.6536 17.8411 22.2891 17.3984C21.8464 17.0599 21.4036 17.0599 20.9609 17.3984L17.4062 20.9922C16.8854 21.513 16.625 22.138 16.625 22.8672V25.875C16.599 26.2656 16.3906 26.474 16 26.5C15.6094 26.474 15.401 26.2656 15.375 25.875V22.8672C15.375 22.138 15.1146 21.513 14.5938 20.9922L11.0391 17.3984C10.5964 17.0339 10.1536 17.0339 9.71094 17.3984C9.3724 17.8411 9.3724 18.2839 9.71094 18.7266L11.4297 20.4453L12.0547 21.0703C12.3151 21.3568 12.3151 21.6432 12.0547 21.9297C11.7682 22.1901 11.4818 22.1901 11.1953 21.9297L10.5703 21.3047L8.85156 19.5859L8.42188 19.1953C7.66667 18.388 7.27604 17.4375 7.25 16.3438V11.5C7.25 11.1354 7.13281 10.8359 6.89844 10.6016C6.66406 10.3672 6.36458 10.25 6 10.25C5.63542 10.25 5.33594 10.3672 5.10156 10.6016C4.86719 10.8359 4.75 11.1354 4.75 11.5V19.9375C4.75 20.7969 5.04948 21.5391 5.64844 22.1641L8.92969 25.4453C9.1901 25.7318 9.1901 26.0182 8.92969 26.3047C8.64323 26.5651 8.35677 26.5651 8.07031 26.3047L4.78906 23.0234C3.95573 22.1641 3.52604 21.1354 3.5 19.9375V11.5C3.52604 10.7969 3.77344 10.2109 4.24219 9.74219C4.71094 9.27344 5.29688 9.02604 6 9Z" fill="black" fill-opacity="0.72"/>
</g>
</svg>
