<svg width="32" height="32" viewBox="0 0 32 32" fill="none" xmlns="http://www.w3.org/2000/svg">
<g id="standalone / md / table-layout-md / bold">
<path id="icon" d="M23.5 9.625H8.5C8.10938 9.65104 7.90104 9.85938 7.875 10.25V12.75H24.125V10.25C24.099 9.85938 23.8906 9.65104 23.5 9.625ZM7.875 22.75C7.90104 23.1406 8.10938 23.349 8.5 23.375H11.625V14.625H7.875V22.75ZM13.5 23.375H23.5C23.8906 23.349 24.099 23.1406 24.125 22.75V14.625H13.5V23.375ZM8.5 7.75H23.5C24.2031 7.77604 24.7891 8.02344 25.2578 8.49219C25.7266 8.96094 25.974 9.54688 26 10.25V22.75C25.974 23.4531 25.7266 24.0391 25.2578 24.5078C24.7891 24.9766 24.2031 25.224 23.5 25.25H8.5C7.79688 25.224 7.21094 24.9766 6.74219 24.5078C6.27344 24.0391 6.02604 23.4531 6 22.75V10.25C6.02604 9.54688 6.27344 8.96094 6.74219 8.49219C7.21094 8.02344 7.79688 7.77604 8.5 7.75Z" fill="black" fill-opacity="0.72"/>
</g>
</svg>
