<svg width="32" height="32" viewBox="0 0 32 32" fill="none" xmlns="http://www.w3.org/2000/svg">
<g id="standalone / md / link-simple-md / bold">
<path id="icon" d="M4.75 16.5C4.80208 14.7292 5.41406 13.2578 6.58594 12.0859C7.75781 10.9141 9.22917 10.3021 11 10.25H13.8125C14.3854 10.3021 14.6979 10.6146 14.75 11.1875C14.6979 11.7604 14.3854 12.0729 13.8125 12.125H11C9.75 12.151 8.72135 12.5807 7.91406 13.4141C7.08073 14.2214 6.65104 15.25 6.625 16.5C6.65104 17.75 7.08073 18.7786 7.91406 19.5859C8.72135 20.4193 9.75 20.849 11 20.875H13.8125C14.3854 20.9271 14.6979 21.2396 14.75 21.8125C14.6979 22.3854 14.3854 22.6979 13.8125 22.75H11C9.22917 22.6979 7.75781 22.0859 6.58594 20.9141C5.41406 19.7422 4.80208 18.2708 4.75 16.5ZM27.25 16.5C27.1979 18.2708 26.5859 19.7422 25.4141 20.9141C24.2422 22.0859 22.7708 22.6979 21 22.75H18.1875C17.6146 22.6979 17.3021 22.3854 17.25 21.8125C17.3021 21.2396 17.6146 20.9271 18.1875 20.875H21C22.25 20.849 23.2786 20.4193 24.0859 19.5859C24.9193 18.7786 25.349 17.75 25.375 16.5C25.349 15.25 24.9193 14.2214 24.0859 13.4141C23.2786 12.5807 22.25 12.151 21 12.125H18.1875C17.6146 12.0729 17.3021 11.7604 17.25 11.1875C17.3021 10.6146 17.6146 10.3021 18.1875 10.25H21C22.7708 10.3021 24.2422 10.9141 25.4141 12.0859C26.5859 13.2578 27.1979 14.7292 27.25 16.5ZM11.9375 15.5625H20.0625C20.6354 15.6146 20.9479 15.9271 21 16.5C20.9479 17.0729 20.6354 17.3854 20.0625 17.4375H11.9375C11.3646 17.3854 11.0521 17.0729 11 16.5C11.0521 15.9271 11.3646 15.6146 11.9375 15.5625Z" fill="black" fill-opacity="0.72"/>
</g>
</svg>
