<svg width="32" height="32" viewBox="0 0 32 32" fill="none" xmlns="http://www.w3.org/2000/svg">
<g id="standalone / md / grip-dots-vertical-md / bold">
<path id="icon" d="M13.5 11.5C13.1354 11.5 12.8359 11.3828 12.6016 11.1484C12.3672 10.9141 12.25 10.6146 12.25 10.25C12.25 9.88542 12.3672 9.58594 12.6016 9.35156C12.8359 9.11719 13.1354 9 13.5 9C13.8646 9 14.1641 9.11719 14.3984 9.35156C14.6328 9.58594 14.75 9.88542 14.75 10.25C14.75 10.6146 14.6328 10.9141 14.3984 11.1484C14.1641 11.3828 13.8646 11.5 13.5 11.5ZM13.5 17.75C13.1354 17.75 12.8359 17.6328 12.6016 17.3984C12.3672 17.1641 12.25 16.8646 12.25 16.5C12.25 16.1354 12.3672 15.8359 12.6016 15.6016C12.8359 15.3672 13.1354 15.25 13.5 15.25C13.8646 15.25 14.1641 15.3672 14.3984 15.6016C14.6328 15.8359 14.75 16.1354 14.75 16.5C14.75 16.8646 14.6328 17.1641 14.3984 17.3984C14.1641 17.6328 13.8646 17.75 13.5 17.75ZM14.75 22.75C14.75 23.1146 14.6328 23.4141 14.3984 23.6484C14.1641 23.8828 13.8646 24 13.5 24C13.1354 24 12.8359 23.8828 12.6016 23.6484C12.3672 23.4141 12.25 23.1146 12.25 22.75C12.25 22.3854 12.3672 22.0859 12.6016 21.8516C12.8359 21.6172 13.1354 21.5 13.5 21.5C13.8646 21.5 14.1641 21.6172 14.3984 21.8516C14.6328 22.0859 14.75 22.3854 14.75 22.75ZM18.5 11.5C18.1354 11.5 17.8359 11.3828 17.6016 11.1484C17.3672 10.9141 17.25 10.6146 17.25 10.25C17.25 9.88542 17.3672 9.58594 17.6016 9.35156C17.8359 9.11719 18.1354 9 18.5 9C18.8646 9 19.1641 9.11719 19.3984 9.35156C19.6328 9.58594 19.75 9.88542 19.75 10.25C19.75 10.6146 19.6328 10.9141 19.3984 11.1484C19.1641 11.3828 18.8646 11.5 18.5 11.5ZM19.75 16.5C19.75 16.8646 19.6328 17.1641 19.3984 17.3984C19.1641 17.6328 18.8646 17.75 18.5 17.75C18.1354 17.75 17.8359 17.6328 17.6016 17.3984C17.3672 17.1641 17.25 16.8646 17.25 16.5C17.25 16.1354 17.3672 15.8359 17.6016 15.6016C17.8359 15.3672 18.1354 15.25 18.5 15.25C18.8646 15.25 19.1641 15.3672 19.3984 15.6016C19.6328 15.8359 19.75 16.1354 19.75 16.5ZM18.5 24C18.1354 24 17.8359 23.8828 17.6016 23.6484C17.3672 23.4141 17.25 23.1146 17.25 22.75C17.25 22.3854 17.3672 22.0859 17.6016 21.8516C17.8359 21.6172 18.1354 21.5 18.5 21.5C18.8646 21.5 19.1641 21.6172 19.3984 21.8516C19.6328 22.0859 19.75 22.3854 19.75 22.75C19.75 23.1146 19.6328 23.4141 19.3984 23.6484C19.1641 23.8828 18.8646 24 18.5 24Z" fill="black" fill-opacity="0.72"/>
</g>
</svg>
