<svg width="32" height="32" viewBox="0 0 32 32" fill="none" xmlns="http://www.w3.org/2000/svg">
<g id="standalone / md / arrow-up-to-line-md / regular">
<path id="icon" d="M9.125 7.75H22.875C23.2656 7.77604 23.474 7.98438 23.5 8.375C23.474 8.76562 23.2656 8.97396 22.875 9H9.125C8.73438 8.97396 8.52604 8.76562 8.5 8.375C8.52604 7.98438 8.73438 7.77604 9.125 7.75ZM16.4297 11.6953L21.4297 16.6953C21.6901 16.9818 21.6901 17.2682 21.4297 17.5547C21.1432 17.8151 20.8568 17.8151 20.5703 17.5547L16.625 13.6484V17.75V24.625C16.599 25.0156 16.3906 25.224 16 25.25C15.6094 25.224 15.401 25.0156 15.375 24.625V17.75V13.6484L11.4297 17.5547C11.1432 17.8151 10.8568 17.8151 10.5703 17.5547C10.3099 17.2682 10.3099 16.9818 10.5703 16.6953L15.5703 11.6953C15.8568 11.4349 16.1432 11.4349 16.4297 11.6953Z" fill="black" fill-opacity="0.72"/>
</g>
</svg>
