<svg width="32" height="32" viewBox="0 0 32 32" fill="none" xmlns="http://www.w3.org/2000/svg">
<g id="standalone / md / bell-slash-md / bold">
<path id="icon" d="M5.02344 6.69531L10.6875 11.1484C11.625 9.66406 12.9792 8.76562 14.75 8.45312V7.75C14.75 7.38542 14.8672 7.08594 15.1016 6.85156C15.3359 6.61719 15.6354 6.5 16 6.5C16.3646 6.5 16.6641 6.61719 16.8984 6.85156C17.1328 7.08594 17.25 7.38542 17.25 7.75V8.45312C18.7083 8.71354 19.8932 9.3776 20.8047 10.4453C21.7422 11.513 22.224 12.8021 22.25 14.3125V15.6016C22.276 17.4245 22.849 19.0521 23.9688 20.4844L24.5547 21.2266C24.763 21.513 24.8151 21.8125 24.7109 22.125L28.1484 24.8203C28.5651 25.2109 28.6172 25.6536 28.3047 26.1484C27.9141 26.5651 27.4714 26.6172 26.9766 26.3047L3.85156 8.17969C3.4349 7.78906 3.38281 7.34635 3.69531 6.85156C4.08594 6.4349 4.52865 6.38281 5.02344 6.69531ZM12.1719 12.2812L21.1172 19.3125C20.6224 18.1406 20.375 16.9036 20.375 15.6016V14.3125C20.349 13.1667 19.9583 12.2031 19.2031 11.4219C18.4219 10.6667 17.4583 10.276 16.3125 10.25H16H15.6875C14.9323 10.25 14.2422 10.4323 13.6172 10.7969C12.9922 11.1875 12.5104 11.6823 12.1719 12.2812ZM19.3594 22.75H8.1875C7.79688 22.724 7.51042 22.5417 7.32812 22.2031C7.19792 21.8646 7.23698 21.5391 7.44531 21.2266L8.03125 20.4844C9.15104 19.0521 9.72396 17.4375 9.75 15.6406V15.1719L11.5859 16.6172C11.4036 18.1536 10.8958 19.5729 10.0625 20.875H16.9766L19.3594 22.75ZM18.5 24C18.5 24.6771 18.2526 25.263 17.7578 25.7578C17.263 26.2526 16.6771 26.5 16 26.5C15.3229 26.5 14.737 26.2526 14.2422 25.7578C13.7474 25.263 13.5 24.6771 13.5 24H16H18.5Z" fill="black" fill-opacity="0.72"/>
</g>
</svg>
