<svg width="32" height="32" viewBox="0 0 32 32" fill="none" xmlns="http://www.w3.org/2000/svg">
<g id="standalone / md / apple-md">
<path id="icon" d="M20.9609 17.0078C20.9089 17.1641 21 17.6328 21.2344 18.4141C21.4688 19.2214 22.1719 19.9505 23.3438 20.6016C23.1875 21.0964 22.9141 21.7083 22.5234 22.4375C22.1328 23.1406 21.6641 23.7786 21.1172 24.3516C20.5703 24.8984 19.9844 25.1979 19.3594 25.25C18.8385 25.224 18.3698 25.1068 17.9531 24.8984C17.5104 24.6901 16.9766 24.5729 16.3516 24.5469C15.7005 24.5729 15.1406 24.7031 14.6719 24.9375C14.2552 25.1198 13.8385 25.224 13.4219 25.25C12.7708 25.224 12.1589 24.9115 11.5859 24.3125C11.013 23.7135 10.5182 23.0365 10.1016 22.2812C9.6849 21.5 9.38542 20.862 9.20312 20.3672C8.83854 19.2734 8.65625 18.2188 8.65625 17.2031C8.70833 15.4583 9.1901 14.1562 10.1016 13.2969C10.987 12.4375 12.0026 11.9948 13.1484 11.9688C13.7995 12.0208 14.4375 12.1771 15.0625 12.4375C15.5052 12.6198 15.8698 12.724 16.1562 12.75C16.3646 12.724 16.6771 12.6328 17.0938 12.4766C17.4323 12.3464 17.8229 12.2161 18.2656 12.0859C18.7083 11.9557 19.151 11.9036 19.5938 11.9297C21.0521 12.0599 22.1589 12.6458 22.9141 13.6875C21.5859 14.4688 20.9349 15.5755 20.9609 17.0078ZM18.7344 10.6016C17.9531 11.513 17.0547 11.9557 16.0391 11.9297C15.987 10.8359 16.3125 9.89844 17.0156 9.11719C17.3542 8.7526 17.7578 8.4401 18.2266 8.17969C18.7214 7.91927 19.2031 7.77604 19.6719 7.75C19.724 7.98438 19.7109 8.34896 19.6328 8.84375C19.5286 9.36458 19.2292 9.95052 18.7344 10.6016Z" fill="black" fill-opacity="0.72"/>
</g>
</svg>
