<svg width="32" height="32" viewBox="0 0 32 32" fill="none" xmlns="http://www.w3.org/2000/svg">
<g id="standalone / md / microphone-md / bold">
<path id="icon" d="M17.875 10.25C17.849 9.72917 17.6667 9.28646 17.3281 8.92188C16.9635 8.58333 16.5208 8.40104 16 8.375C15.4792 8.40104 15.0365 8.58333 14.6719 8.92188C14.3333 9.28646 14.151 9.72917 14.125 10.25V16.5C14.151 17.0208 14.3333 17.4635 14.6719 17.8281C15.0365 18.1667 15.4792 18.349 16 18.375C16.5208 18.349 16.9635 18.1667 17.3281 17.8281C17.6667 17.4635 17.849 17.0208 17.875 16.5V10.25ZM12.25 10.25C12.276 9.18229 12.6406 8.29688 13.3438 7.59375C14.0469 6.89062 14.9323 6.52604 16 6.5C17.0677 6.52604 17.9531 6.89062 18.6562 7.59375C19.3594 8.29688 19.724 9.18229 19.75 10.25V16.5C19.724 17.5677 19.3594 18.4531 18.6562 19.1562C17.9531 19.8594 17.0677 20.224 16 20.25C14.9323 20.224 14.0469 19.8594 13.3438 19.1562C12.6406 18.4531 12.276 17.5677 12.25 16.5V10.25ZM11 14.9375V16.5C11.026 17.9062 11.5078 19.0911 12.4453 20.0547C13.4089 20.9922 14.5938 21.474 16 21.5C17.4062 21.474 18.5911 20.9922 19.5547 20.0547C20.4922 19.0911 20.974 17.9062 21 16.5V14.9375C21.0521 14.3646 21.3646 14.0521 21.9375 14C22.5104 14.0521 22.8229 14.3646 22.875 14.9375V16.5C22.849 18.2708 22.276 19.7812 21.1562 21.0312C20.0625 22.2812 18.6562 23.0365 16.9375 23.2969V24.625H18.8125C19.3854 24.6771 19.6979 24.9896 19.75 25.5625C19.6979 26.1354 19.3854 26.4479 18.8125 26.5H16H13.1875C12.6146 26.4479 12.3021 26.1354 12.25 25.5625C12.3021 24.9896 12.6146 24.6771 13.1875 24.625H15.0625V23.2969C13.3438 23.0365 11.9375 22.2812 10.8438 21.0312C9.72396 19.7812 9.15104 18.2708 9.125 16.5V14.9375C9.17708 14.3646 9.48958 14.0521 10.0625 14C10.6354 14.0521 10.9479 14.3646 11 14.9375Z" fill="black" fill-opacity="0.72"/>
</g>
</svg>
