<svg width="32" height="32" viewBox="0 0 32 32" fill="none" xmlns="http://www.w3.org/2000/svg">
<g id="standalone / md / square-check-md / fill">
<path id="icon" d="M9.75 7.75H22.25C22.9531 7.77604 23.5391 8.02344 24.0078 8.49219C24.4766 8.96094 24.724 9.54688 24.75 10.25V22.75C24.724 23.4531 24.4766 24.0391 24.0078 24.5078C23.5391 24.9766 22.9531 25.224 22.25 25.25H9.75C9.04688 25.224 8.46094 24.9766 7.99219 24.5078C7.52344 24.0391 7.27604 23.4531 7.25 22.75V10.25C7.27604 9.54688 7.52344 8.96094 7.99219 8.49219C8.46094 8.02344 9.04688 7.77604 9.75 7.75ZM20.4141 14.6641C20.7786 14.2214 20.7786 13.7786 20.4141 13.3359C19.9714 12.9714 19.5286 12.9714 19.0859 13.3359L14.75 17.6719L12.9141 15.8359C12.4714 15.4714 12.0286 15.4714 11.5859 15.8359C11.2214 16.2786 11.2214 16.7214 11.5859 17.1641L14.0859 19.6641C14.5286 20.0286 14.9714 20.0286 15.4141 19.6641L20.4141 14.6641Z" fill="black" fill-opacity="0.72"/>
</g>
</svg>
