<svg width="32" height="32" viewBox="0 0 32 32" fill="none" xmlns="http://www.w3.org/2000/svg">
<g id="standalone / md / location-crosshairs-md / bold">
<path id="icon" d="M16 6.5C16.5729 6.55208 16.8854 6.86458 16.9375 7.4375V9.07812C18.6562 9.3125 20.1146 10.0156 21.3125 11.1875C22.4844 12.3854 23.2005 13.8438 23.4609 15.5625H25.0625C25.6354 15.6146 25.9479 15.9271 26 16.5C25.9479 17.0729 25.6354 17.3854 25.0625 17.4375H23.4609C23.2005 19.1562 22.4844 20.6146 21.3125 21.8125C20.1146 22.9844 18.6562 23.7005 16.9375 23.9609V25.5625C16.8854 26.1354 16.5729 26.4479 16 26.5C15.4271 26.4479 15.1146 26.1354 15.0625 25.5625V23.9609C13.3438 23.7005 11.8854 22.9844 10.6875 21.8125C9.51562 20.6146 8.8125 19.1562 8.57812 17.4375H6.9375C6.36458 17.3854 6.05208 17.0729 6 16.5C6.05208 15.9271 6.36458 15.6146 6.9375 15.5625H8.57812C8.8125 13.8438 9.51562 12.3854 10.6875 11.1875C11.8854 10.0156 13.3438 9.3125 15.0625 9.07812V7.4375C15.1146 6.86458 15.4271 6.55208 16 6.5ZM10.375 16.5C10.375 17.5156 10.6224 18.4531 11.1172 19.3125C11.612 20.1719 12.3021 20.862 13.1875 21.3828C14.0729 21.8776 15.0104 22.125 16 22.125C16.9896 22.125 17.9271 21.8776 18.8125 21.3828C19.6979 20.862 20.388 20.1719 20.8828 19.3125C21.3776 18.4531 21.625 17.5156 21.625 16.5C21.625 15.4844 21.3776 14.5469 20.8828 13.6875C20.388 12.8281 19.6979 12.138 18.8125 11.6172C17.9271 11.1224 16.9896 10.875 16 10.875C15.0104 10.875 14.0729 11.1224 13.1875 11.6172C12.3021 12.138 11.612 12.8281 11.1172 13.6875C10.6224 14.5469 10.375 15.4844 10.375 16.5ZM17.875 16.5C17.849 15.7969 17.5365 15.25 16.9375 14.8594C16.3125 14.5469 15.6875 14.5469 15.0625 14.8594C14.4635 15.25 14.151 15.7969 14.125 16.5C14.151 17.2031 14.4635 17.75 15.0625 18.1406C15.6875 18.4531 16.3125 18.4531 16.9375 18.1406C17.5365 17.75 17.849 17.2031 17.875 16.5ZM12.25 16.5C12.25 15.8229 12.4193 15.1979 12.7578 14.625C13.0964 14.0521 13.5521 13.5964 14.125 13.2578C14.724 12.9193 15.349 12.75 16 12.75C16.651 12.75 17.276 12.9193 17.875 13.2578C18.4479 13.5964 18.9036 14.0521 19.2422 14.625C19.5807 15.1979 19.75 15.8229 19.75 16.5C19.75 17.1771 19.5807 17.8021 19.2422 18.375C18.9036 18.9479 18.4479 19.4036 17.875 19.7422C17.276 20.0807 16.651 20.25 16 20.25C15.349 20.25 14.724 20.0807 14.125 19.7422C13.5521 19.4036 13.0964 18.9479 12.7578 18.375C12.4193 17.8021 12.25 17.1771 12.25 16.5Z" fill="black" fill-opacity="0.72"/>
</g>
</svg>
