<svg width="32" height="32" viewBox="0 0 32 32" fill="none" xmlns="http://www.w3.org/2000/svg">
<g id="standalone / md / sort-up-md / regular">
<path id="icon" d="M15.7656 9.07812L11.0781 13.5312C11.026 13.5833 11 13.6484 11 13.7266C11.026 13.8828 11.1172 13.974 11.2734 14H20.7266C20.8828 13.974 20.974 13.8828 21 13.7266C21 13.6484 20.974 13.5833 20.9219 13.5312L16.2344 9.07812C16.1562 9.02604 16.0781 9 16 9C15.9219 9 15.8438 9.02604 15.7656 9.07812ZM14.9062 8.17969C15.2188 7.89323 15.5833 7.75 16 7.75C16.4167 7.75 16.7812 7.89323 17.0938 8.17969L21.7812 12.5938C22.0938 12.9062 22.25 13.2839 22.25 13.7266C22.25 14.1693 22.1068 14.5339 21.8203 14.8203C21.5339 15.1068 21.1693 15.25 20.7266 15.25H11.2734C10.8307 15.25 10.4661 15.1068 10.1797 14.8203C9.89323 14.5339 9.75 14.1693 9.75 13.7266C9.75 13.2839 9.90625 12.9062 10.2188 12.5938L14.9062 8.17969Z" fill="black" fill-opacity="0.72"/>
</g>
</svg>
