<svg width="32" height="32" viewBox="0 0 32 32" fill="none" xmlns="http://www.w3.org/2000/svg">
<g id="standalone / md / stop-loss-md / bold">
<path id="icon" d="M11.8594 21.9297C10.9219 21.9297 10.1406 21.7734 9.51562 21.4609C8.85156 21.1484 8.34375 20.7188 7.875 20.25L9.35938 18.7266C10.1016 19.5078 10.9609 19.9375 12.0156 19.9375C12.5625 19.9375 12.9922 19.8203 13.2266 19.5859C13.5 19.3516 13.6562 19.0391 13.6562 18.6484C13.6562 18.375 13.5781 18.1406 13.4219 17.9453C13.2656 17.75 12.9141 17.5938 12.4453 17.5547L11.3906 17.3984C10.2969 17.2422 9.47656 16.9297 8.96875 16.3828C8.46094 15.875 8.1875 15.1719 8.1875 14.2734C8.1875 13.8047 8.26562 13.375 8.46094 12.9844C8.65625 12.5938 8.89062 12.2812 9.24219 12.0078C9.55469 11.6953 9.98438 11.5 10.4531 11.3438C10.9609 11.1875 11.5078 11.1094 12.1328 11.1094C12.9141 11.1094 13.6172 11.2266 14.2031 11.5C14.7891 11.7344 15.3359 12.0859 15.7656 12.5938L14.2422 14.1172C13.9688 13.8047 13.6953 13.5703 13.3047 13.4141C12.9531 13.2188 12.5234 13.1016 11.9766 13.1016C11.4688 13.1016 11.0781 13.2188 10.8438 13.375C10.6094 13.5703 10.4531 13.8047 10.4531 14.1562C10.4531 14.5078 10.5703 14.7422 10.7656 14.9375C10.9609 15.0938 11.2734 15.2109 11.7031 15.25L12.7578 15.4453C13.8125 15.6016 14.6328 15.9141 15.1406 16.4219C15.6875 16.9297 15.9219 17.6328 15.9219 18.5312C15.9219 19.0391 15.8438 19.5078 15.6484 19.8984C15.4922 20.3281 15.2188 20.6797 14.8672 20.9922C14.5156 21.3047 14.0859 21.5391 13.5781 21.6953C13.0703 21.8516 12.4844 21.9297 11.8594 21.9297ZM17.8359 21.7344V11.2656H20.1016V19.7422H24.0859V21.7344H17.8359Z" fill="black" fill-opacity="0.72"/>
</g>
</svg>
