<svg width="32" height="32" viewBox="0 0 32 32" fill="none" xmlns="http://www.w3.org/2000/svg">
<g id="standalone / md / arrow-up-arrow-down-md / regular">
<path id="icon" d="M11.4297 7.94531L15.1797 11.6953C15.4401 11.9818 15.4401 12.2682 15.1797 12.5547C14.8932 12.8151 14.6068 12.8151 14.3203 12.5547L11.625 9.89844V24.625C11.599 25.0156 11.3906 25.224 11 25.25C10.6094 25.224 10.401 25.0156 10.375 24.625V9.89844L7.67969 12.5547C7.39323 12.8151 7.10677 12.8151 6.82031 12.5547C6.5599 12.2682 6.5599 11.9818 6.82031 11.6953L10.5703 7.94531C10.8568 7.6849 11.1432 7.6849 11.4297 7.94531ZM25.1797 21.3047L21.4297 25.0547C21.1432 25.3151 20.8568 25.3151 20.5703 25.0547L16.8203 21.3047C16.5599 21.0182 16.5599 20.7318 16.8203 20.4453C17.1068 20.1849 17.3932 20.1849 17.6797 20.4453L20.375 23.1016V8.375C20.401 7.98438 20.6094 7.77604 21 7.75C21.3906 7.77604 21.599 7.98438 21.625 8.375V23.1016L24.3203 20.4453C24.6068 20.1849 24.8932 20.1849 25.1797 20.4453C25.4401 20.7318 25.4401 21.0182 25.1797 21.3047Z" fill="black" fill-opacity="0.72"/>
</g>
</svg>
