<svg width="32" height="32" viewBox="0 0 32 32" fill="none" xmlns="http://www.w3.org/2000/svg">
<g id="standalone / md / sun-bright-md / bold">
<path id="icon" d="M16.9375 7.4375V9.9375C16.8854 10.5104 16.5729 10.8229 16 10.875C15.4271 10.8229 15.1146 10.5104 15.0625 9.9375V7.4375C15.1146 6.86458 15.4271 6.55208 16 6.5C16.5729 6.55208 16.8854 6.86458 16.9375 7.4375ZM23.0703 10.7578L21.3125 12.5156C20.8698 12.8802 20.4271 12.8802 19.9844 12.5156C19.6198 12.0729 19.6198 11.6302 19.9844 11.1875L21.7422 9.42969C22.1849 9.0651 22.6276 9.0651 23.0703 9.42969C23.4349 9.8724 23.4349 10.3151 23.0703 10.7578ZM10.2578 9.42969L12.0156 11.1875C12.3802 11.6302 12.3802 12.0729 12.0156 12.5156C11.5729 12.8802 11.1302 12.8802 10.6875 12.5156L8.92969 10.7578C8.5651 10.3151 8.5651 9.8724 8.92969 9.42969C9.3724 9.0651 9.8151 9.0651 10.2578 9.42969ZM6.9375 15.5625H9.4375C10.0104 15.6146 10.3229 15.9271 10.375 16.5C10.3229 17.0729 10.0104 17.3854 9.4375 17.4375H6.9375C6.36458 17.3854 6.05208 17.0729 6 16.5C6.05208 15.9271 6.36458 15.6146 6.9375 15.5625ZM22.5625 15.5625H25.0625C25.6354 15.6146 25.9479 15.9271 26 16.5C25.9479 17.0729 25.6354 17.3854 25.0625 17.4375H22.5625C21.9896 17.3854 21.6771 17.0729 21.625 16.5C21.6771 15.9271 21.9896 15.6146 22.5625 15.5625ZM12.0156 21.8125L10.2578 23.5703C9.8151 23.9349 9.3724 23.9349 8.92969 23.5703C8.5651 23.1276 8.5651 22.6849 8.92969 22.2422L10.6875 20.4844C11.1302 20.1198 11.5729 20.1198 12.0156 20.4844C12.3802 20.9271 12.3802 21.3698 12.0156 21.8125ZM21.3125 20.4844L23.0703 22.2422C23.4349 22.6849 23.4349 23.1276 23.0703 23.5703C22.6276 23.9349 22.1849 23.9349 21.7422 23.5703L19.9844 21.8125C19.6198 21.3698 19.6198 20.9271 19.9844 20.4844C20.4271 20.1198 20.8698 20.1198 21.3125 20.4844ZM16.9375 23.0625V25.5625C16.8854 26.1354 16.5729 26.4479 16 26.5C15.4271 26.4479 15.1146 26.1354 15.0625 25.5625V23.0625C15.1146 22.4896 15.4271 22.1771 16 22.125C16.5729 22.1771 16.8854 22.4896 16.9375 23.0625ZM18.5 16.5C18.474 15.5625 18.0573 14.8464 17.25 14.3516C16.4167 13.8828 15.5833 13.8828 14.75 14.3516C13.9427 14.8464 13.526 15.5625 13.5 16.5C13.526 17.4375 13.9427 18.1536 14.75 18.6484C15.5833 19.1172 16.4167 19.1172 17.25 18.6484C18.0573 18.1536 18.474 17.4375 18.5 16.5ZM11.625 16.5C11.625 15.7188 11.8203 14.9896 12.2109 14.3125C12.6016 13.6354 13.1354 13.1016 13.8125 12.7109C14.4896 12.3203 15.2188 12.125 16 12.125C16.7812 12.125 17.5104 12.3203 18.1875 12.7109C18.8646 13.1016 19.3984 13.6354 19.7891 14.3125C20.1797 14.9896 20.375 15.7188 20.375 16.5C20.375 17.2812 20.1797 18.0104 19.7891 18.6875C19.3984 19.3646 18.8646 19.8984 18.1875 20.2891C17.5104 20.6797 16.7812 20.875 16 20.875C15.2188 20.875 14.4896 20.6797 13.8125 20.2891C13.1354 19.8984 12.6016 19.3646 12.2109 18.6875C11.8203 18.0104 11.625 17.2812 11.625 16.5Z" fill="black" fill-opacity="0.72"/>
</g>
</svg>
