<svg width="32" height="32" viewBox="0 0 32 32" fill="none" xmlns="http://www.w3.org/2000/svg">
<g id="standalone / md / floppy-disk-pen-md / bold">
<path id="icon" d="M6.625 10.25V22.75C6.65104 23.1406 6.85938 23.349 7.25 23.375H15.3359L14.8672 25.25H7.25C6.54688 25.224 5.96094 24.9766 5.49219 24.5078C5.02344 24.0391 4.77604 23.4531 4.75 22.75V10.25C4.77604 9.54688 5.02344 8.96094 5.49219 8.49219C5.96094 8.02344 6.54688 7.77604 7.25 7.75H16.8594C17.5365 7.75 18.1224 7.9974 18.6172 8.49219L21.5078 11.3828L20.1797 12.7109L17.2891 9.82031C17.263 9.79427 17.25 9.78125 17.25 9.78125V13.6875C17.1979 14.2604 16.8854 14.5729 16.3125 14.625H8.8125C8.23958 14.5729 7.92708 14.2604 7.875 13.6875V9.625H7.25C6.85938 9.65104 6.65104 9.85938 6.625 10.25ZM21.5078 11.3828C22.0026 11.8776 22.25 12.4766 22.25 13.1797V15.7188L20.375 17.5938V13.1797C20.375 12.9974 20.3099 12.8411 20.1797 12.7109L21.5078 11.3828ZM9.75 9.625V12.75H15.375V9.625H9.75ZM11 19C11.026 18.0625 11.4427 17.3464 12.25 16.8516C13.0833 16.3828 13.9167 16.3828 14.75 16.8516C15.5573 17.3464 15.974 18.0625 16 19C15.974 19.9375 15.5573 20.6536 14.75 21.1484C13.9167 21.6172 13.0833 21.6172 12.25 21.1484C11.4427 20.6536 11.026 19.9375 11 19ZM26.2344 15.7188L26.7812 16.2656C27.0938 16.6042 27.25 16.9688 27.25 17.3594C27.25 17.776 27.0938 18.1536 26.7812 18.4922L25.6484 19.625L22.875 16.8516L24.0078 15.7188C24.3464 15.4062 24.7109 15.25 25.1016 15.25C25.5182 15.25 25.8958 15.4062 26.2344 15.7188ZM16.9375 22.7891L21.9766 17.75L24.75 20.5234L19.7109 25.5625C19.5547 25.7188 19.3594 25.8359 19.125 25.9141L16.7812 26.5C16.5469 26.526 16.3516 26.4609 16.1953 26.3047C16.0391 26.1484 15.974 25.9531 16 25.7188L16.5859 23.375C16.6641 23.1406 16.7812 22.9453 16.9375 22.7891Z" fill="black" fill-opacity="0.72"/>
</g>
</svg>
