<svg width="32" height="32" viewBox="0 0 32 32" fill="none" xmlns="http://www.w3.org/2000/svg">
<g id="standalone / md / expand-md / bold">
<path id="icon" d="M12.5625 7.75C13.1354 7.80208 13.4479 8.11458 13.5 8.6875C13.4479 9.26042 13.1354 9.57292 12.5625 9.625H9.125V13.0625C9.07292 13.6354 8.76042 13.9479 8.1875 14C7.61458 13.9479 7.30208 13.6354 7.25 13.0625V8.6875C7.30208 8.11458 7.61458 7.80208 8.1875 7.75H12.5625ZM7.25 19.9375C7.30208 19.3646 7.61458 19.0521 8.1875 19C8.76042 19.0521 9.07292 19.3646 9.125 19.9375V23.375H12.5625C13.1354 23.4271 13.4479 23.7396 13.5 24.3125C13.4479 24.8854 13.1354 25.1979 12.5625 25.25H8.1875C7.61458 25.1979 7.30208 24.8854 7.25 24.3125V19.9375ZM23.8125 7.75C24.3854 7.80208 24.6979 8.11458 24.75 8.6875V13.0625C24.6979 13.6354 24.3854 13.9479 23.8125 14C23.2396 13.9479 22.9271 13.6354 22.875 13.0625V9.625H19.4375C18.8646 9.57292 18.5521 9.26042 18.5 8.6875C18.5521 8.11458 18.8646 7.80208 19.4375 7.75H23.8125ZM22.875 19.9375C22.9271 19.3646 23.2396 19.0521 23.8125 19C24.3854 19.0521 24.6979 19.3646 24.75 19.9375V24.3125C24.6979 24.8854 24.3854 25.1979 23.8125 25.25H19.4375C18.8646 25.1979 18.5521 24.8854 18.5 24.3125C18.5521 23.7396 18.8646 23.4271 19.4375 23.375H22.875V19.9375Z" fill="black" fill-opacity="0.72"/>
</g>
</svg>
