<svg width="32" height="32" viewBox="0 0 32 32" fill="none" xmlns="http://www.w3.org/2000/svg">
<g id="standalone / md / caret-up-md / regular">
<path id="icon" d="M15.7656 12.8281L11.0781 17.2812C11.026 17.3333 11 17.3984 11 17.4766C11.026 17.6328 11.1172 17.724 11.2734 17.75H20.7266C20.8828 17.724 20.974 17.6328 21 17.4766C21 17.3984 20.974 17.3333 20.9219 17.2812L16.2344 12.8281C16.1562 12.776 16.0781 12.75 16 12.75C15.9219 12.75 15.8438 12.776 15.7656 12.8281ZM14.9062 11.9297C15.2188 11.6432 15.5833 11.5 16 11.5C16.4167 11.5 16.7812 11.6432 17.0938 11.9297L21.7812 16.3828C22.0938 16.6693 22.25 17.0339 22.25 17.4766C22.25 17.9193 22.1068 18.2839 21.8203 18.5703C21.5339 18.8568 21.1693 19 20.7266 19H11.2734C10.8307 19 10.4661 18.8568 10.1797 18.5703C9.89323 18.2839 9.75 17.9193 9.75 17.4766C9.75 17.0339 9.90625 16.6562 10.2188 16.3438L14.9062 11.9297Z" fill="black" fill-opacity="0.72"/>
</g>
</svg>
