<svg width="32" height="32" viewBox="0 0 32 32" fill="none" xmlns="http://www.w3.org/2000/svg">
<g id="standalone / md / life-ring-md / bold">
<path id="icon" d="M21.0391 22.8672L17.9141 19.7422C17.3411 20.0807 16.7031 20.25 16 20.25C15.2969 20.25 14.6589 20.0807 14.0859 19.7422L10.9609 22.8672C12.3672 24.013 14.0469 24.599 16 24.625C17.9531 24.599 19.6328 24.013 21.0391 22.8672ZM23.6953 22.8672L24.1641 23.3359C24.5286 23.7786 24.5286 24.2214 24.1641 24.6641C23.7214 25.0286 23.2786 25.0286 22.8359 24.6641L22.3672 24.1953C20.5964 25.6797 18.474 26.4479 16 26.5C13.526 26.4479 11.4036 25.6797 9.63281 24.1953L9.16406 24.6641C8.72135 25.0286 8.27865 25.0286 7.83594 24.6641C7.47135 24.2214 7.47135 23.7786 7.83594 23.3359L8.30469 22.8672C6.82031 21.0964 6.05208 18.974 6 16.5C6.05208 14.026 6.82031 11.9036 8.30469 10.1328L7.83594 9.66406C7.47135 9.22135 7.47135 8.77865 7.83594 8.33594C8.27865 7.97135 8.72135 7.97135 9.16406 8.33594L9.63281 8.80469C11.4036 7.32031 13.526 6.55208 16 6.5C18.474 6.55208 20.5964 7.32031 22.3672 8.80469L22.8359 8.33594C23.2786 7.97135 23.7214 7.97135 24.1641 8.33594C24.5286 8.77865 24.5286 9.22135 24.1641 9.66406L23.6953 10.1328C25.1797 11.9036 25.9479 14.026 26 16.5C25.9479 18.974 25.1797 21.0964 23.6953 22.8672ZM22.3672 21.5391C23.513 20.1328 24.099 18.4531 24.125 16.5C24.099 14.5469 23.513 12.8672 22.3672 11.4609L19.2422 14.5859C19.5807 15.1589 19.75 15.7969 19.75 16.5C19.75 17.2031 19.5807 17.8411 19.2422 18.4141L22.3672 21.5391ZM21.0391 10.1328C19.6328 8.98698 17.9531 8.40104 16 8.375C14.0469 8.40104 12.3672 8.98698 10.9609 10.1328L14.0859 13.2578C14.6589 12.9193 15.2969 12.75 16 12.75C16.7031 12.75 17.3411 12.9193 17.9141 13.2578L21.0391 10.1328ZM12.7578 18.4141C12.4193 17.8411 12.25 17.2031 12.25 16.5C12.25 15.7969 12.4193 15.1589 12.7578 14.5859L9.63281 11.4609C8.48698 12.8672 7.90104 14.5469 7.875 16.5C7.90104 18.4531 8.48698 20.1328 9.63281 21.5391L12.7578 18.4141ZM14.125 16.5C14.151 17.2031 14.4635 17.75 15.0625 18.1406C15.6875 18.4531 16.3125 18.4531 16.9375 18.1406C17.5365 17.75 17.849 17.2031 17.875 16.5C17.849 15.7969 17.5365 15.25 16.9375 14.8594C16.3125 14.5469 15.6875 14.5469 15.0625 14.8594C14.4635 15.25 14.151 15.7969 14.125 16.5Z" fill="black" fill-opacity="0.72"/>
</g>
</svg>
