<svg width="32" height="32" viewBox="0 0 32 32" fill="none" xmlns="http://www.w3.org/2000/svg">
<g id="standalone / md / calendar-md / bold">
<path id="icon" d="M13.1875 7.4375V9H18.8125V7.4375C18.8646 6.86458 19.1771 6.55208 19.75 6.5C20.3229 6.55208 20.6354 6.86458 20.6875 7.4375V9H22.25C22.9531 9.02604 23.5391 9.27344 24.0078 9.74219C24.4766 10.2109 24.724 10.7969 24.75 11.5V12.125V14V24C24.724 24.7031 24.4766 25.2891 24.0078 25.7578C23.5391 26.2266 22.9531 26.474 22.25 26.5H9.75C9.04688 26.474 8.46094 26.2266 7.99219 25.7578C7.52344 25.2891 7.27604 24.7031 7.25 24V14V12.125V11.5C7.27604 10.7969 7.52344 10.2109 7.99219 9.74219C8.46094 9.27344 9.04688 9.02604 9.75 9H11.3125V7.4375C11.3646 6.86458 11.6771 6.55208 12.25 6.5C12.8229 6.55208 13.1354 6.86458 13.1875 7.4375ZM9.125 14V24C9.15104 24.3906 9.35938 24.599 9.75 24.625H22.25C22.6406 24.599 22.849 24.3906 22.875 24V14H9.125Z" fill="black" fill-opacity="0.72"/>
</g>
</svg>
