<svg width="32" height="32" viewBox="0 0 32 32" fill="none" xmlns="http://www.w3.org/2000/svg">
<g id="standalone / md / flag-checkered-md / regular">
<path id="icon" d="M8.5 7.125V8.80469L12.3281 7.75C13.9948 7.33333 15.5964 7.48958 17.1328 8.21875C17.9401 8.63542 18.7995 8.83073 19.7109 8.80469C20.6224 8.77865 21.4818 8.54427 22.2891 8.10156L22.875 7.75C23.3177 7.51562 23.7344 7.51562 24.125 7.75C24.5156 7.95833 24.724 8.3099 24.75 8.80469V19.8594C24.724 20.3802 24.4766 20.7578 24.0078 20.9922L22.7969 21.5C21.8073 21.9167 20.7917 22.112 19.75 22.0859C18.7083 22.0599 17.7057 21.7995 16.7422 21.3047C15.362 20.6536 13.9427 20.5104 12.4844 20.875L8.5 21.9688V25.875C8.47396 26.2656 8.26562 26.474 7.875 26.5C7.48438 26.474 7.27604 26.2656 7.25 25.875V22.3203V21.5V9.625V9.15625V7.125C7.27604 6.73438 7.48438 6.52604 7.875 6.5C8.26562 6.52604 8.47396 6.73438 8.5 7.125ZM8.5 10.0938V12.5156L12.25 11.7344V9.07812L8.5 10.0938ZM8.5 13.8047V16.5781L12.25 15.7969V12.9844L8.5 13.8047ZM13.5 12.7109V15.4844C14.3854 15.3281 15.2708 15.3802 16.1562 15.6406L18.5 16.3047V13.5703C18.4479 13.5443 18.3828 13.5182 18.3047 13.4922L15.8047 12.7891C15.0755 12.5807 14.3594 12.5547 13.6562 12.7109H13.5ZM19.75 13.7656V16.5781C20.349 16.6302 20.9349 16.5911 21.5078 16.4609L23.5 15.9922V13.2188L21.8203 13.6094C21.1172 13.7656 20.4271 13.8177 19.75 13.7656ZM18.5 17.6328C18.4479 17.6068 18.3828 17.5807 18.3047 17.5547L15.8047 16.8516C15.0755 16.6432 14.3594 16.6172 13.6562 16.7734H13.5V19.4688C14.8281 19.3646 16.0911 19.612 17.2891 20.2109C17.6797 20.3932 18.0833 20.5365 18.5 20.6406V17.6328ZM19.75 20.8359C20.6354 20.862 21.4948 20.6927 22.3281 20.3281L23.5 19.8594V17.2812L21.8203 17.6719C21.1172 17.8281 20.4271 17.8802 19.75 17.8281V20.8359ZM19.75 12.5156C20.349 12.5677 20.9349 12.5286 21.5078 12.3984L23.5 11.9297V8.84375L22.875 9.15625C21.8854 9.72917 20.8438 10.0286 19.75 10.0547V12.5156ZM18.5 9.97656C17.8229 9.8724 17.1719 9.66406 16.5469 9.35156C15.5833 8.88281 14.5677 8.70052 13.5 8.80469V11.4609C14.3854 11.2786 15.2708 11.3177 16.1562 11.5781L18.5 12.2812V9.97656ZM8.5 17.8672V20.6797L12.1328 19.7031C12.1849 19.6771 12.224 19.6641 12.25 19.6641V17.0469L8.5 17.8672Z" fill="black" fill-opacity="0.72"/>
</g>
</svg>
