<svg width="32" height="32" viewBox="0 0 32 32" fill="none" xmlns="http://www.w3.org/2000/svg">
<g id="standalone / md / clone-md / bold">
<path id="icon" d="M8.5 24.625H17.25C17.6406 24.599 17.849 24.3906 17.875 24V21.5H19.75V24C19.724 24.7031 19.4766 25.2891 19.0078 25.7578C18.5391 26.2266 17.9531 26.474 17.25 26.5H8.5C7.79688 26.474 7.21094 26.2266 6.74219 25.7578C6.27344 25.2891 6.02604 24.7031 6 24V15.25C6.02604 14.5469 6.27344 13.9609 6.74219 13.4922C7.21094 13.0234 7.79688 12.776 8.5 12.75H11V14.625H8.5C8.10938 14.651 7.90104 14.8594 7.875 15.25V24C7.90104 24.3906 8.10938 24.599 8.5 24.625ZM14.75 18.375H23.5C23.8906 18.349 24.099 18.1406 24.125 17.75V9C24.099 8.60938 23.8906 8.40104 23.5 8.375H14.75C14.3594 8.40104 14.151 8.60938 14.125 9V17.75C14.151 18.1406 14.3594 18.349 14.75 18.375ZM12.25 17.75V9C12.276 8.29688 12.5234 7.71094 12.9922 7.24219C13.4609 6.77344 14.0469 6.52604 14.75 6.5H23.5C24.2031 6.52604 24.7891 6.77344 25.2578 7.24219C25.7266 7.71094 25.974 8.29688 26 9V17.75C25.974 18.4531 25.7266 19.0391 25.2578 19.5078C24.7891 19.9766 24.2031 20.224 23.5 20.25H14.75C14.0469 20.224 13.4609 19.9766 12.9922 19.5078C12.5234 19.0391 12.276 18.4531 12.25 17.75Z" fill="black" fill-opacity="0.72"/>
</g>
</svg>
