<svg width="32" height="32" viewBox="0 0 32 32" fill="none" xmlns="http://www.w3.org/2000/svg">
<g id="standalone / md / chart-line-up-down-md / bold">
<path id="icon" d="M6.9375 7.75C7.51042 7.80208 7.82292 8.11458 7.875 8.6875V22.4375C7.92708 23.0104 8.23958 23.3229 8.8125 23.375H25.0625C25.6354 23.4271 25.9479 23.7396 26 24.3125C25.9479 24.8854 25.6354 25.1979 25.0625 25.25H8.8125C8.00521 25.224 7.34115 24.9505 6.82031 24.4297C6.29948 23.9089 6.02604 23.2448 6 22.4375V8.6875C6.05208 8.11458 6.36458 7.80208 6.9375 7.75ZM20.6875 10.875C20.1146 10.8229 19.8021 10.5104 19.75 9.9375C19.8021 9.36458 20.1146 9.05208 20.6875 9H23.8125C24.0729 9 24.2943 9.09115 24.4766 9.27344C24.6589 9.45573 24.75 9.67708 24.75 9.9375V13.0625C24.6979 13.6354 24.3854 13.9479 23.8125 14C23.2396 13.9479 22.9271 13.6354 22.875 13.0625V12.2031L17.9141 17.1641C17.4714 17.5286 17.0286 17.5286 16.5859 17.1641L14.125 14.7031L11.6641 17.1641C11.2214 17.5286 10.7786 17.5286 10.3359 17.1641C9.97135 16.7214 9.97135 16.2786 10.3359 15.8359L13.4609 12.7109C13.9036 12.3464 14.3464 12.3464 14.7891 12.7109L17.25 15.1719L21.5469 10.875H20.6875ZM20.6875 21.5C20.1146 21.4479 19.8021 21.1354 19.75 20.5625C19.8021 19.9896 20.1146 19.6771 20.6875 19.625H21.5469L19.7109 17.7891L21.0391 16.4609L22.875 18.2969V17.4375C22.9271 16.8646 23.2396 16.5521 23.8125 16.5C24.3854 16.5521 24.6979 16.8646 24.75 17.4375V20.5625C24.75 20.8229 24.6589 21.0443 24.4766 21.2266C24.2943 21.4089 24.0729 21.5 23.8125 21.5H20.6875Z" fill="black" fill-opacity="0.72"/>
</g>
</svg>
