<svg width="32" height="32" viewBox="0 0 32 32" fill="none" xmlns="http://www.w3.org/2000/svg">
<g id="standalone / md / circle-zero-md / regular">
<path id="icon" d="M16 7.75C14.4115 7.77604 12.9531 8.16667 11.625 8.92188C10.2969 9.70312 9.22917 10.7708 8.42188 12.125C7.64062 13.5052 7.25 14.9635 7.25 16.5C7.25 18.0365 7.64062 19.4948 8.42188 20.875C9.22917 22.2292 10.2969 23.2969 11.625 24.0781C12.9531 24.8333 14.4115 25.224 16 25.25C17.5885 25.224 19.0469 24.8333 20.375 24.0781C21.7031 23.2969 22.7708 22.2292 23.5781 20.875C24.3594 19.4948 24.75 18.0365 24.75 16.5C24.75 14.9635 24.3594 13.5052 23.5781 12.125C22.7708 10.7708 21.7031 9.70312 20.375 8.92188C19.0469 8.16667 17.5885 7.77604 16 7.75ZM16 26.5C14.1771 26.474 12.5104 26.0312 11 25.1719C9.48958 24.2865 8.26562 23.0625 7.32812 21.5C6.44271 19.9115 6 18.2448 6 16.5C6 14.7552 6.44271 13.0885 7.32812 11.5C8.26562 9.9375 9.48958 8.71354 11 7.82812C12.5104 6.96875 14.1771 6.52604 16 6.5C17.8229 6.52604 19.4896 6.96875 21 7.82812C22.5104 8.71354 23.7344 9.9375 24.6719 11.5C25.5573 13.0885 26 14.7552 26 16.5C26 18.2448 25.5573 19.9115 24.6719 21.5C23.7344 23.0625 22.5104 24.2865 21 25.1719C19.4896 26.0312 17.8229 26.474 16 26.5ZM16 11.5C17.0677 11.526 17.9531 11.8906 18.6562 12.5938C19.3594 13.2969 19.724 14.1823 19.75 15.25V17.75C19.724 18.8177 19.3594 19.7031 18.6562 20.4062C17.9531 21.1094 17.0677 21.474 16 21.5C14.9323 21.474 14.0469 21.1094 13.3438 20.4062C12.6406 19.7031 12.276 18.8177 12.25 17.75V15.25C12.276 14.1823 12.6406 13.2969 13.3438 12.5938C14.0469 11.8906 14.9323 11.526 16 11.5ZM13.5 15.25V17.75C13.526 18.4531 13.7734 19.0391 14.2422 19.5078C14.7109 19.9766 15.2969 20.224 16 20.25C16.7031 20.224 17.2891 19.9766 17.7578 19.5078C18.2266 19.0391 18.474 18.4531 18.5 17.75V15.25C18.474 14.5469 18.2266 13.9609 17.7578 13.4922C17.2891 13.0234 16.7031 12.776 16 12.75C15.2969 12.776 14.7109 13.0234 14.2422 13.4922C13.7734 13.9609 13.526 14.5469 13.5 15.25Z" fill="black" fill-opacity="0.72"/>
</g>
</svg>
