<svg width="32" height="32" viewBox="0 0 32 32" fill="none" xmlns="http://www.w3.org/2000/svg">
<g id="standalone / md / pen-md / regular">
<path id="icon" d="M21.4688 8.0625L19.3203 10.1719L22.3281 13.1797L24.4375 11.0312C24.8021 10.5885 24.8021 10.1458 24.4375 9.70312L22.7969 8.0625C22.3542 7.69792 21.9115 7.69792 21.4688 8.0625ZM18.4219 11.0703L9.24219 20.25C8.95573 20.5625 8.7474 20.9271 8.61719 21.3438L7.5625 24.9375L11.1562 23.8828C11.5729 23.7526 11.9375 23.5443 12.25 23.2578L21.4297 14.0781L18.4219 11.0703ZM23.6562 7.16406L25.3359 8.84375C25.7526 9.28646 25.9609 9.79427 25.9609 10.3672C25.9609 10.9661 25.7526 11.487 25.3359 11.9297L13.1094 24.1172C12.6667 24.5859 12.1458 24.9115 11.5469 25.0938L6.82031 26.4609C6.5599 26.5391 6.35156 26.487 6.19531 26.3047C6.01302 26.1484 5.96094 25.9531 6.03906 25.7188L7.40625 20.9922C7.58854 20.3672 7.90104 19.8333 8.34375 19.3906L20.5703 7.16406C21.013 6.7474 21.5339 6.53906 22.1328 6.53906C22.7057 6.53906 23.2135 6.7474 23.6562 7.16406Z" fill="black" fill-opacity="0.72"/>
</g>
</svg>
