<svg width="32" height="32" viewBox="0 0 32 32" fill="none" xmlns="http://www.w3.org/2000/svg">
<g id="standalone / md / circle-arrow-left-md / regular">
<path id="icon" d="M7.25 16.5C7.27604 18.0885 7.66667 19.5469 8.42188 20.875C9.20312 22.2031 10.2708 23.2708 11.625 24.0781C13.0052 24.8594 14.4635 25.25 16 25.25C17.5365 25.25 18.9948 24.8594 20.375 24.0781C21.7292 23.2708 22.7969 22.2031 23.5781 20.875C24.3333 19.5469 24.724 18.0885 24.75 16.5C24.724 14.9115 24.3333 13.4531 23.5781 12.125C22.7969 10.7969 21.7292 9.72917 20.375 8.92188C18.9948 8.14062 17.5365 7.75 16 7.75C14.4635 7.75 13.0052 8.14062 11.625 8.92188C10.2708 9.72917 9.20312 10.7969 8.42188 12.125C7.66667 13.4531 7.27604 14.9115 7.25 16.5ZM26 16.5C25.974 18.3229 25.5312 19.9896 24.6719 21.5C23.7865 23.0104 22.5625 24.2344 21 25.1719C19.4115 26.0573 17.7448 26.5 16 26.5C14.2552 26.5 12.5885 26.0573 11 25.1719C9.4375 24.2344 8.21354 23.0104 7.32812 21.5C6.46875 19.9896 6.02604 18.3229 6 16.5C6.02604 14.6771 6.46875 13.0104 7.32812 11.5C8.21354 9.98958 9.4375 8.76562 11 7.82812C12.5885 6.94271 14.2552 6.5 16 6.5C17.7448 6.5 19.4115 6.94271 21 7.82812C22.5625 8.76562 23.7865 9.98958 24.6719 11.5C25.5312 13.0104 25.974 14.6771 26 16.5ZM14.9453 12.3203C15.2318 12.0599 15.5182 12.0599 15.8047 12.3203C16.0651 12.6068 16.0651 12.8932 15.8047 13.1797L13.1484 15.875H20.375C20.7656 15.901 20.974 16.1094 21 16.5C20.974 16.8906 20.7656 17.099 20.375 17.125H13.1484L15.8047 19.8203C16.0651 20.1068 16.0651 20.3932 15.8047 20.6797C15.5182 20.9401 15.2318 20.9401 14.9453 20.6797L11.1953 16.9297C10.9349 16.6432 10.9349 16.3568 11.1953 16.0703L14.9453 12.3203Z" fill="black" fill-opacity="0.72"/>
</g>
</svg>
