<svg width="32" height="32" viewBox="0 0 32 32" fill="none" xmlns="http://www.w3.org/2000/svg">
<g id="standalone / md / horizontal-rule-dashed-md / bold">
<path id="icon" d="M3.5 16.5C3.5 15.9922 3.89062 15.5625 4.4375 15.5625H6.9375C7.44531 15.5625 7.875 15.9922 7.875 16.5C7.875 17.0469 7.44531 17.4375 6.9375 17.4375H4.4375C3.89062 17.4375 3.5 17.0469 3.5 16.5ZM10.375 16.5C10.375 15.9922 10.7656 15.5625 11.3125 15.5625H13.8125C14.3203 15.5625 14.75 15.9922 14.75 16.5C14.75 17.0469 14.3203 17.4375 13.8125 17.4375H11.3125C10.7656 17.4375 10.375 17.0469 10.375 16.5ZM17.25 16.5C17.25 15.9922 17.6406 15.5625 18.1875 15.5625H20.6875C21.1953 15.5625 21.625 15.9922 21.625 16.5C21.625 17.0469 21.1953 17.4375 20.6875 17.4375H18.1875C17.6406 17.4375 17.25 17.0469 17.25 16.5ZM24.125 16.5C24.125 15.9922 24.5156 15.5625 25.0625 15.5625H27.5625C28.0703 15.5625 28.5 15.9922 28.5 16.5C28.5 17.0469 28.0703 17.4375 27.5625 17.4375H25.0625C24.5156 17.4375 24.125 17.0469 24.125 16.5Z" fill="black" fill-opacity="0.72"/>
</g>
</svg>
