<svg width="32" height="32" viewBox="0 0 32 32" fill="none" xmlns="http://www.w3.org/2000/svg">
<g id="standalone / md / macos-md">
<path id="icon" d="M15.2578 18.6484C15.2578 20.3281 14.3984 21.3828 12.9922 21.3828C11.5859 21.3828 10.7266 20.3281 10.7266 18.6484C10.7266 16.9688 11.5859 15.9141 12.9922 15.9141C14.3984 15.9141 15.2578 16.9688 15.2578 18.6484ZM17.2109 12.7109L16.625 12.75C16.2734 12.7891 16.1172 12.9062 16.1172 13.1406C16.1172 13.375 16.3125 13.4922 16.5859 13.4922C16.9375 13.4922 17.2109 13.2578 17.2109 12.9453V12.7109ZM6 16.5C6 12.9453 7.875 9.66406 11 7.86719C14.0859 6.07031 17.875 6.07031 21 7.86719C24.0859 9.66406 26 12.9453 26 16.5C26 20.0938 24.0859 23.375 21 25.1719C17.875 26.9688 14.0859 26.9688 11 25.1719C7.875 23.375 6 20.0938 6 16.5ZM18.3047 12.5938C18.3047 13.4141 18.7344 13.9219 19.4766 13.9219C20.1016 13.9219 20.4922 13.5703 20.5312 13.0625H20.0625C19.9844 13.3359 19.7891 13.4922 19.4766 13.4922C19.0469 13.4922 18.8125 13.1406 18.8125 12.5938C18.8125 12.0469 19.0469 11.7344 19.4766 11.7344C19.7891 11.7344 20.0234 11.9297 20.0625 12.1641H20.5312C20.4922 11.6953 20.1016 11.3047 19.4766 11.3047C18.7344 11.3047 18.3047 11.8125 18.3047 12.5938ZM11.5859 11.3828V13.8438H12.0547V12.3203C12.0547 12.0078 12.2891 11.7344 12.6016 11.7344C12.875 11.7344 13.0703 11.9297 13.0703 12.2031V13.8438H13.5781V12.2812C13.5781 11.9688 13.7734 11.7344 14.0859 11.7344C14.3984 11.7344 14.5547 11.9297 14.5547 12.2422V13.8438H15.0625V12.125C15.0625 11.6172 14.7891 11.3047 14.2812 11.3047C13.9297 11.3047 13.6172 11.5 13.5 11.7734H13.4609C13.3438 11.5 13.1094 11.3047 12.7578 11.3047C12.4453 11.3047 12.1719 11.4609 12.0938 11.7734H12.0547V11.3438L11.5859 11.3828ZM16.1562 18.6484C16.1562 16.5 14.9453 15.1328 12.9922 15.1328C11.0781 15.1328 9.86719 16.5 9.86719 18.6484C9.86719 20.8359 11.0781 22.2031 12.9922 22.2031C14.9453 22.2031 16.1562 20.8359 16.1562 18.6484ZM16.4688 13.8828C16.7812 13.8828 17.0547 13.7656 17.2109 13.4922H17.25V13.8438H17.7188V12.1641C17.7188 11.6172 17.3672 11.3047 16.7422 11.3047C16.1953 11.3047 15.7656 11.5781 15.7266 12.0078H16.1953C16.2734 11.8125 16.4688 11.7344 16.7422 11.7344C17.0547 11.7344 17.25 11.8906 17.25 12.1641V12.3594L16.5469 12.3984C15.9609 12.4375 15.6484 12.7109 15.6484 13.1797C15.6094 13.6094 15.9609 13.8828 16.4688 13.8828ZM21.8594 20.1328C21.8594 19.1562 21.2734 18.6094 19.8672 18.2969L19.125 18.1016C18.1875 17.9062 17.7969 17.5547 17.7969 17.0078C17.7969 16.3047 18.4609 15.875 19.3203 15.875C20.2188 15.875 20.8047 16.3438 20.8828 17.0859H21.7422C21.7031 15.9531 20.6875 15.1328 19.3594 15.1328C17.9141 15.1328 16.9375 15.9141 16.9375 17.0469C16.9375 18.0234 17.5234 18.6484 18.8906 18.9219L19.6719 19.1172C20.6094 19.3125 21 19.7031 21 20.25C21 20.9531 20.2969 21.4219 19.3984 21.4219C18.3828 21.4219 17.7188 20.9922 17.6016 20.25H16.7812C16.8594 21.4219 17.8359 22.2031 19.3203 22.2031C20.8438 22.2031 21.8594 21.3828 21.8594 20.1328Z" fill="black" fill-opacity="0.72"/>
</g>
</svg>
