<svg width="32" height="32" viewBox="0 0 32 32" fill="none" xmlns="http://www.w3.org/2000/svg">
<g id="standalone / md / one-md / bold">
<path id="icon" d="M16.9375 8.6875V23.375H20.0625C20.6354 23.4271 20.9479 23.7396 21 24.3125C20.9479 24.8854 20.6354 25.1979 20.0625 25.25H16H11.9375C11.3646 25.1979 11.0521 24.8854 11 24.3125C11.0521 23.7396 11.3646 23.4271 11.9375 23.375H15.0625V10.3672L12.4062 11.9688C11.9115 12.2292 11.4818 12.138 11.1172 11.6953C10.8828 11.1745 10.987 10.7448 11.4297 10.4062L15.4922 7.90625C15.8047 7.72396 16.1302 7.71094 16.4688 7.86719C16.7812 8.04948 16.9375 8.32292 16.9375 8.6875Z" fill="black" fill-opacity="0.72"/>
</g>
</svg>
