<svg width="32" height="32" viewBox="0 0 32 32" fill="none" xmlns="http://www.w3.org/2000/svg">
<g id="standalone / md / chart-trend-up-md / bold">
<path id="icon" d="M27.6406 6.92969C28.1094 7.16406 28.3047 7.71094 28.0703 8.17969L24.3203 15.6797C24.1641 15.9922 23.8516 16.1875 23.4609 16.1875H17.7969L13.0703 25.6797C12.8359 26.1484 12.2891 26.3438 11.8203 26.1094L4.32031 22.3594C3.85156 22.125 3.65625 21.5781 3.89062 21.1094C4.125 20.6406 4.67188 20.4453 5.14062 20.6797L11.8203 24L16.3906 14.8594C16.5469 14.5469 16.8594 14.3125 17.25 14.3125H22.9141L26.3906 7.35938C26.625 6.89062 27.1719 6.69531 27.6406 6.92969Z" fill="black" fill-opacity="0.72"/>
</g>
</svg>
