<svg width="32" height="32" viewBox="0 0 32 32" fill="none" xmlns="http://www.w3.org/2000/svg">
<g id="standalone / md / arrows-rotate-md / bold">
<path id="icon" d="M25.375 14.3125C25.3229 14.8854 25.0104 15.1979 24.4375 15.25H20.0625H18.8125C18.2396 15.1979 17.9271 14.8854 17.875 14.3125C17.9271 13.7396 18.2396 13.4271 18.8125 13.375H20.0625H22.1719L20.1406 11.3438C18.9948 10.224 17.6146 9.65104 16 9.625C14.5677 9.65104 13.2917 10.0417 12.1719 10.7969C11.0521 11.5521 10.2188 12.5547 9.67188 13.8047C9.41146 14.3255 9.00781 14.4948 8.46094 14.3125C7.9401 14.026 7.77083 13.6094 7.95312 13.0625C8.63021 11.474 9.6849 10.1979 11.1172 9.23438C12.5495 8.27083 14.1771 7.77604 16 7.75C18.1094 7.77604 19.9323 8.53125 21.4688 10.0156L23.5 12.0469V9.9375V8.6875C23.5521 8.11458 23.8646 7.80208 24.4375 7.75C25.0104 7.80208 25.3229 8.11458 25.375 8.6875V14.3125ZM7.5625 17.75H11.9375C12.5104 17.8021 12.8229 18.1146 12.875 18.6875C12.8229 19.2604 12.5104 19.5729 11.9375 19.625H9.82812L11.8594 21.6562C13.0052 22.776 14.3854 23.349 16 23.375C17.4323 23.349 18.7083 22.9583 19.8281 22.2031C20.9479 21.4479 21.7812 20.4453 22.3281 19.1953C22.5885 18.7005 22.9922 18.5443 23.5391 18.7266C24.0599 18.987 24.2292 19.3906 24.0469 19.9375C23.3438 21.526 22.2891 22.8021 20.8828 23.7656C19.4505 24.7292 17.8229 25.224 16 25.25C13.8906 25.224 12.0677 24.4688 10.5312 22.9844L8.5 20.9531V23.0625C8.44792 23.6354 8.13542 23.9479 7.5625 24C6.98958 23.9479 6.67708 23.6354 6.625 23.0625V18.6875C6.67708 18.1146 6.98958 17.8021 7.5625 17.75Z" fill="black" fill-opacity="0.72"/>
</g>
</svg>
