<svg width="32" height="32" viewBox="0 0 32 32" fill="none" xmlns="http://www.w3.org/2000/svg">
<g id="standalone / md / at-md / regular">
<path id="icon" d="M16 7.75C14.3594 7.77604 12.888 8.17969 11.5859 8.96094C10.2578 9.71615 9.21615 10.7578 8.46094 12.0859C7.67969 13.388 7.27604 14.8594 7.25 16.5C7.27604 18.1406 7.67969 19.612 8.46094 20.9141C9.21615 22.2422 10.2578 23.2839 11.5859 24.0391C12.888 24.8203 14.3594 25.224 16 25.25C16.3906 25.276 16.599 25.4844 16.625 25.875C16.599 26.2656 16.3906 26.474 16 26.5C14.125 26.474 12.4453 26.0182 10.9609 25.1328C9.45052 24.2474 8.2526 23.0495 7.36719 21.5391C6.48177 20.0547 6.02604 18.375 6 16.5C6.02604 14.625 6.48177 12.9453 7.36719 11.4609C8.2526 9.95052 9.45052 8.7526 10.9609 7.86719C12.4453 6.98177 14.125 6.52604 16 6.5C17.875 6.52604 19.5547 6.98177 21.0391 7.86719C22.5495 8.7526 23.7474 9.95052 24.6328 11.4609C25.5182 12.9453 25.974 14.625 26 16.5V17.4375C25.974 18.401 25.6354 19.2083 24.9844 19.8594C24.3333 20.5104 23.526 20.849 22.5625 20.875C21.9115 20.875 21.3125 20.7057 20.7656 20.3672C20.2448 20.0547 19.8411 19.625 19.5547 19.0781C18.6953 20.224 17.5104 20.8229 16 20.875C14.75 20.849 13.7214 20.4193 12.9141 19.5859C12.0807 18.7786 11.651 17.75 11.625 16.5C11.651 15.25 12.0807 14.2214 12.9141 13.4141C13.7214 12.5807 14.75 12.151 16 12.125C17.25 12.151 18.2917 12.5938 19.125 13.4531V13.375C19.151 12.9844 19.3594 12.776 19.75 12.75C20.1406 12.776 20.349 12.9844 20.375 13.375V16.5V17.4375C20.401 18.0625 20.6094 18.5833 21 19C21.4167 19.3906 21.9375 19.599 22.5625 19.625C23.1875 19.599 23.7083 19.3906 24.125 19C24.5156 18.5833 24.724 18.0625 24.75 17.4375V16.5C24.724 14.8594 24.3203 13.388 23.5391 12.0859C22.7839 10.7578 21.7422 9.71615 20.4141 8.96094C19.112 8.17969 17.6406 7.77604 16 7.75ZM19.125 16.5C19.099 15.3281 18.5781 14.4297 17.5625 13.8047C16.5208 13.2318 15.4792 13.2318 14.4375 13.8047C13.4219 14.4297 12.901 15.3281 12.875 16.5C12.901 17.6719 13.4219 18.5703 14.4375 19.1953C15.4792 19.7682 16.5208 19.7682 17.5625 19.1953C18.5781 18.5703 19.099 17.6719 19.125 16.5Z" fill="black" fill-opacity="0.72"/>
</g>
</svg>
