<svg width="32" height="32" viewBox="0 0 32 32" fill="none" xmlns="http://www.w3.org/2000/svg">
<g id="standalone / md / circle-six-md / regular">
<path id="icon" d="M16 7.75C14.4115 7.77604 12.9531 8.16667 11.625 8.92188C10.2969 9.70312 9.22917 10.7708 8.42188 12.125C7.64062 13.5052 7.25 14.9635 7.25 16.5C7.25 18.0365 7.64062 19.4948 8.42188 20.875C9.22917 22.2292 10.2969 23.2969 11.625 24.0781C12.9531 24.8333 14.4115 25.224 16 25.25C17.5885 25.224 19.0469 24.8333 20.375 24.0781C21.7031 23.2969 22.7708 22.2292 23.5781 20.875C24.3594 19.4948 24.75 18.0365 24.75 16.5C24.75 14.9635 24.3594 13.5052 23.5781 12.125C22.7708 10.7708 21.7031 9.70312 20.375 8.92188C19.0469 8.16667 17.5885 7.77604 16 7.75ZM16 26.5C14.1771 26.474 12.5104 26.0312 11 25.1719C9.48958 24.2865 8.26562 23.0625 7.32812 21.5C6.44271 19.9115 6 18.2448 6 16.5C6 14.7552 6.44271 13.0885 7.32812 11.5C8.26562 9.9375 9.48958 8.71354 11 7.82812C12.5104 6.96875 14.1771 6.52604 16 6.5C17.8229 6.52604 19.4896 6.96875 21 7.82812C22.5104 8.71354 23.7344 9.9375 24.6719 11.5C25.5573 13.0885 26 14.7552 26 16.5C26 18.2448 25.5573 19.9115 24.6719 21.5C23.7344 23.0625 22.5104 24.2865 21 25.1719C19.4896 26.0312 17.8229 26.474 16 26.5ZM17.7188 11.6953C17.9531 12.0078 17.9401 12.3073 17.6797 12.5938L16.1562 14C17.1719 14.0521 18.0182 14.4297 18.6953 15.1328C19.3724 15.8359 19.724 16.7083 19.75 17.75C19.724 18.8177 19.3594 19.7031 18.6562 20.4062C17.9531 21.1094 17.0677 21.474 16 21.5C14.9323 21.474 14.0469 21.1094 13.3438 20.4062C12.6406 19.7031 12.276 18.8177 12.25 17.75C12.276 16.526 12.7188 15.4974 13.5781 14.6641L16.8203 11.6562C17.1328 11.4219 17.4323 11.4349 17.7188 11.6953ZM16 15.25C15.0625 15.276 14.3464 15.6927 13.8516 16.5C13.3828 17.3333 13.3828 18.1667 13.8516 19C14.3464 19.8073 15.0625 20.224 16 20.25C16.9375 20.224 17.6536 19.8073 18.1484 19C18.6172 18.1667 18.6172 17.3333 18.1484 16.5C17.6536 15.6927 16.9375 15.276 16 15.25Z" fill="black" fill-opacity="0.72"/>
</g>
</svg>
