<svg width="32" height="32" viewBox="0 0 32 32" fill="none" xmlns="http://www.w3.org/2000/svg">
<g id="standalone / md / microsoft-store-md">
<path id="icon" d="M12.0742 11.5V9.27344C12.0742 7.90625 12.7773 7.47656 14.1055 7.16406C16.0977 6.69531 16.2148 7.98438 16.2148 8.80469V10.6797L16.7227 10.6016V8.84375C16.7227 7.28125 16.2148 6.14844 14.0273 6.65625C12.8164 6.89062 11.6055 7.20312 11.6055 9.23438V11.6172L12.0742 11.5ZM17.1914 8.41406C17.1523 8.21875 17.1133 8.0625 17.1133 7.90625C18.6367 7.71094 18.9102 8.14062 18.9102 9.85938V10.1719L18.4414 10.25V9.85938C18.4414 9.82031 18.4414 9.82031 18.4414 9.78125C18.4414 8.72656 18.4414 8.21875 17.1914 8.41406ZM14.2617 10.3281C14.2617 8.76562 14.8867 8.53125 15.668 8.25781C15.707 8.41406 15.7461 8.57031 15.7461 8.76562C15.043 9.07812 14.7695 9.27344 14.7695 10.3281V10.9922L14.2617 11.0703V10.3281ZM7.93359 12.9453L21.332 10.25L24.0273 11.2266V24.3516L21.332 25.3281L7.93359 22.6719V12.9453ZM10.8242 20.25L13.793 20.6406V17.7891H10.8242V20.25ZM10.8242 17.3984H13.793V14.7031L10.8242 15.1328V17.3984ZM14.1836 20.6797L17.9336 21.2266V17.7891H14.1836V20.6797ZM14.1836 17.3984H17.9336V14.1562L14.1836 14.7031V17.3984Z" fill="black" fill-opacity="0.72"/>
</g>
</svg>
