<svg width="32" height="32" viewBox="0 0 32 32" fill="none" xmlns="http://www.w3.org/2000/svg">
<g id="standalone / md / sort-down-md / regular">
<path id="icon" d="M15.7656 23.9219C15.8438 23.974 15.9219 24 16 24C16.0781 24 16.1562 23.974 16.2344 23.9219L20.9219 19.4688C20.974 19.4167 21 19.3516 21 19.2734C20.974 19.1172 20.8828 19.026 20.7266 19H11.2734C11.1172 19.026 11.026 19.1172 11 19.2734C11 19.3516 11.026 19.4167 11.0781 19.4688L15.7656 23.9219ZM14.9062 24.8203L10.2188 20.4062C9.90625 20.0938 9.75 19.7161 9.75 19.2734C9.75 18.8307 9.89323 18.4661 10.1797 18.1797C10.4661 17.8932 10.8307 17.75 11.2734 17.75H20.7266C21.1693 17.75 21.5339 17.8932 21.8203 18.1797C22.1068 18.4661 22.25 18.8307 22.25 19.2734C22.25 19.7161 22.0938 20.0938 21.7812 20.4062L17.0938 24.8203C16.7812 25.1068 16.4167 25.25 16 25.25C15.5833 25.25 15.2188 25.1068 14.9062 24.8203Z" fill="black" fill-opacity="0.72"/>
</g>
</svg>
