<svg width="32" height="32" viewBox="0 0 32 32" fill="none" xmlns="http://www.w3.org/2000/svg">
<g id="standalone / md / circle-sterling-md / bold">
<path id="icon" d="M24.125 16.5C24.125 15.0156 23.7604 13.6615 23.0312 12.4375C22.3281 11.2135 21.3385 10.224 20.0625 9.46875C18.7865 8.73958 17.4323 8.375 16 8.375C14.5677 8.375 13.2135 8.73958 11.9375 9.46875C10.6615 10.224 9.67188 11.2135 8.96875 12.4375C8.23958 13.6615 7.875 15.0156 7.875 16.5C7.875 17.9844 8.23958 19.3385 8.96875 20.5625C9.67188 21.7865 10.6615 22.776 11.9375 23.5312C13.2135 24.2604 14.5677 24.625 16 24.625C17.4323 24.625 18.7865 24.2604 20.0625 23.5312C21.3385 22.776 22.3281 21.7865 23.0312 20.5625C23.7604 19.3385 24.125 17.9844 24.125 16.5ZM6 16.5C6.02604 14.6771 6.46875 13.0104 7.32812 11.5C8.21354 9.98958 9.4375 8.76562 11 7.82812C12.5885 6.94271 14.2552 6.5 16 6.5C17.7448 6.5 19.4115 6.94271 21 7.82812C22.5625 8.76562 23.7865 9.98958 24.6719 11.5C25.5312 13.0104 25.974 14.6771 26 16.5C25.974 18.3229 25.5312 19.9896 24.6719 21.5C23.7865 23.0104 22.5625 24.2344 21 25.1719C19.4115 26.0573 17.7448 26.5 16 26.5C14.2552 26.5 12.5885 26.0573 11 25.1719C9.4375 24.2344 8.21354 23.0104 7.32812 21.5C6.46875 19.9896 6.02604 18.3229 6 16.5ZM16.2344 12.75C15.8958 12.75 15.6094 12.8672 15.375 13.1016C15.1406 13.3359 15.0234 13.6224 15.0234 13.9609V15.25H16.625C17.0156 15.276 17.224 15.4844 17.25 15.875C17.224 16.2656 17.0156 16.474 16.625 16.5H15.0625V16.8906C15.0625 17.6198 14.9323 18.3229 14.6719 19H18.8125C19.3854 19.0521 19.6979 19.3646 19.75 19.9375C19.6979 20.5104 19.3854 20.8229 18.8125 20.875H13.1875C12.849 20.875 12.5885 20.7318 12.4062 20.4453C12.224 20.1328 12.2109 19.8203 12.3672 19.5078L12.7188 18.7656C13.0312 18.1927 13.1875 17.5677 13.1875 16.8906V16.5H12.875C12.4844 16.474 12.276 16.2656 12.25 15.875C12.276 15.4844 12.4844 15.276 12.875 15.25H13.1875L13.1484 13.9609C13.1745 13.0755 13.474 12.3464 14.0469 11.7734C14.6198 11.2005 15.349 10.901 16.2344 10.875C16.625 10.875 17.0026 10.9531 17.3672 11.1094L18.5391 11.5781C19.0599 11.8385 19.2292 12.2422 19.0469 12.7891C18.7865 13.2839 18.3828 13.4531 17.8359 13.2969L16.6641 12.8281C16.5078 12.776 16.3646 12.75 16.2344 12.75Z" fill="black" fill-opacity="0.72"/>
</g>
</svg>
