<svg width="32" height="32" viewBox="0 0 32 32" fill="none" xmlns="http://www.w3.org/2000/svg">
<g id="standalone / md / paste-md / regular">
<path id="icon" d="M11.3516 8.49219C11.2474 8.80469 11.0391 8.97396 10.7266 9H10.375C9.98438 9.02604 9.77604 9.23438 9.75 9.625V10.25H14.75V9.625C14.724 9.23438 14.5156 9.02604 14.125 9H13.7734C13.4609 8.97396 13.2656 8.80469 13.1875 8.49219C13.0573 8.02344 12.7448 7.77604 12.25 7.75C11.7552 7.77604 11.4557 8.02344 11.3516 8.49219ZM12.25 6.5C13.1615 6.55208 13.8255 6.96875 14.2422 7.75H16C16.7031 7.77604 17.2891 8.02344 17.7578 8.49219C18.2266 8.96094 18.474 9.54688 18.5 10.25H17.25C17.25 9.88542 17.1328 9.58594 16.8984 9.35156C16.6641 9.11719 16.3646 9 16 9H15.8828C15.9609 9.20833 16 9.41667 16 9.625V10.25C16 10.25 16 10.263 16 10.2891C16 10.2891 16 10.3021 16 10.3281C15.2188 10.4844 14.5938 10.875 14.125 11.5H9.75C9.38542 11.5 9.08594 11.3828 8.85156 11.1484C8.61719 10.9141 8.5 10.6146 8.5 10.25V9.625C8.5 9.41667 8.53906 9.20833 8.61719 9H8.5C8.13542 9 7.83594 9.11719 7.60156 9.35156C7.36719 9.58594 7.25 9.88542 7.25 10.25V21.5C7.25 21.8646 7.36719 22.1641 7.60156 22.3984C7.83594 22.6328 8.13542 22.75 8.5 22.75H13.5V24H8.5C7.79688 23.974 7.21094 23.7266 6.74219 23.2578C6.27344 22.7891 6.02604 22.2031 6 21.5V10.25C6.02604 9.54688 6.27344 8.96094 6.74219 8.49219C7.21094 8.02344 7.79688 7.77604 8.5 7.75H10.2578C10.6745 6.96875 11.3385 6.55208 12.25 6.5ZM23.5 25.25C23.8646 25.25 24.1641 25.1328 24.3984 24.8984C24.6328 24.6641 24.75 24.3646 24.75 24V16.0312C24.75 15.849 24.6849 15.7057 24.5547 15.6016L21.8984 12.9453C21.7943 12.8151 21.651 12.75 21.4688 12.75H17.25C16.8854 12.75 16.5859 12.8672 16.3516 13.1016C16.1172 13.3359 16 13.6354 16 14V24C16 24.3646 16.1172 24.6641 16.3516 24.8984C16.5859 25.1328 16.8854 25.25 17.25 25.25H23.5ZM25.4531 14.7031C25.8177 15.0677 26 15.5104 26 16.0312V24C25.974 24.7031 25.7266 25.2891 25.2578 25.7578C24.7891 26.2266 24.2031 26.474 23.5 26.5H17.25C16.5469 26.474 15.9609 26.2266 15.4922 25.7578C15.0234 25.2891 14.776 24.7031 14.75 24V14C14.776 13.2969 15.0234 12.7109 15.4922 12.2422C15.9609 11.7734 16.5469 11.526 17.25 11.5H21.4688C21.9896 11.5 22.4323 11.6823 22.7969 12.0469L25.4531 14.7031Z" fill="black" fill-opacity="0.72"/>
</g>
</svg>
