<svg width="32" height="32" viewBox="0 0 32 32" fill="none" xmlns="http://www.w3.org/2000/svg">
<g id="standalone / md / circle-two-md / bold">
<path id="icon" d="M16 8.375C14.5156 8.375 13.1615 8.73958 11.9375 9.46875C10.7135 10.1719 9.72396 11.1615 8.96875 12.4375C8.23958 13.7135 7.875 15.0677 7.875 16.5C7.875 17.9323 8.23958 19.2865 8.96875 20.5625C9.72396 21.8385 10.7135 22.8281 11.9375 23.5312C13.1615 24.2604 14.5156 24.625 16 24.625C17.4844 24.625 18.8385 24.2604 20.0625 23.5312C21.2865 22.8281 22.276 21.8385 23.0312 20.5625C23.7604 19.2865 24.125 17.9323 24.125 16.5C24.125 15.0677 23.7604 13.7135 23.0312 12.4375C22.276 11.1615 21.2865 10.1719 20.0625 9.46875C18.8385 8.73958 17.4844 8.375 16 8.375ZM16 26.5C14.1771 26.474 12.5104 26.0312 11 25.1719C9.48958 24.2865 8.26562 23.0625 7.32812 21.5C6.44271 19.9115 6 18.2448 6 16.5C6 14.7552 6.44271 13.0885 7.32812 11.5C8.26562 9.9375 9.48958 8.71354 11 7.82812C12.5104 6.96875 14.1771 6.52604 16 6.5C17.8229 6.52604 19.4896 6.96875 21 7.82812C22.5104 8.71354 23.7344 9.9375 24.6719 11.5C25.5573 13.0885 26 14.7552 26 16.5C26 18.2448 25.5573 19.9115 24.6719 21.5C23.7344 23.0625 22.5104 24.2865 21 25.1719C19.4896 26.0312 17.8229 26.474 16 26.5ZM14.7109 13.7266L13.7734 14.4297C13.2786 14.7422 12.8359 14.6771 12.4453 14.2344C12.1328 13.7656 12.1979 13.3359 12.6406 12.9453L13.5781 12.2031C14.2031 11.7344 14.9193 11.5 15.7266 11.5H15.8438C16.7812 11.5521 17.5625 11.8906 18.1875 12.5156C18.7865 13.1406 19.099 13.9219 19.125 14.8594C19.099 15.7969 18.7474 16.6042 18.0703 17.2812L15.5703 19.625H18.8125C19.3854 19.6771 19.6979 19.9896 19.75 20.5625C19.6979 21.1354 19.3854 21.4479 18.8125 21.5H13.1875C12.7708 21.474 12.4844 21.2786 12.3281 20.9141C12.1979 20.5234 12.276 20.1849 12.5625 19.8984L16.7812 15.9141C17.0938 15.6276 17.25 15.276 17.25 14.8594C17.25 14.4427 17.1068 14.1042 16.8203 13.8438C16.5599 13.5573 16.2214 13.4141 15.8047 13.4141L15.6875 13.375C15.3229 13.375 14.9974 13.4922 14.7109 13.7266Z" fill="black" fill-opacity="0.72"/>
</g>
</svg>
