<svg width="32" height="32" viewBox="0 0 32 32" fill="none" xmlns="http://www.w3.org/2000/svg">
<g id="standalone / md / arrow-right-arrow-left-md / bold">
<path id="icon" d="M11.2734 25.9141L7.52344 22.1641C7.15885 21.7214 7.15885 21.2786 7.52344 20.8359L11.2734 17.0859C11.7161 16.7214 12.1589 16.7214 12.6016 17.0859C12.9661 17.5286 12.9661 17.9714 12.6016 18.4141L10.4531 20.5625H23.8125C24.3854 20.6146 24.6979 20.9271 24.75 21.5C24.6979 22.0729 24.3854 22.3854 23.8125 22.4375H10.4531L12.6016 24.5859C12.9661 25.0286 12.9661 25.4714 12.6016 25.9141C12.1589 26.2786 11.7161 26.2786 11.2734 25.9141ZM24.4766 12.1641L20.7266 15.9141C20.2839 16.2786 19.8411 16.2786 19.3984 15.9141C19.0339 15.4714 19.0339 15.0286 19.3984 14.5859L21.5469 12.4375H8.1875C7.61458 12.3854 7.30208 12.0729 7.25 11.5C7.30208 10.9271 7.61458 10.6146 8.1875 10.5625H21.5469L19.3984 8.41406C19.0339 7.97135 19.0339 7.52865 19.3984 7.08594C19.8411 6.72135 20.2839 6.72135 20.7266 7.08594L24.4766 10.8359C24.8411 11.2786 24.8411 11.7214 24.4766 12.1641Z" fill="black" fill-opacity="0.72"/>
</g>
</svg>
