<svg width="32" height="32" viewBox="0 0 32 32" fill="none" xmlns="http://www.w3.org/2000/svg">
<g id="standalone / md / square-md / regular">
<path id="icon" d="M22.25 9H9.75C9.38542 9 9.08594 9.11719 8.85156 9.35156C8.61719 9.58594 8.5 9.88542 8.5 10.25V22.75C8.5 23.1146 8.61719 23.4141 8.85156 23.6484C9.08594 23.8828 9.38542 24 9.75 24H22.25C22.6146 24 22.9141 23.8828 23.1484 23.6484C23.3828 23.4141 23.5 23.1146 23.5 22.75V10.25C23.5 9.88542 23.3828 9.58594 23.1484 9.35156C22.9141 9.11719 22.6146 9 22.25 9ZM9.75 7.75H22.25C22.9531 7.77604 23.5391 8.02344 24.0078 8.49219C24.4766 8.96094 24.724 9.54688 24.75 10.25V22.75C24.724 23.4531 24.4766 24.0391 24.0078 24.5078C23.5391 24.9766 22.9531 25.224 22.25 25.25H9.75C9.04688 25.224 8.46094 24.9766 7.99219 24.5078C7.52344 24.0391 7.27604 23.4531 7.25 22.75V10.25C7.27604 9.54688 7.52344 8.96094 7.99219 8.49219C8.46094 8.02344 9.04688 7.77604 9.75 7.75Z" fill="black" fill-opacity="0.72"/>
</g>
</svg>
