<svg width="32" height="32" viewBox="0 0 32 32" fill="none" xmlns="http://www.w3.org/2000/svg">
<g id="standalone / md / file-certificate-md / regular">
<path id="icon" d="M24.75 24V14H20.375C19.8542 13.974 19.4115 13.7917 19.0469 13.4531C18.7083 13.0885 18.526 12.6458 18.5 12.125V7.75H13.5C13.1354 7.75 12.8359 7.86719 12.6016 8.10156C12.3672 8.33594 12.25 8.63542 12.25 9V11.5C11.9115 11.474 11.5859 11.526 11.2734 11.6562C11.1953 11.6823 11.1172 11.7083 11.0391 11.7344C11.0391 11.7604 11.026 11.7734 11 11.7734V9C11.026 8.29688 11.2734 7.71094 11.7422 7.24219C12.2109 6.77344 12.7969 6.52604 13.5 6.5H19.5938C20.1146 6.5 20.5573 6.68229 20.9219 7.04688L25.4531 11.5781C25.8177 11.9427 26 12.3854 26 12.9062V24C25.974 24.7031 25.7266 25.2891 25.2578 25.7578C24.7891 26.2266 24.2031 26.474 23.5 26.5H14.6328C14.7109 26.2917 14.75 26.0833 14.75 25.875V25.25H23.5C23.8646 25.25 24.1641 25.1328 24.3984 24.8984C24.6328 24.6641 24.75 24.3646 24.75 24ZM24.75 12.75C24.6979 12.6458 24.6328 12.5547 24.5547 12.4766L20.0234 7.94531C19.9453 7.86719 19.8542 7.8151 19.75 7.78906V12.125C19.776 12.5156 19.9844 12.724 20.375 12.75H24.75ZM8.73438 20.5234C9.15104 20.5755 9.48958 20.7708 9.75 21.1094L10.0234 21.4219L10.4141 21.2656C10.8047 21.1094 11.1953 21.1094 11.5859 21.2656L11.9766 21.4219L12.25 21.1094C12.5104 20.7708 12.849 20.5755 13.2656 20.5234L13.6953 20.4453L13.7734 20.0156L14.9844 20.2109L14.9062 20.8359C14.8281 21.3047 14.5547 21.5781 14.0859 21.6562L13.5 21.7344V25.875C13.5 26.1094 13.3958 26.2917 13.1875 26.4219C12.9531 26.526 12.7318 26.513 12.5234 26.3828L11 25.3672L9.47656 26.3828C9.26823 26.513 9.0599 26.526 8.85156 26.4219C8.61719 26.2917 8.5 26.1094 8.5 25.875V21.7344L7.91406 21.6562C7.44531 21.5781 7.17188 21.3047 7.09375 20.8359L7.01562 20.1719C6.98958 20.0938 6.95052 20.0286 6.89844 19.9766L6.35156 19.5859C6.01302 19.2734 5.92188 18.9089 6.07812 18.4922L6.3125 17.8672C6.33854 17.7891 6.33854 17.7109 6.3125 17.6328L6.07812 17.0078C5.92188 16.5911 6.01302 16.2266 6.35156 15.9141L6.89844 15.5234L7.64062 16.5L7.32812 16.7734L7.48438 17.1641C7.64062 17.5547 7.64062 17.9453 7.48438 18.3359L7.32812 18.7266L7.64062 19L6.89844 19.9766L7.64062 19C7.97917 19.2604 8.1875 19.599 8.26562 20.0156L8.30469 20.4453L8.73438 20.5234L8.65625 21.1094L8.73438 20.5234ZM6.89844 15.5234C6.95052 15.4714 6.98958 15.4062 7.01562 15.3281L7.09375 14.6641C7.17188 14.1953 7.44531 13.9219 7.91406 13.8438L8.57812 13.7656C8.65625 13.7396 8.72135 13.7005 8.77344 13.6484L9.16406 13.1016C9.47656 12.763 9.84115 12.6719 10.2578 12.8281L10.8828 13.0625C10.9609 13.0885 11.0391 13.0885 11.1172 13.0625L11.7422 12.8281C12.1589 12.6719 12.5234 12.763 12.8359 13.1016L13.2266 13.6484C13.2786 13.7005 13.3568 13.7396 13.4609 13.7656L14.125 13.8438C14.5677 13.9219 14.8281 14.1953 14.9062 14.6641L14.9844 15.3281C15.0104 15.4062 15.0495 15.4714 15.1016 15.5234L15.6484 15.9141C15.987 16.2266 16.0781 16.5911 15.9219 17.0078L15.6875 17.6328C15.6615 17.7109 15.6615 17.7891 15.6875 17.8672L15.9219 18.4922C16.0781 18.9089 15.987 19.2734 15.6484 19.5859L15.1016 19.9766C15.0495 20.0286 15.0104 20.0938 14.9844 20.1719L13.7734 20.0156C13.8255 19.599 14.0208 19.2604 14.3594 19L14.6719 18.7266L14.5156 18.3359C14.3594 17.9453 14.3594 17.5547 14.5156 17.1641L14.6719 16.7734L14.3594 16.5C14.0208 16.2396 13.8255 15.901 13.7734 15.4844L13.6953 15.0547L13.2656 15.0156C12.849 14.9375 12.5104 14.7292 12.25 14.3906L11.9766 14.0781L11.5859 14.2344L11.1562 13.1406L11.5859 14.2344C11.1953 14.3906 10.8047 14.3906 10.4141 14.2344L10.0234 14.0781L9.75 14.3906C9.48958 14.7292 9.15104 14.9375 8.73438 15.0156L8.30469 15.0547L8.26562 15.4844L7.13281 15.3281L8.26562 15.4844C8.1875 15.901 7.97917 16.2396 7.64062 16.5L6.89844 15.5234ZM12.25 24.7031V22.75C12.0677 22.776 11.8984 22.75 11.7422 22.6719L11.1172 22.4375C11.0391 22.3854 10.9609 22.3854 10.8828 22.4375L10.2578 22.6719C10.1016 22.75 9.93229 22.776 9.75 22.75V24.7031L10.6484 24.1172C10.8828 23.9609 11.1172 23.9609 11.3516 24.1172L12.25 24.7031Z" fill="black" fill-opacity="0.72"/>
</g>
</svg>
