<svg width="32" height="32" viewBox="0 0 32 32" fill="none" xmlns="http://www.w3.org/2000/svg">
<g id="standalone / md / link-simple-md / regular">
<path id="icon" d="M4.75 16.5C4.80208 14.7292 5.41406 13.2578 6.58594 12.0859C7.75781 10.9141 9.22917 10.3021 11 10.25H14.125C14.5156 10.276 14.724 10.4844 14.75 10.875C14.724 11.2656 14.5156 11.474 14.125 11.5H11C9.59375 11.526 8.40885 12.0078 7.44531 12.9453C6.50781 13.9089 6.02604 15.0938 6 16.5C6.02604 17.9062 6.50781 19.0911 7.44531 20.0547C8.40885 20.9922 9.59375 21.474 11 21.5H14.125C14.5156 21.526 14.724 21.7344 14.75 22.125C14.724 22.5156 14.5156 22.724 14.125 22.75H11C9.22917 22.6979 7.75781 22.0859 6.58594 20.9141C5.41406 19.7422 4.80208 18.2708 4.75 16.5ZM27.25 16.5C27.1979 18.2708 26.5859 19.7422 25.4141 20.9141C24.2422 22.0859 22.7708 22.6979 21 22.75H17.875C17.4844 22.724 17.276 22.5156 17.25 22.125C17.276 21.7344 17.4844 21.526 17.875 21.5H21C22.4062 21.474 23.5911 20.9922 24.5547 20.0547C25.4922 19.0911 25.974 17.9062 26 16.5C25.974 15.0938 25.4922 13.9089 24.5547 12.9453C23.5911 12.0078 22.4062 11.526 21 11.5H17.875C17.4844 11.474 17.276 11.2656 17.25 10.875C17.276 10.4844 17.4844 10.276 17.875 10.25H21C22.7708 10.3021 24.2422 10.9141 25.4141 12.0859C26.5859 13.2578 27.1979 14.7292 27.25 16.5ZM10.6875 15.875H21.3125C21.7031 15.901 21.9115 16.1094 21.9375 16.5C21.9115 16.8906 21.7031 17.099 21.3125 17.125H10.6875C10.2969 17.099 10.0885 16.8906 10.0625 16.5C10.0885 16.1094 10.2969 15.901 10.6875 15.875Z" fill="black" fill-opacity="0.72"/>
</g>
</svg>
