<svg width="32" height="32" viewBox="0 0 32 32" fill="none" xmlns="http://www.w3.org/2000/svg">
<g id="standalone / md / arrow-left-to-line-md / regular">
<path id="icon" d="M7.25 23.375V9.625C7.27604 9.23438 7.48438 9.02604 7.875 9C8.26562 9.02604 8.47396 9.23438 8.5 9.625V23.375C8.47396 23.7656 8.26562 23.974 7.875 24C7.48438 23.974 7.27604 23.7656 7.25 23.375ZM11.1953 16.0703L16.1953 11.0703C16.4818 10.8099 16.7682 10.8099 17.0547 11.0703C17.3151 11.3568 17.3151 11.6432 17.0547 11.9297L13.1484 15.875H17.25H24.125C24.5156 15.901 24.724 16.1094 24.75 16.5C24.724 16.8906 24.5156 17.099 24.125 17.125H17.25H13.1484L17.0547 21.0703C17.3151 21.3568 17.3151 21.6432 17.0547 21.9297C16.7682 22.1901 16.4818 22.1901 16.1953 21.9297L11.1953 16.9297C10.9349 16.6432 10.9349 16.3568 11.1953 16.0703Z" fill="black" fill-opacity="0.72"/>
</g>
</svg>
