<svg width="32" height="32" viewBox="0 0 32 32" fill="none" xmlns="http://www.w3.org/2000/svg">
<g id="standalone / md / huawei-app-gallery-md">
<path id="icon" d="M14.9844 17.2031L14.6328 18.1016L14.5938 18.1797H15.4141L15.375 18.1016L14.9844 17.2031ZM21.3125 6.5C23.8906 6.5 26 8.60938 26 11.1875V21.8516C26 24.4297 23.8906 26.5 21.3125 26.5H10.6484C8.07031 26.5 6 24.4297 6 21.8516V11.1875C6 8.60938 8.07031 6.5 10.6484 6.5H21.3125ZM17.9141 16.5L17.3281 18.375L16.7422 16.5H16.1953L17.0938 19.2344H17.5625L18.1484 17.4375L18.7344 19.2344H19.1641L20.1016 16.5H19.5547L18.9688 18.375L18.3828 16.5H17.9141ZM14.7891 16.5L13.6172 19.2344H14.1641L14.3984 18.7266V18.6875H15.6094L15.8438 19.2344H16.3906L15.2578 16.5391V16.5H14.7891ZM23.1094 16.5V19.2344H23.6562V16.5H23.1094ZM8.10938 16.5V19.2344H8.65625V18.1406H9.82812V19.2344H10.375V16.5H9.82812V17.6328H8.65625V16.5H8.10938ZM12.8359 16.5V16.5391V18.0625C12.8359 18.5312 12.6016 18.7656 12.25 18.7656C11.8594 18.7656 11.625 18.5312 11.625 18.0625V16.5391H11.1172V18.0625C11.1172 18.8438 11.5078 19.2734 12.2109 19.2734C12.9531 19.2734 13.3438 18.8438 13.3438 18.0625V16.5H12.8359ZM20.5312 16.5V16.5391V19.2344H22.4844V18.7266H21.0391V18.0625H22.0156V17.5547H21.0391V17.0078H22.4453V16.5H20.5312ZM12.3281 9.70312C12.3281 11.6172 13.9297 13.1406 15.8828 13.1406C17.8359 13.1406 19.4375 11.6172 19.4375 9.70312H18.9297C18.9297 11.3438 17.5625 12.6328 15.8828 12.6328C14.2031 12.6328 12.8359 11.3438 12.8359 9.70312H12.3281Z" fill="black" fill-opacity="0.72"/>
</g>
</svg>
