<svg width="32" height="32" viewBox="0 0 32 32" fill="none" xmlns="http://www.w3.org/2000/svg">
<g id="standalone / md / laptop-mobile-md / bold">
<path id="icon" d="M8.5 8.375C8.10938 8.40104 7.90104 8.60938 7.875 9V19H17.25V21.5H5.375C4.85417 21.474 4.41146 21.2917 4.04688 20.9531C3.70833 20.5885 3.52604 20.1458 3.5 19.625C3.52604 19.2344 3.73438 19.026 4.125 19H6V9C6.02604 8.29688 6.27344 7.71094 6.74219 7.24219C7.21094 6.77344 7.79688 6.52604 8.5 6.5H21C21.7031 6.52604 22.2891 6.77344 22.7578 7.24219C23.2266 7.71094 23.474 8.29688 23.5 9V10.25H21.625V9C21.599 8.60938 21.3906 8.40104 21 8.375H8.5ZM18.5 13.375C18.526 12.8542 18.7083 12.4115 19.0469 12.0469C19.4115 11.7083 19.8542 11.526 20.375 11.5H26.625C27.1458 11.526 27.5885 11.7083 27.9531 12.0469C28.2917 12.4115 28.474 12.8542 28.5 13.375V24.625C28.474 25.1458 28.2917 25.5885 27.9531 25.9531C27.5885 26.2917 27.1458 26.474 26.625 26.5H20.375C19.8542 26.474 19.4115 26.2917 19.0469 25.9531C18.7083 25.5885 18.526 25.1458 18.5 24.625V13.375ZM20.375 13.375V24.625H26.625V13.375H20.375Z" fill="black" fill-opacity="0.72"/>
</g>
</svg>
