<svg width="32" height="32" viewBox="0 0 32 32" fill="none" xmlns="http://www.w3.org/2000/svg">
<g id="standalone / md / circle-four-md / regular">
<path id="icon" d="M24.75 16.5C24.724 14.9115 24.3333 13.4531 23.5781 12.125C22.7969 10.7969 21.7292 9.72917 20.375 8.92188C18.9948 8.14062 17.5365 7.75 16 7.75C14.4635 7.75 13.0052 8.14062 11.625 8.92188C10.2708 9.72917 9.20312 10.7969 8.42188 12.125C7.66667 13.4531 7.27604 14.9115 7.25 16.5C7.27604 18.0885 7.66667 19.5469 8.42188 20.875C9.20312 22.2031 10.2708 23.2708 11.625 24.0781C13.0052 24.8594 14.4635 25.25 16 25.25C17.5365 25.25 18.9948 24.8594 20.375 24.0781C21.7292 23.2708 22.7969 22.2031 23.5781 20.875C24.3333 19.5469 24.724 18.0885 24.75 16.5ZM6 16.5C6.02604 14.6771 6.46875 13.0104 7.32812 11.5C8.21354 9.98958 9.4375 8.76562 11 7.82812C12.5885 6.94271 14.2552 6.5 16 6.5C17.7448 6.5 19.4115 6.94271 21 7.82812C22.5625 8.76562 23.7865 9.98958 24.6719 11.5C25.5312 13.0104 25.974 14.6771 26 16.5C25.974 18.3229 25.5312 19.9896 24.6719 21.5C23.7865 23.0104 22.5625 24.2344 21 25.1719C19.4115 26.0573 17.7448 26.5 16 26.5C14.2552 26.5 12.5885 26.0573 11 25.1719C9.4375 24.2344 8.21354 23.0104 7.32812 21.5C6.46875 19.9896 6.02604 18.3229 6 16.5ZM14.9844 11.5391C15.3229 11.7214 15.4401 11.9948 15.3359 12.3594L13.1875 17.75H17.25V14.625C17.276 14.2344 17.4844 14.026 17.875 14C18.2656 14.026 18.474 14.2344 18.5 14.625V17.75H19.125C19.5156 17.776 19.724 17.9844 19.75 18.375C19.724 18.7656 19.5156 18.974 19.125 19H18.5V20.875C18.474 21.2656 18.2656 21.474 17.875 21.5C17.4844 21.474 17.276 21.2656 17.25 20.875V19H12.25C12.0417 19 11.8724 18.9089 11.7422 18.7266C11.612 18.5443 11.5859 18.349 11.6641 18.1406L14.1641 11.8906C14.3464 11.5521 14.6198 11.4349 14.9844 11.5391Z" fill="black" fill-opacity="0.72"/>
</g>
</svg>
