<svg width="32" height="32" viewBox="0 0 32 32" fill="none" xmlns="http://www.w3.org/2000/svg">
<g id="standalone / md / arrow-up-from-square-md / bold">
<path id="icon" d="M16.6641 6.77344L21.0391 11.1484C21.4036 11.5911 21.4036 12.0339 21.0391 12.4766C20.5964 12.8411 20.1536 12.8411 19.7109 12.4766L16.9375 9.70312V19.3125C16.8854 19.8854 16.5729 20.1979 16 20.25C15.4271 20.1979 15.1146 19.8854 15.0625 19.3125V9.70312L12.2891 12.4766C11.8464 12.8411 11.4036 12.8411 10.9609 12.4766C10.5964 12.0339 10.5964 11.5911 10.9609 11.1484L15.3359 6.77344C15.7786 6.40885 16.2214 6.40885 16.6641 6.77344ZM8.8125 7.75H9.125C9.69792 7.80208 10.0104 8.11458 10.0625 8.6875C10.0104 9.26042 9.69792 9.57292 9.125 9.625H8.8125C8.23958 9.67708 7.92708 9.98958 7.875 10.5625V23.6875C7.92708 24.2604 8.23958 24.5729 8.8125 24.625H23.1875C23.7604 24.5729 24.0729 24.2604 24.125 23.6875V10.5625C24.0729 9.98958 23.7604 9.67708 23.1875 9.625H22.875C22.3021 9.57292 21.9896 9.26042 21.9375 8.6875C21.9896 8.11458 22.3021 7.80208 22.875 7.75H23.1875C23.9948 7.77604 24.6589 8.04948 25.1797 8.57031C25.7005 9.09115 25.974 9.75521 26 10.5625V23.6875C25.974 24.4948 25.7005 25.1589 25.1797 25.6797C24.6589 26.2005 23.9948 26.474 23.1875 26.5H8.8125C8.00521 26.474 7.34115 26.2005 6.82031 25.6797C6.29948 25.1589 6.02604 24.4948 6 23.6875V10.5625C6.02604 9.75521 6.29948 9.09115 6.82031 8.57031C7.34115 8.04948 8.00521 7.77604 8.8125 7.75Z" fill="black" fill-opacity="0.72"/>
</g>
</svg>
