<svg width="32" height="32" viewBox="0 0 32 32" fill="none" xmlns="http://www.w3.org/2000/svg">
<g id="standalone / md / laptop-mobile-md / regular">
<path id="icon" d="M8.5 7.75C8.13542 7.75 7.83594 7.86719 7.60156 8.10156C7.36719 8.33594 7.25 8.63542 7.25 9V17.75H17.25V19H7.25H6H4.82812C5.08854 19.7812 5.64844 20.1979 6.50781 20.25H17.25V21.5H6.50781C5.64844 21.474 4.94531 21.1875 4.39844 20.6406C3.82552 20.0677 3.52604 19.3516 3.5 18.4922C3.55208 18.0495 3.79948 17.8021 4.24219 17.75H6V9C6.02604 8.29688 6.27344 7.71094 6.74219 7.24219C7.21094 6.77344 7.79688 6.52604 8.5 6.5H21C21.7031 6.52604 22.2891 6.77344 22.7578 7.24219C23.2266 7.71094 23.474 8.29688 23.5 9V10.25H22.25V9C22.25 8.63542 22.1328 8.33594 21.8984 8.10156C21.6641 7.86719 21.3646 7.75 21 7.75H8.5ZM19.75 13.375V24.625C19.776 25.0156 19.9844 25.224 20.375 25.25H26.625C27.0156 25.224 27.224 25.0156 27.25 24.625V13.375C27.224 12.9844 27.0156 12.776 26.625 12.75H20.375C19.9844 12.776 19.776 12.9844 19.75 13.375ZM18.5 13.375C18.526 12.8542 18.7083 12.4115 19.0469 12.0469C19.4115 11.7083 19.8542 11.526 20.375 11.5H26.625C27.1458 11.526 27.5885 11.7083 27.9531 12.0469C28.2917 12.4115 28.474 12.8542 28.5 13.375V24.625C28.474 25.1458 28.2917 25.5885 27.9531 25.9531C27.5885 26.2917 27.1458 26.474 26.625 26.5H20.375C19.8542 26.474 19.4115 26.2917 19.0469 25.9531C18.7083 25.5885 18.526 25.1458 18.5 24.625V13.375Z" fill="black" fill-opacity="0.72"/>
</g>
</svg>
