<svg width="32" height="32" viewBox="0 0 32 32" fill="none" xmlns="http://www.w3.org/2000/svg">
<g id="standalone / md / computer-mouse-scrollwheel-md / regular">
<path id="icon" d="M22.25 20.25V12.75C22.224 11.3438 21.7422 10.1589 20.8047 9.19531C19.8411 8.25781 18.6562 7.77604 17.25 7.75H14.75C13.3438 7.77604 12.1589 8.25781 11.1953 9.19531C10.2578 10.1589 9.77604 11.3438 9.75 12.75V20.25C9.77604 21.6562 10.2578 22.8411 11.1953 23.8047C12.1589 24.7422 13.3438 25.224 14.75 25.25H17.25C18.6562 25.224 19.8411 24.7422 20.8047 23.8047C21.7422 22.8411 22.224 21.6562 22.25 20.25ZM8.5 12.75C8.55208 10.9792 9.16406 9.50781 10.3359 8.33594C11.5078 7.16406 12.9792 6.55208 14.75 6.5H17.25C19.0208 6.55208 20.4922 7.16406 21.6641 8.33594C22.8359 9.50781 23.4479 10.9792 23.5 12.75V20.25C23.4479 22.0208 22.8359 23.4922 21.6641 24.6641C20.4922 25.8359 19.0208 26.4479 17.25 26.5H14.75C12.9792 26.4479 11.5078 25.8359 10.3359 24.6641C9.16406 23.4922 8.55208 22.0208 8.5 20.25V12.75ZM16.625 10.875V13.375C16.599 13.7656 16.3906 13.974 16 14C15.6094 13.974 15.401 13.7656 15.375 13.375V10.875C15.401 10.4844 15.6094 10.276 16 10.25C16.3906 10.276 16.599 10.4844 16.625 10.875Z" fill="black" fill-opacity="0.72"/>
</g>
</svg>
