<svg width="32" height="32" viewBox="0 0 32 32" fill="none" xmlns="http://www.w3.org/2000/svg">
<g id="standalone / md / house-blank-md / regular">
<path id="icon" d="M15.5703 6.65625C15.8568 6.44792 16.1432 6.44792 16.4297 6.65625L27.0547 16.0312C27.3151 16.3177 27.3281 16.6172 27.0938 16.9297C26.8073 17.1901 26.5078 17.2031 26.1953 16.9688L24.75 15.6797V23.375C24.724 24.2604 24.4245 25.0026 23.8516 25.6016C23.2526 26.1745 22.5104 26.474 21.625 26.5H10.375C9.48958 26.474 8.7474 26.1745 8.14844 25.6016C7.57552 25.0026 7.27604 24.2604 7.25 23.375V15.6797L5.80469 16.9688C5.49219 17.2031 5.19271 17.1901 4.90625 16.9297C4.67188 16.6172 4.6849 16.3177 4.94531 16.0312L15.5703 6.65625ZM8.5 14.5859V23.375C8.52604 23.8958 8.70833 24.3385 9.04688 24.7031C9.41146 25.0417 9.85417 25.224 10.375 25.25H21.625C22.1458 25.224 22.5885 25.0417 22.9531 24.7031C23.2917 24.3385 23.474 23.8958 23.5 23.375V14.5859L16 7.94531L8.5 14.5859Z" fill="black" fill-opacity="0.72"/>
</g>
</svg>
