<svg width="32" height="32" viewBox="0 0 32 32" fill="none" xmlns="http://www.w3.org/2000/svg">
<g id="standalone / md / ellipsis-md / regular">
<path id="icon" d="M23.5 16.5C23.5 16.8646 23.3828 17.1641 23.1484 17.3984C22.9141 17.6328 22.6146 17.75 22.25 17.75C21.8854 17.75 21.5859 17.6328 21.3516 17.3984C21.1172 17.1641 21 16.8646 21 16.5C21 16.1354 21.1172 15.8359 21.3516 15.6016C21.5859 15.3672 21.8854 15.25 22.25 15.25C22.6146 15.25 22.9141 15.3672 23.1484 15.6016C23.3828 15.8359 23.5 16.1354 23.5 16.5ZM17.25 16.5C17.25 16.8646 17.1328 17.1641 16.8984 17.3984C16.6641 17.6328 16.3646 17.75 16 17.75C15.6354 17.75 15.3359 17.6328 15.1016 17.3984C14.8672 17.1641 14.75 16.8646 14.75 16.5C14.75 16.1354 14.8672 15.8359 15.1016 15.6016C15.3359 15.3672 15.6354 15.25 16 15.25C16.3646 15.25 16.6641 15.3672 16.8984 15.6016C17.1328 15.8359 17.25 16.1354 17.25 16.5ZM9.75 17.75C9.38542 17.75 9.08594 17.6328 8.85156 17.3984C8.61719 17.1641 8.5 16.8646 8.5 16.5C8.5 16.1354 8.61719 15.8359 8.85156 15.6016C9.08594 15.3672 9.38542 15.25 9.75 15.25C10.1146 15.25 10.4141 15.3672 10.6484 15.6016C10.8828 15.8359 11 16.1354 11 16.5C11 16.8646 10.8828 17.1641 10.6484 17.3984C10.4141 17.6328 10.1146 17.75 9.75 17.75Z" fill="black" fill-opacity="0.72"/>
</g>
</svg>
