<svg width="32" height="32" viewBox="0 0 32 32" fill="none" xmlns="http://www.w3.org/2000/svg">
<g id="standalone / md / arrow-right-arrow-left-md / regular">
<path id="icon" d="M24.5547 11.9297L20.8047 15.6797C20.5182 15.9401 20.2318 15.9401 19.9453 15.6797C19.6849 15.3932 19.6849 15.1068 19.9453 14.8203L22.6016 12.125H7.875C7.48438 12.099 7.27604 11.8906 7.25 11.5C7.27604 11.1094 7.48438 10.901 7.875 10.875H22.6016L19.9453 8.17969C19.6849 7.89323 19.6849 7.60677 19.9453 7.32031C20.2318 7.0599 20.5182 7.0599 20.8047 7.32031L24.5547 11.0703C24.8151 11.3568 24.8151 11.6432 24.5547 11.9297ZM11.1953 25.6797L7.44531 21.9297C7.1849 21.6432 7.1849 21.3568 7.44531 21.0703L11.1953 17.3203C11.4818 17.0599 11.7682 17.0599 12.0547 17.3203C12.3151 17.6068 12.3151 17.8932 12.0547 18.1797L9.39844 20.875H24.125C24.5156 20.901 24.724 21.1094 24.75 21.5C24.724 21.8906 24.5156 22.099 24.125 22.125H9.39844L12.0547 24.8203C12.3151 25.1068 12.3151 25.3932 12.0547 25.6797C11.7682 25.9401 11.4818 25.9401 11.1953 25.6797Z" fill="black" fill-opacity="0.72"/>
</g>
</svg>
