<svg width="32" height="32" viewBox="0 0 32 32" fill="none" xmlns="http://www.w3.org/2000/svg">
<g id="standalone / md / one-md / regular">
<path id="icon" d="M16.625 8.375V24H20.375C20.7656 24.026 20.974 24.2344 21 24.625C20.974 25.0156 20.7656 25.224 20.375 25.25H16H11.625C11.2344 25.224 11.026 25.0156 11 24.625C11.026 24.2344 11.2344 24.026 11.625 24H15.375V9.54688L12.6016 11.3828C12.263 11.5651 11.9766 11.513 11.7422 11.2266C11.5599 10.888 11.612 10.6016 11.8984 10.3672L15.6484 7.86719C15.8568 7.73698 16.0781 7.72396 16.3125 7.82812C16.5208 7.95833 16.625 8.14062 16.625 8.375Z" fill="black" fill-opacity="0.72"/>
</g>
</svg>
