<svg width="32" height="32" viewBox="0 0 32 32" fill="none" xmlns="http://www.w3.org/2000/svg">
<g id="standalone / md / image-polaroid-user-md / bold">
<path id="icon" d="M9.125 22.75C9.15104 23.1406 9.35938 23.349 9.75 23.375H22.25C22.6406 23.349 22.849 23.1406 22.875 22.75V20.875H9.125V22.75ZM20.2969 19H22.875V10.25C22.849 9.85938 22.6406 9.65104 22.25 9.625H9.75C9.35938 9.65104 9.15104 9.85938 9.125 10.25V19H11.7031C11.8594 18.4531 12.1458 18.0104 12.5625 17.6719C13.0052 17.3073 13.526 17.125 14.125 17.125H17.875C18.474 17.125 18.9948 17.3073 19.4375 17.6719C19.8542 18.0104 20.1406 18.4531 20.2969 19ZM24.75 10.25V19V19.9375V20.875V22.75C24.724 23.4531 24.4766 24.0391 24.0078 24.5078C23.5391 24.9766 22.9531 25.224 22.25 25.25H9.75C9.04688 25.224 8.46094 24.9766 7.99219 24.5078C7.52344 24.0391 7.27604 23.4531 7.25 22.75V20.875V19.9375V19V10.25C7.27604 9.54688 7.52344 8.96094 7.99219 8.49219C8.46094 8.02344 9.04688 7.77604 9.75 7.75H22.25C22.9531 7.77604 23.5391 8.02344 24.0078 8.49219C24.4766 8.96094 24.724 9.54688 24.75 10.25ZM13.5 13.375C13.526 12.4375 13.9427 11.7214 14.75 11.2266C15.5833 10.7578 16.4167 10.7578 17.25 11.2266C18.0573 11.7214 18.474 12.4375 18.5 13.375C18.474 14.3125 18.0573 15.0286 17.25 15.5234C16.4167 15.9922 15.5833 15.9922 14.75 15.5234C13.9427 15.0286 13.526 14.3125 13.5 13.375Z" fill="black" fill-opacity="0.72"/>
</g>
</svg>
