<svg width="32" height="32" viewBox="0 0 32 32" fill="none" xmlns="http://www.w3.org/2000/svg">
<g id="standalone / md / ipados-md">
<path id="icon" d="M20.2578 12.3594C20.2578 11.8125 19.9844 11.4609 19.5547 11.4609C19.125 11.4609 18.8516 11.7734 18.8516 12.3594C18.8516 12.9453 19.125 13.2969 19.5547 13.2969C19.9844 13.2969 20.2578 12.9453 20.2578 12.3594ZM14.5156 11.3438C14.5156 11.7734 14.2422 12.0078 13.7734 12.0078H13.0703V10.6406H13.7734C14.2422 10.6406 14.5156 10.875 14.5156 11.3438ZM12.8359 15.875C14.3203 15.875 15.2188 17.0078 15.2188 18.8047C15.2188 20.5625 14.3203 21.6953 12.8359 21.6953C11.3516 21.6953 10.4141 20.5625 10.4141 18.8047C10.4141 17.0078 11.3516 15.875 12.8359 15.875ZM16.5078 12.5156C16.1562 12.5547 16 12.6719 16 12.9062C16 13.1797 16.1953 13.2969 16.4688 13.2969C16.8594 13.2969 17.1719 13.0625 17.1719 12.7109V12.4766L16.5078 12.5156ZM25.5703 9.19531C25.9609 10.1719 26 11.3047 26 12.0078V21.0312C26 21.7344 25.9609 22.8672 25.5703 23.8438C25.375 24.3516 24.9453 25.0547 24.3203 25.5234C23.9297 25.7969 23.5 26.0703 22.9141 26.2656C22.25 26.4609 21.4688 26.5 20.4922 26.5H11.4688C10.4922 26.5 9.71094 26.4609 9.04688 26.2656C8.46094 26.0703 8.03125 25.7969 7.64062 25.5234C7.01562 25.0547 6.58594 24.3516 6.39062 23.8438C6 22.8672 6 21.7344 6 21.0312V12.0078C6 11.3047 6 10.1719 6.39062 9.19531C6.58594 8.6875 7.01562 7.98438 7.64062 7.51562C8.03125 7.20312 8.46094 6.96875 9.04688 6.77344C9.71094 6.57812 10.4922 6.5 11.4688 6.5H20.4922C21.4688 6.5 22.25 6.57812 22.9141 6.77344C23.5 6.92969 23.9297 7.20312 24.3203 7.51562C24.9453 7.98438 25.375 8.6875 25.5703 9.19531ZM19.3984 10.9922C18.7344 10.9922 18.3047 11.5391 18.3047 12.3594C18.3047 13.2188 18.7344 13.7266 19.3984 13.7266C19.7891 13.7266 20.0625 13.5703 20.2578 13.2578H20.2969V13.6875H20.7656V10.0156H20.2578V11.4609H20.2188C20.0625 11.1875 19.75 10.9922 19.3984 10.9922ZM12.5234 10.1719V13.6875H13.0703V12.4766H13.8906C14.5547 12.4766 15.0625 12.0078 15.0625 11.3438C15.0625 10.6406 14.5938 10.1719 13.8906 10.1719H12.5234ZM11.4297 10.5625C11.5469 10.6016 11.6641 10.5234 11.7422 10.4062C11.8203 10.3281 11.8203 10.1719 11.7422 10.0547C11.6641 9.9375 11.5469 9.89844 11.4297 9.89844C11.3125 9.89844 11.1953 9.9375 11.1172 10.0547C11.0391 10.1719 11.0391 10.3281 11.1172 10.4062C11.1953 10.5234 11.3125 10.6016 11.4297 10.5625ZM11.7031 11.0312H11.1562V13.6875H11.7031V11.0312ZM12.8359 22.5547C14.8672 22.5547 16.1562 21.1094 16.1562 18.8047C16.1562 16.5 14.8672 15.0156 12.8359 15.0156C10.7656 15.0156 9.47656 16.5 9.47656 18.8047C9.47656 21.1094 10.7656 22.5547 12.8359 22.5547ZM15.4531 12.9453C15.4531 13.4141 15.8438 13.7266 16.3516 13.7266C16.7031 13.7266 16.9766 13.5703 17.1328 13.2969H17.1719V13.6875H17.6797V11.8906C17.6797 11.3047 17.3281 10.9922 16.625 10.9922C16.0391 10.9922 15.6094 11.2656 15.5703 11.7344H16.0781C16.1172 11.5391 16.3125 11.4219 16.625 11.4219C16.9766 11.4219 17.1719 11.5781 17.1719 11.8906V12.125L16.4297 12.1641C15.8047 12.2031 15.4531 12.4766 15.4531 12.9453ZM19.5547 22.5547C21.1562 22.5547 22.2109 21.6953 22.2109 20.3672C22.2109 19.3125 21.625 18.7266 20.1016 18.375L19.3203 18.2188C18.3047 17.9844 17.9141 17.5938 17.9141 17.0469C17.9141 16.3047 18.6172 15.8359 19.5156 15.8359C20.4922 15.8359 21.1172 16.3438 21.1953 17.125H22.0938C22.0547 15.9141 21 15.0156 19.5547 15.0156C18.0312 15.0156 16.9766 15.875 16.9766 17.0859C16.9766 18.1016 17.6406 18.7656 19.0859 19.0781L19.8672 19.2734C20.8828 19.4688 21.2734 19.8984 21.2734 20.4844C21.2734 21.1875 20.5703 21.7344 19.5938 21.7344C18.5391 21.7344 17.8359 21.2656 17.7188 20.4844H16.8203C16.8984 21.7344 17.9531 22.5547 19.5547 22.5547Z" fill="black" fill-opacity="0.72"/>
</g>
</svg>
