<svg width="32" height="32" viewBox="0 0 32 32" fill="none" xmlns="http://www.w3.org/2000/svg">
<g id="standalone / md / light-user-tie-circle-dollar-md / regular">
<path id="icon" d="M3.5 25.3281C3.5 22.2422 5.6875 19.6641 8.61719 19.1172C8.89062 19.0781 9.16406 19.2344 9.24219 19.4688C9.67188 20.3672 10.1016 21.2656 10.5312 22.1641C10.8047 21.3438 11.0781 20.4844 11.3516 19.625C11.2344 19.625 11.1172 19.625 10.9609 19.625C10.6484 19.625 10.3359 19.3516 10.3359 19C10.3359 18.6875 10.6484 18.375 10.9609 18.375C11.3906 18.375 11.8203 18.375 12.2109 18.375C12.6406 18.375 13.0703 18.375 13.4609 18.375C13.8125 18.375 14.0859 18.6875 14.0859 19C14.0859 19.3516 13.8125 19.625 13.4609 19.625C13.3438 19.625 13.2266 19.625 13.1094 19.625C13.3828 20.4844 13.6562 21.3438 13.9297 22.1641C14.3594 21.2656 14.7891 20.3672 15.1797 19.4688C15.2969 19.2344 15.5703 19.0781 15.8438 19.1172C15.9609 19.1562 16.0781 19.1562 16.1953 19.1953C16.0781 19.7031 16 20.2109 16 20.7578C15.2969 22.2422 14.6328 23.6875 13.9297 25.1719C13.9297 25.2109 13.8906 25.25 13.8906 25.25C15.1016 25.25 16.3516 25.25 17.5625 25.25C17.9531 25.7578 18.3828 26.1484 18.8906 26.5C14.1641 26.5 9.4375 26.5 4.67188 26.5C4.00781 26.5 3.5 25.9922 3.5 25.3281ZM4.75 25.25C6.66406 25.25 8.61719 25.25 10.5703 25.25C10.5703 25.25 10.5312 25.2109 10.5312 25.1719C9.78906 23.6094 9.08594 22.0469 8.34375 20.4844C6.27344 21.0703 4.75 22.9844 4.75 25.25ZM7.25 11.5C7.25 9.74219 8.1875 8.0625 9.75 7.20312C11.2734 6.30469 13.1875 6.30469 14.75 7.20312C16.2734 8.0625 17.25 9.74219 17.25 11.5C17.25 13.2969 16.2734 14.9375 14.75 15.8359C13.1875 16.7344 11.2734 16.7344 9.75 15.8359C8.1875 14.9375 7.25 13.2969 7.25 11.5ZM8.96875 9.625C8.30469 10.7969 8.30469 12.2422 8.96875 13.375C9.67188 14.5469 10.8828 15.25 12.25 15.25C13.5781 15.25 14.8281 14.5469 15.4922 13.375C16.1562 12.2422 16.1562 10.7969 15.4922 9.625C14.8281 8.49219 13.5781 7.75 12.25 7.75C10.8828 7.75 9.67188 8.49219 8.96875 9.625ZM11.2734 23.8438C11.4297 24.1172 11.5469 24.3906 11.6641 24.6641C11.8984 25.1328 12.5625 25.1328 12.7969 24.6641C12.9141 24.3906 13.0703 24.1172 13.1875 23.8438C12.875 22.9062 12.5625 21.9297 12.25 20.9922L11.2734 23.8438ZM17.25 20.875C17.25 17.7891 19.75 15.25 22.875 15.25C25.9609 15.25 28.5 17.7891 28.5 20.875C28.5 24 25.9609 26.5 22.875 26.5C19.75 26.5 17.25 24 17.25 20.875ZM18.5 20.875C18.5 23.2969 20.4531 25.25 22.875 25.25C25.2578 25.25 27.25 23.2969 27.25 20.875C27.25 18.4922 25.2578 16.5 22.875 16.5C20.4531 16.5 18.5 18.4922 18.5 20.875ZM20.6875 19.8203C20.6484 19.0781 21.0781 18.6094 21.5469 18.375C21.7422 18.2578 21.9766 18.1797 22.25 18.1406C22.25 18.0234 22.25 17.8672 22.25 17.75C22.25 17.3984 22.5234 17.125 22.875 17.125C23.1875 17.125 23.5 17.3984 23.5 17.75C23.5 17.8672 23.5 18.0234 23.5 18.1406C23.7344 18.1797 23.9688 18.2188 24.1641 18.2578C24.5156 18.3359 24.7109 18.6875 24.6328 19.0391C24.5547 19.3516 24.2031 19.5859 23.8906 19.4688C23.5 19.3906 23.1875 19.3125 22.8359 19.3125C22.6016 19.3125 22.3281 19.3906 22.1328 19.4688C22.0156 19.5469 21.9766 19.5859 21.9375 19.625C21.9375 19.625 21.9375 19.6641 21.9375 19.7422C21.9375 19.7812 21.9375 19.8203 22.0938 19.9375C22.3281 20.0547 22.6406 20.1328 23.0312 20.25C23.0312 20.25 23.0312 20.25 23.0703 20.25C23.4219 20.3672 23.8906 20.4844 24.2422 20.7188C24.6328 20.9531 25.0234 21.3438 25.0625 21.9688C25.0625 22.6719 24.6719 23.1406 24.2031 23.4141C23.9688 23.5312 23.7344 23.6094 23.5 23.6484C23.5 23.8047 23.5 23.9219 23.5 24.0781C23.5 24.4297 23.1875 24.7031 22.875 24.7031C22.5234 24.7031 22.25 24.4297 22.25 24.0781C22.25 23.9219 22.25 23.7656 22.25 23.6094C21.8984 23.5703 21.5859 23.4531 21.3125 23.375C21.2344 23.3359 21.1562 23.3359 21.1172 23.2969C20.7656 23.2188 20.6094 22.8672 20.6875 22.5156C20.8047 22.2031 21.1562 22.0078 21.4688 22.125C21.5469 22.125 21.625 22.1641 21.7031 22.1641C22.1719 22.3203 22.5234 22.4375 22.875 22.4375C23.1484 22.4375 23.4219 22.3984 23.6172 22.3203C23.6953 22.2422 23.7344 22.2031 23.7734 22.1641C23.7734 22.1641 23.8125 22.0859 23.8125 22.0078C23.8125 21.9297 23.7734 21.8906 23.6172 21.7734C23.4219 21.6562 23.1094 21.5781 22.7188 21.4609C22.6797 21.4609 22.6406 21.4609 22.6406 21.4219C22.2891 21.3438 21.8594 21.2266 21.5078 21.0312C21.1172 20.8359 20.7266 20.4453 20.6875 19.8203Z" fill="black" fill-opacity="0.72"/>
</g>
</svg>
