<svg width="32" height="32" viewBox="0 0 32 32" fill="none" xmlns="http://www.w3.org/2000/svg">
<g id="standalone / md / circle-ellipsis-md / bold">
<path id="icon" d="M16 24.625C17.4844 24.625 18.8385 24.2604 20.0625 23.5312C21.2865 22.8281 22.276 21.8385 23.0312 20.5625C23.7604 19.2865 24.125 17.9323 24.125 16.5C24.125 15.0677 23.7604 13.7135 23.0312 12.4375C22.276 11.1615 21.2865 10.1719 20.0625 9.46875C18.8385 8.73958 17.4844 8.375 16 8.375C14.5156 8.375 13.1615 8.73958 11.9375 9.46875C10.7135 10.1719 9.72396 11.1615 8.96875 12.4375C8.23958 13.7135 7.875 15.0677 7.875 16.5C7.875 17.9323 8.23958 19.2865 8.96875 20.5625C9.72396 21.8385 10.7135 22.8281 11.9375 23.5312C13.1615 24.2604 14.5156 24.625 16 24.625ZM16 6.5C17.8229 6.52604 19.4896 6.96875 21 7.82812C22.5104 8.71354 23.7344 9.9375 24.6719 11.5C25.5573 13.0885 26 14.7552 26 16.5C26 18.2448 25.5573 19.9115 24.6719 21.5C23.7344 23.0625 22.5104 24.2865 21 25.1719C19.4896 26.0312 17.8229 26.474 16 26.5C14.1771 26.474 12.5104 26.0312 11 25.1719C9.48958 24.2865 8.26562 23.0625 7.32812 21.5C6.44271 19.9115 6 18.2448 6 16.5C6 14.7552 6.44271 13.0885 7.32812 11.5C8.26562 9.9375 9.48958 8.71354 11 7.82812C12.5104 6.96875 14.1771 6.52604 16 6.5ZM17.25 16.5C17.25 16.8646 17.1328 17.1641 16.8984 17.3984C16.6641 17.6328 16.3646 17.75 16 17.75C15.6354 17.75 15.3359 17.6328 15.1016 17.3984C14.8672 17.1641 14.75 16.8646 14.75 16.5C14.75 16.1354 14.8672 15.8359 15.1016 15.6016C15.3359 15.3672 15.6354 15.25 16 15.25C16.3646 15.25 16.6641 15.3672 16.8984 15.6016C17.1328 15.8359 17.25 16.1354 17.25 16.5ZM19.75 15.25C20.1146 15.25 20.4141 15.3672 20.6484 15.6016C20.8828 15.8359 21 16.1354 21 16.5C21 16.8646 20.8828 17.1641 20.6484 17.3984C20.4141 17.6328 20.1146 17.75 19.75 17.75C19.3854 17.75 19.0859 17.6328 18.8516 17.3984C18.6172 17.1641 18.5 16.8646 18.5 16.5C18.5 16.1354 18.6172 15.8359 18.8516 15.6016C19.0859 15.3672 19.3854 15.25 19.75 15.25ZM13.5 16.5C13.5 16.8646 13.3828 17.1641 13.1484 17.3984C12.9141 17.6328 12.6146 17.75 12.25 17.75C11.8854 17.75 11.5859 17.6328 11.3516 17.3984C11.1172 17.1641 11 16.8646 11 16.5C11 16.1354 11.1172 15.8359 11.3516 15.6016C11.5859 15.3672 11.8854 15.25 12.25 15.25C12.6146 15.25 12.9141 15.3672 13.1484 15.6016C13.3828 15.8359 13.5 16.1354 13.5 16.5Z" fill="black" fill-opacity="0.72"/>
</g>
</svg>
