<svg width="32" height="32" viewBox="0 0 32 32" fill="none" xmlns="http://www.w3.org/2000/svg">
<g id="standalone / md / circle-five-md / regular">
<path id="icon" d="M16 7.75C14.4115 7.77604 12.9531 8.16667 11.625 8.92188C10.2969 9.70312 9.22917 10.7708 8.42188 12.125C7.64062 13.5052 7.25 14.9635 7.25 16.5C7.25 18.0365 7.64062 19.4948 8.42188 20.875C9.22917 22.2292 10.2969 23.2969 11.625 24.0781C12.9531 24.8333 14.4115 25.224 16 25.25C17.5885 25.224 19.0469 24.8333 20.375 24.0781C21.7031 23.2969 22.7708 22.2292 23.5781 20.875C24.3594 19.4948 24.75 18.0365 24.75 16.5C24.75 14.9635 24.3594 13.5052 23.5781 12.125C22.7708 10.7708 21.7031 9.70312 20.375 8.92188C19.0469 8.16667 17.5885 7.77604 16 7.75ZM16 26.5C14.1771 26.474 12.5104 26.0312 11 25.1719C9.48958 24.2865 8.26562 23.0625 7.32812 21.5C6.44271 19.9115 6 18.2448 6 16.5C6 14.7552 6.44271 13.0885 7.32812 11.5C8.26562 9.9375 9.48958 8.71354 11 7.82812C12.5104 6.96875 14.1771 6.52604 16 6.5C17.8229 6.52604 19.4896 6.96875 21 7.82812C22.5104 8.71354 23.7344 9.9375 24.6719 11.5C25.5573 13.0885 26 14.7552 26 16.5C26 18.2448 25.5573 19.9115 24.6719 21.5C23.7344 23.0625 22.5104 24.2865 21 25.1719C19.4896 26.0312 17.8229 26.474 16 26.5ZM14.125 11.5H18.5C18.8906 11.526 19.099 11.7344 19.125 12.125C19.099 12.5156 18.8906 12.724 18.5 12.75H14.6328L13.9688 15.3281L17.0938 15.6406C17.875 15.7448 18.513 16.0573 19.0078 16.5781C19.4766 17.125 19.724 17.7891 19.75 18.5703C19.724 19.4036 19.4375 20.0938 18.8906 20.6406C18.3438 21.1875 17.6536 21.474 16.8203 21.5H15.1016C13.9557 21.474 13.0573 21.0052 12.4062 20.0938L12.3672 19.9766C12.1849 19.638 12.237 19.3516 12.5234 19.1172C12.862 18.9349 13.1484 18.987 13.3828 19.2734L13.4609 19.3906C13.8516 19.9375 14.3984 20.224 15.1016 20.25H16.8203C17.2891 20.25 17.6797 20.0807 17.9922 19.7422C18.3307 19.4297 18.5 19.0391 18.5 18.5703C18.5 18.1276 18.3568 17.75 18.0703 17.4375C17.7839 17.125 17.4193 16.9427 16.9766 16.8906L13.1094 16.5C12.9271 16.474 12.7839 16.3828 12.6797 16.2266C12.5755 16.0703 12.5495 15.901 12.6016 15.7188L13.5391 11.9688C13.6172 11.6823 13.8125 11.526 14.125 11.5Z" fill="black" fill-opacity="0.72"/>
</g>
</svg>
