<svg width="32" height="32" viewBox="0 0 32 32" fill="none" xmlns="http://www.w3.org/2000/svg">
<g id="standalone / md / unlock-md / bold">
<path id="icon" d="M12.875 11.5V14H22.25C22.9531 14.026 23.5391 14.2734 24.0078 14.7422C24.4766 15.2109 24.724 15.7969 24.75 16.5V24C24.724 24.7031 24.4766 25.2891 24.0078 25.7578C23.5391 26.2266 22.9531 26.474 22.25 26.5H9.75C9.04688 26.474 8.46094 26.2266 7.99219 25.7578C7.52344 25.2891 7.27604 24.7031 7.25 24V16.5C7.27604 15.7969 7.52344 15.2109 7.99219 14.7422C8.46094 14.2734 9.04688 14.026 9.75 14H11V11.5C11.026 10.0938 11.5078 8.90885 12.4453 7.94531C13.4089 7.00781 14.5938 6.52604 16 6.5C17.1198 6.52604 18.1094 6.85156 18.9688 7.47656C19.8281 8.10156 20.4271 8.9349 20.7656 9.97656C20.8958 10.5234 20.6875 10.9141 20.1406 11.1484C19.5938 11.2786 19.2031 11.0703 18.9688 10.5234C18.7604 9.89844 18.3958 9.39062 17.875 9C17.3281 8.58333 16.7031 8.375 16 8.375C15.1146 8.40104 14.3724 8.70052 13.7734 9.27344C13.2005 9.8724 12.901 10.6146 12.875 11.5ZM9.125 16.5V24C9.15104 24.3906 9.35938 24.599 9.75 24.625H22.25C22.6406 24.599 22.849 24.3906 22.875 24V16.5C22.849 16.1094 22.6406 15.901 22.25 15.875H9.75C9.35938 15.901 9.15104 16.1094 9.125 16.5Z" fill="black" fill-opacity="0.72"/>
</g>
</svg>
