<svg width="32" height="32" viewBox="0 0 32 32" fill="none" xmlns="http://www.w3.org/2000/svg">
<g id="standalone / md / sterling-sign-md / bold">
<path id="icon" d="M13.5 12.7109V15.25H18.8125C19.3854 15.3021 19.6979 15.6146 19.75 16.1875C19.6979 16.7604 19.3854 17.0729 18.8125 17.125H13.5V19.5859C13.5 20.6016 13.2526 21.5521 12.7578 22.4375L12.25 23.375H21.3125C21.8854 23.4271 22.1979 23.7396 22.25 24.3125C22.1979 24.8854 21.8854 25.1979 21.3125 25.25H10.6875C10.349 25.25 10.0755 25.0938 9.86719 24.7812C9.71094 24.4948 9.71094 24.1953 9.86719 23.8828L11.1172 21.5391C11.4557 20.9401 11.625 20.2891 11.625 19.5859V17.125H10.6875C10.1146 17.0729 9.80208 16.7604 9.75 16.1875C9.80208 15.6146 10.1146 15.3021 10.6875 15.25H11.625V12.7109C11.651 11.3047 12.1328 10.1328 13.0703 9.19531C14.0078 8.25781 15.1797 7.77604 16.5859 7.75C17.1328 7.75 17.6667 7.84115 18.1875 8.02344L21.3125 9.03906C21.8333 9.27344 22.0286 9.67708 21.8984 10.25C21.6641 10.7708 21.2604 10.9661 20.6875 10.8359L17.5625 9.78125C17.25 9.67708 16.9245 9.625 16.5859 9.625C15.7266 9.65104 14.9974 9.95052 14.3984 10.5234C13.8255 11.1224 13.526 11.8516 13.5 12.7109Z" fill="black" fill-opacity="0.72"/>
</g>
</svg>
