<svg width="32" height="32" viewBox="0 0 32 32" fill="none" xmlns="http://www.w3.org/2000/svg">
<g id="standalone / md / harmony-os-md">
<path id="icon" d="M10.0625 6.5H21.8984C24.1641 6.5 26 8.33594 26 10.6016V22.4375C26 24.7031 24.1641 26.5 21.8984 26.5H10.0625C7.79688 26.5 6 24.7031 6 22.4375V10.6016C6 8.33594 7.79688 6.5 10.0625 6.5ZM10.8438 11.1094V15.6016H11.7422V13.6875H13.6953V15.6016H14.5547V11.1094H13.6953V12.8672H11.7422V11.1094H10.8438ZM16.9375 11.1094V15.6016H17.7969V13.375L17.7188 12.6328H17.7969L18.9688 14.625H19.4766L20.6875 12.6328H20.7266L20.6875 13.375V15.6016H21.5469V11.1094H20.6875L19.2422 13.4531H19.2031L17.7969 11.1094H16.9375ZM18.6953 21.9688C18.8906 22.0078 19.0859 22.0469 19.2812 22.0469C19.4766 22.0469 19.6719 22.0078 19.8672 21.9688C20.0625 21.8906 20.2188 21.8125 20.375 21.6953C20.5312 21.5781 20.6484 21.4609 20.7656 21.3047C20.8438 21.1094 20.9219 20.9141 20.9219 20.6797C20.9219 20.4844 20.8828 20.3281 20.8047 20.1719C20.7656 20.0547 20.6875 19.8984 20.5703 19.7812C20.4531 19.6641 20.2969 19.5859 20.1406 19.5078C19.9844 19.4297 19.8281 19.3516 19.6328 19.2734L19.3594 19.1953C19.0859 19.1172 18.8906 19 18.7344 18.9219C18.6172 18.8438 18.5781 18.7266 18.5781 18.5703C18.5781 18.4531 18.6172 18.3359 18.7734 18.2578C18.8906 18.1406 19.0469 18.1016 19.2422 18.1016C19.4375 18.1016 19.5938 18.1797 19.7109 18.2578C19.8281 18.375 19.9062 18.4922 19.9453 18.6094L20.7656 18.2969C20.7266 18.1797 20.6484 18.1016 20.5703 17.9844C20.5312 17.8672 20.4141 17.75 20.2969 17.6719C20.1797 17.5547 20.0234 17.4766 19.8281 17.4375C19.6719 17.3594 19.4766 17.3594 19.2422 17.3594C19.0078 17.3594 18.7734 17.3594 18.6172 17.4375C18.4219 17.5156 18.2656 17.5938 18.1094 17.7109C17.9922 17.8281 17.875 17.9453 17.7969 18.1016C17.7188 18.2578 17.6797 18.4141 17.6797 18.6094C17.6797 18.7656 17.7188 18.9219 17.7969 19.0781C17.875 19.1953 17.9531 19.3125 18.0703 19.4297C18.1484 19.5078 18.2656 19.625 18.4219 19.6641C18.5391 19.7422 18.6562 19.8203 18.8125 19.8594L19.0859 19.9375C19.2812 20.0156 19.3984 20.0547 19.5156 20.1328C19.6328 20.1719 19.75 20.2109 19.8281 20.2891C19.8672 20.3281 19.9453 20.4062 19.9844 20.4844C19.9844 20.5234 20.0234 20.6016 20.0234 20.6797C20.0234 20.7969 19.9844 20.875 19.9453 20.9141C19.9062 20.9922 19.8672 21.0312 19.7891 21.1094C19.7109 21.1484 19.6719 21.1875 19.5547 21.1875C19.4766 21.2266 19.3984 21.2266 19.2812 21.2266C19.0469 21.2266 18.8516 21.1484 18.6953 20.9922C18.5391 20.875 18.4219 20.6797 18.3828 20.4453L17.5234 20.7578C17.6016 20.9531 17.6797 21.1484 17.7969 21.3047C17.9141 21.4609 18.0312 21.5781 18.1875 21.6953C18.3438 21.8125 18.5391 21.8906 18.6953 21.9688ZM12.7188 22.0469C13.0312 22.0469 13.3438 21.9688 13.6172 21.8516C13.8906 21.7344 14.125 21.5781 14.3594 21.3438C14.5547 21.1484 14.7109 20.875 14.8281 20.6016C14.9453 20.3281 14.9844 20.0156 14.9844 19.7031C14.9844 19.3516 14.9453 19.0391 14.8281 18.7656C14.7109 18.4922 14.5547 18.2188 14.3594 18.0234C14.125 17.8281 13.8906 17.6328 13.6172 17.5156C13.3438 17.3984 13.0312 17.3594 12.7188 17.3594C12.4062 17.3594 12.0938 17.3984 11.8203 17.5156C11.5078 17.6328 11.2734 17.8281 11.0781 18.0234C10.8828 18.2188 10.7266 18.4922 10.6094 18.7656C10.4922 19.0391 10.4141 19.3516 10.4141 19.7031C10.4141 20.0156 10.4922 20.3281 10.6094 20.6016C10.7266 20.875 10.8828 21.1484 11.0781 21.3438C11.2734 21.5781 11.5078 21.7344 11.8203 21.8516C12.0938 21.9688 12.4062 22.0469 12.7188 22.0469ZM12.7188 21.2266C12.5234 21.2266 12.3281 21.1875 12.1328 21.1094C11.9766 21.0312 11.8203 20.9531 11.6641 20.7969C11.5469 20.6797 11.4297 20.5234 11.3516 20.3281C11.2734 20.1328 11.2344 19.8984 11.2344 19.7031C11.2344 19.4688 11.2734 19.2344 11.3516 19.0391C11.4297 18.8828 11.5469 18.6875 11.6641 18.5703C11.8203 18.4531 11.9766 18.3359 12.1328 18.2578C12.3281 18.1797 12.5234 18.1406 12.7188 18.1406C12.9141 18.1406 13.1094 18.1797 13.2656 18.2578C13.4609 18.3359 13.6172 18.4531 13.7344 18.5703C13.8906 18.6875 13.9688 18.8828 14.0469 19.0391C14.125 19.2344 14.1641 19.4688 14.1641 19.7031C14.1641 19.8984 14.125 20.1328 14.0469 20.3281C13.9688 20.5234 13.8906 20.6797 13.7344 20.7969C13.6172 20.9531 13.4609 21.0312 13.2656 21.1094C13.1094 21.1875 12.9141 21.2266 12.7188 21.2266ZM11.0391 22.4375V22.4766V23.2188H14.3203V22.4375H11.0391Z" fill="black" fill-opacity="0.72"/>
</g>
</svg>
