<svg width="32" height="32" viewBox="0 0 32 32" fill="none" xmlns="http://www.w3.org/2000/svg">
<g id="standalone / md / circle-eight-md / regular">
<path id="icon" d="M24.75 16.5C24.724 14.9115 24.3333 13.4531 23.5781 12.125C22.7969 10.7969 21.7292 9.72917 20.375 8.92188C18.9948 8.14062 17.5365 7.75 16 7.75C14.4635 7.75 13.0052 8.14062 11.625 8.92188C10.2708 9.72917 9.20312 10.7969 8.42188 12.125C7.66667 13.4531 7.27604 14.9115 7.25 16.5C7.27604 18.0885 7.66667 19.5469 8.42188 20.875C9.20312 22.2031 10.2708 23.2708 11.625 24.0781C13.0052 24.8594 14.4635 25.25 16 25.25C17.5365 25.25 18.9948 24.8594 20.375 24.0781C21.7292 23.2708 22.7969 22.2031 23.5781 20.875C24.3333 19.5469 24.724 18.0885 24.75 16.5ZM6 16.5C6.02604 14.6771 6.46875 13.0104 7.32812 11.5C8.21354 9.98958 9.4375 8.76562 11 7.82812C12.5885 6.94271 14.2552 6.5 16 6.5C17.7448 6.5 19.4115 6.94271 21 7.82812C22.5625 8.76562 23.7865 9.98958 24.6719 11.5C25.5312 13.0104 25.974 14.6771 26 16.5C25.974 18.3229 25.5312 19.9896 24.6719 21.5C23.7865 23.0104 22.5625 24.2344 21 25.1719C19.4115 26.0573 17.7448 26.5 16 26.5C14.2552 26.5 12.5885 26.0573 11 25.1719C9.4375 24.2344 8.21354 23.0104 7.32812 21.5C6.46875 19.9896 6.02604 18.3229 6 16.5ZM16.4688 11.5C17.224 11.526 17.849 11.7865 18.3438 12.2812C18.8385 12.776 19.099 13.401 19.125 14.1562C19.099 14.9635 18.7995 15.6276 18.2266 16.1484C19.0078 16.7214 19.4115 17.5156 19.4375 18.5312C19.4115 19.3646 19.125 20.0677 18.5781 20.6406C18.0052 21.1875 17.3021 21.474 16.4688 21.5H15.5312C14.6979 21.474 13.9948 21.1875 13.4219 20.6406C12.875 20.0677 12.5885 19.3646 12.5625 18.5312C12.5885 17.5156 12.9922 16.7214 13.7734 16.1484C13.2005 15.6276 12.901 14.9635 12.875 14.1562C12.901 13.401 13.1615 12.776 13.6562 12.2812C14.151 11.7865 14.776 11.526 15.5312 11.5H16.4688ZM15.5312 15.5625H16.4688C16.8594 15.5625 17.1849 15.4193 17.4453 15.1328C17.7318 14.8724 17.875 14.5469 17.875 14.1562C17.875 13.7656 17.7318 13.4401 17.4453 13.1797C17.1849 12.8932 16.8594 12.75 16.4688 12.75H15.5312C15.1406 12.75 14.8151 12.8932 14.5547 13.1797C14.2682 13.4401 14.125 13.7656 14.125 14.1562C14.125 14.5469 14.2682 14.8724 14.5547 15.1328C14.8151 15.4193 15.1406 15.5625 15.5312 15.5625ZM16.4688 16.8125H15.5312C15.0365 16.8125 14.6328 16.9818 14.3203 17.3203C13.9818 17.6328 13.8125 18.0365 13.8125 18.5312C13.8125 19.026 13.9818 19.4297 14.3203 19.7422C14.6328 20.0807 15.0365 20.25 15.5312 20.25H16.4688C16.9635 20.25 17.3672 20.0807 17.6797 19.7422C18.0182 19.4297 18.1875 19.026 18.1875 18.5312C18.1875 18.0365 18.0182 17.6328 17.6797 17.3203C17.3672 16.9818 16.9635 16.8125 16.4688 16.8125Z" fill="black" fill-opacity="0.72"/>
</g>
</svg>
