<svg width="32" height="32" viewBox="0 0 32 32" fill="none" xmlns="http://www.w3.org/2000/svg">
<g id="standalone / md / info-md / bold">
<path id="icon" d="M14.4375 9.3125C14.4635 8.71354 14.724 8.25781 15.2188 7.94531C15.7396 7.6849 16.2604 7.6849 16.7812 7.94531C17.276 8.25781 17.5365 8.71354 17.5625 9.3125C17.5365 9.91146 17.276 10.3672 16.7812 10.6797C16.2604 10.9401 15.7396 10.9401 15.2188 10.6797C14.724 10.3672 14.4635 9.91146 14.4375 9.3125ZM12.875 14.3125C12.9271 13.7396 13.2396 13.4271 13.8125 13.375H16C16.5729 13.4271 16.8854 13.7396 16.9375 14.3125V24.625H18.8125C19.3854 24.6771 19.6979 24.9896 19.75 25.5625C19.6979 26.1354 19.3854 26.4479 18.8125 26.5H13.1875C12.6146 26.4479 12.3021 26.1354 12.25 25.5625C12.3021 24.9896 12.6146 24.6771 13.1875 24.625H15.0625V15.25H13.8125C13.2396 15.1979 12.9271 14.8854 12.875 14.3125Z" fill="black" fill-opacity="0.72"/>
</g>
</svg>
