<svg width="32" height="32" viewBox="0 0 32 32" fill="none" xmlns="http://www.w3.org/2000/svg">
<g id="standalone / md / arrow-down-to-bracket-md / regular">
<path id="icon" d="M21.4297 15.0547L16.4297 20.0547C16.1432 20.3151 15.8568 20.3151 15.5703 20.0547L10.5703 15.0547C10.3099 14.7682 10.3099 14.4818 10.5703 14.1953C10.8568 13.9349 11.1432 13.9349 11.4297 14.1953L15.375 18.1016V7.125C15.401 6.73438 15.6094 6.52604 16 6.5C16.3906 6.52604 16.599 6.73438 16.625 7.125V18.1016L20.5703 14.1953C20.8568 13.9349 21.1432 13.9349 21.4297 14.1953C21.6901 14.4818 21.6901 14.7682 21.4297 15.0547ZM8.5 19.625V23.375C8.52604 23.8958 8.70833 24.3385 9.04688 24.7031C9.41146 25.0417 9.85417 25.224 10.375 25.25H21.625C22.1458 25.224 22.5885 25.0417 22.9531 24.7031C23.2917 24.3385 23.474 23.8958 23.5 23.375V19.625C23.526 19.2344 23.7344 19.026 24.125 19C24.5156 19.026 24.724 19.2344 24.75 19.625V23.375C24.724 24.2604 24.4245 25.0026 23.8516 25.6016C23.2526 26.1745 22.5104 26.474 21.625 26.5H10.375C9.48958 26.474 8.7474 26.1745 8.14844 25.6016C7.57552 25.0026 7.27604 24.2604 7.25 23.375V19.625C7.27604 19.2344 7.48438 19.026 7.875 19C8.26562 19.026 8.47396 19.2344 8.5 19.625Z" fill="black" fill-opacity="0.72"/>
</g>
</svg>
