<svg width="32" height="32" viewBox="0 0 32 32" fill="none" xmlns="http://www.w3.org/2000/svg">
<g id="standalone / md / take-profit-md / regular">
<path id="icon" d="M12.25 12.7891V21.7344H10.5312V12.7891H7.40625V11.2656H15.3359V12.7891H12.25ZM17.0156 21.7344V11.2656H21.5078C22.4844 11.2656 23.2266 11.5781 23.7734 12.125C24.2812 12.7109 24.5547 13.4922 24.5547 14.4297C24.5547 15.4062 24.2812 16.1484 23.7734 16.7344C23.2266 17.3203 22.4844 17.5938 21.5078 17.5938H18.6953V21.7344H17.0156ZM18.6953 16.1094H21.3906C21.8203 16.1094 22.1719 15.9922 22.4062 15.7578C22.6406 15.5234 22.7578 15.2109 22.7578 14.7812V14.0781C22.7578 13.6484 22.6406 13.3359 22.4062 13.1016C22.1719 12.8672 21.8203 12.75 21.3906 12.75H18.6953V16.1094Z" fill="black" fill-opacity="0.72"/>
</g>
</svg>
