<svg width="32" height="32" viewBox="0 0 32 32" fill="none" xmlns="http://www.w3.org/2000/svg">
<g id="standalone / md / plus-md / regular">
<path id="icon" d="M16.625 9V15.875H23.5C23.8906 15.901 24.099 16.1094 24.125 16.5C24.099 16.8906 23.8906 17.099 23.5 17.125H16.625V24C16.599 24.3906 16.3906 24.599 16 24.625C15.6094 24.599 15.401 24.3906 15.375 24V17.125H8.5C8.10938 17.099 7.90104 16.8906 7.875 16.5C7.90104 16.1094 8.10938 15.901 8.5 15.875H15.375V9C15.401 8.60938 15.6094 8.40104 16 8.375C16.3906 8.40104 16.599 8.60938 16.625 9Z" fill="black" fill-opacity="0.72"/>
</g>
</svg>
