<svg width="32" height="32" viewBox="0 0 32 32" fill="none" xmlns="http://www.w3.org/2000/svg">
<g id="standalone / md / forward-md / bold">
<path id="icon" d="M14.75 10.1719C14.75 9.83333 14.8672 9.5599 15.1016 9.35156C15.3099 9.11719 15.5833 9 15.9219 9C16.1823 9 16.4167 9.07812 16.625 9.23438L25.6094 15.7578C25.8698 15.9401 26 16.1875 26 16.5C26 16.8125 25.8698 17.0599 25.6094 17.2422L16.625 23.7656C16.4167 23.9219 16.1823 24 15.9219 24C15.5833 24 15.3099 23.8828 15.1016 23.6484C14.8672 23.4401 14.75 23.1667 14.75 22.8281V18.9609L7.83594 23.8047C7.6276 23.9349 7.40625 24 7.17188 24C6.83333 24 6.5599 23.8828 6.35156 23.6484C6.11719 23.4401 6 23.1667 6 22.8281V10.1719C6 9.83333 6.11719 9.5599 6.35156 9.35156C6.5599 9.11719 6.83333 9 7.17188 9C7.43229 9 7.65365 9.0651 7.83594 9.19531L14.75 14.0391V10.1719ZM14.75 16.3438L7.875 11.5391V21.5L14.75 16.6562V16.3438ZM23.4609 16.5L16.625 11.5391V21.4609L23.4609 16.5Z" fill="black" fill-opacity="0.72"/>
</g>
</svg>
