<svg width="32" height="32" viewBox="0 0 32 32" fill="none" xmlns="http://www.w3.org/2000/svg">
<g id="standalone / md / ubuntu-md">
<path id="icon" d="M16 6.8125C17.7969 6.83854 19.4245 7.28125 20.8828 8.14062C22.3411 9 23.5 10.1589 24.3594 11.6172C25.2188 13.0755 25.6615 14.7031 25.6875 16.5C25.6615 18.2969 25.2188 19.9245 24.3594 21.3828C23.5 22.8411 22.3411 24 20.8828 24.8594C19.4245 25.7188 17.7969 26.1615 16 26.1875C14.2031 26.1615 12.5755 25.7188 11.1172 24.8594C9.65885 24 8.5 22.8411 7.64062 21.3828C6.78125 19.9245 6.33854 18.2969 6.3125 16.5C6.33854 14.7031 6.78125 13.0755 7.64062 11.6172C8.5 10.1589 9.65885 9 11.1172 8.14062C12.5755 7.28125 14.2031 6.83854 16 6.8125ZM18.0703 10.4453C17.888 10.7578 17.849 11.0703 17.9531 11.3828C18.0312 11.6953 18.2135 11.9557 18.5 12.1641C18.8125 12.3203 19.138 12.3594 19.4766 12.2812C19.7891 12.1771 20.0365 11.9818 20.2188 11.6953C20.375 11.3828 20.4141 11.0703 20.3359 10.7578C20.2578 10.4193 20.0625 10.1589 19.75 9.97656C19.4375 9.82031 19.125 9.78125 18.8125 9.85938C18.5 9.9375 18.2526 10.1328 18.0703 10.4453ZM9.71094 17.75C10.0755 17.75 10.375 17.6328 10.6094 17.3984C10.8438 17.1641 10.9609 16.8646 10.9609 16.5C10.9609 16.1354 10.8438 15.8359 10.6094 15.6016C10.375 15.3672 10.0755 15.25 9.71094 15.25C9.3724 15.25 9.08594 15.3672 8.85156 15.6016C8.61719 15.8359 8.5 16.1354 8.5 16.5C8.5 16.8646 8.61719 17.1641 8.85156 17.3984C9.08594 17.6328 9.3724 17.75 9.71094 17.75ZM10.8438 17.8672C11.2083 19.1693 11.9375 20.1979 13.0312 20.9531L13.9688 19.3906C12.9531 18.6354 12.4453 17.6719 12.4453 16.5C12.4453 15.3281 12.9531 14.3646 13.9688 13.6094L13.0312 12.0469C11.9375 12.8021 11.2083 13.8307 10.8438 15.1328C11.2604 15.5234 11.4688 15.9792 11.4688 16.5C11.4688 17.0469 11.2604 17.5026 10.8438 17.8672ZM19.75 23.0234C20.0625 22.8411 20.2578 22.5807 20.3359 22.2422C20.4141 21.9297 20.375 21.6172 20.2188 21.3047C20.0365 21.0182 19.7891 20.8229 19.4766 20.7188C19.138 20.6406 18.8125 20.6797 18.5 20.8359C18.2135 21.0182 18.0312 21.2786 17.9531 21.6172C17.849 21.9297 17.888 22.2422 18.0703 22.5547C18.2526 22.8672 18.5 23.0625 18.8125 23.1406C19.125 23.2188 19.4375 23.1797 19.75 23.0234ZM19.7891 20.2891C20.7005 19.3776 21.2214 18.2318 21.3516 16.8516L19.5547 16.8125C19.3724 18.0625 18.7865 18.987 17.7969 19.5859C16.7812 20.1589 15.6875 20.2109 14.5156 19.7422L13.6172 21.3047C14.5547 21.7214 15.375 21.9036 16.0781 21.8516C16.7812 21.7995 17.224 21.7344 17.4062 21.6562C17.5104 21.0833 17.7969 20.6667 18.2656 20.4062C18.7344 20.1458 19.2422 20.1068 19.7891 20.2891ZM19.5547 16.1875L21.3516 16.1484C21.2214 14.7682 20.6875 13.6224 19.75 12.7109C19.2292 12.8932 18.7344 12.8542 18.2656 12.5938C17.7969 12.3333 17.5104 11.9167 17.4062 11.3438C17.4062 11.3438 17.3932 11.3438 17.3672 11.3438C17.2109 11.2656 16.7812 11.2005 16.0781 11.1484C15.375 11.0964 14.5547 11.2786 13.6172 11.6953L14.5156 13.2969C15.6875 12.8021 16.7812 12.8411 17.7969 13.4141C18.7865 14.013 19.3724 14.9375 19.5547 16.1875Z" fill="black" fill-opacity="0.72"/>
</g>
</svg>
