<svg width="32" height="32" viewBox="0 0 32 32" fill="none" xmlns="http://www.w3.org/2000/svg">
<g id="standalone / md / user-md / bold">
<path id="icon" d="M19.125 11.5C19.099 10.3281 18.5781 9.42969 17.5625 8.80469C16.5208 8.23177 15.4792 8.23177 14.4375 8.80469C13.4219 9.42969 12.901 10.3281 12.875 11.5C12.901 12.6719 13.4219 13.5703 14.4375 14.1953C15.4792 14.7682 16.5208 14.7682 17.5625 14.1953C18.5781 13.5703 19.099 12.6719 19.125 11.5ZM11 11.5C11 10.5885 11.2214 9.75521 11.6641 9C12.1068 8.24479 12.7188 7.63281 13.5 7.16406C14.2812 6.72135 15.1146 6.5 16 6.5C16.8854 6.5 17.7188 6.72135 18.5 7.16406C19.2812 7.63281 19.8932 8.24479 20.3359 9C20.7786 9.75521 21 10.5885 21 11.5C21 12.4115 20.7786 13.2448 20.3359 14C19.8932 14.7552 19.2812 15.3672 18.5 15.8359C17.7188 16.2786 16.8854 16.5 16 16.5C15.1146 16.5 14.2812 16.2786 13.5 15.8359C12.7188 15.3672 12.1068 14.7552 11.6641 14C11.2214 13.2448 11 12.4115 11 11.5ZM9.16406 24.625H22.8359C22.6276 23.349 22.0677 22.3073 21.1562 21.5C20.2188 20.6927 19.099 20.276 17.7969 20.25H14.2031C12.901 20.276 11.7943 20.6927 10.8828 21.5C9.94531 22.3073 9.3724 23.349 9.16406 24.625ZM7.25 25.3281C7.30208 23.375 7.97917 21.7344 9.28125 20.4062C10.6094 19.1042 12.25 18.4271 14.2031 18.375H17.7969C19.75 18.4271 21.3906 19.1042 22.7188 20.4062C24.0208 21.7344 24.6979 23.375 24.75 25.3281C24.75 25.6667 24.6328 25.9401 24.3984 26.1484C24.1901 26.3828 23.9167 26.5 23.5781 26.5H8.42188C8.08333 26.5 7.8099 26.3828 7.60156 26.1484C7.36719 25.9401 7.25 25.6667 7.25 25.3281Z" fill="black" fill-opacity="0.72"/>
</g>
</svg>
