<svg width="32" height="32" viewBox="0 0 32 32" fill="none" xmlns="http://www.w3.org/2000/svg">
<g id="standalone / md / calendar-md / regular">
<path id="icon" d="M11.625 6.5C12.0156 6.52604 12.224 6.73438 12.25 7.125V9H19.75V7.125C19.776 6.73438 19.9844 6.52604 20.375 6.5C20.7656 6.52604 20.974 6.73438 21 7.125V9H22.25C22.9531 9.02604 23.5391 9.27344 24.0078 9.74219C24.4766 10.2109 24.724 10.7969 24.75 11.5V12.75V14V24C24.724 24.7031 24.4766 25.2891 24.0078 25.7578C23.5391 26.2266 22.9531 26.474 22.25 26.5H9.75C9.04688 26.474 8.46094 26.2266 7.99219 25.7578C7.52344 25.2891 7.27604 24.7031 7.25 24V14V12.75V11.5C7.27604 10.7969 7.52344 10.2109 7.99219 9.74219C8.46094 9.27344 9.04688 9.02604 9.75 9H11V7.125C11.026 6.73438 11.2344 6.52604 11.625 6.5ZM23.5 14H8.5V24C8.5 24.3646 8.61719 24.6641 8.85156 24.8984C9.08594 25.1328 9.38542 25.25 9.75 25.25H22.25C22.6146 25.25 22.9141 25.1328 23.1484 24.8984C23.3828 24.6641 23.5 24.3646 23.5 24V14ZM22.25 10.25H9.75C9.38542 10.25 9.08594 10.3672 8.85156 10.6016C8.61719 10.8359 8.5 11.1354 8.5 11.5V12.75H23.5V11.5C23.5 11.1354 23.3828 10.8359 23.1484 10.6016C22.9141 10.3672 22.6146 10.25 22.25 10.25Z" fill="black" fill-opacity="0.72"/>
</g>
</svg>
