<svg width="32" height="32" viewBox="0 0 32 32" fill="none" xmlns="http://www.w3.org/2000/svg">
<g id="standalone / md / eye-md / bold">
<path id="icon" d="M16 9.625C14.724 9.65104 13.5651 9.91146 12.5234 10.4062C11.4818 10.875 10.5573 11.5 9.75 12.2812C8.99479 12.9844 8.35677 13.7135 7.83594 14.4688C7.34115 15.224 6.95052 15.901 6.66406 16.5C6.95052 17.099 7.34115 17.776 7.83594 18.5312C8.35677 19.2865 8.99479 20.0156 9.75 20.7188C10.5573 21.5 11.4818 22.125 12.5234 22.5938C13.5651 23.0885 14.724 23.349 16 23.375C17.276 23.349 18.4349 23.0885 19.4766 22.5938C20.5182 22.125 21.4427 21.5 22.25 20.7188C23.0052 20.0156 23.6432 19.2865 24.1641 18.5312C24.6589 17.776 25.0495 17.099 25.3359 16.5C25.0495 15.901 24.6589 15.224 24.1641 14.4688C23.6432 13.7135 23.0052 12.9844 22.25 12.2812C21.4427 11.5 20.5182 10.875 19.4766 10.4062C18.4349 9.91146 17.276 9.65104 16 9.625ZM8.46094 10.9141C9.39844 10.0286 10.4922 9.28646 11.7422 8.6875C12.9922 8.08854 14.4115 7.77604 16 7.75C17.5885 7.77604 19.0078 8.08854 20.2578 8.6875C21.5078 9.28646 22.6016 10.0286 23.5391 10.9141C24.4505 11.7734 25.2057 12.6589 25.8047 13.5703C26.4036 14.4818 26.8594 15.3021 27.1719 16.0312C27.3021 16.3438 27.3021 16.6562 27.1719 16.9688C26.8594 17.6979 26.4036 18.5182 25.8047 19.4297C25.2057 20.3411 24.4505 21.2266 23.5391 22.0859C22.6016 22.9714 21.5078 23.7135 20.2578 24.3125C19.0078 24.9115 17.5885 25.224 16 25.25C14.4115 25.224 12.9922 24.9115 11.7422 24.3125C10.4922 23.7135 9.39844 22.9714 8.46094 22.0859C7.54948 21.2266 6.79427 20.3411 6.19531 19.4297C5.59635 18.5182 5.15365 17.6979 4.86719 16.9688C4.73698 16.6562 4.73698 16.3438 4.86719 16.0312C5.15365 15.3021 5.59635 14.4818 6.19531 13.5703C6.79427 12.6589 7.54948 11.7734 8.46094 10.9141ZM16 19.625C16.8854 19.599 17.6276 19.2995 18.2266 18.7266C18.7995 18.1276 19.099 17.3854 19.125 16.5C19.099 15.6146 18.7995 14.8724 18.2266 14.2734C17.6276 13.7005 16.8854 13.401 16 13.375C15.974 13.375 15.9609 13.375 15.9609 13.375C15.9609 13.375 15.9479 13.375 15.9219 13.375C15.974 13.5833 16 13.7917 16 14C15.974 14.7031 15.7266 15.2891 15.2578 15.7578C14.7891 16.2266 14.2031 16.474 13.5 16.5C13.2917 16.5 13.0833 16.474 12.875 16.4219C12.875 16.4479 12.875 16.4609 12.875 16.4609C12.875 16.4609 12.875 16.474 12.875 16.5C12.901 17.3854 13.2005 18.1276 13.7734 18.7266C14.3724 19.2995 15.1146 19.599 16 19.625ZM16 11.5C16.9115 11.5 17.7448 11.7214 18.5 12.1641C19.2552 12.6068 19.8672 13.2188 20.3359 14C20.7786 14.7812 21 15.6146 21 16.5C21 17.3854 20.7786 18.2188 20.3359 19C19.8672 19.7812 19.2552 20.3932 18.5 20.8359C17.7448 21.2786 16.9115 21.5 16 21.5C15.0885 21.5 14.2552 21.2786 13.5 20.8359C12.7448 20.3932 12.1328 19.7812 11.6641 19C11.2214 18.2188 11 17.3854 11 16.5C11 15.6146 11.2214 14.7812 11.6641 14C12.1328 13.2188 12.7448 12.6068 13.5 12.1641C14.2552 11.7214 15.0885 11.5 16 11.5Z" fill="black" fill-opacity="0.72"/>
</g>
</svg>
