<svg width="32" height="32" viewBox="0 0 32 32" fill="none" xmlns="http://www.w3.org/2000/svg">
<g id="standalone / md / forward-step-md / regular">
<path id="icon" d="M19.75 9.625C19.776 9.23438 19.9844 9.02604 20.375 9C20.7656 9.02604 20.974 9.23438 21 9.625V15.9531V17.0469V23.375C20.974 23.7656 20.7656 23.974 20.375 24C19.9844 23.974 19.776 23.7656 19.75 23.375V18.0625L12.7578 23.7656C12.5755 23.9219 12.3542 24 12.0938 24C11.7812 24 11.5208 23.8958 11.3125 23.6875C11.1042 23.4792 11 23.2188 11 22.9062V10.0938C11 9.78125 11.1042 9.52083 11.3125 9.3125C11.5208 9.10417 11.7812 9 12.0938 9C12.3542 9 12.5755 9.07812 12.7578 9.23438L19.75 14.9375V9.625ZM12.25 10.4453V22.5547L19.7109 16.5L12.25 10.4453Z" fill="black" fill-opacity="0.72"/>
</g>
</svg>
