<svg width="32" height="32" viewBox="0 0 32 32" fill="none" xmlns="http://www.w3.org/2000/svg">
<g id="standalone / md / arrow-down-a-z-md / bold">
<path id="icon" d="M6.58594 21.2266C6.22135 20.7839 6.22135 20.3411 6.58594 19.8984C7.02865 19.5339 7.47135 19.5339 7.91406 19.8984L10.0625 22.0469V8.6875C10.1146 8.11458 10.4271 7.80208 11 7.75C11.5729 7.80208 11.8854 8.11458 11.9375 8.6875V22.0469L14.0859 19.8984C14.5286 19.5339 14.9714 19.5339 15.4141 19.8984C15.7786 20.3411 15.7786 20.7839 15.4141 21.2266L11.6641 24.9766C11.2214 25.3411 10.7786 25.3411 10.3359 24.9766L6.58594 21.2266ZM18.5 17.75H23.5C23.8906 17.776 24.1771 17.9583 24.3594 18.2969C24.4896 18.6615 24.4375 19 24.2031 19.3125L20.5703 23.375H23.5C24.0729 23.4271 24.3854 23.7396 24.4375 24.3125C24.3854 24.8854 24.0729 25.1979 23.5 25.25H18.5C18.1094 25.224 17.8229 25.0417 17.6406 24.7031C17.5104 24.3385 17.5625 24 17.7969 23.6875L21.4297 19.625H18.5C17.9271 19.5729 17.6146 19.2604 17.5625 18.6875C17.6146 18.1146 17.9271 17.8021 18.5 17.75ZM21 7.75C21.3906 7.77604 21.6641 7.94531 21.8203 8.25781L24.9453 14.5078C25.1536 15.0547 25.0234 15.4714 24.5547 15.7578C24.0078 15.9661 23.5911 15.8359 23.3047 15.3672L22.7578 14.3125C22.7057 14.3125 22.6406 14.3125 22.5625 14.3125H19.2422L18.6953 15.3672C18.4089 15.8359 17.9922 15.9792 17.4453 15.7969C16.9766 15.4844 16.8464 15.0547 17.0547 14.5078L20.1797 8.25781C20.362 7.91927 20.6354 7.75 21 7.75ZM20.1797 12.4375H21.8203L21 10.7969L20.1797 12.4375Z" fill="black" fill-opacity="0.72"/>
</g>
</svg>
