<svg width="32" height="32" viewBox="0 0 32 32" fill="none" xmlns="http://www.w3.org/2000/svg">
<g id="standalone / md / circle-two-md / regular">
<path id="icon" d="M16 7.75C14.4115 7.77604 12.9531 8.16667 11.625 8.92188C10.2969 9.70312 9.22917 10.7708 8.42188 12.125C7.64062 13.5052 7.25 14.9635 7.25 16.5C7.25 18.0365 7.64062 19.4948 8.42188 20.875C9.22917 22.2292 10.2969 23.2969 11.625 24.0781C12.9531 24.8333 14.4115 25.224 16 25.25C17.5885 25.224 19.0469 24.8333 20.375 24.0781C21.7031 23.2969 22.7708 22.2292 23.5781 20.875C24.3594 19.4948 24.75 18.0365 24.75 16.5C24.75 14.9635 24.3594 13.5052 23.5781 12.125C22.7708 10.7708 21.7031 9.70312 20.375 8.92188C19.0469 8.16667 17.5885 7.77604 16 7.75ZM16 26.5C14.1771 26.474 12.5104 26.0312 11 25.1719C9.48958 24.2865 8.26562 23.0625 7.32812 21.5C6.44271 19.9115 6 18.2448 6 16.5C6 14.7552 6.44271 13.0885 7.32812 11.5C8.26562 9.9375 9.48958 8.71354 11 7.82812C12.5104 6.96875 14.1771 6.52604 16 6.5C17.8229 6.52604 19.4896 6.96875 21 7.82812C22.5104 8.71354 23.7344 9.9375 24.6719 11.5C25.5573 13.0885 26 14.7552 26 16.5C26 18.2448 25.5573 19.9115 24.6719 21.5C23.7344 23.0625 22.5104 24.2865 21 25.1719C19.4896 26.0312 17.8229 26.474 16 26.5ZM14.4766 13.2969L13.9297 13.8438C13.6172 14.0781 13.3177 14.0651 13.0312 13.8047C12.7969 13.4922 12.8099 13.1927 13.0703 12.9062L13.6172 12.3984C14.2682 11.7995 15.0365 11.5 15.9219 11.5C16.8333 11.5521 17.5885 11.8776 18.1875 12.4766C18.7865 13.1016 19.099 13.8698 19.125 14.7812C19.125 15.6667 18.8125 16.4349 18.1875 17.0859L15.0234 20.25H19.125C19.5156 20.276 19.724 20.4844 19.75 20.875C19.724 21.2656 19.5156 21.474 19.125 21.5H13.5C13.2396 21.474 13.0443 21.3438 12.9141 21.1094C12.8359 20.849 12.888 20.6276 13.0703 20.4453L17.2891 16.2266C17.6797 15.8099 17.875 15.3281 17.875 14.7812C17.849 14.2083 17.6536 13.7396 17.2891 13.375C16.9245 12.9844 16.4557 12.776 15.8828 12.75C15.3359 12.75 14.8672 12.9323 14.4766 13.2969Z" fill="black" fill-opacity="0.72"/>
</g>
</svg>
