<svg width="32" height="32" viewBox="0 0 32 32" fill="none" xmlns="http://www.w3.org/2000/svg">
<g id="standalone / md / presentation-screen-md / bold">
<path id="icon" d="M5.6875 6.5H26.3125C26.8854 6.55208 27.1979 6.86458 27.25 7.4375C27.1979 8.01042 26.8854 8.32292 26.3125 8.375H5.6875C5.11458 8.32292 4.80208 8.01042 4.75 7.4375C4.80208 6.86458 5.11458 6.55208 5.6875 6.5ZM6 9.625H7.875V18.0625C7.90104 18.2448 8.00521 18.349 8.1875 18.375H16H23.8125C23.9948 18.349 24.099 18.2448 24.125 18.0625V9.625H26V18.0625C25.974 18.6875 25.7656 19.2083 25.375 19.625C24.9583 20.0156 24.4375 20.224 23.8125 20.25H16.9375V22.0469L19.7891 24.8984C20.1536 25.3411 20.1536 25.7839 19.7891 26.2266C19.3464 26.5911 18.9036 26.5911 18.4609 26.2266L16 23.7656L13.5391 26.2266C13.0964 26.5911 12.6536 26.5911 12.2109 26.2266C11.8464 25.7839 11.8464 25.3411 12.2109 24.8984L15.0625 22.0469V20.25H8.1875C7.5625 20.224 7.04167 20.0156 6.625 19.625C6.23438 19.2083 6.02604 18.6875 6 18.0625V9.625Z" fill="black" fill-opacity="0.72"/>
</g>
</svg>
