<svg width="32" height="32" viewBox="0 0 32 32" fill="none" xmlns="http://www.w3.org/2000/svg">
<g id="standalone / md / circle-sterling-md / regular">
<path id="icon" d="M24.75 16.5C24.724 14.9115 24.3333 13.4531 23.5781 12.125C22.7969 10.7969 21.7292 9.72917 20.375 8.92188C18.9948 8.14062 17.5365 7.75 16 7.75C14.4635 7.75 13.0052 8.14062 11.625 8.92188C10.2708 9.72917 9.20312 10.7969 8.42188 12.125C7.66667 13.4531 7.27604 14.9115 7.25 16.5C7.27604 18.0885 7.66667 19.5469 8.42188 20.875C9.20312 22.2031 10.2708 23.2708 11.625 24.0781C13.0052 24.8594 14.4635 25.25 16 25.25C17.5365 25.25 18.9948 24.8594 20.375 24.0781C21.7292 23.2708 22.7969 22.2031 23.5781 20.875C24.3333 19.5469 24.724 18.0885 24.75 16.5ZM6 16.5C6.02604 14.6771 6.46875 13.0104 7.32812 11.5C8.21354 9.98958 9.4375 8.76562 11 7.82812C12.5885 6.94271 14.2552 6.5 16 6.5C17.7448 6.5 19.4115 6.94271 21 7.82812C22.5625 8.76562 23.7865 9.98958 24.6719 11.5C25.5312 13.0104 25.974 14.6771 26 16.5C25.974 18.3229 25.5312 19.9896 24.6719 21.5C23.7865 23.0104 22.5625 24.2344 21 25.1719C19.4115 26.0573 17.7448 26.5 16 26.5C14.2552 26.5 12.5885 26.0573 11 25.1719C9.4375 24.2344 8.21354 23.0104 7.32812 21.5C6.46875 19.9896 6.02604 18.3229 6 16.5ZM16.1562 12.125C15.7396 12.125 15.401 12.2682 15.1406 12.5547C14.8802 12.8151 14.737 13.1536 14.7109 13.5703L14.75 15.25H16.625C17.0156 15.276 17.224 15.4844 17.25 15.875C17.224 16.2656 17.0156 16.474 16.625 16.5H14.75C14.6979 17.3854 14.4635 18.2188 14.0469 19H18.8125C19.2031 19.026 19.4115 19.2344 19.4375 19.625C19.4115 20.0156 19.2031 20.224 18.8125 20.25H12.875C12.6406 20.25 12.4583 20.1458 12.3281 19.9375C12.224 19.7031 12.237 19.4818 12.3672 19.2734L12.7188 18.7656C13.1875 18.0625 13.4479 17.3073 13.5 16.5H12.875C12.4844 16.474 12.276 16.2656 12.25 15.875C12.276 15.4844 12.4844 15.276 12.875 15.25H13.5L13.4609 13.5703C13.487 12.8151 13.7474 12.1771 14.2422 11.6562C14.737 11.1615 15.375 10.901 16.1562 10.875C16.5729 10.875 16.9635 10.9661 17.3281 11.1484L18.1484 11.5781C18.487 11.7865 18.5781 12.0599 18.4219 12.3984C18.2396 12.737 17.9661 12.8281 17.6016 12.6719L16.7812 12.2812C16.5729 12.1771 16.3646 12.125 16.1562 12.125Z" fill="black" fill-opacity="0.72"/>
</g>
</svg>
