<svg width="32" height="32" viewBox="0 0 32 32" fill="none" xmlns="http://www.w3.org/2000/svg">
<g id="standalone / md / search-md / regular">
<path id="icon" d="M21 14.625C21 13.375 20.6875 12.2292 20.0625 11.1875C19.4635 10.1458 18.6302 9.3125 17.5625 8.6875C16.4688 8.0625 15.3229 7.75 14.125 7.75C12.9271 7.75 11.7812 8.0625 10.6875 8.6875C9.61979 9.3125 8.78646 10.1458 8.1875 11.1875C7.5625 12.2292 7.25 13.375 7.25 14.625C7.25 15.875 7.5625 17.0208 8.1875 18.0625C8.78646 19.1042 9.61979 19.9375 10.6875 20.5625C11.7812 21.1875 12.9271 21.5 14.125 21.5C15.3229 21.5 16.4688 21.1875 17.5625 20.5625C18.6302 19.9375 19.4635 19.1042 20.0625 18.0625C20.6875 17.0208 21 15.875 21 14.625ZM19.3984 20.7969C17.9401 22.0469 16.1823 22.6979 14.125 22.75C11.8333 22.6979 9.91927 21.9036 8.38281 20.3672C6.84635 18.8307 6.05208 16.9167 6 14.625C6.05208 12.3333 6.84635 10.4193 8.38281 8.88281C9.91927 7.34635 11.8333 6.55208 14.125 6.5C16.4167 6.55208 18.3307 7.34635 19.8672 8.88281C21.4036 10.4193 22.1979 12.3333 22.25 14.625C22.1979 16.6823 21.5469 18.4401 20.2969 19.8984L25.8047 25.4453C26.0651 25.7318 26.0651 26.0182 25.8047 26.3047C25.5182 26.5651 25.2318 26.5651 24.9453 26.3047L19.3984 20.7969Z" fill="black" fill-opacity="0.72"/>
</g>
</svg>
