<svg width="32" height="32" viewBox="0 0 32 32" fill="none" xmlns="http://www.w3.org/2000/svg">
<g id="standalone / md / dollar-sign-md / bold">
<path id="icon" d="M16.9375 7.4375V9.35156C18.0312 9.48177 18.9688 9.65104 19.75 9.85938C20.2969 10.0417 20.5182 10.4193 20.4141 10.9922C20.2318 11.5391 19.8672 11.7734 19.3203 11.6953C18.6953 11.5391 17.9792 11.3958 17.1719 11.2656C16.3906 11.1615 15.6224 11.1354 14.8672 11.1875C14.112 11.2396 13.513 11.4089 13.0703 11.6953C12.6797 11.9297 12.4193 12.3203 12.2891 12.8672C12.2109 13.3099 12.237 13.6354 12.3672 13.8438C12.4714 14.0521 12.6927 14.2734 13.0312 14.5078C13.8125 14.9245 14.8802 15.2891 16.2344 15.6016H16.3125C16.9375 15.7578 17.5625 15.9401 18.1875 16.1484C18.8385 16.3307 19.4245 16.5781 19.9453 16.8906C20.5182 17.2292 20.974 17.7109 21.3125 18.3359C21.625 18.9609 21.7031 19.6771 21.5469 20.4844C21.2083 21.8646 20.375 22.776 19.0469 23.2188C18.3958 23.4792 17.6927 23.6224 16.9375 23.6484V25.5625C16.8854 26.1354 16.5729 26.4479 16 26.5C15.4271 26.4479 15.1146 26.1354 15.0625 25.5625V23.6094C15.0104 23.6094 14.9453 23.6094 14.8672 23.6094C14.8151 23.5833 14.75 23.5703 14.6719 23.5703C14.151 23.4922 13.5391 23.362 12.8359 23.1797C12.1068 22.9974 11.4688 22.7891 10.9219 22.5547C10.4271 22.2943 10.2708 21.8906 10.4531 21.3438C10.7396 20.8229 11.1562 20.6536 11.7031 20.8359C12.1458 21.0443 12.6797 21.2266 13.3047 21.3828C13.9297 21.5391 14.4766 21.6562 14.9453 21.7344C16.3516 21.9167 17.4844 21.8385 18.3438 21.5C19.151 21.1615 19.6068 20.7057 19.7109 20.1328C19.7891 19.6901 19.763 19.3646 19.6328 19.1562C19.5286 18.9479 19.3073 18.7266 18.9688 18.4922C18.1875 18.0755 17.1198 17.7109 15.7656 17.3984H15.6875C15.0625 17.2422 14.4375 17.0599 13.8125 16.8516C13.1615 16.6693 12.5755 16.4219 12.0547 16.1094C11.4818 15.7708 11.026 15.2891 10.6875 14.6641C10.375 14.0391 10.2969 13.3229 10.4531 12.5156C10.6875 11.4219 11.2344 10.6146 12.0938 10.0938C12.901 9.625 13.7734 9.36458 14.7109 9.3125C14.8151 9.3125 14.9323 9.3125 15.0625 9.3125V7.4375C15.1146 6.86458 15.4271 6.55208 16 6.5C16.5729 6.55208 16.8854 6.86458 16.9375 7.4375Z" fill="black" fill-opacity="0.72"/>
</g>
</svg>
