<svg width="32" height="32" viewBox="0 0 32 32" fill="none" xmlns="http://www.w3.org/2000/svg">
<g id="standalone / md / bell-md / regular">
<path id="icon" d="M15.375 7.125C15.401 6.73438 15.6094 6.52604 16 6.5C16.3906 6.52604 16.599 6.73438 16.625 7.125V7.78906C18.2396 7.97135 19.5677 8.63542 20.6094 9.78125C21.6771 10.9271 22.224 12.3333 22.25 14V15.1328C22.276 16.9036 22.901 18.4271 24.125 19.7031L24.2422 19.8203C24.5807 20.1589 24.75 20.5625 24.75 21.0312C24.75 21.526 24.5807 21.9297 24.2422 22.2422C23.9297 22.5807 23.526 22.75 23.0312 22.75H8.96875C8.47396 22.75 8.07031 22.5807 7.75781 22.2422C7.41927 21.9297 7.25 21.526 7.25 21.0312C7.25 20.5625 7.41927 20.1458 7.75781 19.7812L7.875 19.7031C9.09896 18.4271 9.72396 16.9036 9.75 15.1328V14C9.77604 12.3333 10.3229 10.9271 11.3906 9.78125C12.4323 8.63542 13.7604 7.97135 15.375 7.78906V7.125ZM16 9C14.5938 9.02604 13.4089 9.50781 12.4453 10.4453C11.5078 11.4089 11.026 12.5938 11 14V15.1328C10.974 17.2422 10.2188 19.0521 8.73438 20.5625L8.65625 20.6797C8.55208 20.7839 8.5 20.901 8.5 21.0312C8.52604 21.3177 8.68229 21.474 8.96875 21.5H23.0312C23.3177 21.474 23.474 21.3177 23.5 21.0312C23.5 20.901 23.4479 20.7839 23.3438 20.6797L23.2656 20.5625C21.7812 19.0521 21.026 17.2422 21 15.1328V14C20.974 12.5938 20.4792 11.4089 19.5156 10.4453C18.5781 9.50781 17.4062 9.02604 16 9ZM14.8281 24.4297C15.0365 24.9505 15.4271 25.224 16 25.25C16.5729 25.224 16.9635 24.9505 17.1719 24.4297C17.3281 24.0651 17.6016 23.9349 17.9922 24.0391C18.3307 24.1953 18.4479 24.4557 18.3438 24.8203C18.1615 25.3151 17.862 25.7188 17.4453 26.0312C17.0286 26.3438 16.5469 26.5 16 26.5C15.4531 26.5 14.9714 26.3438 14.5547 26.0312C14.138 25.7188 13.8385 25.3151 13.6562 24.8203C13.5521 24.4557 13.6693 24.1953 14.0078 24.0391C14.3984 23.9349 14.6719 24.0651 14.8281 24.4297Z" fill="black" fill-opacity="0.72"/>
</g>
</svg>
