<svg width="32" height="32" viewBox="0 0 32 32" fill="none" xmlns="http://www.w3.org/2000/svg">
<g id="standalone / md / video-md / bold">
<path id="icon" d="M7.25 10.875C6.85938 10.901 6.65104 11.1094 6.625 11.5V21.5C6.65104 21.8906 6.85938 22.099 7.25 22.125H17.25C17.6406 22.099 17.849 21.8906 17.875 21.5V11.5C17.849 11.1094 17.6406 10.901 17.25 10.875H7.25ZM4.75 11.5C4.77604 10.7969 5.02344 10.2109 5.49219 9.74219C5.96094 9.27344 6.54688 9.02604 7.25 9H17.25C17.9531 9.02604 18.5391 9.27344 19.0078 9.74219C19.4766 10.2109 19.724 10.7969 19.75 11.5V12.7891V20.2109V21.5C19.724 22.2031 19.4766 22.7891 19.0078 23.2578C18.5391 23.7266 17.9531 23.974 17.25 24H7.25C6.54688 23.974 5.96094 23.7266 5.49219 23.2578C5.02344 22.7891 4.77604 22.2031 4.75 21.5V11.5ZM25.375 20.6797V12.3203L21 14.2734V12.2031L25.0625 10.4062C25.2708 10.3021 25.4922 10.25 25.7266 10.25C26.1432 10.25 26.4948 10.4062 26.7812 10.7188C27.0938 11.0052 27.25 11.3698 27.25 11.8125V21.2266C27.25 21.6432 27.0938 21.9948 26.7812 22.2812C26.4948 22.5938 26.1432 22.75 25.7266 22.75C25.4922 22.75 25.2708 22.7109 25.0625 22.6328L21 20.7969V18.7266L25.375 20.6797Z" fill="black" fill-opacity="0.72"/>
</g>
</svg>
