<svg width="32" height="32" viewBox="0 0 32 32" fill="none" xmlns="http://www.w3.org/2000/svg">
<g id="standalone / md / tablet-md / regular">
<path id="icon" d="M9.75 7.75C9.38542 7.75 9.08594 7.86719 8.85156 8.10156C8.61719 8.33594 8.5 8.63542 8.5 9V24C8.5 24.3646 8.61719 24.6641 8.85156 24.8984C9.08594 25.1328 9.38542 25.25 9.75 25.25H22.25C22.6146 25.25 22.9141 25.1328 23.1484 24.8984C23.3828 24.6641 23.5 24.3646 23.5 24V9C23.5 8.63542 23.3828 8.33594 23.1484 8.10156C22.9141 7.86719 22.6146 7.75 22.25 7.75H9.75ZM7.25 9C7.27604 8.29688 7.52344 7.71094 7.99219 7.24219C8.46094 6.77344 9.04688 6.52604 9.75 6.5H22.25C22.9531 6.52604 23.5391 6.77344 24.0078 7.24219C24.4766 7.71094 24.724 8.29688 24.75 9V24C24.724 24.7031 24.4766 25.2891 24.0078 25.7578C23.5391 26.2266 22.9531 26.474 22.25 26.5H9.75C9.04688 26.474 8.46094 26.2266 7.99219 25.7578C7.52344 25.2891 7.27604 24.7031 7.25 24V9ZM14.75 22.125H17.25C17.6406 22.151 17.849 22.3594 17.875 22.75C17.849 23.1406 17.6406 23.349 17.25 23.375H14.75C14.3594 23.349 14.151 23.1406 14.125 22.75C14.151 22.3594 14.3594 22.151 14.75 22.125Z" fill="black" fill-opacity="0.72"/>
</g>
</svg>
