<svg width="32" height="32" viewBox="0 0 32 32" fill="none" xmlns="http://www.w3.org/2000/svg">
<g id="standalone / md / circle-xmark-md / bold">
<path id="icon" d="M16 8.375C14.5156 8.375 13.1615 8.73958 11.9375 9.46875C10.7135 10.1719 9.72396 11.1615 8.96875 12.4375C8.23958 13.7135 7.875 15.0677 7.875 16.5C7.875 17.9323 8.23958 19.2865 8.96875 20.5625C9.72396 21.8385 10.7135 22.8281 11.9375 23.5312C13.1615 24.2604 14.5156 24.625 16 24.625C17.4844 24.625 18.8385 24.2604 20.0625 23.5312C21.2865 22.8281 22.276 21.8385 23.0312 20.5625C23.7604 19.2865 24.125 17.9323 24.125 16.5C24.125 15.0677 23.7604 13.7135 23.0312 12.4375C22.276 11.1615 21.2865 10.1719 20.0625 9.46875C18.8385 8.73958 17.4844 8.375 16 8.375ZM16 26.5C14.1771 26.474 12.5104 26.0312 11 25.1719C9.48958 24.2865 8.26562 23.0625 7.32812 21.5C6.44271 19.9115 6 18.2448 6 16.5C6 14.7552 6.44271 13.0885 7.32812 11.5C8.26562 9.9375 9.48958 8.71354 11 7.82812C12.5104 6.96875 14.1771 6.52604 16 6.5C17.8229 6.52604 19.4896 6.96875 21 7.82812C22.5104 8.71354 23.7344 9.9375 24.6719 11.5C25.5573 13.0885 26 14.7552 26 16.5C26 18.2448 25.5573 19.9115 24.6719 21.5C23.7344 23.0625 22.5104 24.2865 21 25.1719C19.4896 26.0312 17.8229 26.474 16 26.5ZM12.8359 13.3359C13.2786 12.9714 13.7214 12.9714 14.1641 13.3359L16 15.1719L17.8359 13.3359C18.2786 12.9714 18.7214 12.9714 19.1641 13.3359C19.5286 13.7786 19.5286 14.2214 19.1641 14.6641L17.3281 16.5L19.1641 18.3359C19.5286 18.7786 19.5286 19.2214 19.1641 19.6641C18.7214 20.0286 18.2786 20.0286 17.8359 19.6641L16 17.8281L14.1641 19.6641C13.7214 20.0286 13.2786 20.0286 12.8359 19.6641C12.4714 19.2214 12.4714 18.7786 12.8359 18.3359L14.6719 16.5L12.8359 14.6641C12.4714 14.2214 12.4714 13.7786 12.8359 13.3359Z" fill="black" fill-opacity="0.72"/>
</g>
</svg>
