<svg width="32" height="32" viewBox="0 0 32 32" fill="none" xmlns="http://www.w3.org/2000/svg">
<g id="standalone / md / bullhorn-md / bold">
<path id="icon" d="M22.875 9.39062L22.4453 9.82031C21.3255 10.9141 20.0495 11.7734 18.6172 12.3984C17.2109 12.9974 15.7135 13.3229 14.125 13.375V18.375C15.7135 18.4271 17.2109 18.7526 18.6172 19.3516C20.0495 19.9766 21.3255 20.8359 22.4453 21.9297L22.875 22.3594V9.39062ZM12.25 11.5H13.8516C15.2318 11.5 16.5469 11.2396 17.7969 10.7188C19.0469 10.1979 20.1536 9.45573 21.1172 8.49219L22.6016 7.00781C23.0443 6.61719 23.5 6.52604 23.9688 6.73438C24.4375 6.91667 24.6979 7.29427 24.75 7.86719V13.5312C25.1146 13.7135 25.4141 14.013 25.6484 14.4297C25.8828 14.8464 26 15.3281 26 15.875C26 16.4219 25.8828 16.9036 25.6484 17.3203C25.4141 17.737 25.1146 18.0365 24.75 18.2188V23.8828C24.6979 24.4557 24.4375 24.8333 23.9688 25.0156C23.5 25.224 23.0443 25.1328 22.6016 24.7422L21.1172 23.2578C20.1797 22.3203 19.112 21.5911 17.9141 21.0703C16.7161 20.5755 15.4531 20.3021 14.125 20.25V24.3125C14.099 24.9375 13.8906 25.4583 13.5 25.875C13.0833 26.2656 12.5625 26.474 11.9375 26.5H10.6875C10.0625 26.474 9.54167 26.2656 9.125 25.875C8.73438 25.4583 8.52604 24.9375 8.5 24.3125V20.25C7.79688 20.224 7.21094 19.9766 6.74219 19.5078C6.27344 19.0391 6.02604 18.4531 6 17.75V14C6.02604 13.2969 6.27344 12.7109 6.74219 12.2422C7.21094 11.7734 7.79688 11.526 8.5 11.5H12.25ZM10.375 20.25V24.3125C10.401 24.4948 10.5052 24.599 10.6875 24.625H11.9375C12.1198 24.599 12.224 24.4948 12.25 24.3125V20.25H10.375ZM8.5 13.375C8.10938 13.401 7.90104 13.6094 7.875 14V17.75C7.90104 18.1406 8.10938 18.349 8.5 18.375H10.375H12.25V13.375H8.5Z" fill="black" fill-opacity="0.72"/>
</g>
</svg>
