<svg width="32" height="32" viewBox="0 0 32 32" fill="none" xmlns="http://www.w3.org/2000/svg">
<g id="standalone / md / arrow-right-to-line-md / regular">
<path id="icon" d="M24.75 9.625V23.375C24.724 23.7656 24.5156 23.974 24.125 24C23.7344 23.974 23.526 23.7656 23.5 23.375V9.625C23.526 9.23438 23.7344 9.02604 24.125 9C24.5156 9.02604 24.724 9.23438 24.75 9.625ZM20.8047 16.9297L15.8047 21.9297C15.5182 22.1901 15.2318 22.1901 14.9453 21.9297C14.6849 21.6432 14.6849 21.3568 14.9453 21.0703L18.8516 17.125H14.75H7.875C7.48438 17.099 7.27604 16.8906 7.25 16.5C7.27604 16.1094 7.48438 15.901 7.875 15.875H14.75H18.8516L14.9453 11.9297C14.6849 11.6432 14.6849 11.3568 14.9453 11.0703C15.2318 10.8099 15.5182 10.8099 15.8047 11.0703L20.8047 16.0703C21.0651 16.3568 21.0651 16.6432 20.8047 16.9297Z" fill="black" fill-opacity="0.72"/>
</g>
</svg>
