<svg width="32" height="32" viewBox="0 0 32 32" fill="none" xmlns="http://www.w3.org/2000/svg">
<g id="standalone / md / chart-candlestick-md / regular">
<path id="icon" d="M7.25 8.375V22.125C7.27604 22.6458 7.45833 23.0885 7.79688 23.4531C8.16146 23.7917 8.60417 23.974 9.125 24H25.375C25.7656 24.026 25.974 24.2344 26 24.625C25.974 25.0156 25.7656 25.224 25.375 25.25H9.125C8.23958 25.224 7.4974 24.9245 6.89844 24.3516C6.32552 23.7526 6.02604 23.0104 6 22.125V8.375C6.02604 7.98438 6.23438 7.77604 6.625 7.75C7.01562 7.77604 7.22396 7.98438 7.25 8.375ZM18.5 8.375V10.25C18.5 10.276 18.5 10.2891 18.5 10.2891C18.8646 10.3672 19.1641 10.5495 19.3984 10.8359C19.6328 11.0964 19.75 11.4219 19.75 11.8125V14.9375C19.6979 15.7448 19.2812 16.2526 18.5 16.4609C18.5 16.4609 18.5 16.474 18.5 16.5V18.375C18.474 18.7656 18.2656 18.974 17.875 19C17.4844 18.974 17.276 18.7656 17.25 18.375V16.5C17.25 16.474 17.25 16.4609 17.25 16.4609C16.8854 16.3828 16.5859 16.2005 16.3516 15.9141C16.1172 15.6536 16 15.3281 16 14.9375V11.8125C16.0521 11.0052 16.4688 10.4974 17.25 10.2891C17.25 10.2891 17.25 10.276 17.25 10.25V8.375C17.276 7.98438 17.4844 7.77604 17.875 7.75C18.2656 7.77604 18.474 7.98438 18.5 8.375ZM12.875 9C13.2656 9.02604 13.474 9.23438 13.5 9.625V11.5C13.5 11.526 13.5 11.5391 13.5 11.5391C13.8646 11.6172 14.1641 11.7995 14.3984 12.0859C14.6328 12.3464 14.75 12.6719 14.75 13.0625V17.4375C14.6979 18.2448 14.2812 18.7526 13.5 18.9609C13.5 18.9609 13.5 18.974 13.5 19V20.875C13.474 21.2656 13.2656 21.474 12.875 21.5C12.4844 21.474 12.276 21.2656 12.25 20.875V19C12.25 18.974 12.25 18.9609 12.25 18.9609C11.8854 18.8828 11.5859 18.7005 11.3516 18.4141C11.1172 18.1536 11 17.8281 11 17.4375V13.0625C11.0521 12.2552 11.4688 11.7474 12.25 11.5391C12.25 11.5391 12.25 11.526 12.25 11.5V9.625C12.276 9.23438 12.4844 9.02604 12.875 9ZM18.5 11.8125C18.474 11.6302 18.3698 11.526 18.1875 11.5H17.5625C17.3802 11.526 17.276 11.6302 17.25 11.8125V14.9375C17.276 15.1198 17.3802 15.224 17.5625 15.25H18.1875C18.3698 15.224 18.474 15.1198 18.5 14.9375V11.8125ZM22.5625 15.25C22.3802 15.276 22.276 15.3802 22.25 15.5625V17.4375C22.276 17.6198 22.3802 17.724 22.5625 17.75H23.1875C23.3698 17.724 23.474 17.6198 23.5 17.4375V15.5625C23.474 15.3802 23.3698 15.276 23.1875 15.25H22.5625ZM22.25 14V12.125C22.276 11.7344 22.4844 11.526 22.875 11.5C23.2656 11.526 23.474 11.7344 23.5 12.125V14C23.5 14.026 23.5 14.0391 23.5 14.0391C23.8646 14.1172 24.1641 14.2995 24.3984 14.5859C24.6328 14.8464 24.75 15.1719 24.75 15.5625V17.4375C24.6979 18.2448 24.2812 18.7526 23.5 18.9609C23.5 18.9609 23.5 18.974 23.5 19V20.875C23.474 21.2656 23.2656 21.474 22.875 21.5C22.4844 21.474 22.276 21.2656 22.25 20.875V19C22.25 18.974 22.25 18.9609 22.25 18.9609C21.8854 18.8828 21.5859 18.7005 21.3516 18.4141C21.1172 18.1536 21 17.8281 21 17.4375V15.5625C21.0521 14.7552 21.4688 14.2474 22.25 14.0391C22.25 14.0391 22.25 14.026 22.25 14ZM13.1875 12.75H12.5625C12.3802 12.776 12.276 12.8802 12.25 13.0625V17.4375C12.276 17.6198 12.3802 17.724 12.5625 17.75H13.1875C13.3698 17.724 13.474 17.6198 13.5 17.4375V13.0625C13.474 12.8802 13.3698 12.776 13.1875 12.75Z" fill="black" fill-opacity="0.72"/>
</g>
</svg>
