<svg width="32" height="32" viewBox="0 0 32 32" fill="none" xmlns="http://www.w3.org/2000/svg">
<g id="standalone / md / person-chalkboard-md / bold">
<path id="icon" d="M11 10.25C10.2969 10.224 9.75 9.91146 9.35938 9.3125C9.04688 8.6875 9.04688 8.0625 9.35938 7.4375C9.75 6.83854 10.2969 6.52604 11 6.5C11.7031 6.52604 12.25 6.83854 12.6406 7.4375C12.9531 8.0625 12.9531 8.6875 12.6406 9.3125C12.25 9.91146 11.7031 10.224 11 10.25ZM10.4531 13.375C10.4531 13.375 10.4401 13.375 10.4141 13.375C10.4141 13.375 10.401 13.375 10.375 13.375V18.375H11.625V13.375H10.4531ZM10.375 25.5625C10.3229 26.1354 10.0104 26.4479 9.4375 26.5C8.86458 26.4479 8.55208 26.1354 8.5 25.5625V15.25L6.82031 18.2188C6.48177 18.6875 6.05208 18.8047 5.53125 18.5703C5.0625 18.2318 4.94531 17.8021 5.17969 17.2812L7.48438 13.2578C7.79688 12.7109 8.21354 12.2812 8.73438 11.9688C9.25521 11.6562 9.82812 11.5 10.4531 11.5H12.9922H16V8.375C16.026 7.85417 16.2083 7.41146 16.5469 7.04688C16.9115 6.70833 17.3542 6.52604 17.875 6.5H26.625C27.1458 6.52604 27.5885 6.70833 27.9531 7.04688C28.2917 7.41146 28.474 7.85417 28.5 8.375V17.125C28.474 17.6458 28.2917 18.0885 27.9531 18.4531C27.5885 18.7917 27.1458 18.974 26.625 19H17.875C17.3542 18.974 16.9115 18.7917 16.5469 18.4531C16.2083 18.0885 16.026 17.6458 16 17.125V15.25H17.875V17.125H26.625V8.375H17.875V11.5H18.8125C19.3854 11.5521 19.6979 11.8646 19.75 12.4375C19.6979 13.0104 19.3854 13.3229 18.8125 13.375H13.5V25.5625C13.4479 26.1354 13.1354 26.4479 12.5625 26.5C11.9896 26.4479 11.6771 26.1354 11.625 25.5625V20.25H10.375V25.5625Z" fill="black" fill-opacity="0.72"/>
</g>
</svg>
