<svg width="32" height="32" viewBox="0 0 32 32" fill="none" xmlns="http://www.w3.org/2000/svg">
<g id="standalone / md / user-md / regular">
<path id="icon" d="M19.75 11.5C19.75 10.8229 19.5807 10.1979 19.2422 9.625C18.9036 9.05208 18.4479 8.59635 17.875 8.25781C17.276 7.91927 16.651 7.75 16 7.75C15.349 7.75 14.724 7.91927 14.125 8.25781C13.5521 8.59635 13.0964 9.05208 12.7578 9.625C12.4193 10.1979 12.25 10.8229 12.25 11.5C12.25 12.1771 12.4193 12.8021 12.7578 13.375C13.0964 13.9479 13.5521 14.4036 14.125 14.7422C14.724 15.0807 15.349 15.25 16 15.25C16.651 15.25 17.276 15.0807 17.875 14.7422C18.4479 14.4036 18.9036 13.9479 19.2422 13.375C19.5807 12.8021 19.75 12.1771 19.75 11.5ZM11 11.5C11 10.5885 11.2214 9.75521 11.6641 9C12.1068 8.24479 12.7188 7.63281 13.5 7.16406C14.2812 6.72135 15.1146 6.5 16 6.5C16.8854 6.5 17.7188 6.72135 18.5 7.16406C19.2812 7.63281 19.8932 8.24479 20.3359 9C20.7786 9.75521 21 10.5885 21 11.5C21 12.4115 20.7786 13.2448 20.3359 14C19.8932 14.7552 19.2812 15.3672 18.5 15.8359C17.7188 16.2786 16.8854 16.5 16 16.5C15.1146 16.5 14.2812 16.2786 13.5 15.8359C12.7188 15.3672 12.1068 14.7552 11.6641 14C11.2214 13.2448 11 12.4115 11 11.5ZM8.5 25.25H23.5C23.4479 23.6615 22.875 22.3333 21.7812 21.2656C20.7135 20.224 19.3854 19.6771 17.7969 19.625H14.2031C12.6146 19.6771 11.2865 20.224 10.2188 21.2656C9.125 22.3333 8.55208 23.6615 8.5 25.25ZM7.25 25.3281C7.30208 23.375 7.97917 21.7344 9.28125 20.4062C10.6094 19.1042 12.25 18.4271 14.2031 18.375H17.7969C19.75 18.4271 21.3906 19.1042 22.7188 20.4062C24.0208 21.7344 24.6979 23.375 24.75 25.3281C24.75 25.6667 24.6328 25.9401 24.3984 26.1484C24.1901 26.3828 23.9167 26.5 23.5781 26.5H8.42188C8.08333 26.5 7.8099 26.3828 7.60156 26.1484C7.36719 25.9401 7.25 25.6667 7.25 25.3281Z" fill="black" fill-opacity="0.72"/>
</g>
</svg>
