<svg width="32" height="32" viewBox="0 0 32 32" fill="none" xmlns="http://www.w3.org/2000/svg">
<g id="standalone / md / location-dot-md / bold">
<path id="icon" d="M21.625 14C21.5729 12.4115 21.026 11.0833 19.9844 10.0156C18.9167 8.97396 17.5885 8.42708 16 8.375C14.4115 8.42708 13.0833 8.97396 12.0156 10.0156C10.974 11.0833 10.4271 12.4115 10.375 14C10.375 14.4948 10.5703 15.237 10.9609 16.2266C11.4036 17.2161 11.9635 18.2578 12.6406 19.3516C13.2135 20.263 13.7865 21.1354 14.3594 21.9688C14.9583 22.8021 15.5052 23.5312 16 24.1562C16.4948 23.5312 17.0417 22.8021 17.6406 21.9688C18.2396 21.1354 18.8125 20.263 19.3594 19.3516C20.0365 18.2578 20.5964 17.2161 21.0391 16.2266C21.4297 15.237 21.625 14.4948 21.625 14ZM23.5 14C23.4479 15.1719 23.0312 16.526 22.25 18.0625C21.4427 19.599 20.5312 21.0833 19.5156 22.5156C18.5 23.974 17.6406 25.1328 16.9375 25.9922C16.6771 26.3047 16.3646 26.4609 16 26.4609C15.6354 26.4609 15.3229 26.3047 15.0625 25.9922C14.3594 25.1328 13.5 23.974 12.4844 22.5156C11.4688 21.0833 10.5573 19.599 9.75 18.0625C8.96875 16.526 8.55208 15.1719 8.5 14C8.55208 11.8646 9.28125 10.0938 10.6875 8.6875C12.0938 7.28125 13.8646 6.55208 16 6.5C18.1354 6.55208 19.9062 7.28125 21.3125 8.6875C22.7188 10.0938 23.4479 11.8646 23.5 14ZM17.25 14C17.25 13.6354 17.1328 13.3359 16.8984 13.1016C16.6641 12.8672 16.3646 12.75 16 12.75C15.6354 12.75 15.3359 12.8672 15.1016 13.1016C14.8672 13.3359 14.75 13.6354 14.75 14C14.75 14.3646 14.8672 14.6641 15.1016 14.8984C15.3359 15.1328 15.6354 15.25 16 15.25C16.3646 15.25 16.6641 15.1328 16.8984 14.8984C17.1328 14.6641 17.25 14.3646 17.25 14ZM12.875 14C12.901 12.8281 13.4219 11.9297 14.4375 11.3047C15.4792 10.7318 16.5208 10.7318 17.5625 11.3047C18.5781 11.9297 19.099 12.8281 19.125 14C19.099 15.1719 18.5781 16.0703 17.5625 16.6953C16.5208 17.2682 15.4792 17.2682 14.4375 16.6953C13.4219 16.0703 12.901 15.1719 12.875 14Z" fill="black" fill-opacity="0.72"/>
</g>
</svg>
