<svg width="32" height="32" viewBox="0 0 32 32" fill="none" xmlns="http://www.w3.org/2000/svg">
<g id="standalone / md / caret-down-md / regular">
<path id="icon" d="M16.2344 20.1719L20.9219 15.7188C20.974 15.6667 21 15.6016 21 15.5234C20.974 15.3672 20.8828 15.276 20.7266 15.25H11.2734C11.1172 15.276 11.026 15.3672 11 15.5234C11 15.6016 11.026 15.6667 11.0781 15.7188L15.7656 20.1719C15.8438 20.224 15.9219 20.25 16 20.25C16.0781 20.25 16.1562 20.224 16.2344 20.1719ZM17.0938 21.0703C16.7812 21.3568 16.4167 21.5 16 21.5C15.5833 21.5 15.2188 21.3568 14.9062 21.0703L10.2188 16.6562C9.90625 16.3438 9.75 15.9661 9.75 15.5234C9.75 15.0807 9.89323 14.7161 10.1797 14.4297C10.4661 14.1432 10.8307 14 11.2734 14H20.7266C21.1693 14.026 21.5339 14.1823 21.8203 14.4688C22.1068 14.7552 22.25 15.1068 22.25 15.5234C22.25 15.9661 22.0938 16.3438 21.7812 16.6562L17.0938 21.0703Z" fill="black" fill-opacity="0.72"/>
</g>
</svg>
