<svg width="32" height="32" viewBox="0 0 32 32" fill="none" xmlns="http://www.w3.org/2000/svg">
<g id="standalone / md / chart-mixed-md / bold">
<path id="icon" d="M25.6875 9.39062L19.125 15.0156C18.7083 15.3281 18.2917 15.3281 17.875 15.0156L13.4219 11.1094L7.44531 15.0938C6.95052 15.3542 6.52083 15.263 6.15625 14.8203C5.89583 14.3255 5.98698 13.8958 6.42969 13.5312L12.9922 9.15625C13.3828 8.92188 13.7604 8.94792 14.125 9.23438L18.5 13.0625L24.4375 7.98438C24.9062 7.64583 25.349 7.67188 25.7656 8.0625C26.1042 8.53125 26.0781 8.97396 25.6875 9.39062ZM13.8125 23.375V17.125C13.7865 16.9427 13.6823 16.8385 13.5 16.8125C13.3177 16.8385 13.2135 16.9427 13.1875 17.125V23.375C13.2135 23.5573 13.3177 23.6615 13.5 23.6875C13.6823 23.6615 13.7865 23.5573 13.8125 23.375ZM13.5 15.25C14.0208 15.276 14.4635 15.4583 14.8281 15.7969C15.1667 16.1615 15.349 16.6042 15.375 17.125V23.375C15.349 23.8958 15.1667 24.3385 14.8281 24.7031C14.4635 25.0417 14.0208 25.224 13.5 25.25C12.9792 25.224 12.5365 25.0417 12.1719 24.7031C11.8333 24.3385 11.651 23.8958 11.625 23.375V17.125C11.651 16.6042 11.8333 16.1615 12.1719 15.7969C12.5365 15.4583 12.9792 15.276 13.5 15.25ZM8.8125 23.375V20.875C8.78646 20.6927 8.68229 20.5885 8.5 20.5625C8.31771 20.5885 8.21354 20.6927 8.1875 20.875V23.375C8.21354 23.5573 8.31771 23.6615 8.5 23.6875C8.68229 23.6615 8.78646 23.5573 8.8125 23.375ZM8.5 19C9.02083 19.026 9.46354 19.2083 9.82812 19.5469C10.1667 19.9115 10.349 20.3542 10.375 20.875V23.375C10.349 23.8958 10.1667 24.3385 9.82812 24.7031C9.46354 25.0417 9.02083 25.224 8.5 25.25C7.97917 25.224 7.53646 25.0417 7.17188 24.7031C6.83333 24.3385 6.65104 23.8958 6.625 23.375V20.875C6.65104 20.3542 6.83333 19.9115 7.17188 19.5469C7.53646 19.2083 7.97917 19.026 8.5 19ZM18.8125 19.625C18.7865 19.4427 18.6823 19.3385 18.5 19.3125C18.3177 19.3385 18.2135 19.4427 18.1875 19.625V23.375C18.2135 23.5573 18.3177 23.6615 18.5 23.6875C18.6823 23.6615 18.7865 23.5573 18.8125 23.375V19.625ZM16.625 19.625C16.651 19.1042 16.8333 18.6615 17.1719 18.2969C17.5365 17.9583 17.9792 17.776 18.5 17.75C19.0208 17.776 19.4635 17.9583 19.8281 18.2969C20.1667 18.6615 20.349 19.1042 20.375 19.625V23.375C20.349 23.8958 20.1667 24.3385 19.8281 24.7031C19.4635 25.0417 19.0208 25.224 18.5 25.25C17.9792 25.224 17.5365 25.0417 17.1719 24.7031C16.8333 24.3385 16.651 23.8958 16.625 23.375V19.625ZM23.8125 23.375V17.125C23.7865 16.9427 23.6823 16.8385 23.5 16.8125C23.3177 16.8385 23.2135 16.9427 23.1875 17.125V23.375C23.2135 23.5573 23.3177 23.6615 23.5 23.6875C23.6823 23.6615 23.7865 23.5573 23.8125 23.375ZM23.5 15.25C24.0208 15.276 24.4635 15.4583 24.8281 15.7969C25.1667 16.1615 25.349 16.6042 25.375 17.125V23.375C25.349 23.8958 25.1667 24.3385 24.8281 24.7031C24.4635 25.0417 24.0208 25.224 23.5 25.25C22.9792 25.224 22.5365 25.0417 22.1719 24.7031C21.8333 24.3385 21.651 23.8958 21.625 23.375V17.125C21.651 16.6042 21.8333 16.1615 22.1719 15.7969C22.5365 15.4583 22.9792 15.276 23.5 15.25Z" fill="black" fill-opacity="0.72"/>
</g>
</svg>
