<svg width="32" height="32" viewBox="0 0 32 32" fill="none" xmlns="http://www.w3.org/2000/svg">
<g id="standalone / md / file-circle-info-md / regular">
<path id="icon" d="M7.25 25.25H16.3125C16.7031 25.7188 17.1458 26.1224 17.6406 26.4609C17.5104 26.487 17.3802 26.5 17.25 26.5H7.25C6.54688 26.474 5.96094 26.2266 5.49219 25.7578C5.02344 25.2891 4.77604 24.7031 4.75 24V9C4.77604 8.29688 5.02344 7.71094 5.49219 7.24219C5.96094 6.77344 6.54688 6.52604 7.25 6.5H13.3438C13.8646 6.5 14.3073 6.68229 14.6719 7.04688L19.2031 11.5781C19.5677 11.9427 19.75 12.3854 19.75 12.9062V14.2344C19.3073 14.3646 18.8906 14.5339 18.5 14.7422V14H14.125C13.6042 13.974 13.1615 13.7917 12.7969 13.4531C12.4583 13.0885 12.276 12.6458 12.25 12.125V7.75H7.25C6.88542 7.75 6.58594 7.86719 6.35156 8.10156C6.11719 8.33594 6 8.63542 6 9V24C6 24.3646 6.11719 24.6641 6.35156 24.8984C6.58594 25.1328 6.88542 25.25 7.25 25.25ZM18.5 12.75C18.4479 12.6458 18.3828 12.5547 18.3047 12.4766L13.7734 7.94531C13.6953 7.86719 13.6042 7.8151 13.5 7.78906V12.125C13.526 12.5156 13.7344 12.724 14.125 12.75H18.5ZM26 20.875C26 20.0938 25.8047 19.3646 25.4141 18.6875C25.0234 18.0104 24.4896 17.4766 23.8125 17.0859C23.1354 16.6953 22.4062 16.5 21.625 16.5C20.8438 16.5 20.1146 16.6953 19.4375 17.0859C18.7604 17.4766 18.2266 18.0104 17.8359 18.6875C17.4453 19.3646 17.25 20.0938 17.25 20.875C17.25 21.6562 17.4453 22.3854 17.8359 23.0625C18.2266 23.7396 18.7604 24.2734 19.4375 24.6641C20.1146 25.0547 20.8438 25.25 21.625 25.25C22.4062 25.25 23.1354 25.0547 23.8125 24.6641C24.4896 24.2734 25.0234 23.7396 25.4141 23.0625C25.8047 22.3854 26 21.6562 26 20.875ZM16 20.875C16 19.8594 16.2474 18.9219 16.7422 18.0625C17.237 17.2031 17.9271 16.513 18.8125 15.9922C19.6979 15.4974 20.6354 15.25 21.625 15.25C22.6146 15.25 23.5521 15.4974 24.4375 15.9922C25.3229 16.513 26.013 17.2031 26.5078 18.0625C27.0026 18.9219 27.25 19.8594 27.25 20.875C27.25 21.8906 27.0026 22.8281 26.5078 23.6875C26.013 24.5469 25.3229 25.237 24.4375 25.7578C23.5521 26.2526 22.6146 26.5 21.625 26.5C20.6354 26.5 19.6979 26.2526 18.8125 25.7578C17.9271 25.237 17.237 24.5469 16.7422 23.6875C16.2474 22.8281 16 21.8906 16 20.875ZM21.625 19.625C21.0521 19.5729 20.7396 19.2604 20.6875 18.6875C20.7396 18.1146 21.0521 17.8021 21.625 17.75C22.1979 17.8021 22.5104 18.1146 22.5625 18.6875C22.5104 19.2604 22.1979 19.5729 21.625 19.625ZM20.375 23.375C20.401 22.9844 20.6094 22.776 21 22.75V21.5C20.6094 21.474 20.401 21.2656 20.375 20.875C20.401 20.4844 20.6094 20.276 21 20.25H21.625C22.0156 20.276 22.224 20.4844 22.25 20.875V22.75C22.6406 22.776 22.849 22.9844 22.875 23.375C22.849 23.7656 22.6406 23.974 22.25 24H21.625H21C20.6094 23.974 20.401 23.7656 20.375 23.375Z" fill="black" fill-opacity="0.72"/>
</g>
</svg>
