<svg width="32" height="32" viewBox="0 0 32 32" fill="none" xmlns="http://www.w3.org/2000/svg">
<g id="standalone / md / eight-md / bold">
<path id="icon" d="M21.625 12.5938C21.5729 14.1042 21.013 15.3281 19.9453 16.2656C20.6484 16.7083 21.2083 17.2812 21.625 17.9844C22.0417 18.7135 22.25 19.5208 22.25 20.4062C22.224 21.7865 21.7552 22.9323 20.8438 23.8438C19.9323 24.7552 18.7865 25.224 17.4062 25.25H14.5938C13.2135 25.224 12.0677 24.7552 11.1562 23.8438C10.2448 22.9323 9.77604 21.7865 9.75 20.4062C9.75 19.5208 9.95833 18.7135 10.375 17.9844C10.7917 17.2812 11.3516 16.7083 12.0547 16.2656C10.987 15.3281 10.4271 14.1042 10.375 12.5938C10.401 11.2135 10.8698 10.0677 11.7812 9.15625C12.6927 8.24479 13.8385 7.77604 15.2188 7.75H16.7812C18.1615 7.77604 19.3073 8.24479 20.2188 9.15625C21.1302 10.0677 21.599 11.2135 21.625 12.5938ZM16.7812 17.4375H15.2188H14.5938C13.7604 17.4635 13.0573 17.75 12.4844 18.2969C11.9375 18.8698 11.651 19.5729 11.625 20.4062C11.651 21.2396 11.9375 21.9427 12.4844 22.5156C13.0573 23.0625 13.7604 23.349 14.5938 23.375H17.4062C18.2396 23.349 18.9427 23.0625 19.5156 22.5156C20.0625 21.9427 20.349 21.2396 20.375 20.4062C20.349 19.5729 20.0625 18.8698 19.5156 18.2969C18.9427 17.75 18.2396 17.4635 17.4062 17.4375H16.7812ZM16.7812 15.5625C17.6146 15.5365 18.3177 15.25 18.8906 14.7031C19.4375 14.1302 19.724 13.4271 19.75 12.5938C19.724 11.7604 19.4375 11.0573 18.8906 10.4844C18.3177 9.9375 17.6146 9.65104 16.7812 9.625H15.2188C14.3854 9.65104 13.6823 9.9375 13.1094 10.4844C12.5625 11.0573 12.276 11.7604 12.25 12.5938C12.276 13.4271 12.5625 14.1302 13.1094 14.7031C13.6823 15.25 14.3854 15.5365 15.2188 15.5625H16.7812Z" fill="black" fill-opacity="0.72"/>
</g>
</svg>
