<svg width="32" height="32" viewBox="0 0 32 32" fill="none" xmlns="http://www.w3.org/2000/svg">
<g id="standalone / md / file-shield-md / regular">
<path id="icon" d="M17.25 25.25C17.3021 25.25 17.3542 25.25 17.4062 25.25C17.7188 25.5885 18.0573 25.9141 18.4219 26.2266C18.0833 26.4089 17.6927 26.5 17.25 26.5H7.25C6.54688 26.474 5.96094 26.2266 5.49219 25.7578C5.02344 25.2891 4.77604 24.7031 4.75 24V9C4.77604 8.29688 5.02344 7.71094 5.49219 7.24219C5.96094 6.77344 6.54688 6.52604 7.25 6.5H13.3438C13.8646 6.5 14.3073 6.68229 14.6719 7.04688L19.2031 11.5781C19.5677 11.9427 19.75 12.3854 19.75 12.9062V14.5859L18.5 15.0938V14H14.125C13.6042 13.974 13.1615 13.7917 12.7969 13.4531C12.4583 13.0885 12.276 12.6458 12.25 12.125V7.75H7.25C6.88542 7.75 6.58594 7.86719 6.35156 8.10156C6.11719 8.33594 6 8.63542 6 9V24C6 24.3646 6.11719 24.6641 6.35156 24.8984C6.58594 25.1328 6.88542 25.25 7.25 25.25H17.25ZM18.5 12.75C18.4479 12.6458 18.3828 12.5547 18.3047 12.4766L13.7734 7.94531C13.6953 7.86719 13.6042 7.8151 13.5 7.78906V12.125C13.526 12.5156 13.7344 12.724 14.125 12.75H18.5ZM17.25 18.2578C17.25 19.3516 17.5234 20.5234 18.0703 21.7734C18.6172 23.0234 19.5938 24.0651 21 24.8984V16.7734L17.25 18.2578ZM26 18.2578L22.25 16.7734V24.8984C23.6562 24.0651 24.6328 23.0234 25.1797 21.7734C25.7266 20.5234 26 19.3516 26 18.2578ZM21.9766 15.3281L26.6641 17.2031C27.0286 17.3594 27.224 17.6458 27.25 18.0625C27.276 18.9219 27.1328 19.8854 26.8203 20.9531C26.5339 22.0208 26.013 23.0495 25.2578 24.0391C24.4766 25.0286 23.3828 25.8229 21.9766 26.4219C21.7422 26.526 21.5078 26.526 21.2734 26.4219C19.8672 25.8229 18.7734 25.0286 17.9922 24.0391C17.237 23.0495 16.7161 22.0208 16.4297 20.9531C16.1172 19.8854 15.974 18.9219 16 18.0625C16.026 17.6458 16.2214 17.3594 16.5859 17.2031L21.2734 15.3281C21.5078 15.224 21.7422 15.224 21.9766 15.3281Z" fill="black" fill-opacity="0.72"/>
</g>
</svg>
