<svg width="32" height="32" viewBox="0 0 32 32" fill="none" xmlns="http://www.w3.org/2000/svg">
<g id="standalone / md / qrcode-md / bold">
<path id="icon" d="M12.875 9.625H9.125V13.375H12.875V9.625ZM9.125 7.75H12.875C13.3958 7.77604 13.8385 7.95833 14.2031 8.29688C14.5417 8.66146 14.724 9.10417 14.75 9.625V13.375C14.724 13.8958 14.5417 14.3385 14.2031 14.7031C13.8385 15.0417 13.3958 15.224 12.875 15.25H9.125C8.60417 15.224 8.16146 15.0417 7.79688 14.7031C7.45833 14.3385 7.27604 13.8958 7.25 13.375V9.625C7.27604 9.10417 7.45833 8.66146 7.79688 8.29688C8.16146 7.95833 8.60417 7.77604 9.125 7.75ZM12.875 19.625H9.125V23.375H12.875V19.625ZM9.125 17.75H12.875C13.3958 17.776 13.8385 17.9583 14.2031 18.2969C14.5417 18.6615 14.724 19.1042 14.75 19.625V23.375C14.724 23.8958 14.5417 24.3385 14.2031 24.7031C13.8385 25.0417 13.3958 25.224 12.875 25.25H9.125C8.60417 25.224 8.16146 25.0417 7.79688 24.7031C7.45833 24.3385 7.27604 23.8958 7.25 23.375V19.625C7.27604 19.1042 7.45833 18.6615 7.79688 18.2969C8.16146 17.9583 8.60417 17.776 9.125 17.75ZM19.125 9.625V13.375H22.875V9.625H19.125ZM17.25 9.625C17.276 9.10417 17.4583 8.66146 17.7969 8.29688C18.1615 7.95833 18.6042 7.77604 19.125 7.75H22.875C23.3958 7.77604 23.8385 7.95833 24.2031 8.29688C24.5417 8.66146 24.724 9.10417 24.75 9.625V13.375C24.724 13.8958 24.5417 14.3385 24.2031 14.7031C23.8385 15.0417 23.3958 15.224 22.875 15.25H19.125C18.6042 15.224 18.1615 15.0417 17.7969 14.7031C17.4583 14.3385 17.276 13.8958 17.25 13.375V9.625ZM10.0625 11.1875C10.0885 10.7969 10.2969 10.5885 10.6875 10.5625H11.3125C11.7031 10.5885 11.9115 10.7969 11.9375 11.1875V11.8125C11.9115 12.2031 11.7031 12.4115 11.3125 12.4375H10.6875C10.2969 12.4115 10.0885 12.2031 10.0625 11.8125V11.1875ZM10.6875 20.5625H11.3125C11.7031 20.5885 11.9115 20.7969 11.9375 21.1875V21.8125C11.9115 22.2031 11.7031 22.4115 11.3125 22.4375H10.6875C10.2969 22.4115 10.0885 22.2031 10.0625 21.8125V21.1875C10.0885 20.7969 10.2969 20.5885 10.6875 20.5625ZM20.0625 11.1875C20.0885 10.7969 20.2969 10.5885 20.6875 10.5625H21.3125C21.7031 10.5885 21.9115 10.7969 21.9375 11.1875V11.8125C21.9115 12.2031 21.7031 12.4115 21.3125 12.4375H20.6875C20.2969 12.4115 20.0885 12.2031 20.0625 11.8125V11.1875ZM17.25 18.375C17.276 17.9844 17.4844 17.776 17.875 17.75H20.375C20.7656 17.776 20.974 17.9844 21 18.375C21.026 18.7656 21.2344 18.974 21.625 19H22.875C23.2656 18.974 23.474 18.7656 23.5 18.375C23.526 17.9844 23.7344 17.776 24.125 17.75C24.5156 17.776 24.724 17.9844 24.75 18.375V22.125C24.724 22.5156 24.5156 22.724 24.125 22.75H21.625C21.2344 22.724 21.026 22.5156 21 22.125C20.974 21.7344 20.7656 21.526 20.375 21.5C19.9844 21.526 19.776 21.7344 19.75 22.125V24.625C19.724 25.0156 19.5156 25.224 19.125 25.25H17.875C17.4844 25.224 17.276 25.0156 17.25 24.625V18.375ZM21.625 24C22.0156 24.026 22.224 24.2344 22.25 24.625C22.224 25.0156 22.0156 25.224 21.625 25.25C21.2344 25.224 21.026 25.0156 21 24.625C21.026 24.2344 21.2344 24.026 21.625 24ZM24.125 24C24.5156 24.026 24.724 24.2344 24.75 24.625C24.724 25.0156 24.5156 25.224 24.125 25.25C23.7344 25.224 23.526 25.0156 23.5 24.625C23.526 24.2344 23.7344 24.026 24.125 24Z" fill="black" fill-opacity="0.72"/>
</g>
</svg>
