<svg width="32" height="32" viewBox="0 0 32 32" fill="none" xmlns="http://www.w3.org/2000/svg">
<g id="standalone / md / eye-slash-md / regular">
<path id="icon" d="M4.51562 6.61719L28.2656 25.4062C28.5521 25.6667 28.5911 25.9531 28.3828 26.2656C28.0964 26.5521 27.7969 26.5911 27.4844 26.3828L3.73438 7.63281C3.44792 7.34635 3.40885 7.04688 3.61719 6.73438C3.90365 6.47396 4.20312 6.4349 4.51562 6.61719ZM27.1719 16.9688C26.7552 17.9844 26.0521 19.1432 25.0625 20.4453L24.0859 19.7031C24.9974 18.4792 25.6354 17.4115 26 16.5C25.7396 15.849 25.3359 15.1068 24.7891 14.2734C24.2161 13.4401 23.513 12.6198 22.6797 11.8125C21.8203 11.0052 20.8438 10.3411 19.75 9.82031C18.6302 9.29948 17.3802 9.02604 16 9C14.4375 9.02604 13.0443 9.36458 11.8203 10.0156L10.7656 9.19531C12.25 8.28385 13.9948 7.80208 16 7.75C17.5885 7.77604 19.0078 8.08854 20.2578 8.6875C21.5078 9.28646 22.6016 10.0286 23.5391 10.9141C24.4505 11.7734 25.2057 12.6589 25.8047 13.5703C26.4036 14.4818 26.8594 15.3021 27.1719 16.0312C27.276 16.3438 27.276 16.6562 27.1719 16.9688ZM6.9375 12.5547L7.95312 13.3359C7.01562 14.5339 6.36458 15.5885 6 16.5C6.26042 17.151 6.66406 17.8932 7.21094 18.7266C7.78385 19.5599 8.48698 20.3802 9.32031 21.1875C10.1797 21.9948 11.1562 22.6589 12.25 23.1797C13.3698 23.7005 14.6198 23.974 16 24C17.5625 23.974 18.9557 23.6354 20.1797 22.9844L21.2344 23.8047C19.75 24.7161 18.0052 25.1979 16 25.25C14.4115 25.224 12.9922 24.9115 11.7422 24.3125C10.4922 23.7135 9.41146 22.9714 8.5 22.0859C7.5625 21.2266 6.79427 20.3411 6.19531 19.4297C5.59635 18.5182 5.15365 17.6979 4.86719 16.9688C4.73698 16.6562 4.73698 16.3438 4.86719 16.0312C5.25781 15.0156 5.94792 13.8568 6.9375 12.5547ZM16 21.5C14.5938 21.474 13.4089 20.9792 12.4453 20.0156C11.5078 19.0781 11.026 17.9062 11 16.5C11 16.2396 11.013 15.9922 11.0391 15.7578L12.25 16.7344C12.3281 17.724 12.7188 18.5573 13.4219 19.2344C14.125 19.8854 14.9844 20.224 16 20.25C16.2083 20.25 16.4297 20.237 16.6641 20.2109L17.8359 21.1484C17.263 21.3828 16.651 21.5 16 21.5ZM21 16.5C21 16.7604 20.987 17.0078 20.9609 17.2422L19.75 16.2656C19.6719 15.276 19.2812 14.4427 18.5781 13.7656C17.875 13.1146 17.0156 12.776 16 12.75C15.7917 12.75 15.5833 12.776 15.375 12.8281L14.1641 11.8516C14.737 11.6172 15.349 11.5 16 11.5C17.4062 11.526 18.5911 12.0078 19.5547 12.9453C20.4922 13.9089 20.974 15.0938 21 16.5Z" fill="black" fill-opacity="0.72"/>
</g>
</svg>
