<svg width="32" height="32" viewBox="0 0 32 32" fill="none" xmlns="http://www.w3.org/2000/svg">
<g id="standalone / md / facebook-md">
<path id="icon" d="M25.6875 16.5C25.6354 18.974 24.8542 21.0833 23.3438 22.8281C21.8333 24.5729 19.8932 25.6536 17.5234 26.0703V19.3125H19.7891L20.2188 16.5H17.5234V14.6641C17.4974 14.2734 17.6016 13.9349 17.8359 13.6484C18.0703 13.3359 18.487 13.1797 19.0859 13.1797H20.2969V10.7969C20.2708 10.7708 20.0495 10.7318 19.6328 10.6797C19.1901 10.6276 18.6953 10.6016 18.1484 10.6016C17.0286 10.6016 16.1432 10.9271 15.4922 11.5781C14.8411 12.2292 14.5026 13.1536 14.4766 14.3516V16.5H12.0156V19.3125H14.4766V26.0703C12.1068 25.6536 10.1667 24.5729 8.65625 22.8281C7.14583 21.0833 6.36458 18.974 6.3125 16.5C6.33854 14.7031 6.78125 13.0755 7.64062 11.6172C8.5 10.1589 9.65885 9 11.1172 8.14062C12.5755 7.28125 14.2031 6.83854 16 6.8125C17.7969 6.83854 19.4245 7.28125 20.8828 8.14062C22.3411 9 23.5 10.1589 24.3594 11.6172C25.2188 13.0755 25.6615 14.7031 25.6875 16.5Z" fill="black" fill-opacity="0.72"/>
</g>
</svg>
