<svg width="32" height="32" viewBox="0 0 32 32" fill="none" xmlns="http://www.w3.org/2000/svg">
<g id="standalone / md / app-store-ios-md">
<path id="icon" d="M22.875 7.75C23.3958 7.77604 23.8385 7.95833 24.2031 8.29688C24.5417 8.66146 24.724 9.10417 24.75 9.625V23.375C24.724 23.8958 24.5417 24.3385 24.2031 24.7031C23.8385 25.0417 23.3958 25.224 22.875 25.25H9.125C8.60417 25.224 8.16146 25.0417 7.79688 24.7031C7.45833 24.3385 7.27604 23.8958 7.25 23.375V9.625C7.27604 9.10417 7.45833 8.66146 7.79688 8.29688C8.16146 7.95833 8.60417 7.77604 9.125 7.75H22.875ZM12.2109 21.5391L12.9531 20.2109C12.5625 19.7161 12.0547 19.5729 11.4297 19.7812L10.8438 20.7578C10.6615 21.1745 10.7656 21.526 11.1562 21.8125C11.5729 21.9948 11.9245 21.9036 12.2109 21.5391ZM17.6406 19.4297C17.7969 19.0651 17.7839 18.7135 17.6016 18.375C17.4453 18.0625 17.1589 17.8932 16.7422 17.8672H14.3203L17.6797 12.0469C17.888 11.6042 17.7969 11.2526 17.4062 10.9922C16.9635 10.7839 16.599 10.875 16.3125 11.2656L15.9609 11.8516L15.6484 11.2656C15.362 10.875 14.9974 10.7839 14.5547 10.9922C14.1641 11.2526 14.0729 11.6042 14.2812 12.0469L15.0625 13.4141L12.5234 17.8672H10.5312C10.0625 17.8932 9.80208 18.1536 9.75 18.6484C9.80208 19.1172 10.0625 19.3776 10.5312 19.4297H17.6406ZM21.4688 19.4297C21.9375 19.3776 22.1979 19.1172 22.25 18.6484C22.1979 18.1536 21.9375 17.8932 21.4688 17.8672H19.4375C18.6042 16.4349 17.9401 15.2891 17.4453 14.4297C17.3411 14.2214 17.237 14.0391 17.1328 13.8828C16.8724 14.0911 16.6901 14.4297 16.5859 14.8984C16.4557 15.3932 16.5469 15.9271 16.8594 16.5C17.224 17.125 17.6797 17.9193 18.2266 18.8828C18.6693 19.6641 19.1771 20.5495 19.75 21.5391C20.0365 21.9036 20.388 21.9948 20.8047 21.8125C21.1953 21.526 21.2995 21.1745 21.1172 20.7578L20.3359 19.4297H21.4688Z" fill="black" fill-opacity="0.72"/>
</g>
</svg>
