<svg width="32" height="32" viewBox="0 0 32 32" fill="none" xmlns="http://www.w3.org/2000/svg">
<g id="standalone / md / bars-md / regular">
<path id="icon" d="M7.25 9.625C7.27604 9.23438 7.48438 9.02604 7.875 9H24.125C24.5156 9.02604 24.724 9.23438 24.75 9.625C24.724 10.0156 24.5156 10.224 24.125 10.25H7.875C7.48438 10.224 7.27604 10.0156 7.25 9.625ZM7.25 15.875C7.27604 15.4844 7.48438 15.276 7.875 15.25H24.125C24.5156 15.276 24.724 15.4844 24.75 15.875C24.724 16.2656 24.5156 16.474 24.125 16.5H7.875C7.48438 16.474 7.27604 16.2656 7.25 15.875ZM24.75 22.125C24.724 22.5156 24.5156 22.724 24.125 22.75H7.875C7.48438 22.724 7.27604 22.5156 7.25 22.125C7.27604 21.7344 7.48438 21.526 7.875 21.5H24.125C24.5156 21.526 24.724 21.7344 24.75 22.125Z" fill="black" fill-opacity="0.72"/>
</g>
</svg>
