<svg width="32" height="32" viewBox="0 0 32 32" fill="none" xmlns="http://www.w3.org/2000/svg">
<g id="standalone / md / nine-md / bold">
<path id="icon" d="M11.625 14C11.651 15.25 12.0807 16.2786 12.9141 17.0859C13.7214 17.9193 14.75 18.349 16 18.375C17.3021 18.349 18.3698 17.8802 19.2031 16.9688L19.3984 16.7344C20.0495 15.9271 20.375 15.0156 20.375 14C20.349 12.75 19.9193 11.7214 19.0859 10.9141C18.2786 10.0807 17.25 9.65104 16 9.625C14.75 9.65104 13.7214 10.0807 12.9141 10.9141C12.0807 11.7214 11.651 12.75 11.625 14ZM16.5469 20.2109C16.3646 20.237 16.1823 20.25 16 20.25C14.2292 20.1979 12.7578 19.5859 11.5859 18.4141C10.4141 17.2422 9.80208 15.7708 9.75 14C9.80208 12.2292 10.4141 10.7578 11.5859 9.58594C12.7578 8.41406 14.2292 7.80208 16 7.75C17.7708 7.80208 19.2422 8.41406 20.4141 9.58594C21.5859 10.7578 22.1979 12.2292 22.25 14C22.224 15.6667 21.6771 17.0729 20.6094 18.2188L15.1797 24.8984C14.763 25.3151 14.3203 25.3672 13.8516 25.0547C13.4349 24.638 13.3828 24.1953 13.6953 23.7266L16.5469 20.2109Z" fill="black" fill-opacity="0.72"/>
</g>
</svg>
