<svg width="32" height="32" viewBox="0 0 32 32" fill="none" xmlns="http://www.w3.org/2000/svg">
<g id="standalone / md / deal-cancellation-md / regular">
<path id="icon" d="M7.01562 11.2656H10.7266C11.3906 11.2656 11.9766 11.3828 12.5234 11.6172C13.0703 11.8125 13.5391 12.1641 13.9297 12.5938C14.3203 13.0234 14.5938 13.5703 14.8281 14.2344C15.0234 14.8984 15.1406 15.6406 15.1406 16.5C15.1406 17.3984 15.0234 18.1406 14.8281 18.8047C14.5938 19.4688 14.3203 20.0156 13.9297 20.4453C13.5391 20.875 13.0703 21.1875 12.5234 21.4219C11.9766 21.6562 11.3906 21.7734 10.7266 21.7734H7.01562V11.2656ZM10.7266 20.25C11.5078 20.25 12.1328 20.0156 12.6016 19.5078C13.0703 19.0391 13.3047 18.2969 13.3047 17.3594V15.6797C13.3047 14.7422 13.0703 14 12.6016 13.5312C12.1328 13.0234 11.5078 12.7891 10.7266 12.7891H8.69531V20.25H10.7266ZM21.1562 21.9297C19.7891 21.9297 18.7344 21.4609 17.9531 20.5625C17.1719 19.625 16.7812 18.2969 16.7812 16.5C16.7812 15.6406 16.8594 14.8594 17.0938 14.1953C17.2891 13.5312 17.5625 12.9453 17.9531 12.5156C18.3438 12.0469 18.7734 11.6953 19.3203 11.4609C19.8672 11.2266 20.4922 11.1094 21.1562 11.1094C22.0938 11.1094 22.8359 11.3047 23.4609 11.6953C24.0859 12.0859 24.5547 12.7109 24.9062 13.4922L23.4609 14.2734C23.3047 13.7656 23.0312 13.375 22.6406 13.0625C22.25 12.7891 21.7812 12.6328 21.1562 12.6328C20.375 12.6328 19.7109 12.9062 19.2812 13.4531C18.8125 14 18.5781 14.7422 18.5781 15.7188V17.3203C18.5781 18.2969 18.8125 19.0391 19.2812 19.5859C19.7109 20.1328 20.375 20.4062 21.1562 20.4062C21.7812 20.4062 22.3281 20.25 22.7188 19.9375C23.1094 19.625 23.3828 19.1953 23.5781 18.6875L24.9453 19.5078C24.5938 20.25 24.125 20.875 23.5 21.3047C22.8359 21.7344 22.0938 21.9297 21.1562 21.9297Z" fill="black" fill-opacity="0.72"/>
</g>
</svg>
