<svg width="32" height="32" viewBox="0 0 32 32" fill="none" xmlns="http://www.w3.org/2000/svg">
<g id="standalone / md / gear-md / bold">
<path id="icon" d="M16 6.5C16.6771 6.5 17.3281 6.5651 17.9531 6.69531C18.1094 6.72135 18.3047 6.78646 18.5391 6.89062C18.7474 7.02083 18.9297 7.21615 19.0859 7.47656C19.1641 7.60677 19.2292 7.76302 19.2812 7.94531L19.6328 9.42969C19.6849 9.5599 19.776 9.66406 19.9062 9.74219C20.0365 9.82031 20.1667 9.84635 20.2969 9.82031L21.7812 9.39062C21.9375 9.33854 22.0938 9.3125 22.25 9.3125C22.5625 9.3125 22.8229 9.3776 23.0312 9.50781C23.2656 9.63802 23.4349 9.76823 23.5391 9.89844C24.3984 10.888 25.0365 12.0208 25.4531 13.2969C25.5312 13.4531 25.5703 13.6484 25.5703 13.8828C25.5964 14.1432 25.5312 14.4036 25.375 14.6641C25.2708 14.7943 25.1667 14.9245 25.0625 15.0547L23.9297 16.1094C23.8516 16.2135 23.8125 16.3438 23.8125 16.5C23.8125 16.6562 23.8516 16.7865 23.9297 16.8906L25.0625 17.9453C25.1667 18.0755 25.2708 18.2057 25.375 18.3359C25.5052 18.6224 25.5703 18.8828 25.5703 19.1172C25.5703 19.3776 25.5312 19.5729 25.4531 19.7031C25.0365 20.9792 24.3984 22.112 23.5391 23.1016C23.4349 23.2318 23.2656 23.362 23.0312 23.4922C22.8229 23.6224 22.5625 23.6875 22.25 23.6875C22.0938 23.6875 21.9375 23.6615 21.7812 23.6094L20.2969 23.1797C20.1667 23.1536 20.0365 23.1797 19.9062 23.2578C19.776 23.3359 19.6849 23.4401 19.6328 23.5703L19.2812 25.0547C19.2292 25.237 19.1641 25.3932 19.0859 25.5234C18.9297 25.7839 18.7474 25.9792 18.5391 26.1094C18.3047 26.2135 18.1094 26.2786 17.9531 26.3047C17.3281 26.4349 16.6771 26.5 16 26.5C15.3229 26.5 14.6719 26.4349 14.0469 26.3047C13.8906 26.2786 13.6953 26.2135 13.4609 26.1094C13.2526 25.9792 13.0703 25.7839 12.9141 25.5234C12.8359 25.3932 12.7708 25.237 12.7188 25.0547L12.3672 23.5703C12.3151 23.4401 12.224 23.3359 12.0938 23.2578C11.9635 23.1797 11.8333 23.1536 11.7031 23.1797L10.2188 23.6094C10.0625 23.6615 9.90625 23.6875 9.75 23.6875C9.4375 23.6875 9.17708 23.6224 8.96875 23.4922C8.73438 23.362 8.57812 23.2318 8.5 23.1016C7.61458 22.112 6.96354 20.9792 6.54688 19.7031C6.46875 19.5469 6.42969 19.3516 6.42969 19.1172C6.40365 18.8568 6.46875 18.5964 6.625 18.3359C6.72917 18.2057 6.83333 18.0755 6.9375 17.9453L8.07031 16.8906C8.14844 16.7865 8.1875 16.6562 8.1875 16.5C8.1875 16.3438 8.14844 16.2135 8.07031 16.1094L6.9375 15.0547C6.83333 14.9245 6.72917 14.7943 6.625 14.6641C6.46875 14.3776 6.40365 14.1172 6.42969 13.8828C6.42969 13.6224 6.46875 13.4271 6.54688 13.2969C6.96354 12.0469 7.61458 10.9141 8.5 9.89844C8.57812 9.76823 8.73438 9.63802 8.96875 9.50781C9.17708 9.3776 9.4375 9.3125 9.75 9.3125C9.90625 9.3125 10.0625 9.33854 10.2188 9.39062L11.7031 9.82031C11.8333 9.84635 11.9635 9.82031 12.0938 9.74219C12.224 9.66406 12.3151 9.5599 12.3672 9.42969L12.7188 7.94531C12.7708 7.76302 12.8359 7.60677 12.9141 7.47656C13.0703 7.21615 13.2526 7.02083 13.4609 6.89062C13.6953 6.78646 13.8906 6.72135 14.0469 6.69531C14.6719 6.5651 15.3229 6.5 16 6.5ZM14.5156 8.49219L14.2031 9.89844C14.0208 10.5234 13.6302 11.0052 13.0312 11.3438C12.4323 11.6823 11.8073 11.7734 11.1562 11.6172L9.82812 11.2266C9.17708 11.9818 8.68229 12.8411 8.34375 13.8047L9.35938 14.7812C9.82812 15.25 10.0625 15.8229 10.0625 16.5C10.0625 17.1771 9.82812 17.763 9.35938 18.2578L8.34375 19.1953C8.68229 20.1589 9.17708 21.0182 9.82812 21.7734L11.1953 21.3828C11.8203 21.2005 12.4323 21.2917 13.0312 21.6562C13.6302 21.9948 14.0208 22.4766 14.2031 23.1016L14.5156 24.5078C15.5052 24.6641 16.4948 24.6641 17.4844 24.5078L17.8359 23.1016C18.0182 22.4766 18.3958 21.9948 18.9688 21.6562C19.5677 21.3177 20.1927 21.2266 20.8438 21.3828L22.1719 21.7734C22.8229 21.0182 23.3177 20.1589 23.6562 19.1953L22.6406 18.2188C22.1719 17.75 21.9375 17.1771 21.9375 16.5C21.9375 15.8229 22.1719 15.237 22.6406 14.7422L23.6562 13.8047C23.3177 12.8411 22.8229 11.9818 22.1719 11.2266L20.8438 11.6172C20.1927 11.7995 19.5677 11.7083 18.9688 11.3438C18.3958 11.0052 18.0182 10.5104 17.8359 9.85938L17.4844 8.49219C16.4948 8.33594 15.5052 8.33594 14.5156 8.49219ZM14.125 16.5C14.151 17.2031 14.4635 17.75 15.0625 18.1406C15.6875 18.4531 16.3125 18.4531 16.9375 18.1406C17.5365 17.75 17.849 17.2031 17.875 16.5C17.849 15.7969 17.5365 15.25 16.9375 14.8594C16.3125 14.5469 15.6875 14.5469 15.0625 14.8594C14.4635 15.25 14.151 15.7969 14.125 16.5ZM16 20.25C15.3229 20.25 14.6979 20.0807 14.125 19.7422C13.5521 19.4036 13.0964 18.9479 12.7578 18.375C12.4193 17.776 12.25 17.151 12.25 16.5C12.25 15.849 12.4193 15.224 12.7578 14.625C13.0964 14.0521 13.5521 13.5964 14.125 13.2578C14.6979 12.9193 15.3229 12.75 16 12.75C16.6771 12.75 17.3021 12.9193 17.875 13.2578C18.4479 13.5964 18.9036 14.0521 19.2422 14.625C19.5807 15.224 19.75 15.849 19.75 16.5C19.75 17.151 19.5807 17.776 19.2422 18.375C18.9036 18.9479 18.4479 19.4036 17.875 19.7422C17.3021 20.0807 16.6771 20.25 16 20.25Z" fill="black" fill-opacity="0.72"/>
</g>
</svg>
