<svg width="32" height="32" viewBox="0 0 32 32" fill="none" xmlns="http://www.w3.org/2000/svg">
<g id="standalone / md / moon-md / regular">
<path id="icon" d="M15.9609 9.11719C14.1641 9.45573 12.6927 10.3021 11.5469 11.6562C10.375 12.9844 9.77604 14.599 9.75 16.5C9.80208 18.6354 10.5312 20.4062 11.9375 21.8125C13.3438 23.2188 15.1146 23.9479 17.25 24C18.5781 23.974 19.8021 23.6484 20.9219 23.0234C18.7865 22.8151 17.0286 21.9557 15.6484 20.4453C14.2682 18.9609 13.5521 17.125 13.5 14.9375C13.5 13.7917 13.7214 12.724 14.1641 11.7344C14.5807 10.7188 15.1797 9.84635 15.9609 9.11719ZM18.5391 8.25781C18.5911 8.57031 18.487 8.80469 18.2266 8.96094C17.1849 9.5599 16.3385 10.3802 15.6875 11.4219C15.0625 12.4635 14.75 13.6354 14.75 14.9375C14.8021 16.8906 15.4661 18.5052 16.7422 19.7812C18.0443 21.0833 19.6589 21.7604 21.5859 21.8125C22.0026 21.8125 22.3932 21.7734 22.7578 21.6953C23.0703 21.6693 23.2917 21.7865 23.4219 22.0469C23.5521 22.3073 23.513 22.5547 23.3047 22.7891C21.6901 24.3776 19.6719 25.1979 17.25 25.25C15.6094 25.224 14.138 24.8203 12.8359 24.0391C11.5078 23.2839 10.4661 22.2422 9.71094 20.9141C8.92969 19.612 8.52604 18.1406 8.5 16.5C8.52604 14.8594 8.91667 13.388 9.67188 12.0859C10.4531 10.7578 11.5078 9.71615 12.8359 8.96094C14.138 8.17969 15.5964 7.77604 17.2109 7.75C17.4714 7.75 17.7188 7.76302 17.9531 7.78906C18.2656 7.8151 18.4609 7.97135 18.5391 8.25781Z" fill="black" fill-opacity="0.72"/>
</g>
</svg>
