<svg width="32" height="32" viewBox="0 0 32 32" fill="none" xmlns="http://www.w3.org/2000/svg">
<g id="standalone / md / info-md / regular">
<path id="icon" d="M14.75 9C14.75 8.63542 14.8672 8.33594 15.1016 8.10156C15.3359 7.86719 15.6354 7.75 16 7.75C16.3646 7.75 16.6641 7.86719 16.8984 8.10156C17.1328 8.33594 17.25 8.63542 17.25 9C17.25 9.36458 17.1328 9.66406 16.8984 9.89844C16.6641 10.1328 16.3646 10.25 16 10.25C15.6354 10.25 15.3359 10.1328 15.1016 9.89844C14.8672 9.66406 14.75 9.36458 14.75 9ZM12.875 13.375C12.901 12.9844 13.1094 12.776 13.5 12.75H16C16.3906 12.776 16.599 12.9844 16.625 13.375V24H19.125C19.5156 24.026 19.724 24.2344 19.75 24.625C19.724 25.0156 19.5156 25.224 19.125 25.25H12.875C12.4844 25.224 12.276 25.0156 12.25 24.625C12.276 24.2344 12.4844 24.026 12.875 24H15.375V14H13.5C13.1094 13.974 12.901 13.7656 12.875 13.375Z" fill="black" fill-opacity="0.72"/>
</g>
</svg>
