<svg width="32" height="32" viewBox="0 0 32 32" fill="none" xmlns="http://www.w3.org/2000/svg">
<g id="standalone / md / circle-dollar-md / regular">
<path id="icon" d="M24.75 16.5C24.724 14.9115 24.3333 13.4531 23.5781 12.125C22.7969 10.7969 21.7292 9.72917 20.375 8.92188C18.9948 8.14062 17.5365 7.75 16 7.75C14.4635 7.75 13.0052 8.14062 11.625 8.92188C10.2708 9.72917 9.20312 10.7969 8.42188 12.125C7.66667 13.4531 7.27604 14.9115 7.25 16.5C7.27604 18.0885 7.66667 19.5469 8.42188 20.875C9.20312 22.2031 10.2708 23.2708 11.625 24.0781C13.0052 24.8594 14.4635 25.25 16 25.25C17.5365 25.25 18.9948 24.8594 20.375 24.0781C21.7292 23.2708 22.7969 22.2031 23.5781 20.875C24.3333 19.5469 24.724 18.0885 24.75 16.5ZM6 16.5C6.02604 14.6771 6.46875 13.0104 7.32812 11.5C8.21354 9.98958 9.4375 8.76562 11 7.82812C12.5885 6.94271 14.2552 6.5 16 6.5C17.7448 6.5 19.4115 6.94271 21 7.82812C22.5625 8.76562 23.7865 9.98958 24.6719 11.5C25.5312 13.0104 25.974 14.6771 26 16.5C25.974 18.3229 25.5312 19.9896 24.6719 21.5C23.7865 23.0104 22.5625 24.2344 21 25.1719C19.4115 26.0573 17.7448 26.5 16 26.5C14.2552 26.5 12.5885 26.0573 11 25.1719C9.4375 24.2344 8.21354 23.0104 7.32812 21.5C6.46875 19.9896 6.02604 18.3229 6 16.5ZM16.625 11.1875V12.0859C17.1458 12.138 17.6667 12.2422 18.1875 12.3984C18.2135 12.4245 18.2396 12.4375 18.2656 12.4375C18.2917 12.4375 18.3177 12.4505 18.3438 12.4766C18.7083 12.6068 18.8516 12.8542 18.7734 13.2188C18.6432 13.5833 18.3958 13.7396 18.0312 13.6875C17.9271 13.6354 17.8359 13.5964 17.7578 13.5703C17.4453 13.4922 17.1458 13.4271 16.8594 13.375C16.0781 13.2708 15.4271 13.3359 14.9062 13.5703C14.4375 13.8047 14.1901 14.0651 14.1641 14.3516C14.0859 14.7161 14.2161 14.9896 14.5547 15.1719C14.9714 15.4323 15.5573 15.6536 16.3125 15.8359C16.3125 15.8359 16.3255 15.8359 16.3516 15.8359C17.1068 16.0182 17.8099 16.3047 18.4609 16.6953C19.2161 17.2422 19.5286 17.9714 19.3984 18.8828C19.1901 19.7422 18.6953 20.3151 17.9141 20.6016C17.5234 20.7578 17.0938 20.849 16.625 20.875V21.8125C16.5729 22.2031 16.3646 22.4115 16 22.4375C15.6094 22.4115 15.401 22.2031 15.375 21.8125V20.7969C14.9844 20.7188 14.5547 20.6146 14.0859 20.4844C13.8255 20.4062 13.5651 20.3151 13.3047 20.2109C12.9401 20.0547 12.8099 19.7943 12.9141 19.4297C13.0443 19.0911 13.3047 18.9609 13.6953 19.0391C13.9557 19.1172 14.2161 19.1953 14.4766 19.2734C14.9453 19.4297 15.3099 19.5339 15.5703 19.5859C16.3516 19.6901 16.9766 19.638 17.4453 19.4297C17.862 19.2474 18.0964 18.987 18.1484 18.6484C18.2266 18.2578 18.0964 17.9453 17.7578 17.7109C17.263 17.4245 16.7292 17.2161 16.1562 17.0859C16.1042 17.0599 16.0521 17.0469 16 17.0469C15.9479 17.0208 15.9089 17.0078 15.8828 17.0078C15.1536 16.8255 14.4766 16.5651 13.8516 16.2266C13.5391 16.0182 13.2786 15.7318 13.0703 15.3672C12.862 15.0026 12.8099 14.5859 12.9141 14.1172C13.1224 13.2839 13.6172 12.7109 14.3984 12.3984C14.7109 12.2943 15.0365 12.2031 15.375 12.125V11.1875C15.401 10.7969 15.6094 10.5885 16 10.5625C16.3646 10.5885 16.5729 10.7969 16.625 11.1875Z" fill="black" fill-opacity="0.72"/>
</g>
</svg>
