<svg width="32" height="32" viewBox="0 0 32 32" fill="none" xmlns="http://www.w3.org/2000/svg">
<g id="standalone / md / nine-md / regular">
<path id="icon" d="M11 14C11.026 15.4062 11.5078 16.5911 12.4453 17.5547C13.4089 18.4922 14.5938 18.974 16 19C17.4062 18.974 18.5781 18.5052 19.5156 17.5938C20.4271 16.6562 20.9219 15.4974 21 14.1172C21 14.0911 21 14.0781 21 14.0781C21 14.0521 21 14.026 21 14C20.974 12.5938 20.4922 11.4089 19.5547 10.4453C18.5911 9.50781 17.4062 9.02604 16 9C14.5938 9.02604 13.4089 9.50781 12.4453 10.4453C11.5078 11.4089 11.026 12.5938 11 14ZM17.2891 20.1328C16.8724 20.2109 16.4427 20.25 16 20.25C14.2292 20.1979 12.7578 19.5859 11.5859 18.4141C10.4141 17.2422 9.80208 15.7708 9.75 14C9.80208 12.2292 10.4141 10.7578 11.5859 9.58594C12.7578 8.41406 14.2292 7.80208 16 7.75C17.7708 7.80208 19.2422 8.41406 20.4141 9.58594C21.5859 10.7578 22.1979 12.2292 22.25 14C22.25 14.0781 22.25 14.1562 22.25 14.2344C22.1719 15.7448 21.638 17.0859 20.6484 18.2578L14.5938 25.0547C14.3073 25.3151 14.0078 25.3281 13.6953 25.0938C13.4349 24.8073 13.4219 24.5078 13.6562 24.1953L17.2891 20.1328Z" fill="black" fill-opacity="0.72"/>
</g>
</svg>
