<svg width="32" height="32" viewBox="0 0 32 32" fill="none" xmlns="http://www.w3.org/2000/svg">
<g id="standalone / md / chart-area-md / bold">
<path id="icon" d="M7.875 8.6875V22.4375C7.92708 23.0104 8.23958 23.3229 8.8125 23.375H25.0625C25.6354 23.4271 25.9479 23.7396 26 24.3125C25.9479 24.8854 25.6354 25.1979 25.0625 25.25H8.8125C8.00521 25.224 7.34115 24.9505 6.82031 24.4297C6.29948 23.9089 6.02604 23.2448 6 22.4375V8.6875C6.05208 8.11458 6.36458 7.80208 6.9375 7.75C7.51042 7.80208 7.82292 8.11458 7.875 8.6875ZM17.1719 15.3281L14.75 12.9062L11.625 16.0312V19.625H22.875V16.5781L20.8828 14.2734L19.8281 15.3281C19.4635 15.6927 19.0208 15.875 18.5 15.875C17.9792 15.875 17.5365 15.6927 17.1719 15.3281ZM18.5 14L19.8281 12.6719L20.0625 12.4375C20.3229 12.2031 20.6224 12.0859 20.9609 12.0859C21.3255 12.112 21.625 12.2552 21.8594 12.5156L24.2812 15.3672C24.5938 15.7057 24.75 16.1094 24.75 16.5781V20.25C24.75 20.6146 24.6328 20.9141 24.3984 21.1484C24.1641 21.3828 23.8646 21.5 23.5 21.5H11C10.6354 21.5 10.3359 21.3828 10.1016 21.1484C9.86719 20.9141 9.75 20.6146 9.75 20.25V16.0312C9.75 15.5104 9.93229 15.0677 10.2969 14.7031L13.8516 11.1484C14.112 10.888 14.4115 10.7578 14.75 10.7578C15.0885 10.7578 15.388 10.888 15.6484 11.1484L17.1719 12.6719L18.5 14Z" fill="black" fill-opacity="0.72"/>
</g>
</svg>
