<svg width="32" height="32" viewBox="0 0 32 32" fill="none" xmlns="http://www.w3.org/2000/svg">
<g id="standalone / md / grid-2-md / regular">
<path id="icon" d="M9.125 9C8.73438 9.02604 8.52604 9.23438 8.5 9.625V13.375C8.52604 13.7656 8.73438 13.974 9.125 14H12.875C13.2656 13.974 13.474 13.7656 13.5 13.375V9.625C13.474 9.23438 13.2656 9.02604 12.875 9H9.125ZM7.25 9.625C7.27604 9.10417 7.45833 8.66146 7.79688 8.29688C8.16146 7.95833 8.60417 7.77604 9.125 7.75H12.875C13.3958 7.77604 13.8385 7.95833 14.2031 8.29688C14.5417 8.66146 14.724 9.10417 14.75 9.625V13.375C14.724 13.8958 14.5417 14.3385 14.2031 14.7031C13.8385 15.0417 13.3958 15.224 12.875 15.25H9.125C8.60417 15.224 8.16146 15.0417 7.79688 14.7031C7.45833 14.3385 7.27604 13.8958 7.25 13.375V9.625ZM9.125 19C8.73438 19.026 8.52604 19.2344 8.5 19.625V23.375C8.52604 23.7656 8.73438 23.974 9.125 24H12.875C13.2656 23.974 13.474 23.7656 13.5 23.375V19.625C13.474 19.2344 13.2656 19.026 12.875 19H9.125ZM7.25 19.625C7.27604 19.1042 7.45833 18.6615 7.79688 18.2969C8.16146 17.9583 8.60417 17.776 9.125 17.75H12.875C13.3958 17.776 13.8385 17.9583 14.2031 18.2969C14.5417 18.6615 14.724 19.1042 14.75 19.625V23.375C14.724 23.8958 14.5417 24.3385 14.2031 24.7031C13.8385 25.0417 13.3958 25.224 12.875 25.25H9.125C8.60417 25.224 8.16146 25.0417 7.79688 24.7031C7.45833 24.3385 7.27604 23.8958 7.25 23.375V19.625ZM22.875 9H19.125C18.7344 9.02604 18.526 9.23438 18.5 9.625V13.375C18.526 13.7656 18.7344 13.974 19.125 14H22.875C23.2656 13.974 23.474 13.7656 23.5 13.375V9.625C23.474 9.23438 23.2656 9.02604 22.875 9ZM19.125 7.75H22.875C23.3958 7.77604 23.8385 7.95833 24.2031 8.29688C24.5417 8.66146 24.724 9.10417 24.75 9.625V13.375C24.724 13.8958 24.5417 14.3385 24.2031 14.7031C23.8385 15.0417 23.3958 15.224 22.875 15.25H19.125C18.6042 15.224 18.1615 15.0417 17.7969 14.7031C17.4583 14.3385 17.276 13.8958 17.25 13.375V9.625C17.276 9.10417 17.4583 8.66146 17.7969 8.29688C18.1615 7.95833 18.6042 7.77604 19.125 7.75ZM19.125 19C18.7344 19.026 18.526 19.2344 18.5 19.625V23.375C18.526 23.7656 18.7344 23.974 19.125 24H22.875C23.2656 23.974 23.474 23.7656 23.5 23.375V19.625C23.474 19.2344 23.2656 19.026 22.875 19H19.125ZM17.25 19.625C17.276 19.1042 17.4583 18.6615 17.7969 18.2969C18.1615 17.9583 18.6042 17.776 19.125 17.75H22.875C23.3958 17.776 23.8385 17.9583 24.2031 18.2969C24.5417 18.6615 24.724 19.1042 24.75 19.625V23.375C24.724 23.8958 24.5417 24.3385 24.2031 24.7031C23.8385 25.0417 23.3958 25.224 22.875 25.25H19.125C18.6042 25.224 18.1615 25.0417 17.7969 24.7031C17.4583 24.3385 17.276 23.8958 17.25 23.375V19.625Z" fill="black" fill-opacity="0.72"/>
</g>
</svg>
