<svg width="32" height="32" viewBox="0 0 32 32" fill="none" xmlns="http://www.w3.org/2000/svg">
<g id="standalone / md / chevrons-up-md / regular">
<path id="icon" d="M16.4297 8.57031L23.9297 16.0703C24.1901 16.3568 24.1901 16.6432 23.9297 16.9297C23.6432 17.1901 23.3568 17.1901 23.0703 16.9297L16 9.89844L8.92969 16.9297C8.64323 17.1901 8.35677 17.1901 8.07031 16.9297C7.8099 16.6432 7.8099 16.3568 8.07031 16.0703L15.5703 8.57031C15.8568 8.3099 16.1432 8.3099 16.4297 8.57031ZM23.9297 23.5703C24.1901 23.8568 24.1901 24.1432 23.9297 24.4297C23.6432 24.6901 23.3568 24.6901 23.0703 24.4297L16 17.3984L8.92969 24.4297C8.64323 24.6901 8.35677 24.6901 8.07031 24.4297C7.8099 24.1432 7.8099 23.8568 8.07031 23.5703L15.5703 16.0703C15.8568 15.8099 16.1432 15.8099 16.4297 16.0703L23.9297 23.5703Z" fill="black" fill-opacity="0.72"/>
</g>
</svg>
