<svg width="32" height="32" viewBox="0 0 32 32" fill="none" xmlns="http://www.w3.org/2000/svg">
<g id="standalone / md / google-md">
<path id="icon" d="M25.5312 16.7344C25.4792 19.5469 24.6198 21.8125 22.9531 23.5312C21.2604 25.25 18.9948 26.1354 16.1562 26.1875C14.3594 26.1615 12.7318 25.7188 11.2734 24.8594C9.8151 24 8.65625 22.8411 7.79688 21.3828C6.9375 19.9245 6.49479 18.2969 6.46875 16.5C6.49479 14.7031 6.9375 13.0755 7.79688 11.6172C8.65625 10.1589 9.8151 9 11.2734 8.14062C12.7318 7.28125 14.3594 6.83854 16.1562 6.8125C18.7865 6.86458 20.9479 7.71094 22.6406 9.35156L20.0234 11.8906C18.7995 10.7969 17.4323 10.3021 15.9219 10.4062C14.4115 10.4844 13.0833 11.0573 11.9375 12.125C10.8177 13.2188 10.2188 14.6771 10.1406 16.5C10.1927 18.2448 10.7786 19.6901 11.8984 20.8359C13.0443 21.9818 14.4635 22.5807 16.1562 22.6328C17.4323 22.6068 18.4609 22.3464 19.2422 21.8516C20.0234 21.3568 20.6094 20.7969 21 20.1719C21.3646 19.5208 21.5859 18.9479 21.6641 18.4531H16.1562V15.0938H25.375C25.4792 15.5625 25.5312 16.1094 25.5312 16.7344Z" fill="black" fill-opacity="0.72"/>
</g>
</svg>
