<svg width="32" height="32" viewBox="0 0 32 32" fill="none" xmlns="http://www.w3.org/2000/svg">
<g id="standalone / md / arrow-up-right-from-square-md / regular">
<path id="icon" d="M19.125 6.5H25.375C25.7656 6.52604 25.974 6.73438 26 7.125V13.375C25.974 13.7656 25.7656 13.974 25.375 14C24.9844 13.974 24.776 13.7656 24.75 13.375V8.64844L15.1797 18.1797C14.8932 18.4401 14.6068 18.4401 14.3203 18.1797C14.0599 17.8932 14.0599 17.6068 14.3203 17.3203L23.8516 7.75H19.125C18.7344 7.72396 18.526 7.51562 18.5 7.125C18.526 6.73438 18.7344 6.52604 19.125 6.5ZM8.5 7.75H14.125C14.5156 7.77604 14.724 7.98438 14.75 8.375C14.724 8.76562 14.5156 8.97396 14.125 9H8.5C8.13542 9 7.83594 9.11719 7.60156 9.35156C7.36719 9.58594 7.25 9.88542 7.25 10.25V24C7.25 24.3646 7.36719 24.6641 7.60156 24.8984C7.83594 25.1328 8.13542 25.25 8.5 25.25H22.25C22.6146 25.25 22.9141 25.1328 23.1484 24.8984C23.3828 24.6641 23.5 24.3646 23.5 24V18.375C23.526 17.9844 23.7344 17.776 24.125 17.75C24.5156 17.776 24.724 17.9844 24.75 18.375V24C24.724 24.7031 24.4766 25.2891 24.0078 25.7578C23.5391 26.2266 22.9531 26.474 22.25 26.5H8.5C7.79688 26.474 7.21094 26.2266 6.74219 25.7578C6.27344 25.2891 6.02604 24.7031 6 24V10.25C6.02604 9.54688 6.27344 8.96094 6.74219 8.49219C7.21094 8.02344 7.79688 7.77604 8.5 7.75Z" fill="black" fill-opacity="0.72"/>
</g>
</svg>
