<svg width="32" height="32" viewBox="0 0 32 32" fill="none" xmlns="http://www.w3.org/2000/svg">
<g id="standalone / md / backward-step-md / bold">
<path id="icon" d="M12.875 9.9375V14.0391L19.7891 9.19531C19.9714 9.0651 20.1927 9 20.4531 9C20.7917 9 21.0651 9.11719 21.2734 9.35156C21.5078 9.5599 21.625 9.83333 21.625 10.1719V22.8281C21.625 23.1667 21.5078 23.4401 21.2734 23.6484C21.0651 23.8828 20.7917 24 20.4531 24C20.2188 24 19.9974 23.9349 19.7891 23.8047L12.875 18.9609V23.0625C12.8229 23.6354 12.5104 23.9479 11.9375 24C11.3646 23.9479 11.0521 23.6354 11 23.0625V17.6328V15.3672V9.9375C11.0521 9.36458 11.3646 9.05208 11.9375 9C12.5104 9.05208 12.8229 9.36458 12.875 9.9375ZM12.875 16.6562L19.75 21.5V11.5391L12.875 16.3438V16.6562Z" fill="black" fill-opacity="0.72"/>
</g>
</svg>
