<svg width="32" height="32" viewBox="0 0 32 32" fill="none" xmlns="http://www.w3.org/2000/svg">
<g id="standalone / md / keyboard-md / regular">
<path id="icon" d="M7.25 10.25C6.88542 10.25 6.58594 10.3672 6.35156 10.6016C6.11719 10.8359 6 11.1354 6 11.5V21.5C6 21.8646 6.11719 22.1641 6.35156 22.3984C6.58594 22.6328 6.88542 22.75 7.25 22.75H24.75C25.1146 22.75 25.4141 22.6328 25.6484 22.3984C25.8828 22.1641 26 21.8646 26 21.5V11.5C26 11.1354 25.8828 10.8359 25.6484 10.6016C25.4141 10.3672 25.1146 10.25 24.75 10.25H7.25ZM4.75 11.5C4.77604 10.7969 5.02344 10.2109 5.49219 9.74219C5.96094 9.27344 6.54688 9.02604 7.25 9H24.75C25.4531 9.02604 26.0391 9.27344 26.5078 9.74219C26.9766 10.2109 27.224 10.7969 27.25 11.5V21.5C27.224 22.2031 26.9766 22.7891 26.5078 23.2578C26.0391 23.7266 25.4531 23.974 24.75 24H7.25C6.54688 23.974 5.96094 23.7266 5.49219 23.2578C5.02344 22.7891 4.77604 22.2031 4.75 21.5V11.5ZM8.1875 11.8125H8.8125C9.20312 11.8385 9.41146 12.0469 9.4375 12.4375V13.0625C9.41146 13.4531 9.20312 13.6615 8.8125 13.6875H8.1875C7.79688 13.6615 7.58854 13.4531 7.5625 13.0625V12.4375C7.58854 12.0469 7.79688 11.8385 8.1875 11.8125ZM7.5625 16.1875C7.58854 15.7969 7.79688 15.5885 8.1875 15.5625H8.8125C9.20312 15.5885 9.41146 15.7969 9.4375 16.1875V16.8125C9.41146 17.2031 9.20312 17.4115 8.8125 17.4375H8.1875C7.79688 17.4115 7.58854 17.2031 7.5625 16.8125V16.1875ZM8.1875 19.3125H8.8125C9.20312 19.3385 9.41146 19.5469 9.4375 19.9375V20.5625C9.41146 20.9531 9.20312 21.1615 8.8125 21.1875H8.1875C7.79688 21.1615 7.58854 20.9531 7.5625 20.5625V19.9375C7.58854 19.5469 7.79688 19.3385 8.1875 19.3125ZM11.3125 12.4375C11.3385 12.0469 11.5469 11.8385 11.9375 11.8125H12.5625C12.9531 11.8385 13.1615 12.0469 13.1875 12.4375V13.0625C13.1615 13.4531 12.9531 13.6615 12.5625 13.6875H11.9375C11.5469 13.6615 11.3385 13.4531 11.3125 13.0625V12.4375ZM11.9375 15.5625H12.5625C12.9531 15.5885 13.1615 15.7969 13.1875 16.1875V16.8125C13.1615 17.2031 12.9531 17.4115 12.5625 17.4375H11.9375C11.5469 17.4115 11.3385 17.2031 11.3125 16.8125V16.1875C11.3385 15.7969 11.5469 15.5885 11.9375 15.5625ZM15.0625 12.4375C15.0885 12.0469 15.2969 11.8385 15.6875 11.8125H16.3125C16.7031 11.8385 16.9115 12.0469 16.9375 12.4375V13.0625C16.9115 13.4531 16.7031 13.6615 16.3125 13.6875H15.6875C15.2969 13.6615 15.0885 13.4531 15.0625 13.0625V12.4375ZM15.6875 15.5625H16.3125C16.7031 15.5885 16.9115 15.7969 16.9375 16.1875V16.8125C16.9115 17.2031 16.7031 17.4115 16.3125 17.4375H15.6875C15.2969 17.4115 15.0885 17.2031 15.0625 16.8125V16.1875C15.0885 15.7969 15.2969 15.5885 15.6875 15.5625ZM18.8125 12.4375C18.8385 12.0469 19.0469 11.8385 19.4375 11.8125H20.0625C20.4531 11.8385 20.6615 12.0469 20.6875 12.4375V13.0625C20.6615 13.4531 20.4531 13.6615 20.0625 13.6875H19.4375C19.0469 13.6615 18.8385 13.4531 18.8125 13.0625V12.4375ZM19.4375 15.5625H20.0625C20.4531 15.5885 20.6615 15.7969 20.6875 16.1875V16.8125C20.6615 17.2031 20.4531 17.4115 20.0625 17.4375H19.4375C19.0469 17.4115 18.8385 17.2031 18.8125 16.8125V16.1875C18.8385 15.7969 19.0469 15.5885 19.4375 15.5625ZM22.5625 12.4375C22.5885 12.0469 22.7969 11.8385 23.1875 11.8125H23.8125C24.2031 11.8385 24.4115 12.0469 24.4375 12.4375V13.0625C24.4115 13.4531 24.2031 13.6615 23.8125 13.6875H23.1875C22.7969 13.6615 22.5885 13.4531 22.5625 13.0625V12.4375ZM23.1875 15.5625H23.8125C24.2031 15.5885 24.4115 15.7969 24.4375 16.1875V16.8125C24.4115 17.2031 24.2031 17.4115 23.8125 17.4375H23.1875C22.7969 17.4115 22.5885 17.2031 22.5625 16.8125V16.1875C22.5885 15.7969 22.7969 15.5885 23.1875 15.5625ZM22.5625 19.9375C22.5885 19.5469 22.7969 19.3385 23.1875 19.3125H23.8125C24.2031 19.3385 24.4115 19.5469 24.4375 19.9375V20.5625C24.4115 20.9531 24.2031 21.1615 23.8125 21.1875H23.1875C22.7969 21.1615 22.5885 20.9531 22.5625 20.5625V19.9375ZM11.625 19.625H20.375C20.7656 19.651 20.974 19.8594 21 20.25C20.974 20.6406 20.7656 20.849 20.375 20.875H11.625C11.2344 20.849 11.026 20.6406 11 20.25C11.026 19.8594 11.2344 19.651 11.625 19.625Z" fill="black" fill-opacity="0.72"/>
</g>
</svg>
