<svg width="32" height="32" viewBox="0 0 32 32" fill="none" xmlns="http://www.w3.org/2000/svg">
<g id="standalone / md / computer-mouse-scrollwheel-md / bold">
<path id="icon" d="M21.625 20.25V12.75C21.599 11.5 21.1693 10.4714 20.3359 9.66406C19.5286 8.83073 18.5 8.40104 17.25 8.375H14.75C13.5 8.40104 12.4714 8.83073 11.6641 9.66406C10.8307 10.4714 10.401 11.5 10.375 12.75V20.25C10.401 21.5 10.8307 22.5286 11.6641 23.3359C12.4714 24.1693 13.5 24.599 14.75 24.625H17.25C18.5 24.599 19.5286 24.1693 20.3359 23.3359C21.1693 22.5286 21.599 21.5 21.625 20.25ZM8.5 12.75C8.55208 10.9792 9.16406 9.50781 10.3359 8.33594C11.5078 7.16406 12.9792 6.55208 14.75 6.5H17.25C19.0208 6.55208 20.4922 7.16406 21.6641 8.33594C22.8359 9.50781 23.4479 10.9792 23.5 12.75V20.25C23.4479 22.0208 22.8359 23.4922 21.6641 24.6641C20.4922 25.8359 19.0208 26.4479 17.25 26.5H14.75C12.9792 26.4479 11.5078 25.8359 10.3359 24.6641C9.16406 23.4922 8.55208 22.0208 8.5 20.25V12.75ZM16 10.25C16.3646 10.25 16.6641 10.3672 16.8984 10.6016C17.1328 10.8359 17.25 11.1354 17.25 11.5V12.75C17.25 13.1146 17.1328 13.4141 16.8984 13.6484C16.6641 13.8828 16.3646 14 16 14C15.6354 14 15.3359 13.8828 15.1016 13.6484C14.8672 13.4141 14.75 13.1146 14.75 12.75V11.5C14.75 11.1354 14.8672 10.8359 15.1016 10.6016C15.3359 10.3672 15.6354 10.25 16 10.25Z" fill="black" fill-opacity="0.72"/>
</g>
</svg>
