<svg width="32" height="32" viewBox="0 0 32 32" fill="none" xmlns="http://www.w3.org/2000/svg">
<g id="standalone / md / arrow-up-right-from-square-md / regular">
<path id="icon" d="M19.125 6.5H25.375C25.7656 6.52604 25.974 6.73438 26 7.125V13.375C25.974 13.7656 25.7656 13.974 25.375 14C24.9844 13.974 24.776 13.7656 24.75 13.375V8.64844L15.1797 18.1797C14.8932 18.4401 14.6068 18.4401 14.3203 18.1797C14.0599 17.8932 14.0599 17.6068 14.3203 17.3203L23.8516 7.75H19.125C18.7344 7.72396 18.526 7.51562 18.5 7.125C18.526 6.73438 18.7344 6.52604 19.125 6.5ZM8.5 9H14.125C14.5156 9.02604 14.724 9.23438 14.75 9.625C14.724 10.0156 14.5156 10.224 14.125 10.25H8.5C8.13542 10.25 7.83594 10.3672 7.60156 10.6016C7.36719 10.8359 7.25 11.1354 7.25 11.5V24C7.25 24.3646 7.36719 24.6641 7.60156 24.8984C7.83594 25.1328 8.13542 25.25 8.5 25.25H21C21.3646 25.25 21.6641 25.1328 21.8984 24.8984C22.1328 24.6641 22.25 24.3646 22.25 24V18.375C22.276 17.9844 22.4844 17.776 22.875 17.75C23.2656 17.776 23.474 17.9844 23.5 18.375V24C23.474 24.7031 23.2266 25.2891 22.7578 25.7578C22.2891 26.2266 21.7031 26.474 21 26.5H8.5C7.79688 26.474 7.21094 26.2266 6.74219 25.7578C6.27344 25.2891 6.02604 24.7031 6 24V11.5C6.02604 10.7969 6.27344 10.2109 6.74219 9.74219C7.21094 9.27344 7.79688 9.02604 8.5 9Z" fill="black" fill-opacity="0.72"/>
</g>
</svg>
