<svg width="32" height="32" viewBox="0 0 32 32" fill="none" xmlns="http://www.w3.org/2000/svg">
<g id="standalone / md / phone-md / bold">
<path id="icon" d="M20.6875 17.2422L25.0625 19.1172C25.401 19.2734 25.6615 19.5208 25.8438 19.8594C26 20.1719 26.0391 20.5234 25.9609 20.9141L25.0234 25.2891C24.8151 26.0443 24.3073 26.4479 23.5 26.5C23.2656 26.5 23.0312 26.5 22.7969 26.5C22.4062 26.474 22.0156 26.4479 21.625 26.4219C18.6562 26.0573 16 25.0807 13.6562 23.4922C11.3125 21.8776 9.46354 19.8203 8.10938 17.3203C6.72917 14.8203 6.02604 12.0469 6 9C6.05208 8.19271 6.46875 7.6849 7.25 7.47656L11.625 6.53906C11.9896 6.46094 12.3281 6.51302 12.6406 6.69531C12.9792 6.85156 13.2266 7.09896 13.3828 7.4375L15.2578 11.8125C15.5182 12.5156 15.362 13.1276 14.7891 13.6484L13.2266 14.9375C14.2943 16.7604 15.7396 18.2057 17.5625 19.2734L18.8516 17.7109C19.3724 17.138 19.9844 16.9818 20.6875 17.2422ZM23.2656 24.625L24.0859 20.7578L20.1797 19.0781L19.0078 20.4844C18.6953 20.8229 18.3307 21.0312 17.9141 21.1094C17.4714 21.2135 17.0417 21.1484 16.625 20.9141C14.5156 19.6641 12.8359 17.9844 11.5859 15.875C11.3776 15.4583 11.3125 15.0417 11.3906 14.625C11.4688 14.1823 11.6771 13.8047 12.0156 13.4922L13.4219 12.3594L11.7422 8.41406L7.875 9.27344C7.95312 12.112 8.68229 14.6771 10.0625 16.9688C11.4167 19.2604 13.2396 21.0833 15.5312 22.4375C17.8229 23.8177 20.401 24.5469 23.2656 24.625Z" fill="black" fill-opacity="0.72"/>
</g>
</svg>
