<svg width="32" height="32" viewBox="0 0 32 32" fill="none" xmlns="http://www.w3.org/2000/svg">
<g id="standalone / md / triangle-exclamation-md / regular">
<path id="icon" d="M7.36719 22.9062C7.28906 23.0365 7.25 23.1667 7.25 23.2969C7.30208 23.7396 7.53646 23.974 7.95312 24H24.0469C24.4635 23.974 24.6979 23.7396 24.75 23.2969C24.75 23.1667 24.724 23.0365 24.6719 22.9062L16.8203 9.46875C16.612 9.15625 16.3385 9 16 9C15.6615 9 15.401 9.15625 15.2188 9.46875L7.36719 22.9062ZM6.27344 22.2812L14.125 8.84375C14.5677 8.14062 15.1927 7.77604 16 7.75C16.8073 7.77604 17.4323 8.14062 17.875 8.84375L25.7266 22.2812C25.9089 22.5938 26 22.9323 26 23.2969C25.974 23.8438 25.7786 24.2995 25.4141 24.6641C25.0495 25.0286 24.5938 25.224 24.0469 25.25H7.95312C7.40625 25.224 6.95052 25.0286 6.58594 24.6641C6.22135 24.2995 6.02604 23.8438 6 23.2969C6 22.9323 6.09115 22.5938 6.27344 22.2812ZM16 12.75C16.3906 12.776 16.599 12.9844 16.625 13.375V18.375C16.599 18.7656 16.3906 18.974 16 19C15.6094 18.974 15.401 18.7656 15.375 18.375V13.375C15.401 12.9844 15.6094 12.776 16 12.75ZM15.0625 21.5C15.1146 20.9271 15.4271 20.6146 16 20.5625C16.5729 20.6146 16.8854 20.9271 16.9375 21.5C16.8854 22.0729 16.5729 22.3854 16 22.4375C15.4271 22.3854 15.1146 22.0729 15.0625 21.5Z" fill="black" fill-opacity="0.72"/>
</g>
</svg>
