<svg width="32" height="32" viewBox="0 0 32 32" fill="none" xmlns="http://www.w3.org/2000/svg">
<g id="standalone / md / circle-euro-md / bold">
<path id="icon" d="M24.125 16.5C24.125 15.0156 23.7604 13.6615 23.0312 12.4375C22.3281 11.2135 21.3385 10.224 20.0625 9.46875C18.7865 8.73958 17.4323 8.375 16 8.375C14.5677 8.375 13.2135 8.73958 11.9375 9.46875C10.6615 10.224 9.67188 11.2135 8.96875 12.4375C8.23958 13.6615 7.875 15.0156 7.875 16.5C7.875 17.9844 8.23958 19.3385 8.96875 20.5625C9.67188 21.7865 10.6615 22.776 11.9375 23.5312C13.2135 24.2604 14.5677 24.625 16 24.625C17.4323 24.625 18.7865 24.2604 20.0625 23.5312C21.3385 22.776 22.3281 21.7865 23.0312 20.5625C23.7604 19.3385 24.125 17.9844 24.125 16.5ZM6 16.5C6.02604 14.6771 6.46875 13.0104 7.32812 11.5C8.21354 9.98958 9.4375 8.76562 11 7.82812C12.5885 6.94271 14.2552 6.5 16 6.5C17.7448 6.5 19.4115 6.94271 21 7.82812C22.5625 8.76562 23.7865 9.98958 24.6719 11.5C25.5312 13.0104 25.974 14.6771 26 16.5C25.974 18.3229 25.5312 19.9896 24.6719 21.5C23.7865 23.0104 22.5625 24.2344 21 25.1719C19.4115 26.0573 17.7448 26.5 16 26.5C14.2552 26.5 12.5885 26.0573 11 25.1719C9.4375 24.2344 8.21354 23.0104 7.32812 21.5C6.46875 19.9896 6.02604 18.3229 6 16.5ZM11 17.125H11.625C11.599 16.9167 11.5859 16.7214 11.5859 16.5391C11.5859 16.3047 11.599 16.0833 11.625 15.875H11C10.6094 15.849 10.401 15.6406 10.375 15.25C10.401 14.8594 10.6094 14.651 11 14.625H11.9766C12.3672 13.6875 12.9661 12.9323 13.7734 12.3594C14.6068 11.8125 15.5573 11.526 16.625 11.5H18.2266C18.7995 11.5521 19.112 11.8646 19.1641 12.4375C19.112 13.0104 18.7995 13.3229 18.2266 13.375H16.625C15.5573 13.401 14.724 13.8177 14.125 14.625H17.25C17.6406 14.651 17.849 14.8594 17.875 15.25C17.849 15.6406 17.6406 15.849 17.25 15.875H13.5391C13.487 16.0833 13.4609 16.3047 13.4609 16.5391C13.4609 16.7474 13.487 16.9427 13.5391 17.125H17.25C17.6406 17.151 17.849 17.3594 17.875 17.75C17.849 18.1406 17.6406 18.349 17.25 18.375H14.0469C14.6719 19.2083 15.5312 19.651 16.625 19.7031H18.2266C18.7995 19.7552 19.112 20.0677 19.1641 20.6406C19.112 21.1875 18.7995 21.5 18.2266 21.5781H16.625C15.5312 21.5521 14.5807 21.2526 13.7734 20.6797C12.9401 20.0807 12.3281 19.3125 11.9375 18.375H11C10.6094 18.349 10.401 18.1406 10.375 17.75C10.401 17.3594 10.6094 17.151 11 17.125Z" fill="black" fill-opacity="0.72"/>
</g>
</svg>
