<svg width="32" height="32" viewBox="0 0 32 32" fill="none" xmlns="http://www.w3.org/2000/svg">
<g id="standalone / md / person-chalkboard-md / regular">
<path id="icon" d="M10.0625 8.6875C10.1146 9.26042 10.4271 9.57292 11 9.625C11.5729 9.57292 11.8854 9.26042 11.9375 8.6875C11.8854 8.11458 11.5729 7.80208 11 7.75C10.4271 7.80208 10.1146 8.11458 10.0625 8.6875ZM13.1875 8.6875C13.1615 9.52083 12.7969 10.1458 12.0938 10.5625C11.3646 10.9792 10.6354 10.9792 9.90625 10.5625C9.20312 10.1458 8.83854 9.52083 8.8125 8.6875C8.83854 7.85417 9.20312 7.22917 9.90625 6.8125C10.6354 6.39583 11.3646 6.39583 12.0938 6.8125C12.7969 7.22917 13.1615 7.85417 13.1875 8.6875ZM10.4922 12.75C10.2318 12.75 9.98438 12.8021 9.75 12.9062V19H12.25V12.75H10.4922ZM9.75 25.875C9.72396 26.2656 9.51562 26.474 9.125 26.5C8.73438 26.474 8.52604 26.2656 8.5 25.875V14.3906L6.54688 18.0625C6.33854 18.375 6.0651 18.4531 5.72656 18.2969C5.38802 18.0885 5.29688 17.8151 5.45312 17.4766L7.75781 13.1406C8.35677 12.099 9.26823 11.5521 10.4922 11.5H12.9922H16V8.375C16.026 7.85417 16.2083 7.41146 16.5469 7.04688C16.9115 6.70833 17.3542 6.52604 17.875 6.5H26.625C27.1458 6.52604 27.5885 6.70833 27.9531 7.04688C28.2917 7.41146 28.474 7.85417 28.5 8.375V17.125C28.474 17.6458 28.2917 18.0885 27.9531 18.4531C27.5885 18.7917 27.1458 18.974 26.625 19H17.875C17.3542 18.974 16.9115 18.7917 16.5469 18.4531C16.2083 18.0885 16.026 17.6458 16 17.125V14H17.25V17.125C17.276 17.5156 17.4844 17.724 17.875 17.75H26.625C27.0156 17.724 27.224 17.5156 27.25 17.125V8.375C27.224 7.98438 27.0156 7.77604 26.625 7.75H17.875C17.4844 7.77604 17.276 7.98438 17.25 8.375V11.5H19.125C19.5156 11.526 19.724 11.7344 19.75 12.125C19.724 12.5156 19.5156 12.724 19.125 12.75H13.5V25.875C13.474 26.2656 13.2656 26.474 12.875 26.5C12.4844 26.474 12.276 26.2656 12.25 25.875V20.25H9.75V25.875Z" fill="black" fill-opacity="0.72"/>
</g>
</svg>
