<svg width="32" height="32" viewBox="0 0 32 32" fill="none" xmlns="http://www.w3.org/2000/svg">
<g id="standalone / md / grid-2-md / bold">
<path id="icon" d="M9.125 9.625V13.375H12.875V9.625H9.125ZM7.25 9.625C7.27604 9.10417 7.45833 8.66146 7.79688 8.29688C8.16146 7.95833 8.60417 7.77604 9.125 7.75H12.875C13.3958 7.77604 13.8385 7.95833 14.2031 8.29688C14.5417 8.66146 14.724 9.10417 14.75 9.625V13.375C14.724 13.8958 14.5417 14.3385 14.2031 14.7031C13.8385 15.0417 13.3958 15.224 12.875 15.25H9.125C8.60417 15.224 8.16146 15.0417 7.79688 14.7031C7.45833 14.3385 7.27604 13.8958 7.25 13.375V9.625ZM9.125 19.625V23.375H12.875V19.625H9.125ZM7.25 19.625C7.27604 19.1042 7.45833 18.6615 7.79688 18.2969C8.16146 17.9583 8.60417 17.776 9.125 17.75H12.875C13.3958 17.776 13.8385 17.9583 14.2031 18.2969C14.5417 18.6615 14.724 19.1042 14.75 19.625V23.375C14.724 23.8958 14.5417 24.3385 14.2031 24.7031C13.8385 25.0417 13.3958 25.224 12.875 25.25H9.125C8.60417 25.224 8.16146 25.0417 7.79688 24.7031C7.45833 24.3385 7.27604 23.8958 7.25 23.375V19.625ZM22.875 9.625H19.125V13.375H22.875V9.625ZM19.125 7.75H22.875C23.3958 7.77604 23.8385 7.95833 24.2031 8.29688C24.5417 8.66146 24.724 9.10417 24.75 9.625V13.375C24.724 13.8958 24.5417 14.3385 24.2031 14.7031C23.8385 15.0417 23.3958 15.224 22.875 15.25H19.125C18.6042 15.224 18.1615 15.0417 17.7969 14.7031C17.4583 14.3385 17.276 13.8958 17.25 13.375V9.625C17.276 9.10417 17.4583 8.66146 17.7969 8.29688C18.1615 7.95833 18.6042 7.77604 19.125 7.75ZM19.125 19.625V23.375H22.875V19.625H19.125ZM17.25 19.625C17.276 19.1042 17.4583 18.6615 17.7969 18.2969C18.1615 17.9583 18.6042 17.776 19.125 17.75H22.875C23.3958 17.776 23.8385 17.9583 24.2031 18.2969C24.5417 18.6615 24.724 19.1042 24.75 19.625V23.375C24.724 23.8958 24.5417 24.3385 24.2031 24.7031C23.8385 25.0417 23.3958 25.224 22.875 25.25H19.125C18.6042 25.224 18.1615 25.0417 17.7969 24.7031C17.4583 24.3385 17.276 23.8958 17.25 23.375V19.625Z" fill="black" fill-opacity="0.72"/>
</g>
</svg>
