<svg width="32" height="32" viewBox="0 0 32 32" fill="none" xmlns="http://www.w3.org/2000/svg">
<g id="standalone / md / laptop-md / regular">
<path id="icon" d="M23.5 9H8.5C8.13542 9 7.83594 9.11719 7.60156 9.35156C7.36719 9.58594 7.25 9.88542 7.25 10.25V20.25H6V10.25C6.02604 9.54688 6.27344 8.96094 6.74219 8.49219C7.21094 8.02344 7.79688 7.77604 8.5 7.75H23.5C24.2031 7.77604 24.7891 8.02344 25.2578 8.49219C25.7266 8.96094 25.974 9.54688 26 10.25V20.25H24.75V10.25C24.75 9.88542 24.6328 9.58594 24.3984 9.35156C24.1641 9.11719 23.8646 9 23.5 9ZM6.50781 24H25.4922C26.3516 23.9479 26.9115 23.5312 27.1719 22.75H4.82812C5.08854 23.5312 5.64844 23.9479 6.50781 24ZM3.5 22.2422C3.55208 21.7995 3.79948 21.5521 4.24219 21.5H27.7578C28.2005 21.5521 28.4479 21.7995 28.5 22.2422C28.474 23.1016 28.1875 23.8177 27.6406 24.3906C27.0677 24.9375 26.3516 25.224 25.4922 25.25H6.50781C5.64844 25.224 4.94531 24.9375 4.39844 24.3906C3.82552 23.8177 3.52604 23.1016 3.5 22.2422Z" fill="black" fill-opacity="0.72"/>
</g>
</svg>
