<svg width="32" height="32" viewBox="0 0 32 32" fill="none" xmlns="http://www.w3.org/2000/svg">
<g id="standalone / md / chart-ohlc-md / bold">
<path id="icon" d="M16 6.5C16.5078 6.5 16.9375 6.92969 16.9375 7.4375V9H18.5C19.0078 9 19.4375 9.42969 19.4375 9.9375C19.4375 10.4844 19.0078 10.875 18.5 10.875H16.9375V23.0625C16.9375 23.6094 16.5078 24 16 24C15.4531 24 15.0625 23.6094 15.0625 23.0625V21.5H13.5C12.9531 21.5 12.5625 21.1094 12.5625 20.5625C12.5625 20.0547 12.9531 19.625 13.5 19.625H15.0625V7.4375C15.0625 6.92969 15.4531 6.5 16 6.5ZM24.125 9C24.6328 9 25.0625 9.42969 25.0625 9.9375V17.125H26.625C27.1328 17.125 27.5625 17.5547 27.5625 18.0625C27.5625 18.6094 27.1328 19 26.625 19H25.0625V20.5625C25.0625 21.1094 24.6328 21.5 24.125 21.5C23.5781 21.5 23.1875 21.1094 23.1875 20.5625V13.375H21.625C21.0781 13.375 20.6875 12.9844 20.6875 12.4375C20.6875 11.9297 21.0781 11.5 21.625 11.5H23.1875V9.9375C23.1875 9.42969 23.5781 9 24.125 9ZM7.875 14C8.38281 14 8.8125 14.4297 8.8125 14.9375V22.125H10.375C10.8828 22.125 11.3125 22.5547 11.3125 23.0625C11.3125 23.6094 10.8828 24 10.375 24H8.8125V25.5625C8.8125 26.1094 8.38281 26.5 7.875 26.5C7.32812 26.5 6.9375 26.1094 6.9375 25.5625V18.375H5.375C4.82812 18.375 4.4375 17.9844 4.4375 17.4375C4.4375 16.9297 4.82812 16.5 5.375 16.5H6.9375V14.9375C6.9375 14.4297 7.32812 14 7.875 14Z" fill="black" fill-opacity="0.72"/>
</g>
</svg>
