<svg width="32" height="32" viewBox="0 0 32 32" fill="none" xmlns="http://www.w3.org/2000/svg">
<g id="standalone / md / hands-holding-diamond-md / bold">
<path id="icon" d="M15.1016 6.85156C15.362 6.61719 15.6615 6.5 16 6.5C16.3385 6.5 16.638 6.61719 16.8984 6.85156L20.6484 10.6016C20.8828 10.862 21 11.1615 21 11.5C21 11.8385 20.8828 12.138 20.6484 12.3984L16.8984 16.1484C16.638 16.3828 16.3385 16.5 16 16.5C15.6615 16.5 15.362 16.3828 15.1016 16.1484L11.3516 12.3984C11.1172 12.138 11 11.8385 11 11.5C11 11.1615 11.1172 10.862 11.3516 10.6016L15.1016 6.85156ZM6.3125 9C7.11979 9.02604 7.78385 9.29948 8.30469 9.82031C8.82552 10.3411 9.09896 11.0052 9.125 11.8125V16.8516C9.61979 16.4349 10.2057 16.2135 10.8828 16.1875C11.638 16.1875 12.276 16.4479 12.7969 16.9688L15.2188 19.3906C15.5052 19.6771 15.7656 20.0026 16 20.3672C16.2344 20.0026 16.5078 19.6771 16.8203 19.3906L19.2031 16.9688C19.724 16.4479 20.362 16.1875 21.1172 16.1875C21.7943 16.2135 22.3802 16.4349 22.875 16.8516V11.8125C22.901 11.0052 23.1745 10.3411 23.6953 9.82031C24.2422 9.29948 24.9062 9.02604 25.6875 9C26.4948 9.02604 27.1589 9.29948 27.6797 9.82031C28.2005 10.3411 28.474 11.0052 28.5 11.8125V20.25C28.5 21.5521 28.0443 22.6589 27.1328 23.5703L24.4766 26.2266C24.0339 26.5911 23.5911 26.5911 23.1484 26.2266C22.7839 25.7839 22.7839 25.3411 23.1484 24.8984L25.8047 22.2422C26.3516 21.6953 26.625 21.0312 26.625 20.25V11.8125C26.5729 11.2396 26.2604 10.9271 25.6875 10.875C25.1146 10.9271 24.8021 11.2396 24.75 11.8125V17.5156C24.75 18.5573 24.3854 19.4427 23.6562 20.1719L23.0312 20.7969L21.9766 21.8516L21.3516 22.4766C20.9089 22.8411 20.4661 22.8411 20.0234 22.4766C19.6589 22.0339 19.6589 21.5911 20.0234 21.1484L20.6484 20.5234L21.7031 19.4688C21.8594 19.3125 21.9375 19.1172 21.9375 18.8828C21.8854 18.388 21.612 18.1146 21.1172 18.0625C20.8828 18.0625 20.6875 18.1406 20.5312 18.2969L18.1094 20.7188C17.3542 21.5 16.9635 22.4505 16.9375 23.5703V25.5625C16.8854 26.1354 16.5729 26.4479 16 26.5C15.4271 26.4479 15.1146 26.1354 15.0625 25.5625V23.5703C15.0365 22.4505 14.6458 21.5 13.8906 20.7188L11.4688 18.2969C11.3125 18.1406 11.1172 18.0625 10.8828 18.0625C10.388 18.1146 10.1146 18.388 10.0625 18.8828C10.0625 19.1172 10.1406 19.3125 10.2969 19.4688L11.3516 20.5234L11.9766 21.1484C12.3411 21.5911 12.3411 22.0339 11.9766 22.4766C11.5339 22.8411 11.0911 22.8411 10.6484 22.4766L10.0234 21.8516L8.96875 20.7969L8.38281 20.1719C7.65365 19.4427 7.27604 18.5573 7.25 17.5156V11.8125C7.19792 11.2396 6.88542 10.9271 6.3125 10.875C5.73958 10.9271 5.42708 11.2396 5.375 11.8125V20.25C5.375 21.0312 5.64844 21.6953 6.19531 22.2422L8.85156 24.8984C9.21615 25.3411 9.21615 25.7839 8.85156 26.2266C8.40885 26.5911 7.96615 26.5911 7.52344 26.2266L4.86719 23.5703C3.98177 22.6589 3.52604 21.5521 3.5 20.25V11.8125C3.52604 11.0052 3.79948 10.3411 4.32031 9.82031C4.84115 9.29948 5.50521 9.02604 6.3125 9Z" fill="black" fill-opacity="0.72"/>
</g>
</svg>
