<svg width="32" height="32" viewBox="0 0 32 32" fill="none" xmlns="http://www.w3.org/2000/svg">
<g id="standalone / md / circle-five-md / bold">
<path id="icon" d="M16 8.375C14.5156 8.375 13.1615 8.73958 11.9375 9.46875C10.7135 10.1719 9.72396 11.1615 8.96875 12.4375C8.23958 13.7135 7.875 15.0677 7.875 16.5C7.875 17.9323 8.23958 19.2865 8.96875 20.5625C9.72396 21.8385 10.7135 22.8281 11.9375 23.5312C13.1615 24.2604 14.5156 24.625 16 24.625C17.4844 24.625 18.8385 24.2604 20.0625 23.5312C21.2865 22.8281 22.276 21.8385 23.0312 20.5625C23.7604 19.2865 24.125 17.9323 24.125 16.5C24.125 15.0677 23.7604 13.7135 23.0312 12.4375C22.276 11.1615 21.2865 10.1719 20.0625 9.46875C18.8385 8.73958 17.4844 8.375 16 8.375ZM16 26.5C14.1771 26.474 12.5104 26.0312 11 25.1719C9.48958 24.2865 8.26562 23.0625 7.32812 21.5C6.44271 19.9115 6 18.2448 6 16.5C6 14.7552 6.44271 13.0885 7.32812 11.5C8.26562 9.9375 9.48958 8.71354 11 7.82812C12.5104 6.96875 14.1771 6.52604 16 6.5C17.8229 6.52604 19.4896 6.96875 21 7.82812C22.5104 8.71354 23.7344 9.9375 24.6719 11.5C25.5573 13.0885 26 14.7552 26 16.5C26 18.2448 25.5573 19.9115 24.6719 21.5C23.7344 23.0625 22.5104 24.2865 21 25.1719C19.4896 26.0312 17.8229 26.474 16 26.5ZM14.125 11.5H18.1875C18.7604 11.5521 19.0729 11.8646 19.125 12.4375C19.0729 13.0104 18.7604 13.3229 18.1875 13.375H14.9062L14.5938 15.0547L17.0156 15.3281C17.7969 15.4323 18.4479 15.7708 18.9688 16.3438C19.4635 16.9167 19.724 17.6068 19.75 18.4141C19.724 19.2995 19.4245 20.0286 18.8516 20.6016C18.2526 21.1745 17.5234 21.474 16.6641 21.5H15.2578C14.112 21.474 13.2135 20.9922 12.5625 20.0547L12.4062 19.8203C12.1458 19.3255 12.237 18.8958 12.6797 18.5312C13.1745 18.2708 13.6042 18.362 13.9688 18.8047L14.125 19.0391C14.4115 19.4297 14.7891 19.625 15.2578 19.625H16.6641C17.0026 19.625 17.2891 19.5078 17.5234 19.2734C17.7578 19.0391 17.875 18.7526 17.875 18.4141C17.8229 17.737 17.4583 17.3333 16.7812 17.2031L13.3828 16.8125C13.1224 16.7865 12.9141 16.6562 12.7578 16.4219C12.6016 16.2135 12.5365 15.9792 12.5625 15.7188L13.1875 12.2812C13.3177 11.7865 13.6302 11.526 14.125 11.5Z" fill="black" fill-opacity="0.72"/>
</g>
</svg>
