<svg width="32" height="32" viewBox="0 0 32 32" fill="none" xmlns="http://www.w3.org/2000/svg">
<g id="standalone / md / circle-xmark-md / regular">
<path id="icon" d="M16 7.75C14.4115 7.77604 12.9531 8.16667 11.625 8.92188C10.2969 9.70312 9.22917 10.7708 8.42188 12.125C7.64062 13.5052 7.25 14.9635 7.25 16.5C7.25 18.0365 7.64062 19.4948 8.42188 20.875C9.22917 22.2292 10.2969 23.2969 11.625 24.0781C12.9531 24.8333 14.4115 25.224 16 25.25C17.5885 25.224 19.0469 24.8333 20.375 24.0781C21.7031 23.2969 22.7708 22.2292 23.5781 20.875C24.3594 19.4948 24.75 18.0365 24.75 16.5C24.75 14.9635 24.3594 13.5052 23.5781 12.125C22.7708 10.7708 21.7031 9.70312 20.375 8.92188C19.0469 8.16667 17.5885 7.77604 16 7.75ZM16 26.5C14.1771 26.474 12.5104 26.0312 11 25.1719C9.48958 24.2865 8.26562 23.0625 7.32812 21.5C6.44271 19.9115 6 18.2448 6 16.5C6 14.7552 6.44271 13.0885 7.32812 11.5C8.26562 9.9375 9.48958 8.71354 11 7.82812C12.5104 6.96875 14.1771 6.52604 16 6.5C17.8229 6.52604 19.4896 6.96875 21 7.82812C22.5104 8.71354 23.7344 9.9375 24.6719 11.5C25.5573 13.0885 26 14.7552 26 16.5C26 18.2448 25.5573 19.9115 24.6719 21.5C23.7344 23.0625 22.5104 24.2865 21 25.1719C19.4896 26.0312 17.8229 26.474 16 26.5ZM13.0703 13.5703C13.3568 13.3099 13.6432 13.3099 13.9297 13.5703L16 15.6016L18.0703 13.5703C18.3568 13.3099 18.6432 13.3099 18.9297 13.5703C19.1901 13.8568 19.1901 14.1432 18.9297 14.4297L16.8984 16.5L18.9297 18.5703C19.1901 18.8568 19.1901 19.1432 18.9297 19.4297C18.6432 19.6901 18.3568 19.6901 18.0703 19.4297L16 17.3984L13.9297 19.4297C13.6432 19.6901 13.3568 19.6901 13.0703 19.4297C12.8099 19.1432 12.8099 18.8568 13.0703 18.5703L15.1016 16.5L13.0703 14.4297C12.8099 14.1432 12.8099 13.8568 13.0703 13.5703Z" fill="black" fill-opacity="0.72"/>
</g>
</svg>
