<svg width="32" height="32" viewBox="0 0 32 32" fill="none" xmlns="http://www.w3.org/2000/svg">
<g id="standalone / md / backward-md / bold">
<path id="icon" d="M17.25 10.1719V14.0391L24.1641 9.19531C24.3464 9.0651 24.5677 9 24.8281 9C25.1667 9 25.4401 9.11719 25.6484 9.35156C25.8828 9.5599 26 9.83333 26 10.1719V22.8281C26 23.1667 25.8828 23.4401 25.6484 23.6484C25.4401 23.8828 25.1667 24 24.8281 24C24.5938 24 24.3724 23.9349 24.1641 23.8047L17.25 18.9609V22.8281C17.25 23.1667 17.1328 23.4401 16.8984 23.6484C16.6901 23.8828 16.4167 24 16.0781 24C15.8177 24 15.5833 23.9219 15.375 23.7656L6.39062 17.2422C6.13021 17.0599 6 16.8125 6 16.5C6 16.1875 6.13021 15.9401 6.39062 15.7578L15.375 9.23438C15.5833 9.07812 15.8177 9 16.0781 9C16.4167 9 16.6901 9.11719 16.8984 9.35156C17.1328 9.5599 17.25 9.83333 17.25 10.1719ZM17.25 16.3438V16.6562L24.125 21.5V11.5391L17.25 16.3438ZM8.53906 16.5L15.375 21.4609V11.5391L8.53906 16.5Z" fill="black" fill-opacity="0.72"/>
</g>
</svg>
