<svg width="32" height="32" viewBox="0 0 32 32" fill="none" xmlns="http://www.w3.org/2000/svg">
<g id="standalone / md / ellipsis-md / bold">
<path id="icon" d="M24.125 16.5C24.099 17.2031 23.7865 17.75 23.1875 18.1406C22.5625 18.4531 21.9375 18.4531 21.3125 18.1406C20.7135 17.75 20.401 17.2031 20.375 16.5C20.401 15.7969 20.7135 15.25 21.3125 14.8594C21.9375 14.5469 22.5625 14.5469 23.1875 14.8594C23.7865 15.25 24.099 15.7969 24.125 16.5ZM17.875 16.5C17.849 17.2031 17.5365 17.75 16.9375 18.1406C16.3125 18.4531 15.6875 18.4531 15.0625 18.1406C14.4635 17.75 14.151 17.2031 14.125 16.5C14.151 15.7969 14.4635 15.25 15.0625 14.8594C15.6875 14.5469 16.3125 14.5469 16.9375 14.8594C17.5365 15.25 17.849 15.7969 17.875 16.5ZM9.75 18.375C9.04688 18.349 8.5 18.0365 8.10938 17.4375C7.79688 16.8125 7.79688 16.1875 8.10938 15.5625C8.5 14.9635 9.04688 14.651 9.75 14.625C10.4531 14.651 11 14.9635 11.3906 15.5625C11.7031 16.1875 11.7031 16.8125 11.3906 17.4375C11 18.0365 10.4531 18.349 9.75 18.375Z" fill="black" fill-opacity="0.72"/>
</g>
</svg>
