<svg width="32" height="32" viewBox="0 0 32 32" fill="none" xmlns="http://www.w3.org/2000/svg">
<g id="standalone / md / wallet-circle-plus-md / bold">
<path id="icon" d="M3.5 11.1875C3.5 9.3125 5.02344 7.75 6.9375 7.75C11.7031 7.75 16.5078 7.75 21.3125 7.75C21.8203 7.75 22.25 8.17969 22.25 8.6875C22.25 9.23438 21.8203 9.625 21.3125 9.625C16.5078 9.625 11.7031 9.625 6.9375 9.625C6.03906 9.625 5.375 10.3281 5.375 11.1875C5.375 14.7422 5.375 18.2969 5.375 21.8125C5.375 22.7109 6.03906 23.375 6.9375 23.375C10.1016 23.375 13.2656 23.375 16.4688 23.375C16.7031 24.0781 17.0938 24.7031 17.5625 25.25C14.0078 25.25 10.4531 25.25 6.9375 25.25C5.02344 25.25 3.5 23.7266 3.5 21.8125C3.5 18.2969 3.5 14.7422 3.5 11.1875ZM7.25 12.4375C7.25 11.9297 7.64062 11.5 8.1875 11.5C12.1328 11.5 16.0781 11.5 20.0625 11.5C21.625 11.5 22.9531 12.5938 23.3438 14.0391C23.1875 14.0391 23.0312 14 22.875 14C22.3672 14 21.8594 14.0781 21.3906 14.1562C21.1172 13.7266 20.6094 13.375 20.0625 13.375C16.0781 13.375 12.1328 13.375 8.1875 13.375C7.64062 13.375 7.25 12.9844 7.25 12.4375ZM17.25 20.875C17.25 17.7891 19.75 15.25 22.875 15.25C25.9609 15.25 28.5 17.7891 28.5 20.875C28.5 24 25.9609 26.5 22.875 26.5C19.75 26.5 17.25 24 17.25 20.875ZM19.75 20.875C19.75 21.2266 20.0234 21.5 20.375 21.5C21 21.5 21.625 21.5 22.25 21.5C22.25 22.125 22.25 22.75 22.25 23.375C22.25 23.7266 22.5234 24 22.875 24C23.1875 24 23.5 23.7266 23.5 23.375C23.5 22.75 23.5 22.125 23.5 21.5C24.125 21.5 24.75 21.5 25.375 21.5C25.6875 21.5 26 21.2266 26 20.875C26 20.5625 25.6875 20.25 25.375 20.25C24.75 20.25 24.125 20.25 23.5 20.25C23.5 19.625 23.5 19 23.5 18.375C23.5 18.0625 23.1875 17.75 22.875 17.75C22.5234 17.75 22.25 18.0625 22.25 18.375C22.25 19 22.25 19.625 22.25 20.25C21.625 20.25 21 20.25 20.375 20.25C20.0234 20.25 19.75 20.5625 19.75 20.875Z" fill="black" fill-opacity="0.72"/>
</g>
</svg>
