<svg width="32" height="32" viewBox="0 0 32 32" fill="none" xmlns="http://www.w3.org/2000/svg">
<g id="standalone / md / keyboard-md / bold">
<path id="icon" d="M7.25 10.875C6.85938 10.901 6.65104 11.1094 6.625 11.5V21.5C6.65104 21.8906 6.85938 22.099 7.25 22.125H24.75C25.1406 22.099 25.349 21.8906 25.375 21.5V11.5C25.349 11.1094 25.1406 10.901 24.75 10.875H7.25ZM4.75 11.5C4.77604 10.7969 5.02344 10.2109 5.49219 9.74219C5.96094 9.27344 6.54688 9.02604 7.25 9H24.75C25.4531 9.02604 26.0391 9.27344 26.5078 9.74219C26.9766 10.2109 27.224 10.7969 27.25 11.5V21.5C27.224 22.2031 26.9766 22.7891 26.5078 23.2578C26.0391 23.7266 25.4531 23.974 24.75 24H7.25C6.54688 23.974 5.96094 23.7266 5.49219 23.2578C5.02344 22.7891 4.77604 22.2031 4.75 21.5V11.5ZM11.625 19H20.375C20.7656 19.026 20.974 19.2344 21 19.625V20.25C20.974 20.6406 20.7656 20.849 20.375 20.875H11.625C11.2344 20.849 11.026 20.6406 11 20.25V19.625C11.026 19.2344 11.2344 19.026 11.625 19ZM8.8125 16.1875C8.83854 15.7969 9.04688 15.5885 9.4375 15.5625H10.0625C10.4531 15.5885 10.6615 15.7969 10.6875 16.1875V16.8125C10.6615 17.2031 10.4531 17.4115 10.0625 17.4375H9.4375C9.04688 17.4115 8.83854 17.2031 8.8125 16.8125V16.1875ZM9.4375 12.4375H10.0625C10.4531 12.4635 10.6615 12.6719 10.6875 13.0625V13.6875C10.6615 14.0781 10.4531 14.2865 10.0625 14.3125H9.4375C9.04688 14.2865 8.83854 14.0781 8.8125 13.6875V13.0625C8.83854 12.6719 9.04688 12.4635 9.4375 12.4375ZM11.9375 16.1875C11.9635 15.7969 12.1719 15.5885 12.5625 15.5625H13.1875C13.5781 15.5885 13.7865 15.7969 13.8125 16.1875V16.8125C13.7865 17.2031 13.5781 17.4115 13.1875 17.4375H12.5625C12.1719 17.4115 11.9635 17.2031 11.9375 16.8125V16.1875ZM12.5625 12.4375H13.1875C13.5781 12.4635 13.7865 12.6719 13.8125 13.0625V13.6875C13.7865 14.0781 13.5781 14.2865 13.1875 14.3125H12.5625C12.1719 14.2865 11.9635 14.0781 11.9375 13.6875V13.0625C11.9635 12.6719 12.1719 12.4635 12.5625 12.4375ZM15.0625 16.1875C15.0885 15.7969 15.2969 15.5885 15.6875 15.5625H16.3125C16.7031 15.5885 16.9115 15.7969 16.9375 16.1875V16.8125C16.9115 17.2031 16.7031 17.4115 16.3125 17.4375H15.6875C15.2969 17.4115 15.0885 17.2031 15.0625 16.8125V16.1875ZM15.6875 12.4375H16.3125C16.7031 12.4635 16.9115 12.6719 16.9375 13.0625V13.6875C16.9115 14.0781 16.7031 14.2865 16.3125 14.3125H15.6875C15.2969 14.2865 15.0885 14.0781 15.0625 13.6875V13.0625C15.0885 12.6719 15.2969 12.4635 15.6875 12.4375ZM18.1875 16.1875C18.2135 15.7969 18.4219 15.5885 18.8125 15.5625H19.4375C19.8281 15.5885 20.0365 15.7969 20.0625 16.1875V16.8125C20.0365 17.2031 19.8281 17.4115 19.4375 17.4375H18.8125C18.4219 17.4115 18.2135 17.2031 18.1875 16.8125V16.1875ZM18.8125 12.4375H19.4375C19.8281 12.4635 20.0365 12.6719 20.0625 13.0625V13.6875C20.0365 14.0781 19.8281 14.2865 19.4375 14.3125H18.8125C18.4219 14.2865 18.2135 14.0781 18.1875 13.6875V13.0625C18.2135 12.6719 18.4219 12.4635 18.8125 12.4375ZM21.3125 16.1875C21.3385 15.7969 21.5469 15.5885 21.9375 15.5625H22.5625C22.9531 15.5885 23.1615 15.7969 23.1875 16.1875V16.8125C23.1615 17.2031 22.9531 17.4115 22.5625 17.4375H21.9375C21.5469 17.4115 21.3385 17.2031 21.3125 16.8125V16.1875ZM21.9375 12.4375H22.5625C22.9531 12.4635 23.1615 12.6719 23.1875 13.0625V13.6875C23.1615 14.0781 22.9531 14.2865 22.5625 14.3125H21.9375C21.5469 14.2865 21.3385 14.0781 21.3125 13.6875V13.0625C21.3385 12.6719 21.5469 12.4635 21.9375 12.4375Z" fill="black" fill-opacity="0.72"/>
</g>
</svg>
