<svg width="32" height="32" viewBox="0 0 32 32" fill="none" xmlns="http://www.w3.org/2000/svg">
<g id="standalone / md / euro-sign-md / bold">
<path id="icon" d="M11.6641 15.875H10.6875C10.1146 15.8229 9.80208 15.5104 9.75 14.9375C9.80208 14.3646 10.1146 14.0521 10.6875 14H11.9766C12.5495 12.151 13.5911 10.6536 15.1016 9.50781C16.612 8.36198 18.3698 7.77604 20.375 7.75H21.3125C21.8854 7.80208 22.1979 8.11458 22.25 8.6875C22.1979 9.26042 21.8854 9.57292 21.3125 9.625H20.375C18.8906 9.65104 17.5885 10.0547 16.4688 10.8359C15.3229 11.6432 14.4896 12.6979 13.9688 14H20.0625C20.6354 14.0521 20.9479 14.3646 21 14.9375C20.9479 15.5104 20.6354 15.8229 20.0625 15.875H13.5391C13.513 16.0833 13.5 16.2917 13.5 16.5C13.5 16.7083 13.513 16.9167 13.5391 17.125H20.0625C20.6354 17.1771 20.9479 17.4896 21 18.0625C20.9479 18.6354 20.6354 18.9479 20.0625 19H13.9688C14.4896 20.3021 15.3229 21.3568 16.4688 22.1641C17.5885 22.9453 18.8906 23.349 20.375 23.375H21.3125C21.8854 23.4271 22.1979 23.7396 22.25 24.3125C22.1979 24.8854 21.8854 25.1979 21.3125 25.25H20.375C18.3698 25.224 16.612 24.638 15.1016 23.4922C13.5911 22.3464 12.5495 20.849 11.9766 19H10.6875C10.1146 18.9479 9.80208 18.6354 9.75 18.0625C9.80208 17.4896 10.1146 17.1771 10.6875 17.125H11.6641C11.638 16.9167 11.625 16.7083 11.625 16.5C11.625 16.2917 11.638 16.0833 11.6641 15.875Z" fill="black" fill-opacity="0.72"/>
</g>
</svg>
