<svg width="32" height="32" viewBox="0 0 32 32" fill="none" xmlns="http://www.w3.org/2000/svg">
<g id="standalone / md / file-shield-md / bold">
<path id="icon" d="M7.25 24.625H16.8984C17.3151 25.1979 17.8229 25.7188 18.4219 26.1875C18.0833 26.3958 17.6927 26.5 17.25 26.5H7.25C6.54688 26.474 5.96094 26.2266 5.49219 25.7578C5.02344 25.2891 4.77604 24.7031 4.75 24V9C4.77604 8.29688 5.02344 7.71094 5.49219 7.24219C5.96094 6.77344 6.54688 6.52604 7.25 6.5H13.7344C14.4115 6.5 14.9974 6.7474 15.4922 7.24219L19.0078 10.7578C19.5026 11.2526 19.75 11.8516 19.75 12.5547V14.5859L17.875 15.3281V12.75H14.75C14.3854 12.75 14.0859 12.6328 13.8516 12.3984C13.6172 12.1641 13.5 11.8646 13.5 11.5V8.375H7.25C6.85938 8.40104 6.65104 8.60938 6.625 9V24C6.65104 24.3906 6.85938 24.599 7.25 24.625ZM21.2734 15.3281C21.5078 15.224 21.7422 15.224 21.9766 15.3281L26.6641 17.2031C27.0286 17.3594 27.224 17.6458 27.25 18.0625C27.276 18.9219 27.1328 19.8854 26.8203 20.9531C26.5339 22.0208 26.013 23.0495 25.2578 24.0391C24.4766 25.0286 23.3828 25.8229 21.9766 26.4219C21.7422 26.526 21.5078 26.526 21.2734 26.4219C19.8672 25.8229 18.7734 25.0286 17.9922 24.0391C17.237 23.0495 16.7161 22.0208 16.4297 20.9531C16.1172 19.8854 15.974 18.9219 16 18.0625C16.026 17.6458 16.2214 17.3594 16.5859 17.2031L21.2734 15.3281ZM25.3359 18.6875L21.625 17.2031V24.5469C22.9271 23.8438 23.8646 22.9453 24.4375 21.8516C24.9844 20.7839 25.2839 19.7292 25.3359 18.6875Z" fill="black" fill-opacity="0.72"/>
</g>
</svg>
