<svg width="32" height="32" viewBox="0 0 32 32" fill="none" xmlns="http://www.w3.org/2000/svg">
<g id="standalone / md / linkedin-md">
<path id="icon" d="M23.5 7.75C23.8646 7.75 24.1641 7.86719 24.3984 8.10156C24.6328 8.36198 24.75 8.66146 24.75 9V24C24.75 24.3385 24.6328 24.638 24.3984 24.8984C24.1641 25.1328 23.8646 25.25 23.5 25.25H8.5C8.13542 25.25 7.83594 25.1328 7.60156 24.8984C7.36719 24.638 7.25 24.3385 7.25 24V9C7.25 8.66146 7.36719 8.36198 7.60156 8.10156C7.83594 7.86719 8.13542 7.75 8.5 7.75H23.5ZM12.5234 22.75H12.5625V14.3906H9.94531V22.75H12.5234ZM11.2344 13.2578C11.6771 13.2578 12.0286 13.1146 12.2891 12.8281C12.5755 12.5417 12.7318 12.1901 12.7578 11.7734C12.7318 11.3307 12.5755 10.9661 12.2891 10.6797C12.0286 10.3932 11.6771 10.25 11.2344 10.25C10.8177 10.25 10.4661 10.3932 10.1797 10.6797C9.89323 10.9661 9.75 11.3307 9.75 11.7734C9.75 12.1901 9.89323 12.5417 10.1797 12.8281C10.4661 13.1146 10.8177 13.2578 11.2344 13.2578ZM22.25 22.75V18.1797C22.3021 17.0339 22.1198 16.0833 21.7031 15.3281C21.2865 14.599 20.4401 14.2214 19.1641 14.1953C18.513 14.1953 17.9792 14.3385 17.5625 14.625C17.1458 14.8854 16.8594 15.1849 16.7031 15.5234H16.6641V14.3906H14.1641V22.75H16.7812V18.6094C16.7552 18.0365 16.8333 17.5417 17.0156 17.125C17.224 16.7083 17.6536 16.487 18.3047 16.4609C18.9557 16.513 19.3464 16.7604 19.4766 17.2031C19.6328 17.6719 19.6979 18.1667 19.6719 18.6875V22.75H22.25Z" fill="black" fill-opacity="0.72"/>
</g>
</svg>
