<svg width="32" height="32" viewBox="0 0 32 32" fill="none" xmlns="http://www.w3.org/2000/svg">
<g id="standalone / md / circle-sort-up-md / bold">
<path id="icon" d="M24.125 16.5C24.125 15.0156 23.7604 13.6615 23.0312 12.4375C22.3281 11.2135 21.3385 10.224 20.0625 9.46875C18.7865 8.73958 17.4323 8.375 16 8.375C14.5677 8.375 13.2135 8.73958 11.9375 9.46875C10.6615 10.224 9.67188 11.2135 8.96875 12.4375C8.23958 13.6615 7.875 15.0156 7.875 16.5C7.875 17.9844 8.23958 19.3385 8.96875 20.5625C9.67188 21.7865 10.6615 22.776 11.9375 23.5312C13.2135 24.2604 14.5677 24.625 16 24.625C17.4323 24.625 18.7865 24.2604 20.0625 23.5312C21.3385 22.776 22.3281 21.7865 23.0312 20.5625C23.7604 19.3385 24.125 17.9844 24.125 16.5ZM6 16.5C6.02604 14.6771 6.46875 13.0104 7.32812 11.5C8.21354 9.98958 9.4375 8.76562 11 7.82812C12.5885 6.94271 14.2552 6.5 16 6.5C17.7448 6.5 19.4115 6.94271 21 7.82812C22.5625 8.76562 23.7865 9.98958 24.6719 11.5C25.5312 13.0104 25.974 14.6771 26 16.5C25.974 18.3229 25.5312 19.9896 24.6719 21.5C23.7865 23.0104 22.5625 24.2344 21 25.1719C19.4115 26.0573 17.7448 26.5 16 26.5C14.2552 26.5 12.5885 26.0573 11 25.1719C9.4375 24.2344 8.21354 23.0104 7.32812 21.5C6.46875 19.9896 6.02604 18.3229 6 16.5ZM16.4297 10.4453L20.1797 14.1953C20.362 14.3776 20.4141 14.599 20.3359 14.8594C20.2057 15.0938 20.0104 15.224 19.75 15.25H12.25C11.9896 15.25 11.7943 15.1198 11.6641 14.8594C11.5859 14.599 11.638 14.3776 11.8203 14.1953L15.5703 10.4453C15.8568 10.1849 16.1432 10.1849 16.4297 10.4453ZM16.4297 22.5547C16.1432 22.8151 15.8568 22.8151 15.5703 22.5547L11.8203 18.8047C11.638 18.6224 11.5859 18.401 11.6641 18.1406C11.7943 17.9062 11.9896 17.776 12.25 17.75H19.75C20.0104 17.75 20.2057 17.8802 20.3359 18.1406C20.4141 18.401 20.362 18.6224 20.1797 18.8047L16.4297 22.5547ZM18.2266 19H13.7734L16 21.2266L18.2266 19Z" fill="black" fill-opacity="0.72"/>
</g>
</svg>
