<svg width="32" height="32" viewBox="0 0 32 32" fill="none" xmlns="http://www.w3.org/2000/svg">
<g id="standalone / md / bars-md / bold">
<path id="icon" d="M7.25 9.9375C7.30208 9.36458 7.61458 9.05208 8.1875 9H23.8125C24.3854 9.05208 24.6979 9.36458 24.75 9.9375C24.6979 10.5104 24.3854 10.8229 23.8125 10.875H8.1875C7.61458 10.8229 7.30208 10.5104 7.25 9.9375ZM7.25 16.1875C7.30208 15.6146 7.61458 15.3021 8.1875 15.25H23.8125C24.3854 15.3021 24.6979 15.6146 24.75 16.1875C24.6979 16.7604 24.3854 17.0729 23.8125 17.125H8.1875C7.61458 17.0729 7.30208 16.7604 7.25 16.1875ZM24.75 22.4375C24.6979 23.0104 24.3854 23.3229 23.8125 23.375H8.1875C7.61458 23.3229 7.30208 23.0104 7.25 22.4375C7.30208 21.8646 7.61458 21.5521 8.1875 21.5H23.8125C24.3854 21.5521 24.6979 21.8646 24.75 22.4375Z" fill="black" fill-opacity="0.72"/>
</g>
</svg>
