<svg width="32" height="32" viewBox="0 0 32 32" fill="none" xmlns="http://www.w3.org/2000/svg">
<g id="standalone / md / chevrons-down-md / bold">
<path id="icon" d="M15.3359 24.6641L7.83594 17.1641C7.47135 16.7214 7.47135 16.2786 7.83594 15.8359C8.27865 15.4714 8.72135 15.4714 9.16406 15.8359L16 22.6719L22.8359 15.8359C23.2786 15.4714 23.7214 15.4714 24.1641 15.8359C24.5286 16.2786 24.5286 16.7214 24.1641 17.1641L16.6641 24.6641C16.2214 25.0286 15.7786 25.0286 15.3359 24.6641ZM7.83594 9.66406C7.47135 9.22135 7.47135 8.77865 7.83594 8.33594C8.27865 7.97135 8.72135 7.97135 9.16406 8.33594L16 15.1719L22.8359 8.33594C23.2786 7.97135 23.7214 7.97135 24.1641 8.33594C24.5286 8.77865 24.5286 9.22135 24.1641 9.66406L16.6641 17.1641C16.2214 17.5286 15.7786 17.5286 15.3359 17.1641L7.83594 9.66406Z" fill="black" fill-opacity="0.72"/>
</g>
</svg>
