<svg width="32" height="32" viewBox="0 0 32 32" fill="none" xmlns="http://www.w3.org/2000/svg">
<g id="standalone / md / telegram-md">
<path id="icon" d="M16 6.8125C17.7969 6.83854 19.4245 7.28125 20.8828 8.14062C22.3411 9 23.5 10.1589 24.3594 11.6172C25.2188 13.0755 25.6615 14.7031 25.6875 16.5C25.6615 18.2969 25.2188 19.9245 24.3594 21.3828C23.5 22.8411 22.3411 24 20.8828 24.8594C19.4245 25.7188 17.7969 26.1615 16 26.1875C14.2031 26.1615 12.5755 25.7188 11.1172 24.8594C9.65885 24 8.5 22.8411 7.64062 21.3828C6.78125 19.9245 6.33854 18.2969 6.3125 16.5C6.33854 14.7031 6.78125 13.0755 7.64062 11.6172C8.5 10.1589 9.65885 9 11.1172 8.14062C12.5755 7.28125 14.2031 6.83854 16 6.8125ZM20.4922 13.4141C20.4922 13.2839 20.4922 13.1536 20.4922 13.0234C20.4661 12.9193 20.4141 12.8281 20.3359 12.75C20.2057 12.6719 20.0755 12.6328 19.9453 12.6328C19.8151 12.6328 19.5026 12.724 19.0078 12.9062C18.5391 13.0625 17.6536 13.4141 16.3516 13.9609C15.4141 14.3516 13.526 15.1589 10.6875 16.3828C10.2448 16.5651 10.0104 16.7474 9.98438 16.9297C9.98438 17.1901 10.2578 17.3854 10.8047 17.5156C10.8828 17.5156 10.9609 17.5286 11.0391 17.5547C11.2734 17.6589 11.5339 17.737 11.8203 17.7891C12.1068 17.8672 12.3411 17.9062 12.5234 17.9062C12.8359 17.9323 13.1875 17.8151 13.5781 17.5547C16.2083 15.7578 17.5755 14.8464 17.6797 14.8203C17.7318 14.7943 17.7969 14.8073 17.875 14.8594C17.9271 14.9375 17.9401 14.9896 17.9141 15.0156C17.862 15.1458 17.5755 15.4453 17.0547 15.9141C16.5599 16.4089 16.1042 16.8516 15.6875 17.2422C15.4271 17.4505 15.2839 17.5807 15.2578 17.6328C15.1797 17.7109 15.1016 17.7891 15.0234 17.8672C14.763 18.0755 14.6068 18.2839 14.5547 18.4922C14.4766 18.6745 14.6328 18.9089 15.0234 19.1953C15.4141 19.4297 15.7656 19.651 16.0781 19.8594C16.3906 20.0938 16.7682 20.3542 17.2109 20.6406C17.3151 20.7188 17.4193 20.7969 17.5234 20.875C17.9141 21.1875 18.3177 21.3438 18.7344 21.3438C19.0208 21.3698 19.2422 21.0443 19.3984 20.3672C19.5026 19.7682 19.6328 19.026 19.7891 18.1406C19.9453 17.2552 20.0885 16.3828 20.2188 15.5234C20.349 14.638 20.4401 13.9349 20.4922 13.4141Z" fill="black" fill-opacity="0.72"/>
</g>
</svg>
