<svg width="32" height="32" viewBox="0 0 32 32" fill="none" xmlns="http://www.w3.org/2000/svg">
<g id="standalone / md / trash-md / regular">
<path id="icon" d="M14.2031 7.75C13.9688 7.75 13.7865 7.85417 13.6562 8.0625L13.0703 9H18.9297L18.3438 8.0625C18.2135 7.85417 18.0312 7.75 17.7969 7.75H14.2031ZM20.4141 9H22.25H23.5H24.125C24.5156 9.02604 24.724 9.23438 24.75 9.625C24.724 10.0156 24.5156 10.224 24.125 10.25H23.4219L22.4062 24.1953C22.3542 24.8464 22.0938 25.3932 21.625 25.8359C21.1562 26.2526 20.5833 26.474 19.9062 26.5H12.0938C11.4167 26.474 10.8438 26.2526 10.375 25.8359C9.90625 25.3932 9.64583 24.8464 9.59375 24.1953L8.57812 10.25H7.875C7.48438 10.224 7.27604 10.0156 7.25 9.625C7.27604 9.23438 7.48438 9.02604 7.875 9H8.5H9.75H11.5859L12.6016 7.39844C12.9922 6.82552 13.526 6.52604 14.2031 6.5H17.7969C18.474 6.52604 19.0078 6.82552 19.3984 7.39844L20.4141 9ZM22.1719 10.25H9.82812L10.8438 24.0781C10.8698 24.4167 11 24.6901 11.2344 24.8984C11.4688 25.1328 11.7552 25.25 12.0938 25.25H19.9062C20.2448 25.25 20.5312 25.1328 20.7656 24.8984C21 24.6901 21.1302 24.4167 21.1562 24.0781L22.1719 10.25Z" fill="black" fill-opacity="0.72"/>
</g>
</svg>
