<svg width="32" height="32" viewBox="0 0 32 32" fill="none" xmlns="http://www.w3.org/2000/svg">
<g id="standalone / md / circle-info-md / regular">
<path id="icon" d="M16 7.75C14.4115 7.77604 12.9531 8.16667 11.625 8.92188C10.2969 9.70312 9.22917 10.7708 8.42188 12.125C7.64062 13.5052 7.25 14.9635 7.25 16.5C7.25 18.0365 7.64062 19.4948 8.42188 20.875C9.22917 22.2292 10.2969 23.2969 11.625 24.0781C12.9531 24.8333 14.4115 25.224 16 25.25C17.5885 25.224 19.0469 24.8333 20.375 24.0781C21.7031 23.2969 22.7708 22.2292 23.5781 20.875C24.3594 19.4948 24.75 18.0365 24.75 16.5C24.75 14.9635 24.3594 13.5052 23.5781 12.125C22.7708 10.7708 21.7031 9.70312 20.375 8.92188C19.0469 8.16667 17.5885 7.77604 16 7.75ZM16 26.5C14.1771 26.474 12.5104 26.0312 11 25.1719C9.48958 24.2865 8.26562 23.0625 7.32812 21.5C6.44271 19.9115 6 18.2448 6 16.5C6 14.7552 6.44271 13.0885 7.32812 11.5C8.26562 9.9375 9.48958 8.71354 11 7.82812C12.5104 6.96875 14.1771 6.52604 16 6.5C17.8229 6.52604 19.4896 6.96875 21 7.82812C22.5104 8.71354 23.7344 9.9375 24.6719 11.5C25.5573 13.0885 26 14.7552 26 16.5C26 18.2448 25.5573 19.9115 24.6719 21.5C23.7344 23.0625 22.5104 24.2865 21 25.1719C19.4896 26.0312 17.8229 26.474 16 26.5ZM14.125 20.25H15.375V16.5H14.4375C14.0469 16.474 13.8385 16.2656 13.8125 15.875C13.8385 15.4844 14.0469 15.276 14.4375 15.25H16C16.3906 15.276 16.599 15.4844 16.625 15.875V20.25H17.875C18.2656 20.276 18.474 20.4844 18.5 20.875C18.474 21.2656 18.2656 21.474 17.875 21.5H14.125C13.7344 21.474 13.526 21.2656 13.5 20.875C13.526 20.4844 13.7344 20.276 14.125 20.25ZM16 13.6875C15.4271 13.6354 15.1146 13.3229 15.0625 12.75C15.1146 12.1771 15.4271 11.8646 16 11.8125C16.5729 11.8646 16.8854 12.1771 16.9375 12.75C16.8854 13.3229 16.5729 13.6354 16 13.6875Z" fill="black" fill-opacity="0.72"/>
</g>
</svg>
