<svg width="32" height="32" viewBox="0 0 32 32" fill="none" xmlns="http://www.w3.org/2000/svg">
<g id="standalone / md / chart-trend-down-md / regular">
<path id="icon" d="M27.5234 25.8359C27.2109 25.9922 26.8203 25.875 26.6641 25.5625L23.1094 18.375H17.25C16.9766 18.375 16.7812 18.2578 16.6641 18.0625L11.9375 8.60938L5.02344 12.0859C4.71094 12.2422 4.32031 12.0859 4.16406 11.8125C4.00781 11.5 4.125 11.1094 4.4375 10.9531L11.9375 7.20312C12.25 7.04688 12.6406 7.16406 12.7969 7.47656L17.6016 17.125H23.5C23.7344 17.125 23.9297 17.2812 24.0469 17.4766L27.7969 24.9766C27.9531 25.2891 27.8359 25.6797 27.5234 25.8359Z" fill="black" fill-opacity="0.72"/>
</g>
</svg>
