<svg width="32" height="32" viewBox="0 0 32 32" fill="none" xmlns="http://www.w3.org/2000/svg">
<g id="standalone / md / light-chart-line-up-down-clock-md / regular">
<path id="icon" d="M3.5 8.375C3.5 8.0625 3.77344 7.75 4.125 7.75C4.4375 7.75 4.75 8.0625 4.75 8.375C4.75 12.9844 4.75 17.5547 4.75 22.125C4.75 23.1797 5.57031 24 6.625 24C9.98438 24 13.3438 24 16.7422 24C16.9766 24.4688 17.25 24.8984 17.5625 25.25C13.8906 25.25 10.2578 25.25 6.625 25.25C4.86719 25.25 3.5 23.8828 3.5 22.125C3.5 17.5547 3.5 12.9844 3.5 8.375ZM7.40625 16.6953L11.1562 12.9453C11.2734 12.8281 11.4297 12.75 11.625 12.75C11.7812 12.75 11.9375 12.8281 12.0547 12.9453C12.9531 13.8438 13.8516 14.7422 14.75 15.6406C16.5078 13.8438 18.3047 12.0469 20.1016 10.25C19.3594 10.25 18.6172 10.25 17.875 10.25C17.5234 10.25 17.25 9.97656 17.25 9.625C17.25 9.3125 17.5234 9 17.875 9C19.125 9 20.375 9 21.625 9C21.9375 9 22.25 9.3125 22.25 9.625C22.25 10.875 22.25 12.125 22.25 13.375C22.25 13.7266 21.9375 14 21.625 14C21.2734 14 21 13.7266 21 13.375C21 12.6328 21 11.8906 21 11.1484C19.0469 13.1016 17.0938 15.0156 15.1797 16.9688C14.9453 17.2031 14.5156 17.2031 14.2812 16.9688C13.3828 16.0703 12.4844 15.1719 11.625 14.2734C10.4922 15.3672 9.39844 16.5 8.30469 17.5938C8.07031 17.8281 7.64062 17.8281 7.40625 17.5938C7.17188 17.3594 7.17188 16.9297 7.40625 16.6953ZM17.25 20.875C17.25 17.7891 19.75 15.25 22.875 15.25C25.9609 15.25 28.5 17.7891 28.5 20.875C28.5 24 25.9609 26.5 22.875 26.5C19.75 26.5 17.25 24 17.25 20.875ZM18.5 20.875C18.5 23.2969 20.4531 25.25 22.875 25.25C25.2578 25.25 27.25 23.2969 27.25 20.875C27.25 18.4922 25.2578 16.5 22.875 16.5C20.4531 16.5 18.5 18.4922 18.5 20.875ZM22.25 18.375C22.25 18.0625 22.5234 17.75 22.875 17.75C23.1875 17.75 23.5 18.0625 23.5 18.375C23.5 19 23.5 19.625 23.5 20.25C23.8906 20.25 24.3203 20.25 24.75 20.25C25.0625 20.25 25.375 20.5625 25.375 20.875C25.375 21.2266 25.0625 21.5 24.75 21.5C24.125 21.5 23.5 21.5 22.875 21.5C22.5234 21.5 22.25 21.2266 22.25 20.875V18.375Z" fill="black" fill-opacity="0.72"/>
</g>
</svg>
