<svg width="32" height="32" viewBox="0 0 32 32" fill="none" xmlns="http://www.w3.org/2000/svg">
<g id="standalone / md / arrow-up-from-bracket-md / bold">
<path id="icon" d="M16.6641 6.77344L21.6641 11.7734C22.0286 12.2161 22.0286 12.6589 21.6641 13.1016C21.2214 13.4661 20.7786 13.4661 20.3359 13.1016L16.9375 9.70312V19.3125C16.8854 19.8854 16.5729 20.1979 16 20.25C15.4271 20.1979 15.1146 19.8854 15.0625 19.3125V9.70312L11.6641 13.1016C11.2214 13.4661 10.7786 13.4661 10.3359 13.1016C9.97135 12.6589 9.97135 12.2161 10.3359 11.7734L15.3359 6.77344C15.7786 6.40885 16.2214 6.40885 16.6641 6.77344ZM9.125 19.9375V23.0625C9.125 23.5052 9.28125 23.8698 9.59375 24.1562C9.88021 24.4688 10.2448 24.625 10.6875 24.625H21.3125C21.7552 24.625 22.1198 24.4688 22.4062 24.1562C22.7188 23.8698 22.875 23.5052 22.875 23.0625V19.9375C22.9271 19.3646 23.2396 19.0521 23.8125 19C24.3854 19.0521 24.6979 19.3646 24.75 19.9375V23.0625C24.724 24.026 24.3854 24.8333 23.7344 25.4844C23.0833 26.1354 22.276 26.474 21.3125 26.5H10.6875C9.72396 26.474 8.91667 26.1354 8.26562 25.4844C7.61458 24.8333 7.27604 24.026 7.25 23.0625V19.9375C7.30208 19.3646 7.61458 19.0521 8.1875 19C8.76042 19.0521 9.07292 19.3646 9.125 19.9375Z" fill="black" fill-opacity="0.72"/>
</g>
</svg>
