<svg width="32" height="32" viewBox="0 0 32 32" fill="none" xmlns="http://www.w3.org/2000/svg">
<g id="standalone / md / triangle-exclamation-md / bold">
<path id="icon" d="M15.6875 9.78125L7.95312 22.5156C7.90104 22.5938 7.875 22.6979 7.875 22.8281C7.90104 23.1667 8.09635 23.349 8.46094 23.375H23.5781C23.9167 23.349 24.099 23.1667 24.125 22.8281C24.125 22.724 24.099 22.6198 24.0469 22.5156L16.3125 9.78125C16.2344 9.67708 16.1302 9.625 16 9.625C15.8698 9.625 15.7656 9.67708 15.6875 9.78125ZM14.0859 8.80469C14.5547 8.1276 15.1927 7.77604 16 7.75C16.8333 7.77604 17.4714 8.1276 17.9141 8.80469L25.6484 21.5391C25.8828 21.9297 26 22.3594 26 22.8281C25.974 23.5052 25.7396 24.0781 25.2969 24.5469C24.8281 24.9896 24.2552 25.224 23.5781 25.25H8.46094C7.75781 25.224 7.17188 24.9896 6.70312 24.5469C6.26042 24.0781 6.02604 23.5052 6 22.8281C6 22.3594 6.11719 21.9297 6.35156 21.5391L14.0859 8.80469ZM17.25 20.875C17.25 21.2396 17.1328 21.5391 16.8984 21.7734C16.6641 22.0078 16.3646 22.125 16 22.125C15.6354 22.125 15.3359 22.0078 15.1016 21.7734C14.8672 21.5391 14.75 21.2396 14.75 20.875C14.75 20.5104 14.8672 20.2109 15.1016 19.9766C15.3359 19.7422 15.6354 19.625 16 19.625C16.3646 19.625 16.6641 19.7422 16.8984 19.9766C17.1328 20.2109 17.25 20.5104 17.25 20.875ZM16.9375 13.6875V17.4375C16.8854 18.0104 16.5729 18.3229 16 18.375C15.4271 18.3229 15.1146 18.0104 15.0625 17.4375V13.6875C15.1146 13.1146 15.4271 12.8021 16 12.75C16.5729 12.8021 16.8854 13.1146 16.9375 13.6875Z" fill="black" fill-opacity="0.72"/>
</g>
</svg>
