<svg width="32" height="32" viewBox="0 0 32 32" fill="none" xmlns="http://www.w3.org/2000/svg">
<g id="standalone / md / five-md / regular">
<path id="icon" d="M11.6641 8.21875C11.7422 7.93229 11.9375 7.77604 12.25 7.75H20.375C20.7656 7.77604 20.974 7.98438 21 8.375C20.974 8.76562 20.7656 8.97396 20.375 9H12.7578L11.1953 15.25H17.25C18.6562 15.276 19.8411 15.7578 20.8047 16.6953C21.7422 17.6589 22.224 18.8438 22.25 20.25C22.224 21.6562 21.7422 22.8411 20.8047 23.8047C19.8411 24.7422 18.6562 25.224 17.25 25.25H13.0703C12.3932 25.25 11.7812 25.0807 11.2344 24.7422C10.6875 24.4036 10.2708 23.9349 9.98438 23.3359L9.82812 23.0234C9.67188 22.6849 9.76302 22.4115 10.1016 22.2031C10.4661 22.0469 10.7396 22.138 10.9219 22.4766L11.1172 22.7891C11.5339 23.5703 12.1849 23.974 13.0703 24H17.25C18.3177 23.974 19.2031 23.6094 19.9062 22.9062C20.6094 22.2031 20.974 21.3177 21 20.25C20.974 19.1823 20.6094 18.2969 19.9062 17.5938C19.2031 16.8906 18.3177 16.526 17.25 16.5H10.375C10.1667 16.5 9.9974 16.4219 9.86719 16.2656C9.76302 16.1094 9.72396 15.9271 9.75 15.7188L11.6641 8.21875Z" fill="black" fill-opacity="0.72"/>
</g>
</svg>
