<svg width="32" height="32" viewBox="0 0 32 32" fill="none" xmlns="http://www.w3.org/2000/svg">
<g id="standalone / md / table-layout-md / regular">
<path id="icon" d="M23.5 9H8.5C8.13542 9 7.83594 9.11719 7.60156 9.35156C7.36719 9.58594 7.25 9.88542 7.25 10.25V12.75H24.75V10.25C24.75 9.88542 24.6328 9.58594 24.3984 9.35156C24.1641 9.11719 23.8646 9 23.5 9ZM7.25 22.75C7.25 23.1146 7.36719 23.4141 7.60156 23.6484C7.83594 23.8828 8.13542 24 8.5 24H12.25V14H7.25V22.75ZM13.5 24H23.5C23.8646 24 24.1641 23.8828 24.3984 23.6484C24.6328 23.4141 24.75 23.1146 24.75 22.75V14H13.5V24ZM8.5 7.75H23.5C24.2031 7.77604 24.7891 8.02344 25.2578 8.49219C25.7266 8.96094 25.974 9.54688 26 10.25V22.75C25.974 23.4531 25.7266 24.0391 25.2578 24.5078C24.7891 24.9766 24.2031 25.224 23.5 25.25H8.5C7.79688 25.224 7.21094 24.9766 6.74219 24.5078C6.27344 24.0391 6.02604 23.4531 6 22.75V10.25C6.02604 9.54688 6.27344 8.96094 6.74219 8.49219C7.21094 8.02344 7.79688 7.77604 8.5 7.75Z" fill="black" fill-opacity="0.72"/>
</g>
</svg>
