<svg width="32" height="32" viewBox="0 0 32 32" fill="none" xmlns="http://www.w3.org/2000/svg">
<g id="standalone / md / right-to-bracket-md / bold">
<path id="icon" d="M13.5 20.7969L17.7969 16.5L13.5 12.2031V14.3125C13.4479 14.8854 13.1354 15.1979 12.5625 15.25H7.875V17.75H12.5625C13.1354 17.8021 13.4479 18.1146 13.5 18.6875V20.7969ZM19.75 16.5C19.75 16.9688 19.5807 17.3724 19.2422 17.7109L14.7109 22.2031C14.3724 22.5677 13.9427 22.75 13.4219 22.75C12.9271 22.75 12.5104 22.5677 12.1719 22.2031C11.8333 21.8646 11.651 21.4479 11.625 20.9531V19.625H7.875C7.35417 19.599 6.91146 19.4167 6.54688 19.0781C6.20833 18.7135 6.02604 18.2708 6 17.75V15.25C6.02604 14.7292 6.20833 14.2865 6.54688 13.9219C6.91146 13.5833 7.35417 13.401 7.875 13.375H11.625V12.0469C11.651 11.5521 11.8333 11.1354 12.1719 10.7969C12.5104 10.4323 12.9271 10.25 13.4219 10.25C13.9167 10.25 14.3464 10.4323 14.7109 10.7969L19.2422 15.2891C19.5807 15.6276 19.75 16.0312 19.75 16.5ZM19.4375 23.375H22.5625C23.0052 23.375 23.3698 23.2188 23.6562 22.9062C23.9688 22.6198 24.125 22.2552 24.125 21.8125V11.1875C24.125 10.7448 23.9688 10.3802 23.6562 10.0938C23.3698 9.78125 23.0052 9.625 22.5625 9.625H19.4375C18.8646 9.57292 18.5521 9.26042 18.5 8.6875C18.5521 8.11458 18.8646 7.80208 19.4375 7.75H22.5625C23.526 7.77604 24.3333 8.11458 24.9844 8.76562C25.6354 9.41667 25.974 10.224 26 11.1875V21.8125C25.974 22.776 25.6354 23.5833 24.9844 24.2344C24.3333 24.8854 23.526 25.224 22.5625 25.25H19.4375C18.8646 25.1979 18.5521 24.8854 18.5 24.3125C18.5521 23.7396 18.8646 23.4271 19.4375 23.375Z" fill="black" fill-opacity="0.72"/>
</g>
</svg>
