<svg width="32" height="32" viewBox="0 0 32 32" fill="none" xmlns="http://www.w3.org/2000/svg">
<g id="standalone / md / trash-md / bold">
<path id="icon" d="M14.1641 8.375C14.0599 8.375 13.9818 8.42708 13.9297 8.53125L13.1875 9.625H18.8516L18.1094 8.53125C18.0312 8.42708 17.9401 8.375 17.8359 8.375H14.1641ZM21.0781 9.625H21.625H23.5H23.8125C24.3854 9.67708 24.6979 9.98958 24.75 10.5625C24.6979 11.1354 24.3854 11.4479 23.8125 11.5H23.3438L22.4062 24.1953C22.3542 24.8464 22.0938 25.3932 21.625 25.8359C21.1562 26.2526 20.5964 26.474 19.9453 26.5H12.0547C11.4036 26.474 10.8438 26.2526 10.375 25.8359C9.90625 25.3932 9.64583 24.8464 9.59375 24.1953L8.65625 11.5H8.1875C7.61458 11.4479 7.30208 11.1354 7.25 10.5625C7.30208 9.98958 7.61458 9.67708 8.1875 9.625H8.5H10.375H10.9219L12.3672 7.47656C12.8099 6.85156 13.4089 6.52604 14.1641 6.5H17.8359C18.5911 6.52604 19.2031 6.85156 19.6719 7.47656L21.0781 9.625ZM21.4688 11.5H10.5312L11.4297 24.0391C11.5078 24.4036 11.7161 24.599 12.0547 24.625H19.9453C20.2839 24.599 20.4922 24.4036 20.5703 24.0391L21.4688 11.5Z" fill="black" fill-opacity="0.72"/>
</g>
</svg>
