<svg width="32" height="32" viewBox="0 0 32 32" fill="none" xmlns="http://www.w3.org/2000/svg">
<g id="standalone / md / cash-register-md / bold">
<path id="icon" d="M8.5 6.5H17.25C17.6146 6.5 17.9141 6.61719 18.1484 6.85156C18.3828 7.08594 18.5 7.38542 18.5 7.75V10.25C18.5 10.6146 18.3828 10.9141 18.1484 11.1484C17.9141 11.3828 17.6146 11.5 17.25 11.5H14.125V12.75H22.5625C23.2135 12.75 23.7604 12.9583 24.2031 13.375C24.6719 13.7656 24.9583 14.2734 25.0625 14.8984L25.9609 21.3438C25.987 21.4479 26 21.5651 26 21.6953V24C25.974 24.7031 25.7266 25.2891 25.2578 25.7578C24.7891 26.2266 24.2031 26.474 23.5 26.5H8.5C7.79688 26.474 7.21094 26.2266 6.74219 25.7578C6.27344 25.2891 6.02604 24.7031 6 24V21.6953C6 21.6172 6 21.5521 6 21.5C6 21.4479 6.01302 21.3958 6.03906 21.3438L6.9375 14.8984C7.04167 14.2734 7.32812 13.7656 7.79688 13.375C8.23958 12.9583 8.78646 12.75 9.4375 12.75H11.625V11.5H8.5C8.13542 11.5 7.83594 11.3828 7.60156 11.1484C7.36719 10.9141 7.25 10.6146 7.25 10.25V7.75C7.25 7.38542 7.36719 7.08594 7.60156 6.85156C7.83594 6.61719 8.13542 6.5 8.5 6.5ZM9.75 8.375C9.35938 8.40104 9.15104 8.60938 9.125 9C9.15104 9.39062 9.35938 9.59896 9.75 9.625H16C16.3906 9.59896 16.599 9.39062 16.625 9C16.599 8.60938 16.3906 8.40104 16 8.375H9.75ZM7.875 24C7.90104 24.3906 8.10938 24.599 8.5 24.625H23.5C23.8906 24.599 24.099 24.3906 24.125 24V23.375H7.875V24ZM23.1875 15.1719C23.1354 14.8333 22.9401 14.651 22.6016 14.625H9.4375C9.07292 14.651 8.86458 14.8333 8.8125 15.1719L7.91406 21.5H24.125L23.1875 15.1719ZM10.375 15.5625C10.9479 15.6146 11.2604 15.9271 11.3125 16.5C11.2604 17.0729 10.9479 17.3854 10.375 17.4375C9.80208 17.3854 9.48958 17.0729 9.4375 16.5C9.48958 15.9271 9.80208 15.6146 10.375 15.5625ZM13.1875 16.5C13.2396 15.9271 13.5521 15.6146 14.125 15.5625C14.6979 15.6146 15.0104 15.9271 15.0625 16.5C15.0104 17.0729 14.6979 17.3854 14.125 17.4375C13.5521 17.3854 13.2396 17.0729 13.1875 16.5ZM12.25 18.6875C12.8229 18.7396 13.1354 19.0521 13.1875 19.625C13.1354 20.1979 12.8229 20.5104 12.25 20.5625C11.6771 20.5104 11.3646 20.1979 11.3125 19.625C11.3646 19.0521 11.6771 18.7396 12.25 18.6875ZM16.9375 16.5C16.9896 15.9271 17.3021 15.6146 17.875 15.5625C18.4479 15.6146 18.7604 15.9271 18.8125 16.5C18.7604 17.0729 18.4479 17.3854 17.875 17.4375C17.3021 17.3854 16.9896 17.0729 16.9375 16.5ZM16 18.6875C16.5729 18.7396 16.8854 19.0521 16.9375 19.625C16.8854 20.1979 16.5729 20.5104 16 20.5625C15.4271 20.5104 15.1146 20.1979 15.0625 19.625C15.1146 19.0521 15.4271 18.7396 16 18.6875ZM20.6875 16.5C20.7396 15.9271 21.0521 15.6146 21.625 15.5625C22.1979 15.6146 22.5104 15.9271 22.5625 16.5C22.5104 17.0729 22.1979 17.3854 21.625 17.4375C21.0521 17.3854 20.7396 17.0729 20.6875 16.5ZM19.75 18.6875C20.3229 18.7396 20.6354 19.0521 20.6875 19.625C20.6354 20.1979 20.3229 20.5104 19.75 20.5625C19.1771 20.5104 18.8646 20.1979 18.8125 19.625C18.8646 19.0521 19.1771 18.7396 19.75 18.6875Z" fill="black" fill-opacity="0.72"/>
</g>
</svg>
