<svg width="32" height="32" viewBox="0 0 32 32" fill="none" xmlns="http://www.w3.org/2000/svg">
<g id="standalone / md / five-md / bold">
<path id="icon" d="M11 8.53125C11.1302 8.03646 11.4427 7.77604 11.9375 7.75H20.0625C20.6354 7.80208 20.9479 8.11458 21 8.6875C20.9479 9.26042 20.6354 9.57292 20.0625 9.625H12.7188L11.8203 14.9375H17.0938C18.5521 14.9635 19.763 15.4714 20.7266 16.4609C21.7161 17.4245 22.224 18.6354 22.25 20.0938C22.224 21.5521 21.7161 22.763 20.7266 23.7266C19.763 24.7161 18.5521 25.224 17.0938 25.25H13.3828C12.6536 25.25 11.9896 25.0677 11.3906 24.7031C10.7917 24.3385 10.3359 23.8307 10.0234 23.1797L9.82812 22.8672C9.64583 22.3203 9.78906 21.8906 10.2578 21.5781C10.8047 21.3958 11.2214 21.5391 11.5078 22.0078L11.7031 22.3203C12.0677 22.9974 12.6276 23.349 13.3828 23.375H17.0938C18.0312 23.349 18.7995 23.0234 19.3984 22.3984C20.0234 21.7995 20.349 21.0312 20.375 20.0938C20.349 19.1562 20.0234 18.388 19.3984 17.7891C18.7995 17.1641 18.0312 16.8385 17.0938 16.8125H10.6875C10.401 16.8125 10.1667 16.6953 9.98438 16.4609C9.80208 16.2526 9.72396 16.0052 9.75 15.7188L11 8.53125Z" fill="black" fill-opacity="0.72"/>
</g>
</svg>
