<svg width="32" height="32" viewBox="0 0 32 32" fill="none" xmlns="http://www.w3.org/2000/svg">
<g id="standalone / md / chart-mixed-md / regular">
<path id="icon" d="M25.8438 7.94531C26.0781 8.25781 26.0651 8.55729 25.8047 8.84375L18.9297 15.0938C18.6432 15.3021 18.3568 15.2891 18.0703 15.0547L13.4219 10.4453L6.97656 15.1328C6.66406 15.3151 6.3776 15.263 6.11719 14.9766C5.9349 14.6641 5.98698 14.3776 6.27344 14.1172L13.1484 9.11719C13.4349 8.9349 13.6953 8.96094 13.9297 9.19531L18.5391 13.7656L24.9453 7.90625C25.2578 7.67188 25.5573 7.6849 25.8438 7.94531ZM9.125 23.375V20.875C9.09896 20.4844 8.89062 20.276 8.5 20.25C8.10938 20.276 7.90104 20.4844 7.875 20.875V23.375C7.90104 23.7656 8.10938 23.974 8.5 24C8.89062 23.974 9.09896 23.7656 9.125 23.375ZM8.5 19C9.02083 19.026 9.46354 19.2083 9.82812 19.5469C10.1667 19.9115 10.349 20.3542 10.375 20.875V23.375C10.349 23.8958 10.1667 24.3385 9.82812 24.7031C9.46354 25.0417 9.02083 25.224 8.5 25.25C7.97917 25.224 7.53646 25.0417 7.17188 24.7031C6.83333 24.3385 6.65104 23.8958 6.625 23.375V20.875C6.65104 20.3542 6.83333 19.9115 7.17188 19.5469C7.53646 19.2083 7.97917 19.026 8.5 19ZM14.125 17.125C14.099 16.7344 13.8906 16.526 13.5 16.5C13.1094 16.526 12.901 16.7344 12.875 17.125V23.375C12.901 23.7656 13.1094 23.974 13.5 24C13.8906 23.974 14.099 23.7656 14.125 23.375V17.125ZM11.625 17.125C11.651 16.6042 11.8333 16.1615 12.1719 15.7969C12.5365 15.4583 12.9792 15.276 13.5 15.25C14.0208 15.276 14.4635 15.4583 14.8281 15.7969C15.1667 16.1615 15.349 16.6042 15.375 17.125V23.375C15.349 23.8958 15.1667 24.3385 14.8281 24.7031C14.4635 25.0417 14.0208 25.224 13.5 25.25C12.9792 25.224 12.5365 25.0417 12.1719 24.7031C11.8333 24.3385 11.651 23.8958 11.625 23.375V17.125ZM19.125 23.375V19.625C19.099 19.2344 18.8906 19.026 18.5 19C18.1094 19.026 17.901 19.2344 17.875 19.625V23.375C17.901 23.7656 18.1094 23.974 18.5 24C18.8906 23.974 19.099 23.7656 19.125 23.375ZM18.5 17.75C19.0208 17.776 19.4635 17.9583 19.8281 18.2969C20.1667 18.6615 20.349 19.1042 20.375 19.625V23.375C20.349 23.8958 20.1667 24.3385 19.8281 24.7031C19.4635 25.0417 19.0208 25.224 18.5 25.25C17.9792 25.224 17.5365 25.0417 17.1719 24.7031C16.8333 24.3385 16.651 23.8958 16.625 23.375V19.625C16.651 19.1042 16.8333 18.6615 17.1719 18.2969C17.5365 17.9583 17.9792 17.776 18.5 17.75ZM24.125 17.125C24.099 16.7344 23.8906 16.526 23.5 16.5C23.1094 16.526 22.901 16.7344 22.875 17.125V23.375C22.901 23.7656 23.1094 23.974 23.5 24C23.8906 23.974 24.099 23.7656 24.125 23.375V17.125ZM21.625 17.125C21.651 16.6042 21.8333 16.1615 22.1719 15.7969C22.5365 15.4583 22.9792 15.276 23.5 15.25C24.0208 15.276 24.4635 15.4583 24.8281 15.7969C25.1667 16.1615 25.349 16.6042 25.375 17.125V23.375C25.349 23.8958 25.1667 24.3385 24.8281 24.7031C24.4635 25.0417 24.0208 25.224 23.5 25.25C22.9792 25.224 22.5365 25.0417 22.1719 24.7031C21.8333 24.3385 21.651 23.8958 21.625 23.375V17.125Z" fill="black" fill-opacity="0.72"/>
</g>
</svg>
