<svg width="32" height="32" viewBox="0 0 32 32" fill="none" xmlns="http://www.w3.org/2000/svg">
<g id="standalone / md / three-md / regular">
<path id="icon" d="M9.75 8.375C9.77604 7.98438 9.98438 7.77604 10.375 7.75H21C21.2865 7.75 21.4818 7.88021 21.5859 8.14062C21.6641 8.40104 21.612 8.63542 21.4297 8.84375L14.4766 15.25H17.25C18.6562 15.276 19.8411 15.7578 20.8047 16.6953C21.7422 17.6589 22.224 18.8438 22.25 20.25C22.224 21.6562 21.7422 22.8411 20.8047 23.8047C19.8411 24.7422 18.6562 25.224 17.25 25.25H13.2266C12.5234 25.25 11.8724 25.0677 11.2734 24.7031C10.6745 24.3385 10.2188 23.8307 9.90625 23.1797L9.82812 23.0234C9.67188 22.6589 9.76302 22.3854 10.1016 22.2031C10.4401 22.0469 10.7135 22.138 10.9219 22.4766L11 22.6328C11.4948 23.5182 12.237 23.974 13.2266 24H17.25C18.3177 23.974 19.2031 23.6094 19.9062 22.9062C20.6094 22.2031 20.974 21.3177 21 20.25C20.974 19.1823 20.6094 18.2969 19.9062 17.5938C19.2031 16.8906 18.3177 16.526 17.25 16.5H12.875C12.5885 16.5 12.3932 16.3698 12.2891 16.1094C12.2109 15.849 12.263 15.6146 12.4453 15.4062L19.3984 9H10.375C9.98438 8.97396 9.77604 8.76562 9.75 8.375Z" fill="black" fill-opacity="0.72"/>
</g>
</svg>
