<svg width="32" height="32" viewBox="0 0 32 32" fill="none" xmlns="http://www.w3.org/2000/svg">
<g id="standalone / md / two-md / regular">
<path id="icon" d="M15.5312 9C14.3594 9.02604 13.3568 9.44271 12.5234 10.25L11.4297 11.3047C11.1432 11.5651 10.8568 11.5651 10.5703 11.3047C10.3099 11.0182 10.3099 10.7318 10.5703 10.4453L11.625 9.35156C12.7188 8.3099 14.0208 7.77604 15.5312 7.75C17.0677 7.77604 18.3568 8.3099 19.3984 9.35156C20.4141 10.3672 20.9479 11.6432 21 13.1797C20.974 14.7422 20.401 16.0573 19.2812 17.125L11.9766 24H21.625C22.0156 24.026 22.224 24.2344 22.25 24.625C22.224 25.0156 22.0156 25.224 21.625 25.25H10.375C10.0885 25.25 9.89323 25.1198 9.78906 24.8594C9.71094 24.599 9.76302 24.3646 9.94531 24.1562L18.4219 16.2266C19.2812 15.3932 19.724 14.3776 19.75 13.1797C19.724 12.0078 19.3073 11.0182 18.5 10.2109C17.7188 9.42969 16.7292 9.02604 15.5312 9Z" fill="black" fill-opacity="0.72"/>
</g>
</svg>
