<svg width="32" height="32" viewBox="0 0 32 32" fill="none" xmlns="http://www.w3.org/2000/svg">
<g id="standalone / md / circle-three-md / bold">
<path id="icon" d="M16 8.375C14.5156 8.375 13.1615 8.73958 11.9375 9.46875C10.7135 10.1719 9.72396 11.1615 8.96875 12.4375C8.23958 13.7135 7.875 15.0677 7.875 16.5C7.875 17.9323 8.23958 19.2865 8.96875 20.5625C9.72396 21.8385 10.7135 22.8281 11.9375 23.5312C13.1615 24.2604 14.5156 24.625 16 24.625C17.4844 24.625 18.8385 24.2604 20.0625 23.5312C21.2865 22.8281 22.276 21.8385 23.0312 20.5625C23.7604 19.2865 24.125 17.9323 24.125 16.5C24.125 15.0677 23.7604 13.7135 23.0312 12.4375C22.276 11.1615 21.2865 10.1719 20.0625 9.46875C18.8385 8.73958 17.4844 8.375 16 8.375ZM16 26.5C14.1771 26.474 12.5104 26.0312 11 25.1719C9.48958 24.2865 8.26562 23.0625 7.32812 21.5C6.44271 19.9115 6 18.2448 6 16.5C6 14.7552 6.44271 13.0885 7.32812 11.5C8.26562 9.9375 9.48958 8.71354 11 7.82812C12.5104 6.96875 14.1771 6.52604 16 6.5C17.8229 6.52604 19.4896 6.96875 21 7.82812C22.5104 8.71354 23.7344 9.9375 24.6719 11.5C25.5573 13.0885 26 14.7552 26 16.5C26 18.2448 25.5573 19.9115 24.6719 21.5C23.7344 23.0625 22.5104 24.2865 21 25.1719C19.4896 26.0312 17.8229 26.474 16 26.5ZM13.1875 11.5H18.1875C18.6042 11.526 18.8906 11.7214 19.0469 12.0859C19.1771 12.4766 19.099 12.8281 18.8125 13.1406L16.8203 14.9375C17.6797 15.0417 18.3698 15.4062 18.8906 16.0312C19.4375 16.6302 19.724 17.3594 19.75 18.2188C19.724 19.1562 19.3984 19.9245 18.7734 20.5234C18.1745 21.1484 17.4062 21.474 16.4688 21.5H15.375C14.125 21.474 13.1615 20.9401 12.4844 19.8984L12.4062 19.7422C12.1458 19.2214 12.237 18.7917 12.6797 18.4531C13.2005 18.1927 13.6302 18.2969 13.9688 18.7656L14.0859 18.9219C14.3984 19.3646 14.8281 19.599 15.375 19.625H16.4688C16.8594 19.625 17.1979 19.4948 17.4844 19.2344C17.7448 18.9479 17.875 18.6094 17.875 18.2188C17.875 17.8021 17.7318 17.4635 17.4453 17.2031C17.1849 16.9427 16.8594 16.8125 16.4688 16.8125H14.4375C14.0208 16.7865 13.7344 16.5911 13.5781 16.2266C13.4479 15.8359 13.526 15.4844 13.8125 15.1719L15.7656 13.375H13.1875C12.6146 13.3229 12.3021 13.0104 12.25 12.4375C12.3021 11.8646 12.6146 11.5521 13.1875 11.5Z" fill="black" fill-opacity="0.72"/>
</g>
</svg>
