<svg width="32" height="32" viewBox="0 0 32 32" fill="none" xmlns="http://www.w3.org/2000/svg">
<g id="standalone / md / arrow-up-to-line-md / bold">
<path id="icon" d="M9.4375 7.75H22.5625C23.1354 7.80208 23.4479 8.11458 23.5 8.6875C23.4479 9.26042 23.1354 9.57292 22.5625 9.625H9.4375C8.86458 9.57292 8.55208 9.26042 8.5 8.6875C8.55208 8.11458 8.86458 7.80208 9.4375 7.75ZM16.7031 13.0625H16.6641L21.6641 18.375C22.0286 18.8177 22.0156 19.2474 21.625 19.6641C21.1823 20.0286 20.7526 20.0156 20.3359 19.625L16.9375 16.0703V19.3125V24.3125C16.8854 24.8854 16.5729 25.1979 16 25.25C15.4271 25.1979 15.1146 24.8854 15.0625 24.3125V19.3125V16.0703L11.6641 19.6641C11.2474 20.0286 10.8177 20.0417 10.375 19.7031C9.98438 19.2604 9.97135 18.8177 10.3359 18.375L15.3359 13.0625C15.5182 12.8542 15.7396 12.75 16 12.75C16.2604 12.75 16.4948 12.8542 16.7031 13.0625Z" fill="black" fill-opacity="0.72"/>
</g>
</svg>
