<svg width="32" height="32" viewBox="0 0 32 32" fill="none" xmlns="http://www.w3.org/2000/svg">
<g id="standalone / md / star-md / bold">
<path id="icon" d="M16 6.5C16.3906 6.52604 16.6771 6.70833 16.8594 7.04688L19.5156 12.5547L25.4922 13.4141C25.8828 13.4922 26.1432 13.7135 26.2734 14.0781C26.3776 14.4427 26.2995 14.7552 26.0391 15.0156L21.7031 19.3125L22.7188 25.4062C22.7708 25.7708 22.6406 26.0833 22.3281 26.3438C22.0156 26.5521 21.6901 26.5651 21.3516 26.3828L16 23.5312L10.6484 26.3828C10.3099 26.5651 9.98438 26.5391 9.67188 26.3047C9.35938 26.0703 9.22917 25.7708 9.28125 25.4062L10.2969 19.3125L5.96094 15.0156C5.70052 14.7552 5.6224 14.4427 5.72656 14.0781C5.85677 13.7135 6.11719 13.4922 6.50781 13.4141L12.4844 12.5547L15.1406 7.04688C15.3229 6.70833 15.6094 6.52604 16 6.5ZM16 9.58594L13.9297 13.8047C13.7995 14.0911 13.5651 14.2734 13.2266 14.3516L8.61719 15.0156L11.9766 18.3359C12.1849 18.5703 12.276 18.8438 12.25 19.1562L11.4297 23.8438L15.5703 21.6562C15.8568 21.5 16.1432 21.5 16.4297 21.6562L20.5312 23.8438L19.75 19.1562C19.6979 18.8438 19.7891 18.5703 20.0234 18.3359L23.3828 15.0156L18.7734 14.3516C18.4349 14.2734 18.2005 14.0911 18.0703 13.8047L16 9.58594Z" fill="black" fill-opacity="0.72"/>
</g>
</svg>
