<svg width="32" height="32" viewBox="0 0 32 32" fill="none" xmlns="http://www.w3.org/2000/svg">
<g id="standalone / md / stopwatch-md / bold">
<path id="icon" d="M12.875 7.4375C12.9271 6.86458 13.2396 6.55208 13.8125 6.5H18.1875C18.7604 6.55208 19.0729 6.86458 19.125 7.4375C19.0729 8.01042 18.7604 8.32292 18.1875 8.375H16.9375V10.2891C18.6562 10.5234 20.1406 11.1875 21.3906 12.2812L22.5234 11.1484C22.9661 10.7839 23.4089 10.7839 23.8516 11.1484C24.2161 11.5911 24.2161 12.0339 23.8516 12.4766L22.6406 13.6875C23.6042 15.0417 24.099 16.6042 24.125 18.375C24.0729 20.6667 23.2786 22.5807 21.7422 24.1172C20.2057 25.6536 18.2917 26.4479 16 26.5C13.7083 26.4479 11.7943 25.6536 10.2578 24.1172C8.72135 22.5807 7.92708 20.6667 7.875 18.375C7.92708 16.2396 8.61719 14.4297 9.94531 12.9453C11.2995 11.4609 13.0052 10.5755 15.0625 10.2891V8.375H13.8125C13.2396 8.32292 12.9271 8.01042 12.875 7.4375ZM16 24.625C17.1198 24.625 18.1615 24.3516 19.125 23.8047C20.0885 23.2318 20.8568 22.4635 21.4297 21.5C21.9766 20.5104 22.25 19.4688 22.25 18.375C22.25 17.2812 21.9766 16.2396 21.4297 15.25C20.8568 14.2865 20.0885 13.5182 19.125 12.9453C18.1615 12.3984 17.1198 12.125 16 12.125C14.8802 12.125 13.8385 12.3984 12.875 12.9453C11.9115 13.5182 11.1432 14.2865 10.5703 15.25C10.0234 16.2396 9.75 17.2812 9.75 18.375C9.75 19.4688 10.0234 20.5104 10.5703 21.5C11.1432 22.4635 11.9115 23.2318 12.875 23.8047C13.8385 24.3516 14.8802 24.625 16 24.625ZM16.9375 14.9375V19C16.8854 19.5729 16.5729 19.8854 16 19.9375C15.4271 19.8854 15.1146 19.5729 15.0625 19V14.9375C15.1146 14.3646 15.4271 14.0521 16 14C16.5729 14.0521 16.8854 14.3646 16.9375 14.9375Z" fill="black" fill-opacity="0.72"/>
</g>
</svg>
