<svg width="32" height="32" viewBox="0 0 32 32" fill="none" xmlns="http://www.w3.org/2000/svg">
<g id="standalone / md / pen-md / bold">
<path id="icon" d="M7.40625 20.6016C7.58854 20.0286 7.88802 19.5469 8.30469 19.1562L20.1797 7.24219C20.7005 6.77344 21.2865 6.53906 21.9375 6.53906C22.6146 6.53906 23.2005 6.77344 23.6953 7.24219L25.2578 8.80469C25.362 8.9349 25.4661 9.0651 25.5703 9.19531C25.8828 9.6901 26.013 10.224 25.9609 10.7969C25.9089 11.3698 25.6745 11.8776 25.2578 12.3203L13.3828 24.1953C13.3307 24.2474 13.2786 24.2995 13.2266 24.3516C12.8359 24.6901 12.3932 24.9375 11.8984 25.0938L8.85156 25.9922L7.21094 26.4609C6.84635 26.5651 6.53385 26.487 6.27344 26.2266C6.01302 25.9661 5.9349 25.6536 6.03906 25.2891L6.50781 23.6484L7.40625 20.6016ZM9.20312 21.1094L8.96875 22.0469L8.30469 24.1953L10.4531 23.5703L11.3906 23.2969C11.625 23.2188 11.8464 23.0885 12.0547 22.9062L20.9609 13.9609L18.5391 11.5391L9.63281 20.4453C9.60677 20.4714 9.59375 20.4844 9.59375 20.4844C9.56771 20.5104 9.55469 20.5234 9.55469 20.5234C9.39844 20.7057 9.28125 20.901 9.20312 21.1094Z" fill="black" fill-opacity="0.72"/>
</g>
</svg>
