<svg width="32" height="32" viewBox="0 0 32 32" fill="none" xmlns="http://www.w3.org/2000/svg">
<g id="standalone / md / wallet-circle-plus-md / regular">
<path id="icon" d="M3.5 10.875C3.5 9.15625 4.86719 7.75 6.625 7.75C11.625 7.75 16.625 7.75 21.625 7.75C21.9375 7.75 22.25 8.0625 22.25 8.375C22.25 8.72656 21.9375 9 21.625 9C16.625 9 11.625 9 6.625 9C5.57031 9 4.75 9.85938 4.75 10.875C4.75 14.625 4.75 18.375 4.75 22.125C4.75 23.1797 5.57031 24 6.625 24C9.98438 24 13.3438 24 16.7422 24C16.9766 24.4688 17.25 24.8984 17.5625 25.25C13.8906 25.25 10.2578 25.25 6.625 25.25C4.86719 25.25 3.5 23.8828 3.5 22.125C3.5 18.375 3.5 14.625 3.5 10.875ZM7.25 10.875C7.25 10.5625 7.52344 10.25 7.875 10.25C12.0156 10.25 16.1953 10.25 20.375 10.25C22.0938 10.25 23.5 11.6562 23.5 13.375C23.5 13.6094 23.5 13.8438 23.5 14.0391C23.2656 14.0391 23.0703 14 22.875 14C22.6406 14 22.4453 14.0391 22.25 14.0391C22.25 13.8438 22.25 13.6094 22.25 13.375C22.25 12.3594 21.3906 11.5 20.375 11.5C16.1953 11.5 12.0156 11.5 7.875 11.5C7.52344 11.5 7.25 11.2266 7.25 10.875ZM17.25 20.875C17.25 17.7891 19.75 15.25 22.875 15.25C25.9609 15.25 28.5 17.7891 28.5 20.875C28.5 24 25.9609 26.5 22.875 26.5C19.75 26.5 17.25 24 17.25 20.875ZM18.5 20.875C18.5 23.2969 20.4531 25.25 22.875 25.25C25.2578 25.25 27.25 23.2969 27.25 20.875C27.25 18.4922 25.2578 16.5 22.875 16.5C20.4531 16.5 18.5 18.4922 18.5 20.875ZM19.75 20.875C19.75 20.5625 20.0234 20.25 20.375 20.25C21 20.25 21.625 20.25 22.25 20.25C22.25 19.625 22.25 19 22.25 18.375C22.25 18.0625 22.5234 17.75 22.875 17.75C23.1875 17.75 23.5 18.0625 23.5 18.375C23.5 19 23.5 19.625 23.5 20.25C24.125 20.25 24.75 20.25 25.375 20.25C25.6875 20.25 26 20.5625 26 20.875C26 21.2266 25.6875 21.5 25.375 21.5C24.75 21.5 24.125 21.5 23.5 21.5C23.5 22.125 23.5 22.75 23.5 23.375C23.5 23.7266 23.1875 24 22.875 24C22.5234 24 22.25 23.7266 22.25 23.375C22.25 22.75 22.25 22.125 22.25 21.5C21.625 21.5 21 21.5 20.375 21.5C20.0234 21.5 19.75 21.2266 19.75 20.875Z" fill="black" fill-opacity="0.72"/>
</g>
</svg>
