<svg width="32" height="32" viewBox="0 0 32 32" fill="none" xmlns="http://www.w3.org/2000/svg">
<g id="standalone / md / bell-md / bold">
<path id="icon" d="M16 6.5C16.3646 6.5 16.6641 6.61719 16.8984 6.85156C17.1328 7.08594 17.25 7.38542 17.25 7.75V8.45312C18.7083 8.71354 19.8932 9.3776 20.8047 10.4453C21.7422 11.513 22.224 12.8021 22.25 14.3125V15.6016C22.276 17.4245 22.849 19.0521 23.9688 20.4844L24.5547 21.2266C24.763 21.5391 24.8021 21.8646 24.6719 22.2031C24.4896 22.5417 24.2031 22.724 23.8125 22.75H8.1875C7.79688 22.724 7.51042 22.5417 7.32812 22.2031C7.17188 21.8646 7.21094 21.5391 7.44531 21.2266L8.03125 20.4844C9.15104 19.0521 9.72396 17.4245 9.75 15.6016V14.3125C9.77604 12.8021 10.2578 11.513 11.1953 10.4453C12.1068 9.3776 13.2917 8.71354 14.75 8.45312V7.75C14.75 7.38542 14.8672 7.08594 15.1016 6.85156C15.3359 6.61719 15.6354 6.5 16 6.5ZM16 10.25H15.6875C14.5417 10.276 13.5781 10.6667 12.7969 11.4219C12.0417 12.2031 11.651 13.1667 11.625 14.3125V15.6016C11.599 17.5286 11.0781 19.2865 10.0625 20.875H21.9375C20.8958 19.2865 20.375 17.5286 20.375 15.6016V14.3125C20.349 13.1667 19.9583 12.2031 19.2031 11.4219C18.4219 10.6667 17.4583 10.276 16.3125 10.25H16ZM18.5 24C18.5 24.6771 18.2526 25.263 17.7578 25.7578C17.263 26.2526 16.6771 26.5 16 26.5C15.3229 26.5 14.737 26.2526 14.2422 25.7578C13.7474 25.263 13.5 24.6771 13.5 24H16H18.5Z" fill="black" fill-opacity="0.72"/>
</g>
</svg>
