<svg width="32" height="32" viewBox="0 0 32 32" fill="none" xmlns="http://www.w3.org/2000/svg">
<g id="standalone / md / users-md / bold">
<path id="icon" d="M9.125 12.75C7.95312 12.724 7.05469 12.2031 6.42969 11.1875C5.85677 10.1458 5.85677 9.10417 6.42969 8.0625C7.05469 7.04688 7.95312 6.52604 9.125 6.5C10.2969 6.52604 11.1953 7.04688 11.8203 8.0625C12.3932 9.10417 12.3932 10.1458 11.8203 11.1875C11.1953 12.2031 10.2969 12.724 9.125 12.75ZM23.5 12.75C22.3281 12.724 21.4297 12.2031 20.8047 11.1875C20.2318 10.1458 20.2318 9.10417 20.8047 8.0625C21.4297 7.04688 22.3281 6.52604 23.5 6.5C24.6719 6.52604 25.5703 7.04688 26.1953 8.0625C26.7682 9.10417 26.7682 10.1458 26.1953 11.1875C25.5703 12.2031 24.6719 12.724 23.5 12.75ZM3.5 18.1797C3.52604 16.9818 3.92969 15.9922 4.71094 15.2109C5.49219 14.4297 6.48177 14.026 7.67969 14H9.32031C9.94531 14 10.5312 14.1302 11.0781 14.3906C11.026 14.6771 11 14.9635 11 15.25C11.0521 16.7865 11.612 18.0365 12.6797 19H4.32031C3.82552 18.9479 3.55208 18.6745 3.5 18.1797ZM19.3203 19C20.388 18.0365 20.9479 16.7865 21 15.25C21 14.9635 20.974 14.6771 20.9219 14.3906C21.4688 14.1302 22.0547 14 22.6797 14H24.3203C25.5182 14.026 26.5078 14.4297 27.2891 15.2109C28.0703 15.9922 28.474 16.9818 28.5 18.1797C28.4479 18.6745 28.1745 18.9479 27.6797 19H19.3203ZM16 13.375C15.2969 13.401 14.75 13.7135 14.3594 14.3125C14.0469 14.9375 14.0469 15.5625 14.3594 16.1875C14.75 16.7865 15.2969 17.099 16 17.125C16.7031 17.099 17.25 16.7865 17.6406 16.1875C17.9531 15.5625 17.9531 14.9375 17.6406 14.3125C17.25 13.7135 16.7031 13.401 16 13.375ZM16 19C15.3229 19 14.6979 18.8307 14.125 18.4922C13.5521 18.1536 13.0964 17.6979 12.7578 17.125C12.4193 16.526 12.25 15.901 12.25 15.25C12.25 14.599 12.4193 13.974 12.7578 13.375C13.0964 12.8021 13.5521 12.3464 14.125 12.0078C14.6979 11.6693 15.3229 11.5 16 11.5C16.6771 11.5 17.3021 11.6693 17.875 12.0078C18.4479 12.3464 18.9036 12.8021 19.2422 13.375C19.5807 13.974 19.75 14.599 19.75 15.25C19.75 15.901 19.5807 16.526 19.2422 17.125C18.9036 17.6979 18.4479 18.1536 17.875 18.4922C17.3021 18.8307 16.6771 19 16 19ZM13.6953 22.125C12.9141 22.151 12.237 22.3854 11.6641 22.8281C11.0651 23.2969 10.6745 23.8958 10.4922 24.625H21.5078C21.3255 23.8958 20.9349 23.2969 20.3359 22.8281C19.763 22.3854 19.0859 22.151 18.3047 22.125H13.6953ZM13.6953 20.25H18.3047C19.763 20.276 20.987 20.7839 21.9766 21.7734C22.9661 22.763 23.474 23.987 23.5 25.4453C23.4479 26.0964 23.0964 26.4479 22.4453 26.5H9.55469C8.90365 26.4479 8.55208 26.0964 8.5 25.4453C8.52604 23.987 9.03385 22.763 10.0234 21.7734C11.013 20.7839 12.237 20.276 13.6953 20.25Z" fill="black" fill-opacity="0.72"/>
</g>
</svg>
