<svg width="32" height="32" viewBox="0 0 32 32" fill="none" xmlns="http://www.w3.org/2000/svg">
<g id="standalone / md / stop-loss-md / regular">
<path id="icon" d="M12.0156 21.9297C11.1172 21.9297 10.375 21.7734 9.75 21.4609C9.125 21.1484 8.61719 20.7188 8.1875 20.1719L9.35938 19.0781C9.71094 19.5078 10.1406 19.8594 10.5703 20.0938C11 20.3281 11.5078 20.4453 12.0938 20.4453C12.7578 20.4453 13.2656 20.2891 13.6172 19.9766C13.9688 19.6641 14.125 19.2734 14.125 18.7656C14.125 18.375 14.0078 18.0234 13.7734 17.7891C13.5391 17.5547 13.1094 17.3594 12.4844 17.2422L11.5469 17.0859C10.5312 16.8906 9.78906 16.5781 9.28125 16.0703C8.73438 15.6016 8.5 14.9375 8.5 14.1172C8.5 13.6484 8.57812 13.2188 8.73438 12.8672C8.92969 12.4766 9.16406 12.1641 9.47656 11.9297C9.78906 11.6562 10.1797 11.4609 10.6484 11.3047C11.0781 11.1875 11.5859 11.1094 12.1719 11.1094C12.9531 11.1094 13.6172 11.2266 14.2031 11.5391C14.7891 11.7734 15.2969 12.2031 15.6875 12.7109L14.5156 13.7656C14.2422 13.4141 13.9297 13.1406 13.5391 12.9062C13.1484 12.7109 12.6406 12.5938 12.0547 12.5938C11.4688 12.5938 11 12.7109 10.6875 12.9453C10.3359 13.1797 10.1797 13.5312 10.1797 14C10.1797 14.4688 10.3359 14.7812 10.5703 15.0156C10.8438 15.2109 11.2734 15.3672 11.8594 15.4844L12.7969 15.6797C13.8125 15.875 14.5938 16.2266 15.0625 16.6953C15.5703 17.1641 15.8047 17.8281 15.8047 18.6875C15.8047 19.1562 15.7266 19.625 15.5703 20.0156C15.375 20.4062 15.1406 20.7578 14.7891 21.0312C14.4766 21.3438 14.0859 21.5391 13.6172 21.6953C13.1484 21.8516 12.6016 21.9297 12.0156 21.9297ZM17.8359 21.7344V11.2656H19.5156V20.25H23.7734V21.7344H17.8359Z" fill="black" fill-opacity="0.72"/>
</g>
</svg>
