<svg width="32" height="32" viewBox="0 0 32 32" fill="none" xmlns="http://www.w3.org/2000/svg">
<g id="standalone / md / copy-md / bold">
<path id="icon" d="M23.5 21.5H16C15.2969 21.474 14.7109 21.2266 14.2422 20.7578C13.7734 20.2891 13.526 19.7031 13.5 19V9C13.526 8.29688 13.7734 7.71094 14.2422 7.24219C14.7109 6.77344 15.2969 6.52604 16 6.5H21.4688C21.9896 6.5 22.4323 6.68229 22.7969 7.04688L25.4531 9.70312C25.8177 10.0677 26 10.5104 26 11.0312V19C25.974 19.7031 25.7266 20.2891 25.2578 20.7578C24.7891 21.2266 24.2031 21.474 23.5 21.5ZM8.5 11.5H12.25V13.375H8.5C8.10938 13.401 7.90104 13.6094 7.875 14V24C7.90104 24.3906 8.10938 24.599 8.5 24.625H16C16.3906 24.599 16.599 24.3906 16.625 24V22.75H18.5V24C18.474 24.7031 18.2266 25.2891 17.7578 25.7578C17.2891 26.2266 16.7031 26.474 16 26.5H8.5C7.79688 26.474 7.21094 26.2266 6.74219 25.7578C6.27344 25.2891 6.02604 24.7031 6 24V14C6.02604 13.2969 6.27344 12.7109 6.74219 12.2422C7.21094 11.7734 7.79688 11.526 8.5 11.5Z" fill="black" fill-opacity="0.72"/>
</g>
</svg>
