<svg width="32" height="32" viewBox="0 0 32 32" fill="none" xmlns="http://www.w3.org/2000/svg">
<g id="standalone / md / right-from-bracket-md / bold">
<path id="icon" d="M19.75 12.2031V14.3125C19.6979 14.8854 19.3854 15.1979 18.8125 15.25H14.125V17.75H18.8125C19.3854 17.8021 19.6979 18.1146 19.75 18.6875V20.7969L24.0469 16.5L19.75 12.2031ZM26 16.5C26 16.9688 25.8307 17.3724 25.4922 17.7109L20.9609 22.2031C20.6224 22.5677 20.1927 22.75 19.6719 22.75C19.1771 22.75 18.7604 22.5677 18.4219 22.2031C18.0833 21.8646 17.901 21.4479 17.875 20.9531V19.625H14.125C13.6042 19.599 13.1615 19.4167 12.7969 19.0781C12.4583 18.7135 12.276 18.2708 12.25 17.75V15.25C12.276 14.7292 12.4583 14.2865 12.7969 13.9219C13.1615 13.5833 13.6042 13.401 14.125 13.375H17.875V12.0469C17.901 11.5521 18.0833 11.1354 18.4219 10.7969C18.7604 10.4583 19.1771 10.276 19.6719 10.25C20.1927 10.25 20.6224 10.4323 20.9609 10.7969L25.4922 15.2891C25.8307 15.6276 26 16.0312 26 16.5ZM12.5625 9.625H9.4375C8.99479 9.625 8.63021 9.78125 8.34375 10.0938C8.03125 10.3802 7.875 10.7448 7.875 11.1875V21.8125C7.875 22.2552 8.03125 22.6198 8.34375 22.9062C8.63021 23.2188 8.99479 23.375 9.4375 23.375H12.5625C13.1354 23.4271 13.4479 23.7396 13.5 24.3125C13.4479 24.8854 13.1354 25.1979 12.5625 25.25H9.4375C8.47396 25.224 7.66667 24.8854 7.01562 24.2344C6.36458 23.5833 6.02604 22.776 6 21.8125V11.1875C6.02604 10.224 6.36458 9.41667 7.01562 8.76562C7.66667 8.11458 8.47396 7.77604 9.4375 7.75H12.5625C13.1354 7.80208 13.4479 8.11458 13.5 8.6875C13.4479 9.26042 13.1354 9.57292 12.5625 9.625Z" fill="black" fill-opacity="0.72"/>
</g>
</svg>
