<svg width="32" height="32" viewBox="0 0 32 32" fill="none" xmlns="http://www.w3.org/2000/svg">
<g id="standalone / md / location-crosshairs-slash-md / bold">
<path id="icon" d="M5.02344 6.69531L10.7266 11.1875C11.8984 10.0156 13.3438 9.3125 15.0625 9.07812V7.4375C15.1146 6.86458 15.4271 6.55208 16 6.5C16.5729 6.55208 16.8854 6.86458 16.9375 7.4375V9.07812C18.6562 9.3125 20.1146 10.0156 21.3125 11.1875C22.4844 12.3854 23.2005 13.8438 23.4609 15.5625H25.0625C25.6354 15.6146 25.9479 15.9271 26 16.5C25.9479 17.0729 25.6354 17.3854 25.0625 17.4375H23.4609C23.3047 18.5052 22.9661 19.4818 22.4453 20.3672L28.1484 24.8203C28.5651 25.2109 28.6172 25.6536 28.3047 26.1484C27.9141 26.5651 27.4714 26.6172 26.9766 26.3047L3.85156 8.17969C3.4349 7.78906 3.38281 7.34635 3.69531 6.85156C4.08594 6.4349 4.52865 6.38281 5.02344 6.69531ZM12.2109 12.3594L13.7344 13.5312C14.3594 13.0365 15.1146 12.776 16 12.75C17.0677 12.776 17.9531 13.1406 18.6562 13.8438C19.3594 14.5469 19.724 15.4323 19.75 16.5C19.75 17.0469 19.6458 17.5547 19.4375 18.0234L20.9609 19.1953C21.4036 18.388 21.625 17.4896 21.625 16.5C21.5729 14.9115 21.026 13.5833 19.9844 12.5156C18.9167 11.474 17.5885 10.9271 16 10.875C14.5156 10.901 13.2526 11.3958 12.2109 12.3594ZM17.875 16.7734H17.8359C17.862 16.6693 17.875 16.5781 17.875 16.5C17.849 15.9792 17.6667 15.5365 17.3281 15.1719C16.9635 14.8333 16.5208 14.651 16 14.625C15.7396 14.625 15.5052 14.6641 15.2969 14.7422L17.875 16.7734ZM19.7109 23.0234C18.8776 23.4922 17.9531 23.8047 16.9375 23.9609V25.5625C16.8854 26.1354 16.5729 26.4479 16 26.5C15.4271 26.4479 15.1146 26.1354 15.0625 25.5625V23.9609C13.3438 23.7005 11.8854 22.9844 10.6875 21.8125C9.51562 20.6406 8.8125 19.1823 8.57812 17.4375H6.9375C6.36458 17.3854 6.05208 17.0729 6 16.5C6.05208 15.9271 6.36458 15.6146 6.9375 15.5625H8.57812C8.60417 15.1719 8.68229 14.7943 8.8125 14.4297L10.4141 15.7188C10.388 15.9792 10.375 16.2396 10.375 16.5C10.4271 18.0885 10.974 19.4167 12.0156 20.4844C13.0833 21.5521 14.4115 22.099 16 22.125C16.7292 22.125 17.4193 21.9948 18.0703 21.7344L19.7109 23.0234Z" fill="black" fill-opacity="0.72"/>
</g>
</svg>
