<svg width="32" height="32" viewBox="0 0 32 32" fill="none" xmlns="http://www.w3.org/2000/svg">
<g id="standalone / md / four-md / bold">
<path id="icon" d="M15.8828 9.11719L11 18.375H19.125V12.4375C19.1771 11.8646 19.4896 11.5521 20.0625 11.5C20.6354 11.5521 20.9479 11.8646 21 12.4375V18.375H22.5625C23.1354 18.4271 23.4479 18.7396 23.5 19.3125C23.4479 19.8854 23.1354 20.1979 22.5625 20.25H21V24.3125C20.9479 24.8854 20.6354 25.1979 20.0625 25.25C19.4896 25.1979 19.1771 24.8854 19.125 24.3125V20.25H9.4375C9.09896 20.25 8.82552 20.0938 8.61719 19.7812C8.46094 19.4948 8.46094 19.1953 8.61719 18.8828L14.2422 8.25781C14.5547 7.76302 14.9714 7.63281 15.4922 7.86719C15.987 8.17969 16.1172 8.59635 15.8828 9.11719Z" fill="black" fill-opacity="0.72"/>
</g>
</svg>
