<svg width="32" height="32" viewBox="0 0 32 32" fill="none" xmlns="http://www.w3.org/2000/svg">
<g id="standalone / md / chart-line-md / regular">
<path id="icon" d="M7.25 8.375V22.125C7.27604 22.6458 7.45833 23.0885 7.79688 23.4531C8.16146 23.7917 8.60417 23.974 9.125 24H25.375C25.7656 24.026 25.974 24.2344 26 24.625C25.974 25.0156 25.7656 25.224 25.375 25.25H9.125C8.23958 25.224 7.4974 24.9245 6.89844 24.3516C6.32552 23.7526 6.02604 23.0104 6 22.125V8.375C6.02604 7.98438 6.23438 7.77604 6.625 7.75C7.01562 7.77604 7.22396 7.98438 7.25 8.375ZM24.5547 12.5547L18.9297 18.1797C18.6432 18.4401 18.3568 18.4401 18.0703 18.1797L14.75 14.8984L10.8047 18.8047C10.5182 19.0651 10.2318 19.0651 9.94531 18.8047C9.6849 18.5182 9.6849 18.2318 9.94531 17.9453L14.3203 13.5703C14.6068 13.3099 14.8932 13.3099 15.1797 13.5703L18.5 16.8516L23.6953 11.6953C23.9818 11.4349 24.2682 11.4349 24.5547 11.6953C24.8151 11.9818 24.8151 12.2682 24.5547 12.5547Z" fill="black" fill-opacity="0.72"/>
</g>
</svg>
