<svg width="32" height="32" viewBox="0 0 32 32" fill="none" xmlns="http://www.w3.org/2000/svg">
<g id="standalone / md / forward-step-md / fill">
<path id="icon" d="M11.8203 23.7266C11.4036 24.0391 10.9479 24.0911 10.4531 23.8828C10.0104 23.6484 9.77604 23.2708 9.75 22.75V10.25C9.77604 9.72917 10.0104 9.35156 10.4531 9.11719C10.9479 8.90885 11.4036 8.96094 11.8203 9.27344L19.3203 15.5234L19.75 15.9141V10.25C19.75 9.88542 19.8672 9.58594 20.1016 9.35156C20.3359 9.11719 20.6354 9 21 9C21.3646 9 21.6641 9.11719 21.8984 9.35156C22.1328 9.58594 22.25 9.88542 22.25 10.25V22.75C22.25 23.1146 22.1328 23.4141 21.8984 23.6484C21.6641 23.8828 21.3646 24 21 24C20.6354 24 20.3359 23.8828 20.1016 23.6484C19.8672 23.4141 19.75 23.1146 19.75 22.75V17.0859L19.3203 17.4766L11.8203 23.7266Z" fill="black" fill-opacity="0.72"/>
</g>
</svg>
