<svg width="32" height="32" viewBox="0 0 32 32" fill="none" xmlns="http://www.w3.org/2000/svg">
<g id="standalone / md / location-dot-md / regular">
<path id="icon" d="M22.25 14C22.1979 12.2292 21.5859 10.7578 20.4141 9.58594C19.2422 8.41406 17.7708 7.80208 16 7.75C14.2292 7.80208 12.7578 8.41406 11.5859 9.58594C10.4141 10.7578 9.80208 12.2292 9.75 14C9.75 14.625 9.97135 15.4453 10.4141 16.4609C10.8568 17.5026 11.4167 18.5833 12.0938 19.7031C12.7708 20.7969 13.4609 21.8125 14.1641 22.75C14.8672 23.7135 15.4792 24.5208 16 25.1719C16.5208 24.5208 17.1328 23.7135 17.8359 22.75C18.5391 21.8125 19.2292 20.7969 19.9062 19.7031C20.6094 18.5833 21.1823 17.5026 21.625 16.4609C22.0417 15.4453 22.25 14.625 22.25 14ZM23.5 14C23.4479 15.1719 23.0312 16.526 22.25 18.0625C21.4427 19.599 20.5312 21.0833 19.5156 22.5156C18.5 23.974 17.6406 25.1328 16.9375 25.9922C16.6771 26.3047 16.3646 26.4609 16 26.4609C15.6354 26.4609 15.3229 26.3047 15.0625 25.9922C14.3594 25.1328 13.5 23.974 12.4844 22.5156C11.4688 21.0833 10.5573 19.599 9.75 18.0625C8.96875 16.526 8.55208 15.1719 8.5 14C8.55208 11.8646 9.28125 10.0938 10.6875 8.6875C12.0938 7.28125 13.8646 6.55208 16 6.5C18.1354 6.55208 19.9062 7.28125 21.3125 8.6875C22.7188 10.0938 23.4479 11.8646 23.5 14ZM14.125 14C14.151 14.7031 14.4635 15.25 15.0625 15.6406C15.6875 15.9531 16.3125 15.9531 16.9375 15.6406C17.5365 15.25 17.849 14.7031 17.875 14C17.849 13.2969 17.5365 12.75 16.9375 12.3594C16.3125 12.0469 15.6875 12.0469 15.0625 12.3594C14.4635 12.75 14.151 13.2969 14.125 14ZM16 17.125C14.8281 17.099 13.9297 16.5781 13.3047 15.5625C12.7318 14.5208 12.7318 13.4792 13.3047 12.4375C13.9297 11.4219 14.8281 10.901 16 10.875C17.1719 10.901 18.0703 11.4219 18.6953 12.4375C19.2682 13.4792 19.2682 14.5208 18.6953 15.5625C18.0703 16.5781 17.1719 17.099 16 17.125Z" fill="black" fill-opacity="0.72"/>
</g>
</svg>
