<svg width="32" height="32" viewBox="0 0 32 32" fill="none" xmlns="http://www.w3.org/2000/svg">
<g id="standalone / md / file-circle-check-md / regular">
<path id="icon" d="M21 25.25C21.3646 25.25 21.6641 25.1328 21.8984 24.8984C22.1328 24.6641 22.25 24.3646 22.25 24V14H17.875C17.3542 13.974 16.9115 13.7917 16.5469 13.4531C16.2083 13.0885 16.026 12.6458 16 12.125V7.75H11C10.6354 7.75 10.3359 7.86719 10.1016 8.10156C9.86719 8.33594 9.75 8.63542 9.75 9V24C9.75 24.3646 9.86719 24.6641 10.1016 24.8984C10.3359 25.1328 10.6354 25.25 11 25.25H21ZM17.875 12.75H22.25C22.1979 12.6458 22.1328 12.5547 22.0547 12.4766L17.5234 7.94531C17.4453 7.86719 17.3542 7.8151 17.25 7.78906V12.125C17.276 12.5156 17.4844 12.724 17.875 12.75ZM11 6.5H17.0938C17.6146 6.5 18.0573 6.68229 18.4219 7.04688L22.9531 11.5781C23.3177 11.9427 23.5 12.3854 23.5 12.9062V24C23.474 24.7031 23.2266 25.2891 22.7578 25.7578C22.2891 26.2266 21.7031 26.474 21 26.5H11C10.2969 26.474 9.71094 26.2266 9.24219 25.7578C8.77344 25.2891 8.52604 24.7031 8.5 24V9C8.52604 8.29688 8.77344 7.71094 9.24219 7.24219C9.71094 6.77344 10.2969 6.52604 11 6.5ZM19.5547 17.9844L15.4141 22.1641C15.1016 22.3984 14.8021 22.3984 14.5156 22.1641L12.4453 20.0547C12.1849 19.7682 12.1849 19.4818 12.4453 19.1953C12.7318 18.9609 13.0182 18.9609 13.3047 19.1953L14.9453 20.8359L18.6953 17.0859C18.9818 16.8516 19.2682 16.8516 19.5547 17.0859C19.8151 17.3984 19.8151 17.6979 19.5547 17.9844Z" fill="black" fill-opacity="0.72"/>
</g>
</svg>
