<svg width="32" height="32" viewBox="0 0 32 32" fill="none" xmlns="http://www.w3.org/2000/svg">
<g id="standalone / md / circle-calendar-md / regular">
<path id="icon" d="M24.75 16.5C24.724 14.9115 24.3333 13.4531 23.5781 12.125C22.7969 10.7969 21.7292 9.72917 20.375 8.92188C18.9948 8.14062 17.5365 7.75 16 7.75C14.4635 7.75 13.0052 8.14062 11.625 8.92188C10.2708 9.72917 9.20312 10.7969 8.42188 12.125C7.66667 13.4531 7.27604 14.9115 7.25 16.5C7.27604 18.0885 7.66667 19.5469 8.42188 20.875C9.20312 22.2031 10.2708 23.2708 11.625 24.0781C13.0052 24.8594 14.4635 25.25 16 25.25C17.5365 25.25 18.9948 24.8594 20.375 24.0781C21.7292 23.2708 22.7969 22.2031 23.5781 20.875C24.3333 19.5469 24.724 18.0885 24.75 16.5ZM6 16.5C6.02604 14.6771 6.46875 13.0104 7.32812 11.5C8.21354 9.98958 9.4375 8.76562 11 7.82812C12.5885 6.94271 14.2552 6.5 16 6.5C17.7448 6.5 19.4115 6.94271 21 7.82812C22.5625 8.76562 23.7865 9.98958 24.6719 11.5C25.5312 13.0104 25.974 14.6771 26 16.5C25.974 18.3229 25.5312 19.9896 24.6719 21.5C23.7865 23.0104 22.5625 24.2344 21 25.1719C19.4115 26.0573 17.7448 26.5 16 26.5C14.2552 26.5 12.5885 26.0573 11 25.1719C9.4375 24.2344 8.21354 23.0104 7.32812 21.5C6.46875 19.9896 6.02604 18.3229 6 16.5ZM14.125 10.25C14.5156 10.276 14.724 10.4844 14.75 10.875V11.5H17.25V10.875C17.276 10.4844 17.4844 10.276 17.875 10.25C18.2656 10.276 18.474 10.4844 18.5 10.875V11.5H19.125C19.6458 11.526 20.0885 11.7083 20.4531 12.0469C20.7917 12.4115 20.974 12.8542 21 13.375V14V15.25V19.625C20.974 20.1458 20.7917 20.5885 20.4531 20.9531C20.0885 21.2917 19.6458 21.474 19.125 21.5H12.875C12.3542 21.474 11.9115 21.2917 11.5469 20.9531C11.2083 20.5885 11.026 20.1458 11 19.625V15.25V14V13.375C11.026 12.8542 11.2083 12.4115 11.5469 12.0469C11.9115 11.7083 12.3542 11.526 12.875 11.5H13.5V10.875C13.526 10.4844 13.7344 10.276 14.125 10.25ZM12.25 13.375V14H19.75V13.375C19.724 12.9844 19.5156 12.776 19.125 12.75H17.875H14.125H12.875C12.4844 12.776 12.276 12.9844 12.25 13.375ZM19.75 15.25H12.25V19.625C12.276 20.0156 12.4844 20.224 12.875 20.25H19.125C19.5156 20.224 19.724 20.0156 19.75 19.625V15.25Z" fill="black" fill-opacity="0.72"/>
</g>
</svg>
