<svg width="32" height="32" viewBox="0 0 32 32" fill="none" xmlns="http://www.w3.org/2000/svg">
<g id="standalone / md / six-md / bold">
<path id="icon" d="M20.375 19C20.349 17.75 19.9193 16.7214 19.0859 15.9141C18.2786 15.0807 17.25 14.651 16 14.625C14.6979 14.651 13.6302 15.1198 12.7969 16.0312L12.6016 16.2656C11.9505 17.0729 11.625 17.9844 11.625 19C11.651 20.25 12.0807 21.2786 12.9141 22.0859C13.7214 22.9193 14.75 23.349 16 23.375C17.25 23.349 18.2786 22.9193 19.0859 22.0859C19.9193 21.2786 20.349 20.25 20.375 19ZM15.4531 12.7891C15.6354 12.763 15.8177 12.75 16 12.75C17.7708 12.8021 19.2422 13.4141 20.4141 14.5859C21.5859 15.7578 22.1979 17.2292 22.25 19C22.1979 20.7708 21.5859 22.2422 20.4141 23.4141C19.2422 24.5859 17.7708 25.1979 16 25.25C14.2292 25.1979 12.7578 24.5859 11.5859 23.4141C10.4141 22.2422 9.80208 20.7708 9.75 19C9.77604 17.3333 10.3229 15.9271 11.3906 14.7812L16.8203 8.10156C17.237 7.6849 17.6797 7.63281 18.1484 7.94531C18.5651 8.36198 18.6172 8.80469 18.3047 9.27344L15.4531 12.7891Z" fill="black" fill-opacity="0.72"/>
</g>
</svg>
