<svg width="32" height="32" viewBox="0 0 32 32" fill="none" xmlns="http://www.w3.org/2000/svg">
<g id="standalone / md / pause-md / fill">
<path id="icon" d="M11.625 9H12.875C13.3958 9.02604 13.8385 9.20833 14.2031 9.54688C14.5417 9.91146 14.724 10.3542 14.75 10.875V22.125C14.724 22.6458 14.5417 23.0885 14.2031 23.4531C13.8385 23.7917 13.3958 23.974 12.875 24H11.625C11.1042 23.974 10.6615 23.7917 10.2969 23.4531C9.95833 23.0885 9.77604 22.6458 9.75 22.125V10.875C9.77604 10.3542 9.95833 9.91146 10.2969 9.54688C10.6615 9.20833 11.1042 9.02604 11.625 9ZM19.125 9H20.375C20.8958 9.02604 21.3385 9.20833 21.7031 9.54688C22.0417 9.91146 22.224 10.3542 22.25 10.875V22.125C22.224 22.6458 22.0417 23.0885 21.7031 23.4531C21.3385 23.7917 20.8958 23.974 20.375 24H19.125C18.6042 23.974 18.1615 23.7917 17.7969 23.4531C17.4583 23.0885 17.276 22.6458 17.25 22.125V10.875C17.276 10.3542 17.4583 9.91146 17.7969 9.54688C18.1615 9.20833 18.6042 9.02604 19.125 9Z" fill="black" fill-opacity="0.72"/>
</g>
</svg>
