<svg width="32" height="32" viewBox="0 0 32 32" fill="none" xmlns="http://www.w3.org/2000/svg">
<g id="standalone / md / placeholder-md / bold">
<path id="icon" d="M10.6875 7.75H11.3125C11.8854 7.80208 12.1979 8.11458 12.25 8.6875C12.1979 9.26042 11.8854 9.57292 11.3125 9.625H10.6875C10.2448 9.625 9.88021 9.78125 9.59375 10.0938C9.28125 10.3802 9.125 10.7448 9.125 11.1875V11.8125C9.07292 12.3854 8.76042 12.6979 8.1875 12.75C7.61458 12.6979 7.30208 12.3854 7.25 11.8125V11.1875C7.27604 10.224 7.61458 9.41667 8.26562 8.76562C8.91667 8.11458 9.72396 7.77604 10.6875 7.75ZM8.1875 14C8.76042 14.0521 9.07292 14.3646 9.125 14.9375V18.0625C9.07292 18.6354 8.76042 18.9479 8.1875 19C7.61458 18.9479 7.30208 18.6354 7.25 18.0625V14.9375C7.30208 14.3646 7.61458 14.0521 8.1875 14ZM23.8125 14C24.3854 14.0521 24.6979 14.3646 24.75 14.9375V18.0625C24.6979 18.6354 24.3854 18.9479 23.8125 19C23.2396 18.9479 22.9271 18.6354 22.875 18.0625V14.9375C22.9271 14.3646 23.2396 14.0521 23.8125 14ZM23.8125 12.75C23.2396 12.6979 22.9271 12.3854 22.875 11.8125V11.1875C22.875 10.7448 22.7188 10.3802 22.4062 10.0938C22.1198 9.78125 21.7552 9.625 21.3125 9.625H20.6875C20.1146 9.57292 19.8021 9.26042 19.75 8.6875C19.8021 8.11458 20.1146 7.80208 20.6875 7.75H21.3125C22.276 7.77604 23.0833 8.11458 23.7344 8.76562C24.3854 9.41667 24.724 10.224 24.75 11.1875V11.8125C24.6979 12.3854 24.3854 12.6979 23.8125 12.75ZM24.75 21.1875V21.8125C24.724 22.776 24.3854 23.5833 23.7344 24.2344C23.0833 24.8854 22.276 25.224 21.3125 25.25H20.6875C20.1146 25.1979 19.8021 24.8854 19.75 24.3125C19.8021 23.7396 20.1146 23.4271 20.6875 23.375H21.3125C21.7552 23.375 22.1198 23.2188 22.4062 22.9062C22.7188 22.6198 22.875 22.2552 22.875 21.8125V21.1875C22.9271 20.6146 23.2396 20.3021 23.8125 20.25C24.3854 20.3021 24.6979 20.6146 24.75 21.1875ZM9.125 21.1875V21.8125C9.125 22.2552 9.28125 22.6198 9.59375 22.9062C9.88021 23.2188 10.2448 23.375 10.6875 23.375H11.3125C11.8854 23.4271 12.1979 23.7396 12.25 24.3125C12.1979 24.8854 11.8854 25.1979 11.3125 25.25H10.6875C9.72396 25.224 8.91667 24.8854 8.26562 24.2344C7.61458 23.5833 7.27604 22.776 7.25 21.8125V21.1875C7.30208 20.6146 7.61458 20.3021 8.1875 20.25C8.76042 20.3021 9.07292 20.6146 9.125 21.1875ZM14.4375 25.25C13.8646 25.1979 13.5521 24.8854 13.5 24.3125C13.5521 23.7396 13.8646 23.4271 14.4375 23.375H17.5625C18.1354 23.4271 18.4479 23.7396 18.5 24.3125C18.4479 24.8854 18.1354 25.1979 17.5625 25.25H14.4375ZM13.5 8.6875C13.5521 8.11458 13.8646 7.80208 14.4375 7.75H17.5625C18.1354 7.80208 18.4479 8.11458 18.5 8.6875C18.4479 9.26042 18.1354 9.57292 17.5625 9.625H14.4375C13.8646 9.57292 13.5521 9.26042 13.5 8.6875Z" fill="black" fill-opacity="0.72"/>
</g>
</svg>
