<svg width="32" height="32" viewBox="0 0 32 32" fill="none" xmlns="http://www.w3.org/2000/svg">
<g id="standalone / md / rectangle-barcode-md / regular">
<path id="icon" d="M7.25 9C6.88542 9 6.58594 9.11719 6.35156 9.35156C6.11719 9.58594 6 9.88542 6 10.25V22.75C6 23.1146 6.11719 23.4141 6.35156 23.6484C6.58594 23.8828 6.88542 24 7.25 24H24.75C25.1146 24 25.4141 23.8828 25.6484 23.6484C25.8828 23.4141 26 23.1146 26 22.75V10.25C26 9.88542 25.8828 9.58594 25.6484 9.35156C25.4141 9.11719 25.1146 9 24.75 9H7.25ZM4.75 10.25C4.77604 9.54688 5.02344 8.96094 5.49219 8.49219C5.96094 8.02344 6.54688 7.77604 7.25 7.75H24.75C25.4531 7.77604 26.0391 8.02344 26.5078 8.49219C26.9766 8.96094 27.224 9.54688 27.25 10.25V22.75C27.224 23.4531 26.9766 24.0391 26.5078 24.5078C26.0391 24.9766 25.4531 25.224 24.75 25.25H7.25C6.54688 25.224 5.96094 24.9766 5.49219 24.5078C5.02344 24.0391 4.77604 23.4531 4.75 22.75V10.25ZM8.5 12.125C8.52604 11.7344 8.73438 11.526 9.125 11.5C9.51562 11.526 9.72396 11.7344 9.75 12.125V20.875C9.72396 21.2656 9.51562 21.474 9.125 21.5C8.73438 21.474 8.52604 21.2656 8.5 20.875V12.125ZM19.75 12.125C19.776 11.7344 19.9844 11.526 20.375 11.5C20.7656 11.526 20.974 11.7344 21 12.125V20.875C20.974 21.2656 20.7656 21.474 20.375 21.5C19.9844 21.474 19.776 21.2656 19.75 20.875V12.125ZM22.875 11.5C23.2656 11.526 23.474 11.7344 23.5 12.125V20.875C23.474 21.2656 23.2656 21.474 22.875 21.5C22.4844 21.474 22.276 21.2656 22.25 20.875V12.125C22.276 11.7344 22.4844 11.526 22.875 11.5ZM11 12.125C11.026 11.7344 11.2344 11.526 11.625 11.5C12.0156 11.526 12.224 11.7344 12.25 12.125V20.875C12.224 21.2656 12.0156 21.474 11.625 21.5C11.2344 21.474 11.026 21.2656 11 20.875V12.125ZM14.125 11.5C14.5156 11.526 14.724 11.7344 14.75 12.125V20.875C14.724 21.2656 14.5156 21.474 14.125 21.5C13.7344 21.474 13.526 21.2656 13.5 20.875V12.125C13.526 11.7344 13.7344 11.526 14.125 11.5ZM16.625 12.125C16.651 11.7344 16.8594 11.526 17.25 11.5C17.6406 11.526 17.849 11.7344 17.875 12.125V20.875C17.849 21.2656 17.6406 21.474 17.25 21.5C16.8594 21.474 16.651 21.2656 16.625 20.875V12.125Z" fill="black" fill-opacity="0.72"/>
</g>
</svg>
