<svg width="32" height="32" viewBox="0 0 32 32" fill="none" xmlns="http://www.w3.org/2000/svg">
<g id="standalone / md / mobile-screen-button-md / bold">
<path id="icon" d="M11 24C11.026 24.3906 11.2344 24.599 11.625 24.625H20.375C20.7656 24.599 20.974 24.3906 21 24V20.875H11V24ZM11 19H21V9C20.974 8.60938 20.7656 8.40104 20.375 8.375H11.625C11.2344 8.40104 11.026 8.60938 11 9V19ZM9.125 9C9.15104 8.29688 9.39844 7.71094 9.86719 7.24219C10.3359 6.77344 10.9219 6.52604 11.625 6.5H20.375C21.0781 6.52604 21.6641 6.77344 22.1328 7.24219C22.6016 7.71094 22.849 8.29688 22.875 9V24C22.849 24.7031 22.6016 25.2891 22.1328 25.7578C21.6641 26.2266 21.0781 26.474 20.375 26.5H11.625C10.9219 26.474 10.3359 26.2266 9.86719 25.7578C9.39844 25.2891 9.15104 24.7031 9.125 24V9ZM14.75 22.125H17.25C17.6406 22.151 17.849 22.3594 17.875 22.75C17.849 23.1406 17.6406 23.349 17.25 23.375H14.75C14.3594 23.349 14.151 23.1406 14.125 22.75C14.151 22.3594 14.3594 22.151 14.75 22.125Z" fill="black" fill-opacity="0.72"/>
</g>
</svg>
