<svg width="24" height="16" viewBox="0 0 24 16" fill="none" xmlns="http://www.w3.org/2000/svg">
<g id="flags / flag-spain">
<g id="flag">
<path d="M0 2C0 0.895431 0.895431 0 2 0H22C23.1046 0 24 0.895431 24 2V4H0V2Z" fill="#DD172C"/>
<path d="M0 12H24V14C24 15.1046 23.1046 16 22 16H2C0.89543 16 0 15.1046 0 14V12Z" fill="#DD172C"/>
<path fill-rule="evenodd" clip-rule="evenodd" d="M22 1H2C1.44772 1 1 1.44772 1 2V14C1 14.5523 1.44772 15 2 15H22C22.5523 15 23 14.5523 23 14V2C23 1.44771 22.5523 1 22 1ZM2 0C0.895431 0 0 0.895431 0 2V14C0 15.1046 0.89543 16 2 16H22C23.1046 16 24 15.1046 24 14V2C24 0.895431 23.1046 0 22 0H2Z" fill="black" fill-opacity="0.08"/>
<path fill-rule="evenodd" clip-rule="evenodd" d="M24 4H0V12H24V4ZM7 5H6V5.89259L5.9259 5.87437L5.82556 5.84847C5.46753 5.75517 5.19189 5.68335 5.06958 6H5L5.02527 6.02523C4.42932 6.19019 4 6.66006 4 7.22V7H3V11H4V9.74C4 10.437 4.67395 11 5.5 11.002H7.5C8.328 11.002 9 10.442 9 9.742V11H10V7H9V7.222C9 6.6657 8.56836 6.19477 7.97375 6.02623L8 6H7.93005C7.80762 5.68593 7.53394 5.7567 7.17688 5.84912C7.12 5.86385 7.06091 5.87912 7 5.89348V5Z" fill="#FFCB00"/>
<path fill-rule="evenodd" clip-rule="evenodd" d="M9 7.222V9.742C9 10.442 8.328 11.002 7.5 11.002H5.5C4.67395 11 4 10.437 4 9.74V7.22C4 6.648 4.448 6.17 5.064 6.015C5.25 5.495 5.822 5.961 6.5 5.961C7.182 5.961 7.75 5.498 7.936 6.016C8.55 6.175 9 6.654 9 7.222Z" fill="#C8B47C"/>
<path fill-rule="evenodd" clip-rule="evenodd" d="M9 8H10V11H9V8ZM3 8H4V11H3V8Z" fill="#B5B5B5"/>
<path fill-rule="evenodd" clip-rule="evenodd" d="M9 10H10V11H9V10ZM3 10H4V11H3V10Z" fill="#165C96"/>
<path fill-rule="evenodd" clip-rule="evenodd" d="M9 7H10V8H9V7ZM3 7H4V8H3V7Z" fill="#A0790A"/>
<path fill-rule="evenodd" clip-rule="evenodd" d="M5 7H6V8.5H5V7ZM7 9H8V10.5H7V9Z" fill="#D20636"/>
<path fill-rule="evenodd" clip-rule="evenodd" d="M7 7H8V8.5H7V7Z" fill="#A18793"/>
<path fill-rule="evenodd" clip-rule="evenodd" d="M5 9H6V10.5H5V9Z" fill="#FFE100"/>
<path fill-rule="evenodd" clip-rule="evenodd" d="M6 7L5 6H8L7 7H6Z" fill="#B6161A"/>
<path fill-rule="evenodd" clip-rule="evenodd" d="M6 5H7V6H6V5Z" fill="#AC9300"/>
</g>
</g>
</svg>
