<svg width="24" height="16" viewBox="0 0 24 16" fill="none" xmlns="http://www.w3.org/2000/svg">
<g id="flags / flag-brazil">
<g id="flag">
<path d="M22 0H2C0.89543 0 0 0.89543 0 2V14C0 15.1046 0.89543 16 2 16H22C23.1046 16 24 15.1046 24 14V2C24 0.89543 23.1046 0 22 0Z" fill="#009C34"/>
<path fill-rule="evenodd" clip-rule="evenodd" d="M12 2.5L19.5 8L12 13.5L4.5 8" fill="#F8E23D"/>
<path d="M15.4346 8.67724C15.3294 9.21356 15.1018 9.70597 14.782 10.1242C13.051 8.40328 10.9334 7.65999 8.51941 7.62974C8.57625 7.08912 8.75617 6.58517 9.03063 6.14642C11.4091 6.26541 13.5932 7.02933 15.4346 8.67724Z" fill="#D9D9D9"/>
<path d="M9.03063 6.14642C11.4091 6.26541 13.5932 7.02933 15.4346 8.67724C15.4776 8.45814 15.5 8.23169 15.5 8C15.5 6.067 13.933 4.5 12 4.5C10.7478 4.5 9.64916 5.15765 9.03063 6.14642Z" fill="#002478"/>
<path fill-rule="evenodd" clip-rule="evenodd" d="M12 11.5C13.1342 11.5 14.1425 10.9605 14.782 10.1242C13.051 8.40328 10.9334 7.65999 8.51941 7.62974C8.50659 7.75141 8.5 7.87494 8.5 8C8.5 9.933 10.067 11.5 12 11.5ZM9.5 8.5H10.5V9.5H9.5V8.5ZM10.5 9.5H11.5V10.5H10.5V9.5ZM13.5 9.5H12.5V10.5H13.5V9.5Z" fill="#002478"/>
<path d="M9.5 8.5H10.5V9.5H9.5V8.5Z" fill="#D9D9D9"/>
<path d="M10.5 9.5H11.5V10.5H10.5V9.5Z" fill="#D9D9D9"/>
<path d="M12.5 9.5H13.5V10.5H12.5V9.5Z" fill="#D9D9D9"/>
<path fill-rule="evenodd" clip-rule="evenodd" d="M22 1H2C1.44772 1 1 1.44772 1 2V14C1 14.5523 1.44772 15 2 15H22C22.5523 15 23 14.5523 23 14V2C23 1.44771 22.5523 1 22 1ZM2 0C0.89543 0 0 0.89543 0 2V14C0 15.1046 0.89543 16 2 16H22C23.1046 16 24 15.1046 24 14V2C24 0.89543 23.1046 0 22 0H2Z" fill="black" fill-opacity="0.08"/>
</g>
</g>
</svg>
