<svg width="24" height="16" viewBox="0 0 24 16" fill="none" xmlns="http://www.w3.org/2000/svg">
<g id="flags / flag-central african republic">
<g id="flag">
<path d="M10 0H2C0.89543 0 0 0.89543 0 2V4H10V0Z" fill="#002D84"/>
<path d="M14 0V4H24V2C24 0.89543 23.1046 0 22 0H14Z" fill="#002D84"/>
<path d="M14 4H24V8H14V4Z" fill="white"/>
<path d="M10 4H0V8H10V4Z" fill="white"/>
<path d="M14 8H24V12H14V8Z" fill="#20981D"/>
<path d="M10 8H0V12H10V8Z" fill="#20981D"/>
<path d="M10 12H0V14C0 15.1046 0.89543 16 2 16H10V12Z" fill="#FDD200"/>
<path d="M14 12V16H22C23.1046 16 24 15.1046 24 14V12H14Z" fill="#FDD200"/>
<path fill-rule="evenodd" clip-rule="evenodd" d="M3.83333 1.83333H4.66667V2.66667H3.83333V1.83333Z" fill="#FFCF00"/>
<path fill-rule="evenodd" clip-rule="evenodd" d="M3 1.83333H3.83333V2.66667H3V1.83333ZM4.66667 1.83333H5.5V2.66667H4.66667V1.83333ZM3.83333 2.66667H4.66667V3.5H3.83333V2.66667ZM3.83333 1H4.66667V1.83333H3.83333V1Z" fill="#A7972D"/>
<path d="M10 0H14V16H10V0Z" fill="#D4062E"/>
<path fill-rule="evenodd" clip-rule="evenodd" d="M22 1H2C1.44772 1 1 1.44772 1 2V14C1 14.5523 1.44772 15 2 15H22C22.5523 15 23 14.5523 23 14V2C23 1.44771 22.5523 1 22 1ZM2 0C0.89543 0 0 0.89543 0 2V14C0 15.1046 0.89543 16 2 16H22C23.1046 16 24 15.1046 24 14V2C24 0.89543 23.1046 0 22 0H2Z" fill="black" fill-opacity="0.08"/>
</g>
</g>
</svg>
