<svg width="24" height="16" viewBox="0 0 24 16" fill="none" xmlns="http://www.w3.org/2000/svg">
<g id="flags / flag-rwanda">
<g id="flag">
<path d="M2 16H22C23.1046 16 24 15.1046 24 14V13H0V14C0 15.1046 0.89543 16 2 16Z" fill="#2D754D"/>
<path d="M24 10H5.00002e-08L0 13H24V10Z" fill="#FECB2F"/>
<path d="M2 0H22C23.1046 0 24 0.89543 24 2V10H5.00002e-08L0 2C0 0.89543 0.89543 0 2 0Z" fill="#25B1EB"/>
<path d="M18.9897 2L19.1107 4.07059L19.7635 2.10187L19.3445 4.13323L20.4846 2.40054L19.554 4.25423L21.1037 2.87566L19.7252 4.42535L21.5789 3.49485L19.8462 4.63494L21.8775 4.21591L19.9088 4.8687L21.9794 4.9897L19.9088 5.1107L21.8775 5.76349L19.8462 5.34446L21.5789 6.48455L19.7252 5.55404L21.1037 7.10374L19.554 5.72517L20.4846 7.57886L19.3445 5.84617L19.7635 7.87753L19.1107 5.90881L18.9897 7.9794L18.8687 5.90881L18.2159 7.87753L18.6349 5.84617L17.4949 7.57886L18.4254 5.72517L16.8757 7.10374L18.2542 5.55404L16.4005 6.48455L18.1332 5.34446L16.1019 5.76349L18.0706 5.1107L16 4.9897L18.0706 4.8687L16.1019 4.21591L18.1332 4.63494L16.4005 3.49485L18.2542 4.42535L16.8757 2.87566L18.4254 4.25423L17.4949 2.40054L18.6349 4.13323L18.2159 2.10187L18.8687 4.07059L18.9897 2ZM18.9897 4.06266C18.4777 4.06266 18.0627 4.47771 18.0627 4.9897C18.0627 5.50169 18.4777 5.91674 18.9897 5.91674C19.5017 5.91674 19.9167 5.50169 19.9167 4.9897C19.9167 4.47771 19.5017 4.06266 18.9897 4.06266ZM18.9897 4.15021C19.4533 4.15021 19.8292 4.52606 19.8292 4.9897C19.8292 5.45333 19.4533 5.82918 18.9897 5.82918C18.5261 5.82918 18.1502 5.45333 18.1502 4.9897C18.1502 4.52606 18.5261 4.15021 18.9897 4.15021Z" fill="#FECB2F"/>
<path fill-rule="evenodd" clip-rule="evenodd" d="M22 1H2C1.44772 1 1 1.44772 1 2V14C1 14.5523 1.44772 15 2 15H22C22.5523 15 23 14.5523 23 14V2C23 1.44771 22.5523 1 22 1ZM2 0C0.89543 0 0 0.89543 0 2L0 14C0 15.1046 0.89543 16 2 16H22C23.1046 16 24 15.1046 24 14V2C24 0.89543 23.1046 0 22 0H2Z" fill="black" fill-opacity="0.08"/>
</g>
</g>
</svg>
