<svg width="24" height="16" viewBox="0 0 24 16" fill="none" xmlns="http://www.w3.org/2000/svg">
<g id="flag-afghanistan">
<g id="flag">
<path d="M16 0H22C23.1046 0 24 0.89543 24 2V14C24 15.1046 23.1046 16 22 16H16V0Z" fill="#009B00"/>
<path d="M16 0H8V16H16V0Z" fill="#C10000"/>
<path fill-rule="evenodd" clip-rule="evenodd" d="M12 10.5C13.38 10.5 14.5 9.38 14.5 8C14.5 6.62 13.38 5.5 12 5.5C10.62 5.5 9.5 6.62 9.5 8C9.5 9.38 10.62 10.5 12 10.5ZM12 9.5C12.828 9.5 13.5 8.605 13.5 7.5C13.5 6.395 12.828 5.5 12 5.5C11.172 5.5 10.5 6.395 10.5 7.5C10.5 8.605 11.172 9.5 12 9.5ZM12 8.5C12.276 8.5 12.5 8.052 12.5 7.5C12.5 6.948 12.276 6.5 12 6.5C11.724 6.5 11.5 6.948 11.5 7.5C11.5 8.052 11.724 8.5 12 8.5Z" fill="white"/>
<path d="M2 0H8V16H2C0.89543 16 0 15.1046 0 14V2C0 0.89543 0.89543 0 2 0Z" fill="#333333"/>
<path fill-rule="evenodd" clip-rule="evenodd" d="M22 1H2C1.44772 1 1 1.44772 1 2V14C1 14.5523 1.44772 15 2 15H22C22.5523 15 23 14.5523 23 14V2C23 1.44771 22.5523 1 22 1ZM2 0C0.89543 0 0 0.89543 0 2V14C0 15.1046 0.89543 16 2 16H22C23.1046 16 24 15.1046 24 14V2C24 0.89543 23.1046 0 22 0H2Z" fill="black" fill-opacity="0.08"/>
</g>
</g>
</svg>
