<svg width="24" height="16" viewBox="0 0 24 16" fill="none" xmlns="http://www.w3.org/2000/svg">
<g id="flags / flag-china">
<g id="flag">
<path fill-rule="evenodd" clip-rule="evenodd" d="M2 0H22C23.1046 0 24 0.895432 24 2V14C24 15.1046 23.1046 16 22 16H2C0.895386 16 0 15.1046 0 14V2C0 0.895432 0.895386 0 2 0ZM8.8927 2.86118L8.39282 2.40598L8.27917 3.0724L7.82397 3.57222L8.49048 3.68583L8.99023 4.14103L9.10388 3.47461L9.55908 2.97479L8.8927 2.86118ZM10.5266 4.31394L10.511 4.9898L10.8624 5.56729L10.1865 5.55166L9.60913 5.90313L9.62476 5.22727L9.27319 4.64978L9.9491 4.66541L10.5266 4.31394ZM10.1475 6.95054L9.54163 6.65074L9.61609 7.32266L9.31628 7.92859L9.98816 7.85411L10.5941 8.15391L10.5197 7.48199L10.8195 6.87606L10.1475 6.95054ZM9.13025 9.10323L9.12231 8.42724L8.55737 8.79865L7.88147 8.80661L8.25281 9.37148L8.26086 10.0475L8.82568 9.67606L9.50171 9.6681L9.13025 9.10323ZM5.48022 7.09954L3.8623 8.25291L4.45935 6.35778L2.86243 5.17547L4.84924 5.15758L5.48022 3.27351L6.11121 5.15758L8.09802 5.17547L6.50122 6.35778L7.09814 8.25291L5.48022 7.09954Z" fill="#F1361D"/>
<path d="M9.13025 9.10323L9.12231 8.42724L8.55737 8.79865L7.88147 8.80661L8.25281 9.37148L8.26086 10.0475L8.82568 9.67606L9.50171 9.6681L9.13025 9.10323Z" fill="#FFDC42"/>
<path d="M10.1475 6.95054L9.54163 6.65074L9.61609 7.32266L9.31628 7.92859L9.98816 7.85411L10.5941 8.15391L10.5197 7.48199L10.8195 6.87606L10.1475 6.95054Z" fill="#FFDC42"/>
<path d="M10.511 4.9898L10.5266 4.31394L9.9491 4.66541L9.27319 4.64978L9.62476 5.22727L9.60913 5.90313L10.1865 5.55166L10.8624 5.56729L10.511 4.9898Z" fill="#FFDC42"/>
<path d="M8.8927 2.86118L8.39282 2.40598L8.27917 3.0724L7.82397 3.57222L8.49048 3.68583L8.99023 4.14103L9.10388 3.47461L9.55908 2.97479L8.8927 2.86118Z" fill="#FFDC42"/>
<path d="M3.8623 8.25291L5.48022 7.09954L7.09814 8.25291L6.50122 6.35778L8.09802 5.17547L6.11121 5.15758L5.48022 3.27351L4.84924 5.15758L2.86243 5.17547L4.45935 6.35778L3.8623 8.25291Z" fill="#FFDC42"/>
<path fill-rule="evenodd" clip-rule="evenodd" d="M22 1H2C1.44772 1 1 1.44772 1 2V14C1 14.5523 1.44772 15 2 15H22C22.5523 15 23 14.5523 23 14V2C23 1.44771 22.5523 1 22 1ZM2 0C0.895386 0 0 0.895432 0 2V14C0 15.1046 0.895386 16 2 16H22C23.1046 16 24 15.1046 24 14V2C24 0.895432 23.1046 0 22 0H2Z" fill="black" fill-opacity="0.08"/>
</g>
</g>
</svg>
