<svg width="24" height="16" viewBox="0 0 24 16" fill="none" xmlns="http://www.w3.org/2000/svg">
<g id="flag-andorra">
<g id="flag">
<path d="M16 0H22C23.1046 0 24 0.89543 24 2V14C24 15.1046 23.1046 16 22 16H16V0Z" fill="#D20636"/>
<path d="M16 0H8V16H16V0Z" fill="#FFE100"/>
<path d="M2 0H8V16H2C0.89543 16 0 15.1046 0 14V2C0 0.89543 0.89543 0 2 0Z" fill="#0006AB"/>
<path fill-rule="evenodd" clip-rule="evenodd" d="M13.436 10.435C14.05 10.248 14.5 9.677 14.5 9V6C14.5 5.165 13.828 4.5 13 4.5H11C10.174 4.5 9.5 5.17 9.5 6V9C9.5 9.682 9.948 10.25 10.564 10.436C10.75 11.056 11.322 11.5 12 11.5C12.682 11.5 13.25 11.05 13.436 10.435Z" fill="#C8B47C"/>
<path fill-rule="evenodd" clip-rule="evenodd" d="M10.5 5.5H11.5V7H10.5V5.5ZM12.5 7.5H13.5V9H12.5V7.5Z" fill="#D20636"/>
<path fill-rule="evenodd" clip-rule="evenodd" d="M12.5 5.5H13.5V7H12.5V5.5ZM10.5 7.5H11.5V9H10.5V7.5Z" fill="#FFE100"/>
<path fill-rule="evenodd" clip-rule="evenodd" d="M22 1H2C1.44772 1 1 1.44772 1 2V14C1 14.5523 1.44772 15 2 15H22C22.5523 15 23 14.5523 23 14V2C23 1.44771 22.5523 1 22 1ZM2 0C0.89543 0 0 0.89543 0 2V14C0 15.1046 0.89543 16 2 16H22C23.1046 16 24 15.1046 24 14V2C24 0.89543 23.1046 0 22 0H2Z" fill="black" fill-opacity="0.08"/>
</g>
</g>
</svg>
