<svg width="24" height="16" viewBox="0 0 24 16" fill="none" xmlns="http://www.w3.org/2000/svg">
<g id="flags / flag-israel">
<g id="flag">
<path d="M22 0H2C0.89543 0 0 0.89543 0 2V14C0 15.1046 0.89543 16 2 16H22C23.1046 16 24 15.1046 24 14V2C24 0.89543 23.1046 0 22 0Z" fill="white"/>
<path fill-rule="evenodd" clip-rule="evenodd" d="M12 3.27635L13.3187 5.65H15.9298L14.6243 8L15.9298 10.35H13.3187L12 12.7236L10.6813 10.35H8.07019L9.37575 8L8.07019 5.65H10.6813L12 3.27635ZM10.2369 6.45H9.42981L9.83333 7.17635L10.2369 6.45ZM10.2909 8L11.152 6.45H12.848L13.7091 8L12.848 9.55H11.152L10.2909 8ZM9.83333 8.82365L9.42981 9.55H10.2369L9.83333 8.82365ZM11.5965 10.35L12 11.0764L12.4035 10.35H11.5965ZM13.7631 9.55H14.5702L14.1667 8.82365L13.7631 9.55ZM14.1667 7.17635L14.5702 6.45H13.7631L14.1667 7.17635ZM12.4035 5.65H11.5965L12 4.92365L12.4035 5.65Z" fill="#0137B7"/>
<path d="M0 2H24V3H0V2Z" fill="#0137B7"/>
<path d="M0 13H24V14H0V13Z" fill="#0137B7"/>
<path fill-rule="evenodd" clip-rule="evenodd" d="M22 1H2C1.44772 1 1 1.44772 1 2V14C1 14.5523 1.44772 15 2 15H22C22.5523 15 23 14.5523 23 14V2C23 1.44771 22.5523 1 22 1ZM2 0C0.89543 0 0 0.89543 0 2V14C0 15.1046 0.89543 16 2 16H22C23.1046 16 24 15.1046 24 14V2C24 0.89543 23.1046 0 22 0H2Z" fill="black" fill-opacity="0.08"/>
</g>
</g>
</svg>
