<svg width="24" height="16" viewBox="0 0 24 16" fill="none" xmlns="http://www.w3.org/2000/svg">
<g id="flags / flag-bahrain">
<g id="flag">
<path d="M21.9915 16H7L9 14.4L7 12.8L9 11.2L7 9.6L9 8L7 6.4L9 4.8L7 3.2L9 1.6L7 0H21.9915C23.098 0 24 0.892771 24 1.99406V14.0059C24 15.1055 23.1007 16 21.9915 16Z" fill="#DE233C"/>
<path d="M2.00853 0C0.90195 0 0 0.892771 0 1.99406V14.0059C0 15.1055 0.89925 16 2.00853 16H7L9 14.4L7 12.8L9 11.2L7 9.6L9 8L7 6.4L9 4.8L7 3.2L9 1.6L7 0H2.00853Z" fill="white"/>
<path fill-rule="evenodd" clip-rule="evenodd" d="M22 1H2C1.44772 1 1 1.44772 1 2V14C1 14.5523 1.44772 15 2 15H22C22.5523 15 23 14.5523 23 14V2C23 1.44771 22.5523 1 22 1ZM2 0C0.895431 0 0 0.895431 0 2V14C0 15.1046 0.89543 16 2 16H22C23.1046 16 24 15.1046 24 14V2C24 0.895431 23.1046 0 22 0H2Z" fill="black" fill-opacity="0.08"/>
</g>
</g>
</svg>
