<svg width="24" height="16" viewBox="0 0 24 16" fill="none" xmlns="http://www.w3.org/2000/svg">
<g id="flag-bahamas" clip-path="url(#clip0_708_1892)">
<g id="flag">
<path d="M7.5 11L12 8L7.5 5H24V11H7.5Z" fill="#FBE22B"/>
<path d="M0 2V14C0 14.6123 0.275391 15.1602 0.708984 15.5273L12 8L0.708984 0.472656C0.275391 0.839844 0 1.3877 0 2Z" fill="#333333"/>
<path d="M2 0C0.895431 0 0 0.895431 0 2C0 1.3877 0.275391 0.839844 0.708984 0.472656L7.5 5H24V2C24 0.895431 23.1046 0 22 0H2Z" fill="#00ABCB"/>
<path d="M7.5 11H24V14C24 15.1046 23.1046 16 22 16H2C0.897589 16 0.00350153 15.1081 1.0252e-05 14.0065C0.00194257 14.6162 0.276918 15.1615 0.708984 15.5273L7.5 11Z" fill="#00ABCB"/>
<path fill-rule="evenodd" clip-rule="evenodd" d="M22 1H2C1.44772 1 1 1.44772 1 2V14C1 14.5523 1.44772 15 2 15H22C22.5523 15 23 14.5523 23 14V2C23 1.44771 22.5523 1 22 1ZM2 0C0.895431 0 0 0.895431 0 2V14C0 15.1046 0.89543 16 2 16H22C23.1046 16 24 15.1046 24 14V2C24 0.895431 23.1046 0 22 0H2Z" fill="black" fill-opacity="0.08"/>
</g>
</g>
<defs>
<clipPath id="clip0_708_1892">
<rect width="24" height="16" fill="white"/>
</clipPath>
</defs>
</svg>
