<svg width="24" height="16" viewBox="0 0 24 16" fill="none" xmlns="http://www.w3.org/2000/svg">
<g id="flags / flag-slovakia">
<g id="flag">
<path d="M2 16H22C23.1046 16 24 15.1046 24 14V11H0V14C0 15.1046 0.89543 16 2 16Z" fill="#E53B35"/>
<path d="M24 5H0L0 11H24V5Z" fill="#0C47B7"/>
<path d="M2 0H22C23.1046 0 24 0.89543 24 2V5H0V2C0 0.89543 0.89543 0 2 0Z" fill="white"/>
<path d="M10.3985 2.13333H5.60147C4.4369 2.13333 3.4711 3.06433 3.42637 4.22714L3.24187 9.0242C3.20662 9.94063 3.68736 11.0417 4.38257 11.6376L6.09372 13.1043C7.16247 14.0203 8.83745 14.0204 9.90628 13.1043L11.6174 11.6376C12.3157 11.0391 12.7934 9.94121 12.7581 9.0242L12.5736 4.22714C12.5289 3.06333 11.5621 2.13333 10.3985 2.13333Z" fill="white"/>
<path d="M10.3985 2.13333H5.60147C4.4369 2.13333 3.4711 3.06433 3.42637 4.22714L3.24187 9.0242C3.20662 9.94063 3.68736 11.0417 4.38257 11.6376L6.09372 13.1043C7.16247 14.0203 8.83745 14.0204 9.90628 13.1043L11.6174 11.6376C12.3157 11.0391 12.7934 9.94121 12.7581 9.0242L12.5736 4.22714C12.5289 3.06333 11.5621 2.13333 10.3985 2.13333Z" fill="#E53B35"/>
<path fill-rule="evenodd" clip-rule="evenodd" d="M7.46667 8.79492C7.46667 8.65045 7.34112 8.53333 7.20246 8.53333H6.13087C5.98496 8.53333 5.86667 8.41918 5.86667 8.26417V7.73583C5.86667 7.58718 5.99222 7.46667 6.13087 7.46667H7.20246C7.34838 7.46667 7.46667 7.35251 7.46667 7.1975V6.66916C7.46667 6.52051 7.35251 6.4 7.1975 6.4H6.66916C6.52051 6.4 6.4 6.28585 6.4 6.13083V5.6025C6.4 5.45384 6.51415 5.33333 6.66916 5.33333H7.1975C7.34616 5.33333 7.46667 5.21918 7.46667 5.06417V4.53583C7.46667 4.38718 7.58082 4.26667 7.73583 4.26667H8.26417C8.41282 4.26667 8.53333 4.38082 8.53333 4.53583V5.06417C8.53333 5.21282 8.64748 5.33333 8.8025 5.33333H9.33083C9.47949 5.33333 9.6 5.44748 9.6 5.6025V6.13083C9.6 6.27949 9.48585 6.4 9.33083 6.4H8.8025C8.65384 6.4 8.53333 6.51415 8.53333 6.66916V7.1975C8.53333 7.34616 8.65888 7.46667 8.79754 7.46667H9.86913C10.015 7.46667 10.1333 7.58082 10.1333 7.73583V8.26417C10.1333 8.41282 10.0078 8.53333 9.86913 8.53333H8.79754C8.65162 8.53333 8.53333 8.64803 8.53333 8.79492V10.4051C8.53333 10.5495 8.41918 10.6667 8.26417 10.6667H7.73583C7.58718 10.6667 7.46667 10.552 7.46667 10.4051V8.79492Z" fill="white"/>
<path d="M10.3985 2.13333H5.60147C4.4369 2.13333 3.4711 3.06433 3.42637 4.22714L3.24187 9.0242C3.20662 9.94063 3.68736 11.0417 4.38257 11.6376L6.09372 13.1043C7.16247 14.0203 8.83745 14.0204 9.90628 13.1043L11.6174 11.6376C12.3157 11.0391 12.7934 9.94121 12.7581 9.0242L12.5736 4.22714C12.5289 3.06333 11.5621 2.13333 10.3985 2.13333ZM10.3985 3.2C10.9884 3.2 11.485 3.67656 11.5077 4.26814L11.6923 9.06519C11.7149 9.65511 11.3754 10.4402 10.9233 10.8277L9.21211 12.2944C8.54268 12.8682 7.45714 12.868 6.78789 12.2944L5.07674 10.8277C4.62935 10.4442 4.285 9.65678 4.30775 9.06519L4.49225 4.26814C4.51494 3.67822 5.00989 3.2 5.60147 3.2H10.3985Z" fill="white"/>
<path d="M5.5528 11.2357C5.93939 11.0065 6.45245 10.8324 7.03815 10.7402C7.20905 10.3812 7.57562 10.1333 7.99994 10.1333C8.42438 10.1333 8.79083 10.3812 8.96271 10.74C9.54804 10.8322 10.0609 11.0064 10.4473 11.2356L9.21211 12.2944C8.54268 12.8682 7.45714 12.868 6.78789 12.2944L5.5528 11.2357Z" fill="#1251A1"/>
<path fill-rule="evenodd" clip-rule="evenodd" d="M22 1H2C1.44772 1 1 1.44772 1 2V14C1 14.5523 1.44772 15 2 15H22C22.5523 15 23 14.5523 23 14V2C23 1.44771 22.5523 1 22 1ZM2 0C0.89543 0 0 0.89543 0 2L0 14C0 15.1046 0.89543 16 2 16H22C23.1046 16 24 15.1046 24 14V2C24 0.89543 23.1046 0 22 0H2Z" fill="black" fill-opacity="0.08"/>
</g>
</g>
</svg>
