<svg width="24" height="16" viewBox="0 0 24 16" fill="none" xmlns="http://www.w3.org/2000/svg">
<g id="flags / flag-bhutan">
<g id="flag">
<path d="M2.00002 15.9999H22C23.1045 15.9999 24 15.1045 24 14V1.99998C24 1.38755 23.7247 0.839415 23.2911 0.472548L0.708861 15.5274C1.05726 15.8222 1.50788 15.9999 2.00002 15.9999Z" fill="#FF4D00"/>
<path d="M21.9999 0H1.99999C0.895427 0 0 0.895428 0 1.99999V14C0 14.6124 0.275295 15.1605 0.708861 15.5274L23.2911 0.472548C22.9427 0.177742 22.4921 0 21.9999 0Z" fill="#FFD700"/>
<path fill-rule="evenodd" clip-rule="evenodd" d="M2.00002 0.999997H22C22.5522 0.999997 23 1.44771 23 1.99999V14C23 14.5522 22.5522 15 22 15H2.00002C1.44773 15 1.00002 14.5522 1.00002 14V1.99999C1.00002 1.44771 1.44773 0.999997 2.00002 0.999997ZM21.9999 0C23.1045 0 24 0.895418 24 1.99998V14C24 15.1045 23.1045 15.9999 22 15.9999H2.00002C0.895452 15.9999 0 15.1045 0 14V1.99999C0 0.895428 0.895427 0 1.99999 0H21.9999Z" fill="black" fill-opacity="0.08"/>
<path fill-rule="evenodd" clip-rule="evenodd" d="M5.00001 10.5L5.50001 12L7.5 12.5L8 11.5L12 12L11 9.49997H13L16 10.5L17 9.49997L14 8.49997L15 7.49997H18L18.5 6.49998H16V5.49998H18L19 4.49998L15 3.49998L12 6.49998L13 7.49997L10 6.99997L8 10.5L6.99631 11.2851L5.00001 10.5Z" fill="white"/>
</g>
</g>
</svg>
