<svg width="24" height="16" viewBox="0 0 24 16" fill="none" xmlns="http://www.w3.org/2000/svg">
<g id="flags / flag-democratic republic of the congo">
<g id="flag">
<path fill-rule="evenodd" clip-rule="evenodd" d="M2 0H17.9904L0 10.3867V2C0 0.895432 0.895386 0 2 0ZM3.30798 4.366L3.02795 6.00301L4.49805 5.23L5.96704 6.00201L5.68494 4.366L6.875 3.206L5.23206 2.969L4.49805 1.479L3.76294 2.969L2.12 3.206L3.30798 4.366Z" fill="#007BFF"/>
<path d="M22 16H6.27747L24 5.76792V14C24 15.1046 23.1046 16 22 16Z" fill="#007BFF"/>
<path d="M0 10.3867L17.9904 0H19.9903L0 11.5414V10.3867Z" fill="#F8D800"/>
<path d="M6.27747 16H4.2775L24 4.61321V5.76792L6.27747 16Z" fill="#F8D800"/>
<path d="M0 11.5414L19.9903 0H22C23.1046 0 24 0.89543 24 2V4.61321L4.2775 16H2C0.89543 16 0 15.1046 0 14V11.5414Z" fill="#D00817"/>
<path fill-rule="evenodd" clip-rule="evenodd" d="M4.49805 5.23L3.02795 6.00301L3.30798 4.366L2.12 3.206L3.76294 2.969L4.49805 1.479L5.23206 2.969L6.875 3.206L5.68494 4.366L5.96704 6.00201" fill="#FFE000"/>
<path fill-rule="evenodd" clip-rule="evenodd" d="M22 1H2C1.44772 1 1 1.44772 1 2V14C1 14.5523 1.44772 15 2 15H22C22.5523 15 23 14.5523 23 14V2C23 1.44771 22.5523 1 22 1ZM2 0C0.895386 0 0 0.895432 0 2V14C0 15.1046 0.89543 16 2 16H22C23.1046 16 24 15.1046 24 14V2C24 0.89543 23.1046 0 22 0H2Z" fill="black" fill-opacity="0.08"/>
</g>
</g>
</svg>
