<svg width="24" height="16" viewBox="0 0 24 16" fill="none" xmlns="http://www.w3.org/2000/svg">
<g id="flag-bosnia and herzegovina">
<g id="flag">
<path d="M22 16H2C0.895429 16 0 15.1045 0 14V1.99999C0 1.38756 0.275272 0.839416 0.708838 0.472549L23.2911 15.5274C22.9427 15.8222 22.4921 16 22 16Z" fill="#001C98"/>
<path d="M2.00002 0H22C23.1046 0 24 0.895429 24 2V14C24 14.6124 23.7247 15.1605 23.2911 15.5274L0.708838 0.472549C1.05724 0.177743 1.50788 0 2.00002 0Z" fill="#FFCC00"/>
<path fill-rule="evenodd" clip-rule="evenodd" d="M2 3H3V3.99999H2V3ZM4.99999 4.99999H5.99999V5.99999H4.99999V4.99999ZM7.99999 6.99999H8.99999V7.99999H7.99999V6.99999ZM11 8.99999H12V9.99999H11V8.99999ZM14 11H15V12H14V11ZM17 13H18V14H17V13Z" fill="white"/>
<path fill-rule="evenodd" clip-rule="evenodd" d="M22 0.999999H2C1.44771 0.999999 0.999999 1.44771 0.999999 2V14C0.999999 14.5523 1.44771 15 2 15H22C22.5523 15 23 14.5523 23 14V2C23 1.44771 22.5523 0.999999 22 0.999999ZM2.00002 0C0.895452 0 0 0.895419 0 1.99999V14C0 15.1045 0.895429 16 2 16H22C23.1045 16 24 15.1046 24 14V2C24 0.895429 23.1046 0 22 0H2.00002Z" fill="black" fill-opacity="0.08"/>
</g>
</g>
</svg>
