<svg width="24" height="16" viewBox="0 0 24 16" fill="none" xmlns="http://www.w3.org/2000/svg">
<g id="flags / flag-belize">
<g id="flag">
<path d="M0 13H24V14C24 15.1046 23.1046 16 22 16H2C0.89543 16 0 15.1046 0 14V13Z" fill="#D0091E"/>
<path fill-rule="evenodd" clip-rule="evenodd" d="M0 3H24V13H0V3ZM16.5 8C16.5 10.4853 14.4853 12.5 12 12.5C9.51472 12.5 7.5 10.4853 7.5 8C7.5 5.51472 9.51472 3.5 12 3.5C14.4853 3.5 16.5 5.51472 16.5 8Z" fill="#003D89"/>
<path fill-rule="evenodd" clip-rule="evenodd" d="M16.5 8C16.5 10.4853 14.4853 12.5 12 12.5C9.51472 12.5 7.5 10.4853 7.5 8C7.5 5.51472 9.51472 3.5 12 3.5C14.4853 3.5 16.5 5.51472 16.5 8ZM9.5 5.5H10.5V6.5H9.5V5.5ZM13.5 6.5V8.5H14V9.5H14.5V10.5H13.5V9.5H10.5V10.5H9.5V9.5H10V8.5H10.5V6.5H11.5V8.5H12.5V6.5H13.5ZM13.5 6.5V5.5H14.5V6.5H13.5ZM11.5 5.5V4.5H12.5V5.5H11.5ZM14.5 7.5H15.5V8.5H14.5V7.5ZM12.5 11.5V10.5H11.5V11.5H12.5ZM9.5 7.5H8.5V8.5H9.5V7.5Z" fill="white"/>
<path fill-rule="evenodd" clip-rule="evenodd" d="M10 8.5H14V9.5H10V8.5Z" fill="#CBCBCB"/>
<path fill-rule="evenodd" clip-rule="evenodd" d="M9.5 5.5H10.5V6.5H9.5V5.5ZM11.5 4.5H12.5V5.5H11.5V4.5ZM13.5 5.5H14.5V6.5H13.5V5.5ZM14.5 7.5H15.5V8.5H14.5V7.5ZM13.5 9.5H14.5V10.5H13.5V9.5Z" fill="#5E9F47"/>
<path fill-rule="evenodd" clip-rule="evenodd" d="M12.5 6.5H13.5V7.5H12.5V6.5Z" fill="#580A00"/>
<path fill-rule="evenodd" clip-rule="evenodd" d="M12.5 7.5H13.5V8.5H12.5V7.5Z" fill="#B54B00"/>
<path fill-rule="evenodd" clip-rule="evenodd" d="M10.5 6.5H11.5V7.5H10.5V6.5Z" fill="#BD6100"/>
<path fill-rule="evenodd" clip-rule="evenodd" d="M10.5 7.5H11.5V8.5H10.5V7.5Z" fill="#F9B626"/>
<path fill-rule="evenodd" clip-rule="evenodd" d="M11.5 10.5H12.5V11.5H11.5V10.5ZM9.5 9.5H10.5V10.5H9.5V9.5ZM8.5 7.5H9.5V8.5H8.5V7.5Z" fill="#5E9F47"/>
<path d="M2 0H22C23.1046 0 24 0.89543 24 2V3H0V2C0 0.89543 0.89543 0 2 0Z" fill="#D0091E"/>
<path fill-rule="evenodd" clip-rule="evenodd" d="M22 1H2C1.44772 1 1 1.44772 1 2V14C1 14.5523 1.44772 15 2 15H22C22.5523 15 23 14.5523 23 14V2C23 1.44771 22.5523 1 22 1ZM2 0C0.89543 0 0 0.89543 0 2V14C0 15.1046 0.89543 16 2 16H22C23.1046 16 24 15.1046 24 14V2C24 0.89543 23.1046 0 22 0H2Z" fill="black" fill-opacity="0.08"/>
</g>
</g>
</svg>
