<svg width="24" height="16" viewBox="0 0 24 16" fill="none" xmlns="http://www.w3.org/2000/svg">
<g id="flags / flag-hong kong">
<g id="flag">
<path d="M22 0H2C0.89543 0 0 0.89543 0 2V14C0 15.1046 0.89543 16 2 16H22C23.1046 16 24 15.1046 24 14V2C24 0.89543 23.1046 0 22 0Z" fill="#F0371D"/>
<path d="M15.4772 10.7051C15.9502 12.1609 15.444 13.63 14.3467 13.9866C13.9404 12.7361 13.2374 12.8263 13.042 12.2249C12.8022 11.487 12.7414 11.2996 13.062 10.0328C13.3826 8.76587 12.0926 8.89063 12.6338 8.71481C13.7311 8.35825 15.0042 9.24933 15.4772 10.7051ZM11.6087 9.23531C12.2869 10.1688 11.8328 11.6549 10.5945 12.5546C9.35612 13.4543 7.80244 13.4269 7.12423 12.4935C8.188 11.7206 7.88492 11.08 8.39655 10.7082C9.02427 10.2522 9.18361 10.1364 10.4876 10.0499C11.7915 9.96328 11.2742 8.77501 11.6087 9.23531ZM9.24228 11.2836C9.08749 11.396 9.05363 11.6133 9.16667 11.7689C9.27971 11.9245 9.49682 11.9594 9.65162 11.847C9.80641 11.7345 9.84026 11.5172 9.72723 11.3616C9.61419 11.2061 9.39707 11.1711 9.24228 11.2836ZM14.074 11.1628C13.8911 11.2223 13.7907 11.418 13.8499 11.5999C13.909 11.7819 14.1052 11.8812 14.2881 11.8218C14.471 11.7624 14.5713 11.5667 14.5122 11.3847C14.4531 11.2028 14.2569 11.1034 14.074 11.1628ZM6.31383 5.14192C7.3776 5.9148 7.89321 5.4286 8.40484 5.80032C9.03255 6.25638 9.19189 6.37215 9.67717 7.58553C10.1624 8.79892 11.1327 7.93976 10.7983 8.40007C10.1201 9.33355 8.56639 9.36093 7.32804 8.46122C6.08969 7.5615 5.63562 6.07541 6.31383 5.14192ZM15.2285 5.46865C16.7591 5.46865 18 6.40403 18 7.55787C16.6851 7.55787 16.5538 8.25428 15.9213 8.25428C15.1455 8.25428 14.9485 8.25428 13.8427 7.55787C12.7369 6.86146 12.4569 8.12684 12.4569 7.55787C12.4569 6.40403 13.6978 5.46865 15.2285 5.46865ZM7.63472 6.85892C7.52169 7.0145 7.55554 7.23179 7.71033 7.34426C7.86513 7.45672 8.08224 7.42177 8.19528 7.26619C8.30832 7.11061 8.27447 6.89331 8.11967 6.78085C7.96488 6.66839 7.74776 6.70334 7.63472 6.85892ZM13.0354 2.09157C12.6291 3.3421 13.2508 3.68223 13.0554 4.28369C12.8157 5.02161 12.7548 5.20892 11.7508 6.04541C10.7467 6.88189 11.8636 7.53917 11.3225 7.36335C10.2251 7.00679 9.719 5.53762 10.192 4.08185C10.665 2.62609 11.9381 1.73501 13.0354 2.09157ZM15.5749 6.5963C15.3836 6.5963 15.2285 6.7522 15.2285 6.9445C15.2285 7.13681 15.3836 7.29271 15.5749 7.29271C15.7662 7.29271 15.9213 7.13681 15.9213 6.9445C15.9213 6.7522 15.7662 6.5963 15.5749 6.5963ZM11.3711 4.09915C11.312 4.28113 11.4123 4.47682 11.5952 4.53624C11.7781 4.59567 11.9743 4.49633 12.0334 4.31436C12.0926 4.13239 11.9922 3.9367 11.8093 3.87727C11.6264 3.81784 11.4302 3.91718 11.3711 4.09915Z" fill="white"/>
<path fill-rule="evenodd" clip-rule="evenodd" d="M22 1H2C1.44772 1 1 1.44772 1 2V14C1 14.5523 1.44772 15 2 15H22C22.5523 15 23 14.5523 23 14V2C23 1.44771 22.5523 1 22 1ZM2 0C0.89543 0 0 0.89543 0 2V14C0 15.1046 0.89543 16 2 16H22C23.1046 16 24 15.1046 24 14V2C24 0.89543 23.1046 0 22 0H2Z" fill="black" fill-opacity="0.08"/>
</g>
</g>
</svg>
