<svg width="24" height="16" viewBox="0 0 24 16" fill="none" xmlns="http://www.w3.org/2000/svg">
<g id="flags / flag-malta">
<g id="flag">
<path fill-rule="evenodd" clip-rule="evenodd" d="M2.00853 0C0.90195 0 0 0.892771 0 1.99406V14.0059C0 15.1055 0.89925 16 2.00853 16H12V0H2.00853ZM6 2H3V3H2V6H3V7H6V6H7V3H6V2Z" fill="white"/>
<path d="M6 2H3V3H2V6H3V7H6V6H7V3H6V2Z" fill="#DE233C"/>
<path d="M5.5 2.5H3.5V3.5H2.5V5.5H3.5V6.5H5.5V5.5H6.5V3.5H5.5V2.5Z" fill="#333333"/>
<path d="M5 3H4V4H3V5H4V6H5V5H6V4H5V3Z" fill="#CCCCCD"/>
<path fill-rule="evenodd" clip-rule="evenodd" d="M12 16H21.9915C23.1007 16 24 15.1055 24 14.0059V1.99406C24 0.892771 23.098 0 21.9915 0H12V16Z" fill="#DE233C"/>
<path fill-rule="evenodd" clip-rule="evenodd" d="M22 1H2C1.44772 1 1 1.44772 1 2V14C1 14.5523 1.44772 15 2 15H22C22.5523 15 23 14.5523 23 14V2C23 1.44771 22.5523 1 22 1ZM2 0C0.895431 0 0 0.895431 0 2V14C0 15.1046 0.89543 16 2 16H22C23.1046 16 24 15.1046 24 14V2C24 0.895431 23.1046 0 22 0H2Z" fill="black" fill-opacity="0.08"/>
</g>
</g>
</svg>
