<svg width="24" height="16" viewBox="0 0 24 16" fill="none" xmlns="http://www.w3.org/2000/svg">
<g id="flags / flag-canada">
<g id="flag">
<path fill-rule="evenodd" clip-rule="evenodd" d="M6 0H18V16H6V0ZM12.6732 4.34081L12.0012 3.06124V3.05933L12.0007 3.06029L12.0012 3.06124L11.3281 4.34081C11.2372 4.514 11.0403 4.60019 10.8539 4.54843L10.2157 4.37114L10.6326 6.83343C10.6678 7.04191 10.41 7.16481 10.2747 7.004L9.29858 5.84352L9.19897 6.30067C9.14734 6.5379 8.90906 6.68134 8.67944 6.61348L7.63989 6.30624L7.82324 7.70252C7.84656 7.88043 7.7561 8.05381 7.59814 8.13409L7.03467 8.42024L9.49011 9.84562C9.74451 9.99329 9.85596 10.3064 9.7533 10.5851L9.54346 11.1555L11.6475 10.973C11.7638 10.9629 11.8629 11.0581 11.8595 11.1768L11.7932 13.4646H12.207L12.1406 11.1767C12.1372 11.058 12.2363 10.9628 12.3528 10.9729L14.4578 11.1555L14.2478 10.5851C14.1453 10.3064 14.2567 9.99319 14.5111 9.84557L16.9666 8.42024L16.4031 8.13405C16.2451 8.05376 16.1547 7.88043 16.178 7.70248L16.3613 6.30619L15.3218 6.61343C15.0922 6.68134 14.8539 6.53781 14.8021 6.30062L14.7026 5.84348L13.7266 7.00395C13.5913 7.16481 13.3335 7.04195 13.3688 6.83343L13.7856 4.37114L13.1475 4.54843C12.9609 4.60023 12.7642 4.51405 12.6732 4.34081Z" fill="white"/>
<path d="M18 0H22C23.1046 0 24 0.89543 24 2V14C24 15.1046 23.1046 16 22 16H18V0Z" fill="#F44336"/>
<path d="M2 0H6V16H2C0.89543 16 0 15.1046 0 14V2C0 0.89543 0.89543 0 2 0Z" fill="#F44336"/>
<path d="M12.0012 3.05933V3.06124L12.6732 4.34081C12.7642 4.51405 12.9609 4.60023 13.1475 4.54843L13.7856 4.37114L13.3688 6.83343C13.3335 7.04195 13.5913 7.16481 13.7266 7.00395L14.7026 5.84348L14.8021 6.30062C14.8539 6.53781 15.0922 6.68134 15.3218 6.61343L16.3613 6.30619L16.178 7.70248C16.1547 7.88043 16.2451 8.05376 16.4031 8.13405L16.9666 8.42024L14.5111 9.84557C14.2567 9.99319 14.1453 10.3064 14.2478 10.5851L14.4578 11.1555L12.3528 10.9729C12.2363 10.9628 12.1372 11.058 12.1406 11.1767L12.207 13.4646H11.7932L11.8595 11.1768C11.8629 11.0581 11.7638 10.9629 11.6475 10.973L9.54346 11.1555L9.7533 10.5851C9.85596 10.3064 9.74451 9.99329 9.49011 9.84562L7.03467 8.42024L7.59814 8.13409C7.7561 8.05381 7.84656 7.88043 7.82324 7.70252L7.63989 6.30624L8.67944 6.61348C8.90906 6.68134 9.14734 6.5379 9.19897 6.30067L9.29858 5.84352L10.2747 7.004C10.41 7.16481 10.6678 7.04191 10.6326 6.83343L10.2157 4.37114L10.8539 4.54843C11.0403 4.60019 11.2372 4.514 11.3281 4.34081L12.0001 3.06124L12.0007 3.06029L12.0012 3.05933Z" fill="#F44336"/>
<path fill-rule="evenodd" clip-rule="evenodd" d="M22 1H2C1.44772 1 1 1.44772 1 2V14C1 14.5523 1.44772 15 2 15H22C22.5523 15 23 14.5523 23 14V2C23 1.44771 22.5523 1 22 1ZM2 0C0.89543 0 0 0.89543 0 2V14C0 15.1046 0.89543 16 2 16H22C23.1046 16 24 15.1046 24 14V2C24 0.89543 23.1046 0 22 0H2Z" fill="black" fill-opacity="0.08"/>
</g>
</g>
</svg>
