<svg width="24" height="16" viewBox="0 0 24 16" fill="none" xmlns="http://www.w3.org/2000/svg">
<g id="flags / flag-slovenia">
<g id="flag">
<path d="M2 16H22C23.1046 16 24 15.1046 24 14V11H0V14C0 15.1046 0.89543 16 2 16Z" fill="#E53B35"/>
<path d="M2 0H22C23.1046 0 24 0.89543 24 2V5H0V2C0 0.89543 0.89543 0 2 0Z" fill="white"/>
<path d="M24 11V5H0L0 11H24Z" fill="#0268AE"/>
<path fill-rule="evenodd" clip-rule="evenodd" d="M22 1H2C1.44772 1 1 1.44772 1 2V14C1 14.5523 1.44772 15 2 15H22C22.5523 15 23 14.5523 23 14V2C23 1.44771 22.5523 1 22 1ZM2 0C0.89543 0 0 0.89543 0 2L0 14C0 15.1046 0.89543 16 2 16H22C23.1046 16 24 15.1046 24 14V2C24 0.89543 23.1046 0 22 0H2Z" fill="black" fill-opacity="0.08"/>
<path d="M5.5 3H6C6.55225 3 7 3.44769 7 4V6.5C7 7.05231 6.55225 7.5 6 7.5H4C3.44775 7.5 3 7.05231 3 6.5V4C3 3.44769 3.44775 3 4 3H4.5C3.94775 3 3.5 3.44769 3.5 4V6C3.5 6.55231 3.94775 7 4.5 7H5.5C6.05225 7 6.5 6.55231 6.5 6V4C6.5 3.44769 6.05225 3 5.5 3Z" fill="#EF1F28"/>
<path fill-rule="evenodd" clip-rule="evenodd" d="M4.5 4H5.5V5H4.5V4Z" fill="#FFE200"/>
<path fill-rule="evenodd" clip-rule="evenodd" d="M3.5 6L5 5.5L6.5 6L5.5 7H4.5L3.5 6Z" fill="white"/>
<path fill-rule="evenodd" clip-rule="evenodd" d="M5.5 3H4.5C3.94775 3 3.5 3.44769 3.5 4V6C3.5 6.55231 3.94775 7 4.5 7L3.5 6L5 5.5L6.5 6L5.5 7C6.05225 7 6.5 6.55231 6.5 6V4C6.5 3.44769 6.05225 3 5.5 3ZM4.5 4H5.5V5H4.5V4Z" fill="#0268AE"/>
</g>
</g>
</svg>
