<svg width="24" height="16" viewBox="0 0 24 16" fill="none" xmlns="http://www.w3.org/2000/svg">
<g id="flags / flag-united arab emirates">
<g id="flag">
<path d="M6 11H24V14C24 15.1046 23.1046 16 22 16H6V11Z" fill="#333333"/>
<path d="M6 5H24V11H6V5Z" fill="white"/>
<path d="M6 0H22C23.1046 0 24 0.895431 24 2V5H6V0Z" fill="#12833B"/>
<path d="M2 0H6V16H2C0.89543 16 0 15.1046 0 14V2C0 0.89543 0.89543 0 2 0Z" fill="#FF323E"/>
<path fill-rule="evenodd" clip-rule="evenodd" d="M22 1H2C1.44772 1 1 1.44772 1 2V14C1 14.5523 1.44772 15 2 15H22C22.5523 15 23 14.5523 23 14V2C23 1.44771 22.5523 1 22 1ZM2 0C0.89543 0 0 0.89543 0 2V14C0 15.1046 0.89543 16 2 16H22C23.1046 16 24 15.1046 24 14V2C24 0.895431 23.1046 0 22 0H2Z" fill="black" fill-opacity="0.08"/>
</g>
</g>
</svg>
