<svg width="24" height="16" viewBox="0 0 24 16" fill="none" xmlns="http://www.w3.org/2000/svg">
<g id="flags / flag-croatia">
<g id="flag">
<path d="M0 11H24V14C24 15.1046 23.1046 16 22 16H2C0.89543 16 0 15.1046 0 14V11Z" fill="#150A99"/>
<path d="M24 5H0V11H24V5Z" fill="white"/>
<path d="M2 0H22C23.1046 0 24 0.89543 24 2V5H0V2C0 0.89543 0.89543 0 2 0Z" fill="#FF0000"/>
<path fill-rule="evenodd" clip-rule="evenodd" d="M22 1H2C1.44772 1 1 1.44772 1 2V14C1 14.5523 1.44772 15 2 15H22C22.5523 15 23 14.5523 23 14V2C23 1.44771 22.5523 1 22 1ZM2 0C0.89543 0 0 0.89543 0 2V14C0 15.1046 0.89543 16 2 16H22C23.1046 16 24 15.1046 24 14V2C24 0.89543 23.1046 0 22 0H2Z" fill="black" fill-opacity="0.08"/>
<path fill-rule="evenodd" clip-rule="evenodd" d="M14.4499 10C14.4828 9.83843 14.5 9.67122 14.5 9.5V9H13.5V8H14.5V7H13.5V6H12.5V7H11.5V6H10.5V7H9.5V8H10.5V9H9.5V9.5C9.5 9.67122 9.51724 9.83843 9.55008 10H10.5V11H10.0003C10.1424 11.1892 10.3108 11.3576 10.5 11.4997V11H11.5V11.9499C11.6616 11.9828 11.8288 12 12 12C12.1712 12 12.3384 11.9828 12.5 11.9499V11H13.5V11.4997C13.6892 11.3576 13.8576 11.1892 13.9997 11H13.5V10H14.4499ZM12.5 10V9H13.5V10H12.5ZM11.5 10V11H12.5V10H11.5ZM11.5 9H12.5V8H13.5V7H12.5V8H11.5V7H10.5V8H11.5V9ZM11.5 9H10.5V10H11.5V9Z" fill="#FF0000"/>
<path d="M12.5 9V8H11.5V9H12.5Z" fill="white"/>
<path fill-rule="evenodd" clip-rule="evenodd" d="M14.5 9V8H13.5V7H14.5V6H13.5V7H12.5V6H11.5V7H10.5V6H9.5V7H10.5V8H9.5V9H10.5V10H9.55008C9.62515 10.3694 9.78176 10.7093 10.0003 11H10.5V11.4997C10.8058 11.7296 11.166 11.8909 11.5576 11.9609C11.5384 11.9575 11.5191 11.9538 11.5 11.9499V11H12.5V11.9499C12.8694 11.8748 13.2093 11.7182 13.5 11.4997V11H13.9997C14.2296 10.6942 14.3909 10.334 14.4609 9.94236C14.4575 9.96165 14.4538 9.98086 14.4499 10H13.5V9H14.5ZM12.5 9H13.5V8H12.5V7H11.5V8H10.5V9H11.5V10H10.5V11H11.5V10H12.5V11H13.5V10H12.5V9Z" fill="white"/>
<path fill-rule="evenodd" clip-rule="evenodd" d="M9.5 5H10.5V6H9.5V5ZM11.5 4H12.5V6H11.5V4ZM13.5 5H14.5V6H13.5V5Z" fill="#0091E0"/>
<path fill-rule="evenodd" clip-rule="evenodd" d="M12.5 4H13.5V6H12.5V4ZM10.5 4H11.5V6H10.5V4Z" fill="#150A99"/>
</g>
</g>
</svg>
