<svg width="24" height="16" viewBox="0 0 24 16" fill="none" xmlns="http://www.w3.org/2000/svg">
<g id="flags / flag-albania">
<g id="flag">
<path d="M22 0H2C0.89543 0 0 0.89543 0 2V14C0 15.1046 0.89543 16 2 16H22C23.1046 16 24 15.1046 24 14V2C24 0.89543 23.1046 0 22 0Z" fill="#E71910"/>
<path d="M10.5 3.5L12 4.5L13.5 3.5L14.5 4.5H13.5L14.5 5.5L16.5 4.5V9.5L13.5 8.5L14.5 10.5H15.5L14.5 11.5L13.5 10.5L12 12.5L10.5 10.5L9.5 11.5L8.5 10.5H9.5L10.5 8.5L7.5 9.5V4.5L9.5 5.5L10.5 4.5H9.5L10.5 3.5Z" fill="#333333"/>
<path fill-rule="evenodd" clip-rule="evenodd" d="M22 1H2C1.44772 1 1 1.44772 1 2V14C1 14.5523 1.44772 15 2 15H22C22.5523 15 23 14.5523 23 14V2C23 1.44771 22.5523 1 22 1ZM2 0C0.89543 0 0 0.89543 0 2V14C0 15.1046 0.89543 16 2 16H22C23.1046 16 24 15.1046 24 14V2C24 0.89543 23.1046 0 22 0H2Z" fill="black" fill-opacity="0.08"/>
</g>
</g>
</svg>
