<svg width="24" height="16" viewBox="0 0 24 16" fill="none" xmlns="http://www.w3.org/2000/svg">
<g id="flags / flag-brunei">
<g id="flag">
<path d="M24 2V12L16.8649 8.13515L17.5 7.5L15.5 5.5L14.5 6.5V6.85419L13.3714 6.24288L12 3.5L11.2131 5.07379L1.85559 0.00513103C1.90327 0.00172977 1.95142 0 1.99996 0H22C23.1045 0 24 0.895431 24 2Z" fill="#F8E200"/>
<path d="M13.68 12.41L20.3077 16H2C0.895386 16 0 15.1046 0 14V5L8.5 9.60416V11.5L10.5 12.5V10.6875L13.5 12.3125V12.5L13.68 12.41Z" fill="#F8E200"/>
<path d="M0 5V3L7.13514 6.86486L6.5 7.5L8.5 9.5V9.60416L0 5Z" fill="#333333"/>
<path d="M10.5 10.6875L13.5 12.3125V10.5H10.5V10.6875Z" fill="#333333"/>
<path d="M13.68 12.41L20.3077 16H22C22.4618 16 22.8872 15.8435 23.2257 15.5806L15.5 11.3958V11.5L13.68 12.41Z" fill="#333333"/>
<path d="M12 9.5H10.5V8.68749L12 9.5Z" fill="#333333"/>
<path d="M0 3V2C0 0.943985 0.818359 0.0791209 1.85559 0.00513103L11.2131 5.07379L10.5 6.5H13.5L13.3714 6.24288L14.5 6.85419V7.5L13.5 8.5V9.5H12L10.5 8.68749V8.5L9.5 7.5V6.5L8.5 5.5L7.13514 6.86486L0 3Z" fill="white"/>
<path d="M15.5 11.3958L23.2257 15.5806C23.6969 15.2147 24 14.6427 24 14L24 12L16.8649 8.13515L15.5 9.5V11.3958Z" fill="white"/>
<path fill-rule="evenodd" clip-rule="evenodd" d="M22 1H2C1.44772 1 1 1.44772 1 2V14C1 14.5523 1.44772 15 2 15H22C22.5523 15 23 14.5523 23 14V2C23 1.44771 22.5523 1 22 1ZM1.99996 0C0.895395 0 0 0.895431 0 2V14C0 15.1046 0.895386 16 2 16H22C23.1046 16 24 15.1046 24 14L24 2C24 0.895431 23.1045 0 22 0H1.99996Z" fill="black" fill-opacity="0.08"/>
<path fill-rule="evenodd" clip-rule="evenodd" d="M9.5 7.5L10.5 8.5V12.5L8.5 11.5V9.5L6.5 7.5L8.5 5.5L9.5 6.5V7.5ZM10.5 9.5H13.5V10.5H10.5V9.5ZM14.5 7.5L13.5 8.5V12.5L15.5 11.5V9.5L17.5 7.5L15.5 5.5L14.5 6.5V7.5ZM10.5 6.5H13.5L12 3.5L10.5 6.5Z" fill="#D1091E"/>
</g>
</g>
</svg>
