<svg width="24" height="16" viewBox="0 0 24 16" fill="none" xmlns="http://www.w3.org/2000/svg">
<g id="flags / flag-belarus">
<g id="flag">
<path d="M22 0H4L3.99939 3.00101L3.33337 4L3.99939 4.99899V7.00101L3.33337 8L3.99939 8.99899V11H24V2C24 0.895432 23.1046 0 22 0Z" fill="#E54252"/>
<path d="M2.66675 11L3.33337 10L2.00012 8L3.33337 6L2.00012 4L3.33337 2L2 0L0.666992 2L2.00012 4L0.666992 6L2.00012 8L0.666992 10L1.3335 11H2.66675Z" fill="#E54252"/>
<path d="M0 2.99899V4.99899L0.666992 4L0 2.99899Z" fill="#E54252"/>
<path d="M0 6.99899V8.99899L0.666992 8L0 6.99899Z" fill="#E54252"/>
<path d="M1.3335 11H2.66675L2.00012 12L1.3335 11Z" fill="#5CBE6B"/>
<path d="M0 10.999V12.999L0.666992 12L0 10.999Z" fill="#5CBE6B"/>
<path d="M2.00012 16L0.666992 14L2.00012 12L3.33337 14L2.00012 16Z" fill="#5CBE6B"/>
<path d="M3.33337 16H22C23.1046 16 24 15.1046 24 14V11H3.99939V11.001L3.33337 12L3.99939 12.999V15.001L3.33337 16Z" fill="#5CBE6B"/>
<path fill-rule="evenodd" clip-rule="evenodd" d="M3.99939 3.00101L4 0H2C0.895517 0 0.000233803 0.895295 0.000111052 1.99978L0 2.99899L0.666992 4L0 4.99899V6.99899L0.666992 8L0 8.99899V10.999L0.666992 12L0 12.999V14C0 15.1046 0.895553 16 2.00012 16H3.33337L3.99939 15.001V12.999L3.33337 12L3.99939 11.001V8.99899L3.33337 8L3.99939 7.00101V4.99899L3.33337 4L3.99939 3.00101ZM2.00012 12L3.33337 14L2.00012 16L0.666992 14L2.00012 12ZM2.00012 8L3.33337 10L2.00012 12L0.666992 10L2.00012 8ZM2.00012 4L3.33337 6L2.00012 8L0.666992 6L2.00012 4ZM2.00012 4L0.666992 2L2 0L3.33337 2L2.00012 4Z" fill="white"/>
<path fill-rule="evenodd" clip-rule="evenodd" d="M22 1H2C1.44772 1 1 1.44772 1 2V14C1 14.5523 1.44772 15 2 15H22C22.5523 15 23 14.5523 23 14V2C23 1.44771 22.5523 1 22 1ZM2 0C0.895517 0 0.000233803 0.895295 0.000111052 1.99978L0 14C0 15.1046 0.895553 16 2.00012 16H22C23.1046 16 24 15.1046 24 14V2C24 0.895432 23.1046 0 22 0H2Z" fill="black" fill-opacity="0.08"/>
</g>
</g>
</svg>
