<svg width="24" height="16" viewBox="0 0 24 16" fill="none" xmlns="http://www.w3.org/2000/svg">
<g id="flags / flag-portugal">
<g id="flag">
<path d="M22 0H2C0.89543 0 0 0.89543 0 2V14C0 15.1046 0.89543 16 2 16H22C23.1046 16 24 15.1046 24 14V2C24 0.89543 23.1046 0 22 0Z" fill="white"/>
<path d="M22 0H2C0.89543 0 0 0.89543 0 2V14C0 15.1046 0.89543 16 2 16H22C23.1046 16 24 15.1046 24 14V2C24 0.89543 23.1046 0 22 0Z" fill="#FF2936"/>
<path d="M8 0H2C0.89543 0 0 0.89543 0 2V14C0 15.1046 0.89543 16 2 16H8V0Z" fill="#128415"/>
<path fill-rule="evenodd" clip-rule="evenodd" d="M8 5C6.34315 5 5 6.34315 5 8C5 9.65685 6.34315 11 8 11C9.65685 11 11 9.65685 11 8C11 6.34315 9.65685 5 8 5ZM4 8C4 5.79086 5.79086 4 8 4C10.2091 4 12 5.79086 12 8C12 10.2091 10.2091 12 8 12C5.79086 12 4 10.2091 4 8Z" fill="#FAF94F"/>
<path d="M6.5 6.34104C6.5 6.15269 6.6447 6 6.83251 6H9.16749C9.35113 6 9.5 6.15192 9.5 6.34104V8.66806C9.5 9.40367 8.9073 10 8.17542 10H7.82458C7.09303 10 6.5 9.40979 6.5 8.66806V6.34104Z" fill="white"/>
<path d="M8 8.92C8.41421 8.92 8.75 7.83421 8.75 7.42C8.75 7.00579 8.41421 6.67 8 6.67C7.58579 6.67 7.25 7.00579 7.25 7.42C7.25 7.83421 7.58579 8.92 8 8.92Z" fill="#1D50B5"/>
<path fill-rule="evenodd" clip-rule="evenodd" d="M22 1H2C1.44772 1 1 1.44772 1 2V14C1 14.5523 1.44772 15 2 15H22C22.5523 15 23 14.5523 23 14V2C23 1.44771 22.5523 1 22 1ZM2 0C0.89543 0 0 0.89543 0 2V14C0 15.1046 0.89543 16 2 16H22C23.1046 16 24 15.1046 24 14V2C24 0.89543 23.1046 0 22 0H2Z" fill="black" fill-opacity="0.08"/>
</g>
</g>
</svg>
