<svg width="32" height="32" viewBox="0 0 32 32" fill="none" xmlns="http://www.w3.org/2000/svg">
<g id="standalone / md / arrow-up-arrow-down-md / bold">
<path id="icon" d="M25.4141 21.2266L21.6641 24.9766C21.2214 25.3411 20.7786 25.3411 20.3359 24.9766L16.5859 21.2266C16.2214 20.7839 16.2214 20.3411 16.5859 19.8984C17.0286 19.5339 17.4714 19.5339 17.9141 19.8984L20.0625 22.0469V8.6875C20.1146 8.11458 20.4271 7.80208 21 7.75C21.5729 7.80208 21.8854 8.11458 21.9375 8.6875V22.0469L24.0859 19.8984C24.5286 19.5339 24.9714 19.5339 25.4141 19.8984C25.7786 20.3411 25.7786 20.7839 25.4141 21.2266ZM11.6641 8.02344L15.4141 11.7734C15.7786 12.2161 15.7786 12.6589 15.4141 13.1016C14.9714 13.4661 14.5286 13.4661 14.0859 13.1016L11.9375 10.9531V24.3125C11.8854 24.8854 11.5729 25.1979 11 25.25C10.4271 25.1979 10.1146 24.8854 10.0625 24.3125V10.9531L7.91406 13.1016C7.47135 13.4661 7.02865 13.4661 6.58594 13.1016C6.22135 12.6589 6.22135 12.2161 6.58594 11.7734L10.3359 8.02344C10.7786 7.65885 11.2214 7.65885 11.6641 8.02344Z" fill="black" fill-opacity="0.72"/>
</g>
</svg>
