<svg width="32" height="32" viewBox="0 0 32 32" fill="none" xmlns="http://www.w3.org/2000/svg">
<g id="standalone / md / arrow-up-a-z-md / bold">
<path id="icon" d="M21 7.75C21.3906 7.75 21.6771 7.91927 21.8594 8.25781L24.9844 14.5078C25.1667 15.0547 25.0234 15.4844 24.5547 15.7969C24.0078 15.9792 23.5911 15.8359 23.3047 15.3672L22.7578 14.3125C22.7057 14.3125 22.6406 14.3125 22.5625 14.3125H19.2422L18.6953 15.3672C18.4089 15.862 17.9922 16.0052 17.4453 15.7969C16.9505 15.4844 16.8073 15.0547 17.0156 14.5078L20.1406 8.25781C20.349 7.94531 20.6354 7.77604 21 7.75ZM20.1797 12.4375H21.8203L21 10.7969L20.1797 12.4375ZM10.3359 8.02344C10.7786 7.65885 11.2214 7.65885 11.6641 8.02344L15.4141 11.7734C15.7786 12.2161 15.7786 12.6589 15.4141 13.1016C14.9714 13.4661 14.5286 13.4661 14.0859 13.1016L11.9375 10.9531V24.3125C11.8854 24.8854 11.5729 25.1979 11 25.25C10.4271 25.1979 10.1146 24.8854 10.0625 24.3125V10.9531L7.91406 13.1016C7.47135 13.4661 7.02865 13.4661 6.58594 13.1016C6.22135 12.6589 6.22135 12.2161 6.58594 11.7734L10.3359 8.02344ZM18.5 17.75H23.5C23.8906 17.776 24.1771 17.9583 24.3594 18.2969C24.5156 18.6615 24.4635 19 24.2031 19.3125L20.5703 23.375H23.5C24.0729 23.4271 24.3854 23.7396 24.4375 24.3125C24.3854 24.8854 24.0729 25.1979 23.5 25.25H18.5C18.1094 25.224 17.8229 25.0417 17.6406 24.7031C17.4844 24.3385 17.5365 24 17.7969 23.6875L21.4297 19.625H18.5C17.9271 19.5729 17.6146 19.2604 17.5625 18.6875C17.6146 18.1146 17.9271 17.8021 18.5 17.75Z" fill="black" fill-opacity="0.72"/>
</g>
</svg>
