<svg width="32" height="32" viewBox="0 0 32 32" fill="none" xmlns="http://www.w3.org/2000/svg">
<g id="standalone / md / arrow-down-md / bold">
<path id="icon" d="M15.3359 24.9766L8.77344 18.1016C8.40885 17.6328 8.42188 17.1901 8.8125 16.7734C9.25521 16.4089 9.6849 16.4089 10.1016 16.7734L15.0625 21.9688V8.6875C15.1146 8.11458 15.4271 7.80208 16 7.75C16.5729 7.80208 16.8854 8.11458 16.9375 8.6875V21.9688L21.8984 16.8125C22.3151 16.4219 22.7578 16.4089 23.2266 16.7734C23.5911 17.1901 23.5911 17.6328 23.2266 18.1016L16.6641 24.9766C16.4818 25.1589 16.2604 25.25 16 25.25C15.7396 25.25 15.5182 25.1589 15.3359 24.9766Z" fill="black" fill-opacity="0.72"/>
</g>
</svg>
