<svg width="32" height="32" viewBox="0 0 32 32" fill="none" xmlns="http://www.w3.org/2000/svg">
<g id="standalone / md / arrow-down-to-line-md / bold">
<path id="icon" d="M22.5625 25.25H9.4375C8.86458 25.1979 8.55208 24.8854 8.5 24.3125C8.55208 23.7396 8.86458 23.4271 9.4375 23.375H22.5625C23.1354 23.4271 23.4479 23.7396 23.5 24.3125C23.4479 24.8854 23.1354 25.1979 22.5625 25.25ZM15.3359 19.9375V19.9766L10.3359 14.6641C9.97135 14.1953 9.98438 13.7526 10.375 13.3359C10.8177 12.9714 11.2604 12.9844 11.7031 13.375L15.0625 16.9688V13.6875V8.6875C15.1146 8.11458 15.4271 7.80208 16 7.75C16.5729 7.80208 16.8854 8.11458 16.9375 8.6875V13.6875V16.9688L20.3359 13.375C20.7526 12.9844 21.1953 12.9714 21.6641 13.3359C22.0286 13.7526 22.0417 14.1823 21.7031 14.625L16.7031 19.9375C16.4948 20.1458 16.2604 20.25 16 20.25C15.7396 20.25 15.5182 20.1458 15.3359 19.9375Z" fill="black" fill-opacity="0.72"/>
</g>
</svg>
