<svg width="32" height="32" viewBox="0 0 32 32" fill="none" xmlns="http://www.w3.org/2000/svg">
<g id="standalone / md / arrow-up-md / bold">
<path id="icon" d="M16.6641 8.02344V8.0625L23.2266 14.9375C23.5911 15.3802 23.5911 15.8099 23.2266 16.2266C22.7578 16.5911 22.3151 16.5911 21.8984 16.2266L16.9375 11.0312V24.3125C16.8854 24.8854 16.5729 25.1979 16 25.25C15.4271 25.1979 15.1146 24.8854 15.0625 24.3125V11.0312L10.1016 16.1875C9.6849 16.5781 9.24219 16.5911 8.77344 16.2266C8.40885 15.8099 8.40885 15.3672 8.77344 14.8984L15.3359 8.02344C15.5182 7.84115 15.7396 7.75 16 7.75C16.2604 7.75 16.4818 7.84115 16.6641 8.02344Z" fill="black" fill-opacity="0.72"/>
</g>
</svg>
