<svg width="32" height="32" viewBox="0 0 32 32" fill="none" xmlns="http://www.w3.org/2000/svg">
<g id="standalone / md / arrow-left-md / bold">
<path id="icon" d="M7.52344 17.1641C7.34115 16.9818 7.25 16.7604 7.25 16.5C7.25 16.2396 7.34115 16.0182 7.52344 15.8359L14.3984 9.27344C14.8672 8.90885 15.3099 8.90885 15.7266 9.27344C16.0911 9.74219 16.0781 10.1849 15.6875 10.6016L10.5312 15.5625H23.8125C24.3854 15.6146 24.6979 15.9271 24.75 16.5C24.6979 17.0729 24.3854 17.3854 23.8125 17.4375H10.5312L15.7266 22.3984C16.0911 22.8151 16.0911 23.2578 15.7266 23.7266C15.3099 24.0911 14.8802 24.0911 14.4375 23.7266L7.5625 17.1641H7.52344Z" fill="black" fill-opacity="0.72"/>
</g>
</svg>
