<svg width="32" height="32" viewBox="0 0 32 32" fill="none" xmlns="http://www.w3.org/2000/svg">
<g id="standalone / md / arrow-up-from-bracket-md / regular">
<path id="icon" d="M16.4297 6.69531L21.4297 11.6953C21.6901 11.9818 21.6901 12.2682 21.4297 12.5547C21.1432 12.8151 20.8568 12.8151 20.5703 12.5547L16.625 8.64844V19.625C16.599 20.0156 16.3906 20.224 16 20.25C15.6094 20.224 15.401 20.0156 15.375 19.625V8.64844L11.4297 12.5547C11.1432 12.8151 10.8568 12.8151 10.5703 12.5547C10.3099 12.2682 10.3099 11.9818 10.5703 11.6953L15.5703 6.69531C15.8568 6.4349 16.1432 6.4349 16.4297 6.69531ZM8.5 19.625V23.375C8.52604 23.8958 8.70833 24.3385 9.04688 24.7031C9.41146 25.0417 9.85417 25.224 10.375 25.25H21.625C22.1458 25.224 22.5885 25.0417 22.9531 24.7031C23.2917 24.3385 23.474 23.8958 23.5 23.375V19.625C23.526 19.2344 23.7344 19.026 24.125 19C24.5156 19.026 24.724 19.2344 24.75 19.625V23.375C24.724 24.2604 24.4245 25.0026 23.8516 25.6016C23.2526 26.1745 22.5104 26.474 21.625 26.5H10.375C9.48958 26.474 8.7474 26.1745 8.14844 25.6016C7.57552 25.0026 7.27604 24.2604 7.25 23.375V19.625C7.27604 19.2344 7.48438 19.026 7.875 19C8.26562 19.026 8.47396 19.2344 8.5 19.625Z" fill="black" fill-opacity="0.72"/>
</g>
</svg>
