<svg width="32" height="32" viewBox="0 0 32 32" fill="none" xmlns="http://www.w3.org/2000/svg">
<g id="standalone / md / arrow-up-one-nine-md / regular">
<path id="icon" d="M22.25 8.375V14H23.5C23.8906 14.026 24.099 14.2344 24.125 14.625C24.099 15.0156 23.8906 15.224 23.5 15.25H21.625H19.75C19.3594 15.224 19.151 15.0156 19.125 14.625C19.151 14.2344 19.3594 14.026 19.75 14H21V9.23438L19.9453 9.58594C19.5807 9.66406 19.3203 9.53385 19.1641 9.19531C19.0859 8.83073 19.2161 8.57031 19.5547 8.41406L21.4297 7.78906C21.638 7.71094 21.8203 7.73698 21.9766 7.86719C22.1589 7.9974 22.25 8.16667 22.25 8.375ZM11.4297 7.94531L15.1797 11.6953C15.4401 11.9818 15.4401 12.2682 15.1797 12.5547C14.8932 12.8151 14.6068 12.8151 14.3203 12.5547L11.625 9.89844V24.625C11.599 25.0156 11.3906 25.224 11 25.25C10.6094 25.224 10.401 25.0156 10.375 24.625V9.89844L7.67969 12.5547C7.39323 12.8151 7.10677 12.8151 6.82031 12.5547C6.5599 12.2682 6.5599 11.9818 6.82031 11.6953L10.5703 7.94531C10.8568 7.6849 11.1432 7.6849 11.4297 7.94531ZM21.4688 21.8125C22.224 21.7865 22.8099 21.4479 23.2266 20.7969C23.5911 20.1198 23.5911 19.4427 23.2266 18.7656C22.8099 18.1146 22.224 17.776 21.4688 17.75C20.7135 17.776 20.1276 18.1146 19.7109 18.7656C19.3464 19.4427 19.3464 20.1198 19.7109 20.7969C20.1276 21.4479 20.7135 21.7865 21.4688 21.8125ZM18.1875 19.7812C18.2135 18.8438 18.5391 18.0755 19.1641 17.4766C19.763 16.8516 20.5312 16.526 21.4688 16.5C22.4062 16.526 23.1745 16.8516 23.7734 17.4766C24.3984 18.0755 24.724 18.8438 24.75 19.7812C24.75 19.8333 24.75 19.8854 24.75 19.9375C24.75 20.7969 24.4766 21.5521 23.9297 22.2031L21.4688 25.0547C21.2083 25.3151 20.9219 25.3281 20.6094 25.0938C20.3229 24.8333 20.2969 24.5469 20.5312 24.2344L21.5078 23.0625C21.4818 23.0625 21.4688 23.0625 21.4688 23.0625C20.5312 23.0365 19.763 22.7109 19.1641 22.0859C18.5391 21.487 18.2135 20.7188 18.1875 19.7812Z" fill="black" fill-opacity="0.72"/>
</g>
</svg>
