<svg width="32" height="32" viewBox="0 0 32 32" fill="none" xmlns="http://www.w3.org/2000/svg">
<g id="standalone / md / at-md / bold">
<path id="icon" d="M16 8.375C13.7083 8.42708 11.7943 9.22135 10.2578 10.7578C8.72135 12.2943 7.92708 14.2083 7.875 16.5C7.92708 18.7917 8.72135 20.7057 10.2578 22.2422C11.7943 23.7786 13.7083 24.5729 16 24.625C16.5729 24.6771 16.8854 24.9896 16.9375 25.5625C16.8854 26.1354 16.5729 26.4479 16 26.5C14.125 26.474 12.4453 26.0182 10.9609 25.1328C9.45052 24.2474 8.2526 23.0495 7.36719 21.5391C6.48177 20.0547 6.02604 18.375 6 16.5C6.02604 14.625 6.48177 12.9453 7.36719 11.4609C8.2526 9.95052 9.45052 8.7526 10.9609 7.86719C12.4453 6.98177 14.125 6.52604 16 6.5C17.875 6.52604 19.5547 6.98177 21.0391 7.86719C22.5495 8.7526 23.7474 9.95052 24.6328 11.4609C25.5182 12.9453 25.974 14.625 26 16.5V17.5938C25.974 18.6094 25.6224 19.4557 24.9453 20.1328C24.2682 20.8099 23.4219 21.1615 22.4062 21.1875C21.1302 21.1354 20.1536 20.6276 19.4766 19.6641C18.5651 20.6276 17.4062 21.1354 16 21.1875C14.6719 21.1615 13.5651 20.7057 12.6797 19.8203C11.7943 18.9349 11.3385 17.8281 11.3125 16.5C11.3385 15.1719 11.7943 14.0651 12.6797 13.1797C13.5651 12.2943 14.6719 11.8385 16 11.8125C17.1458 11.8385 18.1354 12.1901 18.9688 12.8672C19.151 12.6068 19.4115 12.4635 19.75 12.4375C20.3229 12.4896 20.6354 12.8021 20.6875 13.375V16.5V17.5938C20.6875 18.0885 20.8568 18.4922 21.1953 18.8047C21.5078 19.1432 21.9115 19.3125 22.4062 19.3125C22.901 19.3125 23.3047 19.1432 23.6172 18.8047C23.9557 18.4922 24.125 18.0885 24.125 17.5938V16.5C24.0729 14.2083 23.2786 12.2943 21.7422 10.7578C20.2057 9.22135 18.2917 8.42708 16 8.375ZM18.8125 16.5C18.7865 15.4323 18.3177 14.625 17.4062 14.0781C16.4688 13.5573 15.5312 13.5573 14.5938 14.0781C13.6823 14.625 13.2135 15.4323 13.1875 16.5C13.2135 17.5677 13.6823 18.375 14.5938 18.9219C15.5312 19.4427 16.4688 19.4427 17.4062 18.9219C18.3177 18.375 18.7865 17.5677 18.8125 16.5Z" fill="black" fill-opacity="0.72"/>
</g>
</svg>
