<svg width="32" height="32" viewBox="0 0 32 32" fill="none" xmlns="http://www.w3.org/2000/svg">
<g id="standalone / md / bookmark-md / bold">
<path id="icon" d="M8.5 8.375C8.52604 7.85417 8.70833 7.41146 9.04688 7.04688C9.41146 6.70833 9.85417 6.52604 10.375 6.5V8.375V23.7266L15.4531 20.1328C15.8177 19.8984 16.1823 19.8984 16.5469 20.1328L21.625 23.7266V8.375H10.375V6.5H21.625C22.1458 6.52604 22.5885 6.70833 22.9531 7.04688C23.2917 7.41146 23.474 7.85417 23.5 8.375V25.5625C23.5 25.9271 23.3307 26.2005 22.9922 26.3828C22.6536 26.5391 22.3281 26.526 22.0156 26.3438L16 22.0469L9.98438 26.3438C9.67188 26.526 9.34635 26.5391 9.00781 26.3828C8.69531 26.2005 8.52604 25.9271 8.5 25.5625V8.375Z" fill="black" fill-opacity="0.72"/>
</g>
</svg>
