<svg width="32" height="32" viewBox="0 0 32 32" fill="none" xmlns="http://www.w3.org/2000/svg">
<g id="standalone / md / bookmark-md / regular">
<path id="icon" d="M8.5 8.375C8.52604 7.85417 8.70833 7.41146 9.04688 7.04688C9.41146 6.70833 9.85417 6.52604 10.375 6.5H21.625C22.1458 6.52604 22.5885 6.70833 22.9531 7.04688C23.2917 7.41146 23.474 7.85417 23.5 8.375V25.6406C23.4479 26.1615 23.1615 26.4479 22.6406 26.5C22.4583 26.5 22.3021 26.4479 22.1719 26.3438L16 22.2422L9.82812 26.3438C9.69792 26.4479 9.54167 26.5 9.35938 26.5C8.83854 26.4479 8.55208 26.1615 8.5 25.6406V8.375ZM10.375 7.75C9.98438 7.77604 9.77604 7.98438 9.75 8.375V24.8984L15.6484 20.9922C15.8828 20.8359 16.1172 20.8359 16.3516 20.9922L22.25 24.8984V8.375C22.224 7.98438 22.0156 7.77604 21.625 7.75H10.375Z" fill="black" fill-opacity="0.72"/>
</g>
</svg>
