<svg width="32" height="32" viewBox="0 0 32 32" fill="none" xmlns="http://www.w3.org/2000/svg">
<g id="standalone / md / box-archive-circle-arrow-up-md / bold">
<path id="icon" d="M3.5 9C3.5 8.33594 4.04688 7.75 4.75 7.75C10.5703 7.75 16.3906 7.75 22.25 7.75C22.9141 7.75 23.5 8.33594 23.5 9C23.5 10.0547 23.5 11.1094 23.5 12.125C23.5 12.8281 22.9141 13.375 22.25 13.375C16.3906 13.375 10.5703 13.375 4.75 13.375C4.04688 13.375 3.5 12.8281 3.5 12.125C3.5 11.1094 3.5 10.0547 3.5 9ZM4.75 14.625H6.625C6.625 17.3594 6.625 20.0547 6.625 22.75C6.625 23.1016 6.89844 23.375 7.25 23.375C10.2969 23.375 13.3828 23.375 16.4688 23.375C16.7031 24.0781 17.0938 24.7031 17.5625 25.25C14.125 25.25 10.6875 25.25 7.25 25.25C5.84375 25.25 4.75 24.1562 4.75 22.75C4.75 20.0547 4.75 17.3594 4.75 14.625ZM5.375 9.625C5.375 10.25 5.375 10.875 5.375 11.5C10.7656 11.5 16.1953 11.5 21.625 11.5C21.625 10.875 21.625 10.25 21.625 9.625H5.375ZM9.75 16.1875C9.75 15.6797 10.1406 15.25 10.6875 15.25C12.5625 15.25 14.4375 15.25 16.3125 15.25C16.8203 15.25 17.25 15.6797 17.25 16.1875C17.25 16.7344 16.8203 17.125 16.3125 17.125C14.4375 17.125 12.5625 17.125 10.6875 17.125C10.1406 17.125 9.75 16.7344 9.75 16.1875ZM17.25 20.875C17.25 18.8828 18.3047 17.0078 20.0625 16.0312C21.7812 15.0156 23.9297 15.0156 25.6875 16.0312C27.4062 17.0078 28.5 18.8828 28.5 20.875C28.5 22.9062 27.4062 24.7422 25.6875 25.7578C23.9297 26.7734 21.7812 26.7734 20.0625 25.7578C18.3047 24.7422 17.25 22.9062 17.25 20.875ZM20.2188 20.1328C19.9844 20.3672 19.9844 20.7969 20.2188 21.0312C20.4531 21.2656 20.8828 21.2656 21.1172 21.0312C21.4688 20.6406 21.8594 20.2891 22.25 19.8984C22.25 21.0703 22.25 22.2422 22.25 23.375C22.25 23.7266 22.5234 24 22.875 24C23.1875 24 23.5 23.7266 23.5 23.375C23.5 22.2422 23.5 21.0703 23.5 19.8984C23.8516 20.2891 24.2422 20.6406 24.5938 21.0312C24.8281 21.2656 25.2578 21.2656 25.4922 21.0312C25.7266 20.7969 25.7266 20.3672 25.4922 20.1328C24.75 19.3906 24.0469 18.6875 23.3047 17.9453C23.0703 17.7109 22.6406 17.7109 22.4062 17.9453L20.2188 20.1328Z" fill="black" fill-opacity="0.72"/>
</g>
</svg>
