<svg width="32" height="32" viewBox="0 0 32 32" fill="none" xmlns="http://www.w3.org/2000/svg">
<g id="standalone / md / box-archive-circle-arrow-up-md / regular">
<path id="icon" d="M3.5 9C3.5 8.33594 4.04688 7.75 4.75 7.75C10.5703 7.75 16.3906 7.75 22.25 7.75C22.9141 7.75 23.5 8.33594 23.5 9C23.5 9.85938 23.5 10.6797 23.5 11.5C23.5 12.2031 22.9141 12.75 22.25 12.75C21.8203 12.75 21.3906 12.75 21 12.75C16 12.75 11 12.75 6 12.75C5.57031 12.75 5.14062 12.75 4.75 12.75C4.04688 12.75 3.5 12.2031 3.5 11.5C3.5 10.6797 3.5 9.85938 3.5 9ZM4.75 9C4.75 9.85938 4.75 10.6797 4.75 11.5C5.14062 11.5 5.57031 11.5 6 11.5C11 11.5 16 11.5 21 11.5C21.3906 11.5 21.8203 11.5 22.25 11.5C22.25 10.6797 22.25 9.85938 22.25 9H4.75ZM4.75 14H6C6 16.9297 6 19.8594 6 22.75C6 23.4531 6.54688 24 7.25 24C10.4141 24 13.5781 24 16.7422 24C16.9766 24.4688 17.25 24.8984 17.5625 25.25C14.125 25.25 10.6875 25.25 7.25 25.25C5.84375 25.25 4.75 24.1562 4.75 22.75C4.75 19.8594 4.75 16.9297 4.75 14ZM9.75 15.875C9.75 15.5625 10.0234 15.25 10.375 15.25C12.4453 15.25 14.5156 15.25 16.625 15.25C16.9375 15.25 17.25 15.5625 17.25 15.875C17.25 16.2266 16.9375 16.5 16.625 16.5C14.5156 16.5 12.4453 16.5 10.375 16.5C10.0234 16.5 9.75 16.2266 9.75 15.875ZM17.9922 18.0625C19.0078 16.3438 20.8438 15.25 22.875 15.25C24.8672 15.25 26.7422 16.3438 27.7188 18.0625C28.7344 19.8203 28.7344 21.9688 27.7188 23.6875C26.7422 25.4453 24.8672 26.5 22.875 26.5C20.8438 26.5 19.0078 25.4453 17.9922 23.6875C16.9766 21.9688 16.9766 19.8203 17.9922 18.0625ZM19.0859 18.6875C18.3047 20.0547 18.3047 21.7344 19.0859 23.0625C19.8672 24.4297 21.3125 25.25 22.875 25.25C24.4375 25.25 25.8828 24.4297 26.6641 23.0625C27.4453 21.7344 27.4453 20.0547 26.6641 18.6875C25.8828 17.3594 24.4375 16.5 22.875 16.5C21.3125 16.5 19.8672 17.3594 19.0859 18.6875ZM20.2188 20.1328L22.4062 17.9453C22.6406 17.7109 23.0703 17.7109 23.3047 17.9453C24.0469 18.6875 24.75 19.3906 25.4922 20.1328C25.7266 20.3672 25.7266 20.7969 25.4922 21.0312C25.2578 21.2656 24.8281 21.2656 24.5938 21.0312C24.2422 20.6406 23.8516 20.2891 23.5 19.8984C23.5 21.0703 23.5 22.2422 23.5 23.375C23.5 23.7266 23.1875 24 22.875 24C22.5234 24 22.25 23.7266 22.25 23.375C22.25 22.2422 22.25 21.0703 22.25 19.8984C21.8594 20.2891 21.4688 20.6406 21.1172 21.0312C20.8828 21.2656 20.4531 21.2656 20.2188 21.0312C19.9844 20.7969 19.9844 20.3672 20.2188 20.1328ZM21 14H22.25C22.25 14.0391 22.25 14.0391 22.25 14.0391C21.8203 14.0781 21.3906 14.1562 21 14.2734C21 14.1953 21 14.1172 21 14Z" fill="black" fill-opacity="0.72"/>
</g>
</svg>
