<svg width="32" height="32" viewBox="0 0 32 32" fill="none" xmlns="http://www.w3.org/2000/svg">
<g id="standalone / md / chart-line-up-down-md / regular">
<path id="icon" d="M7.25 8.375V22.125C7.27604 22.6458 7.45833 23.0885 7.79688 23.4531C8.16146 23.7917 8.60417 23.974 9.125 24H25.375C25.7656 24.026 25.974 24.2344 26 24.625C25.974 25.0156 25.7656 25.224 25.375 25.25H9.125C8.23958 25.224 7.4974 24.9245 6.89844 24.3516C6.32552 23.7526 6.02604 23.0104 6 22.125V8.375C6.02604 7.98438 6.23438 7.77604 6.625 7.75C7.01562 7.77604 7.22396 7.98438 7.25 8.375ZM20.375 10.25C19.9844 10.224 19.776 10.0156 19.75 9.625C19.776 9.23438 19.9844 9.02604 20.375 9H24.125C24.5156 9.02604 24.724 9.23438 24.75 9.625V13.375C24.724 13.7656 24.5156 13.974 24.125 14C23.7344 13.974 23.526 13.7656 23.5 13.375V11.1484L17.6797 16.9297C17.3932 17.1901 17.1068 17.1901 16.8203 16.9297L14.125 14.2734L10.8047 17.5547C10.5182 17.8151 10.2318 17.8151 9.94531 17.5547C9.6849 17.2682 9.6849 16.9818 9.94531 16.6953L13.6953 12.9453C13.7995 12.8151 13.9427 12.75 14.125 12.75C14.3073 12.75 14.4505 12.8151 14.5547 12.9453L17.25 15.6016L22.6016 10.25H20.375ZM20.375 21.5C19.9844 21.474 19.776 21.2656 19.75 20.875C19.776 20.4844 19.9844 20.276 20.375 20.25H22.6016L19.9453 17.5547L20.8047 16.6953L23.5 19.3516V17.125C23.526 16.7344 23.7344 16.526 24.125 16.5C24.5156 16.526 24.724 16.7344 24.75 17.125V20.875C24.724 21.2656 24.5156 21.474 24.125 21.5H20.375Z" fill="black" fill-opacity="0.72"/>
</g>
</svg>
