<svg width="32" height="32" viewBox="0 0 32 32" fill="none" xmlns="http://www.w3.org/2000/svg">
<g id="standalone / md / chart-ohlc-md / regular">
<path id="icon" d="M16 6.5C16.3125 6.5 16.625 6.8125 16.625 7.125V9H18.5C18.8125 9 19.125 9.3125 19.125 9.625C19.125 9.97656 18.8125 10.25 18.5 10.25H16.625V23.375C16.625 23.7266 16.3125 24 16 24C15.6484 24 15.375 23.7266 15.375 23.375V21.5H13.5C13.1484 21.5 12.875 21.2266 12.875 20.875C12.875 20.5625 13.1484 20.25 13.5 20.25H15.375V7.125C15.375 6.8125 15.6484 6.5 16 6.5ZM24.125 9C24.4375 9 24.75 9.3125 24.75 9.625V17.75H26.625C26.9375 17.75 27.25 18.0625 27.25 18.375C27.25 18.7266 26.9375 19 26.625 19H24.75V20.875C24.75 21.2266 24.4375 21.5 24.125 21.5C23.7734 21.5 23.5 21.2266 23.5 20.875V12.75H21.625C21.2734 12.75 21 12.4766 21 12.125C21 11.8125 21.2734 11.5 21.625 11.5H23.5V9.625C23.5 9.3125 23.7734 9 24.125 9ZM7.875 14C8.1875 14 8.5 14.3125 8.5 14.625V22.75H10.375C10.6875 22.75 11 23.0625 11 23.375C11 23.7266 10.6875 24 10.375 24H8.5V25.875C8.5 26.2266 8.1875 26.5 7.875 26.5C7.52344 26.5 7.25 26.2266 7.25 25.875V17.75H5.375C5.02344 17.75 4.75 17.4766 4.75 17.125C4.75 16.8125 5.02344 16.5 5.375 16.5H7.25V14.625C7.25 14.3125 7.52344 14 7.875 14Z" fill="black" fill-opacity="0.72"/>
</g>
</svg>
