<svg width="32" height="32" viewBox="0 0 32 32" fill="none" xmlns="http://www.w3.org/2000/svg">
<g id="standalone / md / chevrons-left-md / regular">
<path id="icon" d="M8.07031 16.0703L15.5703 8.57031C15.8568 8.3099 16.1432 8.3099 16.4297 8.57031C16.6901 8.85677 16.6901 9.14323 16.4297 9.42969L9.39844 16.5L16.4297 23.5703C16.6901 23.8568 16.6901 24.1432 16.4297 24.4297C16.1432 24.6901 15.8568 24.6901 15.5703 24.4297L8.07031 16.9297C7.8099 16.6432 7.8099 16.3568 8.07031 16.0703ZM23.0703 8.57031C23.3568 8.3099 23.6432 8.3099 23.9297 8.57031C24.1901 8.85677 24.1901 9.14323 23.9297 9.42969L16.8984 16.5L23.9297 23.5703C24.1901 23.8568 24.1901 24.1432 23.9297 24.4297C23.6432 24.6901 23.3568 24.6901 23.0703 24.4297L15.5703 16.9297C15.3099 16.6432 15.3099 16.3568 15.5703 16.0703L23.0703 8.57031Z" fill="black" fill-opacity="0.72"/>
</g>
</svg>
