<svg width="32" height="32" viewBox="0 0 32 32" fill="none" xmlns="http://www.w3.org/2000/svg">
<g id="standalone / md / chevrons-left-md / bold">
<path id="icon" d="M7.83594 15.8359L15.3359 8.33594C15.7786 7.97135 16.2214 7.97135 16.6641 8.33594C17.0286 8.77865 17.0286 9.22135 16.6641 9.66406L9.82812 16.5L16.6641 23.3359C17.0286 23.7786 17.0286 24.2214 16.6641 24.6641C16.2214 25.0286 15.7786 25.0286 15.3359 24.6641L7.83594 17.1641C7.47135 16.7214 7.47135 16.2786 7.83594 15.8359ZM22.8359 8.33594C23.2786 7.97135 23.7214 7.97135 24.1641 8.33594C24.5286 8.77865 24.5286 9.22135 24.1641 9.66406L17.3281 16.5L24.1641 23.3359C24.5286 23.7786 24.5286 24.2214 24.1641 24.6641C23.7214 25.0286 23.2786 25.0286 22.8359 24.6641L15.3359 17.1641C14.9714 16.7214 14.9714 16.2786 15.3359 15.8359L22.8359 8.33594Z" fill="black" fill-opacity="0.72"/>
</g>
</svg>
