<svg width="32" height="32" viewBox="0 0 32 32" fill="none" xmlns="http://www.w3.org/2000/svg">
<g id="standalone / md / chevrons-right-md / regular">
<path id="icon" d="M8.92969 24.4297C8.64323 24.6901 8.35677 24.6901 8.07031 24.4297C7.8099 24.1432 7.8099 23.8568 8.07031 23.5703L15.1016 16.5L8.07031 9.42969C7.8099 9.14323 7.8099 8.85677 8.07031 8.57031C8.35677 8.3099 8.64323 8.3099 8.92969 8.57031L16.4297 16.0703C16.6901 16.3568 16.6901 16.6432 16.4297 16.9297L8.92969 24.4297ZM16.4297 24.4297C16.1432 24.6901 15.8568 24.6901 15.5703 24.4297C15.3099 24.1432 15.3099 23.8568 15.5703 23.5703L22.6016 16.5L15.5703 9.42969C15.3099 9.14323 15.3099 8.85677 15.5703 8.57031C15.8568 8.3099 16.1432 8.3099 16.4297 8.57031L23.9297 16.0703C24.1901 16.3568 24.1901 16.6432 23.9297 16.9297L16.4297 24.4297Z" fill="black" fill-opacity="0.72"/>
</g>
</svg>
