<svg width="32" height="32" viewBox="0 0 32 32" fill="none" xmlns="http://www.w3.org/2000/svg">
<g id="standalone / md / chevrons-right-md / bold">
<path id="icon" d="M24.1641 15.8359C24.5286 16.2786 24.5286 16.7214 24.1641 17.1641L16.6641 24.6641C16.2214 25.0286 15.7786 25.0286 15.3359 24.6641C14.9714 24.2214 14.9714 23.7786 15.3359 23.3359L22.1719 16.5L15.3359 9.66406C14.9714 9.22135 14.9714 8.77865 15.3359 8.33594C15.7786 7.97135 16.2214 7.97135 16.6641 8.33594L24.1641 15.8359ZM9.16406 8.33594L16.6641 15.8359C17.0286 16.2786 17.0286 16.7214 16.6641 17.1641L9.16406 24.6641C8.72135 25.0286 8.27865 25.0286 7.83594 24.6641C7.47135 24.2214 7.47135 23.7786 7.83594 23.3359L14.6719 16.5L7.83594 9.66406C7.47135 9.22135 7.47135 8.77865 7.83594 8.33594C8.27865 7.97135 8.72135 7.97135 9.16406 8.33594Z" fill="black" fill-opacity="0.72"/>
</g>
</svg>
