<svg width="32" height="32" viewBox="0 0 32 32" fill="none" xmlns="http://www.w3.org/2000/svg">
<g id="standalone / md / circle-user-md / bold">
<path id="icon" d="M21.8984 22.125C23.3307 20.6146 24.0729 18.7396 24.125 16.5C24.0729 14.2083 23.2786 12.2943 21.7422 10.7578C20.2057 9.22135 18.2917 8.42708 16 8.375C13.7083 8.42708 11.7943 9.22135 10.2578 10.7578C8.72135 12.2943 7.92708 14.2083 7.875 16.5C7.92708 18.7396 8.68229 20.6146 10.1406 22.125C10.5052 21.1875 11.1042 20.4323 11.9375 19.8594C12.7448 19.3125 13.6823 19.026 14.75 19H17.25C18.3177 19.026 19.2552 19.3125 20.0625 19.8594C20.8958 20.4323 21.5078 21.1875 21.8984 22.125ZM20.2969 23.375H20.3359C20.1536 22.6458 19.7891 22.0469 19.2422 21.5781C18.6953 21.1354 18.0312 20.901 17.25 20.875H14.75C13.9688 20.901 13.3047 21.1354 12.7578 21.5781C12.2109 22.0469 11.8594 22.6458 11.7031 23.375C12.9531 24.1823 14.3854 24.599 16 24.625C17.6146 24.599 19.0469 24.1823 20.2969 23.375ZM16 26.5C14.1771 26.474 12.5104 26.0312 11 25.1719C9.48958 24.2865 8.26562 23.0625 7.32812 21.5C6.44271 19.9115 6 18.2448 6 16.5C6 14.7552 6.44271 13.0885 7.32812 11.5C8.26562 9.9375 9.48958 8.71354 11 7.82812C12.5104 6.96875 14.1771 6.52604 16 6.5C17.8229 6.52604 19.4896 6.96875 21 7.82812C22.5104 8.71354 23.7344 9.9375 24.6719 11.5C25.5573 13.0885 26 14.7552 26 16.5C26 18.2448 25.5573 19.9115 24.6719 21.5C23.7344 23.0625 22.5104 24.2865 21 25.1719C19.4896 26.0312 17.8229 26.474 16 26.5ZM16 15.875C16.599 15.849 17.0547 15.5885 17.3672 15.0938C17.6276 14.5729 17.6276 14.0521 17.3672 13.5312C17.0547 13.0365 16.599 12.776 16 12.75C15.401 12.776 14.9453 13.0365 14.6328 13.5312C14.3724 14.0521 14.3724 14.5729 14.6328 15.0938C14.9453 15.5885 15.401 15.849 16 15.875ZM12.5625 14.3125C12.6146 13.0104 13.1875 12.0208 14.2812 11.3438C15.4271 10.7188 16.5729 10.7188 17.7188 11.3438C18.8125 12.0208 19.3854 13.0104 19.4375 14.3125C19.3854 15.6146 18.8125 16.6042 17.7188 17.2812C16.5729 17.9062 15.4271 17.9062 14.2812 17.2812C13.1875 16.6042 12.6146 15.6146 12.5625 14.3125Z" fill="black" fill-opacity="0.72"/>
</g>
</svg>
