<svg width="32" height="32" viewBox="0 0 32 32" fill="none" xmlns="http://www.w3.org/2000/svg">
<g id="standalone / md / circle-nine-md / regular">
<path id="icon" d="M24.75 16.5C24.724 14.9115 24.3333 13.4531 23.5781 12.125C22.7969 10.7969 21.7292 9.72917 20.375 8.92188C18.9948 8.14062 17.5365 7.75 16 7.75C14.4635 7.75 13.0052 8.14062 11.625 8.92188C10.2708 9.72917 9.20312 10.7969 8.42188 12.125C7.66667 13.4531 7.27604 14.9115 7.25 16.5C7.27604 18.0885 7.66667 19.5469 8.42188 20.875C9.20312 22.2031 10.2708 23.2708 11.625 24.0781C13.0052 24.8594 14.4635 25.25 16 25.25C17.5365 25.25 18.9948 24.8594 20.375 24.0781C21.7292 23.2708 22.7969 22.2031 23.5781 20.875C24.3333 19.5469 24.724 18.0885 24.75 16.5ZM6 16.5C6.02604 14.6771 6.46875 13.0104 7.32812 11.5C8.21354 9.98958 9.4375 8.76562 11 7.82812C12.5885 6.94271 14.2552 6.5 16 6.5C17.7448 6.5 19.4115 6.94271 21 7.82812C22.5625 8.76562 23.7865 9.98958 24.6719 11.5C25.5312 13.0104 25.974 14.6771 26 16.5C25.974 18.3229 25.5312 19.9896 24.6719 21.5C23.7865 23.0104 22.5625 24.2344 21 25.1719C19.4115 26.0573 17.7448 26.5 16 26.5C14.2552 26.5 12.5885 26.0573 11 25.1719C9.4375 24.2344 8.21354 23.0104 7.32812 21.5C6.46875 19.9896 6.02604 18.3229 6 16.5ZM16 12.75C15.0625 12.776 14.3464 13.1927 13.8516 14C13.3828 14.8333 13.3828 15.6667 13.8516 16.5C14.3464 17.3073 15.0625 17.724 16 17.75C16.9375 17.724 17.6536 17.3073 18.1484 16.5C18.6172 15.6667 18.6172 14.8333 18.1484 14C17.6536 13.1927 16.9375 12.776 16 12.75ZM15.8438 19C14.8281 18.9479 13.9818 18.5703 13.3047 17.8672C12.6276 17.1641 12.276 16.2917 12.25 15.25C12.276 14.1823 12.6406 13.2969 13.3438 12.5938C14.0469 11.8906 14.9323 11.526 16 11.5C17.0677 11.526 17.9531 11.8906 18.6562 12.5938C19.3594 13.2969 19.724 14.1823 19.75 15.25C19.724 16.474 19.2812 17.5026 18.4219 18.3359L15.1797 21.3438C14.8672 21.5781 14.5677 21.5651 14.2812 21.3047C14.0469 20.9922 14.0599 20.6927 14.3203 20.4062L15.8438 19Z" fill="black" fill-opacity="0.72"/>
</g>
</svg>
