<svg width="32" height="32" viewBox="0 0 32 32" fill="none" xmlns="http://www.w3.org/2000/svg">
<g id="standalone / md / circle-envelope-md / regular">
<path id="icon" d="M24.75 16.5C24.724 14.9115 24.3333 13.4531 23.5781 12.125C22.7969 10.7969 21.7292 9.72917 20.375 8.92188C18.9948 8.14062 17.5365 7.75 16 7.75C14.4635 7.75 13.0052 8.14062 11.625 8.92188C10.2708 9.72917 9.20312 10.7969 8.42188 12.125C7.66667 13.4531 7.27604 14.9115 7.25 16.5C7.27604 18.0885 7.66667 19.5469 8.42188 20.875C9.20312 22.2031 10.2708 23.2708 11.625 24.0781C13.0052 24.8594 14.4635 25.25 16 25.25C17.5365 25.25 18.9948 24.8594 20.375 24.0781C21.7292 23.2708 22.7969 22.2031 23.5781 20.875C24.3333 19.5469 24.724 18.0885 24.75 16.5ZM6 16.5C6.02604 14.6771 6.46875 13.0104 7.32812 11.5C8.21354 9.98958 9.4375 8.76562 11 7.82812C12.5885 6.94271 14.2552 6.5 16 6.5C17.7448 6.5 19.4115 6.94271 21 7.82812C22.5625 8.76562 23.7865 9.98958 24.6719 11.5C25.5312 13.0104 25.974 14.6771 26 16.5C25.974 18.3229 25.5312 19.9896 24.6719 21.5C23.7865 23.0104 22.5625 24.2344 21 25.1719C19.4115 26.0573 17.7448 26.5 16 26.5C14.2552 26.5 12.5885 26.0573 11 25.1719C9.4375 24.2344 8.21354 23.0104 7.32812 21.5C6.46875 19.9896 6.02604 18.3229 6 16.5ZM12.25 12.75H19.75C20.1146 12.75 20.4141 12.8672 20.6484 13.1016C20.8828 13.3359 21 13.6354 21 14V19C21 19.3646 20.8828 19.6641 20.6484 19.8984C20.4141 20.1328 20.1146 20.25 19.75 20.25H12.25C11.8854 20.25 11.5859 20.1328 11.3516 19.8984C11.1172 19.6641 11 19.3646 11 19V14C11 13.6354 11.1172 13.3359 11.3516 13.1016C11.5859 12.8672 11.8854 12.75 12.25 12.75ZM19.75 14.6641V14H12.25V14.6641L15.7266 16.5C15.8047 16.526 15.8958 16.5521 16 16.5781C16.1042 16.5781 16.2083 16.5521 16.3125 16.5L19.75 14.6641ZM19.75 16.0703L16.8984 17.5938C16.612 17.724 16.3125 17.7891 16 17.7891C15.6875 17.7891 15.388 17.724 15.1016 17.5938L12.25 16.0703V19H19.75V16.0703Z" fill="black" fill-opacity="0.72"/>
</g>
</svg>
