<svg width="32" height="32" viewBox="0 0 32 32" fill="none" xmlns="http://www.w3.org/2000/svg">
<g id="standalone / md / circle-sort-up-md / regular">
<path id="icon" d="M24.75 16.5C24.724 14.9115 24.3333 13.4531 23.5781 12.125C22.7969 10.7969 21.7292 9.72917 20.375 8.92188C18.9948 8.14062 17.5365 7.75 16 7.75C14.4635 7.75 13.0052 8.14062 11.625 8.92188C10.2708 9.72917 9.20312 10.7969 8.42188 12.125C7.66667 13.4531 7.27604 14.9115 7.25 16.5C7.27604 18.0885 7.66667 19.5469 8.42188 20.875C9.20312 22.2031 10.2708 23.2708 11.625 24.0781C13.0052 24.8594 14.4635 25.25 16 25.25C17.5365 25.25 18.9948 24.8594 20.375 24.0781C21.7292 23.2708 22.7969 22.2031 23.5781 20.875C24.3333 19.5469 24.724 18.0885 24.75 16.5ZM6 16.5C6.02604 14.6771 6.46875 13.0104 7.32812 11.5C8.21354 9.98958 9.4375 8.76562 11 7.82812C12.5885 6.94271 14.2552 6.5 16 6.5C17.7448 6.5 19.4115 6.94271 21 7.82812C22.5625 8.76562 23.7865 9.98958 24.6719 11.5C25.5312 13.0104 25.974 14.6771 26 16.5C25.974 18.3229 25.5312 19.9896 24.6719 21.5C23.7865 23.0104 22.5625 24.2344 21 25.1719C19.4115 26.0573 17.7448 26.5 16 26.5C14.2552 26.5 12.5885 26.0573 11 25.1719C9.4375 24.2344 8.21354 23.0104 7.32812 21.5C6.46875 19.9896 6.02604 18.3229 6 16.5ZM15.5703 10.4453C15.8568 10.1849 16.1432 10.1849 16.4297 10.4453L20.1797 14.1953C20.362 14.3776 20.4141 14.599 20.3359 14.8594C20.2057 15.0938 20.0104 15.224 19.75 15.25H12.25C11.9896 15.25 11.7943 15.1198 11.6641 14.8594C11.5859 14.599 11.638 14.3776 11.8203 14.1953L15.5703 10.4453ZM13.7734 14H18.2266L16 11.7734L13.7734 14ZM11.8203 18.8047C11.5599 18.5182 11.5599 18.2318 11.8203 17.9453C12.1068 17.6849 12.3932 17.6849 12.6797 17.9453L16 21.2266L19.3203 17.9453C19.6068 17.6849 19.8932 17.6849 20.1797 17.9453C20.4401 18.2318 20.4401 18.5182 20.1797 18.8047L16.4297 22.5547C16.1432 22.8151 15.8568 22.8151 15.5703 22.5547L11.8203 18.8047Z" fill="black" fill-opacity="0.72"/>
</g>
</svg>
