<svg width="32" height="32" viewBox="0 0 32 32" fill="none" xmlns="http://www.w3.org/2000/svg">
<g id="standalone / md / circle-arrow-up-md / bold">
<path id="icon" d="M16 8.375C14.5156 8.375 13.1615 8.73958 11.9375 9.46875C10.7135 10.1719 9.72396 11.1615 8.96875 12.4375C8.23958 13.7135 7.875 15.0677 7.875 16.5C7.875 17.9323 8.23958 19.2865 8.96875 20.5625C9.72396 21.8385 10.7135 22.8281 11.9375 23.5312C13.1615 24.2604 14.5156 24.625 16 24.625C17.4844 24.625 18.8385 24.2604 20.0625 23.5312C21.2865 22.8281 22.276 21.8385 23.0312 20.5625C23.7604 19.2865 24.125 17.9323 24.125 16.5C24.125 15.0677 23.7604 13.7135 23.0312 12.4375C22.276 11.1615 21.2865 10.1719 20.0625 9.46875C18.8385 8.73958 17.4844 8.375 16 8.375ZM16 26.5C14.1771 26.474 12.5104 26.0312 11 25.1719C9.48958 24.2865 8.26562 23.0625 7.32812 21.5C6.44271 19.9115 6 18.2448 6 16.5C6 14.7552 6.44271 13.0885 7.32812 11.5C8.26562 9.9375 9.48958 8.71354 11 7.82812C12.5104 6.96875 14.1771 6.52604 16 6.5C17.8229 6.52604 19.4896 6.96875 21 7.82812C22.5104 8.71354 23.7344 9.9375 24.6719 11.5C25.5573 13.0885 26 14.7552 26 16.5C26 18.2448 25.5573 19.9115 24.6719 21.5C23.7344 23.0625 22.5104 24.2865 21 25.1719C19.4896 26.0312 17.8229 26.474 16 26.5ZM20.1016 15.2109C20.4661 15.6536 20.4661 16.0964 20.1016 16.5391C19.6589 16.9036 19.2161 16.9036 18.7734 16.5391L16.9375 14.7031V20.5625C16.8854 21.1354 16.5729 21.4479 16 21.5C15.4271 21.4479 15.1146 21.1354 15.0625 20.5625V14.7031L13.2266 16.5391C12.7839 16.9036 12.3411 16.9036 11.8984 16.5391C11.5339 16.0964 11.5339 15.6536 11.8984 15.2109L15.3359 11.7734C15.7786 11.4089 16.2214 11.4089 16.6641 11.7734L20.1016 15.2109Z" fill="black" fill-opacity="0.72"/>
</g>
</svg>
