<svg width="32" height="32" viewBox="0 0 32 32" fill="none" xmlns="http://www.w3.org/2000/svg">
<g id="standalone / md / circle-trash-md / bold">
<path id="icon" d="M24.125 16.5C24.125 15.0156 23.7604 13.6615 23.0312 12.4375C22.3281 11.2135 21.3385 10.224 20.0625 9.46875C18.7865 8.73958 17.4323 8.375 16 8.375C14.5677 8.375 13.2135 8.73958 11.9375 9.46875C10.6615 10.224 9.67188 11.2135 8.96875 12.4375C8.23958 13.6615 7.875 15.0156 7.875 16.5C7.875 17.9844 8.23958 19.3385 8.96875 20.5625C9.67188 21.7865 10.6615 22.776 11.9375 23.5312C13.2135 24.2604 14.5677 24.625 16 24.625C17.4323 24.625 18.7865 24.2604 20.0625 23.5312C21.3385 22.776 22.3281 21.7865 23.0312 20.5625C23.7604 19.3385 24.125 17.9844 24.125 16.5ZM6 16.5C6.02604 14.6771 6.46875 13.0104 7.32812 11.5C8.21354 9.98958 9.4375 8.76562 11 7.82812C12.5885 6.94271 14.2552 6.5 16 6.5C17.7448 6.5 19.4115 6.94271 21 7.82812C22.5625 8.76562 23.7865 9.98958 24.6719 11.5C25.5312 13.0104 25.974 14.6771 26 16.5C25.974 18.3229 25.5312 19.9896 24.6719 21.5C23.7865 23.0104 22.5625 24.2344 21 25.1719C19.4115 26.0573 17.7448 26.5 16 26.5C14.2552 26.5 12.5885 26.0573 11 25.1719C9.4375 24.2344 8.21354 23.0104 7.32812 21.5C6.46875 19.9896 6.02604 18.3229 6 16.5ZM12.25 11.5H13.8516L14.3203 11.0703C14.4245 10.9401 14.5677 10.875 14.75 10.875H17.25C17.4323 10.875 17.5755 10.9401 17.6797 11.0703L18.1484 11.5H19.75C20.1406 11.526 20.349 11.7344 20.375 12.125C20.349 12.5156 20.1406 12.724 19.75 12.75H12.25C11.8594 12.724 11.651 12.5156 11.625 12.125C11.651 11.7344 11.8594 11.526 12.25 11.5ZM12.25 14H19.75L19.2031 20.3672C19.099 21.0703 18.6953 21.4479 17.9922 21.5H14.0078C13.6953 21.5 13.4219 21.3958 13.1875 21.1875C12.9531 20.9531 12.8229 20.6797 12.7969 20.3672L12.25 14Z" fill="black" fill-opacity="0.72"/>
</g>
</svg>
