<svg width="32" height="32" viewBox="0 0 32 32" fill="none" xmlns="http://www.w3.org/2000/svg">
<g id="standalone / md / circle-eight-md / bold">
<path id="icon" d="M24.125 16.5C24.125 15.0156 23.7604 13.6615 23.0312 12.4375C22.3281 11.2135 21.3385 10.224 20.0625 9.46875C18.7865 8.73958 17.4323 8.375 16 8.375C14.5677 8.375 13.2135 8.73958 11.9375 9.46875C10.6615 10.224 9.67188 11.2135 8.96875 12.4375C8.23958 13.6615 7.875 15.0156 7.875 16.5C7.875 17.9844 8.23958 19.3385 8.96875 20.5625C9.67188 21.7865 10.6615 22.776 11.9375 23.5312C13.2135 24.2604 14.5677 24.625 16 24.625C17.4323 24.625 18.7865 24.2604 20.0625 23.5312C21.3385 22.776 22.3281 21.7865 23.0312 20.5625C23.7604 19.3385 24.125 17.9844 24.125 16.5ZM6 16.5C6.02604 14.6771 6.46875 13.0104 7.32812 11.5C8.21354 9.98958 9.4375 8.76562 11 7.82812C12.5885 6.94271 14.2552 6.5 16 6.5C17.7448 6.5 19.4115 6.94271 21 7.82812C22.5625 8.76562 23.7865 9.98958 24.6719 11.5C25.5312 13.0104 25.974 14.6771 26 16.5C25.974 18.3229 25.5312 19.9896 24.6719 21.5C23.7865 23.0104 22.5625 24.2344 21 25.1719C19.4115 26.0573 17.7448 26.5 16 26.5C14.2552 26.5 12.5885 26.0573 11 25.1719C9.4375 24.2344 8.21354 23.0104 7.32812 21.5C6.46875 19.9896 6.02604 18.3229 6 16.5ZM16.3125 11.5C17.1198 11.526 17.7839 11.7995 18.3047 12.3203C18.8255 12.8411 19.099 13.5052 19.125 14.3125C19.125 14.9375 18.9557 15.4844 18.6172 15.9531C19.3464 16.5521 19.724 17.3594 19.75 18.375C19.724 19.2604 19.4245 20.0026 18.8516 20.6016C18.2526 21.1745 17.5104 21.474 16.625 21.5H15.375C14.4896 21.474 13.7474 21.1745 13.1484 20.6016C12.5755 20.0026 12.276 19.2604 12.25 18.375C12.276 17.3594 12.6667 16.5521 13.4219 15.9531C13.0573 15.4844 12.875 14.9375 12.875 14.3125C12.901 13.5052 13.1745 12.8411 13.6953 12.3203C14.2161 11.7995 14.8802 11.526 15.6875 11.5H16.3125ZM15.6875 15.25H16.3125C16.8854 15.1979 17.1979 14.8854 17.25 14.3125C17.1979 13.7396 16.8854 13.4271 16.3125 13.375H15.6875C15.1146 13.4271 14.8021 13.7396 14.75 14.3125C14.8021 14.8854 15.1146 15.1979 15.6875 15.25ZM16.3125 17.125H15.6875H15.375C15.0104 17.125 14.7109 17.2422 14.4766 17.4766C14.2422 17.7109 14.125 18.0104 14.125 18.375C14.125 18.7396 14.2422 19.0391 14.4766 19.2734C14.7109 19.5078 15.0104 19.625 15.375 19.625H16.625C16.9896 19.625 17.2891 19.5078 17.5234 19.2734C17.7578 19.0391 17.875 18.7396 17.875 18.375C17.875 18.0104 17.7578 17.7109 17.5234 17.4766C17.2891 17.2422 16.9896 17.125 16.625 17.125H16.3125Z" fill="black" fill-opacity="0.72"/>
</g>
</svg>
