<svg width="32" height="32" viewBox="0 0 32 32" fill="none" xmlns="http://www.w3.org/2000/svg">
<g id="standalone / md / circle-dot-md / bold">
<path id="icon" d="M24.125 16.5C24.125 15.0156 23.7604 13.6615 23.0312 12.4375C22.3281 11.2135 21.3385 10.224 20.0625 9.46875C18.7865 8.73958 17.4323 8.375 16 8.375C14.5677 8.375 13.2135 8.73958 11.9375 9.46875C10.6615 10.224 9.67188 11.2135 8.96875 12.4375C8.23958 13.6615 7.875 15.0156 7.875 16.5C7.875 17.9844 8.23958 19.3385 8.96875 20.5625C9.67188 21.7865 10.6615 22.776 11.9375 23.5312C13.2135 24.2604 14.5677 24.625 16 24.625C17.4323 24.625 18.7865 24.2604 20.0625 23.5312C21.3385 22.776 22.3281 21.7865 23.0312 20.5625C23.7604 19.3385 24.125 17.9844 24.125 16.5ZM6 16.5C6.02604 14.6771 6.46875 13.0104 7.32812 11.5C8.21354 9.98958 9.4375 8.76562 11 7.82812C12.5885 6.94271 14.2552 6.5 16 6.5C17.7448 6.5 19.4115 6.94271 21 7.82812C22.5625 8.76562 23.7865 9.98958 24.6719 11.5C25.5312 13.0104 25.974 14.6771 26 16.5C25.974 18.3229 25.5312 19.9896 24.6719 21.5C23.7865 23.0104 22.5625 24.2344 21 25.1719C19.4115 26.0573 17.7448 26.5 16 26.5C14.2552 26.5 12.5885 26.0573 11 25.1719C9.4375 24.2344 8.21354 23.0104 7.32812 21.5C6.46875 19.9896 6.02604 18.3229 6 16.5ZM16 12.75C16.6771 12.75 17.3021 12.9193 17.875 13.2578C18.4479 13.5964 18.9036 14.0521 19.2422 14.625C19.5807 15.224 19.75 15.849 19.75 16.5C19.75 17.151 19.5807 17.776 19.2422 18.375C18.9036 18.9479 18.4479 19.4036 17.875 19.7422C17.3021 20.0807 16.6771 20.25 16 20.25C15.3229 20.25 14.6979 20.0807 14.125 19.7422C13.5521 19.4036 13.0964 18.9479 12.7578 18.375C12.4193 17.776 12.25 17.151 12.25 16.5C12.25 15.849 12.4193 15.224 12.7578 14.625C13.0964 14.0521 13.5521 13.5964 14.125 13.2578C14.6979 12.9193 15.3229 12.75 16 12.75Z" fill="black" fill-opacity="0.72"/>
</g>
</svg>
