<svg width="32" height="32" viewBox="0 0 32 32" fill="none" xmlns="http://www.w3.org/2000/svg">
<g id="standalone / md / circle-dollar-md / bold">
<path id="icon" d="M24.125 16.5C24.125 15.0156 23.7604 13.6615 23.0312 12.4375C22.3281 11.2135 21.3385 10.224 20.0625 9.46875C18.7865 8.73958 17.4323 8.375 16 8.375C14.5677 8.375 13.2135 8.73958 11.9375 9.46875C10.6615 10.224 9.67188 11.2135 8.96875 12.4375C8.23958 13.6615 7.875 15.0156 7.875 16.5C7.875 17.9844 8.23958 19.3385 8.96875 20.5625C9.67188 21.7865 10.6615 22.776 11.9375 23.5312C13.2135 24.2604 14.5677 24.625 16 24.625C17.4323 24.625 18.7865 24.2604 20.0625 23.5312C21.3385 22.776 22.3281 21.7865 23.0312 20.5625C23.7604 19.3385 24.125 17.9844 24.125 16.5ZM6 16.5C6.02604 14.6771 6.46875 13.0104 7.32812 11.5C8.21354 9.98958 9.4375 8.76562 11 7.82812C12.5885 6.94271 14.2552 6.5 16 6.5C17.7448 6.5 19.4115 6.94271 21 7.82812C22.5625 8.76562 23.7865 9.98958 24.6719 11.5C25.5312 13.0104 25.974 14.6771 26 16.5C25.974 18.3229 25.5312 19.9896 24.6719 21.5C23.7865 23.0104 22.5625 24.2344 21 25.1719C19.4115 26.0573 17.7448 26.5 16 26.5C14.2552 26.5 12.5885 26.0573 11 25.1719C9.4375 24.2344 8.21354 23.0104 7.32812 21.5C6.46875 19.9896 6.02604 18.3229 6 16.5ZM16.8203 11.7344V12.2812C17.1849 12.3333 17.5625 12.4115 17.9531 12.5156C18.0312 12.5417 18.0964 12.5677 18.1484 12.5938C18.6432 12.776 18.8516 13.1276 18.7734 13.6484C18.5651 14.1172 18.2135 14.3125 17.7188 14.2344C17.6927 14.2083 17.6667 14.1953 17.6406 14.1953C17.5885 14.1953 17.5495 14.1823 17.5234 14.1562C17.263 14.0781 16.9896 14.013 16.7031 13.9609C16.1562 13.8568 15.6224 13.9089 15.1016 14.1172C14.8672 14.2214 14.7109 14.3646 14.6328 14.5469C14.5286 14.7292 14.5938 14.9115 14.8281 15.0938C15.2188 15.3021 15.6354 15.4583 16.0781 15.5625C16.1042 15.5625 16.1172 15.5625 16.1172 15.5625C16.1693 15.5885 16.2214 15.6016 16.2734 15.6016C16.2995 15.6276 16.3385 15.6406 16.3906 15.6406C17.0677 15.7969 17.7188 16.0573 18.3438 16.4219C19.125 16.9948 19.4375 17.75 19.2812 18.6875C19.0729 19.5729 18.5781 20.1589 17.7969 20.4453C17.4844 20.5755 17.1589 20.6536 16.8203 20.6797V21.3047C16.7682 21.7995 16.4818 22.0729 15.9609 22.125C15.4661 22.0729 15.1927 21.7995 15.1406 21.3047V20.6016C14.5677 20.4714 14.0078 20.3151 13.4609 20.1328C12.9922 19.9245 12.8099 19.5599 12.9141 19.0391C13.1224 18.5703 13.474 18.401 13.9688 18.5312C14.0208 18.5312 14.0729 18.5443 14.125 18.5703C14.1771 18.5703 14.2292 18.5833 14.2812 18.6094C14.724 18.7656 15.1667 18.8958 15.6094 19C16.2865 19.0781 16.8073 19.0391 17.1719 18.8828C17.4062 18.7786 17.5625 18.6224 17.6406 18.4141C17.6927 18.1797 17.6146 17.9844 17.4062 17.8281C16.9896 17.5677 16.5339 17.3984 16.0391 17.3203C15.9609 17.2943 15.8828 17.2682 15.8047 17.2422C15.7786 17.2161 15.7656 17.2031 15.7656 17.2031C15.1146 17.0729 14.4896 16.8385 13.8906 16.5C13.1094 15.9792 12.7839 15.25 12.9141 14.3125C13.1484 13.4531 13.6562 12.8672 14.4375 12.5547C14.6458 12.4766 14.8802 12.4115 15.1406 12.3594V11.7344C15.1927 11.2135 15.4661 10.9271 15.9609 10.875C16.4818 10.9271 16.7682 11.2135 16.8203 11.7344Z" fill="black" fill-opacity="0.72"/>
</g>
</svg>
