<svg width="32" height="32" viewBox="0 0 32 32" fill="none" xmlns="http://www.w3.org/2000/svg">
<g id="standalone / md / circle-envelope-md / bold">
<path id="icon" d="M16 8.375C14.5156 8.375 13.1615 8.73958 11.9375 9.46875C10.7135 10.1719 9.72396 11.1615 8.96875 12.4375C8.23958 13.7135 7.875 15.0677 7.875 16.5C7.875 17.9323 8.23958 19.2865 8.96875 20.5625C9.72396 21.8385 10.7135 22.8281 11.9375 23.5312C13.1615 24.2604 14.5156 24.625 16 24.625C17.4844 24.625 18.8385 24.2604 20.0625 23.5312C21.2865 22.8281 22.276 21.8385 23.0312 20.5625C23.7604 19.2865 24.125 17.9323 24.125 16.5C24.125 15.0677 23.7604 13.7135 23.0312 12.4375C22.276 11.1615 21.2865 10.1719 20.0625 9.46875C18.8385 8.73958 17.4844 8.375 16 8.375ZM16 26.5C14.1771 26.474 12.5104 26.0312 11 25.1719C9.48958 24.2865 8.26562 23.0625 7.32812 21.5C6.44271 19.9115 6 18.2448 6 16.5C6 14.7552 6.44271 13.0885 7.32812 11.5C8.26562 9.9375 9.48958 8.71354 11 7.82812C12.5104 6.96875 14.1771 6.52604 16 6.5C17.8229 6.52604 19.4896 6.96875 21 7.82812C22.5104 8.71354 23.7344 9.9375 24.6719 11.5C25.5573 13.0885 26 14.7552 26 16.5C26 18.2448 25.5573 19.9115 24.6719 21.5C23.7344 23.0625 22.5104 24.2865 21 25.1719C19.4896 26.0312 17.8229 26.474 16 26.5ZM15.7266 16.5L11 13.8828C11.026 13.5703 11.1562 13.3099 11.3906 13.1016C11.625 12.8672 11.9115 12.75 12.25 12.75H19.75C20.0885 12.75 20.375 12.8542 20.6094 13.0625C20.8438 13.2969 20.974 13.5703 21 13.8828L16.2734 16.5C16.1953 16.5521 16.1042 16.5781 16 16.5781C15.8958 16.5521 15.8047 16.526 15.7266 16.5ZM16.8984 17.5938L21 15.3281V19C21 19.3646 20.8828 19.6641 20.6484 19.8984C20.4141 20.1328 20.1146 20.25 19.75 20.25H12.25C11.8854 20.25 11.5859 20.1328 11.3516 19.8984C11.1172 19.6641 11 19.3646 11 19V15.3281L15.1016 17.5938C15.388 17.724 15.6875 17.7891 16 17.7891C16.3125 17.7891 16.612 17.724 16.8984 17.5938Z" fill="black" fill-opacity="0.72"/>
</g>
</svg>
