<svg width="32" height="32" viewBox="0 0 32 32" fill="none" xmlns="http://www.w3.org/2000/svg">
<g id="standalone / md / clone-md / regular">
<path id="icon" d="M8.5 25.25H17.25C17.6146 25.25 17.9141 25.1328 18.1484 24.8984C18.3828 24.6641 18.5 24.3646 18.5 24V21.5H19.75V24C19.724 24.7031 19.4766 25.2891 19.0078 25.7578C18.5391 26.2266 17.9531 26.474 17.25 26.5H8.5C7.79688 26.474 7.21094 26.2266 6.74219 25.7578C6.27344 25.2891 6.02604 24.7031 6 24V15.25C6.02604 14.5469 6.27344 13.9609 6.74219 13.4922C7.21094 13.0234 7.79688 12.776 8.5 12.75H11V14H8.5C8.13542 14 7.83594 14.1172 7.60156 14.3516C7.36719 14.5859 7.25 14.8854 7.25 15.25V24C7.25 24.3646 7.36719 24.6641 7.60156 24.8984C7.83594 25.1328 8.13542 25.25 8.5 25.25ZM14.75 19H23.5C23.8646 19 24.1641 18.8828 24.3984 18.6484C24.6328 18.4141 24.75 18.1146 24.75 17.75V9C24.75 8.63542 24.6328 8.33594 24.3984 8.10156C24.1641 7.86719 23.8646 7.75 23.5 7.75H14.75C14.3854 7.75 14.0859 7.86719 13.8516 8.10156C13.6172 8.33594 13.5 8.63542 13.5 9V17.75C13.5 18.1146 13.6172 18.4141 13.8516 18.6484C14.0859 18.8828 14.3854 19 14.75 19ZM12.25 17.75V9C12.276 8.29688 12.5234 7.71094 12.9922 7.24219C13.4609 6.77344 14.0469 6.52604 14.75 6.5H23.5C24.2031 6.52604 24.7891 6.77344 25.2578 7.24219C25.7266 7.71094 25.974 8.29688 26 9V17.75C25.974 18.4531 25.7266 19.0391 25.2578 19.5078C24.7891 19.9766 24.2031 20.224 23.5 20.25H14.75C14.0469 20.224 13.4609 19.9766 12.9922 19.5078C12.5234 19.0391 12.276 18.4531 12.25 17.75Z" fill="black" fill-opacity="0.72"/>
</g>
</svg>
