<svg width="32" height="32" viewBox="0 0 32 32" fill="none" xmlns="http://www.w3.org/2000/svg">
<g id="standalone / md / compress-md / regular">
<path id="icon" d="M13.5 8.375V13.375C13.474 13.7656 13.2656 13.974 12.875 14H7.875C7.48438 13.974 7.27604 13.7656 7.25 13.375C7.27604 12.9844 7.48438 12.776 7.875 12.75H12.25V8.375C12.276 7.98438 12.4844 7.77604 12.875 7.75C13.2656 7.77604 13.474 7.98438 13.5 8.375ZM7.875 19H12.875C13.2656 19.026 13.474 19.2344 13.5 19.625V24.625C13.474 25.0156 13.2656 25.224 12.875 25.25C12.4844 25.224 12.276 25.0156 12.25 24.625V20.25H7.875C7.48438 20.224 7.27604 20.0156 7.25 19.625C7.27604 19.2344 7.48438 19.026 7.875 19ZM19.75 8.375V12.75H24.125C24.5156 12.776 24.724 12.9844 24.75 13.375C24.724 13.7656 24.5156 13.974 24.125 14H19.125C18.7344 13.974 18.526 13.7656 18.5 13.375V8.375C18.526 7.98438 18.7344 7.77604 19.125 7.75C19.5156 7.77604 19.724 7.98438 19.75 8.375ZM19.125 19H24.125C24.5156 19.026 24.724 19.2344 24.75 19.625C24.724 20.0156 24.5156 20.224 24.125 20.25H19.75V24.625C19.724 25.0156 19.5156 25.224 19.125 25.25C18.7344 25.224 18.526 25.0156 18.5 24.625V19.625C18.526 19.2344 18.7344 19.026 19.125 19Z" fill="black" fill-opacity="0.72"/>
</g>
</svg>
