<svg width="32" height="32" viewBox="0 0 32 32" fill="none" xmlns="http://www.w3.org/2000/svg">
<g id="standalone / md / copy-md / regular">
<path id="icon" d="M23.5 20.25C23.8646 20.25 24.1641 20.1328 24.3984 19.8984C24.6328 19.6641 24.75 19.3646 24.75 19V11.0312C24.75 10.849 24.6849 10.7057 24.5547 10.6016L21.8984 7.94531C21.7943 7.8151 21.651 7.75 21.4688 7.75H17.25C16.8854 7.75 16.5859 7.86719 16.3516 8.10156C16.1172 8.33594 16 8.63542 16 9V19C16 19.3646 16.1172 19.6641 16.3516 19.8984C16.5859 20.1328 16.8854 20.25 17.25 20.25H23.5ZM25.4531 9.70312C25.8177 10.0677 26 10.5104 26 11.0312V19C25.974 19.7031 25.7266 20.2891 25.2578 20.7578C24.7891 21.2266 24.2031 21.474 23.5 21.5H17.25C16.5469 21.474 15.9609 21.2266 15.4922 20.7578C15.0234 20.2891 14.776 19.7031 14.75 19V9C14.776 8.29688 15.0234 7.71094 15.4922 7.24219C15.9609 6.77344 16.5469 6.52604 17.25 6.5H21.4688C21.9896 6.5 22.4323 6.68229 22.7969 7.04688L25.4531 9.70312ZM8.5 11.5H13.5V12.75H8.5C8.13542 12.75 7.83594 12.8672 7.60156 13.1016C7.36719 13.3359 7.25 13.6354 7.25 14V24C7.25 24.3646 7.36719 24.6641 7.60156 24.8984C7.83594 25.1328 8.13542 25.25 8.5 25.25H14.75C15.1146 25.25 15.4141 25.1328 15.6484 24.8984C15.8828 24.6641 16 24.3646 16 24V22.75H17.25V24C17.224 24.7031 16.9766 25.2891 16.5078 25.7578C16.0391 26.2266 15.4531 26.474 14.75 26.5H8.5C7.79688 26.474 7.21094 26.2266 6.74219 25.7578C6.27344 25.2891 6.02604 24.7031 6 24V14C6.02604 13.2969 6.27344 12.7109 6.74219 12.2422C7.21094 11.7734 7.79688 11.526 8.5 11.5Z" fill="black" fill-opacity="0.72"/>
</g>
</svg>
