<svg width="32" height="32" viewBox="0 0 32 32" fill="none" xmlns="http://www.w3.org/2000/svg">
<g id="standalone / md / ellipsis-vertical-md / regular">
<path id="icon" d="M16 21.5C16.3646 21.5 16.6641 21.6172 16.8984 21.8516C17.1328 22.0859 17.25 22.3854 17.25 22.75C17.25 23.1146 17.1328 23.4141 16.8984 23.6484C16.6641 23.8828 16.3646 24 16 24C15.6354 24 15.3359 23.8828 15.1016 23.6484C14.8672 23.4141 14.75 23.1146 14.75 22.75C14.75 22.3854 14.8672 22.0859 15.1016 21.8516C15.3359 21.6172 15.6354 21.5 16 21.5ZM16 15.25C16.3646 15.25 16.6641 15.3672 16.8984 15.6016C17.1328 15.8359 17.25 16.1354 17.25 16.5C17.25 16.8646 17.1328 17.1641 16.8984 17.3984C16.6641 17.6328 16.3646 17.75 16 17.75C15.6354 17.75 15.3359 17.6328 15.1016 17.3984C14.8672 17.1641 14.75 16.8646 14.75 16.5C14.75 16.1354 14.8672 15.8359 15.1016 15.6016C15.3359 15.3672 15.6354 15.25 16 15.25ZM17.25 10.25C17.25 10.6146 17.1328 10.9141 16.8984 11.1484C16.6641 11.3828 16.3646 11.5 16 11.5C15.6354 11.5 15.3359 11.3828 15.1016 11.1484C14.8672 10.9141 14.75 10.6146 14.75 10.25C14.75 9.88542 14.8672 9.58594 15.1016 9.35156C15.3359 9.11719 15.6354 9 16 9C16.3646 9 16.6641 9.11719 16.8984 9.35156C17.1328 9.58594 17.25 9.88542 17.25 10.25Z" fill="black" fill-opacity="0.72"/>
</g>
</svg>
