<svg width="32" height="32" viewBox="0 0 32 32" fill="none" xmlns="http://www.w3.org/2000/svg">
<g id="standalone / md / expand-md / regular">
<path id="icon" d="M12.875 7.75C13.2656 7.77604 13.474 7.98438 13.5 8.375C13.474 8.76562 13.2656 8.97396 12.875 9H8.5V13.375C8.47396 13.7656 8.26562 13.974 7.875 14C7.48438 13.974 7.27604 13.7656 7.25 13.375V8.375C7.27604 7.98438 7.48438 7.77604 7.875 7.75H12.875ZM7.25 19.625C7.27604 19.2344 7.48438 19.026 7.875 19C8.26562 19.026 8.47396 19.2344 8.5 19.625V24H12.875C13.2656 24.026 13.474 24.2344 13.5 24.625C13.474 25.0156 13.2656 25.224 12.875 25.25H7.875C7.48438 25.224 7.27604 25.0156 7.25 24.625V19.625ZM24.125 7.75C24.5156 7.77604 24.724 7.98438 24.75 8.375V13.375C24.724 13.7656 24.5156 13.974 24.125 14C23.7344 13.974 23.526 13.7656 23.5 13.375V9H19.125C18.7344 8.97396 18.526 8.76562 18.5 8.375C18.526 7.98438 18.7344 7.77604 19.125 7.75H24.125ZM23.5 19.625C23.526 19.2344 23.7344 19.026 24.125 19C24.5156 19.026 24.724 19.2344 24.75 19.625V24.625C24.724 25.0156 24.5156 25.224 24.125 25.25H19.125C18.7344 25.224 18.526 25.0156 18.5 24.625C18.526 24.2344 18.7344 24.026 19.125 24H23.5V19.625Z" fill="black" fill-opacity="0.72"/>
</g>
</svg>
