<svg width="32" height="32" viewBox="0 0 32 32" fill="none" xmlns="http://www.w3.org/2000/svg">
<g id="standalone / md / fiat-offramp-md / regular">
<path id="icon" d="M6 11.5C6 8.76562 8.22656 6.5 11 6.5C13.7344 6.5 16 8.76562 16 11.5C16 12.0078 15.9219 12.4766 15.7656 12.9453L19.5547 16.7344C20.0234 16.5781 20.4922 16.5 21 16.5C23.7344 16.5 26 18.7656 26 21.5C26 24.2734 23.7344 26.5 21 26.5H9.125C7.36719 26.5 6 25.1328 6 23.375V11.5ZM7.25 14.8203V23.375C7.25 24.4297 8.07031 25.25 9.125 25.25H17.6797C16.625 24.3516 16 23.0234 16 21.5C16 19.7031 16.9375 18.1406 18.3438 17.2812L15.2188 14.1562C14.3594 15.5625 12.7969 16.5 11 16.5C9.47656 16.5 8.14844 15.875 7.25 14.8203ZM11 7.75C9.63281 7.75 8.38281 8.49219 7.71875 9.625C7.05469 10.7969 7.05469 12.2422 7.71875 13.4141C8.38281 14.5469 9.63281 15.2891 10.9609 15.2891C12.3281 15.2891 13.5391 14.5469 14.2422 13.4141C14.9062 12.2422 14.9062 10.7969 14.2422 9.66406C13.5781 8.49219 12.3281 7.78906 11 7.75ZM17.4062 10.4453C17.6406 10.2109 18.0703 10.2109 18.3047 10.4453L21 13.1406V12.125C21 11.8125 21.2734 11.5 21.625 11.5C21.9375 11.5 22.25 11.8125 22.25 12.125V14.625C22.25 14.8984 22.0938 15.1328 21.8594 15.2109C21.625 15.3281 21.3516 15.25 21.1562 15.0938L17.4062 11.3438C17.1719 11.1094 17.1719 10.6797 17.4062 10.4453ZM21 17.75C20.4922 17.75 20.0625 17.8672 19.6328 18.0234H19.5938C18.2266 18.5703 17.25 19.9375 17.25 21.5C17.25 23.5703 18.9297 25.25 21 25.25C23.0703 25.25 24.75 23.5703 24.75 21.5C24.75 19.4297 23.0703 17.75 21 17.75ZM10.3359 8.57031V9.42969H11.1953V8.57031H12.0156V9.42969C12.3281 9.42969 12.6016 9.54688 12.8359 9.74219C13.3438 10.2109 13.3828 10.9922 12.9141 11.5C13.1484 11.7344 13.2656 12.0469 13.2656 12.3594C13.2656 13.0625 12.6797 13.6094 12.0156 13.6094V14.4297H11.1953V13.6094H10.3359V14.4297H9.51562V13.6094H8.69531V12.75H9.51562V10.25H8.69531V9.42969H9.51562V8.57031H10.3359ZM12.0156 11.9297H10.3359V12.75H12.0156C12.25 12.75 12.4453 12.5547 12.4453 12.3203C12.4453 12.125 12.25 11.9297 12.0156 11.9297ZM12.0156 10.25H10.3359V11.1094H12.0156C12.25 11.1094 12.4453 10.9141 12.4453 10.6797C12.4453 10.4453 12.25 10.25 12.0156 10.25ZM21.5078 18.375V18.8438C22.1719 19.0391 22.6016 19.6641 22.6016 20.3672V20.5234H21.5859V20.3672C21.5859 20.0547 21.3125 19.7812 20.9609 19.7812C20.6484 19.7812 20.375 20.0547 20.375 20.3672C20.375 20.7188 20.6484 20.9922 20.9609 20.9922C21.8594 20.9922 22.6016 21.7344 22.6016 22.6328C22.6016 23.3359 22.1719 23.9609 21.5078 24.1562V24.625H20.4531V24.1562C19.7891 23.9609 19.3594 23.3359 19.3594 22.6328V22.4766H20.375V22.6328C20.375 22.9453 20.6484 23.2188 20.9609 23.2188C21.3125 23.2188 21.5859 22.9453 21.5859 22.6328C21.5859 22.2812 21.3125 22.0078 20.9609 22.0078C20.0625 22.0078 19.3594 21.2656 19.3594 20.3672C19.3594 19.6641 19.7891 19.0391 20.4531 18.8438V18.375H21.5078Z" fill="black" fill-opacity="0.72"/>
</g>
</svg>
