<svg width="32" height="32" viewBox="0 0 32 32" fill="none" xmlns="http://www.w3.org/2000/svg">
<g id="standalone / md / file-invoice-dollar-md / bold">
<path id="icon" d="M21.625 24V12.75H18.5C18.1354 12.75 17.8359 12.6328 17.6016 12.3984C17.3672 12.1641 17.25 11.8646 17.25 11.5V8.375H11C10.6094 8.40104 10.401 8.60938 10.375 9V24C10.401 24.3906 10.6094 24.599 11 24.625H21C21.3906 24.599 21.599 24.3906 21.625 24ZM8.5 9C8.52604 8.29688 8.77344 7.71094 9.24219 7.24219C9.71094 6.77344 10.2969 6.52604 11 6.5H17.4844C18.1615 6.5 18.7474 6.7474 19.2422 7.24219L22.7578 10.7578C23.2526 11.2526 23.5 11.8516 23.5 12.5547V24C23.474 24.7031 23.2266 25.2891 22.7578 25.7578C22.2891 26.2266 21.7031 26.474 21 26.5H11C10.2969 26.474 9.71094 26.2266 9.24219 25.7578C8.77344 25.2891 8.52604 24.7031 8.5 24V9ZM16 14.9375C16.4688 14.9635 16.7292 15.224 16.7812 15.7188V16.1094C17.0677 16.1354 17.3411 16.1875 17.6016 16.2656C18.0443 16.4219 18.2396 16.7344 18.1875 17.2031C18.0312 17.6458 17.7057 17.8411 17.2109 17.7891C16.7943 17.6849 16.3906 17.6198 16 17.5938C15.6615 17.5938 15.362 17.6589 15.1016 17.7891C14.9453 17.8932 14.8802 17.9714 14.9062 18.0234C14.9062 18.0495 14.9583 18.0885 15.0625 18.1406C15.3229 18.2708 15.6875 18.388 16.1562 18.4922C16.1823 18.5182 16.1953 18.5312 16.1953 18.5312H16.2344C16.7031 18.6354 17.1849 18.8047 17.6797 19.0391C17.9141 19.1693 18.1354 19.3646 18.3438 19.625C18.526 19.8594 18.6302 20.1719 18.6562 20.5625C18.6042 21.3698 18.2656 21.9297 17.6406 22.2422C17.3802 22.3984 17.0938 22.5026 16.7812 22.5547V22.9453C16.7292 23.4141 16.4688 23.6745 16 23.7266C15.5312 23.6745 15.2708 23.4141 15.2188 22.9453V22.5156C14.8542 22.4375 14.5156 22.3464 14.2031 22.2422C14.1771 22.2422 14.151 22.2292 14.125 22.2031C14.0729 22.2031 14.0339 22.1901 14.0078 22.1641C13.9557 22.1641 13.9167 22.1641 13.8906 22.1641C13.4479 21.9818 13.2786 21.6562 13.3828 21.1875C13.5651 20.7448 13.8906 20.5625 14.3594 20.6406C14.4115 20.6667 14.4766 20.6927 14.5547 20.7188C14.5807 20.7188 14.6068 20.7188 14.6328 20.7188C15.1276 20.901 15.5964 21.0052 16.0391 21.0312C16.4036 21.0312 16.6901 20.9792 16.8984 20.875C17.0547 20.7708 17.1198 20.6797 17.0938 20.6016C17.1198 20.5755 17.0547 20.5104 16.8984 20.4062C16.638 20.276 16.2734 20.1458 15.8047 20.0156H15.7266C15.2578 19.9115 14.8021 19.7422 14.3594 19.5078C14.099 19.3776 13.8646 19.1953 13.6562 18.9609C13.474 18.7266 13.3698 18.4141 13.3438 18.0234C13.3438 17.6068 13.4479 17.2682 13.6562 17.0078C13.8646 16.7214 14.112 16.513 14.3984 16.3828C14.6589 16.2526 14.9323 16.1615 15.2188 16.1094V15.7188C15.2708 15.224 15.5312 14.9635 16 14.9375ZM12.25 10.25H15.375C15.7656 10.276 15.974 10.4844 16 10.875C15.974 11.2656 15.7656 11.474 15.375 11.5H12.25C11.8594 11.474 11.651 11.2656 11.625 10.875C11.651 10.4844 11.8594 10.276 12.25 10.25ZM12.25 12.75H15.375C15.7656 12.776 15.974 12.9844 16 13.375C15.974 13.7656 15.7656 13.974 15.375 14H12.25C11.8594 13.974 11.651 13.7656 11.625 13.375C11.651 12.9844 11.8594 12.776 12.25 12.75Z" fill="black" fill-opacity="0.72"/>
</g>
</svg>
