<svg width="32" height="32" viewBox="0 0 32 32" fill="none" xmlns="http://www.w3.org/2000/svg">
<g id="standalone / md / file-circle-info-md / bold">
<path id="icon" d="M7.25 24.625H15.8828C16.3516 25.3542 16.9375 25.9661 17.6406 26.4609C17.5104 26.487 17.3802 26.5 17.25 26.5H7.25C6.54688 26.474 5.96094 26.2266 5.49219 25.7578C5.02344 25.2891 4.77604 24.7031 4.75 24V9C4.77604 8.29688 5.02344 7.71094 5.49219 7.24219C5.96094 6.77344 6.54688 6.52604 7.25 6.5H13.7344C14.4115 6.5 14.9974 6.7474 15.4922 7.24219L19.0078 10.7578C19.5026 11.2526 19.75 11.8516 19.75 12.5547V14.2734C19.0729 14.4557 18.4479 14.7292 17.875 15.0938V12.75H14.75C14.3854 12.75 14.0859 12.6328 13.8516 12.3984C13.6172 12.1641 13.5 11.8646 13.5 11.5V8.375H7.25C6.85938 8.40104 6.65104 8.60938 6.625 9V24C6.65104 24.3906 6.85938 24.599 7.25 24.625ZM21.625 15.25C22.6406 15.25 23.5781 15.4974 24.4375 15.9922C25.2969 16.487 25.987 17.1771 26.5078 18.0625C27.0026 18.9479 27.25 19.8854 27.25 20.875C27.25 21.8646 27.0026 22.8021 26.5078 23.6875C25.987 24.5729 25.2969 25.263 24.4375 25.7578C23.5781 26.2526 22.6406 26.5 21.625 26.5C20.6094 26.5 19.6719 26.2526 18.8125 25.7578C17.9531 25.263 17.263 24.5729 16.7422 23.6875C16.2474 22.8021 16 21.8646 16 20.875C16 19.8854 16.2474 18.9479 16.7422 18.0625C17.263 17.1771 17.9531 16.487 18.8125 15.9922C19.6719 15.4974 20.6094 15.25 21.625 15.25ZM21.625 19C22.1979 18.9479 22.5104 18.6354 22.5625 18.0625C22.5104 17.4896 22.1979 17.1771 21.625 17.125C21.0521 17.1771 20.7396 17.4896 20.6875 18.0625C20.7396 18.6354 21.0521 18.9479 21.625 19ZM20.375 20.875C20.401 21.2656 20.6094 21.474 21 21.5V23.375C20.6094 23.401 20.401 23.6094 20.375 24C20.401 24.3906 20.6094 24.599 21 24.625H21.625H22.25C22.6406 24.599 22.849 24.3906 22.875 24C22.849 23.6094 22.6406 23.401 22.25 23.375V20.875C22.224 20.4844 22.0156 20.276 21.625 20.25H21C20.6094 20.276 20.401 20.4844 20.375 20.875Z" fill="black" fill-opacity="0.72"/>
</g>
</svg>
