<svg width="32" height="32" viewBox="0 0 32 32" fill="none" xmlns="http://www.w3.org/2000/svg">
<g id="standalone / md / file-invoice-dollar-md / regular">
<path id="icon" d="M22.25 24V14H17.875C17.3542 13.974 16.9115 13.7917 16.5469 13.4531C16.2083 13.0885 16.026 12.6458 16 12.125V7.75H11C10.6354 7.75 10.3359 7.86719 10.1016 8.10156C9.86719 8.33594 9.75 8.63542 9.75 9V24C9.75 24.3646 9.86719 24.6641 10.1016 24.8984C10.3359 25.1328 10.6354 25.25 11 25.25H21C21.3646 25.25 21.6641 25.1328 21.8984 24.8984C22.1328 24.6641 22.25 24.3646 22.25 24ZM22.25 12.75C22.1979 12.6458 22.1328 12.5547 22.0547 12.4766L17.5234 7.94531C17.4453 7.86719 17.3542 7.8151 17.25 7.78906V12.125C17.276 12.5156 17.4844 12.724 17.875 12.75H22.25ZM8.5 9C8.52604 8.29688 8.77344 7.71094 9.24219 7.24219C9.71094 6.77344 10.2969 6.52604 11 6.5H17.0938C17.6146 6.5 18.0573 6.68229 18.4219 7.04688L22.9531 11.5781C23.3177 11.9427 23.5 12.3854 23.5 12.9062V24C23.474 24.7031 23.2266 25.2891 22.7578 25.7578C22.2891 26.2266 21.7031 26.474 21 26.5H11C10.2969 26.474 9.71094 26.2266 9.24219 25.7578C8.77344 25.2891 8.52604 24.7031 8.5 24V9ZM11 9.625C11.026 9.23438 11.2344 9.02604 11.625 9H14.125C14.5156 9.02604 14.724 9.23438 14.75 9.625C14.724 10.0156 14.5156 10.224 14.125 10.25H11.625C11.2344 10.224 11.026 10.0156 11 9.625ZM11 12.125C11.026 11.7344 11.2344 11.526 11.625 11.5H14.125C14.5156 11.526 14.724 11.7344 14.75 12.125C14.724 12.5156 14.5156 12.724 14.125 12.75H11.625C11.2344 12.724 11.026 12.5156 11 12.125ZM16.625 16.0312V16.5391C16.9635 16.5911 17.276 16.6562 17.5625 16.7344C17.9271 16.8385 18.0833 17.0859 18.0312 17.4766C17.901 17.8411 17.6406 17.9974 17.25 17.9453C16.8073 17.8411 16.3906 17.776 16 17.75C15.6354 17.75 15.3099 17.8151 15.0234 17.9453C14.8151 18.0755 14.724 18.2057 14.75 18.3359C14.724 18.388 14.8151 18.4792 15.0234 18.6094C15.2839 18.7396 15.6615 18.8568 16.1562 18.9609L16.1953 19C16.6641 19.1042 17.1328 19.2604 17.6016 19.4688C18.1224 19.7292 18.4219 20.1979 18.5 20.875C18.4479 21.6302 18.1354 22.138 17.5625 22.3984C17.276 22.5547 16.9635 22.6589 16.625 22.7109V23.2578C16.599 23.6224 16.3906 23.8307 16 23.8828C15.6094 23.8307 15.401 23.6224 15.375 23.2578V22.6719C14.9583 22.5938 14.5677 22.5026 14.2031 22.3984C14.125 22.3724 14.0599 22.3464 14.0078 22.3203C13.9818 22.3203 13.9688 22.3203 13.9688 22.3203C13.6042 22.1641 13.4609 21.9036 13.5391 21.5391C13.6693 21.1745 13.9297 21.0312 14.3203 21.1094C14.3984 21.1354 14.4896 21.1615 14.5938 21.1875C15.1146 21.3698 15.5964 21.474 16.0391 21.5C16.4036 21.5 16.7161 21.4349 16.9766 21.3047C17.1849 21.2005 17.276 21.0703 17.25 20.9141C17.276 20.8099 17.1849 20.6927 16.9766 20.5625C16.7161 20.4323 16.3385 20.3021 15.8438 20.1719H15.7656C15.7656 20.1719 15.7526 20.1719 15.7266 20.1719C15.2839 20.0677 14.8542 19.9115 14.4375 19.7031C13.8906 19.4688 13.5781 19.013 13.5 18.3359C13.5781 17.5807 13.9036 17.0859 14.4766 16.8516C14.763 16.6953 15.0625 16.5911 15.375 16.5391V16.0312C15.4271 15.6406 15.6354 15.4323 16 15.4062C16.3906 15.4323 16.599 15.6406 16.625 16.0312Z" fill="black" fill-opacity="0.72"/>
</g>
</svg>
