<svg width="32" height="32" viewBox="0 0 32 32" fill="none" xmlns="http://www.w3.org/2000/svg">
<g id="standalone / md / floppy-disk-pen-md / regular">
<path id="icon" d="M6 10.25V22.75C6 23.1146 6.11719 23.4141 6.35156 23.6484C6.58594 23.8828 6.88542 24 7.25 24H15.1406L14.8281 25.25H7.25C6.54688 25.224 5.96094 24.9766 5.49219 24.5078C5.02344 24.0391 4.77604 23.4531 4.75 22.75V10.25C4.77604 9.54688 5.02344 8.96094 5.49219 8.49219C5.96094 8.02344 6.54688 7.77604 7.25 7.75H16.8594C17.5365 7.75 18.1224 7.9974 18.6172 8.49219L21.5078 11.3828C22.0026 11.8776 22.25 12.4766 22.25 13.1797V15.0938L21 16.3438V13.1797C21 12.8151 20.8828 12.5156 20.6484 12.2812L17.7188 9.35156C17.5885 9.22135 17.4323 9.13021 17.25 9.07812V12.75C17.25 13.1146 17.1328 13.4141 16.8984 13.6484C16.6641 13.8828 16.3646 14 16 14H8.5C8.13542 14 7.83594 13.8828 7.60156 13.6484C7.36719 13.4141 7.25 13.1146 7.25 12.75V9C6.88542 9 6.58594 9.11719 6.35156 9.35156C6.11719 9.58594 6 9.88542 6 10.25ZM8.5 9V12.75H16V9H8.5ZM11.625 19C11.651 19.7031 11.9635 20.25 12.5625 20.6406C13.1875 20.9531 13.8125 20.9531 14.4375 20.6406C15.0365 20.25 15.349 19.7031 15.375 19C15.349 18.2969 15.0365 17.75 14.4375 17.3594C13.8125 17.0469 13.1875 17.0469 12.5625 17.3594C11.9635 17.75 11.651 18.2969 11.625 19ZM13.5 22.125C12.3281 22.099 11.4297 21.5781 10.8047 20.5625C10.2318 19.5208 10.2318 18.4792 10.8047 17.4375C11.4297 16.4219 12.3281 15.901 13.5 15.875C14.6719 15.901 15.5703 16.4219 16.1953 17.4375C16.7682 18.4792 16.7682 19.5208 16.1953 20.5625C15.5703 21.5781 14.6719 22.099 13.5 22.125ZM25.0234 16.8125C24.7109 16.5781 24.4115 16.5781 24.125 16.8125L23.1484 17.7891L24.7109 19.3516L25.6875 18.375C25.9219 18.0885 25.9219 17.8021 25.6875 17.5156L25.0234 16.8125ZM18.1484 22.8281C18.0443 22.9062 17.9792 22.9974 17.9531 23.1016L17.4844 25.0156L19.3984 24.5469C19.5026 24.5208 19.5938 24.4688 19.6719 24.3906L23.8516 20.25L22.2891 18.6875L18.1484 22.8281ZM23.2656 15.9531C23.6302 15.5625 24.0599 15.3672 24.5547 15.3672C25.0755 15.3672 25.5182 15.5625 25.8828 15.9531L26.5859 16.6172C26.9505 17.0078 27.1328 17.4505 27.1328 17.9453C27.1328 18.4401 26.9505 18.8828 26.5859 19.2734L20.5703 25.2891C20.3359 25.5234 20.0495 25.6797 19.7109 25.7578L16.7812 26.5C16.5469 26.5521 16.3516 26.5 16.1953 26.3438C16.0391 26.1615 15.987 25.9531 16.0391 25.7188L16.7422 22.8281C16.8464 22.4896 17.0156 22.1901 17.25 21.9297L23.2656 15.9531Z" fill="black" fill-opacity="0.72"/>
</g>
</svg>
