<svg width="32" height="32" viewBox="0 0 32 32" fill="none" xmlns="http://www.w3.org/2000/svg">
<g id="standalone / md / forward-step-md / bold">
<path id="icon" d="M19.125 9.9375C19.1771 9.36458 19.4896 9.05208 20.0625 9C20.6354 9.05208 20.9479 9.36458 21 9.9375V15.3672V17.6328V23.0625C20.9479 23.6354 20.6354 23.9479 20.0625 24C19.4896 23.9479 19.1771 23.6354 19.125 23.0625V18.9609L12.2109 23.8047C12.0026 23.9349 11.7812 24 11.5469 24C11.2083 24 10.9349 23.8828 10.7266 23.6484C10.4922 23.4401 10.375 23.1667 10.375 22.8281V10.1719C10.375 9.83333 10.4922 9.5599 10.7266 9.35156C10.9349 9.11719 11.2083 9 11.5469 9C11.8073 9 12.0286 9.0651 12.2109 9.19531L19.125 14.0391V9.9375ZM19.125 16.6562V16.3438L12.25 11.5391V21.5L19.125 16.6562Z" fill="black" fill-opacity="0.72"/>
</g>
</svg>
