<svg width="32" height="32" viewBox="0 0 32 32" fill="none" xmlns="http://www.w3.org/2000/svg">
<g id="standalone / md / four-md / regular">
<path id="icon" d="M15.2969 8.64844L10.1406 19H19.75V12.125C19.776 11.7344 19.9844 11.526 20.375 11.5C20.7656 11.526 20.974 11.7344 21 12.125V19H22.875C23.2656 19.026 23.474 19.2344 23.5 19.625C23.474 20.0156 23.2656 20.224 22.875 20.25H21V24.625C20.974 25.0156 20.7656 25.224 20.375 25.25C19.9844 25.224 19.776 25.0156 19.75 24.625V20.25H9.125C8.89062 20.25 8.70833 20.1589 8.57812 19.9766C8.47396 19.7682 8.47396 19.5599 8.57812 19.3516L14.2031 8.10156C14.3854 7.76302 14.6589 7.67188 15.0234 7.82812C15.362 8.03646 15.4531 8.3099 15.2969 8.64844Z" fill="black" fill-opacity="0.72"/>
</g>
</svg>
