<svg width="32" height="32" viewBox="0 0 32 32" fill="none" xmlns="http://www.w3.org/2000/svg">
<g id="standalone / md / gauge-max-md / bold">
<path id="icon" d="M16 24.625C17.4844 24.625 18.8385 24.2604 20.0625 23.5312C21.2865 22.8281 22.276 21.8385 23.0312 20.5625C23.7604 19.2865 24.125 17.9323 24.125 16.5C24.125 15.0677 23.7604 13.7135 23.0312 12.4375C22.276 11.1615 21.2865 10.1719 20.0625 9.46875C18.8385 8.73958 17.4844 8.375 16 8.375C14.5156 8.375 13.1615 8.73958 11.9375 9.46875C10.7135 10.1719 9.72396 11.1615 8.96875 12.4375C8.23958 13.7135 7.875 15.0677 7.875 16.5C7.875 17.9323 8.23958 19.2865 8.96875 20.5625C9.72396 21.8385 10.7135 22.8281 11.9375 23.5312C13.1615 24.2604 14.5156 24.625 16 24.625ZM16 6.5C17.8229 6.52604 19.4896 6.96875 21 7.82812C22.5104 8.71354 23.7344 9.9375 24.6719 11.5C25.5573 13.0885 26 14.7552 26 16.5C26 18.2448 25.5573 19.9115 24.6719 21.5C23.7344 23.0625 22.5104 24.2865 21 25.1719C19.4896 26.0312 17.8229 26.474 16 26.5C14.1771 26.474 12.5104 26.0312 11 25.1719C9.48958 24.2865 8.26562 23.0625 7.32812 21.5C6.44271 19.9115 6 18.2448 6 16.5C6 14.7552 6.44271 13.0885 7.32812 11.5C8.26562 9.9375 9.48958 8.71354 11 7.82812C12.5104 6.96875 14.1771 6.52604 16 6.5ZM17.25 10.875C17.25 11.2396 17.1328 11.5391 16.8984 11.7734C16.6641 12.0078 16.3646 12.125 16 12.125C15.6354 12.125 15.3359 12.0078 15.1016 11.7734C14.8672 11.5391 14.75 11.2396 14.75 10.875C14.75 10.5104 14.8672 10.2109 15.1016 9.97656C15.3359 9.74219 15.6354 9.625 16 9.625C16.3646 9.625 16.6641 9.74219 16.8984 9.97656C17.1328 10.2109 17.25 10.5104 17.25 10.875ZM16 22.4375C15.375 22.4115 14.8542 22.2031 14.4375 21.8125C14.0469 21.3958 13.8385 20.875 13.8125 20.25C13.8385 19.625 14.0469 19.1042 14.4375 18.6875C14.8542 18.2969 15.375 18.0885 16 18.0625C16.4167 18.0625 16.7812 18.1667 17.0938 18.375L21.3906 15.4062C21.9115 15.1198 22.3542 15.2109 22.7188 15.6797C23.0052 16.1745 22.9271 16.6042 22.4844 16.9688L18.1484 19.8984C18.1745 20.0286 18.1875 20.1458 18.1875 20.25C18.1615 20.875 17.9531 21.3958 17.5625 21.8125C17.1458 22.2031 16.625 22.4115 16 22.4375ZM21 12.75C21 13.1146 20.8828 13.4141 20.6484 13.6484C20.4141 13.8828 20.1146 14 19.75 14C19.3854 14 19.0859 13.8828 18.8516 13.6484C18.6172 13.4141 18.5 13.1146 18.5 12.75C18.5 12.3854 18.6172 12.0859 18.8516 11.8516C19.0859 11.6172 19.3854 11.5 19.75 11.5C20.1146 11.5 20.4141 11.6172 20.6484 11.8516C20.8828 12.0859 21 12.3854 21 12.75ZM10.375 15.25C10.7396 15.25 11.0391 15.3672 11.2734 15.6016C11.5078 15.8359 11.625 16.1354 11.625 16.5C11.625 16.8646 11.5078 17.1641 11.2734 17.3984C11.0391 17.6328 10.7396 17.75 10.375 17.75C10.0104 17.75 9.71094 17.6328 9.47656 17.3984C9.24219 17.1641 9.125 16.8646 9.125 16.5C9.125 16.1354 9.24219 15.8359 9.47656 15.6016C9.71094 15.3672 10.0104 15.25 10.375 15.25ZM13.5 12.75C13.5 13.1146 13.3828 13.4141 13.1484 13.6484C12.9141 13.8828 12.6146 14 12.25 14C11.8854 14 11.5859 13.8828 11.3516 13.6484C11.1172 13.4141 11 13.1146 11 12.75C11 12.3854 11.1172 12.0859 11.3516 11.8516C11.5859 11.6172 11.8854 11.5 12.25 11.5C12.6146 11.5 12.9141 11.6172 13.1484 11.8516C13.3828 12.0859 13.5 12.3854 13.5 12.75Z" fill="black" fill-opacity="0.72"/>
</g>
</svg>
