<svg width="32" height="32" viewBox="0 0 32 32" fill="none" xmlns="http://www.w3.org/2000/svg">
<g id="standalone / md / globe-md / bold">
<path id="icon" d="M16 24.625C16.1562 24.651 16.4036 24.5339 16.7422 24.2734C17.0807 24.0391 17.4583 23.5312 17.875 22.75C18.2135 22.0469 18.5 21.2135 18.7344 20.25H13.2656C13.5 21.2135 13.7865 22.0469 14.125 22.75C14.5417 23.5312 14.9193 24.0391 15.2578 24.2734C15.5964 24.5339 15.8438 24.651 16 24.625ZM12.9922 18.375H19.0469C19.099 17.776 19.125 17.151 19.125 16.5C19.125 15.849 19.099 15.224 19.0469 14.625H12.9922C12.9141 15.224 12.875 15.849 12.875 16.5C12.875 17.151 12.9141 17.776 12.9922 18.375ZM13.2656 12.75H18.7344C18.5 11.7865 18.2135 10.9531 17.875 10.25C17.4583 9.46875 17.0807 8.96094 16.7422 8.72656C16.4036 8.46615 16.1562 8.34896 16 8.375C15.8438 8.34896 15.5964 8.46615 15.2578 8.72656C14.9193 8.96094 14.5417 9.46875 14.125 10.25C13.7865 10.9531 13.5 11.7865 13.2656 12.75ZM20.9219 14.625C20.974 15.224 21 15.849 21 16.5C21 17.151 20.974 17.776 20.9219 18.375H23.8906C24.0469 17.776 24.125 17.151 24.125 16.5C24.125 15.849 24.0469 15.224 23.8906 14.625H20.9219ZM23.2266 12.75C22.3411 11.1094 21.0521 9.89844 19.3594 9.11719C19.9062 10.1328 20.3359 11.3438 20.6484 12.75H23.2266ZM11.3516 12.75C11.638 11.3438 12.0677 10.1328 12.6406 9.11719C10.9479 9.89844 9.65885 11.1094 8.77344 12.75H11.3516ZM8.10938 14.625C7.95312 15.224 7.875 15.849 7.875 16.5C7.875 17.151 7.95312 17.776 8.10938 18.375H11.0781C11.026 17.776 11 17.151 11 16.5C11 15.849 11.026 15.224 11.0781 14.625H8.10938ZM19.3594 23.8828C21.0521 23.1016 22.3411 21.8906 23.2266 20.25H20.6484C20.362 21.6562 19.9323 22.8672 19.3594 23.8828ZM12.6406 23.8828C12.0938 22.8672 11.6641 21.6562 11.3516 20.25H8.77344C9.65885 21.8906 10.9479 23.1016 12.6406 23.8828ZM16 26.5C14.1771 26.474 12.5104 26.0312 11 25.1719C9.48958 24.2865 8.26562 23.0625 7.32812 21.5C6.44271 19.9115 6 18.2448 6 16.5C6 14.7552 6.44271 13.0885 7.32812 11.5C8.26562 9.9375 9.48958 8.71354 11 7.82812C12.5104 6.96875 14.1771 6.52604 16 6.5C17.8229 6.52604 19.4896 6.96875 21 7.82812C22.5104 8.71354 23.7344 9.9375 24.6719 11.5C25.5573 13.0885 26 14.7552 26 16.5C26 18.2448 25.5573 19.9115 24.6719 21.5C23.7344 23.0625 22.5104 24.2865 21 25.1719C19.4896 26.0312 17.8229 26.474 16 26.5Z" fill="black" fill-opacity="0.72"/>
</g>
</svg>
