<svg width="32" height="32" viewBox="0 0 32 32" fill="none" xmlns="http://www.w3.org/2000/svg">
<g id="standalone / md / language-md / regular">
<path id="icon" d="M15.375 10.25H6C5.63542 10.25 5.33594 10.3672 5.10156 10.6016C4.86719 10.8359 4.75 11.1354 4.75 11.5V21.5C4.75 21.8646 4.86719 22.1641 5.10156 22.3984C5.33594 22.6328 5.63542 22.75 6 22.75H15.375V10.25ZM16.625 10.25V22.75H26C26.3646 22.75 26.6641 22.6328 26.8984 22.3984C27.1328 22.1641 27.25 21.8646 27.25 21.5V11.5C27.25 11.1354 27.1328 10.8359 26.8984 10.6016C26.6641 10.3672 26.3646 10.25 26 10.25H16.625ZM28.5 11.5V21.5C28.474 22.2031 28.2266 22.7891 27.7578 23.2578C27.2891 23.7266 26.7031 23.974 26 24H6C5.29688 23.974 4.71094 23.7266 4.24219 23.2578C3.77344 22.7891 3.52604 22.2031 3.5 21.5V11.5C3.52604 10.7969 3.77344 10.2109 4.24219 9.74219C4.71094 9.27344 5.29688 9.02604 6 9H26C26.7031 9.02604 27.2891 9.27344 27.7578 9.74219C28.2266 10.2109 28.474 10.7969 28.5 11.5ZM10.3359 13.1406L12.8359 19.3906C12.9401 19.7552 12.8229 20.0286 12.4844 20.2109C12.1198 20.3151 11.8464 20.1979 11.6641 19.8594L11.3125 19H8.1875L7.83594 19.8594C7.65365 20.1979 7.38021 20.3151 7.01562 20.2109C6.67708 20.0286 6.5599 19.7552 6.66406 19.3906L9.16406 13.1406C9.29427 12.8802 9.48958 12.75 9.75 12.75C10.0104 12.75 10.2057 12.8802 10.3359 13.1406ZM9.75 15.0547L8.65625 17.75H10.8438L9.75 15.0547ZM22.875 13.375V14H24.75H25.375C25.7656 14.026 25.974 14.2344 26 14.625C25.974 15.0156 25.7656 15.224 25.375 15.25H25.1797L25.0234 15.7188C24.6328 16.7344 24.0599 17.6328 23.3047 18.4141C23.4349 18.4922 23.5651 18.5703 23.6953 18.6484L24.4375 19.0781C24.75 19.3125 24.8281 19.599 24.6719 19.9375C24.4375 20.25 24.151 20.3281 23.8125 20.1719L23.0703 19.7031C22.8099 19.5729 22.5625 19.4167 22.3281 19.2344C22.0156 19.4688 21.6771 19.6771 21.3125 19.8594L20.6484 20.1719C20.2839 20.3021 20.0104 20.2109 19.8281 19.8984C19.6719 19.5339 19.763 19.2604 20.1016 19.0781L20.7656 18.7266C20.974 18.6224 21.1823 18.5052 21.3906 18.375L20.5703 17.5547C20.3359 17.2682 20.3359 16.9818 20.5703 16.6953C20.8568 16.4349 21.1432 16.4349 21.4297 16.6953L22.3281 17.5547L22.3672 17.5938C23.0182 16.9427 23.513 16.1745 23.8516 15.2891V15.25H22.25H19.125C18.7344 15.224 18.526 15.0156 18.5 14.625C18.526 14.2344 18.7344 14.026 19.125 14H21.625V13.375C21.651 12.9844 21.8594 12.776 22.25 12.75C22.6406 12.776 22.849 12.9844 22.875 13.375Z" fill="black" fill-opacity="0.72"/>
</g>
</svg>
