<svg width="32" height="32" viewBox="0 0 32 32" fill="none" xmlns="http://www.w3.org/2000/svg">
<g id="standalone / md / laptop-md / bold">
<path id="icon" d="M23.5 9.625H8.5C8.10938 9.65104 7.90104 9.85938 7.875 10.25V19H6V10.25C6.02604 9.54688 6.27344 8.96094 6.74219 8.49219C7.21094 8.02344 7.79688 7.77604 8.5 7.75H23.5C24.2031 7.77604 24.7891 8.02344 25.2578 8.49219C25.7266 8.96094 25.974 9.54688 26 10.25V19H24.125V10.25C24.099 9.85938 23.8906 9.65104 23.5 9.625ZM7.25 23.375H24.75C25.6094 23.3229 26.1953 22.9062 26.5078 22.125H5.49219C5.80469 22.9062 6.39062 23.3229 7.25 23.375ZM3.5 21.5C3.5 21.1354 3.61719 20.8359 3.85156 20.6016C4.08594 20.3672 4.38542 20.25 4.75 20.25H27.25C27.6146 20.25 27.9141 20.3672 28.1484 20.6016C28.3828 20.8359 28.5 21.1354 28.5 21.5C28.474 22.5677 28.1094 23.4531 27.4062 24.1562C26.7031 24.8594 25.8177 25.224 24.75 25.25H7.25C6.18229 25.224 5.29688 24.8594 4.59375 24.1562C3.89062 23.4531 3.52604 22.5677 3.5 21.5Z" fill="black" fill-opacity="0.72"/>
</g>
</svg>
