<svg width="32" height="32" viewBox="0 0 32 32" fill="none" xmlns="http://www.w3.org/2000/svg">
<g id="standalone / md / life-ring-md / regular">
<path id="icon" d="M21.7422 23.1016L18.1875 19.5469C17.5625 19.9896 16.8333 20.224 16 20.25C15.1667 20.224 14.4375 19.9896 13.8125 19.5469L10.2578 23.1016C11.8464 24.4818 13.7604 25.1979 16 25.25C18.2396 25.1979 20.1536 24.4818 21.7422 23.1016ZM22.6016 22.2422C23.9818 20.6536 24.6979 18.7396 24.75 16.5C24.6979 14.2604 23.9818 12.3464 22.6016 10.7578L19.0469 14.3125C19.4896 14.9375 19.724 15.6667 19.75 16.5C19.724 17.3333 19.4896 18.0625 19.0469 18.6875L22.6016 22.2422ZM23.5 23.1016L23.9297 23.5703C24.1901 23.8568 24.1901 24.1432 23.9297 24.4297C23.6432 24.6901 23.3568 24.6901 23.0703 24.4297L22.6016 24C20.8047 25.6146 18.6042 26.4479 16 26.5C13.3958 26.4479 11.1953 25.6146 9.39844 24L8.92969 24.4297C8.64323 24.6901 8.35677 24.6901 8.07031 24.4297C7.8099 24.1432 7.8099 23.8568 8.07031 23.5703L8.5 23.1016C6.88542 21.2786 6.05208 19.0781 6 16.5C6.05208 13.9219 6.88542 11.7214 8.5 9.89844L8.07031 9.42969C7.8099 9.14323 7.8099 8.85677 8.07031 8.57031C8.35677 8.3099 8.64323 8.3099 8.92969 8.57031L9.39844 9C11.2214 7.38542 13.4219 6.55208 16 6.5C18.5781 6.55208 20.7786 7.38542 22.6016 9L23.0703 8.57031C23.3568 8.3099 23.6432 8.3099 23.9297 8.57031C24.1901 8.85677 24.1901 9.14323 23.9297 9.42969L23.5 9.89844C25.1146 11.6953 25.9479 13.8958 26 16.5C25.9479 19.1042 25.1146 21.3047 23.5 23.1016ZM21.7422 9.89844C20.1536 8.51823 18.2396 7.80208 16 7.75C13.7604 7.80208 11.8464 8.51823 10.2578 9.89844L13.8125 13.4531C14.4375 13.0104 15.1667 12.776 16 12.75C16.8333 12.776 17.5625 13.0104 18.1875 13.4531L21.7422 9.89844ZM12.9531 18.6875C12.5104 18.0625 12.276 17.3333 12.25 16.5C12.276 15.6667 12.5104 14.9375 12.9531 14.3125L9.39844 10.7578C8.01823 12.3464 7.30208 14.2604 7.25 16.5C7.30208 18.7396 8.01823 20.6536 9.39844 22.2422L12.9531 18.6875ZM13.5 16.5C13.526 17.4375 13.9427 18.1536 14.75 18.6484C15.5833 19.1172 16.4167 19.1172 17.25 18.6484C18.0573 18.1536 18.474 17.4375 18.5 16.5C18.474 15.5625 18.0573 14.8464 17.25 14.3516C16.4167 13.8828 15.5833 13.8828 14.75 14.3516C13.9427 14.8464 13.526 15.5625 13.5 16.5Z" fill="black" fill-opacity="0.72"/>
</g>
</svg>
