<svg width="32" height="32" viewBox="0 0 32 32" fill="none" xmlns="http://www.w3.org/2000/svg">
<g id="standalone / md / lock-md / bold">
<path id="icon" d="M12.875 11.5V14H19.125V11.5C19.099 10.6146 18.7995 9.8724 18.2266 9.27344C17.6276 8.70052 16.8854 8.40104 16 8.375C15.1146 8.40104 14.3724 8.70052 13.7734 9.27344C13.2005 9.8724 12.901 10.6146 12.875 11.5ZM11 14V11.5C11.026 10.0938 11.5078 8.90885 12.4453 7.94531C13.4089 7.00781 14.5938 6.52604 16 6.5C17.4062 6.52604 18.5911 7.00781 19.5547 7.94531C20.4922 8.90885 20.974 10.0938 21 11.5V14H22.25C22.9531 14.026 23.5391 14.2734 24.0078 14.7422C24.4766 15.2109 24.724 15.7969 24.75 16.5V24C24.724 24.7031 24.4766 25.2891 24.0078 25.7578C23.5391 26.2266 22.9531 26.474 22.25 26.5H9.75C9.04688 26.474 8.46094 26.2266 7.99219 25.7578C7.52344 25.2891 7.27604 24.7031 7.25 24V16.5C7.27604 15.7969 7.52344 15.2109 7.99219 14.7422C8.46094 14.2734 9.04688 14.026 9.75 14H11ZM9.125 16.5V24C9.15104 24.3906 9.35938 24.599 9.75 24.625H22.25C22.6406 24.599 22.849 24.3906 22.875 24V16.5C22.849 16.1094 22.6406 15.901 22.25 15.875H9.75C9.35938 15.901 9.15104 16.1094 9.125 16.5Z" fill="black" fill-opacity="0.72"/>
</g>
</svg>
