<svg width="32" height="32" viewBox="0 0 32 32" fill="none" xmlns="http://www.w3.org/2000/svg">
<g id="standalone / md / lock-md / regular">
<path id="icon" d="M12.25 11.5V14H19.75V11.5C19.724 10.4323 19.3594 9.54688 18.6562 8.84375C17.9531 8.14062 17.0677 7.77604 16 7.75C14.9323 7.77604 14.0469 8.14062 13.3438 8.84375C12.6406 9.54688 12.276 10.4323 12.25 11.5ZM11 14V11.5C11.026 10.0938 11.5078 8.90885 12.4453 7.94531C13.4089 7.00781 14.5938 6.52604 16 6.5C17.4062 6.52604 18.5911 7.00781 19.5547 7.94531C20.4922 8.90885 20.974 10.0938 21 11.5V14H21.625C22.5104 14.026 23.2526 14.3255 23.8516 14.8984C24.4245 15.4974 24.724 16.2396 24.75 17.125V23.375C24.724 24.2604 24.4245 25.0026 23.8516 25.6016C23.2526 26.1745 22.5104 26.474 21.625 26.5H10.375C9.48958 26.474 8.7474 26.1745 8.14844 25.6016C7.57552 25.0026 7.27604 24.2604 7.25 23.375V17.125C7.27604 16.2396 7.57552 15.4974 8.14844 14.8984C8.7474 14.3255 9.48958 14.026 10.375 14H11ZM8.5 17.125V23.375C8.52604 23.8958 8.70833 24.3385 9.04688 24.7031C9.41146 25.0417 9.85417 25.224 10.375 25.25H21.625C22.1458 25.224 22.5885 25.0417 22.9531 24.7031C23.2917 24.3385 23.474 23.8958 23.5 23.375V17.125C23.474 16.6042 23.2917 16.1615 22.9531 15.7969C22.5885 15.4583 22.1458 15.276 21.625 15.25H10.375C9.85417 15.276 9.41146 15.4583 9.04688 15.7969C8.70833 16.1615 8.52604 16.6042 8.5 17.125Z" fill="black" fill-opacity="0.72"/>
</g>
</svg>
