<svg width="32" height="32" viewBox="0 0 32 32" fill="none" xmlns="http://www.w3.org/2000/svg">
<g id="standalone / md / memo-circle-check-md / regular">
<path id="icon" d="M17.25 7.75H7.25C6.88542 7.75 6.58594 7.86719 6.35156 8.10156C6.11719 8.33594 6 8.63542 6 9V24C6 24.3646 6.11719 24.6641 6.35156 24.8984C6.58594 25.1328 6.88542 25.25 7.25 25.25H16.3125C16.7031 25.7188 17.1458 26.1224 17.6406 26.4609C17.5104 26.487 17.3802 26.5 17.25 26.5H7.25C6.54688 26.474 5.96094 26.2266 5.49219 25.7578C5.02344 25.2891 4.77604 24.7031 4.75 24V9C4.77604 8.29688 5.02344 7.71094 5.49219 7.24219C5.96094 6.77344 6.54688 6.52604 7.25 6.5H17.25C17.9531 6.52604 18.5391 6.77344 19.0078 7.24219C19.4766 7.71094 19.724 8.29688 19.75 9V14.2734C19.3073 14.3776 18.8906 14.5339 18.5 14.7422V9C18.5 8.63542 18.3828 8.33594 18.1484 8.10156C17.9141 7.86719 17.6146 7.75 17.25 7.75ZM7.25 12.125C7.27604 11.7344 7.48438 11.526 7.875 11.5H16.625C17.0156 11.526 17.224 11.7344 17.25 12.125C17.224 12.5156 17.0156 12.724 16.625 12.75H7.875C7.48438 12.724 7.27604 12.5156 7.25 12.125ZM7.875 15.25H15.375C15.7656 15.276 15.974 15.4844 16 15.875C15.974 16.2656 15.7656 16.474 15.375 16.5H7.875C7.48438 16.474 7.27604 16.2656 7.25 15.875C7.27604 15.4844 7.48438 15.276 7.875 15.25ZM7.875 19H12.875C13.2656 19.026 13.474 19.2344 13.5 19.625C13.474 20.0156 13.2656 20.224 12.875 20.25H7.875C7.48438 20.224 7.27604 20.0156 7.25 19.625C7.27604 19.2344 7.48438 19.026 7.875 19ZM21.625 25.25C22.4062 25.25 23.1354 25.0547 23.8125 24.6641C24.4896 24.2734 25.0234 23.7396 25.4141 23.0625C25.8047 22.3854 26 21.6562 26 20.875C26 20.0938 25.8047 19.3646 25.4141 18.6875C25.0234 18.0104 24.4896 17.4766 23.8125 17.0859C23.1354 16.6953 22.4062 16.5 21.625 16.5C20.8438 16.5 20.1146 16.6953 19.4375 17.0859C18.7604 17.4766 18.2266 18.0104 17.8359 18.6875C17.4453 19.3646 17.25 20.0938 17.25 20.875C17.25 21.6562 17.4453 22.3854 17.8359 23.0625C18.2266 23.7396 18.7604 24.2734 19.4375 24.6641C20.1146 25.0547 20.8438 25.25 21.625 25.25ZM21.625 15.25C22.6406 15.25 23.5781 15.4974 24.4375 15.9922C25.2969 16.487 25.987 17.1771 26.5078 18.0625C27.0026 18.9479 27.25 19.8854 27.25 20.875C27.25 21.8646 27.0026 22.8021 26.5078 23.6875C25.987 24.5729 25.2969 25.263 24.4375 25.7578C23.5781 26.2526 22.6406 26.5 21.625 26.5C20.6094 26.5 19.6719 26.2526 18.8125 25.7578C17.9531 25.263 17.263 24.5729 16.7422 23.6875C16.2474 22.8021 16 21.8646 16 20.875C16 19.8854 16.2474 18.9479 16.7422 18.0625C17.263 17.1771 17.9531 16.487 18.8125 15.9922C19.6719 15.4974 20.6094 15.25 21.625 15.25ZM23.3828 19.1953C23.6693 18.9349 23.9557 18.9349 24.2422 19.1953C24.5026 19.4818 24.5026 19.7682 24.2422 20.0547L21.4297 22.8672C21.1432 23.1276 20.8568 23.1276 20.5703 22.8672L19.0078 21.3047C18.7474 21.0182 18.7474 20.7318 19.0078 20.4453C19.2943 20.1849 19.5807 20.1849 19.8672 20.4453L21 21.5391L23.3828 19.1953Z" fill="black" fill-opacity="0.72"/>
</g>
</svg>
