<svg width="32" height="32" viewBox="0 0 32 32" fill="none" xmlns="http://www.w3.org/2000/svg">
<g id="standalone / md / messages-question-md / bold">
<path id="icon" d="M6.3125 8.375C5.73958 8.42708 5.42708 8.73958 5.375 9.3125V16.1875C5.42708 16.7604 5.73958 17.0729 6.3125 17.125H8.1875C8.76042 17.1771 9.07292 17.4896 9.125 18.0625V18.8047L11.4297 17.2812C11.5859 17.1771 11.7552 17.125 11.9375 17.125H16.9375C17.5104 17.0729 17.8229 16.7604 17.875 16.1875V9.3125C17.8229 8.73958 17.5104 8.42708 16.9375 8.375H6.3125ZM3.5 9.3125C3.52604 8.50521 3.79948 7.84115 4.32031 7.32031C4.84115 6.79948 5.50521 6.52604 6.3125 6.5H16.9375C17.7448 6.52604 18.4089 6.79948 18.9297 7.32031C19.4505 7.84115 19.724 8.50521 19.75 9.3125V16.1875C19.724 16.9948 19.4505 17.6589 18.9297 18.1797C18.4089 18.7005 17.7448 18.974 16.9375 19H12.2109L8.69531 21.3438C8.38281 21.526 8.07031 21.5391 7.75781 21.3828C7.44531 21.2005 7.27604 20.9271 7.25 20.5625V19H6.3125C5.50521 18.974 4.84115 18.7005 4.32031 18.1797C3.79948 17.6589 3.52604 16.9948 3.5 16.1875V9.3125ZM13.5 20.25H15.375V21.1875C15.4271 21.7604 15.7396 22.0729 16.3125 22.125H20.0625C20.2448 22.125 20.4141 22.1771 20.5703 22.2812L22.875 23.8047V23.0625C22.9271 22.4896 23.2396 22.1771 23.8125 22.125H25.6875C26.2604 22.0729 26.5729 21.7604 26.625 21.1875V14.3125C26.5729 13.7396 26.2604 13.4271 25.6875 13.375H21V11.5H25.6875C26.4948 11.526 27.1589 11.7995 27.6797 12.3203C28.2005 12.8411 28.474 13.5052 28.5 14.3125V21.1875C28.474 21.9948 28.2005 22.6589 27.6797 23.1797C27.1589 23.7005 26.4948 23.974 25.6875 24H24.75V25.5625C24.724 25.9271 24.5547 26.2005 24.2422 26.3828C23.9297 26.5391 23.6172 26.526 23.3047 26.3438L19.7891 24H16.3125C15.5052 23.974 14.8411 23.7005 14.3203 23.1797C13.7995 22.6589 13.526 21.9948 13.5 21.1875V20.25ZM9.28125 10.25C9.54167 9.625 10.0104 9.28646 10.6875 9.23438H12.3281C12.7969 9.26042 13.2005 9.42969 13.5391 9.74219C13.8516 10.0807 14.0078 10.4844 14.0078 10.9531C14.0078 11.6042 13.7214 12.099 13.1484 12.4375L12.25 12.9453V12.9844C12.224 13.349 12.0156 13.5573 11.625 13.6094C11.2344 13.5573 11.026 13.349 11 12.9844V12.5938C11 12.3594 11.1042 12.1771 11.3125 12.0469L12.5234 11.3438C12.6797 11.2656 12.7578 11.1354 12.7578 10.9531C12.7318 10.6667 12.5885 10.5104 12.3281 10.4844H10.6875C10.5833 10.5104 10.5052 10.5755 10.4531 10.6797V10.7188C10.2708 11.0573 9.9974 11.1745 9.63281 11.0703C9.29427 10.9141 9.17708 10.6536 9.28125 10.2891V10.25ZM10.7266 15.4062C10.7266 15.0677 10.8698 14.7943 11.1562 14.5859C11.4688 14.4036 11.7812 14.4036 12.0938 14.5859C12.3802 14.7943 12.5234 15.0677 12.5234 15.4062C12.5234 15.7448 12.3802 16.0182 12.0938 16.2266C11.7812 16.4089 11.4688 16.4089 11.1562 16.2266C10.8698 16.0182 10.7266 15.7448 10.7266 15.4062Z" fill="black" fill-opacity="0.72"/>
</g>
</svg>
