<svg width="32" height="32" viewBox="0 0 32 32" fill="none" xmlns="http://www.w3.org/2000/svg">
<g id="standalone / md / microphone-md / regular">
<path id="icon" d="M18.5 10.25C18.474 9.54688 18.2266 8.96094 17.7578 8.49219C17.2891 8.02344 16.7031 7.77604 16 7.75C15.2969 7.77604 14.7109 8.02344 14.2422 8.49219C13.7734 8.96094 13.526 9.54688 13.5 10.25V16.5C13.526 17.2031 13.7734 17.7891 14.2422 18.2578C14.7109 18.7266 15.2969 18.974 16 19C16.7031 18.974 17.2891 18.7266 17.7578 18.2578C18.2266 17.7891 18.474 17.2031 18.5 16.5V10.25ZM12.25 10.25C12.276 9.18229 12.6406 8.29688 13.3438 7.59375C14.0469 6.89062 14.9323 6.52604 16 6.5C17.0677 6.52604 17.9531 6.89062 18.6562 7.59375C19.3594 8.29688 19.724 9.18229 19.75 10.25V16.5C19.724 17.5677 19.3594 18.4531 18.6562 19.1562C17.9531 19.8594 17.0677 20.224 16 20.25C14.9323 20.224 14.0469 19.8594 13.3438 19.1562C12.6406 18.4531 12.276 17.5677 12.25 16.5V10.25ZM11 14.625V16.5C11.026 17.9062 11.5078 19.0911 12.4453 20.0547C13.4089 20.9922 14.5938 21.474 16 21.5C17.4062 21.474 18.5911 20.9922 19.5547 20.0547C20.4922 19.0911 20.974 17.9062 21 16.5V14.625C21.026 14.2344 21.2344 14.026 21.625 14C22.0156 14.026 22.224 14.2344 22.25 14.625V16.5C22.224 18.1667 21.6771 19.5729 20.6094 20.7188C19.5677 21.8646 18.2396 22.5286 16.625 22.7109V25.25H19.125C19.5156 25.276 19.724 25.4844 19.75 25.875C19.724 26.2656 19.5156 26.474 19.125 26.5H16H12.875C12.4844 26.474 12.276 26.2656 12.25 25.875C12.276 25.4844 12.4844 25.276 12.875 25.25H15.375V22.7109C13.7604 22.5286 12.4323 21.8646 11.3906 20.7188C10.3229 19.5729 9.77604 18.1667 9.75 16.5V14.625C9.77604 14.2344 9.98438 14.026 10.375 14C10.7656 14.026 10.974 14.2344 11 14.625Z" fill="black" fill-opacity="0.72"/>
</g>
</svg>
