<svg width="32" height="32" viewBox="0 0 32 32" fill="none" xmlns="http://www.w3.org/2000/svg">
<g id="standalone / md / mobile-notch-md / regular">
<path id="icon" d="M18.5 7.75V8.375C18.5 8.73958 18.3828 9.03906 18.1484 9.27344C17.9141 9.50781 17.6146 9.625 17.25 9.625H14.75C14.3854 9.625 14.0859 9.50781 13.8516 9.27344C13.6172 9.03906 13.5 8.73958 13.5 8.375V7.75H12.25C11.8854 7.75 11.5859 7.86719 11.3516 8.10156C11.1172 8.33594 11 8.63542 11 9V24C11 24.3646 11.1172 24.6641 11.3516 24.8984C11.5859 25.1328 11.8854 25.25 12.25 25.25H19.75C20.1146 25.25 20.4141 25.1328 20.6484 24.8984C20.8828 24.6641 21 24.3646 21 24V9C21 8.63542 20.8828 8.33594 20.6484 8.10156C20.4141 7.86719 20.1146 7.75 19.75 7.75H18.5ZM17.25 7.75H14.75V8.375H17.25V7.75ZM9.75 9C9.77604 8.29688 10.0234 7.71094 10.4922 7.24219C10.9609 6.77344 11.5469 6.52604 12.25 6.5H19.75C20.4531 6.52604 21.0391 6.77344 21.5078 7.24219C21.9766 7.71094 22.224 8.29688 22.25 9V24C22.224 24.7031 21.9766 25.2891 21.5078 25.7578C21.0391 26.2266 20.4531 26.474 19.75 26.5H12.25C11.5469 26.474 10.9609 26.2266 10.4922 25.7578C10.0234 25.2891 9.77604 24.7031 9.75 24V9Z" fill="black" fill-opacity="0.72"/>
</g>
</svg>
