<svg width="32" height="32" viewBox="0 0 32 32" fill="none" xmlns="http://www.w3.org/2000/svg">
<g id="standalone / md / money-bill-md / bold">
<path id="icon" d="M9.125 10.875C9.09896 11.5781 8.85156 12.1641 8.38281 12.6328C7.91406 13.1016 7.32812 13.349 6.625 13.375V19.625C7.32812 19.651 7.91406 19.8984 8.38281 20.3672C8.85156 20.8359 9.09896 21.4219 9.125 22.125H22.875C22.901 21.4219 23.1484 20.8359 23.6172 20.3672C24.0859 19.8984 24.6719 19.651 25.375 19.625V13.375C24.6719 13.349 24.0859 13.1016 23.6172 12.6328C23.1484 12.1641 22.901 11.5781 22.875 10.875H9.125ZM4.75 11.5C4.77604 10.7969 5.02344 10.2109 5.49219 9.74219C5.96094 9.27344 6.54688 9.02604 7.25 9H24.75C25.4531 9.02604 26.0391 9.27344 26.5078 9.74219C26.9766 10.2109 27.224 10.7969 27.25 11.5V21.5C27.224 22.2031 26.9766 22.7891 26.5078 23.2578C26.0391 23.7266 25.4531 23.974 24.75 24H7.25C6.54688 23.974 5.96094 23.7266 5.49219 23.2578C5.02344 22.7891 4.77604 22.2031 4.75 21.5V11.5ZM16 12.75C16.6771 12.75 17.3021 12.9193 17.875 13.2578C18.4479 13.5964 18.9036 14.0521 19.2422 14.625C19.5807 15.224 19.75 15.849 19.75 16.5C19.75 17.151 19.5807 17.776 19.2422 18.375C18.9036 18.9479 18.4479 19.4036 17.875 19.7422C17.3021 20.0807 16.6771 20.25 16 20.25C15.3229 20.25 14.6979 20.0807 14.125 19.7422C13.5521 19.4036 13.0964 18.9479 12.7578 18.375C12.4193 17.776 12.25 17.151 12.25 16.5C12.25 15.849 12.4193 15.224 12.7578 14.625C13.0964 14.0521 13.5521 13.5964 14.125 13.2578C14.6979 12.9193 15.3229 12.75 16 12.75Z" fill="black" fill-opacity="0.72"/>
</g>
</svg>
