<svg width="32" height="32" viewBox="0 0 32 32" fill="none" xmlns="http://www.w3.org/2000/svg">
<g id="standalone / md / pause-md / bold">
<path id="icon" d="M11.625 10.875V22.125H13.5V10.875H11.625ZM9.75 10.875C9.77604 10.3542 9.95833 9.91146 10.2969 9.54688C10.6615 9.20833 11.1042 9.02604 11.625 9H13.5C14.0208 9.02604 14.4635 9.20833 14.8281 9.54688C15.1667 9.91146 15.349 10.3542 15.375 10.875V22.125C15.349 22.6458 15.1667 23.0885 14.8281 23.4531C14.4635 23.7917 14.0208 23.974 13.5 24H11.625C11.1042 23.974 10.6615 23.7917 10.2969 23.4531C9.95833 23.0885 9.77604 22.6458 9.75 22.125V10.875ZM18.5 10.875V22.125H20.375V10.875H18.5ZM16.625 10.875C16.651 10.3542 16.8333 9.91146 17.1719 9.54688C17.5365 9.20833 17.9792 9.02604 18.5 9H20.375C20.8958 9.02604 21.3385 9.20833 21.7031 9.54688C22.0417 9.91146 22.224 10.3542 22.25 10.875V22.125C22.224 22.6458 22.0417 23.0885 21.7031 23.4531C21.3385 23.7917 20.8958 23.974 20.375 24H18.5C17.9792 23.974 17.5365 23.7917 17.1719 23.4531C16.8333 23.0885 16.651 22.6458 16.625 22.125V10.875Z" fill="black" fill-opacity="0.72"/>
</g>
</svg>
