<svg width="32" height="32" viewBox="0 0 32 32" fill="none" xmlns="http://www.w3.org/2000/svg">
<g id="standalone / md / pen-line-md / regular">
<path id="icon" d="M21.5469 8.0625C21.1042 7.69792 20.6615 7.69792 20.2188 8.0625L18.0703 10.1719L21.0781 13.1797L23.1875 11.0312C23.5521 10.5885 23.5521 10.1458 23.1875 9.70312L21.5469 8.0625ZM7.99219 20.25C7.70573 20.5625 7.4974 20.9271 7.36719 21.3438L6.3125 24.9375L9.90625 23.8828C10.3229 23.7526 10.6875 23.5443 11 23.2578L20.1797 14.0781L17.1719 11.0703L7.99219 20.25ZM19.3203 7.16406C19.763 6.7474 20.2839 6.53906 20.8828 6.53906C21.4557 6.53906 21.9635 6.7474 22.4062 7.16406L24.0859 8.84375C24.5026 9.28646 24.7109 9.79427 24.7109 10.3672C24.7109 10.9661 24.5026 11.487 24.0859 11.9297L11.8594 24.1562C11.4167 24.599 10.8958 24.9115 10.2969 25.0938L5.57031 26.4609C5.3099 26.5391 5.10156 26.487 4.94531 26.3047C4.76302 26.1484 4.71094 25.9531 4.78906 25.7188L6.15625 20.9922C6.33854 20.3672 6.66406 19.8333 7.13281 19.3906L19.3203 7.16406ZM14.125 25.25H26.625C27.0156 25.276 27.224 25.4844 27.25 25.875C27.224 26.2656 27.0156 26.474 26.625 26.5H14.125C13.7344 26.474 13.526 26.2656 13.5 25.875C13.526 25.4844 13.7344 25.276 14.125 25.25Z" fill="black" fill-opacity="0.72"/>
</g>
</svg>
