<svg width="32" height="32" viewBox="0 0 32 32" fill="none" xmlns="http://www.w3.org/2000/svg">
<g id="standalone / md / phone-md / regular">
<path id="icon" d="M20.6875 17.2422L25.0625 19.1172C25.401 19.2734 25.6615 19.5208 25.8438 19.8594C26 20.1719 26.0391 20.5104 25.9609 20.875L25.0234 25.25C24.8151 26.0312 24.3073 26.4479 23.5 26.5C23.2656 26.5 23.0312 26.5 22.7969 26.5C22.6146 26.474 22.4323 26.4609 22.25 26.4609C19.2031 26.2005 16.4557 25.276 14.0078 23.6875C11.5599 22.099 9.61979 20.0286 8.1875 17.4766C6.75521 14.9505 6.02604 12.125 6 9C6.05208 8.19271 6.46875 7.6849 7.25 7.47656L11.625 6.53906C11.9896 6.46094 12.3281 6.51302 12.6406 6.69531C12.9792 6.85156 13.2266 7.09896 13.3828 7.4375L15.2578 11.8125C15.5182 12.5156 15.362 13.1276 14.7891 13.6484L13.2266 14.9375C14.2943 16.7604 15.7396 18.2057 17.5625 19.2734L18.8516 17.7109C19.3724 17.138 19.9844 16.9818 20.6875 17.2422ZM23.5 25.25C23.6562 25.25 23.7604 25.1719 23.8125 25.0156L24.75 20.6406C24.776 20.4583 24.7109 20.3411 24.5547 20.2891L20.1797 18.4141C20.0495 18.362 19.9323 18.388 19.8281 18.4922L18.5391 20.0938C18.0703 20.5625 17.5365 20.6536 16.9375 20.3672C14.9062 19.1953 13.3047 17.5938 12.1328 15.5625C11.8464 14.9635 11.9375 14.4297 12.4062 13.9609L14.0078 12.6719C14.112 12.5677 14.138 12.4505 14.0859 12.3203L12.2109 7.94531C12.1328 7.78906 12.0156 7.72396 11.8594 7.75L7.48438 8.6875C7.32812 8.73958 7.25 8.84375 7.25 9C7.27604 12.0208 8.01823 14.7552 9.47656 17.2031C10.9089 19.651 12.849 21.5911 15.2969 23.0234C17.7448 24.4818 20.4792 25.224 23.5 25.25Z" fill="black" fill-opacity="0.72"/>
</g>
</svg>
