<svg width="32" height="32" viewBox="0 0 32 32" fill="none" xmlns="http://www.w3.org/2000/svg">
<g id="standalone / md / qrcode-md / regular">
<path id="icon" d="M12.875 9H9.125C8.73438 9.02604 8.52604 9.23438 8.5 9.625V13.375C8.52604 13.7656 8.73438 13.974 9.125 14H12.875C13.2656 13.974 13.474 13.7656 13.5 13.375V9.625C13.474 9.23438 13.2656 9.02604 12.875 9ZM9.125 7.75H12.875C13.3958 7.77604 13.8385 7.95833 14.2031 8.29688C14.5417 8.66146 14.724 9.10417 14.75 9.625V13.375C14.724 13.8958 14.5417 14.3385 14.2031 14.7031C13.8385 15.0417 13.3958 15.224 12.875 15.25H9.125C8.60417 15.224 8.16146 15.0417 7.79688 14.7031C7.45833 14.3385 7.27604 13.8958 7.25 13.375V9.625C7.27604 9.10417 7.45833 8.66146 7.79688 8.29688C8.16146 7.95833 8.60417 7.77604 9.125 7.75ZM12.875 19H9.125C8.73438 19.026 8.52604 19.2344 8.5 19.625V23.375C8.52604 23.7656 8.73438 23.974 9.125 24H12.875C13.2656 23.974 13.474 23.7656 13.5 23.375V19.625C13.474 19.2344 13.2656 19.026 12.875 19ZM9.125 17.75H12.875C13.3958 17.776 13.8385 17.9583 14.2031 18.2969C14.5417 18.6615 14.724 19.1042 14.75 19.625V23.375C14.724 23.8958 14.5417 24.3385 14.2031 24.7031C13.8385 25.0417 13.3958 25.224 12.875 25.25H9.125C8.60417 25.224 8.16146 25.0417 7.79688 24.7031C7.45833 24.3385 7.27604 23.8958 7.25 23.375V19.625C7.27604 19.1042 7.45833 18.6615 7.79688 18.2969C8.16146 17.9583 8.60417 17.776 9.125 17.75ZM19.125 9C18.7344 9.02604 18.526 9.23438 18.5 9.625V13.375C18.526 13.7656 18.7344 13.974 19.125 14H22.875C23.2656 13.974 23.474 13.7656 23.5 13.375V9.625C23.474 9.23438 23.2656 9.02604 22.875 9H19.125ZM17.25 9.625C17.276 9.10417 17.4583 8.66146 17.7969 8.29688C18.1615 7.95833 18.6042 7.77604 19.125 7.75H22.875C23.3958 7.77604 23.8385 7.95833 24.2031 8.29688C24.5417 8.66146 24.724 9.10417 24.75 9.625V13.375C24.724 13.8958 24.5417 14.3385 24.2031 14.7031C23.8385 15.0417 23.3958 15.224 22.875 15.25H19.125C18.6042 15.224 18.1615 15.0417 17.7969 14.7031C17.4583 14.3385 17.276 13.8958 17.25 13.375V9.625ZM17.25 18.375C17.276 17.9844 17.4844 17.776 17.875 17.75H20.375C20.7656 17.776 20.974 17.9844 21 18.375V21.0312H23.5V18.375C23.526 17.9844 23.7344 17.776 24.125 17.75C24.5156 17.776 24.724 17.9844 24.75 18.375V21.6562C24.724 22.0469 24.5156 22.2552 24.125 22.2812H20.375C19.9844 22.2552 19.776 22.0469 19.75 21.6562V19H18.5V24.9375C18.474 25.3281 18.2656 25.5365 17.875 25.5625C17.4844 25.5365 17.276 25.3281 17.25 24.9375V18.375ZM10.6875 10.5625H11.3125C11.7031 10.5885 11.9115 10.7969 11.9375 11.1875V11.8125C11.9115 12.2031 11.7031 12.4115 11.3125 12.4375H10.6875C10.2969 12.4115 10.0885 12.2031 10.0625 11.8125V11.1875C10.0885 10.7969 10.2969 10.5885 10.6875 10.5625ZM10.0625 21.1875C10.0885 20.7969 10.2969 20.5885 10.6875 20.5625H11.3125C11.7031 20.5885 11.9115 20.7969 11.9375 21.1875V21.8125C11.9115 22.2031 11.7031 22.4115 11.3125 22.4375H10.6875C10.2969 22.4115 10.0885 22.2031 10.0625 21.8125V21.1875ZM20.6875 10.5625H21.3125C21.7031 10.5885 21.9115 10.7969 21.9375 11.1875V11.8125C21.9115 12.2031 21.7031 12.4115 21.3125 12.4375H20.6875C20.2969 12.4115 20.0885 12.2031 20.0625 11.8125V11.1875C20.0885 10.7969 20.2969 10.5885 20.6875 10.5625ZM19.75 24C19.776 23.6094 19.9844 23.401 20.375 23.375H21C21.3906 23.401 21.599 23.6094 21.625 24V24.625C21.599 25.0156 21.3906 25.224 21 25.25H20.375C19.9844 25.224 19.776 25.0156 19.75 24.625V24ZM23.5 23.375H24.125C24.5156 23.401 24.724 23.6094 24.75 24V24.625C24.724 25.0156 24.5156 25.224 24.125 25.25H23.5C23.1094 25.224 22.901 25.0156 22.875 24.625V24C22.901 23.6094 23.1094 23.401 23.5 23.375Z" fill="black" fill-opacity="0.72"/>
</g>
</svg>
