<svg width="32" height="32" viewBox="0 0 32 32" fill="none" xmlns="http://www.w3.org/2000/svg">
<g id="standalone / md / rectangle-ad-md / regular">
<path id="icon" d="M7.25 9C6.88542 9 6.58594 9.11719 6.35156 9.35156C6.11719 9.58594 6 9.88542 6 10.25V22.75C6 23.1146 6.11719 23.4141 6.35156 23.6484C6.58594 23.8828 6.88542 24 7.25 24H24.75C25.1146 24 25.4141 23.8828 25.6484 23.6484C25.8828 23.4141 26 23.1146 26 22.75V10.25C26 9.88542 25.8828 9.58594 25.6484 9.35156C25.4141 9.11719 25.1146 9 24.75 9H7.25ZM4.75 10.25C4.77604 9.54688 5.02344 8.96094 5.49219 8.49219C5.96094 8.02344 6.54688 7.77604 7.25 7.75H24.75C25.4531 7.77604 26.0391 8.02344 26.5078 8.49219C26.9766 8.96094 27.224 9.54688 27.25 10.25V22.75C27.224 23.4531 26.9766 24.0391 26.5078 24.5078C26.0391 24.9766 25.4531 25.224 24.75 25.25H7.25C6.54688 25.224 5.96094 24.9766 5.49219 24.5078C5.02344 24.0391 4.77604 23.4531 4.75 22.75V10.25ZM13.1484 13.1016L15.9609 19.3516C16.0651 19.7161 15.9609 20.0026 15.6484 20.2109C15.2839 20.3151 14.9974 20.2109 14.7891 19.8984L14.3984 19H10.7266L10.3359 19.8984C10.1276 20.2109 9.84115 20.3151 9.47656 20.2109C9.13802 20.0026 9.03385 19.7161 9.16406 19.3516L11.9766 13.1016C12.1068 12.8672 12.3021 12.75 12.5625 12.75C12.8229 12.75 13.0182 12.8672 13.1484 13.1016ZM12.5625 14.8984L11.2734 17.75H13.8516L12.5625 14.8984ZM19.4375 15.875C18.8385 15.901 18.3828 16.1615 18.0703 16.6562C17.8099 17.1771 17.8099 17.6979 18.0703 18.2188C18.3828 18.7135 18.8385 18.974 19.4375 19C20.0365 18.974 20.4922 18.7135 20.8047 18.2188C21.0651 17.6979 21.0651 17.1771 20.8047 16.6562C20.4922 16.1615 20.0365 15.901 19.4375 15.875ZM21 15.0938V13.375C21.026 12.9844 21.2344 12.776 21.625 12.75C22.0156 12.776 22.224 12.9844 22.25 13.375V17.4375V19.625C22.224 20.0156 22.0156 20.224 21.625 20.25C21.3125 20.224 21.1042 20.0677 21 19.7812C20.5573 20.0938 20.0365 20.25 19.4375 20.25C18.6302 20.224 17.9661 19.9505 17.4453 19.4297C16.9245 18.9089 16.651 18.2448 16.625 17.4375C16.651 16.6302 16.9245 15.9661 17.4453 15.4453C17.9661 14.9245 18.6302 14.651 19.4375 14.625C20.0365 14.625 20.5573 14.7812 21 15.0938Z" fill="black" fill-opacity="0.72"/>
</g>
</svg>
