<svg width="32" height="32" viewBox="0 0 32 32" fill="none" xmlns="http://www.w3.org/2000/svg">
<g id="standalone / md / right-to-bracket-md / regular">
<path id="icon" d="M18.4609 16.5781C18.487 16.5521 18.5 16.526 18.5 16.5C18.5 16.474 18.487 16.4479 18.4609 16.4219L13.3047 11.5781C13.2526 11.526 13.2005 11.5 13.1484 11.5C12.9922 11.526 12.901 11.6172 12.875 11.7734V14C12.849 14.3906 12.6406 14.599 12.25 14.625H7.5625C7.38021 14.651 7.27604 14.7552 7.25 14.9375V18.0625C7.27604 18.2448 7.38021 18.349 7.5625 18.375H12.25C12.6406 18.401 12.849 18.6094 12.875 19V21.2266C12.901 21.3828 12.9922 21.474 13.1484 21.5C13.2005 21.5 13.2526 21.474 13.3047 21.4219L18.4609 16.5781ZM19.75 16.5C19.75 16.8906 19.6068 17.2161 19.3203 17.4766L14.1641 22.3594C13.8776 22.6198 13.5391 22.75 13.1484 22.75C12.7057 22.75 12.3411 22.6068 12.0547 22.3203C11.7682 22.0339 11.625 21.6693 11.625 21.2266V19.625H7.5625C7.11979 19.625 6.75521 19.4688 6.46875 19.1562C6.15625 18.8698 6 18.5052 6 18.0625V14.9375C6 14.4948 6.15625 14.1302 6.46875 13.8438C6.75521 13.5312 7.11979 13.375 7.5625 13.375H11.625V11.7734C11.625 11.3307 11.7682 10.9661 12.0547 10.6797C12.3411 10.3932 12.7057 10.25 13.1484 10.25C13.5391 10.25 13.8776 10.3932 14.1641 10.6797L19.3203 15.5234C19.6068 15.7839 19.75 16.1094 19.75 16.5ZM19.125 24H22.875C23.3958 23.974 23.8385 23.7917 24.2031 23.4531C24.5417 23.0885 24.724 22.6458 24.75 22.125V10.875C24.724 10.3542 24.5417 9.91146 24.2031 9.54688C23.8385 9.20833 23.3958 9.02604 22.875 9H19.125C18.7344 8.97396 18.526 8.76562 18.5 8.375C18.526 7.98438 18.7344 7.77604 19.125 7.75H22.875C23.7604 7.77604 24.5026 8.07552 25.1016 8.64844C25.6745 9.2474 25.974 9.98958 26 10.875V22.125C25.974 23.0104 25.6745 23.7526 25.1016 24.3516C24.5026 24.9245 23.7604 25.224 22.875 25.25H19.125C18.7344 25.224 18.526 25.0156 18.5 24.625C18.526 24.2344 18.7344 24.026 19.125 24Z" fill="black" fill-opacity="0.72"/>
</g>
</svg>
