<svg width="32" height="32" viewBox="0 0 32 32" fill="none" xmlns="http://www.w3.org/2000/svg">
<g id="standalone / md / scissors-md / bold">
<path id="icon" d="M25.7656 23.6484C25.375 24.0651 24.9453 24.1042 24.4766 23.7656L18.1875 18.5312L19.6719 17.3203L25.6484 22.3594C26.0651 22.75 26.1042 23.1797 25.7656 23.6484ZM10.375 8.375C9.4375 8.40104 8.72135 8.81771 8.22656 9.625C7.75781 10.4583 7.75781 11.2917 8.22656 12.125C8.72135 12.9323 9.4375 13.349 10.375 13.375C11.3125 13.349 12.0286 12.9323 12.5234 12.125C12.9922 11.2917 12.9922 10.4583 12.5234 9.625C12.0286 8.81771 11.3125 8.40104 10.375 8.375ZM10.375 6.5C11.625 6.52604 12.6536 6.95573 13.4609 7.78906C14.2943 8.59635 14.724 9.625 14.75 10.875C14.75 11.5781 14.5938 12.2292 14.2812 12.8281L17.25 15.2891L24.4766 9.23438C24.9453 8.89583 25.375 8.9349 25.7656 9.35156C26.1042 9.82031 26.0651 10.25 25.6484 10.6406L14.2812 20.1719C14.5938 20.7708 14.75 21.4219 14.75 22.125C14.724 23.375 14.2943 24.4036 13.4609 25.2109C12.6536 26.0443 11.625 26.474 10.375 26.5C9.125 26.474 8.09635 26.0443 7.28906 25.2109C6.45573 24.4036 6.02604 23.375 6 22.125C6.02604 20.875 6.45573 19.8464 7.28906 19.0391C8.09635 18.2057 9.125 17.776 10.375 17.75C11.4427 17.776 12.3542 18.1016 13.1094 18.7266L15.7656 16.5L13.1094 14.2734C12.3542 14.8984 11.4427 15.224 10.375 15.25C9.125 15.224 8.09635 14.7943 7.28906 13.9609C6.45573 13.1536 6.02604 12.125 6 10.875C6.02604 9.625 6.45573 8.59635 7.28906 7.78906C8.09635 6.95573 9.125 6.52604 10.375 6.5ZM12.875 22.125C12.849 21.1875 12.4323 20.4714 11.625 19.9766C10.7917 19.5078 9.95833 19.5078 9.125 19.9766C8.31771 20.4714 7.90104 21.1875 7.875 22.125C7.90104 23.0625 8.31771 23.7786 9.125 24.2734C9.95833 24.7422 10.7917 24.7422 11.625 24.2734C12.4323 23.7786 12.849 23.0625 12.875 22.125Z" fill="black" fill-opacity="0.72"/>
</g>
</svg>
