<svg width="32" height="32" viewBox="0 0 32 32" fill="none" xmlns="http://www.w3.org/2000/svg">
<g id="standalone / md / shield-check-md / bold">
<path id="icon" d="M8.85156 11.4609C8.61719 11.5911 8.5 11.7604 8.5 11.9688C8.5 13.1927 8.70833 14.599 9.125 16.1875C9.54167 17.75 10.2708 19.2865 11.3125 20.7969C12.3802 22.2812 13.8646 23.5052 15.7656 24.4688C15.9219 24.5208 16.0781 24.5208 16.2344 24.4688C18.1354 23.5052 19.6198 22.2812 20.6875 20.7969C21.7292 19.2865 22.4583 17.75 22.875 16.1875C23.2917 14.599 23.5 13.1927 23.5 11.9688C23.5 11.7604 23.3828 11.5911 23.1484 11.4609L16 8.41406L8.85156 11.4609ZM23.8906 9.74219C24.3333 9.92448 24.6849 10.2109 24.9453 10.6016C25.2318 10.9922 25.375 11.4479 25.375 11.9688C25.401 13.2969 25.1797 14.8594 24.7109 16.6562C24.2422 18.4531 23.3958 20.1979 22.1719 21.8906C20.974 23.6094 19.2552 25.0286 17.0156 26.1484C16.3385 26.4609 15.6615 26.4609 14.9844 26.1484C12.7448 25.0286 11.026 23.6094 9.82812 21.8906C8.60417 20.1979 7.75781 18.4531 7.28906 16.6562C6.82031 14.8594 6.59896 13.2969 6.625 11.9688C6.625 11.4479 6.76823 10.9922 7.05469 10.6016C7.3151 10.2109 7.66667 9.92448 8.10938 9.74219L15.4922 6.61719C15.6484 6.53906 15.8177 6.5 16 6.5C16.1823 6.5 16.3516 6.53906 16.5078 6.61719L23.8906 9.74219ZM18.1875 14.625C18.1354 15.5365 17.7188 16.2005 16.9375 16.6172V19.3125C16.8854 19.8854 16.5729 20.1979 16 20.25C15.4271 20.1979 15.1146 19.8854 15.0625 19.3125V16.6172C14.2812 16.2005 13.8646 15.5365 13.8125 14.625C13.8385 14 14.0469 13.4792 14.4375 13.0625C14.8542 12.6719 15.375 12.4635 16 12.4375C16.625 12.4635 17.1458 12.6719 17.5625 13.0625C17.9531 13.4792 18.1615 14 18.1875 14.625Z" fill="black" fill-opacity="0.72"/>
</g>
</svg>
