<svg width="32" height="32" viewBox="0 0 32 32" fill="none" xmlns="http://www.w3.org/2000/svg">
<g id="standalone / md / signal-md / regular">
<path id="icon" d="M26.625 7.125V25.875C26.599 26.2656 26.3906 26.474 26 26.5C25.6094 26.474 25.401 26.2656 25.375 25.875V7.125C25.401 6.73438 25.6094 6.52604 26 6.5C26.3906 6.52604 26.599 6.73438 26.625 7.125ZM21 10.25C21.3906 10.276 21.599 10.4844 21.625 10.875V25.875C21.599 26.2656 21.3906 26.474 21 26.5C20.6094 26.474 20.401 26.2656 20.375 25.875V10.875C20.401 10.4844 20.6094 10.276 21 10.25ZM16.625 14.625V25.875C16.599 26.2656 16.3906 26.474 16 26.5C15.6094 26.474 15.401 26.2656 15.375 25.875V14.625C15.401 14.2344 15.6094 14.026 16 14C16.3906 14.026 16.599 14.2344 16.625 14.625ZM11 17.75C11.3906 17.776 11.599 17.9844 11.625 18.375V25.875C11.599 26.2656 11.3906 26.474 11 26.5C10.6094 26.474 10.401 26.2656 10.375 25.875V18.375C10.401 17.9844 10.6094 17.776 11 17.75ZM6 21.5C6.39062 21.526 6.59896 21.7344 6.625 22.125V25.875C6.59896 26.2656 6.39062 26.474 6 26.5C5.60938 26.474 5.40104 26.2656 5.375 25.875V22.125C5.40104 21.7344 5.60938 21.526 6 21.5Z" fill="black" fill-opacity="0.72"/>
</g>
</svg>
