<svg width="32" height="32" viewBox="0 0 32 32" fill="none" xmlns="http://www.w3.org/2000/svg">
<g id="standalone / md / square-minus-md / bold">
<path id="icon" d="M9.75 9.625C9.35938 9.65104 9.15104 9.85938 9.125 10.25V22.75C9.15104 23.1406 9.35938 23.349 9.75 23.375H22.25C22.6406 23.349 22.849 23.1406 22.875 22.75V10.25C22.849 9.85938 22.6406 9.65104 22.25 9.625H9.75ZM7.25 10.25C7.27604 9.54688 7.52344 8.96094 7.99219 8.49219C8.46094 8.02344 9.04688 7.77604 9.75 7.75H22.25C22.9531 7.77604 23.5391 8.02344 24.0078 8.49219C24.4766 8.96094 24.724 9.54688 24.75 10.25V22.75C24.724 23.4531 24.4766 24.0391 24.0078 24.5078C23.5391 24.9766 22.9531 25.224 22.25 25.25H9.75C9.04688 25.224 8.46094 24.9766 7.99219 24.5078C7.52344 24.0391 7.27604 23.4531 7.25 22.75V10.25ZM13.1875 15.5625H18.8125C19.3854 15.6146 19.6979 15.9271 19.75 16.5C19.6979 17.0729 19.3854 17.3854 18.8125 17.4375H13.1875C12.6146 17.3854 12.3021 17.0729 12.25 16.5C12.3021 15.9271 12.6146 15.6146 13.1875 15.5625Z" fill="black" fill-opacity="0.72"/>
</g>
</svg>
