<svg width="32" height="32" viewBox="0 0 32 32" fill="none" xmlns="http://www.w3.org/2000/svg">
<g id="standalone / md / whatsapp-md">
<path id="icon" d="M22.1328 10.2891C22.9661 11.1224 23.6042 12.0599 24.0469 13.1016C24.5156 14.1432 24.75 15.25 24.75 16.4219C24.724 18.0365 24.3203 19.4948 23.5391 20.7969C22.7578 22.099 21.7031 23.1406 20.375 23.9219C19.0729 24.6771 17.6146 25.0677 16 25.0938C14.5156 25.0938 13.1354 24.7422 11.8594 24.0391L7.25 25.25L8.46094 20.7578C7.70573 19.4297 7.32812 17.9844 7.32812 16.4219C7.35417 14.8073 7.74479 13.349 8.5 12.0469C9.28125 10.7448 10.3229 9.70312 11.625 8.92188C12.9271 8.16667 14.3854 7.77604 16 7.75C18.3698 7.77604 20.4141 8.6224 22.1328 10.2891ZM16 23.6484C18.0312 23.5964 19.737 22.8932 21.1172 21.5391C22.4974 20.1589 23.2266 18.4531 23.3047 16.4219C23.2526 14.4427 22.5104 12.75 21.0781 11.3438C19.6719 9.9375 17.9792 9.23438 16 9.23438C13.9688 9.26042 12.276 9.96354 10.9219 11.3438C9.54167 12.6979 8.82552 14.3906 8.77344 16.4219C8.79948 17.8021 9.17708 19.0781 9.90625 20.25L10.0625 20.5234L9.32031 23.1797L12.0547 22.4766L12.3281 22.6328C13.4479 23.2839 14.6719 23.6224 16 23.6484ZM19.9453 18.2578C19.9714 18.2578 20.0104 18.2708 20.0625 18.2969C20.2188 18.349 20.3229 18.4141 20.375 18.4922C20.4531 18.6224 20.401 18.974 20.2188 19.5469C20.1146 19.8073 19.9062 20.0286 19.5938 20.2109C19.2812 20.3932 19.0078 20.5104 18.7734 20.5625C18.4609 20.6146 18.1094 20.6146 17.7188 20.5625C17.3542 20.4844 16.8333 20.3021 16.1562 20.0156C15.1406 19.5208 14.3203 18.9219 13.6953 18.2188C13.0443 17.5156 12.6536 17.0469 12.5234 16.8125C12.4974 16.7865 12.4844 16.7604 12.4844 16.7344C12.4583 16.7344 12.4453 16.7344 12.4453 16.7344C12.3672 16.6302 12.2109 16.3698 11.9766 15.9531C11.7422 15.5104 11.612 15.0286 11.5859 14.5078C11.612 14.013 11.7031 13.6224 11.8594 13.3359C12.0156 13.0495 12.1589 12.8542 12.2891 12.75C12.3151 12.724 12.3281 12.6979 12.3281 12.6719C12.5625 12.4896 12.7578 12.4115 12.9141 12.4375C13.0703 12.4375 13.2135 12.4375 13.3438 12.4375C13.3438 12.4375 13.3568 12.4375 13.3828 12.4375C13.513 12.3594 13.6562 12.4766 13.8125 12.7891C13.8646 12.9193 13.9427 13.0885 14.0469 13.2969C14.151 13.5573 14.2422 13.7917 14.3203 14C14.3984 14.2344 14.4505 14.3646 14.4766 14.3906C14.5547 14.5208 14.5677 14.651 14.5156 14.7812C14.3073 15.1458 14.138 15.3802 14.0078 15.4844C13.8255 15.6406 13.7865 15.7969 13.8906 15.9531C14.2812 16.6562 14.7109 17.1901 15.1797 17.5547C15.6484 17.9193 16.1953 18.2448 16.8203 18.5312C17.0286 18.6615 17.1849 18.6484 17.2891 18.4922C17.3672 18.4141 17.4844 18.2839 17.6406 18.1016C17.7708 17.9193 17.888 17.763 17.9922 17.6328C18.1224 17.4505 18.2786 17.4245 18.4609 17.5547C18.5911 17.6068 18.8385 17.7109 19.2031 17.8672C19.5677 18.0495 19.8151 18.1797 19.9453 18.2578Z" fill="black" fill-opacity="0.72"/>
</g>
</svg>
