<svg width="32" height="32" viewBox="0 0 32 32" fill="none" xmlns="http://www.w3.org/2000/svg">
<g id="standalone / md / youtube-md">
<path id="icon" d="M26.7344 11.3438C26.8646 11.9427 26.9688 12.6328 27.0469 13.4141C27.099 14.2214 27.138 14.9375 27.1641 15.5625C27.1641 16.1615 27.1641 16.474 27.1641 16.5C27.1641 16.5521 27.1641 16.8776 27.1641 17.4766C27.138 18.1016 27.099 18.8047 27.0469 19.5859C26.9688 20.3932 26.8646 21.0964 26.7344 21.6953C26.4219 22.6589 25.7839 23.2839 24.8203 23.5703C24.1953 23.7005 23.2318 23.8047 21.9297 23.8828C20.6276 23.9349 19.4167 23.974 18.2969 24C17.1771 24 16.5781 24 16.5 24C16.4219 24 15.8229 24 14.7031 24C13.5833 23.974 12.3724 23.9349 11.0703 23.8828C9.76823 23.8047 8.80469 23.7005 8.17969 23.5703C7.21615 23.2839 6.57812 22.6589 6.26562 21.6953C6.13542 21.0964 6.03125 20.3932 5.95312 19.5859C5.90104 18.8047 5.86198 18.1016 5.83594 17.4766C5.83594 16.8776 5.83594 16.5521 5.83594 16.5C5.83594 16.474 5.83594 16.1615 5.83594 15.5625C5.86198 14.9375 5.90104 14.2214 5.95312 13.4141C6.03125 12.6328 6.13542 11.9427 6.26562 11.3438C6.57812 10.3802 7.21615 9.74219 8.17969 9.42969C8.80469 9.29948 9.76823 9.19531 11.0703 9.11719C12.3724 9.0651 13.5833 9.02604 14.7031 9C15.8229 9 16.4219 9 16.5 9C16.5781 9 17.1771 9 18.2969 9C19.4167 9.02604 20.6276 9.0651 21.9297 9.11719C23.2318 9.19531 24.1953 9.29948 24.8203 9.42969C25.7839 9.74219 26.4219 10.3802 26.7344 11.3438ZM14.3125 19.7031L19.8984 16.5L14.3125 13.3359V19.7031Z" fill="black" fill-opacity="0.72"/>
</g>
</svg>
