<svg width="32" height="32" viewBox="0 0 32 32" fill="none" xmlns="http://www.w3.org/2000/svg">
<g id="standalone / md / app-store-md">
<path id="icon" d="M16 11.2266L15.6484 10.6016C15.362 10.2109 14.9974 10.1198 14.5547 10.3281C14.1641 10.6146 14.0729 10.9792 14.2812 11.4219L15.0625 12.8281L12.4844 17.3203H10.4531C9.95833 17.3724 9.6849 17.6458 9.63281 18.1406C9.6849 18.6094 9.95833 18.8698 10.4531 18.9219H17.6797C17.862 18.5573 17.862 18.2057 17.6797 17.8672C17.4974 17.5286 17.1979 17.3464 16.7812 17.3203H14.3203L17.7188 11.4219C17.9271 10.9792 17.8359 10.6146 17.4453 10.3281C17.0026 10.1198 16.638 10.2109 16.3516 10.6016L16 11.2266ZM12.9141 19.7422C12.4974 19.2474 11.9766 19.0911 11.3516 19.2734L10.7656 20.2891C10.5573 20.7318 10.6615 21.0833 11.0781 21.3438C11.5208 21.5521 11.8854 21.4609 12.1719 21.0703L12.9141 19.7422ZM19.5156 17.3203C19.4375 17.1901 19.3724 17.0729 19.3203 16.9688C18.3828 15.3281 17.6667 14.0911 17.1719 13.2578C16.9115 13.4661 16.7161 13.8177 16.5859 14.3125C16.4818 14.8333 16.5859 15.3802 16.8984 15.9531C17.2109 16.5 17.5885 17.1641 18.0312 17.9453C18.5521 18.8307 19.151 19.8724 19.8281 21.0703C20.1146 21.4609 20.4792 21.5521 20.9219 21.3438C21.3125 21.0833 21.4167 20.7188 21.2344 20.25L20.4531 18.9219H21.5859C22.0807 18.8698 22.3542 18.6094 22.4062 18.1406C22.3542 17.6458 22.0807 17.3724 21.5859 17.3203H19.5156ZM16 6.8125C17.7969 6.83854 19.4245 7.28125 20.8828 8.14062C22.3411 9 23.5 10.1589 24.3594 11.6172C25.2188 13.0755 25.6615 14.7031 25.6875 16.5C25.6615 18.2969 25.2188 19.9245 24.3594 21.3828C23.5 22.8411 22.3411 24 20.8828 24.8594C19.4245 25.7188 17.7969 26.1615 16 26.1875C14.2031 26.1615 12.5755 25.7188 11.1172 24.8594C9.65885 24 8.5 22.8411 7.64062 21.3828C6.78125 19.9245 6.33854 18.2969 6.3125 16.5C6.33854 14.7031 6.78125 13.0755 7.64062 11.6172C8.5 10.1589 9.65885 9 11.1172 8.14062C12.5755 7.28125 14.2031 6.83854 16 6.8125ZM24.4375 16.5C24.3854 14.1042 23.5651 12.112 21.9766 10.5234C20.362 8.9349 18.3698 8.11458 16 8.0625C13.6042 8.11458 11.612 8.9349 10.0234 10.5234C8.4349 12.138 7.61458 14.1302 7.5625 16.5C7.61458 18.8958 8.4349 20.888 10.0234 22.4766C11.638 24.0651 13.6302 24.8854 16 24.9375C18.3958 24.8854 20.388 24.0651 21.9766 22.4766C23.5651 20.862 24.3854 18.8698 24.4375 16.5Z" fill="black" fill-opacity="0.72"/>
</g>
</svg>
