<svg width="32" height="32" viewBox="0 0 32 32" fill="none" xmlns="http://www.w3.org/2000/svg">
<g id="standalone / md / huawei-md">
<path id="icon" d="M7.28906 10.4062C7.28906 10.4062 11.3125 15.25 14.2812 21.6953V21.7344L14.2422 21.8125C14.2031 21.8516 14.1641 21.8125 14.1641 21.8125C13.0703 21.2656 8.46094 18.9219 6.54688 17.0859C6.54688 17.0859 5.375 16.1484 5.25781 14.5859V14.1953C5.375 12.2422 7.28906 10.4062 7.28906 10.4062ZM13.5391 23.375V23.4141V23.375C13.5391 23.375 13.5391 23.4141 13.5 23.4922C12.7578 24 10.4531 25.6016 9.4375 25.875C7.99219 26.2266 6.58594 25.0547 5.72656 23.5703L13.4219 23.2969C13.4219 23.2969 13.5 23.2969 13.5391 23.375ZM13.6172 22.5938C13.6172 22.5938 13.6562 22.5938 13.6562 22.6328V22.7109C13.6562 22.7109 13.6172 22.75 13.5781 22.75C12.3672 22.75 7.91406 22.75 7.79688 22.75C7.79688 22.75 7.05469 22.75 6.35156 22.4375C6.35156 22.4375 4.75 21.8906 3.89062 20.1328C3.89062 20.1328 3.5 19.3516 3.5 18.2188V18.1797C3.5 17.75 3.53906 17.2812 3.69531 16.8125C3.69531 16.8125 10.2578 20.2891 13.6172 22.5938ZM12.9141 7.35938V7.32031C12.9141 7.32031 13.8125 7.125 14.1641 7.08594C14.1641 7.08594 16.4297 10.0547 15.3359 21.0703C15.3359 21.1094 15.2969 21.1094 15.2969 21.1484L15.2578 21.1875C15.2578 21.1875 15.2188 21.1875 15.1406 21.1484C14.4375 20.0938 11.1172 15.1719 10.4141 12.125C10.4141 12.125 10.2578 11.6562 10.2578 11.0312V10.6406C10.2969 9.85938 10.5703 9.11719 11.0391 8.53125C11.5078 7.94531 12.1719 7.51562 12.9141 7.35938ZM21.5469 9.70312C21.9375 10.6797 21.5469 12.125 21.5469 12.125C20.8828 15.1328 17.5625 20.0547 16.8203 21.1484C16.8203 21.1484 16.7812 21.1875 16.7031 21.1875C16.7031 21.1875 16.6641 21.1484 16.625 21.0703C15.5312 10.0156 17.7969 7.08594 17.7969 7.08594C18.4219 7.20312 19.0078 7.32031 19.0078 7.32031C21.0391 7.82812 21.5469 9.70312 21.5469 9.70312ZM18.5391 23.3359V23.2969H18.5L26.2344 23.5703C25.0625 25.5625 23.8125 25.9141 23.1094 25.9141H22.9531C22.6797 25.9141 22.4844 25.875 22.4844 25.875C21.4297 25.5625 19.2031 24 18.4609 23.4922C18.4219 23.4531 18.4219 23.375 18.4219 23.375C18.4609 23.3359 18.5391 23.3359 18.5391 23.3359ZM26.6641 14.5469C26.625 16.1094 25.4141 17.0859 25.4141 17.0859C23.5391 18.9219 18.9297 21.2656 17.8359 21.8125H17.7578H17.7188C17.6797 21.7344 17.7188 21.6562 17.7188 21.6562C20.6484 15.2891 24.6719 10.4062 24.6719 10.4062C24.6719 10.4062 26.8203 12.3984 26.6641 14.5469ZM28.2656 16.7734V16.8125C28.8516 18.5703 28.0703 20.0547 28.0703 20.0547C27.25 21.8906 25.6094 22.4375 25.6094 22.4375C24.8672 22.7109 24.2812 22.7109 24.2812 22.7109C24.1641 22.75 19.5938 22.75 18.3828 22.75C18.3438 22.75 18.3047 22.6719 18.3047 22.6719C18.3047 22.6328 18.3438 22.5547 18.3438 22.5547C21.7031 20.2891 28.2656 16.7734 28.2656 16.7734Z" fill="black" fill-opacity="0.72"/>
</g>
</svg>
