<svg width="32" height="32" viewBox="0 0 32 32" fill="none" xmlns="http://www.w3.org/2000/svg">
<g id="standalone / md / reddit-md">
<path id="icon" d="M13.8906 18.4531C13.2917 18.375 12.9661 18.0495 12.9141 17.4766C12.9661 16.8776 13.2917 16.5521 13.8906 16.5C14.4635 16.5521 14.776 16.8776 14.8281 17.4766C14.776 18.0495 14.4635 18.375 13.8906 18.4531ZM25.6875 16.5C25.6615 18.2969 25.2188 19.9245 24.3594 21.3828C23.5 22.8411 22.3411 24 20.8828 24.8594C19.4245 25.7188 17.7969 26.1615 16 26.1875C14.2031 26.1615 12.5755 25.7188 11.1172 24.8594C9.65885 24 8.5 22.8411 7.64062 21.3828C6.78125 19.9245 6.33854 18.2969 6.3125 16.5C6.33854 14.7031 6.78125 13.0755 7.64062 11.6172C8.5 10.1589 9.65885 9 11.1172 8.14062C12.5755 7.28125 14.2031 6.83854 16 6.8125C17.7969 6.83854 19.4245 7.28125 20.8828 8.14062C22.3411 9 23.5 10.1589 24.3594 11.6172C25.2188 13.0755 25.6615 14.7031 25.6875 16.5ZM20.5312 14.8984C20.1406 14.8984 19.8281 15.0286 19.5938 15.2891C18.6823 14.6641 17.5625 14.3125 16.2344 14.2344L16.8984 11.1875L19.0859 11.6562C19.138 12.2552 19.4505 12.5807 20.0234 12.6328C20.6224 12.5807 20.9479 12.2552 21 11.6562C20.9479 11.0573 20.6224 10.7318 20.0234 10.6797C19.6328 10.7057 19.3464 10.888 19.1641 11.2266L16.7812 10.6797C16.651 10.6797 16.5599 10.7448 16.5078 10.875L15.7656 14.2344C14.4375 14.3125 13.3177 14.6641 12.4062 15.2891C12.1719 15.0286 11.8594 14.8984 11.4688 14.8984C10.7917 14.9505 10.375 15.276 10.2188 15.875C10.0885 16.474 10.3229 16.9688 10.9219 17.3594C10.8698 17.5417 10.8438 17.737 10.8438 17.9453C10.8958 19.013 11.4036 19.8854 12.3672 20.5625C13.3307 21.2656 14.5417 21.6302 16 21.6562C17.4583 21.6302 18.6823 21.2656 19.6719 20.5625C20.6354 19.8854 21.1432 19.013 21.1953 17.9453C21.1953 17.737 21.1693 17.5286 21.1172 17.3203C21.6901 16.9557 21.9115 16.474 21.7812 15.875C21.625 15.276 21.2083 14.9505 20.5312 14.8984ZM17.8359 19.4297C17.4193 19.7943 16.8073 19.9766 16 19.9766C15.1927 19.9505 14.5807 19.7682 14.1641 19.4297C14.0599 19.3516 13.9557 19.3516 13.8516 19.4297C13.7474 19.5599 13.7474 19.6771 13.8516 19.7812C14.3724 20.224 15.0885 20.4453 16 20.4453C16.9115 20.4453 17.6276 20.224 18.1484 19.7812C18.2526 19.6771 18.2526 19.5599 18.1484 19.4297C18.0443 19.3516 17.9401 19.3516 17.8359 19.4297ZM18.1484 16.5C17.5495 16.5521 17.224 16.8776 17.1719 17.4766C17.224 18.0495 17.5495 18.375 18.1484 18.4531C18.7214 18.375 19.0339 18.0495 19.0859 17.4766C19.0339 16.8776 18.7214 16.5521 18.1484 16.5Z" fill="black" fill-opacity="0.72"/>
</g>
</svg>
