<svg width="32" height="32" viewBox="0 0 32 32" fill="none" xmlns="http://www.w3.org/2000/svg">
<g id="standalone / md / tiktok-md">
<path id="icon" d="M24.75 14.7031C22.9792 14.7031 21.3776 14.1953 19.9453 13.1797V20.1328C19.9453 21.487 19.5677 22.6979 18.8125 23.7656C18.0833 24.8333 17.0938 25.6146 15.8438 26.1094C14.5677 26.5521 13.3047 26.6172 12.0547 26.3047C10.8047 25.9922 9.72396 25.3281 8.8125 24.3125C7.95312 23.2969 7.44531 22.138 7.28906 20.8359C7.15885 19.5599 7.40625 18.3229 8.03125 17.125C8.68229 15.9531 9.58073 15.0677 10.7266 14.4688C11.8984 13.8958 13.1484 13.6875 14.4766 13.8438V17.3594C13.8516 17.1771 13.2526 17.1901 12.6797 17.3984C12.1068 17.5807 11.625 17.9323 11.2344 18.4531C10.8698 18.974 10.6875 19.5469 10.6875 20.1719C10.6875 20.7708 10.8698 21.3438 11.2344 21.8906C11.625 22.3854 12.1198 22.724 12.7188 22.9062C13.2917 23.1146 13.8906 23.1146 14.5156 22.9062C15.1146 22.6979 15.5964 22.3464 15.9609 21.8516C16.3255 21.3568 16.5078 20.7839 16.5078 20.1328V6.5H19.9453C19.9453 6.78646 19.9714 7.07292 20.0234 7.35938C20.3099 8.6875 21.013 9.72917 22.1328 10.4844C22.9401 11.0052 23.8125 11.2786 24.75 11.3047V14.7031Z" fill="black" fill-opacity="0.72"/>
</g>
</svg>
