<svg width="32" height="32" viewBox="0 0 32 32" fill="none" xmlns="http://www.w3.org/2000/svg">
<g id="standalone / md / star-md / regular">
<path id="icon" d="M13.6172 13.1016C13.4089 13.4922 13.0833 13.7266 12.6406 13.8047L7.28906 14.5859L11.1953 18.4531C11.4818 18.7396 11.599 19.1042 11.5469 19.5469L10.6094 24.9766L15.4141 22.4375C15.8047 22.2292 16.1953 22.2292 16.5859 22.4375L21.3906 24.9766L20.4531 19.5469C20.401 19.1042 20.5182 18.7396 20.8047 18.4531L24.7109 14.5859L19.3203 13.8047C18.9036 13.7266 18.5911 13.4922 18.3828 13.1016L16 8.14062L13.6172 13.1016ZM21.3516 26.3828L16 23.5312L10.6484 26.3828C10.3099 26.5651 9.98438 26.5391 9.67188 26.3047C9.35938 26.0703 9.22917 25.7708 9.28125 25.4062L10.2969 19.3125L5.96094 15.0156C5.70052 14.7552 5.6224 14.4427 5.72656 14.0781C5.85677 13.7135 6.11719 13.5052 6.50781 13.4531L12.4844 12.5547L15.1406 7.04688C15.3229 6.70833 15.6094 6.52604 16 6.5C16.3906 6.52604 16.6771 6.70833 16.8594 7.04688L19.5156 12.5547L25.4922 13.4141C25.8828 13.4922 26.1432 13.7135 26.2734 14.0781C26.3776 14.4427 26.2995 14.7552 26.0391 15.0156L21.7031 19.3125L22.7188 25.4062C22.7708 25.7708 22.6406 26.0703 22.3281 26.3047C22.0156 26.5391 21.6901 26.5651 21.3516 26.3828Z" fill="black" fill-opacity="0.72"/>
</g>
</svg>
