<svg width="32" height="32" viewBox="0 0 32 32" fill="none" xmlns="http://www.w3.org/2000/svg">
<g id="standalone / md / star-md / fill">
<path id="icon" d="M17.1328 7.20312L19.6328 12.3594L25.2578 13.2188C25.7526 13.2969 26.0911 13.5703 26.2734 14.0391C26.4036 14.5339 26.2995 14.9635 25.9609 15.3281L21.8984 19.3516L22.8359 25.0547C22.9141 25.5495 22.7448 25.9531 22.3281 26.2656C21.9115 26.5521 21.4818 26.5781 21.0391 26.3438L16 23.6875L11 26.3438C10.5312 26.5781 10.0885 26.5521 9.67188 26.2656C9.28125 25.9531 9.11198 25.5495 9.16406 25.0547L10.1406 19.3516L6.07812 15.3281C5.71354 14.9635 5.60938 14.5339 5.76562 14.0391C5.92188 13.5703 6.2474 13.2969 6.74219 13.2188L12.3672 12.3594L14.8672 7.20312C15.1276 6.76042 15.5052 6.52604 16 6.5C16.5208 6.52604 16.8984 6.76042 17.1328 7.20312Z" fill="black" fill-opacity="0.72"/>
</g>
</svg>
