<svg width="32" height="32" viewBox="0 0 32 32" fill="none" xmlns="http://www.w3.org/2000/svg">
<g id="standalone / md / stopwatch-md / regular">
<path id="icon" d="M12.25 7.125C12.276 6.73438 12.4844 6.52604 12.875 6.5H19.125C19.5156 6.52604 19.724 6.73438 19.75 7.125C19.724 7.51562 19.5156 7.72396 19.125 7.75H16.625V10.2891C18.6042 10.4714 20.2708 11.2135 21.625 12.5156L23.0703 11.0703C23.3568 10.8099 23.6432 10.8099 23.9297 11.0703C24.1901 11.3568 24.1901 11.6432 23.9297 11.9297L22.4453 13.4141C23.5391 14.8203 24.099 16.474 24.125 18.375C24.0729 20.6667 23.2786 22.5807 21.7422 24.1172C20.2057 25.6536 18.2917 26.4479 16 26.5C13.7083 26.4479 11.7943 25.6536 10.2578 24.1172C8.72135 22.5807 7.92708 20.6667 7.875 18.375C7.92708 16.1875 8.65625 14.3385 10.0625 12.8281C11.4688 11.3438 13.2396 10.4974 15.375 10.2891V7.75H12.875C12.4844 7.72396 12.276 7.51562 12.25 7.125ZM9.125 18.375C9.125 19.625 9.4375 20.7708 10.0625 21.8125C10.6615 22.8542 11.4948 23.6875 12.5625 24.3125C13.6562 24.9375 14.8021 25.25 16 25.25C17.1979 25.25 18.3438 24.9375 19.4375 24.3125C20.5052 23.6875 21.3385 22.8542 21.9375 21.8125C22.5625 20.7708 22.875 19.625 22.875 18.375C22.875 17.125 22.5625 15.9792 21.9375 14.9375C21.3385 13.8958 20.5052 13.0625 19.4375 12.4375C18.3438 11.8125 17.1979 11.5 16 11.5C14.8021 11.5 13.6562 11.8125 12.5625 12.4375C11.4948 13.0625 10.6615 13.8958 10.0625 14.9375C9.4375 15.9792 9.125 17.125 9.125 18.375ZM16.625 14.625V19C16.599 19.3906 16.3906 19.599 16 19.625C15.6094 19.599 15.401 19.3906 15.375 19V14.625C15.401 14.2344 15.6094 14.026 16 14C16.3906 14.026 16.599 14.2344 16.625 14.625Z" fill="black" fill-opacity="0.72"/>
</g>
</svg>
