<svg width="32" height="32" viewBox="0 0 32 32" fill="none" xmlns="http://www.w3.org/2000/svg">
<g id="standalone / md / sun-bright-md / regular">
<path id="icon" d="M16 6.5C16.3906 6.52604 16.599 6.73438 16.625 7.125V10.25C16.599 10.6406 16.3906 10.849 16 10.875C15.6094 10.849 15.401 10.6406 15.375 10.25V7.125C15.401 6.73438 15.6094 6.52604 16 6.5ZM6 16.5C6.02604 16.1094 6.23438 15.901 6.625 15.875H9.75C10.1406 15.901 10.349 16.1094 10.375 16.5C10.349 16.8906 10.1406 17.099 9.75 17.125H6.625C6.23438 17.099 6.02604 16.8906 6 16.5ZM21.625 16.5C21.651 16.1094 21.8594 15.901 22.25 15.875H25.375C25.7656 15.901 25.974 16.1094 26 16.5C25.974 16.8906 25.7656 17.099 25.375 17.125H22.25C21.8594 17.099 21.651 16.8906 21.625 16.5ZM16 22.125C16.3906 22.151 16.599 22.3594 16.625 22.75V25.875C16.599 26.2656 16.3906 26.474 16 26.5C15.6094 26.474 15.401 26.2656 15.375 25.875V22.75C15.401 22.3594 15.6094 22.151 16 22.125ZM8.92969 9.42969C9.21615 9.19531 9.51562 9.19531 9.82812 9.42969L12.0156 11.6562C12.25 11.9427 12.25 12.2292 12.0156 12.5156C11.7292 12.776 11.4427 12.776 11.1562 12.5156L8.92969 10.3281C8.69531 10.0156 8.69531 9.71615 8.92969 9.42969ZM8.92969 23.5703C8.69531 23.2839 8.69531 22.9844 8.92969 22.6719L11.1562 20.4844C11.4427 20.25 11.7292 20.25 12.0156 20.4844C12.276 20.7708 12.276 21.0573 12.0156 21.3438L9.82812 23.5703C9.51562 23.8047 9.21615 23.8047 8.92969 23.5703ZM19.9844 12.5156C19.75 12.2292 19.75 11.9427 19.9844 11.6562L22.1719 9.42969C22.4844 9.19531 22.7839 9.19531 23.0703 9.42969C23.3047 9.71615 23.3047 10.0156 23.0703 10.3281L20.8438 12.5156C20.5573 12.75 20.2708 12.75 19.9844 12.5156ZM19.9844 20.4844C20.2708 20.25 20.5573 20.25 20.8438 20.4844L23.0703 22.6719C23.3047 22.9844 23.3047 23.2839 23.0703 23.5703C22.7839 23.8047 22.4844 23.8047 22.1719 23.5703L19.9844 21.3438C19.75 21.0573 19.75 20.7708 19.9844 20.4844ZM19.125 16.5C19.099 15.3281 18.5781 14.4297 17.5625 13.8047C16.5208 13.2318 15.4792 13.2318 14.4375 13.8047C13.4219 14.4297 12.901 15.3281 12.875 16.5C12.901 17.6719 13.4219 18.5703 14.4375 19.1953C15.4792 19.7682 16.5208 19.7682 17.5625 19.1953C18.5781 18.5703 19.099 17.6719 19.125 16.5ZM11.625 16.5C11.625 15.7188 11.8203 14.9896 12.2109 14.3125C12.6016 13.6354 13.1354 13.1016 13.8125 12.7109C14.4896 12.3203 15.2188 12.125 16 12.125C16.7812 12.125 17.5104 12.3203 18.1875 12.7109C18.8646 13.1016 19.3984 13.6354 19.7891 14.3125C20.1797 14.9896 20.375 15.7188 20.375 16.5C20.375 17.2812 20.1797 18.0104 19.7891 18.6875C19.3984 19.3646 18.8646 19.8984 18.1875 20.2891C17.5104 20.6797 16.7812 20.875 16 20.875C15.2188 20.875 14.4896 20.6797 13.8125 20.2891C13.1354 19.8984 12.6016 19.3646 12.2109 18.6875C11.8203 18.0104 11.625 17.2812 11.625 16.5Z" fill="black" fill-opacity="0.72"/>
</g>
</svg>
