<svg width="32" height="32" viewBox="0 0 32 32" fill="none" xmlns="http://www.w3.org/2000/svg">
<g id="standalone / md / three-md / bold">
<path id="icon" d="M9.75 8.6875C9.80208 8.11458 10.1146 7.80208 10.6875 7.75H20.6875C21.1042 7.77604 21.3906 7.97135 21.5469 8.33594C21.7031 8.72656 21.638 9.0651 21.3516 9.35156L15.5312 14.9375H17.0938C18.5521 14.9635 19.763 15.4714 20.7266 16.4609C21.7161 17.4245 22.224 18.6354 22.25 20.0938C22.224 21.5521 21.7161 22.763 20.7266 23.7266C19.763 24.7161 18.5521 25.224 17.0938 25.25H13.5391C12.7578 25.25 12.0547 25.0417 11.4297 24.625C10.7786 24.2344 10.2708 23.7005 9.90625 23.0234L9.86719 22.8672C9.65885 22.3203 9.78906 21.9036 10.2578 21.6172C10.8047 21.4089 11.2214 21.5391 11.5078 22.0078L11.5859 22.1641C12.0286 22.9453 12.6797 23.349 13.5391 23.375H17.0938C18.0312 23.349 18.7995 23.0234 19.3984 22.3984C20.0234 21.7995 20.349 21.0312 20.375 20.0938C20.349 19.1562 20.0234 18.388 19.3984 17.7891C18.7995 17.1641 18.0312 16.8385 17.0938 16.8125H13.1875C12.7708 16.7865 12.4844 16.5911 12.3281 16.2266C12.1719 15.8359 12.237 15.4974 12.5234 15.2109L18.3438 9.625H10.6875C10.1146 9.57292 9.80208 9.26042 9.75 8.6875Z" fill="black" fill-opacity="0.72"/>
</g>
</svg>
