<svg width="32" height="32" viewBox="0 0 32 32" fill="none" xmlns="http://www.w3.org/2000/svg">
<g id="standalone / md / users-md / regular">
<path id="icon" d="M7.25 9.625C7.27604 10.3281 7.58854 10.875 8.1875 11.2656C8.8125 11.5781 9.4375 11.5781 10.0625 11.2656C10.6615 10.875 10.974 10.3281 11 9.625C10.974 8.92188 10.6615 8.375 10.0625 7.98438C9.4375 7.67188 8.8125 7.67188 8.1875 7.98438C7.58854 8.375 7.27604 8.92188 7.25 9.625ZM12.25 9.625C12.224 10.7969 11.7031 11.6953 10.6875 12.3203C9.64583 12.8932 8.60417 12.8932 7.5625 12.3203C6.54688 11.6953 6.02604 10.7969 6 9.625C6.02604 8.45312 6.54688 7.55469 7.5625 6.92969C8.60417 6.35677 9.64583 6.35677 10.6875 6.92969C11.7031 7.55469 12.224 8.45312 12.25 9.625ZM16 12.75C15.0625 12.776 14.3464 13.1927 13.8516 14C13.3828 14.8333 13.3828 15.6667 13.8516 16.5C14.3464 17.3073 15.0625 17.724 16 17.75C16.9375 17.724 17.6536 17.3073 18.1484 16.5C18.6172 15.6667 18.6172 14.8333 18.1484 14C17.6536 13.1927 16.9375 12.776 16 12.75ZM16 19C15.3229 19 14.6979 18.8307 14.125 18.4922C13.5521 18.1536 13.0964 17.6979 12.7578 17.125C12.4193 16.526 12.25 15.901 12.25 15.25C12.25 14.599 12.4193 13.974 12.7578 13.375C13.0964 12.8021 13.5521 12.3464 14.125 12.0078C14.6979 11.6693 15.3229 11.5 16 11.5C16.6771 11.5 17.3021 11.6693 17.875 12.0078C18.4479 12.3464 18.9036 12.8021 19.2422 13.375C19.5807 13.974 19.75 14.599 19.75 15.25C19.75 15.901 19.5807 16.526 19.2422 17.125C18.9036 17.6979 18.4479 18.1536 17.875 18.4922C17.3021 18.8307 16.6771 19 16 19ZM13.6953 21.5C12.6276 21.526 11.7161 21.8906 10.9609 22.5938C10.2318 23.2969 9.82812 24.1823 9.75 25.25H22.25C22.1719 24.1823 21.7682 23.2969 21.0391 22.5938C20.2839 21.8906 19.3724 21.526 18.3047 21.5H13.6953ZM13.6953 20.25H18.3047C19.763 20.276 20.987 20.7839 21.9766 21.7734C22.9661 22.763 23.474 23.987 23.5 25.4453C23.4479 26.0964 23.0964 26.4479 22.4453 26.5H9.55469C8.90365 26.4479 8.55208 26.0964 8.5 25.4453C8.52604 23.987 9.03385 22.763 10.0234 21.7734C11.013 20.7839 12.237 20.276 13.6953 20.25ZM23.5 7.75C22.7969 7.77604 22.25 8.08854 21.8594 8.6875C21.5469 9.3125 21.5469 9.9375 21.8594 10.5625C22.25 11.1615 22.7969 11.474 23.5 11.5C24.2031 11.474 24.75 11.1615 25.1406 10.5625C25.4531 9.9375 25.4531 9.3125 25.1406 8.6875C24.75 8.08854 24.2031 7.77604 23.5 7.75ZM23.5 12.75C22.3281 12.724 21.4297 12.2031 20.8047 11.1875C20.2318 10.1458 20.2318 9.10417 20.8047 8.0625C21.4297 7.04688 22.3281 6.52604 23.5 6.5C24.6719 6.52604 25.5703 7.04688 26.1953 8.0625C26.7682 9.10417 26.7682 10.1458 26.1953 11.1875C25.5703 12.2031 24.6719 12.724 23.5 12.75ZM24.125 15.25H21C21 14.8073 20.9479 14.3906 20.8438 14H24.125C25.375 14.026 26.4036 14.4557 27.2109 15.2891C28.0443 16.0964 28.474 17.125 28.5 18.375C28.474 18.7656 28.2656 18.974 27.875 19C27.4844 18.974 27.276 18.7656 27.25 18.375C27.224 17.4896 26.9245 16.7474 26.3516 16.1484C25.7526 15.5755 25.0104 15.276 24.125 15.25ZM11 15.25H7.875C6.98958 15.276 6.2474 15.5755 5.64844 16.1484C5.07552 16.7474 4.77604 17.4896 4.75 18.375C4.72396 18.7656 4.51562 18.974 4.125 19C3.73438 18.974 3.52604 18.7656 3.5 18.375C3.52604 17.125 3.95573 16.0964 4.78906 15.2891C5.59635 14.4557 6.625 14.026 7.875 14H11.1562C11.0521 14.3906 11 14.8073 11 15.25Z" fill="black" fill-opacity="0.72"/>
</g>
</svg>
