<svg width="32" height="32" viewBox="0 0 32 32" fill="none" xmlns="http://www.w3.org/2000/svg">
<g id="standalone / md / video-md / regular">
<path id="icon" d="M7.25 10.25C6.88542 10.25 6.58594 10.3672 6.35156 10.6016C6.11719 10.8359 6 11.1354 6 11.5V21.5C6 21.8646 6.11719 22.1641 6.35156 22.3984C6.58594 22.6328 6.88542 22.75 7.25 22.75H17.25C17.6146 22.75 17.9141 22.6328 18.1484 22.3984C18.3828 22.1641 18.5 21.8646 18.5 21.5V11.5C18.5 11.1354 18.3828 10.8359 18.1484 10.6016C17.9141 10.3672 17.6146 10.25 17.25 10.25H7.25ZM4.75 11.5C4.77604 10.7969 5.02344 10.2109 5.49219 9.74219C5.96094 9.27344 6.54688 9.02604 7.25 9H17.25C17.9531 9.02604 18.5391 9.27344 19.0078 9.74219C19.4766 10.2109 19.724 10.7969 19.75 11.5V13.3359V19.6641V21.5C19.724 22.2031 19.4766 22.7891 19.0078 23.2578C18.5391 23.7266 17.9531 23.974 17.25 24H7.25C6.54688 23.974 5.96094 23.7266 5.49219 23.2578C5.02344 22.7891 4.77604 22.2031 4.75 21.5V11.5ZM25.0234 22.5547L21 20.3281V18.9219L25.6484 21.4609C25.6745 21.487 25.7135 21.5 25.7656 21.5C25.8958 21.5 25.974 21.4219 26 21.2656V11.7344C25.974 11.6042 25.8958 11.526 25.7656 11.5C25.7135 11.5 25.6745 11.513 25.6484 11.5391L21 14.0781V12.6719L25.0234 10.4453C25.2578 10.3151 25.5052 10.25 25.7656 10.25C26.1823 10.25 26.5339 10.3932 26.8203 10.6797C27.1068 10.9661 27.25 11.3177 27.25 11.7344V21.2656C27.25 21.6823 27.1068 22.0339 26.8203 22.3203C26.5339 22.6068 26.1823 22.75 25.7656 22.75C25.5052 22.75 25.2578 22.6849 25.0234 22.5547Z" fill="black" fill-opacity="0.72"/>
</g>
</svg>
