<svg width="32" height="32" viewBox="0 0 32 32" fill="none" xmlns="http://www.w3.org/2000/svg">
<g id="standalone / md / xmark-md / regular">
<path id="icon" d="M21.1953 22.5547L16 17.3984L10.8438 22.5547C10.5312 22.7891 10.2318 22.7891 9.94531 22.5547C9.71094 22.2682 9.71094 21.9818 9.94531 21.6953L15.1016 16.5L9.94531 11.3438C9.71094 11.0312 9.71094 10.7318 9.94531 10.4453C10.2318 10.2109 10.5312 10.2109 10.8438 10.4453L16 15.6016L21.1953 10.4453C21.4818 10.2109 21.7682 10.2109 22.0547 10.4453C22.2891 10.7318 22.2891 11.0312 22.0547 11.3438L16.8984 16.5L22.0547 21.6953C22.2891 21.9818 22.2891 22.2682 22.0547 22.5547C21.7682 22.7891 21.4818 22.7891 21.1953 22.5547Z" fill="black" fill-opacity="0.72"/>
</g>
</svg>
