<svg width="32" height="32" viewBox="0 0 32 32" fill="none" xmlns="http://www.w3.org/2000/svg">
<g id="standalone / md / zero-md / regular">
<path id="icon" d="M9.75 14C9.80208 12.2292 10.4141 10.7578 11.5859 9.58594C12.7578 8.41406 14.2292 7.80208 16 7.75C17.7708 7.80208 19.2422 8.41406 20.4141 9.58594C21.5859 10.7578 22.1979 12.2292 22.25 14V19C22.1979 20.7708 21.5859 22.2422 20.4141 23.4141C19.2422 24.5859 17.7708 25.1979 16 25.25C14.2292 25.1979 12.7578 24.5859 11.5859 23.4141C10.4141 22.2422 9.80208 20.7708 9.75 19V14ZM16 9C14.5938 9.02604 13.4089 9.50781 12.4453 10.4453C11.5078 11.4089 11.026 12.5938 11 14V19C11.026 20.4062 11.5078 21.5911 12.4453 22.5547C13.4089 23.4922 14.5938 23.974 16 24C17.4062 23.974 18.5911 23.4922 19.5547 22.5547C20.4922 21.5911 20.974 20.4062 21 19V14C20.974 12.5938 20.4922 11.4089 19.5547 10.4453C18.5911 9.50781 17.4062 9.02604 16 9Z" fill="black" fill-opacity="0.72"/>
</g>
</svg>
