<svg width="32" height="32" viewBox="0 0 32 32" fill="none" xmlns="http://www.w3.org/2000/svg">
<g id="markets / market-cryptocurrency-iotusd">
<g id="currencies / currency-iota">
<g id="logo">
<path d="M19.9997 11C19.9997 15.97 15.9707 19.9989 11.0007 19.9989C6.03069 19.9989 2.00171 15.97 2.00171 11C2.00171 6.02996 6.03069 2.00098 11.0007 2.00098C15.9707 2.00098 19.9997 6.02996 19.9997 11Z" fill="#131F37"/>
<path d="M13.3345 7.63331C13.2497 7.69032 13.1498 7.72091 13.0476 7.72121C12.9102 7.72136 12.7784 7.66697 12.6812 7.56998C12.5839 7.473 12.5291 7.34135 12.5289 7.20399C12.5289 7.10176 12.5592 7.00183 12.6159 6.9168C12.6727 6.83178 12.7534 6.76549 12.8478 6.7263C12.9422 6.68711 13.0462 6.67678 13.1464 6.69662C13.2467 6.71645 13.3389 6.76556 13.4113 6.83774C13.4837 6.90993 13.5331 7.00195 13.5532 7.10218C13.5733 7.20241 13.5633 7.30635 13.5244 7.40089C13.4854 7.49542 13.4194 7.5763 13.3345 7.63331Z" fill="white"/>
<path d="M13.918 14.939C13.8331 14.996 13.7332 15.0265 13.6309 15.0268C13.4937 15.0268 13.3621 14.9725 13.2649 14.8757C13.1677 14.7788 13.1129 14.6474 13.1125 14.5102C13.1124 14.4079 13.1426 14.3079 13.1993 14.2228C13.256 14.1377 13.3367 14.0713 13.4311 14.032C13.5255 13.9927 13.6295 13.9823 13.7298 14.0021C13.8302 14.0219 13.9224 14.071 13.9948 14.1432C14.0673 14.2154 14.1167 14.3074 14.1368 14.4077C14.157 14.508 14.1469 14.612 14.108 14.7065C14.069 14.8011 14.0029 14.882 13.918 14.939Z" fill="white"/>
<path d="M13.1956 9.01414C13.2814 9.0139 13.3652 8.98824 13.4364 8.94039C13.5077 8.89255 13.5631 8.82467 13.5958 8.74533C13.6285 8.66598 13.6369 8.57873 13.62 8.49461C13.6031 8.41048 13.5617 8.33324 13.5009 8.27265C13.4402 8.21205 13.3628 8.17083 13.2786 8.15418C13.1945 8.13752 13.1072 8.14619 13.028 8.17908C12.9487 8.21197 12.881 8.26761 12.8334 8.33898C12.7857 8.41034 12.7603 8.49422 12.7603 8.58003C12.7603 8.63713 12.7716 8.69366 12.7935 8.74639C12.8154 8.79912 12.8475 8.84701 12.8879 8.88733C12.9284 8.92765 12.9764 8.9596 13.0291 8.98136C13.0819 9.00312 13.1385 9.01426 13.1956 9.01414Z" fill="white"/>
<path d="M14.594 9.10678C14.5227 9.15458 14.4389 9.1802 14.3531 9.18037C14.2378 9.18045 14.1273 9.13477 14.0457 9.05337C13.9641 8.97197 13.9182 8.86151 13.9181 8.74626C13.9181 8.66044 13.9435 8.57655 13.9912 8.50518C14.0388 8.43381 14.1066 8.37817 14.1859 8.34529C14.2651 8.3124 14.3524 8.30376 14.4365 8.32043C14.5207 8.33711 14.5981 8.37837 14.6588 8.43899C14.7196 8.49961 14.761 8.57687 14.7778 8.66102C14.7947 8.74517 14.7862 8.83243 14.7535 8.91177C14.7208 8.99111 14.6653 9.05897 14.594 9.10678Z" fill="white"/>
<path d="M13.0477 10.1136C13.1208 10.1135 13.1922 10.0917 13.2529 10.051C13.3136 10.0103 13.3609 9.95256 13.3888 9.88501C13.4167 9.81747 13.4239 9.74317 13.4096 9.67151C13.3952 9.59985 13.36 9.53405 13.3083 9.48242C13.2566 9.43079 13.1907 9.39565 13.119 9.38144C13.0473 9.36722 12.9731 9.37458 12.9056 9.40257C12.8381 9.43056 12.7804 9.47794 12.7398 9.5387C12.6992 9.59947 12.6775 9.67091 12.6775 9.74399C12.6777 9.84207 12.7168 9.93608 12.7862 10.0054C12.8556 10.0747 12.9497 10.1136 13.0477 10.1136Z" fill="white"/>
<path d="M14.4102 10.2076C14.3496 10.2483 14.2782 10.2701 14.2051 10.2703C14.1565 10.2704 14.1084 10.2609 14.0635 10.2424C14.0186 10.2239 13.9778 10.1967 13.9434 10.1624C13.909 10.1281 13.8816 10.0874 13.863 10.0425C13.8443 9.99766 13.8347 9.94958 13.8346 9.901C13.8345 9.82792 13.8561 9.75647 13.8967 9.69567C13.9372 9.63487 13.9949 9.58745 14.0623 9.5594C14.1298 9.53135 14.2041 9.52394 14.2758 9.53809C14.3475 9.55225 14.4134 9.58734 14.4651 9.63893C14.5169 9.69051 14.5522 9.75629 14.5666 9.82793C14.581 9.89958 14.5738 9.97388 14.546 10.0415C14.5181 10.109 14.4709 10.1668 14.4102 10.2076Z" fill="white"/>
<path d="M15.1312 10.6306C15.2043 10.6305 15.2757 10.6087 15.3364 10.568C15.3971 10.5273 15.4443 10.4696 15.4722 10.402C15.5001 10.3345 15.5073 10.2602 15.493 10.1885C15.4787 10.1169 15.4434 10.0511 15.3917 9.99944C15.34 9.9478 15.2741 9.91266 15.2025 9.89845C15.1308 9.88424 15.0565 9.89159 14.989 9.91958C14.9215 9.94758 14.8638 9.99495 14.8232 10.0557C14.7826 10.1165 14.761 10.1879 14.761 10.261C14.7611 10.3591 14.8002 10.4531 14.8696 10.5224C14.939 10.5917 15.0331 10.6306 15.1312 10.6306Z" fill="white"/>
<path d="M14.0423 11.1022C13.9892 11.1378 13.9267 11.1569 13.8627 11.157C13.7769 11.1571 13.6946 11.1231 13.6339 11.0625C13.5731 11.0019 13.5389 10.9197 13.5387 10.8339C13.5387 10.77 13.5576 10.7074 13.5931 10.6542C13.6285 10.601 13.679 10.5595 13.738 10.535C13.7971 10.5104 13.8621 10.5039 13.9248 10.5163C13.9876 10.5287 14.0452 10.5594 14.0905 10.6046C14.1358 10.6498 14.1667 10.7073 14.1792 10.77C14.1918 10.8327 14.1855 10.8978 14.1611 10.9569C14.1368 11.016 14.0954 11.0666 14.0423 11.1022Z" fill="white"/>
<path d="M12.7054 10.9999C12.7693 10.9999 12.8318 10.9809 12.885 10.9453C12.9381 10.9097 12.9795 10.8592 13.004 10.8001C13.0284 10.741 13.0348 10.676 13.0222 10.6132C13.0097 10.5505 12.9789 10.4929 12.9337 10.4477C12.8884 10.4025 12.8308 10.3718 12.7681 10.3593C12.7053 10.3469 12.6403 10.3533 12.5813 10.3778C12.5222 10.4022 12.4717 10.4437 12.4362 10.4969C12.4006 10.5501 12.3817 10.6126 12.3817 10.6765C12.3818 10.7623 12.416 10.8445 12.4767 10.9051C12.5374 10.9658 12.6196 10.9998 12.7054 10.9999Z" fill="white"/>
<path d="M14.9775 11.4625C14.9243 11.4981 14.8619 11.5172 14.7979 11.5173C14.7121 11.5174 14.6298 11.4834 14.569 11.4228C14.5083 11.3622 14.4741 11.28 14.4739 11.1942C14.4738 11.1303 14.4927 11.0677 14.5282 11.0145C14.5637 10.9613 14.6141 10.9198 14.6732 10.8953C14.7323 10.8707 14.7973 10.8642 14.86 10.8766C14.9227 10.889 14.9804 10.9197 15.0257 10.9649C15.071 11.0101 15.1018 11.0676 15.1144 11.1303C15.127 11.193 15.1207 11.2581 15.0963 11.3172C15.0719 11.3763 15.0306 11.4269 14.9775 11.4625Z" fill="white"/>
<path d="M13.3999 11.8313C13.4547 11.8312 13.5082 11.8149 13.5537 11.7843C13.5992 11.7538 13.6346 11.7105 13.6555 11.6598C13.6764 11.6091 13.6818 11.5534 13.6711 11.4997C13.6603 11.446 13.6339 11.3966 13.5951 11.3579C13.5563 11.3192 13.5069 11.2929 13.4531 11.2822C13.3994 11.2716 13.3437 11.2771 13.293 11.2981C13.2424 11.3191 13.1992 11.3546 13.1687 11.4002C13.1383 11.4458 13.1221 11.4993 13.1221 11.5541C13.1221 11.5906 13.1293 11.6267 13.1433 11.6603C13.1573 11.694 13.1777 11.7245 13.2035 11.7503C13.2293 11.776 13.26 11.7964 13.2936 11.8103C13.3273 11.8242 13.3634 11.8314 13.3999 11.8313Z" fill="white"/>
<path d="M14.4881 12.1355C14.4426 12.166 14.3891 12.1824 14.3343 12.1825C14.2607 12.1825 14.1901 12.1533 14.1381 12.1013C14.086 12.0494 14.0566 11.9789 14.0565 11.9053C14.0565 11.8505 14.0727 11.7969 14.1032 11.7513C14.1336 11.7058 14.1769 11.6702 14.2275 11.6492C14.2781 11.6282 14.3338 11.6227 14.3875 11.6334C14.4413 11.644 14.4907 11.6703 14.5295 11.7091C14.5683 11.7478 14.5947 11.7971 14.6055 11.8508C14.6163 11.9046 14.6109 11.9603 14.59 12.0109C14.5691 12.0616 14.5336 12.1049 14.4881 12.1355Z" fill="white"/>
<path d="M12.2513 11.6647C12.3061 11.6647 12.3597 11.6484 12.4052 11.6179C12.4508 11.5874 12.4862 11.5441 12.5072 11.4934C12.5281 11.4427 12.5336 11.387 12.5228 11.3333C12.5121 11.2795 12.4857 11.2302 12.4469 11.1914C12.4081 11.1527 12.3587 11.1263 12.305 11.1156C12.2512 11.105 12.1955 11.1105 12.1448 11.1315C12.0942 11.1524 12.0509 11.188 12.0205 11.2336C11.99 11.2791 11.9738 11.3327 11.9738 11.3875C11.9739 11.4611 12.0031 11.5316 12.0552 11.5836C12.1072 11.6355 12.1777 11.6647 12.2513 11.6647Z" fill="white"/>
<path d="M13.0198 12.2445C12.9819 12.27 12.9372 12.2837 12.8916 12.2838C12.8612 12.2839 12.8311 12.278 12.803 12.2664C12.775 12.2548 12.7494 12.2379 12.7279 12.2164C12.7064 12.195 12.6894 12.1696 12.6777 12.1415C12.666 12.1135 12.66 12.0834 12.66 12.0531C12.6599 12.0074 12.6734 11.9627 12.6987 11.9247C12.724 11.8867 12.76 11.857 12.8022 11.8395C12.8444 11.822 12.8908 11.8173 12.9356 11.8261C12.9804 11.835 13.0216 11.8569 13.054 11.8891C13.0864 11.9213 13.1084 11.9625 13.1174 12.0072C13.1264 12.052 13.122 12.0985 13.1046 12.1407C13.0872 12.1829 13.0577 12.2191 13.0198 12.2445Z" fill="white"/>
<path d="M13.2884 12.92C13.3286 12.9199 13.3678 12.9079 13.4011 12.8855C13.4344 12.8631 13.4603 12.8313 13.4756 12.7942C13.4909 12.7571 13.4948 12.7163 13.4869 12.6769C13.479 12.6376 13.4596 12.6014 13.4312 12.5731C13.4028 12.5447 13.3666 12.5255 13.3272 12.5177C13.2878 12.5099 13.247 12.5139 13.2099 12.5293C13.1729 12.5447 13.1412 12.5707 13.1189 12.6041C13.0966 12.6375 13.0847 12.6768 13.0847 12.7169C13.0847 12.7436 13.09 12.7701 13.1002 12.7948C13.1105 12.8195 13.1255 12.8419 13.1444 12.8607C13.1633 12.8796 13.1858 12.8946 13.2105 12.9047C13.2352 12.9149 13.2617 12.9201 13.2884 12.92Z" fill="white"/>
<path d="M12.8894 13.022C12.8621 13.0403 12.83 13.0501 12.7972 13.0502C12.7531 13.0502 12.7108 13.0327 12.6795 13.0015C12.6483 12.9703 12.6307 12.9281 12.6307 12.884C12.6307 12.8511 12.6404 12.819 12.6587 12.7917C12.6769 12.7643 12.7028 12.743 12.7332 12.7304C12.7636 12.7178 12.797 12.7145 12.8292 12.7209C12.8614 12.7273 12.891 12.7431 12.9143 12.7663C12.9375 12.7895 12.9534 12.8191 12.9598 12.8514C12.9663 12.8836 12.963 12.917 12.9505 12.9474C12.938 12.9777 12.9167 13.0037 12.8894 13.022Z" fill="white"/>
<path d="M12.3628 12.57C12.4029 12.5698 12.4421 12.5578 12.4754 12.5354C12.5088 12.5131 12.5347 12.4813 12.55 12.4442C12.5653 12.4071 12.5692 12.3662 12.5613 12.3269C12.5534 12.2875 12.534 12.2514 12.5056 12.223C12.4771 12.1947 12.4409 12.1754 12.4016 12.1676C12.3622 12.1598 12.3214 12.1639 12.2843 12.1793C12.2472 12.1947 12.2155 12.2207 12.1932 12.2541C12.171 12.2875 12.1591 12.3267 12.1591 12.3669C12.1591 12.3936 12.1644 12.42 12.1747 12.4447C12.1849 12.4693 12.1999 12.4917 12.2188 12.5106C12.2378 12.5295 12.2602 12.5444 12.2849 12.5546C12.3096 12.5648 12.3361 12.57 12.3628 12.57Z" fill="white"/>
<path d="M11.8612 12.0875C11.8233 12.1129 11.7787 12.1266 11.733 12.1267C11.7027 12.1267 11.6726 12.1208 11.6445 12.1092C11.6164 12.0976 11.5909 12.0806 11.5694 12.0592C11.5479 12.0377 11.5308 12.0122 11.5192 11.9842C11.5075 11.9561 11.5015 11.9261 11.5014 11.8957C11.5014 11.85 11.515 11.8054 11.5403 11.7674C11.5657 11.7294 11.6017 11.6998 11.6439 11.6823C11.6861 11.6648 11.7325 11.6602 11.7773 11.6691C11.8221 11.6779 11.8632 11.6999 11.8956 11.7321C11.9279 11.7644 11.95 11.8055 11.9589 11.8503C11.9679 11.895 11.9634 11.9415 11.946 11.9837C11.9286 12.0259 11.8991 12.062 11.8612 12.0875Z" fill="white"/>
<path d="M11.7235 10.3904C11.7692 10.3903 11.8138 10.3766 11.8517 10.3512C11.8896 10.3257 11.9191 10.2896 11.9365 10.2474C11.9539 10.2051 11.9584 10.1587 11.9494 10.1139C11.9404 10.0692 11.9184 10.0281 11.8861 9.99582C11.8537 9.96358 11.8126 9.94163 11.7678 9.93277C11.723 9.9239 11.6766 9.92851 11.6344 9.94601C11.5922 9.96352 11.5562 9.99313 11.5308 10.0311C11.5055 10.0691 11.4919 10.1137 11.4919 10.1594C11.492 10.1898 11.498 10.2198 11.5096 10.2479C11.5213 10.2759 11.5384 10.3014 11.5599 10.3228C11.5814 10.3443 11.6069 10.3613 11.635 10.3729C11.6631 10.3845 11.6931 10.3904 11.7235 10.3904Z" fill="white"/>
<path d="M11.9382 9.54316C11.9048 9.56556 11.8655 9.57754 11.8252 9.5776C11.7985 9.57764 11.7721 9.57242 11.7474 9.56223C11.7227 9.55205 11.7002 9.5371 11.6813 9.51824C11.6624 9.49938 11.6474 9.47698 11.6371 9.45232C11.6269 9.42765 11.6216 9.40121 11.6215 9.3745C11.6215 9.33427 11.6334 9.29493 11.6557 9.26144C11.678 9.22796 11.7097 9.20184 11.7468 9.18639C11.784 9.17094 11.8249 9.16685 11.8643 9.17464C11.9038 9.18244 11.9401 9.20175 11.9686 9.23016C11.9971 9.25856 12.0165 9.29478 12.0244 9.33422C12.0323 9.37367 12.0283 9.41457 12.013 9.45176C11.9976 9.48895 11.9716 9.52076 11.9382 9.54316Z" fill="white"/>
<path d="M12.0476 8.91259C12.0804 8.91247 12.1125 8.90262 12.1398 8.88429C12.167 8.86595 12.1882 8.83995 12.2007 8.80958C12.2132 8.7792 12.2164 8.7458 12.2099 8.71359C12.2034 8.68139 12.1876 8.65184 12.1643 8.62865C12.141 8.60547 12.1114 8.5897 12.0792 8.58333C12.047 8.57697 12.0136 8.5803 11.9832 8.59289C11.9529 8.60549 11.927 8.62679 11.9087 8.65411C11.8905 8.68143 11.8808 8.71354 11.8808 8.74639C11.8808 8.76825 11.8852 8.7899 11.8936 8.81008C11.902 8.83027 11.9143 8.8486 11.9298 8.86403C11.9452 8.87947 11.9636 8.8917 11.9838 8.90003C12.0041 8.90836 12.0257 8.91263 12.0476 8.91259Z" fill="white"/>
<path d="M11.7712 8.56552C11.7378 8.58792 11.6985 8.5999 11.6583 8.59996C11.6316 8.60004 11.6051 8.59485 11.5804 8.58468C11.5557 8.5745 11.5332 8.55956 11.5143 8.54069C11.4953 8.52182 11.4803 8.4994 11.4701 8.47472C11.4598 8.45004 11.4546 8.42358 11.4546 8.39686C11.4545 8.35663 11.4664 8.31729 11.4887 8.2838C11.511 8.25032 11.5427 8.2242 11.5799 8.20875C11.617 8.1933 11.6579 8.18922 11.6974 8.19701C11.7368 8.2048 11.7731 8.22411 11.8016 8.25252C11.8301 8.28092 11.8495 8.31714 11.8574 8.35658C11.8653 8.39603 11.8614 8.43693 11.846 8.47412C11.8307 8.51131 11.8046 8.54312 11.7712 8.56552Z" fill="white"/>
<path d="M13.8165 12.6346C13.8622 12.6344 13.9068 12.6208 13.9447 12.5953C13.9826 12.5698 14.0121 12.5337 14.0295 12.4915C14.0469 12.4492 14.0514 12.4028 14.0423 12.358C14.0333 12.3132 14.0113 12.2721 13.9789 12.2399C13.9465 12.2077 13.9054 12.1857 13.8605 12.1769C13.8157 12.1681 13.7693 12.1727 13.7271 12.1903C13.685 12.2078 13.6489 12.2375 13.6236 12.2755C13.5983 12.3135 13.5848 12.3582 13.5849 12.4039C13.5849 12.4342 13.5909 12.4643 13.6026 12.4923C13.6143 12.5203 13.6313 12.5458 13.6529 12.5672C13.6744 12.5886 13.6999 12.6056 13.728 12.6172C13.756 12.6287 13.7861 12.6346 13.8165 12.6346Z" fill="white"/>
<path d="M11.2595 8.29065C11.2216 8.31614 11.177 8.32984 11.1314 8.33002C11.101 8.3301 11.0709 8.32418 11.0428 8.31261C11.0146 8.30104 10.9891 8.28404 10.9675 8.26259C10.946 8.24113 10.9289 8.21564 10.9172 8.18757C10.9055 8.15951 10.8995 8.12941 10.8995 8.09901C10.8995 8.05336 10.913 8.00873 10.9383 7.97077C10.9637 7.9328 10.9997 7.90319 11.0419 7.88568C11.084 7.86817 11.1304 7.86354 11.1752 7.87238C11.22 7.88122 11.2612 7.90313 11.2935 7.93535C11.3259 7.96757 11.3479 8.00864 11.3569 8.0534C11.366 8.09815 11.3615 8.14457 11.3442 8.18679C11.3268 8.22902 11.2973 8.26516 11.2595 8.29065Z" fill="white"/>
<path d="M11.2885 9.30985C11.3342 9.30973 11.3788 9.29608 11.4167 9.27061C11.4547 9.24514 11.4842 9.209 11.5016 9.16677C11.5189 9.12453 11.5234 9.07808 11.5144 9.03331C11.5054 8.98853 11.4833 8.94742 11.451 8.91519C11.4186 8.88295 11.3774 8.86103 11.3326 8.8522C11.2878 8.84337 11.2414 8.84802 11.1992 8.86557C11.157 8.88312 11.121 8.91278 11.0957 8.95079C11.0703 8.98881 11.0569 9.03347 11.0569 9.07915C11.0571 9.14044 11.0816 9.19917 11.125 9.24242C11.1684 9.28568 11.2272 9.30993 11.2885 9.30985Z" fill="white"/>
<path d="M11.1832 10.1956C11.1377 10.2261 11.0842 10.2425 11.0294 10.2426C10.9929 10.2426 10.9568 10.2355 10.9231 10.2216C10.8895 10.2077 10.8588 10.1873 10.833 10.1615C10.8072 10.1358 10.7868 10.1052 10.7728 10.0716C10.7588 10.0379 10.7516 10.0018 10.7516 9.96538C10.7516 9.91058 10.7678 9.85701 10.7982 9.81143C10.8287 9.76586 10.8719 9.73033 10.9225 9.70933C10.9732 9.68833 11.0289 9.68281 11.0826 9.69346C11.1364 9.7041 11.1858 9.73045 11.2246 9.76915C11.2634 9.80786 11.2898 9.8572 11.3006 9.91093C11.3113 9.96467 11.3059 10.0204 11.285 10.071C11.2641 10.1217 11.2287 10.165 11.1832 10.1956Z" fill="white"/>
<path d="M10.1863 10.2423C10.2502 10.242 10.3126 10.2227 10.3655 10.1869C10.4185 10.1511 10.4597 10.1004 10.4839 10.0413C10.508 9.98207 10.5141 9.91706 10.5014 9.85442C10.4886 9.79178 10.4576 9.73432 10.4122 9.68931C10.3668 9.6443 10.3091 9.61374 10.2463 9.60151C10.1836 9.58928 10.1186 9.59592 10.0597 9.62059C10.0007 9.64525 9.95035 9.68685 9.915 9.74011C9.87965 9.79337 9.86088 9.85591 9.86106 9.91984C9.86118 9.96239 9.86969 10.0045 9.88611 10.0437C9.90252 10.083 9.92653 10.1186 9.95674 10.1486C9.98695 10.1785 10.0228 10.2022 10.0622 10.2183C10.1015 10.2344 10.1437 10.2426 10.1863 10.2423Z" fill="white"/>
<path d="M9.40996 10.4016C9.34929 10.4424 9.27792 10.4642 9.20486 10.4644C9.15626 10.4644 9.10812 10.4549 9.06319 10.4364C9.01826 10.4179 8.97742 10.3907 8.94301 10.3563C8.90861 10.322 8.8813 10.2813 8.86265 10.2364C8.84401 10.1915 8.83439 10.1434 8.83435 10.0948C8.83435 10.0217 8.85601 9.95028 8.89658 9.88951C8.93715 9.82875 8.99483 9.78138 9.06231 9.75338C9.1298 9.72538 9.20407 9.718 9.27574 9.73219C9.34741 9.74638 9.41327 9.78149 9.46499 9.83309C9.51672 9.8847 9.55199 9.95047 9.56636 10.0221C9.58072 10.0937 9.57353 10.168 9.54569 10.2356C9.51786 10.3031 9.47062 10.3609 9.40996 10.4016Z" fill="white"/>
<path d="M8.13061 10.9907C8.21643 10.9905 8.30028 10.9649 8.37155 10.9171C8.44282 10.8692 8.49832 10.8014 8.53104 10.722C8.56376 10.6427 8.57222 10.5555 8.55537 10.4713C8.53852 10.3872 8.4971 10.3099 8.43636 10.2493C8.37561 10.1886 8.29826 10.1474 8.21407 10.1307C8.12989 10.114 8.04265 10.1227 7.96338 10.1556C7.88411 10.1885 7.81636 10.2441 7.7687 10.3155C7.72104 10.3868 7.69561 10.4707 7.69561 10.5565C7.69576 10.6718 7.74167 10.7822 7.82325 10.8636C7.90482 10.9451 8.01537 10.9907 8.13061 10.9907Z" fill="white"/>
<path d="M7.30663 11.7893C7.22173 11.8463 7.12185 11.8769 7.01961 11.8771C6.95161 11.8772 6.88426 11.8639 6.82141 11.8379C6.75855 11.812 6.70143 11.7739 6.65329 11.7259C6.60515 11.6778 6.56694 11.6208 6.54085 11.558C6.51475 11.4952 6.50128 11.4279 6.5012 11.3599C6.5012 11.2576 6.53151 11.1577 6.58828 11.0727C6.64506 10.9876 6.72577 10.9213 6.82021 10.8822C6.91465 10.843 7.01858 10.8327 7.11887 10.8525C7.21917 10.8724 7.31133 10.9215 7.38371 10.9937C7.45609 11.0659 7.50545 11.158 7.52554 11.2582C7.54563 11.3585 7.53556 11.4624 7.4966 11.557C7.45763 11.6515 7.39153 11.7324 7.30663 11.7893Z" fill="white"/>
<path d="M7.69592 9.91012C7.78173 9.90989 7.86554 9.88423 7.93677 9.83638C8.008 9.78854 8.06346 9.72065 8.09613 9.64131C8.1288 9.56197 8.13723 9.47472 8.12034 9.39059C8.10346 9.30646 8.06202 9.22922 8.00126 9.16863C7.9405 9.10804 7.86315 9.06681 7.77897 9.05016C7.69479 9.03351 7.60757 9.04217 7.52832 9.07507C7.44906 9.10796 7.38134 9.1636 7.33369 9.23496C7.28604 9.30632 7.26061 9.39021 7.26061 9.47601C7.26069 9.5331 7.27201 9.58961 7.29393 9.64233C7.31585 9.69504 7.34794 9.74291 7.38836 9.78323C7.42878 9.82354 7.47675 9.85549 7.52952 9.87726C7.58229 9.89904 7.63883 9.9102 7.69592 9.91012Z" fill="white"/>
<path d="M8.97475 9.32126C8.91404 9.36195 8.84264 9.38372 8.76957 9.38384C8.67148 9.38384 8.57741 9.34492 8.508 9.27562C8.43859 9.20633 8.39952 9.11232 8.39936 9.01423C8.39936 8.94116 8.42102 8.86972 8.46161 8.80895C8.50219 8.74819 8.55988 8.70081 8.62739 8.67282C8.69489 8.64483 8.76917 8.63747 8.84085 8.65169C8.91253 8.6659 8.97839 8.70104 9.03011 8.75267C9.08182 8.8043 9.11707 8.8701 9.1314 8.94176C9.14573 9.01342 9.13849 9.08771 9.11061 9.15526C9.08273 9.22281 9.03545 9.28058 8.97475 9.32126Z" fill="white"/>
<path d="M8.61229 8.40474C8.68534 8.40444 8.75666 8.3825 8.81725 8.3417C8.87784 8.30089 8.92498 8.24305 8.95272 8.17547C8.98045 8.10789 8.98754 8.0336 8.97309 7.962C8.95863 7.89039 8.92328 7.82467 8.8715 7.77314C8.81972 7.72162 8.75384 7.68659 8.68216 7.67248C8.61048 7.65837 8.53624 7.66582 8.46879 7.69389C8.40135 7.72195 8.34373 7.76937 8.30322 7.83016C8.26271 7.89095 8.24112 7.96238 8.24118 8.03543C8.24122 8.08407 8.25086 8.13222 8.26954 8.17713C8.28823 8.22203 8.31559 8.26281 8.35007 8.29712C8.38455 8.33143 8.42546 8.35859 8.47045 8.37706C8.51545 8.39553 8.56365 8.40493 8.61229 8.40474Z" fill="white"/>
<path d="M9.77312 8.12812C9.72004 8.16378 9.65759 8.1829 9.59365 8.18308C9.55115 8.18316 9.50904 8.17487 9.46973 8.15867C9.43043 8.14248 9.3947 8.1187 9.36458 8.0887C9.33447 8.05869 9.31056 8.02305 9.29422 7.98381C9.27788 7.94456 9.26943 7.90249 9.26935 7.85998C9.26929 7.79604 9.28818 7.73352 9.32364 7.68031C9.3591 7.62711 9.40954 7.58561 9.46858 7.56106C9.52761 7.53651 9.5926 7.53001 9.65533 7.54238C9.71806 7.55475 9.77572 7.58544 9.82101 7.63057C9.86631 7.6757 9.89721 7.73324 9.90981 7.79592C9.92242 7.85861 9.91616 7.92362 9.89183 7.98275C9.8675 8.04187 9.82619 8.09246 9.77312 8.12812Z" fill="white"/>
<path d="M10.4362 8.18332C10.491 8.1832 10.5445 8.16684 10.59 8.13631C10.6355 8.10578 10.671 8.06244 10.6919 8.01178C10.7127 7.96112 10.7182 7.9054 10.7074 7.85167C10.6966 7.79793 10.6702 7.7486 10.6314 7.70989C10.5926 7.67118 10.5432 7.64484 10.4894 7.63419C10.4357 7.62354 10.38 7.62907 10.3294 7.65007C10.2787 7.67106 10.2355 7.7066 10.2051 7.75217C10.1746 7.79774 10.1584 7.85131 10.1584 7.90611C10.1585 7.97969 10.1879 8.05019 10.24 8.10216C10.292 8.15413 10.3626 8.18332 10.4362 8.18332Z" fill="white"/>
<path d="M10.7475 9.11466C10.702 9.14521 10.6484 9.16157 10.5936 9.16169C10.5201 9.16177 10.4495 9.13265 10.3974 9.08073C10.3453 9.02881 10.316 8.95833 10.3158 8.88478C10.3158 8.82997 10.332 8.77637 10.3624 8.73076C10.3928 8.68515 10.436 8.64957 10.4866 8.62852C10.5372 8.60748 10.5929 8.60191 10.6467 8.61253C10.7005 8.62314 10.7499 8.64946 10.7887 8.68815C10.8275 8.72685 10.854 8.77619 10.8648 8.82993C10.8756 8.88367 10.8702 8.9394 10.8493 8.99008C10.8285 9.04076 10.793 9.08412 10.7475 9.11466Z" fill="white"/>
<path d="M9.75183 9.17134C9.81576 9.17116 9.8782 9.15204 9.93126 9.1164C9.98433 9.08075 10.0256 9.03018 10.05 8.97107C10.0743 8.91196 10.0806 8.84697 10.068 8.78429C10.0554 8.72161 10.0246 8.66407 9.9793 8.61893C9.93403 8.57379 9.87641 8.54308 9.8137 8.53068C9.75099 8.51827 9.68601 8.52473 9.62697 8.54923C9.56792 8.57374 9.51747 8.61519 9.48197 8.66835C9.44647 8.72152 9.42753 8.78401 9.42753 8.84793C9.42757 8.89047 9.43599 8.93258 9.45231 8.97186C9.46863 9.01114 9.49254 9.04681 9.52266 9.07685C9.55278 9.10688 9.58852 9.13069 9.62784 9.1469C9.66717 9.16311 9.7093 9.17142 9.75183 9.17134Z" fill="white"/>
<path d="M8.92709 11.5997C8.89984 11.618 8.86777 11.6279 8.83492 11.628C8.79079 11.628 8.74845 11.6105 8.71719 11.5794C8.68592 11.5482 8.66828 11.5059 8.66812 11.4618C8.66812 11.429 8.67785 11.3969 8.69609 11.3695C8.71432 11.3422 8.74025 11.3209 8.77058 11.3083C8.80092 11.2957 8.8343 11.2924 8.86653 11.2988C8.89875 11.3051 8.92837 11.3209 8.95163 11.3441C8.9749 11.3673 8.99078 11.3968 8.99726 11.429C9.00374 11.4612 9.00053 11.4946 8.98804 11.525C8.97556 11.5554 8.95435 11.5814 8.92709 11.5997Z" fill="white"/>
<path d="M9.50118 11.5447C9.54131 11.5446 9.58049 11.5325 9.61377 11.5101C9.64705 11.4876 9.67295 11.4559 9.68818 11.4187C9.70342 11.3816 9.70731 11.3408 9.69937 11.3015C9.69143 11.2621 9.67202 11.226 9.64358 11.1977C9.61514 11.1694 9.57895 11.1501 9.53957 11.1424C9.5002 11.1346 9.45941 11.1387 9.42235 11.1541C9.38529 11.1695 9.35362 11.1955 9.33134 11.2289C9.30907 11.2623 9.29718 11.3015 9.29718 11.3416C9.29721 11.3684 9.30253 11.3948 9.3128 11.4195C9.32308 11.4442 9.33812 11.4666 9.35707 11.4855C9.37602 11.5043 9.3985 11.5193 9.42323 11.5294C9.44795 11.5396 9.47444 11.5448 9.50118 11.5447Z" fill="white"/>
<path d="M10.3612 11.2286C10.3233 11.254 10.2786 11.2676 10.233 11.2677C10.1717 11.2677 10.1129 11.2434 10.0695 11.2001C10.0261 11.1567 10.0017 11.098 10.0017 11.0367C10.0017 10.991 10.0152 10.9464 10.0406 10.9084C10.0659 10.8704 10.102 10.8408 10.1442 10.8233C10.1864 10.8058 10.2328 10.8012 10.2776 10.8101C10.3224 10.819 10.3636 10.841 10.3959 10.8732C10.4282 10.9055 10.4502 10.9466 10.4592 10.9914C10.4681 11.0362 10.4636 11.0827 10.4462 11.1249C10.4287 11.1671 10.3992 11.2032 10.3612 11.2286Z" fill="white"/>
<path d="M10.4088 12.0067C10.4636 12.0067 10.5172 11.9904 10.5627 11.9599C10.6083 11.9294 10.6437 11.8861 10.6647 11.8354C10.6856 11.7847 10.6911 11.729 10.6803 11.6753C10.6696 11.6215 10.6432 11.5721 10.6044 11.5334C10.5656 11.4947 10.5162 11.4683 10.4625 11.4576C10.4087 11.447 10.353 11.4525 10.3023 11.4734C10.2517 11.4944 10.2084 11.53 10.178 11.5755C10.1475 11.6211 10.1313 11.6747 10.1313 11.7295C10.1314 11.803 10.1607 11.8735 10.2128 11.9255C10.2648 11.9774 10.3353 12.0067 10.4088 12.0067Z" fill="white"/>
<path d="M9.64795 12.1429C9.61 12.1683 9.56537 12.1819 9.51969 12.182C9.4584 12.182 9.39961 12.1577 9.35624 12.1143C9.31287 12.071 9.28847 12.0123 9.28839 11.951C9.28839 11.9053 9.30193 11.8607 9.3273 11.8227C9.35267 11.7847 9.38873 11.7551 9.43092 11.7376C9.47311 11.7201 9.51955 11.7155 9.56435 11.7244C9.60915 11.7333 9.65031 11.7553 9.68263 11.7875C9.71495 11.8198 9.73697 11.8609 9.74592 11.9057C9.75487 11.9505 9.75034 11.997 9.7329 12.0392C9.71546 12.0814 9.6859 12.1175 9.64795 12.1429Z" fill="white"/>
<path d="M8.73268 12.1727C8.77283 12.1726 8.81204 12.1606 8.84536 12.1382C8.87868 12.1158 8.90462 12.084 8.9199 12.0469C8.93518 12.0098 8.93912 11.969 8.93121 11.9296C8.92331 11.8902 8.90392 11.8541 8.87549 11.8258C8.84706 11.7974 8.81087 11.7781 8.77149 11.7703C8.7321 11.7626 8.6913 11.7666 8.65422 11.782C8.61714 11.7974 8.58546 11.8234 8.56317 11.8568C8.54088 11.8902 8.52898 11.9294 8.52898 11.9696C8.52902 11.9963 8.53432 12.0227 8.54458 12.0474C8.55484 12.0721 8.56985 12.0945 8.58877 12.1133C8.60768 12.1322 8.63013 12.1471 8.65482 12.1573C8.67951 12.1675 8.70597 12.1727 8.73268 12.1727Z" fill="white"/>
<path d="M8.87045 12.7711C8.83254 12.7965 8.78794 12.8102 8.74228 12.8103C8.7119 12.8104 8.68181 12.8044 8.65374 12.7928C8.62566 12.7812 8.60014 12.7642 8.57863 12.7428C8.55712 12.7213 8.54005 12.6958 8.52839 12.6678C8.51673 12.6398 8.51071 12.6097 8.51067 12.5793C8.51067 12.5336 8.5242 12.489 8.54956 12.451C8.57492 12.4131 8.61096 12.3834 8.65314 12.3659C8.69531 12.3484 8.74173 12.3438 8.78652 12.3527C8.83132 12.3616 8.87248 12.3835 8.90481 12.4158C8.93714 12.448 8.95919 12.4891 8.96817 12.5339C8.97715 12.5786 8.97266 12.6251 8.95527 12.6673C8.93788 12.7095 8.90836 12.7456 8.87045 12.7711Z" fill="white"/>
<path d="M9.68629 12.9302C9.74109 12.9301 9.79463 12.9137 9.84014 12.8832C9.88564 12.8526 9.92108 12.8093 9.94197 12.7586C9.96286 12.708 9.96826 12.6523 9.9575 12.5985C9.94673 12.5448 9.92029 12.4955 9.88149 12.4567C9.8427 12.418 9.79331 12.3917 9.73955 12.381C9.6858 12.3704 9.63009 12.3759 9.57947 12.3969C9.52885 12.4179 9.4856 12.4535 9.45516 12.499C9.42473 12.5446 9.40849 12.5982 9.40849 12.653C9.40853 12.6894 9.41574 12.7255 9.42973 12.7591C9.44371 12.7928 9.46418 12.8234 9.48998 12.8491C9.51578 12.8749 9.54639 12.8953 9.58007 12.9092C9.61376 12.9231 9.64985 12.9302 9.68629 12.9302Z" fill="white"/>
<path d="M10.9678 12.7556C10.9146 12.7911 10.8521 12.8101 10.7882 12.8102C10.7024 12.8101 10.6202 12.776 10.5595 12.7154C10.4988 12.6548 10.4646 12.5726 10.4645 12.4868C10.4645 12.4228 10.4834 12.3603 10.519 12.3072C10.5545 12.254 10.605 12.2125 10.6641 12.188C10.7231 12.1636 10.7881 12.1571 10.8509 12.1696C10.9136 12.182 10.9712 12.2128 11.0165 12.258C11.0617 12.3032 11.0925 12.3608 11.105 12.4235C11.1176 12.4862 11.1112 12.5513 11.0868 12.6104C11.0623 12.6695 11.0209 12.72 10.9678 12.7556Z" fill="white"/>
<path d="M11.437 13.6137C11.51 13.6135 11.5814 13.5917 11.6421 13.5509C11.7028 13.5102 11.75 13.4524 11.7778 13.3848C11.8056 13.3173 11.8128 13.243 11.7984 13.1713C11.784 13.0997 11.7487 13.0339 11.697 12.9823C11.6452 12.9307 11.5793 12.8956 11.5076 12.8815C11.436 12.8673 11.3617 12.8747 11.2942 12.9028C11.2267 12.9308 11.1691 12.9782 11.1285 13.039C11.088 13.0998 11.0664 13.1713 11.0664 13.2444C11.0665 13.293 11.0762 13.341 11.0948 13.3859C11.1135 13.4307 11.1408 13.4715 11.1752 13.5058C11.2096 13.5401 11.2504 13.5672 11.2954 13.5858C11.3403 13.6043 11.3884 13.6138 11.437 13.6137Z" fill="white"/>
<path d="M10.2544 13.6699C10.2013 13.7055 10.1388 13.7244 10.0749 13.7245C10.0323 13.7245 9.99019 13.716 9.95088 13.6997C9.91156 13.6834 9.87585 13.6594 9.84579 13.6293C9.81573 13.5991 9.7919 13.5634 9.77567 13.524C9.75944 13.4846 9.75113 13.4425 9.75121 13.3999C9.75145 13.336 9.77061 13.2736 9.80628 13.2206C9.84194 13.1676 9.89252 13.1263 9.95162 13.102C10.0107 13.0777 10.0757 13.0714 10.1383 13.084C10.201 13.0966 10.2585 13.1275 10.3036 13.1727C10.3487 13.218 10.3794 13.2756 10.3919 13.3383C10.4043 13.4009 10.3978 13.4659 10.3734 13.5249C10.3489 13.584 10.3075 13.6344 10.2544 13.6699Z" fill="white"/>
<path d="M9.30659 14.3525C9.37055 14.3523 9.43303 14.3331 9.48611 14.2975C9.5392 14.2618 9.58051 14.2111 9.60482 14.152C9.62913 14.0928 9.63536 14.0278 9.6227 13.9651C9.61005 13.9024 9.57909 13.8448 9.53373 13.7997C9.48838 13.7546 9.43067 13.724 9.3679 13.7117C9.30513 13.6994 9.24012 13.706 9.18109 13.7306C9.12207 13.7553 9.07167 13.7968 9.03629 13.8501C9.0009 13.9034 8.9821 13.966 8.98228 14.03C8.9826 14.1157 9.01693 14.1978 9.07773 14.2583C9.13853 14.3188 9.22084 14.3526 9.30659 14.3525Z" fill="white"/>
<path d="M10.1509 15.1025C10.0902 15.1432 10.0188 15.165 9.94566 15.1651C9.84761 15.1652 9.75354 15.1263 9.68412 15.0571C9.6147 14.9878 9.57561 14.8938 9.57545 14.7958C9.5754 14.7227 9.59701 14.6512 9.63756 14.5904C9.67811 14.5296 9.73578 14.4822 9.80327 14.4542C9.87077 14.4261 9.94506 14.4187 10.0168 14.4329C10.0885 14.4471 10.1544 14.4822 10.2061 14.5338C10.2578 14.5854 10.2931 14.6512 10.3075 14.7229C10.3218 14.7946 10.3146 14.8689 10.2867 14.9364C10.2589 15.004 10.2116 15.0618 10.1509 15.1025Z" fill="white"/>
<path d="M11.6497 15.3131C11.7355 15.3129 11.8193 15.2872 11.8905 15.2394C11.9618 15.1915 12.0172 15.1237 12.0499 15.0443C12.0826 14.965 12.091 14.8777 12.0741 14.7936C12.0572 14.7095 12.0158 14.6322 11.955 14.5716C11.8943 14.5111 11.8169 14.4698 11.7327 14.4532C11.6486 14.4365 11.5613 14.4452 11.4821 14.4781C11.4028 14.511 11.3351 14.5666 11.2875 14.638C11.2398 14.7093 11.2144 14.7932 11.2144 14.879C11.2144 14.9361 11.2257 14.9927 11.2476 15.0454C11.2695 15.0981 11.3016 15.146 11.342 15.1863C11.3825 15.2266 11.4304 15.2586 11.4832 15.2804C11.536 15.3021 11.5926 15.3133 11.6497 15.3131Z" fill="white"/>
<path d="M10.9193 14.4744C10.8586 14.5151 10.7872 14.537 10.7142 14.5371C10.6656 14.5372 10.6175 14.5277 10.5726 14.5092C10.5276 14.4907 10.4868 14.4635 10.4524 14.4292C10.418 14.3949 10.3907 14.3542 10.372 14.3093C10.3534 14.2645 10.3437 14.2164 10.3437 14.1678C10.3436 14.0948 10.3652 14.0233 10.4057 13.9625C10.4463 13.9017 10.5039 13.8543 10.5714 13.8262C10.6389 13.7982 10.7132 13.7908 10.7849 13.8049C10.8565 13.8191 10.9224 13.8542 10.9742 13.9058C11.0259 13.9573 11.0612 14.0231 11.0756 14.0948C11.09 14.1664 11.0828 14.2407 11.055 14.3083C11.0272 14.3758 10.98 14.4337 10.9193 14.4744Z" fill="white"/>
<path d="M12.3627 14.3901C12.4485 14.3899 12.5323 14.3643 12.6036 14.3165C12.6749 14.2686 12.7304 14.2008 12.7631 14.1214C12.7958 14.0421 12.8043 13.9549 12.7874 13.8707C12.7706 13.7866 12.7291 13.7093 12.6684 13.6487C12.6077 13.588 12.5303 13.5468 12.4461 13.5301C12.3619 13.5134 12.2747 13.5221 12.1954 13.555C12.1162 13.5879 12.0484 13.6435 12.0007 13.7149C11.9531 13.7862 11.9276 13.8701 11.9276 13.9559C11.9277 14.013 11.939 14.0695 11.9609 14.1222C11.9827 14.1749 12.0148 14.2228 12.0552 14.2631C12.0956 14.3035 12.1435 14.3354 12.1963 14.3572C12.2491 14.379 12.3056 14.3901 12.3627 14.3901Z" fill="white"/>
<path d="M9.07216 13.5113C9.02669 13.5419 8.97318 13.5583 8.9184 13.5585C8.88193 13.5586 8.8458 13.5515 8.81208 13.5376C8.77837 13.5237 8.74772 13.5033 8.72189 13.4775C8.69606 13.4518 8.67556 13.4212 8.66156 13.3875C8.64756 13.3539 8.64033 13.3178 8.64029 13.2813C8.64029 13.2265 8.65653 13.173 8.68695 13.1274C8.71737 13.0818 8.76061 13.0463 8.81121 13.0253C8.86181 13.0043 8.9175 12.9987 8.97125 13.0094C9.02499 13.02 9.07439 13.0463 9.11319 13.085C9.152 13.1236 9.17847 13.173 9.18927 13.2267C9.20006 13.2804 9.1947 13.3361 9.17386 13.3868C9.15301 13.4374 9.11762 13.4808 9.07216 13.5113Z" fill="white"/>
</g>
</g>
<g id="currencies / currency-usd">
<g id="logo_2">
<path d="M12.019 20.4375C12.0075 20.6235 12.0017 20.8111 12.0017 21C12.0017 21.3809 12.0254 21.7563 12.0713 22.1248H29.9301C29.976 21.7563 29.9997 21.3809 29.9997 21C29.9997 20.8111 29.9938 20.6235 29.9824 20.4375H12.019Z" fill="white"/>
<path d="M21.0007 17.0629V18.7502H29.7162C29.5649 18.1624 29.3557 17.5978 29.095 17.0629H21.0007Z" fill="white"/>
<path d="M21.0007 15.3756H28.0259C27.5131 14.7358 26.9146 14.1676 26.2479 13.6883H21.0007V15.3756Z" fill="white"/>
<path d="M12.4498 23.8121C12.6444 24.4041 12.8987 24.9689 13.2056 25.4995H28.7958C29.1027 24.9689 29.357 24.4041 29.5516 23.8121H12.4498Z" fill="white"/>
<path d="M14.4657 27.1868C15.0978 27.8541 15.831 28.4247 16.6407 28.8741H25.3607C26.1704 28.4247 26.9036 27.8541 27.5357 27.1868H14.4657Z" fill="white"/>
<path d="M21.0008 12.001L21.0007 13.6883H26.2479C24.7708 12.6264 22.9589 12.001 21.0008 12.001Z" fill="#F44336"/>
<path d="M21.0008 20.4375H29.9824C29.9467 19.8586 29.8563 19.2944 29.7162 18.7502H21.0007L21.0008 20.4375Z" fill="#F44336"/>
<path d="M21.0007 17.0629H29.095C28.801 16.4596 28.4416 15.8941 28.0259 15.3756H21.0007V17.0629Z" fill="#F44336"/>
<path d="M29.9301 22.1248C29.8576 22.7063 29.7296 23.2706 29.5516 23.8121H12.4498C12.2718 23.2706 12.1438 22.7063 12.0713 22.1248H29.9301Z" fill="#F44336"/>
<path d="M13.2056 25.4995C13.5594 26.111 13.9831 26.6771 14.4657 27.1868H27.5357C28.0183 26.6771 28.442 26.111 28.7958 25.4995H13.2056Z" fill="#F44336"/>
<path d="M21.0008 29.9989C22.5827 29.9989 24.069 29.5908 25.3607 28.8741H16.6407C17.9324 29.5908 19.419 29.9989 21.0008 29.9989Z" fill="#F44336"/>
<path fill-rule="evenodd" clip-rule="evenodd" d="M21.0008 20.4375H12.019C12.0375 20.1381 12.0706 19.8426 12.1176 19.5518C12.1155 19.5647 12.1136 19.5774 12.1115 19.5904C12.1171 19.5891 12.1225 19.5868 12.1274 19.5834C12.1434 19.5721 12.1501 19.5517 12.1438 19.5331L12.1286 19.4856C12.1512 19.3523 12.1767 19.22 12.2051 19.0888C12.2045 19.0918 12.2038 19.0948 12.2031 19.0978L12.3122 19.0175C12.3269 19.0057 12.3327 18.9859 12.3267 18.968C12.3206 18.9501 12.304 18.9379 12.2851 18.9374H12.2392C12.3991 18.2557 12.6364 17.6038 12.9416 16.9916C12.9383 16.9981 12.935 17.0047 12.9318 17.0112L13.0807 16.9045L13.3506 17.098C13.3581 17.104 13.367 17.1072 13.376 17.1076C13.3856 17.1081 13.3952 17.1054 13.4035 17.0997C13.4103 17.0949 13.4154 17.0885 13.4185 17.0813C13.4228 17.0715 13.4235 17.0601 13.4199 17.0494L13.3182 16.7326L13.5882 16.5338C13.6029 16.522 13.6088 16.5022 13.6027 16.4843C13.5967 16.4664 13.5801 16.4542 13.5612 16.4537H13.2329C13.8697 15.368 14.7275 14.4278 15.7446 13.6947L15.9027 13.808C15.9088 13.8128 15.9159 13.8159 15.9232 13.8171C15.9282 13.8179 15.9333 13.8178 15.9384 13.8169C15.9425 13.8161 15.9464 13.8148 15.9502 13.8129L15.9531 13.8112L15.9556 13.8096C15.9716 13.7984 15.9783 13.7779 15.972 13.7594L15.9132 13.5761C17.3603 12.5824 19.1127 12.001 21.0008 12.001V20.4375ZM19.6031 12.3591L19.5229 12.1217C19.4778 12.1292 19.4329 12.137 19.3882 12.1451L19.3152 12.3609H18.9831C18.977 12.3611 18.9713 12.3624 18.966 12.3648L18.961 12.3674L18.9588 12.3688C18.9509 12.3742 18.9448 12.3821 18.9416 12.3915C18.9356 12.4095 18.9413 12.4292 18.9561 12.441L19.2261 12.6399L19.1154 12.9549C19.1104 12.9732 19.1174 12.9926 19.133 13.0035C19.1419 13.0098 19.1527 13.0124 19.1632 13.0114C19.1707 13.0107 19.1781 13.0081 19.1847 13.0035L19.4546 12.81L19.7246 13.0035C19.7297 13.0075 19.7355 13.0103 19.7415 13.0118C19.7537 13.0148 19.7668 13.0126 19.7774 13.0051C19.7935 12.9939 19.8002 12.9734 19.7939 12.9549L19.6922 12.6381L19.9622 12.4392C19.9676 12.4349 19.9718 12.4294 19.9747 12.4234L19.9763 12.4195C19.977 12.4179 19.9774 12.4162 19.9778 12.4145C19.9785 12.4115 19.9789 12.4085 19.979 12.4054C19.9791 12.4002 19.9784 12.3949 19.9767 12.3897C19.9722 12.3765 19.962 12.3664 19.9494 12.3618C19.9449 12.3602 19.9402 12.3593 19.9352 12.3591H19.6031ZM17.2253 13.0051C17.2414 12.9939 17.248 12.9734 17.2418 12.9549L17.2045 12.8385C17.1729 12.8532 17.1416 12.8681 17.1103 12.8831L17.0472 12.9137L17.1725 13.0035C17.1878 13.0157 17.2093 13.0164 17.2253 13.0051ZM19.3152 18.9392L19.4222 18.6224C19.4256 18.605 19.4407 18.5923 19.4584 18.5919C19.4762 18.5915 19.4918 18.6034 19.496 18.6206L19.6031 18.9374H19.9352C19.9464 18.9377 19.9568 18.9421 19.9646 18.9494C19.97 18.9544 19.9742 18.9607 19.9767 18.968C19.9827 18.9859 19.977 19.0057 19.9622 19.0175L19.6922 19.2164L19.7939 19.5331C19.8002 19.5517 19.7935 19.5721 19.7774 19.5834C19.7614 19.5946 19.7399 19.5939 19.7246 19.5817L19.4546 19.3883L19.1847 19.5817C19.1822 19.5834 19.1797 19.5849 19.177 19.586L19.1739 19.5873L19.1692 19.5887C19.1652 19.5897 19.161 19.5901 19.1569 19.5899C19.1546 19.5898 19.1523 19.5895 19.15 19.5891C19.144 19.5879 19.1382 19.5854 19.133 19.5818C19.1306 19.5801 19.1285 19.5783 19.1266 19.5764C19.1245 19.5742 19.1226 19.5719 19.121 19.5694L19.1196 19.5671L19.1185 19.565L19.1169 19.5615C19.1135 19.5527 19.1128 19.5427 19.1154 19.5331L19.2261 19.2182L18.9561 19.0193C18.9467 19.0118 18.9409 19.001 18.9395 18.9895C18.9388 18.983 18.9394 18.9763 18.9416 18.9698C18.9439 18.9628 18.9479 18.9566 18.953 18.9517C18.9549 18.9499 18.9571 18.9482 18.9593 18.9467L18.963 18.9445L18.9657 18.9431L18.9682 18.9421L18.9731 18.9406C18.9763 18.9398 18.9796 18.9393 18.9831 18.9392H19.3152ZM16.9439 18.6206C16.9396 18.6034 16.9241 18.5915 16.9063 18.5919C16.8886 18.5923 16.8735 18.605 16.8701 18.6224L16.7631 18.9392H16.431C16.4121 18.9397 16.3955 18.9519 16.3895 18.9698C16.3835 18.9877 16.3892 19.0075 16.404 19.0193L16.6739 19.2182L16.5633 19.5331C16.56 19.5453 16.562 19.5579 16.5682 19.5683L16.5709 19.5722L16.5734 19.5752C16.5756 19.5776 16.5781 19.5798 16.5808 19.5818C16.5964 19.5926 16.617 19.5926 16.6325 19.5817L16.9025 19.3883L17.1725 19.5817C17.1784 19.5865 17.1852 19.5895 17.1924 19.5907L17.1964 19.5912L17.1994 19.5914C17.2015 19.5914 17.2036 19.5913 17.2056 19.591C17.2125 19.5901 17.2193 19.5876 17.2253 19.5834C17.2414 19.5721 17.248 19.5517 17.2418 19.5331L17.1401 19.2164L17.4101 19.0175C17.412 19.016 17.4137 19.0143 17.4153 19.0126C17.4166 19.0112 17.4178 19.0097 17.4189 19.0082L17.4213 19.0041C17.4223 19.0023 17.4232 19.0005 17.4239 18.9986C17.425 18.9958 17.4257 18.993 17.4263 18.9901C17.4268 18.9869 17.427 18.9836 17.4269 18.9803L17.4265 18.9764L17.4258 18.9725L17.4246 18.968C17.4185 18.9501 17.402 18.9379 17.3831 18.9374H17.051L16.9439 18.6206ZM14.3981 18.6206L14.5052 18.9374H14.8372C14.8561 18.9379 14.8727 18.9501 14.8788 18.968C14.8817 18.9765 14.8819 18.9855 14.8797 18.9937C14.8773 19.0029 14.872 19.0113 14.8643 19.0175L14.5943 19.2164L14.6959 19.5331C14.6967 19.5354 14.6973 19.5377 14.6977 19.54L14.6981 19.5442L14.6983 19.5492C14.6981 19.5535 14.6972 19.5578 14.6957 19.5619C14.6928 19.5704 14.6872 19.578 14.6795 19.5834C14.6635 19.5946 14.642 19.5939 14.6267 19.5817L14.3567 19.3883L14.0867 19.5817C14.0712 19.5926 14.0506 19.5926 14.035 19.5818C14.0251 19.5748 14.0186 19.5642 14.0166 19.5528C14.0161 19.55 14.0159 19.5473 14.0159 19.5445C14.0159 19.5422 14.0161 19.5398 14.0165 19.5374L14.0175 19.5331L14.1281 19.2182L13.8582 19.0193C13.8521 19.0144 13.8475 19.0082 13.8447 19.0013C13.8427 18.9964 13.8415 18.9911 13.8413 18.9858C13.8412 18.9805 13.8419 18.9751 13.8437 18.9698C13.8473 18.9589 13.855 18.95 13.8646 18.9447C13.8708 18.9413 13.8778 18.9394 13.8852 18.9392H14.2182L14.3252 18.6224C14.3261 18.5774 14.3855 18.5774 14.3981 18.6206ZM18.22 17.7837C18.22 17.7689 18.2121 17.7553 18.1993 17.7479C18.1926 17.744 18.1851 17.7422 18.1776 17.7423C18.1708 17.7425 18.164 17.7444 18.1579 17.7479C18.1525 17.751 18.1481 17.7551 18.1446 17.76C18.143 17.7623 18.1416 17.7647 18.1405 17.7673C18.1383 17.7724 18.1372 17.778 18.1372 17.7837L18.0301 18.1005H17.698C17.6791 18.101 17.6626 18.1132 17.6566 18.1311C17.6505 18.149 17.6563 18.1688 17.671 18.1806L17.941 18.3795L17.8393 18.6962C17.837 18.7049 17.8373 18.7138 17.8399 18.7219C17.8429 18.731 17.8487 18.7391 17.8569 18.7448C17.8724 18.7557 17.8931 18.7557 17.9086 18.7448L18.1786 18.5513L18.4486 18.7448C18.4638 18.757 18.4854 18.7577 18.5014 18.7465C18.5174 18.7352 18.5241 18.7148 18.5179 18.6962L18.4162 18.3795L18.6861 18.1806C18.7009 18.1688 18.7067 18.149 18.7006 18.1311C18.6978 18.1228 18.6928 18.1158 18.6863 18.1105C18.6788 18.1044 18.6693 18.1007 18.6592 18.1005H18.3271L18.22 17.7837ZM15.6742 17.7837L15.7813 18.1005H16.1133C16.1322 18.101 16.1488 18.1132 16.1548 18.1311C16.1609 18.149 16.155 18.1688 16.1403 18.1806L15.8703 18.3795L15.972 18.6962C15.9783 18.7148 15.9716 18.7352 15.9556 18.7465C15.948 18.7518 15.9392 18.7544 15.9304 18.7545C15.9257 18.7545 15.9209 18.7537 15.9164 18.7522C15.9115 18.7506 15.9069 18.7481 15.9027 18.7448L15.6328 18.5513L15.3628 18.7448C15.3473 18.7557 15.3266 18.7557 15.3111 18.7448C15.2956 18.734 15.2885 18.7145 15.2935 18.6962L15.3952 18.3795L15.1253 18.1806C15.1105 18.1688 15.1047 18.149 15.1107 18.1311C15.1167 18.1132 15.1334 18.101 15.1522 18.1005H15.4843L15.5914 17.7837C15.6021 17.7405 15.6616 17.7405 15.6742 17.7837ZM13.2292 18.1005L13.1221 17.7837C13.1094 17.7405 13.05 17.7405 13.0491 17.7837L12.9421 18.1005H12.6001C12.5967 18.1006 12.5933 18.1011 12.59 18.1019C12.5856 18.103 12.5815 18.1048 12.5777 18.1072C12.5689 18.1126 12.562 18.1209 12.5586 18.1311C12.5526 18.149 12.5584 18.1688 12.5731 18.1806L12.8431 18.3795L12.7414 18.6962C12.7364 18.7145 12.7435 18.734 12.759 18.7448C12.7659 18.7497 12.7739 18.7524 12.7819 18.7529C12.7919 18.7535 12.8021 18.7508 12.8107 18.7448L13.0807 18.5513L13.3506 18.7448C13.3659 18.757 13.3874 18.7577 13.4035 18.7465C13.4195 18.7352 13.4262 18.7148 13.4199 18.6962L13.3182 18.3795L13.5882 18.1806C13.6029 18.1688 13.6088 18.149 13.6027 18.1311C13.5967 18.1132 13.5801 18.101 13.5612 18.1005H13.2292ZM19.496 16.9729L19.6031 17.2897H19.9352C19.9541 17.2902 19.9706 17.3024 19.9767 17.3203C19.9791 17.3275 19.9796 17.335 19.9784 17.3422C19.9766 17.3528 19.971 17.3627 19.9622 17.3698L19.6922 17.5686L19.7939 17.8854C19.7971 17.8947 19.7969 17.9044 19.794 17.9133C19.7931 17.9161 19.7919 17.9187 19.7905 17.9213C19.7892 17.9236 19.7876 17.9259 19.7859 17.928C19.7835 17.9308 19.7807 17.9334 19.7774 17.9357C19.7614 17.9469 19.7399 17.9462 19.7246 17.934L19.4546 17.7405L19.1847 17.934C19.1763 17.9398 19.1666 17.9426 19.1569 17.9422C19.1485 17.9418 19.1402 17.9391 19.133 17.934C19.1174 17.9231 19.1104 17.9037 19.1154 17.8854L19.2171 17.5686L18.9471 17.3698C18.9323 17.358 18.9266 17.3382 18.9326 17.3203C18.9362 17.3097 18.9434 17.3011 18.9526 17.2958C18.959 17.292 18.9663 17.2899 18.9741 17.2897H19.3062L19.4132 16.9729C19.4294 16.936 19.4888 16.936 19.496 16.9729ZM17.051 17.2897L16.9439 16.9729C16.9367 16.936 16.8773 16.936 16.8611 16.9729L16.7541 17.2897H16.422C16.4031 17.2902 16.3865 17.3024 16.3805 17.3203C16.3745 17.3382 16.3802 17.358 16.395 17.3698L16.6649 17.5686L16.5633 17.8854C16.5583 17.9037 16.5653 17.9231 16.5808 17.934C16.5964 17.9449 16.617 17.9449 16.6325 17.934L16.9025 17.7405L17.1725 17.934C17.1878 17.9462 17.2093 17.9469 17.2253 17.9357C17.2345 17.9292 17.2406 17.9198 17.243 17.9093C17.2441 17.9049 17.2444 17.9003 17.244 17.8956C17.2437 17.8922 17.243 17.8888 17.2418 17.8854L17.1401 17.5686L17.4101 17.3698C17.4248 17.358 17.4306 17.3382 17.4246 17.3203C17.4211 17.3101 17.4143 17.3018 17.4056 17.2964C17.399 17.2923 17.3913 17.2899 17.3831 17.2897H17.051ZM14.3981 16.9729L14.5052 17.2897H14.8372C14.8561 17.2902 14.8727 17.3024 14.8788 17.3203C14.8848 17.3382 14.879 17.358 14.8643 17.3698L14.5943 17.5686L14.6959 17.8854C14.7023 17.904 14.6955 17.9244 14.6795 17.9357C14.6635 17.9469 14.642 17.9462 14.6267 17.934L14.3567 17.7405L14.0867 17.934C14.0712 17.9449 14.0506 17.9449 14.035 17.934C14.0195 17.9231 14.0125 17.9037 14.0175 17.8854L14.1192 17.5686L13.8492 17.3698C13.8344 17.358 13.8287 17.3382 13.8346 17.3203C13.8407 17.3024 13.8573 17.2902 13.8762 17.2897H14.2182L14.3252 16.9729C14.3261 16.936 14.3855 16.936 14.3981 16.9729ZM18.22 16.1369C18.22 16.1141 18.2014 16.0955 18.1786 16.0955C18.1705 16.0955 18.163 16.0978 18.1566 16.1018L18.1553 16.1026L18.1521 16.1051L18.1494 16.1074L18.1466 16.1105C18.1446 16.113 18.1429 16.1156 18.1415 16.1185C18.1404 16.1208 18.1394 16.1231 18.1387 16.1256C18.1381 16.1278 18.1376 16.13 18.1374 16.1322L18.1372 16.1369L18.0301 16.4537H17.698C17.6791 16.4542 17.6626 16.4664 17.6566 16.4843C17.6505 16.5022 17.6563 16.522 17.671 16.5338L17.941 16.7326L17.8393 17.0494C17.8368 17.0588 17.8374 17.0685 17.8407 17.0772C17.8426 17.0823 17.8456 17.0872 17.8493 17.0913L17.8528 17.0948C17.8541 17.0959 17.8555 17.097 17.8569 17.098C17.8655 17.1041 17.8758 17.1068 17.8859 17.1061C17.8939 17.1055 17.9017 17.1028 17.9086 17.098L18.1786 16.9045L18.4486 17.098C18.453 17.1016 18.4581 17.1042 18.4633 17.1058C18.467 17.1069 18.4707 17.1075 18.4745 17.1076C18.4838 17.108 18.4933 17.1053 18.5014 17.0997C18.5117 17.0925 18.5181 17.0815 18.5197 17.0697C18.5207 17.063 18.5201 17.0561 18.5179 17.0494L18.4162 16.7326L18.6861 16.5338C18.6935 16.5279 18.6986 16.5201 18.7011 16.5115C18.7037 16.5028 18.7036 16.4933 18.7006 16.4843C18.6976 16.4752 18.6918 16.4677 18.6845 16.4623C18.6773 16.457 18.6685 16.4539 18.6592 16.4537H18.3271L18.22 16.1369ZM15.6742 16.1369L15.7813 16.4537H16.1133C16.1322 16.4542 16.1488 16.4664 16.1548 16.4843C16.1609 16.5022 16.155 16.522 16.1403 16.5338L15.8703 16.7326L15.972 17.0494C15.9729 17.052 15.9735 17.0547 15.9738 17.0573C15.9743 17.0606 15.9745 17.064 15.9742 17.0673C15.9738 17.0715 15.9729 17.0757 15.9713 17.0796C15.97 17.0829 15.9683 17.0861 15.9662 17.089C15.9634 17.0931 15.9598 17.0967 15.9556 17.0997C15.9395 17.1109 15.918 17.1102 15.9027 17.098L15.6328 16.9045L15.3628 17.098C15.3473 17.1089 15.3266 17.1089 15.3111 17.098C15.3068 17.095 15.3032 17.0914 15.3003 17.0873C15.2968 17.0824 15.2944 17.0769 15.293 17.0711L15.2922 17.0665L15.2919 17.0612C15.2919 17.0592 15.292 17.0572 15.2923 17.0552C15.2926 17.0533 15.293 17.0513 15.2935 17.0494L15.3952 16.7326L15.1253 16.5338C15.1105 16.522 15.1047 16.5022 15.1107 16.4843C15.1167 16.4664 15.1334 16.4542 15.1522 16.4537H15.4843L15.5914 16.1369C15.6021 16.0937 15.6616 16.0937 15.6742 16.1369ZM19.6031 15.6483L19.496 15.3315C19.4918 15.3143 19.4762 15.3023 19.4584 15.3028C19.4531 15.3029 19.4481 15.3041 19.4436 15.3062C19.4328 15.3112 19.4246 15.3211 19.4222 15.3333L19.3152 15.6501H18.9831C18.9706 15.6504 18.9593 15.6558 18.9512 15.6645C18.947 15.6691 18.9437 15.6745 18.9416 15.6807C18.9393 15.6875 18.9387 15.6947 18.9397 15.7015C18.9413 15.7125 18.947 15.7229 18.9561 15.7302L19.2261 15.929L19.1154 16.244C19.1104 16.2623 19.1174 16.2817 19.133 16.2926C19.1485 16.3035 19.1691 16.3035 19.1847 16.2926L19.4546 16.0991L19.7246 16.2926C19.7399 16.3048 19.7614 16.3055 19.7774 16.2942C19.7935 16.283 19.8002 16.2625 19.7939 16.244L19.6922 15.9272L19.9622 15.7284C19.977 15.7165 19.9827 15.6968 19.9767 15.6789C19.9706 15.661 19.9541 15.6487 19.9352 15.6483H19.6031ZM16.9025 15.2901C16.9133 15.2901 16.9231 15.2942 16.9304 15.301C16.9387 15.3085 16.9439 15.3194 16.9439 15.3315L17.051 15.6483H17.3831C17.402 15.6487 17.4185 15.661 17.4246 15.6789C17.4306 15.6968 17.4248 15.7165 17.4101 15.7284L17.1401 15.9272L17.2418 16.244C17.2448 16.2528 17.2448 16.262 17.2424 16.2705C17.241 16.2752 17.2388 16.2797 17.2359 16.2837L17.2336 16.2867L17.2314 16.2892C17.2295 16.291 17.2275 16.2927 17.2253 16.2942C17.2093 16.3055 17.1878 16.3048 17.1725 16.2926L16.9025 16.0991L16.6325 16.2926C16.617 16.3035 16.5964 16.3035 16.5808 16.2926C16.5653 16.2817 16.5583 16.2623 16.5633 16.244L16.6649 15.9272L16.395 15.7284C16.3802 15.7165 16.3745 15.6968 16.3805 15.6789C16.3865 15.661 16.4031 15.6487 16.422 15.6483H16.7541L16.8611 15.3315C16.8611 15.3086 16.8796 15.2901 16.9025 15.2901ZM14.5052 15.6483L14.3981 15.3315C14.3855 15.2883 14.3261 15.2883 14.3252 15.3315L14.2182 15.6483H13.8762C13.8573 15.6487 13.8407 15.661 13.8346 15.6789C13.8287 15.6968 13.8344 15.7165 13.8492 15.7284L14.1192 15.9272L14.0175 16.244C14.0125 16.2623 14.0195 16.2817 14.035 16.2926C14.0506 16.3035 14.0712 16.3035 14.0867 16.2926L14.3567 16.0991L14.6267 16.2926C14.642 16.3048 14.6635 16.3055 14.6795 16.2942C14.6904 16.2867 14.6969 16.2748 14.6981 16.2622C14.6987 16.2562 14.698 16.25 14.6959 16.244L14.5943 15.9272L14.8643 15.7284C14.879 15.7165 14.8848 15.6968 14.8788 15.6789C14.8727 15.661 14.8561 15.6487 14.8372 15.6483H14.5052ZM15.6742 14.4883L15.7813 14.8051H16.1133C16.1241 14.8053 16.1341 14.8094 16.1419 14.8162C16.1477 14.8214 16.1522 14.828 16.1548 14.8357C16.1609 14.8536 16.155 14.8733 16.1403 14.8852L15.8703 15.084L15.972 15.4008C15.9783 15.4193 15.9716 15.4398 15.9556 15.451C15.9448 15.4586 15.9316 15.4608 15.9194 15.4577C15.9134 15.4562 15.9077 15.4534 15.9027 15.4494L15.6328 15.2559L15.3628 15.4494C15.3541 15.4555 15.3437 15.4582 15.3336 15.4575C15.3257 15.4569 15.3179 15.4542 15.3111 15.4494C15.2956 15.4385 15.2885 15.4191 15.2935 15.4008L15.3952 15.084L15.1253 14.8852C15.1105 14.8733 15.1047 14.8536 15.1107 14.8357C15.1167 14.8178 15.1334 14.8055 15.1522 14.8051H15.4843L15.5914 14.4883C15.6021 14.4514 15.6616 14.4514 15.6742 14.4883ZM18.3271 14.8051L18.22 14.4883C18.2127 14.4514 18.1534 14.4514 18.1372 14.4883L18.0301 14.8051H17.698C17.6791 14.8055 17.6626 14.8178 17.6566 14.8357C17.6505 14.8536 17.6563 14.8733 17.671 14.8852L17.941 15.084L17.8393 15.4008C17.8344 15.4191 17.8414 15.4385 17.8569 15.4494C17.8724 15.4603 17.8931 15.4603 17.9086 15.4494L18.1786 15.2559L18.4486 15.4494C18.4638 15.4616 18.4854 15.4623 18.5014 15.451C18.5174 15.4398 18.5241 15.4193 18.5179 15.4008L18.4162 15.084L18.6861 14.8852C18.7009 14.8733 18.7067 14.8536 18.7006 14.8357C18.6946 14.8178 18.678 14.8055 18.6592 14.8051H18.3271ZM16.9439 13.6838L17.051 14.0006H17.3831C17.3864 14.0006 17.3896 14.0011 17.3927 14.0019C17.3972 14.003 17.4015 14.0048 17.4054 14.0071C17.4142 14.0125 17.4211 14.0209 17.4246 14.0312C17.4306 14.0491 17.4248 14.0688 17.4101 14.0807L17.1401 14.2795L17.2418 14.5963C17.248 14.6148 17.2414 14.6353 17.2253 14.6465C17.2093 14.6578 17.1878 14.6571 17.1725 14.6449L16.9025 14.4514L16.6325 14.6449C16.617 14.6558 16.5964 14.6558 16.5808 14.6449C16.5684 14.6362 16.5614 14.622 16.5617 14.6074C16.5618 14.6052 16.562 14.6031 16.5623 14.601L16.5633 14.5963L16.6649 14.2795L16.395 14.0807C16.3802 14.0688 16.3745 14.0491 16.3805 14.0312C16.3865 14.0133 16.4031 14.001 16.422 14.0006H16.7541L16.8611 13.6838C16.8773 13.6469 16.9367 13.6469 16.9439 13.6838ZM19.6031 14.0006L19.496 13.6838C19.4888 13.6469 19.4294 13.6469 19.4132 13.6838L19.3062 14.0006H18.9741C18.9665 14.0008 18.9593 14.0029 18.9529 14.0065C18.9435 14.0118 18.9362 14.0205 18.9326 14.0312C18.9266 14.0491 18.9323 14.0688 18.9471 14.0807L19.2171 14.2795L19.1154 14.5963C19.1147 14.5988 19.1142 14.6013 19.1139 14.6038C19.1137 14.6061 19.1137 14.6085 19.1139 14.6108C19.1141 14.6146 19.1148 14.6184 19.116 14.622C19.1175 14.6267 19.1198 14.6312 19.1229 14.6352C19.1256 14.6389 19.129 14.6422 19.133 14.6449C19.1485 14.6558 19.1691 14.6558 19.1847 14.6449L19.4546 14.4514L19.7246 14.6449C19.7399 14.6571 19.7614 14.6578 19.7774 14.6465C19.7935 14.6353 19.8002 14.6148 19.7939 14.5963L19.6922 14.2795L19.9622 14.0807C19.9698 14.0745 19.975 14.0663 19.9774 14.0573C19.9797 14.0489 19.9796 14.0398 19.9767 14.0312C19.9706 14.0133 19.9541 14.001 19.9352 14.0006H19.6031ZM18.2127 12.8235C18.2148 12.8266 18.2165 12.8301 18.2178 12.8337C18.2184 12.8354 18.2189 12.8372 18.2192 12.8391C18.2197 12.8416 18.22 12.8442 18.22 12.8469L18.3271 13.1637H18.6592C18.6631 13.1638 18.6669 13.1644 18.6706 13.1654C18.6741 13.1665 18.6775 13.1679 18.6806 13.1698C18.6898 13.1751 18.6971 13.1837 18.7006 13.1943C18.7067 13.2122 18.7009 13.2319 18.6861 13.2437L18.4162 13.4426L18.5179 13.7594C18.522 13.7719 18.5204 13.7853 18.5139 13.7961C18.5127 13.7982 18.5113 13.8002 18.5097 13.8021C18.5073 13.8049 18.5045 13.8074 18.5014 13.8096C18.4854 13.8209 18.4638 13.8202 18.4486 13.808L18.1786 13.6145L17.9086 13.808C17.9017 13.8128 17.8938 13.8155 17.8857 13.816C17.8757 13.8167 17.8655 13.814 17.8569 13.808C17.8414 13.7971 17.8344 13.7777 17.8393 13.7594L17.941 13.4426L17.671 13.2437C17.6563 13.2319 17.6505 13.2122 17.6566 13.1943C17.6626 13.1764 17.6791 13.1641 17.698 13.1637H18.0301L18.1372 12.8469C18.1372 12.8321 18.1451 12.8184 18.1579 12.811C18.166 12.8063 18.1753 12.8046 18.1843 12.8059C18.1895 12.8066 18.1946 12.8083 18.1993 12.811C18.2025 12.8129 18.2054 12.8152 18.2079 12.8178C18.2097 12.8195 18.2113 12.8215 18.2127 12.8235Z" fill="#283991"/>
<path d="M14.6917 14.583L14.6477 14.6265L14.6282 14.646C14.6433 14.6571 14.664 14.6574 14.6795 14.6465C14.6895 14.6396 14.6959 14.629 14.6977 14.6176C14.6989 14.6106 14.6983 14.6033 14.6959 14.5963L14.6917 14.583Z" fill="#283991"/>
<path d="M19.3882 12.1451C19.4329 12.137 19.4778 12.1292 19.5229 12.1217L19.6031 12.3591H19.9352C19.9541 12.3596 19.9706 12.3718 19.9767 12.3897C19.9827 12.4076 19.9769 12.4274 19.9622 12.4392L19.6922 12.6381L19.7939 12.9549C19.8002 12.9734 19.7935 12.9939 19.7774 13.0051C19.7614 13.0164 19.7399 13.0157 19.7246 13.0035L19.4546 12.81L19.1847 13.0035C19.1691 13.0144 19.1485 13.0144 19.133 13.0035C19.1174 12.9926 19.1104 12.9732 19.1154 12.9549L19.2261 12.6399L18.9561 12.441C18.9413 12.4292 18.9356 12.4095 18.9416 12.3915C18.9476 12.3736 18.9642 12.3614 18.9831 12.3609H19.3152L19.3882 12.1451Z" fill="white"/>
<path d="M17.0472 12.9137C17.0994 12.8881 17.1518 12.8631 17.2045 12.8385L17.2418 12.9549C17.248 12.9734 17.2414 12.9939 17.2253 13.0051C17.2093 13.0164 17.1878 13.0157 17.1725 13.0035L17.0472 12.9137Z" fill="white"/>
<path d="M15.7446 13.6947C15.8003 13.6545 15.8565 13.615 15.9132 13.5761L15.972 13.7594C15.9783 13.7779 15.9716 13.7984 15.9556 13.8096C15.9396 13.8209 15.918 13.8202 15.9027 13.808L15.7446 13.6947Z" fill="white"/>
<path d="M14.6282 14.646C14.6492 14.6249 14.6704 14.6039 14.6917 14.583L14.6959 14.5963C14.7022 14.6148 14.6956 14.6353 14.6795 14.6465C14.664 14.6574 14.6433 14.6571 14.6282 14.646Z" fill="white"/>
<path d="M12.9318 17.0112C13.0258 16.8215 13.1262 16.6355 13.2329 16.4537H13.5612C13.5801 16.4542 13.5967 16.4664 13.6027 16.4843C13.6088 16.5022 13.6029 16.522 13.5882 16.5338L13.3182 16.7326L13.4199 17.0494C13.4262 17.068 13.4195 17.0884 13.4035 17.0997C13.3874 17.1109 13.3659 17.1102 13.3506 17.098L13.0807 16.9045L12.9318 17.0112Z" fill="white"/>
<path d="M12.1115 19.5904C12.1171 19.5891 12.1225 19.5868 12.1274 19.5834C12.1434 19.5721 12.1501 19.5517 12.1438 19.5331L12.1286 19.4856C12.1227 19.5205 12.117 19.5554 12.1115 19.5904Z" fill="white"/>
<path d="M12.2031 19.0978C12.2147 19.0441 12.2267 18.9907 12.2392 18.9374H12.2851C12.304 18.9379 12.3206 18.9501 12.3267 18.968C12.3327 18.9859 12.3269 19.0057 12.3122 19.0175L12.2031 19.0978Z" fill="white"/>
<path d="M19.496 18.6206C19.4918 18.6034 19.4762 18.5915 19.4584 18.5919C19.4407 18.5923 19.4256 18.605 19.4222 18.6224L19.3152 18.9392H18.9831C18.9642 18.9397 18.9476 18.9519 18.9416 18.9698C18.9356 18.9877 18.9414 19.0075 18.9561 19.0193L19.2261 19.2182L19.1154 19.5331C19.1104 19.5514 19.1174 19.5709 19.133 19.5818C19.1485 19.5926 19.1691 19.5926 19.1847 19.5817L19.4546 19.3883L19.7246 19.5817C19.7399 19.5939 19.7614 19.5946 19.7774 19.5834C19.7935 19.5721 19.8002 19.5517 19.7939 19.5331L19.6922 19.2164L19.9622 19.0175C19.977 19.0057 19.9827 18.9859 19.9767 18.968C19.9706 18.9501 19.9541 18.9379 19.9352 18.9374H19.6031L19.496 18.6206Z" fill="white"/>
<path d="M16.9439 18.6206C16.9396 18.6034 16.9241 18.5915 16.9063 18.5919C16.8886 18.5923 16.8735 18.605 16.8701 18.6224L16.7631 18.9392H16.431C16.4121 18.9397 16.3955 18.9519 16.3895 18.9698C16.3835 18.9877 16.3892 19.0075 16.404 19.0193L16.6739 19.2182L16.5633 19.5331C16.5583 19.5514 16.5653 19.5709 16.5808 19.5818C16.5964 19.5926 16.617 19.5926 16.6325 19.5817L16.9025 19.3883L17.1725 19.5817C17.1878 19.5939 17.2093 19.5946 17.2253 19.5834C17.2414 19.5721 17.248 19.5517 17.2418 19.5331L17.1401 19.2164L17.4101 19.0175C17.4248 19.0057 17.4306 18.9859 17.4246 18.968C17.4185 18.9501 17.402 18.9379 17.3831 18.9374H17.051L16.9439 18.6206Z" fill="white"/>
<path d="M14.5052 18.9374L14.3981 18.6206C14.3855 18.5774 14.3261 18.5774 14.3252 18.6224L14.2182 18.9392H13.8852C13.8663 18.9397 13.8497 18.9519 13.8437 18.9698C13.8377 18.9877 13.8434 19.0075 13.8582 19.0193L14.1281 19.2182L14.0175 19.5331C14.0125 19.5514 14.0195 19.5709 14.035 19.5818C14.0506 19.5926 14.0712 19.5926 14.0867 19.5817L14.3567 19.3883L14.6267 19.5817C14.642 19.5939 14.6635 19.5946 14.6795 19.5834C14.6956 19.5721 14.7022 19.5517 14.6959 19.5331L14.5943 19.2164L14.8643 19.0175C14.879 19.0057 14.8848 18.9859 14.8788 18.968C14.8727 18.9501 14.8561 18.9379 14.8372 18.9374H14.5052Z" fill="white"/>
<path d="M18.22 17.7837C18.22 17.7689 18.2121 17.7553 18.1993 17.7479C18.1865 17.7405 18.1707 17.7405 18.1579 17.7479C18.1451 17.7553 18.1372 17.7689 18.1372 17.7837L18.0301 18.1005H17.698C17.6791 18.101 17.6626 18.1132 17.6566 18.1311C17.6505 18.149 17.6563 18.1688 17.671 18.1806L17.941 18.3795L17.8393 18.6962C17.8344 18.7145 17.8414 18.734 17.8569 18.7448C17.8724 18.7557 17.8931 18.7557 17.9086 18.7448L18.1786 18.5513L18.4486 18.7448C18.4638 18.757 18.4854 18.7577 18.5014 18.7465C18.5174 18.7352 18.5241 18.7148 18.5179 18.6962L18.4162 18.3795L18.6861 18.1806C18.7009 18.1688 18.7067 18.149 18.7006 18.1311C18.6946 18.1132 18.678 18.101 18.6592 18.1005H18.3271L18.22 17.7837Z" fill="white"/>
<path d="M15.7813 18.1005L15.6742 17.7837C15.6616 17.7405 15.6021 17.7405 15.5914 17.7837L15.4843 18.1005H15.1522C15.1334 18.101 15.1167 18.1132 15.1107 18.1311C15.1047 18.149 15.1105 18.1688 15.1253 18.1806L15.3952 18.3795L15.2935 18.6962C15.2885 18.7145 15.2956 18.734 15.3111 18.7448C15.3266 18.7557 15.3473 18.7557 15.3628 18.7448L15.6328 18.5513L15.9027 18.7448C15.918 18.757 15.9396 18.7577 15.9556 18.7465C15.9716 18.7352 15.9783 18.7148 15.972 18.6962L15.8703 18.3795L16.1403 18.1806C16.155 18.1688 16.1609 18.149 16.1548 18.1311C16.1488 18.1132 16.1322 18.101 16.1133 18.1005H15.7813Z" fill="white"/>
<path d="M13.2292 18.1005L13.1221 17.7837C13.1094 17.7405 13.05 17.7405 13.0491 17.7837L12.9421 18.1005H12.6001C12.5812 18.101 12.5646 18.1132 12.5586 18.1311C12.5526 18.149 12.5584 18.1688 12.5731 18.1806L12.8431 18.3795L12.7414 18.6962C12.7364 18.7145 12.7435 18.734 12.759 18.7448C12.7745 18.7557 12.7952 18.7557 12.8107 18.7448L13.0807 18.5513L13.3506 18.7448C13.3659 18.757 13.3874 18.7577 13.4035 18.7465C13.4195 18.7352 13.4262 18.7148 13.4199 18.6962L13.3182 18.3795L13.5882 18.1806C13.6029 18.1688 13.6088 18.149 13.6027 18.1311C13.5967 18.1132 13.5801 18.101 13.5612 18.1005H13.2292Z" fill="white"/>
<path d="M19.6031 17.2897L19.496 16.9729C19.4888 16.936 19.4294 16.936 19.4132 16.9729L19.3062 17.2897H18.9741C18.9552 17.2902 18.9386 17.3024 18.9326 17.3203C18.9266 17.3382 18.9323 17.358 18.9471 17.3698L19.2171 17.5686L19.1154 17.8854C19.1104 17.9037 19.1174 17.9231 19.133 17.934C19.1485 17.9449 19.1691 17.9449 19.1847 17.934L19.4546 17.7405L19.7246 17.934C19.7399 17.9462 19.7614 17.9469 19.7774 17.9357C19.7935 17.9244 19.8002 17.904 19.7939 17.8854L19.6922 17.5686L19.9622 17.3698C19.9769 17.358 19.9827 17.3382 19.9767 17.3203C19.9706 17.3024 19.9541 17.2902 19.9352 17.2897H19.6031Z" fill="white"/>
<path d="M17.051 17.2897L16.9439 16.9729C16.9367 16.936 16.8773 16.936 16.8611 16.9729L16.7541 17.2897H16.422C16.4031 17.2902 16.3865 17.3024 16.3805 17.3203C16.3745 17.3382 16.3802 17.358 16.395 17.3698L16.6649 17.5686L16.5633 17.8854C16.5583 17.9037 16.5653 17.9231 16.5808 17.934C16.5964 17.9449 16.617 17.9449 16.6325 17.934L16.9025 17.7405L17.1725 17.934C17.1878 17.9462 17.2093 17.9469 17.2253 17.9357C17.2414 17.9244 17.2481 17.904 17.2418 17.8854L17.1401 17.5686L17.4101 17.3698C17.4248 17.358 17.4306 17.3382 17.4246 17.3203C17.4185 17.3024 17.402 17.2902 17.3831 17.2897H17.051Z" fill="white"/>
<path d="M14.5052 17.2897L14.3981 16.9729C14.3855 16.936 14.3261 16.936 14.3252 16.9729L14.2182 17.2897H13.8762C13.8573 17.2902 13.8407 17.3024 13.8346 17.3203C13.8287 17.3382 13.8344 17.358 13.8492 17.3698L14.1192 17.5686L14.0175 17.8854C14.0125 17.9037 14.0195 17.9231 14.035 17.934C14.0506 17.9449 14.0712 17.9449 14.0867 17.934L14.3567 17.7405L14.6267 17.934C14.642 17.9462 14.6635 17.9469 14.6795 17.9357C14.6955 17.9244 14.7023 17.904 14.6959 17.8854L14.5943 17.5686L14.8643 17.3698C14.879 17.358 14.8848 17.3382 14.8788 17.3203C14.8727 17.3024 14.8561 17.2902 14.8372 17.2897H14.5052Z" fill="white"/>
<path d="M18.22 16.1369C18.22 16.1141 18.2014 16.0955 18.1786 16.0955C18.1557 16.0955 18.1372 16.1141 18.1372 16.1369L18.0301 16.4537H17.698C17.6791 16.4542 17.6626 16.4664 17.6566 16.4843C17.6505 16.5022 17.6563 16.522 17.671 16.5338L17.941 16.7326L17.8393 17.0494C17.8344 17.0677 17.8414 17.0871 17.8569 17.098C17.8724 17.1089 17.8931 17.1089 17.9086 17.098L18.1786 16.9045L18.4486 17.098C18.4639 17.1102 18.4854 17.1109 18.5014 17.0997C18.5174 17.0884 18.5241 17.068 18.5179 17.0494L18.4162 16.7326L18.6861 16.5338C18.7009 16.522 18.7067 16.5022 18.7006 16.4843C18.6946 16.4664 18.678 16.4542 18.6592 16.4537H18.3271L18.22 16.1369Z" fill="white"/>
<path d="M15.7813 16.4537L15.6742 16.1369C15.6616 16.0937 15.6021 16.0937 15.5914 16.1369L15.4843 16.4537H15.1522C15.1334 16.4542 15.1167 16.4664 15.1107 16.4843C15.1047 16.5022 15.1105 16.522 15.1253 16.5338L15.3952 16.7326L15.2935 17.0494C15.2886 17.0677 15.2956 17.0871 15.3111 17.098C15.3266 17.1089 15.3473 17.1089 15.3628 17.098L15.6328 16.9045L15.9027 17.098C15.918 17.1102 15.9395 17.1109 15.9556 17.0997C15.9716 17.0884 15.9783 17.068 15.972 17.0494L15.8703 16.7326L16.1403 16.5338C16.155 16.522 16.1609 16.5022 16.1548 16.4843C16.1488 16.4664 16.1322 16.4542 16.1133 16.4537H15.7813Z" fill="white"/>
<path d="M19.496 15.3315C19.4918 15.3143 19.4762 15.3023 19.4584 15.3028C19.4407 15.3032 19.4256 15.3159 19.4222 15.3333L19.3152 15.6501H18.9831C18.9642 15.6505 18.9476 15.6628 18.9416 15.6807C18.9356 15.6986 18.9414 15.7183 18.9561 15.7302L19.2261 15.929L19.1154 16.244C19.1104 16.2623 19.1174 16.2817 19.133 16.2926C19.1485 16.3035 19.1691 16.3035 19.1847 16.2926L19.4546 16.0991L19.7246 16.2926C19.7399 16.3048 19.7614 16.3055 19.7774 16.2942C19.7935 16.283 19.8002 16.2625 19.7939 16.244L19.6922 15.9272L19.9622 15.7284C19.977 15.7165 19.9827 15.6968 19.9767 15.6789C19.9706 15.661 19.9541 15.6487 19.9352 15.6483H19.6031L19.496 15.3315Z" fill="white"/>
<path d="M16.9439 15.3315C16.9439 15.3086 16.9254 15.2901 16.9025 15.2901C16.8796 15.2901 16.8611 15.3086 16.8611 15.3315L16.7541 15.6483H16.422C16.4031 15.6487 16.3865 15.661 16.3805 15.6789C16.3745 15.6968 16.3802 15.7165 16.395 15.7284L16.6649 15.9272L16.5633 16.244C16.5583 16.2623 16.5653 16.2817 16.5808 16.2926C16.5964 16.3035 16.617 16.3035 16.6325 16.2926L16.9025 16.0991L17.1725 16.2926C17.1878 16.3048 17.2093 16.3055 17.2253 16.2942C17.2414 16.283 17.2481 16.2625 17.2418 16.244L17.1401 15.9272L17.4101 15.7284C17.4248 15.7165 17.4306 15.6968 17.4246 15.6789C17.4185 15.661 17.402 15.6487 17.3831 15.6483H17.051L16.9439 15.3315Z" fill="white"/>
<path d="M14.5052 15.6483L14.3981 15.3315C14.3855 15.2883 14.3261 15.2883 14.3252 15.3315L14.2182 15.6483H13.8762C13.8573 15.6487 13.8407 15.661 13.8346 15.6789C13.8287 15.6968 13.8344 15.7165 13.8492 15.7284L14.1192 15.9272L14.0175 16.244C14.0125 16.2623 14.0195 16.2817 14.035 16.2926C14.0506 16.3035 14.0712 16.3035 14.0867 16.2926L14.3567 16.0991L14.6267 16.2926C14.642 16.3048 14.6635 16.3055 14.6795 16.2942C14.6956 16.283 14.7022 16.2625 14.6959 16.244L14.5943 15.9272L14.8643 15.7284C14.879 15.7165 14.8848 15.6968 14.8788 15.6789C14.8727 15.661 14.8561 15.6487 14.8372 15.6483H14.5052Z" fill="white"/>
<path d="M15.7813 14.8051L15.6742 14.4883C15.6616 14.4514 15.6021 14.4514 15.5914 14.4883L15.4843 14.8051H15.1522C15.1334 14.8055 15.1167 14.8178 15.1107 14.8357C15.1047 14.8536 15.1105 14.8733 15.1253 14.8852L15.3952 15.084L15.2935 15.4008C15.2885 15.4191 15.2956 15.4385 15.3111 15.4494C15.3266 15.4603 15.3473 15.4603 15.3628 15.4494L15.6328 15.2559L15.9027 15.4494C15.918 15.4616 15.9396 15.4623 15.9556 15.451C15.9716 15.4398 15.9783 15.4193 15.972 15.4008L15.8703 15.084L16.1403 14.8852C16.155 14.8733 16.1609 14.8536 16.1548 14.8357C16.1488 14.8178 16.1322 14.8055 16.1133 14.8051H15.7813Z" fill="white"/>
<path d="M18.3271 14.8051L18.22 14.4883C18.2127 14.4514 18.1534 14.4514 18.1372 14.4883L18.0301 14.8051H17.698C17.6791 14.8055 17.6626 14.8178 17.6566 14.8357C17.6505 14.8536 17.6563 14.8733 17.671 14.8852L17.941 15.084L17.8393 15.4008C17.8344 15.4191 17.8414 15.4385 17.8569 15.4494C17.8724 15.4603 17.8931 15.4603 17.9086 15.4494L18.1786 15.2559L18.4486 15.4494C18.4638 15.4616 18.4854 15.4623 18.5014 15.451C18.5174 15.4398 18.5241 15.4193 18.5179 15.4008L18.4162 15.084L18.6861 14.8852C18.7009 14.8733 18.7067 14.8536 18.7006 14.8357C18.6946 14.8178 18.678 14.8055 18.6592 14.8051H18.3271Z" fill="white"/>
<path d="M17.051 14.0006L16.9439 13.6838C16.9367 13.6469 16.8773 13.6469 16.8611 13.6838L16.7541 14.0006H16.422C16.4031 14.001 16.3865 14.0133 16.3805 14.0312C16.3745 14.0491 16.3802 14.0688 16.395 14.0807L16.6649 14.2795L16.5633 14.5963C16.5583 14.6146 16.5653 14.634 16.5808 14.6449C16.5964 14.6558 16.617 14.6558 16.6325 14.6449L16.9025 14.4514L17.1725 14.6449C17.1878 14.6571 17.2093 14.6578 17.2253 14.6465C17.2414 14.6353 17.248 14.6148 17.2418 14.5963L17.1401 14.2795L17.4101 14.0807C17.4248 14.0688 17.4306 14.0491 17.4246 14.0312C17.4185 14.0133 17.402 14.001 17.3831 14.0006H17.051Z" fill="white"/>
<path d="M19.6031 14.0006L19.496 13.6838C19.4888 13.6469 19.4294 13.6469 19.4132 13.6838L19.3062 14.0006H18.9741C18.9552 14.001 18.9386 14.0133 18.9326 14.0312C18.9266 14.0491 18.9323 14.0688 18.9471 14.0807L19.2171 14.2795L19.1154 14.5963C19.1104 14.6146 19.1174 14.634 19.133 14.6449C19.1485 14.6558 19.1691 14.6558 19.1847 14.6449L19.4546 14.4514L19.7246 14.6449C19.7399 14.6571 19.7614 14.6578 19.7774 14.6465C19.7935 14.6353 19.8002 14.6148 19.7939 14.5963L19.6922 14.2795L19.9622 14.0807C19.9769 14.0688 19.9827 14.0491 19.9767 14.0312C19.9706 14.0133 19.9541 14.001 19.9352 14.0006H19.6031Z" fill="white"/>
<path d="M18.22 12.8469C18.22 12.8321 18.2121 12.8184 18.1993 12.811C18.1865 12.8036 18.1707 12.8036 18.1579 12.811C18.1451 12.8184 18.1372 12.8321 18.1372 12.8469L18.0301 13.1637H17.698C17.6791 13.1641 17.6626 13.1764 17.6566 13.1943C17.6505 13.2122 17.6563 13.2319 17.671 13.2437L17.941 13.4426L17.8393 13.7594C17.8344 13.7777 17.8414 13.7971 17.8569 13.808C17.8724 13.8189 17.8931 13.8189 17.9086 13.808L18.1786 13.6145L18.4486 13.808C18.4638 13.8202 18.4854 13.8209 18.5014 13.8096C18.5174 13.7984 18.5241 13.7779 18.5179 13.7594L18.4162 13.4426L18.6861 13.2437C18.7009 13.2319 18.7067 13.2122 18.7006 13.1943C18.6946 13.1764 18.678 13.1641 18.6592 13.1637H18.3271L18.22 12.8469Z" fill="white"/>
</g>
</g>
</g>
</svg>
