<svg width="32" height="32" viewBox="0 0 32 32" fill="none" xmlns="http://www.w3.org/2000/svg">
<g id="markets / market-commodity-silvereur">
<g id="markets / market-metal-silver" clip-path="url(#clip0_1828_2418)">
<g id="logo">
<path d="M19.9997 11C19.9997 15.97 15.9707 19.9989 11.0007 19.9989C6.03069 19.9989 2.00171 15.97 2.00171 11C2.00171 6.02996 6.03069 2.00098 11.0007 2.00098C15.9707 2.00098 19.9997 6.02996 19.9997 11Z" fill="#DFDFDF"/>
<path d="M16.7381 4.06685C16.3474 3.74318 15.9289 3.4519 15.4868 3.19713L3.19786 15.486C3.45264 15.9282 3.74392 16.3467 4.06759 16.7374L16.7381 4.06685Z" fill="#F8F8F8"/>
<path d="M6.34474 18.7024C5.69489 18.3087 5.09885 17.8352 4.57024 17.2953L17.296 4.56951C17.8359 5.09811 18.3095 5.69416 18.7031 6.34401L6.34474 18.7024Z" fill="#F8F8F8"/>
<path d="M8.97369 19.7697C8.69257 19.705 8.41648 19.6271 8.14611 19.5368L19.5375 8.14538C19.6279 8.41575 19.7057 8.69184 19.7705 8.97296L8.97369 19.7697Z" fill="#F8F8F8"/>
<path d="M18.3124 11C18.3124 15.0381 15.0388 18.3116 11.0007 18.3116C6.96257 18.3116 3.68902 15.0381 3.68902 11C3.68902 6.96183 6.96257 3.68829 11.0007 3.68829C15.0388 3.68829 18.3124 6.96183 18.3124 11Z" fill="#D1D1D1"/>
<path d="M11.0007 18.3116C15.0388 18.3116 18.3124 15.0381 18.3124 11C18.3124 9.76065 18.004 8.59335 17.4599 7.5706C12.7005 8.94851 8.94923 12.6998 7.57126 17.4591C8.59403 18.0033 9.76135 18.3116 11.0007 18.3116Z" fill="#C4C4C4"/>
<path d="M16.4444 6.11865C15.15 4.95722 13.4391 4.25072 11.5631 4.25072C7.525 4.25072 4.25146 7.52427 4.25146 11.5624C4.25146 13.4384 4.95795 15.1493 6.11938 16.4437C4.62752 15.1051 3.68902 13.1621 3.68902 11C3.68902 6.96183 6.96257 3.68829 11.0007 3.68829C13.1629 3.68829 15.1058 4.62679 16.4444 6.11865Z" fill="#ADADAD"/>
</g>
</g>
<g id="currencies / currency-eur">
<g id="logo_2">
<path d="M29.9997 21C29.9997 25.97 25.9707 29.9989 21.0007 29.9989C16.0307 29.9989 12.0017 25.97 12.0017 21C12.0017 16.03 16.0307 12.001 21.0007 12.001C25.9707 12.001 29.9997 16.03 29.9997 21Z" fill="#283991"/>
<path d="M21.1985 14.4641L20.9791 13.7891L20.7597 14.4641H20.0498L20.6243 14.8813L20.4049 15.5564L20.9791 15.1389L21.5535 15.5564L21.3341 14.8813L21.9085 14.4641H21.1985Z" fill="#F8D12E"/>
<path d="M21.1985 27.2078L20.9791 26.5324L20.7597 27.2078H20.0498L20.6243 27.6249L20.4049 28.2999L20.9791 27.8828L21.5535 28.2999L21.3341 27.6249L21.9085 27.2078H21.1985Z" fill="#F8D12E"/>
<path d="M24.4765 14.9185L24.6957 15.5937H25.4057L24.8313 16.0112L25.0507 16.6862L24.4765 16.2688L23.9022 16.6862L24.1215 16.0112L23.5473 15.5937H24.2573L24.4765 14.9185Z" fill="#F8D12E"/>
<path d="M27.082 17.9478L26.8627 17.2728L26.6432 17.9478H25.9334L26.5078 18.3651L26.2884 19.0402L26.8627 18.623L27.437 19.0402L27.2176 18.3651L27.792 17.9478H27.082Z" fill="#F8D12E"/>
<path d="M26.9195 23.2209L27.1388 23.8962H27.8487L27.2744 24.3134L27.4939 24.9882L26.9195 24.5712L26.3451 24.9882L26.5645 24.3134L25.9902 23.8962H26.7001L26.9195 23.2209Z" fill="#F8D12E"/>
<path d="M15.4012 17.9478L15.1819 17.2728L14.9627 17.9478H14.2527L14.827 18.3651L14.6076 19.0402L15.1819 18.623L15.756 19.0402L15.5368 18.3651L16.111 17.9478H15.4012Z" fill="#F8D12E"/>
<path d="M27.4157 20.1095L27.635 20.7845H28.345L27.7706 21.2017L27.99 21.8769L27.4157 21.4599L26.8414 21.8769L27.0609 21.2017L26.4864 20.7845H27.1962L27.4157 20.1095Z" fill="#F8D12E"/>
<path d="M14.8588 20.7845L14.6395 20.1095L14.4201 20.7845H13.7102L14.2845 21.2017L14.0652 21.8769L14.6395 21.4599L15.2138 21.8769L14.9943 21.2017L15.5686 20.7845H14.8588Z" fill="#F8D12E"/>
<path d="M15.105 23.2209L15.3242 23.8962H16.034L15.4598 24.3134L15.679 24.9882L15.105 24.5712L14.5306 24.9882L14.75 24.3134L14.1756 23.8962H14.8856L15.105 23.2209Z" fill="#F8D12E"/>
<path d="M24.7987 26.3505L24.5795 25.6755L24.3601 26.3505H23.6501L24.2245 26.768L24.005 27.443L24.5795 27.0258L25.1537 27.443L24.9342 26.768L25.5087 26.3505H24.7987Z" fill="#F8D12E"/>
<path d="M17.595 14.9185L17.8142 15.5937H18.5242L17.9499 16.0112L18.1694 16.6862L17.595 16.2688L17.0208 16.6862L17.2402 16.0112L16.6658 15.5937H17.3756L17.595 14.9185Z" fill="#F8D12E"/>
<path d="M17.5553 26.3077L17.336 25.6323L17.1166 26.3077H16.4068L16.9811 26.7247L16.7618 27.3997L17.336 26.9828L17.9103 27.3997L17.691 26.7247L18.2653 26.3077H17.5553Z" fill="#F8D12E"/>
</g>
</g>
</g>
<defs>
<clipPath id="clip0_1828_2418">
<rect width="17.998" height="17.998" fill="white" transform="translate(2.00171 2.00098)"/>
</clipPath>
</defs>
</svg>
