<svg width="32" height="32" viewBox="0 0 32 32" fill="none" xmlns="http://www.w3.org/2000/svg">
<g id="markets / market-indices-us-tech-100">
<path id="icon" d="M20 6C20.5523 6 21 6.44772 21 7V9C22.1046 9 23 9.89543 23 11H25C25.5523 11 26 11.4477 26 12C26 12.5523 25.5523 13 25 13H23V15H25C25.5523 15 26 15.4477 26 16C26 16.5523 25.5523 17 25 17H23V19H25C25.5523 19 26 19.4477 26 20C26 20.5523 25.5523 21 25 21H23C23 22.1046 22.1046 23 21 23V25C21 25.5523 20.5523 26 20 26C19.4477 26 19 25.5523 19 25V23H17V25C17 25.5523 16.5523 26 16 26C15.4477 26 15 25.5523 15 25V23H13V25C13 25.5523 12.5523 26 12 26C11.4477 26 11 25.5523 11 25V23L10.8507 22.9945C9.81588 22.9182 9 22.0544 9 21H7C6.44772 21 6 20.5523 6 20C6 19.4477 6.44772 19 7 19H9V17H7C6.44772 17 6 16.5523 6 16C6 15.4477 6.44772 15 7 15H9V13H7C6.44772 13 6 12.5523 6 12C6 11.4477 6.44772 11 7 11H9C9 9.89543 9.89543 9 11 9V7C11 6.44772 11.4477 6 12 6C12.5523 6 13 6.44772 13 7V9H15V7C15 6.44772 15.4477 6 16 6C16.5523 6 17 6.44772 17 7V9H19V7C19 6.44772 19.4477 6 20 6ZM21 10H11C10.4477 10 10 10.4477 10 11V21C10 21.5523 10.4477 22 11 22H21C21.5523 22 22 21.5523 22 21V11C22 10.4477 21.5523 10 21 10ZM19 12C19.5523 12 20 12.4477 20 13V19C20 19.5523 19.5523 20 19 20H13C12.4477 20 12 19.5523 12 19V13C12 12.4477 12.4477 12 13 12H19ZM19 13H13V19H19V13Z" fill="#787D88"/>
<g id="tag">
<path d="M13 2C13 0.89543 13.8954 0 15 0H30C31.1046 0 32 0.895431 32 2V8C32 9.10457 31.1046 10 30 10H15C13.8954 10 13 9.10457 13 8V2Z" fill="#414652"/>
<path d="M16.0567 8V7.032H17.5607V3.288H17.4887L16.3527 4.776L15.5847 4.176L16.9207 2.416H18.7607V7.032H19.9447V8H16.0567Z" fill="white"/>
<path d="M22.5016 8.096C21.7709 8.096 21.2296 7.84267 20.8776 7.336C20.5256 6.82933 20.3496 6.12 20.3496 5.208C20.3496 4.296 20.5256 3.58667 20.8776 3.08C21.2296 2.57333 21.7709 2.32 22.5016 2.32C23.2322 2.32 23.7736 2.57333 24.1256 3.08C24.4776 3.58667 24.6536 4.296 24.6536 5.208C24.6536 6.12 24.4776 6.82933 24.1256 7.336C23.7736 7.84267 23.2322 8.096 22.5016 8.096ZM22.5016 7.08C22.8216 7.08 23.0429 6.96267 23.1656 6.728C23.2882 6.49333 23.3496 6.16267 23.3496 5.736V4.68C23.3496 4.25333 23.2882 3.92267 23.1656 3.688C23.0429 3.45333 22.8216 3.336 22.5016 3.336C22.1816 3.336 21.9602 3.45333 21.8376 3.688C21.7149 3.92267 21.6536 4.25333 21.6536 4.68V5.736C21.6536 6.16267 21.7149 6.49333 21.8376 6.728C21.9602 6.96267 22.1816 7.08 22.5016 7.08Z" fill="white"/>
<path d="M27.2984 8.096C26.5678 8.096 26.0264 7.84267 25.6744 7.336C25.3224 6.82933 25.1464 6.12 25.1464 5.208C25.1464 4.296 25.3224 3.58667 25.6744 3.08C26.0264 2.57333 26.5678 2.32 27.2984 2.32C28.0291 2.32 28.5704 2.57333 28.9224 3.08C29.2744 3.58667 29.4504 4.296 29.4504 5.208C29.4504 6.12 29.2744 6.82933 28.9224 7.336C28.5704 7.84267 28.0291 8.096 27.2984 8.096ZM27.2984 7.08C27.6184 7.08 27.8398 6.96267 27.9624 6.728C28.0851 6.49333 28.1464 6.16267 28.1464 5.736V4.68C28.1464 4.25333 28.0851 3.92267 27.9624 3.688C27.8398 3.45333 27.6184 3.336 27.2984 3.336C26.9784 3.336 26.7571 3.45333 26.6344 3.688C26.5118 3.92267 26.4504 4.25333 26.4504 4.68V5.736C26.4504 6.16267 26.5118 6.49333 26.6344 6.728C26.7571 6.96267 26.9784 7.08 27.2984 7.08Z" fill="white"/>
</g>
<g id="flags / flag-usa">
<g id="flag">
<path d="M18 26.284V26.896H30V26.284H18Z" fill="white"/>
<path d="M23.75 25.672H30V25.06H23.75V25.672Z" fill="white"/>
<path d="M23.75 24.448H30V23.836H23.75V24.448Z" fill="white"/>
<path d="M23.75 23.224H30V23C30 22.8624 29.9722 22.7313 29.9219 22.612H23.75V23.224Z" fill="white"/>
<path d="M30 27.508H18V28.12H30V27.508Z" fill="white"/>
<path d="M18 28.732H30V29C30 29.1209 29.9786 29.2367 29.9393 29.344H18.0607C18.0214 29.2367 18 29.1209 18 29V28.732Z" fill="white"/>
<path d="M29 22H23.75V22.612H29.9219C29.7704 22.2524 29.4147 22 29 22Z" fill="#F44336"/>
<path d="M23.75 26.284H30V25.672H23.75V26.284Z" fill="#F44336"/>
<path d="M23.75 25.06H30V24.448H23.75V25.06Z" fill="#F44336"/>
<path d="M23.75 23.836H30V23.224H23.75V23.836Z" fill="#F44336"/>
<path d="M18 26.896H30V27.508H18V26.896Z" fill="#F44336"/>
<path d="M30 28.12H18V28.732H30V28.12Z" fill="#F44336"/>
<path d="M18.0607 29.344H29.9393C29.799 29.7268 29.4315 30 29 30H19C18.5685 30 18.201 29.7268 18.0607 29.344Z" fill="#F44336"/>
<path fill-rule="evenodd" clip-rule="evenodd" d="M23.75 22H19C18.4477 22 18 22.4477 18 23V26.284H23.75V22ZM18.5944 25.5492L18.5468 25.4084C18.5412 25.3892 18.5172 25.3892 18.5144 25.4092L18.4668 25.55H18.3188C18.3104 25.5502 18.303 25.5557 18.3004 25.5636C18.2977 25.5716 18.3002 25.5804 18.3068 25.5856L18.4268 25.674L18.3776 25.814C18.376 25.8197 18.3771 25.8256 18.3802 25.8303C18.3816 25.8323 18.3833 25.8341 18.3854 25.8356C18.3923 25.8405 18.4015 25.8405 18.4084 25.8356L18.5284 25.7496L18.6484 25.8356C18.6552 25.841 18.6647 25.8413 18.6719 25.8363C18.679 25.8313 18.6819 25.8222 18.6792 25.814L18.634 25.6732L18.754 25.5848C18.7571 25.5823 18.7593 25.5791 18.7604 25.5754C18.7618 25.5714 18.7618 25.567 18.7604 25.5628C18.7578 25.5548 18.7504 25.5494 18.742 25.5492H18.5944ZM23.0812 25.4084C23.0793 25.4008 23.0723 25.3954 23.0645 25.3956C23.0566 25.3958 23.0499 25.4015 23.0484 25.4092L23.0008 25.55H22.8532C22.8448 25.5502 22.8374 25.5557 22.8347 25.5636C22.8333 25.5678 22.8334 25.5722 22.8347 25.5762C22.8359 25.5798 22.8381 25.5831 22.8412 25.5856L22.9612 25.674L22.912 25.814C22.9098 25.8221 22.9129 25.8308 22.9198 25.8356C22.9267 25.8405 22.9359 25.8405 22.9428 25.8356L23.0628 25.7496L23.1828 25.8356C23.1896 25.841 23.1992 25.8413 23.2063 25.8363C23.2134 25.8313 23.2164 25.8222 23.2136 25.814L23.1684 25.6732L23.2884 25.5848C23.2923 25.5817 23.2948 25.5772 23.2956 25.5725C23.2961 25.5693 23.2959 25.566 23.2948 25.5628C23.2921 25.5548 23.2848 25.5494 23.2764 25.5492H23.1288L23.0812 25.4084ZM21.9468 25.4084C21.9449 25.4008 21.9379 25.3954 21.9301 25.3956C21.9222 25.3958 21.9155 25.4015 21.914 25.4092L21.8664 25.55H21.7188C21.7104 25.5502 21.703 25.5557 21.7003 25.5636C21.6976 25.5716 21.7003 25.5804 21.7068 25.5856L21.8268 25.674L21.7776 25.814C21.7754 25.8221 21.7785 25.8308 21.7854 25.8356C21.7923 25.8405 21.8015 25.8405 21.8084 25.8356L21.9284 25.7496L22.0484 25.8356C22.0552 25.841 22.0648 25.8413 22.0719 25.8363C22.079 25.8313 22.082 25.8222 22.0792 25.814L22.034 25.6732L22.154 25.5848C22.1605 25.5796 22.1631 25.5708 22.1604 25.5628C22.1577 25.5548 22.1504 25.5494 22.142 25.5492H21.9944L21.9468 25.4084ZM19.7284 25.5492L19.6808 25.4084C19.6752 25.3892 19.6488 25.3892 19.6484 25.4092L19.6008 25.55H19.4528C19.4444 25.5502 19.437 25.5557 19.4343 25.5636C19.4316 25.5716 19.4342 25.5804 19.4408 25.5856L19.5608 25.674L19.5116 25.814C19.5094 25.8221 19.5125 25.8308 19.5194 25.8356C19.5263 25.8405 19.5355 25.8405 19.5424 25.8356L19.6624 25.7496L19.7824 25.8356C19.7892 25.841 19.7988 25.8413 19.8058 25.8363C19.813 25.8313 19.816 25.8222 19.8132 25.814L19.768 25.6732L19.888 25.5848C19.8903 25.583 19.892 25.5808 19.8932 25.5783C19.8956 25.5736 19.8962 25.568 19.8944 25.5628C19.8923 25.5566 19.8875 25.5519 19.8814 25.5501C19.8797 25.5496 19.8779 25.5493 19.876 25.5492H19.7284ZM20.8628 25.5492L20.8152 25.4084C20.8096 25.3892 20.7832 25.3892 20.7828 25.4092L20.7352 25.55H20.5872C20.5788 25.5502 20.5714 25.5557 20.5687 25.5636C20.566 25.5716 20.5686 25.5804 20.5752 25.5856L20.6952 25.674L20.646 25.814C20.6448 25.8186 20.6452 25.8233 20.647 25.8274C20.6485 25.8307 20.6508 25.8335 20.6538 25.8356C20.6607 25.8405 20.6699 25.8405 20.6768 25.8356L20.7968 25.7496L20.9168 25.8356C20.9236 25.841 20.9332 25.8413 20.9402 25.8363C20.9474 25.8313 20.9504 25.8222 20.9476 25.814L20.9024 25.6732L21.0224 25.5848C21.0289 25.5796 21.0315 25.5708 21.0288 25.5628C21.0261 25.5548 21.0188 25.5494 21.0104 25.5492H20.8628ZM19.1616 25.1772L19.114 25.0364C19.1084 25.0172 19.0844 25.0172 19.0816 25.0364L19.034 25.1772H18.882C18.8736 25.1774 18.8662 25.1829 18.8635 25.1908C18.8608 25.1988 18.8634 25.2076 18.87 25.2128L18.99 25.3012L18.9448 25.442C18.9426 25.4501 18.9457 25.4588 18.9526 25.4636C18.9595 25.4684 18.9687 25.4684 18.9756 25.4636L19.0956 25.3776L19.2156 25.4636C19.2224 25.469 19.2319 25.4693 19.2391 25.4643C19.2462 25.4594 19.2491 25.4503 19.2464 25.442L19.2012 25.3012L19.3212 25.2128C19.3278 25.2076 19.3303 25.1988 19.3276 25.1908C19.325 25.1829 19.3176 25.1774 19.3092 25.1772H19.1616ZM22.514 25.0364C22.514 25.0298 22.5105 25.0237 22.5048 25.0205C22.4991 25.0172 22.4921 25.0172 22.4864 25.0205C22.4807 25.0237 22.4772 25.0298 22.4772 25.0364L22.4296 25.1772H22.282C22.2736 25.1774 22.2662 25.1829 22.2635 25.1908C22.2609 25.1988 22.2634 25.2076 22.27 25.2128L22.39 25.3012L22.3448 25.442C22.3426 25.4501 22.3457 25.4588 22.3526 25.4636C22.3595 25.4684 22.3687 25.4684 22.3756 25.4636L22.4956 25.3776L22.6156 25.4636C22.6224 25.469 22.632 25.4693 22.6391 25.4643C22.6429 25.4616 22.6456 25.4577 22.6467 25.4534C22.6477 25.4498 22.6476 25.4458 22.6464 25.442L22.6012 25.3012L22.7212 25.2128C22.7277 25.2076 22.7303 25.1988 22.7276 25.1908C22.7249 25.1829 22.7176 25.1774 22.7092 25.1772H22.5616L22.514 25.0364ZM21.43 25.1772L21.3824 25.0364C21.3768 25.0172 21.3504 25.0172 21.3456 25.0364L21.298 25.1772H21.1504C21.1462 25.1773 21.1423 25.1787 21.1391 25.1811C21.1359 25.1834 21.1333 25.1868 21.132 25.1908C21.131 25.1935 21.1307 25.1964 21.131 25.1992C21.1315 25.2044 21.1341 25.2094 21.1384 25.2128L21.2584 25.3012L21.2132 25.442C21.211 25.4501 21.2141 25.4588 21.221 25.4636C21.2279 25.4684 21.2371 25.4684 21.244 25.4636L21.364 25.3776L21.484 25.4636C21.4908 25.469 21.5004 25.4693 21.5074 25.4643C21.5146 25.4594 21.5176 25.4503 21.5148 25.442L21.4696 25.3012L21.5896 25.2128C21.5961 25.2076 21.5987 25.1988 21.596 25.1908C21.5933 25.1829 21.586 25.1774 21.5776 25.1772H21.43ZM20.2956 25.1772L20.248 25.0364C20.2424 25.0172 20.216 25.0172 20.2156 25.0364L20.168 25.1772H20.016C20.0076 25.1774 20.0002 25.1829 19.9976 25.1908C19.9949 25.1988 19.9974 25.2076 20.004 25.2128L20.124 25.3012L20.0788 25.442C20.0777 25.4461 20.0779 25.4504 20.0793 25.4542C20.0807 25.4579 20.0832 25.4612 20.0866 25.4636C20.0898 25.4659 20.0935 25.467 20.0972 25.4672C20.1015 25.4674 20.1058 25.4662 20.1096 25.4636L20.2296 25.3776L20.3496 25.4636C20.3564 25.469 20.366 25.4693 20.373 25.4643C20.3802 25.4594 20.3832 25.4503 20.3804 25.442L20.3352 25.3012L20.4552 25.2128C20.4617 25.2076 20.4643 25.1988 20.4616 25.1908C20.4589 25.1829 20.4516 25.1774 20.4432 25.1772H20.2956ZM19.7284 24.8168L19.6808 24.676C19.6752 24.6596 19.6488 24.6596 19.6484 24.676L19.6008 24.8168H19.4488C19.4404 24.817 19.433 24.8224 19.4304 24.8304C19.4277 24.8384 19.4302 24.8471 19.4368 24.8524L19.5568 24.9408L19.5116 25.0816C19.5094 25.0897 19.5125 25.0984 19.5194 25.1032C19.5263 25.1081 19.5355 25.108 19.5424 25.1032L19.6624 25.0172L19.7824 25.1032C19.7838 25.1043 19.7853 25.1053 19.787 25.106C19.7931 25.1086 19.8002 25.1079 19.8058 25.1039C19.813 25.0989 19.816 25.0898 19.8132 25.0816L19.768 24.9408L19.888 24.8524C19.8945 24.8471 19.8971 24.8384 19.8944 24.8304C19.8917 24.8224 19.8844 24.817 19.876 24.8168H19.7284ZM23.1288 24.8168L23.0812 24.676C23.078 24.6596 23.0516 24.6596 23.0444 24.676L22.9968 24.8168H22.8492C22.8408 24.817 22.8334 24.8224 22.8307 24.8304C22.8281 24.8384 22.8306 24.8471 22.8372 24.8524L22.9572 24.9408L22.912 25.0816C22.9098 25.0897 22.9129 25.0984 22.9198 25.1032C22.9267 25.1081 22.9359 25.108 22.9428 25.1032L23.0628 25.0172L23.1828 25.1032C23.1896 25.1086 23.1992 25.1089 23.2063 25.1039C23.2102 25.1012 23.2128 25.0972 23.214 25.0929C23.2149 25.0892 23.2148 25.0853 23.2136 25.0816L23.1684 24.9408L23.2884 24.8524C23.2949 24.8471 23.2975 24.8384 23.2948 24.8304C23.2921 24.8224 23.2848 24.817 23.2764 24.8168H23.1288ZM18.5944 24.8168L18.5468 24.676C18.5412 24.6596 18.5172 24.6596 18.5144 24.676L18.4668 24.8168H18.3148C18.3064 24.817 18.299 24.8224 18.2963 24.8304C18.2936 24.8384 18.2962 24.8471 18.3028 24.8524L18.4228 24.9408L18.3776 25.0816C18.3754 25.0897 18.3785 25.0984 18.3854 25.1032C18.3923 25.1081 18.4015 25.108 18.4084 25.1032L18.5284 25.0172L18.6484 25.1032C18.6552 25.1086 18.6647 25.1089 18.6719 25.1039C18.679 25.0989 18.6819 25.0898 18.6792 25.0816L18.634 24.9408L18.754 24.8524C18.7606 24.8471 18.7631 24.8384 18.7604 24.8304C18.7578 24.8224 18.7504 24.817 18.742 24.8168H18.5944ZM21.9944 24.8168L21.9468 24.676C21.9449 24.6665 21.9354 24.6625 21.9262 24.664C21.9195 24.6651 21.913 24.6691 21.91 24.676L21.8624 24.8168H21.7148C21.7116 24.8169 21.7086 24.8177 21.7059 24.8191C21.7015 24.8214 21.698 24.8254 21.6964 24.8304C21.6937 24.8384 21.6962 24.8471 21.7028 24.8524L21.8228 24.9408L21.7776 25.0816C21.7754 25.0897 21.7785 25.0984 21.7854 25.1032C21.7923 25.1081 21.8015 25.108 21.8084 25.1032L21.9284 25.0172L22.0484 25.1032C22.0552 25.1086 22.0648 25.1089 22.0719 25.1039C22.079 25.0989 22.082 25.0898 22.0792 25.0816L22.034 24.9408L22.154 24.8524C22.1605 24.8471 22.1631 24.8384 22.1604 24.8304C22.1577 24.8224 22.1504 24.817 22.142 24.8168H21.9944ZM20.8628 24.8168L20.8152 24.676C20.8096 24.6596 20.7832 24.6596 20.7828 24.676L20.7352 24.8168H20.5832C20.5748 24.817 20.5674 24.8224 20.5648 24.8304C20.5621 24.8384 20.5646 24.8471 20.5712 24.8524L20.6912 24.9408L20.646 25.0816C20.6438 25.0897 20.6469 25.0984 20.6538 25.1032C20.6607 25.1081 20.6699 25.108 20.6768 25.1032L20.7968 25.0172L20.9168 25.1032C20.9236 25.1086 20.9332 25.1089 20.9402 25.1039C20.9474 25.0989 20.9504 25.0898 20.9476 25.0816L20.9024 24.9408L21.0224 24.8524C21.0289 24.8471 21.0315 24.8384 21.0288 24.8304C21.0261 24.8224 21.0188 24.817 21.0104 24.8168H20.8628ZM19.1616 24.4452L19.114 24.3044C19.1084 24.2852 19.0844 24.2852 19.0816 24.3052L19.034 24.446H18.886C18.8776 24.4462 18.8702 24.4517 18.8676 24.4596C18.8649 24.4676 18.8674 24.4763 18.874 24.4816L18.994 24.57L18.9448 24.71C18.9426 24.7181 18.9457 24.7268 18.9526 24.7316C18.9595 24.7365 18.9687 24.7365 18.9756 24.7316L19.0956 24.6456L19.2156 24.7316C19.2224 24.737 19.2319 24.7373 19.2391 24.7323C19.2462 24.7274 19.2491 24.7182 19.2464 24.71L19.2012 24.5692L19.3212 24.4808C19.3278 24.4756 19.3303 24.4668 19.3276 24.4588C19.325 24.4508 19.3176 24.4454 19.3092 24.4452H19.1616ZM22.514 24.3044C22.514 24.2943 22.5057 24.286 22.4956 24.286C22.4875 24.286 22.4807 24.2912 22.4781 24.2985C22.4775 24.3003 22.4772 24.3023 22.4772 24.3044L22.4296 24.4452H22.282C22.2788 24.4453 22.2758 24.4461 22.2731 24.4475C22.2687 24.4499 22.2652 24.4539 22.2635 24.4588C22.2609 24.4668 22.2634 24.4756 22.27 24.4808L22.39 24.5692L22.3448 24.71C22.3426 24.7181 22.3457 24.7268 22.3526 24.7316C22.3567 24.7345 22.3616 24.7357 22.3664 24.7351C22.3696 24.7347 22.3728 24.7336 22.3756 24.7316L22.4956 24.6456L22.6156 24.7316C22.6224 24.737 22.632 24.7373 22.6391 24.7323C22.6462 24.7274 22.6492 24.7182 22.6464 24.71L22.6012 24.5692L22.7212 24.4808C22.7277 24.4756 22.7303 24.4668 22.7276 24.4588C22.7249 24.4508 22.7176 24.4454 22.7092 24.4452H22.5616L22.514 24.3044ZM21.43 24.4452L21.3824 24.3044C21.3768 24.2852 21.3504 24.2852 21.3456 24.3044L21.298 24.4452H21.1504C21.1465 24.4453 21.1429 24.4465 21.1398 24.4485C21.1362 24.451 21.1334 24.4545 21.132 24.4588C21.1293 24.4668 21.1318 24.4756 21.1384 24.4808L21.2584 24.5692L21.2132 24.71C21.2116 24.7159 21.2128 24.7221 21.2162 24.7269C21.2175 24.7287 21.2191 24.7303 21.221 24.7316C21.2279 24.7365 21.2371 24.7365 21.244 24.7316L21.364 24.6456L21.484 24.7316C21.4908 24.737 21.5004 24.7373 21.5074 24.7323C21.5146 24.7274 21.5176 24.7182 21.5148 24.71L21.4696 24.5692L21.5896 24.4808C21.5961 24.4756 21.5987 24.4668 21.596 24.4588C21.5933 24.4508 21.586 24.4454 21.5776 24.4452H21.43ZM20.2956 24.4452L20.248 24.3044C20.2424 24.2852 20.216 24.2852 20.2156 24.3052L20.168 24.446H20.02C20.0116 24.4462 20.0042 24.4517 20.0015 24.4596C19.9998 24.4646 20.0002 24.4699 20.0024 24.4745C20.0037 24.4772 20.0056 24.4796 20.008 24.4816L20.128 24.57L20.0788 24.71C20.0766 24.7181 20.0797 24.7268 20.0866 24.7316C20.0935 24.7365 20.1027 24.7365 20.1096 24.7316L20.2296 24.6456L20.3496 24.7316C20.3564 24.737 20.366 24.7373 20.373 24.7323C20.3802 24.7274 20.3832 24.7182 20.3804 24.71L20.3352 24.5692L20.4552 24.4808C20.4617 24.4756 20.4643 24.4668 20.4616 24.4588C20.4589 24.4508 20.4516 24.4454 20.4432 24.4452H20.2956ZM19.7284 24.0872L19.6808 23.9464C19.6752 23.9272 19.6488 23.9272 19.6484 23.9472L19.6008 24.088H19.4528C19.4471 24.0882 19.442 24.0907 19.4384 24.0947C19.4366 24.0967 19.4352 24.099 19.4343 24.1016C19.4316 24.1096 19.4342 24.1183 19.4408 24.1236L19.5608 24.212L19.5116 24.352C19.5094 24.3601 19.5125 24.3688 19.5194 24.3736C19.5263 24.3784 19.5355 24.3784 19.5424 24.3736L19.6624 24.2876L19.7824 24.3736C19.7892 24.379 19.7988 24.3793 19.8058 24.3743C19.813 24.3694 19.816 24.3603 19.8132 24.352L19.768 24.2112L19.888 24.1228C19.8917 24.1198 19.8941 24.1158 19.895 24.1114C19.8958 24.1079 19.8956 24.1043 19.8944 24.1008C19.8931 24.097 19.8907 24.0937 19.8877 24.0913C19.8844 24.0888 19.8803 24.0873 19.876 24.0872H19.7284ZM23.072 23.9352C23.0697 23.9341 23.0671 23.9336 23.0645 23.9336C23.0566 23.9338 23.0499 23.9395 23.0484 23.9472L23.0008 24.088H22.8532C22.8448 24.0882 22.8374 24.0937 22.8347 24.1016C22.832 24.1096 22.8347 24.1183 22.8412 24.1236L22.9612 24.212L22.912 24.352C22.9098 24.3601 22.9129 24.3688 22.9198 24.3736C22.9267 24.3784 22.9359 24.3784 22.9428 24.3736L23.0628 24.2876L23.1828 24.3736C23.1865 24.3765 23.1909 24.378 23.1954 24.3779C23.1992 24.3778 23.203 24.3766 23.2063 24.3743C23.2103 24.3715 23.213 24.3673 23.2141 24.3627C23.2149 24.3593 23.2148 24.3556 23.2136 24.352L23.1684 24.2112L23.2884 24.1228C23.2949 24.1176 23.2975 24.1088 23.2948 24.1008C23.2921 24.0929 23.2848 24.0874 23.2764 24.0872H23.1288L23.0812 23.9464C23.08 23.9413 23.0765 23.9373 23.072 23.9352ZM21.9468 23.9464C21.9468 23.9362 21.9385 23.928 21.9284 23.928C21.9182 23.928 21.91 23.9362 21.91 23.9464L21.8624 24.0872H21.7148C21.7064 24.0874 21.699 24.0929 21.6964 24.1008C21.6937 24.1088 21.6962 24.1176 21.7028 24.1228L21.8228 24.2112L21.7776 24.352C21.7754 24.3601 21.7785 24.3688 21.7854 24.3736C21.7923 24.3784 21.8015 24.3784 21.8084 24.3736L21.9284 24.2876L22.0484 24.3736C22.0515 24.376 22.0551 24.3774 22.0588 24.3778C22.0633 24.3782 22.068 24.3771 22.0719 24.3743C22.079 24.3694 22.082 24.3603 22.0792 24.352L22.034 24.2112L22.154 24.1228C22.1605 24.1176 22.1631 24.1088 22.1604 24.1008C22.1577 24.0929 22.1504 24.0874 22.142 24.0872H21.9944L21.9468 23.9464ZM18.5944 24.0872L18.5468 23.9464C18.5412 23.9272 18.5172 23.9272 18.5144 23.9472L18.4668 24.088H18.3188C18.3104 24.0882 18.303 24.0937 18.3004 24.1016C18.2977 24.1096 18.3002 24.1183 18.3068 24.1236L18.4268 24.212L18.3776 24.352C18.3754 24.3601 18.3785 24.3688 18.3854 24.3736C18.39 24.3768 18.3955 24.3779 18.4008 24.3769C18.4034 24.3763 18.4061 24.3752 18.4084 24.3736L18.5284 24.2876L18.6484 24.3736C18.6552 24.379 18.6647 24.3793 18.6719 24.3743C18.679 24.3694 18.6819 24.3603 18.6792 24.352L18.634 24.2112L18.754 24.1228C18.7606 24.1176 18.7631 24.1088 18.7604 24.1008C18.7578 24.0929 18.7504 24.0874 18.742 24.0872H18.5944ZM20.8628 24.0872L20.8152 23.9464C20.8096 23.9272 20.7832 23.9272 20.7828 23.9464L20.7352 24.0872H20.5832C20.5748 24.0874 20.5674 24.0929 20.5648 24.1008C20.5633 24.105 20.5634 24.1095 20.5647 24.1136C20.5659 24.1172 20.5681 24.1204 20.5712 24.1228L20.6912 24.2112L20.646 24.352C20.6438 24.3601 20.6469 24.3688 20.6538 24.3736C20.6573 24.3761 20.6615 24.3773 20.6656 24.3772C20.6695 24.3772 20.6734 24.376 20.6768 24.3736L20.7968 24.2876L20.9168 24.3736C20.9236 24.379 20.9332 24.3793 20.9402 24.3743C20.9474 24.3694 20.9504 24.3603 20.9476 24.352L20.9024 24.2112L21.0224 24.1228C21.0289 24.1176 21.0315 24.1088 21.0288 24.1008C21.0261 24.0929 21.0188 24.0874 21.0104 24.0872H20.8628ZM19.1616 23.7124L19.114 23.5716C19.1084 23.5552 19.0844 23.5552 19.0816 23.5716L19.034 23.7124H18.882C18.8784 23.7125 18.8749 23.7136 18.872 23.7154C18.8681 23.7178 18.8651 23.7215 18.8635 23.726C18.8608 23.734 18.8634 23.7427 18.87 23.748L18.99 23.8364L18.9448 23.9772C18.9426 23.9853 18.9457 23.994 18.9526 23.9988C18.9595 24.0037 18.9687 24.0036 18.9756 23.9988L19.0956 23.9128L19.2156 23.9988C19.2224 24.0042 19.2319 24.0045 19.2391 23.9995C19.2462 23.9945 19.2491 23.9854 19.2464 23.9772L19.2012 23.8364L19.3212 23.748C19.3278 23.7427 19.3303 23.734 19.3276 23.726C19.325 23.718 19.3176 23.7126 19.3092 23.7124H19.1616ZM21.43 23.7124L21.3824 23.5716C21.3768 23.5552 21.3504 23.5552 21.3456 23.5716L21.298 23.7124H21.1504C21.142 23.7126 21.1346 23.718 21.132 23.726C21.1303 23.7309 21.1307 23.7361 21.1327 23.7407C21.134 23.7435 21.1359 23.746 21.1384 23.748L21.2584 23.8364L21.2132 23.9772C21.211 23.9853 21.2141 23.994 21.221 23.9988C21.2279 24.0037 21.2371 24.0036 21.244 23.9988L21.364 23.9128L21.484 23.9988C21.4871 24.0013 21.4909 24.0027 21.4948 24.0031C21.4991 24.0034 21.5037 24.0022 21.5074 23.9995C21.5146 23.9945 21.5176 23.9854 21.5148 23.9772L21.4696 23.8364L21.5896 23.748C21.5929 23.7453 21.5952 23.7418 21.5963 23.7379C21.5974 23.7341 21.5974 23.7299 21.596 23.726C21.5933 23.718 21.586 23.7126 21.5776 23.7124H21.43ZM20.2956 23.7124L20.248 23.5716C20.2424 23.5552 20.216 23.5552 20.2156 23.5716L20.168 23.7124H20.016C20.0076 23.7126 20.0002 23.718 19.9976 23.726C19.9949 23.734 19.9974 23.7427 20.004 23.748L20.124 23.8364L20.0788 23.9772C20.0766 23.9853 20.0797 23.994 20.0866 23.9988C20.0935 24.0037 20.1027 24.0036 20.1096 23.9988L20.2296 23.9128L20.3496 23.9988C20.3564 24.0042 20.366 24.0045 20.373 23.9995C20.3802 23.9945 20.3832 23.9854 20.3804 23.9772L20.3352 23.8364L20.4552 23.748C20.4617 23.7427 20.4643 23.734 20.4616 23.726C20.4589 23.718 20.4516 23.7126 20.4432 23.7124H20.2956ZM22.5616 23.7124L22.514 23.5716C22.5108 23.5552 22.4844 23.5552 22.4772 23.5716L22.4296 23.7124H22.282C22.2736 23.7126 22.2662 23.718 22.2635 23.726C22.2609 23.734 22.2634 23.7427 22.27 23.748L22.39 23.8364L22.3448 23.9772C22.3426 23.9853 22.3457 23.994 22.3526 23.9988C22.3595 24.0037 22.3687 24.0036 22.3756 23.9988L22.4956 23.9128L22.6156 23.9988C22.6195 24.002 22.6244 24.0034 22.6292 24.0031C22.6327 24.0028 22.6361 24.0016 22.6391 23.9995C22.6462 23.9945 22.6492 23.9854 22.6464 23.9772L22.6012 23.8364L22.7212 23.748C22.7277 23.7427 22.7303 23.734 22.7276 23.726C22.7258 23.7206 22.7219 23.7164 22.7169 23.7142C22.7145 23.7131 22.7119 23.7125 22.7092 23.7124H22.5616ZM20.8628 23.3548L20.8152 23.214C20.8096 23.1976 20.7832 23.1976 20.7828 23.214L20.7352 23.3548H20.5832C20.5748 23.355 20.5674 23.3604 20.5648 23.3684C20.5621 23.3764 20.5646 23.3852 20.5712 23.3904L20.6912 23.4788L20.646 23.6196C20.6443 23.6259 20.6458 23.6325 20.6497 23.6374C20.6509 23.6388 20.6522 23.6401 20.6538 23.6412C20.6581 23.6442 20.6631 23.6454 20.6681 23.6447C20.6711 23.6442 20.6741 23.6431 20.6768 23.6412L20.7968 23.5552L20.9168 23.6412C20.9236 23.6466 20.9332 23.6469 20.9402 23.6419C20.9474 23.6369 20.9504 23.6278 20.9476 23.6196L20.9024 23.4788L21.0224 23.3904C21.0289 23.3852 21.0315 23.3764 21.0288 23.3684C21.0261 23.3604 21.0188 23.355 21.0104 23.3548H20.8628ZM18.5944 23.3548L18.5468 23.214C18.5412 23.1976 18.5172 23.1976 18.5144 23.214L18.4668 23.3548H18.3148C18.3064 23.355 18.299 23.3604 18.2963 23.3684C18.2936 23.3764 18.2962 23.3852 18.3028 23.3904L18.4228 23.4788L18.3776 23.6196C18.3754 23.6277 18.3785 23.6364 18.3854 23.6412C18.3923 23.6461 18.4015 23.6461 18.4084 23.6412L18.5284 23.5552L18.6484 23.6412C18.6552 23.6466 18.6647 23.6469 18.6719 23.6419C18.679 23.6369 18.6819 23.6278 18.6792 23.6196L18.634 23.4788L18.754 23.3904C18.7606 23.3852 18.7631 23.3764 18.7604 23.3684C18.7578 23.3604 18.7504 23.355 18.742 23.3548H18.5944ZM19.73 23.3548L19.6824 23.214C19.6752 23.1976 19.6488 23.1976 19.646 23.214L19.5984 23.3548H19.4512C19.4428 23.355 19.4354 23.3604 19.4327 23.3684C19.4308 23.3742 19.4316 23.3804 19.4347 23.3854C19.4359 23.3873 19.4374 23.389 19.4392 23.3904L19.5592 23.4788L19.514 23.6196C19.5118 23.6277 19.5149 23.6364 19.5218 23.6412C19.5287 23.6461 19.5379 23.6461 19.5448 23.6412L19.6648 23.5552L19.7848 23.6412C19.7916 23.6466 19.8011 23.6469 19.8083 23.6419C19.8154 23.6369 19.8184 23.6278 19.8156 23.6196L19.7704 23.4788L19.8904 23.3904C19.8947 23.387 19.8972 23.3821 19.8978 23.3769C19.8981 23.3741 19.8978 23.3712 19.8969 23.3684C19.8942 23.3604 19.8868 23.355 19.8784 23.3548H19.73ZM21.9944 23.3548L21.9468 23.214C21.9436 23.1976 21.9172 23.1976 21.91 23.214L21.8624 23.3548H21.7148C21.7064 23.355 21.699 23.3604 21.6964 23.3684C21.6937 23.3764 21.6962 23.3852 21.7028 23.3904L21.8228 23.4788L21.7776 23.6196C21.7761 23.625 21.777 23.6306 21.7797 23.6351C21.7811 23.6375 21.783 23.6396 21.7854 23.6412C21.7923 23.6461 21.8015 23.6461 21.8084 23.6412L21.9284 23.5552L22.0484 23.6412C22.0552 23.6466 22.0648 23.6469 22.0719 23.6419C22.079 23.6369 22.082 23.6278 22.0792 23.6196L22.034 23.4788L22.154 23.3904C22.1605 23.3852 22.1631 23.3764 22.1604 23.3684C22.1587 23.3633 22.155 23.3592 22.1504 23.3569C22.1478 23.3556 22.145 23.3549 22.142 23.3548H21.9944ZM23.1288 23.3548L23.0812 23.214C23.078 23.1976 23.0516 23.1976 23.0444 23.214L22.9968 23.3548H22.8492C22.8408 23.355 22.8334 23.3604 22.8307 23.3684C22.8281 23.3764 22.8306 23.3852 22.8372 23.3904L22.9572 23.4788L22.912 23.6196C22.9098 23.6277 22.9129 23.6364 22.9198 23.6412C22.9267 23.6461 22.9359 23.6461 22.9428 23.6412L23.0628 23.5552L23.1828 23.6412C23.1871 23.6447 23.1926 23.6461 23.1979 23.6453C23.2009 23.6448 23.2037 23.6437 23.2063 23.6419C23.2134 23.6369 23.2164 23.6278 23.2136 23.6196L23.1684 23.4788L23.2884 23.3904C23.2949 23.3852 23.2975 23.3764 23.2948 23.3684C23.2921 23.3604 23.2848 23.355 23.2764 23.3548H23.1288ZM21.43 22.9828L21.3824 22.842C21.3768 22.8228 21.3504 22.8228 21.3456 22.842L21.298 22.9828H21.1504C21.142 22.983 21.1346 22.9885 21.132 22.9964C21.1293 23.0044 21.1318 23.0132 21.1384 23.0184L21.2584 23.1068L21.2132 23.2476C21.2119 23.2524 21.2125 23.2574 21.2145 23.2617C21.216 23.2646 21.2182 23.2672 21.221 23.2692C21.2279 23.274 21.2371 23.274 21.244 23.2692L21.364 23.1832L21.484 23.2692C21.4908 23.2746 21.5004 23.2749 21.5074 23.2699C21.5146 23.265 21.5176 23.2559 21.5148 23.2476L21.4696 23.1068L21.5896 23.0184C21.5961 23.0132 21.5987 23.0044 21.596 22.9964C21.5947 22.9926 21.5923 22.9893 21.5893 22.987C21.586 22.9844 21.582 22.9829 21.5776 22.9828H21.43ZM20.2956 22.9828L20.248 22.842C20.2442 22.8292 20.2311 22.8249 20.2228 22.8295C20.2187 22.8318 20.2157 22.8362 20.2156 22.8428L20.168 22.9836H20.02C20.0116 22.9838 20.0042 22.9893 20.0015 22.9972C19.9988 23.0052 20.0014 23.0139 20.008 23.0192L20.128 23.1076L20.0788 23.2476C20.0766 23.2557 20.0797 23.2644 20.0866 23.2692C20.0902 23.2718 20.0945 23.2729 20.0987 23.2728C20.1025 23.2727 20.1063 23.2715 20.1096 23.2692L20.2296 23.1832L20.3496 23.2692C20.3564 23.2746 20.366 23.2749 20.373 23.2699C20.3802 23.265 20.3832 23.2559 20.3804 23.2476L20.3352 23.1068L20.4552 23.0184C20.4617 23.0132 20.4643 23.0044 20.4616 22.9964C20.4589 22.9885 20.4516 22.983 20.4432 22.9828H20.2956ZM19.1616 22.9828L19.114 22.842C19.1084 22.8228 19.0844 22.8228 19.0816 22.8428L19.034 22.9836H18.886C18.8776 22.9838 18.8702 22.9893 18.8676 22.9972C18.8649 23.0052 18.8674 23.0139 18.874 23.0192L18.994 23.1076L18.9448 23.2476C18.9426 23.2557 18.9457 23.2644 18.9526 23.2692C18.9595 23.274 18.9687 23.274 18.9756 23.2692L19.0956 23.1832L19.2156 23.2692C19.2224 23.2746 19.2319 23.2749 19.2391 23.2699C19.2462 23.265 19.2491 23.2559 19.2464 23.2476L19.2012 23.1068L19.3212 23.0184C19.3278 23.0132 19.3303 23.0044 19.3276 22.9964C19.325 22.9885 19.3176 22.983 19.3092 22.9828H19.1616ZM22.514 22.842C22.514 22.8354 22.5105 22.8293 22.5048 22.8261C22.4991 22.8228 22.4921 22.8228 22.4864 22.8261C22.4807 22.8293 22.4772 22.8354 22.4772 22.842L22.4296 22.9828H22.282C22.2736 22.983 22.2662 22.9885 22.2635 22.9964C22.2609 23.0044 22.2634 23.0132 22.27 23.0184L22.39 23.1068L22.3448 23.2476C22.3426 23.2557 22.3457 23.2644 22.3526 23.2692C22.3595 23.274 22.3687 23.274 22.3756 23.2692L22.4956 23.1832L22.6156 23.2692C22.6188 23.2718 22.6227 23.2733 22.6267 23.2735C22.631 23.2737 22.6354 23.2725 22.6391 23.2699C22.6462 23.265 22.6492 23.2559 22.6464 23.2476L22.6012 23.1068L22.7212 23.0184C22.7277 23.0132 22.7303 23.0044 22.7276 22.9964C22.7249 22.9885 22.7176 22.983 22.7092 22.9828H22.5616L22.514 22.842ZM18.5944 22.6252L18.5468 22.4844C18.5412 22.4652 18.5172 22.4652 18.5144 22.4852L18.4668 22.626H18.3188C18.3104 22.6262 18.303 22.6317 18.3004 22.6396C18.2977 22.6476 18.3002 22.6563 18.3068 22.6616L18.4268 22.75L18.3776 22.89C18.3754 22.8981 18.3785 22.9068 18.3854 22.9116C18.3923 22.9164 18.4015 22.9164 18.4084 22.9116L18.5284 22.8256L18.6484 22.9116C18.6552 22.917 18.6647 22.9173 18.6719 22.9124C18.679 22.9073 18.6819 22.8983 18.6792 22.89L18.634 22.7492L18.754 22.6608C18.7606 22.6555 18.7631 22.6468 18.7604 22.6388C18.7578 22.6309 18.7504 22.6254 18.742 22.6252H18.5944ZM19.7284 22.6252L19.6808 22.4844C19.6775 22.4732 19.6672 22.4685 19.6591 22.4706C19.6533 22.472 19.6486 22.4769 19.6484 22.4852L19.6008 22.626H19.4528C19.4444 22.6262 19.437 22.6317 19.4343 22.6396C19.4316 22.6476 19.4342 22.6563 19.4408 22.6616L19.5608 22.75L19.5116 22.89C19.5094 22.8981 19.5125 22.9068 19.5194 22.9116C19.5224 22.9137 19.5258 22.9149 19.5292 22.9152C19.5338 22.9156 19.5385 22.9144 19.5424 22.9116L19.6624 22.8256L19.7824 22.9116C19.7892 22.917 19.7988 22.9173 19.8058 22.9124C19.813 22.9073 19.816 22.8983 19.8132 22.89L19.768 22.7492L19.888 22.6608C19.8915 22.658 19.8938 22.6542 19.8948 22.6501C19.8958 22.6464 19.8957 22.6425 19.8944 22.6388C19.8917 22.6309 19.8844 22.6254 19.876 22.6252H19.7284ZM20.8628 22.6252L20.8152 22.4844C20.8096 22.4652 20.7832 22.4652 20.7828 22.4844L20.7352 22.6252H20.5832C20.5748 22.6254 20.5674 22.6309 20.5648 22.6388C20.5621 22.6468 20.5646 22.6555 20.5712 22.6608L20.6912 22.7492L20.646 22.89C20.6449 22.8942 20.6451 22.8985 20.6466 22.9023C20.648 22.906 20.6505 22.9093 20.6538 22.9116C20.6565 22.9135 20.6595 22.9146 20.6626 22.915C20.6675 22.9157 20.6725 22.9146 20.6768 22.9116L20.7968 22.8256L20.9168 22.9116C20.9236 22.917 20.9332 22.9173 20.9402 22.9124C20.9474 22.9073 20.9504 22.8983 20.9476 22.89L20.9024 22.7492L21.0224 22.6608C21.0289 22.6555 21.0315 22.6468 21.0288 22.6388C21.0261 22.6309 21.0188 22.6254 21.0104 22.6252H20.8628ZM21.9468 22.4844C21.9468 22.4778 21.9433 22.4717 21.9376 22.4685C21.9354 22.4672 21.9331 22.4665 21.9307 22.4662C21.9268 22.4656 21.9227 22.4664 21.9192 22.4685C21.9135 22.4717 21.91 22.4778 21.91 22.4844L21.8624 22.6252H21.7148C21.7064 22.6254 21.699 22.6309 21.6964 22.6388C21.6937 22.6468 21.6962 22.6555 21.7028 22.6608L21.8228 22.7492L21.7776 22.89C21.7754 22.8981 21.7785 22.9068 21.7854 22.9116C21.7923 22.9164 21.8015 22.9164 21.8084 22.9116L21.9284 22.8256L22.0484 22.9116C22.0513 22.9139 22.0547 22.9153 22.0582 22.9157C22.0629 22.9163 22.0678 22.9152 22.0719 22.9124C22.079 22.9073 22.082 22.8983 22.0792 22.89L22.034 22.7492L22.154 22.6608C22.1605 22.6555 22.1631 22.6468 22.1604 22.6388C22.1577 22.6309 22.1504 22.6254 22.142 22.6252H21.9944L21.9468 22.4844ZM23.0812 22.4844C23.0793 22.4767 23.0723 22.4714 23.0645 22.4716C23.0566 22.4718 23.0499 22.4775 23.0484 22.4852L23.0008 22.626H22.8532C22.8495 22.6261 22.8461 22.6272 22.8431 22.629C22.8392 22.6314 22.8362 22.6351 22.8347 22.6396C22.832 22.6476 22.8347 22.6563 22.8412 22.6616L22.9612 22.75L22.912 22.89C22.9098 22.8981 22.9129 22.9068 22.9198 22.9116C22.9267 22.9164 22.9359 22.9164 22.9428 22.9116L23.0628 22.8256L23.1828 22.9116C23.1852 22.9135 23.1879 22.9147 23.1907 22.9154C23.196 22.9166 23.2017 22.9156 23.2063 22.9124C23.2134 22.9073 23.2164 22.8983 23.2136 22.89L23.1684 22.7492L23.2884 22.6608C23.2949 22.6555 23.2975 22.6468 23.2948 22.6388C23.2921 22.6309 23.2848 22.6254 23.2764 22.6252H23.1288L23.0812 22.4844Z" fill="#0D47A1"/>
<path d="M18.5468 25.4084L18.5944 25.5492H18.742C18.7504 25.5494 18.7578 25.5548 18.7604 25.5628C18.7631 25.5708 18.7605 25.5796 18.754 25.5848L18.634 25.6732L18.6792 25.814C18.6819 25.8222 18.679 25.8313 18.6719 25.8363C18.6647 25.8413 18.6552 25.841 18.6484 25.8356L18.5284 25.7496L18.4084 25.8356C18.4015 25.8405 18.3923 25.8405 18.3854 25.8356C18.3785 25.8308 18.3754 25.8221 18.3776 25.814L18.4268 25.674L18.3068 25.5856C18.3002 25.5804 18.2977 25.5716 18.3004 25.5636C18.303 25.5557 18.3104 25.5502 18.3188 25.55H18.4668L18.5144 25.4092C18.5172 25.3892 18.5412 25.3892 18.5468 25.4084ZM23.0645 25.3956C23.0723 25.3954 23.0793 25.4008 23.0812 25.4084L23.1288 25.5492H23.2764C23.2848 25.5494 23.2921 25.5548 23.2948 25.5628C23.2975 25.5708 23.2949 25.5796 23.2884 25.5848L23.1684 25.6732L23.2136 25.814C23.2164 25.8222 23.2134 25.8313 23.2063 25.8363C23.1992 25.8413 23.1896 25.841 23.1828 25.8356L23.0628 25.7496L22.9428 25.8356C22.9359 25.8405 22.9267 25.8405 22.9198 25.8356C22.9129 25.8308 22.9098 25.8221 22.912 25.814L22.9612 25.674L22.8412 25.5856C22.8346 25.5804 22.832 25.5716 22.8347 25.5636C22.8374 25.5557 22.8448 25.5502 22.8532 25.55H23.0008L23.0484 25.4092C23.0499 25.4015 23.0566 25.3958 23.0645 25.3956ZM21.9301 25.3956C21.9379 25.3954 21.9449 25.4008 21.9468 25.4084L21.9944 25.5492H22.142C22.1504 25.5494 22.1577 25.5548 22.1604 25.5628C22.1631 25.5708 22.1605 25.5796 22.154 25.5848L22.034 25.6732L22.0792 25.814C22.082 25.8222 22.079 25.8313 22.0719 25.8363C22.0648 25.8413 22.0552 25.841 22.0484 25.8356L21.9284 25.7496L21.8084 25.8356C21.8015 25.8405 21.7923 25.8405 21.7854 25.8356C21.7785 25.8308 21.7754 25.8221 21.7776 25.814L21.8268 25.674L21.7068 25.5856C21.7003 25.5804 21.6976 25.5716 21.7003 25.5636C21.703 25.5557 21.7104 25.5502 21.7188 25.55H21.8664L21.914 25.4092C21.9155 25.4015 21.9222 25.3958 21.9301 25.3956ZM19.6808 25.4084L19.7284 25.5492H19.876C19.8844 25.5494 19.8917 25.5548 19.8944 25.5628C19.8971 25.5708 19.8946 25.5796 19.888 25.5848L19.768 25.6732L19.8132 25.814C19.816 25.8222 19.813 25.8313 19.8058 25.8363C19.7988 25.8413 19.7892 25.841 19.7824 25.8356L19.6624 25.7496L19.5424 25.8356C19.5355 25.8405 19.5263 25.8405 19.5194 25.8356C19.5125 25.8308 19.5094 25.8221 19.5116 25.814L19.5608 25.674L19.4408 25.5856C19.4342 25.5804 19.4316 25.5716 19.4343 25.5636C19.437 25.5557 19.4444 25.5502 19.4528 25.55H19.6008L19.6484 25.4092C19.6488 25.3892 19.6752 25.3892 19.6808 25.4084ZM20.8152 25.4084L20.8628 25.5492H21.0104C21.0188 25.5494 21.0261 25.5548 21.0288 25.5628C21.0315 25.5708 21.0289 25.5796 21.0224 25.5848L20.9024 25.6732L20.9476 25.814C20.9504 25.8222 20.9474 25.8313 20.9402 25.8363C20.9332 25.8413 20.9236 25.841 20.9168 25.8356L20.7968 25.7496L20.6768 25.8356C20.6699 25.8405 20.6607 25.8405 20.6538 25.8356C20.6469 25.8308 20.6438 25.8221 20.646 25.814L20.6952 25.674L20.5752 25.5856C20.5686 25.5804 20.566 25.5716 20.5687 25.5636C20.5714 25.5557 20.5788 25.5502 20.5872 25.55H20.7352L20.7828 25.4092C20.7832 25.3892 20.8096 25.3892 20.8152 25.4084ZM19.114 25.0364L19.1616 25.1772H19.3092C19.3176 25.1774 19.325 25.1829 19.3276 25.1908C19.3303 25.1988 19.3278 25.2076 19.3212 25.2128L19.2012 25.3012L19.2464 25.442C19.2491 25.4503 19.2462 25.4594 19.2391 25.4643C19.2319 25.4693 19.2224 25.469 19.2156 25.4636L19.0956 25.3776L18.9756 25.4636C18.9687 25.4684 18.9595 25.4684 18.9526 25.4636C18.9457 25.4588 18.9426 25.4501 18.9448 25.442L18.99 25.3012L18.87 25.2128C18.8634 25.2076 18.8608 25.1988 18.8635 25.1908C18.8662 25.1829 18.8736 25.1774 18.882 25.1772H19.034L19.0816 25.0364C19.0844 25.0172 19.1084 25.0172 19.114 25.0364ZM22.5048 25.0205C22.5105 25.0237 22.514 25.0298 22.514 25.0364L22.5616 25.1772H22.7092C22.7176 25.1774 22.7249 25.1829 22.7276 25.1908C22.7303 25.1988 22.7277 25.2076 22.7212 25.2128L22.6012 25.3012L22.6464 25.442C22.6492 25.4503 22.6462 25.4593 22.6391 25.4643C22.632 25.4693 22.6224 25.469 22.6156 25.4636L22.4956 25.3776L22.3756 25.4636C22.3687 25.4684 22.3595 25.4684 22.3526 25.4636C22.3457 25.4588 22.3426 25.4501 22.3448 25.442L22.39 25.3012L22.27 25.2128C22.2634 25.2076 22.2609 25.1988 22.2635 25.1908C22.2662 25.1829 22.2736 25.1774 22.282 25.1772H22.4296L22.4772 25.0364C22.4772 25.0298 22.4807 25.0237 22.4864 25.0205C22.4921 25.0172 22.4991 25.0172 22.5048 25.0205ZM21.3824 25.0364L21.43 25.1772H21.5776C21.586 25.1774 21.5933 25.1829 21.596 25.1908C21.5987 25.1988 21.5961 25.2076 21.5896 25.2128L21.4696 25.3012L21.5148 25.442C21.5176 25.4503 21.5146 25.4594 21.5074 25.4643C21.5004 25.4693 21.4908 25.469 21.484 25.4636L21.364 25.3776L21.244 25.4636C21.2371 25.4684 21.2279 25.4684 21.221 25.4636C21.2141 25.4588 21.211 25.4501 21.2132 25.442L21.2584 25.3012L21.1384 25.2128C21.1318 25.2075 21.1293 25.1988 21.132 25.1908C21.1346 25.1828 21.142 25.1774 21.1504 25.1772H21.298L21.3456 25.0364C21.3504 25.0172 21.3768 25.0172 21.3824 25.0364ZM20.248 25.0364L20.2956 25.1772H20.4432C20.4516 25.1774 20.4589 25.1829 20.4616 25.1908C20.4643 25.1988 20.4617 25.2076 20.4552 25.2128L20.3352 25.3012L20.3804 25.442C20.3832 25.4503 20.3802 25.4594 20.373 25.4643C20.366 25.4693 20.3564 25.469 20.3496 25.4636L20.2296 25.3776L20.1096 25.4636C20.1027 25.4684 20.0935 25.4685 20.0866 25.4636C20.0797 25.4588 20.0766 25.4501 20.0788 25.442L20.124 25.3012L20.004 25.2128C19.9974 25.2076 19.9949 25.1988 19.9976 25.1908C20.0002 25.1829 20.0076 25.1774 20.016 25.1772H20.168L20.2156 25.0364C20.216 25.0172 20.2424 25.0172 20.248 25.0364ZM19.6808 24.676L19.7284 24.8168H19.876C19.8844 24.817 19.8917 24.8224 19.8944 24.8304C19.8971 24.8384 19.8945 24.8471 19.888 24.8524L19.768 24.9408L19.8132 25.0816C19.816 25.0898 19.813 25.0989 19.8058 25.1039C19.7987 25.1089 19.7892 25.1086 19.7824 25.1032L19.6624 25.0172L19.5424 25.1032C19.5355 25.108 19.5263 25.1081 19.5194 25.1032C19.5125 25.0984 19.5094 25.0897 19.5116 25.0816L19.5568 24.9408L19.4368 24.8524C19.4302 24.8471 19.4277 24.8384 19.4304 24.8304C19.433 24.8224 19.4404 24.817 19.4488 24.8168H19.6008L19.6484 24.676C19.6488 24.6596 19.6752 24.6596 19.6808 24.676ZM23.0812 24.676L23.1288 24.8168H23.2764C23.2848 24.817 23.2921 24.8224 23.2948 24.8304C23.2975 24.8384 23.2949 24.8471 23.2884 24.8524L23.1684 24.9408L23.2136 25.0816C23.2164 25.0898 23.2134 25.0989 23.2063 25.1039C23.1992 25.1089 23.1896 25.1086 23.1828 25.1032L23.0628 25.0172L22.9428 25.1032C22.9359 25.108 22.9267 25.1081 22.9198 25.1032C22.9129 25.0984 22.9098 25.0897 22.912 25.0816L22.9572 24.9408L22.8372 24.8524C22.8306 24.8471 22.8281 24.8384 22.8307 24.8304C22.8334 24.8224 22.8408 24.817 22.8492 24.8168H22.9968L23.0444 24.676C23.0516 24.6596 23.078 24.6596 23.0812 24.676ZM18.5468 24.676L18.5944 24.8168H18.742C18.7504 24.817 18.7578 24.8224 18.7604 24.8304C18.7631 24.8384 18.7606 24.8471 18.754 24.8524L18.634 24.9408L18.6792 25.0816C18.6819 25.0898 18.679 25.0989 18.6719 25.1039C18.6647 25.1089 18.6552 25.1086 18.6484 25.1032L18.5284 25.0172L18.4084 25.1032C18.4015 25.108 18.3923 25.1081 18.3854 25.1032C18.3785 25.0984 18.3754 25.0897 18.3776 25.0816L18.4228 24.9408L18.3028 24.8524C18.2962 24.8471 18.2936 24.8384 18.2963 24.8304C18.299 24.8224 18.3064 24.817 18.3148 24.8168H18.4668L18.5144 24.676C18.5172 24.6596 18.5412 24.6596 18.5468 24.676ZM21.9468 24.676L21.9944 24.8168H22.142C22.1504 24.817 22.1577 24.8224 22.1604 24.8304C22.1631 24.8384 22.1605 24.8471 22.154 24.8524L22.034 24.9408L22.0792 25.0816C22.082 25.0898 22.079 25.0989 22.0719 25.1039C22.0648 25.1089 22.0552 25.1086 22.0484 25.1032L21.9284 25.0172L21.8084 25.1032C21.8015 25.108 21.7923 25.1081 21.7854 25.1032C21.7785 25.0984 21.7754 25.0897 21.7776 25.0816L21.8228 24.9408L21.7028 24.8524C21.6962 24.8471 21.6937 24.8384 21.6964 24.8304C21.699 24.8225 21.7064 24.817 21.7148 24.8168H21.8624L21.91 24.676C21.9172 24.6596 21.9436 24.6596 21.9468 24.676ZM20.8152 24.676L20.8628 24.8168H21.0104C21.0188 24.817 21.0261 24.8224 21.0288 24.8304C21.0315 24.8384 21.0289 24.8471 21.0224 24.8524L20.9024 24.9408L20.9476 25.0816C20.9504 25.0898 20.9474 25.0989 20.9402 25.1039C20.9332 25.1089 20.9236 25.1086 20.9168 25.1032L20.7968 25.0172L20.6768 25.1032C20.6699 25.108 20.6607 25.1081 20.6538 25.1032C20.6469 25.0984 20.6438 25.0897 20.646 25.0816L20.6912 24.9408L20.5712 24.8524C20.5646 24.8471 20.5621 24.8384 20.5648 24.8304C20.5674 24.8224 20.5748 24.817 20.5832 24.8168H20.7352L20.7828 24.676C20.7832 24.6596 20.8096 24.6596 20.8152 24.676ZM19.114 24.3044L19.1616 24.4452H19.3092C19.3176 24.4454 19.325 24.4508 19.3276 24.4588C19.3303 24.4668 19.3278 24.4756 19.3212 24.4808L19.2012 24.5692L19.2464 24.71C19.2491 24.7182 19.2462 24.7274 19.2391 24.7323C19.2319 24.7373 19.2224 24.737 19.2156 24.7316L19.0956 24.6456L18.9756 24.7316C18.9687 24.7365 18.9595 24.7365 18.9526 24.7316C18.9457 24.7268 18.9426 24.7181 18.9448 24.71L18.994 24.57L18.874 24.4816C18.8674 24.4763 18.8649 24.4676 18.8676 24.4596C18.8702 24.4517 18.8776 24.4462 18.886 24.446H19.034L19.0816 24.3052C19.0844 24.2852 19.1084 24.2852 19.114 24.3044ZM22.4956 24.286C22.5057 24.286 22.514 24.2943 22.514 24.3044L22.5616 24.4452H22.7092C22.7176 24.4454 22.7249 24.4508 22.7276 24.4588C22.7303 24.4668 22.7277 24.4756 22.7212 24.4808L22.6012 24.5692L22.6464 24.71C22.6492 24.7182 22.6462 24.7274 22.6391 24.7323C22.632 24.7373 22.6224 24.737 22.6156 24.7316L22.4956 24.6456L22.3756 24.7316C22.3687 24.7364 22.3595 24.7364 22.3526 24.7316C22.3457 24.7268 22.3426 24.7181 22.3448 24.71L22.39 24.5692L22.27 24.4808C22.2634 24.4756 22.2609 24.4668 22.2635 24.4588C22.2662 24.4508 22.2736 24.4454 22.282 24.4452H22.4296L22.4772 24.3044C22.4772 24.2943 22.4854 24.286 22.4956 24.286ZM21.3824 24.3044L21.43 24.4452H21.5776C21.586 24.4454 21.5933 24.4508 21.596 24.4588C21.5987 24.4668 21.5961 24.4756 21.5896 24.4808L21.4696 24.5692L21.5148 24.71C21.5176 24.7182 21.5146 24.7274 21.5074 24.7323C21.5004 24.7373 21.4908 24.737 21.484 24.7316L21.364 24.6456L21.244 24.7316C21.2371 24.7365 21.2279 24.7365 21.221 24.7316C21.2141 24.7268 21.211 24.7181 21.2132 24.71L21.2584 24.5692L21.1384 24.4808C21.1318 24.4756 21.1293 24.4668 21.132 24.4588C21.1346 24.4508 21.142 24.4454 21.1504 24.4452H21.298L21.3456 24.3044C21.3504 24.2852 21.3768 24.2852 21.3824 24.3044ZM20.248 24.3044L20.2956 24.4452H20.4432C20.4516 24.4454 20.4589 24.4508 20.4616 24.4588C20.4643 24.4668 20.4617 24.4756 20.4552 24.4808L20.3352 24.5692L20.3804 24.71C20.3832 24.7182 20.3802 24.7274 20.373 24.7323C20.366 24.7373 20.3564 24.737 20.3496 24.7316L20.2296 24.6456L20.1096 24.7316C20.1027 24.7365 20.0935 24.7365 20.0866 24.7316C20.0797 24.7268 20.0766 24.7181 20.0788 24.71L20.128 24.57L20.008 24.4816C20.0014 24.4763 19.9988 24.4676 20.0015 24.4596C20.0042 24.4517 20.0116 24.4462 20.02 24.446H20.168L20.2156 24.3052C20.216 24.2852 20.2424 24.2852 20.248 24.3044ZM19.6808 23.9464L19.7284 24.0872H19.876C19.8844 24.0874 19.8917 24.0928 19.8944 24.1008C19.8971 24.1088 19.8946 24.1176 19.888 24.1228L19.768 24.2112L19.8132 24.352C19.816 24.3603 19.813 24.3694 19.8058 24.3743C19.7988 24.3793 19.7892 24.379 19.7824 24.3736L19.6624 24.2876L19.5424 24.3736C19.5355 24.3784 19.5263 24.3784 19.5194 24.3736C19.5125 24.3688 19.5094 24.3601 19.5116 24.352L19.5608 24.212L19.4408 24.1236C19.4342 24.1183 19.4316 24.1096 19.4343 24.1016C19.437 24.0937 19.4444 24.0882 19.4528 24.088H19.6008L19.6484 23.9472C19.6488 23.9272 19.6752 23.9272 19.6808 23.9464ZM23.0645 23.9336C23.0723 23.9334 23.0793 23.9388 23.0812 23.9464L23.1288 24.0872H23.2764C23.2848 24.0874 23.2921 24.0929 23.2948 24.1008C23.2975 24.1088 23.2949 24.1176 23.2884 24.1228L23.1684 24.2112L23.2136 24.352C23.2164 24.3602 23.2134 24.3693 23.2063 24.3743C23.1992 24.3793 23.1896 24.379 23.1828 24.3736L23.0628 24.2876L22.9428 24.3736C22.9359 24.3784 22.9267 24.3784 22.9198 24.3736C22.9129 24.3688 22.9098 24.3601 22.912 24.352L22.9612 24.212L22.8412 24.1236C22.8347 24.1183 22.832 24.1096 22.8347 24.1016C22.8374 24.0937 22.8448 24.0882 22.8532 24.088H23.0008L23.0484 23.9472C23.0499 23.9395 23.0566 23.9338 23.0645 23.9336ZM21.9284 23.928C21.9385 23.928 21.9468 23.9362 21.9468 23.9464L21.9944 24.0872H22.142C22.1504 24.0874 22.1577 24.0929 22.1604 24.1008C22.1631 24.1088 22.1605 24.1176 22.154 24.1228L22.034 24.2112L22.0792 24.352C22.082 24.3603 22.079 24.3694 22.0719 24.3743C22.0648 24.3793 22.0552 24.379 22.0484 24.3736L21.9284 24.2876L21.8084 24.3736C21.8015 24.3784 21.7923 24.3784 21.7854 24.3736C21.7785 24.3688 21.7754 24.3601 21.7776 24.352L21.8228 24.2112L21.7028 24.1228C21.6962 24.1176 21.6937 24.1088 21.6964 24.1008C21.699 24.0929 21.7064 24.0874 21.7148 24.0872H21.8624L21.91 23.9464C21.91 23.9362 21.9182 23.928 21.9284 23.928ZM18.5468 23.9464L18.5944 24.0872H18.742C18.7504 24.0874 18.7578 24.0929 18.7604 24.1008C18.7631 24.1088 18.7606 24.1176 18.754 24.1228L18.634 24.2112L18.6792 24.352C18.6819 24.3603 18.679 24.3694 18.6719 24.3743C18.6647 24.3793 18.6552 24.379 18.6484 24.3736L18.5284 24.2876L18.4084 24.3736C18.4015 24.3784 18.3923 24.3785 18.3854 24.3736C18.3785 24.3688 18.3754 24.3601 18.3776 24.352L18.4268 24.212L18.3068 24.1236C18.3002 24.1183 18.2977 24.1096 18.3004 24.1016C18.303 24.0937 18.3104 24.0882 18.3188 24.088H18.4668L18.5144 23.9472C18.5172 23.9272 18.5412 23.9272 18.5468 23.9464ZM20.8152 23.9464L20.8628 24.0872H21.0104C21.0188 24.0874 21.0261 24.0929 21.0288 24.1008C21.0315 24.1088 21.0289 24.1176 21.0224 24.1228L20.9024 24.2112L20.9476 24.352C20.9504 24.3603 20.9474 24.3694 20.9402 24.3743C20.9332 24.3793 20.9236 24.379 20.9168 24.3736L20.7968 24.2876L20.6768 24.3736C20.6699 24.3784 20.6607 24.3785 20.6538 24.3736C20.6469 24.3688 20.6438 24.3601 20.646 24.352L20.6912 24.2112L20.5712 24.1228C20.5646 24.1176 20.5621 24.1088 20.5648 24.1008C20.5674 24.0929 20.5748 24.0874 20.5832 24.0872H20.7352L20.7828 23.9464C20.7832 23.9272 20.8096 23.9272 20.8152 23.9464ZM19.114 23.5716L19.1616 23.7124H19.3092C19.3176 23.7126 19.325 23.718 19.3276 23.726C19.3303 23.734 19.3278 23.7427 19.3212 23.748L19.2012 23.8364L19.2464 23.9772C19.2491 23.9854 19.2462 23.9945 19.2391 23.9995C19.2319 24.0045 19.2224 24.0042 19.2156 23.9988L19.0956 23.9128L18.9756 23.9988C18.9687 24.0036 18.9595 24.0037 18.9526 23.9988C18.9457 23.994 18.9426 23.9853 18.9448 23.9772L18.99 23.8364L18.87 23.748C18.8634 23.7427 18.8608 23.734 18.8635 23.726C18.8662 23.7181 18.8736 23.7126 18.882 23.7124H19.034L19.0816 23.5716C19.0844 23.5552 19.1084 23.5552 19.114 23.5716ZM21.3824 23.5716L21.43 23.7124H21.5776C21.586 23.7126 21.5933 23.718 21.596 23.726C21.5987 23.734 21.5962 23.7428 21.5896 23.748L21.4696 23.8364L21.5148 23.9772C21.5176 23.9854 21.5146 23.9945 21.5074 23.9995C21.5003 24.0045 21.4908 24.0042 21.484 23.9988L21.364 23.9128L21.244 23.9988C21.2371 24.0036 21.2279 24.0037 21.221 23.9988C21.2141 23.994 21.211 23.9853 21.2132 23.9772L21.2584 23.8364L21.1384 23.748C21.1318 23.7428 21.1293 23.734 21.132 23.726C21.1346 23.718 21.142 23.7126 21.1504 23.7124H21.298L21.3456 23.5716C21.3504 23.5552 21.3768 23.5552 21.3824 23.5716ZM20.248 23.5716L20.2956 23.7124H20.4432C20.4516 23.7126 20.4589 23.718 20.4616 23.726C20.4643 23.734 20.4617 23.7427 20.4552 23.748L20.3352 23.8364L20.3804 23.9772C20.3832 23.9854 20.3802 23.9945 20.373 23.9995C20.366 24.0045 20.3564 24.0042 20.3496 23.9988L20.2296 23.9128L20.1096 23.9988C20.1027 24.0036 20.0935 24.0037 20.0866 23.9988C20.0797 23.994 20.0766 23.9853 20.0788 23.9772L20.124 23.8364L20.004 23.748C19.9974 23.7427 19.9949 23.734 19.9976 23.726C20.0002 23.718 20.0076 23.7126 20.016 23.7124H20.168L20.2156 23.5716C20.216 23.5552 20.2424 23.5552 20.248 23.5716ZM22.514 23.5716L22.5616 23.7124H22.7092C22.7176 23.7126 22.7249 23.7181 22.7276 23.726C22.7303 23.734 22.7277 23.7427 22.7212 23.748L22.6012 23.8364L22.6464 23.9772C22.6492 23.9854 22.6462 23.9945 22.6391 23.9995C22.632 24.0045 22.6224 24.0042 22.6156 23.9988L22.4956 23.9128L22.3756 23.9988C22.3687 24.0036 22.3595 24.0037 22.3526 23.9988C22.3457 23.994 22.3426 23.9853 22.3448 23.9772L22.39 23.8364L22.27 23.748C22.2634 23.7427 22.2609 23.734 22.2635 23.726C22.2662 23.718 22.2736 23.7126 22.282 23.7124H22.4296L22.4772 23.5716C22.4844 23.5552 22.5108 23.5552 22.514 23.5716ZM20.8152 23.214L20.8628 23.3548H21.0104C21.0188 23.355 21.0261 23.3604 21.0288 23.3684C21.0315 23.3764 21.0289 23.3852 21.0224 23.3904L20.9024 23.4788L20.9476 23.6196C20.9504 23.6278 20.9474 23.6369 20.9402 23.6419C20.9332 23.6469 20.9236 23.6466 20.9168 23.6412L20.7968 23.5552L20.6768 23.6412C20.6699 23.646 20.6607 23.646 20.6538 23.6412C20.6469 23.6364 20.6438 23.6277 20.646 23.6196L20.6912 23.4788L20.5712 23.3904C20.5646 23.3852 20.5621 23.3764 20.5648 23.3684C20.5674 23.3604 20.5748 23.355 20.5832 23.3548H20.7352L20.7828 23.214C20.7832 23.1976 20.8096 23.1976 20.8152 23.214ZM18.5468 23.214L18.5944 23.3548H18.742C18.7504 23.355 18.7578 23.3604 18.7604 23.3684C18.7631 23.3764 18.7606 23.3852 18.754 23.3904L18.634 23.4788L18.6792 23.6196C18.6819 23.6278 18.679 23.6369 18.6719 23.6419C18.6647 23.6469 18.6552 23.6466 18.6484 23.6412L18.5284 23.5552L18.4084 23.6412C18.4015 23.6461 18.3923 23.6461 18.3854 23.6412C18.3785 23.6364 18.3754 23.6277 18.3776 23.6196L18.4228 23.4788L18.3028 23.3904C18.2962 23.3852 18.2936 23.3764 18.2963 23.3684C18.299 23.3604 18.3064 23.355 18.3148 23.3548H18.4668L18.5144 23.214C18.5172 23.1976 18.5412 23.1976 18.5468 23.214ZM19.6824 23.214L19.73 23.3548H19.8784C19.8868 23.355 19.8942 23.3604 19.8969 23.3684C19.8995 23.3764 19.8969 23.3852 19.8904 23.3904L19.7704 23.4788L19.8156 23.6196C19.8184 23.6278 19.8154 23.6369 19.8083 23.6419C19.8011 23.6469 19.7916 23.6466 19.7848 23.6412L19.6648 23.5552L19.5448 23.6412C19.5379 23.6461 19.5287 23.6461 19.5218 23.6412C19.5149 23.6364 19.5118 23.6277 19.514 23.6196L19.5592 23.4788L19.4392 23.3904C19.4327 23.3852 19.4301 23.3764 19.4327 23.3684C19.4354 23.3604 19.4428 23.355 19.4512 23.3548H19.5984L19.646 23.214C19.6488 23.1976 19.6752 23.1976 19.6824 23.214ZM21.9468 23.214L21.9944 23.3548H22.142C22.1504 23.355 22.1577 23.3605 22.1604 23.3684C22.1631 23.3764 22.1605 23.3852 22.154 23.3904L22.034 23.4788L22.0792 23.6196C22.082 23.6278 22.079 23.6369 22.0719 23.6419C22.0648 23.6469 22.0552 23.6466 22.0484 23.6412L21.9284 23.5552L21.8084 23.6412C21.8015 23.6461 21.7923 23.6461 21.7854 23.6412C21.7785 23.6364 21.7754 23.6277 21.7776 23.6196L21.8228 23.4788L21.7028 23.3904C21.6962 23.3852 21.6937 23.3764 21.6964 23.3684C21.699 23.3604 21.7064 23.355 21.7148 23.3548H21.8624L21.91 23.214C21.9172 23.1976 21.9436 23.1976 21.9468 23.214ZM23.0812 23.214L23.1288 23.3548H23.2764C23.2848 23.355 23.2921 23.3604 23.2948 23.3684C23.2975 23.3764 23.2949 23.3852 23.2884 23.3904L23.1684 23.4788L23.2136 23.6196C23.2164 23.6278 23.2134 23.6369 23.2063 23.6419C23.1992 23.6469 23.1896 23.6466 23.1828 23.6412L23.0628 23.5552L22.9428 23.6412C22.9359 23.6461 22.9267 23.6461 22.9198 23.6412C22.9129 23.6364 22.9098 23.6277 22.912 23.6196L22.9572 23.4788L22.8372 23.3904C22.8306 23.3852 22.8281 23.3764 22.8307 23.3684C22.8334 23.3604 22.8408 23.355 22.8492 23.3548H22.9968L23.0444 23.214C23.0516 23.1976 23.078 23.1976 23.0812 23.214ZM21.3824 22.842L21.43 22.9828H21.5776C21.586 22.983 21.5933 22.9884 21.596 22.9964C21.5987 23.0044 21.5961 23.0132 21.5896 23.0184L21.4696 23.1068L21.5148 23.2476C21.5176 23.2559 21.5146 23.265 21.5074 23.2699C21.5004 23.2749 21.4908 23.2746 21.484 23.2692L21.364 23.1832L21.244 23.2692C21.2371 23.274 21.2279 23.274 21.221 23.2692C21.2141 23.2644 21.211 23.2557 21.2132 23.2476L21.2584 23.1068L21.1384 23.0184C21.1318 23.0132 21.1293 23.0044 21.132 22.9964C21.1346 22.9885 21.142 22.983 21.1504 22.9828H21.298L21.3456 22.842C21.3504 22.8228 21.3768 22.8228 21.3824 22.842ZM20.248 22.842L20.2956 22.9828H20.4432C20.4516 22.983 20.4589 22.9885 20.4616 22.9964C20.4643 23.0044 20.4617 23.0132 20.4552 23.0184L20.3352 23.1068L20.3804 23.2476C20.3832 23.2559 20.3802 23.265 20.373 23.2699C20.366 23.2749 20.3564 23.2746 20.3496 23.2692L20.2296 23.1832L20.1096 23.2692C20.1027 23.274 20.0935 23.2741 20.0866 23.2692C20.0797 23.2644 20.0766 23.2557 20.0788 23.2476L20.128 23.1076L20.008 23.0192C20.0014 23.0139 19.9988 23.0052 20.0015 22.9972C20.0042 22.9893 20.0116 22.9838 20.02 22.9836H20.168L20.2156 22.8428C20.216 22.8228 20.2424 22.8228 20.248 22.842ZM19.114 22.842L19.1616 22.9828H19.3092C19.3176 22.983 19.325 22.9885 19.3276 22.9964C19.3303 23.0044 19.3278 23.0132 19.3212 23.0184L19.2012 23.1068L19.2464 23.2476C19.2491 23.2559 19.2462 23.265 19.2391 23.2699C19.2319 23.2749 19.2224 23.2746 19.2156 23.2692L19.0956 23.1832L18.9756 23.2692C18.9687 23.274 18.9595 23.274 18.9526 23.2692C18.9457 23.2644 18.9426 23.2557 18.9448 23.2476L18.994 23.1076L18.874 23.0192C18.8674 23.0139 18.8649 23.0052 18.8676 22.9972C18.8702 22.9893 18.8776 22.9838 18.886 22.9836H19.034L19.0816 22.8428C19.0844 22.8228 19.1084 22.8228 19.114 22.842ZM22.5048 22.8261C22.5105 22.8293 22.514 22.8354 22.514 22.842L22.5616 22.9828H22.7092C22.7176 22.983 22.7249 22.9885 22.7276 22.9964C22.7303 23.0044 22.7277 23.0132 22.7212 23.0184L22.6012 23.1068L22.6464 23.2476C22.6492 23.2559 22.6462 23.265 22.6391 23.2699C22.632 23.2749 22.6224 23.2746 22.6156 23.2692L22.4956 23.1832L22.3756 23.2692C22.3687 23.274 22.3595 23.274 22.3526 23.2692C22.3457 23.2644 22.3426 23.2557 22.3448 23.2476L22.39 23.1068L22.27 23.0184C22.2634 23.0132 22.2609 23.0044 22.2635 22.9964C22.2662 22.9885 22.2736 22.983 22.282 22.9828H22.4296L22.4772 22.842C22.4772 22.8354 22.4807 22.8293 22.4864 22.8261C22.4921 22.8228 22.4991 22.8228 22.5048 22.8261ZM18.5468 22.4844L18.5944 22.6252H18.742C18.7504 22.6254 18.7578 22.6309 18.7604 22.6388C18.7631 22.6468 18.7606 22.6555 18.754 22.6608L18.634 22.7492L18.6792 22.89C18.6819 22.8983 18.679 22.9073 18.6719 22.9124C18.6647 22.9173 18.6552 22.917 18.6484 22.9116L18.5284 22.8256L18.4084 22.9116C18.4015 22.9164 18.3923 22.9164 18.3854 22.9116C18.3785 22.9068 18.3754 22.8981 18.3776 22.89L18.4268 22.75L18.3068 22.6616C18.3002 22.6563 18.2977 22.6476 18.3004 22.6396C18.303 22.6317 18.3104 22.6262 18.3188 22.626H18.4668L18.5144 22.4852C18.5172 22.4652 18.5412 22.4652 18.5468 22.4844ZM19.6808 22.4844L19.7284 22.6252H19.876C19.8844 22.6254 19.8917 22.6309 19.8944 22.6388C19.8971 22.6468 19.8946 22.6555 19.888 22.6608L19.768 22.7492L19.8132 22.89C19.816 22.8983 19.813 22.9073 19.8058 22.9124C19.7988 22.9173 19.7892 22.917 19.7824 22.9116L19.6624 22.8256L19.5424 22.9116C19.5355 22.9164 19.5263 22.9165 19.5194 22.9116C19.5125 22.9068 19.5094 22.8981 19.5116 22.89L19.5608 22.75L19.4408 22.6616C19.4342 22.6563 19.4316 22.6476 19.4343 22.6396C19.437 22.6317 19.4444 22.6262 19.4528 22.626H19.6008L19.6484 22.4852C19.6488 22.4652 19.6752 22.4652 19.6808 22.4844ZM20.8152 22.4844L20.8628 22.6252H21.0104C21.0188 22.6254 21.0261 22.6309 21.0288 22.6388C21.0315 22.6468 21.0289 22.6555 21.0224 22.6608L20.9024 22.7492L20.9476 22.89C20.9504 22.8983 20.9474 22.9073 20.9402 22.9124C20.9332 22.9173 20.9236 22.917 20.9168 22.9116L20.7968 22.8256L20.6768 22.9116C20.6699 22.9164 20.6607 22.9165 20.6538 22.9116C20.6469 22.9068 20.6438 22.8981 20.646 22.89L20.6912 22.7492L20.5712 22.6608C20.5646 22.6555 20.5621 22.6468 20.5648 22.6388C20.5674 22.6309 20.5748 22.6254 20.5832 22.6252H20.7352L20.7828 22.4844C20.7832 22.4652 20.8096 22.4652 20.8152 22.4844ZM21.9376 22.4685C21.9433 22.4717 21.9468 22.4778 21.9468 22.4844L21.9944 22.6252H22.142C22.1504 22.6254 22.1577 22.6309 22.1604 22.6388C22.1631 22.6468 22.1605 22.6555 22.154 22.6608L22.034 22.7492L22.0792 22.89C22.082 22.8983 22.079 22.9073 22.0719 22.9124C22.0648 22.9174 22.0552 22.917 22.0484 22.9116L21.9284 22.8256L21.8084 22.9116C21.8015 22.9164 21.7923 22.9164 21.7854 22.9116C21.7785 22.9068 21.7754 22.8981 21.7776 22.89L21.8228 22.7492L21.7028 22.6608C21.6962 22.6555 21.6937 22.6468 21.6964 22.6388C21.699 22.6309 21.7064 22.6254 21.7148 22.6252H21.8624L21.91 22.4844C21.91 22.4778 21.9135 22.4717 21.9192 22.4685C21.9249 22.4652 21.9319 22.4652 21.9376 22.4685ZM23.0645 22.4716C23.0723 22.4714 23.0793 22.4767 23.0812 22.4844L23.1288 22.6252H23.2764C23.2848 22.6254 23.2921 22.6309 23.2948 22.6388C23.2975 22.6468 23.2949 22.6555 23.2884 22.6608L23.1684 22.7492L23.2136 22.89C23.2164 22.8983 23.2134 22.9073 23.2063 22.9124C23.1992 22.9174 23.1896 22.917 23.1828 22.9116L23.0628 22.8256L22.9428 22.9116C22.9359 22.9164 22.9267 22.9164 22.9198 22.9116C22.9129 22.9068 22.9098 22.8981 22.912 22.89L22.9612 22.75L22.8412 22.6616C22.8347 22.6563 22.832 22.6476 22.8347 22.6396C22.8374 22.6317 22.8448 22.6262 22.8532 22.626H23.0008L23.0484 22.4852C23.0499 22.4775 23.0566 22.4718 23.0645 22.4716Z" fill="#F5F5F5"/>
<path fill-rule="evenodd" clip-rule="evenodd" d="M29 22.5H19C18.7239 22.5 18.5 22.7239 18.5 23V29C18.5 29.2761 18.7239 29.5 19 29.5H29C29.2761 29.5 29.5 29.2761 29.5 29V23C29.5 22.7239 29.2761 22.5 29 22.5ZM19 22C18.4477 22 18 22.4477 18 23V29C18 29.5523 18.4477 30 19 30H29C29.5523 30 30 29.5523 30 29V23C30 22.4477 29.5523 22 29 22H19Z" fill="black" fill-opacity="0.08"/>
</g>
</g>
</g>
</svg>
