<svg width="32" height="32" viewBox="0 0 32 32" fill="none" xmlns="http://www.w3.org/2000/svg">
<g id="markets / market-derived-range-break-200">
<g id="icon">
<path fill-rule="evenodd" clip-rule="evenodd" d="M28.9999 15.9999C30.6567 15.9999 31.9999 14.6568 31.9999 13C31.9999 11.3431 30.6567 9.99996 28.9999 9.99996C27.343 9.99996 25.9999 11.3431 25.9999 13C25.9999 13.4631 26.1049 13.9017 26.2923 14.2933L18.4999 22.0857L13.9999 17.5857L9.49992 22.0857L4.99993 17.5857L0 22.5857V25.4141L4.99993 20.4142L9.49992 24.9141L13.9999 20.4142L18.4999 24.9141L27.7065 15.7076C28.0981 15.895 28.5367 15.9999 28.9999 15.9999ZM28.9999 13.9999C29.5522 13.9999 29.9999 13.5522 29.9999 13C29.9999 12.4477 29.5522 12 28.9999 12C28.4476 12 27.9999 12.4477 27.9999 13C27.9999 13.5522 28.4476 13.9999 28.9999 13.9999Z" fill="#0AA0B0"/>
<path d="M22.0172 13.9999H0V12H23.9999L22.0172 13.9999Z" fill="#0AA0B0"/>
<path d="M23.9999 31.9999H3.05175e-05V29.9999H23.9999V31.9999Z" fill="#0AA0B0"/>
</g>
<g id="icon_2">
<path d="M21.7929 23.2071L23.5929 25.0071L25.0071 23.5929L23.2071 21.7929L21.7929 23.2071Z" fill="#FF444F"/>
<path fill-rule="evenodd" clip-rule="evenodd" d="M26.2924 27.7066L24.4929 25.9071L25.9071 24.4929L27.7066 26.2924C28.0982 26.1049 28.5369 26 29 26C30.6569 26 32 27.3431 32 29C32 30.6568 30.6569 32 29 32C27.3432 32 26 30.6568 26 29C26 28.5368 26.105 28.0982 26.2924 27.7066ZM30 29C30 29.5522 29.5523 30 29 30C28.4477 30 28 29.5522 28 29C28 28.4477 28.4477 28 29 28C29.5523 28 30 28.4477 30 29Z" fill="#FF444F"/>
</g>
<g id="icon_3">
<path d="M9.50152 7.07998C9.82152 7.07998 10.0429 6.96265 10.1655 6.72798C10.2882 6.49332 10.3495 6.16265 10.3495 5.73599V4.67999C10.3495 4.25332 10.2882 3.92266 10.1655 3.68799C10.0429 3.45333 9.82152 3.33599 9.50152 3.33599C9.18153 3.33599 8.96019 3.45333 8.83753 3.68799C8.71486 3.92266 8.65353 4.25332 8.65353 4.67999V5.73599C8.65353 6.16265 8.71486 6.49332 8.83753 6.72798C8.96019 6.96265 9.18153 7.07998 9.50152 7.07998Z" fill="#414652"/>
<path d="M14.9624 6.72798C14.8397 6.96265 14.6184 7.07998 14.2984 7.07998C13.9784 7.07998 13.757 6.96265 13.6344 6.72798C13.5117 6.49332 13.4504 6.16265 13.4504 5.73599V4.67999C13.4504 4.25332 13.5117 3.92266 13.6344 3.68799C13.757 3.45333 13.9784 3.33599 14.2984 3.33599C14.6184 3.33599 14.8397 3.45333 14.9624 3.68799C15.085 3.92266 15.1464 4.25332 15.1464 4.67999V5.73599C15.1464 6.16265 15.085 6.49332 14.9624 6.72798Z" fill="#414652"/>
<path fill-rule="evenodd" clip-rule="evenodd" d="M1.99999 0C0.895427 0 0 0.895427 0 1.99999V7.99997C0 9.10453 0.895427 9.99996 1.99999 9.99996H16.9999C18.1045 9.99996 18.9999 9.10453 18.9999 7.99997V1.99999C18.9999 0.895427 18.1045 0 16.9999 0H1.99999ZM6.71266 7.99998H2.76068V6.90398L4.48067 5.43199C4.63534 5.29865 4.766 5.17865 4.87267 5.07199C4.97933 4.95999 5.06467 4.85332 5.12867 4.75199C5.198 4.64532 5.246 4.54132 5.27267 4.43999C5.30467 4.33866 5.32067 4.22932 5.32067 4.11199V3.99999C5.32067 3.89333 5.29933 3.79999 5.25667 3.71999C5.214 3.63999 5.158 3.57333 5.08867 3.51999C5.01933 3.46666 4.93933 3.42666 4.84867 3.39999C4.76333 3.37333 4.67534 3.35999 4.58467 3.35999C4.45134 3.35999 4.334 3.38133 4.23267 3.42399C4.13667 3.46666 4.05134 3.52533 3.97667 3.59999C3.90734 3.66933 3.84867 3.75199 3.80067 3.84799C3.75267 3.93866 3.71534 4.03733 3.68867 4.14399L2.64068 3.74399C2.70468 3.55199 2.79268 3.37066 2.90467 3.2C3.01667 3.024 3.15534 2.872 3.32067 2.744C3.49134 2.61066 3.69134 2.50666 3.92067 2.432C4.15 2.35733 4.40867 2.32 4.69667 2.32C5.00067 2.32 5.27 2.36266 5.50467 2.448C5.73933 2.53333 5.93666 2.65066 6.09666 2.8C6.262 2.94933 6.38733 3.128 6.47266 3.33599C6.55799 3.53866 6.60066 3.75999 6.60066 3.99999C6.60066 4.23999 6.56066 4.45866 6.48066 4.65599C6.40066 4.85332 6.29133 5.03999 6.15266 5.21599C6.01933 5.38665 5.862 5.54932 5.68066 5.70399C5.49933 5.85865 5.31 6.01598 5.11267 6.17598L4.07267 6.99198H6.71266V7.99998ZM9.50152 8.09598C8.77086 8.09598 8.22953 7.84264 7.87753 7.33598C7.52553 6.82931 7.34953 6.11998 7.34953 5.20799C7.34953 4.29599 7.52553 3.58666 7.87753 3.08C8.22953 2.57333 8.77086 2.32 9.50152 2.32C10.2322 2.32 10.7735 2.57333 11.1255 3.08C11.4775 3.58666 11.6535 4.29599 11.6535 5.20799C11.6535 6.11998 11.4775 6.82931 11.1255 7.33598C10.7735 7.84264 10.2322 8.09598 9.50152 8.09598ZM12.6744 7.33598C13.0264 7.84264 13.5677 8.09598 14.2984 8.09598C15.029 8.09598 15.5704 7.84264 15.9224 7.33598C16.2744 6.82931 16.4504 6.11998 16.4504 5.20799C16.4504 4.29599 16.2744 3.58666 15.9224 3.08C15.5704 2.57333 15.029 2.32 14.2984 2.32C13.5677 2.32 13.0264 2.57333 12.6744 3.08C12.3224 3.58666 12.1464 4.29599 12.1464 5.20799C12.1464 6.11998 12.3224 6.82931 12.6744 7.33598Z" fill="#414652"/>
<path d="M6.71266 7.99998H2.76068V6.90398L4.48067 5.43199C4.63534 5.29865 4.766 5.17865 4.87267 5.07199C4.97933 4.95999 5.06467 4.85332 5.12867 4.75199C5.198 4.64532 5.246 4.54132 5.27267 4.43999C5.30467 4.33866 5.32067 4.22932 5.32067 4.11199V3.99999C5.32067 3.89333 5.29933 3.79999 5.25667 3.71999C5.214 3.63999 5.158 3.57333 5.08867 3.51999C5.01933 3.46666 4.93933 3.42666 4.84867 3.39999C4.76333 3.37333 4.67534 3.35999 4.58467 3.35999C4.45134 3.35999 4.334 3.38133 4.23267 3.42399C4.13667 3.46666 4.05134 3.52533 3.97667 3.59999C3.90734 3.66933 3.84867 3.75199 3.80067 3.84799C3.75267 3.93866 3.71534 4.03733 3.68867 4.14399L2.64068 3.74399C2.70468 3.55199 2.79268 3.37066 2.90467 3.2C3.01667 3.024 3.15534 2.872 3.32067 2.744C3.49134 2.61066 3.69134 2.50666 3.92067 2.432C4.15 2.35733 4.40867 2.32 4.69667 2.32C5.00067 2.32 5.27 2.36266 5.50467 2.448C5.73933 2.53333 5.93666 2.65066 6.09666 2.8C6.262 2.94933 6.38733 3.128 6.47266 3.33599C6.55799 3.53866 6.60066 3.75999 6.60066 3.99999C6.60066 4.23999 6.56066 4.45866 6.48066 4.65599C6.40066 4.85332 6.29133 5.03999 6.15266 5.21599C6.01933 5.38665 5.862 5.54932 5.68066 5.70399C5.49933 5.85865 5.31 6.01598 5.11267 6.17598L4.07267 6.99198H6.71266V7.99998Z" fill="white"/>
<path d="M9.50152 8.09598C8.77086 8.09598 8.22953 7.84264 7.87753 7.33598C7.52553 6.82931 7.34953 6.11998 7.34953 5.20799C7.34953 4.29599 7.52553 3.58666 7.87753 3.08C8.22953 2.57333 8.77086 2.32 9.50152 2.32C10.2322 2.32 10.7735 2.57333 11.1255 3.08C11.4775 3.58666 11.6535 4.29599 11.6535 5.20799C11.6535 6.11998 11.4775 6.82931 11.1255 7.33598C10.7735 7.84264 10.2322 8.09598 9.50152 8.09598ZM9.50152 7.07998C9.82152 7.07998 10.0429 6.96265 10.1655 6.72798C10.2882 6.49332 10.3495 6.16265 10.3495 5.73599V4.67999C10.3495 4.25332 10.2882 3.92266 10.1655 3.68799C10.0429 3.45333 9.82152 3.33599 9.50152 3.33599C9.18153 3.33599 8.96019 3.45333 8.83753 3.68799C8.71486 3.92266 8.65353 4.25332 8.65353 4.67999V5.73599C8.65353 6.16265 8.71486 6.49332 8.83753 6.72798C8.96019 6.96265 9.18153 7.07998 9.50152 7.07998Z" fill="white"/>
<path d="M14.2984 8.09598C13.5677 8.09598 13.0264 7.84264 12.6744 7.33598C12.3224 6.82931 12.1464 6.11998 12.1464 5.20799C12.1464 4.29599 12.3224 3.58666 12.6744 3.08C13.0264 2.57333 13.5677 2.32 14.2984 2.32C15.029 2.32 15.5704 2.57333 15.9224 3.08C16.2744 3.58666 16.4504 4.29599 16.4504 5.20799C16.4504 6.11998 16.2744 6.82931 15.9224 7.33598C15.5704 7.84264 15.029 8.09598 14.2984 8.09598ZM14.2984 7.07998C14.6184 7.07998 14.8397 6.96265 14.9624 6.72798C15.085 6.49332 15.1464 6.16265 15.1464 5.73599V4.67999C15.1464 4.25332 15.085 3.92266 14.9624 3.68799C14.8397 3.45333 14.6184 3.33599 14.2984 3.33599C13.9784 3.33599 13.757 3.45333 13.6344 3.68799C13.5117 3.92266 13.4504 4.25332 13.4504 4.67999V5.73599C13.4504 6.16265 13.5117 6.49332 13.6344 6.72798C13.757 6.96265 13.9784 7.07998 14.2984 7.07998Z" fill="white"/>
</g>
</g>
</svg>
