<svg width="32" height="32" viewBox="0 0 32 32" fill="none" xmlns="http://www.w3.org/2000/svg">
<g id="markets / market-stocks-twitter" clip-path="url(#clip0_1945_405)">
<g id="logo">
<path d="M32 16C32 24.8366 24.8366 32 16 32C7.16344 32 0 24.8366 0 16C0 7.16344 7.16344 0 16 0C24.8366 0 32 7.16344 32 16Z" fill="#60AADD"/>
<path d="M26 9.96083C25.2498 10.2844 24.4557 10.4951 23.6437 10.5858C24.5002 10.0727 25.1418 9.26674 25.45 8.31708C24.655 8.79756 23.7843 9.13991 22.875 9.32958C22.314 8.71838 21.581 8.29146 20.7726 8.10503C19.9642 7.91861 19.1183 7.98143 18.3463 8.28523C17.5743 8.58902 16.9124 9.11954 16.4478 9.8069C15.9832 10.4943 15.7378 11.3062 15.7437 12.1358C15.7437 12.4513 15.7793 12.7658 15.85 13.0733C14.2188 12.9906 12.6232 12.5662 11.1665 11.8277C9.70981 11.0891 8.42447 10.0528 7.39375 8.78583C6.8663 9.68614 6.70196 10.7537 6.93421 11.7709C7.16646 12.7882 7.77783 13.6786 8.64375 14.2608C7.98634 14.2452 7.34269 14.0693 6.76875 13.7483V13.8046C6.76874 14.7509 7.0961 15.6682 7.69531 16.4006C8.29451 17.1331 9.12866 17.6358 10.0562 17.8233C9.70383 17.9191 9.34021 17.9675 8.975 17.9671C8.71724 17.9665 8.46003 17.9435 8.20625 17.8983C8.46828 18.7128 8.97857 19.425 9.66561 19.9349C10.3526 20.4449 11.182 20.7271 12.0375 20.7421C10.5856 21.8841 8.79094 22.5029 6.94375 22.4983C6.62836 22.4972 6.31329 22.4784 6 22.4421C7.87481 23.6488 10.0579 24.2889 12.2875 24.2858C19.8375 24.2858 23.9625 18.0358 23.9625 12.6108C23.9625 12.4358 23.9625 12.2608 23.9625 12.0796C24.7629 11.5009 25.453 10.7833 26 9.96083Z" fill="white"/>
</g>
</g>
<defs>
<clipPath id="clip0_1945_405">
<rect width="32" height="32" fill="white"/>
</clipPath>
</defs>
</svg>
