<svg width="32" height="32" viewBox="0 0 32 32" fill="none" xmlns="http://www.w3.org/2000/svg">
<g id="markets / market-cryptocurrency-btceth">
<g id="currencies / currency-btc">
<g id="logo">
<path d="M19.9997 11C19.9997 15.97 15.9707 19.9989 11.0007 19.9989C6.03069 19.9989 2.00171 15.97 2.00171 11C2.00171 6.02996 6.03069 2.00098 11.0007 2.00098C15.9707 2.00098 19.9997 6.02996 19.9997 11Z" fill="#F7931A"/>
<path d="M15.0195 10.1148C15.1961 8.93596 14.2979 8.30209 13.0706 7.87914L13.4688 6.28182L12.4969 6.03997L12.1089 7.59511C11.8535 7.53099 11.5914 7.47137 11.3299 7.41176L11.7208 5.8465L10.7489 5.60409L10.3507 7.20084C10.1392 7.15247 9.93111 7.10523 9.72975 7.05461L9.73088 7.04955L8.39003 6.7149L8.13131 7.75316C8.13131 7.75316 8.85292 7.91851 8.83773 7.92864C9.23144 8.02706 9.3023 8.28747 9.29049 8.49445L8.83717 10.3139C8.86416 10.3207 8.89904 10.3308 8.93841 10.346L8.83548 10.3207L8.19993 12.8696C8.15156 12.9889 8.02951 13.1683 7.75392 13.1002C7.76404 13.1143 7.0475 12.9242 7.0475 12.9242L6.56492 14.0367L7.83041 14.3522C8.06551 14.4113 8.2961 14.4731 8.52277 14.5311L8.12062 16.1464L9.09195 16.3882L9.49016 14.7909C9.75563 14.8624 10.0132 14.9287 10.2652 14.9917L9.86811 16.5823L10.84 16.8241L11.2421 15.2122C12.9002 15.526 14.1466 15.3995 14.6713 13.9C15.0943 12.693 14.6505 11.9962 13.7782 11.5423C14.4137 11.3961 14.8918 10.9782 15.0195 10.1148ZM12.7978 13.2296C12.4981 14.4372 10.4649 13.7842 9.80568 13.6205L10.34 11.4804C10.9992 11.6452 13.1122 11.9709 12.7978 13.2296ZM13.0988 10.0974C12.8248 11.1958 11.133 10.6373 10.5847 10.5007L11.0684 8.56025C11.6167 8.69692 13.3845 8.95171 13.0988 10.0974Z" fill="white"/>
</g>
</g>
<g id="currencies / currency-eth">
<g id="logo_2">
<path d="M29.9997 21C29.9997 25.97 25.9707 29.9989 21.0007 29.9989C16.0307 29.9989 12.0017 25.97 12.0017 21C12.0017 16.03 16.0307 12.001 21.0007 12.001C25.9707 12.001 29.9997 16.03 29.9997 21Z" fill="#EBF0F1"/>
<path d="M20.9996 14.2507V23.5676L25.2162 21.1237L20.9996 14.2507Z" fill="#12100B" fill-opacity="0.8"/>
<path d="M20.9996 14.2507L16.7824 21.1237L20.9996 23.5703V14.2507Z" fill="#12100B" fill-opacity="0.45"/>
<path d="M20.9996 24.3566V27.7464L25.219 21.9089L20.9996 24.3566Z" fill="#12100B" fill-opacity="0.8"/>
<path d="M20.9996 27.7464V24.356L16.7824 21.9089L20.9996 27.7464Z" fill="#12100B" fill-opacity="0.45"/>
<path d="M20.9996 23.572L25.2162 21.1237L20.9996 19.2407V23.572Z" fill="#12100B" fill-opacity="0.6"/>
<path d="M16.7824 21.1237L20.9996 23.572V19.2407L16.7824 21.1237Z" fill="#12100B" fill-opacity="0.6"/>
</g>
</g>
</g>
</svg>
