<svg width="32" height="32" viewBox="0 0 32 32" fill="none" xmlns="http://www.w3.org/2000/svg">
<g id="markets / market-forex-eurmxn">
<g id="flags / flag-euro">
<g id="flag">
<path d="M22 4H2C0.89543 4 0 4.89543 0 6V18C0 19.1046 0.89543 20 2 20H22C23.1046 20 24 19.1046 24 18V6C24 4.89543 23.1046 4 22 4Z" fill="#0D47A1"/>
<path d="M12.0671 16.6713L12.233 17.1766L12.7574 17.1808C12.8253 17.1813 12.8534 17.2693 12.7988 17.3103L12.3769 17.6268L12.5351 18.1347C12.5556 18.2004 12.4819 18.2549 12.4266 18.2147L12 17.9049L11.5734 18.2147C11.5182 18.2548 11.4445 18.2004 11.4649 18.1347L11.6231 17.6268L11.2012 17.3103C11.1466 17.2693 11.1747 17.1813 11.2427 17.1808L11.7671 17.1766L11.933 16.6713C11.9544 16.6058 12.0456 16.6058 12.0671 16.6713ZM9.48298 15.8239L9.64891 16.3293L10.1733 16.3334C10.2412 16.334 10.2694 16.422 10.2147 16.463L9.79287 16.7794L9.95102 17.2874C9.97151 17.3531 9.89782 17.4075 9.84255 17.3674L9.41595 17.0576L8.98934 17.3674C8.93412 17.4075 8.86038 17.3531 8.88087 17.2874L9.03902 16.7794L8.61715 16.463C8.56254 16.422 8.59066 16.334 8.65859 16.3334L9.18298 16.3294L9.34891 15.824C9.37038 15.7584 9.46155 15.7584 9.48298 15.8239ZM14.6894 15.8239C14.7109 15.7584 14.802 15.7584 14.8235 15.824L14.9894 16.3294L15.5138 16.3334C15.5817 16.334 15.6099 16.422 15.5553 16.463L15.1334 16.7794L15.2915 17.2874C15.312 17.3531 15.2383 17.4075 15.1831 17.3674L14.7565 17.0576L14.3299 17.3674C14.2746 17.4075 14.2009 17.3531 14.2214 17.2874L14.3795 16.7794L13.9577 16.463C13.9031 16.422 13.9312 16.334 13.9991 16.3334L14.5235 16.3293L14.6894 15.8239ZM16.7783 13.8381L16.9442 14.3434L17.4686 14.3476C17.5365 14.3481 17.5646 14.4361 17.51 14.4771L17.0882 14.7936L17.2463 15.3015C17.2668 15.3673 17.1931 15.4217 17.1379 15.3815L16.7112 15.0717L16.2846 15.3815C16.2294 15.4216 16.1557 15.3673 16.1762 15.3015L16.3343 14.7936L15.9124 14.4771C15.8578 14.4361 15.886 14.3481 15.9539 14.3476L16.4783 14.3434L16.6442 13.8381C16.6657 13.7727 16.7568 13.7727 16.7783 13.8381ZM7.5081 13.8067L7.52824 13.8381L7.69418 14.3434L8.21857 14.3476C8.27291 14.348 8.30177 14.4044 8.28319 14.4479L8.26001 14.4771L7.83813 14.7936L7.99629 15.3015C8.01268 15.3541 7.96876 15.3994 7.92227 15.3949L7.88782 15.3815L7.46121 15.0717L7.0346 15.3815C6.99039 15.4137 6.93439 15.3853 6.92424 15.3389L6.92613 15.3015L7.08429 14.7936L6.66241 14.4771C6.61873 14.4443 6.62799 14.3814 6.66822 14.3573L6.70385 14.3476L7.22824 14.3434L7.39418 13.8381C7.41135 13.7858 7.47308 13.7753 7.5081 13.8067ZM17.4076 11.2459L17.5735 11.7513L18.0979 11.7554C18.1658 11.756 18.1939 11.844 18.1393 11.885L17.7175 12.2014L17.8756 12.7094C17.8961 12.7751 17.8224 12.8295 17.7671 12.7894L17.3405 12.4796L16.9139 12.7894C16.8587 12.8295 16.785 12.7751 16.8055 12.7094L16.9636 12.2014L16.5417 11.885C16.4871 11.844 16.5153 11.756 16.5832 11.7554L17.1076 11.7513L17.2735 11.2459C17.2949 11.1805 17.3861 11.1805 17.4076 11.2459ZM6.72649 11.2459L6.89243 11.7513L7.41682 11.7554C7.48474 11.756 7.51287 11.844 7.45826 11.885L7.03638 12.2014L7.19454 12.7094C7.21502 12.7751 7.14134 12.8295 7.08607 12.7894L6.65946 12.4796L6.23285 12.7894C6.17763 12.8295 6.1039 12.7751 6.12438 12.7094L6.28254 12.2014L5.86066 11.885C5.80605 11.844 5.83418 11.756 5.9021 11.7554L6.42649 11.7513L6.59243 11.2459C6.6139 11.1805 6.70507 11.1805 6.72649 11.2459ZM7.52824 8.41278L7.69418 8.91816L8.21857 8.9223C8.28649 8.92283 8.31462 9.01083 8.26001 9.05183L7.83813 9.3683L7.99629 9.87621C8.01677 9.94192 7.94309 9.9964 7.88782 9.95626L7.46121 9.64645L7.0346 9.95626C6.97938 9.99635 6.90565 9.94197 6.92613 9.87621L7.08429 9.3683L6.66241 9.05183C6.6078 9.01083 6.63593 8.92283 6.70385 8.9223L7.22824 8.91816L7.39418 8.41278C7.41565 8.34735 7.50673 8.34735 7.52824 8.41278ZM16.7581 8.38137L16.7783 8.41278L16.9442 8.91816L17.4686 8.9223C17.5229 8.92272 17.5518 8.97913 17.5332 9.02266L17.51 9.05183L17.0882 9.3683L17.2463 9.87621C17.2627 9.92882 17.2188 9.97414 17.1723 9.96964L17.1379 9.95626L16.7112 9.64645L16.2846 9.95626C16.2404 9.98837 16.1844 9.95993 16.1743 9.91362L16.1762 9.87621L16.3343 9.3683L15.9124 9.05183C15.8688 9.01903 15.878 8.95615 15.9182 8.93204L15.9539 8.9223L16.4783 8.91816L16.6442 8.41278C16.6614 8.36044 16.7231 8.34997 16.7581 8.38137ZM14.8235 6.42697L14.9895 6.93235L15.5139 6.93649C15.5818 6.93702 15.6099 7.02502 15.5553 7.06602L15.1334 7.38249L15.2916 7.8904C15.3121 7.95611 15.2384 8.01059 15.1831 7.97045L14.7565 7.66064L14.3299 7.97045C14.2746 8.01054 14.2009 7.95616 14.2214 7.8904L14.3795 7.38249L13.9577 7.06602C13.9031 7.02502 13.9312 6.93702 13.9991 6.93649L14.5235 6.93235L14.6894 6.42697C14.7109 6.36159 14.802 6.36159 14.8235 6.42697ZM9.46283 6.39559L9.48298 6.42697L9.64891 6.93235L10.1733 6.93649C10.2276 6.93691 10.2565 6.99332 10.2379 7.03685L10.2147 7.06602L9.79287 7.38249L9.95102 7.8904C9.96741 7.94301 9.9235 7.98833 9.87701 7.98383L9.84255 7.97045L9.41595 7.66064L8.98934 7.97045C8.94512 8.00256 8.88912 7.97412 8.87898 7.92781L8.88087 7.8904L9.03902 7.38249L8.61715 7.06602C8.57346 7.03322 8.58272 6.97034 8.62295 6.94623L8.65859 6.93649L9.18298 6.93235L9.34891 6.42697C9.36609 6.37467 9.42781 6.36421 9.46283 6.39559ZM12.0671 5.82064L12.233 6.32602L12.7574 6.33016C12.8253 6.33069 12.8534 6.41868 12.7988 6.45969L12.3769 6.77616L12.5351 7.28407C12.5556 7.34978 12.4819 7.40426 12.4266 7.36411L12 7.0543L11.5734 7.36411C11.5182 7.40421 11.4445 7.34983 11.4649 7.28407L11.6231 6.77616L11.2012 6.45969C11.1466 6.41868 11.1747 6.33069 11.2427 6.33016L11.7671 6.32602L11.933 5.82064C11.9544 5.75521 12.0456 5.75521 12.0671 5.82064Z" fill="#FFD955"/>
<path fill-rule="evenodd" clip-rule="evenodd" d="M22 5H2C1.44772 5 1 5.44772 1 6V18C1 18.5523 1.44772 19 2 19H22C22.5523 19 23 18.5523 23 18V6C23 5.44771 22.5523 5 22 5ZM2 4C0.89543 4 0 4.89543 0 6V18C0 19.1046 0.89543 20 2 20H22C23.1046 20 24 19.1046 24 18V6C24 4.89543 23.1046 4 22 4H2Z" fill="black" fill-opacity="0.08"/>
</g>
</g>
<g id="flags / flag-mexico">
<g id="flag_2">
<path d="M10 12H16V28H10C8.89543 28 8 27.1046 8 26V14C8 12.8954 8.89543 12 10 12Z" fill="#4CAF50"/>
<path d="M24 12H16V28H24V12Z" fill="white"/>
<path d="M24 12H30C31.1046 12 32 12.8954 32 14V26C32 27.1046 31.1046 28 30 28H24V12Z" fill="#F44336"/>
<path d="M20.7137 20.3759L20 20.7384V21.1009H20.3569L20.7137 20.3759Z" fill="#FFCA28"/>
<path d="M19.7175 19.5602L19.3235 20.1795L19.2566 20.3834L20.2825 20.1418L19.7175 19.5602Z" fill="#732D37"/>
<path d="M20.3569 18.5633C20.3569 18.5633 20.7137 17.8383 20 17.4758C20 17.4758 22.4979 17.1133 22.1411 20.376C21.9069 20.1856 21.559 19.8376 21.4348 19.5603L20.3569 18.9259V18.5633Z" fill="#874150"/>
<path d="M20 19.2883L21.7842 20.3759C21.7842 20.3759 21.7842 20.3759 21.0705 20.7384L20 19.6509V19.2883Z" fill="#732D37"/>
<path d="M19.2863 18.2008C19.4834 18.2008 19.6432 18.3631 19.6432 18.5633C19.4303 18.7796 19.3772 19.1104 19.5118 19.384L19.5924 19.5478C19.626 19.6161 19.6703 19.6785 19.7234 19.7325L20.7137 20.7385V20.2375C20.7137 19.6134 20.5707 18.9978 20.2959 18.4396C20.1146 18.0711 19.7439 17.8384 19.3384 17.8384H19.2863V18.2008Z" fill="#783C46"/>
<path d="M21.4348 19.5603C21.5538 19.9152 21.8067 20.2401 22.1411 20.376C22.4979 17.1133 20 17.4758 20 17.4758C21.7842 17.4758 21.4348 19.5603 21.4348 19.5603Z" fill="#9B4B5A"/>
<path d="M19.8216 21.8259C19.8216 21.9261 19.9014 22.0072 20 22.0072C20.0986 22.0072 20.1784 21.9261 20.1784 21.8259V21.2762C20.815 21.2338 21.4226 20.965 21.9058 20.5087C21.9779 20.4405 21.9821 20.3258 21.915 20.2526C21.8476 20.1791 21.7349 20.1754 21.6629 20.2431C21.201 20.6795 20.6104 20.9197 20 20.9197C19.3897 20.9197 18.7992 20.6795 18.3373 20.2431C18.2655 20.1756 18.1528 20.1795 18.0852 20.2526C18.018 20.3258 18.0222 20.4405 18.0944 20.5087C18.5775 20.965 19.185 21.2338 19.8216 21.2762V21.8259Z" fill="#00C3A0"/>
<path d="M20 22.0072C19.5426 22.0072 19.0995 21.8714 18.7186 21.6144L18.9162 21.3124C19.5602 21.7471 20.4398 21.7471 21.0838 21.3124L21.2813 21.6144C20.9005 21.8714 20.4574 22.0072 20 22.0072Z" fill="#42A5F5"/>
<path d="M17.3237 19.6509C17.3237 21.1501 18.5242 22.3697 20 22.3697C21.4759 22.3697 22.6764 21.1501 22.6764 19.6509H23.0333C23.0332 21.35 21.6725 22.7322 20 22.7322C18.3275 22.7322 16.9668 21.35 16.9668 19.6509H17.3237ZM18.6247 17.802L18.7885 18.1241C18.7447 18.1471 18.7274 18.2126 18.7385 18.2593C18.7429 18.2781 18.7535 18.3218 18.8405 18.3218C19.0589 18.3218 19.2668 18.4528 19.3344 18.633C19.3633 18.7098 19.4069 18.9095 19.1898 19.1065C18.9554 19.3191 18.8152 19.4791 18.8929 19.5692C18.9105 19.5895 18.986 19.6156 19.0358 19.6326C19.1964 19.6878 19.4954 19.7905 19.4526 20.1701C19.4257 20.4089 19.216 20.5746 18.9309 20.5824L18.908 20.5826C18.4364 20.5826 17.8702 20.1794 17.72 19.2809L18.072 19.2204C18.1968 19.9675 18.6493 20.2206 18.9209 20.22C19.0042 20.2176 19.0911 20.1884 19.098 20.1286C19.106 20.0571 19.1079 20.0401 18.9213 19.976C18.8199 19.9411 18.7049 19.9017 18.6242 19.8079C18.2978 19.4293 18.7397 19.0286 18.952 18.836C18.9895 18.802 19.005 18.7731 19.001 18.7622C18.9893 18.7312 18.9193 18.6843 18.8404 18.6843C18.6137 18.6843 18.4417 18.5542 18.3917 18.345C18.3398 18.1283 18.4379 17.9 18.6247 17.802Z" fill="#66BB6A"/>
<path d="M20.1784 22.1884H19.8215C19.6245 22.1884 19.4647 22.0261 19.4647 21.8259C19.4647 21.6257 19.6245 21.4634 19.8215 21.4634H20.1784C20.3755 21.4634 20.5353 21.6257 20.5353 21.8259C20.5353 22.0261 20.3755 22.1884 20.1784 22.1884Z" fill="#FFA726"/>
<path d="M18.748 22.0058C18.8817 22.0058 18.9901 22.1159 18.9901 22.2518C18.9901 22.3876 18.8817 22.4978 18.748 22.4978C18.6142 22.4978 18.5058 22.3876 18.5058 22.2518C18.5058 22.1159 18.6142 22.0058 18.748 22.0058ZM21.2773 22.0058C21.4111 22.0058 21.5195 22.1159 21.5195 22.2518C21.5195 22.3876 21.4111 22.4978 21.2773 22.4978C21.1436 22.4978 21.0352 22.3876 21.0352 22.2518C21.0352 22.1159 21.1436 22.0058 21.2773 22.0058ZM17.8784 21.3491C18.0122 21.3491 18.1206 21.4592 18.1206 21.5951C18.1206 21.731 18.0122 21.8411 17.8784 21.8411C17.7447 21.8411 17.6363 21.731 17.6363 21.5951C17.6363 21.4592 17.7447 21.3491 17.8784 21.3491ZM22.1469 21.3491C22.2806 21.3491 22.389 21.4592 22.389 21.5951C22.389 21.731 22.2806 21.8411 22.1469 21.8411C22.0131 21.8411 21.9047 21.731 21.9047 21.5951C21.9047 21.4592 22.0131 21.3491 22.1469 21.3491ZM17.3431 20.4805C17.4769 20.4805 17.5853 20.5907 17.5853 20.7265C17.5853 20.8624 17.4769 20.9725 17.3431 20.9725C17.2094 20.9725 17.101 20.8624 17.101 20.7265C17.101 20.5907 17.2094 20.4805 17.3431 20.4805ZM22.6827 20.4805C22.8164 20.4805 22.9248 20.5907 22.9248 20.7265C22.9248 20.8624 22.8164 20.9725 22.6827 20.9725C22.5489 20.9725 22.4405 20.8624 22.4405 20.7265C22.4405 20.5907 22.5489 20.4805 22.6827 20.4805ZM19.2863 17.8384C19.2863 17.8384 19.4768 18.0127 19.5215 18.0558C19.5788 18.1113 19.597 18.2264 19.497 18.275C19.3699 18.337 19.0203 18.5166 18.9442 18.5557L18.9295 18.5633V18.2008L19.2863 17.8384Z" fill="#FFCA28"/>
<path fill-rule="evenodd" clip-rule="evenodd" d="M30 13H10C9.44772 13 9 13.4477 9 14V26C9 26.5523 9.44772 27 10 27H30C30.5523 27 31 26.5523 31 26V14C31 13.4477 30.5523 13 30 13ZM10 12C8.89543 12 8 12.8954 8 14V26C8 27.1046 8.89543 28 10 28H30C31.1046 28 32 27.1046 32 26V14C32 12.8954 31.1046 12 30 12H10Z" fill="black" fill-opacity="0.08"/>
</g>
</g>
</g>
</svg>
