<svg width="32" height="32" viewBox="0 0 32 32" fill="none" xmlns="http://www.w3.org/2000/svg">
<g id="markets / market-forex-gbpsgd">
<g id="flags / flag-united kingdom">
<g id="flag">
<path d="M0 6C0 4.89543 0.895431 4 2 4H22C23.1046 4 24 4.89543 24 6V18C24 19.1046 23.1046 20 22 20H2C0.89543 20 0 19.1046 0 18V6Z" fill="#0D47A1"/>
<path d="M0 6C0 4.89543 0.895431 4 2 4H3.60554L10 8.26297V4.00001H14V8.26297L20.3945 4H22C23.1046 4 24 4.89543 24 6L24 6.4037L18.6056 10H24V14H18.6056L24 17.5963L24 18C24 19.1046 23.1046 20 22 20H20.3944L14 15.737V20H10V15.737L3.60556 20H2C0.89543 20 0 19.1046 0 18L5.126e-06 17.5963L5.39445 14H0L5.126e-06 10H5.39445L5.126e-06 6.40371L0 6Z" fill="white"/>
<path d="M10.7586 4V10.7258H0V13.248H10.7586V20H13.2414V13.248H24V10.7258H13.2414V4H10.7586Z" fill="#F44336"/>
<path d="M22.7641 4.15115L14.069 9.88504H15.589L23.4951 4.67152C23.2955 4.44702 23.046 4.26779 22.7641 4.15115Z" fill="#F44336"/>
<path d="M23.7192 19.0225L16.2369 14.0887H14.7169L23.1404 19.6433C23.3747 19.4803 23.5726 19.2685 23.7192 19.0225Z" fill="#F44336"/>
<path d="M1.19769 19.8326L9.90826 14.0887H8.38818L0.481995 19.3022C0.676422 19.5287 0.920654 19.7111 1.19769 19.8326Z" fill="#F44336"/>
<path d="M0.242645 5.04434L7.5834 9.88504H9.10345L0.793182 4.40498C0.567383 4.57608 0.379059 4.79404 0.242645 5.04434Z" fill="#F44336"/>
<path fill-rule="evenodd" clip-rule="evenodd" d="M22 5H2C1.44772 5 1 5.44772 1 6V18C1 18.5523 1.44772 19 2 19H22C22.5523 19 23 18.5523 23 18V6C23 5.44771 22.5523 5 22 5ZM2 4C0.895431 4 0 4.89543 0 6V18C0 19.1046 0.89543 20 2 20H22C23.1046 20 24 19.1046 24 18V6C24 4.89543 23.1046 4 22 4H2Z" fill="black" fill-opacity="0.08"/>
</g>
</g>
<g id="flags / flag-singapore">
<g id="flag_2">
<path d="M8 20H32V26C32 27.1046 31.1046 28 30 28H10C8.89543 28 8 27.1046 8 26V20Z" fill="white"/>
<path d="M10 12H30C31.1046 12 32 12.8954 32 14V20H8V14C8 12.8954 8.89543 12 10 12Z" fill="#E12237"/>
<path d="M12.625 14C13.2449 14 13.8146 14.2047 14.2638 14.5469C14.0261 14.4628 13.7687 14.4167 13.5 14.4167C12.2919 14.4167 11.3125 15.3494 11.3125 16.5C11.3125 17.6506 12.2919 18.5833 13.5 18.5833C13.7687 18.5833 14.0261 18.5372 14.264 18.4528C13.8146 18.7953 13.2449 19 12.625 19C11.1753 19 10 17.8807 10 16.5C10 15.1193 11.1753 14 12.625 14ZM13.9375 17.3333C14.1791 17.3333 14.375 17.5199 14.375 17.75C14.375 17.9801 14.1791 18.1667 13.9375 18.1667C13.6959 18.1667 13.5 17.9801 13.5 17.75C13.5 17.5199 13.6959 17.3333 13.9375 17.3333ZM15.6875 17.3333C15.9291 17.3333 16.125 17.5199 16.125 17.75C16.125 17.9801 15.9291 18.1667 15.6875 18.1667C15.4459 18.1667 15.25 17.9801 15.25 17.75C15.25 17.5199 15.4459 17.3333 15.6875 17.3333ZM13.0625 15.6667C13.3041 15.6667 13.5 15.8532 13.5 16.0833C13.5 16.3135 13.3041 16.5 13.0625 16.5C12.8209 16.5 12.625 16.3135 12.625 16.0833C12.625 15.8532 12.8209 15.6667 13.0625 15.6667ZM16.5625 15.6667C16.8041 15.6667 17 15.8532 17 16.0833C17 16.3135 16.8041 16.5 16.5625 16.5C16.3209 16.5 16.125 16.3135 16.125 16.0833C16.125 15.8532 16.3209 15.6667 16.5625 15.6667ZM14.8125 14.4167C15.0541 14.4167 15.25 14.6032 15.25 14.8333C15.25 15.0635 15.0541 15.25 14.8125 15.25C14.5709 15.25 14.375 15.0635 14.375 14.8333C14.375 14.6032 14.5709 14.4167 14.8125 14.4167Z" fill="white"/>
<path fill-rule="evenodd" clip-rule="evenodd" d="M30 13H10C9.44772 13 9 13.4477 9 14V26C9 26.5523 9.44772 27 10 27H30C30.5523 27 31 26.5523 31 26V14C31 13.4477 30.5523 13 30 13ZM10 12C8.89543 12 8 12.8954 8 14V26C8 27.1046 8.89543 28 10 28H30C31.1046 28 32 27.1046 32 26V14C32 12.8954 31.1046 12 30 12H10Z" fill="black" fill-opacity="0.08"/>
</g>
</g>
</g>
</svg>
