<svg width="32" height="32" viewBox="0 0 32 32" fill="none" xmlns="http://www.w3.org/2000/svg">
<g id="markets / market-derived-jump-200">
<g id="icon">
<path fill-rule="evenodd" clip-rule="evenodd" d="M4 12V14H2V12H4Z" fill="#FF444F"/>
<path fill-rule="evenodd" clip-rule="evenodd" d="M8 12V16H6V12H8Z" fill="#FF444F"/>
<path fill-rule="evenodd" clip-rule="evenodd" d="M12 12V29H10V12H12Z" fill="#FF444F"/>
<path fill-rule="evenodd" clip-rule="evenodd" d="M16 26V32H14V26H16Z" fill="#FF444F"/>
<path fill-rule="evenodd" clip-rule="evenodd" d="M20 22V29H18V22H20Z" fill="#0AA0B0"/>
<path fill-rule="evenodd" clip-rule="evenodd" d="M24 0V26H22V0H24Z" fill="#0AA0B0"/>
<path fill-rule="evenodd" clip-rule="evenodd" d="M28 4V12H26V4H28Z" fill="#0AA0B0"/>
<path fill-rule="evenodd" clip-rule="evenodd" d="M32 8V12H30V8H32Z" fill="#0AA0B0"/>
<path d="M9.50156 7.08C9.82156 7.08 10.0429 6.96267 10.1656 6.728C10.2882 6.49333 10.3496 6.16267 10.3496 5.736V4.68C10.3496 4.25333 10.2882 3.92267 10.1656 3.688C10.0429 3.45333 9.82156 3.336 9.50156 3.336C9.18156 3.336 8.96023 3.45333 8.83756 3.688C8.71489 3.92267 8.65356 4.25333 8.65356 4.68V5.736C8.65356 6.16267 8.71489 6.49333 8.83756 6.728C8.96023 6.96267 9.18156 7.08 9.50156 7.08Z" fill="#414652"/>
<path d="M14.9624 6.728C14.8398 6.96267 14.6184 7.08 14.2984 7.08C13.9784 7.08 13.7571 6.96267 13.6344 6.728C13.5118 6.49333 13.4504 6.16267 13.4504 5.736V4.68C13.4504 4.25333 13.5118 3.92267 13.6344 3.688C13.7571 3.45333 13.9784 3.336 14.2984 3.336C14.6184 3.336 14.8398 3.45333 14.9624 3.688C15.0851 3.92267 15.1464 4.25333 15.1464 4.68V5.736C15.1464 6.16267 15.0851 6.49333 14.9624 6.728Z" fill="#414652"/>
<path fill-rule="evenodd" clip-rule="evenodd" d="M2 0C0.895431 0 0 0.89543 0 2V8C0 9.10457 0.895431 10 2 10H17C18.1046 10 19 9.10457 19 8V2C19 0.895431 18.1046 0 17 0H2ZM6.71269 8H2.76069V6.904L4.48069 5.432C4.63535 5.29867 4.76602 5.17867 4.87269 5.072C4.97935 4.96 5.06469 4.85333 5.12869 4.752C5.19802 4.64533 5.24602 4.54133 5.27269 4.44C5.30469 4.33867 5.32069 4.22933 5.32069 4.112V4C5.32069 3.89333 5.29935 3.8 5.25669 3.72C5.21402 3.64 5.15802 3.57333 5.08869 3.52C5.01935 3.46667 4.93935 3.42667 4.84869 3.4C4.76335 3.37333 4.67535 3.36 4.58469 3.36C4.45135 3.36 4.33402 3.38133 4.23269 3.424C4.13669 3.46667 4.05135 3.52533 3.97669 3.6C3.90735 3.66933 3.84869 3.752 3.80069 3.848C3.75269 3.93867 3.71535 4.03733 3.68869 4.144L2.64069 3.744C2.70469 3.552 2.79269 3.37067 2.90469 3.2C3.01669 3.024 3.15535 2.872 3.32069 2.744C3.49135 2.61067 3.69135 2.50667 3.92069 2.432C4.15002 2.35733 4.40869 2.32 4.69669 2.32C5.00069 2.32 5.27002 2.36267 5.50469 2.448C5.73935 2.53333 5.93669 2.65067 6.09669 2.8C6.26202 2.94933 6.38735 3.128 6.47269 3.336C6.55802 3.53867 6.60069 3.76 6.60069 4C6.60069 4.24 6.56069 4.45867 6.48069 4.656C6.40069 4.85333 6.29135 5.04 6.15269 5.216C6.01935 5.38667 5.86202 5.54933 5.68069 5.704C5.49935 5.85867 5.31002 6.016 5.11269 6.176L4.07269 6.992H6.71269V8ZM9.50156 8.096C8.7709 8.096 8.22956 7.84267 7.87756 7.336C7.52556 6.82933 7.34956 6.12 7.34956 5.208C7.34956 4.296 7.52556 3.58667 7.87756 3.08C8.22956 2.57333 8.7709 2.32 9.50156 2.32C10.2322 2.32 10.7736 2.57333 11.1256 3.08C11.4776 3.58667 11.6536 4.296 11.6536 5.208C11.6536 6.12 11.4776 6.82933 11.1256 7.336C10.7736 7.84267 10.2322 8.096 9.50156 8.096ZM12.6744 7.336C13.0264 7.84267 13.5678 8.096 14.2984 8.096C15.0291 8.096 15.5704 7.84267 15.9224 7.336C16.2744 6.82933 16.4504 6.12 16.4504 5.208C16.4504 4.296 16.2744 3.58667 15.9224 3.08C15.5704 2.57333 15.0291 2.32 14.2984 2.32C13.5678 2.32 13.0264 2.57333 12.6744 3.08C12.3224 3.58667 12.1464 4.296 12.1464 5.208C12.1464 6.12 12.3224 6.82933 12.6744 7.336Z" fill="#414652"/>
<path d="M6.71269 8H2.76069V6.904L4.48069 5.432C4.63535 5.29867 4.76602 5.17867 4.87269 5.072C4.97935 4.96 5.06469 4.85333 5.12869 4.752C5.19802 4.64533 5.24602 4.54133 5.27269 4.44C5.30469 4.33867 5.32069 4.22933 5.32069 4.112V4C5.32069 3.89333 5.29935 3.8 5.25669 3.72C5.21402 3.64 5.15802 3.57333 5.08869 3.52C5.01935 3.46667 4.93935 3.42667 4.84869 3.4C4.76335 3.37333 4.67535 3.36 4.58469 3.36C4.45135 3.36 4.33402 3.38133 4.23269 3.424C4.13669 3.46667 4.05135 3.52533 3.97669 3.6C3.90735 3.66933 3.84869 3.752 3.80069 3.848C3.75269 3.93867 3.71535 4.03733 3.68869 4.144L2.64069 3.744C2.70469 3.552 2.79269 3.37067 2.90469 3.2C3.01669 3.024 3.15535 2.872 3.32069 2.744C3.49135 2.61067 3.69135 2.50667 3.92069 2.432C4.15002 2.35733 4.40869 2.32 4.69669 2.32C5.00069 2.32 5.27002 2.36267 5.50469 2.448C5.73935 2.53333 5.93669 2.65067 6.09669 2.8C6.26202 2.94933 6.38735 3.128 6.47269 3.336C6.55802 3.53867 6.60069 3.76 6.60069 4C6.60069 4.24 6.56069 4.45867 6.48069 4.656C6.40069 4.85333 6.29135 5.04 6.15269 5.216C6.01935 5.38667 5.86202 5.54933 5.68069 5.704C5.49935 5.85867 5.31002 6.016 5.11269 6.176L4.07269 6.992H6.71269V8Z" fill="white"/>
<path d="M9.50156 8.096C8.7709 8.096 8.22956 7.84267 7.87756 7.336C7.52556 6.82933 7.34956 6.12 7.34956 5.208C7.34956 4.296 7.52556 3.58667 7.87756 3.08C8.22956 2.57333 8.7709 2.32 9.50156 2.32C10.2322 2.32 10.7736 2.57333 11.1256 3.08C11.4776 3.58667 11.6536 4.296 11.6536 5.208C11.6536 6.12 11.4776 6.82933 11.1256 7.336C10.7736 7.84267 10.2322 8.096 9.50156 8.096ZM9.50156 7.08C9.82156 7.08 10.0429 6.96267 10.1656 6.728C10.2882 6.49333 10.3496 6.16267 10.3496 5.736V4.68C10.3496 4.25333 10.2882 3.92267 10.1656 3.688C10.0429 3.45333 9.82156 3.336 9.50156 3.336C9.18156 3.336 8.96023 3.45333 8.83756 3.688C8.71489 3.92267 8.65356 4.25333 8.65356 4.68V5.736C8.65356 6.16267 8.71489 6.49333 8.83756 6.728C8.96023 6.96267 9.18156 7.08 9.50156 7.08Z" fill="white"/>
<path d="M14.2984 8.096C13.5678 8.096 13.0264 7.84267 12.6744 7.336C12.3224 6.82933 12.1464 6.12 12.1464 5.208C12.1464 4.296 12.3224 3.58667 12.6744 3.08C13.0264 2.57333 13.5678 2.32 14.2984 2.32C15.0291 2.32 15.5704 2.57333 15.9224 3.08C16.2744 3.58667 16.4504 4.296 16.4504 5.208C16.4504 6.12 16.2744 6.82933 15.9224 7.336C15.5704 7.84267 15.0291 8.096 14.2984 8.096ZM14.2984 7.08C14.6184 7.08 14.8398 6.96267 14.9624 6.728C15.0851 6.49333 15.1464 6.16267 15.1464 5.736V4.68C15.1464 4.25333 15.0851 3.92267 14.9624 3.688C14.8398 3.45333 14.6184 3.336 14.2984 3.336C13.9784 3.336 13.7571 3.45333 13.6344 3.688C13.5118 3.92267 13.4504 4.25333 13.4504 4.68V5.736C13.4504 6.16267 13.5118 6.49333 13.6344 6.728C13.7571 6.96267 13.9784 7.08 14.2984 7.08Z" fill="white"/>
</g>
</g>
</svg>
