<svg width="32" height="32" viewBox="0 0 32 32" fill="none" xmlns="http://www.w3.org/2000/svg">
<g id="markets / market-derived-jump-150">
<g id="icon">
<path fill-rule="evenodd" clip-rule="evenodd" d="M4 12V14H2V12H4Z" fill="#FF444F"/>
<path fill-rule="evenodd" clip-rule="evenodd" d="M8 12V16H6V12H8Z" fill="#FF444F"/>
<path fill-rule="evenodd" clip-rule="evenodd" d="M12 12V29H10V12H12Z" fill="#FF444F"/>
<path fill-rule="evenodd" clip-rule="evenodd" d="M16 26V32H14V26H16Z" fill="#FF444F"/>
<path fill-rule="evenodd" clip-rule="evenodd" d="M20 22V29H18V22H20Z" fill="#0AA0B0"/>
<path fill-rule="evenodd" clip-rule="evenodd" d="M24 0V26H22V0H24Z" fill="#0AA0B0"/>
<path fill-rule="evenodd" clip-rule="evenodd" d="M28 4V12H26V4H28Z" fill="#0AA0B0"/>
<path fill-rule="evenodd" clip-rule="evenodd" d="M32 8V12H30V8H32Z" fill="#0AA0B0"/>
<path d="M14.9625 6.728C14.8398 6.96267 14.6185 7.08 14.2985 7.08C13.9785 7.08 13.7571 6.96267 13.6345 6.728C13.5118 6.49333 13.4505 6.16267 13.4505 5.736V4.68C13.4505 4.25333 13.5118 3.92267 13.6345 3.688C13.7571 3.45333 13.9785 3.336 14.2985 3.336C14.6185 3.336 14.8398 3.45333 14.9625 3.688C15.0851 3.92267 15.1465 4.25333 15.1465 4.68V5.736C15.1465 6.16267 15.0851 6.49333 14.9625 6.728Z" fill="#414652"/>
<path fill-rule="evenodd" clip-rule="evenodd" d="M2 0C0.895431 0 0 0.89543 0 2V8C0 9.10457 0.895431 10 2 10H17C18.1046 10 19 9.10457 19 8V2C19 0.895431 18.1046 0 17 0H2ZM12.6745 7.336C13.0265 7.84267 13.5678 8.096 14.2985 8.096C15.0291 8.096 15.5705 7.84267 15.9225 7.336C16.2745 6.82933 16.4505 6.12 16.4505 5.208C16.4505 4.296 16.2745 3.58667 15.9225 3.08C15.5705 2.57333 15.0291 2.32 14.2985 2.32C13.5678 2.32 13.0265 2.57333 12.6745 3.08C12.3225 3.58667 12.1465 4.296 12.1465 5.208C12.1465 6.12 12.3225 6.82933 12.6745 7.336ZM3.05672 8V7.032H4.56072V3.288H4.48872L3.35272 4.776L2.58472 4.176L3.92072 2.416H5.76072V7.032H6.94472V8H3.05672ZM11.2776 3.464H8.74159L8.62159 5.232H8.68559C8.73892 5.09867 8.79759 4.97867 8.86159 4.872C8.93093 4.76 9.01093 4.66667 9.10159 4.592C9.19226 4.512 9.30159 4.45067 9.42959 4.408C9.55759 4.36533 9.70959 4.344 9.88559 4.344C10.1256 4.344 10.3496 4.384 10.5576 4.464C10.7656 4.544 10.9469 4.66133 11.1016 4.816C11.2563 4.96533 11.3789 5.152 11.4696 5.376C11.5603 5.59467 11.6056 5.84267 11.6056 6.12C11.6056 6.40267 11.5576 6.66667 11.4616 6.912C11.3709 7.152 11.2323 7.36 11.0456 7.536C10.8643 7.712 10.6403 7.85067 10.3736 7.952C10.1069 8.048 9.80293 8.096 9.46159 8.096C9.18959 8.096 8.94959 8.06667 8.74159 8.008C8.53359 7.94933 8.34959 7.872 8.18959 7.776C8.02959 7.67467 7.89093 7.56 7.77359 7.432C7.65626 7.304 7.55493 7.168 7.46959 7.024L8.34159 6.336C8.46426 6.55467 8.61093 6.74133 8.78159 6.896C8.95226 7.04533 9.18159 7.12 9.46959 7.12C9.75759 7.12 9.97359 7.03733 10.1176 6.872C10.2669 6.70667 10.3416 6.488 10.3416 6.216V6.152C10.3416 5.896 10.2669 5.69333 10.1176 5.544C9.96826 5.39467 9.76293 5.32 9.50159 5.32C9.28292 5.32 9.10159 5.36533 8.95759 5.456C8.81893 5.54133 8.71226 5.62667 8.63759 5.712L7.65359 5.576L7.86159 2.416H11.2776V3.464Z" fill="#414652"/>
<path d="M3.05672 8V7.032H4.56072V3.288H4.48872L3.35272 4.776L2.58472 4.176L3.92072 2.416H5.76072V7.032H6.94472V8H3.05672Z" fill="white"/>
<path d="M11.2776 3.464H8.74159L8.62159 5.232H8.68559C8.73892 5.09867 8.79759 4.97867 8.86159 4.872C8.93093 4.76 9.01093 4.66667 9.10159 4.592C9.19226 4.512 9.30159 4.45067 9.42959 4.408C9.55759 4.36533 9.70959 4.344 9.88559 4.344C10.1256 4.344 10.3496 4.384 10.5576 4.464C10.7656 4.544 10.9469 4.66133 11.1016 4.816C11.2563 4.96533 11.3789 5.152 11.4696 5.376C11.5603 5.59467 11.6056 5.84267 11.6056 6.12C11.6056 6.40267 11.5576 6.66667 11.4616 6.912C11.3709 7.152 11.2323 7.36 11.0456 7.536C10.8643 7.712 10.6403 7.85067 10.3736 7.952C10.1069 8.048 9.80293 8.096 9.46159 8.096C9.18959 8.096 8.94959 8.06667 8.74159 8.008C8.53359 7.94933 8.34959 7.872 8.18959 7.776C8.02959 7.67467 7.89093 7.56 7.77359 7.432C7.65626 7.304 7.55493 7.168 7.46959 7.024L8.34159 6.336C8.46426 6.55467 8.61093 6.74133 8.78159 6.896C8.95226 7.04533 9.18159 7.12 9.46959 7.12C9.75759 7.12 9.97359 7.03733 10.1176 6.872C10.2669 6.70667 10.3416 6.488 10.3416 6.216V6.152C10.3416 5.896 10.2669 5.69333 10.1176 5.544C9.96826 5.39467 9.76293 5.32 9.50159 5.32C9.28292 5.32 9.10159 5.36533 8.95759 5.456C8.81893 5.54133 8.71226 5.62667 8.63759 5.712L7.65359 5.576L7.86159 2.416H11.2776V3.464Z" fill="white"/>
<path d="M14.2985 8.096C13.5678 8.096 13.0265 7.84267 12.6745 7.336C12.3225 6.82933 12.1465 6.12 12.1465 5.208C12.1465 4.296 12.3225 3.58667 12.6745 3.08C13.0265 2.57333 13.5678 2.32 14.2985 2.32C15.0291 2.32 15.5705 2.57333 15.9225 3.08C16.2745 3.58667 16.4505 4.296 16.4505 5.208C16.4505 6.12 16.2745 6.82933 15.9225 7.336C15.5705 7.84267 15.0291 8.096 14.2985 8.096ZM14.2985 7.08C14.6185 7.08 14.8398 6.96267 14.9625 6.728C15.0851 6.49333 15.1465 6.16267 15.1465 5.736V4.68C15.1465 4.25333 15.0851 3.92267 14.9625 3.688C14.8398 3.45333 14.6185 3.336 14.2985 3.336C13.9785 3.336 13.7571 3.45333 13.6345 3.688C13.5118 3.92267 13.4505 4.25333 13.4505 4.68V5.736C13.4505 6.16267 13.5118 6.49333 13.6345 6.728C13.7571 6.96267 13.9785 7.08 14.2985 7.08Z" fill="white"/>
</g>
</g>
</svg>
