<svg width="32" height="32" viewBox="0 0 32 32" fill="none" xmlns="http://www.w3.org/2000/svg">
<g id="markets / market-metal-aluminium" clip-path="url(#clip0_1828_1174)">
<g id="logo">
<path d="M32 16C32 24.8366 24.8366 32 16 32C7.16344 32 0 24.8366 0 16C0 7.16344 7.16344 0 16 0C24.8366 0 32 7.16344 32 16Z" fill="#C3D0DD"/>
<path d="M26.201 3.67309C25.5064 3.09761 24.7623 2.57972 23.9761 2.12674L2.12674 23.9761C2.57972 24.7623 3.09761 25.5064 3.67309 26.201L26.201 3.67309Z" fill="#DAE6F1"/>
<path d="M7.72182 29.6948C6.56639 28.9949 5.50664 28.1528 4.5668 27.1929L27.1929 4.5668C28.1528 5.50664 28.9949 6.56639 29.6948 7.72182L7.72182 29.6948Z" fill="#DAE6F1"/>
<path d="M12.396 31.5925C11.8962 31.4774 11.4053 31.3389 10.9246 31.1783L31.1783 10.9246C31.3389 11.4053 31.4774 11.8962 31.5925 12.396L12.396 31.5925Z" fill="#DAE6F1"/>
<path d="M29 16C29 23.1797 23.1797 29 16 29C8.8203 29 3 23.1797 3 16C3 8.8203 8.8203 3 16 3C23.1797 3 29 8.8203 29 16Z" fill="#92A7BB"/>
<path d="M16 29C23.1797 29 29 23.1797 29 16C29 13.7965 28.4518 11.7211 27.4844 9.90266C19.0223 12.3526 12.3526 19.0222 9.90259 27.4842C11.7211 28.4518 13.7965 29 16 29Z" fill="#899AAE"/>
<path d="M25.6789 7.32114C23.3775 5.25613 20.3354 4 17 4C9.8203 4 4 9.8203 4 17C4 20.3354 5.25613 23.3775 7.32114 25.6789C4.66864 23.2988 3 19.8443 3 16C3 8.8203 8.8203 3 16 3C19.8443 3 23.2988 4.66864 25.6789 7.32114Z" fill="#6C7886"/>
</g>
</g>
<defs>
<clipPath id="clip0_1828_1174">
<rect width="32" height="32" fill="white"/>
</clipPath>
</defs>
</svg>
