<svg width="32" height="32" viewBox="0 0 32 32" fill="none" xmlns="http://www.w3.org/2000/svg">
<g id="markets / market-cryptocurrency-adausd">
<g id="currencies / currency-ada" clip-path="url(#clip0_1828_2355)">
<g id="logo">
<path d="M19.9997 11C19.9997 15.97 15.9707 19.9989 11.0007 19.9989C6.03069 19.9989 2.00171 15.97 2.00171 11C2.00171 6.02996 6.03069 2.00098 11.0007 2.00098C15.9707 2.00098 19.9997 6.02996 19.9997 11Z" fill="#0033AD"/>
<path d="M10.9739 7.06092C11.0293 7.06408 11.0844 7.05073 11.1322 7.02258C11.18 6.99442 11.2183 6.95273 11.2424 6.90276C11.2665 6.85279 11.2753 6.79679 11.2676 6.74185C11.2598 6.68692 11.236 6.63551 11.199 6.59413C11.1621 6.55274 11.1137 6.52325 11.06 6.50938C11.0063 6.49551 10.9496 6.49788 10.8973 6.51619C10.8449 6.5345 10.7991 6.56793 10.7658 6.61226C10.7324 6.65658 10.7129 6.70981 10.7098 6.7652C10.7057 6.83942 10.7311 6.91227 10.7806 6.96772C10.8302 7.02317 10.8997 7.05669 10.9739 7.06092Z" fill="white"/>
<path d="M13.4134 7.19959C13.3698 7.19998 13.327 7.18742 13.2905 7.16351C13.2417 7.13148 13.2075 7.08137 13.1956 7.02417C13.1836 6.96698 13.1949 6.90738 13.2268 6.85848C13.2507 6.82196 13.2849 6.79335 13.325 6.77625C13.3651 6.75916 13.4094 6.75435 13.4523 6.76244C13.4952 6.77053 13.5347 6.79116 13.5658 6.8217C13.5969 6.85225 13.6183 6.89134 13.6272 6.93404C13.6362 6.97674 13.6322 7.02113 13.6159 7.06158C13.5996 7.10204 13.5716 7.13674 13.5356 7.16131C13.4995 7.18587 13.457 7.1992 13.4134 7.19959Z" fill="white"/>
<path d="M8.6688 7.18678C8.7075 7.16691 8.73946 7.13603 8.76065 7.09803C8.78184 7.06004 8.79131 7.01662 8.78788 6.97325C8.78445 6.92988 8.76826 6.88849 8.74136 6.8543C8.71446 6.82011 8.67805 6.79464 8.6367 6.7811C8.59536 6.76756 8.55093 6.76656 8.50902 6.77821C8.4671 6.78986 8.42957 6.81366 8.40115 6.84659C8.37272 6.87953 8.35468 6.92014 8.34929 6.96331C8.3439 7.00648 8.3514 7.05028 8.37084 7.0892C8.38391 7.11525 8.40201 7.13845 8.42409 7.15747C8.44618 7.1765 8.4718 7.19096 8.4995 7.20003C8.5272 7.2091 8.55642 7.2126 8.58548 7.21033C8.61453 7.20805 8.64285 7.20005 8.6688 7.18678Z" fill="white"/>
<path d="M8.88378 11.6362C8.76338 11.501 8.70158 11.3235 8.71196 11.1428L8.7101 11.1432C8.71773 11.0103 8.76411 10.8825 8.84351 10.7757C8.92291 10.6689 9.03185 10.5876 9.15689 10.542C9.28193 10.4964 9.4176 10.4883 9.54714 10.5189C9.67669 10.5495 9.79445 10.6173 9.88588 10.7141C9.97731 10.8108 10.0384 10.9322 10.0617 11.0633C10.0849 11.1943 10.0693 11.3293 10.0167 11.4516C9.96407 11.5739 9.87682 11.6781 9.76569 11.7513C9.65456 11.8246 9.52441 11.8637 9.3913 11.8638H9.35406C9.17333 11.8533 9.00418 11.7714 8.88378 11.6362Z" fill="white"/>
<path d="M6.04629 10.9997C6.08378 10.9776 6.12697 10.9671 6.17043 10.9695C6.19933 10.9711 6.22764 10.9784 6.25373 10.9909C6.27982 11.0035 6.30318 11.021 6.32245 11.0426C6.34173 11.0642 6.35655 11.0894 6.36606 11.1168C6.37558 11.1441 6.37959 11.1731 6.37788 11.202C6.37538 11.2454 6.36006 11.2871 6.33385 11.3219C6.30764 11.3566 6.27172 11.3828 6.23063 11.3972C6.18954 11.4115 6.14512 11.4133 6.10298 11.4024C6.06085 11.3915 6.0229 11.3684 5.99391 11.3359C5.96493 11.3034 5.94623 11.2631 5.94016 11.22C5.93409 11.1769 5.94094 11.133 5.95983 11.0938C5.97872 11.0546 6.00881 11.0218 6.04629 10.9997Z" fill="white"/>
<path d="M9.50337 8.25636C9.47024 8.31495 9.42047 8.36241 9.36037 8.39273C9.32044 8.41287 9.27693 8.42495 9.23232 8.42827C9.18772 8.43159 9.1429 8.42609 9.10043 8.41208C9.05795 8.39807 9.01866 8.37583 8.98478 8.34663C8.95091 8.31743 8.92312 8.28183 8.903 8.24189C8.87273 8.18176 8.86096 8.11401 8.86918 8.0472C8.87741 7.98038 8.90526 7.91751 8.94921 7.86652C8.99317 7.81553 9.05125 7.77872 9.11613 7.76074C9.181 7.74276 9.24974 7.74442 9.31367 7.7655C9.3776 7.78659 9.43385 7.82615 9.47529 7.8792C9.51674 7.93224 9.54153 7.99639 9.54653 8.06352C9.55153 8.13065 9.53651 8.19776 9.50337 8.25636Z" fill="white"/>
<path d="M7.03298 9.22215C7.07934 9.25264 7.1337 9.26869 7.18918 9.26827C7.24467 9.26785 7.29878 9.25099 7.34468 9.21981C7.39057 9.18863 7.42619 9.14454 7.44702 9.09311C7.46784 9.04168 7.47295 8.98523 7.46169 8.9309C7.45043 8.87657 7.4233 8.8268 7.38375 8.78789C7.34419 8.74898 7.29398 8.72268 7.23947 8.71231C7.18497 8.70194 7.12861 8.70798 7.07753 8.72965C7.02645 8.75132 6.98295 8.78766 6.95253 8.83406C6.91179 8.89621 6.89737 8.97199 6.91246 9.04475C6.92754 9.11752 6.97089 9.18132 7.03298 9.22215Z" fill="white"/>
<path d="M7.25545 10.8922C7.31344 10.858 7.38026 10.8418 7.44747 10.8456C7.53764 10.8508 7.62206 10.8916 7.68219 10.959C7.74231 11.0263 7.77323 11.1149 7.76815 11.205C7.76428 11.2722 7.74059 11.3368 7.70005 11.3905C7.6595 11.4442 7.60394 11.4848 7.54038 11.5069C7.47683 11.5291 7.40812 11.5319 7.34296 11.515C7.27779 11.4982 7.2191 11.4623 7.17428 11.4121C7.12947 11.3619 7.10055 11.2995 7.09119 11.2329C7.08182 11.1662 7.09243 11.0983 7.12166 11.0376C7.1509 10.977 7.19746 10.9264 7.25545 10.8922Z" fill="white"/>
<path d="M7.07018 13.1343C7.02069 13.1593 6.97972 13.1984 6.95246 13.2467C6.9252 13.295 6.91286 13.3503 6.91702 13.4056C6.92118 13.4609 6.94164 13.5138 6.97581 13.5574C7.00999 13.6011 7.05635 13.6337 7.10903 13.651C7.1617 13.6683 7.21834 13.6697 7.27177 13.6548C7.32521 13.64 7.37304 13.6096 7.40922 13.5676C7.4454 13.5256 7.46832 13.4738 7.47506 13.4187C7.4818 13.3637 7.47207 13.3078 7.4471 13.2583C7.43051 13.2254 7.40759 13.1961 7.37967 13.1721C7.35174 13.148 7.31935 13.1297 7.28434 13.1182C7.24934 13.1067 7.21241 13.1022 7.17566 13.1049C7.13892 13.1077 7.10307 13.1177 7.07018 13.1343Z" fill="white"/>
<path d="M8.61693 10.2075C8.53768 10.2082 8.45999 10.1854 8.3937 10.142C8.34964 10.1131 8.31169 10.0759 8.28203 10.0324C8.25238 9.98891 8.23159 9.93999 8.22087 9.88844C8.21014 9.83689 8.20969 9.78374 8.21953 9.73201C8.22938 9.68029 8.24933 9.63102 8.27824 9.58702C8.32171 9.52074 8.38384 9.46884 8.4568 9.43787C8.52976 9.40691 8.61026 9.39827 8.68813 9.41306C8.76599 9.42784 8.83773 9.46539 8.89426 9.52094C8.95079 9.57649 8.98958 9.64755 9.00572 9.72515C9.02187 9.80274 9.01464 9.88338 8.98495 9.95687C8.95527 10.0304 8.90446 10.0934 8.83896 10.138C8.77345 10.1826 8.69618 10.2068 8.61693 10.2075Z" fill="white"/>
<path d="M12.5918 8.36581C12.6483 8.40263 12.7143 8.42188 12.7817 8.42115C12.8491 8.42041 12.9148 8.39971 12.9704 8.36167C13.026 8.32362 13.0691 8.26994 13.0942 8.20741C13.1193 8.14488 13.1254 8.07631 13.1115 8.01036C13.0977 7.94441 13.0646 7.88404 13.0164 7.83689C12.9683 7.78974 12.9072 7.75793 12.841 7.74546C12.7748 7.733 12.7064 7.74045 12.6444 7.76688C12.5824 7.7933 12.5296 7.83751 12.4927 7.89392C12.4682 7.93139 12.4513 7.97333 12.443 8.01735C12.4347 8.06137 12.4351 8.10659 12.4443 8.15043C12.4535 8.19427 12.4713 8.23586 12.4966 8.27282C12.5219 8.30978 12.5543 8.34138 12.5918 8.36581Z" fill="white"/>
<path d="M12.6455 10.4936C12.5561 10.4884 12.4666 10.501 12.382 10.5304C12.2975 10.5599 12.2196 10.6057 12.1527 10.6653C12.0178 10.7856 11.9361 10.9546 11.9257 11.1351C11.9154 11.3156 11.9771 11.4929 12.0974 11.6279C12.2177 11.7628 12.3868 11.8445 12.5673 11.8549H12.6068C12.7383 11.8548 12.8669 11.8167 12.9773 11.7451C13.0876 11.6736 13.1749 11.5717 13.2286 11.4516C13.2823 11.3316 13.3001 11.1986 13.2799 11.0686C13.2597 10.9387 13.2024 10.8174 13.1148 10.7193C13.0554 10.6524 12.9834 10.598 12.9028 10.5592C12.8223 10.5205 12.7348 10.4982 12.6455 10.4936Z" fill="white"/>
<path d="M9.83547 10.3694C9.72782 10.3032 9.6408 10.2082 9.58422 10.0951C9.53219 9.99126 9.50756 9.87581 9.51267 9.75974C9.51778 9.64366 9.55246 9.53082 9.61343 9.43191C9.67439 9.33301 9.75961 9.25132 9.86101 9.19459C9.9624 9.13786 10.0766 9.10799 10.1928 9.10779C10.3189 9.10718 10.4427 9.14171 10.5503 9.20749C10.658 9.27327 10.7451 9.36771 10.8021 9.48024C10.8548 9.58421 10.8799 9.69995 10.8751 9.81639C10.8703 9.93284 10.8357 10.0461 10.7746 10.1454C10.7136 10.2447 10.6282 10.3267 10.5264 10.3835C10.4247 10.4404 10.3101 10.4702 10.1935 10.4702C10.0671 10.4706 9.94312 10.4357 9.83547 10.3694Z" fill="white"/>
<path d="M14.9288 9.22173C14.9783 9.19674 15.0193 9.15765 15.0466 9.10938C15.0739 9.06111 15.0863 9.00583 15.0822 8.95053C15.0781 8.89524 15.0576 8.8424 15.0235 8.7987C14.9894 8.755 14.943 8.7224 14.8904 8.70503C14.8377 8.68765 14.7811 8.68627 14.7277 8.70106C14.6742 8.71586 14.6264 8.74616 14.5901 8.78815C14.5539 8.83013 14.531 8.88191 14.5242 8.93694C14.5173 8.99197 14.527 9.04779 14.5519 9.09733C14.5854 9.16378 14.644 9.2142 14.7146 9.23753C14.7853 9.26085 14.8624 9.25517 14.9288 9.22173Z" fill="white"/>
<path d="M13.032 9.59902C13.0711 9.53005 13.1297 9.4742 13.2005 9.43855C13.2475 9.41483 13.2987 9.4006 13.3512 9.39669C13.4037 9.39279 13.4564 9.39927 13.5064 9.41577C13.5564 9.43227 13.6027 9.45847 13.6425 9.49286C13.6824 9.52725 13.715 9.56917 13.7387 9.61621C13.7743 9.687 13.7882 9.76677 13.7785 9.84544C13.7688 9.9241 13.736 9.99813 13.6843 10.0582C13.6325 10.1182 13.5641 10.1615 13.4877 10.1827C13.4113 10.2038 13.3304 10.2019 13.2551 10.177C13.1799 10.1522 13.1137 10.1056 13.0649 10.0431C13.0161 9.98062 12.9869 9.90509 12.9811 9.82604C12.9752 9.747 12.993 9.66799 13.032 9.59902Z" fill="white"/>
<path d="M11.197 8.77114C11.1287 8.8114 11.0501 8.83051 10.971 8.82608C10.8648 8.82003 10.7654 8.77206 10.6945 8.69272C10.6237 8.61338 10.5873 8.50916 10.5933 8.40298C10.5978 8.32387 10.6257 8.24788 10.6735 8.18462C10.7212 8.12136 10.7866 8.07367 10.8614 8.04757C10.9362 8.02146 11.0171 8.01813 11.0938 8.03798C11.1705 8.05783 11.2396 8.09997 11.2924 8.15909C11.3451 8.2182 11.3792 8.29163 11.3902 8.3701C11.4013 8.44856 11.3888 8.52854 11.3544 8.59992C11.32 8.6713 11.2652 8.73089 11.197 8.77114Z" fill="white"/>
<path d="M8.79941 12.9169C8.87019 12.8813 8.9288 12.8254 8.96782 12.7564C9.00684 12.6874 9.02453 12.6084 9.01864 12.5293C9.01275 12.4503 8.98355 12.3747 8.93473 12.3123C8.88591 12.2498 8.81967 12.2033 8.74438 12.1785C8.66909 12.1537 8.58814 12.1517 8.51176 12.173C8.43538 12.1942 8.36701 12.2375 8.31529 12.2976C8.26357 12.3577 8.23083 12.4318 8.2212 12.5104C8.21158 12.5891 8.22551 12.6689 8.26122 12.7397C8.3091 12.8345 8.39268 12.9065 8.49361 12.9397C8.59453 12.973 8.70453 12.9648 8.79941 12.9169Z" fill="white"/>
<path d="M11.1206 9.83978C11.1082 9.68863 11.1467 9.53769 11.2298 9.41085C11.2919 9.31616 11.3767 9.23842 11.4763 9.18465C11.576 9.13087 11.6875 9.10276 11.8008 9.10284C11.9524 9.10303 12.0997 9.1538 12.2192 9.24709C12.3388 9.34039 12.4238 9.4709 12.4608 9.61796C12.4979 9.76502 12.4848 9.92022 12.4237 10.059C12.3626 10.1978 12.257 10.3123 12.1235 10.3843C11.99 10.4563 11.8364 10.4817 11.6868 10.4565C11.5373 10.4314 11.4004 10.3571 11.2978 10.2454C11.1953 10.1337 11.1329 9.99093 11.1206 9.83978Z" fill="white"/>
<path d="M12.4148 12.2611C12.3602 12.1529 12.2777 12.0611 12.1758 11.9953C12.0739 11.9296 11.9563 11.8922 11.8351 11.8871C11.7139 11.8819 11.5936 11.9092 11.4865 11.9661C11.3794 12.023 11.2894 12.1074 11.2258 12.2107C11.1622 12.314 11.1273 12.4323 11.1248 12.5536C11.1222 12.6748 11.152 12.7946 11.2112 12.9004C11.2703 13.0063 11.3566 13.0945 11.4612 13.1559C11.5658 13.2173 11.6849 13.2496 11.8062 13.2496C11.9129 13.2489 12.0179 13.2234 12.1131 13.1751C12.274 13.0937 12.3961 12.9517 12.4527 12.7804C12.5092 12.6091 12.4956 12.4224 12.4148 12.2611Z" fill="white"/>
<path d="M13.3827 12.1479C13.462 12.1473 13.5396 12.1701 13.6059 12.2136C13.6946 12.2721 13.7565 12.3633 13.7781 12.4673C13.7996 12.5714 13.7791 12.6797 13.721 12.7686C13.6775 12.8348 13.6153 12.8867 13.5423 12.9176C13.4694 12.9486 13.3889 12.9572 13.311 12.9423C13.2331 12.9275 13.1614 12.8899 13.1049 12.8343C13.0484 12.7787 13.0097 12.7076 12.9936 12.63C12.9775 12.5524 12.9848 12.4718 13.0145 12.3983C13.0442 12.3248 13.0951 12.2618 13.1606 12.2173C13.2262 12.1727 13.3035 12.1486 13.3827 12.1479Z" fill="white"/>
<path d="M14.9109 11.1893C14.9147 11.1221 14.8985 11.0553 14.8643 10.9973C14.8302 10.9393 14.7796 10.8927 14.7189 10.8635C14.6583 10.8342 14.5904 10.8236 14.5237 10.833C14.457 10.8424 14.3947 10.8713 14.3444 10.9161C14.2942 10.9609 14.2584 11.0196 14.2415 11.0848C14.2246 11.1499 14.2275 11.2186 14.2496 11.2822C14.2718 11.3458 14.3123 11.4013 14.366 11.4419C14.4198 11.4824 14.4843 11.5061 14.5515 11.51C14.6417 11.515 14.7302 11.4841 14.7976 11.424C14.865 11.3639 14.9058 11.2795 14.9109 11.1893Z" fill="white"/>
<path d="M15.7295 10.9771C15.7671 10.955 15.8104 10.9445 15.854 10.947C15.9123 10.9505 15.9669 10.9769 16.0058 11.0206C16.0447 11.0642 16.0647 11.1215 16.0614 11.1798C16.0589 11.2234 16.0436 11.2652 16.0173 11.3C15.991 11.3348 15.955 11.361 15.9138 11.3754C15.8727 11.3897 15.8282 11.3915 15.7859 11.3806C15.7437 11.3696 15.7057 11.3464 15.6767 11.3139C15.6477 11.2813 15.629 11.2409 15.6229 11.1977C15.6169 11.1545 15.6238 11.1105 15.6428 11.0712C15.6618 11.032 15.692 10.9992 15.7295 10.9771Z" fill="white"/>
<path d="M14.966 13.1335C14.9196 13.1031 14.8653 13.0872 14.8098 13.0877C14.7544 13.0882 14.7003 13.1051 14.6545 13.1364C14.6086 13.1676 14.5731 13.2117 14.5523 13.2631C14.5316 13.3145 14.5265 13.371 14.5378 13.4253C14.5491 13.4796 14.5762 13.5293 14.6158 13.5682C14.6553 13.607 14.7055 13.6333 14.76 13.6437C14.8145 13.654 14.8708 13.648 14.9219 13.6263C14.9729 13.6047 15.0164 13.5684 15.0469 13.522C15.0671 13.4912 15.081 13.4567 15.0879 13.4205C15.0948 13.3843 15.0945 13.3471 15.0869 13.311C15.0794 13.2749 15.0649 13.2407 15.0442 13.2102C15.0234 13.1798 14.9969 13.1537 14.966 13.1335Z" fill="white"/>
<path d="M8.5863 15.1556C8.6299 15.1553 8.67263 15.1678 8.70909 15.1918C8.73331 15.2077 8.75416 15.2282 8.77044 15.2521C8.78673 15.2761 8.79814 15.303 8.80402 15.3313C8.8099 15.3597 8.81014 15.389 8.80471 15.4174C8.79929 15.4459 8.78831 15.473 8.77241 15.4972C8.74847 15.5336 8.71426 15.5621 8.6741 15.5791C8.63395 15.5961 8.58966 15.6009 8.54683 15.5927C8.504 15.5845 8.46455 15.5638 8.43347 15.5333C8.40239 15.5027 8.38108 15.4636 8.37223 15.4209C8.36338 15.3782 8.36738 15.3338 8.38374 15.2934C8.4001 15.253 8.42807 15.2183 8.46413 15.1938C8.50018 15.1693 8.5427 15.156 8.5863 15.1556Z" fill="white"/>
<path d="M13.3303 15.1689C13.2913 15.1885 13.2591 15.2193 13.2376 15.2572C13.2161 15.2952 13.2064 15.3387 13.2096 15.3822C13.2129 15.4257 13.2289 15.4672 13.2558 15.5016C13.2827 15.5359 13.3191 15.5616 13.3605 15.5752C13.4019 15.5889 13.4465 15.5899 13.4885 15.5783C13.5305 15.5666 13.5681 15.5427 13.5966 15.5097C13.6251 15.4766 13.6431 15.4359 13.6484 15.3926C13.6537 15.3493 13.646 15.3054 13.6264 15.2665C13.6134 15.2406 13.5954 15.2175 13.5735 15.1986C13.5515 15.1797 13.5261 15.1653 13.4986 15.1562C13.4711 15.1472 13.4421 15.1436 13.4132 15.1458C13.3843 15.148 13.3561 15.1558 13.3303 15.1689Z" fill="white"/>
<path d="M10.8787 12.5148C10.891 12.666 10.8526 12.8169 10.7694 12.9438C10.7076 13.0387 10.623 13.1166 10.5233 13.1704C10.4237 13.2242 10.3121 13.2522 10.1989 13.2518C10.0472 13.2517 9.89989 13.201 9.78028 13.1078C9.66067 13.0145 9.57558 12.884 9.53848 12.737C9.50138 12.5899 9.51439 12.4347 9.57545 12.2958C9.63651 12.157 9.74213 12.0425 9.87559 11.9705C10.009 11.8984 10.1627 11.8729 10.3123 11.8981C10.4619 11.9232 10.5988 11.9975 10.7014 12.1092C10.804 12.2209 10.8663 12.3637 10.8787 12.5148Z" fill="white"/>
<path d="M9.40742 13.9902C9.35109 13.9533 9.2851 13.934 9.21779 13.9346C9.15048 13.9353 9.08487 13.9559 9.02926 13.9938C8.97364 14.0317 8.93052 14.0853 8.90535 14.1477C8.88017 14.2101 8.87407 14.2786 8.88781 14.3445C8.90155 14.4104 8.93452 14.4708 8.98255 14.5179C9.03058 14.5651 9.09151 14.597 9.15765 14.6095C9.22378 14.622 9.29215 14.6147 9.35411 14.5884C9.41607 14.5621 9.46884 14.518 9.50575 14.4617C9.55518 14.3861 9.57259 14.294 9.55416 14.2056C9.53572 14.1172 9.48294 14.0397 9.40742 13.9902Z" fill="white"/>
<path d="M10.8385 15.3328C10.8863 15.3047 10.9413 15.2913 10.9967 15.2945C11.0335 15.2966 11.0695 15.3059 11.1027 15.3219C11.1359 15.3379 11.1656 15.3603 11.1901 15.3878C11.2146 15.4153 11.2335 15.4474 11.2456 15.4822C11.2577 15.517 11.2629 15.5538 11.2608 15.5906C11.2576 15.646 11.2381 15.6991 11.2046 15.7434C11.1712 15.7877 11.1255 15.8211 11.0731 15.8393C11.0207 15.8576 10.9641 15.8599 10.9104 15.846C10.8567 15.8321 10.8084 15.8025 10.7715 15.7612C10.7346 15.7198 10.7107 15.6684 10.703 15.6134C10.6953 15.5585 10.7041 15.5025 10.7282 15.4526C10.7523 15.4026 10.7907 15.361 10.8385 15.3328Z" fill="white"/>
<path d="M10.9996 13.53C10.9204 13.5252 10.8416 13.544 10.7731 13.584C10.7046 13.6241 10.6495 13.6835 10.6149 13.7549C10.5802 13.8262 10.5675 13.9062 10.5783 13.9848C10.5892 14.0634 10.6231 14.137 10.6758 14.1963C10.7285 14.2556 10.7976 14.2979 10.8744 14.3179C10.9512 14.3378 11.0321 14.3346 11.107 14.3085C11.182 14.2824 11.2475 14.2347 11.2952 14.1714C11.343 14.108 11.3709 14.0319 11.3754 13.9527C11.3815 13.8469 11.3454 13.7429 11.2749 13.6637C11.2045 13.5844 11.1055 13.5363 10.9996 13.53Z" fill="white"/>
<path d="M12.4959 14.1C12.5289 14.0412 12.5786 13.9935 12.6388 13.963C12.6786 13.9427 12.722 13.9304 12.7666 13.9269C12.8112 13.9234 12.856 13.9287 12.8985 13.9425C12.941 13.9564 12.9804 13.9785 13.0144 14.0075C13.0484 14.0366 13.0763 14.0721 13.0965 14.112C13.1272 14.172 13.1393 14.2398 13.1314 14.3068C13.1235 14.3738 13.0959 14.4369 13.0521 14.4882C13.0083 14.5395 12.9503 14.5766 12.8854 14.5949C12.8205 14.6132 12.7516 14.6118 12.6875 14.5909C12.6234 14.5701 12.5669 14.5306 12.5252 14.4777C12.4835 14.4247 12.4584 14.3605 12.4532 14.2933C12.448 14.226 12.4628 14.1587 12.4959 14.1Z" fill="white"/>
</g>
</g>
<g id="currencies / currency-usd">
<g id="logo_2">
<path d="M12.019 20.4375C12.0075 20.6235 12.0017 20.8111 12.0017 21C12.0017 21.3809 12.0254 21.7563 12.0713 22.1248H29.9301C29.976 21.7563 29.9997 21.3809 29.9997 21C29.9997 20.8111 29.9938 20.6235 29.9824 20.4375H12.019Z" fill="white"/>
<path d="M21.0007 17.0629V18.7502H29.7162C29.5649 18.1624 29.3557 17.5978 29.095 17.0629H21.0007Z" fill="white"/>
<path d="M21.0007 15.3756H28.0259C27.5131 14.7358 26.9146 14.1676 26.2479 13.6883H21.0007V15.3756Z" fill="white"/>
<path d="M12.4498 23.8121C12.6444 24.4041 12.8987 24.9689 13.2056 25.4995H28.7958C29.1027 24.9689 29.357 24.4041 29.5516 23.8121H12.4498Z" fill="white"/>
<path d="M14.4657 27.1868C15.0978 27.8541 15.831 28.4247 16.6407 28.8741H25.3607C26.1704 28.4247 26.9036 27.8541 27.5357 27.1868H14.4657Z" fill="white"/>
<path d="M21.0008 12.001L21.0007 13.6883H26.2479C24.7708 12.6264 22.9589 12.001 21.0008 12.001Z" fill="#F44336"/>
<path d="M21.0008 20.4375H29.9824C29.9467 19.8586 29.8563 19.2944 29.7162 18.7502H21.0007L21.0008 20.4375Z" fill="#F44336"/>
<path d="M21.0007 17.0629H29.095C28.801 16.4596 28.4416 15.8941 28.0259 15.3756H21.0007V17.0629Z" fill="#F44336"/>
<path d="M29.9301 22.1248C29.8576 22.7063 29.7296 23.2706 29.5516 23.8121H12.4498C12.2718 23.2706 12.1438 22.7063 12.0713 22.1248H29.9301Z" fill="#F44336"/>
<path d="M13.2056 25.4995C13.5594 26.111 13.9831 26.6771 14.4657 27.1868H27.5357C28.0183 26.6771 28.442 26.111 28.7958 25.4995H13.2056Z" fill="#F44336"/>
<path d="M21.0008 29.9989C22.5827 29.9989 24.069 29.5908 25.3607 28.8741H16.6407C17.9324 29.5908 19.419 29.9989 21.0008 29.9989Z" fill="#F44336"/>
<path fill-rule="evenodd" clip-rule="evenodd" d="M21.0008 20.4375H12.019C12.0375 20.1381 12.0706 19.8426 12.1176 19.5518C12.1155 19.5647 12.1136 19.5774 12.1115 19.5904C12.1171 19.5891 12.1225 19.5868 12.1274 19.5834C12.1434 19.5721 12.1501 19.5517 12.1438 19.5331L12.1286 19.4856C12.1512 19.3523 12.1767 19.22 12.2051 19.0888C12.2045 19.0918 12.2038 19.0948 12.2031 19.0978L12.3122 19.0175C12.3269 19.0057 12.3327 18.9859 12.3267 18.968C12.3206 18.9501 12.304 18.9379 12.2851 18.9374H12.2392C12.3991 18.2557 12.6364 17.6038 12.9416 16.9916C12.9383 16.9981 12.935 17.0047 12.9318 17.0112L13.0807 16.9045L13.3506 17.098C13.3581 17.104 13.367 17.1072 13.376 17.1076C13.3856 17.1081 13.3952 17.1054 13.4035 17.0997C13.4103 17.0949 13.4154 17.0885 13.4185 17.0813C13.4228 17.0715 13.4235 17.0601 13.4199 17.0494L13.3182 16.7326L13.5882 16.5338C13.6029 16.522 13.6088 16.5022 13.6027 16.4843C13.5967 16.4664 13.5801 16.4542 13.5612 16.4537H13.2329C13.8697 15.368 14.7275 14.4278 15.7446 13.6947L15.9027 13.808C15.9088 13.8128 15.9159 13.8159 15.9232 13.8171C15.9282 13.8179 15.9333 13.8178 15.9384 13.8169C15.9425 13.8161 15.9464 13.8148 15.9502 13.8129L15.9531 13.8112L15.9556 13.8096C15.9716 13.7984 15.9783 13.7779 15.972 13.7594L15.9132 13.5761C17.3603 12.5824 19.1127 12.001 21.0008 12.001V20.4375ZM19.6031 12.3591L19.5229 12.1217C19.4778 12.1292 19.4329 12.137 19.3882 12.1451L19.3152 12.3609H18.9831C18.977 12.3611 18.9713 12.3624 18.966 12.3648L18.961 12.3674L18.9588 12.3688C18.9509 12.3742 18.9448 12.3821 18.9416 12.3915C18.9356 12.4095 18.9413 12.4292 18.9561 12.441L19.2261 12.6399L19.1154 12.9549C19.1104 12.9732 19.1174 12.9926 19.133 13.0035C19.1419 13.0098 19.1527 13.0124 19.1632 13.0114C19.1707 13.0107 19.1781 13.0081 19.1847 13.0035L19.4546 12.81L19.7246 13.0035C19.7297 13.0075 19.7355 13.0103 19.7415 13.0118C19.7537 13.0148 19.7668 13.0126 19.7774 13.0051C19.7935 12.9939 19.8002 12.9734 19.7939 12.9549L19.6922 12.6381L19.9622 12.4392C19.9676 12.4349 19.9718 12.4294 19.9747 12.4234L19.9763 12.4195C19.977 12.4179 19.9774 12.4162 19.9778 12.4145C19.9785 12.4115 19.9789 12.4085 19.979 12.4054C19.9791 12.4002 19.9784 12.3949 19.9767 12.3897C19.9722 12.3765 19.962 12.3664 19.9494 12.3618C19.9449 12.3602 19.9402 12.3593 19.9352 12.3591H19.6031ZM17.2253 13.0051C17.2414 12.9939 17.248 12.9734 17.2418 12.9549L17.2045 12.8385C17.1729 12.8532 17.1416 12.8681 17.1103 12.8831L17.0472 12.9137L17.1725 13.0035C17.1878 13.0157 17.2093 13.0164 17.2253 13.0051ZM19.3152 18.9392L19.4222 18.6224C19.4256 18.605 19.4407 18.5923 19.4584 18.5919C19.4762 18.5915 19.4918 18.6034 19.496 18.6206L19.6031 18.9374H19.9352C19.9464 18.9377 19.9568 18.9421 19.9646 18.9494C19.97 18.9544 19.9742 18.9607 19.9767 18.968C19.9827 18.9859 19.977 19.0057 19.9622 19.0175L19.6922 19.2164L19.7939 19.5331C19.8002 19.5517 19.7935 19.5721 19.7774 19.5834C19.7614 19.5946 19.7399 19.5939 19.7246 19.5817L19.4546 19.3883L19.1847 19.5817C19.1822 19.5834 19.1797 19.5849 19.177 19.586L19.1739 19.5873L19.1692 19.5887C19.1652 19.5897 19.161 19.5901 19.1569 19.5899C19.1546 19.5898 19.1523 19.5895 19.15 19.5891C19.144 19.5879 19.1382 19.5854 19.133 19.5818C19.1306 19.5801 19.1285 19.5783 19.1266 19.5764C19.1245 19.5742 19.1226 19.5719 19.121 19.5694L19.1196 19.5671L19.1185 19.565L19.1169 19.5615C19.1135 19.5527 19.1128 19.5427 19.1154 19.5331L19.2261 19.2182L18.9561 19.0193C18.9467 19.0118 18.9409 19.001 18.9395 18.9895C18.9388 18.983 18.9394 18.9763 18.9416 18.9698C18.9439 18.9628 18.9479 18.9566 18.953 18.9517C18.9549 18.9499 18.9571 18.9482 18.9593 18.9467L18.963 18.9445L18.9657 18.9431L18.9682 18.9421L18.9731 18.9406C18.9763 18.9398 18.9796 18.9393 18.9831 18.9392H19.3152ZM16.9439 18.6206C16.9396 18.6034 16.9241 18.5915 16.9063 18.5919C16.8886 18.5923 16.8735 18.605 16.8701 18.6224L16.7631 18.9392H16.431C16.4121 18.9397 16.3955 18.9519 16.3895 18.9698C16.3835 18.9877 16.3892 19.0075 16.404 19.0193L16.6739 19.2182L16.5633 19.5331C16.56 19.5453 16.562 19.5579 16.5682 19.5683L16.5709 19.5722L16.5734 19.5752C16.5756 19.5776 16.5781 19.5798 16.5808 19.5818C16.5964 19.5926 16.617 19.5926 16.6325 19.5817L16.9025 19.3883L17.1725 19.5817C17.1784 19.5865 17.1852 19.5895 17.1924 19.5907L17.1964 19.5912L17.1994 19.5914C17.2015 19.5914 17.2036 19.5913 17.2056 19.591C17.2125 19.5901 17.2193 19.5876 17.2253 19.5834C17.2414 19.5721 17.248 19.5517 17.2418 19.5331L17.1401 19.2164L17.4101 19.0175C17.412 19.016 17.4137 19.0143 17.4153 19.0126C17.4166 19.0112 17.4178 19.0097 17.4189 19.0082L17.4213 19.0041C17.4223 19.0023 17.4232 19.0005 17.4239 18.9986C17.425 18.9958 17.4257 18.993 17.4263 18.9901C17.4268 18.9869 17.427 18.9836 17.4269 18.9803L17.4265 18.9764L17.4258 18.9725L17.4246 18.968C17.4185 18.9501 17.402 18.9379 17.3831 18.9374H17.051L16.9439 18.6206ZM14.3981 18.6206L14.5052 18.9374H14.8372C14.8561 18.9379 14.8727 18.9501 14.8788 18.968C14.8817 18.9765 14.8819 18.9855 14.8797 18.9937C14.8773 19.0029 14.872 19.0113 14.8643 19.0175L14.5943 19.2164L14.6959 19.5331C14.6967 19.5354 14.6973 19.5377 14.6977 19.54L14.6981 19.5442L14.6983 19.5492C14.6981 19.5535 14.6972 19.5578 14.6957 19.5619C14.6928 19.5704 14.6872 19.578 14.6795 19.5834C14.6635 19.5946 14.642 19.5939 14.6267 19.5817L14.3567 19.3883L14.0867 19.5817C14.0712 19.5926 14.0506 19.5926 14.035 19.5818C14.0251 19.5748 14.0186 19.5642 14.0166 19.5528C14.0161 19.55 14.0159 19.5473 14.0159 19.5445C14.0159 19.5422 14.0161 19.5398 14.0165 19.5374L14.0175 19.5331L14.1281 19.2182L13.8582 19.0193C13.8521 19.0144 13.8475 19.0082 13.8447 19.0013C13.8427 18.9964 13.8415 18.9911 13.8413 18.9858C13.8412 18.9805 13.8419 18.9751 13.8437 18.9698C13.8473 18.9589 13.855 18.95 13.8646 18.9447C13.8708 18.9413 13.8778 18.9394 13.8852 18.9392H14.2182L14.3252 18.6224C14.3261 18.5774 14.3855 18.5774 14.3981 18.6206ZM18.22 17.7837C18.22 17.7689 18.2121 17.7553 18.1993 17.7479C18.1926 17.744 18.1851 17.7422 18.1776 17.7423C18.1708 17.7425 18.164 17.7444 18.1579 17.7479C18.1525 17.751 18.1481 17.7551 18.1446 17.76C18.143 17.7623 18.1416 17.7647 18.1405 17.7673C18.1383 17.7724 18.1372 17.778 18.1372 17.7837L18.0301 18.1005H17.698C17.6791 18.101 17.6626 18.1132 17.6566 18.1311C17.6505 18.149 17.6563 18.1688 17.671 18.1806L17.941 18.3795L17.8393 18.6962C17.837 18.7049 17.8373 18.7138 17.8399 18.7219C17.8429 18.731 17.8487 18.7391 17.8569 18.7448C17.8724 18.7557 17.8931 18.7557 17.9086 18.7448L18.1786 18.5513L18.4486 18.7448C18.4638 18.757 18.4854 18.7577 18.5014 18.7465C18.5174 18.7352 18.5241 18.7148 18.5179 18.6962L18.4162 18.3795L18.6861 18.1806C18.7009 18.1688 18.7067 18.149 18.7006 18.1311C18.6978 18.1228 18.6928 18.1158 18.6863 18.1105C18.6788 18.1044 18.6693 18.1007 18.6592 18.1005H18.3271L18.22 17.7837ZM15.6742 17.7837L15.7813 18.1005H16.1133C16.1322 18.101 16.1488 18.1132 16.1548 18.1311C16.1609 18.149 16.155 18.1688 16.1403 18.1806L15.8703 18.3795L15.972 18.6962C15.9783 18.7148 15.9716 18.7352 15.9556 18.7465C15.948 18.7518 15.9392 18.7544 15.9304 18.7545C15.9257 18.7545 15.9209 18.7537 15.9164 18.7522C15.9115 18.7506 15.9069 18.7481 15.9027 18.7448L15.6328 18.5513L15.3628 18.7448C15.3473 18.7557 15.3266 18.7557 15.3111 18.7448C15.2956 18.734 15.2885 18.7145 15.2935 18.6962L15.3952 18.3795L15.1253 18.1806C15.1105 18.1688 15.1047 18.149 15.1107 18.1311C15.1167 18.1132 15.1334 18.101 15.1522 18.1005H15.4843L15.5914 17.7837C15.6021 17.7405 15.6616 17.7405 15.6742 17.7837ZM13.2292 18.1005L13.1221 17.7837C13.1094 17.7405 13.05 17.7405 13.0491 17.7837L12.9421 18.1005H12.6001C12.5967 18.1006 12.5933 18.1011 12.59 18.1019C12.5856 18.103 12.5815 18.1048 12.5777 18.1072C12.5689 18.1126 12.562 18.1209 12.5586 18.1311C12.5526 18.149 12.5584 18.1688 12.5731 18.1806L12.8431 18.3795L12.7414 18.6962C12.7364 18.7145 12.7435 18.734 12.759 18.7448C12.7659 18.7497 12.7739 18.7524 12.7819 18.7529C12.7919 18.7535 12.8021 18.7508 12.8107 18.7448L13.0807 18.5513L13.3506 18.7448C13.3659 18.757 13.3874 18.7577 13.4035 18.7465C13.4195 18.7352 13.4262 18.7148 13.4199 18.6962L13.3182 18.3795L13.5882 18.1806C13.6029 18.1688 13.6088 18.149 13.6027 18.1311C13.5967 18.1132 13.5801 18.101 13.5612 18.1005H13.2292ZM19.496 16.9729L19.6031 17.2897H19.9352C19.9541 17.2902 19.9706 17.3024 19.9767 17.3203C19.9791 17.3275 19.9796 17.335 19.9784 17.3422C19.9766 17.3528 19.971 17.3627 19.9622 17.3698L19.6922 17.5686L19.7939 17.8854C19.7971 17.8947 19.7969 17.9044 19.794 17.9133C19.7931 17.9161 19.7919 17.9187 19.7905 17.9213C19.7892 17.9236 19.7876 17.9259 19.7859 17.928C19.7835 17.9308 19.7807 17.9334 19.7774 17.9357C19.7614 17.9469 19.7399 17.9462 19.7246 17.934L19.4546 17.7405L19.1847 17.934C19.1763 17.9398 19.1666 17.9426 19.1569 17.9422C19.1485 17.9418 19.1402 17.9391 19.133 17.934C19.1174 17.9231 19.1104 17.9037 19.1154 17.8854L19.2171 17.5686L18.9471 17.3698C18.9323 17.358 18.9266 17.3382 18.9326 17.3203C18.9362 17.3097 18.9434 17.3011 18.9526 17.2958C18.959 17.292 18.9663 17.2899 18.9741 17.2897H19.3062L19.4132 16.9729C19.4294 16.936 19.4888 16.936 19.496 16.9729ZM17.051 17.2897L16.9439 16.9729C16.9367 16.936 16.8773 16.936 16.8611 16.9729L16.7541 17.2897H16.422C16.4031 17.2902 16.3865 17.3024 16.3805 17.3203C16.3745 17.3382 16.3802 17.358 16.395 17.3698L16.6649 17.5686L16.5633 17.8854C16.5583 17.9037 16.5653 17.9231 16.5808 17.934C16.5964 17.9449 16.617 17.9449 16.6325 17.934L16.9025 17.7405L17.1725 17.934C17.1878 17.9462 17.2093 17.9469 17.2253 17.9357C17.2345 17.9292 17.2406 17.9198 17.243 17.9093C17.2441 17.9049 17.2444 17.9003 17.244 17.8956C17.2437 17.8922 17.243 17.8888 17.2418 17.8854L17.1401 17.5686L17.4101 17.3698C17.4248 17.358 17.4306 17.3382 17.4246 17.3203C17.4211 17.3101 17.4143 17.3018 17.4056 17.2964C17.399 17.2923 17.3913 17.2899 17.3831 17.2897H17.051ZM14.3981 16.9729L14.5052 17.2897H14.8372C14.8561 17.2902 14.8727 17.3024 14.8788 17.3203C14.8848 17.3382 14.879 17.358 14.8643 17.3698L14.5943 17.5686L14.6959 17.8854C14.7023 17.904 14.6955 17.9244 14.6795 17.9357C14.6635 17.9469 14.642 17.9462 14.6267 17.934L14.3567 17.7405L14.0867 17.934C14.0712 17.9449 14.0506 17.9449 14.035 17.934C14.0195 17.9231 14.0125 17.9037 14.0175 17.8854L14.1192 17.5686L13.8492 17.3698C13.8344 17.358 13.8287 17.3382 13.8346 17.3203C13.8407 17.3024 13.8573 17.2902 13.8762 17.2897H14.2182L14.3252 16.9729C14.3261 16.936 14.3855 16.936 14.3981 16.9729ZM18.22 16.1369C18.22 16.1141 18.2014 16.0955 18.1786 16.0955C18.1705 16.0955 18.163 16.0978 18.1566 16.1018L18.1553 16.1026L18.1521 16.1051L18.1494 16.1074L18.1466 16.1105C18.1446 16.113 18.1429 16.1156 18.1415 16.1185C18.1404 16.1208 18.1394 16.1231 18.1387 16.1256C18.1381 16.1278 18.1376 16.13 18.1374 16.1322L18.1372 16.1369L18.0301 16.4537H17.698C17.6791 16.4542 17.6626 16.4664 17.6566 16.4843C17.6505 16.5022 17.6563 16.522 17.671 16.5338L17.941 16.7326L17.8393 17.0494C17.8368 17.0588 17.8374 17.0685 17.8407 17.0772C17.8426 17.0823 17.8456 17.0872 17.8493 17.0913L17.8528 17.0948C17.8541 17.0959 17.8555 17.097 17.8569 17.098C17.8655 17.1041 17.8758 17.1068 17.8859 17.1061C17.8939 17.1055 17.9017 17.1028 17.9086 17.098L18.1786 16.9045L18.4486 17.098C18.453 17.1016 18.4581 17.1042 18.4633 17.1058C18.467 17.1069 18.4707 17.1075 18.4745 17.1076C18.4838 17.108 18.4933 17.1053 18.5014 17.0997C18.5117 17.0925 18.5181 17.0815 18.5197 17.0697C18.5207 17.063 18.5201 17.0561 18.5179 17.0494L18.4162 16.7326L18.6861 16.5338C18.6935 16.5279 18.6986 16.5201 18.7011 16.5115C18.7037 16.5028 18.7036 16.4933 18.7006 16.4843C18.6976 16.4752 18.6918 16.4677 18.6845 16.4623C18.6773 16.457 18.6685 16.4539 18.6592 16.4537H18.3271L18.22 16.1369ZM15.6742 16.1369L15.7813 16.4537H16.1133C16.1322 16.4542 16.1488 16.4664 16.1548 16.4843C16.1609 16.5022 16.155 16.522 16.1403 16.5338L15.8703 16.7326L15.972 17.0494C15.9729 17.052 15.9735 17.0547 15.9738 17.0573C15.9743 17.0606 15.9745 17.064 15.9742 17.0673C15.9738 17.0715 15.9729 17.0757 15.9713 17.0796C15.97 17.0829 15.9683 17.0861 15.9662 17.089C15.9634 17.0931 15.9598 17.0967 15.9556 17.0997C15.9395 17.1109 15.918 17.1102 15.9027 17.098L15.6328 16.9045L15.3628 17.098C15.3473 17.1089 15.3266 17.1089 15.3111 17.098C15.3068 17.095 15.3032 17.0914 15.3003 17.0873C15.2968 17.0824 15.2944 17.0769 15.293 17.0711L15.2922 17.0665L15.2919 17.0612C15.2919 17.0592 15.292 17.0572 15.2923 17.0552C15.2926 17.0533 15.293 17.0513 15.2935 17.0494L15.3952 16.7326L15.1253 16.5338C15.1105 16.522 15.1047 16.5022 15.1107 16.4843C15.1167 16.4664 15.1334 16.4542 15.1522 16.4537H15.4843L15.5914 16.1369C15.6021 16.0937 15.6616 16.0937 15.6742 16.1369ZM19.6031 15.6483L19.496 15.3315C19.4918 15.3143 19.4762 15.3023 19.4584 15.3028C19.4531 15.3029 19.4481 15.3041 19.4436 15.3062C19.4328 15.3112 19.4246 15.3211 19.4222 15.3333L19.3152 15.6501H18.9831C18.9706 15.6504 18.9593 15.6558 18.9512 15.6645C18.947 15.6691 18.9437 15.6745 18.9416 15.6807C18.9393 15.6875 18.9387 15.6947 18.9397 15.7015C18.9413 15.7125 18.947 15.7229 18.9561 15.7302L19.2261 15.929L19.1154 16.244C19.1104 16.2623 19.1174 16.2817 19.133 16.2926C19.1485 16.3035 19.1691 16.3035 19.1847 16.2926L19.4546 16.0991L19.7246 16.2926C19.7399 16.3048 19.7614 16.3055 19.7774 16.2942C19.7935 16.283 19.8002 16.2625 19.7939 16.244L19.6922 15.9272L19.9622 15.7284C19.977 15.7165 19.9827 15.6968 19.9767 15.6789C19.9706 15.661 19.9541 15.6487 19.9352 15.6483H19.6031ZM16.9025 15.2901C16.9133 15.2901 16.9231 15.2942 16.9304 15.301C16.9387 15.3085 16.9439 15.3194 16.9439 15.3315L17.051 15.6483H17.3831C17.402 15.6487 17.4185 15.661 17.4246 15.6789C17.4306 15.6968 17.4248 15.7165 17.4101 15.7284L17.1401 15.9272L17.2418 16.244C17.2448 16.2528 17.2448 16.262 17.2424 16.2705C17.241 16.2752 17.2388 16.2797 17.2359 16.2837L17.2336 16.2867L17.2314 16.2892C17.2295 16.291 17.2275 16.2927 17.2253 16.2942C17.2093 16.3055 17.1878 16.3048 17.1725 16.2926L16.9025 16.0991L16.6325 16.2926C16.617 16.3035 16.5964 16.3035 16.5808 16.2926C16.5653 16.2817 16.5583 16.2623 16.5633 16.244L16.6649 15.9272L16.395 15.7284C16.3802 15.7165 16.3745 15.6968 16.3805 15.6789C16.3865 15.661 16.4031 15.6487 16.422 15.6483H16.7541L16.8611 15.3315C16.8611 15.3086 16.8796 15.2901 16.9025 15.2901ZM14.5052 15.6483L14.3981 15.3315C14.3855 15.2883 14.3261 15.2883 14.3252 15.3315L14.2182 15.6483H13.8762C13.8573 15.6487 13.8407 15.661 13.8346 15.6789C13.8287 15.6968 13.8344 15.7165 13.8492 15.7284L14.1192 15.9272L14.0175 16.244C14.0125 16.2623 14.0195 16.2817 14.035 16.2926C14.0506 16.3035 14.0712 16.3035 14.0867 16.2926L14.3567 16.0991L14.6267 16.2926C14.642 16.3048 14.6635 16.3055 14.6795 16.2942C14.6904 16.2867 14.6969 16.2748 14.6981 16.2622C14.6987 16.2562 14.698 16.25 14.6959 16.244L14.5943 15.9272L14.8643 15.7284C14.879 15.7165 14.8848 15.6968 14.8788 15.6789C14.8727 15.661 14.8561 15.6487 14.8372 15.6483H14.5052ZM15.6742 14.4883L15.7813 14.8051H16.1133C16.1241 14.8053 16.1341 14.8094 16.1419 14.8162C16.1477 14.8214 16.1522 14.828 16.1548 14.8357C16.1609 14.8536 16.155 14.8733 16.1403 14.8852L15.8703 15.084L15.972 15.4008C15.9783 15.4193 15.9716 15.4398 15.9556 15.451C15.9448 15.4586 15.9316 15.4608 15.9194 15.4577C15.9134 15.4562 15.9077 15.4534 15.9027 15.4494L15.6328 15.2559L15.3628 15.4494C15.3541 15.4555 15.3437 15.4582 15.3336 15.4575C15.3257 15.4569 15.3179 15.4542 15.3111 15.4494C15.2956 15.4385 15.2885 15.4191 15.2935 15.4008L15.3952 15.084L15.1253 14.8852C15.1105 14.8733 15.1047 14.8536 15.1107 14.8357C15.1167 14.8178 15.1334 14.8055 15.1522 14.8051H15.4843L15.5914 14.4883C15.6021 14.4514 15.6616 14.4514 15.6742 14.4883ZM18.3271 14.8051L18.22 14.4883C18.2127 14.4514 18.1534 14.4514 18.1372 14.4883L18.0301 14.8051H17.698C17.6791 14.8055 17.6626 14.8178 17.6566 14.8357C17.6505 14.8536 17.6563 14.8733 17.671 14.8852L17.941 15.084L17.8393 15.4008C17.8344 15.4191 17.8414 15.4385 17.8569 15.4494C17.8724 15.4603 17.8931 15.4603 17.9086 15.4494L18.1786 15.2559L18.4486 15.4494C18.4638 15.4616 18.4854 15.4623 18.5014 15.451C18.5174 15.4398 18.5241 15.4193 18.5179 15.4008L18.4162 15.084L18.6861 14.8852C18.7009 14.8733 18.7067 14.8536 18.7006 14.8357C18.6946 14.8178 18.678 14.8055 18.6592 14.8051H18.3271ZM16.9439 13.6838L17.051 14.0006H17.3831C17.3864 14.0006 17.3896 14.0011 17.3927 14.0019C17.3972 14.003 17.4015 14.0048 17.4054 14.0071C17.4142 14.0125 17.4211 14.0209 17.4246 14.0312C17.4306 14.0491 17.4248 14.0688 17.4101 14.0807L17.1401 14.2795L17.2418 14.5963C17.248 14.6148 17.2414 14.6353 17.2253 14.6465C17.2093 14.6578 17.1878 14.6571 17.1725 14.6449L16.9025 14.4514L16.6325 14.6449C16.617 14.6558 16.5964 14.6558 16.5808 14.6449C16.5684 14.6362 16.5614 14.622 16.5617 14.6074C16.5618 14.6052 16.562 14.6031 16.5623 14.601L16.5633 14.5963L16.6649 14.2795L16.395 14.0807C16.3802 14.0688 16.3745 14.0491 16.3805 14.0312C16.3865 14.0133 16.4031 14.001 16.422 14.0006H16.7541L16.8611 13.6838C16.8773 13.6469 16.9367 13.6469 16.9439 13.6838ZM19.6031 14.0006L19.496 13.6838C19.4888 13.6469 19.4294 13.6469 19.4132 13.6838L19.3062 14.0006H18.9741C18.9665 14.0008 18.9593 14.0029 18.9529 14.0065C18.9435 14.0118 18.9362 14.0205 18.9326 14.0312C18.9266 14.0491 18.9323 14.0688 18.9471 14.0807L19.2171 14.2795L19.1154 14.5963C19.1147 14.5988 19.1142 14.6013 19.1139 14.6038C19.1137 14.6061 19.1137 14.6085 19.1139 14.6108C19.1141 14.6146 19.1148 14.6184 19.116 14.622C19.1175 14.6267 19.1198 14.6312 19.1229 14.6352C19.1256 14.6389 19.129 14.6422 19.133 14.6449C19.1485 14.6558 19.1691 14.6558 19.1847 14.6449L19.4546 14.4514L19.7246 14.6449C19.7399 14.6571 19.7614 14.6578 19.7774 14.6465C19.7935 14.6353 19.8002 14.6148 19.7939 14.5963L19.6922 14.2795L19.9622 14.0807C19.9698 14.0745 19.975 14.0663 19.9774 14.0573C19.9797 14.0489 19.9796 14.0398 19.9767 14.0312C19.9706 14.0133 19.9541 14.001 19.9352 14.0006H19.6031ZM18.2127 12.8235C18.2148 12.8266 18.2165 12.8301 18.2178 12.8337C18.2184 12.8354 18.2189 12.8372 18.2192 12.8391C18.2197 12.8416 18.22 12.8442 18.22 12.8469L18.3271 13.1637H18.6592C18.6631 13.1638 18.6669 13.1644 18.6706 13.1654C18.6741 13.1665 18.6775 13.1679 18.6806 13.1698C18.6898 13.1751 18.6971 13.1837 18.7006 13.1943C18.7067 13.2122 18.7009 13.2319 18.6861 13.2437L18.4162 13.4426L18.5179 13.7594C18.522 13.7719 18.5204 13.7853 18.5139 13.7961C18.5127 13.7982 18.5113 13.8002 18.5097 13.8021C18.5073 13.8049 18.5045 13.8074 18.5014 13.8096C18.4854 13.8209 18.4638 13.8202 18.4486 13.808L18.1786 13.6145L17.9086 13.808C17.9017 13.8128 17.8938 13.8155 17.8857 13.816C17.8757 13.8167 17.8655 13.814 17.8569 13.808C17.8414 13.7971 17.8344 13.7777 17.8393 13.7594L17.941 13.4426L17.671 13.2437C17.6563 13.2319 17.6505 13.2122 17.6566 13.1943C17.6626 13.1764 17.6791 13.1641 17.698 13.1637H18.0301L18.1372 12.8469C18.1372 12.8321 18.1451 12.8184 18.1579 12.811C18.166 12.8063 18.1753 12.8046 18.1843 12.8059C18.1895 12.8066 18.1946 12.8083 18.1993 12.811C18.2025 12.8129 18.2054 12.8152 18.2079 12.8178C18.2097 12.8195 18.2113 12.8215 18.2127 12.8235Z" fill="#283991"/>
<path d="M14.6917 14.583L14.6477 14.6265L14.6282 14.646C14.6433 14.6571 14.664 14.6574 14.6795 14.6465C14.6895 14.6396 14.6959 14.629 14.6977 14.6176C14.6989 14.6106 14.6983 14.6033 14.6959 14.5963L14.6917 14.583Z" fill="#283991"/>
<path d="M19.3882 12.1451C19.4329 12.137 19.4778 12.1292 19.5229 12.1217L19.6031 12.3591H19.9352C19.9541 12.3596 19.9706 12.3718 19.9767 12.3897C19.9827 12.4076 19.9769 12.4274 19.9622 12.4392L19.6922 12.6381L19.7939 12.9549C19.8002 12.9734 19.7935 12.9939 19.7774 13.0051C19.7614 13.0164 19.7399 13.0157 19.7246 13.0035L19.4546 12.81L19.1847 13.0035C19.1691 13.0144 19.1485 13.0144 19.133 13.0035C19.1174 12.9926 19.1104 12.9732 19.1154 12.9549L19.2261 12.6399L18.9561 12.441C18.9413 12.4292 18.9356 12.4095 18.9416 12.3915C18.9476 12.3736 18.9642 12.3614 18.9831 12.3609H19.3152L19.3882 12.1451Z" fill="white"/>
<path d="M17.0472 12.9137C17.0994 12.8881 17.1518 12.8631 17.2045 12.8385L17.2418 12.9549C17.248 12.9734 17.2414 12.9939 17.2253 13.0051C17.2093 13.0164 17.1878 13.0157 17.1725 13.0035L17.0472 12.9137Z" fill="white"/>
<path d="M15.7446 13.6947C15.8003 13.6545 15.8565 13.615 15.9132 13.5761L15.972 13.7594C15.9783 13.7779 15.9716 13.7984 15.9556 13.8096C15.9396 13.8209 15.918 13.8202 15.9027 13.808L15.7446 13.6947Z" fill="white"/>
<path d="M14.6282 14.646C14.6492 14.6249 14.6704 14.6039 14.6917 14.583L14.6959 14.5963C14.7022 14.6148 14.6956 14.6353 14.6795 14.6465C14.664 14.6574 14.6433 14.6571 14.6282 14.646Z" fill="white"/>
<path d="M12.9318 17.0112C13.0258 16.8215 13.1262 16.6355 13.2329 16.4537H13.5612C13.5801 16.4542 13.5967 16.4664 13.6027 16.4843C13.6088 16.5022 13.6029 16.522 13.5882 16.5338L13.3182 16.7326L13.4199 17.0494C13.4262 17.068 13.4195 17.0884 13.4035 17.0997C13.3874 17.1109 13.3659 17.1102 13.3506 17.098L13.0807 16.9045L12.9318 17.0112Z" fill="white"/>
<path d="M12.1115 19.5904C12.1171 19.5891 12.1225 19.5868 12.1274 19.5834C12.1434 19.5721 12.1501 19.5517 12.1438 19.5331L12.1286 19.4856C12.1227 19.5205 12.117 19.5554 12.1115 19.5904Z" fill="white"/>
<path d="M12.2031 19.0978C12.2147 19.0441 12.2267 18.9907 12.2392 18.9374H12.2851C12.304 18.9379 12.3206 18.9501 12.3267 18.968C12.3327 18.9859 12.3269 19.0057 12.3122 19.0175L12.2031 19.0978Z" fill="white"/>
<path d="M19.496 18.6206C19.4918 18.6034 19.4762 18.5915 19.4584 18.5919C19.4407 18.5923 19.4256 18.605 19.4222 18.6224L19.3152 18.9392H18.9831C18.9642 18.9397 18.9476 18.9519 18.9416 18.9698C18.9356 18.9877 18.9414 19.0075 18.9561 19.0193L19.2261 19.2182L19.1154 19.5331C19.1104 19.5514 19.1174 19.5709 19.133 19.5818C19.1485 19.5926 19.1691 19.5926 19.1847 19.5817L19.4546 19.3883L19.7246 19.5817C19.7399 19.5939 19.7614 19.5946 19.7774 19.5834C19.7935 19.5721 19.8002 19.5517 19.7939 19.5331L19.6922 19.2164L19.9622 19.0175C19.977 19.0057 19.9827 18.9859 19.9767 18.968C19.9706 18.9501 19.9541 18.9379 19.9352 18.9374H19.6031L19.496 18.6206Z" fill="white"/>
<path d="M16.9439 18.6206C16.9396 18.6034 16.9241 18.5915 16.9063 18.5919C16.8886 18.5923 16.8735 18.605 16.8701 18.6224L16.7631 18.9392H16.431C16.4121 18.9397 16.3955 18.9519 16.3895 18.9698C16.3835 18.9877 16.3892 19.0075 16.404 19.0193L16.6739 19.2182L16.5633 19.5331C16.5583 19.5514 16.5653 19.5709 16.5808 19.5818C16.5964 19.5926 16.617 19.5926 16.6325 19.5817L16.9025 19.3883L17.1725 19.5817C17.1878 19.5939 17.2093 19.5946 17.2253 19.5834C17.2414 19.5721 17.248 19.5517 17.2418 19.5331L17.1401 19.2164L17.4101 19.0175C17.4248 19.0057 17.4306 18.9859 17.4246 18.968C17.4185 18.9501 17.402 18.9379 17.3831 18.9374H17.051L16.9439 18.6206Z" fill="white"/>
<path d="M14.5052 18.9374L14.3981 18.6206C14.3855 18.5774 14.3261 18.5774 14.3252 18.6224L14.2182 18.9392H13.8852C13.8663 18.9397 13.8497 18.9519 13.8437 18.9698C13.8377 18.9877 13.8434 19.0075 13.8582 19.0193L14.1281 19.2182L14.0175 19.5331C14.0125 19.5514 14.0195 19.5709 14.035 19.5818C14.0506 19.5926 14.0712 19.5926 14.0867 19.5817L14.3567 19.3883L14.6267 19.5817C14.642 19.5939 14.6635 19.5946 14.6795 19.5834C14.6956 19.5721 14.7022 19.5517 14.6959 19.5331L14.5943 19.2164L14.8643 19.0175C14.879 19.0057 14.8848 18.9859 14.8788 18.968C14.8727 18.9501 14.8561 18.9379 14.8372 18.9374H14.5052Z" fill="white"/>
<path d="M18.22 17.7837C18.22 17.7689 18.2121 17.7553 18.1993 17.7479C18.1865 17.7405 18.1707 17.7405 18.1579 17.7479C18.1451 17.7553 18.1372 17.7689 18.1372 17.7837L18.0301 18.1005H17.698C17.6791 18.101 17.6626 18.1132 17.6566 18.1311C17.6505 18.149 17.6563 18.1688 17.671 18.1806L17.941 18.3795L17.8393 18.6962C17.8344 18.7145 17.8414 18.734 17.8569 18.7448C17.8724 18.7557 17.8931 18.7557 17.9086 18.7448L18.1786 18.5513L18.4486 18.7448C18.4638 18.757 18.4854 18.7577 18.5014 18.7465C18.5174 18.7352 18.5241 18.7148 18.5179 18.6962L18.4162 18.3795L18.6861 18.1806C18.7009 18.1688 18.7067 18.149 18.7006 18.1311C18.6946 18.1132 18.678 18.101 18.6592 18.1005H18.3271L18.22 17.7837Z" fill="white"/>
<path d="M15.7813 18.1005L15.6742 17.7837C15.6616 17.7405 15.6021 17.7405 15.5914 17.7837L15.4843 18.1005H15.1522C15.1334 18.101 15.1167 18.1132 15.1107 18.1311C15.1047 18.149 15.1105 18.1688 15.1253 18.1806L15.3952 18.3795L15.2935 18.6962C15.2885 18.7145 15.2956 18.734 15.3111 18.7448C15.3266 18.7557 15.3473 18.7557 15.3628 18.7448L15.6328 18.5513L15.9027 18.7448C15.918 18.757 15.9396 18.7577 15.9556 18.7465C15.9716 18.7352 15.9783 18.7148 15.972 18.6962L15.8703 18.3795L16.1403 18.1806C16.155 18.1688 16.1609 18.149 16.1548 18.1311C16.1488 18.1132 16.1322 18.101 16.1133 18.1005H15.7813Z" fill="white"/>
<path d="M13.2292 18.1005L13.1221 17.7837C13.1094 17.7405 13.05 17.7405 13.0491 17.7837L12.9421 18.1005H12.6001C12.5812 18.101 12.5646 18.1132 12.5586 18.1311C12.5526 18.149 12.5584 18.1688 12.5731 18.1806L12.8431 18.3795L12.7414 18.6962C12.7364 18.7145 12.7435 18.734 12.759 18.7448C12.7745 18.7557 12.7952 18.7557 12.8107 18.7448L13.0807 18.5513L13.3506 18.7448C13.3659 18.757 13.3874 18.7577 13.4035 18.7465C13.4195 18.7352 13.4262 18.7148 13.4199 18.6962L13.3182 18.3795L13.5882 18.1806C13.6029 18.1688 13.6088 18.149 13.6027 18.1311C13.5967 18.1132 13.5801 18.101 13.5612 18.1005H13.2292Z" fill="white"/>
<path d="M19.6031 17.2897L19.496 16.9729C19.4888 16.936 19.4294 16.936 19.4132 16.9729L19.3062 17.2897H18.9741C18.9552 17.2902 18.9386 17.3024 18.9326 17.3203C18.9266 17.3382 18.9323 17.358 18.9471 17.3698L19.2171 17.5686L19.1154 17.8854C19.1104 17.9037 19.1174 17.9231 19.133 17.934C19.1485 17.9449 19.1691 17.9449 19.1847 17.934L19.4546 17.7405L19.7246 17.934C19.7399 17.9462 19.7614 17.9469 19.7774 17.9357C19.7935 17.9244 19.8002 17.904 19.7939 17.8854L19.6922 17.5686L19.9622 17.3698C19.9769 17.358 19.9827 17.3382 19.9767 17.3203C19.9706 17.3024 19.9541 17.2902 19.9352 17.2897H19.6031Z" fill="white"/>
<path d="M17.051 17.2897L16.9439 16.9729C16.9367 16.936 16.8773 16.936 16.8611 16.9729L16.7541 17.2897H16.422C16.4031 17.2902 16.3865 17.3024 16.3805 17.3203C16.3745 17.3382 16.3802 17.358 16.395 17.3698L16.6649 17.5686L16.5633 17.8854C16.5583 17.9037 16.5653 17.9231 16.5808 17.934C16.5964 17.9449 16.617 17.9449 16.6325 17.934L16.9025 17.7405L17.1725 17.934C17.1878 17.9462 17.2093 17.9469 17.2253 17.9357C17.2414 17.9244 17.2481 17.904 17.2418 17.8854L17.1401 17.5686L17.4101 17.3698C17.4248 17.358 17.4306 17.3382 17.4246 17.3203C17.4185 17.3024 17.402 17.2902 17.3831 17.2897H17.051Z" fill="white"/>
<path d="M14.5052 17.2897L14.3981 16.9729C14.3855 16.936 14.3261 16.936 14.3252 16.9729L14.2182 17.2897H13.8762C13.8573 17.2902 13.8407 17.3024 13.8346 17.3203C13.8287 17.3382 13.8344 17.358 13.8492 17.3698L14.1192 17.5686L14.0175 17.8854C14.0125 17.9037 14.0195 17.9231 14.035 17.934C14.0506 17.9449 14.0712 17.9449 14.0867 17.934L14.3567 17.7405L14.6267 17.934C14.642 17.9462 14.6635 17.9469 14.6795 17.9357C14.6955 17.9244 14.7023 17.904 14.6959 17.8854L14.5943 17.5686L14.8643 17.3698C14.879 17.358 14.8848 17.3382 14.8788 17.3203C14.8727 17.3024 14.8561 17.2902 14.8372 17.2897H14.5052Z" fill="white"/>
<path d="M18.22 16.1369C18.22 16.1141 18.2014 16.0955 18.1786 16.0955C18.1557 16.0955 18.1372 16.1141 18.1372 16.1369L18.0301 16.4537H17.698C17.6791 16.4542 17.6626 16.4664 17.6566 16.4843C17.6505 16.5022 17.6563 16.522 17.671 16.5338L17.941 16.7326L17.8393 17.0494C17.8344 17.0677 17.8414 17.0871 17.8569 17.098C17.8724 17.1089 17.8931 17.1089 17.9086 17.098L18.1786 16.9045L18.4486 17.098C18.4639 17.1102 18.4854 17.1109 18.5014 17.0997C18.5174 17.0884 18.5241 17.068 18.5179 17.0494L18.4162 16.7326L18.6861 16.5338C18.7009 16.522 18.7067 16.5022 18.7006 16.4843C18.6946 16.4664 18.678 16.4542 18.6592 16.4537H18.3271L18.22 16.1369Z" fill="white"/>
<path d="M15.7813 16.4537L15.6742 16.1369C15.6616 16.0937 15.6021 16.0937 15.5914 16.1369L15.4843 16.4537H15.1522C15.1334 16.4542 15.1167 16.4664 15.1107 16.4843C15.1047 16.5022 15.1105 16.522 15.1253 16.5338L15.3952 16.7326L15.2935 17.0494C15.2886 17.0677 15.2956 17.0871 15.3111 17.098C15.3266 17.1089 15.3473 17.1089 15.3628 17.098L15.6328 16.9045L15.9027 17.098C15.918 17.1102 15.9395 17.1109 15.9556 17.0997C15.9716 17.0884 15.9783 17.068 15.972 17.0494L15.8703 16.7326L16.1403 16.5338C16.155 16.522 16.1609 16.5022 16.1548 16.4843C16.1488 16.4664 16.1322 16.4542 16.1133 16.4537H15.7813Z" fill="white"/>
<path d="M19.496 15.3315C19.4918 15.3143 19.4762 15.3023 19.4584 15.3028C19.4407 15.3032 19.4256 15.3159 19.4222 15.3333L19.3152 15.6501H18.9831C18.9642 15.6505 18.9476 15.6628 18.9416 15.6807C18.9356 15.6986 18.9414 15.7183 18.9561 15.7302L19.2261 15.929L19.1154 16.244C19.1104 16.2623 19.1174 16.2817 19.133 16.2926C19.1485 16.3035 19.1691 16.3035 19.1847 16.2926L19.4546 16.0991L19.7246 16.2926C19.7399 16.3048 19.7614 16.3055 19.7774 16.2942C19.7935 16.283 19.8002 16.2625 19.7939 16.244L19.6922 15.9272L19.9622 15.7284C19.977 15.7165 19.9827 15.6968 19.9767 15.6789C19.9706 15.661 19.9541 15.6487 19.9352 15.6483H19.6031L19.496 15.3315Z" fill="white"/>
<path d="M16.9439 15.3315C16.9439 15.3086 16.9254 15.2901 16.9025 15.2901C16.8796 15.2901 16.8611 15.3086 16.8611 15.3315L16.7541 15.6483H16.422C16.4031 15.6487 16.3865 15.661 16.3805 15.6789C16.3745 15.6968 16.3802 15.7165 16.395 15.7284L16.6649 15.9272L16.5633 16.244C16.5583 16.2623 16.5653 16.2817 16.5808 16.2926C16.5964 16.3035 16.617 16.3035 16.6325 16.2926L16.9025 16.0991L17.1725 16.2926C17.1878 16.3048 17.2093 16.3055 17.2253 16.2942C17.2414 16.283 17.2481 16.2625 17.2418 16.244L17.1401 15.9272L17.4101 15.7284C17.4248 15.7165 17.4306 15.6968 17.4246 15.6789C17.4185 15.661 17.402 15.6487 17.3831 15.6483H17.051L16.9439 15.3315Z" fill="white"/>
<path d="M14.5052 15.6483L14.3981 15.3315C14.3855 15.2883 14.3261 15.2883 14.3252 15.3315L14.2182 15.6483H13.8762C13.8573 15.6487 13.8407 15.661 13.8346 15.6789C13.8287 15.6968 13.8344 15.7165 13.8492 15.7284L14.1192 15.9272L14.0175 16.244C14.0125 16.2623 14.0195 16.2817 14.035 16.2926C14.0506 16.3035 14.0712 16.3035 14.0867 16.2926L14.3567 16.0991L14.6267 16.2926C14.642 16.3048 14.6635 16.3055 14.6795 16.2942C14.6956 16.283 14.7022 16.2625 14.6959 16.244L14.5943 15.9272L14.8643 15.7284C14.879 15.7165 14.8848 15.6968 14.8788 15.6789C14.8727 15.661 14.8561 15.6487 14.8372 15.6483H14.5052Z" fill="white"/>
<path d="M15.7813 14.8051L15.6742 14.4883C15.6616 14.4514 15.6021 14.4514 15.5914 14.4883L15.4843 14.8051H15.1522C15.1334 14.8055 15.1167 14.8178 15.1107 14.8357C15.1047 14.8536 15.1105 14.8733 15.1253 14.8852L15.3952 15.084L15.2935 15.4008C15.2885 15.4191 15.2956 15.4385 15.3111 15.4494C15.3266 15.4603 15.3473 15.4603 15.3628 15.4494L15.6328 15.2559L15.9027 15.4494C15.918 15.4616 15.9396 15.4623 15.9556 15.451C15.9716 15.4398 15.9783 15.4193 15.972 15.4008L15.8703 15.084L16.1403 14.8852C16.155 14.8733 16.1609 14.8536 16.1548 14.8357C16.1488 14.8178 16.1322 14.8055 16.1133 14.8051H15.7813Z" fill="white"/>
<path d="M18.3271 14.8051L18.22 14.4883C18.2127 14.4514 18.1534 14.4514 18.1372 14.4883L18.0301 14.8051H17.698C17.6791 14.8055 17.6626 14.8178 17.6566 14.8357C17.6505 14.8536 17.6563 14.8733 17.671 14.8852L17.941 15.084L17.8393 15.4008C17.8344 15.4191 17.8414 15.4385 17.8569 15.4494C17.8724 15.4603 17.8931 15.4603 17.9086 15.4494L18.1786 15.2559L18.4486 15.4494C18.4638 15.4616 18.4854 15.4623 18.5014 15.451C18.5174 15.4398 18.5241 15.4193 18.5179 15.4008L18.4162 15.084L18.6861 14.8852C18.7009 14.8733 18.7067 14.8536 18.7006 14.8357C18.6946 14.8178 18.678 14.8055 18.6592 14.8051H18.3271Z" fill="white"/>
<path d="M17.051 14.0006L16.9439 13.6838C16.9367 13.6469 16.8773 13.6469 16.8611 13.6838L16.7541 14.0006H16.422C16.4031 14.001 16.3865 14.0133 16.3805 14.0312C16.3745 14.0491 16.3802 14.0688 16.395 14.0807L16.6649 14.2795L16.5633 14.5963C16.5583 14.6146 16.5653 14.634 16.5808 14.6449C16.5964 14.6558 16.617 14.6558 16.6325 14.6449L16.9025 14.4514L17.1725 14.6449C17.1878 14.6571 17.2093 14.6578 17.2253 14.6465C17.2414 14.6353 17.248 14.6148 17.2418 14.5963L17.1401 14.2795L17.4101 14.0807C17.4248 14.0688 17.4306 14.0491 17.4246 14.0312C17.4185 14.0133 17.402 14.001 17.3831 14.0006H17.051Z" fill="white"/>
<path d="M19.6031 14.0006L19.496 13.6838C19.4888 13.6469 19.4294 13.6469 19.4132 13.6838L19.3062 14.0006H18.9741C18.9552 14.001 18.9386 14.0133 18.9326 14.0312C18.9266 14.0491 18.9323 14.0688 18.9471 14.0807L19.2171 14.2795L19.1154 14.5963C19.1104 14.6146 19.1174 14.634 19.133 14.6449C19.1485 14.6558 19.1691 14.6558 19.1847 14.6449L19.4546 14.4514L19.7246 14.6449C19.7399 14.6571 19.7614 14.6578 19.7774 14.6465C19.7935 14.6353 19.8002 14.6148 19.7939 14.5963L19.6922 14.2795L19.9622 14.0807C19.9769 14.0688 19.9827 14.0491 19.9767 14.0312C19.9706 14.0133 19.9541 14.001 19.9352 14.0006H19.6031Z" fill="white"/>
<path d="M18.22 12.8469C18.22 12.8321 18.2121 12.8184 18.1993 12.811C18.1865 12.8036 18.1707 12.8036 18.1579 12.811C18.1451 12.8184 18.1372 12.8321 18.1372 12.8469L18.0301 13.1637H17.698C17.6791 13.1641 17.6626 13.1764 17.6566 13.1943C17.6505 13.2122 17.6563 13.2319 17.671 13.2437L17.941 13.4426L17.8393 13.7594C17.8344 13.7777 17.8414 13.7971 17.8569 13.808C17.8724 13.8189 17.8931 13.8189 17.9086 13.808L18.1786 13.6145L18.4486 13.808C18.4638 13.8202 18.4854 13.8209 18.5014 13.8096C18.5174 13.7984 18.5241 13.7779 18.5179 13.7594L18.4162 13.4426L18.6861 13.2437C18.7009 13.2319 18.7067 13.2122 18.7006 13.1943C18.6946 13.1764 18.678 13.1641 18.6592 13.1637H18.3271L18.22 12.8469Z" fill="white"/>
</g>
</g>
</g>
<defs>
<clipPath id="clip0_1828_2355">
<rect width="17.998" height="17.998" fill="white" transform="translate(2.00171 2.00098)"/>
</clipPath>
</defs>
</svg>
