<svg width="32" height="32" viewBox="0 0 32 32" fill="none" xmlns="http://www.w3.org/2000/svg">
<g id="markets / market-forex-hkdjpy">
<g id="flags / flag-hong kong">
<g id="flag">
<path d="M22 4H2C0.89543 4 0 4.89543 0 6V18C0 19.1046 0.89543 20 2 20H22C23.1046 20 24 19.1046 24 18V6C24 4.89543 23.1046 4 22 4Z" fill="#F0371D"/>
<path d="M15.4772 14.7051C15.9502 16.1609 15.444 17.63 14.3467 17.9866C13.9404 16.7361 13.2374 16.8263 13.042 16.2249C12.8022 15.487 12.7414 15.2996 13.062 14.0328C13.3826 12.7659 12.0926 12.8906 12.6338 12.7148C13.7311 12.3583 15.0042 13.2493 15.4772 14.7051ZM11.6087 13.2353C12.2869 14.1688 11.8328 15.6549 10.5945 16.5546C9.35612 17.4543 7.80244 17.4269 7.12423 16.4935C8.188 15.7206 7.88492 15.08 8.39655 14.7082C9.02427 14.2522 9.18361 14.1364 10.4876 14.0499C11.7915 13.9633 11.2742 12.775 11.6087 13.2353ZM9.24228 15.2836C9.08749 15.396 9.05363 15.6133 9.16667 15.7689C9.27971 15.9245 9.49682 15.9594 9.65162 15.847C9.80641 15.7345 9.84026 15.5172 9.72723 15.3616C9.61419 15.2061 9.39707 15.1711 9.24228 15.2836ZM14.074 15.1628C13.8911 15.2223 13.7907 15.418 13.8499 15.5999C13.909 15.7819 14.1052 15.8812 14.2881 15.8218C14.471 15.7624 14.5713 15.5667 14.5122 15.3847C14.4531 15.2028 14.2569 15.1034 14.074 15.1628ZM6.31383 9.14192C7.3776 9.9148 7.89321 9.4286 8.40484 9.80032C9.03255 10.2564 9.19189 10.3721 9.67717 11.5855C10.1624 12.7989 11.1327 11.9398 10.7983 12.4001C10.1201 13.3335 8.56639 13.3609 7.32804 12.4612C6.08969 11.5615 5.63562 10.0754 6.31383 9.14192ZM15.2285 9.46865C16.7591 9.46865 18 10.404 18 11.5579C16.6851 11.5579 16.5538 12.2543 15.9213 12.2543C15.1455 12.2543 14.9485 12.2543 13.8427 11.5579C12.7369 10.8615 12.4569 12.1268 12.4569 11.5579C12.4569 10.404 13.6978 9.46865 15.2285 9.46865ZM7.63472 10.8589C7.52169 11.0145 7.55554 11.2318 7.71033 11.3443C7.86513 11.4567 8.08224 11.4218 8.19528 11.2662C8.30832 11.1106 8.27447 10.8933 8.11967 10.7808C7.96488 10.6684 7.74776 10.7033 7.63472 10.8589ZM13.0354 6.09157C12.6291 7.3421 13.2508 7.68223 13.0554 8.28369C12.8157 9.02161 12.7548 9.20892 11.7508 10.0454C10.7467 10.8819 11.8636 11.5392 11.3225 11.3634C10.2251 11.0068 9.719 9.53762 10.192 8.08185C10.665 6.62609 11.9381 5.73501 13.0354 6.09157ZM15.5749 10.5963C15.3836 10.5963 15.2285 10.7522 15.2285 10.9445C15.2285 11.1368 15.3836 11.2927 15.5749 11.2927C15.7662 11.2927 15.9213 11.1368 15.9213 10.9445C15.9213 10.7522 15.7662 10.5963 15.5749 10.5963ZM11.3711 8.09915C11.312 8.28113 11.4123 8.47682 11.5952 8.53624C11.7781 8.59567 11.9743 8.49633 12.0334 8.31436C12.0926 8.13239 11.9922 7.9367 11.8093 7.87727C11.6264 7.81784 11.4302 7.91718 11.3711 8.09915Z" fill="white"/>
<path fill-rule="evenodd" clip-rule="evenodd" d="M22 5H2C1.44772 5 1 5.44772 1 6V18C1 18.5523 1.44772 19 2 19H22C22.5523 19 23 18.5523 23 18V6C23 5.44771 22.5523 5 22 5ZM2 4C0.89543 4 0 4.89543 0 6V18C0 19.1046 0.89543 20 2 20H22C23.1046 20 24 19.1046 24 18V6C24 4.89543 23.1046 4 22 4H2Z" fill="black" fill-opacity="0.08"/>
</g>
</g>
<g id="flags / flag-japan">
<g id="flag_2">
<path d="M8 14C8 12.8954 8.89543 12 10 12H30C31.1046 12 32 12.8954 32 14V26C32 27.1046 31.1046 28 30 28H10C8.89543 28 8 27.1046 8 26V14Z" fill="white"/>
<path fill-rule="evenodd" clip-rule="evenodd" d="M30 13H10C9.44772 13 9 13.4477 9 14V26C9 26.5523 9.44772 27 10 27H30C30.5523 27 31 26.5523 31 26V14C31 13.4477 30.5523 13 30 13ZM10 12C8.89543 12 8 12.8954 8 14V26C8 27.1046 8.89543 28 10 28H30C31.1046 28 32 27.1046 32 26V14C32 12.8954 31.1046 12 30 12H10Z" fill="black" fill-opacity="0.08"/>
<path d="M24.5 20C24.5 22.4853 22.4853 24.5 20 24.5C17.5147 24.5 15.5 22.4853 15.5 20C15.5 17.5147 17.5147 15.5 20 15.5C22.4853 15.5 24.5 17.5147 24.5 20Z" fill="#ED293F"/>
</g>
</g>
</g>
</svg>
