<svg width="32" height="32" viewBox="0 0 32 32" fill="none" xmlns="http://www.w3.org/2000/svg">
<g id="markets / market-cryptocurrency-uniusd">
<g id="currencies / currency-uni" clip-path="url(#clip0_1828_2328)">
<g id="logo">
<path d="M19.9997 11C19.9997 15.97 15.9707 19.9989 11.0007 19.9989C6.03069 19.9989 2.00171 15.97 2.00171 11C2.00171 6.02996 6.03069 2.00098 11.0007 2.00098C15.9707 2.00098 19.9997 6.02996 19.9997 11Z" fill="#FF007A"/>
<path fill-rule="evenodd" clip-rule="evenodd" d="M6.2259 5.06274C7.5783 6.70536 9.66204 9.25925 9.76652 9.39855C9.85358 9.51464 9.81876 9.62492 9.67365 9.70618C9.59239 9.75262 9.42407 9.79905 9.34281 9.79905C9.24994 9.79905 9.13966 9.75262 9.0642 9.67716C9.01196 9.62492 8.78559 9.29408 8.27482 8.49889C7.88593 7.88944 7.55508 7.38446 7.54928 7.37866C7.52606 7.36705 7.52606 7.36705 8.23418 8.63239C8.68112 9.42758 8.82622 9.71199 8.82622 9.74681C8.82622 9.82227 8.80301 9.8629 8.71014 9.96738C8.55342 10.1415 8.48377 10.3389 8.43153 10.751C8.37349 11.2095 8.21677 11.5345 7.76984 12.0859C7.50865 12.411 7.46802 12.469 7.40417 12.6025C7.32291 12.765 7.29969 12.8579 7.28808 13.0669C7.27648 13.2874 7.29969 13.4267 7.36354 13.6357C7.42158 13.8214 7.48543 13.9433 7.64215 14.1813C7.77565 14.3903 7.85691 14.547 7.85691 14.605C7.85691 14.6514 7.86851 14.6514 8.07747 14.605C8.57664 14.4889 8.98874 14.2916 9.21511 14.0478C9.35441 13.8969 9.38924 13.8156 9.38924 13.6067C9.38924 13.4732 9.38344 13.4442 9.34861 13.3629C9.29057 13.2352 9.18028 13.1307 8.94231 12.9682C8.62888 12.7534 8.49538 12.5793 8.46055 12.3471C8.43153 12.1498 8.46636 12.0163 8.64049 11.6506C8.82042 11.2733 8.86685 11.1166 8.89587 10.7335C8.91329 10.4898 8.94231 10.3911 9.01196 10.3156C9.08742 10.2344 9.15126 10.2054 9.3312 10.1821C9.62722 10.1415 9.81876 10.066 9.96967 9.92094C10.1032 9.79905 10.1612 9.67716 10.167 9.49723L10.1728 9.36373L10.0974 9.28247C9.82456 8.96904 6.04596 4.81316 6.02855 4.81316C6.02501 4.81316 6.05828 4.85431 6.10985 4.91809C6.1427 4.95872 6.18298 5.00854 6.2259 5.06274ZM8.00782 13.3165C8.07166 13.2062 8.03684 13.0669 7.93236 12.9972C7.83369 12.9334 7.68278 12.9624 7.68278 13.0495C7.68278 13.0727 7.69439 13.0959 7.72921 13.1075C7.78145 13.1365 7.78725 13.1655 7.74662 13.2294C7.70599 13.2932 7.70599 13.3513 7.75823 13.3919C7.83949 13.4558 7.94977 13.4209 8.00782 13.3165Z" fill="white"/>
<path d="M9.85977 7.37295C9.73787 7.35554 9.73207 7.34974 9.79011 7.34393C9.9004 7.32652 10.1558 7.34974 10.3357 7.39037C10.7536 7.48904 11.1309 7.74443 11.5314 8.19136L11.6359 8.31325L11.7868 8.29003C12.4311 8.18555 13.0928 8.26681 13.6442 8.5222C13.7951 8.59186 14.0331 8.73116 14.0621 8.76598C14.0737 8.77759 14.0911 8.85305 14.1027 8.9285C14.1433 9.20131 14.1259 9.40446 14.0389 9.56117C13.9924 9.64824 13.9924 9.67145 14.0214 9.74691C14.0447 9.80495 14.1143 9.84558 14.1782 9.84558C14.3175 9.84558 14.4626 9.62502 14.5322 9.31739L14.5612 9.1955L14.6135 9.25355C14.9095 9.58439 15.1417 10.0429 15.1765 10.368L15.1881 10.455L15.1359 10.3796C15.0488 10.2461 14.9675 10.159 14.8573 10.0836C14.6599 9.95006 14.451 9.90943 13.8996 9.88041C13.4004 9.85139 13.116 9.81076 12.8374 9.71789C12.3614 9.56117 12.1176 9.35802 11.5546 8.60927C11.305 8.27842 11.1483 8.09849 10.9916 7.94758C10.6491 7.61673 10.3067 7.4426 9.85977 7.37295Z" fill="white"/>
<path d="M14.1838 8.10949C14.1954 7.88893 14.2244 7.74382 14.2882 7.61032C14.3114 7.55808 14.3347 7.51165 14.3405 7.51165C14.3463 7.51165 14.3347 7.55228 14.3173 7.59871C14.2708 7.7264 14.265 7.90634 14.294 8.10949C14.3347 8.37068 14.3521 8.40551 14.6307 8.68992C14.7584 8.82342 14.9093 8.99174 14.9673 9.06139L15.066 9.18909L14.9673 9.09622C14.8454 8.98013 14.5668 8.75957 14.503 8.73055C14.4624 8.70733 14.4566 8.70733 14.4275 8.73635C14.4043 8.75957 14.3985 8.7944 14.3985 8.96272C14.3927 9.22391 14.3579 9.38643 14.2708 9.55476C14.2244 9.64182 14.2186 9.62441 14.2592 9.52574C14.2882 9.45028 14.294 9.41546 14.294 9.16587C14.294 8.6609 14.236 8.53901 13.8819 8.33586C13.7949 8.28362 13.644 8.20816 13.5569 8.16753C13.464 8.1269 13.3944 8.09208 13.4002 8.09208C13.4118 8.08047 13.7542 8.17914 13.8877 8.23718C14.0909 8.31844 14.1257 8.32425 14.1489 8.31844C14.1663 8.30103 14.178 8.2546 14.1838 8.10949Z" fill="white"/>
<path d="M9.7318 7.72636C9.69698 8.11525 9.85369 8.63764 10.0975 8.97428C10.289 9.23548 10.585 9.43863 10.8056 9.46185C10.9507 9.47345 10.9913 9.42702 10.9275 9.33415C10.8346 9.20646 10.7243 9.00331 10.6953 8.91624C10.6779 8.864 10.6373 8.70148 10.6083 8.56218C10.5096 8.08623 10.4051 7.89469 10.1729 7.75538C10.0859 7.70314 9.90593 7.63349 9.80145 7.61608L9.74341 7.60447L9.7318 7.72636Z" fill="white"/>
<path d="M13.8876 11.4995C12.7384 11.0352 12.3321 10.6347 12.3321 9.95561C12.3321 9.85693 12.3379 9.77567 12.3379 9.77567C12.3418 9.77567 12.3611 9.79115 12.389 9.8135C12.403 9.82468 12.4191 9.83758 12.4366 9.85113C12.6687 10.0369 12.9299 10.1181 13.6555 10.2226C14.0792 10.2865 14.323 10.3329 14.5435 10.4083C15.2458 10.6405 15.6812 11.1165 15.7856 11.7607C15.8147 11.9465 15.7973 12.3005 15.7508 12.4863C15.7102 12.6314 15.5941 12.8984 15.5651 12.9042C15.5593 12.9042 15.5477 12.8752 15.5477 12.8287C15.5361 12.585 15.4142 12.3528 15.211 12.1728C14.9672 11.9639 14.6538 11.8072 13.8876 11.4995Z" fill="white"/>
<path d="M13.017 11.4473C13.0344 11.4938 13.0635 11.6041 13.0751 11.6911C13.1679 12.2367 12.8835 12.6837 12.3089 12.8636C12.2509 12.8868 12.0187 12.9332 11.7923 12.9681C11.3338 13.0493 11.1248 13.1016 10.9217 13.2002C10.7766 13.2699 10.5966 13.3744 10.6082 13.386C10.614 13.3918 10.6489 13.3802 10.6837 13.3686C10.9449 13.2757 11.2351 13.2293 11.6704 13.206C11.8162 13.1963 11.9782 13.1825 12.068 13.1749L12.1115 13.1712C12.5004 13.119 12.7732 13.0029 12.9822 12.7881C13.0983 12.6662 13.1679 12.556 13.226 12.3992C13.2608 12.3006 13.2666 12.2599 13.2666 12.0858C13.2666 11.9059 13.2666 11.8711 13.226 11.7608C13.1737 11.6157 13.1157 11.5112 13.0402 11.4241L12.988 11.3603L13.017 11.4473Z" fill="white"/>
<path d="M13.6033 12.6261C13.4524 12.2953 13.4175 11.9818 13.4988 11.6858C13.5104 11.6568 13.522 11.6278 13.5336 11.6278C13.5452 11.6278 13.5801 11.6452 13.6149 11.6684C13.6845 11.7148 13.8296 11.7961 14.2011 11.9992C14.6713 12.2546 14.9383 12.452 15.124 12.6783C15.2865 12.8757 15.3852 13.1021 15.4316 13.3807C15.4606 13.5374 15.4432 13.9147 15.4026 14.0714C15.2749 14.5647 14.9847 14.9594 14.561 15.1858C14.4971 15.2206 14.4449 15.2438 14.4391 15.2438C14.4333 15.2438 14.4565 15.1858 14.4913 15.1161C14.6306 14.8201 14.648 14.5357 14.5436 14.2165C14.4797 14.0191 14.3462 13.7812 14.0792 13.3807C13.76 12.9163 13.6845 12.7944 13.6033 12.6261Z" fill="white"/>
<path d="M10.7243 13.7052C10.2367 13.7864 9.70853 14.0418 9.27901 14.4017L9.15712 14.5178L9.2674 14.5352C9.84783 14.6223 10.0045 14.7035 10.4108 15.1214C10.643 15.3594 10.7243 15.4116 10.9158 15.4639C11.2002 15.5393 11.4788 15.4058 11.5775 15.1504C11.6181 15.0344 11.6123 14.8486 11.5659 14.7558C11.4498 14.5294 11.1074 14.4597 10.9448 14.6223C10.8113 14.7558 10.852 14.9647 11.0203 14.9995C11.036 15.0021 11.0446 15.0036 11.0451 15.0022C11.0457 15.0006 11.0342 14.9949 11.0087 14.9821C10.9332 14.9473 10.8984 14.9009 10.8984 14.8254C10.8926 14.6455 11.0958 14.5526 11.2815 14.6339C11.4208 14.6977 11.473 14.779 11.473 14.9183C11.473 15.133 11.2873 15.3014 11.0725 15.2723C10.9565 15.2549 10.8172 15.1853 10.7417 15.0982C10.556 14.8892 10.6256 14.5468 10.8926 14.4191C11.0958 14.3204 11.3628 14.3495 11.5717 14.4829C11.8097 14.6397 11.9142 14.779 12.1173 15.2491C12.187 15.4058 12.2682 15.5742 12.3089 15.6322C12.5004 15.9224 12.7384 16.0675 13.017 16.0675C13.1737 16.0675 13.2898 16.0443 13.4349 15.9688C13.5394 15.9166 13.6961 15.8121 13.6845 15.8005C13.6845 15.796 13.6557 15.8058 13.6179 15.8187L13.5858 15.8295C13.2782 15.9456 12.9647 15.9398 12.7848 15.8063C12.6687 15.7193 12.5759 15.5567 12.5294 15.3478L12.5237 15.3147C12.5127 15.2509 12.4901 15.1204 12.4714 14.9937C12.4075 14.5932 12.3437 14.4133 12.2044 14.2043C12.0593 13.9896 11.7807 13.8155 11.473 13.7342C11.2815 13.682 10.9332 13.6703 10.7243 13.7052Z" fill="white"/>
<path fill-rule="evenodd" clip-rule="evenodd" d="M10.0453 10.6063C10.0859 10.4554 10.2194 10.3045 10.3587 10.2639C10.4516 10.2348 10.6315 10.2523 10.7186 10.2987C10.8869 10.3858 11.0088 10.5773 10.9798 10.7166C10.9508 10.8849 10.678 11.0242 10.3587 11.0242C10.1962 11.0242 10.1382 11.001 10.0743 10.9198C10.0337 10.8675 10.0221 10.6992 10.0453 10.6063ZM10.6722 10.3567C10.7592 10.409 10.7766 10.4844 10.7302 10.5541C10.6954 10.6005 10.5909 10.647 10.5154 10.647C10.3994 10.647 10.2775 10.5657 10.2775 10.4902C10.2775 10.3393 10.5154 10.2581 10.6722 10.3567Z" fill="white"/>
</g>
</g>
<g id="currencies / currency-usd">
<g id="logo_2">
<path d="M12.019 20.4375C12.0075 20.6235 12.0017 20.8111 12.0017 21C12.0017 21.3809 12.0254 21.7563 12.0713 22.1248H29.9301C29.976 21.7563 29.9997 21.3809 29.9997 21C29.9997 20.8111 29.9938 20.6235 29.9824 20.4375H12.019Z" fill="white"/>
<path d="M21.0007 17.0629V18.7502H29.7162C29.5649 18.1624 29.3557 17.5978 29.095 17.0629H21.0007Z" fill="white"/>
<path d="M21.0007 15.3756H28.0259C27.5131 14.7358 26.9146 14.1676 26.2479 13.6883H21.0007V15.3756Z" fill="white"/>
<path d="M12.4498 23.8121C12.6444 24.4041 12.8987 24.9689 13.2056 25.4995H28.7958C29.1027 24.9689 29.357 24.4041 29.5516 23.8121H12.4498Z" fill="white"/>
<path d="M14.4657 27.1868C15.0978 27.8541 15.831 28.4247 16.6407 28.8741H25.3607C26.1704 28.4247 26.9036 27.8541 27.5357 27.1868H14.4657Z" fill="white"/>
<path d="M21.0008 12.001L21.0007 13.6883H26.2479C24.7708 12.6264 22.9589 12.001 21.0008 12.001Z" fill="#F44336"/>
<path d="M21.0008 20.4375H29.9824C29.9467 19.8586 29.8563 19.2944 29.7162 18.7502H21.0007L21.0008 20.4375Z" fill="#F44336"/>
<path d="M21.0007 17.0629H29.095C28.801 16.4596 28.4416 15.8941 28.0259 15.3756H21.0007V17.0629Z" fill="#F44336"/>
<path d="M29.9301 22.1248C29.8576 22.7063 29.7296 23.2706 29.5516 23.8121H12.4498C12.2718 23.2706 12.1438 22.7063 12.0713 22.1248H29.9301Z" fill="#F44336"/>
<path d="M13.2056 25.4995C13.5594 26.111 13.9831 26.6771 14.4657 27.1868H27.5357C28.0183 26.6771 28.442 26.111 28.7958 25.4995H13.2056Z" fill="#F44336"/>
<path d="M21.0008 29.9989C22.5827 29.9989 24.069 29.5908 25.3607 28.8741H16.6407C17.9324 29.5908 19.419 29.9989 21.0008 29.9989Z" fill="#F44336"/>
<path fill-rule="evenodd" clip-rule="evenodd" d="M21.0008 20.4375H12.019C12.0375 20.1381 12.0706 19.8426 12.1176 19.5518C12.1155 19.5647 12.1136 19.5774 12.1115 19.5904C12.1171 19.5891 12.1225 19.5868 12.1274 19.5834C12.1434 19.5721 12.1501 19.5517 12.1438 19.5331L12.1286 19.4856C12.1512 19.3523 12.1767 19.22 12.2051 19.0888C12.2045 19.0918 12.2038 19.0948 12.2031 19.0978L12.3122 19.0175C12.3269 19.0057 12.3327 18.9859 12.3267 18.968C12.3206 18.9501 12.304 18.9379 12.2851 18.9374H12.2392C12.3991 18.2557 12.6364 17.6038 12.9416 16.9916C12.9383 16.9981 12.935 17.0047 12.9318 17.0112L13.0807 16.9045L13.3506 17.098C13.3581 17.104 13.367 17.1072 13.376 17.1076C13.3856 17.1081 13.3952 17.1054 13.4035 17.0997C13.4103 17.0949 13.4154 17.0885 13.4185 17.0813C13.4228 17.0715 13.4235 17.0601 13.4199 17.0494L13.3182 16.7326L13.5882 16.5338C13.6029 16.522 13.6088 16.5022 13.6027 16.4843C13.5967 16.4664 13.5801 16.4542 13.5612 16.4537H13.2329C13.8697 15.368 14.7275 14.4278 15.7446 13.6947L15.9027 13.808C15.9088 13.8128 15.9159 13.8159 15.9232 13.8171C15.9282 13.8179 15.9333 13.8178 15.9384 13.8169C15.9425 13.8161 15.9464 13.8148 15.9502 13.8129L15.9531 13.8112L15.9556 13.8096C15.9716 13.7984 15.9783 13.7779 15.972 13.7594L15.9132 13.5761C17.3603 12.5824 19.1127 12.001 21.0008 12.001V20.4375ZM19.6031 12.3591L19.5229 12.1217C19.4778 12.1292 19.4329 12.137 19.3882 12.1451L19.3152 12.3609H18.9831C18.977 12.3611 18.9713 12.3624 18.966 12.3648L18.961 12.3674L18.9588 12.3688C18.9509 12.3742 18.9448 12.3821 18.9416 12.3915C18.9356 12.4095 18.9413 12.4292 18.9561 12.441L19.2261 12.6399L19.1154 12.9549C19.1104 12.9732 19.1174 12.9926 19.133 13.0035C19.1419 13.0098 19.1527 13.0124 19.1632 13.0114C19.1707 13.0107 19.1781 13.0081 19.1847 13.0035L19.4546 12.81L19.7246 13.0035C19.7297 13.0075 19.7355 13.0103 19.7415 13.0118C19.7537 13.0148 19.7668 13.0126 19.7774 13.0051C19.7935 12.9939 19.8002 12.9734 19.7939 12.9549L19.6922 12.6381L19.9622 12.4392C19.9676 12.4349 19.9718 12.4294 19.9747 12.4234L19.9763 12.4195C19.977 12.4179 19.9774 12.4162 19.9778 12.4145C19.9785 12.4115 19.9789 12.4085 19.979 12.4054C19.9791 12.4002 19.9784 12.3949 19.9767 12.3897C19.9722 12.3765 19.962 12.3664 19.9494 12.3618C19.9449 12.3602 19.9402 12.3593 19.9352 12.3591H19.6031ZM17.2253 13.0051C17.2414 12.9939 17.248 12.9734 17.2418 12.9549L17.2045 12.8385C17.1729 12.8532 17.1416 12.8681 17.1103 12.8831L17.0472 12.9137L17.1725 13.0035C17.1878 13.0157 17.2093 13.0164 17.2253 13.0051ZM19.3152 18.9392L19.4222 18.6224C19.4256 18.605 19.4407 18.5923 19.4584 18.5919C19.4762 18.5915 19.4918 18.6034 19.496 18.6206L19.6031 18.9374H19.9352C19.9464 18.9377 19.9568 18.9421 19.9646 18.9494C19.97 18.9544 19.9742 18.9607 19.9767 18.968C19.9827 18.9859 19.977 19.0057 19.9622 19.0175L19.6922 19.2164L19.7939 19.5331C19.8002 19.5517 19.7935 19.5721 19.7774 19.5834C19.7614 19.5946 19.7399 19.5939 19.7246 19.5817L19.4546 19.3883L19.1847 19.5817C19.1822 19.5834 19.1797 19.5849 19.177 19.586L19.1739 19.5873L19.1692 19.5887C19.1652 19.5897 19.161 19.5901 19.1569 19.5899C19.1546 19.5898 19.1523 19.5895 19.15 19.5891C19.144 19.5879 19.1382 19.5854 19.133 19.5818C19.1306 19.5801 19.1285 19.5783 19.1266 19.5764C19.1245 19.5742 19.1226 19.5719 19.121 19.5694L19.1196 19.5671L19.1185 19.565L19.1169 19.5615C19.1135 19.5527 19.1128 19.5427 19.1154 19.5331L19.2261 19.2182L18.9561 19.0193C18.9467 19.0118 18.9409 19.001 18.9395 18.9895C18.9388 18.983 18.9394 18.9763 18.9416 18.9698C18.9439 18.9628 18.9479 18.9566 18.953 18.9517C18.9549 18.9499 18.9571 18.9482 18.9593 18.9467L18.963 18.9445L18.9657 18.9431L18.9682 18.9421L18.9731 18.9406C18.9763 18.9398 18.9796 18.9393 18.9831 18.9392H19.3152ZM16.9439 18.6206C16.9396 18.6034 16.9241 18.5915 16.9063 18.5919C16.8886 18.5923 16.8735 18.605 16.8701 18.6224L16.7631 18.9392H16.431C16.4121 18.9397 16.3955 18.9519 16.3895 18.9698C16.3835 18.9877 16.3892 19.0075 16.404 19.0193L16.6739 19.2182L16.5633 19.5331C16.56 19.5453 16.562 19.5579 16.5682 19.5683L16.5709 19.5722L16.5734 19.5752C16.5756 19.5776 16.5781 19.5798 16.5808 19.5818C16.5964 19.5926 16.617 19.5926 16.6325 19.5817L16.9025 19.3883L17.1725 19.5817C17.1784 19.5865 17.1852 19.5895 17.1924 19.5907L17.1964 19.5912L17.1994 19.5914C17.2015 19.5914 17.2036 19.5913 17.2056 19.591C17.2125 19.5901 17.2193 19.5876 17.2253 19.5834C17.2414 19.5721 17.248 19.5517 17.2418 19.5331L17.1401 19.2164L17.4101 19.0175C17.412 19.016 17.4137 19.0143 17.4153 19.0126C17.4166 19.0112 17.4178 19.0097 17.4189 19.0082L17.4213 19.0041C17.4223 19.0023 17.4232 19.0005 17.4239 18.9986C17.425 18.9958 17.4257 18.993 17.4263 18.9901C17.4268 18.9869 17.427 18.9836 17.4269 18.9803L17.4265 18.9764L17.4258 18.9725L17.4246 18.968C17.4185 18.9501 17.402 18.9379 17.3831 18.9374H17.051L16.9439 18.6206ZM14.3981 18.6206L14.5052 18.9374H14.8372C14.8561 18.9379 14.8727 18.9501 14.8788 18.968C14.8817 18.9765 14.8819 18.9855 14.8797 18.9937C14.8773 19.0029 14.872 19.0113 14.8643 19.0175L14.5943 19.2164L14.6959 19.5331C14.6967 19.5354 14.6973 19.5377 14.6977 19.54L14.6981 19.5442L14.6983 19.5492C14.6981 19.5535 14.6972 19.5578 14.6957 19.5619C14.6928 19.5704 14.6872 19.578 14.6795 19.5834C14.6635 19.5946 14.642 19.5939 14.6267 19.5817L14.3567 19.3883L14.0867 19.5817C14.0712 19.5926 14.0506 19.5926 14.035 19.5818C14.0251 19.5748 14.0186 19.5642 14.0166 19.5528C14.0161 19.55 14.0159 19.5473 14.0159 19.5445C14.0159 19.5422 14.0161 19.5398 14.0165 19.5374L14.0175 19.5331L14.1281 19.2182L13.8582 19.0193C13.8521 19.0144 13.8475 19.0082 13.8447 19.0013C13.8427 18.9964 13.8415 18.9911 13.8413 18.9858C13.8412 18.9805 13.8419 18.9751 13.8437 18.9698C13.8473 18.9589 13.855 18.95 13.8646 18.9447C13.8708 18.9413 13.8778 18.9394 13.8852 18.9392H14.2182L14.3252 18.6224C14.3261 18.5774 14.3855 18.5774 14.3981 18.6206ZM18.22 17.7837C18.22 17.7689 18.2121 17.7553 18.1993 17.7479C18.1926 17.744 18.1851 17.7422 18.1776 17.7423C18.1708 17.7425 18.164 17.7444 18.1579 17.7479C18.1525 17.751 18.1481 17.7551 18.1446 17.76C18.143 17.7623 18.1416 17.7647 18.1405 17.7673C18.1383 17.7724 18.1372 17.778 18.1372 17.7837L18.0301 18.1005H17.698C17.6791 18.101 17.6626 18.1132 17.6566 18.1311C17.6505 18.149 17.6563 18.1688 17.671 18.1806L17.941 18.3795L17.8393 18.6962C17.837 18.7049 17.8373 18.7138 17.8399 18.7219C17.8429 18.731 17.8487 18.7391 17.8569 18.7448C17.8724 18.7557 17.8931 18.7557 17.9086 18.7448L18.1786 18.5513L18.4486 18.7448C18.4638 18.757 18.4854 18.7577 18.5014 18.7465C18.5174 18.7352 18.5241 18.7148 18.5179 18.6962L18.4162 18.3795L18.6861 18.1806C18.7009 18.1688 18.7067 18.149 18.7006 18.1311C18.6978 18.1228 18.6928 18.1158 18.6863 18.1105C18.6788 18.1044 18.6693 18.1007 18.6592 18.1005H18.3271L18.22 17.7837ZM15.6742 17.7837L15.7813 18.1005H16.1133C16.1322 18.101 16.1488 18.1132 16.1548 18.1311C16.1609 18.149 16.155 18.1688 16.1403 18.1806L15.8703 18.3795L15.972 18.6962C15.9783 18.7148 15.9716 18.7352 15.9556 18.7465C15.948 18.7518 15.9392 18.7544 15.9304 18.7545C15.9257 18.7545 15.9209 18.7537 15.9164 18.7522C15.9115 18.7506 15.9069 18.7481 15.9027 18.7448L15.6328 18.5513L15.3628 18.7448C15.3473 18.7557 15.3266 18.7557 15.3111 18.7448C15.2956 18.734 15.2885 18.7145 15.2935 18.6962L15.3952 18.3795L15.1253 18.1806C15.1105 18.1688 15.1047 18.149 15.1107 18.1311C15.1167 18.1132 15.1334 18.101 15.1522 18.1005H15.4843L15.5914 17.7837C15.6021 17.7405 15.6616 17.7405 15.6742 17.7837ZM13.2292 18.1005L13.1221 17.7837C13.1094 17.7405 13.05 17.7405 13.0491 17.7837L12.9421 18.1005H12.6001C12.5967 18.1006 12.5933 18.1011 12.59 18.1019C12.5856 18.103 12.5815 18.1048 12.5777 18.1072C12.5689 18.1126 12.562 18.1209 12.5586 18.1311C12.5526 18.149 12.5584 18.1688 12.5731 18.1806L12.8431 18.3795L12.7414 18.6962C12.7364 18.7145 12.7435 18.734 12.759 18.7448C12.7659 18.7497 12.7739 18.7524 12.7819 18.7529C12.7919 18.7535 12.8021 18.7508 12.8107 18.7448L13.0807 18.5513L13.3506 18.7448C13.3659 18.757 13.3874 18.7577 13.4035 18.7465C13.4195 18.7352 13.4262 18.7148 13.4199 18.6962L13.3182 18.3795L13.5882 18.1806C13.6029 18.1688 13.6088 18.149 13.6027 18.1311C13.5967 18.1132 13.5801 18.101 13.5612 18.1005H13.2292ZM19.496 16.9729L19.6031 17.2897H19.9352C19.9541 17.2902 19.9706 17.3024 19.9767 17.3203C19.9791 17.3275 19.9796 17.335 19.9784 17.3422C19.9766 17.3528 19.971 17.3627 19.9622 17.3698L19.6922 17.5686L19.7939 17.8854C19.7971 17.8947 19.7969 17.9044 19.794 17.9133C19.7931 17.9161 19.7919 17.9187 19.7905 17.9213C19.7892 17.9236 19.7876 17.9259 19.7859 17.928C19.7835 17.9308 19.7807 17.9334 19.7774 17.9357C19.7614 17.9469 19.7399 17.9462 19.7246 17.934L19.4546 17.7405L19.1847 17.934C19.1763 17.9398 19.1666 17.9426 19.1569 17.9422C19.1485 17.9418 19.1402 17.9391 19.133 17.934C19.1174 17.9231 19.1104 17.9037 19.1154 17.8854L19.2171 17.5686L18.9471 17.3698C18.9323 17.358 18.9266 17.3382 18.9326 17.3203C18.9362 17.3097 18.9434 17.3011 18.9526 17.2958C18.959 17.292 18.9663 17.2899 18.9741 17.2897H19.3062L19.4132 16.9729C19.4294 16.936 19.4888 16.936 19.496 16.9729ZM17.051 17.2897L16.9439 16.9729C16.9367 16.936 16.8773 16.936 16.8611 16.9729L16.7541 17.2897H16.422C16.4031 17.2902 16.3865 17.3024 16.3805 17.3203C16.3745 17.3382 16.3802 17.358 16.395 17.3698L16.6649 17.5686L16.5633 17.8854C16.5583 17.9037 16.5653 17.9231 16.5808 17.934C16.5964 17.9449 16.617 17.9449 16.6325 17.934L16.9025 17.7405L17.1725 17.934C17.1878 17.9462 17.2093 17.9469 17.2253 17.9357C17.2345 17.9292 17.2406 17.9198 17.243 17.9093C17.2441 17.9049 17.2444 17.9003 17.244 17.8956C17.2437 17.8922 17.243 17.8888 17.2418 17.8854L17.1401 17.5686L17.4101 17.3698C17.4248 17.358 17.4306 17.3382 17.4246 17.3203C17.4211 17.3101 17.4143 17.3018 17.4056 17.2964C17.399 17.2923 17.3913 17.2899 17.3831 17.2897H17.051ZM14.3981 16.9729L14.5052 17.2897H14.8372C14.8561 17.2902 14.8727 17.3024 14.8788 17.3203C14.8848 17.3382 14.879 17.358 14.8643 17.3698L14.5943 17.5686L14.6959 17.8854C14.7023 17.904 14.6955 17.9244 14.6795 17.9357C14.6635 17.9469 14.642 17.9462 14.6267 17.934L14.3567 17.7405L14.0867 17.934C14.0712 17.9449 14.0506 17.9449 14.035 17.934C14.0195 17.9231 14.0125 17.9037 14.0175 17.8854L14.1192 17.5686L13.8492 17.3698C13.8344 17.358 13.8287 17.3382 13.8346 17.3203C13.8407 17.3024 13.8573 17.2902 13.8762 17.2897H14.2182L14.3252 16.9729C14.3261 16.936 14.3855 16.936 14.3981 16.9729ZM18.22 16.1369C18.22 16.1141 18.2014 16.0955 18.1786 16.0955C18.1705 16.0955 18.163 16.0978 18.1566 16.1018L18.1553 16.1026L18.1521 16.1051L18.1494 16.1074L18.1466 16.1105C18.1446 16.113 18.1429 16.1156 18.1415 16.1185C18.1404 16.1208 18.1394 16.1231 18.1387 16.1256C18.1381 16.1278 18.1376 16.13 18.1374 16.1322L18.1372 16.1369L18.0301 16.4537H17.698C17.6791 16.4542 17.6626 16.4664 17.6566 16.4843C17.6505 16.5022 17.6563 16.522 17.671 16.5338L17.941 16.7326L17.8393 17.0494C17.8368 17.0588 17.8374 17.0685 17.8407 17.0772C17.8426 17.0823 17.8456 17.0872 17.8493 17.0913L17.8528 17.0948C17.8541 17.0959 17.8555 17.097 17.8569 17.098C17.8655 17.1041 17.8758 17.1068 17.8859 17.1061C17.8939 17.1055 17.9017 17.1028 17.9086 17.098L18.1786 16.9045L18.4486 17.098C18.453 17.1016 18.4581 17.1042 18.4633 17.1058C18.467 17.1069 18.4707 17.1075 18.4745 17.1076C18.4838 17.108 18.4933 17.1053 18.5014 17.0997C18.5117 17.0925 18.5181 17.0815 18.5197 17.0697C18.5207 17.063 18.5201 17.0561 18.5179 17.0494L18.4162 16.7326L18.6861 16.5338C18.6935 16.5279 18.6986 16.5201 18.7011 16.5115C18.7037 16.5028 18.7036 16.4933 18.7006 16.4843C18.6976 16.4752 18.6918 16.4677 18.6845 16.4623C18.6773 16.457 18.6685 16.4539 18.6592 16.4537H18.3271L18.22 16.1369ZM15.6742 16.1369L15.7813 16.4537H16.1133C16.1322 16.4542 16.1488 16.4664 16.1548 16.4843C16.1609 16.5022 16.155 16.522 16.1403 16.5338L15.8703 16.7326L15.972 17.0494C15.9729 17.052 15.9735 17.0547 15.9738 17.0573C15.9743 17.0606 15.9745 17.064 15.9742 17.0673C15.9738 17.0715 15.9729 17.0757 15.9713 17.0796C15.97 17.0829 15.9683 17.0861 15.9662 17.089C15.9634 17.0931 15.9598 17.0967 15.9556 17.0997C15.9395 17.1109 15.918 17.1102 15.9027 17.098L15.6328 16.9045L15.3628 17.098C15.3473 17.1089 15.3266 17.1089 15.3111 17.098C15.3068 17.095 15.3032 17.0914 15.3003 17.0873C15.2968 17.0824 15.2944 17.0769 15.293 17.0711L15.2922 17.0665L15.2919 17.0612C15.2919 17.0592 15.292 17.0572 15.2923 17.0552C15.2926 17.0533 15.293 17.0513 15.2935 17.0494L15.3952 16.7326L15.1253 16.5338C15.1105 16.522 15.1047 16.5022 15.1107 16.4843C15.1167 16.4664 15.1334 16.4542 15.1522 16.4537H15.4843L15.5914 16.1369C15.6021 16.0937 15.6616 16.0937 15.6742 16.1369ZM19.6031 15.6483L19.496 15.3315C19.4918 15.3143 19.4762 15.3023 19.4584 15.3028C19.4531 15.3029 19.4481 15.3041 19.4436 15.3062C19.4328 15.3112 19.4246 15.3211 19.4222 15.3333L19.3152 15.6501H18.9831C18.9706 15.6504 18.9593 15.6558 18.9512 15.6645C18.947 15.6691 18.9437 15.6745 18.9416 15.6807C18.9393 15.6875 18.9387 15.6947 18.9397 15.7015C18.9413 15.7125 18.947 15.7229 18.9561 15.7302L19.2261 15.929L19.1154 16.244C19.1104 16.2623 19.1174 16.2817 19.133 16.2926C19.1485 16.3035 19.1691 16.3035 19.1847 16.2926L19.4546 16.0991L19.7246 16.2926C19.7399 16.3048 19.7614 16.3055 19.7774 16.2942C19.7935 16.283 19.8002 16.2625 19.7939 16.244L19.6922 15.9272L19.9622 15.7284C19.977 15.7165 19.9827 15.6968 19.9767 15.6789C19.9706 15.661 19.9541 15.6487 19.9352 15.6483H19.6031ZM16.9025 15.2901C16.9133 15.2901 16.9231 15.2942 16.9304 15.301C16.9387 15.3085 16.9439 15.3194 16.9439 15.3315L17.051 15.6483H17.3831C17.402 15.6487 17.4185 15.661 17.4246 15.6789C17.4306 15.6968 17.4248 15.7165 17.4101 15.7284L17.1401 15.9272L17.2418 16.244C17.2448 16.2528 17.2448 16.262 17.2424 16.2705C17.241 16.2752 17.2388 16.2797 17.2359 16.2837L17.2336 16.2867L17.2314 16.2892C17.2295 16.291 17.2275 16.2927 17.2253 16.2942C17.2093 16.3055 17.1878 16.3048 17.1725 16.2926L16.9025 16.0991L16.6325 16.2926C16.617 16.3035 16.5964 16.3035 16.5808 16.2926C16.5653 16.2817 16.5583 16.2623 16.5633 16.244L16.6649 15.9272L16.395 15.7284C16.3802 15.7165 16.3745 15.6968 16.3805 15.6789C16.3865 15.661 16.4031 15.6487 16.422 15.6483H16.7541L16.8611 15.3315C16.8611 15.3086 16.8796 15.2901 16.9025 15.2901ZM14.5052 15.6483L14.3981 15.3315C14.3855 15.2883 14.3261 15.2883 14.3252 15.3315L14.2182 15.6483H13.8762C13.8573 15.6487 13.8407 15.661 13.8346 15.6789C13.8287 15.6968 13.8344 15.7165 13.8492 15.7284L14.1192 15.9272L14.0175 16.244C14.0125 16.2623 14.0195 16.2817 14.035 16.2926C14.0506 16.3035 14.0712 16.3035 14.0867 16.2926L14.3567 16.0991L14.6267 16.2926C14.642 16.3048 14.6635 16.3055 14.6795 16.2942C14.6904 16.2867 14.6969 16.2748 14.6981 16.2622C14.6987 16.2562 14.698 16.25 14.6959 16.244L14.5943 15.9272L14.8643 15.7284C14.879 15.7165 14.8848 15.6968 14.8788 15.6789C14.8727 15.661 14.8561 15.6487 14.8372 15.6483H14.5052ZM15.6742 14.4883L15.7813 14.8051H16.1133C16.1241 14.8053 16.1341 14.8094 16.1419 14.8162C16.1477 14.8214 16.1522 14.828 16.1548 14.8357C16.1609 14.8536 16.155 14.8733 16.1403 14.8852L15.8703 15.084L15.972 15.4008C15.9783 15.4193 15.9716 15.4398 15.9556 15.451C15.9448 15.4586 15.9316 15.4608 15.9194 15.4577C15.9134 15.4562 15.9077 15.4534 15.9027 15.4494L15.6328 15.2559L15.3628 15.4494C15.3541 15.4555 15.3437 15.4582 15.3336 15.4575C15.3257 15.4569 15.3179 15.4542 15.3111 15.4494C15.2956 15.4385 15.2885 15.4191 15.2935 15.4008L15.3952 15.084L15.1253 14.8852C15.1105 14.8733 15.1047 14.8536 15.1107 14.8357C15.1167 14.8178 15.1334 14.8055 15.1522 14.8051H15.4843L15.5914 14.4883C15.6021 14.4514 15.6616 14.4514 15.6742 14.4883ZM18.3271 14.8051L18.22 14.4883C18.2127 14.4514 18.1534 14.4514 18.1372 14.4883L18.0301 14.8051H17.698C17.6791 14.8055 17.6626 14.8178 17.6566 14.8357C17.6505 14.8536 17.6563 14.8733 17.671 14.8852L17.941 15.084L17.8393 15.4008C17.8344 15.4191 17.8414 15.4385 17.8569 15.4494C17.8724 15.4603 17.8931 15.4603 17.9086 15.4494L18.1786 15.2559L18.4486 15.4494C18.4638 15.4616 18.4854 15.4623 18.5014 15.451C18.5174 15.4398 18.5241 15.4193 18.5179 15.4008L18.4162 15.084L18.6861 14.8852C18.7009 14.8733 18.7067 14.8536 18.7006 14.8357C18.6946 14.8178 18.678 14.8055 18.6592 14.8051H18.3271ZM16.9439 13.6838L17.051 14.0006H17.3831C17.3864 14.0006 17.3896 14.0011 17.3927 14.0019C17.3972 14.003 17.4015 14.0048 17.4054 14.0071C17.4142 14.0125 17.4211 14.0209 17.4246 14.0312C17.4306 14.0491 17.4248 14.0688 17.4101 14.0807L17.1401 14.2795L17.2418 14.5963C17.248 14.6148 17.2414 14.6353 17.2253 14.6465C17.2093 14.6578 17.1878 14.6571 17.1725 14.6449L16.9025 14.4514L16.6325 14.6449C16.617 14.6558 16.5964 14.6558 16.5808 14.6449C16.5684 14.6362 16.5614 14.622 16.5617 14.6074C16.5618 14.6052 16.562 14.6031 16.5623 14.601L16.5633 14.5963L16.6649 14.2795L16.395 14.0807C16.3802 14.0688 16.3745 14.0491 16.3805 14.0312C16.3865 14.0133 16.4031 14.001 16.422 14.0006H16.7541L16.8611 13.6838C16.8773 13.6469 16.9367 13.6469 16.9439 13.6838ZM19.6031 14.0006L19.496 13.6838C19.4888 13.6469 19.4294 13.6469 19.4132 13.6838L19.3062 14.0006H18.9741C18.9665 14.0008 18.9593 14.0029 18.9529 14.0065C18.9435 14.0118 18.9362 14.0205 18.9326 14.0312C18.9266 14.0491 18.9323 14.0688 18.9471 14.0807L19.2171 14.2795L19.1154 14.5963C19.1147 14.5988 19.1142 14.6013 19.1139 14.6038C19.1137 14.6061 19.1137 14.6085 19.1139 14.6108C19.1141 14.6146 19.1148 14.6184 19.116 14.622C19.1175 14.6267 19.1198 14.6312 19.1229 14.6352C19.1256 14.6389 19.129 14.6422 19.133 14.6449C19.1485 14.6558 19.1691 14.6558 19.1847 14.6449L19.4546 14.4514L19.7246 14.6449C19.7399 14.6571 19.7614 14.6578 19.7774 14.6465C19.7935 14.6353 19.8002 14.6148 19.7939 14.5963L19.6922 14.2795L19.9622 14.0807C19.9698 14.0745 19.975 14.0663 19.9774 14.0573C19.9797 14.0489 19.9796 14.0398 19.9767 14.0312C19.9706 14.0133 19.9541 14.001 19.9352 14.0006H19.6031ZM18.2127 12.8235C18.2148 12.8266 18.2165 12.8301 18.2178 12.8337C18.2184 12.8354 18.2189 12.8372 18.2192 12.8391C18.2197 12.8416 18.22 12.8442 18.22 12.8469L18.3271 13.1637H18.6592C18.6631 13.1638 18.6669 13.1644 18.6706 13.1654C18.6741 13.1665 18.6775 13.1679 18.6806 13.1698C18.6898 13.1751 18.6971 13.1837 18.7006 13.1943C18.7067 13.2122 18.7009 13.2319 18.6861 13.2437L18.4162 13.4426L18.5179 13.7594C18.522 13.7719 18.5204 13.7853 18.5139 13.7961C18.5127 13.7982 18.5113 13.8002 18.5097 13.8021C18.5073 13.8049 18.5045 13.8074 18.5014 13.8096C18.4854 13.8209 18.4638 13.8202 18.4486 13.808L18.1786 13.6145L17.9086 13.808C17.9017 13.8128 17.8938 13.8155 17.8857 13.816C17.8757 13.8167 17.8655 13.814 17.8569 13.808C17.8414 13.7971 17.8344 13.7777 17.8393 13.7594L17.941 13.4426L17.671 13.2437C17.6563 13.2319 17.6505 13.2122 17.6566 13.1943C17.6626 13.1764 17.6791 13.1641 17.698 13.1637H18.0301L18.1372 12.8469C18.1372 12.8321 18.1451 12.8184 18.1579 12.811C18.166 12.8063 18.1753 12.8046 18.1843 12.8059C18.1895 12.8066 18.1946 12.8083 18.1993 12.811C18.2025 12.8129 18.2054 12.8152 18.2079 12.8178C18.2097 12.8195 18.2113 12.8215 18.2127 12.8235Z" fill="#283991"/>
<path d="M14.6917 14.583L14.6477 14.6265L14.6282 14.646C14.6433 14.6571 14.664 14.6574 14.6795 14.6465C14.6895 14.6396 14.6959 14.629 14.6977 14.6176C14.6989 14.6106 14.6983 14.6033 14.6959 14.5963L14.6917 14.583Z" fill="#283991"/>
<path d="M19.3882 12.1451C19.4329 12.137 19.4778 12.1292 19.5229 12.1217L19.6031 12.3591H19.9352C19.9541 12.3596 19.9706 12.3718 19.9767 12.3897C19.9827 12.4076 19.9769 12.4274 19.9622 12.4392L19.6922 12.6381L19.7939 12.9549C19.8002 12.9734 19.7935 12.9939 19.7774 13.0051C19.7614 13.0164 19.7399 13.0157 19.7246 13.0035L19.4546 12.81L19.1847 13.0035C19.1691 13.0144 19.1485 13.0144 19.133 13.0035C19.1174 12.9926 19.1104 12.9732 19.1154 12.9549L19.2261 12.6399L18.9561 12.441C18.9413 12.4292 18.9356 12.4095 18.9416 12.3915C18.9476 12.3736 18.9642 12.3614 18.9831 12.3609H19.3152L19.3882 12.1451Z" fill="white"/>
<path d="M17.0472 12.9137C17.0994 12.8881 17.1518 12.8631 17.2045 12.8385L17.2418 12.9549C17.248 12.9734 17.2414 12.9939 17.2253 13.0051C17.2093 13.0164 17.1878 13.0157 17.1725 13.0035L17.0472 12.9137Z" fill="white"/>
<path d="M15.7446 13.6947C15.8003 13.6545 15.8565 13.615 15.9132 13.5761L15.972 13.7594C15.9783 13.7779 15.9716 13.7984 15.9556 13.8096C15.9396 13.8209 15.918 13.8202 15.9027 13.808L15.7446 13.6947Z" fill="white"/>
<path d="M14.6282 14.646C14.6492 14.6249 14.6704 14.6039 14.6917 14.583L14.6959 14.5963C14.7022 14.6148 14.6956 14.6353 14.6795 14.6465C14.664 14.6574 14.6433 14.6571 14.6282 14.646Z" fill="white"/>
<path d="M12.9318 17.0112C13.0258 16.8215 13.1262 16.6355 13.2329 16.4537H13.5612C13.5801 16.4542 13.5967 16.4664 13.6027 16.4843C13.6088 16.5022 13.6029 16.522 13.5882 16.5338L13.3182 16.7326L13.4199 17.0494C13.4262 17.068 13.4195 17.0884 13.4035 17.0997C13.3874 17.1109 13.3659 17.1102 13.3506 17.098L13.0807 16.9045L12.9318 17.0112Z" fill="white"/>
<path d="M12.1115 19.5904C12.1171 19.5891 12.1225 19.5868 12.1274 19.5834C12.1434 19.5721 12.1501 19.5517 12.1438 19.5331L12.1286 19.4856C12.1227 19.5205 12.117 19.5554 12.1115 19.5904Z" fill="white"/>
<path d="M12.2031 19.0978C12.2147 19.0441 12.2267 18.9907 12.2392 18.9374H12.2851C12.304 18.9379 12.3206 18.9501 12.3267 18.968C12.3327 18.9859 12.3269 19.0057 12.3122 19.0175L12.2031 19.0978Z" fill="white"/>
<path d="M19.496 18.6206C19.4918 18.6034 19.4762 18.5915 19.4584 18.5919C19.4407 18.5923 19.4256 18.605 19.4222 18.6224L19.3152 18.9392H18.9831C18.9642 18.9397 18.9476 18.9519 18.9416 18.9698C18.9356 18.9877 18.9414 19.0075 18.9561 19.0193L19.2261 19.2182L19.1154 19.5331C19.1104 19.5514 19.1174 19.5709 19.133 19.5818C19.1485 19.5926 19.1691 19.5926 19.1847 19.5817L19.4546 19.3883L19.7246 19.5817C19.7399 19.5939 19.7614 19.5946 19.7774 19.5834C19.7935 19.5721 19.8002 19.5517 19.7939 19.5331L19.6922 19.2164L19.9622 19.0175C19.977 19.0057 19.9827 18.9859 19.9767 18.968C19.9706 18.9501 19.9541 18.9379 19.9352 18.9374H19.6031L19.496 18.6206Z" fill="white"/>
<path d="M16.9439 18.6206C16.9396 18.6034 16.9241 18.5915 16.9063 18.5919C16.8886 18.5923 16.8735 18.605 16.8701 18.6224L16.7631 18.9392H16.431C16.4121 18.9397 16.3955 18.9519 16.3895 18.9698C16.3835 18.9877 16.3892 19.0075 16.404 19.0193L16.6739 19.2182L16.5633 19.5331C16.5583 19.5514 16.5653 19.5709 16.5808 19.5818C16.5964 19.5926 16.617 19.5926 16.6325 19.5817L16.9025 19.3883L17.1725 19.5817C17.1878 19.5939 17.2093 19.5946 17.2253 19.5834C17.2414 19.5721 17.248 19.5517 17.2418 19.5331L17.1401 19.2164L17.4101 19.0175C17.4248 19.0057 17.4306 18.9859 17.4246 18.968C17.4185 18.9501 17.402 18.9379 17.3831 18.9374H17.051L16.9439 18.6206Z" fill="white"/>
<path d="M14.5052 18.9374L14.3981 18.6206C14.3855 18.5774 14.3261 18.5774 14.3252 18.6224L14.2182 18.9392H13.8852C13.8663 18.9397 13.8497 18.9519 13.8437 18.9698C13.8377 18.9877 13.8434 19.0075 13.8582 19.0193L14.1281 19.2182L14.0175 19.5331C14.0125 19.5514 14.0195 19.5709 14.035 19.5818C14.0506 19.5926 14.0712 19.5926 14.0867 19.5817L14.3567 19.3883L14.6267 19.5817C14.642 19.5939 14.6635 19.5946 14.6795 19.5834C14.6956 19.5721 14.7022 19.5517 14.6959 19.5331L14.5943 19.2164L14.8643 19.0175C14.879 19.0057 14.8848 18.9859 14.8788 18.968C14.8727 18.9501 14.8561 18.9379 14.8372 18.9374H14.5052Z" fill="white"/>
<path d="M18.22 17.7837C18.22 17.7689 18.2121 17.7553 18.1993 17.7479C18.1865 17.7405 18.1707 17.7405 18.1579 17.7479C18.1451 17.7553 18.1372 17.7689 18.1372 17.7837L18.0301 18.1005H17.698C17.6791 18.101 17.6626 18.1132 17.6566 18.1311C17.6505 18.149 17.6563 18.1688 17.671 18.1806L17.941 18.3795L17.8393 18.6962C17.8344 18.7145 17.8414 18.734 17.8569 18.7448C17.8724 18.7557 17.8931 18.7557 17.9086 18.7448L18.1786 18.5513L18.4486 18.7448C18.4638 18.757 18.4854 18.7577 18.5014 18.7465C18.5174 18.7352 18.5241 18.7148 18.5179 18.6962L18.4162 18.3795L18.6861 18.1806C18.7009 18.1688 18.7067 18.149 18.7006 18.1311C18.6946 18.1132 18.678 18.101 18.6592 18.1005H18.3271L18.22 17.7837Z" fill="white"/>
<path d="M15.7813 18.1005L15.6742 17.7837C15.6616 17.7405 15.6021 17.7405 15.5914 17.7837L15.4843 18.1005H15.1522C15.1334 18.101 15.1167 18.1132 15.1107 18.1311C15.1047 18.149 15.1105 18.1688 15.1253 18.1806L15.3952 18.3795L15.2935 18.6962C15.2885 18.7145 15.2956 18.734 15.3111 18.7448C15.3266 18.7557 15.3473 18.7557 15.3628 18.7448L15.6328 18.5513L15.9027 18.7448C15.918 18.757 15.9396 18.7577 15.9556 18.7465C15.9716 18.7352 15.9783 18.7148 15.972 18.6962L15.8703 18.3795L16.1403 18.1806C16.155 18.1688 16.1609 18.149 16.1548 18.1311C16.1488 18.1132 16.1322 18.101 16.1133 18.1005H15.7813Z" fill="white"/>
<path d="M13.2292 18.1005L13.1221 17.7837C13.1094 17.7405 13.05 17.7405 13.0491 17.7837L12.9421 18.1005H12.6001C12.5812 18.101 12.5646 18.1132 12.5586 18.1311C12.5526 18.149 12.5584 18.1688 12.5731 18.1806L12.8431 18.3795L12.7414 18.6962C12.7364 18.7145 12.7435 18.734 12.759 18.7448C12.7745 18.7557 12.7952 18.7557 12.8107 18.7448L13.0807 18.5513L13.3506 18.7448C13.3659 18.757 13.3874 18.7577 13.4035 18.7465C13.4195 18.7352 13.4262 18.7148 13.4199 18.6962L13.3182 18.3795L13.5882 18.1806C13.6029 18.1688 13.6088 18.149 13.6027 18.1311C13.5967 18.1132 13.5801 18.101 13.5612 18.1005H13.2292Z" fill="white"/>
<path d="M19.6031 17.2897L19.496 16.9729C19.4888 16.936 19.4294 16.936 19.4132 16.9729L19.3062 17.2897H18.9741C18.9552 17.2902 18.9386 17.3024 18.9326 17.3203C18.9266 17.3382 18.9323 17.358 18.9471 17.3698L19.2171 17.5686L19.1154 17.8854C19.1104 17.9037 19.1174 17.9231 19.133 17.934C19.1485 17.9449 19.1691 17.9449 19.1847 17.934L19.4546 17.7405L19.7246 17.934C19.7399 17.9462 19.7614 17.9469 19.7774 17.9357C19.7935 17.9244 19.8002 17.904 19.7939 17.8854L19.6922 17.5686L19.9622 17.3698C19.9769 17.358 19.9827 17.3382 19.9767 17.3203C19.9706 17.3024 19.9541 17.2902 19.9352 17.2897H19.6031Z" fill="white"/>
<path d="M17.051 17.2897L16.9439 16.9729C16.9367 16.936 16.8773 16.936 16.8611 16.9729L16.7541 17.2897H16.422C16.4031 17.2902 16.3865 17.3024 16.3805 17.3203C16.3745 17.3382 16.3802 17.358 16.395 17.3698L16.6649 17.5686L16.5633 17.8854C16.5583 17.9037 16.5653 17.9231 16.5808 17.934C16.5964 17.9449 16.617 17.9449 16.6325 17.934L16.9025 17.7405L17.1725 17.934C17.1878 17.9462 17.2093 17.9469 17.2253 17.9357C17.2414 17.9244 17.2481 17.904 17.2418 17.8854L17.1401 17.5686L17.4101 17.3698C17.4248 17.358 17.4306 17.3382 17.4246 17.3203C17.4185 17.3024 17.402 17.2902 17.3831 17.2897H17.051Z" fill="white"/>
<path d="M14.5052 17.2897L14.3981 16.9729C14.3855 16.936 14.3261 16.936 14.3252 16.9729L14.2182 17.2897H13.8762C13.8573 17.2902 13.8407 17.3024 13.8346 17.3203C13.8287 17.3382 13.8344 17.358 13.8492 17.3698L14.1192 17.5686L14.0175 17.8854C14.0125 17.9037 14.0195 17.9231 14.035 17.934C14.0506 17.9449 14.0712 17.9449 14.0867 17.934L14.3567 17.7405L14.6267 17.934C14.642 17.9462 14.6635 17.9469 14.6795 17.9357C14.6955 17.9244 14.7023 17.904 14.6959 17.8854L14.5943 17.5686L14.8643 17.3698C14.879 17.358 14.8848 17.3382 14.8788 17.3203C14.8727 17.3024 14.8561 17.2902 14.8372 17.2897H14.5052Z" fill="white"/>
<path d="M18.22 16.1369C18.22 16.1141 18.2014 16.0955 18.1786 16.0955C18.1557 16.0955 18.1372 16.1141 18.1372 16.1369L18.0301 16.4537H17.698C17.6791 16.4542 17.6626 16.4664 17.6566 16.4843C17.6505 16.5022 17.6563 16.522 17.671 16.5338L17.941 16.7326L17.8393 17.0494C17.8344 17.0677 17.8414 17.0871 17.8569 17.098C17.8724 17.1089 17.8931 17.1089 17.9086 17.098L18.1786 16.9045L18.4486 17.098C18.4639 17.1102 18.4854 17.1109 18.5014 17.0997C18.5174 17.0884 18.5241 17.068 18.5179 17.0494L18.4162 16.7326L18.6861 16.5338C18.7009 16.522 18.7067 16.5022 18.7006 16.4843C18.6946 16.4664 18.678 16.4542 18.6592 16.4537H18.3271L18.22 16.1369Z" fill="white"/>
<path d="M15.7813 16.4537L15.6742 16.1369C15.6616 16.0937 15.6021 16.0937 15.5914 16.1369L15.4843 16.4537H15.1522C15.1334 16.4542 15.1167 16.4664 15.1107 16.4843C15.1047 16.5022 15.1105 16.522 15.1253 16.5338L15.3952 16.7326L15.2935 17.0494C15.2886 17.0677 15.2956 17.0871 15.3111 17.098C15.3266 17.1089 15.3473 17.1089 15.3628 17.098L15.6328 16.9045L15.9027 17.098C15.918 17.1102 15.9395 17.1109 15.9556 17.0997C15.9716 17.0884 15.9783 17.068 15.972 17.0494L15.8703 16.7326L16.1403 16.5338C16.155 16.522 16.1609 16.5022 16.1548 16.4843C16.1488 16.4664 16.1322 16.4542 16.1133 16.4537H15.7813Z" fill="white"/>
<path d="M19.496 15.3315C19.4918 15.3143 19.4762 15.3023 19.4584 15.3028C19.4407 15.3032 19.4256 15.3159 19.4222 15.3333L19.3152 15.6501H18.9831C18.9642 15.6505 18.9476 15.6628 18.9416 15.6807C18.9356 15.6986 18.9414 15.7183 18.9561 15.7302L19.2261 15.929L19.1154 16.244C19.1104 16.2623 19.1174 16.2817 19.133 16.2926C19.1485 16.3035 19.1691 16.3035 19.1847 16.2926L19.4546 16.0991L19.7246 16.2926C19.7399 16.3048 19.7614 16.3055 19.7774 16.2942C19.7935 16.283 19.8002 16.2625 19.7939 16.244L19.6922 15.9272L19.9622 15.7284C19.977 15.7165 19.9827 15.6968 19.9767 15.6789C19.9706 15.661 19.9541 15.6487 19.9352 15.6483H19.6031L19.496 15.3315Z" fill="white"/>
<path d="M16.9439 15.3315C16.9439 15.3086 16.9254 15.2901 16.9025 15.2901C16.8796 15.2901 16.8611 15.3086 16.8611 15.3315L16.7541 15.6483H16.422C16.4031 15.6487 16.3865 15.661 16.3805 15.6789C16.3745 15.6968 16.3802 15.7165 16.395 15.7284L16.6649 15.9272L16.5633 16.244C16.5583 16.2623 16.5653 16.2817 16.5808 16.2926C16.5964 16.3035 16.617 16.3035 16.6325 16.2926L16.9025 16.0991L17.1725 16.2926C17.1878 16.3048 17.2093 16.3055 17.2253 16.2942C17.2414 16.283 17.2481 16.2625 17.2418 16.244L17.1401 15.9272L17.4101 15.7284C17.4248 15.7165 17.4306 15.6968 17.4246 15.6789C17.4185 15.661 17.402 15.6487 17.3831 15.6483H17.051L16.9439 15.3315Z" fill="white"/>
<path d="M14.5052 15.6483L14.3981 15.3315C14.3855 15.2883 14.3261 15.2883 14.3252 15.3315L14.2182 15.6483H13.8762C13.8573 15.6487 13.8407 15.661 13.8346 15.6789C13.8287 15.6968 13.8344 15.7165 13.8492 15.7284L14.1192 15.9272L14.0175 16.244C14.0125 16.2623 14.0195 16.2817 14.035 16.2926C14.0506 16.3035 14.0712 16.3035 14.0867 16.2926L14.3567 16.0991L14.6267 16.2926C14.642 16.3048 14.6635 16.3055 14.6795 16.2942C14.6956 16.283 14.7022 16.2625 14.6959 16.244L14.5943 15.9272L14.8643 15.7284C14.879 15.7165 14.8848 15.6968 14.8788 15.6789C14.8727 15.661 14.8561 15.6487 14.8372 15.6483H14.5052Z" fill="white"/>
<path d="M15.7813 14.8051L15.6742 14.4883C15.6616 14.4514 15.6021 14.4514 15.5914 14.4883L15.4843 14.8051H15.1522C15.1334 14.8055 15.1167 14.8178 15.1107 14.8357C15.1047 14.8536 15.1105 14.8733 15.1253 14.8852L15.3952 15.084L15.2935 15.4008C15.2885 15.4191 15.2956 15.4385 15.3111 15.4494C15.3266 15.4603 15.3473 15.4603 15.3628 15.4494L15.6328 15.2559L15.9027 15.4494C15.918 15.4616 15.9396 15.4623 15.9556 15.451C15.9716 15.4398 15.9783 15.4193 15.972 15.4008L15.8703 15.084L16.1403 14.8852C16.155 14.8733 16.1609 14.8536 16.1548 14.8357C16.1488 14.8178 16.1322 14.8055 16.1133 14.8051H15.7813Z" fill="white"/>
<path d="M18.3271 14.8051L18.22 14.4883C18.2127 14.4514 18.1534 14.4514 18.1372 14.4883L18.0301 14.8051H17.698C17.6791 14.8055 17.6626 14.8178 17.6566 14.8357C17.6505 14.8536 17.6563 14.8733 17.671 14.8852L17.941 15.084L17.8393 15.4008C17.8344 15.4191 17.8414 15.4385 17.8569 15.4494C17.8724 15.4603 17.8931 15.4603 17.9086 15.4494L18.1786 15.2559L18.4486 15.4494C18.4638 15.4616 18.4854 15.4623 18.5014 15.451C18.5174 15.4398 18.5241 15.4193 18.5179 15.4008L18.4162 15.084L18.6861 14.8852C18.7009 14.8733 18.7067 14.8536 18.7006 14.8357C18.6946 14.8178 18.678 14.8055 18.6592 14.8051H18.3271Z" fill="white"/>
<path d="M17.051 14.0006L16.9439 13.6838C16.9367 13.6469 16.8773 13.6469 16.8611 13.6838L16.7541 14.0006H16.422C16.4031 14.001 16.3865 14.0133 16.3805 14.0312C16.3745 14.0491 16.3802 14.0688 16.395 14.0807L16.6649 14.2795L16.5633 14.5963C16.5583 14.6146 16.5653 14.634 16.5808 14.6449C16.5964 14.6558 16.617 14.6558 16.6325 14.6449L16.9025 14.4514L17.1725 14.6449C17.1878 14.6571 17.2093 14.6578 17.2253 14.6465C17.2414 14.6353 17.248 14.6148 17.2418 14.5963L17.1401 14.2795L17.4101 14.0807C17.4248 14.0688 17.4306 14.0491 17.4246 14.0312C17.4185 14.0133 17.402 14.001 17.3831 14.0006H17.051Z" fill="white"/>
<path d="M19.6031 14.0006L19.496 13.6838C19.4888 13.6469 19.4294 13.6469 19.4132 13.6838L19.3062 14.0006H18.9741C18.9552 14.001 18.9386 14.0133 18.9326 14.0312C18.9266 14.0491 18.9323 14.0688 18.9471 14.0807L19.2171 14.2795L19.1154 14.5963C19.1104 14.6146 19.1174 14.634 19.133 14.6449C19.1485 14.6558 19.1691 14.6558 19.1847 14.6449L19.4546 14.4514L19.7246 14.6449C19.7399 14.6571 19.7614 14.6578 19.7774 14.6465C19.7935 14.6353 19.8002 14.6148 19.7939 14.5963L19.6922 14.2795L19.9622 14.0807C19.9769 14.0688 19.9827 14.0491 19.9767 14.0312C19.9706 14.0133 19.9541 14.001 19.9352 14.0006H19.6031Z" fill="white"/>
<path d="M18.22 12.8469C18.22 12.8321 18.2121 12.8184 18.1993 12.811C18.1865 12.8036 18.1707 12.8036 18.1579 12.811C18.1451 12.8184 18.1372 12.8321 18.1372 12.8469L18.0301 13.1637H17.698C17.6791 13.1641 17.6626 13.1764 17.6566 13.1943C17.6505 13.2122 17.6563 13.2319 17.671 13.2437L17.941 13.4426L17.8393 13.7594C17.8344 13.7777 17.8414 13.7971 17.8569 13.808C17.8724 13.8189 17.8931 13.8189 17.9086 13.808L18.1786 13.6145L18.4486 13.808C18.4638 13.8202 18.4854 13.8209 18.5014 13.8096C18.5174 13.7984 18.5241 13.7779 18.5179 13.7594L18.4162 13.4426L18.6861 13.2437C18.7009 13.2319 18.7067 13.2122 18.7006 13.1943C18.6946 13.1764 18.678 13.1641 18.6592 13.1637H18.3271L18.22 12.8469Z" fill="white"/>
</g>
</g>
</g>
<defs>
<clipPath id="clip0_1828_2328">
<rect width="17.998" height="17.998" fill="white" transform="translate(2.00171 2.00098)"/>
</clipPath>
</defs>
</svg>
