<svg width="128" height="80" viewBox="0 0 128 80" fill="none" xmlns="http://www.w3.org/2000/svg">
<g id="payment methods / payment method-discover / brand-dark">
<g id="logo">
<path d="M10.3663 30.579H5V49.2717H10.3663C11.6496 49.366 12.9385 49.1947 14.1526 48.7685C15.3667 48.3423 16.4799 47.6704 17.4227 46.7948C18.3655 45.9191 19.1177 44.8585 19.6323 43.6791C20.1468 42.4998 20.4127 41.227 20.4133 39.9403C20.4133 34.4248 16.2693 30.579 10.3663 30.579ZM14.6296 44.5911C13.4669 45.6345 12.0061 46.0817 9.65084 46.0817H8.667V33.769H9.65084C12.0061 33.769 13.4371 34.1863 14.6296 35.2596C15.2705 35.8592 15.7814 36.584 16.1307 37.3892C16.48 38.1943 16.6602 39.0626 16.6602 39.9403C16.6602 40.8179 16.48 41.6862 16.1307 42.4913C15.7814 43.2965 15.2705 44.0213 14.6296 44.6209V44.5911ZM22.0829 30.579H25.7201V49.2419H22.0829V30.579ZM34.6044 37.7639C32.428 36.9589 31.7721 36.4223 31.7721 35.3789C31.7721 34.2161 32.9348 33.3218 34.4851 33.3218C35.5882 33.3218 36.4826 33.7988 37.4366 34.8422L39.3446 32.3677C37.7645 30.9963 35.8863 30.2808 33.859 30.2808C30.5796 30.2808 28.0455 32.5764 28.0455 35.6472C28.0455 38.2111 29.2082 39.5229 32.6367 40.7452C34.0379 41.252 34.7832 41.58 35.141 41.8185C35.4783 42.0167 35.7578 42.3 35.9513 42.6401C36.1449 42.9801 36.2458 43.365 36.2441 43.7563C36.2441 45.247 35.0515 46.3799 33.4118 46.3799C31.6827 46.3799 30.2815 45.4855 29.4467 43.8756L27.0617 46.1414C28.761 48.6158 30.7883 49.7189 33.5311 49.7189C37.3173 49.7189 39.9707 47.1848 39.9707 43.5774C39.9707 40.5961 38.7782 39.2546 34.6044 37.7639ZM41.1334 39.9403C41.1212 41.2314 41.3681 42.512 41.8593 43.7061C42.3505 44.9003 43.0762 45.9838 43.9934 46.8927C44.9106 47.8016 46.0008 48.5173 47.1994 48.9977C48.398 49.478 49.6807 49.7131 50.9717 49.6891C52.5518 49.6891 53.8934 49.391 55.5331 48.586V44.293C54.1021 45.7836 52.7903 46.3501 51.1506 46.3501C47.4836 46.3501 44.8899 43.6669 44.8899 39.9104C44.8899 36.3329 47.573 33.5006 50.9717 33.5006C52.7307 33.5006 54.0425 34.0969 55.5629 35.5875V31.3243C54.0678 30.5353 52.3945 30.145 50.7046 30.1908C49.0147 30.2367 47.3651 30.7173 45.9149 31.5862C44.4648 32.4551 43.263 33.683 42.4254 35.1515C41.5879 36.62 41.1429 38.2795 41.1334 39.9701V39.9403ZM84.422 43.1302L79.4432 30.579H75.4482L83.3785 49.7487H85.3462L93.3957 30.579H89.4604L84.422 43.1302ZM95.0652 49.2717H105.381V46.1116H98.7024V41.0731H105.142V37.8832H98.7024V33.769H105.381V30.579H95.0652V49.2717ZM119.78 36.0944C119.78 32.6062 117.395 30.579 113.192 30.579H107.795V49.2717H111.433V41.7588H111.91L116.948 49.2717H121.42L115.547 41.4011C118.29 40.8346 119.78 38.9564 119.78 36.0944ZM112.476 39.1949H111.433V33.5304H112.536C114.801 33.5304 116.054 34.4845 116.054 36.3031C116.054 38.1813 114.801 39.1949 112.476 39.1949Z" fill="white"/>
<path d="M66.6534 49.9276C72.1363 49.9276 76.5811 45.4828 76.5811 39.9999C76.5811 34.5169 72.1363 30.0721 66.6534 30.0721C61.1704 30.0721 56.7256 34.5169 56.7256 39.9999C56.7256 45.4828 61.1704 49.9276 66.6534 49.9276Z" fill="url(#paint0_linear_619_310)"/>
<path d="M66.6534 49.9276C72.1363 49.9276 76.5811 45.4828 76.5811 39.9999C76.5811 34.5169 72.1363 30.0721 66.6534 30.0721C61.1704 30.0721 56.7256 34.5169 56.7256 39.9999C56.7256 45.4828 61.1704 49.9276 66.6534 49.9276Z" fill="url(#paint1_linear_619_310)"/>
<path d="M122.106 31.2944C122.106 30.9665 121.897 30.7876 121.509 30.7876H120.973V32.4273H121.36V31.8012L121.808 32.4273H122.285L121.748 31.7416C121.987 31.682 122.106 31.5329 122.106 31.2944ZM121.42 31.5031H121.36V31.0857H121.42C121.629 31.0857 121.718 31.1453 121.718 31.2944C121.718 31.4435 121.629 31.5031 121.42 31.5031Z" fill="white"/>
<path d="M121.569 30.1913C121.195 30.1913 120.835 30.3379 120.567 30.5999C120.3 30.8618 120.146 31.2182 120.138 31.5926C120.138 32.3975 120.794 33.0236 121.569 33.0236C121.949 33.0236 122.312 32.8728 122.581 32.6044C122.849 32.3361 123 31.9721 123 31.5926C123 31.213 122.849 30.849 122.581 30.5807C122.312 30.3123 121.949 30.1615 121.569 30.1615V30.1913ZM121.569 32.7851C121.416 32.7812 121.266 32.7473 121.126 32.6853C120.987 32.6232 120.861 32.5343 120.755 32.4236C120.65 32.3128 120.568 32.1824 120.513 32.0398C120.458 31.8972 120.432 31.7453 120.436 31.5926C120.436 30.9665 120.943 30.4298 121.569 30.4298C122.165 30.4298 122.702 30.9665 122.702 31.6224C122.702 32.2484 122.195 32.7851 121.569 32.7851Z" fill="white"/>
</g>
</g>
<defs>
<linearGradient id="paint0_linear_619_310" x1="94.2973" y1="47.9302" x2="92.6827" y2="32.9347" gradientUnits="userSpaceOnUse">
<stop stop-color="#F89F21"/>
<stop offset="0.3" stop-color="#F79A23"/>
<stop offset="0.5" stop-color="#F78E22"/>
<stop offset="0.6" stop-color="#F68721"/>
<stop offset="0.7" stop-color="#F48220"/>
<stop offset="1" stop-color="#F27623"/>
</linearGradient>
<linearGradient id="paint1_linear_619_310" x1="87.7417" y1="47.7811" x2="85.6235" y2="23.201" gradientUnits="userSpaceOnUse">
<stop stop-color="#F68721" stop-opacity="0"/>
<stop offset="0.4" stop-color="#E27027" stop-opacity="0.3"/>
<stop offset="0.7" stop-color="#D4612C" stop-opacity="0.5"/>
<stop offset="1" stop-color="#D15D2D" stop-opacity="0.7"/>
</linearGradient>
</defs>
</svg>
