<svg width="128" height="80" viewBox="0 0 128 80" fill="none" xmlns="http://www.w3.org/2000/svg">
<g id="payment methods / payment method-orange / brand">
<g id="logo">
<path d="M32 8H96V72H32V8Z" fill="#FF7900"/>
<path d="M57.1069 65.8C56.2385 66.3808 55.2164 66.689 54.1717 66.6851C52.51 66.6851 51.5278 65.5788 51.5278 64.0977C51.5278 62.104 53.3612 61.0473 57.1385 60.6206V60.1262C57.1385 59.4782 56.6463 59.1034 55.7387 59.1034C55.3221 59.0916 54.9086 59.1781 54.5317 59.3558C54.1548 59.5335 53.8249 59.7974 53.5689 60.1262L51.9884 59.223C52.8193 58.0625 54.0852 57.483 55.7861 57.4845C58.1071 57.4845 59.3986 58.4892 59.3986 60.1262V66.5835H57.3214L57.1069 65.8ZM53.8218 63.9261C53.8218 64.5244 54.1988 65.0843 54.8784 65.0843C55.6167 65.0843 56.3325 64.7773 57.0504 64.1451V62.0363C54.8604 62.314 53.8218 62.8762 53.8218 63.9306V63.9261ZM61.2477 57.9135L63.1872 57.6448L63.3994 58.7015C64.4945 57.9 65.3637 57.4732 66.4588 57.4732C68.2921 57.4732 69.2359 58.4463 69.2359 60.3723V66.5745H66.8945V60.7809C66.8945 59.6904 66.61 59.2005 65.7656 59.2005C65.0657 59.2005 64.368 59.5233 63.5733 60.1894V66.579H61.2477V57.9135ZM84.7629 66.7438C82.137 66.7438 80.5701 65.0572 80.5701 62.1266C80.5701 59.1959 82.1506 57.4732 84.7245 57.4732C87.2984 57.4732 88.8224 59.1101 88.8224 62.0069C88.8224 62.1604 88.8043 62.314 88.8043 62.4585H82.8731C82.8911 64.1451 83.5911 64.9963 84.9706 64.9963C85.8579 64.9963 86.4427 64.6395 86.9913 63.8674L88.7095 64.8202C87.9532 66.08 86.5939 66.7438 84.7629 66.7438ZM86.5194 60.9503C86.5194 59.7581 85.8421 59.0582 84.7245 59.0582C83.6678 59.0582 83.0063 59.7356 82.9182 60.9503H86.5194ZM39.8775 66.8409C37.5587 66.8409 35.4703 65.3643 35.4703 62.1401C35.4703 58.916 37.5587 57.4461 39.8775 57.4461C42.1963 57.4461 44.2848 58.925 44.2848 62.1469C44.2848 65.3688 42.194 66.8409 39.8775 66.8409ZM39.8775 59.4217C38.1277 59.4217 37.8026 61.0022 37.8026 62.1311C37.8026 63.26 38.1277 64.8518 39.8775 64.8518C41.6273 64.8518 41.9524 63.2713 41.9524 62.1311C41.9524 60.9909 41.6273 59.4217 39.8775 59.4217ZM45.8923 57.6719H48.1208V58.7195C48.424 58.3575 48.7982 58.0615 49.2203 57.8498C49.6425 57.6382 50.1035 57.5154 50.575 57.489C50.6761 57.4864 50.7773 57.4917 50.8776 57.5048V59.7039H50.7647C49.7442 59.7039 48.6288 59.862 48.2811 60.6545V66.579H45.8923V57.6719ZM74.9752 64.6711C76.7544 64.6576 76.9034 62.8491 76.9034 61.666C76.9034 60.2752 76.2261 59.1418 74.9594 59.1418C74.1173 59.1418 73.178 59.7559 73.178 61.7631C73.178 62.8649 73.2548 64.6824 74.9752 64.6711ZM79.1567 57.6448V66.0778C79.1567 67.5679 79.0438 70.0176 74.7969 70.0447C73.0471 70.0447 71.4237 69.3561 71.0986 67.8253L73.4128 67.4528C73.5099 67.8908 73.7763 68.3288 75.0881 68.3288C76.3051 68.3288 76.8944 67.7463 76.8944 66.3532V65.3169L76.8628 65.2853C76.4902 65.9491 75.9235 66.5812 74.5621 66.5812C72.4871 66.5812 70.8502 65.1408 70.8502 62.1288C70.8502 59.1508 72.5368 57.4845 74.4311 57.4823C76.208 57.4823 76.8673 58.2883 77.0186 58.715H76.9915L77.1834 57.6493L79.1567 57.6448ZM89.7436 54.6893H88.8224V57.2407H88.3347V54.6893H87.4135V54.2965H89.7436V54.6893ZM93.5819 57.2407H93.0965V54.7819H93.0807L92.1166 57.2407H91.8095L90.8454 54.7819H90.8319V57.2407H90.3464V54.3055H91.096L91.9743 56.5407L92.8391 54.3055H93.5819V57.2407Z" fill="white"/>
</g>
</g>
</svg>
