<svg width="128" height="80" viewBox="0 0 128 80" fill="none" xmlns="http://www.w3.org/2000/svg">
<g id="payment methods / payment method-discover / white">
<g id="logo">
<path d="M10.3663 30.5791H5V49.2719H10.3663C11.6496 49.3661 12.9385 49.1948 14.1526 48.7686C15.3667 48.3424 16.4799 47.6705 17.4227 46.7949C18.3655 45.9192 19.1177 44.8586 19.6323 43.6792C20.1468 42.4999 20.4127 41.2271 20.4133 39.9404C20.4133 34.425 16.2693 30.5791 10.3663 30.5791ZM14.6296 44.5912C13.4669 45.6347 12.0061 46.0819 9.65084 46.0819H8.667V33.7691H9.65084C12.0061 33.7691 13.4371 34.1865 14.6296 35.2597C15.2705 35.8593 15.7814 36.5842 16.1307 37.3893C16.48 38.1944 16.6602 39.0627 16.6602 39.9404C16.6602 40.818 16.48 41.6863 16.1307 42.4914C15.7814 43.2966 15.2705 44.0214 14.6296 44.621V44.5912ZM22.0829 30.5791H25.7201V49.242H22.0829V30.5791ZM34.6044 37.764C32.428 36.9591 31.7721 36.4224 31.7721 35.379C31.7721 34.2163 32.9348 33.3219 34.4851 33.3219C35.5882 33.3219 36.4826 33.7989 37.4366 34.8423L39.3446 32.3679C37.7645 30.9965 35.8863 30.2809 33.859 30.2809C30.5796 30.2809 28.0455 32.5766 28.0455 35.6473C28.0455 38.2112 29.2082 39.523 32.6367 40.7453C34.0379 41.2521 34.7832 41.5801 35.141 41.8186C35.4783 42.0168 35.7578 42.3001 35.9513 42.6402C36.1449 42.9803 36.2458 43.3652 36.2441 43.7564C36.2441 45.2471 35.0515 46.38 33.4118 46.38C31.6827 46.38 30.2815 45.4856 29.4467 43.8757L27.0617 46.1415C28.761 48.616 30.7883 49.719 33.5311 49.719C37.3173 49.719 39.9707 47.1849 39.9707 43.5776C39.9707 40.5963 38.7782 39.2547 34.6044 37.764ZM41.1334 39.9404C41.1212 41.2316 41.3681 42.5121 41.8593 43.7063C42.3505 44.9004 43.0762 45.984 43.9934 46.8928C44.9106 47.8017 46.0008 48.5175 47.1994 48.9978C48.398 49.4781 49.6807 49.7132 50.9717 49.6892C52.5518 49.6892 53.8934 49.3911 55.5331 48.5862V44.2931C54.1021 45.7837 52.7903 46.3502 51.1506 46.3502C47.4836 46.3502 44.8899 43.667 44.8899 39.9106C44.8899 36.333 47.573 33.5008 50.9717 33.5008C52.7307 33.5008 54.0425 34.097 55.5629 35.5877V31.3244C54.0678 30.5355 52.3945 30.1451 50.7046 30.191C49.0147 30.2368 47.3651 30.7174 45.9149 31.5863C44.4648 32.4552 43.263 33.6831 42.4254 35.1516C41.5879 36.6201 41.1429 38.2797 41.1334 39.9702V39.9404ZM84.422 43.1304L79.4432 30.5791H75.4482L83.3785 49.7489H85.3462L93.3957 30.5791H89.4604L84.422 43.1304ZM95.0652 49.2719H105.381V46.1117H98.7024V41.0733H105.142V37.8833H98.7024V33.7691H105.381V30.5791H95.0652V49.2719ZM119.78 36.0945C119.78 32.6064 117.395 30.5791 113.192 30.5791H107.795V49.2719H111.433V41.759H111.91L116.948 49.2719H121.42L115.547 41.4012C118.29 40.8348 119.78 38.9565 119.78 36.0945ZM112.476 39.195H111.433V33.5306H112.536C114.801 33.5306 116.054 34.4846 116.054 36.3032C116.054 38.1814 114.801 39.195 112.476 39.195Z" fill="white"/>
<path d="M66.6534 49.9278C72.1363 49.9278 76.5811 45.483 76.5811 40C76.5811 34.5171 72.1363 30.0723 66.6534 30.0723C61.1704 30.0723 56.7256 34.5171 56.7256 40C56.7256 45.483 61.1704 49.9278 66.6534 49.9278Z" fill="white"/>
<path d="M66.6534 49.9278C72.1363 49.9278 76.5811 45.483 76.5811 40C76.5811 34.5171 72.1363 30.0723 66.6534 30.0723C61.1704 30.0723 56.7256 34.5171 56.7256 40C56.7256 45.483 61.1704 49.9278 66.6534 49.9278Z" fill="white"/>
<path d="M122.106 31.2945C122.106 30.9666 121.897 30.7877 121.509 30.7877H120.973V32.4274H121.36V31.8013L121.808 32.4274H122.285L121.748 31.7417C121.987 31.6821 122.106 31.533 122.106 31.2945ZM121.42 31.5032H121.36V31.0858H121.42C121.629 31.0858 121.718 31.1455 121.718 31.2945C121.718 31.4436 121.629 31.5032 121.42 31.5032Z" fill="white"/>
<path d="M121.569 30.1915C121.195 30.1914 120.835 30.338 120.567 30.6C120.3 30.862 120.146 31.2183 120.138 31.5927C120.138 32.3976 120.794 33.0237 121.569 33.0237C121.949 33.0237 122.312 32.8729 122.581 32.6046C122.849 32.3362 123 31.9722 123 31.5927C123 31.2131 122.849 30.8492 122.581 30.5808C122.312 30.3124 121.949 30.1616 121.569 30.1616V30.1915ZM121.569 32.7852C121.416 32.7813 121.266 32.7474 121.126 32.6854C120.987 32.6233 120.861 32.5344 120.755 32.4237C120.65 32.3129 120.568 32.1825 120.513 32.0399C120.458 31.8974 120.432 31.7454 120.436 31.5927C120.436 30.9666 120.943 30.43 121.569 30.43C122.165 30.43 122.702 30.9666 122.702 31.6225C122.702 32.2486 122.195 32.7852 121.569 32.7852Z" fill="white"/>
</g>
</g>
</svg>
