<svg width="128" height="80" viewBox="0 0 128 80" fill="none" xmlns="http://www.w3.org/2000/svg">
<g id="payment methods / payment method-local bank deposit / white">
<g id="logo">
<path d="M78.622 40.2251C78.272 38.9251 77.782 37.6651 77.152 36.4751C76.832 35.8551 76.472 35.2551 76.062 34.6951C75.612 34.0751 75.102 33.5151 74.532 32.9951C74.172 33.7251 74.002 34.4551 73.832 35.1551C73.682 35.8551 73.622 36.5251 73.572 37.2051C72.952 37.0851 72.192 36.9951 71.302 36.9151C70.712 36.9151 70.092 36.8551 69.412 36.9151C68.722 36.9151 68.012 36.9551 67.322 37.0351C66.592 37.0951 65.852 37.2951 65.112 37.4151C64.382 37.6451 63.642 37.7951 62.902 38.1151C62.182 38.3851 61.492 38.7351 60.842 39.1451C60.552 39.3551 60.192 39.5251 59.932 39.7351L59.082 40.4351C58.492 40.8451 58.082 41.4051 57.662 41.8751C57.262 42.3051 56.902 42.7751 56.602 43.2851C56.312 43.7551 56.012 44.1651 55.872 44.5751L55.402 45.6051L55.022 46.4851L55.612 45.6951L56.232 44.8151C56.462 44.4651 56.882 44.1751 57.212 43.7851C57.592 43.3751 58.012 43.0151 58.482 42.7051C58.952 42.3551 59.422 41.9751 59.982 41.7051L60.832 41.2951C61.122 41.1451 61.422 41.0851 61.712 40.9651C62.322 40.7451 62.952 40.5951 63.602 40.4951C64.252 40.3451 64.902 40.3451 65.512 40.2851C66.162 40.3451 66.782 40.2851 67.402 40.3651C67.992 40.4251 68.572 40.5151 69.112 40.6551C69.672 40.7151 70.172 40.8851 70.642 41.0051L71.442 41.2651L71.232 41.4151C70.662 41.9851 70.132 42.5951 69.672 43.2651C69.442 43.6151 69.212 43.9651 68.992 44.3151C68.762 44.7051 68.572 45.1151 68.402 45.5451C68.852 45.5751 69.302 45.5751 69.752 45.5451C70.982 45.4751 72.202 45.2351 73.372 44.8451C74.822 44.3451 76.212 43.6551 77.492 42.7951L77.672 42.7151C78.062 42.4551 78.372 42.0751 78.542 41.6251C78.712 41.1751 78.742 40.6951 78.612 40.2351H78.642V40.2151L78.622 40.2251Z" fill="white"/>
<path d="M118.112 56.3851H81.822C81.3419 56.3851 80.8719 56.5751 80.532 56.9151C80.192 57.2551 80.002 57.7051 80.002 58.1951C80.002 58.6851 80.192 59.1351 80.532 59.4751C80.8719 59.8151 81.332 60.0051 81.822 60.0051H118.112C118.592 60.0051 119.062 59.8151 119.402 59.4751C119.742 59.1351 119.932 58.6851 119.932 58.1951C119.932 57.7051 119.742 57.2551 119.402 56.9151C119.062 56.5751 118.602 56.3851 118.112 56.3851Z" fill="white"/>
<path d="M119.742 28.9851C119.522 28.6051 119.172 28.3351 118.752 28.1951L100.742 20.1551C100.502 20.0451 100.252 19.9951 99.992 19.9951C99.7319 19.9951 99.472 20.0551 99.242 20.1551L81.0919 28.2651C80.712 28.4351 80.402 28.7351 80.212 29.0951C80.0219 29.4651 79.972 29.8851 80.052 30.2951C80.142 30.7051 80.362 31.0551 80.692 31.3251C81.022 31.5851 81.422 31.7251 81.8419 31.7251H118.132C118.572 31.7251 118.992 31.5951 119.332 31.3151C119.672 31.0351 119.902 30.6651 119.972 30.2351C120.042 29.8051 119.972 29.3751 119.742 28.9951V28.9851Z" fill="white"/>
<path d="M84.072 51.2551C83.5919 51.2551 83.1219 51.4451 82.782 51.7851C82.442 52.1251 82.252 52.5751 82.252 53.0651C82.252 53.5551 82.442 54.0051 82.782 54.3451C83.1219 54.6851 83.582 54.8751 84.072 54.8751H115.852C116.332 54.8751 116.802 54.6851 117.142 54.3451C117.482 54.0051 117.672 53.5551 117.672 53.0651C117.672 52.5751 117.482 52.1251 117.142 51.7851C116.802 51.4451 116.342 51.2551 115.852 51.2551H115.382V35.0451H115.852C116.092 35.0451 116.322 34.9451 116.492 34.7751C116.662 34.6051 116.762 34.3751 116.762 34.1451C116.762 33.9151 116.662 33.6751 116.492 33.5151C116.322 33.3451 116.092 33.2451 115.852 33.2451H84.102C83.862 33.2451 83.632 33.3451 83.462 33.5151C83.292 33.6851 83.192 33.9151 83.192 34.1451C83.192 34.3751 83.292 34.6151 83.462 34.7751C83.632 34.9351 83.862 35.0451 84.102 35.0451H84.542V51.2651H84.072V51.2551ZM106.342 35.0351H111.782V51.2551H106.342V35.0351ZM97.262 35.0351H102.712V51.2551H97.262V35.0351ZM88.192 35.0351H93.632V51.2551H88.192V35.0351Z" fill="white"/>
<path d="M49.382 33.2051L46.102 33.1851H12.682L44.952 19.9951L54.002 43.1051L49.382 44.8951V33.2051Z" fill="white"/>
<path d="M22.882 33.1851L22.852 33.2051H12.652L12.682 33.1851H22.882Z" fill="white"/>
<path d="M8.00195 35.3451V59.9951H47.242V35.3451H8.00195ZM40.952 53.3551C40.182 54.1451 39.612 55.1051 39.292 56.1751H16.192C15.882 55.1051 15.312 54.1351 14.542 53.3551C13.772 52.5651 12.812 51.9851 11.772 51.6751V43.4551C12.822 43.1351 13.772 42.5651 14.542 41.7751C15.312 40.9951 15.882 40.0251 16.202 38.9551H39.302C39.612 40.0251 40.182 40.9951 40.952 41.7751C41.722 42.5651 42.682 43.1451 43.722 43.4551V51.6751C42.672 51.9951 41.722 52.5651 40.952 53.3551Z" fill="white"/>
<path d="M27.742 52.3251C30.3377 52.3251 32.442 50.185 32.442 47.5451C32.442 44.9052 30.3377 42.7651 27.742 42.7651C25.1462 42.7651 23.042 44.9052 23.042 47.5451C23.042 50.185 25.1462 52.3251 27.742 52.3251Z" fill="white"/>
<path d="M17.402 46.5851C16.882 46.5851 16.462 47.0151 16.462 47.5451C16.462 48.0751 16.882 48.5051 17.402 48.5051C17.922 48.5051 18.342 48.0751 18.342 47.5451C18.342 47.0151 17.922 46.5851 17.402 46.5851Z" fill="white"/>
<path d="M38.082 46.5851C37.562 46.5851 37.142 47.0151 37.142 47.5451C37.142 48.0751 37.562 48.5051 38.082 48.5051C38.602 48.5051 39.022 48.0751 39.022 47.5451C39.022 47.0151 38.602 46.5851 38.082 46.5851Z" fill="white"/>
<path d="M49.362 44.9051V44.9151L49.162 44.9851L49.362 44.9051Z" fill="white"/>
</g>
</g>
</svg>
