<svg width="128" height="80" viewBox="0 0 128 80" fill="none" xmlns="http://www.w3.org/2000/svg">
<g id="payment methods / payment method-airtel / black">
<g id="logo">
<path fill-rule="evenodd" clip-rule="evenodd" d="M13.8008 54.6276C14.7759 54.6276 15.9071 54.3935 17.1943 53.945C19.1057 53.2818 20.6269 52.3652 22.1092 51.468L22.4993 51.2145C24.1316 50.219 25.6836 49.0974 27.141 47.8599C30.2237 45.4707 32.5585 42.2494 33.8697 38.5763C34.3573 37.1721 35.0399 34.4026 34.2013 31.8087C33.5841 29.9115 32.339 28.2811 30.6712 27.1864C30.4761 27.0303 28.3308 25.3726 24.2546 25.3726C20.5489 25.3726 16.4727 26.7378 12.1625 29.4683L12.026 29.5658L11.6359 29.8193C10.6384 30.4465 9.68684 31.1439 8.7884 31.9062C6.95508 33.603 4.88773 36.431 5.00475 38.8494C5.04376 39.8245 5.53134 40.7412 6.33098 41.3263C7.11111 41.9114 8.08628 42.2039 9.06145 42.1649C11.2848 42.1649 13.7032 40.9947 15.361 40.0196L15.6731 39.8245L16.5312 39.2784L16.8238 39.0834C19.1642 37.5622 21.6021 35.9824 24.3521 35.0657C24.9762 34.8512 25.6198 34.7342 26.2634 34.7147C26.5391 34.7181 26.8137 34.7508 27.0825 34.8122C27.8627 34.9682 28.5453 35.4753 28.8963 36.1774C29.54 37.4256 29.3839 39.3955 28.5063 41.2093C27.0375 44.0131 24.9821 46.4677 22.4797 48.406C21.2705 49.4397 19.9443 50.3563 18.5401 51.1365L18.4231 51.1755C17.838 51.507 17.2529 51.7996 16.6092 52.0336L16.5117 52.0726L16.0046 52.2677C13.2547 52.9698 14.932 50.6294 14.932 50.6294C15.5171 49.9663 16.1412 49.3617 16.8043 48.7766C17.1943 48.445 17.5844 48.094 17.955 47.7234L18.033 47.6454C18.5206 47.1773 19.1837 46.5337 19.1447 45.617C19.0862 44.4078 17.8184 43.6667 16.6092 43.6277H16.5312C15.361 43.6277 14.2883 44.2713 13.5667 44.8369C12.7866 45.4415 12.143 46.1631 11.5969 46.9823C10.8558 48.094 9.31499 50.961 10.8167 53.2428C11.4214 54.1595 12.4355 54.6276 13.8008 54.6276Z" fill="black"/>
<path fill-rule="evenodd" clip-rule="evenodd" d="M91.19 28.7271L86.1582 29.5268V47.4894C86.1582 51.5265 88.5376 53.4184 92.5553 53.4184C93.5304 53.4184 94.4276 53.2428 94.4276 53.2428V50.2588L93.706 50.2393C91.5996 50.1613 91.1705 49.0301 91.1705 47.7039V37.5817H94.4276V34.032H91.19V28.7271ZM122.259 50.2198C120.211 50.0833 119.782 49.1861 119.782 47.7234V28.7076L114.867 29.5268V47.4113C114.867 51.6436 117.208 53.4574 121.108 53.4574C121.966 53.4574 123 53.2623 123 53.2623V50.2393H122.259V50.2198ZM73.0714 53.2819H78.0643V38.4008C78.7274 37.7767 80.1121 37.2306 81.4189 37.1721C82.6476 37.1331 83.4472 37.3671 83.4472 37.3671L84.8124 34.3246C84.2859 34.0515 82.9986 33.7395 81.5164 33.7395C79.371 33.7395 76.0554 34.3636 73.0714 37.4646V53.2819ZM101.41 41.1898H106.715C106.715 39.766 106.403 37.4256 104.218 37.4256C102.268 37.4256 101.488 39.3565 101.41 41.2093V41.1898ZM110.576 48.5815L111.942 51.39C111.942 51.39 110.381 52.5017 108.255 53.1453C107.163 53.4769 105.935 53.6524 104.784 53.6524C102.639 53.6524 100.805 53.0673 99.479 51.9751C98.378 50.9636 97.5109 49.7241 96.9383 48.343C96.3657 46.9619 96.1012 45.4725 96.1634 43.9788C96.2024 39.0639 98.4453 33.837 104.218 33.837C109.387 33.837 111.747 36.9575 111.844 43.7642V44.2323H101.254C101.156 46.2801 101.546 48.211 102.424 49.1471C103.009 49.7907 103.926 50.2198 105.271 50.2198C107.156 50.2069 108.995 49.6369 110.557 48.5815H110.576ZM55.5574 43.9592H53.5681C51.1107 43.9592 50.194 45.578 50.155 47.0213C50.116 48.7766 51.0131 50.2588 52.983 50.2588C53.8757 50.2888 54.7595 50.0729 55.5379 49.6347V43.9592H55.5574ZM60.5308 50.5904C58.2785 52.6452 55.3079 53.7312 52.2614 53.6134C48.0096 53.6134 44.9671 50.4929 44.9671 46.9043C45.0451 43.1206 47.9511 40.7022 52.6319 40.7022H55.5574V39.727C55.5574 38.0302 54.8163 37.2306 53.022 37.1526C51.5592 37.0941 49.9405 37.5426 48.3997 38.2253L47.6586 38.5763L46.3518 35.6898L46.9369 35.3778C48.9764 34.2967 51.2408 33.7089 53.5486 33.6615C56.9422 33.6615 60.5698 35.3193 60.5698 40.2926L60.5308 50.5904ZM64.2169 53.2623H69.1123V34.032L64.2169 34.8122V53.2623ZM68.9562 27.2644C69.5413 27.8495 69.8339 28.6296 69.8144 29.4293C69.8144 31.1455 68.4491 32.4913 66.6938 32.4913C64.9385 32.4913 63.5733 31.126 63.5733 29.4098C63.5733 27.7325 64.997 26.3477 66.7328 26.3477C67.591 26.3477 68.3711 26.6793 68.9562 27.2644Z" fill="black"/>
</g>
</g>
</svg>
