<svg width="128" height="80" viewBox="0 0 128 80" fill="none" xmlns="http://www.w3.org/2000/svg">
<g id="payment methods / payment method-orange / black">
<g id="logo">
<path d="M54.8785 65.0843C54.1997 65.0843 53.8227 64.5258 53.8218 63.9283C53.8233 62.8754 54.862 62.3138 57.0505 62.0363V64.1451C56.3325 64.7773 55.6168 65.0843 54.8785 65.0843Z" fill="black"/>
<path d="M84.7245 59.0582C85.8421 59.0582 86.5195 59.7582 86.5195 60.9503H82.9183C83.0063 59.7356 83.6679 59.0582 84.7245 59.0582Z" fill="black"/>
<path d="M37.8026 62.1311C37.8026 61.0022 38.1277 59.4217 39.8775 59.4217C41.6273 59.4217 41.9525 60.9909 41.9525 62.1311C41.9525 63.2713 41.6273 64.8518 39.8775 64.8518C38.1277 64.8518 37.8026 63.26 37.8026 62.1311Z" fill="black"/>
<path d="M76.9034 61.666C76.9034 62.8491 76.7544 64.6576 74.9753 64.6712C73.2548 64.6825 73.178 62.8649 73.178 61.7631C73.178 59.7559 74.1173 59.1418 74.9595 59.1418C76.2261 59.1418 76.9034 60.2752 76.9034 61.666Z" fill="black"/>
<path fill-rule="evenodd" clip-rule="evenodd" d="M96 8.00002H32V72H96V8.00002ZM54.1718 66.6851C55.2165 66.689 56.2385 66.3808 57.1069 65.8001L57.3214 66.5835H59.3986V60.1262C59.3986 58.4893 58.1071 57.4845 55.7861 57.4845C54.0852 57.483 52.8193 58.0625 51.9885 59.2231L53.5689 60.1262C53.825 59.7974 54.1548 59.5335 54.5317 59.3558C54.9087 59.1781 55.3221 59.0916 55.7387 59.1034C56.6463 59.1034 57.1385 59.4782 57.1385 60.1262V60.6206C53.3612 61.0474 51.5279 62.104 51.5279 64.0977C51.5279 65.5788 52.51 66.6851 54.1718 66.6851ZM63.1872 57.6448L61.2477 57.9135V66.579H63.5733V60.1894C64.368 59.5233 65.0657 59.2005 65.7656 59.2005C66.6101 59.2005 66.8945 59.6904 66.8945 60.7809V66.5745H69.2359V60.3723C69.2359 58.4464 68.2921 57.4733 66.4588 57.4733C65.3637 57.4733 64.4945 57.9 63.3995 58.7015L63.1872 57.6448ZM80.5701 62.1266C80.5701 65.0572 82.1371 66.7438 84.7629 66.7438C86.594 66.7438 87.9532 66.08 88.7095 64.8202L86.9914 63.8674C86.4427 64.6396 85.8579 64.9963 84.9706 64.9963C83.5911 64.9963 82.8912 64.1451 82.8731 62.4585H88.8044C88.8044 62.3873 88.8088 62.314 88.8132 62.2395C88.8178 62.1628 88.8224 62.0849 88.8224 62.0069C88.8224 59.1102 87.2984 57.4733 84.7245 57.4733C82.1506 57.4733 80.5701 59.196 80.5701 62.1266ZM35.4703 62.1402C35.4703 65.3643 37.5588 66.8409 39.8775 66.8409C42.1941 66.8409 44.2848 65.3688 44.2848 62.1469C44.2848 58.925 42.1963 57.4462 39.8775 57.4462C37.5588 57.4462 35.4703 58.916 35.4703 62.1402ZM48.1208 57.6719H45.8924V66.579H48.2811V60.6545C48.6288 59.862 49.7442 59.704 50.7647 59.704H50.8776V57.5049C50.7773 57.4917 50.6762 57.4864 50.5751 57.4891C50.1036 57.5154 49.6425 57.6382 49.2204 57.8498C48.7982 58.0615 48.424 58.3575 48.1208 58.7196V57.6719ZM79.1567 66.0778V57.6448L77.1834 57.6494L77.0001 58.6672C76.8181 58.231 76.1436 57.4823 74.4311 57.4823C72.5368 57.4845 70.8502 59.1508 70.8502 62.1289C70.8502 65.1408 72.4872 66.5813 74.5621 66.5813C75.9235 66.5813 76.4903 65.9491 76.8628 65.2853L76.8944 65.3169V66.3532C76.8944 67.7463 76.3051 68.3288 75.0882 68.3288C73.7764 68.3288 73.5099 67.8908 73.4129 67.4528L71.0986 67.8253C71.4237 69.3561 73.0471 70.0448 74.7969 70.0448C79.0438 70.0177 79.1567 67.5679 79.1567 66.0778ZM88.8224 54.6894H89.7436V54.2965H87.4136V54.6894H88.3348V57.2407H88.8224V54.6894ZM93.0965 57.2407H93.5819V54.3055H92.8391L91.9743 56.5408L91.0961 54.3055H90.3465V57.2407H90.8319V54.7819H90.8454L91.8095 57.2407H92.1166L93.0807 54.7819H93.0965V57.2407Z" fill="black"/>
</g>
</g>
</svg>
