<svg width="128" height="80" viewBox="0 0 128 80" fill="none" xmlns="http://www.w3.org/2000/svg">
<g id="payment methods / payment method-local bank deposit / brand">
<g id="logo">
<path d="M78.6171 40.2292C78.2698 38.9326 77.7818 37.6733 77.1435 36.4792C76.8244 35.8542 76.4677 35.2572 76.0547 34.6975C75.6042 34.0818 75.0974 33.5128 74.5248 32.9998C74.1682 33.7274 73.9992 34.4643 73.8209 35.1639C73.6707 35.8636 73.6144 36.5352 73.5581 37.2162C72.9386 37.0949 72.1783 37.011 71.2867 36.927C70.6953 36.927 70.0759 36.871 69.4001 36.927C68.7055 36.927 68.0016 36.9643 67.307 37.0483C66.5749 37.1042 65.8334 37.3095 65.1013 37.4307C64.3692 37.6639 63.6277 37.8132 62.8956 38.1304C62.1729 38.4009 61.4877 38.746 60.8307 39.1565C60.5397 39.3617 60.183 39.5389 59.9202 39.7442L59.0661 40.4438C58.4748 40.8542 58.0618 41.4139 57.6488 41.8804C57.2452 42.3095 56.8885 42.7759 56.5882 43.2889C56.2972 43.7554 55.9969 44.1658 55.8561 44.5762L55.3868 45.6024L55.002 46.4792L55.5933 45.6863L56.2127 44.8095C56.4474 44.455 56.8604 44.1658 57.1889 43.7833C57.5643 43.3729 57.9867 43.0091 58.456 42.7012C58.9253 42.3468 59.3946 41.9736 59.9578 41.7031L60.8119 41.2927C61.1029 41.1434 61.4032 41.0874 61.6942 40.9662C62.3043 40.7423 62.9331 40.593 63.5808 40.4998C64.2284 40.3505 64.876 40.3505 65.4955 40.2945C66.1431 40.3505 66.7626 40.2945 67.3821 40.3785C67.9734 40.4345 68.5553 40.5277 69.0903 40.6677C69.6535 40.7236 70.151 40.9009 70.6203 41.0221L71.4181 41.2833L71.2116 41.4326C70.639 42.0016 70.1134 42.6173 69.6535 43.2796C69.4188 43.6248 69.1936 43.9792 68.9777 44.3337C68.7524 44.7255 68.5553 45.136 68.3864 45.5651C68.8369 45.593 69.2874 45.593 69.738 45.5651C70.9675 45.4904 72.1877 45.2572 73.361 44.8654C74.8158 44.3617 76.2049 43.6714 77.4814 42.8132L77.6598 42.7292C78.054 42.468 78.3637 42.0856 78.5327 41.6378C78.7016 41.1901 78.7579 40.705 78.6265 40.2479L78.6171 40.2292Z" fill="#1789E1"/>
<path d="M118.107 56.3943H81.817C81.3383 56.3943 80.8696 56.5825 80.5305 56.9193C80.1914 57.2561 80.002 57.7118 80.002 58.1972C80.002 58.6825 80.1914 59.1382 80.5305 59.475C80.8696 59.8118 81.3283 60 81.817 60H118.107C118.586 60 119.055 59.8118 119.394 59.475C119.733 59.1382 119.922 58.6825 119.922 58.1972C119.922 57.7118 119.733 57.2561 119.394 56.9193C119.055 56.5825 118.596 56.3943 118.107 56.3943Z" fill="#1789E1"/>
<path d="M119.743 28.9943C119.523 28.6179 119.174 28.3405 118.755 28.2018L100.745 20.1583C100.506 20.0493 100.256 19.9998 99.997 19.9998C99.7377 19.9998 99.4785 20.0592 99.2491 20.1583L81.099 28.2712C80.72 28.4396 80.4109 28.7368 80.2214 29.1033C80.0319 29.4698 79.9821 29.8957 80.0619 30.3019C80.1516 30.708 80.371 31.0646 80.7001 31.3321C81.0292 31.5897 81.4281 31.7283 81.8469 31.7283H118.137C118.576 31.7382 118.995 31.5996 119.334 31.3222C119.673 31.0448 119.902 30.6684 119.972 30.2424C120.042 29.8165 119.972 29.3806 119.743 29.0042V28.9943Z" fill="#1789E1"/>
<path d="M84.0709 51.2647C83.5922 51.2647 83.1235 51.4529 82.7844 51.7897C82.4453 52.1265 82.2559 52.5822 82.2559 53.0675C82.2559 53.5529 82.4453 54.0086 82.7844 54.3454C83.1235 54.6822 83.5822 54.8704 84.0709 54.8704H115.853C116.332 54.8704 116.801 54.6822 117.14 54.3454C117.479 54.0086 117.668 53.5529 117.668 53.0675C117.668 52.5822 117.479 52.1265 117.14 51.7897C116.801 51.4529 116.342 51.2647 115.853 51.2647H115.385V35.0487H115.853C116.093 35.0487 116.322 34.9497 116.492 34.7813C116.661 34.6129 116.761 34.385 116.761 34.1473C116.761 33.9095 116.661 33.6817 116.492 33.5133C116.322 33.3449 116.093 33.2458 115.853 33.2458H84.1008C83.8614 33.2458 83.6321 33.3449 83.4625 33.5133C83.293 33.6817 83.1933 33.9095 83.1933 34.1473C83.1933 34.385 83.293 34.6129 83.4625 34.7813C83.6321 34.9497 83.8614 35.0487 84.1008 35.0487H84.5396V51.2647H84.0709ZM106.34 35.0487H111.785V51.2647H106.34V35.0487ZM97.2646 35.0487H102.71V51.2647H97.2646V35.0487ZM88.1895 35.0487H93.6346V51.2647H88.1895V35.0487Z" fill="#1789E1"/>
<path d="M47.4809 35.1194V45.6457L54.002 43.1098L44.9547 19.9998L8.00195 35.1074" fill="#6F9935"/>
<path d="M49.3607 44.916V33.1935H12.6782L9.88175 34.3418V35.1074H47.4807V45.6337L49.3607 44.916Z" fill="#658B30"/>
<path d="M46.8346 35.1193L44.6021 29.27L44.4964 29.0188C43.4074 29.1191 42.3109 28.942 41.3059 28.5035C40.3008 28.065 39.4187 27.3789 38.739 26.5068L38.504 26.6025L18.3416 35.1073H46.8346V35.1193Z" fill="#AAC16B"/>
<path d="M22.877 33.2054L18.3416 35.1193L46.8346 35.1193L46.0943 33.2054H22.877Z" fill="#89B140"/>
<path d="M8.00195 35.1194L47.4809 35.1194V59.9998H8.00195V35.1194Z" fill="#79A73A"/>
<path d="M11.7619 43.4446C12.8084 43.1271 13.761 42.5499 14.5342 41.7649C15.3074 40.9798 15.8769 40.0115 16.1915 38.947H39.2914C39.6043 40.0137 40.1731 40.9845 40.9464 41.7717C41.7196 42.5589 42.6732 43.138 43.721 43.4565V51.6743C42.6745 51.9917 41.7219 52.5689 40.9487 53.354C40.1755 54.139 39.606 55.1073 39.2914 56.1719H16.1915C15.8786 55.1051 15.3098 54.1344 14.5365 53.3471C13.7633 52.5599 12.8097 51.9809 11.7619 51.6623V43.4446Z" fill="#AAC16B"/>
<path d="M27.7414 52.3322C30.337 52.3322 32.4412 50.19 32.4412 47.5475C32.4412 44.905 30.337 42.7628 27.7414 42.7628C25.1457 42.7628 23.0415 44.905 23.0415 47.5475C23.0415 50.19 25.1457 52.3322 27.7414 52.3322Z" fill="#79A73A"/>
<path d="M17.4016 48.5046C17.9207 48.5046 18.3416 48.0761 18.3416 47.5476C18.3416 47.0191 17.9207 46.5907 17.4016 46.5907C16.8825 46.5907 16.4616 47.0191 16.4616 47.5476C16.4616 48.0761 16.8825 48.5046 17.4016 48.5046Z" fill="#79A73A"/>
<path d="M38.081 48.5046C38.6002 48.5046 39.021 48.0761 39.021 47.5476C39.021 47.0191 38.6002 46.5907 38.081 46.5907C37.5619 46.5907 37.141 47.0191 37.141 47.5476C37.141 48.0761 37.5619 48.5046 38.081 48.5046Z" fill="#79A73A"/>
</g>
</g>
</svg>
