<svg width="128" height="80" viewBox="0 0 128 80" fill="none" xmlns="http://www.w3.org/2000/svg">
<g id="payment methods / payment method-1voucher / white">
<path id="logo" d="M50.6498 10.5929C49.45 10.7569 48.3113 11.36 47.5131 12.2594C46.7888 13.0763 46.3436 14.1005 46.2414 15.1849C46.2202 15.3991 46.2148 19.3218 46.2202 28.5692L46.2308 41.6493L46.2867 41.9403C46.4819 43.0294 47.0269 44.0263 47.8398 44.7817C48.6528 45.537 49.69 46.0101 50.7961 46.1302C50.9744 46.1513 55.1407 46.1593 64.1437 46.1593C75.6901 46.1593 77.2704 46.154 77.5471 46.1196C78.6828 45.977 79.7379 45.4608 80.5445 44.6532C81.3511 43.8455 81.8627 42.7928 81.998 41.6626C82.0193 41.4774 82.0246 37.88 82.0193 28.1857L82.0113 14.96L81.9395 14.6426C81.7215 13.6 81.183 12.6504 80.3985 11.9254C79.614 11.2003 78.6222 10.7356 77.5604 10.5956C77.297 10.5586 75.6235 10.5559 64.0851 10.5559C53.2464 10.5586 50.8653 10.5638 50.6498 10.5929ZM63.4785 16.2588C63.5291 16.2773 64.7502 17.0708 66.1922 18.0204C69.2065 19.999 69.1427 19.9514 69.3848 20.4487C69.6242 20.946 69.6029 19.8562 69.5949 31.0556L69.587 40.9854L69.5205 41.1124C69.4369 41.2711 69.3028 41.3979 69.1392 41.473C68.9756 41.5482 68.7916 41.5674 68.6159 41.5277C68.5015 41.5012 67.9481 41.1468 65.6122 39.6047C64.0372 38.5625 62.7044 37.6764 62.6511 37.634C62.59 37.5891 62.5181 37.4859 62.4649 37.3801L62.3771 37.2029V27.035C62.3771 17.301 62.3798 16.8592 62.425 16.727C62.463 16.6273 62.5205 16.5361 62.5942 16.4587C62.6678 16.3813 62.7562 16.3191 62.8542 16.2758C62.9521 16.2325 63.0577 16.209 63.1649 16.2065C63.2721 16.204 63.3787 16.2227 63.4785 16.2614V16.2588ZM60.7649 18.2955C60.8394 18.3432 60.9059 18.4119 60.9458 18.486L61.007 18.6024V21.6549C61.007 24.6095 61.0043 24.71 60.9564 24.8052C60.8899 24.9322 60.7782 25.0353 60.5175 25.2073C59.9694 25.5696 59.8976 25.5776 59.3814 25.3236L56.9498 24.1439C55.8084 23.5911 54.8454 23.1123 54.8134 23.0859C54.7308 23.0019 54.6757 22.8951 54.6553 22.7795C54.6349 22.6638 54.6501 22.5447 54.699 22.4378C54.7469 22.3399 55.0316 22.1204 57.4739 20.2979C58.4013 19.5956 59.3397 18.9078 60.2887 18.2347C60.4217 18.1818 60.6212 18.2083 60.7649 18.2955ZM24 53.2667C24 53.2852 29.5284 68.6878 29.6588 69.0317L29.7014 69.1428L30.8986 69.1375L32.0958 69.1295L34.9398 61.2471C36.5042 56.9117 37.7892 53.3382 37.7971 53.3038L37.8131 53.2456H35.5331L33.3143 59.6256C30.8906 66.5902 30.9145 66.5294 30.9012 66.5162C30.8906 66.5082 26.2614 53.2747 26.2614 53.2562C26.2614 53.2509 25.7532 53.2456 25.1307 53.2456C24.5081 53.2456 24 53.2561 24 53.2667ZM73.9368 61.1942V69.1454H75.9056V66.003C75.9056 64.0192 75.9162 62.7521 75.9348 62.5591C76.0785 60.9984 76.7915 59.9668 78.0206 59.5595C78.4915 59.4008 79.2444 59.3399 79.7792 59.414C81.0908 59.5939 81.9075 60.472 82.0512 61.8475C82.0672 62.0168 82.0778 63.387 82.0778 65.63V69.1481H84.0466V65.4846C84.0466 63.1965 84.0359 61.7205 84.02 61.5513C83.9808 61.142 83.896 60.7384 83.7672 60.3477C83.1686 58.5385 81.6601 57.5069 79.6169 57.5069C78.1031 57.5069 76.9431 58.0491 76.129 59.1363L75.9189 59.4166L75.9109 56.3324L75.9056 53.2482H73.9368V61.1942ZM42.2507 57.5227C41.0665 57.6311 39.9401 58.0816 39.0103 58.8188C38.3938 59.3161 37.8828 59.9301 37.5069 60.6253C37.131 61.3205 36.8978 62.083 36.8208 62.8685C36.7835 63.2415 36.8021 64.0615 36.8607 64.4186C37.0577 65.69 37.6655 66.8631 38.5923 67.7607C39.5191 68.6583 40.7145 69.2316 41.998 69.3941C42.5285 69.4518 43.0636 69.4527 43.5943 69.3967C44.9485 69.2115 46.151 68.6217 47.0901 67.6879C47.799 66.9794 48.3161 66.104 48.5933 65.1433C49.0038 63.7056 48.8674 62.168 48.2102 60.8239C47.9121 60.2096 47.5047 59.654 47.0076 59.1839C46.5649 58.7497 46.0524 58.3921 45.4912 58.1258C44.6422 57.706 43.7043 57.4947 42.7562 57.5095C42.5301 57.5095 42.3013 57.5174 42.2507 57.5227ZM43.134 59.4352C44.145 59.5198 44.9697 59.8928 45.6721 60.5858C46.2627 61.1677 46.6059 61.8184 46.7788 62.6675C46.856 63.0537 46.864 63.834 46.7948 64.2096C46.6299 65.0825 46.2574 65.7993 45.6535 66.3918C45.1514 66.8697 44.5359 67.2137 43.8642 67.3918C43.1926 67.5698 42.4866 67.5761 41.8118 67.4102C39.9388 66.9685 38.6884 65.2729 38.7735 63.297C38.8214 62.2125 39.2072 61.3185 39.9468 60.5831C40.6412 59.8954 41.4473 59.5251 42.4343 59.4352C42.7642 59.4087 42.7908 59.4087 43.134 59.4352ZM66.9212 57.5439C65.5916 57.6973 64.3523 58.2896 63.4014 59.2262C61.6109 61.0169 61.164 63.8657 62.3106 66.1961C63.1912 67.9868 64.87 69.1507 66.9531 69.4099C67.431 69.4518 67.9117 69.4527 68.3898 69.4126C69.4965 69.2803 70.5181 68.865 71.3828 68.1985C71.7428 67.9062 72.0701 67.5763 72.3592 67.2145C72.5906 66.9129 72.8274 66.5267 72.8008 66.5003C72.7875 66.4871 72.415 66.2675 71.9681 66.0109C71.1779 65.5533 71.1566 65.5454 71.1167 65.5983L70.9438 65.8575C70.7815 66.1141 70.2468 66.6511 69.9807 66.8256C69.5384 67.1177 69.0447 67.3241 68.5254 67.434C68.2966 67.4816 68.1743 67.4896 67.698 67.4896C66.7726 67.5147 65.8681 67.2136 65.1446 66.6394C64.421 66.0653 63.9251 65.2552 63.7446 64.3524C63.6692 63.8775 63.6513 63.3953 63.6914 62.9161C63.7634 62.3136 63.973 61.7354 64.304 61.2256C64.6351 60.7159 65.0789 60.288 65.6016 59.9748C66.1135 59.6837 66.6813 59.5031 67.268 59.4448C67.8548 59.3865 68.4473 59.4517 69.007 59.6362C69.5147 59.8007 69.9779 60.0785 70.3612 60.4482C70.6069 60.6737 70.8145 60.9372 70.9757 61.2286L71.0795 61.419L71.8883 60.9535C72.3352 60.6995 72.705 60.4853 72.7103 60.48C72.7343 60.4562 72.572 60.1626 72.3804 59.8743C71.561 58.6522 70.2734 57.856 68.6824 57.5836C68.2621 57.5122 67.3522 57.4936 66.9212 57.5465V57.5439ZM90.6445 57.5333C88.1038 57.8084 86.1802 59.4431 85.563 61.8528C85.4238 62.3801 85.3585 62.9239 85.3688 63.469C85.3661 64.2466 85.4593 64.8471 85.6881 65.5242C86.3186 67.4155 87.8084 68.7645 89.8038 69.2486C90.8467 69.5051 92.0492 69.5078 93.0788 69.2618C94.0968 69.029 95.0281 68.5156 95.7659 67.7805C96.0106 67.5425 96.5002 66.9447 96.4975 66.8944C96.4975 66.8865 96.1809 66.7093 95.7978 66.4897C95.4147 66.2781 95.0396 66.0665 94.9624 66.0215L94.8241 65.9422L94.7123 66.1035C94.2521 66.778 93.4007 67.3097 92.4722 67.5054C91.8533 67.6177 91.2194 67.6212 90.5993 67.516C88.9445 67.2303 87.7712 66.1353 87.4147 64.5455L87.3774 64.3815H96.9711L96.995 64.1752C97.0258 63.6667 97.0205 63.1567 96.979 62.649C96.8577 61.7665 96.5611 60.9168 96.1064 60.1493C95.7645 59.6116 95.343 59.1283 94.856 58.7157C94.1086 58.1157 93.2161 57.7208 92.2674 57.5703C91.9667 57.5174 90.9797 57.4963 90.6445 57.5333ZM92.1743 59.4378C93.6907 59.7579 94.7336 60.9058 95.0183 62.5617L95.0369 62.6622H91.2032C87.5637 62.6622 87.3695 62.6622 87.3801 62.6146L87.4386 62.358C87.5855 61.6259 87.9518 60.9551 88.4893 60.4339C89.0269 59.9127 89.7105 59.5654 90.4503 59.4378C90.86 59.3611 90.8733 59.3611 91.416 59.369C91.7938 59.377 91.9694 59.3902 92.1743 59.4352V59.4378ZM103.532 57.6127C102.17 57.7343 101.161 58.3692 100.555 59.4934L100.435 59.7129V57.7978H98.4662V69.1454H100.432L100.443 65.8311C100.454 62.2363 100.446 62.4189 100.6 61.8713C100.972 60.5382 102.092 59.7182 103.636 59.6574L104 59.6415V57.5862L103.888 57.5889C103.824 57.5915 103.665 57.6021 103.532 57.6153V57.6127ZM50.1044 61.6359C50.1151 65.466 50.1151 65.4793 50.1736 65.7967C50.2907 66.4315 50.4583 66.9262 50.711 67.3785C51.1952 68.2514 52.0067 68.9126 52.9724 69.2168C53.8237 69.4866 54.9092 69.5184 55.7978 69.2988C56.6651 69.0872 57.4473 68.5714 57.9687 67.8731L58.1789 67.5927L58.2374 67.516V68.3281L58.2401 69.1428H60.2088V57.7952H58.2401V60.9349C58.2401 62.8394 58.2295 64.1911 58.2135 64.3683C58.0805 65.8178 57.4925 66.7807 56.4416 67.27C55.9495 67.4975 55.2072 67.6139 54.5873 67.561C53.7626 67.4869 53.1427 67.1933 52.6984 66.6696C52.4775 66.3789 52.3092 66.0522 52.2009 65.7041C52.0705 65.228 52.0678 65.1566 52.0678 61.3502V57.7978H50.0964L50.1044 61.6359Z" fill="white"/>
</g>
</svg>
