<svg width="128" height="80" viewBox="0 0 128 80" fill="none" xmlns="http://www.w3.org/2000/svg">
<g id="payment methods / payment method-xrp / white">
<g id="logo">
<path d="M38.2455 23.5212H43.8785L32.1545 35.3727C27.9097 39.6647 21.0349 39.6647 16.7901 35.3727L5.07083 23.5212H10.7038L19.6089 32.5255C22.2531 35.2122 26.5782 35.2452 29.2648 32.6011C29.2884 32.5775 29.3168 32.5491 29.3404 32.5255L38.2455 23.5212ZM10.633 56.4787H5L16.7948 44.5517C21.0396 40.2597 27.9144 40.2597 32.1592 44.5517L43.9493 56.4787H38.3163L29.3404 47.4036C26.6962 44.7169 22.3711 44.6839 19.6845 47.328C19.6609 47.3517 19.6325 47.38 19.6089 47.4036L10.633 56.4787Z" fill="white"/>
<path d="M112.504 23.5213C113.944 23.5496 115.294 23.8329 116.55 24.3712C117.83 24.8764 118.953 25.5799 119.912 26.477C120.88 27.3789 121.635 28.4413 122.178 29.6595C122.726 30.8588 123 32.1289 123 33.4699C123 34.8392 122.712 36.1424 122.131 37.37C121.588 38.5646 120.814 39.6222 119.822 40.5477C118.859 41.4448 117.716 42.1625 116.413 42.6961H116.409C115.119 43.206 113.736 43.461 112.263 43.461H99.9676V56.3654H95.6425V23.5213H112.504ZM112.263 39.4806C113.132 39.4806 113.953 39.3248 114.732 39.0131C115.521 38.7015 116.205 38.2718 116.791 37.7241C117.376 37.1811 117.844 36.5343 118.174 35.8071C118.51 35.0847 118.675 34.3056 118.675 33.4699C118.675 32.6625 118.51 31.8975 118.174 31.1751C117.844 30.4527 117.372 29.8011 116.791 29.2581C116.205 28.7104 115.521 28.2854 114.732 27.9691C113.953 27.6575 113.132 27.5016 112.263 27.5016H99.9676V39.4806H112.263Z" fill="white"/>
<path d="M64.2194 43.5318C66.3867 43.5318 68.4406 44.4478 69.8005 46.0249L78.7339 56.3701H84.2961L72.0763 42.0303C70.7165 40.4344 68.6531 39.5042 66.467 39.5042H58.0009V27.5536H70.2963C71.1651 27.5536 71.9866 27.7094 72.7657 28.021C73.5542 28.3374 74.2389 28.7671 74.8244 29.3101L74.8338 29.3195C75.4146 29.8342 75.8726 30.4527 76.2078 31.1846C76.5431 31.907 76.7083 32.6861 76.7083 33.5265C76.7083 34.3623 76.5383 35.1414 76.2078 35.8638C76.0048 36.284 75.7593 36.6806 75.4665 37.0442L78.2807 40.1841C78.3137 40.1464 78.3515 40.1086 78.3845 40.0708C79.2155 39.1737 79.8577 38.1774 80.3063 37.0725C80.7879 35.9582 81.0287 34.7731 81.0287 33.5218C81.0287 32.1808 80.7548 30.906 80.2071 29.7067C79.6641 28.4838 78.9086 27.4214 77.9407 26.5195C76.9775 25.6224 75.8584 24.9094 74.5836 24.3712C73.3229 23.8329 71.9725 23.5496 70.5276 23.5213H55.829C55.234 23.5213 54.7147 23.7432 54.2897 24.1445C53.8789 24.527 53.6664 24.9991 53.6664 25.5374V56.3654H57.9915V43.5318H64.2194Z" fill="white"/>
</g>
</g>
</svg>
