<svg width="128" height="80" viewBox="0 0 128 80" fill="none" xmlns="http://www.w3.org/2000/svg">
<g id="payment methods / payment method-airtel / brand">
<g id="logo">
<path fill-rule="evenodd" clip-rule="evenodd" d="M13.801 54.6276C14.7762 54.6276 15.9074 54.3935 17.1946 53.945C19.1059 53.2818 20.6272 52.3652 22.1094 51.468L22.4995 51.2145C24.1319 50.219 25.6839 49.0974 27.1413 47.8599C30.224 45.4707 32.5587 42.2494 33.8699 38.5763C34.3575 37.1721 35.0401 34.4026 34.2015 31.8087C33.5844 29.9115 32.3393 28.2811 30.6714 27.1864C30.4764 27.0303 28.331 25.3726 24.2548 25.3726C20.5492 25.3726 16.473 26.7378 12.1627 29.4683L12.0262 29.5658L11.6361 29.8193C10.6387 30.4465 9.68708 31.1439 8.78864 31.9062C6.95533 33.603 4.88797 36.431 5.00499 38.8494C5.044 39.8245 5.53158 40.7412 6.33122 41.3263C7.11135 41.9114 8.08652 42.2039 9.06169 42.1649C11.2851 42.1649 13.7035 40.9947 15.3613 40.0196L15.6733 39.8245L16.5315 39.2784L16.824 39.0834C19.1644 37.5622 21.6023 35.9824 24.3523 35.0657C24.9764 34.8512 25.62 34.7342 26.2636 34.7147C26.5394 34.7181 26.8139 34.7508 27.0828 34.8122C27.8629 34.9682 28.5455 35.4753 28.8966 36.1774C29.5402 37.4256 29.3842 39.3955 28.5065 41.2093C27.0378 44.0131 24.9823 46.4677 22.48 48.406C21.2708 49.4397 19.9446 50.3563 18.5403 51.1365L18.4233 51.1755C17.8382 51.507 17.2531 51.7996 16.6095 52.0336L16.512 52.0726L16.0049 52.2677C13.2549 52.9698 14.9322 50.6294 14.9322 50.6294C15.5173 49.9663 16.1414 49.3617 16.8045 48.7766C17.1946 48.445 17.5847 48.094 17.9552 47.7234L18.0332 47.6454C18.5208 47.1773 19.1839 46.5337 19.1449 45.617C19.0864 44.4078 17.8187 43.6667 16.6095 43.6277H16.5315C15.3613 43.6277 14.2886 44.2713 13.567 44.8369C12.7868 45.4415 12.1432 46.1631 11.5971 46.9823C10.856 48.094 9.31523 50.961 10.817 53.2428C11.4216 54.1595 12.4358 54.6276 13.801 54.6276Z" fill="#E40000"/>
<path fill-rule="evenodd" clip-rule="evenodd" d="M91.1903 28.7271L86.1584 29.5268V47.4894C86.1584 51.5265 88.5378 53.4184 92.5555 53.4184C93.5307 53.4184 94.4278 53.2428 94.4278 53.2428V50.2588L93.7062 50.2393C91.5999 50.1613 91.1708 49.0301 91.1708 47.7039V37.5817H94.4278V34.032H91.1903V28.7271ZM122.259 50.2198C120.211 50.0833 119.782 49.1861 119.782 47.7234V28.7076L114.867 29.5268V47.4113C114.867 51.6436 117.208 53.4574 121.108 53.4574C121.967 53.4574 123 53.2623 123 53.2623V50.2393H122.259V50.2198ZM73.0717 53.2819H78.0645V38.4008C78.7277 37.7767 80.1124 37.2306 81.4191 37.1721C82.6478 37.1331 83.4475 37.3671 83.4475 37.3671L84.8127 34.3246C84.2861 34.0515 82.9989 33.7395 81.5166 33.7395C79.3713 33.7395 76.0557 34.3636 73.0717 37.4646V53.2819ZM101.41 41.1898H106.715C106.715 39.766 106.403 37.4256 104.219 37.4256C102.268 37.4256 101.488 39.3565 101.41 41.2093V41.1898ZM110.577 48.5815L111.942 51.39C111.942 51.39 110.382 52.5017 108.256 53.1453C107.164 53.4769 105.935 53.6524 104.784 53.6524C102.639 53.6524 100.805 53.0673 99.4792 51.9751C98.3782 50.9636 97.5112 49.7241 96.9385 48.343C96.3659 46.9619 96.1015 45.4725 96.1636 43.9788C96.2027 39.0639 98.4455 33.837 104.219 33.837C109.387 33.837 111.747 36.9575 111.844 43.7642V44.2323H101.254C101.157 46.2801 101.547 48.211 102.424 49.1471C103.009 49.7907 103.926 50.2198 105.272 50.2198C107.157 50.2069 108.995 49.6369 110.557 48.5815H110.577ZM55.5577 43.9592H53.5683C51.1109 43.9592 50.1943 45.578 50.1552 47.0213C50.1162 48.7766 51.0134 50.2588 52.9832 50.2588C53.876 50.2888 54.7598 50.0729 55.5382 49.6347V43.9592H55.5577ZM60.531 50.5904C58.2787 52.6452 55.3082 53.7312 52.2616 53.6134C48.0099 53.6134 44.9674 50.4929 44.9674 46.9043C45.0454 43.1206 47.9514 40.7022 52.6322 40.7022H55.5577V39.727C55.5577 38.0302 54.8165 37.2306 53.0222 37.1526C51.5595 37.0941 49.9407 37.5426 48.3999 38.2253L47.6588 38.5763L46.3521 35.6898L46.9372 35.3778C48.9766 34.2967 51.2411 33.7089 53.5488 33.6615C56.9424 33.6615 60.57 35.3193 60.57 40.2926L60.531 50.5904ZM64.2172 53.2623H69.1125V34.032L64.2172 34.8122V53.2623ZM68.9565 27.2644C69.5416 27.8495 69.8341 28.6296 69.8146 29.4293C69.8146 31.1455 68.4494 32.4913 66.6941 32.4913C64.9388 32.4913 63.5736 31.126 63.5736 29.4098C63.5736 27.7325 64.9973 26.3477 66.7331 26.3477C67.5912 26.3477 68.3714 26.6793 68.9565 27.2644Z" fill="#E40000"/>
</g>
</g>
</svg>
