<svg width="128" height="80" viewBox="0 0 128 80" fill="none" xmlns="http://www.w3.org/2000/svg">
<g id="payment methods / payment method-local bank deposit / black">
<g id="logo">
<path d="M78.6221 40.225C78.2721 38.925 77.7821 37.665 77.1521 36.475C76.8321 35.855 76.4721 35.255 76.0621 34.695C75.6121 34.075 75.1021 33.515 74.5321 32.995C74.1721 33.725 74.0021 34.455 73.8321 35.155C73.6821 35.855 73.6221 36.525 73.5721 37.205C72.9521 37.085 72.1921 36.995 71.3021 36.915C70.7121 36.915 70.0921 36.855 69.4121 36.915C68.7221 36.915 68.0121 36.955 67.3221 37.035C66.5921 37.095 65.8521 37.295 65.1121 37.415C64.3821 37.645 63.6421 37.795 62.9021 38.115C62.1821 38.385 61.4921 38.735 60.8421 39.145C60.5521 39.355 60.1921 39.525 59.9321 39.735L59.0821 40.435C58.4921 40.845 58.0821 41.405 57.6621 41.875C57.2621 42.305 56.9021 42.775 56.6021 43.285C56.3121 43.755 56.0121 44.165 55.8721 44.575L55.4021 45.605L55.0221 46.485L55.6121 45.695L56.2321 44.815C56.4621 44.465 56.8821 44.175 57.2121 43.785C57.5921 43.375 58.0121 43.015 58.4821 42.705C58.9521 42.355 59.4221 41.975 59.9821 41.705L60.8321 41.295C61.1221 41.145 61.4221 41.085 61.7121 40.965C62.3221 40.745 62.9521 40.595 63.6021 40.495C64.2521 40.345 64.9021 40.345 65.5121 40.285C66.1621 40.345 66.7821 40.285 67.4021 40.365C67.9921 40.425 68.5721 40.515 69.1121 40.655C69.6721 40.715 70.1721 40.885 70.6421 41.005L71.4421 41.265L71.2321 41.415C70.6621 41.985 70.1321 42.595 69.6721 43.265C69.4421 43.615 69.2121 43.965 68.9921 44.315C68.7621 44.705 68.5721 45.115 68.4021 45.545C68.8521 45.575 69.3021 45.575 69.7521 45.545C70.9821 45.475 72.2021 45.235 73.3721 44.845C74.8221 44.345 76.2121 43.655 77.4921 42.795L77.6721 42.715C78.0621 42.455 78.3721 42.075 78.5421 41.625C78.7121 41.175 78.7421 40.695 78.6121 40.235H78.6421V40.215L78.6221 40.225Z" fill="black"/>
<path d="M118.112 56.385H81.8221C81.3421 56.385 80.8721 56.575 80.5321 56.915C80.1921 57.255 80.0021 57.705 80.0021 58.195C80.0021 58.685 80.1921 59.135 80.5321 59.475C80.8721 59.815 81.3321 60.005 81.8221 60.005H118.112C118.592 60.005 119.062 59.815 119.402 59.475C119.742 59.135 119.932 58.685 119.932 58.195C119.932 57.705 119.742 57.255 119.402 56.915C119.062 56.575 118.602 56.385 118.112 56.385Z" fill="black"/>
<path d="M119.742 28.985C119.522 28.605 119.172 28.335 118.752 28.195L100.742 20.155C100.502 20.045 100.252 19.995 99.9921 19.995C99.7321 19.995 99.4721 20.055 99.2421 20.155L81.0921 28.265C80.7121 28.435 80.4021 28.735 80.2121 29.095C80.0221 29.465 79.9721 29.885 80.0521 30.295C80.1421 30.705 80.3621 31.055 80.6921 31.325C81.0221 31.585 81.4221 31.725 81.8421 31.725H118.132C118.572 31.725 118.992 31.595 119.332 31.315C119.672 31.035 119.902 30.665 119.972 30.235C120.042 29.805 119.972 29.375 119.742 28.995V28.985Z" fill="black"/>
<path d="M84.0721 51.255C83.5921 51.255 83.1221 51.445 82.7821 51.785C82.4421 52.125 82.2521 52.575 82.2521 53.065C82.2521 53.555 82.4421 54.005 82.7821 54.345C83.1221 54.685 83.5821 54.875 84.0721 54.875H115.852C116.332 54.875 116.802 54.685 117.142 54.345C117.482 54.005 117.672 53.555 117.672 53.065C117.672 52.575 117.482 52.125 117.142 51.785C116.802 51.445 116.342 51.255 115.852 51.255H115.382V35.045H115.852C116.092 35.045 116.322 34.945 116.492 34.775C116.662 34.605 116.762 34.375 116.762 34.145C116.762 33.915 116.662 33.675 116.492 33.515C116.322 33.345 116.092 33.245 115.852 33.245H84.1021C83.8621 33.245 83.6321 33.345 83.4621 33.515C83.2921 33.685 83.1921 33.915 83.1921 34.145C83.1921 34.375 83.2921 34.615 83.4621 34.775C83.6321 34.935 83.8621 35.045 84.1021 35.045H84.5421V51.265H84.0721V51.255ZM106.342 35.035H111.782V51.255H106.342V35.035ZM97.2621 35.035H102.712V51.255H97.2621V35.035ZM88.1921 35.035H93.6321V51.255H88.1921V35.035Z" fill="black"/>
<path d="M49.3821 33.205L46.1021 33.185H12.6821L44.9521 19.995L54.0021 43.105L49.3821 44.895V33.205Z" fill="black"/>
<path d="M22.8821 33.185L22.8521 33.205H12.6521L12.6821 33.185H22.8821Z" fill="black"/>
<path d="M8.00208 35.345V59.995H47.2421V35.345H8.00208ZM40.9521 53.355C40.1821 54.145 39.6121 55.105 39.2921 56.175H16.1921C15.8821 55.105 15.3121 54.135 14.5421 53.355C13.7721 52.565 12.8121 51.985 11.7721 51.675V43.455C12.8221 43.135 13.7721 42.565 14.5421 41.775C15.3121 40.995 15.8821 40.025 16.2021 38.955H39.3021C39.6121 40.025 40.1821 40.995 40.9521 41.775C41.7221 42.565 42.6821 43.145 43.7221 43.455V51.675C42.6721 51.995 41.7221 52.565 40.9521 53.355Z" fill="black"/>
<path d="M27.7421 52.325C30.3378 52.325 32.4421 50.1849 32.4421 47.545C32.4421 44.9051 30.3378 42.765 27.7421 42.765C25.1463 42.765 23.0421 44.9051 23.0421 47.545C23.0421 50.1849 25.1463 52.325 27.7421 52.325Z" fill="black"/>
<path d="M17.4021 46.585C16.8821 46.585 16.4621 47.015 16.4621 47.545C16.4621 48.075 16.8821 48.505 17.4021 48.505C17.9221 48.505 18.3421 48.075 18.3421 47.545C18.3421 47.015 17.9221 46.585 17.4021 46.585Z" fill="black"/>
<path d="M38.0821 46.585C37.5621 46.585 37.1421 47.015 37.1421 47.545C37.1421 48.075 37.5621 48.505 38.0821 48.505C38.6021 48.505 39.0221 48.075 39.0221 47.545C39.0221 47.015 38.6021 46.585 38.0821 46.585Z" fill="black"/>
<path d="M49.3621 44.905V44.915L49.1621 44.985L49.3621 44.905Z" fill="black"/>
</g>
</g>
</svg>
