<svg width="128" height="80" viewBox="0 0 128 80" fill="none" xmlns="http://www.w3.org/2000/svg">
<g id="payment methods / payment method-zamtel by astropay / brand-dark">
<g id="logo">
<path d="M63.9999 55.481C77.1386 55.481 87.7896 44.852 87.7896 31.7405C87.7896 18.629 77.1386 8 63.9999 8C50.8613 8 40.2102 18.629 40.2102 31.7405C40.2102 44.852 50.8613 55.481 63.9999 55.481Z" fill="#22B24C"/>
<path fill-rule="evenodd" clip-rule="evenodd" d="M68.6044 30.7665H69.7653V35.8235C69.7653 36.463 70.2868 36.9943 70.9361 36.9943H72.1954V30.7665H73.3859V28.9168H72.1954V26.2407H70.9361C70.2966 26.2407 69.7653 26.7622 69.7653 27.4115V28.9168H68.6044V30.7665ZM77.4788 37.2403C79.2792 37.2403 80.8239 36.0793 81.424 34.4461H78.925C78.561 34.8888 78.0297 35.1643 77.4591 35.1643C76.5933 35.1643 75.8456 34.5445 75.5701 33.6787H81.6306C81.67 33.4327 81.6897 33.1868 81.6897 32.931C81.6897 30.55 79.8007 28.6118 77.4788 28.6118C75.1569 28.6118 73.2679 30.5402 73.2679 32.931C73.2679 35.3217 75.147 37.2403 77.4788 37.2403ZM75.5996 32.0061H79.2891C78.9742 31.2092 78.2658 30.6484 77.4394 30.6484C76.6228 30.6484 75.9144 31.1994 75.5996 32.0061ZM62.7701 30.0581C63.0456 29.7334 63.3506 29.3596 63.7638 29.0841C64.2557 28.7692 64.9051 28.6118 65.5151 28.6118C66.1152 28.6217 66.676 28.7988 67.1384 29.1234C67.6008 29.4481 67.9649 29.94 68.1616 30.4516C68.3289 30.8944 68.3682 31.3568 68.3486 31.829L68.3584 36.9943H65.9381V32.134C65.9381 32.0061 65.9184 31.8881 65.8791 31.77C65.82 31.5929 65.7413 31.4257 65.6331 31.2978C65.2297 30.8058 64.4131 30.796 63.9409 31.1403C63.7736 31.2682 63.6457 31.4453 63.5572 31.6323C63.4686 31.7995 63.4293 31.9668 63.4293 32.1636V37.0041H60.9401V32.134C60.9401 32.0258 60.9303 31.9373 60.9008 31.829C60.8319 31.5732 60.7237 31.3273 60.5367 31.16C60.153 30.8157 59.4151 30.8255 58.9921 31.1403C58.7363 31.3273 58.5985 31.6421 58.4903 31.9274C58.4411 32.0553 58.4214 32.1734 58.4214 32.3111V37.0041H56.0012V36.1679C55.3124 36.8566 54.4073 37.2698 53.4136 37.2698C52.3018 37.2698 51.2983 36.7483 50.5899 35.9121C50.5407 36.5122 50.039 36.9746 49.429 36.9746H43.3389V35.3119C43.3389 35.2627 43.3487 35.2233 43.3783 35.184L47.7269 28.6118H45.1492C44.5097 28.6118 43.9784 28.0904 43.9784 27.441V26.2014H50.7769V28.3757C50.7769 28.4249 50.767 28.4642 50.7375 28.5036L46.6447 34.5642H49.8127C49.6257 34.0526 49.5274 33.5016 49.5274 32.9211C49.5274 30.5303 51.2688 28.5823 53.4136 28.5823C54.3975 28.5823 55.2928 28.9857 55.9815 29.6646C55.9913 29.4087 56.0012 29.1529 56.0012 28.8971H58.264V29.7531C58.4805 29.4875 58.7264 29.212 59.0118 29.0152C59.484 28.7004 60.0645 28.6118 60.5761 28.6217C61.0877 28.6315 61.5206 28.7496 61.9043 29.0349C62.2683 29.3005 62.593 29.7236 62.7701 30.0581ZM54.0433 34.9577C55.155 34.9577 56.0602 34.0526 56.0602 32.931C56.0602 31.8094 55.155 30.9042 54.0433 30.9042C52.9315 30.9042 52.0264 31.8094 52.0264 32.931C52.0264 34.0526 52.9315 34.9577 54.0433 34.9577ZM82.1718 36.9943H84.6806V26.2112H83.3426C82.703 26.2112 82.1718 26.7327 82.1718 27.382V36.9943Z" fill="white"/>
<path fill-rule="evenodd" clip-rule="evenodd" d="M37.8383 69.4826L38.8098 63.8567H40.3917C40.6201 63.8609 40.836 63.8941 41.0394 63.948C41.2429 64.002 41.4172 64.0851 41.5667 64.2013C41.712 64.3176 41.8241 64.467 41.8947 64.6497C41.9653 64.8283 41.9861 65.0483 41.957 65.3057C41.9279 65.5673 41.8449 65.7915 41.7079 65.9701C41.575 66.1486 41.4048 66.2897 41.1972 66.3977C41.082 66.4565 40.9615 66.5072 40.835 66.5485C41.008 66.592 41.1578 66.6641 41.2885 66.7714C41.4505 66.9001 41.5709 67.062 41.6456 67.253C41.7203 67.444 41.7452 67.6557 41.7203 67.8841C41.683 68.2329 41.5667 68.5235 41.3757 68.7602C41.1889 68.9968 40.9481 69.1795 40.6616 69.2999C40.3751 69.4203 40.0679 69.4826 39.7357 69.4826H37.8383ZM40.0138 66.3769C40.2504 66.3769 40.4747 66.3396 40.6823 66.2648C40.894 66.1901 41.0725 66.0738 41.2137 65.9161C41.359 65.7583 41.4545 65.5507 41.4919 65.2974C41.5334 65.0441 41.5043 64.8448 41.4088 64.6954C41.3175 64.5459 41.1763 64.438 40.9936 64.3757C40.8151 64.3092 40.6117 64.2719 40.3875 64.2677H39.2125L38.8464 66.3769H40.0138ZM39.7356 69.0757C39.9889 69.0757 40.2214 69.0259 40.4331 68.9345C40.6449 68.8432 40.8276 68.7103 40.9687 68.5359C41.1141 68.3574 41.2096 68.1415 41.2511 67.8882C41.2884 67.6516 41.2635 67.4564 41.1846 67.2945C41.1058 67.1284 40.9812 67.0039 40.8151 66.9208C40.649 66.8336 40.4539 66.788 40.2297 66.7797H40.2255H38.7765L38.378 69.0757H39.7356Z" fill="white"/>
<path d="M45.6315 65.3057H46.1339L43.5887 70.1552C43.5223 70.2881 43.4475 70.4126 43.3645 70.533C43.2815 70.6576 43.1901 70.7656 43.0863 70.8611C42.9825 70.9607 42.8663 71.0354 42.7334 71.0894C42.6047 71.1475 42.4594 71.1766 42.2975 71.1766C42.2393 71.1766 42.1771 71.1683 42.1148 71.1558C42.0525 71.1475 41.9944 71.1351 41.9363 71.1226L41.9653 70.7323L41.9756 70.7335C42.0102 70.7373 42.0476 70.7414 42.0816 70.749C42.1189 70.7573 42.1521 70.7614 42.1895 70.7614C42.3639 70.7656 42.5134 70.7365 42.6379 70.6659C42.7625 70.5995 42.8746 70.5081 42.9659 70.3919C43.0614 70.2756 43.1445 70.1469 43.215 70.0058L43.5234 69.4121L42.7085 65.3016H43.186L43.845 68.7974L45.6315 65.3057Z" fill="white"/>
<path fill-rule="evenodd" clip-rule="evenodd" d="M76.1014 61.2573C77.1293 61.2573 77.9249 61.4945 78.4459 61.9618C78.9388 62.4013 79.2134 63.0431 79.2204 63.7755C79.2204 64.5289 78.9951 65.1428 78.5445 65.6032C77.9672 66.1961 77.0589 66.524 75.9887 66.524C75.8198 66.524 75.6508 66.517 75.4889 66.503V69.4886H73.9047V61.4456L74.1511 61.4038C74.7566 61.3061 75.4114 61.2573 76.1014 61.2573ZM76.0099 65.1358C76.6154 65.1358 77.6292 64.9684 77.6292 63.8243C77.6292 62.8338 76.8055 62.6245 76.1296 62.6245C75.862 62.6245 75.6508 62.6315 75.4959 62.6524V65.1079C75.6367 65.1288 75.8057 65.1358 76.0099 65.1358Z" fill="white"/>
<path fill-rule="evenodd" clip-rule="evenodd" d="M47.9316 69.4887L50.7479 61.3132H52.3532L55.1765 69.4887H53.4867L52.67 67.103H50.3818L49.5862 69.4887H47.9316ZM51.4097 63.943L50.7901 65.7427H52.2687L51.6561 63.9639C51.6252 63.8807 51.5998 63.8003 51.5747 63.7208C51.5599 63.6737 51.5451 63.627 51.5294 63.5803C51.5031 63.6689 51.4728 63.7575 51.4416 63.8491C51.4311 63.88 51.4204 63.9113 51.4097 63.943Z" fill="white"/>
<path d="M57.1127 65.108C57.1127 65.3243 57.1972 65.4638 57.9576 65.7637C58.6546 66.0219 59.591 66.5032 59.591 67.6681C59.591 68.8261 58.6475 69.6074 57.2465 69.6074C56.6339 69.6074 56.0143 69.4539 55.5496 69.1819L55.3455 69.0633L55.7679 67.7449L56.0918 67.9332C56.3593 68.0936 56.8311 68.275 57.2676 68.275C57.5492 68.275 58.0209 68.2122 58.0209 67.7658C58.0209 67.5286 57.9576 67.3333 57.2042 67.0543C56.4438 66.7822 55.5426 66.2451 55.5426 65.2336C55.5426 64.1314 56.4649 63.3362 57.7393 63.3362C58.3096 63.3362 58.8728 63.4757 59.246 63.7199L59.4431 63.8454L59.0137 65.1429L58.6898 64.9406C58.5208 64.836 58.1688 64.6616 57.7252 64.6616C57.345 64.6616 57.1127 64.829 57.1127 65.108Z" fill="white"/>
<path d="M62.0764 62.0386L60.4993 62.5129V63.4477H59.6473V64.794H60.4993V67.4657C60.4993 68.2121 60.6471 68.7422 60.9639 69.098C61.2737 69.4259 61.7314 69.6142 62.2665 69.6142C62.7452 69.6142 63.0902 69.5166 63.2522 69.4607L63.4634 69.391L63.3789 68.0377L63.0128 68.1423C62.9072 68.1702 62.7804 68.1981 62.5199 68.1981C62.3298 68.1981 62.0693 68.1981 62.0693 67.4378V64.794H63.4986V63.4477H62.0764V62.0386Z" fill="white"/>
<path d="M67.0611 63.3501L67.3498 63.392L67.3568 64.9615L66.9907 64.8848C66.9203 64.8708 66.8428 64.8708 66.7161 64.8708C66.181 64.8708 65.7867 65.2615 65.667 65.8893C65.653 65.9939 65.6389 66.1474 65.6389 66.2939V69.4888H64.0406V65.4428C64.0406 64.7592 64.0195 64.2291 63.9914 63.7617L63.9702 63.4478H65.4488L65.4699 63.8872C65.8219 63.5315 66.2796 63.3292 66.7795 63.3292C66.8921 63.3292 66.9766 63.3362 67.0611 63.3501Z" fill="white"/>
<path fill-rule="evenodd" clip-rule="evenodd" d="M70.2576 63.3362C68.4763 63.3362 67.2301 64.6407 67.2301 66.5171C67.2301 68.3448 68.434 69.6144 70.166 69.6144C71.6305 69.6144 73.2006 68.6168 73.2006 66.4264C73.2076 64.6058 71.9966 63.3362 70.2576 63.3362ZM71.5883 66.4613C71.5883 67.5147 71.0109 68.282 70.2224 68.282C69.4338 68.282 68.8635 67.5216 68.8635 66.4892C68.8635 65.8196 69.1522 64.6825 70.2435 64.6825C71.3066 64.6686 71.5883 65.8405 71.5883 66.4613Z" fill="white"/>
<path fill-rule="evenodd" clip-rule="evenodd" d="M84.0714 67.8844V65.8475C84.0714 64.2221 83.2194 63.3362 81.6846 63.3362C80.9735 63.3362 80.2271 63.5315 79.7132 63.8524L79.509 63.978L79.9385 65.2336L80.2624 65.0173C80.5933 64.7941 81.072 64.6616 81.5367 64.6616C81.8606 64.6546 82.0929 64.7313 82.2478 64.8778C82.3746 65.0034 82.452 65.1917 82.4802 65.4289C81.234 65.4638 80.3257 65.7568 79.7625 66.3079C79.3752 66.6915 79.1781 67.1728 79.1781 67.7518C79.1781 68.6796 79.854 69.6144 81.1636 69.6144C81.7198 69.6144 82.2408 69.44 82.6491 69.133L82.6914 69.4958H84.2051L84.1488 69.154C84.0995 68.8191 84.0714 68.3936 84.0714 67.8844ZM81.41 68.289C81.1706 68.289 80.7763 68.2053 80.7763 67.6402C80.7763 67.424 80.8397 67.2496 80.9805 67.117C81.1636 66.9357 81.579 66.7264 82.5083 66.7124V67.3612C82.5083 67.41 82.5013 67.4937 82.4802 67.5774C82.3675 67.9053 82.0225 68.289 81.41 68.289Z" fill="white"/>
<path d="M87.3101 66.8449L88.4718 63.4478H90.1616L88.507 67.7309C87.8311 69.4887 87.3172 70.57 86.5427 71.2536C85.895 71.7907 85.3317 71.9233 85.1698 71.9512L84.9093 72L84.5009 70.6467L84.7825 70.556C84.9163 70.5211 85.2402 70.4026 85.557 70.1305L85.564 70.1235C85.8457 69.9003 86.1273 69.5236 86.3174 69.126C86.3207 69.1178 86.3244 69.1083 86.3284 69.0984C86.3411 69.0663 86.3559 69.0287 86.3667 69.0074C86.3667 68.9935 86.3526 68.9516 86.3174 68.8819L86.3103 68.8679L84.1277 63.4478H85.8668L87.1341 66.8589C87.1693 66.9356 87.1975 67.0193 87.2256 67.103C87.2397 67.0611 87.2538 67.0176 87.2679 66.974C87.282 66.9304 87.296 66.8868 87.3101 66.8449Z" fill="white"/>
<path d="M53.7613 63.5593C54.7892 62.5199 56.5353 61.8991 58.4293 61.8991C59.1686 61.8991 59.8867 61.9898 60.5696 62.1781L60.626 62.1921L61.837 61.8293L61.2948 61.6201C60.2599 61.2294 59.07 61.0201 57.8449 61.0201C56.0636 61.0201 54.402 61.4457 53.1699 62.22L53.0361 62.3037L53.5501 63.7895L53.7613 63.5593Z" fill="#20D5B3"/>
</g>
</g>
</svg>
