<svg width="128" height="80" viewBox="0 0 128 80" fill="none" xmlns="http://www.w3.org/2000/svg">
<g id="payment methods / payment method-tigo / white">
<g id="logo">
<path d="M86.7081 12.5802C90.0519 10.9232 94.0686 10.8656 97.5275 12.2072C99.5239 13.001 101.427 14.2313 102.665 16.0194C103.681 17.5593 103.479 19.4684 103.449 21.2188C102.413 20.1174 101.377 18.9882 100.097 18.1587C97.5553 16.4044 94.3563 15.7356 91.3061 16.0829C87.5812 16.3607 83.9357 18.1626 81.7012 21.1969C81.7329 19.7105 81.4571 18.1349 82.0941 16.7338C82.9415 14.7574 84.8466 13.4973 86.7081 12.5802Z" fill="white"/>
<path d="M44.9602 15.5689C46.7363 15.1244 48.7327 16.2555 49.2011 18.0396C49.8837 20.159 48.0778 22.5702 45.8612 22.5464C43.9362 22.6615 42.2335 20.9032 42.2633 19.0021C42.2335 17.4085 43.4163 15.9301 44.9602 15.5689Z" fill="white"/>
<path d="M27.4748 19.0596C28.2607 18.6548 29.1715 18.7739 30.0229 18.7639C30.0149 20.5996 30.011 22.4353 30.0229 24.2709C32.823 24.263 35.6212 24.2669 38.4213 24.2689C38.3776 25.285 38.4947 26.311 38.3399 27.3191C38.0105 28.7479 36.5162 29.5953 35.123 29.6172C33.4223 29.641 31.7216 29.633 30.0209 29.6191C30.011 32.8955 30.0189 36.1719 30.0189 39.4484C30.0169 40.7264 30.3583 42.1631 31.4795 42.9192C32.6127 43.6733 34.0474 43.5424 35.3394 43.461C36.415 43.3975 37.4469 43.0661 38.4153 42.6077C38.3399 44.0425 38.6872 45.6142 37.8775 46.9061C37.1016 48.1782 35.5576 48.6763 34.1506 48.8231C32.2158 48.9779 30.2074 48.7795 28.4194 47.9876C26.675 47.2415 25.3057 45.7134 24.6687 43.9353C24.1408 42.5025 23.9801 40.9625 24.0019 39.4444C24.0019 34.6796 24.0039 29.9148 24.0019 25.15C24.0218 23.9375 24.1587 22.6555 24.8612 21.6256C25.5478 20.6135 26.3655 19.6252 27.4748 19.0596Z" fill="white"/>
<path d="M91.7249 23.7549C94.2055 23.6061 96.7655 24.1638 98.8452 25.5549C101.751 27.4858 103.511 30.8277 103.902 34.251C104.219 37.3765 103.793 40.6549 102.249 43.4273C100.865 45.9635 98.4523 47.9321 95.6462 48.6644C92.2349 49.5772 88.3314 49.2557 85.4043 47.1561C82.6776 45.2649 81.0602 42.0818 80.6256 38.8411C80.2584 35.7314 80.6911 32.4709 82.1536 29.6787C83.1399 27.7855 84.664 26.1562 86.5572 25.152C88.1369 24.2848 89.9349 23.8641 91.7249 23.7549ZM90.6096 29.2957C89.401 29.5914 88.381 30.4546 87.7817 31.5302C86.8172 33.1992 86.7001 35.1857 86.7914 37.067C86.8807 38.8431 87.2717 40.7164 88.4524 42.1056C89.7305 43.588 91.8836 43.979 93.7352 43.6257C95.1799 43.332 96.3646 42.2425 96.9659 40.9228C97.7558 39.2301 97.8351 37.3031 97.6982 35.4694C97.5375 33.6715 97.0771 31.7465 95.7157 30.4645C94.3881 29.1748 92.3579 28.9246 90.6096 29.2957Z" fill="white"/>
<path d="M64.4857 24.7553C67.0099 23.9615 69.7366 23.648 72.3522 24.1282C74.1938 24.4874 76.089 25.4559 76.9443 27.2082C77.6111 28.4525 77.3432 29.9051 77.3928 31.2546C77.1468 31.2565 76.9007 31.2585 76.6546 31.2605C74.6086 29.7404 71.989 29.2284 69.4866 29.2006C67.131 29.1589 64.6861 30.0936 63.2017 31.969C62.0189 33.3661 61.5446 35.2553 61.6419 37.0592C61.7034 39.0596 62.2114 41.2068 63.6978 42.6456C65.2874 44.2689 67.7025 44.7075 69.8875 44.6142C70.713 44.5626 71.8581 44.3364 71.9712 43.3401C72.0764 41.1572 72.0446 38.9465 71.5465 36.8072C72.7094 36.8389 73.8743 36.7715 75.0353 36.8449C76.5236 36.9858 77.9465 38.2638 77.8453 39.8355C77.7481 42.0086 78.1747 44.3225 77.2321 46.3665C76.3867 48.2121 74.4081 49.1924 72.507 49.5754C68.8555 50.2839 64.8925 49.9565 61.62 48.093C58.8239 46.565 56.6648 43.8978 55.869 40.802C54.9779 37.3728 55.353 33.5546 57.1649 30.4806C58.7525 27.7239 61.4772 25.7178 64.4857 24.7553Z" fill="white"/>
<path d="M42.803 24.803C44.212 24.8526 45.7421 24.6343 47.0082 25.3983C48.2485 26.0889 48.8141 27.5594 48.8161 28.9228C48.8379 32.1635 48.8181 35.4041 48.828 38.6468C48.8399 39.6986 48.7585 40.7623 48.9451 41.8041C49.0522 42.459 49.4114 43.1159 50.0286 43.4156C51.1419 44.0069 52.4497 43.868 53.6662 43.8779C53.6503 45.146 53.8011 46.5372 53.0887 47.6584C52.5231 48.5395 51.4039 48.7896 50.4255 48.8273C48.4351 48.9007 46.2759 48.4641 44.8114 47.0194C43.2773 45.531 42.7991 43.2985 42.803 41.2306C42.8011 35.7554 42.7991 30.2782 42.803 24.803Z" fill="white"/>
<path d="M61.9058 53.3458C63.7038 55.6379 65.7299 57.8089 68.2304 59.3429C71.2468 61.252 74.8547 62.151 78.4129 62.024C83.1201 61.9565 87.8432 60.2935 91.3835 57.1521C92.6893 56.0884 93.6737 54.7131 94.6917 53.3875C94.7155 55.3323 94.91 57.3465 94.2194 59.21C93.374 61.9625 91.1454 63.9966 88.8096 65.5366C85.5769 67.656 81.7071 68.8884 77.8255 68.7217C72.8305 68.5391 67.8534 66.4197 64.4738 62.7027C63.5252 61.6708 62.7155 60.484 62.3305 59.1227C61.6776 57.2691 61.8463 55.2727 61.9058 53.3458Z" fill="white"/>
</g>
</g>
</svg>
