<svg width="120" height="152" viewBox="0 0 120 152" fill="none" xmlns="http://www.w3.org/2000/svg">
<g id="illustration / light / regulated">
<g id="illustration">
<path d="M60.8385 92.3226C60.2105 93.3452 59.2926 94.5219 57.963 95.5686C54.0509 98.6477 49.5319 98.2757 48.3255 98.1767C42.477 97.6972 38.859 93.8487 37.6229 92.5333C36.6116 91.4584 34.3613 89.0031 33.3628 85.0258C33.0389 83.7359 32.2709 80.4942 33.5226 76.6655C33.8946 75.5283 35.2708 71.5214 39.2735 69.158C40.0613 68.6926 40.8618 68.3447 41.6581 68.0901C40.7472 69.5497 40.3017 70.858 40.1136 71.4337C38.8619 75.2624 39.6299 78.5042 39.9538 79.7941C40.9523 83.7727 43.204 86.2266 44.2139 87.3016C45.4515 88.6183 49.068 92.4654 54.9165 92.9463C55.7467 93.0142 58.1469 93.2108 60.8385 92.3226Z" fill="#CED0D6"/>
<path d="M49.7951 98.5204C49.3071 98.5204 48.8107 98.4992 48.3029 98.4582C42.3441 97.9702 38.6342 94.0227 37.4164 92.7272C36.5169 91.771 34.1266 89.2294 33.0885 85.0952C32.807 83.975 31.9513 80.5635 33.2539 76.5778C34.3656 73.1777 36.3981 70.5271 39.1293 68.9147C39.8959 68.4621 40.7176 68.0944 41.5719 67.8214C41.685 67.7847 41.8081 67.8228 41.8816 67.9176C41.9552 68.0124 41.9608 68.1411 41.8986 68.2415C40.9679 69.7323 40.5281 71.0802 40.3824 71.5229C39.1307 75.353 39.9567 78.6456 40.2282 79.7262C41.2282 83.7119 43.5478 86.18 44.4204 87.1093C49.1996 92.1939 53.5205 92.549 54.9406 92.6663C55.727 92.73 58.1144 92.9252 60.7508 92.0553C60.864 92.0186 60.987 92.0553 61.062 92.1487C61.1355 92.242 61.144 92.3707 61.0818 92.4726C60.2897 93.7625 59.2997 94.8798 58.1399 95.7921C55.8345 97.6068 53.0326 98.5219 49.7979 98.5219L49.7951 98.5204ZM41.0203 68.6177C40.4644 68.837 39.9284 69.1 39.4178 69.4013C36.8054 70.943 34.8607 73.486 33.7914 76.7532C32.5383 80.5833 33.3657 83.8746 33.6372 84.9566C34.64 88.948 36.9568 91.4118 37.8294 92.3396C42.6086 97.4243 46.9295 97.7779 48.3496 97.8953C52.0765 98.2008 55.2517 97.3437 57.7891 95.3466C58.7 94.6295 59.5005 93.7795 60.178 92.8148C57.741 93.4612 55.6336 93.2901 54.8953 93.2293C48.9365 92.7399 45.228 88.7924 44.0089 87.4968C43.1079 86.5378 40.7162 83.992 39.6809 79.8648C39.3994 78.7447 38.5437 75.3332 39.8463 71.3475C39.9736 70.9571 40.3244 69.885 41.0217 68.6191L41.0203 68.6177Z" fill="black"/>
<path d="M61.9563 90.0301C61.7866 90.4714 61.4523 91.3226 60.8385 92.3226C58.1469 93.2108 55.7467 93.0142 54.9165 92.9463C49.068 92.4654 45.4515 88.6183 44.2139 87.3016C43.204 86.2266 40.9523 83.7727 39.9538 79.7941C39.6299 78.5042 38.8619 75.2624 40.1136 71.4337C40.3017 70.858 40.7472 69.5497 41.6581 68.0901C46.4656 66.5597 51.1236 68.492 52.2127 68.9446C59.3765 71.9176 61.6282 78.9046 62.0101 80.1804C62.5065 81.8366 63.6083 85.7219 61.9563 90.0301Z" fill="#FF444F"/>
<path d="M56.3788 93.2945C55.707 93.2945 55.1907 93.2521 54.8937 93.228C48.935 92.7387 45.2265 88.7912 44.0073 87.4956C43.1063 86.5366 40.7146 83.9908 39.6793 79.8636C39.3978 78.7434 38.5421 75.332 39.8448 71.3463C39.9947 70.8866 40.4515 69.4906 41.4175 67.9404C41.4529 67.8839 41.5081 67.8414 41.5717 67.8202C43.8121 67.1074 47.4951 66.6774 52.3196 68.683C59.2514 71.5598 61.6955 78.148 62.2796 80.0984C62.7336 81.6146 63.9415 85.6399 62.2188 90.1306C62.0703 90.5167 61.7238 91.4191 61.0788 92.4699C61.0434 92.5265 60.9897 92.5704 60.926 92.5902C59.1821 93.1658 57.5471 93.2931 56.3788 93.2931V93.2945ZM41.8419 68.328C40.9494 69.7834 40.5237 71.0874 40.3808 71.5216C39.1291 75.3518 39.9551 78.6444 40.2266 79.725C41.2266 83.7107 43.5462 86.1788 44.4188 87.108C45.6013 88.3654 49.198 92.1927 54.939 92.6651C55.7155 92.7288 58.0549 92.9197 60.6502 92.0866C61.233 91.1178 61.5526 90.289 61.6912 89.9297C63.3446 85.6201 62.1778 81.7278 61.7379 80.2625C61.1721 78.3715 58.8045 71.9884 52.1032 69.2063C47.5079 67.2969 44.0016 67.6632 41.8433 68.3294L41.8419 68.328Z" fill="black"/>
<path d="M75.9343 84.7856C75.4421 75.3107 70.5696 68.4481 67.547 65.0579C65.9092 63.2192 60.1852 56.9761 50.5349 54.8348C47.6567 54.1955 42.1929 53.0569 35.8395 55.3142C30.0774 57.3594 26.6348 61.1132 25.2954 62.7411C24.6744 63.4978 22.3025 66.4793 20.8231 71.1284C18.4653 78.5397 20.0523 84.9284 20.6633 87.2621C23.1172 96.6211 29.257 102.007 31.4465 103.875C33.9259 105.99 38.7956 110.039 46.3823 111.302C48.9565 111.732 56.7299 112.906 64.352 108.267C69.3985 105.196 72.025 101.01 73.1381 98.9223C76.2907 93.0158 76.0757 87.5295 75.9343 84.7856ZM61.9563 90.0301C61.7866 90.4714 61.4523 91.3226 60.8385 92.3226C60.2105 93.3452 59.2926 94.5219 57.963 95.5686C54.0509 98.6477 49.5319 98.2757 48.3255 98.1767C42.477 97.6972 38.859 93.8487 37.6229 92.5333C36.6116 91.4584 34.3613 89.0031 33.3628 85.0258C33.0389 83.7359 32.2709 80.4942 33.5226 76.6655C33.8946 75.5283 35.2708 71.5214 39.2735 69.158C40.0613 68.6926 40.8618 68.3447 41.6581 68.0901C46.4656 66.5597 51.1236 68.492 52.2127 68.9446C59.3765 71.9176 61.6282 78.9046 62.0101 80.1804C62.5065 81.8366 63.6083 85.7219 61.9563 90.0301Z" fill="white"/>
<path d="M82.4559 82.0422C82.3612 84.779 82.026 91.6572 77.2383 97.6442C76.1931 98.9525 75.1705 99.9213 74.4166 100.572C72.2342 102.266 70.049 103.959 67.8666 105.654C70.6827 103.126 72.3192 100.457 73.1381 98.9223C76.2907 93.0158 76.0757 87.5295 75.9343 84.7856C75.4421 75.3107 70.5696 68.4481 67.547 65.0579C65.9092 63.2192 60.1852 56.9761 50.5349 54.8348C47.6567 54.1955 42.1929 53.0569 35.8395 55.3142C33.8905 56.0059 32.2059 56.8932 30.7803 57.8267C33.0701 55.9937 35.3586 54.1635 37.6499 52.3305C40.4108 50.8397 46.559 48.0548 54.2886 48.977C59.5657 49.605 63.3392 51.694 65.4976 52.916C71.7024 56.4307 75.1705 60.9822 76.227 62.4475C77.7263 64.5266 82.8152 71.8064 82.4559 82.0422Z" fill="#EBECEF"/>
<path d="M67.8665 105.937C67.7859 105.937 67.7052 105.902 67.6487 105.835C67.5511 105.718 67.5638 105.545 67.677 105.443C69.7603 103.573 71.5623 101.272 72.8875 98.7886C76.0656 92.8355 75.7743 87.2049 75.6512 84.799C75.1604 75.351 70.2299 68.4927 67.3347 65.2453C61.4678 58.6586 54.9263 56.0985 50.4725 55.1099C47.8332 54.5243 42.3398 53.3037 35.9327 55.5795C34.1845 56.199 32.5028 57.0349 30.9343 58.0631C30.8084 58.1465 30.6387 58.114 30.551 57.9924C30.4619 57.8707 30.4859 57.6996 30.6033 57.6048C32.3458 56.2103 34.0883 54.8157 35.8308 53.4211L37.4729 52.1086C37.4857 52.0973 37.4998 52.0888 37.5154 52.0803C41.2451 50.0662 47.1897 47.8442 54.3224 48.6943C59.7621 49.3421 63.5838 51.5061 65.6374 52.6687C71.3572 55.909 74.8719 60.0814 76.4574 62.2808C81.9551 69.9071 82.9084 77.2406 82.7401 82.0509C82.6991 83.2475 82.6128 85.7382 81.883 88.6914C81.0301 92.1467 79.5422 95.2173 77.4602 97.8198C76.6087 98.8862 75.647 99.8833 74.6018 100.786C74.5975 100.789 74.5947 100.791 74.5904 100.796C73.5042 101.639 72.4165 102.483 71.3289 103.326C70.2327 104.176 69.1366 105.027 68.0405 105.877C67.9895 105.917 67.9273 105.937 67.8665 105.937ZM43.6905 53.687C46.6749 53.687 49.0906 54.2231 50.5955 54.5583C55.1314 55.5653 61.7903 58.1706 67.7576 64.8691C70.7023 68.1716 75.7163 75.1488 76.2156 84.7708C76.3414 87.2219 76.6385 92.9642 73.3868 99.0559C72.6245 100.484 71.7079 101.854 70.674 103.118C70.7759 103.039 70.8791 102.96 70.9809 102.879C72.0658 102.037 73.152 101.196 74.2354 100.353C75.251 99.476 76.1859 98.5057 77.0161 97.4676C81.8462 91.4268 82.0909 84.3563 82.1715 82.0325C82.337 77.3113 81.4007 70.1093 75.9963 62.6131C74.4377 60.452 70.9824 56.3489 65.3574 53.1623C63.3391 52.0195 59.5811 49.8923 54.2545 49.2586C47.2831 48.427 41.4657 50.5952 37.8067 52.5683L36.1859 53.8652C35.3273 54.5512 34.4702 55.2372 33.6131 55.9232C34.3104 55.5964 35.0232 55.3037 35.746 55.0477C38.6356 54.0208 41.3413 53.687 43.692 53.687H43.6905Z" fill="black"/>
<path d="M57.6835 139.417C54.5153 136.794 51.3471 134.172 48.1789 131.55C45.0913 133.366 42.0023 135.183 38.9147 137.001C38.9331 127.651 38.9529 118.301 38.9713 108.952H38.9727C41.0717 109.961 43.5352 110.828 46.3823 111.302C48.1885 111.604 52.5522 112.271 57.6269 111.041C57.6453 120.499 57.6651 129.959 57.6835 139.417Z" fill="#FF7E88"/>
<path d="M57.6839 139.7C57.6189 139.7 57.5552 139.677 57.5029 139.635L48.151 131.894C45.12 133.676 42.089 135.461 39.058 137.244C38.9703 137.297 38.8614 137.297 38.7737 137.246C38.686 137.195 38.6309 137.102 38.6309 137L38.6874 108.951C38.6874 108.876 38.7171 108.804 38.7709 108.752C38.8557 108.667 38.9859 108.643 39.0948 108.695C41.4271 109.817 43.8952 110.6 46.4283 111.022C47.9035 111.268 52.3927 112.018 57.5595 110.766C57.6429 110.746 57.732 110.766 57.8013 110.818C57.8692 110.872 57.9088 110.954 57.9088 111.04L57.9654 139.416C57.9654 139.526 57.9017 139.625 57.8027 139.672C57.7645 139.69 57.7235 139.698 57.6825 139.698L57.6839 139.7ZM48.1793 131.267C48.2444 131.267 48.308 131.29 48.3604 131.332L57.4011 138.814L57.3459 111.398C52.216 112.562 47.8073 111.827 46.3378 111.581C43.8966 111.175 41.5162 110.441 39.2546 109.395L39.1994 136.505C42.1442 134.771 45.0917 133.038 48.0365 131.305C48.0803 131.279 48.1312 131.266 48.1793 131.266V131.267Z" fill="black"/>
<path d="M63.7945 134.477C61.7578 136.124 59.7202 137.77 57.6835 139.417C57.6651 129.959 57.6453 120.499 57.6269 111.041C59.6085 110.562 61.6998 109.792 63.7888 108.599C63.7888 117.225 63.7931 125.851 63.7945 134.477Z" fill="#CED0D6"/>
<path d="M57.6839 139.7C57.6429 139.7 57.6007 139.691 57.5625 139.673C57.465 139.626 57.4013 139.527 57.4013 139.418L57.3447 111.043C57.3447 110.913 57.4338 110.799 57.5611 110.767C59.7067 110.248 61.7548 109.437 63.6486 108.355C63.7363 108.305 63.8438 108.305 63.9315 108.355C64.0192 108.405 64.0729 108.499 64.0729 108.599L64.0786 134.478C64.0786 134.563 64.0404 134.645 63.9739 134.699L57.8638 139.638C57.8129 139.679 57.7492 139.7 57.6856 139.7L57.6839 139.7ZM57.9105 111.264L57.9656 138.826L63.5114 134.344L63.5058 109.082C61.7491 110.038 59.8708 110.77 57.9105 111.264Z" fill="black"/>
<path d="M73.6567 43.7329C64.2949 39.3724 58.008 33.6244 54.448 29.8353C50.359 32.7276 42.3324 37.5592 31.1263 39.1008C23.5071 40.1489 17.1028 39.3073 12.8356 38.3823C12.8483 47.4202 12.8625 56.4594 12.8752 65.4987C12.8582 66.3587 12.854 67.5694 12.9162 69.012C12.9799 70.5325 13.3052 76.6779 15.8313 84.7073C19.0886 95.0648 24.0841 102.438 26.094 105.234C28.8152 109.02 32.965 114.019 38.9507 118.941C38.9577 115.611 38.9634 112.283 38.9705 108.954H38.9719C35.477 107.274 32.9947 105.197 31.446 103.876C29.2565 102.008 23.1167 96.622 20.6628 87.2631C20.0518 84.9294 18.4648 78.5407 20.8226 71.1293C22.302 66.4803 24.6739 63.4988 25.2949 62.7421C26.1817 61.6643 27.9878 59.6574 30.7798 57.8286C33.0697 55.9955 35.3581 54.1653 37.6494 52.3323C40.4103 50.8415 46.5586 48.0566 54.2882 48.9788C59.5652 49.6068 63.3388 51.6958 65.4971 52.9179C71.702 56.4326 75.17 60.984 76.2266 62.4493C77.7258 64.5285 82.8147 71.8082 82.4555 82.0441C82.3607 84.7809 82.0255 91.659 77.2378 97.646C76.1926 98.9543 75.17 99.9232 74.4162 100.574C72.238 102.265 70.0556 103.956 67.8775 105.646C67.8733 105.65 67.8704 105.653 67.8662 105.656C66.8535 106.565 65.6866 107.456 64.3515 108.268C64.1634 108.383 63.9752 108.493 63.7871 108.6C63.7871 114.361 63.79 120.12 63.7914 125.881C67.7233 124.355 73.0386 121.72 78.3029 117.135C79.539 116.057 85.6336 110.638 90.2303 101.533C91.3293 99.3546 93.3335 95.3208 94.4367 89.925C95.0576 86.8911 95.3702 83.5405 95.4819 82.351C95.6898 80.129 95.7789 78.2521 95.8214 76.8802V49.4441C90.7183 49.0934 82.6252 47.911 73.6567 43.7329Z" fill="white"/>
<path d="M63.792 126.164C63.7354 126.164 63.6803 126.147 63.6322 126.114C63.5558 126.062 63.5091 125.974 63.5091 125.881L63.5049 108.6C63.5049 108.498 63.5586 108.405 63.6477 108.354C63.833 108.248 64.0197 108.139 64.205 108.026C65.4355 107.277 66.6038 106.409 67.6773 105.444C67.6801 105.442 67.683 105.439 67.6858 105.437C67.6915 105.432 67.6971 105.426 67.7042 105.422L70.325 103.389C71.6291 102.378 72.9331 101.367 74.2358 100.355C75.2513 99.4786 76.1862 98.5069 77.0164 97.4701C81.8465 91.4293 82.0912 84.3589 82.1718 82.0351C82.3373 77.3139 81.401 70.1119 75.9967 62.6157C74.438 60.4545 70.9827 56.3514 65.3577 53.1648C63.3394 52.022 59.5814 49.8948 54.2549 49.2612C47.2834 48.4295 41.4661 50.5992 37.8071 52.5708L36.1862 53.8678C34.4437 55.2624 32.7012 56.6555 30.9587 58.0515C30.9516 58.0572 30.9445 58.0628 30.9374 58.0671C28.9149 59.3923 27.0408 61.0712 25.5161 62.924C24.4299 64.2479 22.4088 67.0865 21.0948 71.2179C18.7144 78.6986 20.389 85.0929 20.9392 87.1947C21.9802 91.162 23.8104 94.8677 26.3803 98.2099C28.5599 101.043 30.7126 102.88 31.6319 103.665C32.9925 104.826 35.5257 106.986 39.097 108.702C39.179 108.741 39.2384 108.819 39.254 108.91C39.2582 108.935 39.2596 108.961 39.2568 108.986L39.237 118.946C39.237 119.055 39.1734 119.155 39.0744 119.202C38.9753 119.249 38.8594 119.235 38.7745 119.165C33.8793 115.14 29.5372 110.511 25.8683 105.405C22.768 101.092 18.4641 94.0162 15.566 84.7973C13.2903 77.5628 12.7542 71.8134 12.6382 69.0285C12.5873 67.8574 12.5732 66.6693 12.5972 65.4982L12.5576 38.3875C12.5576 38.3012 12.5958 38.2206 12.6623 38.1668C12.7288 38.1131 12.8164 38.0919 12.8999 38.1102C18.9251 39.4157 25.0452 39.6562 31.0916 38.8245C39.3502 37.6888 47.3711 34.5022 54.2888 29.6084C54.4048 29.5264 54.5618 29.5434 54.658 29.6452C60.1203 35.4597 66.5543 40.1144 73.7803 43.4806C80.7462 46.7252 88.1688 48.6388 95.8446 49.1664C95.9931 49.1763 96.1077 49.2994 96.1077 49.4493V76.8853C96.0511 78.7268 95.9366 80.574 95.7668 82.383L95.764 82.4056C95.6466 83.6503 95.3369 86.9571 94.716 89.9867C93.5845 95.524 91.4912 99.6723 90.4856 101.665C86.2283 110.098 80.6797 115.445 78.4916 117.353C74.1877 121.102 69.277 124.062 63.8967 126.151C63.8641 126.164 63.8288 126.171 63.7948 126.171L63.792 126.164ZM64.0706 108.764L64.0749 125.466C69.2444 123.411 73.967 120.537 78.1182 116.922C80.2808 115.037 85.7672 109.748 89.9792 101.406C90.9735 99.4347 93.0442 95.333 94.1615 89.8693C94.7754 86.8694 95.0837 83.5852 95.1997 82.3491L95.2025 82.3264C95.3708 80.5288 95.4854 78.6943 95.5405 76.874V49.7109C87.8888 49.1537 80.4873 47.2287 73.5385 43.9926C66.3223 40.6321 59.8883 35.9957 54.4119 30.211C47.4659 35.0764 39.4336 38.2474 31.1666 39.3846C25.1682 40.2092 19.0991 39.9914 13.1205 38.7354L13.1601 65.501C13.1375 66.6665 13.1502 67.8418 13.2012 69.003C13.3171 71.7596 13.8475 77.4539 16.1035 84.6262C18.9803 93.773 23.2503 100.794 26.3266 105.072C29.8512 109.977 34.0038 114.44 38.6727 118.343L38.6911 109.133C35.1381 107.399 32.6262 105.255 31.2656 104.095C30.3321 103.299 28.1483 101.435 25.932 98.555C23.3154 95.1534 21.4512 91.3798 20.3919 87.339C19.8318 85.199 18.126 78.6858 20.5559 71.0482C21.8996 66.8277 23.966 63.9226 25.0791 62.5676C26.659 60.6469 28.5217 58.9779 30.6164 57.6046C32.3561 56.2128 34.0943 54.8211 35.834 53.4293L37.4761 52.1168C37.4888 52.1055 37.503 52.097 37.5185 52.0885C41.2483 50.0744 47.1929 47.8525 54.3256 48.7025C59.7653 49.3503 63.5869 51.5143 65.6406 52.6769C71.3603 55.9172 74.8751 60.0896 76.4606 62.289C81.9583 69.9153 82.9116 77.2488 82.7433 82.0591C82.6612 84.4282 82.4109 91.6401 77.4634 97.828C76.6119 98.8944 75.6501 99.8915 74.6049 100.794C74.6007 100.797 74.5979 100.8 74.5936 100.804C73.2881 101.818 71.9827 102.831 70.6758 103.843L68.0663 105.867C68.0663 105.867 68.0564 105.877 68.0493 105.881C66.9517 106.866 65.758 107.753 64.502 108.516C64.3592 108.603 64.2163 108.688 64.0735 108.771L64.0706 108.764Z" fill="black"/>
<path d="M65.5502 20.8891C61.8488 23.8706 58.1488 26.8521 54.4473 29.8336C50.3584 32.726 42.3318 37.5575 31.1257 39.0992C23.5064 40.1472 17.1021 39.3057 12.8349 38.3807C16.6028 35.3454 20.3693 32.3102 24.1372 29.2749C28.2318 30.2014 34.0435 31.0005 40.9089 30.2735C52.7911 29.0147 61.3297 23.872 65.5502 20.8891Z" fill="#EBECEF"/>
<path d="M24.0188 39.8692C20.2608 39.8692 16.5 39.4647 12.7745 38.6571C12.6684 38.6345 12.585 38.551 12.5595 38.4464C12.5341 38.3403 12.5723 38.2285 12.6571 38.1607L23.9594 29.0549C24.0273 29.0012 24.115 28.9814 24.1999 28.9997C29.7131 30.2472 35.3239 30.581 40.8796 29.9926C49.5766 29.0719 58.0516 25.8443 65.3879 20.6592C65.5124 20.5715 65.685 20.5984 65.7769 20.72C65.8688 20.8416 65.8476 21.0142 65.7288 21.1104L54.6259 30.0549C54.6259 30.0549 54.616 30.0619 54.6118 30.0662C47.6205 35.0123 39.5133 38.2328 31.1657 39.3813C28.7923 39.708 26.4063 39.8706 24.0202 39.8706L24.0188 39.8692ZM13.4775 38.2271C19.3146 39.4251 25.2352 39.6245 31.0879 38.8183C39.3422 37.6826 47.3617 34.4974 54.278 29.6079L61.3867 23.8811C55.0488 27.5132 48.0689 29.8003 40.9404 30.5556C35.3678 31.1454 29.74 30.8172 24.2098 29.5811L13.4775 38.2271Z" fill="black"/>
<path d="M107.163 40.457C103.383 43.4526 99.6022 46.4469 95.8216 49.4425C90.7185 49.0918 82.6255 47.9093 73.6569 43.7313C64.2951 39.3708 58.0073 33.6227 54.4473 29.8336C58.1488 26.8521 61.8488 23.8706 65.5502 20.8891C69.0352 24.3812 74.043 28.6455 80.7655 32.3498C91.2348 38.119 101.036 39.8714 107.163 40.457Z" fill="#EBECEF"/>
<path d="M95.822 49.7258C95.822 49.7258 95.8092 49.7258 95.8022 49.7258C88.0571 49.194 80.5665 47.2634 73.5371 43.9891C66.2459 40.5932 59.754 35.896 54.2421 30.0292C54.1884 29.9712 54.1601 29.8948 54.1658 29.8156C54.1714 29.7364 54.2096 29.6643 54.2704 29.6148L65.3733 20.6703C65.4864 20.5798 65.6491 20.5883 65.7509 20.6901C70.2599 25.2076 75.3574 29.0476 80.9017 32.1027C89.0033 36.5664 97.8474 39.2835 107.191 40.1759C107.305 40.1872 107.403 40.2665 107.435 40.3768C107.468 40.4871 107.43 40.6073 107.339 40.678L95.9974 49.6636C95.9479 49.7032 95.8856 49.7244 95.822 49.7244V49.7258ZM54.8645 29.8623C60.2815 35.5736 66.6434 40.1533 73.7761 43.4757C80.708 46.7047 88.0952 48.6155 95.7315 49.153L106.441 40.6681C97.2774 39.7021 88.5973 36.9879 80.6287 32.5977C75.1113 29.5568 70.0322 25.7465 65.5303 21.2686L54.863 29.8623H54.8645Z" fill="black"/>
<path d="M107.163 40.457L107.164 70.0096C107.155 71.0647 107.103 72.5003 106.913 74.1933C106.8 75.2046 106.544 77.1564 105.686 80.592C105.116 82.8719 104.491 85.3697 103.356 88.3272C102.419 90.7684 99.8769 96.7965 94.5433 103.076C92.7258 105.216 91.054 106.833 89.8843 107.895C86.0245 110.974 82.1632 114.055 78.3034 117.134C79.5396 116.056 85.6341 110.638 90.2309 101.532C91.3298 99.3536 93.334 95.3198 94.4372 89.924C95.0581 86.8902 95.3707 83.5395 95.4824 82.35C95.6904 80.128 95.7794 78.2512 95.8219 76.8792L95.8216 49.4425C99.6022 46.4469 103.383 43.4526 107.163 40.457Z" fill="#EBECEF"/>
<path d="M78.3033 117.417C78.2227 117.417 78.1421 117.382 78.0855 117.315C77.9865 117.198 78.0006 117.022 78.1166 116.921C80.2792 115.035 85.7655 109.747 89.9776 101.405C90.9719 99.4333 93.0425 95.3316 94.1599 89.8679C94.7737 86.868 95.082 83.5838 95.198 82.3476L95.2009 82.325C95.3692 80.5273 95.4837 78.6929 95.5389 76.8726V49.445C95.5389 49.3587 95.5785 49.2767 95.6464 49.223L106.988 40.2374C107.073 40.1695 107.189 40.1568 107.287 40.2049C107.384 40.2516 107.447 40.3506 107.447 40.4595V70.0114C107.435 71.4159 107.35 72.8331 107.195 74.2263C107.065 75.3889 106.796 77.3209 105.96 80.6617C105.399 82.9063 104.762 85.4508 103.621 88.4294C102.213 92.0927 99.5345 97.6384 94.7596 103.261C93.3028 104.975 91.7271 106.606 90.0752 108.106C90.0709 108.11 90.0667 108.115 90.061 108.118L78.4801 117.356C78.4278 117.397 78.3655 117.418 78.3033 117.418V117.417ZM96.1046 49.5808V76.8796C96.0481 78.7212 95.9335 80.5683 95.7638 82.3773L95.7609 82.3999C95.6436 83.6446 95.3338 86.9514 94.7129 89.981C93.5814 95.5183 91.4881 99.6666 90.4825 101.659C87.873 106.829 84.7769 110.84 82.2678 113.608L89.6989 107.679C91.3311 106.197 92.8869 104.587 94.3254 102.893C99.0494 97.3315 101.699 91.8466 103.09 88.2258C104.22 85.2796 104.853 82.7521 105.41 80.5231C106.236 77.2149 106.503 75.3083 106.63 74.1612C106.785 72.7879 106.868 71.389 106.879 70.0072V41.0422L96.1032 49.5794L96.1046 49.5808Z" fill="black"/>
</g>
</g>
</svg>
