<svg width="120" height="152" viewBox="0 0 120 152" fill="none" xmlns="http://www.w3.org/2000/svg">
<g id="illustration / dark / dependable-test">
<g id="illustration">
<path d="M99.6464 89.7256C98.0778 88.7257 97.232 87.5206 96.8332 86.9422C96.3099 86.1812 95.1939 84.5137 94.9959 82.0626C94.9252 81.1828 94.7795 79.0061 96.1147 76.8393C96.4626 76.2735 97.4102 74.7828 99.3296 73.9398C100.474 73.4377 101.513 73.3613 102.143 73.3656C101.597 69.9032 100.666 65.7477 99.0424 61.1963C97.5135 56.9093 95.7356 53.2913 94.0695 50.3763C93.4896 50.7837 91.9267 51.7652 89.7641 51.7327C87.7642 51.703 86.3795 50.8233 85.6101 50.3339C83.3542 48.9011 82.3669 46.9111 82.0148 46.1799C81.6626 45.4472 80.913 43.8377 80.9808 41.6383C81.0643 38.9878 82.2849 37.1081 82.8323 36.3641C80.35 34.0997 77.0984 31.5142 73.0165 29.0886C69.3957 26.9373 65.9913 25.4282 63.0932 24.3603C63.0635 24.8157 62.7722 28.3361 59.8925 30.1861C59.6407 30.3474 58.3154 31.1748 56.4046 31.2483C54.457 31.3233 53.0455 30.5722 52.3142 30.172C50.1375 28.9782 49.0796 27.2074 48.6256 26.4267C47.6397 24.7281 47.3314 23.11 47.2267 22.0719C44.6087 22.1949 41.2368 22.5994 37.4534 23.7083C33.206 24.9529 29.844 26.6756 27.4438 28.1423C27.9516 28.8821 28.704 30.179 29.0576 31.9527C29.2316 32.8239 29.5527 34.5396 28.9063 36.5381C28.6729 37.2608 27.8186 39.9057 25.161 41.1235C22.7835 42.214 20.5134 41.4502 19.7369 41.1885C17.9633 40.5917 16.8148 39.5309 16.249 38.9284C14.5306 41.4573 12.5731 44.8291 10.9324 49.0242C9.39921 52.9448 8.5619 56.5133 8.09091 59.4C8.86458 59.6362 10.0102 60.0874 11.1912 60.9714C13.2095 62.4834 14.1105 64.356 14.4415 65.148C14.7639 65.9203 15.6819 68.2045 15.0228 71.0248C14.8007 71.9738 14.3382 73.9582 12.4826 75.4376C10.6665 76.8859 8.64535 76.951 7.98342 76.9439C8.56756 80.3116 9.51378 84.3001 11.0837 88.6536C12.6961 93.1244 14.5688 96.8852 16.3141 99.9007C16.8742 99.4891 18.0863 98.7211 19.7906 98.5556C21.7722 98.3618 23.2502 99.0973 24.014 99.4891C26.0747 100.547 27.1214 102.141 27.5725 102.847C28.482 104.27 28.8441 105.62 29.0039 106.459C31.5696 111.559 34.1338 116.66 36.6995 121.761C40.2157 123.132 43.7318 124.502 47.2465 125.873C47.2607 125.208 47.3809 123.702 48.3653 122.17C48.7656 121.548 49.9324 119.951 52.1106 119.286C54.1869 118.652 55.9266 119.246 56.7596 119.545C59.1711 120.408 60.471 122.14 61.0438 122.924C62.584 125.036 62.915 127.197 63.0027 128.24C65.7169 128.12 69.3278 127.693 73.3998 126.433C77.3699 125.204 80.5268 123.57 82.8068 122.171C82.2198 121.352 81.0134 119.418 80.9342 116.726C80.9045 115.736 80.8408 113.564 82.333 111.517C82.6753 111.047 84.0967 109.159 86.6596 108.675C88.9438 108.244 90.7584 109.187 91.7188 109.687C92.8333 110.267 93.6268 110.962 94.1303 111.473C95.7936 108.948 97.6578 105.654 99.2532 101.615C100.854 97.5599 101.742 93.8684 102.253 90.8812C101.595 90.7044 100.649 90.3763 99.6407 89.7327L99.6464 89.7256ZM77.5184 87.573C76.7434 89.5602 74.1409 96.2261 67.1001 99.714C62.065 102.207 57.3678 101.786 55.6479 101.608C47.8773 100.807 42.9143 96.0875 40.7517 94.031C32.9627 86.6225 31.7025 77.3824 31.4522 75.002C31.1919 72.5325 30.7804 68.1465 32.6572 63.0336C33.2951 61.2953 36.4138 52.8006 45.0557 49.6012C51.4288 47.2421 57.1557 49.1147 59.4342 49.8601C70.6799 53.536 75.3728 63.9798 76.2243 65.875C77.2723 68.2088 81.4476 77.4998 77.5156 87.573H77.5184Z" fill="#303541"/>
<path d="M63.0096 128.518C62.8639 128.518 62.7394 128.406 62.7281 128.259C62.6178 126.939 62.1977 124.97 60.823 123.085C60.3378 122.42 59.0507 120.655 56.6732 119.805C55.9419 119.544 54.2305 118.931 52.2009 119.551C50.2392 120.149 49.1091 121.541 48.6112 122.317C47.7569 123.647 47.5547 124.985 47.5363 125.873C47.5349 125.965 47.4868 126.051 47.4104 126.102C47.334 126.153 47.2365 126.164 47.1502 126.13L36.6032 122.019C36.5381 121.993 36.4844 121.945 36.4532 121.883L28.7576 106.581C28.7463 106.557 28.7378 106.533 28.7322 106.507C28.4917 105.246 28.0236 104.065 27.3404 102.994C26.9529 102.389 25.926 100.78 23.8907 99.7352C23.2005 99.3802 21.7635 98.6433 19.8244 98.8328C18.3238 98.9799 17.1809 99.6164 16.4879 100.124C16.4228 100.172 16.3408 100.189 16.263 100.172C16.1838 100.155 16.1159 100.107 16.0763 100.036C13.9986 96.4453 12.2306 92.6463 10.8247 88.7441C9.45136 84.9337 8.40331 80.9777 7.7131 76.9864C7.69895 76.9043 7.72158 76.8195 7.77674 76.7544C7.83049 76.6908 7.90687 76.6526 7.99456 76.6554C8.9139 76.6639 10.7102 76.4899 12.3141 75.2099C14.0919 73.7913 14.5403 71.8748 14.7553 70.9541C15.1867 69.1041 14.9971 67.1847 14.1881 65.2513C13.7185 64.1283 12.7893 62.5117 11.0298 61.192C10.1246 60.5131 9.1105 59.9997 8.01719 59.6645C7.88141 59.6235 7.79796 59.4877 7.82059 59.3491C8.4019 55.7863 9.36367 52.2758 10.6776 48.9167C12.0722 45.351 13.8713 41.9353 16.024 38.7657C16.0721 38.695 16.1499 38.6497 16.2361 38.6427C16.321 38.6356 16.4059 38.6681 16.4653 38.7318C17.4044 39.736 18.5699 40.4912 19.8357 40.917C20.5627 41.1617 22.7762 41.907 25.0519 40.8632C26.7407 40.0896 27.95 38.6045 28.6459 36.449C29.2823 34.4802 28.9486 32.8098 28.7887 32.0064C28.5242 30.6783 27.9953 29.4323 27.2188 28.3008C27.1749 28.2371 27.1594 28.1579 27.1749 28.0815C27.1905 28.0051 27.2372 27.9401 27.3036 27.8991C30.4535 25.9741 33.8437 24.472 37.3811 23.4353C40.5776 22.499 43.8872 21.9446 47.2195 21.7876C47.3722 21.7791 47.4995 21.8922 47.5137 22.0421C47.6664 23.5626 48.1247 24.9897 48.8757 26.2839C49.2661 26.9571 50.3028 28.7435 52.4555 29.923C53.116 30.2851 54.4894 31.039 56.3988 30.964C58.1385 30.8961 59.3987 30.1677 59.7438 29.9471C62.4269 28.223 62.772 24.9741 62.8144 24.3405C62.8201 24.2514 62.8681 24.1708 62.9431 24.1227C63.0181 24.0746 63.1114 24.0633 63.1949 24.0944C66.6488 25.3673 70.0037 26.9656 73.1648 28.8453C76.6824 30.9357 80.0005 33.3953 83.0273 36.1548C83.1348 36.2524 83.1503 36.415 83.064 36.531C82.2847 37.5918 81.3399 39.3399 81.2678 41.6468C81.1999 43.8221 81.9523 45.3892 82.2734 46.0568C82.5846 46.7046 83.5322 48.6762 85.7655 50.0949C86.5462 50.5913 87.8517 51.4215 89.7724 51.4498C91.7186 51.4767 93.1995 50.6451 93.9109 50.1444C93.976 50.0991 94.058 50.0821 94.1358 50.0991C94.2136 50.1161 94.2801 50.1656 94.3197 50.2349C96.2955 53.6944 97.9758 57.3506 99.3124 61.1001C100.724 65.0575 101.771 69.1691 102.425 73.3203C102.438 73.4023 102.414 73.4858 102.36 73.5494C102.307 73.6117 102.229 73.6484 102.145 73.6484C102.134 73.6484 102.116 73.6484 102.1 73.6484C101.169 73.6484 100.277 73.8337 99.4468 74.1986C97.5699 75.0232 96.659 76.5012 96.3592 76.9864C95.0452 79.1192 95.2164 81.2408 95.2814 82.0385C95.478 84.4642 96.5926 86.0865 97.0692 86.7809C97.4214 87.2943 98.2474 88.4966 99.8004 89.4866C100.58 89.9831 101.433 90.3579 102.334 90.5997C102.475 90.6379 102.564 90.7765 102.539 90.9208C101.911 94.6052 100.895 98.2359 99.5232 101.711C98.1554 105.176 96.4228 108.51 94.3734 111.622C94.3267 111.692 94.2504 111.739 94.1641 111.747C94.0806 111.756 93.9944 111.725 93.935 111.664C93.2433 110.961 92.4555 110.377 91.5956 109.93C90.6564 109.442 88.9083 108.533 86.7202 108.946C84.5407 109.357 83.1843 110.832 82.569 111.675C81.1334 113.644 81.1942 115.715 81.2239 116.709C81.2933 119.078 82.2522 120.893 83.0442 121.999C83.0895 122.062 83.1065 122.143 83.0909 122.219C83.0754 122.296 83.0287 122.364 82.9622 122.405C79.9991 124.224 76.8125 125.668 73.4915 126.696C70.097 127.747 66.5752 128.359 63.0237 128.516C63.0195 128.516 63.0152 128.516 63.011 128.516L63.0096 128.518ZM54.0085 118.715C55.3055 118.715 56.3281 119.081 56.8627 119.272C59.4043 120.181 60.7664 122.048 61.2798 122.751C62.6404 124.617 63.1157 126.557 63.2656 127.939C66.6771 127.765 70.0602 127.166 73.3232 126.156C76.5042 125.171 79.5592 123.799 82.4106 122.078C81.6129 120.893 80.7275 119.065 80.6582 116.726C80.6299 115.75 80.562 113.467 82.1122 111.342C82.7769 110.431 84.2436 108.837 86.6155 108.388C88.9959 107.939 90.8573 108.907 91.8572 109.426C92.6691 109.848 93.4187 110.384 94.0891 111.02C96.0353 108.023 97.6859 104.824 98.997 101.502C100.324 98.1412 101.312 94.6349 101.938 91.075C101.072 90.819 100.252 90.4442 99.4963 89.9619C97.8457 88.9096 96.9744 87.6408 96.6025 87.0991C96.1442 86.4316 94.925 84.6593 94.7171 82.0824C94.6549 81.3144 94.4668 78.9778 95.8769 76.6879C96.1994 76.1646 97.1795 74.5734 99.2191 73.6781C100.037 73.3189 100.909 73.1195 101.814 73.0855C101.162 69.0772 100.141 65.1099 98.7792 61.2882C97.4865 57.6646 95.8726 54.1301 93.9774 50.778C93.1387 51.3169 91.655 52.0396 89.764 52.0127C87.6834 51.9816 86.2379 51.0623 85.4614 50.5701C83.0923 49.0638 82.0924 46.9832 81.7628 46.3001C81.4531 45.6551 80.6299 43.9409 80.702 41.627C80.7742 39.3201 81.6652 37.5423 82.4601 36.4023C79.5125 33.7362 76.2892 31.3572 72.8763 29.329C69.8495 27.5299 66.6431 25.9911 63.3434 24.7507C63.2034 25.8991 62.6008 28.7831 60.0507 30.4209C59.5698 30.7306 58.253 31.4562 56.4214 31.5269C54.3564 31.6076 52.8897 30.8028 52.1839 30.4167C49.8941 29.1607 48.7993 27.2753 48.3878 26.5653C47.6395 25.2768 47.1671 23.8653 46.9819 22.3632C43.784 22.5329 40.6087 23.0746 37.5409 23.9756C34.1464 24.9713 30.8877 26.4012 27.851 28.2272C28.5808 29.3545 29.0829 30.5864 29.3432 31.8933C29.5002 32.6768 29.8665 34.5127 29.1848 36.6201C28.438 38.9326 27.1268 40.5323 25.2881 41.3752C22.8087 42.5124 20.4354 41.7133 19.6561 41.4516C18.4114 41.033 17.2573 40.3159 16.2984 39.3697C14.2546 42.4233 12.5418 45.7018 11.2052 49.1218C9.93508 52.3692 8.99876 55.758 8.41887 59.1992C9.48531 59.5528 10.4768 60.0704 11.3693 60.7394C13.232 62.1354 14.215 63.8454 14.7114 65.0321C15.5657 67.0787 15.7666 69.114 15.3069 71.0814C15.0778 72.0643 14.5997 74.1095 12.6677 75.6512C11.1076 76.8959 9.38772 77.1773 8.32835 77.2155C9.01432 81.064 10.0327 84.8757 11.3579 88.5517C12.7186 92.3253 14.4187 96.0026 16.4129 99.4862C17.1753 98.9757 18.3167 98.4099 19.7707 98.2685C21.8753 98.0634 23.4693 98.8823 24.1496 99.2317C26.3206 100.346 27.4083 102.049 27.8171 102.688C28.5327 103.809 29.0249 105.043 29.2809 106.362L36.9101 121.531L46.9904 125.46C47.0597 124.522 47.3298 123.263 48.136 122.01C48.6763 121.169 49.9026 119.659 52.0368 119.009C52.7398 118.794 53.4046 118.715 54.0099 118.715H54.0085ZM58.2106 102.036C57.0522 102.036 56.1513 101.943 55.6181 101.889C47.7513 101.079 42.709 96.2841 40.5563 94.2361C33.1705 87.2109 31.5326 78.4658 31.1705 75.0317C30.9372 72.8196 30.4535 68.2158 32.3911 62.936C34.8437 56.2573 39.306 51.4286 44.9579 49.3368C51.423 46.9436 57.3082 48.8672 59.5231 49.5913C64.3179 51.1585 68.4974 54.1074 71.9484 58.3576C74.657 61.6941 76.0318 64.7534 76.4844 65.7591C80.8421 75.456 79.5946 83.03 77.7813 87.6762C77.3768 88.7115 76.5367 90.8642 74.8904 93.2418C72.8438 96.1992 70.2639 98.4622 67.2244 99.9671C63.7705 101.679 60.4892 102.036 58.2106 102.036ZM51.3579 48.7356C48.2095 48.7356 46.1771 49.4881 45.1545 49.8671C39.661 51.901 35.3175 56.6109 32.923 63.1312C31.0305 68.288 31.5043 72.8026 31.7335 74.9723C32.0885 78.3442 33.6966 86.9294 40.9467 93.8259C43.0584 95.8343 48.0016 100.536 55.676 101.326C57.2177 101.485 61.9092 101.968 66.9727 99.4594C69.9259 97.9969 72.4322 95.7961 74.425 92.9193C76.0332 90.5955 76.8578 88.4852 77.2538 87.4697C79.0274 82.9239 80.2438 75.5083 75.9681 65.991C75.524 65.0024 74.1719 61.9926 71.51 58.7141C68.1296 54.5501 64.0378 51.662 59.3492 50.1288C56.1499 49.0822 53.4965 48.7356 51.3594 48.7356H51.3579Z" fill="white"/>
<path d="M72.9223 95.2761C71.4414 96.9182 69.5362 98.5065 67.0993 99.713C62.0641 102.208 57.3678 101.785 55.6479 101.608C47.8773 100.807 42.9134 96.0865 40.7523 94.03C32.9633 86.6229 31.7031 77.3814 31.4527 75.001C31.1939 72.5329 30.7804 68.1465 32.6572 63.0336C33.2965 61.2953 36.4144 52.7996 45.0576 49.6017C47.2202 48.8025 49.305 48.4886 51.2102 48.4518C50.4153 49.265 49.5638 50.2579 48.7392 51.4545C48.2683 52.1362 47.0151 54.0315 46.0491 56.6636C44.3137 61.3919 44.5881 65.5488 44.7578 67.7495C44.9204 69.881 45.5244 74.7846 48.4818 80.1706C51.3629 85.4207 55.0063 88.439 56.1449 89.34C57.9072 90.7331 62.1574 94.0116 68.4995 95.0017C70.3226 95.2846 71.8615 95.31 72.9237 95.2775L72.9223 95.2761Z" fill="#181C25"/>
<path d="M58.2088 102.037C57.0504 102.037 56.1513 101.944 55.6181 101.889C47.7513 101.079 42.709 96.2841 40.5563 94.2361C33.1676 87.2095 31.5312 78.4658 31.1705 75.0317C30.9386 72.8182 30.4549 68.2116 32.3911 62.936C34.8465 56.2545 39.3089 51.4272 44.9579 49.3368C46.9408 48.6041 49.0422 48.21 51.202 48.169C51.3151 48.1662 51.4212 48.2341 51.4664 48.3402C51.5117 48.4462 51.4891 48.5679 51.4084 48.6499C50.5174 49.5622 49.6956 50.5593 48.9672 51.6144C47.9093 53.1448 46.9659 54.9722 46.3096 56.7599C44.5586 61.532 44.8797 65.7158 45.0353 67.727C45.2616 70.6873 46.0861 75.226 48.724 80.0335C51.3236 84.7688 54.595 87.7574 56.3149 89.118C57.9075 90.3782 62.1393 93.7232 68.538 94.7218C69.9835 94.9467 71.4544 95.0386 72.9112 94.9947C73.03 94.9919 73.129 95.0556 73.1771 95.1588C73.2252 95.2621 73.2068 95.3823 73.1304 95.4671C71.4261 97.3568 69.4389 98.8716 67.2226 99.9677C63.7673 101.679 60.4859 102.038 58.2059 102.038L58.2088 102.037ZM50.5273 48.7588C48.6716 48.8607 46.8683 49.2326 45.1555 49.8649C39.6649 51.8973 35.3213 56.6072 32.9254 63.1275C31.0329 68.2829 31.4898 72.6335 31.7359 74.9714C32.0895 78.3419 33.6976 86.9286 40.9491 93.8251C43.0608 95.8335 48.004 100.536 55.6785 101.327C57.2201 101.485 61.913 101.968 66.9765 99.4599C68.9368 98.4897 70.7133 97.1828 72.2648 95.5704C70.9905 95.5746 69.7161 95.4756 68.4559 95.2804C61.9102 94.2593 57.5935 90.8464 55.9684 89.5621C54.216 88.1746 50.8795 85.1281 48.2318 80.3065C45.5444 75.4113 44.7057 70.7877 44.4738 67.7709C44.3168 65.72 43.9886 61.4528 45.7821 56.5648C46.6434 54.2169 47.7381 52.4023 48.5047 51.2934C49.1186 50.4037 49.7975 49.5537 50.5273 48.7602V48.7588Z" fill="white"/>
<path d="M20.0569 115.025C25.1275 110.17 30.198 105.314 35.2686 100.46C35.6872 100.023 36.4722 99.3199 37.6504 98.8815C39.3066 98.2662 40.7493 98.542 41.5682 98.7089C43.7916 99.1643 45.2046 100.402 45.7152 100.862C47.585 102.542 48.237 104.498 48.5284 105.41C48.7702 106.167 49.2087 107.591 49.0163 109.457C48.9414 110.181 48.7589 111.769 47.6529 113.36C47.1833 114.036 46.684 114.515 46.3177 114.824C39.3434 121.455 32.3691 128.084 25.3948 134.715C24.8771 135.143 23.8701 135.86 22.4246 136.179C20.3031 136.647 18.6001 135.958 17.8618 135.648C15.9736 134.855 14.8605 133.562 14.3598 132.893C10.872 128.491 7.38554 124.091 3.89769 119.691C3.65724 119.427 3.34184 119.045 3.03633 118.543C2.8949 118.312 2.34187 117.376 2.00242 115.729C1.80865 114.786 1.54699 113.516 1.82987 111.884C1.97555 111.041 2.29803 109.315 3.69543 107.866C4.46344 107.068 5.27246 106.649 5.64727 106.46C6.08997 106.235 6.96406 105.802 8.14365 105.685C9.92294 105.509 11.2963 106.161 11.9611 106.488C13.2312 107.112 14.0713 107.948 14.8888 108.762C15.3485 109.221 15.7049 109.631 15.951 109.932C17.3187 111.631 18.6878 113.328 20.0555 115.027L20.0569 115.025Z" fill="#FF7373"/>
<path d="M20.9736 136.618C19.4446 136.618 18.2707 136.125 17.753 135.907C15.9553 135.152 14.7927 133.942 14.135 133.06L3.68421 119.871C3.35183 119.504 3.0534 119.107 2.79739 118.687C2.53149 118.251 2.03929 117.295 1.72812 115.783C1.53153 114.827 1.26279 113.517 1.55416 111.831C1.68994 111.046 2.00817 109.208 3.49468 107.665C4.31219 106.817 5.1594 106.386 5.52148 106.202C5.92175 105.999 6.8609 105.522 8.11828 105.397C10.0135 105.211 11.4675 105.924 12.0884 106.229C13.401 106.873 14.2595 107.73 15.0912 108.557C15.4702 108.935 15.8337 109.335 16.1717 109.748L20.0839 114.605L35.0735 100.252C35.7778 99.5151 36.6151 98.9606 37.5529 98.6127C39.318 97.9564 40.8767 98.2747 41.6263 98.4288C43.9713 98.9083 45.4281 100.218 45.9062 100.648C47.8708 102.415 48.5214 104.451 48.8 105.321C49.0277 106.035 49.5015 107.52 49.2993 109.484C49.2328 110.127 49.0574 111.836 47.8863 113.519C47.4974 114.079 47.0334 114.587 46.5087 115.032L25.5915 134.917C25.5915 134.917 25.5816 134.925 25.5773 134.93C24.6721 135.679 23.6043 136.205 22.4869 136.451C21.9551 136.569 21.4474 136.616 20.9736 136.616V136.618ZM8.74061 105.936C8.55674 105.936 8.36862 105.945 8.17486 105.965C7.02355 106.078 6.182 106.505 5.77749 106.71C5.44086 106.881 4.65164 107.281 3.90202 108.061C2.53573 109.478 2.23871 111.196 2.11142 111.93C1.83845 113.51 2.09445 114.759 2.28256 115.671C2.57534 117.099 3.03359 117.99 3.2797 118.394C3.51873 118.786 3.79736 119.158 4.10852 119.499C4.11276 119.503 4.11701 119.509 4.12125 119.513L14.5834 132.716C15.2043 133.548 16.292 134.679 17.9722 135.386C18.6059 135.652 20.289 136.36 22.3653 135.903C23.3921 135.676 24.3751 135.193 25.2082 134.504L46.124 114.621C46.124 114.621 46.1325 114.614 46.1367 114.609C46.6275 114.195 47.0589 113.721 47.421 113.201C48.5072 111.636 48.6671 110.09 48.7349 109.43C48.9245 107.584 48.4747 106.175 48.2583 105.498C47.9938 104.672 47.3771 102.737 45.5257 101.074C45.0759 100.669 43.7054 99.4373 41.5103 98.9875C40.7593 98.8334 39.3619 98.5477 37.7481 99.1473C36.8909 99.4656 36.1244 99.9733 35.4723 100.656L20.2522 115.232C20.1956 115.287 20.1179 115.315 20.0386 115.309C19.9594 115.304 19.8859 115.267 19.8364 115.205L15.7319 110.11C15.4066 109.714 15.0558 109.328 14.6909 108.963C13.8918 108.168 13.0658 107.345 11.8381 106.743C11.3247 106.491 10.2002 105.939 8.73919 105.939L8.74061 105.936Z" fill="white"/>
<path d="M27.0315 108.348C24.7063 110.574 22.3825 112.8 20.0572 115.026C18.6895 113.328 17.3204 111.629 15.9527 109.93C15.7066 109.63 15.3502 109.22 14.8919 108.761C14.0744 107.946 13.2343 107.111 11.9642 106.488C11.298 106.161 9.92605 105.507 8.14676 105.684C7.39007 105.759 6.76067 105.963 6.28969 106.161H6.28827C9.08025 104.795 11.8722 103.431 14.6628 102.066C15.37 101.738 16.4774 101.361 17.8338 101.42C18.9088 101.467 19.7065 101.771 20.2595 101.98C21.5211 102.458 22.3627 103.099 22.6837 103.359C23.1024 103.696 23.4235 104.018 23.6455 104.263C24.7742 105.625 25.9043 106.985 27.0315 108.348Z" fill="#FF444F"/>
<path d="M20.0575 115.309C20.0575 115.309 20.0443 115.309 20.0386 115.309C19.9594 115.304 19.8859 115.266 19.8364 115.205L15.7323 110.109C15.4226 109.729 15.0619 109.332 14.6913 108.961C13.895 108.168 13.07 107.346 11.8381 106.743C11.2596 106.46 9.90507 105.795 8.17245 105.966C7.57417 106.025 6.97731 106.178 6.39741 106.423C6.29133 106.466 6.1697 106.444 6.08766 106.362C6.0226 106.297 5.9929 106.205 6.00846 106.114C6.02402 106.024 6.08059 105.946 6.16262 105.906L9.52601 104.263C11.1964 103.447 12.8668 102.631 14.5357 101.815C15.6107 101.317 16.7224 101.09 17.844 101.14C18.9571 101.189 19.793 101.505 20.346 101.713C21.2668 102.062 22.1324 102.554 22.8593 103.14C23.2186 103.428 23.5524 103.742 23.8537 104.075L27.2482 108.169C27.3429 108.284 27.333 108.452 27.2255 108.554L20.2512 115.233C20.1989 115.284 20.1282 115.312 20.0561 115.312L20.0575 115.309ZM8.74386 105.372C10.328 105.372 11.5358 105.963 12.0874 106.233C13.4028 106.878 14.2599 107.734 15.0902 108.56C15.4805 108.95 15.844 109.35 16.1708 109.751L20.0829 114.608L26.6442 108.325L23.4251 104.443C23.1521 104.143 22.8395 103.848 22.5043 103.578C21.824 103.03 21.0122 102.568 20.1565 102.245C19.595 102.032 18.8411 101.748 17.8185 101.703C16.7874 101.658 15.7648 101.867 14.779 102.324C13.1143 103.138 11.4439 103.955 9.77353 104.771L8.53595 105.375C8.60525 105.372 8.67456 105.372 8.74245 105.372H8.74386Z" fill="white"/>
<path d="M57.2615 107.699C56.9079 108.561 56.4808 109.224 56.1428 109.68C55.8189 110.016 55.4964 110.353 55.1725 110.691C48.2604 117.278 41.3498 123.864 34.4377 130.451C34.2072 130.652 33.9342 130.863 33.6188 131.069C33.104 131.404 32.6118 131.632 32.1974 131.788C29.6204 132.981 27.042 134.175 24.465 135.37C24.8624 135.134 25.1736 134.899 25.3956 134.714C32.3699 128.083 39.3442 121.453 46.3185 114.824C46.6862 114.514 47.1841 114.036 47.6537 113.36C48.7597 111.769 48.9422 110.18 49.0171 109.456C49.2095 107.589 48.7696 106.166 48.5292 105.41C48.2378 104.496 47.5858 102.54 45.716 100.86C45.2054 100.401 43.7938 99.1623 41.569 98.7083C40.842 98.5583 39.62 98.3235 38.1943 98.7068C41.0202 97.325 43.8448 95.9474 46.6707 94.567C47.2506 94.4227 48.0992 94.2728 49.1246 94.3095C51.3848 94.3902 52.9576 95.3251 53.3013 95.5358C54.7892 96.4537 55.5671 97.6036 56.1215 98.4423C56.618 99.1976 57.7113 100.898 57.9065 103.371C58.0833 105.595 57.4412 107.261 57.2615 107.698V107.699Z" fill="#FF444F"/>
<path d="M24.4669 135.653C24.365 135.653 24.2675 135.598 24.2165 135.502C24.1458 135.369 24.1925 135.204 24.3226 135.127C24.6394 134.939 24.9379 134.73 25.2094 134.504C32.1809 127.874 39.1538 121.247 46.1252 114.62C46.1295 114.616 46.1337 114.613 46.138 114.609C46.6273 114.196 47.0601 113.722 47.4236 113.2C48.5099 111.636 48.6697 110.09 48.7376 109.43C48.9271 107.588 48.4773 106.177 48.2609 105.498C47.9979 104.672 47.3812 102.737 45.5284 101.072C45.0786 100.668 43.7067 99.4356 41.513 98.9872C40.8666 98.8543 39.6644 98.6068 38.2684 98.9816C38.1284 99.0198 37.9813 98.9448 37.9303 98.8076C37.8794 98.6718 37.9402 98.5177 38.0704 98.454C39.926 97.546 41.7817 96.6408 43.6373 95.7342L46.5467 94.3141C46.5651 94.3057 46.5835 94.2986 46.6019 94.2943C47.4293 94.0878 48.2822 93.9973 49.1336 94.0284C51.2877 94.1048 52.8676 94.9407 53.4475 95.2957C55.0174 96.2646 55.8236 97.4809 56.3568 98.2871C56.8024 98.9632 57.9834 100.758 58.1885 103.351C58.3525 105.421 57.8419 107.031 57.5223 107.807C57.2253 108.531 56.8363 109.219 56.3682 109.85C56.3611 109.86 56.3526 109.868 56.3455 109.877L55.3753 110.888L34.6306 130.658C34.3619 130.893 34.0762 131.109 33.7707 131.307C33.311 131.607 32.8174 131.856 32.3039 132.05L30.5091 132.881C28.5332 133.796 26.5573 134.712 24.5814 135.628C24.5433 135.646 24.5022 135.655 24.4626 135.655L24.4669 135.653ZM46.5085 115.036C39.7987 121.415 33.0875 127.794 26.3777 134.173C27.6761 133.57 28.9759 132.969 30.2757 132.366L32.0805 131.531C32.0805 131.531 32.0932 131.525 32.1003 131.522C32.5783 131.342 33.038 131.111 33.4666 130.832C33.7494 130.648 34.0139 130.449 34.253 130.238L54.9792 110.485L55.9283 109.496C56.3639 108.906 56.7246 108.266 57.0018 107.591C57.2437 107.004 57.7882 105.42 57.627 103.393C57.4346 100.945 56.3498 99.2998 55.8873 98.5969C55.3823 97.8331 54.6172 96.679 53.1547 95.7752C52.6144 95.4442 51.1364 94.6635 49.1166 94.5914C48.326 94.5631 47.5382 94.6451 46.7702 94.8332L43.8877 96.2405C42.5412 96.8982 41.1933 97.5559 39.8468 98.2136C40.5993 98.2178 41.2188 98.3451 41.6275 98.43C43.9711 98.908 45.428 100.218 45.9074 100.648C47.8734 102.416 48.524 104.452 48.8012 105.322C49.029 106.036 49.5028 107.524 49.3005 109.483C49.234 110.127 49.0572 111.835 47.889 113.519C47.4986 114.079 47.0347 114.588 46.51 115.032L46.5085 115.036Z" fill="white"/>
<path d="M58.5309 120.424C54.7715 122.239 51.0107 124.054 47.2512 125.868C47.2654 125.203 47.387 123.697 48.37 122.167C48.7717 121.543 49.9371 119.948 52.1167 119.281C54.1916 118.649 55.9327 119.242 56.7658 119.54C57.4376 119.779 58.0231 120.088 58.5309 120.424Z" fill="#181C25"/>
<path d="M47.2517 126.149C47.1979 126.149 47.1456 126.134 47.0989 126.104C47.0169 126.05 46.9674 125.958 46.9688 125.861C46.9886 124.9 47.2064 123.453 48.1328 122.012C48.6731 121.171 49.8994 119.663 52.0337 119.01C54.2472 118.335 56.0788 118.993 56.8609 119.273C57.5016 119.5 58.1169 119.809 58.6869 120.188C58.7718 120.244 58.8198 120.342 58.8128 120.442C58.8057 120.544 58.7449 120.633 58.6529 120.678L47.3733 126.122C47.3337 126.141 47.2927 126.151 47.2502 126.151L47.2517 126.149ZM54.0053 119.281C53.4495 119.281 52.8413 119.355 52.1991 119.55C50.2374 120.149 49.1073 121.541 48.608 122.316C47.8924 123.429 47.6349 124.547 47.5586 125.402L57.9429 120.391C57.5356 120.158 57.1099 119.961 56.67 119.804C56.1707 119.625 55.2118 119.281 54.0039 119.281H54.0053Z" fill="white"/>
<path d="M115.519 84.5317C115.054 87.6957 114.14 91.7649 112.276 96.2413C110.758 99.8834 109 102.859 107.417 105.159C102.989 107.262 98.5634 109.364 94.1349 111.467C95.7982 108.942 97.6638 105.648 99.2578 101.607C100.859 97.5511 101.747 93.861 102.256 90.8738C106.676 88.7593 111.096 86.6448 115.517 84.5303L115.519 84.5317Z" fill="#282C38"/>
<path d="M94.1359 111.749C94.0553 111.749 93.9775 111.715 93.9223 111.652C93.8389 111.556 93.829 111.417 93.8997 111.311C95.9279 108.233 97.6421 104.934 98.9957 101.504C100.353 98.0625 101.358 94.4699 101.979 90.8251C101.994 90.7346 102.052 90.6568 102.136 90.6172C106.556 88.5027 110.975 86.3882 115.397 84.2737C115.492 84.2285 115.603 84.2398 115.687 84.3006C115.772 84.3628 115.814 84.4661 115.798 84.5693C115.203 88.6173 114.105 92.5789 112.537 96.3468C111.229 99.4867 109.585 102.505 107.65 105.317C107.622 105.358 107.584 105.39 107.539 105.412L94.2561 111.72C94.2165 111.738 94.1755 111.747 94.1345 111.747L94.1359 111.749ZM102.512 91.0656C101.882 94.6991 100.877 98.2789 99.5218 101.712C98.2758 104.868 96.727 107.916 94.9124 110.785L107.227 104.936C109.121 102.174 110.731 99.2123 112.014 96.1318C113.497 92.5719 114.554 88.8337 115.158 85.0163C110.943 87.0318 106.727 89.0487 102.512 91.0656Z" fill="white"/>
<path d="M115.489 67.0501C111.039 69.1561 106.592 71.2593 102.143 73.3639C101.597 69.9029 100.666 65.746 99.0425 61.1946C97.515 56.909 95.7357 53.2896 94.071 50.3746C98.4838 48.2601 102.897 46.1456 107.308 44.0311C109.086 46.9674 111.053 50.7791 112.676 55.4253C114.206 59.8042 115.033 63.7829 115.489 67.0487V67.0501Z" fill="#282C38"/>
<path d="M102.143 73.6486C102.097 73.6486 102.052 73.6372 102.011 73.616C101.932 73.575 101.878 73.4986 101.864 73.4095C101.213 69.288 100.175 65.2104 98.7778 61.2912C97.4539 57.5756 95.7878 53.9506 93.826 50.5165C93.7864 50.4486 93.7779 50.3665 93.802 50.2916C93.826 50.2166 93.8783 50.1544 93.9491 50.1204L94.4795 49.8658C98.7155 47.8362 102.952 45.8052 107.188 43.777C107.319 43.7147 107.476 43.7614 107.553 43.8859C109.739 47.4982 111.554 51.3495 112.944 55.3338C114.265 59.113 115.217 63.0422 115.77 67.0109C115.787 67.1339 115.723 67.2528 115.612 67.3051C111.162 69.4111 106.715 71.5157 102.266 73.6189C102.227 73.6372 102.186 73.6457 102.144 73.6457L102.143 73.6486ZM94.4667 50.5009C96.379 53.8855 98.0083 57.4497 99.3096 61.1016C100.677 64.9346 101.704 68.9189 102.362 72.9484C106.635 70.9273 110.906 68.9062 115.179 66.885C114.626 63.0238 113.694 59.2007 112.408 55.5219C111.057 51.6564 109.306 47.9154 107.199 44.4007C103.041 46.3921 98.8824 48.385 94.7227 50.3778L94.4653 50.5009H94.4667Z" fill="white"/>
<path d="M96.1444 30.0278C91.7075 32.1394 87.2706 34.2511 82.8351 36.3628C80.3528 34.0983 77.1012 31.5129 73.0193 29.0872C69.3985 26.936 65.9927 25.4282 63.096 24.359C67.5301 22.2119 71.9642 20.0635 76.3983 17.9151C79.2072 18.908 82.5324 20.3365 86.0712 22.4227C90.3553 24.9473 93.6862 27.687 96.1458 30.0278H96.1444Z" fill="#282C38"/>
<path d="M82.8347 36.6458C82.7654 36.6458 82.6975 36.6203 82.6438 36.5722C79.6467 33.8382 76.3597 31.4027 72.8733 29.3306C69.7433 27.4707 66.4209 25.888 62.9967 24.625C62.8906 24.5854 62.817 24.4864 62.8114 24.3732C62.8057 24.2601 62.868 24.154 62.9712 24.1045C67.4053 21.9575 71.8394 19.8091 76.2734 17.6606C76.3413 17.6281 76.4205 17.6239 76.4912 17.6479C79.866 18.8402 83.1374 20.3649 86.2137 22.1781C89.8614 24.328 93.2672 26.8993 96.3392 29.8228C96.4071 29.8865 96.4382 29.9798 96.4241 30.0718C96.4099 30.1637 96.3505 30.2429 96.2657 30.2825L94.5401 31.1043C90.6789 32.9415 86.8176 34.7802 82.9564 36.6175C82.9182 36.6359 82.8757 36.6444 82.8347 36.6444V36.6458ZM63.8128 24.3252C67.0503 25.5599 70.193 27.0789 73.1632 28.8427C76.6284 30.902 79.8985 33.3178 82.8857 36.0249C86.6889 34.2145 90.4936 32.4041 94.2983 30.5923L95.6518 29.9487C92.6901 27.1723 89.4201 24.7226 85.928 22.6647C82.9168 20.8896 79.7174 19.3946 76.4163 18.2193C72.2156 20.2546 68.0149 22.2899 63.8142 24.3237L63.8128 24.3252Z" fill="white"/>
<path d="M60.5144 15.6623C56.086 17.798 51.6604 19.9337 47.232 22.0694C44.614 22.1911 41.2421 22.597 37.4601 23.7059C35.1165 24.3933 33.043 25.2249 31.251 26.0806C36.446 23.5531 41.6396 21.0242 46.8332 18.4981C48.3946 17.9013 50.1683 17.327 52.1399 16.8518C55.2713 16.0923 58.1171 15.7712 60.5144 15.6637V15.6623Z" fill="#282C38"/>
<path d="M31.2505 26.3639C31.1458 26.3639 31.044 26.3045 30.9959 26.204C30.928 26.064 30.9874 25.8943 31.1274 25.8264L34.6945 24.091C38.7 22.142 42.7055 20.1929 46.711 18.2439C46.7181 18.2397 46.7266 18.2369 46.7337 18.234C48.4748 17.5693 50.271 17.012 52.0743 16.5764C54.8239 15.9102 57.6597 15.5071 60.5026 15.3812C60.6356 15.3742 60.7572 15.4647 60.7897 15.5948C60.8223 15.7249 60.76 15.8607 60.6384 15.9187L47.356 22.3258C47.322 22.3428 47.2839 22.3513 47.2457 22.3541C43.9629 22.5069 40.6985 23.0542 37.5402 23.9792C35.4257 24.6001 33.3508 25.3936 31.3735 26.337C31.3339 26.3554 31.2929 26.3653 31.2519 26.3653L31.2505 26.3639ZM46.9458 18.7588C43.7168 20.3287 40.4892 21.9001 37.2602 23.4715C37.2998 23.4602 37.3394 23.4474 37.379 23.4361C40.5613 22.504 43.8526 21.951 47.1594 21.7912L59.0939 16.0333C56.7687 16.2129 54.4576 16.5792 52.2045 17.1266C50.4294 17.5551 48.6586 18.1039 46.9444 18.7588H46.9458Z" fill="white"/>
<path d="M28.9124 36.5363C28.679 37.2591 27.8233 39.9025 25.1671 41.1217C22.7882 42.2122 20.5181 41.4485 19.7416 41.1868C17.9665 40.5885 16.8181 39.5292 16.2551 38.9252C20.5676 36.8461 24.88 34.7655 29.1925 32.6864H29.1939C29.3325 33.6355 29.4074 35.0032 28.9124 36.5363Z" fill="#181C25"/>
<path d="M22.5093 41.9713C21.1911 41.9713 20.1274 41.6135 19.6536 41.4551C18.2958 40.9982 17.0498 40.1892 16.0484 39.1185C15.9876 39.0534 15.9607 38.9615 15.9777 38.8738C15.9946 38.7847 16.0512 38.7098 16.1332 38.6716L29.0705 32.4328C29.1795 32.3804 29.3082 32.403 29.393 32.4879C29.4355 32.5303 29.4652 32.5883 29.4751 32.6477C29.683 34.0692 29.5882 35.369 29.1823 36.6235C28.4355 38.9346 27.1258 40.5357 25.2857 41.3787C24.314 41.8242 23.3593 41.9727 22.5093 41.9727V41.9713ZM16.7329 39.0082C17.4062 39.6645 18.4344 40.4466 19.8333 40.9176C20.5617 41.1623 22.7752 41.9062 25.0495 40.8624C26.7382 40.0873 27.9475 38.6023 28.6434 36.4482C28.9857 35.3902 29.0903 34.2955 28.9631 33.1102L16.7329 39.0082Z" fill="white"/>
<path d="M96.1587 115.771C91.7105 117.903 87.2623 120.033 82.8141 122.164C82.2271 121.345 81.0192 119.41 80.94 116.718C80.9117 115.727 80.8467 113.555 82.3403 111.508C82.684 111.039 84.104 109.151 86.6668 108.667C88.9496 108.237 90.7657 109.179 91.7247 109.68C92.8392 110.259 93.6341 110.955 94.1348 111.466C94.2649 111.404 94.395 111.343 94.5251 111.279C94.5973 111.892 94.7415 112.661 95.0385 113.51C95.3723 114.46 95.7952 115.215 96.1573 115.77L96.1587 115.771Z" fill="#181C25"/>
<path d="M82.8137 122.447C82.7246 122.447 82.6384 122.405 82.5832 122.33C81.7445 121.16 80.7304 119.239 80.6568 116.727C80.6285 115.751 80.5606 113.467 82.1108 111.344C83.2593 109.771 84.8589 108.723 86.6142 108.391C89.0002 107.941 90.8573 108.91 91.8544 109.431C92.7101 109.875 93.4965 110.446 94.1924 111.128C94.1981 111.125 94.2023 111.122 94.208 111.121C94.273 111.09 94.3367 111.06 94.4017 111.029C94.4838 110.989 94.5814 110.992 94.6606 111.036C94.7412 111.08 94.7949 111.16 94.8048 111.251C94.8911 111.991 95.0594 112.72 95.3041 113.421C95.5742 114.189 95.9406 114.928 96.3932 115.618C96.4384 115.686 96.4512 115.771 96.4285 115.849C96.4059 115.928 96.3522 115.993 96.2786 116.029C94.0552 117.095 91.8304 118.16 89.607 119.225C87.3822 120.29 85.1588 121.355 82.9354 122.422C82.8958 122.44 82.8548 122.45 82.8137 122.45V122.447ZM87.8376 108.841C87.4798 108.841 87.1064 108.872 86.7188 108.945C84.5421 109.357 83.1843 110.834 82.5676 111.677C81.132 113.644 81.1929 115.715 81.2226 116.709C81.289 118.945 82.1461 120.688 82.9085 121.805C85.0598 120.774 87.2124 119.743 89.3637 118.712C91.4924 117.692 93.621 116.672 95.7482 115.652C95.3494 115.003 95.0226 114.316 94.7723 113.604C94.5559 112.988 94.3975 112.35 94.2971 111.702C94.2843 111.708 94.2702 111.715 94.2575 111.72C94.1485 111.773 94.017 111.75 93.9322 111.664C93.2419 110.961 92.4555 110.378 91.5928 109.93C90.8205 109.527 89.5023 108.839 87.8362 108.839L87.8376 108.841Z" fill="white"/>
<path d="M115.517 84.5303C111.098 86.6434 106.678 88.7579 102.256 90.8738C101.599 90.697 100.655 90.3679 99.6447 89.7258C98.0761 88.7258 97.2306 87.5206 96.8332 86.9422C96.3099 86.1812 95.1939 84.5137 94.9959 82.0626C94.9252 81.1828 94.7795 79.0061 96.1147 76.8393C96.464 76.2735 97.41 74.7843 99.3279 73.9413C100.472 73.4378 101.513 73.3629 102.141 73.3671C104.776 72.121 107.411 70.8736 110.046 69.6289C109.625 70.1607 109.047 71.0235 108.664 72.2059C108.055 74.087 108.299 75.6669 108.427 76.425C108.516 76.9526 108.937 79.2056 110.773 81.3541C112.513 83.3908 114.568 84.2196 115.517 84.5336L115.517 84.5303Z" fill="#181C25"/>
<path d="M102.257 91.1569C102.233 91.1569 102.208 91.154 102.184 91.147C101.228 90.8895 100.322 90.4921 99.4936 89.9645C97.8444 88.9137 96.9732 87.6436 96.6012 87.1019C96.1429 86.4343 94.9237 84.6606 94.7158 82.0851C94.655 81.3157 94.4683 78.9749 95.8756 76.6906C96.1981 76.1673 97.1811 74.5761 99.2164 73.6808C100.112 73.2877 101.075 73.0854 102.08 73.0826L109.927 69.3712C110.046 69.3147 110.188 69.3486 110.27 69.4505C110.352 69.5537 110.352 69.6994 110.27 69.8026C109.676 70.5537 109.227 71.391 108.936 72.2905C108.335 74.1433 108.597 75.7076 108.708 76.3752C108.841 77.1687 109.331 79.2252 110.991 81.1671C112.531 82.9705 114.353 83.846 115.609 84.2618C115.718 84.2986 115.796 84.3976 115.803 84.5121C115.81 84.6267 115.746 84.7356 115.643 84.7851C111.223 86.8982 106.803 89.0127 102.382 91.1286C102.344 91.147 102.301 91.1569 102.26 91.1569H102.257ZM102.106 73.6483C101.17 73.6483 100.274 73.8336 99.4427 74.1999C97.5672 75.0245 96.6549 76.5025 96.3551 76.9877C95.044 79.1149 95.2137 81.2407 95.2773 82.0398C95.4739 84.4641 96.5899 86.0877 97.0651 86.7808C97.4173 87.2942 98.2447 88.4978 99.7963 89.4865C100.549 89.9645 101.366 90.3295 102.229 90.5727C106.416 88.57 110.602 86.5672 114.789 84.5645C113.528 84.0581 111.937 83.1501 110.558 81.5349C108.806 79.484 108.288 77.3087 108.148 76.4686C108.029 75.76 107.752 74.0995 108.396 72.1151C108.598 71.49 108.871 70.8945 109.21 70.3344L102.263 73.62C102.225 73.6384 102.187 73.6455 102.141 73.6469C102.13 73.6469 102.117 73.6469 102.106 73.6469V73.6483Z" fill="white"/>
<path d="M105.108 45.0883C101.429 46.8492 97.7499 48.6129 94.0711 50.3767C93.4912 50.784 91.9284 51.7656 89.7672 51.7316C87.7673 51.7005 86.3826 50.8208 85.6118 50.3328C83.3572 48.9001 82.3686 46.91 82.0164 46.1774C81.6656 45.4461 80.9146 43.8352 80.9839 41.6358C81.0659 38.9839 82.288 37.1056 82.8353 36.3616C87.2708 34.25 91.7077 32.1383 96.1446 30.0266C95.6312 30.7211 94.5874 32.3292 94.3936 34.6191C94.2154 36.7237 94.8491 38.2937 95.197 39.1253C95.5732 40.0277 97.1502 43.797 101.023 44.9511C102.682 45.4447 104.168 45.2835 105.106 45.0883H105.108Z" fill="#181C25"/>
<path d="M89.8728 52.0157C89.836 52.0157 89.7992 52.0157 89.761 52.0157C87.6847 51.9846 86.2392 51.0681 85.4627 50.5759C83.0908 49.0682 82.0894 46.9862 81.7599 46.3017C81.4204 45.593 80.6256 43.9354 80.6991 41.6271C80.7755 39.1746 81.7769 37.319 82.6057 36.1945C82.634 36.1563 82.6693 36.1266 82.7118 36.1068C86.5716 34.2682 90.4329 32.4309 94.2955 30.5936L96.0211 29.7719C96.1385 29.7153 96.2785 29.7478 96.3605 29.8468C96.4425 29.9472 96.4468 30.0901 96.369 30.1948C95.6887 31.1127 94.8429 32.6289 94.6732 34.643C94.4964 36.7235 95.1441 38.2708 95.4553 39.0162C97.0239 42.7742 99.3915 44.1702 101.102 44.6808C102.35 45.0528 103.677 45.0966 105.046 44.8123C105.186 44.7826 105.326 44.8632 105.372 44.999C105.417 45.1348 105.355 45.2833 105.226 45.3441C102.957 46.4304 100.687 47.518 98.4184 48.6057L94.2107 50.6226C93.4497 51.1544 91.8996 52.0171 89.8699 52.0171L89.8728 52.0157ZM83.0201 36.5877C82.2479 37.6528 81.3356 39.3797 81.2649 41.6455C81.1956 43.8152 81.948 45.3866 82.2691 46.057C82.5802 46.7048 83.5307 48.6778 85.7612 50.095C86.5447 50.5915 87.8516 51.4203 89.7681 51.4486C91.7058 51.4811 93.1937 50.6438 93.9052 50.1445C93.9179 50.136 93.932 50.1275 93.9462 50.1205L98.1752 48.0937C99.9375 47.2493 101.7 46.4035 103.464 45.5591C102.601 45.5761 101.755 45.4629 100.942 45.2211C99.1143 44.6765 96.5882 43.1957 94.9348 39.2326C94.6067 38.4476 93.9221 36.8126 94.1102 34.5949C94.246 32.991 94.7835 31.6827 95.3478 30.7181L94.5374 31.1042C90.6973 32.9316 86.8573 34.7589 83.0187 36.5877H83.0201Z" fill="white"/>
<path d="M65.0818 23.3968C64.4198 23.7165 63.7565 24.0389 63.0946 24.3586C63.0635 24.814 62.7735 28.3358 59.8938 30.1844C59.6421 30.3456 58.3154 31.173 56.4074 31.2466C54.4598 31.3216 53.0482 30.5705 52.3184 30.1703C50.1417 28.9765 49.0823 27.2043 48.6297 26.425C47.6439 24.7263 47.3356 23.1069 47.2295 22.0687C51.6579 19.933 56.0835 17.7973 60.5119 15.6616C60.618 16.6913 60.9702 18.6855 62.3633 20.6911C63.2855 22.0206 64.3364 22.8806 65.0818 23.394V23.3968Z" fill="#181C25"/>
<path d="M56.1435 31.5357C54.2157 31.5357 52.8027 30.7592 52.1818 30.4198C49.8947 29.1652 48.7972 27.2799 48.3856 26.5699C47.595 25.2078 47.1112 23.7043 46.9486 22.1004C46.9373 21.9816 46.9995 21.8685 47.107 21.8176L60.3894 15.4104C60.4729 15.3708 60.569 15.3737 60.6497 15.4175C60.7303 15.4628 60.784 15.5434 60.7925 15.6353C60.9198 16.8687 61.337 18.7201 62.5944 20.5333C63.3073 21.5601 64.1969 22.4455 65.2407 23.1655C65.3242 23.222 65.3694 23.3196 65.3624 23.42C65.3553 23.5205 65.2945 23.6096 65.2039 23.6534L63.3624 24.5445C63.2719 25.5034 62.7684 28.6759 60.0457 30.424C59.5648 30.7338 58.248 31.4594 56.4164 31.5315C56.3231 31.5343 56.2311 31.5371 56.1406 31.5371L56.1435 31.5357ZM47.5341 22.2376C47.7067 23.6874 48.1586 25.0477 48.8757 26.2839C49.2661 26.9571 50.3056 28.7435 52.4555 29.923C53.1146 30.2851 54.4858 31.0393 56.398 30.9657C58.1377 30.8978 59.3987 30.1691 59.7438 29.9471C62.4254 28.2244 62.772 24.9741 62.8144 24.3405C62.8215 24.2387 62.8807 24.1498 62.9712 24.1045L64.5321 23.3493C63.5986 22.645 62.7924 21.8077 62.1305 20.8558C60.9339 19.1302 60.4587 17.3722 60.2791 16.0907L47.5327 22.239L47.5341 22.2376Z" fill="white"/>
</g>
</g>
</svg>
