<svg width="120" height="152" viewBox="0 0 120 152" fill="none" xmlns="http://www.w3.org/2000/svg">
<g id="illustration / light / extended-trading-hours">
<g id="illustration">
<path d="M111.619 92.7317C110.909 95.2917 109.442 100.399 105.638 105.883C104.781 107.119 102.229 110.645 97.9845 114.217C96.7851 115.229 95.7201 116.015 94.928 116.57C90.1163 118.926 85.3032 121.284 80.4915 123.64C81.21 123.262 81.9271 122.855 82.6428 122.412C100.426 111.41 101.061 88.8916 101.151 85.6499C101.4 76.8058 99.0283 69.8697 97.7893 66.3535C94.0539 55.7415 88.2225 48.9072 85.8407 46.3132C78.5976 38.4267 71.1014 34.7366 69.1807 33.8285C66.41 32.5188 62.6958 30.7975 57.4782 29.9687C53.6155 29.3563 45.7021 28.7212 37.0234 32.3095C41.0205 30.335 45.0147 28.3577 49.0117 26.3832C51.873 25.2475 56.4754 23.8133 62.2715 23.7016C66.6518 23.6153 69.9501 24.3197 71.8397 24.7341C73.3602 25.0693 79.1577 26.4257 85.8704 30.3633C87.9792 31.6023 94.392 35.5682 100.429 43.0531C101.625 44.5382 105.802 49.8746 109.049 58.0073C112.43 66.4752 113.024 73.5131 113.162 75.5343C113.384 78.8029 113.759 85.0417 111.622 92.7317H111.619Z" fill="#EBECEE"/>
<path d="M80.4932 123.923C80.3899 123.923 80.2909 123.867 80.24 123.768C80.1707 123.629 80.2245 123.461 80.3602 123.389C81.0872 123.007 81.8043 122.598 82.4945 122.171C89.9101 117.583 95.2154 110.471 98.2634 101.033C99.3511 97.667 100.685 92.264 100.87 85.6419C101.123 76.6677 98.6015 69.5053 97.5251 66.446C94.2254 57.0729 89.2383 50.4282 85.6345 46.5033C79.158 39.4526 72.4723 35.6946 69.0622 34.0822C66.5375 32.8885 62.723 31.0852 57.436 30.2464C52.5932 29.4784 45.1394 29.2592 37.134 32.5702C36.9926 32.6282 36.8314 32.5646 36.7677 32.426C36.7041 32.2874 36.7635 32.1233 36.9007 32.0554C38.5272 31.252 40.1537 30.4473 41.7803 29.6425C44.1494 28.4714 46.5184 27.3003 48.8889 26.1292C48.896 26.1263 48.9031 26.1221 48.9101 26.1193C53.2056 24.4149 57.7005 23.5055 62.2689 23.4164C66.7624 23.3287 70.106 24.0614 71.9023 24.456C74.5712 25.0443 79.9529 26.5606 86.0149 30.1177C89.0997 31.9295 95.1023 35.9945 100.651 42.874C102.621 45.3194 106.368 50.5229 109.314 57.9003C112.386 65.596 113.222 72.2379 113.445 75.5136C113.653 78.5672 114.086 84.9206 111.895 92.8057C111.264 95.0787 109.786 100.404 105.873 106.041C104.69 107.749 102.118 111.109 98.1701 114.432C97.1814 115.265 96.1475 116.061 95.0938 116.799C95.0825 116.808 95.0698 116.815 95.0556 116.822L80.6191 123.892C80.5795 123.912 80.537 123.921 80.4946 123.921L80.4932 123.923ZM51.3641 29.2054C53.6893 29.2054 55.7741 29.4119 57.5223 29.6892C62.8899 30.542 66.7483 32.3652 69.3026 33.573C72.7495 35.2024 79.5088 39 86.0503 46.1228C89.6895 50.0859 94.7275 56.7971 98.0583 66.2607C99.146 69.3483 101.692 76.5814 101.436 85.6603C101.249 92.3503 99.9013 97.8084 98.8023 101.21C96.0542 109.722 91.4885 116.369 85.213 121.016L94.7855 116.328C95.818 115.604 96.8335 114.822 97.8037 114.004C101.702 110.723 104.241 107.408 105.406 105.725C109.264 100.165 110.724 94.9061 111.348 92.6601C113.513 84.8683 113.085 78.5799 112.878 75.5574C112.656 72.3157 111.829 65.7388 108.785 58.1153C105.866 50.8072 102.157 45.6547 100.207 43.2332C94.7162 36.4244 88.7772 32.4019 85.725 30.6099C79.7294 27.0924 74.4128 25.5931 71.7764 25.0132C70.0028 24.6243 66.7016 23.9001 62.2746 23.9864C57.7783 24.0727 53.3541 24.968 49.1251 26.644C46.7589 27.8123 44.3926 28.982 42.0278 30.1517C41.7308 30.2988 41.4323 30.4459 41.1353 30.5929C44.8198 29.5647 48.3006 29.2069 51.3627 29.2069L51.3641 29.2054Z" fill="black"/>
<path d="M57.0851 127.611C50.6327 126.796 46.0615 124.588 43.3077 123.229C27.7552 115.552 20.8191 101.975 18.7612 97.8058C17.6876 95.6291 14.6708 89.1569 13.3215 80.3962C12.6638 76.1262 12.6525 72.9326 12.6567 71.9906C12.6864 65.541 13.9466 60.6925 14.3922 59.0943C15.2238 56.1128 16.8362 50.5387 21.2392 44.6988C26.7199 37.4275 33.2628 34.0726 34.9035 33.2692C44.3953 28.6201 53.3059 29.3075 57.4811 29.9709C62.7002 30.7983 66.4129 32.521 69.1837 33.8307C71.1044 34.7387 78.6006 38.4288 85.8437 46.3168C88.2255 48.9108 94.0569 55.7436 97.7937 66.3571C99.0327 69.8747 101.405 76.8094 101.156 85.6549C101.064 88.8952 100.43 111.415 82.6457 122.417C72.1058 128.938 60.9039 128.096 57.0851 127.615V127.611Z" fill="white"/>
<path d="M62.3227 128.215C60.2068 128.215 58.4035 128.062 57.0513 127.891C50.4207 127.053 45.7137 124.731 43.1834 123.482C36.516 120.191 30.652 115.446 25.7554 109.379C21.6452 104.289 19.3667 99.6696 18.5095 97.9299C17.0046 94.8791 14.2933 88.5498 13.0444 80.4383C12.6017 77.5629 12.3641 74.5616 12.3754 71.9874C12.3952 67.5845 13.0161 62.9793 14.1207 59.0162C14.8902 56.261 16.4898 50.5285 21.0144 44.5273C26.1599 37.7001 32.3549 34.2009 34.7791 33.0143C44.0815 28.4586 53.0232 28.9762 57.5251 29.6905C62.8913 30.5419 66.7511 32.3665 69.3055 33.5729C72.7523 35.2023 79.5102 38.9985 86.0531 46.1227C89.6923 50.0844 94.7289 56.7956 98.0612 66.2592C99.1488 69.3482 101.695 76.5799 101.439 85.6588C101.251 92.3545 99.9027 97.8111 98.8051 101.208C95.7147 110.778 90.3288 117.993 82.7958 122.653C78.2344 125.475 73.0479 127.247 67.3791 127.918C65.5645 128.133 63.8601 128.213 62.3213 128.213L62.3227 128.215ZM57.122 127.329C59.4246 127.619 63.061 127.86 67.314 127.356C72.8994 126.694 78.0081 124.95 82.4988 122.172C89.9144 117.584 95.2197 110.473 98.2677 101.034C99.3539 97.6711 100.688 92.271 100.874 85.6432C101.128 76.6704 98.6057 69.5066 97.528 66.4473C94.2282 57.0728 89.2397 50.4281 85.6373 46.5046C79.1595 39.4511 72.4737 35.6945 69.065 34.0835C66.5404 32.8898 62.7244 31.0865 57.4389 30.2477C53.002 29.5434 44.1918 29.0342 35.0295 33.5206C32.642 34.6903 26.5404 38.1371 21.467 44.8667C17.0075 50.7831 15.4262 56.4463 14.6667 59.1675C13.5748 63.0825 12.9609 67.6354 12.9411 71.9888C12.9298 74.5347 13.1646 77.5035 13.6031 80.3506C14.8406 88.3871 17.5265 94.6571 19.0159 97.6782C19.8659 99.4023 22.1247 103.981 26.1953 109.023C31.0409 115.026 36.8413 119.72 43.4337 122.974C45.9329 124.208 50.5848 126.505 57.122 127.329Z" fill="black"/>
<path d="M56.8621 79.0581C56.7998 79.0581 56.739 79.0383 56.6881 78.9987L48.1552 72.3285C48.0321 72.2323 48.0109 72.0541 48.1071 71.931C48.2033 71.808 48.3815 71.7868 48.5045 71.8829L56.582 78.1981L56.6245 60.5241C56.6245 60.3685 56.7518 60.2412 56.9073 60.2412C57.0629 60.2412 57.1902 60.3685 57.1902 60.5241L57.1464 78.7766C57.1464 78.8841 57.0841 78.9831 56.9865 79.0298C56.9469 79.0496 56.9045 79.0581 56.8635 79.0581H56.8621Z" fill="black"/>
<path d="M43.668 51.7954C43.5633 51.7954 43.4629 51.7374 43.4134 51.637L40.1221 44.8777C40.0542 44.7377 40.1122 44.568 40.2523 44.5001C40.3923 44.4322 40.562 44.4902 40.6299 44.6302L43.9212 51.3895C43.989 51.5295 43.9311 51.6992 43.791 51.7671C43.7514 51.7869 43.709 51.7954 43.668 51.7954Z" fill="black"/>
<path d="M33.9801 61.0834C33.9193 61.0834 33.8585 61.0636 33.8062 61.024L28.0779 56.5701C27.9549 56.4739 27.9322 56.2971 28.0284 56.1727C28.1246 56.0496 28.3014 56.027 28.4259 56.1231L34.1541 60.577C34.2771 60.6732 34.2998 60.85 34.2036 60.9745C34.1484 61.0466 34.065 61.0834 33.9801 61.0834Z" fill="black"/>
<path d="M30.3519 75.1475C30.3377 75.1475 30.3236 75.1475 30.308 75.1446L23.7552 74.1334C23.6011 74.1093 23.495 73.9651 23.519 73.8109C23.5431 73.6567 23.6873 73.5506 23.8415 73.5747L30.3943 74.586C30.5485 74.61 30.6546 74.7543 30.6305 74.9084C30.6093 75.0485 30.4891 75.1489 30.3519 75.1489V75.1475Z" fill="black"/>
<path d="M28.3229 93.0653C28.2183 93.0653 28.1179 93.0073 28.0683 92.9069C27.999 92.7669 28.057 92.5971 28.1971 92.5278L33.8489 89.75C33.9889 89.6807 34.1587 89.7387 34.228 89.8787C34.2973 90.0187 34.2393 90.1884 34.0993 90.2577L28.4474 93.0356C28.4078 93.0554 28.3654 93.0653 28.3229 93.0653Z" fill="black"/>
<path d="M56.9079 107.869C57.0635 107.869 57.1908 107.996 57.1908 108.152V115.406C57.1908 115.562 57.0635 115.689 56.9079 115.689C56.7523 115.689 56.625 115.562 56.625 115.406V108.152C56.625 107.996 56.7523 107.869 56.9079 107.869Z" fill="black"/>
<path d="M73.4641 113.181C73.3594 113.181 73.259 113.123 73.2095 113.022L69.9112 106.249C69.8433 106.109 69.9013 105.939 70.0413 105.871C70.1814 105.803 70.3511 105.861 70.419 106.001L73.7173 112.775C73.7852 112.915 73.7272 113.084 73.5872 113.152C73.5476 113.172 73.5051 113.181 73.4641 113.181Z" fill="black"/>
<path d="M85.5803 101.622C85.5195 101.622 85.4587 101.602 85.4064 101.562L79.7333 97.1268C79.6103 97.0307 79.589 96.8524 79.6852 96.7294C79.7814 96.6063 79.9596 96.5851 80.0826 96.6813L85.7557 101.117C85.8788 101.213 85.9 101.391 85.8038 101.514C85.7486 101.585 85.6652 101.623 85.5803 101.623V101.622Z" fill="black"/>
<path d="M90.1034 84.0575C90.0893 84.0575 90.0737 84.0575 90.0581 84.0533L83.5195 83.0123C83.3653 82.9883 83.2606 82.8426 83.2847 82.6884C83.3087 82.5342 83.4544 82.4296 83.6086 82.4536L90.1472 83.4946C90.3014 83.5187 90.4061 83.6643 90.382 83.8185C90.3594 83.9571 90.2392 84.0575 90.1034 84.0575Z" fill="black"/>
<path d="M79.9158 67.8713C79.8111 67.8713 79.7107 67.8133 79.6612 67.7129C79.5933 67.5729 79.6513 67.4032 79.7913 67.3353L85.4729 64.5645C85.6129 64.4966 85.7826 64.5546 85.8505 64.6946C85.9184 64.8347 85.8604 65.0044 85.7204 65.0723L80.0388 67.843C79.9992 67.8628 79.9568 67.8713 79.9144 67.8713H79.9158Z" fill="black"/>
<path d="M70.2042 55.7207C70.1561 55.7207 70.108 55.7079 70.0642 55.6839C69.9284 55.6061 69.8817 55.4336 69.9595 55.2978L73.2508 49.5427C73.3285 49.4069 73.5011 49.3602 73.6369 49.438C73.7727 49.5158 73.8193 49.6884 73.7415 49.8241L70.4503 55.5792C70.398 55.6712 70.3032 55.7221 70.2042 55.7221V55.7207Z" fill="black"/>
<path d="M56.9079 49.6923C56.7523 49.6923 56.625 49.565 56.625 49.4094V42.2399C56.625 42.0843 56.7523 41.957 56.9079 41.957C57.0635 41.957 57.1908 42.0843 57.1908 42.2399V49.4094C57.1908 49.565 57.0635 49.6923 56.9079 49.6923Z" fill="black"/>
<path d="M47.0599 102.249C45.2396 98.0112 42.7503 95.3267 41.7079 94.2815C40.121 92.6889 37.493 90.1105 33.4409 88.9295C32.6078 88.6876 30.7323 88.1586 28.2487 88.31C26.8682 88.3948 25.7297 88.6622 24.9136 88.9097C20.8543 90.9025 16.7951 92.8968 12.7344 94.8896C17.1062 93.2504 21.198 94.8062 22.8967 95.4526C28.3887 97.5416 31.1764 101.857 32.7902 104.355C36.2668 109.735 36.7378 114.856 36.8339 116.366C36.9358 117.972 37.0433 119.909 36.4209 122.323C36.0518 123.753 34.6219 129.292 29.6418 131.888V131.891C34.0165 129.764 38.3898 127.638 42.7644 125.511C43.9412 124.648 45.8803 122.986 47.3173 120.279C48.6482 117.771 48.9127 115.566 49.074 114.09C49.6864 108.512 47.8717 104.144 47.0571 102.249H47.0599Z" fill="#FF535E"/>
<path d="M29.6412 132.174C29.5775 132.174 29.5139 132.153 29.463 132.111C29.3781 132.041 29.3399 131.93 29.3668 131.822C29.3866 131.744 29.4389 131.674 29.5111 131.637C31.733 130.478 34.6891 127.91 36.1473 122.252C36.7711 119.832 36.6494 117.92 36.5518 116.384C36.4019 114.029 35.6834 109.355 32.5534 104.509C30.9254 101.99 28.2014 97.7738 22.797 95.7173C21.0941 95.0695 17.1084 93.5533 12.8356 95.1558C12.7125 95.2025 12.5753 95.1558 12.5032 95.0497C12.4961 95.0384 12.489 95.0285 12.4834 95.0158C12.4494 94.9479 12.4438 94.8701 12.4678 94.7994C12.4919 94.7286 12.5442 94.6692 12.6107 94.6353L24.7899 88.6553C24.804 88.6482 24.8182 88.6426 24.8323 88.6383C25.9383 88.3031 27.0826 88.098 28.2311 88.0273C30.8137 87.8689 32.7797 88.4417 33.5194 88.6567C37.7244 89.8816 40.4456 92.6127 41.9067 94.0794C43.471 95.6494 45.6788 98.3197 47.3181 102.134C48.0493 103.834 49.9898 108.352 49.3562 114.118C49.2048 115.496 48.9517 117.803 47.567 120.409C46.4694 122.477 44.867 124.32 42.9321 125.736C42.9179 125.746 42.9038 125.754 42.8882 125.763L29.7656 132.143C29.726 132.162 29.6836 132.171 29.6426 132.171L29.6412 132.174ZM16.8326 93.8772C19.5496 93.8772 21.8098 94.7371 22.9964 95.1883C28.5747 97.3099 31.3625 101.624 33.0272 104.202C36.2279 109.155 36.962 113.939 37.1148 116.349C37.2095 117.842 37.3396 119.888 36.6933 122.394C36.0625 124.845 34.8305 127.917 32.4388 130.217L42.6153 125.269C44.4723 123.904 46.0112 122.134 47.0649 120.148C48.3972 117.637 48.6433 115.397 48.7904 114.06C49.4071 108.442 47.509 104.025 46.7948 102.362C45.1908 98.6295 43.0325 96.0171 41.5036 94.4825C40.0779 93.0512 37.4231 90.3865 33.3582 89.2027C32.6439 88.9948 30.7472 88.4432 28.2622 88.5945C27.1646 88.661 26.0727 88.8576 25.0148 89.1758L15.2273 93.9818C15.7746 93.9097 16.3107 93.8786 16.8298 93.8786L16.8326 93.8772Z" fill="black"/>
<path d="M12.2618 95.0821C16.809 93.1388 21.1384 94.7851 22.8979 95.4555C28.3899 97.5446 31.1777 101.86 32.7915 104.358C36.268 109.738 36.739 114.859 36.8352 116.369C36.937 117.975 37.0445 119.912 36.4222 122.326C36.046 123.784 34.5693 129.518 29.3475 132.044C24.0436 134.61 18.6194 132.058 16.8076 131.205C11.9252 128.908 9.55043 125.012 8.05543 122.559C4.62981 116.939 4.34835 111.656 4.30875 110.199C4.24086 107.745 4.15175 104.55 6.0159 101.113C6.66934 99.908 8.46702 96.7044 12.2618 95.0821Z" fill="#FF7E88"/>
<path d="M24.3776 133.439C20.8968 133.439 17.9308 132.043 16.6904 131.46C11.7302 129.126 9.2805 125.106 7.81662 122.705C4.67953 117.558 4.09681 112.664 4.0275 110.206C3.95961 107.79 3.86768 104.481 5.7686 100.977C6.36688 99.874 8.19002 96.5149 12.1531 94.8218C16.805 92.8332 21.1471 94.4852 23.0014 95.1896C28.5811 97.3126 31.3674 101.625 33.0321 104.203C36.2329 109.157 36.9669 113.94 37.1197 116.35C37.2145 117.844 37.3446 119.889 36.6982 122.395C35.8383 125.733 33.8864 130.161 29.4721 132.297C27.7438 133.133 26.0027 133.439 24.3747 133.439H24.3776ZM12.2648 95.0821L12.3766 95.3423C8.59453 96.959 6.84353 100.187 6.26788 101.247C4.43909 104.616 4.52536 107.707 4.59467 110.19C4.66115 112.593 5.23255 117.377 8.30034 122.411C9.82362 124.91 12.1262 128.688 16.9323 130.948C18.6918 131.775 24.0466 134.294 29.2289 131.788C33.448 129.747 35.3234 125.477 36.1537 122.255C36.7774 119.835 36.6558 117.923 36.5582 116.387C36.4083 114.032 35.6898 109.357 32.5597 104.512C30.9318 101.993 28.2077 97.7765 22.8034 95.72C21.0128 95.0397 16.8205 93.4442 12.3794 95.3423L12.2677 95.0821H12.2648Z" fill="black"/>
<path d="M18.5242 110.697L18.578 103.588C19.9443 103.97 21.312 104.352 22.6783 104.732C22.6825 107.105 22.6868 109.48 22.691 111.854C24.7235 112.395 26.7559 112.936 28.7884 113.477C28.7841 115.039 28.7799 116.602 28.7756 118.163C26.7305 117.635 24.6838 117.107 22.6387 116.579V123.7L18.5525 122.582V115.5C16.5116 114.945 14.4706 114.391 12.4297 113.835C12.4339 112.274 12.4382 110.711 12.4424 109.149C14.4706 109.664 16.4974 110.179 18.5257 110.694L18.5242 110.697Z" fill="#FF535E"/>
<path d="M22.6339 123.984C22.6084 123.984 22.5844 123.981 22.5589 123.974L18.4728 122.856C18.3497 122.822 18.2649 122.71 18.2649 122.583V115.717L12.35 114.109C12.2269 114.075 12.1406 113.963 12.1406 113.835L12.1534 109.149C12.1534 109.061 12.1944 108.979 12.2623 108.927C12.3316 108.873 12.4207 108.855 12.5055 108.876L18.2394 110.331L18.2903 103.583C18.2903 103.496 18.3328 103.412 18.4035 103.36C18.4742 103.307 18.5647 103.289 18.6496 103.313L22.7499 104.457C22.8715 104.491 22.9564 104.603 22.9564 104.729L22.9691 111.634L28.8557 113.202C28.9802 113.235 29.0665 113.348 29.0665 113.477L29.0537 118.163C29.0537 118.25 29.0127 118.332 28.9434 118.386C28.8741 118.44 28.785 118.458 28.7002 118.436L22.9168 116.944V123.7C22.9168 123.788 22.8757 123.871 22.805 123.925C22.7555 123.963 22.6947 123.983 22.6339 123.983V123.984ZM18.8292 122.368L22.3496 123.331V116.58C22.3496 116.492 22.3906 116.41 22.4599 116.357C22.5292 116.303 22.6197 116.284 22.7032 116.306L28.488 117.799L28.4993 113.696L22.6127 112.128C22.4896 112.095 22.4033 111.983 22.4019 111.855L22.3892 104.947L18.8518 103.96L18.8009 110.698C18.8009 110.785 18.7599 110.866 18.6906 110.92C18.6213 110.973 18.5322 110.992 18.4487 110.971L12.7163 109.515L12.705 113.621L18.6185 115.228C18.7415 115.262 18.8278 115.374 18.8278 115.501V122.366L18.8292 122.368Z" fill="black"/>
</g>
</g>
</svg>
