<svg width="120" height="152" viewBox="0 0 120 152" fill="none" xmlns="http://www.w3.org/2000/svg">
<g id="illustration / light / global-access">
<g id="illustration">
<path d="M70.3763 32.5003C66.4514 34.3503 62.5265 36.2003 58.6016 38.0517C60.1263 35.602 61.6495 33.1523 63.1742 30.704C65.5744 31.3037 67.9746 31.902 70.3763 32.5017V32.5003Z" fill="white"/>
<path d="M58.6024 38.3343C58.5232 38.3343 58.4454 38.3017 58.3917 38.2395C58.3082 38.1462 58.2969 38.009 58.3634 37.9015L62.9361 30.5538C63.0011 30.4491 63.1256 30.3996 63.2444 30.4293L70.4464 32.227C70.5624 32.2567 70.6472 32.3543 70.66 32.4745C70.6713 32.5933 70.6076 32.7065 70.4987 32.7574L58.724 38.3088C58.6858 38.3272 58.6448 38.3357 58.6038 38.3357L58.6024 38.3343ZM63.3066 31.0276L59.3492 37.3866L69.5384 32.5834L63.3066 31.0276Z" fill="black"/>
<path d="M70.3763 32.5003C66.4514 34.3503 62.5265 36.2003 58.6016 38.0517C64.2789 37.2469 69.9562 36.4404 75.6335 35.6356C73.8811 34.5904 72.1287 33.5451 70.3748 32.5013L70.3763 32.5003Z" fill="white"/>
<path d="M58.6024 38.3343C58.4793 38.3343 58.3674 38.2538 58.332 38.1322C58.2924 37.9978 58.3561 37.8549 58.4819 37.7955L70.2566 32.2441C70.3415 32.2031 70.4419 32.2087 70.5225 32.2568L75.7812 35.3925C75.8844 35.4533 75.9368 35.5736 75.9141 35.6909C75.8901 35.8083 75.7953 35.8989 75.6765 35.9158L58.6446 38.3316C58.6319 38.333 58.6177 38.3344 58.605 38.3344L58.6024 38.3343ZM70.3613 32.8212L60.4182 37.5084L74.801 35.4675L70.3613 32.8198V32.8212Z" fill="black"/>
<path d="M75.6335 35.6366C69.9562 36.4414 64.2789 37.2469 58.6016 38.0517C65.2505 38.633 71.8995 39.215 78.5499 39.7963C77.5783 38.4102 76.6066 37.0227 75.6349 35.6366H75.6335Z" fill="white"/>
<path d="M78.5517 40.0791C78.5432 40.0791 78.5347 40.0791 78.5276 40.0791L58.5793 38.3352C58.4364 38.3225 58.3247 38.2051 58.3204 38.0608C58.3162 37.9165 58.4209 37.7935 58.5637 37.7737L75.5956 35.3579C75.7017 35.3438 75.8064 35.389 75.8672 35.4753L78.7822 39.635C78.8459 39.7255 78.8501 39.8429 78.795 39.9391C78.744 40.0268 78.6507 40.0805 78.5503 40.0805L78.5517 40.0791ZM61.0884 37.9858L77.9718 39.461L75.5037 35.9407L61.0884 37.9858Z" fill="black"/>
<path d="M78.5499 39.7963C71.901 39.215 65.252 38.633 58.6016 38.0517C65.1388 40.0969 71.6775 42.143 78.2147 44.1882C78.3265 42.7243 78.4382 41.2604 78.5485 39.7966L78.5499 39.7963Z" fill="white"/>
<path d="M78.2162 44.4707C78.1879 44.4707 78.1596 44.4664 78.1313 44.458L58.5182 38.3224C58.381 38.2785 58.2975 38.1399 58.3258 37.9971C58.3541 37.8556 58.4842 37.7566 58.6285 37.7708L78.5769 39.5147C78.731 39.5274 78.8456 39.6632 78.8343 39.8174L78.5005 44.209C78.4934 44.2953 78.4482 44.3731 78.3774 44.4212C78.3308 44.4537 78.2742 44.4693 78.219 44.4693L78.2162 44.4707ZM61.1786 38.5614L77.9616 43.8116L78.2473 40.0536L61.1772 38.5614H61.1786Z" fill="black"/>
<path d="M74.9207 48.1352C76.0182 46.8184 77.1172 45.503 78.2147 44.1863C71.6775 42.1411 65.1388 40.0959 58.6016 38.0507C64.0413 41.4112 69.481 44.7732 74.9207 48.1338V48.1352Z" fill="white"/>
<path d="M74.9225 48.4185C74.8716 48.4185 74.8207 48.4043 74.774 48.376L58.4549 38.2929C58.3333 38.218 58.2866 38.0638 58.346 37.9351C58.4054 37.805 58.5511 37.7399 58.6883 37.7823L78.3014 43.9179C78.392 43.9462 78.4613 44.0169 78.4881 44.1074C78.515 44.198 78.4938 44.2956 78.4344 44.3691L75.1403 48.318C75.0851 48.3845 75.0045 48.4199 74.9225 48.4199V48.4185ZM60.6656 38.993L74.8631 47.7664L77.73 44.3309L60.667 38.993H60.6656Z" fill="black"/>
<path d="M58.6016 38.0517C64.0413 41.4123 69.481 44.7732 74.9207 48.1338C73.0042 49.1465 71.0877 50.1596 69.1712 51.1723C65.648 46.7976 62.1248 42.4254 58.6016 38.0507V38.0517Z" fill="white"/>
<path d="M69.1732 51.4568C69.0898 51.4568 69.0078 51.42 68.9526 51.3507L58.383 38.2281C58.2967 38.1206 58.2995 37.9665 58.3915 37.8632C58.482 37.76 58.6347 37.7373 58.7521 37.8095L75.0712 47.8926C75.1575 47.9463 75.2084 48.0411 75.2056 48.1429C75.2027 48.2448 75.1448 48.3367 75.0556 48.3834L69.3062 51.4214C69.2638 51.4441 69.2185 51.454 69.1747 51.454L69.1732 51.4568ZM59.861 39.1602L69.2482 50.8147L74.3541 48.116L59.861 39.1602Z" fill="black"/>
<path d="M58.6016 38.0517C62.1248 42.4264 65.648 46.8006 69.1712 51.1752C66.6861 51.683 64.2011 52.1908 61.716 52.6999C60.6779 47.8175 59.6397 42.9351 58.6016 38.0541V38.0517Z" fill="white"/>
<path d="M61.7167 52.9814C61.5866 52.9814 61.4692 52.8908 61.4409 52.7579L58.3264 38.112C58.2995 37.9833 58.3632 37.8532 58.482 37.798C58.6008 37.7414 58.7422 37.774 58.8243 37.8758L69.3939 50.9984C69.4562 51.0748 69.4731 51.1794 69.4392 51.2714C69.4052 51.3647 69.326 51.4326 69.2299 51.4524L61.7747 52.9771C61.7549 52.9814 61.7365 52.9828 61.7181 52.9828L61.7167 52.9814ZM59.1255 39.153L61.9359 52.3661L68.6613 50.9913L59.127 39.1544L59.1255 39.153Z" fill="black"/>
<path d="M58.6037 38.0517C59.6419 42.9341 60.68 47.8165 61.7182 52.6975C59.086 52.6565 56.4539 52.6155 53.8203 52.5759C55.4143 47.7345 57.0076 42.8931 58.6016 38.0517L58.6037 38.0517Z" fill="white"/>
<path d="M61.72 52.9807H61.7157L53.8179 52.8591C53.7273 52.8591 53.6439 52.8138 53.5916 52.7403C53.5392 52.6667 53.5251 52.5734 53.5534 52.4871L58.3354 37.9628C58.375 37.8412 58.491 37.7606 58.6197 37.7691C58.747 37.7761 58.8545 37.8681 58.8813 37.9925L61.9958 52.6384C62.0142 52.7233 61.993 52.811 61.9378 52.8774C61.884 52.9425 61.8034 52.9807 61.72 52.9807ZM54.2111 52.299L61.3692 52.4093L58.5461 39.1339L54.2111 52.2976V52.299Z" fill="black"/>
<path d="M58.6106 38.0517C57.0166 42.8931 55.4226 47.7345 53.8286 52.5759C51.4383 51.9493 49.048 51.3242 46.6562 50.6976C50.6405 46.4828 54.6263 42.2665 58.6106 38.0517Z" fill="white"/>
<path d="M53.831 52.8591C53.807 52.8591 53.7829 52.8563 53.7589 52.8492L46.5866 50.9709C46.4904 50.9455 46.414 50.8705 46.3857 50.7757C46.3589 50.6796 46.3829 50.5763 46.4522 50.5042L58.4065 37.8582C58.4971 37.7621 58.6427 37.7408 58.7573 37.8102C58.8705 37.878 58.9228 38.0152 58.8818 38.1411L54.0998 52.6654C54.0602 52.7842 53.9512 52.8605 53.831 52.8605V52.8591ZM47.1934 50.5452L53.6457 52.2354L57.9483 39.168L47.1934 50.5466V50.5452Z" fill="black"/>
<path d="M58.6074 38.0521C54.6231 42.2669 50.6374 46.4832 46.6531 50.698C44.8625 49.6245 43.0718 48.551 41.2812 47.4761C47.0562 44.3348 52.8311 41.1934 58.606 38.0507L58.6074 38.0521Z" fill="white"/>
<path d="M46.6548 50.981C46.6053 50.981 46.5544 50.9682 46.5091 50.94L41.1373 47.718C41.0496 47.6657 40.9973 47.5709 41.0001 47.4691C41.0029 47.3672 41.0581 47.2753 41.1472 47.2272L58.4719 37.8018C58.5935 37.7353 58.7463 37.7679 58.8312 37.8782C58.916 37.9885 58.9075 38.1441 58.8128 38.2445L46.8585 50.8905C46.8033 50.9484 46.7283 50.9796 46.6534 50.9796L46.6548 50.981ZM41.8544 47.4889L46.6067 50.3388L57.182 39.1511L41.8544 47.4889Z" fill="black"/>
<path d="M58.6062 38.0517C52.8313 41.193 47.0564 44.3343 41.2815 47.4771C40.3679 46.1037 39.4528 44.7303 38.5391 43.357C45.2277 41.589 51.9177 39.821 58.6062 38.0517Z" fill="white"/>
<path d="M41.2839 47.7602C41.192 47.7602 41.1029 47.715 41.0477 47.6344L38.3052 43.5143C38.2543 43.4379 38.2444 43.3431 38.2755 43.2569C38.3066 43.1706 38.3788 43.1069 38.4679 43.0843L58.5351 37.779C58.6737 37.7422 58.8179 37.8143 58.8703 37.9487C58.9226 38.0817 58.8689 38.233 58.743 38.3023L41.4183 47.7277C41.3758 47.7518 41.3292 47.7617 41.2839 47.7617V47.7602ZM38.9954 43.5284L41.3758 47.104L56.4107 38.9246L38.9954 43.5284Z" fill="black"/>
<path d="M58.6062 38.0517C51.9177 39.8196 45.2277 41.5876 38.5391 43.357C38.6607 41.8889 38.7838 40.4193 38.9054 38.9512C45.4723 38.6514 52.0393 38.3529 58.6062 38.0531V38.0517Z" fill="white"/>
<path d="M38.5401 43.6403C38.4751 43.6403 38.41 43.6177 38.3591 43.5738C38.2884 43.5144 38.2516 43.4253 38.2587 43.3334L38.625 38.9276C38.6363 38.7862 38.7523 38.6744 38.8937 38.6688L58.5946 37.7706C58.7389 37.765 58.8647 37.8668 58.8874 38.0111C58.9086 38.1539 58.8195 38.2897 58.6795 38.3279L38.6123 43.6332C38.5882 43.6389 38.5642 43.6431 38.5401 43.6431V43.6403ZM39.1681 39.2218L38.8555 42.9812L55.9752 38.4552L39.1667 39.2218H39.1681Z" fill="black"/>
<path d="M58.6074 38.0521C52.0404 38.3519 45.4734 38.6508 38.9064 38.9506C40.0252 37.6225 41.1454 36.2944 42.2641 34.9678C47.7123 35.996 53.1606 37.0238 58.6074 38.0521Z" fill="white"/>
<path d="M38.9075 39.2336C38.8 39.2336 38.701 39.1728 38.6544 39.0752C38.6049 38.9748 38.619 38.8531 38.6911 38.7683L42.0489 34.7854C42.1139 34.7076 42.2172 34.6708 42.3176 34.6892L58.6607 37.774C58.8022 37.8008 58.9012 37.9281 58.8899 38.0724C58.88 38.2153 58.764 38.3284 58.6211 38.3355L38.9203 39.2336C38.9203 39.2336 38.9118 39.2336 38.9075 39.2336ZM42.3756 35.2762L39.5412 38.6396L56.1728 37.8815L42.3756 35.2776V35.2762Z" fill="black"/>
<path d="M58.6016 38.0517C53.1534 37.0234 47.7046 35.9958 42.2578 34.9676C44.1276 33.9818 45.996 32.9959 47.8658 32.0087C51.4442 34.0228 55.0226 36.0383 58.6024 38.0523L58.6016 38.0517Z" fill="white"/>
<path d="M58.6024 38.3343C58.5854 38.3343 58.5677 38.3333 58.5507 38.3291L42.2076 35.2443C42.0888 35.2217 41.9983 35.1269 41.9799 35.0081C41.9615 34.8893 42.0209 34.7719 42.127 34.7153L47.735 31.7565C47.8198 31.7112 47.9217 31.7126 48.0051 31.7607L58.7417 37.8043C58.8619 37.8722 58.9156 38.0179 58.869 38.148C58.8279 38.2612 58.7204 38.3333 58.6031 38.3333L58.6024 38.3343ZM43.1086 34.8384L56.9666 37.455L47.8637 32.3307L43.1086 34.8398V34.8384Z" fill="black"/>
<path d="M58.6115 38.0524C55.0332 36.0383 51.4548 34.0228 47.875 32.0088L55.3033 30.4784C56.4065 33.0031 57.5083 35.5277 58.6115 38.0524Z" fill="white"/>
<path d="M58.6134 38.3351C58.5653 38.3351 58.5186 38.3238 58.4748 38.2984L47.7382 32.2547C47.635 32.1967 47.5798 32.0808 47.5968 31.9648C47.6152 31.8488 47.7043 31.7555 47.8188 31.7314L55.2472 30.2011C55.3787 30.1742 55.5102 30.2421 55.564 30.3651L58.8722 37.9391C58.9203 38.0508 58.8934 38.181 58.8029 38.2616C58.7491 38.3097 58.6813 38.3351 58.6134 38.3351ZM48.676 32.1331L58.0165 37.3917L55.1382 30.8022L48.676 32.1345V32.1331Z" fill="black"/>
<path d="M55.2969 30.4784C57.9234 30.5534 60.5513 30.6298 63.1778 30.7047C61.6531 33.1544 60.1298 35.6041 58.6051 38.0524C57.5019 35.5277 56.4001 33.0031 55.2969 30.4784Z" fill="white"/>
<path d="M58.6075 38.335C58.6075 38.335 58.5934 38.335 58.5863 38.335C58.4817 38.3279 58.3897 38.2628 58.3473 38.1666L55.0391 30.5927C55.0009 30.5036 55.0094 30.4017 55.0645 30.3211C55.1183 30.2405 55.2102 30.191 55.3064 30.1966L63.1873 30.4229C63.2891 30.4258 63.3811 30.4823 63.4277 30.5714C63.4744 30.6605 63.4716 30.768 63.4192 30.8543L58.8466 38.202C58.7942 38.2855 58.7037 38.335 58.6061 38.335H58.6075ZM55.7378 30.7737L58.6514 37.4467L62.6795 30.9731L55.7378 30.7737Z" fill="black"/>
<path d="M36.3449 130.502C33.0636 128.525 29.7822 126.549 26.5009 124.572C23.2068 120.804 19.9113 117.037 16.6172 113.269C20.9961 115.926 25.3764 118.58 29.7553 121.237C31.9519 124.326 34.1484 127.413 36.3449 130.502Z" fill="#CED0D6"/>
<path d="M36.3459 130.784C36.2963 130.784 36.2454 130.771 36.2002 130.743L26.3561 124.812C26.3306 124.797 26.308 124.778 26.2896 124.756L16.406 113.453C16.314 113.349 16.3126 113.192 16.4017 113.086C16.4908 112.979 16.645 112.954 16.7652 113.026L29.9034 120.993C29.9359 121.013 29.9642 121.04 29.9868 121.071L36.5764 130.337C36.6542 130.446 36.6443 130.594 36.5538 130.693C36.4986 130.753 36.4222 130.784 36.3459 130.784ZM26.6857 124.351L35.3275 129.557L29.5597 121.447L18.0339 114.457L26.6857 124.35V124.351Z" fill="black"/>
<path d="M49.7854 133.937C45.3061 132.793 40.8267 131.647 36.3474 130.503C34.1509 127.414 31.9543 124.326 29.7578 121.237C35.5751 122.701 41.3925 124.166 47.2098 125.63C48.0683 128.4 48.9269 131.168 49.7854 133.937Z" fill="#CED0D6"/>
<path d="M49.787 134.22C49.7644 134.22 49.7403 134.217 49.7163 134.211L36.2783 130.777C36.2132 130.76 36.1567 130.722 36.1185 130.667L29.5289 121.401C29.4596 121.305 29.4596 121.175 29.5261 121.077C29.5925 120.98 29.7142 120.933 29.8287 120.963L47.2807 125.356C47.3769 125.38 47.4533 125.452 47.4816 125.547L50.0572 133.854C50.0869 133.951 50.0628 134.059 49.9921 134.132C49.9384 134.189 49.8634 134.22 49.787 134.22ZM36.5202 130.254L49.3684 133.537L46.9894 125.865L30.4369 121.698L36.5216 130.254H36.5202Z" fill="black"/>
<path d="M64.481 134.23C59.5802 134.132 54.6794 134.035 49.7785 133.937C48.92 131.168 48.0615 128.4 47.203 125.631C53.5436 125.764 59.8843 125.896 66.2249 126.029C65.6436 128.763 65.0623 131.496 64.481 134.23Z" fill="#CED0D6"/>
<path d="M64.4824 134.513H64.4768L49.7743 134.22C49.6527 134.217 49.5452 134.138 49.5099 134.021L46.9343 125.714C46.9074 125.628 46.9244 125.533 46.9781 125.46C47.0319 125.386 47.1196 125.348 47.2101 125.346L66.232 125.745C66.3169 125.747 66.3961 125.786 66.4484 125.853C66.5008 125.919 66.5206 126.006 66.5036 126.088L64.7597 134.288C64.7314 134.418 64.6168 134.512 64.4824 134.512V134.513ZM49.9893 133.659L64.2547 133.943L65.8784 126.305L47.5905 125.922L49.9893 133.659Z" fill="black"/>
<path d="M78.2879 131.34C73.6842 132.304 69.0804 133.267 64.4766 134.229C65.0579 131.495 65.6392 128.762 66.2205 126.028C72.1976 124.821 78.1748 123.614 84.152 122.407C82.1973 125.384 80.2426 128.362 78.2879 131.339V131.34Z" fill="#CED0D6"/>
<path d="M64.4787 134.512C64.4038 134.512 64.3316 134.483 64.2779 134.429C64.21 134.361 64.1817 134.264 64.2015 134.17L65.9454 125.97C65.9695 125.859 66.0558 125.773 66.1661 125.752L84.0975 122.131C84.2093 122.107 84.3239 122.155 84.3875 122.25C84.4511 122.345 84.4526 122.468 84.3903 122.564L78.5263 131.496C78.4853 131.558 78.4217 131.602 78.3481 131.617L64.5367 134.505C64.5169 134.51 64.4985 134.511 64.4787 134.511V134.512ZM66.4617 126.27L64.8465 133.863L78.1176 131.087L83.5445 122.818L66.4603 126.268L66.4617 126.27Z" fill="black"/>
<path d="M98.1766 115.227C95.1286 118.782 92.0792 122.336 89.0313 125.89C85.4501 127.708 81.8689 129.524 78.2891 131.341C80.2437 128.364 82.1984 125.387 84.1531 122.41C88.8276 120.015 93.5021 117.622 98.1766 115.227Z" fill="#CED0D6"/>
<path d="M78.2904 131.622C78.2112 131.622 78.1349 131.59 78.0797 131.528C77.9948 131.433 77.9835 131.291 78.0542 131.184L83.9183 122.252C83.9451 122.211 83.9819 122.179 84.0257 122.156L98.0493 114.974C98.1695 114.912 98.3166 114.944 98.4001 115.05C98.4835 115.156 98.4807 115.306 98.393 115.409L89.2476 126.072C89.2236 126.101 89.1939 126.123 89.1613 126.14L78.4192 131.591C78.3781 131.612 78.3343 131.622 78.2919 131.622H78.2904ZM84.3496 122.626L79.1094 130.607L88.8544 125.662L97.0267 116.134L84.3482 122.626H84.3496Z" fill="black"/>
<path d="M98.1875 115.227C100.856 111.999 103.525 108.77 106.194 105.543C107.552 100.131 108.91 94.7199 110.268 89.3085C107.36 92.7624 104.45 96.2177 101.542 99.6716C100.424 104.857 99.3063 110.042 98.1875 115.227Z" fill="#CED0D6"/>
<path d="M98.1887 115.51C98.1463 115.51 98.1053 115.5 98.0657 115.482C97.9483 115.425 97.8846 115.295 97.9129 115.168L101.268 99.6122C101.278 99.567 101.298 99.5246 101.329 99.4892L110.054 89.126C110.139 89.0256 110.282 88.9959 110.399 89.0567C110.516 89.1161 110.577 89.2491 110.545 89.3778L106.471 105.612C106.461 105.653 106.442 105.691 106.415 105.724L98.408 115.408C98.3528 115.474 98.2722 115.511 98.1901 115.511L98.1887 115.51ZM101.805 99.8004L98.7106 114.152L105.938 105.411L109.698 90.4273L101.805 99.8004Z" fill="black"/>
<path d="M101.542 99.6716C100.424 104.857 99.3063 110.042 98.1875 115.227C93.513 117.621 88.8386 120.015 84.1641 122.409C84.8925 117.439 85.6195 112.47 86.3479 107.5C91.4128 104.891 96.4776 102.283 101.544 99.6732L101.542 99.6716Z" fill="#CED0D6"/>
<path d="M84.1645 122.69C84.1065 122.69 84.0486 122.672 84.0005 122.638C83.9142 122.576 83.8704 122.473 83.8859 122.367L86.0697 107.458C86.0824 107.367 86.139 107.289 86.2196 107.247L101.416 99.4197C101.513 99.3702 101.631 99.3801 101.717 99.4466C101.803 99.5131 101.844 99.6234 101.822 99.7309L98.4667 115.286C98.4483 115.37 98.3946 115.439 98.3196 115.479L84.2961 122.661C84.2551 122.682 84.2112 122.692 84.1674 122.692L84.1645 122.69ZM86.6072 107.684L84.5252 121.907L97.942 115.036L101.143 100.198L86.6086 107.684H86.6072Z" fill="black"/>
<path d="M66.2266 126.03C72.2037 124.823 78.1809 123.615 84.158 122.409C84.8864 117.439 85.6134 112.47 86.3418 107.5C79.8541 108.831 73.3678 110.162 66.88 111.494C66.6622 116.34 66.4458 121.185 66.228 126.031L66.2266 126.03Z" fill="#CED0D6"/>
<path d="M66.2283 126.313C66.1619 126.313 66.0954 126.289 66.0445 126.245C65.978 126.188 65.9426 126.105 65.9455 126.017L66.5975 111.48C66.6032 111.35 66.6965 111.241 66.8238 111.216L86.2856 107.221C86.3762 107.203 86.4695 107.23 86.5374 107.292C86.6039 107.356 86.6364 107.448 86.6237 107.538L84.4399 122.447C84.4229 122.565 84.3324 122.659 84.2164 122.683L66.2849 126.304C66.2665 126.308 66.2481 126.31 66.2283 126.31V126.313ZM67.1534 111.726L66.5268 125.68L83.9081 122.171L86.0042 107.858L67.1534 111.726Z" fill="black"/>
<path d="M47.2071 125.631C53.5477 125.764 59.8884 125.897 66.229 126.029C66.4468 121.184 66.6632 116.338 66.8811 111.493C59.9676 111.36 53.0541 111.227 46.1406 111.094L47.2057 125.631H47.2071Z" fill="#CED0D6"/>
<path d="M66.2283 126.313L66.2229 126.312L66.0517 126.308L47.2009 125.912C47.0552 125.909 46.935 125.794 46.9251 125.65L45.8601 111.113C45.8544 111.034 45.8827 110.956 45.9365 110.898C45.9916 110.84 46.068 110.81 46.1472 110.81L66.8876 111.209C66.964 111.211 67.0361 111.243 67.0885 111.298C67.1408 111.354 67.1677 111.429 67.1649 111.505L66.5128 126.042C66.5058 126.193 66.3813 126.312 66.2299 126.312L66.2283 126.313ZM47.4682 125.353L65.957 125.741L66.5835 111.769L46.4442 111.382L47.4682 125.352V125.353Z" fill="black"/>
<path d="M29.751 121.237C35.5683 122.701 41.3856 124.167 47.203 125.631L46.1379 111.093C39.868 109.469 33.5981 107.846 27.3281 106.221C28.1357 111.226 28.9433 116.232 29.751 121.236V121.237Z" fill="#CED0D6"/>
<path d="M47.2055 125.913C47.1828 125.913 47.1588 125.91 47.1362 125.905L29.6842 121.512C29.5753 121.483 29.4918 121.394 29.4734 121.283L27.0506 106.268C27.035 106.173 27.069 106.078 27.1397 106.013C27.2104 105.948 27.308 105.925 27.4014 105.948L46.2112 110.82C46.3286 110.852 46.4134 110.953 46.4219 111.074L47.4869 125.611C47.494 125.701 47.4558 125.789 47.3865 125.848C47.3356 125.892 47.2705 125.915 47.2041 125.915L47.2055 125.913ZM30.0038 121.008L46.8957 125.26L45.8745 111.317L27.68 106.604L30.0038 121.008Z" fill="black"/>
<path d="M16.6091 113.271C20.988 115.927 25.3683 118.581 29.7472 121.238C28.9396 116.232 28.132 111.227 27.3244 106.223C22.6273 103.414 17.9301 100.605 13.2344 97.7958C14.3588 102.954 15.4846 108.112 16.6091 113.271Z" fill="#CED0D6"/>
<path d="M29.7497 121.521C29.6988 121.521 29.6479 121.507 29.6026 121.48L16.4645 113.513C16.398 113.473 16.3513 113.406 16.3343 113.331L12.9596 97.8568C12.9356 97.7465 12.9794 97.6333 13.0714 97.5668C13.1633 97.5004 13.2849 97.4961 13.3811 97.5541L27.4711 105.981C27.5433 106.023 27.5914 106.097 27.6055 106.179L30.0283 121.194C30.0453 121.303 29.9986 121.412 29.9067 121.474C29.8586 121.507 29.8034 121.522 29.7483 121.522L29.7497 121.521ZM16.8619 113.092L29.3735 120.679L27.0695 106.398L13.6527 98.3744L16.8619 113.092Z" fill="black"/>
<path d="M6.04688 86.9926C7.43862 92.503 8.82895 98.0148 10.2207 103.525C12.3508 106.773 14.4808 110.021 16.6109 113.269C15.4864 108.111 14.3606 102.952 13.2362 97.7942C10.8402 94.1932 8.44424 90.5922 6.04829 86.9912L6.04688 86.9926Z" fill="#CED0D6"/>
<path d="M16.6127 113.553C16.5193 113.553 16.4302 113.506 16.3765 113.426L9.98634 103.682C9.96937 103.655 9.95664 103.627 9.94815 103.596L5.77433 87.063C5.74038 86.9301 5.80827 86.7915 5.93415 86.7349C6.06003 86.6797 6.20854 86.7222 6.28492 86.8367L13.4728 97.6397C13.4926 97.6694 13.5067 97.702 13.5138 97.7359L16.8885 113.211C16.9182 113.344 16.8475 113.479 16.7216 113.532C16.6862 113.547 16.6495 113.554 16.6127 113.554V113.553ZM10.4856 103.41L16.0102 111.836L12.9735 97.9071L6.72762 88.5212L10.4856 103.41Z" fill="black"/>
<path d="M6.05469 86.9919C6.34888 83.1463 6.64307 79.3006 6.93867 75.4563C8.27102 70.0406 9.60477 64.6236 10.9371 59.2079C10.7009 62.7184 10.4647 66.2303 10.2285 69.7408C8.83677 75.4916 7.44643 81.2425 6.05469 86.9933V86.9919Z" fill="#EBECEE"/>
<path d="M6.05575 87.2747C6.0416 87.2747 6.02604 87.2747 6.0119 87.2719C5.86622 87.2493 5.76297 87.1177 5.77428 86.9706L6.65827 75.435C6.65827 75.4194 6.66251 75.4039 6.66534 75.3883L10.6638 59.1399C10.6991 58.9971 10.8378 58.9066 10.982 58.9278C11.1263 58.9504 11.231 59.0805 11.2211 59.2262L10.5124 69.7591C10.5124 69.7746 10.5096 69.7916 10.5054 69.8072L6.33155 87.0597C6.30043 87.1885 6.18587 87.2761 6.05716 87.2761L6.05575 87.2747ZM7.21836 75.5L6.60452 83.5153L9.9467 69.6968L10.4361 62.4227L7.21695 75.5014L7.21836 75.5Z" fill="black"/>
<path d="M13.2426 97.7947C10.8466 94.1937 8.45064 90.5929 6.05469 86.9919C7.44643 81.2411 8.83677 75.49 10.2285 69.7392C12.4378 73.0276 14.6484 76.3146 16.8577 79.603C15.6526 85.6665 14.4476 91.7299 13.244 97.7933L13.2426 97.7947Z" fill="#EBECEE"/>
<path d="M13.2436 98.078C13.1502 98.078 13.0611 98.0313 13.0088 97.9521L5.8209 87.1491C5.77705 87.0841 5.76291 87.002 5.7813 86.9256L9.95512 69.6731C9.982 69.5642 10.0697 69.4807 10.18 69.4609C10.2903 69.4397 10.4021 69.4878 10.4643 69.5811L17.0935 79.445C17.1359 79.5072 17.1515 79.5836 17.1359 79.6572L13.5222 97.8475C13.4996 97.9592 13.4119 98.0483 13.3001 98.0695C13.2817 98.0738 13.2634 98.0752 13.245 98.0752L13.2436 98.078ZM6.35978 86.9384L13.1007 97.0682L16.5589 79.6642L10.354 70.4312L6.36119 86.9384H6.35978Z" fill="black"/>
<path d="M27.3244 106.223C22.6273 103.414 17.9301 100.605 13.2344 97.7958C14.4394 91.7324 15.6445 85.6688 16.8481 79.6054C21.1704 82.2163 25.4914 84.8287 29.8137 87.4396C28.9835 93.7011 28.1546 99.9612 27.3244 106.223Z" fill="#EBECEE"/>
<path d="M27.327 106.505C27.2761 106.505 27.2266 106.492 27.1813 106.465L13.0913 98.0385C12.988 97.9777 12.9357 97.8574 12.9583 97.74L16.5721 79.5497C16.5905 79.4592 16.6513 79.3829 16.7347 79.3461C16.8196 79.3093 16.9158 79.315 16.995 79.363L29.9606 87.1973C30.0567 87.2553 30.1091 87.3656 30.0949 87.4759L27.6056 106.259C27.5929 106.354 27.5335 106.436 27.4486 106.477C27.409 106.495 27.368 106.505 27.3256 106.505H27.327ZM13.5538 97.6552L27.1035 105.758L29.5122 87.5848L17.0501 80.0547L13.5538 97.6538V97.6552Z" fill="black"/>
<path d="M46.1457 111.093C39.8758 109.469 33.6059 107.845 27.3359 106.22C28.1662 99.9589 28.995 93.6989 29.8252 87.4374C35.5931 88.9239 41.3623 90.4104 47.1301 91.8969C46.802 98.2956 46.4739 104.694 46.1457 111.093Z" fill="#EBECEE"/>
<path d="M46.1469 111.376C46.1229 111.376 46.0988 111.373 46.0762 111.367L27.2664 106.495C27.1278 106.459 27.0387 106.325 27.0571 106.183L29.5464 87.4006C29.5577 87.3199 29.6015 87.2478 29.668 87.2025C29.7345 87.1573 29.8179 87.1431 29.8972 87.1629L47.2021 91.6225C47.3322 91.6564 47.4213 91.7766 47.4142 91.911L46.4298 111.107C46.4256 111.192 46.3831 111.27 46.3152 111.32C46.2657 111.356 46.2077 111.376 46.1483 111.376H46.1469ZM27.6511 106.01L45.8824 110.732L46.8386 92.1133L30.0655 87.7909L27.6511 106.01Z" fill="black"/>
<path d="M66.8811 111.494C59.9676 111.361 53.0541 111.228 46.1406 111.095C46.4688 104.697 46.7969 98.298 47.125 91.8993L66.2403 92.2727C66.4539 98.6798 66.6661 105.087 66.8796 111.496L66.8811 111.494Z" fill="#EBECEE"/>
<path d="M66.876 111.777L46.1356 111.378C46.0592 111.377 45.9857 111.344 45.9348 111.288C45.8824 111.231 45.8556 111.158 45.8598 111.08L46.8442 91.8839C46.8513 91.7325 46.9758 91.6151 47.1271 91.6151H47.1328L66.2481 91.9885C66.398 91.9914 66.5196 92.1116 66.5253 92.2615L67.1646 111.484C67.1674 111.562 67.1377 111.637 67.084 111.692C67.0302 111.746 66.9581 111.777 66.8831 111.777H66.876ZM46.4383 110.817L66.5875 111.204L65.9666 92.5486L47.393 92.1865L46.4369 110.817H46.4383Z" fill="black"/>
<path d="M86.3433 107.5C79.8556 108.831 73.3688 110.162 66.8811 111.494C66.6675 105.087 66.4558 98.6802 66.2422 92.2716L84.1666 88.6112L86.3433 107.5Z" fill="#EBECEE"/>
<path d="M66.8831 111.777C66.8195 111.777 66.7588 111.756 66.7079 111.716C66.6428 111.665 66.6032 111.586 66.6004 111.504L65.9611 92.2812C65.9568 92.144 66.0516 92.0223 66.1874 91.9941L84.1118 88.3336C84.1896 88.3181 84.2702 88.3351 84.3338 88.3817C84.3975 88.4284 84.4399 88.4991 84.4484 88.5783L86.6251 107.467C86.6421 107.613 86.5445 107.747 86.4017 107.777L66.9398 111.771C66.9214 111.776 66.9015 111.777 66.8831 111.777ZM66.5339 92.5004L67.1534 111.149L86.0325 107.275L83.9208 88.9489L66.5325 92.5004H66.5339Z" fill="black"/>
<path d="M101.537 99.6725C96.472 102.282 91.4071 104.89 86.3408 107.5L84.1641 88.6106C88.8301 86.2005 93.4961 83.7918 98.1607 81.3817C99.2852 87.4791 100.411 93.5751 101.535 99.6725H101.537Z" fill="#EBECEE"/>
<path d="M86.343 107.782C86.2978 107.782 86.2511 107.771 86.2101 107.748C86.128 107.704 86.0729 107.624 86.0616 107.53L83.8848 88.6414C83.8707 88.524 83.9315 88.4123 84.0362 88.3571L98.0329 81.1283C98.1121 81.0872 98.2068 81.0858 98.2874 81.1254C98.3681 81.165 98.4246 81.24 98.4416 81.3277L101.816 99.6184C101.839 99.7415 101.778 99.8645 101.668 99.9211L86.4717 107.748C86.4307 107.769 86.3869 107.779 86.3416 107.779L86.343 107.782ZM84.469 88.7715L86.5764 107.061L101.221 99.5166L97.9537 81.8072L84.469 88.7715Z" fill="black"/>
<path d="M110.256 89.3093C107.348 92.7632 104.439 96.2185 101.531 99.6724C99.3288 87.7393 98.1562 81.3817 98.1562 81.3817C98.1562 81.3817 100.945 78.0438 106.173 71.788L110.256 89.3093Z" fill="#EBECEE"/>
<path d="M101.533 99.9549C101.509 99.9549 101.485 99.9521 101.461 99.945C101.355 99.9167 101.276 99.8304 101.255 99.7229L97.8798 81.4322C97.8643 81.3488 97.8869 81.2639 97.9406 81.1988L105.957 71.6051C106.027 71.5231 106.136 71.4863 106.24 71.5118C106.345 71.5358 106.425 71.6178 106.45 71.7225L110.533 89.2438C110.553 89.3301 110.531 89.422 110.473 89.4899L101.748 99.8531C101.693 99.9181 101.614 99.9535 101.532 99.9535L101.533 99.9549ZM98.4611 81.4605L101.703 99.0313L109.952 89.2353L106.029 72.4042L98.4611 81.4619V81.4605Z" fill="black"/>
<path d="M106.908 61.1942C108.31 66.699 109.71 72.2038 111.112 77.7071C110.829 81.574 110.546 85.4409 110.263 89.3078L106.18 71.7865C106.423 68.2562 106.666 64.7245 106.908 61.1942Z" fill="#EBECEE"/>
<path d="M110.265 89.5919C110.135 89.5919 110.02 89.5028 109.989 89.3726L105.906 71.8513C105.899 71.8245 105.898 71.7962 105.899 71.7679L106.627 61.1756C106.637 61.037 106.746 60.9253 106.883 60.914C107.022 60.9026 107.149 60.9917 107.183 61.1261L111.387 77.639C111.394 77.6687 111.397 77.6984 111.395 77.7295L110.547 89.3302C110.537 89.4702 110.426 89.5806 110.286 89.5919C110.279 89.5919 110.271 89.5919 110.264 89.5919H110.265ZM106.468 71.7636L110.119 87.4335L110.829 77.7323L107.073 62.9733L106.468 71.7636Z" fill="black"/>
<path d="M106.902 61.1937C104.714 57.8586 102.528 54.5249 100.34 51.1898C97.1093 47.5224 93.8789 43.8549 90.6484 40.1874C92.3259 42.7008 94.0033 45.2155 95.6808 47.7289C99.4218 52.2167 103.161 56.7059 106.902 61.1937Z" fill="#EBECEE"/>
<path d="M106.905 61.477C106.824 61.477 106.744 61.4417 106.687 61.3752L95.4653 47.9103C95.4582 47.9032 95.4526 47.8948 95.4469 47.8863L90.4146 40.3448C90.3325 40.2203 90.3594 40.0549 90.4768 39.9629C90.5942 39.8724 90.7625 39.888 90.8615 39.9997L100.553 51.0021C100.561 51.012 100.57 51.0234 100.577 51.0347L107.14 61.0386C107.222 61.1644 107.192 61.3313 107.072 61.4204C107.021 61.4572 106.963 61.4756 106.903 61.4756L106.905 61.477ZM95.9094 47.561L103.953 57.2127L100.116 51.3642L93.2306 43.547L95.9094 47.561Z" fill="black"/>
<path d="M106.181 71.7885C106.424 68.2582 106.668 64.7265 106.909 61.1962C103.168 56.7084 99.4287 52.2192 95.6877 47.7313C95.4841 50.4554 95.2818 53.1809 95.0781 55.905C98.7781 61.2005 102.48 66.4945 106.18 71.7899L106.181 71.7885Z" fill="white"/>
<path d="M106.182 72.0709C106.091 72.0709 106.004 72.027 105.95 71.9507L94.8484 56.0658C94.8116 56.0121 94.7932 55.9484 94.7975 55.8834L95.4071 47.7097C95.4156 47.5951 95.4933 47.4961 95.6023 47.4607C95.7112 47.4254 95.8328 47.4607 95.9063 47.5484L107.128 61.0133C107.175 61.0699 107.197 61.1406 107.193 61.2141L106.465 71.8064C106.456 71.9266 106.374 72.027 106.258 72.0596C106.233 72.0667 106.207 72.0695 106.183 72.0695L106.182 72.0709ZM95.3703 55.8239L105.955 70.9691L106.622 61.2891L95.9205 48.448L95.3703 55.8239Z" fill="black"/>
<path d="M98.1607 81.3817C100.833 78.1838 103.506 74.986 106.178 71.7881C102.478 66.4927 98.7768 61.1987 95.0768 55.9032C93.0429 58.3374 91.0104 60.7715 88.9766 63.2042C92.0387 69.2634 95.0986 75.3226 98.1607 81.3817Z" fill="white"/>
<path d="M98.1638 81.6649C98.1525 81.6649 98.1426 81.6649 98.1312 81.6635C98.0365 81.6522 97.9544 81.5956 97.9106 81.5107L88.7256 63.3332C88.6747 63.2327 88.6889 63.1111 88.761 63.0248L94.8612 55.7238C94.9178 55.6559 95.0026 55.622 95.0903 55.622C95.178 55.6262 95.2601 55.6701 95.3096 55.7422L106.411 71.6271C106.485 71.7317 106.477 71.8732 106.397 71.9708L98.3802 81.5645C98.3264 81.6295 98.2458 81.6663 98.1638 81.6663V81.6649ZM89.3154 63.244L98.2232 80.8714L105.825 71.7728L95.0592 56.3688L89.3154 63.244Z" fill="black"/>
<path d="M84.1649 88.6114C88.8309 86.2013 93.4969 83.7926 98.1615 81.3826C95.0994 75.3234 92.0387 69.2634 88.9766 63.2042C85.3954 65.0783 81.8142 66.9545 78.2344 68.8285C80.2117 75.4224 82.1868 82.0168 84.1641 88.6106L84.1649 88.6114Z" fill="white"/>
<path d="M84.166 88.894C84.1278 88.894 84.091 88.8869 84.0556 88.8713C83.9779 88.8388 83.9199 88.7723 83.8958 88.6917L77.9653 68.9102C77.9257 68.7801 77.9851 68.6415 78.1054 68.5778L88.8475 62.9543C88.914 62.9189 88.9932 62.9118 89.0654 62.9359C89.1375 62.9585 89.1969 63.0094 89.2308 63.0773L98.4158 81.2549C98.4865 81.3935 98.4314 81.5632 98.2928 81.6339L84.2961 88.8628C84.2551 88.884 84.2112 88.894 84.166 88.894ZM78.5735 68.9724L84.3385 88.2037L97.7836 81.2606L88.8546 63.5893L78.5735 68.9724Z" fill="black"/>
<path d="M78.229 68.829C80.2063 75.4228 82.1822 82.0167 84.1595 88.6105L66.2351 92.2709C65.6312 85.397 65.0258 78.5217 64.4219 71.6479L78.229 68.829Z" fill="white"/>
<path d="M66.2378 92.5537C66.177 92.5537 66.1176 92.5339 66.0681 92.4971C66.0031 92.449 65.962 92.3755 65.955 92.2949L64.1417 71.6718C64.129 71.529 64.2266 71.3989 64.3666 71.3706L78.1738 68.5517C78.3166 68.522 78.4595 68.6069 78.5019 68.7483L84.4324 88.5298C84.455 88.6062 84.4451 88.6882 84.4041 88.7561C84.3631 88.824 84.2952 88.8721 84.2174 88.8876L66.293 92.548C66.2746 92.5523 66.2548 92.5537 66.2364 92.5537H66.2378ZM64.7273 71.8741L66.491 91.93L83.8016 88.394L78.0338 69.1571L64.7273 71.8741Z" fill="black"/>
<path d="M64.4271 71.6474C65.031 78.5213 65.6364 85.3966 66.2403 92.2704L47.125 91.897C48.0146 85.0472 48.9057 78.1974 49.7953 71.3476C54.6721 71.448 59.5489 71.547 64.4271 71.6474Z" fill="white"/>
<path d="M66.2427 92.5535L66.2378 92.5537L47.1217 92.1801C47.0411 92.1787 46.9647 92.1434 46.9124 92.0825C46.8601 92.0217 46.836 91.9411 46.8459 91.8619L49.5163 71.3124C49.5347 71.1696 49.6591 71.0663 49.802 71.0663L64.4337 71.3662C64.578 71.369 64.6968 71.4807 64.7095 71.625L66.5228 92.248C66.5298 92.3286 66.503 92.4064 66.4478 92.4658C66.394 92.5238 66.3191 92.5549 66.2413 92.5549L66.2427 92.5535ZM47.4485 91.6215L65.933 91.9821L64.1692 71.9248L50.0453 71.6363L47.4485 91.6215Z" fill="black"/>
<path d="M49.7953 71.3476C48.9057 78.1974 48.0146 85.0472 47.125 91.897C41.3572 90.4105 35.5881 88.9248 29.8203 87.4383C32.0437 80.9336 34.2671 74.4289 36.4891 67.9228C40.9246 69.0642 45.3599 70.2062 49.7953 71.3476Z" fill="white"/>
<path d="M47.1264 92.1809C47.1024 92.1809 47.0797 92.1781 47.0557 92.1724L29.7508 87.7129C29.6744 87.6931 29.6093 87.6422 29.5726 87.5729C29.5358 87.5036 29.5287 87.4215 29.5542 87.3466L36.223 67.831C36.2711 67.691 36.4182 67.6118 36.561 67.6485L49.8675 71.0727C50.0061 71.1081 50.0966 71.241 50.0768 71.3825L47.4064 91.932C47.3965 92.0126 47.3513 92.0847 47.2848 92.13C47.2381 92.1625 47.183 92.1781 47.1264 92.1781V92.1809ZM30.1864 87.2419L46.886 91.5459L49.4828 71.5607L36.6713 68.2638L30.185 87.2419H30.1864Z" fill="black"/>
<path d="M26.5761 61.9276C29.8815 63.9262 33.1869 65.9261 36.4938 67.9246C34.2704 74.4293 32.047 80.934 29.825 87.4402C25.5026 84.8292 21.1817 82.2169 16.8594 79.6059C20.0983 73.7136 23.3372 67.8199 26.5776 61.9276H26.5761Z" fill="white"/>
<path d="M29.8265 87.7228C29.7755 87.7228 29.7246 87.7087 29.6808 87.6818L16.7152 79.8475C16.5851 79.7698 16.5398 79.6014 16.6134 79.4685L26.3315 61.7902C26.3683 61.7223 26.432 61.6728 26.5055 61.653C26.5805 61.6332 26.6597 61.6445 26.7247 61.6841L36.6423 67.6811C36.7555 67.7504 36.8064 67.889 36.764 68.0149L30.0952 87.5304C30.0669 87.6111 30.0047 87.6761 29.9241 87.7044C29.8929 87.7157 29.8604 87.7214 29.8279 87.7214L29.8265 87.7228ZM17.2399 79.5039L29.6723 87.0156L36.1544 68.0488L26.6851 62.322L17.2399 79.5039Z" fill="black"/>
<path d="M10.2188 69.7409C12.428 73.0294 14.6389 76.3169 16.8481 79.6054C20.087 73.7131 23.3258 67.8188 26.5661 61.9265L21.4715 54.286C17.7206 59.4372 13.9697 64.5898 10.2202 69.7409H10.2188Z" fill="white"/>
<path d="M16.8496 79.8879C16.7563 79.8879 16.6672 79.8412 16.6148 79.7635L9.98564 69.8996C9.91916 69.8006 9.92199 69.6719 9.9913 69.5757L21.2427 54.1208C21.2964 54.0458 21.3855 54.0034 21.4775 54.0048C21.5694 54.0062 21.6557 54.0543 21.7066 54.1307L26.8012 61.7712C26.8592 61.8589 26.8648 61.972 26.8139 62.0639L17.0957 79.7422C17.0476 79.8285 16.9585 79.8837 16.8609 79.8879C16.8567 79.8879 16.8524 79.8879 16.8482 79.8879H16.8496ZM10.5655 69.7468L16.8256 79.0619L26.2368 61.9409L21.4619 54.7799L10.5655 69.7468Z" fill="black"/>
<path d="M21.9942 46.1864C18.3083 50.5272 14.621 54.8679 10.9352 59.2086C10.699 62.7191 10.4628 66.231 10.2266 69.7415C13.9775 64.5903 17.7284 59.4377 21.4779 54.2866C21.6505 51.5865 21.8216 48.8865 21.9942 46.1864Z" fill="white"/>
<path d="M10.2274 70.0243C10.1949 70.0243 10.1624 70.0186 10.1312 70.0073C10.0124 69.9649 9.93748 69.8489 9.94596 69.723L10.6546 59.1901C10.6588 59.1293 10.6814 59.0727 10.721 59.0261L21.7801 46.0039C21.8593 45.9106 21.988 45.8794 22.1011 45.9247C22.2143 45.97 22.285 46.0831 22.2779 46.2047L21.7617 54.3049C21.7588 54.3586 21.739 54.4095 21.7079 54.4534L10.4566 69.9083C10.4028 69.9833 10.3165 70.0243 10.2274 70.0243ZM11.2132 59.3203L10.5768 68.7824L21.203 54.1861L21.6598 47.0194L11.2132 59.3203Z" fill="black"/>
<path d="M80.7519 34.2315C76.3051 33.0604 71.8597 31.8893 67.4129 30.7167C66.0014 30.7125 64.5912 30.7083 63.1797 30.704C67.8627 31.8723 70.3817 32.5017 70.3817 32.5017C70.3817 32.5017 73.9954 33.1042 80.7519 34.2329V34.2315Z" fill="white"/>
<path d="M80.753 34.5145C80.7375 34.5145 80.7219 34.5144 80.7064 34.5102L70.3362 32.779C70.3291 32.779 70.322 32.7762 70.3149 32.7748L63.1129 30.9771C62.9743 30.9417 62.8824 30.8102 62.9008 30.6673C62.9177 30.5259 63.0394 30.4198 63.1808 30.4198L67.4141 30.4326C67.4381 30.4326 67.4621 30.4354 67.4848 30.4425L80.8238 33.9572C80.9694 33.9954 81.06 34.1425 81.0288 34.2896C81.0006 34.4211 80.8832 34.513 80.753 34.513V34.5145ZM70.4408 32.2232L74.7547 32.9431L67.3773 30.9997L65.5131 30.9941L70.4408 32.2232Z" fill="black"/>
<path d="M75.6415 35.6371C73.8891 34.5919 72.1366 33.5466 70.3828 32.5028C73.8396 33.0799 77.2963 33.657 80.753 34.234C84.0542 36.2198 87.3553 38.2056 90.6565 40.1914C85.651 38.6738 80.6455 37.1561 75.6415 35.6385V35.6371Z" fill="white"/>
<path d="M90.6572 40.4712C90.6303 40.4712 90.602 40.467 90.5751 40.4585L75.5601 35.9056C75.5375 35.8985 75.5177 35.89 75.4979 35.8773L70.2392 32.7416C70.1218 32.6723 70.0723 32.5295 70.119 32.4008C70.1657 32.2721 70.2972 32.1971 70.4316 32.2197L80.8018 33.9509C80.8371 33.9566 80.8711 33.9693 80.9008 33.9877L90.8042 39.9451C90.9259 40.0186 90.9754 40.1714 90.9174 40.3029C90.8707 40.4076 90.7675 40.4712 90.6586 40.4712H90.6572ZM75.7567 35.3752L88.5596 39.2563L80.6533 34.5011L71.8176 33.0273L75.7553 35.3752H75.7567Z" fill="black"/>
<path d="M95.688 47.73C94.0106 45.2166 92.3331 42.7019 90.6556 40.1885C85.6502 38.6709 80.6447 37.1533 75.6406 35.6356C77.5415 38.3484 78.5557 39.7953 78.5557 39.7953C78.5557 39.7953 86.858 43.6396 95.688 47.7286V47.73Z" fill="white"/>
<path d="M95.6898 48.0125C95.6502 48.0125 95.6092 48.004 95.571 47.9857C86.7467 43.8995 78.45 40.0567 78.4387 40.0524C78.3934 40.0312 78.3538 39.9987 78.3255 39.9577L75.4105 35.798C75.3412 35.699 75.3426 35.5674 75.4133 35.4698C75.484 35.3722 75.6085 35.3312 75.7245 35.3652L90.7395 39.9181C90.8017 39.9364 90.8569 39.9775 90.8923 40.0312L95.9246 47.5727C95.9953 47.6787 95.9868 47.8173 95.9048 47.9135C95.8496 47.9786 95.7704 48.0125 95.6898 48.0125ZM78.7456 39.5715C79.5334 39.9364 86.908 43.3507 94.8964 47.0508L90.4793 40.4301L76.344 36.1445L78.7456 39.5715Z" fill="black"/>
<path d="M95.0753 55.9027C95.279 53.1786 95.4812 50.4531 95.6849 47.729C89.9736 45.0842 84.2638 42.4393 78.5525 39.7958C78.4408 41.2597 78.3291 42.7236 78.2188 44.1874C83.8381 48.0925 89.4575 51.9981 95.0768 55.9032L95.0753 55.9027Z" fill="white"/>
<path d="M95.0779 56.1857C95.0213 56.1857 94.9648 56.1688 94.9167 56.1348L78.0587 44.4195C77.9767 44.3615 77.93 44.2654 77.9385 44.1664L78.2723 39.7747C78.2794 39.6828 78.3317 39.5993 78.4109 39.5527C78.4915 39.506 78.5891 39.5003 78.6726 39.5399L95.8049 47.4732C95.9124 47.5227 95.9775 47.633 95.9676 47.7504L95.358 55.9241C95.3509 56.0259 95.2887 56.115 95.1981 56.1589C95.1599 56.1772 95.1175 56.1857 95.0765 56.1857H95.0779ZM78.5141 44.0476L94.8318 55.388L95.3891 47.9031L78.8041 40.2231L78.5127 44.0461L78.5141 44.0476Z" fill="black"/>
<path d="M88.9815 63.2037C91.0154 60.7696 93.0479 58.3354 95.0817 55.9027C89.4624 51.9976 83.8431 48.0925 78.2238 44.1874C77.1262 45.5042 76.0272 46.8196 74.9297 48.1363L88.9815 63.2051V63.2037Z" fill="white"/>
<path d="M88.9829 63.4869C88.9051 63.4869 88.8301 63.4544 88.7764 63.3964L74.7246 48.3277C74.627 48.223 74.6227 48.0632 74.7147 47.9528L78.0087 44.0039C78.1021 43.8908 78.2676 43.8695 78.3878 43.953L95.2458 55.6683C95.3108 55.7135 95.3547 55.7843 95.3646 55.8635C95.3745 55.9427 95.3518 56.0219 95.3009 56.0827L89.2007 63.3837C89.1484 63.4459 89.072 63.4827 88.9914 63.4855C88.9885 63.4855 88.9857 63.4855 88.9843 63.4855L88.9829 63.4869ZM75.3073 48.1254L88.9702 62.7769L94.6673 55.9582L78.2761 44.5668L75.3073 48.1254Z" fill="black"/>
<path d="M78.231 68.8299C81.8122 66.9559 85.3934 65.0804 88.9732 63.2064L74.9213 48.1376C73.0048 49.1503 71.0877 50.1625 69.1712 51.1752C72.1909 57.0605 75.2113 62.9461 78.231 68.8299Z" fill="white"/>
<path d="M78.2312 69.1123C78.2029 69.1123 78.1732 69.1081 78.1464 69.0996C78.0742 69.077 78.0148 69.0261 77.9809 68.9596L68.9218 51.3053C68.8511 51.1681 68.9048 50.9984 69.0406 50.9263L74.7901 47.8882C74.9032 47.8288 75.0418 47.8514 75.1295 47.9448L89.1813 63.0135C89.2422 63.0786 89.2676 63.1677 89.2535 63.254C89.2393 63.3417 89.1842 63.4166 89.1064 63.4577L78.3642 69.0812C78.3232 69.1024 78.2779 69.1138 78.2327 69.1138L78.2312 69.1123ZM69.5512 51.294L78.3515 68.4462L88.5124 63.1267L74.8608 48.4879L69.5498 51.294H69.5512Z" fill="black"/>
<path d="M61.7266 52.6984C64.2116 52.1907 66.6967 51.6829 69.1817 51.1737C72.2014 57.059 75.2211 62.9442 78.2408 68.828L64.4337 71.6468L61.728 52.697L61.7266 52.6984Z" fill="white"/>
<path d="M64.434 71.9314C64.376 71.9314 64.3194 71.913 64.2713 71.879C64.2077 71.8338 64.1652 71.7645 64.1539 71.6881L61.4482 52.7383C61.427 52.5898 61.5246 52.4511 61.6717 52.4214L69.1269 50.8967C69.2513 50.8699 69.3772 50.9321 69.4352 51.0453L78.4943 68.6995C78.5353 68.7787 78.5353 68.8707 78.4971 68.9513C78.4589 69.0305 78.3854 69.0885 78.2991 69.1054L64.4919 71.9243C64.4736 71.9285 64.4538 71.9299 64.4354 71.9299L64.434 71.9314ZM62.0465 52.9221L64.6716 71.3104L77.8196 68.626L69.0293 51.4936L62.0465 52.9207V52.9221Z" fill="black"/>
<path d="M53.825 52.5771C56.4572 52.6181 59.0893 52.6591 61.7229 52.6987L64.4286 71.6485C59.5518 71.5481 54.6751 71.4491 49.7969 71.3487C51.1391 65.0915 52.4828 58.8343 53.825 52.5771Z" fill="white"/>
<path d="M64.4305 71.9313H64.4248L49.7931 71.6314C49.7083 71.63 49.6291 71.5904 49.5767 71.524C49.5244 71.4575 49.5046 71.3712 49.5216 71.2892L53.5497 52.5176C53.578 52.386 53.6954 52.2884 53.8312 52.2941L61.729 52.4157C61.8677 52.4185 61.985 52.5204 62.0048 52.659L64.7106 71.6088C64.7219 71.6908 64.6978 71.7743 64.6427 71.8365C64.5889 71.8974 64.5111 71.9313 64.4305 71.9313ZM50.1467 71.0728L64.1024 71.3585L61.4773 52.9772L54.0532 52.8627L50.1453 71.0728H50.1467Z" fill="black"/>
<path d="M46.6467 50.6991C49.037 51.3257 51.4273 51.9508 53.819 52.5774C52.4767 58.8346 51.1331 65.0918 49.7908 71.349C45.3554 70.2076 40.9199 69.0662 36.4844 67.9248C39.8718 62.1824 43.2607 56.4415 46.6481 50.6991H46.6467Z" fill="white"/>
<path d="M49.7931 71.6314C49.7691 71.6314 49.7458 71.6287 49.7218 71.6231L36.4153 68.1988C36.3291 68.1762 36.2583 68.1154 36.2244 68.0334C36.1905 67.9513 36.1975 67.858 36.2428 67.7816L46.4065 50.5559C46.4701 50.447 46.5989 50.3947 46.7219 50.4258L53.8942 52.3041C54.0399 52.3423 54.1304 52.4894 54.0993 52.6365L50.0712 71.4081C50.0556 71.483 50.0089 71.5495 49.9439 71.5891C49.8986 71.6174 49.8477 71.6315 49.7953 71.6315L49.7931 71.6314ZM36.9203 67.7434L49.5775 71.0007L53.4869 52.7807L46.7841 51.0255L36.9203 67.7434Z" fill="black"/>
<path d="M41.2876 47.4765C43.0782 48.55 44.8689 49.6235 46.6595 50.6984C43.272 56.4408 39.8832 62.1817 36.4957 67.9241C33.1903 65.9256 29.8844 63.9262 26.5776 61.9276L41.2876 47.4779V47.4765Z" fill="white"/>
<path d="M36.4964 68.207C36.4455 68.207 36.3946 68.1928 36.3507 68.166L26.4331 62.169C26.3581 62.1238 26.3086 62.046 26.2987 61.9597C26.2888 61.8734 26.3185 61.7857 26.3808 61.7249L41.0903 47.2756C41.1822 47.1851 41.3237 47.1681 41.434 47.2346L46.8058 50.4566C46.9388 50.5372 46.9826 50.7097 46.9034 50.8427L36.7397 68.0684C36.7015 68.1334 36.6378 68.1801 36.5657 68.1985C36.5431 68.2042 36.519 68.207 36.4964 68.207ZM27.0371 61.8734L36.3974 67.5338L46.2726 50.796L41.3293 47.8315L27.0356 61.872L27.0371 61.8734Z" fill="black"/>
<path d="M38.5382 43.3563C39.4519 44.7297 40.3676 46.1027 41.2812 47.4761L26.5711 61.9257L21.4766 54.2852C27.1638 50.6418 32.851 46.9998 38.5382 43.3563Z" fill="white"/>
<path d="M26.5733 62.209C26.5634 62.209 26.5535 62.209 26.5436 62.2076C26.4601 62.1991 26.3837 62.1539 26.3371 62.0831L21.2425 54.4427C21.2 54.379 21.1859 54.3027 21.2015 54.2277C21.217 54.1527 21.2623 54.0891 21.3259 54.0481L38.3875 43.1192C38.5177 43.0371 38.6902 43.0725 38.7751 43.2012L41.5176 47.3213C41.5925 47.4344 41.577 47.5844 41.4808 47.6805L26.7713 62.1298C26.7175 62.1822 26.6468 62.2104 26.5733 62.2104V62.209ZM21.8733 54.3677L26.6185 61.4849L40.9179 47.4387L38.4597 43.7443L21.8747 54.3677H21.8733Z" fill="black"/>
<path d="M38.9045 38.9501C38.7829 40.4182 38.6598 41.8882 38.5382 43.3563C32.851 46.9998 27.1638 50.6418 21.4766 54.2852C21.6491 51.5852 21.8203 48.8847 21.9928 46.1846C27.6305 43.7731 33.2687 41.3622 38.9064 38.9506L38.9045 38.9501Z" fill="white"/>
<path d="M21.4788 54.5685C21.4293 54.5685 21.3798 54.5558 21.3345 54.5289C21.2426 54.4752 21.1889 54.3734 21.1959 54.2673L21.7122 46.1671C21.7193 46.0611 21.7857 45.9663 21.8833 45.9253L38.7964 38.6908C38.8884 38.6511 38.993 38.6639 39.0737 38.7219C39.1543 38.7799 39.1981 38.876 39.1896 38.975L38.8233 43.3808C38.8162 43.4685 38.7682 43.5477 38.6946 43.5958L21.633 54.5247C21.5863 54.5544 21.534 54.57 21.4802 54.57L21.4788 54.5685ZM22.2652 46.3765L21.7956 53.7454L38.2703 43.1927L38.5857 39.3937L22.2652 46.3751V46.3765Z" fill="black"/>
<path d="M47.8718 32.0088L55.3002 30.4785C54.4388 30.4742 53.5789 30.47 52.7175 30.4657C48.1576 31.3907 43.599 32.3157 39.0391 33.2407C41.9838 32.8306 44.9271 32.4204 47.8718 32.0088Z" fill="white"/>
<path d="M39.0405 33.5233C38.9047 33.5233 38.7859 33.4257 38.7618 33.2885C38.7364 33.1386 38.834 32.9943 38.9839 32.9632L52.6623 30.1882C52.6807 30.1839 52.7005 30.1839 52.7203 30.1825L55.303 30.1953C55.4473 30.1953 55.5689 30.3056 55.583 30.4498C55.5972 30.5941 55.501 30.7256 55.3581 30.7553L47.9298 32.2857C47.9298 32.2857 47.9185 32.2885 47.9114 32.2885L39.0787 33.5205C39.0659 33.5219 39.0518 33.5233 39.0391 33.5233H39.0405Z" fill="black"/>
<path d="M47.875 32.0088C46.0052 32.9946 44.1373 33.9803 42.2675 34.9676L28.3203 38.7312C31.8944 36.901 35.4686 35.0708 39.0427 33.2406C41.9874 32.8304 44.9303 32.4204 47.875 32.0088Z" fill="white"/>
<path d="M28.3227 39.0139C28.2082 39.0139 28.1021 38.9446 28.0582 38.8328C28.0059 38.6971 28.0639 38.5457 28.1926 38.4793L38.915 32.9886C38.9433 32.9745 38.973 32.9646 39.0055 32.9604L47.8383 31.7284C47.9741 31.7086 48.1042 31.7907 48.1466 31.9222C48.1891 32.0523 48.1311 32.1952 48.0094 32.2588L42.4014 35.2177C42.3831 35.2276 42.3633 35.2347 42.3435 35.2403L28.3963 39.004C28.3722 39.0111 28.3468 39.0139 28.3227 39.0139ZM39.1314 33.5134L30.8432 37.7579L42.1652 34.7029L46.3179 32.512L39.1314 33.5134Z" fill="black"/>
<path d="M42.263 34.9671C41.1443 36.2952 40.0233 37.6234 38.9045 38.9501C33.2668 41.3616 27.6305 43.7731 21.9928 46.1846C24.1002 43.6996 26.207 41.2144 28.3159 38.7294L42.263 34.9657V34.9671Z" fill="white"/>
<path d="M21.9941 46.4691C21.9064 46.4691 21.8216 46.428 21.7664 46.3545C21.6886 46.2484 21.6929 46.1042 21.7777 46.0037L28.1014 38.5485C28.1382 38.5047 28.1877 38.4736 28.2428 38.458L42.19 34.6944C42.3088 34.6618 42.4361 34.7113 42.5026 34.816C42.5691 34.9207 42.5606 35.055 42.48 35.1498L39.1222 39.1327C39.094 39.1666 39.0572 39.1935 39.0176 39.2105L22.1045 46.445C22.0691 46.4606 22.0309 46.4676 21.9927 46.4676L21.9941 46.4691ZM28.4762 38.9813L22.9856 45.4535L38.7333 38.7169L41.4659 35.4751L28.4762 38.9799V38.9813Z" fill="black"/>
<path d="M113.771 37.7449C113.58 35.0944 112.532 33.2359 111.903 32.1482C110.505 29.7325 108.637 27.949 106.057 26.1428C101.125 22.6903 96.2666 21.0298 93.2709 20.1642C88.9825 18.9238 82.2374 17.4995 73.6252 17.8149C74.8317 17.9451 76.3168 18.1516 78.0027 18.4953C80.584 19.0214 84.6333 19.8799 88.8397 22.3254C90.1692 23.0976 91.2399 23.8699 92.2299 24.7539C93.0743 25.5077 94.0715 26.4115 94.9654 27.8896C95.343 28.5147 95.8748 29.4072 96.1803 30.6929C96.251 30.9885 96.6244 32.6348 96.2072 34.5895C95.599 37.4366 93.6868 39.1834 92.097 40.6359C90.9542 41.6797 89.008 43.1945 86.1453 44.3062C86.1241 46.7927 86.1043 49.2792 86.0831 51.7671C91.6557 52.173 97.2283 52.5803 102.801 52.9863C106.429 51.0316 108.763 48.7799 110.115 47.2566C112.214 44.8918 112.86 43.2554 113.078 42.6571C113.893 40.4082 113.825 38.4832 113.772 37.7464L113.771 37.7449Z" fill="#FF7E88"/>
<path d="M102.797 53.2694C102.797 53.2694 102.783 53.2694 102.776 53.2694L86.058 52.0502C85.9095 52.0389 85.795 51.9145 85.7964 51.766L85.8586 44.3051C85.8586 44.1891 85.9307 44.0859 86.0396 44.0435C88.239 43.1892 90.2121 41.9728 91.9036 40.4283C93.5146 38.9574 95.3392 37.2912 95.929 34.5318C96.3122 32.7383 96.0068 31.191 95.9035 30.7596C95.6022 29.4909 95.0718 28.6168 94.7225 28.0384C93.8314 26.566 92.8385 25.6792 92.0408 24.9663C91.0522 24.0838 89.99 23.3228 88.6973 22.5704C84.4456 20.0981 80.3765 19.2678 77.9466 18.7728C76.5124 18.48 75.0485 18.2523 73.5959 18.0967C73.4489 18.0812 73.3385 17.9539 73.3442 17.8053C73.3498 17.6568 73.4687 17.538 73.6172 17.5324C80.4302 17.282 87.0693 18.0755 93.352 19.8916C98.2485 21.3073 102.458 23.2762 106.221 25.9097C109.05 27.8899 110.824 29.713 112.149 32.0057C112.746 33.0368 113.855 34.9547 114.054 37.724C114.139 38.8909 114.084 40.7112 113.344 42.7521C112.819 44.2005 111.804 45.7789 110.327 47.4436C108.285 49.7448 105.798 51.6924 102.936 53.2355C102.895 53.2581 102.848 53.2694 102.801 53.2694H102.797ZM86.3649 51.5043L102.736 52.698C105.51 51.1945 107.919 49.3007 109.9 47.0688C111.33 45.4578 112.309 43.9416 112.808 42.5598C113.514 40.6122 113.566 38.8782 113.486 37.765C113.296 35.1258 112.228 33.2815 111.654 32.29C110.371 30.0737 108.648 28.3043 105.89 26.3736C102.179 23.7754 98.0237 21.8321 93.1893 20.4347C88.0876 18.9595 82.7456 18.166 77.2663 18.0642C77.5307 18.1137 77.7938 18.1646 78.0569 18.2183C80.5221 18.7204 84.6465 19.562 88.9801 22.081C90.3068 22.8533 91.3987 23.6354 92.4156 24.5434C93.1978 25.2421 94.2699 26.1997 95.2048 27.7442C95.5513 28.3156 96.1298 29.2731 96.4523 30.6281C96.5626 31.0892 96.8879 32.7398 96.4806 34.6492C95.854 37.5854 93.8739 39.393 92.2841 40.8441C90.5869 42.3943 88.6152 43.6234 86.4229 44.4989L86.3649 51.5029V51.5043Z" fill="black"/>
<path d="M86.0781 51.7676C86.088 57.2596 86.0993 62.753 86.1092 68.2451C91.6621 68.6425 97.2163 69.04 102.769 69.4374C102.778 63.9539 102.788 58.4703 102.796 52.9868C97.2234 52.5808 91.6508 52.1735 86.0781 51.7676Z" fill="#FF444F"/>
<path d="M102.771 69.72C102.771 69.72 102.757 69.72 102.751 69.72L86.0911 68.5276C85.9426 68.5163 85.828 68.3947 85.828 68.2462L85.7969 51.7687C85.7969 51.6895 85.8294 51.6145 85.8874 51.5608C85.9454 51.507 86.0218 51.4816 86.101 51.4858L102.819 52.705C102.967 52.7163 103.082 52.8394 103.081 52.9879L103.054 69.4385C103.054 69.5163 103.021 69.5912 102.963 69.645C102.911 69.6931 102.842 69.7214 102.771 69.7214V69.72ZM86.3937 67.9817L102.489 69.133L102.515 53.2481L86.364 52.0699L86.3937 67.9803V67.9817Z" fill="black"/>
<path d="M113.924 55.9593C113.426 58.6791 112.412 60.5914 111.707 61.6988C110.279 63.9463 108.599 65.2885 106.877 66.6633C105.261 67.9546 103.798 68.857 102.766 69.4397C102.776 63.9562 102.784 58.4712 102.792 52.9877C106.42 51.033 108.753 48.7813 110.106 47.258C112.205 44.8932 112.853 43.2567 113.069 42.6585C113.615 41.1521 113.767 39.7887 113.789 38.834C113.835 44.5424 113.878 50.2522 113.925 55.9607L113.924 55.9593Z" fill="#FF444F"/>
<path d="M102.767 69.7207C102.718 69.7207 102.668 69.708 102.624 69.6825C102.538 69.6316 102.484 69.5383 102.484 69.4379L102.511 52.9858C102.511 52.8826 102.568 52.7864 102.66 52.7369C105.462 51.2278 107.897 49.3198 109.896 47.0681C111.327 45.4543 112.306 43.9381 112.804 42.559C113.347 41.0584 113.485 39.6992 113.507 38.8237C113.511 38.6695 113.635 38.5464 113.792 38.5479C113.946 38.5479 114.072 38.6737 114.072 38.8279L114.208 55.9546C114.208 55.973 114.207 55.99 114.204 56.0083C113.814 58.1455 113.054 60.11 111.948 61.8483C110.494 64.1368 108.746 65.5313 107.056 66.8821C105.752 67.9245 104.356 68.8664 102.907 69.684C102.863 69.708 102.817 69.7207 102.769 69.7207H102.767ZM103.077 53.1541L103.05 68.9485C104.322 68.2045 105.548 67.3616 106.701 66.4408C108.43 65.059 110.065 63.7549 111.468 61.5456C112.531 59.8767 113.261 57.9885 113.64 55.9334L113.531 42.1616C113.471 42.3554 113.406 42.5534 113.334 42.7528C112.812 44.1983 111.797 45.7767 110.317 47.4443C108.31 49.7059 105.873 51.6266 103.076 53.1541H103.077Z" fill="black"/>
<path d="M80.7519 34.2329C82.7518 35.4351 84.751 36.6385 86.7509 37.8407C88.8187 38.8562 90.516 39.9326 91.8285 40.8703C91.919 40.7897 92.0053 40.7119 92.0873 40.6384C93.6771 39.1858 95.5893 37.439 96.1989 34.5933C96.6162 32.6386 96.2428 30.9923 96.1721 30.6953C95.8666 29.411 95.3362 28.5171 94.9585 27.8934C94.0632 26.4154 93.0675 25.5116 92.2217 24.7563C91.2316 23.8723 90.1624 23.1001 88.8329 22.3278C84.6265 19.881 80.5771 19.0238 77.9959 18.4977C76.31 18.154 74.8249 17.9461 73.6184 17.8174C73.6029 22.6588 73.5873 27.5002 73.5703 32.3416C75.9649 32.9724 78.3585 33.6032 80.753 34.234L80.7519 34.2329Z" fill="#FF535E"/>
<path d="M91.8301 41.153C91.7707 41.153 91.7127 41.1347 91.6646 41.1007C90.0806 39.9692 88.3861 38.9579 86.6266 38.0952C86.6196 38.0909 86.6125 38.0881 86.6054 38.0839L80.6424 34.497L73.4998 32.6145C73.3753 32.5819 73.2891 32.4688 73.2891 32.3401L73.3372 17.8158C73.3372 17.7352 73.3711 17.6588 73.4319 17.6065C73.4913 17.5528 73.5705 17.5273 73.6511 17.5358C75.1207 17.6942 76.603 17.9247 78.0541 18.2203C80.5194 18.7239 84.6465 19.5654 88.9773 22.083C90.3012 22.8524 91.3931 23.6346 92.4129 24.5454C93.195 25.2441 94.2671 26.2017 95.2034 27.7462C95.5485 28.3162 96.127 29.2709 96.4509 30.6287C96.5612 31.0869 96.8879 32.7347 96.4792 34.6512C95.8512 37.5874 93.8725 39.395 92.2827 40.8461C92.1993 40.9225 92.1116 41.0003 92.0211 41.0823C91.9687 41.1276 91.9023 41.153 91.833 41.153H91.8301ZM86.8869 37.5916C88.6011 38.4332 90.2559 39.4148 91.8089 40.5095C91.8386 40.4826 91.8683 40.4558 91.898 40.4289C93.5076 38.9594 95.3335 37.2918 95.9233 34.5338C96.3066 32.7347 96.0011 31.1916 95.8979 30.7616C95.5952 29.4887 95.0662 28.6174 94.7169 28.0404C93.8244 26.5666 92.8315 25.6812 92.0338 24.9683C91.0437 24.0843 89.9815 23.3234 88.6916 22.5738C84.4414 20.1015 80.3708 19.2712 77.9395 18.7762C76.6072 18.5046 75.2508 18.2882 73.9015 18.1341L73.8562 32.1251L80.8263 33.9624C80.8517 33.9694 80.8772 33.9793 80.8998 33.9935L86.8883 37.5945L86.8869 37.5916Z" fill="black"/>
</g>
</g>
</svg>
