<svg width="120" height="152" viewBox="0 0 120 152" fill="none" xmlns="http://www.w3.org/2000/svg">
<g id="illustration / light / tight-spreads">
<g id="illustration">
<path d="M20.8672 84.6631C24.8812 83.0478 28.8937 81.4326 32.9077 79.8174V71.3128C37.3687 69.5335 41.8311 67.7528 46.2934 65.9735C53.3469 71.6819 60.399 77.3903 67.4525 83.0988C60.4188 94.4647 53.3865 105.831 46.3528 117.197C41.8664 118.989 37.38 120.782 32.895 122.574C32.8993 119.703 32.9035 116.832 32.9077 113.962C28.898 115.598 24.8868 117.235 20.8771 118.871C20.8742 107.468 20.87 96.0658 20.8672 84.6631Z" fill="#EBECEF"/>
<path d="M32.8953 122.857C32.8401 122.857 32.7835 122.84 32.7369 122.809C32.6591 122.756 32.6124 122.669 32.6124 122.574L32.6251 114.383L20.9848 119.133C20.8971 119.168 20.7981 119.158 20.7203 119.106C20.6425 119.054 20.5958 118.966 20.5958 118.871L20.5859 84.6631C20.5859 84.5471 20.6567 84.4438 20.7627 84.4L32.6265 79.6265V71.3128C32.6265 71.1968 32.6972 71.0935 32.8047 71.0497L46.1904 65.7104C46.2852 65.6722 46.3941 65.6892 46.4733 65.7528L67.6324 82.8781C67.7427 82.9672 67.7696 83.1256 67.6946 83.2473L46.5949 117.345C46.5624 117.396 46.5157 117.437 46.4591 117.458L33.0013 122.836C32.9674 122.85 32.932 122.855 32.8967 122.855L32.8953 122.857ZM32.908 113.679C32.9632 113.679 33.0183 113.696 33.0664 113.727C33.1442 113.779 33.1909 113.869 33.1909 113.962L33.1781 122.157L46.1607 116.969L67.0793 83.1624L46.2427 66.2974L33.1895 71.5051V79.8174C33.1895 79.9334 33.1187 80.0366 33.0127 80.0805L21.1489 84.854L21.1588 118.45L32.7991 113.7C32.833 113.686 32.8698 113.679 32.9066 113.679H32.908Z" fill="black"/>
<path d="M46.2934 65.9735C41.3106 61.9397 36.3274 57.9059 31.3446 53.8735C26.8638 55.6754 22.3831 57.4759 17.9023 59.2778C27.0378 66.6057 32.9077 71.3128 32.9077 71.3128C32.9077 71.3128 38.1438 69.2237 46.2934 65.9735Z" fill="white"/>
<path d="M32.9066 71.5956C32.8458 71.5956 32.7864 71.5758 32.7369 71.5391C32.7369 71.5391 28.5046 68.1446 20.04 61.3555L17.7233 59.4985C17.6455 59.4348 17.6059 59.3358 17.62 59.2368C17.6342 59.1378 17.7006 59.0529 17.794 59.0162L31.2362 53.6118C31.331 53.5736 31.4399 53.5892 31.5191 53.6543L46.4677 65.7543C46.5454 65.8179 46.585 65.9169 46.5695 66.0159C46.5539 66.1149 46.4875 66.1984 46.3941 66.2366L36.7537 70.0822C34.3719 71.0327 33.024 71.5702 33.0099 71.5758C32.9759 71.59 32.9406 71.5956 32.9052 71.5956H32.9066ZM18.4559 59.3599L20.395 60.9143C27.4613 66.5817 32.1386 70.3326 32.9561 70.9889C33.2517 70.8701 34.1018 70.532 36.5472 69.5561L45.7393 65.8886L31.2942 54.196L18.4559 59.3584V59.3599Z" fill="black"/>
<path d="M17.8984 59.2778C17.9055 62.1235 17.914 64.9693 17.9211 67.8136C22.9152 71.8149 27.9094 75.8161 32.9036 79.8174V71.3128C27.9023 67.3016 22.8997 63.289 17.8984 59.2778Z" fill="#CED0D6"/>
<path d="M32.9052 80.1003C32.8415 80.1003 32.7793 80.0791 32.7284 80.038L17.7459 68.0342C17.6794 67.9805 17.6398 67.8999 17.6398 67.815L17.6172 59.2792C17.6172 59.1703 17.6794 59.0713 17.777 59.0232C17.8746 58.9766 17.992 58.9893 18.0769 59.0572L33.082 71.0921C33.1485 71.1459 33.1881 71.2265 33.1881 71.3128V79.8174C33.1881 79.9263 33.1258 80.0253 33.0282 80.072C32.9886 80.0904 32.9476 80.1003 32.9052 80.1003ZM18.2056 67.6778L32.6223 79.229V71.45L18.1844 59.869L18.2056 67.6778Z" fill="black"/>
<path d="M5.94531 72.6225C9.93951 71.02 13.9323 69.4161 17.9265 67.8136C22.9207 71.8149 27.9148 75.8161 32.909 79.8174C28.895 81.4326 24.8824 83.0478 20.8684 84.6631C15.894 80.6491 10.9197 76.6365 5.94531 72.6225Z" fill="white"/>
<path d="M20.8666 84.9459C20.803 84.9459 20.7408 84.9247 20.6884 84.8837L5.76533 72.8431C5.68754 72.7795 5.64794 72.6805 5.6635 72.5815C5.67905 72.4824 5.74412 72.3976 5.83746 72.3608L17.8187 67.5519C17.9134 67.5137 18.0209 67.5293 18.1015 67.5944L33.084 79.5982C33.1618 79.6604 33.2014 79.7608 33.1873 79.8598C33.1731 79.9588 33.106 80.0437 33.0127 80.0805L20.9727 84.9261C20.9388 84.9403 20.9034 84.9459 20.8666 84.9459ZM6.49656 72.7059L20.9147 84.3392L32.3528 79.7368L17.8766 68.1389L6.49656 72.7059Z" fill="black"/>
<path d="M5.94531 72.6225C5.93258 84.011 5.91898 95.3996 5.90625 106.787C10.8976 110.815 15.8875 114.843 20.8788 118.871C20.876 107.468 20.8712 96.0658 20.8684 84.6631C15.894 80.6491 10.9197 76.6365 5.94531 72.6225Z" fill="#CED0D6"/>
<path d="M20.8766 119.154C20.8129 119.154 20.7507 119.133 20.6984 119.092L5.72576 107.009C5.65928 106.955 5.62109 106.874 5.62109 106.788L5.6607 72.6239C5.6607 72.515 5.72293 72.416 5.82194 72.3693C5.91953 72.3226 6.03692 72.3354 6.12178 72.4047L21.0449 84.4453C21.1114 84.499 21.1495 84.5796 21.1495 84.6659L21.1594 118.874C21.1594 118.983 21.0972 119.082 20.9982 119.13C20.96 119.148 20.9176 119.158 20.8766 119.158V119.154ZM6.18684 106.652L20.5937 118.279L20.5838 84.7974L6.22645 73.2123L6.18684 106.651V106.652Z" fill="black"/>
<path d="M32.8926 122.574C30.5391 120.665 28.1856 118.757 25.832 116.847C28.1898 115.885 30.549 114.922 32.9067 113.96C32.9025 116.832 32.8983 119.703 32.894 122.573L32.8926 122.574Z" fill="#CED0D6"/>
<path d="M32.8953 122.857C32.8316 122.857 32.767 122.836 32.7161 122.793L25.6555 117.066C25.5777 117.003 25.5395 116.904 25.5537 116.805C25.5678 116.706 25.6343 116.622 25.7262 116.584L32.8009 113.697C32.8886 113.662 32.9876 113.672 33.0654 113.724C33.1432 113.777 33.1899 113.866 33.1899 113.959L33.1772 122.571C33.1772 122.68 33.1135 122.779 33.0159 122.826C32.9777 122.844 32.9353 122.853 32.8943 122.853L32.8953 122.857ZM26.3825 116.929L32.6128 121.981L32.6251 114.383L26.3825 116.931V116.929Z" fill="black"/>
<path d="M67.4525 83.0988L88.6292 48.9896C93.0972 47.1962 97.5652 45.4028 102.032 43.6079C102.045 46.4579 102.057 49.3065 102.07 52.1564C106.08 50.5398 110.088 48.9217 114.098 47.3051L114.105 81.4666C110.082 83.0874 106.06 84.7083 102.037 86.3292C102.046 89.1735 102.054 92.0164 102.063 94.8607C97.5907 96.6442 93.117 98.4278 88.6447 100.213C81.5813 94.5085 74.5179 88.8044 67.4545 83.1002L67.4525 83.0988Z" fill="#EBECEF"/>
<path d="M88.6413 100.494C88.5777 100.494 88.5141 100.473 88.4631 100.432L67.2729 83.3194C67.1612 83.2303 67.1357 83.0719 67.2107 82.9502L88.3868 48.8411C88.4179 48.7902 88.466 48.7506 88.5211 48.728L101.924 43.3463C102.011 43.3123 102.109 43.3222 102.187 43.3746C102.265 43.4269 102.311 43.5146 102.311 43.6079L102.348 51.7392L113.988 47.0435C114.076 47.0081 114.175 47.0194 114.253 47.0717C114.331 47.1241 114.377 47.2118 114.377 47.3065L114.384 81.4694C114.384 81.5854 114.314 81.6886 114.208 81.7325L102.318 86.523L102.342 94.8621C102.342 94.9781 102.272 95.0828 102.164 95.1252L88.746 100.477C88.7121 100.491 88.6767 100.497 88.6413 100.497V100.494ZM67.8231 83.0365L88.6908 99.8874L101.777 94.6684L101.753 86.3292C101.753 86.2132 101.822 86.1086 101.929 86.0661L113.819 81.2756L113.812 47.7238L102.173 52.4181C102.086 52.4535 101.987 52.4421 101.91 52.3912C101.832 52.3389 101.785 52.2512 101.785 52.1578L101.748 44.0266L88.8181 49.2188L67.8231 83.0379V83.0365Z" fill="black"/>
<path d="M67.4546 83.0988L52.4961 70.9917C59.592 59.6328 66.688 48.2726 73.7839 36.9137C78.7328 40.939 83.6817 44.9643 88.6292 48.9896L67.4525 83.0988H67.4546Z" fill="white"/>
<path d="M67.4526 83.3816C67.3889 83.3816 67.3253 83.359 67.2744 83.318L52.3159 71.2109C52.2042 71.1204 52.1787 70.962 52.2537 70.8418L73.5415 36.7638C73.5839 36.6945 73.6546 36.6478 73.7352 36.6351C73.8158 36.6223 73.8979 36.6435 73.9601 36.6945L88.8054 48.7704C88.9157 48.8595 88.9426 49.0179 88.8677 49.1396L67.6916 83.2487C67.6492 83.318 67.5785 83.3647 67.4978 83.3788C67.4823 83.3816 67.4667 83.3831 67.4512 83.3831L67.4526 83.3816ZM52.8661 70.9295L67.3804 82.6773L88.2552 49.0519L73.8512 37.3366L52.8647 70.9309L52.8661 70.9295Z" fill="black"/>
<path d="M73.7773 36.9137C78.2128 35.1344 82.6497 33.3565 87.0852 31.5772C96.1811 38.9009 102.025 43.6065 102.027 43.6079C102.027 43.6079 97.7072 45.342 88.6241 48.9896C83.6751 44.9643 78.7263 40.939 73.7788 36.9137H73.7773Z" fill="white"/>
<path d="M88.6243 49.2711C88.5607 49.2711 88.497 49.2499 88.4461 49.2075L73.6008 37.1315C73.523 37.0679 73.4848 36.9689 73.499 36.8698C73.5145 36.7708 73.581 36.6874 73.673 36.6492L86.9808 31.3128C87.0756 31.2746 87.1845 31.2901 87.2637 31.3552L97.8079 39.8457C100.603 42.096 102.188 43.3731 102.205 43.3859C102.283 43.4481 102.323 43.5485 102.308 43.6475C102.294 43.7465 102.228 43.8314 102.134 43.8682L88.7318 49.2499C88.6979 49.264 88.6625 49.2697 88.6272 49.2697L88.6243 49.2711ZM74.3292 36.9971L88.6738 48.6643L101.474 43.5245C100.993 43.137 99.9082 42.2643 97.4529 40.287L87.0388 31.9011L74.3307 36.9971H74.3292Z" fill="black"/>
<path d="M94.1641 37.2701L99.1059 35.3169C104.104 39.3125 109.103 43.3095 114.101 47.3051C110.091 48.9218 106.083 50.5398 102.073 52.1564C102.061 49.3065 102.048 46.4579 102.035 43.6079C99.4114 41.4949 96.7877 39.3832 94.1641 37.2701Z" fill="white"/>
<path d="M102.071 52.4379C102.016 52.4379 101.961 52.4209 101.913 52.3898C101.835 52.3375 101.789 52.2498 101.789 52.1564L101.75 43.7437L93.9841 37.4893C93.9063 37.4257 93.8667 37.3267 93.8822 37.2263C93.8978 37.1273 93.9643 37.0424 94.0576 37.0056L98.9995 35.0524C99.0942 35.0156 99.2003 35.0312 99.2795 35.0948L114.275 47.0831C114.354 47.1453 114.392 47.2457 114.378 47.3447C114.364 47.4437 114.297 47.5286 114.204 47.5654L102.176 52.4167C102.142 52.4308 102.105 52.4379 102.07 52.4379H102.071ZM94.7181 37.3536L102.212 43.3873C102.278 43.441 102.316 43.5217 102.318 43.6065L102.354 51.7378L113.546 47.2231L99.0575 35.6393L94.721 37.3536H94.7181Z" fill="black"/>
<path d="M38.9513 29.6254C45.4942 42.6646 52.0372 55.7037 58.5801 68.7414C44.7361 59.5225 30.8922 50.305 17.0469 41.0861L38.9513 29.624V29.6254Z" fill="#FF444F"/>
<path d="M58.5782 69.0243C58.5245 69.0243 58.4693 69.0087 58.4212 68.9776L16.888 41.3223C16.8046 41.2671 16.7565 41.1724 16.7622 41.072C16.7678 40.9715 16.8244 40.8824 16.9135 40.8358L38.818 29.3736C38.8859 29.3383 38.9636 29.3312 39.0358 29.3553C39.1079 29.3779 39.1673 29.4302 39.2013 29.4981L58.83 68.6141C58.888 68.7287 58.8611 68.8673 58.7649 68.9536C58.7112 69.0003 58.6447 69.0243 58.5768 69.0243H58.5782ZM17.5995 41.1158L57.847 67.9154L38.8265 30.0101L17.5995 41.1172V41.1158Z" fill="black"/>
<path d="M38.9883 29.699C39.9812 25.3285 40.9741 20.9567 41.9655 16.5863C47.5028 33.9718 53.0415 51.3559 58.5788 68.7414C52.0486 55.7277 45.5185 42.7126 38.9883 29.699Z" fill="#FF535E"/>
<path d="M58.5768 69.0243C58.4721 69.0243 58.3734 68.9663 58.3239 68.8687L38.7334 29.8262C38.7037 29.7668 38.6952 29.7004 38.7108 29.6367L41.688 16.5226C41.7163 16.3981 41.8238 16.3076 41.9525 16.3034C42.0798 16.2991 42.1958 16.3783 42.234 16.5L58.8473 68.6551C58.8925 68.7966 58.8218 68.9479 58.6846 69.0031C58.6493 69.0172 58.6136 69.0243 58.5782 69.0243H58.5768ZM39.285 29.6636L57.2151 65.395L42.0105 17.6626L39.285 29.6636Z" fill="black"/>
<path d="M17.0469 41.0861L20.068 28.047C27.3676 24.2267 34.6672 20.4065 41.9654 16.5848C40.9725 20.9553 39.9796 25.3271 38.9881 29.6975C31.6744 33.4937 24.3606 37.2885 17.0469 41.0847V41.0861Z" fill="#FF7E88"/>
<path d="M17.0451 41.369C16.9829 41.369 16.9221 41.3492 16.8712 41.3096C16.7835 41.2417 16.7439 41.13 16.7693 41.0225L19.7904 27.9833C19.8088 27.9027 19.8612 27.8348 19.9347 27.7966L41.8321 16.3345C41.9297 16.2836 42.0485 16.2935 42.1362 16.3614C42.2239 16.4293 42.2635 16.541 42.2394 16.6485L39.2622 29.7612C39.2438 29.8418 39.19 29.9111 39.1165 29.9493L17.1752 41.3364C17.1342 41.3577 17.089 41.3676 17.0451 41.3676V41.369ZM20.3138 28.2379L17.4595 40.5529L38.7403 29.5094L41.5535 17.1209L20.3138 28.2379Z" fill="black"/>
<path d="M71.2248 35.3805C75.4382 37.2277 79.6503 39.0749 83.8637 40.922C77.4764 49.7789 71.089 58.6343 64.7031 67.4911C66.877 56.7885 69.0509 46.0845 71.2262 35.3819L71.2248 35.3805Z" fill="#FF444F"/>
<path d="M64.7009 67.774C64.6628 67.774 64.6246 67.7669 64.5878 67.7499C64.4662 67.6962 64.3969 67.5647 64.4237 67.4345L70.9468 35.3253C70.9638 35.2419 71.0175 35.1698 71.0939 35.1302C71.1703 35.0906 71.2594 35.0877 71.3372 35.1217L83.9761 40.6632C84.0539 40.6971 84.1133 40.765 84.1359 40.8485C84.1585 40.9319 84.143 41.0196 84.092 41.0889L64.9315 67.658C64.8763 67.733 64.7901 67.7754 64.7024 67.7754L64.7009 67.774ZM71.4305 35.7808L65.2384 66.2606L83.4273 41.0408L71.4305 35.7808Z" fill="black"/>
<path d="M71.2236 35.3805C68.6225 35.587 66.0215 35.7935 63.4219 36C63.849 46.4975 64.2747 56.9936 64.7019 67.4911C66.8758 56.7885 69.0497 46.0845 71.225 35.3819L71.2236 35.3805Z" fill="#FF535E"/>
<path d="M64.6998 67.774C64.6927 67.774 64.6842 67.774 64.6772 67.774C64.5343 67.7627 64.4226 67.6467 64.4169 67.5038L63.1369 36.0127C63.1313 35.8614 63.2458 35.7313 63.3972 35.7185L71.1989 35.099C71.288 35.0934 71.3743 35.1273 71.4337 35.1938C71.4931 35.2603 71.5171 35.3508 71.4987 35.4371L64.9756 67.5463C64.9487 67.6792 64.8313 67.7726 64.6984 67.7726L64.6998 67.774ZM63.714 36.2617L64.8879 65.1461L70.8707 35.6931L63.714 36.2603V36.2617Z" fill="black"/>
<path d="M67.2158 97.9299C63.4719 106.729 59.7281 115.528 55.9842 124.326L68.8338 129.543C68.295 119.004 67.7561 108.467 67.2158 97.9285V97.9299Z" fill="#FF7E88"/>
<path d="M68.8316 129.826C68.7962 129.826 68.7594 129.818 68.7255 129.804L55.8759 124.588C55.8051 124.56 55.75 124.505 55.7203 124.434C55.692 124.363 55.692 124.285 55.7203 124.215L66.9518 97.8168C67.0028 97.6951 67.1315 97.6258 67.2616 97.6485C67.3917 97.6711 67.4879 97.7814 67.495 97.9129L69.113 129.527C69.1173 129.623 69.0734 129.717 68.9942 129.772C68.9461 129.806 68.8881 129.824 68.8301 129.824L68.8316 129.826ZM56.3553 124.172L68.526 129.114L66.9943 99.1689L56.3553 124.174V124.172Z" fill="black"/>
<path d="M67.2136 97.9299C60.8942 106.896 54.5748 115.861 48.2539 124.826C50.8295 124.659 53.4051 124.493 55.9821 124.326C59.7259 115.528 63.4698 106.729 67.2136 97.9299Z" fill="#FF535E"/>
<path d="M48.2549 125.109C48.1531 125.109 48.0583 125.053 48.0088 124.964C47.955 124.87 47.9621 124.752 48.0243 124.663L66.9841 97.7658C67.0675 97.647 67.2259 97.6117 67.3532 97.6824C67.4805 97.7531 67.5328 97.9073 67.4763 98.0402L56.2447 124.438C56.2023 124.537 56.1089 124.602 56.0028 124.609L48.2747 125.109C48.2747 125.109 48.262 125.109 48.2563 125.109H48.2549ZM65.912 100.268L48.8277 124.505L55.7907 124.055L65.912 100.268Z" fill="black"/>
<path d="M48.2539 124.826C52.5593 126.595 56.8632 128.363 61.1686 130.132C63.7229 129.936 66.2773 129.739 68.8317 129.544L55.9821 124.328C53.4065 124.495 50.8309 124.66 48.2539 124.827V124.826Z" fill="#FF444F"/>
<path d="M61.1697 130.415C61.1329 130.415 61.0962 130.408 61.0622 130.394L48.1475 125.087C48.0259 125.038 47.9552 124.911 47.9764 124.78C47.9976 124.65 48.1065 124.553 48.2366 124.544L55.9648 124.045C56.0072 124.042 56.0497 124.049 56.0893 124.065L68.9389 129.281C69.0605 129.33 69.1326 129.456 69.1114 129.587C69.0902 129.717 68.9841 129.816 68.854 129.826L61.1909 130.415C61.1838 130.415 61.1768 130.415 61.1697 130.415ZM49.4954 125.029L61.215 129.845L67.6122 129.353L55.9365 124.614L49.4954 125.029Z" fill="black"/>
<path d="M75.125 99.3584C83.0186 109.036 90.9123 118.714 98.8073 128.391C93.6646 130.732 88.522 133.073 83.3793 135.414C80.6283 123.396 77.8774 111.378 75.1264 99.3584H75.125Z" fill="#FF535E"/>
<path d="M83.3797 135.697C83.3373 135.697 83.2934 135.687 83.2538 135.667C83.1774 135.629 83.1223 135.559 83.1039 135.476L74.851 99.4207C74.8213 99.292 74.8849 99.1618 75.0023 99.1038C75.1197 99.0459 75.2626 99.077 75.346 99.1788L99.0284 128.212C99.0835 128.28 99.1047 128.37 99.0849 128.455C99.0651 128.54 99.0071 128.612 98.9265 128.649L83.4985 135.671C83.4617 135.688 83.4207 135.697 83.3811 135.697H83.3797ZM75.6728 100.476L83.5791 135.013L98.358 128.287L75.6728 100.476Z" fill="black"/>
<path d="M75.1225 99.3584C83.6441 106.5 92.1672 113.641 100.689 120.782C100.061 123.318 99.4314 125.855 98.8034 128.391C90.9098 118.714 83.0161 109.036 75.1211 99.3584H75.1225Z" fill="#FF7E88"/>
<path d="M98.8049 128.674C98.7215 128.674 98.6395 128.637 98.5857 128.57L74.9034 99.5367C74.8114 99.4235 74.8199 99.2594 74.9246 99.1562C75.0278 99.0543 75.1933 99.0473 75.3051 99.1406L100.871 120.564C100.955 120.633 100.99 120.744 100.965 120.848L99.0793 128.458C99.0539 128.562 98.9718 128.642 98.8672 128.666C98.846 128.67 98.8262 128.673 98.8049 128.673V128.674ZM77.2272 101.491L98.6663 127.775L100.373 120.887L77.2286 101.493L77.2272 101.491Z" fill="black"/>
</g>
</g>
</svg>
