<svg width="120" height="152" viewBox="0 0 120 152" fill="none" xmlns="http://www.w3.org/2000/svg">
<g id="illustration / light / zero-commission">
<g id="illustration">
<path d="M85.1251 130.862C89.678 128.033 94.2309 125.204 98.7823 122.375C99.2406 121.975 99.8601 121.4 100.539 120.658C101.122 120.022 102.887 118.022 104.373 114.908C105.737 112.048 106.196 109.653 106.45 108.278C106.874 105.979 106.953 103.996 106.929 102.527C106.922 89.1559 106.916 75.7844 106.909 62.4129C106.942 61.0989 106.907 59.3692 106.649 57.3607C106.547 56.5588 106.209 54.1473 105.171 50.931C102.806 43.6003 98.8615 38.4562 98.2024 37.6132C96.9564 36.0164 94.7316 33.206 91.0146 30.4254C89.9184 29.605 85.8804 26.6829 79.8127 24.7551C78.3262 24.2827 77.049 23.9744 76.1183 23.7764C70.8583 22.4497 65.5982 21.123 60.3367 19.7963C59.3085 19.5318 57.9111 19.2433 56.2365 19.1047C54.8942 18.9929 52.3087 18.7992 49.1278 19.5573C46.6823 20.14 44.8917 21.0452 43.5368 21.7411C42.3939 22.328 41.4675 22.8966 40.7943 23.3379L31.2656 29.1906C38.6487 32.5469 46.0317 35.9032 53.4134 39.2581C59.4315 42.0105 68.5316 47.1433 76.8949 56.4032C81.6146 61.6279 84.8748 66.813 87.118 71.1C85.4221 79.3868 83.9964 89.3455 83.6032 100.652C83.203 112.168 83.9653 122.37 85.1209 130.863L85.1251 130.862Z" fill="#EBECEE"/>
<path d="M85.1245 131.145C85.0835 131.145 85.0425 131.136 85.0043 131.118C84.918 131.077 84.8572 130.995 84.8445 130.9C83.4853 120.903 82.9733 110.723 83.324 100.641C83.6677 90.7559 84.8459 80.8326 86.8232 71.1413C84.0567 65.8699 80.6466 60.9762 76.6878 56.593C70.1732 49.3797 62.3036 43.6345 53.2982 39.5144L31.1505 29.4469C31.0557 29.4031 30.9921 29.3111 30.985 29.2065C30.9779 29.1018 31.0303 29.0028 31.1194 28.9476L40.648 23.0949C41.5292 22.5165 42.4613 21.9733 43.4089 21.4868C44.6536 20.8475 46.5347 19.8829 49.0636 19.2804C52.3534 18.4968 54.9926 18.716 56.2613 18.8207C57.6573 18.9367 59.0519 19.1715 60.4083 19.5208L76.1885 23.5009C77.4275 23.7639 78.6792 24.0963 79.8984 24.4839C85.4187 26.2391 89.3394 28.8175 91.1837 30.1979C95.0068 33.0592 97.3165 36.0167 98.4253 37.4381C99.5017 38.8172 103.188 43.858 105.441 50.8436C106.156 53.0628 106.671 55.3046 106.93 57.3243C107.145 59.0074 107.233 60.7216 107.192 62.4189L107.211 102.526C107.243 104.464 107.08 106.417 106.728 108.328C106.486 109.638 106.036 112.076 104.629 115.028C103.612 117.161 102.233 119.227 100.748 120.848C100.189 121.458 99.5894 122.043 98.9685 122.588C98.9571 122.598 98.9444 122.608 98.9317 122.615L85.2745 131.101C85.2292 131.129 85.1769 131.143 85.1245 131.143V131.145ZM31.869 29.1513L53.533 38.9996C62.6091 43.1508 70.5409 48.9427 77.1078 56.2126C81.1218 60.6566 84.5743 65.6196 87.372 70.9674C87.4017 71.0254 87.4116 71.0918 87.3988 71.1555C85.4145 80.8468 84.2335 90.7743 83.8898 100.661C83.5447 110.564 84.0355 120.565 85.3466 130.391L98.6135 122.148C99.2132 121.622 99.7916 121.058 100.33 120.468C101.779 118.888 103.124 116.87 104.117 114.786C105.493 111.902 105.934 109.512 106.17 108.228C106.517 106.354 106.675 104.437 106.646 102.533L106.626 62.4146C106.667 60.7386 106.581 59.0541 106.368 57.3992C106.114 55.4135 105.608 53.207 104.902 51.0204C102.677 44.1239 99.0406 39.1495 97.9798 37.7889C96.8016 36.2798 94.6079 33.4694 90.8457 30.6534C89.0296 29.2942 85.1684 26.7553 79.7273 25.0256C78.5251 24.6437 77.2903 24.317 76.0598 24.0539L60.2683 20.071C58.9416 19.7301 57.5781 19.4996 56.2147 19.3864C54.9757 19.2832 52.3973 19.0696 49.1951 19.832C46.7327 20.4189 44.9605 21.3284 43.6677 21.9917C42.7371 22.4698 41.8234 23.0016 40.9521 23.5744L31.869 29.1541V29.1513Z" fill="black"/>
<path d="M76.2191 105.457C70.8897 104.141 65.5603 102.826 60.2324 101.509C59.0627 101.202 58.1561 100.774 57.5366 100.431C56.9128 100.086 55.6045 99.3451 54.4419 97.9152C53.8875 97.2349 53.5989 96.6734 53.0445 95.5786C52.2058 93.9252 51.1605 91.8164 50.8664 88.9735C50.7914 88.2451 50.7843 87.6511 50.7872 87.2918C50.7985 74.2612 50.8098 61.2291 50.8211 48.1984C47.7236 44.934 44.6261 41.6697 41.5286 38.4053C38.6532 44.4051 35.7778 50.4034 32.9024 56.4032C32.2036 63.9419 32.2645 74.3206 35.618 85.9015C36.7367 89.767 38.0733 93.2492 39.4707 96.3339C42.0378 101.997 44.6049 107.66 47.172 113.323C55.5677 115.543 63.9621 117.76 72.3578 119.979C76.1738 116.323 79.9898 112.667 83.8058 109.011L76.2177 105.457H76.2191Z" fill="#CED0D6"/>
<path d="M72.3602 120.264C72.3362 120.264 72.3121 120.261 72.2881 120.254L47.1023 113.598C47.0202 113.576 46.9523 113.518 46.917 113.441L39.2157 96.4511C37.6797 93.0608 36.3785 89.5376 35.3488 85.9804C32.5992 76.4857 31.6827 66.5257 32.6233 56.3775C32.6261 56.3436 32.636 56.311 32.6502 56.2813L41.2765 38.2834C41.3161 38.1999 41.3953 38.1405 41.4872 38.1264C41.5791 38.1123 41.6725 38.1434 41.7361 38.2113L51.0286 48.0044C51.0781 48.0567 51.1064 48.1275 51.1064 48.1996L51.0724 87.293C51.0668 87.8418 51.0922 88.3962 51.1502 88.9464C51.4444 91.7949 52.5165 93.908 53.2987 95.4525C53.8672 96.5727 54.1402 97.0946 54.6635 97.7382C55.8162 99.1539 57.1203 99.8767 57.6762 100.185C58.4993 100.64 59.3833 100.995 60.3069 101.237L76.2908 105.183C76.3092 105.188 76.3261 105.193 76.3431 105.202L83.9312 108.756C84.0161 108.796 84.0755 108.875 84.0896 108.967C84.1052 109.059 84.0741 109.152 84.0062 109.217L72.5582 120.186C72.5045 120.237 72.4352 120.265 72.363 120.265L72.3602 120.264ZM47.3767 113.086L72.2796 119.667L83.3146 109.093L76.1253 105.725L60.1655 101.785C59.1924 101.53 58.2645 101.158 57.4004 100.679C56.8148 100.355 55.4443 99.5938 54.2237 98.0932C53.6395 97.3761 53.3383 96.782 52.7937 95.7057C51.9918 94.123 50.8914 91.9548 50.5873 89.0015C50.5279 88.4315 50.501 87.8545 50.5067 87.2873L50.5406 48.3085L41.6088 38.8944L33.182 56.4751C32.2556 66.5356 33.1678 76.4079 35.8919 85.8192C36.9145 89.3509 38.2058 92.8486 39.732 96.2135L47.3781 113.08L47.3767 113.086Z" fill="black"/>
<path d="M48.2628 108.756C57.9258 111.132 64.9722 112.854 66.7345 113.296C66.9269 113.344 67.5322 113.499 68.3526 113.55C69.0272 113.592 70.1814 113.651 71.5208 113.151C71.9154 113.004 72.7032 112.666 73.5179 111.98C74.7017 110.981 75.2222 109.854 75.4612 109.318C75.9449 108.234 76.0737 107.287 76.1401 106.762C76.2066 106.234 76.2207 105.786 76.2193 105.458C76.2306 91.8757 76.242 78.2934 76.2533 64.7111C76.2561 64.0322 76.208 63.0393 75.9478 61.8753C75.8148 61.2784 75.1656 58.5897 72.8729 55.9844C71.1856 54.0665 69.4445 53.1472 69.0598 52.9492C67.6397 52.2194 66.3413 51.9011 65.446 51.7512L47.9346 47.4982C47.6037 47.4204 47.1539 47.3383 46.6164 47.3086C45.55 47.2506 44.7212 47.4331 44.3506 47.5279C43.8754 47.6509 42.9687 47.8928 42.014 48.5957C41.2941 49.1261 40.8769 49.6763 40.5869 50.0638C40.1909 50.5928 39.6577 51.4414 39.3196 52.5701C39.0622 53.4315 39.0014 54.1754 38.9604 54.686C38.9279 55.0934 38.9194 55.4399 38.9208 55.6945C38.9307 65.7945 38.9406 75.8946 38.9505 85.9947C33.3156 91.5999 27.6807 97.2036 22.0459 102.809C21.8959 102.523 21.7474 102.199 21.6187 101.836C21.2708 100.861 21.1831 99.9744 21.1788 99.3068C20.838 94.4244 20.4971 89.5419 20.1562 84.6609C20.1647 73.8395 20.1718 63.0181 20.1803 52.1967C20.1775 51.4895 20.1916 50.5532 20.2595 49.4542C20.3217 48.4642 20.4335 46.7698 20.8182 44.8222C21.0247 43.7798 21.4589 41.6525 22.6017 39.125C24.1519 35.7008 26.1037 33.5312 26.5153 33.0814C29.0187 30.3488 31.5505 29.0038 32.1063 28.7152C34.4118 27.5215 36.3848 27.1 37.5913 26.8511C38.819 26.5979 40.932 26.2655 43.5288 26.3985C45.5952 26.5046 47.2501 26.8681 48.7465 27.1976C49.8723 27.4451 50.803 27.6983 51.4621 27.8892L66.917 31.6628C67.4276 31.8311 68.156 32.0772 69.0272 32.3884C70.2804 32.8367 71.5533 33.2922 72.6749 33.7858C74.5405 34.6089 75.8191 35.4689 77.1076 36.3345C77.9336 36.8889 79.6549 38.094 81.6336 39.9086C82.1456 40.3782 83.5967 41.7332 85.2615 43.709C87.0535 45.8363 88.1991 47.6226 88.5768 48.2223C89.366 49.4783 89.8992 50.4882 90.3136 51.2774C90.8893 52.3735 91.5469 53.6238 92.2244 55.3239C93.0448 57.3804 93.4747 59.0423 93.8821 60.6349C94.1678 61.7537 94.4252 62.7593 94.6402 64.0492C94.8976 65.5881 95.1366 67.7619 95.0192 70.4394V109.516C95.0136 110.203 94.9867 111.125 94.899 112.212C94.8212 113.175 94.6784 114.876 94.2201 116.885C93.9415 118.105 93.4267 120.302 92.083 122.894C90.7549 125.46 89.2839 127.126 88.8285 127.627C88.2175 128.299 86.9714 129.583 85.1143 130.862C83.3011 132.11 81.7198 132.795 81.0211 133.078C80.3139 133.364 78.2659 134.147 75.4895 134.475C71.7131 134.921 68.5181 134.297 66.4036 133.676C61.7715 132.545 57.138 131.413 52.5059 130.282C46.7352 128.232 40.9646 126.181 35.1939 124.132C39.5516 119.006 43.9079 113.881 48.2656 108.756H48.2628Z" fill="white"/>
<path d="M72.9014 134.911C70.7091 134.911 68.5069 134.59 66.326 133.948L52.441 130.556C52.4311 130.553 52.4227 130.55 52.4142 130.547L35.1022 124.398C35.0145 124.367 34.948 124.294 34.924 124.204C34.8999 124.113 34.9211 124.019 34.982 123.948L48.0536 108.572C48.1229 108.49 48.2333 108.455 48.3365 108.48C52.1596 109.419 55.5725 110.258 58.4111 110.954C62.8268 112.037 65.7433 112.753 66.8083 113.02C67.0063 113.07 67.589 113.217 68.374 113.265C68.9822 113.303 70.1151 113.373 71.4262 112.883C72.1094 112.627 72.7713 112.24 73.3399 111.76C74.4983 110.783 74.9947 109.673 75.2068 109.199C75.6835 108.132 75.8051 107.18 75.8631 106.722C75.9169 106.304 75.9423 105.876 75.9409 105.455L75.9749 64.7067C75.9791 63.7718 75.8787 62.8397 75.675 61.9331C75.4628 60.9869 74.7458 58.5329 72.6638 56.1681C71.1349 54.4312 69.5451 53.5119 68.9327 53.1979C67.8252 52.6293 66.6371 52.2347 65.401 52.0268C65.3939 52.0268 65.3882 52.024 65.3812 52.0226L47.8698 47.7695C47.4568 47.6719 47.0296 47.6111 46.6039 47.5871C45.8698 47.5475 45.116 47.6196 44.4229 47.7978C43.9972 47.9067 43.1132 48.1359 42.184 48.8204C41.4839 49.3367 41.0808 49.8741 40.8149 50.2291C40.2632 50.9674 39.8517 51.7807 39.5914 52.6463C39.3425 53.478 39.2845 54.1866 39.2435 54.7042C39.2166 55.0309 39.2039 55.3633 39.2039 55.69L39.2336 85.9917C39.2336 86.0666 39.2039 86.1387 39.1501 86.1925L22.2455 103.007C22.1818 103.07 22.0927 103.1 22.0036 103.086C21.9145 103.072 21.8382 103.018 21.7957 102.939C21.6246 102.613 21.4747 102.274 21.3516 101.929C21.0546 101.097 20.9018 100.217 20.8962 99.3151L19.875 84.6777C19.875 84.6777 19.875 84.665 19.875 84.6579L19.899 52.1937C19.8948 51.28 19.9217 50.3522 19.9797 49.4342C20.0377 48.5036 20.1466 46.771 20.544 44.764C20.7307 43.8206 21.1677 41.6127 22.3473 39.0046C23.7942 35.8081 25.6004 33.6611 26.3104 32.886C28.6555 30.326 31.0557 28.9385 31.9792 28.459C34.3667 27.2229 36.4289 26.7986 37.5363 26.5694C39.5108 26.1621 41.5319 26.0079 43.5446 26.1112C45.6351 26.2187 47.321 26.5892 48.8089 26.916C49.7268 27.1182 50.6476 27.353 51.5429 27.6132L66.9865 31.384C66.9936 31.3854 67.0006 31.3882 67.0077 31.3896C67.7078 31.6216 68.4207 31.8663 69.1236 32.118C70.3697 32.5636 71.6596 33.0246 72.7897 33.5239C74.6779 34.357 75.9932 35.2424 77.2662 36.0967C78.839 37.1532 80.3722 38.3653 81.8261 39.6977C82.6861 40.4855 84.017 41.7881 85.4781 43.525C87.0452 45.3849 88.1583 47.0227 88.816 48.0694C89.6264 49.3593 90.1681 50.3904 90.5642 51.1428C91.1455 52.2489 91.8032 53.502 92.4863 55.2162C93.3293 57.3321 93.7677 59.0478 94.1553 60.5626C94.4353 61.6601 94.7012 62.6969 94.919 64.0009C95.2684 66.09 95.3971 68.2596 95.3023 70.4491V109.513C95.2952 110.415 95.2542 111.33 95.1821 112.231C95.1128 113.09 94.9685 114.875 94.4975 116.944C94.2458 118.047 93.7225 120.343 92.3364 123.021C91.1143 125.381 89.7467 127.037 89.0395 127.813C87.9334 129.03 86.6675 130.133 85.2772 131.09C83.9717 131.99 82.5376 132.767 81.1288 133.337C79.928 133.823 77.9818 134.462 75.5251 134.752C74.6538 134.856 73.7797 134.906 72.9028 134.906L72.9014 134.911ZM52.5881 130.01L66.4717 133.402C69.4631 134.28 72.4813 134.546 75.4572 134.194C77.8517 133.911 79.747 133.287 80.9153 132.815C82.2858 132.26 83.6832 131.503 84.9547 130.628C86.3097 129.694 87.543 128.621 88.6194 127.436C89.3082 126.679 90.6405 125.065 91.8329 122.764C93.1864 120.15 93.6984 117.901 93.9445 116.821C94.407 114.791 94.5442 113.098 94.6178 112.189C94.6899 111.301 94.7295 110.401 94.7366 109.514V70.4392C94.8313 68.2766 94.704 66.1465 94.3618 64.0957C94.1468 62.8171 93.8979 61.8383 93.6079 60.704C93.226 59.2062 92.7918 57.5103 91.9616 55.427C91.2897 53.741 90.6377 52.5006 90.0635 51.4073C89.6717 50.6633 89.1371 49.6422 88.3379 48.3706C87.6901 47.3396 86.5926 45.7243 85.0467 43.8899C83.604 42.1771 82.2915 40.8928 81.4443 40.1163C80.0115 38.8038 78.5009 37.6101 76.9522 36.5677C75.6425 35.6879 74.4063 34.8563 72.5634 34.043C71.4517 33.5522 70.1717 33.0954 68.9355 32.6527C68.2396 32.4037 67.5353 32.1619 66.8422 31.9327L51.3986 28.162C50.5033 27.9018 49.5953 27.6698 48.6887 27.4718C47.222 27.1493 45.5601 26.7844 43.5163 26.6798C41.5517 26.5793 39.5787 26.7293 37.6509 27.1267C36.5703 27.3502 34.5577 27.7646 32.2395 28.964C31.3428 29.4279 29.0105 30.7772 26.7277 33.2708C26.036 34.026 24.2765 36.1179 22.8636 39.2394C21.7094 41.7881 21.2823 43.9521 21.0999 44.8757C20.7109 46.8459 20.6034 48.5531 20.5454 49.471C20.4888 50.3762 20.462 51.2927 20.4662 52.1937L20.4422 84.6494L21.4633 99.2854C21.4633 99.2854 21.4633 99.2981 21.4633 99.3038C21.4676 100.145 21.609 100.966 21.8862 101.739C21.957 101.939 22.0376 102.135 22.1267 102.329L38.6692 85.8757L38.6395 55.6929C38.6395 55.3506 38.6523 55.0041 38.6806 54.6618C38.7216 54.1498 38.7838 53.3761 39.0511 52.4865C39.3298 51.5558 39.771 50.6832 40.3637 49.8925C40.6324 49.5333 41.0822 48.9321 41.8502 48.3664C42.8671 47.6168 43.8246 47.3707 44.2829 47.2519C45.0311 47.0595 45.8444 46.9803 46.635 47.0242C47.0947 47.0496 47.5544 47.1161 48.0027 47.2208L65.5071 51.4724C66.797 51.6902 68.0374 52.1018 69.1929 52.6958C69.8336 53.0254 71.4969 53.9871 73.0895 55.7961C75.2578 58.2585 76.0074 60.8228 76.228 61.8115C76.4402 62.7591 76.5463 63.735 76.5406 64.7095L76.5067 105.456C76.5081 105.902 76.4812 106.353 76.4246 106.796C76.3624 107.279 76.2351 108.288 75.7231 109.431C75.4954 109.94 74.9622 111.134 73.7034 112.194C73.0867 112.715 72.3668 113.136 71.6228 113.415C70.2 113.947 68.9893 113.872 68.3386 113.832C67.5013 113.78 66.8804 113.624 66.6753 113.573C65.6061 113.305 62.5312 112.551 58.2753 111.506C55.4791 110.82 52.1242 109.996 48.3705 109.073L35.6778 124.003L52.5895 130.011L52.5881 130.01Z" fill="black"/>
<path d="M31.3289 91.2508C31.2624 91.7515 31.1521 92.5166 30.6373 93.3398C30.2865 93.9013 29.8778 94.2804 29.585 94.5109C25.5569 96.9649 21.5287 99.4174 17.5006 101.873C17.6222 101.794 17.7452 101.704 17.864 101.607C19.4595 100.299 19.5076 98.218 19.5217 97.6126C19.5443 96.6424 19.3223 95.9083 19.1681 95.4161C19.0182 94.9352 18.5472 93.5873 17.3252 92.2819C16.7863 91.7076 15.9023 90.784 14.4299 90.3003C13.9222 90.1334 13.1598 89.8831 12.1981 90.0203C11.6196 90.1037 11.1161 90.3074 10.6875 90.562C14.6718 88.0812 18.6533 85.5975 22.6362 83.1167C22.9275 82.9908 23.349 82.8423 23.8752 82.7702C24.9826 82.6188 25.8454 82.9059 26.3376 83.0771C27.7619 83.5693 28.6374 84.4391 29.0659 84.8734C30.1762 86.002 30.7123 87.2198 30.9697 88.002C31.1521 88.5564 31.5298 89.7445 31.3289 91.2508Z" fill="#FF444F"/>
<path d="M17.501 102.156C17.4077 102.156 17.3158 102.109 17.262 102.024C17.18 101.894 17.2167 101.72 17.3469 101.637C17.4657 101.559 17.5802 101.475 17.6849 101.389C18.6764 100.576 19.1997 99.3029 19.2393 97.6071C19.2619 96.6594 19.0342 95.9339 18.8984 95.5011C18.7018 94.8717 18.2096 93.6412 17.1192 92.4757C16.6156 91.9383 15.7713 91.0387 14.3427 90.5691C13.8618 90.4107 13.1349 90.1731 12.2396 90.3004C11.753 90.3711 11.2792 90.5408 10.8337 90.8053C10.7007 90.8845 10.5282 90.8421 10.4475 90.7092C10.3669 90.5762 10.4079 90.4036 10.5395 90.3216C12.7374 88.9525 14.9339 87.5834 17.1319 86.2143C18.9168 85.1012 20.7032 83.988 22.4881 82.8763C22.4994 82.8693 22.5122 82.8622 22.5249 82.8565C22.9464 82.6741 23.3877 82.551 23.8374 82.4902C25.0383 82.3261 25.9788 82.6529 26.4314 82.8099C27.9434 83.3318 28.8712 84.2723 29.2687 84.674C30.3931 85.8168 30.9617 87.0657 31.2403 87.9129C31.4157 88.4447 31.8244 89.688 31.6109 91.2876C31.5458 91.777 31.4369 92.5959 30.8782 93.4898C30.5812 93.9651 30.205 94.3837 29.7609 94.7331C29.7524 94.7401 29.7425 94.7472 29.7326 94.7529L25.7044 97.2068C23.0185 98.8418 20.334 100.478 17.6481 102.115C17.6029 102.143 17.552 102.156 17.501 102.156ZM12.7586 89.6979C13.5026 89.6979 14.0966 89.8931 14.5181 90.0317C16.0838 90.5465 17.0258 91.5493 17.5307 92.0882C18.3963 93.0132 19.0738 94.1645 19.4373 95.3313C19.583 95.7981 19.8277 96.5788 19.8036 97.6184C19.7768 98.7824 19.5363 99.7711 19.0866 100.573C21.194 99.2888 23.3014 98.0059 25.4088 96.7217L29.4228 94.2776C29.8104 93.9707 30.1385 93.6044 30.3973 93.19C30.8909 92.4007 30.99 91.6582 31.0479 91.2141C31.2445 89.7431 30.8627 88.5848 30.7 88.0911C30.4398 87.3019 29.9108 86.1379 28.8627 85.0729C28.495 84.6995 27.6308 83.8254 26.2433 83.3459C25.8006 83.1917 24.9788 82.906 23.911 83.0517C23.5192 83.1055 23.1331 83.213 22.7653 83.3699C20.9861 84.4788 19.2068 85.5877 17.4275 86.6966C15.8193 87.698 14.2126 88.7007 12.6045 89.7021C12.6554 89.7007 12.7063 89.6993 12.7572 89.6993L12.7586 89.6979Z" fill="black"/>
<path d="M8.84636 92.441C8.95386 92.2473 10.0684 90.3251 12.1928 90.0196C13.1531 89.881 13.9169 90.1328 14.4247 90.2997C15.897 90.7834 16.7824 91.707 17.3199 92.2812C18.5419 93.5867 19.0129 94.9346 19.1628 95.4169C19.3156 95.9077 19.5376 96.6432 19.5164 97.6134C19.5023 98.2188 19.4542 100.299 17.8588 101.608C16.6452 102.602 15.2139 102.595 14.7839 102.586C12.0754 102.533 10.3753 100.278 9.87179 99.6105C8.90294 98.3263 8.59036 97.0915 8.49701 96.6714C8.29334 95.7521 7.92561 94.0916 8.84636 92.441Z" fill="#FF7E88"/>
<path d="M14.9056 102.868C14.8646 102.868 14.8221 102.868 14.7797 102.868C12.8915 102.831 11.1645 101.792 9.64691 99.7805C8.72332 98.5571 8.35842 97.3464 8.22264 96.7326C8.01472 95.7934 7.62718 94.0466 8.60169 92.3041C8.72898 92.0764 9.91282 90.0638 12.1546 89.7413C13.1814 89.5942 13.9834 89.8573 14.5152 90.0326C16.0852 90.5489 17.0243 91.5517 17.5292 92.0891C18.3948 93.0141 19.0723 94.1669 19.4358 95.3337C19.5815 95.8019 19.8248 96.584 19.8021 97.6208C19.7597 99.4892 19.1671 100.905 18.0412 101.827C17.4557 102.307 16.4402 102.871 14.907 102.871L14.9056 102.868ZM9.09531 92.5785C8.22688 94.1343 8.57057 95.6831 8.77566 96.6095C8.90154 97.1781 9.24099 98.3011 10.0995 99.4397C11.5068 101.305 13.0853 102.268 14.791 102.302C16.2209 102.329 17.153 101.82 17.6806 101.387C18.6721 100.574 19.1954 99.3025 19.235 97.6066C19.2562 96.6618 19.0299 95.9348 18.8941 95.5006C18.6975 94.8712 18.2053 93.6407 17.1148 92.4753C16.6453 91.9732 15.7712 91.0397 14.337 90.5687C13.8561 90.4103 13.1291 90.1712 12.2338 90.3C10.2622 90.5828 9.20846 92.3749 9.09389 92.5785H9.09531Z" fill="black"/>
<path d="M26.9922 93.223C30.9793 90.8129 34.9664 88.4042 38.9522 85.9941C45.1641 87.5471 51.3761 89.1001 57.588 90.6531C53.6391 93.0674 49.6901 95.4804 45.7412 97.8947C39.491 96.3375 33.2409 94.7803 26.9922 93.2216V93.223Z" fill="#FF444F"/>
<path d="M45.7417 98.1788C45.7191 98.1788 45.6965 98.1759 45.6738 98.1703L26.9248 93.4972C26.8145 93.4689 26.7311 93.3784 26.7141 93.2652C26.6971 93.1521 26.7495 93.0403 26.8471 92.9809L38.807 85.752C38.8721 85.7124 38.9485 85.7011 39.022 85.7195L57.6578 90.3785C57.7682 90.4068 57.8516 90.4973 57.8686 90.6104C57.8856 90.7236 57.8332 90.8353 57.7371 90.8947L45.8902 98.1363C45.845 98.1632 45.7941 98.1773 45.7431 98.1773L45.7417 98.1788ZM27.7211 93.1125L45.695 97.5918L56.8658 90.7646L38.998 86.298L27.7211 93.1139V93.1125Z" fill="black"/>
<path d="M45.7379 97.8959C49.6868 95.4816 53.6358 93.0686 57.5847 90.6543C51.3445 102.776 45.1056 114.895 38.8654 127.017C34.9264 129.401 30.9859 131.786 27.0469 134.17C33.2772 122.079 39.5061 109.987 45.7365 97.8959H45.7379Z" fill="#FF444F"/>
<path d="M27.0488 134.454C26.9795 134.454 26.9088 134.428 26.855 134.377C26.7631 134.291 26.739 134.154 26.797 134.041L45.4866 97.7662C45.5107 97.7195 45.546 97.6813 45.5899 97.6544L57.4367 90.4128C57.5442 90.3463 57.6842 90.3605 57.7761 90.4468C57.8695 90.533 57.8935 90.6702 57.8355 90.7834L39.1162 127.146C39.0922 127.192 39.0554 127.23 39.0116 127.259L27.1931 134.413C27.1478 134.44 27.0969 134.454 27.046 134.454H27.0488ZM45.9533 98.0957L27.7588 133.41L38.6523 126.816L56.8723 91.4227L45.9533 98.0971V98.0957Z" fill="black"/>
<path d="M26.9941 93.2217C33.2442 94.7789 39.4943 96.3361 45.743 97.8948C39.5127 109.986 33.2838 122.078 27.0535 134.169L8.25781 129.55C14.5037 117.44 20.7482 105.332 26.9941 93.2217Z" fill="#FF7E88"/>
<path d="M27.055 134.453C27.0324 134.453 27.0097 134.45 26.9871 134.444L8.19143 129.825C8.10799 129.804 8.03727 129.746 8.00191 129.668C7.96655 129.589 7.96796 129.498 8.00756 129.422L26.7438 93.0934C26.8046 92.9774 26.9362 92.9166 27.0635 92.9491L45.8125 97.6222C45.8959 97.6435 45.9666 97.7014 46.002 97.7807C46.0373 97.8599 46.0359 97.9504 45.9963 98.0268L27.3067 134.301C27.2572 134.397 27.1596 134.454 27.055 134.454V134.453ZM8.67374 129.361L26.9051 133.842L45.3287 98.0833L27.1427 93.5517L8.67374 129.362V129.361Z" fill="black"/>
<path d="M57.5477 126.196C57.4812 126.697 57.3709 127.462 56.856 128.285C56.5053 128.847 56.0965 129.226 55.8037 129.456C51.7756 131.91 47.7474 134.363 43.7193 136.818C43.8409 136.739 43.964 136.65 44.0828 136.552C45.6782 135.244 45.7263 133.163 45.7404 132.558C45.7631 131.588 45.541 130.854 45.3869 130.361C45.2369 129.881 44.7659 128.533 43.5439 127.227C43.005 126.653 42.1211 125.729 40.6487 125.246C40.1409 125.079 39.3786 124.828 38.4168 124.966C37.8383 125.049 37.3348 125.253 36.9062 125.507C40.8905 123.026 44.872 120.543 48.8549 118.062C49.1463 117.936 49.5677 117.788 50.0939 117.715C51.2014 117.564 52.0641 117.851 52.5563 118.022C53.9806 118.515 54.8561 119.384 55.2847 119.819C56.395 120.947 56.931 122.165 57.1884 122.947C57.3709 123.502 57.7485 124.69 57.5477 126.196Z" fill="#FF444F"/>
<path d="M43.7198 137.101C43.6264 137.101 43.5345 137.054 43.4808 136.969C43.3987 136.839 43.4355 136.665 43.5656 136.582C43.6844 136.504 43.799 136.421 43.9037 136.334C44.8951 135.521 45.4184 134.248 45.4581 132.552C45.4807 131.605 45.253 130.879 45.1172 130.446C44.9206 129.817 44.4284 128.586 43.3379 127.421C42.8344 126.884 41.99 125.984 40.5615 125.514C40.0806 125.356 39.3536 125.118 38.4583 125.246C37.9718 125.316 37.4979 125.486 37.0524 125.751C36.9195 125.83 36.7469 125.787 36.6663 125.654C36.5857 125.522 36.6267 125.349 36.7582 125.267C38.9562 123.898 41.1527 122.529 43.3506 121.16C45.1356 120.046 46.9219 118.933 48.7069 117.822C48.7182 117.815 48.7309 117.808 48.7437 117.802C49.1651 117.619 49.6064 117.496 50.0562 117.436C51.257 117.271 52.1976 117.598 52.6502 117.755C54.1621 118.277 55.09 119.218 55.4874 119.619C56.6118 120.762 57.1804 122.011 57.459 122.858C57.6344 123.39 58.0432 124.633 57.8296 126.233C57.7646 126.722 57.6556 127.541 57.097 128.435C56.7999 128.91 56.4237 129.329 55.9796 129.678C55.9711 129.685 55.9612 129.693 55.9513 129.698L51.9232 132.152C49.2373 133.787 46.5528 135.424 43.8669 137.06C43.8216 137.088 43.7707 137.101 43.7198 137.101ZM38.9774 124.643C39.7213 124.643 40.3154 124.838 40.7369 124.977C42.3026 125.492 43.2446 126.495 43.7495 127.033C44.6151 127.958 45.2926 129.11 45.6561 130.277C45.8017 130.743 46.0464 131.524 46.0224 132.564C45.9955 133.728 45.7551 134.716 45.3053 135.518C47.4127 134.234 49.5201 132.951 51.6276 131.667L55.6416 129.223C56.0291 128.916 56.3572 128.55 56.6161 128.135C57.1097 127.346 57.2087 126.604 57.2667 126.159C57.4633 124.688 57.0814 123.53 56.9188 123.036C56.6585 122.247 56.1295 121.083 55.0815 120.018C54.7137 119.645 53.8496 118.771 52.462 118.291C52.0193 118.137 51.1976 117.851 50.1297 117.997C49.738 118.051 49.3518 118.158 48.9841 118.315C47.2048 119.424 45.4255 120.533 43.6462 121.642C42.0381 122.643 40.4314 123.646 38.8232 124.647C38.8741 124.646 38.925 124.645 38.976 124.645L38.9774 124.643Z" fill="black"/>
<path d="M35.0651 127.386C35.1726 127.193 36.2871 125.27 38.4115 124.965C39.3719 124.826 40.1357 125.078 40.6434 125.245C42.1158 125.729 43.0012 126.652 43.5386 127.227C44.7607 128.532 45.2317 129.88 45.3816 130.362C45.5343 130.853 45.7564 131.588 45.7352 132.559C45.721 133.164 45.6729 135.245 44.0775 136.553C42.864 137.547 41.4326 137.54 41.0027 137.532C38.2941 137.478 36.5941 135.223 36.0905 134.556C35.1217 133.272 34.8091 132.037 34.7158 131.617C34.5121 130.697 34.1444 129.037 35.0651 127.386Z" fill="#FF7E88"/>
<path d="M41.1243 137.814C41.0833 137.814 41.0409 137.814 40.9984 137.814C39.1102 137.778 37.3833 136.738 35.8657 134.727C34.9421 133.503 34.5772 132.293 34.4414 131.679C34.2335 130.74 33.8459 128.993 34.8204 127.25C34.9477 127.023 36.1316 125.01 38.3734 124.688C39.4002 124.54 40.2021 124.804 40.734 124.979C42.3039 125.495 43.2431 126.498 43.748 127.035C44.6136 127.96 45.2911 129.113 45.6546 130.28C45.8002 130.748 46.0435 131.53 46.0209 132.567C45.9785 134.435 45.3858 135.851 44.26 136.773C43.6744 137.253 42.6589 137.817 41.1257 137.817L41.1243 137.814ZM35.3141 127.525C34.4456 129.081 34.7893 130.629 34.9944 131.556C35.1203 132.124 35.4597 133.247 36.3183 134.386C37.7256 136.252 39.304 137.215 41.0098 137.249C42.4397 137.276 43.3718 136.766 43.8993 136.334C44.8908 135.52 45.4141 134.249 45.4537 132.553C45.4749 131.608 45.2486 130.881 45.1129 130.447C44.9163 129.818 44.4241 128.587 43.3336 127.422C42.864 126.919 41.9899 125.986 40.5557 125.515C40.0749 125.357 39.3479 125.118 38.4526 125.246C36.4809 125.529 35.4272 127.321 35.3126 127.525H35.3141Z" fill="black"/>
</g>
</g>
</svg>
