<svg width="120" height="152" viewBox="0 0 120 152" fill="none" xmlns="http://www.w3.org/2000/svg">
<g id="illustration / light / fast-execution">
<g id="illustration">
<path d="M33.0586 93.6016C26.1437 98.1559 19.2274 102.709 12.3125 107.263C13.3337 109.153 14.6165 111.253 16.2261 113.442C17.6984 115.447 19.1779 117.164 20.5597 118.613L37.1065 99.2987C36.4107 98.5434 35.6639 97.6495 34.9227 96.6099C34.1646 95.5449 33.5522 94.5252 33.0586 93.6016Z" fill="#FF7E88"/>
<path d="M20.5614 118.897C20.4836 118.897 20.41 118.866 20.3563 118.809C18.8005 117.175 17.3352 115.427 16 113.61C14.5517 111.638 13.2278 109.548 12.0652 107.396C11.9959 107.268 12.0355 107.106 12.1585 107.026L32.9046 93.3643C32.9711 93.3205 33.0531 93.3064 33.1295 93.3262C33.2059 93.346 33.2724 93.3969 33.3091 93.4676C33.8579 94.4944 34.4774 95.4972 35.1535 96.4449C35.814 97.3727 36.541 98.268 37.3147 99.1067C37.4122 99.2128 37.4151 99.374 37.3217 99.4829L20.7749 118.798C20.7226 118.858 20.6476 118.894 20.567 118.897C20.5642 118.897 20.5614 118.897 20.5599 118.897H20.5614ZM12.6875 107.355C13.8077 109.403 15.075 111.393 16.4568 113.275C17.7156 114.989 19.0918 116.641 20.5515 118.191L36.7305 99.3047C36.0049 98.5028 35.3204 97.6527 34.6952 96.7744C34.0658 95.8904 33.4831 94.9612 32.9598 94.0079L12.6875 107.357V107.355Z" fill="black"/>
<path d="M40.5993 102.381C36.1808 109.857 31.7623 117.335 27.3438 124.811C28.686 125.939 30.3069 127.151 32.2219 128.319C34.6617 129.807 36.9643 130.852 38.9317 131.593C41.4055 122.997 43.8792 114.399 46.353 105.802C45.411 105.395 44.3615 104.874 43.2583 104.211C42.2414 103.6 41.356 102.973 40.5993 102.381Z" fill="#FF7E88"/>
<path d="M38.9339 131.876C38.9 131.876 38.866 131.871 38.8335 131.858C36.487 130.974 34.2141 129.864 32.077 128.559C30.36 127.511 28.7066 126.323 27.1635 125.026C27.0574 124.937 27.0319 124.785 27.1012 124.666L40.3568 102.235C40.3978 102.164 40.4685 102.116 40.5477 102.101C40.6283 102.085 40.7104 102.106 40.774 102.156C41.6099 102.811 42.4939 103.419 43.4048 103.966C44.3863 104.556 45.416 105.085 46.4669 105.54C46.597 105.597 46.6663 105.741 46.6267 105.879L39.2055 131.67C39.1843 131.746 39.1305 131.808 39.0612 131.844C39.0216 131.863 38.9778 131.873 38.9339 131.873V131.876ZM27.7108 124.748C29.179 125.966 30.7461 127.086 32.3712 128.077C34.3909 129.309 36.5337 130.366 38.7458 131.22L46.0129 105.962C45.0186 105.521 44.0441 105.014 43.112 104.454C42.2747 103.951 41.4572 103.395 40.6793 102.801L27.7094 124.748H27.7108Z" fill="black"/>
<path d="M56.9889 107.332C58.0455 116.453 59.1006 125.573 60.1571 134.694C58.2633 134.917 55.9833 135.04 53.4148 134.887C51.0896 134.748 49.0345 134.414 47.3047 134.028C48.3895 125.01 49.4743 115.991 50.5592 106.973C51.4672 107.132 52.4827 107.263 53.5944 107.332C54.8391 107.41 55.9791 107.394 56.9889 107.332Z" fill="#FF7E88"/>
<path d="M55.6856 135.238C54.9219 135.238 54.1595 135.215 53.4 135.17C51.335 135.047 49.2644 134.757 47.2446 134.304C47.1032 134.273 47.0084 134.139 47.0254 133.994L50.2799 106.939C50.2898 106.861 50.3294 106.792 50.3916 106.745C50.4538 106.698 50.5331 106.68 50.6094 106.694C51.5995 106.868 52.6094 106.987 53.6136 107.049C54.7281 107.118 55.8582 107.118 56.9727 107.049C57.1241 107.041 57.2542 107.15 57.2711 107.299L60.4394 134.662C60.4577 134.818 60.346 134.958 60.1918 134.976C58.6997 135.15 57.1919 135.238 55.6856 135.238ZM47.618 133.808C49.5288 134.221 51.4835 134.489 53.4339 134.605C55.5654 134.731 57.7209 134.678 59.8453 134.446L56.7408 107.63C55.6899 107.686 54.6277 107.68 53.5796 107.615C52.6546 107.557 51.724 107.452 50.8074 107.302L47.6194 133.809L47.618 133.808Z" fill="black"/>
<path d="M61.1562 106.561C62.1053 106.247 63.159 105.838 64.2778 105.304C65.3131 104.809 66.2268 104.288 67.0203 103.786C71.3992 111.719 75.7795 119.654 80.1584 127.587C78.5701 128.61 76.7427 129.672 74.6735 130.689C72.5349 131.741 70.5138 132.56 68.6836 133.205L61.1562 106.561Z" fill="#FF7E88"/>
<path d="M68.6845 133.488C68.6393 133.488 68.5954 133.477 68.5544 133.457C68.4851 133.422 68.4342 133.358 68.413 133.283L60.8857 106.639C60.8447 106.493 60.9253 106.34 61.0695 106.294C62.1204 105.946 63.16 105.527 64.1585 105.049C65.0878 104.604 66.0015 104.099 66.8713 103.548C66.9378 103.507 67.017 103.495 67.0934 103.513C67.1683 103.533 67.2334 103.582 67.2702 103.65L80.4083 127.451C80.4805 127.582 80.4394 127.746 80.3136 127.826C78.5442 128.966 76.6899 130.016 74.8003 130.944C72.8527 131.901 70.8273 132.753 68.7793 133.472C68.7496 133.484 68.7171 133.488 68.686 133.488H68.6845ZM61.5023 106.744L68.8741 132.837C70.8033 132.147 72.7113 131.34 74.55 130.436C76.3406 129.555 78.1001 128.566 79.7832 127.492L66.9166 104.185C66.1047 104.686 65.2589 105.148 64.4004 105.56C63.4613 106.009 62.4882 106.407 61.5023 106.745V106.744Z" fill="black"/>
<path d="M74.4885 95.7842C74.0246 96.5635 73.4716 97.4008 72.8182 98.2664C71.9752 99.3824 71.1252 100.327 70.3359 101.115C75.869 108.146 81.402 115.177 86.9351 122.208C88.2816 120.899 89.7313 119.339 91.181 117.509C92.8302 115.428 94.1413 113.423 95.1809 111.625C88.283 106.345 81.3851 101.064 74.4871 95.7842H74.4885Z" fill="#FF7E88"/>
<path d="M86.9367 122.491C86.9367 122.491 86.924 122.491 86.9183 122.491C86.8377 122.485 86.7641 122.447 86.7146 122.383L70.1155 101.291C70.0264 101.177 70.0363 101.016 70.1381 100.916C71.0193 100.036 71.8453 99.0883 72.5949 98.0969C73.1875 97.3119 73.7448 96.4859 74.2483 95.6401C74.2893 95.5708 74.3586 95.5227 74.4378 95.5071C74.517 95.4916 74.5991 95.5114 74.6627 95.5609L95.3565 111.402C95.4696 111.488 95.5007 111.645 95.43 111.768C94.2377 113.829 92.8841 115.82 91.4061 117.686C90.0907 119.346 88.6537 120.936 87.1347 122.413C87.0824 122.464 87.0102 122.493 86.9381 122.493L86.9367 122.491ZM70.7138 101.138L86.9636 121.786C88.3822 120.389 89.7258 118.892 90.9606 117.334C92.3707 115.555 93.6649 113.659 94.8134 111.699L74.5694 96.2016C74.0998 96.971 73.5878 97.7221 73.0461 98.4377C72.3318 99.3825 71.5483 100.291 70.7152 101.138H70.7138Z" fill="black"/>
<path d="M114.808 89.0205C110.66 89.8819 106.512 90.7432 102.362 91.6032C101.539 91.4688 99.9066 91.0869 98.3295 89.8338C96.4569 88.3459 95.7639 86.5072 95.44 85.6133C94.5121 83.0504 94.8785 80.8737 94.9605 80.4211C95.1401 79.448 95.5559 77.3519 97.3975 75.6023C99.3125 73.782 101.563 73.485 102.31 73.4199C106.459 72.5671 110.611 71.7142 114.76 70.8613C114.482 70.9221 114.118 71.0113 113.701 71.1456C113.388 71.2446 110.947 72.048 109.418 73.6066C106.656 76.4212 107.506 81.0576 107.621 81.6332C107.778 82.4239 108.428 85.708 111.414 87.7037C112.719 88.575 114.005 88.8904 114.808 89.0205Z" fill="#CED0D6"/>
<path d="M102.363 91.8878C102.347 91.8878 102.331 91.8878 102.317 91.8836C101.248 91.7096 99.6569 91.2499 98.1548 90.0562C96.1817 88.489 95.476 86.5415 95.1747 85.7112C94.2964 83.287 94.5382 81.1696 94.6825 80.3719C94.855 79.4356 95.2596 77.2448 97.2029 75.399C99.0246 73.6678 101.152 73.2406 102.269 73.1416L114.704 70.5859C114.856 70.5547 115.006 70.6523 115.038 70.8037C115.071 70.9564 114.973 71.1049 114.822 71.1389C114.461 71.2181 114.123 71.3086 113.789 71.4161C113.518 71.5024 111.102 72.2958 109.621 73.8064C107.034 76.4428 107.733 80.7439 107.898 81.5798C108.548 84.8541 110.255 86.5895 111.572 87.4707C112.545 88.1199 113.649 88.5485 114.854 88.7436C114.989 88.7649 115.089 88.8808 115.092 89.0166C115.095 89.1524 115 89.2726 114.867 89.2995L114.392 89.3985C110.402 90.2273 106.412 91.0547 102.421 91.8821C102.402 91.8864 102.382 91.8878 102.363 91.8878ZM111.351 71.8517L102.367 73.6975C102.355 73.7003 102.346 73.7017 102.334 73.7017C101.296 73.7923 99.2976 74.1869 97.5919 75.8077C95.7815 77.5276 95.401 79.5912 95.2383 80.4724C95.1026 81.2234 94.8749 83.2219 95.7051 85.5174C95.9894 86.3038 96.657 88.1453 98.5041 89.6121C99.8874 90.711 101.353 91.1452 102.355 91.315C106.07 90.5455 109.784 89.7747 113.497 89.0039C112.695 88.7549 111.945 88.3985 111.256 87.9389C109.85 86.9997 108.03 85.1525 107.343 81.6887C107.166 80.8033 106.429 76.2476 109.215 73.4075C109.847 72.7626 110.623 72.2449 111.35 71.8503L111.351 71.8517Z" fill="black"/>
<path d="M114.803 89.0205C114.566 90.8946 114.177 93.0232 113.546 95.3315C112.989 97.3667 112.342 99.1828 111.689 100.763C107.495 101.618 103.303 102.475 99.1094 103.331C99.7699 101.696 100.423 99.8504 100.999 97.8066C101.367 96.5054 101.665 95.2565 101.91 94.0698C102.087 93.2141 102.234 92.3896 102.357 91.6032C106.507 90.7432 110.655 89.8819 114.803 89.0205Z" fill="#EBECEE"/>
<path d="M99.1113 103.614C99.0278 103.614 98.9486 103.578 98.8934 103.513C98.827 103.432 98.81 103.322 98.8482 103.225C99.5752 101.425 100.207 99.5764 100.728 97.7306C101.07 96.5199 101.376 95.2696 101.635 94.0137C101.8 93.2145 101.95 92.3885 102.079 91.5611C102.097 91.4451 102.185 91.3518 102.301 91.3278C106.292 90.5003 110.282 89.6729 114.271 88.8441L114.747 88.7451C114.836 88.7267 114.93 88.7522 114.996 88.8144C115.063 88.8766 115.097 88.9672 115.085 89.0577C114.815 91.1877 114.389 93.3249 113.819 95.4082C113.31 97.2667 112.682 99.1054 111.951 100.873C111.916 100.96 111.838 101.023 111.746 101.043L99.1664 103.612C99.148 103.616 99.1282 103.617 99.1099 103.617L99.1113 103.614ZM102.608 91.8412C102.483 92.6134 102.343 93.3814 102.189 94.1282C101.927 95.3969 101.619 96.6614 101.274 97.8848C100.796 99.5849 100.222 101.286 99.5681 102.951L111.487 100.517C112.184 98.8141 112.787 97.0461 113.276 95.2583C113.804 93.3291 114.206 91.3532 114.474 89.3802L114.388 89.3986C110.462 90.2132 106.535 91.0293 102.609 91.8426L102.608 91.8412Z" fill="black"/>
<path d="M114.867 70.8372C114.829 70.8456 114.791 70.8527 114.753 70.8612C110.603 71.7141 106.452 72.5669 102.302 73.4198C102.1 72.144 101.842 70.7678 101.513 69.3068C100.971 66.9024 100.234 64.2702 99.227 61.4853C97.5835 56.9423 95.6486 53.1688 93.875 50.2042C98.0686 49.3513 102.261 48.4999 106.454 47.6484C108.23 50.695 110.143 54.5138 111.78 59.0695C113.352 63.4484 114.293 67.4582 114.867 70.8372Z" fill="#EBECEE"/>
<path d="M102.305 73.7029C102.249 73.7029 102.192 73.6859 102.144 73.652C102.081 73.6081 102.038 73.5403 102.025 73.4639C101.809 72.099 101.545 70.7214 101.239 69.3693C100.646 66.7385 99.8812 64.1177 98.9633 61.5817C97.5517 57.678 95.7583 53.8988 93.6339 50.3501C93.5872 50.2709 93.5802 50.1747 93.6184 50.0913C93.6565 50.0079 93.7315 49.947 93.8206 49.9286C98.0142 49.0758 102.206 48.2243 106.4 47.3729C106.52 47.3488 106.641 47.4026 106.701 47.5072C108.826 51.1535 110.625 55.0119 112.048 58.975C113.424 62.8051 114.466 66.7795 115.148 70.7907C115.173 70.9392 115.077 71.0821 114.93 71.1146L114.816 71.1386L102.361 73.6987C102.342 73.7029 102.322 73.7043 102.304 73.7043L102.305 73.7029ZM94.3255 50.4025C96.3792 53.8832 98.1175 57.5776 99.4965 61.3893C100.422 63.948 101.194 66.5914 101.792 69.2448C102.078 70.5121 102.328 71.802 102.537 73.0834L114.545 70.6153C113.869 66.7286 112.851 62.8773 111.517 59.1645C110.128 55.2962 108.379 51.5297 106.315 47.9655C102.318 48.7773 98.3226 49.5892 94.3255 50.401V50.4025Z" fill="black"/>
<path d="M99.1628 49.1332C97.4019 49.491 95.6396 49.8488 93.8787 50.2067C93.371 50.6324 92.5308 51.2307 91.3625 51.6239C88.8506 52.4711 86.6838 51.7399 86.152 51.5447C83.3515 50.5136 82.0927 48.2039 81.6387 47.3708C80.5892 45.4459 80.4916 43.6765 80.4605 42.958C80.4294 42.2451 80.3785 40.7219 81.08 38.944C81.4704 37.9553 81.964 37.2128 82.3374 36.7277C86.5169 35.8762 90.6978 35.0247 94.8773 34.1719C94.5293 34.6613 92.2352 38.0048 93.2946 42.3229C94.4629 47.0795 98.7032 48.9408 99.1628 49.1332Z" fill="#CED0D6"/>
<path d="M88.9101 52.3042C87.6046 52.3042 86.5665 51.9958 86.0573 51.8091C83.1564 50.7413 81.875 48.3906 81.3927 47.5052C80.2895 45.4812 80.2075 43.5902 80.1806 42.9693C80.1509 42.2932 80.0816 40.7091 80.8199 38.8393C81.1424 38.0204 81.5794 37.2524 82.1169 36.5537C82.1579 36.4999 82.2173 36.4631 82.2852 36.449L84.5241 35.9936C87.9582 35.2934 91.3923 34.5947 94.825 33.8932C94.9396 33.8706 95.0556 33.9187 95.1192 34.0163C95.1829 34.1139 95.18 34.2397 95.1122 34.3345C94.6794 34.9427 92.5748 38.1816 93.5733 42.2536C94.6992 46.8362 98.8108 48.6763 99.2761 48.8701C99.3906 48.9181 99.46 49.0355 99.4486 49.1586C99.4373 49.2816 99.3454 49.3835 99.2238 49.4075L94.0089 50.4669C93.2424 51.0991 92.3838 51.5772 91.4574 51.8898C90.5522 52.1953 89.6852 52.3027 88.9129 52.3027L88.9101 52.3042ZM82.5002 36.9822C82.0249 37.6159 81.636 38.3103 81.3446 39.0458C80.6516 40.8039 80.7166 42.3031 80.7449 42.9438C80.7732 43.5944 80.8482 45.3242 81.8892 47.2336C82.3432 48.0681 83.551 50.283 86.2525 51.2773C87.0078 51.5545 89.0105 52.1175 91.275 51.3537C92.1575 51.0567 92.9722 50.597 93.6992 49.9874C93.736 49.9577 93.7784 49.9365 93.8251 49.9266L98.2973 49.0186C96.8717 48.2364 93.9637 46.2167 93.0231 42.388C92.149 38.828 93.4616 35.9327 94.2748 34.582C91.0628 35.2369 87.8493 35.8917 84.6359 36.5466L82.5016 36.9808L82.5002 36.9822Z" fill="black"/>
<path d="M94.8882 34.1694C90.7087 35.0223 86.5278 35.8738 82.3483 36.7252C80.0259 34.7833 76.944 32.5472 73.0629 30.5161C68.875 28.3224 65.0024 27.0212 61.9219 26.2235C66.0943 25.3635 70.2681 24.505 74.4419 23.6465C77.1731 24.3452 80.4163 25.413 83.9055 27.082C88.6083 29.3295 92.2518 31.9503 94.8882 34.1694Z" fill="#EBECEE"/>
<path d="M82.3486 37.0091C82.2835 37.0091 82.2185 36.9865 82.1675 36.9426C79.3204 34.5622 76.213 32.4845 72.9331 30.7675C69.4254 28.9302 65.6971 27.4932 61.8528 26.4975C61.7256 26.4649 61.6379 26.3475 61.6407 26.216C61.6435 26.0845 61.7369 25.9727 61.867 25.9458C66.0394 25.0859 70.2132 24.2274 74.3871 23.3689C74.4295 23.3604 74.4733 23.3618 74.5144 23.3717C77.7858 24.209 80.988 25.3716 84.0303 26.8256C87.9849 28.7152 91.7004 31.114 95.0737 33.9512C95.1572 34.0205 95.1925 34.1323 95.1657 34.2369C95.1388 34.3416 95.0539 34.4222 94.9479 34.4448C91.5152 35.145 88.081 35.8451 84.6469 36.5452L82.408 37.0006C82.3896 37.0049 82.3698 37.0063 82.3514 37.0063L82.3486 37.0091ZM63.1413 26.2613C66.6221 27.2471 69.9982 28.5921 73.1947 30.2654C76.4719 31.9796 79.5764 34.0502 82.4264 36.4207L84.5324 35.9922C87.7741 35.3317 91.0159 34.6711 94.2562 34.0106C91.0413 31.3672 87.5224 29.124 83.7856 27.3376C80.7956 25.9077 77.6514 24.7634 74.4366 23.9374C70.6715 24.7125 66.9064 25.4862 63.1428 26.2613H63.1413Z" fill="black"/>
<path d="M61.162 29.2191C60.9343 29.782 60.6005 30.4482 60.0772 31.1143C59.841 31.4142 58.6204 32.9219 56.3828 33.6701C55.8086 33.8625 54.4395 34.3037 52.7097 34.0096C50.277 33.598 48.8117 32.0209 48.137 31.2939C46.642 29.6872 46.1173 27.9942 45.9603 27.4214C45.7269 26.5685 45.6562 25.8246 45.6406 25.2843C49.8074 24.4498 53.9741 23.6153 58.1409 22.7822C58.2159 23.5814 58.404 24.6124 58.8594 25.7369C59.4874 27.2884 60.3869 28.4341 61.162 29.2191Z" fill="#CED0D6"/>
<path d="M53.8825 34.3918C53.5021 34.3918 53.0947 34.3621 52.6633 34.2886C50.1344 33.86 48.5899 32.1967 47.9308 31.4867C46.5151 29.9648 45.9182 28.334 45.6891 27.4967C45.491 26.7754 45.3807 26.0343 45.3595 25.2931C45.3553 25.1559 45.4514 25.0343 45.5872 25.0074L46.3354 24.8575C50.2533 24.0725 54.1697 23.289 58.0875 22.5054C58.1653 22.4898 58.2473 22.5082 58.3124 22.5563C58.376 22.6044 58.417 22.6765 58.4255 22.7572C58.5189 23.7486 58.7537 24.7161 59.1242 25.6326C59.6334 26.8914 60.3873 28.0314 61.366 29.0229C61.4452 29.1035 61.4693 29.2223 61.4268 29.3269C61.1284 30.0652 60.7607 30.7074 60.3024 31.2915C59.8625 31.8502 58.608 33.2278 56.4751 33.9406C56.0621 34.0793 55.123 34.3932 53.884 34.3932L53.8825 34.3918ZM45.9352 25.5152C45.9705 26.1319 46.0709 26.7471 46.235 27.3482C46.4514 28.1346 47.0115 29.6692 48.3453 31.1034C49.0185 31.829 50.4187 33.3367 52.7581 33.7327C54.4511 34.0213 55.7905 33.5729 56.2941 33.4046C58.2813 32.7398 59.4467 31.4612 59.8555 30.9422C60.2444 30.4471 60.5641 29.9026 60.83 29.2859C59.8625 28.2732 59.1129 27.1177 58.5981 25.8462C58.2459 24.9763 58.0083 24.0612 57.8937 23.1235C54.0777 23.8858 50.2617 24.651 46.4443 25.4148L45.9337 25.5166L45.9352 25.5152Z" fill="black"/>
<path d="M26.3928 43.4043C25.984 44.4325 25.2288 45.813 23.7352 46.8893C21.9573 48.1722 20.1285 48.3079 19.5019 48.3277C16.2574 48.4296 14.0934 46.4042 13.6719 45.9912C17.9122 45.1284 22.1525 44.2671 26.3928 43.4043Z" fill="#CED0D6"/>
<path d="M19.2705 48.6148C16.1914 48.6148 14.0656 46.7719 13.4758 46.1934C13.4008 46.1198 13.3725 46.0109 13.4022 45.9105C13.4319 45.8101 13.514 45.7337 13.6172 45.7139L26.3381 43.127C26.44 43.1058 26.5446 43.1426 26.6111 43.2232C26.6776 43.3024 26.696 43.4127 26.6564 43.5089C26.0553 45.0194 25.1288 46.2344 23.9012 47.1184C22.1954 48.3489 20.419 48.5808 19.5109 48.6105C19.4289 48.6134 19.3483 48.6148 19.2677 48.6148H19.2705ZM14.2791 46.158C15.1561 46.8921 17.0089 48.124 19.4954 48.0462C20.3383 48.0193 21.9875 47.8044 23.5716 46.6615C24.5758 45.9388 25.3636 44.9742 25.9195 43.7918L14.2791 46.1594V46.158Z" fill="black"/>
<path d="M54.9039 52.6093C52.8658 53.6828 50.4076 55.3461 48.1588 57.899C45.115 61.3515 43.9086 64.7771 43.3131 66.5253C41.3613 72.2479 41.8238 77.1614 42.1279 80.0567C42.4249 82.8812 43.0005 85.1923 43.4857 86.8046C39.35 87.6193 35.2144 88.434 31.0787 89.2473C30.2216 86.997 29.1085 83.256 29.1495 78.532C29.1906 73.5972 30.4706 69.9269 30.9868 68.5747C31.8482 66.316 33.6727 61.7065 38.3614 57.8184C43.2141 53.7945 48.2719 52.9204 49.2761 52.7606C51.3213 52.4367 53.2166 52.4339 54.9039 52.6093Z" fill="#CED0D6"/>
<path d="M31.0804 89.5315C30.9644 89.5315 30.8584 89.4607 30.8159 89.349C29.4907 85.8711 28.8358 82.2319 28.8683 78.5304C28.9051 74.1416 29.898 70.6396 30.724 68.4742C31.5062 66.422 33.3392 61.6173 38.182 57.6005C42.708 53.8467 47.4179 52.7704 49.2325 52.4804C51.1193 52.182 53.0386 52.1297 54.9339 52.3277C55.0584 52.3404 55.1588 52.4338 55.1828 52.5554C55.2069 52.6785 55.1475 52.8015 55.0371 52.8595C52.4856 54.2032 50.2438 55.9612 48.3726 58.0856C45.3006 61.5692 44.0969 65.1066 43.5821 66.6157C41.609 72.4005 42.131 77.3608 42.4096 80.0269C42.6472 82.2884 43.1012 84.5415 43.7575 86.7225C43.7801 86.7989 43.7702 86.8809 43.7292 86.9502C43.6882 87.0181 43.6203 87.0662 43.5411 87.0818L43.1861 87.1511C39.1693 87.9431 35.151 88.7338 31.1342 89.5244C31.1158 89.5286 31.0974 89.5301 31.079 89.5301L31.0804 89.5315ZM52.6709 52.7775C51.5507 52.7775 50.4319 52.8652 49.3216 53.0405C47.5537 53.322 42.9626 54.3729 38.5427 58.0361C33.813 61.9582 32.0182 66.6652 31.2516 68.6751C30.4411 70.7966 29.468 74.2279 29.4327 78.5333C29.4016 82.0848 30.0168 85.5783 31.2601 88.9219C35.1991 88.1468 39.1381 87.3717 43.0772 86.5952L43.1267 86.5853C42.5072 84.4638 42.0772 82.2785 41.8467 80.0848C41.5624 77.3763 41.032 72.3341 43.0461 66.4319C43.5708 64.8902 44.8013 61.2793 47.9469 57.7094C49.6583 55.766 51.6738 54.1211 53.9452 52.8114C53.5209 52.7859 53.0938 52.7732 52.6681 52.7732L52.6709 52.7775Z" fill="black"/>
<path d="M31.0835 89.2483L8.36719 98.586L20.7939 96.1038C28.3594 93.0049 35.9249 89.9046 43.4904 86.8057C39.3548 87.6203 35.2191 88.4336 31.0835 89.2483Z" fill="#CED0D6"/>
<path d="M8.36837 98.8693C8.24531 98.8693 8.13499 98.7901 8.09822 98.6685C8.05579 98.5284 8.12651 98.3799 8.26087 98.3248L30.9772 88.987C30.9942 88.98 31.0125 88.9743 31.0295 88.9715L43.4364 86.5289C43.5793 86.5006 43.7193 86.5854 43.7617 86.7255C43.8042 86.8655 43.732 87.014 43.5977 87.0692L20.9012 96.3673C20.8842 96.3743 20.8672 96.38 20.8488 96.3828L8.42211 98.8651C8.40373 98.8693 8.38534 98.8707 8.36695 98.8707L8.36837 98.8693ZM31.1681 89.5203L11.183 97.7364L20.7145 95.8326L40.701 87.6448L31.1681 89.5217V89.5203Z" fill="black"/>
<path d="M31.0816 89.2483C30.2231 86.9966 29.1114 83.2556 29.151 78.533C29.1935 73.5982 30.4721 69.9279 30.9883 68.5758C31.8497 66.317 33.6742 61.7076 38.3629 57.8194C43.217 53.7955 48.2734 52.92 49.279 52.7616C55.7045 51.7419 60.6379 53.9115 62.3776 54.705C67.499 57.0415 70.3561 60.5449 71.8553 62.4261C72.7846 63.5929 75.9188 67.713 77.4463 74.0339C78.7787 79.5499 78.2483 84.0901 77.8989 86.1734C77.5156 88.4619 76.9287 90.3289 76.4351 91.6584C83.9963 95.5494 91.5576 99.4417 99.1188 103.333C99.7808 101.698 100.433 99.8519 101.008 97.8081C101.641 95.5692 102.071 93.4815 102.366 91.6047C101.542 91.4703 99.9109 91.0884 98.3325 89.8339C96.4612 88.3459 95.7682 86.5072 95.4443 85.6134C94.5164 83.0505 94.8828 80.8738 94.9648 80.4212C95.143 79.4481 95.5589 77.352 97.4004 75.6024C99.3169 73.7821 101.566 73.4851 102.312 73.4186C101.776 70.0411 100.856 65.9606 99.2376 61.4841C97.5956 56.9411 95.6593 53.1675 93.8857 50.203C93.3779 50.6287 92.5377 51.227 91.3695 51.6202C88.8561 52.466 86.6893 51.7362 86.1575 51.541C83.3584 50.5113 82.0982 48.2003 81.6442 47.3672C80.5947 45.4422 80.4972 43.6728 80.466 42.9543C80.4349 42.2415 80.384 40.7182 81.0855 38.9403C81.4759 37.9503 81.9709 37.2091 82.3429 36.724C80.0205 34.7821 76.9372 32.5459 73.0575 30.5135C68.8681 28.3198 64.997 27.0185 61.9151 26.2208C61.8613 26.7654 61.7453 27.5008 61.4752 28.3367C61.2673 28.9803 60.9151 30.0453 60.0778 31.1117C59.8416 31.4116 58.621 32.9193 56.3834 33.6675C55.8092 33.8599 54.4387 34.2998 52.7089 34.007C50.2776 33.5954 48.8109 32.0184 48.1362 31.2914C46.6426 29.6832 46.1165 27.9916 45.9595 27.4174C45.7261 26.5659 45.6568 25.822 45.6398 25.2803C42.7771 25.7329 39.1323 26.5758 35.1169 28.2151C30.9374 29.9208 27.6405 31.9632 25.2332 33.7057C25.6957 34.3945 26.3025 35.4652 26.6914 36.881C26.9389 37.7805 27.4891 39.8922 26.731 42.4126C26.4552 43.3277 25.8004 45.397 23.7354 46.8849C21.9575 48.1663 20.1287 48.3021 19.5021 48.3219C16.2576 48.4237 14.095 46.3983 13.6721 45.9853C11.9932 48.609 10.163 51.9356 8.58032 55.9496C6.73173 60.6383 5.75581 64.9055 5.22542 68.3297C6.0698 68.498 7.62845 68.9279 9.139 70.1471C11.3214 71.9066 11.9946 74.1753 12.2535 75.0989C12.938 77.5288 12.5349 79.5174 12.4133 80.0506C12.2294 80.8611 11.8843 82.3065 10.6962 83.7252C9.32711 85.3602 7.65391 85.9853 6.96228 86.2017C6.23104 86.4295 5.58892 86.5115 5.125 86.5412C5.40505 88.3728 5.80673 90.3925 6.38238 92.5509C6.97925 94.7884 7.66381 96.8039 8.35968 98.5818L31.076 89.2441L31.0816 89.2483Z" fill="white"/>
<path d="M99.1164 103.616C99.0711 103.616 99.0273 103.606 98.9863 103.584L76.3025 91.9101C76.1752 91.8451 76.1172 91.6937 76.1667 91.5594C76.8201 89.8013 77.3081 87.9739 77.6179 86.1268C78.2755 82.1962 78.12 78.0365 77.1695 74.0989C75.7975 68.4188 73.1116 64.4571 71.6322 62.6014C70.2659 60.8858 67.4216 57.3173 62.2577 54.9624C57.9693 53.0063 53.6159 52.3599 49.3204 53.0402C47.5524 53.3203 42.9656 54.3683 38.5414 58.0372C33.8146 61.9565 32.0183 66.6649 31.2503 68.6762C30.4413 70.7977 29.4682 74.229 29.4314 78.5344C29.4003 82.1693 30.0439 85.7392 31.3437 89.1479C31.3988 89.2907 31.3281 89.452 31.1867 89.5099L8.47036 98.8477C8.39964 98.876 8.32185 98.8759 8.25113 98.8462C8.18183 98.8165 8.12667 98.76 8.09838 98.6893C7.32613 96.7148 6.65713 94.6767 6.11118 92.6286C5.5822 90.6471 5.15789 88.6146 4.84672 86.5878C4.83541 86.5101 4.85662 86.4294 4.90613 86.3672C4.95563 86.305 5.02918 86.2668 5.10838 86.2625C5.71091 86.2229 6.30778 86.1126 6.87918 85.9358C7.68821 85.6841 9.23129 85.0391 10.4802 83.5483C11.6485 82.1538 11.9667 80.7479 12.1378 79.9926C12.3373 79.1115 12.5834 77.3166 11.9823 75.1795C11.7461 74.3408 11.1181 72.1103 8.96256 70.3706C7.88056 69.4979 6.56944 68.8897 5.17062 68.6111C5.02211 68.5814 4.9231 68.44 4.94573 68.29C5.60625 64.0342 6.73916 59.849 8.31619 55.8492C9.69097 52.3642 11.4123 48.9951 13.4334 45.8368C13.4787 45.7647 13.555 45.718 13.6399 45.7081C13.7234 45.6982 13.8082 45.7279 13.869 45.7873C14.4362 46.3403 16.521 48.1366 19.4926 48.0432C20.3356 48.0164 21.9847 47.8014 23.5688 46.6586C25.5971 45.1961 26.2236 43.117 26.4584 42.3334C27.208 39.8413 26.6338 37.7466 26.416 36.9588C26.1147 35.8626 25.6367 34.8231 24.9959 33.8669C24.9111 33.7411 24.9422 33.5699 25.0652 33.4808C28.1443 31.2518 31.4893 29.3933 35.0083 27.9577C38.4057 26.5702 41.9671 25.5773 45.5935 25.0044C45.6741 24.9917 45.7562 25.0143 45.8184 25.0667C45.8806 25.119 45.9188 25.1954 45.9202 25.276C45.9415 25.9775 46.0447 26.6734 46.23 27.3467C46.4464 28.1331 47.0079 29.6677 48.3402 31.1032C49.0135 31.8288 50.4151 33.3365 52.7531 33.7326C54.4489 34.0197 55.7869 33.5727 56.2905 33.4044C58.2833 32.7383 59.4445 31.4611 59.8519 30.942C60.675 29.8925 61.0187 28.8275 61.2026 28.2547C61.4176 27.5885 61.5604 26.8969 61.6297 26.1968C61.6382 26.1147 61.6821 26.0398 61.7485 25.9931C61.8164 25.9464 61.9013 25.9309 61.9819 25.9507C65.8658 26.9563 69.6337 28.4089 73.1838 30.2673C76.5019 32.0042 79.6432 34.106 82.5187 36.5104C82.6346 36.608 82.6544 36.7791 82.5611 36.8994C82.0548 37.5585 81.6446 38.2812 81.3419 39.0478C80.6489 40.8059 80.7139 42.3051 80.7422 42.9444C80.7705 43.5964 80.8469 45.3262 81.8864 47.2342C82.3405 48.0687 83.5483 50.2836 86.2484 51.2779C87.0037 51.5551 89.0036 52.1195 91.2722 51.3557C92.1548 51.0587 92.9695 50.599 93.6965 49.9894C93.7601 49.9357 93.8436 49.913 93.9256 49.9272C94.0077 49.9413 94.0784 49.9894 94.1208 50.0616C96.2664 53.6484 98.074 57.4616 99.4954 61.3921C100.898 65.2718 101.937 69.3042 102.584 73.3776C102.597 73.4553 102.576 73.5346 102.528 73.5954C102.48 73.6576 102.408 73.6958 102.33 73.7029C101.29 73.7948 99.2918 74.1908 97.5874 75.8089C95.7756 77.5302 95.3966 79.5937 95.2353 80.4735C95.0981 81.2231 94.8676 83.2146 95.7021 85.5172C95.9864 86.3036 96.6525 88.1437 98.5011 89.6118C99.9084 90.7306 101.401 91.1605 102.405 91.3246C102.559 91.3501 102.662 91.4943 102.638 91.6471C102.309 93.7446 101.849 95.8421 101.273 97.8831C100.744 99.7599 100.105 101.628 99.3738 103.437C99.3441 103.511 99.2847 103.569 99.2097 103.596C99.1772 103.607 99.1452 103.614 99.1113 103.614L99.1164 103.616ZM76.7848 91.5198L98.9693 102.938C99.6454 101.238 100.238 99.4884 100.734 97.7303C101.279 95.7997 101.719 93.8167 102.041 91.8338C100.985 91.6273 99.5338 91.1509 98.1548 90.0562C96.1817 88.4876 95.4772 86.5426 95.1759 85.7109C94.2948 83.2782 94.538 81.1665 94.6851 80.3717C94.8421 79.5174 95.258 77.2473 97.2041 75.3987C98.8788 73.8075 100.815 73.3182 101.985 73.1711C101.341 69.232 100.327 65.3354 98.9707 61.5831C97.5988 57.7883 95.8633 54.1053 93.8082 50.6301C93.094 51.1832 92.3047 51.6061 91.4589 51.8918C89.0206 52.7135 86.8707 52.1082 86.0589 51.8097C83.1594 50.7433 81.878 48.3912 81.3957 47.5058C80.2939 45.4832 80.2104 43.5922 80.1835 42.9699C80.1538 42.2938 80.0845 40.7097 80.8214 38.8399C81.1099 38.1087 81.4904 37.4142 81.9557 36.7735C79.1666 34.4652 76.1299 32.4455 72.9264 30.768C69.5106 28.9788 65.8898 27.5715 62.1601 26.5815C62.0781 27.2095 61.9395 27.829 61.7457 28.4287C61.5505 29.034 61.1878 30.1628 60.3024 31.2915C59.8639 31.8502 58.6136 33.2264 56.4751 33.9406C55.9348 34.1217 54.4984 34.601 52.6626 34.2912C50.1351 33.8627 48.5906 32.1994 47.9301 31.4894C46.5143 29.9661 45.9174 28.3353 45.6883 27.498C45.52 26.8856 45.4153 26.2533 45.3743 25.6169C41.8978 26.1897 38.4863 27.1543 35.2261 28.4838C31.833 29.8685 28.6026 31.652 25.6197 33.7849C26.2194 34.7283 26.672 35.7452 26.9648 36.8131C27.1925 37.6447 27.7992 39.8526 27.0029 42.5003C26.7526 43.3334 26.0864 45.5454 23.9026 47.1211C22.1969 48.3516 20.4204 48.5835 19.5124 48.6118C16.6836 48.7009 14.6625 47.2667 13.729 46.4323C11.8069 49.4774 10.1634 52.7149 8.84375 56.0613C7.31481 59.9396 6.20594 63.9932 5.54684 68.1175C6.93576 68.4357 8.23416 69.0609 9.31757 69.935C11.6145 71.7878 12.3019 74.229 12.5268 75.031C13.1618 77.2869 12.9016 79.1892 12.6894 80.1227C12.5211 80.8667 12.169 82.4154 10.913 83.9161C9.57216 85.5186 7.91451 86.2102 7.04608 86.4804C6.52842 86.6416 5.99378 86.7505 5.45208 86.8057C5.75475 88.7122 6.15927 90.6231 6.65713 92.4872C7.17338 94.4221 7.79853 96.3485 8.51986 98.2197L30.7157 89.0955C29.4555 85.6996 28.8331 82.1481 28.8643 78.5344C28.901 74.1441 29.8939 70.6436 30.7199 68.4782C31.5035 66.4259 33.3365 61.6198 38.1779 57.6058C42.7096 53.8478 47.4166 52.7729 49.2299 52.4858C53.6371 51.7871 58.098 52.4476 62.4897 54.4518C67.7766 56.8633 70.6775 60.5039 72.0721 62.2535C73.5798 64.1459 76.3195 68.1854 77.7169 73.9716C78.6857 77.9828 78.8441 82.2188 78.1737 86.2243C77.8724 88.0234 77.4043 89.8055 76.7819 91.5254L76.7848 91.5198Z" fill="black"/>
<path d="M71.9977 55.7822C68.4433 65.7182 64.889 75.6528 61.3347 85.5874C61.2781 85.7387 61.1975 85.9396 61.09 86.1715C61.0476 86.2649 60.8595 86.6722 60.5568 87.1757C60.2668 87.6566 59.868 88.3171 59.2485 89.0017C58.2825 90.071 57.2825 90.6367 56.7224 90.9493C55.762 91.4839 54.929 91.7527 54.4962 91.8771C54.1511 91.9761 53.8526 92.0426 53.6277 92.0865C51.9729 92.3891 47.4893 93.2547 45.8359 93.556C46.7737 93.3693 47.7948 93.0284 48.8019 92.4372C50.1526 91.6452 51.0974 90.6268 51.6504 89.9211C52.311 89.0781 52.731 88.2747 52.9955 87.6708C56.5894 77.6103 60.1834 67.5498 63.7773 57.4894C65.575 57.1089 70.2014 56.1627 71.9977 55.7822Z" fill="#FF444F"/>
<path d="M45.8371 93.8401C45.7042 93.8401 45.5854 93.7453 45.5599 93.6095C45.5302 93.4568 45.6306 93.3097 45.782 93.2786C46.8159 93.0721 47.7833 92.7071 48.6602 92.1937C49.9629 91.43 50.885 90.4413 51.4296 89.7469C51.9543 89.0779 52.3927 88.3438 52.7336 87.5659L63.5126 57.3944C63.5451 57.3025 63.6243 57.2332 63.7205 57.2134C64.6116 57.0252 66.2254 56.6915 67.7868 56.369C69.3837 56.0394 71.0342 55.6986 71.9409 55.5062C72.0413 55.485 72.1445 55.5189 72.2124 55.5967C72.2803 55.6745 72.3001 55.782 72.2662 55.8782L61.6032 85.6834C61.5268 85.887 61.4419 86.0893 61.3486 86.2915C61.2821 86.4386 61.094 86.8361 60.8012 87.3226C60.5056 87.8134 60.0997 88.4866 59.4604 89.1924C58.4491 90.3112 57.4166 90.8883 56.8622 91.1966C56.1338 91.6025 55.3644 91.9222 54.5765 92.1499C54.2809 92.2347 53.9797 92.3069 53.6841 92.3649C52.8736 92.5134 51.3574 92.8019 49.8921 93.0805C48.3406 93.3762 46.7367 93.6817 45.8895 93.8358C45.8725 93.8387 45.8555 93.8401 45.8385 93.8401H45.8371ZM63.9921 57.7338L53.264 87.7667C53.264 87.7667 53.2598 87.7795 53.2569 87.7851C52.8963 88.6097 52.4309 89.3862 51.8751 90.0962C51.3009 90.8289 50.3263 91.8727 48.9473 92.6817C48.9459 92.6817 48.9431 92.6831 48.9417 92.6845C49.2217 92.6308 49.5046 92.577 49.7861 92.5233C51.2528 92.2446 52.769 91.9561 53.5794 91.8076C53.8566 91.7539 54.1395 91.6846 54.421 91.6054C55.1678 91.3904 55.8976 91.0863 56.5878 90.7016C57.1139 90.4088 58.0927 89.8614 59.0417 88.812C59.6443 88.1458 60.0332 87.5008 60.3175 87.0298C60.6018 86.556 60.7857 86.1642 60.8352 86.0553C60.9229 85.8644 61.0035 85.6749 61.0728 85.4896L71.5632 56.1639C70.6184 56.3619 69.2408 56.6462 67.9014 56.9234C66.4276 57.2275 64.9057 57.5415 63.9921 57.7353V57.7338Z" fill="black"/>
<path d="M38.4521 71.4685C46.896 66.8096 55.3398 62.1506 63.7822 57.4902L53.0004 87.6716C52.7359 88.2756 52.3159 89.0789 51.6554 89.9219C51.1023 90.6277 50.1561 91.646 48.8068 92.4381C45.5849 94.3277 42.2271 93.6587 41.8707 93.5823C39.0434 92.9741 37.3645 91.2373 36.5187 90.3604C34.2118 87.9715 33.4297 85.2078 33.1638 83.5176C33.0125 82.5572 32.6631 80.1443 33.7097 77.3283C34.9841 73.8984 37.5059 72.081 38.4507 71.4685H38.4521Z" fill="#FF7E88"/>
<path d="M43.7454 94.0362C42.7044 94.0362 41.9732 93.8934 41.8091 93.858C38.8969 93.2328 37.1516 91.4253 36.3142 90.5568C34.0131 88.1736 33.1786 85.4382 32.8844 83.5627C32.7528 82.724 32.3512 80.1739 33.4445 77.2306C34.658 73.9634 37.0045 72.0695 38.2958 71.2322C38.3014 71.228 38.3071 71.2251 38.3128 71.2223L63.6428 57.244C63.7447 57.1874 63.8734 57.2002 63.9625 57.2766C64.0516 57.3529 64.0855 57.476 64.0459 57.5877L53.2641 87.7691C53.2641 87.7691 53.2599 87.7818 53.2571 87.7875C52.895 88.6135 52.4297 89.3914 51.8766 90.0986C51.3024 90.8312 50.3279 91.875 48.9489 92.6841C47.0706 93.7859 45.1343 94.0405 43.7482 94.0405L43.7454 94.0362ZM38.5942 71.7103C37.3595 72.5136 35.1276 74.3198 33.9735 77.4258C32.9311 80.2305 33.3158 82.6717 33.4416 83.4736C33.7245 85.2685 34.5222 87.8865 36.7202 90.1636C37.5815 91.0561 39.184 92.7152 41.9279 93.305C42.29 93.3828 45.5571 94.014 48.6602 92.1937C49.9629 91.4286 50.885 90.4413 51.4296 89.7469C51.9515 89.0807 52.3913 88.3452 52.7336 87.5659L63.261 58.0997L38.5942 71.7117V71.7103Z" fill="black"/>
</g>
</g>
</svg>
