<svg width="120" height="152" viewBox="0 0 120 152" fill="none" xmlns="http://www.w3.org/2000/svg">
<g id="illustration / dark / safe-and-secure">
<g id="illustration">
<path d="M41.9997 76.1998C42.0025 76.2606 42.0166 76.5095 41.9049 76.7938C41.755 77.1729 41.4664 77.3978 41.2755 77.5321C40.2628 78.2478 39.3109 78.5024 39.3109 78.5024C38.3704 78.7542 37.2318 79.0583 35.5232 79.1346C34.0028 79.2039 32.8755 79.054 32.0849 78.9451C32.0849 78.9451 30.5899 78.7386 29.2194 78.1969C29.1232 78.1587 28.6253 77.9579 28.1105 77.5307C27.7866 77.262 27.6621 77.0767 27.5886 76.931C27.433 76.6269 27.409 76.3384 27.409 76.1658C27.4047 66.5255 27.4005 56.8865 27.3962 47.2461C27.3948 46.1655 27.4556 44.7427 27.7017 43.0935C27.8502 42.0964 28.276 39.6226 29.4853 36.6242C31.0665 32.7035 33.0792 30.1364 33.6124 29.4759C34.3309 28.5835 35.5119 27.1351 37.4326 25.6288C39.5684 23.9542 41.6249 22.9896 43.0704 22.4338C45.0095 21.6686 46.9457 20.9006 48.8806 20.1311C55.5947 17.4622 62.2988 14.7664 68.9945 12.0438C69.7681 11.758 70.8176 11.4426 72.0891 11.2644C74.024 10.9929 75.5317 11.1711 76.0621 11.2446C78.2162 11.5431 79.7452 12.2701 80.1751 12.4822C80.7451 12.7637 82.1312 13.5034 83.5498 14.898C84.6997 16.0295 85.3517 17.0803 85.786 17.7932C86.0264 18.1864 86.8524 19.5767 87.503 21.5865C87.8976 22.8043 88.0702 23.7618 88.1819 24.4026C88.4577 25.9711 88.5355 27.3374 88.5412 28.3968C88.5298 38.1008 88.5185 47.8048 88.5072 57.5088C88.5129 57.5866 88.5129 57.704 88.4803 57.8384C88.4351 58.0265 88.3502 58.1495 88.2413 58.308C88.1678 58.414 88.0405 58.5937 87.8227 58.7874C87.7703 58.8327 87.5893 58.9911 87.2046 59.1948C86.8425 59.3871 86.5427 59.4918 86.4012 59.5399C85.8977 59.7124 85.4083 59.8793 84.6672 60.0363C83.7167 60.2372 82.977 60.2881 82.4806 60.3206C82.1892 60.3404 81.5782 60.3729 80.7932 60.3503C79.5089 60.315 78.5359 60.1537 78.1271 60.0802C77.5939 59.984 76.9857 59.8482 76.3054 59.6262C75.8797 59.4875 75.5119 59.3419 75.1117 59.1014C74.5742 58.7789 74.3564 58.5102 74.2531 58.3631C74.0509 58.0746 73.9802 57.8214 73.9632 57.7535C73.9207 57.588 73.9094 57.4438 73.908 57.3391C73.9165 47.8373 73.925 38.337 73.9335 28.8352C73.9363 28.6443 73.9335 28.384 73.9165 28.0771C73.8995 27.7688 73.8811 27.4279 73.8034 26.9994C73.7567 26.7391 73.6789 26.3968 73.5431 26.0008L48.131 36.238C47.9019 36.3272 47.5949 36.4587 47.2527 36.651C47.0264 36.7783 46.3559 37.1687 45.6148 37.9155C44.909 38.6269 44.5286 39.2691 44.0845 40.0187C43.3546 41.2492 42.977 42.2732 42.8738 42.5617C42.7026 43.0398 42.3844 44.0058 42.1949 45.2773C42.0718 46.0962 42.0364 46.8133 42.035 47.3805C41.994 63.7604 41.9714 75.5874 41.9954 76.1998H41.9997Z" fill="#303541"/>
<path d="M34.7538 79.4358C33.5714 79.4358 32.6761 79.3128 32.0481 79.2265C31.9859 79.218 30.5036 79.0101 29.1175 78.4599C28.9294 78.385 28.4372 78.1671 27.9323 77.7499C27.5617 77.443 27.4203 77.2209 27.3382 77.0625C27.1982 76.7895 27.1261 76.4883 27.1275 76.1672L27.1148 47.2475C27.1133 45.8487 27.2166 44.4371 27.4245 43.0525C27.7456 40.904 28.3679 38.6438 29.2264 36.5195C30.662 32.9595 32.454 30.4673 33.3946 29.2991C34.0509 28.483 35.2743 26.9639 37.2615 25.4067C38.9899 24.0517 40.912 22.9627 42.9728 22.1706C44.909 21.4054 46.8453 20.6389 48.7802 19.8694C55.4716 17.209 62.238 14.4877 68.8926 11.7834C69.9195 11.4044 70.9803 11.1371 72.0552 10.9872C73.7793 10.7453 75.2092 10.8429 76.1074 10.9674C78.0946 11.2432 79.5924 11.8782 80.3081 12.2318C81.5442 12.8428 82.7351 13.6971 83.7549 14.6999C84.9543 15.8795 85.6304 16.9869 86.0349 17.6489C86.4295 18.2966 87.182 19.6587 87.7802 21.503C88.189 22.7661 88.3644 23.7618 88.469 24.3572C88.7024 25.6882 88.8255 27.0474 88.8325 28.3981L88.7986 57.5031C88.8071 57.6403 88.7957 57.7761 88.7646 57.9076C88.7066 58.1523 88.5921 58.315 88.4818 58.4734C88.411 58.5738 88.2654 58.7831 88.0178 59.0024C87.8566 59.1452 87.6246 59.2994 87.3446 59.4479C86.95 59.6572 86.6233 59.769 86.5002 59.81C86.0023 59.9797 85.4889 60.1551 84.7337 60.3149C83.7436 60.5242 82.9699 60.5751 82.5074 60.6048C81.9502 60.6416 81.3745 60.6515 80.7932 60.6345C79.8724 60.6091 78.9361 60.5143 78.0847 60.3602C77.4143 60.2399 76.8245 60.0914 76.2248 59.8962C75.8429 59.7718 75.4285 59.619 74.9745 59.3461C74.5445 59.0872 74.2362 58.8199 74.0297 58.5271C73.8217 58.2315 73.7326 57.9614 73.6973 57.8256C73.6563 57.6686 73.635 57.5074 73.6336 57.3447L73.6591 28.8366C73.6619 28.5891 73.6563 28.3401 73.6435 28.094C73.628 27.7984 73.6096 27.4632 73.5346 27.0502C73.4936 26.8253 73.4413 26.6004 73.3762 26.3784L48.247 36.5011C47.9556 36.6142 47.6713 36.7472 47.4012 36.8985C47.025 37.1078 46.4465 37.4897 45.827 38.1149C45.1467 38.8008 44.7718 39.4331 44.339 40.1629C43.6913 41.2534 43.3164 42.1939 43.151 42.6564C42.8469 43.5036 42.6234 44.3989 42.4848 45.3183C42.383 45.9986 42.3306 46.6931 42.3278 47.3804C42.2939 61.2526 42.2627 75.5237 42.2882 76.1884L42.0053 76.1997L42.2882 76.1955C42.2981 76.443 42.2599 76.6792 42.1736 76.8984C42.0039 77.3298 41.6956 77.5872 41.4452 77.764C40.4028 78.5009 39.4312 78.7654 39.3901 78.7767C38.4496 79.0285 37.2799 79.3397 35.543 79.4189C35.2701 79.4316 35.0084 79.4358 34.7609 79.4358H34.7538ZM74.1767 11.4016C73.5657 11.4016 72.8769 11.4398 72.1301 11.5444C71.0962 11.6887 70.0736 11.9461 69.0935 12.3082C62.4459 15.0111 55.6781 17.7323 48.9853 20.3927C47.0504 21.1622 45.1127 21.9302 43.1736 22.6954C41.1638 23.4676 39.2911 24.5298 37.6066 25.8494C35.6703 27.367 34.4752 28.8535 33.8316 29.6512C32.9109 30.7955 31.1556 33.2367 29.7469 36.7288C28.9068 38.8136 28.2958 41.0285 27.9804 43.1345C27.7781 44.4909 27.6749 45.8741 27.6777 47.2461L27.6904 76.1658C27.6904 76.3963 27.7399 76.6099 27.8389 76.8023C27.8955 76.9126 27.9987 77.071 28.2901 77.3129C28.7328 77.6792 29.16 77.8687 29.3226 77.9338C30.6436 78.4571 32.1075 78.6636 32.1217 78.665C32.8614 78.7668 33.9816 78.921 35.5077 78.8531C37.1837 78.7767 38.3209 78.4741 39.2331 78.2308C39.243 78.228 40.1539 77.9776 41.1086 77.303C41.3066 77.1629 41.523 76.9819 41.6376 76.6919C41.6942 76.5463 41.7196 76.3879 41.714 76.2195V76.2125C41.6927 75.675 41.7055 67.053 41.7536 47.3819C41.7564 46.6662 41.8101 45.9448 41.9162 45.2377C42.0591 44.2815 42.2924 43.3495 42.6078 42.4683C42.7804 41.986 43.1708 41.0087 43.8426 39.8772C44.2952 39.1148 44.6856 38.4557 45.4154 37.7188C46.0816 37.047 46.7081 36.634 47.1155 36.4063C47.4097 36.2422 47.718 36.098 48.0306 35.9763L73.4384 25.7405C73.5106 25.7122 73.5912 25.7136 73.6619 25.7462C73.7326 25.7787 73.7864 25.8381 73.8118 25.9116C73.9278 26.2525 74.0183 26.6019 74.082 26.9512C74.1626 27.3996 74.1824 27.7532 74.1994 28.0643C74.2135 28.3246 74.2192 28.5862 74.2164 28.8422L74.1909 57.3419C74.1923 57.455 74.2079 57.5724 74.2376 57.6856C74.2574 57.7648 74.3224 57.9713 74.4851 58.2018C74.5445 58.2853 74.7213 58.5384 75.2573 58.8609C75.6406 59.0915 75.9886 59.2272 76.3931 59.3588C76.9659 59.5469 77.5331 59.6869 78.178 59.8029C79.0012 59.9514 79.9092 60.0433 80.8017 60.0688C81.3646 60.0844 81.9233 60.0745 82.4622 60.0391C82.9091 60.0094 83.6587 59.9613 84.6078 59.7605C85.3305 59.6077 85.8043 59.4465 86.3064 59.2739C86.4196 59.2357 86.7152 59.1339 87.0702 58.9458C87.3899 58.7761 87.5596 58.6417 87.6331 58.5766C87.8311 58.4012 87.9471 58.2358 88.0079 58.1467C88.1154 57.9939 88.172 57.9076 88.2045 57.7733C88.2229 57.6955 88.23 57.6134 88.2243 57.53C88.2243 57.5229 88.2243 57.5159 88.2243 57.5102L88.2583 28.3981C88.2512 27.0813 88.131 25.7532 87.9033 24.4534C87.8014 23.8735 87.6303 22.9018 87.2343 21.6756C86.6544 19.8864 85.9274 18.5682 85.5441 17.9416C85.1537 17.3023 84.5003 16.2317 83.3504 15.1002C82.3731 14.1384 81.2317 13.3209 80.0492 12.7367C79.3647 12.3973 77.9305 11.7891 76.0225 11.5246C75.5487 11.4596 74.9193 11.4016 74.1739 11.4016H74.1767Z" fill="white"/>
<path d="M105.487 57.92C105.388 59.1038 104.73 59.9001 104.188 60.5549C103.362 61.5549 102.484 62.0853 101.692 62.5619C100.811 63.0951 100.016 63.4332 99.439 63.6468C83.6206 70.0213 67.8022 76.3959 51.9838 82.7691C51.0687 83.1156 49.783 83.564 48.2159 83.9883C43.9629 85.1382 40.5811 85.3093 37.4341 85.4522C35.4427 85.5413 32.5064 85.6629 28.648 85.2655C27.3906 85.1368 24.7585 84.8199 21.4856 84.0138C19.3669 83.4919 17.0713 82.7875 14.6032 81.4778C13.3699 80.8243 12.1606 80.0549 11.2894 78.6632C10.9372 78.1017 10.4167 77.246 10.4634 76.1074C10.5171 74.8118 11.2752 73.9123 11.848 73.232C12.708 72.2108 13.6401 71.6818 14.6174 71.1288C15.2722 70.7568 15.8705 70.4994 17.0671 69.9832C18.0133 69.5758 18.8054 69.2632 19.3556 69.0525C22.0386 67.9705 24.7217 66.8885 27.4048 65.8079C27.4062 69.2604 27.4075 72.7134 27.409 76.1658C27.409 76.3384 27.4331 76.6293 27.5901 76.932C27.6636 77.0777 27.7881 77.2629 28.112 77.5317C28.6268 77.9574 29.1232 78.1587 29.2194 78.1969C30.5913 78.74 32.0849 78.9451 32.0849 78.9451C32.8755 79.054 34.0028 79.2025 35.5232 79.1346C37.2304 79.0568 38.369 78.7527 39.3109 78.5024C39.3109 78.5024 40.2628 78.2478 41.2755 77.5321C41.4664 77.3978 41.755 77.1729 41.9049 76.7938C42.0166 76.5095 42.0011 76.2606 41.9997 76.1998C41.9827 75.7571 41.9898 69.4994 42.0096 59.9114C47.735 57.6074 53.459 55.3034 59.1844 52.9979C59.8718 52.6811 60.7176 52.3091 61.6978 51.9202C62.2381 51.7038 63.4148 51.2455 64.972 50.742C66.1318 50.3658 67.4005 49.9584 69.1261 49.578C70.7229 49.2272 71.8841 49.0815 72.2306 49.0391C72.8728 48.9627 73.4442 48.9146 73.9194 48.8849C73.918 51.7038 73.9151 54.5226 73.9123 57.3415C73.9137 57.4447 73.925 57.589 73.9675 57.7559C73.9845 57.8224 74.0538 58.0755 74.2574 58.3641C74.3607 58.5112 74.5785 58.7799 75.116 59.1024C75.5162 59.3428 75.884 59.4885 76.3083 59.6271C76.9886 59.8492 77.5982 59.9849 78.1314 60.0811C78.5387 60.1547 79.5118 60.3145 80.7961 60.3513C81.5811 60.3725 82.1921 60.3399 82.4835 60.3216C82.9799 60.289 83.7196 60.2367 84.6701 60.0359C85.4112 59.8803 85.9006 59.7134 86.4041 59.5408C86.5441 59.4927 86.844 59.3881 87.2061 59.1957C87.5922 58.992 87.7732 58.835 87.8255 58.7884C88.0434 58.5946 88.1707 58.415 88.2442 58.3089C88.3545 58.1519 88.4394 58.0274 88.4846 57.8393C88.5158 57.705 88.5158 57.589 88.5101 57.5112C88.5129 54.6245 88.5172 51.7391 88.52 48.8538C89.1268 48.9005 89.841 48.9712 90.6402 49.0844C92.4534 49.3404 93.797 49.6869 94.7037 49.9231C96.0699 50.2795 97.3118 50.602 98.8973 51.2611C99.9383 51.6925 101.034 52.155 102.322 53.0474C103.529 53.8847 104.647 54.681 105.197 56.1322C105.323 56.4631 105.555 57.0982 105.487 57.92Z" fill="#303541"/>
<path d="M34.0664 85.8235C32.5304 85.8235 30.6988 85.7599 28.6182 85.5463C26.2421 85.3031 23.8193 84.8801 21.4176 84.2875C19.5747 83.8335 17.1193 83.132 14.4702 81.7261C13.2298 81.0684 11.9555 80.2608 11.0488 78.8111C10.7051 78.2623 10.1295 77.3429 10.1804 76.0941C10.2384 74.7023 11.0432 73.7476 11.6301 73.0489C12.5254 71.9853 13.5183 71.4238 14.4773 70.8807C15.1392 70.5045 15.7347 70.2484 16.9199 69.7364L16.9539 69.7223C17.7134 69.3956 18.487 69.0802 19.2536 68.7874L19.7204 68.5993C22.2465 67.5809 24.7725 66.5626 27.2986 65.5442C27.3863 65.5089 27.4853 65.5202 27.5631 65.5725C27.6409 65.6249 27.6876 65.7125 27.6876 65.8073L27.6918 76.1662C27.6918 76.3967 27.7413 76.6103 27.8403 76.8012C27.8969 76.913 27.9973 77.07 28.2915 77.3132C28.7314 77.6767 29.1599 77.8677 29.3226 77.9327C30.6479 78.4575 32.1075 78.6622 32.1217 78.665C32.8614 78.7668 33.9773 78.9214 35.5091 78.8521C37.1795 78.7757 38.3152 78.4745 39.2275 78.2312C39.2459 78.2255 40.1553 77.9752 41.1114 77.3005C41.2967 77.1704 41.5244 76.9823 41.6418 76.6895C41.7253 76.4774 41.7196 76.285 41.7168 76.2214C41.7168 76.2214 41.7168 76.2072 41.7168 76.2058C41.7012 75.8041 41.7041 70.6247 41.7267 59.9094C41.7267 59.7934 41.7974 59.6901 41.9035 59.6477C47.6289 57.3437 53.3529 55.0397 59.0783 52.7342C59.9014 52.3538 60.7515 51.9903 61.593 51.6565C62.303 51.3722 63.4529 50.9352 64.8843 50.4727C65.9535 50.1261 67.2845 49.6947 69.0638 49.3016C69.8148 49.1361 70.9689 48.9084 72.1952 48.7584C72.7723 48.6891 73.3465 48.6368 73.9009 48.6029C73.9801 48.5958 74.0551 48.6255 74.1131 48.6792C74.1711 48.733 74.2022 48.8079 74.2022 48.8857C74.2022 51.4698 74.1979 54.0539 74.1965 56.6379V57.3423C74.1965 57.454 74.2135 57.5714 74.2418 57.6874C74.2616 57.7652 74.3252 57.9703 74.4893 58.2022C74.5487 58.2857 74.7255 58.5388 75.2616 58.8613C75.6477 59.0933 75.9942 59.229 76.3959 59.3592C76.9673 59.5459 77.5345 59.6873 78.1808 59.8033C78.9998 59.9518 79.9078 60.0437 80.8031 60.0692C81.3604 60.0847 81.919 60.0748 82.465 60.0395C82.9091 60.0098 83.6545 59.9617 84.6106 59.7594C85.3404 59.6067 85.8114 59.444 86.3107 59.2743C86.4337 59.2319 86.7194 59.1343 87.0716 58.9476C87.3092 58.8217 87.5101 58.6916 87.6359 58.5784C87.8354 58.4002 87.9499 58.2362 88.0107 58.1485C88.1154 58 88.1762 57.9094 88.2088 57.7737C88.2272 57.6959 88.2328 57.6138 88.2272 57.5318C88.2272 57.5247 88.2272 57.5177 88.2272 57.5106L88.2371 48.8532C88.2371 48.774 88.2696 48.699 88.3276 48.6453C88.3856 48.5915 88.4619 48.5647 88.5411 48.5703C89.2724 48.6269 89.9711 48.7033 90.6797 48.8023C92.5382 49.0639 93.9384 49.4288 94.7743 49.6467L94.8012 49.6537C96.1434 50.0045 97.4121 50.3355 99.0047 50.9974C100.006 51.4118 101.14 51.8828 102.481 52.812C103.654 53.6253 104.867 54.4669 105.46 56.0283C105.574 56.3282 105.842 57.0339 105.767 57.9391C105.661 59.2135 104.963 60.055 104.405 60.7311C103.545 61.7721 102.637 62.318 101.836 62.8003C101.112 63.2388 100.338 63.6108 99.5351 63.9078C83.7238 70.2796 67.9054 76.6542 52.087 83.0273C50.8494 83.4955 49.5722 83.9085 48.2866 84.2578C43.9246 85.4374 40.482 85.593 37.4439 85.7316C36.5798 85.7698 35.4412 85.8207 34.0636 85.8207L34.0664 85.8235ZM27.1218 66.226C24.7259 67.192 22.3285 68.158 19.9325 69.124L19.4616 69.3135C18.6978 69.6063 17.9312 69.9175 17.1787 70.2414L17.1448 70.2555C15.9779 70.759 15.391 71.0122 14.7559 71.3729C13.797 71.9146 12.8932 72.428 12.0629 73.4124C11.4972 74.0842 10.7942 74.9187 10.7447 76.1167C10.7009 77.1916 11.2186 78.0176 11.5283 78.5098C12.3175 79.7714 13.3811 80.5069 14.7347 81.2254C17.3287 82.6016 19.7402 83.2904 21.552 83.7359C23.9282 84.3215 26.3255 84.7401 28.6762 84.9806C32.5799 85.3823 35.6095 85.2479 37.4213 85.1659C40.4297 85.0287 43.8398 84.8745 48.1423 83.7119C49.4096 83.3682 50.6684 82.9609 51.8847 82.5012C67.6975 76.1294 83.5159 69.7548 99.3343 63.3802C100.111 63.0931 100.853 62.7353 101.546 62.3152C102.309 61.8555 103.173 61.3365 103.971 60.3705C104.507 59.7227 105.113 58.9886 105.205 57.8925C105.27 57.1146 105.043 56.5163 104.934 56.2292C104.403 54.8303 103.314 54.0751 102.162 53.2759C100.87 52.3806 99.7656 51.9224 98.7897 51.5179C97.2325 50.8701 95.9836 50.5448 94.6597 50.1997L94.6329 50.1926C93.8083 49.9776 92.4278 49.6184 90.6019 49.361C90.005 49.2761 89.4138 49.2096 88.8042 49.1573L88.7943 57.4979C88.8028 57.6322 88.7915 57.768 88.7618 57.8995C88.7024 58.1485 88.5878 58.3111 88.4775 58.4681C88.4096 58.5671 88.2653 58.7736 88.015 58.9957C87.8538 59.1399 87.6204 59.2941 87.3389 59.4412C86.9486 59.6491 86.6204 59.7609 86.4974 59.8033C86.0038 59.973 85.4932 60.147 84.7294 60.3082C83.7337 60.519 82.9629 60.5699 82.5032 60.5996C81.9403 60.6349 81.3632 60.6448 80.7904 60.6293C79.8654 60.6024 78.9305 60.5076 78.0833 60.3549C77.41 60.2333 76.8188 60.0862 76.2219 59.891C75.8429 59.7665 75.4285 59.6138 74.9716 59.3394C74.5416 59.0805 74.2333 58.8132 74.0268 58.5205C73.8175 58.2234 73.7284 57.9533 73.6944 57.8189C73.6534 57.6605 73.6322 57.4993 73.6308 57.338V56.6294C73.6336 54.1472 73.6364 51.6636 73.6379 49.1799C73.1881 49.2124 72.7284 49.2577 72.2659 49.3129C71.0623 49.46 69.9279 49.6848 69.1882 49.8475C67.4344 50.2336 66.119 50.6608 65.0611 51.0045C63.6439 51.4627 62.5081 51.8941 61.8052 52.1756C60.9721 52.5065 60.132 52.8672 59.3046 53.2477C53.6258 55.5347 47.9598 57.8147 42.2938 60.0961C42.2726 70.6728 42.2684 75.7871 42.2839 76.1832C42.2839 76.1832 42.2839 76.1973 42.2839 76.1987C42.2868 76.2907 42.2953 76.5707 42.1694 76.8918C41.9954 77.3302 41.6701 77.5961 41.4396 77.7574C40.3986 78.4943 39.4269 78.7587 39.3859 78.7701C38.4368 79.0218 37.27 79.333 35.5374 79.4122C33.9547 79.4815 32.7609 79.3188 32.0481 79.2198C31.9859 79.2113 30.505 79.002 29.1175 78.4532C28.9294 78.3783 28.4358 78.159 27.9337 77.7432C27.5589 77.4321 27.4188 77.2114 27.3396 77.053C27.1996 76.7829 27.1289 76.4816 27.1289 76.1605L27.1246 66.2203L27.1218 66.226Z" fill="white"/>
<path d="M79.1991 93.5914C82.0816 94.6168 84.9626 95.6408 87.8451 96.6662C88.2581 96.8529 88.8663 97.1881 89.4377 97.7793C89.7432 98.0947 90.0502 98.4964 90.541 99.4921C90.9794 100.379 91.3613 101.328 91.729 102.508C92.159 103.884 92.3768 104.957 92.5579 105.863C92.8478 107.315 92.9892 108.432 93.0373 108.838C93.2056 110.253 93.1448 110.452 93.2764 112.053C93.439 114.025 93.579 115.612 94.1151 117.467C94.4418 118.598 94.8152 119.483 95.067 120.03C90.2835 121.981 85.5001 123.931 80.7167 125.88C80.5455 125.945 80.2994 126.057 80.0378 126.239C79.7775 126.422 79.3532 126.777 78.8002 127.816C78.3038 128.749 78.4523 128.822 77.9813 129.614C77.4452 130.515 77.0605 130.743 76.8837 130.832C76.7508 130.898 76.2897 131.132 75.765 131.031C75.1059 130.905 74.7028 130.321 74.3676 129.753C73.3407 128.017 72.9107 126.391 72.8301 126.078C72.4016 124.412 72.2474 123.077 72.1116 121.865C71.9645 120.558 72.031 120.602 71.8585 118.849C71.7085 117.315 71.5996 116.204 71.3266 114.749C70.9999 113.012 70.618 111.738 70.4342 111.155C70.2305 110.51 69.8415 109.35 69.1556 107.987C68.5955 106.872 68.2391 106.416 67.785 106.044C67.2872 105.635 66.7511 105.39 66.3735 105.219C65.7639 104.94 65.3594 104.841 64.7625 104.66C64.1911 104.485 63.3821 104.215 62.4062 103.809C62.4033 102.673 62.3991 101.537 62.3963 100.402C67.9972 98.1315 73.5981 95.8629 79.1991 93.5928V93.5914Z" fill="#FF7E88"/>
<path d="M76.0312 131.339C75.9238 131.339 75.8177 131.329 75.713 131.309C74.9676 131.166 74.5094 130.547 74.1247 129.897C73.1615 128.269 72.7075 126.735 72.5561 126.149C72.1148 124.431 71.9564 123.026 71.8305 121.898C71.7556 121.23 71.7358 120.905 71.7117 120.53C71.6877 120.159 71.6622 119.739 71.5774 118.878C71.4274 117.349 71.3185 116.244 71.0484 114.803C70.815 113.559 70.518 112.361 70.1644 111.242C70.0357 110.833 69.6439 109.59 68.9028 108.116C68.3413 106.997 68.0018 106.59 67.6044 106.265C67.1348 105.878 66.6256 105.647 66.2551 105.478C65.7756 105.259 65.4291 105.157 64.992 105.026C64.893 104.996 64.7884 104.965 64.6795 104.932C63.8931 104.692 63.0911 104.402 62.2976 104.071C62.193 104.027 62.1237 103.924 62.1237 103.811L62.1138 100.403C62.1138 100.287 62.1831 100.184 62.2906 100.14L79.0934 93.3316C79.157 93.3061 79.2291 93.3033 79.2942 93.3273L87.9403 96.4022C87.9474 96.405 87.9544 96.4078 87.9615 96.4107C88.6022 96.7006 89.168 97.0952 89.6404 97.5846C89.9756 97.9311 90.2995 98.3682 90.7945 99.3681C91.2598 100.31 91.6417 101.28 91.9996 102.425C92.4423 103.843 92.67 104.979 92.8355 105.808C93.0929 107.091 93.24 108.146 93.3178 108.805C93.4168 109.631 93.4366 110.042 93.4634 110.563C93.4818 110.935 93.503 111.358 93.5582 112.031C93.7138 113.905 93.8481 115.525 94.387 117.39C94.636 118.253 94.9514 119.103 95.3233 119.913C95.3559 119.984 95.3573 120.063 95.329 120.135C95.3007 120.208 95.2441 120.264 95.172 120.294L80.8217 126.144C80.5954 126.23 80.3875 126.34 80.198 126.473C79.9505 126.646 79.5615 126.988 79.0481 127.951C78.8176 128.383 78.7355 128.616 78.6549 128.841C78.5658 129.091 78.4809 129.327 78.2235 129.76C77.6804 130.674 77.2702 130.955 77.01 131.087C76.6734 131.257 76.3452 131.341 76.0298 131.341L76.0312 131.339ZM62.6894 103.618C63.4093 103.913 64.1335 104.171 64.8463 104.389C64.9553 104.422 65.0571 104.453 65.1547 104.483C65.596 104.614 65.975 104.727 66.4913 104.962C66.8675 105.133 67.4375 105.393 67.965 105.826C68.4954 106.262 68.8745 106.795 69.4091 107.861C70.1701 109.376 70.5717 110.652 70.7047 111.072C71.0639 112.212 71.3666 113.433 71.6042 114.699C71.88 116.165 71.989 117.28 72.1403 118.821C72.2252 119.694 72.252 120.118 72.2761 120.495C72.2987 120.862 72.3199 121.181 72.392 121.835C72.5165 122.947 72.6721 124.329 73.1035 126.009C73.2477 126.571 73.6834 128.045 74.6098 129.61C74.9054 130.108 75.2661 130.65 75.8177 130.755C76.102 130.81 76.4174 130.75 76.7554 130.581C76.87 130.523 77.2151 130.349 77.7384 129.47C77.9675 129.084 78.0397 128.883 78.1231 128.65C78.2066 128.417 78.3013 128.153 78.5502 127.685C79.1146 126.626 79.5545 126.233 79.8755 126.009C80.1032 125.851 80.3522 125.718 80.6152 125.618L94.6883 119.879C94.3559 119.126 94.073 118.342 93.8425 117.547C93.2881 115.626 93.1523 113.981 92.9939 112.078C92.9373 111.396 92.9161 110.969 92.8977 110.593C92.8722 110.083 92.8524 109.68 92.7563 108.874C92.6785 108.225 92.5342 107.185 92.281 105.921C92.1085 105.058 91.8935 103.986 91.4593 102.596C91.1113 101.481 90.7393 100.536 90.2882 99.6213C89.8271 98.6864 89.5329 98.289 89.2345 97.9806C88.8144 97.545 88.3109 97.1928 87.7395 96.934L79.2065 93.8987L62.6809 100.596L62.6894 103.624V103.618Z" fill="white"/>
<path d="M81.8843 94.5457C80.989 94.2274 80.0944 93.9096 79.1991 93.5914C73.5981 95.8615 67.9965 98.1311 62.3956 100.4C62.4055 99.7081 62.4154 99.0151 62.4253 98.3235C62.4607 97.3065 62.7025 96.5145 62.8949 96.0166C63.1 95.4862 63.4564 94.5938 64.322 93.7706C64.9316 93.1907 65.5567 92.8711 65.9641 92.6999C66.3375 92.5486 67.8042 91.9545 68.1832 91.8004C72.3811 90.0989 75.4871 88.8457 76.2763 88.5261C77.5662 88.0028 79.494 87.2206 81.8744 86.2504C81.8772 89.014 81.8801 91.7806 81.8843 94.5457Z" fill="#FF444F"/>
<path d="M62.3962 100.681C62.3396 100.681 62.2845 100.664 62.2364 100.632C62.1586 100.578 62.1119 100.489 62.1133 100.394L62.143 98.3177C62.1727 97.4846 62.3368 96.677 62.6324 95.9133C62.8304 95.4013 63.1981 94.448 64.1288 93.564C64.6295 93.0874 65.2108 92.7083 65.8558 92.4382L66.3706 92.2303C66.9576 91.9926 67.8034 91.6504 68.0777 91.5386C71.1625 90.2883 73.6575 89.2799 75.0775 88.7056L76.1708 88.2629C77.4607 87.7396 79.3885 86.9575 81.7689 85.9872C81.8566 85.9518 81.9556 85.9617 82.0334 86.0141C82.1112 86.0664 82.1579 86.1541 82.1579 86.2489C82.1607 89.0126 82.1635 91.7791 82.1678 94.5442C82.1678 94.6361 82.1239 94.7224 82.0475 94.7761C81.9726 94.8299 81.8764 94.8426 81.7901 94.8115L79.2061 93.8921L78.4861 94.1835C73.1582 96.3433 67.8302 98.5016 62.5037 100.66C62.4697 100.674 62.433 100.681 62.3976 100.681H62.3962ZM81.5921 86.6689C79.3899 87.5656 77.6022 88.2912 76.383 88.7863L75.2882 89.2289C73.8682 89.8018 71.3747 90.8102 68.2899 92.0605C68.0155 92.1723 67.1697 92.5145 66.5813 92.7536L66.0707 92.9601C65.4923 93.2033 64.9675 93.5442 64.5178 93.9742C63.6804 94.7705 63.341 95.6474 63.16 96.117C62.887 96.8227 62.7356 97.5667 62.7088 98.3319L62.6847 99.9754C67.8811 97.8708 73.0762 95.7648 78.2726 93.6588L79.0929 93.3264C79.1566 93.3009 79.2287 93.2981 79.2938 93.3221L81.602 94.1425C81.5978 91.6518 81.5949 89.1582 81.5935 86.6689H81.5921Z" fill="white"/>
<path d="M88.9705 97.3562C88.5519 97.0196 88.146 96.8032 87.8447 96.6674C85.8575 95.9602 83.8717 95.2544 81.8845 94.5472C81.8803 91.7821 81.8774 89.0156 81.8746 86.2519C83.1744 85.73 84.4742 85.2081 85.774 84.6876C85.9622 84.6197 86.3426 84.5108 86.8207 84.5773C87.3567 84.6523 87.7146 84.904 87.8277 84.9903C88.1445 85.2308 88.303 85.4924 88.443 85.7258C88.501 85.8205 88.7782 86.2915 88.8899 86.9902C88.9295 87.2462 88.938 87.4626 88.9366 87.6154C88.9479 90.8628 88.9592 94.1088 88.9705 97.3562Z" fill="#181C25"/>
<path d="M88.9711 97.6389C88.9074 97.6389 88.8452 97.6177 88.7943 97.5767C88.4746 97.3207 88.121 97.1029 87.7392 96.9303L81.7903 94.8144C81.6771 94.7748 81.6022 94.6673 81.6022 94.5485C81.5979 91.7834 81.5951 89.0169 81.5923 86.2532C81.5923 86.1372 81.663 86.034 81.7691 85.9901C83.0689 85.4682 84.3687 84.9463 85.6685 84.4258C86.0546 84.2858 86.4634 84.2434 86.8594 84.2985C87.4195 84.3763 87.8141 84.6253 87.9994 84.7667C88.3615 85.0411 88.5411 85.3409 88.6854 85.5814C88.7688 85.7171 89.0531 86.2249 89.1691 86.9462C89.2045 87.174 89.2214 87.4003 89.22 87.6181L89.254 97.3546C89.254 97.4635 89.1917 97.5625 89.0941 97.6106C89.0545 97.629 89.0135 97.6389 88.9711 97.6389ZM82.1679 94.3477L87.9403 96.4022C87.9474 96.405 87.9544 96.4078 87.9615 96.4107C88.2133 96.5238 88.4563 96.6545 88.6854 96.803L88.6529 87.6167C88.6529 87.4837 88.6472 87.2786 88.609 87.0339C88.51 86.4159 88.271 85.9901 88.2002 85.8741C88.0673 85.6521 87.9315 85.4258 87.6557 85.2165C87.5412 85.1288 87.2286 84.9209 86.7802 84.8586C86.3955 84.8049 86.0716 84.8813 85.8694 84.9548C84.6374 85.4484 83.397 85.9463 82.1566 86.4441C82.1595 89.0777 82.1623 91.7141 82.1665 94.3491L82.1679 94.3477Z" fill="white"/>
<path d="M66.1691 105.131C64.9146 105.663 63.6614 106.194 62.4069 106.726V103.81C63.3828 104.216 64.1918 104.486 64.7632 104.661C65.2894 104.822 65.6684 104.919 66.1691 105.131Z" fill="#FF444F"/>
<path d="M62.4069 107.008C62.3517 107.008 62.298 106.993 62.2513 106.962C62.1721 106.909 62.124 106.82 62.124 106.726V103.809C62.124 103.714 62.1707 103.627 62.2499 103.574C62.3291 103.522 62.4281 103.512 62.5158 103.549C63.2881 103.87 64.0716 104.153 64.8467 104.392C64.9556 104.426 65.0589 104.457 65.1593 104.485C65.5412 104.598 65.8707 104.697 66.2809 104.871C66.3855 104.915 66.4534 105.018 66.4534 105.132C66.4534 105.245 66.3855 105.348 66.2809 105.392L62.5186 106.987C62.4833 107.003 62.4451 107.01 62.4083 107.01L62.4069 107.008ZM62.6898 104.229V106.298L65.3997 105.149C65.2682 105.107 65.1366 105.068 64.9966 105.025C64.8962 104.996 64.7915 104.965 64.6798 104.931C64.0193 104.728 63.3503 104.492 62.6898 104.229Z" fill="white"/>
<path d="M69.6618 109.076C68.5586 109.54 67.4539 110.003 66.3493 110.464C66.0636 110.601 65.8076 110.69 65.6011 110.749C65.2107 110.86 64.8614 110.96 64.413 110.899C64.2787 110.881 64.0029 110.84 63.7044 110.669C63.2773 110.425 63.0722 110.07 62.9152 109.8C62.6521 109.346 62.5701 108.942 62.4951 108.563C62.4103 108.126 62.3947 107.755 62.3961 107.499C62.399 107.242 62.4032 106.983 62.406 106.725C63.6606 106.194 64.9137 105.662 66.1683 105.13C66.2347 105.157 66.3028 105.186 66.3735 105.219C66.7497 105.392 67.2856 105.636 67.7835 106.045C68.2375 106.417 68.5953 106.874 69.1554 107.988C69.3464 108.369 69.5147 108.734 69.6618 109.076Z" fill="#181C25"/>
<path d="M64.6846 111.2C64.5856 111.2 64.4838 111.193 64.3749 111.179C64.249 111.162 63.918 111.117 63.563 110.913C63.0722 110.633 62.8417 110.236 62.672 109.946C62.3792 109.441 62.2887 108.984 62.2165 108.618C62.1444 108.25 62.1104 107.872 62.1119 107.498L62.1218 106.722C62.1218 106.611 62.1911 106.509 62.2943 106.465L66.0566 104.87C66.1259 104.84 66.2037 104.84 66.273 104.868C66.3437 104.896 66.4158 104.928 66.4908 104.963C66.8727 105.138 67.4398 105.399 67.9617 105.827C68.4921 106.261 68.8698 106.795 69.4072 107.862C69.5897 108.226 69.7622 108.598 69.9206 108.966C69.9362 109.001 69.9433 109.039 69.9433 109.077C69.9433 109.193 69.8754 109.295 69.7693 109.34C68.6675 109.802 67.5657 110.264 66.4625 110.724C66.2079 110.845 65.9434 110.946 65.6761 111.024C65.3494 111.117 65.041 111.203 64.6804 111.203L64.6846 111.2ZM62.6875 106.913L62.6804 107.502C62.679 107.838 62.7101 108.178 62.7738 108.509C62.8445 108.868 62.9181 109.24 63.1613 109.659C63.3155 109.923 63.4866 110.219 63.8459 110.422C64.1047 110.571 64.3494 110.605 64.4527 110.619C64.8388 110.671 65.1386 110.587 65.5163 110.479C65.7624 110.408 66 110.318 66.2277 110.207C66.2319 110.205 66.2362 110.203 66.2418 110.202C67.2574 109.778 68.2743 109.352 69.2898 108.927C69.1682 108.656 69.0395 108.383 68.9051 108.116C68.3422 106.995 68.0027 106.59 67.6067 106.264C67.14 105.881 66.635 105.649 66.2659 105.481C66.2319 105.465 66.2008 105.451 66.1711 105.438L62.6889 106.915L62.6875 106.913Z" fill="white"/>
<path d="M105.536 107.969C105.522 91.241 105.507 74.5146 105.495 57.7868C105.493 57.8307 105.491 57.8747 105.487 57.92C105.388 59.1038 104.73 59.9001 104.188 60.5549C103.362 61.5549 102.484 62.0853 101.692 62.5619C100.811 63.0951 100.016 63.4332 99.439 63.6468C83.6206 70.0213 67.8022 76.3959 51.9838 82.7691C51.0687 83.1156 49.783 83.564 48.2159 83.9883C43.9629 85.1382 40.5811 85.3093 37.4341 85.4522C35.4427 85.5413 32.5064 85.6629 28.648 85.2655C27.3906 85.1368 24.7585 84.8199 21.4856 84.0138C19.3669 83.4919 17.0713 82.7875 14.6032 81.4778C13.3699 80.8243 12.1606 80.0549 11.2894 78.6632C10.9655 78.1469 10.4981 77.3802 10.4627 76.3731C10.4401 93.4828 10.4189 110.594 10.3963 127.704C10.4047 127.916 10.4316 128.211 10.5165 128.555C10.5759 128.8 10.7286 129.32 11.1685 129.993C11.6932 130.793 12.3014 131.31 12.7257 131.644C13.9633 132.616 15.232 133.279 16.4936 133.826C17.2136 134.139 18.3196 134.582 20.0211 135.078C22.9984 135.947 25.3788 136.273 26.9968 136.488C27.6418 136.575 29.6657 136.833 32.3205 136.941C32.8537 136.964 34.213 137.012 35.9823 136.982C36.9767 136.965 38.7078 136.931 40.8676 136.715C42.4531 136.556 45.0839 136.283 48.3624 135.398C50.4726 134.828 52.1473 134.194 53.3664 133.733C54.662 133.244 55.7468 132.787 56.5615 132.429C61.9673 130.242 67.3716 128.054 72.7759 125.869C72.3884 124.301 72.2399 123.026 72.1098 121.866C71.9627 120.56 72.0292 120.603 71.8566 118.851C71.7067 117.316 71.5978 116.206 71.3248 114.751C70.9981 113.014 70.6162 111.74 70.4323 111.157C70.2852 110.693 70.0434 109.96 69.6615 109.078C68.5583 109.54 67.4539 110.003 66.3493 110.464C66.0636 110.601 65.8076 110.69 65.6011 110.749C65.2107 110.86 64.8614 110.96 64.413 110.899C64.2787 110.881 64.0029 110.84 63.7044 110.669C63.2773 110.425 63.0722 110.07 62.9152 109.8C62.6521 109.346 62.5701 108.942 62.4951 108.563C62.4103 108.126 62.3947 107.755 62.3961 107.499C62.399 107.242 62.4032 106.983 62.406 106.725L62.4062 103.809C62.4033 102.672 62.3984 101.536 62.3956 100.4C62.4055 99.7081 62.4154 99.0151 62.4253 98.3235C62.4607 97.3065 62.7025 96.5145 62.8949 96.0166C63.1 95.4862 63.4564 94.5938 64.322 93.7706C64.9316 93.1907 65.5567 92.8711 65.9641 92.6999C66.3375 92.5486 67.8042 91.9545 68.1832 91.8004C72.3811 90.0989 75.4871 88.8457 76.2763 88.5261C77.5662 88.0028 79.4942 87.2222 81.8746 86.2519C83.1744 85.73 84.4742 85.2081 85.774 84.6876C85.9622 84.6197 86.3426 84.5108 86.8207 84.5773C87.3567 84.6523 87.7146 84.904 87.8277 84.9903C88.1445 85.2308 88.303 85.4924 88.443 85.7258C88.501 85.8205 88.7782 86.2915 88.8899 86.9902C88.9295 87.2462 88.938 87.4626 88.9366 87.6154C88.9479 90.8628 88.9592 94.1088 88.9705 97.3562C89.1261 97.4792 89.2836 97.6195 89.4377 97.7793C89.7432 98.0962 90.0488 98.4964 90.541 99.4921C90.978 100.379 91.3613 101.328 91.729 102.508C92.1576 103.884 92.375 104.956 92.5574 105.861C92.8474 107.314 92.9874 108.431 93.0355 108.837C93.2052 110.252 93.143 110.451 93.2759 112.052C93.4329 113.949 93.5673 115.489 94.0552 117.256C96.1443 116.41 98.2347 115.564 100.324 114.718C100.757 114.509 101.36 114.191 102.041 113.739C103.372 112.858 104.301 112.244 104.896 111.063C105.38 110.106 105.49 109.082 105.516 108.788C105.546 108.453 105.543 108.17 105.536 107.969Z" fill="#282C38"/>
<path d="M34.8611 137.274C33.7084 137.274 32.806 137.244 32.3096 137.223C29.8754 137.124 27.9137 136.896 26.9604 136.767C25.4824 136.571 23.0072 136.243 19.9437 135.349C18.1644 134.83 17.0598 134.378 16.3823 134.084C14.8533 133.421 13.6356 132.715 12.5522 131.865C12.0798 131.493 11.4687 130.963 10.9327 130.147C10.5947 129.629 10.3627 129.115 10.2425 128.619C10.1703 128.325 10.1265 128.019 10.1138 127.712L10.1802 76.3706C10.1802 76.2164 10.3047 76.0905 10.4589 76.0877C10.6102 76.0905 10.7403 76.2065 10.746 76.3607C10.7799 77.3154 11.2481 78.0636 11.5296 78.5105C12.3188 79.7722 13.3824 80.5076 14.736 81.2261C17.3299 82.6023 19.7414 83.2911 21.5533 83.7367C23.9294 84.3222 26.3268 84.7409 28.6775 84.9813C32.5797 85.383 35.6107 85.2486 37.4226 85.1666C40.4309 85.0294 43.841 84.8752 48.1435 83.7126C49.4108 83.3689 50.6698 82.9609 51.8847 82.5012C67.6975 76.1294 83.5159 69.7548 99.3343 63.3802C100.111 63.0931 100.853 62.7353 101.546 62.3152C102.309 61.8555 103.173 61.3365 103.971 60.3705C104.507 59.7227 105.113 58.9886 105.205 57.8925C105.21 57.85 105.212 57.8126 105.212 57.7744C105.216 57.6216 105.342 57.5 105.495 57.5H105.499C105.654 57.5028 105.778 57.6287 105.778 57.7829C105.791 74.5093 105.805 91.2343 105.819 107.959C105.829 108.256 105.822 108.535 105.798 108.808C105.764 109.205 105.631 110.232 105.149 111.185C104.521 112.431 103.549 113.075 102.204 113.965C101.638 114.339 101.048 114.676 100.446 114.967C100.44 114.97 100.434 114.973 100.429 114.975L94.1603 117.512C94.0854 117.542 94.0019 117.539 93.9298 117.503C93.8576 117.468 93.8039 117.403 93.7827 117.325C93.2777 115.498 93.1462 113.91 92.9934 112.069C92.9369 111.389 92.9157 110.962 92.8973 110.584C92.8718 110.074 92.852 109.672 92.7544 108.864C92.678 108.218 92.5338 107.181 92.2792 105.91C92.1038 105.043 91.886 103.962 91.4574 102.585C91.1123 101.476 90.7389 100.531 90.2849 99.6102C89.8224 98.6753 89.5296 98.2778 89.2312 97.9695C89.0912 97.8238 88.9441 97.6909 88.7927 97.5707C88.7249 97.5169 88.6853 97.4363 88.6853 97.35L88.6513 87.6092C88.6513 87.4763 88.6456 87.2712 88.6075 87.0265C88.5085 86.4084 88.2694 85.9827 88.1987 85.8667C88.0658 85.6447 87.93 85.4183 87.6542 85.209C87.5396 85.1213 87.227 84.9134 86.7787 84.8512C86.394 84.7974 86.0701 84.8738 85.8678 84.9474C84.5765 85.465 83.2767 85.9869 81.9783 86.5088C79.5993 87.4791 77.6715 88.2612 76.3816 88.7846L75.2869 89.2273C73.8668 89.8001 71.3733 90.8085 68.2885 92.0588C68.0141 92.1706 67.1683 92.5129 66.58 92.7519L66.0694 92.9584C65.4909 93.2017 64.9661 93.5425 64.5164 93.9725C63.6791 94.7688 63.3396 95.6457 63.1586 96.1153C62.8856 96.821 62.7343 97.565 62.7074 98.3302L62.6777 100.401L62.6876 103.805L62.6777 107.5C62.6763 107.836 62.7074 108.176 62.771 108.507C62.8418 108.866 62.9153 109.238 63.1586 109.656C63.3127 109.921 63.4839 110.217 63.8431 110.42C64.102 110.569 64.3467 110.603 64.4499 110.617C64.836 110.669 65.1359 110.584 65.5135 110.477C65.7596 110.406 65.9972 110.316 66.2249 110.205C66.2292 110.204 66.2334 110.201 66.2391 110.2C67.3437 109.739 68.4483 109.276 69.5516 108.814C69.6958 108.754 69.8585 108.821 69.9207 108.962C70.3012 109.842 70.5487 110.586 70.7014 111.068C71.0607 112.204 71.3634 113.424 71.6024 114.694C71.8782 116.168 71.9871 117.28 72.137 118.82C72.2233 119.693 72.2502 120.119 72.2728 120.493C72.2954 120.861 72.3153 121.178 72.3888 121.831C72.5076 122.889 72.6547 124.206 73.0479 125.797C73.0818 125.935 73.0097 126.075 72.8796 126.127C69.6095 127.449 66.3381 128.773 63.0666 130.097L56.6652 132.687C55.6171 133.146 54.5379 133.588 53.4644 133.994C52.2368 134.458 50.5579 135.094 48.4349 135.667C45.0729 136.575 42.3545 136.846 40.8949 136.992C38.67 137.216 36.8582 137.245 35.987 137.261C35.5909 137.268 35.2133 137.271 34.8597 137.271L34.8611 137.274ZM10.7446 78.2998L10.6809 127.704C10.6908 127.961 10.729 128.229 10.7927 128.487C10.8987 128.922 11.1052 129.377 11.4065 129.84C11.8959 130.585 12.4631 131.077 12.9015 131.422C13.9595 132.254 15.1023 132.914 16.6072 133.568C17.2705 133.856 18.3525 134.298 20.1007 134.808C23.1246 135.689 25.5715 136.015 27.034 136.21C27.9774 136.336 29.9193 136.562 32.3322 136.66C32.9758 136.687 34.3024 136.729 35.9785 136.701C36.8427 136.687 38.6389 136.655 40.8397 136.435C42.2838 136.291 44.9725 136.022 48.2892 135.127C50.3853 134.561 52.0501 133.93 53.2664 133.47C54.3314 133.069 55.4021 132.632 56.4488 132.172L62.8587 129.578C66.0538 128.285 69.2503 126.991 72.4454 125.7C72.0861 124.179 71.9447 122.921 71.8301 121.899C71.7552 121.233 71.7354 120.909 71.7113 120.534C71.6887 120.164 71.6618 119.744 71.577 118.88C71.4284 117.355 71.3214 116.253 71.0484 114.803C70.8164 113.571 70.5109 112.341 70.1644 111.242C70.03 110.819 69.8217 110.191 69.512 109.447C68.4978 109.873 67.4809 110.297 66.4654 110.722C66.2108 110.843 65.9463 110.944 65.679 111.021C65.2632 111.139 64.8784 111.247 64.3749 111.179C64.249 111.162 63.918 111.117 63.563 110.913C63.0722 110.633 62.8417 110.236 62.672 109.946C62.3792 109.441 62.2887 108.984 62.2165 108.618C62.1444 108.25 62.1104 107.872 62.1119 107.498L62.1218 106.722L62.1119 100.402L62.1416 98.3217C62.1713 97.4886 62.3354 96.681 62.631 95.9173C62.829 95.4053 63.1968 94.452 64.1274 93.568C64.6281 93.0913 65.2094 92.7123 65.8544 92.4421L66.3692 92.2342C66.9562 91.9966 67.802 91.6543 68.0764 91.5426C71.1611 90.2923 73.6561 89.2838 75.0761 88.7096L76.1694 88.2669C77.4593 87.7436 79.3871 86.9614 81.7675 85.9912C83.0688 85.4693 84.3686 84.9474 85.6684 84.4269C86.0545 84.2868 86.4633 84.2444 86.8593 84.2996C87.4194 84.3774 87.814 84.6263 87.9993 84.7677C88.3614 85.0421 88.541 85.342 88.6853 85.5824C88.7687 85.7182 89.053 86.226 89.169 86.9473C89.2043 87.175 89.2213 87.4013 89.2199 87.6191L89.2538 97.2227C89.3868 97.3344 89.5169 97.4561 89.6414 97.5848C89.9752 97.9313 90.2995 98.3667 90.7945 99.3681C91.2613 100.316 91.6445 101.287 91.9996 102.425C92.438 103.83 92.6582 104.925 92.835 105.807C93.0925 107.096 93.24 108.149 93.3178 108.805C93.4168 109.631 93.438 110.042 93.4634 110.563C93.4818 110.935 93.5026 111.358 93.5592 112.03C93.7006 113.736 93.8237 115.222 94.248 116.874L100.211 114.461C100.788 114.181 101.351 113.86 101.887 113.505C103.214 112.627 104.086 112.05 104.646 110.938C105.085 110.071 105.205 109.13 105.236 108.765C105.259 108.512 105.265 108.256 105.255 107.98C105.255 107.978 105.255 107.973 105.255 107.971C105.241 91.8608 105.228 75.7497 105.215 59.6399C104.966 60.06 104.672 60.4164 104.407 60.7361C103.548 61.7771 102.64 62.323 101.839 62.8053C101.115 63.2438 100.341 63.6158 99.5378 63.9128C83.7264 70.2845 67.9081 76.6591 52.0897 83.0323C50.8521 83.5005 49.5749 83.9135 48.2892 84.2628C43.9273 85.4424 40.4847 85.598 37.4466 85.7366C35.6192 85.8186 32.5628 85.9544 28.6181 85.5485C26.2419 85.3052 23.8191 84.8823 21.4175 84.2897C19.5745 83.8357 17.1192 83.1341 14.4701 81.7282C13.2296 81.0706 11.9553 80.263 11.0487 78.8132C10.9582 78.6704 10.8507 78.4978 10.7432 78.2998H10.7446Z" fill="white"/>
<path d="M107.562 125.311C100.466 128.162 93.3691 131.015 86.2732 133.866C85.7697 132.298 85.3029 130.957 84.9154 129.886C84.6226 129.074 84.3694 128.404 83.8221 127.634C83.344 126.963 82.7485 126.151 81.7344 125.943C81.1616 125.825 80.6595 125.943 80.3483 126.047C80.4884 125.972 80.6143 125.919 80.7161 125.879C85.4995 123.929 90.2829 121.98 95.0664 120.029C97.318 119.131 99.5697 118.232 101.821 117.333C101.97 117.268 102.206 117.188 102.5 117.184C102.995 117.178 103.356 117.394 103.659 117.582C103.799 117.67 104.256 117.967 104.817 118.691C105.076 119.025 105.323 119.406 105.666 120.089C106.079 120.913 106.345 121.606 106.574 122.246C106.852 123.018 107.202 124.053 107.562 125.311Z" fill="#FF7E88"/>
<path d="M86.2736 134.149C86.2325 134.149 86.1915 134.141 86.1533 134.123C86.0826 134.089 86.0289 134.028 86.0048 133.953C85.5749 132.615 85.1194 131.278 84.6499 129.983C84.3415 129.128 84.1011 128.515 83.5919 127.799C83.152 127.181 82.6047 126.41 81.6783 126.22C81.2851 126.14 80.8678 126.172 80.4393 126.317C80.2992 126.363 80.1479 126.295 80.0899 126.161C80.0319 126.025 80.0871 125.868 80.2158 125.799C80.3431 125.731 80.4746 125.67 80.6146 125.617L94.9607 119.768L101.717 117.071C101.963 116.963 102.228 116.905 102.496 116.901C102.504 116.901 102.511 116.901 102.518 116.901C103.098 116.901 103.525 117.167 103.808 117.342C104.216 117.598 104.642 118.004 105.04 118.518C105.349 118.918 105.604 119.337 105.918 119.962C106.342 120.808 106.611 121.513 106.839 122.15C107.195 123.139 107.53 124.175 107.833 125.232C107.873 125.372 107.8 125.519 107.666 125.573L86.3768 134.128C86.3429 134.142 86.3075 134.148 86.2707 134.148L86.2736 134.149ZM81.9187 125.696C82.9851 125.969 83.599 126.834 84.053 127.471C84.6032 128.244 84.8677 128.92 85.1817 129.79C85.6187 131 86.0444 132.243 86.4489 133.49L107.219 125.144C106.939 124.184 106.632 123.243 106.307 122.342C106.085 121.721 105.822 121.035 105.411 120.216C105.045 119.485 104.802 119.136 104.593 118.866C104.235 118.405 103.86 118.044 103.508 117.823C103.253 117.665 102.935 117.467 102.518 117.467C102.512 117.467 102.508 117.467 102.504 117.467C102.311 117.47 102.12 117.512 101.935 117.593L95.1714 120.291L81.9187 125.694V125.696Z" fill="white"/>
<path d="M84.0778 128.019C82.3607 128.708 80.6437 129.397 78.9266 130.086C78.2166 130.349 77.508 130.612 76.798 130.873C76.8334 130.856 76.8616 130.842 76.8829 130.831C77.0597 130.742 77.4458 130.514 77.9818 129.613C78.4514 128.823 78.3023 128.749 78.8002 127.816C79.3532 126.777 79.7767 126.421 80.0383 126.239C80.1458 126.164 80.2519 126.1 80.3495 126.048C80.3523 126.046 80.3537 126.046 80.3566 126.045C80.6677 125.941 81.167 125.827 81.7356 125.943C82.7497 126.151 83.3452 126.963 83.8232 127.634C83.9166 127.765 84 127.893 84.0778 128.019Z" fill="#FF444F"/>
<path d="M76.7979 131.156C76.6875 131.156 76.5829 131.091 76.5376 130.984C76.4782 130.845 76.5376 130.684 76.6748 130.619C76.7059 130.603 76.7314 130.59 76.7498 130.58C76.87 130.52 77.2165 130.346 77.7384 129.467C77.9661 129.083 78.0383 128.882 78.1217 128.648C78.2052 128.415 78.2999 128.152 78.5503 127.682C79.1146 126.622 79.5545 126.228 79.8755 126.005C79.983 125.93 80.0962 125.861 80.215 125.797C80.2249 125.791 80.2376 125.786 80.2504 125.781C80.256 125.779 80.2617 125.777 80.2673 125.776C80.7892 125.602 81.3027 125.565 81.792 125.665C82.9363 125.9 83.582 126.809 84.053 127.471C84.1378 127.59 84.2233 127.716 84.3181 127.87C84.3619 127.941 84.3718 128.029 84.3464 128.108C84.3209 128.187 84.2601 128.251 84.1823 128.282L79.0312 130.348L78.4598 130.561C77.9379 130.754 77.4174 130.947 76.8955 131.139C76.8629 131.15 76.8304 131.156 76.7979 131.156ZM80.4625 126.308C80.3791 126.353 80.2871 126.409 80.2009 126.47C79.9533 126.643 79.5644 126.984 79.051 127.95C78.819 128.382 78.737 128.616 78.6564 128.841C78.5673 129.09 78.4824 129.326 78.2264 129.757C78.1443 129.896 78.0637 130.02 77.9874 130.132C78.0793 130.098 78.1726 130.063 78.2646 130.029L78.8289 129.82L83.6533 127.885C83.6335 127.855 83.6137 127.827 83.5939 127.8C83.1527 127.18 82.6047 126.411 81.6783 126.22C81.2921 126.141 80.884 126.17 80.4625 126.308Z" fill="white"/>
</g>
</g>
</svg>
