<svg width="32" height="32" viewBox="0 0 32 32" fill="none" xmlns="http://www.w3.org/2000/svg">
<g id="platforms / md / deriv-apps-dark-md" clip-path="url(#clip0_2203_283)">
<g id="logo">
<path d="M0 6C0 2.68629 2.68629 0 6 0H26C29.3137 0 32 2.68629 32 6V26C32 29.3137 29.3137 32 26 32H6C2.68629 32 0 29.3137 0 26V6Z" fill="white"/>
<path d="M17 19C17 17.9 17.9 17 19 17H23C24.1 17 25 17.9 25 19V23C25 24.1 24.1 25 23 25H19C17.9 25 17 24.1 17 23V19Z" fill="#EF8933"/>
<path d="M7 19C7 17.9 7.9 17 9 17H13C14.1 17 15 17.9 15 19V23C15 24.1 14.1 25 13 25H9C7.9 25 7 24.1 7 23V19Z" fill="#4B6FA8"/>
<path d="M17 9C17 7.9 17.9 7 19 7H23C24.1 7 25 7.9 25 9V13C25 14.1 24.1 15 23 15H19C17.9 15 17 14.1 17 13V9Z" fill="#76C0E3"/>
<path d="M7 9C7 7.9 7.9 7 9 7H13C14.1 7 15 7.9 15 9V13C15 14.1 14.1 15 13 15H9C7.9 15 7 14.1 7 13V9Z" fill="#FF444F"/>
<path d="M6 0C2.68629 0 0 2.68629 0 6V6.17428L29.9144 1.45264C28.8637 0.547333 27.4958 0 26 0H6Z" fill="#ECECEE"/>
<path d="M30.5319 2.06775L25.0444 32L26 32C29.3137 32 32 29.3137 32 26V6C32 4.49576 31.4465 3.12081 30.5319 2.06775Z" fill="#ECECEE"/>
</g>
</g>
<defs>
<clipPath id="clip0_2203_283">
<rect width="32" height="32" fill="white"/>
</clipPath>
</defs>
</svg>
