<svg width="32" height="32" viewBox="0 0 32 32" fill="none" xmlns="http://www.w3.org/2000/svg">
<g id="platforms / md / dmt5-CFDs-md" clip-path="url(#clip0_2207_808)">
<g id="logo">
<path d="M26 0H6C2.68629 0 0 2.68629 0 6V23.5H32V6C32 2.68629 29.3137 0 26 0Z" fill="#0364B9"/>
<path d="M6 0C2.68629 0 0 2.68629 0 6V6.17428L29.9144 1.45264C28.8637 0.547333 27.4958 0 26 0H6Z" fill="#0A559E"/>
<path d="M32 6C32 4.49576 31.4465 3.12045 30.532 2.06738L26.6028 23.4996L32 23.5V6Z" fill="#0A559E"/>
<path d="M0 23H32V26C32 29.3137 29.3137 32 26 32H6C2.68629 32 0 29.3137 0 26V23Z" fill="#FF8C00"/>
<path d="M7.34613 9.684C7.49013 9.948 7.65413 10.276 7.83813 10.668C8.03013 11.052 8.22613 11.472 8.42613 11.928C8.63413 12.376 8.83813 12.836 9.03813 13.308C9.23813 13.78 9.42613 14.224 9.60213 14.64C9.77813 14.224 9.96613 13.78 10.1661 13.308C10.3661 12.836 10.5661 12.376 10.7661 11.928C10.9741 11.472 11.1701 11.052 11.3541 10.668C11.5461 10.276 11.7141 9.948 11.8581 9.684H13.5621C13.6421 10.236 13.7141 10.856 13.7781 11.544C13.8501 12.224 13.9101 12.936 13.9581 13.68C14.0141 14.416 14.0621 15.156 14.1021 15.9C14.1501 16.644 14.1901 17.344 14.2221 18H12.3981C12.3741 17.192 12.3421 16.312 12.3021 15.36C12.2621 14.408 12.2021 13.448 12.1221 12.48C11.9781 12.816 11.8181 13.188 11.6421 13.596C11.4661 14.004 11.2901 14.412 11.1141 14.82C10.9461 15.228 10.7821 15.62 10.6221 15.996C10.4621 16.364 10.3261 16.68 10.2141 16.944H8.90613C8.79413 16.68 8.65813 16.364 8.49813 15.996C8.33813 15.62 8.17013 15.228 7.99413 14.82C7.82613 14.412 7.65413 14.004 7.47813 13.596C7.30213 13.188 7.14213 12.816 6.99813 12.48C6.91813 13.448 6.85813 14.408 6.81813 15.36C6.77813 16.312 6.74613 17.192 6.72213 18H4.89813C4.93013 17.344 4.96613 16.644 5.00613 15.9C5.05413 15.156 5.10213 14.416 5.15013 13.68C5.20613 12.936 5.26613 12.224 5.33013 11.544C5.40213 10.856 5.47813 10.236 5.55813 9.684H7.34613Z" fill="white"/>
<path d="M21.3585 9.684V11.28H18.8505V18H16.9785V11.28H14.4705V9.684H21.3585Z" fill="white"/>
<path d="M25.3216 15.552C25.3216 15.32 25.2696 15.116 25.1656 14.94C25.0616 14.756 24.8816 14.604 24.6256 14.484C24.3696 14.364 24.0256 14.272 23.5936 14.208C23.1616 14.144 22.6176 14.112 21.9616 14.112C22.0496 13.368 22.1216 12.612 22.1776 11.844C22.2336 11.076 22.2776 10.356 22.3096 9.684H26.8096V11.184H23.8096C23.7936 11.472 23.7736 11.752 23.7496 12.024C23.7336 12.288 23.7136 12.52 23.6896 12.72C24.8576 12.8 25.7176 13.076 26.2696 13.548C26.8296 14.012 27.1096 14.66 27.1096 15.492C27.1096 15.876 27.0416 16.232 26.9056 16.56C26.7696 16.888 26.5656 17.172 26.2936 17.412C26.0216 17.652 25.6776 17.84 25.2616 17.976C24.8536 18.112 24.3736 18.18 23.8216 18.18C23.6056 18.18 23.3776 18.164 23.1376 18.132C22.9056 18.108 22.6776 18.072 22.4536 18.024C22.2376 17.984 22.0416 17.94 21.8656 17.892C21.6896 17.844 21.5536 17.796 21.4576 17.748L21.7816 16.272C21.9816 16.36 22.2456 16.448 22.5736 16.536C22.9016 16.616 23.2936 16.656 23.7496 16.656C24.3016 16.656 24.7016 16.548 24.9496 16.332C25.1976 16.108 25.3216 15.848 25.3216 15.552Z" fill="white"/>
<path d="M11.0141 29.669C10.3381 29.669 9.82206 29.481 9.46606 29.105C9.11406 28.729 8.93806 28.195 8.93806 27.503C8.93806 27.159 8.99206 26.853 9.10006 26.585C9.20806 26.313 9.35606 26.085 9.54406 25.901C9.73206 25.713 9.95606 25.571 10.2161 25.475C10.4761 25.379 10.7581 25.331 11.0621 25.331C11.2381 25.331 11.3981 25.345 11.5421 25.373C11.6861 25.397 11.8121 25.427 11.9201 25.463C12.0281 25.495 12.1181 25.529 12.1901 25.565C12.2621 25.601 12.3141 25.629 12.3461 25.649L12.0761 26.405C11.9481 26.337 11.7981 26.279 11.6261 26.231C11.4581 26.183 11.2661 26.159 11.0501 26.159C10.9061 26.159 10.7641 26.183 10.6241 26.231C10.4881 26.279 10.3661 26.357 10.2581 26.465C10.1541 26.569 10.0701 26.705 10.0061 26.873C9.94206 27.041 9.91006 27.245 9.91006 27.485C9.91006 27.677 9.93006 27.857 9.97006 28.025C10.0141 28.189 10.0821 28.331 10.1741 28.451C10.2701 28.571 10.3941 28.667 10.5461 28.739C10.6981 28.807 10.8821 28.841 11.0981 28.841C11.2341 28.841 11.3561 28.833 11.4641 28.817C11.5721 28.801 11.6681 28.783 11.7521 28.763C11.8361 28.739 11.9101 28.713 11.9741 28.685C12.0381 28.657 12.0961 28.631 12.1481 28.607L12.4061 29.357C12.2741 29.437 12.0881 29.509 11.8481 29.573C11.6081 29.637 11.3301 29.669 11.0141 29.669Z" fill="white"/>
<path d="M13.0087 29.585V25.427H15.7927V26.213H13.9447V27.083H15.5887V27.869H13.9447V29.585H13.0087Z" fill="white"/>
<path d="M17.39 28.823C17.434 28.827 17.484 28.831 17.54 28.835C17.6 28.835 17.67 28.835 17.75 28.835C18.218 28.835 18.564 28.717 18.788 28.481C19.016 28.245 19.13 27.919 19.13 27.503C19.13 27.067 19.022 26.737 18.806 26.513C18.59 26.289 18.248 26.177 17.78 26.177C17.716 26.177 17.65 26.179 17.582 26.183C17.514 26.183 17.45 26.187 17.39 26.195V28.823ZM20.096 27.503C20.096 27.863 20.04 28.177 19.928 28.445C19.816 28.713 19.656 28.935 19.448 29.111C19.244 29.287 18.994 29.419 18.698 29.507C18.402 29.595 18.07 29.639 17.702 29.639C17.534 29.639 17.338 29.631 17.114 29.615C16.89 29.603 16.67 29.575 16.454 29.531V25.481C16.67 25.441 16.894 25.415 17.126 25.403C17.362 25.387 17.564 25.379 17.732 25.379C18.088 25.379 18.41 25.419 18.698 25.499C18.99 25.579 19.24 25.705 19.448 25.877C19.656 26.049 19.816 26.269 19.928 26.537C20.04 26.805 20.096 27.127 20.096 27.503Z" fill="white"/>
<path d="M21.7238 28.943C21.8878 28.943 22.0038 28.927 22.0718 28.895C22.1398 28.863 22.1738 28.801 22.1738 28.709C22.1738 28.637 22.1298 28.575 22.0418 28.523C21.9538 28.467 21.8198 28.405 21.6398 28.337C21.4998 28.285 21.3718 28.231 21.2558 28.175C21.1438 28.119 21.0478 28.053 20.9678 27.977C20.8878 27.897 20.8258 27.803 20.7818 27.695C20.7378 27.587 20.7158 27.457 20.7158 27.305C20.7158 27.009 20.8258 26.775 21.0458 26.603C21.2658 26.431 21.5678 26.345 21.9518 26.345C22.1438 26.345 22.3278 26.363 22.5038 26.399C22.6798 26.431 22.8198 26.467 22.9238 26.507L22.7678 27.203C22.6638 27.167 22.5498 27.135 22.4258 27.107C22.3058 27.079 22.1698 27.065 22.0178 27.065C21.7378 27.065 21.5978 27.143 21.5978 27.299C21.5978 27.335 21.6038 27.367 21.6158 27.395C21.6278 27.423 21.6518 27.451 21.6878 27.479C21.7238 27.503 21.7718 27.531 21.8318 27.563C21.8958 27.591 21.9758 27.623 22.0718 27.659C22.2678 27.731 22.4298 27.803 22.5578 27.875C22.6858 27.943 22.7858 28.019 22.8578 28.103C22.9338 28.183 22.9858 28.273 23.0138 28.373C23.0458 28.473 23.0618 28.589 23.0618 28.721C23.0618 29.033 22.9438 29.269 22.7078 29.429C22.4758 29.589 22.1458 29.669 21.7178 29.669C21.4378 29.669 21.2038 29.645 21.0158 29.597C20.8318 29.549 20.7038 29.509 20.6318 29.477L20.7818 28.751C20.9338 28.811 21.0898 28.859 21.2498 28.895C21.4098 28.927 21.5678 28.943 21.7238 28.943Z" fill="white"/>
</g>
</g>
<defs>
<clipPath id="clip0_2207_808">
<rect width="32" height="32" fill="white"/>
</clipPath>
</defs>
</svg>
