<svg width="32" height="32" viewBox="0 0 32 32" fill="none" xmlns="http://www.w3.org/2000/svg">
<g id="platforms / md / dmt5-financial-md" clip-path="url(#clip0_2207_805)">
<g id="logo">
<path d="M26 0H6C2.68629 0 0 2.68629 0 6V23.5H32V6C32 2.68629 29.3137 0 26 0Z" fill="#0364B9"/>
<path d="M6 0C2.68629 0 0 2.68629 0 6V6.17428L29.9144 1.45264C28.8637 0.547333 27.4958 0 26 0H6Z" fill="#0A559E"/>
<path d="M32 6C32 4.49576 31.4465 3.12045 30.532 2.06738L26.6028 23.4996L32 23.5V6Z" fill="#0A559E"/>
<path d="M0 23H32V26C32 29.3137 29.3137 32 26 32H6C2.68629 32 0 29.3137 0 26V23Z" fill="#71BD0E"/>
<path d="M7.34222 9.684C7.48622 9.948 7.65022 10.276 7.83422 10.668C8.02622 11.052 8.22222 11.472 8.42222 11.928C8.63022 12.376 8.83422 12.836 9.03422 13.308C9.23422 13.78 9.42222 14.224 9.59822 14.64C9.77422 14.224 9.96222 13.78 10.1622 13.308C10.3622 12.836 10.5622 12.376 10.7622 11.928C10.9702 11.472 11.1662 11.052 11.3502 10.668C11.5422 10.276 11.7102 9.948 11.8542 9.684H13.5582C13.6382 10.236 13.7102 10.856 13.7742 11.544C13.8462 12.224 13.9062 12.936 13.9542 13.68C14.0102 14.416 14.0582 15.156 14.0982 15.9C14.1462 16.644 14.1862 17.344 14.2182 18H12.3942C12.3702 17.192 12.3382 16.312 12.2982 15.36C12.2582 14.408 12.1982 13.448 12.1182 12.48C11.9742 12.816 11.8142 13.188 11.6382 13.596C11.4622 14.004 11.2862 14.412 11.1102 14.82C10.9422 15.228 10.7782 15.62 10.6182 15.996C10.4582 16.364 10.3222 16.68 10.2102 16.944H8.90222C8.79022 16.68 8.65422 16.364 8.49422 15.996C8.33422 15.62 8.16622 15.228 7.99022 14.82C7.82222 14.412 7.65022 14.004 7.47422 13.596C7.29822 13.188 7.13822 12.816 6.99422 12.48C6.91422 13.448 6.85422 14.408 6.81422 15.36C6.77422 16.312 6.74222 17.192 6.71822 18H4.89422C4.92622 17.344 4.96222 16.644 5.00222 15.9C5.05022 15.156 5.09822 14.416 5.14622 13.68C5.20222 12.936 5.26222 12.224 5.32622 11.544C5.39822 10.856 5.47422 10.236 5.55422 9.684H7.34222Z" fill="white"/>
<path d="M21.3546 9.684V11.28H18.8466V18H16.9746V11.28H14.4666V9.684H21.3546Z" fill="white"/>
<path d="M25.3177 15.552C25.3177 15.32 25.2657 15.116 25.1617 14.94C25.0577 14.756 24.8777 14.604 24.6217 14.484C24.3657 14.364 24.0217 14.272 23.5897 14.208C23.1577 14.144 22.6137 14.112 21.9577 14.112C22.0457 13.368 22.1177 12.612 22.1737 11.844C22.2297 11.076 22.2737 10.356 22.3057 9.684H26.8057V11.184H23.8057C23.7897 11.472 23.7697 11.752 23.7457 12.024C23.7297 12.288 23.7097 12.52 23.6857 12.72C24.8537 12.8 25.7137 13.076 26.2657 13.548C26.8257 14.012 27.1057 14.66 27.1057 15.492C27.1057 15.876 27.0377 16.232 26.9017 16.56C26.7657 16.888 26.5617 17.172 26.2897 17.412C26.0177 17.652 25.6737 17.84 25.2577 17.976C24.8497 18.112 24.3697 18.18 23.8177 18.18C23.6017 18.18 23.3737 18.164 23.1337 18.132C22.9017 18.108 22.6737 18.072 22.4497 18.024C22.2337 17.984 22.0377 17.94 21.8617 17.892C21.6857 17.844 21.5497 17.796 21.4537 17.748L21.7777 16.272C21.9777 16.36 22.2417 16.448 22.5697 16.536C22.8977 16.616 23.2897 16.656 23.7457 16.656C24.2977 16.656 24.6977 16.548 24.9457 16.332C25.1937 16.108 25.3177 15.848 25.3177 15.552Z" fill="white"/>
<path d="M11.5402 29.5791V25.4211H14.3242V26.2071H12.4762V27.0771H14.1202V27.8631H12.4762V29.5791H11.5402Z" fill="white"/>
<path d="M14.9855 25.4211H15.9215V29.5791H14.9855V25.4211Z" fill="white"/>
<path d="M19.6739 29.5791C19.4059 29.1031 19.1159 28.6331 18.8039 28.1691C18.4919 27.7051 18.1599 27.2671 17.8079 26.8551V29.5791H16.8839V25.4211H17.6459C17.7779 25.5531 17.9239 25.7151 18.0839 25.9071C18.2439 26.0991 18.4059 26.3051 18.5699 26.5251C18.7379 26.7411 18.9039 26.9671 19.0679 27.2031C19.2319 27.4351 19.3859 27.6591 19.5299 27.8751V25.4211H20.4599V29.5791H19.6739Z" fill="white"/>
</g>
</g>
<defs>
<clipPath id="clip0_2207_805">
<rect width="32" height="32" fill="white"/>
</clipPath>
</defs>
</svg>
