<svg width="32" height="32" viewBox="0 0 32 32" fill="none" xmlns="http://www.w3.org/2000/svg">
<g id="platforms / md / dmt5-derived-md" clip-path="url(#clip0_2207_802)">
<g id="logo">
<path d="M26 0H6C2.68629 0 0 2.68629 0 6V23.5H32V6C32 2.68629 29.3137 0 26 0Z" fill="#0364B9"/>
<path d="M6 0C2.68629 0 0 2.68629 0 6V6.17428L29.9144 1.45264C28.8637 0.547333 27.4958 0 26 0H6Z" fill="#0A559E"/>
<path d="M32 6C32 4.49576 31.4465 3.12045 30.532 2.06738L26.6028 23.4996L32 23.5V6Z" fill="#0A559E"/>
<path d="M0 23H32V26C32 29.3137 29.3137 32 26 32H6C2.68629 32 0 29.3137 0 26V23Z" fill="#2A3052"/>
<path d="M7.34222 9.684C7.48622 9.948 7.65022 10.276 7.83422 10.668C8.02622 11.052 8.22222 11.472 8.42222 11.928C8.63022 12.376 8.83422 12.836 9.03422 13.308C9.23422 13.78 9.42222 14.224 9.59822 14.64C9.77422 14.224 9.96222 13.78 10.1622 13.308C10.3622 12.836 10.5622 12.376 10.7622 11.928C10.9702 11.472 11.1662 11.052 11.3502 10.668C11.5422 10.276 11.7102 9.948 11.8542 9.684H13.5582C13.6382 10.236 13.7102 10.856 13.7742 11.544C13.8462 12.224 13.9062 12.936 13.9542 13.68C14.0102 14.416 14.0582 15.156 14.0982 15.9C14.1462 16.644 14.1862 17.344 14.2182 18H12.3942C12.3702 17.192 12.3382 16.312 12.2982 15.36C12.2582 14.408 12.1982 13.448 12.1182 12.48C11.9742 12.816 11.8142 13.188 11.6382 13.596C11.4622 14.004 11.2862 14.412 11.1102 14.82C10.9422 15.228 10.7782 15.62 10.6182 15.996C10.4582 16.364 10.3222 16.68 10.2102 16.944H8.90222C8.79022 16.68 8.65422 16.364 8.49422 15.996C8.33422 15.62 8.16622 15.228 7.99022 14.82C7.82222 14.412 7.65022 14.004 7.47422 13.596C7.29822 13.188 7.13822 12.816 6.99422 12.48C6.91422 13.448 6.85422 14.408 6.81422 15.36C6.77422 16.312 6.74222 17.192 6.71822 18H4.89422C4.92622 17.344 4.96222 16.644 5.00222 15.9C5.05022 15.156 5.09822 14.416 5.14622 13.68C5.20222 12.936 5.26222 12.224 5.32622 11.544C5.39822 10.856 5.47422 10.236 5.55422 9.684H7.34222Z" fill="white"/>
<path d="M21.3546 9.684V11.28H18.8466V18H16.9746V11.28H14.4666V9.684H21.3546Z" fill="white"/>
<path d="M25.3177 15.552C25.3177 15.32 25.2657 15.116 25.1617 14.94C25.0577 14.756 24.8777 14.604 24.6217 14.484C24.3657 14.364 24.0217 14.272 23.5897 14.208C23.1577 14.144 22.6137 14.112 21.9577 14.112C22.0457 13.368 22.1177 12.612 22.1737 11.844C22.2297 11.076 22.2737 10.356 22.3057 9.684H26.8057V11.184H23.8057C23.7897 11.472 23.7697 11.752 23.7457 12.024C23.7297 12.288 23.7097 12.52 23.6857 12.72C24.8537 12.8 25.7137 13.076 26.2657 13.548C26.8257 14.012 27.1057 14.66 27.1057 15.492C27.1057 15.876 27.0377 16.232 26.9017 16.56C26.7657 16.888 26.5617 17.172 26.2897 17.412C26.0177 17.652 25.6737 17.84 25.2577 17.976C24.8497 18.112 24.3697 18.18 23.8177 18.18C23.6017 18.18 23.3737 18.164 23.1337 18.132C22.9017 18.108 22.6737 18.072 22.4497 18.024C22.2337 17.984 22.0377 17.94 21.8617 17.892C21.6857 17.844 21.5497 17.796 21.4537 17.748L21.7777 16.272C21.9777 16.36 22.2417 16.448 22.5697 16.536C22.8977 16.616 23.2897 16.656 23.7457 16.656C24.2977 16.656 24.6977 16.548 24.9457 16.332C25.1937 16.108 25.3177 15.848 25.3177 15.552Z" fill="white"/>
<path d="M10.8711 28.8142C10.9151 28.8182 10.9651 28.8222 11.0211 28.8262C11.0811 28.8262 11.1511 28.8262 11.2311 28.8262C11.6991 28.8262 12.0451 28.7082 12.2691 28.4722C12.4971 28.2362 12.6111 27.9102 12.6111 27.4942C12.6111 27.0582 12.5031 26.7282 12.2871 26.5042C12.0711 26.2802 11.7291 26.1682 11.2611 26.1682C11.1971 26.1682 11.1311 26.1702 11.0631 26.1742C10.9951 26.1742 10.9311 26.1782 10.8711 26.1862V28.8142ZM13.5771 27.4942C13.5771 27.8542 13.5211 28.1682 13.4091 28.4362C13.2971 28.7042 13.1371 28.9262 12.9291 29.1022C12.7251 29.2782 12.4751 29.4102 12.1791 29.4982C11.8831 29.5862 11.5511 29.6302 11.1831 29.6302C11.0151 29.6302 10.8191 29.6222 10.5951 29.6062C10.3711 29.5942 10.1511 29.5662 9.93508 29.5222V25.4722C10.1511 25.4322 10.3751 25.4062 10.6071 25.3942C10.8431 25.3782 11.0451 25.3702 11.2131 25.3702C11.5691 25.3702 11.8911 25.4102 12.1791 25.4902C12.4711 25.5702 12.7211 25.6962 12.9291 25.8682C13.1371 26.0402 13.2971 26.2602 13.4091 26.5282C13.5211 26.7962 13.5771 27.1182 13.5771 27.4942Z" fill="white"/>
<path d="M15.5769 25.3702C16.2009 25.3702 16.6789 25.4822 17.0109 25.7062C17.3429 25.9262 17.5089 26.2702 17.5089 26.7382C17.5089 27.0302 17.4409 27.2682 17.3049 27.4522C17.1729 27.6322 16.9809 27.7742 16.7289 27.8782C16.8129 27.9822 16.9009 28.1022 16.9929 28.2382C17.0849 28.3702 17.1749 28.5102 17.2629 28.6582C17.3549 28.8022 17.4429 28.9542 17.5269 29.1142C17.6109 29.2702 17.6889 29.4242 17.7609 29.5762H16.7109C16.6349 29.4402 16.5569 29.3022 16.4769 29.1622C16.4009 29.0222 16.3209 28.8862 16.2369 28.7542C16.1569 28.6222 16.0769 28.4982 15.9969 28.3822C15.9169 28.2622 15.8369 28.1542 15.7569 28.0582H15.2949V29.5762H14.3589V25.4782C14.5629 25.4382 14.7729 25.4102 14.9889 25.3942C15.2089 25.3782 15.4049 25.3702 15.5769 25.3702ZM15.6309 26.1682C15.5629 26.1682 15.5009 26.1702 15.4449 26.1742C15.3929 26.1782 15.3429 26.1822 15.2949 26.1862V27.3142H15.5589C15.9109 27.3142 16.1629 27.2702 16.3149 27.1822C16.4669 27.0942 16.5429 26.9442 16.5429 26.7322C16.5429 26.5282 16.4649 26.3842 16.3089 26.3002C16.1569 26.2122 15.9309 26.1682 15.6309 26.1682Z" fill="white"/>
<path d="M19.509 29.5762C19.345 29.2282 19.183 28.8662 19.023 28.4902C18.863 28.1142 18.711 27.7422 18.567 27.3742C18.423 27.0062 18.289 26.6542 18.165 26.3182C18.045 25.9822 17.941 25.6822 17.853 25.4182H18.885C18.965 25.6582 19.051 25.9182 19.143 26.1982C19.239 26.4742 19.335 26.7502 19.431 27.0262C19.531 27.3022 19.627 27.5662 19.719 27.8182C19.811 28.0702 19.897 28.2882 19.977 28.4722C20.053 28.2882 20.137 28.0702 20.229 27.8182C20.325 27.5662 20.421 27.3022 20.517 27.0262C20.617 26.7502 20.713 26.4742 20.805 26.1982C20.901 25.9182 20.989 25.6582 21.069 25.4182H22.065C21.973 25.6822 21.867 25.9822 21.747 26.3182C21.627 26.6542 21.495 27.0062 21.351 27.3742C21.207 27.7422 21.055 28.1142 20.895 28.4902C20.735 28.8662 20.573 29.2282 20.409 29.5762H19.509Z" fill="white"/>
</g>
</g>
<defs>
<clipPath id="clip0_2207_802">
<rect width="32" height="32" fill="white"/>
</clipPath>
</defs>
</svg>
