<svg width="32" height="32" viewBox="0 0 32 32" fill="none" xmlns="http://www.w3.org/2000/svg">
<g id="social / md / linkedin-md / brand">
<g id="logo">
<path fill-rule="evenodd" clip-rule="evenodd" d="M16.498 12.1901H12.1908V27.4284H16.7617V20.1094C16.7617 17.556 17.8574 16 20.1556 16C22.0482 16 22.8574 17.7786 22.8574 19.8047V27.4284H27.4284V18.9714C27.4284 14.444 26.1439 12 21.5404 12C19.1419 12 17.2025 13.2018 16.5456 14.3867H16.498V12.1901ZM9.14258 27.4284H4.57161V12.1901H9.14258V27.4284ZM9.4974 7.95052C9.64062 7.60417 9.71419 7.23177 9.71419 6.85677C9.71419 6.47396 9.63737 6.10026 9.49219 5.75391C9.34961 5.41407 9.14193 5.10287 8.87695 4.83855C8.34115 4.30209 7.61458 4.00131 6.85742 4.00261C6.09961 4.00261 5.37305 4.30339 4.83789 4.83855C4.30208 5.375 4.0013 6.10157 4.0013 6.85808C4.0013 7.23438 4.07552 7.60547 4.2194 7.95183C4.36263 8.29818 4.57292 8.61328 4.83854 8.87891C5.10352 9.14323 5.41862 9.35417 5.76562 9.4974C6.11198 9.64063 6.48372 9.71485 6.85872 9.71485C7.23372 9.71485 7.60547 9.64063 7.95182 9.4974C8.29818 9.35287 8.61328 9.14323 8.87825 8.87761C9.14388 8.61198 9.35417 8.29688 9.4974 7.95052Z" fill="white"/>
<path fill-rule="evenodd" clip-rule="evenodd" d="M29.6823 0H2.41219C1.10781 0 0 1.03162 0 2.30248V29.696C0 30.9684 0.726857 32 2.03124 32H29.3013C30.6072 32 32 30.9684 32 29.696V2.30248C32 1.03162 30.9882 0 29.6823 0ZM12.1908 12.1901H16.498V14.3867H16.5456C17.2025 13.2018 19.1419 12 21.5404 12C26.1439 12 27.4284 14.444 27.4284 18.9714V27.4284H22.8574V19.8047C22.8574 17.7786 22.0482 16 20.1556 16C17.8574 16 16.7617 17.556 16.7617 20.1094V27.4284H12.1908V12.1901ZM4.57161 27.4284H9.14258V12.1901H4.57161V27.4284ZM9.71419 6.85677C9.71419 7.23177 9.64062 7.60417 9.4974 7.95052C9.35417 8.29688 9.14388 8.61198 8.87825 8.87761C8.61328 9.14323 8.29818 9.35287 7.95182 9.4974C7.60547 9.64063 7.23372 9.71485 6.85872 9.71485C6.48372 9.71485 6.11198 9.64063 5.76562 9.4974C5.41862 9.35417 5.10352 9.14323 4.83854 8.87891C4.57292 8.61328 4.36263 8.29818 4.2194 7.95183C4.07552 7.60547 4.0013 7.23438 4.0013 6.85808C4.0013 6.10157 4.30208 5.375 4.83789 4.83855C5.37305 4.30339 6.09961 4.00261 6.85742 4.00261C7.61458 4.00131 8.34115 4.30209 8.87695 4.83855C9.41275 5.37396 9.71385 6.09931 9.71419 6.85677Z" fill="#0073B0"/>
</g>
</g>
</svg>
