<svg width="32" height="32" viewBox="0 0 32 32" fill="none" xmlns="http://www.w3.org/2000/svg">
<g id="social / md / telegram-md / white">
<path id="logo" fill-rule="evenodd" clip-rule="evenodd" d="M32 16C32 24.8366 24.8366 32 16 32C7.16344 32 0 24.8366 0 16C0 7.16344 7.16344 0 16 0C24.8366 0 32 7.16344 32 16ZM16.5735 11.8114C15.0173 12.4587 11.907 13.7984 7.24269 15.8306C6.48527 16.1318 6.08851 16.4265 6.05239 16.7146C5.99134 17.2015 6.60111 17.3933 7.43146 17.6544C7.54441 17.6899 7.66144 17.7267 7.78141 17.7657C8.59834 18.0312 9.69726 18.3419 10.2685 18.3542C10.7868 18.3654 11.3651 18.1518 12.0037 17.7133C16.3617 14.7715 18.6113 13.2846 18.7526 13.2525C18.8522 13.2299 18.9903 13.2015 19.0838 13.2846C19.1774 13.3678 19.1682 13.5253 19.1583 13.5675C19.0979 13.825 16.7043 16.0503 15.4657 17.2019C15.0795 17.5609 14.8056 17.8155 14.7496 17.8737C14.6242 18.004 14.4963 18.1272 14.3735 18.2457C13.6145 18.9773 13.0454 19.526 14.405 20.4219C15.0583 20.8525 15.5812 21.2085 16.1028 21.5637C16.6724 21.9516 17.2405 22.3385 17.9756 22.8204C18.1629 22.9432 18.3418 23.0707 18.516 23.1949C19.1789 23.6675 19.7745 24.0921 20.5103 24.0244C20.9378 23.985 21.3794 23.583 21.6037 22.384C22.1338 19.5504 23.1757 13.4108 23.4165 10.8808C23.4375 10.6592 23.411 10.3755 23.3897 10.2509C23.3684 10.1264 23.3239 9.94899 23.162 9.81765C22.9703 9.66209 22.6743 9.62929 22.542 9.63162C21.9402 9.64223 21.0169 9.96327 16.5735 11.8114Z" fill="white"/>
</g>
</svg>
