<svg width="32" height="32" viewBox="0 0 32 32" fill="none" xmlns="http://www.w3.org/2000/svg">
<g id="social / md / youtube-md / white">
<path id="logo" fill-rule="evenodd" clip-rule="evenodd" d="M28.5205 5.48274C29.8911 5.85176 30.9719 6.93248 31.3409 8.30315C32.0262 10.8073 31.9999 16.0264 31.9999 16.0264C31.9999 16.0264 31.9999 21.2191 31.3409 23.7232C30.9719 25.0939 29.8911 26.1746 28.5205 26.5436C26.0164 27.2026 15.9999 27.2026 15.9999 27.2026C15.9999 27.2026 6.00986 27.2026 3.47939 26.5173C2.10872 26.1482 1.028 25.0675 0.658976 23.6968C0 21.2191 0 16 0 16C0 16 0 10.8073 0.658976 8.30315C1.028 6.93248 2.13508 5.8254 3.47939 5.45638C5.9835 4.7974 15.9999 4.7974 15.9999 4.7974C15.9999 4.7974 26.0164 4.7974 28.5205 5.48274ZM21.1399 16L12.8105 20.7973V11.2026L21.1399 16Z" fill="white"/>
</g>
</svg>
