<svg width="32" height="32" viewBox="0 0 32 32" fill="none" xmlns="http://www.w3.org/2000/svg">
<g id="social / md / google-md / brand" clip-path="url(#clip0_1894_128)">
<g id="logo">
<path d="M32 16.3751C32 15.2781 31.8991 14.1811 31.7065 13.1021H16.3249V19.2884H25.1118C24.7449 21.2666 23.5709 23.0109 21.8557 24.1169L27.1296 28.1362C30.2206 25.3488 32 21.2486 32 16.3751Z" fill="#3E82F1"/>
<path d="M21.858 24.119C20.3996 25.0811 18.5285 25.6476 16.3272 25.6476C12.0714 25.6476 8.47593 22.8332 7.19183 19.0477L1.73445 23.1928C4.50442 28.5968 10.1544 32.0137 16.3272 32.0047C20.739 32.0047 24.4353 30.575 27.1319 28.1293L21.858 24.119Z" fill="#32A753"/>
<path d="M7.19091 12.9658L1.73352 8.82069C-0.577841 13.3435 -0.577841 18.6756 1.73352 23.1984L7.19091 19.0532C6.51218 17.075 6.51218 14.935 7.19091 12.9658Z" fill="#F9BB00"/>
<path d="M16.3272 -1.90735e-06C10.1544 -1.90735e-06 4.50349 3.4167 1.73352 8.82069L7.19091 12.9658C8.475 9.18035 12.0714 6.3661 16.3272 6.3661C18.7211 6.3661 20.8766 7.17534 22.5642 8.75788L27.2512 4.16314C24.4262 1.58253 20.7298 -1.90735e-06 16.3272 -1.90735e-06Z" fill="#E74133"/>
</g>
</g>
<defs>
<clipPath id="clip0_1894_128">
<rect width="32" height="32" fill="white"/>
</clipPath>
</defs>
</svg>
