<svg width="32" height="32" viewBox="0 0 32 32" fill="none" xmlns="http://www.w3.org/2000/svg">
<g id="social / md / whatsapp-md / black">
<g id="logo">
<path d="M0 32L2.26116 23.8873C0.870852 21.4734 0.129865 18.7309 0.137504 15.9274C0.137504 7.14251 7.28765 0 16.0726 0C20.3351 0 24.338 1.65767 27.3402 4.66746C30.3499 7.67724 32.0076 11.6801 32 15.9351C32 24.72 24.8498 31.8625 16.0649 31.8625H16.0573C13.3913 31.8625 10.7711 31.1902 8.44115 29.9221L0 32ZM8.83838 27.0346L9.31964 27.3249C11.3516 28.5318 13.6815 29.1659 16.0573 29.1735H16.0649C23.3602 29.1735 29.3034 23.238 29.3034 15.9351C29.3034 12.3982 27.9284 9.07519 25.4304 6.56958C22.9324 4.06397 19.6018 2.68894 16.0649 2.68894C8.76199 2.68894 2.81881 8.62448 2.81881 15.9274C2.81881 18.4254 3.51396 20.8622 4.84316 22.9706L5.15636 23.4748L3.81952 28.3561L8.83838 27.0346Z" fill="black"/>
<path fill-rule="evenodd" clip-rule="evenodd" d="M12.0847 9.25765C11.7868 8.59305 11.4736 8.57778 11.191 8.57014C10.9618 8.5625 10.6944 8.5625 10.4271 8.5625C10.1597 8.5625 9.73192 8.66181 9.36524 9.05904C8.99857 9.45627 7.97494 10.4188 7.97494 12.382C7.97494 14.3376 9.40344 16.2321 9.60205 16.4995C9.80067 16.7668 12.3597 20.9148 16.4008 22.5114C19.762 23.8406 20.4495 23.5732 21.1752 23.5045C21.9086 23.4357 23.528 22.542 23.8642 21.61C24.1926 20.678 24.1926 19.8836 24.0933 19.7155C23.994 19.5475 23.7267 19.4481 23.3294 19.2495C22.9322 19.0509 20.9766 18.0884 20.6099 17.9509C20.2432 17.8134 19.9759 17.7523 19.7162 18.1495C19.4488 18.5467 18.6849 19.4405 18.4557 19.7079C18.2265 19.9752 17.9897 20.0058 17.5925 19.8072C17.1953 19.6086 15.9119 19.1884 14.3917 17.8287C13.2077 16.7745 12.4056 15.4682 12.1764 15.071C11.9472 14.6737 12.1535 14.4598 12.3521 14.2612C12.5278 14.0855 12.7493 13.7952 12.948 13.5661C13.1466 13.3369 13.2153 13.1688 13.3452 12.9015C13.475 12.6341 13.4139 12.4049 13.3146 12.2063C13.2153 12.0077 12.4361 10.0445 12.0847 9.25765Z" fill="black"/>
</g>
</g>
</svg>
