<svg width="32" height="32" viewBox="0 0 32 32" fill="none" xmlns="http://www.w3.org/2000/svg">
<g id="social / md / google-md" clip-path="url(#clip0_925_1945)">
<path id="blue" d="M32 16.3727C32 15.2759 31.8991 14.179 31.7065 13.1002H16.3249V19.2855H25.1117C24.7449 21.2634 23.5708 23.0075 21.8557 24.1134L27.1296 28.132C30.2206 25.345 32 21.2454 32 16.3727Z" fill="#3E82F1"/>
<path id="green" d="M21.858 24.1154C20.3996 25.0774 18.5285 25.6438 16.3272 25.6438C12.0714 25.6438 8.47592 22.8298 7.19183 19.0449L1.73445 23.1894C4.50442 28.5926 10.1544 32.009 16.3272 32C20.739 32 24.4353 30.5705 27.1319 28.1251L21.858 24.1154Z" fill="#32A753"/>
<path id="yellow" d="M7.19091 12.9639L1.73352 8.81939C-0.577841 13.3415 -0.577841 18.6728 1.73352 23.1949L7.19091 19.0504C6.51218 17.0725 6.51218 14.9328 7.19091 12.9639Z" fill="#F9BB00"/>
<g id="red">
<path d="M16.3272 -2.38419e-07C10.1544 -2.38419e-07 4.50349 3.4162 1.73352 8.81939L7.19091 12.9639C8.475 9.179 12.0714 6.36516 16.3272 6.36516C18.7211 6.36516 20.8766 7.17429 22.5642 8.75659L27.2512 4.16253C24.4262 1.5823 20.7298 -2.38419e-07 16.3272 -2.38419e-07Z" fill="#E74133"/>
</g>
</g>
<defs>
<clipPath id="clip0_925_1945">
<rect width="32" height="32" fill="white"/>
</clipPath>
</defs>
</svg>
