<svg width="32" height="32" viewBox="0 0 32 32" fill="none" xmlns="http://www.w3.org/2000/svg">
<g id="social / md / apple-md" clip-path="url(#clip0_925_1941)">
<g id="logo">
<path d="M22.2484 0.000112295C22.4429 1.89392 21.706 3.74864 20.621 5.12882C19.4964 6.4699 17.7143 7.53408 15.9311 7.37663C15.698 5.56209 16.5907 3.63136 17.5983 2.44773C18.7208 1.06538 20.6597 0.0804688 22.2484 0.000112295Z" fill="black"/>
<path d="M18.0639 8.67213C19.2222 8.20797 20.6539 7.63422 22.2292 7.72933C23.2346 7.8086 26.1328 8.12351 27.989 10.9143C27.9797 10.9214 27.9592 10.935 27.9289 10.9552C27.4527 11.272 24.5507 13.2027 24.587 17.0116C24.6233 21.5495 28.2645 23.2496 28.7476 23.4751C28.7795 23.49 28.7976 23.4985 28.8 23.5009C28.7981 23.5068 28.7948 23.5176 28.79 23.5332C28.6983 23.8336 28.0695 25.8938 26.6366 28.0237C25.3218 29.9924 23.9694 31.9188 21.8038 31.9579C20.7849 31.9775 20.0975 31.678 19.3821 31.3663C18.632 31.0395 17.8512 30.6993 16.6251 30.6993C15.3392 30.6993 14.5209 31.0504 13.7339 31.3881C13.0543 31.6797 12.398 31.9613 11.4841 31.9981C9.3969 32.0762 7.81355 29.912 6.49874 27.9455C3.79178 23.9733 1.74438 16.7369 4.5276 11.8579C5.88001 9.42007 8.35386 7.88678 11.02 7.8466C12.1838 7.82501 13.2976 8.2727 14.2697 8.66344C15.0088 8.96048 15.6659 9.22461 16.2008 9.22461C16.6852 9.22461 17.3178 8.97111 18.0639 8.67213Z" fill="black"/>
</g>
</g>
<defs>
<clipPath id="clip0_925_1941">
<rect width="32" height="32" fill="white"/>
</clipPath>
</defs>
</svg>
