<svg width="32" height="32" viewBox="0 0 32 32" fill="none" xmlns="http://www.w3.org/2000/svg">
<g id="social / md / tiktok-md / brand">
<g id="logo">
<path d="M12.8719 12.5993V11.3502C12.4437 11.2916 12.0086 11.2549 11.5642 11.2549C6.21405 11.2549 1.86157 15.6073 1.86157 20.9575C1.86157 24.24 3.50222 27.1447 6.00395 28.9013C4.38856 27.1676 3.39774 24.845 3.39774 22.2951C3.39774 17.0218 7.62737 12.7222 12.8719 12.5993Z" fill="#25F4EE"/>
<path d="M13.1004 26.7279C15.4873 26.7279 17.4345 24.8289 17.5229 22.4638L17.531 1.33754H21.3909C21.3105 0.903559 21.2669 0.456946 21.2669 0H15.9948L15.9868 21.1263C15.8983 23.4925 13.9512 25.3904 11.5642 25.3904C10.8226 25.3904 10.1234 25.2044 9.50912 24.8817C10.3151 25.9977 11.6216 26.7279 13.1004 26.7279Z" fill="#25F4EE"/>
<path d="M28.601 8.50746V7.33295C27.1291 7.33295 25.7572 6.89552 24.6068 6.14581C25.6309 7.32147 27.0224 8.16992 28.601 8.50746Z" fill="#25F4EE"/>
<path d="M24.6068 6.14581C23.485 4.85763 22.8031 3.17566 22.8031 1.33754L21.3909 1.33754C21.7629 3.34558 22.9546 5.06889 24.6068 6.14581Z" fill="#FE2C55"/>
<path d="M11.5642 16.527C9.12106 16.527 7.13254 18.5143 7.13254 20.9587C7.13254 22.6602 8.09925 24.1401 9.50912 24.8817C8.98329 24.1538 8.66871 23.2606 8.66871 22.2962C8.66871 19.853 10.6572 17.8645 13.1004 17.8645C13.5562 17.8645 13.9936 17.9403 14.4081 18.0689V12.6877C13.9799 12.6292 13.5447 12.5924 13.1004 12.5924C13.0235 12.5924 12.9489 12.5982 12.8719 12.5993L12.8708 16.7313C12.4575 16.6016 12.02 16.527 11.5642 16.527Z" fill="#FE2C55"/>
<path d="M28.601 8.50746L28.601 12.6051C25.8674 12.6051 23.3346 11.7302 21.2669 10.2468V20.9598C21.2669 26.31 16.9144 30.6625 11.5642 30.6625C9.49649 30.6625 7.57915 30.0103 6.00395 28.9036C7.77663 30.806 10.3013 32 13.1016 32C18.4517 32 22.8042 27.6475 22.8042 22.2974V11.5844C24.872 13.0689 27.4047 13.9426 30.1383 13.9426V8.67049C29.6114 8.67049 29.0959 8.61309 28.601 8.50746Z" fill="#FE2C55"/>
<path d="M21.2669 20.9598V10.2468C23.3346 11.7302 25.8674 12.6051 28.601 12.6051L28.601 8.50746C27.0224 8.16992 25.6309 7.32147 24.6068 6.14581C22.9546 5.06889 21.7629 3.34558 21.3909 1.33754H17.531L17.5229 22.4638C17.4345 24.8289 15.4873 26.7279 13.1004 26.7279C11.6216 26.7279 10.3139 25.9966 9.50797 24.8794C8.09695 24.1366 7.13254 22.6602 7.13254 20.9587C7.13254 18.5143 9.12106 16.527 11.5642 16.527C12.02 16.527 12.4575 16.6016 12.8708 16.7313L12.8719 12.597C7.62737 12.7199 3.39774 17.0218 3.39774 22.2951C3.39774 24.845 4.38856 27.1676 6.00395 28.9013C7.5803 30.008 9.49649 30.659 11.5642 30.659C16.9144 30.659 21.2669 26.3065 21.2669 20.9564V20.9598Z" fill="black"/>
</g>
</g>
</svg>
