<svg width="32" height="32" viewBox="0 0 32 32" fill="none" xmlns="http://www.w3.org/2000/svg">
<g id="social / md / telegram-md">
<g id="logo">
<path d="M16 32C24.8366 32 32 24.8366 32 16C32 7.16344 24.8366 0 16 0C7.16344 0 0 7.16344 0 16C0 24.8366 7.16344 32 16 32Z" fill="url(#paint0_linear_925_1943)"/>
<path fill-rule="evenodd" clip-rule="evenodd" d="M7.24269 15.8306C11.907 13.7984 15.0173 12.4587 16.5735 11.8114C21.0169 9.96327 21.9402 9.64223 22.542 9.63162C22.6743 9.62929 22.9703 9.66209 23.162 9.81765C23.3239 9.94899 23.3684 10.1264 23.3897 10.2509C23.411 10.3755 23.4375 10.6592 23.4165 10.8808C23.1757 13.4108 22.1338 19.5504 21.6037 22.384C21.3794 23.583 20.9378 23.985 20.5103 24.0244C19.5811 24.1099 18.8756 23.4103 17.9756 22.8204C16.5674 21.8973 15.7719 21.3227 14.405 20.4219C12.8253 19.3809 13.8493 18.8088 14.7496 17.8737C14.9852 17.629 19.0791 13.9053 19.1583 13.5675C19.1682 13.5253 19.1774 13.3678 19.0838 13.2846C18.9903 13.2015 18.8522 13.2299 18.7526 13.2525C18.6113 13.2846 16.3617 14.7715 12.0037 17.7133C11.3651 18.1518 10.7868 18.3654 10.2685 18.3542C9.69726 18.3419 8.59834 18.0312 7.78141 17.7657C6.77941 17.44 5.98304 17.2678 6.05239 16.7146C6.08851 16.4265 6.48527 16.1318 7.24269 15.8306Z" fill="white"/>
</g>
</g>
<defs>
<linearGradient id="paint0_linear_925_1943" x1="16" y1="0" x2="16" y2="31.7627" gradientUnits="userSpaceOnUse">
<stop stop-color="#2AABEE"/>
<stop offset="1" stop-color="#229ED9"/>
</linearGradient>
</defs>
</svg>
