<svg width="32" height="32" viewBox="0 0 32 32" fill="none" xmlns="http://www.w3.org/2000/svg">
<g id="social / md / linkedin-md / white">
<path id="logo" fill-rule="evenodd" clip-rule="evenodd" d="M2.41219 0H29.6823C30.9882 0 32 1.03162 32 2.30248V29.696C32 30.9684 30.6072 32 29.3013 32H2.03124C0.726857 32 0 30.9684 0 29.696V2.30248C0 1.03162 1.10781 0 2.41219 0ZM20.1556 16C17.8574 16 16.7617 17.556 16.7617 20.1094V27.4284H12.1908V12.1901H16.498V14.3867H16.5456C17.2025 13.2018 19.1419 12 21.5404 12C26.1439 12 27.4284 14.444 27.4284 18.9714V27.4284H22.8574V19.8047C22.8574 17.7786 22.0482 16 20.1556 16ZM9.71419 6.85677C9.71419 7.23177 9.64062 7.60417 9.4974 7.95052C9.35417 8.29688 9.14388 8.61198 8.87825 8.87761C8.61328 9.14323 8.29818 9.35287 7.95182 9.4974C7.60547 9.64063 7.23372 9.71485 6.85872 9.71485C6.48372 9.71485 6.11198 9.64063 5.76562 9.4974C5.41862 9.35417 5.10352 9.14323 4.83854 8.87891C4.57292 8.61328 4.36263 8.29818 4.2194 7.95183C4.07552 7.60547 4.0013 7.23438 4.0013 6.85808C4.0013 6.10157 4.30208 5.375 4.83789 4.83855C5.37305 4.30339 6.09961 4.00261 6.85742 4.00261C7.61458 4.00131 8.34115 4.30209 8.87695 4.83855C9.14193 5.10287 9.34961 5.41407 9.49219 5.75391C9.63737 6.10026 9.71419 6.47396 9.71419 6.85677ZM9.14258 27.4284H4.57161V12.1901H9.14258V27.4284Z" fill="white"/>
</g>
</svg>
