<svg width="32" height="32" viewBox="0 0 32 32" fill="none" xmlns="http://www.w3.org/2000/svg">
<g id="social / md / google-md / white" clip-path="url(#clip0_1894_132)">
<path id="logo" d="M1.73303 8.81866C4.503 3.41546 10.1539 -0.000732422 16.3267 -0.000732422C20.7293 -0.000732422 24.4257 1.58157 27.2507 4.1618L22.5638 8.75586C20.8761 7.17356 18.7207 6.36443 16.3267 6.36443C12.0709 6.36443 8.47451 9.17827 7.19042 12.9632C6.51213 14.9308 6.51169 17.0691 7.18911 19.0459L7.19135 19.0442C8.47544 22.8291 12.0709 25.6431 16.3267 25.6431C18.528 25.6431 20.3991 25.0767 21.8575 24.1147L22.037 24.2512L21.8552 24.1126C23.5704 23.0068 24.7444 21.2627 25.1113 19.2848H16.3244V13.0995H31.706C31.8986 14.1783 31.9995 15.2751 31.9995 16.372C31.9995 21.2447 30.2201 25.3443 27.1291 28.1313L27.1262 28.1291C24.4301 30.5716 20.7357 31.9993 16.3267 31.9993C10.1553 32.0082 4.50636 28.5934 1.73575 23.1922L1.73304 23.1942C-0.578328 18.6721 -0.57833 13.3408 1.73303 8.81866Z" fill="white"/>
</g>
<defs>
<clipPath id="clip0_1894_132">
<rect width="32" height="32" fill="white"/>
</clipPath>
</defs>
</svg>
