<svg width="32" height="32" viewBox="0 0 32 32" fill="none" xmlns="http://www.w3.org/2000/svg">
<g id="social / md / tiktok-md / black">
<path id="logo" d="M25.7847 6.41447C24.0614 5.29047 22.8168 3.49254 22.4288 1.3961C22.345 0.942595 22.299 0.476464 22.299 0H16.7973L16.7882 22.0482C16.6952 24.5178 14.6642 26.4994 12.1728 26.4994C11.399 26.4994 10.6699 26.3054 10.0281 25.9679C8.55625 25.1929 7.54822 23.6498 7.54822 21.8749C7.54822 19.3249 9.62284 17.2503 12.1728 17.2503C12.6492 17.2503 13.105 17.3284 13.5379 17.4638V11.8473C13.0913 11.7865 12.6366 11.7486 12.1728 11.7486C6.58955 11.7486 2.04651 16.2916 2.04651 21.8749C2.04651 25.3008 3.75833 28.333 6.36912 30.1653C8.01435 31.3203 10.0143 32 12.1728 32C17.756 32 22.299 27.4581 22.299 21.8737V10.6935C24.4563 12.2423 27.1004 13.155 29.9535 13.155V7.65327C28.4173 7.65327 26.9856 7.19633 25.7858 6.41332L25.7847 6.41447Z" fill="black"/>
</g>
</svg>
