<svg width="32" height="32" viewBox="0 0 32 32" fill="none" xmlns="http://www.w3.org/2000/svg">
<g id="social / md / reddit-md / brand">
<g id="logo">
<path d="M16 32C24.8366 32 32 24.8366 32 16C32 7.16344 24.8366 0 16 0C7.16344 0 0 7.16344 0 16C0 24.8366 7.16344 32 16 32Z" fill="#FF4500"/>
<path d="M26.6667 16C26.6667 14.7087 25.6187 13.6608 24.3275 13.6608C23.6913 13.6608 23.1299 13.9041 22.7182 14.3158C21.1275 13.1742 18.9193 12.4257 16.4866 12.3321L17.5533 7.33564L21.0152 8.06546C21.0527 8.94499 21.7825 9.6561 22.6807 9.6561C23.5977 9.6561 24.3462 8.90757 24.3462 7.99061C24.3462 7.07365 23.5977 6.32511 22.6807 6.32511C22.0258 6.32511 21.4644 6.69938 21.2024 7.26078L17.3287 6.43739C17.2164 6.41868 17.1041 6.43739 17.0106 6.49353C16.917 6.54967 16.8609 6.64324 16.8234 6.75552L15.6445 12.3321C13.1556 12.407 10.9287 13.1368 9.31933 14.3158C8.90764 13.9228 8.32752 13.6608 7.70998 13.6608C6.41875 13.6608 5.3708 14.7087 5.3708 16C5.3708 16.9543 5.9322 17.759 6.75559 18.1333C6.71817 18.3579 6.69945 18.6011 6.69945 18.8444C6.69945 22.4374 10.8726 25.338 16.0375 25.338C21.2024 25.338 25.3755 22.4374 25.3755 18.8444C25.3755 18.6011 25.3568 18.3766 25.3193 18.152C26.0866 17.7777 26.6667 16.9543 26.6667 16ZM10.6667 17.6655C10.6667 16.7485 11.4152 16 12.3322 16C13.2492 16 13.9977 16.7485 13.9977 17.6655C13.9977 18.5824 13.2492 19.331 12.3322 19.331C11.4152 19.331 10.6667 18.5824 10.6667 17.6655ZM19.9673 22.0631C18.8258 23.2046 16.655 23.2795 16.0188 23.2795C15.3825 23.2795 13.193 23.1859 12.0702 22.0631C11.9018 21.8947 11.9018 21.614 12.0702 21.4456C12.2386 21.2772 12.5193 21.2772 12.6878 21.4456C13.3989 22.1567 14.9334 22.4187 16.0375 22.4187C17.1416 22.4187 18.6573 22.1567 19.3872 21.4456C19.5556 21.2772 19.8363 21.2772 20.0047 21.4456C20.1357 21.6327 20.1357 21.8947 19.9673 22.0631ZM19.6679 19.331C18.7509 19.331 18.0024 18.5824 18.0024 17.6655C18.0024 16.7485 18.7509 16 19.6679 16C20.5848 16 21.3334 16.7485 21.3334 17.6655C21.3334 18.5824 20.5848 19.331 19.6679 19.331Z" fill="white"/>
</g>
</g>
</svg>
