<svg width="32" height="32" viewBox="0 0 32 32" fill="none" xmlns="http://www.w3.org/2000/svg">
<g id="social / md / tiktok-md / black">
<path id="logo" d="M25.7848 6.41447C24.0615 5.29047 22.817 3.49254 22.4289 1.3961C22.3451 0.942595 22.2992 0.476464 22.2992 0H16.7975L16.7883 22.0482C16.6953 24.5178 14.6643 26.4994 12.1729 26.4994C11.3991 26.4994 10.67 26.3054 10.0282 25.9679C8.55638 25.1929 7.54834 23.6498 7.54834 21.8749C7.54834 19.3249 9.62296 17.2503 12.1729 17.2503C12.6494 17.2503 13.1052 17.3284 13.538 17.4638V11.8473C13.0914 11.7865 12.6367 11.7486 12.1729 11.7486C6.58967 11.7486 2.04663 16.2916 2.04663 21.8749C2.04663 25.3008 3.75845 28.333 6.36924 30.1653C8.01447 31.3203 10.0145 32 12.1729 32C17.7561 32 22.2992 27.4581 22.2992 21.8737V10.6935C24.4565 12.2423 27.1005 13.155 29.9536 13.155V7.65327C28.4174 7.65327 26.9857 7.19633 25.786 6.41332L25.7848 6.41447Z" fill="black"/>
</g>
</svg>
