<svg width="32" height="32" viewBox="0 0 32 32" fill="none" xmlns="http://www.w3.org/2000/svg">
<g id="social / md / instagram-md / brand">
<g id="logo">
<path d="M26.4619 7.45978C26.4619 6.39627 25.5999 5.53754 24.5404 5.53754C23.4808 5.53754 22.6181 6.39627 22.6181 7.45978C22.6181 8.51938 23.4808 9.37811 24.5404 9.37811C25.5999 9.37811 26.4619 8.51938 26.4619 7.45978Z" fill="url(#paint0_linear_1894_135)"/>
<path d="M29.0221 22.4646C28.9509 24.0247 28.69 24.8724 28.4733 25.4353C28.1823 26.1818 27.8352 26.7155 27.2722 27.2754C26.7155 27.8352 26.1818 28.1816 25.4353 28.4694C24.8723 28.6892 24.0215 28.9509 22.4614 29.0253C20.7748 29.0996 20.2751 29.1154 15.998 29.1154C11.7249 29.1154 11.2212 29.0996 9.53458 29.0253C7.97451 28.9509 7.12764 28.6892 6.5646 28.4694C5.81422 28.1816 5.28445 27.8352 4.72462 27.2754C4.16081 26.7155 3.8137 26.1818 3.52667 25.4353C3.30997 24.8724 3.04511 24.0247 2.97786 22.4646C2.89567 20.778 2.8806 20.2703 2.8806 16.002C2.8806 11.7249 2.89567 11.2212 2.97786 9.53458C3.04511 7.97451 3.30997 7.12764 3.52667 6.55986C3.8137 5.81423 4.16081 5.28363 4.72462 4.72379C5.28445 4.16479 5.81422 3.81762 6.5646 3.52667C7.12764 3.30606 7.97451 3.04826 9.53458 2.97395C11.2212 2.89958 11.7249 2.8806 15.998 2.8806C20.2751 2.8806 20.7748 2.89958 22.4614 2.97395C24.0215 3.04826 24.8723 3.30606 25.4353 3.52667C26.1818 3.81762 26.7155 4.16479 27.2722 4.72379C27.8352 5.28363 28.1823 5.81423 28.4733 6.55986C28.69 7.12764 28.9509 7.97451 29.0221 9.53458C29.1004 11.2212 29.1193 11.7249 29.1193 16.002C29.1193 20.2703 29.1004 20.778 29.0221 22.4646ZM31.9027 9.40334C31.8244 7.69851 31.5556 6.53377 31.1563 5.5193C30.7498 4.46682 30.205 3.57488 29.3131 2.68294C28.4251 1.79497 27.5332 1.25015 26.4807 0.838984C25.4623 0.443601 24.3014 0.171571 22.5958 0.0972611C20.8902 0.0150053 20.3454 0 15.998 0C11.6545 0 11.1058 0.0150053 9.40019 0.0972611C7.69851 0.171571 6.53851 0.443601 5.51533 0.838984C4.46682 1.25015 3.57488 1.79497 2.68691 2.68294C1.79497 3.57488 1.25014 4.46682 0.839753 5.5193C0.444369 6.53377 0.175542 7.69851 0.0932861 9.40334C0.0189775 11.1089 0 11.6545 0 16.002C0 20.3455 0.0189775 20.8902 0.0932861 22.5958C0.175542 24.2975 0.444369 25.4614 0.839753 26.4807C1.25014 27.5292 1.79497 28.4251 2.68691 29.3131C3.57488 30.2011 4.46682 30.7499 5.51533 31.1602C6.53851 31.5556 7.69851 31.8245 9.40019 31.9027C11.1058 31.981 11.6545 32 15.998 32C20.3454 32 20.8902 31.981 22.5958 31.9027C24.3014 31.8245 25.4623 31.5556 26.4807 31.1602C27.5332 30.7499 28.4251 30.2011 29.3131 29.3131C30.205 28.4251 30.7498 27.5292 31.1563 26.4807C31.5556 25.4614 31.8244 24.2975 31.9027 22.5958C31.981 20.8902 32 20.3455 32 16.002C32 11.6545 31.981 11.1089 31.9027 9.40334Z" fill="url(#paint1_linear_1894_135)"/>
<path d="M15.9984 21.3307C13.0545 21.3307 10.6658 18.9459 10.6658 16.002C10.6658 13.0533 13.0545 10.6654 15.9984 10.6654C18.9431 10.6654 21.3351 13.0533 21.3351 16.002C21.3351 18.9459 18.9431 21.3307 15.9984 21.3307ZM15.9984 7.78081C11.4604 7.78081 7.78515 11.464 7.78515 16.002C7.78515 20.536 11.4604 24.2153 15.9984 24.2153C20.5364 24.2153 24.2157 20.536 24.2157 16.002C24.2157 11.464 20.5364 7.78081 15.9984 7.78081Z" fill="url(#paint2_linear_1894_135)"/>
</g>
</g>
<defs>
<linearGradient id="paint0_linear_1894_135" x1="-185.895" y1="-185.731" x2="56.1199" y2="56.0807" gradientUnits="userSpaceOnUse">
<stop stop-color="#FFD521"/>
<stop offset="0.05" stop-color="#FFD521"/>
<stop offset="0.501119" stop-color="#F50000"/>
<stop offset="0.95" stop-color="#B900B4"/>
<stop offset="0.950079" stop-color="#B900B4"/>
<stop offset="1" stop-color="#B900B4"/>
</linearGradient>
<linearGradient id="paint1_linear_1894_135" x1="0.288636" y1="0.291008" x2="29.3586" y2="29.3609" gradientUnits="userSpaceOnUse">
<stop stop-color="#FFD521"/>
<stop offset="0.05" stop-color="#FFD521"/>
<stop offset="0.501119" stop-color="#F50000"/>
<stop offset="0.95" stop-color="#B900B4"/>
<stop offset="0.950079" stop-color="#B900B4"/>
<stop offset="1" stop-color="#B900B4"/>
</linearGradient>
<linearGradient id="paint2_linear_1894_135" x1="0.296589" y1="31.7098" x2="29.3595" y2="2.64687" gradientUnits="userSpaceOnUse">
<stop stop-color="#FFD521"/>
<stop offset="0.05" stop-color="#FFD521"/>
<stop offset="0.501119" stop-color="#F50000"/>
<stop offset="0.95" stop-color="#B900B4"/>
<stop offset="0.950079" stop-color="#B900B4"/>
<stop offset="1" stop-color="#B900B4"/>
</linearGradient>
</defs>
</svg>
