<svg width="32" height="32" viewBox="0 0 32 32" fill="none" xmlns="http://www.w3.org/2000/svg">
<g id="social / md / facebook-md / brand-dark" clip-path="url(#clip0_1894_121)">
<g id="logo">
<path fill-rule="evenodd" clip-rule="evenodd" d="M16 32C24.8366 32 32 24.8366 32 16C32 7.16344 24.8366 0 16 0C7.16344 0 0 7.16344 0 16C0 24.8366 7.16344 32 16 32ZM18.5 20.751V31.8058C17.6854 31.9336 16.8505 32 16 32C15.1495 32 14.3146 31.9336 13.5 31.8058V20.751H9.4375V16.0978H13.5V12.5512C13.5 8.5167 15.8887 6.28817 19.5434 6.28817C21.294 6.28817 23.125 6.60258 23.125 6.60258V10.5641H21.1074C19.1198 10.5641 18.5 11.805 18.5 13.0781V16.0978H22.9375L22.2281 20.751H18.5Z" fill="white"/>
<path d="M18.5 20.751V31.8058C17.6854 31.9336 16.8505 32 16 32C15.1495 32 14.3146 31.9336 13.5 31.8058V20.751H9.4375V16.0978H13.5V12.5512C13.5 8.5167 15.8887 6.28817 19.5434 6.28817C21.294 6.28817 23.125 6.60258 23.125 6.60258V10.5641H21.1074C19.1198 10.5641 18.5 11.805 18.5 13.0781V16.0978H22.9375L22.2281 20.751H18.5Z" fill="#1877F2"/>
</g>
</g>
<defs>
<clipPath id="clip0_1894_121">
<rect width="32" height="32" fill="white"/>
</clipPath>
</defs>
</svg>
