<svg width="40" height="40" viewBox="0 0 40 40" fill="none" xmlns="http://www.w3.org/2000/svg">
<g id="social / md / whatsapp-md / brand">
<g id="logo" filter="url(#filter0_dd_1894_170)">
<path d="M4.55762 34.246L6.74239 26.2784C5.39791 23.9485 4.68748 21.2978 4.68748 18.5935C4.68748 10.1142 11.5932 3.21615 20.0649 3.21615C24.1823 3.21615 28.0401 4.82035 30.9429 7.72318C33.8457 10.626 35.4423 14.4914 35.4423 18.6012C35.4423 27.0805 28.5366 33.9786 20.0649 33.9786H20.0572C17.4829 33.9786 14.9544 33.3293 12.7085 32.107L4.55762 34.246Z" fill="url(#paint0_linear_1894_170)"/>
<path d="M4 34.6667L6.26116 26.554C4.87085 24.14 4.12987 21.3976 4.1375 18.5941C4.1375 9.80917 11.2877 2.66667 20.0726 2.66667C24.3351 2.66667 28.338 4.32434 31.3402 7.33413C34.3499 10.3439 36.0076 14.3468 36 18.6017C36 27.3866 28.8498 34.5291 20.0649 34.5291H20.0573C17.3913 34.5291 14.7711 33.8569 12.4411 32.5888L4 34.6667ZM12.8384 29.7013L13.3196 29.9915C15.3516 31.1985 17.6815 31.8326 20.0573 31.8402H20.0649C27.3602 31.8402 33.3034 25.9046 33.3034 18.6017C33.3034 15.0648 31.9284 11.7419 29.4304 9.23625C26.9324 6.73064 23.6018 5.35561 20.0649 5.35561C12.762 5.35561 6.81881 11.2911 6.81881 18.5941C6.81881 21.092 7.51396 23.5289 8.84316 25.6373L9.15636 26.1415L7.81952 31.0228L12.8384 29.7013Z" fill="url(#paint1_linear_1894_170)"/>
<path fill-rule="evenodd" clip-rule="evenodd" d="M16.0847 11.9243C15.7868 11.2597 15.4736 11.2444 15.191 11.2368C14.9618 11.2292 14.6944 11.2292 14.4271 11.2292C14.1597 11.2292 13.7319 11.3285 13.3652 11.7257C12.9986 12.1229 11.9749 13.0855 11.9749 15.0487C11.9749 17.0043 13.4034 18.8988 13.6021 19.1661C13.8007 19.4335 16.3597 23.5815 20.4008 25.1781C23.762 26.5073 24.4495 26.2399 25.1752 26.1711C25.9086 26.1024 27.528 25.2086 27.8642 24.2767C28.1926 23.3447 28.1926 22.5502 28.0933 22.3822C27.994 22.2141 27.7267 22.1148 27.3294 21.9162C26.9322 21.7176 24.9766 20.7551 24.6099 20.6176C24.2432 20.4801 23.9759 20.4189 23.7162 20.8162C23.4488 21.2134 22.6849 22.1072 22.4557 22.3745C22.2265 22.6419 21.9897 22.6725 21.5925 22.4738C21.1953 22.2752 19.9119 21.8551 18.3917 20.4953C17.2077 19.4411 16.4056 18.1349 16.1764 17.7376C15.9472 17.3404 16.1535 17.1265 16.3521 16.9279C16.5278 16.7522 16.7493 16.4619 16.948 16.2327C17.1466 16.0036 17.2153 15.8355 17.3452 15.5681C17.475 15.3008 17.4139 15.0716 17.3146 14.873C17.2153 14.6744 16.4361 12.7111 16.0847 11.9243Z" fill="white"/>
</g>
</g>
<defs>
<filter id="filter0_dd_1894_170" x="0" y="-5.96046e-07" width="40" height="40" filterUnits="userSpaceOnUse" color-interpolation-filters="sRGB">
<feFlood flood-opacity="0" result="BackgroundImageFix"/>
<feColorMatrix in="SourceAlpha" type="matrix" values="0 0 0 0 0 0 0 0 0 0 0 0 0 0 0 0 0 0 127 0" result="hardAlpha"/>
<feOffset dy="1.33333"/>
<feGaussianBlur stdDeviation="1.33333"/>
<feColorMatrix type="matrix" values="0 0 0 0 0.054902 0 0 0 0 0.054902 0 0 0 0 0.054902 0 0 0 0.06 0"/>
<feBlend mode="normal" in2="BackgroundImageFix" result="effect1_dropShadow_1894_170"/>
<feColorMatrix in="SourceAlpha" type="matrix" values="0 0 0 0 0 0 0 0 0 0 0 0 0 0 0 0 0 0 127 0" result="hardAlpha"/>
<feOffset dy="1.33333"/>
<feGaussianBlur stdDeviation="2"/>
<feColorMatrix type="matrix" values="0 0 0 0 0.054902 0 0 0 0 0.054902 0 0 0 0 0.054902 0 0 0 0.1 0"/>
<feBlend mode="normal" in2="effect1_dropShadow_1894_170" result="effect2_dropShadow_1894_170"/>
<feBlend mode="normal" in="SourceGraphic" in2="effect2_dropShadow_1894_170" result="shape"/>
</filter>
<linearGradient id="paint0_linear_1894_170" x1="19.9995" y1="34.6644" x2="19.9995" y2="2.66488" gradientUnits="userSpaceOnUse">
<stop stop-color="#20B038"/>
<stop offset="1" stop-color="#60D66A"/>
</linearGradient>
<linearGradient id="paint1_linear_1894_170" x1="19.9996" y1="34.8004" x2="19.9996" y2="2.65838" gradientUnits="userSpaceOnUse">
<stop stop-color="#F9F9F9"/>
<stop offset="1" stop-color="white"/>
</linearGradient>
</defs>
</svg>
