<svg width="32" height="32" viewBox="0 0 32 32" fill="none" xmlns="http://www.w3.org/2000/svg">
<g id="social / md / youtube-md">
<g id="logo">
<path d="M31.3409 8.30316C30.9719 6.93249 29.8911 5.85177 28.5205 5.48275C26.0164 4.79741 15.9999 4.79741 15.9999 4.79741C15.9999 4.79741 5.9835 4.79741 3.47939 5.45639C2.13508 5.82541 1.028 6.93249 0.658976 8.30316C0 10.8073 0 16 0 16C0 16 0 21.2191 0.658976 23.6968C1.028 25.0675 2.10872 26.1482 3.47939 26.5173C6.00986 27.2026 15.9999 27.2026 15.9999 27.2026C15.9999 27.2026 26.0164 27.2026 28.5205 26.5436C29.8911 26.1746 30.9719 25.0939 31.3409 23.7232C31.9999 21.2191 31.9999 16.0264 31.9999 16.0264C31.9999 16.0264 32.0262 10.8073 31.3409 8.30316Z" fill="#FF0000"/>
<path d="M12.8105 20.7973L21.1399 16L12.8105 11.2027V20.7973Z" fill="white"/>
</g>
</g>
</svg>
