<svg width="24" height="16" viewBox="0 0 24 16" fill="none" xmlns="http://www.w3.org/2000/svg">
<g id="flag-malaysia">
<g id="flag">
<path d="M13 0V1.14286H23.8075C23.4865 0.467158 22.7978 0 22 0H13Z" fill="#E1244A"/>
<path d="M24 2.28571H13V3.42857H24V2.28571Z" fill="#E1244A"/>
<path d="M24 4.57143H13V5.71429H24V4.57143Z" fill="#E1244A"/>
<path d="M24 6.85714H13V8H24V6.85714Z" fill="#E1244A"/>
<path d="M24 9.14286H0V10.2857H24V9.14286Z" fill="#E1244A"/>
<path d="M24 11.4286H0V12.5714H24V11.4286Z" fill="#E1244A"/>
<path d="M24 13.7143H0V14C0 14.3067 0.0690545 14.5974 0.192466 14.8571H23.8075C23.9309 14.5974 24 14.3067 24 14V13.7143Z" fill="#E1244A"/>
<path fill-rule="evenodd" clip-rule="evenodd" d="M2 0H13V9.14514H0V2C0 0.89543 0.895431 0 2 0ZM7.85563 1.89359C7.2689 1.42381 6.52443 1.14285 5.71434 1.14285C3.82079 1.14285 2.28577 2.67788 2.28577 4.57142C2.28577 6.46497 3.82079 8 5.71434 8C6.52443 8 7.2689 7.71904 7.85527 7.2494C7.54457 7.36524 7.20827 7.42857 6.85719 7.42857C5.27924 7.42857 4.00005 6.14938 4.00005 4.57142C4.00005 2.99347 5.27924 1.71428 6.85719 1.71428C7.20827 1.71428 7.54457 1.7776 7.85563 1.89359ZM9.18296 3.72L9.00005 2.5L8.81715 3.72L8.10945 2.69833L8.48894 3.875L7.39663 3.25333L8.26159 4.15333L7.00005 4.055L8.17954 4.5L7.00005 4.945L8.26159 4.84666L7.39663 5.74666L8.48894 5.125L8.10945 6.30166L8.81715 5.28L9.00005 6.5L9.18296 5.28L9.89065 6.30166L9.51116 5.125L10.6035 5.74666L9.73851 4.84666L11.0001 4.945L9.82057 4.5L11.0001 4.055L9.73851 4.15333L10.6035 3.25333L9.51116 3.875L9.89065 2.69833L9.18296 3.72Z" fill="#0C3F8E"/>
<path fill-rule="evenodd" clip-rule="evenodd" d="M5.71434 1.14285C6.52443 1.14285 7.2689 1.42381 7.85563 1.89359C7.54457 1.7776 7.20827 1.71428 6.85719 1.71428C5.27924 1.71428 4.00005 2.99347 4.00005 4.57142C4.00005 6.14938 5.27924 7.42857 6.85719 7.42857C7.20827 7.42857 7.54457 7.36524 7.85527 7.2494C7.2689 7.71904 6.52443 8 5.71434 8C3.82079 8 2.28577 6.46497 2.28577 4.57142C2.28577 2.67788 3.82079 1.14285 5.71434 1.14285ZM9.00005 2.5L9.18296 3.72L9.89065 2.69833L9.51116 3.875L10.6035 3.25333L9.73851 4.15333L11.0001 4.055L9.82057 4.5L11.0001 4.945L9.73851 4.84666L10.6035 5.74666L9.51116 5.125L9.89065 6.30166L9.18296 5.28L9.00005 6.5L8.81715 5.28L8.10945 6.30166L8.48894 5.125L7.39663 5.74666L8.26159 4.84666L7.00005 4.945L8.17954 4.5L7.00005 4.055L8.26159 4.15333L7.39663 3.25333L8.48894 3.875L8.10945 2.69833L8.81715 3.72L9.00005 2.5Z" fill="#FFD34F"/>
<path d="M23.8075 1.14286H13V2.28571H24V2C24 1.69312 23.9311 1.40274 23.8075 1.14286Z" fill="white"/>
<path d="M13 3.42857V4.57143H24V3.42857H13Z" fill="white"/>
<path d="M13 5.71429V6.85714H24V5.71429H13Z" fill="white"/>
<path d="M13 8V9.14285L24 9.14286V8H13Z" fill="white"/>
<path d="M0 11.4286V10.2857H24V11.4286H0Z" fill="white"/>
<path d="M0 12.5714H24V13.7143H0V12.5714Z" fill="white"/>
<path d="M22 16C22.7982 16 23.4872 15.5324 23.808 14.8561L23.8075 14.8571H0.192466C0.180137 14.8312 0.168335 14.805 0.157104 14.7785C0.460693 15.4963 1.17151 16 2 16H22Z" fill="white"/>
<path fill-rule="evenodd" clip-rule="evenodd" d="M22 1H2C1.44772 1 1 1.44772 1 2V14C1 14.5523 1.44772 15 2 15H22C22.5523 15 23 14.5523 23 14V2C23 1.44771 22.5523 1 22 1ZM2 0C0.895431 0 0 0.89543 0 2V14C0 15.1046 0.895431 16 2 16H22C23.1046 16 24 15.1046 24 14V2C24 0.895431 23.1046 0 22 0H2Z" fill="black" fill-opacity="0.08"/>
</g>
</g>
</svg>
