<svg width="24" height="16" viewBox="0 0 24 16" fill="none" xmlns="http://www.w3.org/2000/svg">
<g id="flag-denmark">
<g id="flag">
<path d="M11 0H22C23.1046 0 24 0.89543 24 2V6H11V0Z" fill="#EF264D"/>
<path d="M7 0H2C0.89543 0 0 0.89543 0 2V6H7V0Z" fill="#EF264D"/>
<path d="M0 10V14C0 15.1046 0.89543 16 2 16H7V10H0Z" fill="#EF264D"/>
<path d="M11 16H22C23.1046 16 24 15.1046 24 14V10H11V16Z" fill="#EF264D"/>
<path fill-rule="evenodd" clip-rule="evenodd" d="M11 0V6H24V10H11V16H7V10H0V6H7V0H11Z" fill="white"/>
<path fill-rule="evenodd" clip-rule="evenodd" d="M22 1H2C1.44772 1 1 1.44772 1 2V14C1 14.5523 1.44772 15 2 15H22C22.5523 15 23 14.5523 23 14V2C23 1.44771 22.5523 1 22 1ZM2 0C0.89543 0 0 0.89543 0 2V14C0 15.1046 0.89543 16 2 16H22C23.1046 16 24 15.1046 24 14V2C24 0.89543 23.1046 0 22 0H2Z" fill="black" fill-opacity="0.08"/>
</g>
</g>
</svg>
