<svg width="24" height="16" viewBox="0 0 24 16" fill="none" xmlns="http://www.w3.org/2000/svg">
<g id="flag-paraguay">
<g id="flag">
<path fill-rule="evenodd" clip-rule="evenodd" d="M0 13.9951C0 15.1024 0.897026 16 2.00495 16H21.9951C23.1024 16 24 15.1061 24 13.9951V11H0V13.9951Z" fill="#124BBA"/>
<path d="M24 5H0V11H24V5Z" fill="white"/>
<path fill-rule="evenodd" clip-rule="evenodd" d="M0 5H24V2.00488C24 0.897616 23.103 0 21.9951 0H2.00495C0.897645 0 0 0.8939 0 2.00488V5Z" fill="#E33F39"/>
<path fill-rule="evenodd" clip-rule="evenodd" d="M12 6C10.8954 6 10 6.89543 10 8C10 9.10457 10.8954 10 12 10C13.1046 10 14 9.10457 14 8C14 6.89543 13.1046 6 12 6ZM9.7 8C9.7 6.72974 10.7297 5.7 12 5.7C13.2703 5.7 14.3 6.72974 14.3 8C14.3 9.27026 13.2703 10.3 12 10.3C10.7297 10.3 9.7 9.27026 9.7 8Z" fill="#3D3D3D"/>
<path fill-rule="evenodd" clip-rule="evenodd" d="M11.1184 6.7771C11.1733 6.83913 11.1675 6.93393 11.1055 6.98884C10.8259 7.23639 10.65 7.59756 10.65 8C10.65 8.74558 11.2544 9.35 12 9.35C12.7456 9.35 13.35 8.74558 13.35 8C13.35 7.60749 13.1827 7.25428 12.915 7.0074C12.8541 6.95123 12.8503 6.85634 12.9065 6.79544C12.9626 6.73455 13.0575 6.73071 13.1184 6.78688C13.4451 7.08817 13.65 7.52026 13.65 8C13.65 8.91127 12.9113 9.65 12 9.65C11.0887 9.65 10.35 8.91127 10.35 8C10.35 7.50808 10.5655 7.0663 10.9067 6.76422C10.9687 6.70931 11.0635 6.71507 11.1184 6.7771Z" fill="#06A86E"/>
<path d="M12 8.325L11.6488 8.50962C11.6244 8.52247 11.5942 8.51307 11.5813 8.48863C11.5762 8.4789 11.5744 8.46775 11.5763 8.45691L11.6434 8.06588L11.3593 7.78895C11.3395 7.76968 11.3391 7.73802 11.3584 7.71825C11.366 7.71038 11.3761 7.70525 11.387 7.70367L11.7796 7.64662L11.9552 7.29085C11.9674 7.26609 11.9974 7.25592 12.0221 7.26814C12.032 7.27301 12.04 7.28099 12.0448 7.29085L12.2204 7.64662L12.613 7.70367C12.6404 7.70764 12.6593 7.73301 12.6553 7.76034C12.6537 7.77122 12.6486 7.78128 12.6407 7.78895L12.3566 8.06588L12.4237 8.45691C12.4284 8.48413 12.4101 8.50997 12.3829 8.51464C12.372 8.5165 12.3609 8.51474 12.3512 8.50962L12 8.325Z" fill="#FFD34F"/>
<path fill-rule="evenodd" clip-rule="evenodd" d="M22 1H2C1.44772 1 1 1.44772 1 2V14C1 14.5523 1.44772 15 2 15H22C22.5523 15 23 14.5523 23 14V2C23 1.44771 22.5523 1 22 1ZM2 0C0.895431 0 0 0.895431 0 2V14C0 15.1046 0.89543 16 2 16H22C23.1046 16 24 15.1046 24 14V2C24 0.895431 23.1046 0 22 0H2Z" fill="black" fill-opacity="0.08"/>
</g>
</g>
</svg>
