<svg width="24" height="16" viewBox="0 0 24 16" fill="none" xmlns="http://www.w3.org/2000/svg">
<g id="flag-usa">
<g id="flag">
<path d="M0 8.56799V9.79199H24V8.56799H0Z" fill="white"/>
<path d="M11.5 7.34399H24V6.12H11.5V7.34399Z" fill="white"/>
<path d="M11.5 4.896H24V3.672H11.5V4.896Z" fill="white"/>
<path d="M11.5 2.448H24V2C24 1.72479 23.9445 1.46259 23.8439 1.224H11.5V2.448Z" fill="white"/>
<path d="M24 11.016H0V12.24H24V11.016Z" fill="white"/>
<path d="M0 13.464H24V14C24 14.2418 23.9572 14.4734 23.8785 14.688H0.12146C0.0428467 14.4734 0 14.2418 0 14V13.464Z" fill="white"/>
<path d="M22 0H11.5V1.224H23.8439C23.5409 0.504822 22.8295 0 22 0Z" fill="#F44336"/>
<path d="M11.5 8.56799H24V7.34399H11.5V8.56799Z" fill="#F44336"/>
<path d="M11.5 6.12H24V4.896H11.5V6.12Z" fill="#F44336"/>
<path d="M11.5 3.672H24V2.448H11.5V3.672Z" fill="#F44336"/>
<path d="M0 9.79199H24V11.016H0V9.79199Z" fill="#F44336"/>
<path d="M24 12.24H0V13.464H24V12.24Z" fill="#F44336"/>
<path d="M0.12146 14.688H23.8785C23.598 15.4536 22.8629 16 22 16H2C1.13708 16 0.401978 15.4536 0.12146 14.688Z" fill="#F44336"/>
<path fill-rule="evenodd" clip-rule="evenodd" d="M11.5 0H2C0.895386 0 0 0.895447 0 2V8.56799H11.5V0ZM1.18872 7.09839L1.09351 6.81683C1.0824 6.77838 1.03442 6.77838 1.02881 6.81842L0.933594 7.10004H0.637573C0.620728 7.1004 0.606079 7.11133 0.600708 7.1272C0.595337 7.14313 0.600464 7.16071 0.613525 7.1712L0.853516 7.34802L0.755127 7.62799C0.752075 7.63934 0.75415 7.65118 0.760498 7.66058C0.763184 7.66467 0.766602 7.66827 0.770752 7.6712C0.784546 7.68091 0.802979 7.68091 0.816772 7.6712L1.05676 7.49921L1.29675 7.6712C1.3103 7.68207 1.32947 7.68268 1.34375 7.67267C1.35803 7.66266 1.36389 7.64447 1.3584 7.62799L1.26794 7.34644L1.50793 7.16962C1.51416 7.16467 1.51855 7.15814 1.52087 7.15088C1.52356 7.14282 1.52368 7.13397 1.52087 7.12561C1.5155 7.10968 1.50073 7.09882 1.48401 7.09839H1.18872ZM10.1624 6.81683C10.1586 6.80151 10.1447 6.79089 10.1289 6.79126C10.1132 6.79163 10.0997 6.80292 10.0968 6.81842L10.0016 7.10004H9.70642C9.68958 7.1004 9.6748 7.11133 9.66943 7.1272C9.66663 7.13556 9.66675 7.14435 9.66931 7.15234C9.67175 7.15961 9.67615 7.1662 9.68237 7.1712L9.92236 7.34802L9.82397 7.62799C9.81958 7.64429 9.82581 7.66156 9.8396 7.6712C9.85339 7.68091 9.87183 7.68091 9.88562 7.6712L10.1256 7.49921L10.3656 7.6712C10.3792 7.68207 10.3983 7.68268 10.4126 7.67267C10.4268 7.66266 10.4327 7.64447 10.4271 7.62799L10.3368 7.34644L10.5768 7.16962C10.5846 7.16333 10.5896 7.15448 10.5912 7.14496C10.5923 7.13861 10.5918 7.13196 10.5896 7.12561C10.5842 7.10968 10.5696 7.09882 10.5527 7.09839H10.2576L10.1624 6.81683ZM7.89355 6.81683C7.88977 6.80151 7.87585 6.79089 7.86011 6.79126C7.84436 6.79163 7.83093 6.80292 7.828 6.81842L7.73279 7.10004H7.43762C7.42078 7.1004 7.40601 7.11133 7.40063 7.1272C7.39526 7.14313 7.40051 7.16071 7.41357 7.1712L7.65356 7.34802L7.55518 7.62799C7.55078 7.64429 7.55701 7.66156 7.5708 7.6712C7.58459 7.68091 7.60303 7.68091 7.61682 7.6712L7.85681 7.49921L8.0968 7.6712C8.11035 7.68207 8.12952 7.68268 8.1438 7.67267C8.15796 7.66266 8.16394 7.64447 8.15833 7.62799L8.06799 7.34644L8.30798 7.16962C8.32104 7.15912 8.32617 7.14154 8.3208 7.12561C8.31543 7.10968 8.30078 7.09882 8.28394 7.09839H7.98877L7.89355 6.81683ZM3.45679 7.09839L3.36157 6.81683C3.35034 6.77838 3.29761 6.77838 3.29675 6.81842L3.20154 7.10004H2.90552C2.88879 7.1004 2.87402 7.11133 2.86865 7.1272C2.86328 7.14313 2.86841 7.16071 2.88159 7.1712L3.12158 7.34802L3.02319 7.62799C3.0188 7.64429 3.02502 7.66156 3.03882 7.6712C3.05261 7.68091 3.07092 7.68091 3.08472 7.6712L3.32471 7.49921L3.56482 7.6712C3.57837 7.68207 3.59753 7.68268 3.61169 7.67267C3.62598 7.66266 3.63196 7.64447 3.62634 7.62799L3.53601 7.34644L3.776 7.16962C3.78052 7.16602 3.78406 7.16156 3.7865 7.15662C3.79126 7.14722 3.79236 7.13605 3.78882 7.12561C3.78467 7.11322 3.7749 7.10388 3.76282 7.10016C3.7594 7.09912 3.75574 7.09851 3.75195 7.09839H3.45679ZM5.72559 7.09839L5.63037 6.81683C5.61914 6.77838 5.56641 6.77838 5.56555 6.81842L5.47034 7.10004H5.17432C5.15759 7.1004 5.14282 7.11133 5.13745 7.1272C5.13208 7.14313 5.13721 7.16071 5.15039 7.1712L5.39038 7.34802L5.29199 7.62799C5.28955 7.63715 5.29041 7.64661 5.29407 7.65485C5.297 7.66132 5.30151 7.66699 5.30762 7.6712C5.32141 7.68091 5.33972 7.68091 5.35352 7.6712L5.59351 7.49921L5.83362 7.6712C5.84717 7.68207 5.86633 7.68268 5.88049 7.67267C5.89478 7.66266 5.90076 7.64447 5.89514 7.62799L5.80481 7.34644L6.0448 7.16962C6.05786 7.15912 6.06299 7.14154 6.05762 7.12561C6.05225 7.10968 6.0376 7.09882 6.02075 7.09839H5.72559ZM2.32312 6.35443L2.22791 6.07281C2.2168 6.03442 2.16882 6.03442 2.16321 6.07281L2.06799 6.35443H1.76392C1.74719 6.35486 1.73242 6.36572 1.72705 6.38159C1.72168 6.39752 1.72681 6.4151 1.73999 6.4256L1.97998 6.60242L1.88953 6.88403C1.88513 6.90027 1.89136 6.91754 1.90515 6.92725C1.91895 6.93689 1.93738 6.93689 1.95117 6.92719L2.19116 6.75519L2.43115 6.92719C2.4447 6.93805 2.46387 6.93866 2.47815 6.92865C2.49243 6.9187 2.49829 6.90051 2.4928 6.88403L2.40234 6.60242L2.64233 6.4256C2.65552 6.4151 2.66064 6.39752 2.65527 6.38159C2.6499 6.36572 2.63513 6.35486 2.61841 6.35443H2.32312ZM9.02795 6.07281C9.02795 6.05963 9.021 6.04749 9.00952 6.04095C8.99817 6.03436 8.98413 6.03436 8.97278 6.04095C8.96143 6.04749 8.95435 6.05963 8.95435 6.07281L8.85913 6.35443H8.56396C8.54712 6.35486 8.53247 6.36572 8.5271 6.38159C8.52173 6.39752 8.52686 6.4151 8.53992 6.4256L8.77991 6.60242L8.68958 6.88403C8.68518 6.90027 8.69141 6.91754 8.7052 6.92725C8.71899 6.93689 8.73743 6.93689 8.75122 6.92719L8.99121 6.75519L9.2312 6.92719C9.24475 6.93805 9.26392 6.93866 9.2782 6.92865C9.28589 6.92328 9.29114 6.91547 9.29346 6.90686C9.29541 6.89954 9.29529 6.8916 9.29272 6.88403L9.20239 6.60242L9.44238 6.4256C9.45544 6.4151 9.46057 6.39752 9.4552 6.38159C9.44983 6.36572 9.43518 6.35486 9.41833 6.35443H9.12317L9.02795 6.07281ZM6.85999 6.35443L6.76477 6.07281C6.75354 6.03442 6.70081 6.03442 6.69116 6.07281L6.59595 6.35443H6.30078C6.29248 6.35461 6.28467 6.35742 6.2782 6.36212C6.27173 6.36688 6.2666 6.3736 6.26392 6.38159C6.26208 6.38708 6.26147 6.39276 6.26196 6.39832C6.26306 6.40881 6.26819 6.4187 6.27673 6.4256L6.51672 6.60242L6.42639 6.88403C6.422 6.90027 6.42822 6.91754 6.44202 6.92725C6.45581 6.93689 6.47412 6.93689 6.48792 6.92719L6.72791 6.75519L6.96802 6.92719C6.98157 6.93805 7.00073 6.93866 7.01489 6.92865C7.02917 6.9187 7.03516 6.90051 7.02954 6.88403L6.93921 6.60242L7.1792 6.4256C7.19226 6.4151 7.19739 6.39752 7.19202 6.38159C7.18665 6.36572 7.172 6.35486 7.15515 6.35443H6.85999ZM4.59119 6.35443L4.49597 6.07281C4.48474 6.03442 4.43201 6.03442 4.43115 6.07281L4.33594 6.35443H4.03198C4.01514 6.35486 4.00049 6.36572 3.99512 6.38159C3.98975 6.39752 3.99487 6.4151 4.00793 6.4256L4.24792 6.60242L4.15759 6.88403C4.1554 6.89227 4.15588 6.90076 4.15869 6.90833C4.16138 6.91577 4.16638 6.92242 4.17322 6.92725C4.17957 6.9317 4.18701 6.93408 4.19446 6.93445C4.203 6.93481 4.21167 6.93237 4.21912 6.92719L4.45911 6.75519L4.69922 6.92719C4.71277 6.93805 4.73193 6.93866 4.74609 6.92865C4.76038 6.9187 4.76636 6.90051 4.76074 6.88403L4.67041 6.60242L4.9104 6.4256C4.92346 6.4151 4.92859 6.39752 4.92322 6.38159C4.91785 6.36572 4.9032 6.35486 4.88635 6.35443H4.59119ZM3.45679 5.63361L3.36157 5.35199C3.35034 5.31921 3.29761 5.31921 3.29675 5.35199L3.20154 5.63361H2.89758C2.88074 5.63403 2.86609 5.6449 2.86072 5.66083C2.85535 5.67676 2.86047 5.69427 2.87354 5.70483L3.11353 5.88159L3.02319 6.16321C3.0188 6.17944 3.02502 6.19678 3.03882 6.20642C3.05261 6.21613 3.07092 6.21606 3.08472 6.20642L3.32471 6.03442L3.56482 6.20642C3.56763 6.20868 3.57068 6.21051 3.57397 6.21191C3.58618 6.2171 3.60046 6.21582 3.61169 6.20789C3.62598 6.19788 3.63196 6.17969 3.62634 6.16321L3.53601 5.88159L3.776 5.70483C3.78906 5.69427 3.79419 5.67676 3.78882 5.66083C3.78345 5.6449 3.7688 5.63403 3.75195 5.63361H3.45679ZM10.2576 5.63361L10.1624 5.35199C10.156 5.31921 10.1031 5.31921 10.0887 5.35199L9.99353 5.63361H9.69836C9.68152 5.63403 9.66687 5.6449 9.6615 5.66083C9.65613 5.67676 9.66125 5.69427 9.67432 5.70483L9.91431 5.88159L9.82397 6.16321C9.81958 6.17944 9.82581 6.19678 9.8396 6.20642C9.85339 6.21613 9.87183 6.21606 9.88562 6.20642L10.1256 6.03442L10.3656 6.20642C10.3792 6.21729 10.3983 6.2179 10.4126 6.20789C10.4204 6.20239 10.4257 6.19446 10.428 6.18573C10.4298 6.17847 10.4297 6.17065 10.4271 6.16321L10.3368 5.88159L10.5768 5.70483C10.5898 5.69427 10.595 5.67676 10.5896 5.66083C10.5842 5.6449 10.5696 5.63403 10.5527 5.63361H10.2576ZM1.18872 5.63361L1.09351 5.35199C1.0824 5.31921 1.03442 5.31921 1.02881 5.35199L0.933594 5.63361H0.629517C0.612793 5.63403 0.598022 5.6449 0.592651 5.66083C0.58728 5.67676 0.592407 5.69427 0.605591 5.70483L0.845581 5.88159L0.755127 6.16321C0.750732 6.17944 0.756958 6.19678 0.770752 6.20642C0.784546 6.21613 0.802979 6.21606 0.816772 6.20642L1.05676 6.03442L1.29675 6.20642C1.3103 6.21729 1.32947 6.2179 1.34375 6.20789C1.35803 6.19788 1.36389 6.17969 1.3584 6.16321L1.26794 5.88159L1.50793 5.70483C1.52112 5.69427 1.52625 5.67676 1.52087 5.66083C1.5155 5.6449 1.50073 5.63403 1.48401 5.63361H1.18872ZM7.98877 5.63361L7.89355 5.35199C7.88989 5.33307 7.87073 5.32507 7.85242 5.328C7.83899 5.33014 7.82605 5.33813 7.81995 5.35199L7.72473 5.63361H7.42957C7.42322 5.63379 7.41724 5.63544 7.41187 5.63824C7.40295 5.64288 7.396 5.65088 7.3927 5.66083C7.38733 5.67676 7.39246 5.69427 7.40552 5.70483L7.64551 5.88159L7.55518 6.16321C7.55078 6.17944 7.55701 6.19678 7.5708 6.20642C7.58459 6.21613 7.60303 6.21606 7.61682 6.20642L7.85681 6.03442L8.0968 6.20642C8.11035 6.21729 8.12952 6.2179 8.1438 6.20789C8.15796 6.19788 8.16394 6.17969 8.15833 6.16321L8.06799 5.88159L8.30798 5.70483C8.32104 5.69427 8.32617 5.67676 8.3208 5.66083C8.31543 5.6449 8.30078 5.63403 8.28394 5.63361H7.98877ZM5.72559 5.63361L5.63037 5.35199C5.61914 5.31921 5.56641 5.31921 5.56555 5.35199L5.47034 5.63361H5.16638C5.14954 5.63403 5.13489 5.6449 5.12952 5.66083C5.12415 5.67676 5.12927 5.69427 5.14233 5.70483L5.38232 5.88159L5.29199 6.16321C5.2876 6.17944 5.29382 6.19678 5.30762 6.20642C5.32141 6.21613 5.33972 6.21606 5.35352 6.20642L5.59351 6.03442L5.83362 6.20642C5.84717 6.21729 5.86633 6.2179 5.88049 6.20789C5.89478 6.19788 5.90076 6.17969 5.89514 6.16321L5.80481 5.88159L6.0448 5.70483C6.05786 5.69427 6.06299 5.67676 6.05762 5.66083C6.05225 5.6449 6.0376 5.63403 6.02075 5.63361H5.72559ZM2.32312 4.89038L2.22791 4.60883C2.2168 4.57043 2.16882 4.57043 2.16321 4.61041L2.06799 4.89203H1.77197C1.75513 4.89246 1.74048 4.90332 1.73511 4.91919C1.72974 4.93512 1.73486 4.9527 1.74792 4.9632L1.98792 5.14001L1.88953 5.41998C1.88513 5.43628 1.89136 5.45355 1.90515 5.4632C1.91895 5.4729 1.93738 5.4729 1.95117 5.4632L2.19116 5.2912L2.43115 5.4632C2.4447 5.47406 2.46387 5.47467 2.47815 5.46466C2.49243 5.45471 2.49829 5.43646 2.4928 5.41998L2.40234 5.13843L2.64233 4.96161C2.65552 4.95111 2.66064 4.93353 2.65527 4.9176C2.6499 4.90167 2.63513 4.89081 2.61841 4.89038H2.32312ZM9.02795 4.60883C9.02795 4.5885 9.01147 4.57202 8.99121 4.57202C8.97498 4.57202 8.9613 4.58246 8.9563 4.59692C8.95508 4.60065 8.95435 4.60468 8.95435 4.60883L8.85913 4.89038H8.56396C8.55762 4.89056 8.55164 4.89221 8.54626 4.89502C8.53735 4.89972 8.5304 4.90771 8.5271 4.9176C8.52173 4.93353 8.52686 4.95111 8.53992 4.96161L8.77991 5.13843L8.68958 5.41998C8.68518 5.43628 8.69141 5.45355 8.7052 5.4632C8.71338 5.46899 8.72327 5.47131 8.73279 5.47021C8.73926 5.46942 8.74561 5.4671 8.75122 5.4632L8.99121 5.2912L9.2312 5.4632C9.24475 5.47406 9.26392 5.47467 9.2782 5.46466C9.29236 5.45471 9.29834 5.43646 9.29272 5.41998L9.20239 5.13843L9.44238 4.96161C9.45544 4.95111 9.46057 4.93353 9.4552 4.9176C9.44983 4.90167 9.43518 4.89081 9.41833 4.89038H9.12317L9.02795 4.60883ZM6.85999 4.89038L6.76477 4.60883C6.75354 4.57043 6.70081 4.57043 6.69116 4.60883L6.59595 4.89038H6.30078C6.29297 4.89056 6.28577 4.89301 6.27966 4.89709C6.27246 4.90192 6.26685 4.909 6.26392 4.9176C6.25854 4.93353 6.26367 4.95111 6.27673 4.96161L6.51672 5.13843L6.42639 5.41998C6.42322 5.43188 6.42566 5.44427 6.4325 5.45386C6.43506 5.4574 6.43823 5.46057 6.44202 5.4632C6.45581 5.4729 6.47412 5.4729 6.48792 5.4632L6.72791 5.2912L6.96802 5.4632C6.98157 5.47406 7.00073 5.47467 7.01489 5.46466C7.02917 5.45471 7.03516 5.43646 7.02954 5.41998L6.93921 5.13843L7.1792 4.96161C7.19226 4.95111 7.19739 4.93353 7.19202 4.9176C7.18665 4.90167 7.172 4.89081 7.15515 4.89038H6.85999ZM4.59119 4.89038L4.49597 4.60883C4.48474 4.57043 4.43201 4.57043 4.43115 4.61041L4.33594 4.89203H4.03992C4.02319 4.89246 4.00842 4.90332 4.00305 4.91919C3.99963 4.9292 4.00037 4.93988 4.00476 4.94904C4.00732 4.95441 4.01111 4.95929 4.01599 4.9632L4.25598 5.14001L4.15759 5.41998C4.1532 5.43628 4.15942 5.45355 4.17322 5.4632C4.18701 5.4729 4.20532 5.4729 4.21912 5.4632L4.45911 5.2912L4.69922 5.4632C4.71277 5.47406 4.73193 5.47467 4.74609 5.46466C4.76038 5.45471 4.76636 5.43646 4.76074 5.41998L4.67041 5.13843L4.9104 4.96161C4.92346 4.95111 4.92859 4.93353 4.92322 4.9176C4.91785 4.90167 4.9032 4.89081 4.88635 4.89038H4.59119ZM3.45679 4.17438L3.36157 3.89282C3.35034 3.85443 3.29761 3.85443 3.29675 3.89441L3.20154 4.17603H2.90552C2.89429 4.17633 2.88391 4.18134 2.87671 4.18939C2.87317 4.19336 2.87036 4.198 2.86865 4.20325C2.86328 4.21912 2.86841 4.23669 2.88159 4.24719L3.12158 4.42401L3.02319 4.70398C3.0188 4.72028 3.02502 4.73755 3.03882 4.74725C3.05261 4.7569 3.07092 4.7569 3.08472 4.74719L3.32471 4.5752L3.56482 4.74719C3.57837 4.75806 3.59753 4.75867 3.61169 4.74866C3.62598 4.73871 3.63196 4.72052 3.62634 4.70398L3.53601 4.42242L3.776 4.24561C3.78333 4.23969 3.78821 4.23157 3.79004 4.22272C3.7915 4.21582 3.79114 4.20856 3.78882 4.2016C3.78625 4.19391 3.78149 4.18738 3.77539 4.18268C3.7688 4.17761 3.76062 4.17462 3.75195 4.17438H3.45679ZM10.144 3.87042C10.1394 3.86829 10.1343 3.86713 10.1289 3.86725C10.1132 3.86761 10.0997 3.87891 10.0968 3.89441L10.0016 4.17603H9.70642C9.68958 4.17645 9.6748 4.18732 9.66943 4.20325C9.66406 4.21912 9.66931 4.23669 9.68237 4.24719L9.92236 4.42401L9.82397 4.70398C9.81958 4.72028 9.82581 4.73755 9.8396 4.74725C9.85339 4.7569 9.87183 4.7569 9.88562 4.74719L10.1256 4.5752L10.3656 4.74719C10.3729 4.75305 10.3818 4.75592 10.3907 4.75574C10.3984 4.75562 10.406 4.75323 10.4126 4.74866C10.4207 4.74298 10.426 4.73462 10.4282 4.72546C10.4298 4.71851 10.4296 4.71112 10.4271 4.70398L10.3368 4.42242L10.5768 4.24561C10.5898 4.23511 10.595 4.21753 10.5896 4.2016C10.5842 4.18573 10.5696 4.1748 10.5527 4.17438H10.2576L10.1624 3.89282C10.1599 3.88269 10.153 3.87463 10.144 3.87042ZM7.89355 3.89282C7.89355 3.8725 7.87708 3.85602 7.85681 3.85602C7.83643 3.85602 7.81995 3.8725 7.81995 3.89282L7.72473 4.17438H7.42957C7.41272 4.1748 7.39807 4.18573 7.3927 4.2016C7.38733 4.21753 7.39246 4.23511 7.40552 4.24561L7.64551 4.42242L7.55518 4.70398C7.55078 4.72028 7.55701 4.73755 7.5708 4.74725C7.58459 4.7569 7.60303 4.7569 7.61682 4.74719L7.85681 4.5752L8.0968 4.74719C8.10291 4.75208 8.11011 4.75488 8.11755 4.75555C8.12659 4.75641 8.13599 4.75415 8.1438 4.74866C8.15796 4.73871 8.16394 4.72052 8.15833 4.70398L8.06799 4.42242L8.30798 4.24561C8.32104 4.23511 8.32617 4.21753 8.3208 4.2016C8.31543 4.18573 8.30078 4.1748 8.28394 4.17438H7.98877L7.89355 3.89282ZM1.18872 4.17438L1.09351 3.89282C1.0824 3.85443 1.03442 3.85443 1.02881 3.89441L0.933594 4.17603H0.637573C0.620728 4.17645 0.606079 4.18732 0.600708 4.20325C0.595337 4.21912 0.600464 4.23669 0.613525 4.24719L0.853516 4.42401L0.755127 4.70398C0.750732 4.72028 0.756958 4.73755 0.770752 4.74725C0.779907 4.75366 0.791016 4.7558 0.801514 4.75372C0.806885 4.75269 0.812134 4.75049 0.816772 4.74719L1.05676 4.5752L1.29675 4.74719C1.3103 4.75806 1.32947 4.75867 1.34375 4.74866C1.35803 4.73871 1.36389 4.72052 1.3584 4.70398L1.26794 4.42242L1.50793 4.24561C1.52112 4.23511 1.52625 4.21753 1.52087 4.2016C1.5155 4.18573 1.50073 4.1748 1.48401 4.17438H1.18872ZM5.72559 4.17438L5.63037 3.89282C5.61914 3.85443 5.56641 3.85443 5.56555 3.89282L5.47034 4.17438H5.16638C5.14954 4.1748 5.13489 4.18573 5.12952 4.2016C5.12659 4.21008 5.12671 4.21906 5.12939 4.22723C5.13184 4.23431 5.13623 4.24072 5.14233 4.24561L5.38232 4.42242L5.29199 4.70398C5.2876 4.72028 5.29382 4.73755 5.30762 4.74725C5.3147 4.7522 5.323 4.75458 5.33118 4.75446C5.33899 4.75433 5.3468 4.75195 5.35352 4.74719L5.59351 4.5752L5.83362 4.74719C5.84717 4.75806 5.86633 4.75867 5.88049 4.74866C5.89478 4.73871 5.90076 4.72052 5.89514 4.70398L5.80481 4.42242L6.0448 4.24561C6.05786 4.23511 6.06299 4.21753 6.05762 4.2016C6.05225 4.18573 6.0376 4.1748 6.02075 4.17438H5.72559ZM2.32312 3.4248L2.22791 3.14319C2.2168 3.11041 2.16882 3.11041 2.16321 3.14319L2.06799 3.4248H1.76392C1.75671 3.42499 1.74988 3.42712 1.74402 3.43079C1.73621 3.43561 1.7301 3.44299 1.72705 3.45203C1.72168 3.46796 1.72681 3.48547 1.73999 3.49603L1.97998 3.67279L1.88953 3.95441C1.88513 3.97064 1.89136 3.98798 1.90515 3.99762C1.91895 4.00732 1.93738 4.00726 1.95117 3.99762L2.19116 3.82562L2.43115 3.99762C2.4447 4.00848 2.46387 4.00909 2.47815 3.99908C2.49243 3.98907 2.49829 3.97089 2.4928 3.95441L2.40234 3.67279L2.64233 3.49603C2.65552 3.48547 2.66064 3.46796 2.65527 3.45203C2.6499 3.4361 2.63513 3.42523 2.61841 3.4248H2.32312ZM6.85999 3.4248L6.76477 3.14319C6.75354 3.11041 6.70081 3.11041 6.69116 3.14319L6.59595 3.4248H6.30078C6.28394 3.42523 6.26929 3.4361 6.26392 3.45203C6.26062 3.46185 6.26135 3.47229 6.26538 3.48132C6.26794 3.48694 6.27173 3.492 6.27673 3.49603L6.51672 3.67279L6.42639 3.95441C6.422 3.97064 6.42822 3.98798 6.44202 3.99762C6.45581 4.00732 6.47412 4.00726 6.48792 3.99762L6.72791 3.82562L6.96802 3.99762C6.97424 4.00262 6.98181 4.00549 6.9895 4.0061C6.99829 4.00677 7.00732 4.00446 7.01489 3.99908C7.02917 3.98907 7.03516 3.97089 7.02954 3.95441L6.93921 3.67279L7.1792 3.49603C7.18579 3.49066 7.19043 3.48352 7.19263 3.47571C7.1947 3.46814 7.1947 3.4599 7.19202 3.45203C7.18665 3.4361 7.172 3.42523 7.15515 3.4248H6.85999ZM4.59119 3.4248L4.49597 3.14319C4.48474 3.11041 4.43201 3.11041 4.43115 3.14319L4.33594 3.4248H4.03198C4.01514 3.42523 4.00049 3.4361 3.99512 3.45203C3.98975 3.46796 3.99487 3.48547 4.00793 3.49603L4.24792 3.67279L4.15759 3.95441C4.1532 3.97064 4.15942 3.98798 4.17322 3.99762C4.18701 4.00732 4.20532 4.00726 4.21912 3.99762L4.45911 3.82562L4.69922 3.99762C4.71277 4.00848 4.73193 4.00909 4.74609 3.99908C4.76038 3.98907 4.76636 3.97089 4.76074 3.95441L4.67041 3.67279L4.9104 3.49603C4.92346 3.48547 4.92859 3.46796 4.92322 3.45203C4.91785 3.4361 4.9032 3.42523 4.88635 3.4248H4.59119ZM9.12317 3.4248L9.02795 3.14319C9.02161 3.11041 8.96875 3.11041 8.95435 3.14319L8.85913 3.4248H8.56396C8.54712 3.42523 8.53247 3.4361 8.5271 3.45203C8.52173 3.46796 8.52686 3.48547 8.53992 3.49603L8.77991 3.67279L8.68958 3.95441C8.68518 3.97064 8.69141 3.98798 8.7052 3.99762C8.71899 4.00732 8.73743 4.00726 8.75122 3.99762L8.99121 3.82562L9.2312 3.99762C9.23901 4.00391 9.24878 4.00677 9.25842 4.0061C9.26538 4.00562 9.27222 4.0033 9.2782 3.99908C9.29236 3.98907 9.29834 3.97089 9.29272 3.95441L9.20239 3.67279L9.44238 3.49603C9.45544 3.48547 9.46057 3.46796 9.4552 3.45203C9.45154 3.44128 9.44373 3.43286 9.43384 3.42841C9.42908 3.42621 9.42383 3.42493 9.41833 3.4248H9.12317ZM5.72559 2.70959L5.63037 2.42798C5.61914 2.3952 5.56641 2.3952 5.56555 2.42798L5.47034 2.70959H5.16638C5.14954 2.71002 5.13489 2.72089 5.12952 2.73682C5.12415 2.75275 5.12927 2.77032 5.14233 2.78082L5.38232 2.95758L5.29199 3.2392C5.28857 3.25183 5.2915 3.26501 5.29944 3.27478C5.30176 3.27765 5.30444 3.28021 5.30762 3.28241C5.31616 3.28839 5.32629 3.29071 5.33618 3.28931C5.34229 3.28845 5.34827 3.28613 5.35352 3.28241L5.59351 3.11041L5.83362 3.28241C5.84717 3.29327 5.86633 3.29388 5.88049 3.28387C5.89478 3.27386 5.90076 3.25568 5.89514 3.2392L5.80481 2.95758L6.0448 2.78082C6.05786 2.77032 6.06299 2.75275 6.05762 2.73682C6.05225 2.72089 6.0376 2.71002 6.02075 2.70959H5.72559ZM1.18872 2.70959L1.09351 2.42798C1.0824 2.3952 1.03442 2.3952 1.02881 2.42798L0.933594 2.70959H0.629517C0.612793 2.71002 0.598022 2.72089 0.592651 2.73682C0.58728 2.75275 0.592407 2.77032 0.605591 2.78082L0.845581 2.95758L0.755127 3.2392C0.750732 3.25549 0.756958 3.27277 0.770752 3.28241C0.784546 3.29211 0.802979 3.29211 0.816772 3.28241L1.05676 3.11041L1.29675 3.28241C1.3103 3.29327 1.32947 3.29388 1.34375 3.28387C1.35803 3.27386 1.36389 3.25568 1.3584 3.2392L1.26794 2.95758L1.50793 2.78082C1.52112 2.77032 1.52625 2.75275 1.52087 2.73682C1.5155 2.72089 1.50073 2.71002 1.48401 2.70959H1.18872ZM3.45996 2.70959L3.36475 2.42798C3.35034 2.3952 3.29761 2.3952 3.29199 2.42798L3.19678 2.70959H2.90234C2.88562 2.71002 2.87085 2.72089 2.86548 2.73682C2.86157 2.74835 2.86316 2.76074 2.86938 2.77075C2.8717 2.77454 2.87476 2.77795 2.87842 2.78082L3.11841 2.95758L3.02795 3.2392C3.02356 3.25549 3.02979 3.27277 3.04358 3.28241C3.05737 3.29211 3.07581 3.29211 3.0896 3.28241L3.32959 3.11041L3.56958 3.28241C3.58313 3.29327 3.60229 3.29388 3.61658 3.28387C3.63074 3.27386 3.63672 3.25568 3.6311 3.2392L3.54077 2.95758L3.78076 2.78082C3.78931 2.77399 3.79443 2.76416 3.79553 2.75378C3.79614 2.74817 3.79553 2.74237 3.7937 2.73682C3.78833 2.72089 3.77356 2.71002 3.75671 2.70959H3.45996ZM7.98877 2.70959L7.89355 2.42798C7.88721 2.3952 7.83435 2.3952 7.81995 2.42798L7.72473 2.70959H7.42957C7.41272 2.71002 7.39807 2.72089 7.3927 2.73682C7.38733 2.75275 7.39246 2.77032 7.40552 2.78082L7.64551 2.95758L7.55518 3.2392C7.55225 3.24994 7.55408 3.26111 7.55945 3.27026C7.56226 3.27496 7.56604 3.27911 7.5708 3.28241C7.58459 3.29211 7.60303 3.29211 7.61682 3.28241L7.85681 3.11041L8.0968 3.28241C8.11035 3.29327 8.12952 3.29388 8.1438 3.28387C8.15796 3.27386 8.16394 3.25568 8.15833 3.2392L8.06799 2.95758L8.30798 2.78082C8.32104 2.77032 8.32617 2.75275 8.3208 2.73682C8.31738 2.72656 8.31006 2.71838 8.30078 2.71375C8.29565 2.71118 8.28992 2.70972 8.28394 2.70959H7.98877ZM10.2576 2.70959L10.1624 2.42798C10.156 2.3952 10.1031 2.3952 10.0887 2.42798L9.99353 2.70959H9.69836C9.68152 2.71002 9.66687 2.72089 9.6615 2.73682C9.65613 2.75275 9.66125 2.77032 9.67432 2.78082L9.91431 2.95758L9.82397 3.2392C9.81958 3.25549 9.82581 3.27277 9.8396 3.28241C9.85339 3.29211 9.87183 3.29211 9.88562 3.28241L10.1256 3.11041L10.3656 3.28241C10.3743 3.28937 10.3853 3.29211 10.3958 3.29053C10.4017 3.28967 10.4075 3.28748 10.4126 3.28387C10.4268 3.27386 10.4327 3.25568 10.4271 3.2392L10.3368 2.95758L10.5768 2.78082C10.5898 2.77032 10.595 2.75275 10.5896 2.73682C10.5842 2.72089 10.5696 2.71002 10.5527 2.70959H10.2576ZM6.85999 1.96564L6.76477 1.68402C6.75354 1.64563 6.70081 1.64563 6.69116 1.68402L6.59595 1.96564H6.30078C6.28394 1.966 6.26929 1.97693 6.26392 1.9928C6.25854 2.00873 6.26367 2.02631 6.27673 2.0368L6.51672 2.21362L6.42639 2.49518C6.42383 2.50488 6.42493 2.51489 6.42908 2.52344C6.43201 2.5293 6.4364 2.53448 6.44202 2.53845C6.45581 2.5481 6.47412 2.5481 6.48792 2.53839L6.72791 2.36639L6.96802 2.53839C6.98157 2.54926 7.00073 2.54987 7.01489 2.53986C7.02917 2.52991 7.03516 2.51172 7.02954 2.49518L6.93921 2.21362L7.1792 2.0368C7.19226 2.02631 7.19739 2.00873 7.19202 1.9928C7.18945 1.98517 7.18469 1.9787 7.17859 1.974C7.172 1.96887 7.16394 1.96582 7.15515 1.96564H6.85999ZM4.59119 1.96564L4.49597 1.68402C4.4884 1.65833 4.46228 1.64984 4.44556 1.65906C4.43738 1.66357 4.4314 1.67242 4.43115 1.68561L4.33594 1.96722H4.03992C4.02319 1.96765 4.00842 1.97852 4.00305 1.99445C3.99768 2.01031 4.00281 2.02789 4.01599 2.03839L4.25598 2.21521L4.15759 2.49518C4.1532 2.51147 4.15942 2.52875 4.17322 2.53845C4.18042 2.54352 4.18896 2.5459 4.19739 2.54565C4.20496 2.54541 4.21252 2.54303 4.21912 2.53839L4.45911 2.36639L4.69922 2.53839C4.71277 2.54926 4.73193 2.54987 4.74609 2.53986C4.76038 2.52991 4.76636 2.51172 4.76074 2.49518L4.67041 2.21362L4.9104 2.0368C4.92346 2.02631 4.92859 2.00873 4.92322 1.9928C4.91785 1.97693 4.9032 1.966 4.88635 1.96564H4.59119ZM2.32312 1.96564L2.22791 1.68402C2.2168 1.64563 2.16882 1.64563 2.16321 1.68561L2.06799 1.96722H1.77197C1.75513 1.96765 1.74048 1.97852 1.73511 1.99445C1.72974 2.01031 1.73486 2.02789 1.74792 2.03839L1.98792 2.21521L1.88953 2.49518C1.88513 2.51147 1.89136 2.52875 1.90515 2.53845C1.91895 2.5481 1.93738 2.5481 1.95117 2.53839L2.19116 2.36639L2.43115 2.53839C2.4447 2.54926 2.46387 2.54987 2.47815 2.53986C2.49243 2.52991 2.49829 2.51172 2.4928 2.49518L2.40234 2.21362L2.64233 2.0368C2.65552 2.02631 2.66064 2.00873 2.65527 1.9928C2.6499 1.97693 2.63513 1.966 2.61841 1.96564H2.32312ZM9.02795 1.68402C9.02795 1.67084 9.021 1.65869 9.00952 1.65216C8.99817 1.64557 8.98413 1.64557 8.97278 1.65216C8.96143 1.65869 8.95435 1.67084 8.95435 1.68402L8.85913 1.96564H8.56396C8.54712 1.966 8.53247 1.97693 8.5271 1.9928C8.52173 2.00873 8.52686 2.02631 8.53992 2.0368L8.77991 2.21362L8.68958 2.49518C8.68518 2.51147 8.69141 2.52875 8.7052 2.53845C8.71899 2.5481 8.73743 2.5481 8.75122 2.53839L8.99121 2.36639L9.2312 2.53839C9.23767 2.54364 9.24548 2.54651 9.25342 2.54694C9.26196 2.54736 9.27075 2.54504 9.2782 2.53986C9.29236 2.52991 9.29834 2.51172 9.29272 2.49518L9.20239 2.21362L9.44238 2.0368C9.45544 2.02631 9.46057 2.00873 9.4552 1.9928C9.44983 1.97693 9.43518 1.966 9.41833 1.96564H9.12317L9.02795 1.68402ZM1.18872 1.25043L1.09351 0.968811C1.0824 0.93042 1.03442 0.93042 1.02881 0.970398L0.933594 1.25201H0.637573C0.620728 1.25244 0.606079 1.26331 0.600708 1.27924C0.595337 1.2951 0.600464 1.31268 0.613525 1.32318L0.853516 1.5L0.755127 1.78003C0.750732 1.79626 0.756958 1.81354 0.770752 1.82324C0.784546 1.83289 0.802979 1.83289 0.816772 1.82318L1.05676 1.65118L1.29675 1.82318C1.3103 1.83405 1.32947 1.83466 1.34375 1.82471C1.35803 1.8147 1.36389 1.79651 1.3584 1.78003L1.26794 1.49841L1.50793 1.32159C1.52112 1.3111 1.52625 1.29352 1.52087 1.27759C1.5155 1.26172 1.50073 1.25085 1.48401 1.25043H1.18872ZM3.45679 1.25043L3.36157 0.968811C3.35498 0.946411 3.33435 0.937073 3.31812 0.941162C3.30652 0.944031 3.29712 0.953735 3.29675 0.970398L3.20154 1.25201H2.90552C2.88879 1.25244 2.87402 1.26331 2.86865 1.27924C2.86328 1.2951 2.86841 1.31268 2.88159 1.32318L3.12158 1.5L3.02319 1.78003C3.0188 1.79626 3.02502 1.81354 3.03882 1.82324C3.0448 1.82739 3.05151 1.82977 3.05835 1.83032C3.0675 1.83112 3.0769 1.82874 3.08472 1.82318L3.32471 1.65118L3.56482 1.82318C3.57837 1.83405 3.59753 1.83466 3.61169 1.82471C3.62598 1.8147 3.63196 1.79651 3.62634 1.78003L3.53601 1.49841L3.776 1.32159C3.78296 1.31604 3.7876 1.30847 3.78967 1.30017C3.7915 1.29285 3.79138 1.28503 3.78882 1.27759C3.78345 1.26172 3.7688 1.25085 3.75195 1.25043H3.45679ZM5.72559 1.25043L5.63037 0.968811C5.61914 0.93042 5.56641 0.93042 5.56555 0.968811L5.47034 1.25043H5.16638C5.14954 1.25085 5.13489 1.26172 5.12952 1.27759C5.12415 1.29352 5.12927 1.3111 5.14233 1.32159L5.38232 1.49841L5.29199 1.78003C5.28979 1.78833 5.29028 1.79694 5.29321 1.80469C5.29602 1.81201 5.3009 1.81854 5.30762 1.82324C5.31299 1.82697 5.31897 1.82922 5.3252 1.83008C5.33496 1.83142 5.34509 1.82916 5.35352 1.82318L5.59351 1.65118L5.83362 1.82318C5.84717 1.83405 5.86633 1.83466 5.88049 1.82471C5.89478 1.8147 5.90076 1.79651 5.89514 1.78003L5.80481 1.49841L6.0448 1.32159C6.05786 1.3111 6.06299 1.29352 6.05762 1.27759C6.05225 1.26172 6.0376 1.25085 6.02075 1.25043H5.72559ZM7.89355 0.968811C7.89355 0.955688 7.8866 0.943481 7.87512 0.936951C7.87085 0.934448 7.86621 0.932922 7.86145 0.932312C7.85364 0.931274 7.84546 0.932861 7.83838 0.936951C7.82703 0.943481 7.81995 0.955688 7.81995 0.968811L7.72473 1.25043H7.42957C7.41272 1.25085 7.39807 1.26172 7.3927 1.27759C7.38733 1.29352 7.39246 1.3111 7.40552 1.32159L7.64551 1.49841L7.55518 1.78003C7.55078 1.79626 7.55701 1.81354 7.5708 1.82324C7.58459 1.83289 7.60303 1.83289 7.61682 1.82318L7.85681 1.65118L8.0968 1.82318C8.10254 1.82782 8.10938 1.83057 8.11646 1.83142C8.12585 1.83264 8.13562 1.83044 8.1438 1.82471C8.15796 1.8147 8.16394 1.79651 8.15833 1.78003L8.06799 1.49841L8.30798 1.32159C8.32104 1.3111 8.32617 1.29352 8.3208 1.27759C8.31543 1.26172 8.30078 1.25085 8.28394 1.25043H7.98877L7.89355 0.968811ZM10.1624 0.968811C10.1586 0.953491 10.1447 0.942871 10.1289 0.943237C10.1132 0.943665 10.0997 0.954956 10.0968 0.970398L10.0016 1.25201H9.70642C9.6991 1.2522 9.69214 1.25433 9.68616 1.25806C9.67847 1.26288 9.67249 1.27026 9.66943 1.27924C9.66406 1.2951 9.66931 1.31268 9.68237 1.32318L9.92236 1.5L9.82397 1.78003C9.81958 1.79626 9.82581 1.81354 9.8396 1.82324C9.85339 1.83289 9.87183 1.83289 9.88562 1.82318L10.1256 1.65118L10.3656 1.82318C10.3704 1.82697 10.3757 1.82947 10.3813 1.83075C10.392 1.83319 10.4033 1.83118 10.4126 1.82471C10.4268 1.8147 10.4327 1.79651 10.4271 1.78003L10.3368 1.49841L10.5768 1.32159C10.5898 1.3111 10.595 1.29352 10.5896 1.27759C10.5842 1.26172 10.5696 1.25085 10.5527 1.25043H10.2576L10.1624 0.968811Z" fill="#0D47A1"/>
<path d="M1.09351 6.81683L1.18872 7.09839H1.48401C1.50073 7.09882 1.5155 7.10968 1.52087 7.12561C1.52624 7.14153 1.52104 7.15911 1.50793 7.16962L1.26794 7.34644L1.3584 7.62799C1.36389 7.64447 1.35803 7.66266 1.34375 7.67267C1.32947 7.68268 1.3103 7.68207 1.29675 7.6712L1.05676 7.49921L0.816772 7.6712C0.802979 7.68091 0.784546 7.68091 0.770752 7.6712C0.756957 7.66153 0.750717 7.64425 0.755127 7.62799L0.853516 7.34802L0.613525 7.1712C0.600464 7.16071 0.595337 7.14313 0.600708 7.1272C0.606079 7.11133 0.620728 7.1004 0.637573 7.10004H0.933594L1.02881 6.81842C1.03442 6.77838 1.0824 6.77838 1.09351 6.81683ZM10.1289 6.79126C10.1447 6.79089 10.1586 6.80151 10.1624 6.81683L10.2576 7.09839H10.5527C10.5696 7.09882 10.5842 7.10968 10.5896 7.12561C10.595 7.14153 10.5899 7.15911 10.5768 7.16962L10.3368 7.34644L10.4271 7.62799C10.4327 7.64447 10.4268 7.66266 10.4126 7.67267C10.3983 7.68268 10.3792 7.68207 10.3656 7.6712L10.1256 7.49921L9.88562 7.6712C9.87183 7.68091 9.85339 7.68091 9.8396 7.6712C9.82581 7.66156 9.81958 7.64429 9.82397 7.62799L9.92236 7.34802L9.68237 7.1712C9.66927 7.1607 9.66407 7.14311 9.66943 7.1272C9.6748 7.11133 9.68958 7.1004 9.70642 7.10004H10.0016L10.0968 6.81842C10.0997 6.80292 10.1132 6.79163 10.1289 6.79126ZM7.86011 6.79126C7.87585 6.79089 7.88977 6.80151 7.89355 6.81683L7.98877 7.09839H8.28394C8.30078 7.09882 8.31543 7.10968 8.3208 7.12561C8.32617 7.14154 8.32104 7.15912 8.30798 7.16962L8.06799 7.34644L8.15833 7.62799C8.16394 7.64447 8.15796 7.66266 8.1438 7.67267C8.12952 7.68268 8.11035 7.68207 8.0968 7.6712L7.85681 7.49921L7.61682 7.6712C7.60303 7.68091 7.58459 7.68091 7.5708 7.6712C7.55701 7.66156 7.55078 7.64429 7.55518 7.62799L7.65356 7.34802L7.41357 7.1712C7.40051 7.16071 7.39526 7.14313 7.40063 7.1272C7.40601 7.11133 7.42078 7.1004 7.43762 7.10004H7.73279L7.828 6.81842C7.83093 6.80292 7.84436 6.79163 7.86011 6.79126ZM3.36157 6.81683L3.45679 7.09839H3.75195C3.76874 7.09881 3.78345 7.1097 3.78882 7.12561C3.79418 7.14153 3.78911 7.15911 3.776 7.16962L3.53601 7.34644L3.62634 7.62799C3.63196 7.64447 3.62598 7.66266 3.61169 7.67267C3.59753 7.68268 3.57837 7.68207 3.56482 7.6712L3.32471 7.49921L3.08472 7.6712C3.07092 7.68091 3.05261 7.68091 3.03882 7.6712C3.02502 7.66156 3.0188 7.64429 3.02319 7.62799L3.12158 7.34802L2.88159 7.1712C2.86841 7.16071 2.86328 7.14313 2.86865 7.1272C2.87402 7.11133 2.88879 7.1004 2.90552 7.10004H3.20154L3.29675 6.81842C3.29761 6.77838 3.35034 6.77838 3.36157 6.81683ZM5.63037 6.81683L5.72559 7.09839H6.02075C6.0376 7.09882 6.05225 7.10968 6.05762 7.12561C6.06299 7.14154 6.05786 7.15912 6.0448 7.16962L5.80481 7.34644L5.89514 7.62799C5.90076 7.64447 5.89478 7.66266 5.88049 7.67267C5.86633 7.68268 5.84717 7.68207 5.83362 7.6712L5.59351 7.49921L5.35352 7.6712C5.33972 7.68091 5.32141 7.68091 5.30762 7.6712C5.29382 7.66153 5.28758 7.64425 5.29199 7.62799L5.39038 7.34802L5.15039 7.1712C5.13721 7.16071 5.13208 7.14313 5.13745 7.1272C5.14282 7.11133 5.15759 7.1004 5.17432 7.10004H5.47034L5.56555 6.81842C5.56641 6.77838 5.61914 6.77838 5.63037 6.81683ZM2.22791 6.07281L2.32312 6.35443H2.61841C2.63513 6.35486 2.6499 6.36572 2.65527 6.38159C2.66064 6.39752 2.65552 6.4151 2.64233 6.4256L2.40234 6.60242L2.4928 6.88403C2.49829 6.90051 2.49243 6.9187 2.47815 6.92865C2.46387 6.93866 2.4447 6.93805 2.43115 6.92719L2.19116 6.75519L1.95117 6.92719C1.93738 6.93689 1.91895 6.93689 1.90515 6.92725C1.89136 6.91754 1.88513 6.90027 1.88953 6.88403L1.97998 6.60242L1.73999 6.4256C1.72681 6.4151 1.72168 6.39752 1.72705 6.38159C1.73242 6.36572 1.74719 6.35486 1.76392 6.35443H2.06799L2.16321 6.07281C2.16882 6.03442 2.2168 6.03442 2.22791 6.07281ZM9.00952 6.04095C9.021 6.04749 9.02795 6.05963 9.02795 6.07281L9.12317 6.35443H9.41833C9.43518 6.35486 9.44983 6.36572 9.4552 6.38159C9.46057 6.39752 9.45544 6.4151 9.44238 6.4256L9.20239 6.60242L9.29272 6.88403C9.29831 6.90052 9.29245 6.91866 9.2782 6.92865C9.26392 6.93866 9.24475 6.93805 9.2312 6.92719L8.99121 6.75519L8.75122 6.92719C8.73743 6.93689 8.71899 6.93689 8.7052 6.92725C8.69141 6.91754 8.68518 6.90027 8.68958 6.88403L8.77991 6.60242L8.53992 6.4256C8.52686 6.4151 8.52173 6.39752 8.5271 6.38159C8.53247 6.36572 8.54712 6.35486 8.56396 6.35443H8.85913L8.95435 6.07281C8.95435 6.05963 8.96143 6.04749 8.97278 6.04095C8.98413 6.03436 8.99817 6.03436 9.00952 6.04095ZM6.76477 6.07281L6.85999 6.35443H7.15515C7.172 6.35486 7.18665 6.36572 7.19202 6.38159C7.19739 6.39752 7.19226 6.4151 7.1792 6.4256L6.93921 6.60242L7.02954 6.88403C7.03516 6.90051 7.02917 6.9187 7.01489 6.92865C7.00073 6.93866 6.98157 6.93805 6.96802 6.92719L6.72791 6.75519L6.48792 6.92719C6.47412 6.93689 6.45581 6.93689 6.44202 6.92725C6.42822 6.91754 6.422 6.90027 6.42639 6.88403L6.51672 6.60242L6.27673 6.4256C6.26363 6.41509 6.25855 6.39751 6.26392 6.38159C6.26928 6.36568 6.28399 6.35486 6.30078 6.35443H6.59595L6.69116 6.07281C6.70081 6.03442 6.75354 6.03442 6.76477 6.07281ZM4.49597 6.07281L4.59119 6.35443H4.88635C4.9032 6.35486 4.91785 6.36572 4.92322 6.38159C4.92859 6.39752 4.92346 6.4151 4.9104 6.4256L4.67041 6.60242L4.76074 6.88403C4.76636 6.90051 4.76038 6.9187 4.74609 6.92865C4.73193 6.93866 4.71277 6.93805 4.69922 6.92719L4.45911 6.75519L4.21912 6.92719C4.20533 6.93687 4.18701 6.93692 4.17322 6.92725C4.15942 6.91757 4.15318 6.9003 4.15759 6.88403L4.24792 6.60242L4.00793 6.4256C3.99487 6.4151 3.98975 6.39752 3.99512 6.38159C4.00049 6.36572 4.01514 6.35486 4.03198 6.35443H4.33594L4.43115 6.07281C4.43201 6.03442 4.48474 6.03442 4.49597 6.07281ZM3.36157 5.35199L3.45679 5.63361H3.75195C3.7688 5.63403 3.78345 5.6449 3.78882 5.66083C3.79419 5.67676 3.78906 5.69427 3.776 5.70483L3.53601 5.88159L3.62634 6.16321C3.63196 6.17969 3.62598 6.19788 3.61169 6.20789C3.59744 6.21788 3.57842 6.21729 3.56482 6.20642L3.32471 6.03442L3.08472 6.20642C3.07092 6.21606 3.05261 6.21613 3.03882 6.20642C3.02502 6.19678 3.0188 6.17944 3.02319 6.16321L3.11353 5.88159L2.87354 5.70483C2.86047 5.69427 2.85535 5.67676 2.86072 5.66083C2.86609 5.6449 2.88074 5.63403 2.89758 5.63361H3.20154L3.29675 5.35199C3.29761 5.31921 3.35034 5.31921 3.36157 5.35199ZM10.1624 5.35199L10.2576 5.63361H10.5527C10.5696 5.63403 10.5842 5.6449 10.5896 5.66083C10.595 5.67676 10.5898 5.69427 10.5768 5.70483L10.3368 5.88159L10.4271 6.16321C10.4327 6.17969 10.4268 6.19789 10.4126 6.20789C10.3983 6.2179 10.3792 6.21729 10.3656 6.20642L10.1256 6.03442L9.88562 6.20642C9.87183 6.21606 9.85339 6.21613 9.8396 6.20642C9.82581 6.19678 9.81958 6.17944 9.82397 6.16321L9.91431 5.88159L9.67432 5.70483C9.66125 5.69427 9.65613 5.67676 9.6615 5.66083C9.66687 5.6449 9.68152 5.63403 9.69836 5.63361H9.99353L10.0887 5.35199C10.1031 5.31921 10.156 5.31921 10.1624 5.35199ZM1.09351 5.35199L1.18872 5.63361H1.48401C1.50073 5.63403 1.5155 5.6449 1.52087 5.66083C1.52625 5.67676 1.52112 5.69427 1.50793 5.70483L1.26794 5.88159L1.3584 6.16321C1.36389 6.17969 1.35803 6.19788 1.34375 6.20789C1.32947 6.2179 1.3103 6.21729 1.29675 6.20642L1.05676 6.03442L0.816772 6.20642C0.802979 6.21606 0.784546 6.21613 0.770752 6.20642C0.756958 6.19678 0.750732 6.17944 0.755127 6.16321L0.845581 5.88159L0.605591 5.70483C0.592407 5.69427 0.58728 5.67676 0.592651 5.66083C0.598022 5.6449 0.612793 5.63403 0.629517 5.63361H0.933594L1.02881 5.35199C1.03442 5.31921 1.0824 5.31921 1.09351 5.35199ZM7.89355 5.35199L7.98877 5.63361H8.28394C8.30078 5.63403 8.31543 5.6449 8.3208 5.66083C8.32617 5.67676 8.32104 5.69427 8.30798 5.70483L8.06799 5.88159L8.15833 6.16321C8.16394 6.17969 8.15796 6.19788 8.1438 6.20789C8.12952 6.2179 8.11035 6.21729 8.0968 6.20642L7.85681 6.03442L7.61682 6.20642C7.60303 6.21606 7.58459 6.21613 7.5708 6.20642C7.55701 6.19678 7.55078 6.17944 7.55518 6.16321L7.64551 5.88159L7.40552 5.70483C7.39246 5.69427 7.38733 5.67676 7.3927 5.66083C7.39806 5.64491 7.41278 5.63403 7.42957 5.63361H7.72473L7.81995 5.35199C7.83435 5.31919 7.88715 5.31919 7.89355 5.35199ZM5.63037 5.35199L5.72559 5.63361H6.02075C6.0376 5.63403 6.05225 5.6449 6.05762 5.66083C6.06299 5.67676 6.05786 5.69427 6.0448 5.70483L5.80481 5.88159L5.89514 6.16321C5.90076 6.17969 5.89478 6.19788 5.88049 6.20789C5.86633 6.2179 5.84717 6.21729 5.83362 6.20642L5.59351 6.03442L5.35352 6.20642C5.33972 6.21606 5.32141 6.21613 5.30762 6.20642C5.29382 6.19678 5.2876 6.17944 5.29199 6.16321L5.38232 5.88159L5.14233 5.70483C5.12927 5.69427 5.12415 5.67676 5.12952 5.66083C5.13489 5.6449 5.14954 5.63403 5.16638 5.63361H5.47034L5.56555 5.35199C5.56641 5.31921 5.61914 5.31921 5.63037 5.35199ZM2.22791 4.60883L2.32312 4.89038H2.61841C2.63513 4.89081 2.6499 4.90167 2.65527 4.9176C2.66064 4.93353 2.65552 4.95111 2.64233 4.96161L2.40234 5.13843L2.4928 5.41998C2.49829 5.43646 2.49243 5.45471 2.47815 5.46466C2.46387 5.47467 2.4447 5.47406 2.43115 5.4632L2.19116 5.2912L1.95117 5.4632C1.93738 5.4729 1.91895 5.4729 1.90515 5.4632C1.89136 5.45355 1.88513 5.43628 1.88953 5.41998L1.98792 5.14001L1.74792 4.9632C1.73486 4.9527 1.72974 4.93512 1.73511 4.91919C1.74048 4.90332 1.75513 4.89246 1.77197 4.89203H2.06799L2.16321 4.61041C2.16882 4.57043 2.2168 4.57043 2.22791 4.60883ZM8.99121 4.57202C9.01147 4.57202 9.02795 4.5885 9.02795 4.60883L9.12317 4.89038H9.41833C9.43518 4.89081 9.44983 4.90167 9.4552 4.9176C9.46057 4.93353 9.45544 4.95111 9.44238 4.96161L9.20239 5.13843L9.29272 5.41998C9.29834 5.43646 9.29236 5.45471 9.2782 5.46466C9.26392 5.47467 9.24475 5.47406 9.2312 5.4632L8.99121 5.2912L8.75122 5.4632C8.73743 5.47288 8.719 5.47287 8.7052 5.4632C8.69141 5.45355 8.68518 5.43628 8.68958 5.41998L8.77991 5.13843L8.53992 4.96161C8.52686 4.95111 8.52173 4.93353 8.5271 4.9176C8.53246 4.90169 8.54718 4.89081 8.56396 4.89038H8.85913L8.95435 4.60883C8.95435 4.5885 8.97089 4.57202 8.99121 4.57202ZM6.76477 4.60883L6.85999 4.89038H7.15515C7.172 4.89081 7.18665 4.90167 7.19202 4.9176C7.19739 4.93353 7.19226 4.95111 7.1792 4.96161L6.93921 5.13843L7.02954 5.41998C7.03516 5.43646 7.02917 5.45471 7.01489 5.46466C7.00073 5.47467 6.98157 5.47406 6.96802 5.4632L6.72791 5.2912L6.48792 5.4632C6.47412 5.4729 6.45581 5.4729 6.44202 5.4632C6.42822 5.45352 6.42198 5.43624 6.42639 5.41998L6.51672 5.13843L6.27673 4.96161C6.26367 4.95111 6.25854 4.93353 6.26392 4.9176C6.26928 4.90169 6.28399 4.89081 6.30078 4.89038H6.59595L6.69116 4.60883C6.70081 4.57043 6.75354 4.57043 6.76477 4.60883ZM4.49597 4.60883L4.59119 4.89038H4.88635C4.9032 4.89081 4.91785 4.90167 4.92322 4.9176C4.92859 4.93353 4.92346 4.95111 4.9104 4.96161L4.67041 5.13843L4.76074 5.41998C4.76636 5.43646 4.76038 5.45471 4.74609 5.46466C4.73193 5.47467 4.71277 5.47406 4.69922 5.4632L4.45911 5.2912L4.21912 5.4632C4.20532 5.4729 4.18701 5.4729 4.17322 5.4632C4.15942 5.45355 4.1532 5.43628 4.15759 5.41998L4.25598 5.14001L4.01599 4.9632C4.00289 4.95269 3.99769 4.9351 4.00305 4.91919C4.00842 4.90332 4.02319 4.89246 4.03992 4.89203H4.33594L4.43115 4.61041C4.43201 4.57043 4.48474 4.57043 4.49597 4.60883ZM3.36157 3.89282L3.45679 4.17438H3.75195C3.76874 4.1748 3.78345 4.18568 3.78882 4.2016C3.79418 4.21751 3.78911 4.2351 3.776 4.24561L3.53601 4.42242L3.62634 4.70398C3.63196 4.72052 3.62598 4.73871 3.61169 4.74866C3.59753 4.75867 3.57837 4.75806 3.56482 4.74719L3.32471 4.5752L3.08472 4.74719C3.07092 4.7569 3.05261 4.7569 3.03882 4.74725C3.02502 4.73755 3.0188 4.72028 3.02319 4.70398L3.12158 4.42401L2.88159 4.24719C2.86841 4.23669 2.86328 4.21912 2.86865 4.20325C2.87402 4.18733 2.88873 4.17645 2.90552 4.17603H3.20154L3.29675 3.89441C3.29761 3.85443 3.35034 3.85443 3.36157 3.89282ZM10.1289 3.86725C10.1447 3.86686 10.1586 3.87752 10.1624 3.89282L10.2576 4.17438H10.5527C10.5696 4.1748 10.5842 4.18573 10.5896 4.2016C10.595 4.21753 10.5898 4.23511 10.5768 4.24561L10.3368 4.42242L10.4271 4.70398C10.4327 4.72046 10.4268 4.73866 10.4126 4.74866C10.3983 4.75865 10.3792 4.75806 10.3656 4.74719L10.1256 4.5752L9.88562 4.74719C9.87183 4.7569 9.85339 4.7569 9.8396 4.74725C9.82581 4.73755 9.81958 4.72028 9.82397 4.70398L9.92236 4.42401L9.68237 4.24719C9.66931 4.23669 9.66406 4.21912 9.66943 4.20325C9.6748 4.18732 9.68958 4.17645 9.70642 4.17603H10.0016L10.0968 3.89441C10.0997 3.87891 10.1132 3.86761 10.1289 3.86725ZM7.85681 3.85602C7.87708 3.85602 7.89355 3.8725 7.89355 3.89282L7.98877 4.17438H8.28394C8.30078 4.1748 8.31543 4.18573 8.3208 4.2016C8.32617 4.21753 8.32104 4.23511 8.30798 4.24561L8.06799 4.42242L8.15833 4.70398C8.16394 4.72052 8.15796 4.73871 8.1438 4.74866C8.12955 4.75865 8.1104 4.75806 8.0968 4.74719L7.85681 4.5752L7.61682 4.74719C7.60303 4.7569 7.58459 4.7569 7.5708 4.74725C7.55701 4.73755 7.55078 4.72028 7.55518 4.70398L7.64551 4.42242L7.40552 4.24561C7.39246 4.23511 7.38733 4.21753 7.3927 4.2016C7.39807 4.18573 7.41272 4.1748 7.42957 4.17438H7.72473L7.81995 3.89282C7.81995 3.8725 7.83643 3.85602 7.85681 3.85602ZM1.09351 3.89282L1.18872 4.17438H1.48401C1.50073 4.1748 1.5155 4.18573 1.52087 4.2016C1.52625 4.21753 1.52112 4.23511 1.50793 4.24561L1.26794 4.42242L1.3584 4.70398C1.36389 4.72052 1.35803 4.73871 1.34375 4.74866C1.32947 4.75867 1.3103 4.75806 1.29675 4.74719L1.05676 4.5752L0.816772 4.74719C0.802985 4.75688 0.784547 4.75693 0.770752 4.74725C0.756958 4.73755 0.750732 4.72028 0.755127 4.70398L0.853516 4.42401L0.613525 4.24719C0.600464 4.23669 0.595337 4.21912 0.600708 4.20325C0.606079 4.18732 0.620728 4.17645 0.637573 4.17603H0.933594L1.02881 3.89441C1.03442 3.85443 1.0824 3.85443 1.09351 3.89282ZM5.63037 3.89282L5.72559 4.17438H6.02075C6.0376 4.1748 6.05225 4.18573 6.05762 4.2016C6.06299 4.21753 6.05786 4.23511 6.0448 4.24561L5.80481 4.42242L5.89514 4.70398C5.90076 4.72052 5.89478 4.73871 5.88049 4.74866C5.86633 4.75867 5.84717 4.75806 5.83362 4.74719L5.59351 4.5752L5.35352 4.74719C5.33973 4.75688 5.32141 4.75693 5.30762 4.74725C5.29382 4.73755 5.2876 4.72028 5.29199 4.70398L5.38232 4.42242L5.14233 4.24561C5.12923 4.2351 5.12415 4.21751 5.12952 4.2016C5.13489 4.18573 5.14954 4.1748 5.16638 4.17438H5.47034L5.56555 3.89282C5.56641 3.85443 5.61914 3.85443 5.63037 3.89282ZM2.22791 3.14319L2.32312 3.4248H2.61841C2.63513 3.42523 2.6499 3.4361 2.65527 3.45203C2.66064 3.46796 2.65552 3.48547 2.64233 3.49603L2.40234 3.67279L2.4928 3.95441C2.49829 3.97089 2.49243 3.98907 2.47815 3.99908C2.46387 4.00909 2.4447 4.00848 2.43115 3.99762L2.19116 3.82562L1.95117 3.99762C1.93738 4.00726 1.91895 4.00732 1.90515 3.99762C1.89136 3.98798 1.88513 3.97064 1.88953 3.95441L1.97998 3.67279L1.73999 3.49603C1.72681 3.48547 1.72168 3.46796 1.72705 3.45203C1.73242 3.43611 1.74713 3.42523 1.76392 3.4248H2.06799L2.16321 3.14319C2.16882 3.11041 2.2168 3.11041 2.22791 3.14319ZM6.76477 3.14319L6.85999 3.4248H7.15515C7.172 3.42523 7.18665 3.4361 7.19202 3.45203C7.19738 3.46794 7.1923 3.48553 7.1792 3.49603L6.93921 3.67279L7.02954 3.95441C7.03516 3.97089 7.02917 3.98907 7.01489 3.99908C7.00064 4.00908 6.98161 4.00849 6.96802 3.99762L6.72791 3.82562L6.48792 3.99762C6.47412 4.00726 6.45581 4.00732 6.44202 3.99762C6.42822 3.98798 6.422 3.97064 6.42639 3.95441L6.51672 3.67279L6.27673 3.49603C6.26363 3.48553 6.25855 3.46794 6.26392 3.45203C6.26929 3.4361 6.28394 3.42523 6.30078 3.4248H6.59595L6.69116 3.14319C6.70081 3.11041 6.75354 3.11041 6.76477 3.14319ZM4.49597 3.14319L4.59119 3.4248H4.88635C4.9032 3.42523 4.91785 3.4361 4.92322 3.45203C4.92859 3.46796 4.92346 3.48547 4.9104 3.49603L4.67041 3.67279L4.76074 3.95441C4.76636 3.97089 4.76038 3.98907 4.74609 3.99908C4.73193 4.00909 4.71277 4.00848 4.69922 3.99762L4.45911 3.82562L4.21912 3.99762C4.20532 4.00726 4.18701 4.00732 4.17322 3.99762C4.15942 3.98798 4.1532 3.97064 4.15759 3.95441L4.24792 3.67279L4.00793 3.49603C3.99487 3.48547 3.98975 3.46796 3.99512 3.45203C4.00049 3.4361 4.01514 3.42523 4.03198 3.4248H4.33594L4.43115 3.14319C4.43201 3.11041 4.48474 3.11041 4.49597 3.14319ZM9.02795 3.14319L9.12317 3.4248H9.41833C9.43512 3.42523 9.44984 3.43611 9.4552 3.45203C9.46057 3.46796 9.45544 3.48547 9.44238 3.49603L9.20239 3.67279L9.29272 3.95441C9.29834 3.97089 9.29236 3.98907 9.2782 3.99908C9.26395 4.00908 9.2448 4.00849 9.2312 3.99762L8.99121 3.82562L8.75122 3.99762C8.73743 4.00726 8.71899 4.00732 8.7052 3.99762C8.69141 3.98798 8.68518 3.97064 8.68958 3.95441L8.77991 3.67279L8.53992 3.49603C8.52686 3.48547 8.52173 3.46796 8.5271 3.45203C8.53247 3.4361 8.54712 3.42523 8.56396 3.4248H8.85913L8.95435 3.14319C8.96875 3.11041 9.02161 3.11041 9.02795 3.14319ZM5.63037 2.42798L5.72559 2.70959H6.02075C6.0376 2.71002 6.05225 2.72089 6.05762 2.73682C6.06299 2.75275 6.05786 2.77032 6.0448 2.78082L5.80481 2.95758L5.89514 3.2392C5.90076 3.25568 5.89478 3.27386 5.88049 3.28387C5.86633 3.29388 5.84717 3.29327 5.83362 3.28241L5.59351 3.11041L5.35352 3.28241C5.33973 3.2921 5.32141 3.29208 5.30762 3.28241C5.29382 3.27273 5.28758 3.25546 5.29199 3.2392L5.38232 2.95758L5.14233 2.78082C5.12927 2.77032 5.12415 2.75275 5.12952 2.73682C5.13489 2.72089 5.14954 2.71002 5.16638 2.70959H5.47034L5.56555 2.42798C5.56641 2.3952 5.61914 2.3952 5.63037 2.42798ZM1.09351 2.42798L1.18872 2.70959H1.48401C1.50073 2.71002 1.5155 2.72089 1.52087 2.73682C1.52625 2.75275 1.52112 2.77032 1.50793 2.78082L1.26794 2.95758L1.3584 3.2392C1.36389 3.25568 1.35803 3.27386 1.34375 3.28387C1.32947 3.29388 1.3103 3.29327 1.29675 3.28241L1.05676 3.11041L0.816772 3.28241C0.802979 3.29211 0.784546 3.29211 0.770752 3.28241C0.756958 3.27277 0.750732 3.25549 0.755127 3.2392L0.845581 2.95758L0.605591 2.78082C0.592407 2.77032 0.58728 2.75275 0.592651 2.73682C0.598022 2.72089 0.612793 2.71002 0.629517 2.70959H0.933594L1.02881 2.42798C1.03442 2.3952 1.0824 2.3952 1.09351 2.42798ZM3.36475 2.42798L3.45996 2.70959H3.75671C3.77356 2.71002 3.78833 2.72089 3.7937 2.73682C3.79907 2.75273 3.79387 2.77032 3.78076 2.78082L3.54077 2.95758L3.6311 3.2392C3.63672 3.25568 3.63074 3.27386 3.61658 3.28387C3.60229 3.29388 3.58313 3.29327 3.56958 3.28241L3.32959 3.11041L3.0896 3.28241C3.07581 3.29211 3.05737 3.29211 3.04358 3.28241C3.02979 3.27277 3.02356 3.25549 3.02795 3.2392L3.11841 2.95758L2.87842 2.78082C2.86531 2.77032 2.86011 2.75273 2.86548 2.73682C2.87085 2.72089 2.88562 2.71002 2.90234 2.70959H3.19678L3.29199 2.42798C3.29761 2.3952 3.35034 2.3952 3.36475 2.42798ZM7.89355 2.42798L7.98877 2.70959H8.28394C8.30072 2.71002 8.31544 2.7209 8.3208 2.73682C8.32617 2.75275 8.32104 2.77032 8.30798 2.78082L8.06799 2.95758L8.15833 3.2392C8.16394 3.25568 8.15796 3.27386 8.1438 3.28387C8.12952 3.29388 8.11035 3.29327 8.0968 3.28241L7.85681 3.11041L7.61682 3.28241C7.60303 3.29211 7.58459 3.29211 7.5708 3.28241C7.55701 3.27273 7.55077 3.25546 7.55518 3.2392L7.64551 2.95758L7.40552 2.78082C7.39246 2.77032 7.38733 2.75275 7.3927 2.73682C7.39807 2.72089 7.41272 2.71002 7.42957 2.70959H7.72473L7.81995 2.42798C7.83435 2.3952 7.88721 2.3952 7.89355 2.42798ZM10.1624 2.42798L10.2576 2.70959H10.5527C10.5696 2.71002 10.5842 2.72089 10.5896 2.73682C10.595 2.75275 10.5898 2.77032 10.5768 2.78082L10.3368 2.95758L10.4271 3.2392C10.4327 3.25568 10.4268 3.27386 10.4126 3.28387C10.3983 3.29387 10.3792 3.29328 10.3656 3.28241L10.1256 3.11041L9.88562 3.28241C9.87183 3.29211 9.85339 3.29211 9.8396 3.28241C9.82581 3.27277 9.81958 3.25549 9.82397 3.2392L9.91431 2.95758L9.67432 2.78082C9.66125 2.77032 9.65613 2.75275 9.6615 2.73682C9.66687 2.72089 9.68152 2.71002 9.69836 2.70959H9.99353L10.0887 2.42798C10.1031 2.3952 10.156 2.3952 10.1624 2.42798ZM6.76477 1.68402L6.85999 1.96564H7.15515C7.17194 1.96606 7.18665 1.97688 7.19202 1.9928C7.19739 2.00873 7.19226 2.02631 7.1792 2.0368L6.93921 2.21362L7.02954 2.49518C7.03516 2.51172 7.02917 2.52991 7.01489 2.53986C7.00073 2.54987 6.98157 2.54926 6.96802 2.53839L6.72791 2.36639L6.48792 2.53839C6.47412 2.5481 6.45581 2.5481 6.44202 2.53845C6.42822 2.52878 6.42198 2.51144 6.42639 2.49518L6.51672 2.21362L6.27673 2.0368C6.26367 2.02631 6.25854 2.00873 6.26392 1.9928C6.26929 1.97693 6.28394 1.966 6.30078 1.96564H6.59595L6.69116 1.68402C6.70081 1.64563 6.75354 1.64563 6.76477 1.68402ZM4.49597 1.68402L4.59119 1.96564H4.88635C4.9032 1.966 4.91785 1.97693 4.92322 1.9928C4.92859 2.00873 4.92346 2.02631 4.9104 2.0368L4.67041 2.21362L4.76074 2.49518C4.76636 2.51172 4.76038 2.52991 4.74609 2.53986C4.73193 2.54987 4.71277 2.54926 4.69922 2.53839L4.45911 2.36639L4.21912 2.53839C4.20533 2.54808 4.18701 2.54813 4.17322 2.53845C4.15942 2.52875 4.1532 2.51147 4.15759 2.49518L4.25598 2.21521L4.01599 2.03839C4.00281 2.02789 3.99768 2.01031 4.00305 1.99445C4.00842 1.97852 4.02319 1.96765 4.03992 1.96722H4.33594L4.43115 1.68561C4.43195 1.64561 4.48477 1.64562 4.49597 1.68402ZM2.22791 1.68402L2.32312 1.96564H2.61841C2.63513 1.966 2.6499 1.97693 2.65527 1.9928C2.66064 2.00873 2.65552 2.02631 2.64233 2.0368L2.40234 2.21362L2.4928 2.49518C2.49829 2.51172 2.49243 2.52991 2.47815 2.53986C2.46387 2.54987 2.4447 2.54926 2.43115 2.53839L2.19116 2.36639L1.95117 2.53839C1.93738 2.5481 1.91895 2.5481 1.90515 2.53845C1.89136 2.52875 1.88513 2.51147 1.88953 2.49518L1.98792 2.21521L1.74792 2.03839C1.73486 2.02789 1.72974 2.01031 1.73511 1.99445C1.74048 1.97852 1.75513 1.96765 1.77197 1.96722H2.06799L2.16321 1.68561C2.16882 1.64563 2.2168 1.64563 2.22791 1.68402ZM9.00952 1.65216C9.021 1.65869 9.02795 1.67084 9.02795 1.68402L9.12317 1.96564H9.41833C9.43518 1.966 9.44983 1.97693 9.4552 1.9928C9.46057 2.00873 9.45544 2.02631 9.44238 2.0368L9.20239 2.21362L9.29272 2.49518C9.29834 2.51172 9.29236 2.52991 9.2782 2.53986C9.26395 2.54985 9.2448 2.54926 9.2312 2.53839L8.99121 2.36639L8.75122 2.53839C8.73743 2.5481 8.71899 2.5481 8.7052 2.53845C8.69141 2.52875 8.68518 2.51147 8.68958 2.49518L8.77991 2.21362L8.53992 2.0368C8.52686 2.02631 8.52173 2.00873 8.5271 1.9928C8.53247 1.97693 8.54712 1.966 8.56396 1.96564H8.85913L8.95435 1.68402C8.95435 1.67084 8.96143 1.65869 8.97278 1.65216C8.98413 1.64557 8.99817 1.64557 9.00952 1.65216ZM1.09351 0.968811L1.18872 1.25043H1.48401C1.50073 1.25085 1.5155 1.26172 1.52087 1.27759C1.52625 1.29352 1.52112 1.3111 1.50793 1.32159L1.26794 1.49841L1.3584 1.78003C1.36389 1.79651 1.35803 1.8147 1.34375 1.82471C1.32947 1.83466 1.3103 1.83405 1.29675 1.82318L1.05676 1.65118L0.816772 1.82318C0.802979 1.83289 0.784546 1.83289 0.770752 1.82324C0.756958 1.81354 0.750732 1.79626 0.755127 1.78003L0.853516 1.5L0.613525 1.32318C0.600464 1.31268 0.595337 1.2951 0.600708 1.27924C0.606079 1.26331 0.620728 1.25244 0.637573 1.25201H0.933594L1.02881 0.970398C1.03442 0.93042 1.0824 0.93042 1.09351 0.968811ZM3.36157 0.968811L3.45679 1.25043H3.75195C3.7688 1.25085 3.78345 1.26172 3.78882 1.27759C3.79418 1.2935 3.78911 1.31109 3.776 1.32159L3.53601 1.49841L3.62634 1.78003C3.63196 1.79651 3.62598 1.8147 3.61169 1.82471C3.59753 1.83466 3.57837 1.83405 3.56482 1.82318L3.32471 1.65118L3.08472 1.82318C3.07093 1.83287 3.05261 1.83292 3.03882 1.82324C3.02502 1.81354 3.0188 1.79626 3.02319 1.78003L3.12158 1.5L2.88159 1.32318C2.86841 1.31268 2.86328 1.2951 2.86865 1.27924C2.87402 1.26331 2.88879 1.25244 2.90552 1.25201H3.20154L3.29675 0.970398C3.29755 0.930398 3.35037 0.930411 3.36157 0.968811ZM5.63037 0.968811L5.72559 1.25043H6.02075C6.0376 1.25085 6.05225 1.26172 6.05762 1.27759C6.06299 1.29352 6.05786 1.3111 6.0448 1.32159L5.80481 1.49841L5.89514 1.78003C5.90076 1.79651 5.89478 1.8147 5.88049 1.82471C5.86633 1.83466 5.84717 1.83405 5.83362 1.82318L5.59351 1.65118L5.35352 1.82318C5.33973 1.83287 5.32141 1.83292 5.30762 1.82324C5.29382 1.81357 5.28758 1.79629 5.29199 1.78003L5.38232 1.49841L5.14233 1.32159C5.12927 1.3111 5.12415 1.29352 5.12952 1.27759C5.13489 1.26172 5.14954 1.25085 5.16638 1.25043H5.47034L5.56555 0.968811C5.56641 0.93042 5.61914 0.93042 5.63037 0.968811ZM7.87512 0.936951C7.8866 0.943481 7.89355 0.955688 7.89355 0.968811L7.98877 1.25043H8.28394C8.30078 1.25085 8.31543 1.26172 8.3208 1.27759C8.32617 1.29352 8.32104 1.3111 8.30798 1.32159L8.06799 1.49841L8.15833 1.78003C8.16394 1.79651 8.15796 1.8147 8.1438 1.82471C8.12955 1.8347 8.1104 1.83405 8.0968 1.82318L7.85681 1.65118L7.61682 1.82318C7.60303 1.83289 7.58459 1.83289 7.5708 1.82324C7.55701 1.81354 7.55078 1.79626 7.55518 1.78003L7.64551 1.49841L7.40552 1.32159C7.39246 1.3111 7.38733 1.29352 7.3927 1.27759C7.39807 1.26172 7.41272 1.25085 7.42957 1.25043H7.72473L7.81995 0.968811C7.81995 0.955688 7.82703 0.943481 7.83838 0.936951C7.84976 0.930377 7.86374 0.930377 7.87512 0.936951ZM10.1289 0.943237C10.1447 0.942871 10.1586 0.953491 10.1624 0.968811L10.2576 1.25043H10.5527C10.5696 1.25085 10.5842 1.26172 10.5896 1.27759C10.595 1.29352 10.5898 1.3111 10.5768 1.32159L10.3368 1.49841L10.4271 1.78003C10.4327 1.79651 10.4268 1.8147 10.4126 1.82471C10.3983 1.8347 10.3792 1.83405 10.3656 1.82318L10.1256 1.65118L9.88562 1.82318C9.87183 1.83289 9.85339 1.83289 9.8396 1.82324C9.82581 1.81354 9.81958 1.79626 9.82397 1.78003L9.92236 1.5L9.68237 1.32318C9.66931 1.31268 9.66406 1.2951 9.66943 1.27924C9.6748 1.26332 9.68963 1.25244 9.70642 1.25201H10.0016L10.0968 0.970398C10.0997 0.954956 10.1132 0.943665 10.1289 0.943237Z" fill="#F5F5F5"/>
<path fill-rule="evenodd" clip-rule="evenodd" d="M22 1H2C1.44772 1 1 1.44772 1 2V14C1 14.5523 1.44772 15 2 15H22C22.5523 15 23 14.5523 23 14V2C23 1.44771 22.5523 1 22 1ZM2 0C0.895386 0 0 0.895447 0 2V14C0 15.1046 0.895431 16 2 16H22C23.1046 16 24 15.1046 24 14V2C24 0.895431 23.1046 0 22 0H2Z" fill="black" fill-opacity="0.08"/>
</g>
</g>
</svg>
