<svg width="24" height="16" viewBox="0 0 24 16" fill="none" xmlns="http://www.w3.org/2000/svg">
<g id="flag-botswana">
<g id="flag">
<path d="M2 0H22C23.1046 0 24 0.895432 24 2V5H0V2C0 0.895432 0.895386 0 2 0Z" fill="#73A9DD"/>
<path d="M0 11V14C0 15.1046 0.895386 16 2 16H22C23.1046 16 24 15.1046 24 14V11H0Z" fill="#73A9DD"/>
<path fill-rule="evenodd" clip-rule="evenodd" d="M22 1H2C1.44772 1 1 1.44772 1 2V14C1 14.5523 1.44772 15 2 15H22C22.5523 15 23 14.5523 23 14V2C23 1.44771 22.5523 1 22 1ZM2 0C0.895386 0 0 0.895432 0 2V14C0 15.1046 0.895386 16 2 16H22C23.1046 16 24 15.1046 24 14V2C24 0.895432 23.1046 0 22 0H2Z" fill="black" fill-opacity="0.08"/>
<path d="M0 5H24V6H0V5Z" fill="white"/>
<path d="M0 10H24V11H0V10Z" fill="white"/>
<path d="M0 6H24V10H0V6Z" fill="#333333"/>
</g>
</g>
</svg>
