<svg width="24" height="16" viewBox="0 0 24 16" fill="none" xmlns="http://www.w3.org/2000/svg">
<g id="flag-cyprus">
<g id="flag">
<path d="M14.8257 5.2328C14.7656 5.28671 14.7103 5.3386 14.6631 5.38576L14.8815 5.16747C14.8608 5.18808 14.8423 5.20992 14.8257 5.2328Z" fill="white"/>
<path fill-rule="evenodd" clip-rule="evenodd" d="M2 0H22C23.1046 0 24 0.895432 24 2V14C24 15.1046 23.1046 16 22 16H2C0.895386 16 0 15.1046 0 14V2C0 0.895432 0.895386 0 2 0ZM17.4138 2.78087C17.5745 2.53986 17.4888 2.45188 17.2218 2.58537L14.9886 3.70197C14.7109 3.84083 14.274 4.00147 13.9888 4.07277L12.8883 4.34789C12.6002 4.41992 12.1417 4.43096 11.8578 4.37416L10.2194 4.0465C9.93262 3.98914 9.62964 4.17032 9.5365 4.44991L9.3407 5.03741C9.24609 5.32119 8.93311 5.54366 8.63855 5.54366C8.35266 5.54366 7.93823 5.71069 7.73218 5.91673L7.41162 6.23726C7.2052 6.44366 6.7998 6.61033 6.50525 6.61033H7.03857C6.74695 6.61033 6.50525 6.84911 6.50525 7.14367C6.50525 7.4296 6.67224 7.84402 6.8783 8.05006L7.19885 8.3706C7.40527 8.577 7.78394 8.84965 8.04541 8.98039L9.23181 9.5736C9.49292 9.70415 9.81348 9.59391 9.9469 9.32693L9.99683 9.22706C10.1357 8.94933 10.4774 8.74366 10.772 8.74366C11.0579 8.74366 11.5319 8.66811 11.8115 8.57491L12.399 8.37908C12.6827 8.28449 13.0134 7.99391 13.147 7.72693L13.1969 7.62706C13.3357 7.34933 13.655 7.25188 13.922 7.38536L14.0219 7.4353C14.2996 7.57417 14.6722 7.50997 14.8783 7.30393L15.1989 6.9834C15.4053 6.777 15.4049 6.4433 15.1989 6.23726L14.8783 5.91673C14.6924 5.73081 14.6754 5.44044 14.8257 5.2328C15.0299 5.04963 15.2896 4.84307 15.4758 4.71886L16.2014 4.23513C16.4424 4.07446 16.769 3.74792 16.9301 3.50646L17.4138 2.78087ZM12.8386 12.477C12.8386 13.0293 12.3909 13.477 11.8386 13.477C11.2864 13.477 10.8386 13.0293 10.8386 12.477C10.8386 11.9247 11.2864 11.477 11.8386 11.477C12.3909 11.477 12.8386 11.9247 12.8386 12.477ZM15.0345 10.2129L15.095 10.1052C15.2267 9.8417 15.547 9.73491 15.8104 9.86664C16.074 9.99836 16.1807 10.3187 16.049 10.5822C15.8094 11.0614 15.405 11.4657 14.8865 11.8114C14.6072 11.9977 14.311 12.1555 14.0153 12.287L13.8196 12.3702C13.7317 12.4057 13.6597 12.4321 13.6073 12.4496C13.3279 12.5428 13.0258 12.3918 12.9326 12.1123C12.8395 11.8329 12.9905 11.5308 13.27 11.4377L13.3624 11.404C13.4203 11.3816 13.4949 11.351 13.582 11.3123C13.8262 11.2038 14.0702 11.0737 14.2948 10.9239C14.625 10.7038 14.8794 10.4631 15.0345 10.2129ZM7.86658 9.86664C8.13 9.73491 8.45044 9.8417 8.58215 10.1052C8.72656 10.394 9.00488 10.6723 9.38232 10.9239C9.60693 11.0737 9.85083 11.2038 10.0951 11.3123C10.1332 11.3292 10.1688 11.3446 10.2018 11.3585C10.2441 11.3762 10.282 11.3914 10.3146 11.404L10.4071 11.4377C10.6865 11.5308 10.8375 11.8329 10.7444 12.1123C10.6512 12.3918 10.3492 12.5428 10.0698 12.4496C10.0173 12.4321 9.94531 12.4057 9.85754 12.3702L9.66187 12.287C9.36597 12.1555 9.06995 11.9977 8.79065 11.8114C8.27197 11.4657 7.86768 11.0614 7.62805 10.5822C7.49634 10.3187 7.60315 9.99836 7.86658 9.86664Z" fill="white"/>
<path fill-rule="evenodd" clip-rule="evenodd" d="M17.2218 2.58537C17.4888 2.45188 17.5745 2.53986 17.4138 2.78087L16.9301 3.50646C16.769 3.74792 16.4424 4.07446 16.2014 4.23513L15.4758 4.71886C15.2344 4.87984 14.8698 5.17908 14.6624 5.38653L14.8815 5.16747C14.6737 5.37524 14.6719 5.71033 14.8783 5.91673L15.1989 6.23726C15.4049 6.4433 15.4053 6.777 15.1989 6.9834L14.8783 7.30393C14.6722 7.50997 14.2996 7.57417 14.0219 7.4353L13.922 7.38536C13.655 7.25188 13.3357 7.34933 13.1969 7.62706L13.147 7.72693C13.0134 7.99391 12.6827 8.28449 12.399 8.37908L11.8115 8.57491C11.5319 8.66811 11.0579 8.74366 10.772 8.74366C10.4774 8.74366 10.1357 8.94933 9.99683 9.22706L9.9469 9.32693C9.81348 9.59391 9.49292 9.70415 9.23181 9.5736L8.04541 8.98039C7.78394 8.84965 7.40527 8.577 7.19885 8.3706L6.8783 8.05006C6.67224 7.84402 6.50525 7.4296 6.50525 7.14367C6.50525 6.84911 6.74695 6.61033 7.03857 6.61033H6.50525C6.7998 6.61033 7.2052 6.44366 7.41162 6.23726L7.73218 5.91673C7.93823 5.71069 8.35266 5.54366 8.63855 5.54366C8.93311 5.54366 9.24609 5.32119 9.3407 5.03741L9.5365 4.44991C9.62964 4.17032 9.93262 3.98914 10.2194 4.0465L11.8578 4.37416C12.1417 4.43096 12.6002 4.41992 12.8883 4.34789L13.9888 4.07277C14.274 4.00147 14.7109 3.84083 14.9886 3.70197L15.0885 3.65203C15.3555 3.51854 15.7776 3.3075 16.0553 3.16863L16.1552 3.1187C16.4222 2.98521 16.8442 2.77417 17.122 2.6353L17.2218 2.58537Z" fill="#E7832C"/>
<path d="M11.8386 13.477C12.3909 13.477 12.8386 13.0293 12.8386 12.477C12.8386 11.9247 12.3909 11.477 11.8386 11.477C11.2864 11.477 10.8386 11.9247 10.8386 12.477C10.8386 13.0293 11.2864 13.477 11.8386 13.477Z" fill="#445128"/>
<path d="M15.0345 10.2129L15.095 10.1052C15.2267 9.8417 15.547 9.73491 15.8104 9.86664C16.074 9.99836 16.1807 10.3187 16.049 10.5822C15.8094 11.0614 15.405 11.4657 14.8865 11.8114C14.6072 11.9977 14.311 12.1555 14.0153 12.287L13.8196 12.3702C13.7317 12.4057 13.6597 12.4321 13.6073 12.4496C13.3279 12.5428 13.0258 12.3918 12.9326 12.1123C12.8395 11.8329 12.9905 11.5308 13.27 11.4377L13.3624 11.404C13.4203 11.3816 13.4949 11.351 13.582 11.3123C13.8262 11.2038 14.0702 11.0737 14.2948 10.9239C14.625 10.7038 14.8794 10.4631 15.0345 10.2129Z" fill="#737D5E"/>
<path d="M8.58215 10.1052C8.45044 9.8417 8.13 9.73491 7.86658 9.86664C7.60315 9.99836 7.49634 10.3187 7.62805 10.5822C7.86768 11.0614 8.27197 11.4657 8.79065 11.8114C9.06995 11.9977 9.36597 12.1555 9.66187 12.287L9.85754 12.3702C9.94531 12.4057 10.0173 12.4321 10.0698 12.4496C10.3492 12.5428 10.6512 12.3918 10.7444 12.1123C10.8375 11.8329 10.6865 11.5308 10.4071 11.4377L10.3146 11.404C10.2567 11.3816 10.1822 11.351 10.0951 11.3123C9.85083 11.2038 9.60693 11.0737 9.38232 10.9239C9.00488 10.6723 8.72656 10.394 8.58215 10.1052Z" fill="#737D5E"/>
<path fill-rule="evenodd" clip-rule="evenodd" d="M22 1H2C1.44772 1 1 1.44772 1 2V14C1 14.5523 1.44772 15 2 15H22C22.5523 15 23 14.5523 23 14V2C23 1.44771 22.5523 1 22 1ZM2 0C0.895386 0 0 0.895432 0 2V14C0 15.1046 0.895386 16 2 16H22C23.1046 16 24 15.1046 24 14V2C24 0.895432 23.1046 0 22 0H2Z" fill="black" fill-opacity="0.08"/>
</g>
</g>
</svg>
