<svg width="24" height="16" viewBox="0 0 24 16" fill="none" xmlns="http://www.w3.org/2000/svg">
<g id="flag-benin">
<g id="flag">
<path d="M24 14V8H8V16H22C23.1046 16 24 15.1046 24 14Z" fill="#EB0624"/>
<path d="M24 2C24 0.89543 23.1046 0 22 0H8V8H24V2Z" fill="#FDD200"/>
<path d="M0 2C0 0.895431 0.895431 0 2 0H8V16H2C0.895431 16 0 15.1046 0 14V2Z" fill="#00884F"/>
<path fill-rule="evenodd" clip-rule="evenodd" d="M22 1H2C1.44772 1 1 1.44772 1 2V14C1 14.5523 1.44772 15 2 15H22C22.5523 15 23 14.5523 23 14V2C23 1.44771 22.5523 1 22 1ZM2 0C0.895431 0 0 0.895431 0 2V14C0 15.1046 0.895431 16 2 16H22C23.1046 16 24 15.1046 24 14V2C24 0.89543 23.1046 0 22 0H2Z" fill="black" fill-opacity="0.08"/>
</g>
</g>
</svg>
