<svg width="24" height="16" viewBox="0 0 24 16" fill="none" xmlns="http://www.w3.org/2000/svg">
<g id="flag-aruba">
<g id="flag">
<path d="M22 0H2C0.89543 0 4.99999e-08 0.89543 4.99999e-08 2V14C4.99999e-08 15.1046 0.89543 16 2 16H22C23.1046 16 24 15.1046 24 14V2C24 0.89543 23.1046 0 22 0Z" fill="#3D87E0"/>
<path fill-rule="evenodd" clip-rule="evenodd" d="M0 10H24V11H0V10ZM0 12H24V13H0V12Z" fill="#FAD800"/>
<path fill-rule="evenodd" clip-rule="evenodd" d="M22 1H2C1.44772 1 1 1.44772 1 2V14C1 14.5523 1.44772 15 2 15H22C22.5523 15 23 14.5523 23 14V2C23 1.44771 22.5523 1 22 1ZM2 0C0.89543 0 4.99999e-08 0.89543 4.99999e-08 2V14C4.99999e-08 15.1046 0.89543 16 2 16H22C23.1046 16 24 15.1046 24 14V2C24 0.89543 23.1046 0 22 0H2Z" fill="black" fill-opacity="0.08"/>
<path d="M4.72001 3.28003L6.27529 3.77115C6.49893 3.84177 6.49893 4.15825 6.27529 4.22887L4.72001 4.72003L4.22887 6.27529C4.15825 6.49893 3.84178 6.49893 3.77115 6.27529L3.28001 4.72003L1.72473 4.22887C1.5011 4.15825 1.5011 3.84177 1.72474 3.77115L3.28001 3.28003L3.77115 1.72474C3.84177 1.5011 4.15825 1.5011 4.22887 1.72474L4.72001 3.28003Z" fill="white"/>
<path d="M4.48001 3.52001L5.93434 3.88359C6.05554 3.91389 6.05554 4.08612 5.93434 4.11642L4.48001 4.48001L4.11643 5.93434C4.08613 6.05553 3.91389 6.05553 3.8836 5.93434L3.52001 4.48001L2.06568 4.11642C1.94449 4.08612 1.94449 3.91389 2.06568 3.88359L3.52001 3.52001L3.8836 2.06568C3.91389 1.94448 4.08613 1.94448 4.11643 2.06567L4.48001 3.52001Z" fill="#D4062F"/>
</g>
</g>
</svg>
