<svg width="24" height="16" viewBox="0 0 24 16" fill="none" xmlns="http://www.w3.org/2000/svg">
<g id="flag-euro">
<g id="flag">
<path d="M22 0H2C0.89543 0 0 0.89543 0 2V14C0 15.1046 0.89543 16 2 16H22C23.1046 16 24 15.1046 24 14V2C24 0.89543 23.1046 0 22 0Z" fill="#0D47A1"/>
<path d="M12.0671 12.6713L12.233 13.1766L12.7574 13.1808C12.8253 13.1813 12.8534 13.2693 12.7988 13.3103L12.3769 13.6268L12.5351 14.1347C12.5556 14.2004 12.4819 14.2549 12.4266 14.2147L12 13.9049L11.5734 14.2147C11.5182 14.2548 11.4445 14.2004 11.4649 14.1347L11.6231 13.6268L11.2012 13.3103C11.1466 13.2693 11.1747 13.1813 11.2427 13.1808L11.7671 13.1766L11.933 12.6713C11.9544 12.6058 12.0456 12.6058 12.0671 12.6713ZM9.48298 11.8239L9.64891 12.3293L10.1733 12.3334C10.2412 12.334 10.2694 12.422 10.2147 12.463L9.79287 12.7794L9.95102 13.2874C9.97151 13.3531 9.89782 13.4075 9.84255 13.3674L9.41595 13.0576L8.98934 13.3674C8.93412 13.4075 8.86038 13.3531 8.88087 13.2874L9.03902 12.7794L8.61715 12.463C8.56254 12.422 8.59066 12.334 8.65859 12.3334L9.18298 12.3294L9.34891 11.824C9.37038 11.7584 9.46155 11.7584 9.48298 11.8239ZM14.6894 11.8239C14.7109 11.7584 14.802 11.7584 14.8235 11.824L14.9894 12.3294L15.5138 12.3334C15.5817 12.334 15.6099 12.422 15.5553 12.463L15.1334 12.7794L15.2915 13.2874C15.312 13.3531 15.2383 13.4075 15.1831 13.3674L14.7565 13.0576L14.3299 13.3674C14.2746 13.4075 14.2009 13.3531 14.2214 13.2874L14.3795 12.7794L13.9577 12.463C13.9031 12.422 13.9312 12.334 13.9991 12.3334L14.5235 12.3293L14.6894 11.8239ZM16.7783 9.83807L16.9442 10.3434L17.4686 10.3476C17.5365 10.3481 17.5646 10.4361 17.51 10.4771L17.0882 10.7936L17.2463 11.3015C17.2668 11.3673 17.1931 11.4217 17.1379 11.3815L16.7112 11.0717L16.2846 11.3815C16.2294 11.4216 16.1557 11.3673 16.1762 11.3015L16.3343 10.7936L15.9124 10.4771C15.8578 10.4361 15.886 10.3481 15.9539 10.3476L16.4783 10.3434L16.6442 9.83807C16.6657 9.77269 16.7568 9.77269 16.7783 9.83807ZM7.5081 9.80668L7.52824 9.83807L7.69418 10.3434L8.21857 10.3476C8.27291 10.348 8.30177 10.4044 8.28319 10.4479L8.26001 10.4771L7.83813 10.7936L7.99629 11.3015C8.01268 11.3541 7.96876 11.3994 7.92227 11.3949L7.88782 11.3815L7.46121 11.0717L7.0346 11.3815C6.99039 11.4137 6.93439 11.3853 6.92424 11.3389L6.92613 11.3015L7.08429 10.7936L6.66241 10.4771C6.61873 10.4443 6.62799 10.3814 6.66822 10.3573L6.70385 10.3476L7.22824 10.3434L7.39418 9.83807C7.41135 9.78576 7.47308 9.7753 7.5081 9.80668ZM17.4076 7.24592L17.5735 7.7513L18.0979 7.75545C18.1658 7.75597 18.1939 7.84397 18.1393 7.88497L17.7175 8.20145L17.8756 8.70935C17.8961 8.77507 17.8224 8.82954 17.7671 8.7894L17.3405 8.47959L16.9139 8.7894C16.8587 8.82949 16.785 8.77511 16.8055 8.70935L16.9636 8.20145L16.5417 7.88497C16.4871 7.84397 16.5153 7.75597 16.5832 7.75545L17.1076 7.7513L17.2735 7.24592C17.2949 7.18054 17.3861 7.18054 17.4076 7.24592ZM6.72649 7.24592L6.89243 7.7513L7.41682 7.75545C7.48474 7.75597 7.51287 7.84397 7.45826 7.88497L7.03638 8.20145L7.19454 8.70935C7.21502 8.77507 7.14134 8.82954 7.08607 8.7894L6.65946 8.47959L6.23285 8.7894C6.17763 8.82949 6.1039 8.77511 6.12438 8.70935L6.28254 8.20145L5.86066 7.88497C5.80605 7.84397 5.83418 7.75597 5.9021 7.75545L6.42649 7.7513L6.59243 7.24592C6.6139 7.18054 6.70507 7.18054 6.72649 7.24592ZM7.52824 4.41278L7.69418 4.91816L8.21857 4.9223C8.28649 4.92283 8.31462 5.01083 8.26001 5.05183L7.83813 5.3683L7.99629 5.87621C8.01677 5.94192 7.94309 5.9964 7.88782 5.95626L7.46121 5.64645L7.0346 5.95626C6.97938 5.99635 6.90565 5.94197 6.92613 5.87621L7.08429 5.3683L6.66241 5.05183C6.6078 5.01083 6.63593 4.92283 6.70385 4.9223L7.22824 4.91816L7.39418 4.41278C7.41565 4.34735 7.50673 4.34735 7.52824 4.41278ZM16.7581 4.38137L16.7783 4.41278L16.9442 4.91816L17.4686 4.9223C17.5229 4.92272 17.5518 4.97913 17.5332 5.02266L17.51 5.05183L17.0882 5.3683L17.2463 5.87621C17.2627 5.92882 17.2188 5.97414 17.1723 5.96964L17.1379 5.95626L16.7112 5.64645L16.2846 5.95626C16.2404 5.98837 16.1844 5.95993 16.1743 5.91362L16.1762 5.87621L16.3343 5.3683L15.9124 5.05183C15.8688 5.01903 15.878 4.95615 15.9182 4.93204L15.9539 4.9223L16.4783 4.91816L16.6442 4.41278C16.6614 4.36044 16.7231 4.34997 16.7581 4.38137ZM14.8235 2.42697L14.9895 2.93235L15.5139 2.93649C15.5818 2.93702 15.6099 3.02502 15.5553 3.06602L15.1334 3.38249L15.2916 3.8904C15.3121 3.95611 15.2384 4.01059 15.1831 3.97045L14.7565 3.66064L14.3299 3.97045C14.2746 4.01054 14.2009 3.95616 14.2214 3.8904L14.3795 3.38249L13.9577 3.06602C13.9031 3.02502 13.9312 2.93702 13.9991 2.93649L14.5235 2.93235L14.6894 2.42697C14.7109 2.36159 14.802 2.36159 14.8235 2.42697ZM9.46283 2.39559L9.48298 2.42697L9.64891 2.93235L10.1733 2.93649C10.2276 2.93691 10.2565 2.99332 10.2379 3.03685L10.2147 3.06602L9.79287 3.38249L9.95102 3.8904C9.96741 3.94301 9.9235 3.98833 9.87701 3.98383L9.84255 3.97045L9.41595 3.66064L8.98934 3.97045C8.94512 4.00256 8.88912 3.97412 8.87898 3.92781L8.88087 3.8904L9.03902 3.38249L8.61715 3.06602C8.57346 3.03322 8.58272 2.97034 8.62295 2.94623L8.65859 2.93649L9.18298 2.93235L9.34891 2.42697C9.36609 2.37467 9.42781 2.36421 9.46283 2.39559ZM12.0671 1.82064L12.233 2.32602L12.7574 2.33016C12.8253 2.33069 12.8534 2.41868 12.7988 2.45969L12.3769 2.77616L12.5351 3.28407C12.5556 3.34978 12.4819 3.40426 12.4266 3.36411L12 3.0543L11.5734 3.36411C11.5182 3.40421 11.4445 3.34983 11.4649 3.28407L11.6231 2.77616L11.2012 2.45969C11.1466 2.41868 11.1747 2.33069 11.2427 2.33016L11.7671 2.32602L11.933 1.82064C11.9544 1.75521 12.0456 1.75521 12.0671 1.82064Z" fill="#FFD955"/>
<path fill-rule="evenodd" clip-rule="evenodd" d="M22 1H2C1.44772 1 1 1.44772 1 2V14C1 14.5523 1.44772 15 2 15H22C22.5523 15 23 14.5523 23 14V2C23 1.44771 22.5523 1 22 1ZM2 0C0.89543 0 0 0.89543 0 2V14C0 15.1046 0.89543 16 2 16H22C23.1046 16 24 15.1046 24 14V2C24 0.89543 23.1046 0 22 0H2Z" fill="black" fill-opacity="0.08"/>
</g>
</g>
</svg>
