<svg width="24" height="16" viewBox="0 0 24 16" fill="none" xmlns="http://www.w3.org/2000/svg">
<g id="flag-antigua and barbuda">
<g id="flag">
<path d="M15.6923 9H8.30774L12 13L15.6923 9Z" fill="white"/>
<path d="M0.56254 0.609406C0.214297 0.969315 0 1.45963 0 1.99999V14C0 15.1046 0.89543 16 2 16H22C23.1046 16 24 15.1046 24 14V1.99999C24 1.45963 23.7857 0.969315 23.4375 0.609406L12 13L0.56254 0.609406Z" fill="#D0091E"/>
<path d="M19.3846 5H4.61536L8.30774 9H15.6923L19.3846 5Z" fill="#0070C9"/>
<path d="M23.4375 0.609406C23.0738 0.233612 22.5642 0 22 0H2C1.43579 0 0.926188 0.233612 0.56254 0.609406L4.61536 5H19.3846L23.4375 0.609406Z" fill="#333333"/>
<path d="M8.53544 5H15.4646C15.4879 4.8367 15.5 4.66976 15.5 4.5C15.5 2.567 13.933 1 12 1C10.067 1 8.5 2.567 8.5 4.5C8.5 4.66976 8.51208 4.8367 8.53544 5Z" fill="#FDD200"/>
<path fill-rule="evenodd" clip-rule="evenodd" d="M22 1H2C1.44772 1 1 1.44772 1 2V14C1 14.5523 1.44772 15 2 15H22C22.5523 15 23 14.5523 23 14V2C23 1.44771 22.5523 1 22 1ZM2 0C0.895431 0 0 0.895418 0 1.99999V14C0 15.1046 0.89543 16 2 16H22C23.1046 16 24 15.1046 24 14V1.99999C24 0.895418 23.1046 0 22 0H2Z" fill="black" fill-opacity="0.08"/>
</g>
</g>
</svg>
