<svg width="24" height="16" viewBox="0 0 24 16" fill="none" xmlns="http://www.w3.org/2000/svg">
<g id="flag-angola">
<g id="flag">
<path d="M0 8H24V14C24 15.1046 23.1046 16 22 16H2C0.89543 16 0 15.1046 0 14V8Z" fill="#333333"/>
<path d="M2 0H22C23.1046 0 24 0.89543 24 2V8H0V2C0 0.89543 0.89543 0 2 0Z" fill="#D0091E"/>
<path fill-rule="evenodd" clip-rule="evenodd" d="M22 1H2C1.44772 1 1 1.44772 1 2V14C1 14.5523 1.44772 15 2 15H22C22.5523 15 23 14.5523 23 14V2C23 1.44771 22.5523 1 22 1ZM2 0C0.89543 0 0 0.89543 0 2V14C0 15.1046 0.89543 16 2 16H22C23.1046 16 24 15.1046 24 14V2C24 0.89543 23.1046 0 22 0H2Z" fill="black" fill-opacity="0.08"/>
<path fill-rule="evenodd" clip-rule="evenodd" d="M14.3805 9.95801C14.8145 9.37601 15.0705 8.65401 15.0705 7.87201C15.0705 6.40501 14.1675 5.14901 12.8875 4.62801L12.2825 5.47501C13.3165 5.78201 14.0705 6.73901 14.0705 7.87201C14.0705 8.46601 13.8635 9.01201 13.5175 9.44001L10.0705 7.37201L12.7665 10.068C12.4115 10.262 12.0035 10.372 11.5705 10.372C10.7305 10.372 9.9875 9.95801 9.5345 9.32201L8.9295 10.169C9.5705 10.906 10.5155 11.372 11.5705 11.372C12.2805 11.372 12.9425 11.16 13.4945 10.796L14.0705 11.372L15.0705 10.372L14.3805 9.95801ZM10.0705 5.37201H11.0705V6.37201H10.0705V5.37201Z" fill="#FAD800"/>
</g>
</g>
</svg>
