<svg width="24" height="16" viewBox="0 0 24 16" fill="none" xmlns="http://www.w3.org/2000/svg">
<g id="flag-bolivia">
<g id="flag">
<path d="M0 11H24V14C24 15.1046 23.1046 16 22 16H2C0.89543 16 0 15.1046 0 14V11Z" fill="#007A30"/>
<path d="M24 5H0V11H24V5Z" fill="#FFE200"/>
<path fill-rule="evenodd" clip-rule="evenodd" d="M10.5 7.5H11.5V8.5H10.5V7.5ZM12.5 7.5H13.5V8.5H12.5V7.5Z" fill="#009BBE"/>
<path fill-rule="evenodd" clip-rule="evenodd" d="M13.5 7.5H14.5V9.5H13.5V7.5ZM12.5 6.5H13.5V7.5H12.5V6.5ZM10.5 6.5H11.5V7.5H10.5V6.5ZM9.5 7.5H10.5V9.5H9.5V7.5Z" fill="#D7280F"/>
<path fill-rule="evenodd" clip-rule="evenodd" d="M11.5 8.5H12.5V9.5H11.5V8.5Z" fill="#007B30"/>
<path fill-rule="evenodd" clip-rule="evenodd" d="M11.5 6.5H12.5V7.5H11.5V6.5Z" fill="#3F291F"/>
<path fill-rule="evenodd" clip-rule="evenodd" d="M12.5 8.5H13.5V9.5H12.5V8.5ZM10.5 8.5H11.5V9.5H10.5V8.5Z" fill="#EAA400"/>
<path fill-rule="evenodd" clip-rule="evenodd" d="M11.5 7.5H12.5V8.5H11.5V7.5Z" fill="#3B5B27"/>
<path d="M2 0H22C23.1046 0 24 0.89543 24 2V5H0V2C0 0.89543 0.89543 0 2 0Z" fill="#D7280F"/>
<path fill-rule="evenodd" clip-rule="evenodd" d="M22 1H2C1.44772 1 1 1.44772 1 2V14C1 14.5523 1.44772 15 2 15H22C22.5523 15 23 14.5523 23 14V2C23 1.44771 22.5523 1 22 1ZM2 0C0.89543 0 0 0.89543 0 2V14C0 15.1046 0.89543 16 2 16H22C23.1046 16 24 15.1046 24 14V2C24 0.89543 23.1046 0 22 0H2Z" fill="black" fill-opacity="0.08"/>
</g>
</g>
</svg>
