<svg width="24" height="16" viewBox="0 0 24 16" fill="none" xmlns="http://www.w3.org/2000/svg">
<g id="flag-norway">
<g id="flag">
<path d="M10.7587 5.89818H24V6.73891H9.93103V0.0131378H10.7587V5.89818Z" fill="white"/>
<path d="M7.44824 0.0131378H6.62073V5.89818H0V6.73891H7.44824V0.0131378Z" fill="white"/>
<path d="M0 9.26109V10.1018H6.62073V15.9868H7.44824V9.26109H0Z" fill="white"/>
<path d="M9.93103 15.9868H10.7587V10.1018H24V9.26109H9.93103V15.9868Z" fill="white"/>
<path d="M22 0C23.1046 0 24 0.895432 24 2V5.89818H10.7587V0.0131378L22 0Z" fill="#F44336"/>
<path d="M6.62073 5.89818V0.0131378L2 0C0.895386 0 0 0.895432 0 2V5.89818H6.62073Z" fill="#F44336"/>
<path d="M0 14V10.1018H6.62073V15.9868L2 16C0.895386 16 0 15.1046 0 14Z" fill="#F44336"/>
<path d="M24 14C24 15.1046 23.1046 16 22 16L10.7587 15.9868V10.1018H24V14Z" fill="#F44336"/>
<path d="M24 6.73891H9.93103V0.0131378H7.44824V6.73891H0V9.26109H7.44824V15.9868H9.93103V9.26109H24V6.73891Z" fill="#0D47A1"/>
<path fill-rule="evenodd" clip-rule="evenodd" d="M22 1H2C1.44772 1 1 1.44772 1 2V14C1 14.5523 1.44772 15 2 15H22C22.5523 15 23 14.5523 23 14V2C23 1.44771 22.5523 1 22 1ZM2 0C0.895386 0 0 0.895432 0 2V14C0 15.1046 0.895386 16 2 16H22C23.1046 16 24 15.1046 24 14V2C24 0.895432 23.1046 0 22 0H2Z" fill="black" fill-opacity="0.08"/>
</g>
</g>
</svg>
