<svg width="24" height="16" viewBox="0 0 24 16" fill="none" xmlns="http://www.w3.org/2000/svg">
<g id="flag-netherlands antilles">
<g id="flag">
<path d="M15 0H9V5H15V0Z" fill="#DC171D"/>
<path d="M15 11H9V16H15V11Z" fill="#DC171D"/>
<path d="M15 0H22C23.1046 0 24 0.895431 24 2V5H15V0Z" fill="white"/>
<path d="M0 2C0 0.89543 0.895431 0 2 0H9V5H0V2Z" fill="white"/>
<path d="M0 11H9V16H2C0.89543 16 0 15.1046 0 14V11Z" fill="white"/>
<path d="M15 11H24V14C24 15.1046 23.1046 16 22 16H15V11Z" fill="white"/>
<path fill-rule="evenodd" clip-rule="evenodd" d="M22 1H2C1.44772 1 1 1.44772 1 2V14C1 14.5523 1.44772 15 2 15H22C22.5523 15 23 14.5523 23 14V2C23 1.44771 22.5523 1 22 1ZM2 0C0.895431 0 0 0.89543 0 2V14C0 15.1046 0.89543 16 2 16H22C23.1046 16 24 15.1046 24 14V2C24 0.895431 23.1046 0 22 0H2Z" fill="black" fill-opacity="0.08"/>
<path d="M24 5H0V11H24V5Z" fill="#012A87"/>
<path d="M9.5 7.5H8.5V8.5H9.5V7.5Z" fill="white"/>
<path d="M11.5 9H10.5V10H11.5V9Z" fill="white"/>
<path d="M13.5 9H12.5V10H13.5V9Z" fill="white"/>
<path d="M15.5 7.5H14.5V8.5H15.5V7.5Z" fill="white"/>
<path d="M11.5 6H10.5V7H11.5V6Z" fill="white"/>
<path d="M13.5 6H12.5V7H13.5V6Z" fill="white"/>
</g>
</g>
</svg>
