<svg width="24" height="16" viewBox="0 0 24 16" fill="none" xmlns="http://www.w3.org/2000/svg">
<g id="flag-turkey">
<g id="flag">
<path d="M22 0H2C0.89543 0 0 0.89543 0 2V14C0 15.1046 0.89543 16 2 16H22C23.1046 16 24 15.1046 24 14V2C24 0.89543 23.1046 0 22 0Z" fill="#E92434"/>
<path d="M15.0127 8.54165L13.9678 9.28657L14.3533 8.06256L13.322 7.29895L14.6052 7.2874L15.0127 6.07054L15.4203 7.2874L16.7035 7.29895L15.6721 8.06256L16.0577 9.28657L15.0127 8.54165Z" fill="white"/>
<path d="M11 4C12.2823 4 13.4237 4.60342 14.1557 5.54179C13.5912 5.13293 12.8817 4.88889 12.1111 4.88889C10.2702 4.88889 8.77778 6.28178 8.77778 8C8.77778 9.71822 10.2702 11.1111 12.1111 11.1111C12.8817 11.1111 13.5912 10.8671 14.1557 10.4573C13.4237 11.3966 12.2823 12 11 12C8.79086 12 7 10.2091 7 8C7 5.79086 8.79086 4 11 4Z" fill="white"/>
<path fill-rule="evenodd" clip-rule="evenodd" d="M22 1H2C1.44772 1 1 1.44772 1 2V14C1 14.5523 1.44772 15 2 15H22C22.5523 15 23 14.5523 23 14V2C23 1.44771 22.5523 1 22 1ZM2 0C0.89543 0 0 0.89543 0 2V14C0 15.1046 0.89543 16 2 16H22C23.1046 16 24 15.1046 24 14V2C24 0.89543 23.1046 0 22 0H2Z" fill="black" fill-opacity="0.08"/>
</g>
</g>
</svg>
