<svg width="24" height="16" viewBox="0 0 24 16" fill="none" xmlns="http://www.w3.org/2000/svg">
<g id="flag-burkina faso">
<g id="flag">
<path d="M0 8H24V14C24 15.1046 23.1046 16 22 16H2C0.89543 16 0 15.1046 0 14V8Z" fill="#009F45"/>
<path d="M2 0H22C23.1046 0 24 0.89543 24 2V8H0V2C0 0.89543 0.89543 0 2 0Z" fill="#F22722"/>
<path fill-rule="evenodd" clip-rule="evenodd" d="M22 1H2C1.44772 1 1 1.44772 1 2V14C1 14.5523 1.44772 15 2 15H22C22.5523 15 23 14.5523 23 14V2C23 1.44771 22.5523 1 22 1ZM2 0C0.89543 0 0 0.89543 0 2V14C0 15.1046 0.89543 16 2 16H22C23.1046 16 24 15.1046 24 14V2C24 0.89543 23.1046 0 22 0H2Z" fill="black" fill-opacity="0.08"/>
<path fill-rule="evenodd" clip-rule="evenodd" d="M12 10.0835L9.94298 11.1655L10.336 8.8755L8.66998 7.2505L10.97 6.9165L12 4.8335L13.03 6.9175L15.33 7.2515L13.664 8.8745L14.057 11.1665" fill="#FDD200"/>
</g>
</g>
</svg>
