<svg width="24" height="16" viewBox="0 0 24 16" fill="none" xmlns="http://www.w3.org/2000/svg">
<g id="flag-new zealand">
<g id="flag">
<path d="M22 0H2C0.89543 0 4.99999e-08 0.89543 4.99999e-08 2V14C4.99999e-08 15.1046 0.89543 16 2 16H22C23.1046 16 24 15.1046 24 14V2C24 0.89543 23.1046 0 22 0Z" fill="#0D47A1"/>
<path d="M0.413812 8H1.13259L4.96556 5.44886V8H7.03453V5.44886L10.8675 8H11.5862C11.8148 8 12 7.81176 12 7.57962V7.24619L8.71153 5.05748H12V2.95567H8.71148L12 0.766952V0.433524C12 0.201381 11.8148 0.0131429 11.5862 0.0131429H10.8674L7.03444 2.56429V0.0131429H4.96547V2.56429L1.25831 0.0968572C0.825469 0.234952 0.463594 0.535095 0.240609 0.927048L3.28856 2.95567H0V5.05748H3.28852L0 7.24619V7.57962C0 7.81176 0.185297 8 0.413812 8Z" fill="white"/>
<path d="M6.62067 0.0131429V3.37605H12V4.6371H6.62067V8H5.37933V4.6371H0V3.37605H5.37933V0.0131429H6.62067ZM4.95417 5.05748L0.491859 8H0.413812C0.290625 8 0.183398 7.94286 0.10893 7.8551L0.0594844 7.78395L4.19409 5.05748H4.95417ZM8.11847 5.05748L11.9934 7.61262C11.981 7.76676 11.8906 7.897 11.7588 7.95914L7.35844 5.05748H8.11847ZM0.684703 0.405667L4.5517 2.95567H3.79167L0.385641 0.709619C0.473297 0.596762 0.573656 0.494714 0.684703 0.405667ZM11.5862 0.0131429C11.7077 0.0131429 11.8132 0.0688533 11.8875 0.154504L11.937 0.223952L7.79452 2.95567H7.03448L11.4967 0.0131429H11.5862Z" fill="#F44336"/>
<path d="M18.0001 11.489C18.0357 11.489 18.0674 11.5123 18.0787 11.5464L18.2691 12.1265L18.871 12.1314C18.9067 12.1319 18.9381 12.1552 18.9492 12.1897C18.9601 12.2242 18.9481 12.2615 18.9195 12.2833L18.4354 12.6461L18.6171 13.2291C18.6278 13.2636 18.6155 13.3013 18.5867 13.3227C18.572 13.3333 18.5549 13.3387 18.5378 13.3387C18.5211 13.3387 18.5041 13.3333 18.4897 13.3231L18 12.9676L17.5102 13.3231C17.4959 13.3333 17.4789 13.3387 17.4621 13.3387C17.445 13.3387 17.428 13.3333 17.4135 13.3227C17.3848 13.3013 17.3724 13.2636 17.3831 13.2291L17.5648 12.6461L17.0807 12.2833C17.052 12.2615 17.0401 12.2242 17.051 12.1897C17.0621 12.1552 17.0934 12.1318 17.1292 12.1314L17.7311 12.1265L17.9215 11.5464C17.9328 11.5124 17.9645 11.489 18.0001 11.489ZM15.1036 7.65433C15.1392 7.65433 15.1709 7.67771 15.1822 7.71181L15.3726 8.29186L15.9745 8.29638C16.0101 8.29681 16.0416 8.32019 16.0527 8.35467C16.0636 8.38871 16.0516 8.42648 16.023 8.44824L15.5389 8.81152L15.7206 9.39448C15.7313 9.42895 15.719 9.46671 15.6902 9.48805C15.6755 9.49876 15.6583 9.5041 15.6413 9.5041C15.6243 9.5041 15.6076 9.49871 15.5932 9.48848L15.1035 9.13257L14.6137 9.48848C14.5994 9.49871 14.5824 9.5041 14.5656 9.5041C14.5486 9.5041 14.5315 9.49871 14.517 9.48805C14.4883 9.46671 14.4759 9.42895 14.4866 9.39448L14.6683 8.81152L14.1842 8.44824C14.1555 8.42648 14.1436 8.38871 14.1545 8.35467C14.1656 8.32019 14.1971 8.29676 14.2327 8.29638L14.8346 8.29186L15.025 7.71181C15.0363 7.67776 15.068 7.65433 15.1036 7.65433ZM20.8967 6.81362C20.9323 6.81362 20.964 6.837 20.9753 6.8711L21.1657 7.45114L21.7676 7.45567C21.8032 7.4561 21.8347 7.47948 21.8458 7.51395C21.8567 7.548 21.8447 7.58576 21.8161 7.60752L21.332 7.97081L21.5137 8.55376C21.5243 8.58824 21.5121 8.626 21.4833 8.64733C21.4686 8.658 21.4514 8.66338 21.4344 8.66338C21.4174 8.66338 21.4007 8.658 21.3863 8.64776L20.8966 8.29186L20.4068 8.64776C20.3925 8.658 20.3755 8.66338 20.3587 8.66338C20.3417 8.66338 20.3246 8.658 20.31 8.64733C20.2814 8.626 20.269 8.58824 20.2797 8.55376L20.4614 7.97081L19.9773 7.60752C19.9486 7.58576 19.9367 7.548 19.9476 7.51395C19.9587 7.47948 19.9902 7.45605 20.0258 7.45567L20.6277 7.45114L20.8181 6.8711C20.8294 6.83705 20.8611 6.81362 20.8967 6.81362ZM18.0001 4.71186C18.0357 4.71186 18.0674 4.73524 18.0787 4.76933L18.2691 5.34938L18.871 5.3539C18.9066 5.35433 18.9381 5.37771 18.9492 5.41219C18.9601 5.44624 18.9481 5.484 18.9195 5.50576L18.4354 5.86905L18.6171 6.452C18.6278 6.48648 18.6155 6.52424 18.5867 6.54557C18.572 6.55624 18.5549 6.56157 18.5378 6.56157C18.5209 6.56157 18.5041 6.55619 18.4897 6.54595L18 6.1901L17.5102 6.546C17.4959 6.55624 17.4789 6.56162 17.4621 6.56162C17.4451 6.56162 17.428 6.55624 17.4135 6.54557C17.3848 6.52424 17.3724 6.48648 17.3831 6.452L17.5648 5.86905L17.0807 5.50576C17.052 5.484 17.0401 5.44624 17.051 5.41219C17.0621 5.37771 17.0936 5.35429 17.1292 5.3539L17.7311 5.34938L17.9215 4.76933C17.9328 4.73529 17.9645 4.71186 18.0001 4.71186Z" fill="#F44336"/>
<path fill-rule="evenodd" clip-rule="evenodd" d="M22 1H2C1.44772 1 1 1.44772 1 2V14C1 14.5523 1.44772 15 2 15H22C22.5523 15 23 14.5523 23 14V2C23 1.44771 22.5523 1 22 1ZM2 0C0.89543 0 4.99999e-08 0.89543 4.99999e-08 2V14C4.99999e-08 15.1046 0.89543 16 2 16H22C23.1046 16 24 15.1046 24 14V2C24 0.89543 23.1046 0 22 0H2Z" fill="black" fill-opacity="0.08"/>
</g>
</g>
</svg>
