<svg width="128" height="80" viewBox="0 0 128 80" fill="none" xmlns="http://www.w3.org/2000/svg">
<g id="logo / payment method / onlinenaira / white">
<g id="logo">
<path d="M20.6497 27.4836C19.5236 27.1685 18.3363 27 17.1096 27C9.86936 27 4 32.8694 4 40.1096C4 45.671 7.46307 50.4236 12.3504 52.3286L12.3552 52.3053L12.3732 52.3311L12.7349 50.4704L12.8738 49.7991C12.8712 49.798 12.8686 49.7968 12.866 49.7957L14.9951 38.8409L19.6469 46.4529H21.7614L24.7197 32.7707C26.5538 34.6721 27.6818 37.2591 27.6818 40.1096C27.6818 45.9485 22.9485 50.6818 17.1096 50.6818C16.5321 50.6818 15.9654 50.6355 15.413 50.5464L14.8761 53.0297C15.6019 53.1543 16.3482 53.2192 17.1096 53.2192C24.3498 53.2192 30.2192 47.3498 30.2192 40.1096C30.2192 35.0309 27.3312 30.6267 23.108 28.4497L23.0977 28.4378L23.0964 28.4438L23.092 28.4415L23.0657 28.5834L20.0698 42.224L15.8409 34.612H13.3036L10.5463 48.3984C8.10391 46.4619 6.53734 43.4687 6.53734 40.1096C6.53734 34.2707 11.2707 29.5373 17.1096 29.5373C18.1665 29.5373 19.1872 29.6924 20.1502 29.9811L20.6497 27.4836Z" fill="white"/>
<path d="M46.963 39.9081C46.963 41.0864 46.7593 42.1216 46.3518 43.0137C45.9444 43.9002 45.3607 44.583 44.6008 45.062C43.8464 45.5356 42.9764 45.7724 41.9908 45.7724C41.0161 45.7724 40.1461 45.5356 39.3807 45.062C38.6209 44.583 38.0317 43.9029 37.6132 43.0219C37.2002 42.1409 36.991 41.125 36.9855 39.9741V39.2969C36.9855 38.124 37.192 37.0888 37.6049 36.1913C38.0234 35.2937 38.6099 34.6082 39.3642 34.1346C40.1241 33.6556 40.9941 33.416 41.9743 33.416C42.9544 33.416 43.8216 33.6528 44.576 34.1264C45.3359 34.5944 45.9223 35.2717 46.3353 36.1582C46.7483 37.0392 46.9575 38.0662 46.963 39.239V39.9081ZM44.8734 39.2803C44.8734 37.9478 44.6201 36.9264 44.1135 36.216C43.6124 35.5057 42.8993 35.1506 41.9743 35.1506C41.0712 35.1506 40.3636 35.5057 39.8515 36.216C39.345 36.9209 39.0862 37.9203 39.0751 39.2143V39.9081C39.0751 41.2296 39.3312 42.251 39.8433 42.9724C40.3609 43.6937 41.0767 44.0544 41.9908 44.0544C42.9158 44.0544 43.6262 43.702 44.1217 42.9971C44.6228 42.2923 44.8734 41.2626 44.8734 39.9081V39.2803Z" fill="white"/>
<path d="M50.7129 36.6703L50.7707 37.7028C51.4315 36.9043 52.2987 36.5051 53.3725 36.5051C55.2336 36.5051 56.1807 37.5706 56.2138 39.7016V45.6072H54.2067V39.8172C54.2067 39.2501 54.0828 38.8316 53.835 38.5618C53.5927 38.2864 53.1935 38.1488 52.6374 38.1488C51.8279 38.1488 51.225 38.515 50.8285 39.2473V45.6072H48.8214V36.6703H50.7129Z" fill="white"/>
<path d="M60.4014 45.6072H58.3943V32.9205H60.4014V45.6072Z" fill="white"/>
<path d="M64.7294 45.6072H62.7223V36.6703H64.7294V45.6072ZM62.5984 34.3494C62.5984 34.041 62.6948 33.785 62.8875 33.5812C63.0857 33.3775 63.3665 33.2756 63.73 33.2756C64.0934 33.2756 64.3742 33.3775 64.5724 33.5812C64.7707 33.785 64.8698 34.041 64.8698 34.3494C64.8698 34.6522 64.7707 34.9055 64.5724 35.1093C64.3742 35.3075 64.0934 35.4066 63.73 35.4066C63.3665 35.4066 63.0857 35.3075 62.8875 35.1093C62.6948 34.9055 62.5984 34.6522 62.5984 34.3494Z" fill="white"/>
<path d="M68.7848 36.6703L68.8426 37.7028C69.5034 36.9043 70.3707 36.5051 71.4444 36.5051C73.3056 36.5051 74.2527 37.5706 74.2857 39.7016V45.6072H72.2786V39.8172C72.2786 39.2501 72.1547 38.8316 71.9069 38.5618C71.6647 38.2864 71.2654 38.1488 70.7093 38.1488C69.8999 38.1488 69.2969 38.515 68.9005 39.2473V45.6072H66.8934V36.6703H68.7848Z" fill="white"/>
<path d="M80.2739 45.7724C79.0019 45.7724 77.9695 45.3732 77.1765 44.5747C76.3891 43.7708 75.9954 42.7026 75.9954 41.37V41.1222C75.9954 40.2302 76.1661 39.4345 76.5075 38.7352C76.8544 38.0304 77.339 37.4825 77.9612 37.0916C78.5834 36.7006 79.2772 36.5051 80.0426 36.5051C81.2595 36.5051 82.1984 36.8933 82.8591 37.6697C83.5254 38.4461 83.8585 39.5446 83.8585 40.9653V41.7747H78.019C78.0796 42.5126 78.3246 43.0963 78.7541 43.5258C79.1891 43.9553 79.7343 44.17 80.3895 44.17C81.3091 44.17 82.058 43.7983 82.6361 43.055L83.7181 44.0874C83.3602 44.6215 82.8812 45.0373 82.281 45.3346C81.6863 45.6264 81.0173 45.7724 80.2739 45.7724ZM80.0344 38.1157C79.4837 38.1157 79.0377 38.3085 78.6963 38.6939C78.3604 39.0794 78.1457 39.6162 78.0521 40.3045H81.8762V40.1559C81.8322 39.4841 81.6532 38.9775 81.3394 38.6361C81.0255 38.2892 80.5905 38.1157 80.0344 38.1157Z" fill="white"/>
<path d="M95.1576 45.6072H93.068L87.7075 37.075V45.6072H85.6178V33.5812H87.7075L93.0845 42.1464V33.5812H95.1576V45.6072Z" fill="white"/>
<path d="M102.773 45.6072C102.685 45.4365 102.608 45.1584 102.542 44.773C101.903 45.4392 101.121 45.7724 100.196 45.7724C99.2984 45.7724 98.5661 45.5163 97.9989 45.0042C97.4318 44.4921 97.1482 43.8589 97.1482 43.1045C97.1482 42.1519 97.5006 41.4223 98.2054 40.9157C98.9157 40.4036 99.9289 40.1476 101.245 40.1476H102.476V39.5612C102.476 39.0986 102.346 38.7297 102.087 38.4544C101.829 38.1736 101.435 38.0331 100.906 38.0331C100.449 38.0331 100.075 38.1488 99.783 38.38C99.4911 38.6058 99.3452 38.8949 99.3452 39.2473H97.3382C97.3382 38.7572 97.5006 38.3002 97.8255 37.8762C98.1504 37.4467 98.5909 37.1108 99.147 36.8685C99.7087 36.6263 100.334 36.5051 101.022 36.5051C102.068 36.5051 102.902 36.7694 103.525 37.298C104.147 37.8212 104.466 38.559 104.483 39.5116V43.5423C104.483 44.3462 104.596 44.9877 104.821 45.4668V45.6072H102.773ZM100.568 44.1617C100.964 44.1617 101.336 44.0654 101.683 43.8727C102.035 43.6799 102.299 43.4211 102.476 43.0963V41.4113H101.394C100.65 41.4113 100.091 41.5407 99.7169 41.7995C99.3425 42.0583 99.1553 42.4245 99.1553 42.898C99.1553 43.2835 99.2819 43.5918 99.5352 43.8231C99.794 44.0489 100.138 44.1617 100.568 44.1617Z" fill="white"/>
<path d="M108.72 45.6072H106.713V36.6703H108.72V45.6072ZM106.589 34.3494C106.589 34.041 106.685 33.785 106.878 33.5812C107.076 33.3775 107.357 33.2756 107.72 33.2756C108.084 33.2756 108.365 33.3775 108.563 33.5812C108.761 33.785 108.86 34.041 108.86 34.3494C108.86 34.6522 108.761 34.9055 108.563 35.1093C108.365 35.3075 108.084 35.4066 107.72 35.4066C107.357 35.4066 107.076 35.3075 106.878 35.1093C106.685 34.9055 106.589 34.6522 106.589 34.3494Z" fill="white"/>
<path d="M115.592 38.5039C115.328 38.4599 115.055 38.4379 114.774 38.4379C113.855 38.4379 113.235 38.7903 112.916 39.4951V45.6072H110.909V36.6703H112.825L112.874 37.6697C113.359 36.8933 114.031 36.5051 114.89 36.5051C115.176 36.5051 115.413 36.5437 115.6 36.6208L115.592 38.5039Z" fill="white"/>
<path d="M121.952 45.6072C121.864 45.4365 121.786 45.1584 121.72 44.773C121.082 45.4392 120.3 45.7724 119.375 45.7724C118.477 45.7724 117.745 45.5163 117.178 45.0042C116.61 44.4921 116.327 43.8589 116.327 43.1045C116.327 42.1519 116.679 41.4223 117.384 40.9157C118.094 40.4036 119.108 40.1476 120.424 40.1476H121.654V39.5612C121.654 39.0986 121.525 38.7297 121.266 38.4544C121.007 38.1736 120.614 38.0331 120.085 38.0331C119.628 38.0331 119.254 38.1488 118.962 38.38C118.67 38.6058 118.524 38.8949 118.524 39.2473H116.517C116.517 38.7572 116.679 38.3002 117.004 37.8762C117.329 37.4467 117.77 37.1108 118.326 36.8685C118.887 36.6263 119.512 36.5051 120.201 36.5051C121.247 36.5051 122.081 36.7694 122.703 37.298C123.326 37.8212 123.645 38.559 123.661 39.5116V43.5423C123.661 44.3462 123.774 44.9877 124 45.4668V45.6072H121.952ZM119.746 44.1617C120.143 44.1617 120.515 44.0654 120.861 43.8727C121.214 43.6799 121.478 43.4211 121.654 43.0963V41.4113H120.572C119.829 41.4113 119.27 41.5407 118.896 41.7995C118.521 42.0583 118.334 42.4245 118.334 42.898C118.334 43.2835 118.461 43.5918 118.714 43.8231C118.973 44.0489 119.317 44.1617 119.746 44.1617Z" fill="white"/>
</g>
</g>
</svg>
