<svg width="128" height="80" viewBox="0 0 128 80" fill="none" xmlns="http://www.w3.org/2000/svg">
<g id="logo / payment method / vodafone / brand">
<g id="logo">
<path d="M29.257 50.462C32.0317 47.6874 33.5904 43.9241 33.5904 40.0002C33.5904 36.0762 32.0317 32.3129 29.257 29.5383C28.0442 28.3255 26.6425 27.3449 25.1211 26.6254C23.7757 26.9254 22.5701 27.6688 21.6978 28.7365C20.8223 29.8081 20.3339 31.1437 20.3116 32.5273C20.3116 32.6275 20.3116 32.7277 20.3259 32.7707C24.8353 33.8658 26.8753 36.5858 26.8896 40.3509C26.8868 41.3935 26.6781 42.4254 26.2754 43.3871C25.8727 44.3489 25.284 45.2216 24.5431 45.9552C23.8022 46.6888 22.9237 47.2688 21.958 47.6619C20.9923 48.0551 19.9584 48.2536 18.9158 48.246C14.8502 48.2603 10.6199 44.7959 10.5984 39.2199C10.5913 35.5336 12.5811 31.9905 15.115 29.8861C17.5988 27.8318 20.9916 26.5219 24.0694 26.5075C24.4126 26.4946 24.7558 26.5293 25.0894 26.6104C23.1385 25.6934 20.9921 25.2048 18.7952 25.2048C14.8713 25.2048 11.1081 26.7636 8.33342 29.5383C5.55878 32.3129 4 36.0762 4 40.0002C4 43.9241 5.55878 47.6874 8.33342 50.462C11.1081 53.2367 14.8713 54.7955 18.7952 54.7955C22.7192 54.7955 26.4824 53.2367 29.257 50.462Z" fill="#EE3023"/>
<path d="M43.1452 46.1269L38.6286 35.3257H41.5848L44.4122 42.4979L47.1464 35.3257H49.9666L45.5717 46.1269H43.1452ZM57.8331 40.6726C57.8363 40.2381 57.7834 39.8051 57.6756 39.3842C57.5845 39.0117 57.4242 38.6596 57.2032 38.3463C57.004 38.0622 56.745 37.8253 56.4445 37.652C56.1238 37.471 55.7604 37.3795 55.3923 37.3871C55.0241 37.3792 54.6606 37.4707 54.3401 37.652C54.0363 37.8236 53.7747 38.0608 53.5742 38.3463C53.3548 38.6623 53.197 39.0169 53.1089 39.3913C53.0017 39.8099 52.9488 40.2405 52.9514 40.6726C52.9478 41.1071 53.0008 41.5402 53.1089 41.961C53.199 42.3324 53.3515 42.6857 53.5599 43.0061C53.7579 43.308 54.0291 43.555 54.3482 43.724C54.6673 43.8929 55.024 43.9784 55.3851 43.9724C55.746 43.9834 56.1035 43.9 56.4224 43.7305C56.7412 43.5611 57.0104 43.3114 57.2032 43.0061C57.4211 42.691 57.5811 42.3395 57.6756 41.9682C57.7844 41.545 57.8373 41.1095 57.8331 40.6726ZM60.5602 40.6798C60.5603 41.3841 60.4517 42.0843 60.2381 42.7555C60.0299 43.4178 59.7024 44.0363 59.2718 44.5808C58.81 45.1616 58.2185 45.626 57.5448 45.9368C56.871 46.2476 56.1338 46.396 55.3923 46.3703C54.6499 46.3944 53.9122 46.2452 53.2376 45.9346C52.5629 45.624 51.9699 45.1605 51.5056 44.5808C51.0759 44.0357 50.7485 43.4173 50.5392 42.7555C50.1139 41.4117 50.1139 39.9693 50.5392 38.6255C50.7487 37.9703 51.0762 37.359 51.5056 36.8217C51.9425 36.284 52.4923 35.849 53.1161 35.5476C53.8267 35.2107 54.606 35.044 55.3923 35.0608C56.1291 35.0405 56.8609 35.1885 57.532 35.4936C58.203 35.7987 58.7956 36.253 59.2646 36.8217C59.6941 37.3513 60.0234 37.9526 60.2381 38.6255C60.4528 39.2983 60.5602 39.9854 60.5602 40.6798ZM68.9062 37.7092C68.432 37.5095 67.9246 37.4002 67.4102 37.3871C67.0081 37.3677 66.6075 37.4492 66.2449 37.6242C65.8823 37.7992 65.5694 38.0622 65.3345 38.3892C65.1084 38.7034 64.9388 39.0547 64.8334 39.4271C64.7224 39.8109 64.667 40.2087 64.6688 40.6082C64.6663 41.0418 64.7144 41.4741 64.812 41.8966C64.898 42.2782 65.0507 42.6417 65.2629 42.9703C65.4562 43.2727 65.7156 43.5272 66.0216 43.7147C66.3223 43.9008 66.6873 44.001 67.0953 44.001C67.4641 43.9928 67.8254 43.8945 68.1475 43.7147C68.4562 43.5692 68.7188 43.3413 68.9062 43.0562V37.7092ZM69.1281 46.1269L69.0207 45.2966C68.7356 45.6064 68.3959 45.8612 68.0187 46.0482C67.4716 46.2822 66.8791 46.3908 66.2845 46.3661C65.69 46.3413 65.1086 46.1838 64.5829 45.905C64.0193 45.5949 63.5306 45.1649 63.1513 44.6452C62.7508 44.0988 62.4503 43.4856 62.2638 42.8343C62.0627 42.1363 61.9615 41.4133 61.9631 40.6869C61.9631 39.9783 62.0633 39.2911 62.2709 38.6183C62.4728 37.965 62.7958 37.3556 63.2229 36.8217C63.6843 36.2496 64.2724 35.7928 64.9407 35.4872C65.6091 35.1816 66.3394 35.0356 67.0738 35.0608C67.6465 35.0608 68.2549 35.1682 68.9062 35.3758V31.1884H71.6835V46.1269H69.1281ZM79.4998 41.0591C78.8875 41.1001 78.278 41.1766 77.6746 41.2882C77.0733 41.4099 76.6581 41.6103 76.4219 41.9038C76.2008 42.1718 76.0794 42.5082 76.0784 42.8558C76.0784 43.2136 76.2072 43.5 76.472 43.7147C76.7927 43.9495 77.1847 44.0658 77.5815 44.044C77.9394 44.044 78.2973 43.9724 78.6337 43.8221C78.9519 43.6832 79.2447 43.4921 79.4998 43.2566V41.0591ZM79.7217 46.1126L79.6143 45.3109C79.2969 45.6546 78.9052 45.9215 78.4691 46.0911C77.5519 46.4541 76.5336 46.4694 75.6059 46.1341C74.9399 45.912 74.3627 45.482 73.9594 44.9073C73.5561 44.3326 73.3479 43.6435 73.3655 42.9417C73.3563 42.4689 73.4569 42.0005 73.6593 41.5733C73.8618 41.146 74.1606 40.7716 74.5323 40.4793C74.9079 40.1871 75.3253 39.9531 75.7706 39.785C76.6231 39.4827 77.5107 39.2903 78.4118 39.2124L79.4855 39.1122V38.9547C79.4855 38.3606 79.328 37.9383 79.0202 37.6806C78.6535 37.408 78.2023 37.2737 77.7461 37.3012C76.9349 37.3053 76.1448 37.5603 75.4843 38.0313C75.3399 38.123 75.2013 38.2234 75.0691 38.332L74.1458 36.385C74.5887 36.049 75.075 35.7745 75.5916 35.569C76.9371 35.0098 78.4304 34.9141 79.8362 35.297C80.3196 35.4481 80.7619 35.708 81.1292 36.0567C81.4965 36.4053 81.7789 36.8335 81.9549 37.3084C82.1701 37.9071 82.272 38.5406 82.2556 39.1766V46.1197L79.7217 46.1126ZM90.8378 33.6507C90.3431 33.4292 89.8049 33.3216 89.2631 33.3358C88.8837 33.3358 88.5545 33.4503 88.2968 33.6865C88.0319 33.9156 87.9031 34.2949 87.9031 34.8175V35.3257H90.2365V37.5661H87.9246V46.1269H85.1473V37.5661H83.7158V35.3257H85.1473V34.753C85.1473 34.0444 85.2404 33.4503 85.4193 32.9636C85.5654 32.5276 85.8118 32.132 86.1388 31.8087C86.4658 31.4855 86.8642 31.2436 87.3018 31.1025C88.5772 30.7619 89.9286 30.8448 91.1527 31.3387L90.8378 33.6507ZM98.4108 40.6726C98.4127 40.2382 98.3598 39.8053 98.2533 39.3842C98.1622 39.0117 98.0019 38.6596 97.7809 38.3463C97.5817 38.0622 97.3227 37.8253 97.0222 37.652C96.7015 37.471 96.3381 37.3795 95.97 37.3871C95.6018 37.3792 95.2383 37.4707 94.9178 37.652C94.6149 37.8248 94.3535 38.0618 94.1519 38.3463C93.9322 38.663 93.7721 39.0172 93.6795 39.3913C93.4616 40.2365 93.4616 41.1231 93.6795 41.9682C93.7738 42.3371 93.9286 42.6878 94.1376 43.0061C94.3333 43.3014 94.5956 43.5465 94.9034 43.7219C95.2308 43.8984 95.5982 43.9871 95.97 43.9795C96.3304 43.9885 96.6869 43.9035 97.0044 43.7328C97.322 43.5621 97.5896 43.3116 97.7809 43.0061C97.9988 42.691 98.1588 42.3395 98.2533 41.9682C98.3607 41.5448 98.4136 41.1094 98.4108 40.6726ZM101.138 40.6798C101.139 41.3842 101.031 42.0846 100.816 42.7555C100.609 43.4183 100.281 44.037 99.8495 44.5808C99.3877 45.1616 98.7962 45.626 98.1225 45.9368C97.4487 46.2476 96.7115 46.396 95.97 46.3703C95.2276 46.3944 94.4899 46.2452 93.8153 45.9346C93.1406 45.624 92.5476 45.1605 92.0833 44.5808C91.6536 44.0357 91.3262 43.4173 91.117 42.7555C90.6859 41.4126 90.6859 39.9684 91.117 38.6255C91.3242 37.9708 91.6493 37.3595 92.0761 36.8217C92.5151 36.2832 93.0674 35.8482 93.6938 35.5476C94.4044 35.2107 95.1837 35.044 95.97 35.0608C96.7068 35.0405 97.4387 35.1885 98.1097 35.4936C98.7807 35.7987 99.3733 36.253 99.8423 36.8217C100.272 37.3513 100.601 37.9526 100.816 38.6255C101.031 39.2983 101.138 39.9854 101.138 40.6798ZM109.763 46.1269V39.9711C109.806 39.2948 109.625 38.6231 109.248 38.06C109.08 37.8413 108.863 37.6661 108.614 37.549C108.365 37.4319 108.091 37.3764 107.816 37.3871C107.391 37.3823 106.974 37.499 106.614 37.7236C106.268 37.9327 105.948 38.1826 105.662 38.468V46.1269H102.884V35.3257H105.418L105.547 36.1846C106.421 35.4561 107.523 35.0583 108.661 35.0608C109.233 35.0608 109.756 35.1467 110.236 35.3185C110.703 35.4876 111.123 35.7676 111.46 36.1345C111.81 36.5067 112.075 36.9935 112.261 37.5876C112.447 38.1888 112.54 38.9046 112.54 39.7349V46.1269H109.763ZM121.18 39.4271C121.159 39.0912 121.079 38.7616 120.944 38.4537C120.833 38.1999 120.672 37.9711 120.471 37.7808C120.124 37.4598 119.67 37.281 119.197 37.2798C118.69 37.2889 118.202 37.4793 117.823 37.8166C117.594 38.0205 117.409 38.268 117.277 38.5445C117.146 38.8211 117.071 39.1212 117.057 39.4271H121.18ZM116.992 41.4242C117.05 42.3332 117.336 42.9918 117.851 43.3926C118.419 43.8145 119.113 44.0292 119.82 44.001C120.48 44.0002 121.135 43.8789 121.752 43.6431C121.979 43.5534 122.199 43.4482 122.411 43.3282C122.555 43.246 122.69 43.1475 122.812 43.0347L123.556 45.2966C123.135 45.5815 122.674 45.8034 122.189 45.9551C121.303 46.2269 120.382 46.3668 119.455 46.3703C118.772 46.3727 118.095 46.2589 117.451 46.0339C116.825 45.8155 116.255 45.461 115.783 44.996C115.283 44.495 114.893 43.8953 114.638 43.2351C114.335 42.4354 114.189 41.5848 114.208 40.7299C114.208 39.8137 114.344 39.012 114.602 38.3105C114.922 37.3489 115.542 36.5148 116.37 35.9302C117.198 35.3455 118.191 35.0409 119.204 35.0608C119.857 35.0543 120.505 35.1684 121.115 35.3973C121.695 35.6191 122.196 35.9699 122.619 36.4351C123.048 36.9076 123.384 37.516 123.628 38.2676C123.878 39.012 124 39.8996 124 40.9303V41.4242H116.992Z" fill="#EE3023"/>
</g>
</g>
</svg>
