<svg width="128" height="80" viewBox="0 0 128 80" fill="none" xmlns="http://www.w3.org/2000/svg">
<g id="logo / payment method / 10 coins / brand">
<path id="logo" d="M64 37.9446C63.6477 38.4051 63.19 38.7742 62.6653 39.0208C62.1405 39.2674 61.5643 39.3843 60.9849 39.3616C58.7839 39.3616 57.4271 38.035 57.4271 35.8943C57.4271 33.7536 58.7538 32.4873 60.9548 32.4873C62.1608 32.4571 63.2764 32.9998 64 33.9345L64.2111 34.236L67.4673 31.6732L67.2261 31.3717C66.4172 30.4919 65.4264 29.7988 64.3226 29.3406C63.2187 28.8824 62.0283 28.6701 60.8342 28.7184C56.1608 28.7184 53.1457 31.5526 53.1457 35.8943C53.1457 40.236 56.1608 43.1305 60.8342 43.1305C63.5477 43.1305 65.6884 42.226 67.2261 40.5074L67.4673 40.2059L64.2111 37.6431L64 37.9446ZM76.6935 28.7184C72.0804 28.7184 68.8543 31.6732 68.8543 35.9245C68.8543 40.1456 72.0804 43.1305 76.6935 43.1305C81.3065 43.1305 84.5327 40.1757 84.5327 35.9245C84.5327 31.7033 81.3367 28.6883 76.6935 28.6883V28.7184ZM76.6935 39.3918C74.5226 39.3918 73.1357 38.035 73.1357 35.9245C73.1357 33.8139 74.5829 32.4571 76.6935 32.4571C78.8643 32.4571 80.2814 33.8139 80.2814 35.9245C80.2814 38.035 78.8643 39.3918 76.6935 39.3918ZM87.6683 28.9898H91.8894V42.8591H87.6683V28.9898ZM104.884 35.7737L97.7387 28.9596H95.5075V42.829H99.608V36.0752L106.724 42.8893H108.955V28.9898H104.884V35.7737ZM119.176 34.1456C117.276 33.7536 116.372 33.5425 116.372 32.9998C116.372 32.3968 117.427 32.3365 117.879 32.3365C119.146 32.3365 120.412 32.638 121.618 33.0903L121.92 33.2109L123.638 29.9244L123.307 29.7737C121.592 29.0461 119.741 28.6965 117.879 28.7486C114.201 28.7486 112.121 30.3767 112.121 33.2712C112.121 36.4672 114.955 37.2511 117.608 37.7637C119.387 38.0652 119.719 38.3667 119.719 38.7888C119.719 38.9998 119.719 39.6029 118.09 39.6029C116.583 39.5426 115.075 39.1807 113.688 38.5174L113.387 38.3667L111.789 41.7134L112.09 41.8642C114.02 42.7687 116.1 43.1908 118.211 43.1305C123.005 43.1305 124 40.628 124 38.5174C124 35.5023 121.678 34.628 119.176 34.1456ZM16.0905 46.3868C17.5708 50.1244 20.3083 53.2288 23.8313 55.1651C27.3543 57.1015 31.4423 57.7487 35.3912 56.9951C39.34 56.2416 42.9025 54.1346 45.4649 51.0369C48.0273 47.9393 49.4292 44.0451 49.4292 40.025C49.4292 36.0049 48.0273 32.1106 45.4649 29.013C42.9025 25.9154 39.34 23.8083 35.3912 23.0548C31.4423 22.3012 27.3543 22.9484 23.8313 24.8848C20.3083 26.8212 17.5708 29.9255 16.0905 33.6631V23.5325H4V56.4873H16.1206V46.3868H16.0905ZM27.9397 29.0199H30.4422V31.1305C31.0754 31.04 31.7387 30.9797 32.3719 31.0099H32.9447V29.0199H35.4472V31.3717C37.3035 31.8239 38.9766 32.834 40.2412 34.2662L36.804 36.9797C36.3115 36.3224 35.6683 35.793 34.9284 35.4362C34.1886 35.0794 33.3738 34.9056 32.5528 34.9295C29.4774 34.9295 27.5477 36.7385 27.5477 39.7536C27.5477 42.7687 29.4774 44.6682 32.5226 44.6682C33.3461 44.7004 34.1652 44.5337 34.9105 44.182C35.6558 43.8304 36.3053 43.3042 36.804 42.6481L40.2412 45.3617C38.9817 46.8147 37.2919 47.8286 35.4171 48.2561V50.4873H32.9447V48.5878H32.402C31.7387 48.5878 31.1055 48.5576 30.4724 48.4672V50.4873H27.9397V47.7737C24.804 46.4471 22.9347 43.6431 22.9347 39.7536C22.9347 35.8642 24.804 33.1204 27.9397 31.7938V29.0199ZM60.0201 51.1204C60.0201 49.1908 61.5276 47.8039 63.4874 47.8039C63.9825 47.7868 64.475 47.8809 64.929 48.0792C65.3829 48.2774 65.7866 48.5749 66.1105 48.9496L65.1759 49.824C64.9093 49.4923 64.5462 49.2519 64.1369 49.1359C63.7275 49.0198 63.2922 49.0341 62.8913 49.1765C62.4904 49.319 62.1438 49.5827 61.8994 49.931C61.6551 50.2793 61.5251 50.695 61.5276 51.1204C61.5251 51.5459 61.6551 51.9616 61.8994 52.3099C62.1438 52.6582 62.4904 52.9219 62.8913 53.0644C63.2922 53.2068 63.7275 53.221 64.1369 53.105C64.5462 52.989 64.9093 52.7486 65.1759 52.4169L66.1105 53.2913C65.4472 54.0451 64.4824 54.4672 63.4874 54.4069C61.4975 54.4069 60.0201 53.0501 60.0201 51.0903V51.1204ZM74.8543 54.3164L73.5879 52.5074H72.2311V54.3164H70.7538V47.9245H73.5276C75.2161 47.9245 76.3015 48.829 76.3015 50.2461C76.3316 51.1506 75.8191 51.9345 74.9749 52.2662L76.4221 54.3164H74.8543ZM73.4372 49.1305H72.2311V51.3617H73.4372C74.3417 51.3617 74.794 50.9395 74.794 50.2461C74.794 49.5526 74.3417 49.1305 73.4372 49.1305ZM84.0804 52.0551V54.3164H82.603V52.025L80.1306 47.9245H81.6985L83.4171 50.7586L85.1055 47.9245H86.5829L84.0804 52.0551ZM96.3216 50.2461C96.3216 51.6632 95.2362 52.5375 93.5477 52.5375H92.2513V54.3164H90.7739V47.9245H93.5477C95.2362 47.9245 96.3216 48.829 96.3216 50.2461ZM94.8141 50.2461C94.8141 49.5225 94.3618 49.1305 93.4573 49.1305H92.2513V51.3315H93.4573C94.3618 51.3315 94.8141 50.9395 94.8141 50.2461ZM102.171 49.1305H100.121V47.9245H105.698V49.1305H103.648V54.3164H102.141L102.171 49.1305ZM109.618 51.1204C109.618 49.2209 111.126 47.8039 113.116 47.8039C115.136 47.8039 116.613 49.1908 116.613 51.1204C116.613 53.0501 115.106 54.437 113.116 54.437C111.126 54.437 109.618 53.0199 109.618 51.1204ZM115.136 51.1204C115.124 50.731 114.998 50.3535 114.773 50.035C114.549 49.7164 114.236 49.4707 113.873 49.3284C113.51 49.1862 113.114 49.1535 112.733 49.2346C112.352 49.3156 112.003 49.5068 111.729 49.7843C111.456 50.0619 111.27 50.4137 111.194 50.796C111.119 51.1783 111.157 51.5743 111.305 51.935C111.453 52.2956 111.703 52.6049 112.025 52.8246C112.347 53.0443 112.726 53.1646 113.116 53.1707C113.386 53.1793 113.655 53.1319 113.906 53.0316C114.157 52.9312 114.384 52.7799 114.574 52.5874C114.764 52.3948 114.912 52.1651 115.008 51.9126C115.105 51.6602 115.148 51.3905 115.136 51.1204Z" fill="black"/>
</g>
</svg>
