<svg width="228" height="72" viewBox="0 0 228 72" fill="none" xmlns="http://www.w3.org/2000/svg">
<g id="logo / deriv product / deriv x / black / logo wordmark" clip-path="url(#clip0_203_294)">
<g id="logo">
<path d="M0 13.5C0 6.04416 6.04416 0 13.5 0H58.5C65.9558 0 72 6.04416 72 13.5V58.5C72 65.9558 65.9558 72 58.5 72H13.5C6.04416 72 0 65.9558 0 58.5V13.5Z" fill="#414652"/>
<path d="M13.5 0C6.04416 0 0 6.04416 0 13.5V13.8921L67.3075 3.26845C64.9433 1.2315 61.8655 0 58.5 0H13.5Z" fill="#303541"/>
<path d="M68.6969 4.65243L56.3498 71.9999L58.5 72C65.9558 72 72 65.9558 72 58.5V13.5C72 10.1155 70.7545 7.02183 68.6969 4.65243Z" fill="#303541"/>
<path d="M21.4745 42.8984C21.7055 42.9194 21.968 42.9404 22.262 42.9614C22.577 42.9614 22.9445 42.9614 23.3645 42.9614C25.8215 42.9614 27.638 42.3419 28.814 41.1029C30.011 39.8639 30.6095 38.1524 30.6095 35.9684C30.6095 33.6794 30.0425 31.9469 28.9085 30.7709C27.7745 29.5949 25.979 29.0069 23.522 29.0069C23.186 29.0069 22.8395 29.0174 22.4825 29.0384C22.1255 29.0384 21.7895 29.0594 21.4745 29.1014V42.8984ZM35.681 35.9684C35.681 37.8584 35.3871 39.5069 34.799 40.9139C34.211 42.3209 33.371 43.4864 32.279 44.4104C31.208 45.3344 29.8955 46.0274 28.3415 46.4894C26.7875 46.9514 25.0445 47.1824 23.1125 47.1824C22.2305 47.1824 21.2015 47.1404 20.0255 47.0564C18.8495 46.9934 17.6945 46.8464 16.5605 46.6154V25.3529C17.6945 25.1429 18.8705 25.0064 20.0885 24.9434C21.3275 24.8594 22.388 24.8174 23.27 24.8174C25.139 24.8174 26.8295 25.0274 28.3415 25.4474C29.8745 25.8674 31.187 26.5289 32.279 27.4319C33.371 28.3349 34.211 29.4899 34.799 30.8969C35.3871 32.3039 35.681 33.9944 35.681 35.9684Z" fill="#FF444F"/>
<path d="M49.5479 46.8989C48.9389 45.6809 48.2669 44.4524 47.5319 43.2134C46.8179 41.9534 45.9884 40.6724 45.0434 39.3704C44.7494 39.7484 44.3714 40.2734 43.9094 40.9454C43.4684 41.6174 43.0169 42.3314 42.5549 43.0874C42.1139 43.8434 41.6939 44.5679 41.2949 45.2609C40.8959 45.9539 40.6019 46.4999 40.4129 46.8989H34.8059C35.7299 45.1979 36.8009 43.4129 38.0189 41.5439C39.2579 39.6749 40.6334 37.6904 42.1454 35.5904L35.1209 25.0694H41.0744L45.3269 31.8734L49.4849 25.0694H55.0919L48.1619 35.6534C49.9259 37.9424 51.4064 40.0634 52.6034 42.0164C53.8004 43.9484 54.7454 45.5759 55.4384 46.8989H49.5479Z" fill="#FF444F"/>
</g>
<g id="wordmark">
<path fill-rule="evenodd" clip-rule="evenodd" d="M108.739 19.4929L106.967 29.5438H100.815C95.0752 29.5438 89.6045 34.1939 88.5905 39.9334L88.1614 42.3764C87.1521 48.116 90.9816 52.7662 96.7211 52.7662H101.852C106.035 52.7662 110.02 49.3798 110.756 45.1967L115.482 18.4089L108.739 19.4929ZM104.374 44.2487C104.147 45.5409 102.984 46.5927 101.692 46.5927H98.5745C95.9948 46.5927 94.2687 44.4986 94.7214 41.9142L94.9903 40.3909C95.4477 37.8111 97.9095 35.7125 100.489 35.7125H105.879L104.374 44.2487Z" fill="#414652"/>
<path d="M156.118 52.7678H162.503L166.54 29.8661H160.155L156.118 52.7678Z" fill="#414652"/>
<path d="M156.331 32.8517L156.331 32.8464C156.491 31.9409 156.651 31.0354 156.811 30.1299C150.259 28.4416 145.155 30.1883 143.077 31.0489C143.077 31.0489 140.112 47.8528 139.245 52.7732H145.634C146.671 46.8926 147.708 41.0106 148.744 35.13C149.703 34.9388 152.824 34.6394 155.849 35.5795C156.009 34.6702 156.17 33.7609 156.331 32.8517Z" fill="#414652"/>
<path fill-rule="evenodd" clip-rule="evenodd" d="M130.914 29.5414H125.948C121.104 29.5414 116.487 33.4653 115.634 38.3087L114.629 44.0011C113.776 48.8446 117.006 52.7685 121.85 52.7685H132.423L133.508 46.6139H123.571C121.958 46.6139 120.878 45.3075 121.166 43.6899L121.199 43.4965H137.219L138.134 38.3087C138.988 33.4653 135.757 29.5414 130.914 29.5414ZM131.725 37.8183L131.687 38.1484H122.161L122.213 37.856C122.5 36.2431 123.972 34.8235 125.589 34.8235H129.31C130.909 34.8235 131.989 36.2195 131.725 37.8183Z" fill="#414652"/>
<path d="M177.639 44.9718C180.538 39.7556 183.734 32.912 185.066 29.8661H191.461C189.284 35.6536 184.296 45.4985 179.463 52.7678H173.073C170.855 45.8492 169.423 36.2093 169.149 29.8661H175.54C175.655 31.9352 176.581 39.6101 177.639 44.9718Z" fill="#414652"/>
<path d="M218.585 53.5911C217.671 51.7641 216.663 49.9213 215.561 48.0628C214.49 46.1728 213.246 44.2513 211.828 42.2983C211.387 42.8653 210.82 43.6528 210.127 44.6608C209.465 45.6688 208.788 46.7398 208.095 47.8738C207.434 49.0078 206.804 50.0946 206.205 51.1341C205.607 52.1736 205.166 52.9926 204.882 53.5911H196.472C197.858 51.0396 199.464 48.3621 201.291 45.5586C203.15 42.7551 205.213 39.7783 207.481 36.6283L196.944 20.8468H205.874L212.253 31.0528L218.49 20.8468H226.901L216.506 36.7228C219.152 40.1563 221.373 43.3378 223.168 46.2673C224.964 49.1653 226.381 51.6066 227.421 53.5911H218.585Z" fill="#414652"/>
</g>
</g>
<defs>
<clipPath id="clip0_203_294">
<rect width="228" height="72" fill="white"/>
</clipPath>
</defs>
</svg>
