<svg width="128" height="80" viewBox="0 0 128 80" fill="none" xmlns="http://www.w3.org/2000/svg">
<g id="logo / payment method / giropay / white">
<g id="logo">
<path fill-rule="evenodd" clip-rule="evenodd" d="M25.1004 33.6065H29.0963V44.8751C29.0963 50.1097 26.5523 51.8014 21.4108 51.8014C19.3063 51.8014 17.5614 51.3618 16.5358 50.9888L16.7622 47.5124C18.1075 48.1784 19.2397 48.5646 21.0778 48.5646C23.6219 48.5646 24.9938 47.3659 24.9938 44.8751V44.1824H24.9406C23.8883 45.6743 22.4231 46.3669 20.6516 46.3669C17.1618 46.3669 14.9774 43.7162 14.9774 39.9467C14.9774 36.1506 16.7622 33.3135 20.7315 33.3135C22.6096 33.3135 24.1281 34.3391 25.0604 35.9108H25.1004V33.6065ZM22.0235 36.6967C20.3719 36.6967 19.5194 38.1353 19.5194 39.8801C19.5194 41.8648 20.6915 42.9837 22.0235 42.9837C23.5819 42.9837 24.834 41.665 24.834 39.707C24.834 38.2818 24.0082 36.6967 22.0235 36.6967Z" fill="white"/>
<path d="M32.1332 28.2919H36.5421V31.5286H32.1332V28.2919Z" fill="white"/>
<path d="M36.5421 46.3669H32.1332V33.6065H36.5421V46.3669Z" fill="white"/>
<path d="M47.3178 33.3135C47.824 33.3135 48.3701 33.3934 48.8096 33.46L48.5965 37.1496C48.1037 37.0031 47.6242 37.0031 47.1047 37.0031C45.0534 37.0031 43.8946 38.4949 43.8946 40.999V46.3802H39.4858V33.6198H43.495V35.9641H43.5483C44.3075 34.3391 45.4131 33.3135 47.3178 33.3135Z" fill="white"/>
<path fill-rule="evenodd" clip-rule="evenodd" d="M63.821 40C63.821 44.2091 60.6109 46.6599 56.4019 46.6599C52.1795 46.6599 48.9828 44.2091 48.9828 40C48.9828 35.7643 52.1928 33.3135 56.4019 33.3135C60.6109 33.3135 63.821 35.7643 63.821 40ZM53.5381 40C53.5381 41.8781 54.364 43.5697 56.4019 43.5697C58.4265 43.5697 59.2657 41.8781 59.2657 40C59.2657 38.0953 58.4398 36.4037 56.4019 36.4037C54.364 36.4037 53.5381 38.0953 53.5381 40Z" fill="white"/>
<path d="M77.5403 43.2763C79.2053 43.2763 80.2043 41.891 80.2043 39.8531C80.2043 38.1615 79.2453 36.6963 77.5403 36.683C75.9286 36.683 74.8497 38.1082 74.8497 40.0129C74.8497 41.8777 76.0751 43.2763 77.5403 43.2763Z" fill="white"/>
<path d="M93.4308 40.6256C91.939 40.6256 90.7669 41.0918 90.7669 42.3173C90.7669 43.2097 91.5527 43.7158 92.5784 43.7025C94.2433 43.7025 95.2956 42.1841 95.2956 40.6922C95.1801 40.6869 95.0624 40.681 94.9427 40.6749L94.9416 40.6749C94.4679 40.6511 93.9621 40.6256 93.4308 40.6256Z" fill="white"/>
<path fill-rule="evenodd" clip-rule="evenodd" d="M14.1507 14.639C9.10249 14.639 5 18.7148 5 23.7364V56.2766C5 61.2982 9.10249 65.374 14.1507 65.3607H113.849C118.911 65.3607 123 61.2849 123 56.2633V23.7364C123 18.7148 118.897 14.639 113.849 14.639H14.1507ZM8.75605 55.9701V24.0559C8.75605 20.9124 11.3135 18.3683 14.4702 18.3683H66.6971V61.6576H14.4702C11.3135 61.6576 8.75605 59.1136 8.75605 55.9701ZM70.4142 51.5079H74.8364V44.5816H74.8897C75.7288 46.1001 77.3938 46.6595 78.9256 46.6595C82.7217 46.6595 84.7463 43.5294 84.7463 39.7599C84.7463 36.6697 82.815 33.3264 79.2852 33.3264C77.2739 33.3264 75.4225 34.1389 74.5301 35.9238H74.4768V33.6194H70.4142V51.5079ZM99.6645 46.3665L99.6618 46.3531H99.6645V46.3665ZM99.6618 46.3531C99.4643 45.3585 99.4247 44.3507 99.4247 43.3562V38.601C99.4247 34.7117 96.6143 33.3131 93.3509 33.3131C91.4728 33.3131 89.8212 33.5795 88.2627 34.2188L88.3427 37.2025C89.5681 36.5098 90.98 36.2434 92.4052 36.2434C93.9903 36.2434 95.2956 36.7096 95.3222 38.4545C94.7628 38.3613 93.9769 38.2814 93.271 38.2814C90.9267 38.2814 86.691 38.7476 86.691 42.6369C86.691 45.4074 88.9421 46.6462 91.4595 46.6462C93.271 46.6462 94.4964 45.9402 95.4954 44.3419H95.5487C95.5487 44.7506 95.5738 45.1543 95.5993 45.5653C95.6154 45.824 95.6316 46.0856 95.6419 46.3531H99.6618ZM101.636 51.5079C102.542 51.7077 103.447 51.8009 104.38 51.8009C108.183 51.8009 109.254 49.0332 110.412 46.039L110.413 46.0377L110.418 46.0234C110.487 45.8453 110.557 45.6665 110.627 45.4874L115.302 33.6194H110.893L108.269 41.9443H108.229L105.485 33.6194H100.743L105.911 46.6728C105.592 47.805 104.766 48.431 103.687 48.431C103.074 48.431 102.542 48.3511 101.942 48.1646L101.636 51.5079Z" fill="white"/>
</g>
</g>
</svg>
