<svg width="128" height="80" viewBox="0 0 128 80" fill="none" xmlns="http://www.w3.org/2000/svg">
<g id="logo / payment method / bitcoin cash / brand-light">
<g id="wordmark">
<path d="M28.6585 47.6735C27.9058 47.6735 27.15 47.6517 26.4067 47.6017C25.6228 47.5486 24.842 47.4393 24.0737 47.2769V33.941C24.7046 33.8192 25.4073 33.738 26.1631 33.6756C26.9158 33.6131 27.6185 33.585 28.2712 33.585C29.1488 33.585 29.9515 33.6475 30.6854 33.7786C31.4194 33.9004 32.0503 34.1159 32.5812 34.4189C33.1121 34.725 33.5275 35.1216 33.8242 35.6213C34.1209 36.121 34.2739 36.7331 34.2739 37.4546C34.2739 38.5539 33.743 39.4191 32.6843 40.0531C33.5619 40.3779 34.1521 40.837 34.4676 41.3991C34.783 41.9707 34.9454 42.6109 34.9454 43.323C34.9454 44.769 34.4145 45.8496 33.3651 46.5742C32.297 47.3175 30.7417 47.6735 28.6585 47.6735ZM27.0907 39.1473H28.5992C29.558 39.1473 30.2295 39.0255 30.648 38.7819C31.054 38.5383 31.2601 38.1417 31.2601 37.6014C31.2601 37.0423 31.0477 36.6551 30.6292 36.4302C30.2013 36.2053 29.5798 36.0929 28.7647 36.0929C28.4992 36.0929 28.215 36.0929 27.909 36.1023C27.6029 36.1116 27.3374 36.1241 27.0938 36.1522C27.0907 36.1522 27.0907 39.1473 27.0907 39.1473ZM27.0907 41.5116V45.0657C27.3156 45.0969 27.5592 45.1157 27.8246 45.1282C28.0901 45.1407 28.3837 45.15 28.7022 45.15C29.6298 45.15 30.3731 45.0189 30.9447 44.7534C31.5162 44.4879 31.8004 44.0007 31.8004 43.2855C31.8004 42.6546 31.5662 42.1955 31.0883 41.9301C30.6105 41.6552 29.9265 41.5241 29.0395 41.5241H27.0938V41.5116L27.0907 41.5116Z" fill="#4D4D4D"/>
<path d="M39.3553 34.0441C39.3553 34.5844 39.1835 35.0123 38.8244 35.3277C38.4777 35.6432 38.0592 35.7962 37.5814 35.7962C37.1223 35.8024 36.6788 35.6369 36.3383 35.3277C35.9917 35.0123 35.8074 34.5938 35.8074 34.0441C35.8074 33.5038 35.9792 33.0759 36.3383 32.7605C36.6788 32.4544 37.1223 32.2858 37.5814 32.292C38.0405 32.2858 38.4839 32.4513 38.8244 32.7605C39.1804 33.0759 39.3553 33.5038 39.3553 34.0441ZM39.0711 47.5018H36.1166V37.0579H39.0711V47.5018Z" fill="#4D4D4D"/>
<path d="M40.6608 34.4595L43.6153 33.9816V37.0579H47.1694V39.5221H43.6153V43.1887C43.6153 43.8102 43.7277 44.3099 43.9401 44.6753C44.1525 45.0407 44.6022 45.2343 45.2643 45.2343C45.5922 45.2312 45.9202 45.2031 46.2418 45.1438C46.5573 45.0876 46.8665 45.0064 47.1694 44.9002L47.5879 47.2019C47.2007 47.3581 46.8009 47.4861 46.3949 47.5798C45.9576 47.6829 45.4267 47.7422 44.7865 47.7422C43.9807 47.7422 43.3092 47.6298 42.7783 47.4174C42.2473 47.2051 41.8195 46.899 41.504 46.4992C41.1886 46.112 40.9637 45.6341 40.8419 45.0844C40.7108 44.4785 40.6452 43.8602 40.6483 43.2418V34.4595H40.6608Z" fill="#4D4D4D"/>
<path d="M47.591 42.283C47.5848 41.5584 47.7097 40.837 47.9564 40.153C48.1876 39.5065 48.5467 38.9131 49.0152 38.4103C49.4743 37.9106 50.0427 37.5233 50.7048 37.2297C51.3669 36.933 52.1196 36.7925 52.966 36.7925C53.525 36.7925 54.0341 36.8424 54.4932 36.9455C54.9554 37.0455 55.4052 37.1891 55.8393 37.3734L55.2271 39.7376C54.9273 39.6283 54.6212 39.5346 54.3089 39.4628C53.9435 39.3784 53.5719 39.3378 53.1971 39.341C52.3195 39.341 51.6699 39.6158 51.242 40.1561C50.8141 40.6964 50.6018 41.4085 50.6018 42.2955C50.6018 43.2324 50.8048 43.9663 51.2014 44.4754C51.6074 44.9939 52.3132 45.25 53.3095 45.25C53.6968 45.25 54.0809 45.2156 54.462 45.1469C54.8492 45.0876 55.2303 44.9814 55.5925 44.8315L56.011 47.255C55.5925 47.4237 55.1615 47.5486 54.7181 47.6329C54.1528 47.7422 53.5812 47.7985 53.0066 47.7953C52.0478 47.7953 51.2326 47.6517 50.5424 47.3675C49.8491 47.0833 49.29 46.696 48.8403 46.2056C48.3906 45.7153 48.0751 45.1375 47.8721 44.4723C47.6847 43.7571 47.591 43.0232 47.591 42.283Z" fill="#4D4D4D"/>
<path d="M66.1894 42.2642C66.1894 43.0887 66.0676 43.8321 65.8333 44.516C65.5991 45.2 65.2524 45.7778 64.8058 46.2587C64.3498 46.7428 63.797 47.1239 63.1849 47.38C62.5509 47.6454 61.8513 47.7766 61.0768 47.7766C60.3116 47.7766 59.6089 47.6454 58.978 47.38C58.3628 47.127 57.8131 46.7428 57.3571 46.2587C56.9074 45.7809 56.5513 45.1906 56.3077 44.516C56.0516 43.8321 55.9298 43.0794 55.9298 42.2642C55.9298 41.4397 56.061 40.6964 56.3171 40.0218C56.5732 39.3503 56.9292 38.7694 57.3852 38.301C57.8475 37.8231 58.4002 37.4421 59.0155 37.1891C59.6464 36.9236 60.3304 36.7925 61.0737 36.7925C61.8263 36.7925 62.5197 36.9236 63.1506 37.1891C63.7814 37.4546 64.3217 37.82 64.7715 38.301C65.2337 38.7975 65.5929 39.3816 65.8208 40.0218C66.0582 40.6964 66.1894 41.4397 66.1894 42.2642ZM63.1755 42.2642C63.1755 41.346 62.9913 40.634 62.6259 40.1155C62.2605 39.5971 61.7389 39.3316 61.0674 39.3316C60.3959 39.3316 59.865 39.5971 59.4996 40.1155C59.1342 40.634 58.9406 41.3585 58.9406 42.2642C58.9406 43.1824 59.1248 43.9039 59.4996 44.4348C59.865 44.9751 60.3959 45.2406 61.0674 45.2406C61.7389 45.2406 62.2605 44.9751 62.6259 44.4348C62.9913 43.8945 63.1755 43.1699 63.1755 42.2642Z" fill="#4D4D4D"/>
<path d="M70.6149 34.0441C70.6149 34.5844 70.4431 35.0123 70.084 35.3277C69.7373 35.6432 69.3188 35.7962 68.841 35.7962C68.3818 35.8024 67.9384 35.6369 67.5979 35.3277C67.2513 35.0123 67.067 34.5938 67.067 34.0441C67.067 33.5038 67.2388 33.0759 67.5979 32.7605C67.9384 32.4544 68.3818 32.2858 68.841 32.292C69.3001 32.2858 69.7435 32.4513 70.084 32.7605C70.44 33.0759 70.6149 33.5038 70.6149 34.0441ZM70.3401 47.5018H67.3856V37.0579H70.3401V47.5018Z" fill="#4D4D4D"/>
<path d="M72.0203 37.414C72.52 37.2703 73.1728 37.1298 73.966 37.008C74.7906 36.8799 75.6244 36.8143 76.4614 36.8143C77.3484 36.8143 78.0823 36.9268 78.6726 37.161C79.2629 37.3952 79.7314 37.7201 80.0687 38.1386C80.4153 38.5664 80.6589 39.0661 80.8026 39.647C80.9463 40.2279 81.015 40.8807 81.015 41.5928V47.4924H78.0605V41.9488C78.0605 40.99 77.9387 40.3185 77.6826 39.9219C77.4265 39.5252 76.958 39.3316 76.2772 39.3316C76.0648 39.3316 75.8399 39.341 75.6057 39.3628C75.3714 39.3847 75.156 39.4034 74.9748 39.4347V47.4924H72.0203L72.0203 37.414Z" fill="#4D4D4D"/>
<path d="M89.0946 47.7766C86.8521 47.7766 85.1532 47.1551 83.982 45.9121C82.8108 44.6691 82.2299 42.9076 82.2299 40.6152C82.2299 39.4753 82.4142 38.4665 82.7702 37.5701C83.1262 36.6738 83.6166 35.9211 84.2381 35.309C84.8689 34.6906 85.6279 34.2128 86.4586 33.9129C87.3144 33.5975 88.2513 33.4351 89.2601 33.4351C89.841 33.4351 90.3719 33.4757 90.8498 33.5663C91.2745 33.635 91.693 33.7349 92.1022 33.863C92.4082 33.9567 92.7081 34.0722 92.9985 34.2096C93.2327 34.3314 93.4045 34.422 93.517 34.4845L92.6206 36.9799C92.149 36.7363 91.6556 36.5457 91.1434 36.4083C90.5843 36.2459 89.9409 36.1741 89.2289 36.1741C88.7542 36.1741 88.2826 36.2553 87.8328 36.4083C87.3768 36.5707 86.9646 36.8331 86.621 37.1735C86.2744 37.5202 85.9902 37.9793 85.7747 38.5289C85.5623 39.088 85.4592 39.7626 85.4592 40.5559C85.4561 41.1524 85.5248 41.7489 85.6622 42.3298C85.8059 42.8795 86.0276 43.348 86.3337 43.7446C86.6585 44.1537 87.077 44.4785 87.5549 44.6909C88.0546 44.9252 88.6667 45.0376 89.3788 45.0376C89.7848 45.0376 90.1877 45.0126 90.5906 44.9564C90.9154 44.9127 91.2339 44.8502 91.5494 44.7627C91.7992 44.7003 92.0459 44.6191 92.2833 44.5191C92.4957 44.4286 92.6893 44.3349 92.8548 44.263L93.7106 46.7491C93.2733 47.0145 92.6612 47.2488 91.8679 47.4611C91.059 47.6735 90.1346 47.7766 89.0946 47.7766Z" fill="#0AC18E"/>
<path d="M98.3453 36.7831C99.2229 36.7831 99.9444 36.8862 100.525 37.0798C101.106 37.2734 101.575 37.5577 101.921 37.9356C102.277 38.3166 102.53 38.7788 102.665 39.2816C102.808 39.8126 102.877 40.4028 102.877 41.0431V47.1957C102.449 47.2863 101.868 47.3987 101.116 47.5205C100.363 47.6423 99.4447 47.7141 98.3766 47.7141C97.7051 47.7141 97.0929 47.6517 96.5433 47.5299C95.9936 47.4081 95.5251 47.2144 95.1285 46.949C94.735 46.6804 94.4195 46.3181 94.2103 45.8902C93.9979 45.453 93.8949 44.922 93.8949 44.2818C93.8949 43.6697 94.0167 43.1606 94.2603 42.7327C94.4914 42.3173 94.8287 41.9707 95.2378 41.7239C95.6438 41.4678 96.1154 41.2867 96.6432 41.1743C97.1867 41.0587 97.7394 41.0025 98.2922 41.0025C98.6795 41.0025 99.0168 41.0243 99.3104 41.0525C99.6071 41.0837 99.8507 41.1243 100.035 41.1836V40.9088C100.035 40.4091 99.8819 40.0031 99.5759 39.697C99.2698 39.3909 98.742 39.2379 97.9862 39.2379C97.4896 39.2379 96.993 39.2754 96.4996 39.3503C96.0092 39.4222 95.5814 39.5221 95.2253 39.6564L94.8474 37.2734C95.0192 37.2235 95.2347 37.161 95.4877 37.1017C95.7438 37.0392 96.028 36.9892 96.334 36.9393C96.6401 36.8893 96.9555 36.8581 97.2928 36.8175C97.652 36.805 97.9987 36.7831 98.3453 36.7831ZM98.5796 45.4311C98.8763 45.4311 99.1511 45.4217 99.4134 45.4092C99.6258 45.4061 99.8351 45.3843 100.044 45.3468V43.1044C99.9225 43.0731 99.7476 43.0544 99.504 43.0232C99.2885 42.9951 99.0699 42.9826 98.8513 42.9826C98.5889 42.9857 98.3266 43.0013 98.0674 43.0325C97.8238 43.0638 97.6083 43.1231 97.4271 43.2262C97.2491 43.3105 97.0992 43.4417 96.9899 43.6041C96.8806 43.7821 96.8243 43.9851 96.8275 44.1943C96.8275 44.6534 96.9805 44.9783 97.296 45.1532C97.6114 45.3499 98.0393 45.4311 98.5796 45.4311Z" fill="#0AC18E"/>
<path d="M107.471 45.3811C108.011 45.3811 108.399 45.3312 108.624 45.2187C108.848 45.1157 108.961 44.9033 108.961 44.6066C108.961 44.3724 108.817 44.1569 108.524 43.9851C108.227 43.8008 107.79 43.6072 107.19 43.3854C106.731 43.2137 106.303 43.0388 105.928 42.8451C105.55 42.6609 105.226 42.4391 104.97 42.183C104.701 41.9207 104.495 41.6053 104.357 41.2555C104.214 40.8994 104.145 40.4715 104.145 39.9625C104.145 38.9849 104.51 38.2104 105.235 37.6389C105.96 37.0673 106.956 36.7831 108.23 36.7831C108.842 36.7831 109.451 36.8425 110.054 36.9549C110.635 37.0673 111.103 37.1891 111.441 37.3203L110.922 39.6221C110.554 39.494 110.182 39.3878 109.801 39.3066C109.354 39.2098 108.902 39.1598 108.446 39.163C107.518 39.163 107.059 39.419 107.059 39.9375C107.056 40.0468 107.078 40.153 107.121 40.2529C107.174 40.3591 107.256 40.4528 107.356 40.5184C107.512 40.6246 107.674 40.7152 107.846 40.7932C108.099 40.9182 108.361 41.0243 108.63 41.118C109.283 41.3616 109.81 41.5959 110.238 41.8301C110.666 42.0644 110.991 42.3205 111.238 42.5828C111.472 42.842 111.65 43.145 111.756 43.4791C111.859 43.8039 111.909 44.1912 111.909 44.6316C111.909 45.6591 111.522 46.4461 110.747 46.9646C109.973 47.4955 108.883 47.7579 107.468 47.7579C106.54 47.7579 105.766 47.6767 105.157 47.5236C104.545 47.3612 104.117 47.2269 103.873 47.127L104.373 44.7222C104.876 44.9189 105.394 45.0751 105.922 45.1906C106.428 45.3187 106.95 45.3811 107.471 45.3811Z" fill="#0AC18E"/>
<path d="M113.005 47.5018V32.5762L115.96 32.0984V37.1017C116.21 37.0236 116.466 36.958 116.725 36.908C117.022 36.8487 117.328 36.8175 117.631 36.8175C118.477 36.8175 119.18 36.9299 119.739 37.1641C120.298 37.3984 120.748 37.7232 121.085 38.1417C121.422 38.5696 121.657 39.0693 121.797 39.6502C121.941 40.2311 122 40.8838 122 41.5959V47.4955H119.046V41.9488C119.046 40.99 118.924 40.3185 118.68 39.9219C118.437 39.5252 117.977 39.3316 117.325 39.3316C117.075 39.3285 116.825 39.3535 116.581 39.4034C116.347 39.4534 116.144 39.494 115.96 39.5565V47.4924H113.005L113.005 47.5018Z" fill="#0AC18E"/>
</g>
<g id="logo">
<path id="bg" d="M13.7923 47.9017C18.0958 47.9017 21.5845 44.4129 21.5845 40.1094C21.5845 35.8059 18.0958 32.3171 13.7923 32.3171C9.48871 32.3171 6 35.8059 6 40.1094C6 44.4129 9.48871 47.9017 13.7923 47.9017Z" fill="#0AC18E"/>
<path id="logo_2" d="M16.2157 37.5013C15.8253 36.6143 14.929 36.43 13.8297 36.6112L13.4767 35.2463L12.6429 35.4618L12.9895 36.8267C12.7709 36.8829 12.546 36.9297 12.3243 36.9922L11.9745 35.6367L11.1406 35.8522L11.4935 37.2202C11.3155 37.2701 9.81641 37.6574 9.81641 37.6574L10.0475 38.5475C10.0475 38.5475 10.6597 38.3757 10.6534 38.3913C10.9907 38.3039 11.15 38.4726 11.2281 38.6318L12.1962 42.3796C12.2087 42.4889 12.19 42.6763 11.9558 42.7356C11.9683 42.7419 11.3499 42.8918 11.3499 42.8918L11.4404 43.9287C11.4404 43.9287 12.9239 43.5477 13.1207 43.5008L13.4799 44.8844L14.3106 44.6689L13.9546 43.276C14.1857 43.2229 14.4043 43.1666 14.6229 43.1104L14.979 44.4971L15.8129 44.2816L15.4568 42.9012C16.7373 42.5889 17.643 41.7831 17.4556 40.5463C17.3369 39.803 16.5249 39.1909 15.8472 39.1222C16.2626 38.7443 16.475 38.2071 16.2157 37.5013ZM15.816 40.7618C15.9815 41.9861 14.2825 42.136 13.7172 42.2828L13.2269 40.4526C13.7953 40.3058 15.538 39.6843 15.816 40.7618ZM14.7916 38.2727C14.9665 39.3595 13.5142 39.4876 13.0426 39.6094L12.596 37.9479C13.0676 37.8261 14.4355 37.2639 14.7916 38.2727Z" fill="white"/>
</g>
</g>
</svg>
