<svg width="163" height="36" viewBox="0 0 163 36" fill="none" xmlns="http://www.w3.org/2000/svg">
<g id="logo / deriv product / deriv ez / brand-dark / wordmark horizontal">
<g id="wordmark">
<path fill-rule="evenodd" clip-rule="evenodd" d="M20.739 1.08392L18.9667 11.1348H12.8146C7.07515 11.1348 1.60449 15.7849 0.59054 21.5245L0.161365 23.9674C-0.847863 29.707 2.98158 34.3572 8.72108 34.3572H13.8522C18.0354 34.3572 22.0204 30.9709 22.7562 26.7878L27.4817 0L20.739 1.08392ZM16.3738 25.8398C16.1474 27.132 14.984 28.1838 13.6918 28.1838H10.5745C7.9948 28.1838 6.26872 26.0897 6.72144 23.5053L6.99028 21.982C7.44772 19.4022 9.90952 17.3035 12.4892 17.3035H17.879L16.3738 25.8398Z" fill="#FF444F"/>
<path d="M68.1179 34.3589H74.5034L78.5403 11.4572H72.1548L68.1179 34.3589Z" fill="#FF444F"/>
<path d="M68.3306 14.4427L68.3315 14.4375C68.4914 13.532 68.6513 12.6265 68.8108 11.721C62.2586 10.0327 57.155 11.7793 55.0768 12.6399C55.0768 12.6399 52.1123 29.4439 51.2446 34.3643H57.6344C58.6714 28.4837 59.7084 22.6017 60.7439 16.7211C61.7028 16.5299 64.824 16.2305 67.8492 17.1706C68.0094 16.2613 68.17 15.352 68.3306 14.4427Z" fill="#FF444F"/>
<path fill-rule="evenodd" clip-rule="evenodd" d="M42.9137 11.1325H37.9477C33.1042 11.1325 28.4874 15.0563 27.6337 19.8998L26.6292 25.5922C25.7755 30.4356 29.0061 34.3596 33.8496 34.3596H44.423L45.5077 28.205H35.5707C33.958 28.205 32.8779 26.8986 33.1657 25.2809L33.1987 25.0876H49.2192L50.1341 19.8998C50.9876 15.0563 47.7572 11.1325 42.9137 11.1325ZM43.7249 19.4093L43.6872 19.7394H34.1608L34.2127 19.4471C34.5002 17.8341 35.9718 16.4146 37.5892 16.4146H41.3103C42.9091 16.4146 43.9892 17.8106 43.7249 19.4093Z" fill="#FF444F"/>
<path d="M89.6385 26.5628C92.5378 21.3467 95.7343 14.5031 97.0662 11.4572H103.461C101.284 17.2446 96.2958 27.0896 91.4634 34.3589H85.0733C82.8551 27.4403 81.4227 17.8004 81.1494 11.4572H87.5398C87.6551 13.5263 88.5814 21.2011 89.6385 26.5628Z" fill="#FF444F"/>
<path d="M111.779 35.1821V2.43785H133.892V8.6276H119.15V15.0536H132.238V21.1016H119.15V28.9924H134.979V35.1821H111.779Z" fill="white"/>
<path d="M161.684 7.54085C160.676 8.58035 159.479 9.93486 158.093 11.6044C156.707 13.2424 155.274 15.0379 153.793 16.9909C152.313 18.9439 150.848 20.9599 149.399 23.0389C147.95 25.1179 146.659 27.1024 145.525 28.9924H162.204V35.1821H136.453V30.7879C137.335 29.1814 138.406 27.4016 139.666 25.4486C140.957 23.4641 142.296 21.4796 143.682 19.4951C145.068 17.4791 146.47 15.5419 147.887 13.6834C149.336 11.7934 150.675 10.1081 151.903 8.6276H137.209V2.43785H161.684V7.54085Z" fill="white"/>
</g>
</g>
</svg>
