<svg width="128" height="80" viewBox="0 0 128 80" fill="none" xmlns="http://www.w3.org/2000/svg">
<g id="logo / payment method / bank rakyat indonesia bri / brand-dark">
<path id="logo" fill-rule="evenodd" clip-rule="evenodd" d="M26.3702 26.029C27.3944 25.927 28.4276 26.0952 29.365 26.5165C30.1331 26.8873 30.8037 27.4298 31.324 28.101C31.9006 28.8453 32.2206 29.7532 32.2368 30.6912V48.2024C32.3379 49.2164 32.157 50.2386 31.7137 51.1582C30.9562 52.7896 29.3498 53.8724 27.5394 53.9717H9.87801C8.85172 54.0738 7.8167 53.8983 6.88316 53.4639C5.24204 52.6887 4.15167 51.0961 4.03191 49.2994C3.96011 47.0038 4.03191 44.6067 4.03191 42.3111V31.8491C3.95972 30.8386 4.14302 29.8262 4.56524 28.9035C5.29615 27.2334 6.92407 26.1218 8.76007 26.0391V26.029C9.86775 25.9782 11.1293 26.029 12.2575 26.029H26.3702ZM13.5805 29.391C12.3805 28.5886 11.2729 28.7714 9.63186 28.7714C8.98887 28.7178 8.34625 28.8787 7.80623 29.2285C7.31448 29.5205 6.96858 30.003 6.85239 30.5591C6.83898 30.6973 6.83259 31.9714 6.83045 33.7863L6.82987 34.4484C6.8298 34.5622 6.82975 34.6776 6.82971 34.7945L6.82967 35.884C6.8297 36.0089 6.82974 36.1349 6.82979 36.2619L6.83055 37.4296C6.83396 41.392 6.8456 45.9486 6.85035 47.8288L6.8512 48.1682C6.85133 48.2185 6.85145 48.2656 6.85155 48.3094L6.85225 48.6097C6.85235 48.6549 6.85239 48.6854 6.85239 48.7001L6.85294 48.8867C6.85869 49.7102 6.91804 49.8966 7.40624 50.437C7.80269 50.9075 8.38749 51.1822 9.00622 51.1886H11.3036C11.9593 51.2845 12.6272 51.1282 13.1703 50.7519C14.1545 50.1392 14.8008 49.1135 14.9241 47.9688C15.0013 46.7481 14.5191 45.5579 13.6113 44.7286L11.3447 42.4432C10.5798 41.6913 9.85413 40.9014 9.17032 40.0765C9.4575 39.3147 12.7805 36.6535 13.7549 35.4753C14.613 34.651 15.1288 33.5387 15.201 32.357C15.2263 31.1546 14.6106 30.0279 13.5805 29.391ZM17.3343 28.7511C17.4779 29.4012 18.3805 29.7262 18.5754 31.9507C18.7215 33.1922 18.4001 34.4435 17.6728 35.4651C17.3692 35.9047 17.026 36.3161 16.6472 36.6941C16.0831 37.3036 15.0574 38.0857 14.3395 38.817C13.9593 39.1679 13.6156 39.5559 13.3139 39.975L16.5856 43.4081C17.8984 44.7387 18.7805 45.7545 18.7805 47.9078C18.7848 48.8126 18.5052 49.6963 17.9805 50.437C17.8154 50.6554 17.6679 50.8863 17.5395 51.1277H27.5291C27.451 50.9364 26.773 50.2329 25.9795 49.4425L25.6068 49.0731C25.0407 48.5143 24.4549 47.9453 24.01 47.5072L23.7361 47.2361C23.6113 47.1118 23.5062 47.0056 23.4266 46.9226L16.5754 39.975C16.5446 39.6905 18.3395 38.0146 18.76 37.6591C20.081 36.529 21.312 35.2997 22.442 33.9821C23.0172 33.3935 23.299 32.5824 23.2112 31.7678C23.1907 30.2341 21.6523 29.0965 20.2677 28.8121C19.3046 28.7508 18.3385 28.7508 17.3754 28.8121L17.3343 28.7511ZM24.842 28.7714C25.1086 29.4621 26.2779 29.9497 26.2779 31.8897C26.4562 33.1492 26.0831 34.4242 25.2522 35.394C24.7365 36.0205 24.1705 36.6047 23.5599 37.1411C23.3445 37.3645 23.201 37.4458 22.9753 37.6794L21.7651 38.7561C21.3801 39.1137 21.0362 39.5122 20.7394 39.9445L29.5291 48.8118V36.4707L29.6009 32.5703C29.6522 28.5378 27.8163 28.8121 24.8932 28.8121L24.842 28.7714ZM41.4982 33.0375C43.2623 33.0375 44.5033 32.9359 45.8777 33.718C47.4059 34.622 47.4059 35.7089 47.4059 37.202C47.3152 38.1232 46.7955 38.9497 46.0007 39.4366C45.8633 39.5257 45.7152 39.5974 45.5597 39.6499L45.3238 39.7109C45.1187 39.8226 45.0572 39.7007 45.1187 39.8226C45.1802 39.9445 45.0982 39.9445 45.3546 39.9445C46.6348 40.1211 47.6382 41.1231 47.8059 42.3924C47.9077 43.1985 47.8127 44.0171 47.5289 44.7794C46.1956 47.7555 39.5905 46.8921 36.4316 47.0038H36.3701V33.0375H41.4982ZM100.164 33.0273C101.898 33.0273 103.241 32.8851 104.585 33.6774C105.573 34.2932 106.182 35.3604 106.205 36.5167C106.228 37.673 105.661 38.7629 104.698 39.4163C104.062 39.7921 103.928 39.6093 103.928 39.8937C104.28 39.9485 104.625 40.044 104.954 40.1781C105.848 40.6762 106.433 41.5827 106.513 42.5955C106.933 46.3334 103.251 46.9937 100.359 46.9937C99.9947 46.9937 99.0813 47.0046 98.1091 47.0125L97.5759 47.0165C96.4208 47.0241 95.308 47.0241 95.0464 46.9937H95.1182V33.0273H100.164ZM81.2312 33.0375V38.6037C81.3645 38.5021 82.5953 36.8363 82.8004 36.5722C83.3132 35.9019 83.8363 35.2213 84.3388 34.5408C84.5337 34.3275 85.3542 33.0578 85.5593 33.0578H90.0003C89.5842 33.6602 89.1357 34.24 88.6568 34.7947L85.2209 39.0709C84.8414 39.5687 84.8106 39.5179 85.1593 40.0054C86.0311 41.204 86.9645 42.2908 87.8568 43.4691C88.7901 44.5776 89.6305 45.7598 90.3696 47.0038H86.5029C86.185 47.0038 85.8158 47.0648 85.6311 46.9022C85.0055 46.3436 81.7235 40.9297 81.2312 40.6961V46.9835H77.4671V33.0375H81.2312ZM57.4263 33.0375L62.7903 47.0038H59.2827C58.7596 47.0038 58.6263 47.1257 58.3186 46.2319C58.1368 45.5635 57.9177 44.9056 57.6622 44.2613C57.4981 44.0176 57.4058 44.0176 57.0365 44.0176L56.9165 44.0172C56.5145 44.0153 55.7488 44.0052 54.95 43.998L54.4162 43.9938C53.4418 43.9872 52.5278 43.9884 52.2776 44.0176C52.0482 44.8815 51.7357 45.7216 51.3443 46.5264L51.259 46.697C51.1481 46.9189 51.0879 46.9937 50.7186 46.9937H47.4059C47.757 45.7928 48.2028 44.6211 48.7392 43.4894C49.6212 41.2852 50.5443 38.6037 51.4263 36.4707C51.8072 35.2885 52.2875 34.1401 52.8622 33.0375H57.4263ZM112.513 33.0375C114.045 32.8821 115.591 33.1309 116.995 33.7587C118.246 34.4392 118.656 35.526 118.482 37.4153C118.266 38.712 117.268 39.7444 115.969 40.0156C116.246 40.5031 116.718 40.3 117.149 41.4071C117.918 43.2309 118.572 45.1001 119.108 47.0038H115.282C115.167 46.6915 115.071 46.3727 114.995 46.049C114.903 45.7443 114.81 45.4396 114.698 45.145C114.298 44.0379 113.969 42.5244 113.128 41.8642C112.514 41.4941 111.783 41.3637 111.077 41.4985V46.9937H107.303V33.0375H112.513ZM124 33.0375V47.0038H120.236V33.0375H124ZM68.1236 33.0375L69.8569 36.4605C70.1954 37.1004 72.6159 42.0572 72.7287 42.1791L72.8005 33.0375H76.1953V46.9937H71.5595L69.1492 42.3111C69.1429 42.2992 69.1267 42.2675 69.1019 42.2187L68.9376 41.8933C68.3701 40.7676 66.8646 37.7768 66.7287 37.6591V46.9937H63.2929V33.0375H68.1236ZM101.436 41.204C100.577 41.0235 99.6964 40.9654 98.8208 41.0313V44.3528H98.831C99.7058 44.4151 100.585 44.3639 101.446 44.2004C102.194 44.0769 102.744 43.4381 102.749 42.687C102.79 41.783 102.185 41.4071 101.436 41.204ZM42.7905 41.1634C41.9401 41.0585 41.0815 41.0347 40.2264 41.0923V44.3426C41.1735 44.4164 42.1262 44.3166 43.0367 44.048C43.9392 43.7433 44.0623 43.398 44.0623 42.5752C44.0975 41.8401 43.532 41.2123 42.7905 41.1634ZM55.0776 36.0136C54.9237 36.105 54.8622 36.4707 54.7904 36.6738C54.7186 36.877 54.6468 37.1106 54.5648 37.3544C54.4109 37.8216 54.2776 38.2482 54.1237 38.7053L53.2212 41.4173H56.6878C56.591 40.946 56.4643 40.4812 56.3083 40.0257C56.175 39.5788 55.2212 36.105 55.0776 36.0136ZM111.744 35.6864L111.47 35.6869C111.336 35.6876 111.208 35.6886 111.087 35.6886V38.8272C112.421 38.8475 114.39 38.9186 114.698 37.72C115.177 35.8313 113.239 35.69 111.744 35.6864ZM101.21 35.7698C100.419 35.66 99.618 35.6328 98.8208 35.6886V38.5529H98.831C99.8464 38.685 102.39 38.6037 102.39 37.1207C102.416 36.4337 101.901 35.844 101.21 35.7698ZM42.5751 35.7597C41.7986 35.6379 41.0102 35.6072 40.2264 35.6682H40.2162V38.5123C40.9745 38.5873 41.7401 38.5393 42.4828 38.3701C43.17 38.1771 43.6828 37.9638 43.6931 37.0903C43.7033 36.2167 43.3444 35.9323 42.5751 35.7597Z" fill="white"/>
</g>
</svg>
