<svg width="128" height="80" viewBox="0 0 128 80" fill="none" xmlns="http://www.w3.org/2000/svg">
<g id="logo / payment method / moneygram / brand-light">
<g id="logo">
<path fill-rule="evenodd" clip-rule="evenodd" d="M46.1299 33.7237H45.4964C44.8796 33.7237 44.6129 33.915 44.1908 34.623L40.8067 40.3743L39.4029 34.6818C39.2327 34.0027 39.0511 33.7237 38.3483 33.7237H37.8148C37.1269 33.7237 36.6768 34.151 36.5514 34.9187L34.9773 44.1814C34.8632 44.8763 35.1598 45.243 35.7363 45.243H35.9732C36.5786 45.243 36.8462 44.9342 36.9576 44.2393L38.221 36.7463L39.4432 41.7615C39.5424 42.2625 39.6415 42.6029 40.554 42.6029C41.3261 42.6029 41.5086 42.3222 41.7762 41.8519L44.7664 36.6875L43.503 44.1814C43.3889 44.8885 43.6855 45.243 44.2479 45.243H44.5006C45.1051 45.243 45.3709 44.9184 45.4832 44.2393L47.0573 34.9476C47.1828 34.2098 46.8467 33.7237 46.1299 33.7237ZM51.1495 43.6084C49.8044 43.6084 48.9639 42.6082 48.9182 41.2535C48.8603 39.5031 49.9773 37.944 51.5785 37.944C52.8077 37.944 53.7808 38.9442 53.8229 40.3129C53.8799 42.1677 52.7507 43.6084 51.1495 43.6084ZM55.6417 40.2252C55.568 37.9852 54.0817 36.3252 51.5917 36.3252C48.7463 36.3252 47.0011 38.709 47.0862 41.3263C47.174 43.7111 48.7752 45.243 51.1337 45.243C54.0536 45.243 55.7259 42.8451 55.6417 40.2252ZM62.1055 36.3252C60.9263 36.3252 59.9901 36.913 59.3777 37.9027C59.4356 36.7832 58.824 36.455 58.1984 36.455C57.9019 36.455 57.6738 36.5252 57.658 36.5682L56.3814 43.8962C56.2533 44.6578 56.6788 44.8719 57.2175 44.8719H57.4465C58.0423 44.8719 58.2844 44.6279 58.4125 43.8962L59.1785 39.4934C59.7339 38.5195 60.3437 38.0606 61.2825 38.0606C62.2336 38.0606 62.7881 38.6336 62.8153 39.5803C62.8293 39.8242 62.7732 40.1383 62.717 40.4989L62.1195 43.8962C61.9923 44.6578 62.4178 44.8719 62.9583 44.8719H63.1856C63.7822 44.8719 64.0235 44.6279 64.1507 43.8962L64.8044 40.155C64.8745 39.7365 64.9316 39.3636 64.9184 39.0354C64.8614 37.443 63.8252 36.3252 62.1055 36.3252ZM97.7769 36.3252C96.8407 36.3252 96.151 36.8832 95.6694 37.9027C95.7378 36.7832 95.1482 36.455 94.5428 36.455C94.2383 36.455 94.0339 36.5252 94.0181 36.5682L92.7661 43.8962C92.6432 44.6578 93.1232 44.8719 93.6479 44.8719H93.8672C94.3638 44.8719 94.6112 44.6279 94.7358 43.8962L95.1482 41.4448C95.4658 39.5382 96.1388 38.2019 97.239 38.2019C97.7769 38.2019 98.1076 38.4335 98.3428 38.6906C98.3691 38.7196 99.1939 38.3897 99.1675 37.371C99.1412 36.7402 98.5341 36.3252 97.7769 36.3252ZM102.622 43.6084C101.38 43.6084 100.66 42.7837 100.66 41.3263C100.66 39.6215 101.618 37.9132 103.397 37.9132C104.838 37.9132 105.447 39.017 105.447 40.2383C105.447 41.7703 104.456 43.6084 102.622 43.6084ZM107.364 36.4576C106.575 36.4576 106.138 36.8551 105.883 37.9001C105.374 36.913 104.342 36.3252 103.146 36.3252C100.591 36.3252 98.8113 38.6941 98.8113 41.3877C98.8113 43.6084 100.123 45.243 102.183 45.243C103.44 45.243 104.416 44.6964 105.035 43.6084C104.95 44.742 105.164 45.0956 105.94 45.0956C106.646 45.0956 106.871 44.8297 106.942 44.0199C107.04 42.5336 107.521 40.1067 108.086 36.7059C108.099 36.6472 107.775 36.4576 107.364 36.4576ZM119.372 36.3252C117.996 36.3252 117.078 37.0552 116.436 38.1159C116.118 36.9981 115.183 36.3252 113.988 36.3252C112.944 36.3252 112.026 36.8411 111.4 37.8018C111.428 36.7691 110.843 36.4541 110.246 36.4541C109.953 36.4541 109.744 36.5243 109.716 36.5682L108.466 43.8962C108.34 44.6578 108.757 44.8719 109.285 44.8719H109.508C110.01 44.8719 110.331 44.6578 110.455 43.8962L111.233 39.3504C111.803 38.4458 112.333 38.0606 113.18 38.0606C114.002 38.0606 114.517 38.6906 114.517 39.6522C114.517 39.8102 114.502 39.9821 114.476 40.155L113.851 43.8962C113.724 44.6578 114.155 44.8719 114.671 44.8719H114.878C115.392 44.8719 115.714 44.642 115.84 43.8962L116.618 39.3504C117.188 38.4458 117.732 38.0606 118.566 38.0606C119.359 38.0606 119.942 38.5616 119.942 39.5803C119.942 39.8242 119.901 40.1383 119.845 40.4989L119.26 43.8962C119.137 44.6578 119.552 44.8719 120.081 44.8719H120.305C120.89 44.8719 121.123 44.6279 121.248 43.8962L121.889 40.155C121.959 39.7365 122 39.3636 122 39.0354C122 37.371 120.917 36.3252 119.372 36.3252ZM72.0929 39.8312H67.5875C68.0156 38.6143 69.0167 37.8667 70.2916 37.8667C70.9286 37.8667 71.4287 38.058 71.7481 38.4379C72.0209 38.7748 72.135 39.2451 72.0929 39.8312ZM73.8389 40.112C73.8389 38.9521 73.6195 38.1738 73.1177 37.4991C72.5781 36.7656 71.5796 36.3252 70.4162 36.3252C66.8952 36.3252 65.6344 39.0696 65.6344 41.4614C65.6344 43.7348 67.1847 45.243 69.5695 45.243C71.9543 45.243 73.2984 44.1173 73.2984 43.2224C73.2984 42.6196 72.8974 42.4134 72.4386 42.3704C71.8174 43.2224 70.9417 43.6312 69.7651 43.6312C68.7237 43.6312 67.4787 43.2074 67.3962 41.2403H72.8123C73.3949 41.2403 73.8389 40.8885 73.8389 40.112ZM91.1674 38.7468H87.8781C87.4859 38.7468 87.3008 38.8336 87.1735 38.9661C86.9753 39.1828 86.8752 39.6751 86.8752 39.8926C86.8875 40.241 87.1858 40.4428 87.7114 40.4428H90.047C89.7206 42.1116 88.6879 43.2724 86.9042 43.2724C85.0353 43.2724 83.7728 42.0528 83.7017 39.9821C83.6166 37.3701 85.3029 35.224 87.6965 35.224C89.0968 35.224 90.1883 35.9917 90.6436 37.0069C90.6998 37.0788 92.0018 37.0788 91.9597 35.9479C91.9466 35.5425 91.7202 35.0635 91.2929 34.6581C90.5998 33.9615 89.3118 33.3525 87.5982 33.3525C85.1906 33.3525 83.2911 34.716 82.3014 36.6735C82.3014 36.6594 82.2856 36.6594 82.2856 36.6594C82.0882 36.3971 81.7618 36.2673 81.4494 36.2673C80.9116 36.2673 80.572 36.4419 80.0491 37.3701L77.4853 41.9659L76.5202 37.3824C76.3386 36.527 76.0376 36.2673 75.5016 36.2673C74.8795 36.2673 74.3688 36.7305 74.3969 36.8463L76.2245 44.2594L74.3118 47.4198C74.1153 47.7664 74.0986 48.2165 74.8233 48.2165H75.2199C75.9683 48.2165 76.2105 47.7515 76.579 47.1136L81.7346 38.1949C81.5743 38.8401 81.5072 39.5048 81.5354 40.169C81.6346 43.1706 83.6025 44.9675 86.4944 44.9675C87.8667 44.9675 88.9573 44.4323 89.5662 43.6189C89.5223 44.4884 89.9768 44.8385 90.5866 44.8385C90.927 44.8385 91.1674 44.7227 91.1674 44.6648L92.0018 39.8637C92.1299 39.124 91.8597 38.7468 91.1674 38.7468Z" fill="#000003"/>
<path d="M18.2835 52.2834C25.0675 52.2834 30.5671 46.7838 30.5671 39.9998C30.5671 33.2158 25.0675 27.7163 18.2835 27.7163C11.4995 27.7163 6 33.2158 6 39.9998C6 46.7838 11.4995 52.2834 18.2835 52.2834Z" fill="white"/>
<path fill-rule="evenodd" clip-rule="evenodd" d="M30.5671 39.9998C30.5671 46.7838 25.0675 52.2834 18.2835 52.2834C11.4995 52.2834 6 46.7838 6 39.9998C6 38.131 6.41676 36.3604 7.1643 34.7741C6.66682 36.034 6.44308 37.2817 6.44308 38.4504C6.44308 44.0122 10.9336 44.8176 12.8446 44.7992C15.7487 44.7729 19.1443 43.3497 22.0046 40.714L21.522 43.4261C21.4141 44.0464 21.8194 44.5921 22.4389 44.5956H22.6951C23.3373 44.5956 23.7936 44.0727 23.9094 43.4261L24.9395 37.63C25.0623 36.9869 24.6394 36.4631 23.9963 36.4631H18.1897C17.5439 36.4631 16.9534 36.8052 16.8385 37.4536L16.7928 37.7151C16.7007 38.3319 17.1306 38.7969 17.7466 38.7969H20.7753C20.7266 38.8438 20.6783 38.8912 20.6306 38.9391C18.5424 40.9158 15.9672 41.9977 13.8334 41.9977C11.7039 41.9977 9.31919 40.6544 9.31919 37.6282C9.31919 31.3549 15.203 27.7163 18.2835 27.7163C25.0535 27.7163 30.5671 33.2158 30.5671 39.9998Z" fill="#DA291C"/>
</g>
</g>
</svg>
