<svg width="128" height="80" viewBox="0 0 128 80" fill="none" xmlns="http://www.w3.org/2000/svg">
<g id="logo / payment method / deriv p2p / brand-dark">
<g id="logo">
<g id="wordmark">
<path fill-rule="evenodd" clip-rule="evenodd" d="M17.0984 29.3164L15.9791 35.6643H12.0935C8.4686 35.6643 5.01345 38.6013 4.37306 42.2262L4.10201 43.7691C3.4646 47.3941 5.88319 50.3311 9.50813 50.3311H12.7488C15.3908 50.3311 17.9077 48.1924 18.3724 45.5504L21.3569 28.6318L17.0984 29.3164ZM14.3414 44.9517C14.1984 45.7678 13.4637 46.4321 12.6476 46.4321H10.6787C9.04943 46.4321 7.95928 45.1095 8.24521 43.4772L8.415 42.5152C8.70391 40.8858 10.2587 39.5604 11.888 39.5604H15.2921L14.3414 44.9517Z" fill="#FF444F"/>
<path d="M47.0219 50.3321H51.0548L53.6045 35.8679H49.5715L47.0219 50.3321Z" fill="#FF444F"/>
<path d="M47.1562 37.7535L47.1568 37.7502C47.2577 37.1783 47.3587 36.6065 47.4595 36.0346C43.3213 34.9683 40.0979 36.0714 38.7854 36.6149C38.7854 36.6149 36.9131 47.2279 36.3651 50.3356H40.4007C41.0556 46.6215 41.7106 42.9066 42.3646 39.1925C42.9703 39.0717 44.9415 38.8826 46.8522 39.4764C46.9534 38.9021 47.0548 38.3278 47.1562 37.7535Z" fill="#FF444F"/>
<path fill-rule="evenodd" clip-rule="evenodd" d="M31.1035 35.6629H27.967C24.908 35.6629 21.9921 38.1411 21.4529 41.2001L20.8185 44.7953C20.2793 47.8543 22.3197 50.3326 25.3788 50.3326H32.0567L32.7418 46.4455H26.4658C25.4472 46.4455 24.7651 45.6204 24.9468 44.5987L24.9677 44.4766H35.0859L35.6637 41.2001C36.2028 38.1411 34.1625 35.6629 31.1035 35.6629ZM31.6158 40.8903L31.592 41.0988H25.5753L25.6081 40.9142C25.7897 39.8955 26.7191 38.9989 27.7406 38.9989H30.0908C31.1005 38.9989 31.7827 39.8806 31.6158 40.8903Z" fill="#FF444F"/>
<path d="M60.6138 45.4083C62.445 42.1139 64.4638 37.7917 65.305 35.8679H69.3439C67.9691 39.5232 64.8184 45.741 61.7664 50.3321H57.7305C56.3295 45.9625 55.4249 39.8742 55.2523 35.8679H59.2883C59.3611 37.1747 59.9462 42.022 60.6138 45.4083Z" fill="#FF444F"/>
<path d="M80.8045 29.9328C83.8882 29.9328 86.2557 30.4799 87.907 31.5741C89.5582 32.6484 90.3839 34.4191 90.3839 36.886C90.3839 39.3728 89.5483 41.1733 87.8771 42.2874C86.206 43.3816 83.8186 43.9287 80.715 43.9287H79.2528V50.8521H74.5974V30.4699C75.612 30.271 76.6863 30.1317 77.8203 30.0522C78.9543 29.9726 79.9491 29.9328 80.8045 29.9328ZM81.103 33.9018C80.7648 33.9018 80.4265 33.9117 80.0883 33.9316C79.77 33.9515 79.4915 33.9714 79.2528 33.9913V39.9597H80.715C82.3265 39.9597 83.5401 39.7409 84.3558 39.3032C85.1714 38.8655 85.5793 38.0498 85.5793 36.8562C85.5793 36.2792 85.4699 35.8017 85.251 35.4237C85.0521 35.0457 84.7536 34.7473 84.3558 34.5285C83.9778 34.2897 83.5102 34.1306 82.9532 34.051C82.3961 33.9515 81.7794 33.9018 81.103 33.9018Z" fill="white"/>
<path d="M104.725 35.6028C104.725 36.3588 104.575 37.0849 104.277 37.7813C103.979 38.4776 103.591 39.154 103.113 39.8105C102.636 40.4472 102.098 41.0639 101.502 41.6607C100.905 42.2576 100.318 42.8246 99.741 43.3617C99.4426 43.6403 99.1143 43.9586 98.7562 44.3167C98.418 44.6549 98.0897 45.003 97.7714 45.3611C97.4531 45.7193 97.1646 46.0575 96.906 46.3758C96.6672 46.6742 96.518 46.9229 96.4584 47.1218H105.351V50.8521H91.5642C91.5245 50.6332 91.5046 50.3547 91.5046 50.0165C91.5046 49.6783 91.5046 49.4396 91.5046 49.3003C91.5046 48.3454 91.6538 47.47 91.9522 46.6742C92.2705 45.8784 92.6784 45.1423 93.1757 44.4659C93.6731 43.7696 94.2301 43.123 94.8469 42.5261C95.4835 41.9293 96.1102 41.3325 96.7269 40.7356C97.2044 40.278 97.652 39.8503 98.0698 39.4524C98.4876 39.0346 98.8557 38.6367 99.174 38.2587C99.4923 37.8608 99.741 37.4729 99.92 37.0949C100.099 36.697 100.189 36.2991 100.189 35.9012C100.189 35.0258 99.9399 34.4091 99.4426 34.051C98.9452 33.6929 98.3284 33.5138 97.5923 33.5138C97.0552 33.5138 96.5479 33.6034 96.0704 33.7824C95.6128 33.9416 95.1851 34.1405 94.7872 34.3793C94.4092 34.5981 94.0809 34.8269 93.8024 35.0656C93.5239 35.2845 93.315 35.4635 93.1757 35.6028L90.9674 32.4992C91.8428 31.6835 92.8574 31.0171 94.0113 30.4998C95.1851 29.9626 96.4385 29.6941 97.7714 29.6941C98.985 29.6941 100.029 29.8333 100.905 30.1118C101.78 30.3904 102.496 30.7883 103.053 31.3055C103.63 31.8029 104.048 32.4196 104.307 33.1557C104.585 33.8719 104.725 34.6876 104.725 35.6028Z" fill="white"/>
<path d="M113.986 29.9328C117.07 29.9328 119.438 30.4799 121.089 31.5741C122.74 32.6484 123.566 34.4191 123.566 36.886C123.566 39.3728 122.73 41.1733 121.059 42.2874C119.388 43.3816 117 43.9287 113.897 43.9287H112.435V50.8521H107.779V30.4699C108.794 30.271 109.868 30.1317 111.002 30.0522C112.136 29.9726 113.131 29.9328 113.986 29.9328ZM114.285 33.9018C113.947 33.9018 113.608 33.9117 113.27 33.9316C112.952 33.9515 112.673 33.9714 112.435 33.9913V39.9597H113.897C115.508 39.9597 116.722 39.7409 117.538 39.3032C118.353 38.8655 118.761 38.0498 118.761 36.8562C118.761 36.2792 118.652 35.8017 118.433 35.4237C118.234 35.0457 117.935 34.7473 117.538 34.5285C117.16 34.2897 116.692 34.1306 116.135 34.051C115.578 33.9515 114.961 33.9018 114.285 33.9018Z" fill="white"/>
</g>
</g>
</g>
</svg>
