<svg width="128" height="80" viewBox="0 0 128 80" fill="none" xmlns="http://www.w3.org/2000/svg">
<g id="logo / payment method / spei / brand">
<g id="wordmark">
<path d="M16.7233 45.4985L6 46.1702C6.31515 49.8525 7.66697 52.8879 10.0555 55.2764C12.4439 57.6649 16.7399 58.8591 22.9433 58.8591C26.4763 58.8591 29.4039 58.3532 31.726 57.3414C34.0482 56.313 35.8561 54.8119 37.1499 52.8381C38.4437 50.8643 39.0905 48.708 39.0905 46.3693C39.0905 44.3789 38.6012 42.5792 37.6226 40.9703C36.6606 39.3614 35.1097 38.0179 32.97 36.9397C30.8469 35.845 27.3222 34.7669 22.396 33.7053C20.4056 33.2907 19.145 32.8428 18.6142 32.3618C18.0668 31.8974 17.7932 31.3749 17.7932 30.7943C17.7932 29.9982 18.1249 29.3264 18.7884 28.7791C19.4518 28.2151 20.4388 27.9331 21.7491 27.9331C23.3414 27.9331 24.5854 28.3063 25.4811 29.0527C26.3934 29.7991 26.9905 30.9934 27.2725 32.6355L37.8963 32.0135C37.4319 28.2317 35.9722 25.4783 33.5174 23.7533C31.0791 22.0117 27.5296 21.1409 22.8687 21.1409C19.0703 21.1409 16.0764 21.6219 13.887 22.5839C11.7141 23.5294 10.0803 24.8397 8.98561 26.515C7.90747 28.1736 7.36841 29.9401 7.36841 31.8144C7.36841 34.6674 8.42996 37.0144 10.5531 38.8555C12.6596 40.6966 16.1843 42.1728 21.1271 43.2842C24.1459 43.9476 26.07 44.6526 26.8993 45.399C27.7286 46.1454 28.1433 46.9913 28.1433 47.9367C28.1433 48.9319 27.7037 49.811 26.8246 50.574C25.9621 51.3204 24.7264 51.6936 23.1175 51.6936C20.9612 51.6936 19.3026 50.9555 18.1415 49.4793C17.4283 48.567 16.9555 47.2401 16.7233 45.4985Z" fill="#303992"/>
<path fill-rule="evenodd" clip-rule="evenodd" d="M60.6759 21.7629H41.9411V58.2371H53.2616V44.7023H59.4319C63.9766 44.7023 67.352 43.6657 69.5581 41.5923C71.7807 39.519 72.892 36.6412 72.892 32.9589C72.892 29.3762 71.8719 26.6145 69.8317 24.6738C67.8081 22.7332 64.7562 21.7629 60.6759 21.7629ZM56.0233 37.3129H53.2616V29.1771H56.4711C58.5776 29.1771 60.0124 29.5752 60.7754 30.3714C61.5384 31.1675 61.9199 32.1379 61.9199 33.2824C61.9199 34.46 61.4803 35.4303 60.6012 36.1933C59.7221 36.9397 58.1961 37.3129 56.0233 37.3129Z" fill="#303992"/>
<path d="M122 21.7629H110.704V32.7599H115.481V24.7982L122 32.3197V21.7629Z" fill="#303992"/>
<path d="M122 41.1617L115.481 48.6831V40.7215H110.704V58.2371H122V41.1617Z" fill="#303992"/>
</g>
<path id="logo" d="M75.7007 21.7627H105.905V30.5991H86.9963V35.3472H104.537V42.4367H86.9963V50.676H106.452V58.2369H75.7007V21.7627Z" fill="#F6861E"/>
</g>
</svg>
