<svg width="128" height="80" viewBox="0 0 128 80" fill="none" xmlns="http://www.w3.org/2000/svg">
<g id="logo / payment method / oxxo / brand-dark">
<g id="logo">
<path id="Vector" fill-rule="evenodd" clip-rule="evenodd" d="M24 22.6978C24.004 21.2065 25.121 20 26.4984 20H101.608C102.985 20 104.102 21.2065 104.107 22.6978V57.3013C104.102 58.7935 102.985 60 101.608 60H26.4984C25.121 60 24.004 58.7935 24 57.3013V22.6978Z" fill="#EFA616"/>
<path id="Vector_2" fill-rule="evenodd" clip-rule="evenodd" d="M24 23.9229H104.122V56.0767H24V23.9229Z" fill="white"/>
<path id="Vector_3" fill-rule="evenodd" clip-rule="evenodd" d="M91.8993 32.29C88.2219 32.29 85.2421 35.519 85.2421 39.5019C85.2421 43.4848 88.2227 46.7137 91.8993 46.7137C95.5759 46.7137 98.5565 43.4848 98.5565 39.5019C98.5517 35.5207 95.5735 32.2944 91.8993 32.29ZM37.0611 32.29C34.3676 32.2865 31.9377 34.0417 30.9047 36.736C29.8724 39.4302 30.4394 42.5334 32.3426 44.5986C34.2458 46.6622 37.1103 47.2807 39.599 46.1651C42.0869 45.0494 43.7102 42.4189 43.7102 39.5019C43.7054 35.5242 40.7328 32.2997 37.0611 32.29Z" fill="#E20613"/>
<path id="Vector_4" fill-rule="evenodd" clip-rule="evenodd" d="M91.3777 25.9277C85.218 25.7818 82.3245 30.0557 78.1181 35.3491L74.1649 40.3254L80.4431 48.4704C81.9374 50.9716 79.0826 53.4554 77.2802 51.1691L71.477 43.6653L65.8158 50.7663C64.0214 53.0273 61.1989 50.5007 62.7247 48.0257L68.8601 40.3167L64.8521 35.0748L67.4367 31.6492L71.5246 36.968L75.0504 32.5229C76.7826 30.3475 78.5455 27.4601 80.8382 25.9705H24V54.0722H37.2902C43.4571 54.0722 46.2482 50.0814 50.3353 44.7024L54.1941 39.623L47.7506 31.6405C46.1692 29.1733 48.9998 26.6214 50.8175 28.8649L56.7796 36.2227L62.3134 28.9767C64.069 26.6729 66.9464 29.1305 65.4763 31.6405L59.507 39.5295L63.6343 44.6683L61.0327 48.0082L56.9215 42.9891L53.4901 47.5111C51.8062 49.7389 50.0982 52.5739 47.845 54.1159H104.161V25.9268H91.3777V25.9277ZM47.5683 39.4867C47.5683 44.0943 45.0055 48.2494 41.0749 50.0115C37.1451 51.7736 32.6217 50.7978 29.6153 47.5382C26.6072 44.2786 25.7105 39.3775 27.3403 35.1202C28.9701 30.8638 32.8072 28.0908 37.0612 28.0943C42.8619 28.1083 47.5595 33.2017 47.5683 39.4867ZM91.8986 50.8694C87.6454 50.8694 83.81 48.093 82.1834 43.8348C80.556 39.5767 81.4576 34.6764 84.4664 31.4194C87.4753 28.1616 91.9994 27.1892 95.9284 28.9558C99.8574 30.7205 102.418 34.8773 102.415 39.4858C102.402 45.77 97.7002 50.8598 91.8986 50.8694Z" fill="#E20613"/>
</g>
</g>
</svg>
