<svg width="251" height="72" viewBox="0 0 251 72" fill="none" xmlns="http://www.w3.org/2000/svg">
<g id="logo / deriv product / deriv ez / brand-light / logo wordmark horizontal">
<g id="logo">
<path d="M0 13.5C0 6.04416 6.04416 0 13.5 0H58.5C65.9558 0 72 6.04416 72 13.5V58.5C72 65.9558 65.9558 72 58.5 72H13.5C6.04416 72 0 65.9558 0 58.5V13.5Z" fill="#FF444F"/>
<path d="M13.5 0C6.04416 0 0 6.04416 0 13.5V13.8921L67.3075 3.26845C64.9433 1.2315 61.8655 0 58.5 0H13.5Z" fill="#E12E3A"/>
<path d="M68.6969 4.65243L56.3498 71.9999L58.5 72C65.9558 72 72 65.9558 72 58.5V13.5C72 10.1155 70.7545 7.02183 68.6969 4.65243Z" fill="#E12E3A"/>
<path d="M19.1914 46.9147V25.0852H33.9334V29.2117H24.1054V33.4957H32.8309V37.5277H24.1054V42.7882H34.6579V46.9147H19.1914Z" fill="white"/>
<path d="M52.4613 28.4872C51.7893 29.1802 50.9913 30.0832 50.0673 31.1962C49.1433 32.2882 48.1878 33.4852 47.2008 34.7872C46.2138 36.0892 45.2373 37.4332 44.2713 38.8192C43.3053 40.2052 42.4443 41.5282 41.6883 42.7882H52.8078V46.9147H35.6403V43.9852C36.2283 42.9142 36.9423 41.7277 37.7823 40.4257C38.6433 39.1027 39.5358 37.7797 40.4598 36.4567C41.3838 35.1127 42.3183 33.8212 43.2633 32.5822C44.2293 31.3222 45.1218 30.1987 45.9408 29.2117H36.1443V25.0852H52.4613V28.4872Z" fill="white"/>
</g>
<g id="wordmark">
<path fill-rule="evenodd" clip-rule="evenodd" d="M108.739 19.4929L106.967 29.5438H100.815C95.0752 29.5438 89.6045 34.1939 88.5905 39.9334L88.1614 42.3764C87.1521 48.116 90.9816 52.7662 96.7211 52.7662H101.852C106.035 52.7662 110.02 49.3798 110.756 45.1967L115.482 18.4089L108.739 19.4929ZM104.374 44.2487C104.147 45.5409 102.984 46.5927 101.692 46.5927H98.5745C95.9948 46.5927 94.2687 44.4986 94.7214 41.9142L94.9903 40.3909C95.4477 37.8111 97.9095 35.7125 100.489 35.7125H105.879L104.374 44.2487Z" fill="#414652"/>
<path d="M156.118 52.7678H162.503L166.54 29.8661H160.155L156.118 52.7678Z" fill="#414652"/>
<path d="M156.331 32.8517L156.331 32.8464C156.491 31.9409 156.651 31.0354 156.811 30.1299C150.259 28.4416 145.155 30.1883 143.077 31.0489C143.077 31.0489 140.112 47.8528 139.245 52.7732H145.634C146.671 46.8926 147.708 41.0106 148.744 35.13C149.703 34.9388 152.824 34.6394 155.849 35.5795C156.009 34.6702 156.17 33.7609 156.331 32.8517Z" fill="#414652"/>
<path fill-rule="evenodd" clip-rule="evenodd" d="M130.914 29.5414H125.948C121.104 29.5414 116.487 33.4653 115.634 38.3087L114.629 44.0011C113.776 48.8446 117.006 52.7685 121.85 52.7685H132.423L133.508 46.6139H123.571C121.958 46.6139 120.878 45.3075 121.166 43.6899L121.199 43.4965H137.219L138.134 38.3087C138.988 33.4653 135.757 29.5414 130.914 29.5414ZM131.725 37.8183L131.687 38.1484H122.161L122.213 37.856C122.5 36.2431 123.972 34.8235 125.589 34.8235H129.31C130.909 34.8235 131.989 36.2195 131.725 37.8183Z" fill="#414652"/>
<path d="M177.639 44.9718C180.538 39.7556 183.734 32.912 185.066 29.8661H191.461C189.284 35.6536 184.296 45.4985 179.463 52.7678H173.073C170.855 45.8492 169.423 36.2093 169.149 29.8661H175.54C175.655 31.9352 176.581 39.6101 177.639 44.9718Z" fill="#414652"/>
<path d="M199.779 53.5911V20.8468H221.892V27.0365H207.15V33.4625H220.238V39.5106H207.15V47.4013H222.979V53.5911H199.779Z" fill="#414652"/>
<path d="M249.684 25.9498C248.676 26.9893 247.479 28.3438 246.093 30.0133C244.707 31.6513 243.274 33.4468 241.793 35.3998C240.313 37.3528 238.848 39.3688 237.399 41.4478C235.95 43.5268 234.659 45.5113 233.525 47.4013H250.204V53.5911H224.453V49.1968C225.335 47.5903 226.406 45.8106 227.666 43.8576C228.957 41.8731 230.296 39.8885 231.682 37.904C233.068 35.888 234.47 33.9508 235.887 32.0923C237.336 30.2023 238.675 28.517 239.903 27.0365H225.209V20.8468H249.684V25.9498Z" fill="#414652"/>
</g>
</g>
</svg>
