<svg width="128" height="80" viewBox="0 0 128 80" fill="none" xmlns="http://www.w3.org/2000/svg">
<g id="logo / payment method / guarantee trust bank gtco / brand">
<g id="logo">
<path d="M95.9982 8H32.002V72H95.9982V8Z" fill="#E04403"/>
<path d="M84.6371 17.0973H68.6361V33.0982H84.6371V17.0973Z" fill="white"/>
<path d="M48.5688 59.8085C45.9621 59.8085 43.1842 59.0824 43.1842 52.752C43.1842 46.4217 46.5356 45.3046 49.3545 45.3046C50.5012 45.2889 51.6354 45.544 52.6649 46.0493V48.3059C51.6016 47.9112 50.4863 47.6741 49.3545 47.6021C47.9245 47.6021 46.0031 48.3692 46.0031 52.5807C46.0031 57.0492 47.4926 57.5855 48.5241 57.5855C49.1677 57.5675 49.8089 57.4991 50.4418 57.3807V53.0946H48.5241L48.323 50.9349H53.2644V59.0824C51.7343 59.5134 50.1576 59.7572 48.5688 59.8085Z" fill="white"/>
<path d="M64.2385 47.9112H61.1329V59.6075H58.3066V47.9112H54.8807V45.4908H64.5625L64.2385 47.9112Z" fill="white"/>
<path d="M70.2709 59.8085C67.9101 59.8085 65.27 59.0637 65.27 52.5472C65.27 46.0306 68.5953 45.2896 70.5316 45.2896C71.4262 45.2711 72.3146 45.4424 73.1382 45.7923V48.0712C72.3444 47.7956 71.5159 47.6327 70.6768 47.5872C69.3065 47.5872 68.0963 48.4138 68.0963 52.5472C68.0963 56.2411 68.9639 57.4886 70.4758 57.4886C71.3835 57.4563 72.2812 57.2868 73.1382 56.9859V59.2648C72.233 59.6511 71.2548 59.8366 70.2709 59.8085Z" fill="white"/>
<path d="M79.6845 59.8085C77.5061 59.8085 74.6425 59.3653 74.6425 52.5472C74.6425 45.729 77.6885 45.2896 79.6845 45.2896C81.6804 45.2896 84.7264 45.7737 84.7264 52.5472C84.7264 59.4249 81.8145 59.8085 79.6845 59.8085ZM79.6845 47.3041C78.2732 47.3041 77.4502 48.2313 77.4502 52.5472C77.4502 56.9263 78.478 57.7939 79.6845 57.7939C80.891 57.7939 81.9001 56.9859 81.9001 52.5472C81.9001 48.3133 81.0697 47.3041 79.6845 47.3041Z" fill="white"/>
</g>
</g>
</svg>
