<svg width="431" height="72" viewBox="0 0 431 72" fill="none" xmlns="http://www.w3.org/2000/svg">
<g id="logo / sub-brand / deriv partners / brand-light" clip-path="url(#clip0_203_53)">
<g id="wordmark">
<path d="M35.0186 1.82853L32.0288 18.7839H21.6504C11.9681 18.7839 2.7392 26.6285 1.02869 36.3108L0.304689 40.4319C-1.39785 50.1143 5.06231 57.959 14.7447 57.959H23.4007C30.4576 57.959 37.1803 52.2464 38.4215 45.1897L46.3933 0L35.0186 1.82853ZM27.6545 43.5905C27.2727 45.7704 25.3101 47.5447 23.1302 47.5447H17.8714C13.5195 47.5447 10.6076 44.012 11.3714 39.6522L11.8249 37.0825C12.5966 32.7306 16.7495 29.1902 21.1014 29.1902H30.1938L27.6545 43.5905ZM114.946 57.9581L121.756 19.324H132.529L125.718 57.9581H114.938H114.946ZM116.111 19.7695C115.571 22.8339 115.029 25.8983 114.489 28.9627C109.386 27.3768 104.12 27.8818 102.503 28.2044C100.756 38.1247 99.0063 48.0474 97.257 57.9677H86.4776C87.9414 49.6671 92.9423 21.3197 92.9423 21.3197C96.4483 19.8679 105.058 16.9214 116.111 19.7695ZM72.4347 18.7773H64.0493C55.8785 18.7773 48.09 25.3966 46.6498 33.5673L44.9553 43.1702C43.5151 51.3408 48.9651 57.9603 57.1359 57.9603H74.973L76.8028 47.5778H60.0394C57.3188 47.5778 55.4967 45.3739 55.9821 42.6451L56.0379 42.3189H83.064L84.6075 33.5673C86.0473 25.3966 80.5976 18.7773 72.4269 18.7773H72.4347ZM73.7952 32.7399L73.7317 33.2968H57.661L57.7485 32.8036C58.2335 30.0827 60.716 27.688 63.4445 27.688H69.7219C72.419 27.688 74.2411 30.0429 73.7952 32.7399ZM174.559 19.324C170.887 29.0872 162.472 45.6953 154.319 57.9581H143.539C139.797 46.2868 137.381 30.0248 136.92 19.324H147.7C147.895 22.8146 149.458 35.7617 151.241 44.8066C156.132 36.0072 161.524 24.4623 163.771 19.324H174.559Z" fill="#FF444F"/>
<path d="M194.08 18.3574C196.508 18.3574 198.621 18.7081 200.424 19.4034C202.222 20.0927 203.732 21.048 204.947 22.2633C206.158 23.4725 207.102 24.9115 207.775 26.5682C208.446 28.2309 208.842 30.0508 208.963 32.0279C209.174 35.4501 208.857 38.7573 208.014 41.9497C207.17 45.1421 205.749 47.9778 203.746 50.4567C201.743 52.9357 199.14 54.9128 195.94 56.4001C192.736 57.8875 188.882 58.6312 184.375 58.6312C183.827 58.6312 183.233 58.6009 182.586 58.5526C181.939 58.5042 181.363 58.4317 180.864 58.3289L178.492 71.7031H171.581L180.646 20.9634C182.673 20.1169 184.901 19.476 187.326 19.0286C189.75 18.5812 192 18.3574 194.08 18.3574ZM181.92 52.5366C182.418 52.6333 182.958 52.6999 183.527 52.724C184.097 52.7482 184.657 52.7603 185.201 52.7603C188.025 52.7603 190.519 52.2162 192.68 51.1278C194.841 50.0335 196.646 48.5643 198.091 46.702C199.537 44.8458 200.606 42.7176 201.302 40.3172C201.994 37.9109 202.263 35.4017 202.101 32.7716C202.034 31.6833 201.845 30.6191 201.533 29.5792C201.221 28.5392 200.705 27.6202 199.988 26.8282C199.272 26.0361 198.329 25.4073 197.16 24.9357C195.992 24.4641 194.517 24.2283 192.733 24.2283C191.494 24.2283 190.364 24.3432 189.338 24.5669C188.308 24.7846 187.457 24.9962 186.774 25.1957L181.92 52.5366ZM238.819 58.4075C238.537 57.8633 238.252 57.2526 237.963 56.5876C237.674 55.9164 237.434 55.209 237.237 54.4653C236.21 55.4569 234.808 56.4485 233.037 57.4401C231.266 58.4316 229.044 58.9274 226.368 58.9274C224.189 58.9274 222.299 58.5768 220.697 57.8875C219.091 57.1922 217.756 56.2248 216.691 54.9853C215.623 53.7519 214.802 52.2887 214.229 50.6018C213.654 48.921 213.305 47.0648 213.18 45.0333C212.975 41.7139 213.335 38.4731 214.253 35.2989C215.173 32.1307 216.671 29.3071 218.747 26.8282C220.826 24.3553 223.499 22.3479 226.772 20.8122C230.045 19.2765 233.937 18.5086 238.444 18.5086C239.781 18.5086 241.35 18.6598 243.152 18.956C244.954 19.2523 246.52 19.7481 247.85 20.4434L243.566 43.7696C243.385 44.9123 243.243 46.0007 243.135 47.0406C243.024 48.0806 243.006 49.1689 243.076 50.3056C243.146 51.4483 243.314 52.5971 243.585 53.764C243.853 54.9249 244.277 56.1764 244.855 57.5126L238.819 58.4075ZM227.419 53.0566C229.499 53.0566 231.255 52.6092 232.685 51.7204C234.117 50.8255 235.341 49.7856 236.356 48.6005C236.356 47.7601 236.386 46.8774 236.454 45.9583C236.522 45.0454 236.628 44.1143 236.766 43.1771L240.092 24.7483C239.838 24.6515 239.422 24.579 238.851 24.5246C238.279 24.4762 237.77 24.452 237.323 24.452C234.502 24.452 231.984 24.9962 229.772 26.0845C227.56 27.1789 225.705 28.6239 224.207 30.4317C222.707 32.2395 221.601 34.3496 220.881 36.75C220.161 39.1503 219.883 41.6655 220.045 44.2896C220.109 45.3295 220.273 46.3816 220.535 47.4457C220.8 48.5159 221.218 49.453 221.788 50.2693C222.358 51.0855 223.092 51.7566 223.991 52.2766C224.888 52.7966 226.032 53.0566 227.419 53.0566ZM270.241 18.5086C270.837 18.5086 271.507 18.5328 272.253 18.5812C273 18.6356 273.734 18.7202 274.461 18.8411C275.185 18.9681 275.852 19.089 276.452 19.216C277.055 19.3369 277.508 19.476 277.816 19.6211L276.179 25.6431C275.163 25.2441 274.005 24.9478 272.708 24.7483C271.405 24.5548 270.163 24.452 268.975 24.452C267.935 24.452 266.908 24.5246 265.905 24.6757C264.898 24.8269 264.03 25.0204 263.302 25.2683L257.438 57.96H250.53L257.16 20.8122C259.097 20.1169 261.194 19.5606 263.445 19.1435C265.699 18.7202 267.965 18.5086 270.241 18.5086ZM289.226 59C285.514 59 282.737 58.1838 280.904 56.5513C279.068 54.9128 278.057 52.5366 277.865 49.4168C277.74 47.3852 277.925 44.7854 278.426 41.6172L284.339 8.55051L291.473 7.36546L289.313 19.3248H302.463L301.408 25.1231H288.258L285.222 42.2097C284.772 44.5375 284.598 46.569 284.705 48.3043C284.805 49.9367 285.325 51.1157 286.261 51.8292C287.197 52.5487 288.703 52.9054 290.783 52.9054C292.219 52.9054 293.617 52.6757 294.975 52.2041C296.334 51.7325 297.371 51.2971 298.091 50.9041L298.971 56.7689C298.255 57.2164 297.021 57.7001 295.273 58.22C293.521 58.74 291.506 59 289.226 59ZM309.517 57.96H302.609L309.239 20.8122C311.473 20.1169 313.905 19.5606 316.528 19.1435C319.15 18.7202 321.504 18.5086 323.584 18.5086C325.812 18.5086 327.751 18.817 329.4 19.4397C331.047 20.0564 332.398 20.8969 333.455 21.961C334.513 23.0312 335.32 24.319 335.885 25.8245C336.449 27.3361 336.786 28.9867 336.896 30.7703C336.966 31.907 336.94 33.1102 336.819 34.3738C336.699 35.6314 336.53 36.9072 336.31 38.195L332.773 57.96H325.863L329.122 39.6824C329.381 38.2978 329.63 36.883 329.865 35.4501C330.097 34.0111 330.177 32.6507 330.097 31.3628C329.975 29.3797 329.327 27.7351 328.158 26.4231C326.986 25.111 324.917 24.452 321.945 24.452C320.706 24.452 319.498 24.5246 318.316 24.6757C317.137 24.8269 316.158 25.0204 315.381 25.2683L309.517 57.96ZM357.943 58.9274C355.419 58.9274 353.214 58.5647 351.341 57.8512C349.461 57.1317 347.865 56.1401 346.55 54.8765C345.233 53.6128 344.227 52.1436 343.531 50.4567C342.832 48.7759 342.426 46.9922 342.31 45.1058C342.097 41.6414 342.411 38.2978 343.253 35.0752C344.095 31.8586 345.404 29.0108 347.183 26.5319C348.963 24.059 351.193 22.088 353.879 20.6248C356.561 19.1676 359.663 18.436 363.179 18.436C365.211 18.436 366.971 18.696 368.466 19.216C369.958 19.736 371.19 20.4434 372.161 21.3322C373.131 22.221 373.878 23.2549 374.394 24.4157C374.913 25.5827 375.207 26.7798 375.284 28.0193C375.427 30.3471 375.128 32.3181 374.386 33.9264C373.642 35.5347 372.609 36.883 371.292 37.9774C369.971 39.0657 368.4 39.9061 366.58 40.4986C364.76 41.0972 362.858 41.5688 360.872 41.9134C358.885 42.2581 356.868 42.4939 354.824 42.6208C352.775 42.7418 350.839 42.8566 349.012 42.9534C348.985 43.3464 348.981 43.6729 348.996 43.9208L349.033 44.5133C349.103 45.65 349.305 46.7323 349.64 47.742C349.974 48.7577 350.537 49.6526 351.328 50.4204C352.119 51.1883 353.184 51.7929 354.523 52.2403C355.863 52.6878 357.597 52.9054 359.728 52.9054C360.668 52.9054 361.642 52.8208 362.647 52.6454C363.65 52.4761 364.603 52.2524 365.503 51.9804C366.402 51.7083 367.201 51.4362 367.904 51.1641C368.604 50.892 369.099 50.6321 369.38 50.3842L370.336 56.249C369.378 56.7992 367.815 57.3796 365.649 57.9963C363.483 58.613 360.915 58.9274 357.943 58.9274ZM349.58 37.675C352.446 37.5783 355.058 37.3909 357.421 37.1188C359.78 36.8467 361.807 36.3751 363.498 35.71C365.192 35.0389 366.485 34.138 367.382 32.9953C368.276 31.8586 368.669 30.3712 368.556 28.5392C368.528 28.0918 368.412 27.6202 368.209 27.1244C368.003 26.6347 367.679 26.1752 367.233 25.7519C366.787 25.3348 366.182 24.9841 365.424 24.712C364.664 24.4399 363.737 24.3069 362.648 24.3069C360.916 24.3069 359.315 24.6757 357.85 25.4194C356.387 26.1631 355.096 27.1426 353.982 28.3518C352.869 29.5671 351.94 30.9819 351.196 32.5902C350.454 34.1985 349.914 35.8914 349.58 37.675ZM397.284 18.5086C397.88 18.5086 398.549 18.5328 399.296 18.5812C400.043 18.6356 400.777 18.7202 401.504 18.8411C402.228 18.9681 402.894 19.089 403.495 19.216C404.098 19.3369 404.551 19.476 404.859 19.6211L403.222 25.6431C402.206 25.2441 401.048 24.9478 399.751 24.7483C398.448 24.5548 397.205 24.452 396.017 24.452C394.977 24.452 393.951 24.5246 392.947 24.6757C391.941 24.8269 391.073 25.0204 390.345 25.2683L384.481 57.96H377.573L384.203 20.8122C386.14 20.1169 388.237 19.5606 390.488 19.1435C392.741 18.7202 395.008 18.5086 397.284 18.5086ZM412.344 53.1291C413.383 53.1291 414.43 53.0324 415.481 52.8329C416.533 52.6333 417.457 52.3129 418.245 51.8655C419.035 51.4241 419.668 50.8134 420.141 50.0456C420.614 49.2777 420.815 48.3284 420.745 47.1857C420.699 46.442 420.535 45.7891 420.252 45.2207C419.969 44.6524 419.54 44.1143 418.966 43.6185C418.388 43.1287 417.678 42.645 416.833 42.1734C415.985 41.7018 414.976 41.1698 413.799 40.5772C412.626 40.0331 411.553 39.4889 410.579 38.9387C409.602 38.3945 408.734 37.7537 407.969 37.01C407.207 36.2663 406.594 35.3896 406.135 34.3738C405.677 33.3581 405.405 32.1307 405.316 30.6917C405.088 26.9793 406.24 23.9925 408.777 21.7433C411.314 19.4881 415.132 18.3574 420.232 18.3574C422.611 18.3574 424.718 18.5932 426.555 19.0649C428.392 19.5365 429.67 19.9718 430.386 20.3648L428.134 26.0119C427.414 25.6189 426.276 25.1957 424.713 24.7483C423.15 24.3069 421.428 24.0832 419.544 24.0832C418.604 24.0832 417.67 24.1799 416.739 24.3795C415.811 24.579 414.976 24.9115 414.24 25.3831C413.498 25.8547 412.92 26.4714 412.495 27.2393C412.071 28.0072 411.895 28.9383 411.962 30.0266C412.045 31.3628 412.632 32.4632 413.726 33.3339C414.819 34.1985 416.435 35.1054 418.572 36.0426C419.896 36.6351 421.086 37.2458 422.139 37.8625C423.194 38.4852 424.101 39.1745 424.867 39.9424C425.631 40.7102 426.234 41.6172 426.67 42.6571C427.106 43.6971 427.366 44.9365 427.454 46.3695C427.582 48.4494 427.299 50.2814 426.604 51.8655C425.91 53.4556 424.887 54.7677 423.54 55.8076C422.192 56.8475 420.568 57.6275 418.668 58.1475C416.768 58.6674 414.68 58.9274 412.401 58.9274C410.717 58.9274 409.186 58.8126 407.812 58.5888C406.435 58.3712 405.231 58.1112 404.197 57.8089C403.163 57.5126 402.304 57.2043 401.616 56.8838C400.928 56.5634 400.401 56.3034 400.044 56.1039L402.372 50.4567C402.729 50.6562 403.228 50.9041 403.866 51.2004C404.504 51.4967 405.263 51.7929 406.149 52.0892C407.035 52.3855 408.002 52.6333 409.054 52.8329C410.107 53.0324 411.204 53.1291 412.344 53.1291Z" fill="#414652"/>
</g>
</g>
<defs>
<clipPath id="clip0_203_53">
<rect width="431" height="72" fill="white"/>
</clipPath>
</defs>
</svg>
