<svg width="128" height="80" viewBox="0 0 128 80" fill="none" xmlns="http://www.w3.org/2000/svg">
<g id="logo / payment method / mandiri / brand-light">
<path id="wordmark" d="M34.6106 42.1468C39.4541 42.1468 40.8497 45.2217 40.8497 48.5016L40.8599 53.9851C40.8415 55.1982 40.9136 56.411 41.0754 57.6135H37.6275L37.3812 55.9428H37.2889C36.1984 57.2731 34.5563 58.029 32.8353 57.9927C31.5995 58.0633 30.3892 57.6217 29.49 56.772C28.5907 55.9223 28.0821 54.7398 28.0841 53.5034C28.0841 49.6905 31.4602 47.7738 37.0426 47.8046V47.4766C37.0426 46.4516 36.6424 44.8425 33.9641 44.8425C32.5374 44.8469 31.1378 45.2326 29.9107 45.9597L29.1616 43.4793C30.8308 42.5687 32.7091 42.1094 34.6106 42.1468ZM73.6768 36.4788V53.3701C73.6768 54.9178 73.7383 56.5885 73.7999 57.6135H70.393L70.2391 55.2253H70.1775C69.1729 56.9802 67.2743 58.0311 65.2519 57.9517C61.6603 57.9517 58.8076 54.8768 58.8076 50.244C58.8076 45.2012 61.8861 42.1878 65.5598 42.1878C67.225 42.0716 68.8319 42.8238 69.8081 44.1762H69.8697V36.4788H73.6768ZM21.332 42.1878C23.8358 42.1878 26.3807 43.8995 26.3807 48.7271V57.6135H22.6557V49.2805C22.6557 46.7796 21.7835 45.2934 19.9569 45.2934C18.7213 45.3398 17.6506 46.1624 17.2889 47.3434C17.1771 47.7582 17.1151 48.1848 17.1042 48.6143V57.6545H13.3894V48.8808C13.3894 46.7796 12.548 45.2934 10.783 45.2934C9.49584 45.3541 8.39406 46.2354 8.05336 47.4766C7.90229 47.8723 7.82912 48.2934 7.83787 48.7168V57.634H4.12314V47.0256C4.12314 45.2934 4.12314 43.838 4 42.5363H7.28374L7.40688 44.7605H7.49923C8.4216 43.1921 10.0913 42.222 11.9003 42.1868L12.1478 42.1878C13.9935 42.1382 15.6705 43.2549 16.3345 44.9757H16.3961C16.8567 44.2088 17.4933 43.5624 18.2535 43.0898C19.1542 42.4628 20.2349 42.1461 21.332 42.1878ZM51.7989 42.1878C54.4259 42.1878 57.1555 43.8995 57.1555 48.6656V57.6135H53.3484V49.096C53.3484 46.9334 52.5377 45.2934 50.4649 45.2934C49.1093 45.3159 47.916 46.1914 47.489 47.4766C47.3715 47.8791 47.3195 48.2978 47.335 48.7168V57.5725H43.4869V47.0256C43.4869 45.2934 43.4869 43.838 43.3638 42.5363H46.7091L46.8938 44.8015H46.9964C48.0088 43.1296 49.8435 42.1311 51.7989 42.1878ZM80.2648 42.5363V57.6135H76.3756V42.5363H80.2648ZM91.3474 42.5363V45.8777C90.9833 45.7976 90.6118 45.7564 90.2391 45.7547C88.5362 45.7118 87.0713 46.9502 86.8322 48.6348C86.7554 49.0232 86.7142 49.4177 86.7091 49.8135V57.6135H82.9123L82.9119 46.5516C82.9098 44.9334 82.8947 43.7047 82.7891 42.5363H86.1036L86.2268 45.4062H86.3499C86.9221 43.6407 88.5979 42.469 90.4546 42.5363C90.7514 42.5055 91.0506 42.5055 91.3474 42.5363ZM96.981 42.5363V57.6135H93.1432V42.5363H96.981ZM31.9015 53.0627C31.8678 53.6495 32.088 54.2226 32.5061 54.6363C32.9242 55.05 33.5 55.2645 34.0872 55.2253C35.4187 55.2569 36.6195 54.4297 37.0631 53.1754C37.1463 52.903 37.1878 52.6197 37.1863 52.3349L37.1657 50.244C34.4669 50.1825 31.9015 50.7667 31.9015 53.0627ZM66.4936 45.0679C64.041 45.0679 62.6762 47.2306 62.6762 50.0493C62.6762 52.8679 64.041 54.8153 66.4628 54.8153C68.0588 54.8081 69.4303 53.6822 69.7465 52.1197C69.8364 51.7543 69.8778 51.3787 69.8697 51.0025V48.7783C69.8714 48.4345 69.8404 48.0913 69.7773 47.7533C69.4677 46.1883 68.0907 45.0622 66.4936 45.0679Z" fill="black"/>
<path id="logo" d="M120.901 26.5981C118.992 24.4252 116.971 25.4091 115.37 26.2086C114.693 26.5366 109.808 29.2835 109.808 29.2835C107.908 30.184 105.641 29.7295 104.236 28.1663C104.157 28.0712 104.088 27.9681 104.031 27.8588L103.836 27.5308C103.529 26.9759 103.187 26.4417 102.81 25.9319C102.57 25.627 102.313 25.3362 102.04 25.0606C100.213 23.2157 97.2888 21.9243 92.394 24.2612C90.0851 25.6039 82.5428 29.9087 82.5428 29.9087C80.5745 30.8516 78.2153 30.3166 76.8476 28.6173L76.7655 28.484L76.6731 28.3303L76.1601 27.5718C75.9548 27.2438 75.7291 26.9158 75.4725 26.5468C75.216 26.1778 74.98 25.9524 74.7029 25.6654C72.8763 23.8307 69.9723 22.5905 65.1288 24.8454L55.3904 30.4109L50.4033 33.2603L52.9789 36.4172C54.5316 38.2284 57.1131 38.7635 59.2591 37.7189L68.0123 32.6659C75.4623 28.566 79.1359 32.4814 80.7573 35.0848C80.8189 35.1668 80.8599 35.259 80.9112 35.3308V35.4128L81.0959 35.7202C81.8527 36.9378 83.1912 37.6723 84.6259 37.6574C85.4107 37.6112 86.1688 37.3564 86.8219 36.9194L95.2878 32.1021C102.83 28.0023 106.576 32.1021 108.166 34.726C108.289 34.9468 108.426 35.1591 108.577 35.3615C109.298 36.4579 110.527 37.1141 111.84 37.1039C112.565 37.0345 113.265 36.807 113.892 36.4377L124 30.6057C123.048 29.2091 122.013 27.8708 120.901 26.5981Z" fill="#FAB900"/>
</g>
</svg>
