<svg width="138" height="59" viewBox="0 0 138 59" fill="none" xmlns="http://www.w3.org/2000/svg">
<g id="logo / deriv product / deriv nakala / black / wordmark vertical">
<g id="wordmark">
<path fill-rule="evenodd" clip-rule="evenodd" d="M11.4985 0.736786L10.6124 5.76223H7.53641C4.6667 5.76223 1.93141 8.0873 1.42444 10.9571L1.20986 12.1785C0.705251 15.0483 2.61995 17.3734 5.48965 17.3734H8.05517C10.1467 17.3734 12.1392 15.6803 12.5071 13.5887L14.8698 0.194824L11.4985 0.736786ZM9.31594 13.1147C9.20275 13.7608 8.62109 14.2867 7.975 14.2867H6.41635C5.12652 14.2867 4.26349 13.2397 4.48985 11.9474L4.62426 11.1858C4.85298 9.89593 6.08387 8.84658 7.3737 8.84658H10.0685L9.31594 13.1147Z" fill="#414652"/>
<path d="M35.1888 17.3745H38.3815L40.3999 5.92365H37.2072L35.1888 17.3745Z" fill="#414652"/>
<path d="M35.2942 7.41461C35.3742 6.96141 35.4543 6.50822 35.5341 6.05503C32.258 5.21087 29.7063 6.08418 28.6672 6.51449C28.6672 6.51449 27.185 14.9165 26.7511 17.3767H29.946C30.4644 14.4364 30.9829 11.4954 31.5007 8.55506C31.9802 8.45945 33.5407 8.30976 35.0533 8.77981C35.1334 8.32517 35.2137 7.87053 35.294 7.41589L35.2942 7.41461Z" fill="#414652"/>
<path fill-rule="evenodd" clip-rule="evenodd" d="M22.5846 5.76105H20.1017C17.68 5.76105 15.3716 7.72296 14.9447 10.1447L14.4425 12.9909C14.0156 15.4126 15.6309 17.3746 18.0526 17.3746H23.3393L23.8816 14.2973H18.9132C18.1068 14.2973 17.5668 13.6441 17.7107 12.8353L17.7272 12.7386H25.7373L26.1948 10.1447C26.6215 7.72296 25.0063 5.76105 22.5846 5.76105ZM22.9902 9.89946L22.9714 10.0645H18.2083L18.2342 9.91832C18.3779 9.11186 19.1137 8.40209 19.9224 8.40209H21.7829C22.5823 8.40209 23.1223 9.10008 22.9902 9.89946Z" fill="#414652"/>
<path d="M45.9478 13.4765C47.3975 10.8684 48.9956 7.4466 49.6616 5.92365H52.8591C51.7707 8.81738 49.2764 13.7399 46.8603 17.3745H43.6652C42.5561 13.9152 41.84 9.09527 41.7033 5.92365H44.8985C44.9561 6.95822 45.4192 10.7956 45.9478 13.4765Z" fill="#414652"/>
<path d="M21.9713 58.2856C19.8608 54.5371 17.577 50.8359 15.12 47.1819C12.663 43.5279 10.0485 40.0786 7.27651 36.8341V58.2856H0V25.5414H6.00076C7.04026 26.5809 8.19001 27.8566 9.45001 29.3686C10.71 30.8806 11.9858 32.5029 13.2773 34.2354C14.6003 35.9364 15.9075 37.7161 17.199 39.5746C18.4905 41.4016 19.7033 43.1656 20.8373 44.8666V25.5414H28.161V58.2856H21.9713Z" fill="#414652"/>
<path d="M42.3766 53.3716C43.0696 53.3716 43.7311 53.3559 44.3611 53.3244C44.9911 53.2929 45.4951 53.2456 45.8731 53.1826V47.8434C45.5896 47.7804 45.1644 47.7174 44.5974 47.6544C44.0304 47.5914 43.5106 47.5599 43.0381 47.5599C42.3766 47.5599 41.7466 47.6071 41.1481 47.7016C40.5811 47.7646 40.0771 47.9064 39.6361 48.1269C39.1951 48.3474 38.8486 48.6466 38.5966 49.0246C38.3446 49.4026 38.2186 49.8751 38.2186 50.4421C38.2186 51.5446 38.5809 52.3164 39.3054 52.7574C40.0614 53.1669 41.0851 53.3716 42.3766 53.3716ZM41.8096 32.7706C43.8886 32.7706 45.6211 33.0069 47.0071 33.4794C48.3931 33.9519 49.4956 34.6291 50.3146 35.5111C51.1651 36.3931 51.7636 37.4641 52.1101 38.7241C52.4566 39.9841 52.6299 41.3859 52.6299 42.9294V57.5769C51.6219 57.7974 50.2201 58.0494 48.4246 58.3329C46.6291 58.6479 44.4556 58.8054 41.9041 58.8054C40.2976 58.8054 38.8329 58.6636 37.5099 58.3801C36.2184 58.0966 35.1001 57.6399 34.1551 57.0099C33.2101 56.3484 32.4856 55.4979 31.9816 54.4584C31.4776 53.4189 31.2256 52.1431 31.2256 50.6311C31.2256 49.1821 31.5091 47.9536 32.0761 46.9456C32.6746 45.9376 33.4621 45.1344 34.4386 44.5359C35.4151 43.9374 36.5334 43.5121 37.7934 43.2601C39.0534 42.9766 40.3606 42.8349 41.7151 42.8349C42.6286 42.8349 43.4319 42.8821 44.1249 42.9766C44.8494 43.0396 45.4321 43.1341 45.8731 43.2601V42.5986C45.8731 41.4016 45.5109 40.4409 44.7864 39.7164C44.0619 38.9919 42.8019 38.6296 41.0064 38.6296C39.8094 38.6296 38.6281 38.7241 37.4626 38.9131C36.2971 39.0706 35.2891 39.3069 34.4386 39.6219L33.5409 33.9519C33.9504 33.8259 34.4544 33.6999 35.0529 33.5739C35.6829 33.4164 36.3601 33.2904 37.0846 33.1959C37.8091 33.0699 38.5651 32.9754 39.3526 32.9124C40.1716 32.8179 40.9906 32.7706 41.8096 32.7706Z" fill="#414652"/>
<path d="M63.6739 42.4096C64.3669 41.6536 65.0756 40.8661 65.8001 40.0471C66.5561 39.2281 67.2806 38.4249 67.9736 37.6374C68.6666 36.8184 69.3124 36.0466 69.9109 35.3221C70.5409 34.5976 71.0764 33.9676 71.5174 33.4321H79.8806C78.2111 35.3536 76.5731 37.1964 74.9666 38.9604C73.3916 40.6929 71.6591 42.4884 69.7691 44.3469C70.7141 45.1974 71.6906 46.2211 72.6986 47.4181C73.7066 48.5836 74.6831 49.7964 75.6281 51.0564C76.5731 52.3164 77.4394 53.5764 78.2269 54.8364C79.0144 56.0964 79.6759 57.2461 80.2114 58.2856H72.1316C71.6276 57.4666 71.0449 56.5689 70.3834 55.5924C69.7534 54.5844 69.0761 53.5921 68.3516 52.6156C67.6271 51.6076 66.8554 50.6469 66.0364 49.7334C65.2489 48.8199 64.4614 48.0481 63.6739 47.4181V58.2856H56.6336V22.7536L63.6739 21.6196V42.4096Z" fill="#414652"/>
<path d="M90.6695 53.3716C91.3625 53.3716 92.024 53.3559 92.654 53.3244C93.284 53.2929 93.788 53.2456 94.166 53.1826V47.8434C93.8825 47.7804 93.4573 47.7174 92.8903 47.6544C92.3233 47.5914 91.8035 47.5599 91.331 47.5599C90.6695 47.5599 90.0395 47.6071 89.441 47.7016C88.874 47.7646 88.37 47.9064 87.929 48.1269C87.488 48.3474 87.1415 48.6466 86.8895 49.0246C86.6375 49.4026 86.5115 49.8751 86.5115 50.4421C86.5115 51.5446 86.8738 52.3164 87.5983 52.7574C88.3543 53.1669 89.378 53.3716 90.6695 53.3716ZM90.1025 32.7706C92.1815 32.7706 93.914 33.0069 95.3 33.4794C96.686 33.9519 97.7885 34.6291 98.6075 35.5111C99.458 36.3931 100.057 37.4641 100.403 38.7241C100.75 39.9841 100.923 41.3859 100.923 42.9294V57.5769C99.9148 57.7974 98.513 58.0494 96.7175 58.3329C94.922 58.6479 92.7485 58.8054 90.197 58.8054C88.5905 58.8054 87.1258 58.6636 85.8028 58.3801C84.5113 58.0966 83.393 57.6399 82.448 57.0099C81.503 56.3484 80.7785 55.4979 80.2745 54.4584C79.7705 53.4189 79.5185 52.1431 79.5185 50.6311C79.5185 49.1821 79.802 47.9536 80.369 46.9456C80.9675 45.9376 81.755 45.1344 82.7315 44.5359C83.708 43.9374 84.8263 43.5121 86.0863 43.2601C87.3463 42.9766 88.6535 42.8349 90.008 42.8349C90.9215 42.8349 91.7248 42.8821 92.4178 42.9766C93.1423 43.0396 93.725 43.1341 94.166 43.2601V42.5986C94.166 41.4016 93.8038 40.4409 93.0793 39.7164C92.3548 38.9919 91.0948 38.6296 89.2993 38.6296C88.1023 38.6296 86.921 38.7241 85.7555 38.9131C84.59 39.0706 83.582 39.3069 82.7315 39.6219L81.8338 33.9519C82.2433 33.8259 82.7473 33.6999 83.3458 33.5739C83.9758 33.4164 84.653 33.2904 85.3775 33.1959C86.102 33.0699 86.858 32.9754 87.6455 32.9124C88.4645 32.8179 89.2835 32.7706 90.1025 32.7706Z" fill="#414652"/>
<path d="M114.849 58.7581C112.801 58.7266 111.132 58.5061 109.84 58.0966C108.58 57.6871 107.572 57.1201 106.816 56.3956C106.092 55.6396 105.588 54.7419 105.304 53.7024C105.052 52.6314 104.926 51.4344 104.926 50.1114V22.7536L111.967 21.6196V48.6939C111.967 49.3239 112.014 49.8909 112.108 50.3949C112.203 50.8989 112.376 51.3241 112.628 51.6706C112.912 52.0171 113.305 52.3006 113.809 52.5211C114.313 52.7416 114.991 52.8834 115.841 52.9464L114.849 58.7581Z" fill="#414652"/>
<path d="M127.704 53.3716C128.397 53.3716 129.058 53.3559 129.688 53.3244C130.318 53.2929 130.822 53.2456 131.2 53.1826V47.8434C130.917 47.7804 130.491 47.7174 129.924 47.6544C129.357 47.5914 128.838 47.5599 128.365 47.5599C127.704 47.5599 127.074 47.6071 126.475 47.7016C125.908 47.7646 125.404 47.9064 124.963 48.1269C124.522 48.3474 124.176 48.6466 123.924 49.0246C123.672 49.4026 123.546 49.8751 123.546 50.4421C123.546 51.5446 123.908 52.3164 124.632 52.7574C125.388 53.1669 126.412 53.3716 127.704 53.3716ZM127.137 32.7706C129.216 32.7706 130.948 33.0069 132.334 33.4794C133.72 33.9519 134.823 34.6291 135.642 35.5111C136.492 36.3931 137.091 37.4641 137.437 38.7241C137.784 39.9841 137.957 41.3859 137.957 42.9294V57.5769C136.949 57.7974 135.547 58.0494 133.752 58.3329C131.956 58.6479 129.783 58.8054 127.231 58.8054C125.625 58.8054 124.16 58.6636 122.837 58.3801C121.545 58.0966 120.427 57.6399 119.482 57.0099C118.537 56.3484 117.813 55.4979 117.309 54.4584C116.805 53.4189 116.553 52.1431 116.553 50.6311C116.553 49.1821 116.836 47.9536 117.403 46.9456C118.002 45.9376 118.789 45.1344 119.766 44.5359C120.742 43.9374 121.86 43.5121 123.12 43.2601C124.38 42.9766 125.688 42.8349 127.042 42.8349C127.956 42.8349 128.759 42.8821 129.452 42.9766C130.176 43.0396 130.759 43.1341 131.2 43.2601V42.5986C131.2 41.4016 130.838 40.4409 130.113 39.7164C129.389 38.9919 128.129 38.6296 126.333 38.6296C125.136 38.6296 123.955 38.7241 122.79 38.9131C121.624 39.0706 120.616 39.3069 119.766 39.6219L118.868 33.9519C119.277 33.8259 119.781 33.6999 120.38 33.5739C121.01 33.4164 121.687 33.2904 122.412 33.1959C123.136 33.0699 123.892 32.9754 124.68 32.9124C125.499 32.8179 126.318 32.7706 127.137 32.7706Z" fill="#414652"/>
</g>
</g>
</svg>
