<svg width="128" height="80" viewBox="0 0 128 80" fill="none" xmlns="http://www.w3.org/2000/svg">
<g id="logo / payment method / directa24 / black">
<g id="logo">
<path fill-rule="evenodd" clip-rule="evenodd" d="M103.417 29.6949C102.64 29.8156 102.115 30.072 101.604 30.5803C101.302 30.8807 101.211 31.0076 101.019 31.398C100.731 31.9848 100.664 32.3525 100.628 33.5488L100.601 34.4427H103.609L103.624 33.3943C103.638 32.3793 103.642 32.3388 103.749 32.1252C103.889 31.8461 104.092 31.7058 104.357 31.7058C105.165 31.7058 105.349 32.7484 104.784 34.1239C104.439 34.9628 103.541 36.5472 101.629 39.6883L100.616 41.3513L100.615 43.2716H107.943V40.9761H106.133C105.138 40.9761 104.323 40.9658 104.323 40.9533C104.323 40.9407 104.598 40.5186 104.934 40.0152C106.204 38.1115 107.177 36.5461 107.537 35.8279C107.776 35.3509 108.02 34.6824 108.131 34.2031C108.268 33.611 108.267 32.6108 108.129 32.1336C107.659 30.4999 106.263 29.6145 104.191 29.6355C103.96 29.6378 103.612 29.6645 103.417 29.6949ZM108.425 38.7026L108.429 40.9319H112.402V43.2716H115.757V40.9319H116.132C116.338 40.9319 116.507 40.9425 116.507 40.9555C116.507 40.9684 116.46 41.0727 116.402 41.1872C116.295 41.4018 116.198 41.8521 116.198 42.1402C116.198 42.343 116.333 42.6161 116.481 42.713C116.64 42.8173 116.998 42.8074 117.226 42.6923C117.471 42.5687 117.927 42.2928 118 42.2232C118.032 42.1928 118.085 42.168 118.118 42.168C118.15 42.168 118.294 42.0537 118.438 41.9141C119.308 41.0702 120.345 40.2256 120.511 40.2256C120.542 40.2256 120.627 40.3072 120.699 40.407C120.853 40.6199 121.271 41.4252 121.407 41.7717C121.459 41.9047 121.57 42.1593 121.653 42.3374C121.736 42.5157 121.804 42.6795 121.804 42.7016C121.804 42.7237 121.819 42.7418 121.838 42.7418C121.856 42.7418 121.896 42.7987 121.927 42.8683C121.982 42.9922 122.381 43.428 122.599 43.6027C122.66 43.6512 122.816 43.7436 122.947 43.8078C123.212 43.9378 123.319 43.9254 123.608 43.7316C123.815 43.5929 123.914 43.4085 123.972 43.0577C124.014 42.8055 124.01 42.7165 123.951 42.5106C123.911 42.3754 123.879 42.2082 123.879 42.1391C123.879 42.07 123.85 41.9241 123.815 41.8148C123.779 41.7056 123.721 41.5268 123.685 41.4175C123.586 41.1098 123.244 40.3555 122.973 39.8424C122.432 38.8209 121.484 37.7713 120.961 37.6144C120.809 37.5692 120.753 37.5787 120.41 37.7083C120 37.8632 119.05 38.4169 118.582 38.774C118.148 39.105 117.075 40.1412 116.902 40.3958C116.818 40.5194 116.735 40.6212 116.717 40.6218C116.698 40.6224 116.684 40.176 116.684 39.6297V38.6364H115.757V29.8959L111.32 29.8971L108.425 38.7026ZM112.386 38.6225C112.377 38.6314 112.043 38.6332 111.644 38.6265L110.918 38.6144L112.379 33.0339L112.391 35.8201C112.397 37.3525 112.395 38.6136 112.386 38.6225ZM119.866 41.0395C119.533 41.1657 119.127 41.5365 118.825 41.9914C118.72 42.1492 118.597 42.3181 118.551 42.3666C118.506 42.4152 118.372 42.6328 118.255 42.8503C116.933 45.302 114.437 47.5281 111.386 48.9768C110.406 49.442 108.991 49.9796 108.12 50.2174C107.986 50.2538 107.688 50.336 107.457 50.4C105.42 50.9649 102.532 51.3003 100.196 51.2432C99.1614 51.218 97.9705 51.1365 97.2758 51.0433C96.6537 50.9599 95.9991 50.8651 95.9136 50.8461C95.8651 50.8353 95.7062 50.8053 95.5605 50.7794C95.3155 50.7359 94.838 50.6413 94.4127 50.552C92.969 50.249 90.8452 49.5548 89.3407 48.8941C87.9012 48.262 86.5213 47.5099 85.1552 46.6129C84.8709 46.4261 84.6241 46.2734 84.6069 46.2734C84.5896 46.2734 84.5423 46.2433 84.5016 46.2066C84.4061 46.1201 83.947 46.0006 83.775 46.0175C83.6095 46.0337 83.5742 46.1746 83.7058 46.2937C83.7554 46.3386 83.796 46.3983 83.796 46.4264C83.796 46.4545 83.9233 46.5827 84.0787 46.7113C84.3961 46.9738 84.459 47.1166 84.3026 47.2191C84.2122 47.2784 84.1817 47.2725 83.9447 47.1495C83.8023 47.0756 83.5963 46.9507 83.487 46.872C83.2238 46.6823 82.9677 46.6186 82.4429 46.6122C82.0409 46.6074 81.99 46.6168 81.7654 46.7371C81.6319 46.8086 81.3563 47.0017 81.153 47.1662C80.9497 47.3307 80.765 47.4653 80.7425 47.4653C80.6501 47.4653 80.3092 47.0225 80.3088 46.9021C80.3085 46.8025 80.0422 46.4758 79.9209 46.4262C79.5959 46.2934 79.3102 46.6129 79.2261 47.2032C79.1891 47.4635 79.4022 48.1285 79.6374 48.487C80.4273 49.6904 81.0784 50.2735 82.5076 51.0575C82.8575 51.2495 84.0801 51.8053 84.472 51.9506C84.8242 52.0811 86.3933 52.6185 86.496 52.6437C86.5528 52.6577 86.8177 52.7312 87.0848 52.8071C87.6933 52.98 87.5902 52.9532 88.3429 53.1339C89.0895 53.3131 90.4011 53.577 91.0798 53.6845C92.1198 53.8492 92.2556 53.8664 93.9051 54.042C94.32 54.0862 95.2359 54.1535 96.0902 54.2026C97.0209 54.256 100.006 54.2269 100.968 54.1549C104.019 53.9266 104.898 53.822 106.608 53.4842C109.857 52.8422 112.916 51.6043 115.359 49.9432C117.68 48.3653 119.519 46.4067 120.7 44.2549C121.349 43.0726 121.378 42.9618 121.296 42.0135C121.272 41.734 121.237 41.585 121.18 41.5109C121.135 41.453 121.098 41.3819 121.098 41.353C121.098 41.2626 120.908 41.1203 120.69 41.0473C120.324 40.9251 120.172 40.9236 119.866 41.0395Z" fill="black"/>
<path fill-rule="evenodd" clip-rule="evenodd" d="M12.0563 25.0456C15.2137 25.2336 17.5245 25.9354 19.4621 27.2946C19.9958 27.669 21.0185 28.6932 21.4026 29.2379C22.3173 30.5352 22.8661 31.9415 23.0993 33.5861C23.2151 34.4025 23.2158 36.4546 23.1005 37.1822C22.8647 38.6712 22.3863 39.8978 21.5653 41.1188C19.979 43.478 17.2197 45.1056 13.9104 45.6338C12.8707 45.7997 12.7379 45.8043 8.35925 45.8231L4 45.8419V25L7.65294 25.0004C9.66208 25.0007 11.6436 25.021 12.0563 25.0456ZM8.59101 41.6069L10.4782 41.5866C12.1076 41.569 12.4437 41.5538 12.9392 41.4747C13.996 41.3061 14.7224 41.0943 15.3983 40.758C15.964 40.4765 16.3009 40.2431 16.7283 39.8367C17.6258 38.9834 18.1713 37.8945 18.3764 36.547C18.4796 35.8689 18.4777 34.6593 18.3725 34.0742C18.169 32.9429 17.72 32.0633 16.928 31.2446C16.1387 30.4287 15.0917 29.8603 13.7563 29.5228C12.8402 29.2912 12.5826 29.2694 10.5223 29.2494L8.59101 29.2306V41.6069ZM27.4898 29.5912C28.2204 29.7276 28.8623 30.3378 29.0272 31.0528C29.2767 32.1352 28.5422 33.2109 27.4276 33.3956C26.6324 33.5274 25.7491 33.0758 25.3976 32.3579C24.6946 30.9222 25.9223 29.2987 27.4898 29.5912ZM68.7597 29.5937C70.1143 29.7177 71.2559 30.1081 72.2482 30.7865C72.6542 31.0641 73.42 31.8101 73.3745 31.8837C73.3592 31.9084 72.7616 32.4064 72.0465 32.9902L70.7464 34.0517L70.4945 33.8038C70.1714 33.4858 69.9428 33.3301 69.4957 33.1235C68.9032 32.8497 68.5866 32.791 67.7223 32.7945C67.1 32.797 66.914 32.8135 66.633 32.8912C64.8156 33.3934 63.6089 34.7773 63.2156 36.8102C63.1125 37.3433 63.1115 38.4279 63.2137 38.9717C63.5427 40.7226 64.5818 42.1024 66.0295 42.7107C66.9331 43.0903 68.2268 43.1099 69.1128 42.7574C69.7234 42.5145 70.366 42.0259 70.7744 41.4939L70.9053 41.3233L72.3377 42.3951C73.1255 42.9847 73.7639 43.4873 73.7563 43.512C73.7275 43.6062 73.3042 44.1034 73.0353 44.3591C72.2201 45.1341 71.2249 45.6652 70.0146 45.9711C69.264 46.1608 68.8543 46.2075 67.9651 46.2048C66.3737 46.1999 65.0914 45.9098 63.7934 45.2611C62.9839 44.8565 62.4552 44.4754 61.8047 43.8276C60.5954 42.6234 59.8401 41.0464 59.5994 39.2232C59.5135 38.5724 59.5135 37.2079 59.5994 36.557C59.8401 34.7339 60.5954 33.1568 61.8047 31.9527C62.4552 31.3049 62.9839 30.9238 63.7934 30.5192C65.2833 29.7746 67.0796 29.4398 68.7597 29.5937ZM38.6405 29.9889C40.1283 30.1024 41.2522 30.442 42.0779 31.0277C42.4574 31.2969 42.9683 31.8579 43.1927 32.2521C43.5728 32.9198 43.7235 33.5225 43.7582 34.5131C43.8043 35.832 43.5287 36.8121 42.8719 37.6657C42.3465 38.3485 41.5121 38.8659 40.6508 39.043C40.4991 39.0742 40.3749 39.1143 40.3749 39.1323C40.3749 39.1502 41.2785 40.6659 42.3828 42.5005L44.3908 45.8361H40.2109L36.9074 39.5014L35.1659 39.4775V45.8361H31.6785V29.9442L34.8679 29.9442C36.6221 29.9443 38.3198 29.9644 38.6405 29.9889ZM57.1497 33.1667H49.8659V36.1685H56.7524V39.391H49.8659V42.6136H57.547V45.8361H46.3785V29.9442H57.1497V33.1667ZM86.8147 33.0343H82.2678V45.8361H78.7804V33.0343H74.2777V29.9442H86.8147V33.0343ZM101.547 45.837L97.6116 45.814L96.25 42.4811L90.0593 42.4823L88.7427 45.8361H86.8249C85.3085 45.8361 84.9116 45.8245 84.9288 45.7809C84.9651 45.6884 91.6575 30.1957 91.7175 30.065L91.7736 29.943L94.6485 29.9662L101.547 45.837ZM35.1659 36.5296L36.8544 36.5113C38.5105 36.4933 38.5499 36.4908 38.9089 36.381C39.5332 36.19 39.9235 35.8455 40.089 35.3393C40.146 35.1651 40.1601 34.9998 40.1474 34.6562C40.1271 34.1081 40.0085 33.82 39.6743 33.5074C39.4111 33.2612 39.1876 33.1445 38.749 33.0244C38.441 32.94 38.2641 32.9299 36.7882 32.9126L35.1659 32.8936V36.5296ZM93.0714 34.6536C93.0044 34.7708 91.1806 39.4897 91.1963 39.5053C91.2067 39.5158 92.0788 39.5192 93.1341 39.5129L95.0528 39.5014L94.0978 37.0849C93.5726 35.7558 93.1314 34.657 93.1174 34.643C93.1034 34.629 93.0827 34.6338 93.0714 34.6536ZM28.8091 45.8361H25.4541V34.9325H28.8091V45.8361Z" fill="black"/>
</g>
</g>
</svg>
