<svg width="128" height="80" viewBox="0 0 128 80" fill="none" xmlns="http://www.w3.org/2000/svg">
<g id="logo / payment method / pse / brand">
<g id="Vector">
<path d="M64 71.9973C81.6731 71.9973 96 57.671 96 39.9986C96 22.3263 81.6731 8 64 8C46.3269 8 32 22.3263 32 39.9986C32 57.671 46.3269 71.9973 64 71.9973Z" fill="url(#paint0_radial_499_839)"/>
<path d="M72.6306 32.1265H65.0553C65.0212 32.1265 64.9872 32.1217 64.9539 32.1286C63.7486 32.39 61.477 33.6221 61.4886 36.3132C61.4261 37.3485 61.8795 38.9966 64.0447 39.6836C64.0512 39.6836 69.4446 39.6836 69.4446 39.6836C69.6837 39.6836 71.1583 40.021 71.0604 42.5931C70.9615 45.1863 68.7507 45.5232 68.4326 45.8667H60.0655C59.8017 45.8667 59.5877 46.1182 59.5877 46.382C59.5877 46.6458 59.8017 46.8973 60.0655 46.8973H68.4786C68.5058 46.8973 68.5326 46.7715 68.5594 46.7667C69.708 46.5703 71.9082 45.392 72.0157 42.5736C72.1545 38.9286 69.5174 38.6985 69.4906 38.6967C69.4944 38.6957 64.1608 38.6813 64.1608 38.6813C62.3398 38.3481 62.4381 36.4148 62.4436 36.3307C62.4443 36.319 62.4446 36.3492 62.4446 36.3375C62.425 33.8963 64.7451 33.157 65.1116 33.157H72.6309C72.8948 33.157 73.1088 32.9056 73.1088 32.6418C73.1084 32.378 72.8944 32.1265 72.6306 32.1265Z" fill="white"/>
<path d="M84.1645 32.0726C84.1209 32.0602 84.0755 32.1265 84.0302 32.1265H78.3699C75.8077 32.1265 74.6504 35.0934 74.6027 35.2229C74.5948 35.2438 74.5889 35.2284 74.5838 35.2504C74.525 35.5159 73.1455 41.7553 73.1919 43.8153C73.2362 45.7534 75.21 46.4579 76.2474 46.5689C76.2645 46.5709 76.2817 46.5541 76.2992 46.5541H84.1683C84.4355 46.5541 84.6526 46.3061 84.6526 46.0388C84.6526 45.7716 84.4359 45.5236 84.1683 45.5236H76.3288C76.0825 45.5236 74.1949 45.2357 74.1609 43.7356C74.1427 42.9305 74.3718 41.3895 74.648 39.8327L85.5993 39.751C85.8329 39.7493 86.0321 39.5854 86.0723 39.3549C86.0936 39.2347 86.5855 36.4341 86.5855 34.7547C86.5852 32.7565 84.2634 32.1014 84.1645 32.0726ZM85.1837 38.7953L74.8256 38.8819C75.1437 37.1943 75.4673 35.811 75.5219 35.5626C75.6325 35.2861 76.5826 33.1567 78.3699 33.1567H83.9536C84.2559 33.1567 85.6168 33.6912 85.6168 34.8237C85.6168 36.0621 85.3194 37.9517 85.1837 38.7953Z" fill="white"/>
<path d="M60.048 35.0271C60.332 33.0942 57.8907 32.1265 57.4339 32.1265C57.4332 32.1265 57.4325 32.1265 57.4325 32.1265C55.4611 32.1265 52.4747 32.1942 52.1631 32.1835C52.1216 32.1791 52.0786 32.2065 52.0353 32.2131C50.8145 32.4075 49.1568 33.9797 48.6243 35.4341L48.6326 35.4441C48.5793 35.6062 48.5326 35.8563 48.4615 36.2321C48.3753 36.6866 48.2547 37.3375 48.1108 38.1162C47.8236 39.6723 47.4447 41.7481 47.0669 43.8229C46.3112 47.9721 45.5609 52.1213 45.5609 52.1213C45.5146 52.3772 45.6846 52.6225 45.9405 52.6689C45.9687 52.674 45.9968 52.6768 46.0247 52.6768C46.2479 52.6768 46.4465 52.5174 46.4874 52.2893C46.8048 50.5353 47.3252 47.6629 47.8466 44.7991C49.076 46.3501 50.6053 46.5129 50.6819 46.5201C50.7008 46.5222 50.7197 46.5235 50.7393 46.5218L55.5796 46.3834C55.6212 46.3824 55.6617 46.3758 55.7012 46.3638C57.9976 45.6751 58.688 43.3056 58.7165 43.2049C58.721 43.1881 58.7251 43.1709 58.7279 43.1534L60.0418 35.1054C60.0452 35.0882 60.0456 35.0442 60.048 35.0271ZM59.1081 35.0089L57.8038 42.97C57.7358 43.1833 57.1361 44.9139 55.4889 45.4436L50.7486 45.5789C50.5301 45.5483 49.051 45.2763 48.0926 43.4509C48.7906 39.6197 49.4316 36.128 49.5143 35.7574C49.9537 34.5771 51.3748 33.3089 52.1721 33.1725C52.3527 33.1835 52.5997 33.1838 52.9415 33.1845C53.4406 33.1852 54.1074 33.1848 54.7734 33.1835C55.8771 33.1818 56.9801 33.178 57.3253 33.1766C57.8846 33.1725 59.2442 34.1216 59.1081 35.0089Z" fill="white"/>
<path d="M38.2443 31.8531C38.9885 31.8531 39.5918 31.2094 39.5918 30.4155C39.5918 29.6215 38.9885 28.9779 38.2443 28.9779C37.5 28.9779 36.8967 29.6215 36.8967 30.4155C36.8967 31.2094 37.5 31.8531 38.2443 31.8531Z" fill="#FDB718"/>
<path d="M36.8836 25.8774C36.8836 25.2457 36.4992 24.715 35.9682 24.5223C35.5196 25.334 35.1049 26.1674 34.7267 27.0203C34.9528 27.2027 35.231 27.315 35.536 27.315C36.2804 27.315 36.8836 26.6713 36.8836 25.8774Z" fill="#FDB718"/>
<path d="M34.1627 30.4155C34.1627 30.0256 34.016 29.6728 33.7797 29.4138C33.5028 30.2053 33.2559 31.0104 33.0408 31.8287C33.677 31.7136 34.1627 31.1269 34.1627 30.4155Z" fill="#FDB718"/>
<path d="M38.4322 49.3671C39.1764 49.3671 39.7797 48.7234 39.7797 47.9295C39.7797 47.1355 39.1764 46.4919 38.4322 46.4919C37.6879 46.4919 37.0846 47.1355 37.0846 47.9295C37.0846 48.7234 37.6879 49.3671 38.4322 49.3671Z" fill="#FDB718"/>
<path d="M33.6719 47.9295C33.6719 47.3301 33.2545 46.8392 32.7135 46.7575C32.8667 47.4675 33.0422 48.1693 33.2418 48.8611C33.5018 48.6433 33.6719 48.3091 33.6719 47.9295Z" fill="#FDB718"/>
<path d="M36.8774 52.6173C36.8774 51.8235 36.2742 51.1798 35.5299 51.1798C34.9985 51.1798 34.5437 51.5106 34.3242 51.987C34.6031 52.6754 34.9047 53.3521 35.2293 54.0157C35.3262 54.0394 35.4261 54.0546 35.5299 54.0546C36.2739 54.0549 36.8774 53.4112 36.8774 52.6173Z" fill="#FDB718"/>
<path d="M39.1649 43.4622H36.4625C36.2873 43.1187 35.7854 42.5275 35.1864 42.5275C34.442 42.5275 33.8388 43.2022 33.8388 43.996C33.8388 44.7898 34.442 45.4614 35.1864 45.4614C35.7854 45.4614 36.2873 45.1794 36.4625 44.4924H39.5008L42.3351 39.3398H46.7062V38.6528H39.5406L36.5951 33.5002H32.6485C32.5785 33.8416 32.5153 34.1855 32.4558 34.5307H36.1667L38.5775 38.6528H32.0213C32.012 38.8812 32.0045 39.11 32 39.3398H41.5089L39.1649 43.4622Z" fill="#FDB718"/>
<path fill-rule="evenodd" clip-rule="evenodd" d="M51.6349 28.0041H50.2213V27.6606H51.6908L51.7146 27.6676L51.6661 27.8323C51.7146 27.6676 51.7146 27.6676 51.7146 27.6676L51.715 27.6677L51.7154 27.6678L51.7164 27.6681L51.7188 27.6689L51.7255 27.671C51.7307 27.6728 51.7375 27.6752 51.7456 27.6783C51.7618 27.6845 51.7834 27.6936 51.8086 27.7063C51.8583 27.7315 51.9243 27.7719 51.988 27.8335C52.1211 27.9624 52.2308 28.1723 52.1847 28.48L51.8896 30.545H50.1902L50.1613 30.5343L50.221 30.3732C50.1613 30.5343 50.1613 30.5343 50.1613 30.5343L50.1609 30.5342L50.1605 30.534L50.1594 30.5336L50.1565 30.5325L50.1479 30.529C50.141 30.5261 50.1317 30.5221 50.1204 30.5169C50.098 30.5065 50.0676 30.4912 50.0328 30.4702C49.964 30.4289 49.8736 30.3631 49.7952 30.2671C49.7158 30.1697 49.6482 30.0407 49.6299 29.8775C49.6116 29.7146 49.6439 29.5311 49.7424 29.3272L49.7513 29.3086L49.7644 29.2927L49.897 29.4018C49.7644 29.2927 49.7644 29.2927 49.7644 29.2927L49.7647 29.2924L49.765 29.2919L49.7661 29.2906L49.7696 29.2865C49.7726 29.283 49.7767 29.2781 49.782 29.2721C49.7924 29.2601 49.8074 29.2434 49.8262 29.2236C49.8634 29.1841 49.9167 29.131 49.9802 29.0775C50.0433 29.0243 50.1198 28.9678 50.2038 28.9238C50.2865 28.8806 50.3871 28.844 50.4951 28.844H50.498L51.7795 28.887L51.8447 28.4308L51.8449 28.4296C51.8735 28.2396 51.8088 28.1382 51.749 28.0803C51.7162 28.0485 51.6809 28.0267 51.6536 28.0129C51.6466 28.0093 51.6403 28.0064 51.6349 28.0041ZM51.7306 29.229L50.4928 29.1875C50.4608 29.188 50.4173 29.1998 50.363 29.2282C50.3085 29.2567 50.2531 29.2967 50.2017 29.3401C50.1507 29.383 50.107 29.4265 50.076 29.4594C50.0618 29.4744 50.0504 29.487 50.0425 29.496C49.9747 29.6436 49.9619 29.7559 49.9712 29.8392C49.981 29.9259 50.0162 29.9945 50.0613 30.0498C50.1074 30.1063 50.1634 30.1479 50.2098 30.1758C50.2283 30.187 50.2445 30.1955 50.2569 30.2015H51.5917L51.7306 29.229Z" fill="white"/>
<path fill-rule="evenodd" clip-rule="evenodd" d="M53.1201 27.6606H54.6058V28.0041H53.2067C53.1985 28.0092 53.189 28.0155 53.1783 28.0229C53.1372 28.0511 53.0799 28.0955 53.0188 28.1579C52.8972 28.2823 52.7613 28.4774 52.7065 28.7617L52.7041 28.7745L52.6998 28.7865L52.6993 28.7879L52.6972 28.7943C52.6952 28.8003 52.6921 28.8096 52.6883 28.822C52.6807 28.8467 52.6699 28.8836 52.658 28.9303C52.6343 29.024 52.6064 29.1558 52.5904 29.3078C52.56 29.5944 52.5736 29.933 52.7147 30.2228L52.7873 30.2389H54.1259V30.5824H52.7495L52.4886 30.5244L52.4509 30.4585C52.2258 30.0644 52.2129 29.6109 52.2488 29.2717C52.2669 29.0998 52.2983 28.9514 52.3251 28.8458C52.3385 28.7928 52.3509 28.7503 52.3601 28.7206C52.3647 28.7057 52.3685 28.694 52.3713 28.6858L52.3716 28.6848C52.4431 28.3277 52.6164 28.0781 52.7733 27.9177C52.8523 27.8369 52.9273 27.7786 52.9835 27.7399C53.0117 27.7205 53.0353 27.7059 53.0526 27.6959C53.0612 27.6909 53.0683 27.6869 53.0736 27.6841L53.0801 27.6806L53.0824 27.6795L53.0832 27.679L53.0836 27.6789C53.0836 27.6789 53.0839 27.6787 53.1607 27.8323L53.0836 27.6789L53.1201 27.6606Z" fill="white"/>
<path d="M55.2712 26.6371L55.6092 26.698L55.4204 27.7462C55.4579 27.7209 55.4979 27.6975 55.5405 27.6771L55.5679 27.664L55.5981 27.661L55.5992 27.6609L55.602 27.6607L55.6119 27.6598C55.6205 27.659 55.6328 27.658 55.6485 27.6567C55.6799 27.6543 55.7246 27.6511 55.7788 27.6482C55.8869 27.6424 56.034 27.6376 56.1883 27.6417C56.3413 27.6457 56.5081 27.6586 56.6529 27.6907C56.7254 27.7067 56.7976 27.7287 56.8619 27.7597C56.9141 27.785 56.9682 27.8197 57.0119 27.8685C57.0183 27.8727 57.0254 27.8775 57.0329 27.883C57.0629 27.9049 57.1012 27.9379 57.1386 27.9841C57.2156 28.0791 57.2829 28.2237 57.2747 28.4247L57.2743 28.4358L56.9361 30.4024L56.5975 30.3441L56.9318 28.4004C56.9338 28.2961 56.8997 28.2348 56.8717 28.2002C56.8561 28.1811 56.8407 28.1681 56.8303 28.1604C56.8252 28.1567 56.8215 28.1544 56.8199 28.1535L56.7828 28.1355L56.7573 28.0992C56.7559 28.0973 56.7457 28.0851 56.7124 28.069C56.6801 28.0534 56.6355 28.0386 56.5787 28.0261C56.4648 28.0009 56.3229 27.9888 56.1793 27.985C56.037 27.9813 55.8996 27.9858 55.7972 27.9912C55.7462 27.994 55.7043 27.9969 55.6753 27.9992L55.6629 28.0002C55.5586 28.0571 55.4695 28.1476 55.4023 28.2338C55.3668 28.2793 55.3396 28.3208 55.3214 28.3507L54.9304 30.4659L54.5924 30.405L55.2712 26.6371Z" fill="white"/>
</g>
</g>
<defs>
<radialGradient id="paint0_radial_499_839" cx="0" cy="0" r="1" gradientUnits="userSpaceOnUse" gradientTransform="translate(64.5722 39.8839) scale(31.9994)">
<stop offset="0.3155" stop-color="#2D5CA8"/>
<stop offset="0.5312" stop-color="#285496"/>
<stop offset="0.7289" stop-color="#1F4272"/>
<stop offset="1" stop-color="#0D2D4D"/>
</radialGradient>
</defs>
</svg>
