<svg width="128" height="80" viewBox="0 0 128 80" fill="none" xmlns="http://www.w3.org/2000/svg">
<g id="logo / payment method / xanpool / brand-dark">
<g id="logo">
<path d="M25.8446 53H19.8726C19.2653 53 18.6579 52.6901 18.3543 52.1736L15.5 47.6583L12.6457 52.1736C12.3421 52.6901 11.7347 53 11.1274 53H5.15545C4.24447 53 3.63714 51.9669 4.24447 51.1405L10.9574 40.4721L4.18346 29.7562C3.67736 28.9298 4.28468 28 5.19566 28H11.4713C11.9774 28 12.3823 28.2066 12.5847 28.6198L15.5 33.2529L18.4153 28.6198C18.6177 28.2066 19.0226 28 19.5287 28H25.8043C26.7153 28 27.3226 28.9298 26.8165 29.7562L20.0426 40.4721L26.7555 51.1405C27.3629 51.9669 26.7555 53 25.8446 53Z" fill="white"/>
<path fill-rule="evenodd" clip-rule="evenodd" d="M45.2857 47.2857H42.1345L40.874 44.0294H35.2017L34.0462 47.2857H31L36.5672 33H39.6134L45.2857 47.2857ZM39.9286 41.5084L38.0378 36.1513L36.1471 41.5084H39.9286Z" fill="white"/>
<path d="M48.9333 47.1814V33H52.3196L58.3513 42.3848V33H61.3143V47.1814H58.1397L51.8963 37.2753V47.1814H48.9333Z" fill="white"/>
<path d="M114 33V47.1807H124V44.4496H117.14V33H114Z" fill="white"/>
<path fill-rule="evenodd" clip-rule="evenodd" d="M67.4682 41.7831V47.2857H64.9619V33H70.3754C72.6812 33 74.4857 34.9048 74.4857 37.3386C74.4857 39.7725 72.6812 41.6772 70.3754 41.6772L67.4682 41.7831ZM67.4682 39.455H68.7714C69.7739 39.455 70.3755 39.3492 70.6762 39.2434C70.977 39.1376 71.2777 38.8201 71.4782 38.5026C71.6787 38.1852 71.779 37.7619 71.779 37.3386C71.779 36.8095 71.6787 36.3862 71.378 36.0688C71.0772 35.7513 70.7764 35.5397 70.3754 35.4339C70.0747 35.328 69.4732 35.328 68.6712 35.328H67.4682V39.455Z" fill="white"/>
<path fill-rule="evenodd" clip-rule="evenodd" d="M92.419 40.1429C92.419 44.1224 89.2207 47.2857 85.2762 47.2857C81.3316 47.2857 78.1333 44.1224 78.1333 40.1429C78.1333 36.1633 81.3316 33 85.2762 33C89.2207 33 92.419 36.1633 92.419 40.1429ZM85.2762 35.6531C82.8241 35.6531 80.7985 37.6939 80.7985 40.1429C80.7985 42.5918 82.8241 44.6327 85.2762 44.6327C87.7282 44.6327 89.7538 42.5918 89.7538 40.1429C89.7538 37.6939 87.7282 35.6531 85.2762 35.6531Z" fill="white"/>
<path fill-rule="evenodd" clip-rule="evenodd" d="M103.21 47.2857C107.154 47.2857 110.352 44.1224 110.352 40.1429C110.352 36.1633 107.154 33 103.21 33C99.2649 33 96.0667 36.1633 96.0667 40.1429C96.0667 44.1224 99.2649 47.2857 103.21 47.2857ZM98.7319 40.1429C98.7319 37.6939 100.757 35.6531 103.21 35.6531C105.662 35.6531 107.687 37.6939 107.687 40.1429C107.687 42.5918 105.662 44.6327 103.21 44.6327C100.757 44.6327 98.7319 42.5918 98.7319 40.1429Z" fill="white"/>
</g>
</g>
</svg>
