<svg width="223" height="72" viewBox="0 0 223 72" fill="none" xmlns="http://www.w3.org/2000/svg">
<g id="logo / deriv product / deriv trader / black / logo wordmark vertical">
<g id="logo">
<path d="M0 13.5C0 6.04416 6.04416 0 13.5 0H58.5C65.9558 0 72 6.04416 72 13.5V58.5C72 65.9558 65.9558 72 58.5 72H13.5C6.04416 72 0 65.9558 0 58.5V13.5Z" fill="#414652"/>
<path d="M13.5 0C6.04416 0 0 6.04416 0 13.5V13.8921L67.3075 3.26845C64.9433 1.2315 61.8655 0 58.5 0H13.5Z" fill="#303541"/>
<path d="M68.6969 4.65243L56.3498 71.9999L58.5 72C65.9558 72 72 65.9558 72 58.5V13.5C72 10.1155 70.7545 7.02183 68.6969 4.65243Z" fill="#303541"/>
<path d="M22.3632 42.8984C22.5942 42.9194 22.8567 42.9404 23.1507 42.9614C23.4657 42.9614 23.8332 42.9614 24.2532 42.9614C26.7102 42.9614 28.5267 42.3419 29.7027 41.1029C30.8997 39.8639 31.4982 38.1524 31.4982 35.9684C31.4982 33.6794 30.9312 31.9469 29.7972 30.7709C28.6632 29.5949 26.8677 29.0069 24.4107 29.0069C24.0747 29.0069 23.7282 29.0174 23.3712 29.0384C23.0142 29.0384 22.6782 29.0594 22.3632 29.1014V42.8984ZM36.5697 35.9684C36.5697 37.8584 36.2757 39.5069 35.6877 40.9139C35.0997 42.3209 34.2597 43.4864 33.1677 44.4104C32.0967 45.3344 30.7842 46.0274 29.2302 46.4894C27.6762 46.9514 25.9332 47.1824 24.0012 47.1824C23.1192 47.1824 22.0902 47.1404 20.9142 47.0564C19.7382 46.9934 18.5832 46.8464 17.4492 46.6154V25.3529C18.5832 25.1429 19.7592 25.0064 20.9772 24.9434C22.2162 24.8594 23.2767 24.8174 24.1587 24.8174C26.0277 24.8174 27.7182 25.0274 29.2302 25.4474C30.7632 25.8674 32.0757 26.5289 33.1677 27.4319C34.2597 28.3349 35.0997 29.4899 35.6877 30.8969C36.2757 32.3039 36.5697 33.9944 36.5697 35.9684Z" fill="#FF444F"/>
<path d="M54.552 25.0694V29.2589H47.9685V46.8989H43.0545V29.2589H36.471V25.0694H54.552Z" fill="#FF444F"/>
</g>
<g id="wordmark">
<path fill-rule="evenodd" clip-rule="evenodd" d="M102.333 7.16574L101.447 12.1912H98.3712C95.5015 12.1912 92.7662 14.5163 92.2592 17.386L92.0446 18.6075C91.54 21.4773 93.4547 23.8024 96.3244 23.8024H98.8899C100.981 23.8024 102.974 22.1092 103.342 20.0177L105.705 6.62378L102.333 7.16574ZM100.151 19.5437C100.038 20.1898 99.4558 20.7157 98.8098 20.7157H97.2511C95.9613 20.7157 95.0983 19.6686 95.3246 18.3764L95.459 17.6148C95.6877 16.3249 96.9186 15.2755 98.2085 15.2755H100.903L100.151 19.5437Z" fill="#414652"/>
<path d="M126.023 23.8034H129.216L131.235 12.3526H128.042L126.023 23.8034Z" fill="#414652"/>
<path d="M126.129 13.8448L126.129 13.8423C126.209 13.3895 126.289 12.9367 126.369 12.484C123.093 11.6398 120.541 12.5131 119.502 12.9434C119.502 12.9434 118.02 21.3454 117.586 23.8056H120.781C121.299 20.8653 121.818 17.9243 122.336 14.984C122.815 14.8884 124.376 14.7387 125.888 15.2088C125.968 14.7541 126.049 14.2995 126.129 13.8448Z" fill="#414652"/>
<path fill-rule="evenodd" clip-rule="evenodd" d="M113.419 12.19H110.936C108.515 12.19 106.206 14.1519 105.779 16.5736L105.277 19.4198C104.85 21.8415 106.466 23.8035 108.887 23.8035H114.174L114.716 20.7262H109.748C108.942 20.7262 108.402 20.073 108.545 19.2642L108.562 19.1675H116.572L117.03 16.5736C117.456 14.1519 115.841 12.19 113.419 12.19ZM113.825 16.3284L113.806 16.4935H109.043L109.069 16.3473C109.213 15.5408 109.948 14.831 110.757 14.831H112.618C113.417 14.831 113.957 15.529 113.825 16.3284Z" fill="#414652"/>
<path d="M136.783 19.9054C138.232 17.2974 139.83 13.8755 140.496 12.3526H143.694C142.605 15.2463 140.111 20.1688 137.695 23.8034H134.5C133.391 20.3441 132.675 15.5242 132.538 12.3526H135.733C135.791 13.3872 136.254 17.2246 136.783 19.9054Z" fill="#414652"/>
<path d="M115.122 31.9704V38.2546H105.246V64.7147H97.8753V38.2546H88V31.9704H115.122Z" fill="#414652"/>
<path d="M128.726 46.0981C128.096 45.9406 127.356 45.7831 126.505 45.6256C125.655 45.4366 124.741 45.3421 123.765 45.3421C123.324 45.3421 122.788 45.3894 122.158 45.4839C121.56 45.5469 121.103 45.6256 120.788 45.7201V64.7147H113.748V41.1841C115.008 40.7431 116.488 40.3336 118.189 39.9556C119.922 39.5461 121.843 39.3414 123.954 39.3414C124.332 39.3414 124.788 39.3729 125.324 39.4359C125.859 39.4674 126.395 39.5304 126.93 39.6249C127.466 39.6879 128.001 39.7824 128.537 39.9084C129.072 40.0029 129.529 40.1289 129.907 40.2864L128.726 46.0981Z" fill="#414652"/>
<path d="M140.355 59.8007C141.048 59.8007 141.709 59.7849 142.339 59.7534C142.969 59.7219 143.473 59.6747 143.851 59.6117V54.2724C143.568 54.2094 143.142 54.1464 142.575 54.0834C142.008 54.0204 141.489 53.9889 141.016 53.9889C140.355 53.9889 139.725 54.0361 139.126 54.1306C138.559 54.1936 138.055 54.3354 137.614 54.5559C137.173 54.7764 136.827 55.0757 136.575 55.4537C136.323 55.8316 136.197 56.3042 136.197 56.8712C136.197 57.9737 136.559 58.7454 137.283 59.1864C138.039 59.5959 139.063 59.8007 140.355 59.8007ZM139.788 39.1996C141.867 39.1996 143.599 39.4359 144.985 39.9084C146.371 40.3809 147.474 41.0581 148.293 41.9401C149.143 42.8221 149.742 43.8931 150.088 45.1531C150.435 46.4131 150.608 47.8149 150.608 49.3584V64.0059C149.6 64.2264 148.198 64.4784 146.403 64.7619C144.607 65.0769 142.434 65.2344 139.882 65.2344C138.276 65.2344 136.811 65.0927 135.488 64.8092C134.196 64.5257 133.078 64.0689 132.133 63.4389C131.188 62.7774 130.464 61.9269 129.96 60.8874C129.456 59.8479 129.204 58.5722 129.204 57.0602C129.204 55.6112 129.487 54.3826 130.054 53.3746C130.653 52.3666 131.44 51.5634 132.417 50.9649C133.393 50.3664 134.511 49.9411 135.771 49.6891C137.031 49.4056 138.339 49.2639 139.693 49.2639C140.607 49.2639 141.41 49.3111 142.103 49.4056C142.827 49.4686 143.41 49.5631 143.851 49.6891V49.0276C143.851 47.8306 143.489 46.8699 142.764 46.1454C142.04 45.4209 140.78 45.0586 138.984 45.0586C137.787 45.0586 136.606 45.1531 135.441 45.3421C134.275 45.4996 133.267 45.7359 132.417 46.0509L131.519 40.3809C131.928 40.2549 132.432 40.1289 133.031 40.0029C133.661 39.8454 134.338 39.7194 135.063 39.6249C135.787 39.4989 136.543 39.4044 137.331 39.3414C138.15 39.2469 138.969 39.1996 139.788 39.1996Z" fill="#414652"/>
<path d="M160.612 52.0989C160.612 54.2724 161.1 56.0207 162.077 57.3437C163.053 58.6667 164.502 59.3282 166.424 59.3282C167.054 59.3282 167.637 59.3124 168.172 59.2809C168.708 59.2179 169.149 59.1549 169.495 59.0919V46.2871C169.054 46.0036 168.472 45.7674 167.747 45.5784C167.054 45.3894 166.345 45.2949 165.621 45.2949C162.282 45.2949 160.612 47.5629 160.612 52.0989ZM176.536 63.9114C175.906 64.1004 175.181 64.2894 174.362 64.4784C173.543 64.6359 172.677 64.7777 171.763 64.9037C170.881 65.0297 169.968 65.1242 169.023 65.1872C168.109 65.2817 167.227 65.3289 166.377 65.3289C164.329 65.3289 162.502 65.0297 160.896 64.4312C159.289 63.8327 157.935 62.9822 156.832 61.8797C155.73 60.7457 154.879 59.3912 154.281 57.8162C153.714 56.2097 153.43 54.4142 153.43 52.4296C153.43 50.4136 153.682 48.6024 154.186 46.9959C154.69 45.3579 155.415 43.9719 156.36 42.8379C157.305 41.7039 158.454 40.8376 159.809 40.2391C161.195 39.6406 162.77 39.3414 164.534 39.3414C165.51 39.3414 166.377 39.4359 167.133 39.6249C167.92 39.8139 168.708 40.0816 169.495 40.4281V29.1826L176.536 28.0486V63.9114Z" fill="#414652"/>
<path d="M179.584 52.4769C179.584 50.2719 179.915 48.3504 180.576 46.7124C181.269 45.0429 182.167 43.6569 183.269 42.5544C184.372 41.4519 185.632 40.6171 187.049 40.0501C188.498 39.4831 189.979 39.1996 191.491 39.1996C195.019 39.1996 197.807 40.2864 199.854 42.4599C201.902 44.6019 202.925 47.7676 202.925 51.9571C202.925 52.3666 202.91 52.8234 202.878 53.3274C202.847 53.7999 202.815 54.2252 202.784 54.6031H186.813C186.971 56.0522 187.648 57.2019 188.845 58.0524C190.042 58.9029 191.648 59.3282 193.664 59.3282C194.956 59.3282 196.216 59.2179 197.444 58.9974C198.704 58.7454 199.728 58.4462 200.516 58.0997L201.461 63.8169C201.083 64.0059 200.579 64.1949 199.949 64.3839C199.319 64.5729 198.61 64.7304 197.822 64.8564C197.066 65.0139 196.247 65.1399 195.365 65.2344C194.483 65.3289 193.601 65.3762 192.719 65.3762C190.483 65.3762 188.53 65.0454 186.86 64.3839C185.222 63.7224 183.852 62.8247 182.75 61.6907C181.679 60.5252 180.875 59.1549 180.34 57.5799C179.836 56.0049 179.584 54.3039 179.584 52.4769ZM196.121 49.7836C196.09 49.1851 195.98 48.6024 195.791 48.0354C195.633 47.4684 195.365 46.9644 194.987 46.5234C194.641 46.0824 194.184 45.7201 193.617 45.4366C193.082 45.1531 192.404 45.0114 191.585 45.0114C190.798 45.0114 190.121 45.1531 189.554 45.4366C188.987 45.6886 188.514 46.0351 188.136 46.4761C187.758 46.9171 187.459 47.4369 187.238 48.0354C187.049 48.6024 186.908 49.1851 186.813 49.7836H196.121Z" fill="#414652"/>
<path d="M220.974 46.0981C220.344 45.9406 219.604 45.7831 218.753 45.6256C217.903 45.4366 216.989 45.3421 216.013 45.3421C215.572 45.3421 215.036 45.3894 214.406 45.4839C213.808 45.5469 213.351 45.6256 213.036 45.7201V64.7147H205.996V41.1841C207.256 40.7431 208.736 40.3336 210.437 39.9556C212.17 39.5461 214.091 39.3414 216.202 39.3414C216.58 39.3414 217.037 39.3729 217.572 39.4359C218.108 39.4674 218.643 39.5304 219.179 39.6249C219.714 39.6879 220.25 39.7824 220.785 39.9084C221.321 40.0029 221.777 40.1289 222.155 40.2864L220.974 46.0981Z" fill="#414652"/>
</g>
</g>
</svg>
