<svg width="128" height="80" viewBox="0 0 128 80" fill="none" xmlns="http://www.w3.org/2000/svg">
<g id="logo / payment method / unionpay / brand-light">
<g id="bg">
<path id="bg_2" d="M35.0701 10.3109H59.008C60.5308 10.2457 61.9896 10.929 62.9145 12.1405C63.8394 13.352 64.1137 14.9389 63.6495 16.3909L52.5571 64.2331C51.6536 67.672 48.6237 70.1288 45.0723 70.3018H21.1456C19.6251 70.3659 18.1697 69.6837 17.2459 68.4756C16.321 67.2663 16.0434 65.6828 16.5042 64.2331L27.6527 16.3909C28.5316 12.9621 31.5345 10.4997 35.0701 10.3109Z" fill="#CE0E2D"/>
<path id="bg_3" d="M57.0639 10.311H84.5869C87.9584 10.311 86.43 13.0307 85.6433 16.391L74.4947 64.2332C73.7193 67.6047 73.9553 70.302 70.6175 70.302H43.0832C41.5615 70.3705 40.1016 69.6906 39.1767 68.4813C38.2507 67.2709 37.9765 65.6829 38.4417 64.2332L49.579 16.391C50.4747 12.9453 53.5069 10.4819 57.0639 10.311Z" fill="#002856"/>
<path id="bg_4" d="M83.4966 10.3109H107.435C108.957 10.2457 110.416 10.929 111.341 12.1405C112.266 13.352 112.54 14.9389 112.076 16.3909L100.927 64.2331C100.035 67.6518 97.0389 70.104 93.5101 70.3018H69.5272C68.0055 70.3704 66.5456 69.6905 65.6207 68.4812C64.6946 67.2708 64.4204 65.6828 64.8857 64.2331L76.0343 16.3909C76.9142 12.9441 79.943 10.4772 83.4966 10.3109Z" fill="#007078"/>
</g>
<path id="wordmark" fill-rule="evenodd" clip-rule="evenodd" d="M65.1777 47.9598L64.6158 49.7804H61.5252L61.0532 51.3313H64.1775L63.6043 53.2081H60.4913L59.7271 55.7368C59.6372 56.0177 60.4688 56.0515 60.7723 56.0515L62.3344 55.8379L61.7051 57.917H58.1874C57.9177 57.917 57.648 57.8788 57.3895 57.8047C57.1512 57.7608 56.9444 57.6125 56.8276 57.4001C56.6174 57.1865 56.5432 56.8752 56.6365 56.5909L57.648 53.2194H55.9172L56.4904 51.3088H58.2324L58.6707 49.7804H56.9624L57.5468 47.9598H65.1777ZM83.0019 43.6779L82.7097 44.6669C83.1604 44.35 83.6571 44.1038 84.182 43.9364C84.7641 43.7791 87.6569 43.706 88.6661 43.6847V43.6779H91.7005V44.8018C91.7005 44.9928 91.8466 45.0827 92.2062 45.0827H92.8131L92.2512 46.9371H90.6441C89.228 47.0382 88.6886 46.4313 88.7223 45.7458L88.6931 44.7096L88.4076 45.6334H87.4411L87.34 45.5997L84.5191 55.2985H85.3058L84.6877 57.2877H83.9123L83.7324 57.9058H80.9341L81.1251 57.2877H75.5284L76.1015 55.4446H76.6522L79.6079 45.6334L80.1698 43.6779H83.0019ZM77.068 43.6779L75.5958 48.5666C75.4441 49.1443 75.2024 49.695 74.8765 50.1962C74.6978 50.4828 74.4461 50.7154 74.146 50.8705C73.837 51.0447 73.4976 51.1582 73.1458 51.2077H67.6614L66.5376 55.0737C66.4252 55.4671 66.369 55.6469 66.4477 55.748C66.5376 55.875 66.6848 55.9503 66.841 55.9503L68.6729 55.7705L68.0435 57.8946H64.4922C64.1944 57.9137 63.8965 57.8564 63.6268 57.726C63.4358 57.5462 63.1436 57.3326 63.1436 57.1079C63.2009 56.7471 63.2841 56.3897 63.3908 56.0402L67.122 43.6779L67.1669 43.6891H69.8305L69.4483 45.0265C69.8911 44.6703 70.3699 44.3612 70.8756 44.105C71.4904 43.9184 72.1175 43.7757 72.7525 43.6779H77.068ZM96.8028 47.4316L96.2296 49.2971H93.1952L92.7232 50.8031H95.7576L95.2519 52.4664H91.9702L91.3858 53.1632H92.7232L93.0491 55.2423C93.0491 55.4558 93.0491 55.5907 93.1615 55.6806C93.384 55.7649 93.6212 55.8042 93.8583 55.793H94.2629L93.6448 57.8159H91.8916C91.6308 57.7563 91.3836 57.6496 91.1611 57.5012C90.8801 57.363 90.6812 57.1011 90.6216 56.7932L90.3069 54.7141L88.8122 56.7595C88.311 57.5012 87.4591 57.9272 86.5645 57.8833H84.5191L85.0698 56.0739H85.8677C86.0768 56.0661 86.2813 56.0076 86.4634 55.9054C86.6432 55.8289 86.796 55.6997 86.9017 55.5345L89.0707 52.5001H86.1937L86.6882 50.8368H89.981L90.4418 49.2971H87.1939L87.7446 47.4316H96.8028ZM74.899 51.5448L74.6518 52.6687C74.5922 53.0036 74.427 53.3104 74.1797 53.5453C73.7909 53.9072 73.2717 54.0937 72.7412 54.0623H71.2577V55.3884C71.2577 55.7593 71.3477 55.7255 71.4038 55.793C71.4578 55.8447 71.523 55.8829 71.5949 55.9054H72.0669L73.483 55.8267L72.8986 57.7709H71.2577C70.4991 57.8541 69.7316 57.7709 69.0101 57.5237C68.7403 57.3439 68.6954 57.1304 68.7066 56.7595L68.7853 51.6909H71.3701V52.7474H71.9995C72.1501 52.7608 72.3018 52.7339 72.4378 52.6687C72.5299 52.6046 72.5951 52.5091 72.6176 52.399L72.8761 51.5673L74.899 51.5448ZM82.3951 53.1519H80.1474L79.5068 55.321H81.7545L82.3951 53.1519ZM83.5077 49.2971H81.3049L80.5295 51.8595C80.9554 51.6415 81.3948 51.4504 81.8444 51.2864C82.3164 51.1852 82.9682 51.0953 82.9682 51.0953L83.5077 49.2971ZM72.7862 48.6116H68.4144L68.1447 49.4994H71.932C72.1231 49.4815 72.3142 49.4815 72.5052 49.4994L72.7862 48.6228V48.6116ZM84.5978 45.5997H82.3838L81.6308 48.0722C82.0545 47.8777 82.4906 47.7091 82.9345 47.5664C83.3043 47.4821 83.6796 47.4248 84.0584 47.3978L84.5978 45.5997ZM73.6965 45.7458H69.291L68.6504 47.8249C69.3169 47.281 70.1159 46.9236 70.9655 46.791C71.3027 46.7235 73.3818 46.791 73.3818 46.791L73.6965 45.7458ZM63.166 43.6779L62.6491 44.6894H65.7734L65.2114 46.5887H60.9184L60.4688 47.0495C60.2665 47.2405 60.1991 47.1618 59.9406 47.2967C59.5102 47.5327 59.0269 47.6608 58.5358 47.6676H57.1647L57.7154 45.8357H58.1312C58.3717 45.8537 58.6134 45.8188 58.8392 45.7346C59.0303 45.5705 59.1831 45.3671 59.2888 45.1389L60.0867 43.6779H63.166ZM104.805 31.4842L104.917 31.619C104.917 31.619 98.9381 41.8798 98.1402 43.6217L97.9154 43.8802H97.8907L96.8814 45.6784C96.4679 46.4695 95.6261 46.9416 94.7349 46.8809H92.8806L93.42 45.0827H93.7796C93.9246 45.1097 94.0729 45.1097 94.2179 45.0827C94.3179 45.0333 94.4 44.9546 94.4539 44.858L95.1395 43.7521C96.0003 42.49 96.2678 41.8382 97.0635 40.4896L97.2748 40.1378C97.1062 38.3396 97.0275 37.7665 96.8814 36.5864C96.8028 35.8897 96.6904 35.1704 96.6005 34.4624C96.5342 33.7341 96.4297 33.0104 96.2858 32.2933V32.136L96.3982 32.0349C97.8367 31.855 97.8704 31.8101 99.4326 31.5067L99.5674 31.6415L99.7697 35.6424C99.7641 35.7177 99.7641 35.7919 99.7697 35.8672C100.59 34.0241 100.568 34.5298 101.579 32.181V32.1135L101.68 32.0124C103.04 31.8326 103.31 31.7876 104.805 31.4842ZM94.9147 31.5853V31.7089C94.6338 32.8328 94.364 33.9566 94.0943 35.0805C93.5436 37.463 93.3413 38.6768 93.139 39.9243L93.0266 40.1153H89.8124L89.7225 40.0142L89.8462 39.5534C89.3573 39.9614 88.8302 40.2423 88.2615 40.2727C87.6918 40.3086 87.122 40.2086 86.5982 39.9805C84.7327 39.25 85.0249 37.2158 85.2946 36.0919C85.4969 34.9187 86.0543 33.8364 86.8904 32.9901C87.7727 32.0427 89.055 31.5741 90.3407 31.7314C90.8374 31.9225 91.1611 32.2282 91.3858 32.5867L91.4308 32.2147L91.5432 32.1248C92.9929 31.9225 93.3863 31.8663 94.9147 31.5853ZM60.3901 31.5516C61.4634 31.4482 62.5255 31.8371 63.2784 32.608C63.683 33.1362 64.0089 34.0016 63.5931 35.8447V35.811C63.3807 36.855 62.93 37.835 62.2782 38.6768C61.2634 39.6928 59.8687 40.2344 58.4347 40.1715C57.7693 40.185 57.1074 40.0782 56.4792 39.8568C54.6023 39.1039 54.9058 37.0472 55.1643 35.9234C55.3733 34.7433 55.933 33.6543 56.7714 32.7991C57.7806 31.9472 59.0708 31.5022 60.3901 31.5516ZM41.341 25.5952C41.3331 25.6323 41.3331 25.6705 41.341 25.7076C41.0375 26.6516 39.2394 33.9004 39.2394 33.9004L39.0371 34.6871C38.7696 36.4707 37.7615 38.0587 36.2612 39.0589C34.9283 39.7703 33.4324 40.1187 31.9231 40.0704C30.5745 40.0704 28.3268 39.8568 27.4952 38.5307C27.2254 38.0351 27.094 37.4765 27.1131 36.9124L27.4053 34.7209L27.5626 34.0578L29.3383 26.1909C29.3383 26.1909 29.4507 25.7526 29.4507 25.6851C30.7937 25.7795 32.1423 25.7795 33.4853 25.6851C33.4886 25.7222 33.4886 25.7604 33.4853 25.7975C33.1706 26.6854 31.4286 33.6532 31.4286 33.6644C31.4286 33.6757 31.0915 35.7548 31.0915 35.7548V36.1032C31.1027 36.564 31.3095 36.9966 31.659 37.2956C32.0074 37.5957 32.4671 37.7339 32.9233 37.6766C33.5707 37.6901 34.2 37.4709 34.699 37.0585C35.5756 36.3392 35.8341 35.2378 36.1937 33.6869C36.205 33.6757 37.857 26.011 37.9469 25.5952C39.0775 25.6649 40.2104 25.6649 41.341 25.5952ZM82.2714 25.584C84.2831 25.5952 86.0363 25.6177 86.9242 26.8202C87.2748 27.3181 87.449 27.9193 87.4187 28.5285C87.4164 28.9645 87.3602 29.3983 87.2501 29.8209C86.9478 31.31 86.1172 32.6384 84.9125 33.5633C83.1705 34.8332 80.9565 34.8332 79.001 34.8332H78.7988C78.6852 34.9085 78.5852 35.0041 78.5066 35.1142C78.4841 35.1816 78.0345 37.0585 78.0345 37.0585L77.4164 40.0591H73.8201C73.91 39.6208 76.1577 30.4502 76.1577 30.439C76.1577 30.4278 77.0905 26.1122 77.0905 26.1122C77.0905 26.1122 77.1917 25.775 77.1917 25.584H82.2714ZM44.8923 31.3606L45.0159 31.5067L44.7912 32.3383C45.0496 32.1922 45.2857 32.0349 45.5441 31.9C46.1499 31.6157 46.8085 31.4628 47.4772 31.4505C48.1852 31.3617 48.8685 31.7449 49.1629 32.3945C49.4551 33.08 49.2641 33.9117 48.8932 35.5637L48.6909 36.4066C48.3088 38.2497 48.2414 38.5869 48.0278 39.8456L47.893 39.9917H47.1085C46.4151 39.9951 45.9094 40.0063 44.8474 40.0479V39.9467C44.9597 39.4073 45.0946 38.8229 45.2182 38.3396L45.3868 37.5979C45.6048 36.637 45.7734 35.6649 45.8925 34.6871C45.8925 34.4511 46.0049 33.8443 45.3081 33.8443C44.989 33.878 44.6799 33.9735 44.3978 34.1252C44.2292 34.7321 43.8921 36.4403 43.7235 37.2158C43.3751 38.8454 43.3526 39.0364 43.1953 39.8456L43.0942 39.9467H42.2884C41.577 39.9501 41.0634 39.9602 39.9923 40.0029L39.9361 39.8793C40.1722 38.9128 40.4082 37.9351 40.6329 36.9685C41.0375 35.3255 41.3421 33.6588 41.5432 31.9787L41.6556 31.9C43.0492 31.7089 43.3864 31.664 44.8923 31.3606ZM54.3101 33.2599V33.3273C54.1753 33.9004 54.0292 34.4511 53.8943 35.0468C53.7595 35.6424 53.6246 36.1706 53.4897 36.7663C53.22 37.98 53.1189 38.4408 53.0514 38.7667C52.984 39.0926 52.9728 39.2387 52.8604 39.8905H52.7929L52.7817 39.9917H51.1297C50.6801 39.9917 50.2306 39.9917 49.5563 40.0479V39.9243C49.654 39.5399 49.781 39.1645 49.9384 38.8004C50.0755 38.4071 50.189 38.0059 50.2755 37.5979C50.4891 36.6763 50.6127 36.0358 50.7026 35.4626C50.7925 34.8894 50.8487 34.4511 50.9274 33.9229H50.9836L52.6131 33.5633C53.0256 33.5049 53.4392 33.4284 54.0404 33.3116L54.3101 33.2599ZM68.8864 31.3606L68.9988 31.5067L68.7853 32.4394C69.0325 32.2933 69.2798 32.136 69.5383 32.0011C70.1429 31.7157 70.8026 31.5628 71.4713 31.5516C72.1793 31.4673 72.8592 31.8483 73.157 32.4956C73.438 33.1812 73.247 34.0128 72.8761 35.6649L72.685 36.5078C72.2804 38.3509 72.2243 38.688 72.022 39.9467L71.8197 39.9917H71.0307C70.3362 39.9951 69.8395 40.0063 68.7853 40.0479V39.9467C68.9089 39.4073 69.0438 38.8229 69.1674 38.3396L69.336 37.5979C69.5473 36.637 69.7091 35.6649 69.8192 34.6871C69.8192 34.4511 69.9316 33.8443 69.2461 33.8443C68.9269 33.8757 68.6167 33.9713 68.3357 34.1252C68.1672 34.7321 67.8188 36.4403 67.6502 37.2158C67.313 38.8454 67.2906 39.0364 67.1332 39.8456L67.0321 39.9467H66.2229C65.5081 39.9501 65.0013 39.9602 63.9303 40.0029V39.8793C64.1663 38.9128 64.4023 37.9351 64.627 36.9685C65.026 35.3244 65.3306 33.6577 65.5374 31.9787L65.6385 31.9C67.0321 31.7089 67.3692 31.664 68.8864 31.3606ZM90.1496 33.6195C89.1943 33.6195 88.8235 34.7883 88.4975 36.1594C88.3829 36.6078 88.3177 37.0674 88.3065 37.5305C88.329 38.3958 88.9134 38.3958 89.0145 38.3958C89.4483 38.3644 89.8529 38.1621 90.1384 37.8339C90.262 37.608 90.3744 37.3754 90.471 37.1371C90.5755 36.7101 90.6789 36.283 90.779 35.8559C90.8453 35.5862 90.9071 35.3176 90.9655 35.0468C91.0082 34.1387 90.6958 33.6195 90.1496 33.6195ZM60.0193 33.4397C59.0753 33.4397 58.6931 34.6085 58.3785 36.0133C58.2571 36.4606 58.193 36.9213 58.1874 37.3844C58.1987 38.2722 58.7943 38.2722 58.8954 38.2722C59.2742 38.2419 59.6136 38.0227 59.7945 37.6878C60.1159 37.0731 60.334 36.4078 60.4351 35.7211C60.7723 34.305 60.7161 33.4397 60.0193 33.4397ZM51.6466 31.1695C52.4299 30.6211 53.4414 30.5154 54.3214 30.8885C54.9957 31.2931 54.8945 32.0573 54.0966 32.608C53.32 33.1632 52.3097 33.2688 51.4331 32.889C50.8037 32.4394 50.8037 31.7202 51.6466 31.1695ZM80.5295 27.6856H80.1249V28.0789C80.1361 28.0677 79.1471 32.372 79.1471 32.372V32.5968H79.6866C80.4531 32.6451 81.2206 32.5215 81.9343 32.2372C82.7749 31.7977 83.3762 31.0065 83.5751 30.0794L83.5301 30.0344C83.8516 29.1848 83.4515 28.2306 82.6198 27.8654L80.5295 27.6856Z" fill="white"/>
</g>
</svg>
