<svg width="128" height="80" viewBox="0 0 128 80" fill="none" xmlns="http://www.w3.org/2000/svg">
<g id="logo / payment method / e-wallet / brand">
<g id="logo" clip-path="url(#clip0_499_336)">
<g id="wave">
<path d="M39.9073 23.0312V20C43.7371 20.1583 47.3673 21.7506 50.0777 24.4609C52.788 27.1713 54.3803 30.8015 54.5386 34.6313H51.5136C51.3581 31.604 50.0852 28.7421 47.9413 26.5993C45.7973 24.4564 42.9347 23.1851 39.9073 23.0312Z" fill="#2986D3"/>
<path d="M39.9073 28.9062V25.8937C42.2237 25.897 44.4442 26.8186 46.0821 28.4565C47.7199 30.0944 48.6415 32.3149 48.6449 34.6312H45.6324C45.6307 33.1133 45.027 31.6581 43.9537 30.5848C42.8804 29.5115 41.4252 28.9078 39.9073 28.9062Z" fill="#2986D3"/>
</g>
<g id="wallet">
<path d="M18.1885 39.7627C16.9258 39.7066 15.6886 40.1309 14.726 40.9502C13.8277 41.7772 13.2631 42.9043 13.1385 44.1189H22.8386C22.8436 43.5319 22.7324 42.9498 22.5114 42.4059C22.2904 41.8621 21.964 41.3673 21.551 40.9502C21.097 40.5396 20.5661 40.2232 19.9889 40.0193C19.4116 39.8155 18.7997 39.7283 18.1885 39.7627Z" fill="#122D96"/>
<path fill-rule="evenodd" clip-rule="evenodd" d="M31.0636 49.6877V41.3189C31.0652 40.5901 31.3555 39.8916 31.8709 39.3762C32.3862 38.8609 33.0847 38.5706 33.8136 38.5689H43.2886V35.8314C43.2886 34.5529 42.7811 33.3265 41.8776 32.4219C40.9741 31.5172 39.7484 31.0081 38.4698 31.0064H9.42607C9.28853 31.0173 9.15021 30.9997 9.01983 30.9545C8.88945 30.9094 8.76982 30.8377 8.66848 30.7441C8.56713 30.6504 8.48626 30.5368 8.43094 30.4104C8.37563 30.284 8.34708 30.1475 8.34708 30.0096C8.34708 29.8716 8.37563 29.7351 8.43094 29.6087C8.48626 29.4823 8.56713 29.3687 8.66848 29.2751C8.76982 29.1814 8.88945 29.1098 9.01983 29.0646C9.15021 29.0195 9.28853 29.0018 9.42607 29.0127H32.6073L33.8573 25.3877H8.73232C7.6195 25.3894 6.55282 25.8326 5.76652 26.6201C4.98021 27.4075 4.53857 28.4749 4.53857 29.5877V55.2127C4.54683 56.4853 5.05816 57.7029 5.96095 58.5999C6.86375 59.4968 8.08471 60.0002 9.35732 60.0002H38.4573C39.0912 60.0018 39.7191 59.8784 40.3052 59.637C40.8913 59.3956 41.424 59.0409 41.8728 58.5932C42.3216 58.1456 42.6776 57.6138 42.9206 57.0284C43.1635 56.4429 43.2886 55.8153 43.2886 55.1814V52.4377H33.8136C33.0847 52.436 32.3862 52.1458 31.8709 51.6304C31.3555 51.115 31.0652 50.4165 31.0636 49.6877ZM25.6073 46.2939H13.1073C13.154 46.9427 13.317 47.5779 13.5886 48.1689C13.8501 48.7542 14.2117 49.2893 14.6573 49.7502C15.1011 50.2036 15.6271 50.5684 16.2073 50.8252C16.8224 51.0921 17.4869 51.2262 18.1573 51.2189C19.1393 51.2381 20.1118 51.0239 20.9948 50.5939C21.8049 50.1675 22.5128 49.5704 23.0698 48.8439L25.0198 50.3627C24.2351 51.4396 23.19 52.2998 21.9823 52.8627C20.7682 53.3543 19.467 53.5945 18.1573 53.5689C17.0358 53.5937 15.9218 53.3807 14.8886 52.9439C13.9728 52.5514 13.1474 51.9749 12.4636 51.2502C11.7802 50.5039 11.2532 49.6284 10.9136 48.6752C10.5467 47.6615 10.3626 46.5907 10.3698 45.5127C10.3588 44.3913 10.5603 43.2779 10.9636 42.2314C11.3253 41.2752 11.8814 40.4043 12.5968 39.6738C13.3122 38.9434 14.1713 38.3693 15.1198 37.9877C16.127 37.5834 17.2033 37.3796 18.2886 37.3877C19.3045 37.3758 20.3131 37.5626 21.2573 37.9377C22.1394 38.287 22.9333 38.827 23.5823 39.5189C24.2551 40.25 24.7662 41.1146 25.0823 42.0564C25.4481 43.1563 25.6256 44.31 25.6073 45.4689V46.2939Z" fill="#122D96"/>
<path fill-rule="evenodd" clip-rule="evenodd" d="M33.8135 39.7753H45.651V51.2503H33.8135C33.6092 51.2503 33.4069 51.2097 33.2184 51.131C33.0299 51.0522 32.8588 50.9368 32.7152 50.7915C32.5716 50.6462 32.4583 50.4738 32.3819 50.2843C32.3054 50.0948 32.2673 49.8921 32.2698 49.6878V41.319C32.2714 40.9101 32.4346 40.5184 32.7237 40.2292C33.0129 39.9401 33.4046 39.7769 33.8135 39.7753ZM35.4827 46.6493C35.7067 46.7979 35.9697 46.8765 36.2385 46.8753C36.5966 46.8753 36.9399 46.733 37.1931 46.4799C37.4463 46.2267 37.5885 45.8833 37.5885 45.5253C37.5898 45.2565 37.5111 44.9934 37.3626 44.7694C37.214 44.5454 37.0023 44.3706 36.7542 44.2672C36.5061 44.1638 36.2329 44.1364 35.9692 44.1885C35.7056 44.2407 35.4633 44.37 35.2733 44.56C35.0832 44.7501 34.9539 44.9923 34.9018 45.256C34.8497 45.5196 34.877 45.7929 34.9805 46.0409C35.0839 46.289 35.2587 46.5008 35.4827 46.6493Z" fill="#122D96"/>
</g>
</g>
<g id="wordmark">
<path d="M62.5386 45.8085V34.6702H70.0854V36.8245H64.9536V39.1064H69.3546V41.2447H64.9536V43.6543H70.0854V45.8085H62.5386Z" fill="black"/>
<path d="M71.8081 42.0904V39.7926H76.5268V42.0904H71.8081Z" fill="black"/>
<path d="M77.6138 37.4309H79.8858L80.6961 40.8138L81.2681 43.367H81.3316L81.9989 40.8138L82.9522 37.4309H85.0971L86.0663 40.8138L86.7495 43.367H86.813L87.385 40.8138L88.1953 37.4309H90.372L88.0682 45.8085H85.6055L84.5887 42.266L84.0008 40.0957H83.9532L83.3812 42.266L82.3644 45.8085H79.9494L77.6138 37.4309Z" fill="black"/>
<path d="M97.7147 45.8085C97.291 45.8085 96.9362 45.6755 96.6502 45.4096C96.3748 45.1436 96.2 44.7872 96.1259 44.3404H96.0305C95.9034 44.883 95.6227 45.2979 95.1885 45.5851C94.7542 45.8617 94.2193 46 93.5838 46C92.747 46 92.1062 45.7766 91.6613 45.3298C91.2164 44.883 90.994 44.2926 90.994 43.5585C90.994 42.6755 91.3118 42.0213 91.9473 41.5957C92.5934 41.1596 93.4672 40.9415 94.5688 40.9415H95.8875V40.4149C95.8875 40.0106 95.7816 39.6915 95.5698 39.4574C95.3579 39.2128 95.0031 39.0904 94.5053 39.0904C94.0392 39.0904 93.6685 39.1915 93.3931 39.3936C93.1177 39.5957 92.89 39.8245 92.7099 40.0798L91.3118 38.8351C91.6507 38.3351 92.0744 37.9468 92.5828 37.6702C93.1018 37.383 93.8009 37.2394 94.68 37.2394C95.8664 37.2394 96.7561 37.5 97.3492 38.0213C97.9424 38.5426 98.239 39.3032 98.239 40.3032V43.9734H99.0175V45.8085H97.7147ZM94.4576 44.3564C94.8495 44.3564 95.1832 44.2713 95.4586 44.1011C95.7445 43.9309 95.8875 43.6543 95.8875 43.2713V42.2819H94.7436C93.8221 42.2819 93.3613 42.5957 93.3613 43.2234V43.4628C93.3613 43.7713 93.4567 44 93.6473 44.1489C93.838 44.2872 94.1081 44.3564 94.4576 44.3564Z" fill="black"/>
<path d="M102.931 45.8085C102.126 45.8085 101.533 45.6117 101.152 45.2181C100.781 44.8245 100.596 44.2553 100.596 43.5106V34H102.947V43.9734H103.996V45.8085H102.931Z" fill="black"/>
<path d="M107.617 45.8085C106.812 45.8085 106.219 45.6117 105.838 45.2181C105.467 44.8245 105.282 44.2553 105.282 43.5106V34H107.633V43.9734H108.682V45.8085H107.617Z" fill="black"/>
<path d="M113.571 46C112.935 46 112.369 45.8989 111.871 45.6968C111.373 45.484 110.949 45.1915 110.6 44.8191C110.261 44.4362 110.001 43.9734 109.821 43.4309C109.652 42.8883 109.567 42.2819 109.567 41.6117C109.567 40.9521 109.652 40.3564 109.821 39.8245C109.991 39.2819 110.24 38.8191 110.568 38.4362C110.907 38.0532 111.32 37.7606 111.807 37.5585C112.295 37.3457 112.851 37.2394 113.476 37.2394C114.164 37.2394 114.752 37.3564 115.239 37.5904C115.737 37.8245 116.139 38.1383 116.447 38.5319C116.764 38.9255 116.992 39.383 117.13 39.9043C117.278 40.4149 117.352 40.9521 117.352 41.516V42.2181H111.998V42.3457C111.998 42.8989 112.146 43.3404 112.443 43.6702C112.739 43.9894 113.205 44.1489 113.841 44.1489C114.328 44.1489 114.725 44.0532 115.033 43.8617C115.34 43.6596 115.626 43.4202 115.891 43.1436L117.066 44.6117C116.696 45.0479 116.208 45.3883 115.605 45.633C115.011 45.8777 114.334 46 113.571 46ZM113.523 38.9787C113.047 38.9787 112.671 39.1383 112.395 39.4574C112.13 39.766 111.998 40.1809 111.998 40.7021V40.8298H114.921V40.6862C114.921 40.1755 114.805 39.766 114.572 39.4574C114.349 39.1383 114 38.9787 113.523 38.9787Z" fill="black"/>
<path d="M121.936 45.8085C121.121 45.8085 120.501 45.6011 120.077 45.1862C119.664 44.7713 119.458 44.1649 119.458 43.367V39.266H118.282V37.4309H118.87C119.188 37.4309 119.405 37.3564 119.521 37.2074C119.638 37.0479 119.696 36.8245 119.696 36.5372V35.1649H121.809V37.4309H123.462V39.266H121.809V43.9734H123.335V45.8085H121.936Z" fill="black"/>
</g>
</g>
<defs>
<clipPath id="clip0_499_336">
<rect width="50" height="40" fill="white" transform="translate(4.53857 20)"/>
</clipPath>
</defs>
</svg>
