<svg width="344" height="59" viewBox="0 0 344 59" fill="none" xmlns="http://www.w3.org/2000/svg">
<g id="logo / sub-brand / deriv demo / brand-light">
<g id="logo">
<path d="M34.9861 1.82853L31.9963 18.7839H21.6179C11.9356 18.7839 2.70673 26.6285 0.996224 36.3108L0.272218 40.4319C-1.43032 50.1143 5.02984 57.959 14.7122 57.959H23.3682C30.4251 57.959 37.1479 52.2464 38.389 45.1897L46.3608 0L34.9861 1.82853ZM27.6221 43.5905C27.2402 45.7704 25.2776 47.5447 23.0977 47.5447H17.8389C13.487 47.5447 10.5752 44.012 11.3389 39.6522L11.7924 37.0825C12.5641 32.7306 16.7171 29.1902 21.069 29.1902H30.1613L27.6221 43.5905ZM114.914 57.9581L121.724 19.324H132.496L125.686 57.9581H114.905H114.914ZM116.079 19.7695C115.539 22.8339 114.997 25.8983 114.457 28.9627C109.353 27.3768 104.088 27.8818 102.47 28.2044C100.723 38.1247 98.9739 48.0474 97.2245 57.9677H86.4451C87.9089 49.6671 92.9099 21.3197 92.9099 21.3197C96.4158 19.8679 105.025 16.9214 116.079 19.7695ZM72.4022 18.7773H64.0168C55.8461 18.7773 48.0576 25.3966 46.6173 33.5673L44.9228 43.1702C43.4827 51.3408 48.9327 57.9603 57.1034 57.9603H74.9405L76.7704 47.5778H60.007C57.2863 47.5778 55.4642 45.3739 55.9497 42.6451L56.0054 42.3189H83.0316L84.575 33.5673C86.0148 25.3966 80.5651 18.7773 72.3944 18.7773H72.4022ZM73.7628 32.7399L73.6992 33.2968H57.6285L57.716 32.8036C58.201 30.0827 60.6835 27.688 63.4121 27.688H69.6894C72.3865 27.688 74.2086 30.0429 73.7628 32.7399ZM174.527 19.324C170.855 29.0872 162.439 45.6953 154.287 57.9581H143.507C139.765 46.2868 137.349 30.0248 136.888 19.324H147.668C147.862 22.8146 149.425 35.7617 151.208 44.8066C156.1 36.0072 161.492 24.4623 163.739 19.324H174.527Z" fill="#FF444F"/>
<path d="M204.701 50.3037C204.771 51.4443 204.94 52.5957 205.211 53.7588C205.48 54.9238 205.904 56.1738 206.481 57.5107L200.444 58.4033C199.831 57.3135 199.33 56.001 198.939 54.4648C197.909 55.4561 196.509 56.4463 194.738 57.4375C192.966 58.4277 190.743 58.9229 188.068 58.9229C185.888 58.9229 183.985 58.5889 182.36 57.9199C180.733 57.251 179.362 56.2979 178.246 55.0596C177.13 53.8223 176.271 52.3477 175.671 50.6387C175.07 48.9297 174.708 47.0605 174.583 45.0293C174.378 41.7109 174.736 38.4658 175.656 35.2959C176.575 32.126 178.061 29.3027 180.112 26.8252C182.163 24.3496 184.803 22.3564 188.029 20.8447C191.254 19.334 195.071 18.5781 199.48 18.5781C200.024 18.5781 200.571 18.6035 201.119 18.6523C201.667 18.7021 202.241 18.7773 202.842 18.875L205.933 1.48926L213.067 0.300781L205.265 43.7656C205.086 44.9053 204.931 45.9951 204.797 47.0352C204.663 48.0752 204.631 49.165 204.701 50.3037ZM189.119 53.0537C191.199 53.0537 192.943 52.6201 194.351 51.7529C195.758 50.8867 196.972 49.8838 197.992 48.7441C197.992 47.9521 198.027 47.0977 198.095 46.1807C198.161 45.2646 198.285 44.2617 198.467 43.1719L201.782 24.5967C201.33 24.498 200.831 24.4365 200.285 24.4111C199.737 24.3867 199.217 24.374 198.722 24.374C195.898 24.374 193.38 24.9189 191.169 26.0088C188.958 27.0986 187.104 28.5605 185.607 30.3926C184.11 32.2246 183.001 34.3428 182.283 36.7441C181.564 39.1475 181.285 41.6611 181.446 44.2861C181.517 45.4258 181.707 46.5146 182.019 47.5547C182.331 48.5957 182.783 49.5234 183.379 50.3408C183.974 51.1582 184.745 51.8154 185.692 52.3105C186.639 52.8066 187.781 53.0537 189.119 53.0537Z" fill="#414652"/>
<path d="M228.784 58.9229C226.258 58.9229 224.055 58.5625 222.18 57.8457C220.302 57.1279 218.705 56.1367 217.39 54.874C216.074 53.6104 215.067 52.1377 214.369 50.4531C213.671 48.7695 213.264 46.9863 213.148 45.1025C212.935 41.6367 213.25 38.293 214.091 35.0723C214.934 31.8535 216.244 29.0059 218.024 26.5283C219.803 24.0518 222.034 22.083 224.719 20.6211C227.402 19.1611 230.502 18.4297 234.02 18.4297C236.051 18.4297 237.812 18.6895 239.306 19.21C240.798 19.7295 242.03 20.4355 243.003 21.3271C243.974 22.2188 244.718 23.2471 245.235 24.4111C245.753 25.5752 246.05 26.7773 246.126 28.0146C246.27 30.3438 245.969 32.3125 245.226 33.9209C244.482 35.5312 243.451 36.8809 242.132 37.9707C240.812 39.0605 239.242 39.9023 237.421 40.4961C235.6 41.0908 233.697 41.5625 231.712 41.9082C229.728 42.2559 227.71 42.4912 225.663 42.6143C223.615 42.7383 221.677 42.8496 219.852 42.9482C219.826 43.3457 219.821 43.667 219.836 43.9141C219.852 44.1631 219.864 44.3604 219.873 44.5088C219.943 45.6484 220.146 46.7266 220.48 47.7412C220.814 48.7568 221.378 49.6484 222.168 50.416C222.958 51.1846 224.023 51.79 225.363 52.2363C226.703 52.6816 228.438 52.9043 230.568 52.9043C231.509 52.9043 232.482 52.8193 233.487 52.6445C234.491 52.4717 235.443 52.249 236.344 51.9756C237.243 51.7041 238.043 51.4316 238.745 51.1582C239.446 50.8867 239.939 50.627 240.221 50.3789L241.176 56.248C240.218 56.7939 238.656 57.376 236.491 57.9941C234.324 58.6133 231.756 58.9229 228.784 58.9229ZM220.418 37.6729C223.285 37.5752 225.899 37.3887 228.26 37.1162C230.621 36.8447 232.647 36.373 234.34 35.7041C236.032 35.0361 237.326 34.1328 238.222 32.9922C239.118 31.8535 239.51 30.3682 239.397 28.5342C239.369 28.0879 239.253 27.6182 239.05 27.123C238.846 26.6279 238.52 26.1699 238.074 25.748C237.626 25.3281 237.023 24.9814 236.264 24.708C235.504 24.4365 234.578 24.2988 233.489 24.2988C231.755 24.2988 230.156 24.6709 228.692 25.4141C227.226 26.1572 225.937 27.1357 224.823 28.3486C223.709 29.5635 222.78 30.9746 222.037 32.584C221.293 34.1943 220.754 35.8896 220.418 37.6729Z" fill="#414652"/>
<path d="M290.713 18.5039C292.893 18.5039 294.758 18.8379 296.311 19.5068C297.862 20.1758 299.131 21.0801 300.118 22.2188C301.105 23.3594 301.842 24.6836 302.332 26.1943C302.82 27.7051 303.117 29.3027 303.221 30.9863C303.288 32.0762 303.273 33.252 303.178 34.5156C303.081 35.7783 302.922 37.0049 302.698 38.1934L299.159 57.957H292.249L295.508 39.6797C295.686 38.54 295.892 37.2646 296.127 35.8525C296.362 34.4414 296.438 33.042 296.352 31.6553C296.294 30.7148 296.126 29.7979 295.849 28.9053C295.571 28.0146 295.152 27.2471 294.592 26.6025C294.033 25.96 293.27 25.4395 292.305 25.042C291.339 24.6465 290.162 24.4482 288.776 24.4482C287.19 24.4482 285.674 24.7578 284.227 25.377C282.779 25.9971 281.579 26.6279 280.628 27.2715C280.77 27.9658 280.898 28.6455 281.014 29.3145C281.129 29.9834 281.207 30.6406 281.247 31.2832C281.317 32.4238 281.3 33.5752 281.199 34.7383C281.097 35.9023 280.957 37.0547 280.78 38.1934L277.241 57.957H270.331L273.59 39.6797C273.767 38.54 273.961 37.2529 274.169 35.8154C274.378 34.3799 274.439 32.9434 274.35 31.5059C274.293 30.5664 274.137 29.6611 273.887 28.7949C273.634 27.9287 273.254 27.1729 272.744 26.5283C272.233 25.8848 271.57 25.377 270.755 25.0049C269.94 24.6338 268.913 24.4482 267.675 24.4482C266.437 24.4482 265.239 24.5225 264.085 24.6709C262.93 24.8193 261.964 25.0176 261.187 25.2646L255.323 57.957H248.413L255.043 20.8076C257.23 20.1143 259.634 19.5566 262.259 19.1357C264.882 18.7148 267.235 18.5039 269.315 18.5039C271.396 18.5039 273.175 18.8633 274.657 19.5811C276.137 20.2998 277.335 21.2529 278.251 22.4414C278.724 22.0957 279.381 21.6982 280.221 21.2529C281.06 20.8076 282.025 20.3867 283.115 19.9902C284.205 19.5938 285.397 19.2471 286.691 18.9502C287.985 18.6523 289.326 18.5039 290.713 18.5039Z" fill="#414652"/>
<path d="M322.547 58.9229C318.485 58.9229 315.23 57.7227 312.778 55.3193C310.328 52.917 308.972 49.6113 308.713 45.4004C308.537 42.5283 308.759 39.5059 309.382 36.3359C310.004 33.167 311.125 30.2432 312.743 27.5684C314.362 24.8936 316.529 22.6904 319.246 20.9561C321.963 19.2227 325.327 18.3555 329.339 18.3555C333.4 18.3555 336.658 19.5566 339.108 21.959C341.56 24.3623 342.915 27.668 343.174 31.8779C343.351 34.751 343.128 37.7734 342.505 40.9424C341.883 44.1133 340.763 47.0352 339.144 49.71C337.525 52.3848 335.357 54.5898 332.641 56.3223C329.924 58.0557 326.56 58.9229 322.547 58.9229ZM323.376 53.0537C325.605 53.0537 327.558 52.4102 329.237 51.1211C330.916 49.834 332.301 48.1865 333.392 46.1807C334.481 44.1748 335.274 41.958 335.769 39.5303C336.262 37.1045 336.44 34.751 336.3 32.4717C336.145 29.9463 335.476 27.9404 334.296 26.4541C333.114 24.9678 331.187 24.2246 328.512 24.2246C326.283 24.2246 324.328 24.8691 322.649 26.1572C320.97 27.4453 319.585 29.0918 318.496 31.0977C317.404 33.1035 316.612 35.3213 316.118 37.7471C315.623 40.1748 315.447 42.5283 315.587 44.8066C315.742 47.332 316.41 49.3379 317.591 50.8242C318.772 52.3105 320.701 53.0537 323.376 53.0537Z" fill="#414652"/>
</g>
</g>
</svg>
