<svg width="415" height="72" viewBox="0 0 415 72" fill="none" xmlns="http://www.w3.org/2000/svg">
<g id="logo / sub-brand / deriv security / brand-dark" clip-path="url(#clip0_203_73)">
<g id="wordmark">
<path d="M35.0186 1.82853L32.0288 18.7839H21.6504C11.9681 18.7839 2.7392 26.6285 1.02869 36.3108L0.304689 40.4319C-1.39785 50.1143 5.06231 57.959 14.7447 57.959H23.4007C30.4576 57.959 37.1803 52.2464 38.4215 45.1897L46.3933 0L35.0186 1.82853ZM27.6545 43.5905C27.2727 45.7704 25.3101 47.5447 23.1302 47.5447H17.8714C13.5195 47.5447 10.6076 44.012 11.3714 39.6522L11.8249 37.0825C12.5966 32.7306 16.7495 29.1902 21.1014 29.1902H30.1938L27.6545 43.5905ZM114.946 57.9581L121.756 19.324H132.529L125.718 57.9581H114.938H114.946ZM116.111 19.7695C115.571 22.8339 115.029 25.8983 114.489 28.9627C109.386 27.3768 104.12 27.8818 102.503 28.2044C100.756 38.1247 99.0063 48.0474 97.257 57.9677H86.4776C87.9414 49.6671 92.9423 21.3197 92.9423 21.3197C96.4483 19.8679 105.058 16.9214 116.111 19.7695ZM72.4347 18.7773H64.0493C55.8785 18.7773 48.09 25.3966 46.6498 33.5673L44.9553 43.1702C43.5151 51.3408 48.9651 57.9603 57.1359 57.9603H74.973L76.8028 47.5778H60.0394C57.3188 47.5778 55.4967 45.3739 55.9821 42.6451L56.0379 42.3189H83.064L84.6075 33.5673C86.0473 25.3966 80.5976 18.7773 72.4269 18.7773H72.4347ZM73.7952 32.7399L73.7317 33.2968H57.661L57.7485 32.8036C58.2335 30.0827 60.716 27.688 63.4445 27.688H69.7219C72.419 27.688 74.2411 30.0429 73.7952 32.7399ZM174.559 19.324C170.887 29.0872 162.472 45.6953 154.319 57.9581H143.539C139.797 46.2868 137.381 30.0248 136.92 19.324H147.7C147.895 22.8146 149.458 35.7617 151.241 44.8066C156.132 36.0072 161.524 24.4623 163.771 19.324H174.559Z" fill="#FF444F"/>
<path d="M186.858 53.1394C187.899 53.1394 188.944 53.0408 189.998 52.8421C191.05 52.6448 191.972 52.3221 192.761 51.8763C193.551 51.4306 194.183 50.8246 194.656 50.0561C195.129 49.2886 195.33 48.3355 195.26 47.1955C195.214 46.4529 195.049 45.7967 194.767 45.2269C194.484 44.658 194.055 44.1254 193.48 43.6293C192.904 43.1347 192.194 42.6518 191.348 42.1807C190.502 41.7105 189.49 41.1778 188.315 40.5832C187.141 40.0387 186.068 39.4943 185.094 38.949C184.119 38.4046 183.249 37.7601 182.486 37.017C181.722 36.2744 181.111 35.3955 180.652 34.3795C180.193 33.3649 179.92 32.1389 179.832 30.702C179.603 26.9869 180.757 24.0037 183.293 21.749C185.829 19.4957 189.647 18.3688 194.75 18.3688C197.127 18.3688 199.233 18.6042 201.071 19.0744C202.907 19.546 204.184 19.9791 204.903 20.3746L202.65 26.0212C201.931 25.6252 200.791 25.2038 199.229 24.7581C197.666 24.3123 195.943 24.0896 194.061 24.0896C193.12 24.0896 192.185 24.1892 191.256 24.3865C190.327 24.5852 189.493 24.9197 188.755 25.3899C188.015 25.861 187.435 26.4796 187.012 27.2472C186.588 28.0156 186.41 28.9443 186.477 30.0331C186.56 31.3704 187.147 32.4733 188.241 33.3395C189.334 34.2066 190.95 35.1108 193.088 36.0512C194.412 36.6454 195.601 37.2528 196.655 37.8714C197.708 38.4915 198.618 39.1843 199.383 39.9519C200.148 40.7203 200.749 41.6236 201.185 42.6636C201.62 43.7036 201.882 44.9422 201.971 46.3787C202.098 48.4586 201.814 50.2919 201.12 51.8763C200.424 53.4621 199.404 54.7741 198.056 55.8141C196.708 56.854 195.085 57.6342 193.185 58.1542C191.285 58.6747 189.195 58.9344 186.918 58.9344C185.233 58.9344 183.703 58.8231 182.328 58.6C180.951 58.3774 179.746 58.1171 178.714 57.8203C177.679 57.5229 176.819 57.2143 176.13 56.8916C175.442 56.5698 174.918 56.3096 174.559 56.1114L176.887 50.4648C177.245 50.663 177.743 50.9106 178.381 51.2079C179.018 51.5048 179.78 51.8021 180.665 52.0995C181.549 52.3963 182.519 52.6448 183.571 52.8421C184.623 53.0408 185.718 53.1394 186.858 53.1394ZM222.505 58.9344C219.979 58.9344 217.776 58.5746 215.9 57.8574C214.023 57.1396 212.426 56.1485 211.111 54.8854C209.795 53.6223 208.788 52.1492 208.09 50.4648C207.392 48.7813 206.985 46.9982 206.87 45.1156C206.656 41.649 206.971 38.3055 207.813 35.0855C208.655 31.8664 209.966 29.0185 211.745 26.5411C213.524 24.0652 215.755 22.0961 218.44 20.6348C221.123 19.1744 224.223 18.4431 227.741 18.4431C229.771 18.4431 231.533 18.7028 233.026 19.2233C234.519 19.7433 235.751 20.4488 236.723 21.3403C237.694 22.2319 238.439 23.2606 238.956 24.4236C239.473 25.5881 239.77 26.7896 239.846 28.0274C239.989 30.3558 239.689 32.3249 238.946 33.9337C238.203 35.5439 237.171 36.8939 235.852 37.9828C234.532 39.073 232.962 39.9147 231.141 40.5089C229.32 41.1036 227.418 41.5748 225.433 41.9205C223.448 42.2676 221.431 42.5034 219.384 42.6265C217.336 42.7505 215.398 42.8623 213.572 42.9609C213.547 43.3578 213.542 43.6796 213.557 43.9267L213.594 44.5209C213.664 45.6609 213.866 46.7385 214.201 47.7531C214.535 48.7686 215.099 49.6602 215.889 50.4277C216.679 51.1962 217.744 51.8021 219.084 52.2479C220.423 52.6937 222.159 52.9163 224.289 52.9163C225.229 52.9163 226.203 52.8308 227.208 52.6566C228.212 52.4837 229.164 52.2606 230.064 51.9877C230.963 51.7162 231.764 51.4432 232.466 51.1703C233.166 50.8988 233.659 50.6391 233.941 50.3906L234.896 56.2598C233.938 56.8056 232.377 57.3872 230.211 58.0058C228.045 58.6244 225.476 58.9344 222.505 58.9344ZM214.139 37.6859C217.005 37.5872 219.62 37.4012 221.98 37.1283C224.341 36.8568 226.367 36.3857 228.06 35.7168C229.752 35.0484 231.047 34.1451 231.943 33.0051C232.838 31.8664 233.23 30.3802 233.117 28.5474C233.09 28.1016 232.974 27.6314 232.77 27.1358C232.566 26.6412 232.24 26.1827 231.794 25.7614C231.347 25.341 230.744 24.9939 229.984 24.721C229.225 24.4495 228.299 24.3123 227.21 24.3123C225.476 24.3123 223.877 24.6838 222.412 25.427C220.947 26.1696 219.658 27.1485 218.544 28.3613C217.43 29.5761 216.501 30.9876 215.758 32.5964C215.014 34.2066 214.475 35.9028 214.139 37.6859ZM243.066 44.1493C242.859 40.7819 243.167 37.537 243.991 34.4166C244.813 31.2962 246.143 28.5474 247.978 26.1696C249.813 23.7923 252.123 21.8979 254.91 20.4864C257.695 19.0744 260.946 18.3688 264.661 18.3688C266.295 18.3688 267.862 18.4802 269.362 18.7028C270.862 18.9259 272.3 19.36 273.677 20.003L271.433 25.7985C270.613 25.3527 269.663 25.0066 268.583 24.7581C267.502 24.511 266.12 24.3865 264.437 24.3865C262.009 24.3865 259.863 24.9197 257.997 25.9841C256.131 27.0499 254.57 28.4614 253.317 30.2191C252.062 31.9778 251.147 34.0079 250.571 36.3115C249.994 38.6145 249.782 41.0045 249.935 43.4809C250.014 44.7694 250.224 45.9827 250.567 47.1213C250.909 48.2613 251.454 49.2642 252.201 50.1304C252.948 50.9975 253.918 51.6791 255.113 52.1737C256.307 52.6692 257.796 52.9163 259.579 52.9163C260.471 52.9163 261.406 52.8308 262.387 52.6566C263.366 52.4837 264.269 52.2733 265.097 52.0248C265.923 51.7777 266.663 51.5175 267.315 51.245C267.967 50.973 268.434 50.7133 268.715 50.4648L269.671 56.334C268.766 56.9287 267.34 57.5112 265.395 58.08C263.448 58.6489 261.213 58.9344 258.686 58.9344C256.309 58.9344 254.181 58.5746 252.305 57.8574C250.428 57.1396 248.829 56.1241 247.511 54.8112C246.192 53.4992 245.154 51.9393 244.4 50.1304C243.644 48.3228 243.2 46.3298 243.066 44.1493ZM287.587 58.9344C285.407 58.9344 283.567 58.6117 282.067 57.9687C280.565 57.3256 279.323 56.4585 278.34 55.3683C277.356 54.2795 276.621 52.991 276.134 51.5048C275.646 50.019 275.351 48.4342 275.247 46.7497C275.168 45.4627 275.201 44.1869 275.346 42.9238C275.491 41.6607 275.673 40.3859 275.891 39.0974L279.43 19.3346H286.34L283.081 37.6117C282.902 38.7512 282.663 40.089 282.361 41.6236C282.059 43.1591 281.956 44.6951 282.05 46.2297C282.105 47.1213 282.244 47.9757 282.468 48.793C282.691 49.6104 283.057 50.3291 283.566 50.9477C284.075 51.5677 284.737 52.0623 285.552 52.4334C286.367 52.805 287.37 52.991 288.559 52.991C290.688 52.991 292.53 52.5335 294.083 51.6166C295.636 50.7006 296.92 49.6231 297.934 48.3844C297.934 47.5929 297.958 46.7756 298.006 45.9329C298.053 45.0911 298.169 44.1752 298.357 43.1836L302.611 19.3346H309.52L305.154 43.7782C304.976 44.9183 304.834 46.0198 304.726 47.0842C304.618 48.15 304.599 49.2515 304.669 50.3906C304.74 51.5306 304.908 52.6692 305.177 53.8083C305.444 54.9479 305.868 56.1856 306.446 57.5229L300.408 58.4145C300.126 57.87 299.841 57.2514 299.551 56.5572C299.26 55.8638 299.017 55.1212 298.82 54.3283C298.304 54.8239 297.693 55.3439 296.984 55.8883C296.274 56.4341 295.45 56.9287 294.512 57.3745C293.573 57.8203 292.531 58.1918 291.386 58.4887C290.24 58.786 288.973 58.9344 287.587 58.9344ZM331.758 18.5173C332.352 18.5173 333.023 18.5426 333.768 18.5915C334.514 18.6413 335.25 18.7287 335.976 18.8517C336.701 18.9757 337.366 19.1002 337.968 19.2233C338.57 19.3473 339.024 19.483 339.33 19.6319L337.695 25.6496C336.679 25.2541 335.522 24.9568 334.222 24.7581C332.921 24.5608 331.678 24.4612 330.489 24.4612C329.449 24.4612 328.425 24.5354 327.419 24.6838C326.413 24.8323 325.546 25.031 324.818 25.2781L318.954 57.9687H312.044L318.675 20.8203C320.613 20.1275 322.709 19.5704 324.961 19.1486C327.213 18.7287 329.479 18.5173 331.758 18.5173ZM344.363 57.9687H337.453L344.364 19.3346H351.273L344.363 57.9687ZM349.581 12.3507C348.441 12.3507 347.466 12.0045 346.656 11.3107C345.845 10.6174 345.403 9.65165 345.327 8.41298C345.229 6.8286 345.647 5.57818 346.581 4.66081C347.516 3.74484 348.602 3.28639 349.84 3.28639C350.979 3.28639 351.967 3.6462 352.804 4.36394C353.64 5.08262 354.099 6.08549 354.178 7.37301C354.269 8.85876 353.823 10.0603 352.839 10.9763C351.856 11.8932 350.769 12.3507 349.581 12.3507ZM367.012 59.0087C363.297 59.0087 360.523 58.1918 358.689 56.5572C356.854 54.9225 355.842 52.5452 355.65 49.4248C355.525 47.3942 355.711 44.7938 356.21 41.6236L362.126 8.56142L369.26 7.37301L367.098 19.3346H380.248L379.193 25.1296H366.043L363.008 42.2178C362.557 44.5467 362.384 46.5769 362.491 48.3102C362.591 49.9448 363.109 51.122 364.045 51.8392C364.981 52.5579 366.489 52.9163 368.569 52.9163C370.005 52.9163 371.403 52.6819 372.761 52.2108C374.118 51.7406 375.157 51.3075 375.876 50.9106L376.757 56.7798C376.041 57.2256 374.808 57.7085 373.057 58.2289C371.306 58.7489 369.29 59.0087 367.012 59.0087ZM395.242 51.7279C396.941 48.7559 398.46 45.6727 399.8 42.478C401.138 39.283 402.3 36.2255 403.284 33.3024C404.268 30.3802 405.081 27.6929 405.723 25.2409C406.364 22.7894 406.813 20.8203 407.069 19.3346H414.275C413.846 21.2173 413.222 23.5579 412.404 26.3556C411.585 29.1542 410.571 32.176 409.358 35.4199C408.146 38.6643 406.765 41.9834 405.216 45.3753C403.666 48.7686 401.947 52.0248 400.059 55.1456C398.616 57.4741 397.166 59.6649 395.708 61.7209C394.249 63.7755 392.663 65.5585 390.948 67.0701C389.232 68.5803 387.312 69.7692 385.187 70.6363C383.06 71.5025 380.635 71.9365 377.911 71.9365C376.524 71.9365 375.226 71.7622 374.016 71.4165C372.806 71.0694 371.917 70.6978 371.347 70.3018L373.377 64.6553C373.897 65.0512 374.586 65.3857 375.445 65.6586C376.303 65.9301 377.253 66.0668 378.293 66.0668C381.165 66.0668 383.563 65.373 385.483 63.9868C387.404 62.5993 389.186 60.7664 390.829 58.4887C388.627 52.4964 386.74 46.1809 385.169 39.5432C383.596 32.9064 382.476 26.1696 381.808 19.3346H388.866C389.052 21.5635 389.326 24.0037 389.688 26.6529C390.048 29.3031 390.503 32.052 391.05 34.8995C391.596 37.7484 392.218 40.609 392.915 43.4809C393.611 46.3542 394.386 49.1031 395.242 51.7279Z" fill="white"/>
</g>
</g>
<defs>
<clipPath id="clip0_203_73">
<rect width="415" height="72" fill="white"/>
</clipPath>
</defs>
</svg>
