<svg width="128" height="80" viewBox="0 0 128 80" fill="none" xmlns="http://www.w3.org/2000/svg">
<g id="logo / payment method / e-wallet / black">
<g id="logo">
<path d="M39.9072 20V23.0312C42.9345 23.1851 45.7972 24.4564 47.9412 26.5993C50.0851 28.7421 51.358 31.604 51.5135 34.6312H54.5385C54.3802 30.8015 52.7879 27.1713 50.0776 24.4609C47.3672 21.7506 43.737 20.1583 39.9072 20Z" fill="black"/>
<path d="M39.9072 25.8937V28.9062C41.4251 28.9078 42.8803 29.5115 43.9536 30.5848C45.0269 31.6581 45.6306 33.1133 45.6322 34.6312H48.6447C48.6414 32.3149 47.7198 30.0944 46.0819 28.4565C44.444 26.8186 42.2235 25.897 39.9072 25.8937Z" fill="black"/>
<path d="M14.726 40.95C15.6886 40.1307 16.9258 39.7064 18.1885 39.7625C18.7997 39.728 19.4116 39.8153 19.9888 40.0191C20.5661 40.2229 21.097 40.5393 21.551 40.95C21.964 41.3671 22.2904 41.8618 22.5114 42.4057C22.7324 42.9495 22.8436 43.5317 22.8386 44.1187H13.1385C13.2631 42.904 13.8277 41.7769 14.726 40.95Z" fill="black"/>
<path fill-rule="evenodd" clip-rule="evenodd" d="M31.0636 49.6875V41.3187C31.0652 40.5899 31.3555 39.8913 31.8709 39.376C32.3862 38.8606 33.0847 38.5704 33.8136 38.5687H43.2886V35.8312C43.2886 34.5526 42.7811 33.3263 41.8776 32.4216C40.9741 31.5169 39.7484 31.0079 38.4698 31.0062H9.42607C9.28853 31.0171 9.15021 30.9994 9.01983 30.9543C8.88945 30.9091 8.76982 30.8375 8.66848 30.7438C8.56713 30.6502 8.48626 30.5366 8.43094 30.4102C8.37563 30.2838 8.34708 30.1473 8.34708 30.0093C8.34708 29.8713 8.37563 29.7349 8.43094 29.6085C8.48626 29.482 8.56713 29.3685 8.66848 29.2748C8.76982 29.1812 8.88945 29.1095 9.01983 29.0644C9.15021 29.0192 9.28853 29.0016 9.42607 29.0125H32.6073L33.8573 25.3875H8.73232C7.6195 25.3891 6.55282 25.8323 5.76652 26.6198C4.98021 27.4073 4.53857 28.4746 4.53857 29.5875V55.2125C4.54683 56.485 5.05816 57.7027 5.96095 58.5996C6.86375 59.4966 8.08471 60 9.35732 60H38.4573C39.0912 60.0016 39.7191 59.8782 40.3052 59.6367C40.8913 59.3953 41.424 59.0406 41.8728 58.593C42.3216 58.1454 42.6776 57.6136 42.9206 57.0281C43.1635 56.4427 43.2886 55.8151 43.2886 55.1812V52.4375H33.8136C33.0847 52.4358 32.3862 52.1455 31.8709 51.6302C31.3555 51.1148 31.0652 50.4163 31.0636 49.6875ZM25.6073 46.2937H13.1073C13.154 46.9425 13.317 47.5776 13.5886 48.1687C13.8501 48.754 14.2117 49.2891 14.6573 49.75C15.1011 50.2034 15.6271 50.5682 16.2073 50.825C16.8224 51.0918 17.4869 51.226 18.1573 51.2187C19.1393 51.2378 20.1118 51.0236 20.9948 50.5937C21.8049 50.1672 22.5128 49.5702 23.0698 48.8437L25.0198 50.3625C24.2351 51.4393 23.19 52.2995 21.9823 52.8625C20.7682 53.354 19.467 53.5943 18.1573 53.5687C17.0358 53.5935 15.9218 53.3805 14.8886 52.9437C13.9728 52.5511 13.1474 51.9746 12.4636 51.25C11.7802 50.5037 11.2532 49.6281 10.9136 48.675C10.5467 47.6612 10.3626 46.5905 10.3698 45.5125C10.3588 44.391 10.5603 43.2777 10.9636 42.2312C11.3253 41.2749 11.8814 40.404 12.5968 39.6736C13.3122 38.9431 14.1713 38.369 15.1198 37.9874C16.127 37.5831 17.2033 37.3793 18.2886 37.3875C19.3045 37.3755 20.3131 37.5624 21.2573 37.9375C22.1394 38.2868 22.9333 38.8267 23.5823 39.5187C24.2551 40.2497 24.7662 41.1144 25.0823 42.0562C25.4481 43.1561 25.6256 44.3098 25.6073 45.4687V46.2937Z" fill="black"/>
<path fill-rule="evenodd" clip-rule="evenodd" d="M33.8135 39.775H45.651V51.25H33.8135C33.6092 51.25 33.4069 51.2095 33.2184 51.1307C33.0299 51.052 32.8588 50.9366 32.7152 50.7913C32.5716 50.6459 32.4583 50.4735 32.3819 50.284C32.3054 50.0946 32.2673 49.8918 32.2698 49.6875V41.3188C32.2714 40.9099 32.4346 40.5182 32.7237 40.229C33.0129 39.9398 33.4046 39.7767 33.8135 39.775ZM35.4827 46.6491C35.7067 46.7976 35.9697 46.8763 36.2385 46.875C36.5966 46.875 36.9399 46.7328 37.1931 46.4796C37.4463 46.2264 37.5885 45.8831 37.5885 45.525C37.5898 45.2563 37.5111 44.9932 37.3626 44.7692C37.214 44.5452 37.0023 44.3704 36.7542 44.267C36.5061 44.1635 36.2329 44.1362 35.9692 44.1883C35.7056 44.2404 35.4633 44.3697 35.2733 44.5598C35.0832 44.7498 34.9539 44.9921 34.9018 45.2557C34.8497 45.5194 34.877 45.7926 34.9805 46.0407C35.0839 46.2888 35.2587 46.5005 35.4827 46.6491Z" fill="black"/>
<path d="M102.931 45.8085C102.126 45.8085 101.533 45.6117 101.152 45.2181C100.781 44.8245 100.596 44.2553 100.596 43.5106V34H102.947V43.9734H103.996V45.8085H102.931Z" fill="black"/>
<path d="M62.5386 34.6702V45.8085H70.0854V43.6543H64.9536V41.2447H69.3546V39.1064H64.9536V36.8245H70.0854V34.6702H62.5386Z" fill="black"/>
<path d="M71.8081 39.7926V42.0904H76.5268V39.7926H71.8081Z" fill="black"/>
<path d="M77.6138 37.4309H79.8858L80.6961 40.8138L81.2681 43.367H81.3316L81.9989 40.8138L82.9522 37.4309H85.0971L86.0663 40.8138L86.7495 43.367H86.813L87.385 40.8138L88.1953 37.4309H90.372L88.0682 45.8085H85.6056L84.5887 42.266L84.0008 40.0957H83.9532L83.3812 42.266L82.3644 45.8085H79.9494L77.6138 37.4309Z" fill="black"/>
<path fill-rule="evenodd" clip-rule="evenodd" d="M96.6502 45.4096C96.9361 45.6755 97.291 45.8085 97.7147 45.8085H99.0175V43.9734H98.239V40.3032C98.239 39.3032 97.9424 38.5426 97.3492 38.0213C96.7561 37.5 95.8663 37.2394 94.68 37.2394C93.8009 37.2394 93.1018 37.383 92.5828 37.6702C92.0744 37.9468 91.6507 38.3351 91.3118 38.8351L92.7099 40.0798C92.89 39.8245 93.1177 39.5957 93.3931 39.3936C93.6685 39.1915 94.0392 39.0904 94.5053 39.0904C95.0031 39.0904 95.3579 39.2128 95.5698 39.4574C95.7816 39.6915 95.8875 40.0106 95.8875 40.4149V40.9415H94.5688C93.4672 40.9415 92.5934 41.1596 91.9473 41.5957C91.3118 42.0213 90.994 42.6755 90.994 43.5585C90.994 44.2926 91.2164 44.883 91.6613 45.3298C92.1062 45.7766 92.747 46 93.5838 46C94.2193 46 94.7542 45.8617 95.1885 45.5851C95.6227 45.2979 95.9034 44.883 96.0305 44.3404H96.1259C96.2 44.7872 96.3748 45.1436 96.6502 45.4096ZM95.4586 44.1011C95.1832 44.2713 94.8495 44.3564 94.4576 44.3564C94.1081 44.3564 93.838 44.2872 93.6473 44.1489C93.4566 44 93.3613 43.7713 93.3613 43.4628V43.2234C93.3613 42.5957 93.8221 42.2819 94.7436 42.2819H95.8875V43.2713C95.8875 43.6543 95.7445 43.9309 95.4586 44.1011Z" fill="black"/>
<path d="M105.838 45.2181C106.219 45.6117 106.812 45.8085 107.617 45.8085H108.682V43.9734H107.633V34H105.282V43.5106C105.282 44.2553 105.467 44.8245 105.838 45.2181Z" fill="black"/>
<path fill-rule="evenodd" clip-rule="evenodd" d="M113.571 46C112.935 46 112.369 45.8989 111.871 45.6968C111.373 45.484 110.949 45.1915 110.6 44.8191C110.261 44.4362 110.001 43.9734 109.821 43.4309C109.652 42.8883 109.567 42.2819 109.567 41.6117C109.567 40.9521 109.652 40.3564 109.821 39.8245C109.991 39.2819 110.24 38.8191 110.568 38.4362C110.907 38.0532 111.32 37.7606 111.807 37.5585C112.295 37.3457 112.851 37.2394 113.476 37.2394C114.164 37.2394 114.752 37.3564 115.239 37.5904C115.737 37.8245 116.139 38.1383 116.447 38.5319C116.764 38.9255 116.992 39.383 117.13 39.9043C117.278 40.4149 117.352 40.9521 117.352 41.516V42.2181H111.998V42.3457C111.998 42.8989 112.146 43.3404 112.443 43.6702C112.739 43.9894 113.205 44.1489 113.841 44.1489C114.328 44.1489 114.725 44.0532 115.033 43.8617C115.34 43.6596 115.626 43.4202 115.891 43.1436L117.066 44.6117C116.696 45.0479 116.208 45.3883 115.605 45.633C115.011 45.8777 114.334 46 113.571 46ZM113.523 38.9787C113.047 38.9787 112.671 39.1383 112.395 39.4574C112.13 39.766 111.998 40.1809 111.998 40.7021V40.8298H114.921V40.6862C114.921 40.1755 114.805 39.766 114.572 39.4574C114.349 39.1383 114 38.9787 113.523 38.9787Z" fill="black"/>
<path d="M120.077 45.1862C120.501 45.6011 121.121 45.8085 121.936 45.8085H123.335V43.9734H121.809V39.266H123.462V37.4309H121.809V35.1649H119.696V36.5372C119.696 36.8245 119.638 37.0479 119.521 37.2074C119.405 37.3564 119.188 37.4309 118.87 37.4309H118.282V39.266H119.458V43.367C119.458 44.1649 119.664 44.7713 120.077 45.1862Z" fill="black"/>
</g>
</g>
</svg>
