<svg width="128" height="80" viewBox="0 0 128 80" fill="none" xmlns="http://www.w3.org/2000/svg">
<g id="logo / payment method / przelewy24 / white">
<g id="logo">
<path d="M99.0223 44.2614H96.3472C96.3472 44.2614 96.6226 41.9994 97.1143 40.9176C97.5471 39.816 98.2158 39.0292 99.396 38.5965C100.557 38.1638 101.717 38.0654 104.018 38.0261C106.34 37.9867 107.126 38.2031 107.893 38.5375C108.641 38.8916 109.27 39.6784 109.447 40.3471C109.605 41.0159 109.388 43.1403 109.388 43.1403C109.388 43.1403 109.074 45.3236 108.248 46.4645C107.421 47.625 105.336 48.1561 105.336 48.1561L101.501 49.1986C101.501 49.1986 99.8484 49.6313 99.3567 49.8084C98.6475 50.0617 98.5036 50.199 98.39 50.3074C98.3713 50.3253 98.3533 50.3424 98.3339 50.3591C97.9011 50.7132 97.7831 51.795 97.7831 51.795L97.6061 52.8375L107.756 52.8179L107.323 55.375H94.4786C94.4786 55.375 95.108 51.6573 95.226 51.1263C95.344 50.5755 95.6587 49.5527 96.4849 48.6478C97.311 47.7627 98.7666 47.33 98.7666 47.33L101.147 46.6415C101.147 46.6415 104.176 45.8744 105.061 45.5793C105.435 45.4613 106.064 45.1859 106.3 44.7729C106.556 44.3205 106.654 43.5927 106.654 43.5927L106.871 41.9601C106.871 41.9601 107.166 40.8782 106.025 40.7405C104.884 40.6225 104.471 40.6028 103.35 40.5635C102.622 40.5438 101.737 40.5635 101.029 40.6815C100.635 40.7602 100.301 40.8585 100.104 40.9766C99.4747 41.3306 99.1797 43.2189 99.1797 43.2189L99.0223 44.2614Z" fill="white"/>
<path fill-rule="evenodd" clip-rule="evenodd" d="M122.331 38.2622L120.522 49.0413H123L122.567 51.6181H120.109L119.479 55.4144H116.804L117.433 51.6181H108.759L109.211 48.9233L119.145 38.2622H122.331ZM112.28 49.0413H117.886L119.105 41.7634L112.28 49.0413Z" fill="white"/>
<path d="M76.4216 26.4603L79.5884 20.1069C79.5884 20.1069 86.5123 19.9692 92.4919 20.8937C98.4716 21.8181 103.94 23.2344 103.822 23.2934L88.6563 31.2204C88.6563 31.2204 85.1157 28.978 80.7096 27.6011C78.2312 26.8733 76.4216 26.4603 76.4216 26.4603Z" fill="white"/>
<path d="M56.3779 23.4705L57.0467 27.1684C57.0467 27.1684 60.0955 26.362 63.7345 25.9292C68.4356 25.2801 73.4317 25.9686 73.4317 25.9686L75.32 20.2446C75.32 20.2446 69.6354 20.6184 65.3474 21.4248C61.0593 22.2313 56.3779 23.4705 56.3779 23.4705Z" fill="white"/>
<path d="M42.2549 33.2464L38.4586 30.6893C38.4586 30.6893 41.8812 28.742 46.4643 26.9127C51.0277 25.1031 53.4668 24.3359 53.4668 24.3359L54.2339 27.9552C54.2339 27.9552 49.8475 29.4304 47.3298 30.6106C44.7333 31.7318 42.2549 33.2464 42.2549 33.2464Z" fill="white"/>
<path d="M24.6897 39.6587H32.8723C32.8723 39.6587 34.7017 38.1834 35.9999 37.2196C37.2981 36.2754 39.6781 34.7609 39.6781 34.7609L35.0557 32.5972C35.0557 32.5972 31.1414 35.0166 29.4891 36.1574C27.8762 37.2196 24.6897 39.6587 24.6897 39.6587Z" fill="white"/>
<path d="M94.7146 35.4888L91.3904 32.9514L110.372 25.6538C112.87 26.775 114.227 27.3848 116.647 28.9584C117.591 29.5681 118.85 30.5516 119.164 30.8663C120.03 31.7318 120.856 32.558 121.308 33.3448C122.036 34.6036 122.095 35.4888 122.095 35.4888H94.7146Z" fill="white"/>
<path fill-rule="evenodd" clip-rule="evenodd" d="M18.2182 38.7147C18.5526 38.8524 18.8477 39.0295 19.064 39.2458C19.1794 39.3612 19.2736 39.4872 19.37 39.6159C19.405 39.6627 19.4404 39.71 19.4771 39.7572C19.7722 40.308 19.8312 40.8784 19.8312 41.2522C19.8312 41.5275 19.7918 41.7046 19.7918 41.7046C19.7918 41.7046 19.7722 41.8619 19.7328 42.098C19.6738 42.6487 19.5164 43.6716 19.3788 44.5174C19.2411 45.3042 19.0837 45.9336 19.0837 45.9336C19.0837 45.9336 18.6903 47.6449 17.2741 48.3923C15.8578 49.1398 13.8515 49.0611 13.8515 49.0611L8.69798 49.0415L7.65547 55.3948H5.00003L7.8325 38.2427H15.2677C15.2677 38.2427 15.4644 38.2427 15.7792 38.2623C16.1135 38.282 16.5856 38.3213 17.0774 38.4C17.4708 38.4787 17.8642 38.5771 18.2182 38.7147ZM16.4676 45.3238C16.7823 43.6912 17.0184 42.3143 17.0184 42.275C17.0184 42.2715 17.0196 42.2612 17.0215 42.2452C17.0305 42.1708 17.0542 41.9738 17.038 41.7636C17.0184 41.5669 16.979 41.3505 16.8413 41.1932C16.743 41.0751 16.4283 40.9965 16.0349 40.9374C15.5628 40.8784 15.012 40.8588 14.599 40.8588H13.9695L10.0749 40.8391L9.13072 46.5434L13.4384 46.563C13.4384 46.563 14.4219 46.6024 15.3267 46.4057C15.8775 46.2877 16.3496 45.9533 16.4676 45.3238Z" fill="white"/>
<path d="M39.4618 43.0226L29.7055 43.0422L29.3121 45.442H35.5474L27.7385 52.9362L27.3254 55.3949H37.3964L37.7898 53.0149H30.9447L39.1077 45.2453L39.4618 43.0226Z" fill="white"/>
<path d="M52.6603 38.2428H55.2174L52.3652 55.395H49.8082L52.6603 38.2428Z" fill="white"/>
<path d="M68.7503 43.0226L66.2916 43.0422L67.5504 55.3949H70.5009L74.3169 46.7402L75.1824 55.3949H78.1919L83.6011 43.0226H81.044L77.2871 51.7757L76.4019 43.0226H73.3727L69.6158 51.7363L68.7503 43.0226Z" fill="white"/>
<path fill-rule="evenodd" clip-rule="evenodd" d="M47.9592 43.1407C47.2511 42.9047 46.0118 42.8653 44.9497 42.8653C43.9268 42.885 43.4744 42.9243 43.081 43.003C43.081 43.003 41.2714 43.2587 40.2486 44.5373C39.2257 45.8158 38.911 48.5893 38.911 48.5893C38.911 48.5893 38.3012 51.6578 38.4783 52.6806C38.6553 53.7035 38.97 54.6476 40.1305 55.1C41.2911 55.5524 42.2746 55.5328 42.2746 55.5328C42.2746 55.5328 44.3399 55.6901 45.8938 55.3361C47.4478 54.982 48.2739 53.8805 48.2739 53.8805C48.2739 53.8805 48.6476 53.4084 48.9033 52.838C49.1171 52.3611 49.2072 52.0217 49.2424 51.8887C49.2494 51.8626 49.2542 51.8445 49.2574 51.8348L49.4147 51.166H46.7593C46.7593 51.166 46.6216 52.9167 45.1857 53.074C43.796 53.2263 43.0512 53.1759 42.7372 53.1547L42.7073 53.1527C42.6832 53.151 42.6495 53.15 42.6082 53.1488C42.1764 53.1364 40.908 53.1 41.0157 51.9332V51.8545C41.0747 50.3989 41.2517 50.0252 41.2517 50.0252L49.5721 50.0055L49.9262 47.9402C50.3786 45.5994 50.0835 43.8292 47.9592 43.1407ZM47.3887 47.6451H41.6845L41.9008 46.7403C41.9008 46.7403 42.0975 46.0322 42.4909 45.7371C42.8843 45.4421 43.3957 45.3831 43.8678 45.3437C44.3399 45.3044 45.5988 45.2061 46.6413 45.4224C46.9757 45.4814 47.3101 45.6781 47.3887 45.9732C47.6051 46.6223 47.3887 47.6451 47.3887 47.6451Z" fill="white"/>
<path fill-rule="evenodd" clip-rule="evenodd" d="M60.6266 42.8653C61.6888 42.8653 62.928 42.9047 63.6361 43.1407C65.7801 43.8292 66.0555 45.6191 65.6031 47.9598L65.249 50.0252L56.9287 50.0449C56.9287 50.0449 56.7516 50.4186 56.6926 51.8742V51.9528C56.5849 53.1196 57.8533 53.1561 58.2851 53.1685C58.3265 53.1697 58.3602 53.1707 58.3842 53.1724C58.4335 53.1724 58.4953 53.174 58.5708 53.176C58.9478 53.186 59.6663 53.2051 60.8626 53.074C62.2985 52.9167 62.4362 51.166 62.4362 51.166H65.0917L64.9343 51.8348C64.9311 51.8444 64.9264 51.8623 64.9196 51.8879C64.8843 52.0209 64.794 52.3611 64.5803 52.838C64.3246 53.4084 63.9508 53.8805 63.9508 53.8805C63.9508 53.8805 63.1247 54.9623 61.5708 55.3361C60.0168 55.6901 57.9515 55.5328 57.9515 55.5328C57.9515 55.5328 56.968 55.5524 55.8075 55.1C54.6469 54.6476 54.3322 53.7035 54.1552 52.6806C53.9782 51.6578 54.5879 48.5893 54.5879 48.5893C54.5879 48.5893 54.9026 45.8158 55.9255 44.5373C56.9483 43.2587 58.758 43.003 58.758 43.003C59.1514 42.9243 59.6038 42.885 60.6266 42.8653ZM57.3614 47.6451H63.0657C63.0657 47.6451 63.282 46.6223 63.0657 45.9732C62.987 45.6781 62.6526 45.4814 62.3182 45.4224C61.2757 45.2061 60.0168 45.3044 59.5448 45.3437C59.0727 45.3831 58.5613 45.4421 58.1679 45.7371C57.7745 46.0322 57.5778 46.7403 57.5778 46.7403L57.3614 47.6451Z" fill="white"/>
<path d="M86.5319 43.0424L88.1645 52.0905L92.787 43.0424L95.3834 43.062L88.7153 55.9852C88.7153 55.9852 87.5154 58.3259 86.768 58.916C86.0205 59.5061 85.5681 59.7815 84.9583 59.8405L84.813 59.8548C84.3038 59.9051 84.0454 59.9307 83.5224 59.8405L82.893 59.7225L83.2864 57.4211C83.2864 57.4211 84.3289 57.6178 84.9387 57.3621C85.5484 57.126 86.0402 56.0639 86.0402 56.0639L86.3549 55.5328L83.9355 43.003L86.5319 43.0424Z" fill="white"/>
<path d="M23.6275 43.888C24.4536 43.4356 25.4371 43.0226 26.4599 43.0226H27.9548L27.5221 45.4223H26.1059C24.0799 45.4223 23.057 47.1336 22.8013 48.5105L21.6015 55.3359H18.8673L21.0507 43.0226H23.7651L23.6275 43.888Z" fill="white"/>
</g>
</g>
</svg>
