<svg width="345" height="72" viewBox="0 0 345 72" fill="none" xmlns="http://www.w3.org/2000/svg">
<g id="logo / partners product / smarttrader / white / logo wordmark">
<g id="logo">
<path d="M13.4998 0C6.04407 0 0 6.04407 0 13.4998V13.892L67.3066 3.26848C64.9425 1.23151 61.8647 0 58.4992 0H13.4998Z" fill="#ECECEE"/>
<path d="M68.6959 4.65238L56.349 71.999H58.4992C65.9549 71.999 71.999 65.9549 71.999 58.4992V13.4998C71.999 10.1153 70.7535 7.02175 68.6959 4.65238Z" fill="#ECECEE"/>
<path fill-rule="evenodd" clip-rule="evenodd" d="M56.349 71.999L13.4998 72C6.04407 72 0 65.9559 0 58.5002V13.892L67.3066 3.26848C67.8024 3.69566 68.2668 4.15827 68.6959 4.65238L56.349 71.999Z" fill="white"/>
<path d="M26.4628 43.1978C27.1558 43.1978 27.7228 43.1453 28.1638 43.0403C28.6258 42.9143 28.9933 42.7568 29.2663 42.5678C29.5393 42.3578 29.7283 42.1163 29.8333 41.8433C29.9383 41.5703 29.9908 41.2658 29.9908 40.9298C29.9908 40.2158 29.6548 39.6278 28.9828 39.1658C28.3108 38.6828 27.1558 38.1683 25.5178 37.6223C24.8038 37.3703 24.0898 37.0868 23.3758 36.7718C22.6618 36.4358 22.0213 36.0263 21.4543 35.5433C20.8873 35.0393 20.4253 34.4408 20.0683 33.7478C19.7113 33.0338 19.5328 32.1728 19.5328 31.1648C19.5328 30.1568 19.7218 29.2538 20.0998 28.4558C20.4778 27.6368 21.0133 26.9438 21.7063 26.3768C22.3993 25.8098 23.2393 25.3793 24.2263 25.0853C25.2133 24.7703 26.3263 24.6128 27.5653 24.6128C29.0353 24.6128 30.3058 24.7703 31.3768 25.0853C32.4478 25.4003 33.3298 25.7468 34.0228 26.1248L32.6053 29.9993C31.9963 29.6843 31.3138 29.4113 30.5578 29.1803C29.8228 28.9283 28.9303 28.8023 27.8803 28.8023C26.7043 28.8023 25.8538 28.9703 25.3288 29.3063C24.8248 29.6213 24.5728 30.1148 24.5728 30.7868C24.5728 31.1858 24.6673 31.5218 24.8563 31.7948C25.0453 32.0678 25.3078 32.3198 25.6438 32.5508C26.0008 32.7608 26.3998 32.9603 26.8408 33.1493C27.3028 33.3173 27.8068 33.4958 28.3528 33.6848C29.4868 34.1048 30.4738 34.5248 31.3138 34.9448C32.1538 35.3438 32.8468 35.8163 33.3928 36.3623C33.9598 36.9083 34.3798 37.5488 34.6528 38.2838C34.9258 39.0188 35.0623 39.9113 35.0623 40.9613C35.0623 42.9983 34.3483 44.5838 32.9203 45.7178C31.4923 46.8308 29.3398 47.3873 26.4628 47.3873C25.4968 47.3873 24.6253 47.3243 23.8483 47.1983C23.0713 47.0933 22.3783 46.9568 21.7693 46.7888C21.1813 46.6208 20.6668 46.4423 20.2258 46.2533C19.8058 46.0643 19.4488 45.8858 19.1548 45.7178L20.5408 41.8118C21.1918 42.1688 21.9898 42.4943 22.9348 42.7883C23.9008 43.0613 25.0768 43.1978 26.4628 43.1978Z" fill="#2A3052"/>
<path d="M52.8441 25.1168V29.3063H46.2606V46.9463H41.3466V29.3063H34.7631V25.1168H52.8441Z" fill="#2A3052"/>
</g>
<g id="wordmark">
<path d="M98.961 48.3795C100.001 48.3795 100.851 48.3007 101.513 48.1432C102.206 47.9542 102.757 47.718 103.166 47.4345C103.576 47.1195 103.859 46.7572 104.017 46.3477C104.174 45.9382 104.253 45.4815 104.253 44.9775C104.253 43.9065 103.749 43.0245 102.741 42.3315C101.733 41.607 100.001 40.8352 97.5435 40.0162C96.4725 39.6382 95.4015 39.213 94.3305 38.7405C93.2595 38.2365 92.2988 37.6222 91.4483 36.8977C90.5978 36.1417 89.9048 35.2439 89.3693 34.2044C88.8338 33.1334 88.566 31.8419 88.566 30.3299C88.566 28.8179 88.8495 27.4634 89.4165 26.2664C89.9835 25.0379 90.7868 23.9984 91.8263 23.1479C92.8658 22.2974 94.1258 21.6517 95.6063 21.2107C97.0868 20.7382 98.7563 20.5019 100.615 20.5019C102.82 20.5019 104.726 20.7382 106.332 21.2107C107.939 21.6832 109.262 22.2029 110.301 22.7699L108.175 28.5817C107.261 28.1092 106.238 27.6997 105.104 27.3532C104.001 26.9752 102.662 26.7862 101.087 26.7862C99.3233 26.7862 98.0475 27.0382 97.26 27.5422C96.504 28.0147 96.126 28.7549 96.126 29.7629C96.126 30.3614 96.2678 30.8654 96.5513 31.2749C96.8348 31.6844 97.2285 32.0624 97.7325 32.4089C98.268 32.7239 98.8665 33.0232 99.528 33.3067C100.221 33.5587 100.977 33.8264 101.796 34.1099C103.497 34.7399 104.978 35.3699 106.238 35.9999C107.498 36.5984 108.537 37.3072 109.356 38.1262C110.207 38.9452 110.837 39.906 111.246 41.0085C111.656 42.111 111.86 43.4497 111.86 45.0247C111.86 48.0802 110.789 50.4585 108.647 52.1595C106.505 53.829 103.277 54.6637 98.961 54.6637C97.512 54.6637 96.2048 54.5692 95.0393 54.3802C93.8738 54.2227 92.8343 54.018 91.9208 53.766C91.0388 53.514 90.267 53.2462 89.6055 52.9627C88.9755 52.6792 88.44 52.4115 87.999 52.1595L90.078 46.3005C91.0545 46.836 92.2515 47.3242 93.669 47.7652C95.118 48.1747 96.882 48.3795 98.961 48.3795Z" fill="white"/>
<path d="M128.352 40.8195C128.352 38.5515 128.053 36.945 127.454 35.9999C126.887 35.0549 125.895 34.5824 124.478 34.5824C124.037 34.5824 123.58 34.6139 123.107 34.6769C122.635 34.7084 122.178 34.7557 121.737 34.8187V54.0022H114.697V29.9992C115.295 29.8417 115.988 29.6842 116.776 29.5267C117.595 29.3377 118.445 29.1802 119.327 29.0542C120.241 28.8967 121.17 28.7864 122.115 28.7234C123.06 28.6289 123.989 28.5817 124.903 28.5817C126.698 28.5817 128.147 28.8179 129.25 29.2904C130.384 29.7314 131.313 30.2669 132.038 30.8969C133.046 30.1724 134.195 29.6054 135.487 29.1959C136.81 28.7864 138.023 28.5817 139.125 28.5817C141.11 28.5817 142.732 28.8652 143.992 29.4322C145.283 29.9677 146.307 30.7394 147.063 31.7474C147.819 32.7554 148.339 33.9524 148.622 35.3384C148.906 36.7244 149.048 38.268 149.048 39.969V54.0022H142.007V40.8195C142.007 38.5515 141.708 36.945 141.11 35.9999C140.543 35.0549 139.55 34.5824 138.133 34.5824C137.755 34.5824 137.219 34.6769 136.526 34.8659C135.865 35.0549 135.314 35.2912 134.873 35.5747C135.093 36.2992 135.235 37.0709 135.298 37.8899C135.361 38.6775 135.392 39.528 135.392 40.4415V54.0022H128.352V40.8195Z" fill="white"/>
<path d="M162.575 49.0882C163.268 49.0882 163.93 49.0725 164.56 49.041C165.19 49.0095 165.694 48.9622 166.072 48.8992V43.56C165.788 43.497 165.363 43.434 164.796 43.371C164.229 43.308 163.709 43.2765 163.237 43.2765C162.575 43.2765 161.945 43.3237 161.347 43.4182C160.78 43.4812 160.276 43.623 159.835 43.8435C159.394 44.064 159.047 44.3632 158.795 44.7412C158.543 45.1192 158.417 45.5917 158.417 46.1587C158.417 47.2612 158.78 48.033 159.504 48.474C160.26 48.8835 161.284 49.0882 162.575 49.0882ZM162.008 28.4872C164.087 28.4872 165.82 28.7234 167.206 29.1959C168.592 29.6684 169.694 30.3457 170.513 31.2277C171.364 32.1097 171.962 33.1807 172.309 34.4407C172.655 35.7007 172.829 37.1024 172.829 38.646V53.2935C171.821 53.514 170.419 53.766 168.623 54.0495C166.828 54.3645 164.654 54.522 162.103 54.522C160.496 54.522 159.032 54.3802 157.709 54.0967C156.417 53.8132 155.299 53.3565 154.354 52.7265C153.409 52.065 152.684 51.2145 152.18 50.175C151.676 49.1355 151.424 47.8597 151.424 46.3477C151.424 44.8987 151.708 43.6702 152.275 42.6622C152.873 41.6542 153.661 40.851 154.637 40.2525C155.614 39.654 156.732 39.2287 157.992 38.9767C159.252 38.6932 160.559 38.5515 161.914 38.5515C162.827 38.5515 163.631 38.5987 164.324 38.6932C165.048 38.7562 165.631 38.8507 166.072 38.9767V38.3152C166.072 37.1182 165.71 36.1574 164.985 35.4329C164.261 34.7084 163.001 34.3462 161.205 34.3462C160.008 34.3462 158.827 34.4407 157.661 34.6297C156.496 34.7872 155.488 35.0234 154.637 35.3384L153.74 29.6684C154.149 29.5424 154.653 29.4164 155.252 29.2904C155.882 29.1329 156.559 29.0069 157.283 28.9124C158.008 28.7864 158.764 28.6919 159.551 28.6289C160.37 28.5344 161.189 28.4872 162.008 28.4872Z" fill="white"/>
<path d="M191.811 35.3857C191.181 35.2282 190.44 35.0707 189.59 34.9132C188.739 34.7242 187.826 34.6297 186.849 34.6297C186.408 34.6297 185.873 34.6769 185.243 34.7714C184.644 34.8344 184.188 34.9132 183.873 35.0077V54.0022H176.832V30.4717C178.092 30.0307 179.573 29.6212 181.274 29.2432C183.006 28.8337 184.928 28.6289 187.038 28.6289C187.416 28.6289 187.873 28.6604 188.409 28.7234C188.944 28.7549 189.48 28.8179 190.015 28.9124C190.551 28.9754 191.086 29.0699 191.622 29.1959C192.157 29.2904 192.614 29.4164 192.992 29.5739L191.811 35.3857Z" fill="white"/>
<path d="M194.167 22.9589L201.208 21.8249V29.1487H209.665V35.0077H201.208V43.749C201.208 45.2295 201.46 46.4107 201.964 47.2927C202.499 48.1747 203.554 48.6157 205.129 48.6157C205.885 48.6157 206.657 48.5527 207.445 48.4267C208.264 48.2692 209.004 48.0645 209.665 47.8125L210.658 53.2935C209.807 53.64 208.862 53.9392 207.823 54.1912C206.783 54.4432 205.507 54.5692 203.995 54.5692C202.074 54.5692 200.483 54.3172 199.223 53.8132C197.963 53.2777 196.955 52.5532 196.199 51.6397C195.443 50.6947 194.908 49.5607 194.593 48.2377C194.309 46.9147 194.167 45.45 194.167 43.8435V22.9589Z" fill="white"/>
<path d="M237.795 21.2579V27.5422H227.92V54.0022H220.549V27.5422H210.673V21.2579H237.795Z" fill="white"/>
<path d="M251.399 35.3857C250.769 35.2282 250.029 35.0707 249.179 34.9132C248.328 34.7242 247.415 34.6297 246.438 34.6297C245.997 34.6297 245.462 34.6769 244.832 34.7714C244.233 34.8344 243.776 34.9132 243.461 35.0077V54.0022H236.421V30.4717C237.681 30.0307 239.162 29.6212 240.863 29.2432C242.595 28.8337 244.517 28.6289 246.627 28.6289C247.005 28.6289 247.462 28.6604 247.997 28.7234C248.533 28.7549 249.068 28.8179 249.604 28.9124C250.139 28.9754 250.675 29.0699 251.21 29.1959C251.746 29.2904 252.203 29.4164 252.581 29.5739L251.399 35.3857Z" fill="white"/>
<path d="M263.028 49.0882C263.721 49.0882 264.382 49.0725 265.012 49.041C265.642 49.0095 266.146 48.9622 266.524 48.8992V43.56C266.241 43.497 265.816 43.434 265.249 43.371C264.682 43.308 264.162 43.2765 263.689 43.2765C263.028 43.2765 262.398 43.3237 261.799 43.4182C261.232 43.4812 260.728 43.623 260.287 43.8435C259.846 44.064 259.5 44.3632 259.248 44.7412C258.996 45.1192 258.87 45.5917 258.87 46.1587C258.87 47.2612 259.232 48.033 259.957 48.474C260.713 48.8835 261.736 49.0882 263.028 49.0882ZM262.461 28.4872C264.54 28.4872 266.272 28.7234 267.658 29.1959C269.044 29.6684 270.147 30.3457 270.966 31.2277C271.816 32.1097 272.415 33.1807 272.761 34.4407C273.108 35.7007 273.281 37.1024 273.281 38.646V53.2935C272.273 53.514 270.871 53.766 269.076 54.0495C267.28 54.3645 265.107 54.522 262.555 54.522C260.949 54.522 259.484 54.3802 258.161 54.0967C256.87 53.8132 255.751 53.3565 254.806 52.7265C253.861 52.065 253.137 51.2145 252.633 50.175C252.129 49.1355 251.877 47.8597 251.877 46.3477C251.877 44.8987 252.16 43.6702 252.727 42.6622C253.326 41.6542 254.113 40.851 255.09 40.2525C256.066 39.654 257.185 39.2287 258.445 38.9767C259.705 38.6932 261.012 38.5515 262.366 38.5515C263.28 38.5515 264.083 38.5987 264.776 38.6932C265.501 38.7562 266.083 38.8507 266.524 38.9767V38.3152C266.524 37.1182 266.162 36.1574 265.438 35.4329C264.713 34.7084 263.453 34.3462 261.658 34.3462C260.461 34.3462 259.279 34.4407 258.114 34.6297C256.948 34.7872 255.94 35.0234 255.09 35.3384L254.192 29.6684C254.602 29.5424 255.106 29.4164 255.704 29.2904C256.334 29.1329 257.011 29.0069 257.736 28.9124C258.46 28.7864 259.216 28.6919 260.004 28.6289C260.823 28.5344 261.642 28.4872 262.461 28.4872Z" fill="white"/>
<path d="M283.286 41.3865C283.286 43.56 283.774 45.3082 284.75 46.6312C285.727 47.9542 287.176 48.6157 289.097 48.6157C289.727 48.6157 290.31 48.6 290.846 48.5685C291.381 48.5055 291.822 48.4425 292.169 48.3795V35.5747C291.728 35.2912 291.145 35.0549 290.42 34.8659C289.727 34.6769 289.019 34.5824 288.294 34.5824C284.955 34.5824 283.286 36.8504 283.286 41.3865ZM299.209 53.199C298.579 53.388 297.854 53.577 297.035 53.766C296.216 53.9235 295.35 54.0652 294.437 54.1912C293.555 54.3172 292.641 54.4117 291.696 54.4747C290.783 54.5692 289.901 54.6165 289.05 54.6165C287.003 54.6165 285.176 54.3172 283.569 53.7187C281.963 53.1202 280.608 52.2697 279.506 51.1672C278.403 50.0332 277.553 48.6787 276.954 47.1037C276.387 45.4972 276.104 43.7017 276.104 41.7172C276.104 39.7012 276.356 37.8899 276.86 36.2834C277.364 34.6454 278.088 33.2594 279.033 32.1254C279.978 30.9914 281.128 30.1252 282.482 29.5267C283.868 28.9282 285.443 28.6289 287.207 28.6289C288.184 28.6289 289.05 28.7234 289.806 28.9124C290.594 29.1014 291.381 29.3692 292.169 29.7157V18.4702L299.209 17.3362V53.199Z" fill="white"/>
<path d="M302.257 41.7645C302.257 39.5595 302.588 37.6379 303.25 35.9999C303.943 34.3304 304.84 32.9444 305.943 31.8419C307.045 30.7394 308.305 29.9047 309.723 29.3377C311.172 28.7707 312.652 28.4872 314.164 28.4872C317.692 28.4872 320.48 29.5739 322.528 31.7474C324.575 33.8894 325.599 37.0552 325.599 41.2447C325.599 41.6542 325.583 42.111 325.552 42.615C325.52 43.0875 325.489 43.5127 325.457 43.8907H309.487C309.644 45.3397 310.321 46.4895 311.518 47.34C312.715 48.1905 314.322 48.6157 316.338 48.6157C317.629 48.6157 318.889 48.5055 320.118 48.285C321.378 48.033 322.402 47.7337 323.189 47.3872L324.134 53.1045C323.756 53.2935 323.252 53.4825 322.622 53.6715C321.992 53.8605 321.283 54.018 320.496 54.144C319.74 54.3015 318.921 54.4275 318.039 54.522C317.157 54.6165 316.275 54.6637 315.393 54.6637C313.156 54.6637 311.203 54.333 309.534 53.6715C307.896 53.01 306.526 52.1122 305.423 50.9782C304.352 49.8127 303.549 48.4425 303.013 46.8675C302.509 45.2925 302.257 43.5915 302.257 41.7645ZM318.795 39.0712C318.763 38.4727 318.653 37.89 318.464 37.323C318.307 36.7559 318.039 36.2519 317.661 35.8109C317.314 35.3699 316.858 35.0077 316.291 34.7242C315.755 34.4407 315.078 34.2989 314.259 34.2989C313.471 34.2989 312.794 34.4407 312.227 34.7242C311.66 34.9762 311.188 35.3227 310.81 35.7637C310.432 36.2047 310.132 36.7244 309.912 37.323C309.723 37.89 309.581 38.4727 309.487 39.0712H318.795Z" fill="white"/>
<path d="M343.648 35.3857C343.018 35.2282 342.277 35.0707 341.427 34.9132C340.576 34.7242 339.663 34.6297 338.686 34.6297C338.245 34.6297 337.71 34.6769 337.08 34.7714C336.481 34.8344 336.025 34.9132 335.71 35.0077V54.0022H328.669V30.4717C329.929 30.0307 331.41 29.6212 333.111 29.2432C334.843 28.8337 336.765 28.6289 338.875 28.6289C339.253 28.6289 339.71 28.6604 340.246 28.7234C340.781 28.7549 341.317 28.8179 341.852 28.9124C342.388 28.9754 342.923 29.0699 343.459 29.1959C343.994 29.2904 344.451 29.4164 344.829 29.5739L343.648 35.3857Z" fill="white"/>
</g>
</g>
</svg>
