<svg width="128" height="80" viewBox="0 0 128 80" fill="none" xmlns="http://www.w3.org/2000/svg">
<g id="logo / payment method / bitcoin / black">
<g id="logo">
<path d="M88.6214 36.5845C88.0953 36.4538 87.4954 36.3898 86.8254 36.3898H86.8242C85.7517 36.3898 84.7799 36.5884 83.9099 36.9831C83.0375 37.3791 82.2962 37.9199 81.6873 38.6004C81.076 39.286 80.6047 40.0844 80.2786 40.9969C79.9513 41.9094 79.7882 42.8833 79.7882 43.9163C79.7882 44.5993 79.8825 45.2542 80.0685 45.877C80.2544 46.5011 80.555 47.0432 80.9728 47.5084C81.3893 47.9724 81.9179 48.3389 82.5585 48.6157C83.1979 48.8874 83.98 49.0258 84.9034 49.0258C85.604 49.0258 86.2077 48.9591 86.7146 48.8336C87.2203 48.7016 87.6814 48.5529 88.0991 48.3863L87.8521 45.6733C87.5387 45.8104 87.1821 45.9244 86.7796 46.0154C86.3796 46.1051 85.9606 46.1513 85.5275 46.1513C84.6512 46.1513 84.0462 45.9129 83.7189 45.4336C83.3903 44.9543 83.2272 44.3276 83.2272 43.5523C83.2272 42.2439 83.552 41.202 84.1991 40.4266C84.8487 39.6526 85.7211 39.2643 86.8254 39.2643C87.2865 39.2643 87.6776 39.313 87.9972 39.4129C88.3169 39.5129 88.6265 39.6205 88.9245 39.7436L90.0645 37.0972C89.6314 36.8844 89.1512 36.7153 88.6214 36.5845Z" fill="black"/>
<path fill-rule="evenodd" clip-rule="evenodd" d="M58.2996 36.8908L59.6829 31.0085L56.2222 31.5558L52.3565 48.1351C52.7883 48.3479 53.2468 48.517 53.7308 48.6362C54.2136 48.7592 54.6721 48.8502 55.1052 48.9104C55.5357 48.9707 55.9203 49.0066 56.2541 49.013C56.589 49.0207 56.8259 49.0245 56.9597 49.0245C58.0016 49.0245 58.9709 48.822 59.8624 48.4196C60.7553 48.0159 61.5297 47.4713 62.1857 46.7792C62.8429 46.0859 63.3588 45.2734 63.7383 44.3379C64.1192 43.4036 64.3077 42.4117 64.3077 41.3621C64.3077 40.6778 64.2262 40.0396 64.0631 39.4462C63.8988 38.8542 63.6453 38.3377 63.3053 37.8956C62.9588 37.4547 62.5283 37.1049 62.0061 36.846C61.4864 36.5884 60.8674 36.4577 60.1516 36.4577C59.8102 36.4577 59.4905 36.4961 59.1912 36.573C58.8944 36.6499 58.5951 36.755 58.2996 36.8908ZM58.5123 39.4001C58.8473 39.3271 59.1173 39.286 59.3262 39.286H59.3275C59.9669 39.286 60.4076 39.4911 60.6458 39.9012C60.8827 40.3126 61.0024 40.8816 61.0024 41.612C61.0024 42.2054 60.9043 42.7757 60.712 43.3229C60.5184 43.8714 60.2535 44.3597 59.9198 44.7941C59.5848 45.2273 59.1848 45.5759 58.7225 45.8322C58.2614 46.0898 57.771 46.2205 57.2488 46.2205H56.8476C56.7419 46.2205 56.654 46.2154 56.5776 46.2077C56.505 46.1987 56.4324 46.1884 56.3674 46.1731L56.133 46.1269L57.6067 39.8794C57.8755 39.6372 58.1761 39.477 58.5123 39.4001Z" fill="black"/>
<path fill-rule="evenodd" clip-rule="evenodd" d="M98.4836 36.755C97.8939 36.5128 97.2125 36.3898 96.4381 36.3898C95.3822 36.3898 94.4422 36.623 93.6245 37.0843C92.8067 37.5496 92.1113 38.1468 91.5483 38.8772C90.9803 39.6064 90.5523 40.4266 90.2619 41.3391C89.9728 42.2503 89.8288 43.164 89.8288 44.0777C89.8288 44.8057 89.9218 45.4708 90.118 46.0705C90.3128 46.6716 90.5969 47.1932 90.9777 47.6327C91.3573 48.0749 91.8375 48.4158 92.417 48.6593C92.9991 48.9015 93.6831 49.0245 94.4727 49.0245C95.5605 49.0245 96.5183 48.7913 97.3437 48.3286C98.1716 47.8647 98.8594 47.2688 99.4096 46.5396C99.9611 45.8078 100.38 44.9864 100.662 44.0765C100.943 43.1627 101.085 42.249 101.085 41.3391C101.085 40.6099 100.989 39.9435 100.794 39.345C100.601 38.7427 100.314 38.2236 99.9357 37.7815C99.5536 37.3419 99.0695 36.9985 98.4836 36.755ZM94.8319 39.6961C95.2026 39.4091 95.6356 39.2643 96.126 39.2643C96.7514 39.2643 97.1832 39.477 97.4214 39.9025C97.6608 40.3279 97.7805 40.9226 97.7805 41.6813C97.7805 42.1516 97.7169 42.6514 97.592 43.1742C97.4634 43.6997 97.2736 44.1828 97.0202 44.6224C96.7654 45.0632 96.4521 45.4298 96.0827 45.7168C95.7095 46.0077 95.279 46.1513 94.7861 46.1513C94.1607 46.1513 93.7302 45.9373 93.4907 45.5144C93.2538 45.0876 93.1341 44.4942 93.1341 43.733C93.1341 43.2614 93.1965 42.7654 93.3213 42.24C93.45 41.7159 93.6397 41.234 93.8945 40.7919C94.1467 40.351 94.4587 39.9871 94.8319 39.6961Z" fill="black"/>
<path d="M76.2232 36.7101L77.0727 33.1756L73.6108 33.7229L71.42 43.164C71.2417 43.9393 71.1385 44.6749 71.108 45.3759C71.0774 46.0744 71.1831 46.6947 71.42 47.2329C71.6595 47.7737 72.0607 48.2005 72.6262 48.5119C73.1943 48.822 73.9904 48.9784 75.017 48.9784C75.7315 48.9784 76.3505 48.9194 76.8727 48.7964C77.3937 48.6746 77.8777 48.5311 78.3248 48.3645L78.0777 45.763C77.735 45.886 77.3962 45.9808 77.0625 46.0488C76.7263 46.1167 76.3785 46.1513 76.0219 46.1513C75.5888 46.1513 75.259 46.0898 75.0284 45.968C74.7966 45.8463 74.6374 45.6758 74.5482 45.4554C74.4591 45.235 74.4209 44.9723 74.4374 44.6673C74.4514 44.3648 74.5037 44.038 74.5941 43.6882L75.5761 39.4911H79.2622L79.9322 36.7101H76.2232Z" fill="black"/>
<path d="M67.8982 48.7054L70.7131 36.7101H67.3837L64.5917 48.7054H67.8982Z" fill="black"/>
<path d="M104.688 48.7054L107.503 36.7101H104.172L101.379 48.7054H104.688Z" fill="black"/>
<path d="M118.227 37.9866C117.564 36.9536 116.361 36.4359 114.618 36.4359C114.024 36.4359 113.49 36.4615 113.022 36.5166C112.552 36.5692 112.126 36.6384 111.749 36.723C111.367 36.805 111.026 36.896 110.72 36.9946L110.644 37.0189C110.368 37.1069 110.113 37.1881 109.883 37.2574L107.179 48.7054H110.509L112.676 39.4244C113.124 39.3335 113.562 39.286 113.993 39.286C114.441 39.286 114.77 39.3732 114.988 39.5475C115.204 39.7243 115.341 39.9537 115.4 40.2331C115.462 40.515 115.465 40.8418 115.412 41.2122C115.36 41.5864 115.289 41.9683 115.2 42.3656L113.726 48.7054H117.054L118.575 42.2285C119.004 40.4356 118.89 39.0208 118.227 37.9866Z" fill="black"/>
<path d="M71.2493 31.657C70.8774 31.3763 70.4609 31.2354 69.9998 31.2354C69.6865 31.2354 69.3923 31.2956 69.1172 31.4174C68.8408 31.5404 68.6 31.7031 68.3912 31.9069C68.181 32.1145 68.0154 32.3554 67.888 32.6374C67.7607 32.9206 67.697 33.2179 67.697 33.5383C67.697 34.1176 67.8829 34.5469 68.2574 34.8263C68.6293 35.1069 69.0471 35.2479 69.5082 35.2479C69.8203 35.2479 70.1132 35.1902 70.3896 35.0672C70.6647 34.9442 70.9093 34.7827 71.1156 34.5776C71.3245 34.3713 71.4913 34.1291 71.6174 33.8472C71.7448 33.5652 71.8085 33.2653 71.8085 32.945C71.8085 32.3695 71.6213 31.9389 71.2493 31.657Z" fill="black"/>
<path d="M108.039 31.657C107.667 31.3763 107.249 31.2354 106.787 31.2354C106.475 31.2354 106.181 31.2956 105.905 31.4174C105.632 31.5404 105.388 31.7031 105.179 31.9069C104.971 32.1145 104.802 32.3554 104.678 32.6374C104.55 32.9206 104.487 33.2179 104.487 33.5383C104.487 34.1176 104.674 34.5469 105.046 34.8263C105.418 35.1069 105.835 35.2479 106.297 35.2479C106.61 35.2479 106.904 35.1902 107.18 35.0672C107.456 34.9442 107.696 34.7827 107.906 34.5776C108.114 34.3713 108.282 34.1291 108.407 33.8472C108.532 33.5652 108.599 33.2653 108.599 32.945C108.599 32.3695 108.411 31.9389 108.039 31.657Z" fill="black"/>
<path d="M26.3827 40.2263C26.5126 40.2593 26.6708 40.2955 26.8498 40.3364C28.4814 40.7097 31.8423 41.4785 31.28 43.7829C30.7307 46.0361 27.2743 45.103 25.6959 44.6769C25.5547 44.6387 25.4284 44.6047 25.3207 44.5773L26.3827 40.2263Z" fill="black"/>
<path d="M27.8343 34.2892C27.9442 34.3171 28.0785 34.3473 28.2308 34.3816C29.5932 34.6884 32.3893 35.318 31.8785 37.4154C31.3772 39.4589 28.5101 38.6797 27.1912 38.3212C27.0699 38.2882 26.9612 38.2587 26.8691 38.2353L27.8343 34.2892Z" fill="black"/>
<path fill-rule="evenodd" clip-rule="evenodd" d="M28 58C37.9411 58 46 49.9411 46 40C46 30.0589 37.9411 22 28 22C18.0589 22 10 30.0589 10 40C10 49.9411 18.0589 58 28 58ZM27.1976 28.2778L26.4031 31.5244C25.4926 31.3134 24.587 31.0782 23.6818 30.843C23.2876 30.7406 22.8934 30.6382 22.4989 30.5379L21.9845 32.6493C21.9845 32.6493 23.4208 32.9824 23.3903 33.0055C24.1747 33.2053 24.3173 33.7358 24.2918 34.156C23.5689 37.121 22.8451 40.0858 22.1195 43.0501C22.0227 43.2935 21.7807 43.66 21.2332 43.5216C21.251 43.5472 19.8249 43.1628 19.8249 43.1628L18.8647 45.4255C20.1656 45.7563 21.4648 46.0921 22.7638 46.4299L21.9616 49.7149L23.8971 50.2069L24.6891 46.9578C25.2188 47.1038 25.7333 47.2396 26.2324 47.3678L25.4429 50.6015L27.3784 51.0935L28.1807 47.8136C31.4812 48.4542 33.9643 48.1954 35.011 45.1487C35.8514 42.6914 34.9677 41.2769 33.2308 40.3519C34.4965 40.0546 35.449 39.2039 35.7011 37.4512C36.0551 35.0528 34.2673 33.7639 31.8225 32.9055L32.6145 29.6564L30.679 29.1644L29.9073 32.3264C29.399 32.1986 28.8771 32.0756 28.356 31.9528L28.3538 31.9523L29.1331 28.7698L27.1976 28.2778Z" fill="black"/>
</g>
</g>
</svg>
