<svg width="128" height="80" viewBox="0 0 128 80" fill="none" xmlns="http://www.w3.org/2000/svg">
<g id="logo / payment method / fasapay / brand">
<path id="pay" d="M111.65 32.9998L114.65 41.5598L117.54 32.9998H123L119.97 40.3898C119.739 40.9556 119.448 41.6737 119.146 42.4249L118.963 42.8786C118.17 44.8534 117.36 46.8898 117.36 46.8898C117.36 46.8898 116.25 50.5498 114.77 51.6998C113.711 52.3924 112.465 52.7416 111.2 52.6998C110.4 52.7341 107.768 52.7488 104.355 52.7523L103.486 52.7529C103.338 52.753 103.19 52.7531 103.04 52.7531H102.129C101.975 52.7531 101.82 52.753 101.664 52.7529L100.719 52.7524C99.9238 52.7517 99.1096 52.7507 98.2862 52.7495L97.2942 52.7478L94.7994 52.7426C88.9843 52.729 83.3675 52.7064 81.2056 52.701L80.8695 52.7003C80.8193 52.7002 80.7721 52.7001 80.7279 52.7L80.5001 52.6998L81.2601 49.1698H110.04C110.637 49.1751 111.215 48.9576 111.66 48.5598C112.038 48.2275 112.225 47.7288 112.16 47.2298C112.153 46.7232 112.034 46.2244 111.81 45.7698C111.2 44.4098 106.36 32.9998 106.36 32.9998H111.65ZM85.3201 32.4398C87.0555 32.3926 88.7036 33.1998 89.7301 34.5998C90.875 36.1619 91.4599 38.0643 91.3901 39.9998C91.4586 41.9431 90.8468 43.8494 89.6601 45.3898C88.6361 46.7527 87.0248 47.5472 85.3201 47.5298C83.6521 47.5879 82.098 46.6865 81.3201 45.2098L79.8101 52.6398H73.6101L77.6101 32.6898H81.3001V34.7898C82.0727 33.2948 83.6384 32.3796 85.3201 32.4398ZM99.7701 32.6298C104.463 32.6298 106.843 34.0698 106.91 36.9498V44.7398C106.922 45.5238 107.29 46.2597 107.91 46.7398V47.1798H103C102.637 46.7011 102.453 46.1102 102.48 45.5098C101.019 46.7751 99.1528 47.4742 97.2201 47.4798C95.8449 47.5451 94.4891 47.1356 93.3801 46.3198C92.4471 45.6074 91.9087 44.4935 91.9301 43.3198C91.9301 40.1398 94.9301 39.2098 97.5801 38.8298C98.3901 38.7198 99.2001 38.6198 100.02 38.5298C100.782 38.5117 101.521 38.2643 102.14 37.8198C102.385 37.6122 102.515 37.2997 102.49 36.9798C102.4 35.0998 99.2601 35.3398 98.1501 35.9798C97.6731 36.3452 97.369 36.8919 97.3101 37.4898H92.3101C92.5901 34.2498 95.0768 32.6298 99.7701 32.6298ZM102.49 40.4698C101.93 40.6531 101.354 40.7869 100.77 40.8698L99.3601 41.0798C98.3601 41.2398 97.0301 41.5598 97.0301 42.8098C97.0301 44.0598 98.1301 44.3498 99.1001 44.3598C101 44.3598 102.49 43.3398 102.49 41.3598V40.4698ZM84.4651 36.6353C83.7694 36.6353 83.1238 36.9968 82.7601 37.5898C81.8925 39.0758 81.8925 40.9138 82.7601 42.3998C83.1335 42.9743 83.775 43.3177 84.4601 43.3098C85.1472 43.3155 85.7891 42.9681 86.1601 42.3898C86.6322 41.6852 86.8638 40.8468 86.8201 39.9998C86.8579 39.1486 86.6308 38.3066 86.1701 37.5898C85.8065 36.9968 85.1608 36.6353 84.4651 36.6353Z" fill="#4873AC"/>
<path id="fasa" d="M41.8601 31.8902C43.6744 31.7575 45.4585 32.4092 46.7601 33.6802C48.1801 35.2202 47.3801 37.1102 46.7101 38.6302L46.4301 39.3002L44.1401 45.1502C44.0713 45.2924 44.0241 45.4441 44.0001 45.6002C43.9943 45.9281 44.1378 46.2408 44.3901 46.4502C44.5074 46.5809 44.5421 46.766 44.4801 46.9302L44.2901 47.3702C44.1987 47.5687 43.9985 47.6943 43.7801 47.6902H39.0401C38.8237 47.6957 38.6258 47.569 38.5401 47.3702C38.4648 47.1947 38.4143 47.0096 38.3901 46.8202C36.9153 47.6498 35.2614 48.1096 33.5701 48.1602C32.3085 48.2037 31.0733 47.792 30.0901 47.0002C28.9613 46.1754 28.5164 44.702 29.0001 43.3902C29.6087 42.0531 30.6329 40.9483 31.9201 40.2402C33.2011 39.444 34.6182 38.8914 36.1001 38.6102C36.816 38.4701 37.5413 38.3832 38.2701 38.3502H38.8501C40.5501 38.2402 41.5701 37.8502 42.0001 37.2402C42.1029 37.0858 42.1029 36.8847 42.0001 36.7302C41.8286 36.445 41.5391 36.2507 41.2101 36.2002C40.3044 36.0225 39.3656 36.1381 38.5301 36.5302C38.1232 36.7459 37.7788 37.0628 37.5301 37.4502C37.3921 37.6371 37.1561 37.7236 36.9301 37.6702L33.2201 36.8802C33.0689 36.848 32.9382 36.7536 32.8601 36.6202C32.7793 36.4847 32.7793 36.3158 32.8601 36.1802C33.5115 35.0449 34.4629 34.1107 35.6101 33.4802C37.4644 32.5041 39.5157 31.9605 41.6101 31.8902H41.8601ZM53.1701 32.5802C56.0701 31.6102 60.0701 31.4702 62.0701 33.4702C62.7118 34.116 63.0714 34.9898 63.0701 35.9002V36.0002L57.9201 37.2402V37.0502C57.9526 36.7183 57.8176 36.3921 57.5601 36.1802C56.8444 35.7502 55.982 35.6379 55.1801 35.8702C54.6301 36.0002 53.7201 36.2002 53.7901 36.7502C53.8001 37.0302 54.2601 37.2102 54.5301 37.3202C55.2355 37.5658 55.9618 37.7466 56.7001 37.8602C58.6301 38.2202 60.8101 38.6202 61.3501 40.7402C61.9801 43.2102 59.7301 45.5802 57.1801 46.6402C55.5725 47.3044 53.8494 47.6442 52.1101 47.6403C51.1428 47.6403 50.1779 47.5432 49.2301 47.3502C47.6357 47.143 46.2623 46.1252 45.6001 44.6602C45.423 44.2092 45.3678 43.7194 45.4401 43.2402C45.4901 42.8402 45.5101 42.7102 50.1401 42.0602C50.2904 42.0429 50.4416 42.0861 50.5601 42.1802C50.6806 42.2682 50.7484 42.4112 50.7401 42.5602C50.7017 42.8356 50.7942 43.113 50.9901 43.3102C51.6158 43.7028 52.3559 43.872 53.0901 43.7902C53.7899 43.8117 54.487 43.6927 55.1401 43.4402C55.5201 43.2802 55.7301 43.0602 55.7401 42.8202C55.7501 42.5802 55.5201 42.3302 55.1301 42.1602C54.6581 41.9677 54.1645 41.8334 53.6601 41.7602L53.0501 41.6302C52.6501 41.5402 52.2301 41.4502 51.9101 41.3502C51.331 41.179 50.7739 40.9407 50.2501 40.6402C49.2489 40.1183 48.5073 39.2067 48.2001 38.1202C48.0045 37.2583 48.1825 36.3538 48.6901 35.6302C49.8268 34.1691 51.3939 33.1021 53.1701 32.5802ZM73.5828 32.3172L74.0101 32.3302C75.0852 32.309 76.159 32.413 77.2101 32.6402C77.8903 32.7488 78.531 33.0313 79.0701 33.4602C79.3901 33.7324 79.6433 34.0746 79.8101 34.4602C79.9247 34.7875 79.9523 35.139 79.8901 35.4802C79.8108 35.8905 79.6832 36.2899 79.5101 36.6702L76.1801 44.6702C76.1801 44.6702 76.0001 45.1102 76.0001 45.2302C76.0001 45.4444 75.8157 46.1782 75.6605 46.7581L75.58 47.0551C75.5049 47.3288 75.4501 47.5202 75.4501 47.5202H65.4501C64.2207 47.5816 63.0061 47.2296 62.0001 46.5202C61.2048 45.9464 60.8146 44.9633 61.0001 44.0002C61.0592 43.6926 61.1566 43.3936 61.2901 43.1102C61.4938 42.6694 61.7525 42.2561 62.0601 41.8802C62.4513 41.3809 62.905 40.934 63.4101 40.5502C64.0701 40.0751 64.7896 39.6885 65.5501 39.4002C66.5154 39.0256 67.5228 38.7704 68.5501 38.6402L70.5501 38.4102L71.1201 38.3402L71.7601 38.2702L72.4001 38.1802C72.6128 38.1512 72.8232 38.1077 73.0301 38.0502C73.1701 38.0002 73.3601 37.9502 73.5901 37.8902C73.7844 37.843 73.97 37.7654 74.1401 37.6602C74.2877 37.564 74.4281 37.457 74.5601 37.3402C74.6947 37.2253 74.8066 37.0863 74.8901 36.9302C74.9656 36.775 75.0195 36.6101 75.0501 36.4402C75.1601 35.6802 74.4101 35.3002 72.7901 35.3002C71.927 35.2607 71.0661 35.4144 70.2701 35.7502C69.6171 36.095 69.0863 36.6328 68.7501 37.2902H64.3901C65.0346 35.664 66.241 34.3228 67.7901 33.5102C69.7425 32.6356 71.873 32.2314 74.0101 32.3302L73.5828 32.3172ZM38.4701 27.2402L35.9201 30.8902H35.8301C35.4046 30.8514 34.9773 30.8347 34.5501 30.8402H34.2901C33.8001 30.8002 33.2001 31.1702 32.6301 31.9102L32.3501 32.4802H34.3501L31.9601 36.6602H30.1201L25.1201 46.7302H25.0101L10.3301 46.0002V45.7202C10.3753 45.7138 13.0858 45.528 15.8943 45.3972L16.7102 45.3609L17.2502 45.3391C18.3238 45.2977 19.3501 45.2702 20.1801 45.2702L22.9801 40.0302L5.07007 38.0302V37.7102L5.11369 37.7094C5.65068 37.6975 10.9363 37.5609 16.1324 37.4597L16.8564 37.4458C19.746 37.3914 22.5377 37.3502 24.3901 37.3502L24.6001 36.9502C23.3095 36.7208 21.5139 36.4181 19.7375 36.1242L19.1777 36.0317C16.2025 35.5413 13.4384 35.1002 13.3901 35.1002V34.7802C13.4315 34.7802 15.9493 34.6366 18.6197 34.5194L19.4508 34.484C21.0201 34.4196 22.5593 34.3702 23.6001 34.3702C23.9377 34.1799 24.2043 33.8851 24.3601 33.5302C24.4712 33.2841 24.6311 33.0629 24.8301 32.8802C25.2436 32.707 25.6952 32.6449 26.1401 32.7002H27.0001L8.98007 30.5002V30.1802L9.02297 30.1794C9.84939 30.162 22.1295 29.8602 27.4701 29.8602C27.5732 29.8501 27.677 29.8501 27.7801 29.8602H28.4901C26.9158 29.6467 24.9879 29.3773 23.0658 29.106L22.4258 29.0155C22.3193 29.0005 22.213 28.9854 22.1069 28.9704L21.4731 28.8806C17.6907 28.3442 14.3311 27.8602 14.2701 27.8602V27.5402L14.3139 27.5397C14.8245 27.533 19.5983 27.4591 24.665 27.3934L25.7804 27.3792C29.6277 27.3308 33.4763 27.2902 35.6101 27.2902H38.1801L38.4701 27.2402ZM71.0001 39.5202C69.9505 39.6435 69.0682 40.3657 68.7401 41.3702C68.5192 41.8805 68.6212 42.4732 69.0001 42.8802L66.7101 46.2302H70.8401V42.8802C71.4242 42.5403 71.8703 42.0058 72.1001 41.3702C72.4401 40.3502 72.0001 39.5202 71.0001 39.5202ZM40.3201 41.2102L39.7801 41.3102L38.8801 41.4402L38.7901 41.5002C37.9603 41.5943 37.1404 41.7616 36.3401 42.0002C35.614 42.1619 35 42.6435 34.6701 43.3102C34.5401 43.7202 34.6901 43.8902 34.8301 44.0002C35.6077 44.3753 36.5008 44.4327 37.3201 44.1602C38.6931 43.6906 39.7901 42.6411 40.3201 41.2902V41.2102Z" fill="#F6931C"/>
</g>
</svg>
