<svg width="128" height="80" viewBox="0 0 128 80" fill="none" xmlns="http://www.w3.org/2000/svg">
<g id="logo / payment method / pay livre / black">
<g id="logo">
<path d="M19.6827 28.0823C18.154 26.5537 16.2857 25.8177 14.0777 25.8177H7.90655V29.6676H13.7946C15.0402 29.6676 15.946 30.1205 16.682 30.7999C17.418 31.4793 17.7577 32.3851 17.7577 33.4608C17.7577 34.5365 17.418 35.499 16.682 36.235C15.946 36.971 14.9835 37.3673 13.7946 37.3673L8.98226 37.4239H4.05667V48.7471H8.52933V41.387L14.1343 41.3304C16.3989 41.3304 18.2673 40.5378 19.7959 39.0658C21.3245 37.5938 22.0605 35.7821 22.0605 33.6307C21.9473 31.4227 21.2113 29.6109 19.6827 28.0823Z" fill="black"/>
<path d="M7.84988 29.6111H4V33.4609H7.84988V29.6111Z" fill="black"/>
<path d="M29.7036 48.5206C29.0242 48.5206 28.3448 48.464 27.6654 48.2942C26.986 48.1243 26.3066 47.8979 25.6838 47.5015C25.0044 47.1619 24.4949 46.5957 24.0986 45.8597C23.7023 45.1237 23.4758 44.2744 23.4758 43.312C23.4758 41.5569 24.042 40.2547 25.2309 39.4055C26.4198 38.5562 28.0617 38.1033 30.2131 38.1033L35.1387 38.0467V37.1409C35.1387 36.2916 34.799 35.6688 34.1196 35.2725C33.4402 34.8762 32.591 34.6498 31.4587 34.6498C29.4205 34.6498 28.1749 35.3291 27.7786 36.6879L23.8721 36.7445C23.8721 35.1027 24.6081 33.7439 26.0801 32.7248C27.5522 31.7057 29.3072 31.1962 31.402 31.1962C33.4968 31.1962 35.3085 31.7057 36.7805 32.7248C38.2526 33.7439 39.0452 35.0461 39.0452 36.6879V48.2376H35.1953V46.1428C34.7424 46.7089 34.0064 47.2751 33.1005 47.728C32.0814 48.2376 30.9491 48.5206 29.7036 48.5206ZM30.0433 45.1237C31.2888 45.1237 32.4777 44.7274 33.4968 43.9347C34.5725 43.1421 35.0821 42.1797 35.0821 40.9907H30.9491C29.7602 40.9907 28.9109 41.2172 28.2882 41.6701C27.722 42.123 27.4389 42.6892 27.5522 43.3686C27.6654 44.5575 28.5146 45.1237 30.0433 45.1237Z" fill="black"/>
<path d="M44.7068 54.8617L47.3677 48.1244L40.4606 31.5359H44.7634L49.4625 43.4253L53.8785 31.5359H58.1814L48.8963 54.8617H44.7068Z" fill="black"/>
<path d="M64.579 26.1574H60.5027V48.2376H64.579V26.1574Z" fill="black"/>
<path d="M72.9582 31.5359H68.8819V48.2376H72.9582V31.5359Z" fill="black"/>
<path d="M81.0543 48.2376L75.789 31.5359H80.0918L84.3946 45.6333L88.5842 31.5359H93.0002L87.6783 48.2376H81.0543Z" fill="black"/>
<path d="M95.6045 48.2376V31.536H99.6809V34.0271C100.247 33.0646 101.04 32.3852 102.059 31.8757C103.134 31.3661 104.38 31.2529 105.909 31.4794V35.8388C104.323 35.3292 102.908 35.4425 101.606 36.1785C100.304 36.9145 99.6809 38.1034 99.6809 39.6887V48.181H95.6045V48.2376Z" fill="black"/>
<path d="M115.363 48.5207C112.986 48.5207 110.947 47.6715 109.249 45.973C107.55 44.2746 106.758 42.2364 106.758 39.9151C106.758 37.4807 107.607 35.4425 109.306 33.8006C111.004 32.1022 113.042 31.3095 115.363 31.3095C117.402 31.3095 119.27 31.9889 120.855 33.2911C122.44 34.6499 123.403 36.2917 123.799 38.2733C124.026 39.4056 124.082 40.4247 123.856 41.4438H110.891C111.117 42.5195 111.627 43.3687 112.476 43.9915C113.269 44.6143 114.288 44.8973 115.42 44.8973C117.175 44.8973 118.591 44.3312 119.723 43.1422L123.29 44.1047C122.61 45.4069 121.535 46.4826 120.063 47.2752C118.534 48.1244 117.005 48.5207 115.363 48.5207ZM110.834 38.2733H119.836C119.61 37.3108 119.1 36.5182 118.307 35.8388C117.515 35.1594 116.552 34.8763 115.363 34.8763C114.231 34.8763 113.212 35.216 112.419 35.8388C111.57 36.5182 111.061 37.3108 110.834 38.2733Z" fill="black"/>
<path d="M79.8087 25.1382H68.8819V29.2145H79.8087V25.1382Z" fill="black"/>
</g>
</g>
</svg>
