<svg width="393" height="59" viewBox="0 0 393 59" fill="none" xmlns="http://www.w3.org/2000/svg">
<g id="logo / sub-brand / deriv careers / brand-dark" clip-path="url(#clip0_203_46)">
<g id="wordmark">
<path d="M34.9861 1.82853L31.9963 18.7839H21.6179C11.9356 18.7839 2.70673 26.6285 0.996224 36.3108L0.272218 40.4319C-1.43032 50.1143 5.02984 57.959 14.7122 57.959H23.3682C30.4251 57.959 37.1479 52.2464 38.389 45.1897L46.3608 0L34.9861 1.82853ZM27.6221 43.5905C27.2402 45.7704 25.2776 47.5447 23.0977 47.5447H17.8389C13.487 47.5447 10.5752 44.012 11.3389 39.6522L11.7924 37.0825C12.5641 32.7306 16.7171 29.1902 21.069 29.1902H30.1613L27.6221 43.5905ZM114.914 57.9581L121.724 19.324H132.496L125.686 57.9581H114.905H114.914ZM116.079 19.7695C115.539 22.8339 114.997 25.8983 114.457 28.9627C109.353 27.3768 104.088 27.8818 102.47 28.2044C100.723 38.1247 98.9739 48.0474 97.2245 57.9677H86.4451C87.9089 49.6671 92.9099 21.3197 92.9099 21.3197C96.4158 19.8679 105.025 16.9214 116.079 19.7695ZM72.4022 18.7773H64.0168C55.8461 18.7773 48.0576 25.3966 46.6173 33.5673L44.9228 43.1702C43.4827 51.3408 48.9327 57.9603 57.1034 57.9603H74.9405L76.7704 47.5778H60.007C57.2863 47.5778 55.4642 45.3739 55.9497 42.6451L56.0054 42.3189H83.0316L84.575 33.5673C86.0148 25.3966 80.5651 18.7773 72.3944 18.7773H72.4022ZM73.7628 32.7399L73.6992 33.2968H57.6285L57.716 32.8036C58.201 30.0827 60.6835 27.688 63.4121 27.688H69.6894C72.3865 27.688 74.2086 30.0429 73.7628 32.7399ZM174.527 19.324C170.855 29.0872 162.439 45.6953 154.287 57.9581H143.507C139.765 46.2868 137.349 30.0248 136.888 19.324H147.668C147.862 22.8146 149.425 35.7617 151.208 44.8066C156.1 36.0072 161.492 24.4623 163.739 19.324H174.527Z" fill="#FF444F"/>
<path d="M174.59 44.1345C174.383 40.7667 174.688 37.526 175.512 34.4061C176.336 31.2863 177.666 28.5353 179.5 26.1591C181.334 23.783 183.645 21.8845 186.433 20.4757C189.218 19.0609 192.47 18.3535 196.182 18.3535C197.817 18.3535 199.384 18.4684 200.886 18.6921C202.384 18.9158 203.822 19.3451 205.198 19.992L202.954 25.7843C202.135 25.3429 201.185 24.9922 200.106 24.7443C199.024 24.4964 197.644 24.3755 195.96 24.3755C193.532 24.3755 191.385 24.9076 189.519 25.9717C187.653 27.0358 186.092 28.4506 184.84 30.204C183.584 31.9635 182.669 33.995 182.095 36.2986C181.517 38.6022 181.304 40.9905 181.457 43.4694C181.536 44.7572 181.747 45.9725 182.089 47.1092C182.431 48.2459 182.976 49.2496 183.725 50.1202C184.47 50.9848 185.44 51.668 186.635 52.1638C187.829 52.6596 189.319 52.9015 191.1 52.9015C191.992 52.9015 192.927 52.8168 193.908 52.6415C194.889 52.4722 195.792 52.2606 196.62 52.0127C197.445 51.7648 198.185 51.5048 198.836 51.2327C199.488 50.9606 199.955 50.7006 200.236 50.4528L201.193 56.3236C200.289 56.9161 198.862 57.4966 196.917 58.0649C194.972 58.6393 192.734 58.9235 190.21 58.9235C187.831 58.9235 185.704 58.5607 183.828 57.8473C181.949 57.1278 180.351 56.112 179.034 54.8C177.713 53.4879 176.677 51.928 175.922 50.1202C175.167 48.3124 174.724 46.3172 174.59 44.1345ZM230.742 58.4035C230.46 57.8593 230.175 57.2487 229.886 56.5836C229.597 55.9125 229.357 55.2051 229.16 54.4614C228.133 55.453 226.731 56.4445 224.96 57.4361C223.189 58.4277 220.967 58.9235 218.291 58.9235C216.112 58.9235 214.222 58.5728 212.62 57.8835C211.014 57.1882 209.679 56.2208 208.614 54.9814C207.546 53.7479 206.725 52.2848 206.152 50.5979C205.577 48.917 205.227 47.0608 205.102 45.0293C204.898 41.71 205.258 38.4692 206.175 35.2949C207.096 32.1267 208.594 29.3032 210.67 26.8242C212.749 24.3513 215.422 22.344 218.695 20.8082C221.968 19.2725 225.86 18.5046 230.367 18.5046C231.704 18.5046 233.273 18.6558 235.075 18.9521C236.876 19.2483 238.443 19.7441 239.773 20.4394L235.488 43.7657C235.308 44.9084 235.166 45.9967 235.058 47.0367C234.946 48.0766 234.929 49.1649 234.999 50.3016C235.069 51.4443 235.236 52.5931 235.508 53.76C235.776 54.9209 236.2 56.1725 236.778 57.5087L230.742 58.4035ZM219.342 53.0526C221.422 53.0526 223.178 52.6052 224.608 51.7164C226.04 50.8216 227.264 49.7816 228.279 48.5966C228.279 47.7561 228.309 46.8734 228.377 45.9544C228.445 45.0414 228.551 44.1103 228.689 43.1731L232.015 24.7443C231.761 24.6476 231.345 24.575 230.774 24.5206C230.202 24.4722 229.693 24.4481 229.246 24.4481C226.425 24.4481 223.907 24.9922 221.695 26.0805C219.482 27.1749 217.627 28.6199 216.13 30.4277C214.63 32.2356 213.524 34.3457 212.804 36.746C212.084 39.1464 211.806 41.6616 211.967 44.2856C212.031 45.3256 212.196 46.3776 212.458 47.4417C212.723 48.5119 213.141 49.4491 213.711 50.2653C214.281 51.0816 215.015 51.7527 215.914 52.2727C216.811 52.7926 217.954 53.0526 219.342 53.0526ZM262.164 18.5046C262.76 18.5046 263.429 18.5288 264.176 18.5772C264.923 18.6316 265.657 18.7163 266.384 18.8372C267.108 18.9642 267.775 19.0851 268.375 19.212C268.978 19.333 269.431 19.472 269.739 19.6171L268.102 25.6392C267.086 25.2401 265.928 24.9438 264.631 24.7443C263.328 24.5508 262.085 24.4481 260.897 24.4481C259.857 24.4481 258.831 24.5206 257.828 24.6718C256.821 24.8229 255.953 25.0164 255.225 25.2643L249.361 57.9561H242.453L249.083 20.8082C251.02 20.1129 253.117 19.5567 255.368 19.1395C257.621 18.7163 259.888 18.5046 262.164 18.5046ZM284.116 58.9235C281.592 58.9235 279.387 58.5607 277.514 57.8473C275.635 57.1278 274.038 56.1362 272.724 54.8725C271.407 53.6089 270.4 52.1396 269.704 50.4528C269.005 48.7719 268.599 46.9883 268.483 45.1019C268.27 41.6374 268.584 38.2938 269.426 35.0712C270.268 31.8546 271.577 29.0069 273.357 26.5279C275.136 24.0551 277.367 22.084 280.052 20.6208C282.735 19.1637 285.837 18.4321 289.353 18.4321C291.384 18.4321 293.144 18.6921 294.64 19.212C296.132 19.732 297.363 20.4394 298.334 21.3282C299.305 22.217 300.051 23.2509 300.567 24.4118C301.086 25.5787 301.381 26.7758 301.457 28.0153C301.6 30.3431 301.301 32.3142 300.56 33.9224C299.815 35.5307 298.783 36.879 297.465 37.9734C296.145 39.0617 294.573 39.9021 292.753 40.4947C290.934 41.0932 289.031 41.5648 287.045 41.9095C285.059 42.2541 283.042 42.4899 280.997 42.6169C278.949 42.7378 277.012 42.8527 275.186 42.9494C275.159 43.3424 275.155 43.6689 275.17 43.9168L275.206 44.5093C275.276 45.646 275.479 46.7283 275.813 47.738C276.148 48.7538 276.711 49.6486 277.501 50.4165C278.292 51.1843 279.357 51.789 280.697 52.2364C282.036 52.6838 283.77 52.9015 285.901 52.9015C286.842 52.9015 287.816 52.8168 288.821 52.6415C289.823 52.4722 290.777 52.2485 291.676 51.9764C292.575 51.7043 293.375 51.4322 294.078 51.1602C294.777 50.8881 295.272 50.6281 295.553 50.3802L296.509 56.245C295.552 56.7952 293.988 57.3757 291.822 57.9924C289.656 58.6091 287.088 58.9235 284.116 58.9235ZM275.753 37.6711C278.619 37.5743 281.232 37.3869 283.594 37.1148C285.953 36.8428 287.98 36.3712 289.671 35.7061C291.365 35.035 292.658 34.1341 293.555 32.9913C294.45 31.8546 294.842 30.3673 294.729 28.5353C294.702 28.0879 294.585 27.6163 294.382 27.1205C294.177 26.6307 293.852 26.1712 293.406 25.748C292.96 25.3308 292.355 24.9801 291.598 24.708C290.837 24.436 289.91 24.3029 288.822 24.3029C287.09 24.3029 285.489 24.6718 284.023 25.4154C282.56 26.1591 281.269 27.1386 280.156 28.3479C279.042 29.5631 278.114 30.978 277.369 32.5862C276.628 34.1945 276.088 35.8875 275.753 37.6711ZM320.372 58.9235C317.848 58.9235 315.643 58.5607 313.77 57.8473C311.891 57.1278 310.294 56.1362 308.98 54.8725C307.663 53.6089 306.656 52.1396 305.96 50.4528C305.261 48.7719 304.855 46.9883 304.739 45.1019C304.526 41.6374 304.84 38.2938 305.682 35.0712C306.524 31.8546 307.833 29.0069 309.613 26.5279C311.392 24.0551 313.623 22.084 316.308 20.6208C318.991 19.1637 322.093 18.4321 325.609 18.4321C327.64 18.4321 329.4 18.6921 330.896 19.212C332.388 19.732 333.619 20.4394 334.59 21.3282C335.561 22.217 336.308 23.2509 336.823 24.4118C337.343 25.5787 337.637 26.7758 337.713 28.0153C337.856 30.3431 337.557 32.3142 336.816 33.9224C336.071 35.5307 335.039 36.879 333.721 37.9734C332.401 39.0617 330.829 39.9021 329.009 40.4947C327.19 41.0932 325.287 41.5648 323.301 41.9095C321.315 42.2541 319.298 42.4899 317.253 42.6169C315.205 42.7378 313.268 42.8527 311.442 42.9494C311.415 43.3424 311.411 43.6689 311.426 43.9168L311.462 44.5093C311.532 45.646 311.735 46.7283 312.069 47.738C312.404 48.7538 312.967 49.6486 313.758 50.4165C314.548 51.1843 315.613 51.789 316.953 52.2364C318.293 52.6838 320.026 52.9015 322.157 52.9015C323.098 52.9015 324.072 52.8168 325.077 52.6415C326.079 52.4722 327.033 52.2485 327.932 51.9764C328.831 51.7043 329.631 51.4322 330.334 51.1602C331.033 50.8881 331.528 50.6281 331.809 50.3802L332.766 56.245C331.808 56.7952 330.244 57.3757 328.078 57.9924C325.912 58.6091 323.344 58.9235 320.372 58.9235ZM312.009 37.6711C314.875 37.5743 317.488 37.3869 319.85 37.1148C322.209 36.8428 324.236 36.3712 325.928 35.7061C327.621 35.035 328.914 34.1341 329.811 32.9913C330.706 31.8546 331.098 30.3673 330.985 28.5353C330.958 28.0879 330.841 27.6163 330.638 27.1205C330.433 26.6307 330.108 26.1712 329.662 25.748C329.216 25.3308 328.611 24.9801 327.854 24.708C327.093 24.436 326.166 24.3029 325.078 24.3029C323.346 24.3029 321.745 24.6718 320.279 25.4154C318.816 26.1591 317.525 27.1386 316.412 28.3479C315.298 29.5631 314.37 30.978 313.625 32.5862C312.884 34.1945 312.344 35.8875 312.009 37.6711ZM359.714 18.5046C360.309 18.5046 360.979 18.5288 361.725 18.5772C362.472 18.6316 363.206 18.7163 363.933 18.8372C364.657 18.9642 365.324 19.0851 365.924 19.212C366.527 19.333 366.98 19.472 367.288 19.6171L365.652 25.6392C364.635 25.2401 363.477 24.9438 362.18 24.7443C360.878 24.5508 359.635 24.4481 358.447 24.4481C357.407 24.4481 356.38 24.5206 355.377 24.6718C354.371 24.8229 353.503 25.0164 352.774 25.2643L346.91 57.9561H340.002L346.632 20.8082C348.57 20.1129 350.667 19.5567 352.917 19.1395C355.171 18.7163 357.437 18.5046 359.714 18.5046ZM374.773 53.1252C375.813 53.1252 376.859 53.0284 377.911 52.8289C378.963 52.6294 379.886 52.3089 380.675 51.8615C381.464 51.4201 382.098 50.8095 382.57 50.0416C383.043 49.2737 383.245 48.3245 383.174 47.1818C383.129 46.4381 382.965 45.7851 382.682 45.2167C382.399 44.6484 381.97 44.1103 381.395 43.6145C380.818 43.1248 380.108 42.6411 379.263 42.1695C378.414 41.6979 377.405 41.1658 376.229 40.5733C375.056 40.0291 373.982 39.4849 373.008 38.9347C372.032 38.3906 371.164 37.7497 370.399 37.006C369.636 36.2623 369.023 35.3856 368.565 34.3699C368.106 33.3541 367.834 32.1267 367.746 30.6877C367.517 26.9754 368.67 23.9885 371.207 21.7394C373.744 19.4841 377.562 18.3535 382.662 18.3535C385.041 18.3535 387.147 18.5893 388.984 19.0609C390.821 19.5325 392.099 19.9678 392.816 20.3608L390.563 26.008C389.844 25.615 388.705 25.1917 387.142 24.7443C385.579 24.3029 383.857 24.0792 381.974 24.0792C381.034 24.0792 380.1 24.176 379.169 24.3755C378.241 24.575 377.406 24.9076 376.67 25.3792C375.928 25.8508 375.349 26.4675 374.925 27.2354C374.5 28.0032 374.325 28.9343 374.392 30.0226C374.474 31.3589 375.062 32.4593 376.155 33.3299C377.248 34.1945 378.864 35.1015 381.002 36.0386C382.326 36.6311 383.515 37.2418 384.569 37.8585C385.623 38.4813 386.53 39.1705 387.297 39.9384C388.06 40.7063 388.663 41.6132 389.099 42.6532C389.535 43.6931 389.796 44.9326 389.884 46.3655C390.012 48.4454 389.728 50.2774 389.034 51.8615C388.34 53.4517 387.317 54.7637 385.969 55.8036C384.621 56.8436 382.997 57.6235 381.098 58.1435C379.198 58.6635 377.11 58.9235 374.83 58.9235C373.147 58.9235 371.616 58.8086 370.242 58.5849C368.865 58.3672 367.661 58.1072 366.626 57.8049C365.592 57.5087 364.733 57.2003 364.045 56.8799C363.357 56.5594 362.831 56.2994 362.474 56.0999L364.802 50.4528C365.159 50.6523 365.658 50.9002 366.296 51.1964C366.933 51.4927 367.692 51.789 368.578 52.0852C369.464 52.3815 370.432 52.6294 371.484 52.8289C372.536 53.0284 373.633 53.1252 374.773 53.1252Z" fill="white"/>
</g>
</g>
<defs>
<clipPath id="clip0_203_46">
<rect width="393" height="59" fill="white"/>
</clipPath>
</defs>
</svg>
