<svg width="128" height="80" viewBox="0 0 128 80" fill="none" xmlns="http://www.w3.org/2000/svg">
<g id="logo / payment method / dragonpay / brand-dark">
<g id="wordmark">
<path id="dragon" opacity="0.997" d="M64.224 47.3198C64.8553 47.4254 65.4701 47.618 66.0481 47.8937C66.2121 47.9859 66.2941 47.9859 66.2941 47.7297C66.2838 47.6621 66.3064 47.5924 66.3545 47.5443C66.4027 47.4961 66.4724 47.4725 66.54 47.4838H67.9542C68.0946 47.4838 68.1151 47.5443 68.1182 47.6642V57.8444C68.1018 58.7872 67.8774 59.7136 67.4623 60.5601C66.9274 61.6577 65.919 62.4509 64.7261 62.7122C63.8325 62.9376 62.9051 62.9971 61.99 62.8864C61.3341 62.8864 60.668 62.6302 59.9404 62.5482C59.7764 62.5482 59.7764 62.3842 59.7764 62.2203V60.7446C59.7764 60.4986 59.8584 60.4166 60.1043 60.4986C60.9529 60.845 61.8465 61.0694 62.7586 61.1647C63.3714 61.2365 63.9924 61.1801 64.5827 61.0008C65.3461 60.7753 65.9088 60.1277 66.0276 59.3406C66.1096 58.6817 66.1475 58.0166 66.1404 57.3525C65.8842 57.5165 65.7202 57.6805 65.5562 57.7624C64.3716 58.6253 62.8354 58.8436 61.4571 58.3466C60.585 57.992 59.8604 57.3474 59.4075 56.5224C59.0949 55.9014 58.9002 55.2271 58.8336 54.5344C58.7106 53.6817 58.7106 52.8148 58.8336 51.9621C58.9156 50.6729 59.4751 49.4596 60.4015 48.5598C61.3986 47.5494 62.8241 47.0872 64.224 47.3198ZM53.2075 47.4018C54.0858 47.4305 54.9404 47.6888 55.6875 48.1499C56.2829 48.6254 56.6815 49.3038 56.8045 50.056C56.8732 50.634 56.9009 51.2161 56.8865 51.7982V58.5105C56.8865 58.7565 56.8865 58.8385 56.6303 58.7565H55.1956C55.128 58.7667 55.0583 58.7442 55.0101 58.696C54.9619 58.6479 54.9384 58.5782 54.9496 58.5105C54.8728 58.241 54.8451 57.9602 54.8677 57.6805C54.6115 57.7624 54.4475 58.0084 54.2015 58.1724C53.394 58.8036 52.4082 59.1623 51.3834 59.1971C50.6527 59.2535 49.9251 59.0455 49.3338 58.613C48.6779 58.156 48.2045 57.4806 48.0016 56.7069C47.6572 55.5837 47.8335 54.3653 48.4832 53.3866C48.9362 52.8363 49.5429 52.4335 50.2254 52.2286C51.1087 51.9468 52.0249 51.7818 52.9513 51.7367C53.5354 51.6444 54.1196 51.6444 54.6934 51.5625C54.7754 51.5625 54.8677 51.5625 54.8677 51.4805C54.9599 50.8554 54.7775 50.219 54.3655 49.7383C54.0837 49.4719 53.725 49.2987 53.3407 49.2464C52.9585 49.1788 52.5701 49.1511 52.1827 49.1645C51.1866 49.1891 50.2028 49.3827 49.2723 49.7383C48.8624 49.9125 48.8624 49.9126 48.8624 49.4104V48.0679C48.8624 47.8937 48.9444 47.8117 49.1083 47.8117C50.4457 47.4654 51.8281 47.328 53.2075 47.4018ZM77.0749 47.7297C77.9357 48.1417 78.651 48.8068 79.1244 49.6359C79.7875 50.8943 80.0755 52.3177 79.9545 53.735C79.9504 54.6963 79.7444 55.6463 79.3499 56.5224C78.7156 57.8916 77.4387 58.8538 75.9476 59.0844C74.5918 59.3683 73.1796 59.0711 72.0534 58.2646C71.3524 57.7358 70.8072 57.0277 70.4752 56.215C70.1012 55.4034 69.9218 54.5159 69.9526 53.6223C69.9116 52.785 69.9956 51.9457 70.1985 51.1321C70.4107 50.2405 70.8359 49.4145 71.4385 48.7238C72.1518 47.9993 73.0854 47.535 74.0927 47.4018C75.097 47.2256 76.1321 47.3393 77.0749 47.7297ZM38.6965 43.1694C38.9424 43.1694 39.0347 43.2514 38.9424 43.4256V58.4286C38.9424 58.6745 38.8604 58.7565 38.6145 58.7565H37.3335C37.0773 58.7565 37.0773 58.6745 37.0773 58.5105V57.6805C36.7494 57.9264 36.5034 58.1724 36.2472 58.3466C35.3936 58.9184 34.3698 59.1787 33.3471 59.0844C32.5108 58.9922 31.7279 58.6335 31.113 58.0596C30.3772 57.289 29.914 56.3001 29.791 55.2415C29.6466 54.3366 29.5881 53.4204 29.6168 52.5053C29.6384 51.2407 30.078 50.0191 30.8671 49.0312C31.816 47.7554 33.3973 47.1149 34.9662 47.3711C35.6938 47.4715 36.3958 47.7072 37.0363 48.0679V43.5076C37.0363 43.2514 37.1183 43.1694 37.3745 43.1694H38.6965ZM88.5218 47.5658C89.5302 47.9859 90.2506 48.896 90.4279 49.974C90.5734 50.4834 90.639 51.0122 90.6226 51.542V58.4286C90.6226 58.6745 90.5406 58.7565 90.2947 58.7565H88.9624C88.7165 58.7565 88.7165 58.6745 88.7165 58.5105V52.7102C88.7206 51.9283 88.6376 51.1484 88.4705 50.384C88.2809 49.7619 87.7727 49.2885 87.1383 49.144C85.9629 48.9872 84.7792 49.3633 83.9102 50.1687C83.6643 50.3327 83.6643 50.4967 83.6643 50.7529V58.5105C83.6643 58.7565 83.572 58.8385 83.3261 58.8385H82.0553C81.8094 58.8385 81.7172 58.7565 81.7172 58.5105V47.8937C81.7172 47.6478 81.8094 47.5658 82.0553 47.5658H83.2953C83.5413 47.5658 83.6335 47.6478 83.6335 47.8937C83.6971 48.193 83.7258 48.4994 83.7155 48.8058C84.4605 48.1171 85.3716 47.6344 86.3595 47.4018C87.0809 47.2481 87.8311 47.3055 88.5218 47.5658ZM43.2568 47.5658C43.4208 47.5658 43.5027 47.6478 43.4208 47.7297C43.4802 48.2257 43.5007 48.7269 43.4822 49.2259C44.1545 48.6029 44.9456 48.1222 45.8085 47.8117C46.3209 47.6601 46.862 47.6314 47.3867 47.7297C47.5271 47.7297 47.5476 47.7902 47.5507 47.8589V49.4719C47.5507 49.7178 47.3867 49.7178 47.2945 49.7178C45.9786 49.4832 44.629 49.8869 43.6565 50.8041C43.4822 50.8861 43.4822 51.0501 43.4822 51.214V58.5105C43.4822 58.7565 43.4003 58.8385 43.1543 58.8385H41.8528C41.6786 58.8385 41.5966 58.7565 41.5966 58.5925V47.8117C41.5966 47.6478 41.5966 47.5658 41.7606 47.5658H43.2568ZM72.3506 50.6299C71.6998 52.2757 71.6998 54.108 72.3506 55.7539C72.7584 56.9283 73.937 57.6518 75.1688 57.4858C76.294 57.4458 77.2819 56.7223 77.659 55.6616C77.8988 54.8654 77.9818 54.0302 77.9049 53.2021C77.9172 52.3608 77.8066 51.5215 77.577 50.7119C77.2081 49.6809 76.2612 48.9687 75.1688 48.898C73.937 48.732 72.7584 49.4555 72.3506 50.6299ZM54.6115 53.0382C53.9454 53.0802 53.2803 53.1622 52.6234 53.2841C51.9552 53.3487 51.3065 53.5475 50.7173 53.8682C49.9056 54.3294 49.5531 55.3132 49.8872 56.1843C50.1321 56.9672 50.8607 57.496 51.6806 57.4858C52.8324 57.5021 53.9413 57.0512 54.7549 56.2355C54.8472 56.1535 54.8472 56.0715 54.8472 55.9076L54.8677 54.5344V53.2841C54.8677 53.0382 54.8677 52.9562 54.6115 53.0382ZM31.9841 50.7119C31.2924 52.3802 31.2626 54.2495 31.9021 55.9383C32.1716 56.7674 32.9372 57.3341 33.8082 57.3525C34.9509 57.4089 36.0658 56.9857 36.8826 56.1843C36.9646 56.1023 36.9646 56.0203 36.9646 55.8563C37.0363 54.8623 37.0363 53.8682 37.0363 52.8742V49.8921C37.0363 49.7178 36.9543 49.6359 36.7904 49.5539C36.0884 49.2362 35.327 49.0691 34.5563 49.062C33.4332 49.0005 32.3971 49.6666 31.9841 50.7119ZM60.9037 50.8041C60.3216 52.2655 60.3216 53.8928 60.9037 55.3542C61.164 56.2529 62.0207 56.8442 62.9533 56.7684C63.9893 56.7602 64.9998 56.4425 65.8534 55.8563C66.0276 55.7744 66.0276 55.6104 66.0276 55.4464C66.1219 54.7547 66.1373 54.0056 66.1404 53.2001V49.8921C66.1455 49.7137 66.0451 49.5488 65.8842 49.4719C65.2744 49.2208 64.6339 49.0558 63.9781 48.98C62.6438 48.7463 61.3382 49.5211 60.9037 50.8041Z" fill="#BB191F"/>
<path id="pay" opacity="0.997" d="M100.625 47.9552C101.506 48.5834 102.101 49.5334 102.285 50.5992C102.572 51.6814 102.656 52.8066 102.531 53.9195C102.461 55.0714 102.09 56.1843 101.455 57.1476C100.76 58.1652 99.6787 58.8539 98.4623 59.0537C97.3135 59.149 96.1616 58.903 95.1522 58.3466V62.7327C95.1522 62.9069 95.0702 62.9889 94.9063 62.9889H93.574C93.3281 62.9889 93.2461 62.9069 93.2461 62.6507V47.986C93.2461 47.7298 93.3281 47.6478 93.574 47.6478H94.9063C95.0702 47.6478 95.1522 47.7298 95.0702 47.8117V48.7238C95.5437 48.3077 96.0745 47.9624 96.6484 47.699C97.9171 47.035 99.4512 47.1333 100.625 47.9552ZM122.535 47.5453C123.019 47.617 123.509 47.6509 124 47.6478C123.672 48.3959 123.416 49.144 123.088 49.8921C122.012 52.536 121.038 55.2722 119.942 57.9264C119.276 59.5046 118.692 61.1648 118.036 62.7327C117.944 62.8147 117.944 62.9069 117.78 62.9069H116.119C115.873 62.9069 115.873 62.8147 115.955 62.6507C116.376 61.7386 116.786 60.7446 117.206 59.8325C117.37 59.3406 117.616 58.9205 117.78 58.4286C117.841 58.2318 117.811 58.0166 117.698 57.8444C117.288 56.8196 116.949 55.7949 116.54 54.7701C116.037 53.6121 115.628 52.3618 115.218 51.2038C114.797 50.179 114.388 49.1542 114.049 48.1294C113.967 47.9655 113.967 47.7912 113.885 47.6273H115.709C115.873 47.6273 115.873 47.7093 115.955 47.8732C116.376 48.9595 116.704 49.9228 117.124 51.0296C117.698 52.5155 118.148 54.0117 118.774 55.5079C118.774 55.5899 118.856 55.6719 118.948 55.8358L119.44 54.3397C119.86 53.3149 120.27 52.1056 120.68 51.0296L121.705 48.2934C121.705 48.2114 121.797 48.1294 121.797 48.0474C121.797 47.9655 121.879 47.6273 121.961 47.5453C122.043 47.4633 122.371 47.5453 122.535 47.5453ZM109.048 47.4018C109.93 47.4326 110.786 47.6908 111.539 48.1499C112.168 48.6377 112.583 49.35 112.697 50.138C112.806 51.296 112.833 52.4602 112.779 53.6223V58.5106C112.779 58.7565 112.697 58.8385 112.451 58.8385H111.118C110.954 58.8385 110.872 58.7565 110.954 58.6745C110.831 58.3589 110.785 58.0187 110.821 57.6805C110.332 58.076 109.804 58.4193 109.243 58.7053C108.211 59.2054 107.027 59.2935 105.933 58.9512C105.257 58.7299 104.691 58.2564 104.355 57.6292C103.871 56.8945 103.664 56.0121 103.771 55.139C103.856 53.7063 104.866 52.4961 106.261 52.1569C107.12 51.875 108.013 51.709 108.915 51.665C109.489 51.5727 110.073 51.5727 110.657 51.4907C110.739 51.4907 110.821 51.4907 110.821 51.4088C110.885 50.7467 110.674 50.0868 110.237 49.5846C109.937 49.3612 109.584 49.2198 109.212 49.1747C108.69 49.1061 108.162 49.0784 107.634 49.0927C106.809 49.1573 106.001 49.351 105.236 49.6666C105.191 49.6666 105.154 49.7035 105.154 49.7486C104.816 49.9228 104.816 49.9228 104.816 49.5026V48.1499C104.816 47.986 104.898 47.8937 105.072 47.8117C106.369 47.4736 107.71 47.3342 109.048 47.4018ZM110.575 52.9562C109.888 52.9951 109.203 53.0781 108.526 53.2021C107.858 53.2677 107.21 53.4665 106.62 53.7863C105.832 54.2659 105.486 55.2312 105.79 56.1023C105.978 56.9314 106.773 57.4755 107.614 57.3525C108.766 57.3679 109.874 56.917 110.688 56.1023C110.77 56.0203 110.77 55.9383 110.77 55.7744L110.821 54.5344V53.2021C110.821 52.9562 110.739 52.9562 110.575 52.9562ZM98.2163 49.062C97.1567 49.0384 96.1258 49.4032 95.3162 50.0868C95.1625 50.1647 95.0671 50.3245 95.0702 50.4967C95.1522 51.624 95.1522 52.6283 95.1522 53.5301V56.461C95.1522 56.6249 95.2342 56.7069 95.3982 56.7889C95.9813 57.0379 96.5941 57.206 97.2223 57.2911C97.953 57.4304 98.7093 57.2685 99.32 56.8422C99.9298 56.4159 100.341 55.761 100.461 55.0263C100.719 54.0537 100.775 53.0382 100.625 52.0441C100.567 51.4467 100.426 50.8595 100.204 50.302C99.8662 49.5129 99.0731 49.0179 98.2163 49.062Z" fill="white"/>
</g>
<g id="logo">
<path id="Vector" opacity="0.997" d="M17.8626 52.0442V49.472C17.8626 49.308 17.7807 49.226 17.6064 49.144C17.2068 48.9657 16.7917 48.8253 16.3665 48.7239C15.7065 48.522 14.9932 48.6029 14.3958 48.9493C13.7983 49.2957 13.372 49.8747 13.2203 50.548C12.7981 51.8116 12.7981 53.1786 13.2203 54.4422C13.3464 54.9935 13.6887 55.4711 14.1703 55.7683C14.652 56.0655 15.233 56.1556 15.7823 56.0204C16.3962 55.8851 16.966 55.6002 17.4425 55.1903C17.7448 55.0581 17.918 54.7363 17.8626 54.4115C17.8227 53.6224 17.8227 52.8333 17.8626 52.0442Z" fill="white"/>
<path id="Vector_2" opacity="0.997" d="M27.1779 49.4723C26.9606 48.0786 26.6173 46.7053 26.1531 45.3731C25.5434 43.8841 25.1232 42.3244 24.9029 40.7308C24.8229 40.0504 24.8229 39.3617 24.9029 38.6812C24.9848 37.6565 25.1591 36.6931 25.323 35.6991C25.3937 35.2769 25.5034 34.8618 25.651 34.4591C25.651 34.3771 25.7329 34.2951 25.651 34.2132C25.569 34.1312 25.487 34.2132 25.405 34.2132C24.7164 34.5001 24.1548 35.0289 23.8268 35.6991C23.5051 36.2576 23.2284 36.8397 22.9968 37.4412C22.7795 38.1647 22.3809 38.8206 21.8387 39.3474C21.5846 39.5585 21.2382 39.6199 20.9267 39.5113C20.6274 39.3894 20.4317 39.0973 20.4348 38.7735C20.3692 38.2519 20.486 37.7241 20.7627 37.2773C21.0363 36.7608 21.3407 36.2607 21.6748 35.7811C22.5489 34.4612 23.1156 32.9629 23.3349 31.395C23.5993 29.7533 23.1771 28.0747 22.1667 26.7527C21.7824 26.2505 21.3059 25.8263 20.7627 25.5024C20.6807 25.6664 20.8447 25.7586 20.8447 25.9226C20.7627 26.2505 20.9267 26.4965 20.9267 26.8347C20.9267 27.1728 21.0906 27.8595 21.0906 28.4026C21.1521 29.2153 21.1347 30.032 21.0394 30.8416C20.9595 31.6102 20.5936 32.3193 20.0146 32.8297C19.5473 33.2191 18.8894 33.2837 18.3545 32.9937C17.8697 32.7036 17.6105 32.1482 17.6986 31.5897C17.8195 30.8867 18.0696 30.2134 18.4364 29.6016C18.8628 28.7818 19.0903 27.8718 19.1026 26.9474C19.0892 26.2813 19.0339 25.6182 18.9386 24.9593C18.8064 23.7121 18.3155 22.5305 17.5244 21.557C17.094 21.0651 16.7066 20.5373 16.3664 19.9788C15.9073 18.8475 15.6541 17.6423 15.6183 16.4228C15.5947 15.2781 15.6593 14.1344 15.813 13C15.7433 13.0625 15.649 13.0922 15.5568 13.082C14.699 13.5011 13.9581 14.1273 13.4047 14.9061C12.5705 15.8356 11.8983 16.8993 11.4166 18.0522C10.7895 19.4029 10.4779 20.8776 10.5046 22.3666C10.4912 22.673 10.5189 22.9794 10.5865 23.2786C10.7116 23.9243 10.8766 24.5596 11.0784 25.1848C11.2875 25.7248 11.4556 26.2792 11.5806 26.8449C11.6626 27.2548 11.6626 27.675 11.7446 28.1669C11.8245 28.7592 11.7394 29.3618 11.4986 29.909C11.3039 30.3087 10.8356 30.4911 10.4226 30.3292C9.95732 30.1406 9.61607 29.7338 9.51052 29.2429C8.9848 27.5879 8.869 25.8293 9.17233 24.119C9.27174 23.7859 9.33015 23.4416 9.34655 23.0942C9.04321 23.2428 8.78496 23.4682 8.59845 23.75C8.03482 24.328 7.58391 25.0064 7.26623 25.7484C6.92087 26.5313 6.72616 27.3727 6.69234 28.2284C6.67902 29.0318 6.70566 29.8363 6.77433 30.6366C6.94752 31.6963 7.25393 32.7293 7.68639 33.711C8.02047 34.455 8.40784 35.1744 8.8444 35.8631C8.8444 35.9553 8.92639 36.0373 9.00837 36.1193C9.60787 36.8212 10.0608 37.637 10.3406 38.5173C10.4031 38.9702 10.2094 39.4191 9.83845 39.6855C9.45928 39.8024 9.04936 39.6661 8.81366 39.3474C8.39144 38.8063 8.08196 38.1852 7.9016 37.5232C7.82371 37.1287 7.65155 36.7598 7.39945 36.4472C7.22523 36.0783 7.00593 35.7339 6.74358 35.4224C6.1902 34.5718 5.11724 34.2244 4.17136 34.5923C4.00739 34.6743 3.92541 34.6743 4.08938 34.9203C4.39886 35.4573 4.67556 36.0117 4.91946 36.5804C5.00451 36.7065 5.06088 36.8499 5.08342 37.0006C5.32937 37.7384 5.57532 38.4045 5.83152 39.1526C6.01598 39.7491 6.1533 40.3588 6.24144 40.9768C6.29575 41.5589 6.26808 42.145 6.15945 42.7189C5.96782 43.5541 5.73211 44.3791 5.45235 45.1887C5.02501 46.4102 4.68273 47.6605 4.42756 48.9291C4.19698 49.9621 4.08733 51.0177 4.09962 52.0752C4.0699 52.9627 4.12524 53.8522 4.26359 54.7295C4.4419 55.787 4.74832 56.82 5.17565 57.8038C5.47797 58.5632 5.86636 59.2857 6.33367 59.9559C6.75383 60.54 7.16375 61.0422 7.58391 61.5341C7.92721 61.9214 8.31561 62.2647 8.74192 62.5589C9.23382 62.897 9.65399 63.225 10.2279 63.5836C10.1459 63.5836 9.98192 63.5017 9.89994 63.5836C9.64374 63.7353 9.41828 63.9341 9.23382 64.1678C8.99812 64.4547 8.93458 64.8462 9.06986 65.1926C9.28506 65.5543 9.60275 65.8433 9.98192 66.0226C11.2568 66.6601 12.6566 67.0095 14.0811 67.0474C14.9931 67.1294 15.9052 67.1294 16.8173 67.1294C17.3707 67.1151 17.922 67.0608 18.4672 66.9655C19.3075 66.8148 20.1376 66.6201 20.9574 66.3813C21.56 66.1743 22.1021 65.8228 22.5356 65.3565C22.7057 65.1475 22.7662 64.8698 22.6996 64.6084C22.5694 64.2231 22.303 63.8993 21.9515 63.6964C21.8695 63.6964 21.7875 63.6964 21.7875 63.6144C21.7875 63.5324 21.8695 63.5324 21.9515 63.4504C22.8666 63.0446 23.6875 62.4512 24.3597 61.7083C24.7696 61.2164 25.2718 60.7962 25.5997 60.3043C26.0096 59.6382 26.3478 58.9721 26.6758 58.3162C27.306 56.7616 27.6165 55.0953 27.5878 53.4177C27.4238 51.7986 27.3419 50.6303 27.1779 49.4723ZM22.9865 57.1787C22.8656 57.437 22.6053 57.6019 22.3204 57.5989H18.4262C18.2622 57.5989 18.0983 57.5989 18.0983 57.3529C18.0593 57.0465 17.9804 56.7473 17.8626 56.4613C17.6781 56.5413 17.508 56.652 17.3604 56.7893C16.4401 57.6183 15.1797 57.9575 13.9684 57.7013C12.8257 57.4554 11.886 56.6458 11.4781 55.5493C10.6737 53.6329 10.7034 51.4686 11.5601 49.5748C12.0305 48.5305 12.9159 47.7301 14.0011 47.3684C15.0874 47.0066 16.2762 47.1153 17.2784 47.6686C17.4424 47.7506 17.5244 47.8326 17.6986 47.8326C17.7437 47.8326 17.7806 47.7957 17.7806 47.7506C17.7806 47.3407 17.7806 47.3407 18.2725 47.3407H19.2973C19.5535 47.3407 19.5535 47.4227 19.5535 47.5867V56.1232C19.5535 56.3794 19.6354 56.3794 19.7994 56.3794H21.7055C21.8849 56.3999 22.0539 56.2933 22.1154 56.1232C22.3921 55.374 22.5868 54.5973 22.6996 53.8071C22.9045 52.2577 22.8215 50.6836 22.4536 49.1648C22.0498 47.5313 21.0435 46.111 19.6354 45.1887C18.3012 44.4334 16.763 44.1178 15.2391 44.2868C11.6872 44.6363 8.87617 47.4473 8.52672 50.9992C8.28999 52.7352 8.51647 54.503 9.18258 56.1232C9.69293 57.2996 10.5292 58.306 11.5908 59.0233C12.6074 59.7673 13.8177 60.2018 15.0751 60.2736C16.4955 60.3422 17.9179 60.2008 19.2973 59.8534C19.5535 59.7714 19.5535 59.8534 19.5535 60.0174V61.1036C19.5535 61.3496 19.4612 61.4316 19.2153 61.5136C18.1905 61.6775 17.2272 61.7595 16.1409 61.8415C13.2664 62.0321 10.4902 60.7552 8.76242 58.4494C8.26437 57.7885 7.87598 57.0516 7.61465 56.2666C7.35231 55.6784 7.18322 55.0523 7.11251 54.4118C6.92087 53.2906 6.8932 52.148 7.03052 51.0197C7.18219 49.6403 7.6331 48.3122 8.3525 47.1255C9.06883 45.9613 10.0352 44.9704 11.1809 44.2254C12.26 43.506 13.498 43.0602 14.7882 42.9239C16.6092 42.6851 18.46 43.0028 20.0966 43.8359C21.3079 44.4826 22.3101 45.4602 22.9865 46.6541C23.8791 48.1913 24.3392 49.9396 24.3187 51.7166C24.329 53.6186 23.8709 55.495 22.9865 57.1787Z" fill="#85ACB0"/>
<path id="Vector_3" opacity="0.997" d="M27.1779 49.4723C26.9606 48.0786 26.6173 46.7053 26.1531 45.3731C25.5434 43.8841 25.1232 42.3244 24.9029 40.7308C24.8229 40.0504 24.8229 39.3617 24.9029 38.6812C24.9848 37.6565 25.1591 36.6931 25.323 35.6991C25.3937 35.2769 25.5034 34.8618 25.651 34.4591C25.651 34.3771 25.7329 34.2951 25.651 34.2132C25.569 34.1312 25.487 34.2132 25.405 34.2132C24.7164 34.5001 24.1548 35.0289 23.8268 35.6991C23.5051 36.2576 23.2284 36.8397 22.9968 37.4412C22.7795 38.1647 22.3809 38.8206 21.8387 39.3474C21.5846 39.5585 21.2382 39.6199 20.9267 39.5113C20.6274 39.3894 20.4317 39.0973 20.4348 38.7735C20.3692 38.2519 20.486 37.7241 20.7627 37.2773C21.0363 36.7608 21.3407 36.2607 21.6748 35.7811C22.5489 34.4612 23.1156 32.9629 23.3349 31.395C23.5993 29.7533 23.1771 28.0747 22.1667 26.7527C21.7824 26.2505 21.3059 25.8263 20.7627 25.5024C20.6807 25.6664 20.8447 25.7586 20.8447 25.9226C20.7627 26.2505 20.9267 26.4965 20.9267 26.8347C20.9267 27.1728 21.0906 27.8595 21.0906 28.4026C21.1521 29.2153 21.1347 30.032 21.0394 30.8416C20.9595 31.6102 20.5936 32.3193 20.0146 32.8297C19.5473 33.2191 18.8894 33.2837 18.3545 32.9937C17.8697 32.7036 17.6105 32.1482 17.6986 31.5897C17.8195 30.8867 18.0696 30.2134 18.4364 29.6016C18.8628 28.7818 19.0903 27.8718 19.1026 26.9474C19.0892 26.2813 19.0339 25.6182 18.9386 24.9593C18.8064 23.7121 18.3155 22.5305 17.5244 21.557C17.094 21.0651 16.7066 20.5373 16.3664 19.9788C15.9073 18.8475 15.6541 17.6423 15.6183 16.4228C15.5947 15.2781 15.6593 14.1344 15.813 13C15.7433 13.0625 15.649 13.0922 15.5568 13.082C14.699 13.5011 13.9581 14.1273 13.4047 14.9061C12.5705 15.8356 11.8983 16.8993 11.4166 18.0522C10.7895 19.4029 10.4779 20.8776 10.5046 22.3666C10.4912 22.673 10.5189 22.9794 10.5865 23.2786C10.7116 23.9243 10.8766 24.5596 11.0784 25.1848C11.2875 25.7248 11.4556 26.2792 11.5806 26.8449C11.6626 27.2548 11.6626 27.675 11.7446 28.1669C11.8245 28.7592 11.7394 29.3618 11.4986 29.909C11.3039 30.3087 10.8356 30.4911 10.4226 30.3292C9.95732 30.1406 9.61607 29.7338 9.51052 29.2429C8.9848 27.5879 8.869 25.8293 9.17233 24.119C9.27174 23.7859 9.33015 23.4416 9.34655 23.0942C9.04321 23.2428 8.78496 23.4682 8.59845 23.75C8.03482 24.328 7.58391 25.0064 7.26623 25.7484C6.92087 26.5313 6.72616 27.3727 6.69234 28.2284C6.67902 29.0318 6.70566 29.8363 6.77433 30.6366C6.94752 31.6963 7.25393 32.7293 7.68639 33.711C8.02047 34.455 8.40784 35.1744 8.8444 35.8631C8.8444 35.9553 8.92639 36.0373 9.00837 36.1193C9.60787 36.8212 10.0608 37.637 10.3406 38.5173C10.4031 38.9702 10.2094 39.4191 9.83845 39.6855C9.45928 39.8024 9.04936 39.6661 8.81366 39.3474C8.39144 38.8063 8.08196 38.1852 7.9016 37.5232C7.82371 37.1287 7.65155 36.7598 7.39945 36.4472C7.22523 36.0783 7.00593 35.7339 6.74358 35.4224C6.1902 34.5718 5.11724 34.2244 4.17136 34.5923C4.00739 34.6743 3.92541 34.6743 4.08938 34.9203C4.39886 35.4573 4.67556 36.0117 4.91946 36.5804C5.00451 36.7065 5.06088 36.8499 5.08342 37.0006C5.32937 37.7384 5.57532 38.4045 5.83152 39.1526C6.01598 39.7491 6.1533 40.3588 6.24144 40.9768C6.29575 41.5589 6.26808 42.145 6.15945 42.7189C5.96782 43.5541 5.73211 44.3791 5.45235 45.1887C5.02501 46.4102 4.68273 47.6605 4.42756 48.9291C4.19698 49.9621 4.08733 51.0177 4.09962 52.0752C4.0699 52.9627 4.12524 53.8522 4.26359 54.7295C4.4419 55.787 4.74832 56.82 5.17565 57.8038C5.47797 58.5632 5.86636 59.2857 6.33367 59.9559C6.75383 60.54 7.16375 61.0422 7.58391 61.5341C7.92721 61.9214 8.31561 62.2647 8.74192 62.5589C9.23382 62.897 9.65399 63.225 10.2279 63.5836C10.1459 63.5836 9.98192 63.5017 9.89994 63.5836C9.64374 63.7353 9.41828 63.9341 9.23382 64.1678C8.99812 64.4547 8.93458 64.8462 9.06986 65.1926C9.28506 65.5543 9.60275 65.8433 9.98192 66.0226C11.2568 66.6601 12.6566 67.0095 14.0811 67.0474C14.9931 67.1294 15.9052 67.1294 16.8173 67.1294C17.3707 67.1151 17.922 67.0608 18.4672 66.9655C19.3075 66.8148 20.1376 66.6201 20.9574 66.3813C21.56 66.1743 22.1021 65.8228 22.5356 65.3565C22.7057 65.1475 22.7662 64.8698 22.6996 64.6084C22.5694 64.2231 22.303 63.8993 21.9515 63.6964C21.8695 63.6964 21.7875 63.6964 21.7875 63.6144C21.7875 63.5324 21.8695 63.5324 21.9515 63.4504C22.8666 63.0446 23.6875 62.4512 24.3597 61.7083C24.7696 61.2164 25.2718 60.7962 25.5997 60.3043C26.0096 59.6382 26.3478 58.9721 26.6758 58.3162C27.306 56.7616 27.6165 55.0953 27.5878 53.4177C27.4238 51.7986 27.3419 50.6303 27.1779 49.4723Z" fill="url(#paint0_linear_499_323)"/>
<path id="Vector_4" opacity="0.997" d="M7.61457 40.8334C7.94865 42.2825 7.84514 43.7981 7.31738 45.1888C6.52829 47.3019 5.96773 49.4939 5.64697 51.7269C5.49018 53.5582 5.72075 55.4018 6.32333 57.1378C6.90336 58.8882 7.97017 60.4376 9.3977 61.6059C12.2405 63.799 15.9973 64.4118 19.3894 63.2353C22.6021 62.2239 24.9919 59.5184 25.5996 56.2053C25.9973 54.084 25.9798 51.9052 25.5484 49.7901C25.1036 47.9383 24.5492 46.1142 23.8882 44.3279C23.8411 44.208 23.8032 44.0851 23.7755 43.959C23.5511 42.9486 23.4209 41.9197 23.3861 40.8847C23.3861 41.0794 23.0786 41.3766 22.9557 41.5098C22.5253 41.9627 21.9299 42.2189 21.3058 42.2189C20.6817 42.2189 20.0863 41.9627 19.6559 41.5098C18.5696 40.3928 19.2664 38.3739 19.6559 37.9025C20.0453 37.4311 21.7054 34.8999 21.7054 34.08C21.3601 34.5771 20.9573 35.0311 20.5064 35.4328C19.867 35.9124 19.0256 36.0241 18.2826 35.73C17.2578 35.3713 16.3048 34.285 16.4175 33.6086C16.3089 32.7816 16.4554 31.9413 16.8377 31.2004C17.4761 30.0875 17.8276 28.8341 17.8625 27.5521C17.8215 26.2506 17.3777 24.9932 16.5917 23.9551C16.2023 23.5421 15.859 23.0881 15.5669 22.6024C15.1406 21.7231 14.8393 20.7885 14.6754 19.8252C14.6241 19.4973 14.5831 19.1693 14.5626 18.8004C14.5421 18.4315 14.4294 17.9089 14.5626 17.7756C14.5626 17.7756 13.4559 19.3333 13.1997 19.8252C12.3932 21.2681 12.056 22.9262 12.2364 24.57C12.3429 25.354 12.511 26.1277 12.7385 26.886C13.0521 27.7817 13.2386 28.7163 13.2919 29.6632C13.4354 30.6839 13.0982 31.7128 12.3798 32.4506C11.5928 33.1311 10.4348 33.1608 9.61291 32.5224C8.93962 31.8931 8.45694 31.0877 8.21919 30.1961C8.30118 30.6368 8.30118 31.1082 8.35242 31.5488C8.53278 33.002 9.0216 34.3998 9.78712 35.648C10.2585 36.3756 11.8367 38.4969 11.7855 39.9316C11.808 41.0179 11.0763 41.974 10.0228 42.2374C9.02263 42.2507 8.09622 41.7106 7.61457 40.8334Z" fill="url(#paint1_linear_499_323)"/>
<path id="Vector_5" opacity="0.997" d="M22.9865 47.29C22.3132 46.1269 21.3304 45.1728 20.1478 44.5333C18.5461 43.7176 16.7353 43.4061 14.9522 43.6418C13.6763 43.7822 12.4527 44.229 11.3859 44.9432C9.0883 46.4261 7.58186 48.8651 7.28672 51.5839C7.1494 52.6917 7.17707 53.8149 7.3687 54.9145C7.43634 55.5293 7.59928 56.1319 7.85036 56.6976C8.1168 57.4559 8.5011 58.1692 8.98787 58.8087C10.6696 61.0499 13.3637 62.297 16.1614 62.129C17.1862 62.047 18.211 61.965 19.164 61.801C19.3997 61.7191 19.4817 61.6371 19.4817 61.4014V60.3766C19.4817 60.2126 19.4817 60.1306 19.246 60.2126C17.9066 60.5477 16.5262 60.685 15.1469 60.6225C13.9192 60.5498 12.7386 60.1265 11.7446 59.403C10.7064 58.698 9.88969 57.7142 9.38754 56.5644C8.73168 54.977 8.5093 53.244 8.74192 51.5429C9.09035 48.0689 11.8368 45.3224 15.3108 44.974C16.7998 44.8162 18.3012 45.1277 19.6047 45.8656C20.9912 46.7602 21.9781 48.1549 22.3614 49.7598C22.7293 51.2437 22.8123 52.7839 22.6073 54.2996C22.4936 55.0723 22.3009 55.8306 22.0335 56.5644C21.9802 56.7345 21.81 56.839 21.6338 56.8103H19.7892C19.6252 56.8103 19.5432 56.8103 19.5432 56.5644V48.1816C19.5432 48.0176 19.5432 47.9356 19.3075 47.9356H18.334C17.8421 47.9356 17.8421 47.9356 17.8421 48.3455C17.8421 48.3906 17.8052 48.4275 17.7601 48.4275C17.5961 48.4275 17.5141 48.3455 17.3604 48.2636C16.3797 47.7204 15.2165 47.6138 14.1528 47.9684C13.0901 48.323 12.2242 49.1059 11.7651 50.1287C10.9288 51.9805 10.8991 54.0956 11.6831 55.97C12.095 57.0194 13.0081 57.79 14.1118 58.0196C15.3006 58.2737 16.5396 57.9417 17.4424 57.128C17.5838 56.9948 17.7468 56.8882 17.924 56.8103C18.0193 57.0983 18.0737 57.3985 18.088 57.7019C18.088 57.9376 18.252 57.9376 18.4057 57.9376H22.2179C22.4946 57.9427 22.7508 57.7869 22.8738 57.5379C23.7623 55.8942 24.2337 54.0567 24.247 52.1885C24.2706 50.473 23.835 48.7811 22.9865 47.29ZM17.8626 52.5574V54.8325C17.9005 55.1358 17.7396 55.4299 17.4629 55.5601C16.9638 55.9105 16.4145 56.1831 15.8335 56.3697C15.2965 56.508 14.7267 56.4219 14.2522 56.1329C13.7798 55.8429 13.4437 55.3746 13.3227 54.8325C12.9231 53.5925 12.9231 52.2602 13.3227 51.0202C13.6968 49.6921 15.0587 48.903 16.3971 49.2371C16.8121 49.3365 17.2169 49.4738 17.6064 49.647C17.7703 49.729 17.8523 49.8007 17.8523 49.9647C17.7601 50.8563 17.8626 51.7478 17.8626 52.5574Z" fill="#7C0000"/>
</g>
</g>
<defs>
<linearGradient id="paint0_linear_499_323" x1="15.7573" y1="66.894" x2="16.0964" y2="9.29213" gradientUnits="userSpaceOnUse">
<stop stop-color="#FCF7A1"/>
<stop offset="0.2" stop-color="#FFCA00"/>
<stop offset="0.58" stop-color="#D21824"/>
<stop offset="1" stop-color="#B31A1E"/>
</linearGradient>
<linearGradient id="paint1_linear_499_323" x1="15.7308" y1="63.7785" x2="15.7308" y2="17.7756" gradientUnits="userSpaceOnUse">
<stop stop-color="#FCF7A1"/>
<stop offset="0.42" stop-color="#FFCA00"/>
<stop offset="1" stop-color="#F43221"/>
</linearGradient>
</defs>
</svg>
