<svg width="448" height="72" viewBox="0 0 448 72" fill="none" xmlns="http://www.w3.org/2000/svg">
<g id="logo / sub-brand / deriv academy / brand-light" clip-path="url(#clip0_203_26)">
<g id="wordmark">
<path d="M34.9861 1.82853L31.9963 18.7839H21.6179C11.9356 18.7839 2.70673 26.6285 0.996224 36.3108L0.272218 40.4319C-1.43032 50.1143 5.02984 57.959 14.7122 57.959H23.3682C30.4251 57.959 37.1479 52.2464 38.389 45.1897L46.3608 0L34.9861 1.82853ZM27.6221 43.5905C27.2402 45.7704 25.2776 47.5447 23.0977 47.5447H17.8389C13.487 47.5447 10.5752 44.012 11.3389 39.6522L11.7924 37.0825C12.5641 32.7306 16.7171 29.1902 21.069 29.1902H30.1613L27.6221 43.5905ZM114.914 57.9581L121.724 19.324H132.496L125.686 57.9581H114.905H114.914ZM116.079 19.7695C115.539 22.8339 114.997 25.8983 114.457 28.9627C109.353 27.3768 104.088 27.8818 102.47 28.2044C100.723 38.1247 98.9739 48.0474 97.2245 57.9677H86.4451C87.9089 49.6671 92.9099 21.3197 92.9099 21.3197C96.4158 19.8679 105.025 16.9214 116.079 19.7695ZM72.4022 18.7773H64.0168C55.8461 18.7773 48.0576 25.3966 46.6173 33.5673L44.9228 43.1702C43.4827 51.3408 48.9327 57.9603 57.1034 57.9603H74.9405L76.7704 47.5778H60.007C57.2863 47.5778 55.4642 45.3739 55.9497 42.6451L56.0054 42.3189H83.0316L84.575 33.5673C86.0148 25.3966 80.5651 18.7773 72.3944 18.7773H72.4022ZM73.7628 32.7399L73.6992 33.2968H57.6285L57.716 32.8036C58.201 30.0827 60.6835 27.688 63.4121 27.688H69.6894C72.3865 27.688 74.2086 30.0429 73.7628 32.7399ZM174.527 19.324C170.855 29.0872 162.439 45.6953 154.287 57.9581H143.507C139.765 46.2868 137.349 30.0248 136.888 19.324H147.668C147.862 22.8146 149.425 35.7617 151.208 44.8066C156.1 36.0072 161.492 24.4623 163.739 19.324H174.527Z" fill="#FF444F"/>
<path d="M200.222 58.405C199.94 57.8608 199.655 57.2502 199.366 56.5851C199.077 55.914 198.837 55.2065 198.64 54.4629C197.613 55.4544 196.21 56.446 194.439 57.4376C192.668 58.4292 190.447 58.925 187.771 58.925C185.592 58.925 183.702 58.5743 182.099 57.885C180.494 57.1897 179.159 56.2223 178.094 54.9828C177.026 53.7494 176.205 52.2862 175.632 50.5993C175.057 48.9185 174.707 47.0623 174.582 45.0308C174.378 41.7114 174.738 38.4707 175.655 35.2964C176.576 32.1282 178.074 29.3046 180.15 26.8257C182.229 24.3528 184.901 22.3455 188.175 20.8097C191.448 19.274 195.34 18.5061 199.847 18.5061C201.184 18.5061 202.753 18.6573 204.555 18.9535C206.356 19.2498 207.923 19.7456 209.253 20.4409L204.968 43.7671C204.788 44.9099 204.646 45.9982 204.538 47.0381C204.426 48.0781 204.409 49.1664 204.479 50.3031C204.549 51.4458 204.716 52.5946 204.988 53.7615C205.256 54.9224 205.68 56.1739 206.258 57.5101L200.222 58.405ZM188.822 53.0541C190.902 53.0541 192.658 52.6067 194.088 51.7179C195.52 50.8231 196.744 49.7831 197.759 48.598C197.759 47.7576 197.789 46.8749 197.857 45.9559C197.924 45.0429 198.03 44.1118 198.169 43.1746L201.495 24.7458C201.241 24.6491 200.825 24.5765 200.254 24.5221C199.682 24.4737 199.173 24.4495 198.726 24.4495C195.905 24.4495 193.387 24.9937 191.174 26.082C188.962 27.1764 187.107 28.6214 185.61 30.4292C184.11 32.237 183.004 34.3472 182.284 36.7475C181.564 39.1478 181.286 41.6631 181.447 44.2871C181.511 45.3271 181.676 46.3791 181.938 47.4432C182.203 48.5134 182.621 49.4506 183.191 50.2668C183.761 51.083 184.495 51.7542 185.394 52.2741C186.291 52.7941 187.434 53.0541 188.822 53.0541ZM212.866 44.136C212.659 40.7682 212.965 37.5275 213.788 34.4076C214.612 31.2878 215.943 28.5368 217.777 26.1606C219.611 23.7845 221.921 21.8859 224.71 20.4772C227.494 19.0624 230.746 18.355 234.459 18.355C236.094 18.355 237.661 18.4698 239.162 18.6936C240.66 18.9173 242.098 19.3465 243.474 19.9935L241.231 25.7857C240.412 25.3444 239.462 24.9937 238.383 24.7458C237.3 24.4979 235.92 24.377 234.236 24.377C231.809 24.377 229.662 24.909 227.796 25.9732C225.929 27.0373 224.369 28.4521 223.116 30.2055C221.861 31.965 220.946 33.9965 220.371 36.3001C219.794 38.6037 219.581 40.9919 219.733 43.4709C219.812 44.7587 220.023 45.974 220.365 47.1107C220.707 48.2474 221.253 49.251 222.001 50.1217C222.747 50.9863 223.717 51.6695 224.911 52.1653C226.106 52.6611 227.596 52.9029 229.377 52.9029C230.268 52.9029 231.203 52.8183 232.184 52.643C233.165 52.4737 234.068 52.262 234.897 52.0142C235.722 51.7663 236.461 51.5063 237.113 51.2342C237.764 50.9621 238.232 50.7021 238.513 50.4542L239.47 56.3251C238.566 56.9176 237.138 57.4981 235.193 58.0664C233.248 58.6408 231.011 58.925 228.486 58.925C226.107 58.925 223.981 58.5622 222.105 57.8487C220.226 57.1292 218.627 56.1135 217.31 54.8014C215.99 53.4894 214.954 51.9295 214.199 50.1217C213.444 48.3139 213.001 46.3186 212.866 44.136ZM269.018 58.405C268.737 57.8608 268.452 57.2502 268.163 56.5851C267.874 55.914 267.634 55.2065 267.437 54.4629C266.409 55.4544 265.007 56.446 263.236 57.4376C261.465 58.4292 259.243 58.925 256.568 58.925C254.388 58.925 252.498 58.5743 250.896 57.885C249.29 57.1897 247.955 56.2223 246.89 54.9828C245.823 53.7494 245.001 52.2862 244.429 50.5993C243.854 48.9185 243.504 47.0623 243.379 45.0308C243.175 41.7114 243.535 38.4707 244.452 35.2964C245.373 32.1282 246.871 29.3046 248.946 26.8257C251.025 24.3528 253.698 22.3455 256.971 20.8097C260.245 19.274 264.137 18.5061 268.644 18.5061C269.98 18.5061 271.549 18.6573 273.351 18.9535C275.153 19.2498 276.719 19.7456 278.05 20.4409L273.765 43.7671C273.584 44.9099 273.443 45.9982 273.334 47.0381C273.223 48.0781 273.205 49.1664 273.275 50.3031C273.346 51.4458 273.513 52.5946 273.784 53.7615C274.052 54.9224 274.477 56.1739 275.055 57.5101L269.018 58.405ZM257.619 53.0541C259.699 53.0541 261.455 52.6067 262.884 51.7179C264.317 50.8231 265.54 49.7831 266.556 48.598C266.556 47.7576 266.586 46.8749 266.653 45.9559C266.721 45.0429 266.827 44.1118 266.966 43.1746L270.291 24.7458C270.038 24.6491 269.622 24.5765 269.05 24.5221C268.479 24.4737 267.97 24.4495 267.522 24.4495C264.702 24.4495 262.184 24.9937 259.971 26.082C257.759 27.1764 255.904 28.6214 254.407 30.4292C252.907 32.237 251.8 34.3472 251.08 36.7475C250.36 39.1478 250.083 41.6631 250.244 44.2871C250.308 45.3271 250.473 46.3791 250.735 47.4432C251 48.5134 251.417 49.4506 251.987 50.2668C252.558 51.083 253.291 51.7542 254.191 52.2741C255.087 52.7941 256.231 53.0541 257.619 53.0541ZM311.684 50.3031C311.754 51.4458 311.925 52.5946 312.196 53.7615C312.464 54.9224 312.888 56.1739 313.466 57.5101L307.43 58.405C306.816 57.3167 306.314 55.9986 305.924 54.4629C304.893 55.4544 303.494 56.446 301.723 57.4376C299.949 58.4292 297.727 58.925 295.052 58.925C292.872 58.925 290.971 58.5864 289.346 57.9213C287.718 57.2502 286.347 56.3009 285.231 55.0614C284.115 53.822 283.256 52.3467 282.656 50.6417C282.055 48.9306 281.692 47.0623 281.567 45.0308C281.363 41.7114 281.723 38.4707 282.64 35.2964C283.56 32.1282 285.046 29.3046 287.098 26.8257C289.15 24.3528 291.787 22.3575 295.013 20.846C298.24 19.3345 302.057 18.5787 306.464 18.5787C307.009 18.5787 307.555 18.6089 308.105 18.6573C308.652 18.7056 309.225 18.7782 309.827 18.881L312.917 1.49212L320.051 0.307064L312.249 43.7671C312.072 44.9099 311.915 45.9982 311.782 47.0381C311.647 48.0781 311.614 49.1664 311.684 50.3031ZM296.103 53.0541C298.183 53.0541 299.927 52.6188 301.334 51.7542C302.744 50.8896 303.958 49.8859 304.976 48.7432C304.976 47.9511 305.011 47.0986 305.079 46.1796C305.146 45.2666 305.269 44.2629 305.45 43.1746L308.767 24.6007C308.316 24.4979 307.816 24.4374 307.271 24.4133C306.722 24.3891 306.201 24.377 305.706 24.377C302.885 24.377 300.367 24.9211 298.154 26.0095C295.942 27.0978 294.088 28.5609 292.593 30.3929C291.094 32.2249 289.988 34.3472 289.268 36.7475C288.548 39.1478 288.271 41.6631 288.432 44.2871C288.502 45.4298 288.693 46.5182 289.005 47.5581C289.317 48.5981 289.77 49.5231 290.364 50.3394C290.959 51.1616 291.731 51.8146 292.677 52.3104C293.624 52.8062 294.766 53.0541 296.103 53.0541ZM335.767 58.925C333.243 58.925 331.038 58.5622 329.165 57.8487C327.286 57.1292 325.689 56.1377 324.375 54.874C323.058 53.6103 322.051 52.1411 321.355 50.4542C320.656 48.7734 320.25 46.9898 320.134 45.1033C319.921 41.6389 320.235 38.2953 321.077 35.0727C321.919 31.8561 323.228 29.0084 325.007 26.5294C326.787 24.0565 329.018 22.0855 331.703 20.6223C334.386 19.1652 337.488 18.4336 341.003 18.4336C343.035 18.4336 344.795 18.6936 346.29 19.2135C347.783 19.7335 349.014 20.4409 349.985 21.3297C350.956 22.2185 351.702 23.2524 352.218 24.4133C352.737 25.5802 353.032 26.7773 353.108 28.0168C353.251 30.3446 352.952 32.3156 352.211 33.9239C351.466 35.5322 350.434 36.8805 349.116 37.9749C347.796 39.0632 346.224 39.9036 344.404 40.4961C342.585 41.0947 340.682 41.5663 338.696 41.911C336.71 42.2556 334.693 42.4914 332.648 42.6184C330.6 42.7393 328.663 42.8542 326.837 42.9509C326.81 43.3439 326.805 43.6704 326.821 43.9183L326.857 44.5108C326.927 45.6475 327.13 46.7298 327.464 47.7395C327.798 48.7553 328.361 49.6501 329.152 50.418C329.943 51.1858 331.008 51.7904 332.348 52.2379C333.687 52.6853 335.421 52.9029 337.552 52.9029C338.492 52.9029 339.467 52.8183 340.472 52.643C341.474 52.4737 342.428 52.25 343.327 51.9779C344.226 51.7058 345.026 51.4337 345.728 51.1616C346.428 50.8896 346.923 50.6296 347.204 50.3817L348.16 56.2465C347.203 56.7967 345.639 57.3771 343.473 57.9938C341.307 58.6106 338.739 58.925 335.767 58.925ZM327.404 37.6726C330.27 37.5758 332.882 37.3884 335.245 37.1163C337.604 36.8442 339.631 36.3726 341.322 35.7076C343.016 35.0364 344.309 34.1355 345.206 32.9928C346.101 31.8561 346.493 30.3688 346.38 28.5368C346.353 28.0893 346.236 27.6177 346.033 27.122C345.828 26.6322 345.503 26.1727 345.057 25.7495C344.611 25.3323 344.006 24.9816 343.249 24.7095C342.488 24.4374 341.561 24.3044 340.473 24.3044C338.741 24.3044 337.14 24.6732 335.674 25.4169C334.211 26.1606 332.92 27.1401 331.806 28.3493C330.693 29.5646 329.764 30.9794 329.02 32.5877C328.278 34.196 327.739 35.8889 327.404 37.6726ZM397.697 18.5061C399.874 18.5061 401.738 18.8387 403.291 19.5098C404.844 20.1809 406.112 21.0818 407.1 22.2185C408.087 23.3612 408.824 24.6853 409.313 26.1969C409.802 27.7084 410.1 29.3046 410.203 30.9855C410.271 32.0798 410.255 33.2528 410.161 34.5165C410.063 35.7801 409.903 37.0075 409.679 38.1925L406.14 57.9576H399.232L402.491 39.6799C402.666 38.5432 402.872 37.2675 403.108 35.8527C403.345 34.4439 403.419 33.0412 403.334 31.6566C403.276 30.7194 403.108 29.8004 402.829 28.9056C402.554 28.0168 402.135 27.2489 401.575 26.602C401.015 25.9611 400.252 25.4411 399.287 25.0421C398.32 24.6491 397.144 24.4495 395.759 24.4495C394.172 24.4495 392.655 24.7579 391.209 25.3806C389.76 25.9974 388.562 26.6322 387.61 27.2731C387.753 27.9684 387.882 28.6456 387.996 29.3167C388.113 29.9879 388.189 30.6408 388.229 31.2878C388.299 32.4245 388.282 33.5793 388.181 34.7402C388.078 35.9071 387.94 37.0559 387.762 38.1925L384.222 57.9576H377.315L380.574 39.6799C380.749 38.5432 380.945 37.2554 381.152 35.8164C381.36 34.3834 381.42 32.9444 381.332 31.5054C381.274 30.5683 381.118 29.6614 380.869 28.7968C380.619 27.9321 380.237 27.1764 379.725 26.5294C379.214 25.8885 378.554 25.3806 377.739 25.0058C376.922 24.637 375.894 24.4495 374.658 24.4495C373.418 24.4495 372.223 24.5221 371.068 24.6732C369.913 24.8244 368.946 25.0179 368.169 25.2658L362.305 57.9576H355.397L362.027 20.8097C364.212 20.1144 366.618 19.5582 369.243 19.141C371.866 18.7177 374.22 18.5061 376.3 18.5061C378.379 18.5061 380.158 18.8689 381.641 19.5823C383.121 20.3018 384.317 21.2571 385.233 22.4422C385.708 22.0976 386.363 21.6985 387.204 21.2571C388.041 20.8097 389.006 20.3865 390.098 19.9935C391.189 19.5944 392.38 19.2498 393.674 18.9535C394.967 18.6573 396.309 18.5061 397.697 18.5061ZM428.934 51.7179C430.631 48.7432 432.153 45.6596 433.492 42.4672C434.829 39.2748 435.992 36.2154 436.976 33.2891C437.96 30.3688 438.771 27.6842 439.415 25.2295C440.057 22.7808 440.504 20.8097 440.76 19.3224H447.967C447.536 21.2088 446.915 23.5486 446.095 26.342C445.276 29.1414 444.262 32.1645 443.05 35.4113C441.837 38.6521 440.457 41.9714 438.906 45.3633C437.356 48.7553 435.639 52.0142 433.751 55.134C432.307 57.4618 430.858 59.6565 429.401 61.7123C427.94 63.7619 426.353 65.5455 424.639 67.0571C422.924 68.5686 421.005 69.7597 418.878 70.6244C416.752 71.489 414.327 71.9243 411.603 71.9243C410.215 71.9243 408.917 71.7489 407.708 71.4043C406.498 71.0597 405.608 70.6848 405.039 70.2918L407.068 64.6447C407.588 65.0377 408.277 65.3763 409.137 65.6483C409.994 65.9204 410.946 66.0534 411.986 66.0534C414.858 66.0534 417.255 65.3642 419.174 63.9735C421.096 62.589 422.879 60.757 424.519 58.4775C422.318 52.4858 420.43 46.1675 418.861 39.5348C417.286 32.8961 416.167 26.1606 415.499 19.3224H422.558C422.743 21.5534 423.017 23.99 423.38 26.6443C423.739 29.2925 424.193 32.0436 424.74 34.8913C425.287 37.7391 425.91 40.5989 426.607 43.4709C427.304 46.3428 428.077 49.0938 428.934 51.7179Z" fill="#414652"/>
</g>
</g>
<defs>
<clipPath id="clip0_203_26">
<rect width="448" height="72" fill="white"/>
</clipPath>
</defs>
</svg>
