<svg width="257" height="38" viewBox="0 0 257 38" fill="none" xmlns="http://www.w3.org/2000/svg">
<g id="logo / partners product / smarttrader / white / wordmark">
<g id="wordmark">
<path d="M10.962 31.3794C12.0015 31.3794 12.852 31.3007 13.5135 31.1432C14.2065 30.9542 14.7577 30.7179 15.1672 30.4344C15.5767 30.1194 15.8602 29.7572 16.0177 29.3477C16.1752 28.9382 16.254 28.4814 16.254 27.9774C16.254 26.9064 15.75 26.0244 14.742 25.3314C13.734 24.6069 12.0015 23.8352 9.54447 23.0162C8.47348 22.6382 7.40248 22.2129 6.33148 21.7404C5.26048 21.2364 4.29974 20.6222 3.44924 19.8977C2.59874 19.1417 1.90574 18.2439 1.37025 17.2044C0.834748 16.1334 0.566998 14.8419 0.566998 13.33C0.566998 11.818 0.850498 10.4635 1.4175 9.26647C1.98449 8.03797 2.78774 6.99847 3.82724 6.14797C4.86674 5.29748 6.12673 4.65173 7.60723 4.21073C9.08772 3.73823 10.7572 3.50198 12.6157 3.50198C14.8207 3.50198 16.7265 3.73823 18.3329 4.21073C19.9394 4.68323 21.2624 5.20298 22.3019 5.76998L20.1757 11.5817C19.2622 11.1092 18.2384 10.6997 17.1045 10.3532C16.002 9.97521 14.6632 9.78621 13.0882 9.78621C11.3242 9.78621 10.0485 10.0382 9.26097 10.5422C8.50498 11.0147 8.12698 11.755 8.12698 12.763C8.12698 13.3615 8.26873 13.8655 8.55223 14.275C8.83573 14.6844 9.22947 15.0624 9.73347 15.4089C10.269 15.7239 10.8675 16.0232 11.529 16.3067C12.222 16.5587 12.978 16.8264 13.797 17.1099C15.498 17.7399 16.9785 18.3699 18.2384 18.9999C19.4984 19.5984 20.5379 20.3072 21.3569 21.1262C22.2074 21.9452 22.8374 22.9059 23.2469 24.0084C23.6564 25.1109 23.8612 26.4497 23.8612 28.0247C23.8612 31.0802 22.7902 33.4584 20.6482 35.1594C18.5062 36.8289 15.2775 37.6636 10.962 37.6636C9.51297 37.6636 8.20573 37.5691 7.04023 37.3801C5.87473 37.2226 4.83524 37.0179 3.92174 36.7659C3.03974 36.5139 2.26799 36.2461 1.6065 35.9626C0.976497 35.6791 0.440999 35.4114 0 35.1594L2.07899 29.3004C3.05549 29.8359 4.25249 30.3242 5.66998 30.7652C7.11898 31.1747 8.88297 31.3794 10.962 31.3794Z" fill="white"/>
<path d="M40.3529 23.8194C40.3529 21.5514 40.0536 19.9449 39.4551 18.9999C38.8881 18.0549 37.8959 17.5824 36.4784 17.5824C36.0374 17.5824 35.5806 17.6139 35.1081 17.6769C34.6356 17.7084 34.1789 17.7557 33.7379 17.8187V37.0021H26.6977V12.9992C27.2961 12.8417 27.9891 12.6842 28.7766 12.5267C29.5956 12.3377 30.4461 12.1802 31.3281 12.0542C32.2416 11.8967 33.1709 11.7865 34.1159 11.7235C35.0609 11.629 35.9901 11.5817 36.9036 11.5817C38.6991 11.5817 40.1481 11.818 41.2506 12.2905C42.3846 12.7315 43.3139 13.267 44.0383 13.897C45.0463 13.1725 46.1961 12.6055 47.4876 12.196C48.8106 11.7865 50.0233 11.5817 51.1258 11.5817C53.1103 11.5817 54.7326 11.8652 55.9926 12.4322C57.2841 12.9677 58.3078 13.7395 59.0638 14.7475C59.8198 15.7554 60.3396 16.9524 60.6231 18.3384C60.9066 19.7244 61.0483 21.2679 61.0483 22.9689V37.0021H54.0081V23.8194C54.0081 21.5514 53.7088 19.9449 53.1103 18.9999C52.5433 18.0549 51.5511 17.5824 50.1336 17.5824C49.7556 17.5824 49.2201 17.6769 48.5271 17.8659C47.8656 18.0549 47.3143 18.2912 46.8733 18.5747C47.0938 19.2992 47.2356 20.0709 47.2986 20.8899C47.3616 21.6774 47.3931 22.5279 47.3931 23.4414V37.0021H40.3529V23.8194Z" fill="white"/>
<path d="M74.5762 32.0882C75.2692 32.0882 75.9307 32.0724 76.5607 32.0409C77.1906 32.0094 77.6947 31.9621 78.0726 31.8991V26.5599C77.7891 26.4969 77.3639 26.4339 76.7969 26.3709C76.2299 26.3079 75.7102 26.2764 75.2377 26.2764C74.5762 26.2764 73.9462 26.3237 73.3477 26.4182C72.7807 26.4812 72.2767 26.6229 71.8357 26.8434C71.3947 27.0639 71.0482 27.3632 70.7962 27.7412C70.5442 28.1192 70.4182 28.5917 70.4182 29.1587C70.4182 30.2612 70.7804 31.0329 71.5049 31.4739C72.2609 31.8834 73.2847 32.0882 74.5762 32.0882ZM74.0092 11.4872C76.0882 11.4872 77.8206 11.7235 79.2066 12.196C80.5926 12.6685 81.6951 13.3457 82.5141 14.2277C83.3646 15.1097 83.9631 16.1807 84.3096 17.4407C84.6561 18.7007 84.8294 20.1024 84.8294 21.6459V36.2934C83.8214 36.5139 82.4196 36.7659 80.6241 37.0494C78.8286 37.3644 76.6552 37.5219 74.1037 37.5219C72.4972 37.5219 71.0324 37.3801 69.7094 37.0966C68.4179 36.8131 67.2997 36.3564 66.3547 35.7264C65.4097 35.0649 64.6852 34.2144 64.1812 33.1749C63.6772 32.1354 63.4252 30.8597 63.4252 29.3477C63.4252 27.8987 63.7087 26.6702 64.2757 25.6622C64.8742 24.6542 65.6617 23.8509 66.6382 23.2524C67.6147 22.6539 68.7329 22.2287 69.9929 21.9767C71.2529 21.6932 72.5602 21.5514 73.9147 21.5514C74.8282 21.5514 75.6314 21.5987 76.3244 21.6932C77.0489 21.7562 77.6316 21.8507 78.0726 21.9767V21.3152C78.0726 20.1182 77.7104 19.1574 76.9859 18.4329C76.2614 17.7084 75.0014 17.3462 73.2059 17.3462C72.0089 17.3462 70.8277 17.4407 69.6622 17.6297C68.4967 17.7872 67.4887 18.0234 66.6382 18.3384L65.7404 12.6685C66.1499 12.5425 66.6539 12.4165 67.2524 12.2905C67.8824 12.133 68.5597 12.007 69.2842 11.9125C70.0087 11.7865 70.7647 11.692 71.5522 11.629C72.3712 11.5345 73.1902 11.4872 74.0092 11.4872Z" fill="white"/>
<path d="M103.811 18.3857C103.181 18.2282 102.441 18.0707 101.591 17.9132C100.74 17.7242 99.8265 17.6297 98.85 17.6297C98.409 17.6297 97.8735 17.6769 97.2435 17.7714C96.645 17.8344 96.1883 17.9132 95.8733 18.0077V37.0021H88.8331V13.4717C90.0931 13.0307 91.5736 12.6212 93.2745 12.2432C95.007 11.8337 96.9285 11.629 99.039 11.629C99.417 11.629 99.8738 11.6605 100.409 11.7235C100.945 11.755 101.48 11.818 102.016 11.9125C102.551 11.9755 103.087 12.07 103.622 12.196C104.158 12.2905 104.615 12.4165 104.993 12.574L103.811 18.3857Z" fill="white"/>
<path d="M106.168 5.95898L113.208 4.82498V12.1487H121.666V18.0077H113.208V26.7489C113.208 28.2294 113.46 29.4107 113.964 30.2927C114.5 31.1747 115.555 31.6157 117.13 31.6157C117.886 31.6157 118.658 31.5527 119.445 31.4267C120.264 31.2692 121.004 31.0644 121.666 30.8124L122.658 36.2934C121.808 36.6399 120.863 36.9391 119.823 37.1911C118.784 37.4431 117.508 37.5691 115.996 37.5691C114.074 37.5691 112.484 37.3171 111.224 36.8131C109.964 36.2776 108.956 35.5531 108.2 34.6396C107.444 33.6946 106.908 32.5606 106.593 31.2377C106.31 29.9147 106.168 28.4499 106.168 26.8434V5.95898Z" fill="white"/>
<path d="M149.795 4.25798V10.5422H139.92V37.0021H132.549V10.5422H122.674V4.25798H149.795Z" fill="white"/>
<path d="M163.4 18.3857C162.77 18.2282 162.029 18.0707 161.179 17.9132C160.328 17.7242 159.415 17.6297 158.438 17.6297C157.997 17.6297 157.462 17.6769 156.832 17.7714C156.233 17.8344 155.777 17.9132 155.462 18.0077V37.0021H148.421V13.4717C149.681 13.0307 151.162 12.6212 152.863 12.2432C154.595 11.8337 156.517 11.629 158.627 11.629C159.005 11.629 159.462 11.6605 159.998 11.7235C160.533 11.755 161.069 11.818 161.604 11.9125C162.14 11.9755 162.675 12.07 163.211 12.196C163.746 12.2905 164.203 12.4165 164.581 12.574L163.4 18.3857Z" fill="white"/>
<path d="M175.028 32.0882C175.721 32.0882 176.383 32.0724 177.013 32.0409C177.643 32.0094 178.147 31.9621 178.525 31.8991V26.5599C178.241 26.4969 177.816 26.4339 177.249 26.3709C176.682 26.3079 176.162 26.2764 175.69 26.2764C175.028 26.2764 174.398 26.3237 173.8 26.4182C173.233 26.4812 172.729 26.6229 172.288 26.8434C171.847 27.0639 171.5 27.3632 171.248 27.7412C170.996 28.1192 170.87 28.5917 170.87 29.1587C170.87 30.2612 171.233 31.0329 171.957 31.4739C172.713 31.8834 173.737 32.0882 175.028 32.0882ZM174.461 11.4872C176.54 11.4872 178.273 11.7235 179.659 12.196C181.045 12.6685 182.147 13.3457 182.966 14.2277C183.817 15.1097 184.415 16.1807 184.762 17.4407C185.108 18.7007 185.281 20.1024 185.281 21.6459V36.2934C184.273 36.5139 182.872 36.7659 181.076 37.0494C179.281 37.3644 177.107 37.5219 174.556 37.5219C172.949 37.5219 171.485 37.3801 170.162 37.0966C168.87 36.8131 167.752 36.3564 166.807 35.7264C165.862 35.0649 165.137 34.2144 164.633 33.1749C164.129 32.1354 163.877 30.8597 163.877 29.3477C163.877 27.8987 164.161 26.6702 164.728 25.6622C165.326 24.6542 166.114 23.8509 167.09 23.2524C168.067 22.6539 169.185 22.2287 170.445 21.9767C171.705 21.6932 173.012 21.5514 174.367 21.5514C175.28 21.5514 176.083 21.5987 176.777 21.6932C177.501 21.7562 178.084 21.8507 178.525 21.9767V21.3152C178.525 20.1182 178.163 19.1574 177.438 18.4329C176.714 17.7084 175.454 17.3462 173.658 17.3462C172.461 17.3462 171.28 17.4407 170.114 17.6297C168.949 17.7872 167.941 18.0234 167.09 18.3384L166.193 12.6685C166.602 12.5425 167.106 12.4165 167.705 12.2905C168.335 12.133 169.012 12.007 169.736 11.9125C170.461 11.7865 171.217 11.692 172.004 11.629C172.823 11.5345 173.642 11.4872 174.461 11.4872Z" fill="white"/>
<path d="M195.286 24.3864C195.286 26.5599 195.774 28.3082 196.751 29.6312C197.727 30.9542 199.176 31.6157 201.098 31.6157C201.728 31.6157 202.31 31.5999 202.846 31.5684C203.381 31.5054 203.822 31.4424 204.169 31.3794V18.5747C203.728 18.2912 203.145 18.0549 202.421 17.8659C201.728 17.6769 201.019 17.5824 200.294 17.5824C196.955 17.5824 195.286 19.8504 195.286 24.3864ZM211.209 36.1989C210.579 36.3879 209.855 36.5769 209.036 36.7659C208.217 36.9234 207.35 37.0651 206.437 37.1911C205.555 37.3171 204.641 37.4116 203.696 37.4746C202.783 37.5691 201.901 37.6164 201.05 37.6164C199.003 37.6164 197.176 37.3171 195.569 36.7186C193.963 36.1201 192.608 35.2696 191.506 34.1671C190.403 33.0331 189.553 31.6787 188.954 30.1037C188.387 28.4972 188.104 26.7017 188.104 24.7172C188.104 22.7012 188.356 20.8899 188.86 19.2834C189.364 17.6454 190.088 16.2594 191.033 15.1254C191.978 13.9915 193.128 13.1252 194.483 12.5267C195.869 11.9282 197.444 11.629 199.208 11.629C200.184 11.629 201.05 11.7235 201.806 11.9125C202.594 12.1015 203.381 12.3692 204.169 12.7157V1.47024L211.209 0.336241V36.1989Z" fill="white"/>
<path d="M214.257 24.7644C214.257 22.5594 214.588 20.6379 215.25 18.9999C215.943 17.3304 216.84 15.9444 217.943 14.8419C219.045 13.7395 220.305 12.9047 221.723 12.3377C223.172 11.7707 224.652 11.4872 226.164 11.4872C229.692 11.4872 232.48 12.574 234.528 14.7475C236.575 16.8894 237.599 20.0552 237.599 24.2447C237.599 24.6542 237.583 25.1109 237.552 25.6149C237.52 26.0874 237.489 26.5127 237.457 26.8907H221.487C221.644 28.3397 222.321 29.4894 223.518 30.3399C224.715 31.1904 226.322 31.6157 228.338 31.6157C229.629 31.6157 230.889 31.5054 232.118 31.2849C233.378 31.0329 234.402 30.7337 235.189 30.3872L236.134 36.1044C235.756 36.2934 235.252 36.4824 234.622 36.6714C233.992 36.8604 233.283 37.0179 232.496 37.1439C231.74 37.3014 230.921 37.4274 230.039 37.5219C229.157 37.6164 228.275 37.6636 227.393 37.6636C225.156 37.6636 223.203 37.3329 221.534 36.6714C219.896 36.0099 218.526 35.1121 217.423 33.9781C216.352 32.8126 215.549 31.4424 215.013 29.8674C214.509 28.2924 214.257 26.5914 214.257 24.7644ZM230.795 22.0712C230.763 21.4727 230.653 20.8899 230.464 20.3229C230.307 19.7559 230.039 19.2519 229.661 18.8109C229.314 18.3699 228.858 18.0077 228.291 17.7242C227.755 17.4407 227.078 17.2989 226.259 17.2989C225.471 17.2989 224.794 17.4407 224.227 17.7242C223.66 17.9762 223.188 18.3227 222.81 18.7637C222.432 19.2047 222.132 19.7244 221.912 20.3229C221.723 20.8899 221.581 21.4727 221.487 22.0712H230.795Z" fill="white"/>
<path d="M255.648 18.3857C255.018 18.2282 254.277 18.0707 253.427 17.9132C252.576 17.7242 251.663 17.6297 250.686 17.6297C250.245 17.6297 249.71 17.6769 249.08 17.7714C248.481 17.8344 248.025 17.9132 247.71 18.0077V37.0021H240.669V13.4717C241.929 13.0307 243.41 12.6212 245.111 12.2432C246.843 11.8337 248.765 11.629 250.875 11.629C251.253 11.629 251.71 11.6605 252.246 11.7235C252.781 11.755 253.317 11.818 253.852 11.9125C254.388 11.9755 254.923 12.07 255.459 12.196C255.994 12.2905 256.451 12.4165 256.829 12.574L255.648 18.3857Z" fill="white"/>
</g>
</g>
</svg>
