<svg width="128" height="80" viewBox="0 0 128 80" fill="none" xmlns="http://www.w3.org/2000/svg">
<g id="logo / payment method / moneygram / white">
<g id="logo">
<path fill-rule="evenodd" clip-rule="evenodd" d="M46.1298 33.7239H45.4963C44.8795 33.7239 44.6128 33.9152 44.1908 34.6233L40.8067 40.3746L39.4028 34.682C39.2326 34.0029 39.051 33.7239 38.3482 33.7239H37.8147C37.1269 33.7239 36.6768 34.1512 36.5513 34.9189L34.9773 44.1816C34.8632 44.8765 35.1597 45.2432 35.7362 45.2432H35.9731C36.5785 45.2432 36.8461 44.9344 36.9575 44.2395L38.221 36.7465L39.4432 41.7617C39.5423 42.2627 39.6415 42.6032 40.554 42.6032C41.3261 42.6032 41.5086 42.3224 41.7762 41.8521L44.7663 36.6878L43.5029 44.1816C43.3888 44.8888 43.6854 45.2432 44.2478 45.2432H44.5005C45.105 45.2432 45.3709 44.9186 45.4832 44.2395L47.0572 34.9479C47.1827 34.21 46.8466 33.7239 46.1298 33.7239ZM51.1494 43.6087C49.8044 43.6087 48.9638 42.6084 48.9182 41.2537C48.8603 39.5033 49.9772 37.9442 51.5784 37.9442C52.8077 37.9442 53.7807 38.9444 53.8228 40.3132C53.8799 42.168 52.7506 43.6087 51.1494 43.6087ZM55.6417 40.2254C55.568 37.9854 54.0817 36.3254 51.5916 36.3254C48.7462 36.3254 47.0011 38.7093 47.0862 41.3266C47.1739 43.7113 48.7752 45.2432 51.1336 45.2432C54.0536 45.2432 55.7259 42.8453 55.6417 40.2254ZM62.1054 36.3254C60.9262 36.3254 59.99 36.9133 59.3776 37.903C59.4355 36.7834 58.824 36.4553 58.1984 36.4553C57.9018 36.4553 57.6737 36.5254 57.6579 36.5684L56.3813 43.8964C56.2532 44.658 56.6787 44.8721 57.2175 44.8721H57.4465C58.0422 44.8721 58.2844 44.6282 58.4125 43.8964L59.1784 39.4937C59.7338 38.5198 60.3436 38.0609 61.2824 38.0609C62.2335 38.0609 62.788 38.6338 62.8152 39.5805C62.8293 39.8244 62.7731 40.1386 62.717 40.4992L62.1195 43.8964C61.9922 44.658 62.4178 44.8721 62.9583 44.8721H63.1855C63.7821 44.8721 64.0234 44.6282 64.1506 43.8964L64.8043 40.1552C64.8745 39.7367 64.9315 39.3638 64.9184 39.0357C64.8613 37.4432 63.8251 36.3254 62.1054 36.3254ZM97.7768 36.3254C96.8406 36.3254 96.151 36.8834 95.6693 37.903C95.7377 36.7834 95.1481 36.4553 94.5427 36.4553C94.2383 36.4553 94.0338 36.5254 94.0181 36.5684L92.766 43.8964C92.6432 44.658 93.1231 44.8721 93.6478 44.8721H93.8671C94.3637 44.8721 94.6112 44.6282 94.7358 43.8964L95.1481 41.445C95.4658 39.5384 96.1387 38.2021 97.239 38.2021C97.7768 38.2021 98.1076 38.4338 98.3427 38.6909C98.369 38.7198 99.1938 38.3899 99.1675 37.3713C99.1412 36.7404 98.534 36.3254 97.7768 36.3254ZM102.622 43.6087C101.38 43.6087 100.66 42.7839 100.66 41.3266C100.66 39.6218 101.618 37.9135 103.397 37.9135C104.838 37.9135 105.447 39.0172 105.447 40.2386C105.447 41.7705 104.456 43.6087 102.622 43.6087ZM107.364 36.4579C106.574 36.4579 106.138 36.8553 105.883 37.9003C105.374 36.9133 104.342 36.3254 103.146 36.3254C100.591 36.3254 98.8113 38.6944 98.8113 41.388C98.8113 43.6087 100.123 45.2432 102.183 45.2432C103.44 45.2432 104.416 44.6966 105.035 43.6087C104.95 44.7422 105.164 45.0958 105.94 45.0958C106.646 45.0958 106.871 44.83 106.942 44.0202C107.039 42.5338 107.521 40.107 108.086 36.7062C108.099 36.6474 107.775 36.4579 107.364 36.4579ZM119.372 36.3254C117.996 36.3254 117.078 37.0554 116.436 38.1162C116.118 36.9984 115.183 36.3254 113.988 36.3254C112.944 36.3254 112.026 36.8413 111.4 37.8021C111.428 36.7694 110.843 36.4544 110.245 36.4544C109.953 36.4544 109.744 36.5246 109.716 36.5684L108.466 43.8964C108.34 44.658 108.757 44.8721 109.285 44.8721H109.508C110.009 44.8721 110.331 44.658 110.455 43.8964L111.233 39.3507C111.803 38.4461 112.333 38.0609 113.18 38.0609C114.002 38.0609 114.517 38.6909 114.517 39.6525C114.517 39.8104 114.502 39.9824 114.476 40.1552L113.851 43.8964C113.723 44.658 114.155 44.8721 114.671 44.8721H114.878C115.392 44.8721 115.714 44.6422 115.84 43.8964L116.618 39.3507C117.188 38.4461 117.732 38.0609 118.566 38.0609C119.359 38.0609 119.942 38.5619 119.942 39.5805C119.942 39.8244 119.901 40.1386 119.845 40.4992L119.26 43.8964C119.137 44.658 119.552 44.8721 120.081 44.8721H120.305C120.89 44.8721 121.123 44.6282 121.248 43.8964L121.888 40.1552C121.959 39.7367 122 39.3638 122 39.0357C122 37.3713 120.917 36.3254 119.372 36.3254ZM72.0928 39.8315H67.5874C68.0156 38.6145 69.0167 37.867 70.2915 37.867C70.9285 37.867 71.4286 38.0583 71.748 38.4382C72.0209 38.7751 72.1349 39.2454 72.0928 39.8315ZM73.8388 40.1122C73.8388 38.9523 73.6195 38.1741 73.1176 37.4994C72.578 36.7659 71.5795 36.3254 70.4161 36.3254C66.8951 36.3254 65.6343 39.0699 65.6343 41.4617C65.6343 43.735 67.1847 45.2432 69.5694 45.2432C71.9542 45.2432 73.2984 44.1175 73.2984 43.2226C73.2984 42.6198 72.8974 42.4136 72.4385 42.3707C71.8173 43.2226 70.9417 43.6315 69.7651 43.6315C68.7236 43.6315 67.4786 43.2077 67.3961 41.2406H72.8123C73.3949 41.2406 73.8388 40.8887 73.8388 40.1122ZM91.1674 38.747H87.878C87.4858 38.747 87.3007 38.8339 87.1735 38.9664C86.9752 39.1831 86.8752 39.6753 86.8752 39.8929C86.8875 40.2412 87.1858 40.443 87.7113 40.443H90.047C89.7206 42.1118 88.6879 43.2726 86.9041 43.2726C85.0353 43.2726 83.7727 42.053 83.7016 39.9824C83.6165 37.3704 85.3029 35.2243 87.6964 35.2243C89.0967 35.2243 90.1882 35.992 90.6436 37.0071C90.6997 37.0791 92.0018 37.0791 91.9597 35.9481C91.9465 35.5428 91.7201 35.0637 91.2929 34.6583C90.5997 33.9617 89.3117 33.3528 87.5981 33.3528C85.1906 33.3528 83.291 34.7163 82.3013 36.6737C82.3013 36.6597 82.2855 36.6597 82.2855 36.6597C82.0881 36.3973 81.7617 36.2675 81.4494 36.2675C80.9115 36.2675 80.572 36.4421 80.049 37.3704L77.4853 41.9662L76.5202 37.3827C76.3385 36.5272 76.0376 36.2675 75.5015 36.2675C74.8794 36.2675 74.3688 36.7308 74.3969 36.8466L76.2245 44.2597L74.3118 47.4201C74.1152 47.7666 74.0985 48.2167 74.8233 48.2167H75.2199C75.9683 48.2167 76.2104 47.7517 76.5789 47.1138L81.7345 38.1951C81.5742 38.8403 81.5072 39.5051 81.5353 40.1693C81.6345 43.1708 83.6025 44.9677 86.4944 44.9677C87.8666 44.9677 88.9572 44.4325 89.5661 43.6192C89.5223 44.4887 89.9768 44.8388 90.5866 44.8388C90.927 44.8388 91.1674 44.7229 91.1674 44.665L92.0018 39.8639C92.1299 39.1243 91.8597 38.747 91.1674 38.747Z" fill="white"/>
<path fill-rule="evenodd" clip-rule="evenodd" d="M30.5671 39.9998C30.5671 46.7839 25.0676 52.2834 18.2835 52.2834C11.4995 52.2834 6 46.7839 6 39.9998C6 38.131 6.41676 36.3604 7.1643 34.7741C6.66682 36.034 6.44308 37.2817 6.44308 38.4504C6.44308 44.0122 10.9336 44.8176 12.8446 44.7992C15.7487 44.7729 19.1443 43.3497 22.0046 40.714L21.522 43.4261C21.4141 44.0464 21.8194 44.5921 22.4389 44.5956H22.6951C23.3373 44.5956 23.7936 44.0727 23.9094 43.4261L24.9395 37.63C25.0623 36.9869 24.6394 36.4631 23.9963 36.4631H18.1897C17.5439 36.4631 16.9534 36.8052 16.8385 37.4536L16.7928 37.7151C16.7007 38.3319 17.1306 38.7969 17.7466 38.7969H20.7753C20.7266 38.8438 20.6783 38.8912 20.6306 38.9391C18.5424 40.9158 15.9672 41.9977 13.8334 41.9977C11.7039 41.9977 9.31919 40.6544 9.31919 37.6282C9.31919 31.3549 15.203 27.7163 18.2835 27.7163C25.0535 27.7163 30.5671 33.2158 30.5671 39.9998Z" fill="white"/>
</g>
</g>
</svg>
