<svg width="128" height="80" viewBox="0 0 128 80" fill="none" xmlns="http://www.w3.org/2000/svg">
<g id="logo / payment method / local payment methods / brand-dark">
<g id="wordmark">
<path d="M69.924 33V24.624H71.748V31.38H74.94V33H69.924Z" fill="white"/>
<path d="M78.6301 33.144C78.1661 33.144 77.7501 33.068 77.3821 32.916C77.0221 32.764 76.7141 32.544 76.4581 32.256C76.2101 31.968 76.0181 31.62 75.8821 31.212C75.7461 30.804 75.6781 30.348 75.6781 29.844C75.6781 29.34 75.7461 28.884 75.8821 28.476C76.0181 28.068 76.2101 27.724 76.4581 27.444C76.7141 27.156 77.0221 26.936 77.3821 26.784C77.7501 26.632 78.1661 26.556 78.6301 26.556C79.0941 26.556 79.5061 26.632 79.8661 26.784C80.2341 26.936 80.5421 27.156 80.7901 27.444C81.0461 27.724 81.2421 28.068 81.3781 28.476C81.5141 28.884 81.5821 29.34 81.5821 29.844C81.5821 30.348 81.5141 30.804 81.3781 31.212C81.2421 31.62 81.0461 31.968 80.7901 32.256C80.5421 32.544 80.2341 32.764 79.8661 32.916C79.5061 33.068 79.0941 33.144 78.6301 33.144ZM78.6301 31.74C78.9821 31.74 79.2541 31.632 79.4461 31.416C79.6381 31.2 79.7341 30.892 79.7341 30.492V29.208C79.7341 28.808 79.6381 28.5 79.4461 28.284C79.2541 28.068 78.9821 27.96 78.6301 27.96C78.2781 27.96 78.0061 28.068 77.8141 28.284C77.6221 28.5 77.5261 28.808 77.5261 29.208V30.492C77.5261 30.892 77.6221 31.2 77.8141 31.416C78.0061 31.632 78.2781 31.74 78.6301 31.74Z" fill="white"/>
<path d="M85.3915 33.144C84.9195 33.144 84.4995 33.068 84.1315 32.916C83.7635 32.756 83.4555 32.536 83.2075 32.256C82.9595 31.968 82.7715 31.62 82.6435 31.212C82.5155 30.804 82.4515 30.348 82.4515 29.844C82.4515 29.34 82.5155 28.888 82.6435 28.488C82.7715 28.08 82.9595 27.732 83.2075 27.444C83.4555 27.156 83.7635 26.936 84.1315 26.784C84.4995 26.632 84.9195 26.556 85.3915 26.556C86.0315 26.556 86.5635 26.7 86.9875 26.988C87.4195 27.276 87.7275 27.68 87.9115 28.2L86.4715 28.824C86.4155 28.584 86.2995 28.38 86.1235 28.212C85.9475 28.044 85.7035 27.96 85.3915 27.96C85.0315 27.96 84.7595 28.08 84.5755 28.32C84.3915 28.552 84.2995 28.868 84.2995 29.268V30.444C84.2995 30.844 84.3915 31.16 84.5755 31.392C84.7595 31.624 85.0315 31.74 85.3915 31.74C85.7115 31.74 85.9635 31.656 86.1475 31.488C86.3395 31.312 86.4795 31.084 86.5675 30.804L87.9475 31.404C87.7395 32.004 87.4155 32.444 86.9755 32.724C86.5435 33.004 86.0155 33.144 85.3915 33.144Z" fill="white"/>
<path d="M93.7028 33C93.3828 33 93.1148 32.9 92.8988 32.7C92.6908 32.5 92.5588 32.232 92.5028 31.896H92.4308C92.3348 32.304 92.1228 32.616 91.7948 32.832C91.4668 33.04 91.0628 33.144 90.5828 33.144C89.9508 33.144 89.4668 32.976 89.1308 32.64C88.7948 32.304 88.6268 31.86 88.6268 31.308C88.6268 30.644 88.8668 30.152 89.3468 29.832C89.8348 29.504 90.4948 29.34 91.3268 29.34H92.3228V28.944C92.3228 28.64 92.2428 28.4 92.0828 28.224C91.9228 28.04 91.6548 27.948 91.2788 27.948C90.9268 27.948 90.6468 28.024 90.4388 28.176C90.2308 28.328 90.0588 28.5 89.9228 28.692L88.8668 27.756C89.1228 27.38 89.4428 27.088 89.8268 26.88C90.2188 26.664 90.7468 26.556 91.4108 26.556C92.3068 26.556 92.9788 26.752 93.4268 27.144C93.8748 27.536 94.0988 28.108 94.0988 28.86V31.62H94.6868V33H93.7028ZM91.2428 31.908C91.5388 31.908 91.7908 31.844 91.9988 31.716C92.2148 31.588 92.3228 31.38 92.3228 31.092V30.348H91.4588C90.7628 30.348 90.4148 30.584 90.4148 31.056V31.236C90.4148 31.468 90.4868 31.64 90.6308 31.752C90.7748 31.856 90.9788 31.908 91.2428 31.908Z" fill="white"/>
<path d="M97.6428 33C97.0348 33 96.5868 32.852 96.2988 32.556C96.0188 32.26 95.8788 31.832 95.8788 31.272V24.12H97.6548V31.62H98.4468V33H97.6428Z" fill="white"/>
<path d="M69.924 45V36.624H73.884C74.276 36.624 74.628 36.692 74.94 36.828C75.252 36.956 75.516 37.136 75.732 37.368C75.956 37.6 76.128 37.884 76.248 38.22C76.368 38.548 76.428 38.908 76.428 39.3C76.428 39.7 76.368 40.064 76.248 40.392C76.128 40.72 75.956 41 75.732 41.232C75.516 41.464 75.252 41.648 74.94 41.784C74.628 41.912 74.276 41.976 73.884 41.976H71.748V45H69.924ZM71.748 40.392H73.668C73.94 40.392 74.152 40.324 74.304 40.188C74.464 40.044 74.544 39.836 74.544 39.564V39.036C74.544 38.764 74.464 38.56 74.304 38.424C74.152 38.28 73.94 38.208 73.668 38.208H71.748V40.392Z" fill="white"/>
<path d="M82.1832 45C81.8632 45 81.5952 44.9 81.3792 44.7C81.1712 44.5 81.0392 44.232 80.9832 43.896H80.9112C80.8152 44.304 80.6032 44.616 80.2752 44.832C79.9472 45.04 79.5432 45.144 79.0632 45.144C78.4312 45.144 77.9472 44.976 77.6112 44.64C77.2752 44.304 77.1072 43.86 77.1072 43.308C77.1072 42.644 77.3472 42.152 77.8272 41.832C78.3152 41.504 78.9752 41.34 79.8072 41.34H80.8032V40.944C80.8032 40.64 80.7232 40.4 80.5632 40.224C80.4032 40.04 80.1352 39.948 79.7592 39.948C79.4072 39.948 79.1272 40.024 78.9192 40.176C78.7112 40.328 78.5392 40.5 78.4032 40.692L77.3472 39.756C77.6032 39.38 77.9232 39.088 78.3072 38.88C78.6992 38.664 79.2272 38.556 79.8912 38.556C80.7872 38.556 81.4592 38.752 81.9072 39.144C82.3552 39.536 82.5792 40.108 82.5792 40.86V43.62H83.1672V45H82.1832ZM79.7232 43.908C80.0192 43.908 80.2712 43.844 80.4792 43.716C80.6952 43.588 80.8032 43.38 80.8032 43.092V42.348H79.9392C79.2432 42.348 78.8952 42.584 78.8952 43.056V43.236C78.8952 43.468 78.9672 43.64 79.1112 43.752C79.2552 43.856 79.4592 43.908 79.7232 43.908Z" fill="white"/>
<path d="M88.1058 38.7H89.7618L87.3378 45.972C87.1778 46.46 86.9498 46.82 86.6538 47.052C86.3658 47.284 85.9498 47.4 85.4058 47.4H84.3018V46.02H85.4898L85.7058 45.324L83.4978 38.7H85.2618L86.1858 41.64L86.6418 43.464H86.7138L87.1818 41.64L88.1058 38.7Z" fill="white"/>
<path d="M90.6639 45V38.7H92.4399V39.768H92.5119C92.6239 39.432 92.8159 39.148 93.0879 38.916C93.3599 38.676 93.7319 38.556 94.2039 38.556C94.6359 38.556 95.0039 38.664 95.3079 38.88C95.6119 39.096 95.8319 39.412 95.9679 39.828H96.0039C96.0599 39.652 96.1439 39.488 96.2559 39.336C96.3759 39.176 96.5199 39.04 96.6879 38.928C96.8559 38.816 97.0439 38.728 97.2519 38.664C97.4599 38.592 97.6839 38.556 97.9239 38.556C98.5319 38.556 98.9959 38.772 99.3159 39.204C99.6439 39.636 99.8079 40.252 99.8079 41.052V45H98.0319V41.196C98.0319 40.396 97.7439 39.996 97.1679 39.996C96.9039 39.996 96.6639 40.072 96.4479 40.224C96.2319 40.376 96.1239 40.608 96.1239 40.92V45H94.3479V41.196C94.3479 40.396 94.0599 39.996 93.4839 39.996C93.3559 39.996 93.2279 40.016 93.0999 40.056C92.9799 40.088 92.8679 40.144 92.7639 40.224C92.6679 40.304 92.5879 40.404 92.5239 40.524C92.4679 40.636 92.4399 40.768 92.4399 40.92V45H90.6639Z" fill="white"/>
<path d="M104.015 45.144C103.535 45.144 103.107 45.068 102.731 44.916C102.355 44.756 102.035 44.536 101.771 44.256C101.515 43.968 101.319 43.62 101.183 43.212C101.055 42.804 100.991 42.348 100.991 41.844C100.991 41.348 101.055 40.9 101.183 40.5C101.311 40.092 101.499 39.744 101.747 39.456C102.003 39.168 102.315 38.948 102.683 38.796C103.051 38.636 103.471 38.556 103.943 38.556C104.463 38.556 104.907 38.644 105.275 38.82C105.651 38.996 105.955 39.232 106.187 39.528C106.427 39.824 106.599 40.168 106.703 40.56C106.815 40.944 106.871 41.348 106.871 41.772V42.3H102.827V42.396C102.827 42.812 102.939 43.144 103.163 43.392C103.387 43.632 103.739 43.752 104.219 43.752C104.587 43.752 104.887 43.68 105.119 43.536C105.351 43.384 105.567 43.204 105.767 42.996L106.655 44.1C106.375 44.428 106.007 44.684 105.551 44.868C105.103 45.052 104.591 45.144 104.015 45.144ZM103.979 39.864C103.619 39.864 103.335 39.984 103.127 40.224C102.927 40.456 102.827 40.768 102.827 41.16V41.256H105.035V41.148C105.035 40.764 104.947 40.456 104.771 40.224C104.603 39.984 104.339 39.864 103.979 39.864Z" fill="white"/>
<path d="M108.125 45V38.7H109.901V39.768H109.973C110.085 39.44 110.281 39.156 110.561 38.916C110.841 38.676 111.229 38.556 111.725 38.556C112.373 38.556 112.861 38.772 113.189 39.204C113.525 39.636 113.693 40.252 113.693 41.052V45H111.917V41.196C111.917 40.788 111.853 40.488 111.725 40.296C111.597 40.096 111.369 39.996 111.041 39.996C110.897 39.996 110.757 40.016 110.621 40.056C110.485 40.088 110.361 40.144 110.249 40.224C110.145 40.304 110.061 40.404 109.997 40.524C109.933 40.636 109.901 40.768 109.901 40.92V45H108.125Z" fill="white"/>
<path d="M117.481 45C116.865 45 116.397 44.844 116.077 44.532C115.765 44.22 115.609 43.764 115.609 43.164V40.08H114.721V38.7H115.165C115.405 38.7 115.569 38.644 115.657 38.532C115.745 38.412 115.789 38.244 115.789 38.028V36.996H117.385V38.7H118.633V40.08H117.385V43.62H118.537V45H117.481Z" fill="white"/>
<path d="M76.188 51.504H76.152L75.54 52.728L73.908 55.692L72.312 52.74L71.676 51.42H71.64V57H69.924V48.624H71.856L73.908 52.548H73.932L75.96 48.624H77.904V57H76.188V51.504Z" fill="white"/>
<path d="M82.288 57.144C81.808 57.144 81.38 57.068 81.004 56.916C80.628 56.756 80.308 56.536 80.044 56.256C79.788 55.968 79.592 55.62 79.456 55.212C79.328 54.804 79.264 54.348 79.264 53.844C79.264 53.348 79.328 52.9 79.456 52.5C79.584 52.092 79.772 51.744 80.02 51.456C80.276 51.168 80.588 50.948 80.956 50.796C81.324 50.636 81.744 50.556 82.216 50.556C82.736 50.556 83.18 50.644 83.548 50.82C83.924 50.996 84.228 51.232 84.46 51.528C84.7 51.824 84.872 52.168 84.976 52.56C85.088 52.944 85.144 53.348 85.144 53.772V54.3H81.1V54.396C81.1 54.812 81.212 55.144 81.436 55.392C81.66 55.632 82.012 55.752 82.492 55.752C82.86 55.752 83.16 55.68 83.392 55.536C83.624 55.384 83.84 55.204 84.04 54.996L84.928 56.1C84.648 56.428 84.28 56.684 83.824 56.868C83.376 57.052 82.864 57.144 82.288 57.144ZM82.252 51.864C81.892 51.864 81.608 51.984 81.4 52.224C81.2 52.456 81.1 52.768 81.1 53.16V53.256H83.308V53.148C83.308 52.764 83.22 52.456 83.044 52.224C82.876 51.984 82.612 51.864 82.252 51.864Z" fill="white"/>
<path d="M88.6063 57C87.9903 57 87.5223 56.844 87.2023 56.532C86.8903 56.22 86.7343 55.764 86.7343 55.164V52.08H85.8463V50.7H86.2903C86.5303 50.7 86.6943 50.644 86.7823 50.532C86.8703 50.412 86.9143 50.244 86.9143 50.028V48.996H88.5103V50.7H89.7583V52.08H88.5103V55.62H89.6623V57H88.6063Z" fill="white"/>
<path d="M90.9921 48.12H92.7681V51.768H92.8401C92.9521 51.44 93.1481 51.156 93.4281 50.916C93.7081 50.676 94.0961 50.556 94.5921 50.556C95.2401 50.556 95.7281 50.772 96.0561 51.204C96.3921 51.636 96.5601 52.252 96.5601 53.052V57H94.7841V53.196C94.7841 52.788 94.7201 52.488 94.5921 52.296C94.4641 52.096 94.2361 51.996 93.9081 51.996C93.7641 51.996 93.6241 52.016 93.4881 52.056C93.3521 52.088 93.2281 52.144 93.1161 52.224C93.0121 52.304 92.9281 52.404 92.8641 52.524C92.8001 52.636 92.7681 52.768 92.7681 52.92V57H90.9921V48.12Z" fill="white"/>
<path d="M100.697 57.144C100.233 57.144 99.8165 57.068 99.4485 56.916C99.0885 56.764 98.7805 56.544 98.5245 56.256C98.2765 55.968 98.0845 55.62 97.9485 55.212C97.8125 54.804 97.7445 54.348 97.7445 53.844C97.7445 53.34 97.8125 52.884 97.9485 52.476C98.0845 52.068 98.2765 51.724 98.5245 51.444C98.7805 51.156 99.0885 50.936 99.4485 50.784C99.8165 50.632 100.233 50.556 100.697 50.556C101.161 50.556 101.573 50.632 101.933 50.784C102.301 50.936 102.609 51.156 102.857 51.444C103.113 51.724 103.309 52.068 103.445 52.476C103.581 52.884 103.649 53.34 103.649 53.844C103.649 54.348 103.581 54.804 103.445 55.212C103.309 55.62 103.113 55.968 102.857 56.256C102.609 56.544 102.301 56.764 101.933 56.916C101.573 57.068 101.161 57.144 100.697 57.144ZM100.697 55.74C101.049 55.74 101.321 55.632 101.513 55.416C101.705 55.2 101.801 54.892 101.801 54.492V53.208C101.801 52.808 101.705 52.5 101.513 52.284C101.321 52.068 101.049 51.96 100.697 51.96C100.345 51.96 100.073 52.068 99.8805 52.284C99.6885 52.5 99.5925 52.808 99.5925 53.208V54.492C99.5925 54.892 99.6885 55.2 99.8805 55.416C100.073 55.632 100.345 55.74 100.697 55.74Z" fill="white"/>
<path d="M108.778 55.944H108.718C108.67 56.112 108.594 56.272 108.49 56.424C108.386 56.568 108.258 56.696 108.106 56.808C107.962 56.912 107.794 56.992 107.602 57.048C107.418 57.112 107.226 57.144 107.026 57.144C106.226 57.144 105.622 56.864 105.214 56.304C104.806 55.736 104.602 54.916 104.602 53.844C104.602 52.772 104.806 51.956 105.214 51.396C105.622 50.836 106.226 50.556 107.026 50.556C107.434 50.556 107.794 50.668 108.106 50.892C108.426 51.116 108.63 51.404 108.718 51.756H108.778V48.12H110.554V57H108.778V55.944ZM107.614 55.704C107.95 55.704 108.226 55.624 108.442 55.464C108.666 55.296 108.778 55.068 108.778 54.78V52.92C108.778 52.632 108.666 52.408 108.442 52.248C108.226 52.08 107.95 51.996 107.614 51.996C107.278 51.996 106.998 52.116 106.774 52.356C106.558 52.588 106.45 52.904 106.45 53.304V54.396C106.45 54.796 106.558 55.116 106.774 55.356C106.998 55.588 107.278 55.704 107.614 55.704Z" fill="white"/>
<path d="M114.351 57.144C113.743 57.144 113.231 57.048 112.815 56.856C112.399 56.656 112.027 56.376 111.699 56.016L112.743 54.96C112.967 55.208 113.215 55.404 113.487 55.548C113.759 55.692 114.067 55.764 114.411 55.764C114.763 55.764 115.007 55.712 115.143 55.608C115.279 55.496 115.347 55.348 115.347 55.164C115.347 54.868 115.135 54.692 114.711 54.636L114.027 54.552C112.611 54.376 111.903 53.728 111.903 52.608C111.903 52.304 111.959 52.028 112.071 51.78C112.191 51.524 112.355 51.308 112.563 51.132C112.779 50.948 113.035 50.808 113.331 50.712C113.635 50.608 113.975 50.556 114.351 50.556C114.679 50.556 114.967 50.58 115.215 50.628C115.471 50.668 115.695 50.732 115.887 50.82C116.087 50.9 116.267 51.004 116.427 51.132C116.595 51.252 116.759 51.388 116.919 51.54L115.899 52.584C115.699 52.384 115.471 52.228 115.215 52.116C114.967 51.996 114.711 51.936 114.447 51.936C114.143 51.936 113.927 51.984 113.799 52.08C113.671 52.176 113.607 52.304 113.607 52.464C113.607 52.632 113.651 52.764 113.739 52.86C113.835 52.948 114.011 53.012 114.267 53.052L114.975 53.148C116.359 53.332 117.051 53.964 117.051 55.044C117.051 55.348 116.987 55.628 116.859 55.884C116.731 56.14 116.547 56.364 116.307 56.556C116.075 56.74 115.791 56.884 115.455 56.988C115.127 57.092 114.759 57.144 114.351 57.144Z" fill="white"/>
</g>
<g id="logo" clip-path="url(#clip0_203_1962)">
<path id="money - light" d="M56.2625 26.6125L43.75 18.4063C42.6125 17.5938 40.9875 17.9188 40.175 19.1375L25.3875 41.4C25.225 41.5625 25.3063 41.8875 25.55 41.9688L28.3125 43.2688L35.7063 37.9875C37.1688 36.9313 39.1188 37.0938 40.5 38.2313L40.9063 38.5563C42.45 39.8563 42.6125 42.2125 41.3938 43.7563L32.4563 55.5375L35.7875 57.975C37.0063 58.7875 38.55 58.4625 39.3625 57.2438L56.9938 30.1875C57.8063 28.9688 57.4813 27.425 56.2625 26.6125ZM47.7313 30.4313C47.1625 31.325 45.7 31.4875 44.5625 30.7563C43.425 30.025 42.9375 28.6438 43.5875 27.75C44.1563 26.8563 45.6188 26.6938 46.7563 27.425C47.8125 28.1563 48.3 29.5375 47.7313 30.4313Z" fill="#5DAF5D"/>
<path id="Subtract" d="M44.5625 30.7562C45.7 31.4875 47.1625 31.325 47.7313 30.4312C48.3 29.5375 47.8125 28.1562 46.7563 27.425C45.6188 26.6937 44.1563 26.8562 43.5875 27.75C42.9375 28.6437 43.425 30.025 44.5625 30.7562Z" fill="white"/>
<g id="money - dark">
<path d="M59.35 31.65L58.1313 30.8375L42.0438 55.5375L59.675 33.925C60.2438 33.275 60.0813 32.2188 59.35 31.65Z" fill="#347036"/>
<path d="M41.3938 43.8375C42.9375 43.7563 44.3188 43.025 45.1313 41.8063C46.675 39.3688 45.4563 35.875 42.45 33.925C39.4438 31.975 35.7063 32.3 34.1625 34.7375C33.2688 36.0375 33.2688 37.7438 33.9188 39.2875L35.7063 37.9875C37.1688 36.9313 39.1188 37.0938 40.5 38.2313L40.9063 38.5563C42.45 39.9375 42.6938 42.2125 41.3938 43.8375Z" fill="#347036"/>
</g>
<path id="hand" d="M40.0938 39.2875C38.9562 38.2313 37.25 38.15 36.0312 39.125L28.9625 44.4875C28.6375 44.7312 28.15 44.8125 27.7437 44.5688L24.25 42.7813C23.7625 42.4563 23.6 41.8063 23.925 41.3188L30.1812 31.8125L23.7625 33.6812C22.3 34.0875 21.0812 34.9813 20.35 36.2L13.6875 46.7625C13.0375 47.7375 12.0625 48.4688 10.925 48.6313L8 49.2V63L24.6562 59.925C26.9312 59.3563 28.9625 58.1375 30.425 56.2688L40.4188 43.5938C41.3937 42.2125 41.3125 40.3438 40.0938 39.2875Z" fill="#FFB85A"/>
</g>
</g>
<defs>
<clipPath id="clip0_203_1962">
<rect width="53" height="46" fill="white" transform="translate(8 17)"/>
</clipPath>
</defs>
</svg>
