<svg width="128" height="80" viewBox="0 0 128 80" fill="none" xmlns="http://www.w3.org/2000/svg">
<g id="logo / payment method / tron / white">
<g id="logo">
<path d="M111.321 49.3512H113.344V41.4676L111.321 39.2191V49.3512Z" fill="white"/>
<path d="M121.973 30.7033V45.319L107.664 29.4165V49.3511H109.682V34.7309L124 50.6379V30.7033H121.973Z" fill="white"/>
<path d="M94.5657 30.6943C89.4229 30.6943 85.2418 34.8754 85.2418 40.0182C85.2418 45.161 89.4229 49.3421 94.5657 49.3421C99.7085 49.3421 103.89 45.161 103.89 40.0182C103.89 34.8799 99.7085 30.6943 94.5657 30.6943ZM94.5657 47.3328C90.5336 47.3328 87.2511 44.0548 87.2511 40.0182C87.2511 35.9816 90.5291 32.7036 94.5657 32.7036C98.5978 32.7036 101.88 35.9816 101.88 40.0182C101.88 44.0503 98.5978 47.3328 94.5657 47.3328Z" fill="white"/>
<path d="M94.5655 38.6771C93.8251 38.6771 93.2245 39.2777 93.2245 40.0182C93.2245 40.7586 93.8251 41.3592 94.5655 41.3592C95.306 41.3592 95.9066 40.7586 95.9066 40.0182C95.9066 39.2777 95.306 38.6771 94.5655 38.6771Z" fill="white"/>
<path d="M81.7334 36.4241C81.7334 33.2725 79.1868 30.7078 76.0578 30.7078H65.3929V49.3556H67.3841V32.7306H76.0578C78.0671 32.7306 79.7016 34.3877 79.7016 36.4241C79.7016 38.4514 78.0896 40.0994 76.0984 40.122L69.0231 40.1175V49.3556H71.0143V42.1403H75.6785L79.4894 49.3511H81.8057L77.8278 41.8558C80.126 41.0928 81.7334 38.8713 81.7334 36.4241Z" fill="white"/>
<path d="M52.3165 36.2479H50.3118V49.3375H52.3165V36.2479Z" fill="white"/>
<path d="M61.2973 30.7033H44.9568V32.708H61.2973V30.7033Z" fill="white"/>
<path d="M55.9378 36.2479H53.9331V49.3375H55.9378V36.2479Z" fill="white"/>
<path d="M31.1725 27.0098L4 22.0115L18.2997 57.9885L38.2208 33.7149L31.1725 27.0098ZM30.7391 29.2132L34.8976 33.164L23.5283 35.2229L30.7391 29.2132ZM21.0585 34.812L9.07509 24.8741L28.6575 28.4772L21.0585 34.812ZM20.2006 36.573L18.25 52.7238L7.71602 26.2106L20.2006 36.573ZM22.0066 37.4263L34.595 35.1462L20.1599 52.7374L22.0066 37.4263Z" fill="white"/>
</g>
</g>
</svg>
