<svg width="128" height="80" viewBox="0 0 128 80" fill="none" xmlns="http://www.w3.org/2000/svg">
<g id="logo / payment method / wyre / brand">
<path id="wordmark" d="M60.7529 39.1359L65.4007 29.1562H70.2034L70.8231 39.1359H70.978L75.4709 28.8444H79.8088L72.5273 45.2173H67.4147L66.6401 34.6139H66.4852L65.4007 36.641L61.8374 44.5935C61.8374 45.0613 61.6825 45.2173 61.2177 45.2173H57.1896C57.0347 45.2173 56.8798 45.2173 56.7248 45.2173L55.7953 28.8444H60.4431L60.7529 39.1359ZM80.8933 28.8444H85.6959L87.2452 38.5122L91.893 28.8444H96.5408L95.4563 30.8715L87.5551 45.6851C86.9354 46.9325 86.1607 48.024 85.2312 49.1156C83.6819 50.6749 81.8228 51.2986 79.6539 51.1427C78.8792 51.1427 78.1046 50.9868 77.33 50.8308L79.0341 47.4003C83.527 48.18 83.6819 43.9698 83.527 42.8783L81.0482 29.1562C80.7383 29.0003 80.7383 29.0003 80.8933 28.8444ZM113.273 38.3562C112.963 39.9156 113.892 41.319 115.442 41.7867C116.681 42.0986 117.921 41.9427 119.16 41.7867L120.709 41.319C120.709 41.4749 120.709 41.6308 120.709 41.7867L120.089 44.7495L119.47 44.9054C118.075 45.2173 116.526 45.3732 115.132 45.2173C114.047 45.0613 112.963 44.9054 112.033 44.4376C110.019 43.3461 108.935 41.6308 108.625 39.4478C108.315 36.485 109.09 33.6783 110.949 31.3393C112.808 29.0003 115.132 28.2206 117.92 28.3766C119.16 28.5325 120.244 28.8444 121.174 29.4681C123.498 31.0274 123.808 35.2376 120.864 37.1088C119.78 37.7325 118.695 38.0444 117.456 38.2003C116.216 38.3562 114.822 38.3562 113.583 38.2003C113.428 38.3562 113.428 38.3562 113.273 38.3562ZM113.583 35.2376C114.822 35.3935 116.061 35.3935 117.146 35.0817C117.611 34.9257 117.92 34.7698 118.23 34.4579C119.005 33.5223 118.695 32.2749 117.611 31.963C116.526 31.6511 115.442 31.963 114.667 32.8986C114.202 33.5223 113.892 34.302 113.583 35.2376ZM100.569 45.2173H95.7661L98.8646 28.8444H102.273L102.583 31.8071C103.048 30.5596 103.667 29.624 104.752 29.0003C105.836 28.5325 107.695 28.5325 109.4 29.1562L107.386 33.2105L105.526 32.8986C104.132 32.7427 103.203 33.3664 102.738 34.6139C102.428 35.5495 102.273 36.641 101.963 37.5766L100.569 45.2173Z" fill="black"/>
<g id="Vector">
<path d="M31.4077 39.7617H46.5904L38.3794 60.3447C37.14 63.3074 34.3513 65.1786 31.2528 65.1786H16.0701L24.4361 44.5956C25.5205 41.7888 28.3092 39.7617 31.4077 39.7617Z" fill="#A9CAFF"/>
<path d="M20.563 53.7956H29.0839C32.1824 53.7956 33.112 53.6397 35.7457 51.3007L46.5905 39.4498H31.4078C28.3093 39.4498 25.5206 41.4769 24.2812 44.2837L20.563 53.7956Z" fill="#0408E0"/>
<path d="M26.2952 27.2871H41.4779L33.2668 47.7142C32.0274 50.677 29.2388 52.3922 26.1402 52.3922H10.9575L19.1686 32.121C20.408 29.1583 23.1966 27.2871 26.2952 27.2871Z" fill="#0384FF"/>
<path d="M15.4504 41.321H23.9714C27.0699 41.321 27.9994 40.8532 30.6332 38.6702L41.478 27.1312H26.2952C23.1967 27.1312 20.4081 29.0024 19.1687 31.9651L15.4504 41.321Z" fill="#0408E0"/>
<path d="M21.1827 14.3447H36.3654L28.1544 34.9278C27.0699 37.8905 24.2812 39.7617 21.1827 39.7617H6L14.2111 19.3346C15.2955 16.3718 18.0842 14.3447 21.1827 14.3447Z" fill="#004EFF"/>
</g>
</g>
</svg>
