<svg width="72" height="72" viewBox="0 0 72 72" fill="none" xmlns="http://www.w3.org/2000/svg">
<g id="logo / deriv product / deriv nakala / brand-light / logo horizontal">
<g id="logo">
<path d="M0 13.5C0 6.04416 6.04416 0 13.5 0H58.5C65.9558 0 72 6.04416 72 13.5V58.5C72 65.9558 65.9558 72 58.5 72H13.5C6.04416 72 0 65.9558 0 58.5V13.5Z" fill="#FF444F"/>
<path d="M13.5 0C6.04416 0 0 6.04416 0 13.5V13.8921L67.3075 3.26845C64.9433 1.2315 61.8655 0 58.5 0H13.5Z" fill="#E12E3A"/>
<path d="M68.6969 4.65243L56.3498 71.9999L58.5 72C65.9558 72 72 65.9558 72 58.5V13.5C72 10.1155 70.7545 7.02183 68.6969 4.65243Z" fill="#E12E3A"/>
<path d="M21.7944 42.4057C22.0089 42.4252 22.2527 42.4447 22.5257 42.4642C22.8182 42.4642 23.1594 42.4642 23.5494 42.4642C25.8309 42.4642 27.5177 41.889 28.6097 40.7385C29.7212 39.588 30.2769 37.9987 30.2769 35.9707C30.2769 33.8452 29.7504 32.2365 28.6974 31.1445C27.6444 30.0525 25.9772 29.5065 23.6957 29.5065C23.3837 29.5065 23.0619 29.5162 22.7304 29.5357C22.3989 29.5357 22.0869 29.5552 21.7944 29.5942V42.4057ZM34.9862 35.9707C34.9862 37.7257 34.7132 39.2565 34.1672 40.563C33.6212 41.8695 32.8412 42.9517 31.8272 43.8097C30.8327 44.6677 29.6139 45.3112 28.1709 45.7402C26.7279 46.1692 25.1094 46.3837 23.3154 46.3837C22.4964 46.3837 21.5409 46.3447 20.4489 46.2667C19.3569 46.2082 18.2844 46.0717 17.2314 45.8572V26.1135C18.2844 25.9185 19.3764 25.7917 20.5074 25.7332C21.6579 25.6552 22.6427 25.6162 23.4617 25.6162C25.1972 25.6162 26.7669 25.8112 28.1709 26.2012C29.5944 26.5912 30.8132 27.2055 31.8272 28.044C32.8412 28.8825 33.6212 29.955 34.1672 31.2615C34.7132 32.568 34.9862 34.1377 34.9862 35.9707Z" fill="white"/>
<path d="M50.9364 46.1205C49.6299 43.8 48.2161 41.5087 46.6951 39.2467C45.1741 36.9847 43.5556 34.8495 41.8396 32.841V46.1205H37.3351V25.8502H41.0499C41.6934 26.4937 42.4051 27.2835 43.1851 28.2195C43.9651 29.1555 44.7549 30.1597 45.5544 31.2322C46.3734 32.2852 47.1826 33.387 47.9821 34.5375C48.7816 35.6685 49.5324 36.7605 50.2344 37.8135V25.8502H54.7681V46.1205H50.9364Z" fill="white"/>
</g>
</g>
</svg>
