<svg width="72" height="72" viewBox="0 0 72 72" fill="none" xmlns="http://www.w3.org/2000/svg">
<g id="logo / deriv product / deriv go / white / logo horizontal" clip-path="url(#clip0_203_156)">
<g id="logo">
<path d="M0 13.5C0 6.04416 6.04416 0 13.5 0H58.5C65.9558 0 72 6.04416 72 13.5V58.5C72 65.9558 65.9558 72 58.5 72H13.5C6.04416 72 0 65.9558 0 58.5V13.5Z" fill="white"/>
<path d="M13.5 0C6.04416 0 0 6.04416 0 13.5V13.8921L67.3075 3.26845C64.9433 1.2315 61.8655 0 58.5 0H13.5Z" fill="#EBECEF"/>
<path d="M68.6969 4.65243L56.3498 71.9999L58.5 72C65.9558 72 72 65.9558 72 58.5V13.5C72 10.1155 70.7545 7.02183 68.6969 4.65243Z" fill="#EBECEF"/>
<path d="M26.4533 28.8968C24.1643 28.8968 22.5053 29.5373 21.4763 30.8183C20.4683 32.0783 19.9643 33.8108 19.9643 36.0158C19.9643 37.0868 20.0903 38.0633 20.3423 38.9453C20.5943 39.8063 20.9723 40.5518 21.4763 41.1818C21.9803 41.8118 22.6103 42.3053 23.3663 42.6623C24.1223 42.9983 25.0043 43.1663 26.0123 43.1663C26.5583 43.1663 27.0203 43.1558 27.3983 43.1348C27.7973 43.1138 28.1438 43.0718 28.4378 43.0088V35.4173H33.3518V46.2218C32.7638 46.4528 31.8188 46.6943 30.5168 46.9463C29.2148 47.2193 27.6083 47.3558 25.6973 47.3558C24.0593 47.3558 22.5683 47.1038 21.2243 46.5998C19.9013 46.0958 18.7673 45.3608 17.8223 44.3948C16.8773 43.4288 16.1423 42.2423 15.6173 40.8353C15.1133 39.4283 14.8613 37.8218 14.8613 36.0158C14.8613 34.1888 15.1448 32.5718 15.7118 31.1648C16.2788 29.7578 17.0558 28.5713 18.0428 27.6053C19.0298 26.6183 20.1848 25.8728 21.5078 25.3688C22.8518 24.8648 24.2798 24.6128 25.7918 24.6128C26.8208 24.6128 27.7448 24.6863 28.5638 24.8333C29.4038 24.9593 30.1178 25.1168 30.7058 25.3058C31.3148 25.4738 31.8083 25.6523 32.1863 25.8413C32.5853 26.0303 32.8688 26.1773 33.0368 26.2823L31.6193 30.2198C30.9473 29.8628 30.1703 29.5583 29.2883 29.3063C28.4273 29.0333 27.4823 28.8968 26.4533 28.8968Z" fill="#FF444F"/>
<path d="M40.4755 36.0158C40.4755 37.0868 40.6015 38.0528 40.8535 38.9138C41.1265 39.7748 41.5045 40.5203 41.9875 41.1503C42.4915 41.7593 43.1005 42.2318 43.8145 42.5678C44.5285 42.9038 45.3475 43.0718 46.2715 43.0718C47.1745 43.0718 47.983 42.9038 48.697 42.5678C49.432 42.2318 50.041 41.7593 50.524 41.1503C51.028 40.5203 51.406 39.7748 51.658 38.9138C51.931 38.0528 52.0675 37.0868 52.0675 36.0158C52.0675 34.9448 51.931 33.9788 51.658 33.1178C51.406 32.2358 51.028 31.4903 50.524 30.8813C50.041 30.2513 49.432 29.7683 48.697 29.4323C47.983 29.0963 47.1745 28.9283 46.2715 28.9283C45.3475 28.9283 44.5285 29.1068 43.8145 29.4638C43.1005 29.7998 42.4915 30.2828 41.9875 30.9128C41.5045 31.5218 41.1265 32.2673 40.8535 33.1493C40.6015 34.0103 40.4755 34.9658 40.4755 36.0158ZM57.139 36.0158C57.139 37.8848 56.8555 39.5333 56.2885 40.9613C55.7425 42.3683 54.9865 43.5548 54.0205 44.5208C53.0545 45.4658 51.8995 46.1798 50.5555 46.6628C49.2325 47.1458 47.8045 47.3873 46.2715 47.3873C44.7805 47.3873 43.3735 47.1458 42.0505 46.6628C40.7275 46.1798 39.5725 45.4658 38.5855 44.5208C37.5985 43.5548 36.8215 42.3683 36.2545 40.9613C35.6875 39.5333 35.404 37.8848 35.404 36.0158C35.404 34.1468 35.698 32.5088 36.286 31.1018C36.874 29.6738 37.6615 28.4768 38.6485 27.5108C39.6565 26.5448 40.8115 25.8203 42.1135 25.3373C43.4365 24.8543 44.8225 24.6128 46.2715 24.6128C47.7625 24.6128 49.1695 24.8543 50.4925 25.3373C51.8155 25.8203 52.9705 26.5448 53.9575 27.5108C54.9445 28.4768 55.7215 29.6738 56.2885 31.1018C56.8555 32.5088 57.139 34.1468 57.139 36.0158Z" fill="#FF444F"/>
</g>
</g>
<defs>
<clipPath id="clip0_203_156">
<rect width="72" height="72" fill="white"/>
</clipPath>
</defs>
</svg>
