<svg width="199" height="36" viewBox="0 0 199 36" fill="none" xmlns="http://www.w3.org/2000/svg">
<g id="logo / partners product / deriv mt5 / brand-dark / wordmark horizontal">
<g id="wordmark">
<path fill-rule="evenodd" clip-rule="evenodd" d="M20.739 1.13861L18.9667 11.1895H12.8146C7.07515 11.1895 1.60449 15.8396 0.59054 21.5792L0.161365 24.0221C-0.847863 29.7617 2.98158 34.4119 8.72108 34.4119H13.8522C18.0354 34.4119 22.0204 31.0256 22.7562 26.8425L27.4817 0.0546875L20.739 1.13861ZM16.3738 25.8945C16.1474 27.1867 14.984 28.2385 13.6918 28.2385H10.5745C7.9948 28.2385 6.26872 26.1444 6.72144 23.5599L6.99028 22.0366C7.44772 19.4569 9.90952 17.3582 12.4892 17.3582H17.879L16.3738 25.8945Z" fill="#FF444F"/>
<path d="M68.1179 34.4135H74.5034L78.5404 11.5118H72.1549L68.1179 34.4135Z" fill="#FF444F"/>
<path d="M68.3305 14.4975L68.3315 14.4924C68.4914 13.5868 68.6513 12.6812 68.8108 11.7756C62.2586 10.0873 57.155 11.834 55.0768 12.6946C55.0768 12.6946 52.1123 29.4985 51.2446 34.4189H57.6344C58.6714 28.5383 59.7084 22.6563 60.7439 16.7757C61.7029 16.5845 64.824 16.2851 67.8492 17.2252C68.0094 16.316 68.17 15.4067 68.3305 14.4975Z" fill="#FF444F"/>
<path fill-rule="evenodd" clip-rule="evenodd" d="M42.9138 11.1871H37.9477C33.1043 11.1871 28.4874 15.111 27.6337 19.9544L26.6292 25.6468C25.7755 30.4903 29.0062 34.4142 33.8496 34.4142H44.423L45.5078 28.2596H35.5708C33.958 28.2596 32.8779 26.9532 33.1657 25.3356L33.1987 25.1422H49.2193L50.1342 19.9544C50.9876 15.111 47.7572 11.1871 42.9138 11.1871ZM43.7249 19.464L43.6872 19.7941H34.1609L34.2127 19.5017C34.5002 17.8888 35.9718 16.4692 37.5892 16.4692H41.3103C42.9091 16.4692 43.9892 17.8652 43.7249 19.464Z" fill="#FF444F"/>
<path d="M89.6385 26.6175C92.5379 21.4013 95.7343 14.5577 97.0662 11.5118H103.461C101.284 17.2993 96.2959 27.1442 91.4634 34.4135H85.0733C82.8551 27.4949 81.4227 17.855 81.1494 11.5118H87.5398C87.6551 13.5809 88.5814 21.2558 89.6385 26.6175Z" fill="#FF444F"/>
<path d="M120.473 2.49229C121.04 3.53179 121.686 4.82329 122.411 6.3668C123.167 7.8788 123.938 9.53255 124.726 11.328C125.545 13.0921 126.348 14.9033 127.136 16.7618C127.923 18.6203 128.663 20.3686 129.356 22.0066C130.049 20.3686 130.79 18.6203 131.577 16.7618C132.365 14.9033 133.152 13.0921 133.94 11.328C134.759 9.53255 135.53 7.8788 136.255 6.3668C137.011 4.82329 137.672 3.53179 138.239 2.49229H144.949C145.264 4.66579 145.547 7.10705 145.799 9.81605C146.083 12.4936 146.319 15.2971 146.508 18.2266C146.729 21.1246 146.918 24.0383 147.075 26.9678C147.264 29.8973 147.422 32.6536 147.548 35.2366H140.366C140.271 32.0551 140.145 28.5901 139.988 24.8416C139.83 21.0931 139.594 17.3131 139.279 13.5016C138.712 14.8246 138.082 16.2893 137.389 17.8958C136.696 19.5023 136.003 21.1088 135.31 22.7153C134.648 24.3218 134.003 25.8653 133.373 27.3458C132.743 28.7948 132.207 30.0391 131.766 31.0786H126.616C126.175 30.0391 125.639 28.7948 125.009 27.3458C124.379 25.8653 123.718 24.3218 123.025 22.7153C122.363 21.1088 121.686 19.5023 120.993 17.8958C120.3 16.2893 119.67 14.8246 119.103 13.5016C118.788 17.3131 118.552 21.0931 118.394 24.8416C118.237 28.5901 118.111 32.0551 118.016 35.2366H110.834C110.96 32.6536 111.102 29.8973 111.26 26.9678C111.449 24.0383 111.638 21.1246 111.827 18.2266C112.047 15.2971 112.283 12.4936 112.535 9.81605C112.819 7.10705 113.118 4.66579 113.433 2.49229H120.473Z" fill="white"/>
<path d="M175.647 2.49229V8.77655H165.772V35.2366H158.401V8.77655H148.525V2.49229H175.647Z" fill="white"/>
<path d="M191.252 25.5976C191.252 24.6841 191.047 23.8808 190.637 23.1878C190.228 22.4633 189.519 21.8648 188.511 21.3923C187.503 20.9198 186.149 20.5576 184.448 20.3056C182.747 20.0536 180.605 19.9276 178.022 19.9276C178.368 16.9981 178.652 14.0213 178.872 10.9973C179.093 7.9733 179.266 5.13829 179.392 2.49229H197.111V8.39855H185.298C185.235 9.53255 185.156 10.635 185.062 11.706C184.999 12.7456 184.92 13.6591 184.826 14.4466C189.425 14.7616 192.811 15.8483 194.984 17.7068C197.189 19.5338 198.292 22.0853 198.292 25.3613C198.292 26.8733 198.024 28.2751 197.489 29.5666C196.953 30.8581 196.15 31.9763 195.079 32.9213C194.008 33.8663 192.653 34.6066 191.015 35.1421C189.409 35.6776 187.519 35.9453 185.345 35.9453C184.495 35.9453 183.597 35.8823 182.652 35.7563C181.739 35.6618 180.841 35.5201 179.959 35.3311C179.108 35.1736 178.337 35.0003 177.644 34.8113C176.951 34.6223 176.415 34.4333 176.037 34.2443L177.313 28.4326C178.1 28.7791 179.14 29.1256 180.431 29.4721C181.723 29.7871 183.266 29.9446 185.062 29.9446C187.235 29.9446 188.81 29.5193 189.787 28.6688C190.763 27.7868 191.252 26.7631 191.252 25.5976Z" fill="white"/>
</g>
</g>
</svg>
