<svg width="128" height="80" viewBox="0 0 128 80" fill="none" xmlns="http://www.w3.org/2000/svg">
<g id="logo / payment method / icbc bank / brand-light">
<g id="logo">
<path fill-rule="evenodd" clip-rule="evenodd" d="M103.594 47.3662V50.3141H113.159V41.4689H107.276V38.5203H113.159V29.665H103.594V32.6157H110.207V35.571H104.312V44.4182H110.207V47.3662H103.594ZM86.5906 39.9983C86.5906 31.0451 93.852 23.7758 102.808 23.7758C111.762 23.7758 119.025 31.0451 119.025 39.9983C119.025 48.9547 111.762 56.2187 102.808 56.2187C93.852 56.2187 86.5906 48.9547 86.5906 39.9983ZM83.6198 39.9983C83.6198 29.3966 92.2051 20.8098 102.808 20.8098C113.409 20.8098 122 29.3966 122 39.9983C122 50.5999 113.409 59.19 102.808 59.19C92.2051 59.19 83.6198 50.5999 83.6198 39.9983ZM102.106 32.6077V29.6584H92.5294V38.5083H98.3977V41.4603H92.5294V50.3088H102.106V47.3595H95.4769V44.4116H101.371V35.5563H95.4769V32.6077" fill="#CB0202"/>
<path fill-rule="evenodd" clip-rule="evenodd" d="M38.2369 41.638V41.5898H45.3553C46.0056 41.5898 46.9417 41.6942 47.6914 42.1872C48.3901 42.6494 48.7474 43.3324 48.7474 44.2168C48.7474 44.9212 48.5559 45.4724 48.1806 45.853C47.4826 46.5547 46.2774 46.5534 45.3957 46.5534H38.2111V46.51L38.2369 41.638ZM38.2369 33.4567H44.7534C45.8996 33.4567 47.8207 33.4567 47.8207 35.7379C47.8207 36.574 47.4607 37.1654 46.7514 37.4985C46.1117 37.7995 45.3129 37.831 44.7693 37.831H38.2369V33.4567ZM45.6198 50.3771C48.0898 50.3771 49.9533 49.775 51.1571 48.5863C52.3935 47.3648 52.654 45.7948 52.654 44.689C52.654 42.2728 51.6477 40.5924 49.6616 39.698L49.5741 39.6613L49.6569 39.6171C50.5525 39.1442 51.7385 38.1836 51.7385 35.3198C51.7385 33.7465 51.1458 32.329 50.0673 31.3269C48.8853 30.2265 47.1604 29.6465 45.0848 29.6465L34.3271 29.6398V50.3711" fill="#201E1D"/>
<path fill-rule="evenodd" clip-rule="evenodd" d="M6 50.3771H10.0981V29.6464H6V50.3771Z" fill="#201E1D"/>
<path fill-rule="evenodd" clip-rule="evenodd" d="M13.4254 39.8352C13.4254 41.8394 13.7622 43.4943 14.4549 44.8931C15.0336 46.0584 15.849 47.0404 17.0264 47.9857C18.858 49.454 21.4374 50.1999 24.6936 50.1999H30.3025V46.2872H25.0045C22.0572 46.2872 19.92 45.5514 18.6538 44.0984C17.7536 43.0682 17.2915 41.6768 17.2796 39.9656C17.263 38.13 17.7761 36.6704 18.7996 35.6309C20.0804 34.3298 22.1679 33.6708 25.0045 33.6708H30.3025V29.7903H24.8892C23.0662 29.7903 21.5381 29.9749 20.2136 30.3482C18.8918 30.7235 17.8053 31.2827 16.8951 32.056C15.6004 33.1578 13.4254 35.6309 13.4254 39.8352Z" fill="#201E1D"/>
<path fill-rule="evenodd" clip-rule="evenodd" d="M55.1267 39.8349C55.1267 41.8351 55.4714 43.6011 56.1562 45.0768C56.7489 46.3558 57.6126 47.4583 58.7263 48.3506C60.4479 49.7347 62.8848 50.3775 66.3936 50.3775H72.3068V46.4655H66.7058C63.7638 46.4655 61.6266 45.6976 60.3524 44.1837C59.4535 43.1181 58.9915 41.6993 58.9802 39.9654C58.963 38.0789 59.494 36.5745 60.5533 35.4988C61.8414 34.1883 63.9103 33.5241 66.7058 33.5241H72.3068V29.6468H66.5878C64.7661 29.6468 63.2394 29.8295 61.9136 30.2034C60.5918 30.578 59.5052 31.1346 58.5977 31.9086C57.5516 32.7956 55.1267 35.3443 55.1267 39.8349Z" fill="#201E1D"/>
</g>
</g>
</svg>
