<svg width="128" height="80" viewBox="0 0 128 80" fill="none" xmlns="http://www.w3.org/2000/svg">
<g id="logo / payment method / bank negara indonesia bni / brand">
<g id="logo">
<path d="M19.3847 23C19.3847 23 18.2359 24.5111 19.0565 28.1994C19.9072 31.1406 21.3774 33.8791 23.3744 36.2421C23.3744 36.2421 23.6001 32.0865 26.1129 29.6509C29.0563 26.6366 33.6618 25.7911 37.5385 27.5532V23.0199L19.3847 23Z" fill="#F15A23"/>
<path d="M4 28.2L6.64615 31.441L17.5077 44.6035L21.0256 41.8796C19.1572 39.6957 17.5215 37.3341 16.1436 34.831C12.3077 27.5538 15.0154 23.0205 15.0154 23.0205H4V28.2Z" fill="#F15A23"/>
<path d="M14.1231 47.2075L4 34.8303V55.3396L14.1231 47.2075Z" fill="#F15A23"/>
<path d="M15.6923 49.1562L8.07178 55.3398H20.9538L15.6923 49.1562Z" fill="#F15A23"/>
<path d="M22.6356 43.7579L19.0562 46.631C19.0562 46.631 22.1126 50.5381 24.051 51.8006C27.3433 54.0076 28.6869 53.1328 28.6869 53.1328L26.1126 55.3H37.5382V47.1679C37.5382 47.1679 35.2305 50.5082 30.0305 49.1562C26.0613 48.1322 22.6356 43.7579 22.6356 43.7579Z" fill="#F15A23"/>
<path d="M31.1796 30.2177C34.154 30.2177 37.5386 33.041 37.5386 33.041L37.5181 45.2293C33.9386 47.2276 31.0463 44.7422 28.6668 42.4358C27.0155 40.8352 25.3643 38.9861 25.3643 35.6557C25.48 32.6227 28.0485 30.2209 31.1796 30.2177Z" fill="#F15A23"/>
</g>
<path id="wordmark" d="M84.1026 23.3379C84.1026 23.3379 86.8336 27.347 89.7361 31.4114L90.1617 32.0062C91.7959 34.2839 93.4448 36.5184 94.6564 38.0116L94.8572 38.2595L95.2597 38.7583C95.3939 38.9251 95.5281 39.0924 95.6621 39.2598L96.0633 39.7621L96.4617 40.2632C99.3041 43.8461 101.836 47.1976 101.836 47.1976V25.6642C101.836 24.7297 99.3128 23.3379 99.3128 23.3379H108.544C108.544 23.3379 105.467 24.5409 105.467 25.6642V56.9999C103.137 55.5746 101.06 53.7955 99.3128 51.7309C95.6205 47.5754 82.4616 30.7642 82.4616 30.7642V52.5362C82.4616 53.6496 84.9846 55.3397 84.9846 55.3397H76.1026C76.1026 55.3397 78.5539 53.6397 78.5539 52.5362V25.6941C78.5539 24.68 76.1026 23.3379 76.1026 23.3379H84.1026ZM124 23.3379C124 23.3379 121.241 24.6005 121.241 25.6642V52.5064C121.241 53.6695 124 55.3099 124 55.3099H113.744C113.744 55.3099 116.308 53.6297 116.308 52.5064V25.6642C116.308 24.6403 113.744 23.3379 113.744 23.3379H124ZM61.1795 23.3081C62.1231 23.3081 69.5385 24.3221 69.5385 30.1876C69.6064 33.2853 67.5535 36.0533 64.5026 36.9777C64.5026 36.9777 72.7077 37.7134 72.7077 45.6666C72.7077 53.6198 62.0718 55.3099 61.1282 55.3099H45.959C45.959 55.3099 48.6154 53.6496 48.6154 52.5064V25.6642C48.6154 24.6204 45.9282 23.3379 45.9282 23.3379L61.1795 23.3081ZM61.1795 39.1052H54L53.9487 51.7309H61.1282C62.0718 51.7309 67.7333 49.9414 67.7333 45.2292C67.7333 40.5169 62.1231 39.1052 61.1795 39.1052ZM60.1539 26.4794H54V36.4806L60.1539 36.5104C62.5892 36.004 64.3541 33.9528 64.4308 31.5397C64.6257 29.0172 62.7437 26.7906 60.1539 26.4794Z" fill="#005E6A"/>
</g>
</svg>
