<svg width="128" height="80" viewBox="0 0 128 80" fill="none" xmlns="http://www.w3.org/2000/svg">
<g id="logo / payment method / ozow / brand">
<g id="logo">
<path d="M88.2143 30.964C86.4271 30.964 84.6801 31.494 83.1942 32.487C81.7083 33.4799 80.5502 34.8912 79.8664 36.5424C79.1826 38.1936 79.0038 40.0104 79.3526 41.7632C79.7015 43.516 80.5623 45.126 81.8262 46.3895C83.09 47.653 84.7003 48.5134 86.4531 48.8617C88.206 49.2101 90.0228 49.0308 91.6738 48.3465C93.3248 47.6622 94.7358 46.5037 95.7283 45.0175C96.7208 43.5313 97.2503 41.7841 97.2498 39.997C97.2498 38.8105 97.0161 37.6357 96.562 36.5396C96.1079 35.4435 95.4423 34.4476 94.6032 33.6088C93.7642 32.77 92.7681 32.1047 91.6719 31.6509C90.5756 31.1971 89.4007 30.9637 88.2143 30.964ZM88.2143 45.1337C87.201 45.1307 86.2114 44.8275 85.3704 44.2623C84.5293 43.6972 83.8747 42.8954 83.489 41.9584C83.1033 41.0214 83.004 39.9911 83.2036 38.9977C83.4031 38.0043 83.8926 37.0922 84.6101 36.3768C85.3277 35.6614 86.2412 35.1747 87.2352 34.9781C88.2292 34.7815 89.2592 34.884 90.1951 35.2724C91.1309 35.6609 91.9307 36.318 92.4933 37.1607C93.0559 38.0034 93.3562 38.994 93.3562 40.0072C93.3562 40.6817 93.2231 41.3496 92.9645 41.9726C92.7059 42.5956 92.3269 43.1614 91.8493 43.6377C91.3716 44.1139 90.8046 44.4912 90.1809 44.7479C89.5571 45.0047 88.8888 45.1358 88.2143 45.1337Z" fill="#1E2330"/>
<path d="M52.4773 30.964C50.6901 30.9635 48.9428 31.4931 47.4565 32.4857C45.9702 33.4784 44.8117 34.8895 44.1275 36.5406C43.4433 38.1917 43.2642 40.0087 43.6128 41.7616C43.9613 43.5146 44.8219 45.1248 46.0857 46.3886C47.3495 47.6524 48.9597 48.513 50.7127 48.8615C52.4656 49.2101 54.2826 49.0309 55.9337 48.3468C57.5848 47.6626 58.9959 46.5041 59.9886 45.0178C60.9812 43.5315 61.5108 41.7842 61.5103 39.997C61.5096 37.6015 60.5577 35.3043 58.8638 33.6105C57.17 31.9166 54.8728 30.9647 52.4773 30.964ZM52.4773 45.1337C51.4639 45.1312 50.474 44.8284 49.6327 44.2635C48.7913 43.6987 48.1362 42.8972 47.7502 41.9602C47.3641 41.0232 47.2644 39.9929 47.4637 38.9993C47.6629 38.0057 48.1522 37.0934 48.8697 36.3777C49.5871 35.662 50.5006 35.1751 51.4947 34.9783C52.4888 34.7815 53.5189 34.8838 54.4549 35.2722C55.3909 35.6606 56.1908 36.3176 56.7536 37.1604C57.3163 38.0032 57.6167 38.9938 57.6167 40.0072C57.6167 40.6815 57.4836 41.3492 57.2252 41.972C56.9668 42.5948 56.588 43.1606 56.1106 43.6368C55.6332 44.113 55.0666 44.4903 54.4431 44.7472C53.8196 45.0041 53.1516 45.1354 52.4773 45.1337Z" fill="#1E2330"/>
<path d="M78.1894 48.5839H62.9149V45.6182L72.1427 35.1088H64.6861C64.2164 35.1088 63.7659 34.9222 63.4337 34.5901C63.1015 34.2579 62.9149 33.8074 62.9149 33.3376V31.3742H78.1894V34.4116L68.5361 44.8595H76.4207C76.6532 44.8595 76.8834 44.9053 77.0982 44.9944C77.3129 45.0834 77.508 45.2139 77.6723 45.3784C77.8365 45.5429 77.9668 45.7382 78.0555 45.9531C78.1442 46.168 78.1897 46.3982 78.1894 46.6307V48.5839Z" fill="#1E2330"/>
<path d="M118.276 48.6172H114.175L110.794 38.4795L107.38 48.6172H103.279L97.5574 31.3742H100.328C100.835 31.3741 101.329 31.5348 101.739 31.8333C102.149 32.1318 102.454 32.5526 102.61 33.0352L105.488 41.9604L109 31.3742H112.552L116.069 41.9938L118.948 33.0403C119.103 32.5572 119.408 32.1359 119.817 31.8369C120.227 31.538 120.722 31.3768 121.229 31.3767H124L118.276 48.6172Z" fill="#1E2330"/>
<path d="M35.9366 39.5125C35.5617 39.5597 35.1834 39.456 34.8849 39.2243C34.5864 38.9927 34.3921 38.6519 34.3448 38.277C34.0233 35.7252 32.9906 33.3153 31.3646 31.3226C29.7386 29.3298 27.5848 27.8346 25.1494 27.0077C22.714 26.1809 20.0951 26.0557 17.5919 26.6465C15.0887 27.2373 12.8022 28.5203 10.9935 30.3489C10.7263 30.6159 10.3639 30.7659 9.98614 30.7659C9.60835 30.7659 9.24602 30.6159 8.97878 30.3489C8.71174 30.0816 8.56174 29.7193 8.56174 29.3415C8.56174 28.9637 8.71174 28.6014 8.97878 28.3341C11.1644 26.1293 13.9257 24.5831 16.9477 23.8719C19.9697 23.1607 23.1308 23.3131 26.0703 24.3117C29.0099 25.3104 31.6096 27.1151 33.573 29.52C35.5364 31.9248 36.7844 34.8331 37.1747 37.913C37.2218 38.288 37.1181 38.6662 36.8865 38.9647C36.6548 39.2632 36.314 39.4575 35.9392 39.5048L35.9366 39.5125Z" fill="url(#paint0_linear_499_687)"/>
<path d="M20.7339 45.2619C19.693 45.2624 18.6753 44.9542 17.8096 44.3763C16.9438 43.7984 16.269 42.9767 15.8703 42.0151C15.4716 41.0536 15.367 39.9954 15.5698 38.9745C15.7725 37.9535 16.2735 37.0156 17.0094 36.2794C17.7452 35.5432 18.6829 35.0417 19.7037 34.8385C20.7246 34.6352 21.7828 34.7393 22.7446 35.1375C23.7063 35.5357 24.5283 36.2102 25.1067 37.0757C25.685 37.9411 25.9937 38.9586 25.9937 39.9995C25.9923 41.3943 25.4378 42.7317 24.4518 43.7182C23.4658 44.7047 22.1287 45.2599 20.7339 45.2619ZM20.7339 37.5875C20.2568 37.5875 19.7905 37.729 19.3938 37.994C18.9972 38.259 18.688 38.6358 18.5055 39.0765C18.3229 39.5172 18.2751 40.0022 18.3682 40.4701C18.4613 40.938 18.691 41.3678 19.0283 41.7051C19.3657 42.0424 19.7954 42.2722 20.2633 42.3652C20.7312 42.4583 21.2162 42.4105 21.6569 42.228C22.0977 42.0454 22.4744 41.7362 22.7394 41.3396C23.0045 40.9429 23.1459 40.4766 23.1459 39.9995C23.1452 39.36 22.8909 38.7469 22.4387 38.2947C21.9865 37.8425 21.3734 37.5882 20.7339 37.5875Z" fill="url(#paint1_linear_499_687)"/>
<path d="M24.1405 30.7154C24.1421 30.8181 24.1309 30.9205 24.1071 31.0204C24.0392 31.3399 23.8631 31.626 23.6086 31.8306C23.3541 32.0352 23.0367 32.1456 22.7102 32.1431C22.6084 32.1433 22.507 32.1322 22.4077 32.1098C21.8609 31.9929 21.3033 31.9337 20.7441 31.933C18.7391 31.9453 16.8028 32.6651 15.2767 33.9656C14.5744 34.5782 13.8849 35.2934 13.2261 35.988C12.8801 36.3495 12.5366 36.7058 12.2008 37.0518L7.16655 42.0758L5.40559 43.8367C5.31369 43.93 5.19821 43.9965 5.07146 44.0292C4.94471 44.0619 4.81147 44.0596 4.68594 44.0225C4.56041 43.9853 4.44731 43.9149 4.35872 43.8185C4.27013 43.7221 4.20936 43.6035 4.18291 43.4753C4.11883 43.1421 4.06244 42.8063 4.01886 42.4654C3.97364 42.1139 4.01 41.7567 4.12513 41.4215C4.24026 41.0864 4.43107 40.7822 4.68275 40.5327L10.1733 35.0371C10.5065 34.7064 10.8346 34.3629 11.1627 34.0118C11.8753 33.2659 12.6058 32.502 13.4081 31.8022C14.5547 30.8211 15.8878 30.0817 17.3273 29.6286C19.164 29.0313 21.1252 28.9261 23.0152 29.3236C23.334 29.3912 23.6198 29.5665 23.8247 29.8199C24.0296 30.0733 24.1411 30.3895 24.1405 30.7154Z" fill="url(#paint2_linear_499_687)"/>
<path d="M20.7339 56.5685C17.8601 56.5587 15.0377 55.8058 12.5409 54.3829C10.0442 52.96 7.95784 50.9155 6.48472 48.448C6.32537 48.1765 6.26081 47.8596 6.30118 47.5474C6.34155 47.2351 6.48456 46.9451 6.70772 46.723L10.9192 42.5141C11.0858 42.3475 11.2912 42.2248 11.5169 42.1571C11.7426 42.0893 11.9815 42.0786 12.2124 42.1258C12.4432 42.1731 12.6588 42.2768 12.8397 42.4278C13.0207 42.5787 13.1613 42.7722 13.2492 42.9909C13.9512 44.739 15.2431 46.1862 16.9007 47.0813C18.5583 47.9763 20.477 48.2628 22.3238 47.8911C24.1706 47.5193 25.8289 46.5126 27.011 45.0459C28.1931 43.5791 28.8244 41.7447 28.7953 39.8611C28.7913 39.5714 28.7707 39.2821 28.7338 38.9947C28.5022 37.1652 27.6499 35.4706 26.3192 34.1938C26.0463 33.9323 25.8884 33.5732 25.8803 33.1954C25.8721 32.8176 26.0143 32.452 26.2757 32.179C26.4054 32.0441 26.5606 31.9361 26.7321 31.8613C26.9037 31.7865 27.0884 31.7462 27.2756 31.7429C27.4627 31.7396 27.6487 31.7732 27.8229 31.8419C27.997 31.9106 28.1559 32.0129 28.2904 32.1431C30.0881 33.8684 31.2413 36.1568 31.5585 38.6282C31.6186 39.0828 31.6477 39.541 31.6457 39.9995C31.6447 42.3567 30.8804 44.6501 29.4673 46.5366C28.0541 48.4232 26.0681 49.8014 23.8063 50.4651C21.5446 51.1288 19.1287 51.0423 16.9202 50.2185C14.7117 49.3947 12.8294 47.8779 11.5548 45.895L9.53756 47.9123C10.7624 49.6468 12.3734 51.073 14.2437 52.0784C16.1139 53.0838 18.1922 53.6409 20.3145 53.7058C22.4369 53.7706 24.5453 53.3415 26.4735 52.4522C28.4016 51.5629 30.0968 50.2378 31.4252 48.5813C31.5427 48.4355 31.6877 48.3143 31.852 48.2246C32.0163 48.1349 32.1967 48.0784 32.3829 48.0584C32.569 48.0384 32.7573 48.0553 32.9369 48.1081C33.1165 48.1608 33.284 48.2485 33.4297 48.366C33.5754 48.4832 33.6966 48.628 33.7863 48.7921C33.876 48.9562 33.9324 49.1364 33.9524 49.3223C33.9724 49.5083 33.9556 49.6963 33.9028 49.8757C33.8501 50.0551 33.7625 50.2224 33.645 50.3679C32.0966 52.3045 30.1319 53.8675 27.8967 54.9409C25.6616 56.0143 23.2134 56.5706 20.7339 56.5685Z" fill="url(#paint3_linear_499_687)"/>
</g>
</g>
<defs>
<linearGradient id="paint0_linear_499_687" x1="14.2483" y1="12.8786" x2="55.5" y2="108.002" gradientUnits="userSpaceOnUse">
<stop stop-color="#00E587"/>
<stop offset="1" stop-color="#00B8AD"/>
</linearGradient>
<linearGradient id="paint1_linear_499_687" x1="-107.291" y1="-13.5714" x2="-67.5195" y2="149.541" gradientUnits="userSpaceOnUse">
<stop stop-color="#00E587"/>
<stop offset="1" stop-color="#00B8AD"/>
</linearGradient>
<linearGradient id="paint2_linear_499_687" x1="1.34813" y1="14.1299" x2="37.3536" y2="123.85" gradientUnits="userSpaceOnUse">
<stop stop-color="#00E587"/>
<stop offset="1" stop-color="#00B8AD"/>
</linearGradient>
<linearGradient id="paint3_linear_499_687" x1="3.59079" y1="24.8532" x2="30.8229" y2="55.6944" gradientUnits="userSpaceOnUse">
<stop stop-color="#00E587"/>
<stop offset="1" stop-color="#00B8AD"/>
</linearGradient>
</defs>
</svg>
