<svg width="128" height="80" viewBox="0 0 128 80" fill="none" xmlns="http://www.w3.org/2000/svg">
<g id="logo / payment method / nganluong / brand-light">
<g id="logo">
<g id="black" opacity="0.997">
<path d="M14.3099 46.5927L14.1172 46.5071C10.9062 44.0453 9.07594 41.6692 9.03313 37.4627C8.99031 36.4256 9.09521 35.3873 9.34352 34.3801C6.53817 35.9824 4.86416 39.019 5.00865 42.2471C5.00544 44.6704 5.96661 46.9952 7.67915 48.7098C9.39169 50.4245 11.7154 51.3878 14.1386 51.3878C17.5509 51.3771 20.6998 49.5501 22.4017 46.5927H14.3099Z" fill="#0C0E0F"/>
<path d="M23.9752 32.8708C20.4784 32.9351 17.2835 34.8617 15.5945 37.9228H18.9232C20.882 37.8479 22.9691 37.9228 23.5792 37.9228H23.7719C27.1113 39.7478 29.1696 43.2681 29.1236 47.0742C29.1129 48.181 28.8763 49.2738 28.4278 50.2853C31.367 48.6637 33.1908 45.5715 33.1908 42.2149C33.1855 37.1062 29.0829 32.9468 23.9752 32.8708Z" fill="#0C0E0F"/>
</g>
<g id="orange" opacity="0.997">
<path d="M23.3541 38.8749V42.3214C23.4076 44.0446 23.3541 45.8321 23.3541 46.6027V46.9666C21.5613 50.2911 18.0763 52.3504 14.299 52.3183C13.1934 52.3076 12.1016 52.0743 11.088 51.6333C13.1002 55.2831 17.3292 57.107 21.3654 56.0656C25.4006 55.0241 28.2188 51.3807 28.2134 47.2128C28.2241 43.7588 26.3639 40.5692 23.3541 38.8749Z" fill="#E87700"/>
<path d="M19.0406 28C13.9458 28 9.81433 32.1315 9.81433 37.2263C9.82718 40.6996 11.6981 43.8999 14.7165 45.6178V42.1499C14.663 40.3624 14.7165 38.5 14.7165 37.7615V37.4297C16.5435 34.0913 20.0628 32.0341 23.8679 32.078C24.9746 32.0919 26.0664 32.3285 27.0789 32.7737C25.4627 29.8442 22.3865 28.0182 19.0406 28Z" fill="#E87700"/>
</g>
</g>
<path id="wordmark" opacity="0.997" d="M53.8342 41.2898C54.5406 41.2898 55.1572 41.4643 55.6838 41.8121C55.9696 42.008 56.2618 42.2938 56.5582 42.6684V41.5338H57.954V49.7241L57.9497 50.0601C57.9186 51.0459 57.7527 51.8369 57.4498 52.432C56.8215 53.6543 55.6367 54.2655 53.8931 54.2655C52.9234 54.2655 52.1078 54.0482 51.4463 53.6137C50.7848 53.1791 50.4145 52.5005 50.3364 51.5747H51.8744L51.9173 51.7684C51.9986 52.0788 52.1302 52.325 52.3122 52.508C52.6547 52.8441 53.192 53.0121 53.9263 53.0121C55.0865 53.0121 55.8465 52.6033 56.2061 51.7845C56.418 51.3028 56.5165 50.4423 56.4994 49.2028C56.1965 49.663 55.8325 50.0056 55.4066 50.2293C54.9806 50.454 54.4176 50.5653 53.7154 50.5653C52.7414 50.5653 51.8873 50.2196 51.1562 49.5271C50.4241 48.8346 50.0581 47.6893 50.0581 46.0913C50.0581 44.5843 50.4273 43.4069 51.1637 42.5592C51.9023 41.7136 52.7906 41.2898 53.8342 41.2898ZM120.88 41.2898C121.587 41.2898 122.202 41.4643 122.73 41.8121C123.016 42.008 123.308 42.2938 123.604 42.6684V41.5338H125V49.7241L124.995 50.0601C124.965 51.0459 124.798 51.8369 124.495 52.432C123.868 53.6543 122.682 54.2655 120.938 54.2655C119.968 54.2655 119.153 54.0482 118.491 53.6137C117.83 53.1791 117.459 52.5005 117.381 51.5747H118.92L118.963 51.7684C119.044 52.0788 119.175 52.325 119.357 52.508C119.7 52.8441 120.238 53.0121 120.972 53.0121C122.133 53.0121 122.892 52.6033 123.251 51.7845C123.464 51.3028 123.561 50.4423 123.545 49.2028C123.242 49.663 122.877 50.0056 122.451 50.2293C122.025 50.454 121.462 50.5653 120.761 50.5653C119.786 50.5653 118.932 50.2196 118.201 49.5271C117.469 48.8346 117.104 47.6893 117.104 46.0913C117.104 44.5843 117.472 43.4069 118.21 42.5592C118.947 41.7136 119.837 41.2898 120.879 41.2898H120.88ZM102.177 41.1892C103.338 41.1892 104.319 41.5766 105.121 42.3494C105.923 43.1233 106.324 44.261 106.324 45.7638C106.324 47.2163 105.97 48.4161 105.264 49.3634C104.558 50.3106 103.462 50.7837 101.976 50.7837C100.736 50.7837 99.7528 50.3652 99.0239 49.5271C98.2961 48.689 97.9311 47.563 97.9311 46.1513C97.9311 44.6367 98.3153 43.4326 99.0828 42.5346C99.8513 41.6377 100.883 41.1892 102.177 41.1892ZM63.7648 41.232C64.8245 41.232 65.685 41.4332 66.3465 41.8367C67.0026 42.2403 67.3312 42.8685 67.3312 43.7205V48.9085C67.3312 49.0658 67.3633 49.1921 67.4275 49.2874C67.4917 49.3826 67.6277 49.4308 67.8342 49.4308C67.9028 49.4308 67.9777 49.4265 68.0622 49.4179C68.1457 49.4094 68.2356 49.3965 68.3309 49.3794V50.499C68.0954 50.5664 67.9167 50.6082 67.7925 50.6253C67.6694 50.6424 67.5014 50.651 67.2895 50.651C66.7671 50.651 66.3882 50.4658 66.1528 50.0955C66.0297 49.8996 65.943 49.6224 65.8927 49.2627C65.5844 49.6663 65.1413 50.0173 64.5644 50.3138C63.9864 50.6114 63.3506 50.7601 62.6549 50.7601C61.82 50.7601 61.1371 50.5065 60.6073 49.9991C60.0775 49.4918 59.8131 48.8571 59.8131 48.0939C59.8131 47.2591 60.0732 46.6115 60.5945 46.1513C61.1157 45.6921 61.7997 45.4095 62.6463 45.3025L65.0599 44.9996C65.4078 44.9546 65.6401 44.8091 65.7578 44.5629C65.8252 44.428 65.8595 44.2343 65.8595 43.9828C65.8595 43.4669 65.6754 43.0922 65.3083 42.8589C64.9411 42.6266 64.4156 42.511 63.7316 42.511C62.9407 42.511 62.3809 42.724 62.0501 43.15C61.865 43.3855 61.744 43.7355 61.6884 44.2011H60.2755C60.3033 43.0912 60.6641 42.3184 61.3566 41.8838C62.048 41.4493 62.8518 41.232 63.7648 41.232ZM90.4805 41.4503V47.4292L90.4869 47.6519C90.5072 48.0115 90.5779 48.3123 90.6988 48.5552C90.9685 49.0936 91.4695 49.3634 92.2048 49.3634C93.258 49.3634 93.9762 48.8924 94.3572 47.9505C94.5649 47.4453 94.6676 46.7539 94.6676 45.874V41.4503H96.1822V50.4562H94.7522L94.7693 49.1279L94.6462 49.3259C94.4739 49.5828 94.2716 49.8054 94.0372 49.9938C93.4603 50.4647 92.7592 50.7002 91.9351 50.7002C90.6507 50.7002 89.7773 50.2721 89.3127 49.4137C89.0591 48.9534 88.9338 48.3401 88.9338 47.5727V41.4503H90.4805ZM40.075 38.1034L46.3151 48.1111V38.1034H47.9035V50.4562H46.0282L39.6961 40.4581V50.4562H38.0992V38.1034H40.075ZM74.1921 41.248C75.47 41.248 76.3338 41.6944 76.7823 42.586C77.0285 43.073 77.1526 43.7708 77.1526 44.6796V50.4562H75.6135V44.7802L75.6081 44.5511C75.5889 44.1058 75.5086 43.7398 75.3694 43.4519C75.1008 42.891 74.6127 42.6106 73.9063 42.6106C73.5477 42.6106 73.2534 42.647 73.0233 42.7198C72.609 42.8428 72.244 43.0901 71.9304 43.4594C71.6778 43.7569 71.5141 44.0641 71.4381 44.3799C71.3632 44.6977 71.3246 45.1505 71.3246 45.7392V50.4562H69.8112V41.4503H71.2486V42.7283L71.4338 42.511C71.8041 42.0958 72.1937 41.7896 72.6026 41.5927C73.08 41.3636 73.6087 41.248 74.1921 41.248ZM81.2649 38.1034V48.9845H87.521V50.4562H79.5898V38.1034H81.2638H81.2649ZM112.504 41.248C113.782 41.248 114.646 41.6944 115.094 42.586C115.34 43.073 115.464 43.7708 115.464 44.6796V50.4562H113.925V44.7802L113.92 44.5511C113.901 44.1058 113.82 43.7398 113.681 43.4519C113.412 42.891 112.924 42.6106 112.218 42.6106C111.859 42.6106 111.565 42.647 111.335 42.7198C110.921 42.8428 110.556 43.0901 110.242 43.4594C109.99 43.7569 109.825 44.0641 109.75 44.3799C109.675 44.6977 109.636 45.1505 109.636 45.7392V50.4562H108.123V41.4503H109.56V42.7283L109.744 42.511C110.116 42.0958 110.507 41.7896 110.914 41.5927C111.392 41.3636 111.92 41.248 112.504 41.248ZM102.135 42.51C101.211 42.51 100.537 42.8632 100.118 43.5696C99.6972 44.276 99.4863 45.128 99.4863 46.1256C99.4863 47.0846 99.6972 47.8831 100.118 48.5221C100.537 49.1611 101.205 49.4811 102.119 49.4811C103.122 49.4811 103.81 49.1011 104.183 48.3412C104.556 47.5812 104.743 46.7357 104.743 45.8055C104.743 44.9653 104.608 44.2814 104.339 43.7537C103.913 42.9242 103.178 42.51 102.135 42.51ZM65.8167 45.873L65.6679 45.9586C65.5095 46.0389 65.3211 46.1085 65.1017 46.1673C64.8105 46.2465 64.5237 46.3022 64.2454 46.3354L63.3281 46.4531L63.1012 46.4874C62.6634 46.5601 62.3274 46.664 62.0919 46.7978C61.6263 47.0621 61.394 47.4828 61.394 48.0597C61.394 48.4964 61.5535 48.841 61.8735 49.0936C62.1925 49.3462 62.5714 49.4725 63.0081 49.4725C63.5411 49.4725 64.057 49.3494 64.5558 49.1022C65.396 48.6933 65.8167 48.0233 65.8167 47.0921V45.873ZM54.1114 42.6277C53.0465 42.6277 52.3176 43.1265 51.9247 44.124C51.7182 44.6571 51.6143 45.3549 51.6143 46.2176C51.6143 47.2323 51.8198 48.0051 52.2319 48.5349C52.644 49.0647 53.1974 49.3291 53.8931 49.3291C54.9806 49.3291 55.7448 48.8389 56.189 47.8574C56.4352 47.303 56.5582 46.6554 56.5582 45.9158C56.5582 44.7994 56.3292 43.9731 55.8689 43.4347C55.4087 42.8964 54.8232 42.6277 54.1114 42.6277ZM121.157 42.6277C120.091 42.6277 119.362 43.1265 118.971 44.124C118.763 44.6571 118.66 45.3549 118.66 46.2176C118.66 47.2323 118.866 48.0051 119.278 48.5349C119.69 49.0647 120.243 49.3291 120.938 49.3291C122.025 49.3291 122.791 48.8389 123.234 47.8574C123.48 47.303 123.604 46.6554 123.604 45.9158C123.604 44.7994 123.374 43.9731 122.914 43.4347C122.455 42.8964 121.869 42.6277 121.156 42.6277H121.157Z" fill="black"/>
</g>
</svg>
