<svg width="353" height="72" viewBox="0 0 353 72" fill="none" xmlns="http://www.w3.org/2000/svg">
<g id="logo / partners product / deriv ctrader / brand-dark / logo wordmark horizontal">
<g id="logo">
<path d="M0 13.5C0 6.04416 6.04416 0 13.5 0H58.5C65.9558 0 72 6.04416 72 13.5V58.5C72 65.9558 65.9558 72 58.5 72H13.5C6.04416 72 0 65.9558 0 58.5V13.5Z" fill="#E22526"/>
<path d="M13.5 0C6.04416 0 0 6.04416 0 13.5V13.8921L67.3075 3.26845C64.9433 1.2315 61.8655 0 58.5 0H13.5Z" fill="#B51E1E"/>
<path d="M68.6969 4.65243L56.3498 71.9999L58.5 72C65.9558 72 72 65.9558 72 58.5V13.5C72 10.1155 70.7545 7.02183 68.6969 4.65243Z" fill="#B51E1E"/>
<path d="M20.2656 38.4097C20.2656 37.2127 20.4546 36.0892 20.8326 35.0392C21.2316 33.9682 21.7986 33.0442 22.5336 32.2672C23.2686 31.4692 24.1611 30.8392 25.2111 30.3772C26.2611 29.9152 27.4581 29.6842 28.8021 29.6842C29.6841 29.6842 30.4926 29.7682 31.2276 29.9362C31.9626 30.0832 32.6766 30.3037 33.3696 30.5977L32.3931 34.3462C31.9521 34.1782 31.4691 34.0312 30.9441 33.9052C30.4191 33.7792 29.8311 33.7162 29.1801 33.7162C27.7941 33.7162 26.7546 34.1467 26.0616 35.0077C25.3896 35.8687 25.0536 37.0027 25.0536 38.4097C25.0536 39.9007 25.3686 41.0557 25.9986 41.8747C26.6496 42.6937 27.7731 43.1032 29.3691 43.1032C29.9361 43.1032 30.5451 43.0507 31.1961 42.9457C31.8471 42.8407 32.4456 42.6727 32.9916 42.4417L33.6531 46.2847C33.1071 46.5157 32.4246 46.7152 31.6056 46.8832C30.7866 47.0512 29.8836 47.1352 28.8966 47.1352C27.3846 47.1352 26.0826 46.9147 24.9906 46.4737C23.8986 46.0117 22.9956 45.3922 22.2816 44.6152C21.5886 43.8382 21.0741 42.9247 20.7381 41.8747C20.4231 40.8037 20.2656 39.6487 20.2656 38.4097Z" fill="white"/>
<path d="M51.7341 24.8647V29.0542H45.1506V46.6942H40.2366V29.0542H33.6531V24.8647H51.7341Z" fill="white"/>
</g>
<g id="wordmark">
<path fill-rule="evenodd" clip-rule="evenodd" d="M108.739 19.904L106.967 29.9549H100.815C95.0752 29.9549 89.6045 34.605 88.5905 40.3446L88.1614 42.7875C87.1521 48.5271 90.9816 53.1773 96.7211 53.1773H101.852C106.035 53.1773 110.02 49.791 110.756 45.6079L115.482 18.8201L108.739 19.904ZM104.374 44.6599C104.147 45.9521 102.984 47.0039 101.692 47.0039H98.5745C95.9948 47.0039 94.2687 44.9098 94.7214 42.3253L94.9903 40.802C95.4477 38.2223 97.9095 36.1236 100.489 36.1236H105.879L104.374 44.6599Z" fill="white"/>
<path d="M156.118 53.1789H162.503L166.54 30.2772H160.155L156.118 53.1789Z" fill="white"/>
<path d="M156.331 33.2628L156.331 33.2576C156.491 32.3521 156.651 31.4466 156.811 30.5411C150.259 28.8528 145.155 30.5994 143.077 31.46C143.077 31.46 140.112 48.264 139.245 53.1844H145.634C146.671 47.3038 147.708 41.4218 148.744 35.5412C149.703 35.3499 152.824 35.0506 155.849 35.9907C156.009 35.0814 156.17 34.1721 156.331 33.2628Z" fill="white"/>
<path fill-rule="evenodd" clip-rule="evenodd" d="M130.914 29.9526H125.948C121.104 29.9526 116.487 33.8764 115.634 38.7199L114.629 44.4123C113.776 49.2557 117.006 53.1797 121.85 53.1797H132.423L133.508 47.0251H123.571C121.958 47.0251 120.878 45.7186 121.166 44.101L121.199 43.9076H137.219L138.134 38.7199C138.988 33.8764 135.757 29.9526 130.914 29.9526ZM131.725 38.2294L131.687 38.5595H122.161L122.213 38.2671C122.5 36.6542 123.972 35.2347 125.589 35.2347H129.31C130.909 35.2347 131.989 36.6306 131.725 38.2294Z" fill="white"/>
<path d="M177.639 45.3829C180.538 40.1668 183.734 33.3232 185.066 30.2772H191.461C189.284 36.0647 184.296 45.9097 179.463 53.1789H173.073C170.855 46.2604 169.423 36.6205 169.149 30.2772H175.54C175.655 32.3464 176.581 40.0212 177.639 45.3829Z" fill="white"/>
<path d="M198.125 41.5755C198.125 39.78 198.409 38.0947 198.976 36.5197C199.574 34.9132 200.425 33.5272 201.527 32.3617C202.63 31.1647 203.969 30.2197 205.544 29.5267C207.119 28.8337 208.914 28.4872 210.93 28.4872C212.253 28.4872 213.466 28.6132 214.568 28.8652C215.671 29.0857 216.742 29.4164 217.781 29.8574L216.317 35.4802C215.655 35.2282 214.931 35.0077 214.143 34.8187C213.356 34.6297 212.474 34.5352 211.497 34.5352C209.418 34.5352 207.859 35.1809 206.819 36.4724C205.811 37.764 205.307 39.465 205.307 41.5755C205.307 43.812 205.78 45.5445 206.725 46.773C207.701 48.0015 209.387 48.6157 211.781 48.6157C212.631 48.6157 213.545 48.537 214.521 48.3795C215.498 48.222 216.395 47.97 217.214 47.6235L218.207 53.388C217.388 53.7345 216.364 54.0337 215.135 54.2857C213.907 54.5377 212.552 54.6637 211.072 54.6637C208.804 54.6637 206.851 54.333 205.213 53.6715C203.575 52.9785 202.22 52.0492 201.149 50.8837C200.11 49.7182 199.338 48.348 198.834 46.773C198.362 45.1665 198.125 43.434 198.125 41.5755Z" fill="white"/>
<path d="M245.328 21.2579V27.5422H235.453V54.0022H228.082V27.5422H218.207V21.2579H245.328Z" fill="white"/>
<path d="M258.933 35.3857C258.303 35.2282 257.562 35.0707 256.712 34.9132C255.861 34.7242 254.948 34.6297 253.971 34.6297C253.53 34.6297 252.995 34.6769 252.365 34.7714C251.766 34.8344 251.31 34.9132 250.995 35.0077V54.0022H243.954V30.4717C245.214 30.0307 246.695 29.6212 248.396 29.2432C250.128 28.8337 252.05 28.6289 254.16 28.6289C254.538 28.6289 254.995 28.6604 255.531 28.7234C256.066 28.7549 256.602 28.8179 257.137 28.9124C257.673 28.9754 258.208 29.0699 258.744 29.1959C259.279 29.2904 259.736 29.4164 260.114 29.5739L258.933 35.3857Z" fill="white"/>
<path d="M270.561 49.0882C271.254 49.0882 271.916 49.0725 272.546 49.041C273.176 49.0095 273.68 48.9622 274.058 48.8992V43.56C273.774 43.497 273.349 43.434 272.782 43.371C272.215 43.308 271.695 43.2765 271.223 43.2765C270.561 43.2765 269.931 43.3237 269.333 43.4182C268.766 43.4812 268.262 43.623 267.821 43.8435C267.38 44.064 267.033 44.3632 266.781 44.7412C266.529 45.1192 266.403 45.5917 266.403 46.1587C266.403 47.2612 266.765 48.033 267.49 48.474C268.246 48.8835 269.27 49.0882 270.561 49.0882ZM269.994 28.4872C272.073 28.4872 273.806 28.7234 275.192 29.1959C276.578 29.6684 277.68 30.3457 278.499 31.2277C279.35 32.1097 279.948 33.1807 280.295 34.4407C280.641 35.7007 280.814 37.1024 280.814 38.646V53.2935C279.806 53.514 278.405 53.766 276.609 54.0495C274.814 54.3645 272.64 54.522 270.089 54.522C268.482 54.522 267.017 54.3802 265.694 54.0967C264.403 53.8132 263.285 53.3565 262.34 52.7265C261.395 52.065 260.67 51.2145 260.166 50.175C259.662 49.1355 259.41 47.8597 259.41 46.3477C259.41 44.8987 259.694 43.6702 260.261 42.6622C260.859 41.6542 261.647 40.851 262.623 40.2525C263.6 39.654 264.718 39.2287 265.978 38.9767C267.238 38.6932 268.545 38.5515 269.9 38.5515C270.813 38.5515 271.616 38.5987 272.309 38.6932C273.034 38.7562 273.617 38.8507 274.058 38.9767V38.3152C274.058 37.1182 273.695 36.1574 272.971 35.4329C272.246 34.7084 270.986 34.3462 269.191 34.3462C267.994 34.3462 266.813 34.4407 265.647 34.6297C264.482 34.7872 263.474 35.0234 262.623 35.3384L261.725 29.6684C262.135 29.5424 262.639 29.4164 263.237 29.2904C263.867 29.1329 264.545 29.0069 265.269 28.9124C265.994 28.7864 266.75 28.6919 267.537 28.6289C268.356 28.5344 269.175 28.4872 269.994 28.4872Z" fill="white"/>
<path d="M290.819 41.3865C290.819 43.56 291.307 45.3082 292.284 46.6312C293.26 47.9542 294.709 48.6157 296.631 48.6157C297.261 48.6157 297.843 48.6 298.379 48.5685C298.914 48.5055 299.355 48.4425 299.702 48.3795V35.5747C299.261 35.2912 298.678 35.0549 297.954 34.8659C297.261 34.6769 296.552 34.5824 295.827 34.5824C292.488 34.5824 290.819 36.8504 290.819 41.3865ZM306.742 53.199C306.112 53.388 305.388 53.577 304.569 53.766C303.75 53.9235 302.883 54.0652 301.97 54.1912C301.088 54.3172 300.174 54.4117 299.229 54.4747C298.316 54.5692 297.434 54.6165 296.583 54.6165C294.536 54.6165 292.709 54.3172 291.102 53.7187C289.496 53.1202 288.141 52.2697 287.039 51.1672C285.936 50.0332 285.086 48.6787 284.487 47.1037C283.92 45.4972 283.637 43.7017 283.637 41.7172C283.637 39.7012 283.889 37.8899 284.393 36.2834C284.897 34.6454 285.621 33.2594 286.566 32.1254C287.511 30.9914 288.661 30.1252 290.016 29.5267C291.402 28.9282 292.977 28.6289 294.741 28.6289C295.717 28.6289 296.583 28.7234 297.339 28.9124C298.127 29.1014 298.914 29.3692 299.702 29.7157V18.4702L306.742 17.3362V53.199Z" fill="white"/>
<path d="M309.791 41.7645C309.791 39.5595 310.121 37.6379 310.783 35.9999C311.476 34.3304 312.374 32.9444 313.476 31.8419C314.579 30.7394 315.839 29.9047 317.256 29.3377C318.705 28.7707 320.186 28.4872 321.698 28.4872C325.226 28.4872 328.013 29.5739 330.061 31.7474C332.108 33.8894 333.132 37.0552 333.132 41.2447C333.132 41.6542 333.116 42.111 333.085 42.615C333.053 43.0875 333.022 43.5127 332.99 43.8907H317.02C317.177 45.3397 317.855 46.4895 319.052 47.34C320.249 48.1905 321.855 48.6157 323.871 48.6157C325.163 48.6157 326.423 48.5055 327.651 48.285C328.911 48.033 329.935 47.7337 330.722 47.3872L331.667 53.1045C331.289 53.2935 330.785 53.4825 330.155 53.6715C329.525 53.8605 328.817 54.018 328.029 54.144C327.273 54.3015 326.454 54.4275 325.572 54.522C324.69 54.6165 323.808 54.6637 322.926 54.6637C320.69 54.6637 318.737 54.333 317.067 53.6715C315.429 53.01 314.059 52.1122 312.956 50.9782C311.885 49.8127 311.082 48.4425 310.547 46.8675C310.043 45.2925 309.791 43.5915 309.791 41.7645ZM326.328 39.0712C326.297 38.4727 326.186 37.89 325.997 37.323C325.84 36.7559 325.572 36.2519 325.194 35.8109C324.848 35.3699 324.391 35.0077 323.824 34.7242C323.288 34.4407 322.611 34.2989 321.792 34.2989C321.005 34.2989 320.327 34.4407 319.76 34.7242C319.193 34.9762 318.721 35.3227 318.343 35.7637C317.965 36.2047 317.666 36.7244 317.445 37.323C317.256 37.89 317.114 38.4727 317.02 39.0712H326.328Z" fill="white"/>
<path d="M351.181 35.3857C350.551 35.2282 349.811 35.0707 348.96 34.9132C348.11 34.7242 347.196 34.6297 346.22 34.6297C345.779 34.6297 345.243 34.6769 344.613 34.7714C344.015 34.8344 343.558 34.9132 343.243 35.0077V54.0022H336.203V30.4717C337.463 30.0307 338.943 29.6212 340.644 29.2432C342.377 28.8337 344.298 28.6289 346.409 28.6289C346.787 28.6289 347.243 28.6604 347.779 28.7234C348.314 28.7549 348.85 28.8179 349.385 28.9124C349.921 28.9754 350.456 29.0699 350.992 29.1959C351.527 29.2904 351.984 29.4164 352.362 29.5739L351.181 35.3857Z" fill="white"/>
</g>
</g>
</svg>
