<svg width="128" height="80" viewBox="0 0 128 80" fill="none" xmlns="http://www.w3.org/2000/svg">
<g id="logo / payment method / cimbniaga / brand-dark">
<g id="logo">
<path id="Rectangle" d="M22.9128 31H4V49H22.9128V31Z" fill="white"/>
<path id="Path" fill-rule="evenodd" clip-rule="evenodd" d="M6.37964 34.1411H16.513L21.5796 39.9684L16.513 46.3456H6.37964L10.9232 39.9684L6.37964 34.1411Z" fill="#E2071F"/>
<path id="Path_2" fill-rule="evenodd" clip-rule="evenodd" d="M21.5796 39.9684L16.513 34.1411H6.37964L10.9232 39.9684" fill="#7B141F"/>
</g>
<path id="wordmark" d="M37.7333 35.7697L35.7127 37.4724C35.1512 36.8037 34.3235 36.4374 33.4666 36.4783C31.5401 36.687 30.071 38.3511 30.0501 40.3484C30.0291 42.3456 31.4629 44.0421 33.3845 44.2938C34.3641 44.3234 35.2898 43.8321 35.8358 42.993L38.0204 44.6534C37.0025 46.0316 35.4024 46.8192 33.723 46.7685C30.0102 46.7685 27.3025 44.2938 27.3025 40.423C27.3025 36.5523 30.0102 34.0776 33.723 34.0776C35.2366 34.003 36.7046 34.6224 37.7333 35.7697ZM110.964 35.7274L109.938 36.8379C109.115 35.9573 107.976 35.464 106.79 35.4736C104.225 35.6271 102.233 37.8351 102.268 40.4835C102.304 43.132 104.355 45.282 106.923 45.3619C107.917 45.3494 108.897 45.1149 109.795 44.6745V41.0576H107.128V39.7673H111.179V45.6158C109.851 46.3411 108.365 46.7051 106.861 46.6733C105.218 46.764 103.614 46.1365 102.443 44.9448C101.272 43.7532 100.642 42.1078 100.708 40.4125C100.676 38.7282 101.317 37.1046 102.481 35.9224C103.645 34.7403 105.229 34.1038 106.861 34.1622C108.379 34.0814 109.863 34.6473 110.964 35.7274ZM42.0307 34.3208V46.4512H39.4153V34.3208H42.0307ZM48.3794 34.3208L51.1179 42.2315H51.1589L53.9076 34.3208H57.8563V46.4512H55.2409V37.1551H55.1999L52.082 46.4512H50.082L47.0768 37.1551H47.0358V46.4512H44.4204V34.3208H48.3794ZM74.6871 34.5218L81.364 44.4101H81.4051V34.5218H82.7692V46.4301H81.0358L74.3589 36.5312H74.3281V46.4301H72.9538V34.5218H74.6871ZM87.0153 34.5218V46.4301H85.6409V34.5218H87.0153ZM94.923 34.5218L99.8358 46.4195H98.2256L97.0563 43.5006H91.282L90.0922 46.4195H88.5435L93.6307 34.5218H94.923ZM119.087 34.5218L124 46.4195H122.4L121.22 43.5006H115.456L114.256 46.4195H112.718L117.805 34.5218H119.087ZM64.7076 34.3208C66.7589 34.3208 69.0563 34.765 69.0563 37.4089C69.0591 38.6213 68.2872 39.6822 67.1745 40.0277L67.0051 40.074C68.4956 40.1967 69.6366 41.4936 69.6102 43.0353C69.6102 45.5735 67.2512 46.4089 65.1384 46.4089H60.2768V34.3208H64.7076ZM64.882 41.4277H62.8922V44.188H65.2512C66.0717 44.188 66.9948 43.8285 66.9948 42.7709C66.9948 41.7133 65.7333 41.4277 64.882 41.4277ZM94.2563 36.3302L91.8666 42.1892H96.5743L94.2563 36.3302ZM118.42 36.3302L116.02 42.1892H120.738L118.42 36.3302ZM64.6768 36.584H62.8922V39.1751H64.7999C65.5999 39.1751 66.441 38.8261 66.441 37.8531C66.441 36.8802 65.5076 36.584 64.6768 36.584Z" fill="white"/>
</g>
</svg>
