<svg width="128" height="80" viewBox="0 0 128 80" fill="none" xmlns="http://www.w3.org/2000/svg">
<g id="logo / payment method / pago efectivo / brand">
<g id="logo">
<path fill-rule="evenodd" clip-rule="evenodd" d="M7.46167 10H120.538V70H7.46167V10Z" fill="#FFCE00"/>
<path fill-rule="evenodd" clip-rule="evenodd" d="M46.97 43.9779C45.0163 45.711 42.9276 47.2848 40.7238 48.6844C36.1749 51.6104 31.0999 54.0885 26.0645 56.0505C24.3954 56.7026 22.4208 57.0768 20.7574 56.2092C19.6967 55.6297 18.9076 54.6533 18.5622 53.4931C18.2793 52.6368 18.1605 51.6274 17.9964 50.7372C16.7121 43.5186 17.2666 35.0978 18.715 27.8962C19.0771 26.11 19.9258 23.6944 21.8211 23.0536C22.7264 22.7474 23.7561 22.7644 24.6896 22.9629C24.9846 23.0294 25.2739 23.1185 25.5553 23.2294C31.7562 25.5373 37.3008 28.4293 42.5173 32.5291C43.994 33.6859 45.6121 34.8937 46.97 36.1866C47.8526 37.0315 48.673 37.9898 48.8937 39.2316C48.9516 39.5705 48.9668 39.9153 48.9389 40.258C48.8826 40.9802 48.6788 41.6831 48.3401 42.323C48.0014 42.9629 47.535 43.5262 46.97 43.9779Z" fill="#FEFEFE"/>
<path fill-rule="evenodd" clip-rule="evenodd" d="M19.7674 53.0904C20.22 54.457 21.5722 56.4304 25.6006 54.8653C31.4168 52.5971 40.1128 48.4463 46.1667 42.9799C46.1667 42.9799 47.5189 42.0386 47.666 40.1616C47.8074 38.2903 46.3534 37.1619 41.7309 33.5327C37.1821 29.9546 32.0844 27.023 25.1083 24.4259C24.192 24.0481 23.175 23.9921 22.2229 24.2671C21.0404 24.664 20.3105 26.4162 19.9598 28.1457C19.6259 29.7959 17.4703 40.5529 19.2469 50.5103C19.3713 51.2135 19.5524 52.444 19.7674 53.0904Z" fill="#FFB700"/>
<path fill-rule="evenodd" clip-rule="evenodd" d="M20.5481 26.1894C20.3444 26.8869 20.1747 27.7885 20.0785 28.9567L20.0842 28.9283C21.2667 28.5257 22.947 28.3669 25.3346 28.6618C32.95 29.6031 40.7691 33.907 45.0068 36.4928L46.1553 37.1789C45.813 36.8518 45.4602 36.536 45.0973 36.232L45.0181 36.1582L44.9728 36.1242C44.8882 36.054 44.8033 35.984 44.7182 35.9144L44.673 35.8747L44.5881 35.801L44.5428 35.767L44.4976 35.7273L44.4014 35.6536L44.3561 35.6139L44.2656 35.5402L44.2147 35.5005L44.1185 35.4211L44.0732 35.3814L43.7168 35.1035L43.615 35.0185L43.564 34.9788L43.5075 34.9334L43.4565 34.8937L43.4 34.8484L43.2925 34.7633L43.1793 34.6726L43.134 34.6385L43.1284 34.6329L42.9586 34.4968L42.9473 34.4911L42.8964 34.4514L42.7267 34.3153L42.6644 34.2643L42.6079 34.2189L42.5569 34.1849L42.5456 34.1736L42.4834 34.1225L42.4268 34.0772L42.3646 34.0318L42.3589 34.0261L42.3023 33.9808L42.2401 33.9297L42.1779 33.8844L42.1552 33.8617L42.1156 33.8333L42.0534 33.7823L41.9855 33.7369L41.9459 33.6972L41.9233 33.6859L41.861 33.6349L41.7931 33.5838L41.7309 33.5327C37.1821 29.9546 32.0844 27.023 25.1083 24.4259C24.1923 24.0468 23.1749 23.9908 22.2229 24.2671L22.1776 24.2841H22.1662L22.1153 24.3068H22.1097L22.0644 24.3295H22.0587C22.0436 24.3369 22.0285 24.3444 22.0135 24.3522L22.0022 24.3579C21.987 24.3652 21.9719 24.3727 21.9569 24.3805L21.9512 24.3862L21.9116 24.4089L21.9003 24.4146L21.8607 24.4372L21.8494 24.4486L21.8041 24.4713L21.7985 24.4769L21.7589 24.5053L21.7476 24.511L21.708 24.5393L21.6966 24.5507L21.657 24.5847H21.6514L21.6118 24.6187L21.6061 24.6244L21.5609 24.6584L21.5552 24.6697L21.5156 24.7038L21.5099 24.7094L21.4703 24.7434L21.4647 24.7548C21.4513 24.7679 21.4381 24.7811 21.4251 24.7945L21.3345 24.8852L21.3289 24.8966L21.2893 24.9419L21.2836 24.9476L21.2497 24.9873L21.244 24.9986L21.2101 25.0383L21.1988 25.0497C21.1873 25.0647 21.176 25.0798 21.1648 25.095V25.1007L21.1592 25.1064L21.1252 25.1461L21.1196 25.1631L21.0856 25.2084L21.0743 25.2198L21.0403 25.2708L20.5481 26.1894ZM20.6217 26.1214L20.616 26.1271L20.5821 26.1838L20.5764 26.1894L20.5425 26.2405V26.2461L20.5085 26.3028L20.5029 26.3142L20.4689 26.3709L20.4632 26.3766L20.4406 26.4276L20.4293 26.4389L20.3671 26.5637L20.3614 26.5694V26.575L20.3331 26.6261L20.2992 26.6941L20.2935 26.7111L20.2652 26.7678L20.2596 26.7735L20.2313 26.8359L20.2256 26.8472L20.1973 26.9096L20.1917 26.9209L20.6217 26.1214Z" fill="#FFDF77"/>
<path fill-rule="evenodd" clip-rule="evenodd" d="M20.0842 28.9283C21.2667 28.5257 22.947 28.3669 25.3346 28.6618C32.95 29.6031 40.7691 33.907 45.0068 36.4928C41.4593 46.7735 25.8947 54.1282 25.8947 54.1282C24.0333 52.2626 22.2398 50.5274 20.5085 37.6609C19.9823 33.7483 19.9201 30.9413 20.0842 28.9283Z" fill="#FFCE00"/>
<path d="M56.3168 24.9646C57.9915 24.7491 59.6832 24.7548 61.3692 24.7718C62.4951 24.8001 63.6549 25.0837 64.5658 25.7585C65.3353 26.3482 65.3692 27.4143 65.324 28.2989C65.2504 29.7959 64.9562 31.4063 63.8473 32.5064C62.9001 33.4384 61.6523 34.0014 60.3281 34.0942C59.0834 34.2643 57.8161 34.3096 56.5657 34.1339C56.2602 35.3473 55.9433 36.5552 55.7057 37.7857C55.6435 38.1429 55.4964 38.5682 55.0947 38.6589C54.6251 38.744 54.1385 38.6419 53.6633 38.676C53.3747 38.676 53.0692 38.7383 52.7976 38.6136C52.543 38.4661 52.7014 38.1316 52.7071 37.8991L53.7651 32.7559C53.8613 32.2569 53.9461 31.7522 54.1215 31.2759C55.4794 31.2532 56.8373 31.2646 58.1895 31.2646C58.4101 31.2419 58.5969 31.3496 58.7836 31.4403C58.6986 31.8283 58.6475 32.223 58.6308 32.6198C59.3267 32.2342 59.9208 31.6955 60.5375 31.2022C61.2334 30.6068 61.935 30.017 62.5573 29.3479C61.6464 28.2025 60.7129 27.0797 59.785 25.9456C59.5191 26.3255 59.6718 26.9549 59.2192 27.1874C58.5742 27.3292 57.9009 27.2271 57.2446 27.2328C56.4639 27.1874 55.6774 27.3462 54.908 27.1534C54.9363 26.5467 54.9702 25.9002 55.287 25.3729C55.502 25.0326 55.9603 25.027 56.3168 24.9646ZM67.2703 28.9793C68.5716 28.6561 69.9973 28.5257 71.276 29.0304C71.6048 29.1536 71.8982 29.3562 72.1301 29.6203C72.3621 29.8845 72.5254 30.2019 72.6056 30.5444C72.9111 31.7466 72.4698 32.9544 72.3 34.1509C72.119 35.387 71.887 36.6119 71.6777 37.8481C71.6154 38.2677 71.4231 38.7497 70.9591 38.8574C69.6805 39.192 68.3396 39.2884 67.027 39.2033C66.0991 39.1126 65.0467 38.9141 64.4753 38.1032C63.8982 37.3037 64.0397 36.249 64.2547 35.3473C64.342 34.9036 64.539 34.4889 64.8277 34.1412C65.1163 33.7935 65.4873 33.5238 65.9067 33.357C66.9704 32.9771 68.1189 33.0168 69.2279 32.9487C69.5051 32.909 69.8389 32.9714 70.0765 32.7729C70.2576 32.3193 70.3198 31.7919 70.1727 31.3213C69.9634 30.7939 69.3127 30.7259 68.8205 30.7542C67.7908 30.7485 66.8063 31.0604 65.8388 31.378C65.7257 30.8506 65.5616 30.2439 65.8784 29.7505C66.1783 29.2685 66.7611 29.1211 67.2703 28.9793ZM66.614 35.5401C66.5121 35.9484 66.365 36.4134 66.563 36.816C67.0326 37.4001 67.8643 37.5078 68.5602 37.3887C68.9054 37.3377 69.4202 37.2583 69.4429 36.816C69.4938 36.0902 69.7936 35.3814 69.6635 34.6499C68.8997 34.6102 68.1189 34.5818 67.3664 34.7463C66.9874 34.8313 66.7215 35.1772 66.614 35.5401ZM76.549 29.0701C78.2124 28.4576 80.0342 28.7071 81.7316 29.019C82.0484 29.1041 82.4275 29.1041 82.6764 29.3479C82.8518 29.5804 82.767 29.8866 82.7274 30.1475C82.1446 33.3456 81.6297 36.5608 80.9961 39.7477C80.798 40.689 80.3567 41.687 79.4741 42.1633C78.4218 42.7474 77.1771 42.6737 76.0172 42.6964C74.9479 42.7134 73.788 42.4752 73.0129 41.6984C72.8092 41.2164 73.1261 40.7344 73.2902 40.2977C73.5391 40.3091 73.7937 40.3261 74.037 40.3941C75.2631 40.7355 76.5481 40.809 77.8051 40.6096C78.4727 40.4452 78.6028 39.6796 78.6594 39.0956C77.4769 39.26 76.2096 39.3394 75.1063 38.795C74.6577 38.5763 74.2737 38.2443 73.992 37.8316C73.7103 37.419 73.5405 36.94 73.4995 36.4418C73.3694 34.6555 73.7258 32.8523 74.3764 31.1908C74.567 30.7027 74.8594 30.2609 75.2341 29.8951C75.6088 29.5294 76.0571 29.2481 76.549 29.0701ZM78.3369 30.6521C78.0025 30.7185 77.6844 30.8503 77.4009 31.04C77.1175 31.2298 76.8741 31.4737 76.6848 31.7579C76.3736 32.2456 76.2831 32.8296 76.153 33.3853C75.9606 34.3777 75.757 35.4041 75.938 36.4191C76.0002 36.8557 76.4302 37.0825 76.8206 37.1733C77.5109 37.3264 78.2351 37.2356 78.914 37.0598C79.1403 37.0145 79.146 36.748 79.1969 36.5665C79.4968 34.905 79.7627 33.2322 80.0625 31.5708C80.0852 31.3496 80.1587 31.1058 80.0456 30.896C79.5364 30.6011 78.9083 30.5444 78.3369 30.6521ZM87.4969 28.7355C88.5266 28.5654 89.6355 28.6674 90.5634 29.1778C91.0163 29.4472 91.3954 29.8249 91.667 30.2771C91.9385 30.7294 92.0939 31.242 92.1193 31.7692C92.1815 32.9771 91.9382 34.1792 91.644 35.3473C91.3838 36.3227 90.9708 37.3037 90.2126 38.0012C88.9113 39.2657 86.8689 39.5322 85.1885 38.9708C84.7358 38.802 84.3322 38.5228 84.0141 38.1585C83.6961 37.7942 83.4736 37.3562 83.3667 36.8841C82.9254 35.268 83.2931 33.5611 83.7967 32.0074C84.0605 31.1776 84.5439 30.435 85.1955 29.8588C85.8472 29.2827 86.6425 28.8944 87.4969 28.7355ZM87.5195 30.9357C87.1942 31.0389 86.8985 31.219 86.6572 31.4607C86.416 31.7025 86.2363 31.9989 86.1333 32.3249C85.7769 33.3797 85.5676 34.4968 85.5619 35.6082C85.5789 36.0335 85.6468 36.5268 86.0089 36.8047C86.4841 37.1789 87.1404 37.1336 87.7062 37.0315C88.255 36.9408 88.6794 36.5155 88.9113 36.0278C89.4658 34.9107 89.6525 33.6519 89.6921 32.4213C89.7204 31.9337 89.5959 31.378 89.1659 31.0944C88.6907 30.7542 88.057 30.7826 87.5195 30.9357ZM25.114 34.7009L26.0589 31.8316H33.5668C34.8285 31.8316 36.1467 32.1605 37.1312 32.9827C37.8811 33.6135 38.3809 34.4926 38.54 35.4608C38.9304 37.4965 38.3476 39.725 36.9049 41.2334C35.6036 42.634 33.7252 43.3712 31.8468 43.564C30.2456 43.7114 28.6388 43.5923 27.0377 43.5243C26.5737 45.3955 26.2003 47.2895 25.7703 49.1665C24.5596 49.1097 23.3488 49.0417 22.138 49.019C22.7264 46.0647 23.411 43.1273 24.0051 40.173C26.0023 40.1503 28.0051 40.1673 30.0024 40.1616L30.008 42.0159C31.6884 40.5869 33.3235 39.1069 34.9869 37.6666C33.7478 36.1015 32.4918 34.5591 31.264 32.9827C31.096 33.5455 30.9432 34.1128 30.8058 34.6839C28.9104 34.7122 27.0094 34.6839 25.114 34.7009ZM63.2702 40.5813C64.3508 40.0312 65.6408 40.0426 66.7893 40.3601C66.8176 40.8648 66.8742 41.4602 66.5291 41.8685C65.9576 42.152 65.2391 41.9365 64.679 42.2711C64.2433 42.6567 64.3339 43.3201 64.2547 43.8418C64.86 43.9155 65.4767 43.8475 66.0821 43.9836C66.1783 44.5109 66.2066 45.1517 65.8332 45.577C65.3013 45.9116 64.6281 45.7471 64.034 45.8152C63.8812 46.042 63.7511 46.2858 63.7228 46.5637C63.2645 49.0984 62.8402 51.6331 62.3876 54.1679C62.1952 55.0355 61.9859 56.0051 61.2504 56.5779C60.4979 57.1676 59.4795 57.2016 58.5629 57.1733C58.1895 57.1279 57.7142 57.1676 57.4766 56.8103C57.3804 56.334 57.5445 55.8577 57.7086 55.4154C58.2234 55.3133 58.7666 55.4154 59.2701 55.2566C59.8076 55.0752 59.9151 54.4457 60.0113 53.9637C60.3621 51.7862 60.7525 49.6088 61.1372 47.4369C61.2164 46.9323 61.3635 46.4276 61.3352 45.9172C60.8373 45.7301 60.2037 45.8889 59.8189 45.4522C59.5078 45.078 59.6492 44.5109 59.8642 44.1197C60.2942 43.6717 60.9731 44.0573 61.4993 43.8872C61.8727 43.6717 61.884 43.184 61.9632 42.8098C62.099 41.9479 62.4611 41.0122 63.2702 40.5813ZM90.7558 41.4942C90.8576 41.0746 90.8633 40.4962 91.3159 40.2921C91.9665 40.224 92.6285 40.258 93.2848 40.2524C93.5564 41.0065 93.2509 41.7834 93.0642 42.5149C92.4027 42.665 91.7181 42.6824 91.05 42.5659C90.5747 42.4469 90.7049 41.8515 90.7558 41.4942ZM54.0593 40.7173C55.6887 40.4282 57.3578 40.5189 58.9929 40.706C59.1966 40.7344 59.4003 40.7967 59.5983 40.8534C59.6945 41.3581 59.6888 41.9025 59.4568 42.3731C59.2984 42.702 58.8967 42.7417 58.5742 42.7531C57.4879 42.7758 56.396 42.7304 55.3097 42.7701C54.8174 42.7928 54.2234 42.9345 54.0254 43.4506C53.6576 44.3181 53.618 45.2765 53.4709 46.2008L57.9179 46.1951C58.1612 46.1838 58.5686 46.2405 58.5346 46.5693C58.5346 46.9946 58.4498 47.4143 58.3253 47.8169C58.2121 48.1458 57.8444 48.2762 57.5219 48.2592C56.2319 48.2648 54.9419 48.2478 53.6463 48.2648C53.3068 48.2251 52.99 48.4746 52.973 48.8262C52.8712 49.7108 52.5996 50.5954 52.6901 51.4914C52.7297 51.9677 53.2446 52.1095 53.6406 52.1265C54.8967 52.1548 56.1527 52.1038 57.4031 52.1548C57.686 52.1605 57.6407 52.5064 57.6916 52.7049C57.7595 53.2436 57.6181 54.0091 56.9731 54.0942C55.1399 54.2926 53.188 54.6045 51.4228 53.8843C50.5798 53.5498 50.2007 52.6198 50.0988 51.7749C49.98 51.0604 50.1724 50.3516 50.2912 49.6541C50.608 47.8169 50.9305 45.9853 51.27 44.1594C51.4284 43.3258 51.683 42.4752 52.2375 41.8061C52.7071 41.2674 53.3464 40.8534 54.0593 40.7173ZM85.4374 42.2767C86.139 41.8628 86.9877 41.8174 87.7854 41.8515C87.8081 42.5206 87.5648 43.1614 87.5987 43.8248C88.1192 43.8985 88.6624 43.8532 89.1603 44.0403C89.4771 44.182 89.4205 44.5903 89.364 44.8682C89.2678 45.2424 89.1263 45.7811 88.6398 45.7698C88.1419 45.8832 87.2875 45.5827 87.1291 46.2688C86.8293 47.7375 86.603 49.2288 86.3427 50.7088C86.2522 51.2249 86.1616 51.7466 86.156 52.2682C86.6878 52.4497 87.2479 52.3987 87.7911 52.359C88.2607 53.0735 87.8194 54.2132 86.9198 54.2473C86.0428 54.2416 85.0584 54.4117 84.3059 53.856C83.7401 53.442 83.6269 52.6708 83.7231 52.0187C83.9834 49.9773 84.453 47.9643 84.6963 45.9172C84.1305 45.7698 83.4289 45.9002 82.9933 45.4352C82.7726 45.027 82.8009 44.4372 83.1234 44.0856C83.6722 43.7227 84.3794 44.0289 84.9622 43.8021C85.3469 43.3882 85.1036 42.719 85.4374 42.2767ZM69.59 43.8815C70.5688 43.7681 71.6551 43.6547 72.5264 44.2161C73.6692 44.9192 74.1332 46.3482 74.1049 47.6354C74.0709 48.3556 74.1388 49.1041 73.9125 49.8072C72.8941 50.0114 71.8474 49.8866 70.812 49.9206C69.8219 49.9433 68.8261 49.8809 67.836 49.9433C67.5531 50.6351 67.6776 51.5651 68.3509 51.9904C68.8658 52.2399 69.4598 52.2002 70.0199 52.2002C71.061 52.1889 72.0511 51.8373 73.0638 51.6445C73.0582 52.2853 73.2336 53.1415 72.5999 53.5498C71.921 53.924 71.1572 54.1112 70.4103 54.3096C69.2899 54.6108 68.0967 54.4687 67.0779 53.9127C66.6288 53.6896 66.2407 53.3603 65.947 52.9533C65.6532 52.5463 65.4627 52.0737 65.3919 51.5764C65.181 49.5937 65.5672 47.593 66.5008 45.8322C67.1118 44.6981 68.3452 44.0346 69.59 43.8815ZM69.0015 46.3369C68.4697 46.7848 68.2547 47.4766 68.1585 48.1458C69.3693 48.1571 70.5914 48.2081 71.8022 48.1117C71.9889 47.5674 71.921 46.9493 71.5645 46.4956C70.9761 45.6961 69.7031 45.6961 69.0015 46.3369ZM76.2662 45.4749C77.0922 44.2841 78.5915 43.7397 80.0003 43.7965C80.7924 43.8305 81.6071 43.9836 82.303 44.3862C82.8349 44.7207 82.4558 45.4126 82.3822 45.8946C82.3483 46.3539 81.7769 46.2064 81.4657 46.2064C80.7358 46.2405 80.0739 45.6507 79.344 45.8946C79.0405 45.9685 78.7587 46.1135 78.5217 46.3175C78.2847 46.5215 78.0993 46.7788 77.9805 47.0684C77.4543 48.3329 77.228 49.7222 77.2676 51.0888C77.2619 51.5141 77.4882 51.962 77.9239 52.0868C79.0102 52.4384 80.1191 51.9904 81.1884 51.7862C81.228 52.376 81.3016 53.0168 80.9734 53.5441C80.6849 53.924 80.1814 54.0318 79.7344 54.0885C79.1573 54.1395 78.5802 54.2246 78.0031 54.2813C77.3179 54.2888 76.6493 54.0703 76.1003 53.6594C75.5512 53.2485 75.1523 52.668 74.9649 52.0074C74.7668 50.9357 74.8743 49.8299 75.0384 48.7638C75.2647 47.6127 75.5985 46.4503 76.2662 45.4749ZM106.015 43.8758C106.965 43.7454 107.978 43.7454 108.883 44.114C109.399 44.3621 109.839 44.7436 110.158 45.2191C110.477 45.6946 110.664 46.2468 110.7 46.8188C110.818 48.2308 110.451 49.6144 110.066 50.9527C109.819 51.8786 109.289 52.7036 108.55 53.3116C107.904 53.7932 107.155 54.1173 106.362 54.2581C105.57 54.3988 104.755 54.3524 103.984 54.1225C103.09 53.9014 102.428 53.1472 102.026 52.3476C101.466 51.1455 101.783 49.7959 102.003 48.554C102.241 47.1874 102.756 45.7868 103.831 44.8568C104.451 44.3311 105.206 43.991 106.009 43.8758H106.015ZM106.264 45.9626C105.912 46.0484 105.588 46.221 105.32 46.4646C105.052 46.7083 104.85 47.0153 104.731 47.3576C104.357 48.3839 104.182 49.4727 104.108 50.5557C104.086 50.981 104.148 51.463 104.487 51.7522C105.115 52.2739 106.043 52.2456 106.739 51.894C107.277 51.6161 107.593 51.0547 107.724 50.482C107.967 49.416 108.357 48.3499 108.255 47.2328C108.238 46.8415 108.086 46.4333 107.752 46.2008C107.316 45.9172 106.762 45.8605 106.258 45.9626H106.264ZM90.4389 44.0403C91.0896 43.8248 91.8081 43.8191 92.4814 43.9382C92.8548 43.9949 92.7077 44.4542 92.7021 44.7151C92.2551 47.4766 91.7233 50.2212 91.2593 52.9771C91.1914 53.408 91.1745 54.0658 90.62 54.1452C90.042 54.2481 89.4483 54.219 88.883 54.0601C88.7303 53.7993 88.7925 53.4817 88.8265 53.2039C89.2338 50.8052 89.6412 48.4066 90.0372 46.0023C90.1504 45.3445 90.2353 44.6811 90.4389 44.0403ZM93.7487 44.0686C93.9072 43.9042 94.1505 43.9155 94.3598 43.8928C94.8464 43.8815 95.3386 43.8475 95.8138 43.9722C96.0684 44.0176 96.0175 44.3578 96.0684 44.5506C96.1703 46.2008 96.2269 47.8566 96.3061 49.5124C96.357 50.465 96.3626 51.4347 96.589 52.3646C97.2509 51.7295 97.4659 50.8052 97.8167 49.9887C98.6201 47.9983 99.3783 45.9853 100.25 44.0233C100.951 43.8418 101.704 43.8418 102.416 43.9496C102.779 44.0403 102.592 44.4656 102.496 44.7037C101.24 47.4539 100.035 50.2268 98.7616 52.9714C98.2184 54.2076 96.6172 54.5648 95.4291 54.1565C94.8181 53.9581 94.5578 53.2889 94.5012 52.6992C94.2127 50.1248 93.9637 47.5447 93.7148 44.9646C93.6978 44.6697 93.6639 44.3578 93.7487 44.0686Z" fill="black"/>
</g>
</g>
</svg>
