<svg width="128" height="80" viewBox="0 0 128 80" fill="none" xmlns="http://www.w3.org/2000/svg">
<g id="logo / payment method / ozow / white">
<g id="logo">
<path d="M88.2143 30.9641C86.4271 30.9641 84.6801 31.4941 83.1942 32.487C81.7083 33.48 80.5502 34.8913 79.8664 36.5425C79.1826 38.1936 79.0038 40.0105 79.3526 41.7633C79.7015 43.5161 80.5623 45.126 81.8262 46.3896C83.09 47.6531 84.7003 48.5134 86.4531 48.8618C88.206 49.2101 90.0228 49.0308 91.6738 48.3466C93.3248 47.6623 94.7358 46.5038 95.7283 45.0176C96.7208 43.5314 97.2503 41.7842 97.2498 39.997C97.2498 38.8106 97.0161 37.6358 96.562 36.5397C96.1079 35.4436 95.4423 34.4477 94.6032 33.6089C93.7642 32.7701 92.7681 32.1048 91.6719 31.651C90.5756 31.1972 89.4007 30.9638 88.2143 30.9641ZM88.2143 45.1338C87.201 45.1308 86.2114 44.8275 85.3704 44.2624C84.5293 43.6972 83.8747 42.8955 83.489 41.9585C83.1033 41.0215 83.004 39.9912 83.2036 38.9978C83.4031 38.0043 83.8926 37.0923 84.6101 36.3769C85.3277 35.6615 86.2412 35.1747 87.2352 34.9782C88.2292 34.7816 89.2592 34.884 90.1951 35.2725C91.1309 35.661 91.9307 36.318 92.4933 37.1608C93.0559 38.0035 93.3562 38.994 93.3562 40.0073C93.3562 40.6818 93.2231 41.3497 92.9645 41.9727C92.7059 42.5957 92.3269 43.1615 91.8493 43.6377C91.3716 44.114 90.8046 44.4913 90.1809 44.748C89.5571 45.0047 88.8888 45.1358 88.2143 45.1338Z" fill="white"/>
<path d="M52.4773 30.9641C50.6901 30.9636 48.9428 31.4932 47.4565 32.4858C45.9702 33.4784 44.8117 34.8896 44.1275 36.5407C43.4433 38.1918 43.2642 40.0088 43.6128 41.7617C43.9613 43.5147 44.8219 45.1249 46.0857 46.3887C47.3495 47.6525 48.9597 48.513 50.7127 48.8616C52.4656 49.2102 54.2826 49.031 55.9337 48.3468C57.5848 47.6626 58.9959 46.5041 59.9886 45.0179C60.9812 43.5316 61.5108 41.7843 61.5103 39.997C61.5096 37.6016 60.5577 35.3044 58.8638 33.6105C57.17 31.9167 54.8728 30.9648 52.4773 30.9641ZM52.4773 45.1338C51.4639 45.1313 50.474 44.8285 49.6327 44.2636C48.7913 43.6988 48.1362 42.8972 47.7502 41.9603C47.3641 41.0233 47.2644 39.9929 47.4637 38.9993C47.6629 38.0057 48.1522 37.0935 48.8697 36.3778C49.5871 35.6621 50.5006 35.1751 51.4947 34.9784C52.4888 34.7816 53.5189 34.8839 54.4549 35.2722C55.3909 35.6606 56.1908 36.3177 56.7536 37.1605C57.3163 38.0033 57.6167 38.9939 57.6167 40.0073C57.6167 40.6816 57.4836 41.3493 57.2252 41.9721C56.9668 42.5949 56.588 43.1606 56.1106 43.6368C55.6332 44.113 55.0666 44.4904 54.4431 44.7473C53.8196 45.0041 53.1516 45.1355 52.4773 45.1338Z" fill="white"/>
<path d="M78.1894 48.584H62.9149V45.6183L72.1427 35.1089H64.6861C64.2164 35.1089 63.7659 34.9223 63.4337 34.5901C63.1015 34.258 62.9149 33.8074 62.9149 33.3377V31.3742H78.1894V34.4117L68.5361 44.8595H76.4207C76.6532 44.8595 76.8834 44.9054 77.0982 44.9944C77.3129 45.0835 77.508 45.214 77.6723 45.3785C77.8365 45.543 77.9668 45.7383 78.0555 45.9531C78.1442 46.168 78.1897 46.3983 78.1894 46.6308V48.584Z" fill="white"/>
<path d="M118.276 48.6173H114.175L110.794 38.4796L107.38 48.6173H103.279L97.5574 31.3742H100.328C100.835 31.3742 101.329 31.5349 101.739 31.8334C102.149 32.1318 102.454 32.5526 102.61 33.0352L105.488 41.9605L109 31.3742H112.552L116.069 41.9938L118.948 33.0403C119.103 32.5573 119.408 32.1359 119.817 31.837C120.227 31.538 120.722 31.3769 121.229 31.3768H124L118.276 48.6173Z" fill="white"/>
<path d="M35.9366 39.5126C35.5617 39.5597 35.1834 39.4561 34.8849 39.2244C34.5864 38.9927 34.3921 38.652 34.3448 38.2771C34.0233 35.7253 32.9906 33.3154 31.3646 31.3226C29.7386 29.3299 27.5848 27.8347 25.1494 27.0078C22.714 26.1809 20.0951 26.0558 17.5919 26.6466C15.0887 27.2374 12.8022 28.5204 10.9935 30.3489C10.7263 30.616 10.3639 30.766 9.98614 30.766C9.60835 30.766 9.24602 30.616 8.97878 30.3489C8.71174 30.0817 8.56174 29.7194 8.56174 29.3416C8.56174 28.9638 8.71174 28.6014 8.97878 28.3342C11.1644 26.1294 13.9257 24.5832 16.9477 23.872C19.9697 23.1607 23.1308 23.3132 26.0703 24.3118C29.0099 25.3105 31.6096 27.1151 33.573 29.52C35.5364 31.9249 36.7844 34.8332 37.1747 37.9131C37.2218 38.288 37.1181 38.6663 36.8865 38.9648C36.6548 39.2633 36.314 39.4576 35.9392 39.5049L35.9366 39.5126Z" fill="white"/>
<path d="M20.7339 45.262C19.693 45.2625 18.6753 44.9543 17.8096 44.3764C16.9438 43.7984 16.269 42.9767 15.8703 42.0152C15.4716 41.0537 15.367 39.9955 15.5698 38.9745C15.7725 37.9536 16.2735 37.0157 17.0094 36.2794C17.7452 35.5432 18.6829 35.0418 19.7037 34.8385C20.7246 34.6353 21.7828 34.7393 22.7446 35.1376C23.7063 35.5358 24.5283 36.2103 25.1067 37.0757C25.685 37.9412 25.9937 38.9587 25.9937 39.9996C25.9923 41.3944 25.4378 42.7317 24.4518 43.7183C23.4658 44.7048 22.1287 45.2599 20.7339 45.262ZM20.7339 37.5876C20.2568 37.5876 19.7905 37.729 19.3938 37.9941C18.9972 38.2591 18.688 38.6358 18.5055 39.0766C18.3229 39.5173 18.2751 40.0023 18.3682 40.4702C18.4613 40.9381 18.691 41.3678 19.0283 41.7052C19.3657 42.0425 19.7954 42.2722 20.2633 42.3653C20.7312 42.4584 21.2162 42.4106 21.6569 42.228C22.0977 42.0455 22.4744 41.7363 22.7394 41.3397C23.0045 40.943 23.1459 40.4767 23.1459 39.9996C23.1452 39.3601 22.8909 38.747 22.4387 38.2948C21.9865 37.8426 21.3734 37.5883 20.7339 37.5876Z" fill="white"/>
<path d="M24.1405 30.7155C24.1421 30.8181 24.1309 30.9206 24.1071 31.0205C24.0392 31.3399 23.8631 31.6261 23.6086 31.8307C23.3541 32.0352 23.0367 32.1456 22.7102 32.1432C22.6084 32.1434 22.507 32.1322 22.4077 32.1099C21.8609 31.993 21.3033 31.9337 20.7441 31.933C18.7391 31.9453 16.8028 32.6652 15.2767 33.9657C14.5744 34.5783 13.8849 35.2935 13.2261 35.9881C12.8801 36.3495 12.5366 36.7058 12.2008 37.0519L7.16655 42.0758L5.40559 43.8368C5.31369 43.93 5.19821 43.9965 5.07146 44.0292C4.94471 44.0619 4.81147 44.0596 4.68594 44.0225C4.56041 43.9854 4.44731 43.9149 4.35872 43.8186C4.27013 43.7222 4.20936 43.6036 4.18291 43.4754C4.11883 43.1422 4.06244 42.8064 4.01886 42.4655C3.97364 42.114 4.01 41.7568 4.12513 41.4216C4.24026 41.0864 4.43107 40.7823 4.68275 40.5328L10.1733 35.0371C10.5065 34.7065 10.8346 34.363 11.1627 34.0118C11.8753 33.2659 12.6058 32.5021 13.4081 31.8023C14.5547 30.8211 15.8878 30.0818 17.3273 29.6286C19.164 29.0313 21.1252 28.9261 23.0152 29.3236C23.334 29.3913 23.6198 29.5665 23.8247 29.8199C24.0296 30.0734 24.1411 30.3896 24.1405 30.7155Z" fill="white"/>
<path d="M20.7339 56.5685C17.8601 56.5588 15.0377 55.8059 12.5409 54.383C10.0442 52.9601 7.95784 50.9156 6.48472 48.4481C6.32537 48.1765 6.26081 47.8597 6.30118 47.5474C6.34155 47.2352 6.48456 46.9452 6.70772 46.723L10.9192 42.5142C11.0858 42.3476 11.2912 42.2249 11.5169 42.1571C11.7426 42.0894 11.9815 42.0786 12.2124 42.1259C12.4432 42.1731 12.6588 42.2769 12.8397 42.4278C13.0207 42.5788 13.1613 42.7723 13.2492 42.9909C13.9512 44.7391 15.2431 46.1862 16.9007 47.0813C18.5583 47.9764 20.477 48.2629 22.3238 47.8911C24.1706 47.5193 25.8289 46.5127 27.011 45.0459C28.1931 43.5791 28.8244 41.7448 28.7953 39.8612C28.7913 39.5715 28.7707 39.2822 28.7338 38.9948C28.5022 37.1653 27.6499 35.4706 26.3192 34.1938C26.0463 33.9324 25.8884 33.5733 25.8803 33.1955C25.8721 32.8177 26.0143 32.4521 26.2757 32.1791C26.4054 32.0442 26.5606 31.9362 26.7321 31.8614C26.9037 31.7865 27.0884 31.7463 27.2756 31.743C27.4627 31.7396 27.6487 31.7733 27.8229 31.8419C27.997 31.9106 28.1559 32.013 28.2904 32.1432C30.0881 33.8685 31.2413 36.1569 31.5585 38.6283C31.6186 39.0829 31.6477 39.541 31.6457 39.9996C31.6447 42.3567 30.8804 44.6502 29.4673 46.5367C28.0541 48.4233 26.0681 49.8015 23.8063 50.4652C21.5446 51.1289 19.1287 51.0424 16.9202 50.2185C14.7117 49.3947 12.8294 47.8779 11.5548 45.8951L9.53756 47.9124C10.7624 49.6469 12.3734 51.0731 14.2437 52.0784C16.1139 53.0838 18.1922 53.6409 20.3145 53.7058C22.4369 53.7707 24.5453 53.3416 26.4735 52.4523C28.4016 51.563 30.0968 50.2378 31.4252 48.5814C31.5427 48.4356 31.6877 48.3144 31.852 48.2247C32.0163 48.1349 32.1967 48.0784 32.3829 48.0585C32.569 48.0385 32.7573 48.0553 32.9369 48.1081C33.1165 48.1609 33.284 48.2486 33.4297 48.3661C33.5754 48.4833 33.6966 48.6281 33.7863 48.7922C33.876 48.9563 33.9324 49.1365 33.9524 49.3224C33.9724 49.5083 33.9556 49.6964 33.9028 49.8758C33.8501 50.0552 33.7625 50.2225 33.645 50.368C32.0966 52.3046 30.1319 53.8676 27.8967 54.941C25.6616 56.0144 23.2134 56.5707 20.7339 56.5685Z" fill="white"/>
</g>
</g>
</svg>
