<svg width="128" height="80" viewBox="0 0 128 80" fill="none" xmlns="http://www.w3.org/2000/svg">
<g id="logo / payment method / local vouchers / brand">
<g id="logo">
<path d="M89.1644 32.6794V48.4689L99.1226 44.6651L85.3068 10L28.8773 32.6615" fill="#6F9935"/>
<path d="M92.035 47.3744V29.7906H36.0182L31.7479 31.5131V32.6615H89.1642V48.4509L92.035 47.3744Z" fill="#658B30"/>
<path d="M88.1775 32.6793L84.7684 23.9054L84.6069 23.5286C82.9439 23.679 81.2696 23.4134 79.7348 22.7557C78.2 22.0979 76.853 21.0686 75.815 19.7606L75.4562 19.9042L44.6667 32.6614H88.1775V32.6793Z" fill="#AAC16B"/>
<path d="M51.5925 29.8084L44.6667 32.6793L88.1775 32.6793L87.0471 29.8084H51.5925Z" fill="#89B140"/>
<path d="M28.8773 32.6794L89.1644 32.6794V70H28.8773V32.6794Z" fill="#79A73A"/>
<path d="M34.619 45.1672C36.2171 44.691 37.6719 43.8252 38.8526 42.6477C40.0332 41.4701 40.9029 40.0177 41.3834 38.4208H76.6585C77.1364 40.021 78.0049 41.4771 79.1858 42.6579C80.3666 43.8388 81.8227 44.7073 83.4229 45.1852V57.5117C81.8248 57.988 80.37 58.8537 79.1893 60.0313C78.0086 61.2089 77.139 62.6613 76.6585 64.2582H41.3834C40.9055 62.658 40.037 61.2019 38.8561 60.0211C37.6752 58.8402 36.2191 57.9717 34.619 57.4938V45.1672Z" fill="#AAC16B"/>
<path d="M59.0208 58.4986C62.9846 58.4986 66.1978 55.2854 66.1978 51.3216C66.1978 47.3578 62.9846 44.1446 59.0208 44.1446C55.057 44.1446 51.8438 47.3578 51.8438 51.3216C51.8438 55.2854 55.057 58.4986 59.0208 58.4986Z" fill="#79A73A"/>
<path d="M43.2312 52.7572C44.024 52.7572 44.6666 52.1145 44.6666 51.3218C44.6666 50.529 44.024 49.8864 43.2312 49.8864C42.4385 49.8864 41.7958 50.529 41.7958 51.3218C41.7958 52.1145 42.4385 52.7572 43.2312 52.7572Z" fill="#79A73A"/>
<path d="M74.8102 52.7572C75.6029 52.7572 76.2456 52.1145 76.2456 51.3218C76.2456 50.529 75.6029 49.8864 74.8102 49.8864C74.0174 49.8864 73.3748 50.529 73.3748 51.3218C73.3748 52.1145 74.0174 52.7572 74.8102 52.7572Z" fill="#79A73A"/>
</g>
</g>
</svg>
