<svg width="128" height="80" viewBox="0 0 128 80" fill="none" xmlns="http://www.w3.org/2000/svg">
<g id="logo / payment method / perfect money / brand">
<g id="logo">
<path fill-rule="evenodd" clip-rule="evenodd" d="M31.4928 18.175C37.193 18.175 42.6598 20.4395 46.6904 24.4701C50.7211 28.5008 52.9855 33.9675 52.9855 39.6678C52.9855 45.368 50.7211 50.8347 46.6904 54.8654C42.6598 58.8961 37.193 61.1605 31.4928 61.1605C25.7925 61.1605 20.3258 58.8961 16.2951 54.8654C12.2644 50.8347 10 45.368 10 39.6678C10 33.9675 12.2644 28.5008 16.2951 24.4701C20.3258 20.4395 25.7925 18.175 31.4928 18.175Z" fill="#F00F0F"/>
<path fill-rule="evenodd" clip-rule="evenodd" d="M27.7393 32.6525L27.5606 32.9206L27.65 33.1887L28.0968 33.278L29.1692 33.5461C29.348 33.6355 29.5267 33.9036 29.6161 34.1717L29.7054 35.4228L29.6161 37.8357L29.4373 40.8742C29.348 42.4828 29.1692 46.3256 28.8118 47.4874L28.2755 48.0236L27.4712 48.2023L26.935 48.2917L26.8457 48.6491C26.8457 48.7385 26.8457 48.8279 27.0244 48.9172L28.2755 48.8279H30.8672L32.2077 48.9172L32.3864 48.6491L32.2077 48.2917L31.314 48.2023L30.5991 48.0236L30.4204 47.6661C30.2416 47.2193 30.1523 46.415 30.2416 45.9681V42.8403L30.331 40.1593L30.5097 38.0145L30.5991 35.8697H30.6885C30.9566 36.4059 31.2247 36.9421 31.4034 37.657L32.2077 39.355L35.1568 45.6107L35.9611 47.398C36.2003 47.9218 36.4092 48.4588 36.5867 49.0066H37.0335L37.7484 47.4874L39.7145 43.3765L41.8593 39.1762L42.4849 37.9251C42.7941 37.2607 43.1219 36.605 43.4679 35.959L43.5573 46.1469V47.398C43.4679 47.5767 43.4679 47.8448 43.1998 47.9342C43.1105 48.1129 42.8424 48.2023 42.3955 48.2023L41.6806 48.2917L41.5912 48.6491L41.6806 48.9172L43.2892 48.8279H46.0596L47.5788 48.9172L47.7576 48.6491L47.6682 48.2917L46.8639 48.2023C46.5064 48.2023 46.2383 48.1129 46.0596 47.9342L45.7021 47.3086V46.2362L45.3446 38.7294V35.6016L45.5234 34.2611C45.5234 33.993 45.7021 33.7249 45.9702 33.5461C46.1489 33.4568 46.5958 33.278 47.132 33.278L47.5788 33.1887L47.6682 32.9206L47.5788 32.6525H43.5573C43.5573 33.1887 43.3786 33.8142 43.0211 34.5292L41.6806 37.2995L39.3571 41.9466C38.8209 43.2871 38.2847 44.4489 37.4803 45.7L35.7824 42.3041L33.012 36.674L32.029 34.4398C31.7609 33.7249 31.6715 33.0993 31.7609 32.6525H27.7393ZM17.0153 45.2532L16.9259 47.2193C16.8366 48.0236 16.3004 48.2917 15.4961 48.381L14.9599 48.4704C14.8705 48.5598 14.8705 48.9172 15.0492 49.096L18.0877 49.0066L21.3943 49.096L21.4837 48.7385L21.3943 48.4704L20.6794 48.381C20.1432 48.2917 19.7857 48.2023 19.607 48.0236H19.5176C19.3389 47.8448 19.2495 47.5767 19.1601 47.2193L19.0707 45.2532V42.9297L17.0153 42.8403V45.2532ZM14.8705 32.9206L14.9599 33.278L15.8535 33.3674C16.211 33.4568 16.4791 33.5461 16.6578 33.7249C16.8366 33.8142 16.9259 34.0823 17.0153 34.4398V41.0529H19.0707V34.1717L19.1601 33.5461C19.1601 33.4568 19.3389 33.278 19.5176 33.278H20.5006C21.7518 33.278 22.7348 33.6355 23.4497 34.3504C24.0753 35.0654 24.4328 36.0484 24.4328 37.2102C24.5221 38.2826 24.1647 39.1762 23.6285 39.9805C23.0923 40.6061 22.3773 41.0529 21.3943 41.321C18.2413 41.5622 15.0744 41.5622 11.9214 41.321L16.5685 42.1253C18.9104 42.3903 21.2818 42.1775 23.5391 41.4998L25.3264 40.4274C25.6839 40.1593 26.0414 39.7124 26.3988 39.1762C26.8235 38.1824 26.8954 37.0733 26.6028 36.0329C26.3102 34.9926 25.6706 34.0835 24.7902 33.4568C24.1647 33.0993 23.5391 32.8312 22.7348 32.6525L19.9644 32.4737H17.194L15.0492 32.6525L14.8705 32.9206Z" fill="white"/>
<path d="M59.3753 30.597L61.252 30.7758V33.993C61.252 35.5122 61.5201 35.7803 63.1287 35.8697L63.5755 36.3165L63.1287 36.5846H57.9454L57.4092 36.3165L57.7667 36.0484C59.1072 35.7803 59.3753 35.5122 59.3753 34.0823V30.597ZM115.14 35.4228L114.962 35.8697C113.978 36.674 112.37 36.9421 111.297 36.4059C110.583 36.0484 110.314 35.4228 110.314 34.4398V29.3459C110.314 28.0054 110.314 28.0054 108.885 27.916L109.421 27.3798C110.314 27.1117 110.94 26.4862 111.297 25.6819L111.655 25.3244L111.923 25.8606C111.923 27.0224 111.923 26.8436 113.085 26.8436H114.693C114.962 26.8436 115.14 26.8436 115.14 27.2905C115.14 27.6479 115.051 27.7373 114.693 27.7373H112.638C112.191 27.7373 111.923 27.916 111.923 28.2735C111.923 30.0608 111.923 32.0269 112.102 33.8142C112.191 35.2441 113.353 35.7803 114.693 35.1547C114.783 34.976 114.962 34.976 115.051 34.976L115.14 35.4228ZM77.1593 27.7373L79.8403 26.4862C79.8403 27.1117 79.8403 27.6479 80.019 28.1841C80.4659 27.7373 80.9127 27.5586 81.2702 27.2905C81.8064 27.0224 82.3426 26.8436 82.9681 26.8436C83.5937 26.8436 83.8618 27.5586 83.5937 28.1841C83.3256 28.7203 82.7894 28.8991 82.3426 28.7203C82.1638 28.7203 82.0745 28.5416 81.8957 28.4522C80.9127 27.916 80.1084 28.2735 80.1084 29.4353V34.976C80.1084 35.5122 80.4659 35.7803 80.9127 35.7803H81.5383L81.8957 36.0484L81.5383 36.3165C80.4659 36.3165 79.4828 36.3165 78.3211 36.1378C77.9636 36.1378 77.6955 36.3165 77.2487 36.1378L76.8912 35.8697C76.9806 35.7803 76.9806 35.6016 77.1593 35.6016C78.3211 35.2441 78.3211 35.2441 78.3211 34.0823V29.4353C78.3211 28.8097 78.3211 28.1841 77.5168 27.7373C77.4274 28.0054 77.2487 27.916 77.1593 27.7373ZM99.6798 32.2056C99.6798 29.1672 101.646 27.1117 104.327 26.8436C105.221 26.7543 106.025 26.8436 106.918 27.0224C107.723 27.1117 107.991 27.6479 107.812 28.2735C107.812 28.5416 107.723 28.8097 107.455 28.8097L106.918 28.5416C106.114 27.7373 105.221 27.2905 104.059 27.5586C103.344 27.6479 102.718 28.1841 102.182 28.8097C100.484 31.2226 101.914 34.976 104.774 35.2441C105.935 35.4228 106.829 35.1547 107.544 34.2611L108.08 33.993V34.6185C107.276 36.1378 105.399 36.7633 103.433 36.5846C101.646 36.3165 100.395 34.8866 99.9479 33.1887L99.6798 32.2056ZM95.7476 30.3289H93.4241C92.5304 30.3289 92.5304 30.3289 92.5304 31.2226C92.6198 33.4568 93.7815 34.976 95.7476 35.4228C96.7307 35.5122 97.535 35.4228 98.2499 34.6185L98.7861 34.3504L98.6967 34.976C97.8031 36.4059 95.9264 37.0314 94.139 36.674C92.5304 36.3165 91.1899 34.976 90.9218 33.1887C90.6537 31.2226 90.9218 29.3459 92.5304 27.916C94.0497 26.4862 96.6413 26.3968 97.8924 27.6479L98.518 28.5416C99.0542 29.8821 98.7861 30.2396 97.535 30.2396L95.7476 30.3289ZM92.7091 29.614H96.3732C96.6413 29.614 97.2669 29.3459 97.2669 29.1672C97.2669 28.8097 97.0881 28.2735 96.9094 28.0054C96.1945 27.5586 95.4795 27.5586 94.6752 27.7373C93.6922 28.0054 92.9772 28.5416 92.7091 29.614ZM70.278 30.3289C70.0993 30.3289 69.8312 30.597 69.8312 30.7758C69.3844 32.9206 71.0823 35.2441 73.4059 35.4228C74.2102 35.4228 74.9251 35.1547 75.6401 34.6185C75.7294 34.4398 75.9975 34.3504 76.2656 34.3504C76.2656 34.6185 76.2656 34.8866 76.0869 35.1547C75.5944 35.819 74.9131 36.3193 74.1319 36.5904C73.3507 36.8614 72.5059 36.8905 71.7079 36.674C70.0993 36.4059 69.0269 35.4228 68.4907 33.8142C67.597 31.1332 68.9375 28.1841 71.3504 27.1117C72.7803 26.5755 74.0314 26.5755 75.3719 27.6479C75.7294 27.916 75.9975 28.2735 76.0869 28.7203C76.6231 29.8821 76.2656 30.3289 75.1039 30.3289H70.278ZM70.0993 29.614H73.4952C73.7633 29.614 74.2995 29.3459 74.4783 29.1672C74.657 28.7203 74.4783 28.1841 73.9421 27.916C73.4059 27.6479 72.7803 27.5586 72.2441 27.6479C71.0823 27.6479 70.0993 28.7203 70.0993 29.614ZM103.433 49.9896H100.842C100.573 49.9896 100.216 50.1684 100.216 50.3471C100.127 52.4025 101.11 54.8154 103.969 54.9942C104.684 54.9942 105.399 54.7261 106.025 54.1899L106.65 53.8324L106.382 54.6367C105.882 55.2916 105.2 55.7849 104.421 56.055C103.643 56.3252 102.802 56.3603 102.003 56.1559C100.216 55.7985 99.3223 54.6367 98.7861 52.9387C98.1605 50.079 99.5904 47.2193 102.182 46.5043C103.969 45.9681 105.667 46.5043 106.382 47.9342L106.65 48.381C107.008 49.4534 106.829 49.8109 105.667 49.8109C104.952 49.9896 104.237 49.9896 103.433 49.9896ZM100.484 49.1853H104.059C104.327 49.1853 104.952 48.9172 104.952 48.8279C104.952 48.381 104.863 47.9342 104.595 47.6661C103.969 46.9512 103.165 46.9512 102.271 47.398C101.378 47.6661 100.752 48.1129 100.484 49.1853ZM112.995 53.8324L114.783 49.5428C115.051 49.096 115.14 48.6491 115.319 48.1129C115.408 47.6661 115.319 47.398 114.783 47.2193L114.247 47.1299L113.978 46.7724L114.247 46.5937H117.732C117.911 46.5937 118 46.7724 118 46.8618C117.911 46.9512 117.911 47.2193 117.732 47.2193C116.749 47.398 116.302 48.1129 115.945 48.9172L110.404 60.5349C109.868 61.5179 109.331 61.9648 108.616 61.786C108.08 61.6967 107.723 61.4286 107.723 60.8924C107.723 60.3562 107.991 59.9093 108.438 59.9093C109.6 59.9987 110.046 59.1944 110.404 58.4795L110.493 58.3007C111.566 56.7815 111.655 55.2623 110.94 53.5643C110.136 52.0451 109.6 50.3471 109.153 48.6491C108.885 47.9342 108.438 47.2193 107.544 47.1299L107.187 46.7724L107.544 46.5043H111.297L111.655 46.7724L111.297 47.1299C110.404 47.4874 110.404 47.4874 110.672 48.381L112.191 52.76C112.727 53.2068 112.817 53.4749 112.995 53.8324ZM86.9003 51.2408C86.9003 54.1899 85.0236 56.2453 81.8957 56.424C79.2147 56.424 76.9806 54.3686 76.9806 51.5089C76.9806 48.5598 79.036 46.3256 82.0745 46.3256C84.8448 46.3256 86.9003 48.381 86.9003 51.2408ZM79.036 51.3301C79.036 52.4919 79.3041 53.9218 80.4659 54.9942C81.5383 55.8878 83.0575 55.8878 83.9512 54.8154C85.3811 53.0281 85.2917 49.4534 83.5937 47.7555C83.3484 47.5067 83.052 47.3143 82.725 47.1913C82.398 47.0684 82.0482 47.0179 81.6998 47.0434C81.3514 47.0689 81.0126 47.1698 80.707 47.339C80.4014 47.5082 80.1362 47.7418 79.9297 48.0236C79.3041 48.9172 79.036 50.079 79.036 51.3301Z" fill="#F00F0F"/>
<path d="M84.6661 27.916C84.7555 27.7373 84.8448 27.5586 85.113 27.5586C85.9173 27.2905 86.0066 26.7543 86.1854 25.95C86.2747 24.4307 86.5428 22.9115 87.4365 21.571C88.5983 20.0517 90.2962 19.2474 92.0836 19.7836C92.5304 19.873 92.9772 20.1411 93.2453 20.588C93.6922 20.9454 93.5135 21.3029 93.156 21.7497C92.7091 22.1072 92.3517 22.0178 91.9942 21.7497L91.458 21.2135C90.2962 20.3198 88.8664 20.588 88.5089 22.1072L87.9727 24.5201V26.7543C87.9727 27.2905 88.0621 27.3798 88.5983 27.3798H91.1005C91.3686 28.1841 91.1899 28.2735 90.3856 28.2735H88.5089C88.3302 28.2735 87.9727 28.5416 87.9727 28.8097V35.1547C87.9727 35.7803 88.2408 36.0484 88.8664 36.1378H89.2238L89.76 36.5846L89.2238 36.7633H86.0066C85.6492 36.7633 85.3811 36.9421 85.0236 36.7633L84.6661 36.5846L84.8448 36.3165C86.0066 35.8697 86.1854 35.7803 86.1854 34.6185V29.4353C86.1854 28.5416 86.1854 28.5416 85.2917 28.5416H84.8448L84.6661 27.916ZM61.252 28.8991H59.3753V23.1796C59.3753 22.0178 59.1072 21.8391 57.9454 21.571C57.6773 21.571 57.5879 21.3029 57.3198 21.2135C57.5879 21.0348 57.6773 20.9454 57.9454 20.9454H64.3798C67.5077 21.2135 69.1163 23.8052 68.4013 26.5755C67.8651 28.2735 66.614 28.8991 65.1841 29.4353C62.9499 30.2396 60.8051 30.2396 58.571 29.8821L55.6218 29.4353H59.7327C61.0732 29.4353 62.3244 29.3459 63.5755 29.0778C65.631 28.7203 66.7034 27.0224 66.4353 24.9669C66.1672 22.6434 65.0054 21.571 62.6818 21.4816H62.5925C61.252 21.4816 61.252 21.4816 61.252 22.7328V28.8991ZM90.3856 46.0575L90.5643 47.6661C91.1899 47.398 91.5474 46.9512 92.0836 46.8618C92.7091 46.5937 93.5135 46.3256 94.3177 46.3256C95.9264 46.3256 96.82 47.4874 96.82 49.1853V54.3686C96.82 55.0835 97.0881 55.3516 97.8924 55.5304L98.4286 55.8878L97.8924 56.1559H94.3177L93.7815 55.8878L94.3177 55.5304C94.9433 55.3516 95.2114 54.9942 95.2114 54.458V49.7215C95.2114 48.2917 94.3177 47.4874 92.8879 47.6661C91.458 47.6661 90.6537 48.381 90.6537 49.8109V54.3686C90.6537 55.2623 90.8324 55.3516 91.7261 55.6197L92.0836 55.9772L91.7261 56.2453H87.9727C87.794 56.2453 87.7046 56.1559 87.6152 55.9772L87.794 55.6197C88.8664 55.3516 88.8664 55.2623 88.8664 54.1899V49.2747C88.8664 48.6491 88.777 48.2917 88.2408 47.9342C87.794 47.6661 87.794 47.4874 88.3302 47.2193L90.3856 46.0575ZM73.2271 40.4274H76.6231L76.9806 40.6955L76.6231 41.0529H76.355C75.1039 41.321 74.8357 41.5891 74.8357 43.019L75.1039 54.1899C75.1039 55.0835 75.4613 55.5304 76.355 55.5304H76.6231L76.9806 55.7985L76.6231 55.9772H71.6185L71.1717 55.7985C71.3504 55.6197 71.4398 55.5304 71.6185 55.5304C73.0484 55.3516 73.0484 55.2623 73.0484 53.8324V43.7339L72.7803 43.6446C70.7249 47.7555 68.6694 52.0451 66.4353 56.2453C64.3798 51.8663 62.4137 47.7555 60.537 43.4658H60.3583C60.2689 44.8957 60.0902 46.2362 60.0902 47.6661L60.0008 53.2068V53.9218C60.0902 54.9942 60.3583 55.2623 61.4307 55.2623H61.6988L62.0563 55.5304L61.6988 55.7985H57.1411L56.7836 55.5304C56.873 55.3516 56.873 55.2623 57.0517 55.2623C58.571 54.8154 58.6603 54.7261 58.8391 53.2068L59.4646 42.7509C59.6434 41.2317 59.3753 41.2317 57.9454 40.7848L57.4092 40.4274C57.4986 40.2486 57.7667 40.1593 57.9454 40.1593H61.1626C62.3244 44.6276 65.0054 48.381 66.9715 52.6706C69.295 48.8279 71.6185 44.8064 73.2271 40.4274Z" fill="#F00F0F"/>
</g>
</g>
</svg>
