<svg width="128" height="80" viewBox="0 0 128 80" fill="none" xmlns="http://www.w3.org/2000/svg">
<g id="logo / payment method / icbc bank / black">
<g id="logo">
<path fill-rule="evenodd" clip-rule="evenodd" d="M103.594 47.3661V50.314H113.159V41.4688H107.276V38.5202H113.159V29.6649H103.594V32.6156H110.207V35.5709H104.312V44.4181H110.207V47.3661H103.594ZM86.5906 39.9981C86.5906 31.045 93.852 23.7756 102.808 23.7756C111.762 23.7756 119.025 31.045 119.025 39.9981C119.025 48.9546 111.762 56.2186 102.808 56.2186C93.852 56.2186 86.5906 48.9546 86.5906 39.9981ZM83.6198 39.9981C83.6198 29.3965 92.2051 20.8097 102.808 20.8097C113.409 20.8097 122 29.3965 122 39.9981C122 50.5998 113.409 59.1899 102.808 59.1899C92.2051 59.1899 83.6198 50.5998 83.6198 39.9981ZM102.106 32.6076V29.6583H92.5294V38.5082H98.3977V41.4601H92.5294V50.3087H102.106V47.3594H95.4769V44.4114H101.371V35.5562H95.4769V32.6076" fill="black"/>
<path fill-rule="evenodd" clip-rule="evenodd" d="M38.2369 41.6379V41.5897H45.3553C46.0056 41.5897 46.9417 41.694 47.6914 42.187C48.3901 42.6493 48.7474 43.3323 48.7474 44.2166C48.7474 44.921 48.5559 45.4722 48.1806 45.8529C47.4826 46.5546 46.2774 46.5533 45.3957 46.5533H38.2111V46.5098L38.2369 41.6379ZM38.2369 33.4566H44.7534C45.8996 33.4566 47.8207 33.4566 47.8207 35.7377C47.8207 36.5739 47.4607 37.1653 46.7514 37.4984C46.1117 37.7994 45.3129 37.8309 44.7693 37.8309H38.2369V33.4566ZM45.6198 50.377C48.0898 50.377 49.9533 49.7749 51.1571 48.5862C52.3935 47.3647 52.654 45.7947 52.654 44.6889C52.654 42.2727 51.6477 40.5923 49.6616 39.6979L49.5741 39.6612L49.6569 39.617C50.5525 39.1441 51.7385 38.1835 51.7385 35.3197C51.7385 33.7463 51.1458 32.3288 50.0673 31.3268C48.8853 30.2263 47.1604 29.6464 45.0848 29.6464L34.3271 29.6397V50.371" fill="black"/>
<path fill-rule="evenodd" clip-rule="evenodd" d="M6 50.3769H10.0981V29.6463H6V50.3769Z" fill="black"/>
<path fill-rule="evenodd" clip-rule="evenodd" d="M13.4254 39.8351C13.4254 41.8392 13.7622 43.4942 14.4549 44.893C15.0336 46.0583 15.849 47.0403 17.0264 47.9855C18.858 49.4539 21.4374 50.1997 24.6936 50.1997H30.3025V46.2871H25.0045C22.0572 46.2871 19.92 45.5512 18.6538 44.0983C17.7536 43.0681 17.2915 41.6767 17.2796 39.9655C17.263 38.1299 17.7761 36.6703 18.7996 35.6307C20.0804 34.3296 22.1679 33.6707 25.0045 33.6707H30.3025V29.7902H24.8892C23.0662 29.7902 21.5381 29.9748 20.2136 30.3481C18.8918 30.7233 17.8053 31.2826 16.8951 32.0559C15.6004 33.1576 13.4254 35.6307 13.4254 39.8351Z" fill="black"/>
<path fill-rule="evenodd" clip-rule="evenodd" d="M55.1267 39.8348C55.1267 41.835 55.4714 43.601 56.1562 45.0767C56.7489 46.3557 57.6126 47.4581 58.7263 48.3505C60.4479 49.7346 62.8848 50.3774 66.3936 50.3774H72.3068V46.4654H66.7058C63.7638 46.4654 61.6266 45.6975 60.3524 44.1836C59.4535 43.118 58.9915 41.6992 58.9802 39.9653C58.963 38.0788 59.494 36.5744 60.5533 35.4987C61.8414 34.1882 63.9103 33.524 66.7058 33.524H72.3068V29.6467H66.5878C64.7661 29.6467 63.2394 29.8294 61.9136 30.2033C60.5918 30.5779 59.5052 31.1345 58.5977 31.9084C57.5516 32.7955 55.1267 35.3442 55.1267 39.8348Z" fill="black"/>
</g>
</g>
</svg>
