<svg width="128" height="80" viewBox="0 0 128 80" fill="none" xmlns="http://www.w3.org/2000/svg">
<g id="logo / payment method / apple pay / brand">
<path id="bg - black" d="M105.045 8H22.9555C22.6136 8 22.2711 8 21.9298 8.00199C21.6413 8.00405 21.3535 8.00725 21.0657 8.0151C20.438 8.03208 19.8049 8.06912 19.185 8.18052C18.5552 8.29386 17.9692 8.47873 17.3975 8.76981C16.8355 9.05564 16.3209 9.42949 15.875 9.87559C15.4289 10.3217 15.055 10.8354 14.7693 11.3981C14.4781 11.9698 14.2931 12.556 14.1806 13.1862C14.0686 13.8063 14.0313 14.4392 14.0144 15.0663C14.0066 15.3541 14.0033 15.6419 14.0014 15.9297C13.9994 16.2717 14.0001 16.6135 14.0001 16.9561V63.0637C14.0001 63.4063 13.9994 63.7475 14.0014 64.0901C14.0033 64.3779 14.0066 64.6657 14.0144 64.9535C14.0313 65.58 14.0686 66.213 14.1806 66.8329C14.2931 67.4634 14.4781 68.0493 14.7693 68.6211C15.055 69.1838 15.4289 69.6981 15.875 70.1436C16.3209 70.5904 16.8355 70.9642 17.3975 71.2493C17.9692 71.5412 18.5552 71.7261 19.185 71.8394C19.8049 71.95 20.438 71.9877 21.0657 72.0047C21.3535 72.0112 21.6413 72.0151 21.9298 72.0164C22.2711 72.0191 22.6136 72.0191 22.9555 72.0191H105.045C105.386 72.0191 105.728 72.0191 106.07 72.0164C106.357 72.0151 106.645 72.0112 106.934 72.0047C107.561 71.9877 108.194 71.95 108.815 71.8394C109.444 71.7261 110.03 71.5412 110.602 71.2493C111.165 70.9642 111.678 70.5904 112.125 70.1436C112.57 69.6981 112.944 69.1838 113.23 68.6211C113.522 68.0493 113.707 67.4634 113.819 66.8329C113.931 66.213 113.967 65.58 113.984 64.9535C113.992 64.6657 113.996 64.3779 113.997 64.0901C114 63.7475 114 63.4063 114 63.0637V16.9561C114 16.6135 114 16.2717 113.997 15.9297C113.996 15.6419 113.992 15.3541 113.984 15.0663C113.967 14.4392 113.931 13.8063 113.819 13.1862C113.707 12.556 113.522 11.9698 113.23 11.3981C112.944 10.8354 112.57 10.3217 112.125 9.87559C111.678 9.42949 111.165 9.05564 110.602 8.76981C110.03 8.47873 109.444 8.29386 108.815 8.18052C108.194 8.06912 107.561 8.03208 106.934 8.0151C106.645 8.00725 106.357 8.00405 106.07 8.00199C105.728 8 105.386 8 105.045 8Z" fill="black"/>
<path id="bg - white" d="M105.045 10.1338L106.054 10.1357C106.328 10.1377 106.602 10.1406 106.877 10.1481C107.355 10.161 107.915 10.187 108.437 10.2805C108.89 10.3622 109.271 10.4864 109.636 10.6722C109.996 10.8553 110.326 11.0953 110.614 11.3832C110.904 11.673 111.144 12.0037 111.33 12.3681C111.514 12.7303 111.638 13.1088 111.719 13.5657C111.812 14.0817 111.838 14.643 111.851 15.1245C111.859 15.3962 111.862 15.6679 111.864 15.9462C111.866 16.2826 111.866 16.6189 111.866 16.956V63.0636C111.866 63.4007 111.866 63.7364 111.864 64.08C111.862 64.3517 111.859 64.6235 111.851 64.8957C111.838 65.3764 111.812 65.9374 111.718 66.4595C111.638 66.9101 111.515 67.2887 111.329 67.6527C111.144 68.0162 110.904 68.3466 110.616 68.6346C110.326 68.9246 109.997 69.1638 109.632 69.3486C109.27 69.5335 108.89 69.6576 108.441 69.7385C107.909 69.8333 107.325 69.8594 106.886 69.8713C106.61 69.8775 106.335 69.8813 106.053 69.8826C105.717 69.8852 105.38 69.8852 105.045 69.8852H22.9555C22.951 69.8852 22.9466 69.8852 22.9421 69.8852C22.6102 69.8852 22.2776 69.8852 21.9396 69.8826C21.6641 69.8813 21.3891 69.8776 21.1233 69.8716C20.6741 69.8594 20.0905 69.8334 19.5625 69.7391C19.1096 69.6576 18.7299 69.5335 18.3628 69.3462C18.0016 69.163 17.6727 68.924 17.3827 68.6335C17.0949 68.3461 16.8557 68.0168 16.6708 67.6528C16.4856 67.2892 16.3618 66.9094 16.2804 66.4534C16.1862 65.9323 16.1604 65.3736 16.1475 64.8961C16.1401 64.6227 16.137 64.3494 16.1352 64.0777L16.1339 63.2754L16.134 63.0636V16.956L16.1339 16.7442L16.1352 15.9436C16.137 15.6702 16.1401 15.3969 16.1475 15.1238C16.1604 14.6458 16.1862 14.0869 16.2811 13.5614C16.3619 13.1095 16.4856 12.7298 16.6717 12.3643C16.8552 12.0031 17.0948 11.6734 17.3842 11.3841C17.6723 11.0958 18.0023 10.8561 18.3658 10.6712C18.7289 10.4863 19.1094 10.3622 19.5623 10.2807C20.0842 10.1869 20.6443 10.161 21.124 10.148C21.3974 10.1406 21.6708 10.1377 21.9422 10.1358L22.9555 10.1338H105.045Z" fill="white"/>
<g id="logo">
<path d="M41.2994 29.5321C42.1556 28.4611 42.7366 27.0232 42.5834 25.5537C41.33 25.616 39.8005 26.3806 38.9149 27.4524C38.1198 28.3702 37.4161 29.8684 37.5996 31.2763C39.0066 31.3983 40.4123 30.573 41.2994 29.5321Z" fill="black"/>
<path d="M42.5674 31.5512C40.5241 31.4295 38.7868 32.7108 37.811 32.7108C36.8347 32.7108 35.3404 31.6125 33.7243 31.6421C31.6208 31.673 29.6689 32.8623 28.6015 34.754C26.4059 38.5381 28.0221 44.1514 30.1572 47.2334C31.194 48.7581 32.4436 50.437 34.09 50.3767C35.6457 50.3157 36.2555 49.3694 38.1464 49.3694C40.036 49.3694 40.5853 50.3767 42.232 50.3462C43.9397 50.3157 45.0074 48.8207 46.0442 47.2944C47.2336 45.5563 47.7206 43.878 47.7512 43.7858C47.7206 43.7553 44.4582 42.5038 44.428 38.7511C44.3972 35.6089 46.9893 34.1143 47.1113 34.0216C45.6475 31.8566 43.3603 31.6125 42.5674 31.5512Z" fill="black"/>
<path d="M60.359 27.2987C64.8001 27.2987 67.8926 30.36 67.8926 34.817C67.8926 39.2899 64.7365 42.3671 60.2476 42.3671H55.3305V50.1868H51.7778V27.2987L60.359 27.2987ZM55.3305 39.3851H59.4069C62.5 39.3851 64.2604 37.7198 64.2604 34.8329C64.2604 31.9463 62.5 30.2967 59.4228 30.2967H55.3305V39.3851Z" fill="black"/>
<path d="M68.8208 45.4443C68.8208 42.5256 71.0573 40.7334 75.0229 40.5113L79.5907 40.2417V38.9571C79.5907 37.1012 78.3376 35.9909 76.2443 35.9909C74.2611 35.9909 73.0239 36.9424 72.7228 38.4336H69.4872C69.6775 35.4197 72.2468 33.1992 76.3709 33.1992C80.4155 33.1992 83.0008 35.3405 83.0008 38.6872V50.1868H79.7174V47.4428H79.6384C78.671 49.2986 76.5612 50.4722 74.3725 50.4722C71.105 50.4722 68.8208 48.442 68.8208 45.4443ZM79.5907 43.9376V42.6211L75.4825 42.8747C73.4363 43.0176 72.2786 43.9216 72.2786 45.3492C72.2786 46.8082 73.484 47.76 75.324 47.76C77.7189 47.76 79.5907 46.1104 79.5907 43.9376Z" fill="black"/>
<path d="M86.1006 56.3253V53.5494C86.3539 53.6128 86.9248 53.6128 87.2106 53.6128C88.7966 53.6128 89.6533 52.9467 90.1764 51.2337C90.1764 51.2019 90.4781 50.2186 90.4781 50.2027L84.451 33.5005H88.1621L92.3817 47.0781H92.4447L96.6643 33.5005H100.281L94.0307 51.059C92.6038 55.1039 90.9541 56.4045 87.4963 56.4045C87.2106 56.4045 86.3539 56.3727 86.1006 56.3253Z" fill="black"/>
</g>
</g>
</svg>
