<svg width="128" height="80" viewBox="0 0 128 80" fill="none" xmlns="http://www.w3.org/2000/svg">
<g id="logo / payment method / przelewy24 / black">
<g id="logo">
<path d="M99.0223 44.2616H96.3472C96.3472 44.2616 96.6225 41.9995 97.1143 40.9177C97.547 39.8162 98.2158 39.0294 99.396 38.5966C100.557 38.1639 101.717 38.0655 104.018 38.0262C106.34 37.9869 107.126 38.2032 107.893 38.5376C108.641 38.8917 109.27 39.6785 109.447 40.3472C109.605 41.016 109.388 43.1404 109.388 43.1404C109.388 43.1404 109.074 45.3237 108.247 46.4646C107.421 47.6251 105.336 48.1562 105.336 48.1562L101.501 49.1987C101.501 49.1987 99.8484 49.6315 99.3567 49.8085C98.6474 50.0618 98.5036 50.1991 98.39 50.3076C98.3712 50.3254 98.3533 50.3425 98.3338 50.3592C97.9011 50.7133 97.7831 51.7952 97.7831 51.7952L97.606 52.8377L107.756 52.818L107.323 55.3751H94.4785C94.4785 55.3751 95.108 51.6575 95.226 51.1264C95.344 50.5756 95.6587 49.5528 96.4849 48.648C97.311 47.7628 98.7666 47.3301 98.7666 47.3301L101.147 46.6416C101.147 46.6416 104.176 45.8745 105.061 45.5795C105.435 45.4614 106.064 45.1861 106.3 44.773C106.556 44.3206 106.654 43.5928 106.654 43.5928L106.871 41.9602C106.871 41.9602 107.166 40.8783 106.025 40.7406C104.884 40.6226 104.471 40.603 103.35 40.5636C102.622 40.544 101.737 40.5636 101.029 40.6816C100.635 40.7603 100.301 40.8587 100.104 40.9767C99.4747 41.3307 99.1796 43.2191 99.1796 43.2191L99.0223 44.2616Z" fill="black"/>
<path fill-rule="evenodd" clip-rule="evenodd" d="M122.331 38.2623L120.522 49.0414H123L122.567 51.6182H120.109L119.479 55.4145H116.804L117.433 51.6182H108.759L109.211 48.9234L119.145 38.2623H122.331ZM112.28 49.0414H117.886L119.105 41.7635L112.28 49.0414Z" fill="black"/>
<path d="M76.4216 26.4604L79.5884 20.107C79.5884 20.107 86.5122 19.9693 92.4919 20.8938C98.4716 21.8183 103.94 23.2345 103.822 23.2935L88.6563 31.2205C88.6563 31.2205 85.1157 28.9781 80.7096 27.6012C78.2312 26.8734 76.4216 26.4604 76.4216 26.4604Z" fill="black"/>
<path d="M56.3779 23.4706L57.0466 27.1686C57.0466 27.1686 60.0955 26.3621 63.7344 25.9294C68.4355 25.2803 73.4317 25.9687 73.4317 25.9687L75.32 20.2448C75.32 20.2448 69.6354 20.6185 65.3474 21.4249C61.0593 22.2314 56.3779 23.4706 56.3779 23.4706Z" fill="black"/>
<path d="M42.2549 33.2465L38.4586 30.6894C38.4586 30.6894 41.8812 28.7421 46.4642 26.9128C51.0277 25.1032 53.4667 24.3361 53.4667 24.3361L54.2339 27.9553C54.2339 27.9553 49.8475 29.4306 47.3297 30.6108C44.7333 31.732 42.2549 33.2465 42.2549 33.2465Z" fill="black"/>
<path d="M24.6896 39.6588H32.8723C32.8723 39.6588 34.7016 38.1835 35.9998 37.2197C37.2981 36.2756 39.6781 34.761 39.6781 34.761L35.0557 32.5973C35.0557 32.5973 31.1414 35.0167 29.4891 36.1575C27.8762 37.2197 24.6896 39.6588 24.6896 39.6588Z" fill="black"/>
<path d="M94.7146 35.4889L91.3904 32.9515L110.372 25.6539C112.87 26.7751 114.227 27.3849 116.647 28.9585C117.591 29.5682 118.85 30.5517 119.164 30.8665C120.03 31.7319 120.856 32.5581 121.308 33.3449C122.036 34.6037 122.095 35.4889 122.095 35.4889H94.7146Z" fill="black"/>
<path fill-rule="evenodd" clip-rule="evenodd" d="M18.2182 38.7149C18.5526 38.8526 18.8476 39.0296 19.064 39.2459C19.1794 39.3613 19.2736 39.4873 19.3699 39.616C19.405 39.6629 19.4404 39.7102 19.4771 39.7574C19.7721 40.3081 19.8311 40.8786 19.8311 41.2523C19.8311 41.5277 19.7918 41.7047 19.7918 41.7047C19.7918 41.7047 19.7721 41.862 19.7328 42.0981C19.6738 42.6488 19.5164 43.6717 19.3787 44.5175C19.241 45.3043 19.0837 45.9337 19.0837 45.9337C19.0837 45.9337 18.6903 47.645 17.274 48.3925C15.8578 49.1399 13.8515 49.0613 13.8515 49.0613L8.69795 49.0416L7.65544 55.395H5L7.83247 38.2428H15.2677C15.2677 38.2428 15.4644 38.2428 15.7791 38.2625C16.1135 38.2821 16.5856 38.3215 17.0773 38.4001C17.4707 38.4788 17.8641 38.5772 18.2182 38.7149ZM16.4676 45.324C16.7823 43.6914 17.0183 42.3145 17.0183 42.2751C17.0183 42.2716 17.0196 42.2613 17.0215 42.2453C17.0305 42.1709 17.0542 41.9739 17.038 41.7637C17.0183 41.567 16.979 41.3506 16.8413 41.1933C16.743 41.0753 16.4282 40.9966 16.0348 40.9376C15.5628 40.8786 15.012 40.8589 14.5989 40.8589H13.9695L10.0748 40.8392L9.13069 46.5435L13.4384 46.5632C13.4384 46.5632 14.4219 46.6025 15.3267 46.4058C15.8775 46.2878 16.3496 45.9534 16.4676 45.324Z" fill="black"/>
<path d="M39.4617 43.0227L29.7054 43.0423L29.312 45.4421H35.5474L27.7384 52.9363L27.3254 55.3951H37.3964L37.7898 53.015H30.9446L39.1077 45.2454L39.4617 43.0227Z" fill="black"/>
<path d="M52.6603 38.2429H55.2174L52.3652 55.3951H49.8081L52.6603 38.2429Z" fill="black"/>
<path d="M68.7503 43.0227L66.2915 43.0423L67.5504 55.3951H70.5009L74.3169 46.7403L75.1824 55.3951H78.1918L83.6011 43.0227H81.044L77.287 51.7758L76.4019 43.0227H73.3727L69.6158 51.7365L68.7503 43.0227Z" fill="black"/>
<path fill-rule="evenodd" clip-rule="evenodd" d="M47.9591 43.1408C47.251 42.9048 46.0118 42.8654 44.9496 42.8654C43.9268 42.8851 43.4744 42.9245 43.081 43.0031C43.081 43.0031 41.2714 43.2589 40.2485 44.5374C39.2257 45.8159 38.911 48.5894 38.911 48.5894C38.911 48.5894 38.3012 51.6579 38.4782 52.6807C38.6553 53.7036 38.97 54.6477 40.1305 55.1002C41.291 55.5526 42.2745 55.5329 42.2745 55.5329C42.2745 55.5329 44.3399 55.6903 45.8938 55.3362C47.4477 54.9821 48.2739 53.8806 48.2739 53.8806C48.2739 53.8806 48.6476 53.4085 48.9033 52.8381C49.1171 52.3612 49.2071 52.0218 49.2424 51.8888C49.2493 51.8628 49.2541 51.8446 49.2574 51.8349L49.4147 51.1662H46.7593C46.7593 51.1662 46.6216 52.9168 45.1857 53.0741C43.796 53.2264 43.0512 53.1761 42.7372 53.1548L42.7073 53.1528C42.6832 53.1511 42.6495 53.1501 42.6082 53.1489C42.1763 53.1365 40.9079 53.1001 41.0157 51.9333V51.8546C41.0747 50.399 41.2517 50.0253 41.2517 50.0253L49.5721 50.0056L49.9261 47.9403C50.3785 45.5996 50.0835 43.8293 47.9591 43.1408ZM47.3887 47.6452H41.6844L41.9008 46.7404C41.9008 46.7404 42.0975 46.0323 42.4909 45.7373C42.8843 45.4422 43.3957 45.3832 43.8678 45.3439C44.3399 45.3045 45.5988 45.2062 46.6413 45.4225C46.9756 45.4816 47.31 45.6783 47.3887 45.9733C47.6051 46.6224 47.3887 47.6452 47.3887 47.6452Z" fill="black"/>
<path fill-rule="evenodd" clip-rule="evenodd" d="M60.6266 42.8654C61.6887 42.8654 62.928 42.9048 63.6361 43.1408C65.7801 43.8293 66.0555 45.6192 65.6031 47.96L65.249 50.0253L56.9286 50.045C56.9286 50.045 56.7516 50.4187 56.6926 51.8743V51.953C56.5849 53.1198 57.8533 53.1562 58.2851 53.1686C58.3265 53.1698 58.3601 53.1708 58.3842 53.1725C58.4334 53.1725 58.4952 53.1741 58.5707 53.1761C58.9478 53.1862 59.6663 53.2053 60.8626 53.0741C62.2985 52.9168 62.4362 51.1662 62.4362 51.1662H65.0916L64.9343 51.8349C64.9311 51.8445 64.9264 51.8624 64.9195 51.8881C64.8843 52.021 64.794 52.3612 64.5802 52.8381C64.3245 53.4085 63.9508 53.8806 63.9508 53.8806C63.9508 53.8806 63.1247 54.9625 61.5707 55.3362C60.0168 55.6903 57.9515 55.5329 57.9515 55.5329C57.9515 55.5329 56.968 55.5526 55.8074 55.1002C54.6469 54.6477 54.3322 53.7036 54.1552 52.6807C53.9781 51.6579 54.5879 48.5894 54.5879 48.5894C54.5879 48.5894 54.9026 45.8159 55.9255 44.5374C56.9483 43.2589 58.7579 43.0031 58.7579 43.0031C59.1513 42.9245 59.6037 42.8851 60.6266 42.8654ZM57.3614 47.6452H63.0656C63.0656 47.6452 63.282 46.6224 63.0656 45.9733C62.987 45.6783 62.6526 45.4816 62.3182 45.4225C61.2757 45.2062 60.0168 45.3045 59.5447 45.3439C59.0726 45.3832 58.5612 45.4422 58.1678 45.7373C57.7744 46.0323 57.5777 46.7404 57.5777 46.7404L57.3614 47.6452Z" fill="black"/>
<path d="M86.5319 43.0425L88.1645 52.0907L92.7869 43.0425L95.3834 43.0622L88.7153 55.9853C88.7153 55.9853 87.5154 58.326 86.7679 58.9161C86.0205 59.5062 85.5681 59.7816 84.9583 59.8406L84.813 59.8549C84.3038 59.9052 84.0453 59.9308 83.5224 59.8406L82.893 59.7226L83.2864 57.4212C83.2864 57.4212 84.3289 57.6179 84.9386 57.3622C85.5484 57.1262 86.0401 56.064 86.0401 56.064L86.3549 55.5329L83.9355 43.0031L86.5319 43.0425Z" fill="black"/>
<path d="M23.6274 43.8882C24.4536 43.4357 25.4371 43.0227 26.4599 43.0227H27.9548L27.5221 45.4224H26.1058C24.0798 45.4224 23.057 47.1337 22.8013 48.5106L21.6014 55.3361H18.8673L21.0507 43.0227H23.7651L23.6274 43.8882Z" fill="black"/>
</g>
</g>
</svg>
