<svg width="128" height="80" viewBox="0 0 128 80" fill="none" xmlns="http://www.w3.org/2000/svg">
<g id="logo / payment method / perfect money / white">
<g id="logo">
<path fill-rule="evenodd" clip-rule="evenodd" d="M46.6904 24.4701C42.6598 20.4395 37.193 18.175 31.4928 18.175C25.7925 18.175 20.3258 20.4395 16.2951 24.4701C12.2644 28.5008 10 33.9675 10 39.6678C10 45.368 12.2644 50.8347 16.2951 54.8654C20.3258 58.8961 25.7925 61.1605 31.4928 61.1605C37.193 61.1605 42.6598 58.8961 46.6904 54.8654C50.7211 50.8347 52.9855 45.368 52.9855 39.6678C52.9855 33.9675 50.7211 28.5008 46.6904 24.4701ZM27.5606 32.9205L27.7393 32.6524H31.7609C31.6715 33.0992 31.7609 33.7248 32.029 34.4397L33.012 36.6739L35.7824 42.304L37.4803 45.6999C38.2846 44.4488 38.8208 43.287 39.357 41.9465L41.6806 37.2994L43.0211 34.5291C43.3786 33.8141 43.5573 33.1886 43.5573 32.6524H47.5788L47.6682 32.9205L47.5788 33.1886L47.132 33.2779C46.5958 33.2779 46.1489 33.4567 45.9702 33.546C45.7021 33.7248 45.5234 33.9929 45.5234 34.261L45.3446 35.6015V38.7293L45.7021 46.2361V47.3085L46.0596 47.9341C46.2383 48.1128 46.5064 48.2022 46.8639 48.2022L47.6682 48.2916L47.7575 48.649L47.5788 48.9171L46.0596 48.8278H43.2892L41.6806 48.9171L41.5912 48.649L41.6806 48.2916L42.3955 48.2022C42.8424 48.2022 43.1105 48.1128 43.1998 47.9341C43.3965 47.8685 43.4489 47.7067 43.4982 47.5546C43.516 47.4994 43.5335 47.4455 43.5573 47.3979V46.1468L43.4679 35.9589C43.1219 36.6049 42.7941 37.2606 42.4849 37.925L41.8593 39.1761L39.7145 43.3764L37.7484 47.4873L37.0335 49.0065H36.5867C36.4092 48.4587 36.2003 47.9216 35.9611 47.3979L35.1568 45.6106L32.2077 39.3549L31.4034 37.6569C31.2247 36.942 30.9566 36.4058 30.6885 35.8696L30.5991 35.8696L30.5097 38.0144L30.331 40.1592L30.2416 42.8402V45.968C30.1523 46.4149 30.2416 47.2192 30.4204 47.666L30.5991 48.0235L31.314 48.2022L32.2077 48.2916L32.3864 48.649L32.2077 48.9171L30.8672 48.8278H28.2755L27.0244 48.9171C26.8457 48.8278 26.8457 48.7384 26.8457 48.649L26.935 48.2916L27.4712 48.2022L28.2755 48.0235L28.8117 47.4873C29.1379 46.4271 29.3153 43.1347 29.4117 41.3444C29.421 41.1727 29.4295 41.0149 29.4373 40.8741L29.616 37.8356L29.7054 35.4227L29.616 34.1716C29.5267 33.9035 29.3479 33.6354 29.1692 33.546L28.0968 33.2779L27.65 33.1886L27.5606 32.9205ZM16.9259 47.2192L17.0153 45.2531V42.8402L19.0707 42.9295V45.2531L19.1601 47.2192C19.2495 47.5766 19.3388 47.8447 19.5176 48.0235H19.6069C19.7857 48.2022 20.1431 48.2916 20.6793 48.3809L21.3943 48.4703L21.4837 48.7384L21.3943 49.0959L18.0877 49.0065L15.0492 49.0959C14.8705 48.9171 14.8705 48.5597 14.9599 48.4703L15.4961 48.3809C16.3004 48.2916 16.8366 48.0235 16.9259 47.2192ZM14.9599 33.2779L14.8705 32.9205L15.0492 32.6524L17.194 32.4736H19.9644L22.7348 32.6524C23.5391 32.8311 24.1647 33.0992 24.7902 33.4567C25.6706 34.0834 26.3102 34.9925 26.6028 36.0328C26.8954 37.0732 26.8235 38.1823 26.3988 39.1761C26.0414 39.7123 25.6839 40.1592 25.3264 40.4273L23.5391 41.4997C21.2818 42.1774 18.9104 42.3902 16.5685 42.1252L11.9214 41.3209C15.0744 41.5621 18.2413 41.5621 21.3943 41.3209C22.3773 41.0528 23.0923 40.606 23.6285 39.9804C24.1647 39.1761 24.5221 38.2825 24.4328 37.2101C24.4328 36.0483 24.0753 35.0653 23.4497 34.3503C22.7348 33.6354 21.7518 33.2779 20.5006 33.2779H19.5176C19.3388 33.2779 19.1601 33.4567 19.1601 33.546L19.0707 34.1716V41.0528H17.0153V34.4397C16.9259 34.0822 16.8366 33.8141 16.6578 33.7248C16.4791 33.546 16.211 33.4567 15.8535 33.3673L14.9599 33.2779Z" fill="white"/>
<path d="M59.3753 30.597L61.252 30.7758V33.993C61.252 35.5122 61.5201 35.7803 63.1287 35.8697L63.5755 36.3165L63.1287 36.5846H57.9454L57.4092 36.3165L57.7667 36.0484C59.1072 35.7803 59.3753 35.5122 59.3753 34.0823V30.597Z" fill="white"/>
<path d="M115.14 35.4228L114.962 35.8697C113.978 36.674 112.37 36.9421 111.297 36.4059C110.583 36.0484 110.314 35.4228 110.314 34.4398V29.3459C110.314 28.6908 110.314 28.3559 110.148 28.1742C109.973 27.9841 109.616 27.9617 108.885 27.916L109.421 27.3798C110.314 27.1117 110.94 26.4862 111.297 25.6819L111.655 25.3244L111.923 25.8606C111.923 26.4115 111.923 26.661 112.047 26.771C112.149 26.8621 112.337 26.8577 112.679 26.8496C112.796 26.8468 112.93 26.8436 113.085 26.8436H114.693C114.962 26.8436 115.14 26.8436 115.14 27.2905C115.14 27.6479 115.051 27.7373 114.693 27.7373H112.638C112.191 27.7373 111.923 27.916 111.923 28.2735C111.923 30.0608 111.923 32.0269 112.102 33.8142C112.191 35.2441 113.353 35.7803 114.693 35.1547C114.783 34.976 114.962 34.976 115.051 34.976L115.14 35.4228Z" fill="white"/>
<path d="M77.1593 27.7373L79.8403 26.4862C79.8403 27.1117 79.8403 27.6479 80.019 28.1841C80.3098 27.8933 80.6007 27.7161 80.8668 27.5538C81.0096 27.4668 81.1454 27.3841 81.2702 27.2905C81.8064 27.0224 82.3426 26.8436 82.9681 26.8436C83.5937 26.8436 83.8618 27.5586 83.5937 28.1841C83.3256 28.7203 82.7894 28.8991 82.3426 28.7203C82.2343 28.7203 82.1589 28.6548 82.0765 28.5832C82.0228 28.5366 81.9662 28.4875 81.8957 28.4522C80.9127 27.916 80.1084 28.2735 80.1084 29.4353V34.976C80.1084 35.5122 80.4659 35.7803 80.9127 35.7803H81.5383L81.8957 36.0484L81.5383 36.3165C80.4659 36.3165 79.4828 36.3165 78.3211 36.1378C78.2019 36.1378 78.0927 36.1576 77.9835 36.1775C77.765 36.2172 77.5465 36.2569 77.2487 36.1378L76.8912 35.8697C76.921 35.8399 76.9408 35.8002 76.9607 35.7604C77.0004 35.681 77.0401 35.6016 77.1593 35.6016C77.7499 35.4199 78.0402 35.3305 78.183 35.134C78.3211 34.9439 78.3211 34.6535 78.3211 34.0823V29.4353C78.3211 28.8097 78.3211 28.1841 77.5168 27.7373C77.4274 28.0054 77.2487 27.916 77.1593 27.7373Z" fill="white"/>
<path d="M99.6798 32.2056C99.6798 29.1672 101.646 27.1117 104.327 26.8436C105.221 26.7543 106.025 26.8436 106.918 27.0224C107.723 27.1117 107.991 27.6479 107.812 28.2735C107.812 28.5416 107.723 28.8097 107.455 28.8097L106.918 28.5416C106.114 27.7373 105.221 27.2905 104.059 27.5586C103.344 27.6479 102.718 28.1841 102.182 28.8097C100.484 31.2226 101.914 34.976 104.774 35.2441C105.935 35.4228 106.829 35.1547 107.544 34.2611L108.08 33.993V34.6185C107.276 36.1378 105.399 36.7633 103.433 36.5846C101.646 36.3165 100.395 34.8866 99.9479 33.1887L99.6798 32.2056Z" fill="white"/>
<path fill-rule="evenodd" clip-rule="evenodd" d="M95.7476 30.3289H93.4241C92.9772 30.3289 92.7538 30.3289 92.6421 30.4406C92.5304 30.5524 92.5304 30.7758 92.5304 31.2226C92.6198 33.4568 93.7815 34.976 95.7476 35.4228C96.7307 35.5122 97.535 35.4228 98.2499 34.6185L98.7861 34.3504L98.6967 34.976C97.8031 36.4059 95.9264 37.0314 94.139 36.674C92.5304 36.3165 91.1899 34.976 90.9218 33.1887C90.6537 31.2226 90.9218 29.3459 92.5304 27.916C94.0497 26.4862 96.6413 26.3968 97.8924 27.6479L98.518 28.5416C99.0542 29.8821 98.7861 30.2396 97.535 30.2396L95.7476 30.3289ZM92.7091 29.614H96.3732C96.6413 29.614 97.2669 29.3459 97.2669 29.1672C97.2669 28.8097 97.0881 28.2735 96.9094 28.0054C96.1945 27.5586 95.4795 27.5586 94.6752 27.7373C93.6922 28.0054 92.9772 28.5416 92.7091 29.614Z" fill="white"/>
<path fill-rule="evenodd" clip-rule="evenodd" d="M70.278 30.3289C70.0993 30.3289 69.8312 30.597 69.8312 30.7758C69.3844 32.9206 71.0823 35.2441 73.4059 35.4228C74.2102 35.4228 74.9251 35.1547 75.6401 34.6185C75.7294 34.4398 75.9975 34.3504 76.2656 34.3504C76.2656 34.6185 76.2656 34.8866 76.0869 35.1547C75.5944 35.819 74.9131 36.3193 74.1319 36.5904C73.3507 36.8614 72.5059 36.8905 71.7079 36.674C70.0993 36.4059 69.0269 35.4228 68.4907 33.8142C67.597 31.1332 68.9375 28.1841 71.3504 27.1117C72.7803 26.5755 74.0314 26.5755 75.3719 27.6479C75.7294 27.916 75.9975 28.2735 76.0869 28.7203C76.6231 29.8821 76.2656 30.3289 75.1039 30.3289H70.278ZM70.0993 29.614H73.4952C73.7633 29.614 74.2995 29.3459 74.4783 29.1672C74.657 28.7203 74.4783 28.1841 73.9421 27.916C73.4059 27.6479 72.7803 27.5586 72.2441 27.6479C71.0823 27.6479 70.0993 28.7203 70.0993 29.614Z" fill="white"/>
<path fill-rule="evenodd" clip-rule="evenodd" d="M103.433 49.9896H100.842C100.573 49.9896 100.216 50.1684 100.216 50.3471C100.127 52.4025 101.11 54.8154 103.969 54.9942C104.684 54.9942 105.399 54.7261 106.025 54.1899L106.65 53.8324L106.382 54.6367C105.882 55.2916 105.2 55.7849 104.421 56.055C103.643 56.3252 102.802 56.3603 102.003 56.1559C100.216 55.7985 99.3223 54.6367 98.7861 52.9387C98.1605 50.079 99.5904 47.2193 102.182 46.5043C103.969 45.9681 105.667 46.5043 106.382 47.9342L106.65 48.381C107.008 49.4534 106.829 49.8109 105.667 49.8109C104.952 49.9896 104.237 49.9896 103.433 49.9896ZM100.484 49.1853H104.059C104.327 49.1853 104.952 48.9172 104.952 48.8279C104.952 48.381 104.863 47.9342 104.595 47.6661C103.969 46.9512 103.165 46.9512 102.271 47.398C101.378 47.6661 100.752 48.1129 100.484 49.1853Z" fill="white"/>
<path d="M112.995 53.8324L114.783 49.5428C114.982 49.2114 115.082 48.88 115.194 48.5121C115.233 48.384 115.273 48.2514 115.319 48.1129C115.408 47.6661 115.319 47.398 114.783 47.2193L114.247 47.1299L113.978 46.7724L114.247 46.5937H117.732C117.911 46.5937 118 46.7724 118 46.8618C117.968 46.8939 117.947 46.949 117.926 47.0064C117.888 47.1091 117.846 47.2193 117.732 47.2193C116.749 47.398 116.302 48.1129 115.945 48.9172L110.404 60.5349C109.868 61.5179 109.331 61.9648 108.616 61.786C108.08 61.6967 107.723 61.4286 107.723 60.8924C107.723 60.3562 107.991 59.9093 108.438 59.9093C109.6 59.9987 110.046 59.1944 110.404 58.4795L110.493 58.3007C111.566 56.7815 111.655 55.2623 110.94 53.5643C110.136 52.0451 109.6 50.3471 109.153 48.6491C108.885 47.9342 108.438 47.2193 107.544 47.1299L107.187 46.7724L107.544 46.5043H111.297L111.655 46.7724L111.297 47.1299C110.846 47.3105 110.622 47.3999 110.547 47.5594C110.472 47.7156 110.539 47.939 110.672 48.381L112.191 52.76C112.667 53.1562 112.791 53.4119 112.937 53.714C112.956 53.7526 112.975 53.7919 112.995 53.8324Z" fill="white"/>
<path fill-rule="evenodd" clip-rule="evenodd" d="M86.9003 51.2408C86.9003 54.1899 85.0236 56.2453 81.8957 56.424C79.2147 56.424 76.9806 54.3686 76.9806 51.5089C76.9806 48.5598 79.036 46.3256 82.0745 46.3256C84.8448 46.3256 86.9003 48.381 86.9003 51.2408ZM79.036 51.3301C79.036 52.4919 79.3041 53.9218 80.4659 54.9942C81.5383 55.8878 83.0575 55.8878 83.9512 54.8154C85.3811 53.0281 85.2917 49.4534 83.5937 47.7555C83.3484 47.5067 83.052 47.3143 82.725 47.1913C82.398 47.0684 82.0482 47.0179 81.6998 47.0434C81.3514 47.0689 81.0126 47.1698 80.707 47.339C80.4014 47.5082 80.1362 47.7418 79.9297 48.0236C79.3041 48.9172 79.036 50.079 79.036 51.3301Z" fill="white"/>
<path d="M85.113 27.5586C84.8448 27.5586 84.7555 27.7373 84.6661 27.916L84.8448 28.5416H85.2917C85.7385 28.5416 85.9619 28.5416 86.0737 28.6533C86.1854 28.765 86.1854 28.9884 86.1854 29.4353V34.6185C86.1854 35.7803 86.0066 35.8697 84.8448 36.3165L84.6661 36.5846L85.0236 36.7633C85.2584 36.8807 85.4546 36.8439 85.663 36.8048C85.7718 36.7844 85.884 36.7633 86.0066 36.7633H89.2238L89.76 36.5846L89.2238 36.1378H88.8664C88.2408 36.0484 87.9727 35.7803 87.9727 35.1547V28.8097C87.9727 28.5416 88.3302 28.2735 88.5089 28.2735H90.3856C91.1899 28.2735 91.3686 28.1841 91.1005 27.3798H88.5983C88.0621 27.3798 87.9727 27.2905 87.9727 26.7543V24.5201L88.5089 22.1072C88.8664 20.588 90.2962 20.3198 91.458 21.2135L91.9942 21.7497C92.3517 22.0178 92.7091 22.1072 93.156 21.7497C93.5135 21.3029 93.6922 20.9454 93.2453 20.588C92.9772 20.1411 92.5304 19.873 92.0836 19.7836C90.2962 19.2474 88.5983 20.0517 87.4365 21.571C86.5428 22.9115 86.2747 24.4307 86.1854 25.95L86.1656 26.0393C85.9989 26.7941 85.8871 27.3005 85.113 27.5586Z" fill="white"/>
<path d="M59.3753 28.8991H61.252V22.7328C61.252 21.4816 61.252 21.4816 62.5925 21.4816H62.6818C65.0054 21.571 66.1672 22.6434 66.4353 24.9669C66.7034 27.0224 65.631 28.7203 63.5755 29.0778C62.3244 29.3459 61.0732 29.4353 59.7327 29.4353H55.6218L58.571 29.8821C60.8051 30.2396 62.9499 30.2396 65.1841 29.4353C66.614 28.8991 67.8651 28.2735 68.4013 26.5755C69.1163 23.8052 67.5077 21.2135 64.3798 20.9454H57.9454C57.7132 20.9454 57.6151 21.0124 57.4188 21.1465C57.3885 21.1672 57.3557 21.1896 57.3198 21.2135C57.4382 21.253 57.5217 21.3273 57.6012 21.398C57.7017 21.4874 57.7957 21.571 57.9454 21.571C59.1072 21.8391 59.3753 22.0178 59.3753 23.1796V28.8991Z" fill="white"/>
<path d="M90.5643 47.6661L90.3856 46.0575L88.3302 47.2193C87.794 47.4874 87.794 47.6661 88.2408 47.9342C88.777 48.2917 88.8664 48.6491 88.8664 49.2747V54.1899C88.8664 55.2623 88.8664 55.3516 87.794 55.6197L87.6152 55.9772C87.7046 56.1559 87.794 56.2453 87.9727 56.2453H91.7261L92.0836 55.9772L91.7261 55.6197C90.8324 55.3516 90.6537 55.2623 90.6537 54.3686V49.8109C90.6537 48.381 91.458 47.6661 92.8879 47.6661C94.3177 47.4874 95.2114 48.2917 95.2114 49.7215V54.458C95.2114 54.9942 94.9433 55.3516 94.3177 55.5304L93.7815 55.8878L94.3177 56.1559H97.8924L98.4286 55.8878L97.8924 55.5304C97.0881 55.3516 96.82 55.0835 96.82 54.3686V49.1853C96.82 47.4874 95.9264 46.3256 94.3177 46.3256C93.5135 46.3256 92.7091 46.5937 92.0836 46.8618C91.7776 46.9128 91.5298 47.0802 91.2573 47.2643C91.0521 47.4029 90.833 47.551 90.5643 47.6661Z" fill="white"/>
<path d="M76.6231 40.4274H73.2271C71.6185 44.8064 69.295 48.8279 66.9715 52.6706C66.2928 51.1899 65.529 49.7732 64.7719 48.3688C63.3355 45.7047 61.9234 43.0852 61.1626 40.1593H57.9454C57.7667 40.1593 57.4986 40.2486 57.4092 40.4274L57.9454 40.7848C58.017 40.8072 58.0856 40.8285 58.1515 40.8488C59.401 41.2355 59.6344 41.3077 59.4646 42.7509L58.8391 53.2068C58.6603 54.7261 58.571 54.8154 57.0517 55.2623C56.9058 55.2623 56.879 55.3218 56.8254 55.441C56.8134 55.4677 56.8 55.4976 56.7836 55.5304L57.1411 55.7985H61.6988L62.0563 55.5304L61.6988 55.2623H61.4307C60.3583 55.2623 60.0902 54.9942 60.0008 53.9218V53.2068L60.0902 47.6661C60.0902 46.7257 60.1675 45.824 60.2459 44.9101C60.2866 44.4345 60.3277 43.9552 60.3583 43.4658H60.537C62.0848 47.0037 63.6934 50.42 65.3628 53.9653L65.3665 53.9732C65.72 54.7239 66.0763 55.4805 66.4353 56.2453C68.0355 53.2368 69.5441 50.1825 71.0266 47.1808C71.6139 45.9919 72.1972 44.8109 72.7803 43.6446L73.0484 43.7339V53.8324C73.0484 55.2623 73.0484 55.3516 71.6185 55.5304C71.4398 55.5304 71.3504 55.6197 71.1717 55.7985L71.6185 55.9772H76.6231L76.9806 55.7985L76.6231 55.5304H76.355C75.4613 55.5304 75.1039 55.0835 75.1039 54.1899L74.8357 43.019C74.8357 41.5891 75.1039 41.321 76.355 41.0529H76.6231L76.9806 40.6955L76.6231 40.4274Z" fill="white"/>
</g>
</g>
</svg>
