<svg width="128" height="80" viewBox="0 0 128 80" fill="none" xmlns="http://www.w3.org/2000/svg">
<g id="logo / payment method / paysafecard / brand">
<path id="wordmark" d="M25.7336 35.7427C27.3789 35.7427 28.2189 36.6626 28.2498 38.4516V43.9656C28.2334 44.5928 27.9643 45.1873 27.5026 45.6109C27.0553 46.0764 26.4408 46.3454 25.7936 46.3563H22.2556V50.3251H19.6376V38.5552C19.6067 37.8243 19.8231 37.1026 20.2521 36.5099C20.4812 36.2808 20.7521 36.0972 21.0484 35.9681C21.3466 35.8227 21.6702 35.7463 22.0011 35.7427H25.7336ZM43.6906 35.7427V42.8203C43.6906 43.3911 43.916 43.6675 44.3869 43.6675H46.2377C46.445 43.6711 46.6468 43.5947 46.8013 43.4529C46.9468 43.3493 47.0322 43.1821 47.0358 43.0039V35.7427H49.623V47.4326C49.6411 48.1689 49.4048 48.8907 48.9575 49.4761C48.523 50.0087 47.8667 50.3087 47.1777 50.2851H41.0435V47.6453H46.2704C46.4686 47.6344 46.6559 47.5544 46.8013 47.4217C46.9359 47.3181 47.014 47.1599 47.0158 46.9926V46.3563H43.6724C43.3234 46.3691 42.9761 46.3091 42.6489 46.1836C42.3361 46.0618 42.0543 45.8746 41.8216 45.6309C41.5744 45.3764 41.3835 45.0746 41.258 44.7419C41.1308 44.4147 41.069 44.0693 41.0762 43.7184V35.7445H43.6942L43.6906 35.7427ZM96.0418 35.7536V36.3772H92.0929C91.5166 36.3445 90.9439 36.4954 90.4567 36.8062C90.0149 37.2135 89.7913 37.8043 89.8549 38.4007V43.4129C89.8549 43.7584 89.9058 44.1038 90.0076 44.4347C90.1276 44.7601 90.3276 45.0473 90.5894 45.2746C90.8312 45.4782 91.1203 45.62 91.4293 45.6818C91.7348 45.7455 92.0475 45.7764 92.3602 45.7746H96.0927V46.4091H92.2984V46.3581C91.9348 46.3581 91.5712 46.3218 91.2148 46.2545C90.8367 46.1818 90.4858 46.0109 90.1912 45.7637C89.8585 45.4928 89.6022 45.1419 89.4458 44.7419C89.2968 44.3238 89.224 43.8856 89.2295 43.4439V38.4316C89.2204 38.0861 89.2604 37.7407 89.3531 37.4098C89.4622 37.0662 89.6513 36.7553 89.9058 36.5008C90.1858 36.2063 90.5385 35.9918 90.9276 35.8754C91.293 35.79 91.6675 35.7482 92.042 35.7536H96.0418ZM36.2965 35.7427C38.0292 35.7427 38.9091 36.5808 38.9364 38.2588V43.8729C38.9382 44.5183 38.7055 45.1455 38.2819 45.6309C37.8455 46.1109 37.2219 46.3763 36.5729 46.3581H32.9949C31.246 46.3581 30.366 45.54 30.3351 43.9638V41.7985C30.2515 41.1041 30.4915 40.4096 30.986 39.9169C31.4823 39.4224 32.1768 39.186 32.8713 39.2733H36.3893V39.017L36.3384 39.0479C36.3384 38.6388 36.1238 38.4552 35.642 38.4661H30.3769V35.7409H36.2965V35.7427ZM59.6768 35.7227V38.4134H55.0608C54.519 38.4134 54.2536 38.577 54.2536 38.9042V39.137C54.2536 39.486 54.5299 39.6496 55.0808 39.6496H57.3825C57.9824 39.6624 58.5533 39.9223 58.9569 40.3641C59.3896 40.8041 59.6332 41.3949 59.6332 42.0112V43.9656C59.6023 44.6019 59.3351 45.2019 58.886 45.6528C58.686 45.8891 58.4388 46.08 58.1588 46.2145C57.8297 46.32 57.4843 46.3672 57.137 46.3581H51.6555V43.6675H56.3098C56.7389 43.6675 56.9534 43.4857 56.9734 43.1584V42.9221C56.9716 42.8403 56.9498 42.7585 56.9116 42.6857C56.7989 42.4821 56.677 42.3803 56.5243 42.3803H54.2117C53.5572 42.3803 52.9264 42.1276 52.4537 41.6731C52.0064 41.2968 51.741 40.7459 51.7265 40.1605V38.1152C51.7265 36.5481 52.5755 35.75 54.2736 35.7227H59.6732H59.6768ZM67.4582 35.7427C69.1853 35.7427 70.0653 36.6117 70.0853 38.2588V43.8729C70.098 44.5183 69.8671 45.1455 69.4417 45.6309C69.0053 46.1109 68.3817 46.3763 67.7327 46.3581H64.1438C62.4058 46.3581 61.5167 45.54 61.4949 43.9638V41.7985C61.4131 41.1095 61.6494 40.4223 62.1385 39.9296C62.6257 39.4387 63.313 39.1951 64.002 39.2733H67.4782V39.017L67.4982 39.0479C67.4982 38.6388 67.2836 38.4552 66.7928 38.4661H61.5367V35.7409H67.4582V35.7427ZM76.683 31.7958V34.3937H75.6595C75.1068 34.3937 74.8304 34.6682 74.8213 35.1809V35.7427H76.6812V38.4334H74.8304V46.3581H72.1833V34.2283C72.1779 33.5556 72.4742 32.9139 72.9905 32.4812C73.5669 32.0121 74.2941 31.7685 75.0359 31.7958H76.683ZM80.7919 35.7427H84.3116C85.0025 35.6772 85.6897 35.9318 86.1715 36.4335C86.6533 36.9353 86.8806 37.6298 86.786 38.3188V40.4368L80.8755 42.7585V42.9221C80.8609 43.1093 80.9246 43.293 81.0482 43.4329C81.1027 43.5729 81.2373 43.6657 81.3864 43.6693H86.7551V46.3581H81.0482C80.6373 46.3727 80.2264 46.3218 79.8319 46.2036C79.5174 46.1036 79.232 45.9327 78.9938 45.7037C78.732 45.4637 78.532 45.1655 78.412 44.8346C78.2884 44.4347 78.232 44.0165 78.2484 43.5966V38.2279C78.1757 37.5371 78.4229 36.8535 78.9211 36.3699C79.4156 35.8863 80.1064 35.6554 80.7937 35.7427H80.7919ZM103.792 35.6809C104.241 35.6754 104.69 35.71 105.132 35.7827C105.338 35.8227 105.532 35.9027 105.705 36.019C105.907 36.1463 106.081 36.3136 106.217 36.5099C106.694 37.1208 106.945 37.8807 106.923 38.657V43.4639C106.923 43.8056 106.894 44.1474 106.841 44.4856C106.756 44.8655 106.576 45.2164 106.319 45.5091C105.796 46.08 105.047 46.3909 104.274 46.3581H101.203C100.472 46.3872 99.7597 46.1254 99.2198 45.6309C98.7489 45.1764 98.4725 44.5619 98.4416 43.9165V42.0312C98.3453 41.2786 98.598 40.5205 99.127 39.9751C99.6561 39.4297 100.407 39.1551 101.163 39.2297H106.357V38.5243C106.37 37.9716 106.194 37.4298 105.858 36.9899C105.672 36.7281 105.412 36.5281 105.11 36.4172C104.776 36.3372 104.432 36.299 104.087 36.3045H98.4125V35.6809H103.79H103.792ZM113.592 35.6809V36.3045H112.792C111.341 36.3045 110.624 37.1226 110.655 38.6879V46.3581H110.021V38.6879C110.021 36.6426 110.952 35.6809 112.893 35.6809H113.59H113.592ZM123.971 32.2139V43.3929H124C123.94 45.4382 122.876 46.3981 120.789 46.3563H118.468C118.026 46.3618 117.584 46.32 117.15 46.2345C116.708 46.1036 116.311 45.8527 116.004 45.5073C115.75 45.2164 115.571 44.8637 115.482 44.4856C115.377 44.1038 115.337 43.7056 115.359 43.3111V38.737C115.359 36.6917 116.382 35.67 118.428 35.67H123.345V32.2139H123.971ZM123.376 36.3045H118.428C118.082 36.2972 117.737 36.339 117.404 36.4281C117.07 36.5154 116.768 36.7044 116.546 36.9699C116.311 37.1898 116.142 37.4698 116.055 37.7771C115.951 38.1079 115.91 38.4552 115.931 38.8006V43.6893C115.855 44.3292 116.128 44.9619 116.648 45.3437C116.888 45.4891 117.15 45.5946 117.424 45.6528C117.742 45.7382 118.068 45.78 118.397 45.7746H120.555C121.258 45.8018 121.955 45.6055 122.538 45.211C123.084 44.7674 123.378 44.0838 123.325 43.382L123.376 36.3045ZM106.297 39.8533H101.052C100.503 39.8423 99.9724 40.0532 99.5797 40.435C99.2488 40.8023 99.0543 41.2677 99.027 41.7567V43.6057C99.0234 43.8911 99.0579 44.1765 99.1289 44.4529C99.2052 44.7401 99.3779 44.9892 99.6197 45.1601C100.038 45.5237 100.571 45.7237 101.123 45.7218H104.305C105.632 45.7218 106.35 45.0055 106.35 43.6147L106.297 39.8514V39.8533ZM25.0282 38.4316H22.9829C22.7756 38.4261 22.5756 38.5079 22.4356 38.6588C22.3302 38.7715 22.2647 38.9152 22.2465 39.066V42.8803C22.2247 43.1002 22.3065 43.3166 22.4647 43.4711C22.6247 43.6238 22.8465 43.6966 23.0647 43.6675H24.9355C25.1227 43.6711 25.3009 43.5929 25.4263 43.4529C25.5536 43.3475 25.6263 43.1893 25.6209 43.0239V39.077C25.6209 38.6588 25.4063 38.4425 25.0282 38.4316ZM33.064 41.8985C32.9549 42.0694 32.9095 42.2712 32.9331 42.4712L32.9531 43.1366C32.9531 43.2857 33.0295 43.4275 33.1586 43.5038C33.2858 43.6184 33.4567 43.6766 33.6276 43.6675H35.6729C36.1238 43.6675 36.3584 43.4948 36.3693 43.1366V42.3912C36.3693 41.9803 36.1329 41.7767 35.6529 41.7767H33.6076C33.4185 41.7585 33.2295 41.8022 33.0658 41.8985H33.064ZM64.2257 41.8985C64.1129 42.0676 64.062 42.2694 64.0838 42.4712L64.102 43.1366C64.102 43.2893 64.1856 43.4293 64.3184 43.5038C64.4475 43.6184 64.6165 43.6766 64.7892 43.6675H66.8346C67.2836 43.6675 67.52 43.4948 67.5291 43.1366V42.3912C67.5291 41.9803 67.2927 41.7767 66.8128 41.7767H64.7692C64.5802 41.7585 64.3911 41.8022 64.2275 41.8985H64.2257ZM83.4953 38.4316H81.6736C81.4682 38.4206 81.2664 38.4916 81.1118 38.6261C80.9391 38.7297 80.8337 38.917 80.8355 39.117V40.1605L84.108 38.9642V38.9024C84.1135 38.7679 84.0535 38.637 83.9444 38.5552C83.8098 38.4697 83.6535 38.4279 83.4953 38.4316Z" fill="#008AC9"/>
<path id="logo" d="M12.736 35.741C14.3814 35.761 15.2504 36.6609 15.2504 38.4499V43.564C15.2195 45.353 14.3814 46.2729 12.7342 46.2729H6.3546C6.02735 46.2693 5.70374 46.1966 5.40376 46.0602C5.11287 45.9348 4.84743 45.7621 4.61653 45.5475C4.19111 44.953 3.97658 44.2331 4.00203 43.5022V38.5135C3.97839 37.7845 4.19474 37.0663 4.61472 36.4682C4.84743 36.2573 5.11287 36.0882 5.40194 35.9682C5.69828 35.8228 6.02372 35.7464 6.35279 35.7428L12.736 35.741ZM9.53622 30.0014C12.3324 29.9378 14.6995 32.0413 14.9668 34.8192C14.994 35.161 14.994 35.5028 14.9668 35.8428C14.5595 35.4737 14.0559 35.2283 13.5123 35.1374C13.1342 33.2957 11.5106 31.9722 9.62712 31.9722C7.74542 31.9722 6.12189 33.2939 5.74192 35.1374C5.53102 35.1828 5.32376 35.2519 5.12741 35.3428L5.17832 35.3119C4.87652 35.4446 4.5929 35.621 4.34201 35.8337V35.0665C4.47473 32.2758 6.74367 30.0669 9.53622 30.0014Z" fill="#E3001B"/>
</g>
</svg>
