<svg width="128" height="80" viewBox="0 0 128 80" fill="none" xmlns="http://www.w3.org/2000/svg">
<g id="logo / payment method / astropay / brand">
<g id="logo">
<path d="M11.9939 25.0607L4 48.5257H8.71125L10.9605 41.6868H17.4347L19.7447 48.5257H24.5471L16.5532 25.0607H11.9939ZM16.31 37.8266H12.1155L13.8784 32.6594C14 32.2947 14.1216 31.9604 14.2128 31.5956C14.3343 31.9604 14.4255 32.3251 14.5471 32.6898L16.31 37.8266Z" fill="black"/>
<path d="M32.4802 37.8874C30.3222 37.0363 30.079 36.6411 30.079 36.0029C30.079 35.2126 30.7477 34.7263 31.8115 34.7263C33.0881 34.7263 34.0608 35.243 34.5471 35.5165L35.459 36.094L36.6748 32.3858L36.1277 32.0211C35.0638 31.322 33.4833 30.9269 31.8419 30.9269C28.2553 30.9269 25.6413 33.2065 25.6413 36.3372C25.6413 39.2247 28.1945 40.7749 30.3526 41.5652C32.5106 42.3554 32.6626 42.9329 32.6626 43.6016C32.6626 44.8782 31.3252 45.0606 30.5046 45.0606C29.2584 45.0606 27.921 44.5439 27.1611 44.088L26.2492 43.5408L25.0334 47.3402L25.6109 47.6746C26.9179 48.4345 28.6808 48.8904 30.4438 48.8904C34.4255 48.8904 37.1003 46.6412 37.1003 43.3281C37.1003 39.9542 34.4559 38.5864 32.4802 37.8874Z" fill="black"/>
<path d="M44.1824 27.1579L39.7143 28.5257V31.2004H37.2827V35.0606H39.7143V42.7202C39.7143 44.8479 40.1398 46.398 41.0213 47.4011C41.8723 48.3433 43.2097 48.86 44.6991 48.86C46.0669 48.86 47.0395 48.5865 47.4955 48.4345L48.1034 48.2217L47.8602 44.3312L46.8268 44.6351C46.5228 44.7263 46.1581 44.7871 45.4286 44.7871C44.8815 44.7871 44.152 44.7871 44.152 42.5986V35.091H48.2249V31.2308H44.152L44.1824 27.1579Z" fill="black"/>
<path d="M59.1367 31.0484L58.3161 30.9572C58.0729 30.9268 57.8297 30.8964 57.5258 30.8964C56.0972 30.8964 54.7902 31.4739 53.8176 32.5074L53.7568 31.2308H49.5319L49.5927 32.1426C49.6838 33.48 49.7142 34.9998 49.7142 36.9451V48.5256H54.2431V39.3463C54.2431 38.9208 54.2735 38.4952 54.3343 38.1913C54.6686 36.398 55.7933 35.2733 57.313 35.2733C57.6778 35.2733 57.8905 35.2733 58.1033 35.3037L59.1367 35.5165V31.0484Z" fill="black"/>
<path d="M67.4346 30.8964C62.389 30.8964 58.8328 34.635 58.8328 40.015C58.8328 45.3949 62.2675 48.8904 67.1611 48.8904C71.3252 48.8904 75.7933 46.0332 75.7933 39.7414C75.7933 34.5439 72.3587 30.9268 67.4346 30.8964ZM71.2036 39.8326C71.2036 42.8417 69.5623 45.0606 67.3131 45.0606C65.0638 45.0606 63.4529 42.9025 63.4529 39.9238C63.4529 38.0089 64.2735 34.7262 67.3738 34.7262C70.383 34.7262 71.2036 38.0697 71.2036 39.8326Z" fill="black"/>
<path d="M90.6869 26.9756C89.1975 25.6382 86.9483 24.9391 84.0304 24.9391C82.0547 24.9391 80.2006 25.0911 78.4984 25.3646L77.7994 25.4862V48.5257H82.2978V39.9847C82.7538 40.0151 83.2401 40.0455 83.696 40.0455C86.7355 40.0455 89.3191 39.1032 90.9605 37.4011C92.2371 36.0941 92.8753 34.3312 92.8753 32.1732C92.8753 30.0759 92.0851 28.2218 90.6869 26.9756ZM88.3465 32.3251C88.3465 35.6078 85.4589 36.0941 83.7568 36.0941C83.1793 36.0941 82.693 36.0637 82.2978 36.0029V28.9209C82.7234 28.8601 83.3313 28.8297 84.0911 28.8297C86.0364 28.8297 88.3465 29.4376 88.3465 32.3251Z" fill="black"/>
<path d="M106.675 43.9664V38.1001C106.675 33.4496 104.274 30.8964 99.8967 30.8964C97.8602 30.8964 95.7629 31.4436 94.2736 32.3858L93.696 32.7505L94.9118 36.3372L95.8237 35.6989C96.766 35.0606 98.1033 34.6958 99.4407 34.6958C100.353 34.6958 101.021 34.9086 101.447 35.3341C101.812 35.6989 102.024 36.2156 102.085 36.9147C98.5593 37.0059 95.9453 37.8569 94.3647 39.4375C93.2705 40.5317 92.7234 41.9299 92.7234 43.5712C92.7234 46.2156 94.6687 48.8904 98.3465 48.8904C99.927 48.8904 101.416 48.3736 102.571 47.4922L102.693 48.5256H106.979L106.827 47.553C106.736 46.6411 106.675 45.4253 106.675 43.9664ZM99.1064 45.1214C98.4377 45.1214 97.3131 44.8782 97.3131 43.2673C97.3131 42.6594 97.4954 42.1426 97.8906 41.7779C98.4073 41.2612 99.5927 40.6533 102.237 40.5925V42.4466C102.237 42.5682 102.237 42.8417 102.146 43.0849C101.842 43.9664 100.839 45.091 99.1064 45.1214Z" fill="black"/>
<path d="M119.167 31.2005L115.884 40.927C115.793 41.1701 115.733 41.4133 115.641 41.6564C115.55 41.4133 115.459 41.1701 115.398 40.9573L111.812 31.1701H106.857L113.058 46.7324L113.088 46.7628C113.179 46.9756 113.21 47.0668 113.24 47.1276C113.21 47.2188 113.149 47.3707 113.088 47.4619C112.541 48.6169 111.751 49.6808 110.96 50.3191L110.93 50.3495C110.018 51.1093 109.106 51.4741 108.742 51.5653L107.951 51.8084L109.106 55.699L109.866 55.5774C110.322 55.4862 111.933 55.1215 113.757 53.5713C115.976 51.626 117.435 48.5257 119.35 43.4498L124 31.2005H119.167Z" fill="black"/>
<path d="M20.5653 31.5652C23.4832 28.5865 28.4377 26.7932 33.8176 26.7932C35.9149 26.7932 37.9513 27.0667 39.8966 27.5835L40.0486 27.6139L43.4832 26.5804L41.9331 26.0029C38.9848 24.8783 35.6109 24.3008 32.1155 24.3008C27.0699 24.3008 22.3282 25.5166 18.8328 27.7354L18.468 27.9786L19.927 32.2339L20.5653 31.5652Z" fill="#20D5B3"/>
</g>
</g>
</svg>
