<svg width="128" height="80" viewBox="0 0 128 80" fill="none" xmlns="http://www.w3.org/2000/svg">
<g id="logo / payment method / mtn / brand">
<g id="logo">
<path d="M32 8H96V72H32V8Z" fill="#FFC403"/>
<path d="M60.4488 36.2224V43.5278H58.4507V39.4302L57.1161 41.4049H56.0702L54.6029 39.4302V43.5278H52.7766V36.2224H54.6185L56.7259 39.0868L58.6146 36.2224H60.4488ZM61.0263 37.8771V36.2224H67.8478V37.8771H65.4595V43.5278H63.4224V37.8771H61.0263ZM75.3639 36.2224V43.5278H73.6859L70.2517 39.3522V43.5278H68.4254V36.2224H70.2439L73.5298 40.2498V36.2224H75.3639Z" fill="black"/>
<path d="M64 51.161C58.0995 51.161 52.5346 50.0605 48.3356 48.0546C43.9415 45.9551 41.522 43.0985 41.522 40C41.522 36.9015 43.9415 34.0449 48.3356 31.9454C52.5346 29.9395 58.0995 28.839 64 28.839C69.9005 28.839 75.4654 29.9395 79.6644 31.9454C84.0585 34.0449 86.4781 36.9015 86.4781 40C86.4781 43.0985 84.0585 45.9551 79.6644 48.0546C75.4654 50.0605 69.9005 51.161 64 51.161ZM64 30.4859C58.3337 30.4859 53.0263 31.5317 49.0459 33.4361C45.2605 35.2468 43.1688 37.5805 43.1688 40.0078C43.1688 42.4351 45.2527 44.7688 49.0459 46.5717C53.0263 48.4761 58.3415 49.522 64 49.522C69.6585 49.522 74.9737 48.4761 78.9541 46.5717C82.7395 44.7688 84.8312 42.4273 84.8312 40.0078C84.8312 37.5883 82.7473 35.2468 78.9541 33.4439C74.9737 31.5317 69.6663 30.4859 64 30.4859Z" fill="black"/>
</g>
</g>
</svg>
