<svg width="128" height="80" viewBox="0 0 128 80" fill="none" xmlns="http://www.w3.org/2000/svg">
<g id="logo / payment method / wyre / brand-dark">
<path id="wordmark" d="M60.7529 39.1359L65.4007 29.1562H70.2034L70.8231 39.1359H70.978L75.4709 28.8444H79.8088L72.5273 45.2173H67.4147L66.6401 34.6139H66.4852L65.4007 36.641L61.8374 44.5935C61.8374 45.0613 61.6825 45.2173 61.2177 45.2173H57.1896C57.0347 45.2173 56.8798 45.2173 56.7248 45.2173L55.7953 28.8444H60.4431L60.7529 39.1359ZM80.8933 28.8444H85.6959L87.2452 38.5122L91.893 28.8444H95.921H96.5408L95.4563 30.8715L87.5551 45.6851C86.9354 46.9325 86.1607 48.024 85.2312 49.1156C83.6819 50.6749 81.8228 51.2986 79.6539 51.1427C78.8792 51.1427 78.1046 50.9868 77.33 50.8308L79.0341 47.4003C83.527 48.18 83.6819 43.9698 83.527 42.8783L81.0482 29.1562C80.7383 29.0003 80.7383 29.0003 80.8933 28.8444ZM113.273 38.3562C112.963 39.9156 113.892 41.319 115.442 41.7867C116.681 42.0986 117.921 41.9427 119.16 41.7867L120.709 41.319C120.709 41.4749 120.709 41.6308 120.709 41.7867L120.089 44.7495L119.47 44.9054C118.075 45.2173 116.526 45.3732 115.132 45.2173C114.047 45.0613 112.963 44.9054 112.033 44.4376C110.019 43.3461 108.935 41.6308 108.625 39.4478C108.315 36.485 109.09 33.6783 110.949 31.3393C112.808 29.0003 115.132 28.2206 117.92 28.3766C119.16 28.5325 120.244 28.8444 121.174 29.4681C123.498 31.0274 123.808 35.2376 120.864 37.1088C119.78 37.7325 118.695 38.0444 117.456 38.2003C116.216 38.3562 114.822 38.3562 113.583 38.2003C113.428 38.3562 113.428 38.3562 113.273 38.3562ZM113.583 35.2376C114.822 35.3935 116.061 35.3935 117.146 35.0817C117.611 34.9257 117.92 34.7698 118.23 34.4579C119.005 33.5223 118.695 32.2749 117.611 31.963C116.526 31.6511 115.442 31.963 114.667 32.8986C114.202 33.5223 113.892 34.302 113.583 35.2376ZM100.569 45.2173H95.7661L98.8646 28.8444H102.273L102.583 31.8071C103.048 30.5596 103.667 29.624 104.752 29.0003C105.836 28.5325 107.695 28.5325 109.4 29.1562L107.386 33.2105L105.526 32.8986C104.132 32.7427 103.203 33.3664 102.738 34.6139C102.428 35.5495 102.273 36.641 101.963 37.5766L100.569 45.2173Z" fill="white"/>
<g id="logo">
<path id="Path" d="M31.0071 39.7595H46.1898L37.9787 60.3426C36.7393 63.3053 33.9507 65.1765 30.8522 65.1765H15.6694L24.0354 44.5934C25.1199 41.7866 27.9086 39.7595 31.0071 39.7595Z" fill="#A9CAFF"/>
<path id="Path_2" d="M20.1624 53.7935H28.6833C31.7818 53.7935 32.7113 53.6376 35.3451 51.2986L46.1899 39.4478H31.0072C27.9086 39.4478 25.12 41.4749 23.8806 44.2817L20.1624 53.7935Z" fill="#0408E0"/>
<path id="Path_3" d="M25.8945 27.2849H41.0772L32.8662 47.7121C31.6268 50.6748 28.8381 52.39 25.7396 52.39H10.5569L18.7679 32.1188C20.0074 29.1561 22.796 27.2849 25.8945 27.2849Z" fill="#0384FF"/>
<path id="Path_4" d="M15.0498 41.3188H23.5707C26.6692 41.3188 27.5988 40.851 30.2325 38.6679L41.0773 27.1289H25.8946C22.7961 27.1289 20.0074 29.0001 18.768 31.9628L15.0498 41.3188Z" fill="#0408E0"/>
<path id="Path_5" d="M20.7821 14.3425H35.9648L27.7537 34.9256C26.6693 37.8883 23.8806 39.7595 20.7821 39.7595H5.59937L13.8104 19.3324C14.8949 16.3697 17.6836 14.3425 20.7821 14.3425Z" fill="#004EFF"/>
</g>
</g>
</svg>
