<svg width="128" height="80" viewBox="0 0 128 80" fill="none" xmlns="http://www.w3.org/2000/svg">
<g id="logo / payment method / ideal / brand">
<g id="Vector">
<path d="M30.0294 14.4477V65.5523C30.0294 67.9985 32.027 70 34.4686 70H64.9433C87.9825 70 97.9706 57.0793 97.9706 39.9333C97.9706 22.8762 87.9825 10 64.9433 10H34.4686C32.027 10 30.0294 12.0015 30.0294 14.4477Z" fill="white"/>
<path d="M50.4274 22.5424V60.3037H66.83C81.7234 60.3037 88.1823 51.8752 88.1823 39.9553C88.1823 28.5468 81.7234 19.6958 66.83 19.6958H53.2684C51.6925 19.6958 50.4274 20.9856 50.4274 22.5424Z" fill="#CC0066"/>
<path d="M64.9434 65.9301H38.4417C36.0889 65.9301 34.1801 64.0175 34.1801 61.6602V18.3615C34.1801 16.0042 36.0889 14.0917 38.4417 14.0917H64.9434C90.0912 14.0917 93.8422 30.3037 93.8422 39.9553C93.8422 56.701 83.5656 65.9301 64.9434 65.9301ZM38.4417 15.5149C36.8658 15.5149 35.6006 16.7825 35.6006 18.3615V61.6602C35.6006 63.2392 36.8658 64.5068 38.4417 64.5068H64.9434C82.6556 64.5068 92.4217 55.7892 92.4217 39.9553C92.4217 18.6951 75.1978 15.5149 64.9434 15.5149H38.4417Z" fill="black"/>
<path d="M56.1982 34.8629C56.7753 34.8629 57.308 34.9518 57.8185 35.1297C58.329 35.3076 58.7507 35.5967 59.1281 35.9526C59.4832 36.3306 59.7717 36.7976 59.9937 37.3314C60.1935 37.8873 60.3044 38.5322 60.3044 39.2884C60.3044 39.9555 60.2157 40.556 60.0603 41.1119C59.8827 41.6679 59.6386 42.1572 59.3056 42.5574C58.9727 42.9577 58.551 43.2691 58.0405 43.5137C57.53 43.7361 56.9307 43.8695 56.2426 43.8695H52.3584V34.8406H56.1982V34.8629ZM56.0651 42.2239C56.3536 42.2239 56.6199 42.1794 56.9085 42.0904C57.1748 42.0015 57.419 41.8458 57.6188 41.6234C57.8185 41.401 57.9961 41.1342 58.1293 40.7784C58.2624 40.4225 58.329 40.0222 58.329 39.5107C58.329 39.066 58.2846 38.6434 58.1958 38.2876C58.1071 37.9318 57.9517 37.5982 57.7519 37.3536C57.5522 37.109 57.2858 36.8866 56.9529 36.7531C56.6199 36.6197 56.2204 36.553 55.7321 36.553H54.3116V42.2461H56.0651V42.2239Z" fill="white"/>
<path d="M68.3171 36.5308H63.5673V38.4655H67.9398V40H63.5673V42.2016H68.4281V43.8695H61.5918V34.8406H68.3171V36.5308Z" fill="white"/>
<path d="M75.1091 34.863L78.4829 43.892H76.4187L75.7306 41.8905H72.3568L71.6466 43.892H69.6489L73.0449 34.863H75.1091ZM75.2201 40.4005L74.0881 37.0869H74.0659L72.8895 40.4005H75.2201Z" fill="white"/>
<path d="M81.7012 34.863V42.2241H86.0959V43.892H79.7257V34.863H81.7012Z" fill="white"/>
<path d="M43.0139 43.5359C45.3062 43.5359 47.1645 41.674 47.1645 39.3773C47.1645 37.0805 45.3062 35.2186 43.0139 35.2186C40.7216 35.2186 38.8633 37.0805 38.8633 39.3773C38.8633 41.674 40.7216 43.5359 43.0139 43.5359Z" fill="black"/>
<path d="M46.1436 60.3039C42.6588 60.3039 39.8622 57.4796 39.8622 54.0103V49.0956C39.8622 47.361 41.2605 45.9377 43.014 45.9377C44.7452 45.9377 46.1658 47.3387 46.1658 49.0956V60.3039H46.1436Z" fill="black"/>
</g>
</g>
</svg>
