<svg width="128" height="80" viewBox="0 0 128 80" fill="none" xmlns="http://www.w3.org/2000/svg">
<g id="logo / payment method / local payment methods / white">
<g id="logo">
<path fill-rule="evenodd" clip-rule="evenodd" d="M56.2625 26.6123L43.75 18.406C42.6125 17.5935 40.9875 17.9185 40.175 19.1373L25.3875 41.3998C25.225 41.5623 25.3063 41.8873 25.55 41.9685L28.3125 43.2685L33.9112 39.2695C33.2687 37.7305 33.2721 36.0324 34.1624 34.7374C35.7062 32.2999 39.4437 31.9749 42.4499 33.9249C45.4562 35.8749 46.6749 39.3686 45.1312 41.8061C44.3187 43.0249 42.9374 43.6748 41.3937 43.7561L32.4563 55.5373L35.7875 57.9748C37.0063 58.7873 38.55 58.4623 39.3625 57.2435L56.9938 30.1873C57.8063 28.9685 57.4813 27.4248 56.2625 26.6123ZM47.7313 30.431C47.1625 31.3248 45.7 31.4873 44.5625 30.756C43.425 30.0248 42.9375 28.6435 43.5875 27.7498C44.1563 26.856 45.6188 26.6935 46.7563 27.4248C47.8125 28.156 48.3 29.5373 47.7313 30.431Z" fill="white"/>
<path d="M59.35 31.6498L58.1313 30.8373L42.0438 55.5373L59.675 33.9248C60.2438 33.2748 60.0813 32.2185 59.35 31.6498Z" fill="white"/>
<path d="M40.0938 39.2873C38.9562 38.2311 37.25 38.1498 36.0312 39.1248L28.9625 44.4873C28.6375 44.7311 28.15 44.8123 27.7437 44.5686L24.25 42.7811C23.7625 42.4561 23.6 41.8061 23.925 41.3186L30.1812 31.8123L23.7625 33.6811C22.3 34.0873 21.0812 34.9811 20.35 36.1998L13.6875 46.7623C13.0375 47.7373 12.0625 48.4686 10.925 48.6311L8 49.1998V62.9998L24.6562 59.9248C26.9312 59.3561 28.9625 58.1373 30.425 56.2686L40.4188 43.5936C41.3937 42.2123 41.3125 40.3436 40.0938 39.2873Z" fill="white"/>
<path d="M69.924 24.6238V32.9998H74.94V31.3798H71.748V24.6238H69.924Z" fill="white"/>
<path fill-rule="evenodd" clip-rule="evenodd" d="M78.6301 33.1438C78.1661 33.1438 77.7501 33.0678 77.3821 32.9158C77.0221 32.7638 76.7141 32.5438 76.4581 32.2558C76.2101 31.9678 76.0181 31.6198 75.8821 31.2118C75.7461 30.8038 75.6781 30.3478 75.6781 29.8438C75.6781 29.3398 75.7461 28.8838 75.8821 28.4758C76.0181 28.0678 76.2101 27.7238 76.4581 27.4438C76.7141 27.1558 77.0221 26.9358 77.3821 26.7838C77.7501 26.6318 78.1661 26.5558 78.6301 26.5558C79.0941 26.5558 79.5061 26.6318 79.8661 26.7838C80.2341 26.9358 80.5421 27.1558 80.7901 27.4438C81.0461 27.7238 81.2421 28.0678 81.3781 28.4758C81.5141 28.8838 81.5821 29.3398 81.5821 29.8438C81.5821 30.3478 81.5141 30.8038 81.3781 31.2118C81.2421 31.6198 81.0461 31.9678 80.7901 32.2558C80.5421 32.5438 80.2341 32.7638 79.8661 32.9158C79.5061 33.0678 79.0941 33.1438 78.6301 33.1438ZM78.6301 31.7398C78.9821 31.7398 79.2541 31.6318 79.4461 31.4158C79.6381 31.1998 79.7341 30.8918 79.7341 30.4918V29.2078C79.7341 28.8078 79.6381 28.4998 79.4461 28.2838C79.2541 28.0678 78.9821 27.9598 78.6301 27.9598C78.2781 27.9598 78.0061 28.0678 77.8141 28.2838C77.6221 28.4998 77.5261 28.8078 77.5261 29.2078V30.4918C77.5261 30.8918 77.6221 31.1998 77.8141 31.4158C78.0061 31.6318 78.2781 31.7398 78.6301 31.7398Z" fill="white"/>
<path d="M84.1315 32.9158C84.4995 33.0678 84.9195 33.1438 85.3915 33.1438C86.0155 33.1438 86.5435 33.0038 86.9755 32.7238C87.4155 32.4438 87.7395 32.0038 87.9475 31.4038L86.5675 30.8038C86.4795 31.0838 86.3395 31.3118 86.1475 31.4878C85.9635 31.6558 85.7115 31.7398 85.3915 31.7398C85.0315 31.7398 84.7595 31.6238 84.5755 31.3918C84.3915 31.1598 84.2995 30.8438 84.2995 30.4438V29.2678C84.2995 28.8678 84.3915 28.5518 84.5755 28.3198C84.7595 28.0798 85.0315 27.9598 85.3915 27.9598C85.7035 27.9598 85.9475 28.0438 86.1235 28.2118C86.2995 28.3798 86.4155 28.5838 86.4715 28.8238L87.9115 28.1998C87.7275 27.6798 87.4195 27.2758 86.9875 26.9878C86.5635 26.6998 86.0315 26.5558 85.3915 26.5558C84.9195 26.5558 84.4995 26.6318 84.1315 26.7838C83.7635 26.9358 83.4555 27.1558 83.2075 27.4438C82.9595 27.7318 82.7715 28.0798 82.6435 28.4878C82.5155 28.8878 82.4515 29.3398 82.4515 29.8438C82.4515 30.3478 82.5155 30.8038 82.6435 31.2118C82.7715 31.6198 82.9595 31.9678 83.2075 32.2558C83.4555 32.5358 83.7635 32.7558 84.1315 32.9158Z" fill="white"/>
<path fill-rule="evenodd" clip-rule="evenodd" d="M93.7028 32.9998C93.3828 32.9998 93.1148 32.8998 92.8988 32.6998C92.6908 32.4998 92.5588 32.2318 92.5028 31.8958H92.4308C92.3348 32.3038 92.1228 32.6158 91.7948 32.8318C91.4668 33.0398 91.0628 33.1438 90.5828 33.1438C89.9508 33.1438 89.4668 32.9758 89.1308 32.6398C88.7948 32.3038 88.6268 31.8598 88.6268 31.3078C88.6268 30.6438 88.8668 30.1518 89.3468 29.8318C89.8348 29.5038 90.4948 29.3398 91.3268 29.3398H92.3228V28.9438C92.3228 28.6398 92.2428 28.3998 92.0828 28.2238C91.9228 28.0398 91.6548 27.9478 91.2788 27.9478C90.9268 27.9478 90.6468 28.0238 90.4388 28.1758C90.2308 28.3278 90.0588 28.4998 89.9228 28.6918L88.8668 27.7558C89.1227 27.3798 89.4427 27.0878 89.8268 26.8798C90.2188 26.6638 90.7467 26.5558 91.4108 26.5558C92.3068 26.5558 92.9788 26.7518 93.4268 27.1438C93.8748 27.5358 94.0988 28.1078 94.0988 28.8598V31.6198H94.6868V32.9998H93.7028ZM91.2428 31.9078C91.5387 31.9078 91.7908 31.8438 91.9988 31.7158C92.2148 31.5878 92.3228 31.3798 92.3228 31.0918V30.3478H91.4588C90.7628 30.3478 90.4147 30.5838 90.4147 31.0558V31.2358C90.4147 31.4678 90.4868 31.6398 90.6308 31.7518C90.7747 31.8558 90.9788 31.9078 91.2428 31.9078Z" fill="white"/>
<path d="M96.2988 32.5558C96.5868 32.8518 97.0348 32.9998 97.6428 32.9998H98.4468V31.6198H97.6548V24.1198H95.8788V31.2718C95.8788 31.8318 96.0188 32.2598 96.2988 32.5558Z" fill="white"/>
<path fill-rule="evenodd" clip-rule="evenodd" d="M69.924 44.9998V36.6238H73.884C74.276 36.6238 74.628 36.6918 74.94 36.8278C75.252 36.9558 75.516 37.1358 75.732 37.3678C75.956 37.5998 76.128 37.8838 76.248 38.2198C76.368 38.5478 76.428 38.9078 76.428 39.2998C76.428 39.6998 76.368 40.0638 76.248 40.3918C76.128 40.7198 75.956 40.9998 75.732 41.2318C75.516 41.4638 75.252 41.6478 74.94 41.7838C74.628 41.9118 74.276 41.9758 73.884 41.9758H71.748V44.9998H69.924ZM71.748 40.3918H73.668C73.94 40.3918 74.152 40.3238 74.304 40.1878C74.464 40.0438 74.544 39.8358 74.544 39.5638V39.0358C74.544 38.7638 74.464 38.5598 74.304 38.4238C74.152 38.2798 73.94 38.2078 73.668 38.2078H71.748V40.3918Z" fill="white"/>
<path fill-rule="evenodd" clip-rule="evenodd" d="M81.3792 44.6998C81.5952 44.8998 81.8632 44.9998 82.1832 44.9998H83.1672V43.6198H82.5792V40.8598C82.5792 40.1078 82.3552 39.5358 81.9072 39.1438C81.4592 38.7518 80.7872 38.5558 79.8912 38.5558C79.2272 38.5558 78.6992 38.6638 78.3072 38.8798C77.9232 39.0878 77.6032 39.3798 77.3472 39.7558L78.4032 40.6918C78.5392 40.4998 78.7112 40.3278 78.9192 40.1758C79.1272 40.0238 79.4072 39.9478 79.7592 39.9478C80.1352 39.9478 80.4032 40.0398 80.5632 40.2238C80.7232 40.3998 80.8032 40.6398 80.8032 40.9438V41.3398H79.8072C78.9752 41.3398 78.3152 41.5038 77.8272 41.8318C77.3472 42.1518 77.1072 42.6438 77.1072 43.3078C77.1072 43.8598 77.2752 44.3038 77.6112 44.6398C77.9472 44.9758 78.4312 45.1438 79.0632 45.1438C79.5432 45.1438 79.9472 45.0398 80.2752 44.8318C80.6032 44.6158 80.8152 44.3038 80.9112 43.8958H80.9832C81.0392 44.2318 81.1712 44.4998 81.3792 44.6998ZM80.4792 43.7158C80.2712 43.8438 80.0192 43.9078 79.7232 43.9078C79.4592 43.9078 79.2552 43.8558 79.1112 43.7518C78.9672 43.6398 78.8952 43.4678 78.8952 43.2358V43.0558C78.8952 42.5838 79.2432 42.3478 79.9392 42.3478H80.8032V43.0918C80.8032 43.3798 80.6952 43.5878 80.4792 43.7158Z" fill="white"/>
<path d="M88.1058 38.6998H89.7618L87.3378 45.9718C87.1778 46.4598 86.9498 46.8198 86.6538 47.0518C86.3658 47.2838 85.9498 47.3998 85.4058 47.3998H84.3018V46.0198H85.4898L85.7058 45.3238L83.4978 38.6998H85.2618L86.1858 41.6398L86.6418 43.4638H86.7138L87.1818 41.6398L88.1058 38.6998Z" fill="white"/>
<path d="M90.6639 38.6998V44.9998H92.4399V40.9198C92.4399 40.7678 92.4679 40.6358 92.5239 40.5238C92.5879 40.4038 92.6679 40.3038 92.7639 40.2238C92.8679 40.1438 92.9799 40.0878 93.0999 40.0558C93.2279 40.0158 93.3559 39.9958 93.4839 39.9958C94.0599 39.9958 94.3479 40.3958 94.3479 41.1958V44.9998H96.1239V40.9198C96.1239 40.6078 96.2319 40.3758 96.4479 40.2238C96.6639 40.0718 96.9039 39.9958 97.1679 39.9958C97.7439 39.9958 98.0319 40.3958 98.0319 41.1958V44.9998H99.8079V41.0518C99.8079 40.2518 99.6439 39.6358 99.3159 39.2038C98.9959 38.7718 98.5319 38.5558 97.9239 38.5558C97.6839 38.5558 97.4599 38.5918 97.2519 38.6638C97.0439 38.7278 96.8559 38.8158 96.6879 38.9278C96.5199 39.0398 96.3759 39.1758 96.2559 39.3358C96.1439 39.4878 96.0599 39.6518 96.0039 39.8278H95.9679C95.8319 39.4118 95.6119 39.0958 95.3079 38.8798C95.0039 38.6638 94.6359 38.5558 94.2039 38.5558C93.7319 38.5558 93.3599 38.6758 93.0879 38.9158C92.8159 39.1478 92.6239 39.4318 92.5119 39.7678H92.4399V38.6998H90.6639Z" fill="white"/>
<path fill-rule="evenodd" clip-rule="evenodd" d="M104.015 45.1438C103.535 45.1438 103.107 45.0678 102.731 44.9158C102.355 44.7558 102.035 44.5358 101.771 44.2558C101.515 43.9678 101.319 43.6198 101.183 43.2118C101.055 42.8038 100.991 42.3478 100.991 41.8438C100.991 41.3478 101.055 40.8998 101.183 40.4998C101.311 40.0918 101.499 39.7438 101.747 39.4558C102.003 39.1678 102.315 38.9478 102.683 38.7958C103.051 38.6358 103.471 38.5558 103.943 38.5558C104.463 38.5558 104.907 38.6438 105.275 38.8198C105.651 38.9958 105.955 39.2318 106.187 39.5278C106.427 39.8238 106.599 40.1678 106.703 40.5598C106.815 40.9438 106.871 41.3478 106.871 41.7718V42.2998H102.827V42.3958C102.827 42.8118 102.939 43.1438 103.163 43.3918C103.387 43.6318 103.739 43.7518 104.219 43.7518C104.587 43.7518 104.887 43.6798 105.119 43.5358C105.351 43.3838 105.567 43.2038 105.767 42.9958L106.655 44.0998C106.375 44.4278 106.007 44.6838 105.551 44.8678C105.103 45.0518 104.591 45.1438 104.015 45.1438ZM103.979 39.8638C103.619 39.8638 103.335 39.9838 103.127 40.2238C102.927 40.4558 102.827 40.7678 102.827 41.1598V41.2558H105.035V41.1478C105.035 40.7638 104.947 40.4558 104.771 40.2238C104.603 39.9838 104.339 39.8638 103.979 39.8638Z" fill="white"/>
<path d="M108.125 38.6998V44.9998H109.901V40.9198C109.901 40.7678 109.933 40.6358 109.997 40.5238C110.061 40.4038 110.145 40.3038 110.249 40.2238C110.361 40.1438 110.485 40.0878 110.621 40.0558C110.757 40.0158 110.897 39.9958 111.041 39.9958C111.369 39.9958 111.597 40.0958 111.725 40.2958C111.853 40.4878 111.917 40.7878 111.917 41.1958V44.9998H113.693V41.0518C113.693 40.2518 113.525 39.6358 113.189 39.2038C112.861 38.7718 112.373 38.5558 111.725 38.5558C111.229 38.5558 110.841 38.6758 110.561 38.9158C110.281 39.1558 110.085 39.4398 109.973 39.7678H109.901V38.6998H108.125Z" fill="white"/>
<path d="M117.481 44.9998C116.865 44.9998 116.397 44.8438 116.077 44.5318C115.765 44.2198 115.609 43.7638 115.609 43.1638V40.0798H114.721V38.6998H115.165C115.405 38.6998 115.569 38.6438 115.657 38.5318C115.745 38.4118 115.789 38.2438 115.789 38.0278V36.9958H117.385V38.6998H118.633V40.0798H117.385V43.6198H118.537V44.9998H117.481Z" fill="white"/>
<path d="M76.152 51.5038H76.188V56.9998H77.904V48.6238H75.96L73.932 52.5478H73.908L71.856 48.6238H69.924V56.9998H71.64V51.4198H71.676L72.312 52.7398L73.908 55.6918L75.54 52.7278L76.152 51.5038Z" fill="white"/>
<path fill-rule="evenodd" clip-rule="evenodd" d="M82.288 57.1438C81.808 57.1438 81.38 57.0678 81.004 56.9158C80.628 56.7558 80.308 56.5358 80.044 56.2558C79.788 55.9678 79.592 55.6198 79.456 55.2118C79.328 54.8038 79.264 54.3478 79.264 53.8438C79.264 53.3478 79.328 52.8998 79.456 52.4998C79.584 52.0918 79.772 51.7438 80.02 51.4558C80.276 51.1678 80.588 50.9478 80.956 50.7958C81.324 50.6358 81.744 50.5558 82.216 50.5558C82.736 50.5558 83.18 50.6438 83.548 50.8198C83.924 50.9958 84.228 51.2318 84.46 51.5278C84.7 51.8238 84.872 52.1678 84.976 52.5598C85.088 52.9438 85.144 53.3478 85.144 53.7718V54.2998H81.1V54.3958C81.1 54.8118 81.212 55.1438 81.436 55.3918C81.66 55.6318 82.012 55.7518 82.492 55.7518C82.86 55.7518 83.16 55.6798 83.392 55.5358C83.624 55.3838 83.84 55.2038 84.04 54.9958L84.928 56.0998C84.648 56.4278 84.28 56.6838 83.824 56.8678C83.376 57.0518 82.864 57.1438 82.288 57.1438ZM82.252 51.8638C81.892 51.8638 81.608 51.9838 81.4 52.2238C81.2 52.4558 81.1 52.7678 81.1 53.1598V53.2558H83.308V53.1478C83.308 52.7638 83.22 52.4558 83.044 52.2238C82.876 51.9838 82.612 51.8638 82.252 51.8638Z" fill="white"/>
<path d="M87.2023 56.5318C87.5223 56.8438 87.9903 56.9998 88.6063 56.9998H89.6623V55.6198H88.5103V52.0798H89.7583V50.6998H88.5103V48.9958H86.9143V50.0278C86.9143 50.2438 86.8703 50.4118 86.7823 50.5318C86.6943 50.6438 86.5303 50.6998 86.2903 50.6998H85.8463V52.0798H86.7343V55.1638C86.7343 55.7638 86.8903 56.2198 87.2023 56.5318Z" fill="white"/>
<path d="M90.9921 48.1198H92.7681V51.7678H92.8401C92.9521 51.4398 93.1481 51.1558 93.4281 50.9158C93.7081 50.6758 94.0961 50.5558 94.5921 50.5558C95.2401 50.5558 95.7281 50.7718 96.0561 51.2038C96.3921 51.6358 96.5601 52.2518 96.5601 53.0518V56.9998H94.7841V53.1958C94.7841 52.7878 94.7201 52.4878 94.5921 52.2958C94.4641 52.0958 94.2361 51.9958 93.9081 51.9958C93.7641 51.9958 93.6241 52.0158 93.4881 52.0558C93.3521 52.0878 93.2281 52.1438 93.1161 52.2238C93.0121 52.3038 92.9281 52.4038 92.8641 52.5238C92.8001 52.6358 92.7681 52.7678 92.7681 52.9198V56.9998H90.9921V48.1198Z" fill="white"/>
<path fill-rule="evenodd" clip-rule="evenodd" d="M99.4485 56.9158C99.8165 57.0678 100.233 57.1438 100.697 57.1438C101.16 57.1438 101.573 57.0678 101.933 56.9158C102.301 56.7638 102.609 56.5438 102.857 56.2558C103.113 55.9678 103.309 55.6198 103.445 55.2118C103.581 54.8038 103.648 54.3478 103.648 53.8438C103.648 53.3398 103.581 52.8838 103.445 52.4758C103.309 52.0678 103.113 51.7238 102.857 51.4438C102.609 51.1558 102.301 50.9358 101.933 50.7838C101.573 50.6318 101.16 50.5558 100.697 50.5558C100.233 50.5558 99.8165 50.6318 99.4485 50.7838C99.0885 50.9358 98.7805 51.1558 98.5245 51.4438C98.2765 51.7238 98.0845 52.0678 97.9485 52.4758C97.8125 52.8838 97.7445 53.3398 97.7445 53.8438C97.7445 54.3478 97.8125 54.8038 97.9485 55.2118C98.0845 55.6198 98.2765 55.9678 98.5245 56.2558C98.7805 56.5438 99.0885 56.7638 99.4485 56.9158ZM101.513 55.4158C101.321 55.6318 101.049 55.7398 100.697 55.7398C100.345 55.7398 100.073 55.6318 99.8805 55.4158C99.6885 55.1998 99.5925 54.8918 99.5925 54.4918V53.2078C99.5925 52.8078 99.6885 52.4998 99.8805 52.2838C100.073 52.0678 100.345 51.9598 100.697 51.9598C101.049 51.9598 101.321 52.0678 101.513 52.2838C101.705 52.4998 101.801 52.8078 101.801 53.2078V54.4918C101.801 54.8918 101.705 55.1998 101.513 55.4158Z" fill="white"/>
<path fill-rule="evenodd" clip-rule="evenodd" d="M108.778 55.9438H108.718C108.67 56.1118 108.594 56.2718 108.49 56.4238C108.386 56.5678 108.258 56.6958 108.106 56.8078C107.962 56.9118 107.794 56.9918 107.602 57.0478C107.418 57.1118 107.226 57.1438 107.026 57.1438C106.226 57.1438 105.622 56.8638 105.214 56.3038C104.806 55.7358 104.602 54.9158 104.602 53.8438C104.602 52.7718 104.806 51.9558 105.214 51.3958C105.622 50.8358 106.226 50.5558 107.026 50.5558C107.434 50.5558 107.794 50.6678 108.106 50.8918C108.426 51.1158 108.63 51.4038 108.718 51.7558H108.778V48.1198H110.554V56.9998H108.778V55.9438ZM107.614 55.7038C107.95 55.7038 108.226 55.6238 108.442 55.4638C108.666 55.2958 108.778 55.0678 108.778 54.7798V52.9198C108.778 52.6318 108.666 52.4078 108.442 52.2478C108.226 52.0798 107.95 51.9958 107.614 51.9958C107.278 51.9958 106.998 52.1158 106.774 52.3558C106.558 52.5878 106.45 52.9038 106.45 53.3038V54.3958C106.45 54.7958 106.558 55.1158 106.774 55.3558C106.998 55.5878 107.278 55.7038 107.614 55.7038Z" fill="white"/>
<path d="M112.815 56.8558C113.231 57.0478 113.743 57.1438 114.351 57.1438C114.759 57.1438 115.127 57.0918 115.455 56.9878C115.791 56.8838 116.075 56.7398 116.307 56.5558C116.547 56.3638 116.731 56.1398 116.859 55.8838C116.987 55.6278 117.051 55.3478 117.051 55.0438C117.051 53.9638 116.359 53.3318 114.975 53.1478L114.267 53.0518C114.011 53.0118 113.835 52.9478 113.739 52.8598C113.651 52.7638 113.607 52.6318 113.607 52.4638C113.607 52.3038 113.671 52.1758 113.799 52.0798C113.927 51.9838 114.143 51.9358 114.447 51.9358C114.711 51.9358 114.967 51.9958 115.215 52.1158C115.471 52.2278 115.699 52.3838 115.899 52.5838L116.919 51.5398C116.759 51.3878 116.595 51.2518 116.427 51.1318C116.267 51.0038 116.087 50.8998 115.887 50.8198C115.695 50.7318 115.471 50.6678 115.215 50.6278C114.967 50.5798 114.679 50.5558 114.351 50.5558C113.975 50.5558 113.635 50.6078 113.331 50.7118C113.035 50.8078 112.779 50.9478 112.563 51.1318C112.355 51.3078 112.191 51.5238 112.071 51.7798C111.959 52.0278 111.903 52.3038 111.903 52.6078C111.903 53.7278 112.611 54.3758 114.027 54.5518L114.711 54.6358C115.135 54.6918 115.347 54.8678 115.347 55.1638C115.347 55.3478 115.279 55.4958 115.143 55.6078C115.007 55.7118 114.763 55.7638 114.411 55.7638C114.067 55.7638 113.759 55.6918 113.487 55.5478C113.215 55.4038 112.967 55.2078 112.743 54.9598L111.699 56.0158C112.027 56.3758 112.399 56.6558 112.815 56.8558Z" fill="white"/>
</g>
</g>
</svg>
