<svg width="262" height="72" viewBox="0 0 262 72" fill="none" xmlns="http://www.w3.org/2000/svg">
<g id="logo / deriv product / deriv go / white / logo wordmark horizontal" clip-path="url(#clip0_203_135)">
<g id="logo">
<path d="M0 13.5C0 6.04416 6.04416 0 13.5 0H58.5C65.9558 0 72 6.04416 72 13.5V58.5C72 65.9558 65.9558 72 58.5 72H13.5C6.04416 72 0 65.9558 0 58.5V13.5Z" fill="white"/>
<path d="M13.5 0C6.04416 0 0 6.04416 0 13.5V13.8921L67.3075 3.26845C64.9433 1.2315 61.8655 0 58.5 0H13.5Z" fill="#EBECEF"/>
<path d="M68.6969 4.65243L56.3498 71.9999L58.5 72C65.9558 72 72 65.9558 72 58.5V13.5C72 10.1155 70.7545 7.02183 68.6969 4.65243Z" fill="#EBECEF"/>
<path d="M26.4533 28.8968C24.1643 28.8968 22.5053 29.5373 21.4763 30.8183C20.4683 32.0783 19.9643 33.8108 19.9643 36.0158C19.9643 37.0868 20.0903 38.0633 20.3423 38.9453C20.5943 39.8063 20.9723 40.5518 21.4763 41.1818C21.9803 41.8118 22.6103 42.3053 23.3663 42.6623C24.1223 42.9983 25.0043 43.1663 26.0123 43.1663C26.5583 43.1663 27.0203 43.1558 27.3983 43.1348C27.7973 43.1138 28.1438 43.0718 28.4378 43.0088V35.4173H33.3518V46.2218C32.7638 46.4528 31.8188 46.6943 30.5168 46.9463C29.2148 47.2193 27.6083 47.3558 25.6973 47.3558C24.0593 47.3558 22.5683 47.1038 21.2243 46.5998C19.9013 46.0958 18.7673 45.3608 17.8223 44.3948C16.8773 43.4288 16.1423 42.2423 15.6173 40.8353C15.1133 39.4283 14.8613 37.8218 14.8613 36.0158C14.8613 34.1888 15.1448 32.5718 15.7118 31.1648C16.2788 29.7578 17.0558 28.5713 18.0428 27.6053C19.0298 26.6183 20.1848 25.8728 21.5078 25.3688C22.8518 24.8648 24.2798 24.6128 25.7918 24.6128C26.8208 24.6128 27.7448 24.6863 28.5638 24.8333C29.4038 24.9593 30.1178 25.1168 30.7058 25.3058C31.3148 25.4738 31.8083 25.6523 32.1863 25.8413C32.5853 26.0303 32.8688 26.1773 33.0368 26.2823L31.6193 30.2198C30.9473 29.8628 30.1703 29.5583 29.2883 29.3063C28.4273 29.0333 27.4823 28.8968 26.4533 28.8968Z" fill="#FF444F"/>
<path d="M40.4755 36.0158C40.4755 37.0868 40.6015 38.0528 40.8535 38.9138C41.1265 39.7748 41.5045 40.5203 41.9875 41.1503C42.4915 41.7593 43.1005 42.2318 43.8145 42.5678C44.5285 42.9038 45.3475 43.0718 46.2715 43.0718C47.1745 43.0718 47.983 42.9038 48.697 42.5678C49.432 42.2318 50.041 41.7593 50.524 41.1503C51.028 40.5203 51.406 39.7748 51.658 38.9138C51.931 38.0528 52.0675 37.0868 52.0675 36.0158C52.0675 34.9448 51.931 33.9788 51.658 33.1178C51.406 32.2358 51.028 31.4903 50.524 30.8813C50.041 30.2513 49.432 29.7683 48.697 29.4323C47.983 29.0963 47.1745 28.9283 46.2715 28.9283C45.3475 28.9283 44.5285 29.1068 43.8145 29.4638C43.1005 29.7998 42.4915 30.2828 41.9875 30.9128C41.5045 31.5218 41.1265 32.2673 40.8535 33.1493C40.6015 34.0103 40.4755 34.9658 40.4755 36.0158ZM57.139 36.0158C57.139 37.8848 56.8555 39.5333 56.2885 40.9613C55.7425 42.3683 54.9865 43.5548 54.0205 44.5208C53.0545 45.4658 51.8995 46.1798 50.5555 46.6628C49.2325 47.1458 47.8045 47.3873 46.2715 47.3873C44.7805 47.3873 43.3735 47.1458 42.0505 46.6628C40.7275 46.1798 39.5725 45.4658 38.5855 44.5208C37.5985 43.5548 36.8215 42.3683 36.2545 40.9613C35.6875 39.5333 35.404 37.8848 35.404 36.0158C35.404 34.1468 35.698 32.5088 36.286 31.1018C36.874 29.6738 37.6615 28.4768 38.6485 27.5108C39.6565 26.5448 40.8115 25.8203 42.1135 25.3373C43.4365 24.8543 44.8225 24.6128 46.2715 24.6128C47.7625 24.6128 49.1695 24.8543 50.4925 25.3373C51.8155 25.8203 52.9705 26.5448 53.9575 27.5108C54.9445 28.4768 55.7215 29.6738 56.2885 31.1018C56.8555 32.5088 57.139 34.1468 57.139 36.0158Z" fill="#FF444F"/>
</g>
<g id="wordmark">
<path fill-rule="evenodd" clip-rule="evenodd" d="M108.739 19.1622L106.967 29.2131H100.815C95.0752 29.2131 89.6045 33.8632 88.5905 39.6027L88.1614 42.0457C87.1521 47.7853 90.9816 52.4355 96.7211 52.4355H101.852C106.035 52.4355 110.02 49.0491 110.756 44.866L115.482 18.0782L108.739 19.1622ZM104.374 43.918C104.147 45.2103 102.984 46.262 101.692 46.262H98.5745C95.9948 46.262 94.2687 44.1679 94.7214 41.5835L94.9903 40.0602C95.4477 37.4805 97.9095 35.3818 100.489 35.3818H105.879L104.374 43.918Z" fill="white"/>
<path d="M156.118 52.4371H162.503L166.54 29.5354H160.155L156.118 52.4371Z" fill="white"/>
<path d="M156.331 32.521L156.331 32.5157C156.491 31.6102 156.651 30.7047 156.811 29.7993C150.259 28.1109 145.155 29.8576 143.077 30.7182C143.077 30.7182 140.112 47.5221 139.245 52.4425H145.634C146.671 46.5619 147.708 40.6799 148.744 34.7993C149.703 34.6081 152.824 34.3087 155.849 35.2488C156.009 34.3395 156.17 33.4303 156.331 32.521Z" fill="white"/>
<path fill-rule="evenodd" clip-rule="evenodd" d="M130.914 29.2108H125.948C121.104 29.2108 116.487 33.1346 115.634 37.978L114.629 43.6704C113.776 48.5139 117.006 52.4378 121.85 52.4378H132.423L133.508 46.2832H123.571C121.958 46.2832 120.878 44.9768 121.166 43.3592L121.199 43.1658H137.219L138.134 37.978C138.988 33.1346 135.757 29.2108 130.914 29.2108ZM131.725 37.4876L131.687 37.8177H122.161L122.213 37.5253C122.5 35.9124 123.972 34.4928 125.589 34.4928H129.31C130.909 34.4928 131.989 35.8888 131.725 37.4876Z" fill="white"/>
<path d="M177.639 44.6411C180.538 39.425 183.734 32.5813 185.066 29.5354H191.461C189.284 35.3229 184.296 45.1679 179.463 52.4371H173.073C170.855 45.5185 169.423 35.8787 169.149 29.5354H175.54C175.655 31.6045 176.581 39.2794 177.639 44.6411Z" fill="white"/>
<path d="M215.75 26.186C212.316 26.186 209.828 27.1468 208.284 29.0683C206.772 30.9583 206.016 33.557 206.016 36.8645C206.016 38.4711 206.205 39.9358 206.583 41.2588C206.961 42.5503 207.528 43.6686 208.284 44.6136C209.04 45.5586 209.985 46.2988 211.119 46.8343C212.253 47.3383 213.576 47.5903 215.088 47.5903C215.907 47.5903 216.6 47.5746 217.167 47.5431C217.766 47.5116 218.285 47.4486 218.726 47.3541V35.9668H226.097V52.1736C225.215 52.5201 223.798 52.8823 221.845 53.2603C219.892 53.6698 217.482 53.8746 214.616 53.8746C212.159 53.8746 209.922 53.4966 207.906 52.7406C205.922 51.9846 204.221 50.8821 202.803 49.4331C201.386 47.9841 200.283 46.2043 199.496 44.0938C198.74 41.9833 198.362 39.5736 198.362 36.8645C198.362 34.124 198.787 31.6985 199.637 29.588C200.488 27.4775 201.653 25.6978 203.134 24.2488C204.614 22.7683 206.347 21.65 208.331 20.894C210.347 20.138 212.489 19.76 214.757 19.76C216.301 19.76 217.687 19.8703 218.915 20.0908C220.175 20.2798 221.246 20.516 222.128 20.7995C223.042 21.0515 223.782 21.3193 224.349 21.6028C224.948 21.8863 225.373 22.1068 225.625 22.2643L223.499 28.1705C222.491 27.635 221.325 27.1783 220.002 26.8003C218.711 26.3908 217.293 26.186 215.75 26.186Z" fill="white"/>
<path d="M236.783 36.8645C236.783 38.4711 236.972 39.9201 237.35 41.2116C237.759 42.5031 238.326 43.6213 239.051 44.5663C239.807 45.4798 240.72 46.1886 241.791 46.6926C242.862 47.1966 244.091 47.4486 245.477 47.4486C246.831 47.4486 248.044 47.1966 249.115 46.6926C250.218 46.1886 251.131 45.4798 251.856 44.5663C252.612 43.6213 253.179 42.5031 253.557 41.2116C253.966 39.9201 254.171 38.4711 254.171 36.8645C254.171 35.258 253.966 33.809 253.557 32.5175C253.179 31.1945 252.612 30.0763 251.856 29.1628C251.131 28.2178 250.218 27.4933 249.115 26.9893C248.044 26.4853 246.831 26.2333 245.477 26.2333C244.091 26.2333 242.862 26.501 241.791 27.0365C240.72 27.5405 239.807 28.265 239.051 29.21C238.326 30.1235 237.759 31.2418 237.35 32.5648C236.972 33.8563 236.783 35.2895 236.783 36.8645ZM261.778 36.8645C261.778 39.6681 261.353 42.1408 260.503 44.2828C259.684 46.3933 258.549 48.1731 257.1 49.6221C255.651 51.0396 253.919 52.1106 251.903 52.8351C249.918 53.5596 247.776 53.9218 245.477 53.9218C243.24 53.9218 241.13 53.5596 239.145 52.8351C237.161 52.1106 235.428 51.0396 233.948 49.6221C232.467 48.1731 231.302 46.3933 230.451 44.2828C229.601 42.1408 229.176 39.6681 229.176 36.8645C229.176 34.061 229.617 31.604 230.499 29.4935C231.381 27.3515 232.562 25.556 234.042 24.107C235.554 22.658 237.287 21.5713 239.24 20.8468C241.224 20.1223 243.303 19.76 245.477 19.76C247.713 19.76 249.824 20.1223 251.808 20.8468C253.793 21.5713 255.525 22.658 257.006 24.107C258.486 25.556 259.652 27.3515 260.503 29.4935C261.353 31.604 261.778 34.061 261.778 36.8645Z" fill="white"/>
</g>
</g>
<defs>
<clipPath id="clip0_203_135">
<rect width="262" height="72" fill="white"/>
</clipPath>
</defs>
</svg>
