<svg width="72" height="72" viewBox="0 0 72 72" fill="none" xmlns="http://www.w3.org/2000/svg">
<g id="logo / deriv product / deriv go ultimate / brand-dark / logo horizontal" clip-path="url(#clip0_203_233)">
<g id="logo">
<path d="M0 13.5C0 6.04416 6.04416 0 13.5 0H58.5C65.9558 0 72 6.04416 72 13.5V58.5C72 65.9558 65.9558 72 58.5 72H13.5C6.04416 72 0 65.9558 0 58.5V13.5Z" fill="#FF444F"/>
<path d="M13.5 0C6.04416 0 0 6.04416 0 13.5V13.8921L67.3075 3.26845C64.9433 1.2315 61.8655 0 58.5 0H13.5Z" fill="#E12E3A"/>
<path d="M68.6969 4.65243L56.3498 71.9999L58.5 72C65.9558 72 72 65.9558 72 58.5V13.5C72 10.1155 70.7545 7.02183 68.6969 4.65243Z" fill="#E12E3A"/>
<path d="M0 51.75H72V58.5C72 65.9558 65.9558 72 58.5 72H13.5C6.04416 72 0 65.9558 0 58.5V51.75Z" fill="#414652"/>
<path d="M26.4531 25.4493C24.1641 25.4493 22.5051 26.0898 21.4761 27.3708C20.4681 28.6308 19.9641 30.3633 19.9641 32.5683C19.9641 33.6393 20.0901 34.6158 20.3421 35.4978C20.5941 36.3588 20.9721 37.1043 21.4761 37.7343C21.9801 38.3643 22.6101 38.8578 23.3661 39.2148C24.1221 39.5508 25.0041 39.7188 26.0121 39.7188C26.5581 39.7188 27.0201 39.7083 27.3981 39.6873C27.7971 39.6663 28.1436 39.6243 28.4376 39.5613V31.9698H33.3516V42.7743C32.7636 43.0053 31.8186 43.2468 30.5166 43.4988C29.2146 43.7718 27.6081 43.9083 25.6971 43.9083C24.0591 43.9083 22.5681 43.6563 21.2241 43.1523C19.9011 42.6483 18.7671 41.9133 17.8221 40.9473C16.8771 39.9813 16.1421 38.7948 15.6171 37.3878C15.1131 35.9808 14.8611 34.3743 14.8611 32.5683C14.8611 30.7413 15.1446 29.1243 15.7116 27.7173C16.2786 26.3103 17.0556 25.1238 18.0426 24.1578C19.0296 23.1708 20.1846 22.4253 21.5076 21.9213C22.8516 21.4173 24.2796 21.1653 25.7916 21.1653C26.8206 21.1653 27.7446 21.2388 28.5636 21.3858C29.4036 21.5118 30.1176 21.6693 30.7056 21.8583C31.3146 22.0263 31.8081 22.2048 32.1861 22.3938C32.5851 22.5828 32.8686 22.7298 33.0366 22.8348L31.6191 26.7723C30.9471 26.4153 30.1701 26.1108 29.2881 25.8588C28.4271 25.5858 27.4821 25.4493 26.4531 25.4493Z" fill="white"/>
<path d="M40.4753 32.5683C40.4753 33.6393 40.6013 34.6053 40.8533 35.4663C41.1263 36.3273 41.5043 37.0728 41.9873 37.7028C42.4913 38.3118 43.1003 38.7843 43.8143 39.1203C44.5283 39.4563 45.3473 39.6243 46.2713 39.6243C47.1743 39.6243 47.9828 39.4563 48.6968 39.1203C49.4318 38.7843 50.0408 38.3118 50.5238 37.7028C51.0278 37.0728 51.4058 36.3273 51.6578 35.4663C51.9308 34.6053 52.0673 33.6393 52.0673 32.5683C52.0673 31.4973 51.9308 30.5313 51.6578 29.6703C51.4058 28.7883 51.0278 28.0428 50.5238 27.4338C50.0408 26.8038 49.4318 26.3208 48.6968 25.9848C47.9828 25.6488 47.1743 25.4808 46.2713 25.4808C45.3473 25.4808 44.5283 25.6593 43.8143 26.0163C43.1003 26.3523 42.4913 26.8353 41.9873 27.4653C41.5043 28.0743 41.1263 28.8198 40.8533 29.7018C40.6013 30.5628 40.4753 31.5183 40.4753 32.5683ZM57.1388 32.5683C57.1388 34.4373 56.8553 36.0858 56.2883 37.5138C55.7423 38.9208 54.9863 40.1073 54.0203 41.0733C53.0543 42.0183 51.8993 42.7323 50.5553 43.2153C49.2323 43.6983 47.8043 43.9398 46.2713 43.9398C44.7803 43.9398 43.3733 43.6983 42.0503 43.2153C40.7273 42.7323 39.5723 42.0183 38.5853 41.0733C37.5983 40.1073 36.8213 38.9208 36.2543 37.5138C35.6873 36.0858 35.4038 34.4373 35.4038 32.5683C35.4038 30.6993 35.6978 29.0613 36.2858 27.6543C36.8738 26.2263 37.6613 25.0293 38.6483 24.0633C39.6563 23.0973 40.8113 22.3728 42.1133 21.8898C43.4363 21.4068 44.8223 21.1653 46.2713 21.1653C47.7623 21.1653 49.1693 21.4068 50.4923 21.8898C51.8153 22.3728 52.9703 23.0973 53.9573 24.0633C54.9443 25.0293 55.7213 26.2263 56.2883 27.6543C56.8553 29.0613 57.1388 30.6993 57.1388 32.5683Z" fill="white"/>
<path d="M12.2496 66.1576C11.7021 66.1576 11.2296 66.0826 10.8321 65.9326C10.4346 65.7751 10.1046 65.5613 9.84213 65.2913C9.58713 65.0138 9.39588 64.6876 9.26838 64.3126C9.14838 63.9301 9.08838 63.5101 9.08838 63.0526V58.2038H10.8434V62.9063C10.8434 63.2213 10.8771 63.4913 10.9446 63.7163C11.0196 63.9338 11.1171 64.1138 11.2371 64.2563C11.3646 64.3913 11.5146 64.4888 11.6871 64.5488C11.8671 64.6088 12.0621 64.6388 12.2721 64.6388C12.6996 64.6388 13.0446 64.5076 13.3071 64.2451C13.5771 63.9826 13.7121 63.5363 13.7121 62.9063V58.2038H15.4671V63.0526C15.4671 63.5101 15.4034 63.9301 15.2759 64.3126C15.1484 64.6951 14.9534 65.0251 14.6909 65.3026C14.4284 65.5726 14.0946 65.7826 13.6896 65.9326C13.2846 66.0826 12.8046 66.1576 12.2496 66.1576Z" fill="white"/>
<path d="M22.3637 64.4926V66.0001H17.155V58.2038H18.91V64.4926H22.3637Z" fill="white"/>
<path d="M28.3977 58.2038V59.7001H26.0464V66.0001H24.2914V59.7001H21.9402V58.2038H28.3977Z" fill="white"/>
<path d="M29.5256 58.2038H31.2806V66.0001H29.5256V58.2038Z" fill="white"/>
<path d="M35.1552 58.2038C35.2902 58.4513 35.4439 58.7588 35.6164 59.1263C35.7964 59.4863 35.9802 59.8801 36.1677 60.3076C36.3627 60.7276 36.5539 61.1588 36.7414 61.6013C36.9289 62.0438 37.1052 62.4601 37.2702 62.8501C37.4352 62.4601 37.6114 62.0438 37.7989 61.6013C37.9864 61.1588 38.1739 60.7276 38.3614 60.3076C38.5564 59.8801 38.7402 59.4863 38.9127 59.1263C39.0927 58.7588 39.2502 58.4513 39.3852 58.2038H40.9827C41.0577 58.7213 41.1252 59.3026 41.1852 59.9476C41.2527 60.5851 41.3089 61.2526 41.3539 61.9501C41.4064 62.6401 41.4514 63.3338 41.4889 64.0313C41.5339 64.7288 41.5714 65.3851 41.6014 66.0001H39.8914C39.8689 65.2426 39.8389 64.4176 39.8014 63.5251C39.7639 62.6326 39.7077 61.7326 39.6327 60.8251C39.4977 61.1401 39.3477 61.4888 39.1827 61.8713C39.0177 62.2538 38.8527 62.6363 38.6877 63.0188C38.5302 63.4013 38.3764 63.7688 38.2264 64.1213C38.0764 64.4663 37.9489 64.7626 37.8439 65.0101H36.6177C36.5127 64.7626 36.3852 64.4663 36.2352 64.1213C36.0852 63.7688 35.9277 63.4013 35.7627 63.0188C35.6052 62.6363 35.4439 62.2538 35.2789 61.8713C35.1139 61.4888 34.9639 61.1401 34.8289 60.8251C34.7539 61.7326 34.6977 62.6326 34.6602 63.5251C34.6227 64.4176 34.5927 65.2426 34.5702 66.0001H32.8602C32.8902 65.3851 32.9239 64.7288 32.9614 64.0313C33.0064 63.3338 33.0514 62.6401 33.0964 61.9501C33.1489 61.2526 33.2052 60.5851 33.2652 59.9476C33.3327 59.3026 33.4039 58.7213 33.4789 58.2038H35.1552Z" fill="white"/>
<path d="M48.4016 66.0001C48.3191 65.7301 48.2253 65.4526 48.1203 65.1676C48.0228 64.8826 47.9253 64.5976 47.8278 64.3126H44.7903C44.6928 64.5976 44.5916 64.8826 44.4866 65.1676C44.3891 65.4526 44.2991 65.7301 44.2166 66.0001H42.3941C42.6866 65.1601 42.9641 64.3838 43.2266 63.6713C43.4891 62.9588 43.7441 62.2876 43.9916 61.6576C44.2466 61.0276 44.4941 60.4313 44.7341 59.8688C44.9816 59.2988 45.2366 58.7438 45.4991 58.2038H47.1753C47.4303 58.7438 47.6816 59.2988 47.9291 59.8688C48.1766 60.4313 48.4241 61.0276 48.6716 61.6576C48.9266 62.2876 49.1853 62.9588 49.4478 63.6713C49.7103 64.3838 49.9878 65.1601 50.2803 66.0001H48.4016ZM46.2978 59.9701C46.2603 60.0826 46.2041 60.2363 46.1291 60.4313C46.0541 60.6263 45.9678 60.8513 45.8703 61.1063C45.7728 61.3613 45.6641 61.6426 45.5441 61.9501C45.4316 62.2576 45.3153 62.5801 45.1953 62.9176H47.4116C47.2916 62.5801 47.1753 62.2576 47.0628 61.9501C46.9503 61.6426 46.8416 61.3613 46.7366 61.1063C46.6391 60.8513 46.5528 60.6263 46.4778 60.4313C46.4028 60.2363 46.3428 60.0826 46.2978 59.9701Z" fill="white"/>
<path d="M56.1491 58.2038V59.7001H53.7979V66.0001H52.0429V59.7001H49.6917V58.2038H56.1491Z" fill="white"/>
<path d="M57.2771 66.0001V58.2038H62.5421V59.6776H59.0321V61.2076H62.1483V62.6476H59.0321V64.5263H62.8008V66.0001H57.2771Z" fill="white"/>
</g>
</g>
<defs>
<clipPath id="clip0_203_233">
<rect width="72" height="72" fill="white"/>
</clipPath>
</defs>
</svg>
