<svg width="128" height="80" viewBox="0 0 128 80" fill="none" xmlns="http://www.w3.org/2000/svg">
<g id="logo / payment method / bitcoin / brand-dark">
<g id="logo">
<circle id="bg" cx="28" cy="40" r="18" fill="#F7931B"/>
<path id="logo_2" fill-rule="evenodd" clip-rule="evenodd" d="M26.4031 31.5244L27.1976 28.2778L29.1331 28.7698L28.3538 31.9523C28.8756 32.0752 29.3983 32.1984 29.9073 32.3264L30.679 29.1644L32.6145 29.6564L31.8225 32.9055C34.2673 33.7639 36.0551 35.0528 35.7011 37.4512C35.449 39.2039 34.4965 40.0546 33.2308 40.3519C34.9677 41.2769 35.8514 42.6914 35.011 45.1487C33.9643 48.1954 31.4812 48.4542 28.1807 47.8136L27.3784 51.0935L25.4429 50.6015L26.2324 47.3678C25.7333 47.2396 25.2188 47.1038 24.6891 46.9578L23.8971 50.2069L21.9616 49.7149L22.7638 46.4299C21.4648 46.0921 20.1656 45.7563 18.8647 45.4255L19.8249 43.1628C19.8249 43.1628 21.251 43.5472 21.2332 43.5216C21.7807 43.66 22.0227 43.2935 22.1195 43.0501C22.8451 40.0858 23.5689 37.121 24.2918 34.156C24.3173 33.7358 24.1747 33.2053 23.3903 33.0055C23.4208 32.9824 21.9845 32.6493 21.9845 32.6493L22.4989 30.5379C23.799 30.8687 25.096 31.2215 26.4031 31.5244ZM26.8498 40.3364C26.6708 40.2955 26.5126 40.2593 26.3827 40.2263L25.3207 44.5773C25.4284 44.6047 25.5547 44.6387 25.6959 44.6769C27.2743 45.103 30.7307 46.0361 31.28 43.7829C31.8423 41.4785 28.4814 40.7097 26.8498 40.3364ZM28.2308 34.3816C28.0785 34.3473 27.9442 34.3171 27.8343 34.2892L26.8691 38.2353C26.9613 38.2587 27.0697 38.2882 27.1912 38.3212C28.5101 38.6797 31.3772 39.4589 31.8785 37.4154C32.3893 35.318 29.5932 34.6884 28.2308 34.3816Z" fill="white"/>
</g>
<path id="wordmark" d="M86.8254 36.3898C87.4954 36.3898 88.0953 36.4538 88.6213 36.5845C89.1512 36.7153 89.6314 36.8844 90.0645 37.0972L88.9245 39.7436C88.6264 39.6205 88.3169 39.5129 87.9972 39.4129C87.6775 39.313 87.2865 39.2643 86.8254 39.2643C85.7211 39.2643 84.8486 39.6526 84.1991 40.4266C83.552 41.202 83.2272 42.2439 83.2272 43.5523C83.2272 44.3276 83.3903 44.9543 83.7189 45.4336C84.0462 45.9129 84.6512 46.1513 85.5275 46.1513C85.9606 46.1513 86.3796 46.1051 86.7796 46.0154C87.1821 45.9244 87.5387 45.8104 87.852 45.6733L88.0991 48.3863C87.6814 48.5529 87.2203 48.7016 86.7146 48.8336C86.2077 48.9591 85.6039 49.0258 84.9034 49.0258C83.98 49.0258 83.1979 48.8874 82.5585 48.6157C81.9179 48.3389 81.3893 47.9724 80.9728 47.5084C80.555 47.0432 80.2544 46.5011 80.0684 45.877C79.8825 45.2542 79.7882 44.5993 79.7882 43.9163C79.7882 42.8833 79.9513 41.9094 80.2786 40.9969C80.6047 40.0844 81.0759 39.286 81.6873 38.6004C82.2961 37.9199 83.0374 37.3791 83.9099 36.9831C84.7799 36.5884 85.7517 36.3898 86.8242 36.3898H86.8254ZM59.6828 31.0085L58.2996 36.8908C58.5951 36.755 58.8944 36.6499 59.1912 36.573C59.4905 36.4961 59.8102 36.4577 60.1516 36.4577C60.8674 36.4577 61.4864 36.5884 62.0061 36.846C62.5283 37.1049 62.9588 37.4547 63.3052 37.8956C63.6453 38.3377 63.8988 38.8542 64.0631 39.4462C64.2261 40.0396 64.3077 40.6778 64.3077 41.3621C64.3077 42.4117 64.1191 43.4036 63.7383 44.3379C63.3587 45.2734 62.8429 46.0859 62.1857 46.7792C61.5297 47.4713 60.7553 48.0159 59.8624 48.4196C58.9708 48.822 58.0016 49.0245 56.9597 49.0245C56.8259 49.0245 56.589 49.0207 56.254 49.013C55.9203 49.0066 55.5357 48.9707 55.1052 48.9104C54.6721 48.8502 54.2136 48.7592 53.7308 48.6362C53.2468 48.517 52.7883 48.3479 52.3565 48.1351L56.2222 31.5558L59.6828 31.0085ZM96.4381 36.3898C97.2125 36.3898 97.8939 36.5128 98.4836 36.755C99.0695 36.9985 99.5535 37.3419 99.9356 37.7815C100.314 38.2236 100.601 38.7427 100.794 39.345C100.989 39.9435 101.085 40.6099 101.085 41.3391C101.085 42.249 100.943 43.1627 100.662 44.0765C100.38 44.9864 99.9611 45.8078 99.4096 46.5396C98.8594 47.2688 98.1716 47.8647 97.3437 48.3286C96.5183 48.7913 95.5605 49.0245 94.4727 49.0245C93.683 49.0245 92.9991 48.9015 92.417 48.6593C91.8374 48.4158 91.3573 48.0749 90.9777 47.6327C90.5969 47.1932 90.3128 46.6716 90.1179 46.0705C89.9218 45.4708 89.8288 44.8057 89.8288 44.0777C89.8288 43.164 89.9727 42.2503 90.2619 41.3391C90.5523 40.4266 90.9802 39.6064 91.5483 38.8772C92.1113 38.1468 92.8067 37.5496 93.6244 37.0843C94.4422 36.623 95.3822 36.3898 96.4381 36.3898ZM77.0727 33.1756L76.2231 36.7101H79.9321L79.2622 39.4911H75.5761L74.5941 43.6882C74.5036 44.038 74.4514 44.3648 74.4374 44.6673C74.4208 44.9723 74.4591 45.235 74.5482 45.4554C74.6374 45.6758 74.7966 45.8463 75.0284 45.968C75.2589 46.0898 75.5888 46.1513 76.0219 46.1513C76.3785 46.1513 76.7262 46.1167 77.0625 46.0488C77.3962 45.9808 77.735 45.886 78.0776 45.763L78.3247 48.3645C77.8777 48.5311 77.3937 48.6746 76.8727 48.7964C76.3505 48.9194 75.7315 48.9784 75.0169 48.9784C73.9903 48.9784 73.1943 48.822 72.6262 48.5119C72.0607 48.2005 71.6595 47.7737 71.42 47.2329C71.1831 46.6947 71.0774 46.0744 71.1079 45.3759C71.1385 44.6749 71.2417 43.9393 71.42 43.164L73.6108 33.7229L77.0727 33.1756ZM70.7131 36.7101L67.8982 48.7054H64.5917L67.3836 36.7101H70.7131ZM107.503 36.7101L104.688 48.7054H101.379L104.172 36.7101H107.503ZM114.618 36.4359C116.361 36.4359 117.564 36.9536 118.227 37.9866C118.89 39.0208 119.004 40.4356 118.575 42.2285L117.054 48.7054H113.726L115.2 42.3656C115.289 41.9683 115.36 41.5864 115.412 41.2122C115.465 40.8418 115.462 40.515 115.4 40.2331C115.341 39.9537 115.203 39.7243 114.988 39.5475C114.77 39.3732 114.441 39.286 113.993 39.286C113.562 39.286 113.124 39.3335 112.676 39.4245L110.509 48.7054H107.179L109.883 37.2574C110.134 37.1817 110.414 37.092 110.72 36.9946C111.026 36.896 111.367 36.805 111.749 36.723C112.126 36.6384 112.552 36.5692 113.022 36.5166C113.49 36.4615 114.024 36.4359 114.618 36.4359ZM59.3262 39.286C59.1173 39.286 58.8473 39.3271 58.5123 39.4001C58.1761 39.477 57.8755 39.6372 57.6067 39.8794L56.133 46.1269L56.3674 46.1731C56.4324 46.1884 56.505 46.1987 56.5776 46.2077C56.654 46.2154 56.7419 46.2205 56.8476 46.2205H57.2488C57.771 46.2205 58.2614 46.0898 58.7225 45.8322C59.1848 45.5759 59.5848 45.2273 59.9197 44.7941C60.2535 44.3597 60.5184 43.8714 60.712 43.3229C60.9043 42.7757 61.0024 42.2054 61.0024 41.612C61.0024 40.8816 60.8827 40.3126 60.6458 39.9012C60.4076 39.4911 59.9669 39.286 59.3275 39.286H59.3262ZM96.126 39.2643C95.6356 39.2643 95.2026 39.4091 94.8319 39.6961C94.4587 39.9871 94.1467 40.351 93.8945 40.7919C93.6397 41.234 93.45 41.7159 93.3213 42.24C93.1965 42.7654 93.1341 43.2614 93.1341 43.733C93.1341 44.4942 93.2538 45.0876 93.4907 45.5144C93.7302 45.9373 94.1607 46.1513 94.7861 46.1513C95.279 46.1513 95.7095 46.0077 96.0827 45.7168C96.4521 45.4298 96.7654 45.0632 97.0201 44.6224C97.2736 44.1828 97.4634 43.6997 97.592 43.1743C97.7169 42.6514 97.7805 42.1516 97.7805 41.6813C97.7805 40.9226 97.6608 40.3279 97.4214 39.9025C97.1832 39.477 96.7514 39.2643 96.126 39.2643ZM69.9998 31.2354C70.4609 31.2354 70.8774 31.3763 71.2493 31.657C71.6212 31.9389 71.8085 32.3695 71.8085 32.945C71.8085 33.2653 71.7448 33.5652 71.6174 33.8472C71.4913 34.1291 71.3245 34.3713 71.1156 34.5776C70.9092 34.7827 70.6647 34.9442 70.3896 35.0672C70.1132 35.1902 69.8202 35.2479 69.5082 35.2479C69.0471 35.2479 68.6293 35.1069 68.2574 34.8263C67.8829 34.5469 67.697 34.1176 67.697 33.5383C67.697 33.2179 67.7607 32.9206 67.888 32.6374C68.0154 32.3554 68.181 32.1145 68.3911 31.9069C68.6 31.7031 68.8408 31.5404 69.1171 31.4174C69.3923 31.2956 69.6865 31.2354 69.9998 31.2354ZM106.787 31.2354C107.249 31.2354 107.667 31.3763 108.039 31.657C108.411 31.9389 108.599 32.3695 108.599 32.945C108.599 33.2653 108.532 33.5652 108.407 33.8472C108.282 34.1291 108.114 34.3713 107.906 34.5776C107.696 34.7827 107.456 34.9442 107.18 35.0672C106.904 35.1902 106.61 35.2479 106.297 35.2479C105.835 35.2479 105.418 35.1069 105.046 34.8263C104.674 34.5469 104.487 34.1176 104.487 33.5383C104.487 33.2179 104.55 32.9206 104.678 32.6374C104.802 32.3554 104.971 32.1145 105.179 31.9069C105.388 31.7031 105.632 31.5404 105.905 31.4174C106.181 31.2956 106.475 31.2354 106.787 31.2354Z" fill="white"/>
</g>
</svg>
