<svg width="128" height="80" viewBox="0 0 128 80" fill="none" xmlns="http://www.w3.org/2000/svg">
<g id="logo / payment method / diamond bank / brand-dark">
<g id="logo">
<path d="M80.7983 59.523V56.8671L78.4867 53.2124H79.9804L81.4655 55.7091L82.9205 53.2124H84.3884L82.0682 56.8757V59.523H80.7983Z" fill="#B9D502"/>
<path d="M84.0785 57.1727C84.0785 56.7709 84.1775 56.3821 84.3755 56.0061C84.5735 55.6302 84.8533 55.3432 85.2149 55.1452C85.5794 54.9472 85.9855 54.8482 86.4331 54.8482C87.1248 54.8482 87.6916 55.0734 88.1335 55.524C88.5754 55.9717 88.7964 56.5385 88.7964 57.2243C88.7964 57.916 88.5726 58.4899 88.1249 58.9462C87.6801 59.3996 87.119 59.6264 86.4418 59.6264C86.0228 59.6264 85.6224 59.5317 85.2407 59.3423C84.8619 59.1528 84.5735 58.8759 84.3755 58.5114C84.1775 58.1441 84.0785 57.6979 84.0785 57.1727ZM85.3182 57.2373C85.3182 57.6907 85.4258 58.0379 85.6411 58.279C85.8563 58.5201 86.1218 58.6406 86.4375 58.6406C86.7531 58.6406 87.0172 58.5201 87.2295 58.279C87.4447 58.0379 87.5524 57.6878 87.5524 57.2287C87.5524 56.781 87.4447 56.4366 87.2295 56.1955C87.0172 55.9545 86.7531 55.8339 86.4375 55.8339C86.1218 55.8339 85.8563 55.9545 85.6411 56.1955C85.4258 56.4366 85.3182 56.7838 85.3182 57.2373Z" fill="#B9D502"/>
<path d="M92.7567 59.523V58.8386C92.5903 59.0825 92.3707 59.2748 92.0981 59.4154C91.8284 59.5561 91.5428 59.6264 91.2415 59.6264C90.9344 59.6264 90.6589 59.5589 90.415 59.424C90.1711 59.2892 89.9946 59.0998 89.8855 58.8558C89.7765 58.6119 89.7219 58.2747 89.7219 57.8442V54.9515H90.9315V57.0522C90.9315 57.695 90.9531 58.0896 90.9961 58.236C91.042 58.3794 91.1238 58.4942 91.2415 58.5803C91.3591 58.6635 91.5084 58.7052 91.6892 58.7052C91.8958 58.7052 92.0809 58.6492 92.2445 58.5373C92.4081 58.4225 92.52 58.2819 92.5802 58.1154C92.6405 57.9461 92.6706 57.5343 92.6706 56.88V54.9515H93.8803V59.523H92.7567Z" fill="#B9D502"/>
<path d="M96.2952 59.523H95.0856V54.9515H96.2091V55.6015C96.4014 55.2944 96.5736 55.0921 96.7257 54.9945C96.8806 54.8969 97.0557 54.8482 97.2508 54.8482C97.5263 54.8482 97.7918 54.9242 98.0472 55.0763L97.6727 56.131C97.4689 55.9989 97.2795 55.9329 97.1045 55.9329C96.9352 55.9329 96.7917 55.9803 96.674 56.075C96.5563 56.1668 96.4631 56.3347 96.3942 56.5786C96.3282 56.8226 96.2952 57.3334 96.2952 58.1111V59.523Z" fill="#B9D502"/>
<path d="M101.039 53.2124H103.562C104.061 53.2124 104.432 53.2339 104.676 53.2769C104.923 53.3171 105.143 53.4032 105.335 53.5352C105.53 53.6672 105.692 53.8437 105.821 54.0647C105.951 54.2828 106.015 54.5282 106.015 54.8008C106.015 55.0964 105.935 55.3676 105.774 55.6144C105.616 55.8612 105.401 56.0463 105.128 56.1697C105.513 56.2816 105.809 56.4725 106.015 56.7422C106.222 57.012 106.325 57.3291 106.325 57.6936C106.325 57.9805 106.258 58.2603 106.123 58.533C105.991 58.8027 105.809 59.0194 105.576 59.183C105.347 59.3437 105.062 59.4427 104.724 59.48C104.511 59.503 103.999 59.5173 103.187 59.523H101.039V53.2124ZM102.313 54.2627V55.722H103.148C103.645 55.722 103.953 55.7148 104.074 55.7005C104.292 55.6747 104.463 55.6 104.586 55.4766C104.712 55.3504 104.775 55.1854 104.775 54.9816C104.775 54.7865 104.721 54.6286 104.612 54.5081C104.506 54.3847 104.346 54.3101 104.134 54.2842C104.008 54.2699 103.645 54.2627 103.045 54.2627H102.313ZM102.313 56.7724V58.4598H103.493C103.952 58.4598 104.243 58.4469 104.366 58.4211C104.556 58.3866 104.709 58.3034 104.827 58.1714C104.948 58.0365 105.008 57.8571 105.008 57.6333C105.008 57.4439 104.962 57.2832 104.87 57.1512C104.778 57.0192 104.645 56.923 104.47 56.8628C104.298 56.8025 103.922 56.7724 103.342 56.7724H102.313Z" fill="#B9D502"/>
<path d="M108.301 56.3462L107.203 56.1482C107.327 55.7062 107.539 55.3791 107.84 55.1667C108.142 54.9543 108.589 54.8482 109.183 54.8482C109.723 54.8482 110.125 54.9127 110.389 55.0419C110.653 55.1681 110.838 55.3303 110.944 55.5283C111.053 55.7234 111.108 56.0836 111.108 56.6088L111.095 58.0207C111.095 58.4225 111.113 58.7195 111.151 58.9118C111.191 59.1012 111.264 59.3049 111.37 59.523H110.174C110.142 59.4427 110.103 59.3236 110.057 59.1658C110.037 59.094 110.023 59.0467 110.014 59.0237C109.808 59.2246 109.587 59.3753 109.351 59.4757C109.116 59.5761 108.865 59.6264 108.598 59.6264C108.127 59.6264 107.756 59.4987 107.483 59.2432C107.213 58.9878 107.078 58.665 107.078 58.2747C107.078 58.0164 107.14 57.7868 107.264 57.5859C107.387 57.3822 107.559 57.2272 107.78 57.121C108.004 57.012 108.325 56.9173 108.744 56.8369C109.31 56.7307 109.701 56.6317 109.92 56.5399V56.4194C109.92 56.1869 109.862 56.0219 109.747 55.9243C109.633 55.8239 109.416 55.7737 109.097 55.7737C108.882 55.7737 108.714 55.8167 108.594 55.9028C108.473 55.986 108.376 56.1338 108.301 56.3462ZM109.92 57.3277C109.765 57.3793 109.519 57.441 109.183 57.5128C108.848 57.5845 108.628 57.6548 108.525 57.7237C108.367 57.8356 108.288 57.9777 108.288 58.1499C108.288 58.3192 108.351 58.4655 108.477 58.5889C108.604 58.7123 108.764 58.774 108.96 58.774C109.178 58.774 109.386 58.7023 109.584 58.5588C109.73 58.4497 109.826 58.3163 109.872 58.1585C109.904 58.0551 109.92 57.8586 109.92 57.5687V57.3277Z" fill="#B9D502"/>
<path d="M116.463 59.523H115.253V57.1899C115.253 56.6963 115.227 56.3778 115.176 56.2343C115.124 56.0879 115.039 55.9746 114.922 55.8942C114.807 55.8138 114.668 55.7737 114.504 55.7737C114.295 55.7737 114.107 55.8311 113.94 55.9459C113.774 56.0606 113.659 56.2127 113.596 56.4022C113.535 56.5916 113.505 56.9417 113.505 57.4525V59.523H112.296V54.9515H113.419V55.623C113.818 55.1064 114.32 54.8482 114.926 54.8482C115.193 54.8482 115.437 54.8969 115.658 54.9945C115.879 55.0892 116.045 55.2112 116.157 55.3604C116.272 55.5096 116.351 55.679 116.394 55.8684C116.44 56.0578 116.463 56.329 116.463 56.682V59.523Z" fill="#B9D502"/>
<path d="M117.651 59.523V53.2124H118.86V56.5614L120.277 54.9515H121.766L120.203 56.6217L121.878 59.523H120.574L119.424 57.4697L118.86 58.0595V59.523H117.651Z" fill="#B9D502"/>
<path fill-rule="evenodd" clip-rule="evenodd" d="M6.05811 39.0124L11.2511 41.2813L15.1245 39.0124L20.1242 33.7289H11.3182L6.05811 39.0124Z" fill="#FF7D00"/>
<path fill-rule="evenodd" clip-rule="evenodd" d="M6.05811 39.0124L20.7613 53.7134L22.9283 48.1206L20.7635 44.6437L15.1245 39.0124H6.05811Z" fill="#ED3024"/>
<path fill-rule="evenodd" clip-rule="evenodd" d="M46.8923 35.6102H41.5872V48.9541H46.8923C51.2912 48.9541 53.5072 45.636 53.5072 42.3019C53.5072 38.964 51.2911 35.6102 46.8923 35.6102ZM46.8923 45.8485H44.8292V38.6961H46.8923C49.1381 38.6961 50.2809 40.5466 50.2809 42.3019C50.2809 44.0552 49.1378 45.8485 46.8923 45.8485Z" fill="white"/>
<path fill-rule="evenodd" clip-rule="evenodd" d="M54.5906 48.9553H57.6408V38.6403H54.5906V48.9553Z" fill="white"/>
<path fill-rule="evenodd" clip-rule="evenodd" d="M66.6623 39.7094C65.9938 38.8502 65.0017 38.4675 63.9926 38.4675C60.6568 38.4675 59.0333 40.7947 58.9951 43.6159C58.9771 46.4591 60.6727 49.0899 63.9523 49.0899C64.9459 49.0899 65.955 48.8054 66.6621 47.9254L66.6624 48.9553H69.6533V38.6416H66.6624L66.6623 39.7094ZM64.3158 46.2096C62.7719 46.2096 61.9879 44.9312 62.0088 43.6926C62.0289 42.4366 62.7933 41.235 64.3158 41.235C65.6125 41.2347 66.6621 42.3576 66.6621 43.7321C66.6624 45.1044 65.6121 46.2096 64.3158 46.2096Z" fill="white"/>
<path fill-rule="evenodd" clip-rule="evenodd" d="M83.5947 38.5076C82.3904 38.4499 80.8823 38.8887 80.181 39.8606C79.7039 39.0781 78.9411 38.5439 77.7592 38.4862C76.6517 38.4675 75.4335 38.7539 74.7093 39.6689L74.7097 38.6403H71.6781V48.9553H74.8605V43.1204C74.8605 41.9592 75.8309 41.4229 76.5774 41.4429C77.2635 41.4613 77.8554 41.9186 77.8554 43.1563L77.8557 48.9553H80.8826V43.0841C80.9077 41.9386 82.0097 41.4229 82.7539 41.4429C83.4404 41.4613 84.0317 41.9186 84.0317 43.1563L84.0324 48.9553H87.0634V43.1389C87.1016 39.8801 85.5364 38.5821 83.5947 38.5076Z" fill="white"/>
<path fill-rule="evenodd" clip-rule="evenodd" d="M88.2126 43.7771C88.2126 51.0783 99.2153 51.1165 99.2153 43.7771C99.2153 36.4355 88.2126 36.4145 88.2126 43.7771ZM91.2237 43.7771C91.2237 40.286 96.1993 40.2675 96.1993 43.7771C96.1993 47.2458 91.2237 47.2252 91.2237 43.7771Z" fill="white"/>
<path fill-rule="evenodd" clip-rule="evenodd" d="M106.433 38.487C105.326 38.487 104.108 38.7538 103.381 39.671V38.6403H100.35V48.9561H103.535V43.348C103.535 42.0347 104.602 41.2721 105.498 41.2721C106.318 41.2719 107.1 41.9025 107.1 43.2911V48.9561H110.151V43.2745C110.17 40.6974 109.367 38.5254 106.433 38.487Z" fill="white"/>
<path fill-rule="evenodd" clip-rule="evenodd" d="M118.947 35.5138V39.5751C118.259 38.792 117.288 38.4675 116.278 38.4675C112.942 38.4675 111.322 40.7947 111.282 43.6159C111.264 46.4612 112.959 49.0899 116.242 49.0899C117.231 49.0899 118.241 48.8041 118.947 47.9275V48.9553H121.942V35.5138H118.947ZM116.602 46.2075C115.058 46.2075 114.274 44.9312 114.296 43.6926C114.314 42.4366 115.078 41.235 116.602 41.235C117.9 41.2347 118.947 42.3599 118.947 43.7321C118.947 45.1044 117.899 46.2075 116.602 46.2075Z" fill="white"/>
<path fill-rule="evenodd" clip-rule="evenodd" d="M56.116 34.1548C55.0916 34.1548 54.2656 34.983 54.2656 36.0041C54.2656 37.0249 55.0916 37.8522 56.116 37.8522C57.1359 37.8522 57.9632 37.0249 57.9632 36.0041C57.9632 34.983 57.1359 34.1548 56.116 34.1548Z" fill="white"/>
<path fill-rule="evenodd" clip-rule="evenodd" d="M26.3974 39.0125L20.7635 44.6437L20.7613 53.7134L35.4633 39.0125L28.8864 35.2482L26.3974 39.0125Z" fill="#0099B0"/>
<path fill-rule="evenodd" clip-rule="evenodd" d="M16.8416 20.373L35.4613 39.0125L26.3974 39.0125L16.8416 29.4721V20.373Z" fill="#B5D433"/>
</g>
</g>
</svg>
