<svg width="128" height="80" viewBox="0 0 128 80" fill="none" xmlns="http://www.w3.org/2000/svg">
<g id="logo / payment method / paysafecard / black">
<g id="logo">
<path d="M15.2504 38.4499C15.2504 36.6609 14.3814 35.761 12.736 35.741L6.35279 35.7428C6.02372 35.7464 5.69828 35.8228 5.40194 35.9682C5.11287 36.0882 4.84743 36.2573 4.61472 36.4682C4.19474 37.0663 3.97839 37.7845 4.00203 38.5135V43.5022C3.97658 44.2331 4.19111 44.953 4.61653 45.5475C4.84743 45.7621 5.11287 45.9348 5.40376 46.0602C5.70374 46.1966 6.02735 46.2693 6.3546 46.2729H12.7342C14.3814 46.2729 15.2195 45.353 15.2504 43.564V38.4499Z" fill="black"/>
<path d="M14.9668 34.8192C14.6995 32.0413 12.3324 29.9378 9.53622 30.0014C6.74367 30.0669 4.47473 32.2758 4.34201 35.0665V35.8337C4.5929 35.621 4.87652 35.4446 5.17832 35.3119L5.12741 35.3428C5.32376 35.2519 5.53102 35.1828 5.74192 35.1374C6.12189 33.2939 7.74542 31.9722 9.62712 31.9722C11.5106 31.9722 13.1342 33.2957 13.5123 35.1374C14.0559 35.2283 14.5595 35.4737 14.9668 35.8428C14.994 35.5028 14.994 35.161 14.9668 34.8192Z" fill="black"/>
<path fill-rule="evenodd" clip-rule="evenodd" d="M28.2498 38.4516C28.2189 36.6626 27.379 35.7427 25.7336 35.7427H22.0012C21.6703 35.7463 21.3467 35.8227 21.0485 35.9681C20.7521 36.0972 20.4813 36.2808 20.2522 36.5099C19.8231 37.1026 19.6068 37.8243 19.6377 38.5552V50.3251H22.2557V46.3563H25.7936C26.4409 46.3454 27.0554 46.0764 27.5026 45.6109C27.9644 45.1873 28.2335 44.5928 28.2498 43.9656V38.4516ZM22.9829 38.4316H25.0282C25.4064 38.4425 25.6209 38.6588 25.6209 39.077V43.0239C25.6264 43.1893 25.5537 43.3475 25.4264 43.4529C25.3009 43.5929 25.1228 43.6711 24.9355 43.6675H23.0647C22.8466 43.6966 22.6248 43.6238 22.4648 43.4711C22.3066 43.3166 22.2248 43.1002 22.2466 42.8803V39.066C22.2648 38.9152 22.3302 38.7715 22.4357 38.6588C22.5757 38.5079 22.7757 38.4261 22.9829 38.4316Z" fill="black"/>
<path d="M43.6907 35.7445V35.7427L43.6943 35.7445H43.6907Z" fill="black"/>
<path d="M43.6907 35.7445H41.0763V43.7184C41.069 44.0693 41.1308 44.4147 41.2581 44.7419C41.3835 45.0746 41.5744 45.3764 41.8217 45.6309C42.0544 45.8745 42.3362 46.0618 42.6489 46.1836C42.9762 46.3091 43.3234 46.3691 43.6725 46.3563H47.0159V46.9926C47.0141 47.1599 46.9359 47.3181 46.8014 47.4217C46.6559 47.5544 46.4687 47.6344 46.2705 47.6453H41.0436V50.2851H47.1777C47.8668 50.3087 48.5231 50.0087 48.9576 49.4761C49.4048 48.8907 49.6412 48.1689 49.623 47.4326V35.7427H47.0359V43.0039C47.0323 43.1821 46.9468 43.3493 46.8014 43.4529C46.6468 43.5947 46.445 43.6711 46.2378 43.6675H44.387C43.9161 43.6675 43.6907 43.3911 43.6907 42.8203V35.7445Z" fill="black"/>
<path d="M96.0418 36.3772V35.7536H92.0421C91.6676 35.7482 91.2931 35.79 90.9276 35.8754C90.5386 35.9918 90.1859 36.2063 89.9059 36.5008C89.6513 36.7553 89.4623 37.0662 89.3532 37.4098C89.2605 37.7407 89.2205 38.0861 89.2296 38.4316V43.4439C89.2241 43.8856 89.2968 44.3238 89.4459 44.7419C89.6023 45.1419 89.8586 45.4928 90.1913 45.7637C90.4858 46.0109 90.8367 46.1818 91.2149 46.2545C91.5712 46.3218 91.9348 46.3581 92.2984 46.3581V46.409H96.0928V45.7746H92.3603C92.0476 45.7764 91.7348 45.7455 91.4294 45.6818C91.1203 45.62 90.8313 45.4782 90.5895 45.2746C90.3277 45.0473 90.1277 44.7601 90.0077 44.4347C89.9059 44.1038 89.855 43.7584 89.855 43.4129V38.4007C89.7913 37.8043 90.015 37.2135 90.4567 36.8062C90.944 36.4954 91.5167 36.3445 92.093 36.3772H96.0418Z" fill="black"/>
<path fill-rule="evenodd" clip-rule="evenodd" d="M38.9364 38.2588C38.9092 36.5808 38.0292 35.7427 36.2966 35.7427V35.7409H30.377V38.4661H35.6421C36.1239 38.4552 36.3384 38.6388 36.3384 39.0479L36.3893 39.017V39.2733H32.8714C32.1769 39.186 31.4824 39.4224 30.986 39.9169C30.4915 40.4096 30.2515 41.1041 30.3352 41.7985V43.9638C30.3661 45.54 31.246 46.3581 32.995 46.3581H36.5729C37.222 46.3763 37.8456 46.1109 38.2819 45.6309C38.7055 45.1455 38.9382 44.5183 38.9364 43.8729V38.2588ZM32.9332 42.4712C32.9095 42.2712 32.955 42.0694 33.0641 41.8985H33.0659C33.2295 41.8022 33.4186 41.7585 33.6077 41.7767H35.653C36.133 41.7767 36.3693 41.9803 36.3693 42.3912V43.1366C36.3584 43.4948 36.1239 43.6675 35.673 43.6675H33.6277C33.4568 43.6766 33.2859 43.6184 33.1586 43.5038C33.0295 43.4275 32.9532 43.2857 32.9532 43.1366L32.9332 42.4712Z" fill="black"/>
<path d="M59.6769 38.4134V35.7227H54.2736C52.5756 35.75 51.7265 36.5481 51.7265 38.1152V40.1605C51.7411 40.7459 52.0065 41.2968 52.4537 41.6731C52.9264 42.1276 53.5573 42.3803 54.2118 42.3803H56.5244C56.6771 42.3803 56.7989 42.4821 56.9116 42.6857C56.9498 42.7585 56.9716 42.8403 56.9734 42.9221V43.1584C56.9535 43.4857 56.7389 43.6675 56.3099 43.6675H51.6556V46.3581H57.1371C57.4843 46.3672 57.8298 46.32 58.1588 46.2145C58.4388 46.08 58.6861 45.8891 58.8861 45.6528C59.3351 45.2019 59.6024 44.6019 59.6333 43.9656V42.0112C59.6333 41.3949 59.3897 40.8041 58.957 40.3641C58.5533 39.9223 57.9825 39.6624 57.3825 39.6496H55.0808C54.53 39.6496 54.2536 39.486 54.2536 39.137V38.9042C54.2536 38.577 54.5191 38.4134 55.0608 38.4134H59.6769Z" fill="black"/>
<path fill-rule="evenodd" clip-rule="evenodd" d="M70.0853 38.2588C70.0653 36.6117 69.1854 35.7427 67.4582 35.7427V35.7409H61.5368V38.4661H66.7928C67.2837 38.4552 67.4982 38.6388 67.4982 39.0479L67.4782 39.017V39.2733H64.0021C63.313 39.1951 62.6258 39.4387 62.1386 39.9296C61.6495 40.4223 61.4132 41.1095 61.495 41.7985V43.9638C61.5168 45.54 62.4058 46.3581 64.1439 46.3581H67.7328C68.3818 46.3763 69.0054 46.1109 69.4417 45.6309C69.8672 45.1455 70.0981 44.5183 70.0853 43.8729V38.2588ZM64.0839 42.4712C64.0621 42.2694 64.113 42.0676 64.2257 41.8985H64.2275C64.3912 41.8022 64.5802 41.7585 64.7693 41.7767H66.8128C67.2928 41.7767 67.5291 41.9803 67.5291 42.3912V43.1366C67.52 43.4948 67.2837 43.6675 66.8346 43.6675H64.7893C64.6166 43.6766 64.4475 43.6184 64.3184 43.5038C64.1857 43.4293 64.1021 43.2893 64.1021 43.1366L64.0839 42.4712Z" fill="black"/>
<path d="M76.6831 34.3937V31.7958H75.0359C74.2942 31.7685 73.5669 32.0121 72.9906 32.4812C72.4743 32.9139 72.1779 33.5556 72.1834 34.2283V46.3581H74.8305V38.4334H76.6813V35.7427H74.8214V35.1809C74.8305 34.6682 75.1068 34.3937 75.6595 34.3937H76.6831Z" fill="black"/>
<path fill-rule="evenodd" clip-rule="evenodd" d="M84.3117 35.7427H80.7937C80.1065 35.6554 79.4156 35.8863 78.9211 36.3699C78.423 36.8535 78.1757 37.5371 78.2484 38.2279V43.5966C78.2321 44.0165 78.2884 44.4347 78.4121 44.8346C78.5321 45.1655 78.732 45.4637 78.9939 45.7037C79.232 45.9327 79.5175 46.1036 79.832 46.2036C80.2265 46.3218 80.6374 46.3727 81.0483 46.3581H86.7552V43.6693H81.3864C81.2373 43.6656 81.1028 43.5729 81.0483 43.4329C80.9246 43.293 80.861 43.1093 80.8755 42.9221V42.7585L86.7861 40.4368V38.3188C86.8806 37.6298 86.6534 36.9353 86.1716 36.4335C85.6898 35.9318 85.0026 35.6773 84.3117 35.7427ZM81.6737 38.4316H83.4954C83.6535 38.4279 83.8099 38.4697 83.9444 38.5552C84.0535 38.637 84.1135 38.7679 84.1081 38.9024V38.9642L80.8355 40.1605V39.117C80.8337 38.917 80.9392 38.7297 81.1119 38.6261C81.2664 38.4916 81.4682 38.4207 81.6737 38.4316Z" fill="black"/>
<path fill-rule="evenodd" clip-rule="evenodd" d="M105.132 35.7827C104.69 35.71 104.241 35.6754 103.792 35.6809H98.4126V36.3045H104.087C104.432 36.299 104.776 36.3372 105.11 36.4172C105.412 36.5281 105.672 36.7281 105.858 36.9899C106.194 37.4298 106.37 37.9716 106.358 38.5243V39.2297H101.163C100.407 39.1551 99.6562 39.4297 99.1271 39.9751C98.598 40.5205 98.3453 41.2786 98.4417 42.0312V43.9165C98.4726 44.5619 98.7489 45.1764 99.2198 45.6309C99.7598 46.1254 100.472 46.3872 101.203 46.3581H104.274C105.047 46.3909 105.796 46.08 106.319 45.5091C106.576 45.2164 106.756 44.8655 106.841 44.4856C106.894 44.1474 106.923 43.8056 106.923 43.4639V38.657C106.945 37.8807 106.694 37.1208 106.218 36.5099C106.081 36.3136 105.907 36.1463 105.705 36.019C105.532 35.9027 105.338 35.8227 105.132 35.7827ZM101.052 39.8533H106.298L106.35 43.6147C106.35 45.0055 105.632 45.7218 104.305 45.7218H101.123C100.571 45.7237 100.038 45.5237 99.6198 45.1601C99.378 44.9892 99.2053 44.7401 99.1289 44.4529C99.058 44.1765 99.0235 43.8911 99.0271 43.6057V41.7567C99.0544 41.2677 99.2489 40.8023 99.5798 40.435C99.9725 40.0532 100.503 39.8423 101.052 39.8533Z" fill="black"/>
<path d="M113.592 36.3045V35.6809H112.893C110.952 35.6809 110.021 36.6426 110.021 38.6879V46.3581H110.655V38.6879C110.625 37.1226 111.341 36.3045 112.792 36.3045H113.592Z" fill="black"/>
<path fill-rule="evenodd" clip-rule="evenodd" d="M123.971 43.3929V32.2139H123.346V35.67H118.428C116.382 35.67 115.359 36.6917 115.359 38.737V43.3111C115.337 43.7057 115.377 44.1038 115.482 44.4856C115.571 44.8637 115.75 45.2164 116.004 45.5073C116.311 45.8527 116.708 46.1036 117.15 46.2345C117.584 46.32 118.026 46.3618 118.468 46.3563H120.789C122.876 46.3981 123.94 45.4382 124 43.3929H123.971ZM118.428 36.3045H123.376L123.326 43.382C123.378 44.0838 123.084 44.7674 122.538 45.211C121.955 45.6055 121.258 45.8018 120.555 45.7746H118.397C118.068 45.78 117.742 45.7382 117.424 45.6528C117.15 45.5946 116.888 45.4891 116.648 45.3437C116.128 44.9619 115.855 44.3292 115.931 43.6893V38.8006C115.91 38.4552 115.951 38.1079 116.055 37.7771C116.142 37.4698 116.311 37.1898 116.546 36.9699C116.768 36.7044 117.07 36.5154 117.404 36.4281C117.737 36.339 118.082 36.2972 118.428 36.3045Z" fill="black"/>
</g>
</g>
</svg>
