<svg width="72" height="72" viewBox="0 0 72 72" fill="none" xmlns="http://www.w3.org/2000/svg">
<g id="logo / deriv product / deriv p2p / white / logo horizontal">
<g id="logo">
<path d="M0 13.5C0 6.04416 6.04416 0 13.5 0H58.5C65.9558 0 72 6.04416 72 13.5V58.5C72 65.9558 65.9558 72 58.5 72H13.5C6.04416 72 0 65.9558 0 58.5V13.5Z" fill="white"/>
<path d="M13.5 0C6.04416 0 0 6.04416 0 13.5V13.8921L67.3075 3.26845C64.9433 1.2315 61.8655 0 58.5 0H13.5Z" fill="#EBECEF"/>
<path d="M68.6969 4.65243L56.3498 71.9999L58.5 72C65.9558 72 72 65.9558 72 58.5V13.5C72 10.1155 70.7545 7.02183 68.6969 4.65243Z" fill="#EBECEF"/>
<path d="M18.0864 25.8649C21.1089 25.8649 23.4294 26.4011 25.0479 27.4736C26.6664 28.5266 27.4757 30.2621 27.4757 32.6801C27.4757 35.1176 26.6567 36.8824 25.0187 37.9744C23.3807 39.0469 21.0407 39.5831 17.9987 39.5831H16.5654V46.3691H12.0024V26.3914C12.9969 26.1964 14.0499 26.0599 15.1614 25.9819C16.2729 25.9039 17.2479 25.8649 18.0864 25.8649ZM18.3789 29.7551C18.0474 29.7551 17.7159 29.7649 17.3844 29.7844C17.0724 29.8039 16.7994 29.8234 16.5654 29.8429V35.6929H17.9987C19.5782 35.6929 20.7677 35.4784 21.5672 35.0494C22.3667 34.6204 22.7664 33.8209 22.7664 32.6509C22.7664 32.0854 22.6592 31.6174 22.4447 31.2469C22.2497 30.8764 21.9572 30.5839 21.5672 30.3694C21.1967 30.1354 20.7384 29.9794 20.1924 29.9014C19.6464 29.8039 19.0419 29.7551 18.3789 29.7551Z" fill="#FF444F"/>
<path d="M41.5319 31.4224C41.5319 32.1634 41.3857 32.8751 41.0932 33.5576C40.8007 34.2401 40.4204 34.9031 39.9524 35.5466C39.4844 36.1706 38.9579 36.7751 38.3729 37.3601C37.7879 37.9451 37.2127 38.5009 36.6472 39.0274C36.3547 39.3004 36.0329 39.6124 35.6819 39.9634C35.3504 40.2949 35.0287 40.6361 34.7167 40.9871C34.4047 41.3381 34.1219 41.6696 33.8684 41.9816C33.6344 42.2741 33.4882 42.5179 33.4297 42.7129H42.1462V46.3691H28.6327C28.5937 46.1546 28.5742 45.8816 28.5742 45.5501C28.5742 45.2186 28.5742 44.9846 28.5742 44.8481C28.5742 43.9121 28.7204 43.0541 29.0129 42.2741C29.3249 41.4941 29.7247 40.7726 30.2122 40.1096C30.6997 39.4271 31.2457 38.7934 31.8502 38.2084C32.4742 37.6234 33.0884 37.0384 33.6929 36.4534C34.1609 36.0049 34.5997 35.5856 35.0092 35.1956C35.4187 34.7861 35.7794 34.3961 36.0914 34.0256C36.4034 33.6356 36.6472 33.2554 36.8227 32.8849C36.9982 32.4949 37.0859 32.1049 37.0859 31.7149C37.0859 30.8569 36.8422 30.2524 36.3547 29.9014C35.8672 29.5504 35.2627 29.3749 34.5412 29.3749C34.0147 29.3749 33.5174 29.4626 33.0494 29.6381C32.6009 29.7941 32.1817 29.9891 31.7917 30.2231C31.4212 30.4376 31.0994 30.6619 30.8264 30.8959C30.5534 31.1104 30.3487 31.2859 30.2122 31.4224L28.0477 28.3804C28.9057 27.5809 29.9002 26.9276 31.0312 26.4206C32.1817 25.8941 33.4102 25.6309 34.7167 25.6309C35.9062 25.6309 36.9299 25.7674 37.7879 26.0404C38.6459 26.3134 39.3479 26.7034 39.8939 27.2104C40.4594 27.6979 40.8689 28.3024 41.1224 29.0239C41.3954 29.7259 41.5319 30.5254 41.5319 31.4224Z" fill="#FF444F"/>
<path d="M50.6099 25.8649C53.6324 25.8649 55.9529 26.4011 57.5714 27.4736C59.1899 28.5266 59.9992 30.2621 59.9992 32.6801C59.9992 35.1176 59.1802 36.8824 57.5422 37.9744C55.9042 39.0469 53.5642 39.5831 50.5222 39.5831H49.0889V46.3691H44.5259V26.3914C45.5204 26.1964 46.5734 26.0599 47.6849 25.9819C48.7964 25.9039 49.7714 25.8649 50.6099 25.8649ZM50.9024 29.7551C50.5709 29.7551 50.2394 29.7649 49.9079 29.7844C49.5959 29.8039 49.3229 29.8234 49.0889 29.8429V35.6929H50.5222C52.1017 35.6929 53.2912 35.4784 54.0907 35.0494C54.8902 34.6204 55.2899 33.8209 55.2899 32.6509C55.2899 32.0854 55.1827 31.6174 54.9682 31.2469C54.7732 30.8764 54.4807 30.5839 54.0907 30.3694C53.7202 30.1354 53.2619 29.9794 52.7159 29.9014C52.1699 29.8039 51.5654 29.7551 50.9024 29.7551Z" fill="#FF444F"/>
</g>
</g>
</svg>
