<svg width="373" height="72" viewBox="0 0 373 72" fill="none" xmlns="http://www.w3.org/2000/svg">
<g id="logo / deriv product / deriv go ultimate / brand-light / logo wordmark vertical" clip-path="url(#clip0_203_219)">
<g id="logo">
<path d="M0 13.5C0 6.04416 6.04416 0 13.5 0H58.5C65.9558 0 72 6.04416 72 13.5V58.5C72 65.9558 65.9558 72 58.5 72H13.5C6.04416 72 0 65.9558 0 58.5V13.5Z" fill="#FF444F"/>
<path d="M13.5 0C6.04416 0 0 6.04416 0 13.5V13.8921L67.3075 3.26845C64.9433 1.2315 61.8655 0 58.5 0H13.5Z" fill="#E12E3A"/>
<path d="M68.6969 4.65243L56.3498 71.9999L58.5 72C65.9558 72 72 65.9558 72 58.5V13.5C72 10.1155 70.7545 7.02183 68.6969 4.65243Z" fill="#E12E3A"/>
<path d="M0 51.75H72V58.5C72 65.9558 65.9558 72 58.5 72H13.5C6.04416 72 0 65.9558 0 58.5V51.75Z" fill="#414652"/>
<path d="M26.4531 25.4493C24.1641 25.4493 22.5051 26.0898 21.4761 27.3708C20.4681 28.6308 19.9641 30.3633 19.9641 32.5683C19.9641 33.6393 20.0901 34.6158 20.3421 35.4978C20.5941 36.3588 20.9721 37.1043 21.4761 37.7343C21.9801 38.3643 22.6101 38.8578 23.3661 39.2148C24.1221 39.5508 25.0041 39.7188 26.0121 39.7188C26.5581 39.7188 27.0201 39.7083 27.3981 39.6873C27.7971 39.6663 28.1436 39.6243 28.4376 39.5613V31.9698H33.3516V42.7743C32.7636 43.0053 31.8186 43.2468 30.5166 43.4988C29.2146 43.7718 27.6081 43.9083 25.6971 43.9083C24.0591 43.9083 22.5681 43.6563 21.2241 43.1523C19.9011 42.6483 18.7671 41.9133 17.8221 40.9473C16.8771 39.9813 16.1421 38.7948 15.6171 37.3878C15.1131 35.9808 14.8611 34.3743 14.8611 32.5683C14.8611 30.7413 15.1446 29.1243 15.7116 27.7173C16.2786 26.3103 17.0556 25.1238 18.0426 24.1578C19.0296 23.1708 20.1846 22.4253 21.5076 21.9213C22.8516 21.4173 24.2796 21.1653 25.7916 21.1653C26.8206 21.1653 27.7446 21.2388 28.5636 21.3858C29.4036 21.5118 30.1176 21.6693 30.7056 21.8583C31.3146 22.0263 31.8081 22.2048 32.1861 22.3938C32.5851 22.5828 32.8686 22.7298 33.0366 22.8348L31.6191 26.7723C30.9471 26.4153 30.1701 26.1108 29.2881 25.8588C28.4271 25.5858 27.4821 25.4493 26.4531 25.4493Z" fill="white"/>
<path d="M40.4753 32.5683C40.4753 33.6393 40.6013 34.6053 40.8533 35.4663C41.1263 36.3273 41.5043 37.0728 41.9873 37.7028C42.4913 38.3118 43.1003 38.7843 43.8143 39.1203C44.5283 39.4563 45.3473 39.6243 46.2713 39.6243C47.1743 39.6243 47.9828 39.4563 48.6968 39.1203C49.4318 38.7843 50.0408 38.3118 50.5238 37.7028C51.0278 37.0728 51.4058 36.3273 51.6578 35.4663C51.9308 34.6053 52.0673 33.6393 52.0673 32.5683C52.0673 31.4973 51.9308 30.5313 51.6578 29.6703C51.4058 28.7883 51.0278 28.0428 50.5238 27.4338C50.0408 26.8038 49.4318 26.3208 48.6968 25.9848C47.9828 25.6488 47.1743 25.4808 46.2713 25.4808C45.3473 25.4808 44.5283 25.6593 43.8143 26.0163C43.1003 26.3523 42.4913 26.8353 41.9873 27.4653C41.5043 28.0743 41.1263 28.8198 40.8533 29.7018C40.6013 30.5628 40.4753 31.5183 40.4753 32.5683ZM57.1388 32.5683C57.1388 34.4373 56.8553 36.0858 56.2883 37.5138C55.7423 38.9208 54.9863 40.1073 54.0203 41.0733C53.0543 42.0183 51.8993 42.7323 50.5553 43.2153C49.2323 43.6983 47.8043 43.9398 46.2713 43.9398C44.7803 43.9398 43.3733 43.6983 42.0503 43.2153C40.7273 42.7323 39.5723 42.0183 38.5853 41.0733C37.5983 40.1073 36.8213 38.9208 36.2543 37.5138C35.6873 36.0858 35.4038 34.4373 35.4038 32.5683C35.4038 30.6993 35.6978 29.0613 36.2858 27.6543C36.8738 26.2263 37.6613 25.0293 38.6483 24.0633C39.6563 23.0973 40.8113 22.3728 42.1133 21.8898C43.4363 21.4068 44.8223 21.1653 46.2713 21.1653C47.7623 21.1653 49.1693 21.4068 50.4923 21.8898C51.8153 22.3728 52.9703 23.0973 53.9573 24.0633C54.9443 25.0293 55.7213 26.2263 56.2883 27.6543C56.8553 29.0613 57.1388 30.6993 57.1388 32.5683Z" fill="white"/>
<path d="M12.2496 66.1576C11.7021 66.1576 11.2296 66.0826 10.8321 65.9326C10.4346 65.7751 10.1046 65.5613 9.84213 65.2913C9.58713 65.0138 9.39588 64.6876 9.26838 64.3126C9.14838 63.9301 9.08838 63.5101 9.08838 63.0526V58.2038H10.8434V62.9063C10.8434 63.2213 10.8771 63.4913 10.9446 63.7163C11.0196 63.9338 11.1171 64.1138 11.2371 64.2563C11.3646 64.3913 11.5146 64.4888 11.6871 64.5488C11.8671 64.6088 12.0621 64.6388 12.2721 64.6388C12.6996 64.6388 13.0446 64.5076 13.3071 64.2451C13.5771 63.9826 13.7121 63.5363 13.7121 62.9063V58.2038H15.4671V63.0526C15.4671 63.5101 15.4034 63.9301 15.2759 64.3126C15.1484 64.6951 14.9534 65.0251 14.6909 65.3026C14.4284 65.5726 14.0946 65.7826 13.6896 65.9326C13.2846 66.0826 12.8046 66.1576 12.2496 66.1576Z" fill="white"/>
<path d="M22.3637 64.4926V66.0001H17.155V58.2038H18.91V64.4926H22.3637Z" fill="white"/>
<path d="M28.3977 58.2038V59.7001H26.0464V66.0001H24.2914V59.7001H21.9402V58.2038H28.3977Z" fill="white"/>
<path d="M29.5256 58.2038H31.2806V66.0001H29.5256V58.2038Z" fill="white"/>
<path d="M35.1552 58.2038C35.2902 58.4513 35.4439 58.7588 35.6164 59.1263C35.7964 59.4863 35.9802 59.8801 36.1677 60.3076C36.3627 60.7276 36.5539 61.1588 36.7414 61.6013C36.9289 62.0438 37.1052 62.4601 37.2702 62.8501C37.4352 62.4601 37.6114 62.0438 37.7989 61.6013C37.9864 61.1588 38.1739 60.7276 38.3614 60.3076C38.5564 59.8801 38.7402 59.4863 38.9127 59.1263C39.0927 58.7588 39.2502 58.4513 39.3852 58.2038H40.9827C41.0577 58.7213 41.1252 59.3026 41.1852 59.9476C41.2527 60.5851 41.3089 61.2526 41.3539 61.9501C41.4064 62.6401 41.4514 63.3338 41.4889 64.0313C41.5339 64.7288 41.5714 65.3851 41.6014 66.0001H39.8914C39.8689 65.2426 39.8389 64.4176 39.8014 63.5251C39.7639 62.6326 39.7077 61.7326 39.6327 60.8251C39.4977 61.1401 39.3477 61.4888 39.1827 61.8713C39.0177 62.2538 38.8527 62.6363 38.6877 63.0188C38.5302 63.4013 38.3764 63.7688 38.2264 64.1213C38.0764 64.4663 37.9489 64.7626 37.8439 65.0101H36.6177C36.5127 64.7626 36.3852 64.4663 36.2352 64.1213C36.0852 63.7688 35.9277 63.4013 35.7627 63.0188C35.6052 62.6363 35.4439 62.2538 35.2789 61.8713C35.1139 61.4888 34.9639 61.1401 34.8289 60.8251C34.7539 61.7326 34.6977 62.6326 34.6602 63.5251C34.6227 64.4176 34.5927 65.2426 34.5702 66.0001H32.8602C32.8902 65.3851 32.9239 64.7288 32.9614 64.0313C33.0064 63.3338 33.0514 62.6401 33.0964 61.9501C33.1489 61.2526 33.2052 60.5851 33.2652 59.9476C33.3327 59.3026 33.4039 58.7213 33.4789 58.2038H35.1552Z" fill="white"/>
<path d="M48.4016 66.0001C48.3191 65.7301 48.2253 65.4526 48.1203 65.1676C48.0228 64.8826 47.9253 64.5976 47.8278 64.3126H44.7903C44.6928 64.5976 44.5916 64.8826 44.4866 65.1676C44.3891 65.4526 44.2991 65.7301 44.2166 66.0001H42.3941C42.6866 65.1601 42.9641 64.3838 43.2266 63.6713C43.4891 62.9588 43.7441 62.2876 43.9916 61.6576C44.2466 61.0276 44.4941 60.4313 44.7341 59.8688C44.9816 59.2988 45.2366 58.7438 45.4991 58.2038H47.1753C47.4303 58.7438 47.6816 59.2988 47.9291 59.8688C48.1766 60.4313 48.4241 61.0276 48.6716 61.6576C48.9266 62.2876 49.1853 62.9588 49.4478 63.6713C49.7103 64.3838 49.9878 65.1601 50.2803 66.0001H48.4016ZM46.2978 59.9701C46.2603 60.0826 46.2041 60.2363 46.1291 60.4313C46.0541 60.6263 45.9678 60.8513 45.8703 61.1063C45.7728 61.3613 45.6641 61.6426 45.5441 61.9501C45.4316 62.2576 45.3153 62.5801 45.1953 62.9176H47.4116C47.2916 62.5801 47.1753 62.2576 47.0628 61.9501C46.9503 61.6426 46.8416 61.3613 46.7366 61.1063C46.6391 60.8513 46.5528 60.6263 46.4778 60.4313C46.4028 60.2363 46.3428 60.0826 46.2978 59.9701Z" fill="white"/>
<path d="M56.1491 58.2038V59.7001H53.7979V66.0001H52.0429V59.7001H49.6917V58.2038H56.1491Z" fill="white"/>
<path d="M57.2771 66.0001V58.2038H62.5421V59.6776H59.0321V61.2076H62.1483V62.6476H59.0321V64.5263H62.8008V66.0001H57.2771Z" fill="white"/>
</g>
<g id="wordmark">
<path fill-rule="evenodd" clip-rule="evenodd" d="M100.916 7.16574L100.03 12.1912H96.9538C94.0841 12.1912 91.3488 14.5163 90.8418 17.386L90.6272 18.6075C90.1226 21.4773 92.0373 23.8024 94.907 23.8024H97.4725C99.5641 23.8024 101.557 22.1092 101.924 20.0177L104.287 6.62378L100.916 7.16574ZM98.7333 19.5437C98.6201 20.1898 98.0385 20.7157 97.3924 20.7157H95.8337C94.5439 20.7157 93.6809 19.6686 93.9072 18.3764L94.0416 17.6148C94.2704 16.3249 95.5012 15.2755 96.7911 15.2755H99.4859L98.7333 19.5437Z" fill="#414652"/>
<path d="M124.606 23.8034H127.799L129.817 12.3526H126.625L124.606 23.8034Z" fill="#414652"/>
<path d="M124.711 13.8448L124.712 13.8423C124.792 13.3895 124.872 12.9367 124.951 12.484C121.675 11.6398 119.124 12.5131 118.085 12.9434C118.085 12.9434 116.602 21.3454 116.169 23.8056H119.363C119.882 20.8653 120.4 17.9243 120.918 14.984C121.398 14.8884 122.958 14.7387 124.471 15.2088C124.551 14.7541 124.631 14.2995 124.711 13.8448Z" fill="#414652"/>
<path fill-rule="evenodd" clip-rule="evenodd" d="M112.002 12.19H109.519C107.097 12.19 104.789 14.1519 104.362 16.5736L103.86 19.4198C103.433 21.8416 105.048 23.8035 107.47 23.8035H112.757L113.299 20.7262H108.331C107.524 20.7262 106.984 20.073 107.128 19.2642L107.145 19.1675H115.155L115.612 16.5736C116.039 14.1519 114.424 12.19 112.002 12.19ZM112.408 16.3284L112.389 16.4935H107.626L107.652 16.3473C107.795 15.5408 108.531 14.831 109.34 14.831H111.2C112 14.831 112.54 15.529 112.408 16.3284Z" fill="#414652"/>
<path d="M135.365 19.9054C136.815 17.2974 138.413 13.8756 139.079 12.3526H142.276C141.188 15.2463 138.694 20.1688 136.278 23.8034H133.083C131.974 20.3442 131.257 15.5242 131.121 12.3526H134.316C134.374 13.3872 134.837 17.2246 135.365 19.9054Z" fill="#414652"/>
<path d="M105.388 37.6404C101.955 37.6404 99.466 38.6012 97.9225 40.5227C96.4105 42.4127 95.6545 45.0115 95.6545 48.319C95.6545 49.9255 95.8435 51.3902 96.2215 52.7132C96.5995 54.0047 97.1665 55.123 97.9225 56.068C98.6785 57.013 99.6235 57.7532 100.758 58.2887C101.892 58.7927 103.215 59.0447 104.727 59.0447C105.546 59.0447 106.239 59.029 106.806 58.9975C107.404 58.966 107.924 58.903 108.365 58.8085V47.4212H115.736V63.628C114.854 63.9745 113.436 64.3367 111.483 64.7147C109.53 65.1242 107.121 65.329 104.254 65.329C101.797 65.329 99.5605 64.951 97.5445 64.195C95.56 63.439 93.859 62.3365 92.4415 60.8875C91.024 59.4385 89.9215 57.6587 89.134 55.5482C88.378 53.4377 88 51.028 88 48.319C88 45.5785 88.4253 43.153 89.2758 41.0424C90.1263 38.9319 91.2918 37.1522 92.7723 35.7032C94.2528 34.2227 95.9853 33.1044 97.9698 32.3484C99.9858 31.5924 102.128 31.2144 104.396 31.2144C105.939 31.2144 107.325 31.3247 108.554 31.5452C109.814 31.7342 110.885 31.9704 111.767 32.2539C112.68 32.5059 113.421 32.7737 113.988 33.0572C114.586 33.3407 115.011 33.5612 115.263 33.7187L113.137 39.625C112.129 39.0895 110.964 38.6327 109.641 38.2547C108.349 37.8452 106.932 37.6404 105.388 37.6404Z" fill="#414652"/>
<path d="M126.421 48.319C126.421 49.9255 126.61 51.3745 126.988 52.666C127.398 53.9575 127.965 55.0757 128.689 56.0207C129.445 56.9342 130.359 57.643 131.43 58.147C132.501 58.651 133.729 58.903 135.115 58.903C136.47 58.903 137.683 58.651 138.754 58.147C139.856 57.643 140.77 56.9342 141.494 56.0207C142.25 55.0757 142.817 53.9575 143.195 52.666C143.605 51.3745 143.809 49.9255 143.809 48.319C143.809 46.7125 143.605 45.2635 143.195 43.972C142.817 42.649 142.25 41.5307 141.494 40.6172C140.77 39.6722 139.856 38.9477 138.754 38.4437C137.683 37.9397 136.47 37.6877 135.115 37.6877C133.729 37.6877 132.501 37.9554 131.43 38.4909C130.359 38.9949 129.445 39.7194 128.689 40.6645C127.965 41.578 127.398 42.6962 126.988 44.0192C126.61 45.3107 126.421 46.744 126.421 48.319ZM151.417 48.319C151.417 51.1225 150.991 53.5952 150.141 55.7372C149.322 57.8477 148.188 59.6275 146.739 61.0765C145.29 62.494 143.557 63.565 141.541 64.2895C139.557 65.014 137.415 65.3762 135.115 65.3762C132.879 65.3762 130.768 65.014 128.784 64.2895C126.799 63.565 125.067 62.494 123.586 61.0765C122.106 59.6275 120.94 57.8477 120.09 55.7372C119.239 53.5952 118.814 51.1225 118.814 48.319C118.814 45.5155 119.255 43.0584 120.137 40.9479C121.019 38.8059 122.2 37.0104 123.681 35.5614C125.193 34.1124 126.925 33.0257 128.878 32.3012C130.863 31.5767 132.942 31.2144 135.115 31.2144C137.352 31.2144 139.462 31.5767 141.447 32.3012C143.431 33.0257 145.164 34.1124 146.644 35.5614C148.125 37.0104 149.29 38.8059 150.141 40.9479C150.991 43.0584 151.417 45.5155 151.417 48.319Z" fill="#414652"/>
<path d="M176.992 65.3762C174.692 65.3762 172.708 65.0612 171.038 64.4312C169.369 63.7697 167.983 62.872 166.88 61.738C165.809 60.5725 165.006 59.2022 164.471 57.6272C163.967 56.0207 163.715 54.2567 163.715 52.3352V31.9704H171.086V51.721C171.086 53.044 171.227 54.178 171.511 55.123C171.826 56.0365 172.235 56.7925 172.739 57.391C173.275 57.958 173.905 58.3675 174.629 58.6195C175.385 58.8715 176.204 58.9975 177.086 58.9975C178.882 58.9975 180.331 58.4462 181.433 57.3437C182.567 56.2412 183.134 54.367 183.134 51.721V31.9704H190.505V52.3352C190.505 54.2567 190.238 56.0207 189.702 57.6272C189.167 59.2337 188.348 60.6197 187.245 61.7852C186.143 62.9192 184.741 63.8012 183.04 64.4312C181.339 65.0612 179.323 65.3762 176.992 65.3762Z" fill="#414652"/>
<path d="M217.109 58.3832V64.7147H195.232V31.9704H202.603V58.3832H217.109Z" fill="#414652"/>
<path d="M240.089 31.9704V38.2547H230.213V64.7147H222.842V38.2547H212.967V31.9704H240.089Z" fill="#414652"/>
<path d="M242.463 31.9704H249.834V64.7147H242.463V31.9704Z" fill="#414652"/>
<path d="M263.745 31.9704C264.312 33.0099 264.958 34.3014 265.682 35.8449C266.438 37.3569 267.21 39.0107 267.998 40.8062C268.817 42.5702 269.62 44.3815 270.407 46.24C271.195 48.0985 271.935 49.8467 272.628 51.4847C273.321 49.8467 274.061 48.0985 274.849 46.24C275.636 44.3815 276.424 42.5702 277.211 40.8062C278.03 39.0107 278.802 37.3569 279.527 35.8449C280.283 34.3014 280.944 33.0099 281.511 31.9704H288.221C288.536 34.1439 288.819 36.5852 289.071 39.2942C289.355 41.9717 289.591 44.7752 289.78 47.7047C290 50.6027 290.189 53.5165 290.347 56.446C290.536 59.3755 290.693 62.1317 290.819 64.7147H283.637C283.543 61.5332 283.417 58.0682 283.259 54.3197C283.102 50.5712 282.866 46.7912 282.551 42.9797C281.984 44.3027 281.354 45.7675 280.661 47.374C279.968 48.9805 279.275 50.587 278.582 52.1935C277.92 53.8 277.274 55.3435 276.644 56.824C276.014 58.273 275.479 59.5172 275.038 60.5567H269.888C269.447 59.5172 268.911 58.273 268.281 56.824C267.651 55.3435 266.99 53.8 266.297 52.1935C265.635 50.587 264.958 48.9805 264.265 47.374C263.572 45.7675 262.942 44.3027 262.375 42.9797C262.06 46.7912 261.824 50.5712 261.666 54.3197C261.509 58.0682 261.383 61.5332 261.288 64.7147H254.106C254.232 62.1317 254.374 59.3755 254.531 56.446C254.72 53.5165 254.909 50.6027 255.098 47.7047C255.319 44.7752 255.555 41.9717 255.807 39.2942C256.091 36.5852 256.39 34.1439 256.705 31.9704H263.745Z" fill="#414652"/>
<path d="M317.018 64.7147C316.671 63.5807 316.277 62.4152 315.836 61.2182C315.427 60.0212 315.017 58.8242 314.608 57.6272H301.85C301.441 58.8242 301.016 60.0212 300.575 61.2182C300.165 62.4152 299.787 63.5807 299.441 64.7147H291.786C293.015 61.1867 294.18 57.9265 295.283 54.934C296.385 51.9415 297.456 49.1222 298.496 46.4762C299.567 43.8302 300.606 41.326 301.614 38.9634C302.654 36.5694 303.725 34.2384 304.827 31.9704H311.867C312.938 34.2384 313.994 36.5694 315.033 38.9634C316.073 41.326 317.112 43.8302 318.152 46.4762C319.223 49.1222 320.309 51.9415 321.412 54.934C322.514 57.9265 323.68 61.1867 324.908 64.7147H317.018ZM308.182 39.3887C308.024 39.8612 307.788 40.507 307.473 41.326C307.158 42.145 306.796 43.09 306.386 44.161C305.977 45.232 305.52 46.4132 305.016 47.7047C304.544 48.9962 304.055 50.3507 303.551 51.7682H312.86C312.356 50.3507 311.867 48.9962 311.395 47.7047C310.922 46.4132 310.466 45.232 310.025 44.161C309.615 43.09 309.253 42.145 308.938 41.326C308.623 40.507 308.371 39.8612 308.182 39.3887Z" fill="#414652"/>
<path d="M347.195 31.9704V38.2547H337.32V64.7147H329.949V38.2547H320.073V31.9704H347.195Z" fill="#414652"/>
<path d="M349.57 64.7147V31.9704H371.683V38.1602H356.941V44.5862H370.029V50.6342H356.941V58.525H372.769V64.7147H349.57Z" fill="#414652"/>
</g>
</g>
<defs>
<clipPath id="clip0_203_219">
<rect width="373" height="72" fill="white"/>
</clipPath>
</defs>
</svg>
