<svg width="128" height="80" viewBox="0 0 128 80" fill="none" xmlns="http://www.w3.org/2000/svg">
<g id="logo / payment method / tether usdt / brand">
<g id="logo">
<path fill-rule="evenodd" clip-rule="evenodd" d="M10.881 27.127H29.0795C29.5137 27.127 29.9149 27.3561 30.1314 27.7279L35.4334 36.831C35.7084 37.303 35.6266 37.8989 35.2345 38.2817L20.6407 52.5267C20.168 52.9882 19.4075 52.9882 18.9346 52.5267L4.36064 38.3009C3.95935 37.9092 3.8842 37.296 4.1793 36.821L9.84667 27.6987C10.0674 27.3435 10.4591 27.127 10.881 27.127ZM26.7297 31.1911V33.7453H21.5457V35.5162C25.1867 35.7054 27.9182 36.4826 27.9386 37.4143L27.9384 39.3564C27.9181 40.2881 25.1867 41.0653 21.5457 41.2546V45.6005H18.1034V41.2546C14.4626 41.0653 11.7309 40.2881 11.7107 39.3564L11.7108 37.4143C11.7311 36.4826 14.4626 35.7054 18.1034 35.5162V33.7453H12.9195V31.1911H26.7297ZM19.8246 39.9203C23.7101 39.9203 26.9578 39.263 27.7525 38.3854C27.0786 37.641 24.6407 37.0553 21.5457 36.8945V38.7486C20.991 38.7774 20.4152 38.7926 19.8246 38.7926C19.2341 38.7926 18.6582 38.7774 18.1034 38.7486V36.8945C15.0085 37.0553 12.5707 37.641 11.8967 38.3854C12.6915 39.263 15.9392 39.9203 19.8246 39.9203Z" fill="#009393"/>
<path d="M42.5376 32.0667L46.7444 31.5993V35.6308H50.3961V39.1365H46.7152V44.5702C46.7152 45.8557 47.2605 46.4984 48.3512 46.4984C49.0522 46.4984 49.6365 46.3815 50.104 46.1478L51.068 49.6534C50.1137 50.0235 49.1009 50.2378 48.0298 50.2961C46.3354 50.3741 44.9916 49.9748 43.9983 49.0984C43.0245 48.2025 42.5376 46.6931 42.5376 44.5702V39.1365H39.9667V35.6308H42.5376V32.0667Z" fill="#009393"/>
<path d="M66.1408 44.1321H55.5362C55.653 44.8721 56.0522 45.4856 56.7339 45.9725C57.4156 46.4399 58.3212 46.6736 59.4508 46.6736C61.0673 46.6736 62.3137 46.2938 63.1902 45.5343L65.5565 48.1635C64.1153 49.5853 62.0508 50.2961 59.3631 50.2961C56.7924 50.2961 54.796 49.6048 53.3743 48.222C51.972 46.8392 51.271 44.9695 51.271 42.6129C51.271 40.3927 51.9623 38.6009 53.3451 37.2376C54.7279 35.8548 56.5878 35.1634 58.925 35.1634C61.4763 35.1634 63.4239 35.9424 64.7677 37.5005C66.131 39.0586 66.5888 41.2691 66.1408 44.1321ZM55.5362 41.0646H62.3721C62.3332 40.3245 61.9827 39.7597 61.3205 39.3702C60.6583 38.9611 59.8598 38.7567 58.925 38.7567C58.0874 38.7567 57.3669 38.9611 56.7631 39.3702C56.1594 39.7792 55.7504 40.344 55.5362 41.0646Z" fill="#009393"/>
<path d="M69.6479 32.0667L73.8548 31.5993V35.6308H77.5065V39.1365H73.8256V44.5702C73.8256 45.8557 74.3709 46.4984 75.4615 46.4984C76.1627 46.4984 76.7469 46.3815 77.2144 46.1478L78.1785 49.6534C77.2241 50.0235 76.2114 50.2378 75.1402 50.2961C73.4458 50.3741 72.1019 49.9748 71.1087 49.0984C70.1349 48.2025 69.6479 46.6931 69.6479 44.5702V39.1365H67.0772V35.6308H69.6479V32.0667Z" fill="#009393"/>
<path d="M79.7558 29.5251H83.9918V37.3252C85.0241 35.9814 86.4848 35.3095 88.3739 35.3095C92.2106 35.3095 94.1291 37.6174 94.1291 42.2332V49.9748H89.9223V42.2624C89.9223 41.2691 89.6691 40.4997 89.1627 39.9544C88.6758 39.4091 88.0136 39.1365 87.1762 39.1365C86.2608 39.1365 85.4915 39.4481 84.8682 40.0713C84.2645 40.6946 83.9626 41.5612 83.9626 42.6713V49.9748H79.7558V29.5251Z" fill="#009393"/>
<path d="M110.627 44.1321H100.023C100.14 44.8721 100.539 45.4856 101.221 45.9725C101.902 46.4399 102.808 46.6736 103.938 46.6736C105.554 46.6736 106.801 46.2938 107.677 45.5343L110.044 48.1635C108.602 49.5853 106.538 50.2961 103.851 50.2961C101.279 50.2961 99.2831 49.6048 97.8613 48.222C96.4591 46.8392 95.7579 44.9695 95.7579 42.6129C95.7579 40.3927 96.4494 38.6009 97.8322 37.2376C99.215 35.8548 101.074 35.1634 103.412 35.1634C105.963 35.1634 107.911 35.9424 109.255 37.5005C110.618 39.0586 111.076 41.2691 110.627 44.1321ZM100.023 41.0646H106.86C106.821 40.3245 106.47 39.7597 105.808 39.3702C105.145 38.9611 104.346 38.7567 103.412 38.7567C102.575 38.7567 101.854 38.9611 101.25 39.3702C100.646 39.7792 100.237 40.344 100.023 41.0646Z" fill="#009393"/>
<path d="M112.372 35.5724H116.287L116.608 37.1499C117.524 35.8645 118.809 35.2218 120.465 35.2218C121.828 35.2218 123.006 35.66 124 36.5364L122.247 39.8668C121.565 39.3799 120.796 39.1365 119.939 39.1365C118.984 39.1365 118.187 39.4384 117.544 40.0421C116.901 40.6264 116.579 41.4346 116.579 42.4669V49.9748H112.372V35.5724Z" fill="#009393"/>
</g>
</g>
</svg>
