<svg width="72" height="72" viewBox="0 0 72 72" fill="none" xmlns="http://www.w3.org/2000/svg">
<g id="logo / partners product / binary bot / black / logo horizontal">
<g id="logo">
<path d="M13.4998 0C6.04407 0 0 6.04407 0 13.4998V13.892L67.3066 3.26848C64.9425 1.23151 61.8647 0 58.4992 0H13.4998Z" fill="#303541"/>
<path d="M68.6959 4.65238L56.349 71.999H58.4992C65.9549 71.999 71.999 65.9549 71.999 58.4992V13.4998C71.999 10.1153 70.7535 7.02175 68.6959 4.65238Z" fill="#303541"/>
<path fill-rule="evenodd" clip-rule="evenodd" d="M56.349 71.999L13.4998 72C6.04407 72 0 65.9559 0 58.5002V13.892L67.3066 3.26848C67.8024 3.69566 68.2668 4.15827 68.6959 4.65238L56.349 71.999Z" fill="#414652"/>
<path d="M24.8662 47.1825C23.6692 47.1825 22.4722 47.1405 21.2752 47.0565C20.0992 46.9935 18.8707 46.8255 17.5897 46.5525V25.3845C18.5977 25.1955 19.7002 25.059 20.8972 24.975C22.0942 24.87 23.2072 24.8175 24.2362 24.8175C25.6222 24.8175 26.8927 24.9225 28.0477 25.1325C29.2237 25.3215 30.2317 25.6575 31.0717 26.1405C31.9117 26.6235 32.5627 27.264 33.0247 28.062C33.5077 28.839 33.7492 29.805 33.7492 30.96C33.7492 32.703 32.9092 34.0785 31.2292 35.0865C32.6152 35.6115 33.5602 36.3255 34.0642 37.2285C34.5682 38.1315 34.8202 39.1501 34.8202 40.284C34.8202 42.5731 33.9802 44.2951 32.3002 45.4501C30.6412 46.605 28.1632 47.1825 24.8662 47.1825ZM22.3777 37.386V43.0245C22.7347 43.0665 23.1232 43.098 23.5432 43.119C23.9632 43.14 24.4252 43.1505 24.9292 43.1505C26.3992 43.1505 27.5857 42.9405 28.4887 42.5205C29.3917 42.1005 29.8432 41.3235 29.8432 40.1895C29.8432 39.1815 29.4652 38.4675 28.7092 38.0475C27.9532 37.6065 26.8717 37.386 25.4647 37.386H22.3777ZM22.3777 33.6375H24.7717C26.2837 33.6375 27.3652 33.4485 28.0162 33.0705C28.6672 32.6715 28.9927 32.0415 28.9927 31.1805C28.9927 30.2985 28.6567 29.679 27.9847 29.322C27.3127 28.965 26.3257 28.7865 25.0237 28.7865C24.6037 28.7865 24.1522 28.797 23.6692 28.818C23.1862 28.818 22.7557 28.839 22.3777 28.881V33.6375Z" fill="white"/>
<path d="M44.4553 47.1825C43.2583 47.1825 42.0613 47.1405 40.8643 47.0565C39.6883 46.9935 38.4598 46.8255 37.1788 46.5525V25.3845C38.1868 25.1955 39.2893 25.059 40.4863 24.975C41.6833 24.87 42.7963 24.8175 43.8253 24.8175C45.2113 24.8175 46.4818 24.9225 47.6368 25.1325C48.8128 25.3215 49.8208 25.6575 50.6608 26.1405C51.5008 26.6235 52.1518 27.264 52.6138 28.062C53.0968 28.839 53.3383 29.805 53.3383 30.96C53.3383 32.703 52.4983 34.0785 50.8183 35.0865C52.2043 35.6115 53.1493 36.3255 53.6533 37.2285C54.1573 38.1315 54.4093 39.1501 54.4093 40.284C54.4093 42.5731 53.5693 44.2951 51.8893 45.4501C50.2303 46.605 47.7523 47.1825 44.4553 47.1825ZM41.9668 37.386V43.0245C42.3238 43.0665 42.7123 43.098 43.1323 43.119C43.5523 43.14 44.0143 43.1505 44.5183 43.1505C45.9883 43.1505 47.1748 42.9405 48.0778 42.5205C48.9808 42.1005 49.4323 41.3235 49.4323 40.1895C49.4323 39.1815 49.0543 38.4675 48.2983 38.0475C47.5423 37.6065 46.4608 37.386 45.0538 37.386H41.9668ZM41.9668 33.6375H44.3608C45.8728 33.6375 46.9543 33.4485 47.6053 33.0705C48.2563 32.6715 48.5818 32.0415 48.5818 31.1805C48.5818 30.2985 48.2458 29.679 47.5738 29.322C46.9018 28.965 45.9148 28.7865 44.6128 28.7865C44.1928 28.7865 43.7413 28.797 43.2583 28.818C42.7753 28.818 42.3448 28.839 41.9668 28.881V33.6375Z" fill="white"/>
</g>
</g>
</svg>
