<svg width="128" height="80" viewBox="0 0 128 80" fill="none" xmlns="http://www.w3.org/2000/svg">
<g id="logo / payment method / changelly / brand">
<g id="wordmark">
<path d="M46.9658 43.3566C46.0439 44.3477 45.0988 44.8318 44.0616 44.8318C42.0792 44.8318 40.5349 43.1952 40.5349 41.0977C40.5349 38.977 42.0332 37.3405 43.9694 37.3405C45.3984 37.3405 46.3205 38.1011 46.9428 38.7696L47.058 38.9079L48.2567 37.6401L48.1414 37.5249C47.3346 36.672 46.1361 35.6809 43.9924 35.6809C41.042 35.6809 38.6448 38.1242 38.6448 41.1207C38.6448 44.1633 40.9959 46.5604 43.9924 46.5604C46.1591 46.5604 47.4038 45.4771 48.2336 44.5551L48.3488 44.4168L47.1042 43.2644L46.9658 43.3566Z" fill="black"/>
<path d="M54.7104 35.6582C53.3504 35.6582 52.244 36.1884 51.4373 37.2487V31.6015L49.5933 32.5004V46.2614H51.4373V40.3375C51.4373 38.5857 52.6129 37.3641 54.2955 37.3641C55.9321 37.3641 56.9002 38.4474 56.9002 40.2222V46.2844H58.7442V39.8534C58.7442 37.2949 57.1768 35.6582 54.7104 35.6582Z" fill="black"/>
<path d="M64.8983 35.7052C63.3079 35.7052 62.1554 36.1201 61.1642 36.5811L61.0259 36.6502L61.6021 38.1946L61.7635 38.1254C62.8468 37.6414 63.7458 37.4109 64.76 37.4109C66.604 37.4109 67.5721 38.2868 67.5721 39.9694V40.0616C66.8114 39.8542 65.9355 39.6928 64.6678 39.6928C61.8557 39.6928 60.1961 40.9837 60.1961 43.1504C60.1961 45.3401 62.1784 46.4926 64.1376 46.4926C65.8203 46.4926 66.9036 45.7781 67.5951 45.0635V46.2621H69.4161V39.9464C69.4161 38.6095 69.0473 37.5953 68.3097 36.8577C67.526 36.1201 66.3505 35.7052 64.8983 35.7052ZM67.5721 41.606V42.4127C67.5721 43.8649 66.2121 44.9482 64.3912 44.9482C63.2617 44.9482 62.0401 44.372 62.0401 43.1042C62.0401 41.9287 63.0773 41.2142 64.8061 41.2142C66.0047 41.2142 66.9498 41.4216 67.5721 41.606Z" fill="black"/>
<path d="M76.7 35.6574C75.3401 35.6574 74.2337 36.1876 73.4269 37.248V35.888H71.5829V46.3062H73.4269V40.3363C73.4269 38.5845 74.6025 37.3629 76.2851 37.3629C77.9217 37.3629 78.8898 38.4462 78.8898 40.2211V46.2832H80.7338V39.8522C80.7338 37.2937 79.1433 35.6574 76.7 35.6574Z" fill="black"/>
<path d="M90.9247 37.3637C89.9337 36.2342 88.6662 35.6579 87.1676 35.6579C85.9228 35.6579 84.6788 36.142 83.7795 36.9718C82.7885 37.8938 82.2582 39.1615 82.2582 40.5907C82.2582 41.9967 82.7885 43.2875 83.7795 44.2095C84.6788 45.0393 85.9228 45.5233 87.1676 45.5233C88.6662 45.5233 89.911 44.924 90.9482 43.7255V44.4169C90.9482 46.5836 89.6799 47.8284 87.4676 47.8284C86.1077 47.8284 84.8402 47.4134 83.687 46.5836L83.5256 46.4684L82.6733 47.9436L82.8112 48.0358C84.1712 48.9808 85.7614 49.4649 87.4904 49.4649C89.1731 49.4649 90.533 48.9808 91.4551 48.0588C92.3309 47.1599 92.7923 45.9382 92.7923 44.3708V35.8656H90.9482V37.3639L90.9247 37.3637ZM90.9944 40.5675C90.9944 42.619 89.1966 43.8407 87.4676 43.8407C85.6 43.8407 84.1484 42.4116 84.1484 40.5907C84.1484 38.7005 85.5311 37.3405 87.4676 37.3405C89.1966 37.3175 90.9944 38.5392 90.9944 40.5675Z" fill="black"/>
<path d="M99.495 35.6574C96.6364 35.6574 94.493 37.9855 94.493 41.0973C94.493 44.209 96.7288 46.537 99.7026 46.537C101.454 46.537 102.768 45.9377 103.989 44.5778L104.104 44.4395L102.906 43.3792L102.791 43.4944C101.892 44.4395 100.924 44.8544 99.748 44.8544C97.9736 44.8544 96.6599 43.6558 96.4061 41.8579H104.358L104.382 41.6966C104.404 41.4661 104.404 41.3047 104.404 41.1664C104.382 37.8703 102.422 35.6574 99.495 35.6574ZM102.491 40.3136H96.3834C96.6599 38.5156 97.9047 37.271 99.4715 37.271C101.384 37.271 102.284 38.7922 102.491 40.3136Z" fill="black"/>
<path d="M106.115 46.2849H107.959V32.2474L106.115 33.1693V46.2849Z" fill="black"/>
<path d="M110.376 46.2841H112.22V31.6011L110.376 32.523V46.2841Z" fill="black"/>
<path d="M122.041 35.8658L118.906 43.9794L115.356 35.8658H113.328L117.984 46.0773C117.362 47.5063 116.831 47.7829 116.117 47.7829C115.518 47.7829 115.103 47.6907 114.619 47.4372L114.458 47.345L113.812 48.8663L113.95 48.9354C114.711 49.3043 115.356 49.4656 116.163 49.4656C117.8 49.4656 118.814 48.6128 119.666 46.5152L124 35.8658H122.041Z" fill="black"/>
</g>
<g id="logo">
<path d="M33.5377 26.0461C33.4225 26.0461 30.864 26.1614 27.683 26.922C23.3727 27.9362 20.1457 29.6189 18.1633 31.9009C17.7253 32.408 17.3104 32.892 16.9416 33.353C16.1579 33.5605 13.9912 34.1597 13.0001 34.3442C12.4238 34.4594 11.9398 34.7821 11.5941 35.2662C10.8795 36.3034 9.63483 38.424 9.58877 38.5162L8.15964 40.9595L10.7643 39.83C11.8938 39.323 13.4842 38.9773 13.9453 39.2538C13.9683 39.2769 13.9913 39.2769 14.0143 39.4152C14.0143 40.1528 14.1988 40.8673 14.5445 41.5819C13.83 42.1351 13.4382 43.011 13.4842 43.9099V47.0909H16.6651C17.5641 47.1369 18.4169 46.722 18.9932 46.0305C19.7078 46.3762 20.4223 46.5376 21.1598 46.5607C21.2752 46.5837 21.2982 46.6068 21.2982 46.6298C21.5748 47.0909 21.229 48.6813 20.7219 49.8107L19.5924 52.3923L22.0357 50.9632C22.128 50.9171 24.2486 49.6724 25.2859 48.9579C25.7699 48.6351 26.0926 48.1281 26.2078 47.5518C26.4153 46.5607 26.9915 44.394 27.199 43.6103C27.66 43.2415 28.144 42.8266 28.6511 42.3886C33.9987 37.6634 34.4828 27.4291 34.5058 26.9911L34.5519 26L33.5377 26.0461ZM14.3832 37.4562C13.7839 37.2717 13.0924 37.2948 12.4239 37.4101C12.6775 36.9951 12.931 36.6033 13.1384 36.3036C13.1846 36.2114 13.2768 36.1654 13.392 36.1423C13.853 36.0501 14.5676 35.8657 15.2821 35.7043C14.8672 36.3267 14.5906 36.9029 14.3832 37.4562ZM17.518 44.8552C17.3336 45.1087 17.0109 45.2471 16.7112 45.224H16.4116L18.3247 42.2275L15.3282 44.1637V43.841C15.3052 43.5183 15.4435 43.2187 15.6971 43.0342L19.362 40.1299C19.5464 39.9686 19.8 39.8534 20.0304 39.8072L20.9985 39.5768L20.768 40.5449C20.6989 40.7984 20.6067 41.0289 20.4453 41.2133L17.518 44.8552ZM24.3868 47.1832C24.3638 47.2754 24.3177 47.3676 24.2255 47.4368C23.9259 47.6442 23.534 47.8978 23.1191 48.1513C23.2344 47.4829 23.2574 46.7914 23.073 46.1921C23.6263 45.9846 24.2025 45.708 24.8248 45.3162C24.6635 46.0077 24.479 46.6992 24.3868 47.1832ZM27.4294 41.0058C24.2486 43.8179 22.4968 44.6478 21.229 44.6938H21.183C20.7911 44.6938 20.4683 44.6247 20.1457 44.5094L21.8513 42.3428C22.1741 41.9279 22.4046 41.4669 22.5429 40.9598L23.4649 37.0873L19.5924 38.0094C19.0854 38.1246 18.6013 38.3551 18.2095 38.6778L16.0428 40.3835C15.9275 40.0608 15.8584 39.7381 15.8584 39.3462V39.3002C15.8814 38.0554 16.7343 36.2806 19.5464 33.0997C22.9348 29.2503 29.9419 28.2131 32.5694 27.9596C32.3158 30.6103 31.2788 37.6169 27.4294 41.0058Z" fill="#10D078"/>
<path d="M13.1047 51.645C11.9291 51.8754 10.7306 51.9446 9.53197 51.9676C8.84048 51.9676 8.14898 51.9446 7.43446 51.8754C7.71105 51.4144 7.9646 50.9535 8.19511 50.4694C8.63305 49.4782 8.95575 48.487 9.20928 47.4729C9.43978 46.5048 9.71638 45.5597 10.0622 44.6147C10.3849 43.6696 10.7537 42.7245 11.1685 41.7795C10.7997 42.1484 10.477 42.5402 10.1774 42.9551C9.87774 43.37 9.57809 43.808 9.30148 44.2459C8.77133 45.1218 8.31034 46.0899 7.91849 47.0349C7.5497 47.9569 7.15785 48.8789 6.69688 49.7087C6.23588 50.5385 5.70574 51.2992 5.06031 52.0368L4 53.2814L5.63657 53.512C6.92736 53.6964 8.24125 53.7886 9.55507 53.7425C10.2235 53.7194 10.8689 53.6733 11.5373 53.5581C12.1828 53.4659 12.8512 53.3046 13.4736 53.1201C14.7413 52.7513 15.9629 52.152 17.0463 51.3914C17.5765 50.9995 18.0835 50.5616 18.4984 50.0544C18.9133 49.5474 19.3052 49.0172 19.5587 48.4179C18.6828 49.3399 17.6225 50.0084 16.5392 50.5385C15.4328 51.0687 14.2802 51.4144 13.1047 51.645Z" fill="#10D078"/>
<path d="M26.7614 37.0184C27.5913 37.0184 28.421 36.6957 29.0665 36.0733C30.3342 34.8055 30.3342 32.7541 29.0665 31.4863C28.4441 30.864 27.6373 30.5412 26.7614 30.5412C25.8855 30.5412 25.0788 30.887 24.4564 31.4863C23.1887 32.7541 23.1887 34.8055 24.4564 36.0733C25.0788 36.6957 25.9086 37.0184 26.7614 37.0184ZM25.7473 32.7772C26.0238 32.5006 26.3696 32.3623 26.7384 32.3623C27.1072 32.3623 27.476 32.5006 27.7295 32.7772C28.2828 33.3304 28.2828 34.2062 27.7295 34.7595C27.1763 35.3126 26.3004 35.3126 25.7473 34.7595C25.2171 34.2293 25.2171 33.3303 25.7473 32.7772Z" fill="#10D078"/>
</g>
</g>
</svg>
