<svg width="128" height="80" viewBox="0 0 128 80" fill="none" xmlns="http://www.w3.org/2000/svg">
<g id="logo / payment method / alipay / black">
<g id="logo">
<path d="M8.36575 42.4036C6.05904 44.4323 7.43898 48.1402 12.1065 48.1402C14.8194 48.1402 17.5311 46.3907 19.6601 43.5897C16.6312 42.0986 14.0646 41.0319 11.292 41.3082C10.5421 41.3833 9.1355 41.718 8.36575 42.4036Z" fill="black"/>
<path fill-rule="evenodd" clip-rule="evenodd" d="M8.80614 24.871H29.1978C31.8528 24.871 34.0022 27.0405 34.0022 29.7185V50.2827C34.0022 52.959 31.8528 55.1294 29.1978 55.1294H8.80614C6.15055 55.1294 4 52.959 4 50.2827V29.7185C4 27.0405 6.15055 24.871 8.80614 24.871ZM25.9054 42.8585C26.9691 43.2535 27.9219 43.6074 28.7016 43.8708C33.0219 45.3298 34.002 45.4086 34.002 45.4086V50.0844C34.002 50.0844 26.1985 46.8036 22.257 44.8928C19.6145 48.1725 16.205 50.1626 12.6657 50.1626C6.67972 50.1626 4.64679 44.8798 7.48121 41.4017C8.09877 40.6433 9.14996 39.9195 10.7821 39.5139C13.3343 38.8819 17.3967 39.9087 21.2038 41.1756C21.888 39.903 22.4645 38.5024 22.8938 37.0105H11.1611V35.8117H17.2105V33.6634H9.88343V32.4642H17.2105V29.3994C17.2105 29.3994 17.2105 28.883 17.7292 28.883H20.6858V32.4642H27.9304V33.6634H20.6858V35.8117H26.5998C26.0341 38.1498 25.1733 40.3012 24.0958 42.1905C24.7248 42.42 25.3313 42.6452 25.9054 42.8585Z" fill="black"/>
<path d="M61.5008 49.3198H66.2574V27.3433H61.5008V49.3198Z" fill="black"/>
<path d="M46.2371 41.7033L49.0667 31.9193H49.1875L51.8669 41.7033H46.2371ZM53.1615 28.0961H46.779L39.644 49.3201H44.0395L45.2437 45.1655H52.8001L53.9437 49.3201H59.5737L53.1615 28.0961Z" fill="black"/>
<path d="M69.5083 49.32H74.2649V33.1839H69.5083V49.32Z" fill="black"/>
<path d="M123.97 33.2141L124 33.184H119.514L116.685 42.9981H116.534L113.283 33.184H107.954L114.367 49.3806L111.687 54.3176V54.4381H115.872L123.97 33.2141Z" fill="black"/>
<path d="M83.0867 46.5503C82.5451 46.5503 82.033 46.4902 81.4613 46.3094V37.5791C82.4547 36.8867 83.2675 36.5554 84.2909 36.5554C86.0674 36.5554 87.4822 37.9705 87.4822 40.9809C87.4822 44.8342 85.405 46.5503 83.0867 46.5503ZM86.0974 32.8526C84.3513 32.8526 82.9966 33.5149 81.4613 34.7792V33.1836H76.7042V54.4377H81.4613V49.1693C82.3643 49.4102 83.2072 49.5307 84.2308 49.5307C88.4755 49.5307 92.2991 46.3998 92.2991 40.8304C92.2991 35.833 89.529 32.8526 86.0974 32.8526Z" fill="black"/>
<path d="M102.264 45.4066C101 46.099 100.277 46.3699 99.4347 46.3699C98.2905 46.3699 97.5681 45.6174 97.5681 44.4132C97.5681 43.9615 97.6582 43.51 98.0193 43.1489C98.5915 42.5767 99.7056 42.1553 102.264 41.5533V45.4066ZM107.021 45.2861V38.5429C107.021 34.8698 104.854 32.853 101.03 32.853C98.5915 32.853 96.9058 33.2742 93.835 34.2075L94.6776 37.9106C97.4774 36.646 98.712 36.1041 100.007 36.1041C101.572 36.1041 102.264 37.2179 102.264 38.934V39.0544C96.8151 40.0781 95.1293 40.65 94.0756 41.7038C93.2931 42.4866 92.962 43.6004 92.962 44.8947C92.962 47.9956 95.3705 49.6516 97.6285 49.6516C99.3142 49.6516 100.669 49.0193 102.505 47.6342L102.836 49.3203H107.593L107.021 45.2861Z" fill="black"/>
<path d="M69.1475 29.3004C69.1475 30.8657 70.2913 31.9195 71.8869 31.9195C73.4826 31.9195 74.6264 30.8657 74.6264 29.3004C74.6264 27.7652 73.4826 26.6811 71.8869 26.6811C70.2913 26.6811 69.1475 27.7652 69.1475 29.3004Z" fill="black"/>
</g>
</g>
</svg>
