<svg width="128" height="80" viewBox="0 0 128 80" fill="none" xmlns="http://www.w3.org/2000/svg">
<g id="logo / payment method / dai / brand-dark">
<g id="logo">
<path fill-rule="evenodd" clip-rule="evenodd" d="M26.9367 20.9277H11.509V33.3113H6.14795V37.7474H11.509V42.4036H6.14795V46.8397H11.509V59.0729H26.9367C36.2147 59.0729 43.2731 54.0772 45.989 46.8397H50.8862V42.4036H47.063C47.1567 41.6171 47.2046 40.814 47.2046 39.9971V39.8881C47.2046 39.1626 47.1669 38.4484 47.0924 37.7474H50.8862V33.3113H46.0804C43.4341 25.9717 36.3208 20.9277 26.9367 20.9277ZM15.8219 55.0934V46.8397H41.2634C38.8913 51.7878 33.7954 55.0934 26.9367 55.0934H15.8219ZM15.8219 42.4036H42.5847C42.6883 41.6566 42.7413 40.8896 42.7413 40.1061V39.9971C42.7413 39.2312 42.6908 38.4801 42.5914 37.7474H15.8219V42.4036ZM41.296 33.3113C38.9382 28.2937 33.8271 24.9007 26.9367 24.9007H15.8219V33.3113H41.296Z" fill="#F4B731"/>
<path fill-rule="evenodd" clip-rule="evenodd" d="M78.1551 31.6254C77.097 31.4288 75.9409 31.3305 74.6866 31.3305H70.8043C69.0394 31.3305 67.6087 32.7612 67.6087 34.5261V48.0902C67.6087 49.8551 69.0394 51.2858 70.8043 51.2858H72.7766C73.6097 51.2858 74.2558 51.2811 74.7144 51.2718C75.1826 51.2624 75.7773 51.2249 76.4979 51.1594C77.2188 51.0845 77.8742 50.9815 78.4641 50.8505C79.6155 50.5977 80.6362 50.2092 81.5255 49.6849C82.4241 49.1512 83.1498 48.5567 83.702 47.9014C84.2638 47.2367 84.7227 46.4924 85.0784 45.6685C85.434 44.8353 85.6823 44.0208 85.8226 43.225C85.9632 42.4199 86.0332 41.5867 86.0332 40.7253C86.0332 40.07 85.9817 39.4381 85.8788 38.8295C85.7852 38.2116 85.612 37.5844 85.3592 36.9477C85.1157 36.3111 84.8022 35.7213 84.4185 35.1783C84.0343 34.6353 83.5429 34.1251 82.9437 33.6476C82.3445 33.1701 81.6613 32.7629 80.8934 32.4258C80.1258 32.0888 79.2132 31.822 78.1551 31.6254ZM71.1475 34.5885H74.7847C75.6085 34.5885 76.2547 34.6213 76.7228 34.6868C77.275 34.7617 77.8135 34.8974 78.3376 35.0941C78.862 35.2907 79.3768 35.5668 79.8823 35.9226C80.3974 36.2784 80.8419 36.695 81.2165 37.1725C81.6003 37.6405 81.9045 38.221 82.1295 38.9138C82.3634 39.6066 82.4803 40.3649 82.4803 41.1888C82.4803 42.6212 82.162 43.871 81.5255 44.9383C81.1791 45.5187 80.7439 46.0149 80.2195 46.4269C79.7046 46.8294 79.2036 47.1337 78.7169 47.3397C78.2395 47.5363 77.6588 47.6907 76.9756 47.8031C76.2921 47.9154 75.7396 47.981 75.3184 47.9997C74.8972 48.0184 74.3635 48.0278 73.7174 48.0278H71.1475V34.5885Z" fill="#F4B731"/>
<path fill-rule="evenodd" clip-rule="evenodd" d="M100.013 31.3305C98.8442 31.3305 97.7935 32.0445 97.3627 33.1316L90.1701 51.2858H93.5964L95.8295 46.0617H103.974L106.207 51.2858H109.844L102.665 33.1332C102.235 32.0452 101.184 31.3305 100.013 31.3305ZM99.9019 35.417L102.739 42.8178H97.0511L99.9019 35.417Z" fill="#F4B731"/>
<path d="M118.313 33.0999C118.313 32.1227 119.106 31.3305 120.083 31.3305C121.06 31.3305 121.852 32.1227 121.852 33.0999V51.2858H118.313V33.0999Z" fill="#F4B731"/>
</g>
</g>
</svg>
