<svg width="128" height="80" viewBox="0 0 128 80" fill="none" xmlns="http://www.w3.org/2000/svg">
<g id="logo / payment method / directa24 / brand">
<path id="logo" fill-rule="evenodd" clip-rule="evenodd" d="M103.417 29.695C102.64 29.8157 102.115 30.0721 101.604 30.5804C101.302 30.8808 101.211 31.0077 101.019 31.3982C100.731 31.9849 100.664 32.3527 100.628 33.5489L100.601 34.4428H102.105H103.609L103.624 33.3944C103.638 32.3794 103.642 32.339 103.749 32.1253C103.889 31.8462 104.092 31.7059 104.357 31.7059C105.165 31.7059 105.349 32.7485 104.784 34.124C104.439 34.9629 103.541 36.5473 101.629 39.6885L100.616 41.3514L100.616 42.3116L100.615 43.2717H104.279H107.943V42.1239V40.9762H106.133C105.138 40.9762 104.323 40.9659 104.323 40.9534C104.323 40.9408 104.598 40.5187 104.934 40.0153C106.204 38.1116 107.177 36.5462 107.537 35.828C107.776 35.351 108.02 34.6825 108.131 34.2032C108.268 33.6111 108.267 32.6109 108.129 32.1337C107.659 30.5 106.263 29.6146 104.191 29.6356C103.96 29.638 103.612 29.6647 103.417 29.695ZM109.873 34.3L108.425 38.7028L108.427 39.8174L108.429 40.9321H110.415H112.402V42.1019V43.2717H114.079H115.757V42.1019V40.9321H116.132C116.338 40.9321 116.507 40.9426 116.507 40.9556C116.507 40.9686 116.46 41.0728 116.402 41.1873C116.295 41.4019 116.198 41.8522 116.198 42.1404C116.198 42.3431 116.333 42.6162 116.481 42.7131C116.64 42.8175 116.998 42.8075 117.226 42.6924C117.471 42.5688 117.927 42.2929 118 42.2234C118.032 42.1929 118.085 42.1681 118.118 42.1681C118.15 42.1681 118.294 42.0538 118.438 41.9143C119.308 41.0704 120.345 40.2257 120.511 40.2257C120.542 40.2257 120.627 40.3074 120.699 40.4071C120.853 40.62 121.271 41.4253 121.407 41.7719C121.459 41.9048 121.57 42.1594 121.653 42.3376C121.736 42.5158 121.804 42.6796 121.804 42.7018C121.804 42.7239 121.819 42.742 121.838 42.742C121.856 42.742 121.896 42.7989 121.927 42.8684C121.982 42.9924 122.381 43.4281 122.599 43.6028C122.66 43.6513 122.816 43.7437 122.947 43.808C123.212 43.9379 123.319 43.9255 123.608 43.7317C123.815 43.5931 123.914 43.4086 123.972 43.0578C124.014 42.8056 124.01 42.7166 123.951 42.5107C123.911 42.3755 123.879 42.2083 123.879 42.1392C123.879 42.0701 123.85 41.9242 123.815 41.8149C123.779 41.7057 123.721 41.5269 123.685 41.4176C123.586 41.1099 123.244 40.3556 122.973 39.8425C122.432 38.821 121.484 37.7715 120.961 37.6145C120.809 37.5693 120.753 37.5789 120.41 37.7084C120 37.8633 119.05 38.417 118.582 38.7741C118.148 39.1051 117.075 40.1413 116.902 40.3959C116.818 40.5196 116.735 40.6213 116.717 40.6219C116.698 40.6225 116.684 40.1761 116.684 39.6298V38.6365H116.22H115.757V34.2663V29.896L113.538 29.8966L111.32 29.8973L109.873 34.3ZM112.386 38.6226C112.377 38.6315 112.043 38.6333 111.644 38.6266L110.918 38.6145L111.649 35.8242L112.379 33.034L112.391 35.8202C112.397 37.3527 112.395 38.6137 112.386 38.6226ZM119.866 41.0396C119.533 41.1658 119.127 41.5367 118.825 41.9915C118.72 42.1493 118.597 42.3182 118.551 42.3667C118.506 42.4153 118.372 42.6329 118.255 42.8504C116.933 45.3021 114.437 47.5282 111.386 48.9769C110.406 49.4421 108.991 49.9797 108.12 50.2175C107.986 50.254 107.688 50.3361 107.457 50.4001C105.42 50.965 102.532 51.3004 100.196 51.2434C99.1614 51.2181 97.9705 51.1366 97.2758 51.0434C96.6537 50.96 95.9991 50.8653 95.9136 50.8462C95.8651 50.8354 95.7062 50.8054 95.5605 50.7795C95.3155 50.736 94.838 50.6414 94.4127 50.5522C92.969 50.2491 90.8452 49.5549 89.3407 48.8943C87.9012 48.2621 86.5213 47.51 85.1552 46.613C84.8709 46.4263 84.6241 46.2735 84.6069 46.2735C84.5896 46.2735 84.5423 46.2435 84.5016 46.2067C84.4061 46.1202 83.947 46.0007 83.775 46.0177C83.6095 46.0339 83.5742 46.1747 83.7058 46.2938C83.7554 46.3388 83.796 46.3984 83.796 46.4265C83.796 46.4546 83.9233 46.5828 84.0787 46.7115C84.3961 46.9739 84.459 47.1168 84.3026 47.2193C84.2122 47.2785 84.1817 47.2726 83.9447 47.1496C83.8023 47.0757 83.5963 46.9508 83.487 46.8721C83.2238 46.6824 82.9677 46.6187 82.4429 46.6124C82.0409 46.6076 81.99 46.6169 81.7654 46.7372C81.6319 46.8088 81.3563 47.0018 81.153 47.1663C80.9497 47.3308 80.765 47.4654 80.7425 47.4654C80.6501 47.4654 80.3092 47.0226 80.3088 46.9022C80.3085 46.8026 80.0422 46.476 79.9209 46.4263C79.5959 46.2935 79.3102 46.613 79.2261 47.2034C79.1891 47.4636 79.4022 48.1286 79.6374 48.4871C80.4273 49.6905 81.0784 50.2736 82.5076 51.0576C82.8575 51.2496 84.0801 51.8054 84.472 51.9507C84.8242 52.0813 86.3933 52.6186 86.496 52.6438C86.5528 52.6578 86.8177 52.7313 87.0848 52.8072C87.6933 52.9801 87.5902 52.9533 88.3429 53.134C89.0895 53.3132 90.4011 53.5771 91.0798 53.6846C92.1198 53.8493 92.2556 53.8665 93.9051 54.0422C94.32 54.0863 95.2359 54.1537 96.0902 54.2027C97.0209 54.2562 100.006 54.227 100.968 54.155C104.019 53.9267 104.898 53.8221 106.608 53.4843C109.857 52.8424 112.916 51.6044 115.359 49.9434C117.68 48.3654 119.519 46.4069 120.7 44.255C121.349 43.0727 121.378 42.9619 121.296 42.0136C121.272 41.7341 121.237 41.5851 121.18 41.511C121.135 41.4531 121.098 41.3821 121.098 41.3531C121.098 41.2627 120.908 41.1204 120.69 41.0474C120.324 40.9252 120.172 40.9238 119.866 41.0396Z" fill="#3E3E3E"/>
<path id="wordmark" fill-rule="evenodd" clip-rule="evenodd" d="M12.0563 25.0456C15.2137 25.2336 17.5245 25.9354 19.4621 27.2946C19.9958 27.669 21.0185 28.6932 21.4026 29.2379C22.3173 30.5352 22.8661 31.9415 23.0993 33.5861C23.2151 34.4025 23.2158 36.4546 23.1005 37.1822C22.8647 38.6712 22.3863 39.8978 21.5653 41.1188C19.979 43.478 17.2197 45.1056 13.9104 45.6338C12.8707 45.7997 12.7379 45.8043 8.35925 45.8231L4 45.8419V35.4209V25L7.65294 25.0004C9.66208 25.0007 11.6436 25.021 12.0563 25.0456ZM8.59101 35.4188V41.6069L10.4782 41.5866C12.1076 41.569 12.4437 41.5538 12.9392 41.4747C13.996 41.3061 14.7224 41.0943 15.3983 40.758C15.964 40.4765 16.3009 40.2431 16.7283 39.8367C17.6258 38.9834 18.1713 37.8945 18.3764 36.547C18.4796 35.8689 18.4777 34.6593 18.3725 34.0742C18.169 32.9429 17.72 32.0633 16.928 31.2446C16.1387 30.4287 15.0917 29.8603 13.7563 29.5228C12.8402 29.2912 12.5826 29.2694 10.5223 29.2494L8.59101 29.2306V35.4188ZM27.4898 29.5912C28.2204 29.7276 28.8623 30.3378 29.0272 31.0528C29.2767 32.1352 28.5422 33.2109 27.4276 33.3956C26.6324 33.5274 25.7491 33.0758 25.3976 32.3579C24.6946 30.9222 25.9223 29.2987 27.4898 29.5912ZM68.7597 29.5937C70.1143 29.7177 71.2559 30.1081 72.2482 30.7865C72.6542 31.0641 73.42 31.8101 73.3745 31.8837C73.3592 31.9084 72.7616 32.4064 72.0465 32.9902L70.7464 34.0517L70.4945 33.8038C70.1714 33.4858 69.9428 33.3301 69.4957 33.1235C68.9032 32.8497 68.5866 32.791 67.7223 32.7945C67.1 32.797 66.914 32.8135 66.633 32.8912C64.8156 33.3934 63.6089 34.7773 63.2156 36.8102C63.1125 37.3433 63.1115 38.4279 63.2137 38.9717C63.5427 40.7226 64.5818 42.1024 66.0295 42.7107C66.9331 43.0903 68.2268 43.1099 69.1128 42.7574C69.7234 42.5145 70.366 42.0259 70.7744 41.4939L70.9053 41.3233L72.3377 42.3951C73.1255 42.9847 73.7639 43.4873 73.7563 43.512C73.7275 43.6062 73.3042 44.1034 73.0353 44.3591C72.2201 45.1341 71.2249 45.6652 70.0146 45.9711C69.264 46.1608 68.8543 46.2075 67.9651 46.2048C66.3737 46.1999 65.0914 45.9098 63.7934 45.2611C62.9839 44.8565 62.4552 44.4754 61.8047 43.8276C60.5954 42.6234 59.8401 41.0464 59.5994 39.2232C59.5135 38.5724 59.5135 37.2079 59.5994 36.557C59.8401 34.7339 60.5954 33.1568 61.8047 31.9527C62.4552 31.3049 62.9839 30.9238 63.7934 30.5192C65.2833 29.7746 67.0796 29.4398 68.7597 29.5937ZM38.6405 29.9889C40.1283 30.1024 41.2522 30.442 42.0779 31.0277C42.4574 31.2969 42.9683 31.8579 43.1927 32.2521C43.5728 32.9198 43.7235 33.5225 43.7582 34.5131C43.8043 35.832 43.5287 36.8121 42.8719 37.6657C42.3465 38.3485 41.5121 38.8659 40.6508 39.043C40.4991 39.0742 40.3749 39.1143 40.3749 39.1323C40.3749 39.1502 41.2785 40.6659 42.3828 42.5005L44.3908 45.8361H42.3008H40.2109L38.5591 42.6688L36.9074 39.5014L36.0366 39.4894L35.1659 39.4775V42.6568V45.8361H33.4222H31.6785V37.8901V29.9442L34.8679 29.9442C36.6221 29.9443 38.3198 29.9644 38.6405 29.9889ZM57.1497 31.5554V33.1667H53.5078H49.8659V34.6676V36.1685H53.3092H56.7524V37.7798V39.391H53.3092H49.8659V41.0023V42.6136H53.7065H57.547V44.2248V45.8361H51.9628H46.3785V37.8901V29.9442H51.7641H57.1497V31.5554ZM86.8147 31.4892V33.0343H84.5413H82.2678V39.4352V45.8361H80.5241H78.7804V39.4352V33.0343H76.5291H74.2777V31.4892V29.9442H80.5462H86.8147V31.4892ZM98.098 37.9016L101.547 45.837L99.5795 45.8255L97.6116 45.814L96.9308 44.1476L96.25 42.4811L93.1546 42.4817L90.0593 42.4823L89.401 44.1592L88.7427 45.8361H86.8249C85.3085 45.8361 84.9116 45.8245 84.9288 45.7809C84.9651 45.6884 91.6575 30.1957 91.7175 30.065L91.7736 29.943L93.211 29.9546L94.6485 29.9662L98.098 37.9016ZM35.1659 34.7116V36.5296L36.8544 36.5113C38.5105 36.4933 38.5499 36.4908 38.9089 36.381C39.5332 36.19 39.9235 35.8455 40.089 35.3393C40.146 35.1651 40.1601 34.9998 40.1474 34.6562C40.1271 34.1081 40.0085 33.82 39.6743 33.5074C39.4111 33.2612 39.1876 33.1445 38.749 33.0244C38.441 32.94 38.2641 32.9299 36.7882 32.9126L35.1659 32.8936V34.7116ZM93.0714 34.6536C93.0044 34.7708 91.1806 39.4897 91.1963 39.5053C91.2067 39.5158 92.0788 39.5192 93.1341 39.5129L95.0528 39.5014L94.0978 37.0849C93.5726 35.7558 93.1314 34.657 93.1174 34.643C93.1034 34.629 93.0827 34.6338 93.0714 34.6536ZM28.8091 40.3843V45.8361H27.1316H25.4541V40.3843V34.9325H27.1316H28.8091V40.3843Z" fill="#98D000"/>
</g>
</svg>
