<svg width="128" height="80" viewBox="0 0 128 80" fill="none" xmlns="http://www.w3.org/2000/svg">
<g id="logo / payment method / 10 coins / white">
<path id="logo" d="M64 37.9448C63.6477 38.4053 63.19 38.7744 62.6653 39.021C62.1405 39.2676 61.5643 39.3845 60.9849 39.3619C58.7839 39.3619 57.4271 38.0352 57.4271 35.8945C57.4271 33.7538 58.7538 32.4875 60.9548 32.4875C62.1608 32.4574 63.2764 33.0001 64 33.9347L64.2111 34.2363L67.4673 31.6734L67.2261 31.3719C66.4172 30.4921 65.4264 29.7991 64.3226 29.3409C63.2187 28.8827 62.0283 28.6703 60.8342 28.7187C56.1608 28.7187 53.1457 31.5528 53.1457 35.8945C53.1457 40.2363 56.1608 43.1307 60.8342 43.1307C63.5477 43.1307 65.6884 42.2262 67.2261 40.5076L67.4673 40.2061L64.2111 37.6433L64 37.9448ZM76.6935 28.7187C72.0804 28.7187 68.8543 31.6734 68.8543 35.9247C68.8543 40.1458 72.0804 43.1307 76.6935 43.1307C81.3065 43.1307 84.5327 40.176 84.5327 35.9247C84.5327 31.7036 81.3367 28.6885 76.6935 28.6885V28.7187ZM76.6935 39.392C74.5226 39.392 73.1357 38.0353 73.1357 35.9247C73.1357 33.8141 74.5829 32.4574 76.6935 32.4574C78.8643 32.4574 80.2814 33.8141 80.2814 35.9247C80.2814 38.0353 78.8643 39.392 76.6935 39.392ZM87.6683 28.99H91.8894V42.8594H87.6683V28.99ZM104.884 35.7739L97.7387 28.9599H95.5075V42.8292H99.608V36.0754L106.724 42.8895H108.955V28.99H104.884V35.7739ZM119.176 34.1458C117.276 33.7538 116.372 33.5428 116.372 33.0001C116.372 32.3971 117.427 32.3368 117.879 32.3368C119.146 32.3368 120.412 32.6383 121.618 33.0905L121.92 33.2111L123.638 29.9247L123.307 29.7739C121.592 29.0464 119.741 28.6967 117.879 28.7488C114.201 28.7488 112.121 30.377 112.121 33.2714C112.121 36.4674 114.955 37.2513 117.608 37.7639C119.387 38.0654 119.719 38.3669 119.719 38.789C119.719 39.0001 119.719 39.6031 118.09 39.6031C116.583 39.5428 115.075 39.181 113.688 38.5177L113.387 38.3669L111.789 41.7136L112.09 41.8644C114.02 42.7689 116.1 43.191 118.211 43.1307C123.005 43.1307 124 40.6282 124 38.5177C124 35.5026 121.678 34.6282 119.176 34.1458ZM16.0905 46.387C17.5708 50.1246 20.3083 53.229 23.8313 55.1654C27.3543 57.1018 31.4423 57.7489 35.3912 56.9954C39.34 56.2419 42.9025 54.1348 45.4649 51.0372C48.0273 47.9396 49.4292 44.0453 49.4292 40.0252C49.4292 36.0051 48.0273 32.1108 45.4649 29.0132C42.9025 25.9156 39.34 23.8086 35.3912 23.055C31.4423 22.3015 27.3543 22.9486 23.8313 24.885C20.3083 26.8214 17.5708 29.9258 16.0905 33.6634V23.5327H4V56.4875H16.1206V46.387H16.0905ZM27.9397 29.0202H30.4422V31.1307C31.0754 31.0403 31.7387 30.98 32.3719 31.0101H32.9447V29.0202H35.4472V31.3719C37.3035 31.8241 38.9766 32.8343 40.2412 34.2664L36.804 36.98C36.3115 36.3226 35.6683 35.7932 34.9284 35.4364C34.1886 35.0796 33.3738 34.9058 32.5528 34.9297C29.4774 34.9297 27.5477 36.7388 27.5477 39.7538C27.5477 42.7689 29.4774 44.6684 32.5226 44.6684C33.3461 44.7007 34.1652 44.5339 34.9105 44.1823C35.6558 43.8306 36.3053 43.3044 36.804 42.6483L40.2412 45.3619C38.9817 46.815 37.2919 47.8289 35.4171 48.2564V50.4875H32.9447V48.588H32.402C31.7387 48.588 31.1055 48.5579 30.4724 48.4674V50.4875H27.9397V47.774C24.804 46.4473 22.9347 43.6433 22.9347 39.7538C22.9347 35.8644 24.804 33.1207 27.9397 31.794V29.0202ZM60.0201 51.1207C60.0201 49.191 61.5276 47.8041 63.4874 47.8041C63.9825 47.7871 64.475 47.8812 64.929 48.0794C65.3829 48.2777 65.7866 48.5751 66.1105 48.9498L65.1759 49.8242C64.9093 49.4926 64.5462 49.2521 64.1369 49.1361C63.7275 49.0201 63.2922 49.0343 62.8913 49.1768C62.4904 49.3193 62.1438 49.5829 61.8994 49.9312C61.6551 50.2795 61.5251 50.6952 61.5276 51.1207C61.5251 51.5461 61.6551 51.9618 61.8994 52.3102C62.1438 52.6585 62.4904 52.9221 62.8913 53.0646C63.2922 53.2071 63.7275 53.2213 64.1369 53.1053C64.5462 52.9893 64.9093 52.7488 65.1759 52.4172L66.1105 53.2915C65.4472 54.0453 64.4824 54.4674 63.4874 54.4071C61.4975 54.4071 60.0201 53.0503 60.0201 51.0905V51.1207ZM74.8543 54.3167L73.5879 52.5076H72.2311V54.3167H70.7538V47.9247H73.5276C75.2161 47.9247 76.3015 48.8292 76.3015 50.2463C76.3316 51.1508 75.8191 51.9348 74.9749 52.2664L76.4221 54.3167H74.8543ZM73.4372 49.1307H72.2311V51.3619H73.4372C74.3417 51.3619 74.794 50.9398 74.794 50.2463C74.794 49.5529 74.3417 49.1307 73.4372 49.1307ZM84.0804 52.0554V54.3167H82.603V52.0252L80.1306 47.9247H81.6985L83.4171 50.7589L85.1055 47.9247H86.5829L84.0804 52.0554ZM96.3216 50.2463C96.3216 51.6634 95.2362 52.5378 93.5477 52.5378H92.2513V54.3167H90.7739V47.9247H93.5477C95.2362 47.9247 96.3216 48.8292 96.3216 50.2463ZM94.8141 50.2463C94.8141 49.5227 94.3618 49.1307 93.4573 49.1307H92.2513V51.3317H93.4573C94.3618 51.3317 94.8141 50.9398 94.8141 50.2463ZM102.171 49.1307H100.121V47.9247H105.698V49.1307H103.648V54.3167H102.141L102.171 49.1307ZM109.618 51.1207C109.618 49.2212 111.126 47.8041 113.116 47.8041C115.136 47.8041 116.613 49.191 116.613 51.1207C116.613 53.0503 115.106 54.4373 113.116 54.4373C111.126 54.4373 109.618 53.0202 109.618 51.1207ZM115.136 51.1207C115.124 50.7312 114.998 50.3538 114.773 50.0352C114.549 49.7166 114.236 49.471 113.873 49.3287C113.51 49.1864 113.114 49.1538 112.733 49.2348C112.352 49.3158 112.003 49.507 111.729 49.7846C111.456 50.0622 111.27 50.4139 111.194 50.7962C111.119 51.1786 111.157 51.5746 111.305 51.9352C111.453 52.2958 111.703 52.6052 112.025 52.8248C112.347 53.0445 112.726 53.1649 113.116 53.1709C113.386 53.1796 113.655 53.1322 113.906 53.0318C114.157 52.9314 114.384 52.7802 114.574 52.5876C114.764 52.3951 114.912 52.1653 115.008 51.9129C115.105 51.6604 115.148 51.3907 115.136 51.1207Z" fill="white"/>
</g>
</svg>
