<svg width="128" height="80" viewBox="0 0 128 80" fill="none" xmlns="http://www.w3.org/2000/svg">
<g id="logo / payment method / cardano / brand">
<g id="logo">
<path d="M24.9636 20.2605C25.9034 19.7738 27.0447 20.8982 26.5412 21.8381C26.2559 22.5933 25.165 22.8115 24.5943 22.2241C24.0069 21.6702 24.1916 20.5626 24.9636 20.2605ZM14.877 21.3514C15.4476 21.1164 16.1693 21.6367 16.1022 22.2576C16.1693 22.929 15.3469 23.4325 14.7595 23.1136C14.0043 22.8115 14.0882 21.5695 14.877 21.3514ZM35.5201 23.1304C34.6306 23.0297 34.4963 21.6199 35.3522 21.3514C36.0236 21.0325 36.6278 21.6367 36.7284 22.2576C36.5774 22.7947 36.1243 23.2814 35.5201 23.1304ZM17.1763 25.631C18.1329 25.0268 19.4923 25.9331 19.3413 27.024C19.2909 28.1317 17.814 28.7862 16.9749 28.031C16.1693 27.4436 16.2868 26.1009 17.1763 25.631ZM31.6936 26.2688C32.1131 25.1779 33.8418 25.1443 34.3117 26.2016C34.7816 27.024 34.1942 28.0478 33.3551 28.3331C32.2306 28.568 31.1565 27.3429 31.6936 26.2688ZM23.7384 28.2827C23.7216 27.3429 24.5776 26.638 25.4838 26.5709C26.0713 26.6884 26.7258 26.9401 26.9775 27.5443C27.4475 28.3667 27.0279 29.5079 26.1719 29.8771C25.7859 30.0953 25.316 30.0114 24.8964 29.9946C24.2419 29.6757 23.6881 29.0548 23.7384 28.2827ZM8.76799 29.6589C9.64071 29.1219 10.8155 30.0953 10.4799 31.0351C10.2952 31.8575 9.20435 32.1764 8.5666 31.6561C7.89528 31.1862 8.01276 30.0114 8.76799 29.6589ZM40.9242 29.6589C41.6626 29.0883 42.871 29.7429 42.7871 30.6659C42.8375 31.5219 41.7801 32.1596 41.0585 31.7232C40.2529 31.354 40.169 30.1121 40.9242 29.6589ZM27.9509 31.3372C29.1593 30.9009 30.6194 31.4212 31.3075 32.512C32.2138 33.8379 31.7271 35.8519 30.3173 36.6239C28.8404 37.5302 26.6922 36.7581 26.1552 35.1134C25.5342 33.6533 26.4405 31.8072 27.9509 31.3372ZM20.8182 31.4883C22.1608 30.8505 23.9734 31.3876 24.6279 32.7638C25.3999 34.1064 24.7957 35.9693 23.4363 36.6742C22.0601 37.4462 20.1301 36.8588 19.4588 35.4155C18.7203 34.0225 19.3748 32.126 20.8182 31.4883ZM13.6686 33.9386C13.7693 33.0659 14.5917 32.512 15.4141 32.4449C16.3036 32.5456 17.0084 33.2505 17.1091 34.14C17.0588 35.0295 16.3539 35.9022 15.4141 35.9022C14.3903 35.9861 13.4672 34.9624 13.6686 33.9386ZM34.7816 32.6295C35.8557 32.0086 37.3326 32.9148 37.2823 34.14C37.3494 35.4323 35.7215 36.3554 34.6474 35.6001C33.5397 34.9624 33.6404 33.1666 34.7816 32.6295ZM17.9147 37.2113C19.1567 36.8756 20.6 37.463 21.2042 38.6043C21.8755 39.7623 21.607 41.3735 20.5664 42.2126C19.2238 43.4546 16.7567 42.9511 16.0518 41.256C15.2294 39.7119 16.2196 37.6141 17.9147 37.2113ZM31.4586 37.2113C32.667 36.8588 34.0935 37.3288 34.7481 38.4364C35.604 39.6952 35.2012 41.5916 33.9089 42.3972C32.5663 43.3371 30.4852 42.8504 29.7299 41.3735C28.8404 39.8294 29.7467 37.6644 31.4586 37.2113ZM9.87567 38.6546C10.9498 38.2518 12.1582 39.4434 11.7218 40.5007C11.4533 41.4742 10.0771 41.8434 9.37218 41.1217C8.53303 40.4504 8.85191 38.9399 9.87567 38.6546ZM39.1284 40.1987C39.0948 39.3092 39.7494 38.5204 40.6725 38.47C41.4109 38.5875 42.1326 39.1749 42.0654 39.9805C42.1326 41.0378 40.8571 41.7595 39.9508 41.2728C39.5312 41.0546 39.313 40.6182 39.1284 40.1987ZM4.57224 39.1749C5.22678 38.8896 6.03236 39.4602 5.88132 40.1819C5.84775 41.0042 4.63938 41.3063 4.20302 40.635C3.80023 40.1483 4.03519 39.4099 4.57224 39.1749ZM45.506 39.1581C45.9591 38.8392 46.6975 39.0742 46.8822 39.5945C47.1842 40.1819 46.6304 40.9707 45.9759 40.87C45.0528 40.9707 44.7507 39.5609 45.506 39.1581ZM21.4391 43.0685C23.151 42.6322 24.9804 44.042 24.9971 45.8042C25.1146 47.5832 23.3021 49.1608 21.5566 48.7412C20.1972 48.523 19.1399 47.2139 19.1902 45.8545C19.1734 44.5622 20.1636 43.3539 21.4391 43.0685ZM28.2027 43.0685C29.9313 42.5818 31.8278 44.042 31.7943 45.8377C31.8782 47.5832 30.1327 49.1104 28.4209 48.758C26.8097 48.5566 25.6181 46.7776 26.0713 45.2168C26.3062 44.1762 27.1789 43.3203 28.2027 43.0685ZM15.1623 44.1594C16.3539 43.958 17.4951 45.3007 17.0084 46.4251C16.656 47.6335 14.8938 47.9692 14.105 46.979C13.1819 46.0224 13.87 44.2937 15.1623 44.1594ZM34.9998 44.2098C36.0739 43.7566 37.383 44.6797 37.2991 45.8545C37.3494 47.13 35.7215 48.0195 34.6809 47.2643C33.4893 46.593 33.7075 44.6126 34.9998 44.2098ZM40.555 49.765C40.1354 48.9762 40.8906 47.9524 41.7633 48.0867C42.1997 48.0867 42.5018 48.4223 42.7703 48.7076C42.8207 49.1775 42.9214 49.7146 42.5354 50.0838C42.0151 50.7552 40.8235 50.5538 40.555 49.765ZM8.76799 48.3216C9.57357 47.7846 10.7484 48.5901 10.5638 49.53C10.4631 50.3691 9.40574 50.8391 8.71764 50.3691C7.96241 49.9328 7.99597 48.7076 8.76799 48.3216ZM24.7622 50.067C25.8195 49.5971 27.1789 50.5202 27.0782 51.695C27.1621 52.9873 25.4838 53.8768 24.4433 53.1048C23.3021 52.4335 23.4867 50.4866 24.7622 50.067ZM17.3609 51.7957C18.2672 51.3258 19.4755 52.1481 19.3916 53.1551C19.4252 53.9775 18.6028 54.6992 17.7972 54.5649C17.1259 54.5481 16.6728 53.9439 16.4546 53.3565C16.4546 52.7355 16.7231 52.0307 17.3609 51.7957ZM32.3817 51.8125C33.3047 51.2419 34.6306 52.0642 34.5467 53.1383C34.5634 54.2628 33.0698 54.9845 32.2138 54.246C31.3579 53.6754 31.4754 52.2824 32.3817 51.8125ZM34.983 58.2739C34.5634 57.653 35.0501 56.8977 35.7215 56.7467C36.2585 56.8642 36.8291 57.2669 36.7117 57.8879C36.6445 58.7439 35.4026 58.9956 34.983 58.2739ZM14.256 57.7201C14.4239 57.2166 14.8266 56.7299 15.3973 56.8642C16.2532 56.9313 16.5049 58.2068 15.7497 58.6096C15.0952 59.0627 14.3064 58.4418 14.256 57.7201ZM24.2587 58.2907C24.4265 57.5523 25.3664 57.1998 26.0041 57.5858C26.4237 57.7704 26.5412 58.2236 26.6419 58.6264C26.5915 58.8278 26.5412 59.0292 26.4908 59.2473C26.2391 59.5494 25.9034 59.8515 25.4838 59.8515C24.6783 59.9354 23.9566 59.0459 24.2587 58.2907Z" fill="#0033AD"/>
<path fill-rule="evenodd" clip-rule="evenodd" d="M60.1911 36.7077L58.7142 38.6042C58.1772 37.7147 57.2877 37.2951 56.3982 37.2951C53.9646 37.228 53.2598 40.5007 54.7367 41.8098C55.9786 42.9342 57.4723 42.8167 58.7646 41.3398L60.2415 43.0685C59.2345 44.5454 56.3814 44.965 54.8374 44.6125C52.5213 44.0755 51.3968 42.3636 51.3968 40.165C51.3968 37.7315 53.1255 35.3651 55.9115 35.298C57.4555 35.298 59.0499 35.6504 60.2415 36.7749L60.1911 36.7077ZM74.7923 37.2951V40.0811C75.9168 40.0811 77.8804 40.3832 77.9307 38.7217C77.9475 36.9427 75.9839 37.3623 74.7923 37.2951ZM72.4259 35.2812H76.4538C79.2398 35.3483 80.3139 36.9427 80.3643 38.6042C80.4314 39.6783 79.9447 40.8028 78.8203 41.5748L80.7839 44.6629H77.9307C77.6958 44.2433 76.7392 42.1622 76.3364 41.9944C75.8664 41.8098 75.3294 41.8769 74.8595 41.8769V44.6629H72.4259V35.2812ZM82.395 35.3987C84.0565 35.3987 85.7181 35.3315 87.3796 35.5162C88.3865 35.6336 89.3935 35.9861 90.1656 36.6406C90.9376 37.2951 91.4075 38.235 91.525 39.1916C91.6424 40.3161 91.525 41.5077 90.8704 42.5147C90.1655 43.5888 88.9068 44.2937 87.6145 44.4111C85.8859 44.6461 84.174 44.5286 82.395 44.5286V35.3315V35.3987ZM84.946 37.2448V42.6993C85.6509 42.6993 86.3726 42.8167 87.0775 42.5818C87.967 42.3468 88.6215 41.7594 88.8061 40.9203C89.0411 39.8462 88.9236 38.4867 87.967 37.7819C87.0775 37.1105 85.953 37.2448 84.946 37.2448ZM96.0396 35.2812H98.5403L102.451 44.6629H99.5976L99.1277 42.8839H95.1501L94.5627 44.6125L91.8271 44.6797L95.9221 35.298H96.0396V35.2812ZM95.8718 41.0881H98.5403L97.1808 37.9497L95.8718 41.0881ZM103.995 35.2812H105.958L109.869 40.4503L109.936 35.2812H112.252L112.319 44.6629H110.355L106.328 39.5609L106.395 44.6629H104.028L104.095 35.2308L103.995 35.2812ZM119.133 35.2812C121.801 35.2812 124 37.4126 124 40.0308C124 42.6489 121.801 44.7804 119.133 44.7804C116.464 44.7804 114.266 42.6489 114.266 40.0308C114.266 37.4126 116.464 35.2812 119.133 35.2812ZM119.133 37.4798C120.56 37.4798 121.684 38.6042 121.684 39.9804C121.684 41.3398 120.56 42.4811 119.133 42.4811C117.706 42.4811 116.582 41.3566 116.582 39.9804C116.582 38.6042 117.706 37.4798 119.133 37.4798ZM64.6386 35.2812H67.1393L71.0497 44.6629H68.1966L67.7267 42.8839H63.7491L63.1617 44.6125L60.4261 44.6797L64.5211 35.298H64.6386V35.2812ZM64.4708 41.0881H67.1393L65.7799 37.9497L64.4708 41.0881Z" fill="#0033AD"/>
</g>
</g>
</svg>
