<svg width="128" height="80" viewBox="0 0 128 80" fill="none" xmlns="http://www.w3.org/2000/svg">
<g id="logo / payment method / mandiri / black">
<path id="Union" fill-rule="evenodd" clip-rule="evenodd" d="M115.37 26.2086C116.971 25.4091 118.992 24.4252 120.901 26.5981C122.013 27.8708 123.048 29.2091 124 30.6057L113.892 36.4377C113.265 36.807 112.564 37.0345 111.84 37.1039C110.526 37.1141 109.298 36.4579 108.577 35.3615C108.426 35.1591 108.289 34.9468 108.166 34.726C106.576 32.1021 102.83 28.0023 95.2878 32.1021L86.8219 36.9194C86.1688 37.3564 85.4106 37.6112 84.6259 37.6574C83.1911 37.6723 81.8527 36.9378 81.0959 35.7202L80.9111 35.4128V35.3308C80.8878 35.2981 80.8666 35.2612 80.8446 35.223C80.8183 35.1772 80.7908 35.1295 80.7572 35.0848C79.1359 32.4814 75.4622 28.566 68.0122 32.6659L59.259 37.7189C57.113 38.7635 54.5316 38.2284 52.9789 36.4172L50.4032 33.2603L55.3904 30.4109L65.1287 24.8454C69.9722 22.5905 72.8763 23.8307 74.7028 25.6654C74.7407 25.7046 74.7778 25.7426 74.8143 25.7801C75.0448 26.0166 75.251 26.2283 75.4725 26.5468C75.729 26.9158 75.9548 27.2438 76.16 27.5718L76.6731 28.3303L76.7654 28.484L76.8475 28.6173C78.2153 30.3166 80.5744 30.8516 82.5428 29.9087C82.5428 29.9087 90.0851 25.6039 92.394 24.2612C97.2888 21.9243 100.213 23.2157 102.04 25.0606C102.313 25.3362 102.57 25.627 102.81 25.9319C103.186 26.4417 103.529 26.9759 103.836 27.5308L104.031 27.8588C104.088 27.9681 104.157 28.0712 104.236 28.1663C105.641 29.7295 107.908 30.184 109.808 29.2835C109.808 29.2835 114.693 26.5366 115.37 26.2086ZM40.8497 48.5016C40.8497 45.2217 39.4541 42.1468 34.6106 42.1468C32.7091 42.1094 30.8308 42.5687 29.1616 43.4793L29.9107 45.9597C31.1378 45.2326 32.5374 44.8469 33.9641 44.8425C36.6424 44.8425 37.0426 46.4516 37.0426 47.4766V47.8046C31.4602 47.7738 28.0841 49.6905 28.0841 53.5034C28.0821 54.7398 28.5907 55.9223 29.49 56.772C30.3892 57.6217 31.5995 58.0633 32.8353 57.9927C34.5563 58.029 36.1984 57.2731 37.2889 55.9428H37.3812L37.6275 57.6135H41.0754C40.9136 56.411 40.8415 55.1982 40.8599 53.9851L40.8497 48.5016ZM73.6768 53.3701V36.4788H69.8697V44.1762H69.8081C68.8319 42.8238 67.225 42.0716 65.5598 42.1878C61.8861 42.1878 58.8076 45.2012 58.8076 50.244C58.8076 54.8768 61.6603 57.9517 65.2519 57.9517C67.2743 58.0311 69.1729 56.9802 70.1775 55.2253H70.2391L70.393 57.6135H73.7999C73.7383 56.5885 73.6768 54.9178 73.6768 53.3701ZM26.3807 48.7271C26.3807 43.8995 23.8358 42.1878 21.332 42.1878C20.2349 42.1461 19.1542 42.4628 18.2535 43.0898C17.4933 43.5624 16.8567 44.2088 16.3961 44.9757H16.3345C15.6705 43.2549 13.9935 42.1382 12.1478 42.1878L11.9003 42.1868C10.0913 42.222 8.4216 43.1921 7.49923 44.7605H7.40688L7.28374 42.5363H4C4.12314 43.838 4.12314 45.2934 4.12314 47.0256V57.634H7.83787V48.7168C7.82912 48.2934 7.90229 47.8723 8.05336 47.4766C8.39406 46.2354 9.49584 45.3541 10.783 45.2934C12.548 45.2934 13.3894 46.7796 13.3894 48.8808V57.6545H17.1042V48.6143C17.1151 48.1848 17.1771 47.7582 17.2889 47.3434C17.6506 46.1624 18.7213 45.3398 19.9569 45.2934C21.7835 45.2934 22.6557 46.7796 22.6557 49.2805V57.6135H26.3807V48.7271ZM57.1555 48.6656C57.1555 43.8995 54.4259 42.1878 51.7989 42.1878C49.8435 42.1311 48.0088 43.1296 46.9964 44.8015H46.8938L46.7091 42.5363H43.3638C43.4869 43.838 43.4869 45.2934 43.4869 47.0256V57.5725H47.335V48.7168C47.3195 48.2978 47.3715 47.8791 47.489 47.4766C47.916 46.1914 49.1093 45.3159 50.4649 45.2934C52.5377 45.2934 53.3484 46.9334 53.3484 49.096V57.6135H57.1555V48.6656ZM80.2648 57.6135V42.5363H76.3756V57.6135H80.2648ZM91.3474 45.8777V42.5363C91.0506 42.5055 90.7514 42.5055 90.4546 42.5363C88.5979 42.469 86.9221 43.6407 86.3499 45.4062H86.2268L86.1036 42.5363H82.7891C82.8947 43.7047 82.9098 44.9334 82.9119 46.5516L82.9123 57.6135H86.7091V49.8135C86.7142 49.4177 86.7554 49.0232 86.8322 48.6348C87.0713 46.9502 88.5362 45.7118 90.2391 45.7547C90.6118 45.7564 90.9833 45.7976 91.3474 45.8777ZM96.981 57.6135V42.5363H93.1432V57.6135H96.981ZM32.5061 54.6363C32.088 54.2226 31.8678 53.6495 31.9015 53.0627C31.9015 50.7667 34.4669 50.1825 37.1657 50.244L37.1863 52.3349C37.1878 52.6197 37.1463 52.903 37.0631 53.1754C36.6195 54.4297 35.4187 55.2569 34.0872 55.2253C33.5 55.2645 32.9242 55.05 32.5061 54.6363ZM62.6762 50.0493C62.6762 47.2306 64.041 45.0679 66.4936 45.0679C68.0907 45.0622 69.4677 46.1883 69.7773 47.7533C69.8404 48.0913 69.8714 48.4345 69.8697 48.7783V51.0025C69.8778 51.3787 69.8364 51.7543 69.7465 52.1197C69.4303 53.6822 68.0588 54.8081 66.4628 54.8153C64.041 54.8153 62.6762 52.8679 62.6762 50.0493Z" fill="black"/>
</g>
</svg>
