<svg width="128" height="80" viewBox="0 0 128 80" fill="none" xmlns="http://www.w3.org/2000/svg">
<g id="logo / payment method / deriv demo / black">
<g id="logo">
<g id="logo_2">
<path d="M16.4722 30.3468L15.4292 36.2615H11.8088C8.43127 36.2615 5.21191 38.998 4.61522 42.3755L4.36266 43.8131C3.76875 47.1907 6.0223 49.9272 9.39986 49.9272H12.4194C14.8811 49.9272 17.2263 47.9345 17.6592 45.4728L20.4401 29.709L16.4722 30.3468ZM13.9033 44.915C13.7701 45.6754 13.0855 46.2944 12.3251 46.2944H10.4906C8.97247 46.2944 7.95671 45.062 8.22312 43.5412L8.38133 42.6447C8.65052 41.1266 10.0992 39.8916 11.6173 39.8916H14.7891L13.9033 44.915ZM44.3539 49.9269L46.7295 36.4499H50.4873L48.1116 49.9269H44.351H44.3539ZM44.7603 36.6053C44.572 37.6743 44.3828 38.7433 44.1944 39.8123C42.4142 39.259 40.5774 39.4352 40.0131 39.5477C39.4037 43.0083 38.7935 46.4697 38.1832 49.9303H34.423C34.9336 47.0347 36.6781 37.1461 36.6781 37.1461C37.9011 36.6396 40.9045 35.6118 44.7603 36.6053ZM29.5243 36.2592H26.5991C23.7489 36.2592 21.032 38.5683 20.5296 41.4185L19.9385 44.7683C19.4361 47.6186 21.3372 49.9277 24.1875 49.9277H30.4097L31.0481 46.3059H25.2004C24.2513 46.3059 23.6157 45.5371 23.785 44.5852L23.8045 44.4714H33.2322L33.7706 41.4185C34.2729 38.5683 32.3718 36.2592 29.5216 36.2592H29.5243ZM29.9989 41.1299L29.9767 41.3242H24.3707L24.4012 41.1521C24.5704 40.2029 25.4364 39.3676 26.3882 39.3676H28.5779C29.5188 39.3676 30.1544 40.1891 29.9989 41.1299ZM65.1492 36.4499C63.8682 39.8557 60.9325 45.6492 58.0887 49.9269H54.3283C53.0229 45.8555 52.18 40.1828 52.0192 36.4499H55.7798C55.8476 37.6676 56.3927 42.184 57.0148 45.3392C58.721 42.2697 60.6021 38.2424 61.3858 36.4499H65.1492Z" fill="#414652"/>
<path d="M75.6749 47.2568C75.6994 47.6547 75.7586 48.0563 75.8529 48.462C75.9466 48.8685 76.0946 49.3045 76.2961 49.7709L74.1901 50.0822C73.9762 49.7021 73.8015 49.2442 73.665 48.7083C73.3058 49.0541 72.8173 49.3995 72.1995 49.7453C71.5814 50.0908 70.8059 50.2635 69.8728 50.2635C69.1123 50.2635 68.4486 50.147 67.8816 49.9136C67.3141 49.6803 66.836 49.3478 66.4464 48.9158C66.0572 48.4842 65.7574 47.9698 65.5483 47.3736C65.3386 46.7775 65.2122 46.1255 65.1686 45.4169C65.0974 44.2593 65.2221 43.1273 65.543 42.0215C65.8635 40.9157 66.3819 39.9309 67.0976 39.0666C67.813 38.203 68.7338 37.5077 69.8592 36.9804C70.9842 36.4534 72.3157 36.1897 73.8537 36.1897C74.0437 36.1897 74.2343 36.1986 74.4255 36.2156C74.6167 36.233 74.817 36.2592 75.0265 36.2933L76.1047 30.2285L78.5934 29.8139L75.8717 44.9761C75.8093 45.3736 75.7551 45.7538 75.7085 46.1166C75.6616 46.4794 75.6506 46.8596 75.6749 47.2568ZM70.2393 48.2161C70.9651 48.2161 71.5734 48.0648 72.0646 47.7623C72.5555 47.4602 72.9789 47.1103 73.3347 46.7128C73.3347 46.4365 73.3468 46.1384 73.3705 45.8185C73.3937 45.499 73.437 45.1491 73.5003 44.7689L74.6569 38.2892C74.4991 38.2548 74.3249 38.2334 74.1345 38.2245C73.9435 38.216 73.7619 38.2116 73.5892 38.2116C72.6044 38.2116 71.726 38.4016 70.9547 38.7818C70.1833 39.162 69.5364 39.672 69.0143 40.311C68.4921 40.9501 68.1053 41.689 67.8547 42.5267C67.6038 43.3651 67.5067 44.2419 67.5629 45.1576C67.5875 45.5552 67.6537 45.935 67.7627 46.2978C67.8714 46.661 68.0293 46.9846 68.2373 47.2697C68.4447 47.5549 68.7135 47.7841 69.0441 47.9568C69.3744 48.1299 69.7728 48.2161 70.2393 48.2161Z" fill="#414652"/>
<path d="M84.076 50.2635C83.1949 50.2635 82.4265 50.1378 81.7722 49.8877C81.1173 49.6373 80.5602 49.2916 80.1013 48.8511C79.6423 48.4103 79.291 47.8966 79.0475 47.3089C78.8041 46.7216 78.662 46.0996 78.6216 45.4424C78.5472 44.2334 78.6571 43.067 78.9507 41.9435C79.2445 40.8207 79.7017 39.8273 80.3226 38.963C80.9433 38.0991 81.7215 37.4124 82.658 36.9024C83.5941 36.3931 84.6755 36.1379 85.9026 36.1379C86.611 36.1379 87.2254 36.2286 87.7466 36.4101C88.2671 36.5914 88.6969 36.8377 89.0362 37.1487C89.3748 37.4597 89.6345 37.8184 89.8149 38.2245C89.9955 38.6306 90.099 39.0499 90.1256 39.4815C90.1757 40.294 90.0709 40.9808 89.8117 41.5419C89.5523 42.1036 89.1924 42.5744 88.7323 42.9546C88.2717 43.3348 87.7241 43.6284 87.089 43.8355C86.4538 44.043 85.7898 44.2075 85.0976 44.3281C84.4052 44.4494 83.7016 44.5315 82.9874 44.5744C82.2729 44.6177 81.5968 44.6565 80.9601 44.6909C80.9511 44.8296 80.9494 44.9417 80.9547 45.0278C80.9601 45.1147 80.9644 45.1835 80.9674 45.2353C80.992 45.6329 81.0627 46.0089 81.1795 46.3629C81.296 46.7172 81.4926 47.0282 81.7682 47.296C82.0438 47.5641 82.4152 47.7753 82.8828 47.931C83.35 48.0863 83.9554 48.164 84.6985 48.164C85.0266 48.164 85.3661 48.1343 85.7166 48.0734C86.067 48.0131 86.3991 47.9354 86.7132 47.84C87.027 47.7453 87.3061 47.6503 87.5509 47.5549C87.7955 47.4602 87.9672 47.3695 88.0656 47.283L88.3988 49.3304C88.0646 49.5208 87.5199 49.7239 86.7645 49.9395C86.0087 50.1555 85.1128 50.2635 84.076 50.2635ZM81.1579 42.8507C82.1577 42.8166 83.0697 42.7515 83.8932 42.6565C84.7168 42.5618 85.4235 42.3973 86.0142 42.1639C86.6044 41.9309 87.0559 41.6158 87.3685 41.2179C87.681 40.8207 87.8176 40.3025 87.7783 39.6628C87.7686 39.5071 87.728 39.3432 87.6572 39.1705C87.586 38.9978 87.4724 38.838 87.3167 38.6909C87.1607 38.5444 86.9503 38.4234 86.6853 38.3281C86.4202 38.2334 86.0973 38.1853 85.7174 38.1853C85.1124 38.1853 84.5548 38.3151 84.044 38.5744C83.5324 38.8336 83.0828 39.1749 82.6943 39.598C82.3056 40.0218 81.9816 40.5141 81.7225 41.0755C81.4631 41.6372 81.2751 42.2286 81.1579 42.8507Z" fill="#414652"/>
<path d="M105.679 36.1638C106.44 36.1638 107.09 36.2803 107.632 36.5137C108.173 36.747 108.616 37.0625 108.96 37.4597C109.304 37.8576 109.561 38.3195 109.732 38.8465C109.903 39.3735 110.006 39.9309 110.042 40.5182C110.066 40.8983 110.061 41.3085 110.027 41.7493C109.994 42.1898 109.938 42.6177 109.86 43.0322L108.626 49.9266H106.215L107.352 43.5507C107.414 43.1532 107.486 42.7083 107.568 42.2157C107.65 41.7234 107.676 41.2353 107.646 40.7515C107.626 40.4235 107.568 40.1036 107.471 39.7922C107.374 39.4815 107.228 39.2138 107.032 38.9889C106.837 38.7648 106.571 38.5832 106.234 38.4446C105.898 38.3066 105.487 38.2374 105.003 38.2374C104.45 38.2374 103.922 38.3454 103.417 38.5614C102.911 38.7777 102.493 38.9978 102.161 39.2223C102.211 39.4645 102.256 39.7016 102.296 39.935C102.336 40.1683 102.363 40.3976 102.377 40.6217C102.402 41.0196 102.396 41.4213 102.36 41.827C102.325 42.2331 102.276 42.635 102.214 43.0322L100.98 49.9266H98.5692L99.7062 43.5507C99.7679 43.1532 99.8355 42.7042 99.9082 42.2027C99.9811 41.702 100.002 41.2009 99.9712 40.6994C99.9511 40.3717 99.897 40.0559 99.8096 39.7537C99.7215 39.4516 99.5888 39.1879 99.411 38.963C99.2327 38.7386 99.0015 38.5614 98.7173 38.4316C98.4328 38.3022 98.0744 38.2374 97.6428 38.2374C97.2107 38.2374 96.793 38.2633 96.3905 38.3151C95.9875 38.3669 95.6505 38.436 95.3795 38.5222L93.3338 49.9266H90.9233L93.2362 36.9675C93.9989 36.7256 94.8378 36.5311 95.7533 36.3842C96.6685 36.2374 97.4893 36.1638 98.215 36.1638C98.9407 36.1638 99.5614 36.2892 100.078 36.5396C100.595 36.7903 101.012 37.1228 101.332 37.5374C101.497 37.4168 101.726 37.2781 102.019 37.1228C102.312 36.9675 102.648 36.8206 103.029 36.6823C103.409 36.544 103.825 36.4231 104.276 36.3195C104.728 36.2156 105.195 36.1638 105.679 36.1638Z" fill="#414652"/>
<path d="M116.784 50.2635C115.367 50.2635 114.231 49.8448 113.376 49.0064C112.522 48.1684 112.049 47.0153 111.958 45.5463C111.897 44.5444 111.974 43.4901 112.192 42.3843C112.409 41.2789 112.8 40.2589 113.364 39.3259C113.929 38.3928 114.685 37.6243 115.633 37.0192C116.58 36.4146 117.754 36.1121 119.154 36.1121C120.57 36.1121 121.706 36.5311 122.561 37.3691C123.416 38.2075 123.889 39.3606 123.98 40.8292C124.041 41.8314 123.963 42.8858 123.746 43.9912C123.529 45.0973 123.138 46.1166 122.574 47.0497C122.009 47.9827 121.253 48.752 120.305 49.3563C119.358 49.961 118.184 50.2635 116.784 50.2635ZM117.073 48.2161C117.851 48.2161 118.532 47.9916 119.118 47.5419C119.704 47.0929 120.187 46.5182 120.567 45.8185C120.947 45.1188 121.224 44.3455 121.396 43.4986C121.568 42.6524 121.631 41.8314 121.582 41.0363C121.528 40.1554 121.294 39.4556 120.883 38.9372C120.47 38.4187 119.798 38.1594 118.865 38.1594C118.087 38.1594 117.405 38.3843 116.82 38.8336C116.234 39.2829 115.751 39.8573 115.371 40.557C114.99 41.2567 114.714 42.0304 114.541 42.8766C114.369 43.7235 114.307 44.5444 114.356 45.3392C114.41 46.2202 114.643 46.9199 115.055 47.4384C115.467 47.9568 116.14 48.2161 117.073 48.2161Z" fill="#414652"/>
</g>
</g>
</g>
</svg>
