<svg width="128" height="80" viewBox="0 0 128 80" fill="none" xmlns="http://www.w3.org/2000/svg">
<g id="logo / payment method / nganluong / brand">
<g id="logo">
<g id="black" opacity="0.997">
<path d="M14.3099 46.5927L14.1172 46.5071C10.9062 44.0453 9.07594 41.6692 9.03313 37.4627C8.99031 36.4256 9.09521 35.3873 9.34352 34.3801C6.53817 35.9824 4.86416 39.019 5.00865 42.2471C5.00544 44.6704 5.96661 46.9952 7.67915 48.7098C9.39169 50.4245 11.7154 51.3878 14.1386 51.3878C17.5509 51.3771 20.6998 49.5501 22.4017 46.5927H14.3099Z" fill="#0C0E0F"/>
<path d="M23.9752 32.8708C20.4784 32.9351 17.2835 34.8617 15.5945 37.9228H18.9232C20.882 37.8479 22.9691 37.9228 23.5792 37.9228H23.7719C27.1113 39.7478 29.1696 43.2681 29.1236 47.0742C29.1129 48.181 28.8763 49.2738 28.4278 50.2853C31.367 48.6637 33.1908 45.5715 33.1908 42.2149C33.1855 37.1062 29.0829 32.9468 23.9752 32.8708Z" fill="#0C0E0F"/>
</g>
<g id="orange" opacity="0.997">
<path d="M23.3541 38.8749V42.3214C23.4076 44.0446 23.3541 45.8321 23.3541 46.6027V46.9666C21.5613 50.2911 18.0763 52.3504 14.299 52.3183C13.1934 52.3076 12.1016 52.0743 11.088 51.6333C13.1002 55.2831 17.3292 57.107 21.3654 56.0656C25.4006 55.0241 28.2188 51.3807 28.2134 47.2128C28.2241 43.7588 26.3639 40.5692 23.3541 38.8749Z" fill="#E87700"/>
<path d="M19.0406 28C13.9458 28 9.81433 32.1315 9.81433 37.2263C9.82718 40.6996 11.6981 43.8999 14.7165 45.6178V42.1499C14.663 40.3624 14.7165 38.5 14.7165 37.7615V37.4297C16.5435 34.0913 20.0628 32.0341 23.8679 32.078C24.9746 32.0919 26.0664 32.3285 27.0789 32.7737C25.4627 29.8442 22.3865 28.0182 19.0406 28Z" fill="#E87700"/>
</g>
</g>
<path id="wordmark" opacity="0.997" d="M53.8342 41.2899C54.5406 41.2899 55.1571 41.4644 55.6837 41.8122C55.9695 42.0081 56.2617 42.2939 56.5582 42.6685V41.5339H57.9539V49.7242L57.9496 50.0603C57.9186 51.046 57.7527 51.837 57.4498 52.4321C56.8215 53.6545 55.6366 54.2656 53.893 54.2656C52.9233 54.2656 52.1077 54.0483 51.4462 53.6138C50.7848 53.1792 50.4144 52.5006 50.3363 51.5748H51.8744L51.9172 51.7685C51.9985 52.0789 52.1302 52.3251 52.3121 52.5081C52.6547 52.8442 53.192 53.0123 53.9262 53.0123C55.0865 53.0123 55.8464 52.6034 56.206 51.7846C56.418 51.3029 56.5164 50.4424 56.4993 49.2029C56.1964 49.6632 55.8325 50.0057 55.4065 50.2294C54.9805 50.4541 54.4175 50.5655 53.7154 50.5655C52.7414 50.5655 51.8872 50.2197 51.1562 49.5272C50.4241 48.8347 50.058 47.6895 50.058 46.0914C50.058 44.5844 50.4273 43.407 51.1637 42.5593C51.9022 41.7138 52.7906 41.2899 53.8342 41.2899ZM120.88 41.2899C121.587 41.2899 122.202 41.4644 122.73 41.8122C123.015 42.0081 123.308 42.2939 123.604 42.6685V41.5339H125V49.7242L124.995 50.0603C124.965 51.046 124.798 51.837 124.495 52.4321C123.867 53.6545 122.682 54.2656 120.938 54.2656C119.968 54.2656 119.153 54.0483 118.491 53.6138C117.83 53.1792 117.459 52.5006 117.381 51.5748H118.92L118.963 51.7685C119.043 52.0789 119.175 52.3251 119.357 52.5081C119.7 52.8442 120.238 53.0123 120.972 53.0123C122.132 53.0123 122.892 52.6034 123.251 51.7846C123.464 51.3029 123.561 50.4424 123.545 49.2029C123.242 49.6632 122.877 50.0057 122.451 50.2294C122.025 50.4541 121.462 50.5655 120.761 50.5655C119.786 50.5655 118.932 50.2197 118.201 49.5272C117.469 48.8347 117.104 47.6895 117.104 46.0914C117.104 44.5844 117.472 43.407 118.21 42.5593C118.947 41.7138 119.837 41.2899 120.879 41.2899H120.88ZM102.177 41.1893C103.338 41.1893 104.319 41.5768 105.12 42.3495C105.923 43.1234 106.324 44.2612 106.324 45.7639C106.324 47.2164 105.97 48.4162 105.264 49.3635C104.558 50.3107 103.461 50.7838 101.976 50.7838C100.736 50.7838 99.7528 50.3653 99.0238 49.5272C98.296 48.6892 97.931 47.5632 97.931 46.1514C97.931 44.6369 98.3153 43.4327 99.0827 42.5347C99.8512 41.6378 100.883 41.1893 102.177 41.1893ZM63.7648 41.2321C64.8244 41.2321 65.6849 41.4333 66.3464 41.8369C67.0025 42.2404 67.3311 42.8687 67.3311 43.7207V48.9086C67.3311 49.0659 67.3632 49.1922 67.4275 49.2875C67.4917 49.3827 67.6276 49.4309 67.8342 49.4309C67.9027 49.4309 67.9776 49.4266 68.0622 49.4181C68.1457 49.4095 68.2356 49.3967 68.3308 49.3795V50.4991C68.0954 50.5665 67.9166 50.6083 67.7924 50.6254C67.6694 50.6425 67.5013 50.6511 67.2894 50.6511C66.7671 50.6511 66.3882 50.4659 66.1527 50.0956C66.0296 49.8997 65.9429 49.6225 65.8926 49.2629C65.5843 49.6664 65.1412 50.0175 64.5643 50.3139C63.9863 50.6115 63.3505 50.7603 62.6548 50.7603C61.82 50.7603 61.1371 50.5066 60.6073 49.9993C60.0774 49.4919 59.8131 48.8572 59.8131 48.0941C59.8131 47.2592 60.0732 46.6116 60.5944 46.1514C61.1157 45.6922 61.7996 45.4096 62.6463 45.3026L65.0599 44.9997C65.4077 44.9548 65.64 44.8092 65.7577 44.563C65.8252 44.4281 65.8594 44.2344 65.8594 43.9829C65.8594 43.467 65.6753 43.0924 65.3082 42.859C64.9411 42.6268 64.4155 42.5112 63.7316 42.5112C62.9406 42.5112 62.3808 42.7242 62.0501 43.1502C61.8649 43.3856 61.744 43.7356 61.6883 44.2012H60.2755C60.3033 43.0913 60.664 42.3185 61.3565 41.8839C62.0479 41.4494 62.8518 41.2321 63.7648 41.2321ZM90.4804 41.4505V47.4294L90.4868 47.652C90.5072 48.0116 90.5778 48.3124 90.6988 48.5554C90.9685 49.0938 91.4694 49.3635 92.2047 49.3635C93.2579 49.3635 93.9761 48.8925 94.3572 47.9506C94.5648 47.4454 94.6676 46.754 94.6676 45.8742V41.4505H96.1821V50.4563H94.7521L94.7693 49.128L94.6462 49.326C94.4738 49.5829 94.2715 49.8055 94.0371 49.9939C93.4602 50.4649 92.7592 50.7003 91.935 50.7003C90.6506 50.7003 89.7772 50.2722 89.3127 49.4138C89.059 48.9535 88.9338 48.3402 88.9338 47.5728V41.4505H90.4804ZM40.075 38.1035L46.315 48.1112V38.1035H47.9034V50.4563H46.0282L39.6961 40.4583V50.4563H38.0991V38.1035H40.075ZM74.192 41.2482C75.47 41.2482 76.3337 41.6945 76.7822 42.5861C77.0284 43.0731 77.1526 43.771 77.1526 44.6797V50.4563H75.6134V44.7803L75.6081 44.5512C75.5888 44.106 75.5085 43.7399 75.3694 43.452C75.1007 42.8911 74.6126 42.6107 73.9062 42.6107C73.5477 42.6107 73.2533 42.6471 73.0232 42.7199C72.609 42.843 72.244 43.0902 71.9304 43.4595C71.6778 43.757 71.514 44.0642 71.438 44.38C71.3631 44.6979 71.3246 45.1506 71.3246 45.7393V50.4563H69.8111V41.4505H71.2486V42.7284L71.4337 42.5112C71.8041 42.0959 72.1937 41.7898 72.6026 41.5928C73.0799 41.3638 73.6087 41.2482 74.192 41.2482ZM81.2648 38.1035V48.9846H87.5209V50.4563H79.5897V38.1035H81.2637H81.2648ZM112.504 41.2482C113.782 41.2482 114.645 41.6945 115.094 42.5861C115.34 43.0731 115.464 43.771 115.464 44.6797V50.4563H113.925V44.7803L113.92 44.5512C113.9 44.106 113.82 43.7399 113.681 43.452C113.412 42.8911 112.924 42.6107 112.218 42.6107C111.859 42.6107 111.565 42.6471 111.335 42.7199C110.921 42.843 110.556 43.0902 110.242 43.4595C109.989 43.757 109.825 44.0642 109.75 44.38C109.675 44.6979 109.636 45.1506 109.636 45.7393V50.4563H108.123V41.4505H109.56V42.7284L109.744 42.5112C110.116 42.0959 110.506 41.7898 110.914 41.5928C111.392 41.3638 111.92 41.2482 112.504 41.2482ZM102.135 42.5101C101.211 42.5101 100.537 42.8633 100.118 43.5697C99.6971 44.2762 99.4862 45.1281 99.4862 46.1257C99.4862 47.0847 99.6971 47.8832 100.118 48.5222C100.537 49.1612 101.205 49.4812 102.119 49.4812C103.122 49.4812 103.81 49.1012 104.183 48.3413C104.556 47.5814 104.743 46.7358 104.743 45.8057C104.743 44.9655 104.608 44.2815 104.339 43.7538C103.913 42.9243 103.178 42.5101 102.135 42.5101ZM65.8166 45.8731L65.6678 45.9587C65.5094 46.039 65.321 46.1086 65.1016 46.1674C64.8105 46.2466 64.5236 46.3023 64.2453 46.3355L63.3281 46.4532L63.1012 46.4875C62.6634 46.5603 62.3273 46.6641 62.0918 46.7979C61.6262 47.0623 61.394 47.4829 61.394 48.0598C61.394 48.4965 61.5534 48.8411 61.8735 49.0937C62.1924 49.3463 62.5713 49.4727 63.008 49.4727C63.5411 49.4727 64.057 49.3496 64.5557 49.1023C65.396 48.6934 65.8166 48.0234 65.8166 47.0922V45.8731ZM54.1114 42.6278C53.0464 42.6278 52.3175 43.1266 51.9247 44.1242C51.7181 44.6572 51.6143 45.3551 51.6143 46.2178C51.6143 47.2324 51.8198 48.0052 52.2319 48.535C52.6439 49.0648 53.1973 49.3292 53.893 49.3292C54.9805 49.3292 55.7447 48.839 56.1889 47.8575C56.4351 47.3031 56.5582 46.6555 56.5582 45.9159C56.5582 44.7995 56.3291 43.9732 55.8689 43.4349C55.4086 42.8965 54.8232 42.6278 54.1114 42.6278ZM121.157 42.6278C120.091 42.6278 119.362 43.1266 118.971 44.1242C118.763 44.6572 118.66 45.3551 118.66 46.2178C118.66 47.2324 118.866 48.0052 119.278 48.535C119.69 49.0648 120.243 49.3292 120.938 49.3292C122.025 49.3292 122.791 48.839 123.234 47.8575C123.48 47.3031 123.604 46.6555 123.604 45.9159C123.604 44.7995 123.374 43.9732 122.914 43.4349C122.455 42.8965 121.869 42.6278 121.156 42.6278H121.157Z" fill="black"/>
</g>
</svg>
