<svg width="72" height="59" viewBox="0 0 72 59" fill="none" xmlns="http://www.w3.org/2000/svg">
<g id="logo / deriv product / deriv bot / brand-light / wordmark vertical">
<g id="wordmark">
<path fill-rule="evenodd" clip-rule="evenodd" d="M11.4983 0.665741L10.6122 5.69119H7.53616C4.66646 5.69119 1.93117 8.01625 1.4242 10.886L1.20961 12.1075C0.705006 14.9773 2.6197 17.3024 5.48941 17.3024H8.05492C10.1465 17.3024 12.139 15.6092 12.5069 13.5177L14.8696 0.123779L11.4983 0.665741ZM9.3157 13.0437C9.20251 13.6898 8.62084 14.2157 7.97475 14.2157H6.41611C5.12627 14.2157 4.26325 13.1686 4.4896 11.8764L4.62402 11.1148C4.85274 9.82488 6.08362 8.77554 7.37345 8.77554H10.0683L9.3157 13.0437Z" fill="#FF444F"/>
<path d="M35.1885 17.3034H38.3812L40.3996 5.85258H37.2069L35.1885 17.3034Z" fill="#FF444F"/>
<path d="M35.2939 7.34483L35.2943 7.34227C35.3743 6.8895 35.4542 6.43673 35.534 5.98397C32.2579 5.13981 29.7062 6.01312 28.6671 6.44343C28.6671 6.44343 27.1849 14.8454 26.751 17.3056H29.9458C30.4643 14.3653 30.9828 11.4243 31.5006 8.484C31.98 8.38839 33.5406 8.2387 35.0532 8.70875C35.1333 8.25411 35.2136 7.79947 35.2939 7.34483Z" fill="#FF444F"/>
<path fill-rule="evenodd" clip-rule="evenodd" d="M22.5844 5.68999H20.1014C17.6797 5.68999 15.3713 7.6519 14.9444 10.0736L14.4422 12.9198C14.0154 15.3415 15.6307 17.3035 18.0523 17.3035H23.339L23.8813 14.2262H18.9129C18.1065 14.2262 17.5665 13.573 17.7104 12.7642L17.7269 12.6675H25.7371L26.1945 10.0736C26.6212 7.6519 25.006 5.68999 22.5844 5.68999ZM22.9899 9.8284L22.9711 9.99346H18.208L18.2339 9.84726C18.3777 9.0408 19.1134 8.33103 19.9221 8.33103H21.7826C22.582 8.33103 23.1221 9.02902 22.9899 9.8284Z" fill="#FF444F"/>
<path d="M45.9476 13.4054C47.3973 10.7974 48.9955 7.37554 49.6614 5.85258H52.8589C51.7705 8.74632 49.2762 13.6688 46.8601 17.3034H43.665C42.556 13.8441 41.8398 9.02421 41.7031 5.85258H44.8983C44.9559 6.88716 45.4191 10.7246 45.9476 13.4054Z" fill="#FF444F"/>
<path d="M10.9148 58.6399C9.11926 58.6399 7.32376 58.5769 5.52825 58.4509C3.76425 58.3564 1.9215 58.1044 0 57.6949V25.9429C1.512 25.6594 3.16575 25.4546 4.96125 25.3286C6.75676 25.1711 8.42626 25.0924 9.96976 25.0924C12.0488 25.0924 13.9545 25.2499 15.687 25.5649C17.451 25.8484 18.963 26.3524 20.223 27.0769C21.483 27.8014 22.4595 28.7621 23.1525 29.9591C23.877 31.1246 24.2393 32.5736 24.2393 34.3061C24.2393 36.9206 22.9793 38.9839 20.4593 40.4959C22.5383 41.2834 23.9558 42.3544 24.7118 43.7089C25.4678 45.0634 25.8458 46.5912 25.8458 48.2922C25.8458 51.7257 24.5858 54.3087 22.0658 56.0412C19.5773 57.7737 15.8603 58.6399 10.9148 58.6399ZM7.18201 43.9451V52.4029C7.71751 52.4659 8.30026 52.5132 8.93026 52.5447C9.56026 52.5762 10.2533 52.5919 11.0093 52.5919C13.2143 52.5919 14.994 52.2769 16.3485 51.6469C17.703 51.0169 18.3803 49.8514 18.3803 48.1504C18.3803 46.6384 17.8133 45.5674 16.6793 44.9374C15.5453 44.2759 13.923 43.9451 11.8125 43.9451H7.18201ZM7.18201 38.3224H10.773C13.041 38.3224 14.6633 38.0389 15.6398 37.4719C16.6163 36.8734 17.1045 35.9284 17.1045 34.6369C17.1045 33.3139 16.6005 32.3846 15.5925 31.8491C14.5845 31.3136 13.104 31.0459 11.151 31.0459C10.521 31.0459 9.84376 31.0616 9.11926 31.0931C8.39476 31.0931 7.74901 31.1246 7.18201 31.1876V38.3224Z" fill="#414652"/>
<path d="M52.1581 45.7407C52.1581 47.6937 51.8746 49.4892 51.3076 51.1272C50.7406 52.7337 49.9216 54.1197 48.8506 55.2852C47.7796 56.4192 46.4881 57.3012 44.9761 57.9312C43.4956 58.5612 41.8261 58.8762 39.9676 58.8762C38.1406 58.8762 36.4711 58.5612 34.9591 57.9312C33.4786 57.3012 32.2029 56.4192 31.1319 55.2852C30.0609 54.1197 29.2261 52.7337 28.6276 51.1272C28.0291 49.4892 27.7299 47.6937 27.7299 45.7407C27.7299 43.7876 28.0291 42.0079 28.6276 40.4014C29.2576 38.7949 30.1081 37.4246 31.1791 36.2906C32.2816 35.1566 33.5731 34.2746 35.0536 33.6446C36.5656 33.0146 38.2036 32.6996 39.9676 32.6996C41.7631 32.6996 43.4011 33.0146 44.8816 33.6446C46.3936 34.2746 47.6851 35.1566 48.7561 36.2906C49.8271 37.4246 50.6619 38.7949 51.2604 40.4014C51.8589 42.0079 52.1581 43.7876 52.1581 45.7407ZM44.9761 45.7407C44.9761 43.5671 44.5351 41.8661 43.6531 40.6376C42.8026 39.3776 41.5741 38.7476 39.9676 38.7476C38.3611 38.7476 37.1169 39.3776 36.2349 40.6376C35.3529 41.8661 34.9119 43.5671 34.9119 45.7407C34.9119 47.9142 35.3529 49.6467 36.2349 50.9382C37.1169 52.1982 38.3611 52.8282 39.9676 52.8282C41.5741 52.8282 42.8026 52.1982 43.6531 50.9382C44.5351 49.6467 44.9761 47.9142 44.9761 45.7407Z" fill="#414652"/>
<path d="M55.0131 27.1714L62.0533 26.0374V33.3611H70.5111V39.2201H62.0533V47.9614C62.0533 49.4419 62.3053 50.6232 62.8093 51.5052C63.3448 52.3872 64.4001 52.8282 65.9751 52.8282C66.7311 52.8282 67.5028 52.7652 68.2903 52.6392C69.1093 52.4817 69.8496 52.2769 70.5111 52.0249L71.5033 57.5059C70.6528 57.8524 69.7078 58.1517 68.6683 58.4037C67.6288 58.6557 66.3531 58.7817 64.8411 58.7817C62.9196 58.7817 61.3288 58.5297 60.0688 58.0257C58.8088 57.4902 57.8008 56.7657 57.0448 55.8522C56.2888 54.9072 55.7533 53.7732 55.4383 52.4502C55.1548 51.1272 55.0131 49.6624 55.0131 48.0559V27.1714Z" fill="#414652"/>
</g>
</g>
</svg>
