<svg width="128" height="80" viewBox="0 0 128 80" fill="none" xmlns="http://www.w3.org/2000/svg">
<g id="logo / payment method / cimbniaga / black">
<g id="logo">
<path fill-rule="evenodd" clip-rule="evenodd" d="M22.9128 31H4V49H22.9128V31ZM6.37964 34.1411H16.513L21.5796 39.9684L16.513 46.3456H6.37964L10.9232 39.9684L6.37964 34.1411Z" fill="black"/>
<path d="M35.7127 37.4724L37.7333 35.7697C36.7046 34.6224 35.2365 34.003 33.723 34.0776C30.0102 34.0776 27.3025 36.5523 27.3025 40.423C27.3025 44.2938 30.0102 46.7685 33.723 46.7685C35.4024 46.8192 37.0025 46.0316 38.0204 44.6534L35.8358 42.993C35.2898 43.8321 34.3641 44.3234 33.3845 44.2938C31.4629 44.0421 30.0291 42.3456 30.0501 40.3484C30.071 38.3511 31.5401 36.687 33.4666 36.4783C34.3235 36.4374 35.1512 36.8037 35.7127 37.4724Z" fill="black"/>
<path d="M109.938 36.8379L110.964 35.7274C109.863 34.6473 108.379 34.0814 106.861 34.1622C105.229 34.1038 103.645 34.7403 102.481 35.9224C101.317 37.1046 100.676 38.7282 100.708 40.4125C100.642 42.1078 101.272 43.7532 102.443 44.9448C103.614 46.1365 105.218 46.764 106.861 46.6733C108.365 46.7051 109.851 46.3411 111.179 45.6158V39.7673H107.128V41.0576H109.795V44.6745C108.897 45.1149 107.917 45.3494 106.923 45.3619C104.355 45.282 102.304 43.132 102.268 40.4835C102.233 37.8351 104.225 35.6271 106.79 35.4736C107.976 35.464 109.115 35.9573 109.938 36.8379Z" fill="black"/>
<path d="M42.0307 46.4512V34.3208H39.4153V46.4512H42.0307Z" fill="black"/>
<path d="M51.1179 42.2315L48.3794 34.3208H44.4204V46.4512H47.0358V37.1551H47.0769L50.082 46.4512H52.082L55.1999 37.1551H55.241V46.4512H57.8563V34.3208H53.9076L51.1589 42.2315H51.1179Z" fill="black"/>
<path d="M81.364 44.4101L74.6871 34.5218H72.9538V46.4301H74.3281V36.5312H74.3589L81.0358 46.4301H82.7691V34.5218H81.4051V44.4101H81.364Z" fill="black"/>
<path d="M87.0153 46.4301V34.5218H85.6409V46.4301H87.0153Z" fill="black"/>
<path fill-rule="evenodd" clip-rule="evenodd" d="M99.8358 46.4195L94.923 34.5218H93.6307L88.5435 46.4195H90.0922L91.282 43.5006H97.0563L98.2256 46.4195H99.8358ZM91.8666 42.1892L94.2563 36.3302L96.5743 42.1892H91.8666Z" fill="black"/>
<path fill-rule="evenodd" clip-rule="evenodd" d="M124 46.4195L119.087 34.5218H117.805L112.718 46.4195H114.256L115.456 43.5006H121.22L122.4 46.4195H124ZM116.02 42.1892L118.42 36.3302L120.738 42.1892H116.02Z" fill="black"/>
<path fill-rule="evenodd" clip-rule="evenodd" d="M69.0563 37.4089C69.0563 34.765 66.7589 34.3208 64.7076 34.3208H60.2768V46.4089H65.1384C67.2512 46.4089 69.6102 45.5735 69.6102 43.0353C69.6366 41.4936 68.4956 40.1967 67.0051 40.074L67.1745 40.0277C68.2872 39.6822 69.0591 38.6213 69.0563 37.4089ZM62.8922 41.4277H64.882C65.7333 41.4277 66.9948 41.7133 66.9948 42.7709C66.9948 43.8285 66.0717 44.188 65.2512 44.188H62.8922V41.4277ZM62.8922 36.584H64.6768C65.5076 36.584 66.441 36.8802 66.441 37.8531C66.441 38.8261 65.5999 39.1751 64.7999 39.1751H62.8922V36.584Z" fill="black"/>
</g>
</g>
</svg>
