<svg width="128" height="80" viewBox="0 0 128 80" fill="none" xmlns="http://www.w3.org/2000/svg">
<g id="logo / payment method / fps / brand-dark">
<g id="logo">
<path d="M39.0714 63.981C39.1186 64.0285 39.1186 64.0761 39.1186 64.1236C39.1186 64.2662 39.0241 64.3137 38.9297 64.2662C38.8824 64.2186 38.8352 64.1711 38.7879 64.1236C38.7407 63.981 38.6462 63.886 38.5044 63.8385C38.4099 63.7909 38.3154 63.6484 38.2682 63.5533C38.2682 63.5058 38.2682 63.4583 38.2682 63.4108C38.2682 63.4108 38.3627 63.3632 38.4099 63.4108C38.6462 63.6008 38.8352 63.7909 39.0714 63.981ZM39.4021 53.9063C39.4966 54.0014 39.6384 54.0964 39.8273 54.0964C39.8273 53.9539 39.6384 53.8113 39.5439 53.7163C39.0241 53.1935 38.6934 52.5757 38.5989 52.4332C37.654 50.9125 37.4178 48.6789 37.5122 48.4413C37.5122 48.3938 37.5122 47.1582 37.3705 46.9681C37.3233 47.0632 37.3233 47.1582 37.276 47.2057C37.1815 47.8235 37.2288 48.4888 37.276 49.1541C37.276 49.3442 37.7485 52.2906 39.4021 53.9063ZM33.7797 49.1541H33.827C33.827 48.5363 33.8742 47.4433 33.9215 46.8256C33.8742 46.8256 33.827 46.8256 33.827 46.8256C33.7325 47.3958 33.827 48.4413 33.7797 49.0116C33.7325 49.0591 33.7325 49.1066 33.7797 49.1541ZM39.7801 54.6667C39.7801 54.7142 39.7801 54.7617 39.7801 54.8093C39.8746 54.9043 39.9691 54.9518 40.1108 54.8568C40.0636 54.7142 40.0163 54.6192 39.8746 54.6192L39.7801 54.6667ZM34.8192 54.1915C34.9137 54.4766 34.9609 54.7617 35.1027 55.0469C35.1972 55.237 35.5751 56.2349 35.7169 56.2824C35.7641 56.2349 35.0554 54.7617 34.9609 53.8113C34.9137 53.8113 34.8664 53.8113 34.8192 53.8113C34.8192 53.9539 34.8192 54.0964 34.8192 54.1915ZM34.2522 50.96C34.1105 51.3877 34.1105 51.6728 34.4412 52.1955C34.2995 51.7203 34.5357 51.7203 34.2522 50.96ZM35.9531 57.9457C35.9059 57.8982 35.9059 57.8507 35.8586 57.8032C35.7641 58.3259 35.7641 58.3259 36.2366 58.4685C36.1421 58.2784 36.0476 58.0883 35.9531 57.9457ZM33.638 52.3381C33.5908 52.053 33.4963 50.6748 33.4963 50.2471C33.4963 50.1521 33.4963 50.0095 33.4963 49.9145C33.4018 50.0095 33.4018 50.0571 33.4018 50.1521C33.3073 50.8174 33.4018 52.148 33.4018 52.4807C33.449 53.3361 34.0632 56.1399 34.2995 57.0903C34.7719 58.516 35.7169 60.1793 36.0476 60.5594C36.0948 60.702 36.2838 60.7495 36.4256 60.797C35.9059 60.2268 35.4806 59.3239 35.4806 59.3239C34.1105 56.5201 33.7325 52.9084 33.638 52.3381ZM70.4905 68.3055C70.396 68.2105 70.2071 68.2105 70.1598 68.3531C70.0653 68.5431 69.8763 68.5907 69.7346 68.6857C69.6401 68.7332 69.5929 68.8283 69.6401 68.9233C69.6873 68.9708 69.7818 69.0184 69.8291 69.0184C70.1126 68.9233 70.3488 68.8758 70.4905 68.5907C70.5378 68.4956 70.6323 68.4006 70.4905 68.3055ZM69.0259 69.2085C69.0731 69.256 69.1676 69.351 69.2149 69.3035C69.2621 69.3035 69.3094 69.1609 69.3566 69.1134C69.3094 69.0659 69.2149 69.0184 69.1204 68.9708C69.0731 69.1134 68.9786 69.2085 69.0259 69.2085ZM38.4099 63.4108C38.3627 63.4108 38.3154 63.4108 38.2682 63.4108C38.2682 63.4583 38.221 63.5058 38.2682 63.5533C38.3627 63.6484 38.4099 63.7909 38.5044 63.8385C38.6462 63.9335 38.7407 63.981 38.7879 64.1236C38.7879 64.1711 38.8824 64.2186 38.9297 64.2662C39.0241 64.3137 39.1186 64.2662 39.1186 64.1236C39.1186 64.0761 39.1186 63.981 39.0714 63.981C38.8352 63.7909 38.6462 63.6008 38.4099 63.4108ZM94.0667 38.4141C94.0667 38.4617 94.0667 38.5092 94.0667 38.5567C94.0195 38.6993 93.9722 38.8418 93.925 38.9844C93.925 38.9844 89.8617 63.4108 89.1058 63.7909C88.7751 63.6484 87.2159 59.514 87.2159 59.514L87.0742 59.3714L86.9797 58.9437L86.8852 58.8011C86.6962 59.0387 86.46 59.2288 86.2237 59.4189C86.1765 59.4664 86.1292 59.4664 86.0348 59.514C86.0348 59.4189 86.0348 59.3714 86.0348 59.2763C85.7513 59.514 85.3733 59.8941 84.7591 60.4169C83.9559 61.2723 82.7747 62.3178 81.0738 63.3632C80.9321 63.6008 80.4124 63.9335 80.4596 63.9335C80.2234 64.0761 80.0344 64.2186 79.7982 64.3612C79.7037 64.5513 79.5619 64.5988 79.5147 64.6463C79.3257 64.8364 79.0895 64.979 78.8532 65.1216C78.2863 65.4067 77.7193 65.6918 77.1051 66.0245C76.7271 66.2621 76.3019 66.4997 75.9239 66.6898C75.7822 66.7848 75.6877 66.8799 75.546 66.9274C74.3175 67.6878 73.0419 68.3055 71.6245 68.7808C71.341 68.8758 71.0575 68.9708 70.774 69.1134C70.2071 69.5411 69.5929 69.8262 68.8842 69.9688C68.1754 70.1114 67.4667 70.444 66.7108 70.5866C63.687 71.442 61.0412 71.7271 57.9701 71.9647C55.9858 72.1073 53.3399 71.7746 52.9147 71.7271C53.0565 71.5846 53.151 71.4895 53.3399 71.5846C53.4344 71.6321 53.5762 71.6321 53.7179 71.6321C53.8597 71.6321 54.0486 71.537 54.1904 71.537C55.7023 71.7747 59.0568 71.442 59.671 71.3945C65.7659 70.8242 70.2071 67.5927 70.2071 67.5927C70.2071 67.5927 64.065 70.5866 59.2458 70.9668C54.9463 71.2994 51.0721 70.9192 50.6941 70.8717C50.4579 70.8242 49.7019 70.7292 48.7097 70.4915C48.1428 70.444 47.4341 70.2539 46.4891 69.9213C46.3474 69.9213 46.2057 69.9213 46.1112 69.7787C45.9694 69.7312 45.8277 69.6837 45.686 69.6362C45.6387 69.6362 45.5915 69.6362 45.5442 69.6362C45.4497 69.5886 45.308 69.5411 45.2135 69.4936C45.119 69.4461 45.0717 69.3985 44.9773 69.351C44.3158 69.0659 43.6543 68.7332 43.0401 68.3531C42.5204 68.0204 42.0007 67.6877 41.481 67.3076C41.1975 67.165 40.9613 67.0224 40.725 66.7848C40.536 66.5472 40.2998 66.3571 40.0636 66.1195C37.843 64.0761 36.5673 62.0326 36.4728 61.9376C36.6146 61.8425 36.6618 61.9376 36.7091 61.9851C36.8035 62.0801 37.7012 63.1732 37.8902 63.1732C37.9847 63.0306 37.8902 62.9355 37.7957 62.793C37.465 62.4128 37.7012 62.6029 37.3705 62.2227C37.2288 62.0801 37.3233 61.9851 37.5595 62.2227C38.1265 62.6504 38.1265 62.5078 38.4099 62.7455C38.4572 62.793 38.7407 62.888 38.9297 62.8405C39.0241 62.6979 38.5989 62.1752 38.4572 61.9851C38.221 61.6049 37.7485 61.1772 37.654 61.1297C37.465 61.0347 37.7485 61.0347 37.654 60.8446C37.6067 60.702 37.0398 60.3218 37.087 60.0842C37.1343 59.8941 37.5122 60.5119 37.7957 60.797C37.8902 60.8921 38.032 60.8921 38.1737 61.0347C38.3154 61.1297 39.2131 62.5554 39.4021 62.7455C39.6384 62.9355 40.7723 64.1236 41.292 64.5513C41.5755 64.7414 43.0874 65.977 45.4497 66.8324C47.2451 67.4977 51.4973 67.7353 51.4973 67.7353C51.4973 67.7353 47.3396 66.8799 45.7804 66.2621C41.5755 64.5513 40.2526 62.6504 40.1581 62.5078C39.6384 61.9376 37.2288 59.2288 36.9925 58.9437C36.9453 58.6586 36.5673 58.2309 36.5673 58.0883C36.5673 57.9457 36.7563 57.9932 36.8035 58.0408C36.898 58.1358 37.1815 58.8011 37.3233 58.611C37.5122 58.4685 37.1343 58.3259 37.1343 58.1833C37.0398 57.7081 36.8508 57.1378 36.6146 56.9478C36.4256 56.8052 36.3311 56.5201 36.0948 56.0448C36.0003 55.9023 36.0003 55.7122 36.0476 55.5696C36.0948 55.5696 36.0948 55.5696 36.1421 55.5221C36.1893 55.6171 36.2838 55.7122 36.3311 55.8547C36.4728 56.1399 37.3705 57.7081 37.4178 57.7556C37.654 58.0883 37.8902 58.3734 38.1265 58.6586C38.5044 59.1813 39.0241 59.7991 39.5911 60.2743C40.4888 61.1297 41.3865 61.5099 41.3865 61.5099C39.2604 60.0367 38.5517 58.9437 37.3705 56.8527C36.898 55.9973 36.7563 55.2845 36.6146 55.0944C36.4728 54.7617 36.3783 54.4291 36.2838 54.239C36.1421 53.9539 35.9059 53.7163 35.7169 53.4311C35.5751 53.5262 35.7641 54.0489 35.8114 54.1915C35.8586 54.334 35.9531 54.4291 35.9059 54.6192C35.8114 54.6667 35.7169 54.5241 35.7169 54.5241C35.5751 54.2865 35.2916 53.5737 35.1972 53.3836C34.5829 52.053 34.6774 51.0075 34.6774 50.4372C34.6302 49.7244 34.6774 49.2017 34.6774 48.7264C34.6774 48.0136 34.9609 45.59 35.0554 44.9247C35.0554 44.8296 35.1027 44.7821 35.1499 44.6395C35.2916 44.9722 35.2444 45.2098 35.2444 45.4949C35.2444 45.7325 35.2444 47.1107 35.2444 47.3958C35.1499 48.4413 35.1499 49.3917 35.5751 50.3422C35.9531 51.2451 35.7169 51.3401 36.6618 53.6212C39.6856 60.607 45.7332 61.2247 45.7332 61.2247C45.7332 61.2247 39.7801 59.0863 37.2288 54.0489C36.4728 52.5282 36.9925 53.9539 36.3311 51.3877C36.2366 51.0075 36.1421 50.4848 36.3311 50.4848C36.4728 50.4848 36.4728 50.0571 36.5201 49.867C36.5201 49.7244 36.4728 49.4868 36.5673 49.3917C36.7091 49.3442 36.6618 50.1046 36.8035 50.3897C36.9453 50.7224 36.4728 50.3897 37.1815 52.053C37.2288 52.1955 38.1265 54.3816 40.6305 56.3775C40.725 56.425 40.8195 56.4725 40.914 56.5201C41.2447 56.7577 41.5755 57.0428 41.9535 57.2329C42.1897 57.3755 42.4732 57.423 42.7094 57.5655C43.2291 57.8032 43.7016 58.0883 44.2213 58.3259C44.2213 58.3259 44.4575 58.4209 44.8355 58.611C44.9773 58.6586 45.119 58.7061 45.2607 58.7536C45.5442 58.8486 45.8749 58.9437 46.1584 58.9912C46.2057 58.9912 46.2529 58.9912 46.3002 58.9912C46.7254 59.0863 47.1034 59.1813 47.5286 59.2288C47.8121 59.2763 48.757 59.3239 48.946 59.4189C49.8437 59.514 50.7886 59.5615 51.7335 59.5615C51.9225 59.5615 52.1588 59.514 52.3478 59.514C52.4423 59.514 52.5367 59.4664 52.584 59.5615C52.584 59.5615 52.584 59.5615 52.6312 59.5615C53.7652 59.514 54.8518 59.3714 55.8913 59.1813C56.3165 59.0863 56.8362 59.0387 57.2142 58.9912H57.2614C57.4032 58.9912 57.5922 58.9437 57.6394 58.9437C57.5449 58.9437 57.8756 58.8962 57.9701 58.8486C58.1119 58.8011 58.2536 58.7061 58.3954 58.6586C58.9151 58.516 59.3875 58.2784 59.9073 58.0883C60.9467 57.7081 62.0334 57.2329 63.0728 56.8527C63.0728 56.8527 63.5453 56.6626 64.3012 56.33C65.2934 55.8547 66.2383 55.332 67.1833 54.8568C67.325 54.7617 67.4667 54.6667 67.6085 54.7617C68.0337 54.5717 68.4589 54.334 68.8842 54.0964C71.0103 52.7658 74.1758 50.1996 74.1285 50.1996C74.412 50.0095 74.979 49.4868 74.979 49.5343C75.4987 49.1066 75.5932 49.0116 75.5932 48.869C75.5932 48.7264 74.9317 48.5839 74.9317 48.5839C74.9317 48.5839 69.6873 47.4909 69.6873 47.3008C69.6873 47.1107 72.7111 46.2078 74.8373 45.3999C74.979 45.3048 75.1207 45.1623 75.2625 45.1148C77.2468 44.592 80.6486 42.6911 82.633 42.2634C88.8223 39.6497 92.5076 37.7488 92.98 37.5112C94.0667 36.9885 94.114 38.0815 94.114 38.0815L94.0667 38.4141ZM76.3491 49.6769C75.6877 50.2471 75.0735 50.8174 74.412 51.3401C73.7506 51.9104 73.0891 52.4332 72.4277 52.9084C71.7662 53.4311 71.0575 53.9063 70.3488 54.3816C69.9708 54.6192 69.6401 54.8568 69.2621 55.0469C68.8841 55.2845 68.5062 55.4746 68.1282 55.6647C68.9314 55.3795 69.6873 54.9994 70.4433 54.5717C71.1992 54.144 71.9079 53.6687 72.5694 53.146C73.2309 52.6232 73.9396 52.1005 74.5538 51.4827C74.8845 51.1976 75.168 50.8649 75.4987 50.5798C75.7822 50.2947 76.0657 50.0095 76.3491 49.6769Z" fill="url(#paint0_linear_481_47)"/>
<path d="M85.9875 25.6782C86.0348 25.9634 85.9403 26.201 85.7513 26.201C85.5623 23.3972 84.4284 21.4012 84.3339 21.2111C84.5701 21.1636 84.7118 21.2587 84.8063 21.4012C84.9481 21.7339 85.704 23.4447 85.9875 25.6782ZM84.3811 20.926C84.3811 20.4983 81.688 17.6945 81.4046 17.5995C81.3573 17.5995 81.3101 17.5995 81.2156 17.647C81.2628 17.742 83.4362 19.6429 83.9559 20.6409C84.0504 20.831 84.1921 20.926 84.3811 20.926ZM80.0817 16.7441C80.0344 16.7441 79.9872 16.7441 79.8927 16.7441C80.0817 16.9342 80.7431 17.3143 80.8848 17.3619C80.9321 17.3619 80.4124 16.9342 80.0817 16.7441ZM85.8458 27.6741C85.8458 27.7692 85.9403 27.8642 86.0348 27.8642C86.0348 27.4365 86.1292 26.9613 85.9403 26.6287C85.893 26.6287 85.8458 26.6762 85.8458 26.6762C85.8458 27.0088 85.8458 27.3415 85.8458 27.6741ZM97.941 28.9097C97.8465 29.4325 97.752 29.9077 97.6102 30.3829C97.563 30.8581 97.2795 31.571 96.9488 32.2363C96.9015 32.3788 96.8543 32.4739 96.7598 32.6164C96.5708 32.9966 96.4291 33.2818 96.2873 33.4243C96.0983 33.8045 95.8621 34.1371 95.7676 34.2322C95.6259 34.4698 95.4841 34.6599 95.3424 34.8975C95.2951 34.9925 95.1061 34.8975 95.1534 34.8025C95.5786 33.852 95.7676 32.9966 95.8149 32.2363C95.5786 32.8065 94.9172 33.4243 94.8227 33.6619C94.7754 33.852 94.3502 34.5173 94.303 34.5173C93.9722 34.7549 93.547 35.2777 93.358 35.6579C93.2163 35.8955 92.6966 36.1806 92.6493 36.2756C92.5548 36.4182 92.4131 36.5133 92.1768 36.5608C92.2713 36.1331 92.5076 36.1331 92.6493 35.7529C92.8383 35.4202 92.98 35.2302 93.1218 34.85C92.9328 34.85 92.6966 35.4202 92.5076 35.4678C92.3186 35.5628 92.1768 35.4202 92.1296 35.4202C92.2241 35.1826 92.2713 34.8975 92.4131 34.7074C92.6966 34.4698 93.1218 32.7115 93.1218 32.5689C93.1218 32.1887 93.4525 31.1908 93.547 30.9056C93.5942 30.7156 93.358 30.0503 93.4525 29.575C93.4998 29.4325 93.3108 29.2899 93.2163 29.2899C93.0273 29.3374 92.9328 30.1453 92.9328 30.3354C92.9328 30.3354 92.9328 30.4304 92.8856 30.5255C92.9328 30.7156 92.98 30.8106 92.98 30.8581C92.98 31.0007 92.9328 31.3809 92.8856 31.9511C92.7911 32.5214 92.3658 33.9471 91.9879 34.4223C91.6571 34.8975 91.7516 34.7074 91.2792 35.0401C90.8067 35.3727 91.7044 34.9925 90.6649 35.5153C89.6255 36.038 89.4838 36.2281 89.4365 36.3707C89.3893 36.5133 89.342 35.8479 89.6255 35.6579C89.6255 35.6103 89.6728 35.5628 89.72 35.5153L90.9012 32.4264C91.1847 31.2858 91.2792 29.8602 91.2792 29.8126C91.5154 28.1969 90.5705 24.7753 90.5705 24.7753C90.5705 24.7753 91.1374 28.4345 90.8067 30.0978C90.7122 31.0482 90.3342 33.3768 89.0586 35.3727C88.9641 35.5153 88.0191 36.941 87.9719 36.941C87.5467 37.131 87.0742 38.3666 86.838 38.3191C86.6962 38.129 86.838 37.5587 87.1687 37.3687C87.4049 37.2261 87.7356 36.941 87.7356 36.6558C87.7356 36.5608 88.1609 35.3252 88.3026 35.1826C88.4443 34.9925 88.5861 34.3748 88.3971 34.3272C88.2554 34.2797 88.1136 34.3748 88.0664 34.5173C87.9719 34.8025 87.6412 35.5153 87.5467 35.5153C87.2632 35.6579 87.1214 35.8955 86.9324 36.0856C86.838 36.1806 85.4678 38.2241 85.2316 38.2241C85.0898 38.2241 84.3339 38.7943 84.1921 38.9369C84.0976 39.0794 83.9559 39.222 83.8142 39.3646C83.7669 39.4121 83.5307 39.4121 83.3889 39.4596C83.3417 39.4596 83.2472 39.4596 83.2472 39.5071L83.2944 39.4596C83.2944 39.4596 83.5779 39.1745 83.8142 38.7468C83.7669 38.8418 83.7197 38.9369 83.6724 39.0319C83.7197 38.9844 83.7197 38.9369 83.7669 38.8894C83.7669 38.8894 83.7669 38.8894 83.7669 38.8418C83.8142 38.7943 83.8142 38.6993 83.8614 38.6518C83.8614 38.6518 83.8614 38.6518 83.8614 38.6042C83.9086 38.5567 83.9086 38.4617 83.9559 38.4141V38.3666C84.0031 38.3191 84.0031 38.2241 84.0504 38.1765C84.0976 38.129 84.0976 38.0815 84.1449 37.9864C84.1449 37.9864 84.1449 37.9389 84.1921 37.9389C84.3339 37.6538 84.4756 37.3687 84.5701 37.0835C85.4678 35.1826 85.7985 34.1372 86.271 32.0937C86.4127 31.4284 86.649 28.8147 86.649 28.482C86.649 27.9593 86.649 27.6741 86.6017 27.4841C86.3655 21.6864 83.8142 18.2648 80.8376 16.3164C80.7431 16.2688 80.6486 16.2213 80.6014 16.1738C80.2234 15.9362 79.8927 15.6986 79.5147 15.5085C79.2785 15.3659 78.995 15.3184 78.7115 15.2234C78.1918 15.0333 77.6721 14.7957 77.1524 14.558C77.1524 14.558 76.9161 14.463 76.4909 14.3204C75.9712 14.1779 75.4042 14.0353 74.8845 13.8927C74.8373 13.8927 74.79 13.8927 74.79 13.8452C73.6561 13.6551 72.7111 13.5601 72.0969 13.5601C70.1126 13.5601 67.892 13.7027 65.7659 14.0828C65.6241 14.1304 65.4824 14.1779 65.3406 14.1779C65.0572 14.2254 64.8209 14.368 64.5374 14.4155C63.9705 14.558 63.4508 14.6531 62.8838 14.7957C62.8838 14.7957 62.6476 14.8432 62.2696 14.9382C62.2223 14.9382 62.2223 14.9382 62.1751 14.9857C61.6554 15.1758 61.1829 15.3659 60.6632 15.556C60.616 15.556 60.5687 15.6035 60.5215 15.6035H60.4742C58.9151 16.1738 57.5449 16.7441 56.222 17.3619C56.1275 17.4094 55.9385 17.5519 55.8913 17.5519C55.1826 17.8846 54.5211 18.3123 53.8124 18.74L56.1275 19.5003C55.7023 19.6904 52.0643 20.831 49.5129 21.4488C49.0877 21.5913 48.7098 21.7814 48.2845 21.8289C48.2845 21.7814 48.4263 21.7339 48.4735 21.6864C48.001 21.7814 47.6231 21.8765 47.3396 21.8765C47.1979 21.8765 47.1034 21.8765 47.0561 21.8289C46.7726 21.4963 52.1588 14.2254 52.1588 14.2254L52.1115 16.4589C52.1115 16.4589 57.6867 12.277 64.0177 10.2335C64.1122 10.186 64.2067 10.186 64.3012 10.1385C64.3485 10.1385 64.3957 10.091 64.3957 10.091C65.0099 9.85336 65.6714 9.61575 66.3328 9.47318C66.4746 9.47318 66.6163 9.42566 66.758 9.33062C67.0415 9.18805 68.0337 9.04549 68.2227 9.04549C70.9158 8.4277 73.6561 8.09504 76.3492 8.09504C76.6326 8.09504 76.9161 8.04752 77.2468 8.04752C77.3413 8.04752 77.4831 8.04752 77.5776 8.04752C77.6248 8 77.7193 8 77.7666 8C77.8138 8 77.9083 8 78.0028 8.04752C78.1445 8.04752 78.239 8.04752 78.3808 8.09504C78.4753 8.04752 78.5225 8 78.5698 8C78.7115 8 78.806 8 78.9477 8C79.3257 8.09504 79.7509 8.19009 80.1289 8.23761C80.3179 8.28513 80.5069 8.28513 80.6486 8.28513C81.3101 8.38018 81.9715 8.47522 82.633 8.71283C82.7747 8.76035 82.9165 8.80788 83.1055 8.80788C83.4362 8.80788 83.7197 8.90292 84.0031 9.04549C84.1449 9.14053 84.3339 9.18805 84.4756 9.2831C88.0664 10.4711 91.4209 12.5621 94.303 15.8411C94.303 15.8411 94.4919 16.0788 94.8227 16.5065C94.8699 16.554 94.9172 16.649 95.0117 16.7916L95.0589 16.8391C95.0589 16.8391 95.0589 16.8866 95.1062 16.8866C95.1062 16.9342 95.1534 16.9817 95.2006 16.9817C96.0511 18.2648 97.9882 21.8765 97.7992 26.4861C98.0355 27.4841 98.0355 28.1018 97.941 28.9097ZM93.4525 16.5065C94.303 17.4094 95.1061 18.4549 95.7676 19.6429C95.9093 19.928 96.0983 20.1657 96.2401 20.4508C96.0511 19.7855 95.7676 19.1677 95.4841 18.5499C95.0589 17.742 94.5864 16.9817 94.0195 16.3164C93.169 15.2709 92.3186 14.463 91.6571 13.9403C90.6177 13.0849 89.1058 12.1344 87.5939 11.5642C87.5467 11.5642 90.8067 13.7027 92.3186 15.2709C92.6966 15.6986 93.0745 16.1263 93.4525 16.5065ZM61.1829 12.2295C59.7655 12.8473 56.7417 14.4155 55.8913 15.2234C56.8362 14.7006 60.049 13.0373 61.3247 12.5146C64.3485 11.279 66.3801 10.5662 67.4195 10.2335C65.5769 10.5187 62.931 11.4691 61.1829 12.2295Z" fill="url(#paint1_linear_481_47)"/>
<path d="M34.205 35.2777C35.3861 33.2342 36.3311 31.761 37.1343 30.8106C37.8902 29.8602 38.7407 29.0998 39.6384 28.482C40.536 27.8642 41.5755 27.389 42.6622 27.1039C43.7488 26.8187 45.0245 26.6762 46.3947 26.6762H51.1193L49.5129 29.4325H44.5048C43.1819 29.4325 42.0007 29.7176 41.0558 30.3354C40.1108 30.9532 39.2131 31.9511 38.4099 33.2818H47.2451L45.686 36.0856H36.8508L33.1183 42.6436H30L34.205 35.2777Z" fill="white"/>
<path d="M53.5289 26.6762H60.238C61.3719 26.6762 62.2223 26.7237 62.8366 26.8663C63.4508 27.0088 63.876 27.1989 64.1122 27.4841C64.4902 27.9593 64.6792 28.5295 64.5847 29.2899C64.4902 30.0503 64.1595 30.9056 63.5925 31.8561C63.0255 32.8065 62.4113 33.6144 61.7499 34.3272C61.0884 34.9925 60.3325 35.5628 59.482 36.038C58.7733 36.4182 58.1119 36.6558 57.3559 36.8459C56.6472 36.9885 55.655 37.0835 54.3794 37.0835H50.6469L47.4813 42.6436H44.4103L53.5289 26.6762ZM58.5843 29.5275H54.9936L52.3005 34.2322H56.0803C57.0252 34.2322 57.8284 34.0421 58.4898 33.6619C59.1513 33.2818 59.7183 32.664 60.1907 31.9036C60.6632 31.0482 60.8049 30.4304 60.5687 30.0978C60.2852 29.7176 59.671 29.5275 58.5843 29.5275Z" fill="white"/>
<path d="M79.8927 29.5275H72.2859C71.4827 29.5275 70.774 29.6701 70.2071 30.0027C69.6401 30.3354 69.1204 30.8581 68.7424 31.571C68.4117 32.1412 68.3172 32.5689 68.5062 32.8541C68.6479 33.1392 69.0731 33.2818 69.7346 33.2818H73.7978C75.4987 33.2818 76.4909 33.6144 76.8216 34.3272C77.1523 35.0401 76.8216 36.1806 75.9239 37.7964C74.979 39.4596 73.8923 40.6477 72.6166 41.408C71.341 42.1684 69.8291 42.5486 68.081 42.5486H59.7655L61.4192 39.6972H69.1676C70.0653 39.6972 70.7268 39.5547 71.2465 39.2695C71.7662 38.9844 72.1914 38.5092 72.5694 37.8914C72.9474 37.2261 73.0419 36.7509 72.9001 36.4657C72.7111 36.1806 72.2387 36.038 71.4355 36.038H67.7975C66.0966 36.038 65.1044 35.6579 64.7264 34.945C64.3485 34.2322 64.6319 33.0441 65.5296 31.4759C66.5218 29.7651 67.6085 28.5295 68.8842 27.7692C70.1598 27.0088 71.6717 26.5811 73.4671 26.5811H81.5463L79.8927 29.5275Z" fill="white"/>
</g>
</g>
<defs>
<linearGradient id="paint0_linear_481_47" x1="29.9642" y1="40.0143" x2="97.9912" y2="40.0143" gradientUnits="userSpaceOnUse">
<stop stop-color="#5BC4F1"/>
<stop offset="0.1279" stop-color="#56BBE9"/>
<stop offset="0.3366" stop-color="#47A3D3"/>
<stop offset="0.6" stop-color="#307BAE"/>
<stop offset="0.905" stop-color="#0F447D"/>
<stop offset="1" stop-color="#04326C"/>
</linearGradient>
<linearGradient id="paint1_linear_481_47" x1="30.3275" y1="40.264" x2="98.0449" y2="40.264" gradientUnits="userSpaceOnUse">
<stop stop-color="#04326C"/>
<stop offset="0.1279" stop-color="#093B74"/>
<stop offset="0.3366" stop-color="#18538A"/>
<stop offset="0.6" stop-color="#2F7BAE"/>
<stop offset="0.905" stop-color="#50B2E0"/>
<stop offset="1" stop-color="#5BC4F1"/>
</linearGradient>
</defs>
</svg>
