<svg width="128" height="80" viewBox="0 0 128 80" fill="none" xmlns="http://www.w3.org/2000/svg">
<g id="logo / payment method / dragon phoenix / black">
<g id="logo">
<path d="M27.5168 32.4402C25.2206 33.2193 23.9125 35.6522 23.9125 35.6522C24.1285 34.9456 25.1495 32.2256 27.8695 31.3098C29.4919 30.7166 30.6769 29.3033 30.9749 27.603C32.8447 33.8535 28.7852 34.0954 28.7852 34.0954C31.5572 32.0876 30.9038 29.969 30.9038 29.969L30.8512 30.0464C30.3345 30.807 29.736 31.6881 27.5168 32.4402Z" fill="black"/>
<path d="M23.5995 49.5473C23.8155 49.3559 23.9316 49.0771 23.9139 48.7887C23.8742 48.6301 23.8018 48.4825 23.6979 48.3568C23.5394 48.1531 23.3015 48.0274 23.0432 48.011C22.8929 48 22.7398 48.0246 22.599 48.082C22.8259 47.8497 23.1457 47.7349 23.4683 47.7677C23.8715 47.877 24.1749 48.2064 24.2529 48.6165C24.3294 49.0265 24.164 49.4448 23.8291 49.6908C23.8045 49.6908 23.7757 49.716 23.7454 49.7425C23.7102 49.7732 23.673 49.8058 23.6378 49.8029C23.5735 49.796 23.579 49.6252 23.579 49.6252L23.5995 49.5473Z" fill="black"/>
<path d="M23.1535 48.3716C23.0305 48.3279 22.8993 48.3115 22.7681 48.3251C22.6287 48.3292 22.5084 48.4263 22.4742 48.5616C22.4551 48.6819 22.4674 48.8049 22.507 48.9211C22.5467 49.0386 22.5918 49.1493 22.6383 49.26C22.6793 49.3598 22.7476 49.4446 22.8337 49.5088C23.1153 49.6865 23.3832 49.3913 23.4488 49.137C23.4488 49.0454 23.4488 48.9539 23.4871 48.8623C23.4953 48.7748 23.4802 48.686 23.4419 48.6067C23.3791 48.4946 23.2766 48.4112 23.1549 48.3716H23.1535Z" fill="black"/>
<path d="M14.5553 28.6822C14.5553 28.6822 14.6537 27.0283 16.8051 25.9677C16.5645 26.088 16.3411 26.8251 16.214 27.2447C16.1896 27.3253 16.1685 27.3948 16.1518 27.4452C15.9932 27.9947 15.8989 28.5619 15.8702 29.1332C15.9071 30.1789 15.4807 31.189 14.7057 31.8929C14.7961 31.827 14.9286 31.7849 15.0624 31.7425C15.1813 31.7047 15.3012 31.6666 15.3932 31.6113C16.1764 31.1274 16.6944 30.3101 16.7983 29.3943C16.8288 29.1196 16.8317 28.8351 16.8347 28.5493C16.842 27.8481 16.8494 27.1383 17.263 26.5431C17.3175 26.4645 17.3744 26.3774 17.4341 26.2861C17.7469 25.8073 18.1378 25.209 18.6818 25.0724C18.6818 25.0724 14.2218 25.1052 14.5553 28.6808V28.6822Z" fill="black"/>
<path d="M12.5351 31.0022C12.5351 31.0022 11.9719 30.1069 13.3975 28.2166C13.2499 28.941 13.3292 29.6928 13.6272 30.368C13.9224 30.8915 14.029 31.5025 13.9279 32.0943C14.3885 31.6583 14.6099 31.0282 14.5224 30.3994C14.4744 30.1728 14.3927 29.9774 14.3095 29.7785C14.0424 29.1399 13.7596 28.4637 14.5224 26.5942C13.7338 27.3049 13.0189 28.0936 12.3902 28.9492C12.3674 29.0017 12.3442 29.0535 12.3218 29.1034C12.0627 29.6818 11.8673 30.1181 12.5351 31.0022Z" fill="black"/>
<path d="M19.3747 25.0975V24.9267C19.3774 24.9841 19.3774 25.0401 19.3747 25.0975Z" fill="black"/>
<path fill-rule="evenodd" clip-rule="evenodd" d="M52.1946 39.9558C52.2315 27.3264 42.1812 16.9768 29.5558 16.6433H27.8815C15.5801 17.2255 5.87698 27.3182 5.77993 39.6346V41.1723C5.77993 41.3226 5.77993 41.473 5.81274 41.6165V41.7149C5.81274 41.8844 5.81274 42.0471 5.85784 42.2111V42.2767L5.91661 42.8002V42.859C5.91661 42.9798 5.94025 43.1042 5.96323 43.2251C5.97247 43.2737 5.98161 43.3217 5.98906 43.3688C5.99179 43.3988 5.99179 43.4303 5.98906 43.4604L6.06696 43.9387C6.07106 43.9852 6.07106 44.0344 6.06696 44.0809L6.14624 44.4868C6.14624 44.5421 6.16276 44.5981 6.17918 44.6538C6.18591 44.6765 6.19262 44.6993 6.19818 44.7219C6.20666 44.7571 6.21542 44.8011 6.2248 44.8483C6.23657 44.9075 6.24933 44.9716 6.26379 45.0295C6.27332 45.0681 6.28285 45.1101 6.29272 45.1535C6.30974 45.2284 6.32778 45.3077 6.34853 45.3821C6.36283 45.4339 6.36466 45.4632 6.36603 45.485C6.3678 45.5132 6.36879 45.529 6.395 45.5653C6.42781 45.7059 6.46664 45.8465 6.50547 45.9871L6.52485 46.0573V46.0888C9.30087 56.1254 18.4299 63.0798 28.8437 63.0921H28.9667C41.752 63.0729 52.1262 52.7397 52.1946 39.9545V39.9558ZM42.7525 57.7478C41.9147 57.7929 41.0741 57.7109 40.2608 57.5058C39.479 57.2831 38.7833 56.8265 38.2652 56.1992C37.8863 55.7301 37.5473 55.2245 37.203 54.7111C37.0668 54.508 36.9297 54.3035 36.7891 54.0997C36.2957 53.3644 35.7325 52.6796 35.1079 52.0522C34.4737 51.4262 33.7561 50.8904 32.9756 50.4571C32.2102 50.0197 31.3806 49.7013 30.5181 49.5154C29.657 49.3404 28.7713 49.3186 27.902 49.4498C27.0354 49.5919 26.2017 49.8913 25.4431 50.3327C26.2317 49.9842 27.0696 49.7628 27.928 49.6794C28.7754 49.6165 29.6283 49.6931 30.4525 49.9077C32.0858 50.3533 33.5716 51.2267 34.7552 52.439C35.3443 53.0445 35.8801 53.7006 36.3572 54.4004C36.8355 55.1358 37.3522 55.8465 37.9071 56.5258C38.2078 56.8716 38.555 57.1723 38.9405 57.4211C39.3286 57.6644 39.7551 57.8421 40.202 57.9446C40.9073 58.1031 41.6331 58.151 42.3534 58.0881C42.1047 58.2713 41.8559 58.4421 41.6085 58.6116C41.3269 58.7127 41.0344 58.7784 40.7378 58.8071C39.9997 58.9916 39.2876 59.2622 38.6124 59.6121C38.2365 59.8308 37.7869 59.8855 37.3686 59.7625C36.9517 59.6395 36.6032 59.347 36.4091 58.9574C36.3203 58.7797 36.1316 58.6717 35.9307 58.6895C35.7995 58.7032 35.6655 58.7032 35.533 58.6895C35.2184 58.6405 35.0534 58.391 34.8977 58.1556C34.7626 57.9512 34.6345 57.7575 34.4217 57.715L34.4132 57.7133C33.9568 57.622 33.3935 57.5094 33.1137 56.9769C33.0289 56.806 32.936 56.7213 32.7542 56.7992C32.2307 56.9769 31.7318 57.2174 31.2698 57.5195C30.9732 57.6931 30.8147 58.0307 30.8707 58.3697C30.9596 58.7469 31.2944 59.0162 31.6813 59.023C32.2143 59.0804 32.679 59.4126 32.9046 59.8992C33.1875 60.2258 33.249 60.6878 33.0617 61.0774C32.8239 61.5667 32.2868 61.8359 31.7537 61.7307C32.0325 61.6063 32.2731 61.4068 32.4467 61.1553C32.6558 60.9092 32.6558 60.5498 32.4467 60.3051C32.2487 60.0517 32.0853 60.1672 31.9144 60.2879C31.887 60.3072 31.8595 60.3266 31.8316 60.3447C31.5172 60.547 31.3149 60.3447 31.1783 60.1083C31.0717 59.9197 30.9131 59.7652 30.7204 59.6641C30.0069 59.2854 29.5107 59.5657 29.5039 60.4158C29.5039 60.7958 29.426 61.0705 29.0597 61.1949C29.0038 61.2107 28.9395 61.2017 28.8774 61.1929C28.7357 61.173 28.6055 61.1546 28.6141 61.4368C28.6004 61.7307 28.785 61.9986 29.0652 62.0902C29.1977 62.1066 29.3317 62.1066 29.4643 62.0902C29.0323 62.4428 28.9025 62.4824 28.5813 62.2925C28.1712 62.0492 27.958 61.5721 28.0523 61.1033C28.2191 60.3379 28.5635 59.6231 29.0597 59.0176C28.3787 58.9402 28.1141 59.3862 27.891 59.762C27.8656 59.8048 27.8408 59.8467 27.8159 59.8869L27.7932 59.924C27.5661 60.2953 27.4212 60.5323 26.9343 60.2914C26.7251 60.1739 26.5543 60.2914 26.4368 60.4883C26.2645 60.7958 26.2509 61.1676 26.3985 61.4888C26.5447 61.8086 26.8359 62.0396 27.183 62.1093C26.7183 62.3458 26.6595 62.3649 26.326 62.071C25.8572 61.7362 25.6303 61.1553 25.7506 60.5935C25.8764 59.9183 26.3014 59.3388 26.9083 59.0176C27.1009 58.9212 27.2807 58.7977 27.4603 58.6743C27.5737 58.5964 27.6872 58.5185 27.8036 58.4476L27.8269 58.4336C27.9376 58.3675 28.0497 58.3006 28.0127 58.1537C27.9772 58.0129 27.8638 58.0147 27.7414 58.0166C27.7272 58.0168 27.7126 58.017 27.6983 58.017C27.2022 58.0485 26.8359 57.976 27.045 57.3227C27.0969 57.1464 26.9274 57.0944 26.7962 57.1272C26.3916 57.212 25.9666 57.3104 25.8285 57.7806C25.8285 57.7949 25.8295 57.8101 25.8308 57.8259L25.8329 57.8503C25.8436 57.9662 25.8554 58.0949 25.6385 58.0621C25.4236 58.0293 25.4483 57.8945 25.471 57.7708C25.4757 57.745 25.4803 57.7197 25.4827 57.6958C25.5456 57.2831 25.7861 56.9167 26.1388 56.694C26.4928 56.4712 26.9261 56.4124 27.3266 56.5327C27.6915 56.6283 28.0168 56.8402 28.256 57.1341C28.3735 57.3254 28.584 57.443 28.8109 57.443C29.0364 57.443 29.2483 57.3254 29.3659 57.1341C29.9317 56.6065 30.6001 56.2019 31.3286 55.9436C31.8712 55.7016 32.2307 55.3818 32.0284 54.7859C31.9899 54.6736 31.9655 54.5508 31.9409 54.4269C31.8651 54.0454 31.7873 53.6539 31.289 53.5311H31.2302C31.1566 53.1388 30.8734 52.9436 30.5824 52.7431C30.3543 52.5859 30.1214 52.4255 29.9809 52.1643C29.7267 51.6722 29.2278 51.3538 28.6729 51.3333C28.5636 51.3333 28.4573 51.3268 28.3536 51.3206C27.9553 51.2965 27.5942 51.2747 27.2418 51.6271C27.1444 51.7282 26.9383 51.7175 26.7064 51.7054C26.5935 51.6995 26.4744 51.6933 26.3588 51.6996C26.6117 52.0358 27.0723 52.1383 27.4441 51.9415C27.8883 51.798 27.8951 52.0071 27.7967 52.3269C27.6013 52.7725 27.291 53.1566 26.8946 53.4395C26.4573 53.8181 26.4764 54.0929 27.0259 54.2624C27.0516 54.2711 27.08 54.2785 27.1091 54.286C27.2338 54.3184 27.3706 54.3539 27.3662 54.518C27.3594 54.7203 27.1748 54.805 26.9999 54.8515C26.9312 54.8689 26.8607 54.8835 26.7906 54.8981C26.3862 54.9823 25.9905 55.0647 25.9789 55.6552C25.9789 55.6962 25.8681 55.7741 25.8422 55.7604C25.3272 55.5009 25.2929 55.7656 25.2571 56.0413C25.2433 56.1476 25.2293 56.2556 25.1875 56.3358C25.1525 56.4026 25.1292 56.4698 25.1083 56.5303C25.039 56.73 24.995 56.8571 24.6394 56.6557C24.1747 56.396 24.0243 56.6557 23.9847 57.0944C24.0079 57.4088 23.9573 57.7259 23.8343 58.017C23.6184 58.017 23.5787 57.8599 23.5473 57.7163C23.4243 57.2188 23.1304 56.7801 22.7163 56.4794C22.4333 56.262 22.2365 55.9518 22.16 55.6046C22.1512 55.5715 22.1377 55.5341 22.1238 55.4955C22.055 55.3044 21.9766 55.0866 22.4224 55.2492C22.6059 55.3197 22.6057 55.1431 22.6055 55.0189L22.6055 55.0087C22.6055 54.9538 22.6016 54.8981 22.5976 54.8422C22.5846 54.6588 22.5714 54.4728 22.6971 54.302C22.8614 54.2813 22.9092 54.3822 22.9593 54.488C23.0052 54.5847 23.0529 54.6855 23.1933 54.7011C23.3382 54.2583 23.5842 53.8537 23.9122 53.5243C24.0926 53.2714 24.2266 52.9912 24.3113 52.6933C24.4562 52.249 24.5601 51.7515 24.1022 51.4248C23.6539 51.1474 23.0744 51.2007 22.6834 51.5561C22.6201 51.5978 22.5705 51.6608 22.5208 51.724C22.416 51.8571 22.3107 51.9909 22.0752 51.9278C22.0752 51.9278 21.9385 52.0522 21.944 52.1192C21.9809 52.5443 22.2461 52.9174 22.6383 53.0924C22.7463 53.1634 22.8789 53.1853 23.0047 53.1525C23.129 53.1183 23.2343 53.0322 23.2917 52.916C23.5008 52.5497 23.4092 52.2613 22.9513 52.0727C23.0935 51.9948 23.263 51.9866 23.4106 52.0508C23.5596 52.1137 23.6703 52.2422 23.7113 52.3994C23.8165 52.7958 23.6553 53.2154 23.3108 53.4382C23.0402 53.6569 22.6547 53.6569 22.3814 53.4382C22.0752 53.188 21.821 52.8778 21.6296 52.5306C21.5932 52.4822 21.5593 52.4246 21.5249 52.3661C21.4058 52.1634 21.28 51.9492 21.0159 52.0659C20.7916 52.165 20.863 52.3437 20.9377 52.5307C20.9764 52.6274 21.0159 52.7263 21.0159 52.8176C20.6469 52.7985 20.2956 52.6427 20.0345 52.3803C19.8842 52.275 19.7202 52.1971 19.5644 52.3803C19.4072 52.5634 19.4919 52.6673 19.6095 52.7917C19.8722 53.0766 19.7957 53.3995 19.7235 53.7041C19.7112 53.7559 19.6991 53.8073 19.6887 53.8578C19.6149 54.1503 19.3334 54.3416 19.034 54.302C18.6746 54.302 18.4135 54.1243 18.3807 53.6487C18.4577 53.6872 18.532 53.7441 18.605 53.8001C18.8041 53.9527 18.9939 54.0981 19.2049 53.8441C19.4799 53.5128 19.3183 53.2706 19.148 53.0153L19.1256 52.9817C18.9493 52.7138 18.8058 52.4978 18.341 52.6673C17.8763 52.8368 17.6877 52.3529 17.726 52.0139C17.7451 51.5547 17.6303 51.0995 17.3938 50.7059C17.1861 50.1865 17.3023 49.5933 17.6877 49.1887C18.028 48.7568 18.4203 48.9263 18.8454 49.1887C19.7338 49.7833 20.2382 49.7122 21.128 49.0247C21.2838 48.9072 21.3877 48.7964 21.3166 48.5873C21.1266 48.031 21.4533 47.7563 21.8921 47.5663L21.9113 47.5583C23.0498 47.0825 23.05 47.0824 23.1017 45.8468C23.2413 45.8468 23.3259 45.9143 23.4092 45.9808C23.4858 46.0418 23.5612 46.102 23.6771 46.1079C23.6771 45.9789 23.6608 45.8568 23.6449 45.7372C23.6343 45.6578 23.6238 45.5795 23.6184 45.501C23.4448 44.2435 24.1678 43.0366 25.3583 42.5965C25.6332 42.4715 25.9154 42.3611 26.2 42.2498C26.4504 42.1519 26.7027 42.0532 26.9534 41.9432C27.6368 41.6835 28.2423 41.2529 28.7125 40.6939C28.7372 40.665 28.7608 40.6285 28.7849 40.5911C28.8636 40.469 28.9484 40.3376 29.098 40.4328C29.2376 40.5201 29.1791 40.648 29.1196 40.7779C29.0953 40.8311 29.0708 40.8846 29.0597 40.9358C28.8355 41.6138 28.3038 42.1455 27.6273 42.3683C26.9739 42.6334 26.3383 42.9396 25.7246 43.284C25.1109 43.649 24.7597 44.331 24.8157 45.0431H24.9852C26.7703 42.9628 29.1567 42.1004 31.7728 41.6944C32.0033 41.6596 32.2343 41.6263 32.4655 41.5929C33.1062 41.5004 33.7493 41.4075 34.3889 41.283C36.2136 40.9235 37.0037 40.3153 38.4101 38.3143C38.4375 39.3722 37.9495 40.3782 37.1021 41.0151C36.1234 41.6616 35.0013 42.058 33.8326 42.1714C32.3428 42.345 30.8844 42.7236 29.4971 43.2963C28.2902 43.8089 27.265 44.6727 26.5543 45.7744C26.5342 45.8061 26.5115 45.8382 26.4884 45.8709C26.3918 46.0074 26.2892 46.1526 26.352 46.3047C26.4088 46.4431 26.57 46.4248 26.7242 46.4074C26.7816 46.4008 26.8381 46.3944 26.8878 46.3963C27.7489 46.3785 28.5991 46.1803 29.3795 45.814L29.3927 45.8092C29.6905 45.6994 30.0321 45.5735 29.9809 46.1284C29.9809 46.3949 30.1573 46.3798 30.3199 46.3658L30.3472 46.3635C30.501 46.3635 30.6547 46.3423 30.8085 46.3211C30.9623 46.2999 31.1161 46.2787 31.2698 46.2787C31.312 46.2787 31.3587 46.2762 31.4073 46.2735C31.7132 46.2567 32.0902 46.2361 31.8248 46.8282C31.7354 47.0385 31.9 47.0724 32.0387 47.1011L32.0735 47.1084C32.2692 47.158 32.466 47.2035 32.6629 47.249C32.9597 47.3176 33.2569 47.3863 33.5511 47.4692C34.0431 47.6059 34.1525 47.7891 33.7875 48.1691C33.5511 48.411 33.6167 48.5408 33.9242 48.6133C34.0643 48.6457 34.2001 48.6826 34.335 48.7192C34.4962 48.763 34.6565 48.8066 34.8208 48.8415C35.1216 48.9072 35.3758 48.9728 35.4742 49.2475C35.559 49.483 35.3515 49.6475 35.1631 49.797C35.1328 49.821 35.1031 49.8446 35.0751 49.868L34.8332 50.0785C35.1585 50.2152 35.507 50.2904 35.8596 50.2999C35.9782 50.3258 36.1018 50.335 36.2256 50.3441C36.5728 50.3698 36.9219 50.3957 37.1677 50.7906C37.2661 50.9683 37.5996 50.9219 37.821 50.8426C37.9935 50.7822 37.9464 50.6113 37.9043 50.4585C37.892 50.414 37.8802 50.371 37.8743 50.3327C37.6379 49.2776 37.5217 48.1978 37.5272 47.1152C37.5736 46.533 37.1349 46.4154 36.6387 46.4031C35.8692 46.3334 35.2227 45.7935 35.0163 45.05C34.799 44.3802 35.0026 43.6476 35.533 43.1856C35.6232 43.0872 35.7653 43.0585 35.8856 43.1132C35.6286 43.5301 35.5152 44.0194 35.5589 44.5073L35.5667 44.5399C35.5727 44.5659 35.5784 44.5922 35.5842 44.6187L35.5846 44.6206C35.6304 44.831 35.6779 45.0497 35.8665 45.1607C36.0096 45.2441 36.0686 45.1285 36.1306 45.0072C36.1651 44.9396 36.2006 44.8703 36.2519 44.8326C36.636 44.5528 36.8094 44.7938 36.9947 45.051C37.0084 45.0702 37.0225 45.0896 37.0365 45.1087C37.0617 45.1411 37.0853 45.1803 37.1094 45.2205C37.1924 45.3587 37.282 45.5078 37.4684 45.4231C37.6455 45.3411 37.5984 45.1887 37.553 45.0416C37.5364 44.9878 37.52 44.9346 37.5149 44.886C37.4941 44.6996 37.4679 44.5132 37.4418 44.327C37.3186 43.4479 37.1957 42.5721 37.6379 41.7149C37.8921 41.0835 38.4785 40.6461 39.155 40.5832C39.5473 40.5148 39.93 40.739 40.064 41.1122C39.4106 40.9946 38.8885 40.9686 38.4826 41.5044C38.0766 42.0416 38.0903 42.3546 38.5933 42.7674C38.8489 42.9314 38.9295 43.269 38.7764 43.5328C38.5974 43.8066 38.5742 44.1075 38.5512 44.4063C38.538 44.5773 38.5249 44.7477 38.4826 44.9119C38.4074 45.1853 38.555 45.4696 38.8215 45.5653C38.8863 45.3548 38.9482 45.1461 39.0096 44.9388C39.1102 44.5995 39.2096 44.264 39.3191 43.9305C39.4694 43.4412 39.7742 43.0148 40.1884 42.7141C40.4631 42.468 40.8663 42.4284 41.1834 42.617C41.5005 42.781 41.6618 43.146 41.5689 43.4918C41.4357 43.5149 41.3989 43.4354 41.3628 43.3575C41.3455 43.3202 41.3284 43.2833 41.301 43.2581C40.9798 42.9437 40.6996 43.1214 40.418 43.3223C40.1835 43.4919 40.2893 43.6292 40.411 43.7872C40.4354 43.819 40.4605 43.8516 40.4836 43.8854C40.5998 44.0276 40.6504 44.2107 40.6244 44.3925C40.5984 44.5743 40.4973 44.737 40.3456 44.8395C40.1187 45.0404 39.9533 45.3015 39.8672 45.5912C39.5801 46.4742 40.0845 47.0496 41.0126 46.861C41.4636 46.7694 41.6673 46.9266 41.7124 47.3831C41.7124 47.6128 41.7124 47.8615 41.9871 47.9135C42.2851 47.9517 42.5721 47.7823 42.6801 47.5021C42.8933 47.0373 42.8933 46.5056 42.6801 46.0437C43.3266 46.6328 43.4113 47.6196 42.8769 48.3126C42.2058 48.7841 41.3051 48.7609 40.6599 48.2538C40.3456 47.9668 40.0052 47.6907 39.5419 47.8943C39.0771 48.0966 39.0635 48.5094 39.0703 48.9072C39.0881 49.2379 39.125 49.5687 39.1824 49.8954C39.2466 50.3724 39.4175 50.6991 40.012 50.6799C40.3223 50.6881 40.6189 50.8002 40.8554 50.9998C41.2613 51.321 41.398 51.1433 41.5552 50.777C41.5886 50.6995 41.6158 50.6187 41.6425 50.5394C41.7416 50.2449 41.8341 49.9704 42.2099 49.9596C42.5544 49.9497 42.6636 50.1794 42.7739 50.4112C42.8164 50.5004 42.859 50.5899 42.9152 50.6663C42.9699 50.7223 43.03 50.7756 43.0929 50.8234C43.2022 50.5555 43.2952 50.3136 43.3867 50.0717C43.6806 49.3336 43.8829 49.2926 44.4583 49.9008C44.6566 49.6698 44.6934 49.3948 44.7295 49.1247C44.7507 48.9666 44.7716 48.8101 44.8246 48.6652C44.8404 48.6231 44.8542 48.5789 44.8679 48.535C44.9459 48.2856 45.0217 48.0433 45.4329 48.221C45.711 48.3391 45.7461 48.1586 45.7802 47.9837C45.7895 47.9361 45.7988 47.8885 45.8129 47.8479C45.8509 47.7387 45.8572 47.6081 45.8635 47.4774C45.8797 47.1384 45.8961 46.7977 46.4662 46.8214C46.5837 46.8214 46.5783 46.6054 46.5714 46.4742C46.5714 46.1407 46.5714 45.8209 46.525 45.4805C46.525 45.3042 46.525 45.0363 46.7218 45.0431C47.2309 45.0431 47.1897 44.7997 47.1471 44.5485C47.1317 44.4578 47.1162 44.3661 47.1264 44.2846C47.1401 44.163 47.0998 44.0256 47.0594 43.8878C46.9626 43.5578 46.8651 43.2253 47.5063 43.1009C47.6276 43.1009 47.5957 42.8968 47.5652 42.7015C47.553 42.6237 47.5411 42.5473 47.5392 42.4858C47.5392 42.3458 47.5034 42.2034 47.4678 42.0613C47.3769 41.6983 47.2865 41.3378 47.7934 41.0274C47.9485 40.9377 47.8521 40.6161 47.7685 40.3374C47.749 40.2723 47.7302 40.2096 47.7155 40.1526C47.7001 40.0499 47.6668 39.9439 47.6333 39.8371C47.5236 39.4877 47.4109 39.129 47.9123 38.8432C47.9379 38.8432 47.9292 38.7528 47.9207 38.6634C47.9165 38.6191 47.9123 38.5751 47.9123 38.5425C47.7455 37.9931 47.6116 37.4354 47.5132 36.8682C47.5132 36.7506 47.4271 36.685 47.3164 36.6331C46.8065 36.3843 45.8976 35.9797 45.642 36.8299C45.5059 37.2836 45.5213 37.8178 45.5365 38.3448C45.5569 39.056 45.5771 39.7542 45.2238 40.2237C44.6087 41.0411 44.1248 41.5318 43.3471 40.4848C43.3471 40.4848 44.6552 40.642 44.5444 39.8314C44.1727 39.543 44.1002 39.0113 44.3804 38.6341C44.6941 38.2607 44.569 38.0999 44.4427 37.9376C44.361 37.8325 44.2788 37.7269 44.3148 37.5625C44.3406 37.4441 44.4009 37.3113 44.4617 37.1771C44.6164 36.8359 44.7748 36.4863 44.3804 36.346C44.0275 36.2196 43.9689 36.0639 43.9012 35.8839C43.8635 35.7837 43.8229 35.6759 43.7271 35.5615C43.6341 35.4506 43.5321 35.4163 43.4428 35.3862C43.2735 35.3293 43.1502 35.2878 43.2227 34.7687C43.2227 34.7687 42.3343 34.8945 42.2687 34.3313C42.2307 34.0064 42.4205 33.8036 42.5656 33.6485C42.6713 33.5355 42.7533 33.4478 42.7061 33.3568C42.6063 33.1832 42.4313 33.0643 42.2318 33.037C42.0322 33.0096 41.8313 33.0739 41.685 33.2133C41.234 33.6192 41.2026 33.0493 41.3133 32.9577C41.614 32.5244 42.1443 32.3125 42.661 32.4219C42.661 32.4219 42.4969 32.2196 42.4641 32.1991C42.3345 32.0994 42.2157 32.0892 42.0857 32.0782C42.0198 32.0725 41.9509 32.0667 41.8764 32.0487C41.4964 31.964 41.5169 31.3107 41.8176 31.1466C42.3534 30.8528 41.7055 30.317 41.2805 30.414L40.3592 30.6231C40.3972 30.5764 40.441 30.5134 40.4905 30.4421C40.7651 30.0471 41.2161 29.3983 41.8368 29.8523C42.337 30.2623 42.7771 30.7393 43.1448 31.271C43.1448 31.271 44.4064 30.82 44.5827 31.8724C44.6375 32.1967 44.6585 32.5024 44.6778 32.7839C44.7212 33.4158 44.7562 33.9251 45.1458 34.2466C45.7076 34.7113 47.1988 34.8999 47.7606 34.9532C47.7346 34.8781 47.6977 34.807 47.6512 34.7441L47.0813 33.8543C47.0604 33.8214 47.0388 33.7888 47.0174 33.7564C46.817 33.4535 46.6307 33.1719 47.1851 32.9126C47.3678 32.8343 47.2979 32.6946 47.2314 32.5617C47.2143 32.5275 47.1974 32.4937 47.1851 32.4615C47.1144 32.2863 47.0092 32.129 46.9038 31.9714C46.7181 31.6938 46.5318 31.4152 46.5318 31.0359C46.5318 30.883 46.3921 30.8558 46.2556 30.8292C46.2055 30.8195 46.1558 30.8098 46.1136 30.794C45.2907 30.5439 44.5704 30.034 44.0606 29.3424C44.2299 29.2858 44.3913 29.3295 44.5471 29.3717C44.7333 29.4222 44.9115 29.4704 45.0857 29.3424C45.0857 29.1709 44.9657 29.1079 44.8481 29.0462C44.813 29.0278 44.7782 29.0095 44.7467 28.9884C43.3881 28.1793 42.3548 26.9177 41.8299 25.4251C41.3201 24.0446 40.705 22.7311 39.2671 22.0504C39.155 22.0053 39.0443 21.8618 39.1304 21.7962C39.6259 21.421 39.2947 21.2979 39.0458 21.2055C38.9864 21.1834 38.9316 21.1631 38.894 21.1415C37.8347 20.4102 36.6934 19.8047 35.4933 19.3373C35.5737 19.5565 35.7411 19.6777 35.9033 19.7952C35.9535 19.8315 36.0032 19.8675 36.0496 19.9059C39.5419 22.835 40.8103 26.5896 39.6526 30.9375C38.5864 35.1747 35.6437 37.7443 31.3874 38.876C30.569 39.088 29.7388 39.1142 28.9083 39.1405C28.3519 39.1581 27.7951 39.1757 27.2418 39.2492C22.3568 39.9025 17.7068 43.9442 16.4904 48.724C16.4261 48.9987 16.3674 49.2803 16.3263 49.5619C16.351 48.9632 16.4261 48.3686 16.5491 47.7823C16.8826 46.0081 16.6325 44.1725 15.837 42.5514C14.4183 40.3276 15.2616 36.6659 15.2616 36.6659C13.6146 38.6505 12.8368 41.216 13.1034 43.7802C11.142 39.6346 14.7982 36.1629 16.6216 34.7633L17.0207 34.632C14.9609 37.5488 15.3532 40.3536 16.7911 43.2116C16.986 43.0166 16.9555 42.8048 16.927 42.6069C16.9202 42.5592 16.9134 42.5123 16.91 42.4667C16.8719 41.9221 16.7996 41.3775 16.7274 40.833C16.6261 40.0697 16.5249 39.3065 16.5177 38.5439C16.422 37.1798 17.1874 35.9018 18.4326 35.3387C18.4614 35.3243 18.4904 35.3052 18.5195 35.286C18.6234 35.2176 18.7293 35.148 18.8317 35.2867C18.9463 35.4406 18.8609 35.5497 18.7764 35.6577C18.7641 35.6734 18.7518 35.6892 18.7402 35.705C18.4764 35.9647 18.177 36.1834 17.8517 36.3583C17.0726 36.8764 16.7924 37.8892 17.197 38.7325C17.3379 38.636 17.3059 38.5226 17.2737 38.4086C17.2534 38.3368 17.2331 38.2648 17.2558 38.1967C17.2663 38.1445 17.2745 38.091 17.2828 38.0377C17.3315 37.7228 17.3787 37.4175 17.8709 37.4573C18.0732 37.4573 18.1784 37.3069 18.2167 37.1169C18.2946 36.8518 18.46 36.6208 18.6882 36.4636C18.8454 36.3269 19.1065 36.3201 19.0737 36.5483C19.0603 36.6603 19.0726 36.7793 19.0849 36.8993C19.1144 37.1852 19.1445 37.4778 18.8317 37.6992C18.6363 37.8427 18.4463 38.1106 18.6226 38.3006C18.8003 38.4906 19.0668 38.3594 19.276 38.1571C19.358 38.0915 19.4454 38.0341 19.5384 37.9876C19.6231 38.6409 19.1789 38.7585 18.6691 38.8624C18.8755 38.9471 19.101 38.9758 19.3224 38.9485C19.3782 38.9485 19.4288 38.9039 19.4791 38.8596C19.5707 38.779 19.6613 38.6992 19.7803 38.8897C19.7878 38.9022 19.7955 38.9148 19.8034 38.9275C19.8768 39.047 19.9571 39.1777 19.8979 39.3134C19.7953 39.5184 19.5644 39.625 19.3416 39.569C19.318 39.569 19.2935 39.5589 19.2689 39.5488C19.2194 39.5284 19.1694 39.5078 19.1256 39.569C19.6423 39.9681 20.2245 39.7057 20.6496 38.9157C21.1157 38.0423 21.0405 36.9789 20.4542 36.182C20.3488 35.9933 20.2389 35.8054 20.1297 35.6188C20.049 35.481 19.9688 35.3439 19.891 35.2075L19.8679 35.1657C19.7666 34.9842 19.6488 34.7729 19.891 34.6334C20.1289 34.4981 20.4241 34.5159 20.6428 34.6785C21.441 35.2006 21.7294 35.1364 22.2256 34.2534C22.5003 33.7696 22.6766 33.5987 22.8803 34.3382C23.1413 34.0648 23.2356 33.6739 23.1277 33.3117C23.047 32.9672 23.0252 32.6105 23.0634 32.2592C23.1017 32.0556 23.1673 31.8464 23.3641 31.7754C23.5596 31.7029 23.6648 31.8984 23.7291 32.0556C23.7947 32.2128 23.9655 32.2196 24.0626 32.0556C24.217 31.8505 24.3496 31.6319 24.4617 31.4022L24.47 31.3838C24.7952 30.6641 24.7969 30.6604 25.6385 30.2131C25.8929 30.8125 25.6106 31.2183 25.292 31.6762C25.1348 31.9022 24.9687 32.1409 24.854 32.4219H24.895C25.931 31.8615 26.8495 31.107 27.6013 30.1994C27.8118 29.9261 27.9977 29.6349 28.1562 29.3288C28.5526 28.4677 28.7754 27.5368 28.8109 26.5896C29.0761 26.9081 29.2579 27.2867 29.3399 27.694C29.4055 27.9442 29.4233 28.2039 29.3932 28.4595C29.3577 28.7971 29.2729 29.1265 29.1444 29.4408C29.2893 29.2864 29.4219 29.1224 29.5435 28.9488C29.7308 28.6713 29.8825 28.3706 29.9946 28.0535C30.2324 27.2608 30.0192 26.401 29.4383 25.8119C29.2879 25.652 29.1189 25.5116 28.936 25.3934C29.9911 25.873 30.8322 26.7276 31.2958 27.7924C31.9054 29.0677 32.0694 30.5124 31.7605 31.8929C31.1579 33.7762 29.3708 34.2746 27.6311 34.7598L27.6294 34.7603C27.4796 34.8021 27.33 34.8438 27.1817 34.8863C24.9196 35.5423 21.657 36.7041 21.2975 38.5357C22.7175 36.4462 25.3444 36.0892 27.8728 35.7456C29.2213 35.5623 30.5418 35.3828 31.6361 34.9464C33.9433 34.017 34.9056 32.1403 35.0942 29.8194C35.1667 29.1196 35.1735 27.0598 35.1735 27.0598C36.8998 30.7421 36.2123 34.5145 31.7141 35.9401C30.4497 36.2517 29.1649 36.4704 27.8692 36.5934C23.3505 37.3452 20.1398 39.8834 18.028 43.8977C17.9884 43.977 17.9597 44.0618 17.9419 44.1465C17.9419 44.1793 17.9419 44.2258 17.9829 44.2777C18.1893 44.1717 18.3058 43.9874 18.4209 43.8055C18.4689 43.7296 18.5167 43.654 18.5707 43.5847C20.9052 40.2962 24.6927 38.3457 28.7262 38.3525C31.7236 38.2801 34.553 36.9515 36.5239 34.6935C38.4962 32.4342 39.4298 29.4518 39.0963 26.4721C38.9637 25.19 38.3555 24.0036 37.3905 23.1507C35.6765 21.7114 32.8116 21.6786 30.9035 22.712C30.594 22.8806 30.3096 23.0783 30.0281 23.274C29.4468 23.6782 28.8775 24.074 28.1234 24.1881C28.0782 24.1949 28.0314 24.206 27.9842 24.2171C27.7933 24.2623 27.5961 24.3089 27.4701 24.0788C27.3442 23.8478 27.42 23.7343 27.5022 23.6112C27.5225 23.5806 27.5435 23.5493 27.5616 23.5157C27.5946 23.4547 27.6233 23.3995 27.6539 23.3408C27.7083 23.2363 27.7686 23.1205 27.8692 22.9402L28.6278 23.3257C28.6278 23.3257 28.2615 22.1625 28.6278 21.8618C28.9941 21.5611 30.0083 21.3383 29.3207 22.332C29.3207 22.332 29.903 21.7114 30.1641 21.8153C30.4265 21.9206 30.2693 22.116 30.2693 22.116C30.6192 22.1065 30.9363 21.9124 31.1058 21.6062C31.7961 21.7538 32.4959 21.393 32.7733 20.7437C32.7733 20.7437 31.5897 21.1743 31.4653 20.5469C31.3425 19.9191 34.9079 19.437 36.4614 21.3889C36.3538 21.2523 36.277 21.1089 36.2012 20.9672C36.0822 20.745 35.9654 20.5268 35.7353 20.3446C35.2842 20.007 34.7607 19.7829 34.2044 19.6899C33.1766 19.5423 32.1268 19.6626 31.1578 20.0371C29.5886 20.5797 29.4383 20.3651 29.426 20.2913C29.452 20.253 29.482 20.2189 29.5176 20.1874C30.2031 19.941 30.629 19.4051 31.0474 18.8783C31.1513 18.7477 31.2547 18.6175 31.3614 18.4926C31.6936 18.1591 32.213 18.0962 32.6162 18.3422C32.3674 17.7873 32.4863 17.6315 33.003 17.7408C34.8372 18.1099 36.6346 18.6498 38.3705 19.3509C44.5294 22.2131 49.0864 27.679 50.7949 34.2534C50.7867 34.3696 50.7717 34.4858 50.7498 34.5992C49.4418 31.4979 47.4804 28.7151 45.0023 26.4393C45.3748 26.9536 45.777 27.4549 46.1798 27.9571C46.4836 28.3358 46.7879 28.7151 47.0799 29.1005C49.4718 32.0856 50.9753 35.6845 51.4168 39.4843C51.4619 39.9025 51.4824 40.3208 51.4947 40.7404C51.2924 46.4387 48.9306 51.8472 44.8902 55.8698C44.5895 56.1773 44.2752 56.4712 43.9553 56.7527L42.7525 57.7464V57.7478ZM8.21835 48.8169C7.69349 47.5089 7.29301 46.153 7.02238 44.7698C5.17169 35.2922 8.21835 27.5765 15.8097 21.6445C16.1131 21.3848 16.5136 21.27 16.9086 21.3301C17.715 21.3998 18.5283 21.3889 19.3347 21.2973L21.6488 21.0759C21.318 21.7073 20.8751 22.2746 20.3407 22.7489C20.2409 22.9129 20.0673 23.0181 19.8746 23.0318C19.6819 23.0455 19.4946 22.9635 19.373 22.8145C19.3332 22.7788 19.2948 22.7418 19.257 22.7055C18.991 22.4495 18.7545 22.222 18.2686 22.6505C18.0791 22.8035 17.7751 22.8104 17.4532 22.8177C17.2088 22.8232 16.9539 22.829 16.7309 22.8992C14.9349 23.5444 13.3713 24.7198 12.2532 26.2684C8.23201 31.2519 6.79275 36.9406 7.67572 43.2717C7.8288 44.3187 8.07346 45.352 8.40833 46.3567C8.42064 46.4318 8.48351 46.4892 8.55869 46.4933C7.86571 42.4202 7.82607 38.4181 9.09448 34.4557C9.06168 34.9245 9.13549 35.3934 9.31044 35.8294C9.43606 36.1124 9.62279 36.3627 9.80907 36.6123C10.0788 36.9737 10.3476 37.334 10.4285 37.7908C10.5372 38.4051 10.3 38.9156 10.0698 39.4111C10.0106 39.5385 9.95181 39.6649 9.89954 39.7918C9.83791 39.9399 9.77427 40.0904 9.70979 40.2428L9.70829 40.2464C9.17832 41.4991 8.59149 42.8862 8.59149 44.2312C8.59149 44.2312 10.6773 39.1248 12.0578 37.8823C12.7111 37.2878 12.286 36.7506 11.8541 36.2927C10.9151 35.4535 10.4012 34.237 10.4558 32.9782C10.4695 32.4752 10.5365 31.9763 10.6513 31.487C10.6513 31.4314 10.6766 31.3781 10.7013 31.326C10.7143 31.2988 10.7271 31.2718 10.736 31.245C11.7557 28.1998 14.1449 25.8092 17.1902 24.7909C17.7273 24.6173 18.2782 24.497 18.8386 24.4314C19.0928 24.3658 19.358 24.3535 19.6177 24.3918C19.1461 24.8401 18.7607 25.3691 18.4791 25.9554C17.7861 27.4726 17.8832 28.0931 17.8832 28.0931C17.8832 28.0931 18.3028 27.7077 18.5379 27.8512C18.5052 28.0422 18.4738 28.2362 18.4422 28.432C18.3719 28.8666 18.3003 29.3098 18.2098 29.747C18.1647 30.3088 17.7642 30.7776 17.2162 30.9115C16.7473 31.0453 16.4709 31.4973 16.213 31.9189L16.1569 32.0105C16.0038 32.2702 15.7372 32.441 15.4379 32.4752C14.9601 32.5679 14.4875 32.514 14.0149 32.4601C13.5885 32.4115 13.162 32.3629 12.7316 32.4219C12.245 32.4998 11.8104 32.7718 11.5288 33.1736C11.2445 33.5769 11.1365 34.0757 11.2281 34.561C11.2855 34.1154 11.429 33.9063 11.7694 33.9063C11.9693 33.9063 11.9659 34.0351 11.9624 34.1691C11.9599 34.2631 11.9573 34.3597 12.025 34.4161C12.1471 34.4161 12.1702 34.3359 12.1946 34.2513C12.1989 34.2365 12.2032 34.2216 12.2081 34.207C12.2409 34.1085 12.3516 33.8994 12.5279 33.9459C12.6743 33.983 12.6547 34.1184 12.6363 34.2452C12.6324 34.2724 12.6285 34.2992 12.6264 34.3245C12.6244 34.3453 12.6211 34.3683 12.6176 34.3928C12.5966 34.5389 12.5676 34.7413 12.763 34.8876C12.8742 34.7626 12.9683 34.6209 13.0624 34.4792C13.2738 34.1609 13.485 33.843 13.8879 33.7163C13.9085 33.7103 13.9286 33.7036 13.9486 33.6971C14.0561 33.6616 14.1561 33.6286 14.2611 33.7163C14.3841 33.8215 14.3595 33.991 14.2611 34.1359C14.2182 34.2186 14.1676 34.2973 14.1172 34.3757C13.9444 34.6445 13.7736 34.9102 13.9207 35.325C13.9917 35.5183 13.7427 35.6539 13.4732 35.8007C13.3691 35.8574 13.2619 35.9157 13.169 35.9797C14.0643 36.0125 14.6588 35.3715 14.79 34.2849C14.7613 33.8242 15.0033 33.3869 15.4119 33.1682C15.8974 32.9138 16.0246 33.1911 16.1478 33.4597C16.2053 33.585 16.2619 33.7085 16.3537 33.775C16.4644 33.8543 16.4712 33.9254 16.4316 33.991L16.2102 34.1742L16.1186 34.2466L15.9149 34.4243C10.2659 39.282 9.24483 44.6891 9.24483 44.6891C9.38151 44.1533 11.116 42.2439 11.116 42.2439C8.84709 48.1294 13.3385 53.8892 13.3385 53.8892C12.6865 52.5128 12.3134 51.0189 12.2409 49.4963C12.2409 48.1226 12.7371 47.2533 13.5025 46.1612C13.9563 45.5106 14.2652 44.7698 14.4046 43.9893C14.4813 43.5593 14.7348 42.0688 14.3951 41.6181C15.8448 43.3113 16.0629 45.7381 14.9336 47.6647C13.0706 51.3141 14.8884 53.5503 14.8884 53.5503C14.6274 52.3064 15.2479 49.9077 15.2479 49.9077C15.2971 51.7392 16.3428 53.3972 17.9747 54.2296C18.9425 55.2041 20.0796 55.4132 21.5326 54.4524C21.0296 55.7604 21.5326 56.6365 22.2447 57.4676C23.0375 58.2918 23.211 59.5315 22.6766 60.5402L22.6647 60.5613C22.539 60.7841 22.4133 61.0067 22.1272 61.0637C21.9896 60.968 22.025 60.8622 22.0596 60.7588C22.0725 60.7205 22.0852 60.6824 22.0889 60.6454C22.2474 59.6654 21.8839 58.6731 21.1266 58.0293C20.5143 57.6002 20.2204 56.8443 20.3817 56.113C20.4473 55.7672 20.3817 55.6292 19.9826 55.7276C19.4564 55.8616 18.9001 55.826 18.3944 55.6292C18.2527 55.7302 18.2864 55.8245 18.3185 55.9142L18.324 55.9298L18.3287 55.9436C18.531 56.4725 18.2235 56.4602 17.8709 56.3618C17.0043 56.0912 16.2238 55.5964 15.6088 54.9294C15.575 54.8959 15.5433 54.8528 15.5112 54.8091C15.4187 54.6831 15.3221 54.5516 15.1577 54.6287C14.9811 54.7121 15.0226 54.8891 15.0604 55.0501C15.0703 55.0922 15.0799 55.1333 15.0853 55.1713C15.1632 55.6497 15.2725 56.1213 15.4119 56.5846C15.5951 57.0493 15.74 57.5277 15.8439 58.017L15.7521 57.9472C15.5158 57.7673 15.282 57.5893 15.0388 57.4211C13.6542 56.4397 12.3995 55.2861 11.3046 53.9876C10.0499 52.409 9.01247 50.6704 8.21835 48.8156V48.8169ZM26.4228 28.5159C26.4519 28.4146 26.4809 28.3135 26.5189 28.2153C25.7195 30.0918 22.6575 30.4824 22.6575 30.4824C22.8666 30.4154 23.0593 30.3047 23.2192 30.1543C23.9314 29.5598 24.4603 28.7752 24.7433 27.8922C24.809 27.6824 24.8578 27.4685 24.9066 27.2545C24.9796 26.9347 25.0526 26.6149 25.182 26.3094C25.4007 25.7969 25.7123 25.3322 26.1032 24.9358C26.3274 24.7116 26.568 24.5039 26.8222 24.3152C26.9165 24.2332 27.0204 24.1635 27.1297 24.1061C24.72 24.8704 24.1675 26.3237 23.4409 28.2352L23.4024 28.3364C22.8311 29.639 21.7021 30.6122 20.3298 30.9853C21.9167 31.364 23.5897 31.1302 25.0112 30.332C25.5497 29.9889 25.9857 29.5078 26.2741 28.9378C26.3406 28.8017 26.3817 28.6586 26.4228 28.5159ZM19.5439 25.9035C20.0709 25.7387 20.5732 25.7766 21.0812 25.815C21.3991 25.839 21.7194 25.8631 22.0492 25.8379C22.5249 25.7723 22.9828 25.6124 23.3969 25.3677C23.3969 25.3677 22.7422 26.5978 21.7294 26.5637C21.5944 26.5595 21.448 26.5505 21.2936 26.541C20.2878 26.4793 18.9385 26.3965 18.1388 27.4794C18.1388 27.4794 18.27 25.3212 19.9963 24.3604C19.9963 24.3604 20.297 24.1512 21.0023 24.4191C20.0543 24.7328 19.2575 25.3922 18.7692 26.2642C18.8534 26.12 19.1686 26.0212 19.3934 25.9507C19.4488 25.9333 19.4988 25.9177 19.5384 25.9035H19.5439ZM24.4945 24.3016C25.0139 24.0282 25.4513 23.6182 25.7574 23.1179C25.6998 23.2133 25.6778 23.3469 25.6549 23.4862C25.6305 23.6343 25.6051 23.7888 25.5346 23.9107C25.2285 24.3617 24.7856 24.7021 24.2731 24.8838C24.0475 24.9905 23.8138 25.0725 23.5733 25.1326C23.4725 25.1621 22.8548 25.1386 22.7221 25.1335L22.6971 25.1326C22.8055 25.038 22.9282 24.9572 23.0515 24.876C23.2095 24.7719 23.3688 24.6671 23.5008 24.5312C23.8015 24.2209 23.9655 23.8041 23.9587 23.3735C23.9587 22.62 24.1785 21.7762 24.9557 21.4769C24.5834 21.6271 24.6089 22.2872 24.6346 22.9513C24.6553 23.4876 24.6761 24.0265 24.4877 24.3016H24.4945ZM23.5076 19.4494C23.7286 19.5407 23.8734 19.4307 23.9514 19.2088H23.945C24.0313 18.9728 23.8656 18.9237 23.7313 18.8839C23.7124 18.8783 23.694 18.8728 23.6771 18.8671L23.5047 18.8185C23.0985 18.7038 22.6906 18.5887 22.2775 18.5144C21.8866 18.4379 21.4861 18.5896 21.2442 18.9067L23.5076 19.4494ZM23.1864 20.6139C23.3053 20.7178 23.4366 20.8049 23.5771 20.8736C22.606 20.4789 21.5845 20.4801 20.5343 20.4812C19.7002 20.4822 18.848 20.4831 17.9884 20.2858C18.7142 19.8088 19.2965 19.4302 20.0879 19.7173C20.3202 19.7883 20.558 19.8375 20.8 19.8621C20.9769 19.8855 21.157 19.8981 21.337 19.9107C22.0097 19.9577 22.6818 20.0047 23.1864 20.6139ZM23.0498 26.4789C22.6894 26.6713 22.2969 26.7938 21.8907 26.8452H21.9057C21.7187 26.8662 21.4864 26.8658 21.2348 26.8652C20.3078 26.8633 19.1189 26.8608 18.9684 27.9305C19.6737 27.5724 20.4637 27.4138 21.251 27.4726C22.6315 27.5519 23.0306 26.8972 23.0306 26.8972C22.7368 27.6161 22.1559 28.1779 21.4273 28.4472C20.3612 28.6959 21.5777 28.7287 21.5777 28.7287C21.5777 28.7287 23.3573 28.3556 23.9122 25.7408C23.8535 26.0279 23.2657 26.3614 23.0498 26.4789ZM25.3583 24.4984C25.3583 24.4984 25.208 24.5367 25.6385 24.0528C25.9037 23.7535 26.0581 23.3735 26.0773 22.9744C26.0773 21.5351 27.0067 21.4504 27.0067 21.4504C26.7251 21.654 26.6595 22.2021 26.6595 22.686C26.6363 23.0373 26.5379 23.3776 26.3725 23.6865C26.8878 23.6865 27.6081 22.8691 27.6081 22.8691C27.4837 24.0145 25.3843 24.4984 25.3843 24.4984H25.3583ZM27.5288 19.5737C27.5288 19.2539 27.7188 19.0776 28.0195 19.1035C28.1302 19.1145 28.2314 19.1746 28.2956 19.2662C28.3585 19.3578 28.3804 19.4712 28.353 19.5806C28.353 19.8621 28.1959 20.0781 27.8952 20.1095C27.5944 20.1423 27.5357 19.8498 27.5548 19.5737H27.5288ZM28.5102 19.6325C28.5745 19.4275 28.5417 19.202 28.4186 19.0243C28.241 18.863 27.9908 18.8097 27.7639 18.8876C27.5206 18.9368 27.2937 19.0516 27.1106 19.2211C27.2746 19.0297 27.4865 18.8849 27.7257 18.8028C27.9854 18.6839 28.2902 18.7359 28.4952 18.9341C28.7002 19.1322 28.7631 19.4343 28.6537 19.6995C28.569 19.9441 28.4063 20.156 28.189 20.3009C28.3394 20.0972 28.4583 19.8731 28.5362 19.6325H28.5102ZM26.8755 18.2602C25.9515 18.7126 24.8772 18.7482 23.9259 18.3573C23.9016 18.3479 23.875 18.3402 23.8481 18.3324C23.7452 18.3026 23.6374 18.2714 23.632 18.1413C23.6256 17.986 23.7722 17.9557 23.8922 17.9309L23.9122 17.9267C26.1511 17.4183 28.4514 17.2501 30.7395 17.4292C30.7725 17.4292 30.8032 17.4528 30.8429 17.4834C30.8658 17.501 30.8917 17.5209 30.9227 17.5399L29.8634 18.2274C29.754 18.3012 29.6078 18.3012 29.4971 18.2274C28.6756 17.8283 27.7134 17.8392 26.9001 18.2602H26.8755Z" fill="black"/>
<path fill-rule="evenodd" clip-rule="evenodd" d="M28.9424 15C18.8552 14.9986 9.76311 21.0714 5.90047 30.3891C2.03919 39.7054 4.17143 50.4295 11.2994 57.5643C18.4315 64.6964 29.1556 66.8314 38.4746 62.9714C47.7923 59.1129 53.8678 50.0208 53.8678 39.935C53.8692 26.1683 42.709 15.0041 28.9424 15.0014V15ZM28.9424 16.0087C38.6209 16.0074 47.3467 21.8382 51.0508 30.78C54.7549 39.7231 52.7046 50.0167 45.8582 56.859C39.8141 62.9031 31.0022 65.265 22.7452 63.0507C14.4882 60.8392 8.03818 54.3891 5.82392 46.1322C3.6124 37.8738 5.97427 29.0633 12.0184 23.0192C16.4947 18.5114 22.5908 15.9868 28.9424 16.006V16.0087Z" fill="black"/>
<path d="M114.758 35.0146V24.3831H115.273L122.454 31.4742V24.3506H124V34.9821H123.607L116.295 27.6209V34.9821L114.758 35.0146Z" fill="black"/>
<path d="M124 36.495H61.6622V35.9719H124V36.495Z" fill="black"/>
<path d="M92.6507 51.2089H90.8352C90.695 51.2072 90.5548 51.2345 90.4266 51.2909C90.1822 51.4038 89.9839 51.6021 89.871 51.8465C89.8197 51.9764 89.7907 52.1149 89.789 52.2568V54.71C89.7907 54.8501 89.8197 54.9886 89.871 55.1185C89.924 55.2433 90.0027 55.3579 90.1001 55.4536C90.1941 55.5459 90.3053 55.6194 90.4266 55.6758C90.5548 55.7305 90.695 55.7579 90.8369 55.7562H92.6507C92.7088 55.7613 92.7653 55.7391 92.8063 55.6981C92.849 55.6553 92.8712 55.5955 92.8712 55.5357V55.11C92.8747 55.0484 92.8507 54.9903 92.8063 54.9459C92.767 54.9031 92.7105 54.8792 92.6524 54.8809H90.8352C90.7908 54.8895 90.7463 54.8689 90.7207 54.8313C90.6848 54.8023 90.6625 54.7561 90.6642 54.71V53.8911H92.6507C92.7088 53.8997 92.7687 53.8791 92.8063 53.8347C92.849 53.7902 92.8712 53.7321 92.8712 53.6706V53.2449C92.8712 53.1851 92.849 53.1252 92.8063 53.0825C92.767 53.038 92.7105 53.0141 92.6524 53.0158H90.6301V52.1987C90.6301 52.1508 90.6506 52.1064 90.6865 52.0756C90.7155 52.0414 90.7566 52.0243 90.801 52.026H92.6165C92.6746 52.026 92.7293 52.0072 92.7721 51.9696C92.8148 51.9252 92.8371 51.867 92.8371 51.8055V51.373C92.8371 51.2499 92.7379 51.1507 92.6165 51.1507L92.6507 51.2089Z" fill="black"/>
<path d="M63.3068 51.1593C63.5889 51.1559 63.8675 51.2191 64.1239 51.3388C64.3564 51.4516 64.553 51.6243 64.6949 51.838C64.8419 52.0858 64.9137 52.3696 64.9001 52.6568V52.7218L64.8607 52.8192H64.2539C64.206 52.8192 64.1598 52.8021 64.1239 52.7714C64.088 52.7337 64.0675 52.6825 64.0675 52.6312C64.0761 52.4312 64.0026 52.2363 63.8624 52.0927C63.7068 51.9559 63.5034 51.8824 63.2982 51.8875C63.088 51.879 62.8828 51.9525 62.7256 52.0927C62.5854 52.2363 62.5102 52.4312 62.5204 52.6312V54.2689C62.5119 54.4655 62.5854 54.6587 62.7256 54.7989C62.8794 54.9425 63.0863 55.0177 63.2965 55.004C63.5034 55.0125 63.7068 54.9425 63.8607 54.8074C64.0009 54.6621 64.0744 54.4672 64.0658 54.2672C64.0675 54.2159 64.088 54.1663 64.1239 54.127C64.1667 54.1168 64.2111 54.1168 64.2539 54.127H64.7206C64.7701 54.127 64.818 54.1441 64.8522 54.1783C64.8915 54.2142 64.912 54.2655 64.9103 54.3168C64.9206 54.604 64.8488 54.8877 64.7052 55.1339C64.5633 55.3596 64.3633 55.5408 64.1239 55.657C63.8709 55.787 63.5906 55.8502 63.3068 55.8451C63.023 55.8502 62.7409 55.7852 62.4879 55.657C62.2452 55.5374 62.0435 55.3459 61.9067 55.11C61.7648 54.8621 61.6947 54.5783 61.7015 54.2928V52.7047C61.6947 52.4192 61.7648 52.1371 61.9067 51.8875C62.0486 51.6585 62.2486 51.4721 62.4879 51.3473C62.7426 51.2242 63.023 51.1593 63.3068 51.1593Z" fill="black"/>
<path d="M72.0236 51.2089H72.492C72.5433 51.2054 72.5946 51.226 72.6288 51.2653C72.663 51.3029 72.6801 51.3542 72.6801 51.4055V55.5681C72.6835 55.6194 72.6664 55.6707 72.6288 55.7066C72.5929 55.7425 72.5416 55.7613 72.4903 55.7562H72.0407C71.9689 55.7596 71.9006 55.7254 71.8612 55.6656L70.1517 52.8756V55.5767C70.15 55.6297 70.1295 55.6775 70.0936 55.7152C70.0577 55.7476 70.0064 55.7664 69.9551 55.7647H69.4884C69.4388 55.7664 69.3893 55.7493 69.3499 55.7152C69.3175 55.6775 69.2987 55.628 69.3004 55.5767V51.414C69.2987 51.3627 69.3158 51.3131 69.3499 51.2738C69.3858 51.2345 69.4371 51.214 69.4884 51.2174H69.9466C70.0184 51.2208 70.085 51.2567 70.1278 51.3149L71.8288 54.0962V51.4055C71.8288 51.3525 71.8493 51.3029 71.8869 51.2653C71.9211 51.226 71.9724 51.2054 72.0236 51.2089Z" fill="black"/>
<path d="M75.7777 51.3388C75.5213 51.2191 75.2427 51.1576 74.9606 51.1593C74.6768 51.1593 74.3965 51.2225 74.1434 51.3473C73.9007 51.467 73.699 51.6551 73.5622 51.8875C73.4203 52.1371 73.3502 52.4192 73.3571 52.7047V54.2928C73.3502 54.5783 73.4203 54.8621 73.5622 55.11C73.6938 55.3493 73.8973 55.5408 74.1434 55.657C74.3965 55.787 74.6768 55.8502 74.9606 55.8451C75.2444 55.8502 75.5247 55.7852 75.7777 55.657C76.0171 55.5425 76.2154 55.3613 76.3504 55.1339C76.4957 54.8877 76.5675 54.604 76.5556 54.3168C76.5624 54.2655 76.5436 54.2142 76.506 54.1783C76.4718 54.1441 76.4239 54.127 76.3761 54.127H75.9008C75.8581 54.115 75.8119 54.115 75.7709 54.127C75.7265 54.1612 75.7059 54.2142 75.7128 54.2672C75.7196 54.4689 75.6427 54.6638 75.5008 54.8074C75.1726 55.0758 74.7007 55.0758 74.3725 54.8074C74.2306 54.6689 74.1554 54.474 74.1674 54.2757V52.6397C74.1537 52.4397 74.2289 52.2414 74.3725 52.0995C74.5264 51.9628 74.7281 51.8893 74.9367 51.8944C75.1452 51.8824 75.3486 51.9559 75.5008 52.0995C75.6427 52.2431 75.7196 52.438 75.7128 52.6397C75.7059 52.6927 75.7265 52.7474 75.7709 52.7799C75.8051 52.8124 75.853 52.8312 75.9008 52.8278H76.5145V52.6568C76.5265 52.3696 76.4564 52.0858 76.3094 51.838C76.1812 51.6277 75.9966 51.455 75.7777 51.3388Z" fill="black"/>
<path d="M77.3402 51.2089H77.8069C77.8599 51.2054 77.9112 51.226 77.9454 51.2653C77.983 51.3029 78.0018 51.3542 77.995 51.4055V55.5681C78.0018 55.6211 77.983 55.6724 77.9454 55.7066C77.9078 55.7408 77.8582 55.7579 77.8069 55.7562H77.3402C77.289 55.7579 77.2394 55.7408 77.2018 55.7066C77.1642 55.6707 77.1454 55.6194 77.1522 55.5681V51.4055C77.1454 51.3542 77.1642 51.3012 77.2018 51.2653C77.2377 51.226 77.289 51.2054 77.3402 51.2089Z" fill="black"/>
<path d="M81.5286 51.2089H79.7131C79.5712 51.2054 79.4327 51.2345 79.3028 51.2909C79.0583 51.4038 78.8617 51.6021 78.7472 51.8465C78.6959 51.9764 78.6685 52.1149 78.6651 52.2568V54.71C78.6685 54.8501 78.6959 54.9886 78.7472 55.1185C78.8019 55.2433 78.8788 55.3579 78.9763 55.4536C79.072 55.5459 79.1814 55.6194 79.3028 55.6758C79.4327 55.7305 79.5712 55.7596 79.7131 55.7562H81.5286C81.585 55.7596 81.6414 55.7391 81.6824 55.6981C81.7252 55.6553 81.7491 55.5955 81.7491 55.5357V55.11C81.7508 55.0484 81.7269 54.9903 81.6841 54.9459C81.6431 54.9048 81.5867 54.8809 81.5286 54.8809H79.7131C79.6652 54.886 79.619 54.8672 79.59 54.8313C79.5592 54.7971 79.5404 54.7544 79.5404 54.71V53.8911H81.5286C81.5867 53.8979 81.6448 53.8774 81.6824 53.8347C81.7252 53.7902 81.7491 53.7321 81.7491 53.6706V53.2449C81.7491 53.1851 81.7252 53.1252 81.6841 53.0825C81.6431 53.0398 81.5867 53.0141 81.5286 53.0158H79.5404V52.1987C79.5404 52.1525 79.5575 52.1081 79.59 52.0756C79.6225 52.0414 79.6669 52.0243 79.7131 52.026H81.5286C81.585 52.026 81.6397 52.0055 81.6824 51.9696C81.7252 51.9252 81.7491 51.867 81.7491 51.8055V51.373C81.7491 51.3131 81.7269 51.2567 81.6841 51.2174C81.6346 51.1952 81.5798 51.1918 81.5286 51.2089Z" fill="black"/>
<path d="M87.6384 51.161C87.9222 51.1542 88.2025 51.2191 88.4555 51.349C88.7 51.4738 88.9017 51.6653 89.0351 51.9046C89.1718 52.132 89.2402 52.3919 89.2402 52.6568C89.2402 52.7098 89.218 52.7577 89.1838 52.7953C89.1462 52.8278 89.0949 52.8466 89.0436 52.8449H88.5786C88.5273 52.8466 88.4778 52.8295 88.4385 52.7953C88.406 52.7577 88.3872 52.7081 88.3906 52.6568V52.5987C88.3991 52.4107 88.3239 52.2277 88.1854 52.0995C88.0282 51.9662 87.8264 51.8961 87.6213 51.9029C87.411 51.8961 87.2059 51.9696 87.0486 52.1081C86.9084 52.2517 86.8349 52.4483 86.8435 52.6483V54.2843C86.8332 54.486 86.9101 54.6826 87.0572 54.8228C87.2196 54.9664 87.4298 55.0399 87.6469 55.0279C87.8435 55.045 88.0401 54.9818 88.194 54.857C88.329 54.7339 88.4025 54.5561 88.3889 54.3732V54.0073H87.6709C87.6196 54.0073 87.57 53.9902 87.5307 53.9561C87.4965 53.9202 87.476 53.8689 87.4743 53.8176V53.4329C87.4743 53.38 87.4965 53.3321 87.5307 53.2945C87.5683 53.262 87.6196 53.2432 87.6709 53.2449H89.0607C89.112 53.2432 89.1616 53.2603 89.1992 53.2945C89.2351 53.3304 89.2573 53.3817 89.2573 53.4329V54.2518C89.2812 54.6912 89.1223 55.1202 88.8145 55.4365C88.4932 55.7237 88.0692 55.8707 87.6384 55.8468C87.3546 55.8502 87.0743 55.7853 86.8195 55.6587L86.8777 55.5442L86.8195 55.657C86.5768 55.5374 86.3751 55.3459 86.2383 55.11C86.0964 54.8621 86.0246 54.5783 86.0332 54.2928V52.7132C86.0246 52.426 86.0964 52.144 86.2383 51.8961C86.3768 51.6619 86.5785 51.4721 86.8195 51.349C87.0743 51.2242 87.3546 51.161 87.6384 51.161Z" fill="black"/>
<path d="M104.535 51.2089H105.108V51.1849L105.238 51.2431V51.414L103.954 53.809V55.5186C103.956 55.5699 103.939 55.6194 103.904 55.6587C103.869 55.6946 103.817 55.7152 103.766 55.7152H103.299C103.192 55.7152 103.103 55.628 103.103 55.5186V53.809L101.836 51.4208V51.3388C101.839 51.2909 101.858 51.2431 101.892 51.2089C101.933 51.1952 101.976 51.1952 102.015 51.2089H102.523C102.557 51.1986 102.595 51.1986 102.629 51.2089C102.663 51.2277 102.694 51.2567 102.711 51.2909L103.528 52.9269L104.347 51.2909C104.361 51.2533 104.392 51.226 104.429 51.2089C104.464 51.1986 104.501 51.1986 104.535 51.2089Z" fill="black"/>
<path d="M109.148 51.2089H108.689C108.621 51.2089 108.554 51.2379 108.51 51.2909L107.529 52.7611L106.547 51.2995C106.508 51.2379 106.44 51.2003 106.366 51.2003H105.901C105.848 51.1969 105.797 51.2174 105.761 51.2584C105.727 51.2961 105.705 51.3439 105.705 51.3969V55.5596C105.705 55.6109 105.725 55.6622 105.761 55.6981C105.8 55.7323 105.85 55.7493 105.901 55.7493H106.366C106.417 55.7493 106.469 55.7323 106.506 55.6981C106.541 55.6605 106.558 55.6109 106.554 55.5613V52.8192L107.235 53.8347C107.277 53.8877 107.344 53.9202 107.414 53.9236H107.643C107.718 53.9236 107.789 53.8877 107.831 53.8261L108.493 52.8124V55.5681C108.489 55.6194 108.51 55.6707 108.551 55.7066C108.589 55.7408 108.638 55.7579 108.689 55.7562H109.148C109.199 55.7579 109.248 55.7408 109.286 55.7066C109.325 55.6724 109.348 55.6211 109.344 55.5681V51.4055C109.344 51.296 109.255 51.2089 109.148 51.2089Z" fill="black"/>
<path d="M111.076 51.2089H112.869C112.922 51.1918 112.98 51.1952 113.032 51.2174C113.071 51.2584 113.093 51.3148 113.088 51.373V51.8055C113.091 51.867 113.071 51.9252 113.032 51.9696C112.984 52.0072 112.927 52.0277 112.868 52.0277H111.052C110.96 52.0311 110.888 52.1064 110.888 52.1987V53.0158H112.891C112.953 53.0158 113.011 53.0398 113.056 53.0825C113.095 53.1252 113.117 53.1851 113.112 53.2449V53.6706C113.117 53.7321 113.097 53.7902 113.056 53.8347C113.011 53.8774 112.953 53.8979 112.891 53.8911H110.912V54.71C110.91 54.7561 110.927 54.8006 110.961 54.8313C110.989 54.8672 111.031 54.886 111.076 54.8809H112.891C112.953 54.8809 113.011 54.9048 113.056 54.9459C113.097 54.9903 113.117 55.0502 113.112 55.11V55.5357C113.121 55.5972 113.1 55.657 113.057 55.6998C113.013 55.7442 112.953 55.7647 112.891 55.7562H111.076C110.936 55.7579 110.796 55.7288 110.666 55.6758C110.546 55.6177 110.437 55.5442 110.341 55.4536C110.243 55.3579 110.166 55.245 110.119 55.1185C110.064 54.9886 110.037 54.8501 110.037 54.71V52.2568C110.037 52.1149 110.064 51.9764 110.119 51.8465C110.168 51.7217 110.243 51.6106 110.341 51.52C110.435 51.4243 110.546 51.3473 110.666 51.2909C110.796 51.2345 110.936 51.2089 111.076 51.2089Z" fill="black"/>
<path d="M116.803 51.2089H116.377C116.317 51.2089 116.257 51.2328 116.215 51.2738C116.174 51.3149 116.151 51.3713 116.157 51.4294V54.1527L114.709 51.3388C114.683 51.3046 114.649 51.2738 114.611 51.2499C114.57 51.2379 114.529 51.2379 114.488 51.2499H113.868C113.806 51.2499 113.748 51.2738 113.703 51.3149C113.662 51.3559 113.642 51.4123 113.645 51.4704V55.5596C113.638 55.6211 113.659 55.681 113.702 55.7254C113.744 55.7682 113.806 55.7887 113.868 55.7801H114.292C114.351 55.7853 114.411 55.7647 114.456 55.7237C114.498 55.6793 114.521 55.6211 114.521 55.5596V52.8192L115.986 55.6331C116.003 55.6758 116.035 55.71 116.075 55.7323C116.119 55.7391 116.162 55.7391 116.206 55.7323H116.803C116.863 55.7374 116.922 55.7152 116.967 55.6741C117.008 55.6297 117.032 55.5716 117.032 55.51V51.4208C117.032 51.3627 117.01 51.3063 116.967 51.267C116.922 51.226 116.864 51.2054 116.803 51.2089Z" fill="black"/>
<path d="M117.466 51.2089H120.401C120.463 51.2089 120.523 51.2311 120.565 51.2755C120.608 51.3148 120.632 51.3713 120.63 51.4294V51.8636C120.63 51.9234 120.606 51.9833 120.565 52.026C120.519 52.0636 120.461 52.0841 120.401 52.0841H119.371V55.51C119.371 55.5716 119.35 55.628 119.314 55.6741C119.27 55.7152 119.21 55.7357 119.15 55.7323H118.716C118.659 55.7357 118.603 55.7152 118.562 55.6741C118.519 55.6297 118.495 55.5716 118.495 55.51V52.0602H117.466C117.405 52.0602 117.348 52.0397 117.302 52.0021C117.258 51.9593 117.237 51.8995 117.244 51.8397V51.4294C117.235 51.3713 117.258 51.3131 117.302 51.2738C117.346 51.2328 117.405 51.2089 117.466 51.2089Z" fill="black"/>
<path d="M123.795 53.8415C123.663 53.6706 123.497 53.527 123.304 53.4244C123.072 53.3047 122.831 53.1987 122.586 53.1064C122.318 53.0076 122.122 52.9222 121.991 52.8654L121.964 52.8534C121.866 52.8038 121.781 52.7372 121.711 52.6568C121.656 52.5833 121.629 52.4927 121.637 52.4021C121.625 52.2688 121.684 52.1388 121.791 52.0602C121.942 51.9611 122.119 51.9149 122.299 51.9286C122.521 51.9166 122.74 51.9799 122.921 52.1081C123.053 52.2123 123.128 52.373 123.126 52.5423V52.6568C123.123 52.7081 123.14 52.7577 123.174 52.7953C123.212 52.8295 123.261 52.85 123.313 52.8534H123.779C123.829 52.85 123.875 52.8295 123.911 52.7953C123.95 52.7611 123.971 52.7098 123.967 52.6568V52.5337C123.974 52.2807 123.899 52.0311 123.755 51.8226C123.608 51.614 123.407 51.4499 123.174 51.3473C122.914 51.2396 122.637 51.1849 122.357 51.1849C121.962 51.1678 121.572 51.2807 121.253 51.5114C120.972 51.7388 120.815 52.0841 120.825 52.4431C120.82 52.6773 120.889 52.9064 121.024 53.0979C121.148 53.2688 121.311 53.4073 121.497 53.5082C121.733 53.6278 121.976 53.7338 122.225 53.8261C122.431 53.9048 122.629 53.9954 122.824 54.0962C122.931 54.1441 123.029 54.2159 123.109 54.3082C123.161 54.38 123.188 54.4655 123.191 54.5544C123.191 54.6946 123.128 54.8262 123.019 54.9134C122.858 55.0279 122.66 55.0809 122.463 55.0604C122.229 55.0724 121.998 55.0126 121.8 54.8895C121.666 54.7954 121.588 54.6433 121.588 54.4792V54.2911C121.588 54.1834 121.499 54.0962 121.391 54.0962H120.892C120.841 54.0928 120.789 54.1133 120.754 54.1527C120.718 54.1903 120.697 54.2398 120.695 54.2928V54.4638C120.694 54.7168 120.767 54.9647 120.909 55.175C121.06 55.3801 121.263 55.5374 121.497 55.6331C121.772 55.7425 122.068 55.7955 122.364 55.7887C122.783 55.8126 123.196 55.6912 123.533 55.4468C123.827 55.216 123.995 54.8604 123.985 54.4894C123.988 54.2586 123.921 54.033 123.795 53.8415Z" fill="black"/>
<path d="M79.1301 29.0877C78.7318 30.2501 77.7386 31.1049 76.5316 31.3271L80.2687 34.9342H78.2976L74.1263 30.7117V30.3698C74.9555 30.4399 75.7931 30.3373 76.5795 30.0672C77.3881 29.7886 77.9044 28.9971 77.8309 28.1457C77.6514 26.4601 75.9658 25.8721 74.5024 25.8721H73.2596V34.9325H71.7467V24.619H74.3229C75.6974 24.6361 77.3727 24.766 78.4617 25.7233C79.2754 26.6431 79.5318 27.9286 79.1301 29.0877Z" fill="black"/>
<path d="M100.65 34.5564C99.5965 34.9171 98.4921 35.1103 97.3792 35.1291C95.9433 35.2573 94.5261 34.7496 93.4986 33.741C92.4729 32.7324 91.943 31.322 92.0455 29.8877C92.0455 26.7867 94.1893 24.5215 97.6733 24.5215C98.5622 24.4993 99.4444 24.6634 100.265 25.0036V26.0926C99.4102 25.7849 98.5075 25.6396 97.5981 25.6652C96.4681 25.5763 95.3535 25.9883 94.5517 26.7901C93.7482 27.5935 93.3379 28.7064 93.4285 29.8382C93.4285 32.4794 95.015 34.0333 97.4357 34.0333C98.128 34.0607 98.8204 33.9666 99.4802 33.7547V30.3784H96.8476V29.2979H100.65V34.5564Z" fill="black"/>
<path d="M77.0872 37.5994V42.0236H71.174V37.6233H70.5193V48.0514H71.174V42.6784H77.0872V48.0274H77.742V37.5994H77.0872Z" fill="black"/>
<path d="M93.1738 38.2627V42.4493H98.1964V43.0869H93.1738V47.2496H99.4478V48.0685H92.4712V37.6233H99.4478V38.2627H93.1738Z" fill="black"/>
<path d="M112.64 48.0514H113.31V37.6079H112.64V48.0514Z" fill="black"/>
<path d="M115.919 37.6233H116.844L119.87 42.1057L122.896 37.6233H123.82L120.377 42.7279L124 48.0514H123.084L119.87 43.3417L116.688 48.0514H115.781L119.379 42.7279L115.919 37.6233Z" fill="black"/>
<path d="M102.506 39.0149L109.63 48.0103V37.6233H109.05V46.3914L101.927 37.4848V47.9283H102.506V39.0149Z" fill="black"/>
<path fill-rule="evenodd" clip-rule="evenodd" d="M61.6622 24.6121V34.9325L63.9769 34.9496C64.859 34.9821 65.7394 34.8847 66.5942 34.6624C67.2866 34.4487 67.931 34.0966 68.4832 33.6247C69.6081 32.6708 70.2628 31.2741 70.2748 29.7988C70.2868 28.3252 69.6577 26.9183 68.5482 25.9456C68.0011 25.4703 67.3549 25.1216 66.6592 24.9216C65.7924 24.6891 64.8984 24.5848 64.0009 24.6121H61.6622ZM63.3478 33.4692H64.1068C64.7411 33.4846 65.3753 33.4093 65.9873 33.2469C66.4848 33.0948 66.9464 32.8452 67.3464 32.5118C68.1328 31.8161 68.5824 30.8177 68.5824 29.7681C68.5824 28.7184 68.1328 27.7201 67.3464 27.0243C66.4044 26.3268 65.2437 25.9917 64.0744 26.0755H63.3136L63.3478 33.4692Z" fill="black"/>
<path fill-rule="evenodd" clip-rule="evenodd" d="M62.317 48.0514H61.6622V37.6233H65.3582C66.148 37.5412 66.9395 37.7601 67.5755 38.2387C68.1533 38.7806 68.4849 39.5328 68.4986 40.3243C68.5106 41.1176 68.2011 41.88 67.6404 42.4407C66.9857 42.9314 66.1754 43.1673 65.3582 43.104H62.3153L62.317 48.0514ZM67.1823 41.9176C66.6848 42.3365 66.0403 42.5382 65.3907 42.4818H62.317V38.2456H65.2779C65.907 38.1789 66.5395 38.3259 67.0763 38.6627C67.5823 39.0764 67.8661 39.7021 67.8456 40.3551C67.8592 40.9466 67.6182 41.5159 67.1823 41.9176Z" fill="black"/>
<path fill-rule="evenodd" clip-rule="evenodd" d="M84.2518 32.4058H88.8077L89.9274 34.9325H91.6865L86.8691 24.4241H86.3306L81.3388 34.9325H83.0654L84.2518 32.4058ZM88.1769 30.9254L86.5409 27.3764L84.9066 30.9254H88.1769Z" fill="black"/>
<path fill-rule="evenodd" clip-rule="evenodd" d="M90.4933 42.7519C90.4557 45.6119 88.1153 47.9044 85.2553 47.8804C82.3953 47.8565 80.0926 45.5247 80.1062 42.6664C80.1165 39.8046 82.438 37.4934 85.2981 37.4934C88.1735 37.5378 90.4847 39.8764 90.4933 42.7519ZM85.363 47.2342C82.8517 47.265 80.7883 45.2631 80.7422 42.7519C80.7388 40.2201 82.7663 38.1515 85.2981 38.1071C87.8093 38.102 89.8522 40.1278 89.8693 42.6373C89.8881 45.1486 87.8743 47.2017 85.363 47.2342Z" fill="black"/>
<path d="M104.044 29.7809L104.045 29.7561V29.7954L104.044 29.7809Z" fill="black"/>
<path fill-rule="evenodd" clip-rule="evenodd" d="M104.093 25.978C103.043 26.9525 102.45 28.3235 102.458 29.7561C102.404 31.3015 103.048 32.7905 104.216 33.8042C106.38 35.7274 109.664 35.6488 111.732 33.6247C112.791 32.6418 113.385 31.257 113.368 29.8125C113.35 26.8311 110.936 24.4155 107.954 24.3985C106.505 24.3762 105.111 24.9472 104.093 25.978ZM105.149 26.9918C104.409 27.7286 104.007 28.7398 104.044 29.7809C104.015 31.3508 104.941 32.7818 106.385 33.4008C107.836 34.0213 109.52 33.6965 110.637 32.5785C112.131 31.016 112.131 28.5543 110.637 26.9918C109.115 25.4874 106.669 25.4874 105.149 26.9918Z" fill="black"/>
<path fill-rule="evenodd" clip-rule="evenodd" d="M85.5853 55.51L84.7664 53.768C84.9903 53.6945 85.1869 53.5543 85.3305 53.368C85.5049 53.1321 85.5938 52.8432 85.5853 52.5508C85.5887 52.3047 85.5288 52.0636 85.4143 51.8465C85.2998 51.6465 85.1322 51.4824 84.9305 51.373C84.7117 51.255 84.4672 51.1969 84.2194 51.202H82.5833C82.4739 51.202 82.3867 51.2875 82.3867 51.3969V55.5596C82.3833 55.6126 82.4038 55.6639 82.4449 55.6981C82.4825 55.7323 82.5321 55.7493 82.5816 55.7493H83.05C83.1013 55.7493 83.1492 55.7323 83.1868 55.6981C83.221 55.6605 83.2398 55.6109 83.2381 55.5613V53.8586H83.9492L84.7664 55.6331C84.7835 55.6673 84.8091 55.6998 84.8399 55.7237H85.4382C85.4827 55.7288 85.5271 55.7135 85.5596 55.6827C85.5972 55.6485 85.6177 55.6023 85.6177 55.551V55.4861L85.5853 55.51ZM84.0877 51.9781H83.2039V53.1389H84.0877C84.2484 53.1475 84.4023 53.091 84.5219 52.9833C84.6279 52.8722 84.6843 52.7201 84.6775 52.5662C84.6826 52.4089 84.6245 52.2551 84.5117 52.1423C84.4006 52.0294 84.2467 51.9713 84.0877 51.9781Z" fill="black"/>
<path fill-rule="evenodd" clip-rule="evenodd" d="M67.0677 51.1593C67.3515 51.161 67.6319 51.2294 67.8866 51.3559C68.1276 51.4892 68.3277 51.6841 68.4661 51.92C68.608 52.1696 68.6798 52.4517 68.6798 52.7389V54.1937C68.6815 54.4809 68.608 54.763 68.4678 55.0125C68.3311 55.2519 68.1293 55.4502 67.8866 55.5835C67.6319 55.7117 67.3515 55.7801 67.0677 55.7801C66.784 55.7818 66.5036 55.7134 66.2506 55.5835C66.0027 55.4536 65.7993 55.2553 65.6608 55.0125C65.524 54.7612 65.4522 54.4792 65.4557 54.1937V52.7389C65.4522 52.4517 65.524 52.1696 65.6608 51.92C65.8027 51.6807 66.0061 51.4858 66.2506 51.3559C66.5036 51.2277 66.784 51.1593 67.0677 51.1593ZM67.8285 52.7457V54.2347C67.837 54.4535 67.7567 54.6655 67.6079 54.8245C67.2763 55.1168 66.7771 55.1168 66.4455 54.8245C66.3002 54.6638 66.2232 54.4518 66.2335 54.2347V52.7474C66.2215 52.5269 66.2984 52.3115 66.4472 52.1491C66.601 51.9952 66.8113 51.9166 67.0284 51.9286C67.2421 51.9234 67.4507 52.0021 67.6079 52.1508C67.7584 52.3098 67.837 52.5269 67.8285 52.7457Z" fill="black"/>
<path fill-rule="evenodd" clip-rule="evenodd" d="M98.3434 51.838C98.2272 51.6311 98.0528 51.4619 97.8442 51.3473C97.622 51.2294 97.3758 51.1713 97.1262 51.1764H95.4885C95.3808 51.1764 95.2936 51.2636 95.2936 51.373V55.5442C95.2936 55.5955 95.3141 55.6451 95.35 55.681C95.3876 55.7152 95.4389 55.734 95.4885 55.7323H95.9552C96.0065 55.7374 96.0578 55.7186 96.0937 55.681C96.1313 55.6468 96.1484 55.5955 96.145 55.5442V53.9082H97.116C97.3724 53.9116 97.6237 53.8552 97.8528 53.7441C98.0613 53.6347 98.2357 53.4671 98.352 53.262C98.475 53.0449 98.5383 52.8004 98.5315 52.5508C98.5315 52.3012 98.4648 52.0551 98.3434 51.838ZM97.0425 51.9525H96.1279V53.1714H97.0425C97.21 53.1816 97.3724 53.1235 97.4938 53.0073C97.6117 52.891 97.6733 52.732 97.6647 52.5662C97.675 52.3987 97.6117 52.2363 97.4938 52.1166C97.3741 51.9987 97.21 51.9388 97.0425 51.9525Z" fill="black"/>
<path fill-rule="evenodd" clip-rule="evenodd" d="M100.79 51.3473L102.147 55.5271L102.162 55.5186V55.5767C102.168 55.6297 102.147 55.681 102.106 55.7152C102.065 55.7288 102.022 55.7288 101.983 55.7152H101.475C101.439 55.7254 101.398 55.7254 101.361 55.7152C101.325 55.6912 101.297 55.657 101.28 55.6177L101.084 54.9715H99.5127L99.3161 55.6177C99.299 55.657 99.27 55.6912 99.2358 55.7152C99.1982 55.7254 99.1572 55.7254 99.1212 55.7152H98.6221C98.581 55.7288 98.5383 55.7288 98.499 55.7152C98.4579 55.681 98.4374 55.628 98.4409 55.5767V55.5186L99.7828 51.3473C99.7999 51.308 99.829 51.2738 99.8649 51.2499C99.9025 51.2379 99.9418 51.2379 99.9777 51.2499H100.593C100.632 51.2379 100.675 51.2379 100.715 51.2499C100.749 51.2738 100.774 51.308 100.79 51.3473ZM100.846 54.2928H99.7264L100.291 52.4927L100.846 54.2928Z" fill="black"/>
</g>
</g>
</svg>
