<svg width="128" height="80" viewBox="0 0 128 80" fill="none" xmlns="http://www.w3.org/2000/svg">
<g id="logo / payment method / verve / black">
<g id="logo">
<path d="M80.4824 34.5088H86.4964L91.203 48.3672L95.9096 34.5088H101.924L93.8178 55.9501H88.5882L80.4824 34.5088Z" fill="black"/>
<path fill-rule="evenodd" clip-rule="evenodd" d="M45.7057 46.7983H59.564C60.087 42.6146 59.0411 34.195 50.6738 33.9858C40.2146 33.7243 39.9531 43.1376 39.9531 46.7983C39.9531 50.459 42.9601 56.473 49.6278 56.473C54.962 56.473 57.9516 55.7757 58.7796 55.4271L58.1259 50.459C54.2037 51.4613 46.2286 52.1324 45.7057 46.7983ZM45.7057 42.6146H54.3345C54.1601 41.1329 53.0794 38.1695 50.1508 38.1695C46.4901 38.1695 45.7057 41.8302 45.7057 42.6146Z" fill="black"/>
<path fill-rule="evenodd" clip-rule="evenodd" d="M110.029 46.7983H123.888C124.411 42.6146 123.365 34.195 114.998 33.9858C104.538 33.7243 104.277 43.1376 104.277 46.7983C104.277 50.459 107.284 56.473 113.952 56.473C119.286 56.473 122.275 55.7757 123.103 55.4271L122.45 50.459C118.528 51.4613 110.552 52.1324 110.029 46.7983ZM110.029 42.6146H118.658C118.484 41.1329 117.403 38.1695 114.475 38.1695C110.814 38.1695 110.029 41.8302 110.029 42.6146Z" fill="black"/>
<path d="M64.5322 55.95H70.2847V40.1306C71.6444 38.6663 74.8606 39.0847 76.2987 39.4769C76.8217 36.4699 77.0831 34.5088 77.0831 34.5088C70.1801 33.0445 65.8395 35.2932 64.5322 36.6006V55.95Z" fill="black"/>
<path fill-rule="evenodd" clip-rule="evenodd" d="M24.9183 60.9182C36.4712 60.9182 45.8366 51.5527 45.8366 39.9999C45.8366 28.447 36.4712 19.0815 24.9183 19.0815C13.3655 19.0815 4 28.447 4 39.9999C4 51.5527 13.3655 60.9182 24.9183 60.9182ZM17.2045 27.9719H10.1445L22.434 55.9502H27.9251L40.0839 27.9719H33.1547L25.1796 48.1058L17.2045 27.9719Z" fill="black"/>
</g>
</g>
</svg>
