<svg width="128" height="80" viewBox="0 0 128 80" fill="none" xmlns="http://www.w3.org/2000/svg">
<g id="logo / payment method / pix / brand">
<g id="logo">
<path fill-rule="evenodd" clip-rule="evenodd" d="M81.5379 28.5519C81.2523 28.4311 80.9453 28.369 80.6351 28.3691H77.8193C77.4432 28.3691 77.1382 28.0642 77.1382 27.688C77.1382 27.3118 77.4432 27.0068 77.8193 27.0068H80.6348C81.1272 27.0066 81.6147 27.1053 82.0683 27.2971C82.522 27.4888 82.9326 27.7698 83.2756 28.1233C83.6187 28.4767 83.8873 28.8955 84.0654 29.3547C84.2423 29.8105 84.3265 30.297 84.3131 30.7857V47.1238C84.3131 47.5 84.0081 47.805 83.6319 47.805C83.2557 47.805 82.9508 47.5 82.9508 47.1238V30.7759C82.9508 30.769 82.9509 30.7621 82.9511 30.7553C82.9605 30.4453 82.9075 30.1365 82.7953 29.8474C82.6832 29.5583 82.5141 29.2946 82.2981 29.0721C82.0821 28.8495 81.8236 28.6726 81.5379 28.5519ZM62.2435 28.4145C58.5754 28.4145 55.6135 31.3365 55.6135 35.0445V56.978C55.6135 57.3542 55.3086 57.6591 54.9324 57.6591C54.5562 57.6591 54.2512 57.3542 54.2512 56.978V35.0445C54.2512 30.5786 57.8285 27.0522 62.2435 27.0522H68.7372C70.8449 27.0522 72.8662 27.8895 74.3565 29.3798C75.8468 30.8701 76.6841 32.8915 76.6841 34.9991V39.6764C76.6841 44.1396 73.1096 47.6687 68.7372 47.6687H59.5643C59.1881 47.6687 58.8831 47.3638 58.8831 46.9876C58.8831 46.6114 59.1881 46.3064 59.5643 46.3064H68.7372C72.3572 46.3064 75.3218 43.3872 75.3218 39.6764V34.9991C75.3218 33.2528 74.628 31.578 73.3932 30.3431C72.1584 29.1083 70.4835 28.4145 68.7372 28.4145H62.2435Z" fill="#939598"/>
<path d="M82.5343 24.827L81.2628 23.5555C81.1831 23.4791 81.1197 23.3875 81.0764 23.2861C81.0331 23.1846 81.0108 23.0754 81.0108 22.9651C81.0108 22.8548 81.0331 22.7456 81.0764 22.6442C81.1197 22.5427 81.1831 22.4511 81.2628 22.3748L82.5343 21.1033C82.6867 20.9562 82.8902 20.874 83.1019 20.874C83.3137 20.874 83.5172 20.9562 83.6696 21.1033L84.9411 22.3748C85.0881 22.5271 85.1703 22.7306 85.1703 22.9424C85.1703 23.1542 85.0881 23.3577 84.9411 23.51L83.6696 24.827C83.5172 24.974 83.3137 25.0562 83.1019 25.0562C82.8902 25.0562 82.6867 24.974 82.5343 24.827Z" fill="#32BCAD"/>
<path d="M37.8047 50.7565C36.4423 50.7565 35.08 50.2116 34.1264 49.2125L28.7679 43.8995C28.4047 43.4908 27.7235 43.4908 27.4056 43.8995L21.9563 49.258C20.994 50.2281 19.6898 50.7824 18.3235 50.8019H17.2336L24.0452 57.5681C25.0639 58.5666 26.4334 59.1259 27.8597 59.1259C29.2861 59.1259 30.6556 58.5666 31.6742 57.5681L38.4858 50.7565H37.8047ZM18.2781 31.8656C19.6858 31.8656 21.0027 32.4105 22.0018 33.3642L27.3602 38.768C27.5474 38.9538 27.8004 39.0581 28.0641 39.0581C28.3278 39.0581 28.5808 38.9538 28.7679 38.768L34.1264 33.4096C35.0999 32.4284 36.4226 31.8732 37.8047 31.8656H38.4858L31.6742 25.054C30.6536 24.0418 29.2744 23.4739 27.837 23.4739C26.3996 23.4739 25.0204 24.0418 23.9998 25.054L17.279 31.8656H18.2781Z" fill="#32BCAD"/>
<path d="M44.0714 37.4965L39.9844 33.4096H37.8501C37.3607 33.4069 36.8756 33.5019 36.4234 33.689C35.9711 33.8761 35.5607 34.1517 35.2163 34.4994L29.9033 39.8579C29.6672 40.1011 29.3849 40.2947 29.073 40.4273C28.7611 40.5599 28.4258 40.6288 28.0868 40.6299C27.7479 40.6288 27.4126 40.5599 27.1007 40.4273C26.7887 40.2947 26.5064 40.1011 26.2704 39.8579L20.8665 34.4994C20.1818 33.8081 19.2511 33.4162 18.2781 33.4096H16.0076L15.7351 33.3642L11.6028 37.4511C11.0947 37.9574 10.6917 38.559 10.4166 39.2213C10.1416 39.8837 10 40.5939 10 41.3111C10 42.0283 10.1416 42.7384 10.4166 43.4008C10.6917 44.0632 11.0947 44.6647 11.6028 45.171L15.6897 49.258L16.0076 49.2125H18.2781C18.7676 49.2153 19.2526 49.1203 19.7049 48.9331C20.1572 48.746 20.5675 48.4704 20.9119 48.1227L26.3158 42.7642C26.8056 42.2978 27.4559 42.0376 28.1322 42.0376C28.8085 42.0376 29.4589 42.2978 29.9487 42.7642L35.2163 48.1227C35.9084 48.7974 36.8382 49.1726 37.8047 49.1671H39.6666L39.9844 49.258L44.0714 45.171C44.5794 44.6647 44.9825 44.0632 45.2575 43.4008C45.5326 42.7384 45.6741 42.0283 45.6741 41.3111C45.6741 40.5939 45.5326 39.8837 45.2575 39.2213C44.9825 38.559 44.5794 37.9574 44.0714 37.4511" fill="#32BCAD"/>
<path d="M60.0105 54.7527L59.0114 54.8889V56.2512L59.7834 56.3421C60.4646 56.3421 60.7824 56.115 60.7824 55.5247C60.7824 54.9797 60.51 54.7527 60.0105 54.7527ZM58.7844 57.2049V54.571H58.966V54.7073C59.2839 54.6164 59.738 54.5256 60.0105 54.5256C60.2829 54.5256 60.51 54.5256 60.6916 54.7073C60.9641 54.9343 61.0095 55.2068 61.0095 55.5247C61.0095 55.888 60.9187 56.2058 60.5554 56.4329C60.3737 56.5237 60.1013 56.5691 59.8288 56.5691L59.0114 56.4329V57.2049H58.7844ZM62.6897 54.7527C62.0085 54.7527 61.7361 54.9343 61.7361 55.5247C61.7361 56.115 62.0085 56.3421 62.6897 56.3421C63.3709 56.3421 63.6887 56.1604 63.6887 55.5701C63.6887 54.9797 63.3709 54.7527 62.6897 54.7527ZM63.5979 56.3421C63.3254 56.5237 63.053 56.5691 62.6897 56.5691C62.3718 56.5691 62.0539 56.5237 61.8269 56.3421C61.5998 56.2058 61.509 55.888 61.509 55.5701C61.509 55.2068 61.5998 54.8889 61.8269 54.7527C62.0539 54.571 62.3718 54.5256 62.7351 54.5256C63.053 54.5256 63.3254 54.571 63.5525 54.7527C63.825 54.8889 63.9158 55.2068 63.9158 55.5247C63.9158 55.888 63.825 56.2058 63.5525 56.3421M66.7312 56.5237L66.0047 54.8889L65.2327 56.5237H65.051L64.2337 54.571H64.5061L65.1419 56.2058L65.8684 54.571H66.0955L66.8221 56.2058L67.5032 54.571H67.7303L66.9583 56.5237H66.7312ZM69.1834 54.7073C68.5477 54.7073 68.366 55.0251 68.2752 55.3884H70.0916C70.0462 54.9343 69.8192 54.7073 69.1834 54.7073ZM69.1834 56.5691C68.8201 56.5691 68.5477 56.5237 68.366 56.3421C68.139 56.1604 68.0482 55.888 68.0482 55.5701C68.0482 55.2522 68.1844 54.8889 68.4114 54.7073C68.6385 54.571 68.8655 54.5256 69.1834 54.5256C69.4531 54.5083 69.7218 54.5715 69.9554 54.7073C70.2279 54.8889 70.2733 55.2522 70.2733 55.6155H68.3206C68.3206 56.0242 68.4568 56.3421 69.2288 56.3421C69.5467 56.3421 69.8646 56.3421 70.1825 56.2512V56.4329C69.8646 56.5237 69.5013 56.5691 69.1834 56.5691ZM70.9544 56.5237V54.571H71.1361V54.7073C71.5902 54.571 71.7264 54.5256 72.0897 54.5256V54.7527C71.7718 54.7527 71.5902 54.7527 71.1815 54.8889V56.5237H70.9544ZM73.452 54.7073C72.8163 54.7073 72.6346 55.0251 72.5438 55.3884H74.3148C74.3148 54.9343 74.0878 54.7073 73.4066 54.7073M73.4066 56.5691C73.0433 56.5691 72.8163 56.5237 72.6346 56.3421C72.4076 56.1604 72.3168 55.888 72.3168 55.5701C72.3168 55.2522 72.453 54.8889 72.68 54.7073C72.9071 54.571 73.1341 54.5256 73.452 54.5256C73.7217 54.5083 73.9904 54.5715 74.224 54.7073C74.4965 54.8889 74.5419 55.2522 74.5419 55.6155H72.5892C72.5892 56.0242 72.7255 56.3421 73.4974 56.3421C73.8153 56.3421 74.1332 56.3421 74.4511 56.2512V56.4329C74.1332 56.5237 73.7699 56.5691 73.452 56.5691M77.0395 54.8435C76.7891 54.77 76.5281 54.7392 76.2675 54.7527C75.5863 54.7527 75.2684 54.9797 75.2684 55.5701C75.2684 56.115 75.5409 56.3421 76.0404 56.3421L77.0395 56.2058V54.8435ZM77.0395 56.5237V56.3875C76.7216 56.4783 76.3129 56.5691 75.995 56.5691C75.768 56.5691 75.5409 56.5691 75.3139 56.3875C75.0868 56.1604 74.996 55.888 74.996 55.5701C74.996 55.2068 75.1322 54.8889 75.4501 54.6619C75.6771 54.571 75.9496 54.5256 76.2221 54.5256L77.0395 54.6619V53.7536H77.2665V56.4783L77.0395 56.5237ZM80.5815 54.7073C80.2636 54.7073 79.9003 54.7981 79.5825 54.8889V56.2512C79.8327 56.3257 80.0938 56.3564 80.3544 56.3421C81.0356 56.3421 81.3535 56.115 81.3535 55.5247C81.3535 54.9797 81.081 54.7527 80.5815 54.7527M81.1718 56.3875C80.9448 56.5237 80.6269 56.5691 80.3544 56.5691C80.0614 56.5704 79.7701 56.5244 79.4916 56.4329V56.5237H79.3554V53.7991H79.5825V54.7073C79.9091 54.6158 80.2436 54.5549 80.5815 54.5256C80.854 54.5256 81.0356 54.5256 81.2626 54.7073C81.4897 54.9343 81.5805 55.2068 81.5805 55.5247C81.5805 55.888 81.4443 56.2058 81.1264 56.4329M81.8984 57.2503V57.0686H82.1709C82.4433 57.0686 82.625 56.9778 82.7612 56.6599L82.852 56.5237L81.853 54.571H82.08L82.9883 56.2512L83.8057 54.571H84.0781L82.9883 56.7508C82.7612 57.1595 82.5342 57.2957 82.1709 57.2957H81.8984M87.166 55.3884H86.4395V56.0696H87.166C87.711 56.0696 87.8926 56.0696 87.8926 55.7517C87.8926 55.4338 87.6201 55.3884 87.166 55.3884ZM87.0298 54.2986H86.4395V54.9797H87.0298C87.5293 54.9797 87.7564 54.9797 87.7564 54.6619C87.7564 54.344 87.4839 54.2986 87.0298 54.2986ZM88.2105 56.3421C87.938 56.5237 87.5747 56.5237 86.9844 56.5237H85.8491V53.8899H86.939C87.4839 53.8899 87.8018 53.8899 88.0743 54.0715C88.2559 54.1623 88.3467 54.344 88.3467 54.571C88.3467 54.8435 88.2105 55.0251 87.8926 55.1614C88.2559 55.2522 88.483 55.4338 88.483 55.7971C88.483 56.0696 88.3921 56.2512 88.2105 56.3421ZM90.7535 55.7063C90.5265 55.6968 90.2993 55.6968 90.0723 55.7063C89.6636 55.7063 89.5274 55.7517 89.5274 55.9334C89.5274 56.115 89.6636 56.2058 89.9815 56.2058L90.7535 56.0696V55.7063ZM90.8897 56.5237V56.3875C90.5264 56.4783 90.1631 56.5691 89.7999 56.5691C89.6182 56.5691 89.3912 56.5691 89.2549 56.4329C89.0733 56.3421 89.0279 56.1604 89.0279 55.9788C89.0279 55.7517 89.1187 55.5247 89.3458 55.4338C89.5793 55.3546 89.8265 55.3237 90.0723 55.343H90.7535C90.7535 55.0251 90.5719 54.8889 90.0269 54.8889L89.3004 54.9343V54.571L90.1632 54.5256C90.481 54.5256 90.8443 54.5256 91.0714 54.7073C91.253 54.8435 91.2984 55.0706 91.2984 55.3884V56.5237H90.8897ZM93.8414 56.5237V55.3884C93.8414 55.0251 93.6598 54.9343 93.3419 54.9343C93.0821 54.9369 92.8233 54.9674 92.5699 55.0251V56.4783H92.025V54.5256H92.4791V54.6619C92.797 54.571 93.2057 54.4802 93.5235 54.4802C93.7506 54.4802 93.9776 54.4802 94.1593 54.6619C94.3409 54.7981 94.3864 55.0251 94.3864 55.2976V56.4783L93.8414 56.5237ZM95.8849 56.5691C95.6578 56.5691 95.3854 56.5691 95.2037 56.3875C94.9313 56.1604 94.8859 55.888 94.8859 55.5247C94.8859 55.2522 94.9767 54.8889 95.2491 54.7073C95.5216 54.571 95.7941 54.5256 96.1574 54.5256H96.7931V54.9797H96.2028C95.6578 54.9797 95.4308 55.116 95.4308 55.5701C95.4308 55.9788 95.6124 56.1604 96.0211 56.1604L96.8385 56.0242V56.4783L95.9303 56.5691M98.4279 54.9343C97.9284 54.9343 97.7013 55.0706 97.7013 55.5247C97.7013 55.9788 97.9284 56.1604 98.4279 56.1604C98.9728 56.1604 99.1545 56.0242 99.1545 55.5701C99.1545 55.116 98.9728 54.9343 98.4279 54.9343ZM99.3361 56.3875C99.1545 56.5237 98.8366 56.5691 98.4279 56.5691C98.0646 56.5691 97.7467 56.5237 97.5197 56.3875C97.2472 56.2058 97.1564 55.9334 97.1564 55.5701C97.1564 55.2068 97.2472 54.8889 97.5197 54.7073C97.7467 54.571 98.0646 54.5256 98.4279 54.5256C98.8366 54.5256 99.1545 54.571 99.3361 54.7073C99.654 54.8889 99.7448 55.1614 99.7448 55.5247C99.7448 55.888 99.654 56.2058 99.3815 56.3875M102.833 56.5691C102.515 56.5691 102.152 56.5237 101.925 56.2966C101.607 56.0242 101.47 55.6155 101.47 55.2068C101.47 54.7981 101.607 54.344 102.015 54.0715C102.333 53.8899 102.742 53.8445 103.151 53.8445H104.059V54.344C103.756 54.3323 103.453 54.3323 103.151 54.344C102.424 54.344 102.106 54.6164 102.106 55.2068C102.106 55.7971 102.379 56.115 102.924 56.115C103.287 56.115 103.696 56.0242 104.104 55.9334V56.3875C103.696 56.4783 103.287 56.5691 102.833 56.5691ZM105.694 54.8889C105.24 54.8889 105.103 55.0251 105.058 55.343H106.329C106.329 55.0251 106.148 54.8889 105.694 54.8889ZM105.603 56.5691C105.285 56.5691 105.012 56.5691 104.785 56.3421C104.558 56.1604 104.513 55.888 104.513 55.5247C104.513 55.2522 104.604 54.9343 104.876 54.7073C105.103 54.571 105.376 54.5256 105.694 54.5256C105.966 54.5256 106.284 54.5256 106.556 54.7073C106.874 54.9343 106.874 55.2976 106.874 55.6609H105.058C105.058 55.9788 105.194 56.1604 105.739 56.1604L106.783 56.0696V56.4329C106.42 56.5237 106.011 56.5691 105.603 56.5691ZM109.281 56.5237V55.3884C109.281 55.0251 109.099 54.9343 108.827 54.9343C108.552 54.9336 108.278 54.964 108.01 55.0251V56.4783H107.465V54.5256H107.919V54.6619C108.237 54.571 108.645 54.4802 108.963 54.4802C109.19 54.4802 109.417 54.4802 109.599 54.6619C109.781 54.7981 109.826 55.0251 109.826 55.2976V56.4783L109.281 56.5237ZM111.37 56.5691C111.097 56.5691 110.87 56.4783 110.734 56.2966C110.643 56.1604 110.598 55.9788 110.598 55.7063V54.9797H110.189V54.571H110.598L110.643 53.9807H111.097V54.571H111.869V54.9797H111.143V55.9788C111.234 56.115 111.37 56.1604 111.552 56.1604L111.915 56.115V56.4783L111.37 56.5691ZM112.414 56.5237V54.571H112.868V54.7073C113.232 54.6164 113.504 54.5256 113.822 54.5256H113.913V54.9797H113.731C113.459 54.9797 113.277 54.9797 112.959 55.0706V56.5237H112.414ZM115.866 55.7063C115.639 55.6968 115.411 55.6968 115.184 55.7063C114.776 55.7063 114.64 55.7517 114.64 55.9334C114.64 56.115 114.776 56.2058 115.094 56.2058L115.866 56.0696V55.7063ZM116.002 56.5237V56.3875C115.639 56.4783 115.275 56.5691 114.912 56.5691C114.73 56.5691 114.458 56.5691 114.322 56.4329C114.185 56.3421 114.14 56.1604 114.14 55.9788C114.14 55.7517 114.231 55.5247 114.458 55.4338C114.691 55.3546 114.939 55.3237 115.184 55.343H115.866C115.866 55.0251 115.684 54.8889 115.139 54.8889L114.412 54.9343V54.571L115.23 54.5256C115.593 54.5256 115.911 54.5256 116.138 54.7073C116.365 54.8435 116.411 55.0706 116.411 55.3884V56.5237H116.002ZM117.092 53.7991H117.637V56.5237H117.092V53.7991Z" fill="#939598"/>
<path fill-rule="evenodd" clip-rule="evenodd" d="M87.0915 27.6878C87.0915 27.3117 87.3964 27.0068 87.7724 27.0068H90.1185C91.58 27.0068 92.9816 27.5874 94.015 28.6208L101.376 35.9822C101.865 36.4706 102.657 36.4706 103.145 35.9822L110.024 29.1037C111.057 28.0703 112.459 27.4897 113.92 27.4897H116.749C117.125 27.4897 117.43 27.7946 117.43 28.1707C117.43 28.5468 117.125 28.8517 116.749 28.8517H113.92C112.82 28.8517 111.765 29.2887 110.987 30.0667L104.108 36.9452C103.088 37.9655 101.434 37.9655 100.413 36.9452L93.052 29.5838C92.274 28.8058 91.2188 28.3687 90.1185 28.3687H87.7724C87.3964 28.3687 87.0915 28.0638 87.0915 27.6878Z" fill="#939598"/>
<path fill-rule="evenodd" clip-rule="evenodd" d="M118 47.642C118 47.9814 117.689 48.2565 117.306 48.2565H114.916C113.427 48.2565 111.999 47.7326 110.946 46.8L103.447 40.1571C102.949 39.7163 102.142 39.7163 101.645 40.1571L94.637 46.3642C93.5842 47.2968 92.1563 47.8207 90.6674 47.8207H87.7852C87.4021 47.8207 87.0915 47.5455 87.0915 47.2062C87.0915 46.8668 87.4021 46.5917 87.7852 46.5917H90.6674C91.7883 46.5917 92.8633 46.1973 93.6559 45.4952L100.664 39.2881C101.703 38.3673 103.388 38.3673 104.428 39.2881L111.928 45.931C112.72 46.6331 113.795 47.0275 114.916 47.0275H117.306C117.689 47.0275 118 47.3026 118 47.642Z" fill="#939598"/>
</g>
</g>
</svg>
