<svg width="128" height="80" viewBox="0 0 128 80" fill="none" xmlns="http://www.w3.org/2000/svg">
<g id="logo / payment method / paymero / black">
<g id="wordmark">
<mask id="path-1-outside-1_203_1926" maskUnits="userSpaceOnUse" x="30.8458" y="32.1278" width="94" height="16" fill="black">
<rect fill="white" x="30.8458" y="32.1278" width="94" height="16"/>
<path d="M31.8466 46.7317C31.8428 46.7971 31.8528 46.8625 31.8761 46.9237C31.8994 46.9849 31.9354 47.0405 31.9817 47.0868C32.028 47.1331 32.0836 47.1691 32.1448 47.1924C32.206 47.2157 32.2715 47.2257 32.3368 47.2219C32.3992 47.2248 32.4614 47.2137 32.519 47.1894C32.5765 47.1652 32.6279 47.1285 32.6695 47.0819C32.7547 46.9852 32.8015 46.8606 32.8008 46.7317V41.3742C33.0481 41.7199 33.3394 42.0319 33.6674 42.3022C33.973 42.5849 34.3145 42.8262 34.6829 43.02C35.0611 43.2121 35.4569 43.3674 35.8647 43.484C36.2851 43.5924 36.7174 43.6482 37.1516 43.6503C38.1806 43.6504 39.1866 43.3452 40.0421 42.7733C40.8977 42.2014 41.5643 41.3885 41.9575 40.4375C42.2353 39.7999 42.3755 39.1109 42.369 38.4154C42.3686 37.6962 42.2133 36.9856 41.9137 36.3319C41.3941 35.0739 40.4005 34.0708 39.1475 33.5394C38.503 33.2638 37.8087 33.1238 37.1078 33.1279C36.6646 33.1249 36.2231 33.1808 35.7947 33.2942C35.375 33.3997 34.9715 33.5617 34.5954 33.7757C34.2257 33.9788 33.8818 34.2257 33.5711 34.5111C33.2729 34.815 33.0114 35.1529 32.792 35.5178L32.722 33.767C32.6922 33.6424 32.6354 33.5258 32.5557 33.4256C32.5259 33.3792 32.4842 33.3417 32.4349 33.317C32.3856 33.2924 32.3305 33.2815 32.2755 33.2855C32.2167 33.2804 32.1576 33.2906 32.1039 33.3151C32.0502 33.3397 32.0038 33.3777 31.9692 33.4256C31.9104 33.5325 31.8831 33.6539 31.8904 33.7757V46.7317H31.8466ZM33.1597 36.7521C33.3639 36.2463 33.6608 35.7832 34.0351 35.3865C34.431 34.9863 34.9029 34.6694 35.4231 34.4545C35.9432 34.2395 36.5012 34.1307 37.064 34.1346C37.6437 34.1326 38.2179 34.2456 38.7535 34.4673C39.2579 34.6793 39.7137 34.9921 40.0929 35.3865C40.4717 35.7796 40.7692 36.2437 40.9683 36.7521C41.1865 37.2823 41.2966 37.8508 41.2922 38.4241C41.2957 38.9889 41.1856 39.5486 40.9683 40.0699C40.7608 40.5739 40.4643 41.0365 40.0929 41.4355C39.7092 41.8291 39.2548 42.1468 38.7535 42.3722C38.2214 42.6058 37.6451 42.7222 37.064 42.7136C36.4972 42.7204 35.9356 42.6039 35.4183 42.3722C34.3962 41.9255 33.5867 41.1004 33.1597 40.0699C32.9277 39.5516 32.8026 38.9919 32.792 38.4241C32.7906 37.8502 32.9037 37.2818 33.1247 36.7521H33.1597ZM46.352 40.4551C46.6216 41.0776 47.0045 41.6446 47.4813 42.1271C48.4625 43.1049 49.7903 43.6555 51.1755 43.659C52.037 43.6623 52.8845 43.4421 53.6354 43.02C54.0102 42.813 54.3598 42.5633 54.6771 42.2759C54.988 42.001 55.2643 41.6894 55.5 41.348V43.02C55.497 43.085 55.5079 43.1499 55.5321 43.2103C55.5563 43.2707 55.5931 43.3252 55.6401 43.3702C55.6834 43.417 55.7363 43.4537 55.7953 43.4779C55.8543 43.5021 55.9178 43.5131 55.9815 43.5102C56.0478 43.5134 56.114 43.5025 56.1759 43.4784C56.2377 43.4543 56.2938 43.4174 56.3404 43.3702C56.4256 43.2727 56.475 43.1492 56.4805 43.02V33.7932C56.4827 33.668 56.4526 33.5444 56.3929 33.4343C56.3587 33.3888 56.3134 33.3528 56.2613 33.3298C56.2091 33.3068 56.152 33.2976 56.0953 33.303C56.0399 33.2983 55.9843 33.3079 55.9337 33.3309C55.8831 33.3539 55.8393 33.3895 55.8064 33.4343C55.7338 33.5389 55.6777 33.6541 55.6401 33.7757L55.5525 35.4565C55.3049 35.1237 55.01 34.8287 54.6771 34.5811C54.3665 34.2983 54.0225 34.0543 53.6529 33.8545C53.2778 33.647 52.8777 33.4881 52.4624 33.3818C52.0429 33.2641 51.6109 33.1965 51.1755 33.1804C50.48 33.1739 49.791 33.3141 49.1533 33.5919C48.529 33.8541 47.9612 34.2346 47.4813 34.7124C46.9968 35.1886 46.6128 35.7572 46.352 36.3844C46.0812 37.0288 45.9417 37.7208 45.9417 38.4197C45.9417 39.1187 46.0812 39.8107 46.352 40.4551ZM47.2275 36.7521C47.4316 36.2463 47.7285 35.7832 48.1029 35.3865C48.4901 34.9936 48.9513 34.6812 49.4597 34.4673C49.9912 34.2469 50.5608 34.1335 51.1361 34.1335C51.7114 34.1335 52.2811 34.2469 52.8125 34.4673C53.8334 34.904 54.6415 35.7246 55.0623 36.7521C55.2833 37.2818 55.3964 37.8502 55.395 38.4241C55.3955 38.9894 55.2823 39.5491 55.0623 40.0699C54.6321 41.0952 53.8277 41.9184 52.8125 42.3722C52.2837 42.6067 51.7102 42.7232 51.1318 42.7136C50.5561 42.7242 49.9852 42.6076 49.4597 42.3722C48.9504 42.152 48.4893 41.8338 48.1029 41.4355C47.7285 41.0388 47.4316 40.5757 47.2275 40.0699C47.0074 39.5491 46.8943 38.9894 46.8948 38.4241C46.8848 37.8494 46.9983 37.2792 47.2275 36.7521ZM60.8838 33.6182C60.8476 33.5274 60.7831 33.4506 60.6999 33.3993C60.6282 33.3413 60.5383 33.3103 60.4461 33.3118C60.3796 33.3138 60.3143 33.3287 60.2535 33.3555C60.193 33.381 60.1383 33.4186 60.0929 33.4659C60.0474 33.5133 60.0121 33.5694 59.9892 33.6309C59.9662 33.6924 59.9561 33.7579 59.9594 33.8235C59.9627 33.889 59.9793 33.9532 60.0084 34.0121L64.1928 43.125L64.1052 43.3702C63.9284 43.7931 63.7267 44.2053 63.5012 44.6045C63.317 44.9253 63.0903 45.2198 62.8272 45.4799C62.5776 45.7214 62.2791 45.9065 61.9518 46.0226C61.5943 46.1589 61.2137 46.2243 60.8312 46.2152H60.5248C60.3998 46.2126 60.2783 46.2563 60.1834 46.3378C60.1068 46.4167 60.0584 46.5187 60.0458 46.6279C60.0331 46.7371 60.0569 46.8475 60.1134 46.9418C60.151 47.0063 60.2098 47.0557 60.2797 47.0819C60.3559 47.1095 60.4354 47.1272 60.5161 47.1344C60.5975 47.1434 60.6797 47.1434 60.7612 47.1344C61.2459 47.1441 61.7286 47.0701 62.1881 46.9155C62.5883 46.7621 62.9587 46.5399 63.2824 46.259C63.6225 45.9226 63.9168 45.543 64.1578 45.1297C64.4678 44.6163 64.7399 44.0808 64.9719 43.5277L65.112 43.2038L69.3227 34.0383C69.3757 33.9176 69.3788 33.7807 69.3312 33.6577C69.2837 33.5346 69.1893 33.4354 69.0688 33.3818C69.0135 33.3569 68.9542 33.342 68.8937 33.338C68.7981 33.3378 68.7047 33.367 68.6263 33.4219C68.548 33.4767 68.4885 33.5545 68.456 33.6444L64.6305 42.0045L60.8838 33.6182ZM73.1394 43.0025C73.1351 43.0682 73.1446 43.134 73.1672 43.1958C73.1898 43.2576 73.2251 43.314 73.2707 43.3614C73.3175 43.408 73.3738 43.4439 73.4357 43.4665C73.4977 43.4892 73.5639 43.4981 73.6296 43.4927C73.6891 43.4902 73.7472 43.4747 73.8001 43.4475C73.853 43.4203 73.8994 43.382 73.936 43.3351C74.0205 43.2346 74.067 43.1076 74.0673 42.9762V36.5595C74.0972 36.2388 74.18 35.9252 74.3125 35.6316C74.6028 35.0486 75.0895 34.5867 75.6868 34.3272C75.9858 34.1895 76.3119 34.1207 76.641 34.1259C76.972 34.1212 77.3003 34.1868 77.604 34.3185C77.9006 34.4371 78.1713 34.6125 78.4006 34.835C78.6285 35.0552 78.8126 35.3166 78.9434 35.6053C79.0845 35.91 79.1591 36.2412 79.1622 36.577V43.02C79.1632 43.0847 79.1777 43.1486 79.2049 43.2074C79.232 43.2662 79.2711 43.3186 79.3198 43.3614C79.3615 43.4048 79.4119 43.4389 79.4677 43.4615C79.5236 43.4842 79.5835 43.4948 79.6437 43.4927C79.7054 43.4973 79.7674 43.4878 79.825 43.4651C79.8826 43.4423 79.9343 43.4069 79.9763 43.3614C80.0206 43.3167 80.0552 43.2632 80.0778 43.2045C80.1004 43.1457 80.1106 43.0829 80.1076 43.02V36.6821C80.1269 36.3521 80.207 36.0286 80.344 35.7279C80.4787 35.4172 80.6753 35.1372 80.9218 34.905C81.1587 34.6641 81.4376 34.4683 81.7446 34.3272C82.0523 34.1856 82.3865 34.111 82.7251 34.1084C83.0502 34.1061 83.3722 34.1717 83.6705 34.301C83.9652 34.4144 84.2334 34.5872 84.4584 34.8087C84.682 35.0306 84.863 35.2917 84.9924 35.5791C85.1261 35.8793 85.1947 36.2045 85.1937 36.5332V43.0025C85.1893 43.0635 85.1979 43.1247 85.219 43.1821C85.2402 43.2394 85.2733 43.2916 85.3163 43.3351C85.3622 43.3808 85.4169 43.4168 85.4771 43.4409C85.5373 43.4649 85.6017 43.4766 85.6665 43.4752C85.7272 43.4756 85.7874 43.4634 85.8431 43.4393C85.8989 43.4151 85.949 43.3797 85.9904 43.3351C86.0367 43.2915 86.0732 43.2385 86.0973 43.1796C86.1215 43.1207 86.1328 43.0573 86.1304 42.9937V36.5508C86.1183 36.1 86.0356 35.654 85.8853 35.2289C85.7279 34.834 85.5028 34.4696 85.22 34.1521C84.9387 33.8425 84.5958 33.595 84.2133 33.4256C83.8026 33.2449 83.3576 33.1553 82.9089 33.1629C82.5798 33.1604 82.2522 33.2076 81.9372 33.303C81.6307 33.3948 81.3366 33.5242 81.0618 33.6882C80.7847 33.8511 80.5314 34.0514 80.309 34.2835C80.0863 34.5162 79.8923 34.7748 79.7312 35.0538C79.5951 34.7806 79.4308 34.5224 79.241 34.2835C79.0376 34.0621 78.8117 33.8626 78.5669 33.6882C78.3138 33.5144 78.0366 33.3787 77.744 33.2855C77.3217 33.1551 76.8766 33.1149 76.4377 33.1677C75.9989 33.2205 75.576 33.365 75.1966 33.5919C74.719 33.8711 74.3187 34.2653 74.0323 34.7387V33.7757C73.9948 33.6513 73.9387 33.5333 73.866 33.4256C73.8317 33.3796 73.7866 33.3428 73.7347 33.3184C73.6828 33.294 73.6257 33.2827 73.5684 33.2855C73.5092 33.2764 73.4486 33.2847 73.3942 33.3096C73.3397 33.3345 73.2938 33.3748 73.262 33.4256C73.2033 33.5325 73.1759 33.6539 73.1832 33.7757V43.0025H73.1394ZM100.198 38.8618C100.26 38.8664 100.322 38.8569 100.38 38.8342C100.437 38.8115 100.489 38.776 100.531 38.7305C100.61 38.6376 100.653 38.5197 100.653 38.3979C100.654 37.7001 100.514 37.0094 100.242 36.3669C99.9721 35.7519 99.5924 35.1912 99.1214 34.7124C98.641 34.2393 98.0771 33.8594 97.4581 33.5919C96.8177 33.3131 96.1256 33.1729 95.4272 33.1804C94.7315 33.172 94.0421 33.3123 93.405 33.5919C92.7827 33.8531 92.2176 34.2338 91.7418 34.7124C91.2747 35.1792 90.8978 35.7283 90.63 36.3319C90.3564 36.9739 90.2164 37.6649 90.2186 38.3628C90.2183 39.0634 90.3582 39.7569 90.63 40.4025C91.1582 41.6629 92.1568 42.6677 93.4138 43.2038C94.0527 43.4775 94.7409 43.6175 95.436 43.6153C96.1988 43.6286 96.9541 43.4638 97.642 43.1338C98.2543 42.8388 98.8042 42.4286 99.2615 41.9257C99.3165 41.8842 99.3605 41.8297 99.3895 41.7671C99.4185 41.7045 99.4317 41.6357 99.4278 41.5668C99.4204 41.4517 99.3776 41.3416 99.3053 41.2517C99.2491 41.1784 99.1773 41.1186 99.0952 41.0766C99.0783 41.0698 99.0595 41.0698 99.0426 41.0766H98.9901C98.8578 41.0801 98.7309 41.1297 98.6312 41.2167C98.4562 41.4457 98.2499 41.649 98.0184 41.8207C97.7744 41.9957 97.5168 42.1508 97.2481 42.2847C96.967 42.4109 96.6736 42.5077 96.3727 42.5735C96.0852 42.6374 95.7917 42.6697 95.4972 42.6698C94.4297 42.6828 93.396 42.2955 92.5997 41.5843C92.241 41.228 91.945 40.8136 91.7243 40.3588C91.4939 39.8871 91.3543 39.3763 91.3128 38.8531H100.198V38.8618ZM91.234 38.0827C91.2684 37.5519 91.402 37.0323 91.628 36.5508C91.8441 36.0854 92.1404 35.6617 92.5034 35.2989C92.8809 34.9365 93.3275 34.6537 93.8165 34.4673C94.3239 34.2567 94.8691 34.1524 95.4185 34.1609C95.9647 34.1551 96.5066 34.2593 97.0117 34.4673C97.4943 34.6625 97.9387 34.941 98.3248 35.2902C98.7375 35.623 99.0772 36.0372 99.3228 36.507C99.5601 36.9853 99.7 37.5061 99.7342 38.0389H91.269L91.234 38.0827ZM104.934 43.0287C104.931 43.0951 104.942 43.1613 104.966 43.2231C104.99 43.285 105.027 43.341 105.074 43.3877C105.12 43.4353 105.176 43.4718 105.239 43.4946C105.301 43.5173 105.367 43.5256 105.433 43.519C105.494 43.5235 105.554 43.514 105.61 43.4912C105.667 43.4684 105.717 43.433 105.757 43.3877C105.847 43.2901 105.898 43.1618 105.897 43.0287V38.7918C105.893 38.1929 106.003 37.5987 106.221 37.041C106.42 36.5118 106.717 36.0247 107.096 35.6053C107.477 35.191 107.939 34.8601 108.453 34.6336C108.978 34.3943 109.548 34.2719 110.125 34.2747H110.23C110.297 34.2779 110.363 34.267 110.425 34.2429C110.487 34.2188 110.543 34.1819 110.589 34.1346C110.637 34.0921 110.674 34.0393 110.699 33.9801C110.723 33.921 110.733 33.857 110.729 33.7932C110.731 33.7305 110.721 33.6679 110.698 33.6093C110.675 33.5507 110.641 33.4972 110.598 33.4518C110.549 33.4052 110.491 33.3688 110.428 33.3447C110.365 33.3207 110.298 33.3095 110.23 33.3118H110.125C109.656 33.3084 109.189 33.3793 108.742 33.5219C108.315 33.6469 107.91 33.839 107.543 34.0909C107.187 34.3388 106.866 34.6332 106.589 34.9663C106.302 35.3125 106.058 35.6916 105.862 36.0955L105.774 33.7582C105.74 33.6343 105.687 33.5162 105.617 33.4081C105.581 33.362 105.534 33.3252 105.481 33.3009C105.427 33.2765 105.369 33.2652 105.311 33.268C105.253 33.2606 105.194 33.2699 105.141 33.2947C105.089 33.3195 105.044 33.3588 105.013 33.4081C104.951 33.5141 104.921 33.6356 104.925 33.7582V43.0025L104.934 43.0287Z"/>
<path d="M114.8 36.7521C115.004 36.2464 115.301 35.7832 115.675 35.3865C116.061 34.9917 116.522 34.679 117.032 34.4673C117.561 34.2448 118.13 34.1316 118.704 34.1347C119.281 34.1316 119.853 34.2448 120.385 34.4673C120.89 34.6771 121.347 34.9902 121.724 35.3865C122.106 35.7775 122.404 36.2422 122.6 36.7521C122.818 37.2824 122.928 37.8508 122.924 38.4242C122.927 38.9889 122.817 39.5486 122.6 40.0699C122.396 40.5757 122.099 41.0389 121.724 41.4356C121.343 41.8316 120.888 42.1497 120.385 42.3722C119.856 42.6059 119.282 42.7224 118.704 42.7136C118.128 42.7251 117.557 42.6085 117.032 42.3722C116.521 42.1543 116.06 41.8358 115.675 41.4356C115.301 41.0389 115.004 40.5757 114.8 40.0699C114.583 39.5486 114.472 38.9889 114.476 38.4242C114.472 37.8508 114.582 37.2824 114.8 36.7521ZM113.924 40.4551C114.201 41.08 114.593 41.6472 115.08 42.1271C115.559 42.606 116.127 42.9866 116.752 43.2476C117.396 43.5185 118.088 43.658 118.787 43.658C119.486 43.658 120.178 43.5185 120.823 43.2476C121.446 42.9886 122.012 42.6077 122.486 42.1271C122.954 41.6408 123.33 41.0745 123.598 40.4551C124.134 39.1513 124.134 37.6883 123.598 36.3845C123.332 35.7639 122.956 35.1972 122.486 34.7125C122.007 34.2374 121.443 33.8572 120.823 33.5919C120.178 33.3211 119.486 33.1816 118.787 33.1816C118.088 33.1816 117.396 33.3211 116.752 33.5919C116.128 33.8542 115.56 34.2347 115.08 34.7125C114.598 35.1891 114.217 35.7577 113.959 36.3845C113.689 37.0288 113.549 37.7208 113.549 38.4198C113.549 39.1188 113.689 39.8107 113.959 40.4551H113.924Z"/>
</mask>
<path d="M31.8466 46.7317C31.8428 46.7971 31.8528 46.8625 31.8761 46.9237C31.8994 46.9849 31.9354 47.0405 31.9817 47.0868C32.028 47.1331 32.0836 47.1691 32.1448 47.1924C32.206 47.2157 32.2715 47.2257 32.3368 47.2219C32.3992 47.2248 32.4614 47.2137 32.519 47.1894C32.5765 47.1652 32.6279 47.1285 32.6695 47.0819C32.7547 46.9852 32.8015 46.8606 32.8008 46.7317V41.3742C33.0481 41.7199 33.3394 42.0319 33.6674 42.3022C33.973 42.5849 34.3145 42.8262 34.6829 43.02C35.0611 43.2121 35.4569 43.3674 35.8647 43.484C36.2851 43.5924 36.7174 43.6482 37.1516 43.6503C38.1806 43.6504 39.1866 43.3452 40.0421 42.7733C40.8977 42.2014 41.5643 41.3885 41.9575 40.4375C42.2353 39.7999 42.3755 39.1109 42.369 38.4154C42.3686 37.6962 42.2133 36.9856 41.9137 36.3319C41.3941 35.0739 40.4005 34.0708 39.1475 33.5394C38.503 33.2638 37.8087 33.1238 37.1078 33.1279C36.6646 33.1249 36.2231 33.1808 35.7947 33.2942C35.375 33.3997 34.9715 33.5617 34.5954 33.7757C34.2257 33.9788 33.8818 34.2257 33.5711 34.5111C33.2729 34.815 33.0114 35.1529 32.792 35.5178L32.722 33.767C32.6922 33.6424 32.6354 33.5258 32.5557 33.4256C32.5259 33.3792 32.4842 33.3417 32.4349 33.317C32.3856 33.2924 32.3305 33.2815 32.2755 33.2855C32.2167 33.2804 32.1576 33.2906 32.1039 33.3151C32.0502 33.3397 32.0038 33.3777 31.9692 33.4256C31.9104 33.5325 31.8831 33.6539 31.8904 33.7757V46.7317H31.8466ZM33.1597 36.7521C33.3639 36.2463 33.6608 35.7832 34.0351 35.3865C34.431 34.9863 34.9029 34.6694 35.4231 34.4545C35.9432 34.2395 36.5012 34.1307 37.064 34.1346C37.6437 34.1326 38.2179 34.2456 38.7535 34.4673C39.2579 34.6793 39.7137 34.9921 40.0929 35.3865C40.4717 35.7796 40.7692 36.2437 40.9683 36.7521C41.1865 37.2823 41.2966 37.8508 41.2922 38.4241C41.2957 38.9889 41.1856 39.5486 40.9683 40.0699C40.7608 40.5739 40.4643 41.0365 40.0929 41.4355C39.7092 41.8291 39.2548 42.1468 38.7535 42.3722C38.2214 42.6058 37.6451 42.7222 37.064 42.7136C36.4972 42.7204 35.9356 42.6039 35.4183 42.3722C34.3962 41.9255 33.5867 41.1004 33.1597 40.0699C32.9277 39.5516 32.8026 38.9919 32.792 38.4241C32.7906 37.8502 32.9037 37.2818 33.1247 36.7521H33.1597ZM46.352 40.4551C46.6216 41.0776 47.0045 41.6446 47.4813 42.1271C48.4625 43.1049 49.7903 43.6555 51.1755 43.659C52.037 43.6623 52.8845 43.4421 53.6354 43.02C54.0102 42.813 54.3598 42.5633 54.6771 42.2759C54.988 42.001 55.2643 41.6894 55.5 41.348V43.02C55.497 43.085 55.5079 43.1499 55.5321 43.2103C55.5563 43.2707 55.5931 43.3252 55.6401 43.3702C55.6834 43.417 55.7363 43.4537 55.7953 43.4779C55.8543 43.5021 55.9178 43.5131 55.9815 43.5102C56.0478 43.5134 56.114 43.5025 56.1759 43.4784C56.2377 43.4543 56.2938 43.4174 56.3404 43.3702C56.4256 43.2727 56.475 43.1492 56.4805 43.02V33.7932C56.4827 33.668 56.4526 33.5444 56.3929 33.4343C56.3587 33.3888 56.3134 33.3528 56.2613 33.3298C56.2091 33.3068 56.152 33.2976 56.0953 33.303C56.0399 33.2983 55.9843 33.3079 55.9337 33.3309C55.8831 33.3539 55.8393 33.3895 55.8064 33.4343C55.7338 33.5389 55.6777 33.6541 55.6401 33.7757L55.5525 35.4565C55.3049 35.1237 55.01 34.8287 54.6771 34.5811C54.3665 34.2983 54.0225 34.0543 53.6529 33.8545C53.2778 33.647 52.8777 33.4881 52.4624 33.3818C52.0429 33.2641 51.6109 33.1965 51.1755 33.1804C50.48 33.1739 49.791 33.3141 49.1533 33.5919C48.529 33.8541 47.9612 34.2346 47.4813 34.7124C46.9968 35.1886 46.6128 35.7572 46.352 36.3844C46.0812 37.0288 45.9417 37.7208 45.9417 38.4197C45.9417 39.1187 46.0812 39.8107 46.352 40.4551ZM47.2275 36.7521C47.4316 36.2463 47.7285 35.7832 48.1029 35.3865C48.4901 34.9936 48.9513 34.6812 49.4597 34.4673C49.9912 34.2469 50.5608 34.1335 51.1361 34.1335C51.7114 34.1335 52.2811 34.2469 52.8125 34.4673C53.8334 34.904 54.6415 35.7246 55.0623 36.7521C55.2833 37.2818 55.3964 37.8502 55.395 38.4241C55.3955 38.9894 55.2823 39.5491 55.0623 40.0699C54.6321 41.0952 53.8277 41.9184 52.8125 42.3722C52.2837 42.6067 51.7102 42.7232 51.1318 42.7136C50.5561 42.7242 49.9852 42.6076 49.4597 42.3722C48.9504 42.152 48.4893 41.8338 48.1029 41.4355C47.7285 41.0388 47.4316 40.5757 47.2275 40.0699C47.0074 39.5491 46.8943 38.9894 46.8948 38.4241C46.8848 37.8494 46.9983 37.2792 47.2275 36.7521ZM60.8838 33.6182C60.8476 33.5274 60.7831 33.4506 60.6999 33.3993C60.6282 33.3413 60.5383 33.3103 60.4461 33.3118C60.3796 33.3138 60.3143 33.3287 60.2535 33.3555C60.193 33.381 60.1383 33.4186 60.0929 33.4659C60.0474 33.5133 60.0121 33.5694 59.9892 33.6309C59.9662 33.6924 59.9561 33.7579 59.9594 33.8235C59.9627 33.889 59.9793 33.9532 60.0084 34.0121L64.1928 43.125L64.1052 43.3702C63.9284 43.7931 63.7267 44.2053 63.5012 44.6045C63.317 44.9253 63.0903 45.2198 62.8272 45.4799C62.5776 45.7214 62.2791 45.9065 61.9518 46.0226C61.5943 46.1589 61.2137 46.2243 60.8312 46.2152H60.5248C60.3998 46.2126 60.2783 46.2563 60.1834 46.3378C60.1068 46.4167 60.0584 46.5187 60.0458 46.6279C60.0331 46.7371 60.0569 46.8475 60.1134 46.9418C60.151 47.0063 60.2098 47.0557 60.2797 47.0819C60.3559 47.1095 60.4354 47.1272 60.5161 47.1344C60.5975 47.1434 60.6797 47.1434 60.7612 47.1344C61.2459 47.1441 61.7286 47.0701 62.1881 46.9155C62.5883 46.7621 62.9587 46.5399 63.2824 46.259C63.6225 45.9226 63.9168 45.543 64.1578 45.1297C64.4678 44.6163 64.7399 44.0808 64.9719 43.5277L65.112 43.2038L69.3227 34.0383C69.3757 33.9176 69.3788 33.7807 69.3312 33.6577C69.2837 33.5346 69.1893 33.4354 69.0688 33.3818C69.0135 33.3569 68.9542 33.342 68.8937 33.338C68.7981 33.3378 68.7047 33.367 68.6263 33.4219C68.548 33.4767 68.4885 33.5545 68.456 33.6444L64.6305 42.0045L60.8838 33.6182ZM73.1394 43.0025C73.1351 43.0682 73.1446 43.134 73.1672 43.1958C73.1898 43.2576 73.2251 43.314 73.2707 43.3614C73.3175 43.408 73.3738 43.4439 73.4357 43.4665C73.4977 43.4892 73.5639 43.4981 73.6296 43.4927C73.6891 43.4902 73.7472 43.4747 73.8001 43.4475C73.853 43.4203 73.8994 43.382 73.936 43.3351C74.0205 43.2346 74.067 43.1076 74.0673 42.9762V36.5595C74.0972 36.2388 74.18 35.9252 74.3125 35.6316C74.6028 35.0486 75.0895 34.5867 75.6868 34.3272C75.9858 34.1895 76.3119 34.1207 76.641 34.1259C76.972 34.1212 77.3003 34.1868 77.604 34.3185C77.9006 34.4371 78.1713 34.6125 78.4006 34.835C78.6285 35.0552 78.8126 35.3166 78.9434 35.6053C79.0845 35.91 79.1591 36.2412 79.1622 36.577V43.02C79.1632 43.0847 79.1777 43.1486 79.2049 43.2074C79.232 43.2662 79.2711 43.3186 79.3198 43.3614C79.3615 43.4048 79.4119 43.4389 79.4677 43.4615C79.5236 43.4842 79.5835 43.4948 79.6437 43.4927C79.7054 43.4973 79.7674 43.4878 79.825 43.4651C79.8826 43.4423 79.9343 43.4069 79.9763 43.3614C80.0206 43.3167 80.0552 43.2632 80.0778 43.2045C80.1004 43.1457 80.1106 43.0829 80.1076 43.02V36.6821C80.1269 36.3521 80.207 36.0286 80.344 35.7279C80.4787 35.4172 80.6753 35.1372 80.9218 34.905C81.1587 34.6641 81.4376 34.4683 81.7446 34.3272C82.0523 34.1856 82.3865 34.111 82.7251 34.1084C83.0502 34.1061 83.3722 34.1717 83.6705 34.301C83.9652 34.4144 84.2334 34.5872 84.4584 34.8087C84.682 35.0306 84.863 35.2917 84.9924 35.5791C85.1261 35.8793 85.1947 36.2045 85.1937 36.5332V43.0025C85.1893 43.0635 85.1979 43.1247 85.219 43.1821C85.2402 43.2394 85.2733 43.2916 85.3163 43.3351C85.3622 43.3808 85.4169 43.4168 85.4771 43.4409C85.5373 43.4649 85.6017 43.4766 85.6665 43.4752C85.7272 43.4756 85.7874 43.4634 85.8431 43.4393C85.8989 43.4151 85.949 43.3797 85.9904 43.3351C86.0367 43.2915 86.0732 43.2385 86.0973 43.1796C86.1215 43.1207 86.1328 43.0573 86.1304 42.9937V36.5508C86.1183 36.1 86.0356 35.654 85.8853 35.2289C85.7279 34.834 85.5028 34.4696 85.22 34.1521C84.9387 33.8425 84.5958 33.595 84.2133 33.4256C83.8026 33.2449 83.3576 33.1553 82.9089 33.1629C82.5798 33.1604 82.2522 33.2076 81.9372 33.303C81.6307 33.3948 81.3366 33.5242 81.0618 33.6882C80.7847 33.8511 80.5314 34.0514 80.309 34.2835C80.0863 34.5162 79.8923 34.7748 79.7312 35.0538C79.5951 34.7806 79.4308 34.5224 79.241 34.2835C79.0376 34.0621 78.8117 33.8626 78.5669 33.6882C78.3138 33.5144 78.0366 33.3787 77.744 33.2855C77.3217 33.1551 76.8766 33.1149 76.4377 33.1677C75.9989 33.2205 75.576 33.365 75.1966 33.5919C74.719 33.8711 74.3187 34.2653 74.0323 34.7387V33.7757C73.9948 33.6513 73.9387 33.5333 73.866 33.4256C73.8317 33.3796 73.7866 33.3428 73.7347 33.3184C73.6828 33.294 73.6257 33.2827 73.5684 33.2855C73.5092 33.2764 73.4486 33.2847 73.3942 33.3096C73.3397 33.3345 73.2938 33.3748 73.262 33.4256C73.2033 33.5325 73.1759 33.6539 73.1832 33.7757V43.0025H73.1394ZM100.198 38.8618C100.26 38.8664 100.322 38.8569 100.38 38.8342C100.437 38.8115 100.489 38.776 100.531 38.7305C100.61 38.6376 100.653 38.5197 100.653 38.3979C100.654 37.7001 100.514 37.0094 100.242 36.3669C99.9721 35.7519 99.5924 35.1912 99.1214 34.7124C98.641 34.2393 98.0771 33.8594 97.4581 33.5919C96.8177 33.3131 96.1256 33.1729 95.4272 33.1804C94.7315 33.172 94.0421 33.3123 93.405 33.5919C92.7827 33.8531 92.2176 34.2338 91.7418 34.7124C91.2747 35.1792 90.8978 35.7283 90.63 36.3319C90.3564 36.9739 90.2164 37.6649 90.2186 38.3628C90.2183 39.0634 90.3582 39.7569 90.63 40.4025C91.1582 41.6629 92.1568 42.6677 93.4138 43.2038C94.0527 43.4775 94.7409 43.6175 95.436 43.6153C96.1988 43.6286 96.9541 43.4638 97.642 43.1338C98.2543 42.8388 98.8042 42.4286 99.2615 41.9257C99.3165 41.8842 99.3605 41.8297 99.3895 41.7671C99.4185 41.7045 99.4317 41.6357 99.4278 41.5668C99.4204 41.4517 99.3776 41.3416 99.3053 41.2517C99.2491 41.1784 99.1773 41.1186 99.0952 41.0766C99.0783 41.0698 99.0595 41.0698 99.0426 41.0766H98.9901C98.8578 41.0801 98.7309 41.1297 98.6312 41.2167C98.4562 41.4457 98.2499 41.649 98.0184 41.8207C97.7744 41.9957 97.5168 42.1508 97.2481 42.2847C96.967 42.4109 96.6736 42.5077 96.3727 42.5735C96.0852 42.6374 95.7917 42.6697 95.4972 42.6698C94.4297 42.6828 93.396 42.2955 92.5997 41.5843C92.241 41.228 91.945 40.8136 91.7243 40.3588C91.4939 39.8871 91.3543 39.3763 91.3128 38.8531H100.198V38.8618ZM91.234 38.0827C91.2684 37.5519 91.402 37.0323 91.628 36.5508C91.8441 36.0854 92.1404 35.6617 92.5034 35.2989C92.8809 34.9365 93.3275 34.6537 93.8165 34.4673C94.3239 34.2567 94.8691 34.1524 95.4185 34.1609C95.9647 34.1551 96.5066 34.2593 97.0117 34.4673C97.4943 34.6625 97.9387 34.941 98.3248 35.2902C98.7375 35.623 99.0772 36.0372 99.3228 36.507C99.5601 36.9853 99.7 37.5061 99.7342 38.0389H91.269L91.234 38.0827ZM104.934 43.0287C104.931 43.0951 104.942 43.1613 104.966 43.2231C104.99 43.285 105.027 43.341 105.074 43.3877C105.12 43.4353 105.176 43.4718 105.239 43.4946C105.301 43.5173 105.367 43.5256 105.433 43.519C105.494 43.5235 105.554 43.514 105.61 43.4912C105.667 43.4684 105.717 43.433 105.757 43.3877C105.847 43.2901 105.898 43.1618 105.897 43.0287V38.7918C105.893 38.1929 106.003 37.5987 106.221 37.041C106.42 36.5118 106.717 36.0247 107.096 35.6053C107.477 35.191 107.939 34.8601 108.453 34.6336C108.978 34.3943 109.548 34.2719 110.125 34.2747H110.23C110.297 34.2779 110.363 34.267 110.425 34.2429C110.487 34.2188 110.543 34.1819 110.589 34.1346C110.637 34.0921 110.674 34.0393 110.699 33.9801C110.723 33.921 110.733 33.857 110.729 33.7932C110.731 33.7305 110.721 33.6679 110.698 33.6093C110.675 33.5507 110.641 33.4972 110.598 33.4518C110.549 33.4052 110.491 33.3688 110.428 33.3447C110.365 33.3207 110.298 33.3095 110.23 33.3118H110.125C109.656 33.3084 109.189 33.3793 108.742 33.5219C108.315 33.6469 107.91 33.839 107.543 34.0909C107.187 34.3388 106.866 34.6332 106.589 34.9663C106.302 35.3125 106.058 35.6916 105.862 36.0955L105.774 33.7582C105.74 33.6343 105.687 33.5162 105.617 33.4081C105.581 33.362 105.534 33.3252 105.481 33.3009C105.427 33.2765 105.369 33.2652 105.311 33.268C105.253 33.2606 105.194 33.2699 105.141 33.2947C105.089 33.3195 105.044 33.3588 105.013 33.4081C104.951 33.5141 104.921 33.6356 104.925 33.7582V43.0025L104.934 43.0287Z" fill="black"/>
<path d="M114.8 36.7521C115.004 36.2464 115.301 35.7832 115.675 35.3865C116.061 34.9917 116.522 34.679 117.032 34.4673C117.561 34.2448 118.13 34.1316 118.704 34.1347C119.281 34.1316 119.853 34.2448 120.385 34.4673C120.89 34.6771 121.347 34.9902 121.724 35.3865C122.106 35.7775 122.404 36.2422 122.6 36.7521C122.818 37.2824 122.928 37.8508 122.924 38.4242C122.927 38.9889 122.817 39.5486 122.6 40.0699C122.396 40.5757 122.099 41.0389 121.724 41.4356C121.343 41.8316 120.888 42.1497 120.385 42.3722C119.856 42.6059 119.282 42.7224 118.704 42.7136C118.128 42.7251 117.557 42.6085 117.032 42.3722C116.521 42.1543 116.06 41.8358 115.675 41.4356C115.301 41.0389 115.004 40.5757 114.8 40.0699C114.583 39.5486 114.472 38.9889 114.476 38.4242C114.472 37.8508 114.582 37.2824 114.8 36.7521ZM113.924 40.4551C114.201 41.08 114.593 41.6472 115.08 42.1271C115.559 42.606 116.127 42.9866 116.752 43.2476C117.396 43.5185 118.088 43.658 118.787 43.658C119.486 43.658 120.178 43.5185 120.823 43.2476C121.446 42.9886 122.012 42.6077 122.486 42.1271C122.954 41.6408 123.33 41.0745 123.598 40.4551C124.134 39.1513 124.134 37.6883 123.598 36.3845C123.332 35.7639 122.956 35.1972 122.486 34.7125C122.007 34.2374 121.443 33.8572 120.823 33.5919C120.178 33.3211 119.486 33.1816 118.787 33.1816C118.088 33.1816 117.396 33.3211 116.752 33.5919C116.128 33.8542 115.56 34.2347 115.08 34.7125C114.598 35.1891 114.217 35.7577 113.959 36.3845C113.689 37.0288 113.549 37.7208 113.549 38.4198C113.549 39.1188 113.689 39.8107 113.959 40.4551H113.924Z" fill="black"/>
<path d="M31.8466 46.7317C31.8428 46.7971 31.8528 46.8625 31.8761 46.9237C31.8994 46.9849 31.9354 47.0405 31.9817 47.0868C32.028 47.1331 32.0836 47.1691 32.1448 47.1924C32.206 47.2157 32.2715 47.2257 32.3368 47.2219C32.3992 47.2248 32.4614 47.2137 32.519 47.1894C32.5765 47.1652 32.6279 47.1285 32.6695 47.0819C32.7547 46.9852 32.8015 46.8606 32.8008 46.7317V41.3742C33.0481 41.7199 33.3394 42.0319 33.6674 42.3022C33.973 42.5849 34.3145 42.8262 34.6829 43.02C35.0611 43.2121 35.4569 43.3674 35.8647 43.484C36.2851 43.5924 36.7174 43.6482 37.1516 43.6503C38.1806 43.6504 39.1866 43.3452 40.0421 42.7733C40.8977 42.2014 41.5643 41.3885 41.9575 40.4375C42.2353 39.7999 42.3755 39.1109 42.369 38.4154C42.3686 37.6962 42.2133 36.9856 41.9137 36.3319C41.3941 35.0739 40.4005 34.0708 39.1475 33.5394C38.503 33.2638 37.8087 33.1238 37.1078 33.1279C36.6646 33.1249 36.2231 33.1808 35.7947 33.2942C35.375 33.3997 34.9715 33.5617 34.5954 33.7757C34.2257 33.9788 33.8818 34.2257 33.5711 34.5111C33.2729 34.815 33.0114 35.1529 32.792 35.5178L32.722 33.767C32.6922 33.6424 32.6354 33.5258 32.5557 33.4256C32.5259 33.3792 32.4842 33.3417 32.4349 33.317C32.3856 33.2924 32.3305 33.2815 32.2755 33.2855C32.2167 33.2804 32.1576 33.2906 32.1039 33.3151C32.0502 33.3397 32.0038 33.3777 31.9692 33.4256C31.9104 33.5325 31.8831 33.6539 31.8904 33.7757V46.7317H31.8466ZM33.1597 36.7521C33.3639 36.2463 33.6608 35.7832 34.0351 35.3865C34.431 34.9863 34.9029 34.6694 35.4231 34.4545C35.9432 34.2395 36.5012 34.1307 37.064 34.1346C37.6437 34.1326 38.2179 34.2456 38.7535 34.4673C39.2579 34.6793 39.7137 34.9921 40.0929 35.3865C40.4717 35.7796 40.7692 36.2437 40.9683 36.7521C41.1865 37.2823 41.2966 37.8508 41.2922 38.4241C41.2957 38.9889 41.1856 39.5486 40.9683 40.0699C40.7608 40.5739 40.4643 41.0365 40.0929 41.4355C39.7092 41.8291 39.2548 42.1468 38.7535 42.3722C38.2214 42.6058 37.6451 42.7222 37.064 42.7136C36.4972 42.7204 35.9356 42.6039 35.4183 42.3722C34.3962 41.9255 33.5867 41.1004 33.1597 40.0699C32.9277 39.5516 32.8026 38.9919 32.792 38.4241C32.7906 37.8502 32.9037 37.2818 33.1247 36.7521H33.1597ZM46.352 40.4551C46.6216 41.0776 47.0045 41.6446 47.4813 42.1271C48.4625 43.1049 49.7903 43.6555 51.1755 43.659C52.037 43.6623 52.8845 43.4421 53.6354 43.02C54.0102 42.813 54.3598 42.5633 54.6771 42.2759C54.988 42.001 55.2643 41.6894 55.5 41.348V43.02C55.497 43.085 55.5079 43.1499 55.5321 43.2103C55.5563 43.2707 55.5931 43.3252 55.6401 43.3702C55.6834 43.417 55.7363 43.4537 55.7953 43.4779C55.8543 43.5021 55.9178 43.5131 55.9815 43.5102C56.0478 43.5134 56.114 43.5025 56.1759 43.4784C56.2377 43.4543 56.2938 43.4174 56.3404 43.3702C56.4256 43.2727 56.475 43.1492 56.4805 43.02V33.7932C56.4827 33.668 56.4526 33.5444 56.3929 33.4343C56.3587 33.3888 56.3134 33.3528 56.2613 33.3298C56.2091 33.3068 56.152 33.2976 56.0953 33.303C56.0399 33.2983 55.9843 33.3079 55.9337 33.3309C55.8831 33.3539 55.8393 33.3895 55.8064 33.4343C55.7338 33.5389 55.6777 33.6541 55.6401 33.7757L55.5525 35.4565C55.3049 35.1237 55.01 34.8287 54.6771 34.5811C54.3665 34.2983 54.0225 34.0543 53.6529 33.8545C53.2778 33.647 52.8777 33.4881 52.4624 33.3818C52.0429 33.2641 51.6109 33.1965 51.1755 33.1804C50.48 33.1739 49.791 33.3141 49.1533 33.5919C48.529 33.8541 47.9612 34.2346 47.4813 34.7124C46.9968 35.1886 46.6128 35.7572 46.352 36.3844C46.0812 37.0288 45.9417 37.7208 45.9417 38.4197C45.9417 39.1187 46.0812 39.8107 46.352 40.4551ZM47.2275 36.7521C47.4316 36.2463 47.7285 35.7832 48.1029 35.3865C48.4901 34.9936 48.9513 34.6812 49.4597 34.4673C49.9912 34.2469 50.5608 34.1335 51.1361 34.1335C51.7114 34.1335 52.2811 34.2469 52.8125 34.4673C53.8334 34.904 54.6415 35.7246 55.0623 36.7521C55.2833 37.2818 55.3964 37.8502 55.395 38.4241C55.3955 38.9894 55.2823 39.5491 55.0623 40.0699C54.6321 41.0952 53.8277 41.9184 52.8125 42.3722C52.2837 42.6067 51.7102 42.7232 51.1318 42.7136C50.5561 42.7242 49.9852 42.6076 49.4597 42.3722C48.9504 42.152 48.4893 41.8338 48.1029 41.4355C47.7285 41.0388 47.4316 40.5757 47.2275 40.0699C47.0074 39.5491 46.8943 38.9894 46.8948 38.4241C46.8848 37.8494 46.9983 37.2792 47.2275 36.7521ZM60.8838 33.6182C60.8476 33.5274 60.7831 33.4506 60.6999 33.3993C60.6282 33.3413 60.5383 33.3103 60.4461 33.3118C60.3796 33.3138 60.3143 33.3287 60.2535 33.3555C60.193 33.381 60.1383 33.4186 60.0929 33.4659C60.0474 33.5133 60.0121 33.5694 59.9892 33.6309C59.9662 33.6924 59.9561 33.7579 59.9594 33.8235C59.9627 33.889 59.9793 33.9532 60.0084 34.0121L64.1928 43.125L64.1052 43.3702C63.9284 43.7931 63.7267 44.2053 63.5012 44.6045C63.317 44.9253 63.0903 45.2198 62.8272 45.4799C62.5776 45.7214 62.2791 45.9065 61.9518 46.0226C61.5943 46.1589 61.2137 46.2243 60.8312 46.2152H60.5248C60.3998 46.2126 60.2783 46.2563 60.1834 46.3378C60.1068 46.4167 60.0584 46.5187 60.0458 46.6279C60.0331 46.7371 60.0569 46.8475 60.1134 46.9418C60.151 47.0063 60.2098 47.0557 60.2797 47.0819C60.3559 47.1095 60.4354 47.1272 60.5161 47.1344C60.5975 47.1434 60.6797 47.1434 60.7612 47.1344C61.2459 47.1441 61.7286 47.0701 62.1881 46.9155C62.5883 46.7621 62.9587 46.5399 63.2824 46.259C63.6225 45.9226 63.9168 45.543 64.1578 45.1297C64.4678 44.6163 64.7399 44.0808 64.9719 43.5277L65.112 43.2038L69.3227 34.0383C69.3757 33.9176 69.3788 33.7807 69.3312 33.6577C69.2837 33.5346 69.1893 33.4354 69.0688 33.3818C69.0135 33.3569 68.9542 33.342 68.8937 33.338C68.7981 33.3378 68.7047 33.367 68.6263 33.4219C68.548 33.4767 68.4885 33.5545 68.456 33.6444L64.6305 42.0045L60.8838 33.6182ZM73.1394 43.0025C73.1351 43.0682 73.1446 43.134 73.1672 43.1958C73.1898 43.2576 73.2251 43.314 73.2707 43.3614C73.3175 43.408 73.3738 43.4439 73.4357 43.4665C73.4977 43.4892 73.5639 43.4981 73.6296 43.4927C73.6891 43.4902 73.7472 43.4747 73.8001 43.4475C73.853 43.4203 73.8994 43.382 73.936 43.3351C74.0205 43.2346 74.067 43.1076 74.0673 42.9762V36.5595C74.0972 36.2388 74.18 35.9252 74.3125 35.6316C74.6028 35.0486 75.0895 34.5867 75.6868 34.3272C75.9858 34.1895 76.3119 34.1207 76.641 34.1259C76.972 34.1212 77.3003 34.1868 77.604 34.3185C77.9006 34.4371 78.1713 34.6125 78.4006 34.835C78.6285 35.0552 78.8126 35.3166 78.9434 35.6053C79.0845 35.91 79.1591 36.2412 79.1622 36.577V43.02C79.1632 43.0847 79.1777 43.1486 79.2049 43.2074C79.232 43.2662 79.2711 43.3186 79.3198 43.3614C79.3615 43.4048 79.4119 43.4389 79.4677 43.4615C79.5236 43.4842 79.5835 43.4948 79.6437 43.4927C79.7054 43.4973 79.7674 43.4878 79.825 43.4651C79.8826 43.4423 79.9343 43.4069 79.9763 43.3614C80.0206 43.3167 80.0552 43.2632 80.0778 43.2045C80.1004 43.1457 80.1106 43.0829 80.1076 43.02V36.6821C80.1269 36.3521 80.207 36.0286 80.344 35.7279C80.4787 35.4172 80.6753 35.1372 80.9218 34.905C81.1587 34.6641 81.4376 34.4683 81.7446 34.3272C82.0523 34.1856 82.3865 34.111 82.7251 34.1084C83.0502 34.1061 83.3722 34.1717 83.6705 34.301C83.9652 34.4144 84.2334 34.5872 84.4584 34.8087C84.682 35.0306 84.863 35.2917 84.9924 35.5791C85.1261 35.8793 85.1947 36.2045 85.1937 36.5332V43.0025C85.1893 43.0635 85.1979 43.1247 85.219 43.1821C85.2402 43.2394 85.2733 43.2916 85.3163 43.3351C85.3622 43.3808 85.4169 43.4168 85.4771 43.4409C85.5373 43.4649 85.6017 43.4766 85.6665 43.4752C85.7272 43.4756 85.7874 43.4634 85.8431 43.4393C85.8989 43.4151 85.949 43.3797 85.9904 43.3351C86.0367 43.2915 86.0732 43.2385 86.0973 43.1796C86.1215 43.1207 86.1328 43.0573 86.1304 42.9937V36.5508C86.1183 36.1 86.0356 35.654 85.8853 35.2289C85.7279 34.834 85.5028 34.4696 85.22 34.1521C84.9387 33.8425 84.5958 33.595 84.2133 33.4256C83.8026 33.2449 83.3576 33.1553 82.9089 33.1629C82.5798 33.1604 82.2522 33.2076 81.9372 33.303C81.6307 33.3948 81.3366 33.5242 81.0618 33.6882C80.7847 33.8511 80.5314 34.0514 80.309 34.2835C80.0863 34.5162 79.8923 34.7748 79.7312 35.0538C79.5951 34.7806 79.4308 34.5224 79.241 34.2835C79.0376 34.0621 78.8117 33.8626 78.5669 33.6882C78.3138 33.5144 78.0366 33.3787 77.744 33.2855C77.3217 33.1551 76.8766 33.1149 76.4377 33.1677C75.9989 33.2205 75.576 33.365 75.1966 33.5919C74.719 33.8711 74.3187 34.2653 74.0323 34.7387V33.7757C73.9948 33.6513 73.9387 33.5333 73.866 33.4256C73.8317 33.3796 73.7866 33.3428 73.7347 33.3184C73.6828 33.294 73.6257 33.2827 73.5684 33.2855C73.5092 33.2764 73.4486 33.2847 73.3942 33.3096C73.3397 33.3345 73.2938 33.3748 73.262 33.4256C73.2033 33.5325 73.1759 33.6539 73.1832 33.7757V43.0025H73.1394ZM100.198 38.8618C100.26 38.8664 100.322 38.8569 100.38 38.8342C100.437 38.8115 100.489 38.776 100.531 38.7305C100.61 38.6376 100.653 38.5197 100.653 38.3979C100.654 37.7001 100.514 37.0094 100.242 36.3669C99.9721 35.7519 99.5924 35.1912 99.1214 34.7124C98.641 34.2393 98.0771 33.8594 97.4581 33.5919C96.8177 33.3131 96.1256 33.1729 95.4272 33.1804C94.7315 33.172 94.0421 33.3123 93.405 33.5919C92.7827 33.8531 92.2176 34.2338 91.7418 34.7124C91.2747 35.1792 90.8978 35.7283 90.63 36.3319C90.3564 36.9739 90.2164 37.6649 90.2186 38.3628C90.2183 39.0634 90.3582 39.7569 90.63 40.4025C91.1582 41.6629 92.1568 42.6677 93.4138 43.2038C94.0527 43.4775 94.7409 43.6175 95.436 43.6153C96.1988 43.6286 96.9541 43.4638 97.642 43.1338C98.2543 42.8388 98.8042 42.4286 99.2615 41.9257C99.3165 41.8842 99.3605 41.8297 99.3895 41.7671C99.4185 41.7045 99.4317 41.6357 99.4278 41.5668C99.4204 41.4517 99.3776 41.3416 99.3053 41.2517C99.2491 41.1784 99.1773 41.1186 99.0952 41.0766C99.0783 41.0698 99.0595 41.0698 99.0426 41.0766H98.9901C98.8578 41.0801 98.7309 41.1297 98.6312 41.2167C98.4562 41.4457 98.2499 41.649 98.0184 41.8207C97.7744 41.9957 97.5168 42.1508 97.2481 42.2847C96.967 42.4109 96.6736 42.5077 96.3727 42.5735C96.0852 42.6374 95.7917 42.6697 95.4972 42.6698C94.4297 42.6828 93.396 42.2955 92.5997 41.5843C92.241 41.228 91.945 40.8136 91.7243 40.3588C91.4939 39.8871 91.3543 39.3763 91.3128 38.8531H100.198V38.8618ZM91.234 38.0827C91.2684 37.5519 91.402 37.0323 91.628 36.5508C91.8441 36.0854 92.1404 35.6617 92.5034 35.2989C92.8809 34.9365 93.3275 34.6537 93.8165 34.4673C94.3239 34.2567 94.8691 34.1524 95.4185 34.1609C95.9647 34.1551 96.5066 34.2593 97.0117 34.4673C97.4943 34.6625 97.9387 34.941 98.3248 35.2902C98.7375 35.623 99.0772 36.0372 99.3228 36.507C99.5601 36.9853 99.7 37.5061 99.7342 38.0389H91.269L91.234 38.0827ZM104.934 43.0287C104.931 43.0951 104.942 43.1613 104.966 43.2231C104.99 43.285 105.027 43.341 105.074 43.3877C105.12 43.4353 105.176 43.4718 105.239 43.4946C105.301 43.5173 105.367 43.5256 105.433 43.519C105.494 43.5235 105.554 43.514 105.61 43.4912C105.667 43.4684 105.717 43.433 105.757 43.3877C105.847 43.2901 105.898 43.1618 105.897 43.0287V38.7918C105.893 38.1929 106.003 37.5987 106.221 37.041C106.42 36.5118 106.717 36.0247 107.096 35.6053C107.477 35.191 107.939 34.8601 108.453 34.6336C108.978 34.3943 109.548 34.2719 110.125 34.2747H110.23C110.297 34.2779 110.363 34.267 110.425 34.2429C110.487 34.2188 110.543 34.1819 110.589 34.1346C110.637 34.0921 110.674 34.0393 110.699 33.9801C110.723 33.921 110.733 33.857 110.729 33.7932C110.731 33.7305 110.721 33.6679 110.698 33.6093C110.675 33.5507 110.641 33.4972 110.598 33.4518C110.549 33.4052 110.491 33.3688 110.428 33.3447C110.365 33.3207 110.298 33.3095 110.23 33.3118H110.125C109.656 33.3084 109.189 33.3793 108.742 33.5219C108.315 33.6469 107.91 33.839 107.543 34.0909C107.187 34.3388 106.866 34.6332 106.589 34.9663C106.302 35.3125 106.058 35.6916 105.862 36.0955L105.774 33.7582C105.74 33.6343 105.687 33.5162 105.617 33.4081C105.581 33.362 105.534 33.3252 105.481 33.3009C105.427 33.2765 105.369 33.2652 105.311 33.268C105.253 33.2606 105.194 33.2699 105.141 33.2947C105.089 33.3195 105.044 33.3588 105.013 33.4081C104.951 33.5141 104.921 33.6356 104.925 33.7582V43.0025L104.934 43.0287Z" stroke="black" stroke-width="0.875404" mask="url(#path-1-outside-1_203_1926)"/>
<path d="M114.8 36.7521C115.004 36.2464 115.301 35.7832 115.675 35.3865C116.061 34.9917 116.522 34.679 117.032 34.4673C117.561 34.2448 118.13 34.1316 118.704 34.1347C119.281 34.1316 119.853 34.2448 120.385 34.4673C120.89 34.6771 121.347 34.9902 121.724 35.3865C122.106 35.7775 122.404 36.2422 122.6 36.7521C122.818 37.2824 122.928 37.8508 122.924 38.4242C122.927 38.9889 122.817 39.5486 122.6 40.0699C122.396 40.5757 122.099 41.0389 121.724 41.4356C121.343 41.8316 120.888 42.1497 120.385 42.3722C119.856 42.6059 119.282 42.7224 118.704 42.7136C118.128 42.7251 117.557 42.6085 117.032 42.3722C116.521 42.1543 116.06 41.8358 115.675 41.4356C115.301 41.0389 115.004 40.5757 114.8 40.0699C114.583 39.5486 114.472 38.9889 114.476 38.4242C114.472 37.8508 114.582 37.2824 114.8 36.7521ZM113.924 40.4551C114.201 41.08 114.593 41.6472 115.08 42.1271C115.559 42.606 116.127 42.9866 116.752 43.2476C117.396 43.5185 118.088 43.658 118.787 43.658C119.486 43.658 120.178 43.5185 120.823 43.2476C121.446 42.9886 122.012 42.6077 122.486 42.1271C122.954 41.6408 123.33 41.0745 123.598 40.4551C124.134 39.1513 124.134 37.6883 123.598 36.3845C123.332 35.7639 122.956 35.1972 122.486 34.7125C122.007 34.2374 121.443 33.8572 120.823 33.5919C120.178 33.3211 119.486 33.1816 118.787 33.1816C118.088 33.1816 117.396 33.3211 116.752 33.5919C116.128 33.8542 115.56 34.2347 115.08 34.7125C114.598 35.1891 114.217 35.7577 113.959 36.3845C113.689 37.0288 113.549 37.7208 113.549 38.4198C113.549 39.1188 113.689 39.8107 113.959 40.4551H113.924Z" stroke="black" stroke-width="0.875404" mask="url(#path-1-outside-1_203_1926)"/>
</g>
<g id="logo">
<path d="M14.0059 47.0117C19.532 47.0117 24.0117 42.532 24.0117 37.0059C24.0117 31.4798 19.532 27 14.0059 27C8.47978 27 4 31.4798 4 37.0059C4 42.532 8.47978 47.0117 14.0059 47.0117Z" fill="black"/>
<path d="M14.1372 27H4V52.4918H14.1372V27Z" fill="black"/>
</g>
</g>
</svg>
