<svg width="128" height="80" viewBox="0 0 128 80" fill="none" xmlns="http://www.w3.org/2000/svg">
<g id="logo / payment method / litecoin / brand">
<path id="logo" d="M28.0746 26C25.2902 26 22.5684 26.8257 20.2533 28.3726C17.9382 29.9195 16.1337 32.1182 15.0682 34.6906C14.0027 37.263 13.7239 40.0936 14.2671 42.8245C14.8103 45.5553 16.1511 48.0638 18.1199 50.0326C20.0888 52.0015 22.5972 53.3423 25.3281 53.8855C28.059 54.4287 30.8896 54.1499 33.462 53.0843C36.0344 52.0188 38.2331 50.2144 39.78 47.8993C41.3269 45.5842 42.1526 42.8623 42.1526 40.078C42.1526 38.2292 41.7884 36.3986 41.0809 34.6906C40.3734 32.9826 39.3365 31.4306 38.0292 30.1233C36.7219 28.8161 35.17 27.7791 33.462 27.0716C31.754 26.3641 29.9233 26 28.0746 26V26ZM28.3027 40.5411L26.8384 45.4824H34.6709C34.7331 45.4825 34.7945 45.4972 34.8502 45.5251C34.9059 45.5531 34.9543 45.5936 34.9916 45.6435C35.0289 45.6933 35.0541 45.7512 35.0653 45.8125C35.0764 45.8738 35.0731 45.9368 35.0557 45.9966L34.3746 48.3429C34.3421 48.455 34.274 48.5535 34.1807 48.6235C34.0873 48.6936 33.9737 48.7313 33.857 48.7311H21.8937L23.9166 41.8999L21.6792 42.581L22.173 40.9838L24.4138 40.3027L27.2539 30.7063C27.2851 30.5938 27.3522 30.4947 27.4451 30.424C27.5379 30.3533 27.6514 30.3149 27.7681 30.3147H30.7989C30.8611 30.3144 30.9225 30.3287 30.9783 30.3562C31.034 30.3837 31.0826 30.4238 31.1203 30.4734C31.1579 30.5229 31.1835 30.5804 31.1951 30.6415C31.2067 30.7026 31.204 30.7656 31.1871 30.8255L28.8033 38.9406L31.0407 38.2595L30.5605 39.8839L28.3027 40.5411Z" fill="#A5A8A9"/>
<g id="wordmark">
<path d="M54.8324 30.159C55.0438 30.1381 55.2566 30.1804 55.4439 30.2805C55.694 30.4142 55.881 30.6415 55.964 30.9127C56.0469 31.184 56.0191 31.477 55.8866 31.7278C55.7873 31.9155 55.6346 32.0696 55.4477 32.1705C55.2608 32.2714 55.0482 32.3145 54.8368 32.2944C54.6253 32.2743 54.4246 32.192 54.2601 32.0577C54.0955 31.9234 53.9745 31.7434 53.9124 31.5403C53.8503 31.3372 53.8498 31.1202 53.9111 30.9169C53.9724 30.7136 54.0927 30.533 54.2567 30.3981C54.4207 30.2632 54.6211 30.18 54.8324 30.159Z" fill="#4D4D4E"/>
<path d="M49.4164 30.2737H50.295C50.4652 30.2737 50.5674 30.3486 50.5402 30.5461L48.2551 48.4756C48.2555 48.5134 48.2477 48.5509 48.2323 48.5854C48.2168 48.62 48.1941 48.6507 48.1656 48.6756C48.1371 48.7005 48.1036 48.719 48.0673 48.7297C48.0311 48.7405 47.9929 48.7432 47.9555 48.7378H47.0837C46.9032 48.7378 46.8453 48.6459 46.8657 48.4756L49.1201 30.5393C49.1218 30.5023 49.1309 30.466 49.1468 30.4326C49.1627 30.3991 49.1851 30.3692 49.2126 30.3445C49.2402 30.3197 49.2724 30.3008 49.3074 30.2886C49.3424 30.2764 49.3794 30.2714 49.4164 30.2737Z" fill="#4D4D4E"/>
<path d="M53.9967 35.4431H54.8651C55.0558 35.4431 55.1137 35.535 55.1069 35.7121L53.5029 48.4756C53.502 48.5146 53.4927 48.5529 53.4757 48.5879C53.4587 48.623 53.4343 48.654 53.4043 48.6789C53.3743 48.7037 53.3393 48.7218 53.3017 48.732C53.264 48.7422 53.2247 48.7442 53.1862 48.7378H52.3144C52.151 48.7378 52.0488 48.6493 52.0692 48.4756L53.697 35.7053C53.6982 35.668 53.7071 35.6313 53.7231 35.5976C53.7391 35.5638 53.7618 35.5337 53.7899 35.5091C53.818 35.4845 53.8509 35.466 53.8865 35.4546C53.922 35.4433 53.9596 35.4393 53.9967 35.4431Z" fill="#4D4D4E"/>
<path fill-rule="evenodd" clip-rule="evenodd" d="M93.1249 35.232C91.9973 35.2061 90.8945 35.5655 89.9986 36.2509C89.1028 36.9363 88.4674 37.9066 88.1973 39.0017C87.9547 40.0183 87.7739 41.0486 87.6558 42.0871C87.5161 43.11 87.4342 44.1401 87.4106 45.1724C87.3991 45.6762 87.4894 46.1771 87.6761 46.6453C87.8628 47.1134 88.1419 47.539 88.497 47.8967C89.2053 48.5778 90.1758 48.9183 91.4086 48.9183C92.5377 48.9439 93.6417 48.5835 94.5382 47.8967C95.4221 47.2173 96.047 46.256 96.309 45.1724C96.5549 44.1565 96.7358 43.126 96.8504 42.0871C96.9889 41.0548 97.0696 40.0157 97.0922 38.9745C97.1152 38.4705 97.0314 37.9673 96.8466 37.4979C96.6618 37.0284 96.3799 36.6033 96.0195 36.2502C95.227 35.5419 94.1864 35.1759 93.1249 35.232ZM95.587 40.8475C95.5053 41.4979 95.4542 41.9134 95.4372 42.0871C95.2737 43.4049 95.1273 44.3482 95.0013 44.9101C94.8317 45.7145 94.3904 46.436 93.7515 46.9534C93.1281 47.4585 92.3471 47.7285 91.5448 47.7162C91.1797 47.7405 90.8136 47.6868 90.4708 47.5588C90.1279 47.4308 89.8162 47.2314 89.5564 46.9738C89.2965 46.7161 89.0944 46.4062 88.9634 46.0645C88.8324 45.7228 88.7756 45.3572 88.7966 44.9919C88.8044 44.445 88.8453 43.8992 88.9192 43.3573C89.001 42.7068 89.0521 42.2948 89.0691 42.1177C89.2325 40.8543 89.379 39.911 89.505 39.298C89.6758 38.4941 90.1169 37.773 90.7548 37.2548C91.379 36.7512 92.1595 36.4814 92.9615 36.492C93.3266 36.4677 93.6927 36.5213 94.0355 36.6493C94.3783 36.7773 94.69 36.9768 94.9499 37.2344C95.2098 37.492 95.4119 37.8019 95.5429 38.1436C95.6739 38.4853 95.7307 38.851 95.7096 39.2163C95.7018 39.762 95.6608 40.3067 95.587 40.8475Z" fill="#4D4D4E"/>
<path d="M101.216 35.4431H102.085C102.255 35.4431 102.326 35.535 102.303 35.7053L100.699 48.4756C100.697 48.5128 100.688 48.5492 100.672 48.5827C100.655 48.6162 100.633 48.6461 100.605 48.6706C100.577 48.6951 100.544 48.7137 100.509 48.7253C100.473 48.7368 100.436 48.7411 100.399 48.7378H99.5271C99.3636 48.7378 99.2581 48.6595 99.2819 48.4756L100.917 35.7053C100.922 35.6309 100.956 35.5616 101.012 35.5125C101.068 35.4633 101.142 35.4384 101.216 35.4431Z" fill="#4D4D4E"/>
<path d="M113.098 36.1957C112.498 35.5691 111.657 35.2592 110.567 35.2592C109.893 35.252 109.225 35.3915 108.609 35.6678C108.007 35.9433 107.482 36.3647 107.084 36.8938C107.012 36.9619 106.975 36.9449 106.975 36.8393L107.111 35.7053C107.131 35.5452 107.06 35.4431 106.893 35.4431H106.024C105.987 35.4398 105.95 35.4441 105.915 35.4557C105.879 35.4672 105.847 35.4858 105.819 35.5103C105.791 35.5348 105.768 35.5647 105.752 35.5982C105.736 35.6317 105.726 35.6681 105.725 35.7053L104.121 48.4756C104.1 48.6425 104.158 48.7378 104.339 48.7378H105.211C105.248 48.7406 105.285 48.736 105.32 48.7243C105.355 48.7125 105.387 48.6939 105.415 48.6695C105.443 48.6451 105.466 48.6154 105.482 48.5821C105.499 48.5488 105.508 48.5126 105.51 48.4756L106.678 39.3253C106.845 38.5318 107.266 37.8144 107.877 37.282C108.474 36.7634 109.242 36.4843 110.033 36.4988C110.375 36.4841 110.716 36.5424 111.033 36.6699C111.351 36.7973 111.638 36.9909 111.875 37.2377C112.352 37.776 112.597 38.4811 112.556 39.1993C112.56 39.3938 112.551 39.5883 112.529 39.7816L111.415 48.4756C111.407 48.5073 111.407 48.5405 111.414 48.5724C111.421 48.6043 111.436 48.6341 111.456 48.6595C111.482 48.6869 111.514 48.7081 111.549 48.7217C111.585 48.7352 111.623 48.7407 111.66 48.7378H112.529C112.566 48.7411 112.603 48.7368 112.639 48.7253C112.674 48.7137 112.707 48.6951 112.735 48.6706C112.763 48.6461 112.785 48.6162 112.801 48.5827C112.818 48.5492 112.827 48.5128 112.828 48.4756L113.945 39.5636C113.983 39.2231 114 38.9473 114 38.7736C114.027 38.3056 113.961 37.8369 113.806 37.3944C113.652 36.952 113.411 36.5446 113.098 36.1957Z" fill="#4D4D4E"/>
<path d="M102.708 30.2805C102.52 30.182 102.307 30.1415 102.096 30.1641C101.885 30.1867 101.685 30.2714 101.522 30.4074C101.359 30.5434 101.241 30.7247 101.181 30.9283C101.121 31.1319 101.123 31.3486 101.186 31.5511C101.25 31.7536 101.372 31.9328 101.537 32.0659C101.702 32.1991 101.903 32.2803 102.114 32.2992C102.326 32.3181 102.538 32.2739 102.724 32.1722C102.91 32.0705 103.062 31.9158 103.161 31.7278C103.292 31.4758 103.319 31.1818 103.234 30.9104C103.149 30.639 102.96 30.4124 102.708 30.2805Z" fill="#4D4D4E"/>
<path d="M78.5904 36.274C79.492 35.575 80.6066 35.2071 81.7472 35.232C82.808 35.1705 83.85 35.5317 84.6452 36.2365C85.0067 36.5889 85.2895 37.0139 85.475 37.4835C85.6605 37.953 85.7444 38.4565 85.7213 38.9609V39.2708C85.7213 39.2916 85.7171 39.3123 85.7091 39.3315C85.701 39.3507 85.6891 39.3682 85.6742 39.3828C85.6593 39.3974 85.6416 39.4088 85.6222 39.4165C85.6028 39.4242 85.5821 39.4279 85.5613 39.4274H84.5396C84.5127 39.4274 84.486 39.422 84.4611 39.4115C84.4363 39.401 84.4138 39.3856 84.3951 39.3662C84.3763 39.3468 84.3617 39.3238 84.352 39.2987C84.3423 39.2735 84.3378 39.2466 84.3387 39.2197V39.1993C84.3598 38.8336 84.3029 38.4677 84.1717 38.1257C84.0406 37.7838 83.8381 37.4737 83.5779 37.216C83.3176 36.9583 83.0055 36.759 82.6623 36.6312C82.319 36.5034 81.9525 36.4502 81.5871 36.4749C80.7862 36.4643 80.0068 36.7342 79.3838 37.2377C78.7474 37.7607 78.3107 38.4872 78.1477 39.2946C78.0183 39.9076 77.8752 40.8509 77.7118 42.1143C77.6913 42.2914 77.63 42.8124 77.5619 43.3539C77.488 43.8957 77.4471 44.4416 77.4393 44.9885C77.4183 45.3538 77.4751 45.7194 77.6061 46.0611C77.7371 46.4028 77.9392 46.7127 78.1991 46.9704C78.4589 47.228 78.7706 47.4274 79.1134 47.5554C79.4563 47.6834 79.8224 47.7371 80.1875 47.7128C80.9888 47.7257 81.769 47.4556 82.3908 46.95C83.0305 46.4328 83.473 45.7114 83.644 44.9067C83.6426 44.8897 83.6426 44.8726 83.644 44.8557C83.6533 44.8188 83.6749 44.7862 83.7053 44.7633C83.7356 44.7404 83.7729 44.7285 83.8109 44.7297H84.8836C84.902 44.7297 84.9201 44.7339 84.9366 44.7419C84.9532 44.7499 84.9677 44.7615 84.9792 44.7759C84.9906 44.7903 84.9987 44.8071 85.0028 44.825C85.0069 44.8429 85.0069 44.8616 85.0028 44.8795C84.9789 44.9817 84.9551 45.077 84.9312 45.169C84.6727 46.2532 84.0486 47.2153 83.1638 47.8933C82.2671 48.5796 81.1632 48.9399 80.0343 48.9149C78.8015 48.9149 77.831 48.5744 77.1226 47.8933C76.7657 47.5368 76.4851 47.1115 76.2977 46.6431C76.1104 46.1748 76.0203 45.6732 76.0329 45.169C76.0591 44.1369 76.1409 43.1069 76.2781 42.0836C76.4029 41.046 76.5848 40.016 76.823 38.9983C77.0868 37.9164 77.7099 36.956 78.5904 36.274Z" fill="#4D4D4E"/>
<path fill-rule="evenodd" clip-rule="evenodd" d="M72.9614 36.2604C72.1685 35.55 71.1265 35.1827 70.0634 35.2388C68.9357 35.2129 67.833 35.5724 66.9371 36.2577C66.0412 36.9431 65.4058 37.9134 65.1358 39.0086C64.8941 40.0253 64.7133 41.0556 64.5943 42.0939C64.436 43.1148 64.354 44.1461 64.3491 45.1792C64.3376 45.683 64.4279 46.184 64.6146 46.6521C64.8012 47.1202 65.0804 47.5458 65.4354 47.9035C66.1438 48.5846 67.1143 48.9251 68.3471 48.9251C69.4761 48.9507 70.5801 48.5903 71.4767 47.9035C72.3612 47.2247 72.9862 46.2631 73.2475 45.1792C73.2713 45.0872 73.2951 44.9919 73.319 44.8897C73.3231 44.8718 73.3231 44.8532 73.319 44.8352C73.3149 44.8173 73.3068 44.8005 73.2954 44.7861C73.2839 44.7718 73.2694 44.7601 73.2529 44.7521C73.2363 44.7441 73.2182 44.7399 73.1998 44.7399H72.1169C72.079 44.7393 72.042 44.7514 72.0118 44.7742C71.9816 44.7971 71.9598 44.8293 71.95 44.8659V44.917C71.7804 45.7214 71.3391 46.4429 70.7002 46.9602C70.0722 47.4595 69.2887 47.7222 68.4867 47.7026C68.1216 47.7268 67.7555 47.6732 67.4126 47.5452C67.0698 47.4172 66.7581 47.2178 66.4983 46.9601C66.2384 46.7025 66.0362 46.3926 65.9053 46.0509C65.7743 45.7092 65.7174 45.3436 65.7385 44.9782C65.7448 44.5012 65.7777 44.0248 65.8373 43.5514L73.7004 41.1165C73.7724 41.1008 73.8369 41.0607 73.8828 41.003C73.9287 40.9453 73.9533 40.8735 73.9524 40.7998C74.0001 40.3912 74.0307 39.6999 74.0375 38.9915C74.0513 38.4873 73.9631 37.9855 73.7781 37.5162C73.5932 37.0468 73.3154 36.6197 72.9614 36.2604ZM72.6515 39.9348C72.6502 39.9727 72.637 40.0092 72.6138 40.0392C72.5905 40.0691 72.5585 40.091 72.5221 40.1017L66.0042 42.1143V42.0871C66.1676 40.8236 66.314 39.8803 66.44 39.2674C66.6109 38.4635 67.052 37.7424 67.6898 37.2241C68.3141 36.7206 69.0946 36.4508 69.8965 36.4613C70.2647 36.4466 70.6319 36.508 70.9752 36.6416C71.3186 36.7752 71.6307 36.9781 71.8921 37.2377C72.6958 38.0244 72.6992 38.8655 72.6515 39.9348Z" fill="#4D4D4E"/>
<path d="M61.4864 47.2978C61.4479 47.2965 61.4097 47.3058 61.3761 47.3246C60.8176 47.5868 59.7517 47.8388 59.1864 47.362C58.7808 46.9694 58.8654 46.2689 58.9602 45.4837C58.9641 45.4516 58.968 45.4193 58.9719 45.3869L59.9254 37.7145H62.6497C62.7273 37.7195 62.8041 37.6979 62.8677 37.6532C62.9208 37.5985 62.9501 37.5251 62.9494 37.4489L63.0243 36.8427C63.0345 36.6758 62.963 36.5805 62.8064 36.5805H60.0821L60.5997 32.3578C60.6235 32.2079 60.5826 32.0956 60.3817 32.0956H59.5406C59.5034 32.0918 59.4659 32.0957 59.4303 32.1071C59.3948 32.1185 59.3619 32.137 59.3338 32.1616C59.3057 32.1862 59.283 32.2163 59.267 32.25C59.251 32.2838 59.2421 32.3205 59.2409 32.3578L58.8595 35.3375L58.696 36.6827L57.545 46.0339C57.402 47.2633 57.6574 48.2474 58.6552 48.7038C59.5369 49.0271 60.507 49.0138 61.3795 48.6663C61.4328 48.6455 61.4795 48.6109 61.5148 48.566C61.5501 48.5211 61.5728 48.4675 61.5804 48.4109L61.6894 47.5289C61.6931 47.4905 61.6862 47.4519 61.6695 47.4172C61.6527 47.3825 61.6268 47.353 61.5946 47.332C61.5623 47.3109 61.5249 47.2991 61.4864 47.2978Z" fill="#4D4D4E"/>
</g>
</g>
</svg>
