<svg width="128" height="80" viewBox="0 0 128 80" fill="none" xmlns="http://www.w3.org/2000/svg">
<g id="logo / payment method / icbc bank / brand-dark">
<g id="logo">
<path fill-rule="evenodd" clip-rule="evenodd" d="M103.594 47.3664V50.3144H113.159V41.4692H107.276V38.5205H113.159V29.6653H103.594V32.6159H110.207V35.5712H104.312V44.4185H110.207V47.3664H103.594ZM86.5906 39.9985C86.5906 31.0454 93.852 23.776 102.808 23.776C111.762 23.776 119.025 31.0454 119.025 39.9985C119.025 48.955 111.762 56.219 102.808 56.219C93.852 56.219 86.5906 48.955 86.5906 39.9985ZM83.6198 39.9985C83.6198 29.3969 92.2051 20.8101 102.808 20.8101C113.409 20.8101 122 29.3969 122 39.9985C122 50.6001 113.409 59.1903 102.808 59.1903C92.2051 59.1903 83.6198 50.6001 83.6198 39.9985ZM102.106 32.6079V29.6586H92.5294V38.5085H98.3977V41.4605H92.5294V50.3091H102.106V47.3598H95.4769V44.4118H101.371V35.5566H95.4769V32.6079" fill="#CB0202"/>
<path fill-rule="evenodd" clip-rule="evenodd" d="M38.2369 41.6382V41.59H45.3553C46.0056 41.59 46.9417 41.6944 47.6914 42.1874C48.3901 42.6497 48.7474 43.3326 48.7474 44.217C48.7474 44.9214 48.5559 45.4726 48.1806 45.8532C47.4826 46.555 46.2774 46.5536 45.3957 46.5536H38.2111V46.5102L38.2369 41.6382ZM38.2369 33.457H44.7534C45.8996 33.457 47.8207 33.457 47.8207 35.7381C47.8207 36.5743 47.4607 37.1656 46.7514 37.4988C46.1117 37.7998 45.3129 37.8312 44.7693 37.8312H38.2369V33.457ZM45.6198 50.3773C48.0898 50.3773 49.9533 49.7753 51.1571 48.5866C52.3935 47.3651 52.654 45.7951 52.654 44.6893C52.654 42.273 51.6477 40.5926 49.6616 39.6983L49.5741 39.6615L49.6569 39.6174C50.5525 39.1444 51.7385 38.1838 51.7385 35.3201C51.7385 33.7467 51.1458 32.3292 50.0673 31.3271C48.8853 30.2267 47.1604 29.6467 45.0848 29.6467L34.3271 29.64V50.3714" fill="white"/>
<path fill-rule="evenodd" clip-rule="evenodd" d="M6 50.3773H10.0981V29.6466H6V50.3773Z" fill="white"/>
<path fill-rule="evenodd" clip-rule="evenodd" d="M13.4254 39.8354C13.4254 41.8396 13.7622 43.4946 14.4549 44.8933C15.0336 46.0586 15.849 47.0407 17.0264 47.9859C18.858 49.4542 21.4374 50.2001 24.6936 50.2001H30.3025V46.2874H25.0045C22.0572 46.2874 19.92 45.5516 18.6538 44.0986C17.7536 43.0685 17.2915 41.6771 17.2796 39.9659C17.263 38.1303 17.7761 36.6706 18.7996 35.6311C20.0804 34.33 22.1679 33.6711 25.0045 33.6711H30.3025V29.7905H24.8892C23.0662 29.7905 21.5381 29.9752 20.2136 30.3484C18.8918 30.7237 17.8053 31.2829 16.8951 32.0562C15.6004 33.158 13.4254 35.6311 13.4254 39.8354Z" fill="white"/>
<path fill-rule="evenodd" clip-rule="evenodd" d="M55.1267 39.8352C55.1267 41.8353 55.4714 43.6013 56.1562 45.077C56.7489 46.3561 57.6126 47.4585 58.7263 48.3509C60.4479 49.7349 62.8848 50.3778 66.3936 50.3778H72.3068V46.4658H66.7058C63.7638 46.4658 61.6266 45.6978 60.3524 44.184C59.4535 43.1184 58.9915 41.6995 58.9802 39.9656C58.963 38.0792 59.494 36.5747 60.5533 35.4991C61.8414 34.1886 63.9103 33.5243 66.7058 33.5243H72.3068V29.6471H66.5878C64.7661 29.6471 63.2394 29.8297 61.9136 30.2037C60.5918 30.5783 59.5052 31.1348 58.5977 31.9088C57.5516 32.7958 55.1267 35.3445 55.1267 39.8352Z" fill="white"/>
</g>
</g>
</svg>
