<svg width="128" height="80" viewBox="0 0 128 80" fill="none" xmlns="http://www.w3.org/2000/svg">
<g id="logo / payment method / paypal / brand-light">
<g id="pay">
<path id="p" fill-rule="evenodd" clip-rule="evenodd" d="M50.1132 38.1326C49.7526 40.5011 47.9436 40.5011 46.1943 40.5011H45.1988L45.8969 36.079C45.9393 35.8118 46.1697 35.6149 46.4401 35.6149H46.8965C48.0875 35.6149 49.2126 35.6149 49.7923 36.2934C50.1396 36.6993 50.2446 37.301 50.1132 38.1326ZM49.352 31.9534H42.7534C42.3024 31.9534 41.9183 32.2816 41.8481 32.7274L39.1797 49.6464C39.1272 49.98 39.3852 50.2819 39.723 50.2819H42.8735C43.3246 50.2819 43.7089 49.9536 43.7792 49.5082L44.4992 44.9437C44.5692 44.498 44.9535 44.1697 45.4046 44.1697H47.4926C51.8385 44.1697 54.347 42.0663 55.0027 37.8977C55.2978 36.0745 55.0146 34.6419 54.1608 33.639C53.2222 32.5364 51.5592 31.9534 49.352 31.9534Z" fill="#27346A"/>
<path id="a" fill-rule="evenodd" clip-rule="evenodd" d="M64.6704 44.2063C64.3653 46.0117 62.9321 47.2237 61.1041 47.2237C60.1878 47.2237 59.4541 46.9289 58.9826 46.3708C58.5152 45.8174 58.3394 45.0292 58.4874 44.1514C58.7721 42.3623 60.2281 41.1112 62.0282 41.1112C62.9255 41.1112 63.6539 41.4089 64.1349 41.9721C64.6188 42.5394 64.8089 43.3329 64.6704 44.2063ZM69.0736 38.0567H65.9142C65.6434 38.0567 65.413 38.2533 65.3709 38.5211L65.2318 39.4045L65.0109 39.0843C64.3267 38.0911 62.8019 37.7593 61.2791 37.7593C57.7884 37.7593 54.8066 40.4045 54.2262 44.1146C53.9241 45.9654 54.3529 47.734 55.4024 48.9686C56.3664 50.1029 57.7424 50.575 59.3818 50.575C62.1954 50.575 63.7559 48.7675 63.7559 48.7675L63.6147 49.6456C63.5619 49.9795 63.8199 50.2817 64.158 50.2817H67.0034C67.4544 50.2817 67.8385 49.9537 67.9087 49.508L69.6169 38.6922C69.6697 38.3583 69.4117 38.0567 69.0736 38.0567Z" fill="#27346A"/>
<path id="y" fill-rule="evenodd" clip-rule="evenodd" d="M85.9011 38.0566H82.7253C82.4217 38.0566 82.1376 38.2073 81.967 38.4585L77.5864 44.9105L75.7297 38.7105C75.6138 38.3226 75.2567 38.0566 74.8516 38.0566H71.7299C71.3529 38.0566 71.0875 38.4273 71.2091 38.7841L74.706 49.0482L71.417 53.6892C71.1587 54.0534 71.4194 54.5572 71.8657 54.5572H75.0385C75.3392 54.5572 75.6206 54.4099 75.792 54.1625L86.3533 38.9202C86.606 38.5554 86.345 38.0566 85.9011 38.0566Z" fill="#27346A"/>
</g>
<g id="pal">
<path id="p_2" fill-rule="evenodd" clip-rule="evenodd" d="M97.1747 38.1326C96.8141 40.5011 95.0051 40.5011 93.2555 40.5011H92.26L92.9583 36.079C93.0004 35.8118 93.2309 35.6149 93.5016 35.6149H93.958C95.1486 35.6149 96.2738 35.6149 96.8538 36.2934C97.2008 36.6993 97.3057 37.301 97.1747 38.1326ZM96.4131 31.9534H89.8146C89.3636 31.9534 88.9795 32.2816 88.9092 32.7274L86.2412 49.6464C86.1884 49.98 86.4464 50.2819 86.7845 50.2819H90.1699C90.4857 50.2819 90.7547 50.0521 90.8036 49.7401L91.5604 44.9437C91.6307 44.498 92.0147 44.1697 92.4658 44.1697H94.5538C98.9 44.1697 101.408 42.0663 102.064 37.8977C102.359 36.0745 102.076 34.6419 101.222 33.639C100.284 32.5364 98.6206 31.9534 96.4131 31.9534Z" fill="#2790C3"/>
<path id="a_2" fill-rule="evenodd" clip-rule="evenodd" d="M111.732 44.2063C111.426 46.0117 109.993 47.2237 108.166 47.2237C107.249 47.2237 106.516 46.9289 106.044 46.3708C105.576 45.8174 105.401 45.0292 105.549 44.1514C105.833 42.3623 107.289 41.1112 109.09 41.1112C109.987 41.1112 110.715 41.4089 111.196 41.9721C111.68 42.5394 111.87 43.3329 111.732 44.2063ZM116.135 38.0567H112.975C112.705 38.0567 112.474 38.2533 112.432 38.5211L112.293 39.4045L112.072 39.0843C111.388 38.0911 109.863 37.7593 108.34 37.7593C104.85 37.7593 101.868 40.4045 101.287 44.1146C100.985 45.9654 101.414 47.734 102.463 48.9686C103.428 50.1029 104.804 50.575 106.443 50.575C109.257 50.575 110.817 48.7675 110.817 48.7675L110.676 49.6456C110.623 49.9795 110.881 50.2817 111.219 50.2817H114.064C114.516 50.2817 114.9 49.9537 114.97 49.508L116.678 38.6922C116.731 38.3583 116.473 38.0567 116.135 38.0567Z" fill="#2790C3"/>
<path id="l" fill-rule="evenodd" clip-rule="evenodd" d="M119.858 32.4181L117.15 49.6464C117.098 49.9803 117.356 50.2819 117.694 50.2819H120.417C120.868 50.2819 121.252 49.9536 121.323 49.5082L123.993 32.5892C124.046 32.2553 123.788 31.9534 123.45 31.9534H120.402C120.131 31.9534 119.9 32.1506 119.858 32.4181Z" fill="#2790C3"/>
</g>
<path id="all blue" fill-rule="evenodd" clip-rule="evenodd" d="M16.5003 53.3579L17.3873 47.7335L17.4445 47.4219C17.4872 47.1508 17.626 46.9029 17.8351 46.7244C18.0441 46.5458 18.3107 46.4474 18.5856 46.4474H19.2899C20.464 46.4474 21.5425 46.3219 22.4959 46.0746C23.5131 45.811 24.4179 45.4003 25.1847 44.8549C25.9979 44.2766 26.6808 43.529 27.2149 42.6335C27.7784 41.6887 28.1921 40.5511 28.4447 39.2528C28.668 38.1063 28.7098 37.08 28.5696 36.2019C28.421 35.2743 28.0636 34.4828 27.5076 33.8488C27.1704 33.4648 26.739 33.132 26.2253 32.8598L26.2132 32.8533L26.2129 32.8384C26.3923 31.6941 26.3855 30.7395 26.1924 29.9177C25.9985 29.0942 25.6058 28.3531 24.9911 27.6527C23.7174 26.2014 21.4008 25.4653 18.1058 25.4653H9.05661C8.75413 25.4653 8.46054 25.5736 8.23042 25.7702C8.0003 25.9668 7.84787 26.2399 7.80042 26.5388L4.03247 50.4327C3.99807 50.6507 4.06064 50.8722 4.20417 51.0395C4.3477 51.2076 4.55647 51.304 4.7771 51.304H10.3911L10.386 51.3307L10.0005 53.7754C9.97087 53.9655 10.0254 54.1583 10.1503 54.3042C10.2751 54.4504 10.4569 54.5346 10.6491 54.5346H15.3577C15.6219 54.5346 15.8778 54.44 16.0786 54.2683C16.2794 54.0966 16.4128 53.8585 16.454 53.5978L16.5003 53.3579Z" fill="#27346A"/>
<path id="dark blue" fill-rule="evenodd" clip-rule="evenodd" d="M13.2742 32.8695C13.3338 32.4908 13.5767 32.1809 13.9038 32.024C14.0526 31.9528 14.2187 31.9131 14.3928 31.9131H21.4859C22.3263 31.9131 23.1098 31.9682 23.8263 32.0836C24.0309 32.1165 24.2299 32.1545 24.4235 32.1975C24.6172 32.2405 24.8049 32.2882 24.9867 32.3416C25.0777 32.368 25.167 32.3959 25.2551 32.4252C25.6068 32.5421 25.9342 32.6797 26.2355 32.8392C26.5907 30.5745 26.2331 29.0333 25.008 27.6374C23.6593 26.1007 21.2229 25.4424 18.1056 25.4424H9.05635C8.41937 25.4424 7.87698 25.9059 7.77763 26.5352L4.00968 50.429C3.93524 50.9006 4.2997 51.3267 4.77685 51.3267H10.3632L13.2742 32.8695Z" fill="#27346A"/>
<path id="light blue" fill-rule="evenodd" clip-rule="evenodd" d="M26.2356 32.8394C26.2087 33.0122 26.1787 33.1881 26.1431 33.3693C24.9501 39.4963 20.8672 41.6145 15.6527 41.6145H12.9974C12.3604 41.6145 11.8224 42.0784 11.7231 42.7076L9.97791 53.7722C9.91296 54.1844 10.2318 54.5574 10.649 54.5574H15.3579C15.9151 54.5574 16.3896 54.1521 16.4765 53.6014L16.5228 53.3621L17.4097 47.7371L17.467 47.4263C17.5539 46.8756 18.0283 46.4703 18.5856 46.4703H19.2899C23.8517 46.4703 27.4236 44.6168 28.4675 39.257C28.9034 37.0174 28.678 35.148 27.5247 33.8337C27.176 33.4363 26.7418 33.1074 26.2356 32.8394Z" fill="#2790C3"/>
<path id="middle blue" fill-rule="evenodd" clip-rule="evenodd" d="M24.987 32.3414C24.8052 32.288 24.6175 32.2402 24.4239 32.1972C24.2302 32.1542 24.0313 32.1163 23.8266 32.0834C23.1102 31.968 22.3267 31.9128 21.4863 31.9128H14.3931C14.219 31.9128 14.053 31.9526 13.9041 32.0238C13.577 32.1806 13.3341 32.4905 13.2745 32.8692L11.7669 42.4282L11.7233 42.7072C11.8226 42.078 12.3606 41.6142 12.9975 41.6142H15.6528C20.8674 41.6142 24.9503 39.4959 26.1433 33.3689C26.1789 33.1877 26.2088 33.0119 26.2358 32.839C25.9345 32.6794 25.6071 32.5418 25.2554 32.425C25.1673 32.3956 25.0781 32.3677 24.987 32.3414Z" fill="#1F264F"/>
</g>
</svg>
