<svg width="128" height="80" viewBox="0 0 128 80" fill="none" xmlns="http://www.w3.org/2000/svg">
<g id="logo / payment method / cheque / brand">
<g id="logo">
<path d="M96.9143 25.67H41.1263V58.5022H96.9143V25.67Z" fill="#EBF0F3"/>
<path d="M96.9143 35.2923H41.1263V53.8633H96.9143V35.2923Z" fill="#44C4A1"/>
<path d="M81.6207 55.497H56.418V56.5251H81.6207V55.497Z" fill="#64798A"/>
<path d="M71.0615 31.6505H51.6839V32.6785H71.0615V31.6505Z" fill="#64798A"/>
<path d="M65.3146 28.5688H51.6838V29.5969H65.3146V28.5688Z" fill="#64798A"/>
<path d="M48.7853 26.8658H44.9474L43.0284 30.2354L44.9474 33.605H48.7853L50.7043 30.2354L48.7853 26.8658Z" fill="#E56353"/>
<path d="M80.0789 29.0492H77.7537V32.6778H80.0789V29.0492Z" fill="#D5D6DB"/>
<path d="M82.7105 29.0492H80.3853V32.6779H82.7105V29.0492Z" fill="#D5D6DB"/>
<path d="M85.3452 29.0492H83.02V32.6779H85.3452V29.0492Z" fill="#D5D6DB"/>
<path d="M87.9711 29.0492H85.6459V32.6779H87.9711V29.0492Z" fill="#D5D6DB"/>
<path d="M90.6045 29.0492H88.2793V32.6779H90.6045V29.0492Z" fill="#D5D6DB"/>
<path d="M93.2375 29.0492H90.9123V32.6779H93.2375V29.0492Z" fill="#D5D6DB"/>
<path d="M75.279 39.3562H43.9147V40.3843H75.279V39.3562Z" fill="#EBF0F3"/>
<path d="M75.279 44.0916H43.9148V45.1196H75.279V44.0916Z" fill="#EBF0F3"/>
<path d="M94.124 48.77H79.4818V49.7981H94.124V48.77Z" fill="#EBF0F3"/>
<path d="M94.124 39.3562H79.4818V44.1952H94.124V39.3562Z" fill="#EBF0F3"/>
<path d="M96.9143 58.4953H41.1263V61.1709H96.9143V58.4953Z" fill="#E1E6E9"/>
<path d="M41.1263 58.5022L31.0857 58.5029V61.1785H41.1263L41.1263 58.5022Z" fill="#D5D6DB"/>
<path d="M41.1263 25.663H31.0857V58.4952L41.1263 58.4953L41.1263 25.663Z" fill="#27A2DB"/>
<path d="M41.126 25.6679C57.1162 25.0111 68.2074 5.42086 84.1799 4C84.1794 14.9434 84.1794 25.8868 84.1799 36.8302C68.2074 38.2508 57.1162 57.8412 41.126 58.4981C41.1254 47.5547 41.1254 36.6113 41.126 25.6679Z" fill="#2D93BA"/>
<path d="M48.8464 73.9887C48.3467 73.9887 47.8963 73.9102 47.4951 73.7533C47.0939 73.5893 46.7525 73.3503 46.471 73.0365C46.1895 72.7156 45.9713 72.3197 45.8164 71.849C45.6616 71.3711 45.5842 70.8148 45.5842 70.18C45.5842 69.5524 45.6616 68.996 45.8164 68.5111C45.9713 68.0189 46.1895 67.6088 46.471 67.2807C46.7525 66.9455 47.0939 66.6923 47.4951 66.5211C47.8963 66.35 48.3467 66.2644 48.8464 66.2644C49.5291 66.2644 50.0922 66.407 50.5356 66.6923C50.979 66.9705 51.3345 67.4127 51.6019 68.0189L50.2189 68.7464C50.1204 68.4326 49.9655 68.183 49.7544 67.9975C49.5503 67.805 49.2476 67.7087 48.8464 67.7087C48.3749 67.7087 47.9948 67.8656 47.7062 68.1794C47.4247 68.4861 47.2839 68.9354 47.2839 69.5274V70.7256C47.2839 71.3176 47.4247 71.7705 47.7062 72.0844C47.9948 72.391 48.3749 72.5444 48.8464 72.5444C49.2406 72.5444 49.5538 72.4374 49.786 72.2234C50.0253 72.0023 50.2013 71.7384 50.3139 71.4317L51.623 72.202C51.3485 72.7726 50.9861 73.2148 50.5356 73.5286C50.0922 73.8353 49.5291 73.9887 48.8464 73.9887Z" fill="black" fill-opacity="0.88"/>
<path d="M52.6615 65.9434H54.224V69.1958H54.2874C54.3859 68.9033 54.5583 68.6501 54.8047 68.4362C55.051 68.2222 55.3924 68.1152 55.8288 68.1152C56.3989 68.1152 56.8282 68.3078 57.1168 68.6929C57.4124 69.0781 57.5602 69.6273 57.5602 70.3405V73.8603H55.9977V70.4689C55.9977 70.1051 55.9414 69.8377 55.8288 69.6665C55.7161 69.4882 55.5155 69.399 55.227 69.399C55.1003 69.399 54.9771 69.4169 54.8575 69.4525C54.7378 69.481 54.6287 69.531 54.5302 69.6023C54.4387 69.6736 54.3648 69.7628 54.3085 69.8698C54.2522 69.9696 54.224 70.0873 54.224 70.2228V73.8603H52.6615V65.9434Z" fill="black" fill-opacity="0.88"/>
<path d="M61.2627 73.9887C60.8404 73.9887 60.4638 73.9209 60.133 73.7854C59.8022 73.6428 59.5207 73.4466 59.2884 73.197C59.0632 72.9402 58.8908 72.63 58.7711 72.2662C58.6585 71.9025 58.6022 71.4959 58.6022 71.0466C58.6022 70.6044 58.6585 70.205 58.7711 69.8484C58.8837 69.4846 59.0491 69.1744 59.2673 68.9176C59.4926 68.6608 59.7671 68.4647 60.0908 68.3292C60.4146 68.1865 60.7841 68.1152 61.1993 68.1152C61.6568 68.1152 62.0475 68.1937 62.3712 68.3506C62.702 68.5075 62.9695 68.7179 63.1736 68.9818C63.3847 69.2457 63.536 69.5524 63.6275 69.9019C63.7261 70.2442 63.7753 70.6044 63.7753 70.9824V71.4531H60.2175V71.5387C60.2175 71.9096 60.316 72.2056 60.5131 72.4267C60.7102 72.6407 61.0199 72.7477 61.4422 72.7477C61.7659 72.7477 62.0299 72.6835 62.234 72.5551C62.4381 72.4196 62.6281 72.2591 62.8041 72.0736L63.5853 73.0579C63.339 73.3503 63.0152 73.5786 62.614 73.7426C62.2199 73.9067 61.7694 73.9887 61.2627 73.9887ZM61.231 69.2813C60.9143 69.2813 60.6644 69.3883 60.4814 69.6023C60.3055 69.8091 60.2175 70.0873 60.2175 70.4368V70.5224H62.1601V70.4261C62.1601 70.0837 62.0826 69.8091 61.9278 69.6023C61.78 69.3883 61.5477 69.2813 61.231 69.2813Z" fill="black" fill-opacity="0.88"/>
<path d="M68.2783 72.9188H68.2255C68.1833 73.0686 68.1165 73.2113 68.025 73.3468C67.9335 73.4752 67.8208 73.5893 67.6871 73.6891C67.5604 73.7818 67.4126 73.8532 67.2437 73.9031C67.0818 73.9602 66.9129 73.9887 66.7369 73.9887C66.0331 73.9887 65.5017 73.7391 65.1428 73.2398C64.7838 72.7334 64.6044 72.0023 64.6044 71.0466C64.6044 70.0909 64.7838 69.3634 65.1428 68.8641C65.5017 68.3648 66.0331 68.1152 66.7369 68.1152C67.0959 68.1152 67.4126 68.2151 67.6871 68.4148C67.9686 68.6145 68.1481 68.8712 68.2255 69.1851H68.2783V68.2436H69.8408V76H68.2783V72.9188ZM67.2543 72.7049C67.5499 72.7049 67.7927 72.6335 67.9827 72.4909C68.1798 72.3411 68.2783 72.1378 68.2783 71.8811V70.2228C68.2783 69.966 68.1798 69.7663 67.9827 69.6237C67.7927 69.4739 67.5499 69.399 67.2543 69.399C66.9587 69.399 66.7123 69.506 66.5152 69.72C66.3252 69.9268 66.2302 70.2085 66.2302 70.5652V71.5387C66.2302 71.8953 66.3252 72.1806 66.5152 72.3946C66.7123 72.6014 66.9587 72.7049 67.2543 72.7049Z" fill="black" fill-opacity="0.88"/>
<path d="M74.5748 72.9188H74.522C74.4727 73.0615 74.4058 73.197 74.3214 73.3254C74.2439 73.4538 74.1419 73.5679 74.0152 73.6677C73.8885 73.7676 73.7372 73.846 73.5612 73.9031C73.3923 73.9602 73.1953 73.9887 72.97 73.9887C72.3999 73.9887 71.9671 73.7997 71.6715 73.4217C71.3829 73.0365 71.2386 72.4873 71.2386 71.7741V68.2436H72.8011V71.635C72.8011 71.9774 72.8609 72.2413 72.9806 72.4267C73.1002 72.6121 73.3043 72.7049 73.5929 72.7049C73.7126 72.7049 73.8322 72.687 73.9519 72.6514C74.0715 72.6157 74.1771 72.5658 74.2686 72.5016C74.3601 72.4303 74.434 72.3447 74.4903 72.2448C74.5466 72.145 74.5748 72.0273 74.5748 71.8918V68.2436H76.1372V73.8603H74.5748V72.9188Z" fill="black" fill-opacity="0.88"/>
<path d="M79.9031 73.9887C79.4808 73.9887 79.1043 73.9209 78.7735 73.7854C78.4427 73.6428 78.1611 73.4466 77.9289 73.197C77.7037 72.9402 77.5312 72.63 77.4116 72.2662C77.299 71.9025 77.2426 71.4959 77.2426 71.0466C77.2426 70.6044 77.299 70.205 77.4116 69.8484C77.5242 69.4846 77.6896 69.1744 77.9078 68.9176C78.133 68.6608 78.4075 68.4647 78.7312 68.3292C79.055 68.1865 79.4245 68.1152 79.8398 68.1152C80.2973 68.1152 80.6879 68.1937 81.0116 68.3506C81.3424 68.5075 81.6099 68.7179 81.814 68.9818C82.0252 69.2457 82.1765 69.5524 82.268 69.9019C82.3665 70.2442 82.4158 70.6044 82.4158 70.9824V71.4531H78.8579V71.5387C78.8579 71.9096 78.9565 72.2056 79.1535 72.4267C79.3506 72.6407 79.6603 72.7477 80.0826 72.7477C80.4063 72.7477 80.6703 72.6835 80.8744 72.5551C81.0785 72.4196 81.2685 72.2591 81.4445 72.0736L82.2257 73.0579C81.9794 73.3503 81.6556 73.5786 81.2545 73.7426C80.8603 73.9067 80.4099 73.9887 79.9031 73.9887ZM79.8714 69.2813C79.5547 69.2813 79.3049 69.3883 79.1219 69.6023C78.9459 69.8091 78.8579 70.0873 78.8579 70.4368V70.5224H80.8005V70.4261C80.8005 70.0837 80.7231 69.8091 80.5682 69.6023C80.4204 69.3883 80.1882 69.2813 79.8714 69.2813Z" fill="black" fill-opacity="0.88"/>
</g>
</g>
</svg>
