<svg width="128" height="80" viewBox="0 0 128 80" fill="none" xmlns="http://www.w3.org/2000/svg">
<g id="logo / payment method / permata bank / brand">
<g id="logo">
<path fill-rule="evenodd" clip-rule="evenodd" d="M66.7487 53.5408C66.7588 53.3556 66.7694 53.0587 66.779 52.6517V44.8469L66.7537 44.0897C66.7475 43.9286 66.7397 43.8191 66.7318 43.7618C66.7234 43.7012 66.7105 43.649 66.6925 43.6007C66.6341 43.4082 66.5045 43.2724 66.3097 43.191C66.1301 43.1152 65.8646 43.0787 65.5199 43.0759V42.8104H69.9769C70.6247 42.8115 71.2101 42.8536 71.7327 42.9378C72.2548 43.0214 72.6752 43.1371 72.9969 43.2842C73.9287 43.7259 74.389 44.4697 74.3839 45.5278C74.3946 47.04 73.3999 48.0061 71.3409 48.2548L70.9957 48.3103C71.4588 48.3272 72.0853 48.4815 72.3766 48.5489C72.6657 48.6157 72.9492 48.7218 73.227 48.8666C74.3199 49.4156 74.8582 50.2935 74.8476 51.5077C74.8532 52.9823 74.1341 53.9411 72.6747 54.3941C72.3558 54.485 71.9561 54.5569 71.4728 54.6091C70.9878 54.6613 70.4613 54.6882 69.8938 54.6893H65.5199V54.4233C66.0346 54.4171 66.3888 54.3385 66.5455 54.1538C66.6111 54.0909 66.6577 54.0219 66.6886 53.9428C66.72 53.8625 66.7386 53.7255 66.7487 53.5408ZM68.1217 43.1753V48.1285H69.8607C71.8832 48.1167 72.9306 47.2764 72.9418 45.594C72.9559 43.9611 71.8517 43.164 69.7114 43.1753H68.1217ZM73.2899 51.3752C73.2786 50.2206 72.861 49.4044 72.0286 48.948C71.776 48.8189 71.4549 48.7195 71.0692 48.6494C70.6842 48.5798 70.2592 48.5444 69.7945 48.5427H68.1217V54.3239H69.7945C71.0064 54.3295 71.8922 54.1033 72.4378 53.629C72.7145 53.4016 72.9244 53.0929 73.0704 52.7056C73.2158 52.3183 73.2882 51.8737 73.2899 51.3752Z" fill="#3A3A3A"/>
<path d="M81.2263 54.3505C81.1359 54.1714 81.0725 53.9586 81.045 53.4147L81.0371 53.2536L80.9299 53.3743C80.8025 53.5186 80.6773 53.6432 80.5549 53.7493C80.432 53.8565 80.2894 53.9659 80.1294 54.0771C79.7775 54.3353 79.4384 54.5172 79.1134 54.6233C78.7884 54.7288 78.4219 54.7804 78.0138 54.7771C77.3031 54.7799 76.7575 54.6115 76.3674 54.2797C76.149 54.0833 75.9778 53.8368 75.8526 53.5376C75.7275 53.239 75.6635 52.9179 75.6607 52.5733C75.6691 51.3024 76.4493 50.4823 78.0452 50.1191C78.4673 50.0214 78.9136 49.9412 79.3829 49.8783C79.8538 49.8154 80.3871 49.7638 80.9838 49.7234L81.045 48.6147C81.0461 48.2358 81.0276 47.9288 80.9905 47.6947C80.9535 47.4578 80.8923 47.2513 80.8064 47.0767C80.5695 46.6153 80.0868 46.3941 79.389 46.3941C78.2697 46.3885 77.6629 46.9212 77.6001 47.981C77.5933 48.1494 77.5776 48.2678 77.5557 48.3397C77.5344 48.407 77.4979 48.457 77.4463 48.4935C77.3351 48.5682 77.1577 48.6114 76.9029 48.6142C76.3545 48.6226 76.149 48.4593 76.158 48.1848C76.1614 47.8974 76.2568 47.6195 76.4482 47.3517C76.6396 47.0829 76.9063 46.8493 77.2509 46.6501C77.8706 46.3065 78.6644 46.1314 79.6377 46.1286C80.7026 46.1314 81.4166 46.3728 81.8067 46.8336C81.9644 47.0279 82.0818 47.2675 82.1581 47.5578C82.2339 47.848 82.2726 48.2156 82.272 48.663L82.2704 48.7579L82.2389 50.3358L82.2221 51.9098L82.2058 52.6721C82.2069 53.0308 82.2221 53.3041 82.2468 53.6101C82.2715 53.9081 82.3781 54.2404 82.6167 54.3286C82.8654 54.4206 83.1045 54.4571 83.5597 54.4599C83.8943 54.4532 84.152 54.415 84.3265 54.3409C84.5258 54.2561 84.6482 54.0765 84.7009 53.8217C84.7526 53.573 84.775 53.1947 84.7694 52.6878V48.2454C84.7807 47.6408 84.7105 47.2153 84.5382 46.993C84.3698 46.7758 84.0565 46.6821 83.626 46.6866V46.4508L85.9959 46.2779V48.1657L86.1194 47.9456C86.4703 47.3209 86.8682 46.8791 87.3111 46.6136C87.754 46.3481 88.3092 46.2167 88.9777 46.2235C89.9825 46.21 90.6825 46.5468 91.0923 47.2198C91.2422 47.4449 91.3516 47.7166 91.4167 48.0343C91.4818 48.3526 91.5144 48.7596 91.5127 49.2552V52.6878C91.5066 53.1997 91.5279 53.5809 91.5773 53.8284C91.6278 54.0833 91.749 54.2623 91.9489 54.3448C92.1139 54.4128 92.499 54.4498 92.8274 54.4588C93.135 54.4492 93.373 54.4116 93.5358 54.3403C93.73 54.2556 93.8473 54.0754 93.8973 53.8206C93.9455 53.573 93.9663 53.1941 93.9601 52.6878V44.6169C93.9663 44.1544 93.9472 43.8114 93.9006 43.5902C93.8524 43.3595 93.7334 43.2007 93.5386 43.1322C93.3696 43.0727 93.1164 43.0446 92.7841 43.0435V42.8072L95.249 42.6814C95.2181 43.2287 95.1945 43.7884 95.1788 44.3604C95.162 44.9577 95.1541 45.4791 95.1541 45.9254V51.3473L97.8698 48.3717C98.2538 47.9462 98.4637 47.5886 98.4665 47.3023C98.4862 46.9038 98.0837 46.7236 97.423 46.6905V46.4553H100.952V46.6944C100.74 46.7191 100.555 46.7579 100.399 46.8117C100.228 46.8696 100.053 46.9538 99.8744 47.0615C99.693 47.171 99.5415 47.2715 99.4185 47.363C99.2934 47.4567 99.1457 47.5897 98.9757 47.7626C98.8056 47.935 98.5597 48.1966 98.2364 48.5479L97.3399 49.5129L99.6863 53.2036C99.9541 53.6409 100.2 53.9502 100.427 54.1259C100.643 54.2932 100.918 54.401 101.25 54.4521V54.6934H99.1042C99.0453 54.5733 98.9644 54.4178 98.8611 54.227L98.5199 53.6044L98.2588 53.1357L96.5221 50.3055L95.1575 51.8323L95.1541 52.6878C95.1479 53.1941 95.1687 53.573 95.2175 53.8211C95.268 54.076 95.387 54.2561 95.5841 54.3409C95.7564 54.4144 96.0129 54.4532 96.3464 54.4599V54.6934H89.0934V54.4594C89.5845 54.4459 89.9219 54.3656 90.0572 54.1865C90.1116 54.1169 90.1526 54.0378 90.1812 53.9491C90.2104 53.8598 90.2278 53.7448 90.2363 53.6044C90.2458 53.4933 90.2559 53.3333 90.2671 53.1228C90.2789 52.9118 90.2851 52.7664 90.2862 52.6889V49.3551C90.289 48.5328 90.2009 47.9243 90.0145 47.5375C89.7322 46.9291 89.2214 46.6243 88.4972 46.6214C87.69 46.6186 87.0462 47.0032 86.5691 47.7626C86.3894 48.0495 86.2502 48.3762 86.1497 48.7405C86.0487 49.1059 85.9976 49.4652 85.9959 49.8188V52.6878C85.9898 53.1997 86.0111 53.5809 86.0605 53.8284C86.111 54.0833 86.2317 54.2623 86.4315 54.3448C86.6061 54.4167 86.866 54.4537 87.205 54.4599V54.6934L83.6378 54.6929C83.3212 54.7035 82.7189 54.7198 82.4202 54.7159C82.107 54.7114 81.956 54.6783 81.6703 54.6569C81.4166 54.5828 81.3099 54.5166 81.2263 54.3505ZM77.0202 52.5239C77.0264 53.0639 77.1577 53.5028 77.4199 53.834C77.6826 54.1669 78.0385 54.3375 78.4774 54.346C78.9209 54.3398 79.3402 54.2241 79.7326 53.9996C80.1238 53.7751 80.432 53.4759 80.6554 53.1037C80.7918 52.8663 80.8912 52.5609 80.9535 52.191C81.0152 51.8228 81.0461 51.3647 81.045 50.8174V49.967C80.2507 50.0355 79.6826 50.1101 79.2695 50.1977C78.8535 50.2858 78.4864 50.4116 78.1665 50.576C77.407 50.9533 77.0258 51.6072 77.0202 52.5239Z" fill="#3A3A3A"/>
<path fill-rule="evenodd" clip-rule="evenodd" d="M7.23104 49.6886V52.644C7.22486 53.1183 7.25181 53.4703 7.31243 53.6999C7.37362 53.93 7.50497 54.0816 7.70761 54.1557C7.91025 54.2303 8.22123 54.2719 8.64055 54.2803V54.6929H4V54.2803C4.39574 54.2719 4.6882 54.2303 4.87793 54.1557C5.06766 54.0816 5.19059 53.93 5.24672 53.6999C5.30286 53.4703 5.32755 53.1183 5.32138 52.644V44.8751C5.32755 44.4008 5.30286 44.0483 5.24897 43.8181C5.19452 43.588 5.07664 43.4348 4.89533 43.3584C4.71346 43.2815 4.43503 43.2366 4.05838 43.2226V42.8094H8.47944C9.96978 42.8033 11.061 43.0665 11.7548 43.5981C12.4481 44.1302 12.7905 44.9689 12.7826 46.114C12.7871 47.7239 12.1607 48.7775 10.9027 49.2754C10.5743 49.404 10.1556 49.5045 9.64702 49.5774C9.13845 49.6498 8.57319 49.6869 7.95067 49.6886H7.23104ZM7.23104 49.2277H7.99501C8.91279 49.2249 9.58808 49.0077 10.0214 48.5766C10.2572 48.3268 10.4357 48.0001 10.5575 47.5954C10.6793 47.1912 10.7405 46.7292 10.7411 46.2094C10.736 44.2526 9.87941 43.2731 8.17071 43.2703H7.23104V49.2277Z" fill="#3A3A3A"/>
<path fill-rule="evenodd" clip-rule="evenodd" d="M20.254 50.1877H14.8539C14.8601 50.7636 14.8938 51.2469 14.9555 51.637C15.0167 52.0266 15.1155 52.383 15.2514 52.7058C15.6999 53.751 16.3926 54.273 17.33 54.273C17.861 54.2702 18.3426 54.1142 18.7743 53.8043C19.2065 53.4945 19.5652 53.0493 19.8521 52.4678L20.2343 52.7215C19.8582 53.4698 19.3991 54.0193 18.8568 54.3702C18.3146 54.721 17.6528 54.8944 16.8714 54.8911C15.6421 54.8754 14.5121 54.4824 13.8037 53.7134C13.0958 52.9438 12.7349 51.8896 12.7209 50.552C12.7349 49.2042 13.0841 48.1382 13.7678 47.3529C14.4509 46.5682 15.5427 46.1668 16.7187 46.1494C17.5012 46.1517 18.2562 46.3296 18.7923 46.6838C19.3283 47.0386 19.7235 47.5573 19.9789 48.2398C20.062 48.4666 20.1249 48.7259 20.1681 49.0178C20.2107 49.3097 20.2394 49.6999 20.254 50.1877ZM14.8691 49.7285H18.2472C18.2337 49.2401 18.2073 48.8466 18.1686 48.5486C18.1304 48.2505 18.0698 47.9839 17.9873 47.7492C17.7021 46.9173 17.2637 46.5059 16.6732 46.5137C16.0108 46.5193 15.5163 46.9836 15.1902 47.9075C15.1071 48.1467 15.0403 48.4088 14.9898 48.6934C14.9393 48.978 14.8988 49.3232 14.8691 49.7285Z" fill="#3A3A3A"/>
<path d="M20.5995 46.3761L23.5948 46.169C23.6105 46.4676 23.6228 46.7191 23.6307 46.9217C23.6386 47.1249 23.6425 47.3045 23.6425 47.4595V47.9377C24.2931 46.7483 25.0789 46.1476 26.0007 46.137C26.3986 46.1448 26.722 46.261 26.9706 46.4855C27.2187 46.7101 27.3473 46.998 27.3546 47.3483C27.349 47.6397 27.2412 47.8732 27.0318 48.0489C26.823 48.2251 26.5485 48.3155 26.2078 48.32C25.7986 48.3329 25.5493 48.1634 25.459 47.8103C25.4 47.5919 25.3388 47.4432 25.2754 47.364C25.2125 47.2849 25.1194 47.2478 24.997 47.2523H24.965C24.6518 47.2793 24.3543 47.5285 24.073 48.0011C23.9456 48.2375 23.8496 48.4979 23.7856 48.7842C23.7222 49.0699 23.6902 49.3983 23.6902 49.7699V52.7175C23.684 53.1879 23.707 53.5348 23.7587 53.7576C23.8103 53.9805 23.9276 54.1264 24.1106 54.1955C24.2931 54.2639 24.5782 54.3027 24.965 54.3105V54.6934H20.5361V54.3105C20.897 54.3122 21.1642 54.2774 21.3382 54.2056C21.5122 54.1343 21.6251 53.985 21.6773 53.7576C21.7289 53.5297 21.7519 53.1834 21.7469 52.7175V48.3037C21.7615 47.6469 21.6958 47.2203 21.5493 47.0233C21.4033 46.8263 21.0862 46.7381 20.5995 46.7584V46.3761Z" fill="#3A3A3A"/>
<path d="M30.9129 46.1695L30.9292 47.7469C31.5741 46.6848 32.4981 46.1482 33.701 46.1375C34.9253 46.1297 35.6792 46.6871 35.9632 47.8109C36.3095 47.2321 36.7047 46.8078 37.1482 46.5378C37.5922 46.2683 38.1103 46.1347 38.7036 46.1375C39.6411 46.1431 40.3315 46.4507 40.775 47.0615C40.9484 47.2927 41.0713 47.5757 41.1454 47.9102C41.219 48.2448 41.2549 48.6787 41.2527 49.2125V52.7175C41.2476 53.1834 41.2706 53.5297 41.3223 53.7571C41.3745 53.985 41.4873 54.1343 41.6613 54.2056C41.8353 54.2774 42.1025 54.3122 42.464 54.3105V54.6934H38.1462V54.3105C38.4915 54.3122 38.7474 54.2774 38.9147 54.2056C39.082 54.1343 39.1909 53.985 39.2414 53.7571C39.2919 53.5297 39.3144 53.1834 39.3093 52.7175V49.2282C39.3127 48.3913 39.21 47.7873 39.0006 47.4162C38.7906 47.0452 38.4533 46.8633 37.9868 46.8706C37.4266 46.86 36.954 47.1519 36.5689 47.7469C36.2371 48.2436 36.0721 48.7797 36.0749 49.3562V52.7175C36.0699 53.1834 36.0923 53.5297 36.1434 53.7571C36.1939 53.985 36.3045 54.1343 36.474 54.2056C36.6435 54.2774 36.9034 54.3122 37.2537 54.3105V54.6934H32.9842V54.3105C33.3294 54.3122 33.586 54.2774 33.7527 54.2056C33.92 54.1343 34.0289 53.985 34.0794 53.7571C34.1299 53.5297 34.1523 53.1834 34.1473 52.7175V49.2125C34.1551 47.6352 33.7252 46.8543 32.8568 46.8706C32.3162 46.8897 31.8632 47.1462 31.4984 47.6391C31.1335 48.1325 30.9438 48.7472 30.9292 49.4836V52.7175C30.9241 53.1884 30.9466 53.5376 30.9971 53.7644C31.047 53.9917 31.1559 54.1399 31.3232 54.2095C31.4905 54.2791 31.7465 54.3128 32.0917 54.3105V54.6934H27.7739V54.3105C28.1354 54.3128 28.4026 54.2791 28.5766 54.2095C28.7506 54.1399 28.864 53.9917 28.9157 53.7644C28.9673 53.5376 28.9903 53.1884 28.9853 52.7175V48.2886C29.0015 47.6402 28.937 47.2203 28.7899 47.0278C28.6434 46.8358 28.3156 46.746 27.8065 46.7589V46.3766L30.9129 46.1695Z" fill="#3A3A3A"/>
<path d="M53.7908 46.8985V52.2199C53.7902 52.5663 53.8031 52.8531 53.8284 53.0799C53.8542 53.3067 53.8946 53.4981 53.9502 53.6536C54.0176 53.8315 54.1214 53.9735 54.2629 54.0796C54.4038 54.1857 54.5598 54.2407 54.7305 54.243C55.0706 54.2379 55.4422 54.0735 55.8458 53.749L56.0687 54.1476C55.4293 54.6836 54.7013 54.9491 53.8862 54.9441C53.0072 54.9306 52.4071 54.6387 52.086 54.0678C52.0231 53.9415 51.9737 53.7973 51.9389 53.6356C51.9041 53.474 51.88 53.2556 51.8665 52.9811C51.8531 52.7061 51.8463 52.335 51.8469 51.8691V46.8985H50.9386V46.4208C51.2855 46.4073 51.5797 46.3344 51.8211 46.2013C52.0624 46.0683 52.2729 45.86 52.4526 45.576C52.5935 45.3599 52.7097 45.1191 52.8012 44.8552C52.8921 44.5908 52.9724 44.263 53.042 43.8712L53.8385 43.7915C53.8278 44.0026 53.8188 44.2164 53.8121 44.4331C53.8048 44.6498 53.7998 44.9108 53.7964 45.2162C53.7925 45.521 53.7908 45.9122 53.7908 46.3882H55.7184V46.8985H53.7908Z" fill="#3A3A3A"/>
<path fill-rule="evenodd" clip-rule="evenodd" d="M50.9315 54.3557V54.6925C50.465 54.7234 50.277 54.7228 49.7869 54.7234C49.3979 54.7239 48.9954 54.7172 48.6615 54.5915C48.4549 54.514 48.3393 54.4478 48.1854 54.285C48.0777 54.1143 48.0092 54.1053 47.9744 53.6299C47.5635 54.0739 47.1352 54.4006 46.6906 54.6094C46.2455 54.8188 45.765 54.9221 45.2502 54.9204C44.4857 54.912 43.8879 54.7009 43.4562 54.2867C43.024 53.8724 42.8045 53.3032 42.7966 52.578C42.7938 51.2105 43.6443 50.3607 45.3462 50.0289C46.1136 49.8802 46.9842 49.7797 47.9587 49.7264V48.6907C47.9671 47.8611 47.879 47.2857 47.696 46.9663C47.513 46.6463 47.1863 46.4937 46.7159 46.5083C46.2169 46.4976 45.861 46.6778 45.6488 47.0499C45.5713 47.1774 45.5152 47.3244 45.4793 47.49C45.4439 47.6556 45.4153 47.8858 45.3939 48.181C45.381 48.4645 45.2985 48.666 45.1469 48.7861C44.9948 48.9063 44.7529 48.9646 44.4217 48.9618C43.6836 48.9562 43.312 48.712 43.3063 48.2287C43.3091 47.947 43.3961 47.6781 43.5679 47.4221C43.7391 47.1661 43.9816 46.941 44.2948 46.7468C44.9583 46.3382 45.829 46.1366 46.9073 46.1417C48.0041 46.1366 48.79 46.3539 49.2655 46.7951C49.4793 46.9966 49.6365 47.2543 49.737 47.5675C49.838 47.8807 49.8874 48.2815 49.8869 48.7704L49.8549 51.5423C49.8414 51.9964 49.8363 52.2833 49.8386 52.4028C49.833 52.9771 49.8515 53.3969 49.893 53.6613C49.9346 53.9263 49.9806 54.0425 50.1546 54.1862C50.4588 54.3602 50.7193 54.3551 50.9315 54.3557ZM47.9587 51.3194V50.0929C46.818 50.1704 46.0092 50.3815 45.5315 50.7261C45.0538 51.0708 44.8219 51.6085 44.836 52.3394C44.841 52.9125 44.9589 53.3672 45.1885 53.7034C45.4186 54.0397 45.7313 54.2114 46.1265 54.2193C46.4509 54.2159 46.7501 54.1227 47.0246 53.9381C47.2991 53.7545 47.5152 53.4974 47.6718 53.1679C47.7746 52.9658 47.8481 52.72 47.893 52.4286C47.9379 52.1373 47.9598 51.7679 47.9587 51.3194Z" fill="#3A3A3A"/>
<path fill-rule="evenodd" clip-rule="evenodd" d="M64.649 54.3558V54.6926C64.1825 54.7235 63.9945 54.7241 63.5044 54.7246C63.1154 54.7252 62.713 54.7185 62.379 54.5927C62.1724 54.5153 62.0568 54.449 61.903 54.2862C61.7952 54.1156 61.7267 54.1066 61.6919 53.6312C61.281 54.0752 60.8527 54.4019 60.4076 54.6107C59.963 54.8201 59.4825 54.9233 58.9677 54.9217C58.2032 54.9132 57.6054 54.7022 57.1737 54.2879C56.7415 53.8737 56.522 53.3045 56.5142 52.5792C56.5113 51.2118 57.3612 50.3619 59.0637 50.0302C59.8311 49.8814 60.7017 49.781 61.6762 49.7276V48.692C61.6846 47.8623 61.5965 47.287 61.4135 46.9676C61.2299 46.6476 60.9032 46.4949 60.4334 46.5095C59.9344 46.4988 59.5785 46.679 59.3663 47.0512C59.2888 47.1786 59.2321 47.3257 59.1968 47.4913C59.1614 47.6569 59.1328 47.887 59.1114 48.1823C59.0985 48.4658 59.016 48.6673 58.8645 48.788C58.7123 48.9075 58.4704 48.9659 58.1392 48.9631C57.4011 48.9575 57.0295 48.7133 57.0238 48.23C57.0266 47.9482 57.1137 47.6793 57.2854 47.4234C57.4566 47.1674 57.6991 46.9423 58.0118 46.7481C58.6758 46.3394 59.5465 46.1379 60.6248 46.143C61.7216 46.1379 62.5075 46.3551 62.983 46.7964C63.1968 46.9979 63.354 47.2555 63.4545 47.5688C63.5555 47.882 63.6049 48.2828 63.6044 48.7717L63.5724 51.5436C63.5589 51.9977 63.5538 52.2845 63.5561 52.4041C63.5505 52.9783 63.569 53.3982 63.6105 53.6632C63.6521 53.9275 63.6981 54.0437 63.8721 54.1874C64.1764 54.3615 64.4368 54.3553 64.649 54.3558ZM61.6762 51.3207V50.0942C60.5355 50.1717 59.7261 50.3827 59.249 50.7274C58.7713 51.072 58.5394 51.6098 58.5535 52.3406C58.5585 52.9138 58.6764 53.3685 58.906 53.7047C59.1361 54.0409 59.4488 54.2127 59.844 54.2206C60.1684 54.2172 60.4676 54.124 60.7421 53.9393C61.0166 53.7552 61.2322 53.4987 61.3893 53.1686C61.4921 52.9677 61.5656 52.7212 61.6105 52.4299C61.6554 52.1391 61.6773 51.7692 61.6762 51.3207Z" fill="#3A3A3A"/>
<path d="M97.4546 34.7612L97.4232 35.3747L109.196 49.1852L109.619 49.2543L109.672 49.2279L109.879 48.845L104.858 32.0398L104.006 31.4656L97.4546 34.7612Z" fill="#0097B9"/>
<path fill-rule="evenodd" clip-rule="evenodd" d="M100.936 36.0459L109.642 49.2911L109.179 49.2153L97.3914 35.3689L100.936 36.0459Z" fill="#005874"/>
<path d="M104.018 31.4508L104.868 32.0273L102.23 35.5345L101.005 34.999L104.018 31.4508Z" fill="#2FB8E7"/>
<path d="M101.005 34.999L100.936 36.0459L97.3914 35.3689L97.4289 34.7601L101.005 34.999Z" fill="#007592"/>
<path d="M102.23 35.5345L104.873 32.0222L109.957 48.8414L109.698 49.2765L102.23 35.5345Z" fill="#007592"/>
<path d="M116.347 31.133L123.96 34.6329L123.974 35.6203L111.481 54.5434L110.911 54.6939L110.827 54.6551L110.649 54.2285L115.684 31.5018L116.347 31.133Z" fill="#80B13A"/>
<path d="M124 35.6177L111.517 54.5818L110.879 54.7676L118.902 36.0516L124 35.6177Z" fill="#6E9123"/>
<path d="M117.465 35.2611L110.807 54.709L110.62 54.2319L115.675 31.4822L117.465 35.2611Z" fill="#3F7937"/>
<path d="M123.98 34.6324L124 35.6177L118.902 36.0516L118.615 34.702L123.98 34.6324Z" fill="#A5C550"/>
<path d="M118.615 34.702L117.464 35.2599L115.674 31.4805L116.332 31.1094L118.615 34.702Z" fill="#5D8B27"/>
<path d="M104.72 25.7486L105.023 25.1648L114.769 25.0593L115.398 25.7132L110.729 41.3133L110.433 41.485L110.424 41.4845L110.104 41.2689L104.72 25.7486Z" fill="#D81936"/>
<path d="M109.197 26.7977L108.495 27.6273L104.686 25.7306L104.994 25.1536L109.197 26.7977Z" fill="#AF2C35"/>
<path d="M104.686 25.7306L108.495 27.6273L110.426 41.5163L110.088 41.2862L104.686 25.7306Z" fill="#762624"/>
<path d="M110.327 27.6295L115.415 25.7064L110.753 41.3345L110.433 41.5163L110.327 27.6295Z" fill="#B22B37"/>
<path d="M109.197 26.7977L110.327 27.6295L115.415 25.7064L114.779 25.0559L109.197 26.7977Z" fill="#DC505E"/>
</g>
</g>
</svg>
