<svg width="128" height="80" viewBox="0 0 128 80" fill="none" xmlns="http://www.w3.org/2000/svg">
<g id="logo / payment method / internet bank transfer / brand-dark">
<path id="wordmark" d="M65.5628 36.3736V30.9134H66.3317V36.3736H65.5628ZM67.74 36.3736V30.9134H68.5002L71.2476 35.1295V30.9134H71.9128V36.3736H71.1612L68.4052 32.1575V36.3736H67.74ZM74.6515 36.3736V31.4923H72.6817V30.9134H77.3384V31.4923H75.3945V36.3736H74.6515ZM78.1073 36.3736V30.9134H81.1657V31.4923H78.8762V33.2202H80.7855V33.7904H78.8762V35.7688H81.3125V36.3476L78.1073 36.3736ZM82.211 36.3736V30.9134H83.8612C84.2897 30.8832 84.7147 31.0059 85.0621 31.259C85.3411 31.5009 85.494 31.8577 85.4767 32.2266C85.494 32.9333 85.0448 33.5666 84.3709 33.7817L86.1938 36.3736H85.2435L83.6884 34.0582H82.9627V36.3736H82.211ZM82.9713 33.4794H83.2218C84.1981 33.4794 84.6906 33.0992 84.6906 32.339C84.6906 31.7687 84.2759 31.475 83.4638 31.475H82.9713V33.4794ZM86.98 36.3736V30.9134H87.7403L90.5222 35.1295V30.9134H91.1874V36.3736H90.4271L87.6712 32.1575V36.3736H86.98ZM92.5611 36.3736V30.9134H95.6108V31.4923H93.33V33.2202H95.2393V33.7904H93.33V35.7688H95.7663V36.3476L92.5611 36.3736ZM97.9521 36.3736V31.4923H96.0169V30.9134H100.665V31.4923H98.7296V36.3736H97.9521ZM103.455 36.3736V30.9134H104.872C105.312 30.8858 105.749 30.9947 106.125 31.2245C106.41 31.4188 106.575 31.7446 106.566 32.0884C106.554 32.7606 106.094 33.3411 105.442 33.5053C106.306 33.7731 106.782 34.2655 106.782 34.9826C106.804 35.3705 106.641 35.7463 106.341 35.9934C105.966 36.25 105.516 36.3744 105.062 36.3476L103.455 36.3736ZM104.216 35.7947H104.345C104.729 35.8241 105.115 35.7861 105.486 35.6824C105.795 35.5675 105.989 35.2591 105.961 34.9308C105.961 34.6077 105.798 34.3062 105.529 34.1273C105.212 33.9027 104.829 33.7869 104.44 33.799H104.224V35.7947H104.216ZM104.216 33.3066H104.466C104.806 33.3282 105.143 33.2375 105.425 33.0474C105.661 32.872 105.791 32.5895 105.771 32.2958C105.771 31.7601 105.356 31.4923 104.527 31.4923H104.224V33.3066H104.216ZM110.566 34.2828L109.633 31.9329L108.665 34.2828H110.566ZM111.43 36.3736L110.833 34.8617H108.475L107.879 36.3736H107.153L109.322 30.9134H110.091L112.224 36.3736H111.43ZM113.054 36.3736V30.9134H113.814L116.561 35.1295V30.9134H117.227V36.3736H116.44L113.676 32.1575V36.3736H113.054ZM118.635 36.3736V30.9134H119.369V33.6003L121.581 30.9134H122.359L120.216 33.5053L122.739 36.3649H121.711L119.326 33.5917V36.3736H118.635ZM66.8847 48.1491V41.0821H63.9559V40.0021H71.5154V41.1253H68.578V48.1923L66.8847 48.1491ZM72.6731 48.1491V40.0021H75.7401C77.4075 40.0021 78.2369 40.676 78.2369 42.0324C78.2421 42.5257 78.0935 43.0087 77.8136 43.4147C77.5207 43.8242 77.1155 44.1387 76.6472 44.3218L79.2909 48.1491H77.2174L75.1872 44.797H74.28V48.1491H72.6731ZM74.28 43.6739H74.6774C75.9129 43.6739 76.5263 43.1728 76.5263 42.1793C76.5263 41.4449 75.982 41.0821 74.8762 41.0821H74.28V43.6739ZM79.6019 48.1491L82.7899 40.0021H84.5178L87.7057 48.1923H85.9778L85.1139 46.0065H81.6927L80.8287 48.1923L79.6019 48.1491ZM82.116 44.8748H84.656L83.386 41.6091L82.116 44.8748ZM88.8461 48.1491V40.0021H90.3407L94.1421 45.5918V40.0021H95.5071V48.1923H93.978L90.2112 42.594V48.1923L88.8461 48.1491ZM97.0968 48.08V46.6718C97.8095 46.9984 98.5776 47.1858 99.3603 47.2247C99.7292 47.248 100.095 47.1444 100.397 46.931C100.645 46.7435 100.787 46.4472 100.777 46.1361C100.785 45.8908 100.702 45.6506 100.544 45.4623C100.287 45.2065 99.997 44.9888 99.68 44.8143L99.1357 44.5033C98.5482 44.2095 98.0203 43.8087 97.5806 43.3197C97.2782 42.943 97.1158 42.473 97.1227 41.9892C97.1054 41.362 97.3793 40.7624 97.8657 40.365C98.4307 39.9365 99.1271 39.7196 99.8355 39.7516C100.581 39.7628 101.323 39.8587 102.047 40.0367V41.3499C101.407 41.0717 100.723 40.9084 100.026 40.8661C99.7189 40.8592 99.4173 40.9473 99.1616 41.1166C98.943 41.2669 98.816 41.5175 98.8247 41.7819C98.8178 42.0013 98.9024 42.2138 99.0579 42.3693C99.3154 42.6182 99.6065 42.8307 99.9219 43L100.509 43.3283C101.121 43.635 101.674 44.0471 102.142 44.5465C102.878 45.5348 102.707 46.9275 101.753 47.7085C101.066 48.1759 100.242 48.404 99.4122 48.3565C98.6415 48.3418 97.8743 48.2493 97.1227 48.08H97.0968ZM104.008 48.1491V40.0021H109.192V41.1253H105.736V43.6134H108.57V44.7452H105.736V48.201L104.008 48.1491ZM110.514 48.1491V40.0021H115.663V41.1253H112.25V43.4061H115.05V44.5033H112.25V47.026H115.922V48.1923L110.514 48.1491ZM117.322 48.1491V40.0021H120.415C122.082 40.0021 122.911 40.676 122.911 42.0324C122.907 42.511 122.76 42.9776 122.488 43.3715C122.198 43.7923 121.793 44.1223 121.322 44.3218L124 48.1491H121.927L119.896 44.797H118.955V48.1491H117.322ZM118.929 43.6739H119.326C120.562 43.6739 121.175 43.1728 121.175 42.1793C121.175 41.4449 120.622 41.0821 119.525 41.0821H118.929V43.6739Z" fill="white"/>
<g id="logo">
<path id="Vector" d="M30.6274 51.2716C44.7653 51.2716 56.2264 50.3228 56.2264 49.1524C56.2264 47.982 44.7653 47.0332 30.6274 47.0332C16.4894 47.0332 5.02835 47.982 5.02835 49.1524C5.02835 50.3228 16.4894 51.2716 30.6274 51.2716Z" fill="#231F20" fill-opacity="0.1"/>
<path id="Vector_2" fill-rule="evenodd" clip-rule="evenodd" d="M56.3862 43.6637L56.4926 43.5573L57.1754 42.8568L57.2906 42.7415L57.202 42.5996L48.5389 29.2105L48.3438 28.909L48.0601 29.1573L46.464 30.4784C43.952 29.3435 41.2769 28.6102 38.5369 28.306C36.5037 28.0374 34.4502 27.9451 32.401 28.0312C30.2374 28.1092 28.0828 28.3495 25.9547 28.7494C25.0148 28.9356 24.0749 29.1573 23.1616 29.4321C20.0315 30.3047 17.0442 31.6285 14.2946 33.3602C11.7045 34.951 9.40177 36.9691 7.48473 39.3277C6.95714 39.9582 6.46502 40.6187 6.01281 41.305C5.64926 41.8016 5.30345 42.307 4.98424 42.8302C4.66502 43.3533 4.34581 43.7169 4.09754 44.1602L4 44.311L4.15961 44.4351L5.21478 45.2597L5.32118 45.3395H5.46305C7.02365 45.2154 8.58424 45.0647 10.136 44.9051C13.1064 44.6124 16.1744 44.311 19.2246 44.2046H19.4552L19.535 44.0716L19.9074 43.4597C20.0049 43.2913 20.1025 43.1228 20.2089 42.9543C20.4146 42.5863 20.6434 42.2308 20.8916 41.8903C21.1842 41.4735 21.468 41.1011 21.7251 40.7553C22.7714 39.3632 24.035 38.1475 25.467 37.1553C26.0345 37.1996 26.6108 37.2528 27.1872 37.3238C27.7635 37.3947 28.4818 37.4745 29.1379 37.5632C31.4912 37.9232 33.8215 38.4206 36.1163 39.0528L34.5645 40.2942L34.4138 40.4184L34.5113 40.5691L35.2207 41.642L35.3005 41.7573H35.4601L56.2177 43.6637H56.3862Z" fill="#2A3052" fill-opacity="0.2"/>
<path id="Vector_3" fill-rule="evenodd" clip-rule="evenodd" d="M6.19003 41.4375C6.64668 40.7591 7.13792 40.1047 7.66195 39.4778C11.7062 34.7012 17.1195 31.2812 23.1703 29.6798C24.057 29.4227 25.0058 29.201 25.9457 29.0148C29.0341 28.4349 32.1774 28.199 35.3181 28.3143C36.3733 28.3586 37.4285 28.4562 38.4659 28.5892C41.2555 28.8951 43.9767 29.6497 46.526 30.8237L48.2994 29.3695L56.9979 42.67L34.8304 40.4355L37.8984 37.9084L37.6058 37.8286C34.9457 37.0607 32.2386 36.4684 29.5014 36.0552C28.6856 35.9311 27.8698 35.8424 27.0541 35.7714C26.2383 35.7005 25.4492 35.6828 24.66 35.6828H22.2659C17.2738 35.7892 12.1664 37.0394 8.46885 39.735C7.67082 40.3051 6.93486 40.956 6.26984 41.6769C5.85663 42.1105 5.47181 42.5689 5.11713 43.0512C5.439 42.49 5.79723 41.9517 6.19003 41.4375Z" fill="#A8E900"/>
<path id="Vector_4" d="M56.3154 43.3181L35.5223 41.4737L34.8041 40.4274L56.9716 42.6264L56.3154 43.3181ZM5.1883 42.8215V42.8836C5.3213 42.6974 5.46318 42.5112 5.60505 42.3338L5.73805 42.1654V42.121L6.32327 41.456C6.99628 40.7121 7.74199 40.0373 8.54889 39.4432C12.2996 36.6412 17.4159 35.3555 22.4967 35.2402H24.9085C25.7065 35.2402 26.5046 35.3112 27.3026 35.391C28.1006 35.4708 28.9518 35.5683 29.7765 35.6925C32.5252 36.119 35.2412 36.7299 37.9075 37.5191L38.2711 37.6255L37.0652 38.6718C34.5762 37.9535 32.0438 37.3949 29.4839 36.9959C28.8188 36.8984 28.1538 36.8186 27.4888 36.7476C24.0936 36.2972 20.647 36.4178 17.2917 37.1023C16.8218 37.2087 16.3518 37.324 15.8996 37.4481C14.4862 37.7851 13.1154 38.279 11.8119 38.92C10.5058 39.5088 9.30702 40.3122 8.26515 41.2964C7.9282 41.6156 7.60899 41.9437 7.30751 42.2895C6.59194 43.0467 5.96416 43.882 5.43657 44.7811L4.41687 44.0452C4.70948 43.5752 4.89569 43.2649 5.22377 42.8215H5.1883Z" fill="#88B600"/>
<path id="Vector_5" fill-rule="evenodd" clip-rule="evenodd" d="M6.41194 43.2449L6.52721 43.0942L6.65135 42.9346L6.75776 42.8016V42.6951C7.49194 41.8705 8.29175 41.108 9.15185 40.4163L9.37352 40.2567C9.65106 40.0616 9.94722 39.8754 10.2602 39.6981C10.7311 39.4294 11.217 39.1865 11.7144 38.971L11.8297 38.9178C12.2376 38.7316 12.6454 38.5543 13.0622 38.3947L13.408 38.2616C14.1644 37.9868 14.9376 37.7589 15.7223 37.5789C16.1745 37.4548 16.609 37.3483 17.0967 37.2508C19.7816 36.7188 22.525 36.5494 25.2543 36.7454C23.7709 37.7385 22.4585 38.9657 21.3706 40.3809C21.0868 40.7444 20.8031 41.1168 20.5371 41.4892C20.2728 41.8306 20.0272 42.1853 19.8011 42.5533L19.1804 43.6616C14.5607 43.8213 9.99421 44.4153 5.40997 44.77C5.71145 44.2469 6.04662 43.7432 6.41194 43.2626V43.2449Z" fill="black"/>
</g>
</g>
</svg>
