<svg width="128" height="80" viewBox="0 0 128 80" fill="none" xmlns="http://www.w3.org/2000/svg">
<g id="logo / payment method / beyonic / brand-dark">
<path id="logo" d="M31.734 23L38.0237 50.2417L10.4383 56.5998L4 29.2113L31.734 23Z" fill="#004361"/>
<g id="wordmark">
<path d="M108.646 47.8943H104.189V31.8525H108.646V47.8943Z" fill="#B6CDED"/>
<path d="M106.368 29.7005C107.953 29.7005 109.241 28.5267 109.241 27.0595C109.241 25.5922 107.953 24.4185 106.368 24.4185C104.783 24.4185 103.496 25.5922 103.496 27.0595C103.496 28.5267 104.783 29.7005 106.368 29.7005Z" fill="#B6CDED"/>
<path fill-rule="evenodd" clip-rule="evenodd" d="M19.749 24.5649V33.8575C22.2253 30.4339 28.6635 30.4339 30.1493 35.8138C31.4864 40.6067 29.555 47.5028 23.711 48.0408C18.2633 48.5298 15.2917 47.5517 15.2917 47.5517V24.5649H19.749ZM19.749 44.6172C19.749 44.6172 24.7015 46.0844 25.692 41.1936C25.692 41.1936 26.6825 35.8138 23.2158 35.3247C19.749 34.8356 19.749 40.7046 19.749 40.7046V44.6172Z" fill="#B6CDED"/>
<path fill-rule="evenodd" clip-rule="evenodd" d="M38.8161 44.3724C42.2828 45.8397 46.2448 43.8833 46.2448 43.8833L46.7401 47.3069C44.2638 48.7741 39.8066 48.2851 39.8066 48.2851C34.3588 47.796 33.3683 44.8615 32.8731 42.4161C32.3778 39.9707 32.8731 37.0362 32.8731 37.0362C33.8636 32.6345 38.8161 31.6564 38.8161 31.6564C43.7686 31.1673 45.7496 33.1236 46.7401 35.569C47.7306 38.0144 46.9877 40.7043 46.9877 40.7043H37.0827C36.8351 42.9052 38.8161 44.3724 38.8161 44.3724ZM37.3303 38.0144H42.7781C42.7781 38.0144 43.2733 34.5908 39.8066 34.5908C36.8351 35.569 37.3303 38.0144 37.3303 38.0144Z" fill="#B6CDED"/>
<path d="M53.7726 31.8522H48.8201L54.4165 48.1874C53.3269 53.5184 49.0182 52.0023 49.0182 52.0023L48.4239 55.6215C56.3479 57.5778 58.6261 48.2853 58.6261 48.2853L65.1634 31.8522H60.2109L56.8927 41.5849L53.7726 31.8522Z" fill="#B6CDED"/>
<path fill-rule="evenodd" clip-rule="evenodd" d="M70.3635 32.5371C70.3635 32.5371 72.4435 31.4122 75.1674 31.5589C81.8037 31.9013 83.2895 37.5257 81.7047 42.71C80.3675 47.0628 76.1084 47.9431 76.1084 47.9431C76.1084 47.9431 71.1558 49.4104 67.8872 45.9379C64.6185 42.5143 66.6491 36.6454 67.2434 35.6183C67.8377 34.5912 68.5805 33.6131 70.3635 32.5371ZM74.2264 35.3249C72.1959 35.3249 70.8092 37.2812 70.8092 39.8733C70.8092 42.4654 71.6016 44.5196 74.2264 44.5196C76.2569 44.5196 77.6436 42.4165 77.6436 39.8733C77.6436 37.3301 76.7027 35.3738 74.2264 35.3249Z" fill="#B6CDED"/>
<path d="M89.4304 31.8523H85.3199C85.3199 31.6566 85.4189 47.943 85.2703 47.943H89.8266V39.433C90.1733 35.9605 92.4019 35.4226 92.4019 35.4226C95.7696 34.5422 95.0763 38.4548 95.0763 38.4548V47.7963H99.6326V36.1562C99.4345 33.8086 98.5926 32.3903 97.2059 31.9012C95.8192 31.4121 94.6306 31.3632 92.8972 31.7055C91.1638 32.0479 89.4304 34.3466 89.4304 34.3466V31.8523Z" fill="#B6CDED"/>
<path d="M111.865 39.6288C111.717 33.2218 118.403 29.9939 123.949 32.2437L123.058 35.8139C120.087 34.4934 116.966 35.8629 116.521 39.0908C116.323 40.5091 116.422 42.4165 117.61 43.4925C119.096 44.7641 121.622 44.275 123.207 43.5903L123.999 47.0139C124.042 47.1833 122.599 47.6096 122.115 47.7525C122.04 47.7745 121.988 47.7898 121.968 47.7964C119.195 48.4811 115.382 48.1388 113.45 45.8401C112.014 44.1283 111.915 41.7807 111.865 39.6288Z" fill="#B6CDED"/>
</g>
</g>
</svg>
