<svg width="128" height="80" viewBox="0 0 128 80" fill="none" xmlns="http://www.w3.org/2000/svg">
<g id="logo / payment method / cryptos / black">
<g id="logo">
<path d="M31.9954 21.2511C26.1349 21.2511 21.2154 25.2967 19.8465 30.7356C19.761 30.7294 19.6754 30.7233 19.5899 30.7233C18.5449 30.7233 17.5243 30.8211 16.5343 30.9983C18.0437 23.5794 24.6071 18 32.4721 18C40.3371 18 46.9004 23.5794 48.4099 31.0044C47.4137 30.8272 46.3932 30.7294 45.3543 30.7294C45.3115 30.7294 45.2687 30.731 45.226 30.7325C45.1832 30.734 45.1404 30.7356 45.0976 30.7356C43.7287 25.2967 38.8093 21.2511 32.9487 21.2511H31.9954Z" fill="black"/>
<path d="M32.4722 36.26C35.0511 33.4184 38.6016 31.4811 42.5922 30.9739C41.3883 26.7695 37.5138 23.6772 32.9244 23.6772H32.0199C27.4305 23.6772 23.5561 26.7695 22.3522 30.9739C26.3427 31.4811 29.8933 33.4184 32.4722 36.26Z" fill="black"/>
<path fill-rule="evenodd" clip-rule="evenodd" d="M32.4721 39.2301C32.2949 38.9612 32.1055 38.6984 31.9099 38.4417C31.7205 38.1912 31.5188 37.9467 31.311 37.7084C28.6221 34.6162 24.6621 32.6667 20.2499 32.6667C12.1527 32.6667 5.58325 39.2362 5.58325 47.3334C5.58325 55.4306 12.1527 62.0001 20.2499 62.0001C24.6621 62.0001 28.6221 60.0506 31.3049 56.9645C31.5127 56.7262 31.7144 56.4818 31.9038 56.2312C32.0994 55.9745 32.2888 55.7117 32.466 55.4429C34.0121 53.1206 34.9105 50.334 34.9105 47.3395C34.9105 44.3451 34.0182 41.5523 32.4721 39.2301ZM19.9994 51.2812C21.1421 51.2812 22.2299 50.7862 22.9816 49.9184L25.1144 51.7701C24.3505 52.6501 23.3788 53.304 22.3094 53.6951V55.9501H20.6288V54.074C20.4211 54.0923 20.2132 54.1106 20.0055 54.1106C19.7671 54.1106 19.5349 54.0984 19.3088 54.074V55.9501H17.6283V53.6645C15.0677 52.699 13.2405 50.2301 13.2405 47.3334C13.2405 44.4367 15.0677 41.9679 17.6283 41.0023V38.7229H19.3088V40.599C19.541 40.5745 19.7733 40.5623 20.0055 40.5623C20.2133 40.5623 20.4271 40.5745 20.6288 40.599V38.7229H22.3094V40.9779C23.3788 41.369 24.3505 42.0167 25.1144 42.9029L22.9816 44.7545C22.2299 43.8867 21.1421 43.3917 19.9994 43.3917C17.8238 43.3917 16.0516 45.164 16.0516 47.3395C16.0516 49.5151 17.8238 51.2812 19.9994 51.2812Z" fill="black"/>
<path fill-rule="evenodd" clip-rule="evenodd" d="M44.6944 32.6667C40.2822 32.6667 36.3222 34.6162 33.6394 37.7023C35.595 40.4156 36.75 43.7401 36.75 47.3334C36.75 50.9268 35.595 54.2512 33.6394 56.9645C36.3222 60.0506 40.2822 62.0001 44.6944 62.0001C52.7916 62.0001 59.3611 55.4306 59.3611 47.3334C59.3611 39.2362 52.7916 32.6667 44.6944 32.6667ZM45.2933 55.394C45.0061 55.8156 44.3827 55.8156 44.0894 55.394L39.3227 48.4701L44.6883 51.6356L50.06 48.4701L45.2933 55.394ZM44.6883 49.7595L39.3227 46.5817L44.0833 39.3279C44.3705 38.8879 45.0122 38.8879 45.3055 39.3279L50.0661 46.5817L44.6883 49.7595Z" fill="black"/>
<path d="M70.3273 46.192C69.57 46.192 68.8873 46.0747 68.2793 45.84C67.6713 45.5947 67.154 45.2373 66.7273 44.768C66.3006 44.288 65.97 43.696 65.7353 42.992C65.5006 42.2773 65.3833 41.4453 65.3833 40.496C65.3833 39.5573 65.5006 38.7253 65.7353 38C65.97 37.264 66.3006 36.6507 66.7273 36.16C67.154 35.6587 67.6713 35.28 68.2793 35.024C68.8873 34.768 69.57 34.64 70.3273 34.64C71.362 34.64 72.2153 34.8533 72.8873 35.28C73.5593 35.696 74.098 36.3573 74.5033 37.264L72.4073 38.352C72.258 37.8827 72.0233 37.5093 71.7033 37.232C71.394 36.944 70.9353 36.8 70.3273 36.8C69.6126 36.8 69.0366 37.0347 68.5993 37.504C68.1726 37.9627 67.9593 38.6347 67.9593 39.52V41.312C67.9593 42.1973 68.1726 42.8747 68.5993 43.344C69.0366 43.8027 69.6126 44.032 70.3273 44.032C70.9246 44.032 71.3993 43.872 71.7513 43.552C72.114 43.2213 72.3806 42.8267 72.5513 42.368L74.5353 43.52C74.1193 44.3733 73.57 45.0347 72.8873 45.504C72.2153 45.9627 71.362 46.192 70.3273 46.192Z" fill="black"/>
<path d="M76.1092 46V37.6H78.4772V39.424H78.5572C78.5998 39.1893 78.6745 38.9653 78.7812 38.752C78.8878 38.528 79.0265 38.3307 79.1972 38.16C79.3785 37.9893 79.5918 37.856 79.8372 37.76C80.0825 37.6533 80.3705 37.6 80.7012 37.6H81.1172V39.808H80.5252C79.8318 39.808 79.3145 39.8987 78.9732 40.08C78.6425 40.2613 78.4772 40.5973 78.4772 41.088V46H76.1092Z" fill="black"/>
<path d="M90.0313 37.6H87.8233L86.5913 41.52L85.9673 43.952H85.8713L85.2633 41.52L84.0313 37.6H81.6793L84.6233 46.432L84.3353 47.36H82.7513V49.2H84.2233C84.9486 49.2 85.5033 49.0453 85.8873 48.736C86.282 48.4267 86.586 47.9467 86.7993 47.296L90.0313 37.6Z" fill="black"/>
<path fill-rule="evenodd" clip-rule="evenodd" d="M91.2342 37.6H93.6022V39.008H93.6822C93.7995 38.5387 94.0662 38.1547 94.4822 37.856C94.9088 37.5573 95.3942 37.408 95.9382 37.408C97.0048 37.408 97.8102 37.7813 98.3542 38.528C98.8982 39.2747 99.1702 40.3627 99.1702 41.792C99.1702 43.2213 98.8982 44.3147 98.3542 45.072C97.8102 45.8187 97.0048 46.192 95.9382 46.192C95.6608 46.192 95.3995 46.1493 95.1542 46.064C94.9088 45.9893 94.6848 45.8827 94.4822 45.744C94.2902 45.5947 94.1248 45.424 93.9862 45.232C93.8475 45.0293 93.7462 44.816 93.6822 44.592H93.6022V49.2H91.2342V37.6ZM95.1542 44.272C95.6022 44.272 95.9702 44.1173 96.2582 43.808C96.5568 43.488 96.7062 43.0613 96.7062 42.528V41.072C96.7062 40.5387 96.5568 40.1173 96.2582 39.808C95.9702 39.488 95.6022 39.328 95.1542 39.328C94.7062 39.328 94.3328 39.44 94.0342 39.664C93.7462 39.8773 93.6022 40.176 93.6022 40.56V43.04C93.6022 43.424 93.7462 43.728 94.0342 43.952C94.3328 44.1653 94.7062 44.272 95.1542 44.272Z" fill="black"/>
<path d="M101.947 45.376C102.373 45.792 102.997 46 103.819 46H105.227V44.16H103.691V39.44H105.355V37.6H103.691V35.328H101.563V36.704C101.563 36.992 101.504 37.216 101.387 37.376C101.269 37.5253 101.051 37.6 100.731 37.6H100.139V39.44H101.323V43.552C101.323 44.352 101.531 44.96 101.947 45.376Z" fill="black"/>
<path fill-rule="evenodd" clip-rule="evenodd" d="M110.345 46.192C109.727 46.192 109.172 46.0907 108.681 45.888C108.201 45.6853 107.791 45.392 107.449 45.008C107.119 44.624 106.863 44.16 106.681 43.616C106.5 43.072 106.409 42.464 106.409 41.792C106.409 41.12 106.5 40.512 106.681 39.968C106.863 39.424 107.119 38.9653 107.449 38.592C107.791 38.208 108.201 37.9147 108.681 37.712C109.172 37.5093 109.727 37.408 110.345 37.408C110.964 37.408 111.513 37.5093 111.993 37.712C112.484 37.9147 112.895 38.208 113.225 38.592C113.567 38.9653 113.828 39.424 114.009 39.968C114.191 40.512 114.281 41.12 114.281 41.792C114.281 42.464 114.191 43.072 114.009 43.616C113.828 44.16 113.567 44.624 113.225 45.008C112.895 45.392 112.484 45.6853 111.993 45.888C111.513 46.0907 110.964 46.192 110.345 46.192ZM110.345 44.32C110.815 44.32 111.177 44.176 111.433 43.888C111.689 43.6 111.817 43.1893 111.817 42.656V40.944C111.817 40.4107 111.689 40 111.433 39.712C111.177 39.424 110.815 39.28 110.345 39.28C109.876 39.28 109.513 39.424 109.257 39.712C109.001 40 108.873 40.4107 108.873 40.944V42.656C108.873 43.1893 109.001 43.6 109.257 43.888C109.513 44.176 109.876 44.32 110.345 44.32Z" fill="black"/>
<path d="M116.769 45.808C117.323 46.064 118.006 46.192 118.817 46.192C119.361 46.192 119.851 46.1227 120.289 45.984C120.737 45.8453 121.115 45.6533 121.425 45.408C121.745 45.152 121.99 44.8533 122.161 44.512C122.331 44.1707 122.417 43.7973 122.417 43.392C122.417 41.952 121.494 41.1093 119.649 40.864L118.705 40.736C118.363 40.6827 118.129 40.5973 118.001 40.48C117.883 40.352 117.825 40.176 117.825 39.952C117.825 39.7387 117.91 39.568 118.081 39.44C118.251 39.312 118.539 39.248 118.945 39.248C119.297 39.248 119.638 39.328 119.969 39.488C120.31 39.6373 120.614 39.8453 120.881 40.112L122.241 38.72C122.027 38.5173 121.809 38.336 121.585 38.176C121.371 38.0053 121.131 37.8667 120.865 37.76C120.609 37.6427 120.31 37.5573 119.969 37.504C119.638 37.44 119.254 37.408 118.817 37.408C118.315 37.408 117.862 37.4773 117.457 37.616C117.062 37.744 116.721 37.9307 116.433 38.176C116.155 38.4107 115.937 38.6987 115.777 39.04C115.627 39.3707 115.553 39.7387 115.553 40.144C115.553 41.6373 116.497 42.5013 118.385 42.736L119.297 42.848C119.862 42.9227 120.145 43.1573 120.145 43.552C120.145 43.7973 120.054 43.9947 119.873 44.144C119.691 44.2827 119.366 44.352 118.897 44.352C118.438 44.352 118.027 44.256 117.665 44.064C117.302 43.872 116.971 43.6107 116.673 43.28L115.281 44.688C115.718 45.168 116.214 45.5413 116.769 45.808Z" fill="black"/>
</g>
</g>
</svg>
