<svg width="128" height="80" viewBox="0 0 128 80" fill="none" xmlns="http://www.w3.org/2000/svg">
<g id="logo / payment method / diamond bank / brand">
<g id="logo">
<path d="M80.7982 59.523V56.8671L78.4866 53.2124H79.9803L81.4654 55.7091L82.9204 53.2124H84.3883L82.0681 56.8757V59.523H80.7982Z" fill="#B9D502"/>
<path d="M84.0784 57.1727C84.0784 56.7709 84.1774 56.3821 84.3754 56.0061C84.5734 55.6302 84.8532 55.3432 85.2148 55.1452C85.5793 54.9472 85.9853 54.8482 86.433 54.8482C87.1246 54.8482 87.6914 55.0734 88.1334 55.524C88.5753 55.9717 88.7963 56.5385 88.7963 57.2243C88.7963 57.916 88.5724 58.4899 88.1248 58.9462C87.6799 59.3996 87.1189 59.6264 86.4416 59.6264C86.0226 59.6264 85.6223 59.5317 85.2406 59.3423C84.8618 59.1528 84.5734 58.8759 84.3754 58.5114C84.1774 58.1441 84.0784 57.6979 84.0784 57.1727ZM85.3181 57.2373C85.3181 57.6907 85.4257 58.0379 85.641 58.279C85.8562 58.5201 86.1217 58.6406 86.4373 58.6406C86.753 58.6406 87.017 58.5201 87.2294 58.279C87.4446 58.0379 87.5522 57.6878 87.5522 57.2287C87.5522 56.781 87.4446 56.4366 87.2294 56.1955C87.017 55.9545 86.753 55.8339 86.4373 55.8339C86.1217 55.8339 85.8562 55.9545 85.641 56.1955C85.4257 56.4366 85.3181 56.7838 85.3181 57.2373Z" fill="#B9D502"/>
<path d="M92.7566 59.523V58.8386C92.5902 59.0825 92.3706 59.2748 92.098 59.4154C91.8282 59.5561 91.5427 59.6264 91.2414 59.6264C90.9343 59.6264 90.6588 59.5589 90.4149 59.424C90.1709 59.2892 89.9944 59.0998 89.8854 58.8558C89.7763 58.6119 89.7218 58.2747 89.7218 57.8442V54.9515H90.9314V57.0522C90.9314 57.695 90.9529 58.0896 90.996 58.236C91.0419 58.3794 91.1237 58.4942 91.2414 58.5803C91.359 58.6635 91.5083 58.7052 91.689 58.7052C91.8957 58.7052 92.0808 58.6492 92.2444 58.5373C92.4079 58.4225 92.5199 58.2819 92.5801 58.1154C92.6404 57.9461 92.6705 57.5343 92.6705 56.88V54.9515H93.8801V59.523H92.7566Z" fill="#B9D502"/>
<path d="M96.2951 59.523H95.0854V54.9515H96.209V55.6015C96.4012 55.2944 96.5734 55.0921 96.7255 54.9945C96.8805 54.8969 97.0556 54.8482 97.2507 54.8482C97.5262 54.8482 97.7917 54.9242 98.0471 55.0763L97.6726 56.131C97.4688 55.9989 97.2794 55.9329 97.1043 55.9329C96.935 55.9329 96.7915 55.9803 96.6739 56.075C96.5562 56.1668 96.463 56.3347 96.3941 56.5786C96.3281 56.8226 96.2951 57.3334 96.2951 58.1111V59.523Z" fill="#B9D502"/>
<path d="M101.039 53.2124H103.561C104.061 53.2124 104.432 53.2339 104.676 53.2769C104.923 53.3171 105.143 53.4032 105.335 53.5352C105.53 53.6672 105.692 53.8437 105.821 54.0647C105.95 54.2828 106.015 54.5282 106.015 54.8008C106.015 55.0964 105.935 55.3676 105.774 55.6144C105.616 55.8612 105.401 56.0463 105.128 56.1697C105.513 56.2816 105.808 56.4725 106.015 56.7422C106.222 57.012 106.325 57.3291 106.325 57.6936C106.325 57.9805 106.258 58.2603 106.123 58.533C105.991 58.8027 105.808 59.0194 105.576 59.183C105.346 59.3437 105.062 59.4427 104.724 59.48C104.511 59.503 103.999 59.5173 103.187 59.523H101.039V53.2124ZM102.313 54.2627V55.722H103.148C103.645 55.722 103.953 55.7148 104.074 55.7005C104.292 55.6747 104.462 55.6 104.586 55.4766C104.712 55.3504 104.775 55.1854 104.775 54.9816C104.775 54.7865 104.721 54.6286 104.612 54.5081C104.506 54.3847 104.346 54.3101 104.134 54.2842C104.008 54.2699 103.645 54.2627 103.045 54.2627H102.313ZM102.313 56.7724V58.4598H103.493C103.952 58.4598 104.243 58.4469 104.366 58.4211C104.556 58.3866 104.709 58.3034 104.827 58.1714C104.947 58.0365 105.008 57.8571 105.008 57.6333C105.008 57.4439 104.962 57.2832 104.87 57.1512C104.778 57.0192 104.645 56.923 104.47 56.8628C104.297 56.8025 103.922 56.7724 103.342 56.7724H102.313Z" fill="#B9D502"/>
<path d="M108.301 56.3462L107.203 56.1482C107.327 55.7062 107.539 55.3791 107.84 55.1667C108.142 54.9543 108.589 54.8482 109.183 54.8482C109.723 54.8482 110.125 54.9127 110.389 55.0419C110.653 55.1681 110.838 55.3303 110.944 55.5283C111.053 55.7234 111.107 56.0836 111.107 56.6088L111.095 58.0207C111.095 58.4225 111.113 58.7195 111.151 58.9118C111.191 59.1012 111.264 59.3049 111.37 59.523H110.173C110.142 59.4427 110.103 59.3236 110.057 59.1658C110.037 59.094 110.023 59.0467 110.014 59.0237C109.807 59.2246 109.587 59.3753 109.351 59.4757C109.116 59.5761 108.865 59.6264 108.598 59.6264C108.127 59.6264 107.756 59.4987 107.483 59.2432C107.213 58.9878 107.078 58.665 107.078 58.2747C107.078 58.0164 107.14 57.7868 107.263 57.5859C107.387 57.3822 107.559 57.2272 107.78 57.121C108.004 57.012 108.325 56.9173 108.744 56.8369C109.31 56.7307 109.701 56.6317 109.919 56.5399V56.4194C109.919 56.1869 109.862 56.0219 109.747 55.9243C109.632 55.8239 109.416 55.7737 109.097 55.7737C108.882 55.7737 108.714 55.8167 108.594 55.9028C108.473 55.986 108.375 56.1338 108.301 56.3462ZM109.919 57.3277C109.764 57.3793 109.519 57.441 109.183 57.5128C108.848 57.5845 108.628 57.6548 108.525 57.7237C108.367 57.8356 108.288 57.9777 108.288 58.1499C108.288 58.3192 108.351 58.4655 108.477 58.5889C108.604 58.7123 108.764 58.774 108.959 58.774C109.178 58.774 109.386 58.7023 109.584 58.5588C109.73 58.4497 109.826 58.3163 109.872 58.1585C109.904 58.0551 109.919 57.8586 109.919 57.5687V57.3277Z" fill="#B9D502"/>
<path d="M116.463 59.523H115.253V57.1899C115.253 56.6963 115.227 56.3778 115.175 56.2343C115.124 56.0879 115.039 55.9746 114.921 55.8942C114.807 55.8138 114.667 55.7737 114.504 55.7737C114.294 55.7737 114.106 55.8311 113.94 55.9459C113.774 56.0606 113.659 56.2127 113.596 56.4022C113.535 56.5916 113.505 56.9417 113.505 57.4525V59.523H112.296V54.9515H113.419V55.623C113.818 55.1064 114.32 54.8482 114.926 54.8482C115.193 54.8482 115.437 54.8969 115.658 54.9945C115.879 55.0892 116.045 55.2112 116.157 55.3604C116.272 55.5096 116.351 55.679 116.394 55.8684C116.44 56.0578 116.463 56.329 116.463 56.682V59.523Z" fill="#B9D502"/>
<path d="M117.651 59.523V53.2124H118.86V56.5614L120.276 54.9515H121.766L120.203 56.6217L121.878 59.523H120.574L119.424 57.4697L118.86 58.0595V59.523H117.651Z" fill="#B9D502"/>
<path fill-rule="evenodd" clip-rule="evenodd" d="M6.05798 39.0124L11.251 41.2813L15.1244 39.0124L20.1241 33.7289H11.3181L6.05798 39.0124Z" fill="#FF7D00"/>
<path fill-rule="evenodd" clip-rule="evenodd" d="M6.05798 39.0124L20.7612 53.7134L22.9282 48.1206L20.7634 44.6437L15.1244 39.0124H6.05798Z" fill="#ED3024"/>
<path fill-rule="evenodd" clip-rule="evenodd" d="M46.8922 35.6102H41.5871V48.9541H46.8922C51.2911 48.9541 53.5071 45.636 53.5071 42.3019C53.5071 38.964 51.291 35.6102 46.8922 35.6102ZM46.8922 45.8485H44.8291V38.6961H46.8922C49.1379 38.6961 50.2807 40.5466 50.2807 42.3019C50.2807 44.0552 49.1377 45.8485 46.8922 45.8485Z" fill="#4C4C4C"/>
<path fill-rule="evenodd" clip-rule="evenodd" d="M54.5905 48.9553H57.6407V38.6403H54.5905V48.9553Z" fill="#4C4C4C"/>
<path fill-rule="evenodd" clip-rule="evenodd" d="M66.6622 39.7094C65.9937 38.8502 65.0016 38.4675 63.9925 38.4675C60.6567 38.4675 59.0332 40.7947 58.995 43.6159C58.977 46.4591 60.6726 49.0899 63.9522 49.0899C64.9458 49.0899 65.9548 48.8054 66.662 47.9254L66.6623 48.9553H69.6532V38.6416H66.6623L66.6622 39.7094ZM64.3157 46.2096C62.7718 46.2096 61.9878 44.9312 62.0086 43.6926C62.0288 42.4366 62.7932 41.235 64.3157 41.235C65.6124 41.2347 66.662 42.3576 66.662 43.7321C66.6623 45.1044 65.612 46.2096 64.3157 46.2096Z" fill="#4C4C4C"/>
<path fill-rule="evenodd" clip-rule="evenodd" d="M83.5946 38.5076C82.3902 38.4499 80.8822 38.8887 80.1808 39.8606C79.7038 39.0781 78.941 38.5439 77.7591 38.4862C76.6516 38.4675 75.4333 38.7539 74.7092 39.6689L74.7096 38.6403H71.678V48.9553H74.8604V43.1204C74.8604 41.9592 75.8308 41.4229 76.5773 41.4429C77.2634 41.4613 77.8553 41.9186 77.8553 43.1563L77.8556 48.9553H80.8825V43.0841C80.9076 41.9386 82.0096 41.4229 82.7537 41.4429C83.4403 41.4613 84.0316 41.9186 84.0316 43.1563L84.0323 48.9553H87.0633V43.1389C87.1015 39.8801 85.5363 38.5821 83.5946 38.5076Z" fill="#4C4C4C"/>
<path fill-rule="evenodd" clip-rule="evenodd" d="M88.2125 43.7771C88.2125 51.0783 99.2151 51.1165 99.2151 43.7771C99.2151 36.4355 88.2125 36.4145 88.2125 43.7771ZM91.2236 43.7771C91.2236 40.286 96.1992 40.2675 96.1992 43.7771C96.1992 47.2458 91.2236 47.2252 91.2236 43.7771Z" fill="#4C4C4C"/>
<path fill-rule="evenodd" clip-rule="evenodd" d="M106.433 38.487C105.326 38.487 104.108 38.7538 103.381 39.671V38.6403H100.35V48.9561H103.535V43.348C103.535 42.0347 104.601 41.2721 105.498 41.2721C106.317 41.2719 107.1 41.9025 107.1 43.2911V48.9561H110.151V43.2745C110.169 40.6974 109.367 38.5254 106.433 38.487Z" fill="#4C4C4C"/>
<path fill-rule="evenodd" clip-rule="evenodd" d="M118.947 35.5138V39.5751C118.258 38.792 117.288 38.4675 116.278 38.4675C112.941 38.4675 111.322 40.7947 111.282 43.6159C111.264 46.4612 112.958 49.0899 116.242 49.0899C117.231 49.0899 118.241 48.8041 118.947 47.9275V48.9553H121.942V35.5138H118.947ZM116.602 46.2075C115.058 46.2075 114.274 44.9312 114.296 43.6926C114.314 42.4366 115.078 41.235 116.602 41.235C117.9 41.2347 118.947 42.3599 118.947 43.7321C118.947 45.1044 117.899 46.2075 116.602 46.2075Z" fill="#4C4C4C"/>
<path fill-rule="evenodd" clip-rule="evenodd" d="M56.1158 34.1548C55.0915 34.1548 54.2655 34.983 54.2655 36.0041C54.2655 37.0249 55.0915 37.8522 56.1158 37.8522C57.1358 37.8522 57.9631 37.0249 57.9631 36.0041C57.9631 34.983 57.1358 34.1548 56.1158 34.1548Z" fill="#4C4C4C"/>
<path fill-rule="evenodd" clip-rule="evenodd" d="M26.3973 39.0125L20.7634 44.6437L20.7612 53.7134L35.4632 39.0125L28.8863 35.2482L26.3973 39.0125Z" fill="#0099B0"/>
<path fill-rule="evenodd" clip-rule="evenodd" d="M16.8415 20.373L35.4612 39.0125L26.3973 39.0125L16.8415 29.4721V20.373Z" fill="#B5D433"/>
</g>
</g>
</svg>
