<svg width="128" height="80" viewBox="0 0 128 80" fill="none" xmlns="http://www.w3.org/2000/svg">
<g id="logo / payment method / first bank / black">
<g id="logo">
<path d="M107.628 32.5979L108.898 33.8131L105.738 34.2516L107.628 32.5979Z" fill="black"/>
<path fill-rule="evenodd" clip-rule="evenodd" d="M118.405 40.4432C118.658 40.4758 119.024 40.4758 119.383 40.4758C119.568 40.4758 119.774 40.4668 119.986 40.4574C120.892 40.4174 121.909 40.3726 121.909 41.0086C121.909 41.5732 121.041 42.5394 117.944 42.6459L115.211 55.5032H92.5806L96.7325 35.9592C96.7325 35.9592 96.1481 35.1083 96.1481 32.7865C96.1481 31.3068 96.7547 29.0584 96.9228 28.5311C97.0946 28.0033 97.6593 27.6734 98.4666 27.8021L99.1691 24.4961H121.802L118.405 40.4432ZM118.901 42.0721C113.262 42.7617 109.226 38.7204 109.226 38.7204C109.226 38.7204 109.823 37.4947 111.582 37.9525C115.899 41.2325 119.188 40.9773 119.819 40.9283C119.849 40.926 119.873 40.9242 119.891 40.9232C120.022 40.9177 120.154 40.9096 120.282 40.9017C120.818 40.8688 121.283 40.8403 121.333 41.0317C121.397 41.2786 120.944 41.8173 118.901 42.0721ZM100.563 45.7977L96.1235 47.3378L95.1816 47.1978L97.3027 37.1112C98.6688 39.1811 101.147 41.7087 106.925 41.6957L107.072 43.4638L106.64 45.0403L108.874 48.6703L108.957 50.9209L107.895 53.5315L107.844 54.5635L104.33 51.6406L106.709 50.1509L100.563 45.7977ZM115.008 39.4967C114.897 38.0112 114.764 37.0412 114.383 36.3386C114.035 35.6864 112.588 33.9351 112.588 33.9351L112.672 33.036C111.574 31.301 108.731 28.9214 108.731 28.9214C106.883 28.4003 105.187 28.5265 105.187 28.5265L104.028 29.1611L98.5204 28.3584C98.5204 28.3584 97.6728 28.2037 97.4871 28.6728C97.3027 29.146 96.7217 31.3069 96.7217 32.7861C96.7217 32.8011 96.7216 32.8181 96.7215 32.8372C96.7165 33.8517 96.6832 40.6159 107.735 40.6159C107.735 40.6159 108.435 40.1179 108.65 39.1308L108.08 38.6244C108.08 38.6244 108.948 36.6052 111.47 37.1091C111.47 37.1091 113.686 38.8923 115.008 39.4967ZM114.002 49.9019C114.002 49.9019 113.702 50.166 113.266 50.166C111.506 50.1731 111.355 48.3757 111.355 48.3757C111.245 47.2916 111.535 45.5195 111.757 44.1643C111.894 43.325 112.005 42.6456 111.979 42.3886L111.811 41.2937C111.811 41.2937 113.303 42.2167 115.029 42.4565C115.029 42.4565 115.015 43.0387 114.853 43.4466C114.731 43.7535 114.506 44.2407 114.25 44.7939C113.634 46.1231 112.843 47.8331 112.893 48.3383C112.95 48.8711 113.375 49.0556 113.897 48.9189C113.897 48.9189 114.047 49.2542 114.002 49.9019ZM100.481 46.5631L100.494 49.6868L98.7987 53.7537L99.2602 54.68H103.327L102.873 53.7453L103.853 48.9294L100.481 46.5631Z" fill="black"/>
<path fill-rule="evenodd" clip-rule="evenodd" d="M83.5467 47.5528C84.0996 47.5528 84.4798 47.7737 84.7049 48.2273C84.9291 48.6796 84.9488 49.3586 84.7682 50.2607C84.6688 50.7306 84.538 51.1418 84.3695 51.4914C84.2061 51.8397 84.0158 52.1315 83.7982 52.3536C83.5832 52.5875 83.3505 52.7581 83.0969 52.8654C82.84 52.9811 82.5792 53.0314 82.3139 53.0314C82.1622 53.0314 82.0134 53.0126 81.8604 52.9836C81.7061 52.9484 81.5661 52.9145 81.4445 52.8654C81.3163 52.8202 81.2203 52.7732 81.144 52.7242C81.0706 52.673 81.0354 52.6294 81.0425 52.5947C81.047 52.5872 81.0498 52.579 81.0527 52.5704L81.0559 52.5613L81.0587 52.5541C81.0604 52.5501 81.0624 52.546 81.0648 52.5418C81.0648 52.5221 81.0778 52.4999 81.0983 52.4811L81.2798 52.1725C81.2995 52.1411 81.3297 52.1315 81.3662 52.1315C81.3569 52.1315 81.385 52.1411 81.4492 52.1596C81.4716 52.1654 81.4945 52.1718 81.5187 52.1784C81.5753 52.194 81.6382 52.2114 81.7149 52.2287C81.821 52.2627 81.9388 52.2857 82.0603 52.3C82.1869 52.3209 82.303 52.3314 82.4145 52.3314C82.5709 52.3314 82.7268 52.2975 82.8794 52.2333C83.0328 52.1725 83.174 52.0581 83.3036 51.8992C83.4348 51.7471 83.5538 51.5425 83.6683 51.2831C83.7747 51.0236 83.8732 50.7025 83.9525 50.319C83.8732 50.5 83.7793 50.6405 83.6825 50.7562C83.5832 50.8668 83.4805 50.9569 83.3761 51.0236C83.2709 51.0881 83.1552 51.1326 83.0387 51.1594C82.9192 51.1896 82.7964 51.1946 82.6731 51.1946C82.3713 51.1946 82.1328 51.1456 81.9446 51.0542C81.7564 50.9569 81.621 50.8312 81.5275 50.6635C81.4282 50.5051 81.3804 50.3143 81.3662 50.1018C81.3569 49.8809 81.372 49.6516 81.4261 49.4031C81.4785 49.1457 81.559 48.9097 81.665 48.6817C81.7803 48.4574 81.9165 48.2587 82.0875 48.0965C82.2615 47.9259 82.4669 47.796 82.7138 47.7C82.9519 47.5952 83.2361 47.5528 83.5467 47.5528ZM83.4746 48.2482C83.2885 48.2482 83.1296 48.2822 82.9976 48.3501C82.8693 48.4167 82.7582 48.4972 82.6694 48.6142C82.5759 48.7253 82.5055 48.8489 82.4518 48.9927C82.3923 49.1386 82.3466 49.279 82.3248 49.4286C82.2892 49.5699 82.267 49.7149 82.267 49.8457C82.2615 49.9731 82.285 50.0888 82.3248 50.1777C82.3676 50.2796 82.4417 50.3563 82.5348 50.4091C82.6321 50.4711 82.7662 50.4967 82.9414 50.4967C83.1061 50.4967 83.2512 50.4615 83.3635 50.3906C83.4805 50.319 83.5832 50.2209 83.6683 50.1018C83.7504 49.9836 83.8179 49.8457 83.8732 49.6847C83.9281 49.5364 83.9676 49.3641 84.0074 49.1843C84.0317 49.0241 84.0363 48.8862 84.0178 48.7718C83.9981 48.6502 83.9583 48.5568 83.9043 48.4784C83.8481 48.3987 83.789 48.3405 83.7081 48.3069C83.6314 48.2671 83.5538 48.2482 83.4746 48.2482Z" fill="black"/>
<path fill-rule="evenodd" clip-rule="evenodd" d="M79.2743 47.547C79.556 47.547 79.7958 47.5776 79.9836 47.6476C80.1739 47.713 80.324 47.8044 80.43 47.9259C80.5411 48.045 80.6077 48.19 80.6346 48.3548C80.666 48.5241 80.6559 48.7136 80.6157 48.9097C80.5658 49.1659 80.4489 49.3863 80.2632 49.5666C80.0821 49.7535 79.8285 49.9044 79.528 50.0268C79.8507 50.1555 80.0821 50.3316 80.2196 50.5701C80.3567 50.7994 80.394 51.0882 80.3214 51.4235C80.2196 51.9471 79.9777 52.3394 79.5992 52.6178C79.2115 52.8936 78.7294 53.0256 78.1476 53.0256C77.5436 53.0256 77.1135 52.8877 76.854 52.6119C76.5958 52.3335 76.5292 51.9349 76.6298 51.4151C76.6989 51.0882 76.8482 50.8052 77.0854 50.5701C77.3139 50.3316 77.6182 50.1484 78.003 50.0164C77.7448 49.9086 77.5624 49.7607 77.4514 49.5854C77.3424 49.4031 77.3101 49.1784 77.3684 48.9123C77.4128 48.7136 77.4841 48.5308 77.58 48.3568C77.6794 48.19 77.8089 48.045 77.9619 47.9259C78.1233 47.8044 78.3056 47.713 78.5253 47.6476C78.7395 47.5751 78.9906 47.547 79.2743 47.547ZM78.6888 50.4066C78.5618 50.4066 78.4364 50.4322 78.3207 50.4733C78.1996 50.5198 78.0872 50.5877 77.9887 50.6757C77.8873 50.7583 77.8031 50.8589 77.7284 50.9838C77.6534 51.102 77.601 51.2353 77.5704 51.3904C77.5113 51.6863 77.5553 51.9177 77.6957 52.085C77.8437 52.2543 78.0378 52.3361 78.2918 52.3361C78.418 52.3361 78.5332 52.3151 78.654 52.2765C78.773 52.2334 78.8841 52.1726 78.9868 52.0929C79.0807 52.0053 79.1742 51.9026 79.2429 51.797C79.315 51.6759 79.3666 51.5484 79.3959 51.4021C79.4265 51.2471 79.4286 51.1091 79.4018 50.9838C79.3804 50.8589 79.341 50.7562 79.2743 50.6728C79.2056 50.5877 79.1239 50.5215 79.0245 50.4733C78.9201 50.4322 78.8116 50.4066 78.6888 50.4066ZM78.5944 48.4331C78.4326 48.5652 78.3408 48.7215 78.3056 48.9072C78.2834 49.0099 78.2822 49.1072 78.2964 49.2019C78.3149 49.2941 78.345 49.3666 78.3945 49.4392C78.441 49.5113 78.5068 49.5666 78.5789 49.6051C78.6527 49.645 78.7395 49.6668 78.8409 49.6668C78.9269 49.6668 79.0195 49.6492 79.1117 49.6119C79.2027 49.5666 79.2861 49.5171 79.3645 49.4496C79.4441 49.3863 79.507 49.3096 79.5619 49.2162C79.6202 49.1214 79.6541 49.0158 79.6797 48.9097C79.7229 48.7052 79.6847 48.543 79.5757 48.4214C79.4684 48.2998 79.315 48.2412 79.1239 48.2412C78.9268 48.2344 78.7487 48.3044 78.5944 48.4331Z" fill="black"/>
<path d="M67.0098 49.0033C67.1393 49.0033 67.26 49.0159 67.3694 49.0406C67.4855 49.0637 67.5882 49.0934 67.6792 49.1341C67.7693 49.1659 67.8511 49.2091 67.9177 49.251C67.9856 49.2942 68.0359 49.334 68.0674 49.3642C68.0908 49.391 68.1034 49.4145 68.1013 49.4392C68.0963 49.4694 68.0766 49.5113 68.0347 49.5574L67.823 49.7897C67.7953 49.8144 67.766 49.8303 67.7308 49.8224C67.7074 49.8224 67.6846 49.8186 67.6605 49.8146L67.648 49.8125C67.6411 49.8114 67.634 49.8103 67.6268 49.8094C67.5673 49.7863 67.475 49.7475 67.369 49.7029L67.351 49.6954C67.2353 49.6451 67.0936 49.6249 66.928 49.6249C66.7436 49.6249 66.5822 49.6601 66.4426 49.7406C66.3051 49.8203 66.1848 49.9251 66.0842 50.0466C65.9862 50.1745 65.9065 50.3237 65.8415 50.4897C65.7761 50.659 65.7229 50.833 65.6915 51.0153C65.6517 51.1989 65.6332 51.3741 65.6261 51.5485C65.6156 51.712 65.6412 51.8591 65.6869 51.9853C65.7372 52.1152 65.8097 52.2146 65.9195 52.2905C66.0222 52.3617 66.1718 52.4041 66.3458 52.4041C66.4934 52.4041 66.6275 52.3781 66.7574 52.3395C66.8823 52.2976 67.0073 52.2565 67.1339 52.2205C67.1758 52.1982 67.2202 52.1957 67.2495 52.1957C67.2902 52.1957 67.3103 52.2075 67.3263 52.233L67.4281 52.4669C67.4646 52.5394 67.4478 52.6023 67.3895 52.6572C67.3007 52.7344 67.1523 52.8199 66.9268 52.8983C66.7071 52.9813 66.4372 53.0232 66.1174 53.0232C65.7761 53.0232 65.5033 52.9637 65.3012 52.8551C65.1025 52.7427 64.9554 52.5944 64.8586 52.412C64.7659 52.2288 64.7194 52.0125 64.7085 51.7669C64.7085 51.5284 64.7345 51.2689 64.7919 51.0078C64.8481 50.7362 64.9307 50.4826 65.0346 50.2399C65.1373 49.9955 65.279 49.7804 65.4576 49.6015C65.6261 49.4145 65.8415 49.2741 66.0968 49.1659C66.3458 49.0595 66.6522 49.0033 67.0098 49.0033Z" fill="black"/>
<path fill-rule="evenodd" clip-rule="evenodd" d="M70.4371 49.0057C70.6601 49.0078 70.8638 49.0384 71.0474 49.1025C71.2331 49.1658 71.384 49.2639 71.4993 49.3972C71.6162 49.5267 71.6958 49.6952 71.7344 49.8935C71.7788 50.096 71.7684 50.3236 71.7155 50.5902C71.6866 50.7302 71.6489 50.853 71.6028 50.9431C71.5579 51.0366 71.4947 51.1116 71.42 51.1661C71.3429 51.2235 71.2486 51.2688 71.1442 51.2927C71.0331 51.3162 70.9011 51.3275 70.7531 51.3275H69.216C69.1938 51.4851 69.1904 51.6247 69.2018 51.7588C69.2114 51.8896 69.2433 51.9994 69.3011 52.0954C69.3539 52.1914 69.4332 52.2719 69.535 52.3209C69.6394 52.3779 69.7769 52.4039 69.9395 52.4039C70.0841 52.4039 70.2338 52.3863 70.3809 52.3499C70.4134 52.3414 70.4464 52.3331 70.4798 52.3246C70.6028 52.2934 70.7311 52.2609 70.8567 52.2203C70.9409 52.196 70.99 52.1864 71.0084 52.196C71.0273 52.2078 71.0474 52.2203 71.0474 52.2333L71.1534 52.4672C71.1945 52.5393 71.1761 52.6051 71.1136 52.6575C71.0709 52.7041 71.0042 52.743 70.9107 52.7845C70.8181 52.8315 70.7121 52.8701 70.5867 52.9053C70.4597 52.938 70.326 52.9635 70.173 52.9878C70.0292 53.0126 69.8762 53.0231 69.7127 53.0231C69.3715 53.0231 69.0936 52.9635 68.8903 52.8596C68.687 52.7523 68.5349 52.6051 68.4414 52.4236C68.3454 52.2425 68.2951 52.0346 68.2892 51.7974C68.2825 51.5593 68.3089 51.3137 68.3571 51.0542C68.4095 50.7654 68.4971 50.5051 68.6107 50.2527C68.7193 50.0058 68.8656 49.7895 69.0349 49.6097C69.2018 49.4169 69.4042 49.2744 69.6323 49.1658C69.8683 49.0593 70.1344 49.0057 70.4371 49.0057ZM70.3578 49.6248C70.2212 49.6248 70.1034 49.6516 69.9923 49.7149C69.88 49.7698 69.7899 49.8482 69.7035 49.9509C69.6239 50.0469 69.5526 50.1576 69.4944 50.2934C69.4332 50.4221 69.3833 50.5621 69.3455 50.7059L70.497 50.7105C70.6148 50.7105 70.6907 50.7 70.7364 50.666C70.7854 50.6405 70.8198 50.5726 70.8378 50.4594C70.8604 50.3496 70.8684 50.2443 70.8604 50.1437C70.8525 50.0469 70.8198 49.9555 70.7783 49.8809C70.7364 49.8025 70.6819 49.743 70.6148 49.6952C70.5368 49.6495 70.4547 49.6248 70.3578 49.6248Z" fill="black"/>
<path d="M56.2854 47.5271C56.4489 47.5271 56.6136 47.5447 56.7712 47.5702C56.9364 47.595 57.0894 47.6264 57.2214 47.6708C57.3581 47.7106 57.4725 47.7454 57.5635 47.7878C57.6628 47.8272 57.7215 47.8636 57.7483 47.893C57.7697 47.9093 57.7823 47.9316 57.7777 47.9584C57.7743 47.9819 57.7601 48.0263 57.7215 48.0858L57.5346 48.3931C57.5207 48.4211 57.4914 48.4375 57.4516 48.4295C57.4164 48.4237 57.3757 48.4165 57.3417 48.4048L57.2832 48.3892L57.2821 48.3889C57.2456 48.3792 57.2008 48.3673 57.1464 48.3524C57.0621 48.3335 56.9641 48.3159 56.8547 48.2996C56.7469 48.282 56.6333 48.2635 56.5193 48.2484C56.4011 48.2342 56.29 48.2275 56.1873 48.2275C55.9899 48.2275 55.8168 48.2531 55.6847 48.3021C55.5456 48.3524 55.4311 48.4165 55.341 48.4924C55.2522 48.5708 55.1796 48.6475 55.1344 48.7368C55.0899 48.8223 55.0572 48.9099 55.0417 48.9904C55.0078 49.1237 55.0233 49.2452 55.0899 49.358C55.1495 49.4741 55.3037 49.5852 55.5338 49.6787L56.1999 49.9486C56.3948 50.027 56.5705 50.1226 56.7012 50.2395C56.8404 50.354 56.9465 50.4826 57.0299 50.6231C57.1053 50.7631 57.1514 50.9077 57.172 51.067C57.1959 51.2237 57.1946 51.3822 57.1569 51.5482C57.115 51.7754 57.0274 51.9749 56.8966 52.1514C56.7587 52.3312 56.5973 52.4859 56.3999 52.6175C56.2045 52.7428 55.979 52.8397 55.7254 52.9051C55.4731 52.9813 55.2044 53.0128 54.9181 53.0128C54.7579 53.0128 54.6024 52.9977 54.4411 52.973C54.2788 52.9482 54.1338 52.9168 53.9946 52.8854C53.8546 52.8476 53.7331 52.8024 53.635 52.765C53.5331 52.7244 53.4644 52.6795 53.4233 52.6515C53.4002 52.6225 53.3906 52.5965 53.3919 52.5718C53.4002 52.55 53.4212 52.5089 53.4514 52.4565L53.6358 52.148C53.6522 52.1187 53.6853 52.1057 53.7226 52.1128C53.7645 52.1149 53.7997 52.1187 53.8358 52.135C53.8459 52.1378 53.8569 52.141 53.8689 52.1444C53.9132 52.1572 53.9703 52.1737 54.0449 52.1866C54.1363 52.2075 54.2424 52.2285 54.3585 52.2402C54.4683 52.2625 54.5873 52.2763 54.7064 52.2859C54.8317 52.2998 54.9436 52.3081 55.0572 52.3081C55.3834 52.3081 55.6592 52.2461 55.8788 52.1266C56.1064 51.9996 56.2351 51.8299 56.2749 51.6245C56.3072 51.4493 56.2724 51.2925 56.1626 51.1617C56.0494 51.0284 55.9056 50.9232 55.7363 50.8553L55.0652 50.5728C54.9017 50.5049 54.7559 50.4219 54.6247 50.3271C54.4939 50.2358 54.3853 50.1251 54.3044 50.006C54.2206 49.8811 54.1678 49.7432 54.1363 49.5932C54.1036 49.4393 54.1141 49.2675 54.1527 49.0755C54.2042 48.8336 54.2939 48.6211 54.4247 48.4295C54.5593 48.2342 54.7253 48.0732 54.9181 47.9395C55.1134 47.8079 55.3247 47.7048 55.5573 47.636C55.7933 47.5644 56.0331 47.5271 56.2854 47.5271Z" fill="black"/>
<path fill-rule="evenodd" clip-rule="evenodd" d="M89.0291 47.6474C89.1222 47.6474 89.1658 47.6906 89.1444 47.7878L88.475 51.0155H88.9457C89.045 51.0155 89.0874 51.067 89.0606 51.1664L88.9868 51.5285C88.9776 51.6291 88.9168 51.6761 88.8128 51.6761H88.3429L88.109 52.7965C88.0801 52.8984 88.0285 52.9458 87.9317 52.9458H87.2879C87.1822 52.9458 87.1416 52.8959 87.1613 52.7965L87.3977 51.6761H85.2389C85.1421 51.6761 85.1015 51.6241 85.1128 51.5285L85.13 51.4573C85.148 51.4024 85.1618 51.3592 85.1769 51.3135C85.1945 51.2691 85.2238 51.2305 85.2695 51.1898L88.2683 47.7618C88.3484 47.6826 88.4364 47.6474 88.5311 47.6474H89.0291ZM87.9317 49.0931H87.9141L86.3024 51.0155H87.5331L87.9317 49.0931Z" fill="black"/>
<path d="M76.2277 47.678L75.1667 52.7848C75.147 52.8854 75.0883 52.9382 74.9953 52.9382H74.3581C74.2529 52.9382 74.211 52.8854 74.2328 52.7848L75.0745 48.7217L74.0543 49.1409C73.9524 49.1786 73.9151 49.1455 73.9373 49.052L74.0262 48.6396C74.0421 48.5356 74.1054 48.4631 74.2039 48.4233L76.1074 47.595C76.208 47.5531 76.2453 47.5774 76.2277 47.678Z" fill="black"/>
<path d="M59.3194 49.0932C59.4187 49.0932 59.4602 49.1435 59.4392 49.2424L58.9111 51.7973C58.8725 51.9809 58.8671 52.1108 58.8947 52.1863C58.9228 52.2718 58.958 52.3053 59.0117 52.3053H59.028C59.124 52.3053 59.1634 52.3535 59.1462 52.4521L59.0809 52.7731C59.0599 52.8779 59.0012 52.9274 58.9044 52.9274H58.8574C58.1377 52.9274 57.8502 52.5627 58.0032 51.8476L58.541 49.2424C58.5607 49.141 58.624 49.0932 58.7204 49.0932H59.3194Z" fill="black"/>
<path d="M62.7995 49.0077C62.9944 49.0077 63.1801 49.0383 63.3415 49.1024C63.5121 49.1657 63.6508 49.2592 63.7564 49.3841C63.8638 49.5044 63.9388 49.6578 63.9832 49.8376C64.0239 50.0162 64.0251 50.2207 63.9803 50.4546L63.6978 51.8031C63.6592 51.983 63.6579 52.1154 63.6848 52.1913C63.7141 52.2739 63.7564 52.3082 63.803 52.3082H63.8122C63.9199 52.3082 63.9526 52.3594 63.9329 52.4566L63.8638 52.7811C63.8474 52.8829 63.7866 52.9274 63.6978 52.9274H63.6508C62.9277 52.9274 62.6427 52.5719 62.7898 51.8501L63.0283 50.7024C63.0552 50.5624 63.069 50.4219 63.0753 50.297C63.0782 50.1625 63.069 50.0468 63.0363 49.9533C63.0049 49.8527 62.95 49.7743 62.8691 49.7148C62.7944 49.6578 62.6951 49.6272 62.5689 49.6272C62.0479 49.6272 61.7054 50.0082 61.544 50.7808L61.1278 52.7811C61.1094 52.8783 61.0519 52.9274 60.9564 52.9274H60.3565C60.253 52.9274 60.2106 52.8783 60.232 52.7731L60.7786 50.1436C60.8101 49.9952 60.8101 49.8808 60.782 49.8121C60.748 49.7475 60.7099 49.7148 60.6558 49.7148H60.6453C60.5481 49.7148 60.5028 49.6645 60.5255 49.5664L60.5942 49.2428C60.6126 49.1435 60.6709 49.0932 60.7786 49.0932H60.8205C60.9715 49.0932 61.1022 49.1095 61.2028 49.1389C61.308 49.1657 61.3923 49.2017 61.4481 49.2508C61.5113 49.3095 61.5512 49.3665 61.5755 49.4415C61.6002 49.522 61.6094 49.6096 61.6094 49.7022H61.6245C61.7989 49.4625 61.9741 49.2944 62.146 49.1787C62.3258 49.0638 62.5387 49.0077 62.7995 49.0077Z" fill="black"/>
<path d="M59.6568 47.4723C59.7561 47.4723 59.796 47.5251 59.7712 47.624L59.6476 48.2121C59.622 48.3064 59.5658 48.3521 59.4694 48.3521H58.875C58.7677 48.3521 58.7292 48.3064 58.7455 48.2121L58.875 47.6181C58.8947 47.52 58.9555 47.4723 59.0599 47.4723H59.6568Z" fill="black"/>
<path d="M20.591 35.6692C20.6505 35.3926 20.5432 35.2547 20.2615 35.2547H18.594C18.3119 35.2547 18.1417 35.3926 18.0893 35.6667L16.4411 43.2416C16.0228 45.2415 16.8201 46.2429 18.8371 46.2488H18.9608C19.2261 46.2488 19.3875 46.11 19.447 45.8329L19.6281 44.9317C19.6889 44.6597 19.5778 44.5192 19.3007 44.5192H19.2597C19.1197 44.5192 19.009 44.4128 18.9373 44.1885C18.8535 43.9701 18.8673 43.608 18.9725 43.0982L20.591 35.6692Z" fill="black"/>
<path fill-rule="evenodd" clip-rule="evenodd" d="M64.7255 35.3069C64.2304 35.0521 63.6218 34.9297 62.9058 34.9297C62.306 34.9297 61.7183 35.0219 61.1432 35.203C60.5731 35.3924 60.0378 35.7043 59.5386 36.1402C59.0423 36.5678 58.5971 37.15 58.2102 37.8672C57.8242 38.5874 57.5161 39.479 57.2948 40.5458C57.0692 41.6365 57.0076 42.5398 57.0986 43.2675C57.1946 43.9922 57.3979 44.5765 57.7169 45.0167C58.0292 45.4576 58.4357 45.7779 58.9417 45.9636C59.4393 46.1505 59.9909 46.2428 60.5916 46.2486C61.3922 46.2486 62.1387 46.0872 62.8237 45.7804C63.5086 45.4702 64.1374 44.9693 64.7137 44.2798H64.7569C64.7405 44.81 64.8944 45.2237 65.2159 45.523C65.5412 45.8278 66.133 45.9787 67.0053 45.9812H67.1349C67.3964 45.9812 67.5662 45.8408 67.6186 45.5641L67.8043 44.6524C67.8676 44.3825 67.7565 44.2387 67.4757 44.2387H67.4342C67.2912 44.2387 67.1806 44.1439 67.095 43.962C67.0053 43.7713 67.0112 43.4594 67.1127 43.0151L68.6083 35.6213C68.6703 35.3467 68.5567 35.203 68.278 35.203H66.8041C66.6499 35.203 66.5401 35.2331 66.4696 35.299C66.4017 35.3597 66.3435 35.465 66.289 35.6167L65.9465 36.4852H65.9033C65.6133 35.9487 65.2243 35.5513 64.7255 35.3069ZM61.9556 36.8344C62.2817 36.7246 62.6334 36.6663 63.0106 36.6663C63.9445 36.6663 64.6026 36.971 64.9728 37.573C65.3366 38.1745 65.3831 39.1658 65.1002 40.5458C64.8139 41.9588 64.3532 42.9732 63.732 43.5844C63.0982 44.1993 62.3169 44.5065 61.3784 44.5007C60.9961 44.5007 60.675 44.4479 60.3987 44.3405C60.1254 44.2249 59.9154 44.0224 59.7759 43.726C59.6358 43.4288 59.5633 43.0235 59.5667 42.5125C59.5692 42.0007 59.6568 41.3464 59.8207 40.5458C59.9829 39.7556 60.1661 39.113 60.3824 38.615C60.5949 38.1187 60.8313 37.7285 61.0895 37.4363C61.3436 37.1437 61.6315 36.943 61.9556 36.8344Z" fill="black"/>
<path d="M36.6782 35.239C36.0637 35.0194 35.3029 34.9087 34.4067 34.9087C33.7599 34.9087 33.1802 34.9913 32.6545 35.1564C32.1322 35.3199 31.6753 35.5538 31.2838 35.8607C30.8948 36.162 30.5733 36.5179 30.3243 36.9258C30.072 37.3357 29.9014 37.7692 29.7962 38.2403C29.6604 38.9319 29.7036 39.5444 29.9458 40.0855C30.1843 40.6267 30.6681 41.0089 31.3949 41.2483L33.1068 41.7869C33.6714 41.9835 34.0546 42.1646 34.2637 42.3411C34.4683 42.5129 34.5408 42.7594 34.4767 43.0734C34.4402 43.2398 34.3748 43.4087 34.2893 43.5667C34.1996 43.7411 34.0709 43.8845 33.8945 44.0178C33.7171 44.1511 33.4774 44.2575 33.1852 44.3405C32.8977 44.421 32.533 44.4634 32.1008 44.4634C31.5785 44.4608 31.1132 44.4131 30.6995 44.3041C30.2824 44.1989 29.8838 44.0811 29.5007 43.9394C29.4156 43.9172 29.3275 43.8962 29.2236 43.8891C29.1138 43.8786 29.0236 43.9172 28.9524 43.9851L28.3614 44.644C28.2092 44.8251 28.187 45.0041 28.2851 45.1852C28.3601 45.3243 28.5039 45.4551 28.713 45.5792C28.9222 45.7045 29.185 45.8081 29.512 45.8982C29.8381 45.9892 30.1957 46.0642 30.593 46.1178C30.9883 46.1753 31.4159 46.2029 31.8623 46.2029C32.4349 46.2029 33.0008 46.1354 33.5566 45.9988C34.1107 45.863 34.6154 45.6492 35.0795 45.3675C35.541 45.0846 35.9329 44.7333 36.2632 44.3171C36.5881 43.9067 36.8127 43.4158 36.9318 42.8491C37.0965 42.0489 37.058 41.3896 36.8194 40.8803C36.573 40.3672 36.0272 39.9816 35.1721 39.7175L32.8616 39.0124C32.587 38.9273 32.4055 38.7965 32.3054 38.6155C32.2165 38.439 32.1905 38.2294 32.2349 37.9984C32.3251 37.5952 32.5355 37.2703 32.8662 37.0192C33.1852 36.7724 33.6681 36.6487 34.2952 36.6487C34.7462 36.6487 35.1578 36.7011 35.5271 36.8051C35.8964 36.9077 36.2632 37.026 36.6195 37.1672C36.7084 37.1959 36.8041 37.2168 36.8987 37.2373L36.9213 37.2423C37.0227 37.2632 37.107 37.2225 37.1703 37.1266L37.7567 36.4626C37.8934 36.3108 37.9542 36.1952 37.9395 36.1147C37.9168 36.0271 37.8997 35.9663 37.8749 35.9239C37.6964 35.6867 37.2927 35.4624 36.6782 35.239Z" fill="black"/>
<path d="M29.2071 35.0454C29.1597 35.0194 29.0658 35.0064 28.9279 35.0064C28.1964 35.0064 27.5945 35.1154 27.12 35.3246C26.6409 35.5409 26.1781 35.8879 25.7271 36.3742H25.6839C25.6793 35.986 25.5075 35.6867 25.1755 35.4834C24.8368 35.2722 24.2302 35.1682 23.3604 35.1657H23.2368C22.9538 35.1657 22.787 35.307 22.725 35.5782L22.5426 36.4953C22.4806 36.7724 22.5942 36.9078 22.8721 36.9103H22.9153C23.0557 36.9103 23.1714 37.0042 23.259 37.1895C23.3382 37.3743 23.3361 37.6908 23.2368 38.1339L21.6217 45.6015C21.5643 45.8806 21.6804 46.0164 21.9759 46.0164L23.6564 46.0198C23.923 46.0198 24.0852 45.8857 24.146 45.6015L25.5494 39.1915C25.8285 37.8497 26.6409 37.1828 27.973 37.1828C28.069 37.1828 28.1646 37.1945 28.2606 37.2155C28.3574 37.2356 28.448 37.2423 28.5318 37.2356C28.616 37.2306 28.686 37.2004 28.7481 37.1522C28.8089 37.1044 28.8554 37.0109 28.8906 36.873L29.2234 35.32C29.2632 35.1657 29.254 35.0781 29.2071 35.0454Z" fill="black"/>
<path d="M84.9223 39.9395L86.7473 31.0765L83.9477 32.4941L81.2436 45.5791C81.1803 45.8528 81.2972 45.9894 81.5957 45.9894H83.2535C83.5201 45.9894 83.6844 45.8562 83.7444 45.5791L84.6267 41.2859L87.1862 45.6642C87.3007 45.8855 87.5073 45.9962 87.8007 45.9962H89.8622C90.1577 45.9962 90.2349 45.8855 90.0911 45.6642L86.7444 40.4199L91.9309 35.5512C92.1983 35.3315 92.1715 35.2217 91.8487 35.2217L90.1037 35.2158C89.8237 35.2158 89.5701 35.3248 89.3433 35.5512L84.9223 39.9395Z" fill="black"/>
<path d="M78.3138 35.2312C77.8472 35.0476 77.3354 34.9588 76.775 34.9588C76.0456 34.9588 75.4332 35.1151 74.9411 35.4379C74.454 35.7544 73.9598 36.2406 73.4736 36.9058H73.4254C73.4312 36.6413 73.3998 36.3999 73.3378 36.1928C73.2749 35.979 73.1554 35.7954 72.9848 35.6517C72.8083 35.5058 72.577 35.3968 72.2898 35.3163C71.9985 35.2463 71.6384 35.2031 71.2008 35.2031H71.0763C70.79 35.2031 70.6265 35.3419 70.5658 35.6164L70.3776 36.5281C70.3239 36.8073 70.4337 36.9431 70.7121 36.9431H70.754C70.8965 36.9431 71.0063 37.0366 71.0927 37.2223C71.1828 37.4118 71.1782 37.7282 71.0763 38.1667L69.556 45.5664C69.499 45.8409 69.6155 45.9814 69.9114 45.9814L71.5906 45.9835C71.8593 45.9835 72.0232 45.8435 72.0828 45.5685L73.2581 39.9314C73.6907 37.7785 74.6431 36.6992 76.1181 36.7013C76.4862 36.7013 76.775 36.7843 76.9825 36.9511C77.2026 37.1171 77.3509 37.3355 77.4373 37.6151C77.5262 37.8871 77.5681 38.2124 77.5555 38.5766C77.5459 38.9451 77.5027 39.3245 77.4209 39.7252L76.7503 42.9604C76.3311 44.9774 77.1334 45.9872 79.1702 45.9872H79.2921C79.5621 45.9872 79.7243 45.8527 79.7851 45.579L79.9666 44.6677C80.0282 44.3885 79.9113 44.2472 79.6367 44.2472H79.596C79.451 44.2472 79.3445 44.1383 79.2661 43.9173C79.1928 43.6977 79.2045 43.3305 79.3039 42.8166L80.0948 39.0231C80.2177 38.378 80.2235 37.7995 80.1087 37.2936C79.9884 36.7897 79.7784 36.3613 79.472 36.0188C79.1702 35.6718 78.7778 35.4073 78.3138 35.2312Z" fill="black"/>
<path fill-rule="evenodd" clip-rule="evenodd" d="M51.5314 31.0474L48.4182 31.039C48.139 31.039 47.9697 31.1807 47.9102 31.4553L45.0024 45.5487C44.9382 45.8237 45.0527 45.9637 45.3515 45.9637L50.0895 45.9658C50.7694 45.9658 51.4321 45.8652 52.0608 45.6468C52.6929 45.4376 53.263 45.1325 53.7694 44.7448C54.2812 44.3604 54.7087 43.9114 55.0525 43.4009C55.4054 42.8899 55.6393 42.3282 55.7617 41.7263C55.9596 40.7949 55.8636 40.0072 55.4675 39.347C55.078 38.6923 54.3877 38.2882 53.3963 38.134L53.4039 38.0916C54.1118 37.7894 54.689 37.3811 55.133 36.8731C55.5794 36.3613 55.8833 35.7325 56.0413 34.9868C56.3029 33.7129 56.0296 32.7384 55.2159 32.0618C54.4048 31.384 53.1733 31.0474 51.5314 31.0474ZM48.9535 39.2314H50.7614C51.3105 39.2314 51.7523 39.3047 52.0864 39.451C52.4217 39.5994 52.6766 39.791 52.8485 40.0295C53.0237 40.2713 53.1264 40.5459 53.1544 40.8381C53.1851 41.1348 53.1721 41.44 53.1092 41.7435C53.0471 42.0595 52.9419 42.3634 52.8003 42.661C52.651 42.9603 52.4511 43.2223 52.1941 43.4512C51.9321 43.6801 51.6006 43.867 51.1986 44.0074C50.7941 44.1537 50.307 44.2246 49.7315 44.2246H47.924L48.9535 39.2314ZM50.2881 32.7794H51.1504C52.0864 32.7861 52.734 32.9907 53.0786 33.3985C53.4257 33.8064 53.5271 34.3476 53.3871 35.0279C53.3087 35.4148 53.1721 35.7547 52.9826 36.0595C52.7923 36.3646 52.576 36.6262 52.3262 36.8345C52.0713 37.0517 51.7967 37.2151 51.4941 37.3266C51.1915 37.4365 50.8897 37.4901 50.5799 37.4901L49.3177 37.4868L50.2881 32.7794Z" fill="black"/>
<path d="M43.572 35.1831L44.2343 31.8876L41.4065 33.3203L41.0452 35.1831H39.9528C39.6711 35.1831 39.4955 35.3198 39.441 35.5931L39.2658 36.3996C39.2038 36.6834 39.3148 36.8204 39.5948 36.8204H40.6889L39.475 42.7266C39.2528 43.8215 39.3312 44.6292 39.7189 45.1607C40.1058 45.6973 40.7765 45.9635 41.7289 45.9635H42.7164C42.9818 45.9635 43.1465 45.8235 43.2027 45.5464L43.3896 44.6351C43.4517 44.3601 43.3381 44.2247 43.0555 44.2247L42.706 44.2214C42.4641 44.2214 42.2633 44.1115 42.0935 43.8894C41.9255 43.6672 41.8911 43.3051 41.9955 42.792L43.2165 36.825H44.5813C44.8609 36.825 45.0361 36.6859 45.0923 36.4067L45.2688 35.5994C45.3342 35.3223 45.2185 35.1857 44.9381 35.1831H43.572Z" fill="black"/>
<path d="M16.9555 31.0195L9.5303 31.0111C9.25071 31.0111 9.07801 31.1503 9.02058 31.4299L6.10606 45.5183C6.04528 45.7975 6.16684 45.9354 6.46027 45.9354L8.29829 45.9355C8.54699 45.9308 8.6991 45.7877 8.7565 45.5229L10.0337 39.3246L14.181 39.3292C14.4568 39.3292 14.6312 39.1913 14.6895 38.9147L14.9033 37.8789C14.9594 37.606 14.8509 37.4622 14.5725 37.4622H10.424L11.3671 32.8823H16.5666C16.8445 32.8823 17.0159 32.7444 17.0746 32.4674L17.2917 31.4341C17.3458 31.1524 17.2381 31.0195 16.9555 31.0195Z" fill="black"/>
<path d="M21.4477 31.558C21.5094 31.2834 21.3962 31.148 21.1204 31.148H19.4529C19.1733 31.148 19.0065 31.2834 18.947 31.5533L18.5894 33.2024C18.532 33.4769 18.6523 33.6123 18.9407 33.6123L20.6098 33.6148C20.8739 33.6148 21.0328 33.4769 21.0948 33.2045L21.4477 31.558Z" fill="black"/>
</g>
</g>
</svg>
