<svg width="128" height="80" viewBox="0 0 128 80" fill="none" xmlns="http://www.w3.org/2000/svg">
<g id="logo / payment method / dogecoin / brand">
<g id="logo">
<path d="M54.151 35.2002C53.2033 34.6932 52.1232 34.4361 50.9257 34.4361C49.7281 34.4361 48.6481 34.6932 47.6856 35.2002C46.7578 35.6874 45.9786 36.4159 45.43 37.3088C44.8863 38.2052 44.6218 39.219 44.6218 40.3432C44.6218 41.4673 44.8937 42.4811 45.43 43.3775C45.9766 44.2721 46.7563 45.001 47.6856 45.4861C48.6481 45.9931 49.7281 46.2502 50.9257 46.2502C52.1232 46.2502 53.2033 45.9931 54.151 45.4861C55.0941 45.0022 55.8829 44.2641 56.4282 43.3552C56.9735 42.4463 57.2536 41.4029 57.2368 40.3432C57.2528 39.2835 56.9723 38.2405 56.4271 37.3318C55.8818 36.4231 55.0935 35.6848 54.151 35.2002ZM53.5853 42.0403C53.3286 42.5183 52.9438 42.9152 52.4739 43.1865C52.0041 43.4577 51.4679 43.5926 50.9256 43.5759C50.3844 43.5868 49.8506 43.4495 49.3818 43.1788C48.913 42.9082 48.5271 42.5145 48.266 42.0403C47.9941 41.5407 47.8619 40.975 47.8619 40.3358C47.8619 39.6966 47.9941 39.1382 48.266 38.6533C48.5203 38.1718 48.9041 37.7709 49.374 37.4957C49.8439 37.2205 50.3812 37.082 50.9256 37.0957C51.47 37.082 52.0075 37.2205 52.4774 37.4957C52.9473 37.7709 53.3309 38.1718 53.5853 38.6533C53.8571 39.1382 53.9893 39.7039 53.9893 40.3358C53.9893 40.9676 53.8571 41.5481 53.5853 42.0403ZM64.8117 37.0957C65.8844 37.0957 66.8028 37.5145 67.5669 38.3594L69.6094 36.508C69.051 35.8394 68.3456 35.3251 67.5007 34.9651C66.6558 34.6051 65.708 34.4288 64.6501 34.4288C63.5164 34.4112 62.3959 34.6737 61.3879 35.1929C60.4423 35.6716 59.6522 36.4092 59.1098 37.3198C58.5673 38.2303 58.2949 39.2763 58.3242 40.3358C58.302 41.3941 58.5757 42.4375 59.1144 43.3488C59.653 44.26 60.4354 45.0027 61.3732 45.4935C62.3656 46.0033 63.4684 46.2607 64.5839 46.2429C65.4288 46.2429 66.2664 46.118 67.1113 45.8682C67.9563 45.6184 68.6983 45.2657 69.3522 44.7955V40.0934H66.5162V43.2085C65.9727 43.4589 65.3807 43.5868 64.7823 43.5832C64.1578 43.5832 63.5994 43.451 63.1145 43.1791C62.6296 42.8999 62.2476 42.5179 61.9831 42.0256C61.7078 41.5082 61.5687 40.9292 61.579 40.3432C61.579 39.3586 61.8728 38.5725 62.468 37.9921C62.7767 37.6905 63.1439 37.4554 63.547 37.3012C63.9501 37.1471 64.3805 37.0771 64.8117 37.0957ZM40.4854 35.3618C39.4504 34.882 38.3199 34.6433 37.1792 34.6639H31.8158V46.0151H37.1792C38.4209 46.0151 39.523 45.78 40.4854 45.3171C41.4068 44.8874 42.1848 44.2012 42.7263 43.3408C43.2553 42.4885 43.5198 41.4893 43.5198 40.3432C43.5198 39.197 43.2553 38.1978 42.7263 37.3455C42.1852 36.4829 41.4073 35.7943 40.4854 35.3618ZM39.3834 42.6281C38.7446 43.2023 37.9048 43.5007 37.047 43.4583H35.0192V37.2353H37.047C38.0168 37.2353 38.7956 37.5145 39.3834 38.0656C39.9785 38.6166 40.2724 39.3807 40.2724 40.3505C40.2724 41.3203 39.9711 42.0771 39.3834 42.6281ZM107.711 34.6639H110.922V46.0151H107.711V34.6639ZM102.951 35.2002C101.956 34.6812 100.847 34.4185 99.7251 34.4361C98.5275 34.4361 97.4475 34.6932 96.4851 35.2002C95.5573 35.6874 94.778 36.4159 94.2295 37.3088C93.6858 38.2052 93.4213 39.219 93.4213 40.3432C93.4213 41.4673 93.6932 42.4811 94.2295 43.3775C94.776 44.2721 95.5558 45.001 96.4851 45.4861C97.4858 46.0035 98.5987 46.2659 99.7251 46.2502C100.923 46.2502 102.003 45.9931 102.951 45.4861C103.894 45.0022 104.682 44.2641 105.228 43.3552C105.773 42.4463 106.053 41.4029 106.036 40.3432C106.052 39.2835 105.772 38.2405 105.227 37.3318C104.681 36.4231 103.893 35.6848 102.951 35.2002ZM102.377 42.0403C102.121 42.5183 101.736 42.9152 101.266 43.1865C100.796 43.4577 100.26 43.5926 99.7177 43.5759C99.1765 43.5868 98.6427 43.4495 98.1739 43.1788C97.7051 42.9082 97.3192 42.5145 97.0581 42.0403C96.7862 41.5407 96.654 40.975 96.654 40.3358C96.654 39.6966 96.7862 39.1382 97.0581 38.6533C97.3124 38.1718 97.6962 37.7709 98.1661 37.4957C98.636 37.2205 99.1733 37.082 99.7177 37.0957C100.262 37.082 100.8 37.2205 101.269 37.4957C101.739 37.7709 102.123 38.1718 102.377 38.6533C102.649 39.1382 102.781 39.7039 102.781 40.3358C102.781 40.9676 102.649 41.5481 102.377 42.0403ZM74.5686 41.4599H79.6087V39.0574H74.5686V37.1472H80.292V34.6639H71.3873V46.0151H80.4977V43.5318H74.5686V41.4599ZM120.855 34.6639V40.7105L115.845 34.6639H113.207V46.0151H116.352V39.9685L121.355 46.0151H124V34.6639H120.855ZM86.4342 37.4998C86.9408 37.2238 87.5105 37.0846 88.0873 37.0957C89.138 37.0957 90.0269 37.5366 90.7617 38.4256L92.8042 36.5741C92.2535 35.8839 91.5421 35.339 90.7323 34.9871C89.8456 34.609 88.8895 34.4213 87.9257 34.4361C86.8086 34.4204 85.7052 34.683 84.715 35.2002C83.7953 35.6787 83.0271 36.4037 82.4962 37.2941C81.9525 38.1905 81.688 39.2044 81.688 40.3432C81.688 41.4819 81.9598 42.4958 82.4962 43.3922C83.0309 44.2832 83.7979 45.0121 84.715 45.5008C85.7074 46.0106 86.8101 46.268 87.9257 46.2502C88.8894 46.2644 89.8454 46.0767 90.7323 45.6992C91.5421 45.3473 92.2535 44.8024 92.8042 44.1122L90.7617 42.2607C90.4491 42.6741 90.0449 43.0094 89.5809 43.2402C89.1168 43.4709 88.6056 43.5908 88.0873 43.5906C87.4702 43.5906 86.9191 43.4583 86.4342 43.1865C85.9639 42.9206 85.5771 42.5288 85.3175 42.055C85.0603 41.5554 84.9281 40.9897 84.9281 40.3505C84.9281 39.7113 85.0603 39.1529 85.3175 38.668C85.582 38.1537 85.9567 37.7717 86.4342 37.4998Z" fill="#1E4151"/>
<path d="M15.8343 36.0592H14.183V39.3147H16.7809V40.6777H14.183V43.9329H15.9151C16.3602 43.9329 19.569 43.9832 19.564 40.1455C19.5591 36.3078 16.4519 36.0592 15.8343 36.0592Z" fill="#C2A633"/>
<path d="M15.557 28.4431C9.17415 28.4431 3.99997 33.6173 3.99997 40.0001C3.99997 46.3829 9.17415 51.557 15.557 51.557C21.9398 51.557 27.114 46.3829 27.114 40.0001C27.114 33.6173 21.9398 28.4431 15.557 28.4431ZM16.011 46.242H11.8257V40.6778H10.3503V39.3147H11.8256V33.7502H15.4177C16.2675 33.7502 21.8961 33.5737 21.8961 40.1005C21.8961 46.7352 16.011 46.242 16.011 46.242Z" fill="#C2A633"/>
</g>
</g>
</svg>
