<svg width="128" height="80" viewBox="0 0 128 80" fill="none" xmlns="http://www.w3.org/2000/svg">
<g id="logo / payment method / ethereum / black">
<g id="logo">
<path d="M6.00016 39.4975L15.2223 44.9539L24.4554 39.4976L15.2224 24.186L6.00016 39.4975Z" fill="black"/>
<path d="M6 41.2532L15.2223 54.254L24.4555 41.2532L15.2223 46.6969L6 41.2532Z" fill="black"/>
<path d="M54.25 30.5C54.25 30.0858 53.9142 29.75 53.5 29.75C53.0858 29.75 52.75 30.0858 52.75 30.5V45.5C52.75 45.9142 53.0858 46.25 53.5 46.25C53.9142 46.25 54.25 45.9142 54.25 45.5V41C54.25 39.4812 55.4812 38.25 57 38.25C58.5188 38.25 59.75 39.4812 59.75 41V45.5C59.75 45.9142 60.0858 46.25 60.5 46.25C60.9142 46.25 61.25 45.9142 61.25 45.5V41C61.25 38.6528 59.3472 36.75 57 36.75C55.9512 36.75 54.9912 37.1299 54.25 37.7595V30.5Z" fill="black"/>
<path d="M108.25 37.7595C108.991 37.1299 109.951 36.75 111 36.75C112.452 36.75 113.733 37.4778 114.5 38.5884C115.267 37.4778 116.548 36.75 118 36.75C120.347 36.75 122.25 38.6528 122.25 41V45.5C122.25 45.9142 121.914 46.25 121.5 46.25C121.086 46.25 120.75 45.9142 120.75 45.5V41C120.75 39.4812 119.519 38.25 118 38.25C116.481 38.25 115.25 39.4812 115.25 41V45.5C115.25 45.9142 114.914 46.25 114.5 46.25C114.086 46.25 113.75 45.9142 113.75 45.5V41C113.75 39.4812 112.519 38.25 111 38.25C109.481 38.25 108.25 39.4812 108.25 41V45.5C108.25 45.9142 107.914 46.25 107.5 46.25C107.086 46.25 106.75 45.9142 106.75 45.5V37.5C106.75 37.0858 107.086 36.75 107.5 36.75C107.914 36.75 108.25 37.0858 108.25 37.5V37.7595Z" fill="black"/>
<path d="M96.7501 37.5C96.7501 37.0858 96.4143 36.75 96.0001 36.75C95.5859 36.75 95.2501 37.0858 95.2501 37.5V42C95.2501 44.3472 97.1529 46.25 99.5001 46.25C100.549 46.25 101.509 45.8701 102.25 45.2405V45.5C102.25 45.9142 102.586 46.25 103 46.25C103.414 46.25 103.75 45.9142 103.75 45.5V37.5C103.75 37.0858 103.414 36.75 103 36.75C102.586 36.75 102.25 37.0858 102.25 37.5V42C102.25 43.5188 101.019 44.75 99.5001 44.75C97.9813 44.75 96.7501 43.5188 96.7501 42V37.5Z" fill="black"/>
<path d="M76.7501 40.4877V37.5C76.7501 37.0858 77.0859 36.75 77.5001 36.75C77.9143 36.75 78.2501 37.0858 78.2501 37.5V37.7272C78.8879 37.1723 79.7805 36.75 81.0001 36.75C81.4143 36.75 81.7501 37.0858 81.7501 37.5C81.7501 37.9142 81.4143 38.25 81.0001 38.25C79.8039 38.25 79.1423 38.8263 78.7492 39.416C78.5457 39.7213 78.4155 40.0318 78.3366 40.2684C78.2976 40.3856 78.2722 40.4813 78.2571 40.5448L78.2501 40.5748V45.5C78.2501 45.9142 77.9143 46.25 77.5001 46.25C77.0859 46.25 76.7501 45.9142 76.7501 45.5V40.5141L76.75 40.5041L76.7501 40.4877Z" fill="black"/>
<path d="M47.25 34.5C47.25 34.0858 46.9142 33.75 46.5 33.75C46.0858 33.75 45.75 34.0858 45.75 34.5V36.75H44C43.5858 36.75 43.25 37.0858 43.25 37.5C43.25 37.9142 43.5858 38.25 44 38.25H45.75V45.5C45.75 45.9142 46.0858 46.25 46.5 46.25C46.9142 46.25 47.25 45.9142 47.25 45.5V38.25H49C49.4142 38.25 49.75 37.9142 49.75 37.5C49.75 37.0858 49.4142 36.75 49 36.75H47.25V34.5Z" fill="black"/>
<path fill-rule="evenodd" clip-rule="evenodd" d="M33.0306 37.4423C33.9953 36.8552 35.1376 36.6311 36.2527 36.81C37.3677 36.989 38.3825 37.5593 39.1151 38.4188C39.8476 39.2783 40.25 40.3707 40.25 41.5C40.25 41.9142 39.9142 42.25 39.5 42.25H32.3377C32.3762 42.4123 32.4273 42.5722 32.4911 42.7283C32.7831 43.4437 33.3205 44.0316 34.0068 44.3866C34.6931 44.7417 35.4834 44.8405 36.236 44.6656C36.9886 44.4906 37.6543 44.0532 38.1136 43.4318C38.3598 43.0987 38.8294 43.0282 39.1625 43.2745C39.4956 43.5207 39.566 43.9903 39.3198 44.3234C38.6486 45.2315 37.6757 45.8708 36.5757 46.1266C35.4757 46.3823 34.3206 46.2378 33.3176 45.7189C32.3145 45.2001 31.5291 44.3408 31.1023 43.2952C30.6755 42.2497 30.6352 41.0863 30.9885 40.0137C31.3419 38.9411 32.0659 38.0295 33.0306 37.4423ZM32.3377 40.75H38.6623C38.5443 40.2525 38.3097 39.7863 37.9735 39.3918C37.4723 38.8038 36.7779 38.4135 36.015 38.2911C35.2521 38.1686 34.4705 38.322 33.8104 38.7237C33.1503 39.1254 32.655 39.7491 32.4132 40.483C32.3842 40.5712 32.359 40.6603 32.3377 40.75Z" fill="black"/>
<path fill-rule="evenodd" clip-rule="evenodd" d="M67.0306 37.4423C67.9953 36.8552 69.1376 36.6311 70.2527 36.81C71.3677 36.989 72.3825 37.5593 73.1151 38.4188C73.8476 39.2783 74.25 40.3707 74.25 41.5V42.25H66.3377C66.3762 42.4123 66.4273 42.5722 66.4911 42.7283C66.7831 43.4437 67.3205 44.0316 68.0068 44.3866C68.6931 44.7417 69.4834 44.8405 70.236 44.6656C70.9886 44.4906 71.6543 44.0532 72.1136 43.4318C72.3598 43.0987 72.8294 43.0282 73.1625 43.2745C73.4956 43.5207 73.566 43.9903 73.3198 44.3234C72.6486 45.2315 71.6757 45.8708 70.5757 46.1266C69.4757 46.3823 68.3206 46.2378 67.3176 45.7189C66.3145 45.2001 65.5291 44.3408 65.1023 43.2952C64.6755 42.2497 64.6352 41.0863 64.9885 40.0137C65.3419 38.9411 66.0659 38.0295 67.0306 37.4423ZM66.3377 40.75H72.6623C72.5443 40.2525 72.3097 39.7863 71.9735 39.3918C71.4723 38.8038 70.7779 38.4135 70.015 38.2911C69.2521 38.1686 68.4705 38.322 67.8104 38.7237C67.1503 39.1254 66.655 39.7491 66.4132 40.483C66.3842 40.5712 66.359 40.6603 66.3377 40.75Z" fill="black"/>
<path fill-rule="evenodd" clip-rule="evenodd" d="M86.0306 37.4423C86.9953 36.8552 88.1376 36.6311 89.2527 36.81C90.3677 36.989 91.3825 37.5593 92.1151 38.4188C92.8476 39.2783 93.25 40.3707 93.25 41.5V42.25H85.3377C85.3762 42.4123 85.4273 42.5722 85.4911 42.7283C85.7831 43.4437 86.3204 44.0316 87.0068 44.3866C87.6931 44.7417 88.4834 44.8405 89.236 44.6656C89.9886 44.4906 90.6543 44.0532 91.1136 43.4318C91.3598 43.0987 91.8294 43.0282 92.1625 43.2745C92.4956 43.5207 92.566 43.9903 92.3198 44.3234C91.6486 45.2315 90.6757 45.8708 89.5757 46.1266C88.4757 46.3823 87.3206 46.2378 86.3176 45.7189C85.3145 45.2001 84.5291 44.3408 84.1023 43.2952C83.6755 42.2497 83.6352 41.0863 83.9885 40.0137C84.3419 38.9411 85.0659 38.0295 86.0306 37.4423ZM85.3377 40.75H91.6623C91.5443 40.2525 91.3097 39.7863 90.9735 39.3918C90.4723 38.8038 89.7779 38.4135 89.015 38.2911C88.2521 38.1686 87.4705 38.322 86.8104 38.7237C86.1503 39.1254 85.655 39.7491 85.4132 40.483C85.3842 40.5712 85.359 40.6603 85.3377 40.75Z" fill="black"/>
</g>
</g>
</svg>
