<svg width="128" height="80" viewBox="0 0 128 80" fill="none" xmlns="http://www.w3.org/2000/svg">
<g id="logo / payment method / giropay / brand">
<g id="logo">
<path d="M5 23.7366C5 18.715 9.10249 14.6392 14.1507 14.6392H113.849C118.897 14.6392 123 18.715 123 23.7366V56.2635C123 61.2851 118.911 65.3609 113.849 65.3609H14.1507C9.10249 65.3742 5 61.2984 5 56.2768V23.7366Z" fill="#000268"/>
<path d="M8.75611 24.0563V55.9705C8.75611 59.1139 11.3135 61.658 14.4703 61.658H66.6972V18.3687H14.4703C11.3135 18.3687 8.75611 20.9128 8.75611 24.0563ZM80.2034 39.8535C80.2034 41.8914 79.2045 43.2767 77.5395 43.2767C76.0743 43.2767 74.8489 41.8781 74.8489 40.0134C74.8489 38.1086 75.9278 36.6834 77.5395 36.6834C79.2444 36.6967 80.2034 38.1619 80.2034 39.8535ZM74.8356 51.5083V44.582H74.8889C75.728 46.1005 77.393 46.6599 78.9248 46.6599C82.7209 46.6599 84.7455 43.5298 84.7455 39.7603C84.7455 36.6701 82.8141 33.3268 79.2844 33.3268C77.2731 33.3268 75.4217 34.1393 74.5292 35.9242H74.4759V33.6199H70.4134V51.5083H74.8356ZM90.766 42.3177C90.766 41.0923 91.9382 40.6261 93.43 40.6261C94.096 40.6261 94.722 40.666 95.2948 40.6927C95.2948 42.1845 94.2425 43.7029 92.5775 43.7029C91.5519 43.7163 90.766 43.2101 90.766 42.3177ZM99.6637 46.3669C99.4639 45.3679 99.4239 44.3556 99.4239 43.3566V38.6015C99.4239 34.7121 96.6134 33.3135 93.3501 33.3135C91.472 33.3135 89.8203 33.5799 88.2619 34.2192L88.3418 37.2029C89.5673 36.5103 90.9792 36.2439 92.4044 36.2439C93.9894 36.2439 95.2948 36.7101 95.3214 38.4549C94.762 38.3617 93.9761 38.2818 93.2702 38.2818C90.9259 38.2818 86.6902 38.748 86.6902 42.6374C86.6902 45.4079 88.9412 46.6466 91.4587 46.6466C93.2702 46.6466 94.4956 45.9407 95.4946 44.3423H95.5479C95.5479 45.0083 95.6144 45.6609 95.6411 46.3536H99.6637V46.3669ZM101.635 51.5083C102.541 51.7081 103.446 51.8014 104.379 51.8014C108.415 51.8014 109.374 48.6845 110.626 45.4878L115.301 33.6199H110.892L108.268 41.9447H108.228L105.484 33.6199H100.743L105.911 46.6733C105.591 47.8054 104.765 48.4315 103.686 48.4315C103.074 48.4315 102.541 48.3515 101.941 48.1651L101.635 51.5083Z" fill="white"/>
<path d="M19.5185 39.8801C19.5185 38.1352 20.371 36.6967 22.0226 36.6967C24.0073 36.6967 24.8331 38.2817 24.8331 39.707C24.8331 41.665 23.581 42.9836 22.0226 42.9836C20.6906 42.9836 19.5185 41.8648 19.5185 39.8801ZM29.0954 33.6065H25.0995V35.9108H25.0595C24.1272 34.3391 22.6087 33.3135 20.7306 33.3135C16.7613 33.3135 14.9765 36.1506 14.9765 39.9467C14.9765 43.7162 17.1609 46.3669 20.6507 46.3669C22.4222 46.3669 23.8874 45.6742 24.9397 44.1824H24.9929V44.875C24.9929 47.3658 23.621 48.5646 21.0769 48.5646C19.2388 48.5646 18.1066 48.1783 16.7613 47.5124L16.5349 50.9888C17.5605 51.3618 19.3054 51.8013 21.4099 51.8013C26.5514 51.8013 29.0954 50.1097 29.0954 44.875V33.6065ZM36.5412 28.2919H32.1323V31.5286H36.5412V28.2919ZM32.1323 46.3669H36.5412V33.6065H32.1323V46.3669ZM48.8087 33.46C48.3692 33.3934 47.8231 33.3135 47.3169 33.3135C45.4122 33.3135 44.3066 34.3391 43.5474 35.9641H43.4941V33.6198H39.4849V46.3802H43.8937V40.999C43.8937 38.4949 45.0525 37.003 47.1038 37.003C47.6233 37.003 48.1028 37.003 48.5956 37.1496L48.8087 33.46ZM56.401 43.5697C54.3631 43.5697 53.5372 41.8781 53.5372 40C53.5372 38.0953 54.3631 36.4037 56.401 36.4037C58.4389 36.4037 59.2647 38.0953 59.2647 40C59.2647 41.8781 58.4256 43.5697 56.401 43.5697ZM56.401 46.6599C60.61 46.6599 63.8201 44.2091 63.8201 40C63.8201 35.7643 60.61 33.3135 56.401 33.3135C52.1919 33.3135 48.9819 35.7643 48.9819 40C48.9819 44.2091 52.1786 46.6599 56.401 46.6599Z" fill="#FF0007"/>
</g>
</g>
</svg>
