<svg width="128" height="80" viewBox="0 0 128 80" fill="none" xmlns="http://www.w3.org/2000/svg">
<g id="logo / payment method / cryptos / brand-light">
<g id="wordmark">
<path d="M70.3273 46.1916C69.57 46.1916 68.8873 46.0743 68.2793 45.8396C67.6713 45.5943 67.154 45.237 66.7273 44.7676C66.3006 44.2876 65.97 43.6956 65.7353 42.9916C65.5006 42.277 65.3833 41.445 65.3833 40.4956C65.3833 39.557 65.5006 38.725 65.7353 37.9996C65.97 37.2636 66.3006 36.6503 66.7273 36.1596C67.154 35.6583 67.6713 35.2796 68.2793 35.0236C68.8873 34.7676 69.57 34.6396 70.3273 34.6396C71.362 34.6396 72.2153 34.853 72.8873 35.2796C73.5593 35.6956 74.098 36.357 74.5033 37.2636L72.4073 38.3516C72.258 37.8823 72.0233 37.509 71.7033 37.2316C71.394 36.9436 70.9353 36.7996 70.3273 36.7996C69.6126 36.7996 69.0366 37.0343 68.5993 37.5036C68.1726 37.9623 67.9593 38.6343 67.9593 39.5196V41.3116C67.9593 42.197 68.1726 42.8743 68.5993 43.3436C69.0366 43.8023 69.6126 44.0316 70.3273 44.0316C70.9246 44.0316 71.3993 43.8716 71.7513 43.5516C72.114 43.221 72.3806 42.8263 72.5513 42.3676L74.5353 43.5196C74.1193 44.373 73.57 45.0343 72.8873 45.5036C72.2153 45.9623 71.362 46.1916 70.3273 46.1916Z" fill="black"/>
<path d="M76.1092 45.9996V37.5996H78.4772V39.4236H78.5572C78.5998 39.189 78.6745 38.965 78.7812 38.7516C78.8878 38.5276 79.0265 38.3303 79.1972 38.1596C79.3785 37.989 79.5918 37.8556 79.8372 37.7596C80.0825 37.653 80.3705 37.5996 80.7012 37.5996H81.1172V39.8076H80.5252C79.8318 39.8076 79.3145 39.8983 78.9732 40.0796C78.6425 40.261 78.4772 40.597 78.4772 41.0876V45.9996H76.1092Z" fill="black"/>
<path d="M87.8233 37.5996H90.0313L86.7993 47.2956C86.586 47.9463 86.282 48.4263 85.8873 48.7356C85.5033 49.045 84.9486 49.1996 84.2233 49.1996H82.7513V47.3596H84.3353L84.6233 46.4316L81.6793 37.5996H84.0313L85.2633 41.5196L85.8713 43.9516H85.9673L86.5913 41.5196L87.8233 37.5996Z" fill="black"/>
<path d="M91.2342 37.5996H93.6022V39.0076H93.6822C93.7995 38.5383 94.0662 38.1543 94.4822 37.8556C94.9088 37.557 95.3942 37.4076 95.9382 37.4076C97.0048 37.4076 97.8102 37.781 98.3542 38.5276C98.8982 39.2743 99.1702 40.3623 99.1702 41.7916C99.1702 43.221 98.8982 44.3143 98.3542 45.0716C97.8102 45.8183 97.0048 46.1916 95.9382 46.1916C95.6608 46.1916 95.3995 46.149 95.1542 46.0636C94.9088 45.989 94.6848 45.8823 94.4822 45.7436C94.2902 45.5943 94.1248 45.4236 93.9862 45.2316C93.8475 45.029 93.7462 44.8156 93.6822 44.5916H93.6022V49.1996H91.2342V37.5996ZM95.1542 44.2716C95.6022 44.2716 95.9702 44.117 96.2582 43.8076C96.5568 43.4876 96.7062 43.061 96.7062 42.5276V41.0716C96.7062 40.5383 96.5568 40.117 96.2582 39.8076C95.9702 39.4876 95.6022 39.3276 95.1542 39.3276C94.7062 39.3276 94.3328 39.4396 94.0342 39.6636C93.7462 39.877 93.6022 40.1756 93.6022 40.5596V43.0396C93.6022 43.4236 93.7462 43.7276 94.0342 43.9516C94.3328 44.165 94.7062 44.2716 95.1542 44.2716Z" fill="black"/>
<path d="M103.819 45.9996C102.997 45.9996 102.373 45.7916 101.947 45.3756C101.531 44.9596 101.323 44.3516 101.323 43.5516V39.4396H100.139V37.5996H100.731C101.051 37.5996 101.269 37.525 101.387 37.3756C101.504 37.2156 101.563 36.9916 101.563 36.7036V35.3276H103.691V37.5996H105.355V39.4396H103.691V44.1596H105.227V45.9996H103.819Z" fill="black"/>
<path d="M110.345 46.1916C109.727 46.1916 109.172 46.0903 108.681 45.8876C108.201 45.685 107.791 45.3916 107.449 45.0076C107.119 44.6236 106.863 44.1596 106.681 43.6156C106.5 43.0716 106.409 42.4636 106.409 41.7916C106.409 41.1196 106.5 40.5116 106.681 39.9676C106.863 39.4236 107.119 38.965 107.449 38.5916C107.791 38.2076 108.201 37.9143 108.681 37.7116C109.172 37.509 109.727 37.4076 110.345 37.4076C110.964 37.4076 111.513 37.509 111.993 37.7116C112.484 37.9143 112.895 38.2076 113.225 38.5916C113.567 38.965 113.828 39.4236 114.009 39.9676C114.191 40.5116 114.281 41.1196 114.281 41.7916C114.281 42.4636 114.191 43.0716 114.009 43.6156C113.828 44.1596 113.567 44.6236 113.225 45.0076C112.895 45.3916 112.484 45.685 111.993 45.8876C111.513 46.0903 110.964 46.1916 110.345 46.1916ZM110.345 44.3196C110.815 44.3196 111.177 44.1756 111.433 43.8876C111.689 43.5996 111.817 43.189 111.817 42.6556V40.9436C111.817 40.4103 111.689 39.9996 111.433 39.7116C111.177 39.4236 110.815 39.2796 110.345 39.2796C109.876 39.2796 109.513 39.4236 109.257 39.7116C109.001 39.9996 108.873 40.4103 108.873 40.9436V42.6556C108.873 43.189 109.001 43.5996 109.257 43.8876C109.513 44.1756 109.876 44.3196 110.345 44.3196Z" fill="black"/>
<path d="M118.817 46.1916C118.006 46.1916 117.323 46.0636 116.769 45.8076C116.214 45.541 115.718 45.1676 115.281 44.6876L116.673 43.2796C116.971 43.6103 117.302 43.8716 117.665 44.0636C118.027 44.2556 118.438 44.3516 118.897 44.3516C119.366 44.3516 119.691 44.2823 119.873 44.1436C120.054 43.9943 120.145 43.797 120.145 43.5516C120.145 43.157 119.862 42.9223 119.297 42.8476L118.385 42.7356C116.497 42.501 115.553 41.637 115.553 40.1436C115.553 39.7383 115.627 39.3703 115.777 39.0396C115.937 38.6983 116.155 38.4103 116.433 38.1756C116.721 37.9303 117.062 37.7436 117.457 37.6156C117.862 37.477 118.315 37.4076 118.817 37.4076C119.254 37.4076 119.638 37.4396 119.969 37.5036C120.31 37.557 120.609 37.6423 120.865 37.7596C121.131 37.8663 121.371 38.005 121.585 38.1756C121.809 38.3356 122.027 38.517 122.241 38.7196L120.881 40.1116C120.614 39.845 120.31 39.637 119.969 39.4876C119.638 39.3276 119.297 39.2476 118.945 39.2476C118.539 39.2476 118.251 39.3116 118.081 39.4396C117.91 39.5676 117.825 39.7383 117.825 39.9516C117.825 40.1756 117.883 40.3516 118.001 40.4796C118.129 40.597 118.363 40.6823 118.705 40.7356L119.649 40.8636C121.494 41.109 122.417 41.9516 122.417 43.3916C122.417 43.797 122.331 44.1703 122.161 44.5116C121.99 44.853 121.745 45.1516 121.425 45.4076C121.115 45.653 120.737 45.845 120.289 45.9836C119.851 46.1223 119.361 46.1916 118.817 46.1916Z" fill="black"/>
</g>
<g id="logo">
<path id="Vector" d="M19.8468 30.7356C21.2157 25.2967 26.1351 21.2511 31.9957 21.2511H32.949C38.8095 21.2511 43.729 25.2967 45.0979 30.7356C45.1834 30.7356 45.269 30.7294 45.3545 30.7294C46.3934 30.7294 47.414 30.8272 48.4101 31.0044C46.9007 23.5794 40.3373 18 32.4723 18C24.6073 18 18.044 23.5794 16.5345 30.9983C17.5245 30.8211 18.5451 30.7233 19.5901 30.7233C19.6757 30.7233 19.7612 30.7294 19.8468 30.7356Z" fill="#BDCCD4"/>
<path id="Vector_2" d="M32.4724 36.26C35.0513 33.4184 38.6019 31.4811 42.5924 30.9739C41.3885 26.7695 37.5141 23.6772 32.9246 23.6772H32.0202C27.4307 23.6772 23.5563 26.7695 22.3524 30.9739C26.343 31.4811 29.8935 33.4184 32.4724 36.26Z" fill="#BDCCD4"/>
<path id="Vector_3" d="M32.4724 39.23C32.2952 38.9611 32.1057 38.6984 31.9102 38.4417C31.7207 38.1911 31.519 37.9467 31.3113 37.7084C28.6224 34.6161 24.6624 32.6667 20.2502 32.6667C12.1529 32.6667 5.5835 39.2361 5.5835 47.3334C5.5835 55.4306 12.1529 62 20.2502 62C24.6624 62 28.6224 60.0506 31.3052 56.9645C31.5129 56.7261 31.7146 56.4817 31.904 56.2311C32.0996 55.9745 32.289 55.7117 32.4663 55.4428C34.0124 53.1206 34.9107 50.3339 34.9107 47.3395C34.9107 44.345 34.0185 41.5522 32.4724 39.23ZM19.9996 51.2811C21.1424 51.2811 22.2302 50.7861 22.9818 49.9184L25.1146 51.77C24.3507 52.65 23.379 53.3039 22.3096 53.695V55.95H20.6291V54.0739C20.4213 54.0922 20.2135 54.1106 20.0057 54.1106C19.7674 54.1106 19.5352 54.0984 19.309 54.0739V55.95H17.6285V53.6645C15.0679 52.6989 13.2407 50.23 13.2407 47.3334C13.2407 44.4367 15.0679 41.9678 17.6285 41.0022V38.7228H19.309V40.5989C19.5413 40.5745 19.7735 40.5622 20.0057 40.5622C20.2135 40.5622 20.4274 40.5745 20.6291 40.5989V38.7228H22.3096V40.9778C23.379 41.3689 24.3507 42.0167 25.1146 42.9028L22.9818 44.7545C22.2302 43.8867 21.1424 43.3917 19.9996 43.3917C17.8241 43.3917 16.0518 45.1639 16.0518 47.3395C16.0518 49.515 17.8241 51.2811 19.9996 51.2811Z" fill="#93A6AD"/>
<path id="Vector_4" d="M44.6946 32.6667C40.2824 32.6667 36.3224 34.6161 33.6396 37.7022C35.5952 40.4156 36.7502 43.74 36.7502 47.3334C36.7502 50.9267 35.5952 54.2511 33.6396 56.9645C36.3224 60.0506 40.2824 62 44.6946 62C52.7919 62 59.3613 55.4306 59.3613 47.3334C59.3613 39.2361 52.7919 32.6667 44.6946 32.6667ZM45.2935 55.3939C45.0063 55.8156 44.383 55.8156 44.0896 55.3939L39.323 48.47L44.6885 51.6356L50.0602 48.47L45.2935 55.3939ZM44.6885 49.7595L39.323 46.5817L44.0835 39.3278C44.3708 38.8878 45.0124 38.8878 45.3058 39.3278L50.0663 46.5817L44.6885 49.7595Z" fill="#A3B6BF"/>
</g>
</g>
</svg>
