<svg width="135" height="59" viewBox="0 0 135 59" fill="none" xmlns="http://www.w3.org/2000/svg">
<g id="logo / deriv product / deriv trader / black / wordmark vertical">
<g id="wordmark">
<path fill-rule="evenodd" clip-rule="evenodd" d="M14.3333 0.665741L13.4472 5.69119H10.3712C7.50146 5.69119 4.76617 8.01625 4.2592 10.886L4.04462 12.1075C3.54001 14.9773 5.4547 17.3024 8.32441 17.3024H10.8899C12.9815 17.3024 14.974 15.6092 15.3419 13.5177L17.7046 0.123779L14.3333 0.665741ZM12.1507 13.0437C12.0375 13.6898 11.4558 14.2157 10.8098 14.2157H9.25111C7.96128 14.2157 7.09825 13.1686 7.32461 11.8764L7.45902 11.1148C7.68774 9.82488 8.91862 8.77554 10.2085 8.77554H12.9033L12.1507 13.0437Z" fill="#414652"/>
<path d="M38.0235 17.3034H41.2162L43.2346 5.85258H40.0419L38.0235 17.3034Z" fill="#414652"/>
<path d="M38.1289 7.34483L38.1293 7.34227C38.2093 6.8895 38.2892 6.43673 38.369 5.98397C35.0929 5.13981 32.5412 6.01312 31.5021 6.44343C31.5021 6.44343 30.0199 14.8454 29.586 17.3056H32.7808C33.2993 14.3653 33.8178 11.4243 34.3356 8.484C34.8151 8.38839 36.3756 8.2387 37.8882 8.70875C37.9683 8.25411 38.0486 7.79947 38.1289 7.34483Z" fill="#414652"/>
<path fill-rule="evenodd" clip-rule="evenodd" d="M25.4194 5.68999H22.9364C20.5147 5.68999 18.2063 7.6519 17.7794 10.0736L17.2772 12.9198C16.8504 15.3415 18.4657 17.3035 20.8873 17.3035H26.174L26.7163 14.2262H21.7479C20.9415 14.2262 20.4015 13.573 20.5454 12.7642L20.5619 12.6675H28.5721L29.0295 10.0736C29.4562 7.6519 27.841 5.68999 25.4194 5.68999ZM25.8249 9.8284L25.8061 9.99346H21.043L21.0689 9.84726C21.2127 9.0408 21.9484 8.33103 22.7571 8.33103H24.6176C25.417 8.33103 25.9571 9.02902 25.8249 9.8284Z" fill="#414652"/>
<path d="M48.7826 13.4054C50.2323 10.7974 51.8305 7.37554 52.4964 5.85258H55.6939C54.6055 8.74632 52.1112 13.6688 49.6951 17.3034H46.5C45.391 13.8441 44.6748 9.02421 44.5381 5.85258H47.7333C47.7909 6.88716 48.2541 10.7246 48.7826 13.4054Z" fill="#414652"/>
<path d="M27.1215 25.4704V31.7546H17.2463V58.2147H9.87526V31.7546H0V25.4704H27.1215Z" fill="#414652"/>
<path d="M40.7258 39.5981C40.0958 39.4406 39.3556 39.2831 38.5051 39.1256C37.6546 38.9366 36.7411 38.8421 35.7646 38.8421C35.3236 38.8421 34.7881 38.8894 34.1581 38.9839C33.5596 39.0469 33.1028 39.1256 32.7878 39.2201V58.2147H25.7476V34.6841C27.0076 34.2431 28.4881 33.8336 30.1891 33.4556C31.9216 33.0461 33.8431 32.8414 35.9536 32.8414C36.3316 32.8414 36.7883 32.8729 37.3238 32.9359C37.8593 32.9674 38.3948 33.0304 38.9303 33.1249C39.4658 33.1879 40.0013 33.2824 40.5368 33.4084C41.0723 33.5029 41.5291 33.6289 41.9071 33.7864L40.7258 39.5981Z" fill="#414652"/>
<path d="M52.3545 53.3007C53.0475 53.3007 53.709 53.2849 54.339 53.2534C54.969 53.2219 55.473 53.1747 55.851 53.1117V47.7724C55.5675 47.7094 55.1423 47.6464 54.5753 47.5834C54.0083 47.5204 53.4885 47.4889 53.016 47.4889C52.3545 47.4889 51.7245 47.5361 51.126 47.6306C50.559 47.6936 50.055 47.8354 49.614 48.0559C49.173 48.2764 48.8265 48.5757 48.5745 48.9537C48.3225 49.3316 48.1965 49.8042 48.1965 50.3712C48.1965 51.4737 48.5588 52.2454 49.2833 52.6864C50.0393 53.0959 51.063 53.3007 52.3545 53.3007ZM51.7875 32.6996C53.8665 32.6996 55.599 32.9359 56.985 33.4084C58.371 33.8809 59.4735 34.5581 60.2925 35.4401C61.143 36.3221 61.7415 37.3931 62.088 38.6531C62.4345 39.9131 62.6078 41.3149 62.6078 42.8584V57.5059C61.5998 57.7264 60.198 57.9784 58.4025 58.2619C56.607 58.5769 54.4335 58.7344 51.882 58.7344C50.2755 58.7344 48.8108 58.5927 47.4878 58.3092C46.1963 58.0257 45.078 57.5689 44.133 56.9389C43.188 56.2774 42.4635 55.4269 41.9595 54.3874C41.4555 53.3479 41.2035 52.0722 41.2035 50.5602C41.2035 49.1112 41.487 47.8826 42.054 46.8746C42.6525 45.8666 43.44 45.0634 44.4165 44.4649C45.393 43.8664 46.5113 43.4411 47.7713 43.1891C49.0313 42.9056 50.3385 42.7639 51.693 42.7639C52.6065 42.7639 53.4098 42.8111 54.1028 42.9056C54.8273 42.9686 55.41 43.0631 55.851 43.1891V42.5276C55.851 41.3306 55.4888 40.3699 54.7643 39.6454C54.0398 38.9209 52.7798 38.5586 50.9843 38.5586C49.7873 38.5586 48.606 38.6531 47.4405 38.8421C46.275 38.9996 45.267 39.2359 44.4165 39.5509L43.5188 33.8809C43.9283 33.7549 44.4323 33.6289 45.0308 33.5029C45.6608 33.3454 46.338 33.2194 47.0625 33.1249C47.787 32.9989 48.543 32.9044 49.3305 32.8414C50.1495 32.7469 50.9685 32.6996 51.7875 32.6996Z" fill="#414652"/>
<path d="M72.6122 45.5989C72.6122 47.7724 73.1005 49.5207 74.077 50.8437C75.0535 52.1667 76.5025 52.8282 78.424 52.8282C79.054 52.8282 79.6367 52.8124 80.1722 52.7809C80.7077 52.7179 81.1488 52.6549 81.4953 52.5919V39.7871C81.0543 39.5036 80.4715 39.2674 79.747 39.0784C79.054 38.8894 78.3453 38.7949 77.6208 38.7949C74.2817 38.7949 72.6122 41.0629 72.6122 45.5989ZM88.5355 57.4114C87.9055 57.6004 87.181 57.7894 86.362 57.9784C85.543 58.1359 84.6768 58.2777 83.7633 58.4037C82.8812 58.5297 81.9678 58.6242 81.0228 58.6872C80.1093 58.7817 79.2272 58.8289 78.3767 58.8289C76.3292 58.8289 74.5022 58.5297 72.8957 57.9312C71.2892 57.3327 69.9347 56.4822 68.8322 55.3797C67.7297 54.2457 66.8792 52.8912 66.2807 51.3162C65.7137 49.7097 65.4302 47.9142 65.4302 45.9296C65.4302 43.9136 65.6822 42.1024 66.1862 40.4959C66.6902 38.8579 67.4147 37.4719 68.3597 36.3379C69.3047 35.2039 70.4545 34.3376 71.809 33.7391C73.195 33.1406 74.77 32.8414 76.534 32.8414C77.5105 32.8414 78.3768 32.9359 79.1328 33.1249C79.9202 33.3139 80.7078 33.5816 81.4953 33.9281V22.6826L88.5355 21.5486V57.4114Z" fill="#414652"/>
<path d="M91.5839 45.9769C91.5839 43.7719 91.9146 41.8504 92.5761 40.2124C93.2691 38.5429 94.1669 37.1569 95.2694 36.0544C96.3719 34.9519 97.6319 34.1171 99.0494 33.5501C100.498 32.9831 101.979 32.6996 103.491 32.6996C107.019 32.6996 109.807 33.7864 111.854 35.9599C113.902 38.1019 114.925 41.2676 114.925 45.4571C114.925 45.8666 114.91 46.3234 114.878 46.8274C114.847 47.2999 114.815 47.7252 114.784 48.1031H98.8131C98.9706 49.5522 99.6479 50.7019 100.845 51.5524C102.042 52.4029 103.648 52.8282 105.664 52.8282C106.956 52.8282 108.216 52.7179 109.444 52.4974C110.704 52.2454 111.728 51.9462 112.516 51.5997L113.461 57.3169C113.083 57.5059 112.579 57.6949 111.949 57.8839C111.319 58.0729 110.61 58.2304 109.822 58.3564C109.066 58.5139 108.247 58.6399 107.365 58.7344C106.483 58.8289 105.601 58.8762 104.719 58.8762C102.483 58.8762 100.53 58.5454 98.8604 57.8839C97.2224 57.2224 95.8521 56.3247 94.7496 55.1907C93.6786 54.0252 92.8754 52.6549 92.3399 51.0799C91.8359 49.5049 91.5839 47.8039 91.5839 45.9769ZM108.121 43.2836C108.09 42.6851 107.98 42.1024 107.791 41.5354C107.633 40.9684 107.365 40.4644 106.987 40.0234C106.641 39.5824 106.184 39.2201 105.617 38.9366C105.082 38.6531 104.404 38.5114 103.585 38.5114C102.798 38.5114 102.121 38.6531 101.554 38.9366C100.987 39.1886 100.514 39.5351 100.136 39.9761C99.7581 40.4171 99.4589 40.9369 99.2384 41.5354C99.0494 42.1024 98.9076 42.6851 98.8131 43.2836H108.121Z" fill="#414652"/>
<path d="M132.974 39.5981C132.344 39.4406 131.604 39.2831 130.753 39.1256C129.903 38.9366 128.989 38.8421 128.013 38.8421C127.572 38.8421 127.036 38.8894 126.406 38.9839C125.808 39.0469 125.351 39.1256 125.036 39.2201V58.2147H117.996V34.6841C119.256 34.2431 120.736 33.8336 122.437 33.4556C124.17 33.0461 126.091 32.8414 128.202 32.8414C128.58 32.8414 129.037 32.8729 129.572 32.9359C130.108 32.9674 130.643 33.0304 131.179 33.1249C131.714 33.1879 132.25 33.2824 132.785 33.4084C133.321 33.5029 133.777 33.6289 134.155 33.7864L132.974 39.5981Z" fill="#414652"/>
</g>
</g>
</svg>
