<svg width="128" height="80" viewBox="0 0 128 80" fill="none" xmlns="http://www.w3.org/2000/svg">
<g id="logo / payment method / litecoin / brand-dark">
<path id="logo" d="M28.0746 26C25.2902 26 22.5684 26.8257 20.2533 28.3726C17.9382 29.9195 16.1337 32.1182 15.0682 34.6906C14.0027 37.263 13.7239 40.0936 14.2671 42.8245C14.8103 45.5553 16.1511 48.0638 18.1199 50.0326C20.0888 52.0015 22.5972 53.3423 25.3281 53.8855C28.059 54.4287 30.8896 54.1499 33.462 53.0843C36.0344 52.0188 38.2331 50.2144 39.78 47.8993C41.3269 45.5842 42.1526 42.8623 42.1526 40.078C42.1526 38.2292 41.7884 36.3986 41.0809 34.6906C40.3734 32.9826 39.3365 31.4306 38.0292 30.1233C36.7219 28.8161 35.17 27.7791 33.462 27.0716C31.754 26.3641 29.9233 26 28.0746 26V26ZM28.3027 40.5411L26.8384 45.4824H34.6709C34.7331 45.4825 34.7945 45.4972 34.8502 45.5251C34.9059 45.5531 34.9543 45.5936 34.9916 45.6435C35.0289 45.6933 35.0541 45.7512 35.0653 45.8125C35.0764 45.8738 35.0731 45.9368 35.0557 45.9966L34.3746 48.3429C34.3421 48.455 34.274 48.5535 34.1807 48.6235C34.0873 48.6936 33.9737 48.7313 33.857 48.7311H21.8937L23.9166 41.8999L21.6792 42.581L22.173 40.9838L24.4138 40.3027L27.2539 30.7063C27.2851 30.5938 27.3522 30.4947 27.4451 30.424C27.5379 30.3533 27.6514 30.3149 27.7681 30.3147H30.7989C30.8611 30.3144 30.9225 30.3287 30.9783 30.3562C31.034 30.3837 31.0826 30.4238 31.1203 30.4734C31.1579 30.5229 31.1835 30.5804 31.1951 30.6415C31.2067 30.7026 31.204 30.7656 31.1871 30.8255L28.8033 38.9406L31.0407 38.2595L30.5605 39.8839L28.3027 40.5411Z" fill="#A5A8A9"/>
<g id="wordmark">
<path d="M54.8324 30.1595C55.0438 30.1386 55.2566 30.1809 55.4439 30.281C55.694 30.4147 55.881 30.642 55.964 30.9132C56.0469 31.1845 56.0191 31.4775 55.8866 31.7283C55.7873 31.916 55.6346 32.0701 55.4477 32.171C55.2608 32.2719 55.0482 32.315 54.8368 32.2949C54.6253 32.2748 54.4246 32.1924 54.2601 32.0582C54.0955 31.9239 53.9745 31.7439 53.9124 31.5408C53.8503 31.3377 53.8498 31.1207 53.9111 30.9174C53.9724 30.7141 54.0927 30.5335 54.2567 30.3986C54.4207 30.2637 54.6211 30.1805 54.8324 30.1595Z" fill="white"/>
<path d="M49.4164 30.2742H50.295C50.4652 30.2742 50.5674 30.3491 50.5402 30.5466L48.2551 48.4761C48.2555 48.5139 48.2477 48.5514 48.2323 48.5859C48.2168 48.6204 48.1941 48.6512 48.1656 48.6761C48.1371 48.701 48.1036 48.7195 48.0673 48.7302C48.0311 48.741 47.9929 48.7437 47.9555 48.7383H47.0837C46.9032 48.7383 46.8453 48.6464 46.8657 48.4761L49.1201 30.5398C49.1218 30.5028 49.1309 30.4665 49.1468 30.4331C49.1627 30.3996 49.1851 30.3697 49.2126 30.3449C49.2402 30.3202 49.2724 30.3012 49.3074 30.2891C49.3424 30.2769 49.3794 30.2719 49.4164 30.2742Z" fill="white"/>
<path d="M53.9967 35.4436H54.8651C55.0558 35.4436 55.1137 35.5355 55.1069 35.7126L53.5029 48.4761C53.502 48.5151 53.4927 48.5534 53.4757 48.5884C53.4587 48.6235 53.4343 48.6545 53.4043 48.6794C53.3743 48.7042 53.3393 48.7223 53.3017 48.7325C53.264 48.7427 53.2247 48.7447 53.1862 48.7383H52.3144C52.151 48.7383 52.0488 48.6498 52.0692 48.4761L53.697 35.7058C53.6982 35.6685 53.7071 35.6318 53.7231 35.598C53.7391 35.5643 53.7618 35.5342 53.7899 35.5096C53.818 35.485 53.8509 35.4665 53.8865 35.4551C53.922 35.4437 53.9596 35.4398 53.9967 35.4436Z" fill="white"/>
<path fill-rule="evenodd" clip-rule="evenodd" d="M93.1249 35.2324C91.9973 35.2066 90.8945 35.566 89.9986 36.2514C89.1028 36.9368 88.4674 37.9071 88.1973 39.0022C87.9547 40.0188 87.7739 41.0491 87.6558 42.0875C87.5161 43.1105 87.4342 44.1406 87.4106 45.1728C87.3991 45.6767 87.4894 46.1776 87.6761 46.6457C87.8628 47.1139 88.1419 47.5395 88.497 47.8972C89.2053 48.5783 90.1758 48.9188 91.4086 48.9188C92.5377 48.9444 93.6417 48.584 94.5382 47.8972C95.4221 47.2178 96.047 46.2565 96.309 45.1728C96.5549 44.157 96.7358 43.1264 96.8504 42.0875C96.9889 41.0553 97.0696 40.0162 97.0922 38.975C97.1152 38.471 97.0314 37.9678 96.8466 37.4984C96.6618 37.0289 96.3799 36.6037 96.0195 36.2507C95.227 35.5424 94.1864 35.1763 93.1249 35.2324ZM95.587 40.848C95.5053 41.4984 95.4542 41.9139 95.4372 42.0875C95.2737 43.4054 95.1273 44.3487 95.0013 44.9106C94.8317 45.715 94.3904 46.4365 93.7515 46.9539C93.1281 47.459 92.3471 47.7289 91.5448 47.7167C91.1797 47.741 90.8136 47.6873 90.4708 47.5593C90.1279 47.4313 89.8162 47.2319 89.5564 46.9743C89.2965 46.7166 89.0944 46.4067 88.9634 46.065C88.8324 45.7233 88.7756 45.3577 88.7966 44.9924C88.8044 44.4455 88.8453 43.8996 88.9192 43.3578C89.001 42.7073 89.0521 42.2953 89.0691 42.1182C89.2325 40.8548 89.379 39.9115 89.505 39.2985C89.6758 38.4946 90.1169 37.7735 90.7548 37.2553C91.379 36.7517 92.1595 36.4819 92.9615 36.4924C93.3266 36.4682 93.6927 36.5218 94.0355 36.6498C94.3783 36.7778 94.69 36.9773 94.9499 37.2349C95.2098 37.4925 95.4119 37.8024 95.5429 38.1441C95.6739 38.4858 95.7307 38.8514 95.7096 39.2168C95.7018 39.7625 95.6608 40.3072 95.587 40.848Z" fill="white"/>
<path d="M101.216 35.4436H102.085C102.255 35.4436 102.326 35.5355 102.303 35.7058L100.699 48.4761C100.697 48.5133 100.688 48.5497 100.672 48.5832C100.655 48.6167 100.633 48.6466 100.605 48.6711C100.577 48.6956 100.544 48.7142 100.509 48.7257C100.473 48.7373 100.436 48.7416 100.399 48.7383H99.5271C99.3636 48.7383 99.2581 48.66 99.2819 48.4761L100.917 35.7058C100.922 35.6314 100.956 35.5621 101.012 35.513C101.068 35.4638 101.142 35.4389 101.216 35.4436Z" fill="white"/>
<path d="M113.098 36.1962C112.498 35.5696 111.657 35.2597 110.567 35.2597C109.893 35.2525 109.225 35.3919 108.609 35.6683C108.007 35.9438 107.482 36.3651 107.084 36.8943C107.012 36.9624 106.975 36.9454 106.975 36.8398L107.111 35.7058C107.131 35.5457 107.06 35.4436 106.893 35.4436H106.024C105.987 35.4403 105.95 35.4446 105.915 35.4561C105.879 35.4677 105.847 35.4863 105.819 35.5108C105.791 35.5353 105.768 35.5652 105.752 35.5987C105.736 35.6322 105.726 35.6686 105.725 35.7058L104.121 48.4761C104.1 48.643 104.158 48.7383 104.339 48.7383H105.211C105.248 48.7411 105.285 48.7365 105.32 48.7248C105.355 48.713 105.387 48.6944 105.415 48.67C105.443 48.6456 105.466 48.6159 105.482 48.5826C105.499 48.5493 105.508 48.5131 105.51 48.4761L106.678 39.3257C106.845 38.5323 107.266 37.8149 107.877 37.2825C108.474 36.7639 109.242 36.4848 110.033 36.4993C110.375 36.4846 110.716 36.5429 111.033 36.6703C111.351 36.7978 111.638 36.9913 111.875 37.2382C112.352 37.7765 112.597 38.4816 112.556 39.1997C112.56 39.3942 112.551 39.5888 112.529 39.7821L111.415 48.4761C111.407 48.5078 111.407 48.5409 111.414 48.5729C111.421 48.6048 111.436 48.6346 111.456 48.66C111.482 48.6874 111.514 48.7086 111.549 48.7221C111.585 48.7357 111.623 48.7412 111.66 48.7383H112.529C112.566 48.7416 112.603 48.7373 112.639 48.7257C112.674 48.7142 112.707 48.6956 112.735 48.6711C112.763 48.6466 112.785 48.6167 112.801 48.5832C112.818 48.5497 112.827 48.5133 112.828 48.4761L113.945 39.5641C113.983 39.2236 114 38.9477 114 38.7741C114.027 38.3061 113.961 37.8374 113.806 37.3949C113.652 36.9525 113.411 36.5451 113.098 36.1962Z" fill="white"/>
<path d="M102.708 30.281C102.52 30.1825 102.307 30.142 102.096 30.1646C101.885 30.1872 101.685 30.2719 101.522 30.4079C101.359 30.5439 101.241 30.7252 101.181 30.9288C101.121 31.1323 101.123 31.3491 101.186 31.5516C101.25 31.7541 101.372 31.9333 101.537 32.0664C101.702 32.1996 101.903 32.2808 102.114 32.2997C102.326 32.3186 102.538 32.2744 102.724 32.1727C102.91 32.071 103.062 31.9163 103.161 31.7283C103.292 31.4763 103.319 31.1823 103.234 30.9109C103.149 30.6395 102.96 30.4129 102.708 30.281Z" fill="white"/>
<path d="M78.5904 36.2745C79.492 35.5755 80.6066 35.2076 81.7472 35.2324C82.808 35.171 83.85 35.5322 84.6452 36.237C85.0067 36.5894 85.2895 37.0144 85.475 37.484C85.6605 37.9535 85.7444 38.457 85.7213 38.9614V39.2713C85.7213 39.2921 85.7171 39.3128 85.7091 39.332C85.701 39.3512 85.6891 39.3687 85.6742 39.3832C85.6593 39.3978 85.6416 39.4093 85.6222 39.417C85.6028 39.4246 85.5821 39.4284 85.5613 39.4279H84.5396C84.5127 39.4279 84.486 39.4225 84.4611 39.412C84.4363 39.4015 84.4138 39.3861 84.3951 39.3667C84.3763 39.3473 84.3617 39.3243 84.352 39.2992C84.3423 39.274 84.3378 39.2471 84.3387 39.2202V39.1997C84.3598 38.8341 84.3029 38.4682 84.1717 38.1262C84.0406 37.7843 83.8381 37.4742 83.5779 37.2165C83.3176 36.9588 83.0055 36.7595 82.6623 36.6317C82.319 36.5039 81.9525 36.4506 81.5871 36.4754C80.7862 36.4648 80.0068 36.7347 79.3838 37.2382C78.7474 37.7612 78.3107 38.4876 78.1477 39.2951C78.0183 39.9081 77.8752 40.8514 77.7118 42.1148C77.6913 42.2919 77.63 42.8129 77.5619 43.3544C77.488 43.8962 77.4471 44.4421 77.4393 44.989C77.4183 45.3543 77.4751 45.7199 77.6061 46.0616C77.7371 46.4033 77.9392 46.7132 78.1991 46.9708C78.4589 47.2285 78.7706 47.4279 79.1134 47.5559C79.4563 47.6839 79.8224 47.7375 80.1875 47.7133C80.9888 47.7262 81.769 47.4561 82.3908 46.9505C83.0305 46.4333 83.473 45.7119 83.644 44.9072C83.6426 44.8902 83.6426 44.8731 83.644 44.8561C83.6533 44.8193 83.6749 44.7867 83.7053 44.7638C83.7356 44.7408 83.7729 44.729 83.8109 44.7301H84.8836C84.902 44.7302 84.9201 44.7344 84.9366 44.7424C84.9532 44.7504 84.9677 44.762 84.9792 44.7764C84.9906 44.7908 84.9987 44.8076 85.0028 44.8255C85.0069 44.8434 85.0069 44.8621 85.0028 44.88C84.9789 44.9821 84.9551 45.0775 84.9312 45.1694C84.6727 46.2537 84.0486 47.2158 83.1638 47.8938C82.2671 48.5801 81.1632 48.9404 80.0343 48.9154C78.8015 48.9154 77.831 48.5749 77.1226 47.8938C76.7657 47.5373 76.4851 47.112 76.2977 46.6436C76.1104 46.1753 76.0203 45.6737 76.0329 45.1694C76.0591 44.1373 76.1409 43.1074 76.2781 42.0841C76.4029 41.0465 76.5848 40.0165 76.823 38.9988C77.0868 37.9169 77.7099 36.9564 78.5904 36.2745Z" fill="white"/>
<path fill-rule="evenodd" clip-rule="evenodd" d="M72.9614 36.2609C72.1685 35.5505 71.1265 35.1832 70.0634 35.2393C68.9357 35.2134 67.833 35.5728 66.9371 36.2582C66.0412 36.9436 65.4058 37.9139 65.1358 39.009C64.8941 40.0258 64.7133 41.0561 64.5943 42.0943C64.436 43.1153 64.354 44.1466 64.3491 45.1797C64.3376 45.6835 64.4279 46.1844 64.6146 46.6526C64.8012 47.1207 65.0804 47.5463 65.4354 47.904C66.1438 48.5851 67.1143 48.9256 68.3471 48.9256C69.4761 48.9512 70.5801 48.5908 71.4767 47.904C72.3612 47.2252 72.9862 46.2636 73.2475 45.1797C73.2713 45.0877 73.2951 44.9924 73.319 44.8902C73.3231 44.8723 73.3231 44.8537 73.319 44.8357C73.3149 44.8178 73.3068 44.801 73.2954 44.7866C73.2839 44.7722 73.2694 44.7606 73.2529 44.7526C73.2363 44.7446 73.2182 44.7404 73.1998 44.7404H72.1169C72.079 44.7398 72.042 44.7519 72.0118 44.7747C71.9816 44.7975 71.9598 44.8298 71.95 44.8664V44.9174C71.7804 45.7218 71.3391 46.4433 70.7002 46.9607C70.0722 47.4599 69.2887 47.7227 68.4867 47.7031C68.1216 47.7273 67.7555 47.6737 67.4126 47.5457C67.0698 47.4177 66.7581 47.2183 66.4983 46.9606C66.2384 46.703 66.0362 46.3931 65.9053 46.0514C65.7743 45.7097 65.7174 45.3441 65.7385 44.9787C65.7448 44.5016 65.7777 44.0253 65.8373 43.5519L73.7004 41.117C73.7724 41.1013 73.8369 41.0612 73.8828 41.0035C73.9287 40.9458 73.9533 40.874 73.9524 40.8003C74.0001 40.3916 74.0307 39.7003 74.0375 38.992C74.0513 38.4878 73.9631 37.986 73.7781 37.5166C73.5932 37.0473 73.3154 36.6202 72.9614 36.2609ZM72.6515 39.9353C72.6502 39.9732 72.637 40.0097 72.6138 40.0396C72.5905 40.0696 72.5585 40.0915 72.5221 40.1022L66.0042 42.1148V42.0875C66.1676 40.8241 66.314 39.8808 66.44 39.2679C66.6109 38.464 67.052 37.7429 67.6898 37.2246C68.3141 36.7211 69.0946 36.4513 69.8965 36.4618C70.2647 36.4471 70.6319 36.5085 70.9752 36.6421C71.3186 36.7756 71.6307 36.9786 71.8921 37.2382C72.6958 38.0249 72.6992 38.866 72.6515 39.9353Z" fill="white"/>
<path d="M61.4864 47.2983C61.4479 47.297 61.4097 47.3062 61.3761 47.3251C60.8176 47.5873 59.7517 47.8393 59.1864 47.3625C58.7808 46.9699 58.8654 46.2693 58.9602 45.4842C58.9641 45.452 58.968 45.4198 58.9719 45.3874L59.9254 37.715H62.6497C62.7273 37.72 62.8041 37.6984 62.8677 37.6537C62.9208 37.599 62.9501 37.5256 62.9494 37.4494L63.0243 36.8432C63.0345 36.6763 62.963 36.581 62.8064 36.581H60.0821L60.5997 32.3583C60.6235 32.2084 60.5826 32.0961 60.3817 32.0961H59.5406C59.5034 32.0923 59.4659 32.0962 59.4303 32.1076C59.3948 32.1189 59.3619 32.1375 59.3338 32.1621C59.3057 32.1867 59.283 32.2168 59.267 32.2505C59.251 32.2843 59.2421 32.3209 59.2409 32.3583L58.8595 35.338L58.696 36.6831L57.545 46.0344C57.402 47.2638 57.6574 48.2479 58.6552 48.7043C59.5369 49.0276 60.507 49.0143 61.3795 48.6668C61.4328 48.646 61.4795 48.6114 61.5148 48.5665C61.5501 48.5216 61.5728 48.468 61.5804 48.4114L61.6894 47.5294C61.6931 47.491 61.6862 47.4524 61.6695 47.4177C61.6527 47.383 61.6268 47.3535 61.5946 47.3325C61.5623 47.3114 61.5249 47.2996 61.4864 47.2983Z" fill="white"/>
</g>
</g>
</svg>
