<svg width="128" height="80" viewBox="0 0 128 80" fill="none" xmlns="http://www.w3.org/2000/svg">
<g id="logo / payment method / pay livre / brand-dark">
<g id="logo">
<path id="Vector" fill-rule="evenodd" clip-rule="evenodd" d="M26.3507 48.1881C26.3507 47.7583 26.3644 47.2841 26.369 46.8527C26.3599 46.8389 23.7334 47.7797 22.4316 48.2416L19.1428 49.4103C18.2908 49.7132 17.4342 50.0008 16.5928 50.3251C15.8341 50.6157 15.441 51.1052 15.5251 51.9557C15.5557 52.28 15.9182 53.0357 15.958 53.0907C16.0039 53.1183 16.0483 53.1519 16.0957 53.1764C16.6372 53.4364 17.2001 53.646 17.7646 53.8495C18.869 54.2548 19.9704 54.6648 21.0825 55.0426C21.9544 55.3378 22.8263 55.6392 23.715 55.8793C24.0301 55.965 24.3315 56.0354 24.6604 55.9788C25.3625 55.8564 25.8581 55.4923 26.1212 54.8193C26.2971 54.3711 26.366 53.903 26.369 53.4303C26.3721 51.6834 26.3568 49.9365 26.3507 48.1881Z" fill="#0AD0DA"/>
<path id="Vector_2" fill-rule="evenodd" clip-rule="evenodd" d="M35.0624 35.332C35.0394 32.3078 35.0547 29.2851 35.0471 26.2609C35.044 25.7867 34.966 25.3171 34.6891 24.9118C34.5652 24.7297 34.1813 24.3764 34.1476 24.3504C33.7912 24.0812 33.3736 23.997 32.9468 24.0001C32.5216 24.0047 32.1086 24.1179 31.7078 24.2632C30.686 24.6272 29.6672 25.0005 28.6454 25.3646C27.4752 25.7806 26.3004 26.1875 25.1286 26.6021C23.5531 27.1604 21.976 27.7187 20.4004 28.2817C19.2638 28.687 18.1288 29.0939 17.0045 29.5299C16.9341 29.5559 16.388 29.767 16.0775 29.9276C15.9873 29.975 15.9184 30.0178 15.8848 30.05C14.8599 30.8209 15.2652 32.1885 15.7196 32.5434C16.2458 32.9564 17.1284 33.0023 17.7418 33.2271C18.4913 33.5055 19.2439 33.7778 19.995 34.0501C21.2203 34.4937 22.4471 34.9297 23.6678 35.3824C24.0655 35.5308 24.4525 35.6976 24.8105 35.9224C24.9298 35.9989 25.046 36.0784 25.1577 36.1672C25.6778 36.5863 25.999 37.1278 26.1627 37.7718C26.1811 37.8406 26.204 37.9095 26.2239 37.9798C26.2331 37.9829 26.2422 38.0334 26.2545 38.1114L26.3401 38.9298L26.3554 39.0246C26.3524 39.5355 26.3493 40.0449 26.3493 40.5543V40.9245L26.3509 46.4864C26.3509 46.5659 26.3585 46.644 26.3631 46.722L26.3401 46.8551C26.3478 46.8704 26.4855 46.8168 26.5543 46.7969C27.4583 46.5201 28.3532 46.2156 29.245 45.9005C30.5131 45.4493 31.7797 44.998 33.005 44.4382C33.4792 44.2225 33.9641 44.0144 34.2807 43.5662C34.3878 43.4148 34.6325 42.9957 34.6616 42.9437C35.0073 42.3119 35.0624 41.6159 35.0792 40.9168C35.0976 40.1673 35.0945 39.4147 35.0899 38.6636L35.0624 35.332Z" fill="#9A6BFC"/>
<path id="Vector_3" fill-rule="evenodd" clip-rule="evenodd" d="M26.3508 40.9242V40.5541L26.3538 39.0274L26.3447 38.9326C26.3416 38.9326 26.2835 38.385 26.2544 38.1127C26.2422 38.0347 26.233 37.9827 26.2238 37.9811C26.2039 37.9108 26.181 37.8435 26.1626 37.7731C26.0005 37.1306 25.6777 36.5861 25.1576 36.17C25.046 36.0813 24.9297 35.9987 24.8104 35.9252C24.4524 35.7004 24.0639 35.5321 23.6677 35.3853C22.447 34.9309 21.2202 34.4965 19.9965 34.0514C19.2439 33.7791 18.4913 33.5068 17.7417 33.2299C17.1299 33.0036 17.0931 33.103 15.9749 32.3932C14.8583 31.6834 15.5711 30.3603 15.8847 30.0528C15.9183 30.0191 15.9872 29.9763 16.0774 29.9304H16.0728C15.1933 30.2654 14.586 30.8681 14.2785 31.7645C14.0705 32.3687 14.0062 32.9959 14.0032 33.6277C13.9986 35.6851 14.0017 37.744 14.0017 39.803C14.0017 43.0031 13.9971 46.2016 14.0032 49.4017C14.0062 50.2446 14.1026 51.0767 14.4988 51.8401C14.817 52.4504 15.2942 52.8848 15.9596 53.0929C15.9138 53.0164 15.5573 52.2821 15.5252 51.9563C15.4426 51.1073 15.8357 50.6178 16.5945 50.3272C17.4358 50.0044 18.2924 49.7153 19.1429 49.4124L22.4317 48.2438C23.7365 47.7818 25.0674 47.3183 26.3707 46.8548C26.3661 46.8089 26.3661 46.8089 26.3645 46.7233C26.36 46.6453 26.3523 46.5657 26.3523 46.4877V40.9242H26.3508Z" fill="#352CAA"/>
</g>
<g id="wordmark">
<path fill-rule="evenodd" clip-rule="evenodd" d="M114.566 37.7403C114.575 37.1101 114.046 36.5411 113.354 36.5564C112.69 36.5717 112.198 37.1285 112.198 37.7403C112.198 38.3889 112.736 38.9319 113.394 38.9258C114.04 38.9197 114.577 38.3782 114.566 37.7403ZM113.379 36.4019C114.118 36.4019 114.72 37.003 114.72 37.7388C114.72 38.4792 114.119 39.0803 113.38 39.0788C112.64 39.0773 112.042 38.4715 112.045 37.7296C112.046 37.0061 112.651 36.4019 113.379 36.4019Z" fill="white"/>
<path fill-rule="evenodd" clip-rule="evenodd" d="M50.5275 37.8095C50.5275 36.9422 49.9646 36.3624 49.0804 36.3624H47.231L46.8287 39.6926H48.6628C49.7565 39.6926 50.529 38.9201 50.529 37.811L50.5275 37.8095ZM53.4553 37.4715C53.4553 40.1423 51.3964 42.0238 48.5175 42.0238H46.5381L46.0578 45.9321H43.2432L44.7055 34.0312H49.6602C52.0082 34.0312 53.4538 35.3987 53.4538 37.473L53.4553 37.4715ZM59.6612 41.1565C59.6612 40.0612 59.161 39.3361 58.358 39.3361C57.3285 39.3361 56.5392 40.4482 56.5392 41.9442C56.5392 43.0364 57.0225 43.7462 57.8103 43.7462C58.8551 43.7462 59.6612 42.6678 59.6612 41.1565ZM62.9103 37.1671L61.8166 45.9321H59.5802L59.5006 44.6778C58.8245 45.5619 57.8746 46.0943 56.6371 46.0943C54.8014 46.0943 53.6939 44.5799 53.6939 42.3129C53.6939 39.2107 55.4133 37.0049 57.7629 37.0049C58.9683 37.0049 59.7882 37.6015 60.2242 38.5988L60.6571 37.1671H62.9103ZM72.5718 37.1655L71.5912 45.2239C71.27 47.8779 69.1789 49.6324 66.3643 49.6324C65.3654 49.6324 64.3375 49.4718 63.7577 49.2133L63.6292 46.9463C64.16 47.1543 65.0931 47.2997 65.9773 47.2997C67.5865 47.2997 68.7613 46.4629 68.9204 45.2086L68.9846 44.742C68.1969 45.6598 67.1674 46.0943 66.219 46.0943C64.674 46.0943 63.903 45.1918 63.903 43.4877C63.903 43.246 63.9183 42.9569 63.9505 42.651L64.6266 37.1671H67.3601L66.733 42.2502C66.7177 42.394 66.7177 42.5225 66.7177 42.6357C66.7177 43.376 67.0236 43.7462 67.6339 43.7462C68.4875 43.7462 69.13 42.9737 69.2753 41.7989L69.8535 37.1671H72.5718V37.1655ZM84.3901 44.9195L84.0841 45.9321H77.6013L79.0653 34.0297H80.2875L78.9521 44.9195H84.3901ZM87.1848 33.3872H88.3749L88.1011 35.6374H86.911L87.1848 33.3872ZM86.703 37.424H87.8594L86.8162 45.9321H85.6567L86.703 37.424ZM96.7851 37.4256C96.7851 40.641 94.824 44.0521 91.8962 45.9321H90.8499L89.4854 37.4256H90.7245L91.7524 44.921C94.102 43.2322 95.6286 40.2723 95.6286 37.4256H96.7866H96.7851ZM103.826 37.2634L103.682 38.4367H102.959C101.044 38.4367 99.6135 39.7553 99.3565 41.7668L98.841 45.9321H97.683L98.7446 37.424H99.7267L99.5813 39.5809C100.322 38.1307 101.591 37.2634 103.265 37.2634H103.826ZM105.128 41.0601H109.92C109.937 40.8979 109.937 40.7695 109.937 40.6241C109.937 39.1602 109.229 38.2439 108.025 38.2439C106.56 38.2439 105.466 39.3377 105.128 41.0586V41.0601ZM111.063 40.7052C111.063 40.9469 111.048 41.2207 111.016 41.4777L110.967 41.8953H105.032C105.016 42.007 105.016 42.1202 105.016 42.2318C105.016 44.098 105.933 45.1122 107.735 45.1122C108.668 45.1122 109.601 44.9027 110.324 44.5661L110.018 45.5451C109.278 45.8847 108.33 46.0943 107.332 46.0943C105.048 46.0943 103.809 44.742 103.809 42.3619C103.809 39.3071 105.676 37.2634 108.2 37.2634C110.002 37.2634 111.063 38.6141 111.063 40.7052ZM113.044 37.7713H113.099C113.225 37.7713 113.35 37.7713 113.477 37.7652C113.521 37.7652 113.566 37.7575 113.61 37.7453C113.693 37.7193 113.74 37.6581 113.754 37.5724C113.766 37.4898 113.735 37.4194 113.665 37.372C113.621 37.3414 113.572 37.3292 113.518 37.3292L113.058 37.3246L113.044 37.3261V37.7713ZM113.044 38.5208H112.867V37.1747H112.882C113.085 37.1747 113.289 37.1747 113.491 37.1778C113.552 37.1778 113.61 37.1839 113.67 37.1931C113.803 37.2175 113.887 37.3001 113.924 37.4302C113.96 37.5632 113.939 37.6856 113.843 37.7912C113.787 37.8478 113.717 37.8738 113.641 37.8936C113.618 37.8998 113.595 37.9044 113.569 37.9135L113.576 37.9166C113.671 37.9625 113.737 38.039 113.794 38.1231L114.034 38.4933C114.037 38.5009 114.04 38.5086 114.046 38.5162L114.031 38.5193H113.836C113.824 38.5208 113.821 38.5132 113.817 38.504C113.746 38.3969 113.679 38.2868 113.605 38.1797C113.564 38.1185 113.52 38.0589 113.471 38.0023C113.428 37.9533 113.37 37.9258 113.303 37.9258C113.22 37.9258 113.137 37.9258 113.056 37.9227H113.044V38.5208Z" fill="white"/>
</g>
</g>
</svg>
