<svg width="128" height="80" viewBox="0 0 128 80" fill="none" xmlns="http://www.w3.org/2000/svg">
<g id="logo / payment method / zingpay / brand-dark">
<g id="wordmark">
<path id="zing" d="M80.3093 31.4603C80.6924 31.4603 81.0737 31.5023 81.4478 31.5844C81.8327 31.6683 82.2141 31.7741 82.5863 31.9018H86.9798V33.2557H84.035V33.3396C84.3561 33.7081 84.6097 34.1333 84.783 34.5912C84.9326 35.0474 85.0075 35.5254 85.0093 36.0071C85.0385 37.1802 84.5513 38.306 83.6755 39.0869C82.8508 39.886 81.7452 40.3312 80.5957 40.3276C80.5957 40.3276 79.1598 40.3276 79.0576 40.583C79.0576 40.583 77.7129 41.7544 79.0576 42.3711C79.6342 42.621 80.2472 42.7816 80.873 42.8418L81.0774 42.8546C81.3675 42.8746 81.7251 42.9148 82.1356 42.9148H82.402C83.0497 42.9969 83.5004 42.9969 83.7777 42.9969C84.1846 43.0206 84.5805 43.1246 84.9472 43.3034C85.3304 43.4986 85.6771 43.7541 85.9745 44.0643C86.3083 44.4109 86.5802 44.8123 86.7754 45.2539C86.9871 45.772 87.0929 46.3267 87.082 46.8868C87.0856 47.5218 86.9524 48.1512 86.6915 48.7333C86.4105 49.3317 85.9872 49.8517 85.4618 50.2513C84.8414 50.7129 84.1481 51.0596 83.4092 51.2785C82.4604 51.5376 81.477 51.658 80.4935 51.6379C79.023 51.7346 77.556 51.419 76.2551 50.7257C75.3355 50.1673 74.7955 49.1511 74.8502 48.0764C74.8192 47.2171 75.2005 46.3942 75.8756 45.8596C76.6182 45.2922 77.525 44.9783 78.461 44.9656V44.7831C78.2056 44.6901 77.9483 44.5861 77.6819 44.4638C77.4301 44.3544 77.1948 44.2084 76.9831 44.0332C76.7605 43.8417 76.5799 43.6081 76.4503 43.3454C76.2971 43.0261 76.2259 42.6721 76.2442 42.3182C76.2496 41.831 76.4157 41.3585 76.7167 40.9753C77.109 40.5246 77.6016 40.1725 78.1545 39.9481V39.7419C77.4064 39.3697 76.7623 38.8205 76.2752 38.1418C75.8191 37.4776 75.5819 36.6894 75.5983 35.883C75.5618 34.6824 76.0435 33.522 76.9229 32.7028C77.8425 31.8581 79.0594 31.4129 80.3093 31.4621V31.4603ZM80.9862 45.6553C79.7035 45.5823 78.4811 46.199 78.4811 47.7079C78.4847 47.9396 78.5358 48.1695 78.627 48.3829C78.731 48.6274 78.8934 48.8427 79.0978 49.0106C79.3441 49.2131 79.6305 49.3645 79.9389 49.4521C80.3585 49.5798 80.7964 49.6382 81.2325 49.6255C81.9623 49.6601 82.6848 49.4503 83.2851 49.0307C83.7832 48.5891 84.0769 47.9615 84.0952 47.2973C84.1353 46.8193 83.9401 46.3522 83.5715 46.0439C83.2066 45.8341 82.7925 45.7319 82.371 45.7465C81.9094 45.6553 81.4478 45.6553 80.9862 45.6553ZM55.9352 27.3131V30.9257L50.4324 42.9221H56.0373V45.991H45.7743V44.6572L52.4758 30.9768H45.9586V27.3131H55.9334H55.9352ZM61.7737 32.1773V45.991H58.0589V32.1792H61.7737V32.1773ZM70.683 31.4585C71.9492 31.3691 73.1716 31.9347 73.9252 32.9564C73.9598 33.0166 73.9909 33.0787 74.0164 33.1425C74.4032 34.0402 74.5583 35.0218 74.4689 35.9943V45.9928H70.4877V36.569C70.4969 35.9432 70.506 34.9269 69.8309 34.6204C69.5846 34.5146 69.3164 34.4744 69.05 34.5073C68.8219 34.5201 68.6012 34.5857 68.4041 34.7025C67.7783 35.1021 67.7783 36.1986 67.7783 36.8682V45.991H63.7953V31.6665H67.7783V32.4875C68.592 31.807 69.6211 31.4439 70.683 31.4603V31.4585ZM80.2162 32.9564C79.9644 32.951 79.7181 33.0221 79.5083 33.1626C79.2985 33.3122 79.1324 33.5129 79.0266 33.7465C78.9025 34.0147 78.8204 34.2975 78.7803 34.5894C78.7292 34.9215 78.7073 35.259 78.7073 35.5947C78.6818 36.257 78.8277 36.9139 79.1269 37.5032C79.3276 37.9393 79.7491 38.2275 80.2271 38.2513C80.7253 38.2567 81.1796 37.9685 81.3857 37.5141C81.6813 36.9412 81.8236 36.3008 81.7963 35.6568C81.8291 34.9762 81.6868 34.2975 81.3857 33.6862C81.1686 33.2374 80.7143 32.9546 80.218 32.9564H80.2162ZM59.9455 26.4611C60.4327 26.4629 60.8961 26.6727 61.2191 27.0358L61.365 27.2091C61.6369 27.5722 61.781 28.0156 61.7737 28.4717C61.7847 29.0136 61.5821 29.5372 61.2081 29.9295C60.8797 30.2999 60.4017 30.5061 59.9054 30.4951C59.4201 30.4915 58.9566 30.2835 58.6337 29.9186C57.9039 29.092 57.9039 27.8514 58.6337 27.0248L58.8161 26.8606C59.1373 26.607 59.5332 26.4665 59.9473 26.4592L59.9455 26.4611Z" fill="white"/>
<path id="pay" d="M124 31.879L118.773 47.2708L118.413 48.298L118.269 48.6538C118.081 49.11 117.911 49.4968 117.747 49.8161C117.503 50.2758 117.214 50.7083 116.884 51.1097L116.64 51.3724C116.295 51.7045 115.886 51.9635 115.437 52.135C114.822 52.3722 114.167 52.4872 113.509 52.4744C113.038 52.4744 112.567 52.4416 112.102 52.3722H111.732V49.7558L112.246 49.838C112.555 49.8854 112.867 49.9073 113.18 49.8982C113.72 49.9383 114.257 49.7777 114.687 49.4475C115.103 49.0333 115.392 48.5097 115.519 47.9386L115.704 47.2909L110.358 31.9592H114.525L117.235 42.4376L119.944 31.9592H123.392L123.996 31.8771L124 31.879ZM105.012 31.7348C106.331 31.6801 107.623 32.118 108.635 32.9664C109.659 33.9571 110.19 35.3529 110.082 36.7742V46.8311H107.331V45.8057C107.07 46.0794 106.769 46.3166 106.439 46.5027C105.709 46.9114 104.882 47.1157 104.049 47.0993C103.417 47.0993 102.793 46.9789 102.209 46.7399C101.655 46.5082 101.158 46.1578 100.753 45.7127C100.345 45.2839 100.027 44.7785 99.8193 44.2257L99.6952 43.8498C99.5492 43.3462 99.4763 42.8226 99.4799 42.2953C99.4653 41.4852 99.6551 40.6824 100.035 39.9653C100.429 39.2866 101.02 38.7429 101.728 38.4054C102.54 38.004 103.439 37.8106 104.344 37.8398H107.3V36.8144C107.366 36.1758 107.152 35.5408 106.716 35.0701C106.223 34.6705 105.594 34.4716 104.961 34.5154C104.435 34.4899 103.914 34.6121 103.452 34.8657C103.087 35.1011 102.832 35.4678 102.733 35.8911L102.642 36.2104H99.9707V35.7361C100.014 34.5647 100.578 33.4736 101.511 32.762C102.532 32.045 103.762 31.6856 105.01 31.7348H105.012ZM92.9645 28.2664C94.5901 28.1314 96.2067 28.6149 97.4911 29.6202L97.7429 29.9176C98.6224 31.036 99.0493 32.4537 98.9289 33.8805C98.9709 35.0336 98.7282 36.1794 98.2191 37.2158C97.7393 38.1134 96.9584 38.8159 96.0133 39.1954L95.4294 39.3669C94.4533 39.6242 93.4443 39.7464 92.4317 39.73V46.6067H88.5107V28.2664H92.9645ZM107.026 40.52L104.746 40.551C104.271 40.5018 103.8 40.6952 103.496 41.0637C103.222 41.4815 103.091 41.9723 103.114 42.4686C103.071 43.0415 103.242 43.609 103.598 44.0614L103.742 44.2056C104.045 44.4756 104.439 44.6252 104.85 44.6252C105.474 44.6252 106.056 44.3169 106.41 43.8042C106.842 43.2094 107.059 42.485 107.026 41.7516V40.52ZM92.6889 31.2696L92.4317 31.2842V36.672C93.0922 36.7195 93.7508 36.5553 94.311 36.1977C94.7872 35.6284 95.0043 34.884 94.9039 34.1469C94.9751 33.3587 94.7598 32.5723 94.3 31.9301C93.8037 31.4484 93.1195 31.2112 92.4317 31.2842L92.6889 31.2696Z" fill="#72C579"/>
</g>
<g id="logo">
<path id="Vector" d="M23.6156 50.6113C23.6338 50.6606 23.6521 50.708 23.6776 50.7536C23.7743 50.9799 23.902 51.1915 24.0571 51.3794C24.1885 51.5619 24.3363 51.7297 24.4986 51.883C24.8271 52.1895 25.1974 52.4486 25.597 52.653C25.8233 52.7606 26.0568 52.8537 26.294 52.9303C26.8943 52.6694 27.5402 52.5325 28.1933 52.5289C28.5911 52.5325 28.987 52.5836 29.3738 52.684C30.8572 51.8757 31.7129 50.2592 31.5487 48.5788C31.6509 46.6447 30.3536 44.9169 28.4707 44.4735C28.197 44.51 27.9233 44.5283 27.6496 44.5337C25.8324 44.5337 23.4003 43.8058 22.5172 42.0195C21.9735 40.8701 22.5172 39.5874 22.2417 38.3978C21.9753 37.3888 21.3659 36.5076 20.5175 35.9037C19.7658 35.3563 18.859 35.0644 17.9303 35.0717C16.2845 35.0078 14.7629 35.9493 14.0878 37.4509C13.4109 38.9543 13.7119 40.7168 14.8505 41.9064C15.6168 42.7457 16.675 43.2566 17.8062 43.3332H18.3518C20.1143 43.3752 21.76 44.229 22.8073 45.6504C23.8546 47.068 24.1885 48.8926 23.7086 50.5894L23.6174 50.6095L23.6156 50.6113Z" fill="#A8E2C1"/>
<path id="Vector_2" d="M12.7995 49.9933C12.7557 49.7342 12.7266 49.4751 12.7174 49.2124V49.0281C12.712 47.0303 13.7665 45.1783 15.4871 44.1639H15.5382C16.372 43.695 17.3116 43.4469 18.2695 43.445C18.7512 43.445 18.7932 43.1586 19.2438 43.2717C20.9407 42.7262 22.1503 41.2264 22.3237 39.4529C22.3528 38.2852 21.8858 37.1595 21.0337 36.3585C20.1835 35.5557 19.0322 35.1543 17.8681 35.2547C15.4597 35.355 13.5896 37.3839 13.6808 39.7923C13.8359 41.6114 12.9966 43.3739 11.484 44.3993C9.935 45.2313 8.13965 44.6255 6.6417 45.6527C5.03063 46.6581 4.25702 48.5902 4.72776 50.4294C5.19849 52.2685 6.80226 53.5931 8.69796 53.7044C10.5937 53.8139 12.3416 52.6882 13.024 50.9165C12.9254 50.6155 12.8488 50.3071 12.7995 49.9933Z" fill="#93D9E5"/>
<path id="Vector_3" d="M37.502 54.0051C36.4073 54.089 35.3126 53.8537 34.351 53.3282C33.5793 52.9487 32.9316 52.3576 32.4827 51.6241C31.897 50.7319 31.585 49.6864 31.5887 48.6172C31.5905 47.9987 31.6963 47.3857 31.8989 46.8018C30.9464 45.0503 28.9157 44.1854 26.9963 44.7109C25.0751 45.2382 23.7669 47.0171 23.8417 49.0077C23.8125 50.6589 24.774 52.1678 26.2847 52.8356C26.7774 52.6513 27.2974 52.5437 27.8228 52.5181C30.3991 52.3466 32.6542 54.2241 32.9553 56.7875C33.1925 58.0282 32.9553 59.3419 33.6541 60.5224C34.4386 61.878 35.8837 62.7137 37.4491 62.7191C39.7809 62.606 41.6091 60.6848 41.6091 58.3512C41.6091 56.0194 39.7809 54.0982 37.4491 53.985L37.502 54.0051Z" fill="#A8E2C1"/>
<path id="Vector_4" d="M17.9301 34.7722C16.7679 34.8927 15.5947 34.6865 14.5437 34.1774C13.8139 33.7487 13.2118 33.132 12.7976 32.3912C12.628 32.0409 12.5148 31.6669 12.4601 31.2837C12.2448 30.335 12.2448 29.3497 12.4601 28.3991C11.6847 26.3137 9.46603 25.1478 7.3076 25.6897C5.15099 26.2316 3.74791 28.3097 4.05079 30.5119C4.35366 32.716 6.26578 34.3398 8.48808 34.2796C9.54449 34.2139 10.5954 34.4675 11.5059 35.0094C12.1445 35.3853 12.6772 35.9181 13.0567 36.5585C13.9581 38.0966 13.3012 39.7095 14.2244 41.2384C15.2334 42.917 17.2313 43.7289 19.1252 43.2235C21.0172 42.7181 22.3473 41.0213 22.3838 39.0636C22.3619 37.9032 21.8821 36.7993 21.0464 35.9947C20.2108 35.1901 19.0905 34.7504 17.9301 34.7722Z" fill="#93D9E5"/>
<path id="Vector_5" d="M17.6017 16.0031C15.6202 16.0542 13.9289 17.4445 13.4965 19.3785C13.3213 20.3035 13.3432 21.2578 13.179 22.181C13.0549 22.9637 12.7484 23.7045 12.285 24.3467C11.8161 24.989 11.1246 25.4305 10.3455 25.5874C9.6631 25.6422 8.97707 25.6422 8.29286 25.5874C6.1618 25.6239 4.36827 27.193 4.04898 29.3004C3.73151 31.4077 4.98497 33.4366 7.01021 34.0971C9.01721 34.7138 11.1829 33.8617 12.2339 32.0445C12.3251 31.8803 12.389 31.7051 12.4182 31.5208C12.4546 31.2782 12.4546 31.0337 12.4182 30.791C12.2375 29.7091 12.3634 28.5961 12.7776 27.5798C13.2064 26.5581 14.0055 25.737 15.0145 25.2809C16.3391 24.7153 17.879 24.9525 19.2438 24.469C20.8676 23.8395 21.9623 22.3087 22.0353 20.5699C22.0992 19.3621 21.6558 18.1816 20.8129 17.3149C19.9663 16.4483 18.7986 15.9721 17.5889 16.0013H17.5999L17.6017 16.0031Z" fill="#93D9E5"/>
<path id="Vector_6" d="M37.2354 34.8887C34.8233 34.9508 32.9185 36.9523 32.9751 39.3625C33.0444 40.4189 32.7926 41.4698 32.258 42.3803C31.8712 43.0134 31.3403 43.5444 30.7072 43.9312C29.1563 44.8343 27.361 44.2286 25.832 45.1518C24.491 46.0367 23.7301 47.5748 23.8414 49.1767C23.9509 50.7787 24.9179 52.1982 26.3666 52.8897C26.9468 52.6525 27.5671 52.5321 28.193 52.5302C28.7768 52.5302 29.3534 52.6397 29.8971 52.8495C30.7802 52.4299 31.5027 51.7293 31.9497 50.8571C31.6705 50.1729 31.5282 49.4413 31.53 48.7042C31.4607 46.4144 32.8729 44.3435 35.0277 43.5717C35.4163 43.4349 35.8268 43.3692 36.2392 43.3765H36.4034C37.4671 43.5553 38.5582 43.4312 39.5544 43.0171C40.9264 42.2106 41.7566 40.7291 41.7292 39.1381C41.6982 37.9777 41.2056 36.8775 40.3627 36.082C39.5197 35.2846 38.394 34.8559 37.2354 34.8887Z" fill="#A8E2C1"/>
<path id="Vector_7" d="M31.6107 48.5972C31.6107 47.9203 31.7366 47.247 31.9811 46.6157C31.1527 45.3075 29.7004 44.5285 28.1513 44.5631C27.8831 44.5741 27.6168 44.6051 27.3522 44.6543C27.0931 44.7109 26.8395 44.7857 26.5932 44.8824C26.3542 44.9828 26.1243 45.1032 25.9053 45.24C25.6864 45.3732 25.4857 45.5283 25.2996 45.7035C25.1062 45.8731 24.931 46.0629 24.7759 46.2672C24.619 46.4698 24.484 46.6869 24.3654 46.9131C24.2414 47.1394 24.1392 47.3766 24.0571 47.6211C23.9823 47.8765 23.9275 48.1374 23.8929 48.402C23.8929 48.7723 23.8929 49.15 23.8308 49.5204C23.8254 49.6956 23.8071 49.8707 23.7797 50.0441C23.756 50.2101 23.7214 50.3743 23.6776 50.5367C23.5736 50.8614 23.4422 51.1771 23.2871 51.4818C23.1849 51.6843 23.0718 51.8832 22.9496 52.0766C21.9899 53.7242 20.1945 54.7039 18.2897 54.6218C18.0105 54.6127 17.7332 54.589 17.4577 54.5488C17.1566 54.6346 16.8684 54.755 16.5965 54.9083C15.2427 55.7293 14.4308 57.2072 14.4618 58.7891C14.5202 61.2303 16.5491 63.1625 18.9921 63.1041C21.437 63.0439 23.3674 61.015 23.3072 58.572C23.2451 57.7327 23.3491 56.8879 23.6174 56.0906C24.1702 53.9851 26.0805 52.5236 28.2553 52.5382C28.914 52.5382 29.5672 52.6714 30.1748 52.9287C31.0232 52.5127 31.7165 51.8358 32.1544 50.9983C31.7931 50.2502 31.607 49.4292 31.6107 48.5972Z" fill="#81D9B9"/>
<path id="Vector_8" d="M27.7116 52.5281C29.8539 52.5281 31.5906 50.7408 31.5906 48.536C31.5906 46.3313 29.8539 44.5439 27.7116 44.5439C25.5693 44.5439 23.8326 46.3313 23.8326 48.536C23.8326 50.7408 25.5693 52.5281 27.7116 52.5281Z" fill="#81D9B9"/>
<path id="Vector_9" d="M19.9829 54.417C19.4812 54.5575 18.963 54.6304 18.443 54.6323H18.2386C15.1515 54.6104 12.6647 52.0962 12.6756 49.009V48.9269V48.7627V48.3102C12.6866 48.1643 12.7066 48.022 12.7376 47.8796C12.7668 47.6972 12.8088 47.5147 12.8599 47.3359C12.0516 45.8872 10.5062 45.0042 8.8459 45.0479C7.24212 45.0206 5.75147 45.8745 4.96327 47.2739C4.17506 48.6733 4.21885 50.3902 5.07274 51.7495C5.93027 53.107 7.46107 53.8879 9.06302 53.7802C10.1395 53.7091 11.2105 53.959 12.141 54.4991C12.8198 54.8512 13.3981 55.3657 13.8251 55.9989C14.7483 57.5479 14.1334 59.3432 15.0767 60.8722C15.9342 62.1968 17.4213 62.9759 18.9977 62.9248C21.1944 62.9248 23.0463 61.2827 23.3072 59.1006C23.57 56.9184 22.1578 54.8859 20.023 54.3659L19.9829 54.417Z" fill="#93D9E5"/>
<path id="Vector_10" d="M23.3072 58.5095C23.2451 56.5518 21.8859 54.8732 19.9829 54.4043H19.8588C19.7256 54.4043 19.5833 54.4663 19.4483 54.4973H18.2386C17.974 54.4937 17.7095 54.4718 17.4486 54.4353C17.1493 54.5156 16.8647 54.6324 16.5965 54.7856C15.2427 55.6067 14.4308 57.0845 14.4618 58.6646C14.4873 60.075 15.219 61.3777 16.4122 62.1331L16.5856 62.2462C16.7936 62.3739 17.0125 62.4816 17.2424 62.5637H17.3446C17.5617 62.6366 17.777 62.6877 17.9923 62.7388H18.1875C18.4466 62.7644 18.7075 62.7644 18.9666 62.7388C21.3075 62.7078 23.216 60.8504 23.309 58.5113L23.3072 58.5095Z" fill="#81D9B9"/>
<path id="Vector_11" d="M18.0015 43.3517C20.4109 43.3517 22.364 41.4312 22.364 39.0622C22.364 36.6932 20.4109 34.7727 18.0015 34.7727C15.5922 34.7727 13.639 36.6932 13.639 39.0622C13.639 41.4312 15.5922 43.3517 18.0015 43.3517Z" fill="#81D9B9"/>
</g>
</g>
</svg>
