<svg width="344" height="59" viewBox="0 0 344 59" fill="none" xmlns="http://www.w3.org/2000/svg">
<g id="logo / sub-brand / deriv demo / black">
<g id="logo">
<path d="M35.7537 1.82853L32.7639 18.7839H22.3855C12.7032 18.7839 3.47431 26.6284 1.7638 36.3108L1.0398 40.4319C-0.662743 50.1143 5.79742 57.959 15.4798 57.959H24.1358C31.1927 57.959 37.9154 52.2464 39.1566 45.1897L47.1283 0L35.7537 1.82853ZM28.3896 43.5905C28.0077 45.7704 26.0452 47.5447 23.8653 47.5447H18.6065C14.2546 47.5447 11.3427 44.012 12.1065 39.6522L12.56 37.0825C13.3317 32.7306 17.4846 29.1902 21.8365 29.1902H30.9289L28.3896 43.5905ZM115.681 57.9581L122.491 19.324H133.264L126.453 57.9581H115.673H115.681ZM116.846 19.7695C116.306 22.8339 115.764 25.8983 115.224 28.9627C110.121 27.3768 104.855 27.8818 103.238 28.2044C101.491 38.1247 99.7414 48.0473 97.992 57.9676H87.2127C88.6765 49.6671 93.6774 21.3197 93.6774 21.3197C97.1833 19.8679 105.793 16.9214 116.846 19.7695ZM73.1698 18.7773H64.7844C56.6136 18.7773 48.8251 25.3966 47.3849 33.5673L45.6904 43.1701C44.2502 51.3408 49.7002 57.9603 57.871 57.9603H75.708L77.5379 47.5778H60.7745C58.0538 47.5778 56.2318 45.3739 56.7172 42.645L56.773 42.3188H83.7991L85.3425 33.5673C86.7823 25.3966 81.3327 18.7773 73.1619 18.7773H73.1698ZM74.5303 32.7399L74.4668 33.2968H58.396L58.4836 32.8036C58.9686 30.0827 61.4511 27.6879 64.1796 27.6879H70.4569C73.1541 27.6879 74.9761 30.0429 74.5303 32.7399ZM175.294 19.324C171.622 29.0872 163.207 45.6952 155.055 57.9581H144.275C140.532 46.2868 138.116 30.0248 137.655 19.324H148.435C148.63 22.8146 150.193 35.7617 151.976 44.8066C156.867 36.0072 162.259 24.4623 164.506 19.324H175.294Z" fill="#414652"/>
<path d="M205.468 50.3037C205.539 51.4443 205.708 52.5957 205.978 53.7588C206.247 54.9238 206.671 56.1738 207.249 57.5107L201.212 58.4033C200.599 57.3135 200.098 56.001 199.707 54.4648C198.677 55.456 197.276 56.4463 195.505 57.4375C193.733 58.4277 191.51 58.9228 188.835 58.9228C186.655 58.9228 184.753 58.5888 183.127 57.9199C181.5 57.251 180.13 56.2978 179.013 55.0596C177.897 53.8222 177.038 52.3476 176.438 50.6387C175.837 48.9297 175.475 47.0605 175.35 45.0293C175.146 41.7109 175.503 38.4658 176.423 35.2959C177.342 32.126 178.828 29.3027 180.88 26.8252C182.931 24.3496 185.57 22.3564 188.796 20.8447C192.021 19.334 195.838 18.5781 200.248 18.5781C200.792 18.5781 201.338 18.6035 201.887 18.6523C202.435 18.7021 203.009 18.7773 203.609 18.875L206.7 1.48926L213.834 0.300781L206.032 43.7656C205.853 44.9053 205.698 45.9951 205.564 47.0351C205.43 48.0752 205.398 49.165 205.468 50.3037ZM189.886 53.0537C191.967 53.0537 193.71 52.6201 195.119 51.7529C196.526 50.8867 197.74 49.8838 198.76 48.7441C198.76 47.9521 198.794 47.0976 198.862 46.1806C198.929 45.2646 199.053 44.2617 199.234 43.1719L202.55 24.5967C202.098 24.498 201.598 24.4365 201.052 24.4111C200.505 24.3867 199.984 24.374 199.489 24.374C196.666 24.374 194.148 24.9189 191.937 26.0088C189.726 27.0986 187.871 28.5605 186.374 30.3926C184.877 32.2246 183.769 34.3428 183.05 36.7441C182.331 39.1474 182.053 41.6611 182.214 44.2861C182.284 45.4258 182.474 46.5146 182.787 47.5547C183.098 48.5957 183.551 49.5234 184.147 50.3408C184.742 51.1582 185.512 51.8154 186.46 52.3105C187.407 52.8066 188.549 53.0537 189.886 53.0537Z" fill="#414652"/>
<path d="M229.551 58.9228C227.025 58.9228 224.823 58.5625 222.947 57.8457C221.07 57.1279 219.473 56.1367 218.157 54.874C216.841 53.6103 215.834 52.1377 215.136 50.4531C214.438 48.7695 214.031 46.9863 213.915 45.1025C213.702 41.6367 214.017 38.293 214.859 35.0723C215.701 31.8535 217.012 29.0058 218.791 26.5283C220.571 24.0517 222.802 22.083 225.486 20.6211C228.17 19.1611 231.27 18.4297 234.788 18.4297C236.818 18.4297 238.58 18.6894 240.074 19.21C241.566 19.7295 242.798 20.4355 243.77 21.3271C244.741 22.2187 245.486 23.2471 246.003 24.4111C246.52 25.5752 246.817 26.7773 246.893 28.0146C247.037 30.3437 246.737 32.3125 245.994 33.9209C245.25 35.5312 244.218 36.8808 242.899 37.9707C241.579 39.0605 240.009 39.9023 238.188 40.4961C236.368 41.0908 234.464 41.5625 232.48 41.9082C230.495 42.2558 228.478 42.4912 226.431 42.6142C224.382 42.7383 222.444 42.8496 220.619 42.9482C220.593 43.3457 220.588 43.667 220.603 43.914C220.619 44.1631 220.631 44.3603 220.64 44.5088C220.71 45.6484 220.913 46.7265 221.248 47.7412C221.582 48.7568 222.145 49.6484 222.935 50.416C223.726 51.1846 224.79 51.79 226.131 52.2363C227.47 52.6816 229.206 52.9043 231.336 52.9043C232.276 52.9043 233.249 52.8193 234.254 52.6445C235.259 52.4717 236.211 52.249 237.111 51.9756C238.011 51.7041 238.811 51.4316 239.513 51.1582C240.214 50.8867 240.706 50.6269 240.988 50.3789L241.943 56.248C240.985 56.7939 239.424 57.376 237.258 57.9941C235.092 58.6133 232.523 58.9228 229.551 58.9228ZM221.186 37.6728C224.052 37.5752 226.666 37.3887 229.027 37.1162C231.388 36.8447 233.414 36.373 235.107 35.7041C236.799 35.0361 238.094 34.1328 238.99 32.9922C239.886 31.8535 240.277 30.3682 240.164 28.5342C240.137 28.0879 240.02 27.6182 239.817 27.123C239.613 26.6279 239.288 26.1699 238.841 25.748C238.394 25.3281 237.791 24.9814 237.031 24.708C236.271 24.4365 235.346 24.2988 234.257 24.2988C232.522 24.2988 230.924 24.6709 229.459 25.4141C227.993 26.1572 226.704 27.1357 225.59 28.3486C224.476 29.5635 223.547 30.9746 222.805 32.584C222.061 34.1943 221.522 35.8896 221.186 37.6728Z" fill="#414652"/>
<path d="M291.481 18.5039C293.66 18.5039 295.525 18.8379 297.078 19.5068C298.63 20.1758 299.898 21.0801 300.886 22.2187C301.872 23.3594 302.609 24.6836 303.099 26.1943C303.588 27.7051 303.885 29.3027 303.988 30.9863C304.055 32.0762 304.04 33.2519 303.945 34.5156C303.849 35.7783 303.69 37.0049 303.466 38.1933L299.927 57.957H293.017L296.276 39.6797C296.453 38.54 296.659 37.2646 296.895 35.8525C297.13 34.4414 297.205 33.042 297.12 31.6553C297.061 30.7148 296.894 29.7978 296.616 28.9053C296.338 28.0146 295.92 27.2471 295.36 26.6025C294.8 25.96 294.037 25.4394 293.072 25.042C292.106 24.6465 290.93 24.4482 289.543 24.4482C287.958 24.4482 286.442 24.7578 284.994 25.3769C283.546 25.9971 282.347 26.6279 281.396 27.2715C281.537 27.9658 281.666 28.6455 281.782 29.3144C281.897 29.9834 281.975 30.6406 282.014 31.2832C282.084 32.4238 282.068 33.5752 281.966 34.7383C281.864 35.9023 281.725 37.0547 281.548 38.1933L278.008 57.957H271.099L274.358 39.6797C274.535 38.54 274.728 37.2529 274.937 35.8154C275.146 34.3799 275.206 32.9433 275.118 31.5058C275.06 30.5664 274.905 29.6611 274.654 28.7949C274.402 27.9287 274.021 27.1728 273.512 26.5283C273 25.8848 272.338 25.3769 271.523 25.0049C270.707 24.6338 269.68 24.4482 268.443 24.4482C267.204 24.4482 266.007 24.5225 264.853 24.6709C263.698 24.8193 262.731 25.0176 261.955 25.2646L256.09 57.957H249.18L255.81 20.8076C257.997 20.1143 260.402 19.5566 263.026 19.1357C265.65 18.7148 268.003 18.5039 270.083 18.5039C272.164 18.5039 273.943 18.8633 275.425 19.581C276.905 20.2998 278.102 21.2529 279.018 22.4414C279.492 22.0957 280.148 21.6982 280.988 21.2529C281.827 20.8076 282.792 20.3867 283.882 19.9902C284.973 19.5937 286.164 19.2471 287.459 18.9502C288.753 18.6523 290.094 18.5039 291.481 18.5039Z" fill="#414652"/>
<path d="M323.315 58.9228C319.253 58.9228 315.997 57.7226 313.546 55.3193C311.095 52.917 309.74 49.6113 309.481 45.4004C309.304 42.5283 309.527 39.5058 310.149 36.3359C310.771 33.167 311.892 30.2432 313.511 27.5683C315.129 24.8935 317.297 22.6904 320.014 20.956C322.73 19.2226 326.095 18.3555 330.107 18.3555C334.167 18.3555 337.425 19.5566 339.876 21.959C342.327 24.3623 343.683 27.668 343.941 31.8779C344.118 34.751 343.895 37.7734 343.273 40.9424C342.65 44.1133 341.53 47.0351 339.912 49.7099C338.293 52.3847 336.125 54.5898 333.409 56.3222C330.692 58.0556 327.327 58.9228 323.315 58.9228ZM324.143 53.0537C326.372 53.0537 328.326 52.4101 330.005 51.1211C331.684 49.834 333.068 48.1865 334.159 46.1806C335.249 44.1748 336.041 41.958 336.536 39.5303C337.03 37.1045 337.208 34.751 337.068 32.4717C336.913 29.9463 336.244 27.9404 335.063 26.4541C333.881 24.9678 331.954 24.2246 329.279 24.2246C327.05 24.2246 325.096 24.8691 323.417 26.1572C321.738 27.4453 320.353 29.0918 319.263 31.0976C318.172 33.1035 317.38 35.3213 316.886 37.7471C316.391 40.1748 316.214 42.5283 316.354 44.8066C316.51 47.332 317.178 49.3379 318.359 50.8242C319.539 52.3105 321.468 53.0537 324.143 53.0537Z" fill="#414652"/>
</g>
</g>
</svg>
