<svg width="128" height="80" viewBox="0 0 128 80" fill="none" xmlns="http://www.w3.org/2000/svg">
<g id="logo / payment method / cardano / black">
<g id="logo">
<path d="M24.9635 20.2605C25.9034 19.7738 27.0446 20.8982 26.5411 21.8381C26.2558 22.5933 25.1649 22.8115 24.5943 22.2241C24.0069 21.6702 24.1915 20.5626 24.9635 20.2605ZM14.8769 21.3514C15.4476 21.1164 16.1692 21.6367 16.1021 22.2576C16.1692 22.929 15.3469 23.4325 14.7595 23.1136C14.0042 22.8115 14.0881 21.5695 14.8769 21.3514ZM35.52 23.1304C34.6305 23.0297 34.4963 21.6199 35.3522 21.3514C36.0235 21.0325 36.6277 21.6367 36.7284 22.2576C36.5773 22.7947 36.1242 23.2814 35.52 23.1304ZM17.1762 25.631C18.1328 25.0268 19.4923 25.9331 19.3412 27.024C19.2909 28.1317 17.814 28.7862 16.9748 28.031C16.1692 27.4436 16.2867 26.1009 17.1762 25.631ZM31.6935 26.2688C32.1131 25.1779 33.8417 25.1443 34.3116 26.2016C34.7816 27.024 34.1942 28.0478 33.355 28.3331C32.2305 28.568 31.1564 27.3429 31.6935 26.2688ZM23.7384 28.2827C23.7216 27.3429 24.5775 26.638 25.4838 26.5709C26.0712 26.6884 26.7257 26.9401 26.9775 27.5443C27.4474 28.3667 27.0278 29.5079 26.1719 29.8771C25.7859 30.0953 25.316 30.0114 24.8964 29.9946C24.2418 29.6757 23.688 29.0548 23.7384 28.2827ZM8.76793 29.6589C9.64065 29.1219 10.8155 30.0953 10.4798 31.0351C10.2952 31.8575 9.20429 32.1764 8.56653 31.6561C7.89521 31.1862 8.0127 30.0114 8.76793 29.6589ZM40.9241 29.6589C41.6626 29.0883 42.871 29.7429 42.787 30.6659C42.8374 31.5219 41.7801 32.1596 41.0584 31.7232C40.2528 31.354 40.1689 30.1121 40.9241 29.6589ZM27.9509 31.3372C29.1593 30.9009 30.6194 31.4212 31.3075 32.512C32.2138 33.8379 31.7271 35.8519 30.3173 36.6239C28.8404 37.5302 26.6922 36.7581 26.1551 35.1134C25.5341 33.6533 26.4404 31.8072 27.9509 31.3372ZM20.8181 31.4883C22.1608 30.8505 23.9733 31.3876 24.6279 32.7638C25.3999 34.1064 24.7957 35.9693 23.4363 36.6742C22.0601 37.4462 20.13 36.8588 19.4587 35.4155C18.7202 34.0225 19.3748 32.126 20.8181 31.4883ZM13.6686 33.9386C13.7693 33.0659 14.5916 32.512 15.414 32.4449C16.3035 32.5456 17.0084 33.2505 17.1091 34.14C17.0587 35.0295 16.3538 35.9022 15.414 35.9022C14.3902 35.9861 13.4672 34.9624 13.6686 33.9386ZM34.7816 32.6295C35.8557 32.0086 37.3326 32.9148 37.2822 34.14C37.3494 35.4323 35.7214 36.3554 34.6473 35.6001C33.5396 34.9624 33.6403 33.1666 34.7816 32.6295ZM17.9147 37.2113C19.1566 36.8756 20.5999 37.463 21.2041 38.6043C21.8754 39.7623 21.6069 41.3735 20.5664 42.2126C19.2237 43.4546 16.7566 42.9511 16.0517 41.256C15.2294 39.7119 16.2196 37.6141 17.9147 37.2113ZM31.4585 37.2113C32.6669 36.8588 34.0935 37.3288 34.748 38.4364C35.6039 39.6952 35.2011 41.5916 33.9088 42.3972C32.5662 43.3371 30.4851 42.8504 29.7299 41.3735C28.8404 39.8294 29.7467 37.6644 31.4585 37.2113ZM9.87561 38.6546C10.9497 38.2518 12.1581 39.4434 11.7217 40.5007C11.4532 41.4742 10.077 41.8434 9.37212 41.1217C8.53297 40.4504 8.85184 38.9399 9.87561 38.6546ZM39.1284 40.1987C39.0948 39.3092 39.7493 38.5204 40.6724 38.47C41.4108 38.5875 42.1325 39.1749 42.0654 39.9805C42.1325 41.0378 40.857 41.7595 39.9507 41.2728C39.5311 41.0546 39.313 40.6182 39.1284 40.1987ZM4.57218 39.1749C5.22672 38.8896 6.0323 39.4602 5.88126 40.1819C5.84769 41.0042 4.63932 41.3063 4.20296 40.635C3.80017 40.1483 4.03513 39.4099 4.57218 39.1749ZM45.5059 39.1581C45.959 38.8392 46.6975 39.0742 46.8821 39.5945C47.1842 40.1819 46.6304 40.9707 45.9758 40.87C45.0527 40.9707 44.7507 39.5609 45.5059 39.1581ZM21.4391 43.0685C23.151 42.6322 24.9803 44.042 24.9971 45.8042C25.1146 47.5832 23.302 49.1608 21.5566 48.7412C20.1971 48.523 19.1398 47.2139 19.1902 45.8545C19.1734 44.5622 20.1636 43.3539 21.4391 43.0685ZM28.2026 43.0685C29.9313 42.5818 31.8278 44.042 31.7942 45.8377C31.8781 47.5832 30.1327 49.1104 28.4208 48.758C26.8096 48.5566 25.618 46.7776 26.0712 45.2168C26.3062 44.1762 27.1789 43.3203 28.2026 43.0685ZM15.1622 44.1594C16.3538 43.958 17.4951 45.3007 17.0084 46.4251C16.6559 47.6335 14.8937 47.9692 14.1049 46.979C13.1819 46.0224 13.87 44.2937 15.1622 44.1594ZM34.9997 44.2098C36.0738 43.7566 37.3829 44.6797 37.299 45.8545C37.3494 47.13 35.7214 48.0195 34.6809 47.2643C33.4893 46.593 33.7074 44.6126 34.9997 44.2098ZM40.5549 49.765C40.1353 48.9762 40.8906 47.9524 41.7633 48.0867C42.1996 48.0867 42.5017 48.4223 42.7703 48.7076C42.8206 49.1775 42.9213 49.7146 42.5353 50.0838C42.015 50.7552 40.8234 50.5538 40.5549 49.765ZM8.76793 48.3216C9.57351 47.7846 10.7483 48.5901 10.5637 49.53C10.463 50.3691 9.40568 50.8391 8.71758 50.3691C7.96235 49.9328 7.99591 48.7076 8.76793 48.3216ZM24.7621 50.067C25.8194 49.5971 27.1789 50.5202 27.0782 51.695C27.1621 52.9873 25.4838 53.8768 24.4432 53.1048C23.302 52.4335 23.4866 50.4866 24.7621 50.067ZM17.3608 51.7957C18.2671 51.3258 19.4755 52.1481 19.3916 53.1551C19.4251 53.9775 18.6028 54.6992 17.7972 54.5649C17.1259 54.5481 16.6727 53.9439 16.4545 53.3565C16.4545 52.7355 16.7231 52.0307 17.3608 51.7957ZM32.3816 51.8125C33.3047 51.2419 34.6305 52.0642 34.5466 53.1383C34.5634 54.2628 33.0697 54.9845 32.2138 54.246C31.3578 53.6754 31.4753 52.2824 32.3816 51.8125ZM34.983 58.2739C34.5634 57.653 35.0501 56.8977 35.7214 56.7467C36.2585 56.8642 36.8291 57.2669 36.7116 57.8879C36.6445 58.7439 35.4025 58.9956 34.983 58.2739ZM14.256 57.7201C14.4238 57.2166 14.8266 56.7299 15.3972 56.8642C16.2531 56.9313 16.5049 58.2068 15.7497 58.6096C15.0951 59.0627 14.3063 58.4418 14.256 57.7201ZM24.2586 58.2907C24.4265 57.5523 25.3663 57.1998 26.0041 57.5858C26.4236 57.7704 26.5411 58.2236 26.6418 58.6264C26.5915 58.8278 26.5411 59.0292 26.4908 59.2473C26.239 59.5494 25.9034 59.8515 25.4838 59.8515C24.6782 59.9354 23.9565 59.0459 24.2586 58.2907Z" fill="black"/>
<path fill-rule="evenodd" clip-rule="evenodd" d="M60.1911 36.7077L58.7142 38.6042C58.1771 37.7147 57.2876 37.2951 56.3981 37.2951C53.9646 37.228 53.2597 40.5007 54.7366 41.8098C55.9785 42.9342 57.4722 42.8167 58.7645 41.3398L60.2414 43.0685C59.2344 44.5454 56.3813 44.965 54.8373 44.6125C52.5212 44.0755 51.3968 42.3636 51.3968 40.165C51.3968 37.7315 53.1254 35.3651 55.9114 35.298C57.4554 35.298 59.0498 35.6504 60.2414 36.7749L60.1911 36.7077ZM74.7923 37.2951V40.0811C75.9167 40.0811 77.8803 40.3832 77.9307 38.7217C77.9475 36.9427 75.9839 37.3623 74.7923 37.2951ZM72.4259 35.2812H76.4538C79.2398 35.3483 80.3139 36.9427 80.3642 38.6042C80.4314 39.6783 79.9446 40.8028 78.8202 41.5748L80.7838 44.6629H77.9307C77.6957 44.2433 76.7391 42.1622 76.3363 41.9944C75.8664 41.8098 75.3293 41.8769 74.8594 41.8769V44.6629H72.4259V35.2812ZM82.395 35.3987C84.0565 35.3987 85.718 35.3315 87.3795 35.5162C88.3865 35.6336 89.3935 35.9861 90.1655 36.6406C90.9375 37.2951 91.4074 38.235 91.5249 39.1916C91.6424 40.3161 91.5249 41.5077 90.8704 42.5147C90.1655 43.5888 88.9068 44.2937 87.6145 44.4111C85.8858 44.6461 84.174 44.5286 82.395 44.5286V35.3315V35.3987ZM84.946 37.2448V42.6993C85.6509 42.6993 86.3725 42.8167 87.0774 42.5818C87.9669 42.3468 88.6215 41.7594 88.8061 40.9203C89.041 39.8462 88.9235 38.4867 87.9669 37.7819C87.0774 37.1105 85.953 37.2448 84.946 37.2448ZM96.0395 35.2812H98.5402L102.451 44.6629H99.5975L99.1276 42.8839H95.15L94.5626 44.6125L91.827 44.6797L95.9221 35.298H96.0395V35.2812ZM95.8717 41.0881H98.5402L97.1808 37.9497L95.8717 41.0881ZM103.995 35.2812H105.958L109.869 40.4503L109.936 35.2812H112.252L112.319 44.6629H110.355L106.328 39.5609L106.395 44.6629H104.028L104.095 35.2308L103.995 35.2812ZM119.133 35.2812C121.801 35.2812 124 37.4126 124 40.0308C124 42.6489 121.801 44.7804 119.133 44.7804C116.464 44.7804 114.266 42.6489 114.266 40.0308C114.266 37.4126 116.464 35.2812 119.133 35.2812ZM119.133 37.4798C120.559 37.4798 121.684 38.6042 121.684 39.9804C121.684 41.3398 120.559 42.4811 119.133 42.4811C117.706 42.4811 116.582 41.3566 116.582 39.9804C116.582 38.6042 117.706 37.4798 119.133 37.4798ZM64.6386 35.2812H67.1392L71.0497 44.6629H68.1966L67.7266 42.8839H63.7491L63.1617 44.6125L60.426 44.6797L64.5211 35.298H64.6386V35.2812ZM64.4707 41.0881H67.1392L65.7798 37.9497L64.4707 41.0881Z" fill="black"/>
</g>
</g>
</svg>
