<svg width="128" height="80" viewBox="0 0 128 80" fill="none" xmlns="http://www.w3.org/2000/svg">
<g id="logo / payment method / wire transfer / white">
<g id="logo">
<path d="M50.1501 45.7043C50.0942 45.4795 50.0222 45.1901 49.9339 44.8362C49.8734 45.0843 49.8141 45.3209 49.756 45.546C49.6977 45.7711 49.6384 45.9871 49.5779 46.1935L48.5522 49.5219H51.3224L50.2828 46.1935C50.2501 46.0927 50.2059 45.9294 50.1501 45.7043Z" fill="white"/>
<path d="M83.7019 33.252C84.1016 32.96 84.3015 32.5019 84.3015 31.8783C84.3015 31.1485 84.1152 30.6291 83.7421 30.3206C83.3691 30.0122 82.7426 29.8577 81.8621 29.8577H81.056V33.6899H81.8018C82.6689 33.6899 83.3019 33.5439 83.7019 33.252Z" fill="white"/>
<path d="M41.1579 45.639C40.9 45.4255 40.466 45.3186 39.8565 45.3186H39.2982V47.9716H39.8146C40.4147 47.9716 40.853 47.8706 41.1299 47.6683C41.4066 47.4663 41.5452 47.1493 41.5452 46.7171C41.5452 46.2118 41.4163 45.8527 41.1579 45.639Z" fill="white"/>
<path d="M96.9976 45.639C96.7396 45.4255 96.3056 45.3186 95.6963 45.3186H95.1381V47.9716H95.6546C96.2546 47.9716 96.693 47.8706 96.9696 47.6683C97.2463 47.4663 97.3848 47.1493 97.3848 46.7171C97.3848 46.2118 97.2558 45.8527 96.9976 45.639Z" fill="white"/>
<path d="M102.821 13H25.1793C22.3196 13 20.0014 15.2893 20.0014 18.1133V61.8867C20.0014 64.7107 22.3196 67 25.1793 67H102.821C105.68 67 107.999 64.7107 107.999 61.8867V18.1133C107.999 15.2893 105.68 13 102.821 13ZM90.5207 26.8019H99.562V29.9971H94.4416V32.5254H99.2696V35.6508H94.4416V38.1093H99.562V41.374H90.5207V26.8019ZM77.2865 26.8019H81.4895C83.1355 26.8019 84.283 26.8766 84.9315 27.0258C85.5799 27.175 86.1392 27.4257 86.6098 27.7772C87.1406 28.1754 87.5488 28.683 87.8344 29.3002C88.1201 29.9173 88.2627 30.5976 88.2627 31.3406C88.2627 32.469 87.9822 33.3861 87.4212 34.0928C86.8601 34.7996 86.0421 35.2689 84.967 35.5012L88.9887 41.374H84.4428L81.0562 35.6706V41.374H77.2865V26.8019ZM69.9787 26.8019H74.0408V41.374H69.9787V26.8019ZM28.0893 26.6953H46.4997V29.5807H28.0893V26.6953ZM28.0893 32.2961H46.4997V35.1813H28.0893V32.2961ZM28.0893 38.4062H46.4997V41.2916H28.0893V38.4062ZM35.3297 45.5872H33.0408V53.2913H30.2566V45.5872H27.9678V43.2029H35.3297V45.5872ZM52.4259 53.2913L51.9096 51.4859H47.9531L47.4228 53.2913H41.6449L39.3002 49.3427V53.2913H36.6904V43.2029H39.6003C40.74 43.2029 41.5342 43.2546 41.9832 43.3582C42.4321 43.4614 42.8195 43.6348 43.145 43.8784C43.5127 44.1539 43.7952 44.5054 43.9929 44.9326C44.1905 45.36 44.2895 45.831 44.2895 46.3453C44.2895 47.1264 44.0953 47.7615 43.7069 48.2506C43.3183 48.74 42.752 49.0648 42.0076 49.2259L44.6995 53.1563L48.1763 43.2029H51.6654L55.1962 53.2913H52.4259ZM52.2391 41.374L48.0763 26.8019H52.1382L53.8315 33.7693C53.9121 34.1278 53.9912 34.4861 54.0684 34.8444C54.1455 35.2027 54.2179 35.571 54.2851 35.9491C54.3456 35.6705 54.4111 35.3785 54.4817 35.0732C54.5522 34.768 54.6581 34.3333 54.7992 33.7691L56.6539 26.8017H59.8994L61.7539 33.7294C61.8412 34.0414 61.9219 34.3664 61.9958 34.7049C62.0697 35.0433 62.147 35.4315 62.2276 35.8694C62.3285 35.3517 62.4139 34.9255 62.4847 34.5903C62.5552 34.2552 62.6241 33.9681 62.6913 33.7294L64.4249 26.8017H68.4871L64.3142 41.3739H60.585L58.7606 35.1528C58.6934 34.9337 58.5825 34.5058 58.428 33.8688C58.3606 33.5836 58.307 33.3611 58.2668 33.2019C58.2331 33.3412 58.1862 33.5371 58.1257 33.7893C57.9711 34.433 57.8536 34.8877 57.773 35.1529L55.9788 41.374H52.2391ZM66.1587 53.2913H63.4861L59.6272 48.0819C59.5481 47.9762 59.4235 47.7639 59.254 47.4444C59.084 47.1252 58.8993 46.7496 58.6992 46.3178C58.7551 46.7406 58.7956 47.1146 58.8214 47.441C58.8467 47.7673 58.8597 48.0566 58.8597 48.3092V53.2913H56.1732V43.2029H58.8597L62.7185 48.3919C62.7931 48.4976 62.9151 48.7099 63.0848 49.0292C63.2546 49.3484 63.4419 49.7288 63.6466 50.1698C63.5908 49.7517 63.55 49.3797 63.5246 49.0533C63.499 48.7271 63.4861 48.4377 63.4861 48.1851V43.2031H66.1587V53.2913ZM74.0229 52.5854C73.3112 53.2351 72.3622 53.5601 71.1761 53.5601C70.4644 53.5601 69.8166 53.4406 69.2326 53.2018C68.6485 52.963 68.0872 52.5886 67.5472 52.0787L68.8034 50.032C69.2176 50.4962 69.6255 50.8428 70.028 51.0726C70.4304 51.3024 70.8317 51.4171 71.232 51.4171C71.6041 51.4171 71.9099 51.3183 72.1495 51.1206C72.3889 50.9232 72.5088 50.6727 72.5088 50.3695C72.5088 50.0343 72.4052 49.7758 72.1984 49.5946C71.9912 49.4129 71.5225 49.2259 70.7922 49.0328C69.7922 48.7666 69.0847 48.4194 68.6709 47.9921C68.2567 47.5649 68.0499 46.9794 68.0499 46.2348C68.0499 45.27 68.3766 44.4837 69.0304 43.8748C69.6839 43.2662 70.5316 42.9617 71.5738 42.9617C72.1366 42.9617 72.6704 43.0364 73.1752 43.1856C73.6798 43.3349 74.158 43.5612 74.6092 43.8643L73.7369 45.842C73.4206 45.5759 73.096 45.3746 72.7636 45.239C72.4308 45.1037 72.1017 45.0358 71.7761 45.0358C71.4413 45.0358 71.1691 45.1152 70.9597 45.2736C70.7504 45.4321 70.6457 45.6353 70.6457 45.8833C70.6457 46.1358 70.7375 46.3383 70.9214 46.4897C71.1051 46.6413 71.4601 46.786 71.9857 46.924L72.1111 46.9583C73.2462 47.2616 73.993 47.5946 74.3512 47.9575C74.5928 48.2058 74.7769 48.5032 74.9024 48.85C75.0278 49.1969 75.0909 49.5815 75.0909 50.0041C75.0907 51.0749 74.7348 51.9351 74.0229 52.5854ZM82.9131 45.4151H79.3682V47.1652H82.7108V49.3291H79.3682V53.2913H76.6538V43.2029H82.9131V45.4151ZM90.6865 45.4151H87.1418V47.1652H90.4844V49.3291H87.1418V51.0312H90.6865V53.2911H84.4272V43.2027H90.6865V45.4151ZM97.4833 53.2913L95.1386 49.3427V53.2913H92.5287V43.2029H95.4387C96.5786 43.2029 97.3726 43.2546 97.8216 43.3582C98.2705 43.4614 98.6579 43.6348 98.9836 43.8784C99.3512 44.1539 99.6335 44.5054 99.8315 44.9326C100.029 45.36 100.128 45.831 100.128 46.3453C100.128 47.1264 99.9337 47.7615 99.5455 48.2506C99.1569 48.74 98.5907 49.0648 97.8463 49.2259L100.63 53.2913H97.4833Z" fill="white"/>
</g>
</g>
</svg>
