<svg width="128" height="80" viewBox="0 0 128 80" fill="none" xmlns="http://www.w3.org/2000/svg">
<g id="logo / payment method / fasapay / black">
<path id="logo" fill-rule="evenodd" clip-rule="evenodd" d="M46.7601 33.68C45.4585 32.409 43.6744 31.7572 41.8601 31.89H41.6101C39.5157 31.9603 37.4644 32.5039 35.6101 33.48C34.4629 34.1105 33.5115 35.0446 32.8601 36.18C32.7793 36.3156 32.7793 36.4844 32.8601 36.62C32.9382 36.7534 33.0689 36.8478 33.2201 36.88L36.9301 37.67C37.1561 37.7234 37.3921 37.6368 37.5301 37.45C37.7788 37.0625 38.1232 36.7457 38.5301 36.53C39.3656 36.1378 40.3044 36.0222 41.2101 36.2C41.5391 36.2505 41.8286 36.4447 42.0001 36.73C42.1029 36.8844 42.1029 37.0856 42.0001 37.24C41.5701 37.85 40.5501 38.24 38.8501 38.35H38.2701C37.5413 38.3829 36.816 38.4698 36.1001 38.61C34.6182 38.8911 33.2011 39.4438 31.9201 40.24C30.6329 40.9481 29.6087 42.0529 29.0001 43.39C28.5164 44.7017 28.9613 46.1751 30.0901 47C31.0733 47.7917 32.3085 48.2034 33.5701 48.16C35.2614 48.1094 36.9153 47.6496 38.3901 46.82C38.4143 47.0094 38.4648 47.1945 38.5401 47.37C38.6258 47.5687 38.8237 47.6954 39.0401 47.69H43.7801C43.9985 47.6941 44.1987 47.5685 44.2901 47.37L44.4801 46.93C44.5421 46.7657 44.5074 46.5806 44.3901 46.45C44.1378 46.2406 43.9943 45.9278 44.0001 45.6C44.0241 45.4439 44.0713 45.2922 44.1401 45.15L46.4301 39.3L46.7101 38.63C47.3801 37.11 48.1801 35.22 46.7601 33.68ZM62.0701 33.47C60.0701 31.47 56.0701 31.61 53.1701 32.58C51.3939 33.1019 49.8268 34.1688 48.6901 35.63C48.1825 36.3536 48.0045 37.258 48.2001 38.12C48.5073 39.2064 49.2489 40.1181 50.2501 40.64C50.7739 40.9404 51.331 41.1787 51.9101 41.35C52.1912 41.4378 52.5495 41.518 52.9037 41.5972C52.9526 41.6081 53.0015 41.6191 53.0501 41.63L53.6601 41.76C54.1645 41.8332 54.6581 41.9675 55.1301 42.16C55.5201 42.33 55.7501 42.58 55.7401 42.82C55.7301 43.06 55.5201 43.28 55.1401 43.44C54.487 43.6924 53.7899 43.8115 53.0901 43.79C52.3559 43.8718 51.6158 43.7026 50.9901 43.31C50.7942 43.1128 50.7017 42.8353 50.7401 42.56C50.7484 42.411 50.6806 42.2679 50.5601 42.18C50.4416 42.0858 50.2904 42.0426 50.1401 42.06C45.5101 42.71 45.4901 42.84 45.4401 43.24C45.3678 43.7192 45.423 44.2089 45.6001 44.66C46.2623 46.125 47.6357 47.1428 49.2301 47.35C50.1779 47.5429 51.1428 47.64 52.1101 47.64C53.8494 47.644 55.5725 47.3041 57.1801 46.64C59.7301 45.58 61.9801 43.21 61.3501 40.74C60.8118 38.6269 58.6443 38.2226 56.719 37.8635L56.7001 37.86C55.9618 37.7463 55.2355 37.5656 54.5301 37.32L54.5094 37.3116C54.2373 37.2009 53.7998 37.023 53.7901 36.75C53.7218 36.2137 54.5853 36.0102 55.1383 35.8798C55.1524 35.8765 55.1664 35.8732 55.1801 35.87C55.982 35.6376 56.8444 35.75 57.5601 36.18C57.8176 36.3918 57.9526 36.7181 57.9201 37.05V37.24L63.0701 36V35.9C63.0714 34.9896 62.7118 34.1157 62.0701 33.47ZM77.2101 32.64C76.159 32.4128 75.0852 32.3088 74.0101 32.33C71.873 32.2312 69.7425 32.6354 67.7901 33.51C66.241 34.3226 65.0346 35.6638 64.3901 37.29H68.7501C69.0863 36.6325 69.6171 36.0948 70.2701 35.75C71.0661 35.4142 71.927 35.2604 72.7901 35.3C74.4101 35.3 75.1601 35.68 75.0501 36.44C75.0195 36.6099 74.9656 36.7748 74.8901 36.93C74.8066 37.086 74.6947 37.2251 74.5601 37.34C74.4281 37.4568 74.2877 37.5637 74.1401 37.66C73.97 37.7651 73.7844 37.8427 73.5901 37.89C73.3601 37.95 73.1701 38 73.0301 38.05C72.8232 38.1075 72.6128 38.1509 72.4001 38.18L71.7601 38.27L71.1201 38.34L70.5501 38.41L68.5501 38.64C67.5228 38.7702 66.5154 39.0254 65.5501 39.4C64.7896 39.6882 64.0701 40.0748 63.4101 40.55C62.905 40.9337 62.4513 41.3807 62.0601 41.88C61.7525 42.2558 61.4938 42.6691 61.2901 43.11C61.1566 43.3934 61.0592 43.6924 61.0001 44C60.8146 44.963 61.2048 45.9461 62.0001 46.52C63.0061 47.2293 64.2207 47.5814 65.4501 47.52H74.6367L73.6101 52.6401H79.8101L81.3201 45.2101C82.098 46.6867 83.6521 47.5881 85.3201 47.5301C87.0248 47.5475 88.6361 46.753 89.6601 45.3901C90.8468 43.8496 91.4586 41.9433 91.3901 40.0001C91.4599 38.0646 90.875 36.1621 89.7301 34.6001C88.7036 33.2001 87.0555 32.3928 85.3201 32.4401C83.6384 32.3799 82.0727 33.2951 81.3001 34.7901V32.6901H77.6101L77.6034 32.7233C77.4741 32.689 77.3429 32.6612 77.2101 32.64ZM35.9201 30.89L38.4701 27.24L38.1801 27.29H35.6101C33.4763 27.29 29.6277 27.3305 25.7804 27.3789L24.665 27.3932C20.7597 27.4438 17.0284 27.4993 15.2892 27.5252C14.772 27.5329 14.4309 27.5379 14.3139 27.5395L14.2701 27.54V27.86C14.3088 27.86 15.6767 28.055 17.6382 28.3347C18.7667 28.4956 20.0917 28.6845 21.4731 28.8804L22.1069 28.9702L22.4258 29.0153L23.0658 29.1057C24.9879 29.377 26.9158 29.6464 28.4901 29.86H27.7801C27.677 29.8498 27.5732 29.8498 27.4701 29.86C22.703 29.86 12.4067 30.1004 9.66264 30.1645C9.33253 30.1722 9.11171 30.1773 9.02297 30.1792L8.98007 30.18V30.5L27.0001 32.7H26.1401C25.6952 32.6447 25.2436 32.7068 24.8301 32.88C24.6311 33.0627 24.4712 33.2838 24.3601 33.53C24.2043 33.8849 23.9377 34.1796 23.6001 34.37C22.5593 34.37 21.0201 34.4193 19.4508 34.4838L18.6197 34.5191C16.5472 34.6101 14.5666 34.717 13.7642 34.7603C13.5328 34.7728 13.3993 34.78 13.3901 34.78V35.1C13.4384 35.1 16.2025 35.5411 19.1777 36.0315L19.7375 36.1239C21.5139 36.4179 23.3095 36.7206 24.6001 36.95L24.3901 37.35C22.5377 37.35 19.746 37.3911 16.8564 37.4456L16.1324 37.4595C11.877 37.5423 7.56159 37.6489 5.84356 37.6914C5.46377 37.7007 5.21091 37.707 5.11369 37.7091L5.07007 37.71V38.03L22.9801 40.03L20.1801 45.27C19.3501 45.27 18.3238 45.2975 17.2502 45.3389L16.7102 45.3607L15.8943 45.3969C13.0858 45.5277 10.3753 45.7135 10.3301 45.72V46L25.0101 46.73H25.1201L30.1201 36.66H31.9601L34.3501 32.48H32.3501L32.6301 31.91C33.2001 31.17 33.8001 30.8 34.2901 30.84H34.5501C34.9773 30.8344 35.4046 30.8511 35.8301 30.89H35.9201ZM68.7401 41.37C69.0682 40.3654 69.9505 39.6432 71.0001 39.52C72.0001 39.52 72.4401 40.35 72.1001 41.37C71.8703 42.0056 71.4242 42.5401 70.8401 42.88V46.23H66.7101L69.0001 42.88C68.6212 42.473 68.5192 41.8803 68.7401 41.37ZM39.7801 41.31L40.3201 41.21V41.29C39.7901 42.6408 38.6931 43.6904 37.3201 44.16C36.5008 44.4324 35.6077 44.3751 34.8301 44C34.6901 43.89 34.5401 43.72 34.6701 43.31C35 42.6433 35.614 42.1617 36.3401 42C37.1404 41.7614 37.9603 41.5941 38.7901 41.5L38.8801 41.44L39.7801 41.31ZM114.65 41.5601L111.65 33.0001H106.36C106.36 33.0001 111.2 44.4101 111.81 45.7701C112.034 46.2247 112.153 46.7234 112.16 47.2301C112.225 47.729 112.038 48.2277 111.66 48.5601C111.215 48.9578 110.637 49.1753 110.04 49.1701H81.2601L80.5001 52.7001L80.7279 52.7003L80.8695 52.7005L81.2056 52.7013C81.9811 52.7032 83.2012 52.7073 84.7155 52.7125C87.4227 52.7217 91.0703 52.7341 94.7994 52.7428L97.2942 52.748L98.2862 52.7497C99.1096 52.751 99.9238 52.752 100.719 52.7526L101.664 52.7532L102.129 52.7533H103.04L103.486 52.7532L104.355 52.7525C107.768 52.749 110.4 52.7343 111.2 52.7001C112.465 52.7419 113.711 52.3927 114.77 51.7001C116.25 50.5501 117.36 46.8901 117.36 46.8901C117.36 46.8901 118.17 44.8536 118.963 42.8788L119.146 42.4251C119.448 41.674 119.739 40.9558 119.97 40.3901L123 33.0001H117.54L114.65 41.5601ZM106.91 36.9501C106.843 34.0701 104.463 32.6301 99.7701 32.6301C95.0768 32.6301 92.5901 34.2501 92.3101 37.4901H97.3101C97.369 36.8921 97.6731 36.3454 98.1501 35.9801C99.2601 35.3401 102.4 35.1001 102.49 36.9801C102.515 37.3 102.385 37.6124 102.14 37.8201C101.521 38.2645 100.782 38.5119 100.02 38.5301C99.2001 38.6201 98.3901 38.7201 97.5801 38.8301C94.9301 39.2101 91.9301 40.1401 91.9301 43.3201C91.9087 44.4938 92.4471 45.6076 93.3801 46.3201C94.4891 47.1358 95.8449 47.5454 97.2201 47.4801C99.1528 47.4744 101.019 46.7754 102.48 45.5101C102.453 46.1104 102.637 46.7013 103 47.1801H107.91V46.7401C107.29 46.26 106.922 45.524 106.91 44.7401V36.9501ZM100.77 40.8701C101.354 40.7872 101.93 40.6533 102.49 40.4701V41.3601C102.49 43.3401 101 44.3601 99.1001 44.3601C98.1301 44.3501 97.0301 44.0601 97.0301 42.8101C97.0301 41.5601 98.3601 41.2401 99.3601 41.0801L100.77 40.8701ZM82.7601 37.5901C83.1238 36.997 83.7694 36.6355 84.4651 36.6355C85.1608 36.6355 85.8065 36.997 86.1701 37.5901C86.6308 38.3068 86.8579 39.1488 86.8201 40.0001C86.8638 40.8471 86.6322 41.6855 86.1601 42.3901C85.7891 42.9684 85.1472 43.3158 84.4601 43.3101C83.775 43.3179 83.1335 42.9746 82.7601 42.4001C81.8925 40.9141 81.8925 39.076 82.7601 37.5901Z" fill="black"/>
</g>
</svg>
