<svg width="128" height="80" viewBox="0 0 128 80" fill="none" xmlns="http://www.w3.org/2000/svg">
<g id="logo / payment method / bnb / white">
<path id="logo" d="M13.2948 40.0039L8.64609 44.65L4 40.0039L8.64609 35.3578L13.2948 40.0039ZM24.5774 28.7213L32.5417 36.6857L37.1852 32.05L24.5748 19.4292L11.9643 32.05L16.6104 36.6961L24.5774 28.7213ZM40.5061 35.3578L35.86 40.0039L40.5035 44.65L45.1496 40.0039L40.5061 35.3578ZM24.5774 51.2865L16.613 43.3222L11.9643 47.963L24.5748 60.5708L37.1852 47.963L32.5391 43.3169L24.5774 51.2865ZM24.5774 44.65L29.2235 40.0039L24.5774 35.3578L19.9313 40.0039L24.5774 44.65ZM54.447 28.7187H64.9261C67.5061 28.7187 69.5383 29.4283 70.827 30.717C71.3347 31.2159 71.7342 31.8142 72.0003 32.4745C72.2665 33.1347 72.3937 33.8428 72.3739 34.5544V34.617C72.3739 37.1657 71.02 38.5848 69.4078 39.4874C72.0165 40.4865 73.6313 42.0022 73.6313 45.0335V45.0935C73.6313 49.2204 70.2791 51.2839 65.1843 51.2839H54.4444L54.447 28.7187ZM63.8617 37.8491C66.0557 37.8491 67.4409 37.1422 67.4409 35.4648V35.3996C67.4409 33.9178 66.28 33.0778 64.1852 33.0778H59.2809V37.8413L63.8617 37.8491ZM65.1843 46.943C67.3783 46.943 68.6983 46.1604 68.6983 44.4935V44.4282C68.6983 42.9126 67.5713 41.9787 65.0226 41.9787H59.2835V46.9352L65.1843 46.943ZM78.5304 28.7266H83.1113L93.687 42.623V28.7187H98.5861V51.2865H94.36L83.4296 36.9387V51.2865H78.5278L78.5304 28.7266ZM104.808 28.7266H115.295C117.875 28.7266 119.907 29.4361 121.196 30.7248C121.703 31.2238 122.103 31.822 122.369 32.4823C122.635 33.1425 122.762 33.8506 122.743 34.5622V34.6248C122.743 37.1735 121.389 38.5926 119.777 39.4952C122.385 40.4943 124 42.01 124 45.0413V45.0935C124 49.2204 120.648 51.2839 115.553 51.2839H104.805L104.808 28.7266ZM114.223 37.857C116.417 37.857 117.802 37.15 117.802 35.4726V35.4074C117.802 33.9257 116.641 33.0857 114.546 33.0857H109.642V37.8413L114.223 37.857ZM115.556 46.9352C117.75 46.9352 119.07 46.1526 119.07 44.4856V44.4204C119.07 42.9048 117.943 41.9709 115.394 41.9709H109.655V46.9274L115.556 46.9352Z" fill="white"/>
</g>
</svg>
