<svg width="128" height="80" viewBox="0 0 128 80" fill="none" xmlns="http://www.w3.org/2000/svg">
<g id="logo / payment method / iwallet / white">
<path id="logo" d="M30.7796 35.8135C30.9314 36.323 31.0168 36.85 31.0338 37.3813C31.1694 41.0508 27.2626 42.6694 25.0423 44.322C23.5338 45.4491 18.1525 48.6779 21.8389 50.6016C23.0855 51.1096 24.4744 51.1457 25.7457 50.7033C27.5239 50.2063 31.5113 47.0605 32.8444 45.9814L33.0321 45.8288C33.1964 45.6949 33.2881 45.6186 33.2881 45.6186C33.6445 45.9149 33.8506 46.3543 33.8506 46.8178C33.8506 47.2812 33.6445 47.7206 33.2881 48.0169C31.8982 49.4576 28.8474 52.4576 25.483 53.9491C22.7033 55.2118 17.5423 56.2118 15.4237 53.9491C12.966 51.3305 14.5762 46.7288 17.7542 43.8389C20.9321 40.9491 22.6101 38.4576 22.6101 37.0593C22.6411 36.7297 22.5319 36.4024 22.3094 36.1573C22.0869 35.9122 21.7716 35.7721 21.4406 35.7711C20.7631 35.834 20.3089 36.2673 19.8781 36.7354L19.5921 37.049C19.3052 37.3603 19.0089 37.654 18.644 37.8305C18.4964 37.9007 18.3394 37.9492 18.1779 37.9745C17.3304 38.1101 17.1016 37.1271 17.3304 36.5084C17.8304 35.144 19.305 34.2033 20.5338 33.5847C23.6186 32.0254 29.5084 31.6271 30.7796 35.8135ZM49.3304 36.2288L50.5932 43.3559L55.1101 36.5762H58.0677L49.3559 48.9067L47.983 41.7033L43.0762 48.9067L40.5338 36.5762H43.3135L44.4491 43.3559L49.3304 36.2288ZM92.6271 37.8813C93.4959 39.1934 93.8211 40.7917 93.5338 42.3389C93.5338 42.5339 93.4576 42.8474 93.3898 43.2881L84.9321 43.2711C84.8068 44.0147 85.0249 44.7749 85.5254 45.3389C86.0555 45.9131 86.8125 46.2234 87.5932 46.1864C88.7378 46.2086 89.8242 45.6827 90.5169 44.7711L92.305 45.8813C91.6847 46.6862 90.906 47.3554 90.0169 47.8474C89.1624 48.2519 88.2246 48.4493 87.2796 48.4237C85.8171 48.5191 84.391 47.9418 83.4067 46.8559C82.4775 45.6538 82.1074 44.1115 82.3898 42.6186C82.5637 40.8767 83.3435 39.2512 84.5932 38.0254C85.7418 36.8406 87.3244 36.1763 88.9745 36.1864C90.3998 36.0998 91.7729 36.737 92.6271 37.8813ZM65.6779 36.6864C66.3108 37.0286 66.8606 37.506 67.2881 38.0847L67.6525 36.5678L70.3304 36.5847L67.5254 48.1355H64.8474L65.161 46.8813C64.1365 47.7972 62.8299 48.3354 61.4576 48.4067C60.1062 48.477 58.8025 47.8976 57.9491 46.8474C57.0761 45.6909 56.7231 44.2236 56.9745 42.7966C57.1376 41.0264 57.914 39.3687 59.1694 38.1101C60.3515 36.9191 61.9661 36.2586 63.644 36.2796C64.3443 36.2559 65.0406 36.3952 65.6779 36.6864ZM104.152 44.3135C104.65 44.2967 105.126 44.513 105.441 44.8983C105.772 45.2834 105.921 45.7935 105.847 46.2966C105.785 46.8039 105.53 47.2678 105.136 47.5932C104.774 47.9432 104.291 48.1404 103.788 48.144C103.321 48.1588 102.875 47.9513 102.585 47.5847C102.272 47.1906 102.14 46.683 102.22 46.1864C102.268 45.6797 102.496 45.2072 102.864 44.8559C103.205 44.511 103.668 44.3159 104.152 44.3135ZM112.051 44.322C112.545 44.3065 113.019 44.5228 113.33 44.9067C113.66 45.2898 113.808 45.7963 113.737 46.2966C113.674 46.8039 113.42 47.2678 113.025 47.5932C112.665 47.9447 112.182 48.1422 111.678 48.144C111.211 48.1575 110.765 47.9502 110.475 47.5847C110.164 47.1927 110.032 46.6887 110.11 46.1949C110.161 45.6892 110.389 45.2179 110.754 44.8644C111.096 44.5174 111.563 44.3221 112.051 44.322ZM77.9152 27.7203L73.1186 48H70.5762L75.3813 27.7203H77.9152ZM83.4915 27.7203L78.8304 48H76.2881L80.983 27.7203H83.4915ZM101.11 31.3983L99.8898 36.6525H102.203L101.636 39.1271H99.322L97.2711 48H94.7288L96.7796 39.1271H95.3643L95.9321 36.6525H97.3474L98.5677 31.3983H101.11ZM63.7118 38.5593C62.6939 38.5663 61.7256 38.9997 61.0423 39.7542C60.2699 40.5541 59.7867 41.5891 59.6694 42.6949C59.5159 43.5656 59.714 44.4616 60.2203 45.1864C60.7012 45.8511 61.4856 46.2274 62.305 46.1864C63.3331 46.1652 64.3086 45.7279 65.0084 44.9745C65.7999 44.1807 66.2963 43.1401 66.4152 42.0254C66.5711 41.151 66.363 40.2509 65.8389 39.5339C65.3304 38.8826 64.5371 38.5192 63.7118 38.5593ZM88.6271 38.4491C87.1186 38.4491 86.031 39.3333 85.3643 41.1016H91.1186C91.0508 39.3276 90.2203 38.4435 88.6271 38.4491ZM30.1889 25.897C32.2602 24.7011 34.6564 24.9738 35.5409 26.5059C36.4255 28.0381 35.4636 30.2496 33.3923 31.4454C31.3211 32.6412 28.9249 32.3686 28.0403 30.8364C27.1557 29.3043 28.1177 27.0928 30.1889 25.897Z" fill="white"/>
</g>
</svg>
