<svg width="128" height="80" viewBox="0 0 128 80" fill="none" xmlns="http://www.w3.org/2000/svg">
<g id="logo / payment method / skrill 1-tap / brand">
<g id="logo">
<path fill-rule="evenodd" clip-rule="evenodd" d="M54.6267 33.7456C55.3933 33.7456 56.1284 33.4411 56.6705 32.8991C57.2125 32.3571 57.517 31.6219 57.517 30.8554C57.517 30.0888 57.2125 29.3537 56.6705 28.8116C56.1284 28.2696 55.3933 27.9651 54.6267 27.9651C53.8602 27.9651 53.125 28.2696 52.583 28.8116C52.041 29.3537 51.7364 30.0888 51.7364 30.8554C51.7364 31.6219 52.041 32.3571 52.583 32.8991C53.125 33.4411 53.8602 33.7456 54.6267 33.7456ZM32.4678 35.3089C32.3373 35.6352 31.3987 38.2893 29.1269 41.0397V29.2797L23.0728 30.4762V51.7928H29.1269V45.2042C30.8797 47.8334 31.7468 51.7928 31.7468 51.7928H38.9974C38.2826 48.8093 35.1437 43.3115 35.1437 43.3115C37.0076 40.9069 38.4447 38.2 39.3921 35.3089H32.4678ZM48.3862 35.0851C42.963 35.2592 40.2126 37.6926 40.2126 42.5284V51.7928H46.1268V44.2377C46.1268 41.3412 46.5059 40.1011 49.9401 39.9799V35.1721C49.3621 35.0478 48.3862 35.0882 48.3862 35.0882V35.0851ZM12.9195 37.6553C12.1767 37.6056 10.4612 37.4937 10.4612 35.9491C10.4612 34.0844 12.9319 34.0844 13.8612 34.0844C15.4897 34.0844 17.5999 34.5661 19.1103 35.0167C19.1103 35.0167 19.9494 35.3151 20.6642 35.6166L20.7326 35.6352V30.529L20.6394 30.498C18.8617 29.8764 16.7919 29.2797 12.9568 29.2797C6.34331 29.2797 4 33.1334 4 36.4339C4 38.3359 4.81425 42.8143 12.3912 43.3302C13.0314 43.3706 14.7345 43.4669 14.7345 45.0643C14.7345 46.3821 13.3422 47.159 10.9926 47.159C8.42246 47.159 5.92686 46.5064 4.41334 45.8848V51.1432C6.68207 51.7368 9.23982 52.0352 12.2358 52.0352C18.7001 52.0352 21.5966 48.3897 21.5966 44.7784C21.5966 40.6823 18.3582 38.0189 12.9195 37.6553ZM51.6929 51.7928H57.5605V35.3275H51.6929V51.7928ZM68.6089 30.3301V51.7928H74.4765V29.2797L68.612 30.3301H68.6089ZM60.0437 30.3301L65.9082 29.2797V51.7928H60.0437V30.3301Z" fill="#6B195F"/>
<path d="M88.1635 45.3503H81.6401V44.1196H84.1481V36.0455H81.6401V34.9453C81.9799 34.9453 82.3446 34.9184 82.7341 34.8645C83.1215 34.8044 83.4147 34.7215 83.6136 34.6159C83.8622 34.4791 84.057 34.3082 84.1979 34.1031C84.3429 33.8938 84.4258 33.6141 84.4465 33.264H85.7021V44.1227H88.1635V45.3503ZM96.2314 40.8098H91.1812V39.346H96.2314V40.8098ZM106.503 34.7246H102.198V45.3534H100.595V34.7246H96.2905V33.2981H106.503V34.7246ZM113.098 45.3503H111.584V44.3869C111.45 44.478 111.266 44.6075 111.034 44.7753C110.806 44.9369 110.584 45.0664 110.369 45.1638C110.116 45.2881 109.826 45.3917 109.499 45.4746C109.167 45.5575 108.781 45.5989 108.34 45.5989C107.525 45.5989 106.834 45.3296 106.267 44.7909C105.701 44.2522 105.418 43.5643 105.418 42.7273C105.418 42.0436 105.563 41.4904 105.853 41.0677C106.15 40.643 106.571 40.3084 107.118 40.0639C107.667 39.8215 108.328 39.6578 109.101 39.5728C109.872 39.4858 110.699 39.4206 111.584 39.377V39.144C111.584 38.798 111.522 38.512 111.398 38.2862C111.28 38.0583 111.107 37.8801 110.879 37.7517C110.663 37.6273 110.404 37.5434 110.102 37.4999C109.801 37.4585 109.486 37.4378 109.157 37.4378C108.757 37.4378 108.312 37.4906 107.821 37.5963C107.33 37.6999 106.822 37.8511 106.298 38.05H106.217V36.5054C106.515 36.4225 106.945 36.3334 107.507 36.2381C108.066 36.1408 108.618 36.0921 109.163 36.0921C109.801 36.0921 110.354 36.1459 110.823 36.2537C111.299 36.3573 111.71 36.5355 112.053 36.7882C112.393 37.0369 112.652 37.358 112.83 37.7517C113.009 38.1453 113.098 38.6332 113.098 39.2154V45.3503ZM111.584 43.1251V40.6077C111.12 40.6347 110.572 40.6751 109.94 40.7289C109.314 40.7828 108.818 40.8615 108.451 40.9651C108.016 41.0895 107.664 41.2832 107.395 41.5463C107.123 41.8053 106.988 42.1637 106.988 42.6216C106.988 43.1396 107.143 43.5312 107.454 43.7964C107.769 44.0554 108.247 44.1848 108.89 44.1848C109.424 44.1848 109.912 44.0823 110.353 43.8772C110.797 43.6658 111.207 43.4151 111.584 43.1251ZM124 40.7227C124 41.4562 123.894 42.1275 123.683 42.7366C123.474 43.3416 123.177 43.8544 122.794 44.275C122.438 44.6728 122.017 44.9836 121.532 45.2073C121.052 45.4207 120.542 45.5274 120.003 45.5274C119.533 45.5274 119.106 45.4756 118.723 45.372C118.346 45.2705 117.96 45.112 117.567 44.8965V48.685H116.044V36.3096H117.567V37.2575C117.971 36.9177 118.424 36.6339 118.925 36.406C119.433 36.1739 119.972 36.0579 120.544 36.0579C121.634 36.0579 122.481 36.4712 123.086 37.2979C123.695 38.1184 124 39.2589 124 40.7196V40.7227ZM122.431 40.7631C122.431 39.6713 122.244 38.856 121.871 38.3173C121.498 37.7786 120.926 37.5092 120.156 37.5092C119.72 37.5092 119.281 37.6025 118.838 37.7889C118.394 37.9796 117.97 38.2282 117.564 38.5348V43.6596C117.997 43.8544 118.367 43.9859 118.673 44.0543C118.986 44.1248 119.34 44.16 119.736 44.16C120.581 44.16 121.242 43.8741 121.719 43.3022C122.193 42.7304 122.431 41.883 122.431 40.76V40.7631Z" fill="#6B195F"/>
</g>
</g>
</svg>
