<svg width="128" height="80" viewBox="0 0 128 80" fill="none" xmlns="http://www.w3.org/2000/svg">
<g id="logo / payment method / mandiri syariah / brand-light">
<g id="wordmark">
<path fill-rule="evenodd" clip-rule="evenodd" d="M74.2414 21.9548V39.693C74.2414 41.2426 74.3025 42.9165 74.3646 43.9376H70.9593L70.8062 41.5557H70.7417C69.8449 43.2239 68.0179 44.2784 65.8202 44.2784C62.2272 44.2784 59.379 41.2115 59.379 36.5663C59.3479 31.5216 62.5081 28.518 66.1287 28.518C68.2021 28.518 69.6906 29.3837 70.3698 30.4993H70.432V21.9548H74.2414ZM70.432 35.1434C70.432 34.8337 70.4021 34.4607 70.3411 34.1533C69.9991 32.6659 68.7904 31.4583 67.0589 31.4583C64.6114 31.4583 63.2506 33.6272 63.2506 36.4443C63.2506 39.1992 64.6114 41.2115 67.0267 41.2115C68.5751 41.2115 69.937 40.1593 70.3088 38.5188C70.4021 38.178 70.432 37.8073 70.432 37.4032V35.1434Z" fill="#005142"/>
<path d="M5.29748 33.3509C5.29748 31.6137 5.2664 30.1586 5.172 28.8588H8.45301L8.60728 31.0888H8.70168C9.44192 29.9134 10.8061 28.5181 13.3458 28.5181C15.327 28.5181 16.8743 29.6336 17.5259 31.3041H17.5869C18.1142 30.4694 18.7335 29.8477 19.4461 29.416C20.2819 28.8301 21.2409 28.5181 22.4785 28.5181C24.987 28.5181 27.5244 30.2207 27.5244 35.0502V43.9377H23.8093V35.6074C23.8093 33.0988 22.9413 31.6149 21.1166 31.6149C19.818 31.6137 18.859 32.5439 18.4538 33.6272C18.3582 33.9979 18.2673 34.4607 18.2673 34.8959V43.9377H14.5534V35.2033C14.5534 33.0988 13.7165 31.6149 11.9505 31.6149C10.5287 31.6137 9.56741 32.727 9.22664 33.7827C9.07238 34.1534 9.01136 34.5862 9.01136 35.0214V43.9377H5.29748V33.3509Z" fill="#005142"/>
<path fill-rule="evenodd" clip-rule="evenodd" d="M41.7029 40.3148C41.7029 41.6778 41.7651 43.0086 41.9205 43.9377H38.4841L38.2366 42.2649H38.1422C37.2154 43.4415 35.6348 44.2785 33.6846 44.2785C30.6511 44.2785 28.9473 42.0796 28.9473 39.7886C28.9473 35.9804 32.3227 34.0624 37.8935 34.0923V33.8448C37.8935 32.8536 37.4929 31.2108 34.8301 31.2108C33.345 31.2108 31.7954 31.6759 30.7754 32.3252L30.0317 29.8477C31.1461 29.1685 33.0963 28.5181 35.4817 28.5181C40.3122 28.5181 41.7029 31.5838 41.7029 34.8648V40.3148ZM37.9868 36.5663C35.2963 36.5065 32.7256 37.0948 32.7256 39.3857C32.7256 40.872 33.6846 41.5558 34.8911 41.5558C36.4084 41.5558 37.5251 40.5611 37.8647 39.479C37.958 39.1992 37.9868 38.8907 37.9868 38.642V36.5663Z" fill="#005142"/>
<path d="M44.0571 28.8588C44.1469 30.1586 44.178 31.6137 44.178 33.3509V43.9377H48.0162V35.0812C48.0162 34.6484 48.0496 34.1844 48.1728 33.8448C48.5769 32.6982 49.6291 31.6137 51.1441 31.6149C53.221 31.6149 54.0234 33.2554 54.0234 35.4232V43.9377H57.8328V34.9903C57.8328 30.2207 55.109 28.5181 52.4749 28.5181C49.9687 28.5181 48.3282 29.9433 47.6801 31.1187H47.5845L47.4003 28.8588H44.0571Z" fill="#005142"/>
<path d="M80.8253 43.9375H76.9629V28.8311H80.8253V43.9375Z" fill="#005142"/>
<path d="M83.4927 33.7193C83.4927 31.6759 83.4639 30.2207 83.3695 28.8588H86.6839L86.8048 31.7369H86.9291C87.6751 29.6025 89.4388 28.5181 91.0482 28.5181C91.4212 28.5181 91.6377 28.5491 91.9485 28.6102V32.202C91.6377 32.141 91.2946 32.0788 90.833 32.0788C89.0036 32.0788 87.7661 33.2554 87.4276 34.9581C87.362 35.3 87.3033 35.7018 87.3033 36.1369V43.9377H83.4927V33.7193Z" fill="#005142"/>
<path d="M97.0116 43.9375H93.1527V28.8311H97.0116V43.9375Z" fill="#005142"/>
<path d="M4.49273 63.0009C5.24794 63.4568 6.38075 63.9438 7.63099 63.9438C9.83791 63.9438 10.8809 62.773 10.8809 61.3478C10.8809 59.8362 9.95303 59.0384 7.94988 58.2394C5.65778 57.3829 4.40754 56.158 4.40754 54.5037C4.40754 52.5086 6.00315 50.7979 8.70509 50.7979C9.98296 50.7979 11.087 51.1685 11.7835 51.6544L11.2597 52.7642C10.767 52.4211 9.86784 51.9387 8.47254 51.9387C6.70195 51.9387 5.77175 53.0497 5.77175 54.3045C5.77175 55.7309 6.75836 56.3284 8.64523 57.0997C10.9132 57.9804 12.2463 59.0948 12.2463 61.1762C12.2463 63.5144 10.3882 65.0824 7.5435 65.0824C6.20692 65.0824 4.92905 64.714 4 64.143L4.49273 63.0009Z" fill="#005142"/>
<path d="M17.8805 64.9983C17.184 66.625 15.9855 68.1884 15.0358 68.901L15.5688 70.0235C17.5351 68.6754 19.0156 65.5671 20.6975 61.3179L24.8788 51.1099H23.3983L20.001 59.9778C19.6938 60.7639 19.4301 61.535 19.1987 62.2118C19.1025 62.4932 19.0116 62.7591 18.9258 63.0021H18.8671C18.6069 62.1479 18.2327 61.0323 17.8528 60.0653L14.1942 51.1099H12.7114L17.8805 63.7999C17.999 64.0854 18.0532 64.2846 18.0532 64.3986C18.0532 64.5402 17.999 64.714 17.8805 64.9983Z" fill="#005142"/>
<path fill-rule="evenodd" clip-rule="evenodd" d="M35.0442 61.5481C35.0442 62.6302 35.0718 63.7435 35.2479 64.7992H33.9701L33.7674 62.8294H33.7076C33.0122 63.8851 31.473 65.11 29.2362 65.11C26.418 65.11 25.1436 63.1736 25.1436 61.3478C25.1436 58.183 27.9583 56.272 33.6489 56.3284V55.9577C33.6489 54.6165 33.3898 51.9099 30.0766 51.9387C28.8609 51.9387 27.5807 52.2496 26.563 52.9633L26.129 51.9664C27.4069 51.1386 28.976 50.7979 30.2251 50.7979C34.2579 50.7979 35.0442 53.7611 35.0442 56.1868V61.5481ZM33.6489 57.4716C30.6016 57.3829 26.5953 57.8411 26.5953 61.1187C26.5953 63.0884 27.9284 63.9703 29.3824 63.9703C31.7056 63.9703 33.0399 62.5738 33.505 61.2326C33.6212 60.9471 33.6489 60.634 33.6489 60.406V57.4716Z" fill="#005142"/>
<path d="M38.2377 51.1098C38.3252 52.451 38.3551 53.8486 38.3551 55.2163V64.7992H39.7481V57.2402C39.7481 56.7854 39.7769 56.3284 39.8655 55.93C40.2443 53.7335 41.6085 52.1091 43.5241 52.1091C43.7866 52.1091 43.9892 52.1091 44.193 52.1367V50.8543C44.018 50.8255 43.8154 50.7979 43.6105 50.7979C41.7236 50.7979 40.2696 52.1367 39.6617 53.8763H39.5754L39.5155 51.1098H38.2377Z" fill="#005142"/>
<path d="M45.9924 64.7992H47.3866V51.1099H45.9924V64.7992Z" fill="#005142"/>
<path fill-rule="evenodd" clip-rule="evenodd" d="M59.7842 64.7992C59.6127 63.7435 59.5839 62.6302 59.5839 61.5481V56.1868C59.5839 53.7611 58.7976 50.7979 54.7625 50.7979C53.5134 50.7979 51.9466 51.1386 50.6676 51.9664L51.1028 52.9633C52.1204 52.2496 53.3972 51.9387 54.6186 51.9387C57.9273 51.9099 58.1909 54.6165 58.1909 55.9577V56.3284C52.498 56.272 49.6821 58.183 49.6821 61.3478C49.6821 63.1736 50.9588 65.11 53.7748 65.11C56.0116 65.11 57.5531 63.8851 58.2473 62.8294H58.3083L58.5086 64.7992H59.7842ZM51.1327 61.1187C51.1327 57.8411 55.1424 57.3829 58.1909 57.4716V60.406C58.1909 60.634 58.1598 60.9471 58.0447 61.2326C57.5796 62.5738 56.2442 63.9703 53.921 63.9703C52.467 63.9703 51.1338 63.0884 51.1327 61.1187Z" fill="#005142"/>
<path d="M64.3189 53.5629L64.3489 47.1116H63.1412L63.1476 47.1462H63.1055L63.0859 64.7993H64.3189V56.4448C64.3189 55.8749 64.3454 55.503 64.4916 55.0748C65.1029 53.3917 66.7284 51.9929 68.704 51.9929C71.5521 51.9929 72.5364 54.2494 72.5364 56.698V64.7993H73.9306V56.5564C73.9306 51.4542 70.3859 50.798 69.0793 50.798C68.0351 50.798 67.0773 51.1099 66.261 51.5958C65.4506 52.0793 64.7817 52.793 64.3742 53.5632L64.3189 53.5629Z" fill="#005142"/>
</g>
<path id="logo" d="M120.901 12.5981C118.992 10.4252 116.971 11.4091 115.37 12.2086C114.693 12.5366 109.808 15.2835 109.808 15.2835C107.908 16.184 105.641 15.7295 104.236 14.1663C104.157 14.0712 104.088 13.9681 104.031 13.8588L103.836 13.5308C103.529 12.9759 103.186 12.4417 102.81 11.9319C102.57 11.627 102.313 11.3362 102.04 11.0606C100.213 9.2157 97.2888 7.92425 92.394 10.2612C90.0851 11.6039 82.5428 15.9087 82.5428 15.9087C80.5744 16.8516 78.2153 16.3166 76.8475 14.6173L76.7654 14.484L76.6731 14.3303L76.16 13.5718C75.9548 13.2438 75.729 12.9158 75.4725 12.5468C75.2159 12.1778 74.9799 11.9524 74.7028 11.6654C72.8763 9.83068 69.9722 8.59048 65.1287 10.8454L55.3904 16.4109L50.4032 19.2603L52.9789 22.4172C54.5316 24.2284 57.113 24.7635 59.259 23.7189L68.0122 18.6659C75.4622 14.566 79.1359 18.4814 80.7572 21.0848C80.8188 21.1668 80.8598 21.259 80.9111 21.3308V21.4128L81.0959 21.7202C81.8527 22.9378 83.1911 23.6723 84.6259 23.6574C85.4106 23.6112 86.1688 23.3564 86.8219 22.9194L95.2878 18.1021C102.83 14.0023 106.576 18.1021 108.166 20.726C108.289 20.9468 108.426 21.1591 108.577 21.3615C109.298 22.4579 110.526 23.1141 111.84 23.1039C112.564 23.0345 113.265 22.807 113.892 22.4377L124 16.6057C123.048 15.2091 122.013 13.8708 120.901 12.5981Z" fill="#FAB900"/>
</g>
</svg>
