<svg width="128" height="80" viewBox="0 0 128 80" fill="none" xmlns="http://www.w3.org/2000/svg">
<g id="logo / payment method / zenith bank / brand-light">
<g id="logo">
<path fill-rule="evenodd" clip-rule="evenodd" d="M39.8939 25.679C39.8374 25.81 39.9697 25.4029 40.0079 25.2646L40.1568 24.7253C41.6935 19.1502 43.2295 13.5751 44.7662 8L94.2141 8.09685L39.5671 52.5451L64.5398 22.456L45.7798 22.5092C45.4331 22.5102 45.0861 22.5092 44.7401 22.5323C42.5152 22.7213 40.5875 24.0699 39.8939 25.679Z" fill="#808285"/>
<path fill-rule="evenodd" clip-rule="evenodd" d="M91.5298 38.4717C91.5858 38.3407 90.0352 47.9431 87.2999 57.8692L35.6947 58.1575L91.4288 13.0195L66.4512 43.3928L85.2112 43.3396C85.5579 43.3386 85.9049 43.3396 86.251 43.3164C88.4759 43.1275 90.8361 40.0808 91.5298 38.4717Z" fill="#ED1C24"/>
<path fill-rule="evenodd" clip-rule="evenodd" d="M42.5676 72H33.7859L39.8558 63.7569H35.8304L36.122 61.4778H44.4845L38.4294 69.7066H42.8608L42.5676 72ZM44.2234 72L45.5705 61.4778H51.658L51.3632 63.7845H47.9164L47.6824 65.6091H50.932L50.6434 67.8665H47.3939L47.1662 69.6428H50.6129L50.3114 72H44.2234ZM52.1017 72L53.4483 61.4778H56.0615L59.1216 66.8901C59.179 67.0006 59.2689 67.2211 59.3932 67.5547C59.5145 67.8886 59.6451 68.2835 59.7852 68.7446C59.7867 68.3081 59.7975 67.9205 59.8161 67.5794C59.8339 67.2409 59.8611 66.9394 59.8953 66.6738L60.5603 61.4778H63.1589L61.8123 72H59.2132L56.156 66.5661C56.0937 66.4556 56.0014 66.2351 55.8776 65.9016C55.7558 65.5675 55.6273 65.1774 55.4905 64.7261C55.4878 65.1678 55.4769 65.5578 55.4586 65.899C55.4407 66.2376 55.4136 66.5392 55.3793 66.8045L54.7141 72H52.1017ZM64.0107 72L65.3573 61.4778H68.0932L66.7459 72H64.0107ZM70.3619 72L71.3905 63.9658H69.1642L69.4828 61.4778H76.6433L76.3248 63.9658H74.0983L73.0703 72H70.3619ZM76.6186 72L77.9652 61.4778H80.6735L80.15 65.5675H83.7592L84.2827 61.4778H86.9971L85.65 72H82.9356L83.4841 67.7166H79.875L79.3264 72H76.6186Z" fill="#808285"/>
</g>
</g>
</svg>
