<svg width="211" height="46" viewBox="0 0 211 46" fill="none" xmlns="http://www.w3.org/2000/svg">
<g id="logo / partners product / binary bot / black / wordmark horizontal">
<g id="wordmark">
<path d="M11.1982 37.1512C9.30821 37.1512 7.37097 37.0725 5.38648 36.915C3.40199 36.7575 1.60649 36.5055 0 36.159L7.55997 4.50159C9.35547 4.15509 11.2297 3.91884 13.1827 3.79284C15.1672 3.66684 16.9784 3.60384 18.6164 3.60384C20.5064 3.60384 22.1287 3.80859 23.4832 4.21809C24.8692 4.59609 25.9874 5.11584 26.8379 5.77734C27.7199 6.43883 28.3656 7.22633 28.7751 8.13983C29.2161 9.02182 29.4366 9.96682 29.4366 10.9748C29.4366 11.6678 29.3579 12.3923 29.2004 13.1483C29.0744 13.9043 28.7909 14.6603 28.3499 15.4163C27.9404 16.1408 27.3577 16.8338 26.6017 17.4953C25.8772 18.1568 24.9164 18.7553 23.7194 19.2908C25.1369 19.9208 26.1764 20.787 26.8379 21.8895C27.4994 22.9605 27.8301 24.1575 27.8301 25.4805C27.8301 26.9925 27.5309 28.4573 26.9324 29.8747C26.3339 31.2607 25.3732 32.505 24.0502 33.6075C22.7272 34.6785 21.0104 35.5447 18.8999 36.2062C16.7894 36.8362 14.2222 37.1512 11.1982 37.1512ZM10.5367 22.4093L8.50497 30.9142C9.00897 31.0087 9.63896 31.0875 10.395 31.1505C11.1825 31.182 11.907 31.1977 12.5685 31.1977C13.5135 31.1977 14.4427 31.1347 15.3562 31.0087C16.3012 30.8512 17.1359 30.5835 17.8604 30.2055C18.6164 29.8275 19.2307 29.3078 19.7032 28.6463C20.1757 27.9848 20.4119 27.1343 20.4119 26.0948C20.4119 25.6538 20.3174 25.2128 20.1284 24.7718C19.9709 24.3308 19.7032 23.937 19.3252 23.5905C18.9472 23.244 18.4432 22.9605 17.8132 22.74C17.2147 22.5195 16.4902 22.4093 15.6397 22.4093H10.5367ZM11.907 16.881H16.5374C18.4274 16.881 19.8292 16.4715 20.7427 15.6525C21.6877 14.8336 22.1602 13.8571 22.1602 12.7231C22.1602 12.1246 22.0184 11.6206 21.7349 11.2111C21.4829 10.7701 21.1364 10.4236 20.6954 10.1716C20.2544 9.91957 19.7504 9.74632 19.1834 9.65182C18.6164 9.52582 18.0337 9.46282 17.4352 9.46282C16.7737 9.46282 16.0649 9.49432 15.3089 9.55732C14.5529 9.58882 13.9859 9.63607 13.6079 9.69907L11.907 16.881Z" fill="#414652"/>
<path d="M35.4942 36.726H28.5012L34.4075 11.8726H41.4477L35.4942 36.726ZM38.8962 8.84857C37.9197 8.84857 37.0377 8.56508 36.2502 7.99808C35.4627 7.39958 35.069 6.50183 35.069 5.30484C35.069 4.64334 35.195 4.02909 35.447 3.46209C35.7305 2.8636 36.0927 2.3596 36.5337 1.9501C36.9747 1.5091 37.4787 1.1626 38.0457 0.910605C38.6442 0.658605 39.2742 0.532606 39.9357 0.532606C40.9122 0.532606 41.7942 0.831854 42.5817 1.43035C43.3692 1.99735 43.7629 2.87935 43.7629 4.07634C43.7629 4.73784 43.6212 5.36784 43.3377 5.96634C43.0857 6.53333 42.7392 7.03733 42.2982 7.47833C41.8572 7.88783 41.3374 8.21858 40.7389 8.47058C40.1719 8.72257 39.5577 8.84857 38.8962 8.84857Z" fill="#414652"/>
<path d="M45.2373 13.0066C45.7728 12.8491 46.3555 12.6758 46.9855 12.4868C47.647 12.2663 48.3715 12.0773 49.159 11.9198C49.978 11.7308 50.8758 11.5891 51.8522 11.4946C52.8602 11.3686 53.9942 11.3056 55.2542 11.3056C58.9712 11.3056 61.5227 12.3766 62.9087 14.5186C64.2947 16.6605 64.531 19.59 63.6175 23.307L60.4045 36.726H53.3642L56.4827 23.5905C56.6717 22.7715 56.8135 21.984 56.908 21.228C57.034 20.4405 57.034 19.7633 56.908 19.1963C56.782 18.5978 56.4827 18.1253 56.0102 17.7788C55.5692 17.4008 54.8762 17.2118 53.9312 17.2118C53.0177 17.2118 52.0885 17.3063 51.1435 17.4953L46.5603 36.726H39.52L45.2373 13.0066Z" fill="#414652"/>
<path d="M87.2605 26.0003C86.8195 27.7958 86.6935 29.607 86.8825 31.434C87.0715 33.2295 87.4337 34.836 87.9692 36.2535L81.685 37.1512C81.496 36.7732 81.3227 36.411 81.1652 36.0645C81.0077 35.718 80.8502 35.3242 80.6927 34.8832C79.8107 35.6077 78.8342 36.2062 77.7632 36.6787C76.6922 37.1512 75.4952 37.3875 74.1722 37.3875C72.5973 37.3875 71.2428 37.1197 70.1088 36.5842C69.0063 36.0172 68.0928 35.277 67.3683 34.3635C66.6753 33.4185 66.1713 32.3317 65.8563 31.1032C65.5413 29.8432 65.3838 28.5045 65.3838 27.087C65.3838 24.9135 65.7618 22.866 66.5178 20.9445C67.3053 19.023 68.3763 17.3535 69.7308 15.936C71.1168 14.4871 72.739 13.3531 74.5975 12.5341C76.456 11.7151 78.472 11.3056 80.6455 11.3056C80.929 11.3056 81.4172 11.3213 82.1102 11.3528C82.8347 11.3843 83.6537 11.4631 84.5672 11.5891C85.4807 11.6836 86.4415 11.8568 87.4495 12.1088C88.4575 12.3608 89.4182 12.7073 90.3317 13.1483L87.2605 26.0003ZM82.3465 17.3063C81.937 17.2433 81.559 17.196 81.2125 17.1645C80.8975 17.133 80.5037 17.1173 80.0312 17.1173C78.9602 17.1173 77.9522 17.385 77.0072 17.9205C76.0937 18.456 75.2905 19.1648 74.5975 20.0468C73.9045 20.8973 73.3533 21.8895 72.9438 23.0235C72.5658 24.1575 72.3768 25.3388 72.3768 26.5673C72.3768 28.0793 72.6288 29.2762 73.1328 30.1582C73.6368 31.0402 74.566 31.4812 75.9205 31.4812C76.645 31.4812 77.2907 31.3395 77.8577 31.056C78.4562 30.7725 79.0862 30.3 79.7477 29.6385C79.8107 28.851 79.9052 28.032 80.0312 27.1815C80.1887 26.2995 80.3462 25.4963 80.5037 24.7718L82.3465 17.3063Z" fill="#414652"/>
<path d="M108.376 17.9205C107.746 17.763 107.116 17.6213 106.486 17.4953C105.887 17.3378 104.99 17.259 103.793 17.259C103.352 17.259 102.863 17.3063 102.328 17.4008C101.792 17.4638 101.351 17.5425 101.005 17.637L96.4218 36.726H89.3815L95.0515 13.1956C96.406 12.7546 97.918 12.3451 99.5875 11.9671C101.288 11.5576 103.194 11.3528 105.305 11.3528C106.092 11.3528 106.958 11.4316 107.903 11.5891C108.88 11.7151 109.73 11.9356 110.455 12.2506L108.376 17.9205Z" fill="#414652"/>
<path d="M133.692 11.8726C132.81 14.2666 131.912 16.503 130.998 18.582C130.116 20.661 129.187 22.6455 128.211 24.5355C127.234 26.394 126.226 28.1738 125.187 29.8747C124.147 31.5757 123.045 33.261 121.879 34.9305C121.029 36.159 120.147 37.4032 119.233 38.6632C118.32 39.9232 117.296 41.0572 116.162 42.0652C115.059 43.0732 113.815 43.8922 112.429 44.5222C111.075 45.1522 109.5 45.4672 107.704 45.4672C106.602 45.4672 105.657 45.3569 104.869 45.1364C104.082 44.9474 103.341 44.6797 102.648 44.3332L104.775 38.805C105.405 39.057 105.972 39.246 106.476 39.372C106.98 39.5295 107.594 39.6082 108.318 39.6082C109.421 39.6082 110.46 39.246 111.437 38.5215C112.445 37.8285 113.28 36.8835 113.941 35.6865C113.122 32.5365 112.366 29.0085 111.673 25.1025C111.012 21.1965 110.555 16.7865 110.303 11.8726H117.532C117.564 13.1011 117.627 14.4556 117.721 15.936C117.816 17.4165 117.926 18.9128 118.052 20.4248C118.178 21.9053 118.32 23.3543 118.477 24.7718C118.635 26.1893 118.808 27.465 118.997 28.599C120.509 26.331 121.832 23.811 122.966 21.039C124.131 18.267 125.218 15.2116 126.226 11.8726H133.692Z" fill="#414652"/>
<path d="M150.298 37.1512C148.503 37.1512 146.707 37.0882 144.912 36.9622C143.148 36.8677 141.305 36.6157 139.383 36.2062V4.45434C140.895 4.17084 142.549 3.96609 144.345 3.84009C146.14 3.68259 147.809 3.60384 149.353 3.60384C151.432 3.60384 153.338 3.76134 155.07 4.07634C156.834 4.35984 158.346 4.86384 159.606 5.58834C160.866 6.31283 161.843 7.27358 162.536 8.47058C163.26 9.63607 163.622 11.0851 163.622 12.8176C163.622 15.432 162.362 17.4953 159.842 19.0073C161.921 19.7948 163.339 20.8658 164.095 22.2203C164.851 23.5748 165.229 25.1025 165.229 26.8035C165.229 30.237 163.969 32.82 161.449 34.5525C158.96 36.285 155.243 37.1512 150.298 37.1512ZM146.565 22.4565V30.9142C147.101 30.9772 147.683 31.0245 148.313 31.056C148.943 31.0875 149.636 31.1032 150.392 31.1032C152.597 31.1032 154.377 30.7882 155.732 30.1582C157.086 29.5282 157.763 28.3628 157.763 26.6618C157.763 25.1498 157.196 24.0788 156.062 23.4488C154.928 22.7873 153.306 22.4565 151.196 22.4565H146.565ZM146.565 16.8338H150.156C152.424 16.8338 154.046 16.5503 155.023 15.9833C155.999 15.3848 156.488 14.4398 156.488 13.1483C156.488 11.8253 155.984 10.8961 154.976 10.3606C153.968 9.82507 152.487 9.55732 150.534 9.55732C149.904 9.55732 149.227 9.57307 148.503 9.60457C147.778 9.60457 147.132 9.63607 146.565 9.69907V16.8338Z" fill="#414652"/>
<path d="M191.541 24.252C191.541 26.205 191.258 28.0005 190.691 29.6385C190.124 31.245 189.305 32.631 188.234 33.7965C187.163 34.9305 185.871 35.8125 184.359 36.4425C182.879 37.0725 181.209 37.3875 179.351 37.3875C177.524 37.3875 175.854 37.0725 174.342 36.4425C172.862 35.8125 171.586 34.9305 170.515 33.7965C169.444 32.631 168.609 31.245 168.011 29.6385C167.412 28.0005 167.113 26.205 167.113 24.252C167.113 22.299 167.412 20.5193 168.011 18.9128C168.641 17.3063 169.491 15.936 170.562 14.8021C171.665 13.6681 172.956 12.7861 174.437 12.1561C175.949 11.5261 177.587 11.2111 179.351 11.2111C181.146 11.2111 182.784 11.5261 184.265 12.1561C185.777 12.7861 187.068 13.6681 188.139 14.8021C189.21 15.936 190.045 17.3063 190.643 18.9128C191.242 20.5193 191.541 22.299 191.541 24.252ZM184.359 24.252C184.359 22.0785 183.918 20.3775 183.036 19.149C182.186 17.889 180.957 17.259 179.351 17.259C177.744 17.259 176.5 17.889 175.618 19.149C174.736 20.3775 174.295 22.0785 174.295 24.252C174.295 26.4255 174.736 28.158 175.618 29.4495C176.5 30.7095 177.744 31.3395 179.351 31.3395C180.957 31.3395 182.186 30.7095 183.036 29.4495C183.918 28.158 184.359 26.4255 184.359 24.252Z" fill="#414652"/>
<path d="M194.396 5.68284L201.436 4.54884V11.8726H209.894V17.7315H201.436V26.4728C201.436 27.9533 201.688 29.1345 202.192 30.0165C202.728 30.8985 203.783 31.3395 205.358 31.3395C206.114 31.3395 206.886 31.2765 207.673 31.1505C208.492 30.993 209.233 30.7882 209.894 30.5362L210.886 36.0172C210.036 36.3637 209.091 36.663 208.051 36.915C207.012 37.167 205.736 37.293 204.224 37.293C202.303 37.293 200.712 37.041 199.452 36.537C198.192 36.0015 197.184 35.277 196.428 34.3635C195.672 33.4185 195.136 32.2845 194.821 30.9615C194.538 29.6385 194.396 28.1738 194.396 26.5673V5.68284Z" fill="#414652"/>
</g>
</g>
</svg>
