<svg width="128" height="80" viewBox="0 0 128 80" fill="none" xmlns="http://www.w3.org/2000/svg">
<g id="logo / payment method / nordea / black">
<g id="logo">
<path fill-rule="evenodd" clip-rule="evenodd" d="M80.1039 27.6277H76.1968V34.921C75.2417 33.7055 72.2896 32.6636 69.7717 32.924C64.9963 33.2713 61.176 37.1785 60.8287 41.9538C60.4814 47.5975 64.9095 52.2861 70.4663 52.2861C72.5501 52.2861 75.4153 51.331 76.3704 49.5076V51.9387H80.1039V27.6277ZM76.0231 42.8221C75.8495 46.0346 73.0711 48.4657 69.7717 48.0316C67.2538 47.6843 65.2568 45.6873 64.9095 43.1694C64.5622 39.7832 67.1669 36.918 70.4663 36.918C73.4184 36.918 75.8495 39.2623 76.0231 42.2143V42.8221Z" fill="black"/>
<path d="M9.34126 29.6247L22.0177 44.5586V29.6247H26.2722V52.0256H22.365L9.51491 37.0049V51.9388H5V29.6247H9.34126Z" fill="black"/>
<path d="M60.3078 36.8312V32.8372C56.6611 32.8372 55.4455 34.6605 54.8378 35.6156V33.445H50.6702V51.9388H54.9246V42.8221C54.9246 38.6545 57.3557 37.0048 60.3078 36.8312Z" fill="black"/>
<path fill-rule="evenodd" clip-rule="evenodd" d="M103.72 41.9538C104.068 37.1785 107.888 33.2713 112.663 32.924C118.307 32.4899 123.169 36.7443 122.995 42.8221V52.0256H119.262V49.1603C118.046 51.2441 115.355 52.286 113.358 52.286C107.801 52.286 103.373 47.5975 103.72 41.9538ZM112.75 48.0316C116.049 48.4657 118.828 46.0346 119.002 42.8221V42.2143C118.828 39.2623 116.397 36.918 113.445 36.918C110.145 36.918 107.541 39.7832 107.888 43.1694C108.235 45.6873 110.232 47.6843 112.75 48.0316Z" fill="black"/>
<path fill-rule="evenodd" clip-rule="evenodd" d="M82.7086 42.7353C82.7086 37.0048 87.0498 33.0977 92.1725 32.924C98.3371 32.7504 101.636 37.7862 102.071 41.6066L87.5708 45.6005C88.5259 47.337 90.957 48.9867 93.5617 48.4657C95.3851 48.1184 97.0347 46.8161 97.7293 45.2532L101.463 46.3819C99.9868 50.1154 96.2533 52.3729 92.433 52.3729C86.963 52.3729 82.7086 47.9448 82.7086 42.7353ZM90.6097 36.8312C88.0049 37.7862 86.7894 40.1305 86.7894 42.1275L97.2952 39.2623C96.1665 37.1785 93.5617 35.7024 90.6097 36.8312Z" fill="black"/>
<path fill-rule="evenodd" clip-rule="evenodd" d="M28.79 42.5616C28.79 37.1785 33.1313 32.8372 38.5145 32.8372C43.8108 32.8372 48.1521 37.1785 48.2389 42.5616C48.2389 47.9448 43.8976 52.2861 38.5145 52.2861C33.1313 52.2861 28.79 47.9448 28.79 42.5616ZM32.9576 42.5616C32.9576 45.6005 35.4756 48.1184 38.5145 48.1184C41.5533 48.1184 44.0713 45.6873 44.0713 42.5616C44.0713 39.5227 41.5533 37.0048 38.5145 37.0048C35.4756 37.0048 32.9576 39.5227 32.9576 42.5616Z" fill="black"/>
</g>
</g>
</svg>
