<svg width="128" height="80" viewBox="0 0 128 80" fill="none" xmlns="http://www.w3.org/2000/svg">
<g id="logo / payment method / postepay / brand-light">
<g id="logo">
<path d="M5 23H123V57H5V23Z" fill="#F7E224"/>
<path d="M25.186 33.8018C24.3905 33.0063 23.3961 32.6748 22.1365 32.6748C21.5399 32.6748 20.877 32.7411 20.2804 33.0063C20.1478 33.0726 19.9489 33.0725 19.8163 33.2051C19.0871 33.5366 18.3579 34.1332 17.695 34.7962L17.8939 32.8074H15.5736C15.5073 33.404 15.5073 33.9344 15.441 34.4647C15.3748 35.0613 15.2422 35.5917 15.1759 36.122L11.8613 50.5737H14.3804L15.9051 43.9445C16.3691 44.6074 16.9658 45.1377 17.5624 45.4692C18.2253 45.8006 18.9545 45.9995 19.8826 45.9995C20.0152 45.9995 20.1478 45.9995 20.2804 45.9995C21.2085 45.9332 22.0703 45.6681 22.8658 45.204C23.7939 44.6737 24.5894 43.9445 25.186 42.8838C25.7163 42.0883 26.1141 41.0939 26.313 40.0332C26.5781 38.9063 26.7107 37.9119 26.5781 36.9175C26.4455 35.6579 26.0478 34.531 25.186 33.8018ZM23.8601 39.5692C23.595 40.4973 23.2635 41.2928 22.8658 42.022C22.468 42.8175 21.9377 43.3478 21.2747 43.7456C21.0096 43.8782 20.6781 44.0108 20.3467 44.1433C20.0152 44.2096 19.6175 44.2759 19.2197 44.2759C18.4242 44.2759 17.8276 44.0108 17.3635 43.613C16.8995 43.149 16.568 42.5523 16.568 41.8231C16.5017 41.1602 16.568 40.3647 16.8332 39.304C17.0983 38.3096 17.4298 37.3815 17.8276 36.6523C18.2253 35.8568 18.7557 35.2602 19.3523 34.8624C19.6837 34.6636 20.0152 34.4647 20.3467 34.3984C20.6118 34.3321 20.9433 34.2658 21.2747 34.2658C22.0703 34.2658 22.7332 34.531 23.2635 35.0613C23.7276 35.5917 24.059 36.2546 24.1253 37.1164C24.1253 37.7793 24.059 38.6411 23.8601 39.5692Z" fill="#0054A4"/>
<path d="M86.2411 33.6025C85.5118 32.8733 84.5175 32.4756 83.2579 32.4756C82.4624 32.4756 81.6669 32.6082 81.004 32.9396C80.9377 33.0059 80.8051 33.0059 80.6725 33.0722C80.0759 33.4037 79.5456 33.8677 79.0152 34.3318L79.0815 32.7408H75.5017C75.4354 33.6025 75.1703 34.9284 74.7725 36.7183L71.7231 50.5733H75.7006L77.2253 43.7452C77.6231 44.4745 78.1534 45.0048 78.8164 45.3363C79.3467 45.6014 79.9433 45.8003 80.6725 45.8666C80.8051 45.8666 81.004 45.9329 81.1366 45.9329C83.1253 45.9329 84.7826 45.0048 85.9759 43.2149C87.2354 41.425 87.6995 39.2374 87.4343 36.652C87.4343 35.3924 86.9703 34.3318 86.2411 33.6025ZM83.4568 39.2374C83.2579 40.0992 82.9927 40.8947 82.6613 41.6239C82.3298 42.2868 81.9984 42.7509 81.5343 43.0823C81.2691 43.2812 81.004 43.4138 80.7388 43.4801C80.5399 43.5464 80.3411 43.5464 80.1422 43.5464C79.4793 43.5464 78.9489 43.2812 78.5512 42.8834C78.1534 42.4857 77.9546 41.8228 77.822 41.0273C77.6894 39.4363 77.9545 38.0441 78.7501 36.7183C79.2804 35.7902 79.9433 35.1936 80.7388 34.9284C81.004 34.8621 81.2691 34.8621 81.5343 34.8621C82.1309 34.8621 82.6613 35.061 82.9927 35.4587C83.3242 35.7902 83.5894 36.3205 83.5894 37.0497C83.6557 37.6464 83.6557 38.3756 83.4568 39.2374Z" fill="#0054A4"/>
<path d="M99.3669 33.4703C98.4388 32.8737 97.2456 32.6748 95.522 32.6748C94.9916 32.6748 94.4613 32.6748 93.9973 32.7411C93.0029 32.8737 92.2074 33.1388 91.4781 33.6029C90.5501 34.2658 89.9534 35.1939 89.8871 36.3872H93.6658C93.7321 35.9894 93.8647 35.658 94.0636 35.4591C94.1299 35.3265 94.1961 35.2602 94.3287 35.1939C94.5939 34.9287 95.0579 34.7962 95.5883 34.7962C96.0523 34.7962 96.4501 34.8624 96.7152 35.0613C96.9804 35.2602 97.113 35.5254 97.1793 35.9231C97.1793 36.122 97.1793 36.3209 97.113 36.5197C97.113 36.7849 97.0467 37.1164 96.9141 37.6467C96.7815 37.6467 96.6489 37.6467 96.5164 37.6467C96.3838 37.6467 96.1186 37.6467 95.8534 37.6467C95.2568 37.6467 94.5939 37.6467 94.0636 37.713C92.2074 37.8456 90.749 38.3096 89.6883 38.9726C88.3624 39.8344 87.6995 41.0939 87.8984 42.6849C87.9647 43.7456 88.3624 44.5411 89.0917 45.1377C89.8209 45.7343 90.6826 46.0658 91.8759 46.0658C92.6714 46.0658 93.3343 45.8669 93.9973 45.5355L94.0636 45.4692C94.6602 45.204 95.1905 44.6737 95.6546 44.0108C95.6546 44.3422 95.5883 44.6074 95.5883 44.9388C95.5883 45.2703 95.5883 45.5355 95.5883 45.8669H99.2343C99.2343 45.2703 99.2343 44.74 99.3006 44.2096C99.3669 43.613 99.4332 43.0827 99.5658 42.6186L100.56 38.2433C100.626 37.8456 100.759 37.3815 100.825 37.0501C100.892 36.6523 100.892 36.3209 100.825 35.9894C100.693 34.8624 100.229 34.0007 99.3669 33.4703ZM95.1905 42.5523C94.7928 42.9501 94.395 43.2815 94.0636 43.4804C93.7984 43.613 93.4669 43.6793 93.1355 43.6793C92.7377 43.6793 92.34 43.613 92.1411 43.3478C91.8759 43.0827 91.7433 42.7512 91.7433 42.3535C91.677 41.558 92.0085 40.895 92.804 40.3647C93.2017 40.0995 93.5995 39.9007 94.1298 39.7681C94.5939 39.6355 95.1905 39.5692 95.7871 39.5692C95.986 39.5692 96.0523 39.5692 96.1849 39.5692C96.2512 39.5692 96.3838 39.5692 96.4501 39.6355C96.2512 40.8287 95.7871 41.8231 95.1905 42.5523Z" fill="#0054A4"/>
<path d="M112.426 32.7407L107.388 41.6902L106.261 32.7407H102.35L104.604 45.8003L101.488 50.5733H105.665L108.051 46.3306L116.139 32.7407H112.426Z" fill="#0054A4"/>
<path d="M39.5714 36.7846C39.4388 35.4587 38.9748 34.398 37.9804 33.6025C37.0523 32.8733 35.8591 32.4756 34.3343 32.4756C33.9366 32.4756 33.4725 32.4756 33.0748 32.5419C32.2793 32.6082 31.5501 32.807 30.9534 33.0722C30.0254 33.47 29.2298 34.0666 28.6332 34.8621C27.9703 35.7902 27.5063 36.8509 27.1748 38.0441C26.777 39.3037 26.7107 40.4306 26.777 41.5576C26.8433 42.9497 27.3737 44.0104 28.3681 44.8059C29.2961 45.6014 30.4894 45.9992 32.0141 45.9992C32.4119 45.9992 32.8096 45.9329 33.1411 45.9329C34.0692 45.8666 34.931 45.6677 35.5939 45.3363C36.522 44.9385 37.3175 44.2093 37.9804 43.2149C38.577 42.3531 38.9748 41.2924 39.24 40.0992C39.5714 38.9722 39.704 37.779 39.5714 36.7846ZM36.7209 39.6351C36.4557 40.6295 36.1242 41.5576 35.6602 42.3531C35.2624 43.0823 34.7321 43.6127 34.2018 43.9441C33.9366 44.143 33.5388 44.2756 33.1411 44.3419C32.8759 44.4082 32.5444 44.4082 32.213 44.4082C31.3512 44.4082 30.6883 44.143 30.1579 43.679C29.6939 43.2149 29.3624 42.552 29.2961 41.6902C29.2298 40.8947 29.2961 40.0329 29.5613 38.9722C29.8265 37.9115 30.1579 37.0497 30.5557 36.3205C30.9534 35.525 31.4838 34.9947 32.0804 34.5306C32.4119 34.3317 32.8096 34.1992 33.1411 34.1329C33.4725 34.0666 33.7377 34.0003 34.0692 34.0003C34.9973 34.0003 35.6602 34.2655 36.1242 34.7295C36.5883 35.1273 36.9197 35.8565 36.986 36.8509C37.0523 37.7126 36.986 38.5745 36.7209 39.6351Z" fill="#0054A4"/>
<path d="M49.5815 33.2049C48.8522 32.8072 47.7916 32.542 46.2668 32.542C44.6758 32.542 43.35 32.9398 42.4219 33.669C41.4938 34.4645 41.0961 35.3263 41.1623 36.4532C41.2286 37.1162 41.4938 37.7128 42.0904 38.2431C42.6208 38.7735 43.5489 39.3701 44.8747 39.9667C45.9354 40.4308 46.5983 40.8285 46.9298 41.0937C47.2612 41.3589 47.4601 41.6903 47.4601 42.0881C47.5264 42.6847 47.2612 43.215 46.6646 43.6791C46.068 44.0768 45.3388 44.2757 44.3444 44.2757C43.5489 44.2757 43.0848 44.2094 42.6871 43.878C42.2893 43.6128 42.0904 43.2813 42.0904 42.751C42.0241 42.6184 42.0241 42.4858 42.0904 42.2869C42.0904 42.0881 42.1567 41.8892 42.223 41.6903H39.6376C39.5713 41.9555 39.5713 42.2869 39.505 42.4858C39.4388 42.751 39.4388 43.0162 39.505 43.215C39.5713 44.1431 40.0354 44.8723 40.8309 45.4027C41.6927 45.8667 42.8197 46.1982 44.2118 46.1982C46.0017 46.1982 47.5264 45.8004 48.5871 44.9386C49.714 44.1431 50.1781 43.0824 50.1118 41.8892C50.0455 41.16 49.7803 40.5634 49.3163 40.0993C48.9185 39.6353 47.8579 38.9723 46.3331 38.3094C45.2062 37.7791 44.5432 37.3813 44.2118 37.1162C43.8803 36.851 43.7477 36.5195 43.6815 36.1881C43.6152 35.5914 43.814 35.1274 44.2781 34.7959C44.6758 34.4645 45.3387 34.2656 46.1343 34.2656C46.8635 34.2656 47.3938 34.3982 47.7253 34.6633C48.123 34.9285 48.3219 35.26 48.3219 35.7903C48.3219 35.8566 48.3219 36.0555 48.3219 36.1218C48.3219 36.1881 48.3219 36.3869 48.3219 36.5195H50.6421C50.7084 36.1881 50.7084 35.9229 50.7084 35.7903C50.7084 35.5914 50.7084 35.4589 50.7084 35.3263C50.7084 34.1993 50.3107 33.6027 49.5815 33.2049Z" fill="#0054A4"/>
<path d="M56.8073 44.2094C56.2106 44.2094 55.8129 44.1431 55.5477 43.9442C55.2826 43.8117 55.15 43.5465 55.15 43.1487C55.0837 43.0161 55.15 42.8173 55.2163 42.5521C55.2163 42.2869 55.2826 41.9555 55.4814 41.4251L56.9399 34.6633H59.7241L60.1219 33.006H57.3376L58.1331 29.4263L55.614 30.0229L54.9511 33.006H52.4983L52.1005 34.6633H54.487L53.0286 41.16C52.9623 41.7566 52.7634 42.3532 52.7634 42.9499C52.6972 43.4802 52.6972 43.8779 52.6972 44.1431C52.7634 44.8723 52.9623 45.4027 53.4927 45.6678C53.8904 45.9993 54.6196 46.1319 55.614 46.1319C55.9455 46.1319 56.3432 46.0656 56.741 46.0656C57.1387 45.9993 57.5365 45.9993 58.0005 45.933L58.3983 44.0105C58.1331 44.0768 57.868 44.1431 57.6028 44.1431C57.2713 44.1431 57.0061 44.2094 56.8073 44.2094Z" fill="#0054A4"/>
<path d="M62.3758 39.6353H71.723C71.8556 39.0386 71.9882 38.5083 71.9882 37.978C72.0545 37.4476 72.0545 36.9173 71.9882 36.4532C71.9219 35.0611 71.3916 34.0667 70.5298 33.4701C69.668 32.8735 68.4084 32.542 66.6848 32.542C66.486 32.542 66.3534 32.542 66.1545 32.542C65.1601 32.6083 64.2983 32.8072 63.5028 33.2712C62.5747 33.669 61.8455 34.3982 61.2489 35.26C60.7186 36.1881 60.2545 37.2487 59.9893 38.5083C59.6579 39.7678 59.5916 40.9611 59.6579 41.9555C59.7242 43.2813 60.2545 44.342 61.1163 45.0712C62.0444 45.8004 63.2376 46.1982 64.7624 46.1982C65.2264 46.1982 65.6905 46.1319 66.1545 46.1319C67.2152 45.9993 68.1433 45.6678 68.8725 45.1375C69.9995 44.4083 70.6624 43.4139 70.9938 42.1544H68.2096C67.9444 42.8836 67.5466 43.4139 66.95 43.8117C66.6848 43.9442 66.4197 44.0768 66.1545 44.2094C65.823 44.342 65.4253 44.4083 65.0275 44.4083C64.0994 44.4083 63.4365 44.1431 62.9062 43.7454C62.4422 43.3476 62.1107 42.6847 62.0444 41.8892C62.0444 41.624 62.0444 41.2926 62.1107 40.9611C62.177 40.3645 62.2433 39.9667 62.3758 39.6353ZM64.232 34.9948C64.7624 34.3982 65.4253 34.133 66.2208 34.0667C66.3534 34.0667 66.5523 34.0004 66.6848 34.0004C67.5466 34.0004 68.2096 34.2656 68.7399 34.5971C69.2039 34.9948 69.5354 35.5251 69.5354 36.1881C69.6017 36.3869 69.6017 36.5858 69.5354 36.7847C69.5354 37.0499 69.4691 37.3813 69.4691 37.7791H62.9062C63.0388 36.5858 63.5691 35.5914 64.232 34.9948Z" fill="#0054A4"/>
</g>
</g>
</svg>
