<svg width="128" height="80" viewBox="0 0 128 80" fill="none" xmlns="http://www.w3.org/2000/svg">
<g id="logo / payment method / mpesa / brand">
<g id="logo">
<path fill-rule="evenodd" clip-rule="evenodd" d="M40.7207 23.116H49.0138C51.6497 23.116 53.8083 25.2745 53.8083 27.9105V41.6981C53.8083 44.336 51.6497 46.4945 49.0138 46.4945H40.7207C39.4505 46.4903 38.2334 45.9838 37.3352 45.0856C36.437 44.1874 35.9305 42.9703 35.9263 41.7001V27.9105C35.9263 25.2725 38.0828 23.114 40.7207 23.114" fill="white"/>
<path fill-rule="evenodd" clip-rule="evenodd" d="M40.7207 23.116H49.0138C51.6497 23.116 53.8083 25.2745 53.8083 27.9105L53.8083 41.7001C53.8083 44.3361 51.6497 46.4945 49.0138 46.4945H40.7207C39.4505 46.4903 38.2334 45.9838 37.3352 45.0856C36.437 44.1874 35.9305 42.9703 35.9263 41.7001V27.9105C35.9263 25.2725 38.0828 23.114 40.7207 23.114V23.116ZM52.0109 67.0747H37.7238C35.6355 67.0747 33.9263 65.3675 33.9263 63.2792V21.4169C33.9263 19.3306 35.6355 17.6215 37.7238 17.6215H52.0109C52.1794 17.6215 52.3459 17.6315 52.5104 17.6536V14.5743C52.5084 13.6675 53.2507 12.9253 54.1574 12.9253C55.0641 12.9253 55.8064 13.6675 55.8064 14.5743V19.7699C55.8064 19.9986 55.7582 20.2193 55.672 20.4199C55.7602 20.7369 55.8064 21.0719 55.8064 21.4169V63.2792C55.8064 65.3655 54.0992 67.0747 52.0109 67.0747Z" fill="#DBE4C5"/>
<path fill-rule="evenodd" clip-rule="evenodd" d="M64.0632 26.2676C66.312 25.9466 68.0392 26.5705 68.1575 30.1152C68.0833 33.2787 66.4022 34.0792 64.0612 33.9106L64.0632 26.2676ZM59.1644 23.9947L68.2819 23.9586C71.606 24.3799 73.1426 26.8674 73.0022 30.4883C72.7494 34.1353 70.6812 35.9187 67.2267 36.2317L63.9167 36.1655L64.011 46.1737H59.1644V23.9947ZM81.4697 23.7179L87.2432 23.6918L87.199 26.1693L82.6774 26.1492C80.0695 26.6347 80.6533 29.4171 80.5269 31.4272L86.6092 31.3148L86.6293 34.354L80.7375 34.2938L80.7094 41.656C80.9401 43.5658 81.9452 44.5247 83.6403 44.637L86.8801 44.6009L87.867 44.621L87.8349 46.9219L86.8239 46.96L80.6713 46.8938C78.5509 46.8216 76.8398 45.7704 76.0514 42.5006L75.8989 28.2155C75.9852 25.2866 77.921 23.8503 81.4697 23.7179ZM89.3615 29.9888C88.9985 25.2024 91.6665 24.1191 94.9063 23.744C98.7017 23.5193 101.085 25.1021 101.55 29.1403L97.0708 29.1282C96.786 27.0881 95.2012 26.3057 93.7528 27.2766C91.6866 29.8043 98.136 34.2557 100.068 35.9067C103.412 38.5506 102.846 45.8768 97.6967 47.2349L94.5572 47.3472C91.3676 47.4234 89.4699 45.4093 88.9202 41.6741L93.4338 41.5938C93.6806 43.1886 94.3606 44.1816 95.807 44.1094C98.0538 43.6821 98.6716 41.7042 97.0728 39.1785C93.7267 36.338 89.7648 33.6719 89.3615 29.9888ZM10 22.9957H14.7443L14.7945 24.4682C17.6631 23.2284 19.8237 22.3538 22.0885 24.3939C26.1387 22.4822 29.2 22.6988 30.7185 26.2475L30.9312 46.1737H26.1467V27.1683C25.7917 25.5414 24.5038 25.2625 22.9491 25.3689V46.1716H18.0543V27.1683C17.6992 25.5414 16.4093 25.2625 14.8567 25.3689V46.1716H10V22.9957ZM109.133 28.0229C109.294 26.7169 109.719 26.1914 111.155 26.0509C112.612 26.087 113.129 26.9276 113.23 28.2235V31.7702H109.133V28.0229ZM104.212 46.7554H109.133V34.5185H113.23V46.7554H118V29.2747C117.904 25.7199 115.171 23.4932 111.306 23.4792C106.892 23.439 104.377 25.5334 104.212 29.0761V46.7574" fill="#69AC22"/>
<path fill-rule="evenodd" clip-rule="evenodd" d="M39.7459 32.4443C40.5683 34.3641 41.6837 35.2468 43.0358 35.2989C40.9274 36.8757 38.6425 37.8346 36.2634 38.4464C34.7708 38.3501 33.3405 37.969 31.9543 37.5899C35.4589 36.8978 38.0728 35.2026 39.7459 32.4443Z" fill="#7F1D1E"/>
<path fill-rule="evenodd" clip-rule="evenodd" d="M48.9376 27.4993L58.8274 32.4944C53.7922 39.1224 45.2966 39.2949 36.2493 38.4383C42.2975 36.9478 46.4862 33.2527 48.9376 27.4993Z" fill="#EC1D27"/>
</g>
</g>
</svg>
