<svg width="128" height="80" viewBox="0 0 128 80" fill="none" xmlns="http://www.w3.org/2000/svg">
<g id="logo / payment method / payretailers / brand">
<g id="wordmark">
<path id="Vector" d="M51.5955 68.3716H50.4859C50.2982 67.9854 50.1038 67.5759 49.9007 67.1691C49.7627 66.878 49.6095 66.5944 49.4418 66.3194C49.1859 65.9185 48.9127 65.8264 48.3789 65.9185C48.2623 66.7282 48.1438 67.5494 48.0235 68.3823H46.9861C47.2406 66.4062 47.5325 64.4515 47.8058 62.4795C47.9394 62.4708 48.0356 62.4561 48.1331 62.4595C48.7343 62.4782 49.3356 62.4688 49.9294 62.5296C50.6229 62.6004 51.1533 63.052 51.2775 63.6472C51.4532 64.4903 51.1934 65.1777 50.3336 65.5498L50.1619 65.6239C50.3416 65.9246 50.522 66.2005 50.675 66.4924C50.9422 67.0041 51.1954 67.5238 51.4519 68.0422C51.5 68.1331 51.5374 68.234 51.5955 68.3716ZM48.5052 65.0468C48.7778 65.0468 49.0122 65.0721 49.24 65.0387C49.448 65.0082 49.6491 64.942 49.8346 64.843C50.1198 64.688 50.2454 64.4235 50.2354 64.0941C50.2287 63.8156 50.1252 63.5945 49.868 63.4742C49.5059 63.3059 49.1265 63.3032 48.7377 63.3593C48.6588 63.9231 48.586 64.4582 48.5052 65.0468Z" fill="#468534"/>
<path id="Vector_2" d="M88.2239 62.4535C88.9834 62.4755 89.6828 62.3993 90.3783 62.5203C91.8433 62.7795 92.0564 64.2832 91.4237 65.0588C91.2454 65.2773 91.0336 65.4236 90.5212 65.6407C90.8466 65.9233 90.9929 66.3087 91.1766 66.6735C91.4068 67.1295 91.6357 67.5862 91.8633 68.0436C91.9114 68.1412 91.9522 68.244 92.0103 68.3723H90.922C90.8793 68.2955 90.8225 68.2033 90.7737 68.1051C90.5259 67.6081 90.2814 67.1097 90.0322 66.6134C89.9718 66.4946 89.9032 66.3801 89.8271 66.2706C89.578 65.9132 89.2627 65.8084 88.7944 65.9293C88.6434 66.7309 88.594 67.56 88.4203 68.3763H87.4182C87.4489 67.6963 87.5819 67.0496 87.6727 66.3976C87.7636 65.7456 87.8524 65.1022 87.9399 64.4549L88.2239 62.4535ZM88.922 65.0488C89.1945 65.0488 89.417 65.0688 89.6341 65.0441C89.9334 65.0101 90.2199 64.9239 90.4357 64.6894C90.8078 64.2846 90.7283 63.5537 90.0883 63.3974C89.7821 63.3226 89.4637 63.3119 89.1531 63.366C89.0743 63.9225 89.0001 64.4676 88.922 65.0488Z" fill="#468534"/>
<path id="Vector_3" d="M82.2501 62.4709H85.6643C85.6229 62.7589 85.5848 63.0254 85.5414 63.326H83.1766L82.9441 64.9146H85.031C84.9936 65.2273 84.9642 65.4844 84.9268 65.7757C84.2334 65.8425 83.548 65.7684 82.8206 65.8185C82.7417 66.3743 82.6629 66.9274 82.5787 67.5193H85.5514C85.5093 67.8252 85.4726 68.0904 85.4338 68.3744H81.4177C81.6956 66.4023 81.9702 64.455 82.2501 62.4709Z" fill="#468534"/>
<path id="Vector_4" d="M54.3404 62.4783H57.7206L57.5971 63.3287H55.2269C55.1501 63.8598 55.0773 64.3681 54.9978 64.9172H57.0954C57.0506 65.2265 57.0119 65.4931 56.9685 65.7957H54.8722C54.792 66.3776 54.7172 66.922 54.635 67.5172H57.5984C57.561 67.8265 57.5316 68.0837 57.5002 68.3329C57.233 68.4157 53.8568 68.4257 53.5361 68.3516C53.4519 68.1431 54.2335 62.9459 54.3404 62.4783Z" fill="#468534"/>
<path id="Vector_5" d="M68.0632 66.8129H66.2742C66.0451 67.3353 65.8193 67.8517 65.5888 68.3787H64.4939C65.4024 66.3713 66.3069 64.4093 67.2221 62.4246H68.2101C68.3531 62.7158 69.3384 68.0808 69.295 68.3754H68.3538C68.2576 67.859 68.1634 67.3506 68.0632 66.8129ZM67.5381 63.7119L66.6029 66.0219H67.9269C67.8435 65.2448 67.7137 64.4734 67.5381 63.7119Z" fill="#468534"/>
<path id="Vector_6" d="M40.0776 68.3781H39.1063C38.9172 67.8804 38.9339 67.3366 38.7723 66.8149H36.9806L36.3005 68.3701H35.2163C36.1302 66.3766 37.0314 64.4126 37.9426 62.4246H38.978C39.3407 64.3933 39.7048 66.3633 40.0776 68.3781ZM38.3167 63.7179C38.1463 63.9016 37.4202 65.6779 37.3747 66.0213H38.6707C38.5511 65.2423 38.4349 64.4854 38.3167 63.7179Z" fill="#0074BB"/>
<path id="Vector_7" d="M31.8456 66.0056C31.728 66.8159 31.6178 67.5801 31.5035 68.3671H30.4814C30.5796 67.3857 30.7446 66.4197 30.8729 65.4491C31.0012 64.4784 31.1441 63.4944 31.2777 62.5378C31.3172 62.5057 31.3332 62.481 31.3512 62.4797C32.0059 62.451 32.6619 62.4082 33.3112 62.5311C34.0387 62.6687 34.499 63.1323 34.6413 63.8471C34.7796 64.5406 34.4863 65.2801 33.9185 65.6595C33.5969 65.884 33.2144 66.0047 32.8222 66.0056H31.8456ZM31.9565 65.1605C32.3526 65.2026 32.7234 65.2273 33.0787 65.059C33.4702 64.8719 33.6573 64.5245 33.6045 64.0783C33.5591 63.7022 33.3019 63.4216 32.8877 63.3521C32.6766 63.3167 32.4548 63.3461 32.2157 63.3461C32.1281 63.96 32.044 64.5492 31.9565 65.1605Z" fill="#0074BB"/>
<path id="Vector_8" d="M93.6104 67.9688C93.6625 67.6435 93.7106 67.3408 93.7607 67.0282C94.0599 67.1745 94.3191 67.3261 94.597 67.429C94.9063 67.5473 95.2257 67.6461 95.5704 67.5346C96.1502 67.3475 96.3119 66.8158 95.897 66.3675C95.718 66.1738 95.4909 66.0248 95.2885 65.8518C95.0099 65.614 94.7133 65.3935 94.4621 65.131C93.8275 64.4676 93.9277 63.2471 94.8803 62.6986C95.6004 62.2825 96.3446 62.3152 97.1002 62.5858C97.203 62.6225 97.3006 62.6719 97.4342 62.728C97.3874 63.0293 97.342 63.3206 97.2906 63.6553C97.175 63.6065 97.0901 63.5624 97.0033 63.535C96.7187 63.4462 96.4375 63.3346 96.1455 63.2852C95.7033 63.2137 95.2878 63.4609 95.1675 63.8089C95.0954 64.016 95.1134 64.2097 95.2564 64.3721C95.4151 64.5419 95.5847 64.7012 95.7641 64.8491C96.0981 65.137 96.4782 65.3868 96.7795 65.7075C97.3353 66.3007 97.3293 67.2313 96.8149 67.8452C96.5123 68.2066 96.1075 68.391 95.6572 68.4464C94.9377 68.5333 94.2637 68.3823 93.6104 67.9688Z" fill="#468534"/>
<path id="Vector_9" d="M59.6012 62.4773H64.1846C64.1378 62.7732 64.0964 63.0404 64.0509 63.3397H62.2987C62.0589 65.0339 61.8231 66.6966 61.5852 68.3754H60.5331C60.7669 66.6973 60.9974 65.0446 61.2339 63.3484H59.5598C59.4556 63.0304 59.6112 62.7766 59.6012 62.4773Z" fill="#468534"/>
<path id="Vector_10" d="M43.4273 68.3701H42.4299C42.5555 67.4636 42.6784 66.5784 42.808 65.6465L41.5 62.494C41.8634 62.4232 42.1887 62.4733 42.5261 62.4573L43.4146 64.6157C43.7299 64.259 43.9176 63.8708 44.1601 63.5215C44.4026 63.1721 44.6277 62.82 44.8568 62.472H45.9464C45.8909 62.5735 45.8569 62.6517 45.8128 62.7212C45.2236 63.5983 44.6397 64.4781 44.0378 65.3459C43.8889 65.5665 43.7971 65.8206 43.7706 66.0854C43.6784 66.7895 43.584 67.4934 43.4874 68.1971C43.4725 68.2564 43.4524 68.3143 43.4273 68.3701Z" fill="#0074BB"/>
<path id="Vector_11" d="M79.307 67.5316C79.2923 67.7079 79.2897 67.8182 79.273 67.9264C79.2502 68.068 79.2168 68.2076 79.1895 68.3426C78.9162 68.4174 75.997 68.4214 75.6597 68.3426C75.9322 66.3986 76.2054 64.4506 76.482 62.4819H77.5248C77.4005 63.3363 77.2769 64.1667 77.158 64.9977C77.0391 65.8288 76.9236 66.6565 76.8 67.5362L79.307 67.5316Z" fill="#468534"/>
<path id="Vector_12" d="M72.6956 68.3821H71.6782C71.9568 66.4 72.2313 64.4407 72.5066 62.48H73.4932C73.5747 62.7231 72.8038 67.9325 72.6956 68.3821Z" fill="#468534"/>
</g>
<g id="logo">
<g id="pay">
<path d="M18.8994 21.5846C19.0463 21.5759 19.1666 21.5638 19.2841 21.5638C22.0097 21.5638 24.7353 21.5418 27.4602 21.5712C28.9165 21.5872 30.3635 21.7275 31.759 22.2092C34.2261 23.0596 35.6169 24.8419 36.2115 27.3136C36.3738 28.0182 36.4388 28.7418 36.4045 29.464C36.3317 31.4107 35.8414 33.2384 34.7752 34.8858C34.0931 35.9393 33.1719 36.7563 32.1124 37.4143C30.8512 38.1952 29.469 38.6121 28.0027 38.7784C27.1408 38.8684 26.2744 38.9075 25.408 38.8953C24.3392 38.8906 23.2703 38.8953 22.2015 38.8953H21.796L20.3744 46.1154C20.1312 46.1943 14.4957 46.219 14 46.1408C15.63 37.9708 17.26 29.802 18.8994 21.5846ZM22.476 34.2331H22.8488C23.9176 34.2331 24.9849 34.2311 26.0507 34.2271C26.6738 34.2369 27.2945 34.1455 27.8884 33.9565C29.0308 33.5751 29.9293 32.8977 30.467 31.7894C30.9266 30.8422 31.1043 29.8461 30.924 28.812C30.7322 27.7131 30.1664 26.8567 29.1343 26.353C28.4295 26.0089 27.6773 25.892 26.9044 25.8854C26.1315 25.8787 25.3679 25.8854 24.603 25.8854C24.5048 25.8854 24.4073 25.898 24.2764 25.9074C23.6798 28.6664 23.0853 31.418 22.476 34.2331Z" fill="#0074BB"/>
<path d="M55.5234 28.189C54.4305 34.2044 53.3383 40.2167 52.2467 46.2259H47.1136C47.2472 45.5886 47.3734 44.9774 47.5144 44.3053C47.0414 44.6447 46.6333 44.9487 46.2137 45.2372C45.1716 45.9547 44.0373 46.4537 42.7667 46.562C41.3017 46.6875 39.9649 46.3188 38.8032 45.3962C37.4324 44.3073 36.6802 42.8497 36.3556 41.1609C36.2322 40.5744 36.17 39.9766 36.1698 39.3773C36.2052 37.4346 36.582 35.5634 37.4785 33.8172C38.8446 31.1564 40.963 29.3634 43.7681 28.3647C45.0373 27.9111 46.352 27.6112 47.7034 27.5544C48.9239 27.5029 50.1491 27.4682 51.3689 27.509C52.7251 27.5531 54.0625 27.7902 55.3818 28.1102C55.431 28.1328 55.4783 28.1592 55.5234 28.189ZM48.1664 40.5109C48.2499 40.076 48.3387 39.6318 48.4196 39.1849C48.8351 36.8935 49.2486 34.6015 49.6601 32.3088C49.6802 32.1959 49.6795 32.079 49.6895 31.946C49.5619 31.9307 49.4764 31.9126 49.3896 31.9113C48.5677 31.8877 47.7457 31.9549 46.9385 32.1117C45.0861 32.4918 43.6091 33.4331 42.6083 35.0631C42.0031 36.037 41.6179 37.1314 41.4794 38.2696C41.3691 39.1782 41.4005 40.0687 41.7606 40.9191C42.1454 41.8283 42.8963 42.4796 44.0025 42.4489C44.48 42.4396 44.9531 42.3569 45.4054 42.2037C46.4442 41.849 47.3173 41.2244 48.1664 40.5109Z" fill="#0074BB"/>
<path d="M63.9083 53.5074H58.1966L63.0552 44.5904C61.0066 39.0841 58.9555 33.5677 56.902 28.0412H62.4179L65.8951 38.003L70.7303 28.0433H76.4493C76.3825 28.3439 64.253 52.9669 63.9083 53.5074Z" fill="#0074BB"/>
</g>
<path id="Vector_13" d="M82.5633 28.0122L76.5944 46.1366H82.7096L84.7444 39.0414H84.878C84.878 39.0414 88.2576 46.3577 95.2459 46.7398C95.2459 46.7398 103.709 48.2142 109.77 41.4984C115.83 34.7827 117.197 18.2389 101.419 13.0522C101.419 13.0522 94.4409 10.3454 85.5307 13.6147C80.0849 15.6135 75.4487 19.3424 72.2368 24.173C72.0141 24.507 71.7861 24.8586 71.5527 25.2278H77.4495C77.4495 25.2278 82.8545 15.4545 96.7777 16.9836C96.7777 16.9836 103.821 16.7104 107.643 24.7368C111.464 32.7632 105.95 41.8258 98.6342 42.2086C98.6342 42.2086 93.9927 42.918 91.8089 39.0414L99.0163 32.8174C99.0163 32.8174 101.527 31.0137 100.82 26.3742C100.113 21.7347 94.7576 20.7513 93.2284 20.8602C93.2284 20.8602 86.9489 19.9864 83.4551 25.501L93.5016 25.4463C93.5016 25.4463 95.467 25.2278 95.7943 27.1932C96.1217 29.1585 94.5391 30.0871 94.5391 30.0871L84.9294 38.1703L88.4239 28.0696L82.5633 28.0122Z" fill="#8DB73C"/>
<path id="Vector_14" d="M113.463 25.1169C112.194 20.0779 108.563 15.401 101.419 13.0522C101.419 13.0522 94.4409 10.3454 85.5307 13.6147C80.0849 15.6135 75.4487 19.3424 72.2368 24.173C72.0141 24.507 71.7861 24.8586 71.5527 25.2278H77.4495C77.4495 25.2278 82.8545 15.4545 96.7777 16.9836C96.7777 16.9836 103.821 16.7104 107.643 24.7368C108.413 26.3432 108.837 28.0942 108.884 29.8753C109.047 36.0814 104.586 41.6795 98.9775 42.1839C103.258 42.1458 113.492 40.622 113.823 26.956C113.736 26.337 113.616 25.7231 113.463 25.1169Z" fill="url(#paint0_linear_499_758)"/>
</g>
</g>
<defs>
<linearGradient id="paint0_linear_499_758" x1="71.5527" y1="27.0916" x2="113.823" y2="27.0916" gradientUnits="userSpaceOnUse">
<stop stop-color="#8DB73C"/>
<stop offset="0.08" stop-color="#81AF3B"/>
<stop offset="0.3" stop-color="#669C37"/>
<stop offset="0.53" stop-color="#538F35"/>
<stop offset="0.76" stop-color="#488733"/>
<stop offset="1" stop-color="#448433"/>
</linearGradient>
</defs>
</svg>
