<svg width="128" height="80" viewBox="0 0 128 80" fill="none" xmlns="http://www.w3.org/2000/svg">
<g id="logo / payment method / paymero / brand-dark">
<g id="wordmark">
<mask id="path-1-outside-1_499_731" maskUnits="userSpaceOnUse" x="30.8458" y="32.1279" width="94" height="16" fill="black">
<rect fill="white" x="30.8458" y="32.1279" width="94" height="16"/>
<path d="M31.8466 46.7318C31.8428 46.7972 31.8529 46.8626 31.8761 46.9239C31.8994 46.9851 31.9354 47.0406 31.9817 47.0869C32.028 47.1333 32.0836 47.1692 32.1448 47.1925C32.206 47.2158 32.2715 47.2259 32.3368 47.2221C32.3992 47.2249 32.4614 47.2138 32.519 47.1896C32.5765 47.1653 32.6279 47.1286 32.6695 47.082C32.7547 46.9853 32.8015 46.8607 32.8008 46.7318V41.3744C33.0481 41.72 33.3394 42.032 33.6675 42.3023C33.9731 42.585 34.3145 42.8263 34.6829 43.0201C35.0611 43.2122 35.4569 43.3675 35.8647 43.4841C36.2851 43.5925 36.7174 43.6484 37.1516 43.6504C38.1806 43.6506 39.1866 43.3454 40.0421 42.7734C40.8977 42.2015 41.5643 41.3886 41.9575 40.4377C42.2353 39.8 42.3755 39.111 42.369 38.4155C42.3686 37.6964 42.2133 36.9858 41.9138 36.332C41.3942 35.074 40.4005 34.071 39.1475 33.5395C38.503 33.264 37.8087 33.1239 37.1078 33.128C36.6647 33.125 36.2231 33.181 35.7947 33.2944C35.375 33.3998 34.9715 33.5618 34.5954 33.7758C34.2257 33.9789 33.8818 34.2258 33.5712 34.5112C33.2729 34.8151 33.0114 35.153 32.7921 35.5179L32.722 33.7671C32.6922 33.6425 32.6354 33.5259 32.5557 33.4257C32.5259 33.3793 32.4842 33.3418 32.4349 33.3172C32.3856 33.2925 32.3305 33.2816 32.2756 33.2856C32.2167 33.2805 32.1576 33.2907 32.1039 33.3152C32.0502 33.3398 32.0038 33.3778 31.9692 33.4257C31.9105 33.5327 31.8831 33.654 31.8904 33.7758V46.7318H31.8466ZM33.1597 36.7522C33.3639 36.2464 33.6608 35.7833 34.0351 35.3866C34.431 34.9865 34.9029 34.6696 35.4231 34.4546C35.9432 34.2396 36.5012 34.1309 37.064 34.1348C37.6437 34.1327 38.218 34.2457 38.7536 34.4674C39.2579 34.6794 39.7137 34.9922 40.0929 35.3866C40.4717 35.7798 40.7692 36.2438 40.9683 36.7522C41.1865 37.2824 41.2966 37.8509 41.2922 38.4242C41.2957 38.989 41.1856 39.5487 40.9683 40.07C40.7608 40.574 40.4643 41.0366 40.0929 41.4356C39.7092 41.8292 39.2549 42.147 38.7536 42.3723C38.2214 42.6059 37.6452 42.7224 37.064 42.7137C36.4972 42.7205 35.9356 42.604 35.4183 42.3723C34.3962 41.9256 33.5868 41.1005 33.1597 40.07C32.9277 39.5517 32.8026 38.992 32.7921 38.4242C32.7907 37.8503 32.9038 37.2819 33.1247 36.7522H33.1597ZM46.3521 40.4552C46.6216 41.0777 47.0045 41.6447 47.4813 42.1272C48.4625 43.105 49.7903 43.6556 51.1755 43.6592C52.037 43.6624 52.8845 43.4423 53.6354 43.0201C54.0103 42.8132 54.3598 42.5635 54.6772 42.276C54.988 42.0011 55.2643 41.6895 55.5 41.3481V43.0201C55.497 43.0851 55.5079 43.15 55.5321 43.2104C55.5563 43.2708 55.5931 43.3253 55.6401 43.3703C55.6834 43.4171 55.7364 43.4539 55.7953 43.478C55.8543 43.5022 55.9178 43.5133 55.9815 43.5103C56.0478 43.5135 56.1141 43.5027 56.1759 43.4785C56.2377 43.4544 56.2938 43.4175 56.3404 43.3703C56.4256 43.2729 56.475 43.1494 56.4805 43.0201V33.7934C56.4827 33.6682 56.4526 33.5445 56.393 33.4344C56.3587 33.3889 56.3134 33.3529 56.2613 33.3299C56.2092 33.3069 56.152 33.2977 56.0953 33.3031C56.0399 33.2984 55.9843 33.308 55.9337 33.331C55.8831 33.354 55.8393 33.3896 55.8064 33.4344C55.7338 33.539 55.6777 33.6542 55.6401 33.7758L55.5526 35.4566C55.3049 35.1238 55.01 34.8289 54.6772 34.5812C54.3665 34.2984 54.0225 34.0544 53.6529 33.8546C53.2778 33.6471 52.8777 33.4882 52.4624 33.3819C52.0429 33.2642 51.6109 33.1966 51.1755 33.1806C50.4801 33.174 49.791 33.3142 49.1534 33.592C48.529 33.8542 47.9612 34.2347 47.4813 34.7125C46.9968 35.1887 46.6128 35.7573 46.3521 36.3845C46.0812 37.0289 45.9417 37.7209 45.9417 38.4199C45.9417 39.1188 46.0812 39.8108 46.3521 40.4552ZM47.2275 36.7522C47.4316 36.2464 47.7285 35.7833 48.1029 35.3866C48.4902 34.9938 48.9513 34.6814 49.4598 34.4674C49.9912 34.2471 50.5608 34.1337 51.1362 34.1337C51.7115 34.1337 52.2811 34.2471 52.8126 34.4674C53.8334 34.9041 54.6415 35.7248 55.0623 36.7522C55.2833 37.2819 55.3964 37.8503 55.395 38.4242C55.3955 38.9896 55.2824 39.5492 55.0623 40.07C54.6321 41.0954 53.8277 41.9185 52.8126 42.3723C52.2837 42.6068 51.7102 42.7233 51.1318 42.7137C50.5561 42.7243 49.9852 42.6077 49.4598 42.3723C48.9504 42.1522 48.4893 41.8339 48.1029 41.4356C47.7285 41.0389 47.4316 40.5758 47.2275 40.07C47.0075 39.5492 46.8943 38.9896 46.8948 38.4242C46.8848 37.8495 46.9983 37.2793 47.2275 36.7522ZM60.8838 33.6183C60.8476 33.5275 60.7831 33.4507 60.6999 33.3994C60.6282 33.3414 60.5383 33.3104 60.4461 33.3119C60.3797 33.3139 60.3143 33.3288 60.2535 33.3556C60.193 33.3811 60.1383 33.4187 60.0929 33.466C60.0474 33.5134 60.0122 33.5695 59.9892 33.631C59.9663 33.6925 59.9561 33.758 59.9594 33.8236C59.9627 33.8891 59.9794 33.9533 60.0084 34.0122L64.1928 43.1252L64.1053 43.3703C63.9284 43.7933 63.7267 44.2054 63.5012 44.6046C63.317 44.9254 63.0903 45.2199 62.8272 45.48C62.5776 45.7215 62.2791 45.9066 61.9518 46.0227C61.5943 46.159 61.2137 46.2244 60.8312 46.2153H60.5249C60.3998 46.2128 60.2783 46.2564 60.1835 46.3379C60.1069 46.4168 60.0585 46.5188 60.0458 46.628C60.0331 46.7372 60.0569 46.8476 60.1134 46.9419C60.1511 47.0064 60.2098 47.0559 60.2797 47.082C60.3559 47.1096 60.4354 47.1273 60.5161 47.1345C60.5976 47.1435 60.6798 47.1435 60.7612 47.1345C61.2459 47.1442 61.7286 47.0702 62.1881 46.9157C62.5884 46.7623 62.9587 46.5401 63.2824 46.2591C63.6225 45.9228 63.9169 45.5431 64.1578 45.1298C64.4678 44.6164 64.7399 44.081 64.9719 43.5278L65.112 43.2039L69.3227 34.0385C69.3757 33.9177 69.3788 33.7808 69.3312 33.6578C69.2837 33.5348 69.1893 33.4356 69.0688 33.3819C69.0135 33.357 68.9542 33.3422 68.8937 33.3381C68.7981 33.3379 68.7047 33.3672 68.6263 33.422C68.548 33.4769 68.4885 33.5546 68.456 33.6445L64.6305 42.0046L60.8838 33.6183ZM73.1394 43.0026C73.1351 43.0683 73.1446 43.1341 73.1672 43.1959C73.1898 43.2577 73.2251 43.3141 73.2707 43.3615C73.3175 43.4081 73.3738 43.444 73.4358 43.4667C73.4977 43.4893 73.5639 43.4983 73.6297 43.4928C73.6891 43.4903 73.7473 43.4749 73.8001 43.4477C73.853 43.4205 73.8994 43.3821 73.9361 43.3353C74.0205 43.2347 74.067 43.1077 74.0674 42.9763V36.5596C74.0972 36.2389 74.1801 35.9253 74.3125 35.6317C74.6028 35.0487 75.0895 34.5868 75.6869 34.3273C75.9858 34.1896 76.3119 34.1208 76.641 34.126C76.972 34.1213 77.3003 34.1869 77.604 34.3186C77.9007 34.4372 78.1713 34.6126 78.4006 34.8351C78.6285 35.0553 78.8127 35.3167 78.9434 35.6054C79.0845 35.9101 79.1591 36.2414 79.1622 36.5771V43.0201C79.1632 43.0849 79.1777 43.1487 79.2049 43.2075C79.232 43.2663 79.2712 43.3188 79.3198 43.3615C79.3615 43.4049 79.412 43.439 79.4678 43.4617C79.5236 43.4843 79.5835 43.4949 79.6437 43.4928C79.7054 43.4974 79.7674 43.4879 79.825 43.4652C79.8826 43.4425 79.9344 43.407 79.9763 43.3615C80.0207 43.3168 80.0552 43.2634 80.0778 43.2046C80.1004 43.1458 80.1106 43.083 80.1077 43.0201V36.6822C80.1269 36.3523 80.207 36.0288 80.344 35.728C80.4788 35.4173 80.6753 35.1374 80.9218 34.9051C81.1587 34.6642 81.4376 34.4684 81.7447 34.3273C82.0523 34.1858 82.3865 34.1112 82.7251 34.1085C83.0502 34.1062 83.3722 34.1718 83.6706 34.3011C83.9652 34.4145 84.2334 34.5873 84.4584 34.8088C84.6821 35.0308 84.8631 35.2919 84.9924 35.5792C85.1261 35.8795 85.1947 36.2047 85.1938 36.5334V43.0026C85.1893 43.0636 85.1979 43.1248 85.2191 43.1822C85.2402 43.2396 85.2734 43.2917 85.3163 43.3353C85.3622 43.381 85.4169 43.4169 85.4771 43.441C85.5373 43.4651 85.6017 43.4767 85.6665 43.4753C85.7272 43.4757 85.7874 43.4635 85.8432 43.4394C85.8989 43.4153 85.9491 43.3798 85.9904 43.3353C86.0367 43.2916 86.0732 43.2386 86.0973 43.1797C86.1215 43.1208 86.1328 43.0575 86.1304 42.9939V36.5509C86.1183 36.1002 86.0356 35.6541 85.8853 35.229C85.7279 34.8341 85.5028 34.4697 85.22 34.1523C84.9387 33.8426 84.5958 33.5951 84.2133 33.4257C83.8026 33.245 83.3576 33.1554 82.9089 33.1631C82.5798 33.1605 82.2522 33.2077 81.9372 33.3031C81.6307 33.3949 81.3366 33.5243 81.0618 33.6883C80.7848 33.8512 80.5314 34.0515 80.309 34.2836C80.0863 34.5163 79.8923 34.775 79.7312 35.0539C79.5951 34.7808 79.4308 34.5226 79.241 34.2836C79.0376 34.0623 78.8117 33.8628 78.5669 33.6883C78.3139 33.5145 78.0366 33.3788 77.7441 33.2856C77.3217 33.1552 76.8766 33.115 76.4378 33.1678C75.9989 33.2206 75.576 33.3651 75.1966 33.592C74.719 33.8712 74.3188 34.2654 74.0323 34.7388V33.7758C73.9948 33.6514 73.9387 33.5334 73.866 33.4257C73.8317 33.3797 73.7866 33.3429 73.7347 33.3185C73.6828 33.2941 73.6257 33.2828 73.5684 33.2856C73.5092 33.2765 73.4487 33.2849 73.3942 33.3098C73.3398 33.3347 73.2938 33.375 73.262 33.4257C73.2033 33.5327 73.176 33.654 73.1832 33.7758V43.0026H73.1394ZM100.198 38.8619C100.26 38.8665 100.322 38.8571 100.38 38.8343C100.437 38.8116 100.489 38.7761 100.531 38.7306C100.61 38.6377 100.653 38.5198 100.653 38.398C100.654 37.7003 100.514 37.0096 100.242 36.367C99.9721 35.752 99.5924 35.1913 99.1214 34.7125C98.641 34.2394 98.0771 33.8595 97.4582 33.592C96.8177 33.3132 96.1256 33.173 95.4272 33.1806C94.7316 33.1721 94.0421 33.3124 93.405 33.592C92.7827 33.8533 92.2177 34.2339 91.7418 34.7125C91.2747 35.1794 90.8978 35.7284 90.63 36.332C90.3564 36.974 90.2164 37.6651 90.2186 38.363C90.2183 39.0635 90.3582 39.757 90.63 40.4027C91.1582 41.663 92.1568 42.6679 93.4138 43.2039C94.0527 43.4776 94.7409 43.6176 95.436 43.6154C96.1988 43.6287 96.9541 43.4639 97.642 43.1339C98.2544 42.8389 98.8042 42.4287 99.2615 41.9259C99.3166 41.8843 99.3605 41.8298 99.3895 41.7672C99.4185 41.7046 99.4317 41.6358 99.4278 41.5669C99.4204 41.4518 99.3776 41.3417 99.3053 41.2518C99.2491 41.1786 99.1773 41.1188 99.0952 41.0767C99.0783 41.0699 99.0595 41.0699 99.0426 41.0767H98.9901C98.8578 41.0802 98.7309 41.1298 98.6312 41.2168C98.4562 41.4458 98.2499 41.6491 98.0184 41.8208C97.7744 41.9958 97.5168 42.1509 97.2481 42.2848C96.967 42.411 96.6737 42.5078 96.3727 42.5737C96.0852 42.6375 95.7917 42.6698 95.4973 42.67C94.4297 42.6829 93.396 42.2957 92.5997 41.5844C92.241 41.2281 91.945 40.8138 91.7243 40.3589C91.4939 39.8872 91.3543 39.3765 91.3128 38.8532H100.198V38.8619ZM91.234 38.0828C91.2684 37.552 91.4021 37.0324 91.628 36.5509C91.8442 36.0855 92.1405 35.6618 92.5034 35.299C92.8809 34.9366 93.3275 34.6538 93.8165 34.4674C94.3239 34.2568 94.8691 34.1526 95.4185 34.161C95.9647 34.1552 96.5066 34.2594 97.0117 34.4674C97.4943 34.6626 97.9388 34.9411 98.3248 35.2903C98.7375 35.6231 99.0772 36.0373 99.3228 36.5071C99.5601 36.9854 99.7 37.5062 99.7342 38.0391H91.2691L91.234 38.0828ZM104.934 43.0289C104.931 43.0952 104.942 43.1614 104.966 43.2232C104.99 43.2851 105.027 43.3411 105.074 43.3878C105.12 43.4354 105.176 43.4719 105.239 43.4947C105.301 43.5174 105.367 43.5258 105.433 43.5191C105.494 43.5236 105.554 43.5141 105.61 43.4913C105.667 43.4685 105.717 43.4331 105.757 43.3878C105.847 43.2902 105.898 43.1619 105.897 43.0289V38.7919C105.893 38.193 106.003 37.5988 106.221 37.0411C106.42 36.5119 106.717 36.0249 107.096 35.6054C107.477 35.1911 107.939 34.8602 108.453 34.6337C108.978 34.3945 109.549 34.272 110.125 34.2748H110.23C110.297 34.278 110.363 34.2672 110.425 34.243C110.487 34.2189 110.543 34.182 110.589 34.1348C110.637 34.0923 110.674 34.0394 110.699 33.9803C110.723 33.9211 110.733 33.8572 110.729 33.7934C110.731 33.7306 110.721 33.6681 110.698 33.6094C110.675 33.5508 110.641 33.4973 110.598 33.4519C110.549 33.4053 110.491 33.3689 110.428 33.3449C110.365 33.3208 110.298 33.3096 110.23 33.3119H110.125C109.656 33.3085 109.189 33.3794 108.742 33.522C108.315 33.647 107.91 33.8391 107.543 34.091C107.187 34.3389 106.866 34.6333 106.589 34.9664C106.302 35.3126 106.058 35.6917 105.862 36.0957L105.775 33.7583C105.74 33.6344 105.687 33.5164 105.617 33.4082C105.581 33.3621 105.534 33.3254 105.481 33.301C105.427 33.2766 105.369 33.2653 105.311 33.2681C105.253 33.2607 105.194 33.27 105.141 33.2948C105.089 33.3196 105.044 33.3589 105.013 33.4082C104.951 33.5142 104.921 33.6357 104.925 33.7583V43.0026L104.934 43.0289Z"/>
<path d="M114.8 36.7523C115.004 36.2465 115.301 35.7833 115.675 35.3866C116.061 34.9918 116.522 34.6791 117.032 34.4675C117.561 34.2449 118.13 34.1317 118.704 34.1348C119.281 34.1318 119.853 34.2449 120.385 34.4675C120.891 34.6772 121.347 34.9903 121.724 35.3866C122.106 35.7776 122.404 36.2423 122.6 36.7523C122.818 37.2825 122.928 37.8509 122.924 38.4243C122.927 38.989 122.817 39.5487 122.6 40.07C122.396 40.5758 122.099 41.039 121.724 41.4357C121.343 41.8317 120.888 42.1498 120.385 42.3724C119.856 42.6061 119.282 42.7225 118.704 42.7138C118.128 42.7252 117.557 42.6086 117.032 42.3724C116.521 42.1545 116.06 41.8359 115.675 41.4357C115.301 41.039 115.004 40.5758 114.8 40.07C114.583 39.5487 114.472 38.989 114.476 38.4243C114.472 37.8509 114.582 37.2825 114.8 36.7523ZM113.924 40.4552C114.201 41.0801 114.593 41.6474 115.08 42.1272C115.559 42.6061 116.127 42.9867 116.752 43.2478C117.396 43.5186 118.088 43.6581 118.787 43.6581C119.486 43.6581 120.178 43.5186 120.823 43.2478C121.446 42.9888 122.012 42.6078 122.486 42.1272C122.954 41.6409 123.33 41.0746 123.598 40.4552C124.134 39.1514 124.134 37.6884 123.598 36.3846C123.332 35.764 122.956 35.1973 122.486 34.7126C122.007 34.2375 121.443 33.8573 120.823 33.5921C120.178 33.3212 119.486 33.1817 118.787 33.1817C118.088 33.1817 117.396 33.3212 116.752 33.5921C116.128 33.8543 115.56 34.2348 115.08 34.7126C114.598 35.1893 114.217 35.7578 113.959 36.3846C113.689 37.029 113.549 37.7209 113.549 38.4199C113.549 39.1189 113.689 39.8108 113.959 40.4552H113.924Z"/>
</mask>
<path d="M31.8466 46.7318C31.8428 46.7972 31.8529 46.8626 31.8761 46.9239C31.8994 46.9851 31.9354 47.0406 31.9817 47.0869C32.028 47.1333 32.0836 47.1692 32.1448 47.1925C32.206 47.2158 32.2715 47.2259 32.3368 47.2221C32.3992 47.2249 32.4614 47.2138 32.519 47.1896C32.5765 47.1653 32.6279 47.1286 32.6695 47.082C32.7547 46.9853 32.8015 46.8607 32.8008 46.7318V41.3744C33.0481 41.72 33.3394 42.032 33.6675 42.3023C33.9731 42.585 34.3145 42.8263 34.6829 43.0201C35.0611 43.2122 35.4569 43.3675 35.8647 43.4841C36.2851 43.5925 36.7174 43.6484 37.1516 43.6504C38.1806 43.6506 39.1866 43.3454 40.0421 42.7734C40.8977 42.2015 41.5643 41.3886 41.9575 40.4377C42.2353 39.8 42.3755 39.111 42.369 38.4155C42.3686 37.6964 42.2133 36.9858 41.9138 36.332C41.3942 35.074 40.4005 34.071 39.1475 33.5395C38.503 33.264 37.8087 33.1239 37.1078 33.128C36.6647 33.125 36.2231 33.181 35.7947 33.2944C35.375 33.3998 34.9715 33.5618 34.5954 33.7758C34.2257 33.9789 33.8818 34.2258 33.5712 34.5112C33.2729 34.8151 33.0114 35.153 32.7921 35.5179L32.722 33.7671C32.6922 33.6425 32.6354 33.5259 32.5557 33.4257C32.5259 33.3793 32.4842 33.3418 32.4349 33.3172C32.3856 33.2925 32.3305 33.2816 32.2756 33.2856C32.2167 33.2805 32.1576 33.2907 32.1039 33.3152C32.0502 33.3398 32.0038 33.3778 31.9692 33.4257C31.9105 33.5327 31.8831 33.654 31.8904 33.7758V46.7318H31.8466ZM33.1597 36.7522C33.3639 36.2464 33.6608 35.7833 34.0351 35.3866C34.431 34.9865 34.9029 34.6696 35.4231 34.4546C35.9432 34.2396 36.5012 34.1309 37.064 34.1348C37.6437 34.1327 38.218 34.2457 38.7536 34.4674C39.2579 34.6794 39.7137 34.9922 40.0929 35.3866C40.4717 35.7798 40.7692 36.2438 40.9683 36.7522C41.1865 37.2824 41.2966 37.8509 41.2922 38.4242C41.2957 38.989 41.1856 39.5487 40.9683 40.07C40.7608 40.574 40.4643 41.0366 40.0929 41.4356C39.7092 41.8292 39.2549 42.147 38.7536 42.3723C38.2214 42.6059 37.6452 42.7224 37.064 42.7137C36.4972 42.7205 35.9356 42.604 35.4183 42.3723C34.3962 41.9256 33.5868 41.1005 33.1597 40.07C32.9277 39.5517 32.8026 38.992 32.7921 38.4242C32.7907 37.8503 32.9038 37.2819 33.1247 36.7522H33.1597ZM46.3521 40.4552C46.6216 41.0777 47.0045 41.6447 47.4813 42.1272C48.4625 43.105 49.7903 43.6556 51.1755 43.6592C52.037 43.6624 52.8845 43.4423 53.6354 43.0201C54.0103 42.8132 54.3598 42.5635 54.6772 42.276C54.988 42.0011 55.2643 41.6895 55.5 41.3481V43.0201C55.497 43.0851 55.5079 43.15 55.5321 43.2104C55.5563 43.2708 55.5931 43.3253 55.6401 43.3703C55.6834 43.4171 55.7364 43.4539 55.7953 43.478C55.8543 43.5022 55.9178 43.5133 55.9815 43.5103C56.0478 43.5135 56.1141 43.5027 56.1759 43.4785C56.2377 43.4544 56.2938 43.4175 56.3404 43.3703C56.4256 43.2729 56.475 43.1494 56.4805 43.0201V33.7934C56.4827 33.6682 56.4526 33.5445 56.393 33.4344C56.3587 33.3889 56.3134 33.3529 56.2613 33.3299C56.2092 33.3069 56.152 33.2977 56.0953 33.3031C56.0399 33.2984 55.9843 33.308 55.9337 33.331C55.8831 33.354 55.8393 33.3896 55.8064 33.4344C55.7338 33.539 55.6777 33.6542 55.6401 33.7758L55.5526 35.4566C55.3049 35.1238 55.01 34.8289 54.6772 34.5812C54.3665 34.2984 54.0225 34.0544 53.6529 33.8546C53.2778 33.6471 52.8777 33.4882 52.4624 33.3819C52.0429 33.2642 51.6109 33.1966 51.1755 33.1806C50.4801 33.174 49.791 33.3142 49.1534 33.592C48.529 33.8542 47.9612 34.2347 47.4813 34.7125C46.9968 35.1887 46.6128 35.7573 46.3521 36.3845C46.0812 37.0289 45.9417 37.7209 45.9417 38.4199C45.9417 39.1188 46.0812 39.8108 46.3521 40.4552ZM47.2275 36.7522C47.4316 36.2464 47.7285 35.7833 48.1029 35.3866C48.4902 34.9938 48.9513 34.6814 49.4598 34.4674C49.9912 34.2471 50.5608 34.1337 51.1362 34.1337C51.7115 34.1337 52.2811 34.2471 52.8126 34.4674C53.8334 34.9041 54.6415 35.7248 55.0623 36.7522C55.2833 37.2819 55.3964 37.8503 55.395 38.4242C55.3955 38.9896 55.2824 39.5492 55.0623 40.07C54.6321 41.0954 53.8277 41.9185 52.8126 42.3723C52.2837 42.6068 51.7102 42.7233 51.1318 42.7137C50.5561 42.7243 49.9852 42.6077 49.4598 42.3723C48.9504 42.1522 48.4893 41.8339 48.1029 41.4356C47.7285 41.0389 47.4316 40.5758 47.2275 40.07C47.0075 39.5492 46.8943 38.9896 46.8948 38.4242C46.8848 37.8495 46.9983 37.2793 47.2275 36.7522ZM60.8838 33.6183C60.8476 33.5275 60.7831 33.4507 60.6999 33.3994C60.6282 33.3414 60.5383 33.3104 60.4461 33.3119C60.3797 33.3139 60.3143 33.3288 60.2535 33.3556C60.193 33.3811 60.1383 33.4187 60.0929 33.466C60.0474 33.5134 60.0122 33.5695 59.9892 33.631C59.9663 33.6925 59.9561 33.758 59.9594 33.8236C59.9627 33.8891 59.9794 33.9533 60.0084 34.0122L64.1928 43.1252L64.1053 43.3703C63.9284 43.7933 63.7267 44.2054 63.5012 44.6046C63.317 44.9254 63.0903 45.2199 62.8272 45.48C62.5776 45.7215 62.2791 45.9066 61.9518 46.0227C61.5943 46.159 61.2137 46.2244 60.8312 46.2153H60.5249C60.3998 46.2128 60.2783 46.2564 60.1835 46.3379C60.1069 46.4168 60.0585 46.5188 60.0458 46.628C60.0331 46.7372 60.0569 46.8476 60.1134 46.9419C60.1511 47.0064 60.2098 47.0559 60.2797 47.082C60.3559 47.1096 60.4354 47.1273 60.5161 47.1345C60.5976 47.1435 60.6798 47.1435 60.7612 47.1345C61.2459 47.1442 61.7286 47.0702 62.1881 46.9157C62.5884 46.7623 62.9587 46.5401 63.2824 46.2591C63.6225 45.9228 63.9169 45.5431 64.1578 45.1298C64.4678 44.6164 64.7399 44.081 64.9719 43.5278L65.112 43.2039L69.3227 34.0385C69.3757 33.9177 69.3788 33.7808 69.3312 33.6578C69.2837 33.5348 69.1893 33.4356 69.0688 33.3819C69.0135 33.357 68.9542 33.3422 68.8937 33.3381C68.7981 33.3379 68.7047 33.3672 68.6263 33.422C68.548 33.4769 68.4885 33.5546 68.456 33.6445L64.6305 42.0046L60.8838 33.6183ZM73.1394 43.0026C73.1351 43.0683 73.1446 43.1341 73.1672 43.1959C73.1898 43.2577 73.2251 43.3141 73.2707 43.3615C73.3175 43.4081 73.3738 43.444 73.4358 43.4667C73.4977 43.4893 73.5639 43.4983 73.6297 43.4928C73.6891 43.4903 73.7473 43.4749 73.8001 43.4477C73.853 43.4205 73.8994 43.3821 73.9361 43.3353C74.0205 43.2347 74.067 43.1077 74.0674 42.9763V36.5596C74.0972 36.2389 74.1801 35.9253 74.3125 35.6317C74.6028 35.0487 75.0895 34.5868 75.6869 34.3273C75.9858 34.1896 76.3119 34.1208 76.641 34.126C76.972 34.1213 77.3003 34.1869 77.604 34.3186C77.9007 34.4372 78.1713 34.6126 78.4006 34.8351C78.6285 35.0553 78.8127 35.3167 78.9434 35.6054C79.0845 35.9101 79.1591 36.2414 79.1622 36.5771V43.0201C79.1632 43.0849 79.1777 43.1487 79.2049 43.2075C79.232 43.2663 79.2712 43.3188 79.3198 43.3615C79.3615 43.4049 79.412 43.439 79.4678 43.4617C79.5236 43.4843 79.5835 43.4949 79.6437 43.4928C79.7054 43.4974 79.7674 43.4879 79.825 43.4652C79.8826 43.4425 79.9344 43.407 79.9763 43.3615C80.0207 43.3168 80.0552 43.2634 80.0778 43.2046C80.1004 43.1458 80.1106 43.083 80.1077 43.0201V36.6822C80.1269 36.3523 80.207 36.0288 80.344 35.728C80.4788 35.4173 80.6753 35.1374 80.9218 34.9051C81.1587 34.6642 81.4376 34.4684 81.7447 34.3273C82.0523 34.1858 82.3865 34.1112 82.7251 34.1085C83.0502 34.1062 83.3722 34.1718 83.6706 34.3011C83.9652 34.4145 84.2334 34.5873 84.4584 34.8088C84.6821 35.0308 84.8631 35.2919 84.9924 35.5792C85.1261 35.8795 85.1947 36.2047 85.1938 36.5334V43.0026C85.1893 43.0636 85.1979 43.1248 85.2191 43.1822C85.2402 43.2396 85.2734 43.2917 85.3163 43.3353C85.3622 43.381 85.4169 43.4169 85.4771 43.441C85.5373 43.4651 85.6017 43.4767 85.6665 43.4753C85.7272 43.4757 85.7874 43.4635 85.8432 43.4394C85.8989 43.4153 85.9491 43.3798 85.9904 43.3353C86.0367 43.2916 86.0732 43.2386 86.0973 43.1797C86.1215 43.1208 86.1328 43.0575 86.1304 42.9939V36.5509C86.1183 36.1002 86.0356 35.6541 85.8853 35.229C85.7279 34.8341 85.5028 34.4697 85.22 34.1523C84.9387 33.8426 84.5958 33.5951 84.2133 33.4257C83.8026 33.245 83.3576 33.1554 82.9089 33.1631C82.5798 33.1605 82.2522 33.2077 81.9372 33.3031C81.6307 33.3949 81.3366 33.5243 81.0618 33.6883C80.7848 33.8512 80.5314 34.0515 80.309 34.2836C80.0863 34.5163 79.8923 34.775 79.7312 35.0539C79.5951 34.7808 79.4308 34.5226 79.241 34.2836C79.0376 34.0623 78.8117 33.8628 78.5669 33.6883C78.3139 33.5145 78.0366 33.3788 77.7441 33.2856C77.3217 33.1552 76.8766 33.115 76.4378 33.1678C75.9989 33.2206 75.576 33.3651 75.1966 33.592C74.719 33.8712 74.3188 34.2654 74.0323 34.7388V33.7758C73.9948 33.6514 73.9387 33.5334 73.866 33.4257C73.8317 33.3797 73.7866 33.3429 73.7347 33.3185C73.6828 33.2941 73.6257 33.2828 73.5684 33.2856C73.5092 33.2765 73.4487 33.2849 73.3942 33.3098C73.3398 33.3347 73.2938 33.375 73.262 33.4257C73.2033 33.5327 73.176 33.654 73.1832 33.7758V43.0026H73.1394ZM100.198 38.8619C100.26 38.8665 100.322 38.8571 100.38 38.8343C100.437 38.8116 100.489 38.7761 100.531 38.7306C100.61 38.6377 100.653 38.5198 100.653 38.398C100.654 37.7003 100.514 37.0096 100.242 36.367C99.9721 35.752 99.5924 35.1913 99.1214 34.7125C98.641 34.2394 98.0771 33.8595 97.4582 33.592C96.8177 33.3132 96.1256 33.173 95.4272 33.1806C94.7316 33.1721 94.0421 33.3124 93.405 33.592C92.7827 33.8533 92.2177 34.2339 91.7418 34.7125C91.2747 35.1794 90.8978 35.7284 90.63 36.332C90.3564 36.974 90.2164 37.6651 90.2186 38.363C90.2183 39.0635 90.3582 39.757 90.63 40.4027C91.1582 41.663 92.1568 42.6679 93.4138 43.2039C94.0527 43.4776 94.7409 43.6176 95.436 43.6154C96.1988 43.6287 96.9541 43.4639 97.642 43.1339C98.2544 42.8389 98.8042 42.4287 99.2615 41.9259C99.3166 41.8843 99.3605 41.8298 99.3895 41.7672C99.4185 41.7046 99.4317 41.6358 99.4278 41.5669C99.4204 41.4518 99.3776 41.3417 99.3053 41.2518C99.2491 41.1786 99.1773 41.1188 99.0952 41.0767C99.0783 41.0699 99.0595 41.0699 99.0426 41.0767H98.9901C98.8578 41.0802 98.7309 41.1298 98.6312 41.2168C98.4562 41.4458 98.2499 41.6491 98.0184 41.8208C97.7744 41.9958 97.5168 42.1509 97.2481 42.2848C96.967 42.411 96.6737 42.5078 96.3727 42.5737C96.0852 42.6375 95.7917 42.6698 95.4973 42.67C94.4297 42.6829 93.396 42.2957 92.5997 41.5844C92.241 41.2281 91.945 40.8138 91.7243 40.3589C91.4939 39.8872 91.3543 39.3765 91.3128 38.8532H100.198V38.8619ZM91.234 38.0828C91.2684 37.552 91.4021 37.0324 91.628 36.5509C91.8442 36.0855 92.1405 35.6618 92.5034 35.299C92.8809 34.9366 93.3275 34.6538 93.8165 34.4674C94.3239 34.2568 94.8691 34.1526 95.4185 34.161C95.9647 34.1552 96.5066 34.2594 97.0117 34.4674C97.4943 34.6626 97.9388 34.9411 98.3248 35.2903C98.7375 35.6231 99.0772 36.0373 99.3228 36.5071C99.5601 36.9854 99.7 37.5062 99.7342 38.0391H91.2691L91.234 38.0828ZM104.934 43.0289C104.931 43.0952 104.942 43.1614 104.966 43.2232C104.99 43.2851 105.027 43.3411 105.074 43.3878C105.12 43.4354 105.176 43.4719 105.239 43.4947C105.301 43.5174 105.367 43.5258 105.433 43.5191C105.494 43.5236 105.554 43.5141 105.61 43.4913C105.667 43.4685 105.717 43.4331 105.757 43.3878C105.847 43.2902 105.898 43.1619 105.897 43.0289V38.7919C105.893 38.193 106.003 37.5988 106.221 37.0411C106.42 36.5119 106.717 36.0249 107.096 35.6054C107.477 35.1911 107.939 34.8602 108.453 34.6337C108.978 34.3945 109.549 34.272 110.125 34.2748H110.23C110.297 34.278 110.363 34.2672 110.425 34.243C110.487 34.2189 110.543 34.182 110.589 34.1348C110.637 34.0923 110.674 34.0394 110.699 33.9803C110.723 33.9211 110.733 33.8572 110.729 33.7934C110.731 33.7306 110.721 33.6681 110.698 33.6094C110.675 33.5508 110.641 33.4973 110.598 33.4519C110.549 33.4053 110.491 33.3689 110.428 33.3449C110.365 33.3208 110.298 33.3096 110.23 33.3119H110.125C109.656 33.3085 109.189 33.3794 108.742 33.522C108.315 33.647 107.91 33.8391 107.543 34.091C107.187 34.3389 106.866 34.6333 106.589 34.9664C106.302 35.3126 106.058 35.6917 105.862 36.0957L105.775 33.7583C105.74 33.6344 105.687 33.5164 105.617 33.4082C105.581 33.3621 105.534 33.3254 105.481 33.301C105.427 33.2766 105.369 33.2653 105.311 33.2681C105.253 33.2607 105.194 33.27 105.141 33.2948C105.089 33.3196 105.044 33.3589 105.013 33.4082C104.951 33.5142 104.921 33.6357 104.925 33.7583V43.0026L104.934 43.0289Z" fill="white"/>
<path d="M114.8 36.7523C115.004 36.2465 115.301 35.7833 115.675 35.3866C116.061 34.9918 116.522 34.6791 117.032 34.4675C117.561 34.2449 118.13 34.1317 118.704 34.1348C119.281 34.1318 119.853 34.2449 120.385 34.4675C120.891 34.6772 121.347 34.9903 121.724 35.3866C122.106 35.7776 122.404 36.2423 122.6 36.7523C122.818 37.2825 122.928 37.8509 122.924 38.4243C122.927 38.989 122.817 39.5487 122.6 40.07C122.396 40.5758 122.099 41.039 121.724 41.4357C121.343 41.8317 120.888 42.1498 120.385 42.3724C119.856 42.6061 119.282 42.7225 118.704 42.7138C118.128 42.7252 117.557 42.6086 117.032 42.3724C116.521 42.1545 116.06 41.8359 115.675 41.4357C115.301 41.039 115.004 40.5758 114.8 40.07C114.583 39.5487 114.472 38.989 114.476 38.4243C114.472 37.8509 114.582 37.2825 114.8 36.7523ZM113.924 40.4552C114.201 41.0801 114.593 41.6474 115.08 42.1272C115.559 42.6061 116.127 42.9867 116.752 43.2478C117.396 43.5186 118.088 43.6581 118.787 43.6581C119.486 43.6581 120.178 43.5186 120.823 43.2478C121.446 42.9888 122.012 42.6078 122.486 42.1272C122.954 41.6409 123.33 41.0746 123.598 40.4552C124.134 39.1514 124.134 37.6884 123.598 36.3846C123.332 35.764 122.956 35.1973 122.486 34.7126C122.007 34.2375 121.443 33.8573 120.823 33.5921C120.178 33.3212 119.486 33.1817 118.787 33.1817C118.088 33.1817 117.396 33.3212 116.752 33.5921C116.128 33.8543 115.56 34.2348 115.08 34.7126C114.598 35.1893 114.217 35.7578 113.959 36.3846C113.689 37.029 113.549 37.7209 113.549 38.4199C113.549 39.1189 113.689 39.8108 113.959 40.4552H113.924Z" fill="white"/>
<path d="M31.8466 46.7318C31.8428 46.7972 31.8529 46.8626 31.8761 46.9239C31.8994 46.9851 31.9354 47.0406 31.9817 47.0869C32.028 47.1333 32.0836 47.1692 32.1448 47.1925C32.206 47.2158 32.2715 47.2259 32.3368 47.2221C32.3992 47.2249 32.4614 47.2138 32.519 47.1896C32.5765 47.1653 32.6279 47.1286 32.6695 47.082C32.7547 46.9853 32.8015 46.8607 32.8008 46.7318V41.3744C33.0481 41.72 33.3394 42.032 33.6675 42.3023C33.9731 42.585 34.3145 42.8263 34.6829 43.0201C35.0611 43.2122 35.4569 43.3675 35.8647 43.4841C36.2851 43.5925 36.7174 43.6484 37.1516 43.6504C38.1806 43.6506 39.1866 43.3454 40.0421 42.7734C40.8977 42.2015 41.5643 41.3886 41.9575 40.4377C42.2353 39.8 42.3755 39.111 42.369 38.4155C42.3686 37.6964 42.2133 36.9858 41.9138 36.332C41.3942 35.074 40.4005 34.071 39.1475 33.5395C38.503 33.264 37.8087 33.1239 37.1078 33.128C36.6647 33.125 36.2231 33.181 35.7947 33.2944C35.375 33.3998 34.9715 33.5618 34.5954 33.7758C34.2257 33.9789 33.8818 34.2258 33.5712 34.5112C33.2729 34.8151 33.0114 35.153 32.7921 35.5179L32.722 33.7671C32.6922 33.6425 32.6354 33.5259 32.5557 33.4257C32.5259 33.3793 32.4842 33.3418 32.4349 33.3172C32.3856 33.2925 32.3305 33.2816 32.2756 33.2856C32.2167 33.2805 32.1576 33.2907 32.1039 33.3152C32.0502 33.3398 32.0038 33.3778 31.9692 33.4257C31.9105 33.5327 31.8831 33.654 31.8904 33.7758V46.7318H31.8466ZM33.1597 36.7522C33.3639 36.2464 33.6608 35.7833 34.0351 35.3866C34.431 34.9865 34.9029 34.6696 35.4231 34.4546C35.9432 34.2396 36.5012 34.1309 37.064 34.1348C37.6437 34.1327 38.218 34.2457 38.7536 34.4674C39.2579 34.6794 39.7137 34.9922 40.0929 35.3866C40.4717 35.7798 40.7692 36.2438 40.9683 36.7522C41.1865 37.2824 41.2966 37.8509 41.2922 38.4242C41.2957 38.989 41.1856 39.5487 40.9683 40.07C40.7608 40.574 40.4643 41.0366 40.0929 41.4356C39.7092 41.8292 39.2549 42.147 38.7536 42.3723C38.2214 42.6059 37.6452 42.7224 37.064 42.7137C36.4972 42.7205 35.9356 42.604 35.4183 42.3723C34.3962 41.9256 33.5868 41.1005 33.1597 40.07C32.9277 39.5517 32.8026 38.992 32.7921 38.4242C32.7907 37.8503 32.9038 37.2819 33.1247 36.7522H33.1597ZM46.3521 40.4552C46.6216 41.0777 47.0045 41.6447 47.4813 42.1272C48.4625 43.105 49.7903 43.6556 51.1755 43.6592C52.037 43.6624 52.8845 43.4423 53.6354 43.0201C54.0103 42.8132 54.3598 42.5635 54.6772 42.276C54.988 42.0011 55.2643 41.6895 55.5 41.3481V43.0201C55.497 43.0851 55.5079 43.15 55.5321 43.2104C55.5563 43.2708 55.5931 43.3253 55.6401 43.3703C55.6834 43.4171 55.7364 43.4539 55.7953 43.478C55.8543 43.5022 55.9178 43.5133 55.9815 43.5103C56.0478 43.5135 56.1141 43.5027 56.1759 43.4785C56.2377 43.4544 56.2938 43.4175 56.3404 43.3703C56.4256 43.2729 56.475 43.1494 56.4805 43.0201V33.7934C56.4827 33.6682 56.4526 33.5445 56.393 33.4344C56.3587 33.3889 56.3134 33.3529 56.2613 33.3299C56.2092 33.3069 56.152 33.2977 56.0953 33.3031C56.0399 33.2984 55.9843 33.308 55.9337 33.331C55.8831 33.354 55.8393 33.3896 55.8064 33.4344C55.7338 33.539 55.6777 33.6542 55.6401 33.7758L55.5526 35.4566C55.3049 35.1238 55.01 34.8289 54.6772 34.5812C54.3665 34.2984 54.0225 34.0544 53.6529 33.8546C53.2778 33.6471 52.8777 33.4882 52.4624 33.3819C52.0429 33.2642 51.6109 33.1966 51.1755 33.1806C50.4801 33.174 49.791 33.3142 49.1534 33.592C48.529 33.8542 47.9612 34.2347 47.4813 34.7125C46.9968 35.1887 46.6128 35.7573 46.3521 36.3845C46.0812 37.0289 45.9417 37.7209 45.9417 38.4199C45.9417 39.1188 46.0812 39.8108 46.3521 40.4552ZM47.2275 36.7522C47.4316 36.2464 47.7285 35.7833 48.1029 35.3866C48.4902 34.9938 48.9513 34.6814 49.4598 34.4674C49.9912 34.2471 50.5608 34.1337 51.1362 34.1337C51.7115 34.1337 52.2811 34.2471 52.8126 34.4674C53.8334 34.9041 54.6415 35.7248 55.0623 36.7522C55.2833 37.2819 55.3964 37.8503 55.395 38.4242C55.3955 38.9896 55.2824 39.5492 55.0623 40.07C54.6321 41.0954 53.8277 41.9185 52.8126 42.3723C52.2837 42.6068 51.7102 42.7233 51.1318 42.7137C50.5561 42.7243 49.9852 42.6077 49.4598 42.3723C48.9504 42.1522 48.4893 41.8339 48.1029 41.4356C47.7285 41.0389 47.4316 40.5758 47.2275 40.07C47.0075 39.5492 46.8943 38.9896 46.8948 38.4242C46.8848 37.8495 46.9983 37.2793 47.2275 36.7522ZM60.8838 33.6183C60.8476 33.5275 60.7831 33.4507 60.6999 33.3994C60.6282 33.3414 60.5383 33.3104 60.4461 33.3119C60.3797 33.3139 60.3143 33.3288 60.2535 33.3556C60.193 33.3811 60.1383 33.4187 60.0929 33.466C60.0474 33.5134 60.0122 33.5695 59.9892 33.631C59.9663 33.6925 59.9561 33.758 59.9594 33.8236C59.9627 33.8891 59.9794 33.9533 60.0084 34.0122L64.1928 43.1252L64.1053 43.3703C63.9284 43.7933 63.7267 44.2054 63.5012 44.6046C63.317 44.9254 63.0903 45.2199 62.8272 45.48C62.5776 45.7215 62.2791 45.9066 61.9518 46.0227C61.5943 46.159 61.2137 46.2244 60.8312 46.2153H60.5249C60.3998 46.2128 60.2783 46.2564 60.1835 46.3379C60.1069 46.4168 60.0585 46.5188 60.0458 46.628C60.0331 46.7372 60.0569 46.8476 60.1134 46.9419C60.1511 47.0064 60.2098 47.0559 60.2797 47.082C60.3559 47.1096 60.4354 47.1273 60.5161 47.1345C60.5976 47.1435 60.6798 47.1435 60.7612 47.1345C61.2459 47.1442 61.7286 47.0702 62.1881 46.9157C62.5884 46.7623 62.9587 46.5401 63.2824 46.2591C63.6225 45.9228 63.9169 45.5431 64.1578 45.1298C64.4678 44.6164 64.7399 44.081 64.9719 43.5278L65.112 43.2039L69.3227 34.0385C69.3757 33.9177 69.3788 33.7808 69.3312 33.6578C69.2837 33.5348 69.1893 33.4356 69.0688 33.3819C69.0135 33.357 68.9542 33.3422 68.8937 33.3381C68.7981 33.3379 68.7047 33.3672 68.6263 33.422C68.548 33.4769 68.4885 33.5546 68.456 33.6445L64.6305 42.0046L60.8838 33.6183ZM73.1394 43.0026C73.1351 43.0683 73.1446 43.1341 73.1672 43.1959C73.1898 43.2577 73.2251 43.3141 73.2707 43.3615C73.3175 43.4081 73.3738 43.444 73.4358 43.4667C73.4977 43.4893 73.5639 43.4983 73.6297 43.4928C73.6891 43.4903 73.7473 43.4749 73.8001 43.4477C73.853 43.4205 73.8994 43.3821 73.9361 43.3353C74.0205 43.2347 74.067 43.1077 74.0674 42.9763V36.5596C74.0972 36.2389 74.1801 35.9253 74.3125 35.6317C74.6028 35.0487 75.0895 34.5868 75.6869 34.3273C75.9858 34.1896 76.3119 34.1208 76.641 34.126C76.972 34.1213 77.3003 34.1869 77.604 34.3186C77.9007 34.4372 78.1713 34.6126 78.4006 34.8351C78.6285 35.0553 78.8127 35.3167 78.9434 35.6054C79.0845 35.9101 79.1591 36.2414 79.1622 36.5771V43.0201C79.1632 43.0849 79.1777 43.1487 79.2049 43.2075C79.232 43.2663 79.2712 43.3188 79.3198 43.3615C79.3615 43.4049 79.412 43.439 79.4678 43.4617C79.5236 43.4843 79.5835 43.4949 79.6437 43.4928C79.7054 43.4974 79.7674 43.4879 79.825 43.4652C79.8826 43.4425 79.9344 43.407 79.9763 43.3615C80.0207 43.3168 80.0552 43.2634 80.0778 43.2046C80.1004 43.1458 80.1106 43.083 80.1077 43.0201V36.6822C80.1269 36.3523 80.207 36.0288 80.344 35.728C80.4788 35.4173 80.6753 35.1374 80.9218 34.9051C81.1587 34.6642 81.4376 34.4684 81.7447 34.3273C82.0523 34.1858 82.3865 34.1112 82.7251 34.1085C83.0502 34.1062 83.3722 34.1718 83.6706 34.3011C83.9652 34.4145 84.2334 34.5873 84.4584 34.8088C84.6821 35.0308 84.8631 35.2919 84.9924 35.5792C85.1261 35.8795 85.1947 36.2047 85.1938 36.5334V43.0026C85.1893 43.0636 85.1979 43.1248 85.2191 43.1822C85.2402 43.2396 85.2734 43.2917 85.3163 43.3353C85.3622 43.381 85.4169 43.4169 85.4771 43.441C85.5373 43.4651 85.6017 43.4767 85.6665 43.4753C85.7272 43.4757 85.7874 43.4635 85.8432 43.4394C85.8989 43.4153 85.9491 43.3798 85.9904 43.3353C86.0367 43.2916 86.0732 43.2386 86.0973 43.1797C86.1215 43.1208 86.1328 43.0575 86.1304 42.9939V36.5509C86.1183 36.1002 86.0356 35.6541 85.8853 35.229C85.7279 34.8341 85.5028 34.4697 85.22 34.1523C84.9387 33.8426 84.5958 33.5951 84.2133 33.4257C83.8026 33.245 83.3576 33.1554 82.9089 33.1631C82.5798 33.1605 82.2522 33.2077 81.9372 33.3031C81.6307 33.3949 81.3366 33.5243 81.0618 33.6883C80.7848 33.8512 80.5314 34.0515 80.309 34.2836C80.0863 34.5163 79.8923 34.775 79.7312 35.0539C79.5951 34.7808 79.4308 34.5226 79.241 34.2836C79.0376 34.0623 78.8117 33.8628 78.5669 33.6883C78.3139 33.5145 78.0366 33.3788 77.7441 33.2856C77.3217 33.1552 76.8766 33.115 76.4378 33.1678C75.9989 33.2206 75.576 33.3651 75.1966 33.592C74.719 33.8712 74.3188 34.2654 74.0323 34.7388V33.7758C73.9948 33.6514 73.9387 33.5334 73.866 33.4257C73.8317 33.3797 73.7866 33.3429 73.7347 33.3185C73.6828 33.2941 73.6257 33.2828 73.5684 33.2856C73.5092 33.2765 73.4487 33.2849 73.3942 33.3098C73.3398 33.3347 73.2938 33.375 73.262 33.4257C73.2033 33.5327 73.176 33.654 73.1832 33.7758V43.0026H73.1394ZM100.198 38.8619C100.26 38.8665 100.322 38.8571 100.38 38.8343C100.437 38.8116 100.489 38.7761 100.531 38.7306C100.61 38.6377 100.653 38.5198 100.653 38.398C100.654 37.7003 100.514 37.0096 100.242 36.367C99.9721 35.752 99.5924 35.1913 99.1214 34.7125C98.641 34.2394 98.0771 33.8595 97.4582 33.592C96.8177 33.3132 96.1256 33.173 95.4272 33.1806C94.7316 33.1721 94.0421 33.3124 93.405 33.592C92.7827 33.8533 92.2177 34.2339 91.7418 34.7125C91.2747 35.1794 90.8978 35.7284 90.63 36.332C90.3564 36.974 90.2164 37.6651 90.2186 38.363C90.2183 39.0635 90.3582 39.757 90.63 40.4027C91.1582 41.663 92.1568 42.6679 93.4138 43.2039C94.0527 43.4776 94.7409 43.6176 95.436 43.6154C96.1988 43.6287 96.9541 43.4639 97.642 43.1339C98.2544 42.8389 98.8042 42.4287 99.2615 41.9259C99.3166 41.8843 99.3605 41.8298 99.3895 41.7672C99.4185 41.7046 99.4317 41.6358 99.4278 41.5669C99.4204 41.4518 99.3776 41.3417 99.3053 41.2518C99.2491 41.1786 99.1773 41.1188 99.0952 41.0767C99.0783 41.0699 99.0595 41.0699 99.0426 41.0767H98.9901C98.8578 41.0802 98.7309 41.1298 98.6312 41.2168C98.4562 41.4458 98.2499 41.6491 98.0184 41.8208C97.7744 41.9958 97.5168 42.1509 97.2481 42.2848C96.967 42.411 96.6737 42.5078 96.3727 42.5737C96.0852 42.6375 95.7917 42.6698 95.4973 42.67C94.4297 42.6829 93.396 42.2957 92.5997 41.5844C92.241 41.2281 91.945 40.8138 91.7243 40.3589C91.4939 39.8872 91.3543 39.3765 91.3128 38.8532H100.198V38.8619ZM91.234 38.0828C91.2684 37.552 91.4021 37.0324 91.628 36.5509C91.8442 36.0855 92.1405 35.6618 92.5034 35.299C92.8809 34.9366 93.3275 34.6538 93.8165 34.4674C94.3239 34.2568 94.8691 34.1526 95.4185 34.161C95.9647 34.1552 96.5066 34.2594 97.0117 34.4674C97.4943 34.6626 97.9388 34.9411 98.3248 35.2903C98.7375 35.6231 99.0772 36.0373 99.3228 36.5071C99.5601 36.9854 99.7 37.5062 99.7342 38.0391H91.2691L91.234 38.0828ZM104.934 43.0289C104.931 43.0952 104.942 43.1614 104.966 43.2232C104.99 43.2851 105.027 43.3411 105.074 43.3878C105.12 43.4354 105.176 43.4719 105.239 43.4947C105.301 43.5174 105.367 43.5258 105.433 43.5191C105.494 43.5236 105.554 43.5141 105.61 43.4913C105.667 43.4685 105.717 43.4331 105.757 43.3878C105.847 43.2902 105.898 43.1619 105.897 43.0289V38.7919C105.893 38.193 106.003 37.5988 106.221 37.0411C106.42 36.5119 106.717 36.0249 107.096 35.6054C107.477 35.1911 107.939 34.8602 108.453 34.6337C108.978 34.3945 109.549 34.272 110.125 34.2748H110.23C110.297 34.278 110.363 34.2672 110.425 34.243C110.487 34.2189 110.543 34.182 110.589 34.1348C110.637 34.0923 110.674 34.0394 110.699 33.9803C110.723 33.9211 110.733 33.8572 110.729 33.7934C110.731 33.7306 110.721 33.6681 110.698 33.6094C110.675 33.5508 110.641 33.4973 110.598 33.4519C110.549 33.4053 110.491 33.3689 110.428 33.3449C110.365 33.3208 110.298 33.3096 110.23 33.3119H110.125C109.656 33.3085 109.189 33.3794 108.742 33.522C108.315 33.647 107.91 33.8391 107.543 34.091C107.187 34.3389 106.866 34.6333 106.589 34.9664C106.302 35.3126 106.058 35.6917 105.862 36.0957L105.775 33.7583C105.74 33.6344 105.687 33.5164 105.617 33.4082C105.581 33.3621 105.534 33.3254 105.481 33.301C105.427 33.2766 105.369 33.2653 105.311 33.2681C105.253 33.2607 105.194 33.27 105.141 33.2948C105.089 33.3196 105.044 33.3589 105.013 33.4082C104.951 33.5142 104.921 33.6357 104.925 33.7583V43.0026L104.934 43.0289Z" stroke="white" stroke-width="0.875404" mask="url(#path-1-outside-1_499_731)"/>
<path d="M114.8 36.7523C115.004 36.2465 115.301 35.7833 115.675 35.3866C116.061 34.9918 116.522 34.6791 117.032 34.4675C117.561 34.2449 118.13 34.1317 118.704 34.1348C119.281 34.1318 119.853 34.2449 120.385 34.4675C120.891 34.6772 121.347 34.9903 121.724 35.3866C122.106 35.7776 122.404 36.2423 122.6 36.7523C122.818 37.2825 122.928 37.8509 122.924 38.4243C122.927 38.989 122.817 39.5487 122.6 40.07C122.396 40.5758 122.099 41.039 121.724 41.4357C121.343 41.8317 120.888 42.1498 120.385 42.3724C119.856 42.6061 119.282 42.7225 118.704 42.7138C118.128 42.7252 117.557 42.6086 117.032 42.3724C116.521 42.1545 116.06 41.8359 115.675 41.4357C115.301 41.039 115.004 40.5758 114.8 40.07C114.583 39.5487 114.472 38.989 114.476 38.4243C114.472 37.8509 114.582 37.2825 114.8 36.7523ZM113.924 40.4552C114.201 41.0801 114.593 41.6474 115.08 42.1272C115.559 42.6061 116.127 42.9867 116.752 43.2478C117.396 43.5186 118.088 43.6581 118.787 43.6581C119.486 43.6581 120.178 43.5186 120.823 43.2478C121.446 42.9888 122.012 42.6078 122.486 42.1272C122.954 41.6409 123.33 41.0746 123.598 40.4552C124.134 39.1514 124.134 37.6884 123.598 36.3846C123.332 35.764 122.956 35.1973 122.486 34.7126C122.007 34.2375 121.443 33.8573 120.823 33.5921C120.178 33.3212 119.486 33.1817 118.787 33.1817C118.088 33.1817 117.396 33.3212 116.752 33.5921C116.128 33.8543 115.56 34.2348 115.08 34.7126C114.598 35.1893 114.217 35.7578 113.959 36.3846C113.689 37.029 113.549 37.7209 113.549 38.4199C113.549 39.1189 113.689 39.8108 113.959 40.4552H113.924Z" stroke="white" stroke-width="0.875404" mask="url(#path-1-outside-1_499_731)"/>
</g>
<g id="logo">
<path id="Oval" d="M14.0059 47.0117C19.532 47.0117 24.0117 42.532 24.0117 37.0059C24.0117 31.4798 19.532 27 14.0059 27C8.47978 27 4 31.4798 4 37.0059C4 42.532 8.47978 47.0117 14.0059 47.0117Z" fill="#19D5F9" fill-opacity="0.7"/>
<path id="Rectangle" opacity="0.7" d="M14.1372 27H4V52.4918H14.1372V27Z" fill="#19F943"/>
</g>
</g>
</svg>
