<svg width="128" height="80" viewBox="0 0 128 80" fill="none" xmlns="http://www.w3.org/2000/svg">
<g id="logo / payment method / local payment methods / brand">
<g id="wordmark">
<path d="M69.924 33.0001V24.6241H71.748V31.3801H74.94V33.0001H69.924Z" fill="black"/>
<path d="M78.63 33.1441C78.166 33.1441 77.75 33.0681 77.382 32.9161C77.022 32.7641 76.714 32.5441 76.458 32.2561C76.21 31.9681 76.018 31.6201 75.882 31.2121C75.746 30.8041 75.678 30.3481 75.678 29.8441C75.678 29.3401 75.746 28.8841 75.882 28.4761C76.018 28.0681 76.21 27.7241 76.458 27.4441C76.714 27.1561 77.022 26.9361 77.382 26.7841C77.75 26.6321 78.166 26.5561 78.63 26.5561C79.094 26.5561 79.506 26.6321 79.866 26.7841C80.234 26.9361 80.542 27.1561 80.79 27.4441C81.046 27.7241 81.242 28.0681 81.378 28.4761C81.514 28.8841 81.582 29.3401 81.582 29.8441C81.582 30.3481 81.514 30.8041 81.378 31.2121C81.242 31.6201 81.046 31.9681 80.79 32.2561C80.542 32.5441 80.234 32.7641 79.866 32.9161C79.506 33.0681 79.094 33.1441 78.63 33.1441ZM78.63 31.7401C78.982 31.7401 79.254 31.6321 79.446 31.4161C79.638 31.2001 79.734 30.8921 79.734 30.4921V29.2081C79.734 28.8081 79.638 28.5001 79.446 28.2841C79.254 28.0681 78.982 27.9601 78.63 27.9601C78.278 27.9601 78.006 28.0681 77.814 28.2841C77.622 28.5001 77.526 28.8081 77.526 29.2081V30.4921C77.526 30.8921 77.622 31.2001 77.814 31.4161C78.006 31.6321 78.278 31.7401 78.63 31.7401Z" fill="black"/>
<path d="M85.3915 33.1441C84.9195 33.1441 84.4995 33.0681 84.1315 32.9161C83.7635 32.7561 83.4555 32.5361 83.2075 32.2561C82.9595 31.9681 82.7715 31.6201 82.6435 31.2121C82.5155 30.8041 82.4515 30.3481 82.4515 29.8441C82.4515 29.3401 82.5155 28.8881 82.6435 28.4881C82.7715 28.0801 82.9595 27.7321 83.2075 27.4441C83.4555 27.1561 83.7635 26.9361 84.1315 26.7841C84.4995 26.6321 84.9195 26.5561 85.3915 26.5561C86.0315 26.5561 86.5635 26.7001 86.9875 26.9881C87.4195 27.2761 87.7275 27.6801 87.9115 28.2001L86.4715 28.8241C86.4155 28.5841 86.2995 28.3801 86.1235 28.2121C85.9475 28.0441 85.7035 27.9601 85.3915 27.9601C85.0315 27.9601 84.7595 28.0801 84.5755 28.3201C84.3915 28.5521 84.2995 28.8681 84.2995 29.2681V30.4441C84.2995 30.8441 84.3915 31.1601 84.5755 31.3921C84.7595 31.6241 85.0315 31.7401 85.3915 31.7401C85.7115 31.7401 85.9635 31.6561 86.1475 31.4881C86.3395 31.3121 86.4795 31.0841 86.5675 30.8041L87.9475 31.4041C87.7395 32.0041 87.4155 32.4441 86.9755 32.7241C86.5435 33.0041 86.0155 33.1441 85.3915 33.1441Z" fill="black"/>
<path d="M93.7027 33.0001C93.3827 33.0001 93.1147 32.9001 92.8987 32.7001C92.6907 32.5001 92.5587 32.2321 92.5027 31.8961H92.4307C92.3347 32.3041 92.1227 32.6161 91.7947 32.8321C91.4667 33.0401 91.0627 33.1441 90.5827 33.1441C89.9507 33.1441 89.4667 32.9761 89.1307 32.6401C88.7947 32.3041 88.6267 31.8601 88.6267 31.3081C88.6267 30.6441 88.8667 30.1521 89.3467 29.8321C89.8347 29.5041 90.4947 29.3401 91.3267 29.3401H92.3227V28.9441C92.3227 28.6401 92.2427 28.4001 92.0827 28.2241C91.9227 28.0401 91.6547 27.9481 91.2787 27.9481C90.9267 27.9481 90.6467 28.0241 90.4387 28.1761C90.2307 28.3281 90.0587 28.5001 89.9227 28.6921L88.8667 27.7561C89.1227 27.3801 89.4427 27.0881 89.8267 26.8801C90.2187 26.6641 90.7467 26.5561 91.4107 26.5561C92.3067 26.5561 92.9787 26.7521 93.4267 27.1441C93.8747 27.5361 94.0987 28.1081 94.0987 28.8601V31.6201H94.6867V33.0001H93.7027ZM91.2427 31.9081C91.5387 31.9081 91.7907 31.8441 91.9987 31.7161C92.2147 31.5881 92.3227 31.3801 92.3227 31.0921V30.3481H91.4587C90.7627 30.3481 90.4147 30.5841 90.4147 31.0561V31.2361C90.4147 31.4681 90.4867 31.6401 90.6307 31.7521C90.7747 31.8561 90.9787 31.9081 91.2427 31.9081Z" fill="black"/>
<path d="M97.6427 33.0001C97.0347 33.0001 96.5867 32.8521 96.2987 32.5561C96.0187 32.2601 95.8787 31.8321 95.8787 31.2721V24.1201H97.6547V31.6201H98.4467V33.0001H97.6427Z" fill="black"/>
<path d="M69.924 45.0001V36.6241H73.884C74.276 36.6241 74.628 36.6921 74.94 36.8281C75.252 36.9561 75.516 37.1361 75.732 37.3681C75.956 37.6001 76.128 37.8841 76.248 38.2201C76.368 38.5481 76.428 38.9081 76.428 39.3001C76.428 39.7001 76.368 40.0641 76.248 40.3921C76.128 40.7201 75.956 41.0001 75.732 41.2321C75.516 41.4641 75.252 41.6481 74.94 41.7841C74.628 41.9121 74.276 41.9761 73.884 41.9761H71.748V45.0001H69.924ZM71.748 40.3921H73.668C73.9399 40.3921 74.1519 40.3241 74.304 40.1881C74.464 40.0441 74.544 39.8361 74.544 39.5641V39.0361C74.544 38.7641 74.464 38.5601 74.304 38.4241C74.1519 38.2801 73.9399 38.2081 73.668 38.2081H71.748V40.3921Z" fill="black"/>
<path d="M82.1832 45.0001C81.8632 45.0001 81.5952 44.9001 81.3792 44.7001C81.1712 44.5001 81.0392 44.2321 80.9832 43.8961H80.9112C80.8152 44.3041 80.6032 44.6161 80.2752 44.8321C79.9472 45.0401 79.5432 45.1441 79.0632 45.1441C78.4312 45.1441 77.9472 44.9761 77.6112 44.6401C77.2752 44.3041 77.1072 43.8601 77.1072 43.3081C77.1072 42.6441 77.3472 42.1521 77.8272 41.8321C78.3152 41.5041 78.9752 41.3401 79.8072 41.3401H80.8032V40.9441C80.8032 40.6401 80.7232 40.4001 80.5632 40.2241C80.4032 40.0401 80.1352 39.9481 79.7592 39.9481C79.4072 39.9481 79.1272 40.0241 78.9192 40.1761C78.7112 40.3281 78.5392 40.5001 78.4032 40.6921L77.3472 39.7561C77.6032 39.3801 77.9232 39.0881 78.3072 38.8801C78.6992 38.6641 79.2272 38.5561 79.8912 38.5561C80.7872 38.5561 81.4592 38.7521 81.9072 39.1441C82.3552 39.5361 82.5792 40.1081 82.5792 40.8601V43.6201H83.1672V45.0001H82.1832ZM79.7232 43.9081C80.0192 43.9081 80.2712 43.8441 80.4792 43.7161C80.6952 43.5881 80.8032 43.3801 80.8032 43.0921V42.3481H79.9392C79.2432 42.3481 78.8952 42.5841 78.8952 43.0561V43.2361C78.8952 43.4681 78.9672 43.6401 79.1112 43.7521C79.2552 43.8561 79.4592 43.9081 79.7232 43.9081Z" fill="black"/>
<path d="M88.1057 38.7001H89.7617L87.3377 45.9721C87.1777 46.4601 86.9497 46.8201 86.6537 47.0521C86.3657 47.2841 85.9497 47.4001 85.4057 47.4001H84.3017V46.0201H85.4897L85.7057 45.3241L83.4977 38.7001H85.2617L86.1857 41.6401L86.6417 43.4641H86.7137L87.1817 41.6401L88.1057 38.7001Z" fill="black"/>
<path d="M90.6639 45.0001V38.7001H92.4399V39.7681H92.5119C92.6239 39.4321 92.8159 39.1481 93.0879 38.9161C93.3599 38.6761 93.7319 38.5561 94.2039 38.5561C94.6359 38.5561 95.0039 38.6641 95.3079 38.8801C95.6119 39.0961 95.8319 39.4121 95.9679 39.8281H96.0039C96.0599 39.6521 96.1439 39.4881 96.2559 39.3361C96.3759 39.1761 96.5199 39.0401 96.6879 38.9281C96.8559 38.8161 97.0439 38.7281 97.2519 38.6641C97.4599 38.5921 97.6839 38.5561 97.9239 38.5561C98.5319 38.5561 98.9959 38.7721 99.3159 39.2041C99.6439 39.6361 99.8079 40.2521 99.8079 41.0521V45.0001H98.0319V41.1961C98.0319 40.3961 97.7439 39.9961 97.1679 39.9961C96.9039 39.9961 96.6639 40.0721 96.4479 40.2241C96.2319 40.3761 96.1239 40.6081 96.1239 40.9201V45.0001H94.3479V41.1961C94.3479 40.3961 94.0599 39.9961 93.4839 39.9961C93.3559 39.9961 93.2279 40.0161 93.0999 40.0561C92.9799 40.0881 92.8679 40.1441 92.7639 40.2241C92.6679 40.3041 92.5879 40.4041 92.5239 40.5241C92.4679 40.6361 92.4399 40.7681 92.4399 40.9201V45.0001H90.6639Z" fill="black"/>
<path d="M104.015 45.1441C103.535 45.1441 103.107 45.0681 102.731 44.9161C102.355 44.7561 102.035 44.5361 101.771 44.2561C101.515 43.9681 101.319 43.6201 101.183 43.2121C101.055 42.8041 100.991 42.3481 100.991 41.8441C100.991 41.3481 101.055 40.9001 101.183 40.5001C101.311 40.0921 101.499 39.7441 101.747 39.4561C102.003 39.1681 102.315 38.9481 102.683 38.7961C103.051 38.6361 103.471 38.5561 103.943 38.5561C104.463 38.5561 104.907 38.6441 105.275 38.8201C105.651 38.9961 105.955 39.2321 106.187 39.5281C106.427 39.8241 106.599 40.1681 106.703 40.5601C106.815 40.9441 106.871 41.3481 106.871 41.7721V42.3001H102.827V42.3961C102.827 42.8121 102.939 43.1441 103.163 43.3921C103.387 43.6321 103.739 43.7521 104.219 43.7521C104.587 43.7521 104.887 43.6801 105.119 43.5361C105.351 43.3841 105.567 43.2041 105.767 42.9961L106.655 44.1001C106.375 44.4281 106.007 44.6841 105.551 44.8681C105.103 45.0521 104.591 45.1441 104.015 45.1441ZM103.979 39.8641C103.619 39.8641 103.335 39.9841 103.127 40.2241C102.927 40.4561 102.827 40.7681 102.827 41.1601V41.2561H105.035V41.1481C105.035 40.7641 104.947 40.4561 104.771 40.2241C104.603 39.9841 104.339 39.8641 103.979 39.8641Z" fill="black"/>
<path d="M108.125 45.0001V38.7001H109.901V39.7681H109.973C110.085 39.4401 110.281 39.1561 110.561 38.9161C110.841 38.6761 111.229 38.5561 111.725 38.5561C112.373 38.5561 112.861 38.7721 113.189 39.2041C113.525 39.6361 113.693 40.2521 113.693 41.0521V45.0001H111.917V41.1961C111.917 40.7881 111.853 40.4881 111.725 40.2961C111.597 40.0961 111.369 39.9961 111.041 39.9961C110.897 39.9961 110.757 40.0161 110.621 40.0561C110.485 40.0881 110.361 40.1441 110.249 40.2241C110.145 40.3041 110.061 40.4041 109.997 40.5241C109.933 40.6361 109.901 40.7681 109.901 40.9201V45.0001H108.125Z" fill="black"/>
<path d="M117.481 45.0001C116.865 45.0001 116.397 44.8441 116.077 44.5321C115.765 44.2201 115.609 43.7641 115.609 43.1641V40.0801H114.721V38.7001H115.165C115.405 38.7001 115.569 38.6441 115.657 38.5321C115.745 38.4121 115.789 38.2441 115.789 38.0281V36.9961H117.385V38.7001H118.633V40.0801H117.385V43.6201H118.537V45.0001H117.481Z" fill="black"/>
<path d="M76.188 51.5041H76.152L75.54 52.7281L73.908 55.6921L72.312 52.7401L71.676 51.4201H71.64V57.0001H69.924V48.6241H71.856L73.908 52.5481H73.932L75.96 48.6241H77.904V57.0001H76.188V51.5041Z" fill="black"/>
<path d="M82.288 57.1441C81.808 57.1441 81.38 57.0681 81.004 56.9161C80.628 56.7561 80.308 56.5361 80.044 56.2561C79.788 55.9681 79.592 55.6201 79.456 55.2121C79.328 54.8041 79.264 54.3481 79.264 53.8441C79.264 53.3481 79.328 52.9001 79.456 52.5001C79.584 52.0921 79.772 51.7441 80.02 51.4561C80.276 51.1681 80.588 50.9481 80.956 50.7961C81.324 50.6361 81.744 50.5561 82.216 50.5561C82.736 50.5561 83.18 50.6441 83.548 50.8201C83.924 50.9961 84.228 51.2321 84.46 51.5281C84.7 51.8241 84.872 52.1681 84.976 52.5601C85.088 52.9441 85.144 53.3481 85.144 53.7721V54.3001H81.1V54.3961C81.1 54.8121 81.212 55.1441 81.436 55.3921C81.66 55.6321 82.012 55.7521 82.492 55.7521C82.86 55.7521 83.16 55.6801 83.392 55.5361C83.624 55.3841 83.84 55.2041 84.04 54.9961L84.928 56.1001C84.648 56.4281 84.28 56.6841 83.824 56.8681C83.376 57.0521 82.864 57.1441 82.288 57.1441ZM82.252 51.8641C81.892 51.8641 81.608 51.9841 81.4 52.2241C81.2 52.4561 81.1 52.7681 81.1 53.1601V53.2561H83.308V53.1481C83.308 52.7641 83.22 52.4561 83.044 52.2241C82.876 51.9841 82.612 51.8641 82.252 51.8641Z" fill="black"/>
<path d="M88.6063 57.0001C87.9903 57.0001 87.5223 56.8441 87.2023 56.5321C86.8903 56.2201 86.7343 55.7641 86.7343 55.1641V52.0801H85.8463V50.7001H86.2903C86.5303 50.7001 86.6943 50.6441 86.7823 50.5321C86.8703 50.4121 86.9143 50.2441 86.9143 50.0281V48.9961H88.5103V50.7001H89.7583V52.0801H88.5103V55.6201H89.6623V57.0001H88.6063Z" fill="black"/>
<path d="M90.992 48.1201H92.768V51.7681H92.84C92.952 51.4401 93.148 51.1561 93.428 50.9161C93.708 50.6761 94.096 50.5561 94.592 50.5561C95.24 50.5561 95.728 50.7721 96.056 51.2041C96.392 51.6361 96.56 52.2521 96.56 53.0521V57.0001H94.784V53.1961C94.784 52.7881 94.72 52.4881 94.592 52.2961C94.464 52.0961 94.236 51.9961 93.908 51.9961C93.764 51.9961 93.624 52.0161 93.488 52.0561C93.352 52.0881 93.228 52.1441 93.116 52.2241C93.012 52.3041 92.928 52.4041 92.864 52.5241C92.8 52.6361 92.768 52.7681 92.768 52.9201V57.0001H90.992V48.1201Z" fill="black"/>
<path d="M100.696 57.1441C100.232 57.1441 99.8165 57.0681 99.4485 56.9161C99.0884 56.7641 98.7805 56.5441 98.5245 56.2561C98.2765 55.9681 98.0844 55.6201 97.9485 55.2121C97.8125 54.8041 97.7444 54.3481 97.7444 53.8441C97.7444 53.3401 97.8125 52.8841 97.9485 52.4761C98.0844 52.0681 98.2765 51.7241 98.5245 51.4441C98.7805 51.1561 99.0884 50.9361 99.4485 50.7841C99.8165 50.6321 100.232 50.5561 100.696 50.5561C101.16 50.5561 101.572 50.6321 101.932 50.7841C102.3 50.9361 102.608 51.1561 102.856 51.4441C103.112 51.7241 103.308 52.0681 103.444 52.4761C103.58 52.8841 103.648 53.3401 103.648 53.8441C103.648 54.3481 103.58 54.8041 103.444 55.2121C103.308 55.6201 103.112 55.9681 102.856 56.2561C102.608 56.5441 102.3 56.7641 101.932 56.9161C101.572 57.0681 101.16 57.1441 100.696 57.1441ZM100.696 55.7401C101.048 55.7401 101.32 55.6321 101.512 55.4161C101.704 55.2001 101.8 54.8921 101.8 54.4921V53.2081C101.8 52.8081 101.704 52.5001 101.512 52.2841C101.32 52.0681 101.048 51.9601 100.696 51.9601C100.344 51.9601 100.072 52.0681 99.8805 52.2841C99.6885 52.5001 99.5925 52.8081 99.5925 53.2081V54.4921C99.5925 54.8921 99.6885 55.2001 99.8805 55.4161C100.072 55.6321 100.344 55.7401 100.696 55.7401Z" fill="black"/>
<path d="M108.778 55.9441H108.718C108.67 56.1121 108.594 56.2721 108.49 56.4241C108.386 56.5681 108.258 56.6961 108.106 56.8081C107.962 56.9121 107.794 56.9921 107.602 57.0481C107.418 57.1121 107.226 57.1441 107.026 57.1441C106.226 57.1441 105.622 56.8641 105.214 56.3041C104.806 55.7361 104.602 54.9161 104.602 53.8441C104.602 52.7721 104.806 51.9561 105.214 51.3961C105.622 50.8361 106.226 50.5561 107.026 50.5561C107.434 50.5561 107.794 50.6681 108.106 50.8921C108.426 51.1161 108.63 51.4041 108.718 51.7561H108.778V48.1201H110.554V57.0001H108.778V55.9441ZM107.614 55.7041C107.95 55.7041 108.226 55.6241 108.442 55.4641C108.666 55.2961 108.778 55.0681 108.778 54.7801V52.9201C108.778 52.6321 108.666 52.4081 108.442 52.2481C108.226 52.0801 107.95 51.9961 107.614 51.9961C107.278 51.9961 106.998 52.1161 106.774 52.3561C106.558 52.5881 106.45 52.9041 106.45 53.3041V54.3961C106.45 54.7961 106.558 55.1161 106.774 55.3561C106.998 55.5881 107.278 55.7041 107.614 55.7041Z" fill="black"/>
<path d="M114.351 57.1441C113.743 57.1441 113.231 57.0481 112.815 56.8561C112.399 56.6561 112.027 56.3761 111.699 56.0161L112.743 54.9601C112.967 55.2081 113.215 55.4041 113.487 55.5481C113.759 55.6921 114.067 55.7641 114.411 55.7641C114.763 55.7641 115.007 55.7121 115.143 55.6081C115.279 55.4961 115.347 55.3481 115.347 55.1641C115.347 54.8681 115.135 54.6921 114.711 54.6361L114.027 54.5521C112.611 54.3761 111.903 53.7281 111.903 52.6081C111.903 52.3041 111.959 52.0281 112.071 51.7801C112.191 51.5241 112.355 51.3081 112.563 51.1321C112.779 50.9481 113.035 50.8081 113.331 50.7121C113.635 50.6081 113.975 50.5561 114.351 50.5561C114.679 50.5561 114.967 50.5801 115.215 50.6281C115.471 50.6681 115.695 50.7321 115.887 50.8201C116.087 50.9001 116.267 51.0041 116.427 51.1321C116.595 51.2521 116.759 51.3881 116.919 51.5401L115.899 52.5841C115.699 52.3841 115.471 52.2281 115.215 52.1161C114.967 51.9961 114.711 51.9361 114.447 51.9361C114.143 51.9361 113.927 51.9841 113.799 52.0801C113.671 52.1761 113.607 52.3041 113.607 52.4641C113.607 52.6321 113.651 52.7641 113.739 52.8601C113.835 52.9481 114.011 53.0121 114.267 53.0521L114.975 53.1481C116.359 53.3321 117.051 53.9641 117.051 55.0441C117.051 55.3481 116.987 55.6281 116.859 55.8841C116.731 56.1401 116.547 56.3641 116.307 56.5561C116.075 56.7401 115.791 56.8841 115.455 56.9881C115.127 57.0921 114.759 57.1441 114.351 57.1441Z" fill="black"/>
</g>
<g id="logo" clip-path="url(#clip0_499_530)">
<path id="money - light" d="M56.2625 26.6123L43.75 18.406C42.6125 17.5935 40.9875 17.9185 40.175 19.1373L25.3875 41.3998C25.225 41.5623 25.3063 41.8873 25.55 41.9685L28.3125 43.2685L35.7063 37.9873C37.1688 36.931 39.1188 37.0935 40.5 38.231L40.9063 38.556C42.45 39.856 42.6125 42.2123 41.3938 43.756L32.4563 55.5373L35.7875 57.9748C37.0063 58.7873 38.55 58.4623 39.3625 57.2435L56.9938 30.1873C57.8063 28.9685 57.4813 27.4248 56.2625 26.6123ZM47.7313 30.431C47.1625 31.3248 45.7 31.4873 44.5625 30.756C43.425 30.0248 42.9375 28.6435 43.5875 27.7498C44.1563 26.856 45.6188 26.6935 46.7563 27.4248C47.8125 28.156 48.3 29.5373 47.7313 30.431Z" fill="#5DAF5D"/>
<path id="Subtract" d="M44.5625 30.7561C45.7 31.4874 47.1625 31.3249 47.7313 30.4311C48.3 29.5374 47.8125 28.1561 46.7563 27.4249C45.6188 26.6936 44.1563 26.8561 43.5875 27.7499C42.9375 28.6436 43.425 30.0249 44.5625 30.7561Z" fill="white"/>
<g id="money - dark">
<path d="M59.35 31.6499L58.1313 30.8374L42.0438 55.5374L59.675 33.9249C60.2438 33.2749 60.0813 32.2187 59.35 31.6499Z" fill="#347036"/>
<path d="M41.3938 43.8374C42.9375 43.7562 44.3188 43.0249 45.1313 41.8062C46.675 39.3687 45.4563 35.8749 42.45 33.9249C39.4438 31.9749 35.7063 32.2999 34.1625 34.7374C33.2688 36.0374 33.2688 37.7437 33.9188 39.2874L35.7063 37.9874C37.1688 36.9312 39.1188 37.0937 40.5 38.2312L40.9063 38.5562C42.45 39.9374 42.6938 42.2124 41.3938 43.8374Z" fill="#347036"/>
</g>
<path id="hand" d="M40.0938 39.2875C38.9562 38.2313 37.25 38.15 36.0312 39.125L28.9625 44.4875C28.6375 44.7312 28.15 44.8125 27.7437 44.5688L24.25 42.7813C23.7625 42.4563 23.6 41.8063 23.925 41.3188L30.1812 31.8125L23.7625 33.6812C22.3 34.0875 21.0812 34.9813 20.35 36.2L13.6875 46.7625C13.0375 47.7375 12.0625 48.4688 10.925 48.6313L8 49.2V63L24.6562 59.925C26.9312 59.3563 28.9625 58.1375 30.425 56.2688L40.4188 43.5938C41.3937 42.2125 41.3125 40.3438 40.0938 39.2875Z" fill="#FFB85A"/>
</g>
</g>
<defs>
<clipPath id="clip0_499_530">
<rect width="53" height="46" fill="white" transform="translate(8 17)"/>
</clipPath>
</defs>
</svg>
