<svg width="128" height="80" viewBox="0 0 128 80" fill="none" xmlns="http://www.w3.org/2000/svg">
<g id="logo / payment method / tron / brand">
<g id="logo">
<path d="M111.321 49.3512H113.344V41.4676L111.321 39.2191V49.3512Z" fill="black"/>
<path d="M121.973 30.7033V45.319L107.664 29.4165V49.3511H109.682V34.7309L124 50.6379V30.7033H121.973Z" fill="black"/>
<path d="M94.5656 30.6943C89.4227 30.6943 85.2417 34.8754 85.2417 40.0182C85.2417 45.161 89.4227 49.3421 94.5656 49.3421C99.7084 49.3421 103.889 45.161 103.889 40.0182C103.889 34.8799 99.7084 30.6943 94.5656 30.6943ZM94.5656 47.3328C90.5335 47.3328 87.2509 44.0548 87.2509 40.0182C87.2509 35.9816 90.529 32.7036 94.5656 32.7036C98.5976 32.7036 101.88 35.9816 101.88 40.0182C101.88 44.0503 98.5976 47.3328 94.5656 47.3328Z" fill="black"/>
<path d="M94.5654 38.6771C93.8249 38.6771 93.2244 39.2777 93.2244 40.0182C93.2244 40.7586 93.8249 41.3592 94.5654 41.3592C95.3059 41.3592 95.9064 40.7586 95.9064 40.0182C95.9064 39.2777 95.3059 38.6771 94.5654 38.6771Z" fill="black"/>
<path d="M81.7333 36.4241C81.7333 33.2725 79.1867 30.7078 76.0577 30.7078H65.3928V49.3556H67.384V32.7306H76.0577C78.067 32.7306 79.7015 34.3877 79.7015 36.4241C79.7015 38.4514 78.0895 40.0994 76.0983 40.122L69.023 40.1175V49.3556H71.0142V42.1403H75.6784L79.4892 49.3511H81.8055L77.8276 41.8558C80.1259 41.0928 81.7333 38.8713 81.7333 36.4241Z" fill="black"/>
<path d="M52.3164 36.2479H50.3116V49.3375H52.3164V36.2479Z" fill="black"/>
<path d="M61.2972 30.7033H44.9566V32.708H61.2972V30.7033Z" fill="black"/>
<path d="M55.9377 36.2479H53.933V49.3375H55.9377V36.2479Z" fill="black"/>
<path d="M31.1724 27.0098L3.99988 22.0115L18.2995 57.9885L38.2206 33.7149L31.1724 27.0098ZM30.7389 29.2132L34.8974 33.164L23.5281 35.2229L30.7389 29.2132ZM21.0583 34.812L9.07497 24.8741L28.6574 28.4772L21.0583 34.812ZM20.2004 36.573L18.2499 52.7238L7.71589 26.2106L20.2004 36.573ZM22.0065 37.4263L34.5949 35.1462L20.1598 52.7374L22.0065 37.4263Z" fill="black"/>
</g>
</g>
</svg>
