<svg width="128" height="80" viewBox="0 0 128 80" fill="none" xmlns="http://www.w3.org/2000/svg">
<g id="logo / payment method / airtm / white">
<g id="logo">
<path d="M37.8341 51.6701H42.3294V28.3826H37.8358L37.8341 51.6701Z" fill="white"/>
<path d="M65.5605 35.4022C65.5605 31.7944 63.5127 28.3819 57.1008 28.3819H45.0708V51.6705H49.5644V42.5202H55.6454L61.2658 51.6705H66.3542L60.3067 41.93C64.1409 40.9448 65.5605 38.1247 65.5605 35.4022ZM56.2423 39.2718H49.5667V31.7279H56.2736C59.6785 31.7279 60.8344 33.4009 60.8344 35.4333C60.8344 37.5012 59.6785 39.2718 56.2423 39.2718ZM66.9153 31.9919H75.4756V51.6728H79.9693V31.9919H88.5319V28.3819H66.9153V31.9919ZM35.7816 51.6705L31.2209 42.3338L35.6632 39.6845L33.385 36.0568L29.334 38.4731L24.8962 29.3826C24.6318 28.834 24.2164 28.371 23.6979 28.0469C23.1845 27.728 22.5878 27.5662 21.9824 27.5816C21.3769 27.597 20.7894 27.7889 20.293 28.1334C19.8094 28.4707 19.4275 28.9325 19.1886 29.4691L10.293 47.7055L10.2728 47.7543C9.98366 48.4216 9.9224 49.1645 10.0984 49.8696C10.2744 50.5747 10.678 51.2033 11.2476 51.6594C11.8011 52.1123 12.4864 52.377 13.2027 52.4145C13.919 52.4521 14.6286 52.2605 15.2271 51.868L27.5164 44.5437L30.9951 51.6705H35.7816ZM15.5825 46.6738L22.0659 33.3853L25.6273 40.683L15.5825 46.6738ZM90.5685 28.3819H97.2129L103.558 44.6192C103.889 45.6354 104.088 46.1945 104.219 46.98H104.287C104.416 46.1923 104.615 45.6043 104.98 44.6192L111.291 28.3819H118V51.6705H113.804V34.812C113.804 33.8602 113.871 32.8439 113.969 31.9897H113.835C113.619 32.9175 113.332 33.8276 112.976 34.7122L106.301 51.6705H102.071L95.3953 34.7144C95.0741 33.8241 94.809 32.9149 94.6017 31.9919H94.4675C94.5681 32.8129 94.6352 33.7648 94.6352 34.8142V51.6705H90.5685V28.3819Z" fill="white"/>
</g>
</g>
</svg>
