<svg width="287" height="72" viewBox="0 0 287 72" fill="none" xmlns="http://www.w3.org/2000/svg">
<g id="logo / partners product / deriv mt5 / brand-dark / logo wordmark horizontal">
<g id="logo">
<path d="M0 13.5C0 6.04416 6.04416 0 13.5 0H58.5C65.9558 0 72 6.04416 72 13.5V58.5C72 65.9558 65.9558 72 58.5 72H13.5C6.04416 72 0 65.9558 0 58.5V13.5Z" fill="#0364B9"/>
<path d="M13.5 0C6.04416 0 0 6.04416 0 13.5V13.8921L67.3075 3.26845C64.9433 1.2315 61.8655 0 58.5 0H13.5Z" fill="#0A559E"/>
<path d="M68.6969 4.65243L56.3498 71.9999L58.5 72C65.9558 72 72 65.9558 72 58.5V13.5C72 10.1155 70.7545 7.02183 68.6969 4.65243Z" fill="#0A559E"/>
<path d="M16.676 26.4033C17 26.9973 17.369 27.7353 17.783 28.6173C18.215 29.4813 18.656 30.4263 19.106 31.4523C19.574 32.4603 20.033 33.4953 20.483 34.5573C20.933 35.6193 21.356 36.6183 21.752 37.5543C22.148 36.6183 22.571 35.6193 23.021 34.5573C23.471 33.4953 23.921 32.4603 24.371 31.4523C24.839 30.4263 25.28 29.4813 25.694 28.6173C26.126 27.7353 26.504 26.9973 26.828 26.4033H30.662C30.842 27.6453 31.004 29.0403 31.148 30.5883C31.31 32.1183 31.445 33.7203 31.553 35.3943C31.679 37.0503 31.787 38.7153 31.877 40.3893C31.985 42.0633 32.075 43.6383 32.147 45.1143H28.043C27.989 43.2963 27.917 41.3163 27.827 39.1743C27.737 37.0323 27.602 34.8723 27.422 32.6943C27.098 33.4503 26.738 34.2873 26.342 35.2053C25.946 36.1233 25.55 37.0413 25.154 37.9593C24.776 38.8773 24.407 39.7593 24.047 40.6053C23.687 41.4333 23.381 42.1443 23.129 42.7383H20.186C19.934 42.1443 19.628 41.4333 19.268 40.6053C18.908 39.7593 18.53 38.8773 18.134 37.9593C17.756 37.0413 17.369 36.1233 16.973 35.2053C16.577 34.2873 16.217 33.4503 15.893 32.6943C15.713 34.8723 15.578 37.0323 15.488 39.1743C15.398 41.3163 15.326 43.2963 15.272 45.1143H11.168C11.24 43.6383 11.321 42.0633 11.411 40.3893C11.519 38.7153 11.627 37.0503 11.735 35.3943C11.861 33.7203 11.996 32.1183 12.14 30.5883C12.302 29.0403 12.473 27.6453 12.653 26.4033H16.676Z" fill="white"/>
<path d="M48.2037 26.4033V29.9943H42.5607V45.1143H38.3487V29.9943H32.7057V26.4033H48.2037Z" fill="white"/>
<path d="M57.1207 39.6063C57.1207 39.0843 57.0037 38.6253 56.7697 38.2293C56.5357 37.8153 56.1307 37.4733 55.5547 37.2033C54.9787 36.9333 54.2047 36.7263 53.2327 36.5823C52.2607 36.4383 51.0367 36.3663 49.5607 36.3663C49.7587 34.6923 49.9207 32.9913 50.0467 31.2633C50.1727 29.5353 50.2717 27.9153 50.3437 26.4033H60.4687V29.7783H53.7187C53.6827 30.4263 53.6377 31.0563 53.5837 31.6683C53.5477 32.2623 53.5027 32.7843 53.4487 33.2343C56.0767 33.4143 58.0117 34.0353 59.2537 35.0973C60.5137 36.1413 61.1437 37.5993 61.1437 39.4713C61.1437 40.3353 60.9907 41.1363 60.6847 41.8743C60.3787 42.6123 59.9197 43.2513 59.3077 43.7913C58.6957 44.3313 57.9217 44.7543 56.9857 45.0603C56.0677 45.3663 54.9877 45.5193 53.7457 45.5193C53.2597 45.5193 52.7467 45.4833 52.2067 45.4113C51.6847 45.3573 51.1717 45.2763 50.6677 45.1683C50.1817 45.0783 49.7407 44.9793 49.3447 44.8713C48.9487 44.7633 48.6427 44.6553 48.4267 44.5473L49.1557 41.2263C49.6057 41.4243 50.1997 41.6223 50.9377 41.8203C51.6757 42.0003 52.5577 42.0903 53.5837 42.0903C54.8257 42.0903 55.7257 41.8473 56.2837 41.3613C56.8417 40.8573 57.1207 40.2723 57.1207 39.6063Z" fill="white"/>
</g>
<g id="wordmark">
<path fill-rule="evenodd" clip-rule="evenodd" d="M108.739 19.1386L106.967 29.1895H100.815C95.0752 29.1895 89.6045 33.8396 88.5905 39.5792L88.1614 42.0221C87.1521 47.7617 90.9816 52.4119 96.7211 52.4119H101.852C106.035 52.4119 110.02 49.0256 110.756 44.8425L115.482 18.0547L108.739 19.1386ZM104.374 43.8945C104.147 45.1867 102.984 46.2385 101.692 46.2385H98.5745C95.9948 46.2385 94.2687 44.1444 94.7214 41.5599L94.9903 40.0366C95.4477 37.4569 97.9095 35.3582 100.489 35.3582H105.879L104.374 43.8945Z" fill="white"/>
<path d="M156.118 52.4135H162.503L166.54 29.5118H160.155L156.118 52.4135Z" fill="white"/>
<path d="M156.331 32.4975L156.331 32.4924C156.491 31.5868 156.651 30.6812 156.811 29.7756C150.259 28.0873 145.155 29.834 143.077 30.6946C143.077 30.6946 140.112 47.4985 139.245 52.4189H145.634C146.671 46.5383 147.708 40.6563 148.744 34.7757C149.703 34.5845 152.824 34.2851 155.849 35.2252C156.009 34.316 156.17 33.4067 156.331 32.4975Z" fill="white"/>
<path fill-rule="evenodd" clip-rule="evenodd" d="M130.914 29.1871H125.948C121.104 29.1871 116.487 33.111 115.634 37.9544L114.629 43.6468C113.776 48.4903 117.006 52.4142 121.85 52.4142H132.423L133.508 46.2596H123.571C121.958 46.2596 120.878 44.9532 121.166 43.3356L121.199 43.1422H137.219L138.134 37.9544C138.988 33.111 135.757 29.1871 130.914 29.1871ZM131.725 37.464L131.687 37.7941H122.161L122.213 37.5017C122.5 35.8888 123.972 34.4692 125.589 34.4692H129.31C130.909 34.4692 131.989 35.8652 131.725 37.464Z" fill="white"/>
<path d="M177.639 44.6175C180.538 39.4013 183.734 32.5577 185.066 29.5118H191.461C189.284 35.2993 184.296 45.1442 179.463 52.4135H173.073C170.855 45.4949 169.423 35.855 169.149 29.5118H175.54C175.655 31.5809 176.581 39.2558 177.639 44.6175Z" fill="white"/>
<path d="M208.473 20.4923C209.04 21.5318 209.686 22.8233 210.411 24.3668C211.167 25.8788 211.938 27.5325 212.726 29.328C213.545 31.0921 214.348 32.9033 215.136 34.7618C215.923 36.6203 216.663 38.3686 217.356 40.0066C218.049 38.3686 218.79 36.6203 219.577 34.7618C220.365 32.9033 221.152 31.0921 221.94 29.328C222.759 27.5325 223.53 25.8788 224.255 24.3668C225.011 22.8233 225.672 21.5318 226.239 20.4923H232.949C233.264 22.6658 233.547 25.107 233.799 27.816C234.083 30.4936 234.319 33.2971 234.508 36.2266C234.729 39.1246 234.918 42.0383 235.075 44.9678C235.264 47.8973 235.422 50.6536 235.548 53.2366H228.366C228.271 50.0551 228.145 46.5901 227.988 42.8416C227.83 39.0931 227.594 35.3131 227.279 31.5016C226.712 32.8246 226.082 34.2893 225.389 35.8958C224.696 37.5023 224.003 39.1088 223.31 40.7153C222.648 42.3218 222.003 43.8653 221.373 45.3458C220.743 46.7948 220.207 48.0391 219.766 49.0786H214.616C214.175 48.0391 213.639 46.7948 213.009 45.3458C212.379 43.8653 211.718 42.3218 211.025 40.7153C210.363 39.1088 209.686 37.5023 208.993 35.8958C208.3 34.2893 207.67 32.8246 207.103 31.5016C206.788 35.3131 206.552 39.0931 206.394 42.8416C206.237 46.5901 206.111 50.0551 206.016 53.2366H198.834C198.96 50.6536 199.102 47.8973 199.26 44.9678C199.449 42.0383 199.638 39.1246 199.827 36.2266C200.047 33.2971 200.283 30.4936 200.535 27.816C200.819 25.107 201.118 22.6658 201.433 20.4923H208.473Z" fill="white"/>
<path d="M263.647 20.4923V26.7765H253.772V53.2366H246.401V26.7765H236.525V20.4923H263.647Z" fill="white"/>
<path d="M279.252 43.5976C279.252 42.6841 279.047 41.8808 278.637 41.1878C278.228 40.4633 277.519 39.8648 276.511 39.3923C275.503 38.9198 274.149 38.5576 272.448 38.3056C270.747 38.0536 268.605 37.9276 266.022 37.9276C266.368 34.9981 266.652 32.0213 266.872 28.9973C267.093 25.9733 267.266 23.1383 267.392 20.4923H285.111V26.3985H273.298C273.235 27.5325 273.156 28.635 273.062 29.706C272.999 30.7456 272.92 31.6591 272.826 32.4466C277.425 32.7616 280.811 33.8483 282.984 35.7068C285.189 37.5338 286.292 40.0853 286.292 43.3613C286.292 44.8733 286.024 46.2751 285.489 47.5666C284.953 48.8581 284.15 49.9763 283.079 50.9213C282.008 51.8663 280.653 52.6066 279.015 53.1421C277.409 53.6776 275.519 53.9453 273.345 53.9453C272.495 53.9453 271.597 53.8823 270.652 53.7563C269.739 53.6618 268.841 53.5201 267.959 53.3311C267.108 53.1736 266.337 53.0003 265.644 52.8113C264.951 52.6223 264.415 52.4333 264.037 52.2443L265.313 46.4326C266.1 46.7791 267.14 47.1256 268.431 47.4721C269.723 47.7871 271.266 47.9446 273.062 47.9446C275.235 47.9446 276.81 47.5193 277.787 46.6688C278.763 45.7868 279.252 44.7631 279.252 43.5976Z" fill="white"/>
</g>
</g>
</svg>
