<svg width="128" height="80" viewBox="0 0 128 80" fill="none" xmlns="http://www.w3.org/2000/svg">
<g id="logo / payment method / internet bank transfer / brand">
<path id="wordmark" d="M65.5628 36.3738V30.9137H66.3317V36.3738H65.5628ZM67.74 36.3738V30.9137H68.5002L71.2476 35.1297V30.9137H71.9128V36.3738H71.1612L68.4052 32.1578V36.3738H67.74ZM74.6515 36.3738V31.4925H72.6817V30.9137H77.3384V31.4925H75.3945V36.3738H74.6515ZM78.1073 36.3738V30.9137H81.1657V31.4925H78.8762V33.2204H80.7855V33.7906H78.8762V35.769H81.3125V36.3479L78.1073 36.3738ZM82.211 36.3738V30.9137H83.8612C84.2897 30.8834 84.7147 31.0061 85.0621 31.2593C85.3411 31.5012 85.494 31.858 85.4767 32.2269C85.494 32.9336 85.0448 33.5669 84.3709 33.782L86.1938 36.3738H85.2435L83.6884 34.0584H82.9627V36.3738H82.211ZM82.9713 33.4796H83.2218C84.1981 33.4796 84.6906 33.0995 84.6906 32.3392C84.6906 31.769 84.2759 31.4753 83.4638 31.4753H82.9713V33.4796ZM86.98 36.3738V30.9137H87.7403L90.5222 35.1297V30.9137H91.1874V36.3738H90.4271L87.6712 32.1578V36.3738H86.98ZM92.5611 36.3738V30.9137H95.6108V31.4925H93.33V33.2204H95.2393V33.7906H93.33V35.769H95.7663V36.3479L92.5611 36.3738ZM97.9521 36.3738V31.4925H96.0169V30.9137H100.665V31.4925H98.7296V36.3738H97.9521ZM103.455 36.3738V30.9137H104.872C105.312 30.886 105.749 30.9949 106.125 31.2247C106.41 31.4191 106.575 31.7448 106.566 32.0887C106.554 32.7608 106.094 33.3414 105.442 33.5055C106.306 33.7733 106.782 34.2658 106.782 34.9829C106.804 35.3708 106.641 35.7466 106.341 35.9937C105.966 36.2503 105.516 36.3747 105.062 36.3479L103.455 36.3738ZM104.216 35.795H104.345C104.729 35.8243 105.115 35.7863 105.486 35.6827C105.795 35.5678 105.989 35.2593 105.961 34.931C105.961 34.6079 105.798 34.3064 105.529 34.1276C105.212 33.9029 104.829 33.7872 104.44 33.7993H104.224V35.795H104.216ZM104.216 33.3068H104.466C104.806 33.3284 105.143 33.2377 105.425 33.0476C105.661 32.8722 105.791 32.5897 105.771 32.296C105.771 31.7604 105.356 31.4925 104.527 31.4925H104.224V33.3068H104.216ZM110.566 34.2831L109.633 31.9331L108.665 34.2831H110.566ZM111.43 36.3738L110.833 34.8619H108.475L107.879 36.3738H107.153L109.322 30.9137H110.091L112.224 36.3738H111.43ZM113.054 36.3738V30.9137H113.814L116.561 35.1297V30.9137H117.227V36.3738H116.44L113.676 32.1578V36.3738H113.054ZM118.635 36.3738V30.9137H119.369V33.6006L121.581 30.9137H122.359L120.216 33.5055L122.739 36.3652H121.711L119.326 33.5919V36.3738H118.635ZM66.8847 48.1494V41.0823H63.9559V40.0024H71.5154V41.1255H68.578V48.1926L66.8847 48.1494ZM72.6731 48.1494V40.0024H75.7401C77.4075 40.0024 78.2369 40.6762 78.2369 42.0326C78.2421 42.526 78.0935 43.0089 77.8136 43.415C77.5207 43.8245 77.1155 44.1389 76.6472 44.3221L79.2909 48.1494H77.2174L75.1872 44.7973H74.28V48.1494H72.6731ZM74.28 43.6741H74.6774C75.9129 43.6741 76.5263 43.173 76.5263 42.1795C76.5263 41.4452 75.982 41.0823 74.8762 41.0823H74.28V43.6741ZM79.6019 48.1494L82.7899 40.0024H84.5178L87.7057 48.1926H85.9778L85.1139 46.0068H81.6927L80.8287 48.1926L79.6019 48.1494ZM82.116 44.875H84.656L83.386 41.6093L82.116 44.875ZM88.8461 48.1494V40.0024H90.3407L94.1421 45.5921V40.0024H95.5071V48.1926H93.978L90.2112 42.5942V48.1926L88.8461 48.1494ZM97.0968 48.0802V46.672C97.8095 46.9986 98.5776 47.1861 99.3603 47.2249C99.7292 47.2483 100.095 47.1446 100.397 46.9312C100.645 46.7437 100.787 46.4474 100.777 46.1364C100.785 45.891 100.702 45.6508 100.544 45.4625C100.287 45.2068 99.997 44.9891 99.68 44.8145L99.1357 44.5035C98.5482 44.2098 98.0203 43.8089 97.5806 43.3199C97.2782 42.9432 97.1158 42.4733 97.1227 41.9894C97.1054 41.3622 97.3793 40.7626 97.8657 40.3652C98.4307 39.9367 99.1271 39.7199 99.8355 39.7518C100.581 39.7631 101.323 39.859 102.047 40.0369V41.3501C101.407 41.0719 100.723 40.9087 100.026 40.8663C99.7189 40.8594 99.4173 40.9475 99.1616 41.1169C98.943 41.2672 98.816 41.5177 98.8247 41.7821C98.8178 42.0015 98.9024 42.2141 99.0579 42.3696C99.3154 42.6184 99.6065 42.8309 99.9219 43.0003L100.509 43.3286C101.121 43.6353 101.674 44.0474 102.142 44.5467C102.878 45.5351 102.707 46.9277 101.753 47.7088C101.066 48.1761 100.242 48.4042 99.4122 48.3567C98.6415 48.342 97.8743 48.2496 97.1227 48.0802H97.0968ZM104.008 48.1494V40.0024H109.192V41.1255H105.736V43.6137H108.57V44.7454H105.736V48.2012L104.008 48.1494ZM110.514 48.1494V40.0024H115.663V41.1255H112.25V43.4063H115.05V44.5035H112.25V47.0262H115.922V48.1926L110.514 48.1494ZM117.322 48.1494V40.0024H120.415C122.082 40.0024 122.911 40.6762 122.911 42.0326C122.907 42.5113 122.76 42.9778 122.488 43.3718C122.198 43.7925 121.793 44.1225 121.322 44.3221L124 48.1494H121.927L119.896 44.7973H118.955V48.1494H117.322ZM118.929 43.6741H119.326C120.562 43.6741 121.175 43.173 121.175 42.1795C121.175 41.4452 120.622 41.0823 119.525 41.0823H118.929V43.6741Z" fill="black"/>
<g id="logo">
<path id="Vector" d="M30.6273 51.2716C44.7653 51.2716 56.2264 50.3228 56.2264 49.1524C56.2264 47.982 44.7653 47.0332 30.6273 47.0332C16.4894 47.0332 5.02832 47.982 5.02832 49.1524C5.02832 50.3228 16.4894 51.2716 30.6273 51.2716Z" fill="#231F20" fill-opacity="0.1"/>
<path id="Vector_2" fill-rule="evenodd" clip-rule="evenodd" d="M56.3862 43.6637L56.4926 43.5573L57.1754 42.8568L57.2906 42.7415L57.202 42.5996L48.5389 29.2105L48.3438 28.909L48.0601 29.1573L46.464 30.4784C43.952 29.3435 41.2769 28.6102 38.5369 28.306C36.5037 28.0374 34.4502 27.9451 32.401 28.0312C30.2374 28.1092 28.0828 28.3495 25.9547 28.7494C25.0148 28.9356 24.0749 29.1573 23.1616 29.4321C20.0315 30.3047 17.0442 31.6285 14.2946 33.3602C11.7045 34.951 9.40177 36.9691 7.48473 39.3277C6.95714 39.9582 6.46502 40.6187 6.01281 41.305C5.64926 41.8016 5.30345 42.307 4.98424 42.8302C4.66502 43.3533 4.34581 43.7169 4.09754 44.1602L4 44.311L4.15961 44.4351L5.21478 45.2597L5.32118 45.3395H5.46305C7.02365 45.2154 8.58424 45.0647 10.136 44.9051C13.1064 44.6124 16.1744 44.311 19.2246 44.2046H19.4552L19.535 44.0716L19.9074 43.4597C20.0049 43.2913 20.1025 43.1228 20.2089 42.9543C20.4146 42.5863 20.6434 42.2308 20.8916 41.8903C21.1842 41.4735 21.468 41.1011 21.7251 40.7553C22.7714 39.3632 24.035 38.1475 25.467 37.1553C26.0345 37.1996 26.6108 37.2528 27.1872 37.3238C27.7635 37.3947 28.4818 37.4745 29.1379 37.5632C31.4912 37.9232 33.8215 38.4206 36.1163 39.0528L34.5645 40.2942L34.4138 40.4184L34.5113 40.5691L35.2207 41.642L35.3005 41.7573H35.4601L56.2177 43.6637H56.3862Z" fill="#2A3052" fill-opacity="0.2"/>
<path id="Vector_3" fill-rule="evenodd" clip-rule="evenodd" d="M6.19009 41.4372C6.64674 40.7589 7.13798 40.1045 7.66202 39.4776C11.7063 34.701 17.1196 31.281 23.1704 29.6796C24.0571 29.4224 25.0059 29.2008 25.9458 29.0145C29.0341 28.4346 32.1775 28.1988 35.3182 28.3141C36.3734 28.3584 37.4285 28.4559 38.466 28.5889C41.2555 28.8948 43.9768 29.6494 46.5261 30.8234L48.2995 29.3692L56.998 42.6697L34.8305 40.4352L37.8985 37.9081L37.6059 37.8283C34.9458 37.0605 32.2387 36.4681 29.5014 36.0549C28.6857 35.9308 27.8699 35.8421 27.0541 35.7712C26.2384 35.7003 25.4492 35.6825 24.6601 35.6825H22.266C17.2738 35.7889 12.1665 37.0392 8.46891 39.7347C7.67088 40.3049 6.93492 40.9557 6.2699 41.6766C5.8567 42.1102 5.47187 42.5686 5.11719 43.051C5.43906 42.4897 5.79729 41.9515 6.19009 41.4372Z" fill="#A8E900"/>
<path id="Vector_4" d="M56.3154 43.3181L35.5223 41.4737L34.8041 40.4274L56.9716 42.6264L56.3154 43.3181ZM5.1883 42.8215V42.8836C5.3213 42.6974 5.46318 42.5112 5.60505 42.3338L5.73805 42.1654V42.121L6.32327 41.456C6.99628 40.7121 7.74199 40.0373 8.54889 39.4432C12.2996 36.6412 17.4159 35.3555 22.4967 35.2402H24.9085C25.7065 35.2402 26.5046 35.3112 27.3026 35.391C28.1006 35.4708 28.9518 35.5683 29.7765 35.6925C32.5252 36.119 35.2412 36.7299 37.9075 37.5191L38.2711 37.6255L37.0652 38.6718C34.5762 37.9535 32.0438 37.3949 29.4839 36.9959C28.8188 36.8984 28.1538 36.8186 27.4888 36.7476C24.0936 36.2972 20.647 36.4178 17.2917 37.1023C16.8218 37.2087 16.3518 37.324 15.8996 37.4481C14.4862 37.7851 13.1154 38.279 11.8119 38.92C10.5058 39.5088 9.30702 40.3122 8.26515 41.2964C7.9282 41.6156 7.60899 41.9437 7.30751 42.2895C6.59194 43.0467 5.96416 43.882 5.43657 44.7811L4.41687 44.0452C4.70948 43.5752 4.89569 43.2649 5.22377 42.8215H5.1883Z" fill="#88B600"/>
<path id="Vector_5" fill-rule="evenodd" clip-rule="evenodd" d="M6.41188 43.2449L6.52715 43.0942L6.65129 42.9346L6.7577 42.8016V42.6951C7.49188 41.8705 8.29169 41.108 9.15178 40.4163L9.37346 40.2567C9.651 40.0616 9.94715 39.8754 10.2602 39.6981C10.731 39.4294 11.2169 39.1865 11.7143 38.971L11.8296 38.9178C12.2375 38.7316 12.6454 38.5543 13.0621 38.3947L13.4079 38.2616C14.1643 37.9868 14.9375 37.7589 15.7222 37.5789C16.1744 37.4548 16.6089 37.3483 17.0966 37.2508C19.7815 36.7188 22.525 36.5494 25.2542 36.7454C23.7708 37.7385 22.4585 38.9657 21.3705 40.3809C21.0868 40.7444 20.803 41.1168 20.537 41.4892C20.2728 41.8306 20.0272 42.1853 19.801 42.5533L19.1804 43.6616C14.5607 43.8213 9.99415 44.4153 5.40991 44.77C5.71139 44.2469 6.04656 43.7432 6.41188 43.2626V43.2449Z" fill="black"/>
</g>
</g>
</svg>
