<svg width="128" height="80" viewBox="0 0 128 80" fill="none" xmlns="http://www.w3.org/2000/svg">
<g id="logo / payment method / cheque / white">
<g id="logo">
<path fill-rule="evenodd" clip-rule="evenodd" d="M41.126 58.4953L31.0857 58.4952V25.663H41.1263V25.6679C49.2608 25.3337 56.1274 20.0996 63.0139 14.8504C69.6642 9.78127 76.333 4.69803 84.1799 4C84.1796 11.2233 84.1794 18.4466 84.1796 25.67H96.9143V61.1709H41.1264V58.5022V58.4981L41.126 58.4953ZM84.1796 29.0493L84.1797 32.678H85.3452V29.0493H84.1796ZM75.279 39.4792C74.7008 39.7642 74.1274 40.0668 73.5581 40.3844H75.279V39.4792ZM67.8177 44.0917C67.3462 44.4298 66.8762 44.773 66.4072 45.1198H75.2791V44.0917H67.8177ZM56.4181 55.4971H81.6207V56.5252H56.4181V55.4971ZM87.9711 29.0493H85.646V32.678H87.9711V29.0493ZM88.2793 29.0493H90.6045V32.678H88.2793V29.0493ZM93.2375 29.0493H90.9123V32.678H93.2375V29.0493ZM79.4818 48.7701H94.124V49.7982H79.4818V48.7701ZM94.124 39.3563H79.4818V44.1953H94.124V39.3563Z" fill="white"/>
<path d="M41.1264 58.5022L41.1263 61.1785H31.0857V58.5029L41.1264 58.5022Z" fill="white"/>
<path d="M48.8464 73.9887C48.3467 73.9887 47.8963 73.9102 47.4951 73.7533C47.0939 73.5893 46.7526 73.3503 46.471 73.0365C46.1895 72.7156 45.9713 72.3197 45.8165 71.849C45.6616 71.3711 45.5842 70.8148 45.5842 70.18C45.5842 69.5524 45.6616 68.9961 45.8165 68.5111C45.9713 68.0189 46.1895 67.6088 46.471 67.2807C46.7526 66.9455 47.0939 66.6923 47.4951 66.5211C47.8963 66.35 48.3467 66.2644 48.8464 66.2644C49.5292 66.2644 50.0922 66.407 50.5356 66.6923C50.979 66.9705 51.3345 67.4127 51.6019 68.0189L50.2189 68.7464C50.1204 68.4326 49.9655 68.183 49.7544 67.9975C49.5503 67.805 49.2476 67.7087 48.8464 67.7087C48.3749 67.7087 47.9948 67.8656 47.7062 68.1794C47.4247 68.4861 47.2839 68.9354 47.2839 69.5274V70.7256C47.2839 71.3176 47.4247 71.7705 47.7062 72.0844C47.9948 72.391 48.3749 72.5444 48.8464 72.5444C49.2406 72.5444 49.5538 72.4374 49.7861 72.2234C50.0254 72.0023 50.2013 71.7384 50.3139 71.4317L51.623 72.202C51.3485 72.7726 50.9861 73.2148 50.5356 73.5286C50.0922 73.8353 49.5292 73.9887 48.8464 73.9887Z" fill="white"/>
<path d="M54.224 65.9434H52.6615V73.8603H54.224V70.2228C54.224 70.0873 54.2522 69.9696 54.3085 69.8698C54.3648 69.7628 54.4387 69.6736 54.5302 69.6023C54.6287 69.531 54.7378 69.481 54.8575 69.4525C54.9771 69.4169 55.1003 69.399 55.227 69.399C55.5156 69.399 55.7162 69.4882 55.8288 69.6665C55.9414 69.8377 55.9977 70.1051 55.9977 70.4689V73.8603H57.5602V70.3405C57.5602 69.6273 57.4124 69.0781 57.1168 68.6929C56.8282 68.3078 56.3989 68.1152 55.8288 68.1152C55.3924 68.1152 55.051 68.2222 54.8047 68.4362C54.5584 68.6501 54.3859 68.9033 54.2874 69.1958H54.224V65.9434Z" fill="white"/>
<path fill-rule="evenodd" clip-rule="evenodd" d="M61.2627 73.9887C60.8404 73.9887 60.4639 73.9209 60.1331 73.7854C59.8023 73.6428 59.5207 73.4466 59.2885 73.197C59.0632 72.9402 58.8908 72.63 58.7712 72.2662C58.6585 71.9025 58.6022 71.4959 58.6022 71.0466C58.6022 70.6044 58.6585 70.205 58.7712 69.8484C58.8838 69.4846 59.0492 69.1744 59.2673 68.9176C59.4926 68.6608 59.7671 68.4647 60.0908 68.3292C60.4146 68.1865 60.7841 68.1152 61.1994 68.1152C61.6568 68.1152 62.0475 68.1937 62.3712 68.3506C62.702 68.5075 62.9695 68.7179 63.1736 68.9818C63.3847 69.2457 63.5361 69.5524 63.6276 69.9019C63.7261 70.2442 63.7754 70.6044 63.7754 70.9824V71.4531H60.2175V71.5387C60.2175 71.9096 60.3161 72.2056 60.5131 72.4267C60.7102 72.6407 61.0199 72.7477 61.4422 72.7477C61.7659 72.7477 62.0299 72.6835 62.234 72.5551C62.4381 72.4196 62.6281 72.2591 62.8041 72.0736L63.5853 73.0579C63.339 73.3503 63.0152 73.5786 62.614 73.7426C62.2199 73.9067 61.7695 73.9887 61.2627 73.9887ZM61.231 69.2813C60.9143 69.2813 60.6644 69.3883 60.4815 69.6023C60.3055 69.8091 60.2175 70.0873 60.2175 70.4368V70.5224H62.1601V70.4261C62.1601 70.0837 62.0827 69.8091 61.9278 69.6023C61.78 69.3883 61.5478 69.2813 61.231 69.2813Z" fill="white"/>
<path fill-rule="evenodd" clip-rule="evenodd" d="M68.2256 72.9188H68.2783V76H69.8408V68.2436H68.2783V69.1851H68.2256C68.1481 68.8712 67.9687 68.6145 67.6871 68.4148C67.4126 68.2151 67.0959 68.1152 66.737 68.1152C66.0331 68.1152 65.5017 68.3648 65.1428 68.8641C64.7838 69.3634 64.6044 70.0909 64.6044 71.0466C64.6044 72.0023 64.7838 72.7334 65.1428 73.2398C65.5017 73.7391 66.0331 73.9887 66.737 73.9887C66.9129 73.9887 67.0818 73.9602 67.2437 73.9031C67.4126 73.8532 67.5604 73.7818 67.6871 73.6891C67.8209 73.5893 67.9335 73.4752 68.025 73.3468C68.1165 73.2113 68.1833 73.0686 68.2256 72.9188ZM67.9827 72.4909C67.7927 72.6335 67.5499 72.7049 67.2543 72.7049C66.9587 72.7049 66.7123 72.6014 66.5153 72.3946C66.3252 72.1806 66.2302 71.8953 66.2302 71.5387V70.5652C66.2302 70.2085 66.3252 69.9268 66.5153 69.72C66.7123 69.506 66.9587 69.399 67.2543 69.399C67.5499 69.399 67.7927 69.4739 67.9827 69.6237C68.1798 69.7663 68.2783 69.966 68.2783 70.2228V71.8811C68.2783 72.1378 68.1798 72.3411 67.9827 72.4909Z" fill="white"/>
<path d="M74.5748 72.9188H74.522C74.4727 73.0615 74.4058 73.197 74.3214 73.3254C74.244 73.4538 74.1419 73.5679 74.0152 73.6677C73.8885 73.7676 73.7372 73.846 73.5613 73.9031C73.3923 73.9602 73.1953 73.9887 72.97 73.9887C72.3999 73.9887 71.9671 73.7997 71.6715 73.4217C71.3829 73.0365 71.2386 72.4873 71.2386 71.7741V68.2436H72.8011V71.635C72.8011 71.9774 72.8609 72.2413 72.9806 72.4267C73.1003 72.6121 73.3044 72.7049 73.5929 72.7049C73.7126 72.7049 73.8322 72.687 73.9519 72.6514C74.0715 72.6157 74.1771 72.5658 74.2686 72.5016C74.3601 72.4303 74.434 72.3447 74.4903 72.2448C74.5466 72.145 74.5748 72.0273 74.5748 71.8918V68.2436H76.1373V73.8603H74.5748V72.9188Z" fill="white"/>
<path fill-rule="evenodd" clip-rule="evenodd" d="M78.7735 73.7854C79.1043 73.9209 79.4808 73.9887 79.9031 73.9887C80.4099 73.9887 80.8603 73.9067 81.2545 73.7426C81.6557 73.5786 81.9794 73.3503 82.2258 73.0579L81.4445 72.0736C81.2686 72.2591 81.0785 72.4196 80.8744 72.5551C80.6703 72.6835 80.4064 72.7477 80.0826 72.7477C79.6603 72.7477 79.3506 72.6407 79.1536 72.4267C78.9565 72.2056 78.8579 71.9096 78.8579 71.5387V71.4531H82.4158V70.9824C82.4158 70.6044 82.3665 70.2442 82.268 69.9019C82.1765 69.5524 82.0252 69.2457 81.814 68.9818C81.6099 68.7179 81.3425 68.5075 81.0117 68.3506C80.6879 68.1937 80.2973 68.1152 79.8398 68.1152C79.4245 68.1152 79.055 68.1865 78.7313 68.3292C78.4075 68.4647 78.133 68.6608 77.9078 68.9176C77.6896 69.1744 77.5242 69.4846 77.4116 69.8484C77.299 70.205 77.2427 70.6044 77.2427 71.0466C77.2427 71.4959 77.299 71.9025 77.4116 72.2662C77.5312 72.63 77.7037 72.9402 77.9289 73.197C78.1612 73.4466 78.4427 73.6428 78.7735 73.7854ZM79.1219 69.6023C79.3049 69.3883 79.5547 69.2813 79.8715 69.2813C80.1882 69.2813 80.4204 69.3883 80.5682 69.6023C80.7231 69.8091 80.8005 70.0837 80.8005 70.4261V70.5224H78.8579V70.4368C78.8579 70.0873 78.9459 69.8091 79.1219 69.6023Z" fill="white"/>
</g>
</g>
</svg>
