<svg width="128" height="80" viewBox="0 0 128 80" fill="none" xmlns="http://www.w3.org/2000/svg">
<g id="logo / payment method / icbc bank / black">
<g id="logo">
<path fill-rule="evenodd" clip-rule="evenodd" d="M103.594 47.3659V50.3139H113.159V41.4687H107.276V38.52H113.159V29.6648H103.594V32.6154H110.207V35.5707H104.312V44.418H110.207V47.3659H103.594ZM86.5906 39.998C86.5906 31.0449 93.852 23.7755 102.808 23.7755C111.762 23.7755 119.025 31.0449 119.025 39.998C119.025 48.9545 111.762 56.2185 102.808 56.2185C93.852 56.2185 86.5906 48.9545 86.5906 39.998ZM83.6198 39.998C83.6198 29.3964 92.2051 20.8096 102.808 20.8096C113.409 20.8096 122 29.3964 122 39.998C122 50.5996 113.409 59.1898 102.808 59.1898C92.2051 59.1898 83.6198 50.5996 83.6198 39.998ZM102.106 32.6074V29.6581H92.5294V38.508H98.3977V41.46H92.5294V50.3086H102.106V47.3593H95.4769V44.4113H101.371V35.5561H95.4769V32.6074" fill="black"/>
<path fill-rule="evenodd" clip-rule="evenodd" d="M38.2369 41.6377V41.5896H45.3553C46.0056 41.5896 46.9417 41.6939 47.6914 42.1869C48.3901 42.6492 48.7474 43.3322 48.7474 44.2165C48.7474 44.9209 48.5559 45.4721 48.1806 45.8528C47.4826 46.5545 46.2774 46.5531 45.3957 46.5531H38.2111V46.5097L38.2369 41.6377ZM38.2369 33.4565H44.7534C45.8996 33.4565 47.8207 33.4565 47.8207 35.7376C47.8207 36.5738 47.4607 37.1651 46.7514 37.4983C46.1117 37.7993 45.3129 37.8307 44.7693 37.8307H38.2369V33.4565ZM45.6198 50.3769C48.0898 50.3769 49.9533 49.7748 51.1571 48.5861C52.3935 47.3646 52.654 45.7946 52.654 44.6888C52.654 42.2726 51.6477 40.5922 49.6616 39.6978L49.5741 39.661L49.6569 39.6169C50.5525 39.144 51.7385 38.1833 51.7385 35.3196C51.7385 33.7462 51.1458 32.3287 50.0673 31.3266C48.8853 30.2262 47.1604 29.6462 45.0848 29.6462L34.3271 29.6395V50.3709" fill="black"/>
<path fill-rule="evenodd" clip-rule="evenodd" d="M6 50.3768H10.0981V29.6461H6V50.3768Z" fill="black"/>
<path fill-rule="evenodd" clip-rule="evenodd" d="M13.4254 39.8349C13.4254 41.8391 13.7622 43.4941 14.4549 44.8929C15.0336 46.0582 15.849 47.0402 17.0264 47.9854C18.858 49.4537 21.4374 50.1996 24.6936 50.1996H30.3025V46.2869H25.0045C22.0572 46.2869 19.92 45.5511 18.6538 44.0982C17.7536 43.068 17.2915 41.6766 17.2796 39.9654C17.263 38.1298 17.7761 36.6702 18.7996 35.6306C20.0804 34.3295 22.1679 33.6706 25.0045 33.6706H30.3025V29.79H24.8892C23.0662 29.79 21.5381 29.9747 20.2136 30.3479C18.8918 30.7232 17.8053 31.2824 16.8951 32.0558C15.6004 33.1575 13.4254 35.6306 13.4254 39.8349Z" fill="black"/>
<path fill-rule="evenodd" clip-rule="evenodd" d="M55.1267 39.8347C55.1267 41.8348 55.4714 43.6009 56.1562 45.0766C56.7489 46.3556 57.6126 47.458 58.7263 48.3504C60.4479 49.7344 62.8848 50.3773 66.3936 50.3773H72.3068V46.4653H66.7058C63.7638 46.4653 61.6266 45.6973 60.3524 44.1835C59.4535 43.1179 58.9915 41.699 58.9802 39.9651C58.963 38.0787 59.494 36.5742 60.5533 35.4986C61.8414 34.1881 63.9103 33.5238 66.7058 33.5238H72.3068V29.6466H66.5878C64.7661 29.6466 63.2394 29.8292 61.9136 30.2032C60.5918 30.5778 59.5052 31.1343 58.5977 31.9083C57.5516 32.7953 55.1267 35.344 55.1267 39.8347Z" fill="black"/>
</g>
</g>
</svg>
