<svg width="128" height="80" viewBox="0 0 128 80" fill="none" xmlns="http://www.w3.org/2000/svg">
<g id="logo / payment method / giropay / white">
<g id="logo">
<path fill-rule="evenodd" clip-rule="evenodd" d="M25.1004 33.6067H29.0963V44.8752C29.0963 50.1099 26.5523 51.8015 21.4108 51.8015C19.3063 51.8015 17.5614 51.362 16.5358 50.989L16.7622 47.5126C18.1075 48.1786 19.2397 48.5648 21.0778 48.5648C23.6219 48.5648 24.9938 47.366 24.9938 44.8752V44.1826H24.9406C23.8883 45.6744 22.4231 46.3671 20.6516 46.3671C17.1618 46.3671 14.9774 43.7164 14.9774 39.9469C14.9774 36.1508 16.7622 33.3137 20.7315 33.3137C22.6096 33.3137 24.1281 34.3393 25.0604 35.911H25.1004V33.6067ZM22.0235 36.6969C20.3719 36.6969 19.5194 38.1354 19.5194 39.8803C19.5194 41.865 20.6915 42.9838 22.0235 42.9838C23.5819 42.9838 24.834 41.6652 24.834 39.7072C24.834 38.282 24.0082 36.6969 22.0235 36.6969Z" fill="white"/>
<path d="M32.1332 28.2921H36.5421V31.5288H32.1332V28.2921Z" fill="white"/>
<path d="M36.5421 46.3671H32.1332V33.6067H36.5421V46.3671Z" fill="white"/>
<path d="M47.3178 33.3137C47.824 33.3137 48.3701 33.3936 48.8096 33.4602L48.5965 37.1498C48.1037 37.0033 47.6242 37.0033 47.1047 37.0033C45.0534 37.0033 43.8946 38.4951 43.8946 40.9992V46.3804H39.4858V33.62H43.495V35.9643H43.5483C44.3075 34.3393 45.4131 33.3137 47.3178 33.3137Z" fill="white"/>
<path fill-rule="evenodd" clip-rule="evenodd" d="M63.821 40.0002C63.821 44.2093 60.6109 46.6601 56.4019 46.6601C52.1795 46.6601 48.9828 44.2093 48.9828 40.0002C48.9828 35.7645 52.1928 33.3137 56.4019 33.3137C60.6109 33.3137 63.821 35.7645 63.821 40.0002ZM53.5381 40.0002C53.5381 41.8783 54.364 43.5699 56.4019 43.5699C58.4265 43.5699 59.2657 41.8783 59.2657 40.0002C59.2657 38.0955 58.4398 36.4039 56.4019 36.4039C54.364 36.4039 53.5381 38.0955 53.5381 40.0002Z" fill="white"/>
<path d="M77.5403 43.2765C79.2053 43.2765 80.2043 41.8912 80.2043 39.8533C80.2043 38.1617 79.2453 36.6965 77.5403 36.6832C75.9286 36.6832 74.8497 38.1084 74.8497 40.0131C74.8497 41.8779 76.0751 43.2765 77.5403 43.2765Z" fill="white"/>
<path d="M93.4308 40.6258C91.939 40.6258 90.7669 41.092 90.7669 42.3174C90.7669 43.2099 91.5527 43.716 92.5784 43.7027C94.2433 43.7027 95.2956 42.1842 95.2956 40.6924C95.1801 40.687 95.0624 40.6811 94.9427 40.6751L94.9416 40.6751C94.4679 40.6513 93.9621 40.6258 93.4308 40.6258Z" fill="white"/>
<path fill-rule="evenodd" clip-rule="evenodd" d="M14.1507 14.6392C9.10249 14.6392 5 18.715 5 23.7366V56.2768C5 61.2984 9.10249 65.3742 14.1507 65.3609H113.849C118.911 65.3609 123 61.2851 123 56.2635V23.7366C123 18.715 118.897 14.6392 113.849 14.6392H14.1507ZM8.75605 55.9703V24.0561C8.75605 20.9126 11.3135 18.3685 14.4702 18.3685H66.6971V61.6578H14.4702C11.3135 61.6578 8.75605 59.1137 8.75605 55.9703ZM70.4142 51.5081H74.8364V44.5818H74.8897C75.7288 46.1003 77.3938 46.6597 78.9256 46.6597C82.7217 46.6597 84.7463 43.5295 84.7463 39.76C84.7463 36.6698 82.815 33.3266 79.2852 33.3266C77.2739 33.3266 75.4225 34.1391 74.5301 35.9239H74.4768V33.6196H70.4142V51.5081ZM99.6645 46.3667L99.6618 46.3533H99.6645V46.3667ZM99.6618 46.3533C99.4643 45.3587 99.4247 44.3509 99.4247 43.3564V38.6012C99.4247 34.7118 96.6143 33.3133 93.3509 33.3133C91.4728 33.3133 89.8212 33.5797 88.2627 34.219L88.3427 37.2026C89.5681 36.51 90.98 36.2436 92.4052 36.2436C93.9903 36.2436 95.2956 36.7098 95.3222 38.4547C94.7628 38.3615 93.9769 38.2815 93.271 38.2815C90.9267 38.2815 86.691 38.7477 86.691 42.6371C86.691 45.4076 88.9421 46.6464 91.4595 46.6464C93.271 46.6464 94.4964 45.9404 95.4954 44.342H95.5487C95.5487 44.7508 95.5738 45.1545 95.5993 45.5655C95.6154 45.8242 95.6316 46.0858 95.6419 46.3533H99.6618ZM101.636 51.5081C102.542 51.7079 103.447 51.8011 104.38 51.8011C108.183 51.8011 109.254 49.0334 110.412 46.0392L110.413 46.0379L110.418 46.0236C110.487 45.8455 110.557 45.6666 110.627 45.4875L115.302 33.6196H110.893L108.269 41.9445H108.229L105.485 33.6196H100.743L105.911 46.673C105.592 47.8052 104.766 48.4312 103.687 48.4312C103.074 48.4312 102.542 48.3513 101.942 48.1648L101.636 51.5081Z" fill="white"/>
</g>
</g>
</svg>
