<svg width="141" height="72" viewBox="0 0 141 72" fill="none" xmlns="http://www.w3.org/2000/svg">
<g id="logo / deriv product / deriv ez / brand-dark / logo wordmark vertical">
<g id="logo">
<path d="M0 13.5C0 6.04416 6.04416 0 13.5 0H58.5C65.9558 0 72 6.04416 72 13.5V58.5C72 65.9558 65.9558 72 58.5 72H13.5C6.04416 72 0 65.9558 0 58.5V13.5Z" fill="#FF444F"/>
<path d="M13.5 0C6.04416 0 0 6.04416 0 13.5V13.8921L67.3075 3.26845C64.9433 1.2315 61.8655 0 58.5 0H13.5Z" fill="#E12E3A"/>
<path d="M68.6969 4.65243L56.3498 71.9999L58.5 72C65.9558 72 72 65.9558 72 58.5V13.5C72 10.1155 70.7545 7.02183 68.6969 4.65243Z" fill="#E12E3A"/>
<path d="M19.1914 46.9147V25.0852H33.9334V29.2117H24.1054V33.4957H32.8309V37.5277H24.1054V42.7882H34.6579V46.9147H19.1914Z" fill="white"/>
<path d="M52.4613 28.4872C51.7893 29.1802 50.9913 30.0832 50.0673 31.1962C49.1433 32.2882 48.1878 33.4852 47.2008 34.7872C46.2138 36.0892 45.2373 37.4332 44.2713 38.8192C43.3053 40.2052 42.4443 41.5282 41.6883 42.7882H52.8078V46.9147H35.6403V43.9852C36.2283 42.9142 36.9423 41.7277 37.7823 40.4257C38.6433 39.1027 39.5358 37.7797 40.4598 36.4567C41.3838 35.1127 42.3183 33.8212 43.2633 32.5822C44.2293 31.3222 45.1218 30.1987 45.9408 29.2117H36.1443V25.0852H52.4613V28.4872Z" fill="white"/>
</g>
<g id="wordmark">
<path fill-rule="evenodd" clip-rule="evenodd" d="M99.4983 7.49649L98.6122 12.5219H95.5362C92.6665 12.5219 89.9312 14.847 89.4243 17.7168L89.2097 18.9382C88.7051 21.808 90.6198 24.1331 93.4895 24.1331H96.055C98.1465 24.1331 100.139 22.44 100.507 20.3484L102.87 6.95453L99.4983 7.49649ZM97.3158 19.8744C97.2026 20.5205 96.6209 21.0464 95.9748 21.0464H94.4162C93.1263 21.0464 92.2633 19.9994 92.4897 18.7072L92.6241 17.9455C92.8528 16.6556 94.0837 15.6063 95.3735 15.6063H98.0683L97.3158 19.8744Z" fill="white"/>
<path d="M123.189 24.1342H126.381L128.4 12.6833H125.207L123.189 24.1342Z" fill="white"/>
<path d="M123.294 14.1756L123.294 14.173C123.374 13.7203 123.454 13.2675 123.534 12.8147C120.258 11.9706 117.706 12.8439 116.667 13.2742C116.667 13.2742 115.185 21.6762 114.751 24.1364H117.946C118.464 21.1961 118.983 18.2551 119.501 15.3148C119.98 15.2192 121.541 15.0695 123.053 15.5395C123.133 15.0849 123.214 14.6302 123.294 14.1756Z" fill="white"/>
<path fill-rule="evenodd" clip-rule="evenodd" d="M110.584 12.5208H108.101C105.68 12.5208 103.371 14.4827 102.945 16.9044L102.442 19.7506C102.015 22.1723 103.631 24.1343 106.052 24.1343H111.339L111.881 21.057H106.913C106.107 21.057 105.567 20.4038 105.711 19.595L105.727 19.4983H113.737L114.195 16.9044C114.621 14.4827 113.006 12.5208 110.584 12.5208ZM110.99 16.6592L110.971 16.8242H106.208L106.234 16.678C106.378 15.8716 107.114 15.1618 107.922 15.1618H109.783C110.582 15.1618 111.122 15.8598 110.99 16.6592Z" fill="white"/>
<path d="M133.948 20.2362C135.397 17.6281 136.995 14.2063 137.661 12.6833H140.859C139.77 15.5771 137.276 20.4996 134.86 24.1342H131.665C130.556 20.6749 129.84 15.855 129.703 12.6833H132.898C132.956 13.7179 133.419 17.5553 133.948 20.2362Z" fill="white"/>
<path d="M88 65.0455V32.3012H110.113V38.4909H95.371V44.917H108.459V50.965H95.371V58.8557H111.2V65.0455H88Z" fill="white"/>
<path d="M137.905 37.4042C136.897 38.4437 135.7 39.7982 134.314 41.4677C132.928 43.1057 131.495 44.9012 130.014 46.8542C128.534 48.8072 127.069 50.8232 125.62 52.9022C124.171 54.9812 122.879 56.9657 121.745 58.8557H138.425V65.0455H112.673V60.6512C113.555 59.0447 114.626 57.265 115.886 55.312C117.178 53.3275 118.517 51.343 119.903 49.3585C121.289 47.3425 122.69 45.4052 124.108 43.5467C125.557 41.6567 126.896 39.9714 128.124 38.4909H113.429V32.3012H137.905V37.4042Z" fill="white"/>
</g>
</g>
</svg>
